<svg 
 xmlns="http://www.w3.org/2000/svg"
 xmlns:xlink="http://www.w3.org/1999/xlink"
 width="44px" height="47px">
<path fill-rule="evenodd"  fill="rgb(47, 47, 47)"
 d="M40.841,40.728 C40.841,32.376 40.841,24.023 40.841,15.671 C38.351,15.671 35.860,15.671 33.370,15.671 C32.812,15.671 32.255,15.671 31.697,15.671 C31.427,15.671 31.124,15.684 30.919,15.624 C30.872,15.624 30.825,15.624 30.778,15.624 C30.778,15.617 30.778,15.609 30.778,15.601 C30.715,15.593 30.652,15.585 30.589,15.577 C30.589,15.570 30.589,15.562 30.589,15.554 C30.566,15.554 30.542,15.554 30.519,15.554 C30.519,15.546 30.519,15.538 30.519,15.530 C30.495,15.530 30.471,15.530 30.448,15.530 C30.448,15.523 30.448,15.515 30.448,15.507 C30.424,15.507 30.401,15.507 30.377,15.507 C30.377,15.499 30.377,15.491 30.377,15.483 C30.330,15.476 30.283,15.468 30.236,15.460 C30.236,15.452 30.236,15.444 30.236,15.436 C30.204,15.429 30.173,15.421 30.141,15.413 C30.141,15.405 30.141,15.397 30.141,15.390 C30.126,15.390 30.110,15.390 30.094,15.390 C30.094,15.382 30.094,15.374 30.094,15.366 C30.055,15.358 30.016,15.350 29.977,15.343 C29.969,15.327 29.961,15.311 29.953,15.296 C29.906,15.280 29.859,15.264 29.812,15.249 C29.804,15.233 29.796,15.217 29.788,15.202 C29.772,15.202 29.757,15.202 29.741,15.202 C29.733,15.186 29.725,15.170 29.717,15.155 C29.702,15.155 29.686,15.155 29.670,15.155 C29.662,15.139 29.654,15.123 29.647,15.108 C29.631,15.108 29.615,15.108 29.599,15.108 C29.592,15.092 29.584,15.076 29.576,15.061 C29.560,15.061 29.544,15.061 29.529,15.061 C29.505,15.029 29.482,14.998 29.458,14.967 C29.442,14.967 29.427,14.967 29.411,14.967 C29.340,14.889 29.270,14.810 29.199,14.732 C29.128,14.669 29.057,14.607 28.987,14.544 C28.987,14.528 28.987,14.513 28.987,14.497 C28.963,14.482 28.940,14.466 28.916,14.450 C28.908,14.427 28.900,14.403 28.892,14.380 C28.877,14.372 28.861,14.364 28.845,14.356 C28.845,14.341 28.845,14.325 28.845,14.309 C28.830,14.301 28.814,14.294 28.798,14.286 C28.798,14.270 28.798,14.254 28.798,14.239 C28.782,14.231 28.767,14.223 28.751,14.215 C28.743,14.192 28.735,14.168 28.727,14.145 C28.720,14.145 28.712,14.145 28.704,14.145 C28.688,14.098 28.672,14.051 28.657,14.004 C28.649,14.004 28.641,14.004 28.633,14.004 C28.633,13.988 28.633,13.973 28.633,13.957 C28.625,13.957 28.618,13.957 28.610,13.957 C28.610,13.941 28.610,13.926 28.610,13.910 C28.602,13.910 28.594,13.910 28.586,13.910 C28.570,13.863 28.555,13.816 28.539,13.769 C28.531,13.769 28.523,13.769 28.515,13.769 C28.453,13.566 28.390,13.362 28.327,13.159 C28.327,13.112 28.327,13.065 28.327,13.018 C28.260,12.787 28.280,12.446 28.280,12.149 C28.280,11.523 28.280,10.896 28.280,10.270 C28.280,7.899 28.280,5.526 28.280,3.155 C22.004,3.155 15.726,3.155 9.450,3.155 C9.450,7.217 9.450,11.280 9.450,15.343 C9.450,15.836 9.450,16.329 9.450,16.822 C9.450,17.065 9.459,17.317 9.403,17.503 C9.403,17.542 9.403,17.581 9.403,17.620 C9.395,17.620 9.387,17.620 9.379,17.620 C9.379,17.644 9.379,17.667 9.379,17.691 C9.372,17.691 9.364,17.691 9.356,17.691 C9.356,17.714 9.356,17.738 9.356,17.761 C9.348,17.761 9.340,17.761 9.332,17.761 C9.332,17.785 9.332,17.808 9.332,17.832 C9.324,17.832 9.317,17.832 9.309,17.832 C9.309,17.847 9.309,17.863 9.309,17.879 C9.301,17.879 9.293,17.879 9.285,17.879 C9.277,17.918 9.269,17.957 9.262,17.996 C9.246,18.004 9.230,18.012 9.214,18.020 C9.207,18.051 9.199,18.082 9.191,18.114 C9.167,18.129 9.144,18.145 9.120,18.161 C9.120,18.176 9.120,18.192 9.120,18.207 C9.057,18.262 8.995,18.317 8.932,18.372 C8.900,18.411 8.869,18.450 8.837,18.489 C8.822,18.489 8.806,18.489 8.790,18.489 C8.775,18.513 8.759,18.536 8.743,18.560 C8.712,18.568 8.680,18.575 8.649,18.583 C8.641,18.599 8.633,18.615 8.625,18.630 C8.610,18.630 8.594,18.630 8.578,18.630 C8.578,18.638 8.578,18.646 8.578,18.654 C8.562,18.654 8.547,18.654 8.531,18.654 C8.531,18.661 8.531,18.669 8.531,18.677 C8.507,18.677 8.484,18.677 8.460,18.677 C8.460,18.685 8.460,18.693 8.460,18.701 C8.445,18.701 8.429,18.701 8.413,18.701 C8.413,18.708 8.413,18.716 8.413,18.724 C8.358,18.732 8.303,18.740 8.248,18.748 C8.248,18.755 8.248,18.763 8.248,18.771 C8.217,18.771 8.185,18.771 8.154,18.771 C8.154,18.779 8.154,18.787 8.154,18.795 C8.099,18.795 8.044,18.795 7.989,18.795 C7.949,18.806 7.829,18.839 7.753,18.818 C7.604,18.787 7.455,18.755 7.306,18.724 C7.306,18.716 7.306,18.708 7.306,18.701 C7.274,18.693 7.243,18.685 7.211,18.677 C7.211,18.669 7.211,18.661 7.211,18.654 C7.188,18.654 7.164,18.654 7.141,18.654 C7.133,18.638 7.125,18.622 7.117,18.607 C7.086,18.599 7.054,18.591 7.023,18.583 C7.015,18.568 7.007,18.552 6.999,18.536 C6.984,18.536 6.968,18.536 6.952,18.536 C6.936,18.513 6.921,18.489 6.905,18.466 C6.889,18.466 6.874,18.466 6.858,18.466 C6.834,18.434 6.811,18.403 6.787,18.372 C6.732,18.325 6.677,18.278 6.622,18.231 C6.622,18.215 6.622,18.200 6.622,18.184 C6.599,18.168 6.575,18.153 6.551,18.137 C6.551,18.121 6.551,18.106 6.551,18.090 C6.536,18.082 6.520,18.074 6.504,18.067 C6.489,18.020 6.473,17.973 6.457,17.926 C6.449,17.926 6.441,17.926 6.434,17.926 C6.434,17.910 6.434,17.894 6.434,17.879 C6.426,17.879 6.418,17.879 6.410,17.879 C6.267,17.558 6.292,17.100 6.292,16.634 C6.292,15.914 6.292,15.194 6.292,14.474 C6.292,11.398 6.292,8.321 6.292,5.245 C6.292,4.658 6.292,4.071 6.292,3.484 C6.292,3.268 6.265,2.978 6.316,2.803 C6.316,2.748 6.316,2.693 6.316,2.638 C6.324,2.638 6.332,2.638 6.339,2.638 C6.347,2.560 6.355,2.482 6.363,2.403 C6.371,2.403 6.379,2.403 6.387,2.403 C6.387,2.372 6.387,2.341 6.387,2.309 C6.394,2.309 6.402,2.309 6.410,2.309 C6.410,2.286 6.410,2.262 6.410,2.239 C6.418,2.239 6.426,2.239 6.434,2.239 C6.434,2.215 6.434,2.192 6.434,2.169 C6.441,2.169 6.449,2.169 6.457,2.169 C6.457,2.145 6.457,2.122 6.457,2.098 C6.465,2.098 6.473,2.098 6.481,2.098 C6.481,2.075 6.481,2.051 6.481,2.028 C6.489,2.028 6.496,2.028 6.504,2.028 C6.504,2.012 6.504,1.996 6.504,1.981 C6.512,1.981 6.520,1.981 6.528,1.981 C6.528,1.957 6.528,1.934 6.528,1.910 C6.536,1.910 6.544,1.910 6.551,1.910 C6.567,1.863 6.583,1.816 6.599,1.769 C6.606,1.769 6.614,1.769 6.622,1.769 C6.622,1.754 6.622,1.738 6.622,1.722 C6.630,1.722 6.638,1.722 6.646,1.722 C6.646,1.707 6.646,1.691 6.646,1.675 C6.654,1.675 6.661,1.675 6.669,1.675 C6.685,1.628 6.701,1.581 6.716,1.534 C6.724,1.534 6.732,1.534 6.740,1.534 C6.748,1.511 6.756,1.488 6.764,1.464 C6.779,1.456 6.795,1.448 6.811,1.441 C6.811,1.425 6.811,1.409 6.811,1.394 C6.826,1.386 6.842,1.378 6.858,1.370 C6.858,1.354 6.858,1.339 6.858,1.323 C6.881,1.307 6.905,1.292 6.929,1.276 C6.929,1.261 6.929,1.245 6.929,1.229 C6.960,1.206 6.991,1.182 7.023,1.159 C7.023,1.143 7.023,1.127 7.023,1.112 C7.109,1.034 7.196,0.955 7.282,0.877 C7.321,0.830 7.361,0.783 7.400,0.736 C7.416,0.736 7.431,0.736 7.447,0.736 C7.471,0.705 7.494,0.673 7.518,0.642 C7.533,0.642 7.549,0.642 7.565,0.642 C7.581,0.619 7.596,0.595 7.612,0.572 C7.628,0.572 7.643,0.572 7.659,0.572 C7.667,0.556 7.675,0.540 7.683,0.525 C7.698,0.525 7.714,0.525 7.730,0.525 C7.738,0.509 7.746,0.493 7.753,0.478 C7.785,0.470 7.816,0.462 7.848,0.454 C7.855,0.439 7.863,0.423 7.871,0.407 C7.918,0.392 7.965,0.376 8.013,0.360 C8.013,0.352 8.013,0.345 8.013,0.337 C8.060,0.321 8.107,0.306 8.154,0.290 C8.154,0.282 8.154,0.274 8.154,0.266 C8.178,0.266 8.201,0.266 8.225,0.266 C8.225,0.259 8.225,0.251 8.225,0.243 C8.240,0.243 8.256,0.243 8.272,0.243 C8.272,0.235 8.272,0.227 8.272,0.219 C8.295,0.219 8.319,0.219 8.343,0.219 C8.343,0.212 8.343,0.204 8.343,0.196 C8.358,0.196 8.374,0.196 8.390,0.196 C8.390,0.188 8.390,0.180 8.390,0.172 C8.413,0.172 8.437,0.172 8.460,0.172 C8.460,0.165 8.460,0.157 8.460,0.149 C8.492,0.149 8.523,0.149 8.555,0.149 C8.555,0.141 8.555,0.133 8.555,0.125 C8.578,0.125 8.602,0.125 8.625,0.125 C8.625,0.118 8.625,0.110 8.625,0.102 C8.657,0.102 8.688,0.102 8.720,0.102 C8.720,0.094 8.720,0.086 8.720,0.079 C8.759,0.079 8.798,0.079 8.837,0.079 C9.106,-0.003 9.472,0.008 9.827,0.008 C10.440,0.008 11.053,0.008 11.665,0.008 C13.825,0.008 15.986,0.008 18.146,0.008 C20.966,0.008 23.787,0.008 26.607,0.008 C27.431,0.008 28.256,0.008 29.081,0.008 C29.503,0.008 30.035,-0.035 30.354,0.079 C30.354,0.086 30.354,0.094 30.354,0.102 C30.377,0.102 30.401,0.102 30.424,0.102 C30.424,0.110 30.424,0.118 30.424,0.125 C30.471,0.141 30.519,0.157 30.566,0.172 C30.566,0.180 30.566,0.188 30.566,0.196 C30.581,0.196 30.597,0.196 30.613,0.196 C30.613,0.204 30.613,0.212 30.613,0.219 C30.644,0.227 30.676,0.235 30.707,0.243 C30.715,0.259 30.723,0.274 30.731,0.290 C30.746,0.290 30.762,0.290 30.778,0.290 C30.793,0.313 30.809,0.337 30.825,0.360 C30.841,0.360 30.856,0.360 30.872,0.360 C30.943,0.439 31.013,0.517 31.084,0.595 C31.131,0.634 31.178,0.673 31.226,0.713 C31.398,0.893 31.571,1.073 31.744,1.253 C31.987,1.487 32.231,1.722 32.475,1.957 C33.056,2.544 33.637,3.131 34.218,3.718 C34.705,4.196 35.193,4.673 35.680,5.151 C37.329,6.802 38.979,8.454 40.629,10.106 C40.786,10.255 40.943,10.403 41.100,10.552 C41.634,11.092 42.168,11.632 42.702,12.172 C43.001,12.462 43.299,12.752 43.598,13.041 C43.598,13.057 43.598,13.073 43.598,13.088 C43.629,13.112 43.661,13.135 43.692,13.159 C43.692,13.174 43.692,13.190 43.692,13.206 C43.708,13.213 43.724,13.221 43.739,13.229 C43.747,13.253 43.755,13.276 43.763,13.300 C43.771,13.300 43.779,13.300 43.786,13.300 C43.794,13.331 43.802,13.362 43.810,13.393 C43.818,13.393 43.826,13.393 43.834,13.393 C43.841,13.425 43.849,13.456 43.857,13.487 C43.865,13.487 43.873,13.487 43.881,13.487 C43.881,13.511 43.881,13.534 43.881,13.558 C43.889,13.558 43.896,13.558 43.904,13.558 C43.904,13.581 43.904,13.605 43.904,13.628 C43.912,13.628 43.920,13.628 43.928,13.628 C43.928,13.652 43.928,13.675 43.928,13.699 C43.936,13.699 43.944,13.699 43.951,13.699 C43.951,13.730 43.951,13.761 43.951,13.793 C43.959,13.793 43.967,13.793 43.975,13.793 C43.975,13.840 43.975,13.887 43.975,13.934 C43.983,13.934 43.991,13.934 43.999,13.934 C43.999,14.442 43.999,14.951 43.999,15.460 C43.999,17.033 43.999,18.607 43.999,20.180 C43.999,25.401 43.999,30.623 43.999,35.843 C43.999,37.080 43.999,38.317 43.999,39.554 C43.999,39.867 43.999,40.180 43.999,40.493 C43.999,40.654 44.010,40.863 43.975,40.986 C43.967,41.104 43.959,41.221 43.951,41.338 C43.889,41.542 43.826,41.745 43.763,41.949 C43.755,41.949 43.747,41.949 43.739,41.949 C43.724,41.996 43.708,42.043 43.692,42.090 C43.684,42.090 43.676,42.090 43.669,42.090 C43.669,42.105 43.669,42.121 43.669,42.137 C43.661,42.137 43.653,42.137 43.645,42.137 C43.645,42.152 43.645,42.168 43.645,42.184 C43.637,42.184 43.629,42.184 43.621,42.184 C43.606,42.231 43.590,42.278 43.574,42.325 C43.559,42.332 43.543,42.340 43.527,42.348 C43.519,42.379 43.511,42.411 43.504,42.442 C43.488,42.450 43.472,42.458 43.456,42.466 C43.456,42.481 43.456,42.497 43.456,42.513 C43.433,42.528 43.409,42.544 43.386,42.559 C43.386,42.575 43.386,42.591 43.386,42.606 C43.362,42.622 43.339,42.638 43.315,42.653 C43.315,42.669 43.315,42.685 43.315,42.700 C43.260,42.747 43.205,42.794 43.150,42.841 C43.150,42.857 43.150,42.873 43.150,42.888 C43.111,42.920 43.072,42.951 43.032,42.982 C43.024,42.998 43.017,43.013 43.009,43.029 C42.993,43.029 42.977,43.029 42.962,43.029 C42.922,43.076 42.883,43.123 42.844,43.170 C42.828,43.170 42.812,43.170 42.797,43.170 C42.773,43.201 42.750,43.233 42.726,43.264 C42.710,43.264 42.695,43.264 42.679,43.264 C42.671,43.280 42.663,43.295 42.655,43.311 C42.632,43.319 42.608,43.327 42.585,43.334 C42.585,43.342 42.585,43.350 42.585,43.358 C42.569,43.358 42.553,43.358 42.537,43.358 C42.530,43.374 42.522,43.389 42.514,43.405 C42.482,43.413 42.451,43.421 42.420,43.428 C42.412,43.444 42.404,43.460 42.396,43.475 C42.365,43.483 42.333,43.491 42.302,43.499 C42.302,43.507 42.302,43.514 42.302,43.522 C42.286,43.522 42.270,43.522 42.255,43.522 C42.255,43.530 42.255,43.538 42.255,43.546 C42.207,43.561 42.160,43.577 42.113,43.593 C42.113,43.601 42.113,43.608 42.113,43.616 C42.090,43.616 42.066,43.616 42.043,43.616 C42.043,43.624 42.043,43.632 42.043,43.640 C42.027,43.640 42.011,43.640 41.995,43.640 C41.995,43.648 41.995,43.655 41.995,43.663 C41.972,43.663 41.948,43.663 41.925,43.663 C41.925,43.671 41.925,43.679 41.925,43.687 C41.901,43.687 41.878,43.687 41.854,43.687 C41.854,43.695 41.854,43.702 41.854,43.710 C41.830,43.710 41.807,43.710 41.783,43.710 C41.783,43.718 41.783,43.726 41.783,43.734 C41.760,43.734 41.736,43.734 41.713,43.734 C41.713,43.741 41.713,43.749 41.713,43.757 C41.650,43.765 41.587,43.773 41.524,43.781 C41.004,43.950 40.032,43.875 39.356,43.875 C37.377,43.875 35.397,43.875 33.417,43.875 C30.346,43.875 27.274,43.875 24.203,43.875 C23.637,43.875 23.071,43.875 22.506,43.875 C22.235,43.875 21.935,43.890 21.728,43.828 C21.689,43.828 21.650,43.828 21.610,43.828 C21.610,43.820 21.610,43.812 21.610,43.804 C21.540,43.788 21.469,43.773 21.398,43.757 C21.398,43.749 21.398,43.741 21.398,43.734 C21.351,43.718 21.304,43.702 21.257,43.687 C21.257,43.679 21.257,43.671 21.257,43.663 C21.226,43.655 21.194,43.648 21.163,43.640 C21.155,43.624 21.147,43.608 21.139,43.593 C21.123,43.593 21.108,43.593 21.092,43.593 C21.076,43.569 21.061,43.546 21.045,43.522 C21.029,43.522 21.013,43.522 20.998,43.522 C20.951,43.468 20.903,43.413 20.856,43.358 C20.825,43.334 20.793,43.311 20.762,43.287 C20.632,43.107 20.530,42.888 20.456,42.653 C20.456,42.614 20.456,42.575 20.456,42.536 C20.350,42.181 20.500,41.763 20.621,41.550 C20.621,41.534 20.621,41.518 20.621,41.503 C20.636,41.495 20.652,41.487 20.668,41.479 C20.668,41.464 20.668,41.448 20.668,41.432 C20.683,41.424 20.699,41.417 20.715,41.409 C20.715,41.393 20.715,41.378 20.715,41.362 C20.746,41.338 20.778,41.315 20.809,41.291 C20.809,41.276 20.809,41.260 20.809,41.244 C20.848,41.213 20.888,41.182 20.927,41.151 C20.935,41.135 20.943,41.119 20.951,41.104 C20.966,41.104 20.982,41.104 20.998,41.104 C21.021,41.072 21.045,41.041 21.068,41.010 C21.084,41.010 21.100,41.010 21.116,41.010 C21.123,40.994 21.131,40.978 21.139,40.963 C21.171,40.955 21.202,40.947 21.233,40.939 C21.241,40.923 21.249,40.908 21.257,40.892 C21.296,40.884 21.335,40.877 21.375,40.869 C21.375,40.861 21.375,40.853 21.375,40.845 C21.390,40.845 21.406,40.845 21.422,40.845 C21.422,40.837 21.422,40.830 21.422,40.822 C21.469,40.814 21.516,40.806 21.563,40.798 C21.563,40.790 21.563,40.783 21.563,40.775 C21.817,40.686 22.272,40.728 22.600,40.728 C23.307,40.728 24.014,40.728 24.721,40.728 C30.094,40.728 35.468,40.728 40.841,40.728 ZM31.438,12.525 C33.825,12.525 36.214,12.525 38.602,12.525 C38.602,12.517 38.602,12.509 38.602,12.501 C36.214,10.130 33.825,7.757 31.438,5.386 C31.438,7.765 31.438,10.145 31.438,12.525 ZM13.975,9.401 C16.858,9.401 19.741,9.401 22.624,9.401 C22.934,9.401 23.479,9.353 23.731,9.425 C23.786,9.425 23.841,9.425 23.896,9.425 C24.308,9.550 24.592,9.721 24.815,10.035 C24.839,10.051 24.863,10.067 24.886,10.082 C24.894,10.114 24.902,10.145 24.910,10.176 C24.925,10.184 24.941,10.192 24.957,10.200 C24.980,10.270 25.004,10.341 25.028,10.411 C25.035,10.411 25.043,10.411 25.051,10.411 C25.051,10.435 25.051,10.458 25.051,10.482 C25.059,10.482 25.067,10.482 25.075,10.482 C25.113,10.581 25.192,11.026 25.145,11.186 C25.106,11.327 25.067,11.468 25.028,11.609 C25.020,11.609 25.012,11.609 25.004,11.609 C25.004,11.624 25.004,11.640 25.004,11.656 C24.996,11.656 24.988,11.656 24.980,11.656 C24.965,11.703 24.949,11.750 24.933,11.797 C24.918,11.804 24.902,11.812 24.886,11.820 C24.886,11.836 24.886,11.851 24.886,11.867 C24.863,11.883 24.839,11.898 24.815,11.914 C24.815,11.930 24.815,11.945 24.815,11.961 C24.753,12.016 24.690,12.071 24.627,12.125 C24.603,12.157 24.580,12.188 24.556,12.219 C24.541,12.219 24.525,12.219 24.509,12.219 C24.493,12.243 24.478,12.266 24.462,12.290 C24.431,12.298 24.399,12.305 24.368,12.313 C24.360,12.329 24.352,12.345 24.344,12.360 C24.328,12.360 24.313,12.360 24.297,12.360 C24.297,12.368 24.297,12.376 24.297,12.384 C24.266,12.392 24.234,12.399 24.203,12.407 C24.203,12.415 24.203,12.423 24.203,12.431 C24.179,12.431 24.156,12.431 24.132,12.431 C24.132,12.438 24.132,12.446 24.132,12.454 C23.876,12.555 23.548,12.548 23.189,12.548 C22.726,12.548 22.262,12.548 21.799,12.548 C20.039,12.548 18.280,12.548 16.520,12.548 C15.931,12.548 15.342,12.548 14.753,12.548 C14.350,12.548 13.855,12.577 13.574,12.454 C13.574,12.446 13.574,12.438 13.574,12.431 C13.527,12.415 13.480,12.399 13.433,12.384 C13.433,12.376 13.433,12.368 13.433,12.360 C13.386,12.345 13.339,12.329 13.291,12.313 C13.284,12.298 13.276,12.282 13.268,12.266 C13.252,12.266 13.236,12.266 13.221,12.266 C13.197,12.235 13.174,12.204 13.150,12.172 C13.134,12.172 13.119,12.172 13.103,12.172 C13.064,12.125 13.024,12.078 12.985,12.031 C12.969,12.024 12.954,12.016 12.938,12.008 C12.938,11.992 12.938,11.977 12.938,11.961 C12.914,11.945 12.891,11.930 12.867,11.914 C12.867,11.898 12.867,11.883 12.867,11.867 C12.852,11.859 12.836,11.851 12.820,11.844 C12.812,11.820 12.804,11.797 12.797,11.773 C12.789,11.773 12.781,11.773 12.773,11.773 C12.773,11.757 12.773,11.742 12.773,11.726 C12.765,11.726 12.757,11.726 12.749,11.726 C12.734,11.679 12.718,11.632 12.702,11.585 C12.694,11.585 12.687,11.585 12.679,11.585 C12.663,11.515 12.647,11.444 12.632,11.374 C12.624,11.374 12.616,11.374 12.608,11.374 C12.608,11.335 12.608,11.296 12.608,11.256 C12.504,10.909 12.616,10.519 12.749,10.270 C12.757,10.239 12.765,10.208 12.773,10.176 C12.789,10.168 12.804,10.161 12.820,10.153 C12.820,10.137 12.820,10.121 12.820,10.106 C12.836,10.098 12.852,10.090 12.867,10.082 C12.867,10.067 12.867,10.051 12.867,10.035 C12.899,10.012 12.930,9.988 12.962,9.965 C12.962,9.949 12.962,9.934 12.962,9.918 C13.001,9.887 13.040,9.855 13.079,9.824 C13.087,9.808 13.095,9.793 13.103,9.777 C13.119,9.777 13.134,9.777 13.150,9.777 C13.166,9.754 13.181,9.730 13.197,9.707 C13.213,9.707 13.229,9.707 13.244,9.707 C13.252,9.691 13.260,9.675 13.268,9.660 C13.284,9.660 13.299,9.660 13.315,9.660 C13.323,9.644 13.331,9.628 13.339,9.613 C13.370,9.605 13.401,9.597 13.433,9.589 C13.433,9.581 13.433,9.574 13.433,9.566 C13.464,9.558 13.496,9.550 13.527,9.542 C13.527,9.534 13.527,9.527 13.527,9.519 C13.551,9.519 13.574,9.519 13.598,9.519 C13.598,9.511 13.598,9.503 13.598,9.495 C13.614,9.495 13.629,9.495 13.645,9.495 C13.645,9.487 13.645,9.480 13.645,9.472 C13.676,9.472 13.708,9.472 13.739,9.472 C13.739,9.464 13.739,9.456 13.739,9.448 C13.771,9.448 13.802,9.448 13.833,9.448 C13.833,9.440 13.833,9.433 13.833,9.425 C13.881,9.425 13.928,9.425 13.975,9.425 C13.975,9.417 13.975,9.409 13.975,9.401 ZM17.133,18.795 C22.466,18.795 27.801,18.795 33.134,18.795 C33.896,18.795 34.658,18.795 35.420,18.795 C35.754,18.795 36.173,18.762 36.434,18.842 C36.473,18.842 36.512,18.842 36.552,18.842 C36.552,18.849 36.552,18.857 36.552,18.865 C36.599,18.873 36.646,18.881 36.693,18.889 C36.693,18.896 36.693,18.904 36.693,18.912 C36.709,18.912 36.724,18.912 36.740,18.912 C36.740,18.920 36.740,18.928 36.740,18.935 C36.764,18.935 36.787,18.935 36.811,18.935 C36.811,18.943 36.811,18.951 36.811,18.959 C36.826,18.959 36.842,18.959 36.858,18.959 C36.858,18.967 36.858,18.975 36.858,18.982 C36.874,18.982 36.889,18.982 36.905,18.982 C36.913,18.998 36.921,19.014 36.929,19.029 C36.960,19.037 36.991,19.045 37.023,19.053 C37.039,19.076 37.054,19.100 37.070,19.123 C37.086,19.123 37.101,19.123 37.117,19.123 C37.172,19.186 37.227,19.249 37.282,19.311 C37.321,19.343 37.361,19.374 37.400,19.405 C37.400,19.421 37.400,19.436 37.400,19.452 C37.416,19.460 37.431,19.468 37.447,19.476 C37.447,19.491 37.447,19.507 37.447,19.523 C37.597,19.749 37.706,19.964 37.706,20.344 C37.706,20.438 37.706,20.532 37.706,20.626 C37.651,20.791 37.596,20.955 37.541,21.119 C37.526,21.127 37.510,21.135 37.494,21.143 C37.486,21.174 37.478,21.206 37.471,21.237 C37.455,21.245 37.439,21.252 37.423,21.260 C37.423,21.276 37.423,21.292 37.423,21.307 C37.384,21.339 37.345,21.370 37.306,21.401 C37.306,21.417 37.306,21.433 37.306,21.448 C37.274,21.472 37.243,21.495 37.211,21.519 C37.211,21.526 37.211,21.534 37.211,21.542 C37.196,21.542 37.180,21.542 37.164,21.542 C37.141,21.573 37.117,21.605 37.094,21.636 C37.078,21.636 37.062,21.636 37.046,21.636 C37.039,21.652 37.031,21.667 37.023,21.683 C37.007,21.683 36.991,21.683 36.976,21.683 C36.968,21.699 36.960,21.714 36.952,21.730 C36.921,21.738 36.889,21.746 36.858,21.753 C36.858,21.761 36.858,21.769 36.858,21.777 C36.811,21.793 36.764,21.808 36.716,21.824 C36.716,21.832 36.716,21.840 36.716,21.847 C36.388,21.991 35.790,21.941 35.326,21.941 C34.376,21.941 33.425,21.941 32.475,21.941 C28.649,21.941 24.823,21.941 20.998,21.941 C20.016,21.941 19.034,21.941 18.052,21.941 C17.414,21.941 16.865,21.977 16.473,21.730 C16.465,21.714 16.457,21.699 16.449,21.683 C16.434,21.683 16.418,21.683 16.402,21.683 C16.394,21.667 16.387,21.652 16.379,21.636 C16.363,21.636 16.347,21.636 16.332,21.636 C16.300,21.597 16.269,21.558 16.237,21.519 C16.222,21.519 16.206,21.519 16.190,21.519 C16.190,21.511 16.190,21.503 16.190,21.495 C16.167,21.479 16.143,21.464 16.119,21.448 C16.119,21.433 16.119,21.417 16.119,21.401 C16.088,21.378 16.057,21.354 16.025,21.331 C16.017,21.307 16.009,21.284 16.002,21.260 C15.986,21.252 15.970,21.245 15.954,21.237 C15.947,21.206 15.939,21.174 15.931,21.143 C15.915,21.135 15.899,21.127 15.884,21.119 C15.876,21.080 15.868,21.041 15.860,21.002 C15.852,21.002 15.844,21.002 15.837,21.002 C15.837,20.986 15.837,20.971 15.837,20.955 C15.829,20.955 15.821,20.955 15.813,20.955 C15.805,20.908 15.797,20.861 15.790,20.814 C15.782,20.814 15.774,20.814 15.766,20.814 C15.758,20.744 15.750,20.673 15.742,20.603 C15.616,20.179 15.864,19.631 16.025,19.405 C16.064,19.374 16.104,19.343 16.143,19.311 C16.198,19.249 16.253,19.186 16.308,19.123 C16.324,19.123 16.339,19.123 16.355,19.123 C16.371,19.100 16.387,19.076 16.402,19.053 C16.434,19.045 16.465,19.037 16.497,19.029 C16.504,19.014 16.512,18.998 16.520,18.982 C16.536,18.982 16.551,18.982 16.567,18.982 C16.567,18.975 16.567,18.967 16.567,18.959 C16.583,18.959 16.599,18.959 16.614,18.959 C16.614,18.951 16.614,18.943 16.614,18.935 C16.638,18.935 16.661,18.935 16.685,18.935 C16.685,18.928 16.685,18.920 16.685,18.912 C16.701,18.912 16.716,18.912 16.732,18.912 C16.732,18.904 16.732,18.896 16.732,18.889 C16.756,18.889 16.779,18.889 16.803,18.889 C16.803,18.881 16.803,18.873 16.803,18.865 C16.882,18.834 17.080,18.840 17.133,18.795 ZM7.282,21.941 C7.667,21.941 8.052,21.941 8.437,21.941 C8.437,21.949 8.437,21.957 8.437,21.965 C8.594,21.973 8.751,21.980 8.908,21.988 C8.908,21.996 8.908,22.004 8.908,22.012 C8.963,22.012 9.018,22.012 9.073,22.012 C9.184,22.045 9.343,22.072 9.450,22.106 C9.489,22.106 9.529,22.106 9.568,22.106 C9.914,22.207 10.259,22.309 10.605,22.411 C10.605,22.419 10.605,22.427 10.605,22.434 C10.621,22.434 10.636,22.434 10.652,22.434 C10.652,22.442 10.652,22.450 10.652,22.458 C10.676,22.458 10.699,22.458 10.723,22.458 C10.723,22.466 10.723,22.474 10.723,22.481 C10.738,22.481 10.754,22.481 10.770,22.481 C10.770,22.489 10.770,22.497 10.770,22.505 C10.793,22.505 10.817,22.505 10.841,22.505 C10.841,22.513 10.841,22.521 10.841,22.528 C10.856,22.528 10.872,22.528 10.888,22.528 C10.888,22.536 10.888,22.544 10.888,22.552 C10.911,22.552 10.935,22.552 10.958,22.552 C10.958,22.560 10.958,22.568 10.958,22.575 C10.990,22.583 11.021,22.591 11.053,22.599 C11.053,22.607 11.053,22.614 11.053,22.622 C11.076,22.622 11.100,22.622 11.123,22.622 C11.123,22.630 11.123,22.638 11.123,22.646 C11.170,22.661 11.218,22.677 11.265,22.693 C11.265,22.701 11.265,22.708 11.265,22.716 C11.280,22.716 11.296,22.716 11.312,22.716 C11.312,22.724 11.312,22.732 11.312,22.740 C11.328,22.740 11.343,22.740 11.359,22.740 C11.359,22.748 11.359,22.755 11.359,22.763 C11.375,22.763 11.390,22.763 11.406,22.763 C11.406,22.771 11.406,22.779 11.406,22.787 C11.422,22.787 11.438,22.787 11.453,22.787 C11.453,22.795 11.453,22.802 11.453,22.810 C11.469,22.810 11.485,22.810 11.500,22.810 C11.500,22.818 11.500,22.826 11.500,22.834 C11.516,22.834 11.532,22.834 11.548,22.834 C11.548,22.841 11.548,22.849 11.548,22.857 C11.563,22.857 11.579,22.857 11.595,22.857 C11.603,22.873 11.610,22.888 11.618,22.904 C11.634,22.904 11.650,22.904 11.665,22.904 C11.665,22.912 11.665,22.920 11.665,22.928 C11.681,22.928 11.697,22.928 11.713,22.928 C11.713,22.935 11.713,22.943 11.713,22.951 C11.728,22.951 11.744,22.951 11.760,22.951 C11.760,22.959 11.760,22.967 11.760,22.975 C11.775,22.975 11.791,22.975 11.807,22.975 C11.815,22.990 11.822,23.006 11.830,23.022 C11.846,23.022 11.862,23.022 11.877,23.022 C11.877,23.029 11.877,23.037 11.877,23.045 C11.893,23.045 11.909,23.045 11.925,23.045 C11.925,23.053 11.925,23.061 11.925,23.068 C11.948,23.076 11.972,23.084 11.995,23.092 C12.003,23.108 12.011,23.123 12.019,23.139 C12.050,23.147 12.082,23.155 12.113,23.162 C12.121,23.178 12.129,23.194 12.137,23.209 C12.152,23.209 12.168,23.209 12.184,23.209 C12.184,23.217 12.184,23.225 12.184,23.233 C12.207,23.241 12.231,23.249 12.255,23.256 C12.262,23.272 12.270,23.288 12.278,23.303 C12.294,23.303 12.310,23.303 12.325,23.303 C12.341,23.327 12.357,23.350 12.372,23.374 C12.388,23.374 12.404,23.374 12.420,23.374 C12.427,23.389 12.435,23.405 12.443,23.421 C12.459,23.421 12.474,23.421 12.490,23.421 C12.506,23.444 12.522,23.468 12.537,23.491 C12.553,23.491 12.569,23.491 12.584,23.491 C12.600,23.515 12.616,23.538 12.632,23.562 C12.647,23.562 12.663,23.562 12.679,23.562 C12.702,23.593 12.726,23.624 12.749,23.656 C12.765,23.656 12.781,23.656 12.797,23.656 C12.828,23.695 12.859,23.734 12.891,23.773 C12.907,23.773 12.922,23.773 12.938,23.773 C12.977,23.820 13.017,23.867 13.056,23.914 C13.072,23.914 13.087,23.914 13.103,23.914 C13.181,24.000 13.260,24.086 13.339,24.172 C13.472,24.297 13.606,24.423 13.739,24.548 C13.739,24.564 13.739,24.579 13.739,24.595 C13.786,24.634 13.833,24.673 13.881,24.712 C13.881,24.728 13.881,24.744 13.881,24.759 C13.920,24.791 13.959,24.822 13.998,24.853 C13.998,24.869 13.998,24.885 13.998,24.900 C14.022,24.916 14.046,24.931 14.069,24.947 C14.069,24.963 14.069,24.978 14.069,24.994 C14.101,25.018 14.132,25.041 14.163,25.065 C14.171,25.088 14.179,25.112 14.187,25.135 C14.203,25.143 14.218,25.151 14.234,25.158 C14.234,25.174 14.234,25.190 14.234,25.205 C14.242,25.205 14.250,25.205 14.258,25.205 C14.266,25.229 14.273,25.252 14.281,25.276 C14.297,25.284 14.313,25.292 14.328,25.299 C14.328,25.315 14.328,25.331 14.328,25.346 C14.352,25.362 14.376,25.378 14.399,25.393 C14.399,25.409 14.399,25.425 14.399,25.440 C14.415,25.448 14.431,25.456 14.446,25.464 C14.454,25.495 14.462,25.526 14.470,25.558 C14.478,25.558 14.486,25.558 14.493,25.558 C14.501,25.581 14.509,25.605 14.517,25.628 C14.533,25.636 14.548,25.644 14.564,25.652 C14.572,25.683 14.580,25.714 14.588,25.746 C14.603,25.753 14.619,25.761 14.635,25.769 C14.643,25.800 14.650,25.832 14.658,25.863 C14.674,25.871 14.690,25.879 14.705,25.886 C14.705,25.902 14.705,25.918 14.705,25.933 C14.713,25.933 14.721,25.933 14.729,25.933 C14.729,25.949 14.729,25.965 14.729,25.980 C14.737,25.980 14.745,25.980 14.753,25.980 C14.753,25.996 14.753,26.012 14.753,26.027 C14.760,26.027 14.768,26.027 14.776,26.027 C14.776,26.043 14.776,26.059 14.776,26.074 C14.784,26.074 14.792,26.074 14.800,26.074 C14.800,26.090 14.800,26.106 14.800,26.121 C14.815,26.129 14.831,26.137 14.847,26.145 C14.855,26.176 14.863,26.207 14.870,26.239 C14.878,26.239 14.886,26.239 14.894,26.239 C14.910,26.286 14.925,26.333 14.941,26.380 C14.949,26.380 14.957,26.380 14.965,26.380 C14.965,26.403 14.965,26.427 14.965,26.450 C14.973,26.450 14.980,26.450 14.988,26.450 C14.988,26.466 14.988,26.481 14.988,26.497 C14.996,26.497 15.004,26.497 15.012,26.497 C15.028,26.544 15.043,26.591 15.059,26.638 C15.067,26.638 15.075,26.638 15.083,26.638 C15.083,26.661 15.083,26.685 15.083,26.708 C15.090,26.708 15.098,26.708 15.106,26.708 C15.106,26.724 15.106,26.740 15.106,26.755 C15.114,26.755 15.122,26.755 15.130,26.755 C15.138,26.794 15.145,26.834 15.153,26.873 C15.161,26.873 15.169,26.873 15.177,26.873 C15.177,26.896 15.177,26.920 15.177,26.943 C15.185,26.943 15.192,26.943 15.200,26.943 C15.200,26.959 15.200,26.975 15.200,26.990 C15.208,26.990 15.216,26.990 15.224,26.990 C15.232,27.037 15.240,27.084 15.247,27.131 C15.255,27.131 15.263,27.131 15.271,27.131 C15.271,27.147 15.271,27.162 15.271,27.178 C15.279,27.178 15.287,27.178 15.295,27.178 C15.318,27.280 15.342,27.382 15.365,27.483 C15.373,27.483 15.381,27.483 15.389,27.483 C15.389,27.507 15.389,27.530 15.389,27.554 C15.397,27.554 15.405,27.554 15.412,27.554 C15.412,27.577 15.412,27.601 15.412,27.624 C15.420,27.624 15.428,27.624 15.436,27.624 C15.499,27.906 15.562,28.188 15.625,28.470 C15.625,28.517 15.625,28.564 15.625,28.611 C15.632,28.611 15.640,28.611 15.648,28.611 C15.648,28.665 15.648,28.720 15.648,28.775 C15.656,28.775 15.664,28.775 15.672,28.775 C15.672,28.845 15.672,28.916 15.672,28.986 C15.680,28.986 15.687,28.986 15.695,28.986 C15.695,29.080 15.695,29.174 15.695,29.268 C15.703,29.268 15.711,29.268 15.719,29.268 C15.719,29.393 15.719,29.519 15.719,29.644 C15.719,29.945 15.740,30.296 15.672,30.536 C15.672,30.607 15.672,30.677 15.672,30.747 C15.664,30.747 15.656,30.747 15.648,30.747 C15.648,30.802 15.648,30.857 15.648,30.912 C15.614,31.027 15.589,31.199 15.554,31.311 C15.554,31.350 15.554,31.389 15.554,31.428 C15.546,31.428 15.538,31.428 15.530,31.428 C15.530,31.460 15.530,31.491 15.530,31.522 C15.522,31.522 15.515,31.522 15.507,31.522 C15.507,31.554 15.507,31.585 15.507,31.616 C15.499,31.616 15.491,31.616 15.483,31.616 C15.483,31.648 15.483,31.679 15.483,31.710 C15.475,31.710 15.467,31.710 15.460,31.710 C15.460,31.742 15.460,31.773 15.460,31.804 C15.452,31.804 15.444,31.804 15.436,31.804 C15.436,31.836 15.436,31.867 15.436,31.898 C15.428,31.898 15.420,31.898 15.412,31.898 C15.412,31.922 15.412,31.945 15.412,31.969 C15.405,31.969 15.397,31.969 15.389,31.969 C15.389,31.992 15.389,32.016 15.389,32.039 C15.381,32.039 15.373,32.039 15.365,32.039 C15.365,32.063 15.365,32.086 15.365,32.109 C15.357,32.109 15.350,32.109 15.342,32.109 C15.334,32.164 15.326,32.219 15.318,32.274 C15.310,32.274 15.302,32.274 15.295,32.274 C15.295,32.290 15.295,32.305 15.295,32.321 C15.287,32.321 15.279,32.321 15.271,32.321 C15.255,32.391 15.240,32.462 15.224,32.532 C15.216,32.532 15.208,32.532 15.200,32.532 C15.200,32.548 15.200,32.564 15.200,32.579 C15.192,32.579 15.185,32.579 15.177,32.579 C15.177,32.603 15.177,32.626 15.177,32.650 C15.169,32.650 15.161,32.650 15.153,32.650 C15.153,32.665 15.153,32.681 15.153,32.697 C15.145,32.697 15.138,32.697 15.130,32.697 C15.130,32.720 15.130,32.744 15.130,32.767 C15.122,32.767 15.114,32.767 15.106,32.767 C15.098,32.798 15.090,32.830 15.083,32.861 C15.075,32.861 15.067,32.861 15.059,32.861 C15.059,32.884 15.059,32.908 15.059,32.931 C15.051,32.931 15.043,32.931 15.035,32.931 C15.035,32.947 15.035,32.963 15.035,32.978 C15.028,32.978 15.020,32.978 15.012,32.978 C15.004,33.010 14.996,33.041 14.988,33.072 C14.980,33.072 14.973,33.072 14.965,33.072 C14.965,33.088 14.965,33.104 14.965,33.119 C14.957,33.119 14.949,33.119 14.941,33.119 C14.941,33.135 14.941,33.151 14.941,33.166 C14.933,33.166 14.925,33.166 14.918,33.166 C14.918,33.182 14.918,33.198 14.918,33.213 C14.910,33.213 14.902,33.213 14.894,33.213 C14.894,33.229 14.894,33.245 14.894,33.260 C14.886,33.260 14.878,33.260 14.870,33.260 C14.870,33.276 14.870,33.291 14.870,33.307 C14.863,33.307 14.855,33.307 14.847,33.307 C14.847,33.323 14.847,33.338 14.847,33.354 C14.839,33.354 14.831,33.354 14.823,33.354 C14.823,33.370 14.823,33.385 14.823,33.401 C14.815,33.401 14.808,33.401 14.800,33.401 C14.800,33.417 14.800,33.432 14.800,33.448 C14.792,33.448 14.784,33.448 14.776,33.448 C14.776,33.464 14.776,33.479 14.776,33.495 C14.768,33.495 14.760,33.495 14.753,33.495 C14.753,33.511 14.753,33.526 14.753,33.542 C14.737,33.550 14.721,33.558 14.705,33.565 C14.690,33.612 14.674,33.659 14.658,33.706 C14.643,33.714 14.627,33.722 14.611,33.730 C14.603,33.761 14.595,33.792 14.588,33.824 C14.580,33.824 14.572,33.824 14.564,33.824 C14.556,33.847 14.548,33.871 14.540,33.894 C14.525,33.902 14.509,33.910 14.493,33.918 C14.486,33.949 14.478,33.980 14.470,34.012 C14.462,34.012 14.454,34.012 14.446,34.012 C14.438,34.035 14.431,34.059 14.423,34.082 C14.407,34.090 14.391,34.098 14.376,34.106 C14.376,34.121 14.376,34.137 14.376,34.153 C14.352,34.168 14.328,34.184 14.305,34.199 C14.305,34.215 14.305,34.231 14.305,34.246 C14.289,34.254 14.273,34.262 14.258,34.270 C14.258,34.286 14.258,34.301 14.258,34.317 C14.234,34.333 14.211,34.348 14.187,34.364 C14.187,34.380 14.187,34.395 14.187,34.411 C14.163,34.426 14.140,34.442 14.116,34.458 C14.116,34.473 14.116,34.489 14.116,34.505 C14.093,34.520 14.069,34.536 14.046,34.552 C14.046,34.567 14.046,34.583 14.046,34.599 C14.014,34.622 13.983,34.646 13.951,34.669 C13.951,34.685 13.951,34.700 13.951,34.716 C13.912,34.747 13.873,34.779 13.833,34.810 C13.833,34.826 13.833,34.841 13.833,34.857 C13.771,34.912 13.708,34.967 13.645,35.021 C13.645,35.037 13.645,35.053 13.645,35.068 C13.629,35.076 13.614,35.084 13.598,35.092 C13.519,35.178 13.441,35.264 13.362,35.350 C13.331,35.374 13.299,35.397 13.268,35.421 C13.268,35.436 13.268,35.452 13.268,35.468 C13.315,35.522 13.289,35.579 13.315,35.655 C13.364,35.797 13.408,35.983 13.456,36.125 C13.456,36.156 13.456,36.188 13.456,36.219 C13.610,36.664 13.681,37.183 13.833,37.628 C13.833,37.659 13.833,37.691 13.833,37.722 C13.841,37.722 13.849,37.722 13.857,37.722 C13.857,37.753 13.857,37.785 13.857,37.816 C13.865,37.816 13.873,37.816 13.881,37.816 C13.881,37.847 13.881,37.879 13.881,37.910 C13.888,37.910 13.896,37.910 13.904,37.910 C13.904,37.941 13.904,37.972 13.904,38.004 C14.047,38.419 14.115,38.903 14.258,39.319 C14.258,39.350 14.258,39.381 14.258,39.413 C14.266,39.413 14.273,39.413 14.281,39.413 C14.281,39.444 14.281,39.475 14.281,39.507 C14.289,39.507 14.297,39.507 14.305,39.507 C14.305,39.538 14.305,39.569 14.305,39.601 C14.313,39.601 14.321,39.601 14.328,39.601 C14.328,39.632 14.328,39.663 14.328,39.695 C14.440,40.019 14.500,40.404 14.611,40.728 C14.627,40.822 14.643,40.916 14.658,41.010 C14.750,41.277 14.802,41.609 14.894,41.878 C14.902,41.941 14.910,42.004 14.918,42.066 C14.987,42.269 15.037,42.521 15.106,42.724 C15.114,42.786 15.122,42.849 15.130,42.912 C15.178,43.053 15.223,43.240 15.271,43.381 C15.279,43.444 15.287,43.507 15.295,43.569 C15.457,44.045 15.541,44.593 15.695,45.072 C15.695,45.111 15.695,45.150 15.695,45.190 C15.703,45.190 15.711,45.190 15.719,45.190 C15.762,45.335 15.701,45.688 15.672,45.777 C15.656,45.855 15.640,45.933 15.625,46.012 C15.617,46.012 15.609,46.012 15.601,46.012 C15.601,46.027 15.601,46.043 15.601,46.058 C15.593,46.058 15.585,46.058 15.577,46.058 C15.577,46.074 15.577,46.090 15.577,46.105 C15.570,46.105 15.562,46.105 15.554,46.105 C15.554,46.121 15.554,46.137 15.554,46.152 C15.546,46.152 15.538,46.152 15.530,46.152 C15.530,46.168 15.530,46.184 15.530,46.199 C15.522,46.199 15.515,46.199 15.507,46.199 C15.507,46.215 15.507,46.231 15.507,46.246 C15.491,46.254 15.475,46.262 15.460,46.270 C15.460,46.285 15.460,46.301 15.460,46.317 C15.444,46.325 15.428,46.332 15.412,46.340 C15.412,46.356 15.412,46.372 15.412,46.387 C15.381,46.411 15.350,46.434 15.318,46.458 C15.255,46.528 15.192,46.599 15.130,46.669 C15.114,46.669 15.098,46.669 15.083,46.669 C15.067,46.693 15.051,46.716 15.035,46.739 C15.020,46.739 15.004,46.739 14.988,46.739 C14.980,46.755 14.973,46.771 14.965,46.786 C14.918,46.802 14.870,46.818 14.823,46.833 C14.823,46.841 14.823,46.849 14.823,46.857 C14.808,46.857 14.792,46.857 14.776,46.857 C14.776,46.865 14.776,46.873 14.776,46.880 C14.729,46.888 14.682,46.896 14.635,46.904 C14.635,46.912 14.635,46.920 14.635,46.927 C14.611,46.927 14.588,46.927 14.564,46.927 C14.564,46.935 14.564,46.943 14.564,46.951 C14.533,46.951 14.501,46.951 14.470,46.951 C14.470,46.959 14.470,46.966 14.470,46.974 C14.423,46.974 14.376,46.974 14.328,46.974 C14.328,46.982 14.328,46.990 14.328,46.998 C14.203,46.998 14.077,46.998 13.951,46.998 C13.951,46.990 13.951,46.982 13.951,46.974 C13.912,46.974 13.873,46.974 13.833,46.974 C13.833,46.966 13.833,46.959 13.833,46.951 C13.802,46.951 13.771,46.951 13.739,46.951 C13.739,46.943 13.739,46.935 13.739,46.927 C13.708,46.927 13.676,46.927 13.645,46.927 C13.645,46.920 13.645,46.912 13.645,46.904 C13.621,46.904 13.598,46.904 13.574,46.904 C13.574,46.896 13.574,46.888 13.574,46.880 C13.559,46.880 13.543,46.880 13.527,46.880 C13.527,46.873 13.527,46.865 13.527,46.857 C13.496,46.849 13.464,46.841 13.433,46.833 C13.433,46.826 13.433,46.818 13.433,46.810 C13.417,46.810 13.401,46.810 13.386,46.810 C13.386,46.802 13.386,46.794 13.386,46.786 C13.370,46.786 13.354,46.786 13.339,46.786 C13.339,46.779 13.339,46.771 13.339,46.763 C13.323,46.763 13.307,46.763 13.291,46.763 C13.291,46.755 13.291,46.747 13.291,46.739 C13.276,46.739 13.260,46.739 13.244,46.739 C13.244,46.732 13.244,46.724 13.244,46.716 C13.229,46.716 13.213,46.716 13.197,46.716 C13.197,46.708 13.197,46.700 13.197,46.693 C13.150,46.677 13.103,46.661 13.056,46.646 C13.056,46.638 13.056,46.630 13.056,46.622 C13.024,46.614 12.993,46.606 12.962,46.599 C12.962,46.591 12.962,46.583 12.962,46.575 C12.930,46.567 12.899,46.559 12.867,46.552 C12.867,46.544 12.867,46.536 12.867,46.528 C12.836,46.520 12.804,46.512 12.773,46.505 C12.773,46.497 12.773,46.489 12.773,46.481 C12.757,46.481 12.742,46.481 12.726,46.481 C12.726,46.473 12.726,46.466 12.726,46.458 C12.710,46.458 12.694,46.458 12.679,46.458 C12.679,46.450 12.679,46.442 12.679,46.434 C12.663,46.434 12.647,46.434 12.632,46.434 C12.632,46.426 12.632,46.419 12.632,46.411 C12.616,46.411 12.600,46.411 12.584,46.411 C12.584,46.403 12.584,46.395 12.584,46.387 C12.569,46.387 12.553,46.387 12.537,46.387 C12.537,46.379 12.537,46.372 12.537,46.364 C12.506,46.356 12.474,46.348 12.443,46.340 C12.443,46.332 12.443,46.325 12.443,46.317 C12.412,46.309 12.380,46.301 12.349,46.293 C12.349,46.285 12.349,46.278 12.349,46.270 C12.333,46.270 12.317,46.270 12.302,46.270 C12.302,46.262 12.302,46.254 12.302,46.246 C12.286,46.246 12.270,46.246 12.255,46.246 C12.255,46.239 12.255,46.231 12.255,46.223 C12.239,46.223 12.223,46.223 12.207,46.223 C12.207,46.215 12.207,46.207 12.207,46.199 C12.192,46.199 12.176,46.199 12.160,46.199 C12.160,46.192 12.160,46.184 12.160,46.176 C12.113,46.160 12.066,46.145 12.019,46.129 C11.310,45.751 10.559,45.404 9.851,45.025 C9.835,45.025 9.819,45.025 9.804,45.025 C9.804,45.017 9.804,45.010 9.804,45.002 C9.772,44.994 9.741,44.986 9.709,44.978 C9.709,44.970 9.709,44.963 9.709,44.955 C9.678,44.947 9.647,44.939 9.615,44.931 C9.615,44.923 9.615,44.916 9.615,44.908 C9.599,44.908 9.584,44.908 9.568,44.908 C9.568,44.900 9.568,44.892 9.568,44.884 C9.552,44.884 9.537,44.884 9.521,44.884 C9.521,44.876 9.521,44.869 9.521,44.861 C9.505,44.861 9.489,44.861 9.474,44.861 C9.474,44.853 9.474,44.845 9.474,44.837 C9.458,44.837 9.442,44.837 9.427,44.837 C9.427,44.830 9.427,44.822 9.427,44.814 C9.379,44.798 9.332,44.783 9.285,44.767 C9.285,44.759 9.285,44.751 9.285,44.743 C9.269,44.743 9.254,44.743 9.238,44.743 C9.238,44.736 9.238,44.728 9.238,44.720 C9.222,44.720 9.207,44.720 9.191,44.720 C9.191,44.712 9.191,44.704 9.191,44.696 C9.175,44.696 9.159,44.696 9.144,44.696 C9.144,44.689 9.144,44.681 9.144,44.673 C9.128,44.673 9.112,44.673 9.097,44.673 C9.097,44.665 9.097,44.657 9.097,44.649 C9.050,44.634 9.002,44.618 8.955,44.603 C8.955,44.595 8.955,44.587 8.955,44.579 C8.924,44.571 8.892,44.563 8.861,44.556 C8.861,44.548 8.861,44.540 8.861,44.532 C8.830,44.524 8.798,44.516 8.767,44.509 C8.767,44.501 8.767,44.493 8.767,44.485 C8.751,44.485 8.735,44.485 8.720,44.485 C8.720,44.477 8.720,44.469 8.720,44.462 C8.704,44.462 8.688,44.462 8.672,44.462 C8.672,44.454 8.672,44.446 8.672,44.438 C8.657,44.438 8.641,44.438 8.625,44.438 C8.625,44.430 8.625,44.422 8.625,44.415 C8.610,44.415 8.594,44.415 8.578,44.415 C8.578,44.407 8.578,44.399 8.578,44.391 C8.562,44.391 8.547,44.391 8.531,44.391 C8.531,44.383 8.531,44.376 8.531,44.368 C8.515,44.368 8.500,44.368 8.484,44.368 C8.484,44.360 8.484,44.352 8.484,44.344 C8.468,44.344 8.452,44.344 8.437,44.344 C8.437,44.336 8.437,44.329 8.437,44.321 C8.421,44.321 8.405,44.321 8.390,44.321 C8.390,44.313 8.390,44.305 8.390,44.297 C8.374,44.297 8.358,44.297 8.343,44.297 C8.343,44.289 8.343,44.282 8.343,44.274 C8.327,44.274 8.311,44.274 8.295,44.274 C8.295,44.266 8.295,44.258 8.295,44.250 C8.248,44.235 8.201,44.219 8.154,44.203 C8.049,44.147 7.979,44.073 7.824,44.062 C7.824,44.070 7.824,44.078 7.824,44.086 C7.793,44.094 7.761,44.102 7.730,44.109 C7.730,44.117 7.730,44.125 7.730,44.133 C7.714,44.133 7.698,44.133 7.683,44.133 C7.683,44.141 7.683,44.149 7.683,44.156 C7.651,44.164 7.620,44.172 7.588,44.180 C7.588,44.188 7.588,44.195 7.588,44.203 C7.573,44.203 7.557,44.203 7.541,44.203 C7.541,44.211 7.541,44.219 7.541,44.227 C7.526,44.227 7.510,44.227 7.494,44.227 C7.494,44.235 7.494,44.242 7.494,44.250 C7.478,44.250 7.463,44.250 7.447,44.250 C7.447,44.258 7.447,44.266 7.447,44.274 C7.431,44.274 7.416,44.274 7.400,44.274 C7.400,44.282 7.400,44.289 7.400,44.297 C7.368,44.305 7.337,44.313 7.306,44.321 C7.306,44.329 7.306,44.336 7.306,44.344 C7.290,44.344 7.274,44.344 7.258,44.344 C7.258,44.352 7.258,44.360 7.258,44.368 C7.243,44.368 7.227,44.368 7.211,44.368 C7.211,44.376 7.211,44.383 7.211,44.391 C7.196,44.391 7.180,44.391 7.164,44.391 C7.164,44.399 7.164,44.407 7.164,44.415 C7.148,44.415 7.133,44.415 7.117,44.415 C7.117,44.422 7.117,44.430 7.117,44.438 C7.101,44.438 7.086,44.438 7.070,44.438 C7.070,44.446 7.070,44.454 7.070,44.462 C7.023,44.477 6.976,44.493 6.929,44.509 C6.929,44.516 6.929,44.524 6.929,44.532 C6.881,44.548 6.834,44.563 6.787,44.579 C6.787,44.587 6.787,44.595 6.787,44.603 C6.756,44.610 6.724,44.618 6.693,44.626 C6.693,44.634 6.693,44.642 6.693,44.649 C6.661,44.657 6.630,44.665 6.599,44.673 C6.599,44.681 6.599,44.689 6.599,44.696 C6.583,44.696 6.567,44.696 6.551,44.696 C6.551,44.704 6.551,44.712 6.551,44.720 C6.536,44.720 6.520,44.720 6.504,44.720 C6.504,44.728 6.504,44.736 6.504,44.743 C6.489,44.743 6.473,44.743 6.457,44.743 C6.457,44.751 6.457,44.759 6.457,44.767 C6.441,44.767 6.426,44.767 6.410,44.767 C6.410,44.775 6.410,44.783 6.410,44.790 C6.394,44.790 6.379,44.790 6.363,44.790 C6.363,44.798 6.363,44.806 6.363,44.814 C6.347,44.814 6.332,44.814 6.316,44.814 C6.316,44.822 6.316,44.830 6.316,44.837 C6.300,44.837 6.284,44.837 6.269,44.837 C6.269,44.845 6.269,44.853 6.269,44.861 C6.253,44.861 6.237,44.861 6.222,44.861 C6.222,44.869 6.222,44.876 6.222,44.884 C6.206,44.884 6.190,44.884 6.174,44.884 C6.174,44.892 6.174,44.900 6.174,44.908 C6.159,44.908 6.143,44.908 6.127,44.908 C6.127,44.916 6.127,44.923 6.127,44.931 C6.112,44.931 6.096,44.931 6.080,44.931 C5.433,45.276 4.747,45.595 4.101,45.941 C4.085,45.941 4.069,45.941 4.053,45.941 C4.053,45.949 4.053,45.957 4.053,45.965 C4.022,45.972 3.991,45.980 3.959,45.988 C3.959,45.996 3.959,46.004 3.959,46.012 C3.928,46.019 3.896,46.027 3.865,46.035 C3.865,46.043 3.865,46.051 3.865,46.058 C3.849,46.058 3.833,46.058 3.818,46.058 C3.818,46.066 3.818,46.074 3.818,46.082 C3.802,46.082 3.786,46.082 3.771,46.082 C3.771,46.090 3.771,46.098 3.771,46.105 C3.755,46.105 3.739,46.105 3.723,46.105 C3.723,46.113 3.723,46.121 3.723,46.129 C3.708,46.129 3.692,46.129 3.676,46.129 C3.676,46.137 3.676,46.145 3.676,46.152 C3.629,46.168 3.582,46.184 3.535,46.199 C3.535,46.207 3.535,46.215 3.535,46.223 C3.488,46.239 3.441,46.254 3.394,46.270 C3.394,46.278 3.394,46.285 3.394,46.293 C3.346,46.309 3.299,46.325 3.252,46.340 C3.252,46.348 3.252,46.356 3.252,46.364 C3.221,46.372 3.189,46.379 3.158,46.387 C3.158,46.395 3.158,46.403 3.158,46.411 C3.126,46.419 3.095,46.426 3.064,46.434 C3.064,46.442 3.064,46.450 3.064,46.458 C3.048,46.458 3.032,46.458 3.017,46.458 C3.017,46.466 3.017,46.473 3.017,46.481 C3.001,46.481 2.985,46.481 2.969,46.481 C2.969,46.489 2.969,46.497 2.969,46.505 C2.954,46.505 2.938,46.505 2.922,46.505 C2.922,46.512 2.922,46.520 2.922,46.528 C2.907,46.528 2.891,46.528 2.875,46.528 C2.875,46.536 2.875,46.544 2.875,46.552 C2.859,46.552 2.844,46.552 2.828,46.552 C2.828,46.559 2.828,46.567 2.828,46.575 C2.812,46.575 2.797,46.575 2.781,46.575 C2.781,46.583 2.781,46.591 2.781,46.599 C2.765,46.599 2.749,46.599 2.734,46.599 C2.734,46.606 2.734,46.614 2.734,46.622 C2.718,46.622 2.702,46.622 2.687,46.622 C2.687,46.630 2.687,46.638 2.687,46.646 C2.655,46.653 2.624,46.661 2.592,46.669 C2.592,46.677 2.592,46.685 2.592,46.693 C2.577,46.693 2.561,46.693 2.545,46.693 C2.545,46.700 2.545,46.708 2.545,46.716 C2.529,46.716 2.514,46.716 2.498,46.716 C2.498,46.724 2.498,46.732 2.498,46.739 C2.482,46.739 2.467,46.739 2.451,46.739 C2.451,46.747 2.451,46.755 2.451,46.763 C2.435,46.763 2.419,46.763 2.404,46.763 C2.404,46.771 2.404,46.779 2.404,46.786 C2.372,46.794 2.341,46.802 2.310,46.810 C2.310,46.818 2.310,46.826 2.310,46.833 C2.294,46.833 2.278,46.833 2.262,46.833 C2.262,46.841 2.262,46.849 2.262,46.857 C2.239,46.857 2.215,46.857 2.192,46.857 C2.192,46.865 2.192,46.873 2.192,46.880 C2.176,46.880 2.160,46.880 2.145,46.880 C2.145,46.888 2.145,46.896 2.145,46.904 C2.066,46.920 1.987,46.935 1.909,46.951 C1.909,46.959 1.909,46.966 1.909,46.974 C1.862,46.974 1.815,46.974 1.767,46.974 C1.571,47.030 1.309,46.985 1.155,46.927 C1.084,46.912 1.013,46.896 0.943,46.880 C0.943,46.873 0.943,46.865 0.943,46.857 C0.911,46.849 0.880,46.841 0.848,46.833 C0.848,46.826 0.848,46.818 0.848,46.810 C0.833,46.810 0.817,46.810 0.801,46.810 C0.793,46.794 0.786,46.779 0.778,46.763 C0.762,46.763 0.746,46.763 0.731,46.763 C0.731,46.755 0.731,46.747 0.731,46.739 C0.707,46.732 0.683,46.724 0.660,46.716 C0.652,46.700 0.644,46.685 0.636,46.669 C0.621,46.669 0.605,46.669 0.589,46.669 C0.566,46.638 0.542,46.606 0.518,46.575 C0.463,46.528 0.408,46.481 0.353,46.434 C0.353,46.419 0.353,46.403 0.353,46.387 C0.330,46.372 0.306,46.356 0.283,46.340 C0.283,46.325 0.283,46.309 0.283,46.293 C0.267,46.285 0.251,46.278 0.236,46.270 C0.228,46.246 0.220,46.223 0.212,46.199 C0.204,46.199 0.196,46.199 0.189,46.199 C0.189,46.184 0.189,46.168 0.189,46.152 C0.181,46.152 0.173,46.152 0.165,46.152 C0.165,46.137 0.165,46.121 0.165,46.105 C0.157,46.105 0.149,46.105 0.141,46.105 C0.141,46.082 0.141,46.058 0.141,46.035 C0.134,46.035 0.126,46.035 0.118,46.035 C0.118,46.019 0.118,46.004 0.118,45.988 C0.110,45.988 0.102,45.988 0.094,45.988 C0.086,45.941 0.079,45.894 0.071,45.847 C0.063,45.847 0.055,45.847 0.047,45.847 C0.047,45.816 0.047,45.785 0.047,45.753 C-0.063,45.405 0.045,45.002 0.141,44.720 C0.141,44.689 0.141,44.657 0.141,44.626 C0.149,44.626 0.157,44.626 0.165,44.626 C0.165,44.595 0.165,44.563 0.165,44.532 C0.173,44.532 0.181,44.532 0.189,44.532 C0.189,44.501 0.189,44.469 0.189,44.438 C0.196,44.438 0.204,44.438 0.212,44.438 C0.212,44.407 0.212,44.376 0.212,44.344 C0.376,43.869 0.450,43.317 0.613,42.841 C0.660,42.622 0.707,42.403 0.754,42.184 C0.824,41.981 0.873,41.729 0.943,41.526 C0.951,41.456 0.958,41.385 0.966,41.315 C1.153,40.746 1.243,40.096 1.438,39.530 C1.445,39.468 1.453,39.405 1.461,39.342 C1.510,39.201 1.554,39.014 1.603,38.873 C1.603,38.841 1.603,38.810 1.603,38.779 C1.766,38.303 1.840,37.751 2.003,37.276 C2.035,37.119 2.066,36.963 2.097,36.806 C2.156,36.634 2.204,36.415 2.262,36.243 C2.270,36.180 2.278,36.117 2.286,36.055 C2.294,36.055 2.302,36.055 2.310,36.055 C2.357,35.843 2.404,35.632 2.451,35.421 C2.357,35.335 2.262,35.248 2.168,35.162 C2.168,35.147 2.168,35.131 2.168,35.115 C2.090,35.045 2.011,34.974 1.932,34.904 C1.932,34.888 1.932,34.873 1.932,34.857 C1.893,34.826 1.854,34.794 1.815,34.763 C1.815,34.747 1.815,34.732 1.815,34.716 C1.807,34.716 1.799,34.716 1.791,34.716 C1.775,34.693 1.760,34.669 1.744,34.646 C1.728,34.638 1.712,34.630 1.697,34.622 C1.697,34.607 1.697,34.591 1.697,34.575 C1.673,34.560 1.650,34.544 1.626,34.528 C1.626,34.513 1.626,34.497 1.626,34.481 C1.603,34.466 1.579,34.450 1.555,34.434 C1.555,34.419 1.555,34.403 1.555,34.387 C1.532,34.372 1.508,34.356 1.485,34.340 C1.485,34.325 1.485,34.309 1.485,34.293 C1.461,34.278 1.438,34.262 1.414,34.246 C1.414,34.231 1.414,34.215 1.414,34.199 C1.398,34.192 1.383,34.184 1.367,34.176 C1.367,34.160 1.367,34.145 1.367,34.129 C1.351,34.121 1.335,34.113 1.320,34.106 C1.320,34.090 1.320,34.074 1.320,34.059 C1.304,34.051 1.288,34.043 1.273,34.035 C1.273,34.019 1.273,34.004 1.273,33.988 C1.257,33.980 1.241,33.972 1.225,33.965 C1.218,33.933 1.210,33.902 1.202,33.871 C1.186,33.863 1.170,33.855 1.155,33.847 C1.147,33.824 1.139,33.800 1.131,33.777 C1.123,33.777 1.115,33.777 1.108,33.777 C1.092,33.730 1.076,33.683 1.060,33.636 C1.045,33.628 1.029,33.620 1.013,33.612 C0.998,33.565 0.982,33.518 0.966,33.472 C0.951,33.464 0.935,33.456 0.919,33.448 C0.903,33.401 0.888,33.354 0.872,33.307 C0.864,33.307 0.856,33.307 0.848,33.307 C0.848,33.291 0.848,33.276 0.848,33.260 C0.841,33.260 0.833,33.260 0.825,33.260 C0.825,33.245 0.825,33.229 0.825,33.213 C0.817,33.213 0.809,33.213 0.801,33.213 C0.786,33.166 0.770,33.119 0.754,33.072 C0.746,33.072 0.738,33.072 0.731,33.072 C0.731,33.049 0.731,33.025 0.731,33.002 C0.723,33.002 0.715,33.002 0.707,33.002 C0.707,32.986 0.707,32.971 0.707,32.955 C0.699,32.955 0.691,32.955 0.683,32.955 C0.676,32.924 0.668,32.892 0.660,32.861 C0.652,32.861 0.644,32.861 0.636,32.861 C0.636,32.837 0.636,32.814 0.636,32.791 C0.628,32.791 0.621,32.791 0.613,32.791 C0.605,32.759 0.597,32.728 0.589,32.697 C0.581,32.697 0.573,32.697 0.566,32.697 C0.566,32.673 0.566,32.650 0.566,32.626 C0.558,32.626 0.550,32.626 0.542,32.626 C0.542,32.610 0.542,32.595 0.542,32.579 C0.534,32.579 0.526,32.579 0.518,32.579 C0.511,32.532 0.503,32.485 0.495,32.438 C0.487,32.438 0.479,32.438 0.471,32.438 C0.471,32.423 0.471,32.407 0.471,32.391 C0.463,32.391 0.456,32.391 0.448,32.391 C0.448,32.368 0.448,32.344 0.448,32.321 C0.440,32.321 0.432,32.321 0.424,32.321 C0.424,32.297 0.424,32.274 0.424,32.250 C0.416,32.250 0.408,32.250 0.401,32.250 C0.401,32.227 0.401,32.203 0.401,32.180 C0.393,32.180 0.385,32.180 0.377,32.180 C0.377,32.156 0.377,32.133 0.377,32.109 C0.369,32.109 0.361,32.109 0.353,32.109 C0.353,32.078 0.353,32.047 0.353,32.016 C0.346,32.016 0.338,32.016 0.330,32.016 C0.330,31.992 0.330,31.969 0.330,31.945 C0.322,31.945 0.314,31.945 0.306,31.945 C0.306,31.922 0.306,31.898 0.306,31.875 C0.299,31.875 0.291,31.875 0.283,31.875 C0.275,31.812 0.267,31.749 0.259,31.687 C0.251,31.687 0.244,31.687 0.236,31.687 C0.236,31.655 0.236,31.624 0.236,31.593 C0.228,31.593 0.220,31.593 0.212,31.593 C0.212,31.562 0.212,31.530 0.212,31.499 C0.204,31.499 0.196,31.499 0.189,31.499 C0.189,31.468 0.189,31.436 0.189,31.405 C0.181,31.405 0.173,31.405 0.165,31.405 C0.165,31.366 0.165,31.327 0.165,31.288 C0.157,31.288 0.149,31.288 0.141,31.288 C0.141,31.248 0.141,31.209 0.141,31.170 C0.134,31.170 0.126,31.170 0.118,31.170 C0.110,31.068 0.102,30.967 0.094,30.865 C0.086,30.865 0.079,30.865 0.071,30.865 C0.071,30.810 0.071,30.755 0.071,30.701 C0.063,30.701 0.055,30.701 0.047,30.701 C0.047,30.630 0.047,30.560 0.047,30.489 C0.039,30.489 0.031,30.489 0.024,30.489 C0.024,30.380 0.024,30.270 0.024,30.160 C0.016,30.160 0.008,30.160 -0.000,30.160 C-0.000,29.902 -0.000,29.644 -0.000,29.385 C0.008,29.385 0.016,29.385 0.024,29.385 C0.024,29.276 0.024,29.166 0.024,29.057 C0.071,28.744 0.118,28.430 0.165,28.117 C0.173,28.117 0.181,28.117 0.189,28.117 C0.189,28.086 0.189,28.055 0.189,28.023 C0.196,28.023 0.204,28.023 0.212,28.023 C0.212,27.992 0.212,27.961 0.212,27.930 C0.220,27.930 0.228,27.930 0.236,27.930 C0.236,27.898 0.236,27.867 0.236,27.836 C0.244,27.836 0.251,27.836 0.259,27.836 C0.259,27.804 0.259,27.773 0.259,27.742 C0.267,27.742 0.275,27.742 0.283,27.742 C0.283,27.710 0.283,27.679 0.283,27.648 C0.291,27.648 0.299,27.648 0.306,27.648 C0.306,27.624 0.306,27.601 0.306,27.577 C0.314,27.577 0.322,27.577 0.330,27.577 C0.330,27.546 0.330,27.515 0.330,27.483 C0.338,27.483 0.346,27.483 0.353,27.483 C0.353,27.460 0.353,27.436 0.353,27.413 C0.361,27.413 0.369,27.413 0.377,27.413 C0.377,27.389 0.377,27.366 0.377,27.342 C0.385,27.342 0.393,27.342 0.401,27.342 C0.401,27.319 0.401,27.295 0.401,27.272 C0.408,27.272 0.416,27.272 0.424,27.272 C0.432,27.225 0.440,27.178 0.448,27.131 C0.456,27.131 0.463,27.131 0.471,27.131 C0.471,27.115 0.471,27.100 0.471,27.084 C0.479,27.084 0.487,27.084 0.495,27.084 C0.503,27.037 0.511,26.990 0.518,26.943 C0.526,26.943 0.534,26.943 0.542,26.943 C0.542,26.928 0.542,26.912 0.542,26.896 C0.550,26.896 0.558,26.896 0.566,26.896 C0.566,26.873 0.566,26.849 0.566,26.826 C0.573,26.826 0.581,26.826 0.589,26.826 C0.589,26.810 0.589,26.794 0.589,26.779 C0.597,26.779 0.605,26.779 0.613,26.779 C0.613,26.755 0.613,26.732 0.613,26.708 C0.621,26.708 0.628,26.708 0.636,26.708 C0.644,26.677 0.652,26.646 0.660,26.614 C0.668,26.614 0.676,26.614 0.683,26.614 C0.683,26.591 0.683,26.567 0.683,26.544 C0.691,26.544 0.699,26.544 0.707,26.544 C0.723,26.497 0.738,26.450 0.754,26.403 C0.762,26.403 0.770,26.403 0.778,26.403 C0.778,26.387 0.778,26.372 0.778,26.356 C0.786,26.356 0.793,26.356 0.801,26.356 C0.801,26.340 0.801,26.325 0.801,26.309 C0.809,26.309 0.817,26.309 0.825,26.309 C0.825,26.294 0.825,26.278 0.825,26.262 C0.833,26.262 0.841,26.262 0.848,26.262 C0.848,26.247 0.848,26.231 0.848,26.215 C0.856,26.215 0.864,26.215 0.872,26.215 C0.872,26.200 0.872,26.184 0.872,26.168 C0.880,26.168 0.888,26.168 0.896,26.168 C0.896,26.153 0.896,26.137 0.896,26.121 C0.903,26.121 0.911,26.121 0.919,26.121 C0.919,26.106 0.919,26.090 0.919,26.074 C0.927,26.074 0.935,26.074 0.943,26.074 C0.943,26.059 0.943,26.043 0.943,26.027 C0.951,26.027 0.958,26.027 0.966,26.027 C0.966,26.012 0.966,25.996 0.966,25.980 C0.982,25.973 0.998,25.965 1.013,25.957 C1.029,25.910 1.045,25.863 1.060,25.816 C1.076,25.808 1.092,25.800 1.108,25.793 C1.108,25.777 1.108,25.761 1.108,25.746 C1.115,25.746 1.123,25.746 1.131,25.746 C1.131,25.730 1.131,25.714 1.131,25.699 C1.139,25.699 1.147,25.699 1.155,25.699 C1.163,25.675 1.170,25.652 1.178,25.628 C1.194,25.620 1.210,25.613 1.225,25.605 C1.233,25.573 1.241,25.542 1.249,25.511 C1.265,25.503 1.280,25.495 1.296,25.487 C1.296,25.472 1.296,25.456 1.296,25.440 C1.304,25.440 1.312,25.440 1.320,25.440 C1.328,25.417 1.335,25.393 1.343,25.370 C1.359,25.362 1.375,25.354 1.390,25.346 C1.390,25.331 1.390,25.315 1.390,25.299 C1.414,25.284 1.438,25.268 1.461,25.252 C1.461,25.237 1.461,25.221 1.461,25.205 C1.477,25.198 1.493,25.190 1.508,25.182 C1.508,25.166 1.508,25.151 1.508,25.135 C1.532,25.119 1.555,25.104 1.579,25.088 C1.579,25.072 1.579,25.057 1.579,25.041 C1.610,25.018 1.642,24.994 1.673,24.971 C1.673,24.955 1.673,24.939 1.673,24.924 C1.705,24.900 1.736,24.877 1.767,24.853 C1.767,24.838 1.767,24.822 1.767,24.806 C1.799,24.783 1.830,24.759 1.862,24.736 C1.862,24.720 1.862,24.704 1.862,24.689 C1.925,24.634 1.987,24.579 2.050,24.524 C2.249,24.251 2.529,23.994 2.804,23.796 C2.836,23.757 2.867,23.718 2.899,23.679 C2.914,23.679 2.930,23.679 2.946,23.679 C2.969,23.648 2.993,23.616 3.017,23.585 C3.032,23.585 3.048,23.585 3.064,23.585 C3.079,23.562 3.095,23.538 3.111,23.515 C3.126,23.515 3.142,23.515 3.158,23.515 C3.174,23.491 3.189,23.468 3.205,23.444 C3.221,23.444 3.236,23.444 3.252,23.444 C3.268,23.421 3.284,23.397 3.299,23.374 C3.315,23.374 3.331,23.374 3.346,23.374 C3.354,23.358 3.362,23.342 3.370,23.327 C3.386,23.327 3.401,23.327 3.417,23.327 C3.425,23.311 3.433,23.295 3.441,23.280 C3.456,23.280 3.472,23.280 3.488,23.280 C3.496,23.264 3.504,23.249 3.511,23.233 C3.527,23.233 3.543,23.233 3.559,23.233 C3.566,23.217 3.574,23.202 3.582,23.186 C3.598,23.186 3.614,23.186 3.629,23.186 C3.637,23.170 3.645,23.155 3.653,23.139 C3.669,23.139 3.684,23.139 3.700,23.139 C3.708,23.123 3.716,23.108 3.723,23.092 C3.755,23.084 3.786,23.076 3.818,23.068 C3.826,23.053 3.833,23.037 3.841,23.022 C3.857,23.022 3.873,23.022 3.888,23.022 C3.888,23.014 3.888,23.006 3.888,22.998 C3.904,22.998 3.920,22.998 3.936,22.998 C3.943,22.982 3.951,22.967 3.959,22.951 C3.975,22.951 3.991,22.951 4.006,22.951 C4.006,22.943 4.006,22.935 4.006,22.928 C4.022,22.928 4.038,22.928 4.053,22.928 C4.053,22.920 4.053,22.912 4.053,22.904 C4.069,22.904 4.085,22.904 4.101,22.904 C4.101,22.896 4.101,22.888 4.101,22.881 C4.116,22.881 4.132,22.881 4.148,22.881 C4.156,22.865 4.163,22.849 4.171,22.834 C4.218,22.818 4.266,22.802 4.313,22.787 C4.313,22.779 4.313,22.771 4.313,22.763 C4.328,22.763 4.344,22.763 4.360,22.763 C4.360,22.755 4.360,22.748 4.360,22.740 C4.407,22.724 4.454,22.708 4.501,22.693 C4.501,22.685 4.501,22.677 4.501,22.669 C4.525,22.669 4.548,22.669 4.572,22.669 C4.572,22.661 4.572,22.654 4.572,22.646 C4.588,22.646 4.603,22.646 4.619,22.646 C4.619,22.638 4.619,22.630 4.619,22.622 C4.650,22.614 4.682,22.607 4.713,22.599 C4.713,22.591 4.713,22.583 4.713,22.575 C4.737,22.575 4.760,22.575 4.784,22.575 C4.784,22.568 4.784,22.560 4.784,22.552 C4.815,22.544 4.847,22.536 4.878,22.528 C4.878,22.521 4.878,22.513 4.878,22.505 C5.177,22.403 5.475,22.301 5.774,22.200 C5.837,22.192 5.899,22.184 5.962,22.176 C5.962,22.168 5.962,22.160 5.962,22.153 C5.994,22.153 6.025,22.153 6.057,22.153 C6.057,22.145 6.057,22.137 6.057,22.129 C6.088,22.129 6.119,22.129 6.151,22.129 C6.151,22.121 6.151,22.114 6.151,22.106 C6.190,22.106 6.229,22.106 6.269,22.106 C6.269,22.098 6.269,22.090 6.269,22.082 C6.308,22.082 6.347,22.082 6.387,22.082 C6.387,22.074 6.387,22.067 6.387,22.059 C6.481,22.051 6.575,22.043 6.669,22.035 C6.669,22.027 6.669,22.020 6.669,22.012 C6.724,22.012 6.779,22.012 6.834,22.012 C6.834,22.004 6.834,21.996 6.834,21.988 C6.947,21.956 7.213,22.003 7.282,21.941 ZM7.730,25.065 C7.652,25.130 7.311,25.076 7.188,25.112 C7.188,25.119 7.188,25.127 7.188,25.135 C7.133,25.135 7.078,25.135 7.023,25.135 C7.023,25.143 7.023,25.151 7.023,25.158 C6.984,25.158 6.944,25.158 6.905,25.158 C6.905,25.166 6.905,25.174 6.905,25.182 C6.874,25.182 6.842,25.182 6.811,25.182 C6.811,25.190 6.811,25.198 6.811,25.205 C6.771,25.205 6.732,25.205 6.693,25.205 C6.693,25.213 6.693,25.221 6.693,25.229 C6.638,25.237 6.583,25.245 6.528,25.252 C6.528,25.260 6.528,25.268 6.528,25.276 C6.504,25.276 6.481,25.276 6.457,25.276 C6.457,25.284 6.457,25.292 6.457,25.299 C6.434,25.299 6.410,25.299 6.387,25.299 C6.387,25.307 6.387,25.315 6.387,25.323 C6.363,25.323 6.339,25.323 6.316,25.323 C6.316,25.331 6.316,25.339 6.316,25.346 C6.269,25.354 6.222,25.362 6.174,25.370 C5.330,25.735 4.625,26.235 4.124,26.943 C4.101,26.959 4.077,26.975 4.053,26.990 C4.046,27.014 4.038,27.037 4.030,27.061 C4.014,27.068 3.998,27.076 3.983,27.084 C3.983,27.100 3.983,27.115 3.983,27.131 C3.967,27.139 3.951,27.147 3.936,27.155 C3.928,27.178 3.920,27.202 3.912,27.225 C3.904,27.225 3.896,27.225 3.888,27.225 C3.881,27.256 3.873,27.288 3.865,27.319 C3.849,27.327 3.833,27.335 3.818,27.342 C3.810,27.374 3.802,27.405 3.794,27.436 C3.778,27.444 3.763,27.452 3.747,27.460 C3.747,27.475 3.747,27.491 3.747,27.507 C3.739,27.507 3.731,27.507 3.723,27.507 C3.723,27.522 3.723,27.538 3.723,27.554 C3.716,27.554 3.708,27.554 3.700,27.554 C3.700,27.569 3.700,27.585 3.700,27.601 C3.692,27.601 3.684,27.601 3.676,27.601 C3.676,27.616 3.676,27.632 3.676,27.648 C3.669,27.648 3.661,27.648 3.653,27.648 C3.653,27.663 3.653,27.679 3.653,27.695 C3.645,27.695 3.637,27.695 3.629,27.695 C3.629,27.710 3.629,27.726 3.629,27.742 C3.621,27.742 3.614,27.742 3.606,27.742 C3.590,27.789 3.574,27.836 3.559,27.883 C3.551,27.883 3.543,27.883 3.535,27.883 C3.535,27.906 3.535,27.930 3.535,27.953 C3.527,27.953 3.519,27.953 3.511,27.953 C3.511,27.969 3.511,27.984 3.511,28.000 C3.504,28.000 3.496,28.000 3.488,28.000 C3.480,28.039 3.472,28.078 3.464,28.117 C3.456,28.117 3.449,28.117 3.441,28.117 C3.370,28.368 3.299,28.618 3.229,28.869 C3.221,28.971 3.213,29.072 3.205,29.174 C3.081,29.610 3.161,30.402 3.276,30.771 C3.276,30.810 3.276,30.849 3.276,30.888 C3.284,30.888 3.291,30.888 3.299,30.888 C3.299,30.920 3.299,30.951 3.299,30.982 C3.307,30.982 3.315,30.982 3.323,30.982 C3.331,31.037 3.339,31.092 3.346,31.147 C3.354,31.147 3.362,31.147 3.370,31.147 C3.370,31.170 3.370,31.194 3.370,31.217 C3.378,31.217 3.386,31.217 3.394,31.217 C3.394,31.241 3.394,31.264 3.394,31.288 C3.401,31.288 3.409,31.288 3.417,31.288 C3.417,31.311 3.417,31.335 3.417,31.358 C3.425,31.358 3.433,31.358 3.441,31.358 C3.441,31.374 3.441,31.389 3.441,31.405 C3.449,31.405 3.456,31.405 3.464,31.405 C3.464,31.428 3.464,31.452 3.464,31.475 C3.472,31.475 3.480,31.475 3.488,31.475 C3.488,31.491 3.488,31.507 3.488,31.522 C3.496,31.522 3.504,31.522 3.511,31.522 C3.511,31.546 3.511,31.569 3.511,31.593 C3.519,31.593 3.527,31.593 3.535,31.593 C3.543,31.624 3.551,31.655 3.559,31.687 C3.566,31.687 3.574,31.687 3.582,31.687 C3.582,31.702 3.582,31.718 3.582,31.734 C3.590,31.734 3.598,31.734 3.606,31.734 C3.629,31.804 3.653,31.875 3.676,31.945 C3.692,31.953 3.708,31.961 3.723,31.969 C3.723,31.984 3.723,32.000 3.723,32.016 C3.731,32.016 3.739,32.016 3.747,32.016 C3.747,32.031 3.747,32.047 3.747,32.063 C3.755,32.063 3.763,32.063 3.771,32.063 C3.771,32.078 3.771,32.094 3.771,32.109 C3.778,32.109 3.786,32.109 3.794,32.109 C3.794,32.125 3.794,32.141 3.794,32.156 C3.802,32.156 3.810,32.156 3.818,32.156 C3.826,32.180 3.833,32.203 3.841,32.227 C3.857,32.235 3.873,32.243 3.888,32.250 C3.896,32.282 3.904,32.313 3.912,32.344 C3.928,32.352 3.943,32.360 3.959,32.368 C3.959,32.383 3.959,32.399 3.959,32.415 C3.983,32.430 4.006,32.446 4.030,32.462 C4.030,32.477 4.030,32.493 4.030,32.509 C4.046,32.517 4.061,32.524 4.077,32.532 C4.077,32.548 4.077,32.564 4.077,32.579 C4.101,32.595 4.124,32.610 4.148,32.626 C4.148,32.642 4.148,32.657 4.148,32.673 C4.187,32.704 4.226,32.736 4.266,32.767 C4.266,32.783 4.266,32.798 4.266,32.814 C4.328,32.869 4.391,32.924 4.454,32.978 C4.454,32.994 4.454,33.010 4.454,33.025 C4.493,33.057 4.533,33.088 4.572,33.119 C4.580,33.135 4.588,33.151 4.595,33.166 C4.611,33.166 4.627,33.166 4.643,33.166 C4.698,33.229 4.753,33.291 4.808,33.354 C4.823,33.354 4.839,33.354 4.855,33.354 C4.886,33.393 4.918,33.432 4.949,33.472 C4.973,33.479 4.996,33.487 5.020,33.495 C5.028,33.511 5.035,33.526 5.043,33.542 C5.059,33.542 5.075,33.542 5.090,33.542 C5.098,33.558 5.106,33.573 5.114,33.589 C5.130,33.589 5.145,33.589 5.161,33.589 C5.177,33.612 5.192,33.636 5.208,33.659 C5.224,33.659 5.240,33.659 5.255,33.659 C5.263,33.675 5.271,33.691 5.279,33.706 C5.310,33.714 5.342,33.722 5.373,33.730 C5.381,33.745 5.389,33.761 5.397,33.777 C5.412,33.777 5.428,33.777 5.444,33.777 C5.452,33.792 5.460,33.808 5.467,33.824 C5.483,33.824 5.499,33.824 5.515,33.824 C5.515,33.832 5.515,33.839 5.515,33.847 C5.530,33.847 5.546,33.847 5.562,33.847 C5.562,33.855 5.562,33.863 5.562,33.871 C5.577,33.871 5.593,33.871 5.609,33.871 C5.609,33.879 5.609,33.886 5.609,33.894 C5.625,33.894 5.640,33.894 5.656,33.894 C5.664,33.910 5.672,33.926 5.680,33.941 C5.695,33.941 5.711,33.941 5.727,33.941 C5.727,33.949 5.727,33.957 5.727,33.965 C5.758,33.972 5.789,33.980 5.821,33.988 C5.821,33.996 5.821,34.004 5.821,34.012 C5.844,34.012 5.868,34.012 5.892,34.012 C5.892,34.019 5.892,34.027 5.892,34.035 C5.907,34.035 5.923,34.035 5.939,34.035 C5.939,34.043 5.939,34.051 5.939,34.059 C5.970,34.066 6.002,34.074 6.033,34.082 C6.033,34.090 6.033,34.098 6.033,34.106 C6.057,34.106 6.080,34.106 6.104,34.106 C6.104,34.113 6.104,34.121 6.104,34.129 C6.119,34.129 6.135,34.129 6.151,34.129 C6.151,34.137 6.151,34.145 6.151,34.153 C6.174,34.153 6.198,34.153 6.222,34.153 C6.222,34.160 6.222,34.168 6.222,34.176 C6.237,34.176 6.253,34.176 6.269,34.176 C6.269,34.184 6.269,34.192 6.269,34.199 C6.347,34.215 6.426,34.231 6.504,34.246 C6.504,34.254 6.504,34.262 6.504,34.270 C6.528,34.270 6.551,34.270 6.575,34.270 C6.575,34.278 6.575,34.286 6.575,34.293 C6.606,34.293 6.638,34.293 6.669,34.293 C6.669,34.301 6.669,34.309 6.669,34.317 C6.701,34.317 6.732,34.317 6.764,34.317 C6.764,34.325 6.764,34.333 6.764,34.340 C6.795,34.340 6.826,34.340 6.858,34.340 C6.858,34.348 6.858,34.356 6.858,34.364 C6.897,34.364 6.936,34.364 6.976,34.364 C6.976,34.372 6.976,34.380 6.976,34.387 C7.023,34.387 7.070,34.387 7.117,34.387 C7.117,34.395 7.117,34.403 7.117,34.411 C7.172,34.411 7.227,34.411 7.282,34.411 C7.282,34.419 7.282,34.427 7.282,34.434 C7.361,34.434 7.439,34.434 7.518,34.434 C7.605,34.458 8.107,34.491 8.225,34.458 C8.225,34.450 8.225,34.442 8.225,34.434 C8.303,34.434 8.382,34.434 8.460,34.434 C8.460,34.427 8.460,34.419 8.460,34.411 C8.515,34.411 8.570,34.411 8.625,34.411 C8.625,34.403 8.625,34.395 8.625,34.387 C8.704,34.380 8.782,34.372 8.861,34.364 C8.861,34.356 8.861,34.348 8.861,34.340 C8.900,34.340 8.940,34.340 8.979,34.340 C8.979,34.333 8.979,34.325 8.979,34.317 C9.010,34.317 9.042,34.317 9.073,34.317 C9.073,34.309 9.073,34.301 9.073,34.293 C9.128,34.286 9.183,34.278 9.238,34.270 C9.238,34.262 9.238,34.254 9.238,34.246 C9.262,34.246 9.285,34.246 9.309,34.246 C9.309,34.239 9.309,34.231 9.309,34.223 C9.356,34.215 9.403,34.207 9.450,34.199 C9.450,34.192 9.450,34.184 9.450,34.176 C9.466,34.176 9.482,34.176 9.497,34.176 C9.497,34.168 9.497,34.160 9.497,34.153 C9.544,34.145 9.592,34.137 9.639,34.129 C9.639,34.121 9.639,34.113 9.639,34.106 C9.670,34.098 9.702,34.090 9.733,34.082 C9.733,34.074 9.733,34.066 9.733,34.059 C9.757,34.059 9.780,34.059 9.804,34.059 C9.804,34.051 9.804,34.043 9.804,34.035 C9.851,34.019 9.898,34.004 9.945,33.988 C9.945,33.980 9.945,33.972 9.945,33.965 C9.961,33.965 9.976,33.965 9.992,33.965 C9.992,33.957 9.992,33.949 9.992,33.941 C10.024,33.933 10.055,33.926 10.086,33.918 C10.094,33.902 10.102,33.886 10.110,33.871 C10.157,33.855 10.204,33.839 10.251,33.824 C10.259,33.808 10.267,33.792 10.275,33.777 C10.306,33.769 10.338,33.761 10.369,33.753 C10.377,33.738 10.385,33.722 10.393,33.706 C10.409,33.706 10.424,33.706 10.440,33.706 C10.440,33.699 10.440,33.691 10.440,33.683 C10.463,33.675 10.487,33.667 10.511,33.659 C10.518,33.644 10.526,33.628 10.534,33.612 C10.550,33.612 10.566,33.612 10.581,33.612 C10.589,33.597 10.597,33.581 10.605,33.565 C10.628,33.558 10.652,33.550 10.676,33.542 C10.691,33.518 10.707,33.495 10.723,33.472 C10.738,33.472 10.754,33.472 10.770,33.472 C10.786,33.448 10.801,33.425 10.817,33.401 C10.841,33.393 10.864,33.385 10.888,33.378 C10.927,33.331 10.966,33.284 11.006,33.237 C11.021,33.237 11.037,33.237 11.053,33.237 C11.115,33.166 11.178,33.096 11.241,33.025 C11.273,33.002 11.304,32.978 11.335,32.955 C11.335,32.939 11.335,32.924 11.335,32.908 C11.390,32.861 11.445,32.814 11.500,32.767 C11.500,32.751 11.500,32.736 11.500,32.720 C11.532,32.697 11.563,32.673 11.595,32.650 C11.595,32.634 11.595,32.618 11.595,32.603 C11.618,32.587 11.642,32.571 11.665,32.556 C11.665,32.540 11.665,32.524 11.665,32.509 C11.681,32.501 11.697,32.493 11.713,32.485 C11.720,32.462 11.728,32.438 11.736,32.415 C11.744,32.415 11.752,32.415 11.760,32.415 C11.760,32.399 11.760,32.383 11.760,32.368 C11.775,32.360 11.791,32.352 11.807,32.344 C11.807,32.329 11.807,32.313 11.807,32.297 C11.822,32.290 11.838,32.282 11.854,32.274 C11.854,32.258 11.854,32.243 11.854,32.227 C11.870,32.219 11.885,32.211 11.901,32.203 C11.909,32.172 11.917,32.141 11.925,32.109 C11.940,32.102 11.956,32.094 11.972,32.086 C11.972,32.070 11.972,32.055 11.972,32.039 C11.980,32.039 11.987,32.039 11.995,32.039 C11.995,32.023 11.995,32.008 11.995,31.992 C12.003,31.992 12.011,31.992 12.019,31.992 C12.019,31.976 12.019,31.961 12.019,31.945 C12.027,31.945 12.035,31.945 12.042,31.945 C12.042,31.929 12.042,31.914 12.042,31.898 C12.050,31.898 12.058,31.898 12.066,31.898 C12.066,31.882 12.066,31.867 12.066,31.851 C12.074,31.851 12.082,31.851 12.090,31.851 C12.090,31.836 12.090,31.820 12.090,31.804 C12.097,31.804 12.105,31.804 12.113,31.804 C12.129,31.757 12.145,31.710 12.160,31.663 C12.168,31.663 12.176,31.663 12.184,31.663 C12.184,31.640 12.184,31.616 12.184,31.593 C12.192,31.593 12.200,31.593 12.207,31.593 C12.215,31.562 12.223,31.530 12.231,31.499 C12.239,31.499 12.247,31.499 12.255,31.499 C12.270,31.428 12.286,31.358 12.302,31.288 C12.310,31.288 12.317,31.288 12.325,31.288 C12.325,31.272 12.325,31.256 12.325,31.241 C12.333,31.241 12.341,31.241 12.349,31.241 C12.349,31.209 12.349,31.178 12.349,31.147 C12.357,31.147 12.365,31.147 12.372,31.147 C12.372,31.123 12.372,31.100 12.372,31.076 C12.380,31.076 12.388,31.076 12.396,31.076 C12.396,31.045 12.396,31.014 12.396,30.982 C12.662,30.228 12.597,28.992 12.325,28.305 C12.317,28.258 12.310,28.211 12.302,28.164 C12.294,28.164 12.286,28.164 12.278,28.164 C12.278,28.149 12.278,28.133 12.278,28.117 C12.270,28.117 12.262,28.117 12.255,28.117 C12.247,28.070 12.239,28.023 12.231,27.976 C12.223,27.976 12.215,27.976 12.207,27.976 C12.200,27.945 12.192,27.914 12.184,27.883 C12.176,27.883 12.168,27.883 12.160,27.883 C12.160,27.867 12.160,27.851 12.160,27.836 C12.152,27.836 12.145,27.836 12.137,27.836 C12.137,27.812 12.137,27.789 12.137,27.765 C12.129,27.765 12.121,27.765 12.113,27.765 C12.105,27.734 12.097,27.702 12.090,27.671 C12.082,27.671 12.074,27.671 12.066,27.671 C12.058,27.640 12.050,27.609 12.042,27.577 C12.027,27.569 12.011,27.562 11.995,27.554 C11.995,27.538 11.995,27.522 11.995,27.507 C11.987,27.507 11.980,27.507 11.972,27.507 C11.972,27.491 11.972,27.475 11.972,27.460 C11.964,27.460 11.956,27.460 11.948,27.460 C11.948,27.444 11.948,27.429 11.948,27.413 C11.940,27.413 11.932,27.413 11.925,27.413 C11.925,27.397 11.925,27.382 11.925,27.366 C11.917,27.366 11.909,27.366 11.901,27.366 C11.893,27.342 11.885,27.319 11.877,27.295 C11.862,27.288 11.846,27.280 11.830,27.272 C11.822,27.241 11.815,27.209 11.807,27.178 C11.783,27.162 11.760,27.147 11.736,27.131 C11.736,27.115 11.736,27.100 11.736,27.084 C11.720,27.076 11.705,27.068 11.689,27.061 C11.689,27.045 11.689,27.029 11.689,27.014 C11.673,27.006 11.658,26.998 11.642,26.990 C11.634,26.967 11.626,26.943 11.618,26.920 C11.595,26.904 11.571,26.888 11.548,26.873 C11.548,26.857 11.548,26.841 11.548,26.826 C11.508,26.794 11.469,26.763 11.430,26.732 C11.430,26.716 11.430,26.701 11.430,26.685 C11.375,26.638 11.320,26.591 11.265,26.544 C11.155,26.427 11.045,26.309 10.935,26.192 C10.919,26.192 10.903,26.192 10.888,26.192 C10.864,26.160 10.841,26.129 10.817,26.098 C10.801,26.098 10.786,26.098 10.770,26.098 C10.746,26.067 10.723,26.035 10.699,26.004 C10.683,26.004 10.668,26.004 10.652,26.004 C10.644,25.988 10.636,25.973 10.628,25.957 C10.613,25.957 10.597,25.957 10.581,25.957 C10.566,25.933 10.550,25.910 10.534,25.886 C10.518,25.886 10.503,25.886 10.487,25.886 C10.479,25.871 10.471,25.855 10.463,25.840 C10.448,25.840 10.432,25.840 10.416,25.840 C10.409,25.824 10.401,25.808 10.393,25.793 C10.377,25.793 10.361,25.793 10.346,25.793 C10.346,25.785 10.346,25.777 10.346,25.769 C10.330,25.769 10.314,25.769 10.299,25.769 C10.291,25.753 10.283,25.738 10.275,25.722 C10.228,25.706 10.181,25.691 10.134,25.675 C9.521,25.292 8.719,25.071 7.730,25.065 ZM20.314,28.188 C24.823,28.188 29.333,28.188 33.841,28.188 C34.430,28.188 35.020,28.188 35.609,28.188 C35.944,28.188 36.282,28.176 36.528,28.258 C36.559,28.258 36.591,28.258 36.622,28.258 C36.740,28.313 36.858,28.368 36.976,28.423 C36.984,28.438 36.991,28.454 36.999,28.470 C37.015,28.470 37.031,28.470 37.046,28.470 C37.054,28.485 37.062,28.501 37.070,28.517 C37.086,28.517 37.101,28.517 37.117,28.517 C37.172,28.579 37.227,28.642 37.282,28.704 C37.314,28.728 37.345,28.751 37.376,28.775 C37.376,28.791 37.376,28.806 37.376,28.822 C37.400,28.838 37.423,28.853 37.447,28.869 C37.447,28.884 37.447,28.900 37.447,28.916 C37.596,29.138 37.706,29.363 37.706,29.738 C37.706,29.832 37.706,29.926 37.706,30.020 C37.698,30.020 37.691,30.020 37.683,30.020 C37.683,30.059 37.683,30.098 37.683,30.137 C37.675,30.137 37.667,30.137 37.659,30.137 C37.659,30.160 37.659,30.184 37.659,30.207 C37.651,30.207 37.643,30.207 37.636,30.207 C37.636,30.231 37.636,30.254 37.636,30.278 C37.628,30.278 37.620,30.278 37.612,30.278 C37.612,30.301 37.612,30.325 37.612,30.348 C37.604,30.348 37.596,30.348 37.588,30.348 C37.588,30.372 37.588,30.395 37.588,30.419 C37.581,30.419 37.573,30.419 37.565,30.419 C37.565,30.434 37.565,30.450 37.565,30.466 C37.557,30.466 37.549,30.466 37.541,30.466 C37.541,30.481 37.541,30.497 37.541,30.513 C37.526,30.520 37.510,30.528 37.494,30.536 C37.486,30.567 37.478,30.599 37.471,30.630 C37.455,30.638 37.439,30.646 37.423,30.654 C37.423,30.669 37.423,30.685 37.423,30.701 C37.392,30.724 37.361,30.747 37.329,30.771 C37.329,30.787 37.329,30.802 37.329,30.818 C37.290,30.849 37.251,30.881 37.211,30.912 C37.204,30.928 37.196,30.943 37.188,30.959 C37.172,30.959 37.156,30.959 37.141,30.959 C37.117,30.990 37.094,31.021 37.070,31.053 C37.054,31.053 37.039,31.053 37.023,31.053 C37.015,31.068 37.007,31.084 36.999,31.100 C36.952,31.115 36.905,31.131 36.858,31.147 C36.850,31.162 36.842,31.178 36.834,31.194 C36.811,31.194 36.787,31.194 36.764,31.194 C36.764,31.201 36.764,31.209 36.764,31.217 C36.748,31.217 36.732,31.217 36.716,31.217 C36.716,31.225 36.716,31.233 36.716,31.241 C36.419,31.369 35.937,31.335 35.515,31.335 C34.745,31.335 33.975,31.335 33.205,31.335 C30.142,31.335 27.078,31.335 24.014,31.335 C23.103,31.335 22.192,31.335 21.280,31.335 C20.907,31.335 20.268,31.388 19.984,31.288 C19.859,31.233 19.733,31.178 19.607,31.123 C19.607,31.115 19.607,31.108 19.607,31.100 C19.584,31.092 19.560,31.084 19.537,31.076 C19.529,31.061 19.521,31.045 19.513,31.029 C19.497,31.029 19.482,31.029 19.466,31.029 C19.411,30.967 19.356,30.904 19.301,30.841 C19.262,30.810 19.222,30.779 19.183,30.747 C19.183,30.732 19.183,30.716 19.183,30.701 C19.160,30.685 19.136,30.669 19.112,30.654 C19.112,30.638 19.112,30.622 19.112,30.607 C19.097,30.599 19.081,30.591 19.065,30.583 C19.050,30.536 19.034,30.489 19.018,30.442 C19.010,30.442 19.002,30.442 18.995,30.442 C18.995,30.427 18.995,30.411 18.995,30.395 C18.987,30.395 18.979,30.395 18.971,30.395 C18.955,30.325 18.940,30.254 18.924,30.184 C18.846,29.976 18.826,29.662 18.900,29.432 C18.900,29.401 18.900,29.370 18.900,29.338 C18.908,29.338 18.916,29.338 18.924,29.338 C18.932,29.292 18.940,29.245 18.947,29.198 C18.955,29.198 18.963,29.198 18.971,29.198 C18.971,29.182 18.971,29.166 18.971,29.151 C18.979,29.151 18.987,29.151 18.995,29.151 C19.002,29.111 19.010,29.072 19.018,29.033 C19.034,29.025 19.050,29.018 19.065,29.010 C19.073,28.978 19.081,28.947 19.089,28.916 C19.105,28.908 19.120,28.900 19.136,28.892 C19.136,28.877 19.136,28.861 19.136,28.845 C19.160,28.830 19.183,28.814 19.207,28.798 C19.207,28.783 19.207,28.767 19.207,28.751 C19.230,28.736 19.254,28.720 19.277,28.704 C19.317,28.657 19.356,28.611 19.395,28.564 C19.411,28.564 19.427,28.564 19.442,28.564 C19.466,28.532 19.489,28.501 19.513,28.470 C19.529,28.470 19.544,28.470 19.560,28.470 C19.568,28.454 19.576,28.438 19.584,28.423 C19.599,28.423 19.615,28.423 19.631,28.423 C19.631,28.415 19.631,28.407 19.631,28.399 C19.647,28.399 19.662,28.399 19.678,28.399 C19.678,28.391 19.678,28.384 19.678,28.376 C19.694,28.376 19.709,28.376 19.725,28.376 C19.725,28.368 19.725,28.360 19.725,28.352 C19.741,28.352 19.757,28.352 19.772,28.352 C19.772,28.344 19.772,28.337 19.772,28.329 C19.788,28.329 19.804,28.329 19.819,28.329 C19.819,28.321 19.819,28.313 19.819,28.305 C19.843,28.305 19.867,28.305 19.890,28.305 C19.890,28.297 19.890,28.290 19.890,28.282 C19.914,28.282 19.937,28.282 19.961,28.282 C19.961,28.274 19.961,28.266 19.961,28.258 C19.984,28.258 20.008,28.258 20.031,28.258 C20.031,28.250 20.031,28.243 20.031,28.235 C20.063,28.235 20.094,28.235 20.126,28.235 C20.126,28.227 20.126,28.219 20.126,28.211 C20.189,28.211 20.251,28.211 20.314,28.211 C20.314,28.203 20.314,28.196 20.314,28.188 ZM10.463,37.135 C10.149,37.229 9.835,37.323 9.521,37.417 C9.403,37.432 9.285,37.448 9.167,37.464 C9.167,37.471 9.167,37.479 9.167,37.487 C9.128,37.487 9.089,37.487 9.050,37.487 C9.050,37.495 9.050,37.503 9.050,37.511 C9.002,37.511 8.955,37.511 8.908,37.511 C8.908,37.518 8.908,37.526 8.908,37.534 C8.853,37.534 8.798,37.534 8.743,37.534 C8.743,37.542 8.743,37.550 8.743,37.558 C8.672,37.558 8.602,37.558 8.531,37.558 C8.531,37.565 8.531,37.573 8.531,37.581 C8.421,37.581 8.311,37.581 8.201,37.581 C8.116,37.605 7.634,37.637 7.518,37.605 C7.518,37.597 7.518,37.589 7.518,37.581 C7.408,37.581 7.298,37.581 7.188,37.581 C7.188,37.573 7.188,37.565 7.188,37.558 C7.125,37.558 7.062,37.558 6.999,37.558 C6.999,37.550 6.999,37.542 6.999,37.534 C6.936,37.534 6.874,37.534 6.811,37.534 C6.811,37.526 6.811,37.518 6.811,37.511 C6.764,37.511 6.716,37.511 6.669,37.511 C6.669,37.503 6.669,37.495 6.669,37.487 C6.551,37.471 6.434,37.456 6.316,37.440 C6.316,37.432 6.316,37.425 6.316,37.417 C6.245,37.409 6.174,37.401 6.104,37.393 C6.104,37.385 6.104,37.378 6.104,37.370 C6.080,37.370 6.057,37.370 6.033,37.370 C6.033,37.362 6.033,37.354 6.033,37.346 C6.002,37.346 5.970,37.346 5.939,37.346 C5.939,37.338 5.939,37.331 5.939,37.323 C5.907,37.323 5.876,37.323 5.844,37.323 C5.844,37.315 5.844,37.307 5.844,37.299 C5.789,37.291 5.734,37.284 5.680,37.276 C5.680,37.268 5.680,37.260 5.680,37.252 C5.656,37.252 5.632,37.252 5.609,37.252 C5.609,37.244 5.609,37.237 5.609,37.229 C5.585,37.229 5.562,37.229 5.538,37.229 C5.538,37.221 5.538,37.213 5.538,37.205 C5.515,37.205 5.491,37.205 5.467,37.205 C5.467,37.198 5.467,37.190 5.467,37.182 C5.449,37.175 5.279,37.135 5.279,37.135 C5.279,37.143 5.279,37.151 5.279,37.158 C5.232,37.213 5.258,37.270 5.232,37.346 C5.224,37.346 5.216,37.346 5.208,37.346 C5.208,37.378 5.208,37.409 5.208,37.440 C5.200,37.440 5.192,37.440 5.185,37.440 C5.185,37.471 5.185,37.503 5.185,37.534 C5.177,37.534 5.169,37.534 5.161,37.534 C5.161,37.565 5.161,37.597 5.161,37.628 C5.070,37.891 5.016,38.210 4.925,38.473 C4.918,38.536 4.910,38.599 4.902,38.661 C4.759,39.077 4.691,39.561 4.548,39.976 C4.548,40.008 4.548,40.039 4.548,40.070 C4.540,40.070 4.533,40.070 4.525,40.070 C4.525,40.102 4.525,40.133 4.525,40.164 C4.517,40.164 4.509,40.164 4.501,40.164 C4.501,40.196 4.501,40.227 4.501,40.258 C4.493,40.258 4.485,40.258 4.478,40.258 C4.478,40.289 4.478,40.321 4.478,40.352 C4.398,40.585 4.342,40.869 4.266,41.104 C4.258,41.174 4.250,41.244 4.242,41.315 C4.194,41.457 4.149,41.643 4.101,41.785 C4.093,41.847 4.085,41.910 4.077,41.972 C4.024,42.128 3.970,42.317 3.936,42.489 C3.943,42.489 3.951,42.489 3.959,42.489 C3.959,42.481 3.959,42.473 3.959,42.466 C3.991,42.458 4.022,42.450 4.053,42.442 C4.053,42.434 4.053,42.426 4.053,42.419 C4.069,42.419 4.085,42.419 4.101,42.419 C4.101,42.411 4.101,42.403 4.101,42.395 C4.116,42.395 4.132,42.395 4.148,42.395 C4.148,42.387 4.148,42.379 4.148,42.372 C4.163,42.372 4.179,42.372 4.195,42.372 C4.195,42.364 4.195,42.356 4.195,42.348 C4.211,42.348 4.226,42.348 4.242,42.348 C4.242,42.340 4.242,42.332 4.242,42.325 C4.289,42.309 4.336,42.293 4.383,42.278 C4.383,42.270 4.383,42.262 4.383,42.254 C4.415,42.246 4.446,42.239 4.478,42.231 C4.478,42.223 4.478,42.215 4.478,42.207 C4.509,42.199 4.540,42.192 4.572,42.184 C4.572,42.176 4.572,42.168 4.572,42.160 C4.588,42.160 4.603,42.160 4.619,42.160 C4.619,42.152 4.619,42.145 4.619,42.137 C4.635,42.137 4.650,42.137 4.666,42.137 C4.666,42.129 4.666,42.121 4.666,42.113 C4.682,42.113 4.698,42.113 4.713,42.113 C4.713,42.105 4.713,42.098 4.713,42.090 C4.729,42.090 4.745,42.090 4.760,42.090 C4.760,42.082 4.760,42.074 4.760,42.066 C4.808,42.051 4.855,42.035 4.902,42.019 C5.611,41.642 6.361,41.293 7.070,40.916 C7.086,40.916 7.101,40.916 7.117,40.916 C7.117,40.908 7.117,40.900 7.117,40.892 C7.133,40.892 7.148,40.892 7.164,40.892 C7.164,40.884 7.164,40.877 7.164,40.869 C7.188,40.869 7.211,40.869 7.235,40.869 C7.235,40.861 7.235,40.853 7.235,40.845 C7.251,40.845 7.266,40.845 7.282,40.845 C7.282,40.837 7.282,40.830 7.282,40.822 C7.306,40.822 7.329,40.822 7.353,40.822 C7.353,40.814 7.353,40.806 7.353,40.798 C7.450,40.760 7.923,40.680 8.083,40.728 C8.083,40.736 8.083,40.743 8.083,40.751 C8.123,40.751 8.162,40.751 8.201,40.751 C8.201,40.759 8.201,40.767 8.201,40.775 C8.233,40.775 8.264,40.775 8.295,40.775 C8.295,40.783 8.295,40.790 8.295,40.798 C8.319,40.798 8.343,40.798 8.366,40.798 C8.366,40.806 8.366,40.814 8.366,40.822 C8.390,40.822 8.413,40.822 8.437,40.822 C8.437,40.830 8.437,40.837 8.437,40.845 C8.452,40.845 8.468,40.845 8.484,40.845 C8.484,40.853 8.484,40.861 8.484,40.869 C8.507,40.869 8.531,40.869 8.555,40.869 C8.555,40.877 8.555,40.884 8.555,40.892 C8.602,40.908 8.649,40.923 8.696,40.939 C8.696,40.947 8.696,40.955 8.696,40.963 C8.712,40.963 8.727,40.963 8.743,40.963 C8.743,40.970 8.743,40.978 8.743,40.986 C8.759,40.986 8.775,40.986 8.790,40.986 C8.790,40.994 8.790,41.002 8.790,41.010 C8.806,41.010 8.822,41.010 8.837,41.010 C8.837,41.017 8.837,41.025 8.837,41.033 C8.853,41.033 8.869,41.033 8.885,41.033 C8.885,41.041 8.885,41.049 8.885,41.057 C8.900,41.057 8.916,41.057 8.932,41.057 C8.932,41.064 8.932,41.072 8.932,41.080 C8.979,41.096 9.026,41.111 9.073,41.127 C9.073,41.135 9.073,41.143 9.073,41.151 C9.104,41.158 9.136,41.166 9.167,41.174 C9.167,41.182 9.167,41.190 9.167,41.197 C9.199,41.205 9.230,41.213 9.262,41.221 C9.262,41.229 9.262,41.237 9.262,41.244 C9.277,41.244 9.293,41.244 9.309,41.244 C9.309,41.252 9.309,41.260 9.309,41.268 C9.324,41.268 9.340,41.268 9.356,41.268 C9.356,41.276 9.356,41.284 9.356,41.291 C9.372,41.291 9.387,41.291 9.403,41.291 C9.403,41.299 9.403,41.307 9.403,41.315 C9.419,41.315 9.434,41.315 9.450,41.315 C9.450,41.323 9.450,41.331 9.450,41.338 C9.466,41.338 9.482,41.338 9.497,41.338 C9.497,41.346 9.497,41.354 9.497,41.362 C9.529,41.370 9.560,41.378 9.592,41.385 C9.592,41.393 9.592,41.401 9.592,41.409 C9.639,41.424 9.686,41.440 9.733,41.456 C9.733,41.464 9.733,41.471 9.733,41.479 C9.780,41.495 9.827,41.511 9.874,41.526 C9.874,41.534 9.874,41.542 9.874,41.550 C9.906,41.558 9.937,41.565 9.969,41.573 C9.969,41.581 9.969,41.589 9.969,41.597 C10.000,41.605 10.031,41.612 10.063,41.620 C10.063,41.628 10.063,41.636 10.063,41.644 C10.079,41.644 10.094,41.644 10.110,41.644 C10.110,41.651 10.110,41.659 10.110,41.667 C10.126,41.667 10.141,41.667 10.157,41.667 C10.157,41.675 10.157,41.683 10.157,41.691 C10.173,41.691 10.189,41.691 10.204,41.691 C10.204,41.698 10.204,41.706 10.204,41.714 C10.220,41.714 10.236,41.714 10.251,41.714 C10.251,41.722 10.251,41.730 10.251,41.738 C10.267,41.738 10.283,41.738 10.299,41.738 C10.299,41.745 10.299,41.753 10.299,41.761 C10.314,41.761 10.330,41.761 10.346,41.761 C10.346,41.769 10.346,41.777 10.346,41.785 C10.361,41.785 10.377,41.785 10.393,41.785 C10.393,41.792 10.393,41.800 10.393,41.808 C10.409,41.808 10.424,41.808 10.440,41.808 C10.440,41.816 10.440,41.824 10.440,41.832 C10.456,41.832 10.471,41.832 10.487,41.832 C10.487,41.839 10.487,41.847 10.487,41.855 C10.518,41.863 10.550,41.871 10.581,41.878 C10.581,41.886 10.581,41.894 10.581,41.902 C10.597,41.902 10.613,41.902 10.628,41.902 C10.628,41.910 10.628,41.918 10.628,41.925 C10.644,41.925 10.660,41.925 10.676,41.925 C10.676,41.933 10.676,41.941 10.676,41.949 C10.691,41.949 10.707,41.949 10.723,41.949 C10.723,41.957 10.723,41.965 10.723,41.972 C10.738,41.972 10.754,41.972 10.770,41.972 C10.770,41.980 10.770,41.988 10.770,41.996 C10.786,41.996 10.801,41.996 10.817,41.996 C10.817,42.004 10.817,42.012 10.817,42.019 C10.848,42.027 10.880,42.035 10.911,42.043 C11.193,42.193 11.488,42.354 11.783,42.489 C11.783,42.466 11.783,42.442 11.783,42.419 C11.736,42.364 11.762,42.307 11.736,42.231 C11.728,42.231 11.720,42.231 11.713,42.231 C11.713,42.199 11.713,42.168 11.713,42.137 C11.705,42.137 11.697,42.137 11.689,42.137 C11.689,42.105 11.689,42.074 11.689,42.043 C11.598,41.780 11.544,41.461 11.453,41.197 C11.445,41.135 11.438,41.072 11.430,41.010 C11.224,40.413 11.139,39.728 10.935,39.131 C10.903,38.974 10.872,38.818 10.841,38.661 C10.782,38.489 10.732,38.271 10.676,38.098 C10.660,37.996 10.644,37.894 10.628,37.792 C10.621,37.792 10.613,37.792 10.605,37.792 C10.558,37.573 10.511,37.354 10.463,37.135 Z"/>
</svg>