<svg id="svg-circle-template" x="0px" y="0px" width="100%" height="980" version="1.1" xmlns="http://www.w3.org/2000/svg" xmlns:xlink="http://www.w3.org/1999/xlink" viewBox="0 0 1920 980"><desc>Created with Snap</desc><defs><linearGradient x1="0%" y1="0%" x2="100%" y2="100%" id="gradient-blue"><stop offset="0%" stop-color="#f5f5f5"></stop><stop offset="100%" stop-color="#f5f5f5"></stop></linearGradient><mask id="maskSjiu86velo"><circle cx="936.5" cy="493.5" r="185" fill="#ffffff" stroke="#ffffff" style="stroke-width: 200;"></circle></mask></defs><g class="circle-group"><path d="M 1117.1035296202879 307.4845093782503 A 250 250 0 0 0 940.3268343236509 234.26120467488715" fill="none" stroke="url('#gradient-blue')" style="stroke-width: 135;" class="circle-segment"></path></g><g class="circle-group"><path d="M 1195.7387953251127 489.67316567634913 A 250 250 0 0 0 1122.5154906217497 312.89647037971224" fill="none" stroke="url('#gradient-blue')" style="stroke-width: 135;" class="circle-segment"></path></g><g class="circle-group"><path d="M 1122.5154906217497 674.1035296202878 A 250 250 0 0 0 1195.7387953251127 497.32683432365087" fill="none" stroke="url('#gradient-blue')" style="stroke-width: 135;" class="circle-segment"></path></g><g class="circle-group"><path d="M 940.3268343236509 752.7387953251128 A 250 250 0 0 0 1117.1035296202879 679.5154906217497" fill="none" stroke="url('#gradient-blue')" style="stroke-width: 135;" class="circle-segment"></path></g><g class="circle-group"><path d="M 755.8964703797122 679.5154906217497 A 250 250 0 0 0 932.6731656763491 752.7387953251128" fill="none" stroke="url('#gradient-blue')" style="stroke-width: 135;" class="circle-segment"></path></g><g class="circle-group"><path d="M 677.2612046748872 497.3268343236509 A 250 250 0 0 0 750.4845093782503 674.1035296202878" fill="none" stroke="url('#gradient-blue')" style="stroke-width: 135;" class="circle-segment"></path></g><g class="circle-group"><path d="M 750.4845093782502 312.89647037971224 A 250 250 0 0 0 677.2612046748872 489.6731656763492" fill="none" stroke="url('#gradient-blue')" style="stroke-width: 135;" class="circle-segment"></path></g><g class="circle-group"><path d="M 932.6731656763491 234.26120467488715 A 250 250 0 0 0 755.8964703797121 307.4845093782503" fill="none" stroke="url('#gradient-blue')" style="stroke-width: 135;" class="circle-segment"></path></g><g mask="url('#maskSjiu86velo')" id="logo-center"><image xlink:href="/public/img/upgrade_page/svg/circle-img-ep.png" preserveAspectRatio="none" x="756.5" y="313.5" width="360" height="360" id="pattern-img-center"></image></g></svg>