<svg 
 xmlns="http://www.w3.org/2000/svg"
 xmlns:xlink="http://www.w3.org/1999/xlink"
 width="49px" height="48px">
<path fill-rule="evenodd"  fill="rgb(47, 47, 47)"
 d="M4.836,0.005 C14.758,0.005 24.684,0.005 34.606,0.005 C36.874,0.005 39.142,0.005 41.410,0.005 C42.093,0.005 42.775,0.005 43.458,0.005 C43.770,0.005 44.133,-0.023 44.383,0.049 C44.434,0.049 44.485,0.049 44.537,0.049 C44.537,0.056 44.537,0.064 44.537,0.071 C44.610,0.078 44.684,0.086 44.757,0.093 C44.757,0.100 44.757,0.108 44.757,0.115 C44.786,0.115 44.816,0.115 44.845,0.115 C44.845,0.122 44.845,0.130 44.845,0.137 C44.874,0.137 44.904,0.137 44.933,0.137 C44.933,0.144 44.933,0.152 44.933,0.159 C44.962,0.159 44.992,0.159 45.021,0.159 C45.021,0.166 45.021,0.174 45.021,0.181 C45.043,0.181 45.065,0.181 45.087,0.181 C45.087,0.188 45.087,0.196 45.087,0.203 C45.109,0.203 45.131,0.203 45.153,0.203 C45.153,0.210 45.153,0.218 45.153,0.225 C45.197,0.232 45.241,0.240 45.285,0.247 C45.285,0.254 45.285,0.262 45.285,0.269 C45.300,0.269 45.315,0.269 45.329,0.269 C45.329,0.276 45.329,0.284 45.329,0.291 C45.351,0.291 45.374,0.291 45.396,0.291 C45.396,0.298 45.396,0.306 45.396,0.313 C45.410,0.313 45.425,0.313 45.440,0.313 C45.440,0.320 45.440,0.328 45.440,0.335 C45.462,0.335 45.484,0.335 45.506,0.335 C45.506,0.342 45.506,0.350 45.506,0.357 C45.550,0.372 45.594,0.386 45.638,0.401 C45.638,0.408 45.638,0.416 45.638,0.423 C45.652,0.423 45.667,0.423 45.682,0.423 C45.682,0.431 45.682,0.438 45.682,0.445 C45.696,0.445 45.711,0.445 45.726,0.445 C45.726,0.453 45.726,0.460 45.726,0.467 C45.741,0.467 45.755,0.467 45.770,0.467 C45.770,0.475 45.770,0.482 45.770,0.489 C45.785,0.489 45.799,0.489 45.814,0.489 C45.814,0.497 45.814,0.504 45.814,0.511 C45.829,0.511 45.843,0.511 45.858,0.511 C45.858,0.519 45.858,0.526 45.858,0.533 C45.873,0.533 45.887,0.533 45.902,0.533 C45.902,0.541 45.902,0.548 45.902,0.555 C45.917,0.555 45.931,0.555 45.946,0.555 C45.953,0.570 45.961,0.585 45.968,0.599 C45.997,0.607 46.027,0.614 46.056,0.621 C46.056,0.629 46.056,0.636 46.056,0.643 C46.078,0.651 46.100,0.658 46.122,0.665 C46.130,0.680 46.137,0.695 46.144,0.709 C46.159,0.709 46.174,0.709 46.188,0.709 C46.196,0.724 46.203,0.739 46.210,0.753 C46.225,0.753 46.240,0.753 46.254,0.753 C46.269,0.775 46.284,0.797 46.298,0.819 C46.313,0.819 46.328,0.819 46.342,0.819 C46.357,0.842 46.372,0.864 46.386,0.886 C46.401,0.886 46.416,0.886 46.430,0.886 C46.460,0.922 46.489,0.959 46.519,0.996 C46.533,0.996 46.548,0.996 46.563,0.996 C46.643,1.084 46.724,1.172 46.805,1.260 C46.871,1.319 46.937,1.377 47.003,1.436 C47.003,1.451 47.003,1.465 47.003,1.480 C47.040,1.509 47.076,1.539 47.113,1.568 C47.113,1.583 47.113,1.597 47.113,1.612 C47.135,1.627 47.157,1.642 47.179,1.656 C47.179,1.671 47.179,1.686 47.179,1.700 C47.201,1.715 47.223,1.730 47.245,1.744 C47.245,1.759 47.245,1.774 47.245,1.788 C47.260,1.796 47.275,1.803 47.289,1.810 C47.289,1.825 47.289,1.840 47.289,1.854 C47.304,1.862 47.319,1.869 47.333,1.876 C47.341,1.898 47.348,1.920 47.355,1.942 C47.363,1.942 47.370,1.942 47.377,1.942 C47.385,1.972 47.392,2.001 47.399,2.030 C47.414,2.038 47.429,2.045 47.443,2.053 C47.443,2.067 47.443,2.082 47.443,2.097 C47.451,2.097 47.458,2.097 47.465,2.097 C47.465,2.111 47.465,2.126 47.465,2.141 C47.473,2.141 47.480,2.141 47.487,2.141 C47.487,2.155 47.487,2.170 47.487,2.185 C47.495,2.185 47.502,2.185 47.509,2.185 C47.509,2.199 47.509,2.214 47.509,2.229 C47.517,2.229 47.524,2.229 47.531,2.229 C47.531,2.243 47.531,2.258 47.531,2.273 C47.539,2.273 47.546,2.273 47.553,2.273 C47.553,2.287 47.553,2.302 47.553,2.317 C47.561,2.317 47.568,2.317 47.575,2.317 C47.575,2.331 47.575,2.346 47.575,2.361 C47.583,2.361 47.590,2.361 47.597,2.361 C47.612,2.405 47.627,2.449 47.641,2.493 C47.649,2.493 47.656,2.493 47.664,2.493 C47.664,2.515 47.664,2.537 47.664,2.559 C47.671,2.559 47.678,2.559 47.686,2.559 C47.686,2.574 47.686,2.588 47.686,2.603 C47.693,2.603 47.700,2.603 47.708,2.603 C47.708,2.625 47.708,2.647 47.708,2.669 C47.715,2.669 47.722,2.669 47.730,2.669 C47.730,2.684 47.730,2.698 47.730,2.713 C47.737,2.713 47.744,2.713 47.752,2.713 C47.759,2.757 47.766,2.801 47.774,2.845 C47.781,2.845 47.788,2.845 47.796,2.845 C47.796,2.867 47.796,2.889 47.796,2.911 C47.803,2.911 47.810,2.911 47.818,2.911 C47.818,2.933 47.818,2.955 47.818,2.977 C47.825,2.977 47.832,2.977 47.840,2.977 C47.840,3.007 47.840,3.036 47.840,3.065 C47.847,3.065 47.854,3.065 47.862,3.065 C47.862,3.095 47.862,3.124 47.862,3.153 C47.869,3.153 47.876,3.153 47.884,3.153 C47.884,3.183 47.884,3.212 47.884,3.241 C47.891,3.241 47.898,3.241 47.906,3.241 C47.913,3.315 47.920,3.388 47.928,3.462 C47.935,3.462 47.942,3.462 47.950,3.462 C47.957,3.586 47.964,3.711 47.972,3.836 C48.016,3.995 47.994,4.256 47.994,4.453 C47.994,4.856 47.994,5.260 47.994,5.664 C47.994,7.227 47.994,8.790 47.994,10.353 C47.994,18.844 47.994,27.338 47.994,35.828 C47.994,37.436 47.994,39.043 47.994,40.650 C47.994,41.274 47.994,41.898 47.994,42.522 C47.994,42.815 48.017,43.148 47.950,43.381 C47.950,43.432 47.950,43.484 47.950,43.535 C47.942,43.535 47.935,43.535 47.928,43.535 C47.928,43.572 47.928,43.608 47.928,43.645 C47.920,43.645 47.913,43.645 47.906,43.645 C47.906,43.682 47.906,43.718 47.906,43.755 C47.898,43.755 47.891,43.755 47.884,43.755 C47.884,43.784 47.884,43.814 47.884,43.843 C47.876,43.843 47.869,43.843 47.862,43.843 C47.862,43.872 47.862,43.902 47.862,43.931 C47.854,43.931 47.847,43.931 47.840,43.931 C47.840,43.961 47.840,43.990 47.840,44.019 C47.832,44.019 47.825,44.019 47.818,44.019 C47.818,44.041 47.818,44.063 47.818,44.085 C47.810,44.085 47.803,44.085 47.796,44.085 C47.796,44.107 47.796,44.129 47.796,44.151 C47.788,44.151 47.781,44.151 47.774,44.151 C47.774,44.173 47.774,44.195 47.774,44.217 C47.766,44.217 47.759,44.217 47.752,44.217 C47.752,44.239 47.752,44.261 47.752,44.283 C47.744,44.283 47.737,44.283 47.730,44.283 C47.730,44.298 47.730,44.313 47.730,44.328 C47.722,44.328 47.715,44.328 47.708,44.328 C47.708,44.350 47.708,44.372 47.708,44.394 C47.700,44.394 47.693,44.394 47.686,44.394 C47.686,44.408 47.686,44.423 47.686,44.438 C47.678,44.438 47.671,44.438 47.664,44.438 C47.664,44.460 47.664,44.482 47.664,44.504 C47.656,44.504 47.649,44.504 47.641,44.504 C47.627,44.548 47.612,44.592 47.597,44.636 C47.590,44.636 47.583,44.636 47.575,44.636 C47.575,44.650 47.575,44.665 47.575,44.680 C47.568,44.680 47.561,44.680 47.553,44.680 C47.553,44.695 47.553,44.709 47.553,44.724 C47.546,44.724 47.539,44.724 47.531,44.724 C47.531,44.739 47.531,44.753 47.531,44.768 C47.524,44.768 47.517,44.768 47.509,44.768 C47.509,44.783 47.509,44.797 47.509,44.812 C47.502,44.812 47.495,44.812 47.487,44.812 C47.487,44.827 47.487,44.841 47.487,44.856 C47.480,44.856 47.473,44.856 47.465,44.856 C47.465,44.871 47.465,44.885 47.465,44.900 C47.458,44.900 47.451,44.900 47.443,44.900 C47.443,44.915 47.443,44.929 47.443,44.944 C47.429,44.951 47.414,44.959 47.399,44.966 C47.392,44.995 47.385,45.025 47.377,45.054 C47.370,45.054 47.363,45.054 47.355,45.054 C47.348,45.076 47.341,45.098 47.333,45.120 C47.319,45.128 47.304,45.135 47.289,45.142 C47.289,45.157 47.289,45.172 47.289,45.186 C47.275,45.194 47.260,45.201 47.245,45.208 C47.245,45.223 47.245,45.238 47.245,45.252 C47.223,45.267 47.201,45.282 47.179,45.296 C47.179,45.311 47.179,45.326 47.179,45.340 C47.157,45.355 47.135,45.370 47.113,45.384 C47.113,45.399 47.113,45.414 47.113,45.428 C47.076,45.458 47.040,45.487 47.003,45.517 C47.003,45.531 47.003,45.546 47.003,45.561 C46.922,45.634 46.841,45.707 46.761,45.781 C46.695,45.854 46.629,45.928 46.563,46.001 C46.548,46.001 46.533,46.001 46.519,46.001 C46.489,46.038 46.460,46.074 46.430,46.111 C46.416,46.111 46.401,46.111 46.386,46.111 C46.372,46.133 46.357,46.155 46.342,46.177 C46.328,46.177 46.313,46.177 46.298,46.177 C46.284,46.199 46.269,46.221 46.254,46.243 C46.240,46.243 46.225,46.243 46.210,46.243 C46.203,46.258 46.196,46.272 46.188,46.287 C46.174,46.287 46.159,46.287 46.144,46.287 C46.137,46.302 46.130,46.317 46.122,46.331 C46.100,46.339 46.078,46.346 46.056,46.353 C46.056,46.361 46.056,46.368 46.056,46.375 C46.027,46.383 45.997,46.390 45.968,46.397 C45.961,46.412 45.953,46.427 45.946,46.441 C45.931,46.441 45.917,46.441 45.902,46.441 C45.902,46.449 45.902,46.456 45.902,46.463 C45.887,46.463 45.873,46.463 45.858,46.463 C45.858,46.471 45.858,46.478 45.858,46.485 C45.843,46.485 45.829,46.485 45.814,46.485 C45.814,46.493 45.814,46.500 45.814,46.507 C45.799,46.507 45.785,46.507 45.770,46.507 C45.770,46.515 45.770,46.522 45.770,46.529 C45.755,46.529 45.741,46.529 45.726,46.529 C45.726,46.537 45.726,46.544 45.726,46.551 C45.711,46.551 45.696,46.551 45.682,46.551 C45.682,46.559 45.682,46.566 45.682,46.573 C45.667,46.573 45.652,46.573 45.638,46.573 C45.638,46.581 45.638,46.588 45.638,46.595 C45.594,46.610 45.550,46.625 45.506,46.639 C45.506,46.647 45.506,46.654 45.506,46.661 C45.484,46.661 45.462,46.661 45.440,46.661 C45.440,46.669 45.440,46.676 45.440,46.683 C45.425,46.683 45.410,46.683 45.396,46.683 C45.396,46.691 45.396,46.698 45.396,46.706 C45.359,46.713 45.322,46.720 45.285,46.728 C45.285,46.735 45.285,46.742 45.285,46.750 C45.263,46.750 45.241,46.750 45.219,46.750 C45.219,46.757 45.219,46.764 45.219,46.772 C45.197,46.772 45.175,46.772 45.153,46.772 C45.153,46.779 45.153,46.786 45.153,46.794 C45.131,46.794 45.109,46.794 45.087,46.794 C45.087,46.801 45.087,46.808 45.087,46.816 C45.065,46.816 45.043,46.816 45.021,46.816 C45.021,46.823 45.021,46.830 45.021,46.838 C44.992,46.838 44.962,46.838 44.933,46.838 C44.933,46.845 44.933,46.852 44.933,46.860 C44.874,46.867 44.816,46.874 44.757,46.882 C44.757,46.889 44.757,46.896 44.757,46.904 C44.720,46.904 44.684,46.904 44.647,46.904 C44.647,46.911 44.647,46.918 44.647,46.926 C44.610,46.926 44.573,46.926 44.537,46.926 C44.537,46.933 44.537,46.940 44.537,46.948 C44.485,46.948 44.434,46.948 44.383,46.948 C44.383,46.955 44.383,46.962 44.383,46.970 C44.309,46.970 44.236,46.970 44.162,46.970 C43.979,47.021 43.680,46.992 43.458,46.992 C42.981,46.992 42.504,46.992 42.027,46.992 C40.162,46.992 38.298,46.992 36.434,46.992 C28.390,46.992 20.344,46.992 12.301,46.992 C10.495,46.992 8.689,46.992 6.884,46.992 C6.429,46.992 5.974,46.992 5.519,46.992 C5.303,46.992 5.013,47.020 4.836,46.970 C4.763,46.970 4.689,46.970 4.616,46.970 C4.616,46.962 4.616,46.955 4.616,46.948 C4.565,46.948 4.513,46.948 4.462,46.948 C4.462,46.940 4.462,46.933 4.462,46.926 C4.425,46.926 4.388,46.926 4.352,46.926 C4.352,46.918 4.352,46.911 4.352,46.904 C4.315,46.904 4.278,46.904 4.242,46.904 C4.242,46.896 4.242,46.889 4.242,46.882 C4.183,46.874 4.124,46.867 4.065,46.860 C4.065,46.852 4.065,46.845 4.065,46.838 C4.036,46.838 4.007,46.838 3.977,46.838 C3.977,46.830 3.977,46.823 3.977,46.816 C3.955,46.816 3.933,46.816 3.911,46.816 C3.911,46.808 3.911,46.801 3.911,46.794 C3.889,46.794 3.867,46.794 3.845,46.794 C3.845,46.786 3.845,46.779 3.845,46.772 C3.823,46.772 3.801,46.772 3.779,46.772 C3.779,46.764 3.779,46.757 3.779,46.750 C3.757,46.750 3.735,46.750 3.713,46.750 C3.713,46.742 3.713,46.735 3.713,46.728 C3.676,46.720 3.640,46.713 3.603,46.706 C3.603,46.698 3.603,46.691 3.603,46.683 C3.588,46.683 3.574,46.683 3.559,46.683 C3.559,46.676 3.559,46.669 3.559,46.661 C3.537,46.661 3.515,46.661 3.493,46.661 C3.493,46.654 3.493,46.647 3.493,46.639 C3.449,46.625 3.405,46.610 3.361,46.595 C3.361,46.588 3.361,46.581 3.361,46.573 C3.346,46.573 3.332,46.573 3.317,46.573 C3.317,46.566 3.317,46.559 3.317,46.551 C3.302,46.551 3.287,46.551 3.273,46.551 C3.273,46.544 3.273,46.537 3.273,46.529 C3.258,46.529 3.243,46.529 3.229,46.529 C3.229,46.522 3.229,46.515 3.229,46.507 C3.214,46.507 3.199,46.507 3.185,46.507 C3.185,46.500 3.185,46.493 3.185,46.485 C3.170,46.485 3.155,46.485 3.141,46.485 C3.141,46.478 3.141,46.471 3.141,46.463 C3.126,46.463 3.111,46.463 3.097,46.463 C3.097,46.456 3.097,46.449 3.097,46.441 C3.082,46.441 3.067,46.441 3.053,46.441 C3.045,46.427 3.038,46.412 3.031,46.397 C3.001,46.390 2.972,46.383 2.943,46.375 C2.943,46.368 2.943,46.361 2.943,46.353 C2.920,46.346 2.898,46.339 2.876,46.331 C2.869,46.317 2.862,46.302 2.854,46.287 C2.840,46.287 2.825,46.287 2.810,46.287 C2.803,46.272 2.796,46.258 2.788,46.243 C2.774,46.243 2.759,46.243 2.744,46.243 C2.730,46.221 2.715,46.199 2.700,46.177 C2.686,46.177 2.671,46.177 2.656,46.177 C2.642,46.155 2.627,46.133 2.612,46.111 C2.598,46.111 2.583,46.111 2.568,46.111 C2.539,46.074 2.509,46.038 2.480,46.001 C2.465,46.001 2.451,46.001 2.436,46.001 C2.363,45.920 2.289,45.839 2.216,45.759 C2.142,45.693 2.069,45.627 1.996,45.561 C1.996,45.546 1.996,45.531 1.996,45.517 C1.959,45.487 1.922,45.458 1.886,45.428 C1.886,45.414 1.886,45.399 1.886,45.384 C1.864,45.370 1.842,45.355 1.820,45.340 C1.820,45.326 1.820,45.311 1.820,45.296 C1.798,45.282 1.775,45.267 1.753,45.252 C1.753,45.238 1.753,45.223 1.753,45.208 C1.739,45.201 1.724,45.194 1.709,45.186 C1.709,45.172 1.709,45.157 1.709,45.142 C1.695,45.135 1.680,45.128 1.665,45.120 C1.658,45.098 1.651,45.076 1.643,45.054 C1.636,45.054 1.629,45.054 1.621,45.054 C1.614,45.025 1.607,44.995 1.599,44.966 C1.585,44.959 1.570,44.951 1.555,44.944 C1.555,44.929 1.555,44.915 1.555,44.900 C1.548,44.900 1.541,44.900 1.533,44.900 C1.533,44.885 1.533,44.871 1.533,44.856 C1.526,44.856 1.519,44.856 1.511,44.856 C1.511,44.841 1.511,44.827 1.511,44.812 C1.504,44.812 1.497,44.812 1.489,44.812 C1.489,44.797 1.489,44.783 1.489,44.768 C1.482,44.768 1.475,44.768 1.467,44.768 C1.467,44.753 1.467,44.739 1.467,44.724 C1.460,44.724 1.453,44.724 1.445,44.724 C1.445,44.709 1.445,44.695 1.445,44.680 C1.438,44.680 1.431,44.680 1.423,44.680 C1.423,44.665 1.423,44.650 1.423,44.636 C1.416,44.636 1.409,44.636 1.401,44.636 C1.386,44.592 1.372,44.548 1.357,44.504 C1.350,44.504 1.342,44.504 1.335,44.504 C1.335,44.482 1.335,44.460 1.335,44.438 C1.328,44.438 1.320,44.438 1.313,44.438 C1.313,44.423 1.313,44.408 1.313,44.394 C1.306,44.394 1.298,44.394 1.291,44.394 C1.291,44.372 1.291,44.350 1.291,44.328 C1.284,44.328 1.276,44.328 1.269,44.328 C1.269,44.313 1.269,44.298 1.269,44.283 C1.262,44.283 1.254,44.283 1.247,44.283 C1.240,44.239 1.232,44.195 1.225,44.151 C1.218,44.151 1.210,44.151 1.203,44.151 C1.203,44.129 1.203,44.107 1.203,44.085 C1.196,44.085 1.188,44.085 1.181,44.085 C1.181,44.063 1.181,44.041 1.181,44.019 C1.174,44.019 1.166,44.019 1.159,44.019 C1.159,43.990 1.159,43.961 1.159,43.931 C1.152,43.931 1.144,43.931 1.137,43.931 C1.137,43.902 1.137,43.872 1.137,43.843 C1.130,43.843 1.122,43.843 1.115,43.843 C1.115,43.814 1.115,43.784 1.115,43.755 C1.108,43.755 1.100,43.755 1.093,43.755 C1.086,43.682 1.078,43.608 1.071,43.535 C1.064,43.535 1.056,43.535 1.049,43.535 C1.049,43.484 1.049,43.432 1.049,43.381 C0.977,43.131 1.005,42.768 1.005,42.456 C1.005,41.759 1.005,41.061 1.005,40.364 C1.005,38.016 1.005,35.667 1.005,33.318 C1.005,26.156 1.005,18.991 1.005,11.829 C1.005,9.855 1.005,7.880 1.005,5.906 C1.005,5.216 1.005,4.526 1.005,3.836 C1.012,3.836 1.019,3.836 1.027,3.836 C1.027,3.763 1.027,3.689 1.027,3.616 C1.034,3.616 1.042,3.616 1.049,3.616 C1.049,3.564 1.049,3.513 1.049,3.462 C1.056,3.462 1.064,3.462 1.071,3.462 C1.071,3.425 1.071,3.388 1.071,3.352 C1.078,3.352 1.086,3.352 1.093,3.352 C1.093,3.315 1.093,3.278 1.093,3.241 C1.100,3.241 1.108,3.241 1.115,3.241 C1.115,3.212 1.115,3.183 1.115,3.153 C1.122,3.153 1.130,3.153 1.137,3.153 C1.137,3.124 1.137,3.095 1.137,3.065 C1.144,3.065 1.152,3.065 1.159,3.065 C1.159,3.036 1.159,3.007 1.159,2.977 C1.166,2.977 1.174,2.977 1.181,2.977 C1.181,2.955 1.181,2.933 1.181,2.911 C1.188,2.911 1.196,2.911 1.203,2.911 C1.203,2.889 1.203,2.867 1.203,2.845 C1.210,2.845 1.218,2.845 1.225,2.845 C1.225,2.823 1.225,2.801 1.225,2.779 C1.232,2.779 1.240,2.779 1.247,2.779 C1.247,2.757 1.247,2.735 1.247,2.713 C1.254,2.713 1.262,2.713 1.269,2.713 C1.269,2.698 1.269,2.684 1.269,2.669 C1.276,2.669 1.284,2.669 1.291,2.669 C1.291,2.647 1.291,2.625 1.291,2.603 C1.298,2.603 1.306,2.603 1.313,2.603 C1.313,2.588 1.313,2.574 1.313,2.559 C1.320,2.559 1.328,2.559 1.335,2.559 C1.335,2.537 1.335,2.515 1.335,2.493 C1.342,2.493 1.350,2.493 1.357,2.493 C1.372,2.449 1.386,2.405 1.401,2.361 C1.409,2.361 1.416,2.361 1.423,2.361 C1.423,2.346 1.423,2.331 1.423,2.317 C1.431,2.317 1.438,2.317 1.445,2.317 C1.445,2.302 1.445,2.287 1.445,2.273 C1.453,2.273 1.460,2.273 1.467,2.273 C1.467,2.258 1.467,2.243 1.467,2.229 C1.475,2.229 1.482,2.229 1.489,2.229 C1.489,2.214 1.489,2.199 1.489,2.185 C1.497,2.185 1.504,2.185 1.511,2.185 C1.511,2.170 1.511,2.155 1.511,2.141 C1.519,2.141 1.526,2.141 1.533,2.141 C1.533,2.126 1.533,2.111 1.533,2.097 C1.541,2.097 1.548,2.097 1.555,2.097 C1.555,2.082 1.555,2.067 1.555,2.053 C1.570,2.045 1.585,2.038 1.599,2.030 C1.607,2.001 1.614,1.972 1.621,1.942 C1.636,1.935 1.651,1.928 1.665,1.920 C1.665,1.906 1.665,1.891 1.665,1.876 C1.673,1.876 1.680,1.876 1.687,1.876 C1.695,1.854 1.702,1.832 1.709,1.810 C1.724,1.803 1.739,1.796 1.753,1.788 C1.753,1.774 1.753,1.759 1.753,1.744 C1.775,1.730 1.798,1.715 1.820,1.700 C1.820,1.686 1.820,1.671 1.820,1.656 C1.834,1.649 1.849,1.642 1.864,1.634 C1.871,1.612 1.878,1.590 1.886,1.568 C1.922,1.539 1.959,1.509 1.996,1.480 C1.996,1.465 1.996,1.451 1.996,1.436 C2.084,1.355 2.172,1.275 2.260,1.194 C2.319,1.128 2.377,1.062 2.436,0.996 C2.451,0.996 2.465,0.996 2.480,0.996 C2.509,0.959 2.539,0.922 2.568,0.886 C2.583,0.886 2.598,0.886 2.612,0.886 C2.627,0.864 2.642,0.842 2.656,0.819 C2.671,0.819 2.686,0.819 2.700,0.819 C2.715,0.797 2.730,0.775 2.744,0.753 C2.759,0.753 2.774,0.753 2.788,0.753 C2.796,0.739 2.803,0.724 2.810,0.709 C2.832,0.702 2.854,0.695 2.876,0.687 C2.876,0.680 2.876,0.673 2.876,0.665 C2.891,0.665 2.906,0.665 2.920,0.665 C2.928,0.651 2.935,0.636 2.943,0.621 C2.972,0.614 3.001,0.607 3.031,0.599 C3.038,0.585 3.045,0.570 3.053,0.555 C3.067,0.555 3.082,0.555 3.097,0.555 C3.097,0.548 3.097,0.541 3.097,0.533 C3.111,0.533 3.126,0.533 3.141,0.533 C3.141,0.526 3.141,0.519 3.141,0.511 C3.155,0.511 3.170,0.511 3.185,0.511 C3.185,0.504 3.185,0.497 3.185,0.489 C3.199,0.489 3.214,0.489 3.229,0.489 C3.229,0.482 3.229,0.475 3.229,0.467 C3.243,0.467 3.258,0.467 3.273,0.467 C3.273,0.460 3.273,0.453 3.273,0.445 C3.287,0.445 3.302,0.445 3.317,0.445 C3.317,0.438 3.317,0.431 3.317,0.423 C3.332,0.423 3.346,0.423 3.361,0.423 C3.361,0.416 3.361,0.408 3.361,0.401 C3.405,0.386 3.449,0.372 3.493,0.357 C3.493,0.350 3.493,0.342 3.493,0.335 C3.515,0.335 3.537,0.335 3.559,0.335 C3.559,0.328 3.559,0.320 3.559,0.313 C3.574,0.313 3.588,0.313 3.603,0.313 C3.603,0.306 3.603,0.298 3.603,0.291 C3.640,0.284 3.676,0.276 3.713,0.269 C3.713,0.262 3.713,0.254 3.713,0.247 C3.926,0.188 4.139,0.130 4.352,0.071 C4.440,0.064 4.528,0.056 4.616,0.049 C4.616,0.042 4.616,0.034 4.616,0.027 C4.694,0.005 4.786,0.049 4.836,0.005 ZM3.779,10.640 C17.591,10.640 31.407,10.640 45.219,10.640 C45.219,8.864 45.219,7.087 45.219,5.311 C45.219,4.834 45.219,4.357 45.219,3.880 C45.150,3.649 45.059,3.439 44.933,3.264 C44.889,3.227 44.845,3.190 44.801,3.153 C44.779,3.124 44.757,3.095 44.735,3.065 C44.560,2.940 44.350,2.848 44.118,2.779 C43.465,2.779 42.812,2.779 42.159,2.779 C40.199,2.779 38.239,2.779 36.280,2.779 C28.662,2.779 21.042,2.779 13.424,2.779 C11.288,2.779 9.152,2.779 7.016,2.779 C6.304,2.779 5.592,2.779 4.880,2.779 C4.649,2.848 4.439,2.939 4.264,3.065 C4.242,3.095 4.220,3.124 4.198,3.153 C4.154,3.190 4.110,3.227 4.065,3.264 C3.940,3.439 3.848,3.649 3.779,3.880 C3.779,4.357 3.779,4.834 3.779,5.311 C3.779,7.087 3.779,8.864 3.779,10.640 ZM7.809,5.509 C7.963,5.517 8.117,5.524 8.271,5.531 C8.424,5.579 8.633,5.648 8.756,5.730 C8.770,5.752 8.785,5.774 8.800,5.796 C8.814,5.796 8.829,5.796 8.844,5.796 C8.888,5.847 8.932,5.898 8.976,5.950 C9.012,5.979 9.049,6.008 9.086,6.038 C9.086,6.052 9.086,6.067 9.086,6.082 C9.101,6.089 9.115,6.097 9.130,6.104 C9.130,6.119 9.130,6.133 9.130,6.148 C9.145,6.155 9.159,6.163 9.174,6.170 C9.189,6.214 9.203,6.258 9.218,6.302 C9.225,6.302 9.233,6.302 9.240,6.302 C9.247,6.331 9.255,6.361 9.262,6.390 C9.269,6.390 9.277,6.390 9.284,6.390 C9.291,6.441 9.299,6.493 9.306,6.544 C9.313,6.544 9.321,6.544 9.328,6.544 C9.348,6.603 9.394,6.930 9.372,7.007 C9.365,7.007 9.357,7.007 9.350,7.007 C9.350,7.058 9.350,7.109 9.350,7.161 C9.343,7.161 9.335,7.161 9.328,7.161 C9.328,7.190 9.328,7.219 9.328,7.249 C9.321,7.249 9.313,7.249 9.306,7.249 C9.306,7.271 9.306,7.293 9.306,7.315 C9.299,7.315 9.291,7.315 9.284,7.315 C9.284,7.337 9.284,7.359 9.284,7.381 C9.277,7.381 9.269,7.381 9.262,7.381 C9.262,7.403 9.262,7.425 9.262,7.447 C9.255,7.447 9.247,7.447 9.240,7.447 C9.233,7.476 9.225,7.506 9.218,7.535 C9.211,7.535 9.203,7.535 9.196,7.535 C9.196,7.550 9.196,7.564 9.196,7.579 C9.181,7.586 9.167,7.594 9.152,7.601 C9.152,7.616 9.152,7.630 9.152,7.645 C9.137,7.652 9.123,7.660 9.108,7.667 C9.108,7.682 9.108,7.697 9.108,7.711 C9.086,7.726 9.064,7.741 9.042,7.755 C9.042,7.770 9.042,7.785 9.042,7.799 C8.998,7.836 8.954,7.873 8.910,7.909 C8.902,7.924 8.895,7.939 8.888,7.953 C8.873,7.953 8.858,7.953 8.844,7.953 C8.829,7.975 8.814,7.997 8.800,8.019 C8.785,8.019 8.770,8.019 8.756,8.019 C8.748,8.034 8.741,8.049 8.734,8.063 C8.719,8.063 8.704,8.063 8.690,8.063 C8.682,8.078 8.675,8.093 8.668,8.108 C8.653,8.108 8.638,8.108 8.623,8.108 C8.623,8.115 8.623,8.122 8.623,8.130 C8.609,8.130 8.594,8.130 8.579,8.130 C8.579,8.137 8.579,8.144 8.579,8.152 C8.557,8.152 8.535,8.152 8.513,8.152 C8.513,8.159 8.513,8.166 8.513,8.174 C8.499,8.174 8.484,8.174 8.469,8.174 C8.469,8.181 8.469,8.188 8.469,8.196 C8.447,8.196 8.425,8.196 8.403,8.196 C8.403,8.203 8.403,8.210 8.403,8.218 C8.381,8.218 8.359,8.218 8.337,8.218 C8.337,8.225 8.337,8.232 8.337,8.240 C8.301,8.240 8.264,8.240 8.227,8.240 C8.227,8.247 8.227,8.254 8.227,8.262 C8.168,8.262 8.110,8.262 8.051,8.262 C8.044,8.262 8.036,8.262 8.029,8.262 C8.029,8.269 8.029,8.276 8.029,8.284 C7.934,8.276 7.838,8.269 7.743,8.262 C7.743,8.254 7.743,8.247 7.743,8.240 C7.706,8.240 7.669,8.240 7.633,8.240 C7.633,8.232 7.633,8.225 7.633,8.218 C7.611,8.218 7.589,8.218 7.567,8.218 C7.567,8.210 7.567,8.203 7.567,8.196 C7.545,8.196 7.523,8.196 7.500,8.196 C7.500,8.188 7.500,8.181 7.500,8.174 C7.434,8.152 7.368,8.130 7.302,8.108 C7.295,8.093 7.288,8.078 7.280,8.063 C7.251,8.056 7.222,8.049 7.192,8.041 C7.178,8.019 7.163,7.997 7.148,7.975 C7.133,7.975 7.119,7.975 7.104,7.975 C7.089,7.953 7.075,7.931 7.060,7.909 C7.009,7.865 6.957,7.821 6.906,7.777 C6.906,7.763 6.906,7.748 6.906,7.733 C6.884,7.719 6.862,7.704 6.840,7.689 C6.840,7.675 6.840,7.660 6.840,7.645 C6.825,7.638 6.811,7.630 6.796,7.623 C6.781,7.579 6.767,7.535 6.752,7.491 C6.744,7.491 6.737,7.491 6.730,7.491 C6.730,7.476 6.730,7.462 6.730,7.447 C6.722,7.447 6.715,7.447 6.708,7.447 C6.708,7.425 6.708,7.403 6.708,7.381 C6.700,7.381 6.693,7.381 6.686,7.381 C6.686,7.366 6.686,7.352 6.686,7.337 C6.678,7.337 6.671,7.337 6.664,7.337 C6.656,7.278 6.649,7.219 6.642,7.161 C6.615,7.076 6.560,6.897 6.598,6.764 C6.605,6.764 6.612,6.764 6.620,6.764 C6.620,6.713 6.620,6.662 6.620,6.610 C6.627,6.610 6.634,6.610 6.642,6.610 C6.642,6.581 6.642,6.552 6.642,6.522 C6.649,6.522 6.656,6.522 6.664,6.522 C6.664,6.500 6.664,6.478 6.664,6.456 C6.671,6.456 6.678,6.456 6.686,6.456 C6.686,6.434 6.686,6.412 6.686,6.390 C6.693,6.390 6.700,6.390 6.708,6.390 C6.708,6.375 6.708,6.361 6.708,6.346 C6.715,6.346 6.722,6.346 6.730,6.346 C6.737,6.309 6.744,6.273 6.752,6.236 C6.767,6.229 6.781,6.221 6.796,6.214 C6.803,6.185 6.811,6.155 6.818,6.126 C6.840,6.111 6.862,6.097 6.884,6.082 C6.884,6.067 6.884,6.052 6.884,6.038 C6.913,6.016 6.943,5.994 6.972,5.972 C7.031,5.906 7.089,5.840 7.148,5.774 C7.163,5.774 7.178,5.774 7.192,5.774 C7.200,5.759 7.207,5.744 7.214,5.730 C7.229,5.730 7.244,5.730 7.258,5.730 C7.266,5.715 7.273,5.700 7.280,5.686 C7.310,5.678 7.339,5.671 7.368,5.664 C7.368,5.656 7.368,5.649 7.368,5.641 C7.383,5.641 7.398,5.641 7.412,5.641 C7.412,5.634 7.412,5.627 7.412,5.619 C7.545,5.583 7.677,5.546 7.809,5.509 ZM13.314,5.509 C13.468,5.517 13.622,5.524 13.776,5.531 C13.929,5.579 14.138,5.648 14.260,5.730 C14.275,5.752 14.290,5.774 14.304,5.796 C14.319,5.796 14.334,5.796 14.348,5.796 C14.392,5.847 14.437,5.898 14.481,5.950 C14.517,5.979 14.554,6.008 14.591,6.038 C14.591,6.052 14.591,6.067 14.591,6.082 C14.605,6.089 14.620,6.097 14.635,6.104 C14.635,6.119 14.635,6.133 14.635,6.148 C14.649,6.155 14.664,6.163 14.679,6.170 C14.693,6.214 14.708,6.258 14.723,6.302 C14.730,6.302 14.737,6.302 14.745,6.302 C14.752,6.331 14.759,6.361 14.767,6.390 C14.774,6.390 14.782,6.390 14.789,6.390 C14.789,6.412 14.789,6.434 14.789,6.456 C14.796,6.456 14.804,6.456 14.811,6.456 C14.811,6.478 14.811,6.500 14.811,6.522 C14.818,6.522 14.826,6.522 14.833,6.522 C14.833,6.559 14.833,6.596 14.833,6.632 C14.852,6.695 14.905,6.908 14.877,7.007 C14.870,7.007 14.862,7.007 14.855,7.007 C14.855,7.058 14.855,7.109 14.855,7.161 C14.848,7.161 14.840,7.161 14.833,7.161 C14.833,7.190 14.833,7.219 14.833,7.249 C14.826,7.249 14.818,7.249 14.811,7.249 C14.811,7.271 14.811,7.293 14.811,7.315 C14.804,7.315 14.796,7.315 14.789,7.315 C14.789,7.337 14.789,7.359 14.789,7.381 C14.782,7.381 14.774,7.381 14.767,7.381 C14.767,7.403 14.767,7.425 14.767,7.447 C14.759,7.447 14.752,7.447 14.745,7.447 C14.737,7.476 14.730,7.506 14.723,7.535 C14.715,7.535 14.708,7.535 14.701,7.535 C14.701,7.550 14.701,7.564 14.701,7.579 C14.686,7.586 14.671,7.594 14.657,7.601 C14.649,7.630 14.642,7.660 14.635,7.689 C14.605,7.711 14.576,7.733 14.547,7.755 C14.346,8.034 14.102,8.155 13.732,8.262 C13.673,8.262 13.614,8.262 13.556,8.262 C13.548,8.262 13.541,8.262 13.534,8.262 C13.534,8.269 13.534,8.276 13.534,8.284 C13.438,8.276 13.343,8.269 13.247,8.262 C13.247,8.254 13.247,8.247 13.247,8.240 C13.211,8.240 13.174,8.240 13.137,8.240 C13.137,8.232 13.137,8.225 13.137,8.218 C13.115,8.218 13.093,8.218 13.071,8.218 C13.071,8.210 13.071,8.203 13.071,8.196 C13.049,8.196 13.027,8.196 13.005,8.196 C13.005,8.188 13.005,8.181 13.005,8.174 C12.939,8.152 12.873,8.130 12.807,8.108 C12.800,8.093 12.792,8.078 12.785,8.063 C12.756,8.056 12.726,8.049 12.697,8.041 C12.682,8.019 12.668,7.997 12.653,7.975 C12.638,7.975 12.624,7.975 12.609,7.975 C12.594,7.953 12.580,7.931 12.565,7.909 C12.514,7.865 12.462,7.821 12.411,7.777 C12.411,7.763 12.411,7.748 12.411,7.733 C12.389,7.719 12.367,7.704 12.345,7.689 C12.345,7.675 12.345,7.660 12.345,7.645 C12.330,7.638 12.315,7.630 12.301,7.623 C12.286,7.579 12.271,7.535 12.257,7.491 C12.249,7.491 12.242,7.491 12.235,7.491 C12.235,7.476 12.235,7.462 12.235,7.447 C12.227,7.447 12.220,7.447 12.213,7.447 C12.213,7.425 12.213,7.403 12.213,7.381 C12.205,7.381 12.198,7.381 12.191,7.381 C12.191,7.366 12.191,7.352 12.191,7.337 C12.183,7.337 12.176,7.337 12.169,7.337 C12.161,7.278 12.154,7.219 12.147,7.161 C12.120,7.076 12.065,6.897 12.102,6.764 C12.110,6.764 12.117,6.764 12.125,6.764 C12.125,6.713 12.125,6.662 12.125,6.610 C12.132,6.610 12.139,6.610 12.147,6.610 C12.147,6.581 12.147,6.552 12.147,6.522 C12.154,6.522 12.161,6.522 12.169,6.522 C12.169,6.500 12.169,6.478 12.169,6.456 C12.176,6.456 12.183,6.456 12.191,6.456 C12.191,6.434 12.191,6.412 12.191,6.390 C12.198,6.390 12.205,6.390 12.213,6.390 C12.213,6.375 12.213,6.361 12.213,6.346 C12.220,6.346 12.227,6.346 12.235,6.346 C12.235,6.324 12.235,6.302 12.235,6.280 C12.242,6.280 12.249,6.280 12.257,6.280 C12.257,6.265 12.257,6.251 12.257,6.236 C12.271,6.229 12.286,6.221 12.301,6.214 C12.308,6.185 12.315,6.155 12.323,6.126 C12.345,6.111 12.367,6.097 12.389,6.082 C12.389,6.067 12.389,6.052 12.389,6.038 C12.447,5.986 12.506,5.935 12.565,5.884 C12.594,5.847 12.624,5.810 12.653,5.774 C12.668,5.774 12.682,5.774 12.697,5.774 C12.704,5.759 12.712,5.744 12.719,5.730 C12.748,5.722 12.778,5.715 12.807,5.708 C12.814,5.693 12.822,5.678 12.829,5.664 C12.844,5.664 12.858,5.664 12.873,5.664 C12.873,5.656 12.873,5.649 12.873,5.641 C12.888,5.641 12.903,5.641 12.917,5.641 C12.917,5.634 12.917,5.627 12.917,5.619 C13.049,5.583 13.181,5.546 13.314,5.509 ZM18.818,5.509 C18.972,5.517 19.127,5.524 19.281,5.531 C19.435,5.581 19.641,5.647 19.765,5.730 C19.780,5.752 19.795,5.774 19.809,5.796 C19.824,5.796 19.839,5.796 19.853,5.796 C19.897,5.847 19.941,5.898 19.985,5.950 C20.022,5.979 20.059,6.008 20.095,6.038 C20.095,6.052 20.095,6.067 20.095,6.082 C20.117,6.097 20.140,6.111 20.162,6.126 C20.162,6.141 20.162,6.155 20.162,6.170 C20.169,6.170 20.176,6.170 20.184,6.170 C20.184,6.185 20.184,6.199 20.184,6.214 C20.191,6.214 20.198,6.214 20.206,6.214 C20.206,6.229 20.206,6.243 20.206,6.258 C20.213,6.258 20.220,6.258 20.228,6.258 C20.228,6.273 20.228,6.287 20.228,6.302 C20.235,6.302 20.242,6.302 20.250,6.302 C20.257,6.331 20.264,6.361 20.272,6.390 C20.279,6.390 20.286,6.390 20.294,6.390 C20.294,6.412 20.294,6.434 20.294,6.456 C20.301,6.456 20.308,6.456 20.316,6.456 C20.316,6.478 20.316,6.500 20.316,6.522 C20.323,6.522 20.330,6.522 20.338,6.522 C20.338,6.559 20.338,6.596 20.338,6.632 C20.356,6.695 20.410,6.908 20.382,7.007 C20.374,7.007 20.367,7.007 20.360,7.007 C20.360,7.058 20.360,7.109 20.360,7.161 C20.352,7.161 20.345,7.161 20.338,7.161 C20.338,7.190 20.338,7.219 20.338,7.249 C20.330,7.249 20.323,7.249 20.316,7.249 C20.316,7.271 20.316,7.293 20.316,7.315 C20.308,7.315 20.301,7.315 20.294,7.315 C20.294,7.337 20.294,7.359 20.294,7.381 C20.286,7.381 20.279,7.381 20.272,7.381 C20.272,7.403 20.272,7.425 20.272,7.447 C20.264,7.447 20.257,7.447 20.250,7.447 C20.242,7.476 20.235,7.506 20.228,7.535 C20.220,7.535 20.213,7.535 20.206,7.535 C20.206,7.550 20.206,7.564 20.206,7.579 C20.191,7.586 20.176,7.594 20.162,7.601 C20.154,7.630 20.147,7.660 20.140,7.689 C20.110,7.711 20.081,7.733 20.051,7.755 C19.851,8.034 19.607,8.155 19.237,8.262 C19.178,8.262 19.119,8.262 19.061,8.262 C19.030,8.267 19.069,8.276 19.039,8.284 C18.943,8.276 18.848,8.269 18.752,8.262 C18.752,8.254 18.752,8.247 18.752,8.240 C18.716,8.240 18.679,8.240 18.642,8.240 C18.642,8.232 18.642,8.225 18.642,8.218 C18.620,8.218 18.598,8.218 18.576,8.218 C18.576,8.210 18.576,8.203 18.576,8.196 C18.554,8.196 18.532,8.196 18.510,8.196 C18.510,8.188 18.510,8.181 18.510,8.174 C18.444,8.152 18.378,8.130 18.312,8.108 C18.305,8.093 18.297,8.078 18.290,8.063 C18.275,8.063 18.261,8.063 18.246,8.063 C18.239,8.049 18.231,8.034 18.224,8.019 C18.209,8.019 18.194,8.019 18.180,8.019 C18.165,7.997 18.150,7.975 18.136,7.953 C18.121,7.953 18.106,7.953 18.092,7.953 C18.077,7.931 18.062,7.909 18.048,7.887 C18.004,7.851 17.960,7.814 17.916,7.777 C17.916,7.763 17.916,7.748 17.916,7.733 C17.894,7.719 17.872,7.704 17.850,7.689 C17.850,7.675 17.850,7.660 17.850,7.645 C17.835,7.638 17.820,7.630 17.805,7.623 C17.791,7.579 17.776,7.535 17.761,7.491 C17.754,7.491 17.747,7.491 17.739,7.491 C17.739,7.476 17.739,7.462 17.739,7.447 C17.732,7.447 17.725,7.447 17.717,7.447 C17.717,7.425 17.717,7.403 17.717,7.381 C17.710,7.381 17.703,7.381 17.695,7.381 C17.695,7.366 17.695,7.352 17.695,7.337 C17.688,7.337 17.681,7.337 17.673,7.337 C17.673,7.308 17.673,7.278 17.673,7.249 C17.666,7.249 17.659,7.249 17.651,7.249 C17.651,7.219 17.651,7.190 17.651,7.161 C17.628,7.088 17.575,6.878 17.607,6.764 C17.615,6.764 17.622,6.764 17.629,6.764 C17.629,6.713 17.629,6.662 17.629,6.610 C17.637,6.610 17.644,6.610 17.651,6.610 C17.651,6.581 17.651,6.552 17.651,6.522 C17.659,6.522 17.666,6.522 17.673,6.522 C17.673,6.500 17.673,6.478 17.673,6.456 C17.681,6.456 17.688,6.456 17.695,6.456 C17.695,6.434 17.695,6.412 17.695,6.390 C17.703,6.390 17.710,6.390 17.717,6.390 C17.717,6.375 17.717,6.361 17.717,6.346 C17.725,6.346 17.732,6.346 17.739,6.346 C17.739,6.324 17.739,6.302 17.739,6.280 C17.747,6.280 17.754,6.280 17.761,6.280 C17.761,6.265 17.761,6.251 17.761,6.236 C17.776,6.229 17.791,6.221 17.805,6.214 C17.813,6.185 17.820,6.155 17.827,6.126 C17.850,6.111 17.872,6.097 17.894,6.082 C17.894,6.067 17.894,6.052 17.894,6.038 C17.952,5.986 18.011,5.935 18.070,5.884 C18.099,5.847 18.128,5.810 18.158,5.774 C18.172,5.774 18.187,5.774 18.202,5.774 C18.209,5.759 18.216,5.744 18.224,5.730 C18.253,5.722 18.283,5.715 18.312,5.708 C18.319,5.693 18.327,5.678 18.334,5.664 C18.349,5.664 18.363,5.664 18.378,5.664 C18.378,5.656 18.378,5.649 18.378,5.641 C18.393,5.641 18.407,5.641 18.422,5.641 C18.422,5.634 18.422,5.627 18.422,5.619 C18.554,5.583 18.686,5.546 18.818,5.509 ZM35.355,5.509 C36.852,5.509 38.350,5.509 39.847,5.509 C40.324,5.509 40.801,5.509 41.278,5.509 C41.491,5.571 41.708,5.620 41.872,5.730 C41.880,5.744 41.887,5.759 41.894,5.774 C41.909,5.774 41.924,5.774 41.939,5.774 C41.961,5.803 41.983,5.832 42.005,5.862 C42.019,5.862 42.034,5.862 42.049,5.862 C42.071,5.891 42.093,5.920 42.115,5.950 C42.122,5.950 42.129,5.950 42.137,5.950 C42.137,5.964 42.137,5.979 42.137,5.994 C42.166,6.016 42.195,6.038 42.225,6.060 C42.225,6.075 42.225,6.089 42.225,6.104 C42.239,6.111 42.254,6.119 42.269,6.126 C42.269,6.141 42.269,6.155 42.269,6.170 C42.283,6.177 42.298,6.185 42.313,6.192 C42.313,6.207 42.313,6.221 42.313,6.236 C42.320,6.236 42.328,6.236 42.335,6.236 C42.342,6.265 42.350,6.295 42.357,6.324 C42.364,6.324 42.372,6.324 42.379,6.324 C42.379,6.346 42.379,6.368 42.379,6.390 C42.386,6.390 42.394,6.390 42.401,6.390 C42.401,6.405 42.401,6.419 42.401,6.434 C42.408,6.434 42.416,6.434 42.423,6.434 C42.423,6.463 42.423,6.493 42.423,6.522 C42.430,6.522 42.438,6.522 42.445,6.522 C42.445,6.544 42.445,6.566 42.445,6.588 C42.452,6.588 42.460,6.588 42.467,6.588 C42.467,6.632 42.467,6.676 42.467,6.720 C42.474,6.720 42.482,6.720 42.489,6.720 C42.482,6.874 42.474,7.029 42.467,7.183 C42.355,7.545 42.217,7.778 41.939,7.975 C41.924,7.997 41.909,8.019 41.894,8.041 C41.880,8.041 41.865,8.041 41.850,8.041 C41.843,8.056 41.836,8.071 41.828,8.086 C41.784,8.100 41.740,8.115 41.696,8.130 C41.696,8.137 41.696,8.144 41.696,8.152 C41.682,8.152 41.667,8.152 41.652,8.152 C41.652,8.159 41.652,8.166 41.652,8.174 C41.289,8.333 40.647,8.284 40.133,8.284 C39.135,8.284 38.136,8.284 37.138,8.284 C36.771,8.284 36.404,8.284 36.037,8.284 C35.854,8.284 35.611,8.303 35.465,8.262 C35.362,8.254 35.259,8.247 35.157,8.240 C35.157,8.232 35.157,8.225 35.157,8.218 C35.113,8.210 35.069,8.203 35.024,8.196 C35.024,8.188 35.024,8.181 35.024,8.174 C35.010,8.174 34.995,8.174 34.980,8.174 C34.980,8.166 34.980,8.159 34.980,8.152 C34.958,8.152 34.936,8.152 34.914,8.152 C34.914,8.144 34.914,8.137 34.914,8.130 C34.900,8.130 34.885,8.130 34.870,8.130 C34.870,8.122 34.870,8.115 34.870,8.108 C34.856,8.108 34.841,8.108 34.826,8.108 C34.826,8.100 34.826,8.093 34.826,8.086 C34.804,8.078 34.782,8.071 34.760,8.063 C34.753,8.049 34.746,8.034 34.738,8.019 C34.724,8.019 34.709,8.019 34.694,8.019 C34.680,7.997 34.665,7.975 34.650,7.953 C34.635,7.953 34.621,7.953 34.606,7.953 C34.599,7.939 34.591,7.924 34.584,7.909 C34.540,7.873 34.496,7.836 34.452,7.799 C34.452,7.785 34.452,7.770 34.452,7.755 C34.423,7.733 34.393,7.711 34.364,7.689 C34.357,7.660 34.349,7.630 34.342,7.601 C34.327,7.594 34.313,7.586 34.298,7.579 C34.298,7.564 34.298,7.550 34.298,7.535 C34.291,7.535 34.283,7.535 34.276,7.535 C34.269,7.506 34.261,7.476 34.254,7.447 C34.246,7.447 34.239,7.447 34.232,7.447 C34.232,7.425 34.232,7.403 34.232,7.381 C34.142,7.157 34.082,6.907 34.166,6.632 C34.173,6.574 34.180,6.515 34.188,6.456 C34.195,6.456 34.202,6.456 34.210,6.456 C34.210,6.434 34.210,6.412 34.210,6.390 C34.217,6.390 34.224,6.390 34.232,6.390 C34.246,6.346 34.261,6.302 34.276,6.258 C34.283,6.258 34.291,6.258 34.298,6.258 C34.305,6.229 34.313,6.199 34.320,6.170 C34.335,6.163 34.349,6.155 34.364,6.148 C34.364,6.133 34.364,6.119 34.364,6.104 C34.379,6.097 34.393,6.089 34.408,6.082 C34.408,6.067 34.408,6.052 34.408,6.038 C34.437,6.016 34.467,5.994 34.496,5.972 C34.547,5.913 34.599,5.854 34.650,5.796 C34.665,5.796 34.680,5.796 34.694,5.796 C34.709,5.774 34.724,5.752 34.738,5.730 C34.768,5.722 34.797,5.715 34.826,5.708 C34.834,5.693 34.841,5.678 34.848,5.664 C34.863,5.664 34.878,5.664 34.892,5.664 C34.892,5.656 34.892,5.649 34.892,5.641 C34.907,5.641 34.922,5.641 34.936,5.641 C34.936,5.634 34.936,5.627 34.936,5.619 C34.958,5.619 34.980,5.619 35.002,5.619 C35.002,5.612 35.002,5.605 35.002,5.597 C35.024,5.597 35.047,5.597 35.069,5.597 C35.069,5.590 35.069,5.583 35.069,5.575 C35.091,5.575 35.113,5.575 35.135,5.575 C35.135,5.568 35.135,5.561 35.135,5.553 C35.164,5.553 35.193,5.553 35.223,5.553 C35.223,5.546 35.223,5.539 35.223,5.531 C35.267,5.531 35.311,5.531 35.355,5.531 C35.355,5.524 35.355,5.517 35.355,5.509 ZM3.779,13.414 C3.779,20.716 3.779,28.020 3.779,35.322 C3.779,37.267 3.779,39.212 3.779,41.157 C3.779,41.605 3.779,42.052 3.779,42.500 C3.779,42.706 3.779,42.911 3.779,43.117 C3.787,43.117 3.794,43.117 3.801,43.117 C3.809,43.175 3.816,43.234 3.823,43.293 C3.831,43.293 3.838,43.293 3.845,43.293 C3.853,43.329 3.860,43.366 3.867,43.403 C3.875,43.403 3.882,43.403 3.889,43.403 C3.897,43.432 3.904,43.461 3.911,43.491 C3.919,43.491 3.926,43.491 3.933,43.491 C3.941,43.520 3.948,43.550 3.955,43.579 C3.970,43.586 3.985,43.594 3.999,43.601 C3.999,43.616 3.999,43.630 3.999,43.645 C4.021,43.660 4.043,43.674 4.065,43.689 C4.268,43.974 4.506,44.106 4.880,44.217 C5.475,44.217 6.069,44.217 6.664,44.217 C8.821,44.217 10.980,44.217 13.137,44.217 C20.821,44.217 28.508,44.217 36.192,44.217 C38.173,44.217 40.155,44.217 42.137,44.217 C42.797,44.217 43.458,44.217 44.118,44.217 C44.118,44.210 44.118,44.203 44.118,44.195 C44.177,44.188 44.236,44.181 44.295,44.173 C44.295,44.166 44.295,44.159 44.295,44.151 C44.309,44.151 44.324,44.151 44.339,44.151 C44.339,44.144 44.339,44.137 44.339,44.129 C44.361,44.129 44.383,44.129 44.405,44.129 C44.405,44.122 44.405,44.115 44.405,44.107 C44.434,44.100 44.463,44.093 44.493,44.085 C44.493,44.078 44.493,44.071 44.493,44.063 C44.507,44.063 44.522,44.063 44.537,44.063 C44.544,44.049 44.551,44.034 44.559,44.019 C44.588,44.012 44.618,44.005 44.647,43.997 C44.662,43.975 44.676,43.953 44.691,43.931 C44.706,43.931 44.720,43.931 44.735,43.931 C44.757,43.902 44.779,43.872 44.801,43.843 C44.845,43.806 44.889,43.770 44.933,43.733 C45.059,43.558 45.151,43.348 45.219,43.117 C45.219,42.640 45.219,42.162 45.219,41.685 C45.219,39.895 45.219,38.104 45.219,36.313 C45.219,28.681 45.219,21.046 45.219,13.414 C31.407,13.414 17.591,13.414 3.779,13.414 ZM18.995,24.863 C18.995,24.071 18.995,23.278 18.995,22.485 C18.994,22.148 18.961,21.745 19.039,21.473 C19.046,21.370 19.053,21.267 19.061,21.164 C19.068,21.164 19.075,21.164 19.083,21.164 C19.083,21.128 19.083,21.091 19.083,21.054 C19.090,21.054 19.097,21.054 19.105,21.054 C19.105,21.018 19.105,20.981 19.105,20.944 C19.112,20.944 19.119,20.944 19.127,20.944 C19.127,20.915 19.127,20.885 19.127,20.856 C19.134,20.856 19.141,20.856 19.149,20.856 C19.149,20.827 19.149,20.797 19.149,20.768 C19.156,20.768 19.163,20.768 19.171,20.768 C19.171,20.739 19.171,20.709 19.171,20.680 C19.178,20.680 19.185,20.680 19.193,20.680 C19.193,20.651 19.193,20.621 19.193,20.592 C19.200,20.592 19.207,20.592 19.215,20.592 C19.215,20.570 19.215,20.548 19.215,20.526 C19.222,20.526 19.229,20.526 19.237,20.526 C19.237,20.504 19.237,20.482 19.237,20.460 C19.244,20.460 19.251,20.460 19.259,20.460 C19.259,20.438 19.259,20.416 19.259,20.394 C19.266,20.394 19.273,20.394 19.281,20.394 C19.281,20.372 19.281,20.350 19.281,20.328 C19.288,20.328 19.295,20.328 19.303,20.328 C19.310,20.284 19.317,20.240 19.325,20.196 C19.332,20.196 19.339,20.196 19.347,20.196 C19.347,20.181 19.347,20.166 19.347,20.152 C19.354,20.152 19.361,20.152 19.369,20.152 C19.369,20.129 19.369,20.107 19.369,20.085 C19.376,20.085 19.384,20.085 19.391,20.085 C19.391,20.071 19.391,20.056 19.391,20.041 C19.398,20.041 19.406,20.041 19.413,20.041 C19.413,20.019 19.413,19.997 19.413,19.975 C19.420,19.975 19.428,19.975 19.435,19.975 C19.442,19.946 19.450,19.917 19.457,19.887 C19.464,19.887 19.472,19.887 19.479,19.887 C19.479,19.865 19.479,19.843 19.479,19.821 C19.486,19.821 19.494,19.821 19.501,19.821 C19.516,19.777 19.530,19.733 19.545,19.689 C19.552,19.689 19.560,19.689 19.567,19.689 C19.567,19.674 19.567,19.660 19.567,19.645 C19.574,19.645 19.582,19.645 19.589,19.645 C19.589,19.630 19.589,19.616 19.589,19.601 C19.596,19.601 19.604,19.601 19.611,19.601 C19.626,19.557 19.640,19.513 19.655,19.469 C19.670,19.462 19.684,19.454 19.699,19.447 C19.714,19.403 19.728,19.359 19.743,19.315 C19.758,19.307 19.773,19.300 19.787,19.293 C19.795,19.263 19.802,19.234 19.809,19.205 C19.817,19.205 19.824,19.205 19.831,19.205 C19.839,19.183 19.846,19.161 19.853,19.139 C19.868,19.131 19.883,19.124 19.897,19.117 C19.897,19.102 19.897,19.087 19.897,19.073 C19.905,19.073 19.912,19.073 19.919,19.073 C19.927,19.051 19.934,19.029 19.941,19.007 C19.956,18.999 19.971,18.992 19.985,18.985 C19.985,18.970 19.985,18.955 19.985,18.941 C20.000,18.933 20.015,18.926 20.029,18.918 C20.037,18.896 20.044,18.874 20.051,18.852 C20.073,18.838 20.095,18.823 20.117,18.808 C20.117,18.794 20.117,18.779 20.117,18.764 C20.140,18.750 20.162,18.735 20.184,18.720 C20.184,18.706 20.184,18.691 20.184,18.676 C20.220,18.647 20.257,18.618 20.294,18.588 C20.294,18.574 20.294,18.559 20.294,18.544 C20.360,18.485 20.426,18.427 20.492,18.368 C20.492,18.353 20.492,18.339 20.492,18.324 C20.551,18.273 20.609,18.221 20.668,18.170 C20.683,18.148 20.697,18.126 20.712,18.104 C20.727,18.104 20.741,18.104 20.756,18.104 C20.807,18.045 20.859,17.986 20.910,17.928 C20.925,17.928 20.940,17.928 20.954,17.928 C20.984,17.891 21.013,17.854 21.042,17.818 C21.057,17.818 21.072,17.818 21.086,17.818 C21.108,17.788 21.130,17.759 21.152,17.730 C21.167,17.730 21.182,17.730 21.196,17.730 C21.211,17.707 21.226,17.685 21.240,17.663 C21.255,17.663 21.270,17.663 21.285,17.663 C21.292,17.649 21.299,17.634 21.307,17.619 C21.329,17.612 21.351,17.605 21.373,17.597 C21.373,17.590 21.373,17.583 21.373,17.575 C21.387,17.575 21.402,17.575 21.417,17.575 C21.424,17.561 21.431,17.546 21.439,17.531 C21.453,17.531 21.468,17.531 21.483,17.531 C21.490,17.517 21.497,17.502 21.505,17.487 C21.519,17.487 21.534,17.487 21.549,17.487 C21.556,17.473 21.563,17.458 21.571,17.443 C21.585,17.443 21.600,17.443 21.615,17.443 C21.622,17.429 21.629,17.414 21.637,17.399 C21.666,17.392 21.696,17.385 21.725,17.377 C21.732,17.363 21.740,17.348 21.747,17.333 C21.762,17.333 21.776,17.333 21.791,17.333 C21.791,17.326 21.791,17.318 21.791,17.311 C21.806,17.311 21.820,17.311 21.835,17.311 C21.835,17.304 21.835,17.296 21.835,17.289 C21.850,17.289 21.864,17.289 21.879,17.289 C21.879,17.282 21.879,17.274 21.879,17.267 C21.894,17.267 21.908,17.267 21.923,17.267 C21.923,17.260 21.923,17.252 21.923,17.245 C21.938,17.245 21.952,17.245 21.967,17.245 C21.974,17.230 21.982,17.216 21.989,17.201 C22.004,17.201 22.018,17.201 22.033,17.201 C22.033,17.194 22.033,17.186 22.033,17.179 C22.055,17.179 22.077,17.179 22.099,17.179 C22.099,17.172 22.099,17.164 22.099,17.157 C22.114,17.157 22.129,17.157 22.143,17.157 C22.143,17.150 22.143,17.142 22.143,17.135 C22.158,17.135 22.173,17.135 22.187,17.135 C22.187,17.128 22.187,17.120 22.187,17.113 C22.231,17.098 22.275,17.084 22.319,17.069 C22.319,17.062 22.319,17.054 22.319,17.047 C22.341,17.047 22.363,17.047 22.385,17.047 C22.385,17.040 22.385,17.032 22.385,17.025 C22.400,17.025 22.415,17.025 22.430,17.025 C22.430,17.018 22.430,17.010 22.430,17.003 C22.708,16.915 22.987,16.827 23.266,16.739 C23.494,16.702 23.721,16.665 23.949,16.629 C24.044,16.629 24.140,16.629 24.235,16.629 C24.235,16.621 24.235,16.614 24.235,16.607 C24.375,16.567 24.798,16.622 24.896,16.651 C24.940,16.651 24.984,16.651 25.028,16.651 C25.219,16.709 25.409,16.768 25.600,16.827 C25.600,16.834 25.600,16.841 25.600,16.849 C25.644,16.863 25.688,16.878 25.732,16.893 C25.732,16.900 25.732,16.907 25.732,16.915 C25.747,16.915 25.762,16.915 25.776,16.915 C25.776,16.922 25.776,16.930 25.776,16.937 C25.806,16.944 25.835,16.952 25.865,16.959 C25.872,16.974 25.879,16.988 25.887,17.003 C25.916,17.010 25.945,17.018 25.975,17.025 C25.975,17.032 25.975,17.040 25.975,17.047 C25.997,17.054 26.019,17.062 26.041,17.069 C26.048,17.084 26.055,17.098 26.063,17.113 C26.077,17.113 26.092,17.113 26.107,17.113 C26.114,17.128 26.121,17.142 26.129,17.157 C26.151,17.164 26.173,17.172 26.195,17.179 C26.224,17.216 26.254,17.252 26.283,17.289 C26.298,17.289 26.312,17.289 26.327,17.289 C26.364,17.333 26.400,17.377 26.437,17.421 C26.488,17.465 26.540,17.509 26.591,17.553 C26.591,17.568 26.591,17.583 26.591,17.597 C26.620,17.619 26.650,17.641 26.679,17.663 C26.679,17.678 26.679,17.693 26.679,17.707 C26.701,17.722 26.723,17.737 26.745,17.752 C26.745,17.766 26.745,17.781 26.745,17.796 C26.760,17.803 26.775,17.810 26.789,17.818 C26.797,17.840 26.804,17.862 26.811,17.884 C26.819,17.884 26.826,17.884 26.833,17.884 C26.833,17.898 26.833,17.913 26.833,17.928 C26.848,17.935 26.863,17.942 26.877,17.950 C26.877,17.964 26.877,17.979 26.877,17.994 C26.885,17.994 26.892,17.994 26.899,17.994 C26.899,18.008 26.899,18.023 26.899,18.038 C26.907,18.038 26.914,18.038 26.921,18.038 C26.921,18.052 26.921,18.067 26.921,18.082 C26.929,18.082 26.936,18.082 26.943,18.082 C26.943,18.096 26.943,18.111 26.943,18.126 C26.958,18.133 26.973,18.141 26.987,18.148 C26.987,18.170 26.987,18.192 26.987,18.214 C26.995,18.214 27.002,18.214 27.010,18.214 C27.017,18.243 27.024,18.273 27.032,18.302 C27.039,18.302 27.046,18.302 27.054,18.302 C27.054,18.324 27.054,18.346 27.054,18.368 C27.061,18.368 27.068,18.368 27.076,18.368 C27.076,18.383 27.076,18.397 27.076,18.412 C27.083,18.412 27.090,18.412 27.098,18.412 C27.098,18.434 27.098,18.456 27.098,18.478 C27.105,18.478 27.112,18.478 27.120,18.478 C27.120,18.500 27.120,18.522 27.120,18.544 C27.127,18.544 27.134,18.544 27.142,18.544 C27.149,18.596 27.156,18.647 27.164,18.698 C27.171,18.698 27.178,18.698 27.186,18.698 C27.193,18.772 27.200,18.845 27.208,18.918 C27.215,18.918 27.222,18.918 27.230,18.918 C27.230,18.970 27.230,19.021 27.230,19.073 C27.237,19.073 27.244,19.073 27.252,19.073 C27.252,19.315 27.252,19.557 27.252,19.799 C27.252,20.372 27.252,20.944 27.252,21.517 C27.259,21.796 27.266,22.074 27.274,22.353 C27.281,22.353 27.288,22.353 27.296,22.353 C27.296,22.412 27.296,22.471 27.296,22.529 C27.303,22.529 27.310,22.529 27.318,22.529 C27.318,22.574 27.318,22.618 27.318,22.662 C27.325,22.662 27.332,22.662 27.340,22.662 C27.347,22.728 27.354,22.794 27.362,22.860 C27.369,22.860 27.376,22.860 27.384,22.860 C27.384,22.889 27.384,22.918 27.384,22.948 C27.391,22.948 27.399,22.948 27.406,22.948 C27.413,22.999 27.421,23.051 27.428,23.102 C27.435,23.102 27.443,23.102 27.450,23.102 C27.450,23.124 27.450,23.146 27.450,23.168 C27.457,23.168 27.465,23.168 27.472,23.168 C27.479,23.212 27.487,23.256 27.494,23.300 C27.501,23.300 27.509,23.300 27.516,23.300 C27.516,23.315 27.516,23.329 27.516,23.344 C27.523,23.344 27.531,23.344 27.538,23.344 C27.538,23.366 27.538,23.388 27.538,23.410 C27.545,23.410 27.553,23.410 27.560,23.410 C27.560,23.425 27.560,23.440 27.560,23.454 C27.567,23.454 27.575,23.454 27.582,23.454 C27.582,23.476 27.582,23.498 27.582,23.520 C27.589,23.520 27.597,23.520 27.604,23.520 C27.619,23.564 27.633,23.608 27.648,23.652 C27.655,23.652 27.663,23.652 27.670,23.652 C27.670,23.667 27.670,23.682 27.670,23.696 C27.677,23.696 27.685,23.696 27.692,23.696 C27.692,23.711 27.692,23.726 27.692,23.740 C27.699,23.740 27.707,23.740 27.714,23.740 C27.714,23.755 27.714,23.770 27.714,23.785 C27.721,23.785 27.729,23.785 27.736,23.785 C27.736,23.799 27.736,23.814 27.736,23.829 C27.743,23.829 27.751,23.829 27.758,23.829 C27.758,23.843 27.758,23.858 27.758,23.873 C27.765,23.873 27.773,23.873 27.780,23.873 C27.780,23.887 27.780,23.902 27.780,23.917 C27.788,23.917 27.795,23.917 27.802,23.917 C27.802,23.931 27.802,23.946 27.802,23.961 C27.810,23.961 27.817,23.961 27.824,23.961 C27.832,23.983 27.839,24.005 27.846,24.027 C27.861,24.034 27.876,24.041 27.890,24.049 C27.898,24.078 27.905,24.107 27.912,24.137 C27.920,24.137 27.927,24.137 27.934,24.137 C27.942,24.159 27.949,24.181 27.956,24.203 C27.971,24.210 27.986,24.218 28.000,24.225 C28.000,24.240 28.000,24.254 28.000,24.269 C28.022,24.284 28.044,24.298 28.066,24.313 C28.066,24.328 28.066,24.342 28.066,24.357 C28.088,24.372 28.110,24.386 28.132,24.401 C28.132,24.416 28.132,24.430 28.132,24.445 C28.169,24.474 28.206,24.504 28.243,24.533 C28.243,24.548 28.243,24.562 28.243,24.577 C28.309,24.636 28.375,24.695 28.441,24.753 C28.521,24.841 28.602,24.929 28.683,25.018 C28.698,25.018 28.712,25.018 28.727,25.018 C28.749,25.047 28.771,25.076 28.793,25.106 C28.808,25.106 28.822,25.106 28.837,25.106 C28.852,25.128 28.866,25.150 28.881,25.172 C28.896,25.172 28.910,25.172 28.925,25.172 C28.940,25.194 28.955,25.216 28.969,25.238 C28.984,25.238 28.999,25.238 29.013,25.238 C29.021,25.252 29.028,25.267 29.035,25.282 C29.057,25.289 29.079,25.296 29.101,25.304 C29.101,25.311 29.101,25.318 29.101,25.326 C29.116,25.326 29.131,25.326 29.145,25.326 C29.153,25.340 29.160,25.355 29.167,25.370 C29.182,25.370 29.197,25.370 29.211,25.370 C29.219,25.385 29.226,25.399 29.233,25.414 C29.248,25.414 29.263,25.414 29.277,25.414 C29.285,25.429 29.292,25.443 29.299,25.458 C29.314,25.458 29.329,25.458 29.344,25.458 C29.351,25.473 29.358,25.487 29.366,25.502 C29.395,25.509 29.424,25.517 29.454,25.524 C29.454,25.531 29.454,25.539 29.454,25.546 C29.476,25.553 29.498,25.561 29.520,25.568 C29.527,25.583 29.534,25.597 29.542,25.612 C29.556,25.612 29.571,25.612 29.586,25.612 C29.593,25.627 29.600,25.641 29.608,25.656 C29.622,25.656 29.637,25.656 29.652,25.656 C29.659,25.671 29.666,25.685 29.674,25.700 C29.689,25.700 29.703,25.700 29.718,25.700 C29.725,25.715 29.733,25.729 29.740,25.744 C29.769,25.751 29.799,25.759 29.828,25.766 C29.835,25.781 29.843,25.796 29.850,25.810 C29.865,25.810 29.879,25.810 29.894,25.810 C29.901,25.825 29.909,25.840 29.916,25.854 C29.931,25.854 29.945,25.854 29.960,25.854 C29.960,25.862 29.960,25.869 29.960,25.876 C29.990,25.896 29.999,25.892 30.048,25.898 C30.070,25.869 30.092,25.840 30.114,25.810 C30.129,25.810 30.144,25.810 30.158,25.810 C30.180,25.781 30.202,25.751 30.224,25.722 C30.239,25.722 30.254,25.722 30.268,25.722 C30.283,25.700 30.298,25.678 30.312,25.656 C30.327,25.656 30.342,25.656 30.356,25.656 C30.364,25.641 30.371,25.627 30.378,25.612 C30.400,25.605 30.422,25.597 30.444,25.590 C30.444,25.583 30.444,25.575 30.444,25.568 C30.459,25.568 30.474,25.568 30.489,25.568 C30.496,25.553 30.503,25.539 30.511,25.524 C30.525,25.524 30.540,25.524 30.555,25.524 C30.562,25.509 30.569,25.495 30.577,25.480 C30.591,25.480 30.606,25.480 30.621,25.480 C30.628,25.465 30.635,25.451 30.643,25.436 C30.657,25.436 30.672,25.436 30.687,25.436 C30.687,25.429 30.687,25.421 30.687,25.414 C30.701,25.414 30.716,25.414 30.731,25.414 C30.731,25.407 30.731,25.399 30.731,25.392 C30.745,25.392 30.760,25.392 30.775,25.392 C30.775,25.385 30.775,25.377 30.775,25.370 C30.789,25.370 30.804,25.370 30.819,25.370 C30.826,25.355 30.834,25.340 30.841,25.326 C30.907,25.304 30.973,25.282 31.039,25.260 C31.039,25.252 31.039,25.245 31.039,25.238 C31.054,25.238 31.068,25.238 31.083,25.238 C31.083,25.230 31.083,25.223 31.083,25.216 C31.112,25.208 31.142,25.201 31.171,25.194 C31.171,25.186 31.171,25.179 31.171,25.172 C31.215,25.164 31.259,25.157 31.303,25.150 C31.303,25.142 31.303,25.135 31.303,25.128 C31.318,25.128 31.333,25.128 31.347,25.128 C31.347,25.120 31.347,25.113 31.347,25.106 C31.369,25.106 31.391,25.106 31.413,25.106 C31.413,25.098 31.413,25.091 31.413,25.084 C31.435,25.084 31.457,25.084 31.479,25.084 C31.479,25.076 31.479,25.069 31.479,25.062 C31.501,25.062 31.523,25.062 31.545,25.062 C31.545,25.054 31.545,25.047 31.545,25.040 C31.736,24.996 31.927,24.951 32.118,24.907 C32.265,24.900 32.412,24.893 32.558,24.885 C32.711,24.843 32.963,24.863 33.153,24.863 C33.542,24.863 33.931,24.863 34.320,24.863 C34.806,24.863 35.486,24.803 35.861,24.929 C35.891,24.929 35.920,24.929 35.949,24.929 C36.067,24.988 36.184,25.047 36.302,25.106 C36.309,25.120 36.316,25.135 36.324,25.150 C36.338,25.150 36.353,25.150 36.368,25.150 C36.404,25.194 36.441,25.238 36.478,25.282 C36.522,25.318 36.566,25.355 36.610,25.392 C36.610,25.407 36.610,25.421 36.610,25.436 C36.625,25.443 36.639,25.451 36.654,25.458 C36.654,25.473 36.654,25.487 36.654,25.502 C36.669,25.509 36.683,25.517 36.698,25.524 C36.749,25.641 36.801,25.759 36.852,25.876 C36.852,25.913 36.852,25.950 36.852,25.986 C36.931,26.248 36.896,26.668 36.896,26.999 C36.896,27.630 36.896,28.262 36.896,28.893 C36.896,31.755 36.896,34.618 36.896,37.480 C36.896,38.118 36.896,38.757 36.896,39.395 C36.896,39.630 36.930,39.949 36.874,40.144 C36.874,40.195 36.874,40.247 36.874,40.298 C36.867,40.298 36.859,40.298 36.852,40.298 C36.852,40.328 36.852,40.357 36.852,40.386 C36.845,40.386 36.837,40.386 36.830,40.386 C36.823,40.430 36.815,40.474 36.808,40.518 C36.801,40.518 36.793,40.518 36.786,40.518 C36.771,40.562 36.757,40.606 36.742,40.650 C36.735,40.650 36.727,40.650 36.720,40.650 C36.713,40.680 36.705,40.709 36.698,40.739 C36.691,40.739 36.683,40.739 36.676,40.739 C36.669,40.761 36.661,40.783 36.654,40.805 C36.639,40.812 36.625,40.819 36.610,40.827 C36.610,40.841 36.610,40.856 36.610,40.871 C36.559,40.915 36.507,40.959 36.456,41.003 C36.426,41.039 36.397,41.076 36.368,41.113 C36.353,41.113 36.338,41.113 36.324,41.113 C36.316,41.128 36.309,41.142 36.302,41.157 C36.280,41.164 36.258,41.172 36.236,41.179 C36.236,41.186 36.236,41.194 36.236,41.201 C36.206,41.208 36.177,41.216 36.147,41.223 C36.147,41.230 36.147,41.238 36.147,41.245 C36.103,41.260 36.059,41.274 36.015,41.289 C36.015,41.296 36.015,41.304 36.015,41.311 C35.971,41.318 35.927,41.326 35.883,41.333 C35.883,41.340 35.883,41.348 35.883,41.355 C35.854,41.355 35.825,41.355 35.795,41.355 C35.795,41.362 35.795,41.370 35.795,41.377 C35.744,41.377 35.692,41.377 35.641,41.377 C35.641,41.384 35.641,41.392 35.641,41.399 C35.274,41.399 34.907,41.399 34.540,41.399 C34.034,41.399 33.527,41.399 33.021,41.399 C32.771,41.392 32.522,41.384 32.272,41.377 C32.272,41.370 32.272,41.362 32.272,41.355 C32.221,41.355 32.169,41.355 32.118,41.355 C32.118,41.348 32.118,41.340 32.118,41.333 C32.074,41.333 32.030,41.333 31.986,41.333 C31.986,41.326 31.986,41.318 31.986,41.311 C31.949,41.311 31.912,41.311 31.876,41.311 C31.641,41.238 31.406,41.164 31.171,41.091 C31.171,41.084 31.171,41.076 31.171,41.069 C31.142,41.061 31.112,41.054 31.083,41.047 C31.083,41.039 31.083,41.032 31.083,41.025 C31.061,41.025 31.039,41.025 31.017,41.025 C31.017,41.017 31.017,41.010 31.017,41.003 C30.973,40.988 30.929,40.973 30.885,40.959 C30.885,40.951 30.885,40.944 30.885,40.937 C30.856,40.929 30.826,40.922 30.797,40.915 C30.789,40.900 30.782,40.885 30.775,40.871 C30.731,40.856 30.687,40.841 30.643,40.827 C30.635,40.812 30.628,40.797 30.621,40.783 C30.591,40.775 30.562,40.768 30.533,40.761 C30.533,40.753 30.533,40.746 30.533,40.739 C30.511,40.731 30.489,40.724 30.467,40.717 C30.459,40.702 30.452,40.687 30.444,40.673 C30.430,40.673 30.415,40.673 30.400,40.673 C30.393,40.658 30.386,40.643 30.378,40.628 C30.356,40.621 30.334,40.614 30.312,40.606 C30.298,40.584 30.283,40.562 30.268,40.540 C30.254,40.540 30.239,40.540 30.224,40.540 C30.202,40.511 30.180,40.482 30.158,40.452 C30.144,40.452 30.129,40.452 30.114,40.452 C30.078,40.408 30.041,40.364 30.004,40.320 C29.989,40.320 29.975,40.320 29.960,40.320 C29.960,40.313 29.960,40.306 29.960,40.298 C29.931,40.276 29.901,40.254 29.872,40.232 C29.857,40.210 29.843,40.188 29.828,40.166 C29.806,40.166 29.784,40.166 29.762,40.166 C29.762,40.173 29.762,40.181 29.762,40.188 C29.718,40.195 29.674,40.203 29.630,40.210 C29.630,40.217 29.630,40.225 29.630,40.232 C29.608,40.232 29.586,40.232 29.564,40.232 C29.564,40.239 29.564,40.247 29.564,40.254 C29.549,40.254 29.534,40.254 29.520,40.254 C29.520,40.262 29.520,40.269 29.520,40.276 C29.476,40.284 29.432,40.291 29.388,40.298 C29.388,40.306 29.388,40.313 29.388,40.320 C29.366,40.320 29.344,40.320 29.322,40.320 C29.322,40.328 29.322,40.335 29.322,40.342 C29.300,40.342 29.277,40.342 29.255,40.342 C29.255,40.350 29.255,40.357 29.255,40.364 C29.233,40.364 29.211,40.364 29.189,40.364 C29.189,40.372 29.189,40.379 29.189,40.386 C29.167,40.386 29.145,40.386 29.123,40.386 C29.123,40.394 29.123,40.401 29.123,40.408 C29.101,40.408 29.079,40.408 29.057,40.408 C29.057,40.416 29.057,40.423 29.057,40.430 C29.035,40.430 29.013,40.430 28.991,40.430 C28.991,40.438 28.991,40.445 28.991,40.452 C28.969,40.452 28.947,40.452 28.925,40.452 C28.925,40.460 28.925,40.467 28.925,40.474 C28.881,40.482 28.837,40.489 28.793,40.496 C28.793,40.504 28.793,40.511 28.793,40.518 C28.778,40.518 28.764,40.518 28.749,40.518 C28.749,40.526 28.749,40.533 28.749,40.540 C28.727,40.540 28.705,40.540 28.683,40.540 C28.683,40.548 28.683,40.555 28.683,40.562 C28.661,40.562 28.639,40.562 28.617,40.562 C28.617,40.570 28.617,40.577 28.617,40.584 C28.595,40.584 28.573,40.584 28.551,40.584 C28.551,40.592 28.551,40.599 28.551,40.606 C28.529,40.606 28.507,40.606 28.485,40.606 C28.485,40.614 28.485,40.621 28.485,40.628 C28.463,40.628 28.441,40.628 28.419,40.628 C27.150,41.134 25.654,41.399 23.883,41.399 C22.342,41.399 20.800,41.399 19.259,41.399 C18.892,41.399 18.525,41.399 18.158,41.399 C17.975,41.399 17.731,41.419 17.585,41.377 C17.519,41.377 17.453,41.377 17.387,41.377 C17.270,41.362 17.152,41.348 17.035,41.333 C16.822,41.274 16.609,41.216 16.396,41.157 C16.396,41.150 16.396,41.142 16.396,41.135 C16.360,41.128 16.323,41.120 16.286,41.113 C16.286,41.106 16.286,41.098 16.286,41.091 C16.271,41.091 16.257,41.091 16.242,41.091 C16.242,41.084 16.242,41.076 16.242,41.069 C16.220,41.069 16.198,41.069 16.176,41.069 C16.176,41.061 16.176,41.054 16.176,41.047 C16.132,41.032 16.088,41.017 16.044,41.003 C16.044,40.995 16.044,40.988 16.044,40.981 C16.029,40.981 16.015,40.981 16.000,40.981 C16.000,40.973 16.000,40.966 16.000,40.959 C15.985,40.959 15.971,40.959 15.956,40.959 C15.956,40.951 15.956,40.944 15.956,40.937 C15.941,40.937 15.926,40.937 15.912,40.937 C15.912,40.929 15.912,40.922 15.912,40.915 C15.897,40.915 15.882,40.915 15.868,40.915 C15.868,40.907 15.868,40.900 15.868,40.893 C15.853,40.893 15.838,40.893 15.824,40.893 C15.824,40.885 15.824,40.878 15.824,40.871 C15.809,40.871 15.794,40.871 15.780,40.871 C15.780,40.863 15.780,40.856 15.780,40.849 C15.765,40.849 15.750,40.849 15.736,40.849 C15.728,40.834 15.721,40.819 15.714,40.805 C15.684,40.797 15.655,40.790 15.626,40.783 C15.626,40.775 15.626,40.768 15.626,40.761 C15.604,40.753 15.582,40.746 15.560,40.739 C15.552,40.724 15.545,40.709 15.537,40.695 C15.523,40.695 15.508,40.695 15.493,40.695 C15.486,40.680 15.479,40.665 15.471,40.650 C15.457,40.650 15.442,40.650 15.427,40.650 C15.420,40.636 15.413,40.621 15.405,40.606 C15.383,40.599 15.361,40.592 15.339,40.584 C15.325,40.562 15.310,40.540 15.295,40.518 C15.281,40.518 15.266,40.518 15.251,40.518 C15.237,40.496 15.222,40.474 15.207,40.452 C15.185,40.445 15.163,40.438 15.141,40.430 C15.090,40.372 15.038,40.313 14.987,40.254 C14.972,40.254 14.958,40.254 14.943,40.254 C14.936,40.239 14.928,40.225 14.921,40.210 C14.884,40.181 14.848,40.151 14.811,40.122 C14.811,40.107 14.811,40.093 14.811,40.078 C14.752,40.027 14.693,39.975 14.635,39.924 C14.635,39.909 14.635,39.895 14.635,39.880 C14.605,39.858 14.576,39.836 14.547,39.814 C14.539,39.792 14.532,39.770 14.525,39.748 C14.510,39.740 14.495,39.733 14.481,39.726 C14.481,39.711 14.481,39.696 14.481,39.682 C14.459,39.667 14.437,39.652 14.415,39.638 C14.415,39.623 14.415,39.608 14.415,39.594 C14.400,39.586 14.385,39.579 14.370,39.572 C14.363,39.550 14.356,39.528 14.348,39.506 C14.341,39.506 14.334,39.506 14.326,39.506 C14.326,39.491 14.326,39.476 14.326,39.462 C14.312,39.454 14.297,39.447 14.282,39.439 C14.275,39.410 14.268,39.381 14.260,39.351 C14.246,39.344 14.231,39.337 14.216,39.329 C14.216,39.315 14.216,39.300 14.216,39.285 C14.209,39.285 14.202,39.285 14.194,39.285 C14.194,39.271 14.194,39.256 14.194,39.241 C14.187,39.241 14.180,39.241 14.172,39.241 C14.172,39.227 14.172,39.212 14.172,39.197 C14.165,39.197 14.158,39.197 14.150,39.197 C14.150,39.183 14.150,39.168 14.150,39.153 C14.143,39.153 14.136,39.153 14.128,39.153 C14.128,39.139 14.128,39.124 14.128,39.109 C14.121,39.109 14.114,39.109 14.106,39.109 C14.106,39.095 14.106,39.080 14.106,39.065 C14.099,39.065 14.092,39.065 14.084,39.065 C14.084,39.050 14.084,39.036 14.084,39.021 C14.077,39.021 14.070,39.021 14.062,39.021 C14.048,38.977 14.033,38.933 14.018,38.889 C14.011,38.889 14.003,38.889 13.996,38.889 C13.996,38.867 13.996,38.845 13.996,38.823 C13.989,38.823 13.981,38.823 13.974,38.823 C13.974,38.808 13.974,38.794 13.974,38.779 C13.967,38.779 13.959,38.779 13.952,38.779 C13.945,38.735 13.937,38.691 13.930,38.647 C13.923,38.647 13.915,38.647 13.908,38.647 C13.908,38.625 13.908,38.603 13.908,38.581 C13.901,38.581 13.893,38.581 13.886,38.581 C13.886,38.559 13.886,38.537 13.886,38.515 C13.879,38.515 13.871,38.515 13.864,38.515 C13.864,38.493 13.864,38.471 13.864,38.449 C13.857,38.449 13.849,38.449 13.842,38.449 C13.842,38.427 13.842,38.405 13.842,38.383 C13.835,38.383 13.827,38.383 13.820,38.383 C13.820,38.353 13.820,38.324 13.820,38.295 C13.813,38.295 13.805,38.295 13.798,38.295 C13.798,38.265 13.798,38.236 13.798,38.206 C13.791,38.206 13.783,38.206 13.776,38.206 C13.776,38.177 13.776,38.148 13.776,38.118 C13.769,38.118 13.761,38.118 13.754,38.118 C13.754,38.082 13.754,38.045 13.754,38.008 C13.747,38.008 13.739,38.008 13.732,38.008 C13.732,37.972 13.732,37.935 13.732,37.898 C13.725,37.898 13.717,37.898 13.710,37.898 C13.710,37.862 13.710,37.825 13.710,37.788 C13.580,37.375 13.553,36.880 13.424,36.467 C13.409,36.357 13.394,36.247 13.380,36.137 C13.372,36.137 13.365,36.137 13.358,36.137 C13.350,36.063 13.343,35.990 13.336,35.917 C13.261,35.680 13.234,35.383 13.159,35.146 C13.152,35.073 13.145,34.999 13.137,34.926 C13.085,34.760 13.057,34.542 13.005,34.375 C12.998,34.302 12.991,34.228 12.983,34.155 C12.976,34.155 12.969,34.155 12.961,34.155 C12.961,34.118 12.961,34.082 12.961,34.045 C12.954,34.045 12.947,34.045 12.939,34.045 C12.939,34.008 12.939,33.972 12.939,33.935 C12.932,33.935 12.925,33.935 12.917,33.935 C12.917,33.898 12.917,33.862 12.917,33.825 C12.910,33.825 12.903,33.825 12.895,33.825 C12.895,33.788 12.895,33.751 12.895,33.715 C12.776,33.337 12.749,32.882 12.631,32.504 C12.616,32.394 12.602,32.284 12.587,32.173 C12.580,32.173 12.572,32.173 12.565,32.173 C12.536,31.990 12.506,31.806 12.477,31.623 C12.403,31.386 12.375,31.090 12.301,30.852 C12.293,30.779 12.286,30.706 12.279,30.632 C12.238,30.502 12.209,30.322 12.169,30.192 C12.169,30.155 12.169,30.118 12.169,30.082 C11.983,29.479 11.967,28.562 12.169,27.968 C12.169,27.939 12.169,27.909 12.169,27.880 C12.176,27.880 12.183,27.880 12.191,27.880 C12.191,27.858 12.191,27.836 12.191,27.814 C12.198,27.814 12.205,27.814 12.213,27.814 C12.213,27.785 12.213,27.755 12.213,27.726 C12.220,27.726 12.227,27.726 12.235,27.726 C12.235,27.704 12.235,27.682 12.235,27.660 C12.242,27.660 12.249,27.660 12.257,27.660 C12.257,27.645 12.257,27.630 12.257,27.616 C12.264,27.616 12.271,27.616 12.279,27.616 C12.286,27.572 12.293,27.528 12.301,27.484 C12.308,27.484 12.315,27.484 12.323,27.484 C12.323,27.469 12.323,27.454 12.323,27.440 C12.330,27.440 12.337,27.440 12.345,27.440 C12.345,27.418 12.345,27.396 12.345,27.373 C12.352,27.373 12.359,27.373 12.367,27.373 C12.381,27.329 12.396,27.285 12.411,27.241 C12.418,27.241 12.425,27.241 12.433,27.241 C12.433,27.227 12.433,27.212 12.433,27.197 C12.440,27.197 12.447,27.197 12.455,27.197 C12.455,27.183 12.455,27.168 12.455,27.153 C12.462,27.153 12.469,27.153 12.477,27.153 C12.477,27.139 12.477,27.124 12.477,27.109 C12.484,27.109 12.492,27.109 12.499,27.109 C12.499,27.095 12.499,27.080 12.499,27.065 C12.506,27.065 12.514,27.065 12.521,27.065 C12.521,27.051 12.521,27.036 12.521,27.021 C12.528,27.021 12.536,27.021 12.543,27.021 C12.543,27.007 12.543,26.992 12.543,26.977 C12.550,26.977 12.558,26.977 12.565,26.977 C12.565,26.962 12.565,26.948 12.565,26.933 C12.580,26.926 12.594,26.918 12.609,26.911 C12.616,26.882 12.624,26.852 12.631,26.823 C12.646,26.816 12.660,26.808 12.675,26.801 C12.675,26.786 12.675,26.772 12.675,26.757 C12.690,26.750 12.704,26.742 12.719,26.735 C12.719,26.720 12.719,26.706 12.719,26.691 C12.734,26.684 12.748,26.676 12.763,26.669 C12.763,26.654 12.763,26.640 12.763,26.625 C12.778,26.618 12.792,26.610 12.807,26.603 C12.807,26.588 12.807,26.573 12.807,26.559 C12.829,26.544 12.851,26.529 12.873,26.515 C12.873,26.500 12.873,26.485 12.873,26.471 C12.903,26.449 12.932,26.427 12.961,26.405 C12.961,26.390 12.961,26.375 12.961,26.361 C13.013,26.317 13.064,26.273 13.115,26.229 C13.115,26.214 13.115,26.199 13.115,26.185 C13.174,26.133 13.233,26.082 13.292,26.030 C13.306,26.008 13.321,25.986 13.336,25.964 C13.350,25.964 13.365,25.964 13.380,25.964 C13.424,25.913 13.468,25.862 13.512,25.810 C13.526,25.810 13.541,25.810 13.556,25.810 C13.578,25.781 13.600,25.751 13.622,25.722 C13.637,25.722 13.651,25.722 13.666,25.722 C13.681,25.700 13.695,25.678 13.710,25.656 C13.725,25.656 13.739,25.656 13.754,25.656 C13.769,25.634 13.783,25.612 13.798,25.590 C13.813,25.590 13.827,25.590 13.842,25.590 C13.849,25.575 13.857,25.561 13.864,25.546 C13.886,25.539 13.908,25.531 13.930,25.524 C13.930,25.517 13.930,25.509 13.930,25.502 C13.959,25.495 13.989,25.487 14.018,25.480 C14.026,25.465 14.033,25.451 14.040,25.436 C14.084,25.421 14.128,25.407 14.172,25.392 C14.180,25.377 14.187,25.362 14.194,25.348 C14.224,25.340 14.253,25.333 14.282,25.326 C14.282,25.318 14.282,25.311 14.282,25.304 C14.326,25.289 14.370,25.274 14.415,25.260 C14.415,25.252 14.415,25.245 14.415,25.238 C14.437,25.238 14.459,25.238 14.481,25.238 C14.481,25.230 14.481,25.223 14.481,25.216 C14.510,25.208 14.539,25.201 14.569,25.194 C14.569,25.186 14.569,25.179 14.569,25.172 C14.591,25.172 14.613,25.172 14.635,25.172 C14.635,25.164 14.635,25.157 14.635,25.150 C14.649,25.150 14.664,25.150 14.679,25.150 C14.679,25.142 14.679,25.135 14.679,25.128 C14.723,25.120 14.767,25.113 14.811,25.106 C14.811,25.098 14.811,25.091 14.811,25.084 C14.833,25.084 14.855,25.084 14.877,25.084 C14.877,25.076 14.877,25.069 14.877,25.062 C14.899,25.062 14.921,25.062 14.943,25.062 C14.943,25.054 14.943,25.047 14.943,25.040 C14.965,25.040 14.987,25.040 15.009,25.040 C15.009,25.032 15.009,25.025 15.009,25.018 C15.038,25.018 15.068,25.018 15.097,25.018 C15.097,25.010 15.097,25.003 15.097,24.996 C15.126,24.996 15.156,24.996 15.185,24.996 C15.185,24.988 15.185,24.981 15.185,24.974 C15.215,24.974 15.244,24.974 15.273,24.974 C15.273,24.966 15.273,24.959 15.273,24.951 C15.310,24.951 15.347,24.951 15.383,24.951 C15.383,24.944 15.383,24.937 15.383,24.929 C15.427,24.929 15.471,24.929 15.515,24.929 C15.515,24.922 15.515,24.915 15.515,24.907 C15.574,24.907 15.633,24.907 15.692,24.907 C15.692,24.900 15.692,24.893 15.692,24.885 C16.029,24.878 16.367,24.871 16.705,24.863 C17.468,24.863 18.231,24.863 18.995,24.863 ZM28.639,37.656 C28.639,37.590 28.639,37.524 28.639,37.458 C28.632,37.458 28.624,37.458 28.617,37.458 C28.617,35.550 28.617,33.641 28.617,31.733 C28.617,30.757 28.617,29.781 28.617,28.805 C28.624,28.805 28.632,28.805 28.639,28.805 C28.639,28.717 28.639,28.629 28.639,28.540 C28.654,28.486 28.677,28.388 28.683,28.320 C28.577,28.294 28.498,28.197 28.419,28.144 C28.404,28.144 28.389,28.144 28.375,28.144 C28.367,28.129 28.360,28.115 28.353,28.100 C28.323,28.093 28.294,28.085 28.265,28.078 C28.257,28.063 28.250,28.049 28.243,28.034 C28.228,28.034 28.213,28.034 28.199,28.034 C28.191,28.019 28.184,28.005 28.177,27.990 C28.162,27.990 28.147,27.990 28.132,27.990 C28.125,27.975 28.118,27.961 28.110,27.946 C28.096,27.946 28.081,27.946 28.066,27.946 C28.059,27.931 28.052,27.917 28.044,27.902 C28.015,27.895 27.986,27.887 27.956,27.880 C27.949,27.865 27.942,27.851 27.934,27.836 C27.920,27.836 27.905,27.836 27.890,27.836 C27.883,27.821 27.876,27.807 27.868,27.792 C27.854,27.792 27.839,27.792 27.824,27.792 C27.817,27.777 27.810,27.762 27.802,27.748 C27.788,27.748 27.773,27.748 27.758,27.748 C27.751,27.733 27.743,27.718 27.736,27.704 C27.714,27.696 27.692,27.689 27.670,27.682 C27.670,27.674 27.670,27.667 27.670,27.660 C27.641,27.652 27.611,27.645 27.582,27.638 C27.575,27.623 27.567,27.608 27.560,27.594 C27.545,27.594 27.531,27.594 27.516,27.594 C27.501,27.572 27.487,27.550 27.472,27.528 C27.457,27.528 27.443,27.528 27.428,27.528 C27.421,27.513 27.413,27.498 27.406,27.484 C27.391,27.484 27.376,27.484 27.362,27.484 C27.354,27.469 27.347,27.454 27.340,27.440 C27.318,27.432 27.296,27.425 27.274,27.418 C27.259,27.396 27.244,27.373 27.230,27.351 C27.215,27.351 27.200,27.351 27.186,27.351 C27.178,27.337 27.171,27.322 27.164,27.307 C27.142,27.300 27.120,27.293 27.098,27.285 C27.076,27.256 27.054,27.227 27.032,27.197 C27.017,27.197 27.002,27.197 26.987,27.197 C26.958,27.161 26.929,27.124 26.899,27.087 C26.885,27.087 26.870,27.087 26.855,27.087 C26.848,27.073 26.841,27.058 26.833,27.043 C26.826,27.043 26.819,27.043 26.811,27.043 C26.760,26.985 26.709,26.926 26.657,26.867 C26.643,26.867 26.628,26.867 26.613,26.867 C26.591,26.838 26.569,26.808 26.547,26.779 C26.488,26.728 26.430,26.676 26.371,26.625 C26.371,26.610 26.371,26.596 26.371,26.581 C26.298,26.515 26.224,26.449 26.151,26.383 C26.151,26.368 26.151,26.353 26.151,26.339 C26.114,26.309 26.077,26.280 26.041,26.251 C26.041,26.236 26.041,26.221 26.041,26.207 C26.011,26.185 25.982,26.162 25.953,26.140 C25.953,26.126 25.953,26.111 25.953,26.096 C25.931,26.082 25.909,26.067 25.887,26.052 C25.887,26.038 25.887,26.023 25.887,26.008 C25.865,25.994 25.842,25.979 25.820,25.964 C25.820,25.950 25.820,25.935 25.820,25.920 C25.798,25.906 25.776,25.891 25.754,25.876 C25.754,25.862 25.754,25.847 25.754,25.832 C25.740,25.825 25.725,25.818 25.710,25.810 C25.710,25.796 25.710,25.781 25.710,25.766 C25.696,25.759 25.681,25.751 25.666,25.744 C25.666,25.729 25.666,25.715 25.666,25.700 C25.652,25.693 25.637,25.685 25.622,25.678 C25.622,25.663 25.622,25.649 25.622,25.634 C25.608,25.627 25.593,25.619 25.578,25.612 C25.578,25.597 25.578,25.583 25.578,25.568 C25.564,25.561 25.549,25.553 25.534,25.546 C25.527,25.517 25.520,25.487 25.512,25.458 C25.498,25.451 25.483,25.443 25.468,25.436 C25.461,25.407 25.453,25.377 25.446,25.348 C25.431,25.340 25.417,25.333 25.402,25.326 C25.387,25.282 25.373,25.238 25.358,25.194 C25.343,25.186 25.329,25.179 25.314,25.172 C25.189,24.900 25.064,24.629 24.940,24.357 C24.925,24.291 24.910,24.225 24.896,24.159 C24.888,24.159 24.881,24.159 24.874,24.159 C24.874,24.137 24.874,24.115 24.874,24.093 C24.866,24.093 24.859,24.093 24.852,24.093 C24.852,24.071 24.852,24.049 24.852,24.027 C24.844,24.027 24.837,24.027 24.830,24.027 C24.830,24.005 24.830,23.983 24.830,23.961 C24.822,23.961 24.815,23.961 24.808,23.961 C24.808,23.939 24.808,23.917 24.808,23.895 C24.800,23.895 24.793,23.895 24.786,23.895 C24.786,23.873 24.786,23.851 24.786,23.829 C24.778,23.829 24.771,23.829 24.764,23.829 C24.756,23.777 24.749,23.726 24.742,23.674 C24.734,23.674 24.727,23.674 24.720,23.674 C24.705,23.586 24.690,23.498 24.675,23.410 C24.668,23.410 24.661,23.410 24.653,23.410 C24.653,23.374 24.653,23.337 24.653,23.300 C24.622,23.200 24.596,23.052 24.565,22.948 C24.558,22.830 24.551,22.713 24.543,22.596 C24.474,22.350 24.499,21.979 24.499,21.671 C24.499,20.908 24.499,20.144 24.499,19.381 C23.466,19.368 22.720,19.904 22.297,20.504 C22.275,20.518 22.253,20.533 22.231,20.548 C22.231,20.563 22.231,20.577 22.231,20.592 C22.217,20.599 22.202,20.607 22.187,20.614 C22.187,20.629 22.187,20.643 22.187,20.658 C22.173,20.665 22.158,20.673 22.143,20.680 C22.143,20.695 22.143,20.709 22.143,20.724 C22.136,20.724 22.129,20.724 22.121,20.724 C22.121,20.739 22.121,20.753 22.121,20.768 C22.114,20.768 22.107,20.768 22.099,20.768 C22.099,20.783 22.099,20.797 22.099,20.812 C22.092,20.812 22.085,20.812 22.077,20.812 C22.077,20.827 22.077,20.841 22.077,20.856 C22.063,20.863 22.048,20.871 22.033,20.878 C22.033,20.900 22.033,20.922 22.033,20.944 C22.026,20.944 22.018,20.944 22.011,20.944 C22.011,20.959 22.011,20.974 22.011,20.988 C22.004,20.988 21.996,20.988 21.989,20.988 C21.982,21.018 21.974,21.047 21.967,21.076 C21.960,21.076 21.952,21.076 21.945,21.076 C21.945,21.098 21.945,21.120 21.945,21.142 C21.938,21.142 21.930,21.142 21.923,21.142 C21.923,21.157 21.923,21.172 21.923,21.186 C21.916,21.186 21.908,21.186 21.901,21.186 C21.901,21.208 21.901,21.230 21.901,21.252 C21.894,21.252 21.886,21.252 21.879,21.252 C21.879,21.274 21.879,21.296 21.879,21.318 C21.872,21.318 21.864,21.318 21.857,21.318 C21.857,21.348 21.857,21.377 21.857,21.407 C21.850,21.407 21.842,21.407 21.835,21.407 C21.835,21.436 21.835,21.465 21.835,21.495 C21.828,21.495 21.820,21.495 21.813,21.495 C21.813,21.531 21.813,21.568 21.813,21.605 C21.806,21.605 21.798,21.605 21.791,21.605 C21.791,21.641 21.791,21.678 21.791,21.715 C21.784,21.715 21.776,21.715 21.769,21.715 C21.769,21.788 21.769,21.862 21.769,21.935 C21.762,21.935 21.754,21.935 21.747,21.935 C21.747,22.324 21.747,22.713 21.747,23.102 C21.747,23.887 21.747,24.673 21.747,25.458 C21.747,25.732 21.791,26.228 21.725,26.449 C21.725,26.485 21.725,26.522 21.725,26.559 C21.642,26.820 21.538,27.000 21.395,27.197 C21.365,27.219 21.336,27.241 21.307,27.263 C21.307,27.271 21.307,27.278 21.307,27.285 C21.292,27.285 21.277,27.285 21.262,27.285 C21.240,27.315 21.218,27.344 21.196,27.373 C21.182,27.373 21.167,27.373 21.152,27.373 C21.145,27.388 21.138,27.403 21.130,27.418 C21.108,27.425 21.086,27.432 21.064,27.440 C21.064,27.447 21.064,27.454 21.064,27.462 C20.925,27.513 20.785,27.564 20.646,27.616 C20.595,27.616 20.543,27.616 20.492,27.616 C20.492,27.623 20.492,27.630 20.492,27.638 C20.125,27.638 19.758,27.638 19.391,27.638 C18.576,27.638 17.761,27.638 16.947,27.638 C16.668,27.638 16.157,27.592 15.934,27.660 C15.897,27.660 15.860,27.660 15.824,27.660 C15.824,27.667 15.824,27.674 15.824,27.682 C15.758,27.696 15.692,27.711 15.626,27.726 C15.626,27.733 15.626,27.740 15.626,27.748 C15.582,27.762 15.537,27.777 15.493,27.792 C15.493,27.799 15.493,27.807 15.493,27.814 C15.479,27.814 15.464,27.814 15.449,27.814 C15.449,27.821 15.449,27.829 15.449,27.836 C15.427,27.843 15.405,27.851 15.383,27.858 C15.376,27.873 15.369,27.887 15.361,27.902 C15.347,27.902 15.332,27.902 15.317,27.902 C15.266,27.961 15.215,28.019 15.163,28.078 C15.126,28.107 15.090,28.137 15.053,28.166 C15.053,28.181 15.053,28.196 15.053,28.210 C15.038,28.218 15.024,28.225 15.009,28.232 C15.009,28.247 15.009,28.262 15.009,28.276 C14.994,28.284 14.980,28.291 14.965,28.298 C14.950,28.342 14.936,28.386 14.921,28.430 C14.914,28.430 14.906,28.430 14.899,28.430 C14.899,28.445 14.899,28.460 14.899,28.474 C14.892,28.474 14.884,28.474 14.877,28.474 C14.877,28.496 14.877,28.518 14.877,28.540 C14.751,28.860 14.775,29.205 14.877,29.531 C14.877,29.568 14.877,29.605 14.877,29.641 C14.884,29.641 14.892,29.641 14.899,29.641 C14.899,29.678 14.899,29.715 14.899,29.751 C14.906,29.751 14.914,29.751 14.921,29.751 C14.921,29.788 14.921,29.825 14.921,29.862 C14.928,29.862 14.936,29.862 14.943,29.862 C14.972,30.045 15.002,30.229 15.031,30.412 C15.072,30.543 15.100,30.722 15.141,30.852 C15.141,30.889 15.141,30.926 15.141,30.962 C15.271,31.375 15.298,31.870 15.427,32.284 C15.442,32.394 15.457,32.504 15.471,32.614 C15.479,32.614 15.486,32.614 15.493,32.614 C15.545,32.907 15.596,33.201 15.648,33.495 C15.700,33.661 15.728,33.879 15.780,34.045 C15.787,34.118 15.794,34.192 15.802,34.265 C15.843,34.396 15.871,34.575 15.912,34.706 C15.912,34.742 15.912,34.779 15.912,34.816 C16.053,35.264 16.080,35.798 16.220,36.247 C16.235,36.357 16.249,36.467 16.264,36.577 C16.271,36.577 16.279,36.577 16.286,36.577 C16.352,36.937 16.418,37.296 16.484,37.656 C16.492,37.656 16.499,37.656 16.506,37.656 C16.514,37.700 16.521,37.744 16.528,37.788 C16.536,37.788 16.543,37.788 16.550,37.788 C16.565,37.832 16.580,37.876 16.594,37.920 C16.602,37.920 16.609,37.920 16.616,37.920 C16.616,37.935 16.616,37.950 16.616,37.964 C16.631,37.972 16.646,37.979 16.660,37.986 C16.660,38.001 16.660,38.016 16.660,38.030 C16.675,38.038 16.690,38.045 16.705,38.052 C16.705,38.067 16.705,38.082 16.705,38.096 C16.763,38.148 16.822,38.199 16.881,38.251 C16.910,38.287 16.939,38.324 16.969,38.361 C16.983,38.361 16.998,38.361 17.013,38.361 C17.020,38.375 17.027,38.390 17.035,38.405 C17.057,38.412 17.079,38.419 17.101,38.427 C17.101,38.434 17.101,38.441 17.101,38.449 C17.116,38.449 17.130,38.449 17.145,38.449 C17.145,38.456 17.145,38.463 17.145,38.471 C17.189,38.485 17.233,38.500 17.277,38.515 C17.277,38.522 17.277,38.529 17.277,38.537 C17.299,38.537 17.321,38.537 17.343,38.537 C17.343,38.544 17.343,38.551 17.343,38.559 C17.358,38.559 17.372,38.559 17.387,38.559 C17.387,38.566 17.387,38.573 17.387,38.581 C17.453,38.588 17.519,38.595 17.585,38.603 C17.585,38.610 17.585,38.617 17.585,38.625 C17.879,38.625 18.172,38.625 18.466,38.625 C19.061,38.625 19.655,38.625 20.250,38.625 C21.409,38.625 22.569,38.625 23.729,38.625 C24.014,38.625 24.509,38.669 24.742,38.603 C24.837,38.603 24.932,38.603 25.028,38.603 C25.028,38.595 25.028,38.588 25.028,38.581 C25.101,38.581 25.175,38.581 25.248,38.581 C25.248,38.573 25.248,38.566 25.248,38.559 C25.409,38.544 25.571,38.529 25.732,38.515 C25.836,38.484 25.984,38.458 26.085,38.427 C26.121,38.427 26.158,38.427 26.195,38.427 C26.195,38.419 26.195,38.412 26.195,38.405 C26.290,38.390 26.386,38.375 26.481,38.361 C26.481,38.353 26.481,38.346 26.481,38.339 C26.510,38.339 26.540,38.339 26.569,38.339 C26.569,38.331 26.569,38.324 26.569,38.317 C26.591,38.317 26.613,38.317 26.635,38.317 C26.635,38.309 26.635,38.302 26.635,38.295 C26.665,38.295 26.694,38.295 26.723,38.295 C26.723,38.287 26.723,38.280 26.723,38.273 C26.753,38.273 26.782,38.273 26.811,38.273 C26.811,38.265 26.811,38.258 26.811,38.251 C26.863,38.243 26.914,38.236 26.965,38.228 C26.965,38.221 26.965,38.214 26.965,38.206 C26.987,38.206 27.010,38.206 27.032,38.206 C27.032,38.199 27.032,38.192 27.032,38.184 C27.054,38.184 27.076,38.184 27.098,38.184 C27.098,38.177 27.098,38.170 27.098,38.162 C27.120,38.162 27.142,38.162 27.164,38.162 C27.164,38.155 27.164,38.148 27.164,38.140 C27.186,38.140 27.208,38.140 27.230,38.140 C27.230,38.133 27.230,38.126 27.230,38.118 C27.274,38.111 27.318,38.104 27.362,38.096 C27.362,38.089 27.362,38.082 27.362,38.074 C27.428,38.060 27.494,38.045 27.560,38.030 C27.560,38.023 27.560,38.016 27.560,38.008 C27.582,38.008 27.604,38.008 27.626,38.008 C27.626,38.001 27.626,37.994 27.626,37.986 C27.641,37.986 27.655,37.986 27.670,37.986 C27.670,37.979 27.670,37.972 27.670,37.964 C27.692,37.964 27.714,37.964 27.736,37.964 C27.736,37.957 27.736,37.950 27.736,37.942 C27.802,37.928 27.868,37.913 27.934,37.898 C27.934,37.891 27.934,37.884 27.934,37.876 C27.956,37.876 27.978,37.876 28.000,37.876 C28.000,37.869 28.000,37.862 28.000,37.854 C28.022,37.854 28.044,37.854 28.066,37.854 C28.066,37.847 28.066,37.839 28.066,37.832 C28.088,37.832 28.110,37.832 28.132,37.832 C28.132,37.825 28.132,37.817 28.132,37.810 C28.154,37.810 28.177,37.810 28.199,37.810 C28.332,37.757 28.479,37.675 28.639,37.656 ZM34.122,38.625 C34.122,34.963 34.122,31.300 34.122,27.638 C33.593,27.638 33.065,27.638 32.536,27.638 C32.536,27.645 32.536,27.652 32.536,27.660 C32.470,27.667 32.404,27.674 32.338,27.682 C32.338,27.689 32.338,27.696 32.338,27.704 C32.323,27.704 32.309,27.704 32.294,27.704 C32.294,27.711 32.294,27.718 32.294,27.726 C32.272,27.726 32.250,27.726 32.228,27.726 C32.228,27.733 32.228,27.740 32.228,27.748 C32.184,27.762 32.140,27.777 32.096,27.792 C32.096,27.799 32.096,27.807 32.096,27.814 C32.081,27.814 32.067,27.814 32.052,27.814 C32.052,27.821 32.052,27.829 32.052,27.836 C32.030,27.843 32.008,27.851 31.986,27.858 C31.979,27.873 31.971,27.887 31.964,27.902 C31.949,27.902 31.934,27.902 31.920,27.902 C31.890,27.939 31.861,27.975 31.832,28.012 C31.810,28.019 31.788,28.027 31.766,28.034 C31.766,28.049 31.766,28.063 31.766,28.078 C31.729,28.107 31.692,28.137 31.656,28.166 C31.656,28.181 31.656,28.196 31.656,28.210 C31.641,28.218 31.626,28.225 31.612,28.232 C31.604,28.254 31.597,28.276 31.589,28.298 C31.582,28.298 31.575,28.298 31.567,28.298 C31.567,28.313 31.567,28.328 31.567,28.342 C31.560,28.342 31.553,28.342 31.545,28.342 C31.531,28.386 31.516,28.430 31.501,28.474 C31.494,28.474 31.487,28.474 31.479,28.474 C31.479,28.496 31.479,28.518 31.479,28.540 C31.472,28.540 31.465,28.540 31.457,28.540 C31.457,28.555 31.457,28.570 31.457,28.584 C31.450,28.584 31.443,28.584 31.435,28.584 C31.428,28.651 31.421,28.717 31.413,28.783 C31.406,28.783 31.399,28.783 31.391,28.783 C31.391,29.377 31.391,29.972 31.391,30.566 C31.391,32.276 31.391,33.986 31.391,35.696 C31.391,36.291 31.391,36.885 31.391,37.480 C31.399,37.480 31.406,37.480 31.413,37.480 C31.421,37.546 31.428,37.612 31.435,37.678 C31.443,37.678 31.450,37.678 31.457,37.678 C31.457,37.693 31.457,37.707 31.457,37.722 C31.465,37.722 31.472,37.722 31.479,37.722 C31.479,37.744 31.479,37.766 31.479,37.788 C31.487,37.788 31.494,37.788 31.501,37.788 C31.516,37.832 31.531,37.876 31.545,37.920 C31.553,37.920 31.560,37.920 31.567,37.920 C31.575,37.950 31.582,37.979 31.589,38.008 C31.604,38.016 31.619,38.023 31.634,38.030 C31.641,38.052 31.648,38.074 31.656,38.096 C31.685,38.118 31.714,38.140 31.744,38.162 C31.744,38.177 31.744,38.192 31.744,38.206 C31.751,38.206 31.758,38.206 31.766,38.206 C31.780,38.228 31.795,38.251 31.810,38.273 C31.824,38.273 31.839,38.273 31.854,38.273 C31.876,38.302 31.898,38.331 31.920,38.361 C31.934,38.361 31.949,38.361 31.964,38.361 C31.979,38.383 31.993,38.405 32.008,38.427 C32.037,38.434 32.067,38.441 32.096,38.449 C32.096,38.456 32.096,38.463 32.096,38.471 C32.111,38.471 32.125,38.471 32.140,38.471 C32.140,38.478 32.140,38.485 32.140,38.493 C32.184,38.507 32.228,38.522 32.272,38.537 C32.272,38.544 32.272,38.551 32.272,38.559 C32.294,38.559 32.316,38.559 32.338,38.559 C32.338,38.566 32.338,38.573 32.338,38.581 C32.507,38.641 32.755,38.625 32.977,38.625 C33.358,38.625 33.740,38.625 34.122,38.625 Z"/>
</svg>