<svg width="512" height="512" version="1.1" viewBox="0 0 512 512" xmlns="http://www.w3.org/2000/svg">
	<g transform="translate(0 -161.53)">
		<path fill="#9e9e9e" d="m345.66 568.81c-15.784-5.6489-24.934-14.641-31.086-30.549-4.4251-11.442-5.5062-39.071-2.1239-54.274 2.9098-13.079 9.6142-24.713 17.851-30.976 16.05-12.204 44.244-12.267 60.016-0.13552 6.4612 4.97 13.43 16.051 15.074 23.971l0.99453 4.7902-8.2506-0.43893c-8.2061-0.43656-8.2613-0.47026-10.224-6.2406-4.0995-12.05-17.357-19.366-31.656-17.469-9.07 1.2032-13.812 3.6712-19.499 10.149-6.8199 7.7674-9.5093 18.78-9.5806 39.229-0.046824 13.426 0.58488 19.395 2.7632 26.108 3.6802 11.341 13.037 21.074 22.921 23.842 9.3253 2.6109 22.482 1.2855 30.356-3.0582l6.2269-3.435v-28.952l-28.283-0.83026v-12.949h44.963v47.321l-3.9887 3.8154c-2.1938 2.0985-7.8673 5.5894-12.608 7.7576-11.586 5.2994-32.461 6.4051-43.866 2.3234zm-345.66-61.218v-62.368h15.955v124.74h-15.955zm46.414 0v-62.368h21.474l20 50.04c11 27.522 20.451 50.04 21.003 50.04s1.3117-1.1422 1.6881-2.5382c0.37633-1.396 9.3421-23.914 19.924-50.04l19.24-47.501h21.408v124.74h-17.8l1.0638-48.952c0.58512-26.924 0.68029-48.577 0.21149-48.12-0.4688 0.45755-9.5494 22.323-20.179 48.589l-19.327 47.757-12.916 0.85661-19.235-47.567c-10.579-26.162-19.705-48.322-20.281-49.245-0.57523-0.92284-0.83637 20.453-0.58032 47.501l0.46555 49.179h-16.161zm142.14 61.547c0-0.53144 10.575-28.659 23.5-62.506l23.5-61.54 14.367 0.85647 20.036 52.215c11.02 28.718 21.674 56.621 23.676 62.006l3.6407 9.7904h-16.8l-11.422-31.941-53.267 0.75681-10.804 30.459-8.2137 0.43499c-4.5175 0.23924-8.2137 1.764e-4 -8.2137-0.53126zm64.764-73.854c-5.6492-15.544-10.715-27.782-11.258-27.195-0.92 0.99378-20.146 53.264-20.146 54.771 0 0.37731 9.377 0.68601 20.838 0.68601h20.838zm180.36 12.307v-62.368h78.323v12.996l-61.643 0.7829-0.80707 39.887h55.198v12.99l-54.391 0.78922v43.513l61.643 0.7829v12.996h-78.323zm-387.26-181.37v-62.432l20.827 0.8523 19.993 49.314c10.996 27.123 20.199 49.862 20.451 50.53 0.25161 0.66881 9.5759-21.679 20.721-49.662l20.263-50.878 21.031-0.030907v124.74h-16.405l1.6778-100.79-40.809 100.93-12.846-0.86699-19.464-47.864c-10.705-26.325-19.724-48.517-20.043-49.314-0.31843-0.79773-0.21979 20.904 0.2192 48.227l0.79815 49.677h-16.414zm143.7 54.817c1.5991-4.1881 12.26-32.091 23.691-62.006l20.784-54.391 14.381-0.85923 23.478 61.347c12.913 33.741 23.47 61.87 23.46 62.508-0.0097 0.63811-3.7078 0.96446-8.218 0.72521-8.1465-0.43213-8.2134-0.4731-10.184-6.2367-1.0909-3.1909-3.6584-10.207-5.7055-15.592l-3.722-9.7904h-52.801l-11.115 31.909h-16.956zm72.08-40.612c-11.102-31.142-19.15-52.824-19.94-53.719-0.5536-0.62743-5.5831 11.611-11.177 27.195l-10.17 28.336h20.966c16.151 0 20.818-0.41641 20.32-1.813zm52.551-14.142v-62.368h15.955v124.74h-15.955zm46.414 0v-62.368l16.68 0.01244 62.368 95.597 0.38216-47.805 0.38216-47.805h15.916v124.74l-16.68-0.14627-60.918-93.876-0.38243 47.011-0.38243 47.011h-17.365z" stroke-width="1.4504"/>
	</g>
</svg>
