<svg width="300" height="300" version="1.1" viewBox="0 0 300 300" xmlns="http://www.w3.org/2000/svg">
	<g transform="translate(0 -217.62)">
		<g transform="matrix(.58594 0 0 .58901 -.0002123 -101.42)">
			<path d="m386.91 1049.9c-25.136-4.4601-44.759-14.342-62.337-31.392-24.452-23.717-37.044-57.096-33.682-89.287 2.1289-20.384 7.1173-34.778 17.361-50.095 15.744-23.541 39.342-39.744 66.787-45.857 48.52-10.808 96.758 10.608 123.34 54.758 4.9639 8.2442 8.0999 16.141 11.123 28.009 2.1502 8.4404 2.4872 11.987 2.4951 26.261 0.015 26.177-4.2813 41.059-17.721 61.391-11.855 17.934-34.714 35.129-55.781 41.96-15.108 4.8985-37.525 6.7455-51.587 4.2506zm35.877-18.147c18.518-3.7441 33.98-12.208 46.794-25.615 10.754-11.252 19.63-26.694 22.363-38.908 0.6682-2.986 1.6305-6.8111 2.1383-8.5004 1.7054-5.672 1.0854-25.649-1.0907-35.146-7.0021-30.558-28.995-56.415-57.495-67.597-13.922-5.4626-23.544-7.0309-39.506-6.4386-25.075 0.93034-43.775 8.9166-61.328 26.191-30.561 30.077-35.164 77.427-11.187 115.07 4.75 7.4563 19.094 21.852 26.762 26.859 11.321 7.3923 24.872 12.758 37.751 14.949 6.5263 1.1103 27.631 0.588 34.797-0.8609zm-26.296-36.091c-5.8593-0.5174-15.189-2.2536-21.753-4.0482l-5.7509-1.5724v-11.188c0-18.151 3.736-26.193 14.495-31.203 4.4658-2.0796 6.4757-2.3332 18.564-2.3419 12.591-9e-3 13.926 0.1746 18.754 2.5808 10.569 5.2666 14.197 13.079 14.197 30.57v10.794l-2.9609 1.5312c-6.3384 3.2776-24.867 5.8201-35.545 4.8773zm42.29-26.672c-0.7497-11.432-6.4502-20.419-16.05-25.3-1.7803-0.90536-3.4008-1.7902-3.601-1.9663-0.2002-0.17612 0.5954-1.54 1.7681-3.0309 1.1728-1.4909 2.8449-5.1622 3.716-8.1586l1.5838-5.448 11.15 0.39953c12.431 0.44541 16.54 1.9115 22.351 7.9735 5.3332 5.5638 6.3016 9.2265 6.3016 23.834v13.059l-2.7504 1.0531c-4.3275 1.6571-13.273 3.6696-18.875 4.2464l-5.1232 0.52742-0.4715-7.1888zm-89.297 4.8372c-3.3005-0.72438-7.5762-1.7292-9.5014-2.233l-3.5005-0.91582-0.30705-12.44c-0.35937-14.559 0.56182-18.557 5.5484-24.076 6.1904-6.8521 10.008-8.2379 23.914-8.6803 13.32-0.42382 12.238-0.88764 13.733 5.8876 0.31223 1.4154 1.7265 4.2811 3.1429 6.3682 1.4163 2.0871 2.4404 3.8869 2.2757 3.9995-0.1647 0.11262-2.3995 1.4069-4.9662 2.8762-9.3633 5.3597-14.836 14.717-14.836 25.367v5.3227l-4.7507-0.0788c-2.6129-0.0438-7.4511-0.67219-10.752-1.3964zm50.008-29.998c-0.5501-0.19589-2.2296-0.62708-3.7323-0.95818-3.6654-0.80768-9.7509-6.2844-11.419-10.277-1.7311-4.1432-1.7311-11.455 0-15.598 2.4813-5.9386 11.168-11.693 17.652-11.693 3.3842 0 9.128 2.2248 12.015 4.6538 10.32 8.6836 8.7 25.789-3.0132 31.817-2.6584 1.3682-9.8312 2.6496-11.502 2.0546zm-37.868-20.999c-11.536-4.1124-16.039-18.291-9.1269-28.737 4.0285-6.0874 12.443-9.4992 19.511-7.9111 8.2925 1.8632 14.622 8.6838 15.136 16.31 0.1863 2.766-0.4438 4.3671-2.7537 6.998-2.6829 3.0556-4.0579 5.6835-5.7515 10.992-0.56492 1.7707-6.3891 3.8287-10.651 3.7634-1.3752-0.0212-4.2389-0.65809-6.3637-1.4156zm66.406 0.57802c-1.6808-0.46851-2.6633-1.6319-3.0831-3.6509-0.897-4.3132-3.3431-8.5557-6.8625-11.902-4.6833-4.4527-4.1137-9.5331 1.7832-15.905 6.138-6.6319 15.535-7.9588 23.463-3.3129 19.32 11.323 6.3475 40.804-15.3 34.77zm-408.89 123.94c-7.4185-2.5625-12.161-6.7579-16.057-14.205-3.1554-6.0313-3.3258-6.8696-2.9273-14.405 0.42264-7.9932 0.45321-8.0692 30.792-76.512 29.348-66.208 30.539-68.675 35.432-73.42 4.1848-4.0578 13.04-9.0473 51.033-28.754 25.319-13.133 47.132-23.845 48.557-23.845 1.4693 0 6.2389 2.4214 11.039 5.6042 15.896 10.54 31.874 17.289 51.017 21.549 15.061 3.3516 40.83 3.3516 55.891 0 19.143-4.2601 35.121-11.009 51.017-21.549 4.9094-3.2553 9.5585-5.6042 11.092-5.6042 1.4519 0 5.0746 1.3487 8.0505 2.9972 4.9975 2.7683 5.2261 3.0478 2.9944 3.6606-1.3289 0.36486-6.7297 2.7907-12.002 5.3907-56.367 27.799-83.265 92.404-63.482 152.48 8.7982 26.717 26.091 48.725 52.412 66.708 2.3426 1.6004-6.4683 1.6989-153.54 1.7177-148.59 0.019-156.28-0.068-161.32-1.8095zm230.83-236.83c-45.684-3.146-85.535-36.851-101.46-85.81-5.9889-18.417-7.0123-26.013-7.0071-52.008 4e-3 -20.255 0.34348-25.878 2.1737-36.005 2.9147-16.129 6.5139-28.135 11.757-39.221 13.918-29.428 37.207-46.96 71.753-54.015 11.662-2.3816 45.899-2.3816 57.56 0 34.546 7.0552 57.835 24.587 71.753 54.015 5.2429 11.086 8.8421 23.093 11.757 39.221 1.8302 10.128 2.1697 15.75 2.1737 36.005 5e-3 25.995-1.0182 33.591-7.0071 52.008-14.479 44.527-50.653 78.28-90.454 84.401-8.1814 1.2582-17.185 1.8097-23.003 1.409z" fill="#e0e0e0"/>
		</g>
	</g>
</svg>
