<svg xmlns="http://www.w3.org/2000/svg" width="299.999" height="299.999" viewBox="0 0 299.999 299.999">
  <g transform="translate(0)">
    <g transform="translate(0 -217.624)">
      <g transform="translate(0.005 -101.41)">
        <path d="M226.7,618.381c-14.728-2.627-26.226-8.447-36.525-18.49-14.327-13.969-21.705-33.629-19.735-52.589,1.247-12.006,4.17-20.484,10.172-29.505a63.372,63.372,0,0,1,39.133-27.009c28.429-6.366,56.693,6.248,72.269,32.252a57.037,57.037,0,0,1,6.517,16.5c1.26,4.971,1.457,7.06,1.462,15.467.009,15.418-2.509,24.183-10.383,36.159-6.946,10.563-20.34,20.691-32.684,24.714-8.852,2.885-21.987,3.973-30.226,2.5Zm21.021-10.688a50.718,50.718,0,0,0,27.418-15.087c6.3-6.627,11.5-15.722,13.1-22.916.392-1.759.955-4.012,1.253-5.007,1-3.341.636-15.107-.639-20.7-4.1-18-16.989-33.228-33.688-39.814-8.157-3.217-13.8-4.141-23.148-3.792-14.692.548-25.649,5.252-35.934,15.426-17.907,17.715-20.6,45.6-6.555,67.775,2.783,4.392,11.188,12.871,15.681,15.82a59.933,59.933,0,0,0,22.119,8.8c3.824.654,16.19.346,20.389-.507ZM11.21,616.871c-4.347-1.509-7.125-3.98-9.408-8.367-1.849-3.552-1.949-4.046-1.715-8.484.248-4.708.266-4.753,18.042-45.065,17.2-39,17.894-40.449,20.761-43.244,2.452-2.39,7.641-5.329,29.9-16.936,14.835-7.735,27.616-14.044,28.451-14.044.861,0,3.656,1.426,6.468,3.3A85.521,85.521,0,0,0,133.6,496.725c8.825,1.974,23.924,1.974,32.748,0a85.521,85.521,0,0,0,29.892-12.692c2.877-1.917,5.6-3.3,6.5-3.3a13.862,13.862,0,0,1,4.717,1.765c2.928,1.631,3.062,1.8,1.755,2.156a74.449,74.449,0,0,0-7.032,3.175c-33.027,16.373-48.787,54.425-37.2,89.809,5.155,15.736,15.288,28.7,30.71,39.29,1.373.943-3.79,1-89.964,1.012-87.063.011-91.569-.04-94.522-1.066Zm135.25-139.49c-26.768-1.853-50.118-21.7-59.448-50.541-3.509-10.847-4.109-15.321-4.106-30.632,0-11.93.2-15.242,1.274-21.207,1.708-9.5,3.817-16.571,6.889-23.1,8.155-17.333,21.8-27.659,42.042-31.814,6.833-1.4,26.894-1.4,33.726,0,20.242,4.155,33.887,14.481,42.042,31.814,3.072,6.53,5.181,13.6,6.889,23.1,1.072,5.965,1.271,9.277,1.274,21.207,0,15.311-.6,19.785-4.106,30.632-8.484,26.226-29.679,46.106-53,49.711a68.019,68.019,0,0,1-13.478.83Z" fill="#e0e0e0"/>
      </g>
    </g>
    <g transform="translate(207.651 186.16)">
      <g transform="translate(0 17.84)">
        <path d="M162.731,28.658l23.6-6.442-1.25-2.526a3.326,3.326,0,0,0-4.454-1.5L159.5,28.658Z" transform="translate(-148.897 -17.84)" fill="#e0e0e0"/>
        <path d="M345.354,86.46a3.322,3.322,0,0,0-.878.12L338.932,88.1,322,92.716h27.6l-1.037-3.8A3.318,3.318,0,0,0,345.354,86.46Z" transform="translate(-300.594 -81.898)" fill="#e0e0e0"/>
        <path d="M52.465,215.56H3.331A3.328,3.328,0,0,0,.12,218.013a3.441,3.441,0,0,0-.12.871v37.035a3.325,3.325,0,0,0,3.324,3.324H52.458a3.325,3.325,0,0,0,3.324-3.324v-9.274H36.058a5.654,5.654,0,0,1-5.651-5.651V233.6a5.642,5.642,0,0,1,5.644-5.644H55.782v-9.074A3.315,3.315,0,0,0,52.465,215.56Z" transform="translate(0 -202.416)" fill="#e0e0e0"/>
        <path d="M517.781,437.632a3.321,3.321,0,0,0-1.163-.691,3.389,3.389,0,0,0-1.077-.179H495.724a3.325,3.325,0,0,0-3.324,3.324v7.4a3.325,3.325,0,0,0,3.324,3.324h19.817a3.387,3.387,0,0,0,1.077-.18,3.224,3.224,0,0,0,1.163-.691,3.313,3.313,0,0,0,1.084-2.453v-7.4A3.313,3.313,0,0,0,517.781,437.632Zm-15.117,6.814A1.663,1.663,0,0,1,501,446.108h-1.1a1.663,1.663,0,0,1-1.662-1.662v-1.1a1.628,1.628,0,0,1,.638-1.3,1.679,1.679,0,0,1,1.024-.359H501a1.663,1.663,0,0,1,1.662,1.662v1.1Z" transform="translate(-459.666 -408.912)" fill="#e0e0e0"/>
      </g>
    </g>
  </g>
</svg>
