<svg width="300" height="300" version="1.1" viewBox="0 0 300 300" xmlns="http://www.w3.org/2000/svg">
	<g transform="translate(0 -217.62)">
		<g transform="matrix(.58593 0 0 .58899 .0048853 -101.41)">
			<path d="m386.91 1049.9c-25.136-4.46-44.759-14.342-62.337-31.392-24.452-23.717-37.044-57.096-33.682-89.287 2.1289-20.384 7.1173-34.778 17.361-50.095 15.744-23.541 39.342-39.744 66.787-45.857 48.52-10.808 96.758 10.608 123.34 54.758 4.9639 8.2442 8.0999 16.141 11.123 28.009 2.1503 8.4404 2.4872 11.987 2.4951 26.261 0.015 26.177-4.2813 41.059-17.721 61.391-11.855 17.934-34.714 35.129-55.781 41.96-15.108 4.8985-37.525 6.7457-51.587 4.2506zm35.877-18.147c18.518-3.7443 33.98-12.208 46.794-25.615 10.754-11.252 19.63-26.694 22.363-38.908 0.6682-2.9858 1.6305-6.8111 2.1384-8.5003 1.7053-5.672 1.0853-25.649-1.0908-35.146-7.0021-30.558-28.995-56.415-57.495-67.597-13.922-5.4626-23.544-7.0309-39.506-6.4386-25.075 0.93034-43.775 8.9166-61.328 26.191-30.561 30.077-35.164 77.427-11.187 115.07 4.75 7.4564 19.094 21.852 26.762 26.859 11.321 7.3923 24.872 12.758 37.751 14.949 6.5263 1.1102 27.631 0.588 34.797-0.8608zm-67.043-37.192c-10.464-0.3989-9.9684 0.4593-9.5504-16.524l0.28964-11.768 28.978 29.036-5.4879-0.2056c-3.0184-0.1126-9.4218-0.3556-14.23-0.539zm10.986-20.015-14.74-14.765 55.522-55.496 29.48 29.53-55.522 55.496zm61.274-61.745-14.469-14.495 2.2417-2.2418 2.2418-2.2418 14.688 14.689c14.531 14.531 14.669 14.711 12.835 16.737-1.0193 1.1264-2.127 2.048-2.4614 2.048s-7.119-6.5226-15.077-14.495zm9.0373-9.0235-14.459-14.506 5.4233-5.4915c2.9828-3.0203 5.8947-5.4915 6.471-5.4915 1.2086 0 28.525 27.127 28.525 28.327 0 0.94651-10.02 11.681-10.897 11.674-0.3327-3e-3 -7.1115-6.5332-15.064-14.512zm-417.91 143.56c-7.4185-2.5624-12.161-6.7579-16.057-14.205-3.1554-6.0313-3.3258-6.8696-2.9273-14.405 0.42264-7.9932 0.45321-8.0691 30.792-76.512 29.348-66.208 30.539-68.675 35.432-73.42 4.1848-4.0578 13.04-9.0473 51.033-28.754 25.319-13.133 47.132-23.845 48.557-23.845 1.4693 0 6.2389 2.4214 11.039 5.6042 15.896 10.54 31.874 17.289 51.017 21.549 15.061 3.3516 40.83 3.3516 55.891 0 19.143-4.2601 35.121-11.009 51.017-21.549 4.9094-3.2553 9.5585-5.6042 11.092-5.6042 1.4519 0 5.0746 1.3487 8.0505 2.9972 4.9975 2.7683 5.2261 3.0478 2.9944 3.6606-1.3289 0.36487-6.7297 2.7907-12.002 5.3908-56.367 27.799-83.265 92.404-63.482 152.48 8.7982 26.717 26.091 48.725 52.412 66.708 2.3425 1.6003-6.4683 1.6989-153.54 1.7176-148.59 0.019-156.28-0.068-161.32-1.8094zm230.83-236.83c-45.684-3.146-85.535-36.851-101.46-85.81-5.9889-18.417-7.0123-26.013-7.0071-52.008 4e-3 -20.255 0.34349-25.878 2.1737-36.005 2.9147-16.129 6.5139-28.135 11.757-39.221 13.918-29.428 37.207-46.96 71.753-54.015 11.662-2.3816 45.899-2.3816 57.56 0 34.546 7.0552 57.835 24.587 71.753 54.015 5.2429 11.086 8.8421 23.093 11.757 39.221 1.8302 10.128 2.1697 15.75 2.1737 36.005 5e-3 25.995-1.0182 33.591-7.0071 52.008-14.479 44.527-50.653 78.28-90.454 84.401-8.1814 1.2582-17.185 1.8097-23.003 1.409z" fill="#e0e0e0"/>
		</g>
	</g>
</svg>
