<svg width="300" height="300" version="1.1" viewBox="0 0 300 300" xmlns="http://www.w3.org/2000/svg">
	<g transform="translate(0 -217.62)">
		<g transform="matrix(.58593 0 0 .589 .0027437 -101.42)">
			<path d="m386.92 1049.9c-27.487-4.8772-48.475-16.303-67.797-36.908-20.266-21.612-31.368-54.759-28.202-84.198 1.5062-14.004 3.4386-21.833 8.0636-32.667 11.36-26.613 36.094-49.824 63.386-59.486 17.494-6.1932 43.456-7.7334 61.194-3.6306 30.239 6.9942 54.306 23.828 71.829 50.242 6.7264 10.139 10.699 19.347 14.089 32.655 2.2047 8.6546 2.5184 12.005 2.5184 26.889 0 14.936-0.30972 18.219-2.5476 27.004-5.1494 20.216-14.044 35.495-29.439 50.566-10.766 10.54-27.531 20.752-41.507 25.283-15.108 4.8985-37.526 6.7457-51.588 4.2506zm35.877-18.148c18.526-3.7458 33.914-12.172 46.87-25.665 10.302-10.728 19.53-26.79 22.343-38.887 0.69071-2.9708 1.6498-6.7064 2.1314-8.3012 0.48156-1.5949 0.86401-8.346 0.84989-15.002-0.0574-27.071-9.0494-48.084-28.932-67.612-13.796-13.549-27.434-20.965-46.19-25.115-13.307-2.9445-33.505-2.289-46.168 1.4981-20.474 6.1234-36.738 17.664-48.83 34.65-10.47 14.707-15.214 28.294-16.492 47.236-0.99949 14.814 1.2847 26.881 8.0917 42.749 10.699 24.939 33.538 44.963 59.932 52.544 10.355 2.9741 11.644 3.1361 26.391 3.3159 7.7536 0.095 15.141-0.4259 20.003-1.4089zm-53.301-40.095c-14.852-6.3691-27.838-12.316-28.857-13.216-4.4628-3.9401-4.6484-5.4615-4.6484-38.112v-31.07l3.2506-3.4823c2.553-2.735 9.1075-6.0587 30.543-15.488 18.581-8.1736 28.477-12.013 31.005-12.028 3.3495-0.0199 26.163 8.7114 26.191 10.024 6e-3 0.27505-14.051 7.0907-31.237 15.146l-31.248 14.646-0.28527 9.5262-0.28526 9.5261 10.572 4.8054 0.50008-9.5414 0.50009-9.5414 62.974-29.686 10.02 4.2785c6.3452 2.7093 11.396 5.6228 13.771 7.9439l3.7506 3.6654v31.172c0 32.76-0.18397 34.272-4.6484 38.215-1.019 0.8999-14.085 6.8623-29.035 13.25-20.972 8.9602-28.17 11.606-31.505 11.58-3.2453-0.026-11.056-2.9212-31.328-11.614zm65.111-14.56c19.489-8.1505 24.404-10.581 24.404-12.07 0-2.3466 1.4279-2.8352-26.5 9.0669-15.811 6.7382-23.102 10.334-23.327 11.505-0.18041 0.9367-0.0249 1.7033 0.34564 1.7033 0.37051 0 11.655-4.5926 25.078-10.206zm-13.553-2.3221 2.9508-1.526v-10.688c0-10.312 0.0915-10.762 2.6005-12.762l2.6005-2.0736-3.7305-4.465c-2.0518-2.4559-4.2346-4.4652-4.8509-4.4652-1.0543 0-6.4705 10.28-8.0566 15.292-0.65988 2.0849-0.48645 2.2297 1.9415 1.6203 2.5646-0.6437 2.6591-0.5214 2.4833 3.2114-0.33193 7.0475 1e-3 17.383 0.5608 17.383 0.30236 0 1.8776-0.6867 3.5006-1.5259zm27.732-12.033c2.0737-1.4525 2.2229-2.3142 2.2229-12.842 0-11.066 0.0484-11.307 2.5004-12.424 3.3713-1.5361 3.1278-2.8918-1.4699-8.1833-4.7424-5.4581-5.2779-5.1417-10.414 6.1538-3.5947 7.9064-3.6942 9.4945-0.48713 7.7782 1.7725-0.9486 1.8688-0.4314 1.8688 10.037 0 9.9098 0.18158 11.037 1.7778 11.037 0.9778 0 2.7781-0.7006 4.0007-1.557zm-429.65 84.61c-7.4187-2.5624-12.161-6.7581-16.058-14.205-3.1554-6.0313-3.3258-6.8698-2.9274-14.405 0.42265-7.9935 0.45321-8.0694 30.792-76.513 29.349-66.21 30.539-68.677 35.433-73.421 4.1849-4.0578 13.041-9.0475 51.034-28.755 25.319-13.133 47.132-23.845 48.557-23.845 1.4693 0 6.239 2.4214 11.039 5.6043 15.897 10.541 31.874 17.289 51.018 21.549 15.061 3.3516 40.831 3.3516 55.892 0 19.144-4.2602 35.121-11.009 51.018-21.549 4.9095-3.2553 9.5587-5.6043 11.092-5.6043 1.452 0 5.0747 1.3487 8.0506 2.9972 5.0859 2.8173 5.2606 3.0379 2.9103 3.6752-1.3752 0.37291-7.2262 3.0554-13.002 5.961-34.519 17.365-58.365 48.701-66.732 87.692-2.436 11.352-2.436 37.039 0 48.392 7.4915 34.911 25.596 61.239 56.745 82.52 2.3426 1.6005-6.4684 1.699-153.54 1.7177-148.59 0.019-156.28-0.067-161.32-1.8094zm230.83-236.83c-45.685-3.146-85.537-36.852-101.46-85.812-5.989-18.418-7.0124-26.013-7.0072-52.009 4e-3 -20.255 0.34348-25.878 2.1737-36.006 2.9148-16.129 6.514-28.136 11.757-39.222 13.918-29.429 37.207-46.961 71.754-54.016 11.662-2.3816 45.9-2.3816 57.561 0 34.547 7.0553 57.836 24.587 71.754 54.016 5.243 11.086 8.8422 23.093 11.757 39.222 1.8303 10.128 2.1697 15.751 2.1737 36.006 5e-3 25.995-1.0182 33.591-7.0072 52.009-14.48 44.528-50.654 78.282-90.456 84.403-8.1816 1.2583-17.185 1.8098-23.004 1.409z" fill="#e0e0e0"/>
		</g>
	</g>
</svg>
