<svg width="300" height="300" version="1.1" viewBox="0 0 300 300" xmlns="http://www.w3.org/2000/svg">
	<g transform="translate(0 -217.62)">
		<g transform="matrix(.58592 0 0 .58901 .0086696 -101.43)">
			<path d="m386.91 1049.9c-25.136-4.4601-44.759-14.342-62.337-31.392-24.452-23.717-37.044-57.096-33.682-89.287 2.1289-20.384 7.1173-34.778 17.361-50.095 15.744-23.541 39.342-39.744 66.787-45.857 48.52-10.808 96.758 10.608 123.34 54.758 4.9639 8.2442 8.1 16.141 11.123 28.009 2.1502 8.4404 2.4872 11.987 2.4951 26.261 0.014 26.177-4.2813 41.059-17.721 61.391-11.855 17.934-34.714 35.13-55.781 41.96-15.108 4.8985-37.525 6.7455-51.587 4.2506zm35.877-18.147c18.518-3.7441 33.98-12.208 46.794-25.615 10.754-11.252 19.63-26.694 22.363-38.908 0.6682-2.986 1.6305-6.8111 2.1384-8.5004 1.7053-5.672 1.0853-25.649-1.0907-35.146-7.0022-30.558-28.995-56.415-57.495-67.597-13.922-5.4626-23.544-7.0309-39.506-6.4386-25.075 0.93034-43.775 8.9166-61.328 26.191-30.561 30.077-35.164 77.427-11.187 115.07 4.75 7.4563 19.094 21.852 26.762 26.859 11.321 7.3923 24.872 12.758 37.751 14.949 6.5263 1.1103 27.631 0.588 34.797-0.8609zm-72.435-41.536c-4.0712-1.1801-10.09-7.8865-10.863-12.104-0.33371-1.8207-0.47165-19.773-0.30654-39.895l0.30017-36.585 2.892-3.7901c1.5906-2.0846 4.8427-4.653 7.227-5.7077 4.1108-1.8184 6.8628-1.9028 53.191-1.6314l48.856 0.2862 3.6228 2.4832c1.9925 1.3658 4.5469 4.1274 5.6763 6.1371 1.9707 3.5063 2.0536 5.1802 2.0536 41.436v37.782l-2.4862 4.2425c-1.6578 2.8288-3.9292 4.941-6.8168 6.3388-4.2206 2.0432-5.5468 2.094-52.272 2.0062-26.368-0.05-49.351-0.4988-51.074-0.9982zm102.23-10.219 2.4132-2.8061v-72.99l-2.4549-2.4549c-1.3502-1.3502-3.488-2.4692-4.7507-2.4868-33.306-0.46196-95.307 0.22767-96.896 1.0778-1.1058 0.5918-2.4391 2.2031-2.9628 3.5807-1.3196 3.4709-1.2524 71.956 0.0731 74.432 2.6063 4.8698 3.1886 4.9199 54.32 4.6791l47.844-0.2255 2.4132-2.8062zm-86.052-12.037c-1.5053-1.1006-1.7436-2.2816-1.3296-6.59 0.68104-7.088 3.6144-10.026 10.898-10.915 6.8897-0.84088 7.4828-3.0229 2.346-8.631-5.7938-6.3254-6.9669-10.035-3.9618-12.529 0.82512-0.68479 1.5002-2.5625 1.5002-4.1727 0-3.6802 2.3145-8.2353 5.2176-10.269 1.2522-0.87706 4.2884-1.5609 6.93-1.5609 6.3993 0 10.233 3.2366 11.858 10.011 0.65941 2.7487 1.6038 5.2478 2.0986 5.5536 0.49481 0.3058 0.89966 2.0668 0.89966 3.9134 0 2.6026-1.0173 4.4442-4.5252 8.1922-6.1007 6.5181-5.7837 8.654 1.3914 9.3743 4.4293 0.44459 5.8715 1.103 8.2512 3.7663 2.355 2.6357 2.8838 4.135 2.8838 8.1774 0 3.87-0.42198 5.1756-1.9346 5.9851-3.0495 1.6321-40.239 1.3647-42.524-0.3057zm47.577-9.1033c-0.61539-2.4439-1.1189-4.6942-1.1189-5.0008 0-0.75704 20.437-0.71174 22.422 0.0501 1.1104 0.42619 1.582 1.917 1.582 5.0008v4.3937h-21.766l-1.1189-4.4435zm-13.121-14.613c0-0.57947 1.2377-2.6048 2.7504-4.5006l2.7504-3.4471 30.504-6e-5v9.0014h-18.003c-11.944 0-18.003-0.35459-18.003-1.0536zm3.1888-18.699c-0.57994-1.5127-1.34-3.7631-1.689-5.0008l-0.63454-2.2503h35.14v4.3937c0 3.0838-0.47164 4.5747-1.582 5.0008-0.87012 0.3339-8.0166 0.60708-15.881 0.60708h-14.299l-1.0544-2.7504zm-385.05 121.81c-7.4185-2.5625-12.161-6.7579-16.057-14.205-3.1554-6.0313-3.3257-6.8697-2.9273-14.405 0.42264-7.9932 0.45321-8.0692 30.792-76.512 29.348-66.209 30.539-68.675 35.432-73.42 4.1849-4.0578 13.04-9.0473 51.033-28.754 25.319-13.133 47.132-23.845 48.557-23.845 1.4693 0 6.2389 2.4214 11.039 5.6042 15.896 10.54 31.874 17.289 51.017 21.549 15.061 3.3516 40.83 3.3516 55.891 0 19.143-4.2601 35.121-11.009 51.017-21.549 4.9094-3.2553 9.5585-5.6042 11.092-5.6042 1.4519 0 5.0746 1.3487 8.0505 2.9972 4.9975 2.7683 5.2261 3.0478 2.9944 3.6606-1.3289 0.36487-6.7297 2.7907-12.002 5.3908-56.367 27.799-83.265 92.404-63.482 152.48 8.7982 26.716 26.091 48.725 52.412 66.708 2.3426 1.6004-6.4683 1.6989-153.54 1.7177-148.59 0.019-156.28-0.068-161.32-1.8095zm230.83-236.83c-45.684-3.146-85.535-36.851-101.46-85.81-5.9889-18.417-7.0123-26.013-7.0071-52.008 4e-3 -20.255 0.34348-25.878 2.1737-36.005 2.9147-16.129 6.5139-28.136 11.757-39.221 13.918-29.428 37.207-46.96 71.753-54.015 11.662-2.3816 45.899-2.3816 57.56 0 34.546 7.0552 57.835 24.587 71.753 54.015 5.2429 11.086 8.8421 23.093 11.757 39.221 1.8302 10.128 2.1697 15.75 2.1737 36.005 5e-3 25.995-1.0182 33.591-7.0071 52.008-14.479 44.527-50.653 78.28-90.454 84.401-8.1814 1.2582-17.185 1.8097-23.003 1.409z" fill="#e0e0e0"/>
		</g>
	</g>
</svg>
