<svg width="300" height="300" version="1.1" viewBox="0 0 300 300" xmlns="http://www.w3.org/2000/svg">
	<g transform="translate(0 -217.62)">
		<g transform="matrix(.58594 0 0 .589 .0013697 -101.42)">
			<path d="m386.91 1049.9c-25.136-4.46-44.759-14.342-62.337-31.392-24.452-23.717-37.044-57.096-33.682-89.287 2.1289-20.384 7.1173-34.778 17.361-50.095 15.744-23.541 39.342-39.744 66.787-45.857 48.52-10.808 96.758 10.608 123.34 54.758 4.9639 8.2442 8.1 16.141 11.123 28.009 2.1502 8.4404 2.4872 11.987 2.495 26.261 0.0145 26.177-4.2813 41.059-17.721 61.391-11.855 17.934-34.714 35.13-55.781 41.96-15.108 4.8984-37.525 6.7455-51.587 4.2505zm35.877-18.147c18.518-3.7441 33.98-12.208 46.794-25.615 10.754-11.252 19.63-26.694 22.363-38.908 0.66822-2.9859 1.6305-6.8111 2.1384-8.5004 1.7053-5.672 1.0853-25.649-1.0908-35.146-7.0021-30.558-28.995-56.415-57.495-67.597-13.922-5.4626-23.544-7.0309-39.506-6.4386-25.075 0.93034-43.775 8.9166-61.328 26.191-30.561 30.077-35.164 77.427-11.187 115.07 4.75 7.4563 19.094 21.852 26.762 26.859 11.321 7.3923 24.872 12.758 37.751 14.949 6.5263 1.1102 27.631 0.588 34.797-0.861zm-3.7927-24.111c-36.332-5.7222-64.288-26.181-79.171-57.94-6.1404-13.103-8.148-21.889-8.2527-36.116l-0.0899-12.21 4.9388-5.0183c5.8229-5.9166 9.9077-8.0681 15.317-8.0681 4.321 0 9.3298 2.833 12.442 7.0375 2.951 3.9861 6.9838 19.672 6.5014 25.287-0.35018 4.0759-1.0886 5.5073-4.7826 9.2712l-4.3684 4.4511 1.8351 5.231c5.5197 15.734 19.285 29.618 35.455 35.763l5.0603 1.9228 4.1137-3.9524c6.4449-6.1922 10.179-6.7411 22.908-3.3671 8.3828 2.2219 11.343 3.5019 14.322 6.1932 4.7447 4.2866 6.4761 9.8929 4.7915 15.515-1.2785 4.2672-8.8272 12.998-13.188 15.253-2.5576 1.3225-11.737 1.7069-17.834 0.7466zm-35.339-81.013c-0.36673-0.36672-0.66677-1.7372-0.66677-3.0456 0-1.6801 2.3944-4.6421 8.1524-10.085 9.9137-9.371 13.851-14.589 13.851-18.358 0-6.2841-6.9305-8.7109-14.238-4.9856l-3.6588 1.8654-1.493-3.6156c-1.3994-3.3889-1.3663-3.7238 0.52696-5.341 4.3085-3.6802 15.235-4.9225 21.145-2.4042 5.405 2.303 7.9982 5.9502 8.4956 11.948 0.57849 6.9758-1.8656 11.809-9.9693 19.714l-6.1224 5.9723h17.315v9.0014h-16.336c-8.9847 0-16.636-0.30005-17.003-0.66677zm59.342-4.7991v-5.4658l-20.504-0.57005-0.0943-3.0004c-0.11817-3.7581 0.12963-4.2574 9.8018-19.753l7.9596-12.752h13.838v26.872l2.7504 0.31646c2.4893 0.28643 2.7504 0.69626 2.7504 4.3171s-0.26111 4.0306-2.7504 4.3171c-2.6242 0.30195-2.7504 0.56592-2.7504 5.7508v5.4344h-11.002v-5.4658zm0-21.956c0-4.0806 0.24658-8.2438 0.54797-9.2514 0.80519-2.692-0.74403-0.38391-5.9869 8.9196l-4.368 7.7512h9.807v-7.4193zm-423.86 147.47c-7.4185-2.5624-12.161-6.7579-16.057-14.205-3.1554-6.0312-3.3258-6.8697-2.9273-14.405 0.42264-7.9932 0.45321-8.0692 30.792-76.512 29.348-66.208 30.539-68.675 35.432-73.42 4.1849-4.0578 13.04-9.0473 51.033-28.754 25.319-13.133 47.132-23.845 48.557-23.845 1.4693 0 6.2389 2.4214 11.039 5.6042 15.896 10.54 31.874 17.289 51.017 21.549 15.061 3.3516 40.83 3.3516 55.891 0 19.143-4.2601 35.121-11.009 51.017-21.549 4.9094-3.2553 9.5585-5.6042 11.092-5.6042 1.4519 0 5.0746 1.3487 8.0505 2.9972 4.9975 2.7683 5.2261 3.0478 2.9944 3.6606-1.3289 0.36487-6.7297 2.7907-12.002 5.3908-56.367 27.799-83.265 92.404-63.482 152.48 8.7982 26.716 26.091 48.725 52.412 66.708 2.3425 1.6004-6.4683 1.6989-153.54 1.7176-148.59 0.019-156.28-0.067-161.32-1.8094zm230.83-236.83c-45.684-3.146-85.535-36.851-101.46-85.81-5.9889-18.417-7.0123-26.013-7.0071-52.008 4e-3 -20.255 0.34348-25.878 2.1737-36.005 2.9147-16.129 6.5139-28.135 11.757-39.221 13.918-29.428 37.207-46.96 71.753-54.015 11.662-2.3816 45.899-2.3816 57.56 0 34.546 7.0552 57.835 24.587 71.753 54.015 5.2429 11.086 8.8421 23.093 11.757 39.221 1.8302 10.128 2.1697 15.75 2.1737 36.005 5e-3 25.995-1.0182 33.591-7.0071 52.008-14.479 44.527-50.653 78.28-90.454 84.401-8.1814 1.2582-17.185 1.8097-23.003 1.409z" fill="#e0e0e0"/>
		</g>
	</g>
</svg>
