<svg width="300" height="300" version="1.1" viewBox="0 0 300 300" xmlns="http://www.w3.org/2000/svg">
	<g transform="translate(0 -217.62)">
		<g transform="matrix(.58594 0 0 .58903 -.00023644 -101.45)">
			<path d="m386.91 1049.9c-25.136-4.4601-44.759-14.342-62.337-31.392-24.452-23.717-37.044-57.096-33.682-89.287 2.1289-20.384 7.1173-34.778 17.361-50.095 15.744-23.541 39.342-39.744 66.787-45.857 48.52-10.808 96.758 10.608 123.34 54.758 4.9639 8.2442 8.0999 16.141 11.123 28.009 2.1502 8.4404 2.4872 11.987 2.4951 26.261 0.014 26.177-4.2813 41.059-17.721 61.391-11.855 17.934-34.714 35.13-55.781 41.96-15.108 4.8985-37.525 6.7455-51.587 4.2506zm35.877-18.147c18.518-3.7441 33.98-12.208 46.794-25.615 10.754-11.252 19.63-26.694 22.363-38.908 0.66823-2.9859 1.6305-6.8111 2.1384-8.5004 1.7053-5.672 1.0853-25.649-1.0908-35.146-7.0021-30.558-28.995-56.415-57.495-67.597-13.922-5.4626-23.544-7.0309-39.506-6.4386-25.075 0.93034-43.775 8.9166-61.328 26.191-30.561 30.077-35.164 77.427-11.187 115.07 4.75 7.4563 19.094 21.852 26.762 26.859 11.321 7.3923 24.872 12.758 37.751 14.949 6.5263 1.1103 27.631 0.588 34.797-0.8609zm-32.762-23.379c-0.56944-1.0639-1.037-3.2018-1.0391-4.7506-9e-3 -6.5273-7.2806-13.307-14.281-13.314-4.3769 0-9.6146 1.9575-11.592 4.342-2.3443 2.8268-5.0605 1.8614-11.176-3.9719-7.2868-6.9504-7.8542-8.5064-4.6388-12.722 4.8261-6.3274 5.2354-13.115 1.1655-19.327-2.2215-3.3905-7.3934-6.3223-11.161-6.3268-5.1665-6e-3 -6.3224-2.0432-6.3224-11.143 0-9.2013 1.0254-11.865 4.568-11.865 3.3172 0 9.367-2.5888 12.142-5.1956 5.1616-4.849 5.3006-14.007 0.30808-20.289-1.7354-2.1838-2.6265-4.2924-2.3159-5.4804 0.77049-2.9463 11.836-13.042 14.295-13.042 1.1777 0 3.7339 1.2148 5.6805 2.6995 4.6199 3.5238 12.735 3.8779 16.943 0.73922 4.1576-3.1011 6.3729-6.5442 7.0537-10.963 0.95036-6.1685 1.5192-6.4775 11.924-6.4775 10.266 0 11.41 0.66982 11.418 6.6853 9e-3 6.5273 7.2806 13.307 14.281 13.314 4.3769 4e-3 9.6146-1.9576 11.592-4.342 2.3443-2.8268 5.0605-1.8615 11.176 3.9718 7.2868 6.9504 7.8542 8.5065 4.6388 12.722-5.0734 6.6516-5.2592 14.114-0.50214 20.162 2.3603 3.0006 7.4137 5.4954 11.132 5.4954 4.301 0 5.688 2.8382 5.688 11.639 0 9.4271-0.88533 10.931-6.8691 11.668-11.887 1.4637-18.036 15.721-10.594 24.565 3.8792 4.6102 3.2429 7.0855-3.4661 13.485-3.4229 3.2649-6.8312 5.653-8.0679 5.653-1.1777 0-3.7339-1.2148-5.6805-2.6994-4.62-3.5239-12.735-3.8779-16.943-0.7393-4.1576 3.1011-6.3729 6.5442-7.0537 10.963-0.95036 6.1685-1.5192 6.4776-11.924 6.4776-8.2143 0-9.4689-0.2339-10.379-1.9347zm21.715-46.943c11.301-5.7651 15.484-19.26 9.6198-31.029-8.6452-17.349-33.232-16.522-41.485 1.3954-5.3866 11.694 1.1624 26.403 13.864 31.138 4.8335 1.8018 12.831 1.1336 18.001-1.5039zm-392.6 85.94c-7.4185-2.5625-12.161-6.7579-16.057-14.205-3.1554-6.0313-3.3257-6.8697-2.9273-14.405 0.42264-7.9932 0.45321-8.0692 30.792-76.512 29.348-66.209 30.539-68.675 35.432-73.42 4.1849-4.0578 13.04-9.0473 51.033-28.754 25.319-13.133 47.132-23.845 48.557-23.845 1.4693 0 6.2389 2.4214 11.039 5.6042 15.896 10.54 31.874 17.289 51.017 21.549 15.061 3.3516 40.83 3.3516 55.891 0 19.143-4.2601 35.121-11.009 51.017-21.549 4.9094-3.2553 9.5585-5.6042 11.092-5.6042 1.4519 0 5.0746 1.3487 8.0505 2.9972 4.9975 2.7683 5.2261 3.0478 2.9944 3.6606-1.3289 0.36487-6.7297 2.7907-12.002 5.3908-56.367 27.799-83.265 92.404-63.482 152.48 8.7982 26.716 26.091 48.725 52.412 66.708 2.3426 1.6004-6.4683 1.6989-153.54 1.7177-148.59 0.019-156.28-0.068-161.32-1.8095zm230.83-236.83c-45.684-3.146-85.535-36.851-101.46-85.81-5.9889-18.417-7.0123-26.013-7.0071-52.008 4e-3 -20.255 0.34348-25.878 2.1737-36.005 2.9147-16.129 6.5139-28.136 11.757-39.221 13.918-29.428 37.207-46.96 71.753-54.015 11.662-2.3816 45.899-2.3816 57.56 0 34.546 7.0552 57.835 24.587 71.753 54.015 5.2429 11.086 8.8421 23.093 11.757 39.221 1.8302 10.128 2.1697 15.75 2.1737 36.005 5e-3 25.995-1.0182 33.591-7.0071 52.008-14.479 44.527-50.653 78.28-90.454 84.401-8.1814 1.2582-17.185 1.8097-23.003 1.409z" fill="#e0e0e0"/>
		</g>
	</g>
</svg>
