<svg width="300" height="300" version="1.1" viewBox="0 0 300 300" xmlns="http://www.w3.org/2000/svg">
	<g transform="translate(0 -217.62)">
		<g transform="matrix(.58594 0 0 .58906 -.0011153 -101.49)">
			<path d="m386.91 1049.9c-25.136-4.46-44.759-14.342-62.337-31.392-24.452-23.717-37.044-57.096-33.682-89.287 2.1289-20.384 7.1173-34.778 17.361-50.095 15.744-23.541 39.342-39.744 66.787-45.857 48.52-10.808 96.758 10.608 123.34 54.758 4.9639 8.2442 8.0999 16.141 11.123 28.009 2.1502 8.4404 2.4872 11.987 2.4951 26.261 0.014 26.177-4.2813 41.059-17.721 61.391-11.855 17.934-34.714 35.129-55.781 41.96-15.108 4.8983-37.525 6.7455-51.587 4.2504zm35.877-18.147c18.518-3.7443 33.98-12.208 46.794-25.615 10.754-11.252 19.63-26.694 22.363-38.908 0.66823-2.986 1.6305-6.8112 2.1384-8.5004 1.7053-5.672 1.0853-25.649-1.0908-35.146-7.0021-30.558-28.995-56.415-57.495-67.597-13.922-5.4626-23.544-7.0309-39.506-6.4386-25.075 0.93034-43.775 8.9166-61.328 26.191-30.561 30.077-35.164 77.427-11.187 115.07 4.75 7.4563 19.094 21.852 26.762 26.859 11.321 7.3923 24.872 12.758 37.751 14.949 6.5263 1.1102 27.631 0.588 34.797-0.8608zm-22.938-24.457c-5.5548-1.3911-53.462-23.446-57.319-26.388-5.9949-4.5725-10.99-18.728-9.1694-25.983l0.62291-2.4818 58.412 23.678 1.1008 5.3415c2.2186 10.766 7.1111 15.832 15.296 15.839 7.8571 0.013 12.038-3.6078 18.022-15.58 3.236-6.4744 19.917-50.436 26.234-69.137 3.3587-9.9432 3.5982-11.27 2.1186-11.738-9.1069-2.8812-64.746-16.359-65.214-15.797-0.33817 0.40672-6.5904 16.042-13.894 34.745-7.3034 18.703-13.445 34.18-13.648 34.393-0.62856 0.6608-9.4278-2.0997-9.4278-2.9577 0-0.92208 27.734-71.524 29.135-74.169 1.7945-3.3875 4.1637-3.7472 11.947-1.8141 4.0836 1.0142 21.827 5.3 39.429 9.524 29.919 7.1794 35.505 9.0603 35.505 11.955 0 1.3896-12.309 36.357-22.027 62.575-11.519 31.076-17.569 41.243-27.311 45.9-4.9173 2.3506-14.674 3.3823-19.814 2.0953zm2.1425-43.378c-9.8103-3.6413-11.642-4.6656-12.452-6.9652-0.78414-2.2236-0.55967-3.0868 1.2806-4.9249l2.2314-2.2287 12.722 4.3846c14.68 5.0595 17.093 6.7313 15.654 10.846-1.4615 4.181-5.8522 3.9298-19.435-1.1119zm-26.819-9.3019c-2.4581-0.9834-3.3877-5.3601-1.6892-7.9524 2.7904-4.2587 10.505-2.0818 10.505 2.9642 0 3.7134-4.9713 6.5263-8.816 4.9882zm36.846-11.936c-6.8618-2.4696-12.818-5.0286-13.237-5.6867-1.482-2.3313-0.76809-5.6663 1.5362-7.1761 2.1628-1.4171 3.1357-1.2375 13.752 2.5396 13.667 4.8627 15.925 6.1964 15.925 9.4072 0 2.0704-3.2783 5.6764-4.9733 5.4704-0.29017-0.035-6.1418-2.0848-13.004-4.5545zm-29.494-11.344c-1.1981-1.3239-1.5692-2.7753-1.1434-4.4718 1.289-5.1359 8.309-5.7163 10.517-0.86958 2.5692 5.6387-5.1331 10.027-9.374 5.3414zm39.672-10.059c-13.324-4.1048-15.212-5.1436-15.189-8.3567 0.0435-6.0489 3.2261-6.25 19.231-1.215 12.043 3.7885 14.17 5.2973 13.122 9.3051-1.1089 4.2404-4.114 4.2871-17.164 0.26659zm-31.755-11.418c-2.8303-4.3195 1.8846-9.5317 6.898-7.6256 3.2927 1.2519 4.2401 4.5112 2.2113 7.6075-2.1893 3.3413-6.9256 3.3507-9.1093 0.0181zm-371.3 137.54c-7.4185-2.5624-12.161-6.7579-16.057-14.205-3.1554-6.0313-3.3257-6.8696-2.9273-14.405 0.42264-7.9932 0.45321-8.0691 30.792-76.511 29.348-66.209 30.539-68.675 35.432-73.42 4.1849-4.0578 13.04-9.0473 51.033-28.754 25.319-13.133 47.132-23.845 48.557-23.845 1.4693 0 6.2389 2.4214 11.039 5.6042 15.896 10.54 31.874 17.289 51.017 21.549 15.061 3.3516 40.83 3.3516 55.891 0 19.143-4.2601 35.121-11.009 51.017-21.549 4.9094-3.2553 9.5585-5.6042 11.092-5.6042 1.4519 0 5.0746 1.3487 8.0505 2.9972 4.9975 2.7683 5.2261 3.0478 2.9944 3.6606-1.3289 0.36487-6.7297 2.7907-12.002 5.3908-56.367 27.799-83.265 92.404-63.482 152.48 8.7982 26.717 26.091 48.725 52.412 66.708 2.3426 1.6003-6.4683 1.6989-153.54 1.7175-148.59 0.019-156.28-0.068-161.32-1.8093zm230.83-236.83c-45.684-3.146-85.535-36.851-101.46-85.81-5.9889-18.417-7.0123-26.013-7.0071-52.008 4e-3 -20.255 0.34348-25.878 2.1737-36.005 2.9147-16.129 6.5139-28.136 11.757-39.221 13.918-29.428 37.207-46.96 71.753-54.015 11.662-2.3816 45.899-2.3816 57.56 0 34.546 7.0552 57.835 24.587 71.753 54.015 5.2429 11.086 8.8421 23.093 11.757 39.221 1.8302 10.128 2.1697 15.75 2.1737 36.005 5e-3 25.995-1.0182 33.591-7.0071 52.008-14.479 44.527-50.653 78.28-90.454 84.401-8.1814 1.2582-17.185 1.8097-23.003 1.409z" fill="#e0e0e0"/>
		</g>
	</g>
</svg>
