<svg width="512" height="512" version="1.1" viewBox="0 0 512 512" xmlns="http://www.w3.org/2000/svg">
	<g transform="translate(0 -161.53)">
		<path fill="#E0E0E0" d="m16.84 668.65c-12.082-5.7158-18.945-19.03-16.261-31.546 1.2326-5.7473 60.543-139.34 63.484-142.99 1.2937-1.607 4.0032-4.0905 6.0212-5.5189 6.4874-4.592 93.785-49.578 96.209-49.578 1.3568 0 4.0433 1.3247 6.6283 3.2684 16.126 12.125 41.151 22.301 62.783 25.529 10.853 1.6196 30.039 1.5977 41.115-0.046854 21.79-3.2355 45.176-12.687 61.956-25.039 3.1697-2.3334 5.9194-3.7108 7.4076-3.7108 3.3922 0 93.736 47.219 98.662 51.566 2.0788 1.8347 4.77 5.1639 5.9802 7.3982 1.2103 2.2344 15.467 33.927 31.682 70.429l29.481 66.366 0.01299 7.5132c0.010475 6.058-0.35309 8.3087-1.877 11.621-3.1117 6.7624-7.1237 10.932-13.672 14.208l-5.9412 2.9723-468.51-0.0013172zm222.2-237.52c-21.595-3.926-41.168-14.512-57.688-31.2-18.489-18.678-31.788-44.389-37.042-71.613-6.0546-31.374-2.0728-75.89 9.2028-102.89 14.292-34.22 38.85-53.257 77.35-59.959 11.422-1.9886 39.187-1.9789 50.752 0.017733 51.547 8.8999 79.952 41.588 87.562 100.76 5.0627 39.368 0.40819 71.591-14.597 101.06-17.475 34.315-47.473 57.858-81.217 63.743-8.8514 1.5436-26.049 1.5832-34.322 0.079169zm17.81-76.769c2.1225-1.0976 3.5234-3.0691 4.6033-6.4786 0.7896-2.4929-1.1096-7.2042-3.8254-9.4893-2.3372-1.9666-3.1886-2.1853-7.2116-1.8516-3.8217 0.31693-4.9449 0.80739-6.9256 3.0242-3.8976 4.3622-2.704 12.66 2.1606 15.021 2.5673 1.2457 8.588 1.1245 11.199-0.22551zm2.9603-35.205c0.76797-6.5342 2.183-8.854 10.909-17.884 5.4921-5.6835 8.4844-9.5909 10.535-13.757 2.6077-5.2975 2.8611-6.465 2.8271-13.025-0.033094-6.3969-0.34097-7.8229-2.7422-12.701-2.9445-5.9811-6.611-9.4439-13.224-12.489-3.5093-1.616-5.4377-1.8571-14.884-1.8607-10.011-0.0038-11.22 0.16801-15.59 2.2168-9.4185 4.4152-15.158 12.032-16.294 21.623l-0.48822 4.1223h18.385l0.55645-3.4798c1.9283-12.059 22.252-13.401 25.507-1.684 2.3044 8.2968 0.25451 13.24-9.9196 23.919-8.2883 8.7003-11.147 13.468-12.516 20.875-1.7208 9.3088-2.1803 8.7872 7.741 8.7872h8.6504z" stroke-width=".8348"/>
	</g>
</svg>
