<svg width="300" height="300" version="1.1" viewBox="0 0 300 300" xmlns="http://www.w3.org/2000/svg">
	<g transform="translate(0 -217.62)">
		<g transform="matrix(.58592 0 0 .58902 .0083181 -101.44)">
			<path d="m386.91 1049.9c-25.136-4.46-44.759-14.342-62.337-31.392-24.452-23.717-37.044-57.096-33.682-89.287 2.1289-20.384 7.1173-34.778 17.361-50.095 15.744-23.541 39.342-39.744 66.787-45.857 48.52-10.808 96.758 10.608 123.34 54.758 4.964 8.2442 8.1 16.141 11.124 28.009 2.1502 8.4404 2.4871 11.987 2.495 26.261 0.014 26.177-4.2813 41.059-17.721 61.391-11.854 17.934-34.714 35.129-55.781 41.96-15.108 4.8983-37.525 6.7455-51.587 4.2504zm35.877-18.147c18.518-3.7443 33.98-12.208 46.794-25.615 10.754-11.252 19.63-26.694 22.363-38.908 0.6683-2.9859 1.6306-6.8111 2.1384-8.5004 1.7053-5.672 1.0853-25.649-1.0907-35.146-7.0021-30.558-28.995-56.415-57.495-67.597-13.922-5.4626-23.544-7.0309-39.506-6.4386-25.075 0.93034-43.775 8.9166-61.328 26.191-30.561 30.077-35.164 77.427-11.187 115.07 4.75 7.4563 19.094 21.852 26.762 26.859 11.321 7.3923 24.872 12.758 37.751 14.949 6.5263 1.1102 27.631 0.588 34.797-0.8608zm-58.739-41.275c-3.7874-2.0311-7.0627-7.2534-7.0627-11.261 0-6.558 8.4441-13.519 15.002-12.368 5.5642 0.97695 11.002 7.2391 11.002 12.67 0 5.9742-6.9268 12.786-13.002 12.786-1.3924 0-4.065-0.82248-5.9392-1.8276zm8.9894-5.6992c2.3906-1.2363 2.9508-2.1721 2.9508-4.9294 0-4.1538-2.1934-6.5467-6.0009-6.5467-3.6056 0-6.0009 2.3475-6.0009 5.8812 0 3.6644 1.9454 6.0261 5.8005 7.0418 0.16484 0.0438 1.6276-0.60763 3.2505-1.4469zm58.326 5.6084c-4.6706-2.8481-6.3677-5.8879-6.3677-11.406 0-4.1915 0.4676-5.3458 3.3217-8.1998 6.0822-6.0823 15.399-5.2712 19.656 1.7112 6.8452 11.228-5.5841 24.618-16.61 17.895zm10.885-7.2808c3.4817-4.0265 0.8425-9.8038-4.4786-9.8038-6.587 0-9.1991 6.9478-4.1155 10.947 3.0193 2.375 5.8815 1.9944 8.5941-1.1428zm-113.08-6.6678c-0.84982-0.53889-1.2037-2.3911-1.0002-5.2355l0.31491-4.4016 14.752-0.27676c8.3312-0.15631 14.752 0.11687 14.752 0.62764 0 0.49744-0.65208 1.4456-1.4491 2.107-0.79697 0.66144-1.957 2.7418-2.5779 4.6231l-1.1289 3.4205-11.174-0.0153c-6.1458-8e-3 -11.766-0.39059-12.489-0.84925zm56.85-2.556c-0.62088-1.8813-1.781-3.9617-2.5779-4.6231-0.79699-0.66144-1.4491-1.5976-1.4491-2.0803 0-0.48273 6.9761-0.87769 15.502-0.87769h15.502v-30.382c0-25.292 0.24246-30.583 1.4473-31.583 1.0148-0.84227 5.4759-1.1029 14.933-0.87258 16.205 0.39476 16.326 0.45873 25.344 13.404 11.107 15.944 11.284 16.478 11.284 34.064v15.243l3.2505 0.31341c3.192 0.30777 3.2505 0.40334 3.2505 5.3142v5.0008l-17.371 0.57604-2.3845-4.7887c-6.8035-13.663-25.554-13.236-31.134 0.70841l-1.6022 4.0043h-32.866l-1.1289-3.4205zm65.787-42.8c0.1808-0.94261-2.1797-5.1057-5.2456-9.2514l-5.5743-7.5376h-8.8872c-7.1813 0-9.0037 0.30366-9.4942 1.582-1.1126 2.8992-0.6518 14.976 0.6198 16.247 0.8773 0.87725 5.0781 1.148 14.74 0.95015 11.833-0.24238 13.554-0.48981 13.842-1.9906zm-123.16 28.551c-0.36673-0.36672-0.66677-2.5986-0.66677-4.9598v-4.293l19.504-0.291c10.727-0.16005 19.504-0.13231 19.503 0.0616-5.8e-4 0.19397-1.2387 2.5564-2.7515 5.2498l-2.7504 4.8971-16.086 1e-3c-8.8472 5.6e-4 -16.386-0.29902-16.753-0.66576zm41.671-0.75395c0.30956-0.80671 4.1518-8.0181 8.5383-16.025l7.9754-14.559h-53.85v-17.003c0-15.669 0.15688-17.159 2.0003-19.003 1.9195-1.9195 3.3338-2.0003 35.005-2.0003 31.746 0 33.082 0.0768 35.019 2.0139 1.9478 1.9478 2.0053 3.0897 1.7503 34.755l-0.2637 32.741-18.369 0.27304c-15.805 0.23495-18.29 0.0683-17.806-1.1937zm-41.671-15.248c-0.36673-0.36672-0.66677-2.5689-0.66677-4.8937 0-2.9318 0.48473-4.413 1.582-4.8341 2.0789-0.79774 46.425-0.7904 46.425 8e-3 0 0.33812-1.1967 2.8135-2.6593 5.5008l-2.6593 4.8858h-20.678c-11.373 0-20.978-0.30005-21.344-0.66677zm-309.52 103.73c-7.4185-2.5624-12.161-6.7579-16.057-14.205-3.1554-6.0313-3.3257-6.8696-2.9273-14.405 0.42264-7.9932 0.45321-8.0691 30.792-76.512 29.348-66.209 30.539-68.675 35.432-73.42 4.1849-4.0578 13.04-9.0473 51.033-28.754 25.319-13.133 47.132-23.845 48.557-23.845 1.4693 0 6.2389 2.4214 11.039 5.6042 15.896 10.54 31.874 17.289 51.017 21.549 15.061 3.3516 40.83 3.3516 55.891 0 19.143-4.2601 35.121-11.009 51.017-21.549 4.9094-3.2553 9.5585-5.6042 11.092-5.6042 1.4519 0 5.0746 1.3487 8.0505 2.9972 4.9975 2.7683 5.2261 3.0478 2.9944 3.6606-1.3289 0.36487-6.7297 2.7907-12.002 5.3908-56.367 27.799-83.265 92.404-63.482 152.48 8.7982 26.716 26.091 48.725 52.412 66.708 2.3426 1.6003-6.4683 1.6989-153.54 1.7175-148.59 0.019-156.28-0.067-161.32-1.8093zm230.83-236.83c-45.684-3.146-85.535-36.851-101.46-85.81-5.9889-18.417-7.0123-26.013-7.0071-52.008 4e-3 -20.255 0.34348-25.878 2.1737-36.005 2.9147-16.129 6.5139-28.136 11.757-39.221 13.918-29.428 37.207-46.96 71.753-54.015 11.662-2.3816 45.899-2.3816 57.56 0 34.546 7.0552 57.835 24.587 71.753 54.015 5.2429 11.086 8.8421 23.093 11.757 39.221 1.8302 10.128 2.1697 15.75 2.1737 36.005 5e-3 25.995-1.0182 33.591-7.0071 52.008-14.479 44.527-50.653 78.28-90.454 84.401-8.1814 1.2582-17.185 1.8097-23.003 1.409z" fill="#e0e0e0"/>
		</g>
	</g>
</svg>
