<svg xmlns="http://www.w3.org/2000/svg" width="60" height="56.029" viewBox="0 0 60 56.029"><g transform="translate(0.005 -557.286)"><path d="M25.6,613.281a5.118,5.118,0,0,1-4.372-3.809,6.036,6.036,0,0,1,0-2.49,5.215,5.215,0,0,1,2.714-3.331,5.091,5.091,0,0,1,6.742,6.926,5.737,5.737,0,0,1-2.2,2.178,5.161,5.161,0,0,1-2.888.526Zm1.2-2.593a2.485,2.485,0,0,0,1.685-1.419,2.55,2.55,0,0,0-.358-2.678,2.636,2.636,0,0,0-2.208-.9,2.53,2.53,0,0,0-2.019,1.426,2.706,2.706,0,0,0,0,2.23,2.463,2.463,0,0,0,2.9,1.341Zm16.648,2.592a4.8,4.8,0,0,1-2.989-1.493,3.86,3.86,0,0,1-.933-1.284,4.862,4.862,0,0,1,0-4.549,3.934,3.934,0,0,1,.97-1.323,5.033,5.033,0,0,1,7.164.037,4.08,4.08,0,0,1,.937,1.291,4.859,4.859,0,0,1,0,4.543,5.147,5.147,0,0,1-3.328,2.668,5.268,5.268,0,0,1-1.818.108Zm1.722-2.778a2.741,2.741,0,0,0,1.211-1.234,2.144,2.144,0,0,0,.168-1.149,1.792,1.792,0,0,0-.636-1.7,2.5,2.5,0,0,0-1.445-.7,2.436,2.436,0,0,0-2.276.782,2.535,2.535,0,0,0,2.977,4ZM21.3,598.456c-.019-.05-2.544-8.642-5.613-19.093s-5.616-19.124-5.661-19.277l-.082-.275H-.005V557.39H11.869l.121.422c.28.974,4.314,14.779,4.481,15.333l.182.605h9.01l-.175-.513c-.1-.282-.244-.847-.328-1.256a12.193,12.193,0,0,1,19.257-12.253,16.145,16.145,0,0,1,2.309,2.285,12.227,12.227,0,0,1,2.537,7.922A12.877,12.877,0,0,1,48.8,572.8c-.1.343-.2.7-.221.788l-.036.165,5.726.019,5.724.018L55.23,585.195c-2.62,6.274-4.949,11.846-5.174,12.38l-.41.972H35.491c-11.256,0-14.161-.019-14.188-.092Zm30.558-11.738c2.115-5.094,3.954-9.518,4.085-9.831l.239-.569h-9l-.466.605a12.3,12.3,0,0,1-6.486,4.307,10.049,10.049,0,0,1-3.159.4,10,10,0,0,1-3.045-.371,12.251,12.251,0,0,1-6.65-4.413l-.4-.532H22.176a33.037,33.037,0,0,0-4.774.092c.019.05,1.295,4.425,2.835,9.721s2.819,9.679,2.842,9.739c.037.1,1.512.11,12.49.11H48.016l3.846-9.262ZM38.474,579a9.574,9.574,0,0,0,2.047-.52,9.629,9.629,0,0,0,5.907-11.42,9.628,9.628,0,0,0-18.92,3.2,9.426,9.426,0,0,0,2.892,6.113A9.667,9.667,0,0,0,38.474,579Zm-2.6-5.949v-2.238H31.248v-2.568h4.62l.019-2.293.019-2.293H38.4l.019,2.293.019,2.293h4.473v2.568H38.438v4.475H35.87v-2.238Z" fill="#fff"/></g></svg>