<svg xmlns="http://www.w3.org/2000/svg" width="60" height="52" viewBox="0 0 60 52"><g transform="translate(-0.003 -574.909)"><path d="M55.759,626.873a3.965,3.965,0,0,1-1.493-.673c-.222-.169-1.855-1.763-3.628-3.542l-3.223-3.234-.5.23a13.014,13.014,0,0,1-2.366.765,11.757,11.757,0,0,1-11.307-3.849l-.525-.612H1.977l-.407-.152a2.775,2.775,0,0,1-1.414-1.418L0,613.976l.018-18.6.018-18.6.188-.4a2.535,2.535,0,0,1,1.814-1.392c.552-.1,44.067-.1,44.563.009a2.485,2.485,0,0,1,1.924,1.838c.082.31.1,2.145.1,11.252v10.881l.516.361a12.226,12.226,0,0,1,3.322,3.748A12.492,12.492,0,0,1,53.89,607.4a12.14,12.14,0,0,1-1.083,6.584,3.564,3.564,0,0,0-.175.376c0,.017,1.442,1.467,3.2,3.223s3.341,3.384,3.508,3.617a3.044,3.044,0,0,1,.648,1.873A3.2,3.2,0,0,1,59.6,625a3.5,3.5,0,0,1-3,1.9,4.214,4.214,0,0,1-.843-.033Zm1.158-2.466a1.368,1.368,0,0,0,.642-1.63,35.545,35.545,0,0,0-3.157-3.321l-3.08-3.085-.7.7c-.384.383-.824.8-.979.916l-.281.219,3.083,3.049c1.7,1.677,3.182,3.1,3.3,3.169a1.409,1.409,0,0,0,1.167-.014Zm-13.982-6.057a9.442,9.442,0,0,0,6.406-3.213A9.6,9.6,0,0,0,50.9,605.013a9.52,9.52,0,0,0-11.127-5.385,9.591,9.591,0,0,0-6.628,6.237,10.489,10.489,0,0,0,0,5.975,9.607,9.607,0,0,0,7.045,6.335,16.1,16.1,0,0,0,1.83.237c.058,0,.469-.023.913-.062ZM37,614.179a1.092,1.092,0,0,1-.439-.471l-.158-.314v-4.528c0-4.984-.015-4.8.441-5.2a.959.959,0,0,1,1.16-.153,1.174,1.174,0,0,1,.683,1c.024.2.034,2.314.022,4.7l-.022,4.329-.161.259a1.1,1.1,0,0,1-1.526.391Zm5.059.064a1.206,1.206,0,0,1-.593-.631c-.05-.133-.075-1.7-.075-4.772,0-4.411,0-4.584.138-4.846a1.222,1.222,0,0,1,.9-.614,1.318,1.318,0,0,1,1.03.492c.142.2.145.281.164,4.933l.019,4.734-.16.235a1.849,1.849,0,0,1-.348.374,1.316,1.316,0,0,1-1.077.095Zm4.981-.005a1.184,1.184,0,0,1-.654-.786c-.094-.376-.1-8.735-.009-9.14a1.1,1.1,0,0,1,.639-.8,1.071,1.071,0,0,1,1.472.519c.135.276.139.441.139,4.825v4.539l-.158.314a1.1,1.1,0,0,1-1.431.53Zm-15.662-.656a11.356,11.356,0,0,1-.932-5.117,10.569,10.569,0,0,1,.628-3.554A14.4,14.4,0,0,1,32.6,602a12.678,12.678,0,0,1,3.258-3.1,12.948,12.948,0,0,1,4.324-1.674,14.234,14.234,0,0,1,3.631-.068,16.818,16.818,0,0,1,2.2.529l.3.106-.018-10.258-.018-10.258-7.255-.018-7.255-.018v8.285c0,8.236,0,8.287-.146,8.586a1.226,1.226,0,0,1-.4.462l-.259.161h-6.64c-7.219,0-6.834.02-7.191-.375-.327-.362-.321-.184-.324-8.935l0-8.254H9.66c-4.785,0-7.181.024-7.272.073-.134.072-.136.35-.136,18.195,0,17.184.006,18.126.123,18.194.082.048,4.893.072,14.587.074,13.748,0,14.462,0,14.414-.121Zm-1.862-28.741v-7.6h-10.4v15.206h10.4Z" transform="translate(0 0)" fill="#fff"/></g></svg>