<svg xmlns="http://www.w3.org/2000/svg" width="74" height="54" viewBox="0 0 74 54"><path d="M73.8,18.6,64.135,5.752a.969.969,0,0,0-.574-.363L37.2.02A1.313,1.313,0,0,0,37.009,0a.358.358,0,0,0-.1.011c-.04,0-.071.011-.111.011L10.439,5.389a.9.9,0,0,0-.563.363L.189,18.6a1.008,1.008,0,0,0-.151.878.982.982,0,0,0,.625.636L8.909,22.8l.514.161v21.4a.982.982,0,0,0,.674.908l26.6,8.679A.987.987,0,0,0,37,54a.921.921,0,0,0,.292-.051L63.9,45.27a.976.976,0,0,0,.665-.919V22.959l.523-.161,8.256-2.684A.985.985,0,0,0,73.8,18.6Zm-70.268.433L2.526,18.7l.634-.848,7.2-9.545.292-.384.483.111,23.7,5.58,1.077.252-.625.908-7.8,11.474-.322.464-.534-.172-23.1-7.506Zm32.5,32.658-.986-.323L11.879,43.808l-.523-.172V23.615l.986.313,14.912,4.854a.917.917,0,0,0,.322.06.979.979,0,0,0,.785-.413l6.293-9.274,1.38-2.028V51.69ZM37.17,12.08,37,12.12l-.171-.04-19.6-4.612-3.373-.787,3.393-.687,19.6-3.986L37,1.978l.151.031,19.6,3.986,3.393.687-3.373.787-19.6,4.612ZM62.643,43.636l-.523.172L38.952,51.367l-.986.323-.011-1.04V17.125l1.38,2.028,6.3,9.274a.978.978,0,0,0,.785.413,1.107,1.107,0,0,0,.312-.051l14.921-4.864.986-.313V43.634Zm7.824-24.6-23.1,7.508-.534.172-.322-.464-7.8-11.474-.625-.908,1.077-.252,23.711-5.58.474-.111.3.393,7.179,9.537.645.848-1.006.333Z" transform="translate(0.004)" fill="#fff"/></svg>