<svg xmlns="http://www.w3.org/2000/svg" width="60" height="55" viewBox="0 0 60 55"><g transform="translate(0.004 -572.589)"><path d="M34.732,627.536a5.7,5.7,0,0,1-1.98-1.055,4.936,4.936,0,0,1-1.352-2.529c-.047-.246-.075-1.815-.075-4.254v-3.864H19.33c-10.19,0-12.1-.017-12.679-.109a7.749,7.749,0,0,1-5.339-3.576,7.3,7.3,0,0,1-.9-1.89C-.024,608.949,0,609.727,0,594.186c0-9.392.025-14.35.073-14.667a8.23,8.23,0,0,1,5.284-6.513c1.266-.443-.353-.416,24.636-.416,20.181,0,22.936.013,23.477.112a8.078,8.078,0,0,1,6.411,6.609c.159.877.161,28.732,0,29.685a8.283,8.283,0,0,1-2.211,4.4,7.533,7.533,0,0,1-4.025,2.246c-.308.061-.572.111-.587.111s-.027,1.768-.027,3.929c0,3.669-.009,3.967-.139,4.5a4.477,4.477,0,0,1-2.863,3.234l-.406.162-7.27.011c-4.333.007-7.412-.017-7.621-.059Zm14.435-2.426a2.151,2.151,0,0,0,1.521-1.609c.072-.322.092-1.8.093-6.837v-6.427H33.569l.02,6.648c.018,6.07.03,6.672.139,6.924a2.195,2.195,0,0,0,1.376,1.278c.429.121,13.568.143,14.063.023Zm-7.587-2.046a1.25,1.25,0,0,1-.4-.424c-.148-.271-.157-.371-.158-1.777v-1.49l-.439-.228a3.794,3.794,0,0,1-2.123-3.238,3.869,3.869,0,0,1,2.594-3.921,3.7,3.7,0,0,1,4.762,3.589,3.788,3.788,0,0,1-.421,1.9,4.133,4.133,0,0,1-1.653,1.659l-.473.24v1.481c0,1.372-.011,1.5-.149,1.758a1.148,1.148,0,0,1-1.538.453Zm1.109-6.018a1.325,1.325,0,0,0,.726-.733,1.507,1.507,0,0,0-.726-1.985,1.436,1.436,0,0,0-1.52.276,1.618,1.618,0,0,0-.059,2.1,1.445,1.445,0,0,0,1.578.338Zm-11.434-6.079c.049-3.316-.1-3.113,2.283-3.167l1.616-.037.04-2.91c.036-2.671.052-2.949.185-3.388a6.573,6.573,0,0,1,1.731-3.084,6.935,6.935,0,0,1,8.207-1.407,7.079,7.079,0,0,1,3.216,3.455c.5,1.164.517,1.28.561,4.462l.039,2.873,1.616.037c1.828.042,1.879.057,2.139.619.135.294.144.444.144,2.572,0,2.56-.062,2.344.616,2.155a5.726,5.726,0,0,0,3.666-3.541c.358-1.012.355-.923.355-9.914V591.3H2.169l.022,8.637c.025,9.674-.018,8.886.547,10.12a5.534,5.534,0,0,0,4.633,3.292c.135.014,5.556.023,12.047.019l11.8-.007.035-2.394ZM7.686,608.689a1.2,1.2,0,0,1-.875-1.163,1.329,1.329,0,0,1,.561-1.012c.245-.151.287-.151,9.729-.151,9.391,0,9.485,0,9.729.149a1.455,1.455,0,0,1,.562,1.022,1.422,1.422,0,0,1-.549,1.018l-.258.169-9.342.012c-5.138.006-9.438-.013-9.555-.042ZM46.9,605.314c.021-2.78-.02-3.147-.45-4.07a5.185,5.185,0,0,0-1.992-2.088,4.74,4.74,0,0,0-5.639.858,4.823,4.823,0,0,0-1.122,1.872c-.144.4-.153.574-.177,3.17L37.5,607.8l4.693-.019,4.693-.019.019-2.449ZM57.665,586.88v-2.062H2.244v4.125H57.665Zm-.018-5.764a7.041,7.041,0,0,0-.188-1.895,5.673,5.673,0,0,0-4.666-4.2c-.4-.054-7.576-.071-23.226-.057l-22.654.021-.632.207a5.633,5.633,0,0,0-3.4,2.92,5.834,5.834,0,0,0-.62,3.005l-.036,1.344H57.679l-.034-1.344Z" transform="translate(0)" fill="#fff"/></g></svg>