<svg xmlns="http://www.w3.org/2000/svg" width="60" height="55" viewBox="0 0 60 55"><g transform="translate(0 -596.156)"><path d="M10.282,650.845c-.2-.244-.661-2.363-2.194-10-1.07-5.33-1.984-9.731-2.031-9.781A2.385,2.385,0,0,0,5.5,630.8a8.355,8.355,0,0,1-3.669-2.932A9.635,9.635,0,0,1,0,622a9.073,9.073,0,0,1,.834-4.254,7.176,7.176,0,0,1,1.492-2.426A6.282,6.282,0,0,1,4.4,613.57c1.7-.962,2.281-1.054,6.7-1.061l3.789-.006,11.5-5.4,11.5-5.4.134-1.1a10.026,10.026,0,0,1,.393-1.809,4.526,4.526,0,0,1,2.174-2.359,3.854,3.854,0,0,1,5,2.368l.277.717.059,7.838.059,7.838,2.8,1.114a15.033,15.033,0,0,1,2.961,1.365c.263.422.293.968.255,4.65l-.037,3.553-.315.317a17.121,17.121,0,0,1-3.021,1.374l-2.706,1.057v7.615c0,7.327-.009,7.644-.239,8.365a4.492,4.492,0,0,1-2.518,2.843,3.638,3.638,0,0,1-3.9-1.1,4.952,4.952,0,0,1-1.232-3.1l-.118-1.145-10.731-5.038c-5.9-2.771-10.747-5.018-10.767-4.995s.516,2.641,1.191,5.818l1.228,5.775.642.733a3.371,3.371,0,0,1,1.034,1.955,3.076,3.076,0,0,1-1.475,2.981c-.53.218-7.7,1.826-8.144,1.826a.811.811,0,0,1-.6-.31Zm4.689-2.856c1.7-.38,3.2-.75,3.35-.822.427-.214.31-.573-.488-1.5l-.752-.874-1.433-6.72-1.433-6.72H11.237c-2.083,0-2.977.045-2.977.151,0,.138,2.824,14.325,3.248,16.316a2.31,2.31,0,0,0,.28.859c.053,0,1.486-.311,3.183-.69Zm27.851-2.871a2.163,2.163,0,0,0,1.1-1.51c.064-.295.1-9.275.088-22.019-.019-21.018-.025-21.531-.247-21.96a2.187,2.187,0,0,0-1.3-1.124,2.026,2.026,0,0,0-2.4,1.6c-.083.351-.123,7.426-.123,21.872,0,18.963.02,21.411.181,21.862.486,1.364,1.577,1.883,2.7,1.284Zm-4.878-23.252V604.128l-.44.206-10.94,5.128-10.5,4.923-.03,7.494L16,629.373l10.883,5.109c5.985,2.81,10.922,5.112,10.971,5.115s.088-7.976.088-17.731Zm-24.051,0v-7.013H10.514c-3.734,0-4.2.073-5.449.854a7.249,7.249,0,0,0-2.957,4.512,7.782,7.782,0,0,0,.463,4.761,6.231,6.231,0,0,0,3.458,3.586c.724.289.958.306,4.314.309l3.549,0v-7.013Zm-7.978-2.338v-2.338H7.909v4.675H5.914Zm3.989,0v-2.338H11.9v4.675H9.9Zm38.279,5.783,1.85-.72-.032-2.7-.032-2.7-1.819-.715c-1-.393-1.884-.718-1.965-.722-.114-.006-.147.922-.147,4.2,0,3.309.031,4.2.147,4.146.081-.035.979-.387,2-.783Zm7.887,9.95c-1.226-.87-2.3-1.633-2.391-1.694-.128-.089-.057-.318.338-1.1l.5-.985.425.293c.234.161,1.355.946,2.492,1.745l2.067,1.452-.482.94a3.189,3.189,0,0,1-.6.934c-.065,0-1.121-.717-2.347-1.588Zm-2.053-13.327v-1.169H60V623.1H54.016v-1.169Zm.309-10c-.712-1.328-.791-1.519-.683-1.645.231-.271,4.759-3.392,4.838-3.335a12.237,12.237,0,0,1,.933,1.828c0,.092-4.727,3.462-4.856,3.462-.036,0-.141-.139-.232-.309Z" transform="translate(0)" fill="#fff"/></g></svg>