<svg xmlns="http://www.w3.org/2000/svg" width="59" height="55" viewBox="0 0 59 55"><g transform="translate(0.015 -557.383)"><path d="M6.9,612.292a4.983,4.983,0,0,1-3.907-4.429,4.55,4.55,0,0,1,.56-2.616,7.242,7.242,0,0,0,.338-.719,13.04,13.04,0,0,0-1.671-.054c-1.51,0-1.693-.022-1.9-.227a1.258,1.258,0,0,1-.292-.489c-.035-.144-.05-4.314-.032-9.267l.032-9,.263-.262.263-.262,18.755-.033c10.316-.018,18.916,0,19.115.031.278.05,1,.708,3.21,2.926l2.852,2.862,1.023.049c.879.042,1.064.087,1.314.321l.29.273v12.583l-.267.25c-.248.233-.382.25-1.9.25a6.883,6.883,0,0,0-1.635.1,4.855,4.855,0,0,0,.349.777,4.86,4.86,0,0,1-6.537,6.48,4.861,4.861,0,0,1-2.655-3.945,4.419,4.419,0,0,1,.561-2.63,6.576,6.576,0,0,0,.327-.719c0-.033-2.645-.061-5.878-.061s-5.878.024-5.878.054a7.242,7.242,0,0,0,.338.719,4.591,4.591,0,0,1,.1,4.309,4.792,4.792,0,0,1-7.807,1.361,4.674,4.674,0,0,1-.921-5.575,4.835,4.835,0,0,0,.339-.77,9.285,9.285,0,0,0-1.9-.1,9.493,9.493,0,0,0-1.9.1,5.03,5.03,0,0,0,.34.777,4.692,4.692,0,0,1-.236,4.742,4.882,4.882,0,0,1-5.048,2.2Zm2.062-2.072a2.971,2.971,0,0,0,1.668-3.689,3.016,3.016,0,0,0-3.79-1.816A3.565,3.565,0,0,0,5.054,606.5a3.513,3.513,0,0,0,.148,2.3,2.933,2.933,0,0,0,3.76,1.422Zm11.656.063a2.86,2.86,0,0,0,1.943-2.7,2.5,2.5,0,0,0-.855-2.137,2.5,2.5,0,0,0-2.14-.854,2.889,2.889,0,0,0-2.606,4.085,2.946,2.946,0,0,0,3.658,1.608Zm19.872-.1a3.4,3.4,0,0,0,1.667-1.859,2.941,2.941,0,1,0-5.76-.8A2.9,2.9,0,0,0,40.489,610.187ZM3.918,597.7l.03-4.921.951-.033.951-.033v9.909H29.479V586.846H1.932v15.771H3.889l.03-4.921Zm-.028-7.914V588.8H5.85v1.957H3.89Zm41.351,7.857.03-4.921H31.437v9.9l6.887-.03,6.887-.03.03-4.921Zm-5.966-1.986v-.978h3.919v1.957H39.275Zm.634-6.849-1.957-1.957H31.437v3.914H41.866L39.909,588.8Zm-7.842-5.98a1.107,1.107,0,0,1-.368-.256c-.073-.088-.6-2.034-1.177-4.324-.865-3.45-1.023-4.218-.925-4.477.23-.605.27-.612,3.712-.616,1.759,0,3.2-.036,3.2-.075,0-.128.8-6.539.865-6.9a1.38,1.38,0,0,1,.294-.6l.234-.25H55.422l.283.283.283.283v7.263h1.2c1.2,0,1.2,0,1.5.354a1.4,1.4,0,0,1,.3.475c0,.066-.47,1.992-1.044,4.279a24.843,24.843,0,0,1-1.271,4.389c-.223.227-.394.231-12.3.253-6.639.012-12.177-.021-12.3-.073Zm23.334-2.28c.605-2.293,1.352-5.442,1.3-5.492-.083-.083-24.864-.08-24.946,0a29.794,29.794,0,0,0,.672,2.939c.406,1.581.737,2.9.737,2.928s4.977.054,11.061.054H55.288l.114-.432Zm-1.315-10.389v-2.935l-7.463-.03c-5.932-.024-7.463,0-7.464.115,0,.08-.156,1.362-.345,2.85s-.345,2.77-.345,2.85c0,.115,1.6.139,7.808.115l7.809-.03v-2.935Zm-12.852,0v-1.036h4.034v2.072H41.235ZM7.465,578.87a1.282,1.282,0,0,1-.452-.443c-.154-.274-.1-.66.717-4.718.487-2.431.885-4.458.885-4.506s-1.806-.086-4.012-.086c-3.85,0-4.022-.009-4.259-.23a1.273,1.273,0,0,1-.315-.6c-.038-.206-.053-2.614-.034-5.35l.034-4.976.262-.262c.245-.245.374-.265,1.974-.3a5.055,5.055,0,0,1,2.044.133c.26.134.526.563,1.222,1.967l.89,1.8H16.432c7.013,0,10.122.038,10.378.127a1,1,0,0,1,.492.363,63.532,63.532,0,0,1,2.119,6.615,1.223,1.223,0,0,1-.315.489c-.244.227-.388.233-5.073.233H19.212l-.52.719c-.286.4-1.828,2.583-3.426,4.86-2.16,3.078-2.98,4.161-3.194,4.219a23.267,23.267,0,0,1-4.607-.046Zm6.526-5.667c1.472-2.089,2.679-3.864,2.684-3.943.006-.112-.673-.144-3.03-.144H10.607l-.766,3.828c-.421,2.105-.766,3.894-.766,3.976,0,.113.267.14,1.12.115l1.12-.033,2.676-3.8Zm7.623-6.936.033-.95H23.6v1.957H25.32a9.7,9.7,0,0,0,1.772-.086,15.272,15.272,0,0,0-.6-1.986l-.648-1.9-11.959-.029-11.959-.029v4.031l9.826-.029,9.826-.029.033-.95ZM4.235,561.229c0-.033-.208-.473-.462-.978l-.462-.918H1.93v1.957H3.082a5.609,5.609,0,0,0,1.153-.06Z" transform="translate(0)" fill="#fff"/></g></svg>