<svg xmlns="http://www.w3.org/2000/svg" width="54" height="55" viewBox="0 0 54 55"><path d="M31.9,595.337a3.768,3.768,0,0,1-2.261-1.563,3.535,3.535,0,0,1-.145-3.537,4.6,4.6,0,0,1,1.259-1.353,3.541,3.541,0,0,1,5.37,2.562l.043.386.356-.016a21.661,21.661,0,0,0,3.911-.654,23.272,23.272,0,0,0,12.706-9.021l.528-.734-1.7-.04a9.2,9.2,0,0,1-2.2-.173,3.817,3.817,0,0,1-2.875-2.974,22.177,22.177,0,0,1-.136-3.578c-.033-3.381.02-4.584.234-5.321a4.274,4.274,0,0,1,3.05-3.053,23.268,23.268,0,0,1,3.859-.136l3.445-.028-.033-.365c-.018-.2-.05-.6-.07-.88a25.72,25.72,0,0,0-.493-3.174,24.661,24.661,0,0,0-19.077-18.455,20.212,20.212,0,0,0-4.509-.471,21.88,21.88,0,0,0-4.782.344,24.638,24.638,0,0,0-11.292,5.27,31.365,31.365,0,0,0-3.523,3.564,25.236,25.236,0,0,0-4.573,8.64,25.492,25.492,0,0,0-.945,4.969l-.044.558,3.417.025c3.269.024,3.439.031,3.927.166a4.216,4.216,0,0,1,2.618,2.148c.548,1.129.545,1.1.573,5.127.015,2.179,0,3.769-.042,4.1a3.859,3.859,0,0,1-2.957,3.527c-.5.144-.573.147-3.612.147a18.435,18.435,0,0,1-3.606-.118A3.512,3.512,0,0,1,5.869,579.4l-.208-.437-.02-6.213c-.02-6.265,0-7.186.22-8.789A27.533,27.533,0,0,1,17.749,544.95a27.092,27.092,0,0,1,9.4-4,22.731,22.731,0,0,1,5.365-.543,25.808,25.808,0,0,1,8.306,1.25,26.976,26.976,0,0,1,17.818,17.993,28.962,28.962,0,0,1,.876,4.314c.106.82.116,1.541.116,7.952v7.05l-.207.435a3.66,3.66,0,0,1-2.9,1.886c-.328.043-.332.046-.366.3-.112.831-2.424,3.863-4.386,5.752a23.719,23.719,0,0,1-15.416,6.846l-1.032.053-.372.3a3.657,3.657,0,0,1-3.047.8Zm1.367-2.475a1.168,1.168,0,1,0-1.7-.521,1.415,1.415,0,0,0,.738.662c.1.021.206.047.241.058a1.266,1.266,0,0,0,.721-.2ZM15.056,578.885a1.584,1.584,0,0,0,.936-.764c.141-.263.142-.273.142-4.159v-3.9l-.154-.381a2,2,0,0,0-.995-1.076l-.338-.152H7.988l-.018,4.893c-.01,2.691,0,4.957.016,5.034a.644.644,0,0,0,.233.282c.4.286.637.306,3.651.313a17.033,17.033,0,0,0,3.184-.094Zm41.524-.007a1.649,1.649,0,0,0,.57-.284l.191-.178-.017-4.98-.017-4.98H54.044a29.252,29.252,0,0,0-3.529.08,1.853,1.853,0,0,0-1.206,1.21c-.144.38-.146.428-.164,4.018-.012,2.476,0,3.743.053,3.977a1.544,1.544,0,0,0,1.183,1.181c.112.027,1.468.051,3.012.055a15.853,15.853,0,0,0,3.187-.1Z" transform="translate(-5.635 -540.402)" fill="#fff"/></svg>