<svg width="100%" height="100%" xmlns="http://www.w3.org/2000/svg" viewBox="0 0 512.00001 512.00001" style="background-color:#dddddd">
	<g transform="translate(0 -540.36)">
		<path style="transform: scale(0.8) translate(12.5%, 40%);" fill="#ffffff" d="m384.81 1012.7-5.5187-1.2207-0.30473-5.8977c-0.27657-5.3522-0.13741-5.8277 1.5051-5.1424 11.123 4.6404 20.671 5.6418 26.322 2.7604 5.4325-2.77 7.2809-6.1242 7.8637-14.27l0.51372-7.1799-3.7703 2.5586c-13.986 9.4915-30.948 4.0499-36.218-11.62-2.1193-6.3007-2.4364-20.262-0.60385-26.589 1.863-6.4316 7.1547-13.494 12.641-16.871 4.3696-2.6895 5.814-3.0372 12.543-3.0196 5.4767 0.014 8.5743 0.5427 11.072 1.8886 2.3379 1.2598 3.5912 1.4985 3.8464 0.7326 0.21419-0.6424 2.5437-1.136 5.3612-1.136h4.9823l-0.2998 34.366-0.2999 34.367-3.0868 5.4421c-4.5547 8.0299-10.709 11.261-22.306 11.711-4.7973 0.1865-11.206-0.2103-14.241-0.8817zm25.631-36.863 4.4707-2.1642v-17.444-17.444l-3.1231-1.615c-4.667-2.4134-12.763-2.9667-17.071-1.1667-7.6146 3.1816-11.726 13.168-10.561 25.65 1.1604 12.426 6.4095 17.784 16.501 16.844 2.9219-0.2725 7.3243-1.4692 9.7831-2.6596zm-297.56 15.198c-8.3287-2.731-14.862-9.2014-17.746-17.575-2.4645-7.1555-2.4079-22.323 0.11076-29.651 3.9995-11.638 15.406-18.896 28.094-17.878 13.562 1.0885 21.871 9.4702 24.683 24.898 2.9942 16.43-3.0362 32.431-14.422 38.268-4.507 2.3104-16.238 3.4082-20.719 1.939zm16.888-10.861c1.4765-1.0917 3.8134-3.9769 5.1931-6.4115 2.2397-3.9521 2.5066-5.5552 2.4911-14.962-0.0191-11.608-1.7628-16.768-7.0803-20.95-9.1384-7.1883-22.776-1.4302-25.377 10.715-3.2503 15.174 0.65077 29.024 9.2755 32.931 4.1511 1.8805 12.082 1.2038 15.498-1.3221zm194.84 10.139c-5.3469-2.3159-8.9221-6.3237-10.559-11.837-1.7553-5.9108-1.8191-7.884-0.41778-12.93 2.5673-9.245 10.912-13.975 28.105-15.93l9.9642-1.1332v-2.8212c0-9.6175-9.1303-13.142-24.583-9.4906-3.3112 0.7824-6.8362 1.7369-7.8333 2.1211-1.6308 0.6283-1.782 0.1572-1.5051-4.6901l0.30776-5.3886 7.0238-1.3295c8.8793-1.6806 22.023-1.0359 26.653 1.3072 9.9094 5.0148 10.974 8.7808 10.974 38.818v22.896h-5.5187c-5.4834 0-5.5187-0.019-5.5187-3.0613v-3.0613l-3.33 2.5399c-6.9869 5.3292-16.847 6.9848-23.762 3.9897zm22.569-12.101 4.5191-2.8551 0.002-9.3755 0.002-9.3758-5.2679 0.6517c-11.246 1.3908-15.991 2.743-18.932 5.3947-5.3677 4.8404-4.8212 14.474 1.009 17.787 4.113 2.3373 13.149 1.2592 18.668-2.2272zm109.58 11.267c-7.566-2.0342-12.751-6.3843-16.682-13.996-3.1789-6.1552-3.4398-7.3564-3.4608-15.934-0.0284-11.48 1.9871-17.94 7.5768-24.29 6.2845-7.1395 10.69-9.0419 20.974-9.0564 7.845-0.011 9.0439 0.2577 13.531 3.0316 6.9661 4.3069 10.639 11.658 11.27 22.559l0.46372 8.0116h-21.702-21.702l0.0101 2.2576c0.011 4.3533 2.1382 9.8694 5.113 13.257 6.7356 7.6715 17.903 8.5273 30.037 2.302l6.9871-3.585v5.7919 5.7919l-4.2644 1.5752c-10.851 4.0083-19.21 4.6865-28.147 2.2837zm22.848-41.966c-1.3863-8.3431-4.8998-12.336-11.848-13.463-8.2252-1.3346-15.376 2.5204-18.846 10.161-3.5406 7.7944-3.9843 7.567 14.758 7.567h16.644l-0.70849-4.2644zm-458.02 0.7119v-41.682l8.1147 0.29149 8.1147 0.29139 16.449 32.109 16.449 32.109 0.01996-32.36 0.01996-32.36h5.5187 5.5187v41.641 41.641h-6.3891-6.3891l-17.943-35.127-17.943-35.127-0.26369 35.127-0.26368 35.127h-5.5059-5.5059v-41.682zm174.59 10.576v-31.105h5.017 5.017v31.105 31.106h-5.017-5.017v-31.106zm26.088 0v-31.105h5.017c4.9241 0 5.017 0.057 5.017 3.0612v3.0613l3.3151-2.5284c10.05-7.6654 20.888-7.3619 27.373 0.7663l2.844 3.5643 4.2655-3.4952c8.3187-6.8165 15.645-8.1237 23.421-4.1787 3.3619 1.7057 5.07 3.4775 6.9856 7.2465 2.4747 4.869 2.5441 5.5862 2.888 29.851l0.35238 24.862h-5.6202-5.6202v-22.609c0-24.021-0.67446-28.247-4.8661-30.491-4.4243-2.3679-10.478-0.8851-17.46 4.277l-2.7594 2.0399v23.391 23.391h-5.017-5.017l-0.024-21.322c-0.0335-29.837-0.8361-32.36-10.297-32.36-4.2861 0-6.0938 0.5983-9.9982 3.3093l-4.7662 3.3092v23.532 23.532h-5.017-5.017v-31.106zm-27.092-46.658v-5.5187h6.0204 6.0204v5.5187 5.5188h-6.0204-6.0204v-5.5188zm-51.189-57.558c-7.0285-3.7581-7.047-3.8567-9.1227-48.602-8.5802-184.96-8.2806-172.02-4.0892-176.65 4.097-4.5271 4.1557-4.5329 83.17-8.2017 110.14-5.1143 109.47-5.0988 113.38-2.6106 6.0739 3.8662 6.4529 5.6822 7.9746 38.215 7.9438 169.83 8.274 178.87 6.6802 182.85-1.8685 4.6698-5.7194 7.5861-10.949 8.2917-2.1494 0.29001-14.293 0.99073-26.986 1.5571-12.693 0.56641-52.398 2.3768-88.233 4.0231s-65.869 2.9932-66.742 2.9932c-0.87314 0-3.1608-0.84124-5.0838-1.8694zm69.25-57.342c91.272-4.1541 113.89-5.2283 114.11-5.4184 0.12154-0.10847-0.65246-18.912-1.72-41.785s-2.7261-59.151-3.6858-80.618l-1.7448-39.03-15.6 0.64726c-15.525 0.64416-107.86 4.8684-143.85 6.581-10.385 0.49418-19.028 1.0558-19.207 1.2481-0.28258 0.30415 7.0169 160.3 7.3567 161.25 0.071 0.19828 4.9829 0.0682 10.916-0.2891 5.9326-0.35729 29.977-1.523 53.431-2.5905zm-57.59-4.877c-0.20024-0.3471-0.6556-7.6298-1.0119-16.184-0.3563-8.554-0.89312-19.165-1.1929-23.58-0.39007-5.7441-0.12187-9.2077 0.94294-12.177 1.3907-3.8787 39.152-54.908 43.553-58.856 3.0001-2.6914 8.2551-3.1503 11.53-1.0069 1.5144 0.99127 13.884 15.574 27.488 32.406s24.948 30.536 25.208 30.454c0.26005-0.0826 5.6616-6.1783 12.003-13.546 6.3418-7.3677 12.498-13.944 13.68-14.614 1.1822-0.67029 3.7297-1.2387 5.6612-1.2631 3.1488-0.0398 4.4194 0.91448 12.288 9.229 4.8271 5.1004 9.5332 10.861 10.458 12.802 1.1472 2.4071 1.9269 7.8347 2.453 17.075 0.75778 13.31 1.131 32.097 0.63809 32.121-10.684 0.52471-114.73 5.2854-131.19 6.0032-12.969 0.56522-25.506 1.1944-27.86 1.3982-2.3542 0.20382-4.4442 0.0866-4.6444-0.26052zm123.97-106.56c-6.6377-3.3721-9.7012-8.7305-9.7012-16.968 0-5.5958 0.4441-7.3398 2.7605-10.84 7.9055-11.946 26.593-10.634 32.858 2.3062 4.2609 8.8018 1.461 18.979-6.7739 24.622-4.982 3.4137-13.395 3.8008-19.143 0.88062zm70.647 141.39c-0.22894-0.7279-0.68833-9.451-1.0208-19.385-0.33253-9.9337-0.88506-22.012-1.2279-26.841l-0.62329-8.7798h3.0927c2.8769 0 3.1339-0.29751 3.683-4.2644 0.73026-5.2754 15.544-148.42 15.86-153.26l0.22877-3.4999-7.0238-0.74431c-70.622-7.4838-170.47-17.775-170.64-17.587-0.12219 0.13538-0.72547 4.9229-1.3406 10.639-0.61516 5.716-1.3675 10.796-1.6719 11.288-0.89782 1.4527-13.481 1.1176-13.469-0.35873 0.005-0.68984 0.65654-7.0471 1.4467-14.127 1.2239-10.966 1.8154-13.369 3.9925-16.224 4.3012-5.6392 6.9734-5.9667 29.436-3.6079 87.524 9.1909 163.73 17.152 164.18 17.152 1.6264 0 7.6639 6.5776 8.5653 9.3316 1.4689 4.4877-19.868 209.35-22.292 214.03-2.4582 4.7449-10.269 9.1069-11.172 6.2386z"/>
	</g>
</svg>
