<svg xmlns="http://www.w3.org/2000/svg" width="512.001" height="335.448" viewBox="0 0 512.001 335.448"><g transform="translate(0 -88.276)"><path d="M0,136.2H512V97.1a8.829,8.829,0,0,0-8.828-8.828H8.828A8.829,8.829,0,0,0,0,97.1Z" fill="#73af00"/><rect width="512" height="47.923" transform="translate(0 136.2)" fill="#f5f5f5"/><rect width="512" height="47.923" transform="translate(0 184.12)" fill="#73af00"/><rect width="512" height="47.923" transform="translate(0 232.04)" fill="#f5f5f5"/><rect width="512" height="47.923" transform="translate(0 279.97)" fill="#73af00"/><rect width="512" height="47.923" transform="translate(0 327.88)" fill="#f5f5f5"/><path d="M8.828,423.724H503.173A8.829,8.829,0,0,0,512,414.9V375.8H0V414.9A8.828,8.828,0,0,0,8.828,423.724Z" fill="#73af00"/><path d="M8.828,232.04H247.172A8.829,8.829,0,0,0,256,223.212V97.1a8.829,8.829,0,0,0-8.828-8.828H8.828A8.829,8.829,0,0,0,0,97.1V223.212A8.829,8.829,0,0,0,8.828,232.04Z" fill="#ff4b55"/><path d="M135.749,220.69H121.516a3.1,3.1,0,0,1-2.9-2.02L114.031,206.3a38.561,38.561,0,0,1-2.362-15.115l1.6-35.735a2.246,2.246,0,0,1,1.476-2.01h0a2.246,2.246,0,0,1,3.014,2.111v16.273a.824.824,0,0,0,.824.824h0a.824.824,0,0,0,.823-.783l1.279-25.948a2.2,2.2,0,0,1,1.888-2.071h0a2.2,2.2,0,0,1,2.513,2.1l.883,24.191a.827.827,0,0,0,.93.791h0a.828.828,0,0,0,.725-.806l.531-26.881a2.178,2.178,0,0,1,2.866-2.023h0a2.177,2.177,0,0,1,1.486,1.961l1.312,27.17a.836.836,0,0,0,.461.708h0a.836.836,0,0,0,1.21-.723l.658-21.052a2.2,2.2,0,0,1,3.151-1.921h0a2.2,2.2,0,0,1,1.252,1.86l1.532,25.838,4.1,11.957a.752.752,0,0,0,1.418.018c1.161-3.169,3.8-9.087,8.024-11.693a2.151,2.151,0,0,1,2.413.126h0a2.164,2.164,0,0,1,.271,3.217c-2.061,2.194-5.066,6.8-4.849,14.912a4.647,4.647,0,0,1-.881,2.879l-11.55,15.778a11.712,11.712,0,0,0-2.157,5.366l-.052.387A3.09,3.09,0,0,1,135.749,220.69Z" fill="#f5f5f5"/><path d="M128.671,100.366l2.319,6.954,7.33.056a.591.591,0,0,1,.346,1.067l-5.9,4.354,2.211,6.989a.591.591,0,0,1-.907.659l-5.964-4.263-5.964,4.263a.591.591,0,0,1-.907-.659l2.211-6.989-5.9-4.354a.591.591,0,0,1,.346-1.067l7.33-.056,2.319-6.954A.593.593,0,0,1,128.671,100.366Z" fill="#f5f5f5"/><path d="M94.188,110.372l2.319,6.954,7.33.056a.591.591,0,0,1,.346,1.067l-5.9,4.354,2.211,6.989a.591.591,0,0,1-.907.659l-5.964-4.263-5.964,4.263a.591.591,0,0,1-.907-.659l2.211-6.989-5.9-4.354a.591.591,0,0,1,.346-1.067l7.33-.056,2.319-6.954A.592.592,0,0,1,94.188,110.372Z" fill="#f5f5f5"/><path d="M163.992,110.372l2.319,6.954,7.33.056a.591.591,0,0,1,.346,1.067l-5.9,4.354,2.211,6.989a.591.591,0,0,1-.907.659l-5.964-4.263-5.964,4.263a.591.591,0,0,1-.907-.659l2.211-6.989-5.9-4.354a.591.591,0,0,1,.346-1.067l7.33-.056,2.319-6.954A.592.592,0,0,1,163.992,110.372Z" fill="#f5f5f5"/><path d="M187.118,136.666l2.319,6.954,7.33.056a.591.591,0,0,1,.346,1.067l-5.9,4.354,2.211,6.989a.591.591,0,0,1-.907.659l-5.964-4.263-5.964,4.263a.591.591,0,0,1-.907-.659L181.9,149.1l-5.9-4.354a.591.591,0,0,1,.346-1.067l7.33-.056,2.319-6.954A.593.593,0,0,1,187.118,136.666Z" fill="#f5f5f5"/><path d="M69.139,136.666l2.319,6.954,7.33.056a.591.591,0,0,1,.346,1.067l-5.9,4.354,2.211,6.989a.591.591,0,0,1-.907.659l-5.964-4.263-5.964,4.263a.591.591,0,0,1-.907-.659l2.211-6.989-5.9-4.354a.591.591,0,0,1,.346-1.067l7.33-.056,2.319-6.954A.593.593,0,0,1,69.139,136.666Z" fill="#f5f5f5"/><path d="M193.77,171.157l2.319,6.954,7.33.056a.591.591,0,0,1,.346,1.067l-5.9,4.354,2.211,6.989a.591.591,0,0,1-.907.659l-5.964-4.263-5.964,4.263a.591.591,0,0,1-.907-.659l2.211-6.989-5.9-4.354a.591.591,0,0,1,.346-1.067l7.33-.056,2.319-6.954A.593.593,0,0,1,193.77,171.157Z" fill="#f5f5f5"/><path d="M60.152,171.157l2.319,6.954,7.33.056a.591.591,0,0,1,.346,1.067l-5.9,4.354,2.211,6.989a.591.591,0,0,1-.907.659l-5.964-4.263-5.964,4.263a.591.591,0,0,1-.907-.659l2.211-6.989-5.9-4.354a.591.591,0,0,1,.346-1.067l7.33-.056,2.319-6.954A.593.593,0,0,1,60.152,171.157Z" fill="#f5f5f5"/></g></svg>