<svg xmlns="http://www.w3.org/2000/svg" width="512" height="335.454" viewBox="0 0 512 335.454"><g transform="translate(0 -88.273)"><path d="M170.667,423.721H8.828A8.829,8.829,0,0,1,0,414.893V97.1a8.829,8.829,0,0,1,8.828-8.828H170.667Z" fill="#464655"/><rect width="170.67" height="335.45" transform="translate(170.67 88.277)" fill="#ff4b55"/><path d="M503.172,423.721H341.333V88.273H503.172A8.829,8.829,0,0,1,512,97.1V414.893A8.828,8.828,0,0,1,503.172,423.721Z" fill="#73af00"/><path d="M279.037,273.3H232.962l2.56-5.12h40.955Z" fill="#f5f5f5"/><path d="M279.037,232.348H232.962l2.56,5.12h40.955Z" fill="#f5f5f5"/><path d="M268.8,234.908H243.2l5.12-5.119h15.358Z" fill="#f5f5f5"/><rect width="7.679" height="5.12" transform="translate(235.52 260.507)" fill="#f5f5f5"/><rect width="7.679" height="5.12" transform="translate(235.52 252.827)" fill="#f5f5f5"/><rect width="7.679" height="5.12" transform="translate(235.52 240.027)" fill="#f5f5f5"/><rect width="7.679" height="2.56" transform="translate(235.52 247.707)" fill="#f5f5f5"/><rect width="7.679" height="5.12" transform="translate(268.8 260.507)" fill="#f5f5f5"/><rect width="7.679" height="5.12" transform="translate(268.8 252.827)" fill="#f5f5f5"/><rect width="7.679" height="5.12" transform="translate(268.8 240.027)" fill="#f5f5f5"/><rect width="7.679" height="2.56" transform="translate(268.8 247.707)" fill="#f5f5f5"/><rect width="5.12" height="10.239" transform="translate(238.08 219.547)" fill="#f5f5f5"/><path d="M243.2,216.99h-5.12v-2.56a2.56,2.56,0,0,1,2.56-2.56h0a2.56,2.56,0,0,1,2.56,2.56v2.56Z" fill="#f5f5f5"/><rect width="5.12" height="10.239" transform="translate(268.8 219.547)" fill="#f5f5f5"/><path d="M273.918,216.99H268.8v-2.56a2.56,2.56,0,0,1,2.56-2.56h0a2.56,2.56,0,0,1,2.56,2.56v2.56Z" fill="#f5f5f5"/><path d="M256,240.028h0a10.239,10.239,0,0,0-10.239,10.239v15.359h20.478V250.267A10.238,10.238,0,0,0,256,240.028Z" fill="#f5f5f5"/><path d="M239.053,256.154l-13.937-16.259a2.532,2.532,0,0,0,.167-.826,2.56,2.56,0,1,0-2.56,2.56,2.508,2.508,0,0,0,.434-.087l1.442,1.683-7,16.323,7.679,7.679,6.631-15.47,5.2,6.063ZM226.6,261.5l-6.127-6.127,2.764-6.451,6.127,6.127Z" fill="#f5f5f5"/><path d="M274.953,257.818l5.2-6.063,6.631,15.47,7.679-7.679-7-16.323,1.442-1.683a2.436,2.436,0,0,0,.434.087,2.56,2.56,0,1,0-2.56-2.56,2.5,2.5,0,0,0,.167.826L273.01,256.152Zm7.745-2.768,6.127-6.127,2.764,6.451-6.127,6.127Z" fill="#f5f5f5"/><path d="M258.9,214.876a3.429,3.429,0,0,1-1.976-1.38,17.127,17.127,0,0,1-.921-1.625,17.127,17.127,0,0,1-.921,1.625,3.423,3.423,0,0,1-1.976,1.38,10.049,10.049,0,0,0-6.98,12.353h19.754a10.049,10.049,0,0,0-6.98-12.353Z" fill="#f5f5f5"/><path d="M197.339,252.526c-.13-1.591-.214-3.194-.214-4.819a58.992,58.992,0,0,1,.826-9.7c.738.511,1.511,1.073,2.314,1.7a56.462,56.462,0,0,0-.581,7.991c0,1.892.1,3.763.28,5.608l5.411,1.625a51.056,51.056,0,0,1-.572-7.233c0-1.224.073-2.433.17-3.638,2.826,3.134,5.056,6.92,5.056,11.1,0,.107,8.213-12.159-6.719-25.7l-.107,5.759-8.6-.09a1.6,1.6,0,0,0-1.592,1.3,64.3,64.3,0,0,0-1.006,11.264q0,1.631.082,3.241Z" fill="#f5f5f5"/><path d="M220.052,201.1a2.559,2.559,0,1,0-3.13-4.05,63.6,63.6,0,0,0-22.978,35.008l5.276.068A58.558,58.558,0,0,1,220.052,201.1Z" fill="#f5f5f5"/><path d="M216.623,207.481a56.157,56.157,0,0,0-12.648,18.839,28.706,28.706,0,0,1,3.957,3.922,50.975,50.975,0,0,1,12.274-19.1,2.561,2.561,0,0,0-3.583-3.66Z" fill="#f5f5f5"/><path d="M207.727,281.267a58.983,58.983,0,0,1-8.5-18.116l2.976,1.094a56.543,56.543,0,0,0,8.292,16.516l5.65-1.034a51.606,51.606,0,0,1-7.727-13.2l3.34,1.227a48.827,48.827,0,0,0,7.255,11.447l5.879-1.077a43.568,43.568,0,0,1-6.076-7.883l-3.406-6.812a8.525,8.525,0,0,0-5.178-4.355l-8.058-2.422-1.863-.559-2.682-.807-5.335-1.6-2.848-.856,1.762,5.288a5.206,5.206,0,0,0,2.188,2.766,63.69,63.69,0,0,0,8.8,21.4Z" fill="#f5f5f5"/><path d="M308.794,235.228l-.107-5.759c-14.932,13.545-6.719,25.811-6.719,25.7,0-4.184,2.23-7.97,5.056-11.1.1,1.205.17,2.415.17,3.638a51.034,51.034,0,0,1-.572,7.233l5.411-1.625c.183-1.845.28-3.715.28-5.608a56.291,56.291,0,0,0-.582-7.991c.8-.63,1.577-1.193,2.314-1.7a58.884,58.884,0,0,1,.826,9.7c0,1.624-.084,3.228-.214,4.819l5.251-1.578q.081-1.611.082-3.241a64.4,64.4,0,0,0-1.006-11.264,1.6,1.6,0,0,0-1.592-1.3Z" fill="#f5f5f5"/><path d="M312.779,232.123l5.276-.068a63.61,63.61,0,0,0-22.978-35.008,2.559,2.559,0,1,0-3.13,4.05A58.55,58.55,0,0,1,312.779,232.123Z" fill="#f5f5f5"/><path d="M308.025,226.32a56.173,56.173,0,0,0-12.648-18.839,2.56,2.56,0,0,0-3.581,3.659,50.967,50.967,0,0,1,12.274,19.1A28.57,28.57,0,0,1,308.025,226.32Z" fill="#f5f5f5"/><path d="M319.7,253.682l-5.335,1.6-2.682.807-1.863.559-8.058,2.422a8.528,8.528,0,0,0-5.178,4.355l-3.406,6.812a43.524,43.524,0,0,1-6.076,7.883l5.879,1.077a48.774,48.774,0,0,0,7.255-11.447l3.34-1.227a51.646,51.646,0,0,1-7.727,13.2l5.65,1.034a56.506,56.506,0,0,0,8.292-16.516l2.976-1.094a58.972,58.972,0,0,1-8.5,18.116l5.529,1.012a63.736,63.736,0,0,0,8.8-21.4,5.214,5.214,0,0,0,2.188-2.766l1.762-5.288Z" fill="#f5f5f5"/><path d="M282.677,281.983l-.132.117a43.181,43.181,0,0,1-53.088,0l-.132-.117a4.082,4.082,0,0,0-3.828-1.255l-25.81,5.375,5.727,5.02a7.582,7.582,0,0,0,5.457,1.854A64.536,64.536,0,0,0,226.594,304.5l-1.677,3.1a65.2,65.2,0,0,0,62.168,0l-1.677-3.1a64.561,64.561,0,0,0,15.723-11.522,7.588,7.588,0,0,0,5.458-1.854l5.727-5.02-25.81-5.375A4.085,4.085,0,0,0,282.677,281.983Zm-53.637,18a59.4,59.4,0,0,1-12.711-8.97l2.485-1.185a56.711,56.711,0,0,0,11.438,7.915Zm66.629-8.968a59.48,59.48,0,0,1-12.711,8.97l-1.213-2.239a56.738,56.738,0,0,0,11.438-7.915ZM256,298.9a50.824,50.824,0,0,1-32.159-11.473l2.554-1.218a48.316,48.316,0,0,0,59.206,0l2.554,1.218A50.79,50.79,0,0,1,256,298.9Z" fill="#f5f5f5"/><path d="M227.911,278.355c1.1.93,2.239,1.81,3.427,2.628H280.66q1.782-1.229,3.427-2.628l-2.49-2.49H230.4Z" fill="#f5f5f5"/></g></svg>