<svg xmlns="http://www.w3.org/2000/svg" width="512.001" height="335.448" viewBox="0 0 512.001 335.448"><g transform="translate(0 -88.276)"><path d="M503.172,423.724H8.828A8.829,8.829,0,0,1,0,414.9V97.1a8.829,8.829,0,0,1,8.828-8.828H503.173A8.829,8.829,0,0,1,512,97.1V414.9A8.83,8.83,0,0,1,503.172,423.724Z" fill="#4173cd"/><path d="M512,211.862H229.517V88.276H141.241V211.862H0v88.276H141.241V423.724h88.276V300.138H512Z" fill="#ffe15a"/><path d="M512,238.345H203.034V88.276h-35.31V238.345H0v35.31H167.724V423.724h35.31V273.655H512Z" fill="#ff4b55"/></g></svg>