<svg xmlns="http://www.w3.org/2000/svg" width="512.001" height="335.448" viewBox="0 0 512.001 335.448"><g transform="translate(0 -88.276)"><path d="M503.172,423.724H8.828A8.829,8.829,0,0,1,0,414.9V97.1a8.829,8.829,0,0,1,8.828-8.828H503.173A8.829,8.829,0,0,1,512,97.1V414.9A8.83,8.83,0,0,1,503.172,423.724Z" fill="#ff4b55"/><path d="M352.551,297.793c-4.828-3.034-7.724,1.793-7.724,1.793l-14.069,1.655,7.034-5.931c5.1.414,5.793-1.1,7.172-3.172s7.172-1.1,7.172-1.1c-.828-6.345-8.828-2.759-8.828-2.759-6.483-.69-7.586,4.552-7.586,4.552l-10.069,7.724-22.159-6.566c2.3-2.532,4.1-5.027,4.366-6.538.441-2.537-16.367-6.8-21.517-12.138s-6.988-13.793-4.6-16,4.414,4.045,6.988,9.2,7.357,9.2,10.483,6.621-3.31-6.436-6.253-11.954,2.207-7.541,4.6-6.989,3.862,11.955,9.564,17.839,10.85,4.781,11.4,1.1-9.409-8.21-11.433-11.337-2.545-9.261.766-9.444,15.448,17.906,25.748,24.828c11.218,7.54,20.229-1.288,18.759-4.966s-8.276-2.207-16.184-4.231-16-12.69-18.391-18.574-.414-5.885.966-5.333,6.621,8.276,16.69,14.207,17.1.276,17.931-1.1,4.009-7.571-6.345-6.115c-11.769,1.655-18.483-5.333-23.31-9.057s-6.759-8.828-4.552-10.9,9.471,7.264,20.505,10.207c10.136,2.7,14.253-1.655,13.976-5.655s-2.621-2.345-14.069-3.448-19.448-11.862-19.862-12.552-.276-4.552,5.517-.828,16.138,5.931,22.207,5.655,7.31-8.414,4.414-9.793-3.586.69-10.207,2.069-19.034-5.379-22.069-8.552.276-5.241,1.793-4.966,11.448,6.069,20.276,5.793,12.552-8.414,12.276-10.9-2.759-4.552-6.483-2.069-8.69,5.379-16.965,4-12.138-6.9-11.034-8.965,9.1,1.517,21.793.138,13.241-12.552,12-14.759-4.276-1.517-8.552,2.483-12.552,4.828-19.034,4.828-6.621-3.172-5.655-5.379,7.862-1.655,17.517-4.69,15.172-10.759,16.69-15.586-2.207-8.552-3.724-8.552-.552-2.207-7.172,7.31-24,13.241-24,13.241a7.257,7.257,0,0,0-3.172-3.172c-11.724,2.345-25.866,12.468-25.866,12.468s2.493,8-.622,14.228c-4.011,8.022-17.759,3.011-14.02-9.658,3.113-10.55,15.162-16.928,25.341-18.071s10.7-4.985,10.7-4.985-10.688,3.48-10.879-1.3c2.207.448,5.46.643,10.983.154,8.2-.726,12.775-6.543,9.14-7.789s-2.077,2.493-8.309,5.4c-4.445,2.074-9.11,1.14-11.445.431,2.157-4.71,11.237-2.3,11.237-2.3.1-8.205-10.783-5.27-10.783-5.27-4.781-10.3-32.736,1.655-32.736,1.655l6.621,5.333C259.314,168.274,256,185.377,256,185.377s-3.31-17.1-19.495-26.115l6.621-5.333s-27.955-11.955-32.736-1.655c0,0-10.888-2.934-10.783,5.27,0,0,9.08-2.409,11.238,2.3-2.335.71-7,1.643-11.445-.431-6.231-2.909-4.673-6.646-8.309-5.4s.935,7.062,9.14,7.789c5.523.489,8.776.295,10.983-.154-.191,4.777-10.879,1.3-10.879,1.3s.52,3.842,10.7,4.985,22.228,7.521,25.341,18.071c3.738,12.67-10.009,17.679-14.02,9.658-3.116-6.231-.622-14.228-.622-14.228s-14.142-10.123-25.866-12.468a7.264,7.264,0,0,0-3.172,3.172s-17.379-3.724-24-13.241-5.655-7.31-7.172-7.31-5.241,3.724-3.724,8.552,7.034,12.552,16.69,15.586,16.552,2.483,17.517,4.69.828,5.379-5.655,5.379-14.759-.828-19.034-4.828-7.31-4.69-8.552-2.483-.69,13.379,12,14.759,20.69-2.207,21.793-.138-2.759,7.586-11.034,8.965-13.241-1.517-16.965-4-6.207-.414-6.483,2.069,3.448,10.621,12.276,10.9,18.759-5.517,20.276-5.793,4.828,1.793,1.793,4.965-15.448,9.931-22.069,8.552-7.31-3.448-10.207-2.069-1.655,9.517,4.414,9.793,16.414-1.931,22.207-5.655,5.931.138,5.517.828S183.87,233.1,172.422,234.2s-13.793-.552-14.069,3.448,3.841,8.358,13.977,5.655c11.034-2.943,18.3-12.276,20.506-10.207s.276,7.172-4.552,10.9-11.541,10.712-23.31,9.057c-10.354-1.455-7.172,4.736-6.345,6.115s7.862,7.034,17.931,1.1,15.31-13.655,16.69-14.207,3.357-.552.966,5.333-10.483,16.552-18.391,18.574-14.713.552-16.184,4.231,7.54,12.505,18.759,4.965c10.3-6.922,22.437-25.012,25.748-24.828s2.788,6.318.766,9.444-11.985,7.659-11.433,11.337,5.7,4.781,11.4-1.1,7.172-17.288,9.564-17.839,7.54,1.472,4.6,6.989-9.379,9.379-6.252,11.954,7.908-1.471,10.483-6.621,4.6-11.4,6.988-9.2.552,10.666-4.6,16-21.959,9.6-21.517,12.138c.263,1.511,2.067,4.005,4.366,6.538l-22.159,6.565-10.069-7.724s-1.1-5.241-7.586-4.552c0,0-8-3.586-8.828,2.759,0,0,5.793-.966,7.172,1.1s2.069,3.586,7.172,3.172l7.033,5.932-14.069-1.655s-2.9-4.828-7.724-1.793c0,0-6.069-1.931-7.586,3.862,0,0,5.241-.966,6.621-.276,0,0,2.069,4.69,8.69,1.931l13.931.69-7.862,3.862s-9.931-3.172-9.517,5.1c0,0-2.9,3.31-.276,6.621,0,0,.552-3.586,3.172-5.1,0,0,5.1,2.069,8.414-4l10.069-6.069,9.931,4.828s-.276,5.379,7.034,3.172a8.8,8.8,0,0,1,3.172,3.862s3.172-3.448-1.931-7.448c0,0-1.241-4.69-7.31-2.9l-5.655-2.9,20.925-6.209c3.623,3.45,7.532,6.279,8.9,5.8,2.7-.935,4.778-3.738,6.646-7.685s10.282-17.655,14.436-17.55,6.024,3.426,4.985,9.347-9.134,17.259-14.376,19.6-6.069,3.448-10.9,3.034-6.483,1.655-5.379,4.414,6.534,4.513,11.862,2.483c5.793-2.207,8-5.241,10.207-3.448s-2.345,8.276-8.552,10.207-10.9.69-9.931,4.552,7.586,4.138,11.862,1.655,9.1-9.379,10.345-7.172.414,7.862-3.724,10.9-8.845,1.249-9.793,4c-1.379,4,3.448,6.621,7.172,5.1s8-6.207,9.931-10.345,5.517-.552,4.414,3.31-.184,7.034-8.093,13.1l14.713,22.62,14.713-22.621c-7.908-6.069-6.988-9.241-8.093-13.1s2.483-7.448,4.414-3.31,6.207,8.828,9.931,10.345,8.552-1.1,7.172-5.1c-.948-2.751-5.655-.966-9.793-4s-4.966-8.69-3.724-10.9,6.069,4.69,10.345,7.172,10.9,2.207,11.862-1.655-3.724-2.621-9.931-4.552-10.759-8.414-8.552-10.207,4.414,1.241,10.207,3.448c5.329,2.03,10.759.276,11.862-2.483s-.552-4.828-5.379-4.414-5.655-.69-10.9-3.034-13.337-13.684-14.376-19.6.831-9.244,4.985-9.347,12.566,13.6,14.436,17.55,3.946,6.751,6.646,7.686c1.369.474,5.279-2.355,8.9-5.8l20.925,6.209-5.655,2.9c-6.069-1.793-7.31,2.9-7.31,2.9-5.1,4-1.931,7.448-1.931,7.448a8.8,8.8,0,0,1,3.172-3.862c7.31,2.207,7.034-3.172,7.034-3.172l9.931-4.828,10.069,6.069c3.31,6.069,8.414,4,8.414,4,2.621,1.517,3.172,5.1,3.172,5.1,2.621-3.31-.276-6.621-.276-6.621.414-8.275-9.517-5.1-9.517-5.1L330.9,304l13.931-.69c6.621,2.759,8.69-1.931,8.69-1.931,1.379-.69,6.621.276,6.621.276C358.62,295.862,352.551,297.793,352.551,297.793Z" fill="#464655"/></g></svg>