<svg xmlns="http://www.w3.org/2000/svg" width="511.999" height="335.449" viewBox="0 0 511.999 335.449"><g transform="translate(0 -88.275)"><path d="M256,423.723H8.828A8.829,8.829,0,0,1,0,414.895V97.1a8.829,8.829,0,0,1,8.828-8.828H256V423.723Z" fill="#73af00"/><path d="M256,88.276H503.171A8.829,8.829,0,0,1,512,97.1V414.9a8.829,8.829,0,0,1-8.828,8.828H256Z" fill="#f5f5f5"/><path d="M298.608,223.906l-15.3,20.021-23.9-8a1.467,1.467,0,0,0-1.673,2.223l14.312,20.743L257.052,279.15a1.466,1.466,0,0,0,1.6,2.277l24.15-7.2,14.632,20.519a1.466,1.466,0,0,0,2.66-.815l.613-25.194,24.035-7.575a1.467,1.467,0,0,0,.046-2.782l-23.77-8.369.223-25.2A1.466,1.466,0,0,0,298.608,223.906Z" fill="#ff4b55"/><path d="M271.866,316.629a60.63,60.63,0,0,1,0-121.26,59.455,59.455,0,0,1,33.495,10.308,1.467,1.467,0,0,0,1.91-2.208A75.121,75.121,0,0,0,250.3,180.3c-38.548,1.315-70.459,32.222-72.922,70.713A75.578,75.578,0,0,0,307.325,308.48a1.456,1.456,0,0,0-1.912-2.177A59.5,59.5,0,0,1,271.866,316.629Z" fill="#ff4b55"/></g></svg>