<svg xmlns="http://www.w3.org/2000/svg" width="512.001" height="335.448" viewBox="0 0 512.001 335.448"><g transform="translate(0 -88.276)"><path d="M503.172,423.724H8.828A8.829,8.829,0,0,1,0,414.9V97.1a8.829,8.829,0,0,1,8.828-8.828H503.173A8.829,8.829,0,0,1,512,97.1V414.9A8.83,8.83,0,0,1,503.172,423.724Z" fill="#41479b"/><path d="M512,414.9v-9.751L56.713,256,512,106.855V97.1a8.692,8.692,0,0,0-4.321-7.412L0,256,507.679,422.308A8.689,8.689,0,0,0,512,414.9Z" fill="#ff4b55"/><path d="M56.713,256,512,405.145V106.855Z" fill="#f5f5f5"/><path d="M458.1,212.556s30.229,1.281,33.047-1.025,3.33-17.676-6.66-19.981S447.344,204.1,447.344,204.1Z" fill="#fff5dc"/><path d="M398.925,236.381a18.554,18.554,0,0,0-.512,4.611c-.171,3.757.512,13.492,12.3,17.761L407.978,270.2l12.467,7.514s9.223-13.663,9.735-25.106S398.925,236.381,398.925,236.381Z" fill="#d27d69"/><path d="M361.524,228.7l4.867-4.867s-9.964,6.079-13.748.6c-4.952-7.172,1.708-14.687,8.625-18.018s20.75-.768,20.75-.768l8.71,22.287-26.386,16.651Z" fill="#d27d69"/><path d="M443.244,186.171l23.569-2.818a64.056,64.056,0,0,1-20.494,17.42s14.09,0,18.188,4.867-4.1,9.479-7.172,11.016-29.716,17.932-29.716,17.932l-23.824-2.818Z" fill="#d27d69"/><path d="M460.749,168.068s5.123-11.955,4.952-20.323L448.452,159.7s3.928-1.878,2.562-8.71l-56.358,30.57-11.443,20.323,34.84,10.76Z" fill="#d27d69"/><path d="M418.267,261.23l-5.892,9.351s-10.5-2.3-14.09.256-3.97,12.169,2.3,12.937c0,0,4.355,2.69,6.916.512,0,0,5.251,2.049,6.148-1.281a10.5,10.5,0,0,0-.256-6.148h3.714l6.532-11.656Z" fill="#ffe15a"/><path d="M365.623,240.992s16.395-8.2,16.395-20.494-15.2-12.98-27.5-8.881c0,0-7.343-5.806-1.2-11.614,8.428-7.96,45.087-24.592,45.087-24.592l-4.1,20.494s14.6,7.685,20.494,4.1c4.951-3.014,53.284-40.988,53.284-40.988S463.994,179.51,435.3,200l-3.04,15.2a11.031,11.031,0,0,1-5.887,7.706l-11.567,5.783s32.79,4.1,32.79,8.2-8.2,24.593-24.592,32.79l-8.2-8.2,4.1-12.3a192.932,192.932,0,0,1-20.494-8.2s-12.3,4.1-20.494,4.1S365.623,240.992,365.623,240.992Z" fill="#b95546"/><path d="M341.031,261.486V252.97a9.123,9.123,0,0,1,2.673-6.453l17.822-17.822,4.1,8.2H382.02l-4.1,4.1v4.1l-20.494,12.3Z" fill="#fff5dc"/><path d="M349.229,257.387h-8.2s-8.2,12.3,0,12.3c0,0,12.3-8.2,16.395-12.3C357.426,257.387,357.426,253.289,349.229,257.387Z" fill="#ffe15a"/><path d="M449.21,275.57H392.547a2.528,2.528,0,0,0-1.86-.828s-9.925-4.114-11.337-4.114h-1.163a2.556,2.556,0,0,0-2.556,2.556v2.386H362.678v-2.386a2.556,2.556,0,0,0-2.556-2.556h-1.163a2.556,2.556,0,0,0-2.556,2.556v.043c-5.551-.226-17.42-.934-23.569-2.983l-32.79,8.2,32.79,8.2c6.147-2.049,18.016-2.758,23.569-2.984v.043a2.556,2.556,0,0,0,2.556,2.556h1.163a2.556,2.556,0,0,0,2.556-2.556v-2.386h12.953V283.7a2.556,2.556,0,0,0,2.556,2.556h1.163c1.411,0,11.337-4.114,11.337-4.114a2.523,2.523,0,0,0,1.86-.828H449.21a2.871,2.871,0,1,0,0-5.742Z" fill="#ffe15a"/><path d="M446.746,286.591c-3.416-.683-42.525,6.148-42.525,6.148s-2.391-2.391,4.781-9.052l-3.415-.854s-7.514,5.294-10.589,5.977c-2.647.588-8.562,3.464-9.833,7.3l-23.812,3.969.512,2.049,23.357-2.738a5.368,5.368,0,0,0,7.384,3.25,6.959,6.959,0,0,0,6.49-1.025s6.148,1.025,6.489-4.611l42.867-6.49S450.161,287.274,446.746,286.591Z" fill="#ffe15a"/><path d="M422.494,315.454s-3.245,4.269-11.272.512-17.42.342-22.543-.854-12.809-4.269-19.981-1.537-11.1,2.562-9.564-.854,2.391-5.977,0-7.172l2.732-3.416-.512-2.049s-13.663-5.294-22.884,2.049-6.489,24.081,8.881,25.276c0,0,4.782,5.977,16.566,4.269,0,0,7.685,5.294,20.835,2.9,0,0,.512,1.537,9.052.854s18.1.342,16.395,6.148c0,0,6.319-1.2,2.562-7,0,0,7.514-.342,12.638,4.1a8.776,8.776,0,0,0-4.611-7.857s8.369-2.9,12.98,0a11.05,11.05,0,0,0-11.272-5.636s5.977-4.782,8.71-3.586c0,0-2.562-3.074-10.077,0C421.128,321.6,425.91,318.7,422.494,315.454Z" fill="#ffe15a"/></g></svg>