<svg xmlns="http://www.w3.org/2000/svg" width="512" height="335.454" viewBox="0 0 512 335.454"><g transform="translate(0 -88.273)"><path d="M170.667,423.721H8.828A8.829,8.829,0,0,1,0,414.893V97.1a8.829,8.829,0,0,1,8.828-8.828H170.667Z" fill="#41479b"/><rect width="170.67" height="335.45" transform="translate(170.67 88.277)" fill="#ffe15a"/><path d="M503.172,423.721H341.333V88.273H503.172A8.829,8.829,0,0,1,512,97.1V414.893A8.828,8.828,0,0,1,503.172,423.721Z" fill="#ff4b55"/><path d="M316.022,284.688a4.6,4.6,0,0,0-6.217-4.346c-2.3-2.042-6.457-7.109-2.282-14.264a3.321,3.321,0,1,0,3.131-5.754c3.431-1.75,8.324-5.465,8.072-12.412-.359-9.852-8.429-15.29-13.38-13.116a3.185,3.185,0,0,0,.042-.416,3.282,3.282,0,0,0-5.977-1.877c-.2-.985-.178-2.814,2.112-4.791,4.253-3.673,9.086-12.469.29-18.655-4.871-3.425-14.181-5.066-17.3-.386-1.353,2.029-.268,4.945,1.277,5.6-2.489,1.388-7.211,3.471-10.942,1.843-5.316-2.319-2.246-6.926-1.063-8.989,2.078-3.625.774-9.569-6.186-9.569-4.64,0-6.959,4.64-11.6,4.64s-6.959-4.64-11.6-4.64c-6.959,0-8.264,5.944-6.186,9.569,1.183,2.062,4.253,6.669-1.063,8.989-3.731,1.629-8.452-.455-10.942-1.843,1.544-.654,2.63-3.57,1.277-5.6-3.119-4.679-12.43-3.039-17.3.386-8.8,6.186-3.962,14.981.29,18.655,2.29,1.977,2.314,3.807,2.112,4.791a3.282,3.282,0,0,0-5.977,1.877,3.167,3.167,0,0,0,.042.416c-4.951-2.175-13.022,3.264-13.38,13.116-.253,6.946,4.641,10.661,8.072,12.412a3.322,3.322,0,1,0,3.131,5.754c4.175,7.155.015,12.222-2.282,14.264a4.59,4.59,0,0,0-1.577-.294,4.628,4.628,0,0,0-.458,9.234c-3.2,3.285-6.067,10.525.168,18.749,6.814,8.989,23.052,8.264,30.881,8.554A17.328,17.328,0,0,1,241.98,321.2a4.614,4.614,0,0,0,1.783,8.515,4.615,4.615,0,0,0,8.114-.482A25.188,25.188,0,0,0,256,332.1a25.109,25.109,0,0,0,4.125-2.866,4.615,4.615,0,0,0,8.114.482,4.614,4.614,0,0,0,1.783-8.515,17.318,17.318,0,0,1,10.771-4.613c7.829-.29,24.067.435,30.881-8.554,6.234-8.224,3.366-15.465.168-18.749A4.625,4.625,0,0,0,316.022,284.688Z" fill="#dcbe82"/><path d="M214.245,225.1v67.273a13.919,13.919,0,0,0,13.919,13.919h18.558c6.959,0,9.279,4.64,9.279,4.64s2.319-4.64,9.279-4.64h18.558a13.919,13.919,0,0,0,13.919-13.919V225.1a2.319,2.319,0,0,0-2.319-2.319H216.567A2.319,2.319,0,0,0,214.245,225.1Z" fill="#d2aa73"/><rect width="34.796" height="34.796" transform="translate(218.88 227.417)" fill="#ff4b55"/><path d="M253.68,301.651h0a34.8,34.8,0,0,1-34.8-34.8h34.8Z" fill="#ff4b55"/><path d="M258.32,301.651h0v-34.8h34.8A34.8,34.8,0,0,1,258.32,301.651Z" fill="#ffe15a"/><rect width="4.971" height="34.796" transform="translate(258.32 227.417)" fill="#ffe15a"/><rect width="4.971" height="34.796" transform="translate(263.29 227.417)" fill="#ff4b55"/><rect width="4.971" height="34.796" transform="translate(268.26 227.417)" fill="#ffe15a"/><rect width="4.971" height="34.796" transform="translate(273.24 227.417)" fill="#ff4b55"/><rect width="4.971" height="34.796" transform="translate(278.2 227.417)" fill="#ffe15a"/><rect width="4.971" height="34.796" transform="translate(288.14 227.417)" fill="#ffe15a"/><rect width="4.971" height="34.796" transform="translate(283.18 227.417)" fill="#ff4b55"/><rect width="3.866" height="34.796" transform="translate(230.48 266.857)" fill="#ff4b55"/><rect width="3.866" height="34.796" transform="translate(234.35 266.857)" fill="#ffe15a"/><rect width="3.866" height="34.796" transform="translate(242.09 266.857)" fill="#ffe15a"/><rect width="3.866" height="34.796" transform="translate(238.21 266.857)" fill="#ff4b55"/><rect width="3.866" height="34.796" transform="translate(249.81 266.857)" fill="#ffe15a"/><rect width="3.866" height="34.796" transform="translate(245.95 266.857)" fill="#ff4b55"/><path d="M222.75,299.881V266.855h-3.866v25.517A9.249,9.249,0,0,0,222.75,299.881Z" fill="#ffe15a"/><path d="M226.617,301.495V266.854h-3.866V299.88A9.185,9.185,0,0,0,226.617,301.495Z" fill="#ff4b55"/><path d="M226.617,266.855V301.5a9.26,9.26,0,0,0,1.547.156h2.319v-34.8h-3.866Z" fill="#ffe15a"/><path d="M224.07,260.24a.913.913,0,0,1-.5-.151c-2.281-1.51-2.414-3.082-2.29-3.884a2.86,2.86,0,0,1,2.054-2.292,2.607,2.607,0,0,1,2.746.819c1.44,1.674,2.927,2.333,4.179,1.87a2.424,2.424,0,0,0,1.582-2.074.914.914,0,0,1,1.828,0,4.24,4.24,0,0,1-2.774,3.787c-1.175.434-3.538.7-6.2-2.391a.79.79,0,0,0-.86-.254,1.048,1.048,0,0,0-.749.812c-.1.63.447,1.388,1.492,2.081a.914.914,0,0,1-.505,1.677Z" fill="#f5f5f5"/><path d="M248.6,260.24a.913.913,0,0,1-.5-1.675c1.045-.693,1.589-1.451,1.492-2.081a1.049,1.049,0,0,0-.749-.812.788.788,0,0,0-.86.254c-2.662,3.095-5.026,2.827-6.2,2.391a4.242,4.242,0,0,1-2.774-3.787.914.914,0,0,1,1.828,0,2.425,2.425,0,0,0,1.582,2.074c1.252.465,2.74-.2,4.179-1.87a2.6,2.6,0,0,1,2.746-.819,2.862,2.862,0,0,1,2.054,2.292c.124.8-.009,2.374-2.29,3.884A.948.948,0,0,1,248.6,260.24Z" fill="#f5f5f5"/><path d="M223.567,261.324a.912.912,0,0,1-.727-1.466L242.7,233.739a4.267,4.267,0,0,0,.344-1.365,3.933,3.933,0,0,1,1.911-3.245,3.025,3.025,0,0,1,3.245.052,3.413,3.413,0,0,1-.971,6.252.913.913,0,1,1-.636-1.712c.607-.225,1.348-.655,1.43-1.425a1.741,1.741,0,0,0-.808-1.575,1.177,1.177,0,0,0-1.319-.025c-.829.5-.911,1.044-1.047,1.949a5.6,5.6,0,0,1-.633,2.106l-19.927,26.213A.9.9,0,0,1,223.567,261.324Z" fill="#ffe15a"/><path d="M236.408,232.6l-9.138,10.966,3.655,10.966h10.966l3.655-10.966Z" fill="#ffe15a"/><path d="M236.408,231.168l-10.166,12.2,4.024,12.074h12.282l4.024-12.074ZM228.3,243.756l7.2-8.636v18.493h-3.911Zm12.935,9.858h-3.911V235.121l7.2,8.636Z" fill="#f5f5f5"/><path d="M284.561,277.841l.138-2.027s1.8-1.29.921-2.488-1.889-1.429-4.009-1.152-5.438.231-6.866.322-2.166.875-4.424.231l.6-1.383a5.867,5.867,0,0,0-1.7.415c-.352.177-1.2-.968-2.027-.783s-1.658,1.889-2.95,2.765l.691,1.383a1.529,1.529,0,0,1,1.383.046,2.387,2.387,0,0,0,1.8.691l.646.277a2.421,2.421,0,0,0,.737,2.166s-1.106,1.429-.968,1.658a27.889,27.889,0,0,1,1.429,2.995l.83-1.567s-1.245-1.106-1.014-1.245,1.059-.322.921-.691.646.046,1.521.184a5.332,5.332,0,0,0,.231,1.567,2.735,2.735,0,0,1,.415,1.7,1.151,1.151,0,0,1-.737,1.014l1.245.369s.322-.461.553-.415c0,0-.093-3.825.415-4.424,0,0,2.995.6,4.377-.138a2.151,2.151,0,0,0,.522.435c-.138.321-.255.641-.2.735a.337.337,0,0,0,.578-.046c.035-.087.089-.266.143-.451a2.6,2.6,0,0,0,.559.119,1.183,1.183,0,0,0,.045.621.338.338,0,0,0,.535-.225c.006-.081,0-.234,0-.4a3.8,3.8,0,0,0,.772-.145l-1.567,2.581-.783.322,1.014.507.921-.369s.875-2.212,2.3-2.857c0,0,.968,2.3-.231,3.549l1.059.6.507-1.06a7.467,7.467,0,0,1,.507-3.41Z" fill="#ff4b55"/><path d="M267.208,271.255a2.2,2.2,0,0,1-.578-1.017c-.116-.578-.255-.833-.764-.994a1.367,1.367,0,0,1,.278.948c-.046.578,0,1.365.323,1.619Z" fill="#4173cd"/><path d="M271.233,272.886a6.243,6.243,0,0,1-2.477,3.25l-.644-.277s1.973-1.686,2.212-3.134Z" fill="#4173cd"/><path d="M268.087,271.764c-.066-.068.81-.323.6-1.017s-.209-1.2.209-1.526a1.863,1.863,0,0,0,.37.948,1.46,1.46,0,0,1-.023,1.827A.848.848,0,0,1,268.087,271.764Z" fill="#4173cd"/><path d="M268.187,278.07h0a.224.224,0,0,1-.1-.3l.279-.568a.714.714,0,0,0-.266-.932.7.7,0,0,0-.973.3l-.29.59a.224.224,0,0,1-.3.1l-.174.354.566.278-.007.013a.289.289,0,1,0,.519.255l.007-.013.566.278Z" fill="#4173cd"/><path d="M270.424,281.964l.693.139-.579,1.781-.584-.929Z" fill="#4173cd"/><path d="M272.12,283.923l-.424.748h1.665l0-.379Z" fill="#4173cd"/><path d="M280.322,283.37v.445h-1.89l.914-.914Z" fill="#4173cd"/><path d="M283.317,283.692l-.933.935h1.964l.029-.335Z" fill="#4173cd"/><path d="M284.561,292.279l.138-2.027s1.8-1.29.921-2.488-1.889-1.429-4.009-1.152-5.438.231-6.866.322-2.166.875-4.424.231l.6-1.383a5.867,5.867,0,0,0-1.7.415c-.352.177-1.2-.968-2.027-.783s-1.658,1.889-2.95,2.765l.691,1.383a1.529,1.529,0,0,1,1.383.046,2.387,2.387,0,0,0,1.8.691l.646.277a2.421,2.421,0,0,0,.737,2.166s-1.106,1.429-.968,1.658a27.889,27.889,0,0,1,1.429,2.995l.83-1.567s-1.245-1.106-1.014-1.245,1.059-.322.921-.691.646.046,1.521.184a5.332,5.332,0,0,0,.231,1.567,2.735,2.735,0,0,1,.415,1.7,1.151,1.151,0,0,1-.737,1.014l1.245.369s.322-.461.553-.415c0,0-.093-3.825.415-4.424,0,0,2.995.6,4.377-.138a2.151,2.151,0,0,0,.522.435c-.138.321-.255.641-.2.735a.337.337,0,0,0,.578-.046c.035-.087.089-.266.143-.451a2.6,2.6,0,0,0,.559.119,1.183,1.183,0,0,0,.045.621.338.338,0,0,0,.535-.225c.006-.081,0-.234,0-.4a3.8,3.8,0,0,0,.772-.145l-1.567,2.581-.783.322,1.014.507.921-.369s.875-2.212,2.3-2.857c0,0,.968,2.3-.231,3.549l1.059.6.507-1.06a7.467,7.467,0,0,1,.507-3.41Z" fill="#ff4b55"/><path d="M267.208,285.694a2.2,2.2,0,0,1-.578-1.017c-.116-.578-.255-.833-.764-.994a1.367,1.367,0,0,1,.278.948c-.046.578,0,1.365.323,1.619Z" fill="#4173cd"/><path d="M271.233,287.325a6.243,6.243,0,0,1-2.477,3.25l-.646-.277s1.973-1.686,2.212-3.134Z" fill="#4173cd"/><path d="M268.087,286.2c-.066-.068.81-.323.6-1.017s-.209-1.2.209-1.526a1.863,1.863,0,0,0,.37.948,1.46,1.46,0,0,1-.023,1.827A.849.849,0,0,1,268.087,286.2Z" fill="#4173cd"/><path d="M268.187,292.509h0a.224.224,0,0,1-.1-.3l.279-.568a.714.714,0,0,0-.266-.932.7.7,0,0,0-.973.3l-.29.59a.224.224,0,0,1-.3.1l-.174.354.566.278-.007.013a.289.289,0,1,0,.519.255l.007-.013.566.278Z" fill="#4173cd"/><path d="M270.424,296.4l.693.139-.579,1.781-.584-.929Z" fill="#4173cd"/><path d="M272.12,298.362l-.424.748h1.665l0-.38Z" fill="#4173cd"/><path d="M280.322,297.809v.445h-1.89l.914-.914Z" fill="#4173cd"/><path d="M283.317,298.131l-.933.935h1.964l.029-.336Z" fill="#4173cd"/></g></svg>