<svg xmlns="http://www.w3.org/2000/svg" width="512.001" height="335.448" viewBox="0 0 512.001 335.448"><g transform="translate(0 -88.276)"><path d="M512,256H0V97.1a8.829,8.829,0,0,1,8.828-8.828H503.173A8.829,8.829,0,0,1,512,97.1V256Z" fill="#ff4b55"/><path d="M0,256H512V414.9a8.829,8.829,0,0,1-8.828,8.828H8.828A8.829,8.829,0,0,1,0,414.9Z" fill="#464655"/><path d="M235.9,182.293l6.036,18.1,19.076.148a1.538,1.538,0,0,1,.9,2.775l-15.346,11.332,5.754,18.188a1.539,1.539,0,0,1-2.361,1.716l-15.52-11.093-15.52,11.093a1.538,1.538,0,0,1-2.361-1.716l5.754-18.188-15.346-11.332a1.538,1.538,0,0,1,.9-2.775l19.076-.148,6.036-18.1A1.538,1.538,0,0,1,235.9,182.293Z" fill="#ffe15a"/><path d="M317.487,335.944s-109.206-82.384-112.43-85.092c-4.983-4.185-8.828-11.586-9.012-20.6,0,0-11.777,12.064-9.471,24.552,2.667,14.436,10.943,19.586,21.61,26.574,7.5,4.911,67.087,42.495,101.875,64.419Z" fill="#ffe15a"/><path d="M350.161,360.091c-1.423-1.016-12.861-9.47-28.73-21.227l-5.759,10.472c11.651,7.341,19.409,12.227,19.409,12.227s1.1,14.345,12.69,11.954C351.947,372.655,355.31,363.77,350.161,360.091Z" fill="#ffe15a"/><path d="M255.863,322.053A78.927,78.927,0,0,1,170.53,300.26L157.6,311.9a97.268,97.268,0,0,0,14.175,13.217l-2.574,4.459,19.112,11.034,2.53-4.383a96.412,96.412,0,0,0,27.638,7.383v5.084h22.069v-5.084a96.413,96.413,0,0,0,27.638-7.383l2.53,4.383,7.6-4.385C270.9,331.543,263.3,326.75,255.863,322.053Z" fill="#ffe15a"/><path d="M325.95,236.138a96.4,96.4,0,0,0-7.383-27.637l4.383-2.53-11.034-19.113-4.459,2.574a97.507,97.507,0,0,0-20.2-20.2l2.574-4.459-19.112-11.034-2.53,4.383a96.283,96.283,0,0,0-22.723-6.639l-2.9,17.4a79.3,79.3,0,0,1,44.458,133l13.953,10.535a97.765,97.765,0,0,0,6.482-7.511l4.459,2.574,11.034-19.112-4.383-2.53a96.414,96.414,0,0,0,7.383-27.637h5.082V236.14h-5.084v0Z" fill="#ffe15a"/></g></svg>