<svg xmlns="http://www.w3.org/2000/svg" width="512.001" height="335.448" viewBox="0 0 512.001 335.448"><g transform="translate(0 -88.276)"><path d="M503.172,423.724H8.828A8.829,8.829,0,0,1,0,414.9V97.1a8.829,8.829,0,0,1,8.828-8.828H503.173A8.829,8.829,0,0,1,512,97.1V414.9A8.83,8.83,0,0,1,503.172,423.724Z" fill="#41479b"/><path d="M247.172,88.276H231.839l-81.77,53.573V88.276H105.931v53.573L24.161,88.276H8.828A8.829,8.829,0,0,0,0,97.1v7l70.155,45.963H0v44.138H70.155L0,240.171v7A8.829,8.829,0,0,0,8.828,256H24.161l81.77-53.573V256h44.138V202.427L231.838,256h15.333A8.829,8.829,0,0,0,256,247.172v-7l-70.154-45.963H256V150.069H185.844L256,104.106v-7A8.827,8.827,0,0,0,247.172,88.276Z" fill="#f5f5f5"/><path d="M256,158.9H141.241V88.276H114.758V158.9H0v26.482H114.758V256h26.483V185.379H256Z" fill="#ff4b55"/><path d="M97.1,150.069l-92.9-60.3A8.686,8.686,0,0,0,0,97.1v.458l80.889,52.507Z" fill="#ff4b55"/><path d="M166.283,150.069,254.657,92.7a8.7,8.7,0,0,0-7.485-4.427h-1.909l-95.194,61.793Z" fill="#ff4b55"/><path d="M89.474,194.207l-88.2,57.256A8.717,8.717,0,0,0,8.828,256h1.665l95.2-61.793Z" fill="#ff4b55"/><path d="M255.859,247.867l-82.666-53.659H156.98l93.873,60.934A8.739,8.739,0,0,0,255.859,247.867Z" fill="#ff4b55"/><path d="M328.608,192.663c-1.184,15.778-6.08,116.046,57.536,138.712,63.639-22.672,58.722-122.936,57.536-138.712-7.708,3.021-35.609,12.179-57.536-3.427C364.219,204.84,336.321,195.688,328.608,192.663Z" fill="#f5f5f5"/><path d="M417.4,212.893c-3.488-2.712-9.945,2.325-17.18,1.809-6.709-.479-14.977-7.273-25.724-4.344-2.969-2.734-1.532-9.089-1.532-9.089-7.461,4.823-8,11.425-7.527,15.006-5.32,7.03-4.961,17.758-3.969,21.032,1.291,4.263,3.746,4.779,4.134,9.558s2.2,3.1,2.2,3.1c3.736-2.1,4.279-6.048,5.85-12.516,6.07.775,10.037-4.662,10.037-4.662-3.982,1.249-6.494-.946-7.863-2.879.214-.639.385-1.228.63-1.9,4.521-12.4,26.154-8.991,28.159-5.555a22.28,22.28,0,0,0,8.4,8.525c0-6.464-4.779-12.141-4.779-12.141C415.465,217.543,417.4,212.893,417.4,212.893ZM365.349,239.5a1.291,1.291,0,1,1,1.291-1.291A1.291,1.291,0,0,1,365.349,239.5Z" fill="#ffa028"/><path d="M396.1,292.24c4.212-1.333,3.729-9.509,8.258-15.172,4.2-5.252,14.486-8.206,18.172-18.718,3.936-.894,8.353,3.895,8.353,3.895.262-8.881-4.872-13.066-8.087-14.712-2.771-8.37-11.808-14.161-15.068-15.2-4.243-1.355-6.06.373-10.216-2.019s-3.8.05-3.8.05c-.394,4.266,2.552,6.955,6.988,11.919-4.082,4.558-1.855,10.911-1.855,10.911,1.23-3.989,4.463-4.811,6.833-4.842.4.538.793,1.014,1.207,1.6,7.647,10.757-7.434,26.638-11.4,26.339a22.266,22.266,0,0,0-11.784,2.078c5.323,3.667,12.71,2.953,12.71,2.953C393.372,288.007,396.1,292.24,396.1,292.24Zm7.621-57.962a1.291,1.291,0,1,1,.331,1.8A1.291,1.291,0,0,1,403.723,234.278Z" fill="#ffa028"/><path d="M339.154,234.826c-.564,4.382,7.058,7.383,10.289,13.876,3,6.02,1.348,16.595,9.333,24.361-.845,3.947-7.049,5.939-7.049,5.939,7.946,3.975,13.9,1.079,16.749-1.145,8.759,1.009,17.815-4.753,20.13-7.272,3.015-3.278,2.212-5.655,6.131-8.418s1.554-3.467,1.554-3.467c-3.7-2.153-7.383-.611-13.753,1.323-2.418-5.621-9.117-6.274-9.117-6.274,3.1,2.795,2.486,6.073,1.517,8.235-.659.14-1.254.292-1.956.424-12.977,2.409-21.036-17.954-19.1-21.427a22.279,22.279,0,0,0,3.074-11.564c-5.567,3.285-8.028,10.287-8.028,10.287C344.144,234.131,339.154,234.826,339.154,234.826Zm49.373,31.306a1.292,1.292,0,1,1-1.769-.456A1.291,1.291,0,0,1,388.527,266.132Z" fill="#ffa028"/><path d="M386.144,334.66l-.509-.175C314,309.567,325.577,191.448,325.7,190.255l.224-2.134,1.958.887c.338.154,33.572,14.894,57.331-2.931l.929-.7.929.7c23.794,17.849,57,3.082,57.33,2.931l1.959-.89.224,2.137c.126,1.193,11.7,119.312-59.934,144.23Zm-57.536-142c-1.184,15.778-6.08,116.046,57.536,138.712,63.639-22.672,58.722-122.936,57.536-138.712-7.708,3.021-35.609,12.179-57.536-3.427C364.219,204.84,336.321,195.688,328.608,192.663Z" fill="#cdce0c"/><path d="M346.246,295.819c8.689,15.757,21.374,28.957,39.9,35.556,18.529-6.6,31.218-19.8,39.907-35.556Z" fill="#82afff"/></g></svg>