<svg xmlns="http://www.w3.org/2000/svg" width="511.902" height="335.4" viewBox="0 0 511.902 335.4"><g transform="translate(0 -88.3)"><path d="M503.2,423.7H8.8A8.813,8.813,0,0,1,0,414.9V97.1a8.813,8.813,0,0,1,8.8-8.8H503.1a8.813,8.813,0,0,1,8.8,8.8V414.9A8.665,8.665,0,0,1,503.2,423.7Z" fill="#82afff"/><path d="M149.3,246.3c-2.5-5-2.5-5-2.5-10-1.3,0-1.5.2-2.2,0s-1,4.6-3.4,3.7c-.4-.5,1.7-4-.6-5.4-.7-.5.2-3.3-.1-4.6,0,0-2.9,1.5-5-3.8-1.1-1.4-2.5,1.3-2.5,1.3s.6,1.6-.5,2c-1.6-1.2-2.8-.6-4.8-2.2s.4-3.5-3.5-4.8c2.5-6.3,2.5-5,8.8-7.5-3.8-2.5-3.8-2.5-6.3-6.3-3.8-1.3-5-2.5-8.8-5-5-6.3-7.5-18.8-7.5-27.6,3.2-2.9,7.5,10,13.8,13.8l8.8,3.8c5,2.5,6.3,5,10,7.5l11.3,3.8c5,3.8,7.5,8.8,11.3,10,4.1,0,4.9-2.4,6.2-2.5,7.4-.4,11.1-1.3,12.6-3.5,1.5-1.8,5.1,1,15.1-2.7l-1.3-5a7.675,7.675,0,0,1,6.3-1.3c-.1-2.3-.3-8.4,3.2-11.2-2.2-2.3-.7-3.9-.7-3.9s2-1.9,2.2-2.9c-1.1-5.5.9-5.6,1.4-7.2.4-1.6-1.7-1.1-1.1-3.3s4.2-2.8,4.7-4.6-1-2.8-.9-3.2c.8-1.8.1-5.9,0-7.5,6.7-1.8,8.9-7.3,11.3-5,1.3-7.5,2.5-10,10-10,1.1-2.3-2.7-4.3-1.3-5,2.5-.3,4.4-.2,7.4,3.6.9,1.2,1.1-1.8,2-2.1s3.2-.3,3.5-1.8a31.151,31.151,0,0,1,2.1-6c1.1-2,1.9.8,2.8,4.8,5.3.2,17.3,1.4,22.3,2.7,3.8,1,6.3-1,9.9-1.4,2.7,2.7,5.2.7,6.6,6.4,2,3.1,5.3.3,6,1.2,4.2,11.6,18.6,3.8,19.7,4,1.8,0,4.1,5.2,5.5,5,2.4-.4,1.7-2,3.8-1.4-.6,4.4,4,9.4,4,12.6a2.179,2.179,0,0,0,2.2-.4c1-1,2-3.4,2.9-3.4,2.2.3,3.1.6,5.6,1,6.8,2.3,10.3,2.9,12.9,4,1.2,2.3,2.4,3.4,4.9,3,2.1,1.4.6,3.2,1.8,3.3,2.5-1.3,3.3-2.6,5.8-1.4a15.91,15.91,0,0,1,6.3,6.3c0,1.3-1.3,6.3,0,13.8a23.23,23.23,0,0,0,3.6,8.8c-.7,4.4,3.4,11.9,3.4,13.8,0,2.5-2,3.8-3.3,6.3,5,3.8,0,10-2.5,13.8,18.8,3.8,10,11.3,25.1,7.5-3.8,8.8-2.4,8.1,1.3,16.9-7.5,5-.2,6.6-5.2,12.8-.3.4,3,5.5,7.6,5.5-1.3,10-5,6.3-3.8,21.3-9.9-.2-5.9,11.3-12.6,10,.4,7.2,3.8,7.8,2.5,15.1-5,1.3-5,1.3-7.5,5l-3.8-1.3c-1.3,6.3-3.8,7.5,0,13.8,0,0-4.9.2-6.3,0-.1,2.2,2.2,2.7,2.5,5-.2.9-7.1,4.9-12.6,5-1.4,3.1,3.8,6.4,3.5,8-5.9,1.1-8.5,8.4-8.5,8.4s3,1.2,2.5,2.5c-1.6-1.2-2.5-1.3-5-1.3-1.3.3-4.3-.1-7.3,4.9-3.2,1.1-4.7.7-7.2,3.9-1.1-3.1-2.6,0-4.5,1.2s-4.5,4.2-4.8,4a34.821,34.821,0,0,1,1.2-4l-6.3,1.3a4.53,4.53,0,0,0-.8.1c-.5,0-.4-3.7-1.6-3.5-1.2.1-4.6,4.7-5.8,4.8s-1.5-1.4-2.5-1.3-2.9,4.8-3.7,4.9c-.7.1-3.5-2.8-5.9-2.4-12.4,4.4-14.3-8.6-16.2-1.3-2.6-1.4-2.1-.6-4.8.1-1.7.4-1.8-2.2-3.3-2.2-3,.1-2.8,2.9-4.5,2.1-1.3-5.9-9.4-4.8-10.2-7.3-.6-2.6,3.5-2.6,4.8-4.4,1-2.6-1.1-3.5,3.1-6,5.4-3.6,2.3-5,3.2-7.8,1.7-4,1.7-4.9.3-8.4,0,0-4.2-11.3-5-11.3-2.5-.7-2.5,4.2-6.2,5.5-7.5,2.5-20.8-6.4-23.1-6.4-2.1,0-11.9,2.3-11.6-2.6-1.5,4.8-6.9,1.1-7.2,1.1-5,0-3.1,3.9-6.5,3.7-1.5-.5-17-1.4-17-1.4v2.5l-10-5-8.8-2.5c-7.5-2.5-3.8-8.8-16.3-5v-7.5h-6.3c2.5-15.1,0-7.5-1.3-21.3l-5,1.3c-5-6.8,7-5.5-3.8-10,0,0,.2-7.5-2.5-5-.5.3,1.3,3.8,1.3,3.8-10-1.3-12.6-3.8-12.6-13.8,0,0,8.3,1.2,7.5,0-1.2-1.9-2.7-14.1-2.4-14.9-.1-1.6,7.7-5.8,6.2-9.8a19.144,19.144,0,0,1,4.5-.7" fill="#fff"/></g></svg>