<svg xmlns="http://www.w3.org/2000/svg" width="512.001" height="335.448" viewBox="0 0 512.001 335.448"><g transform="translate(0 -88.276)"><path d="M503.172,88.276H8.828A8.829,8.829,0,0,0,0,97.1V414.9a8.829,8.829,0,0,0,8.828,8.828H503.173A8.829,8.829,0,0,0,512,414.9V97.1A8.83,8.83,0,0,0,503.172,88.276Z" fill="#464655"/><path d="M256,105.931l11.2,58.482,32.721-49.746-12.037,58.314,49.268-33.438-33.437,49.269,58.314-12.038L312.276,209.5l58.482,11.194-58.482,11.194,49.747,32.722-58.314-12.038,33.437,49.268L287.878,268.4l12.037,58.315-32.721-49.747L256,335.448l-11.193-58.481-32.723,49.747L224.122,268.4l-49.269,33.437,33.438-49.268-58.314,12.038,49.746-32.722L141.241,220.69,199.723,209.5l-49.746-32.722,58.314,12.038-33.438-49.269,49.269,33.438-12.039-58.314,32.723,49.746Z" fill="#ffe15a"/><path d="M0,97.1V414.9a8.829,8.829,0,0,0,8.828,8.828H256L2.3,91.289A8.719,8.719,0,0,0,0,97.1Z" fill="#ff4b55"/><path d="M256,423.724H503.171A8.829,8.829,0,0,0,512,414.9V97.1a8.724,8.724,0,0,0-2.3-5.816Z" fill="#ff4b55"/><path d="M154.947,291.31h202.1l53.894-70.62H101.052Z" fill="#4173cd"/><path d="M154.947,291.31,256,423.724,357.052,291.31Z" fill="#f5f5f5"/></g></svg>