<svg xmlns="http://www.w3.org/2000/svg" width="512.001" height="335.449" viewBox="0 0 512.001 335.449"><g transform="translate(0 -88.276)"><path d="M512,200.093H0V97.1a8.829,8.829,0,0,1,8.828-8.828H503.173A8.829,8.829,0,0,1,512,97.1V200.093Z" fill="#82afff"/><path d="M503.172,423.725H8.828A8.829,8.829,0,0,1,0,414.9V311.909H512V414.9A8.828,8.828,0,0,1,503.172,423.725Z" fill="#82afff"/><rect width="512" height="111.81" transform="translate(0 200.091)" fill="#f5f5f5"/><path d="M300.138,253.794H268.354a14.876,14.876,0,0,0,1.486-1.311,9.318,9.318,0,0,1,6.629-2.75,13.608,13.608,0,0,0,9.656-3.992,8.1,8.1,0,0,1,3.034-2.044,7.927,7.927,0,0,1,3.577-.7,12.32,12.32,0,0,0,5.228-1.043l-1.7-4.07a7.927,7.927,0,0,1-3.577.7,13.608,13.608,0,0,0-9.647,3.992,9.318,9.318,0,0,1-6.629,2.75,13.66,13.66,0,0,0-9.656,4,8.215,8.215,0,0,1-2.966,2l24.98-24.977-3.121-3.121-22.485,22.483a15.741,15.741,0,0,0,.132-1.982,9.219,9.219,0,0,1,2.747-6.629,13.626,13.626,0,0,0,4-9.663,9.173,9.173,0,0,1,2.737-6.612,12.31,12.31,0,0,0,2.962-4.423l-4.077-1.689a8.074,8.074,0,0,1-2.039,3.026,13.585,13.585,0,0,0-4,9.647,9.187,9.187,0,0,1-2.742,6.62,13.646,13.646,0,0,0-4.007,9.672,8.122,8.122,0,0,1-.676,3.5V211.862h-4.414v31.783a15.788,15.788,0,0,0-1.306-1.481,9.245,9.245,0,0,1-2.751-6.638,13.6,13.6,0,0,0-4-9.656A9.173,9.173,0,0,1,243,219.258a12.2,12.2,0,0,0-1.035-5.216l-4.077,1.689a8.078,8.078,0,0,1,.7,3.577,13.585,13.585,0,0,0,4,9.647,9.231,9.231,0,0,1,2.746,6.63,13.641,13.641,0,0,0,4,9.664,8.133,8.133,0,0,1,2,2.962l-24.982-24.979-3.121,3.121,24.943,24.94a8.567,8.567,0,0,1-2.745-1.888,12.3,12.3,0,0,0-4.448-2.974,12.457,12.457,0,0,0-5.233-1.043,9.425,9.425,0,0,1-6.685-2.766,12.539,12.539,0,0,0-4.457-2.974,12.4,12.4,0,0,0-5.25-1.043,8.243,8.243,0,0,1-3.625-.724l-1.689,4.086a12.4,12.4,0,0,0,5.25,1.043,8.243,8.243,0,0,1,3.625.724,8.118,8.118,0,0,1,3.073,2.051,13.813,13.813,0,0,0,9.7,4.018,9.36,9.36,0,0,1,6.656,2.759,16.344,16.344,0,0,0,1.391,1.233H211.86v4.414h35.254a8.457,8.457,0,0,1-3.263.612,12.3,12.3,0,0,0-5.237,1.035,12.442,12.442,0,0,0-4.448,2.966,8.085,8.085,0,0,1-3.052,2.051,8.229,8.229,0,0,1-3.625.724,13.739,13.739,0,0,0-9.707,4.017,8.13,8.13,0,0,1-3.069,2.051l1.689,4.086a12.415,12.415,0,0,0,4.452-2.974,8.118,8.118,0,0,1,3.073-2.051,8.229,8.229,0,0,1,3.625-.724,13.752,13.752,0,0,0,9.694-4.018,9.4,9.4,0,0,1,6.661-2.759,16.048,16.048,0,0,0,1.868-.124l-22.549,22.546,3.121,3.121,24.931-24.927a8.47,8.47,0,0,1-1.879,2.738,13.693,13.693,0,0,0-4.009,9.68,9.382,9.382,0,0,1-2.768,6.681,13.765,13.765,0,0,0-4.021,9.707,8.263,8.263,0,0,1-.715,3.62l4.077,1.689a12.334,12.334,0,0,0,1.047-5.25,8.263,8.263,0,0,1,.715-3.62,8.158,8.158,0,0,1,2.056-3.069,13.739,13.739,0,0,0,4.017-9.7,8.2,8.2,0,0,1,.712-3.612,8.089,8.089,0,0,1,2.047-3.052,16.465,16.465,0,0,0,1.233-1.395v31.878H258.2V264.886a8.491,8.491,0,0,1,.608,3.261,13.734,13.734,0,0,0,4.009,9.681,9.383,9.383,0,0,1,2.766,6.68,13.765,13.765,0,0,0,4.021,9.707,8.182,8.182,0,0,1,2.056,3.069l4.077-1.689a12.356,12.356,0,0,0-2.974-4.457A9.4,9.4,0,0,1,270,284.449a13.761,13.761,0,0,0-4.013-9.7,9.364,9.364,0,0,1-2.763-6.664,16.785,16.785,0,0,0-.126-1.868l22.552,22.55,3.121-3.121L266.285,263.17a16.417,16.417,0,0,0,1.973.134,8.042,8.042,0,0,1,3.6.7,8.144,8.144,0,0,1,3.043,2.051,12.4,12.4,0,0,0,4.436,2.966,12.219,12.219,0,0,0,5.224,1.026,8.111,8.111,0,0,1,3.582.707,7.969,7.969,0,0,1,3.026,2.035,12.4,12.4,0,0,0,4.427,2.966l1.689-4.086a7.969,7.969,0,0,1-3.026-2.035,12.4,12.4,0,0,0-4.427-2.966,12.217,12.217,0,0,0-5.224-1.026,8.111,8.111,0,0,1-3.582-.707,8.026,8.026,0,0,1-3.043-2.044,12.284,12.284,0,0,0-4.436-2.957,12.052,12.052,0,0,0-5.233-1.043,8.286,8.286,0,0,1-3.524-.681h35.35v-4.414h0Z" fill="#f09146"/><circle cx="22.07" cy="22.07" r="22.07" transform="translate(233.93 233.931)" fill="#ffe15a"/></g></svg>