<svg xmlns="http://www.w3.org/2000/svg" width="512.001" height="335.448" viewBox="0 0 512.001 335.448"><g transform="translate(0 -88.276)"><path d="M503.172,423.724H8.828A8.829,8.829,0,0,1,0,414.9V97.1a8.829,8.829,0,0,1,8.828-8.828H503.173A8.829,8.829,0,0,1,512,97.1V414.9A8.83,8.83,0,0,1,503.172,423.724Z" fill="#4173cd"/><rect width="512" height="17.655" transform="translate(0 317.79)" fill="#ffe15a"/><rect width="512" height="17.655" transform="translate(0 353.1)" fill="#ffe15a"/><path d="M65.232,175.942,32.384,164.725l32.848-11.216,11.217-32.844,11.216,32.844,32.848,11.216L87.665,175.942,76.449,208.787Z" fill="#ff4b55"/><path d="M76.449,126.567l9.714,28.445,28.445,9.714L86.163,174.44l-9.714,28.445L66.735,174.44,38.29,164.726l28.445-9.714,9.714-28.445m0-11.808-3.612,10.574-9.108,26.673-26.672,9.108-10.574,3.612,10.574,3.61,26.672,9.108,9.108,26.672,3.612,10.574,3.612-10.574,9.108-26.672,26.672-9.108,10.574-3.61-10.574-3.61-26.672-9.108-9.108-26.672-3.612-10.577Z" fill="#f5f5f5"/></g></svg>