<svg xmlns="http://www.w3.org/2000/svg" width="512.001" height="335.449" viewBox="0 0 512.001 335.449"><g transform="translate(0 -88.276)"><path d="M503.172,423.725H8.828A8.829,8.829,0,0,1,0,414.9V97.1a8.829,8.829,0,0,1,8.828-8.828H503.173A8.829,8.829,0,0,1,512,97.1V414.9A8.83,8.83,0,0,1,503.172,423.725Z" fill="#41479b"/><path d="M247.172,88.277H231.838l-81.77,53.574V88.277H105.93v53.574L24.16,88.277H8.828A8.828,8.828,0,0,0,0,97.1v7l70.155,45.963H0v44.138H70.155L0,240.171v7A8.829,8.829,0,0,0,8.828,256H24.162l81.77-53.574V256H150.07V202.427L231.839,256h15.334A8.829,8.829,0,0,0,256,247.173v-7l-70.155-45.963H256V150.07H185.845L256,104.107v-7A8.828,8.828,0,0,0,247.172,88.277Z" fill="#f5f5f5"/><path d="M256,158.9H141.241V88.277H114.759V158.9H0V185.38H114.759V256h26.482V185.38H256Z" fill="#ff4b55"/><path d="M97.1,150.07l-92.9-60.3A8.684,8.684,0,0,0,0,97.1v.458L80.889,150.07H97.1Z" fill="#ff4b55"/><path d="M166.283,150.07,254.657,92.7a8.7,8.7,0,0,0-7.485-4.427h-1.909L150.069,150.07Z" fill="#ff4b55"/><path d="M89.474,194.208l-88.2,57.256A8.717,8.717,0,0,0,8.828,256h1.665l95.2-61.793H89.474Z" fill="#ff4b55"/><path d="M255.86,247.866l-82.666-53.658H156.98l93.874,60.935A8.741,8.741,0,0,0,255.86,247.866Z" fill="#ff4b55"/><path d="M130.671,304.131l6.663,22,21.353-8.505a1.982,1.982,0,0,1,2.366,2.966l-13.044,18.924L167.971,350.9a1.982,1.982,0,0,1-.844,3.7L144.2,356.2l3.541,22.71a1.982,1.982,0,0,1-3.418,1.646l-15.548-16.928L113.225,380.56a1.982,1.982,0,0,1-3.418-1.646l3.541-22.71-22.929-1.6a1.982,1.982,0,0,1-.844-3.7l19.962-11.391L96.493,320.589a1.982,1.982,0,0,1,2.366-2.966l21.353,8.505,6.663-22A1.983,1.983,0,0,1,130.671,304.131Z" fill="#f5f5f5"/><path d="M393.279,147.73l3.255,10.745,10.43-4.154a.968.968,0,0,1,1.155,1.449l-6.371,9.245,9.751,5.565a.968.968,0,0,1-.413,1.806l-11.2.782,1.729,11.093a.968.968,0,0,1-1.67.8l-7.6-8.269-7.6,8.269a.968.968,0,0,1-1.67-.8l1.729-11.093-11.2-.782a.968.968,0,0,1-.413-1.806l9.751-5.565-6.371-9.245a.968.968,0,0,1,1.155-1.449l10.43,4.154,3.255-10.745A.971.971,0,0,1,393.279,147.73Z" fill="#f5f5f5"/><path d="M320.7,230.206l3.255,10.745,10.43-4.154a.968.968,0,0,1,1.155,1.449l-6.371,9.245,9.751,5.565a.968.968,0,0,1-.413,1.806l-11.2.782,1.729,11.093a.968.968,0,0,1-1.67.8l-7.6-8.269-7.6,8.269a.968.968,0,0,1-1.67-.8l1.729-11.093-11.2-.782a.968.968,0,0,1-.413-1.806l9.751-5.565L304,238.246a.968.968,0,0,1,1.155-1.449l10.43,4.154,3.255-10.745A.971.971,0,0,1,320.7,230.206Z" fill="#f5f5f5"/><path d="M461.943,194.9,465.2,205.64l10.43-4.154a.968.968,0,0,1,1.155,1.449l-6.371,9.245,9.751,5.565a.968.968,0,0,1-.413,1.806l-11.2.782,1.729,11.093a.968.968,0,0,1-1.669.8l-7.6-8.269-7.6,8.269a.968.968,0,0,1-1.67-.8l1.729-11.093-11.2-.782a.968.968,0,0,1-.413-1.806l9.751-5.565-6.371-9.245a.968.968,0,0,1,1.155-1.449l10.43,4.154,3.255-10.745A.971.971,0,0,1,461.943,194.9Z" fill="#f5f5f5"/><path d="M393.279,336.137l3.255,10.745,10.43-4.155a.968.968,0,0,1,1.155,1.449l-6.371,9.245,9.751,5.565a.968.968,0,0,1-.413,1.806l-11.2.782,1.729,11.093a.968.968,0,0,1-1.67.8l-7.6-8.269-7.6,8.269a.968.968,0,0,1-1.67-.8l1.729-11.093-11.2-.782a.968.968,0,0,1-.413-1.806l9.751-5.565-6.371-9.245a.968.968,0,0,1,1.155-1.449l10.43,4.155,3.255-10.745A.971.971,0,0,1,393.279,336.137Z" fill="#f5f5f5"/><path d="M418.461,249.514l-2.613,7.836-8.259.064a1.113,1.113,0,0,0-.652,2.008l6.644,4.907-2.492,7.875a1.113,1.113,0,0,0,1.708,1.241l6.72-4.8,6.72,4.8a1.113,1.113,0,0,0,1.708-1.241l-2.492-7.875,6.644-4.907a1.113,1.113,0,0,0-.652-2.008l-8.259-.064-2.613-7.836A1.113,1.113,0,0,0,418.461,249.514Z" fill="#f5f5f5"/></g></svg>