<svg xmlns="http://www.w3.org/2000/svg" width="512.001" height="335.448" viewBox="0 0 512.001 335.448"><g transform="translate(0 -88.276)"><path d="M0,311.908H512V414.9a8.829,8.829,0,0,1-8.828,8.828H8.828A8.829,8.829,0,0,1,0,414.9Z" fill="#73af00"/><path d="M8.828,88.276H503.173A8.829,8.829,0,0,1,512,97.1V200.092H0V97.1A8.829,8.829,0,0,1,8.828,88.276Z" fill="#82afff"/><rect width="512" height="111.81" transform="translate(0 200.09)" fill="#ff4b55"/><path d="M268.04,292.608a35.9,35.9,0,0,1,0-71.8,35.193,35.193,0,0,1,19.832,6.1A.869.869,0,0,0,289,225.607a44.481,44.481,0,0,0-33.732-13.718,44.847,44.847,0,0,0,1.558,89.666,44.494,44.494,0,0,0,32.206-13.773.862.862,0,0,0-1.132-1.289A35.217,35.217,0,0,1,268.04,292.608Z" fill="#f5f5f5"/><path d="M299.452,234.611l3.723,10.467,10.034-4.769a.889.889,0,0,1,1.185,1.185l-4.769,10.034,10.467,3.723a.889.889,0,0,1,0,1.676l-10.467,3.723,4.769,10.034a.889.889,0,0,1-1.185,1.185L303.175,267.1l-3.723,10.467a.889.889,0,0,1-1.676,0L294.053,267.1l-10.034,4.769a.889.889,0,0,1-1.185-1.185L287.6,260.65l-10.467-3.723a.889.889,0,0,1,0-1.676l10.467-3.723-4.769-10.034a.889.889,0,0,1,1.185-1.185l10.034,4.769,3.723-10.467A.89.89,0,0,1,299.452,234.611Z" fill="#f5f5f5"/></g></svg>