<svg xmlns="http://www.w3.org/2000/svg" width="511.999" height="335.448" viewBox="0 0 511.999 335.448"><g transform="translate(0 -88.276)"><path d="M211.862,423.724H8.828A8.829,8.829,0,0,1,0,414.9V97.1a8.829,8.829,0,0,1,8.828-8.828H211.862Z" fill="#f5f5f5"/><path d="M141.241,88.277l70.621,20.965-70.621,20.965,70.621,20.965-70.621,20.965L211.862,193.1l-70.621,20.965,70.621,20.965L141.241,256l70.621,20.965-70.621,20.965,70.621,20.965-70.621,20.965,70.621,20.965-70.621,20.965,70.621,20.965-70.621,20.965h361.93A8.829,8.829,0,0,0,512,414.889V97.1a8.829,8.829,0,0,0-8.828-8.828H141.241Z" fill="#ff4b55"/></g></svg>