<svg xmlns="http://www.w3.org/2000/svg" width="512" height="335.454" viewBox="0 0 512 335.454"><g transform="translate(0 -88.273)"><path d="M170.667,423.721H8.828A8.829,8.829,0,0,1,0,414.893V97.1a8.829,8.829,0,0,1,8.828-8.828H170.667Z" fill="#41479b"/><rect width="170.67" height="335.45" transform="translate(170.67 88.277)" fill="#ffe15a"/><path d="M503.172,423.721H341.333V88.273H503.172A8.829,8.829,0,0,1,512,97.1V414.893A8.828,8.828,0,0,1,503.172,423.721Z" fill="#41479b"/><path d="M326.62,207.253s-24.564,0-42.987,18.423h12.281s-11.9,21.493-18.039,58.339l-12.665-2.068V225.493l12.281,4.021L256,176.549l-21.493,52.965,12.281-4.1v56.527l-12.665,2.068c-6.141-36.845-18.039-58.339-18.039-58.339h12.281c-18.422-18.422-42.986-18.422-42.986-18.422,30.7,36.845,30.7,98.255,30.7,98.255l30.7-5.117v41.963h18.423V300.391l30.7,5.117S295.915,244.1,326.62,207.253Z" fill="#464655"/></g></svg>