<svg xmlns="http://www.w3.org/2000/svg" width="512.001" height="335.449" viewBox="0 0 512.001 335.449"><g transform="translate(0 -88.276)"><path d="M503.172,423.724H8.828A8.829,8.829,0,0,1,0,414.9V97.1a8.829,8.829,0,0,1,8.828-8.828H503.173A8.829,8.829,0,0,1,512,97.1V414.9A8.83,8.83,0,0,1,503.172,423.724Z" fill="#ff4b55"/><path d="M512,97.1a8.829,8.829,0,0,0-8.828-8.828H471.734L256,229.619,40.266,88.276H8.828A8.829,8.829,0,0,0,0,97.1v17.554L215.734,256,0,397.343V414.9a8.829,8.829,0,0,0,8.828,8.828H40.266L256,282.382,471.734,423.725h31.438A8.829,8.829,0,0,0,512,414.9V397.343L296.265,256,512,114.657V97.1Z" fill="#73af00"/><path d="M512,233.931H278.068V88.276H233.931V233.931H0v44.138H233.931V423.724h44.137V278.069H512Z" fill="#f5f5f5"/></g></svg>