<svg xmlns="http://www.w3.org/2000/svg" width="512" height="335.448" viewBox="0 0 512 335.448"><g transform="translate(0 -88.276)"><path d="M503.172,423.724H8.828A8.829,8.829,0,0,1,0,414.9V335.448H512V414.9A8.828,8.828,0,0,1,503.172,423.724Z" fill="#73af00"/><path d="M503.172,88.276H8.828A8.829,8.829,0,0,0,0,97.1V335.448H512V97.1A8.829,8.829,0,0,0,503.172,88.276Z" fill="#ff4b55"/><path d="M70.621,423.724H8.828A8.829,8.829,0,0,1,0,414.9V97.1a8.829,8.829,0,0,1,8.828-8.828H70.621Z" fill="#f5f5f5"/><path d="M8.833,409.063h3.122v-8.75H8.833Zm24.918,0h3.123v-8.75H33.751Zm24.934,0h3.108v-8.75H58.685ZM21.308,385.6H24.4v-7.292H21.308Zm24.933,0h3.108v-7.292H46.241ZM8.833,366.581h3.122v-8.75H8.833Zm24.918,0h3.123v-8.75H33.751Zm24.934,0h3.108v-8.75H58.685Zm-43.591,11.73h3.091v-7.357h3.123v-7.292H24.4v7.292h3.139v7.357h3.091V385.6H27.538v7.354H24.4v7.354H21.308v-7.354H18.185V385.6H15.094Zm24.919,0h3.122v-7.357h3.107v-7.292H49.35v7.292h3.107v7.357h3.122V385.6H52.457v7.354H49.35v7.354H46.242v-7.354H43.135V385.6H40.013v-7.292Zm6.228-29.294v7.292H43.1v7.354H40.013v7.292H36.874v7.357H33.751v-7.357H30.628v-7.292H27.537v-7.354H24.4v-7.292H21.307v7.292H18.184v7.354H15.093v7.292H11.954v7.357H8.833V385.6h3.122v7.354h3.139v7.354h3.091V407.6h3.123V414.9h3.123V407.6h3.107v-7.292h3.091v-7.354h3.123V385.6h3.123v7.354h3.139v7.354h3.122V407.6h3.107V414.9h3.108V407.6h3.107v-7.292H55.58v-7.354H58.7V385.6h3.091v-7.292H58.686v-7.357H55.58v-7.292H52.458v-7.354H49.351v-7.292Zm7.72-7.29h1.554v-2.916h1.569v2.916h1.569v2.915H57.084v2.98H55.515v-2.98H53.961Zm0-10.21v4.313H52.424v4.438H50.855V346.1h1.569v4.374h1.537v4.374h4.693v-4.374h1.554V346.1h1.537v-5.834H60.208V335.83H58.654v-4.313ZM11.955,341.662h1.569v-2.915h1.569v2.915h1.521v2.98H15.093v2.916H13.524v-2.916H11.955Zm0-10.209v4.376H10.4V340.2H8.833v5.9H10.4v4.374h1.554v4.374h4.66v-4.374h1.569V346.1h1.523v-5.9H18.184v-4.374H16.615v-4.376ZM29.09,341.662h1.537v-2.915h1.586v2.915H33.75v2.98H32.213v2.916H30.627v-2.916H29.09Zm7.784,0h1.569v-2.915h1.569v2.915h1.537v2.98H40.012v2.916H38.443v-2.916H36.874Zm0-10.209v4.376H33.751v-4.376h-4.66v4.376H27.537V340.2H25.968v5.9h1.569v4.374h1.554v4.374h4.66v-4.374h3.123v4.374H41.55v-4.374h1.585V346.1h1.523v-5.9H43.135v-4.374H41.55v-4.376Zm-28.041-2.98h3.122v-8.749H8.833Zm24.918,0h3.123v-8.749H33.751Zm24.934,0h3.108v-8.749H58.685ZM8.833,291.887h3.122v-5.832H8.833Zm49.852,0h3.108v-5.832H58.685Zm-24.934-20.48h3.123v-7.292H33.751ZM8.833,251.626v8.811h3.122v-8.811Zm17.134,0v8.811H29.09v-8.811Zm15.583,0v8.811h3.107v-8.811Zm17.135,0v8.811h3.108v-8.811Zm-20.242-5.135v2.916H36.874v2.219H33.751v-2.219H32.214v-2.916H29.091v4.374h1.537v2.219h1.586v5.833H30.628v2.219H29.091v4.374h3.123v-2.915h1.537v-2.157h3.123v2.157h1.569v2.915H41.55v-4.374H40.013v-2.219H38.444v-5.833h1.569v-2.219H41.55v-4.374Zm-4.692,1.456h3.123v-7.292H33.751ZM8.833,226.008h3.122v-5.832H8.833Zm49.852,0h3.108v-5.832H58.685ZM8.833,192.34h3.122v-8.812H8.833Zm24.918,0h3.123v-8.812H33.751Zm24.934,0h3.108v-8.812H58.685ZM21.308,256.127v-.19h0v-2.854H24.4V248.01h3.139v-5.9h4.676V235.2h1.537v-3.361h3.123v3.3h1.569v6.975h4.691v5.9h3.107v5.073h3.108v5.833H46.241v5.2H43.134v5.832H38.443v6.912H36.874v3.3H33.751v-3.3H32.214v-6.912H27.538v-5.834H24.4v-5.2H21.308Zm24.933-81.413v7.354H43.1v7.292H40.013v7.357H36.874v7.291H33.751v-7.292H30.628v-7.357H27.537v-7.292H24.4v-7.354H21.307v7.354H18.184v7.292H15.061v7.357H11.954v7.291H8.833v7.354h3.122v7.354h3.107v7.292h3.123V233.3h3.123v-7.293H24.4v-7.292h3.139v-7.354H24.4v-8.814h3.139v5.9h3.091v11.731h1.586V227.4l-4.676.063V233.3H24.4v4.374H21.309v7.354H18.186v-7.354H15.063V233.3H11.956v-4.376H8.833v13.188h3.122v5.9h3.107v5.073h3.123v5.835H15.062v5.2H11.955v5.834H8.833v13.188h3.122V278.7h3.107v-4.374h3.123v-7.292h3.123v7.292H24.4V278.7h3.139v5.9l4.676.063v7.228H30.628v11.731H27.537v5.9H24.4v-8.877h3.139v-7.292H24.4v-7.292H21.307V278.7H18.184v7.357H15.061v7.292H11.954v7.292H8.833v7.354h3.122v7.292h3.139v7.357h3.091v7.354h3.123v7.292H24.4v-7.292h3.139v-7.354h3.091v-7.357h3.123v-7.292h3.123v7.292h3.139v7.357h3.122V330h3.107v7.292h3.108V330h3.107v-7.354H55.58v-7.357h3.106v-7.292h3.107v-7.354H58.685v-7.292H55.579v-7.292H52.457V278.7H49.35v7.357H46.242v7.292H43.1v7.292h3.137v8.877H43.1v-5.9H40.014V291.887H38.445V284.6h4.691v-5.9h3.107v-4.374h3.108v-7.292h3.107v7.292H55.58V278.7H58.7v4.439h3.091V269.949H58.7v-5.834H55.579v-5.2H52.457v-5.832h3.122v-5.073H58.7v-5.9h3.092V228.926H58.7V233.3H55.579v4.374H52.457v7.354H49.35v-7.354H46.242V233.3H43.135v-5.834H38.444v-7.292h1.569V208.445H43.1v-5.9h3.137v8.813H43.1v7.354h3.137v7.292h3.108V233.3h3.107v-7.293h3.122v-7.292h3.106v-7.354h3.11v-7.354H58.686v-7.292H55.58v-7.357H52.458v-7.292H49.351v-7.354h-3.11Zm-34.286-7.292h1.539v-2.916h1.6v2.916h1.521v2.916H15.094v2.98h-1.6v-2.98H11.955Zm0-5.9H10.4v4.438H8.833V171.8H10.4v4.438h1.554v4.376h4.66v-4.376h1.569V171.8h1.523v-5.834H18.184v-4.438H16.615v-4.311h-4.66Zm17.135,5.9h1.537v-2.916h1.586v2.916H33.75v2.916H32.213v2.98H30.627v-2.98H29.09Zm7.784,0h1.569v-2.916h1.569v2.916h1.537v2.916H40.012v2.98H38.443v-2.98H36.874Zm-7.784-5.9H27.536v4.438H25.967V171.8h1.569v4.438H29.09v4.376h4.66v-4.376h3.123v4.376h4.676v-4.376h1.585V171.8h1.523v-5.834H43.134v-4.438H41.549v-4.311H36.873v4.311H33.75v-4.311H29.09Zm24.871,5.834h1.554V164.5h1.569v2.854h1.569v2.98H57.084v2.915H55.515v-2.915H53.961Zm0-10.208v4.374H52.424v4.438H50.855V171.8h1.569v4.374h1.537v4.376h4.693v-4.376h1.554V171.8h1.537v-5.834H60.208v-4.438H58.654v-4.374ZM8.833,154.234h3.122v-8.75H8.833Zm24.918,0h3.123v-8.75H33.751Zm24.934,0h3.108v-8.75H58.685Zm-37.377-20.48H24.4V126.4H21.308Zm24.933,0h3.108V126.4H46.241Zm-37.408-22h3.122V103H8.833Zm24.918,0h3.123V103H33.751Zm24.934,0h3.108V103H58.685ZM15.094,126.4h3.091v-7.292h3.123v-7.354H24.4v7.354h3.139V126.4h3.091v7.357H27.538v7.292H24.4V148.4H21.308v-7.354H18.185v-7.292H15.094Zm24.919,0h3.122v-7.292h3.107v-7.354H49.35v7.354h3.107V126.4h3.122v7.357H52.457v7.292H49.35V148.4H46.242v-7.354H43.135v-7.292H40.013V126.4ZM46.241,97.1v7.357H43.134v7.292H40.012v7.354H36.873V126.4H33.75v-7.292H30.627v-7.354H27.536v-7.292H24.43V97.1H21.307v7.357H18.184v7.292H15.093v7.354H11.954V126.4H8.833v7.357h3.122v7.292h3.139V148.4h3.091v7.354h3.123v7.292H24.4v-7.292h3.139V148.4h3.091v-7.354h3.123v-7.292h3.123v7.292h3.139V148.4H43.1v7.354h3.137v7.292H49.35v-7.292h3.107V148.4h3.122v-7.354h3.106v-7.292h3.108V126.4H58.7v-7.292H55.578v-7.354H52.456v-7.292H49.349V97.1Z" fill="#ff4b55"/></g></svg>