<svg xmlns="http://www.w3.org/2000/svg" width="512.001" height="335.449" viewBox="0 0 512.001 335.449"><g transform="translate(0 -88.276)"><path d="M512,123.586H0V97.1a8.829,8.829,0,0,1,8.828-8.828H503.173A8.829,8.829,0,0,1,512,97.1v26.482Z" fill="#ff4b55"/><path d="M0,388.414H512V414.9a8.829,8.829,0,0,1-8.828,8.828H8.828A8.829,8.829,0,0,1,0,414.9Z" fill="#ff4b55"/><rect width="512" height="264.83" transform="translate(0 123.59)" fill="#41479b"/><circle cx="114.76" cy="114.76" r="114.76" transform="translate(141.24 141.24)" fill="#f5f5f5"/><path d="M233.979,316.344l-17.7,2.951a3.661,3.661,0,0,1-4.263-3.612v-6.661h21.966v7.322Z" fill="#82afff"/><path d="M277.913,316.344l17.7,2.951a3.661,3.661,0,0,0,4.263-3.612v-6.661H277.914v7.322h0Z" fill="#82afff"/><path d="M252.285,197.248h-1.53a4.8,4.8,0,0,1-4.312-2.664l-2.708-5.417,2.456-1.23,2.708,5.417a2.065,2.065,0,0,0,1.856,1.148h1.53Z" fill="#965032"/><rect width="10.149" height="2.746" transform="translate(223.93 191.588) rotate(63.435)" fill="#965032"/><path d="M260.98,239.462l-7.5-7.5a8.818,8.818,0,0,1-2.566-6.193v-2.525a6.046,6.046,0,0,0-.634-2.685l-1.87-3.74a2.279,2.279,0,0,0-2.047-1.266H239.9a5.006,5.006,0,0,1-4.5-2.782l-2.649-5.3,2.456-1.23,2.649,5.3a2.279,2.279,0,0,0,2.047,1.266h6.457a5.006,5.006,0,0,1,4.5,2.782l1.87,3.74a8.8,8.8,0,0,1,.925,3.915v2.525a6.037,6.037,0,0,0,1.761,4.247l2.816,2.817V220.04a15.391,15.391,0,0,0-3.361-9.578,18.155,18.155,0,0,1-3.961-11.294V188.553h2.745v10.615a15.391,15.391,0,0,0,3.361,9.578,18.149,18.149,0,0,1,3.961,11.294v19.422Z" fill="#965032"/><path d="M254.448,232.361h-4.076a6.07,6.07,0,0,1-5.665-3.936l-1.032-2.782,2.574-.958,1.032,2.782a3.308,3.308,0,0,0,3.091,2.148h4.076v2.746Z" fill="#965032"/><rect width="2.747" height="38.301" transform="translate(265.684 184.339) rotate(23.797)" fill="#965032"/><path d="M271.963,215.553H258.692v-2.745h10.526V199.537h2.745Z" fill="#965032"/><path d="M246.793,228.825H235.81a5.492,5.492,0,0,1-5.492-5.492h0a5.492,5.492,0,0,1,5.492-5.492h10.984a5.492,5.492,0,0,1,5.492,5.492h0A5.493,5.493,0,0,1,246.793,228.825Z" fill="#73af00"/><path d="M272.421,228.825H261.437a5.492,5.492,0,0,1-5.492-5.492h0a5.492,5.492,0,0,1,5.492-5.492h10.984a5.492,5.492,0,0,1,5.492,5.492h0A5.492,5.492,0,0,1,272.421,228.825Z" fill="#73af00"/><path d="M283.4,217.842H268.76a5.492,5.492,0,0,1-5.492-5.492h0a5.492,5.492,0,0,1,5.492-5.492H283.4a5.492,5.492,0,0,1,5.492,5.492h0A5.493,5.493,0,0,1,283.4,217.842Z" fill="#73af00"/><path d="M287.065,203.2H261.437a5.492,5.492,0,0,1-5.492-5.492h0a5.492,5.492,0,0,1,5.492-5.492h25.628a5.492,5.492,0,0,1,5.492,5.492h0A5.493,5.493,0,0,1,287.065,203.2Z" fill="#73af00"/><path d="M272.421,188.553H265.1a5.492,5.492,0,0,1-5.492-5.492h0a5.492,5.492,0,0,1,5.492-5.492h7.322a5.492,5.492,0,0,1,5.492,5.492h0A5.493,5.493,0,0,1,272.421,188.553Z" fill="#73af00"/><path d="M224.827,195.875h-3.661a5.492,5.492,0,0,1-5.492-5.492h0a5.492,5.492,0,0,1,5.492-5.492h3.661a5.492,5.492,0,0,1,5.492,5.492h0A5.493,5.493,0,0,1,224.827,195.875Z" fill="#73af00"/><path d="M250.455,192.214H239.471a5.492,5.492,0,0,1-5.492-5.492h0a5.492,5.492,0,0,1,5.492-5.492h10.984a5.492,5.492,0,0,1,5.492,5.492h0A5.493,5.493,0,0,1,250.455,192.214Z" fill="#73af00"/><path d="M246.793,210.519H224.827a5.492,5.492,0,0,1-5.492-5.492h0a5.492,5.492,0,0,1,5.492-5.492h21.966a5.492,5.492,0,0,1,5.492,5.492h0A5.492,5.492,0,0,1,246.793,210.519Z" fill="#73af00"/><path d="M310.862,287.055H201.029a7.322,7.322,0,1,0,0,14.644h29.289a7.322,7.322,0,0,0,7.322,7.322h36.611a7.322,7.322,0,0,0,7.322-7.322h29.289a7.322,7.322,0,0,0,0-14.644Z" fill="#73af00"/><path d="M328.938,222.071c-.274-.55-1.7.1-2.593-.228-11.06-4.111-25.91-11.6-35.616-16.707l-1.949-3.085-18.4-8.941a2.469,2.469,0,0,0-3.225,1l-.907,1.594a2.469,2.469,0,0,0,1.006,3.411l17.518,9.114,4.95-.366,19.241,9.892s13.073,6.687,13.768,7.178,1.094,3.242,2.39,3.012C326.053,227.78,330.122,224.45,328.938,222.071Z" fill="#be7855"/><path d="M207.589,292.547s1.22,5.416.076,6.026-7.246.61-7.093-.686.992-5.873.992-5.873Z" fill="#ffbe3c"/><path d="M217.733,289.648s-.992,4.042.992,4.2,13.2.076,13.5-.228a5.427,5.427,0,0,0,.686-1.068l-10.374-2.9Z" fill="#ffbe3c"/><path d="M206.35,239.233s-2.727,6.483-3.719,28.946c-.264,5.976.458,4.576-2.517,23.8l3.53,1.843a3.317,3.317,0,0,0,3.254-.1l3.436-2.082s-1.678-21.508,3.814-33.865c0,0,2.9,5.34,2.9,9.3s-.152,23.034-.152,23.034,6.407,1.068,9.3.763c0,0-1.831-41.378-3.661-51.122Z" fill="#eaf3f5"/><path d="M206.864,236.487s-1.087.8-.515,2.745c0,0,8.352,3.6,16.189.515a2.491,2.491,0,0,0-.228-2.8Z" fill="#965032"/><path d="M195.691,216.657c-4.753,1.767-11.975,6.178-11.517,9.687s2.944,2.653,3.72,1.791a54.112,54.112,0,0,1,3.7-4.117c.7-.491,11.937-6.263,11.937-6.263l29.765-15.3a2.941,2.941,0,0,0-1.545-2.689S213.539,210.021,195.691,216.657Z" fill="#965032"/><path d="M209.724,199.419l-.172,1.259s-.458,8.066,2.174,10.24c0,0,.572,1.658-.343,2.46s-9.953,5.377-9.953,5.377-2.346,4.863-2.289,7.608c0,0-2.231-.858-2-1.945s1.545-3.947,1.144-5.32a1.514,1.514,0,0,0-1.888-.972s-.744.8.458,1.315l-.4,1.716-4.863,2.86,1.087,1.315s.057,10.068,6.006,11.383c0,0,3.146.228,6.865-6.865,0,0,2,3.546,1.315,6.636,0,0,6.521,3.546,15.445.458l.115-6.178s1.373,9.5,6.063,8.58c0,0,12.994-5,10.83-6.9-5.034-4.424-11.113-.685-11.113-.685-.295-6.426-.832-14.738-1.663-15.637-1.373-1.487-5.606-.686-6.445-2.593s-.61-5.262.3-9.153-3.737-6.636-3.737-6.636Z" fill="#ffbe3c"/><path d="M209.553,200.677s4.672,1.182,8.333-.267l1.6,3.966h.915s2.206-7.34-.723-7.254c0,0-.011-2.383-5.126-2.283C210.161,194.925,208.638,197.779,209.553,200.677Z" fill="#464655"/><path d="M304.906,292.547s-1.22,5.416-.076,6.026,7.246.61,7.093-.686-.992-5.873-.992-5.873Z" fill="#965032"/><path d="M294.762,289.648s.992,4.042-.992,4.2-13.2.076-13.5-.228a5.457,5.457,0,0,1-.686-1.068l10.374-2.9Z" fill="#965032"/><path d="M306.146,239.233s2.727,6.483,3.719,28.946c.264,5.976-.458,4.576,2.517,23.8l-3.53,1.843a3.317,3.317,0,0,1-3.254-.1l-3.436-2.082s1.678-21.508-3.814-33.865c0,0-2.9,5.34-2.9,9.3s.152,23.034.152,23.034-6.407,1.068-9.3.763c0,0,1.831-41.378,3.661-51.122Z" fill="#eaf3f5"/><path d="M305.631,236.487s1.087.8.515,2.745c0,0-8.352,3.6-16.189.515a2.491,2.491,0,0,1,.228-2.8Z" fill="#be7855"/><path d="M302.771,199.419l.172,1.259s.458,8.066-2.174,10.24c0,0-.572,1.658.343,2.46s9.953,5.377,9.953,5.377,2.345,4.863,2.289,7.608c0,0,2.231-.858,2-1.945s-1.545-3.947-1.144-5.32a1.514,1.514,0,0,1,1.888-.972s.744.8-.458,1.315l.4,1.716,4.863,2.86-1.087,1.315s-.057,10.068-6.006,11.383c0,0-3.146.228-6.865-6.865,0,0-2,3.546-1.315,6.636,0,0-6.521,3.546-15.445.458l-.115-6.178s-1.373,9.5-6.063,8.58c0,0-12.994-5-10.83-6.9,5.034-4.424,11.113-.685,11.113-.685.3-6.426.832-14.738,1.663-15.637,1.373-1.487,5.605-.686,6.445-2.593s.61-5.262-.3-9.153,3.737-6.636,3.737-6.636Z" fill="#965032"/><path d="M302.942,200.677s-4.672,1.182-8.333-.267l-1.6,3.966h-.915s-2.206-7.34.723-7.254c0,0,.011-2.383,5.125-2.283C302.334,194.925,303.858,197.779,302.942,200.677Z" fill="#464655"/><path d="M224.461,203.734c-.382-.929.258-1.184.258-1.184s4.63-2.541,5.169-2.5c.89.072,1.982,1.636,1.982,2.972s1.739,4.8,5.314,5.663c0,0-4.462,6.063-10.655,5.235C226.529,213.92,226.944,209.772,224.461,203.734Z" fill="#eaf3f5"/><path d="M230.95,232.139a2.57,2.57,0,0,0-2.484,2.649v30.3c0,7.322,3.433,32.95,27.458,40.271,24.025-7.322,27.458-32.95,27.458-40.271v-30.3a2.57,2.57,0,0,0-2.484-2.649Z" fill="#82afff"/><path d="M283.383,265.089v-30.3a2.57,2.57,0,0,0-2.484-2.649H255.925v25.628L280.06,281.9A50.92,50.92,0,0,0,283.383,265.089Z" fill="#ffe15a"/><path d="M228.466,265.089v-30.3a2.57,2.57,0,0,1,2.484-2.649h24.974v25.628L231.789,281.9A50.92,50.92,0,0,1,228.466,265.089Z" fill="#eaf3f5"/><path d="M239.732,281.118l6.353,6.719h17.7l3.751-4.808-4.315,1.726h-14.3Z" fill="#8c5a28"/><path d="M246.575,272.448l-.97,9.78-4.414-1.685A30.037,30.037,0,0,1,246.575,272.448Z" fill="#f5f5f5"/><rect width="0.652" height="16.651" transform="translate(255.28 268.57)" fill="#8c5a28"/><rect width="0.652" height="15.245" transform="translate(261.32 269.98)" fill="#8c5a28"/><rect width="0.652" height="15.245" transform="translate(249.27 269.98)" fill="#8c5a28"/><path d="M257.814,283.646h-4.4a.542.542,0,0,1-.542-.542v-2.43a.542.542,0,0,1,.542-.542h4.4a.542.542,0,0,1,.542.542v2.43A.543.543,0,0,1,257.814,283.646Z" fill="#f5f5f5"/><path d="M257.814,278.961h-4.4a.542.542,0,0,1-.542-.542v-2.43a.542.542,0,0,1,.542-.542h4.4a.542.542,0,0,1,.542.542v2.43A.543.543,0,0,1,257.814,278.961Z" fill="#f5f5f5"/><path d="M257.814,274.646h-4.4a.542.542,0,0,1-.542-.542v-2.43a.542.542,0,0,1,.542-.542h4.4a.542.542,0,0,1,.542.542v2.43A.543.543,0,0,1,257.814,274.646Z" fill="#f5f5f5"/><path d="M263.479,283.646h-3.662a.542.542,0,0,1-.542-.542v-2.43a.542.542,0,0,1,.542-.542h3.662a.542.542,0,0,1,.542.542v2.43A.543.543,0,0,1,263.479,283.646Z" fill="#f5f5f5"/><path d="M263.479,279.332h-3.662a.542.542,0,0,1-.542-.542v-1.879a.542.542,0,0,1,.542-.542h3.662a.542.542,0,0,1,.542.542v1.879A.542.542,0,0,1,263.479,279.332Z" fill="#f5f5f5"/><path d="M263.479,275.057h-3.662a.542.542,0,0,1-.542-.542v-1.4a.542.542,0,0,1,.542-.542h3.662a.542.542,0,0,1,.542.542v1.4A.542.542,0,0,1,263.479,275.057Z" fill="#f5f5f5"/><path d="M251.427,283.646h-3.662a.542.542,0,0,1-.542-.542v-2.43a.542.542,0,0,1,.542-.542h3.662a.542.542,0,0,1,.542.542v2.43A.542.542,0,0,1,251.427,283.646Z" fill="#f5f5f5"/><path d="M251.427,279.332h-3.662a.542.542,0,0,1-.542-.542v-1.879a.542.542,0,0,1,.542-.542h3.662a.542.542,0,0,1,.542.542v1.879A.542.542,0,0,1,251.427,279.332Z" fill="#f5f5f5"/><path d="M251.427,275.057h-3.662a.542.542,0,0,1-.542-.542v-1.4a.542.542,0,0,1,.542-.542h3.662a.542.542,0,0,1,.542.542v1.4A.542.542,0,0,1,251.427,275.057Z" fill="#f5f5f5"/><path d="M261.318,269.984v1.97l-2.9-1Z" fill="#ff4b55"/><path d="M249.274,269.984v1.97l-2.9-1Z" fill="#ff4b55"/><path d="M255.308,268.568v1.97l-2.9-1Z" fill="#ff4b55"/><path d="M277.716,287.055H234.132a41.816,41.816,0,0,0,2.159,3.661h39.264A41.2,41.2,0,0,0,277.716,287.055Z" fill="#4173cd"/><path d="M275.557,290.717H236.292a36.808,36.808,0,0,0,6.408,7.322h26.447a36.817,36.817,0,0,0,6.41-7.322Z" fill="#73af00"/><path d="M242.7,298.039a35.479,35.479,0,0,0,13.224,7.322,35.479,35.479,0,0,0,13.224-7.322Z" fill="#ffe15a"/><path d="M251.222,259.918a1.407,1.407,0,0,1-.556.061c-.223-.1-.679-.11-.4-.956.134-.419.414-1.011.211-1.163q-.246-.287-.533-.617c-.381-.44-.809-.938-1.278-1.48a48.732,48.732,0,0,0-3.432-3.48c-.663-.6-1.348-1.225-2.046-1.857-.722-.608-1.388-1.29-2.174-1.856a13.184,13.184,0,0,0-1.5-.534,4.03,4.03,0,0,1-1.138-.872l-2.028-1.874c-1.336-1.2-2.509-2.382-3.512-3.4-.973-.973-1.76-1.818-2.314-2.435a1.456,1.456,0,0,1,.073-2.028l1.626-1.569a1.457,1.457,0,0,1,2.029,0c.6.576,1.414,1.393,2.35,2.4.983,1.039,2.127,2.254,3.274,3.631.584.68,1.186,1.382,1.8,2.094a4.063,4.063,0,0,1,.831,1.167,13.534,13.534,0,0,0,.48,1.522c.538.806,1.2,1.5,1.778,2.24l1.782,2.11a48.492,48.492,0,0,0,3.356,3.553l1.433,1.33.6.555c.146.209.747-.051,1.17-.169.855-.245.853.212.941.438a1.423,1.423,0,0,1-.081.554Z" fill="#be7855"/><path d="M233.292,262.8a1.372,1.372,0,0,1-1.1-2.188l13.043-17.694a1.373,1.373,0,0,1,2.209,1.631L234.4,262.244A1.379,1.379,0,0,1,233.292,262.8Z" fill="#965032"/><path d="M243.742,241.75l6.789,4.5,2.9-4.043-6.33-5.11Z" fill="#f5f5f5"/><path d="M261.781,240.01l17.4,21.452s2.445.111,2.112-1.834l-18.007-21.119Z" fill="#965032"/><path d="M257.891,242.955s4.891-.889,6.947-3.946l2.779,3.279s-4.557,3.223-5,6.724C262.615,249.013,258.892,248.013,257.891,242.955Z" fill="#eaf3f5"/><path d="M276.676,240.843a.888.888,0,0,1-.787-.476,2.819,2.819,0,0,1-.254-2.521,2.6,2.6,0,0,1,1.652-1.365.9.9,0,0,1,1.084.639.888.888,0,0,1-.63,1.08.854.854,0,0,0-.483.372,1.275,1.275,0,0,0,.2.969.886.886,0,0,1-.787,1.3Z" fill="#965032"/><path d="M262.384,254.079a.888.888,0,0,0-.476-.787,2.819,2.819,0,0,0-2.521-.254,2.6,2.6,0,0,0-1.365,1.652.9.9,0,0,0,.639,1.084.888.888,0,0,0,1.08-.63.854.854,0,0,1,.372-.483,1.275,1.275,0,0,1,.969.205.886.886,0,0,0,1.3-.787Z" fill="#965032"/><path d="M277.268,238.843l-16.376,16.08,3.853,4.3,16.006-16.154Z" fill="#eaf3f5"/><path d="M194.088,215.665a1.325,1.325,0,0,1,1.068,2.289c-.992,1.068-3.857,3-4.729,2.823C188.9,220.47,187.834,217.113,194.088,215.665Z" fill="#ffbe3c"/><path d="M318.343,217.209c-1.017-.254-1.909,1.22-.99,2.289s3.576,3,4.385,2.823C323.152,222.014,324.143,218.658,318.343,217.209Z" fill="#965032"/><path d="M280.9,232.139a2.57,2.57,0,0,1,2.484,2.649v30.3c0,7.322-3.433,32.95-27.458,40.271-24.025-7.322-27.458-32.95-27.458-40.271v-30.3a2.57,2.57,0,0,1,2.484-2.649H280.9m0-1.831H230.952a4.4,4.4,0,0,0-4.314,4.48v30.3A52.482,52.482,0,0,0,231.531,286c4.951,10.561,13.2,17.86,23.863,21.11l.534.162.534-.162c10.66-3.249,18.912-10.549,23.863-21.11a52.476,52.476,0,0,0,4.893-20.914v-30.3a4.412,4.412,0,0,0-4.319-4.48Z" fill="#464655"/><path d="M299.879,305.79c-7.779-2.607-16.126-1.4-24,3.847-10.061,6.707-16.73,6.707-19.936,6.707s-9.875,0-19.936-6.707c-7.87-5.248-16.22-6.453-24-3.848v7.848c4.9-2.343,11.811-3.324,19.936,2.091,11.906,7.937,20.38,7.937,24,7.937s12.092,0,24-7.937c8.125-5.42,15.034-4.437,19.936-2.092Z" fill="#eaf3f5"/><path d="M255.945,347.464A93.357,93.357,0,1,1,349.3,254.107,93.464,93.464,0,0,1,255.945,347.464Zm0-183.054a89.7,89.7,0,1,0,89.7,89.7A89.8,89.8,0,0,0,255.945,164.41Z" fill="#965032"/><path d="M153.817,261.886s-.382-11.441,10.6-11.441c0,0,.228,4.5-3.737,6.483A37.419,37.419,0,0,0,153.817,261.886Z" fill="#73af00"/><path d="M175.023,261.886s.382-11.441-10.6-11.441c0,0-.228,4.5,3.737,6.483A37.379,37.379,0,0,1,175.023,261.886Z" fill="#73af00"/><path d="M358,250.445s.382,11.441-10.6,11.441c0,0-.228-4.5,3.737-6.483A37.469,37.469,0,0,0,358,250.445Z" fill="#73af00"/><path d="M336.793,250.445s-.382,11.441,10.6,11.441c0,0,.228-4.5-3.737-6.483A37.39,37.39,0,0,1,336.793,250.445Z" fill="#73af00"/><path d="M261.628,358.256s-11.441.382-11.441-10.6c0,0,4.5-.228,6.483,3.737A37.469,37.469,0,0,0,261.628,358.256Z" fill="#73af00"/><path d="M261.628,337.05s-11.441-.382-11.441,10.6c0,0,4.5.228,6.483-3.737A37.429,37.429,0,0,1,261.628,337.05Z" fill="#73af00"/><path d="M250.188,154.075s11.441-.382,11.441,10.6c0,0-4.5.228-6.483-3.737A37.479,37.479,0,0,0,250.188,154.075Z" fill="#73af00"/><path d="M250.188,175.281s11.441.382,11.441-10.6c0,0-4.5-.228-6.483,3.737A37.519,37.519,0,0,1,250.188,175.281Z" fill="#73af00"/><path d="M187.763,332.4s-8.36-7.82-.594-15.586c0,0,3.343,3.02,1.942,7.226A37.551,37.551,0,0,0,187.763,332.4Z" fill="#73af00"/><path d="M202.759,317.4s-7.82-8.36-15.586-.594c0,0,3.02,3.343,7.226,1.942A37.415,37.415,0,0,1,202.759,317.4Z" fill="#73af00"/><path d="M324.052,179.932s8.36,7.82.594,15.586c0,0-3.343-3.02-1.942-7.226A37.487,37.487,0,0,0,324.052,179.932Z" fill="#73af00"/><path d="M309.056,194.926s7.82,8.36,15.586.594c0,0-3.02-3.343-7.226-1.942A37.478,37.478,0,0,1,309.056,194.926Z" fill="#73af00"/><path d="M332.142,324.309s-7.82,8.36-15.586.594c0,0,3.02-3.343,7.226-1.942A37.423,37.423,0,0,0,332.142,324.309Z" fill="#73af00"/><path d="M317.147,309.314s-8.36,7.82-.594,15.586c0,0,3.343-3.02,1.942-7.226A37.423,37.423,0,0,1,317.147,309.314Z" fill="#73af00"/><path d="M179.674,188.021s7.82-8.36,15.586-.594c0,0-3.02,3.343-7.226,1.942A37.423,37.423,0,0,0,179.674,188.021Z" fill="#73af00"/><path d="M194.669,203.016s8.36-7.82.594-15.586c0,0-3.343,3.02-1.942,7.226A37.423,37.423,0,0,1,194.669,203.016Z" fill="#73af00"/><path d="M163.778,300.519s-4.73-10.424,5.417-14.627c0,0,1.933,4.069-.972,7.42A37.379,37.379,0,0,0,163.778,300.519Z" fill="#73af00"/><path d="M183.37,292.4s-4.025-10.716-14.173-6.513c0,0,1.511,4.245,5.934,4.559A37.434,37.434,0,0,1,183.37,292.4Z" fill="#73af00"/><path d="M348.038,211.811s4.73,10.424-5.417,14.627c0,0-1.933-4.07.972-7.42A37.436,37.436,0,0,0,348.038,211.811Z" fill="#73af00"/><path d="M328.446,219.927s4.025,10.716,14.173,6.513c0,0-1.511-4.245-5.934-4.559A37.416,37.416,0,0,1,328.446,219.927Z" fill="#73af00"/><path d="M300.261,348.3s-10.424,4.73-14.627-5.417c0,0,4.069-1.933,7.42.972A37.467,37.467,0,0,0,300.261,348.3Z" fill="#73af00"/><path d="M292.146,328.7s-10.716,4.025-6.513,14.173c0,0,4.245-1.511,4.559-5.934A37.461,37.461,0,0,1,292.146,328.7Z" fill="#73af00"/><path d="M211.555,164.034s10.424-4.73,14.627,5.417c0,0-4.07,1.933-7.42-.972A37.468,37.468,0,0,0,211.555,164.034Z" fill="#73af00"/><path d="M219.67,183.627s10.716-4.025,6.513-14.173c0,0-4.245,1.511-4.559,5.934A37.477,37.477,0,0,1,219.67,183.627Z" fill="#73af00"/><path d="M222.125,352.674s-10.716-4.025-6.513-14.173c0,0,4.245,1.511,4.559,5.934A37.416,37.416,0,0,0,222.125,352.674Z" fill="#73af00"/><path d="M230.24,333.082s-10.424-4.73-14.627,5.417c0,0,4.07,1.933,7.42-.972A37.436,37.436,0,0,1,230.24,333.082Z" fill="#73af00"/><path d="M289.691,159.657s10.716,4.025,6.513,14.173c0,0-4.245-1.511-4.559-5.934A37.461,37.461,0,0,0,289.691,159.657Z" fill="#73af00"/><path d="M281.576,179.249s10.424,4.73,14.627-5.417c0,0-4.069-1.933-7.42.972A37.435,37.435,0,0,1,281.576,179.249Z" fill="#73af00"/><path d="M352.416,289.949s-4.025,10.716-14.173,6.513c0,0,1.511-4.245,5.934-4.559A37.461,37.461,0,0,0,352.416,289.949Z" fill="#73af00"/><path d="M332.825,281.834s-4.73,10.424,5.417,14.627c0,0,1.933-4.069-.972-7.42A37.412,37.412,0,0,1,332.825,281.834Z" fill="#73af00"/><path d="M159.4,222.381s4.025-10.716,14.173-6.513c0,0-1.511,4.245-5.934,4.559A37.523,37.523,0,0,0,159.4,222.381Z" fill="#73af00"/><path d="M178.991,230.5s4.73-10.424-5.417-14.627c0,0-1.933,4.07.972,7.42A37.38,37.38,0,0,1,178.991,230.5Z" fill="#73af00"/><path d="M156.9,281.693s-2.606-11.147,8.167-13.29c0,0,1.1,4.369-2.4,7.087A37.442,37.442,0,0,0,156.9,281.693Z" fill="#73af00"/><path d="M177.693,277.556s-1.858-11.3-12.63-9.153c0,0,.653,4.458,4.93,5.63A37.362,37.362,0,0,1,177.693,277.556Z" fill="#73af00"/><path d="M354.921,230.637s2.606,11.147-8.167,13.29c0,0-1.1-4.369,2.4-7.087A37.441,37.441,0,0,0,354.921,230.637Z" fill="#73af00"/><path d="M334.122,234.775s1.858,11.3,12.63,9.153c0,0-.653-4.458-4.93-5.63A37.448,37.448,0,0,1,334.122,234.775Z" fill="#73af00"/><path d="M281.435,355.179s-11.147,2.606-13.29-8.167c0,0,4.369-1.1,7.087,2.4A37.484,37.484,0,0,0,281.435,355.179Z" fill="#73af00"/><path d="M277.3,334.38s-11.3,1.858-9.153,12.63c0,0,4.458-.653,5.63-4.93A37.447,37.447,0,0,1,277.3,334.38Z" fill="#73af00"/><path d="M230.381,157.152s11.147-2.606,13.29,8.167c0,0-4.369,1.1-7.087-2.4A37.484,37.484,0,0,0,230.381,157.152Z" fill="#73af00"/><path d="M234.518,177.951s11.3-1.858,9.153-12.63c0,0-4.458.653-5.63,4.93A37.449,37.449,0,0,1,234.518,177.951Z" fill="#73af00"/><path d="M203.945,344.228s-9.725-6.039-3.623-15.171c0,0,3.869,2.31,3.314,6.709A37.507,37.507,0,0,0,203.945,344.228Z" fill="#73af00"/><path d="M215.727,326.6s-9.3-6.674-15.4,2.458c0,0,3.615,2.69,7.467.494A37.5,37.5,0,0,1,215.727,326.6Z" fill="#73af00"/><path d="M307.87,168.1s9.725,6.039,3.623,15.171c0,0-3.869-2.31-3.314-6.709A37.451,37.451,0,0,0,307.87,168.1Z" fill="#73af00"/><path d="M296.089,185.734s9.3,6.674,15.4-2.458c0,0-3.615-2.69-7.467-.494A37.5,37.5,0,0,1,296.089,185.734Z" fill="#73af00"/><path d="M343.972,308.128s-6.039,9.725-15.171,3.623c0,0,2.309-3.869,6.709-3.314A37.451,37.451,0,0,0,343.972,308.128Z" fill="#73af00"/><path d="M326.339,296.346s-6.674,9.3,2.458,15.4c0,0,2.69-3.615.494-7.467A37.462,37.462,0,0,1,326.339,296.346Z" fill="#73af00"/><path d="M167.844,204.2s6.039-9.725,15.171-3.623c0,0-2.31,3.869-6.709,3.314A37.453,37.453,0,0,0,167.844,204.2Z" fill="#73af00"/><path d="M185.477,215.985s6.674-9.3-2.458-15.4c0,0-2.69,3.615-.494,7.467A37.5,37.5,0,0,1,185.477,215.985Z" fill="#73af00"/><path d="M174.2,317.641s-6.674-9.3,2.458-15.4c0,0,2.69,3.615.494,7.467A37.441,37.441,0,0,0,174.2,317.641Z" fill="#73af00"/><path d="M191.833,305.859s-6.039-9.725-15.171-3.623c0,0,2.31,3.869,6.709,3.314A37.451,37.451,0,0,1,191.833,305.859Z" fill="#73af00"/><path d="M337.615,194.69s6.674,9.3-2.458,15.4c0,0-2.69-3.615-.494-7.467A37.5,37.5,0,0,0,337.615,194.69Z" fill="#73af00"/><path d="M319.983,206.472s6.039,9.725,15.171,3.623c0,0-2.31-3.869-6.709-3.314A37.452,37.452,0,0,1,319.983,206.472Z" fill="#73af00"/><path d="M317.383,337.872s-9.3,6.674-15.4-2.458c0,0,3.615-2.69,7.467-.494A37.441,37.441,0,0,0,317.383,337.872Z" fill="#73af00"/><path d="M305.6,320.24s-9.725,6.039-3.623,15.171c0,0,3.869-2.31,3.315-6.709A37.415,37.415,0,0,1,305.6,320.24Z" fill="#73af00"/><path d="M194.433,174.458s9.3-6.674,15.4,2.458c0,0-3.615,2.69-7.467.494A37.5,37.5,0,0,0,194.433,174.458Z" fill="#73af00"/><path d="M206.214,192.091s9.725-6.039,3.623-15.171c0,0-3.869,2.31-3.314,6.709A37.454,37.454,0,0,1,206.214,192.091Z" fill="#73af00"/><path d="M241.6,357.41s-11.3-1.858-9.153-12.63c0,0,4.458.653,5.63,4.93A37.39,37.39,0,0,0,241.6,357.41Z" fill="#73af00"/><path d="M245.739,336.611s-11.147-2.606-13.29,8.167c0,0,4.369,1.1,7.087-2.4A37.443,37.443,0,0,1,245.739,336.611Z" fill="#73af00"/><path d="M270.214,154.92s11.3,1.858,9.153,12.63c0,0-4.458-.653-5.63-4.93A37.392,37.392,0,0,0,270.214,154.92Z" fill="#73af00"/><path d="M266.077,175.719s11.147,2.606,13.29-8.167c0,0-4.369-1.1-7.087,2.4A37.442,37.442,0,0,1,266.077,175.719Z" fill="#73af00"/><path d="M357.153,270.472s-1.858,11.3-12.63,9.153c0,0,.653-4.458,4.93-5.63A37.42,37.42,0,0,0,357.153,270.472Z" fill="#73af00"/><path d="M336.355,266.335s-2.606,11.147,8.167,13.29c0,0,1.1-4.369-2.4-7.087A37.386,37.386,0,0,1,336.355,266.335Z" fill="#73af00"/><path d="M154.662,241.859s1.858-11.3,12.63-9.153c0,0-.653,4.458-4.93,5.63A37.449,37.449,0,0,0,154.662,241.859Z" fill="#73af00"/><path d="M175.461,246s2.606-11.147-8.167-13.29c0,0-1.1,4.369,2.4,7.087A37.484,37.484,0,0,1,175.461,246Z" fill="#73af00"/></g></svg>