<svg xmlns="http://www.w3.org/2000/svg" width="512.001" height="335.448" viewBox="0 0 512.001 335.448"><g transform="translate(0 -88.276)"><path d="M503.172,423.724H8.828A8.829,8.829,0,0,1,0,414.9V97.1a8.829,8.829,0,0,1,8.828-8.828H503.173A8.829,8.829,0,0,1,512,97.1V414.9A8.83,8.83,0,0,1,503.172,423.724Z" fill="#ff4b55"/><path d="M247.172,256H8.828A8.829,8.829,0,0,1,0,247.172V97.1a8.829,8.829,0,0,1,8.828-8.828H247.172A8.829,8.829,0,0,1,256,97.1V247.173A8.827,8.827,0,0,1,247.172,256Z" fill="#41479b"/><path d="M247.172,88.276H231.839l-81.77,53.573V88.276H105.931v53.573L24.161,88.276H8.828A8.829,8.829,0,0,0,0,97.1v7l70.155,45.963H0v44.138H70.155L0,240.171v7A8.829,8.829,0,0,0,8.828,256H24.161l81.77-53.573V256h44.138V202.427L231.838,256h15.333A8.829,8.829,0,0,0,256,247.172v-7l-70.154-45.963H256V150.069H185.844L256,104.106v-7A8.827,8.827,0,0,0,247.172,88.276Z" fill="#f5f5f5"/><path d="M256,158.9H141.241V88.276H114.758V158.9H0v26.482H114.758V256h26.483V185.379H256Z" fill="#ff4b55"/><path d="M97.1,150.069l-92.9-60.3A8.686,8.686,0,0,0,0,97.1v.458l80.889,52.507Z" fill="#ff4b55"/><path d="M166.283,150.069,254.657,92.7a8.7,8.7,0,0,0-7.485-4.427h-1.909l-95.194,61.793Z" fill="#ff4b55"/><path d="M89.474,194.207l-88.2,57.256A8.717,8.717,0,0,0,8.828,256h1.665l95.2-61.793Z" fill="#ff4b55"/><path d="M255.859,247.867l-82.666-53.659H156.98l93.873,60.934A8.739,8.739,0,0,0,255.859,247.867Z" fill="#ff4b55"/><path d="M320.945,174.029a3.153,3.153,0,0,0-3.153,3.153v116.65c0,9.458,6.3,40.985,66.207,50.443,59.9-9.458,66.207-40.985,66.207-50.443V177.183a3.153,3.153,0,0,0-3.153-3.153Z" fill="#f5f5f5"/><path d="M384,344.276c50-7.895,62.651-31.16,65.469-44.138H318.531C321.348,313.115,333.995,336.382,384,344.276Z" fill="#73af00"/><path d="M424.984,240.237s3.153-3.153,0-9.458L384,228.945l-40.985,1.834c-3.153,6.3,0,9.458,0,9.458a9.764,9.764,0,0,0-3.153,6.3h6.3l6.831,11.3,31,17.077,31-17.077,6.831-11.3h6.3A9.753,9.753,0,0,0,424.984,240.237Z" fill="#82afff"/><path d="M415,257.839a7.121,7.121,0,0,0-7.225-3.809,7.985,7.985,0,0,0-7.751-2.759s-5.649-3.284-8.932,2.759c0,0-10.444-1.062-11,6.891,0,0,16.256,24.5,16.651,24.767s19.442.131,19.442.131l8.8-9.711-8.671-12.489Z" fill="#f5f5f5"/><path d="M384.394,265.59s-13.79-22.528-15.764-24.434a6.771,6.771,0,0,0-9.459-.394s-11.428-.919-9.853,7.751L352.6,261.65s-2.89,9.064-4.2,9.984-6.174,3.415-6.174,3.415l2.759,10.9,36.781-1.839Z" fill="#f0c850"/><path d="M400.288,255.737l-.043.019-1.017-2.4a.786.786,0,0,0-1.043-.413l-6.842,3.017L383.2,242.637a1.178,1.178,0,0,0-1.164-2.006l-1.814.649L379,237.654a.788.788,0,1,0-1.493.506l1.236,3.654-1.939.694a1.184,1.184,0,0,0,.4,2.3,1.261,1.261,0,0,0,.207-.035l2.682,16.153-1.73.762a.787.787,0,0,0-.424.985l.981,2.732a10.724,10.724,0,0,1-.135,2.218l-11.006-18.879a1.166,1.166,0,0,0,.5-1.383,1.18,1.18,0,0,0-1.512-.717l-1.814.649-1.227-3.626a.788.788,0,1,0-1.493.506l1.236,3.654-1.939.694a1.183,1.183,0,0,0-.714,1.512,1.162,1.162,0,0,0,.995.748l4.777,29.814c-.617.259-1.222.522-1.9.764,0,0-2.233,10.641-.525,11.166s19.31,5.911,19.31,5.911,24.3-11.56,24.828-11.822,1.577-7.882,1.577-7.882Zm-1.491.641-2.035.874-.674-1.663,2-.882Zm-12.3,3.44,1.673-.737.643,1.585-1.771.761Zm-.909,2.232-1.978.85-.622-1.534,2.062-.909Zm4.672-2.006-.649-1.6,1.788-.788.655,1.618Zm2.58-3.022,1.806-.8.669,1.649-1.814.779Zm-11.1-13.768,8.152,13.346-3.9,1.718-5.005-14.8Zm-2.814,1.008.578-.207,5.042,14.9-2.963,1.306ZM381.546,262l.617,1.521-1.945.835-.548-1.528ZM366.3,249.324,378.233,269.8a15.129,15.129,0,0,1-3.723,5.732l-8.8-26Zm-2.947,1.056.882-.316,9.009,26.632a24.906,24.906,0,0,1-5.156,3.231Z" fill="#965032"/><path d="M427.842,226c-.837-1.33-3.524-.76-3.524-.76a3.429,3.429,0,0,0-2.794-1.682,2.177,2.177,0,0,0-2.4,1.657s-.38-.282-2.613-.216-1.773,3.744-1.773,3.744a15.981,15.981,0,0,1-3.744-.919,8.2,8.2,0,0,0-4.794-.263,5.9,5.9,0,0,0-.919-2.627c-2.43.985-4.335-.131-4.794-.985s.723-2.167.723-3.284-1.544-1.067-2.086-2.052,0-1.527,1.429-2.167a4.015,4.015,0,0,0,1.871-4.926c-.888-1.921-3.448-1.577-3.448-1.577.887.148,1.625,1.823.2,2.167s-2.709-4.877-2.709-4.877c3.3,2.217,5.715.887,6.4-1.035a3.009,3.009,0,0,0-1.133-3.251c-1.429,2.315-3.892.3-2.561-1.182a7.276,7.276,0,0,0,1.444-3.957,4.145,4.145,0,0,1-4.794-.394,6.083,6.083,0,0,0,2.759-6.5c-1.444-.657-4.532-.131-4.532-.131a9.223,9.223,0,0,0,.525-3.679,6.28,6.28,0,0,0-3.481.788c.525-1.838-.2-5.057-.2-5.057-1.182.2-3.415.854-3.415.854a8.111,8.111,0,0,0-3.481-3.35,8.117,8.117,0,0,0-3.481,3.35s-2.233-.657-3.415-.854c0,0-.723,3.219-.2,5.057a6.29,6.29,0,0,0-3.481-.788,9.242,9.242,0,0,0,.525,3.679s-3.087-.525-4.532.131a6.082,6.082,0,0,0,2.759,6.5,4.147,4.147,0,0,1-4.794.394,7.285,7.285,0,0,0,1.444,3.957c1.33,1.478-1.133,3.5-2.561,1.182a3.01,3.01,0,0,0-1.133,3.251c.69,1.921,3.1,3.251,6.4,1.035,0,0-1.281,5.222-2.709,4.877s-.69-2.019.2-2.167c0,0-2.561-.345-3.448,1.577a4.018,4.018,0,0,0,1.871,4.926c1.429.64,1.971,1.182,1.429,2.167s-2.086.936-2.086,2.052,1.182,2.43.723,3.284-2.365,1.971-4.794.985a5.9,5.9,0,0,0-.919,2.627,8.2,8.2,0,0,0-4.794.263,15.981,15.981,0,0,1-3.744.919s.46-3.678-1.773-3.744-2.613.216-2.613.216a2.176,2.176,0,0,0-2.4-1.657,3.431,3.431,0,0,0-2.794,1.682s-2.687-.569-3.524.76-.936,3.35.64,4.188a60.248,60.248,0,0,1,5.763,4.335l5.911,2.561,20.69-9.163L384,230.779l10.837-2.857,20.69,9.163,5.911-2.561a60.34,60.34,0,0,1,5.763-4.335C428.778,229.35,428.68,227.33,427.842,226Z" fill="#ff4b55"/><path d="M377.546,192.613s.223,2.782,4.34,2.04C381.885,194.653,381.775,191.76,377.546,192.613Z" fill="#f5f5f5"/><path d="M362.313,302.5a10.447,10.447,0,0,0-6.009,2.167c-3.054,2.266-4.4.657-7.455.657s-3.777,3.186-3.777,3.186-5.911,1.478-3.546,5.813c1.495,2.742,3.576,2.684,4.908,2.272-.067,1.842.352,3.866,2.481,4.231,4.04.69,5.813-1.478,4.926-4.828,0,0,.492,3.448,3.153,3.35s4.434-1.577,4.138-5.123,4.434-1.379,8.078-6.6Z" fill="#ff4b55"/><path d="M345.039,315.179s-1.839,2.43-1.313,4.794c0,0-3.94-1.248-1.839-7.094A2.482,2.482,0,0,1,345.039,315.179Z" fill="#82afff"/><path d="M351.229,318.365a7.794,7.794,0,0,0,.394,5.763s-4.926-.148-3.94-6.207C347.683,317.921,349.259,316.3,351.229,318.365Z" fill="#82afff"/><path d="M356.156,318.069a8.423,8.423,0,0,1,0,5.025s4.04-.246,3.35-6.059A2.9,2.9,0,0,0,356.156,318.069Z" fill="#82afff"/><path d="M352.56,259.154c-.373-3.038-19.409-4.828-18.227,11.166a3.683,3.683,0,0,0-3.15,1.927,2.544,2.544,0,0,1-3.932.779s.148,3.561,4.562,3.412a3.276,3.276,0,0,0-1.2,2.708c.2,1.608,1.359,3.635,1.286,5.02a8.63,8.63,0,0,1-1.385,3.314s3.388-1.162,3.61-3.585-.321-4.451.346-5.687a5.5,5.5,0,0,0,1.187,3.858,7.227,7.227,0,0,1,.964,6.4s3.758-1.855,3.041-5.44-1.484-3.264-1.138-5.267c0,0,3.907,3.981,3.24,7.369a6.614,6.614,0,0,0,1.138-4.314,7.576,7.576,0,0,0-2.068-4.715S353.84,269.6,352.56,259.154Z" fill="#ff4b55"/><path d="M405.686,302.5a10.447,10.447,0,0,1,6.009,2.167c3.054,2.266,4.4.657,7.455.657s3.777,3.186,3.777,3.186,5.911,1.478,3.546,5.813c-1.495,2.742-3.576,2.684-4.908,2.272.067,1.842-.352,3.866-2.481,4.231-4.04.69-5.813-1.478-4.926-4.828,0,0-.492,3.448-3.153,3.35s-4.434-1.577-4.138-5.123-4.434-1.379-8.078-6.6Z" fill="#ff4b55"/><path d="M422.961,315.179s1.839,2.43,1.313,4.794c0,0,3.94-1.248,1.839-7.094A2.481,2.481,0,0,0,422.961,315.179Z" fill="#82afff"/><path d="M416.769,318.365a7.794,7.794,0,0,1-.394,5.763s4.926-.148,3.94-6.207C420.317,317.921,418.74,316.3,416.769,318.365Z" fill="#82afff"/><path d="M411.844,318.069a8.423,8.423,0,0,0,0,5.025s-4.04-.246-3.35-6.059A2.9,2.9,0,0,1,411.844,318.069Z" fill="#82afff"/><path d="M415.44,259.154c.373-3.038,19.409-4.828,18.227,11.166a3.683,3.683,0,0,1,3.15,1.927,2.544,2.544,0,0,0,3.932.779s-.148,3.561-4.562,3.412a3.276,3.276,0,0,1,1.2,2.708c-.2,1.608-1.361,3.635-1.286,5.02a8.646,8.646,0,0,0,1.385,3.314s-3.388-1.162-3.61-3.585.321-4.451-.346-5.687a5.5,5.5,0,0,1-1.187,3.858,7.227,7.227,0,0,0-.964,6.4s-3.758-1.855-3.041-5.44,1.484-3.264,1.138-5.267c0,0-3.907,3.981-3.24,7.369a6.614,6.614,0,0,1-1.138-4.314,7.576,7.576,0,0,1,2.068-4.715S414.159,269.6,415.44,259.154Z" fill="#ff4b55"/><path d="M423.227,231.893a1.568,1.568,0,0,0-2.185.447,5.861,5.861,0,0,1-4.014,2.691c-5.641.979-13.773-4.575-16.135-6.312-3.423-2.516-7.651-2.953-10.458-1.224a27.238,27.238,0,0,1-6.434,1.45,27.288,27.288,0,0,1-6.434-1.45c-2.807-1.729-7.036-1.292-10.458,1.224-2.361,1.737-10.494,7.29-16.135,6.312a5.855,5.855,0,0,1-4.014-2.691,1.576,1.576,0,1,0-2.63,1.736,8.966,8.966,0,0,0,6.091,4.057,11.148,11.148,0,0,0,1.984.169c6.016,0,12.823-4.292,16.568-7.041,2.785-2.045,5.907-2.041,7.313-.856a1.52,1.52,0,0,1,.662,1.333,1.271,1.271,0,0,1-.587.81,1.575,1.575,0,0,0-2.668-1.373,2.5,2.5,0,0,0-.214,3.147,3.179,3.179,0,0,0,3.88,1.185,4.23,4.23,0,0,0,2.078-1.728,15.194,15.194,0,0,1,9.13,0,4.23,4.23,0,0,0,2.078,1.728,3.18,3.18,0,0,0,3.88-1.185,2.5,2.5,0,0,0-.214-3.147,1.575,1.575,0,0,0-2.668,1.373,1.275,1.275,0,0,1-.587-.81,1.521,1.521,0,0,1,.662-1.333c1.406-1.185,4.527-1.188,7.313.856,3.745,2.75,10.552,7.041,16.568,7.041a11.148,11.148,0,0,0,1.984-.169,8.975,8.975,0,0,0,6.091-4.057A1.577,1.577,0,0,0,423.227,231.893Z" fill="#ffe15a"/><path d="M343.83,233.634s-.259-3.523-.371-4.673-2.262-2-3.079-.853S339.343,231.372,343.83,233.634Z" fill="#82afff"/><path d="M344.591,232.5s3.1-2.513,2.709-3.842-1.231-2.019-2.266-1.625S343.507,229.843,344.591,232.5Z" fill="#82afff"/><path d="M350.65,230.532c.446-.446.591-2.611-.64-2.857s-2.857,1.675-2.759,4.04C347.251,231.714,349.812,231.37,350.65,230.532Z" fill="#82afff"/><path d="M349.369,231.764a9.4,9.4,0,0,0-2.808,1.675s2.561,1.871,4.335,1.281S351.833,230.976,349.369,231.764Z" fill="#82afff"/><path d="M390.453,192.613s-.223,2.782-4.34,2.04C386.113,194.653,386.225,191.76,390.453,192.613Z" fill="#f5f5f5"/><path d="M424.169,233.634s.259-3.523.371-4.673,2.262-2,3.079-.853S428.657,231.372,424.169,233.634Z" fill="#82afff"/><path d="M423.409,232.5s-3.1-2.513-2.709-3.842,1.231-2.019,2.266-1.625S424.492,229.843,423.409,232.5Z" fill="#82afff"/><path d="M417.35,230.532c-.446-.446-.591-2.611.64-2.857s2.857,1.675,2.759,4.04C420.748,231.714,418.187,231.37,417.35,230.532Z" fill="#82afff"/><path d="M418.63,231.764a9.4,9.4,0,0,1,2.808,1.675s-2.561,1.871-4.335,1.281S416.167,230.976,418.63,231.764Z" fill="#82afff"/><path d="M382.369,199.168l1.25,1.25a.537.537,0,0,0,.76,0l1.25-1.25a.538.538,0,0,0-.381-.918h-2.5A.538.538,0,0,0,382.369,199.168Z" fill="#464655"/><path d="M381.715,204.295a2.964,2.964,0,0,1-2.274-.946,2.917,2.917,0,0,1-.661-2.408.585.585,0,0,1,.632-.456.554.554,0,0,1,.457.634,1.808,1.808,0,0,0,.4,1.5,1.968,1.968,0,0,0,1.559.573,1.739,1.739,0,0,0,1.628-1.465l-.007-2.473a.551.551,0,1,1,1.1,0v2.559a2.84,2.84,0,0,1-2.68,2.482C381.819,204.295,381.766,204.295,381.715,204.295Z" fill="#464655"/><path d="M386.284,204.295c-.051,0-.1,0-.156,0a2.832,2.832,0,0,1-2.674-2.4l-.007-2.645a.551.551,0,1,1,1.1,0v2.559a1.736,1.736,0,0,0,1.621,1.379,1.911,1.911,0,0,0,1.559-.573,1.8,1.8,0,0,0,.4-1.5.554.554,0,0,1,.457-.634.566.566,0,0,1,.632.456,2.916,2.916,0,0,1-.66,2.408A2.957,2.957,0,0,1,386.284,204.295Z" fill="#464655"/><path d="M402.916,284.375s-3.94-6.3-8.538-2.1-6.3,9.327-11.56,8.932a6.3,6.3,0,0,1-5.121-2.684,4.326,4.326,0,0,0,1.312-5.461c-2.365-5.649-11.034-3.94-13.4,2.233,0,0,2.759-9.064-6.831-6.042,0,0-1.182-6.3-6.7-4.6a6.131,6.131,0,0,0-4.522,4.279,4.52,4.52,0,0,0-4.017.844l6.962,18.785,10.509.131,2.365,3.546,13.793,8.67,2.5,5.255h8.67s.657-5.386,5.255-6.962,12.085-4.861,12.874-7.751l.788-2.89,8.407.131c.919-.657,7.094-10.772,7.094-10.772l2.866-13.027C424.037,274.665,405.931,272.316,402.916,284.375Z" fill="#f5f5f5"/><path d="M425.641,274.785l-.024.109.156.023Z" fill="#f5f5f5"/><path d="M368.424,304.516c-3.406-1.373-4.622-3.3-5.043-4.322a2.653,2.653,0,0,1-.207-1.866c.217-.5.48-.822.725-.884a.942.942,0,0,1,.576.11c.11.126.169.526.063.625a1.577,1.577,0,0,0,2.162,2.3,3.383,3.383,0,0,0,1.045-2.4,3.8,3.8,0,0,0-.982-2.688,3.914,3.914,0,0,0-3.383-1.053,3.769,3.769,0,0,0-.954.332c.221-2.184-.621-3.3-1.239-3.753a3.648,3.648,0,0,0-5.556,3.369,1.566,1.566,0,0,0,1.821,1.266,1.726,1.726,0,0,0,1.437-1.859c.179-.163.414-.218.406-.256,0,0,.211.348-.04,1.46a3.823,3.823,0,0,1-2.74,3.19,5.712,5.712,0,0,1-5.393-1.734c-1.869-2.057-5.781-12.971-8.107-20.241,9.971-4.729,11.2-12.586,11.007-16.964-.288-6.669-4.278-13.492-8.715-14.9a8.889,8.889,0,0,0-6.259.314,4.222,4.222,0,0,0-2.157,2.487,3.654,3.654,0,0,0,2.326,4.569,3.12,3.12,0,0,0,4.071-1.746,1.566,1.566,0,0,0-.836-2.057,1.529,1.529,0,0,0-2.019.862c-.066.036-.285-.046-.448-.231a.418.418,0,0,1-.085-.449,1.063,1.063,0,0,1,.605-.638,5.743,5.743,0,0,1,3.852-.108c2.539.8,6.246,5.77,6.516,12.029.161,3.741-.974,10.6-10.388,14.505a1.576,1.576,0,0,0-.9,1.928c.615,1.967,6.1,19.341,9.2,22.755a9.142,9.142,0,0,0,6.611,2.906,7.5,7.5,0,0,0,1.92-.241,6.548,6.548,0,0,0,2.7-1.5,6.957,6.957,0,0,0,.454,1.762c.609,1.484,2.3,4.243,7.02,6.145,9.547,3.83,10.454,6.391,10.4,7.318a1.058,1.058,0,0,1-.557.9,1.162,1.162,0,0,1-.292.117,1.577,1.577,0,0,0-2.039-2.31,2.787,2.787,0,0,0-1.18,3.559,3.189,3.189,0,0,0,3.023,1.928,3.774,3.774,0,0,0,.663-.059,4.236,4.236,0,0,0,3.529-3.959C381.31,310.253,374.1,306.8,368.424,304.516Z" fill="#ffe15a"/><path d="M399.575,304.516c3.406-1.373,4.622-3.3,5.043-4.322a2.653,2.653,0,0,0,.207-1.866c-.217-.5-.48-.822-.725-.884a.942.942,0,0,0-.576.11c-.11.126-.169.526-.063.625a1.577,1.577,0,1,1-2.162,2.3,3.383,3.383,0,0,1-1.045-2.4,3.808,3.808,0,0,1,.982-2.688,3.914,3.914,0,0,1,3.383-1.053,3.769,3.769,0,0,1,.954.332c-.221-2.184.621-3.3,1.239-3.753a3.648,3.648,0,0,1,5.556,3.369,1.566,1.566,0,0,1-1.821,1.266,1.726,1.726,0,0,1-1.437-1.859c-.179-.163-.414-.218-.406-.256,0,0-.211.348.04,1.46a3.823,3.823,0,0,0,2.74,3.19,5.712,5.712,0,0,0,5.393-1.734c1.869-2.057,5.781-12.971,8.107-20.241-9.971-4.729-11.2-12.586-11.007-16.964.288-6.669,4.278-13.492,8.715-14.9a8.889,8.889,0,0,1,6.259.314,4.222,4.222,0,0,1,2.157,2.487,3.654,3.654,0,0,1-2.326,4.569,3.12,3.12,0,0,1-4.071-1.746,1.566,1.566,0,0,1,.836-2.057,1.529,1.529,0,0,1,2.019.862c.066.036.285-.046.448-.231a.418.418,0,0,0,.085-.449,1.063,1.063,0,0,0-.605-.638,5.743,5.743,0,0,0-3.852-.108c-2.539.8-6.246,5.77-6.516,12.029-.161,3.741.974,10.6,10.388,14.505a1.576,1.576,0,0,1,.9,1.928c-.615,1.967-6.1,19.341-9.2,22.755a9.142,9.142,0,0,1-6.611,2.906,7.5,7.5,0,0,1-1.92-.241,6.548,6.548,0,0,1-2.7-1.5,6.957,6.957,0,0,1-.454,1.762c-.609,1.484-2.3,4.243-7.02,6.145-9.547,3.83-10.454,6.391-10.4,7.318a1.06,1.06,0,0,0,.557.9,1.162,1.162,0,0,0,.292.117,1.577,1.577,0,0,1,2.039-2.31,2.787,2.787,0,0,1,1.18,3.559,3.189,3.189,0,0,1-3.023,1.928,3.774,3.774,0,0,1-.663-.059,4.236,4.236,0,0,1-3.529-3.959C386.688,310.253,393.9,306.8,399.575,304.516Z" fill="#ffe15a"/></g></svg>