<svg xmlns="http://www.w3.org/2000/svg" width="512.001" height="335.448" viewBox="0 0 512.001 335.448"><g transform="translate(0 -88.276)"><path d="M503.172,88.276H8.828A8.829,8.829,0,0,0,0,97.1V414.9a8.829,8.829,0,0,0,8.828,8.828H503.173A8.829,8.829,0,0,0,512,414.9V97.1A8.83,8.83,0,0,0,503.172,88.276Z" fill="#ff6e55"/><path d="M3.256,421.591,508.743,90.41a8.681,8.681,0,0,0-5.571-2.134H8.828A8.829,8.829,0,0,0,0,97.1V414.9A8.685,8.685,0,0,0,3.256,421.591Z" fill="#ffe15a"/><path d="M281.52,178.026c-4.436.95-11.4-1.426-11.4-1.426,1.436,2.473,5.276,4.138,8.739,5.186a78.581,78.581,0,0,1-9.532.359c-14.257-.318-20.909,9.029-20.909,9.029,5.069-3.169,10.3-3.169,18.058-2.059s24.236-3.8,24.236-3.8l1.426-6.336S285.956,177.076,281.52,178.026Z" fill="#fff5dc"/><path d="M296.173,148.326a57.354,57.354,0,0,1,14.852,5.855,7.476,7.476,0,0,0-1.291.864,25.941,25.941,0,0,0-9.127-2.561,23.546,23.546,0,0,1,7.688,3.97,20.7,20.7,0,0,0-2.4,3.618c-8.287-8.886-17.249-2.955-17.249-2.955,11.117-.845,13.74,6.3,14.366,9.748a59.173,59.173,0,0,0-6.083-3.59c.279-.209.42-.4.747-.612,0,0-.7.028-1.662.172-14.188-6.819-21.149-1.44-21.149-1.44a31.992,31.992,0,0,1,16.744,2.908c-2.03,1.169-3.4,3.228-2.271,6.728-7.957-2.165-17.957-4.3-22.869-2.983-8.871,2.376-6.019,10.613-6.019,10.613a7.44,7.44,0,0,1,6.178-6.812c4.506-.949,26.928,6.178,26.928,6.178l7.286-3.485-3.009-2.535s-5.784-2.322-3.3-6.312a43.87,43.87,0,0,1,6.788,4.41l1.783-2.6c.087.674.118,1.18.118,1.18l5.069-2.217,1.109-1.585a14.31,14.31,0,0,1,2.023-5.394,16.61,16.61,0,0,1,3.284,6.937l4.594.476a16.543,16.543,0,0,0-5.886-9.533,6.756,6.756,0,0,1,1.349-.772,30.145,30.145,0,0,1,8.734,9.276l8.474-.119S318.032,150.227,296.173,148.326Z" fill="#fff5dc"/><circle cx="10.613" cy="10.613" r="10.613" transform="translate(366.427 212.557)" fill="#fff5dc"/><circle cx="14.238" cy="14.238" r="14.238" transform="translate(338.022 298.262)" fill="#fff5dc"/><circle cx="11.285" cy="11.285" r="11.285" transform="translate(232.435 294.315)" fill="#fff5dc"/><circle cx="13.03" cy="13.03" r="13.03" transform="translate(204.73 346.16)" fill="#fff5dc"/><path d="M341.872,195.452s24.4,8.7,30.294,11.642c8.317,4.158,21.385-7.96,30.532,1.426,0,0-1.585-6.257-9.187-6.732,0,0,.159-6.178-6.969-5.86,0,0,5.227,3.8,2.218,6.495a7.353,7.353,0,0,0-7.921-3.8s4.435,1.742,3.327,4.435c0,0-7.049,3.4-10.217,1.188s-28.2-15.722-36.116-16.039Z" fill="#fff5dc"/><path d="M335.614,203.054s5.227,1.545,12.831,9.5c3.523,3.689,12.592,3.921,11.167-3.208S340.6,197.827,338.7,197.827,335.614,203.054,335.614,203.054Z" fill="#f5f5f5"/><path d="M373.711,187.373l-9.98,3.327s1.109,6.772-4.594,9.742c-3.512,1.83-5.86,6.573-5.7,10.058a27.279,27.279,0,0,1,8.078-7.128c1.119-.6,2.151-1.12,3.091-1.651a32.561,32.561,0,0,0,.078,7.037c.95,6.494-1.109,8.712-1.109,8.712s5.545-4.277,4.91-11.246a11.257,11.257,0,0,1,.877-6.015,11.276,11.276,0,0,0,3.082,7.125c-1.9-3.8,2.059-7.921,3.644-11.247S373.711,187.373,373.711,187.373Z" fill="#fff5dc"/><path d="M398.936,173.592c-3.929-1.336-7.722,1.069-9.98,3.089-.961.86-3.493,1.3-6.084,1.532a23.572,23.572,0,0,0,4.541-3.907c2.138-2.732,6.059-3.208,9.385-4.277s4.753-5.346,4.753-5.346-1.782,2.614-6.772,2.376-6.653-.476-9.98,3.089a12.524,12.524,0,0,1-3.94,2.624,18.512,18.512,0,0,1,.613-4.881c.832-2.495,4.633-4.514,4.871-9.5s.476-4.514,3.327-7.485,3.683-8.554,2.851-6.772-4.633,3.921-7.841,6.891-.95,6.3-2.614,8.91-5.583,3.208-5.822,8.078a11.42,11.42,0,0,1-3.683,7.722s-8.435,4.633,1.663,8.317,18.268-6.563,23.285-6.3c11.167.594,14.137-3.089,14.137-3.089C409.747,174.662,404.876,175.612,398.936,173.592Z" fill="#fff5dc"/><path d="M276.451,251.843c-.633-.476-11.563-12.514-15.207-14.257l.792,3.01s-2.376-.159-6.653-5.386-7.445-6.653-7.445-6.653,3.01,4.753,2.851,7.762a29.5,29.5,0,0,0-13.464,2.851s-3.168-6.178-5.86-7.286c0,0,.95,6.495-1.267,8.078s20.909,12.514,24.077,12.831S276.451,251.843,276.451,251.843Z" fill="#fff5dc"/><path d="M290.866,228.241a12.738,12.738,0,0,0-2.9,1.843c-.666-3.847-2.008-11.624-2.008-11.981,0-.476-10.772-15.523-11.089-16.157-.006-.011-.041-.012-.049-.022,1.046-2.53,2.173-6.838-4.228-3.463-8.713,4.6-12.2,15.207-12.2,15.207,1.986-2.072,5.452-3.654,8.218-4.682.057,1.292.067,2.826-1.724,5.474-3.644,5.385-1.585,7.445-1.585,7.445,2.851-4.91,9.187-5.386,9.187-5.386a10.892,10.892,0,0,0,2.376,9.187l2.692-3.168c-.332,4.535,2.1,9.4,3.6,11.958a5.464,5.464,0,0,1-1.544.555,29.6,29.6,0,0,0-6.969,2.376s3.466-.739,5.434.781,5.1,2.684,6.8,2.326c0,0-.806,4.115.089,5.635a17.706,17.706,0,0,0-4.831-.537,6.79,6.79,0,0,1-4.482-1.71s4.753,6.81,8.237,8.236,9.5-3.8,9.5-3.8S291.5,228.4,290.866,228.241Z" fill="#fff5dc"/><path d="M208.972,327.56s-3.01.317-5.86,4.594l-1.267-4.435s-3.485,2.535-7.286.95c0,0,3.485-.792,4.118-3.96s1.9-3.485,1.9-3.485-2.376-2.535-4.91-2.376c0,0,6.969-3.644,10.772-.159S208.972,327.56,208.972,327.56Z" fill="#fff5dc"/><path d="M292.766,292.553s-3.01.317-5.86,4.594l-1.267-4.436s-3.485,2.535-7.286.95c0,0,3.485-.792,4.118-3.96s1.9-3.485,1.9-3.485-2.376-2.535-4.91-2.376c0,0,6.969-3.644,10.772-.159S292.766,292.553,292.766,292.553Z" fill="#fff5dc"/><path d="M344.146,247.488s-1.47,2.646.394,7.436l-4.359-1.511s.073,4.309-3.407,6.51c0,0,1.353-3.307-.876-5.646s-1.761-3.558-1.761-3.558-3.439.489-4.766,2.655c0,0,1.021-7.8,6.057-8.908S344.146,247.488,344.146,247.488Z" fill="#fff5dc"/><path d="M359.4,301.021l3.066,1.828A12.012,12.012,0,0,0,359.4,301.021Z" fill="#ff6e55"/><path d="M186.478,316.313s-14.1,19.8-30.255,24.077l5.7-7.286s-7.6,6.653-16.157,8.078l10.3-11.88s-22.968,21.385-52.431,25.82c0,0,22.81-14.414,27.4-19.484,0,0-11.089,4.436-21.068,4.594,0,0,28.671-11.089,33.423-15.523,0,0-11.4,2.535-18.533.159,0,0,24.711-7.128,28.2-6.178,0,0-14.257-5.7-22.81-5.069a80.489,80.489,0,0,1,31.522,0l-3.644-3.96a117.974,117.974,0,0,1,19.167-3.168c9.5-.633,4.753-1.426,4.753-1.426l1.109-3.168a47.336,47.336,0,0,1-11.246,0s15.207-8.554,19.484-12.355,1.426-2.059,1.426-2.059-7.921,2.692-10.772,3.168c0,0,7.128-8.237,9.346-13.623,0,0-6.495,2.535-12.039,0,0,0,6.653-1.9,9.98-5.227s8.237-11.6,8.237-11.6l-5.7,2.495s4.99-8.554,9.386-10.692c0,0-7.485.594-9.86-1.188,0,0,7.96-1.9,10.336-3.8s7.6-6.891,12.949-4.99c0,0,7.485-6.891,4.99-11.4,0,0,4.871.356,7.366,3.327a32.709,32.709,0,0,0,6.415,5.465L213.092,255.33,197.569,305.7Z" fill="#fff5dc"/><path d="M385.907,221.27c5.862,9.5-1.426,10.455-1.426,10.455-1.109-9.029-8.712-7.919-8.712-7.919l2.059,6.653c-12.672,1.585-11.722-11.089-11.722-11.089-1.9,1.585-5.069,8.078-5.069,8.078s-34.215,11.4-57.342-22.493c0,0-.633-6.02,1.268-8.872l-14.257-10.771-18.375,2.535s-7.286,16.473,1.585,26.612,19.325,24.394,17.424,31.047c-1.127,3.944-4.48,5.549-9.135,5.214a32.9,32.9,0,0,1-11.139-3.313c-10.138-4.753-34.849-14.889-52.59-6.653s-19.666,22.49-23.127,33.582c-3.064,9.818-9.863,34.884-58.3,57.753a2.117,2.117,0,0,0,1.346,3.992c21-5.22,49.621-13.918,58.457-24.2l7.128.237-2.614,10.93s9.267,2.851,10.692,16.395c0,0-16.236,4.435-7.049,18.375A12.833,12.833,0,0,1,217.682,347.2a11.642,11.642,0,0,0,8.078,3.8s2.851,4.6,1.426,8.4c0,0,11.246-3.485,1.742-16.95,0,0,10.613-2.534,12.039,10.772,0,0,6.812-21.543-17.5-19.959,0,0,0-3.8-6.415-10.692a15.081,15.081,0,0,1,0-9.267c.477-1.621.908-3.3,1.268-5.017a13.24,13.24,0,0,0,6.018,1.692s3.96,6.494,15.682,5.385c0,0-8.554-3.959-7.762-11.563s10.772-11.722,15.049-8.713c0,0-1.109-9.98-16.632-3.485,0,0,0-7.445,8.237-7.919,0,0-13.305-10.138-16.316,9.187l-5.506,1.376c-2.69-7.457-6.1-24.771,8.991-31.077,15.919-6.653,32.552,8.317,62.015,9.742,0,0-2.851,17.345,6.653,21.622s32.789,8.317,32.789,8.317c-.237,25.027,17.978,21.7,17.978,21.7-8.841-5.3-8.841-15.406-3.384-21.31,7.437-8.046,20.333-.392,20.333-.392-.182-12.182-17.266-10.3-17.266-10.3,2.692-7.919,13.3-9.98,13.3-9.98-14.731-5.385-26.928,10.535-26.928,10.535l-24.949-7.128s-.95-4.99,4.99-11.642,10.93-17.821,9.267-29.7a14.977,14.977,0,0,1,15.444-.079c8.554,4.753,26.928-5.7,26.928-5.7,7.921,10.137,26.77,8.237,29.3-3.959S385.907,221.27,385.907,221.27Z" fill="#f5f5f5"/><path d="M359.771,192.125c-4.712-2.749-13.148-5.069-16,1.267s-6.019,12.672-15.84,12.355-14.257,8.078-21.068,5.7c0,0,6.336-2.059,7.6-5.069s6.336-8.554,6.336-8.554l-.633-5.7s-11.722.632-15.207,3.959-16.632-2.85-16.632-2.85l1.585-13.781s10.137-15.523,24.236-14.414,16.474-2.535,23.285-2.059,10.3,7.445,17.582,9.029,21.859-1.426,23.76,3.01-3.644,6.178-5.069,12.355S369.275,197.67,359.771,192.125Z" fill="#f5f5f5"/><path d="M318.587,188.165s-6.812,4.594-12.514,2.692-10.772-1.267-16.632.633c0,0,10.772-1.267,15.207,2.851s15.682,1.426,16.474-.317Z" fill="#fff5dc"/><path d="M322.072,198.777s-6.653,4.753-13.3,3.485a23.644,23.644,0,0,0-12.672,1.426s4.91-5.386,11.563-4.435,9.028-5.544,9.028-5.544l4.436.317Z" fill="#fff5dc"/><circle cx="8.872" cy="8.872" r="8.872" transform="translate(318.588 184.048)" fill="#fff5dc"/><path d="M322.229,186.264s-3.485-4.435-12.2-2.692-10.772-1.426-10.772-1.426,4.118,6.336,10.613,5.544,9.187,3.644,9.187,3.644Z" fill="#fff5dc"/><path d="M351.538,175.173a10.13,10.13,0,0,1,3.114-2.891,10.845,10.845,0,0,1,2.42-.994,5.606,5.606,0,0,0-.683-3.678,4.932,4.932,0,1,0-8.486,4.945A5.5,5.5,0,0,0,351.538,175.173Z" fill="#fff5dc"/><path d="M343.757,185.377a10.155,10.155,0,0,1,2.168-3.655,10.906,10.906,0,0,1,2.039-1.638,5.608,5.608,0,0,0-1.7-3.335,4.931,4.931,0,1,0-6.74,7.142A5.487,5.487,0,0,0,343.757,185.377Z" fill="#fff5dc"/></g></svg>