<svg xmlns="http://www.w3.org/2000/svg" width="512.001" height="335.448" viewBox="0 0 512.001 335.448"><g transform="translate(0 -88.276)"><path d="M0,311.908H512V414.9a8.829,8.829,0,0,1-8.828,8.828H8.828A8.829,8.829,0,0,1,0,414.9Z" fill="#73af00"/><path d="M8.828,88.276H503.173A8.829,8.829,0,0,1,512,97.1V200.092H0V97.1A8.829,8.829,0,0,1,8.828,88.276Z" fill="#ff4b55"/><rect width="512" height="111.81" transform="translate(0 200.09)" fill="#ffe15a"/><path d="M244.6,205.957l-.653.817a26.013,26.013,0,0,0-1.47,2.254,18.306,18.306,0,0,0-2.38,8.792,18.043,18.043,0,0,0,.974,5.727,17.043,17.043,0,0,0,3.168,5.4,15.5,15.5,0,0,0,5.267,3.873,14.679,14.679,0,0,0,3.158,1.058,16.593,16.593,0,0,0,1.654.279,7.856,7.856,0,0,0,.841.051l.422.019.211.011.1.006.053,0h.026c-.085,0,.227,0-.184.007.684-.04,1.514-.045,2.078-.114.492-.115.906-.1,1.47-.262a14.662,14.662,0,0,0,3.158-1.058,15.505,15.505,0,0,0,5.267-3.873,17.043,17.043,0,0,0,3.168-5.4,18.1,18.1,0,0,0,.974-5.736,18.3,18.3,0,0,0-2.379-8.785,23.379,23.379,0,0,0-1.494-2.276c-.4-.505-.607-.776-.607-.776l-.053-.067a1.117,1.117,0,0,1,1.482-1.629l.937.6a18.315,18.315,0,0,1,2.439,2.039,19.417,19.417,0,0,1,5.358,10.3,20.649,20.649,0,0,1-.121,8.075,21.046,21.046,0,0,1-3.782,8.387,21.714,21.714,0,0,1-7.606,6.435,20.676,20.676,0,0,1-4.874,1.81,23.738,23.738,0,0,1-2.767.483c-.862.1-1.475.1-2.226.15h-.292l-.082,0-.164-.008-.328-.017-.657-.035c-.437-.035-.876-.029-1.309-.1a24.633,24.633,0,0,1-2.583-.466,20.615,20.615,0,0,1-4.874-1.81,21.724,21.724,0,0,1-7.606-6.435,21.086,21.086,0,0,1-3.782-8.387,20.4,20.4,0,0,1-.12-8.084,19.428,19.428,0,0,1,5.357-10.291,18.761,18.761,0,0,1,2.463-2.061l.89-.559a1.124,1.124,0,0,1,1.55.354A1.138,1.138,0,0,1,244.6,205.957Z" fill="#73af00"/><path d="M253.782,293.866v13.971a1.564,1.564,0,0,1-2.67,1.107l-.769-.769a3.405,3.405,0,0,1-1-2.408v-11.9Z" fill="#ff4b55"/><path d="M247.126,291.648v10.141a2.3,2.3,0,0,0,.673,1.625l1.545,1.545V291.648Z" fill="#ffe15a"/><path d="M244.908,291.648v5.442a2.933,2.933,0,0,0,.857,2.071l1.361,1.361v-8.874Z" fill="#73af00"/><path d="M258.218,293.866v13.971a1.564,1.564,0,0,0,2.67,1.107l.769-.769a3.405,3.405,0,0,0,1-2.408v-11.9Z" fill="#ff4b55"/><path d="M264.873,291.648v10.141a2.3,2.3,0,0,1-.673,1.625l-1.545,1.545V291.648Z" fill="#ffe15a"/><path d="M267.092,291.648v5.442a2.933,2.933,0,0,1-.857,2.071l-1.361,1.361v-8.874Z" fill="#73af00"/><path d="M267.092,251.715l24.4-17.748v36.5a18.964,18.964,0,0,1-18.964,18.964h0a18.971,18.971,0,0,1-10.051-2.882l-13.135-8.21v-26.93Z" fill="#ff4b55"/><path d="M282.621,240.422v25.607a18.847,18.847,0,0,1-23.6,18.354l-9.673-6.046v-26.93l17.748.308Z" fill="#ffe15a"/><path d="M275.966,245.261v16.531a18.847,18.847,0,0,1-23.6,18.354l-3.018-1.886V251.407l17.748.308Z" fill="#73af00"/><path d="M292.826,229.974l9.762-4.88-7.1,8.873h-3.993Z" fill="#f5f5f5"/><path d="M280.4,262.807l24.4-17.748v36.5a18.964,18.964,0,0,1-18.964,18.964h0a18.971,18.971,0,0,1-10.051-2.882l-13.135-8.21V262.5Z" fill="#ff4b55"/><path d="M289.277,256.354v16.531a18.847,18.847,0,0,1-23.6,18.354l-3.018-1.886V262.5l17.748.308Z" fill="#73af00"/><path d="M306.137,241.066l9.762-4.881-7.1,8.874h-3.993Z" fill="#f5f5f5"/><path d="M273.747,258.37l24.4-17.748v36.5a18.964,18.964,0,0,1-18.964,18.964h0a18.971,18.971,0,0,1-10.051-2.882L256,284.992v-26.93Z" fill="#ff4b55"/><path d="M289.277,247.076v25.607a18.847,18.847,0,0,1-23.6,18.354L256,284.992v-26.93l17.748.308Z" fill="#ffe15a"/><path d="M282.621,251.917v16.531a18.847,18.847,0,0,1-23.6,18.354L256,284.917V258.064l17.748.308Z" fill="#73af00"/><path d="M299.482,236.629l9.761-4.881-7.1,8.874h-3.992Z" fill="#f5f5f5"/><path d="M244.908,251.715l-24.4-17.748v36.5a18.964,18.964,0,0,0,18.964,18.964h0a18.971,18.971,0,0,0,10.051-2.882l13.135-8.21v-26.93Z" fill="#ff4b55"/><path d="M229.378,240.422v25.607a18.847,18.847,0,0,0,23.6,18.354l9.673-6.046v-26.93l-17.748.308Z" fill="#ffe15a"/><path d="M236.034,245.261v16.531a18.847,18.847,0,0,0,23.6,18.354l3.018-1.886V251.407l-17.748.308Z" fill="#73af00"/><path d="M219.173,229.974l-9.761-4.88,7.1,8.873H220.5Z" fill="#f5f5f5"/><path d="M231.6,262.807l-24.4-17.748v36.5a18.964,18.964,0,0,0,18.964,18.964h0a18.971,18.971,0,0,0,10.051-2.882l13.135-8.21V262.5Z" fill="#ff4b55"/><path d="M222.723,256.354v16.531a18.847,18.847,0,0,0,23.6,18.354l3.018-1.886V262.5l-17.748.308Z" fill="#73af00"/><path d="M205.862,241.066l-9.761-4.881,7.1,8.874h3.992Z" fill="#f5f5f5"/><path d="M238.252,258.37l-24.4-17.748v36.5a18.964,18.964,0,0,0,18.964,18.964h0a18.971,18.971,0,0,0,10.051-2.882L256,284.992v-26.93Z" fill="#ff4b55"/><path d="M222.723,247.076v25.607a18.847,18.847,0,0,0,23.6,18.354L256,284.991v-26.93l-17.748.308Z" fill="#ffe15a"/><path d="M229.378,251.917v16.531a18.847,18.847,0,0,0,23.6,18.354L256,284.916V258.063l-17.748.308Z" fill="#73af00"/><path d="M226.947,291.354l-2.925-2.925a4.438,4.438,0,0,1,.106-6.378l48.417-45.5,6.275,6.275-45.5,48.417A4.434,4.434,0,0,1,226.947,291.354Z" fill="#ffbe5a"/><circle cx="2.218" cy="2.218" r="2.218" transform="translate(223.272 287.673)" fill="#ffbe5a"/><ellipse cx="4.436" cy="2.218" rx="4.436" ry="2.218" transform="translate(277.254 244.404) rotate(-135)" fill="#f5f5f5"/><path d="M285.052,291.354l2.925-2.925a4.438,4.438,0,0,0-.106-6.378l-48.417-45.5-6.275,6.275,45.5,48.417A4.434,4.434,0,0,0,285.052,291.354Z" fill="#ffbe5a"/><circle cx="2.218" cy="2.218" r="2.218" transform="translate(284.292 287.673)" fill="#ffbe5a"/><ellipse cx="4.436" cy="2.218" rx="4.436" ry="2.218" transform="translate(231.619 241.27) rotate(-45)" fill="#f5f5f5"/><ellipse cx="19.616" cy="23.294" rx="19.616" ry="23.294" transform="translate(236.384 242.847)" fill="#ffbe5a"/><path d="M256,245.059l1.042,4.52,2.387-3.977-.407,4.62,3.5-3.044-1.814,4.268,4.268-1.814-3.045,3.5,4.62-.407-3.976,2.387,4.519,1.041-4.519,1.041,3.976,2.387-4.62-.406,3.045,3.5-4.268-1.813,1.814,4.268-3.5-3.044.407,4.619-2.387-3.976L256,267.244l-1.04-4.519-2.387,3.976.406-4.619-3.5,3.044,1.813-4.268-4.267,1.813,3.044-3.5-4.619.406,3.975-2.387-4.518-1.041,4.518-1.041-3.975-2.387,4.619.407-3.044-3.5,4.267,1.814-1.813-4.268,3.5,3.044-.406-4.62,2.387,3.977Z" fill="#ff4b55"/><path d="M280.541,265.719s-7.349,1.941-12.132-2.08a51.5,51.5,0,0,0-11.01-7.371,2.154,2.154,0,0,0-1.825,0,23.4,23.4,0,0,0-5.468,3.49c-2.912,2.566-11.855,7.626-13.657,7.626v11.029l14.073,12.2,16.639-.486Z" fill="#73af00"/><path d="M256,294.975c-14.068,0-25.513-12.938-25.513-28.84S241.93,237.3,256,237.3s25.513,12.938,25.513,28.84S270.067,294.975,256,294.975Zm0-51.025c-10.4,0-18.857,9.953-18.857,22.185S245.6,288.32,256,288.32s18.857-9.953,18.857-22.185S266.4,243.95,256,243.95Z" fill="#3cc8ff"/><path d="M252.177,288.947l.489,1.465,1.545.012a.208.208,0,0,1,.122.375l-1.242.918.466,1.473a.208.208,0,0,1-.32.232l-1.257-.9-1.257.9a.209.209,0,0,1-.32-.232l.466-1.473-1.242-.918a.208.208,0,0,1,.122-.375l1.545-.012.489-1.465A.207.207,0,0,1,252.177,288.947Z" fill="#ffbe5a"/><path d="M245.242,285.965l.489,1.465,1.545.012a.208.208,0,0,1,.122.375l-1.242.918.466,1.473a.208.208,0,0,1-.32.232l-1.257-.9-1.257.9a.209.209,0,0,1-.32-.232l.466-1.473-1.242-.918a.208.208,0,0,1,.122-.375l1.545-.012.489-1.465A.207.207,0,0,1,245.242,285.965Z" fill="#ffbe5a"/><path d="M239.673,280.9l.489,1.465,1.545.012a.208.208,0,0,1,.122.375l-1.242.918.466,1.473a.208.208,0,0,1-.32.232l-1.257-.9-1.257.9a.209.209,0,0,1-.32-.232l.466-1.473-1.242-.918a.208.208,0,0,1,.122-.375l1.545-.012.489-1.465A.207.207,0,0,1,239.673,280.9Z" fill="#ffbe5a"/><path d="M235.875,274.167l.489,1.465,1.545.012a.208.208,0,0,1,.122.375l-1.242.918.466,1.473a.208.208,0,0,1-.32.232l-1.257-.9-1.257.9a.209.209,0,0,1-.32-.232l.466-1.473-1.242-.918a.208.208,0,0,1,.122-.375l1.545-.012.489-1.465A.207.207,0,0,1,235.875,274.167Z" fill="#ffbe5a"/><path d="M234.2,266.335l.489,1.465,1.545.012a.208.208,0,0,1,.122.375l-1.242.918.466,1.473a.208.208,0,0,1-.32.232l-1.257-.9-1.257.9a.209.209,0,0,1-.32-.232l.466-1.473-1.242-.918a.208.208,0,0,1,.122-.375l1.545-.012.489-1.465A.207.207,0,0,1,234.2,266.335Z" fill="#ffbe5a"/><path d="M259.812,288.947l-.489,1.465-1.545.012a.208.208,0,0,0-.122.375l1.242.918-.466,1.473a.208.208,0,0,0,.32.232l1.257-.9,1.257.9a.209.209,0,0,0,.32-.232l-.466-1.473,1.242-.918a.208.208,0,0,0-.122-.375l-1.545-.012-.489-1.465A.207.207,0,0,0,259.812,288.947Z" fill="#ffbe5a"/><path d="M266.747,285.965l-.489,1.465-1.545.012a.208.208,0,0,0-.122.375l1.242.918-.466,1.473a.208.208,0,0,0,.32.232l1.257-.9,1.257.9a.209.209,0,0,0,.32-.232l-.466-1.473,1.242-.918a.208.208,0,0,0-.122-.375l-1.545-.012-.489-1.465A.207.207,0,0,0,266.747,285.965Z" fill="#ffbe5a"/><path d="M272.316,280.9l-.489,1.465-1.545.012a.208.208,0,0,0-.122.375l1.242.918-.466,1.473a.208.208,0,0,0,.32.232l1.257-.9,1.257.9a.209.209,0,0,0,.32-.232l-.466-1.473,1.242-.918a.208.208,0,0,0-.122-.375l-1.545-.012-.489-1.465A.207.207,0,0,0,272.316,280.9Z" fill="#ffbe5a"/><path d="M276.114,274.167l-.489,1.465-1.545.012a.208.208,0,0,0-.122.375l1.242.918-.466,1.473a.208.208,0,0,0,.32.232l1.257-.9,1.257.9a.209.209,0,0,0,.32-.232l-.466-1.473,1.242-.918a.208.208,0,0,0-.122-.375L277,275.632l-.489-1.465A.207.207,0,0,0,276.114,274.167Z" fill="#ffbe5a"/><path d="M277.79,266.335,277.3,267.8l-1.545.012a.208.208,0,0,0-.122.375l1.242.918-.466,1.473a.208.208,0,0,0,.32.232l1.257-.9,1.257.9a.209.209,0,0,0,.32-.232L279.1,269.1l1.242-.918a.208.208,0,0,0-.122-.375l-1.545-.012-.489-1.465A.207.207,0,0,0,277.79,266.335Z" fill="#ffbe5a"/><path d="M246.361,280.357l.737,3.526h.318v-2.406a7.247,7.247,0,0,0,1.266,2.406h.6a3.441,3.441,0,0,1-.8-1.927c0-1.091.868-1.24.868-2.407h.744v4.333h.435l.806-3.861a11.724,11.724,0,0,0,1.914,3.861h.556a7,7,0,0,1-1.081-4.407,2.45,2.45,0,0,0,1.191-2.208v-2.294a.779.779,0,0,1,.778-.778h.535s-.8-1.544-1.647-1.768v-.968l-.641.969a1.285,1.285,0,0,0-.973,1.3v1.4a.778.778,0,0,1-.778.778H248.4c-.823,0-2.142.823-2.142,1.878a2.527,2.527,0,0,0,.791,1.747Z" fill="#f5f5f5"/><path d="M258.819,276.844h-.255a4.685,4.685,0,0,0-3.142,1.436l2.045,2.045v3.848h2.447v-3.848l2.045-2.045A4.669,4.669,0,0,0,258.819,276.844Z" fill="#ffbe5a"/><rect width="0.739" height="13.634" transform="translate(263.12 270.55)" fill="#f5f5f5"/><path d="M263.511,270.445l-3.987,4.819a5.26,5.26,0,0,1,1.8-4.61l-5.13.936a5.792,5.792,0,0,1,5.65-2.6l-4.194-3.5s3.605-.207,5.442,2.5c0,0,1.039-3.119,3.951-3.258l-2.4,3.651a7.988,7.988,0,0,1,5.731-.15l-4.957,1.318s2.773.277,3.917,4.333l-4.3-2.946a5.9,5.9,0,0,1,.832,4.61Z" fill="#f5f5f5"/><path d="M212.518,236.629l-9.762-4.881,7.1,8.874h3.993Z" fill="#f5f5f5"/><path d="M262.94,230.978l26.337-8.1L275.3,217.632a22.157,22.157,0,0,0-7.789-1.412h-2.633a2.218,2.218,0,0,0-2.218,2.218v2.218H249.344v-2.218a2.218,2.218,0,0,0-2.218-2.218h-2.633a22.2,22.2,0,0,0-7.789,1.412l-13.981,5.242,26.337,8.1a2.22,2.22,0,0,1,1.332,3.113l-3.266,6.531h17.748l-3.266-6.531A2.219,2.219,0,0,1,262.94,230.978Z" fill="#825546"/><circle cx="4.436" cy="4.436" r="4.436" transform="translate(251.564 218.434)" fill="#f5f5f5"/><path d="M258.218,222.875h0A2.218,2.218,0,0,1,256,225.093h-8.874l3.787-3.787a2.218,2.218,0,0,1,1.569-.65H256A2.22,2.22,0,0,1,258.218,222.875Z" fill="#ffbe5a"/></g></svg>