<svg xmlns="http://www.w3.org/2000/svg" width="512.001" height="335.448" viewBox="0 0 512.001 335.448"><g transform="translate(0 -88.276)"><path d="M503.172,88.276H8.828A8.829,8.829,0,0,0,0,97.1V414.9a8.829,8.829,0,0,0,8.828,8.828H503.173A8.829,8.829,0,0,0,512,414.9V97.1A8.83,8.83,0,0,0,503.172,88.276Z" fill="#41479b"/><path d="M3.256,421.591,508.743,90.41a8.681,8.681,0,0,0-5.571-2.134H8.828A8.829,8.829,0,0,0,0,97.1V414.9A8.685,8.685,0,0,0,3.256,421.591Z" fill="#f5f5f5"/><path d="M224.779,88.276H8.828A8.829,8.829,0,0,0,0,97.1V235.546Z" fill="#ffe15a"/><path d="M202.274,229.138a61.731,61.731,0,0,0-51.826-51.826L141.241,158.9l-9.207,18.415a61.731,61.731,0,0,0-51.826,51.826l-18.415,9.207,18.415,9.207a61.731,61.731,0,0,0,51.826,51.826l9.207,18.415,9.207-18.415a61.731,61.731,0,0,0,51.826-51.826l18.415-9.207ZM141.241,291.31a52.965,52.965,0,1,1,52.965-52.965A52.965,52.965,0,0,1,141.241,291.31Z" fill="#464655"/><path d="M141.241,204.4l9.505,17.482,19.892-.51L160.25,238.345l10.388,16.972-19.892-.51-9.505,17.483-9.5-17.483-19.893.51,10.388-16.972-10.388-16.972,19.893.51Z" fill="#ff4b55"/></g></svg>