<svg xmlns="http://www.w3.org/2000/svg" width="512" height="335.448" viewBox="0 0 512 335.448"><g transform="translate(0 -88.276)"><path d="M503.172,423.724H8.828A8.829,8.829,0,0,1,0,414.9V97.1a8.829,8.829,0,0,1,8.828-8.828H503.173A8.829,8.829,0,0,1,512,97.1V414.9A8.83,8.83,0,0,1,503.172,423.724Z" fill="#41479b"/><path d="M441.378,88.276V423.724L105.931,88.276Z" fill="#ffe15a"/><path d="M207.353,213.176l5.088,15.254,16.079.125a1.3,1.3,0,0,1,.76,2.339l-12.936,9.553,4.851,15.331a1.3,1.3,0,0,1-1.991,1.446l-13.082-9.351-13.082,9.351a1.3,1.3,0,0,1-1.991-1.446l4.851-15.331-12.936-9.553a1.3,1.3,0,0,1,.76-2.339l16.079-.125,5.088-15.254A1.3,1.3,0,0,1,207.353,213.176Z" fill="#f5f5f5"/><path d="M170.571,176.4l5.088,15.254,16.079.125a1.3,1.3,0,0,1,.76,2.339l-12.936,9.553L184.413,219a1.3,1.3,0,0,1-1.991,1.446l-13.082-9.351-13.082,9.351A1.3,1.3,0,0,1,154.267,219l4.851-15.331-12.936-9.553a1.3,1.3,0,0,1,.76-2.339l16.079-.125,5.088-15.254A1.3,1.3,0,0,1,170.571,176.4Z" fill="#f5f5f5"/><path d="M133.79,139.613l5.088,15.254,16.079.125a1.3,1.3,0,0,1,.76,2.339l-12.936,9.553,4.851,15.331a1.3,1.3,0,0,1-1.991,1.446l-13.082-9.351-13.082,9.351a1.3,1.3,0,0,1-1.991-1.446l4.851-15.331L109.4,157.331a1.3,1.3,0,0,1,.76-2.339l16.079-.125,5.088-15.254A1.3,1.3,0,0,1,133.79,139.613Z" fill="#f5f5f5"/><path d="M97.008,102.832l5.088,15.254,16.079.125a1.3,1.3,0,0,1,.76,2.339L106,130.1l4.851,15.331a1.3,1.3,0,0,1-1.991,1.446l-13.082-9.351L82.7,146.879a1.3,1.3,0,0,1-1.991-1.446L85.556,130.1,72.62,120.55a1.3,1.3,0,0,1,.76-2.339l16.079-.125,5.088-15.254A1.3,1.3,0,0,1,97.008,102.832Z" fill="#f5f5f5"/><path d="M354.479,360.3l5.088,15.254,16.079.125a1.3,1.3,0,0,1,.76,2.339l-12.936,9.553,4.851,15.331a1.3,1.3,0,0,1-1.99,1.446L353.249,395l-13.082,9.351a1.3,1.3,0,0,1-1.991-1.446l4.851-15.331-12.936-9.553a1.3,1.3,0,0,1,.76-2.339l16.079-.125,5.088-15.254A1.3,1.3,0,0,1,354.479,360.3Z" fill="#f5f5f5"/><path d="M317.7,323.521l5.088,15.254,16.079.125a1.3,1.3,0,0,1,.76,2.339l-12.936,9.553,4.851,15.331a1.3,1.3,0,0,1-1.99,1.446l-13.082-9.351-13.082,9.351a1.3,1.3,0,0,1-1.991-1.446l4.851-15.331-12.936-9.553a1.3,1.3,0,0,1,.76-2.339l16.079-.125,5.088-15.254A1.3,1.3,0,0,1,317.7,323.521Z" fill="#f5f5f5"/><path d="M280.915,286.74,286,301.994l16.079.125a1.3,1.3,0,0,1,.76,2.339l-12.936,9.553,4.851,15.331a1.3,1.3,0,0,1-1.991,1.445l-13.082-9.351L266.6,330.787a1.3,1.3,0,0,1-1.991-1.445l4.851-15.331-12.936-9.553a1.3,1.3,0,0,1,.76-2.339l16.079-.125,5.088-15.254A1.3,1.3,0,0,1,280.915,286.74Z" fill="#f5f5f5"/><path d="M244.134,249.958l5.088,15.254,16.079.125a1.3,1.3,0,0,1,.76,2.339l-12.936,9.553,4.851,15.331a1.3,1.3,0,0,1-1.991,1.446L242.9,284.655l-13.082,9.351a1.3,1.3,0,0,1-1.991-1.446l4.851-15.331-12.936-9.553a1.3,1.3,0,0,1,.76-2.339l16.079-.125,5.088-15.254A1.3,1.3,0,0,1,244.134,249.958Z" fill="#f5f5f5"/><path d="M41.944,88.276l6.83,5.044-4.851,15.331a1.3,1.3,0,0,0,1.991,1.447L59,100.747,72.077,110.1a1.3,1.3,0,0,0,1.99-1.447L69.217,93.32l6.833-5.044Z" fill="#f5f5f5"/><path d="M412.427,412.464l-16.079-.125-5.087-15.254a1.3,1.3,0,0,0-2.46,0l-5.087,15.254-16.079.125a1.3,1.3,0,0,0-.76,2.339l12.083,8.921h22.151l12.082-8.921A1.3,1.3,0,0,0,412.427,412.464Z" fill="#f5f5f5"/></g></svg>