<svg xmlns="http://www.w3.org/2000/svg" width="512" height="335.449" viewBox="0 0 512 335.449"><g transform="translate(0 -88.276)"><path d="M503.172,423.725H8.828A8.829,8.829,0,0,1,0,414.9V97.1a8.829,8.829,0,0,1,8.828-8.828H503.173A8.829,8.829,0,0,1,512,97.1V414.9A8.83,8.83,0,0,1,503.172,423.725Z" fill="#73af00"/><path d="M251.41,135.209,65.354,248.46a8.827,8.827,0,0,0,0,15.081L251.41,376.793a8.828,8.828,0,0,0,9.18,0L446.647,263.542a8.827,8.827,0,0,0,0-15.081L260.59,135.209A8.828,8.828,0,0,0,251.41,135.209Z" fill="#ffe15a"/><circle cx="70.62" cy="70.62" r="70.62" transform="translate(185.38 185.381)" fill="#41479b"/><path d="M195.4,219.874a70.117,70.117,0,0,0-7.6,18.077c39.149-2.946,97.062,8.006,133.922,43.773a70.114,70.114,0,0,0,4.59-19.522C288.247,230.169,235.628,218.778,195.4,219.874Z" fill="#f5f5f5"/><path d="M258.925,280.1l1.88,5.638,5.943.046a.8.8,0,0,1,.47,1.445l-4.781,3.531,1.793,5.666a.8.8,0,0,1-1.229.893l-4.835-3.456-4.835,3.456a.8.8,0,0,1-1.229-.893l1.793-5.666-4.781-3.531a.8.8,0,0,1,.469-1.445l5.943-.046,1.88-5.638A.8.8,0,0,1,258.925,280.1Z" fill="#f5f5f5"/><path d="M282.024,294.685l.809,2.426,2.558.02a.345.345,0,0,1,.2.622l-2.058,1.519.771,2.439a.344.344,0,0,1-.529.384l-2.081-1.487-2.081,1.487a.344.344,0,0,1-.529-.384l.771-2.439-2.058-1.519a.345.345,0,0,1,.2-.622l2.558-.02.809-2.426A.346.346,0,0,1,282.024,294.685Z" fill="#f5f5f5"/><path d="M248.938,269.39l.809,2.426,2.558.02a.345.345,0,0,1,.2.622l-2.058,1.519.771,2.439a.344.344,0,0,1-.529.384l-2.081-1.487-2.081,1.487a.344.344,0,0,1-.529-.384l.771-2.439-2.058-1.519a.345.345,0,0,1,.2-.622l2.558-.02.809-2.426A.346.346,0,0,1,248.938,269.39Z" fill="#f5f5f5"/><path d="M204.13,266.448l.809,2.426,2.558.02a.345.345,0,0,1,.2.622l-2.058,1.519.771,2.439a.344.344,0,0,1-.529.384l-2.081-1.487-2.081,1.487a.344.344,0,0,1-.529-.384l.771-2.439-2.058-1.519a.345.345,0,0,1,.2-.622l2.558-.02.809-2.426A.346.346,0,0,1,204.13,266.448Z" fill="#f5f5f5"/><path d="M241.614,293.847l.809,2.426,2.558.02a.345.345,0,0,1,.2.622l-2.058,1.519.771,2.439a.344.344,0,0,1-.529.384l-2.081-1.487-2.081,1.487a.344.344,0,0,1-.529-.384l.771-2.439-2.058-1.519a.345.345,0,0,1,.2-.622l2.558-.02.809-2.426A.347.347,0,0,1,241.614,293.847Z" fill="#f5f5f5"/><path d="M220.99,264.755l.662,1.984,2.092.017a.283.283,0,0,1,.166.509l-1.683,1.242.631,1.994a.282.282,0,0,1-.433.314l-1.7-1.216-1.7,1.216a.282.282,0,0,1-.433-.314l.631-1.994-1.683-1.242a.282.282,0,0,1,.166-.509l2.092-.017.662-1.984A.281.281,0,0,1,220.99,264.755Z" fill="#f5f5f5"/><path d="M283.819,223.794l.828,2.482,2.616.02a.352.352,0,0,1,.206.636l-2.1,1.554.789,2.495a.352.352,0,0,1-.541.393l-2.129-1.522-2.129,1.522a.352.352,0,0,1-.541-.393l.789-2.495-2.1-1.554a.352.352,0,0,1,.206-.636l2.616-.02.828-2.482A.353.353,0,0,1,283.819,223.794Z" fill="#f5f5f5"/><path d="M207.012,252.617l.662,1.984,2.092.017a.283.283,0,0,1,.166.509l-1.683,1.242.631,1.994a.282.282,0,0,1-.433.314l-1.7-1.216-1.7,1.216a.282.282,0,0,1-.433-.314l.631-1.994-1.683-1.242a.282.282,0,0,1,.166-.509l2.092-.017.662-1.984A.281.281,0,0,1,207.012,252.617Z" fill="#f5f5f5"/><path d="M217.112,280.581l1,3.006,3.168.024a.427.427,0,0,1,.25.77l-2.549,1.882.956,3.02a.427.427,0,0,1-.655.476l-2.578-1.842-2.578,1.842a.427.427,0,0,1-.655-.476l.956-3.02-2.549-1.882a.427.427,0,0,1,.25-.77l3.168-.024,1-3.006A.429.429,0,0,1,217.112,280.581Z" fill="#f5f5f5"/><path d="M294.9,295.315l.63,1.891,1.993.015a.268.268,0,0,1,.158.484l-1.6,1.184.6,1.9a.269.269,0,0,1-.413.3l-1.621-1.159-1.622,1.159a.269.269,0,0,1-.413-.3l.6-1.9-1.6-1.184a.268.268,0,0,1,.158-.484l1.993-.015.63-1.891A.269.269,0,0,1,294.9,295.315Z" fill="#f5f5f5"/><path d="M301.877,280.885l.809,2.426,2.558.02a.345.345,0,0,1,.2.622l-2.058,1.519.771,2.439a.344.344,0,0,1-.529.384l-2.081-1.487-2.081,1.487a.344.344,0,0,1-.529-.384l.771-2.439-2.058-1.519a.345.345,0,0,1,.2-.622l2.558-.02.809-2.426A.346.346,0,0,1,301.877,280.885Z" fill="#f5f5f5"/></g></svg>