<svg xmlns="http://www.w3.org/2000/svg" width="512" height="335.448" viewBox="0 0 512 335.448"><g transform="translate(0 -88.276)"><path d="M503.172,423.724H8.828A8.829,8.829,0,0,1,0,414.9V97.1a8.829,8.829,0,0,1,8.828-8.828H503.173A8.829,8.829,0,0,1,512,97.1V414.9A8.83,8.83,0,0,1,503.172,423.724Z" fill="#41479b"/><path d="M247.172,88.276H231.839l-81.77,53.573V88.276H105.931v53.573L24.161,88.276H8.828A8.829,8.829,0,0,0,0,97.1v7l70.155,45.963H0v44.138H70.155L0,240.171v7A8.829,8.829,0,0,0,8.828,256H24.161l81.77-53.573V256h44.138V202.427L231.838,256h15.333A8.829,8.829,0,0,0,256,247.172v-7l-70.154-45.963H256V150.069H185.844L256,104.106v-7A8.827,8.827,0,0,0,247.172,88.276Z" fill="#f5f5f5"/><path d="M256,158.9H141.241V88.276H114.758V158.9H0v26.482H114.758V256h26.483V185.379H256Z" fill="#ff4b55"/><path d="M97.1,150.069l-92.9-60.3A8.686,8.686,0,0,0,0,97.1v.458l80.889,52.507Z" fill="#ff4b55"/><path d="M166.283,150.069,254.657,92.7a8.7,8.7,0,0,0-7.485-4.427h-1.909l-95.194,61.793Z" fill="#ff4b55"/><path d="M89.474,194.207l-88.2,57.256A8.717,8.717,0,0,0,8.828,256h1.665l95.2-61.793Z" fill="#ff4b55"/><path d="M255.859,247.867l-82.666-53.659H156.98l93.873,60.934A8.739,8.739,0,0,0,255.859,247.867Z" fill="#ff4b55"/><path d="M387.75,171.124h-57.8V276.517c0,23.8,57.8,47.6,57.8,47.6s57.8-23.8,57.8-47.6V171.124Z" fill="#73af00"/><path d="M353.913,251.542a4.41,4.41,0,0,1-.036-2.13c.289-1.011-.454-1.938-.614-2.815-.433-2.382,1.588-3,1.7-5.124,0,0,1.443,1.48.9,2.888s.794,1.624.614,2.959-1.661,2.743-1.516,3.934Z" fill="#ff4b55"/><path d="M376.637,249.28c-1.181-1.476-3.252.114-4.768,1.27-.211.162-.39.286-.577.422l-5.592-8.259a1.448,1.448,0,0,0,.27-.807,1.49,1.49,0,1,0-2.98,0,1.45,1.45,0,0,0,.27.807l-5.769,8.519h-4.085s-.169,2.539,4.291,2.847a5.144,5.144,0,0,0,2.377,1.956.944.944,0,0,0-.833.914v.6c0,.038.036.06.04.1h10.391c0-.036.04-.058.04-.1v-.6a.944.944,0,0,0-.847-.919,5.146,5.146,0,0,0,3.167-4.26c.162-.12.313-.23.489-.363,1.1-.842,2.749-2.124,3.276-1.453.131.164.118.255.113.288-.06.39-.893.95-1.562,1.4-1.053.707-2.142,1.441-2.228,2.481a.539.539,0,0,0,.49.582h.045a.537.537,0,0,0,.535-.491c.043-.527.993-1.165,1.757-1.677.973-.657,1.892-1.273,2.024-2.127A1.424,1.424,0,0,0,376.637,249.28Zm-9.559,1.952a4.131,4.131,0,0,0-1.941-2.71,1.49,1.49,0,1,0-1.342,0,4.123,4.123,0,0,0-1.941,2.71h-3.065l5.353-7.9a.879.879,0,0,0,.678,0l5.353,7.9Z" fill="#ffe15a"/><path d="M384.066,201.155s-5.383-1.593-7.791,17.247c0,0-13.174,16.751-13.6,17.742s-.035,8.11,1.382,7.543,3.967-3.86,3.825-6.269a6.3,6.3,0,0,1,2.018-4.958c2.018-2.266,13.387-12.536,13.812-14.8S384.066,201.155,384.066,201.155Z" fill="#ffc8b9"/><path d="M392.425,197.579s8.322-1.1,10.766,7.4c0,0-6.835,3.754-5.985,8.641s-.106,27.2-.106,27.2c-13.068,4.249-19.974-1.063-19.974-1.063s3.4-12.643,2.869-22.948c0,0-3.081-2.337-2.337-4.993s2.656-5.631,3.294-7.862,2.337-5.95,6.481-6.269A22.1,22.1,0,0,1,392.425,197.579Z" fill="#f5f5f5"/><path d="M379.534,237.279s-6.516,24.649-4.249,58.221c0,0,20.328,2.691,31.378-1.346,0,0-5.737-40.16-11.262-55.884Z" fill="#f5f5f5"/><path d="M383.358,183.06v10.211a2.03,2.03,0,0,0,2.03,2.03h.182a1.437,1.437,0,0,1,1.437,1.437v2.441s1.368,3.574,6.691-.608V183.136Z" fill="#ffc8b9"/><path d="M382.154,180.969c-.33.825.018,3.063,2.053,2.9,2.543-.2,5.613-.213,6.3,2.6.642,2.617.213,9.154,3.046,9.58s6.046-1.458,5.985-7.083c-.053-4.958-3.294-10.89-7.827-9.987,0,0-4.02-2.816-6.375.354C385.342,179.34,382.863,179.2,382.154,180.969Z" fill="#8c5a28"/><path d="M403.19,204.98s2.9,19.1,2.762,20.682c-.141,1.629-10.27,17.282-9.7,18.983s1.133,3.967-1.983,4.817-2.8-4.126-1.948-6.676,7.968-16.131,7.968-17.689-4.038-11.616-3.046-15.583S403.19,204.98,403.19,204.98Z" fill="#ffc8b9"/><path d="M341.163,191.262a4.41,4.41,0,0,1-.036-2.13c.289-1.011-.454-1.938-.613-2.815-.433-2.382,1.588-3,1.7-5.124,0,0,1.443,1.48.9,2.888s.794,1.624.614,2.959-1.661,2.743-1.516,3.934Z" fill="#ff4b55"/><path d="M363.888,189c-1.181-1.476-3.252.114-4.768,1.27-.211.162-.39.286-.577.422l-5.592-8.259a1.448,1.448,0,0,0,.27-.807,1.49,1.49,0,1,0-2.98,0,1.45,1.45,0,0,0,.27.807l-5.769,8.519h-4.085s-.169,2.539,4.291,2.847a5.144,5.144,0,0,0,2.377,1.956.944.944,0,0,0-.833.914v.6c0,.038.036.06.04.1h10.391c0-.036.04-.058.04-.1v-.6a.944.944,0,0,0-.847-.919,5.146,5.146,0,0,0,3.167-4.26c.162-.12.313-.23.489-.363,1.1-.842,2.749-2.124,3.276-1.453.131.164.118.255.113.288-.06.39-.893.95-1.562,1.4-1.053.707-2.142,1.441-2.228,2.481a.538.538,0,0,0,.49.581h.045a.537.537,0,0,0,.535-.491c.043-.527.993-1.165,1.757-1.677.973-.657,1.892-1.273,2.024-2.127A1.422,1.422,0,0,0,363.888,189Zm-9.559,1.952a4.131,4.131,0,0,0-1.941-2.71,1.49,1.49,0,1,0-1.342,0,4.123,4.123,0,0,0-1.941,2.71H346.04l5.353-7.9a1.456,1.456,0,0,0,.339.068,1.478,1.478,0,0,0,.339-.068l5.353,7.9Z" fill="#ffe15a"/><path d="M341.163,211.356a4.41,4.41,0,0,1-.036-2.13c.289-1.011-.454-1.938-.613-2.815-.433-2.382,1.588-3,1.7-5.124,0,0,1.443,1.48.9,2.888s.794,1.624.614,2.959-1.661,2.743-1.516,3.934Z" fill="#ff4b55"/><path d="M363.888,209.094c-1.181-1.476-3.252.114-4.768,1.27-.211.162-.39.286-.577.422l-5.592-8.259a1.448,1.448,0,0,0,.27-.807,1.49,1.49,0,1,0-2.98,0,1.45,1.45,0,0,0,.27.807l-5.769,8.519h-4.085s-.169,2.539,4.291,2.847a5.144,5.144,0,0,0,2.377,1.956.944.944,0,0,0-.833.914v.6c0,.038.036.06.04.1h10.391c0-.036.04-.058.04-.1v-.6a.944.944,0,0,0-.847-.919,5.146,5.146,0,0,0,3.167-4.26c.162-.12.313-.23.489-.363,1.1-.842,2.749-2.124,3.276-1.453.131.164.118.255.113.288-.06.39-.893.95-1.562,1.4-1.053.707-2.142,1.441-2.228,2.481a.539.539,0,0,0,.49.582h.045a.537.537,0,0,0,.535-.491c.043-.527.993-1.165,1.757-1.677.973-.657,1.892-1.273,2.024-2.127A1.42,1.42,0,0,0,363.888,209.094Zm-9.559,1.951a4.131,4.131,0,0,0-1.941-2.71,1.49,1.49,0,1,0-1.342,0,4.123,4.123,0,0,0-1.941,2.71H346.04l5.353-7.9a1.456,1.456,0,0,0,.339.068,1.478,1.478,0,0,0,.339-.068l5.353,7.9Z" fill="#ffe15a"/><path d="M341.163,231.449a4.41,4.41,0,0,1-.036-2.13c.289-1.011-.454-1.938-.613-2.815-.433-2.382,1.588-3,1.7-5.124,0,0,1.443,1.48.9,2.888s.794,1.624.614,2.959-1.661,2.743-1.516,3.934Z" fill="#ff4b55"/><path d="M363.888,229.187c-1.181-1.476-3.252.114-4.768,1.27-.211.162-.39.286-.577.422l-5.592-8.259a1.448,1.448,0,0,0,.27-.807,1.49,1.49,0,1,0-2.98,0,1.45,1.45,0,0,0,.27.807l-5.769,8.519h-4.085s-.169,2.539,4.291,2.847a5.144,5.144,0,0,0,2.377,1.956.944.944,0,0,0-.833.914v.6c0,.038.036.06.04.1h10.391c0-.036.04-.058.04-.1v-.6a.944.944,0,0,0-.847-.919,5.146,5.146,0,0,0,3.167-4.26c.162-.12.313-.23.489-.363,1.1-.842,2.749-2.124,3.276-1.453.131.164.118.255.113.288-.06.39-.893.95-1.562,1.4-1.053.707-2.142,1.441-2.228,2.481a.538.538,0,0,0,.49.581h.045a.537.537,0,0,0,.535-.491c.043-.527.993-1.165,1.757-1.677.973-.657,1.892-1.273,2.024-2.127A1.421,1.421,0,0,0,363.888,229.187Zm-9.559,1.951a4.131,4.131,0,0,0-1.941-2.71,1.49,1.49,0,1,0-1.342,0,4.123,4.123,0,0,0-1.941,2.71H346.04l5.353-7.9a1.456,1.456,0,0,0,.339.068,1.478,1.478,0,0,0,.339-.068l5.353,7.9Z" fill="#ffe15a"/><path d="M341.163,271.636a4.41,4.41,0,0,1-.036-2.13c.289-1.011-.454-1.938-.613-2.815-.433-2.382,1.588-3,1.7-5.124,0,0,1.443,1.48.9,2.888s.794,1.624.614,2.959-1.661,2.743-1.516,3.934Z" fill="#ff4b55"/><path d="M363.888,269.374c-1.181-1.476-3.252.114-4.768,1.27-.211.162-.39.286-.577.422l-5.592-8.259a1.448,1.448,0,0,0,.27-.807,1.49,1.49,0,0,0-2.98,0,1.451,1.451,0,0,0,.27.807l-5.769,8.519h-4.085s-.169,2.539,4.291,2.847a5.144,5.144,0,0,0,2.377,1.956.944.944,0,0,0-.833.914v.6c0,.038.036.06.04.1h10.391c0-.036.04-.058.04-.1v-.6a.944.944,0,0,0-.847-.919,5.146,5.146,0,0,0,3.167-4.26c.162-.12.313-.229.489-.363,1.1-.842,2.749-2.124,3.276-1.453.131.164.118.255.113.288-.06.39-.893.95-1.562,1.4-1.053.707-2.142,1.441-2.228,2.481a.539.539,0,0,0,.49.582h.045a.537.537,0,0,0,.535-.491c.043-.527.993-1.165,1.757-1.677.973-.657,1.892-1.273,2.024-2.127A1.421,1.421,0,0,0,363.888,269.374Zm-9.559,1.952a4.131,4.131,0,0,0-1.941-2.71,1.49,1.49,0,1,0-1.342,0,4.123,4.123,0,0,0-1.941,2.71H346.04l5.353-7.9a1.456,1.456,0,0,0,.339.068,1.477,1.477,0,0,0,.339-.068l5.353,7.9Z" fill="#ffe15a"/><path d="M341.163,291.73a4.41,4.41,0,0,1-.036-2.13c.289-1.011-.454-1.938-.613-2.815-.433-2.382,1.588-3,1.7-5.124,0,0,1.443,1.48.9,2.888s.794,1.624.614,2.959-1.661,2.743-1.516,3.934Z" fill="#ff4b55"/><path d="M363.888,289.467c-1.181-1.476-3.252.114-4.768,1.27-.211.162-.39.286-.577.421l-5.592-8.258a1.448,1.448,0,0,0,.27-.807,1.49,1.49,0,0,0-2.98,0,1.451,1.451,0,0,0,.27.807l-5.769,8.519h-4.085s-.169,2.539,4.291,2.847a5.144,5.144,0,0,0,2.377,1.956.944.944,0,0,0-.833.914v.6c0,.038.036.06.04.1h10.391c0-.036.04-.059.04-.1v-.6a.944.944,0,0,0-.847-.919,5.146,5.146,0,0,0,3.167-4.26c.162-.12.313-.23.489-.363,1.1-.842,2.749-2.124,3.276-1.453.131.164.118.255.113.288-.06.39-.893.95-1.562,1.4-1.053.707-2.142,1.441-2.228,2.481a.539.539,0,0,0,.49.582h.045a.537.537,0,0,0,.535-.491c.043-.527.993-1.165,1.757-1.677.973-.657,1.892-1.273,2.024-2.127A1.422,1.422,0,0,0,363.888,289.467Zm-9.559,1.951a4.131,4.131,0,0,0-1.941-2.71,1.49,1.49,0,1,0-1.342,0,4.123,4.123,0,0,0-1.941,2.71H346.04l5.353-7.9a1.456,1.456,0,0,0,.339.068,1.477,1.477,0,0,0,.339-.068l5.353,7.9Z" fill="#ffe15a"/><path d="M411.071,191.262a4.41,4.41,0,0,1-.036-2.13c.289-1.011-.455-1.938-.613-2.815-.433-2.382,1.588-3,1.7-5.124,0,0,1.443,1.48.9,2.888s.794,1.624.614,2.959-1.661,2.743-1.516,3.934Z" fill="#ff4b55"/><path d="M433.8,189c-1.181-1.476-3.252.114-4.768,1.27-.211.162-.39.286-.577.422l-5.592-8.259a1.448,1.448,0,0,0,.27-.807,1.49,1.49,0,1,0-2.98,0,1.45,1.45,0,0,0,.27.807l-5.769,8.519h-4.085s-.169,2.539,4.291,2.847a5.144,5.144,0,0,0,2.377,1.956.944.944,0,0,0-.833.914v.6c0,.038.036.06.04.1H426.83c0-.036.04-.058.04-.1v-.6a.944.944,0,0,0-.847-.919,5.146,5.146,0,0,0,3.167-4.26c.162-.12.313-.23.489-.363,1.1-.842,2.749-2.124,3.276-1.453.131.164.118.255.113.288-.06.39-.893.95-1.562,1.4-1.053.707-2.142,1.441-2.228,2.481a.538.538,0,0,0,.49.581h.045a.537.537,0,0,0,.535-.491c.043-.527.993-1.165,1.757-1.677.973-.657,1.892-1.273,2.024-2.127A1.415,1.415,0,0,0,433.8,189Zm-9.558,1.952a4.131,4.131,0,0,0-1.941-2.71,1.49,1.49,0,1,0-1.342,0,4.123,4.123,0,0,0-1.941,2.71h-3.065l5.353-7.9a1.456,1.456,0,0,0,.339.068,1.478,1.478,0,0,0,.339-.068l5.353,7.9Z" fill="#ffe15a"/><path d="M411.071,211.356a4.41,4.41,0,0,1-.036-2.13c.289-1.011-.455-1.938-.613-2.815-.433-2.382,1.588-3,1.7-5.124,0,0,1.443,1.48.9,2.888s.794,1.624.614,2.959-1.661,2.743-1.516,3.934Z" fill="#ff4b55"/><path d="M433.8,209.094c-1.181-1.476-3.252.114-4.768,1.27-.211.162-.39.286-.577.422l-5.592-8.259a1.448,1.448,0,0,0,.27-.807,1.49,1.49,0,1,0-2.98,0,1.45,1.45,0,0,0,.27.807l-5.769,8.519h-4.085s-.169,2.539,4.291,2.847a5.144,5.144,0,0,0,2.377,1.956.944.944,0,0,0-.833.914v.6c0,.038.036.06.04.1H426.83c0-.036.04-.058.04-.1v-.6a.944.944,0,0,0-.847-.919,5.146,5.146,0,0,0,3.167-4.26c.162-.12.313-.23.489-.363,1.1-.842,2.749-2.124,3.276-1.453.131.164.118.255.113.288-.06.39-.893.95-1.562,1.4-1.053.707-2.142,1.441-2.228,2.481a.539.539,0,0,0,.49.582h.045a.537.537,0,0,0,.535-.491c.043-.527.993-1.165,1.757-1.677.973-.657,1.892-1.273,2.024-2.127A1.413,1.413,0,0,0,433.8,209.094Zm-9.558,1.951a4.131,4.131,0,0,0-1.941-2.71,1.49,1.49,0,1,0-1.342,0,4.123,4.123,0,0,0-1.941,2.71h-3.065l5.353-7.9a1.456,1.456,0,0,0,.339.068,1.478,1.478,0,0,0,.339-.068l5.353,7.9Z" fill="#ffe15a"/><path d="M411.071,231.449a4.41,4.41,0,0,1-.036-2.13c.289-1.011-.455-1.938-.613-2.815-.433-2.382,1.588-3,1.7-5.124,0,0,1.443,1.48.9,2.888s.794,1.624.614,2.959-1.661,2.743-1.516,3.934Z" fill="#ff4b55"/><path d="M433.8,229.187c-1.181-1.476-3.252.114-4.768,1.27-.211.162-.39.286-.577.422l-5.592-8.259a1.448,1.448,0,0,0,.27-.807,1.49,1.49,0,1,0-2.98,0,1.45,1.45,0,0,0,.27.807l-5.769,8.519h-4.085s-.169,2.539,4.291,2.847a5.144,5.144,0,0,0,2.377,1.956.944.944,0,0,0-.833.914v.6c0,.038.036.06.04.1H426.83c0-.036.04-.058.04-.1v-.6a.944.944,0,0,0-.847-.919,5.146,5.146,0,0,0,3.167-4.26c.162-.12.313-.23.489-.363,1.1-.842,2.749-2.124,3.276-1.453.131.164.118.255.113.288-.06.39-.893.95-1.562,1.4-1.053.707-2.142,1.441-2.228,2.481a.538.538,0,0,0,.49.581h.045a.537.537,0,0,0,.535-.491c.043-.527.993-1.165,1.757-1.677.973-.657,1.892-1.273,2.024-2.127A1.414,1.414,0,0,0,433.8,229.187Zm-9.558,1.951a4.131,4.131,0,0,0-1.941-2.71,1.49,1.49,0,1,0-1.342,0,4.123,4.123,0,0,0-1.941,2.71h-3.065l5.353-7.9a1.456,1.456,0,0,0,.339.068,1.478,1.478,0,0,0,.339-.068l5.353,7.9Z" fill="#ffe15a"/><path d="M411.071,251.542a4.41,4.41,0,0,1-.036-2.13c.289-1.011-.455-1.938-.613-2.815-.433-2.382,1.588-3,1.7-5.124,0,0,1.443,1.48.9,2.888s.794,1.624.614,2.959-1.661,2.743-1.516,3.934Z" fill="#ff4b55"/><path d="M433.8,249.28c-1.181-1.476-3.252.114-4.768,1.27-.211.162-.39.286-.577.422l-5.592-8.259a1.448,1.448,0,0,0,.27-.807,1.49,1.49,0,1,0-2.98,0,1.45,1.45,0,0,0,.27.807l-5.769,8.519h-4.085s-.169,2.539,4.291,2.847a5.144,5.144,0,0,0,2.377,1.956.944.944,0,0,0-.833.914v.6c0,.038.036.06.04.1H426.83c0-.036.04-.058.04-.1v-.6a.944.944,0,0,0-.847-.919,5.146,5.146,0,0,0,3.167-4.26c.162-.12.313-.23.489-.363,1.1-.842,2.749-2.124,3.276-1.453.131.164.118.255.113.288-.06.39-.893.95-1.562,1.4-1.053.707-2.142,1.441-2.228,2.481a.539.539,0,0,0,.49.582h.045a.537.537,0,0,0,.535-.491c.043-.527.993-1.165,1.757-1.677.973-.657,1.892-1.273,2.024-2.127A1.417,1.417,0,0,0,433.8,249.28Zm-9.558,1.952a4.131,4.131,0,0,0-1.941-2.71,1.49,1.49,0,1,0-1.342,0,4.123,4.123,0,0,0-1.941,2.71h-3.065l5.353-7.9a1.456,1.456,0,0,0,.339.068,1.478,1.478,0,0,0,.339-.068l5.353,7.9Z" fill="#ffe15a"/><path d="M411.071,271.636a4.41,4.41,0,0,1-.036-2.13c.289-1.011-.455-1.938-.613-2.815-.433-2.382,1.588-3,1.7-5.124,0,0,1.443,1.48.9,2.888s.794,1.624.614,2.959-1.661,2.743-1.516,3.934Z" fill="#ff4b55"/><path d="M433.8,269.374c-1.181-1.476-3.252.114-4.768,1.27-.211.162-.39.286-.577.422l-5.592-8.259a1.448,1.448,0,0,0,.27-.807,1.49,1.49,0,0,0-2.98,0,1.451,1.451,0,0,0,.27.807l-5.769,8.519h-4.085s-.169,2.539,4.291,2.847a5.144,5.144,0,0,0,2.377,1.956.944.944,0,0,0-.833.914v.6c0,.038.036.06.04.1H426.83c0-.036.04-.058.04-.1v-.6a.944.944,0,0,0-.847-.919,5.146,5.146,0,0,0,3.167-4.26c.162-.12.313-.229.489-.363,1.1-.842,2.749-2.124,3.276-1.453.131.164.118.255.113.288-.06.39-.893.95-1.562,1.4-1.053.707-2.142,1.441-2.228,2.481a.539.539,0,0,0,.49.582h.045a.537.537,0,0,0,.535-.491c.043-.527.993-1.165,1.757-1.677.973-.657,1.892-1.273,2.024-2.127A1.414,1.414,0,0,0,433.8,269.374Zm-9.558,1.952a4.131,4.131,0,0,0-1.941-2.71,1.49,1.49,0,1,0-1.342,0,4.123,4.123,0,0,0-1.941,2.71h-3.065l5.353-7.9a1.456,1.456,0,0,0,.339.068,1.477,1.477,0,0,0,.339-.068l5.353,7.9Z" fill="#ffe15a"/><path d="M411.071,291.73a4.41,4.41,0,0,1-.036-2.13c.289-1.011-.455-1.938-.613-2.815-.433-2.382,1.588-3,1.7-5.124,0,0,1.443,1.48.9,2.888s.794,1.624.614,2.959-1.661,2.743-1.516,3.934Z" fill="#ff4b55"/><path d="M433.8,289.467c-1.181-1.476-3.252.114-4.768,1.27-.211.162-.39.286-.577.421l-5.592-8.258a1.448,1.448,0,0,0,.27-.807,1.49,1.49,0,0,0-2.98,0,1.451,1.451,0,0,0,.27.807l-5.769,8.519h-4.085s-.169,2.539,4.291,2.847a5.144,5.144,0,0,0,2.377,1.956.944.944,0,0,0-.833.914v.6c0,.038.036.06.04.1H426.83c0-.036.04-.059.04-.1v-.6a.944.944,0,0,0-.847-.919,5.146,5.146,0,0,0,3.167-4.26c.162-.12.313-.23.489-.363,1.1-.842,2.749-2.124,3.276-1.453.131.164.118.255.113.288-.06.39-.893.95-1.562,1.4-1.053.707-2.142,1.441-2.228,2.481a.539.539,0,0,0,.49.582h.045a.537.537,0,0,0,.535-.491c.043-.527.993-1.165,1.757-1.677.973-.657,1.892-1.273,2.024-2.127A1.415,1.415,0,0,0,433.8,289.467Zm-9.558,1.951a4.131,4.131,0,0,0-1.941-2.71,1.49,1.49,0,1,0-1.342,0,4.123,4.123,0,0,0-1.941,2.71h-3.065l5.353-7.9a1.456,1.456,0,0,0,.339.068,1.477,1.477,0,0,0,.339-.068l5.353,7.9Z" fill="#ffe15a"/><path d="M445.546,171.124V276.517c0,23.8-57.8,47.6-57.8,47.6s-57.8-23.8-57.8-47.6V171.124H445.546m3.4-3.4H326.554V276.517c0,11.128,10.265,23.111,30.511,35.616a227.069,227.069,0,0,0,29.39,15.125l1.294.533,1.294-.533a227.069,227.069,0,0,0,29.39-15.125c20.246-12.505,30.511-24.488,30.511-35.616V171.124l0-3.4Z" fill="#f5f5f5"/><path d="M449.437,295.262l15.412,10.63a97.574,97.574,0,0,1-154.2,0l15.412-10.63a78.909,78.909,0,0,0,123.376,0m-.674-4.6-1.978,2.468a75.508,75.508,0,0,1-118.068,0l-1.978-2.468-2.6,1.8-15.412,10.629-2.967,2.046,2.216,2.842a100.97,100.97,0,0,0,159.56,0l2.216-2.842-2.967-2.046-15.412-10.629-2.606-1.8Z" fill="#f5f5f5"/><path d="M387.75,343.663a97.607,97.607,0,0,0,77.1-37.772l-15.412-10.629a78.907,78.907,0,0,1-123.374,0l-15.412,10.629A97.6,97.6,0,0,0,387.75,343.663Z" fill="#ffe15a"/></g></svg>