<svg xmlns="http://www.w3.org/2000/svg" width="512" height="335.448" viewBox="0 0 512 335.448"><g transform="translate(0 -88.276)"><path d="M503.172,423.724H8.828A8.829,8.829,0,0,1,0,414.9V97.1a8.829,8.829,0,0,1,8.828-8.828H503.173A8.829,8.829,0,0,1,512,97.1V414.9A8.83,8.83,0,0,1,503.172,423.724Z" fill="#f5f5f5"/><path d="M512,353.1c-25.629,0-25.629-8.828-51.256-8.828s-25.629,8.828-51.256,8.828c-25.611,0-25.611-8.828-51.221-8.828-25.589,0-25.589,8.828-51.177,8.828s-25.6-8.828-51.2-8.828-25.6,8.828-51.191,8.828-25.6-8.828-51.19-8.828-25.6,8.828-51.191,8.828-25.585-8.828-51.168-8.828S25.575,353.1,0,353.1V326.62c25.571,0,25.571-8.828,51.143-8.828s25.584,8.828,51.168,8.828,25.6-8.828,51.191-8.828,25.6,8.828,51.19,8.828,25.6-8.828,51.191-8.828,25.6,8.828,51.2,8.828,25.589-8.828,51.177-8.828c25.611,0,25.611,8.828,51.221,8.828,25.629,0,25.629-8.828,51.256-8.828S486.373,326.62,512,326.62Z" fill="#41479b"/><path d="M512,247.172c-25.629,0-25.629-8.828-51.256-8.828s-25.629,8.828-51.256,8.828c-25.611,0-25.611-8.828-51.221-8.828-25.589,0-25.589,8.828-51.177,8.828s-25.6-8.828-51.2-8.828-25.6,8.828-51.191,8.828-25.6-8.828-51.19-8.828-25.6,8.828-51.191,8.828-25.585-8.828-51.168-8.828S25.575,247.172,0,247.172V220.69c25.571,0,25.571-8.828,51.143-8.828s25.584,8.828,51.168,8.828,25.6-8.828,51.191-8.828,25.6,8.828,51.19,8.828,25.6-8.828,51.191-8.828,25.6,8.828,51.2,8.828,25.589-8.828,51.177-8.828c25.611,0,25.611,8.828,51.221,8.828,25.629,0,25.629-8.828,51.256-8.828S486.373,220.69,512,220.69Z" fill="#41479b"/><path d="M512,194.207c-25.629,0-25.629-8.828-51.256-8.828s-25.629,8.828-51.256,8.828c-25.611,0-25.611-8.828-51.221-8.828-25.589,0-25.589,8.828-51.177,8.828s-25.6-8.828-51.2-8.828-25.6,8.828-51.191,8.828-25.6-8.828-51.19-8.828-25.6,8.828-51.191,8.828-25.585-8.828-51.168-8.828S25.575,194.207,0,194.207V167.724c25.571,0,25.571-8.828,51.143-8.828s25.584,8.828,51.168,8.828,25.6-8.828,51.191-8.828,25.6,8.828,51.19,8.828,25.6-8.828,51.191-8.828,25.6,8.828,51.2,8.828,25.589-8.828,51.177-8.828c25.611,0,25.611,8.828,51.221,8.828,25.629,0,25.629-8.828,51.256-8.828s25.629,8.828,51.256,8.828Z" fill="#41479b"/><path d="M512,141.242c-25.629,0-25.629-8.828-51.256-8.828s-25.629,8.828-51.256,8.828c-25.611,0-25.611-8.828-51.221-8.828-25.589,0-25.589,8.828-51.177,8.828s-25.6-8.828-51.2-8.828-25.6,8.828-51.191,8.828-25.6-8.828-51.19-8.828-25.6,8.828-51.191,8.828-25.585-8.828-51.168-8.828S25.575,141.242,0,141.242V114.759c25.571,0,25.571-8.828,51.143-8.828s25.584,8.828,51.168,8.828,25.6-8.828,51.191-8.828,25.6,8.828,51.19,8.828,25.6-8.828,51.191-8.828,25.6,8.828,51.2,8.828,25.589-8.828,51.177-8.828c25.611,0,25.611,8.828,51.221,8.828,25.629,0,25.629-8.828,51.256-8.828s25.629,8.828,51.256,8.828Z" fill="#41479b"/><path d="M512,300.138c-25.629,0-25.629-8.828-51.256-8.828s-25.629,8.828-51.256,8.828c-25.611,0-25.611-8.828-51.221-8.828-25.589,0-25.589,8.828-51.177,8.828s-25.6-8.828-51.2-8.828-25.6,8.828-51.191,8.828-25.6-8.828-51.19-8.828-25.6,8.828-51.191,8.828-25.585-8.828-51.168-8.828S25.575,300.138,0,300.138V273.655c25.571,0,25.571-8.828,51.143-8.828s25.584,8.828,51.168,8.828,25.6-8.828,51.191-8.828,25.6,8.828,51.19,8.828,25.6-8.828,51.191-8.828,25.6,8.828,51.2,8.828,25.589-8.828,51.177-8.828c25.611,0,25.611,8.828,51.221,8.828,25.629,0,25.629-8.828,51.256-8.828s25.629,8.828,51.256,8.828Z" fill="#41479b"/><path d="M512,406.069c-25.629,0-25.629-8.828-51.256-8.828s-25.629,8.828-51.256,8.828c-25.611,0-25.611-8.828-51.221-8.828-25.589,0-25.589,8.828-51.177,8.828s-25.6-8.828-51.2-8.828-25.6,8.828-51.191,8.828-25.6-8.828-51.19-8.828-25.6,8.828-51.191,8.828-25.585-8.828-51.168-8.828S25.575,406.069,0,406.069V379.586c25.571,0,25.571-8.828,51.143-8.828s25.584,8.828,51.168,8.828,25.6-8.828,51.191-8.828,25.6,8.828,51.19,8.828,25.6-8.828,51.191-8.828,25.6,8.828,51.2,8.828,25.589-8.828,51.177-8.828c25.611,0,25.611,8.828,51.221,8.828,25.629,0,25.629-8.828,51.256-8.828s25.629,8.828,51.256,8.828Z" fill="#41479b"/><path d="M247.172,256H8.828A8.829,8.829,0,0,1,0,247.172V97.1a8.829,8.829,0,0,1,8.828-8.828H247.172A8.829,8.829,0,0,1,256,97.1V247.173A8.827,8.827,0,0,1,247.172,256Z" fill="#41479b"/><path d="M247.172,88.276H231.839l-81.77,53.573V88.276H105.931v53.573L24.161,88.276H8.828A8.829,8.829,0,0,0,0,97.1v7l70.155,45.963H0v44.138H70.155L0,240.171v7A8.829,8.829,0,0,0,8.828,256H24.161l81.77-53.573V256h44.138V202.427L231.838,256h15.333A8.829,8.829,0,0,0,256,247.172v-7l-70.154-45.963H256V150.069H185.844L256,104.106v-7A8.827,8.827,0,0,0,247.172,88.276Z" fill="#f5f5f5"/><path d="M256,158.9H141.241V88.276H114.758V158.9H0v26.482H114.758V256h26.483V185.379H256Z" fill="#ff4b55"/><path d="M97.1,150.069l-92.9-60.3A8.686,8.686,0,0,0,0,97.1v.458l80.889,52.507Z" fill="#ff4b55"/><path d="M166.283,150.069,254.657,92.7a8.7,8.7,0,0,0-7.485-4.427h-1.909l-95.194,61.793Z" fill="#ff4b55"/><path d="M89.474,194.207l-88.2,57.256A8.717,8.717,0,0,0,8.828,256h1.665l95.2-61.793Z" fill="#ff4b55"/><path d="M255.859,247.867l-82.666-53.659H156.98l93.873,60.934A8.739,8.739,0,0,0,255.859,247.867Z" fill="#ff4b55"/><path d="M388.413,387.387h0a6.112,6.112,0,0,1-6.111-6.111V185.724h12.222V381.277A6.11,6.11,0,0,1,388.413,387.387Z" fill="#965032"/><path d="M473.968,210.167l-12.222-6.111-45-5.624,27.842-35.8,4.321-12.964-12.963,4.322-35.8,27.841-5.624-45-6.112-12.223L382.3,136.836l-5.624,45-35.8-27.841-12.963-4.322,4.321,12.964,27.842,35.8-45,5.624-12.222,6.111,12.222,6.111,45,5.626L332.239,257.7l-4.321,12.965,12.963-4.321,38.89-30.248,8.642-13.705,8.642,13.705,38.891,30.248,12.963,4.321L444.588,257.7,416.746,221.9l45-5.626Z" fill="#73af00"/><path d="M415.018,281.34c-5.492-5.482-17.252-3.467-23.549-1.877v-5.129a3.055,3.055,0,0,0-6.11,0v5.128c-6.3-1.594-18.055-3.609-23.549,1.878-5.238,5.235-1.443,17.858,2.161,26.634V316.1a4.065,4.065,0,0,0,4.066,4.066h40.756a4.066,4.066,0,0,0,4.066-4.066v-8.126C416.461,299.2,420.256,286.574,415.018,281.34Zm-4.321,4.321c2.333,2.335-.28,12.567-4.49,22.284H391.468v-22.17C398.329,283.832,407.727,282.684,410.7,285.661Zm-44.567,0c2.968-2.976,12.366-1.828,19.229.114v22.169H370.62C366.41,298.228,363.8,288,366.13,285.661Z" fill="#ffe15a"/></g></svg>