<?xml version="1.0" encoding="utf-8"?>
<!-- Generator: Adobe Illustrator 26.5.0, SVG Export Plug-In . SVG Version: 6.00 Build 0)  -->
<svg version="1.1" id="Layer_1" xmlns="http://www.w3.org/2000/svg" xmlns:xlink="http://www.w3.org/1999/xlink" x="0px" y="0px"
	 viewBox="0 0 511.9 335.4" style="enable-background:new 0 0 511.9 335.4;" xml:space="preserve">
<style type="text/css">
	.st0{fill:#F1F1F1;}
	.st1{fill:#41479B;}
	.st2{fill:#F5F5F5;}
	.st3{fill:#FF4B55;}
	.st4{fill:url(#SVGID_1_);stroke:#000000;stroke-width:1.054;stroke-linecap:round;stroke-linejoin:round;stroke-miterlimit:5.296;}
	.st5{fill:#FFFFFF;}
	.st6{fill:#D6F7FF;}
	.st7{fill:#02BED7;}
	.st8{fill:none;stroke:#000000;stroke-width:1.054;stroke-linecap:round;stroke-linejoin:round;stroke-miterlimit:5.296;}
	.st9{fill:#ADEFF7;stroke:#000000;stroke-width:1.054;stroke-linecap:round;stroke-linejoin:round;stroke-miterlimit:5.296;}
	.st10{fill:#FFCA18;stroke:#000000;stroke-width:1.054;stroke-linecap:round;stroke-linejoin:round;stroke-miterlimit:5.296;}
	.st11{fill:#01640B;stroke:#000000;stroke-width:1.054;stroke-linecap:round;stroke-linejoin:round;stroke-miterlimit:5.296;}
	.st12{fill:none;stroke:#000000;stroke-width:1.93;stroke-linecap:round;stroke-linejoin:round;stroke-miterlimit:5.296;}
	.st13{fill:#936100;}
	.st14{fill:none;stroke:#A5D371;stroke-width:1.93;stroke-linecap:round;stroke-linejoin:round;stroke-miterlimit:5.296;}
	.st15{fill:#008E8E;stroke:#000000;stroke-width:1.755;stroke-linecap:round;stroke-linejoin:round;stroke-miterlimit:5.296;}
	.st16{opacity:0.99;fill:url(#SVGID_00000064319977450527190370000011148410864101274532_);enable-background:new    ;}
	.st17{fill:#FFF231;stroke:#000000;stroke-width:1.054;stroke-linecap:round;stroke-linejoin:round;stroke-miterlimit:5.296;}
	.st18{fill:url(#SVGID_00000078012686418916370450000006112056836925800599_);}
	.st19{opacity:0.99;fill:url(#SVGID_00000098206763203823213820000008240273315624081301_);enable-background:new    ;}
	.st20{fill:url(#SVGID_00000159432910864952951270000001891813586381036699_);}
	.st21{fill:none;}
	.st22{fill:#CA1214;}
	.st23{fill:#FEC717;stroke:#000000;stroke-width:1.054;stroke-linecap:round;stroke-miterlimit:5.296;}
	
		.st24{fill:url(#SVGID_00000092440819457951031450000016614981717782131381_);stroke:#000000;stroke-width:1.054;stroke-linecap:round;stroke-linejoin:round;stroke-miterlimit:5.296;}
	.st25{fill:#FFFFFF;stroke:#000000;stroke-width:1.278;stroke-linecap:round;stroke-linejoin:round;stroke-miterlimit:5.296;}
	.st26{fill:none;stroke:#000000;stroke-width:1.278;stroke-linecap:round;stroke-linejoin:round;stroke-miterlimit:5.296;}
	.st27{fill:#012169;}
	.st28{fill:#DE1010;}
	.st29{fill:none;stroke:#FFE600;stroke-width:2.805;stroke-linecap:round;stroke-linejoin:round;stroke-miterlimit:5.296;}
	.st30{fill:none;stroke:#FFB400;stroke-width:1.403;stroke-linecap:round;stroke-linejoin:round;stroke-miterlimit:5.296;}
	.st31{fill:#FEF600;stroke:#694A02;stroke-width:0.701;stroke-miterlimit:5.296;}
	.st32{fill:#FFF700;stroke:#694A02;stroke-width:0.877;stroke-linejoin:round;stroke-miterlimit:5.296;}
	.st33{fill:none;stroke:#694A02;stroke-width:0.877;stroke-linecap:round;stroke-linejoin:round;stroke-miterlimit:5.296;}
	.st34{fill:#FFF700;stroke:#694A02;stroke-width:2.454;stroke-linecap:round;stroke-linejoin:round;stroke-miterlimit:5.296;}
	.st35{fill:#FFF700;stroke:#694A02;stroke-width:1.753;stroke-linecap:round;stroke-linejoin:round;stroke-miterlimit:5.296;}
	.st36{fill:#EE1D17;stroke:#000000;stroke-width:1.054;stroke-linecap:round;stroke-miterlimit:5.296;}
	.st37{fill:#FFC718;stroke:#000000;stroke-width:1.054;stroke-linecap:round;stroke-miterlimit:5.296;}
	.st38{fill:#FFC618;stroke:#000000;stroke-width:1.054;stroke-linecap:round;stroke-miterlimit:5.296;}
	.st39{fill:url(#SVGID_00000007407085307448264220000002264095866305736092_);}
	.st40{fill:none;stroke:#000000;stroke-width:1.054;stroke-linecap:round;stroke-miterlimit:5.296;}
	.st41{fill:#FEC617;stroke:#000000;stroke-width:1.054;stroke-linecap:round;stroke-miterlimit:5.296;}
	.st42{fill:#020200;stroke:#000000;stroke-width:0.703;stroke-linecap:round;stroke-miterlimit:5.296;}
	
		.st43{opacity:0.99;stroke:#000000;stroke-width:1.832;stroke-linecap:round;stroke-linejoin:round;stroke-miterlimit:5.296;enable-background:new    ;}
	.st44{fill:#F01818;stroke:#000000;stroke-width:1.054;stroke-linecap:round;stroke-miterlimit:5.296;}
	
		.st45{opacity:0.99;fill:#020200;stroke:#000000;stroke-width:1.800000e-02;stroke-linecap:round;stroke-linejoin:round;enable-background:new    ;}
	.st46{fill:none;stroke:#959595;stroke-width:1.054;stroke-linecap:round;stroke-linejoin:round;stroke-miterlimit:5.296;}
	.st47{fill:#5A5A5A;stroke:#5A5A5A;stroke-width:1.054;stroke-linecap:round;stroke-linejoin:round;stroke-miterlimit:5.296;}
	.st48{fill:none;stroke:#5A5A5A;stroke-width:1.054;stroke-linecap:round;stroke-linejoin:round;stroke-miterlimit:5.296;}
	.st49{fill:#FFFFFF;stroke:#000000;stroke-width:1.054;stroke-linecap:round;stroke-linejoin:round;stroke-miterlimit:5.296;}
	.st50{fill:#ADADAD;}
	.st51{fill:#FFF700;}
	.st52{fill:#CEEFEF;}
	.st53{fill:#A5E7E7;}
	.st54{fill:none;stroke:#000000;stroke-width:2.281;stroke-linecap:round;stroke-linejoin:round;stroke-miterlimit:5.296;}
	.st55{fill:#FFC618;}
	.st56{fill:#EFAD10;}
	.st57{fill:#008C8D;stroke:#000000;stroke-width:1.054;stroke-linecap:round;stroke-linejoin:round;stroke-miterlimit:5.296;}
	.st58{fill:#EF1818;stroke:#000000;stroke-width:1.054;stroke-linecap:round;stroke-linejoin:round;stroke-miterlimit:5.296;}
	
		.st59{opacity:0.99;stroke:#000000;stroke-width:1.827;stroke-linecap:round;stroke-linejoin:round;stroke-miterlimit:5.296;enable-background:new    ;}
	.st60{stroke:#000000;stroke-width:1.054;stroke-linecap:round;stroke-linejoin:round;stroke-miterlimit:5.296;}
	.st61{fill:#EF1818;}
	
		.st62{opacity:0.99;fill:none;stroke:#000000;stroke-width:1.827;stroke-linecap:round;stroke-linejoin:round;stroke-miterlimit:5.296;enable-background:new    ;}
	.st63{fill:#008E8E;stroke:#008E8E;stroke-width:0.352;stroke-linecap:round;stroke-linejoin:round;stroke-miterlimit:5.296;}
	.st64{fill:#003994;}
	.st65{fill:#012169;stroke:#012169;stroke-width:0.352;stroke-linecap:round;stroke-miterlimit:5.296;}
	.st66{fill:#012169;stroke:#000000;stroke-width:1.054;stroke-linecap:round;stroke-linejoin:round;stroke-miterlimit:5.296;}
	.st67{fill:#003994;stroke:#003994;stroke-width:0.352;stroke-linecap:round;stroke-miterlimit:5.296;}
	.st68{fill:#00C0DD;}
	.st69{fill:#FEF600;}
	.st70{fill:#797979;}
	.st71{fill:#940010;stroke:#000000;stroke-width:1.054;stroke-linecap:round;stroke-linejoin:round;stroke-miterlimit:5.296;}
	.st72{fill:#494949;}
	.st73{fill:#FEF600;stroke:#000000;stroke-width:1.054;stroke-linecap:round;stroke-linejoin:round;stroke-miterlimit:5.296;}
	.st74{fill:#FFC918;stroke:#000000;stroke-width:1.054;stroke-linecap:round;stroke-linejoin:round;stroke-miterlimit:5.296;}
	
		.st75{fill:url(#SVGID_00000134232746184987327140000001265388571306476457_);stroke:#000000;stroke-width:1.054;stroke-linecap:round;stroke-linejoin:round;stroke-miterlimit:5.296;}
	
		.st76{fill:url(#SVGID_00000152228093309961820500000008987390012997016996_);stroke:#000000;stroke-width:1.054;stroke-linecap:round;stroke-linejoin:round;stroke-miterlimit:5.296;}
	
		.st77{fill:url(#SVGID_00000094606058163403776280000005985897083219376305_);stroke:#000000;stroke-width:1.054;stroke-linecap:round;stroke-linejoin:round;stroke-miterlimit:5.296;}
	.st78{fill:none;stroke:#878383;stroke-width:0.701;stroke-linecap:round;stroke-linejoin:round;stroke-miterlimit:5.296;}
	.st79{fill:#EBB927;}
	.st80{fill:#FFFFFF;stroke:#847B7B;stroke-width:1.648;stroke-miterlimit:5.296;}
	.st81{fill:#FFF6C7;stroke:#514B4B;stroke-width:1.648;stroke-miterlimit:5.296;}
	.st82{fill:#FFFFFF;stroke:#847B7B;stroke-width:1.645;stroke-miterlimit:5.296;}
	.st83{stroke:#FFFFFF;stroke-width:4.300261e-02;stroke-miterlimit:10.0006;}
	.st84{stroke:#C8102E;stroke-width:2.900175e-02;stroke-miterlimit:10.0006;}
	.st85{stroke:#FFFFFF;stroke-width:7.200436e-02;stroke-miterlimit:10.0006;}
	.st86{stroke:#C8102E;stroke-width:4.300261e-02;stroke-miterlimit:10.0006;}
	.st87{fill:url(#SVGID_00000172404481793581800400000006487014531331402118_);}
	.st88{fill:url(#SVGID_00000018933684479159332450000012431141359399370666_);}
	.st89{fill:url(#SVGID_00000168083870327540771540000003886684167396056214_);}
	.st90{stroke:#000000;stroke-width:0.178;stroke-linecap:round;stroke-linejoin:round;stroke-miterlimit:5.296;}
	.st91{fill:#424242;stroke:#424242;stroke-width:0.128;stroke-linecap:round;}
	.st92{fill:#949494;stroke:#949494;stroke-width:0.128;stroke-linecap:round;}
</style>
<g transform="translate(0 -88.3)">
	<path class="st0" d="M503.2,423.7H8.8c-4.9,0-8.8-3.9-8.8-8.8V97.1c0-4.9,3.9-8.8,8.8-8.8h494.3c4.9,0,8.8,3.9,8.8,8.8v317.8
		c0.1,4.8-3.7,8.7-8.5,8.8C503.3,423.7,503.3,423.7,503.2,423.7z"/>
	<path class="st1" d="M247.2,256H8.8C4,256,0,252,0,247.2V97.1c0-4.9,3.9-8.8,8.8-8.8h238.3c4.9,0,8.8,3.9,8.8,8.8v150.1
		C255.9,252,252.1,256,247.2,256C247.2,256,247.2,256,247.2,256z"/>
	<path class="st2" d="M247.2,88.3h-15.3l-81.8,53.6V88.3H106v53.6L24.2,88.3H8.8c-4.9,0-8.8,3.9-8.8,8.8v7l70.2,46H0v44.1h70.2
		L0,240.2v7c0,4.9,3.9,8.8,8.8,8.8h15.3l81.8-53.6V256H150v-53.6l81.8,53.6h15.3c4.9,0,8.8-3.9,8.8-8.8v-7l-70.2-46H256v-44.1h-70.2
		l70.2-46v-7C256,92.2,252.1,88.3,247.2,88.3z"/>
	<path class="st3" d="M256,158.9H141.2V88.3h-26.4v70.6H0v26.5h114.8V256h26.4v-70.6H256V158.9z"/>
	<path class="st3" d="M97.1,150.1L4.2,89.8C1.6,91.3,0,94.1,0,97.1v0.5l80.9,52.5H97.1z"/>
	<path class="st3" d="M166.3,150.1l88.4-57.4c-1.5-2.7-4.4-4.4-7.5-4.4h-1.9l-95.2,61.8H166.3z"/>
	<path class="st3" d="M89.5,194.2L1.3,251.5c1.5,2.8,4.4,4.5,7.6,4.5h1.7l95.2-61.8H89.5z"/>
	<path class="st3" d="M255.9,247.9l-82.7-53.7H157l93.9,60.9C253.7,253.8,255.6,251,255.9,247.9z"/>
	<g transform="translate(444.044 -270.87)">
		
			<linearGradient id="SVGID_1_" gradientUnits="userSpaceOnUse" x1="-458.4319" y1="800.1564" x2="-458.1529" y2="799.6464" gradientTransform="matrix(15.094 0 0 -7.944 6656.4565 6673.4268)">
			<stop  offset="0" style="stop-color:#DE1010"/>
			<stop  offset="1" style="stop-color:#8E1116"/>
		</linearGradient>
		<path class="st4" d="M-45,533.7c2.4,0.9,4.9,1.1,6.6,5l8.5,0.1l-1.5-6l-7.4-2L-45,533.7z"/>
		<path class="st5" d="M35.2,630l0.1,5h-0.9l-0.1,1.3h-4.1v0.7h-1.6v0.9l-1.1-0.1v3.3l-0.8-0.1v0.9h-1.3v0.5l-4-0.3v1.1h-1.6v3.7
			L-6,646.8l-0.1,1.7l-1.3-0.1v0.8h-2.1v-1.1L-14,648v1.2h-1.1l-0.3,1.5l-7.3,0.1L-25,653l-1.1-1.2L-29,652l-0.3-0.8l-2.4-0.1l-2,2
			h-3.4l-0.7-1.1l-3,2.6h-1.3l-1.1-0.3h-2.9V654l-5.8-0.1l-0.1-27.7L35.2,630z"/>
		<path class="st6" d="M-30.3,645h0.7l0.7-0.1l2.3-0.4v7.4h-2l-0.8-0.8h-0.7L-30.3,645z"/>
		<path class="st7" d="M-42,644.6c1.4,0.3,2.7,1,3.6,2.1v5.7l-2.4,2.1H-42V644.6z"/>
		<path class="st8" d="M-37.7,643.5c6.4,3.8,7.5,0.5,12.7,0.9"/>
		<path class="st7" d="M-34.4,645l1.9-1.6l1.9,1.6v6h-0.7l-1.9,2l-1.2,0.1V645z"/>
		<path class="st7" d="M-25.6,643.8h3.2v6.8l-0.9,0.8l-1.6,1.5l-0.7-0.5L-25.6,643.8L-25.6,643.8z"/>
		<path class="st7" d="M-17.1,642h4.2v6H-14l-0.1,1.1h-0.9l-0.3,1.6h-1.7L-17.1,642z"/>
		<path class="st8" d="M-45.5,645.2c2.8-0.8,4.1-1.5,7.5,1.6"/>
		<path class="st7" d="M8.6,639.8h6.1v7H8.6V639.8z"/>
		<path class="st7" d="M19.6,633.6h4.9v8.7l-2.8-0.1l-0.1,1.1H20l-0.3,1.6L19.6,633.6z"/>
		<path class="st7" d="M27.5,631.2h3.7v5.2l-0.9-0.1l-0.1,0.8l-1.6-0.1v0.8h-1.2v-6.5H27.5z"/>
		<path class="st6" d="M-21.6,641.5h3.4v9h-3.4V641.5z"/>
		<path class="st8" d="M35.2,630v5h-0.8l-0.1,1.3h-4.1v0.7h-1.6v0.9l-0.8-0.1v3.3l-1.1-0.1v0.9h-1.3v0.5l-4-0.3v1.1h-1.6v3.7
			L-6,646.8l-0.1,1.7l-1.3-0.1v0.8h-2.1v-1.1L-14,648v1.2h-1.1l-0.3,1.5l-7.3,0.1L-25,653l-1.1-1.2L-29,652l-0.3-0.8l-2.4-0.1l-2,2
			h-3.4l-0.7-1.1l-3,2.6h-1.3l-1.1-0.3h-2.9V654h-5.8l-0.1-27.7L35.2,630z"/>
		<path class="st9" d="M-22.4,607.6l3.6,0.1l0.3,1.1l2.3-0.3l0.8,2.4l1.7,1.1h4l0.1,1.1l3.8-0.1l0.1,0.9h2.1l0.1,1.5l1.5,0.5h3.6
			l19.3,5.8l0.8,1.7h3l0.7,0.8h2.4l1.2,0.9l0.9,0.5l1.5-0.1l0.1,1.2l2-0.5l0.4,1.1l1.2-0.1v3.7l-4.2,0.1l-0.1,0.7h-2.4v0.8H27v2.3
			l-5.2,0.1l0.1,0.5h-2v2.6l-0.8-0.3v2.3l-4.1-0.1l-0.1,1.1h-4.6l-58.9-6.6C-58.9,616.4-31.9,616.1-22.4,607.6z"/>
		<path class="st5" d="M-43.4,623.6c25.2-0.3,31.2,0.1,39.5,11.7l-45.7-4.2l-0.7-5.6L-43.4,623.6z"/>
		<path class="st6" d="M-20.3,615c-1.2,0.1-7.9,5.3-6.2,5.2c11.1-0.3,17.1-1.3,15.2-0.1c-9.3,6.4,4.6,3.6,6.9,4.8
			c-2.4,1.5-0.7,1.6,2.5,2.8l14,8.2c4.4,0.3,6.1-1.9,6.5-4c2.9,1.7,2.4,0.4,10.9-2.6c1.7-0.7-3.7-4.2-4.9-1.6s-2.1-3-7.4,0.1
			l-2.9-6.9l-13.5-4.8h-2.9C-9,621.4-6.4,614.1-20.3,615z"/>
		<g transform="translate(-158.039 34.664)">
			<path class="st10" d="M27.3,603.3c0.9,2.9,0.4,5.4,6.9,5.2c1.3,1.7,1.6,4.8,4.2,4.6H43c1.2,1.6,2.5,3.2,4.2,3.8c1-0.3,1.7-1,2-2
				l0.5,1.1l20-0.1l4.5,0.8c4.1,2.9,8.2,2.8,12.4,2.3c1.7-0.2,3.4-0.3,5.2-0.1c2.1,1.7,4.4,2.4,7.3,0.3c2.1,1.5,4.5,1.3,7-0.1
				l0.4-2.3l1.3-1.3v-2.1l-5.4-6.1L27.3,603.3z"/>
			<path class="st8" d="M27.3,603.3c0.9,2.9,0.4,5.4,6.9,5.2c1.3,1.7,1.6,4.8,4.2,4.6H43c1.2,1.6,2.5,3.2,4.2,3.8c1-0.3,1.7-1,2-2
				l0.5,1.1l20-0.1l4.5,0.8c4.1,2.9,8.2,2.8,12.4,2.3c1.7-0.2,3.4-0.3,5.2-0.1c2.1,1.7,4.4,2.4,7.3,0.3c2.1,1.5,4.5,1.3,7-0.1
				l0.4-2.3l1.3-1.3v-2.1l-5.4-6.1L27.3,603.3z"/>
			<path class="st11" d="M80.9,575.2l-10.3-0.3l-16.7,5l0.5,4.2c-1.5-1.3-3.4-2-5.4-2c1,0.8,1.5,2.2,1.1,3.4c-2.1-2-4.2-1.9-6.4-1.9
				c2,1.3,3,2.5,3.4,3.8c-2.2-1.1-4.7-1.7-7.2-1.6c1.1,0.9,2.1,1.6,2.4,3c-1.3-0.7-2.7-1.2-4.2-1.2l0.5,3.2l-9.9,5.2
				c-1.9,0.3-3.7,0.5-5.2,1.7c2,2.5,4.1,4.6,7.8,4.2c-0.4,0.8-1.6,1.3-4.1,1.3c1.9,1.9,4.4,3,9.1,2.1c0,0.5-0.8,1.1-1.7,1.5
				c4.1,2.3,5.8,0.9,7.7-0.1l-0.9,2.5l10.5-0.5l24.9,1.9l4.9,2.1h13.1c0.6,0.7,1.6,0.7,2.2,0.2c0.1-0.1,0.1-0.1,0.2-0.2
				c1.7-0.6,3.4-0.9,5.2-0.8c1.8,0.3,3.6,0.7,5.3,1.3v-21.1L80.9,575.2z"/>
		</g>
		<path class="st12" d="M5.4,626.4c16.7,0.5,2,20.3,1.3,23.3c-12.4-0.8-21.3-11.3-57.5-10.9"/>
		<g transform="translate(-158.039 34.664)">
			<path class="st13" d="M35.5,607.2h3.3v5.8c-1,0.2-2-0.2-2.6-0.9l-0.5-1.1v-3.8L35.5,607.2z"/>
			<path class="st13" d="M42,609.1h2.8v6.1l-1.9-2.3H42L42,609.1L42,609.1z"/>
			<path class="st13" d="M49.3,609.2l5.3-0.1v7h-4.6l-0.7-0.9V609.2z"/>
			<path class="st13" d="M67.5,609.9l11.7,0.8v8.2c-1.7-0.5-3.4-1.3-4.9-2.3l-3.2-0.5l-3.6-0.3L67.5,609.9z"/>
			<path class="st13" d="M85.8,612.4h4.5v6.5h-2l-2.5,0.4V612.4z"/>
			<path class="st13" d="M96.4,611.7h3.7v7.7l-0.9-0.4l-2.8,1.3L96.4,611.7z"/>
			<path class="st13" d="M102.5,611.6h5.3v3.6l-1.5,1.9l-0.1,1.9l-3.7,1.2L102.5,611.6z"/>
		</g>
		<g transform="translate(-182.572 -17.789)">
			<path class="st12" d="M131.6,656.7c-22.2,0.3-29.8,11.9-52.3,11.9c-14.2-15.9-9.4-22-0.3-22.1"/>
			<path class="st12" d="M68.3,647.1c0.1,1.1,1.2,0.8,1.3,2"/>
			<path class="st12" d="M69.1,645.8c1.7,0.4,4.4-1.1,4.8,1.7"/>
			<path class="st12" d="M72.3,642c1.6-0.3,2.8,1.7,4.9,1.7"/>
			<path class="st12" d="M75.5,639.8c2-0.4,3.4,0.7,4.5,2.4c-0.4-1.1-0.4-2.4-1.3-3"/>
			<path class="st12" d="M82.9,637.7c1.4,0.8,2.3,2.2,2.6,3.8"/>
			<path class="st12" d="M88.2,637.4c1.1,0.9,0.8,2.5,0.9,4"/>
			<path class="st12" d="M93.9,639.8l1.7,1.6"/>
			<path class="st12" d="M90.2,648c0.7,0,3.8-0.4,3.8,0.8"/>
			<path class="st12" d="M93.3,645.6c1.7-0.1,3.4-0.1,3.7,1.7"/>
			<path class="st12" d="M99.2,644.3c0.9,0.1,1.6,0.7,1.7,1.6"/>
			<path class="st12" d="M104.2,644c-0.1,0.8,0.5,1.1,1.7,0.9"/>
			<path class="st12" d="M108.7,645c0.9,0.2,1.6,0.8,1.9,1.6"/>
			<path class="st12" d="M111.9,642.6c0,0.9,0.7,1.1,1.6,1.1"/>
			<path class="st14" d="M58.8,654c2.3-0.1,4.6,0,6.9,0.3"/>
			<path class="st14" d="M66.3,650.9c0.1,1.2,1.6,1.3,1.5,2.3"/>
			<path class="st14" d="M70.8,643.5c0,0.4-0.5,0.8,2.5,1.2c1.1,0.1,2.1,0.8,2.6,1.7"/>
			<path class="st14" d="M73.9,640.6c1.6-0.1,4.5,1.5,4.6,2.4"/>
			<path class="st14" d="M80.6,637.9c1.6,0.8,0.8,3.2,1.6,4.9"/>
			<path class="st14" d="M85.8,636.9c2.5,2.3,1.3,6.5,0.7,6"/>
			<path class="st14" d="M90.3,638.1c0.9,1.6,0.7,2.8,0.8,4.1"/>
			<path class="st14" d="M90,644.2c1.9,0.1,0.8,1.1,2.6,0.9"/>
			<path class="st14" d="M87.1,645.8c0.1,0.9,2,0.8,3,0.8"/>
			<path class="st14" d="M91.5,650.8c1.3,0.2,2.6,0.3,4,0.3"/>
			<path class="st14" d="M96,648.7c1.3,0.1,3.4-0.1,3.4,0.7"/>
			<path class="st14" d="M99.8,646.4c-0.1,1.3,2,1.3,2.4,2.4"/>
			<path class="st14" d="M103.5,646.4c0,1.3,0.9-0.3,1.6,0.9"/>
			<path class="st14" d="M94.5,638.9l1.2,1.1"/>
			<path class="st14" d="M97.1,636.9c1.2,2,2.8,3.8,4.5,5.3"/>
			<path class="st14" d="M102.9,633.8c1.5,2.1,3.3,6.6,1.3,6.8"/>
			<path class="st14" d="M108.8,634.4c0.3,0.5,0.1,4-0.1,4"/>
			<path class="st14" d="M114.9,641.4c0.8-0.2,1.3-0.8,1.5-1.6"/>
			<path class="st14" d="M114.8,642.8c-0.1,0.9,0.7,1.1,1.7,0.9"/>
			<path class="st14" d="M112.7,638.1c0.1,2-0.9,1.9-0.8,3.4"/>
			<path class="st12" d="M98.4,636.9c4.9,0.3,4.2-2,5.3,0.7"/>
			<path class="st12" d="M106.1,632.2c1.3-0.3,0.7,2.4,0.8,3.7c-0.6-1.1-1.4-2.1-2.4-2.9"/>
			<path class="st12" d="M61.8,658.3c0.8-1.1,2.9-0.4,3-1.3"/>
			<path class="st12" d="M65.5,659.9c0.9,0.1,1.7,0,1.6-0.8"/>
			<path class="st12" d="M112.2,662.3c0.9-0.1,1.9-0.5,2,0.8v-3.6"/>
			<path class="st12" d="M115.6,661.4c1.2-0.1,2.5,0.9,3.3,0.8c0.5-0.1,0.8-0.9,0.5-2.4"/>
			<path class="st12" d="M121.7,659.9c1.6,1.2,2.3,0.4,3,1.6"/>
			<path class="st12" d="M128.2,659.9c0.9-0.3,1.3,0,0.9,1.1"/>
			<path class="st12" d="M129.6,658.9l1.1,0.3"/>
			<path class="st14" d="M114.8,662.2c0.7-0.1,0.3,0.9,1.9,1.2"/>
			<path class="st14" d="M120.1,660.2c0.9,0.3,0.4,2.9,1.5,2.8"/>
			<path class="st14" d="M125.3,659.9c0,1.1-0.3,2.6,0.4,3"/>
			<path class="st14" d="M129.8,661.2c0,0.8-0.3,1.9,0.7,1.7"/>
		</g>
		<path class="st15" d="M13.1,621.7c-2.1,1.4-4,3.1-5.7,5l3.2,2.4c2-2.4,3.4-4.4,5.8-7.2c0.1-0.1-0.9-0.1-0.7-0.4l-5.6,7.2l2.5,2.1
			l7.3-10.1c-1.3,3.8-5.4,7.7-0.9,11.4c-0.5-6,2.4-6.6,2.6-11.4L13.1,621.7z"/>
		<g transform="translate(-159.867 -109.309)">
			
				<linearGradient id="SVGID_00000027568426974294850050000008723085341985881007_" gradientUnits="userSpaceOnUse" x1="-329.672" y1="885.6879" x2="-328.866" y2="885.6879" gradientTransform="matrix(11.9302 0 0 -11.9323 3440.1565 11312.708)">
				<stop  offset="0" style="stop-color:#5A2118"/>
				<stop  offset="1" style="stop-color:#BB1E1E"/>
			</linearGradient>
			
				<path style="opacity:0.99;fill:url(#SVGID_00000027568426974294850050000008723085341985881007_);enable-background:new    ;" d="
				M62.5,744.1c0.2,3.3-2.4,6.1-5.7,6.2c-3.3,0.2-6.1-2.4-6.2-5.7c-0.2-3.3,2.4-6.1,5.7-6.2c0.1,0,0.2,0,0.3,0
				C59.7,738.4,62.4,740.9,62.5,744.1C62.5,744.1,62.5,744.1,62.5,744.1z"/>
			<path class="st17" d="M56.4,739.6c7.2,0.1,3.8,6.4-2.3,4.4l2.3,6l6.2-0.7c1.6-1.2,5-12.6-6.2-11.9"/>
			
				<linearGradient id="SVGID_00000163052129755933804240000018349745123872382081_" gradientUnits="userSpaceOnUse" x1="-295.6782" y1="896.785" x2="-294.7702" y2="896.2161" gradientTransform="matrix(61.2511 0 0 -22.907 17449.9297 21116.625)">
				<stop  offset="0" style="stop-color:#FFF231"/>
				<stop  offset="1" style="stop-color:#FFFFFF"/>
			</linearGradient>
			<path style="fill:url(#SVGID_00000163052129755933804240000018349745123872382081_);" d="M56.4,737.4c0.5,1.1,0.5,1.6,0,2.3
				c-7.3,0.1-7.3,9,0.1,9.9c6,0.7,28.5-12.2,51.9-12.8c0.1,2.6,0.3,6.5,0.5,11c-22.2,0.3-29.8,11.9-52.3,11.9
				C42.5,743.6,47.3,737.5,56.4,737.4L56.4,737.4z"/>
			
				<linearGradient id="SVGID_00000103222792183957982310000010397350975006480297_" gradientUnits="userSpaceOnUse" x1="-326.6546" y1="885.3387" x2="-325.8426" y2="885.3387" gradientTransform="matrix(12.712 0 0 -11.387 3770.1799 10822.9355)">
				<stop  offset="0" style="stop-color:#5D241B"/>
				<stop  offset="1" style="stop-color:#BA1D1D"/>
			</linearGradient>
			
				<path style="opacity:0.99;fill:url(#SVGID_00000103222792183957982310000010397350975006480297_);enable-background:new    ;" d="
				M171.2,741.6c0,3.2-2.8,5.7-6.4,5.7s-6.4-2.5-6.4-5.7s2.8-5.7,6.4-5.7S171.2,738.6,171.2,741.6z"/>
			<path class="st17" d="M165.1,737.4c-5.7-0.3-8.5,5.4,1.5,6.5l-1.5,4.6l-8.2-3.3c-1.5-6-1.1-10.6,8.2-10.1"/>
			
				<linearGradient id="SVGID_00000047052182755192667730000005965664220297419189_" gradientUnits="userSpaceOnUse" x1="-285.3684" y1="888.8899" x2="-284.8264" y2="888.9929" gradientTransform="matrix(64.742 0 0 -23.3 18502.3164 21466.1797)">
				<stop  offset="0" style="stop-color:#FFFFFF"/>
				<stop  offset="1" style="stop-color:#FFF231"/>
			</linearGradient>
			<path style="fill:url(#SVGID_00000047052182755192667730000005965664220297419189_);" d="M165.1,737.4c-0.6-0.6-0.6-1.6,0-2.3
				c16.7,0.5,2,20.3,1.3,23.3c-12.4-0.8-21.4-11.4-57.7-10.9c-0.1-4.1-0.1-5.7-0.4-11c31-0.8,55.7,10.3,57.9,10.3
				C169.9,747,172.9,737.5,165.1,737.4z"/>
			<path class="st21" d="M57.3,759.5c12.4,0.3,34-11.7,45.8-13.4"/>
			<path class="st22" d="M59.2,757.5v-6.4l2.3-0.1c0.4,0,0.7,0,1.1,0.1c0.2,0.1,0.4,0.3,0.5,0.5c0.1,0.3,0.2,0.6,0.3,0.9
				c0,0.4-0.2,0.8-0.4,1.2c-0.3,0.3-0.6,0.6-1.1,0.7c0.1,0.1,0.3,0.1,0.4,0.3c0.2,0.2,0.4,0.5,0.5,0.8l0.9,1.7h-0.9l-0.7-1.3
				c-0.2-0.3-0.3-0.5-0.5-0.8c-0.1-0.1-0.3-0.4-0.4-0.4c-0.1,0-0.2-0.1-0.3-0.1h-1.2v2.8L59.2,757.5z M59.8,753.9l1.5-0.1
				c0.3,0,0.5-0.1,0.8-0.1l0.4-0.4c0.1-0.2,0.2-0.3,0.1-0.5c0-0.3-0.1-0.6-0.3-0.8c-0.2-0.2-0.5-0.3-0.8-0.3l-1.6,0.1L59.8,753.9z
				 M64.3,757.1l-0.8-6.4l3.7-0.8l0.1,0.8l-3,0.7l0.3,2l2.8-0.7l0.1,0.7l-2.8,0.7l0.3,2.1l3.2-0.7l0.1,0.8L64.3,757.1z M68.6,753.9
				l0.7-0.3c0.1,0.2,0.2,0.5,0.4,0.7c0.2,0.2,0.4,0.3,0.7,0.3h0.8c0.3-0.1,0.5-0.1,0.7-0.4c0.2-0.2,0.3-0.3,0.4-0.5
				c0-0.1,0.1-0.4,0-0.5c0-0.2-0.1-0.4-0.3-0.5c-0.1-0.1-0.3-0.1-0.5-0.3h-0.9c-0.4,0-0.7,0-1.1-0.1c-0.2-0.1-0.5-0.2-0.7-0.4
				c-0.2-0.2-0.3-0.4-0.3-0.7v-0.9c0.1-0.3,0.3-0.6,0.5-0.8c0.3-0.3,0.6-0.4,0.9-0.5c0.3-0.1,0.7-0.2,1.1-0.1c0.3,0,0.5,0.3,0.8,0.4
				c0.3,0.2,0.4,0.6,0.4,0.9l-0.7,0.3c-0.1-0.3-0.3-0.6-0.5-0.8c-0.3-0.1-0.6-0.1-0.9,0c-0.3,0.1-0.6,0.3-0.8,0.5
				c-0.2,0.2-0.2,0.5-0.1,0.8c0,0.2,0.1,0.4,0.3,0.5c0.1,0.1,0.5,0.1,1.1,0.1h1.2l0.8,0.4l0.4,0.8v1.1c-0.2,0.7-0.7,1.3-1.5,1.5
				c-0.4,0.1-0.8,0.2-1.2,0.1c-0.4,0-0.7-0.2-0.9-0.5C68.8,754.8,68.6,754.4,68.6,753.9L68.6,753.9z M73.9,754.3l-1.3-6.1l3.6-1.3
				l0.1,0.7l-2.9,1.1l0.4,1.9l2.8-1.1l0.1,0.7l-2.8,1.1l0.4,2.1l3-1.1l0.1,0.7L73.9,754.3z M78,752.9l0.5-6.9l0.7-0.3l3.4,5.3
				l-0.8,0.3l-1.1-1.6l-2.1,0.8l-0.1,2.1L78,752.9z M78.9,749.8l1.7-0.7l-0.9-1.5c-0.3-0.4-0.5-0.8-0.7-1.2v1.3L78.9,749.8z
				 M83.1,750.9l-1.3-6.1l2.3-0.8c0.3-0.1,0.7-0.2,1.1-0.3c0.3,0,0.5,0.2,0.7,0.4c0.2,0.2,0.4,0.5,0.4,0.8c0.1,0.4,0,0.8-0.1,1.2
				c-0.2,0.4-0.5,0.7-0.9,0.9c0.1,0,0.4,0.1,0.5,0.1c0.3,0.1,0.5,0.4,0.7,0.7l1.2,1.3l-0.8,0.3l-0.9-1.1l-0.7-0.7
				c-0.1-0.1-0.3-0.3-0.4-0.3h-0.4c-0.1,0-0.3,0-0.4,0.1l-0.8,0.3l0.5,2.8L83.1,750.9z M83.1,747.2l1.5-0.5c0.2-0.1,0.5-0.2,0.7-0.4
				c0.2-0.1,0.3-0.3,0.3-0.5v-0.7c0-0.5-0.5-0.8-0.9-0.8c-0.1,0-0.3,0.1-0.4,0.1l-1.6,0.5L83.1,747.2z M91.5,745.7h0.7
				c0,0.6-0.1,1.2-0.5,1.7c-0.4,0.4-0.7,0.8-1.2,0.9c-0.5,0.1-1,0.1-1.5,0c-0.4-0.2-0.7-0.5-0.9-0.9c-0.3-0.5-0.5-1-0.5-1.6
				c-0.1-0.6-0.1-1.2,0-1.7c0.1-0.5,0.3-0.9,0.7-1.3c0.3-0.4,0.7-0.7,1.2-0.8c0.4-0.2,0.9-0.1,1.3,0.1c0.4,0.3,0.7,0.6,0.9,1.1
				l-0.7,0.4c-0.1-0.3-0.3-0.6-0.7-0.8c-0.3-0.1-0.6-0.1-0.9,0c-0.4,0.1-0.7,0.4-0.9,0.7c-0.3,0.3-0.4,0.7-0.4,1.1v1.2
				c0.1,0.5,0.3,0.9,0.4,1.3s0.4,0.5,0.8,0.7c0.3,0.1,0.6,0.1,0.9,0c0.4-0.1,0.7-0.4,0.9-0.7C91.4,746.7,91.5,746.2,91.5,745.7
				L91.5,745.7z M93.3,747.4l-0.5-6.4l0.7-0.1l0.3,2.6l2.6-0.4l-0.3-2.6l0.7-0.1l0.5,6.4l-0.7,0.1l-0.3-3l-2.6,0.4l0.3,3L93.3,747.4
				z"/>
			<path class="st22" d="M101.3,746.1l2.5-6.4h0.8l2.6,6.4h-0.9l-0.8-2h-2.6l-0.7,2H101.3z M103.1,743.5h2.1l-0.7-1.7
				c-0.2-0.4-0.4-0.9-0.4-1.3c-0.1,0.4-0.2,0.8-0.4,1.2L103.1,743.5z M107.9,746.1v-6.4h0.9l3.3,5v-5h0.8v6.4H112l-3.3-5v5H107.9z
				 M114.4,746.1v-6.4h2.3c0.4,0,0.8,0,1.2,0.1c0.3,0.1,0.6,0.2,0.9,0.4c0.3,0.3,0.6,0.7,0.8,1.1c0.2,0.4,0.3,1,0.3,1.5
				c0,0.4,0,0.9-0.1,1.3c-0.1,0.3-0.2,0.6-0.4,0.9c-0.1,0.3-0.4,0.4-0.5,0.5c-0.2,0.1-0.5,0.2-0.8,0.3c-0.3,0.1-0.7,0.2-1.1,0.1
				h-2.5L114.4,746.1z M115.3,745.3h1.3c0.4,0,0.7,0,1.1-0.1c0.3-0.1,0.4-0.1,0.5-0.4c0.2-0.2,0.4-0.5,0.5-0.8
				c0.1-0.4,0.2-0.8,0.1-1.2c0-0.5-0.1-1.1-0.3-1.6c-0.3-0.4-0.5-0.7-0.8-0.7c-0.3-0.1-0.7-0.2-1.1-0.1h-1.3v4.9L115.3,745.3z"/>
			<path class="st8" d="M56.5,739.6c-7.3,0.1-7.3,9,0.1,9.9c6,0.7,28.5-12.2,51.9-12.8 M109.1,747.7c-22.2,0.3-29.8,11.9-52.3,11.9
				c-14.2-15.9-9.4-22-0.3-22.1"/>
			<path class="st8" d="M165,735.1c16.7,0.5,2,20.3,1.3,23.3c-12.4-0.8-21.6-11.3-57.9-10.7 M107.9,736.7c31-0.8,56,10.3,58,10.3
				c3.8,0,6.8-9.4-1.1-9.5"/>
			<path class="st22" d="M122.3,745.9l0.3-6.2l1.9,0.1c0.3,0,0.6,0.1,0.9,0.1c0.3,0.1,0.6,0.3,0.8,0.5c0.3,0.3,0.5,0.7,0.7,1.1
				c0.1,0.5,0.2,1,0.1,1.5c0,0.4-0.1,0.8-0.3,1.2c-0.1,0.3-0.2,0.6-0.4,0.9c-0.1,0.3-0.4,0.4-0.5,0.5c-0.2,0.2-0.4,0.3-0.7,0.3
				c-0.3,0.1-0.6,0.1-0.9,0L122.3,745.9z M123.1,745.2l1.2,0.1h0.9c0.2,0,0.4-0.1,0.5-0.3c0.2-0.2,0.4-0.5,0.4-0.8
				c0.1-0.4,0.2-0.8,0.3-1.2c0-0.7,0-1.2-0.3-1.5c-0.1-0.3-0.3-0.6-0.7-0.8c-0.1-0.1-0.5-0.1-0.9-0.1l-1.2-0.1L123.1,745.2z
				 M128,746.4l0.5-6.2l0.8,0.1l-0.5,6.2L128,746.4z M130,744.5h0.7c0,0.3,0,0.5,0.1,0.8c0.1,0.2,0.3,0.4,0.5,0.5
				c0.2,0.1,0.5,0.2,0.8,0.3h0.8c0.2,0,0.4-0.1,0.5-0.3c0.1-0.1,0.1-0.3,0.3-0.5c0-0.2,0-0.4-0.1-0.5l-0.4-0.4
				c-0.3-0.2-0.6-0.3-0.9-0.4l-1.1-0.5c-0.2-0.2-0.4-0.4-0.5-0.7c-0.1-0.3-0.2-0.5-0.1-0.8c0-0.3,0.2-0.6,0.4-0.8
				c0.2-0.2,0.5-0.4,0.8-0.5c0.3-0.1,0.7-0.1,1.1,0c0.4,0,0.8,0.1,1.1,0.4c0.3,0.2,0.6,0.5,0.7,0.8c0.1,0.3,0.2,0.7,0.1,1.1H134
				c0-0.3-0.1-0.6-0.3-0.9c-0.2-0.3-0.6-0.4-0.9-0.4c-0.4-0.1-0.7,0-1.1,0.1c-0.2,0.1-0.4,0.4-0.4,0.7c0,0.3,0,0.4,0.1,0.5
				c0.3,0.3,0.7,0.5,1.1,0.7c0.5,0.3,0.9,0.4,1.2,0.5c0.3,0.2,0.5,0.5,0.7,0.8c0.1,0.3,0.2,0.6,0.1,0.9c0,0.3-0.2,0.7-0.4,0.9
				c-0.2,0.2-0.5,0.4-0.8,0.5c-0.3,0.1-0.7,0.2-1.1,0.1c-0.4-0.1-0.8-0.2-1.2-0.4c-0.3-0.2-0.5-0.5-0.7-0.8
				C130.1,745.7,130,745.1,130,744.5L130,744.5z M139.6,746.1l0.7,0.4c-0.2,0.5-0.6,1-1.1,1.3c-0.5,0.3-1.1,0.3-1.6,0.1
				c-0.5-0.1-0.9-0.3-1.3-0.7c-0.3-0.4-0.5-0.8-0.7-1.3c-0.1-0.6-0.1-1.2,0-1.7c0.1-0.6,0.3-1.1,0.7-1.6c0.3-0.4,0.6-0.7,1.1-0.9
				c0.5-0.1,1-0.2,1.5-0.1c0.5,0.1,1,0.4,1.3,0.8c0.3,0.4,0.5,0.9,0.5,1.5h-0.8c0-0.4-0.1-0.8-0.4-1.1c-0.2-0.2-0.5-0.4-0.8-0.5
				c-0.4-0.1-0.7,0-1.1,0.1c-0.3,0.2-0.6,0.5-0.8,0.8c-0.2,0.4-0.3,0.8-0.4,1.2c-0.1,0.5-0.1,1,0,1.5c0.1,0.4,0.3,0.8,0.5,1.1
				c0.3,0.3,0.6,0.4,0.9,0.5c0.4,0.1,0.7,0,1.1-0.1C139,747,139.3,746.7,139.6,746.1L139.6,746.1z M141.1,745.7
				c0.1-0.8,0.6-1.6,1.2-2.1c0.6-0.4,1.4-0.5,2.1-0.3c0.5,0.1,1,0.4,1.3,0.8c0.3,0.4,0.6,0.8,0.7,1.3c0.1,0.6,0.1,1.2,0,1.7
				c-0.1,0.6-0.3,1.1-0.7,1.6c-0.3,0.4-0.7,0.7-1.2,0.8c-0.5,0.1-1,0.1-1.5,0c-0.5-0.1-1-0.4-1.3-0.8c-0.3-0.4-0.6-0.8-0.7-1.3
				C141,746.9,141,746.3,141.1,745.7L141.1,745.7z M141.9,746c-0.2,0.6-0.1,1.3,0.1,1.9c0.2,0.5,0.7,0.8,1.2,0.9
				c0.5,0.1,1,0,1.5-0.3c0.5-0.4,0.8-1,0.9-1.6c0.1-0.4,0.1-0.9,0-1.3c-0.1-0.4-0.3-0.8-0.5-1.1c-0.2-0.3-0.6-0.5-0.9-0.5
				c-0.5-0.2-1.1-0.1-1.5,0.3C142.3,744.7,142,745.3,141.9,746z M148.2,750.9l-0.7-6.6l0.8,0.3l0.3,4.8v1.1c0.1-0.3,0.4-0.7,0.5-0.9
				l2.5-3.8l0.7,0.3l-3.6,5.3L148.2,750.9z M151.6,751.9l1.6-6l3.8,1.2l-0.1,0.7l-3.2-1.1l-0.5,1.9l2.9,0.9l-0.1,0.7l-2.9-0.9
				l-0.5,2l3.3,1.1l-0.1,0.7L151.6,751.9z M156.6,753.5l1.5-6l2.4,0.8c0.4,0.1,0.8,0.3,1.1,0.5c0.3,0.2,0.4,0.5,0.4,0.8
				c0.1,0.3,0.1,0.6,0,0.9c-0.1,0.4-0.3,0.8-0.7,0.9c-0.4,0.3-0.9,0.3-1.3,0.1l0.4,0.4c0.1,0.3,0.3,0.7,0.4,0.9l0.5,2l-0.9-0.3
				l-0.4-1.5c-0.1-0.3-0.2-0.6-0.3-0.9c-0.1-0.3-0.1-0.4-0.3-0.5l-0.3-0.3c-0.1,0-0.3-0.1-0.4-0.1l-0.8-0.3l-0.7,2.6L156.6,753.5z
				 M158.2,750.5l1.6,0.5c0.3,0.1,0.5,0.2,0.8,0.1c0.4-0.1,0.7-0.4,0.8-0.8c0.1-0.3,0-0.6-0.1-0.8c-0.2-0.3-0.5-0.5-0.8-0.5
				l-1.7-0.5L158.2,750.5z M163.5,755.8l0.7-2.5l-1.3-4.1l0.9,0.3l0.7,2.1c0.2,0.4,0.2,0.8,0.3,1.2c0.3-0.3,0.6-0.6,0.8-0.9l1.5-1.5
				l0.8,0.3l-2.9,2.8l-0.7,2.5L163.5,755.8z"/>
		</g>
		<path class="st23" d="M-78.6,536.5l0.5,8.9l-15.2,10.9l-1.9-13.2c4.6-4.1,9.1-8.6,15.1-10.1"/>
		
			<linearGradient id="SVGID_00000101817361633794430270000002398389149479748791_" gradientUnits="userSpaceOnUse" x1="-462.9477" y1="769.8836" x2="-462.7567" y2="769.9956" gradientTransform="matrix(15.095 0 0 -37.339 6683.3838 29736.7832)">
			<stop  offset="0" style="stop-color:#000000"/>
			<stop  offset="1" style="stop-color:#FFFFFF"/>
		</linearGradient>
		
			<path style="fill:url(#SVGID_00000101817361633794430270000002398389149479748791_);stroke:#000000;stroke-width:1.054;stroke-linecap:round;stroke-linejoin:round;stroke-miterlimit:5.296;" d="
			M-18.5,559.7c6.8-0.8,11.4-7.2,15.1-16l-5.3,32.2c-3,1.6-5.8,3.4-8.7,5.2L-18.5,559.7z"/>
		<g transform="translate(-157.377 34.333)">
			<path class="st25" d="M105.7,593.6c-4.6-0.3-36.5-13.4-36.3-45v-45h72.6v45C142.2,580.2,110.3,593.2,105.7,593.6z"/>
			<path class="st26" d="M105.7,593.6c-4.6-0.3-36.5-13.4-36.3-45v-45h72.6v45C142.2,580.2,110.3,593.2,105.7,593.6z"/>
			<g transform="translate(149.661 9.109)">
				<path class="st27" d="M-7.9,537.2c0.2-2.2,0.2-4.4,0-6.6c-6.2,4.8-8.6-6.5-15.4-0.1c-4.5,4.2-6-1.3-9-0.8c-3,0.5-2.6,7,0.3,6.6
					c3-0.4,4.2,5,8.7,0.8C-16.4,530.6-14.2,541.9-7.9,537.2z"/>
				<path class="st27" d="M-80.2,529.6c-0.1,2.2,0,4.3,0.1,6.5c6.2-4.8,8.2,6.9,15,0.5c4.5-4.2,6,1.3,9,0.8c3-0.4,2.6-7-0.3-6.6
					c-3,0.4-4.2-5-8.7-0.8C-71.9,536.5-74,524.9-80.2,529.6L-80.2,529.6z"/>
				<path class="st27" d="M-7.7,518c0.1,2.3,0,2.8,0,6.4c-6.2,4.8-8.2-6.8-15.1-0.8c-1.3,0.9-2.8,2.8-4.2,1.1
					c-1.5-1.9-0.8,0.8-1.3-4.9c-0.7-5.7,0.8,1.6,5.6-2.5C-16,511.2-14,522.7-7.7,518z"/>
				<path class="st27" d="M-80.1,522.9c-0.1-2.3,0-2.8,0-6.4c6.2-4.8,8.2,6.8,15.1,0.8c1.3-0.9,2.8-2.8,4.2-1.1
					c1.5,1.9,0.8-0.8,1.3,4.9c0.7,5.7-0.8-1.6-5.6,2.5C-71.8,529.6-73.8,518.1-80.1,522.9z"/>
				<path class="st27" d="M-7.9,504.5c0.1,2.1,0.1,4.2,0,6.2c-6.2,4.8-8.2-6.8-15.1-0.8c-6.9,6-6.9-0.3,0-6.2S-14.2,509.2-7.9,504.5
					z"/>
				<path class="st27" d="M-80.1,509.8c-0.1-1.6,0-4.5,0-6.2c6.2-4.8,8.5,6.6,15.2,0.8c6.9-6,6.9,0.3,0,6.2
					C-71.8,516.5-73.9,505-80.1,509.8z"/>
			</g>
			<path class="st28" d="M105.7,503.4H81.4l24.2,85.8l24.4-85.7h-24.4V503.4z"/>
			<g transform="translate(149.661 9.109)">
				<path class="st29" d="M-38.5,521.2l6.5,7.5"/>
				<path class="st29" d="M-36.7,518.1l8.1,5"/>
				<path class="st29" d="M-35.7,515.2l8.2,2.3"/>
				<path class="st29" d="M-35.5,512l10.1-1.5"/>
				<path class="st29" d="M-36.1,509l12.6-6"/>
				<path class="st30" d="M-36.9,520.1l3.4,2.5"/>
				<path class="st30" d="M-35.6,516.7l3.8,1.7"/>
				<path class="st30" d="M-35,513.5h3.8"/>
				<path class="st30" d="M-35.4,510.4l4.4-1.2"/>
				<path class="st29" d="M-37.1,507l16.3-11.7"/>
				<path class="st29" d="M-38.4,504.5l6.6-7.9"/>
				<path class="st29" d="M-40.1,501.7l3-6"/>
				<path class="st30" d="M-38.5,502.4l2.5-3.8"/>
				<path class="st30" d="M-36.8,505l3.4-2.9"/>
				<path class="st30" d="M-41.6,499.7l1.3-4.4"/>
				<path class="st29" d="M-49,520.1l-6.9,8.6"/>
				<path class="st29" d="M-50.4,517.6l-8.6,5.2"/>
				<path class="st29" d="M-51.4,515.1l-9,2.4"/>
				<path class="st29" d="M-52.2,512l-10.3-1.5"/>
				<path class="st29" d="M-51.6,509.1l-13-6.1"/>
				<path class="st29" d="M-50.3,507.1l-16.3-11.7"/>
				<path class="st30" d="M-50.4,519.2l-4.2,3.3"/>
				<path class="st30" d="M-51.8,516.4l-4.5,2"/>
				<path class="st30" d="M-52.4,513.5h-4.5"/>
				<path class="st30" d="M-52.7,510.3l-4.4-1.2"/>
				<path class="st29" d="M-49,504.9l-7.4-7.1"/>
			</g>
			<g transform="translate(162.24 -6.118)">
				<path class="st31" d="M-53.9,539.3c-0.4-2.3,6.6-7.2,1.6-14c-1.2,2.9,1.3,4.9-1.7,9c2.6-6.1-0.1-4.9,1.6-9.7
					c0.8-3.3-0.6-6.7-3.4-8.5c0.7,6.8-4.5,5.2-3.8,12.2c-0.4-1.8-0.6-3.7-0.5-5.6c-5.8,9.5,0.3,8.2,0.8,16.6c0.4,0,0.5,0.3,0.7-0.3
					c0.1-2.9-0.5-4.1-1.5-8.2c0.8,2.6,2.6,5,2.4,8.5c0.4,0.1,0.9,0,1.3-0.1c0.1-5.4-3.2-8.1-0.7-13.4c-1.3,5.6,1.6,8.6,1.5,13.4h0.5
					c0-2.8,0.1-4.4,0.9-5.2c-0.2,1.7-0.3,3.4-0.3,5.2L-53.9,539.3z"/>
				<g transform="translate(-12.579 15.227)">
					<path class="st32" d="M-44,563.8h-2c-0.7-12.3-0.9-24.8-4.6-37.1h13c-3.7,12.3-3.8,24.8-4.6,37.1H-44z"/>
					<path class="st32" d="M-44,526.7h7.2c-1.5-3-4.2-3.4-7.2-3.4c-3,0-5.7,0.3-7.2,3.4H-44z"/>
					<path class="st32" d="M-44,571.9c2.3-2.4,2.9-5.4,1.7-5.6h-3.4C-46.9,566.4-46.2,569.5-44,571.9z"/>
					<path class="st32" d="M-44,566.8c2.5,0,3.7-1.7,2.4-2.8c-0.4-0.4-2-0.3-2.4-0.3s-2-0.1-2.4,0.3
						C-47.7,565.1-46.5,566.8-44,566.8z"/>
					<path class="st33" d="M-47.3,528.2c0.7,4.2,1,8.5,0.9,12.7"/>
					<path class="st33" d="M-40.5,528.2c-0.7,4.2-1,8.5-0.9,12.7"/>
				</g>
				<path class="st34" d="M-56.5,543.5v30.1"/>
				<path class="st35" d="M-62.6,540.8h1.1"/>
				<path class="st35" d="M-51.5,540.8h1.1"/>
			</g>
			<path class="st25" d="M105.7,593.6c-4.6-0.3-36.5-13.4-36.3-45v-45h72.6v45C142.2,580.2,110.3,593.2,105.7,593.6z"/>
			<g transform="translate(149.661 9.109)">
				<path class="st27" d="M-7.9,537.2c0.2-2.2,0.2-4.4,0-6.6c-6.2,4.8-8.6-6.5-15.4-0.1c-4.5,4.2-6-1.3-9-0.8c-3,0.5-2.6,7,0.3,6.6
					c3-0.4,4.2,5,8.7,0.8C-16.4,530.6-14.2,541.9-7.9,537.2z"/>
				<path class="st27" d="M-80.2,529.6c-0.1,2.2,0,4.3,0.1,6.5c6.2-4.8,8.2,6.9,15,0.5c4.5-4.2,6,1.3,9,0.8c3-0.4,2.6-7-0.3-6.6
					c-3,0.4-4.2-5-8.7-0.8C-71.9,536.5-74,524.9-80.2,529.6L-80.2,529.6z"/>
				<path class="st27" d="M-7.7,518c0.1,2.3,0,2.8,0,6.4c-6.2,4.8-8.2-6.8-15.1-0.8c-1.3,0.9-2.8,2.8-4.2,1.1
					c-1.5-1.9-0.8,0.8-1.3-4.9c-0.7-5.7,0.8,1.6,5.6-2.5C-16,511.2-14,522.7-7.7,518z"/>
				<path class="st27" d="M-80.1,522.9c-0.1-2.3,0-2.8,0-6.4c6.2-4.8,8.2,6.8,15.1,0.8c1.3-0.9,2.8-2.8,4.2-1.1
					c1.5,1.9,0.8-0.8,1.3,4.9c0.7,5.7-0.8-1.6-5.6,2.5C-71.8,529.6-73.8,518.1-80.1,522.9z"/>
				<path class="st27" d="M-7.9,504.5c0.1,2.1,0.1,4.2,0,6.2c-6.2,4.8-8.2-6.8-15.1-0.8c-6.9,6-6.9-0.3,0-6.2S-14.2,509.2-7.9,504.5
					z"/>
				<path class="st27" d="M-80.1,509.8c-0.1-1.6,0-4.5,0-6.2c6.2-4.8,8.5,6.6,15.2,0.8c6.9-6,6.9,0.3,0,6.2
					C-71.8,516.5-73.9,505-80.1,509.8z"/>
			</g>
			<path class="st28" d="M105.7,503.4H81.4l24.2,85.8l24.4-85.7h-24.4V503.4z"/>
			<path class="st26" d="M105.7,593.6c-4.6-0.3-36.5-13.4-36.3-45v-45h72.6v45C142.2,580.2,110.3,593.2,105.7,593.6z"/>
			<g transform="translate(149.661 9.109)">
				<path class="st29" d="M-38.5,521.2l6.5,7.5"/>
				<path class="st29" d="M-36.7,518.1l8.1,5"/>
				<path class="st29" d="M-35.7,515.2l8.2,2.3"/>
				<path class="st29" d="M-35.5,512l10.1-1.5"/>
				<path class="st29" d="M-36.1,509l12.6-6"/>
				<path class="st30" d="M-36.9,520.1l3.4,2.5"/>
				<path class="st30" d="M-35.6,516.7l3.8,1.7"/>
				<path class="st30" d="M-35,513.5h3.8"/>
				<path class="st30" d="M-35.4,510.4l4.4-1.2"/>
				<path class="st29" d="M-37.1,507l16.3-11.7"/>
				<path class="st29" d="M-38.4,504.5l6.6-7.9"/>
				<path class="st29" d="M-40.1,501.7l3-6"/>
				<path class="st30" d="M-38.5,502.4l2.5-3.8"/>
				<path class="st30" d="M-36.8,505l3.4-2.9"/>
				<path class="st30" d="M-41.6,499.7l1.3-4.4"/>
				<path class="st29" d="M-49,520.1l-6.9,8.6"/>
				<path class="st29" d="M-50.4,517.6l-8.6,5.2"/>
				<path class="st29" d="M-51.4,515.1l-9,2.4"/>
				<path class="st29" d="M-52.2,512l-10.3-1.5"/>
				<path class="st29" d="M-51.6,509.1l-13-6.1"/>
				<path class="st29" d="M-50.3,507.1l-16.3-11.7"/>
				<path class="st30" d="M-50.4,519.2l-4.2,3.3"/>
				<path class="st30" d="M-51.8,516.4l-4.5,2"/>
				<path class="st30" d="M-52.4,513.5h-4.5"/>
				<path class="st30" d="M-52.7,510.3l-4.4-1.2"/>
				<path class="st29" d="M-49,504.9l-7.4-7.1"/>
			</g>
			<g transform="translate(162.24 -6.118)">
				<path class="st31" d="M-53.9,539.3c-0.4-2.3,6.6-7.2,1.6-14c-1.2,2.9,1.3,4.9-1.7,9c2.6-6.1-0.1-4.9,1.6-9.7
					c0.8-3.3-0.6-6.7-3.4-8.5c0.7,6.8-4.5,5.2-3.8,12.2c-0.4-1.8-0.6-3.7-0.5-5.6c-5.8,9.5,0.3,8.2,0.8,16.6c0.4,0,0.5,0.3,0.7-0.3
					c0.1-2.9-0.5-4.1-1.5-8.2c0.8,2.6,2.6,5,2.4,8.5c0.4,0.1,0.9,0,1.3-0.1c0.1-5.4-3.2-8.1-0.7-13.4c-1.3,5.6,1.6,8.6,1.5,13.4h0.5
					c0-2.8,0.1-4.4,0.9-5.2c-0.2,1.7-0.3,3.4-0.3,5.2L-53.9,539.3z"/>
				<g transform="translate(-12.579 15.227)">
					<path class="st32" d="M-44,563.8h-2c-0.7-12.3-0.9-24.8-4.6-37.1h13c-3.7,12.3-3.8,24.8-4.6,37.1H-44z"/>
					<path class="st32" d="M-44,526.7h7.2c-1.5-3-4.2-3.4-7.2-3.4c-3,0-5.7,0.3-7.2,3.4H-44z"/>
					<path class="st32" d="M-44,571.9c2.3-2.4,2.9-5.4,1.7-5.6h-3.4C-46.9,566.4-46.2,569.5-44,571.9z"/>
					<path class="st32" d="M-44,566.8c2.5,0,3.7-1.7,2.4-2.8c-0.4-0.4-2-0.3-2.4-0.3s-2-0.1-2.4,0.3
						C-47.7,565.1-46.5,566.8-44,566.8z"/>
					<path class="st33" d="M-47.3,528.2c0.7,4.2,1,8.5,0.9,12.7"/>
					<path class="st33" d="M-40.5,528.2c-0.7,4.2-1,8.5-0.9,12.7"/>
				</g>
				<path class="st34" d="M-56.5,543.5v30.1"/>
				<path class="st35" d="M-62.6,540.8h1.1"/>
				<path class="st35" d="M-51.5,540.8h1.1"/>
			</g>
		</g>
		<g transform="translate(-204.106 -23.407)">
			<path class="st36" d="M76.4,655c1.5,0.4,2.8,1.9,3.6,4.6c0.4-2.4,1.2-4.5,0-6.9C77.3,652,76.7,653.4,76.4,655L76.4,655z"/>
			<path class="st36" d="M80.4,652.8c0.1-0.1,2.3,2.6,2.8,6.2c2-1.3,1.5-4,0.8-6.9C82.7,652.2,81.5,652.4,80.4,652.8z"/>
			<path class="st36" d="M84.3,652c0.8,1.9,2.1,3.8,2.5,6.2c1.1-2.1,1.2-4.6,0.4-6.9L84.3,652z"/>
			<path class="st36" d="M111.6,604.3c0.1,1.3,1.2,3.8-3.8,3.2c3.8,2.4,6.5,2.8,6.4-2.4L111.6,604.3z"/>
			<path class="st36" d="M114.9,606.4c0.4,2.9,0,4.9-1.3,6.4c2.9-0.4,4.9-1.7,4.4-5.7L114.9,606.4z"/>
			<path class="st36" d="M119,607.2l-0.8,3c2.3-0.3,2.1-1.3,3.2-2L119,607.2z"/>
			<path class="st37" d="M70.6,575.6c-20.5-5.6-1.2-17.9-8.2-22.2C74.8,559,60.6,562.9,70.6,575.6z"/>
			<path class="st38" d="M79.2,646.9c3.6,0.3,8.6-2.4,8.6,5.2c-1.1-0.4-2.4,0-3.2,0.8C84.2,648.4,81.2,648.8,79.2,646.9z"/>
		</g>
		<g transform="translate(-158.039 34.664)">
			<path class="st36" d="M73.6,576.2c1,1.2,1.9,2.6,2.6,4c-0.3-2,0-4.1-1.2-4.9L73.6,576.2z"/>
			<path class="st36" d="M66.6,580.6c2,0.4,3.3,2.1,4.5,3.8c0.3-2.6-0.2-5.2-1.6-7.4C67.8,577.6,66.5,578.5,66.6,580.6z"/>
			<path class="st36" d="M71,578.2l2.9,4c0.6-1.8,0.4-3.8-0.5-5.4L71,578.2z"/>
			<path class="st37" d="M45.3,546.1c6.1,0.3,4.1-1.3,8.5-0.5c7,2,7.7,6.8,6,13.5c-4.1,10.2-3,8.5,1.9,10.2c3.7,1.2,4.1,4.2,8.7,2.3
				c2.1-0.9,4.8,2,5.4,4.4c-0.7,0.1-1.2,0.6-1.5,1.2c-1.1-2.3-2.5-2.4-3.7-3.2c1.6,0.8,3.4,1.5,3.6,3.8c-1.1-0.1-2.1,0.5-2.5,1.5
				c-2.4-3,0-4.8-7.4-4c1.2,0.3,6.6-1.7,6.1,3.2c-2.4-0.4-3.2,0.7-2.9,2.9c-1.3,1.9-7.9,1.2-5.2-3.2c-0.9,1.7-1.3,3.7-3.6,4.8
				c-3.2-3-1.7-3.6-0.9-6.2c-2.3,7.5-8.3,3.2-4.6-1.6c-3.8,5.6-7.2,3.7-9,0.3c6.6-0.7,3.6-2.5,7-2.3c-4.5,0.5-7.2-5.6-2.3-9
				c-0.1-4.9,0.7-6.1-3.8-4.9l-4.2-15.5L45.3,546.1z"/>
			
				<linearGradient id="SVGID_00000039822747941229362900000016674385427982798222_" gradientUnits="userSpaceOnUse" x1="-303.6526" y1="736.0234" x2="-302.9026" y2="736.3033" gradientTransform="matrix(11.253 0 0 -14.1511 3259.7168 11064.709)">
				<stop  offset="0" style="stop-color:#E5AA12"/>
				<stop  offset="1" style="stop-color:#FFC718;stop-opacity:0"/>
			</linearGradient>
			<path style="fill:url(#SVGID_00000039822747941229362900000016674385427982798222_);" d="M47.3,546.4c1.1-0.3,5.6-1.6,6-0.8
				l-4.5,13.9c-2.3-1.1-5.6-0.8-6.8-1.9C43.8,555.2,42.6,546.3,47.3,546.4L47.3,546.4z"/>
			<path class="st40" d="M51.5,566.4c-3.3,0.8-0.9,4.6,2.4,3.8c-0.8,5.7,2,2.6,5.8,4.5"/>
			<path class="st40" d="M45.3,546.1c6.1,0.3,4.1-1.3,8.5-0.5c7,2,7.7,6.8,6,13.5c-4.1,10.2-3,8.5,1.9,10.2c3.7,1.2,4.1,4.2,8.7,2.3
				c2.1-0.9,4.8,2,5.4,4.4c-0.7,0.1-1.2,0.6-1.5,1.2c-1.1-2.3-2.5-2.4-3.7-3.2c1.6,0.8,3.4,1.5,3.6,3.8c-1.1-0.1-2.1,0.5-2.5,1.5
				c-2.4-3,0-4.8-7.4-4c1.2,0.3,6.6-1.7,6.1,3.2c-2.4-0.4-3.2,0.7-2.9,2.9c-1.3,1.9-7.9,1.2-5.2-3.2c-0.9,1.7-1.3,3.7-3.6,4.8
				c-3.2-3-1.7-3.6-0.9-6.2c-2.3,7.5-8.3,3.2-4.6-1.6c-3.8,5.6-7.2,3.7-9,0.3c6.6-0.7,3.6-2.5,7-2.3c-4.5,0.5-7.2-5.6-2.3-9
				c-0.1-4.9,0.7-6.1-3.8-4.9l-4.2-15.5L45.3,546.1z"/>
			<path class="st37" d="M50.2,555.3c-0.7-11.1,8.6-15.2,8.6-9.9c0,4.2-6,2.4-6.4,17.6"/>
		</g>
		<g transform="translate(-204.106 -23.407)">
			<path class="st37" d="M84.6,576.1c1.7,10.1-2.3,22.1-8.5,30.5c-8.9,11.8-19.2-1.6-8.1-3c5.2-0.7,7.8-0.8,9-3.7
				c-3.7-0.8-7.6-0.7-11.3,0.1c9.8-1.9,12.7-2.6,14.2-7.5c-3.9,0.3-7.8,1.4-11.4,3c3.6-5,6.5,2,15-10.7c-3.7-5.7-7,2.4-10.5,4
				c7.3-11.7,1.7-19.1-6.1-24.1c-0.7,4.2,0,7.4,2.5,10.1c-8.7-5.3-13.1,8.2-2.9,8.2c-3.4-7,8.7-5.4-0.1,5.8
				c-5.4,6.9-14.7,23.2-5.4,27.5c-4,0.3-7.4,4.1-5.2,10.9c7.8-11.4,5.2-2.3,9-11.7c-3.6,7.7-0.1,8.5,3.7,8.6
				c-4.1-9.3,5.3-1.7,11.4-17.5c-6.1,12.7-2.8,7.4-3.7,16.6c-5.4,3.4-10.1,1.3-9.3,8.2c-2.4,1.6-7.4,5.7-2.8,9.7
				c1.7-4.2,4-5,6.5-4.5c-8.1-0.9-8.2,11.7-2.8,11.4c0.5-2,1.6-3.9,3-5.4c-4.9,6.1-2.8,9,1.3,9.5c0.1-2,1-3.8,2.4-5.2
				c-3.6,4.2-2.9,6.8,2.6,9c0.1-1.9,1.2-2.8,3.3-2c0.5-2.3-1.3-3.4-3-4.9c1.5,1.3,3.3,2.3,3.4,4.8c1.1-0.5,2.3-0.7,3.4-0.4
				c0-6.9-6.9-4.2-6.8-15c0.1-13,13.1-7.4,14.8-23.2c0.4-4-3.2-4.8-3-11c-0.1,7.8,6.1,7.9,3.2-2c-1.7-5.7,9.1-6.8,12-17.6
				l-17.5-16.9L84.6,576.1z"/>
			<path class="st40" d="M100.6,584.6c-2.3,4.4-6.5,8.3-12,11.7"/>
			<path class="st23" d="M107.4,569.2c8.7,14.7,20.5,38.5,13.2,39.9c-3.3,0.7-0.9-4.4-1.1-7c-0.1,1.2-0.3,2.4-0.5,3.6
				c-0.7,3.4-3.7,3.3-4.5,0.5c-0.1-0.4,1.6-7.4,1.6-7.4s-1.2,5-2,6.4c-0.9,1.6-4.2-0.5-4.8-2.5c-0.5-2.3,3.6-6.6,3.6-6.6
				c-2.1,2.5-3.7,4.6-5.8,1.7c-3.2-4.1,2-5.3,4.1-7.7c-3.2,2.5-5.6,5.3-7.9,2.4c-2.6-3.2,2.5-4.5,4.9-6.8l-6,4.4
				c-0.7-2.1,0.1-3.3,1.3-4.5l-7.5,0.1c0.4-3.2-2.3-5.6-3.6-8.3l0.5-12.4l12,0.8L107.4,569.2z"/>
			<path class="st41" d="M100.6,543.9c-0.3,3.7,3.4,2.6,3.4,0.9c0-1.5-0.7-2.6-3.7-2.1c-2.6,0.5-2.1-4.1-6.8-3.3
				c-5.7,0.5-6.6-2.1-8.1-4c-1.9,1.5-2,3.3,0.5,5.4c-1.5-0.3-2.7-1.1-3.6-2.4c-2.8,2.5-2,6,1.7,5.6c-2.8-0.3-5.3,0.3-5.8,0.7
				c-3.8,2.6-0.9,12.8,6.2,8.3c-6.5,2.3-4.2,7.4-10.1,9.8c1.9,5.4,4.9,1.1,7.7,0.5c-6.4,4.2-3.2,6.9-3.2,12c2.8-1.1,3.3-4.2,4.5-6.8
				c-0.5,4.5-0.7,9.9-2.5,11c6.6,3,8.7-4.8,6.8-9c2.8,6.1,2,9.7-0.7,12c12,2.8,7.3-7.8,7.4-14.4c1.2,9.7,9.1,6.9,7.3,14.6
				c4.9-1.1,9.9-7,0.1-15.2c4.2,2.5,7.4,6.1,10.3,10.9c2.3-13.1-4.5-17.1-11.8-18.1v-7.9C105,545.7,100.1,547.5,100.6,543.9
				L100.6,543.9z"/>
			<path class="st40" d="M83.8,619.3c5.3,2.3-0.8,5.7-4.4,9"/>
			<path class="st40" d="M76.3,623c1.2,8.3-6.9,0.1-4.6,10.6"/>
			<path class="st40" d="M67.8,636.6c1-0.4,2.1-0.5,3.2-0.3c-0.4,6.8-0.1,6,4.6,8.2"/>
			<path class="st40" d="M70.8,636.4c0.6-0.3,1-0.9,0.8-1.6"/>
			<path class="st40" d="M84.3,600.6c1.9,0,0.5,2.1,1.3,2.9"/>
			<path class="st42" d="M85,549C80.9,544.1,78.7,553.2,85,549z"/>
			<path class="st40" d="M88.2,542.6c2.3,3.4,3.2-1.2,6.1-1.2c3.3,0,2.3,3.3-0.3,3.2c-2.3,0.1,1.9-2-1.6,0.1"/>
			<path class="st40" d="M100.8,560.2c-0.8,0.5-1.9,0.2-2.4-0.6c0-0.1-0.1-0.1-0.1-0.2c-0.3-0.5-0.4-0.9-0.5-1.5
				c0.3,0.7,0.7,1.7,0.4,1.5c-0.4-0.1-1.6,0.3-2.4-0.1c-0.4-0.4-0.8-0.9-1.1-1.5c0.4,0.7,0.9,1.5,0.9,1.5c-0.5,0-1.7,0.4-2.3-0.1
				c-0.4-0.4-0.4-0.7-0.8-1.5c0.1,0.4,0.2,0.8,0.4,1.2c0.5,1.3-5.7,0-5.2-1.7c0.1-0.5,2.1-1.2,2.9-1.9c-0.4,0.5-2.5,1.2-2.8,1.7
				c-0.7,0.4-0.3-2.8,0.4-3.4c1-0.3,1.9-0.5,2.9-0.5c-0.8,0.1-3,0.8-3,0.4c0.1-0.7,0.4-2.4,0.5-3.2c0.1-0.4,0.8-0.3,1.5-0.4
				c-0.7-0.1-1.2,0.4-1.3,0.1c-0.1-1.1-0.3-4.5-1.7-5.6"/>
			<path class="st43" d="M100,553.3c0,2.8-2.3,2.6-3.8,2.6s-2.9-0.4-2.9-1.9s2.1-4.1,4.5-4.1C99.3,550,100,551.3,100,553.3z"/>
			<path class="st44" d="M97.3,552.5c3.6,0,2.4,1.9,2.8,0.5c-0.8,2.3,5.2-0.5,5.7-3c0.8,6-5.6,6.6-5.8,4.9c-1.2,0.8-2.1,1.1-3,0.5
				S96.4,552.5,97.3,552.5L97.3,552.5z"/>
			<path class="st45" d="M96,543.1c0,0.7-0.8,1.3-1.9,1.6s-2,0-2-0.5c0-0.7,0.8-1.3,1.9-1.6S96,542.6,96,543.1z"/>
		</g>
		<path class="st5" d="M-63.6,527.8c-1.3,3-2.9,6-6.5,7.4c0.1-2.5-0.4-5.3,1.5-7.4c-1.6,2.7-4.6,4.3-7.7,4.2
			c-0.1-2.5,1.2-4.6,3.6-6.2c-2.1,0.9-3.3,2-5,0.8c0.4-2,2.5-2.4,4-3.3c-2.3,1.2-4.8,1.9-7.4,1.9l-8.6,6.1l-5.4-1.7
			c-2.4-6.5,2.9-7.3,7.9-9c-6.2-1.9-16.4-1.7-18.7-5.8c1-0.4,2.1-0.5,3.2-0.1c-4.5-3.6-4.2-5.4-3.2-6.9c3.2-0.1,5.8,2.6,8.3,5.6
			c-1.6-2.6-4.9-4.8-2.4-8.5c2.9,0.7,4.6,5.7,7,8.5c-3.3-5.7-5.3-12-12.2-15.6l2-4.5l5.7,0.4c7.5,4.9,7.2,11.7,10.2,17.6
			c-1.1-5.8-1.6-11.7,2.8-13.9c1.1,1.3,0.9,3.2,0.9,4.9c0.5-3.6,2.9-4.9,5.7-5.7c2.3,4.6,0,7.1-2.3,9.7c2-1.5,3.7-4,6.1-2.1
			c0,2.1-2,3.2-3.8,4.5l-3,1.6l0.1,3.4l3.4,1.7l7.9,3L-63.6,527.8z"/>
		<path class="st6" d="M-100,500.1c-9.3-5.8,5.7-9.7,4.4-1.1C-95.7,500.2-98.8,500.8-100,500.1z"/>
		<path class="st6" d="M-97.2,503c-1.1-1.5,2-2.6,2.4-2C-94.3,501.6-96.5,503.7-97.2,503z"/>
		<path class="st6" d="M-101.2,510.8c-1.5,1.3-0.4,6.6,1.1,5.6C-98.4,515.2-100.1,509.9-101.2,510.8z"/>
		<path class="st6" d="M-89.9,511.9c-6.6,2.6-5.8,5.8,1.1,1.9C-87.5,512.9-79.3,507.8-89.9,511.9z"/>
		<path class="st6" d="M-82.8,515.7c-1.5-0.4-3.2-2.5-4-2.6c-0.5,0-4,2.6-3.8,3.2c0,0.4,3,0.4,4.1,3.2
			C-84.1,518.2-84.1,517.1-82.8,515.7z"/>
		<path class="st6" d="M-83.4,518.5c-2.9,1.7-4.5,3.3-4.2,4c0.3,0.8,3.3-1.3,4.8,0.4C-80.2,520.2-77.9,517.4-83.4,518.5z"/>
		<path class="st6" d="M-71.8,518.4l8.1,9.3c-1.9,2.3-6.9,4.1-4-1.1c-0.9,2.5-6.5,1.6-2-3.7C-74.1,528.7-75.5,522.1-71.8,518.4z"/>
		<path class="st8" d="M-69.2,524.1L-70,525"/>
		<path class="st8" d="M-96.5,513.9l1.1,0.8"/>
		<path class="st8" d="M-101.6,515.1l1.3,0.5"/>
		<path class="st8" d="M-83.4,503.3l-0.1,0.9"/>
		<path class="st8" d="M-83.8,505.3l-0.3,1.3"/>
		<path class="st46" d="M-84.2,507.7l-0.1,1.1"/>
		<path class="st46" d="M-80.2,506.5c-0.4,0.6-0.6,1.2-0.7,1.9"/>
		<path class="st47" d="M-85.3,513.6l-1.2-1.5"/>
		<path class="st47" d="M-97.5,516.3c-0.4,0.1-0.7,0.3-1.1-0.4"/>
		<path class="st47" d="M-95.9,516.9l1.2,0.3"/>
		<path class="st47" d="M-90.3,516.5l0.9,0.8"/>
		<path class="st47" d="M-88.2,518.8c0.6,0.1,1.1,0.4,1.5,0.9"/>
		<path class="st6" d="M-98.6,509c-0.1-2.6-1.2-2.3-1.1-0.1C-99.6,512.9-98.5,510.3-98.6,509z"/>
		<path class="st8" d="M-63.6,527.8c-1.3,3-2.9,6-6.5,7.4c0.1-2.5-0.4-5.3,1.5-7.4c-1.6,2.7-4.6,4.3-7.7,4.2
			c-0.1-2.5,1.2-4.6,3.6-6.2c-2.1,0.9-3.3,2-5,0.8c0.4-2,2.5-2.4,4-3.3c-2.3,1.2-4.8,1.9-7.4,1.9l-8.6,6.1l-5.4-1.7
			c-2.4-6.5,2.9-7.3,7.9-9c-6.2-1.9-16.4-1.7-18.7-5.8c1-0.4,2.1-0.5,3.2-0.1c-4.5-3.6-4.2-5.4-3.2-6.9c3.2-0.1,5.8,2.6,8.3,5.6
			c-1.6-2.6-4.9-4.8-2.4-8.5c2.9,0.7,4.6,5.7,7,8.5c-3.3-5.7-5.3-12-12.2-15.6l2-4.5l5.7,0.5c5,1.9,7.2,11.5,10.2,17.5
			c-1.1-5.8-1.6-11.7,2.8-13.9c1.1,1.3,0.9,3.2,0.9,4.9c0.5-3.6,2.9-4.9,5.7-5.7c2.3,4.6,0,7.1-2.3,9.7c2-1.5,3.7-4,6.1-2.1
			c0,2.1-2,3.2-3.8,4.5l-3,1.6l0.1,3.4l3.4,1.7l7.9,3L-63.6,527.8z"/>
		<g transform="translate(-441.878 0.264)">
			<path class="st36" d="M367.2,539.7l2.1,3.2v-4.2L367.2,539.7z"/>
			<path class="st36" d="M370.3,539.3c0,1.3,0.3,2.6,0.9,3.7c0.4-1.5,0.5-3,0.8-4.5L370.3,539.3z"/>
			<path class="st36" d="M373.1,538.5c-0.1,1.1-0.1,2.1,0,3.2c1.7-0.9,2-2,1.6-2.5L373.1,538.5z"/>
			<path class="st23" d="M361.7,532.5c3.3-0.8,7.1-0.5,11.7,1.3c2.4,1.1,1.7,3.4,1.5,5.6c-0.5-0.5-1.3-0.5-1.9,0
				c0-1.9-1.2-3.4-2-5.2c0.5,1.9,1.9,3.6,1.1,5.4c-0.4-0.5-1.1-0.6-1.7-0.2c-0.1,0.1-0.1,0.1-0.2,0.2c-0.4-3.4-2.1-3.8-3.6-4.8
				c1.9,1.2,3.3,2.5,2.4,4.5c-0.8-0.1-1.6-0.1-1.6,0.8c-1.3-1.9-2.6-3.7-4.4-4.2"/>
		</g>
		<path class="st5" d="M-27,514.3c8.1-4.8-3-7.3-2.3-12.7c1.6,0.1,3.3,0,4.5,1.7c-2.6-2.6-3.7-5.3-1.2-8.2c2,0.1,3.7,1.1,4.8,4.2
			c0.4-1.6,1.3-2.8,3-2.6c4.4,3,1.7,6.2,0.5,11.9c2.6-9,4-19.7,16.8-17.7c-5.6,5.4-8.3,12.4-12.3,18.8c3.8-2.9,7.3-6.4,13.1-6.4
			c0.4,1.5,0.5,2.9-3.3,4.9c2.8-0.7,5.7-2.5,8.3,0.7c-2.3,2.9-4.9,2.8-7.5,2.8c2.6,0.3,4.4,1.6,4.6,4.8c-8.6-2.5-10.2,0.4-21.8,0.5
			c2.8,1.2,6.9,2.8,8.3,6.2v4.4l-1.9,3l-10.7-3.3c-2.1-0.6-4.1-1.6-5.8-3c0.1,3.4-1.5,5.7-2.8,8.1l-10.6-9.5l7.3-6.9L-27,514.3z"/>
		<path class="st6" d="M-28.6,516.7c1.5,0.4,3,1,4.4,1.6c-0.5-3,3-0.7,4.2,0.7c0.5,0.7,1.7,0.1,1.6,0.9c-0.1,1.5-4.5,1.2-6.6,1.7
			C-26.3,521.8-33.8,516.9-28.6,516.7L-28.6,516.7z"/>
		<path class="st6" d="M-17.3,507.4c-9-2.8-3,5.2-8.3,7.9c3.4-0.5,4.9,1.7,8.9-1.9C-14.8,511.8-21.6,513.7-17.3,507.4z"/>
		<path class="st6" d="M-3,508c0.9-1.5,1.2-3.4-1.2-2.8c-2.9,0.8-1.1,2.3,0.1,3.2c-2.1,2.5,0.9,4.9,1.7,5.7c0.7,0.5-0.1-2.5-0.1-2.5
			C-1.2,510.3-0.4,508-3,508z"/>
		<path class="st6" d="M-10.5,497.1c-0.7-0.7,2-2,4.1-3c7.5-4,1.9-3.6-1.7-2.1c-1.4,0.6-2.7,1.6-3.6,2.9c-2.3,2.6-2.1,5.3,0.1,5
			C-7.7,499.6-8.9,498.9-10.5,497.1L-10.5,497.1z"/>
		<path class="st8" d="M-20.8,500.8l0.1,1.2"/>
		<path class="st8" d="M-20.7,503v1.2"/>
		<path class="st8" d="M-24.1,504.3l0.4,1.3"/>
		<path class="st8" d="M-4.5,508.7l-1.1,0.4"/>
		<path class="st8" d="M-7.1,509.8l-1.1,0.4"/>
		<path class="st8" d="M-18.3,509.9l-0.5,0.8"/>
		<path class="st8" d="M-18,514.4l-0.9,0.8"/>
		<path class="st47" d="M-20.7,505.4l-0.1,1.1"/>
		<path class="st48" d="M-7,511.9c0.5,0.5,1.1,0.3,1.7-0.1"/>
		<path class="st47" d="M-23,514.7l1.2-1.2"/>
		<path class="st47" d="M-20.9,512.8l1.1-1.2"/>
		<path class="st8" d="M-27,514.3c8.1-4.8-3-7.3-2.3-12.7c1.6,0.1,3.3,0,4.5,1.7c-2.6-2.6-3.7-5.3-1.2-8.2c2,0.1,3.7,1.1,4.8,4.2
			c0.4-1.6,1.3-2.8,3-2.6c4.4,3,1.7,6.2,0.5,11.9c2.6-9,4-19.5,16.8-17.9c-5.6,5.4-8.3,12.6-12.3,18.9c3.8-2.9,7.3-6.4,13.1-6.4
			c0.4,1.5,0.5,2.9-3.3,4.9c2.8-0.7,5.7-2.5,8.3,0.7c-2.3,2.9-4.9,2.8-7.5,2.8c2.6,0.3,4.4,1.6,4.6,4.8c-8.6-2.5-10.2,0.4-21.8,0.5
			c2.8,1.2,7.2,2.8,8.2,6.2v4.4l-1.9,3l-10.7-3.3c-2.1-0.6-4.1-1.6-5.8-3c0.1,3.4-1.5,5.7-2.8,8.1l-10.6-9.5l7.3-6.9L-27,514.3z"/>
		<path class="st15" d="M3.3,619c-11.7,0.5-10.5,2-12.6,4.2c1.3-1.6,6.8-1.5,10.2-2.8c-4.1,1.7-6.2,4.1-7.3,6.8c3-2.2,6.1-4.2,9.4-6
			c-1.2,0.8-5.4,2.8-4.9,5.3c3.7-3.3,9.3-4.8,12.3-5.6L3.3,619z"/>
		<path class="st49" d="M1.7,606.3c-2.6,0-4.8,17.9,10.3,14.7C11.3,614.6,10.3,608.4,1.7,606.3z"/>
		<path class="st50" d="M2.1,607c-0.8,12.7,0.9,12.3,8.7,12.6C10.2,613,7.5,608.5,2.1,607z"/>
		<path class="st49" d="M10.3,588C1.9,598.4,7,616,12.2,622.4c2.9,0,6.2-0.1,9,0.1c2.3-1.5,4.3-3.4,5.8-5.7l-2.1-25.7L10.3,588z"/>
		<path class="st50" d="M10.1,619.5c10.2,1.6,6.8-8.1,7.9-14.3c0.1-1.6-1.2-5.8-0.7-6.5l3.3-5.7l2.6,2.8l1.7,23.4l-4,3.3l-9-0.1
			L10.1,619.5z"/>
		<path class="st8" d="M10.3,588C1.9,598.4,7,616,12.2,622.4c2.9,0,6.2-0.1,9,0.1c2.3-1.5,4.3-3.4,5.8-5.7l-2.1-25.7L10.3,588z"/>
		<path class="st5" d="M-2.1,534.7c-2.5,19.6-8.3,13.2-8.1,32.2c0.4,19.6,6.9,41,16.8,43.6c9.5-19.9,6.2-40.8,9.3-61.2l-4.2-14.6
			l-7.8-1.9L-2.1,534.7z"/>
		<path class="st51" d="M-2,534.4c-0.4,4.2-1.4,8.3-2.8,12.3c1.3-0.5,2.7-0.7,4.1-0.8c6.6,0.3,4.2,8.1,8.7,2
			c0.9-1.3,6.4-4.4,6.4-4.4c-1.1-3-2.1-6.6-3.2-9.9L-2,534.4z"/>
		<path class="st52" d="M-9.5,574.8c6.9-5.3,6.4,4.8,18.4-1.7l-0.1,23.2c-4.5,2.3-9,0.4-13.5,0.4C-7.1,589.3-9.1,582.1-9.5,574.8z"
			/>
		<path class="st53" d="M10.7,588.6c-7.5,13-12.6,8.6-15.9-1.1c-0.1,2.9,0,5.3,0,7.9c2,6.9,7,13.6,11.8,15.2
			C9.4,604,13.9,596,10.7,588.6z"/>
		<path class="st54" d="M-7.4,575c4.4,9,8.9,9.4,12.6,4.6"/>
		<path class="st55" d="M-0.9,545.8c2.1-1.2,2-8.2,2.9-7c4.6,5.3,4.1-0.1,5.2,5.7c0.1,1.1,0.5,2.1,1.2,2.9
			C3.6,554.4,6.1,546.1-0.9,545.8z"/>
		<path class="st56" d="M-0.8,545.8c7.3-1.5,3.4,2.4,9.1,1.6C3.8,554.1,6,546.6-0.8,545.8z"/>
		<path class="st8" d="M-2.1,534.5c-2.5,19.6-8.3,13.8-7.9,32.7c0.4,19.6,6.9,41,16.8,43.6c9.5-19.9,6.2-40.8,9.3-61.2l-4.4-14.8
			L4,533.1L-2.1,534.5z"/>
		<path class="st57" d="M-0.7,522.3c12.3,1.7,12,6.8,12.3,12.3c-1.3-0.1-2.6-0.2-4-0.1c-0.8,6.8-4,6.1-5.3,0h-4.5
			c-0.1-1.7-0.1-3.8-0.4-5.7"/>
		<path class="st58" d="M-2.5,528.8c-2.5-6.2-7.5-11.5-11.8-16.8c8.1,2.6,10.7,8.7,13.9,10.3"/>
		<path class="st59" d="M2.3,526.6c-1.1,0-1.1-1.1-1.7,0.4c-0.5,1.2,1.1,1.3,1.2,2c0.4,1.3,0.8,3,2.6,3c1.5,0,4.1-1.7,4.2-2.9
			c-0.4-0.9-2.8-2.4-4.4-2.4C3.6,526.7,2.4,526.6,2.3,526.6L2.3,526.6z M4.5,527.4c1.1,0,2.1,0.4,2.1,1.3c0,1.1-0.9,2-2,2
			c-0.1,0-0.2,0-0.2,0c-1-0.1-1.8-1-1.9-2C2.5,527.9,3.4,527.4,4.5,527.4L4.5,527.4z"/>
		<path class="st60" d="M7.7,524.9c0.9,3.1,1.2,6.4,0.8,9.7l3.2,0.1C11.9,531,10.4,527.3,7.7,524.9z"/>
		<path class="st61" d="M-2.5,528.6c5.4-0.4,2.8-5,1.9-6C-3,524.1-3,527.2-2.5,528.6z"/>
		<path class="st60" d="M2.3,534.7c1.9,5.6,3.8,6.5,5.4,0C5.9,535.1,4,535.1,2.3,534.7z"/>
		<path class="st62" d="M1.3,533.3c0.1,0.7,0.4,1.1-0.3,1.1c-0.4,0-0.3-0.4-0.4-1.2s-0.3-0.8,0.1-0.8C1.1,532.4,1.2,532.7,1.3,533.3
			L1.3,533.3z"/>
		<path class="st28" d="M-3.4,523.4c0.9,1.6,1.5,3.3,1.9,5.2c1-0.6,1.8-1.6,2.4-2.6c-0.4-2.3-0.9-2.1-1.6-2.4
			C-1.6,523.2-2.6,523.2-3.4,523.4z"/>
		<path class="st60" d="M14.3,543.7c-2.4,0.3-4,1.7-5.4,3.4c1.5,3.2-0.1,3.2-1.3,3.3c0.3,1.8,1.1,3.5,2.4,4.9
			c-1.3-0.4-2.6-0.5-4-0.5c1.7,1.7,3,3.7,3.8,6c-1-0.5-2.1-0.7-3.2-0.7c1.3,1.8,2.1,3.9,2.6,6.1L6.6,566c0.8,2.8,1.6,6.1,0.8,9.1
			c-1.3,4.3-1.1,8.8,0.5,13c3.3,8.9,7.5,14.2,9.8,20c1.3-4.1,2.8-8.2,3.3-13.4c2.4,4.5,2.3,10.7,2.3,16.9c0.1,9,1.2,10.7,7.7,12.8
			C26.7,621.1,33.5,563.5,14.3,543.7z"/>
		<path class="st63" d="M13.2,552.3c2.3,17.2-2.9,19.2-2.3,28.6c0.4,5.8,2.6,11.7,5.6,17.3c0.8-10.6,0-32-0.5-35.1
			c2.3,0.4,2.6,1.2,2.9,17.2c0.1,6.6-0.4,21.8-1.7,22.9c0,0-8.9-13.5-8.9-21.6c0-3.3,2-11,2.5-17.6C11.4,557.8,9.5,554.3,13.2,552.3
			L13.2,552.3z"/>
		<path class="st63" d="M28.9,622.4c-1.1-2.9-1.1-7.4-1.2-16.6c-0.1-3.8-0.1-8.5-0.5-14.3c-0.9-15.9-4.8-38.9-13.6-45.3
			c0,1.5,0.1,2.9,2.4,5.8c-0.6-0.4-1.4-0.5-2.1-0.3c7.7,7.3,7.9,17.2,9.3,26.6c0.9,7.2,1.9,15.6,2.5,23.3
			C26.3,613.7,24.9,620.7,28.9,622.4L28.9,622.4z"/>
		<g transform="translate(-530.25 -20.109)">
			<path class="st64" d="M527.8,510.6c4.5,5.3,2.4,7.3-2.8,7.8c1.5,2.1,4.8,3.4,6.8,0c2.1,1.5,2.3,4.1,2.9,6.5
				c1.3-1.9,4.2-2.1,2.1-7.4c3.3,0.8,3.7-1.2,4.2-2.5C535.6,516.4,535.2,510.2,527.8,510.6L527.8,510.6z"/>
			<path class="st65" d="M528,517.8c1.4-0.4,2.6-1.2,3.6-2.3c1.2,0.7,2.3,2.5,3.3,4c-0.3-1.1-0.8-2-0.5-3l2.6,1.3
				c-0.8-1.2-2.3-2.1-1.1-4.1l-2.4-1.9l-2.6-1.1c-1-0.2-2-0.2-3-0.3l1.5,2.1c0.5,0.6,0.7,1.3,0.8,2l-0.1,1.2c0,0.4,0,0.7-0.4,0.9
				L528,517.8z"/>
			<path class="st8" d="M527.8,510.6c4.5,5.3,2.4,7.3-2.8,7.8c1.5,2.1,4.8,3.4,6.8,0c2.1,1.5,2.3,4.1,2.9,6.5
				c1.3-1.9,4.2-2.1,2.1-7.4c3.3,0.8,3.7-1.2,4.2-2.5C535.6,516.4,535.2,510.2,527.8,510.6L527.8,510.6z"/>
		</g>
		<g transform="translate(-530.25 -20.109)">
			<path class="st64" d="M516.4,542.7c-2.1,0-4.2,0.1-4.9,3.2c-1.5-1.7-3.6-2.9-5.8-3.3c0.2,1.9,0.3,3.9,0.3,5.8
				c-1.4,0.5-2.9,0.5-4.4,0c4.6,7.9,20.5,7,17.6-5.3C519.2,555.8,510.6,547.5,516.4,542.7L516.4,542.7z"/>
			<path class="st65" d="M514.3,546.7c-1.2,3.7-2.8,4.8-5,0.3c-0.4,2.3-1.5,2.3-2.6,2.3l6,4.4l1.7-0.4l1.2-0.5l1.5-0.9
				c0.6-0.7,1.2-1.5,1.6-2.4l0.7-2.8l-0.4-3.6v3.3l-0.4,1.6c-0.1,0.4-0.4,0.8-0.7,1.2c-0.3,0.3-0.7,0.5-1.1,0.5l-1.1-0.3l-0.9-0.9
				L514.3,546.7z"/>
			<path class="st8" d="M516.4,542.7c-2.1,0-4.2,0.1-4.9,3.2c-1.5-1.7-3.6-2.9-5.8-3.3c0.2,1.9,0.3,3.9,0.3,5.8
				c-1.4,0.5-2.9,0.5-4.4,0c4.6,7.9,20.4,7,17.5-5.3C518.9,555.8,510.6,547.5,516.4,542.7L516.4,542.7z"/>
		</g>
		<path class="st66" d="M-38.1,524.2l-0.3,2.9l4.4,2.1c-0.7-4.1-0.7-8.2,0-12.3C-36.5,518.6-38.4,520.6-38.1,524.2L-38.1,524.2z"/>
		<g transform="translate(-530.25 -20.109)">
			<path class="st27" d="M451.5,534.5c-2.9-2.3-0.5-5.3,1.2-6.2c-4.1-0.7-7.3,5-2.4,7.3c-5.6-0.4-7,0.4-8.2,1.3
				c1.1,3.2,7.5,2.8,11.5,1.2c-1.3,1-2.1,2.6-2.3,4.2c4.5,0,5.8-2.3,7.4-4.4L451.5,534.5z"/>
			<path class="st67" d="M442.4,536.8c2.9,1.5,9.8,0.5,15.2,0.5l-4.9-2.1l-2.3,0.3l-3.8-0.1c-1.2,0.1-2.3,0.4-3.4,0.8L442.4,536.8z"
				/>
			<path class="st67" d="M448.9,534.5c-0.9-3.6,0.8-5.7,3.8-6.4l-1.9,0.1c-0.8,0.4-1.6,0.9-2.3,1.5l-0.7,1.7l-0.1,1.3L448.9,534.5z"
				/>
			<path class="st8" d="M451.5,534.5c-2.9-2.3-0.5-5.3,1.2-6.2c-4.1-0.7-7.3,5-2.4,7.3c-5.6-0.4-7,0.4-8.2,1.3
				c1.1,3.2,7.5,2.8,11.5,1.2c-1.3,1-2.1,2.6-2.3,4.2c4.5,0,5.8-2.3,7.4-4.4L451.5,534.5z"/>
		</g>
		<g transform="translate(-529.827 -19.904)">
			<path class="st60" d="M466.5,550l-1.6,10.3l11.3,2.6l5.4-9.3l5.3-2.4l6.8-0.5l5.3,3c-1.9-4.4-2.5-6.9-6.9-8.9l-0.1-19.1l-5.8-5.2
				l-20-0.1c-4.5,5-10.3,8.9-16,12.7c-1.5,0.9-0.7,2,0,2.1C456.7,537.6,463.6,541.4,466.5,550L466.5,550z"/>
			<path class="st53" d="M473.2,554.7c2.6-2.8,5.7-5.1,9.1-6.8l-5.2-11.4h-10.6l6,10.2l-2.3,1.1"/>
			<path class="st52" d="M470.4,538.2h4.8l3.7,9.3l-3.7,2.3C474.3,545.8,472,542.1,470.4,538.2z"/>
			<path class="st5" d="M472.7,538.2h2.5l3.7,9.3l-2,1.2C475.8,545.1,474.4,541.6,472.7,538.2z"/>
			<path class="st52" d="M473.6,555.1c1.7-1.8,3.6-3.5,5.7-4.9c1.1,0.4,2.1,1,3,1.6c-2.6,1.5-4.8,3.8-6.2,6.5
				C475.1,557.4,474.2,556.3,473.6,555.1z"/>
			<path class="st52" d="M490,545.7h-4.9c0,1.8,1.1,3.3,2.8,4c2.3-0.6,4.8-0.6,7.1,0.1C493.6,548.2,491.9,546.8,490,545.7z"/>
			<path class="st68" d="M493.2,545.7h-3.4c1.8,1.1,3.3,2.5,4.6,4.1c1.5,0.4,2.6,1.6,4,2.8C496.9,548.6,495.2,546.8,493.2,545.7z"/>
			<path class="st69" d="M488.1,549.6c-4.5-4.5-4.8-15.8-5.4-17.5l-2.4,0.3c1.5,7,2.4,15.4,5.7,17.9L488.1,549.6z"/>
			<path class="st69" d="M482.8,528.3v3.3l2.1-0.9v-3.2L482.8,528.3z"/>
			<path class="st70" d="M482.5,524.5l-0.9,6.8l-5.8,0.5l3-7.4L482.5,524.5z"/>
			<path class="st52" d="M473.9,528.4l-9.9-0.1c1.5-2.9,4.4-4.8,8.1-5.7c0.3-0.1,0.3-0.5,0-0.5l-7.7,0.4l1.9-1.9h8.2v3.8
				L473.9,528.4z"/>
			<path class="st5" d="M466.2,525.4l2.6,2.6h-5C464.5,527.1,465.3,526.2,466.2,525.4z"/>
			<path class="st5" d="M479.4,524.9c0.2,2.4-0.9,4.8-2.8,6.4l-3,0.3l-0.3-6.4L479.4,524.9z"/>
			<path class="st71" d="M455.7,530.8l16.7,0.3l-0.3,1.1l-19.1,1.5L455.7,530.8z"/>
			<path class="st72" d="M458.4,527.9h15v1.3H458L458.4,527.9z"/>
			<path class="st73" d="M450.2,535.5c10.6-0.4,21.2-1.6,31.6-3.6v-2.3c-2.3,0.5-4.6,0.9-6.9,1.1l-0.1-4.8l7.4-0.5l0.9-2l-11.7,0.8
				l0.1,1.9c0.8,0.8,0.9,2.8,0.1,3.4l0.1,1.6c-5.8,0.9-11.5,1.3-17.1,1.7l6.2-5.2h-2.6c-2.8,2-5.7,4-8.3,5.8l-0.4,0.4
				c-0.2,0.2-0.2,0.5-0.1,0.8C449.7,535.1,449.9,535.2,450.2,535.5L450.2,535.5z"/>
			<path class="st8" d="M466.3,545.9l1.1,3l-2.5,11.5l11.3,2.6l5.4-9.3l5.3-2.4l6.8-0.5l5.3,3c-1.9-4.4-2.5-6.9-6.9-8.9l-0.1-19.1
				l-5.8-5.2l-20-0.1c-4.4,5-10.2,8.9-16,12.7c-1.2,0.8-0.7,1.7,0,2c3,1.2,7.9,1.1,12,3.7C464.5,540.6,466.1,543.1,466.3,545.9
				L466.3,545.9z"/>
			<path class="st73" d="M466.3,549.9c-1.5,0.4-4.6,8.9-4,11.4c0.5,0.9,2,2,4.6,2.1c-1.1,1.2-2,2.6-2.6,4.1c2.4,1.9,3.3,2.3,7.7,2.6
				c0.5-1.8,0.7-3.7,0.7-5.6c1.5,0.5,3,0.6,4.5,0.4c1.6-9.9,17.7-18.7,22.4-7.3c0.1-15.6-22.2-7.7-24.2,3.6l-8.9-1.1
				C467.8,556.6,468.1,553.3,466.3,549.9L466.3,549.9z"/>
			<path class="st74" d="M470.3,547.4l-6.6-10.9c-2.4,0-8.1,0-10.5-0.1c-2-0.7,0.4,0-2.9-1.1c16,5.7,15.1,14.6,19.1,23
				c1.3-1.2,2.6-2.4,3.8-3.7"/>
			<path class="st8" d="M468.9,560.4c-0.3,2.2-0.8,4.3-1.6,6.4"/>
			<path class="st8" d="M471.4,560.7c-0.1,2.3-0.6,4.6-1.3,6.8"/>
		</g>
		<g transform="translate(-530.484 -20.226)">
			<path class="st64" d="M495.2,522.7c0.1,14,11.4,7.4,13,14.8c-2.9,1.7-6,0.9-9.3-2.3c2.8,2.5,4,6.3,3,9.9c-2.8-0.8-6-0.5-6-6.9
				c-0.5,2.9-0.8,6-3.7,7.5c-2.4-4-2.9-8.9-0.4-15c-1.6,2.4-3.2,4.8-6.1,5.4c-0.4-4.5-0.5-7.2,4.8-12.7c-2,2.3-3.7,4.8-7.3,4.5
				c-0.3-3,0.4-5.7,2.6-7.4L495.2,522.7z"/>
			<path class="st27" d="M483.6,523.8c2.1,0.1,6.8-1.7,6.5,3.8c-0.1,1.3-0.5,2.5-1.3,3.4c1.7-1.2,2.8,0.3,3.7,3.3
				c0.4,1.6,0.5,3.3,0.3,4.9c0.4-1.9,0.8-3.4,3.4-2.3c1.1,0.5,2,2.5,3.6,4.5c-0.9-2.1-2-4.2-0.9-6.4c2.4,2.6,6.2,4.1,9.1,2.3
				c-1.1-1.3-5.7-0.1-7.7-2.8c1.2-1.1,2.6-0.9,4-1.1l-3.7-1.2l-1.7-0.8l-2-1.7l-1.1-2.3l-0.8-4.9l-9.3-2.3
				C484.6,521.3,483.9,522.5,483.6,523.8z"/>
			<path class="st8" d="M495.2,522.7c0.1,14,11.4,7.4,13,14.8c-2.9,1.7-6,0.9-9.3-2.3c2.8,2.5,4,6.3,3,9.9c-2.8-0.8-6-0.5-6-6.9
				c-0.5,2.9-0.8,6-3.7,7.5c-2.4-4-2.9-8.9-0.4-15c-1.6,2.4-3.2,4.8-6.1,5.4c-0.4-4.5-0.5-7.2,4.8-12.7c-2,2.3-3.7,4.8-7.3,4.5
				c-0.3-3,0.4-5.7,2.6-7.4L495.2,522.7z"/>
		</g>
		<g transform="translate(-530.482 -19.888)">
			<path class="st5" d="M464.5,516.4c-8.3,0.4-8.6,12.4,1.3,6.5c5-3,17.7-1.5,24,0c9.8,2.3,9.5-3.3,2.8-6
				C486.6,514.5,471.2,516,464.5,516.4z"/>
			
				<linearGradient id="SVGID_00000116932263994417582620000013011616967737171352_" gradientUnits="userSpaceOnUse" x1="92.6743" y1="793.86" x2="93.0743" y2="794.124" gradientTransform="matrix(10.196 0 0 -6.4496 -419.6897 5614.9229)">
				<stop  offset="0" style="stop-color:#003994"/>
				<stop  offset="1" style="stop-color:#012169"/>
			</linearGradient>
			
				<path style="fill:url(#SVGID_00000116932263994417582620000013011616967737171352_);stroke:#000000;stroke-width:1.054;stroke-linecap:round;stroke-linejoin:round;stroke-miterlimit:5.296;" d="
				M472.4,521.2l-3.2-5c-2.4-0.2-4.7,0-7,0.7l4.1,5.7"/>
			
				<linearGradient id="SVGID_00000103965214467458241650000013436827410093302421_" gradientUnits="userSpaceOnUse" x1="93.1415" y1="794.3738" x2="93.5925" y2="794.7258" gradientTransform="matrix(9.268 0 0 -6.223 -326.0396 5432.2681)">
				<stop  offset="0" style="stop-color:#003994"/>
				<stop  offset="1" style="stop-color:#012169"/>
			</linearGradient>
			
				<path style="fill:url(#SVGID_00000103965214467458241650000013436827410093302421_);stroke:#000000;stroke-width:1.054;stroke-linecap:round;stroke-linejoin:round;stroke-miterlimit:5.296;" d="
				M484.9,521.8l-2.3-6.2h-7l3,5.6"/>
			
				<linearGradient id="SVGID_00000122691863540030314360000017056294506331537597_" gradientUnits="userSpaceOnUse" x1="89.0046" y1="792.437" x2="89.4766" y2="792.649" gradientTransform="matrix(7.944 0 0 -7.1971 -197.7385 6216.0469)">
				<stop  offset="0" style="stop-color:#003994"/>
				<stop  offset="1" style="stop-color:#012169"/>
			</linearGradient>
			
				<path style="fill:url(#SVGID_00000122691863540030314360000017056294506331537597_);stroke:#000000;stroke-width:1.054;stroke-linecap:round;stroke-linejoin:round;stroke-miterlimit:5.296;" d="
				M489.4,516.1c5,0.7,7.9,3.6,7.9,5.3c0,1.5-2.6,2.6-7.7,1.3L489.4,516.1z"/>
			<path class="st8" d="M464.5,516.4c-8.3,0.4-8.6,12.4,1.3,6.5c5-3,17.7-1.5,24,0c9.8,2.3,9.5-3.3,2.8-6
				C486.6,514.5,471.2,516,464.5,516.4z"/>
		</g>
		<g transform="translate(-82.611 127.833)">
			<path class="st78" d="M30.7,365.4c5.7-6.6,11-14.6,13.8-21.2c1.9,2.4,4.9,3.6,7.9,3.2c-1.1,6.2-2.8,12.3-5,18.1"/>
			<path class="st79" d="M10.7,365.4l-0.3,0.7l-14.4-7c-0.1-0.4,0-0.5,0.3-0.7L10.7,365.4z"/>
			<path class="st80" d="M35.5,362h6.6v3.2h-6.6V362z"/>
			<path class="st81" d="M36.3,358.4h2.3v3.7h-2.3V358.4z"/>
			<path class="st82" d="M23.6,362h6.8v3.2h-6.8V362z"/>
			<path class="st79" d="M56.7,357.5c0.3,0.1,0.4,0.4,0.3,0.5l-12.3,4.8l-0.3-0.5L56.7,357.5z"/>
			<path class="st79" d="M52.7,346.9c0.1,0,0.3,0.3,0.3,0.4l-8.5,4.5l-0.3-0.4L52.7,346.9z"/>
			<path class="st78" d="M3.4,362.1L16,352.1"/>
			<path class="st79" d="M22.9,361.2c0,0.2,0,0.5-0.1,0.7l-14.4-3.6c-0.1-0.2,0-0.5,0.1-0.7L22.9,361.2z"/>
			<path class="st79" d="M20.7,347.8c0,0.3,0,0.5-0.3,0.7l-9.7-3c0-0.3,0.1-0.5,0.3-0.7L20.7,347.8z"/>
			<path class="st79" d="M35.8,345.8c0.1,0.2,0,0.5-0.1,0.7l-11.8-3.2c0-0.2,0-0.5,0.1-0.7L35.8,345.8z"/>
			<path class="st78" d="M-0.8,360.1c6.2-3.7,11.9-8.2,16.9-13.4"/>
			<path class="st78" d="M16.2,348.9c2.8,5.6,4.8,11.3,9.7,16.4"/>
			<path class="st78" d="M16.4,347.3c3.7,6.2,6.6,12.7,12.6,18.1"/>
			<path class="st79" d="M20.7,353.3c0,0.3,0,0.5-0.3,0.7l-9.7-3c0-0.3,0-0.5,0.3-0.7L20.7,353.3z"/>
			<path class="st78" d="M19.5,365c3.7-3.7,7.3-7.6,10.6-11.6"/>
			<path class="st79" d="M20.7,356.3c0,0.3,0,0.5-0.3,0.7l-9.7-3c0-0.3,0-0.5,0.3-0.7L20.7,356.3z"/>
			<path class="st78" d="M30.1,345.1c-2,3.8-7.9,9.5-13.8,13.1"/>
			<path class="st79" d="M35.8,351.5c0.1,0.2,0,0.5-0.1,0.7L23.8,349c-0.1-0.2,0-0.5,0.1-0.7L35.8,351.5z"/>
			<path class="st78" d="M30.2,350.5c-4.3,4.3-8.9,8.3-13.8,11.9"/>
			<path class="st79" d="M35.8,354.3c0.1,0.2,0,0.5-0.1,0.7l-11.8-3.2c-0.1-0.2,0-0.5,0.1-0.7L35.8,354.3z"/>
			<g transform="translate(-210.533 -114.673) rotate(-0.288)">
				<path class="st27" d="M265.6,464.5c0,0.8,0.2,1.7,0.2,2.7c-1.7-1.7-3-0.6-5.2-0.9v-2.7C265.6,463.8,264,463,265.6,464.5z"/>
				<g>
					<g transform="matrix(1, -0.011, 0.011, 1, 638.961, 365.149)">
						<circle class="st27" cx="-378.5" cy="94.9" r="1.4"/>
						<path class="st83" d="M-379.8,94.2l2.7,1.4 M-379.8,95.6l2.7-1.4"/>
						<path class="st84" d="M-379.8,94.2l2.7,1.4 M-379.8,95.6l2.7-1.4"/>
						<path class="st5" d="M-378.5,94.9l1.4,0.7h-0.2l-1.4-0.7 M-378.5,94.9l1.4-0.7h0.2l-1.4,0.7 M-378.5,94.9l-1.4,0.7h-0.2
							l1.4-0.7 M-378.5,94.9l-1.4-0.7h0.2l1.4,0.7"/>
						<path class="st85" d="M-379.8,94.9h2.7 M-378.5,94.2v1.4"/>
						<path class="st86" d="M-379.8,94.9h2.7 M-378.5,94.2v1.4"/>
					</g>
				</g>
			</g>
			
				<linearGradient id="SVGID_00000048486854642645540910000001208331041369203121_" gradientUnits="userSpaceOnUse" x1="-360.9664" y1="650.5197" x2="-360.9664" y2="650.8477" gradientTransform="matrix(0.662 0 0 -24.7276 255.18 16483.4707)">
				<stop  offset="0" style="stop-color:#BA9117"/>
				<stop  offset="0.5" style="stop-color:#7F670C"/>
				<stop  offset="1" style="stop-color:#FFCE18"/>
			</linearGradient>
			<path style="fill:url(#SVGID_00000048486854642645540910000001208331041369203121_);" d="M15.9,341c0.2-0.1,0.5-0.1,0.7,0v24.6
				h-0.7L15.9,341z"/>
			<path class="st78" d="M49.3,365.2c-6.6-7.8-12.8-15.9-18.7-24c4.5,8.2,9,16.6,14.7,24.6"/>
			<path class="st78" d="M30.5,341.1c3.6,8.2,6.6,16.6,11.5,24.5"/>
			<path class="st78" d="M52.4,347.3c0.5,3.7,0.8,7.4,2,11"/>
			
				<linearGradient id="SVGID_00000170999197858143662800000005445992721671984809_" gradientUnits="userSpaceOnUse" x1="-360.9664" y1="652.3425" x2="-360.9664" y2="652.9265" gradientTransform="matrix(0.662 0 0 -26.0516 269.215 17351.0059)">
				<stop  offset="0" style="stop-color:#CAA11C"/>
				<stop  offset="1" style="stop-color:#FFCE18"/>
			</linearGradient>
			<path style="fill:url(#SVGID_00000170999197858143662800000005445992721671984809_);" d="M29.9,339.5c0.2-0.1,0.5-0.1,0.7,0v26
				h-0.7V339.5z"/>
			
				<linearGradient id="SVGID_00000057830566579451364920000006462750928200150406_" gradientUnits="userSpaceOnUse" x1="-360.9665" y1="652.3268" x2="-360.9665" y2="653.0208" gradientTransform="matrix(0.662 0 0 -21.9466 283.5143 14661.2422)">
				<stop  offset="0" style="stop-color:#CAA11C"/>
				<stop  offset="1" style="stop-color:#FFCE18"/>
			</linearGradient>
			<path style="fill:url(#SVGID_00000057830566579451364920000006462750928200150406_);" d="M44.2,344c0.2-0.1,0.5-0.1,0.7,0v21.8
				h-0.7V344z"/>
			<g transform="translate(-107.25 -59.253)">
				<path class="st90" d="M114.9,424h47v4.4h-42.4L114.9,424z"/>
				<g transform="translate(-4.573)">
					<path class="st91" d="M122.9,426.2h42.7v0.7h-42.7V426.2z"/>
					<path class="st92" d="M122.9,425.4h42.7v0.7h-42.7V425.4z"/>
				</g>
			</g>
		</g>
		<g transform="translate(-530.157 -19.963)">
			<path class="st64" d="M434.6,545.5c0.5,8.3,11,1.9,3.6-0.5c1.6-1.2,4.2-1.5,5.6,0.7c1.2-3.2,3.8-3.7,7.5-2.5
				c-0.9,1.6-1.6,3.3-4.1,4.8c1.2-0.1,2.4,0.2,3.4,0.8C445.8,555.1,431.1,553.5,434.6,545.5z"/>
			<path class="st65" d="M438.3,545c2.3,0.5,4.4,1.8,6,3.6c1.7-2.5,4.2-4.4,7-5.3l-0.5,1.1l-0.9,1.5l-0.9,1.1l-0.9,0.7l-0.5,0.4
				l1.5,0.1l1.9,0.7l-2.6,2.3l-2.6,1.2l-3.4,0.5l-4-0.4l-1.7-0.8l-2-1.9l-0.5-1.5l0.3-1.6l0.4-0.9l0.4,1.9l1.1,1.7l1.1,0.5h1.5
				l1.3-0.7l0.7-0.9l0.1-1.5L440,546L438.3,545z"/>
			<path class="st8" d="M434.6,545.5c0.5,8.3,11,1.9,3.6-0.5c1.6-1.2,4.2-1.5,5.6,0.7c1.2-3.2,3.8-3.7,7.5-2.5
				c-0.9,1.6-1.6,3.3-4.1,4.8c1.2-0.1,2.4,0.2,3.4,0.8C445.8,555.1,431.1,553.5,434.6,545.5z"/>
		</g>
		<g transform="translate(-530.25 -20.109)">
			<path class="st64" d="M433.5,513.9c-10.7-4.8-17.9,2.1-19.3,8.3c1.4-0.3,2.7-1.1,3.6-2.3c-0.2,2.2,0.2,4.5,1.2,6.5
				c1.9-1.2,3.3-1.9,3.7-5.2c3.3,3.4,5.4-0.3,6.2-0.8C422.8,515.5,429.5,513.1,433.5,513.9z"/>
			<path class="st65" d="M420.8,513.6c0,1.6-0.2,3.3-0.5,4.9c1.3-2.4,3.8-1.7,6.2-1.7l0.4-1.3l1.9-1.2l1.9-0.4l2.9,0.1l-2.4-0.9
				l-3.4-0.7h-2.9l-2.5,0.7L420.8,513.6z"/>
			<path class="st8" d="M433.4,513.9c-10.7-4.8-17.7,2-19.2,8.2c1.4-0.3,2.7-1.1,3.6-2.3c-0.2,2.2,0.2,4.5,1.2,6.5
				c1.9-1.2,3.3-1.9,3.7-5.2c3.3,3.4,5.4-0.3,6.2-0.8C422.8,515.5,429.4,513.1,433.4,513.9L433.4,513.9z"/>
		</g>
		<path class="st8" d="M-3.3,511.6h-1.1"/>
		<path class="st8" d="M-73,523l0.9-0.5"/>
		<path class="st8" d="M-68.1,527.4l0.5-0.7"/>
	</g>
</g>
</svg>
