<svg xmlns="http://www.w3.org/2000/svg" width="512" height="335.448" viewBox="0 0 512 335.448"><g transform="translate(0 -88.276)"><path d="M503.172,423.724H8.828A8.829,8.829,0,0,1,0,414.9V97.1a8.829,8.829,0,0,1,8.828-8.828H503.173A8.829,8.829,0,0,1,512,97.1V414.9A8.83,8.83,0,0,1,503.172,423.724Z" fill="#ffe15a"/><path d="M0,97.1v52.965L512,361.931V300.138L3.978,89.923A8.666,8.666,0,0,0,0,97.1Z" fill="#f5f5f5"/><path d="M0,211.862,508.021,422.077A8.669,8.669,0,0,0,512,414.9V361.931L0,150.069Z" fill="#464655"/><path d="M305.588,240.326l.007-.25s-.117-1.209-.338-3.478a29.361,29.361,0,0,0-.672-4.125,37.185,37.185,0,0,0-1.44-5.443,45.014,45.014,0,0,0-6.891-13.322c-.426-.568-.93-1.129-1.394-1.694a50.287,50.287,0,0,0,5.788-8.175,53.09,53.09,0,0,1-21.4-4.478A52.325,52.325,0,0,0,267,194.772l-2.112-8.447a4.06,4.06,0,0,0-3.937-3.074h-2.92v-4.058h14.206l-4.058-8.118,4.058-8.118H258.03V158.9h-4.06v24.353h-2.92a4.058,4.058,0,0,0-3.937,3.074l-2.066,8.265a44.053,44.053,0,0,0-8.124,2.452,45.43,45.43,0,0,0-6.315,3.174,53.183,53.183,0,0,1-19.257,3.624,50.277,50.277,0,0,0,5.783,8.171c-.4.492-.854.934-1.246,1.44a51.587,51.587,0,0,0-6.658,12.46,55.731,55.731,0,0,0-2.819,13.917l-.008,3.9a26.384,26.384,0,0,0,.228,3.66,51.247,51.247,0,0,0,1.215,7.271,53.735,53.735,0,0,0,5.643,13.637,49.645,49.645,0,0,0,35.121,23.566,53.4,53.4,0,0,0,6.337.664l.361.026.181.013.589.015.845-.035,1.684-.076c1.118-.075,2.236-.061,3.331-.224a49.01,49.01,0,0,0,23.009-8.862,50.1,50.1,0,0,0,13.737-15.349,51.782,51.782,0,0,0,5.7-14.577,39.379,39.379,0,0,0,.951-5.8,28.513,28.513,0,0,0,.265-4.185C305.592,241.423,305.588,240.326,305.588,240.326Zm-73.768,28.6a47.219,47.219,0,0,1-7.693-7.708,41.689,41.689,0,0,1-5.427-9.846,39.027,39.027,0,0,1-1.385-23.022,43.817,43.817,0,0,1,4.412-11.023c.116-.2.273-.37.392-.567,9.227,7.208,18.969,6.7,25.763,3.2V227.9c2.241,0,4.058,4.543,4.058,10.147s-1.817,10.147-4.058,10.147v4.058c7.613,10.149,4.12,18.713-.558,23.706a41.9,41.9,0,0,1-6.386-1.892A40.684,40.684,0,0,1,231.82,268.931ZM295.7,239.87c-.007.06-.115,1.1-.321,3.092a18.264,18.264,0,0,1-.59,3.322,29.006,29.006,0,0,1-1.182,4.2,35.188,35.188,0,0,1-5.626,10.528,40.6,40.6,0,0,1-11.325,9.99,42.934,42.934,0,0,1-12.281,4.6c-4.52-5.037-7.7-13.428-.258-23.353V248.2c-2.241,0-4.058-4.543-4.058-10.147s1.817-10.147,4.058-10.147v-7.938c6.8,3.5,16.559,4.013,25.8-3.221.158.266.351.536.5.8a41.871,41.871,0,0,1,4.431,11.781,28.979,28.979,0,0,1,.693,4.556,21.627,21.627,0,0,1,.184,3.384C295.71,238.836,295.7,239.633,295.7,239.87Z" fill="#ff4b55"/><path d="M256,300.96a56.5,56.5,0,0,1-38.727-15.326,4.5,4.5,0,0,0-6.47.406L195.26,304.173a2.971,2.971,0,0,0,2.255,4.9h9.775l13.031,6.516a4.059,4.059,0,0,0,5.193-1.379l4.194-6.292a68.887,68.887,0,0,0,52.58,0l4.194,6.292a4.059,4.059,0,0,0,5.193,1.379l13.031-6.516h9.775a2.971,2.971,0,0,0,2.255-4.9L301.194,286.04a4.494,4.494,0,0,0-6.47-.406A56.488,56.488,0,0,1,256,300.96Z" fill="#ff4b55"/><path d="M199.175,284.724H178.88l4.058-36.531s-14.207-7.1-12.719-27.956a4.89,4.89,0,0,1,4.867-4.516h3.464a4.865,4.865,0,0,1,4.793,4.093c.854,5.091,3.511,13.448,11.772,16.2Z" fill="#ff4b55"/><path d="M312.825,284.724h20.3l-4.058-36.531s14.207-7.1,12.719-27.956a4.89,4.89,0,0,0-4.867-4.516H333.45a4.865,4.865,0,0,0-4.793,4.093c-.854,5.091-3.511,13.448-11.772,16.2Z" fill="#ff4b55"/><path d="M201.205,288.783H176.852a2.028,2.028,0,0,1-2.029-2.029h0a2.028,2.028,0,0,1,2.029-2.029h24.353a2.028,2.028,0,0,1,2.029,2.029h0A2.03,2.03,0,0,1,201.205,288.783Z" fill="#ffe15a"/><path d="M335.149,288.783H310.8a2.028,2.028,0,0,1-2.029-2.029h0a2.028,2.028,0,0,1,2.029-2.029h24.353a2.028,2.028,0,0,1,2.029,2.029h0A2.029,2.029,0,0,1,335.149,288.783Z" fill="#ffe15a"/></g></svg>