<svg xmlns="http://www.w3.org/2000/svg" width="512" height="335.448" viewBox="0 0 512 335.448"><g transform="translate(0 -88.276)"><path d="M512,256H0V97.1a8.829,8.829,0,0,1,8.828-8.828H503.173A8.829,8.829,0,0,1,512,97.1V256Z" fill="#ff4b55"/><path d="M0,256H512V414.9a8.829,8.829,0,0,1-8.828,8.828H8.828A8.829,8.829,0,0,1,0,414.9Z" fill="#73af00"/><path d="M258.685,207.856l11.106,33.3,35.1.273a2.83,2.83,0,0,1,1.66,5.107l-28.238,20.853L288.9,300.858a2.83,2.83,0,0,1-4.344,3.156L256,283.6l-28.558,20.413a2.83,2.83,0,0,1-4.344-3.156l10.589-33.469L205.45,246.536a2.83,2.83,0,0,1,1.66-5.107l35.1-.273,11.106-33.3A2.828,2.828,0,0,1,258.685,207.856Z" fill="#ffe15a"/></g></svg>