<svg xmlns="http://www.w3.org/2000/svg" width="512" height="335.55" viewBox="0 0 512 335.55"><g transform="translate(0 -88.225)"><path d="M503.172,88.225H8.828A8.829,8.829,0,0,0,0,97.053V414.845a8.829,8.829,0,0,0,8.828,8.828H503.173A8.829,8.829,0,0,0,512,414.845V97.053A8.83,8.83,0,0,0,503.172,88.225Z" fill="#73af00"/><path d="M40.266,88.225,256,229.568,471.733,88.225Z" fill="#ff4b55"/><path d="M471.733,423.775,256,282.432,40.266,423.775Z" fill="#ff4b55"/><path d="M512,97.053a8.829,8.829,0,0,0-8.828-8.828H471.734L307.7,195.7a79.208,79.208,0,0,0-103.392,0L40.266,88.225H8.828A8.829,8.829,0,0,0,0,97.053v17.554L180.058,232.575a79.647,79.647,0,0,0,0,46.748L0,397.292v17.554a8.829,8.829,0,0,0,8.828,8.828H40.266L204.3,316.2a79.205,79.205,0,0,0,103.392,0L471.732,423.674H503.17A8.829,8.829,0,0,0,512,414.846V397.292L331.941,279.324a79.647,79.647,0,0,0,0-46.748L512,114.608V97.053Z" fill="#f5f5f5"/><path d="M250.28,230.545l-11.97.31,6.25-10.216-6.25-10.215,11.97.31L256,200.209l5.721,10.525,11.97-.31-6.251,10.215,6.251,10.216-11.97-.31L256,241.07Z" fill="#ff4b55"/><path d="M256,202.984l4.943,9.092,10.346-.265-5.4,8.828,5.4,8.828-10.346-.265L256,238.294l-4.943-9.092-10.346.265,5.4-8.828-5.4-8.828,10.346.265L256,202.984m0-5.544-2.327,4.279-4.169,7.669-8.726-.224-4.869-.125,2.542,4.156,4.557,7.445-4.557,7.445-2.542,4.156,4.869-.125,8.726-.224,4.169,7.669L256,243.84l2.327-4.279,4.169-7.669,8.726.224,4.87.125-2.542-4.156-4.557-7.445,4.557-7.445,2.542-4.156-4.87.125-8.726.224-4.169-7.669L256,197.44Z" fill="#73af00"/><path d="M217.406,289.054l-11.97.311,6.25-10.216-6.25-10.215,11.97.31,5.72-10.526,5.72,10.526,11.969-.31-6.25,10.215,6.25,10.216-11.969-.311-5.72,10.525Z" fill="#ff4b55"/><path d="M223.126,261.494l4.943,9.092,10.346-.265-5.4,8.828,5.4,8.828-10.346-.265-4.943,9.092-4.943-9.092-10.346.265,5.4-8.828-5.4-8.828,10.346.265,4.943-9.092m0-5.545-2.327,4.279L216.63,267.9l-8.726-.224-4.87-.125,2.542,4.156,4.557,7.445-4.557,7.445-2.542,4.156,4.87-.125,8.726-.224,4.169,7.669,2.327,4.279,2.327-4.279,4.169-7.669,8.726.224,4.87.125-2.542-4.156-4.557-7.445,4.557-7.445,2.542-4.156-4.87.125-8.726.224-4.169-7.669-2.327-4.279Z" fill="#73af00"/><path d="M283.154,289.054l-11.97.311,6.25-10.216-6.25-10.215,11.97.31,5.719-10.526,5.721,10.526,11.97-.31-6.25,10.215,6.25,10.216-11.97-.311-5.721,10.525Z" fill="#ff4b55"/><path d="M288.873,261.494l4.943,9.092,10.346-.265-5.4,8.828,5.4,8.828-10.346-.265-4.943,9.092-4.943-9.092-10.346.265,5.4-8.828-5.4-8.828,10.346.265,4.943-9.092m0-5.545-2.327,4.279-4.169,7.669-8.726-.224-4.87-.125,2.542,4.156,4.557,7.445-4.557,7.445-2.542,4.156,4.87-.125,8.726-.224,4.169,7.669,2.327,4.279,2.327-4.279,4.169-7.669,8.726.224,4.87.125-2.542-4.156-4.557-7.445,4.557-7.445,2.542-4.156-4.87.125-8.726.224-4.169-7.669-2.327-4.279Z" fill="#73af00"/></g></svg>