<svg xmlns="http://www.w3.org/2000/svg" width="512" height="335.448" viewBox="0 0 512 335.448"><g transform="translate(0 -88.276)"><path d="M503.172,423.724H8.828A8.829,8.829,0,0,1,0,414.9V97.1a8.829,8.829,0,0,1,8.828-8.828H503.173A8.829,8.829,0,0,1,512,97.1V414.9A8.83,8.83,0,0,1,503.172,423.724Z" fill="#41479b"/><rect width="512" height="176.55" transform="translate(0 167.72)" fill="#ff4b55"/><path d="M372.816,322.934V310.416h-4.172v-8.344h-4.173v-8.343H360.3v-8.344H347.783V260.353h0l4.173-4.172V243.665h-4.172v-8.344h-4.172V222.8H339.44v-8.344h-4.172v-8.344H331.1v-4.172h-8.345v4.172h-4.172v8.344h-4.172V222.8h-4.171v12.516h-4.172v8.344H281.031V231.149H276.86V218.633h-4.172V206.117h-4.172v-8.344h-4.172v-8.344h-4.172v-4.172h-2.086v-4.172h-4.172v4.172h-2.087v4.172h-4.171v8.344h-4.172v8.344h-4.172v12.516H235.14v12.516h-4.172v12.516H205.936v-8.344h-4.172V222.8h-4.172v-8.344H193.42v-8.344h-4.172v-4.172H180.9v4.172h-4.172v8.344H172.56V222.8h-4.172v12.516h-4.172v8.344h-4.172v12.516l4.17,4.172h0v25.032H151.7v8.344h-4.172v8.343h-4.173v8.344h-4.172v12.518h-4.172v12.514H376.987V322.934Z" fill="#f5f5f5"/></g></svg>