<svg xmlns="http://www.w3.org/2000/svg" width="512" height="335.454" viewBox="0 0 512 335.454"><g transform="translate(0 -88.273)"><path d="M170.667,423.721H8.828A8.829,8.829,0,0,1,0,414.893V97.1a8.829,8.829,0,0,1,8.828-8.828H170.667Z" fill="#73af00"/><rect width="170.67" height="335.45" transform="translate(170.67 88.277)" fill="#ff4b55"/><path d="M503.172,423.721H341.333V88.273H503.172A8.829,8.829,0,0,1,512,97.1V414.893A8.828,8.828,0,0,1,503.172,423.721Z" fill="#ffe15a"/><path d="M257.833,223.641l7.584,22.741,23.971.185a1.933,1.933,0,0,1,1.133,3.488L271.237,264.3l7.231,22.856a1.933,1.933,0,0,1-2.967,2.155L256,275.367l-19.5,13.94a1.933,1.933,0,0,1-2.967-2.155l7.231-22.856-19.284-14.24a1.933,1.933,0,0,1,1.133-3.488l23.971-.185,7.584-22.741A1.934,1.934,0,0,1,257.833,223.641Z" fill="#ffe15a"/></g></svg>