<svg xmlns="http://www.w3.org/2000/svg" width="512" height="335.454" viewBox="0 0 512 335.454"><g transform="translate(0 -88.273)"><path d="M170.667,423.721H8.828A8.829,8.829,0,0,1,0,414.893V97.1a8.829,8.829,0,0,1,8.828-8.828H170.667Z" fill="#f5f5f5"/><rect width="170.67" height="335.45" transform="translate(170.67 88.277)" fill="#4173cd"/><path d="M503.172,423.721H341.333V88.273H503.172A8.829,8.829,0,0,1,512,97.1V414.893A8.828,8.828,0,0,1,503.172,423.721Z" fill="#ffe15a"/><path d="M229.356,265.79c-.1,2.636-4.055,3.751-4.055,3.751-.4-4.46,4.157-12.671,5.068-13.38s4.562-4.055.913-3.346-7.2,8.92-8.009,10.339a3.167,3.167,0,0,1-2.737,1.318v-8.008c0-1.419,6.285-4.46,6.285-4.46s1.014-6.082.1-6.69-2.838,1.116-5.576,1.318-6.082.3-8.92,2.94-2.94,4.46-2.94,8.92v10.745c0,10.745-10.036,18.247-13.786,22a5.046,5.046,0,0,0-1.446,3.58c-.754.706-2.417,1.735-3.806,1.437-2.135-.459-2.453-4.213-2.453-6.41a1.216,1.216,0,0,0-2.432,0c0,7.432,3.164,8.755,5.048,8.884.1.007.207.01.313.01a7.37,7.37,0,0,0,3.706-1.181,35.037,35.037,0,0,0,2.69,6.048c.811,1.825-3.649,4.765-3.649,4.765l3.649,11.252h4.968c0-2.787-3.4-2.23-3.9-2.94s-1.114-7.147-1.114-7.147l7.048-5.9a2.4,2.4,0,0,0,.858-1.837V298.66s5.17.836,6.463,1.976.152,4.562.152,5.017,6.538,6.234,6.538,6.234h4.486c0-2.052-2.129-1.976-3.193-2.357s-4.257-4.333-4.257-4.333,1.724-5.347,1.724-6.665-7.4-6.69-7.4-6.69,1.014-1.724,8.515-6.387,6.893-9.934,6.893-9.934l6.488-7.3v-5.271A2.663,2.663,0,0,0,229.356,265.79Z" fill="#c17400"/><path d="M282.829,265.79c.1,2.636,4.055,3.751,4.055,3.751.4-4.46-4.157-12.671-5.068-13.38s-4.562-4.055-.913-3.346,7.2,8.92,8.009,10.339a3.167,3.167,0,0,0,2.737,1.318v-8.008c0-1.419-6.285-4.46-6.285-4.46s-1.014-6.082-.1-6.69,2.838,1.116,5.576,1.318,6.082.3,8.92,2.94,2.94,4.46,2.94,8.92v10.745c0,10.745,10.036,18.247,13.786,22a5.04,5.04,0,0,1,1.445,3.58c.754.706,2.417,1.735,3.806,1.437,2.135-.459,2.453-4.213,2.453-6.41a1.216,1.216,0,1,1,2.432,0c0,7.432-3.164,8.755-5.048,8.884-.1.007-.207.01-.313.01a7.369,7.369,0,0,1-3.706-1.181,35.038,35.038,0,0,1-2.69,6.048c-.811,1.825,3.649,4.765,3.649,4.765l-3.649,11.252H309.9c0-2.787,3.4-2.23,3.9-2.94s1.114-7.147,1.114-7.147l-7.048-5.9a2.4,2.4,0,0,1-.858-1.837V298.66s-5.17.836-6.463,1.976-.152,4.562-.152,5.017-6.538,6.234-6.538,6.234h-4.486c0-2.052,2.129-1.976,3.193-2.357s4.257-4.333,4.257-4.333-1.724-5.347-1.724-6.665,7.4-6.69,7.4-6.69-1.014-1.724-8.515-6.387-6.893-9.934-6.893-9.934l-6.488-7.3v-5.271A2.664,2.664,0,0,1,282.829,265.79Z" fill="#c17400"/><path d="M246.334,258.846l-7.3,7.3h14.6Z" fill="#c8c8c8"/><path d="M265.8,258.846l-7.3,7.3h14.6Z" fill="#c8c8c8"/><path d="M246.334,271.011l-7.3,7.3h14.6Z" fill="#c8c8c8"/><path d="M265.8,271.011l-7.3,7.3h14.6Z" fill="#c8c8c8"/><path d="M246.334,283.175l-7.3,7.3h14.6Z" fill="#c8c8c8"/><path d="M265.8,283.175l-7.3,7.3h14.6Z" fill="#c8c8c8"/><path d="M256.067,295.339l-7.3,7.3h14.6Z" fill="#c8c8c8"/><rect width="2.433" height="14.597" transform="translate(254.85 219.927)" fill="#ffe15a"/><path d="M242.723,234.812A7.646,7.646,0,0,1,244.3,228.2c2.216-2.4,6.247-3.132,11.965-2.178l-.4,2.4c-4.8-.8-8.178-.307-9.779,1.428a5.28,5.28,0,0,0-1.006,4.376Z" fill="#ffe15a"/><path d="M236.059,242.9c-3.04-1.521-4.534-5.935-3.263-9.641.533-1.554,2.929-6.49,11.345-4.8l-.478,2.386c-4.446-.9-7.561.282-8.565,3.208-.867,2.526.11,5.707,2.049,6.676Z" fill="#ffe15a"/><path d="M269.411,234.812l-2.359-.589,1.18.295-1.182-.29a5.263,5.263,0,0,0-1.018-4.4c-1.608-1.725-4.984-2.215-9.764-1.414l-.4-2.4c5.726-.956,9.75-.221,11.965,2.178A7.659,7.659,0,0,1,269.411,234.812Z" fill="#ffe15a"/><path d="M276.073,242.9l-1.088-2.176c1.939-.969,2.916-4.151,2.049-6.676-1-2.925-4.125-4.1-8.565-3.208l-.478-2.386c8.422-1.685,10.812,3.253,11.345,4.8C280.608,236.969,279.113,241.383,276.073,242.9Z" fill="#ffe15a"/><path d="M265.8,234.517a20.676,20.676,0,0,0-19.462,0c-4.866-2.433-12.164,0-12.164,4.866s7.3,12.164,7.3,12.164h29.2s7.3-7.3,7.3-12.164S270.664,232.084,265.8,234.517Z" fill="#ff4b55"/><rect width="4.866" height="2.433" transform="translate(253.64 221.137)" fill="#ffe15a"/><rect width="48.662" height="9.731" transform="translate(231.74 207.757)" fill="#c8c8c8"/><rect width="7.297" height="15.386" transform="matrix(0.316, 0.949, -0.949, 0.316, 235.455, 214.008)" fill="#c8c8c8"/><rect width="15.387" height="7.297" transform="matrix(0.949, 0.316, -0.316, 0.949, 276.701, 214.027)" fill="#c8c8c8"/><path d="M256.067,311.153c-14.085,0-25.546-7.094-25.546-15.813V253.981a3.653,3.653,0,0,1,3.649-3.649h43.792a3.653,3.653,0,0,1,3.649,3.649V295.34C281.612,304.059,270.152,311.153,256.067,311.153Zm-21.9-58.389a1.217,1.217,0,0,0-1.216,1.216v41.359c0,7.377,10.368,13.38,23.113,13.38s23.113-6,23.113-13.38V253.98a1.217,1.217,0,0,0-1.216-1.216H234.17Z" fill="#464655"/></g></svg>