<svg xmlns="http://www.w3.org/2000/svg" width="512" height="335.455" viewBox="0 0 512 335.455"><g transform="translate(0 -88.273)"><path d="M503.172,423.722H8.828A8.829,8.829,0,0,1,0,414.894V97.1a8.829,8.829,0,0,1,8.828-8.828H503.173A8.829,8.829,0,0,1,512,97.1V414.894A8.83,8.83,0,0,1,503.172,423.722Z" fill="#f5f5f5"/><rect width="282.48" height="335.45" transform="translate(114.76 88.278)" fill="#f5f5f5"/><path d="M8.828,88.274A8.828,8.828,0,0,0,0,97.1V414.894a8.829,8.829,0,0,0,8.828,8.828H114.759V88.274Z" fill="#ff4b55"/><path d="M503.172,88.274H397.241V423.722H503.172A8.829,8.829,0,0,0,512,414.894V97.1A8.828,8.828,0,0,0,503.172,88.274Z" fill="#ff4b55"/><path d="M309.569,294.758l52.383-29.932-12.02-6.01a8.827,8.827,0,0,1-4.8-9.063l3.911-29.322-22.177,6.452a8.827,8.827,0,0,1-11.085-6.569l-2.124-9.6-20.823,24.37A4.372,4.372,0,0,1,285.2,231.5l8.893-51.708-13.615,3.724a8.824,8.824,0,0,1-10.116-4.36l-14.337-26.871v-.04l-.01.02-.011-.02v.04l-14.337,26.871a8.83,8.83,0,0,1-10.118,4.36l-13.616-3.724,8.893,51.708a4.373,4.373,0,0,1-7.634,3.582l-20.823-24.37-2.124,9.6a8.827,8.827,0,0,1-11.085,6.569l-22.177-6.452,3.911,29.322a8.828,8.828,0,0,1-4.8,9.063l-12.02,6.01,52.383,29.933a12.745,12.745,0,0,1,5.615,15.53l-4.478,11.977,44.885-3.832A4.172,4.172,0,0,1,253,322.713l-1.414,48.044h8.828L259,322.711a4.172,4.172,0,0,1,4.525-4.279l44.906,3.834-4.478-11.977A12.748,12.748,0,0,1,309.569,294.758Z" fill="#ff4b55"/></g></svg>