<svg xmlns="http://www.w3.org/2000/svg" width="512" height="335.448" viewBox="0 0 512 335.448"><g transform="translate(0 -88.276)"><path d="M503.172,423.724H8.828A8.829,8.829,0,0,1,0,414.9V97.1a8.829,8.829,0,0,1,8.828-8.828H503.173A8.829,8.829,0,0,1,512,97.1V414.9A8.83,8.83,0,0,1,503.172,423.724Z" fill="#41479b"/><rect width="512" height="23.54" transform="translate(0 282.48)" fill="#f5f5f5"/><rect width="512" height="23.54" transform="translate(0 329.57)" fill="#f5f5f5"/><rect width="512" height="23.54" transform="translate(0 306.02)" fill="#ff4b55"/><path d="M169.649,234.664l2.708,8.118,8.557.066a.69.69,0,0,1,.4,1.245l-6.884,5.084,2.581,8.159a.69.69,0,0,1-1.059.769l-6.963-4.977-6.963,4.977a.69.69,0,0,1-1.059-.769l2.581-8.159-6.884-5.084a.69.69,0,0,1,.4-1.245l8.557-.066,2.708-8.118A.691.691,0,0,1,169.649,234.664Z" fill="#ffe15a"/><path d="M169.649,377.322l2.708,8.118,8.557.066a.69.69,0,0,1,.4,1.245l-6.884,5.084,2.581,8.159a.69.69,0,0,1-1.059.769l-6.963-4.977-6.963,4.977a.69.69,0,0,1-1.059-.769l2.581-8.159-6.884-5.084a.69.69,0,0,1,.4-1.245l8.557-.066,2.708-8.118A.691.691,0,0,1,169.649,377.322Z" fill="#ffe15a"/><path d="M123.342,385.293l6.881-5.088,7.041,4.864a.691.691,0,0,0,1.047-.787l-2.712-8.117,6.8-5.194a.69.69,0,0,0-.425-1.238l-8.557.071-2.838-8.074a.69.69,0,0,0-1.309.021l-2.577,8.161-8.555.2a.69.69,0,0,0-.384,1.251l6.965,4.972-2.45,8.2A.69.69,0,0,0,123.342,385.293Z" fill="#ffe15a"/><path d="M137.1,269.322l-6.987-4.941-6.937,5.012a.69.69,0,0,1-1.063-.765l2.54-8.172-6.91-5.049a.69.69,0,0,1,.4-1.247l8.557-.109,2.667-8.131a.69.69,0,0,1,1.309-.007l2.749,8.1,8.558.023a.689.689,0,0,1,.41,1.242l-6.859,5.118,2.623,8.147A.69.69,0,0,1,137.1,269.322Z" fill="#ffe15a"/><path d="M201.552,269.427l6.881-5.088,7.041,4.864a.691.691,0,0,0,1.047-.787l-2.712-8.117,6.8-5.194a.69.69,0,0,0-.425-1.238l-8.557.071-2.838-8.074a.69.69,0,0,0-1.309.021l-2.577,8.161-8.555.2a.69.69,0,0,0-.384,1.251l6.965,4.972-2.45,8.2A.69.69,0,0,0,201.552,269.427Z" fill="#ffe15a"/><path d="M215.315,385.188l-6.987-4.941-6.937,5.012a.69.69,0,0,1-1.063-.765l2.54-8.172-6.91-5.049a.69.69,0,0,1,.4-1.247l8.557-.109,2.667-8.131a.69.69,0,0,1,1.309-.007l2.749,8.105,8.558.023a.689.689,0,0,1,.41,1.242l-6.859,5.118,2.623,8.147A.689.689,0,0,1,215.315,385.188Z" fill="#ffe15a"/><path d="M113.107,335.327l-8.557.056-2.824-8.078a.69.69,0,0,0-1.309.019l-2.591,8.157-8.556.19a.69.69,0,0,0-.386,1.251l6.957,4.984-2.464,8.2a.69.69,0,0,0,1.07.754l6.89-5.076,7.033,4.876a.69.69,0,0,0,1.048-.785l-2.7-8.121,6.81-5.182A.69.69,0,0,0,113.107,335.327Z" fill="#ffe15a"/><path d="M89.271,291.342l8.556-.161,2.617-8.148a.69.69,0,0,1,1.309-.014l2.8,8.087,8.558-.029a.689.689,0,0,1,.418,1.24l-6.827,5.16,2.673,8.13a.69.69,0,0,1-1.05.781l-7.017-4.9L94.4,306.544a.69.69,0,0,1-1.068-.758l2.49-8.188-6.941-5.006A.69.69,0,0,1,89.271,291.342Z" fill="#ffe15a"/><path d="M248.7,291.027l-8.557.056-2.824-8.078a.69.69,0,0,0-1.309.019l-2.591,8.157-8.556.19a.69.69,0,0,0-.386,1.251l6.957,4.984-2.464,8.2a.69.69,0,0,0,1.07.755l6.89-5.076,7.033,4.876a.69.69,0,0,0,1.048-.785l-2.7-8.121,6.81-5.182A.691.691,0,0,0,248.7,291.027Z" fill="#ffe15a"/><path d="M224.864,335.642l8.556-.161,2.617-8.148a.69.69,0,0,1,1.309-.014l2.8,8.087,8.558-.029a.689.689,0,0,1,.418,1.24l-6.827,5.16,2.673,8.13a.69.69,0,0,1-1.05.781l-7.017-4.9-6.906,5.054a.69.69,0,0,1-1.068-.758l2.49-8.188-6.941-5.006A.69.69,0,0,1,224.864,335.642Z" fill="#ffe15a"/></g></svg>