<svg xmlns="http://www.w3.org/2000/svg" width="512" height="335.448" viewBox="0 0 512 335.448"><g transform="translate(0 -88.276)"><path d="M503.172,423.724H8.828A8.829,8.829,0,0,1,0,414.9V97.1a8.829,8.829,0,0,1,8.828-8.828H503.173A8.829,8.829,0,0,1,512,97.1V414.9A8.83,8.83,0,0,1,503.172,423.724Z" fill="#41479b"/><path d="M247.172,88.276H231.839l-81.77,53.573V88.276H105.931v53.573L24.161,88.276H8.828A8.829,8.829,0,0,0,0,97.1v7l70.155,45.963H0v44.138H70.155L0,240.171v7A8.829,8.829,0,0,0,8.828,256H24.161l81.77-53.573V256h44.138V202.427L231.838,256h15.333A8.829,8.829,0,0,0,256,247.172v-7l-70.154-45.963H256V150.069H185.844L256,104.106v-7A8.827,8.827,0,0,0,247.172,88.276Z" fill="#f5f5f5"/><path d="M256,158.9H141.241V88.276H114.758V158.9H0v26.482H114.758V256h26.483V185.379H256Z" fill="#ff4b55"/><path d="M97.1,150.069l-92.9-60.3A8.686,8.686,0,0,0,0,97.1v.458l80.889,52.507Z" fill="#ff4b55"/><path d="M166.283,150.069,254.657,92.7a8.7,8.7,0,0,0-7.485-4.427h-1.909l-95.194,61.793Z" fill="#ff4b55"/><path d="M89.474,194.207l-88.2,57.256A8.717,8.717,0,0,0,8.828,256h1.665l95.2-61.793Z" fill="#ff4b55"/><path d="M255.859,247.867l-82.666-53.659H156.98l93.873,60.934A8.739,8.739,0,0,0,255.859,247.867Z" fill="#ff4b55"/><path d="M383.827,172.219s-3.691-14.766-14.766-22.149c0,0,11.074,18.457,11.074,33.224Z" fill="#ffe15a"/><path d="M366.753,156.183s7.73,4.729,11.882,12.459l-3.346,7.73A80.892,80.892,0,0,0,366.753,156.183Z" fill="#ffe15a"/><path d="M358.217,157.914s13.382,4.153,19.726,12.8l-3.807,5.768A65.617,65.617,0,0,0,358.217,157.914Z" fill="#ffe15a"/><path d="M356.256,164.6s14.074,2.191,20.419,8.883l-1.615,6.345A72.642,72.642,0,0,0,356.256,164.6Z" fill="#ffe15a"/><path d="M356.718,169.219s13.612,1.385,19.842,8.536-2.307,4.96-2.307,4.96A65.695,65.695,0,0,0,356.718,169.219Z" fill="#ffe15a"/><path d="M383.827,172.219s3.691-14.766,14.766-22.149c0,0-11.074,18.457-11.074,33.224Z" fill="#ffe15a"/><path d="M400.9,156.183s-7.73,4.729-11.882,12.459l3.346,7.73A80.98,80.98,0,0,1,400.9,156.183Z" fill="#ffe15a"/><path d="M409.437,157.914s-13.382,4.153-19.726,12.8l3.807,5.768A65.616,65.616,0,0,1,409.437,157.914Z" fill="#ffe15a"/><path d="M411.4,164.6s-14.074,2.191-20.419,8.883l1.615,6.345A72.642,72.642,0,0,1,411.4,164.6Z" fill="#ffe15a"/><path d="M410.936,169.219s-13.612,1.385-19.842,8.536,2.307,4.96,2.307,4.96A65.695,65.695,0,0,1,410.936,169.219Z" fill="#ffe15a"/><path d="M383.827,150.069s-3.691,7.767,0,11.651C387.519,157.837,383.827,150.069,383.827,150.069Z" fill="#ffe15a"/><path d="M380.149,152s-.495,8.586,4.386,10.794C386.494,157.8,380.149,152,380.149,152Z" fill="#ffe15a"/><path d="M387.505,152s.495,8.586-4.386,10.794C381.16,157.8,387.505,152,387.505,152Z" fill="#ffe15a"/><path d="M388.714,156.95s-3.221,7.975-8.578,7.884C380.5,159.488,388.714,156.95,388.714,156.95Z" fill="#ffe15a"/><path d="M378.94,156.95s3.221,7.975,8.578,7.884C387.157,159.488,378.94,156.95,378.94,156.95Z" fill="#ffe15a"/><ellipse cx="11.08" cy="14.766" rx="11.08" ry="14.766" transform="translate(372.74 161.144)" fill="#ffd255"/><path d="M358.525,190.984l-2.538-3.923s-7.383,1.769-9.152-3.768l-2.846-.231s.384-3.768,3.691-4.307a6.328,6.328,0,0,1,5.537-2c3.538.461,5.384,3.46,7.422,4.23s2.269,3.307,2.269,3.307l15.535,15.919s-4.46,5.692-8.46,7.537S351.3,200.6,358.525,190.984Z" fill="#73af00"/><path d="M408.976,193.906s6.461,4.384,6.691,16.5H404.938s.116-8.191-1.961-12.574Z" fill="#73af00"/><path d="M407.592,194.368s8.075,2.654,13.036-3.691l-8.421-1.153Z" fill="#73af00"/><path d="M405.169,185.485l8.2,2.764a1.519,1.519,0,0,1,.674,2.445,36.914,36.914,0,0,1-27.37,11.9c-19.5,0-24.533-12.267-24.764-13.189s-1.269-8.421-1.269-8.421l8.306-.922Z" fill="#73af00"/><path d="M325.439,298.429h21.473L335.837,319.88l-11.074-14.767Z" fill="#ff4b55"/><path d="M442.215,298.429H420.743l11.074,21.451,11.074-14.767Z" fill="#ff4b55"/><path d="M325.35,334.646a35.853,35.853,0,0,1-19.117-5.981l8.536-12.052c.071.046,7.223,4.906,14.516,2.7,7.38-2.228,12.225-10.937,14.991-17.856l13.71,5.486c-5.816,14.542-14.112,23.479-24.651,26.569A28.253,28.253,0,0,1,325.35,334.646Z" fill="#ffd25a"/><path d="M442.3,334.646a35.853,35.853,0,0,0,19.117-5.981l-8.536-12.052c-.071.046-7.223,4.906-14.516,2.7-7.38-2.228-12.225-10.937-14.991-17.856l-13.71,5.486c5.816,14.542,14.112,23.479,24.651,26.569A28.258,28.258,0,0,0,442.3,334.646Z" fill="#ffd25a"/><path d="M431.817,257.123h-95.98v-35.47a8.829,8.829,0,0,1,8.828-8.828H422.99a8.829,8.829,0,0,1,8.828,8.828v35.47Z" fill="#ff4b55"/><path d="M362.024,238.666l-1.153-7.383c-5.422-.231-8.536-6.575-8.536-6.575l-4.384,2.422C352.564,238.205,362.024,238.666,362.024,238.666Z" fill="#ffe15a"/><path d="M419.819,231.052c1.615-1.23,5.153-1.692,5.153-1.692a4.166,4.166,0,0,0-5.306-.769c2.307-2.153,1-5.229,1-5.229,0,1-1.615,1.692-1.615,1.692.077-2-2-3.923-2-3.923l-1.077,1.769c-.692-1.692-3.153-3-3.153-3l-1,4.153c-2.307-2-6.383-1.846-6.383-1.846l.769,1.923c-2.461.076-9.152,1.461-13.075,1.922s-7.075-.615-7.075-2.383c0-1.482,3.428-1.665,4.911-1.687,1.049.234,2.368.612,4.222,1.169,3.46,1.038,5.487-.466,5.487-.466-1.212-.461-1.346-1-1.346-1a8.423,8.423,0,0,1,5.03-1.13c-.865-1.9-4.615-1.788-4.615-1.788a5.427,5.427,0,0,0,1.73-2.134,20.411,20.411,0,0,1-5.272,1.144,10.639,10.639,0,0,0-5.1,2.73c-2.309-.177-8.342-.25-7.281,3.933,1.308,5.153,11.69,3.307,18.073,2.307s9.69-.153,11.074.692-.589,3.712-7.075,2.538c-5.605-1.014-8.692-1.043-10.387-.865a28.4,28.4,0,0,0-4.61.865c-2.538.538-12.306,4-14.151-1s-10.844,8.152-10.844,8.152l.7.836-2.395-.567c-3.23,4.326-12.92,5.653-12.92,5.653s-1.442-2.6-2.654-2.942-1.73,1.557-1.73,1.557a1.6,1.6,0,0,0-1.557,1.385,1.215,1.215,0,0,0,1.038,1.442s-1.385,2.019.922,2.6c0,0-.173,2.826,3.23.865,10.11,1.274,17.482-3.917,20.674-6.749a15.75,15.75,0,0,0,7.839-1.23c4-2.077,8.613-4.692,11.3-3.691,0,0,2.154,6.614-6.306,6.767,0,0-1.251-1.582-2.51-1.582a1.04,1.04,0,0,0-.934,1.238s-1.476-.087-1.737.782c-.213.708.3,1.519,1.389,1.389,0,0-.738,1.086,0,1.737a1.389,1.389,0,0,0,1.651,0s-.391,1.346.521,1.476c.78.111,1.813-1.163,2.109-1.55,1.354.211,10.591,1.276,12.586-8.413a21.846,21.846,0,0,0,9.152,1.615c4.537-.384,9,.308,8.614,2.538-.5,1.617-1.495,1.51-1.495,1.51-1.086-.435-2.91-.391-3.17,1.173s1.867,1.607,1.867,1.607c.608,1.433,2.345.825,2.345.825a1.8,1.8,0,0,0,2.519-.087,1.366,1.366,0,0,0,1.954.13c.608-.521.267-4,.209-5.236-.1-2.063-.385-7.459-3.384-7.537s-6.845,1.692-12.151-2.769c-.277-.233-.547-.381-.821-.579,2.511.233,4.31.914,6.051,1.194C411.206,232.9,418.2,232.283,419.819,231.052Z" fill="#ffe15a"/><path d="M347.95,227.131a9.727,9.727,0,0,1-2.191-.173,1.4,1.4,0,0,1-.057-2.654s-1.6-1.085-.865-2.307a1.787,1.787,0,0,1,2.6-.4s-.487-1.609.921-2.14c1.12-.423,2.019.865,2.019,2.538,0,0,1.674-1.362,2.538-.461.6.628.429,1.453-.577,3.172C351.308,226.462,347.95,227.131,347.95,227.131Z" fill="#ffe15a"/><path d="M346.13,226.419s-.781,1.346-3.04.521c0,0,1.954-.913,2.215-1.694Z" fill="#41479b"/><path d="M345.3,222.466a5.081,5.081,0,0,0-2.562-.738s2-1.476,3.691-.173Z" fill="#41479b"/><path d="M348.128,220.382a2.558,2.558,0,0,0-.391-2.215s1.607.7,1.824,2Z" fill="#41479b"/><path d="M351.689,221.858s.781-1.737.087-2.562c0,0,2.084,1.216,1.216,3.214Z" fill="#41479b"/><path d="M347.62,241.161s-.836-1.711-1.914-1.705c0,0,2.268-.825,3.249,1.12Z" fill="#41479b"/><path d="M345.792,243.34s-1.491-1.186-2.462-.716c0,0,1.693-1.72,3.414-.386Z" fill="#41479b"/><path d="M346.84,246.417s-1.9-.021-2.383.946c0,0,.28-2.4,2.458-2.4Z" fill="#41479b"/><path d="M348.581,248.4s-.781,1.346-3.04.521c0,0,1.954-.913,2.215-1.694Z" fill="#41479b"/><path d="M382.908,247.711s-.64,1.1-2.49.427c0,0,1.5-.536,1.715-1.177Z" fill="#41479b"/><path d="M363.371,223.9a30.852,30.852,0,0,0-3.155,17.3,24.346,24.346,0,0,0,17.554-14.016,3.56,3.56,0,0,0,1.8-1.779c.429-1.068.394-2.827-1.663-2.817,0,0,.616-1.23,1.365-1.519a5.449,5.449,0,0,0-2.884-.173,4.417,4.417,0,0,0,1.212-2.769,9.351,9.351,0,0,1-3,1.326s-.116-1.9.346-2.134a6.731,6.731,0,0,0-3.634,1.5,4.046,4.046,0,0,1-.75-2.25,7.931,7.931,0,0,0-3.115,2.422,2.4,2.4,0,0,1-.634-1.5,14.673,14.673,0,0,0-1.961,3,1.965,1.965,0,0,0-2.191.808A1.842,1.842,0,0,0,363.371,223.9Z" fill="#ffd255"/><path d="M381.062,242.56a2.587,2.587,0,0,0-1.969-1.129s1.882-.868,3.069.376Z" fill="#41479b"/><path d="M411.594,246.078a2.8,2.8,0,0,0-1.585,1.867s-.553-2.167,1-3.182Z" fill="#41479b"/><path d="M413.858,246.874a3.693,3.693,0,0,0-.973,2.6s-1.261-1.846-.149-3.332Z" fill="#41479b"/><path d="M418.744,246.787a2.494,2.494,0,0,0,.625,2.174s-1.933-.615-1.97-2.3Z" fill="#41479b"/><path d="M416.448,247.2a2.793,2.793,0,0,0-.6,2.374,2.4,2.4,0,0,1-.575-2.934Z" fill="#41479b"/><path d="M379.488,244.457a2.589,2.589,0,0,0-2.216.49s.807-1.909,2.522-1.788Z" fill="#41479b"/><path d="M380.838,246.558a2.591,2.591,0,0,0-2.165.682s.177-1.842,1.9-1.87Z" fill="#41479b"/><path d="M431.817,263.073c-8.005,0-8.005,7.221-16.011,7.221s-8.005-7.221-16.011-7.221-8,7.221-16,7.221-7.993-7.221-15.986-7.221-7.992,7.221-15.983,7.221-7.994-7.221-15.989-7.221V249.741c7.994,0,7.994,7.221,15.989,7.221s7.992-7.221,15.983-7.221,7.993,7.221,15.986,7.221,8-7.221,16-7.221,8.006,7.221,16.011,7.221,8.006-7.221,16.011-7.221Z" fill="#f5f5f5"/><path d="M415.806,270.294c-8.005,0-8.005-7.221-16.011-7.221s-8,7.221-16,7.221-7.993-7.221-15.986-7.221-7.992,7.221-15.983,7.221-8-7.186-15.944-7.217a105.207,105.207,0,0,0,1.412,13.5c6.494.86,7.085,7.051,14.531,7.051,7.992,0,7.992-7.222,15.983-7.222s7.993,7.222,15.986,7.222,8-7.222,16-7.222,8.005,7.222,16.011,7.222c7.457,0,8.05-6.193,14.553-7.051a105.023,105.023,0,0,0,1.412-13.5C423.817,263.108,423.8,270.294,415.806,270.294Z" fill="#41479b"/><path d="M415.806,283.626c-8.005,0-8.005-7.222-16.011-7.222s-8,7.222-16,7.222S375.8,276.4,367.809,276.4s-7.992,7.222-15.983,7.222c-7.446,0-8.038-6.191-14.531-7.051a103.817,103.817,0,0,0,3.479,14.418c3.6,2.066,5.166,5.965,11.052,5.965,7.992,0,7.992-7.221,15.983-7.221s7.993,7.221,15.986,7.221,8-7.221,16-7.221,8.005,7.221,16.011,7.221c5.9,0,7.465-3.907,11.076-5.971a104.056,104.056,0,0,0,3.478-14.412C423.856,277.434,423.263,283.626,415.806,283.626Z" fill="#f5f5f5"/><path d="M415.806,296.958c-8.005,0-8.005-7.221-16.011-7.221s-8,7.221-16,7.221-7.993-7.221-15.986-7.221-7.992,7.221-15.983,7.221c-5.885,0-7.453-3.9-11.052-5.965a79.52,79.52,0,0,0,8.866,19.041,10.442,10.442,0,0,0,2.186.256c7.992,0,7.992-7.222,15.983-7.222s7.993,7.222,15.986,7.222,8-7.222,16-7.222,8.005,7.222,16.011,7.222a10.517,10.517,0,0,0,2.21-.258,79.575,79.575,0,0,0,8.866-19.044C423.272,293.05,421.7,296.958,415.806,296.958Z" fill="#41479b"/><path d="M415.806,310.29c-8.005,0-8.005-7.222-16.011-7.222s-8,7.222-16,7.222-7.993-7.222-15.986-7.222-7.992,7.222-15.983,7.222a10.442,10.442,0,0,1-2.186-.256,60.552,60.552,0,0,0,9.054,10.951c2.444-2.065,4.386-4.585,9.116-4.585,7.993,0,7.993,7.221,15.986,7.221s8-7.221,16-7.221c4.749,0,6.691,2.532,9.149,4.6a60.565,60.565,0,0,0,9.071-10.968A10.582,10.582,0,0,1,415.806,310.29Z" fill="#f5f5f5"/><path d="M408.944,321c-2.457-2.068-4.4-4.6-9.149-4.6-8,0-8,7.221-16,7.221S375.8,316.4,367.809,316.4c-4.73,0-6.671,2.52-9.116,4.585a55.291,55.291,0,0,0,25.133,13.661A55.277,55.277,0,0,0,408.944,321Z" fill="#41479b"/><path d="M399.8,249.741c-8,0-8,7.221-16,7.221s-7.993-7.221-15.986-7.221-7.992,7.221-15.983,7.221-7.994-7.221-15.989-7.221v11.074c0,.625.014,1.395.044,2.262,7.944.031,7.967,7.217,15.944,7.217,7.992,0,7.992-7.221,15.983-7.221s7.993,7.221,15.986,7.221,8-7.221,16-7.221,8.006,7.221,16.011,7.221c7.989,0,8.011-7.186,15.967-7.217.03-.868.044-1.638.044-2.262V249.741c-8.006,0-8.006,7.221-16.011,7.221S407.8,249.741,399.8,249.741Z" fill="#f5f5f5"/><path d="M428.126,212.825a3.691,3.691,0,0,1,3.691,3.691v44.3c0,.625-.014,1.395-.044,2.262a105.207,105.207,0,0,1-1.412,13.5,103.912,103.912,0,0,1-3.478,14.412,79.522,79.522,0,0,1-8.866,19.044A60.541,60.541,0,0,1,408.946,321a55.287,55.287,0,0,1-25.117,13.646A55.281,55.281,0,0,1,358.7,320.982a60.516,60.516,0,0,1-9.054-10.951,79.539,79.539,0,0,1-8.866-19.041,103.706,103.706,0,0,1-3.479-14.418,105.023,105.023,0,0,1-1.412-13.5c-.03-.868-.044-1.638-.044-2.262v-44.3a3.691,3.691,0,0,1,3.691-3.691h88.6m0-2.767h-88.6a6.468,6.468,0,0,0-6.461,6.461v44.3c0,.651.014,1.453.046,2.358a110.006,110.006,0,0,0,5.022,28.664,82.188,82.188,0,0,0,9.181,19.7,63.542,63.542,0,0,0,9.468,11.45,58.263,58.263,0,0,0,26.369,14.34l.672.168.671-.168a58.279,58.279,0,0,0,26.353-14.325,63.481,63.481,0,0,0,9.487-11.468,82.17,82.17,0,0,0,9.181-19.709,109.943,109.943,0,0,0,5.021-28.657c.031-.9.046-1.707.046-2.358v-44.3a6.466,6.466,0,0,0-6.459-6.46Z" fill="#f5f5f5"/><path d="M383.827,312.322,373.7,319.37l3.574-11.813-9.833-7.454,12.336-.251,4.053-11.658,4.053,11.658,12.336.251-9.832,7.454,3.574,11.813Z" fill="#73af00"/><path d="M383.827,290.473l3.517,10.115,10.708.218-8.535,6.471,3.1,10.251-8.791-6.118-8.791,6.118,3.1-10.251-8.534-6.47,10.708-.218,3.514-10.116m0-4.555-1.412,4.064-3.175,9.133-9.667.2-4.3.087L368.7,302l7.7,5.842-2.8,9.255-1.246,4.118,3.532-2.457,7.936-5.523,7.936,5.523,3.532,2.457-1.246-4.118-2.8-9.255,7.7-5.842,3.428-2.6-4.3-.087-9.667-.2-3.175-9.133-1.412-4.064Z" fill="#ffe15a"/><path d="M361.58,283.529l-10.13,7.047,3.574-11.812-9.834-7.455,12.338-.25L361.58,259.4l4.052,11.658,12.338.25-9.834,7.455,3.574,11.812Z" fill="#73af00"/><path d="M361.58,261.678l3.517,10.115,10.708.218-8.534,6.47,3.1,10.251-8.791-6.118-8.791,6.118,3.1-10.251-8.534-6.47,10.708-.218,3.513-10.115m0-4.555-1.412,4.064-3.175,9.133-9.667.2-4.3.087,3.428,2.6,7.7,5.842-2.8,9.255-1.246,4.118,3.532-2.457,7.936-5.523,7.936,5.523,3.532,2.457L371.8,288.3l-2.8-9.255,7.7-5.842,3.428-2.6-4.3-.087-9.667-.2-3.175-9.133-1.412-4.064Z" fill="#ffe15a"/><path d="M405.878,283.529l-10.129,7.047,3.573-11.812-9.833-7.455,12.336-.25,4.053-11.658,4.053,11.658,12.337.25-9.833,7.455,3.573,11.812Z" fill="#73af00"/><path d="M405.878,261.678l3.517,10.115,10.707.218-8.534,6.47,3.1,10.251-8.791-6.118-8.791,6.118,3.1-10.251-8.534-6.47,10.708-.218,3.514-10.115m0-4.555-1.412,4.064-3.175,9.133-9.667.2-4.3.087,3.428,2.6,7.7,5.842-2.8,9.255-1.246,4.118,3.532-2.457,7.936-5.523,7.936,5.523,3.532,2.457L416.1,288.3l-2.8-9.255,7.7-5.842,3.428-2.6-4.3-.087-9.667-.2-3.175-9.133-1.412-4.064Z" fill="#ffe15a"/><path d="M442.215,298.429a62.667,62.667,0,0,1-116.776,0L311.7,303.8a77.41,77.41,0,0,0,144.252,0Z" fill="#ffe15a"/><path d="M391.21,212.825H380.136l-3.692-11.074h11.075Z" fill="#f5f5f5"/><path d="M409.668,212.825h-7.383l-2.461-7.383h3.37a5.568,5.568,0,0,1,5.282,3.807Z" fill="#f5f5f5"/><path d="M369.061,212.825h-7.383l-.842-2.525a3.691,3.691,0,0,1,3.5-4.858H366.6Z" fill="#f5f5f5"/><path d="M402.284,212.825H391.21l-3.691-11.074h8.414a3.691,3.691,0,0,1,3.5,2.525Z" fill="#41479b"/><path d="M380.136,212.825H369.062l-2.494-7.48a2.731,2.731,0,0,1,2.591-3.594h7.286Z" fill="#41479b"/><path d="M410.936,187.216c-2.884,4.153-10.959,9.113-24.11,9.113a27.563,27.563,0,0,1-20.132-9.123,3.368,3.368,0,0,1-.863-2.278V182.41a3,3,0,0,1,1.5-2.614c2.344-1.364,7.762-3.54,18.458-3.54C399.055,176.256,410.936,187.216,410.936,187.216Z" fill="#509664"/></g></svg>