<svg xmlns="http://www.w3.org/2000/svg" width="512" height="335.454" viewBox="0 0 512 335.454"><g transform="translate(0 -88.273)"><path d="M503.172,423.721H8.828A8.829,8.829,0,0,1,0,414.893V339.859H512v75.034A8.827,8.827,0,0,1,503.172,423.721Z" fill="#ffe15a"/><rect width="512" height="83.86" transform="translate(0 255.997)" fill="#73af00"/><rect width="512" height="83.86" transform="translate(0 172.137)" fill="#f5f5f5"/><path d="M512,172.135H0V97.1a8.829,8.829,0,0,1,8.828-8.828H503.173A8.829,8.829,0,0,1,512,97.1v75.034Z" fill="#41479b"/><rect width="83.86" height="335.45" transform="translate(214.07 88.277)" fill="#ff4b55"/><path d="M76.5,99.571l7.366,22.087,23.282.181a1.877,1.877,0,0,1,1.1,3.388l-18.73,13.83,7.022,22.2a1.877,1.877,0,0,1-2.881,2.093L74.718,149.81,55.777,163.348a1.877,1.877,0,0,1-2.881-2.093l7.022-22.2-18.727-13.83a1.878,1.878,0,0,1,1.1-3.388l23.282-.181,7.366-22.087A1.877,1.877,0,0,1,76.5,99.571Z" fill="#ffe15a"/></g></svg>