<svg xmlns="http://www.w3.org/2000/svg" width="512" height="335.45" viewBox="0 0 512 335.45"><g transform="translate(0 -88.275)"><path d="M512,256H0V97.1a8.829,8.829,0,0,1,8.828-8.828H503.173A8.829,8.829,0,0,1,512,97.1V256Z" fill="#f5f5f5"/><path d="M17.655,256v-8.828H0V414.9a8.829,8.829,0,0,0,8.828,8.828H503.173A8.829,8.829,0,0,0,512,414.9V256Z" fill="#ff4b55"/><path d="M158.9,256H8.828A8.829,8.829,0,0,1,0,247.172V97.1a8.829,8.829,0,0,1,8.828-8.828H158.9a8.829,8.829,0,0,1,8.828,8.828V247.172A8.829,8.829,0,0,1,158.9,256Z" fill="#41479b"/><path d="M87.262,134.487l8.416,25.234,26.6.206a3.584,3.584,0,0,1,2.1,6.467l-21.4,15.8L111,207.557a3.585,3.585,0,0,1-5.5,4l-21.64-15.467L62.221,211.555a3.585,3.585,0,0,1-5.5-4L64.742,182.2l-21.4-15.8a3.584,3.584,0,0,1,2.1-6.467l26.6-.206,8.416-25.234A3.585,3.585,0,0,1,87.262,134.487Z" fill="#f5f5f5"/></g></svg>