<svg xmlns="http://www.w3.org/2000/svg" width="512" height="335.449" viewBox="0 0 512 335.449"><g transform="translate(0 -88.276)"><path d="M503.172,423.725H8.828A8.829,8.829,0,0,1,0,414.9V97.1a8.829,8.829,0,0,1,8.828-8.828H503.173A8.829,8.829,0,0,1,512,97.1V414.9A8.83,8.83,0,0,1,503.172,423.725Z" fill="#ff4b55"/><path d="M85.007,140.733l8.416,25.234,26.6.206a3.584,3.584,0,0,1,2.1,6.467l-21.4,15.8,8.023,25.362a3.585,3.585,0,0,1-5.5,4l-21.64-15.469L59.967,217.8a3.585,3.585,0,0,1-5.5-4l8.023-25.362-21.4-15.8a3.584,3.584,0,0,1,2.1-6.467l26.6-.206,8.416-25.234A3.584,3.584,0,0,1,85.007,140.733Z" fill="#ffe15a"/><path d="M181.6,146.951l6.035,8.23,9.739-3.046a1.375,1.375,0,0,1,1.526,2.115l-5.962,8.281,5.906,8.321a1.375,1.375,0,0,1-1.54,2.1l-9.719-3.111-6.089,8.189a1.375,1.375,0,0,1-2.478-.814l-.045-10.205-9.67-3.261a1.375,1.375,0,0,1,.009-2.609l9.69-3.2.114-10.2A1.375,1.375,0,0,1,181.6,146.951Z" fill="#ffe15a"/><path d="M144.857,122.421l10.145,1.1,4.328-9.241a1.375,1.375,0,0,1,2.591.3l2.086,9.988,10.126,1.26a1.375,1.375,0,0,1,.513,2.558l-8.855,5.07,1.931,10.02a1.375,1.375,0,0,1-2.274,1.279l-7.559-6.855-8.932,4.932a1.375,1.375,0,0,1-1.919-1.768l4.183-9.308-7.452-6.972A1.373,1.373,0,0,1,144.857,122.421Z" fill="#ffe15a"/><path d="M160.9,221.314l-6.035,8.23-9.739-3.046a1.375,1.375,0,0,0-1.526,2.115l5.962,8.281-5.906,8.321a1.375,1.375,0,0,0,1.54,2.1l9.719-3.111L161,252.4a1.375,1.375,0,0,0,2.478-.814l.045-10.205,9.67-3.261a1.375,1.375,0,0,0-.009-2.609l-9.69-3.2-.114-10.2A1.375,1.375,0,0,0,160.9,221.314Z" fill="#ffe15a"/><path d="M197.635,198.263l-10.145,1.1-4.328-9.241a1.375,1.375,0,0,0-2.591.3l-2.087,9.988-10.126,1.26a1.375,1.375,0,0,0-.513,2.558l8.855,5.07-1.931,10.02a1.375,1.375,0,0,0,2.274,1.279l7.559-6.855,8.932,4.932a1.375,1.375,0,0,0,1.919-1.768L191.27,207.6l7.452-6.972A1.372,1.372,0,0,0,197.635,198.263Z" fill="#ffe15a"/></g></svg>