<svg xmlns="http://www.w3.org/2000/svg" width="512" height="335.448" viewBox="0 0 512 335.448"><g transform="translate(0 -88.276)"><path d="M8.828,88.276H503.173A8.829,8.829,0,0,1,512,97.1V414.9a8.829,8.829,0,0,1-8.828,8.828H8.828A8.829,8.829,0,0,1,0,414.9V97.1A8.829,8.829,0,0,1,8.828,88.276Z" fill="#41479b"/><path d="M508.743,421.591,3.256,90.41a8.676,8.676,0,0,1,5.571-2.134H503.172A8.829,8.829,0,0,1,512,97.1V414.9A8.683,8.683,0,0,1,508.743,421.591Z" fill="#73af00"/><circle cx="52.965" cy="52.965" r="52.965" transform="translate(203.035 203.035)" fill="#ffe15a"/><path d="M38.615,256.6l3.064,7.761,7.978-2.443a.511.511,0,0,1,.593.744l-4.158,7.234,6.884,4.714a.511.511,0,0,1-.212.927l-8.248,1.26.607,8.321a.511.511,0,0,1-.856.413l-6.127-5.663-6.127,5.663a.511.511,0,0,1-.856-.413l.607-8.321-8.248-1.26a.511.511,0,0,1-.212-.927l6.884-4.714-4.158-7.234a.512.512,0,0,1,.593-.744l7.978,2.443,3.064-7.761A.511.511,0,0,1,38.615,256.6Z" fill="#f5f5f5"/><path d="M150.192,235.677l3.064,7.761L161.234,241a.511.511,0,0,1,.593.744l-4.158,7.234,6.884,4.714a.511.511,0,0,1-.212.927l-8.248,1.26.607,8.321a.511.511,0,0,1-.856.413l-6.127-5.663-6.127,5.663a.511.511,0,0,1-.856-.413l.607-8.321-8.248-1.26a.511.511,0,0,1-.212-.927l6.884-4.714-4.158-7.234A.512.512,0,0,1,138.2,241l7.978,2.443,3.064-7.761A.51.51,0,0,1,150.192,235.677Z" fill="#f5f5f5"/><path d="M94.4,185.366l3.064,7.761,7.978-2.443a.511.511,0,0,1,.593.744l-4.158,7.234,6.884,4.714a.511.511,0,0,1-.212.927l-8.248,1.26.607,8.321a.511.511,0,0,1-.856.413l-6.127-5.663L87.8,214.3a.511.511,0,0,1-.856-.413l.607-8.321L79.3,204.3a.511.511,0,0,1-.212-.927l6.884-4.714-4.158-7.234a.512.512,0,0,1,.593-.744l7.978,2.443,3.064-7.761A.511.511,0,0,1,94.4,185.366Z" fill="#f5f5f5"/><path d="M94.4,368.175l3.064,7.761,7.978-2.443a.511.511,0,0,1,.593.744l-4.158,7.234,6.884,4.714a.511.511,0,0,1-.212.927l-8.248,1.26.607,8.321a.511.511,0,0,1-.856.413l-6.127-5.663L87.8,397.106a.511.511,0,0,1-.856-.413l.607-8.321-8.248-1.26a.511.511,0,0,1-.212-.927l6.884-4.714-4.158-7.234a.512.512,0,0,1,.593-.744l7.978,2.443,3.064-7.761A.511.511,0,0,1,94.4,368.175Z" fill="#f5f5f5"/><path d="M117.239,263.62l2.138,6.413,6.761.052a.545.545,0,0,1,.32.983l-5.439,4.017,2.039,6.445a.545.545,0,0,1-.836.608l-5.5-3.932-5.5,3.932a.545.545,0,0,1-.836-.608l2.039-6.445-5.439-4.017a.545.545,0,0,1,.32-.983l6.761-.052,2.138-6.413A.545.545,0,0,1,117.239,263.62Z" fill="#f5f5f5"/><path d="M224.574,233.216c-2.166-.505-4.343,5.067-1.93,7s6.756,5.549,4.1,7.721-3.619,2.413-4.1,5.067,0,3.137-2.172,4.343-7.239,3.619-5.067,6.033,5.067.966,7-2.895c0,0,13.512-.482,13.995.482s1.689,4.585,4.585,3.619l2.9-.966a2.552,2.552,0,0,1,2.9.724c1.206,1.448,4.1,1.93,7.48,1.93s6.273,1.93,6.033,6.515c-.154,2.937-.9,9.043-1.421,13.052a4.019,4.019,0,0,0,3.33,4.478l6.178,1.03a2.821,2.821,0,0,0,3.281-2.53c.29-3.3.711-8.137.7-8.308-.139-1.735,3.378-10.616,3.137-14.719l-.242-4.1s3.619-.482,5.067-2.895,4.585-8.445,10.858-10.616l1.689-4.1s-4.825-2.172-3.861-3.619,1.448-5.309.724-8.445a53.926,53.926,0,0,1-.966-7.48s-1.72-.727-2.083.273-.727,1.544-1.635,1.363-2.271-.273-2.634-1.09-1.363-1.635-2.271-1.181-2.453,6.54-4.632,7.176c0,0-.182-2.634-1.544-2.089s-1.272,1.816-1.453,4.087-15.443,17.622-28.8,13.535c0,0-1.453-2.906-4.451-2.634s-5.9.182-7.63-1.908S227.151,233.819,224.574,233.216Z" fill="#73af00"/><path d="M322.836,258.457c4.024,4.276,48.239,16.317,92.932-7.094s71.295-30.149,71.295-30.149.354-6.03,5.853-6.916,2.838-3.192,1.419-4.965S486,202.771,476.6,206.85c0,0-10.936.414-12.591-14.72s-2.365-30.505-6.148-37.125-35-39.726-38.781-37.125,9.459,35.47,21.756,47.058c0,0,2.838,20.337-.71,21.282s-23.173-17.026-58.171-21.282c0,0,14.9,20.337,33.106,28.85s23.173,16.317,22.7,19.627-6.621,19.154-16.789,26.485-35.706,27.193-93.642,16.789C327.329,256.684,320.945,256.448,322.836,258.457Z" fill="#ffe15a"/></g></svg>