<svg xmlns="http://www.w3.org/2000/svg" width="512" height="335.448" viewBox="0 0 512 335.448"><g transform="translate(0 -88.276)"><path d="M503.172,423.724H8.828A8.829,8.829,0,0,1,0,414.9V97.1a8.829,8.829,0,0,1,8.828-8.828H503.173A8.829,8.829,0,0,1,512,97.1V414.9A8.83,8.83,0,0,1,503.172,423.724Z" fill="#73af00"/><path d="M283.615,307.645a51.645,51.645,0,1,1,0-103.29A49.021,49.021,0,0,1,294.6,205.62a1.269,1.269,0,0,0,.927-2.329,61.973,61.973,0,1,0,0,105.418,1.269,1.269,0,0,0-.925-2.329A49.071,49.071,0,0,1,283.615,307.645Z" fill="#ffe15a"/><path d="M328.629,212.272l3.879,9.824,10.1-3.093a.647.647,0,0,1,.75.941L338.1,229.1l8.715,5.967a.647.647,0,0,1-.268,1.173l-10.441,1.6.768,10.533a.647.647,0,0,1-1.084.522l-7.756-7.168-7.756,7.168a.647.647,0,0,1-1.084-.522l.768-10.533-10.441-1.6a.647.647,0,0,1-.268-1.173l8.715-5.967-5.262-9.158a.647.647,0,0,1,.75-.941l10.1,3.093,3.879-9.824A.644.644,0,0,1,328.629,212.272Z" fill="#ffe15a"/><path d="M469.87,185.789l3.879,9.824,10.1-3.093a.647.647,0,0,1,.75.941l-5.262,9.158,8.715,5.967a.647.647,0,0,1-.268,1.173l-10.441,1.6.768,10.534a.647.647,0,0,1-1.084.522l-7.756-7.168-7.756,7.168a.647.647,0,0,1-1.084-.522l.768-10.534-10.441-1.6a.647.647,0,0,1-.268-1.173l8.715-5.967-5.262-9.158a.647.647,0,0,1,.75-.941l10.1,3.093,3.879-9.824A.645.645,0,0,1,469.87,185.789Z" fill="#ffe15a"/><path d="M399.25,122.1l3.879,9.824,10.1-3.093a.647.647,0,0,1,.75.941l-5.262,9.158,8.715,5.967a.647.647,0,0,1-.268,1.173l-10.441,1.6.768,10.533a.647.647,0,0,1-1.084.522l-7.756-7.168-7.756,7.168a.647.647,0,0,1-1.084-.522l.768-10.533-10.441-1.6a.647.647,0,0,1-.268-1.173l8.715-5.967-5.262-9.158a.647.647,0,0,1,.75-.941l10.1,3.093,3.879-9.824A.644.644,0,0,1,399.25,122.1Z" fill="#ffe15a"/><path d="M399.25,353.513l3.879,9.824,10.1-3.093a.647.647,0,0,1,.75.941l-5.262,9.158,8.715,5.967a.647.647,0,0,1-.268,1.173l-10.441,1.6.768,10.533a.647.647,0,0,1-1.084.522l-7.756-7.168-7.756,7.168a.647.647,0,0,1-1.084-.522l.768-10.533-10.441-1.6a.647.647,0,0,1-.268-1.173l8.715-5.967-5.262-9.158a.647.647,0,0,1,.75-.941l10.1,3.093,3.879-9.824A.645.645,0,0,1,399.25,353.513Z" fill="#ffe15a"/><path d="M428.157,221.162l2.708,8.118,8.557.066a.69.69,0,0,1,.4,1.245l-6.884,5.084,2.581,8.159a.69.69,0,0,1-1.059.769l-6.963-4.977-6.963,4.977a.69.69,0,0,1-1.059-.769l2.581-8.159-6.884-5.084a.69.69,0,0,1,.4-1.245l8.557-.066,2.708-8.118A.691.691,0,0,1,428.157,221.162Z" fill="#ffe15a"/><circle cx="57.38" cy="57.38" r="57.38" transform="translate(35.31 123.59)" fill="#ffe15a"/><path d="M86.788,225.67h15.5s8.8-39.444.7-53.531l-4.93,3.169S106.158,202.425,86.788,225.67Z" fill="#964b50"/><path d="M87.375,173.9s-8.921,6.1-6.1,24.183c0,0,6.808-5.635,10.565-18.079,0,0-5.4,10.33,2.113,18.548,0,0,7.982-11.27,6.808-21.131,0,0,26.539,27.714,20.9,20.661-.939-1.174,1.409-12.914-7.748-22.539,0,0,15.027,3.756,20.661,2.348,0,0,.47-11.975-13.853-14.088L124,154.411s-11.034-.7-16.9,4.93c0,0-1.409-14.557,4.461-21.6,0,0-17.374-2.583-18.079,20.192,0,0-6.339-14.557-25.826-11.034,0,0,11.034,7.982,12.914,11.505,0,0-15.5-10.565-22.774,4.226,0,0,12.444-3.287,16.9,2.583,0,0-19.957-2.113-21.6,15.027C53.1,180.239,71.645,171.551,87.375,173.9Z" fill="#73af00"/></g></svg>