<svg xmlns="http://www.w3.org/2000/svg" width="511.902" height="335.4" viewBox="0 0 511.902 335.4"><g transform="translate(0 -88.3)"><path d="M503.2,423.7H8.8A8.813,8.813,0,0,1,0,414.9V97.1a8.813,8.813,0,0,1,8.8-8.8H503.1a8.813,8.813,0,0,1,8.8,8.8V414.9A8.665,8.665,0,0,1,503.2,423.7Z" fill="#004990"/><path d="M280.8,317.8c0-.2-.3-.3-.5-.3-.3.1-.7.2-1,.3h0a.55.55,0,0,0-.3.5l5,30.2,10.1,29.1a.55.55,0,0,0,.5.3l1-.2c.2-.1.4-.3.3-.5l-5.1-30.4Z" fill="#ffd51d"/><path d="M247.8,197.2a.55.55,0,0,0,.5.3l1-.3c.2,0,.3-.2.3-.4l-5.1-30.5-10-28.8c0-.2-.3-.3-.5-.3-.3.1-.7.2-1,.3h0c-.2,0-.3.3-.3.5l5.1,30.1Z" fill="#ffd51d"/><path d="M271.2,319.7a.458.458,0,0,0-.5-.4,3.749,3.749,0,0,1-1.1.1.43.43,0,0,0-.4.4l.3,30.5,5.4,30.3c0,.2.2.4.4.3l1-.1a.43.43,0,0,0,.4-.4l-.3-30.8Z" fill="#ffd51d"/><path d="M257.5,195.3c.1.2.2.4.5.4l1-.1a.43.43,0,0,0,.4-.4l-.3-30.8-5.3-30a.35.35,0,0,0-.5-.3,3.749,3.749,0,0,1-1.1.1h0a.43.43,0,0,0-.4.4L252,165Z" fill="#ffd51d"/><path d="M261,319.6h-1.1a.55.55,0,0,0-.5.3l-4.5,30.2.6,30.8a.43.43,0,0,0,.4.4h1a.55.55,0,0,0,.5-.3l4.6-30.5-.6-30.5a.43.43,0,0,0-.4-.4" fill="#ffd51d"/><path d="M267.7,195.4l1,.1a.366.366,0,0,0,.4-.4l4.6-30.5-.6-30.5a.43.43,0,0,0-.4-.4,3.4,3.4,0,0,1-1-.1.366.366,0,0,0-.4.4l-4.5,30.2.6,30.8c-.1.2.1.4.3.4" fill="#ffd51d"/><path d="M250.3,318.1h0a.55.55,0,0,0-.5.3l-9.2,29.1L236.4,378c0,.2.1.4.3.4l1,.2a.55.55,0,0,0,.5-.3l9.3-29.5,4.2-30.2a.462.462,0,0,0-.3-.5,2.045,2.045,0,0,1-1.1,0" fill="#ffd51d"/><path d="M278.3,196.9c.2.1.4-.1.5-.3l9.3-29.4,4.2-30.2a.55.55,0,0,0-.3-.5c-.3-.1-.7-.1-1-.2h0a.55.55,0,0,0-.5.3l-9.2,29.1-4.2,30.5a.55.55,0,0,0,.3.5Z" fill="#ffd51d"/><path d="M242,315.5a4.18,4.18,0,0,1-1-.4h0a.365.365,0,0,0-.5.2l-13.6,27.3L218,372.1a.365.365,0,0,0,.2.5l1,.4a.365.365,0,0,0,.5-.2l13.7-27.6,8.8-29.2a.365.365,0,0,0-.2-.5" fill="#ffd51d"/><path d="M286.7,199.5l1,.4c.2.1.4,0,.6-.2L302,172.1l8.8-29.1c.1-.2,0-.4-.3-.5a4.18,4.18,0,0,1-1-.4h0a.365.365,0,0,0-.5.2l-13.6,27.3-8.9,29.5c-.1.1,0,.3.2.4" fill="#ffd51d"/><path d="M233.3,311.9a.481.481,0,0,0-.2-.6,4.053,4.053,0,0,1-.9-.5h0a.44.44,0,0,0-.5.1L214,335.8l-13.4,27.7a.365.365,0,0,0,.2.5l.9.5a.471.471,0,0,0,.6-.1l17.9-25.2Z" fill="#ffd51d"/><path d="M295.3,203.2a.365.365,0,0,0,.2.5l.9.5a.471.471,0,0,0,.6-.1L314.9,179l13.3-27.4a.365.365,0,0,0-.2-.5,4.054,4.054,0,0,0-.9-.5c-.2-.2-.4-.1-.5.1l-17.7,24.9Z" fill="#ffd51d"/><path d="M225.2,306.3a.471.471,0,0,0-.1-.6,2.7,2.7,0,0,1-.8-.7h0a.637.637,0,0,0-.6,0l-21.4,21.8-17.6,25.3c-.1.2-.1.4.1.5l.8.7a.637.637,0,0,0,.6,0l21.6-22Z" fill="#ffd51d"/><path d="M303.4,208.7a.471.471,0,0,0,.1.6l.8.7a.637.637,0,0,0,.6,0l21.6-22,17.4-25a.471.471,0,0,0-.1-.6,2.7,2.7,0,0,1-.8-.7h0a.471.471,0,0,0-.6.1L321,183.4Z" fill="#ffd51d"/><path d="M218.1,299.6a.452.452,0,0,0,0-.6,5.718,5.718,0,0,1-.7-.8h0c-.1-.2-.4-.2-.6-.1l-24.6,18.1-21.3,22.2a.375.375,0,0,0,0,.6l.7.8a.283.283,0,0,0,.5,0l24.8-18.3Z" fill="#ffd51d"/><path d="M310.6,215.4a.375.375,0,0,0,0,.6l.7.8c.1.1.4.2.5.1l24.8-18.4,21.1-22a.629.629,0,0,0,0-.6,2.7,2.7,0,0,1-.7-.8c-.1-.2-.4-.2-.6-.1l-24.6,18.2Z" fill="#ffd51d"/><path d="M212,291.9c.2-.1.2-.4.1-.6a4.054,4.054,0,0,1-.5-.9h0c-.1-.2-.3-.2-.5-.1L184,304.4,159.5,323a.471.471,0,0,0-.1.6l.6.9c.1.2.4.3.5.2l27.4-14.2Z" fill="#ffd51d"/><path d="M316.6,223.1c-.2.1-.2.4-.1.6l.6.9a.365.365,0,0,0,.5.2L345,210.5l24.3-18.4c.2-.1.2-.4.1-.6l-.6-.9h0c-.1-.2-.3-.2-.5-.1l-27.1,14.1Z" fill="#ffd51d"/><path d="M207.3,283.3a.445.445,0,0,0,.2-.6,10.37,10.37,0,0,1-.4-1h0a.365.365,0,0,0-.5-.2l-28.9,9.7-27.1,14.5a.365.365,0,0,0-.2.5l.4,1a.365.365,0,0,0,.5.2l29.2-9.8Z" fill="#ffd51d"/><path d="M204,274a.55.55,0,0,0,.3-.5c-.1-.3-.2-.7-.3-1a.55.55,0,0,0-.5-.3l-30.1,5-29.1,10.1a.55.55,0,0,0-.3.5l.3,1a.462.462,0,0,0,.5.3l30.4-5.1Z" fill="#ffd51d"/><path d="M202.1,264.4a.43.43,0,0,0,.4-.4c0-.4-.1-.7-.1-1.1h0a.43.43,0,0,0-.4-.4l-30.5.3-30.3,5.4a.35.35,0,0,0-.3.5l.1,1a.43.43,0,0,0,.4.4l30.9-.3Z" fill="#ffd51d"/><path d="M171.4,255.2l30.5-.6a.43.43,0,0,0,.4-.4,4.484,4.484,0,0,1,.1-1.1h0c0-.2-.1-.4-.3-.4l-30.2-4.5-30.8.6a.43.43,0,0,0-.4.4l-.1,1a.462.462,0,0,0,.3.5Z" fill="#ffd51d"/><path d="M172.9,240.7l30.2,4.2a.55.55,0,0,0,.5-.3c.1-.3.1-.7.2-1h0c.1-.2-.1-.4-.3-.5l-29.2-9.2-30.5-4.2c-.2,0-.4.1-.4.3l-.2,1c-.1.2.1.4.3.5Z" fill="#ffd51d"/><path d="M176.6,226.6l29.1,8.8a.338.338,0,0,0,.5-.3,4.18,4.18,0,0,1,.4-1h0a.365.365,0,0,0-.2-.5L179.2,220l-29.5-8.9a.365.365,0,0,0-.5.2l-.4,1a.365.365,0,0,0,.2.5Z" fill="#ffd51d"/><path d="M182.5,213.2l27.4,13.3a.481.481,0,0,0,.6-.2,4.054,4.054,0,0,0,.5-.9h0a.471.471,0,0,0-.1-.6L186,207l-27.7-13.4a.44.44,0,0,0-.5.1l-.5.9c-.1.2-.1.4.1.5Z" fill="#ffd51d"/><path d="M346.4,301.9l-27.7-13.4a.365.365,0,0,0-.5.2l-.5.9c-.1.2-.1.4.1.5L342.9,308l27.4,13.3c.2.1.4.1.6-.2a4.053,4.053,0,0,1,.5-.9h0a.471.471,0,0,0-.1-.6Z" fill="#ffd51d"/><path d="M190.5,201l25,17.4a.471.471,0,0,0,.6-.1,2.7,2.7,0,0,1,.7-.8h0a.637.637,0,0,0,0-.6L195,195.5l-25.3-17.6a.471.471,0,0,0-.6.1l-.7.8a.629.629,0,0,0,0,.6Z" fill="#ffd51d"/><path d="M338.4,314.2l-25.3-17.6c-.2-.1-.4-.1-.5.1l-.7.8a.637.637,0,0,0,0,.6l22,21.6,25,17.4c.2.1.5.1.6-.1a2.7,2.7,0,0,1,.7-.8h0a.446.446,0,0,0,0-.5Z" fill="#ffd51d"/><path d="M222.2,211.2c.1.2.4.2.6,0a5.008,5.008,0,0,1,.8-.7h0a.614.614,0,0,0,.1-.6l-18.2-24.6L183.3,164a.375.375,0,0,0-.6,0l-.8.7a.471.471,0,0,0-.1.6l18.4,24.8Z" fill="#ffd51d"/><path d="M306.4,303.8a.375.375,0,0,0-.6,0l-.8.7a.614.614,0,0,0-.1.6l18.4,24.8,22,21.1a.375.375,0,0,0,.6,0c.3-.2.5-.5.8-.7h0a.348.348,0,0,0,.1-.5l-18.1-24.6Z" fill="#ffd51d"/><path d="M211.6,180.9,230,205.2c.1.2.4.2.6.1l.9-.6c.2-.1.2-.4.2-.6L217.6,177,199,152.5a.348.348,0,0,0-.5-.1l-.9.5c-.2.1-.2.3-.2.6Z" fill="#ffd51d"/><path d="M298.7,309.8a.348.348,0,0,0-.5-.1l-.9.5c-.1.1-.2.4-.1.5l14.2,27.4,18.4,24.3c.1.2.4.2.6.1l.9-.6h0c.2-.1.2-.3.1-.5l-14.1-27.1Z" fill="#ffd51d"/><path d="M238.5,200.5a.365.365,0,0,0,.5.2,4.179,4.179,0,0,1,1-.4.365.365,0,0,0,.2-.5l-9.7-29L216,143.6c-.1-.2-.3-.3-.5-.1l-1,.4a.365.365,0,0,0-.2.5l9.8,29.2Z" fill="#ffd51d"/><path d="M290.1,314.5a.365.365,0,0,0-.5-.2l-1,.4a.365.365,0,0,0-.2.5l9.8,29.3,14.4,26.8c.1.2.4.3.5.2.3-.1.7-.3,1-.4h0a.365.365,0,0,0,.2-.5l-9.7-29Z" fill="#ffd51d"/><path d="M312.5,280a52.419,52.419,0,0,0,4.8-26.1c-.1,0-.2,0-.2.1H317c-1.1.3-2.2.6-3.1.9-2.2.7-4.3,1.5-6.1,2.1l.1.3c.1.5.2,1.1.3,1.7a64.126,64.126,0,0,1-.2,19.1,37.411,37.411,0,0,1-.8,3.8c1.5-.5,2.8-1,4.1-1.4Z" fill="#ffd51d"/><path d="M267.1,310.3a36.656,36.656,0,0,1-11.2-3.3c-.2.1-.5.2-.7.3a3.128,3.128,0,0,0-1,.5c-1.1.5-2.1,1-2.9,1.4a50.66,50.66,0,0,0,18.2,1.3,9.735,9.735,0,0,1-2.4-.2" fill="#ffd51d"/><path d="M272.5,308.3a30.51,30.51,0,0,0,6.7-.7,14.671,14.671,0,0,1-1.4-.6,30.674,30.674,0,0,1-6.4-4.4l-1.8-1.8c-1.9.8-3.7,1.6-5.5,2.4l-1,.5c-1.3.6-2.5,1.1-3.7,1.7a31.146,31.146,0,0,0,8.1,2.4,20.7,20.7,0,0,0,5,.5" fill="#ffd51d"/><path d="M283.4,306.1a4.672,4.672,0,0,0,1.7-.3c2.1-1.1,2.9-3.8,3.1-5.2a25.439,25.439,0,0,0,.3-6.9c0-.3-.1-.6-.1-.8v-.3c-2.4,1-5,2.1-7.6,3.3-.8.3-1.5.7-2.3,1l-.9.4c-1.1.5-2.2.9-3.3,1.4l-1.2.5a5.716,5.716,0,0,0,.7.8,25.978,25.978,0,0,0,5.2,4.6,9.4,9.4,0,0,0,3,1.3,3.644,3.644,0,0,0,1.4.2" fill="#ffd51d"/><path d="M298.8,294.3a33.743,33.743,0,0,0,3.8-7.6c-1.3.5-2.6,1.1-3.9,1.6-2,.9-4.3,1.8-6.6,2.8a20.682,20.682,0,0,1,0,2.5,33.129,33.129,0,0,1-1.1,7.7,11.639,11.639,0,0,1-.6,1.5,30.873,30.873,0,0,0,8.4-8.5" fill="#ffd51d"/><path d="M310.7,283.5l-3,1.2c-.5.2-1,.4-1.6.6a37.722,37.722,0,0,1-5.3,10.4,21.958,21.958,0,0,1-1.4,1.8,53.1,53.1,0,0,0,11.3-14" fill="#ffd51d"/><path d="M291.9,287.7c1.8-.7,3.7-1.5,5.6-2.2,2.3-.9,4.3-1.7,6.2-2.4a37.607,37.607,0,0,0,1-5.5,58.3,58.3,0,0,0-.7-18c-.1-.4-.2-.7-.3-1.1h0c-2.4.9-4.8,1.8-7.2,2.8l-1.6.6c-2.7,1.1-5.5,2.2-8.1,3.2a129.528,129.528,0,0,1,3.6,13.5,71.5,71.5,0,0,1,1.5,9.1" fill="#ffd51d"/><path d="M270.9,296.6c2.9-1.3,5.8-2.6,8.5-3.8,2.5-1.1,5.3-2.3,8.5-3.6-.6-3.5-1.4-6.8-2.1-9.6-1.3-4.7-2.6-8.8-4-12.6-3.6,1.5-7.4,3.1-11.7,4.8l-1.4.6c-3.6,1.6-6.9,3-10,4.4,2.1,4,4.3,8,6.6,11.7a79.646,79.646,0,0,0,5.6,8.1" fill="#ffd51d"/><path d="M261.3,301.1l.4-.2c2.2-1,3.9-1.8,5.5-2.5a76.49,76.49,0,0,1-5.6-7.2,133.348,133.348,0,0,1-7.6-12.1c-3.1,1.4-5.8,2.7-8.2,3.8-2.9,1.3-5.5,2.5-8.1,3.8h0a1.381,1.381,0,0,1,.3.4l.6.9a55.133,55.133,0,0,0,12.7,12.8,31.453,31.453,0,0,0,4.7,3c1.8-1,3.7-2,5.3-2.7" fill="#ffd51d"/><path d="M248.6,307.5c1.2-.7,2.5-1.4,4-2.1-1-.6-2.2-1.3-3.2-2a62.809,62.809,0,0,1-14-12.9c-.4-.5-.7-.9-1.1-1.4l-.4-.5-.1.1c-1.5.7-3.7,1.9-5.8,3.1a24.631,24.631,0,0,0-2.7,1.7l-.2.1a53.828,53.828,0,0,0,22.7,14.7Z" fill="#ffd51d"/><path d="M221.8,229.9a38.952,38.952,0,0,1,5.7-10.7,53.054,53.054,0,0,0-10.3,13.6c1.4-1,2.9-1.9,4.6-2.9" fill="#ffd51d"/><path d="M229.5,220.6a32.056,32.056,0,0,0-3.8,7.1c1-.6,2.2-1.2,3.4-1.8q3.6-1.95,7.2-3.6v-.6a27.047,27.047,0,0,1,1.2-7.7c.2-.5.4-1.1.6-1.5a31.748,31.748,0,0,0-8.6,8.1" fill="#ffd51d"/><path d="M245,209.2a5.079,5.079,0,0,0-1.7.3c-1.6.9-2.7,2.6-3.2,5.2a26.993,26.993,0,0,0-.3,5.9c2.2-1,4.5-2,7-3.2,2.7-1.1,5-2.1,7.1-2.9a21.65,21.65,0,0,0-4.5-3.8,8.549,8.549,0,0,0-4.4-1.5" fill="#ffd51d"/><path d="M249.1,207.6a10.41,10.41,0,0,1,1.6.6,27.5,27.5,0,0,1,6.4,4.4c.2.1.3.3.4.4,2.7-1.1,5.2-2,7.6-2.8,1.4-.4,2.6-.9,3.8-1.3a31.994,31.994,0,0,0-7.8-2,32.8,32.8,0,0,0-12,.7" fill="#ffd51d"/><path d="M278.2,206.3a50.439,50.439,0,0,0-16.4-1.8,37.3,37.3,0,0,1,11.4,3.1c1.8-.5,3.4-.9,5-1.3" fill="#ffd51d"/><path d="M283.2,207.9l-.8.2a54.42,54.42,0,0,0-5.4,1.4c.8.4,1.5.9,2.4,1.4a58.9,58.9,0,0,1,14,13c.2.3.5.6.7.9l.2.3c2.3-.7,4.4-1.4,6.3-1.9,1.3-.3,2.4-.6,3.4-.8h.3a55.418,55.418,0,0,0-21.1-14.5" fill="#ffd51d"/><path d="M266.2,213.2c-2,.7-4.1,1.6-6.1,2.3a70.191,70.191,0,0,1,6.8,8.5,93.274,93.274,0,0,1,5.7,9c2.6-1.1,5.4-2.1,8.6-3.4,3.2-1.2,6.1-2.2,8.9-3.2l-.1-.1a52.931,52.931,0,0,0-12.6-12.8,42.1,42.1,0,0,0-4.5-2.8c-2.1.9-4.3,1.6-6.7,2.5" fill="#ffd51d"/><path d="M249.5,219.9l-2.6,1.2c-1.9.8-4,1.7-6.7,3a76.538,76.538,0,0,0,2.4,11.5c.7,2.6,1.5,5.4,2.8,9.1,1.1-.5,2.3-1,3.4-1.5l.4-.2c2.3-1,4.7-2,7.3-3.1l11.4-4.8q-2.1-3.9-4.8-8.4a90.082,90.082,0,0,0-6.8-9.6c-2.6,1-4.8,2-6.8,2.8" fill="#ffd51d"/><path d="M236.4,225.8c-1.9.9-3.8,1.8-5.9,2.8-2.1,1.1-4.2,2.1-6.3,3.3-.5,1.8-.8,3.5-1.1,5.2a55.574,55.574,0,0,0,.7,17.6c2.4-1.3,5-2.6,7.8-4,3-1.4,5.8-2.7,8.8-4-1-3.4-1.9-6.8-2.6-10.2-.5-3.1-1.1-6.7-1.4-10.7" fill="#ffd51d"/><path d="M215,237.5a53.916,53.916,0,0,0-3.8,24.8c.8-.6,1.6-1.2,2.5-1.8,1.7-1.1,3.6-2.2,5.9-3.5l.4-.2c0-.3-.1-.5-.1-.8v-.2a58.16,58.16,0,0,1,.1-19.1,18.07,18.07,0,0,1,.6-2.7c-1.9,1.1-3.5,2.1-4.9,3Z" fill="#ffd51d"/><path d="M222.8,291l.3-.3c1-.8,2-1.5,2.9-2.1,1.9-1.2,3.8-2.3,5.6-3.3a82.277,82.277,0,0,1-6.3-11.2,74.974,74.974,0,0,1-4.4-13.4c-1.4.7-3.4,1.7-5.3,2.8a16.9,16.9,0,0,0-2.7,1.7,3.45,3.45,0,0,0-.9.8l-.2.2a54.069,54.069,0,0,0,11,24.8" fill="#ffd51d"/><path d="M307,253.2c1.6-.5,3.6-1.1,5.8-1.7,1.2-.3,2.3-.6,3.4-.8a2.2,2.2,0,0,1,.8-.1,57.925,57.925,0,0,0-3.9-14.1,54.54,54.54,0,0,0-6.4-11l-.5.1-1.5.3c-1,.3-2.1.6-3.1.9-1.5.5-3.2,1.1-5,1.7a72.884,72.884,0,0,1,6.5,12,71.6,71.6,0,0,1,3.9,12.7" fill="#ffd51d"/><path d="M302.9,254.6A84.983,84.983,0,0,0,292.4,230c-3,1.2-6.1,2.3-9.6,3.7-2.7,1.1-5.3,2.1-8,3.2,2.2,4.1,4.3,8.4,6.5,13.3q2.4,5.55,4.2,10.8c2.8-1.1,5.5-2.1,8-3.1,3.3-1.2,6.4-2.3,9.4-3.3" fill="#ffd51d"/><path d="M256.9,273c1.4-.6,2.9-1.3,4.4-1.9,2.9-1.3,5.1-2.2,7.3-3.1,4.5-1.9,8.3-3.5,11.9-5-1.4-3.8-2.8-7.2-4.3-10.6-1.8-4.1-3.8-8.4-6.1-13.1l-.2-.4c-4.2,1.7-8.1,3.3-11.8,4.9l-1.4.6c-3.1,1.3-6.4,2.8-10,4.4,1.7,4.8,3.6,9.5,5.6,14,1.2,3.2,2.8,6.5,4.6,10.2" fill="#ffd51d"/><path d="M233.5,254.7c-3.1,1.4-6,2.8-8.7,4.1a93.847,93.847,0,0,0,4.7,13.5,89.284,89.284,0,0,0,5.9,11c2.7-1.4,5.5-2.8,8.5-4.3,2.4-1.1,5-2.4,8-3.7-1.6-3.2-3.2-6.5-4.8-10.2-2.1-4.9-3.9-9.5-5.4-14.1-3.4,1.5-5.9,2.7-8.2,3.7" fill="#ffd51d"/></g></svg>