<svg xmlns="http://www.w3.org/2000/svg" width="512" height="335.448" viewBox="0 0 512 335.448"><g transform="translate(0 -88.276)"><path d="M8.828,88.276H503.173A8.829,8.829,0,0,1,512,97.1v75.034H0V97.1A8.829,8.829,0,0,1,8.828,88.276Z" fill="#ffe15a"/><rect width="512" height="83.86" transform="translate(0 172.14)" fill="#f5f5f5"/><rect width="512" height="83.86" transform="translate(0 256)" fill="#ff4b55"/><path d="M0,339.862H512V414.9a8.829,8.829,0,0,1-8.828,8.828H8.828A8.829,8.829,0,0,1,0,414.9Z" fill="#4173cd"/><path d="M3.256,421.591,250.639,259.512a4.2,4.2,0,0,0,0-7.025L3.256,90.41A8.681,8.681,0,0,0,0,97.1V414.9A8.685,8.685,0,0,0,3.256,421.591Z" fill="#73af00"/><path d="M48.833,256a71.716,71.716,0,0,1,49.689-68.229,1.5,1.5,0,0,0-.275-2.908,69.843,69.843,0,0,0-9.064-.6,71.735,71.735,0,0,0,0,143.47,69.844,69.844,0,0,0,9.064-.6,1.5,1.5,0,0,0,.275-2.908A71.713,71.713,0,0,1,48.833,256Z" fill="#f5f5f5"/><path d="M98.89,201.208l1.975,5.921,6.241.049a.841.841,0,0,1,.493,1.517l-5.021,3.708,1.882,5.951a.841.841,0,0,1-1.291.938l-5.078-3.629-5.078,3.629a.841.841,0,0,1-1.291-.938L93.6,212.4l-5.021-3.708a.841.841,0,0,1,.493-1.517l6.241-.049,1.975-5.921A.843.843,0,0,1,98.89,201.208Z" fill="#f5f5f5"/><path d="M98.89,231.214l1.975,5.921,6.241.049a.841.841,0,0,1,.493,1.517l-5.021,3.708,1.882,5.951a.841.841,0,0,1-1.291.938l-5.078-3.629L93.013,249.3a.841.841,0,0,1-1.291-.938l1.882-5.951L88.583,238.7a.841.841,0,0,1,.493-1.517l6.241-.049,1.975-5.921A.843.843,0,0,1,98.89,231.214Z" fill="#f5f5f5"/><path d="M98.89,261.22l1.975,5.921,6.241.049a.841.841,0,0,1,.493,1.517l-5.021,3.708,1.882,5.951a.841.841,0,0,1-1.291.938l-5.078-3.629L93.013,279.3a.841.841,0,0,1-1.291-.938l1.882-5.951-5.021-3.708a.841.841,0,0,1,.493-1.517l6.241-.049,1.975-5.921A.843.843,0,0,1,98.89,261.22Z" fill="#f5f5f5"/><path d="M98.89,291.227l1.975,5.921,6.241.049a.841.841,0,0,1,.493,1.517l-5.021,3.708,1.882,5.951a.841.841,0,0,1-1.291.938l-5.078-3.629-5.078,3.629a.841.841,0,0,1-1.291-.938l1.882-5.951-5.021-3.708a.841.841,0,0,1,.493-1.517l6.241-.049,1.975-5.921A.843.843,0,0,1,98.89,291.227Z" fill="#f5f5f5"/></g></svg>