<svg xmlns="http://www.w3.org/2000/svg" width="512" height="335.448" viewBox="0 0 512 335.448"><g transform="translate(0 -88.276)"><path d="M503.172,423.724H8.828A8.829,8.829,0,0,1,0,414.9V97.1a8.829,8.829,0,0,1,8.828-8.828H503.173A8.829,8.829,0,0,1,512,97.1V414.9A8.83,8.83,0,0,1,503.172,423.724Z" fill="#41479b"/><path d="M247.172,88.276H231.839l-81.77,53.573V88.276H105.931v53.573L24.161,88.276H8.828A8.829,8.829,0,0,0,0,97.1v7l70.155,45.963H0v44.138H70.155L0,240.171v7A8.829,8.829,0,0,0,8.828,256H24.161l81.77-53.573V256h44.138V202.427L231.838,256h15.333A8.829,8.829,0,0,0,256,247.172v-7l-70.154-45.963H256V150.069H185.844L256,104.106v-7A8.827,8.827,0,0,0,247.172,88.276Z" fill="#f5f5f5"/><path d="M256,158.9H141.241V88.276H114.758V158.9H0v26.482H114.758V256h26.483V185.379H256Z" fill="#ff4b55"/><path d="M97.1,150.069l-92.9-60.3A8.686,8.686,0,0,0,0,97.1v.458l80.889,52.507Z" fill="#ff4b55"/><path d="M166.283,150.069,254.657,92.7a8.7,8.7,0,0,0-7.485-4.427h-1.909l-95.194,61.793Z" fill="#ff4b55"/><path d="M89.474,194.207l-88.2,57.256A8.717,8.717,0,0,0,8.828,256h1.665l95.2-61.793Z" fill="#ff4b55"/><path d="M255.859,247.867l-82.666-53.659H156.98l93.873,60.934A8.739,8.739,0,0,0,255.859,247.867Z" fill="#ff4b55"/><path d="M377.128,150.113l3.237,9.708,10.233.079a.825.825,0,0,1,.483,1.489l-8.232,6.079,3.086,9.757a.825.825,0,0,1-1.267.92l-8.326-5.951-8.326,5.951a.825.825,0,0,1-1.267-.92l3.086-9.757-8.232-6.079a.825.825,0,0,1,.483-1.489l10.233-.079,3.237-9.708A.83.83,0,0,1,377.128,150.113Z" fill="#f5f5f5"/><path d="M333.616,162.054l6.906,7.552,9.38-4.089a.824.824,0,0,1,1.047,1.163l-5.048,8.9,6.788,7.658a.825.825,0,0,1-.782,1.356l-10.026-2.05-5.185,8.822a.826.826,0,0,1-1.532-.326l-1.149-10.168-9.993-2.205a.825.825,0,0,1-.163-1.557l9.316-4.235-.991-10.185A.826.826,0,0,1,333.616,162.054Z" fill="#f5f5f5"/><path d="M298.722,190.659l9.38,4.089,6.906-7.552a.825.825,0,0,1,1.43.637l-.991,10.185,9.316,4.235a.825.825,0,0,1-.163,1.557l-9.993,2.205-1.149,10.168a.826.826,0,0,1-1.532.326l-5.185-8.822-10.026,2.05a.825.825,0,0,1-.782-1.356l6.788-7.658-5.048-8.9A.826.826,0,0,1,298.722,190.659Z" fill="#f5f5f5"/><path d="M278.479,230.985l10.233-.079,3.238-9.708a.825.825,0,0,1,1.566,0l3.237,9.708,10.233.079a.825.825,0,0,1,.483,1.489l-8.232,6.079,3.086,9.757a.825.825,0,0,1-1.267.92l-8.326-5.951L284.4,249.23a.825.825,0,0,1-1.267-.92l3.086-9.757-8.232-6.079A.827.827,0,0,1,278.479,230.985Z" fill="#f5f5f5"/><path d="M276.389,276.057l9.316-4.235-.991-10.185a.825.825,0,0,1,1.43-.637l6.906,7.552,9.38-4.089a.824.824,0,0,1,1.047,1.163l-5.048,8.9,6.788,7.658a.825.825,0,0,1-.782,1.356l-10.026-2.05-5.185,8.822a.826.826,0,0,1-1.532-.326l-1.149-10.168-9.993-2.2A.826.826,0,0,1,276.389,276.057Z" fill="#f5f5f5"/><path d="M292.811,318.083l6.788-7.658-5.048-8.9a.825.825,0,0,1,1.047-1.163l9.38,4.089,6.906-7.552a.825.825,0,0,1,1.43.637l-.991,10.185,9.316,4.235a.825.825,0,0,1-.163,1.557l-9.993,2.2-1.149,10.168a.826.826,0,0,1-1.532.326l-5.185-8.822-10.026,2.05A.825.825,0,0,1,292.811,318.083Z" fill="#f5f5f5"/><path d="M324.907,349.8l3.086-9.757-8.232-6.079a.825.825,0,0,1,.483-1.489l10.233-.079,3.238-9.708a.825.825,0,0,1,1.566,0l3.237,9.708,10.233.079a.825.825,0,0,1,.483,1.489L341,340.039l3.086,9.757a.825.825,0,0,1-1.267.92l-8.326-5.951-8.326,5.951A.823.823,0,0,1,324.907,349.8Z" fill="#f5f5f5"/><path d="M367.129,365.712l-1.149-10.168-9.993-2.2a.825.825,0,0,1-.163-1.557l9.316-4.235-.991-10.185a.825.825,0,0,1,1.43-.637l6.906,7.552,9.38-4.089a.824.824,0,0,1,1.047,1.163l-5.048,8.9,6.788,7.658a.825.825,0,0,1-.782,1.356l-10.026-2.05-5.185,8.822A.824.824,0,0,1,367.129,365.712Z" fill="#f5f5f5"/><path d="M412.172,363.081l-5.185-8.822-10.026,2.05a.825.825,0,0,1-.782-1.356l6.788-7.658-5.048-8.9a.825.825,0,0,1,1.047-1.163l9.38,4.089,6.906-7.552a.825.825,0,0,1,1.43.637l-.991,10.185,9.316,4.235a.825.825,0,0,1-.163,1.557l-9.993,2.2L413.7,362.755A.824.824,0,0,1,412.172,363.081Z" fill="#f5f5f5"/><path d="M452.252,342.355l-8.326-5.951-8.326,5.951a.825.825,0,0,1-1.267-.92l3.086-9.757-8.232-6.079a.825.825,0,0,1,.483-1.489l10.233-.079,3.238-9.708a.825.825,0,0,1,1.566,0l3.237,9.708,10.233.079a.825.825,0,0,1,.483,1.489l-8.232,6.079,3.086,9.757A.822.822,0,0,1,452.252,342.355Z" fill="#f5f5f5"/><path d="M480.436,307.118l-10.026-2.05-5.185,8.822a.826.826,0,0,1-1.532-.326L462.544,303.4l-9.993-2.2a.825.825,0,0,1-.163-1.557L461.7,295.4l-.991-10.185a.825.825,0,0,1,1.43-.637l6.906,7.552,9.38-4.089a.824.824,0,0,1,1.047,1.163l-5.048,8.9,6.788,7.658A.824.824,0,0,1,480.436,307.118Z" fill="#f5f5f5"/><path d="M491.852,263.466l-9.993,2.2-1.149,10.168a.826.826,0,0,1-1.532.326l-5.185-8.822-10.026,2.05a.825.825,0,0,1-.782-1.356l6.788-7.658-5.048-8.9a.825.825,0,0,1,1.047-1.163l9.38,4.089,6.906-7.552a.825.825,0,0,1,1.43.637l-.991,10.185,9.316,4.235A.825.825,0,0,1,491.852,263.466Z" fill="#f5f5f5"/><path d="M484.525,218.944l-8.232,6.079,3.086,9.757a.825.825,0,0,1-1.267.92l-8.326-5.951L461.46,235.7a.825.825,0,0,1-1.267-.92l3.086-9.757-8.232-6.079a.825.825,0,0,1,.483-1.489l10.233-.079L469,207.668a.825.825,0,0,1,1.566,0l3.237,9.708,10.233.079A.825.825,0,0,1,484.525,218.944Z" fill="#f5f5f5"/><path d="M459.724,181.25l-5.048,8.9,6.788,7.658a.825.825,0,0,1-.782,1.356l-10.026-2.05-5.185,8.822a.826.826,0,0,1-1.532-.326l-1.149-10.168-9.993-2.205a.825.825,0,0,1-.163-1.557l9.316-4.235-.991-10.185a.825.825,0,0,1,1.43-.637l6.906,7.552,9.38-4.089A.825.825,0,0,1,459.724,181.25Z" fill="#f5f5f5"/><path d="M421.735,156.9l-.991,10.185,9.316,4.235a.825.825,0,0,1-.163,1.557l-9.993,2.205-1.149,10.168a.826.826,0,0,1-1.532.326l-5.185-8.822-10.026,2.05a.825.825,0,0,1-.782-1.356l6.788-7.658-5.048-8.9a.825.825,0,0,1,1.047-1.163l9.38,4.089,6.906-7.552A.827.827,0,0,1,421.735,156.9Z" fill="#f5f5f5"/><path d="M377.128,150.113l3.237,9.708,10.233.079a.825.825,0,0,1,.483,1.489l-8.232,6.079,3.086,9.757a.825.825,0,0,1-1.267.92l-8.326-5.951-8.326,5.951a.825.825,0,0,1-1.267-.92l3.086-9.757-8.232-6.079a.825.825,0,0,1,.483-1.489l10.233-.079,3.237-9.708A.83.83,0,0,1,377.128,150.113Z" fill="#f5f5f5"/></g></svg>