<svg xmlns="http://www.w3.org/2000/svg" width="512" height="335.448" viewBox="0 0 512 335.448"><g transform="translate(0 -88.276)"><rect width="512" height="105.93" transform="translate(0 203.03)" fill="#ff4b55"/><path d="M8.828,88.276H503.173A8.829,8.829,0,0,1,512,97.1v48.552H0V97.1A8.829,8.829,0,0,1,8.828,88.276Z" fill="#41479b"/><rect width="512" height="57.38" transform="translate(0 145.66)" fill="#f5f5f5"/><path d="M503.172,423.724H8.828A8.829,8.829,0,0,1,0,414.9V366.344H512V414.9A8.828,8.828,0,0,1,503.172,423.724Z" fill="#41479b"/><rect width="512" height="57.38" transform="translate(0 308.96)" fill="#f5f5f5"/><ellipse cx="41.29" cy="44.14" rx="41.29" ry="44.14" transform="translate(97.1 211.86)" fill="#f5f5f5"/><rect width="42.714" height="21.357" transform="translate(117.03 238.92)" fill="#3cc8ff"/><path d="M122.732,251.059l.488,4.711,1.918-4.329-.992,4.631,3.164-3.526-2.376,4.1,4.1-2.375-3.525,3.164,4.631-.993-4.33,1.919,4.712.488-4.712.488,4.33,1.919-4.631-.992,3.525,3.163-4.1-2.376,2.376,4.1-3.164-3.525.992,4.631-1.918-4.329-.488,4.71-.488-4.71-1.919,4.329.992-4.631-3.163,3.525,2.374-4.1-4.1,2.376,3.526-3.163-4.632.992,4.33-1.919-4.711-.488,4.711-.488-4.33-1.919,4.632.993-3.526-3.164,4.1,2.375-2.374-4.1,3.163,3.526-.992-4.631,1.919,4.329Z" fill="#ffe15a"/><path d="M146.936,290.172H129.851l-15.662-12.815V258.848h49.833v18.509Z" fill="#41479b"/><path d="M155.479,253.153h0a.711.711,0,0,0-1.422,0h0c0,2.471-1.432,5.889-3.188,8.337a19.324,19.324,0,0,1-3.722-8.947,1.6,1.6,0,0,0-2.307-1.188,1.626,1.626,0,0,0-.867,1.213c-1.09,6.983-4.382,9.95-6.514,11.17-3.191-3.085-4.243-8.078-4.589-11.03a1.658,1.658,0,0,0-3.229-.309,21.432,21.432,0,0,1-16.875,14.993v4.271H162.6v-7.115C156.9,263.119,155.479,253.153,155.479,253.153Z" fill="#73af00"/><path d="M162.6,240.339c-5.7-2.848-5.7-5.7-5.7-5.7s-7.119-2.848-12.814-2.848c0,0,1.423-2.848-1.423-2.848h-8.542c-2.848,0-1.423,2.848-1.423,2.848-5.695,0-12.814,2.848-12.814,2.848s0,2.848-5.695,5.7-5.695,9.255-5.695,9.255a2.135,2.135,0,0,0,4.27,0,2.11,2.11,0,0,0-.125-.691l.125-.021,14.238-9.966h22.782l14.238,9.966.125.021a2.11,2.11,0,0,0-.125.691,2.135,2.135,0,1,0,4.27,0S168.293,243.186,162.6,240.339Z" fill="#f0aa00"/><path d="M166.87,257.425c-1.423,0-5.7,0-5.7-4.271s5.7-4.271,5.7-4.271l-8.543-2.848c-2.848,9.966,2.848,9.966,2.848,22.781,0,11.479-12.814,18.509-17.086,18.509s-5.7,2.848-5.7,2.848-1.423-2.848-5.7-2.848-17.086-7.03-17.086-18.509c0-12.814,5.695-12.814,2.848-22.781l-8.543,2.848s5.695,0,5.695,4.271-4.271,4.271-5.695,4.271-7.119,0-7.119,7.119,7.119,15.662,17.086,21.357,5.695,11.391,18.509,11.391,8.543-5.7,18.509-11.391,17.086-14.238,17.086-21.357S168.293,257.425,166.87,257.425Z" fill="#f0aa00"/><path d="M135.546,235.138,132.1,233.59a2.843,2.843,0,0,0-1.816-.175,22.886,22.886,0,0,0-11.826,6.923l4.271,1.423Z" fill="#73af00"/><path d="M141.241,235.138l3.444-1.548a2.843,2.843,0,0,1,1.816-.175,22.886,22.886,0,0,1,11.826,6.923l-4.271,1.423Z" fill="#73af00"/><path d="M138.9,236.067l2.6-2.6a.356.356,0,1,0-.5-.5l-2.6,2.6-2.6-2.6a.356.356,0,0,0-.5.5l2.6,2.6-2.6,2.6a.356.356,0,1,0,.5.5l2.6-2.6,2.6,2.6a.356.356,0,1,0,.5-.5Z" fill="#73af00"/><path d="M166.87,248.882c0-2.422-2.289-3.469-4.271-3.924V243.83c-2.68-.252-4.177-1.258-6.775-3.029-1-.683-2.136-1.455-3.507-2.289-5.006-3.041-8.854-3.48-11.075-3.374v2.353h-5.7v-2.353c-2.221-.106-6.069.333-11.075,3.374-1.37.833-2.506,1.606-3.507,2.289-2.6,1.77-4.094,2.777-6.775,3.029v1.128c-1.983.454-4.271,1.5-4.271,3.924l4.271-1.423v.649c4.041-.3,6.351-1.848,9.18-3.775.959-.653,2.045-1.394,3.319-2.167a17.4,17.4,0,0,1,7.434-2.732v2.33h8.543v-2.33a17.414,17.414,0,0,1,7.434,2.732c1.276.775,2.361,1.514,3.319,2.167,2.828,1.927,5.139,3.478,9.18,3.775v-.649Z" fill="#f5f5f5"/><path d="M155.479,226.439v-1.762h-3.966a2.8,2.8,0,0,0,1.119-2.135c0-3.934-8.95-4.983-14.238-4.983s-14.238,1.049-14.238,4.983a2.8,2.8,0,0,0,1.119,2.135h-3.966v1.762a21.457,21.457,0,0,0-6.485,2.749l1.579,2.369c.039-.026,3.957-2.609,7.753-2.609v-1.423h28.476v1.423c3.8,0,7.714,2.582,7.753,2.609l1.579-2.369A21.444,21.444,0,0,0,155.479,226.439Zm-11.39-2.156V223.2a1.071,1.071,0,0,0-1.331-1.039l-4.364,1.091-4.364-1.091A1.071,1.071,0,0,0,132.7,223.2v1.081c-3.2-.47-5.09-1.252-5.606-1.741.77-.732,4.543-2.135,11.3-2.135s10.53,1.4,11.3,2.135C149.179,223.03,147.287,223.812,144.089,224.283Z" fill="#3cc8ff"/><path d="M138.572,242.3l.361,1.081,1.14.009a.153.153,0,0,1,.09.277l-.917.678.344,1.087a.154.154,0,0,1-.236.171l-.928-.663-.928.663a.154.154,0,0,1-.236-.171l.344-1.087-.917-.678a.154.154,0,0,1,.09-.277l1.14-.009.361-1.081A.154.154,0,0,1,138.572,242.3Z" fill="#f5f5f5"/><path d="M132.99,242.665l.472,1.038,1.135-.11a.154.154,0,0,1,.119.266l-.841.77.456,1.045a.153.153,0,0,1-.216.2l-.992-.562-.853.757a.154.154,0,0,1-.253-.146l.228-1.118-.983-.577a.154.154,0,0,1,.061-.285l1.133-.128.245-1.113A.153.153,0,0,1,132.99,242.665Z" fill="#f5f5f5"/><path d="M127.258,244.191l.686.911,1.084-.354a.153.153,0,0,1,.173.234l-.654.934.672.921a.153.153,0,0,1-.169.237l-1.09-.334-.669.924a.154.154,0,0,1-.278-.087l-.02-1.14-1.085-.351a.153.153,0,0,1,0-.291l1.078-.371,0-1.14A.154.154,0,0,1,127.258,244.191Z" fill="#f5f5f5"/><path d="M121.514,246.613l.8.812,1.027-.494a.154.154,0,0,1,.2.21l-.525,1.012.788.824a.154.154,0,0,1-.136.258l-1.126-.186-.541,1a.154.154,0,0,1-.287-.05l-.17-1.128-1.122-.2a.154.154,0,0,1-.041-.289l1.02-.51-.152-1.13A.154.154,0,0,1,121.514,246.613Z" fill="#f5f5f5"/><path d="M143.862,242.665l-.472,1.038-1.135-.11a.154.154,0,0,0-.119.266l.841.77-.456,1.045a.153.153,0,0,0,.216.2l.992-.562.853.757a.154.154,0,0,0,.253-.146l-.228-1.118.983-.577a.154.154,0,0,0-.061-.285l-1.133-.128-.245-1.113A.153.153,0,0,0,143.862,242.665Z" fill="#f5f5f5"/><path d="M149.593,244.191l-.686.911-1.084-.354a.153.153,0,0,0-.173.234l.654.934-.672.921a.153.153,0,0,0,.169.237l1.09-.334.669.924a.154.154,0,0,0,.278-.087l.02-1.14,1.085-.351a.153.153,0,0,0,0-.291l-1.078-.371,0-1.14A.154.154,0,0,0,149.593,244.191Z" fill="#f5f5f5"/><path d="M155.338,246.613l-.8.812-1.027-.494a.154.154,0,0,0-.2.21l.525,1.012-.788.824a.154.154,0,0,0,.136.258l1.126-.186.541,1a.154.154,0,0,0,.287-.05l.17-1.128,1.122-.2a.154.154,0,0,0,.041-.289l-1.02-.51.152-1.13A.154.154,0,0,0,155.338,246.613Z" fill="#f5f5f5"/><path d="M128.56,276.468l7.253,4.849h8.765l4.05-3.47-3.115,1.246H135.19Z" fill="#8c5a28"/><path d="M133.5,270.21l-.7,7.06-3.186-1.216A21.642,21.642,0,0,1,133.5,270.21Z" fill="#f5f5f5"/><rect width="0.471" height="12.02" transform="translate(139.78 267.41)" fill="#8c5a28"/><rect width="0.471" height="11.01" transform="translate(144.14 268.43)" fill="#8c5a28"/><rect width="0.471" height="11.01" transform="translate(135.45 268.43)" fill="#8c5a28"/><path d="M141.462,278.292h-2.877a.542.542,0,0,1-.542-.542V276.3a.542.542,0,0,1,.542-.542h2.877a.542.542,0,0,1,.542.542v1.453A.542.542,0,0,1,141.462,278.292Z" fill="#f5f5f5"/><path d="M141.462,274.91h-2.877a.542.542,0,0,1-.542-.542v-1.453a.542.542,0,0,1,.542-.542h2.877a.542.542,0,0,1,.542.542v1.453A.542.542,0,0,1,141.462,274.91Z" fill="#f5f5f5"/><path d="M141.462,271.8h-2.877a.542.542,0,0,1-.542-.542V269.8a.542.542,0,0,1,.542-.542h2.877a.542.542,0,0,1,.542.542v1.453A.542.542,0,0,1,141.462,271.8Z" fill="#f5f5f5"/><path d="M145.551,278.292h-2.343a.542.542,0,0,1-.542-.542V276.3a.542.542,0,0,1,.542-.542h2.343a.542.542,0,0,1,.542.542v1.453A.542.542,0,0,1,145.551,278.292Z" fill="#f5f5f5"/><path d="M145.551,275.179h-2.343a.542.542,0,0,1-.542-.542v-1.055a.542.542,0,0,1,.542-.542h2.343a.542.542,0,0,1,.542.542v1.055A.542.542,0,0,1,145.551,275.179Z" fill="#f5f5f5"/><path d="M145.551,272.093h-2.343a.542.542,0,0,1-.542-.542v-.712a.542.542,0,0,1,.542-.542h2.343a.542.542,0,0,1,.542.542v.712A.542.542,0,0,1,145.551,272.093Z" fill="#f5f5f5"/><path d="M136.852,278.292h-2.343a.542.542,0,0,1-.542-.542V276.3a.542.542,0,0,1,.542-.542h2.343a.542.542,0,0,1,.542.542v1.453A.543.543,0,0,1,136.852,278.292Z" fill="#f5f5f5"/><path d="M136.852,275.179h-2.343a.542.542,0,0,1-.542-.542v-1.055a.542.542,0,0,1,.542-.542h2.343a.542.542,0,0,1,.542.542v1.055A.543.543,0,0,1,136.852,275.179Z" fill="#f5f5f5"/><path d="M136.852,272.093h-2.343a.542.542,0,0,1-.542-.542v-.712a.542.542,0,0,1,.542-.542h2.343a.542.542,0,0,1,.542.542v.712A.543.543,0,0,1,136.852,272.093Z" fill="#f5f5f5"/><path d="M135.915,268.43v1.423l2.093-.725Z" fill="#f5f5f5"/><path d="M144.609,268.43v1.423l2.093-.725Z" fill="#f5f5f5"/><path d="M140.253,267.409v1.422l2.094-.725Z" fill="#f5f5f5"/><path d="M134.693,257.8l2.519,1.685h3.046l1.407-1.206-1.083.432H137Z" fill="#8c5a28"/><path d="M136.409,255.626l-.243,2.453-1.107-.423A7.5,7.5,0,0,1,136.409,255.626Z" fill="#f5f5f5"/><rect width="0.163" height="4.177" transform="translate(138.59 254.65)" fill="#8c5a28"/><rect width="0.163" height="3.823" transform="translate(140.1 255.01)" fill="#8c5a28"/><rect width="0.163" height="3.823" transform="translate(137.08 255.01)" fill="#8c5a28"/><path d="M139.174,258.434h-1a.189.189,0,0,1-.189-.189v-.5a.189.189,0,0,1,.189-.189h1a.189.189,0,0,1,.189.189v.5A.188.188,0,0,1,139.174,258.434Z" fill="#f5f5f5"/><path d="M139.174,257.26h-1a.189.189,0,0,1-.189-.189v-.5a.189.189,0,0,1,.189-.189h1a.189.189,0,0,1,.189.189v.5A.189.189,0,0,1,139.174,257.26Z" fill="#f5f5f5"/><path d="M139.174,256.178h-1a.189.189,0,0,1-.189-.189v-.5a.189.189,0,0,1,.189-.189h1a.189.189,0,0,1,.189.189v.5A.188.188,0,0,1,139.174,256.178Z" fill="#f5f5f5"/><path d="M140.6,258.434h-.814a.189.189,0,0,1-.189-.189v-.5a.189.189,0,0,1,.189-.189h.814a.189.189,0,0,1,.189.189v.5A.19.19,0,0,1,140.6,258.434Z" fill="#f5f5f5"/><path d="M140.6,257.353h-.814a.189.189,0,0,1-.189-.189V256.8a.189.189,0,0,1,.189-.189h.814a.189.189,0,0,1,.189.189v.366A.189.189,0,0,1,140.6,257.353Z" fill="#f5f5f5"/><path d="M140.6,256.28h-.814a.189.189,0,0,1-.189-.189v-.247a.189.189,0,0,1,.189-.189h.814a.189.189,0,0,1,.189.189v.247A.189.189,0,0,1,140.6,256.28Z" fill="#f5f5f5"/><path d="M137.573,258.434h-.814a.189.189,0,0,1-.189-.189v-.5a.189.189,0,0,1,.189-.189h.814a.189.189,0,0,1,.189.189v.5A.189.189,0,0,1,137.573,258.434Z" fill="#f5f5f5"/><path d="M137.573,257.353h-.814a.189.189,0,0,1-.189-.189V256.8a.189.189,0,0,1,.189-.189h.814a.189.189,0,0,1,.189.189v.366A.189.189,0,0,1,137.573,257.353Z" fill="#f5f5f5"/><path d="M137.573,256.28h-.814a.189.189,0,0,1-.189-.189v-.247a.189.189,0,0,1,.189-.189h.814a.189.189,0,0,1,.189.189v.247A.189.189,0,0,1,137.573,256.28Z" fill="#f5f5f5"/><path d="M137.248,255.008v.494l.727-.251Z" fill="#f5f5f5"/><path d="M140.268,255.008v.494l.727-.251Z" fill="#f5f5f5"/><path d="M138.755,254.654v.493l.727-.252Z" fill="#f5f5f5"/><path d="M132.91,250.3h-1.848a1.216,1.216,0,0,1-1.212-1.212h0a1.216,1.216,0,0,1,1.212-1.212h1.848a1.216,1.216,0,0,1,1.212,1.212h0A1.214,1.214,0,0,1,132.91,250.3Z" fill="#f5f5f5"/><path d="M146.965,250.3h-1.219a1.212,1.212,0,0,1-1.212-1.212h0a1.212,1.212,0,0,1,1.212-1.212h1.219a1.212,1.212,0,0,1,1.212,1.212h0A1.214,1.214,0,0,1,146.965,250.3Z" fill="#f5f5f5"/><path d="M155.621,252.129h-1.074a.693.693,0,0,1-.693-.693v-.115a.693.693,0,0,1,.693-.693h1.074a.693.693,0,0,1,.693.693v.115A.693.693,0,0,1,155.621,252.129Z" fill="#f5f5f5"/></g></svg>