<svg xmlns="http://www.w3.org/2000/svg" width="512" height="335.448" viewBox="0 0 512 335.448"><g transform="translate(0 -88.276)"><path d="M0,311.908H512V414.9a8.829,8.829,0,0,1-8.828,8.828H8.828A8.829,8.829,0,0,1,0,414.9Z" fill="#41479b"/><path d="M8.828,88.276H503.173A8.829,8.829,0,0,1,512,97.1V200.092H0V97.1A8.829,8.829,0,0,1,8.828,88.276Z" fill="#ff4b55"/><rect width="512" height="111.81" transform="translate(0 200.09)" fill="#f5f5f5"/><rect width="24.717" height="28.25" transform="translate(194.21 203.03)" fill="#ff4b55"/><rect width="24.717" height="28.25" transform="translate(243.64 203.03)" fill="#ff4b55"/><rect width="24.717" height="28.25" transform="translate(218.92 231.28)" fill="#ff4b55"/><rect width="24.717" height="28.25" transform="translate(293.07 203.03)" fill="#ff4b55"/><rect width="24.717" height="28.25" transform="translate(268.36 231.28)" fill="#ff4b55"/><rect width="24.717" height="28.25" transform="translate(218.92 203.03)" fill="#f5f5f5"/><rect width="24.717" height="28.25" transform="translate(268.36 203.03)" fill="#f5f5f5"/><rect width="24.717" height="28.25" transform="translate(194.21 231.28)" fill="#f5f5f5"/><rect width="24.717" height="28.25" transform="translate(243.64 231.28)" fill="#f5f5f5"/><rect width="24.717" height="28.25" transform="translate(293.07 231.28)" fill="#f5f5f5"/><rect width="24.717" height="28.25" transform="translate(243.64 259.53)" fill="#ff4b55"/><rect width="24.717" height="28.25" transform="translate(218.92 287.78)" fill="#ff4b55"/><rect width="24.717" height="28.25" transform="translate(268.36 287.78)" fill="#ff4b55"/><rect width="24.717" height="28.25" transform="translate(218.92 259.53)" fill="#f5f5f5"/><rect width="24.717" height="28.25" transform="translate(268.36 259.53)" fill="#f5f5f5"/><rect width="24.717" height="28.25" transform="translate(243.64 287.78)" fill="#f5f5f5"/><path d="M317.792,203.035v79.448a61.793,61.793,0,1,1-123.586,0V203.035H317.792m4.414-4.414H189.792v83.862a66.207,66.207,0,0,0,132.414,0V198.621Z" fill="#ff4b55"/><path d="M218.924,287.779V259.531H194.207v22.952c0,1.789.118,3.546.267,5.3h24.45Z" fill="#ff4b55"/><path d="M317.525,287.779h-24.45v28.248h14.774A61.347,61.347,0,0,0,317.525,287.779Z" fill="#f5f5f5"/><path d="M204.15,316.027h14.774V287.78h-24.45A61.36,61.36,0,0,0,204.15,316.027Z" fill="#f5f5f5"/><path d="M293.075,287.779h24.45c.149-1.749.267-3.508.267-5.3V259.53H293.075Z" fill="#ff4b55"/><path d="M218.924,331.833V316.027H204.15A62.022,62.022,0,0,0,218.924,331.833Z" fill="#ff4b55"/><path d="M307.849,316.027H293.075v15.806A61.987,61.987,0,0,0,307.849,316.027Z" fill="#ff4b55"/><path d="M218.924,331.833a61.393,61.393,0,0,0,24.717,11.2V316.027H218.924Z" fill="#f5f5f5"/><path d="M268.358,343.035a61.406,61.406,0,0,0,24.717-11.2V316.027H268.358v27.008Z" fill="#f5f5f5"/><path d="M268.358,316.027H243.641v27.008a62.162,62.162,0,0,0,24.718,0V316.027Z" fill="#ff4b55"/><path d="M211.27,156.292q-8.067-1.248-16.489-1.779-6.507,5.356-12.4,11.15,5.913,14.272,11.823,28.545a161.457,161.457,0,0,1,24.247-7.866Q214.862,171.316,211.27,156.292Z" fill="#4173cd"/><path d="M271,151.6q-7.25-3.668-15-6.765-7.747,3.09-15,6.765,1.2,15.4,2.41,30.8a161.164,161.164,0,0,1,25.186,0Q269.8,167.006,271,151.6Z" fill="#4173cd"/><path d="M329.616,165.663q-5.887-5.782-12.4-11.15-8.414.519-16.489,1.779-3.591,15.025-7.183,30.049a161.571,161.571,0,0,1,24.247,7.866Z" fill="#4173cd"/><path d="M241,151.6q-7.731-2.494-15.894-4.346-7.2,4.262-13.832,9.033,3.591,15.025,7.185,30.049a161.444,161.444,0,0,1,24.952-3.933Q242.2,167.006,241,151.6Z" fill="#41479b"/><path d="M300.729,156.292q-6.631-4.763-13.832-9.033Q278.74,149.1,271,151.6q-1.2,15.4-2.41,30.8a161.322,161.322,0,0,1,24.952,3.933Q297.138,171.317,300.729,156.292Z" fill="#41479b"/><path d="M241.96,163.926a179.7,179.7,0,0,0-27.817,4.385l-1.437-6.01a186.472,186.472,0,0,1,28.771-4.535Q241.72,160.847,241.96,163.926Z" fill="#ff4b55"/><path d="M242.925,176.247a167.664,167.664,0,0,0-25.907,4.084q-.72-3-1.437-6.009a173.6,173.6,0,0,1,26.862-4.234Q242.685,173.165,242.925,176.247Z" fill="#ff4b55"/><path d="M285.326,178.321q-3.232-.574-6.482-1.022a6.609,6.609,0,0,1-5.906-6.915h0c.308-3.4,3.713-5.863,7.59-5.327q3.488.48,6.959,1.1c3.859.682,6.357,4.082,5.6,7.406h0A6.624,6.624,0,0,1,285.326,178.321Z" fill="#ffe15a"/><path d="M320.157,188.5a167.809,167.809,0,0,0-25.175-8.168q.72-3,1.437-6.009a173.738,173.738,0,0,1,26.1,8.468Q321.34,185.644,320.157,188.5Z" fill="#ff4b55"/><path d="M317.952,169.96c-.873,2.407-3.817,3.552-6.6,2.647s-4.483-3.55-3.779-6.012,3.686-3.765,6.636-2.806S318.825,167.553,317.952,169.96Z" fill="#ffe15a"/><path d="M204.425,166.6c.7,2.464-1,5.109-3.779,6.012s-5.725-.245-6.6-2.647.79-5.214,3.742-6.17S203.723,164.135,204.425,166.6Z" fill="#ffe15a"/><path d="M254.59,162.549a4.276,4.276,0,0,1-8.456.264,4.26,4.26,0,0,1,8.456-.264Z" fill="#ffe15a"/><path d="M265.865,162.813a4.276,4.276,0,0,1-8.456-.264,4.26,4.26,0,0,1,8.456.264Z" fill="#ffe15a"/><path d="M260.007,172.08a4.025,4.025,0,0,1-8.016,0,4.017,4.017,0,0,1,8.016,0Z" fill="#ffe15a"/></g></svg>