<svg xmlns="http://www.w3.org/2000/svg" width="512" height="335.448" viewBox="0 0 512 335.448"><g transform="translate(0 -88.276)"><path d="M512,155.366H0V97.1a8.829,8.829,0,0,1,8.828-8.828H503.173A8.829,8.829,0,0,1,512,97.1v58.262Z" fill="#41479b"/><path d="M503.172,423.724H8.828A8.829,8.829,0,0,1,0,414.9V356.634H512V414.9A8.828,8.828,0,0,1,503.172,423.724Z" fill="#41479b"/><rect width="512" height="67.09" transform="translate(0 155.37)" fill="#f5f5f5"/><rect width="512" height="67.09" transform="translate(0 222.46)" fill="#41479b"/><rect width="512" height="67.09" transform="translate(0 289.55)" fill="#f5f5f5"/><path d="M3.31,421.628l255.4-161.754a4.584,4.584,0,0,0,0-7.745L3.31,90.373A8.676,8.676,0,0,0,0,97.1V414.9A8.683,8.683,0,0,0,3.31,421.628Z" fill="#ff4b55"/><path d="M88.526,213.441l9.064,27.176,28.647.222a2.31,2.31,0,0,1,1.354,4.168l-23.045,17.018,8.641,27.313a2.309,2.309,0,0,1-3.545,2.575L86.336,275.255,63.03,291.914a2.309,2.309,0,0,1-3.545-2.575l8.641-27.312L45.08,245.009a2.31,2.31,0,0,1,1.354-4.168l28.647-.222,9.064-27.176A2.309,2.309,0,0,1,88.526,213.441Z" fill="#f5f5f5"/></g></svg>