<svg xmlns="http://www.w3.org/2000/svg" width="512" height="335.449" viewBox="0 0 512 335.449"><g transform="translate(0 -88.276)"><path d="M503.172,423.725H8.828A8.829,8.829,0,0,1,0,414.9V97.1a8.829,8.829,0,0,1,8.828-8.828H503.173A8.829,8.829,0,0,1,512,97.1V414.9A8.83,8.83,0,0,1,503.172,423.725Z" fill="#41479b"/><rect width="512" height="44.14" transform="translate(0 317.791)" fill="#ffe15a"/><path d="M118.945,170.868,110.262,196.9l-27.443.213a2.739,2.739,0,0,0-1.606,4.942l22.077,16.3-8.278,26.165a2.739,2.739,0,0,0,4.2,3.054l22.327-15.958,22.327,15.958a2.739,2.739,0,0,0,4.2-3.054L139.8,218.359l22.077-16.3a2.739,2.739,0,0,0-1.606-4.942l-27.443-.213-8.683-26.034A2.738,2.738,0,0,0,118.945,170.868Z" fill="#f5f5f5"/><path d="M56.393,122.826l-5.025,15.069-15.884.124a1.585,1.585,0,0,0-.929,2.86l12.778,9.436L42.542,165.46a1.585,1.585,0,0,0,2.433,1.768L57.9,157.991l12.922,9.237a1.585,1.585,0,0,0,2.433-1.768l-4.791-15.145,12.778-9.436a1.585,1.585,0,0,0-.929-2.86l-15.884-.124L59.4,122.826A1.585,1.585,0,0,0,56.393,122.826Z" fill="#f5f5f5"/></g></svg>