<?xml version="1.0" encoding="utf-8"?>
<!-- Generator: Adobe Illustrator 26.5.0, SVG Export Plug-In . SVG Version: 6.00 Build 0)  -->
<svg version="1.1" id="Layer_1" xmlns="http://www.w3.org/2000/svg" xmlns:xlink="http://www.w3.org/1999/xlink" x="0px" y="0px"
	 viewBox="0 0 511.9 335.4" style="enable-background:new 0 0 511.9 335.4;" xml:space="preserve">
<style type="text/css">
	.st0{fill:#F1F1F1;}
	.st1{fill:#4E5B31;}
	.st2{fill:#D57800;}
</style>
<g transform="translate(0 -88.3)">
	<path class="st0" d="M503.2,423.7H8.8c-4.9,0-8.8-3.9-8.8-8.8V97.1c0-4.9,3.9-8.8,8.8-8.8h494.3c4.9,0,8.8,3.9,8.8,8.8v317.8
		c0.1,4.8-3.7,8.7-8.5,8.8C503.3,423.7,503.3,423.7,503.2,423.7z"/>
	<path class="st1" d="M260.4,372.2c-0.1,0-0.1-0.1-0.2-0.1l-0.1-0.1c-0.3-0.3-0.6-0.6-0.9-1c-0.8-0.9-1.9-2.2-2.8-3.4
		c-1.9-2.3-3.4-4.3-3.7-4.7l-0.5-0.6l-4.6-1.4l-3.4-1.6l1.8-2l6.2,2.7l4.6,1l8.6,6.3l0,0c0,0-1.2,1-2.5,2.1
		c-0.5,0.5-1.2,1.1-1.7,1.7c-0.2,0.2-0.4,0.4-0.6,0.7C260.5,371.9,260.4,372,260.4,372.2 M228.5,362.7c-4.2,0-8.3-1.2-11.9-3.3l0,0
		c0.4-0.7,1-1.4,1.7-1.8c1.9-1.3,4.3-2,6.6-1.9h0.1c4,0,8.9,1.4,14.5,4C236.2,361.7,232.4,362.7,228.5,362.7L228.5,362.7z
		 M211,358.8c-0.7,0-1.4-0.3-1.9-0.8c-0.4-0.5-0.7-1.1-0.8-1.7c-0.2-0.8-0.3-1.7-0.2-2.5c0.3-0.1,0.6-0.2,0.9-0.2h0.1
		c1.5,0.2,2.7,1.2,3.2,2.6c0.3,0.6,0.3,1.2,0.2,1.8C212.2,358.5,211.6,358.8,211,358.8L211,358.8z M241.8,355.2
		c-10.4-1.5-14.7-5.2-16.6-8.1c-1.2-1.7-1.7-3.8-1.6-5.9l0,0c0.5-0.1,1.1-0.2,1.6-0.2C228,341,235.1,342.4,241.8,355.2z
		 M220.6,353.2c-4.4,0-7.8-0.8-10-2.3c-0.9-0.6-1.7-1.5-2.2-2.5c-0.2-0.4-0.3-0.8-0.4-1.2c1.5-0.6,3-0.9,4.6-1h0.7
		c3.4,0,8.6,1.1,14.1,6.4l0,0C225.1,353,222.9,353.2,220.6,353.2L220.6,353.2z M199.2,352.3c-4.7,0-11.1-1.4-15.1-5.4l0,0
		c3.1-0.7,6.2-1.1,9.3-1.2h0.9c4.4,0,7.7,0.8,9.9,2.5c0.6,0.4,1.1,1,1.3,1.7c0,0.5-0.2,1-0.6,1.3c-1,0.8-2.8,1.2-5.3,1.2
		L199.2,352.3L199.2,352.3z M184.1,344.6c-0.6,0-1.1-0.3-1.5-0.7c-0.3-0.4-0.6-1-0.7-1.5c-0.2-0.7-0.2-1.5-0.2-2.2l0,0
		c0.2-0.1,0.5-0.2,0.7-0.2l0,0c0.6,0,1.1,0.3,1.5,0.7c0.5,0.4,0.8,1,1,1.6c0.2,0.5,0.2,1.1,0.1,1.6
		C184.9,344.3,184.5,344.7,184.1,344.6L184.1,344.6z M219,343.8c-0.7,0-1.4-0.3-1.9-0.8c-0.4-0.5-0.7-1.1-0.8-1.7
		c-0.2-0.8-0.3-1.7-0.2-2.5c0.3-0.1,0.6-0.2,0.9-0.2h0.1c1.5,0.2,2.7,1.2,3.2,2.6c0.3,0.6,0.3,1.2,0.2,1.8
		C220.2,343.5,219.6,343.8,219,343.8L219,343.8z M202,343.1c-9.4-0.3-14.3-3-16.7-5.2c-1-0.9-1.9-2-2.5-3.2c-0.2-0.5-0.4-1-0.5-1.5
		l0,0c0.8-0.2,1.5-0.3,2.3-0.3h0.2C188,332.9,194.4,334.2,202,343.1z M212.2,342.1c-7.5-1.1-11.8-4.4-14.1-6.9
		c-1.4-1.5-2.5-3.3-3.1-5.2c0.8-0.2,1.5-0.3,2.3-0.3h0.6C201.8,329.8,208.7,331.5,212.2,342.1L212.2,342.1z M173.4,338.5
		c-2.4,0-4.8-0.3-7.1-0.9c-4-1-5.6-2.5-6.4-3.6c-0.3-0.5-0.5-1-0.6-1.5v-0.6l0,0c2-0.5,4.1-0.8,6.2-0.8h0.4c1.7,0,3.4,0.2,5.1,0.5
		c3.8,0.8,7.2,2.9,9.6,6l0,0C178.2,338.2,175.8,338.5,173.4,338.5z M191,332.1c-0.7,0-1.4-0.3-1.9-0.8c-0.4-0.5-0.7-1.1-0.8-1.7
		c-0.2-0.8-0.3-1.7-0.2-2.5c0.3-0.1,0.6-0.2,0.9-0.2h0.1c1.5,0.2,2.7,1.2,3.2,2.6c0.3,0.6,0.3,1.2,0.1,1.8
		C192.2,331.9,191.6,332.2,191,332.1L191,332.1z M177.8,330.3c-2.5-0.7-4.9-1.8-7.1-3.1c-3.3-2-7.4-5.6-7.8-11.2l0,0
		c0.3-0.1,0.5-0.1,0.8-0.1h0.2c2,0.1,3.9,0.8,5.5,2.1C172.3,320.4,175.2,324.6,177.8,330.3L177.8,330.3z M186.4,330
		c-2-0.9-3.9-2.2-5.6-3.6c-4.4-3.8-7.8-8.5-10-13.9c0.5-0.3,1.1-0.4,1.7-0.4h0.5c1.4,0,3.6,0.6,6.1,3.3
		C181.8,318.3,184.3,323.3,186.4,330z M164.1,329.4c-2.9,0-3.9-1.6-4.1-2.2c-0.3-0.7-0.4-1.5-0.3-2.2l0,0c0.5-0.1,0.9-0.2,1.4-0.2
		h0.1c1.9,0,3.7,0.8,4.8,2.3c0.4,0.4,0.5,1.1,0.2,1.6C165.6,329.2,164.9,329.5,164.1,329.4L164.1,329.4z M157.7,321.3
		c-2.2,0-4.4-0.2-6.6-0.6c-2.6-0.5-4-2.6-4.8-4.4c-0.5-1.2-0.9-2.4-1.1-3.7l0,0c7.9,0.2,11.7,2.5,13.4,4.4c1.1,1.1,1.8,2.6,1.9,4.1
		l0,0C159.6,321.3,158.6,321.4,157.7,321.3L157.7,321.3z M166,313.1c-0.6-0.8-1.2-1.6-1.8-2.5c-0.9-1.5-1.8-3-1.8-4.2
		c-0.1-1.7-0.2-3.4-0.5-5.1c-0.2-1.8-0.4-3.3-0.4-3.4l0,0c0.2,0.1,5,1.9,5,6.3S166,313.1,166,313.1L166,313.1z M159.8,312.7h-0.1
		c-2.3-0.6-4.6-1.6-6.6-2.9c-2.6-1.4-4.9-3.1-6.9-5.2c-1.3-1.5-2.1-3.9-2.3-7c-0.1-1.4-0.1-2.9,0.1-4.3c0.3-0.1,0.5-0.1,0.8-0.1
		c1.4,0.1,2.6,0.6,3.7,1.5c1.4,1,2.7,2.1,3.9,3.3c1.5,1.5,2.9,3.1,4.3,4.8l0,0c0.2,0.3,1.5,2.7,2.6,5.1c0.5,1.1,0.9,2.2,1.2,3.4
		c0.1,0.4,0.1,0.7,0,1.1c0,0.1-0.1,0.2-0.2,0.3L159.8,312.7z"/>
	<g transform="translate(900) rotate(180)">
		<path class="st1" d="M651.3-372.2c0.1,0.2,0.1,0.3,0.2,0.4c0.2,0.3,0.4,0.5,0.6,0.7c0.5,0.6,1.2,1.2,1.7,1.7
			c1.3,1.1,2.5,2.1,2.5,2.1l0,0l-8.6,6.3l-4.6,1l-6.2,2.7l-1.8-2l3.4-1.6l4.6-1.4l0.5-0.6c0.3-0.4,1.8-2.4,3.7-4.7
			c0.9-1.2,2-2.5,2.8-3.4c0.3-0.4,0.6-0.7,0.9-1l0.1-0.1C651.2-372.1,651.2-372.2,651.3-372.2 M619.5-362.7c3.9,0,7.7,1.1,11,3
			c-5.6,2.6-10.5,4-14.5,4h-0.1c-2.3,0.1-4.7-0.6-6.6-1.9c-0.7-0.4-1.3-1.1-1.7-1.8l0,0C611.2-361.5,615.3-362.7,619.5-362.7
			L619.5-362.7z M602-358.8c0.6,0,1.1,0.3,1.4,0.8c0.1,0.6,0.1,1.2-0.2,1.8c-0.5,1.4-1.7,2.4-3.2,2.6l0,0c-0.3,0-0.6-0.1-0.9-0.2
			c-0.1-0.8,0-1.7,0.2-2.5c0.1-0.6,0.4-1.2,0.8-1.7C600.6-358.5,601.3-358.8,602-358.8L602-358.8z M616.2-341
			c-0.5,0-1.1-0.1-1.6-0.2l0,0c-0.1-2.1,0.4-4.2,1.6-5.9c1.9-2.9,6.2-6.6,16.6-8.1C626-342.4,618.9-341,616.2-341z M611.6-353.2
			c2.3,0.1,4.5,0.3,6.8,0.6l0,0c-5.5,5.3-10.7,6.4-14.1,6.4h-0.7c-1.6-0.1-3.1-0.4-4.6-1c0.1-0.4,0.2-0.8,0.4-1.2
			c0.5-1,1.3-1.9,2.2-2.5C603.8-352.4,607.2-353.2,611.6-353.2L611.6-353.2z M590.1-352.3l0.4-0.1c2.5,0,4.3,0.4,5.3,1.2
			c0.4,0.3,0.6,0.8,0.6,1.3c-0.2,0.7-0.7,1.3-1.3,1.7c-2.2,1.7-5.5,2.5-9.9,2.5h-0.9c-3.1-0.1-6.2-0.5-9.3-1.2l0,0
			C579-350.9,585.4-352.3,590.1-352.3L590.1-352.3z M575.9-343.9c0.1,0.5,0.1,1.1-0.1,1.6c-0.2,0.6-0.5,1.2-1,1.6
			c-0.4,0.4-0.9,0.7-1.5,0.7l0,0c-0.2,0-0.5-0.1-0.7-0.2l0,0c0-0.7,0-1.5,0.2-2.2c0.1-0.5,0.4-1.1,0.7-1.5c0.4-0.4,0.9-0.7,1.5-0.7
			C575.4-344.7,575.8-344.3,575.9-343.9z M609.9-343.8c0.6,0,1.2,0.3,1.5,0.8c0.1,0.6,0.1,1.2-0.2,1.8c-0.5,1.4-1.7,2.4-3.2,2.6
			h-0.1c-0.3,0-0.6-0.1-0.9-0.2c-0.1-0.8,0-1.7,0.2-2.5c0.1-0.6,0.4-1.2,0.8-1.7C608.5-343.5,609.2-343.8,609.9-343.8L609.9-343.8z
			 M575.7-332.9h-0.2c-0.8,0-1.5-0.1-2.3-0.3l0,0c0.1-0.5,0.3-1,0.5-1.5c0.6-1.2,1.5-2.3,2.5-3.2c2.4-2.2,7.3-4.9,16.7-5.2
			C585.3-334.2,578.9-332.9,575.7-332.9z M603.1-342.1c-3.5,10.6-10.4,12.3-14.3,12.4h-0.6c-0.8,0-1.5-0.1-2.3-0.3
			c0.6-1.9,1.7-3.7,3.1-5.2C591.3-337.7,595.6-341,603.1-342.1L603.1-342.1z M571.6-337.6L571.6-337.6c-2.4,3.1-5.8,5.2-9.6,6
			c-1.7,0.3-3.4,0.5-5.1,0.5h-0.4c-2.1,0-4.2-0.3-6.2-0.8l0,0v-0.6c0.1-0.5,0.3-1,0.6-1.5c0.8-1.1,2.4-2.6,6.4-3.6
			c2.3-0.6,4.7-0.9,7.1-0.9C566.8-338.5,569.2-338.2,571.6-337.6z M581.9-332.1c0.6-0.1,1.2,0.2,1.4,0.8c0.2,0.6,0.2,1.2-0.1,1.8
			c-0.5,1.4-1.7,2.4-3.2,2.6h-0.1c-0.3,0-0.6-0.1-0.9-0.2c-0.1-0.8,0-1.7,0.2-2.5c0.1-0.6,0.4-1.2,0.8-1.7
			C580.5-331.8,581.2-332.1,581.9-332.1L581.9-332.1z M568.7-330.3c-2.6,5.7-5.4,9.9-8.4,12.3c-1.6,1.3-3.5,2-5.5,2.1h-0.2
			c-0.3,0-0.5,0-0.8-0.1l0,0c0.4-5.6,4.5-9.2,7.8-11.2C563.8-328.5,566.2-329.6,568.7-330.3L568.7-330.3z M570-315.4
			c-2.5,2.7-4.7,3.3-6.1,3.3h-0.5c-0.6,0-1.2-0.1-1.7-0.4c2.2-5.4,5.6-10.1,10-13.9c1.7-1.4,3.6-2.7,5.6-3.6
			C575.2-323.3,572.7-318.3,570-315.4z M555-329.4c0.8-0.1,1.5,0.2,2.1,0.7c0.3,0.5,0.2,1.2-0.2,1.6c-1.1,1.5-2.9,2.3-4.8,2.3H552
			c-0.5,0-0.9-0.1-1.4-0.2l0,0c-0.1-0.7,0-1.5,0.3-2.2C551.1-327.8,552.1-329.4,555-329.4L555-329.4z M551.4-321.1L551.4-321.1
			c-0.1,1.5-0.8,3-1.9,4.1c-1.7,1.9-5.5,4.2-13.4,4.4l0,0c0.2-1.3,0.6-2.5,1.1-3.7c0.8-1.8,2.2-3.9,4.8-4.4c2.2-0.4,4.4-0.6,6.6-0.6
			C549.5-321.4,550.5-321.3,551.4-321.1z M556.9-313.1c0,0,0.5,4.5,0.5,8.9s-4.8,6.2-5,6.3l0,0c0-0.1,0.2-1.6,0.4-3.4
			c0.3-1.7,0.4-3.4,0.5-5.1c0-1.2,0.9-2.7,1.8-4.2C555.6-311.5,556.2-312.3,556.9-313.1L556.9-313.1z M551.2-312.7
			c0.1,0.1,0.2,0.2,0.2,0.3c0.1,0.4,0.1,0.7,0,1.1c-0.3,1.2-0.7,2.3-1.2,3.4c-1.1,2.4-2.4,4.8-2.6,5.1l0,0c-1.4,1.7-2.8,3.3-4.3,4.8
			c-1.2,1.2-2.5,2.3-3.9,3.3c-1.1,0.9-2.3,1.4-3.7,1.5c-0.3,0-0.5,0-0.8-0.1c-0.2-1.4-0.2-2.9-0.1-4.3c0.2-3.1,1-5.5,2.3-7
			c2-2.1,4.3-3.8,6.9-5.2c2-1.3,4.3-2.3,6.6-2.9h0.1L551.2-312.7z"/>
	</g>
	<path class="st2" d="M417.8,132l-1.4,0.6l-0.6,0.2l-1.7-0.1l-1.6,0.8l-2.8,1.9l-0.1,0.1l-1.1,0.3l-1-0.4l-0.6,0.3l-0.2,1.1
		l-0.5,0.8l-0.7,0.5l-2.3,0.2l-1.9,1l-2.5-0.7l-1.1,0.5l-2.4,2.2l-1.2,0.6h-0.4l-1.7-0.1l-0.7,0.2l-1,1l-2,0.2l-0.6,0.4l-1,1.9
		l-1,1.1l-0.6,0.1l-0.6-0.2l-0.5,0.1l-0.2,1.2l-0.5,0.5l-1.3,0.5l-1.1,0.9l-0.9,0.5h-1.5l-1.2,0.7l-2.3,0.2l-1,0.9l-0.2,0.2
		l-0.5,0.3l-0.7,0.4l-0.2,0.1l-0.9-0.2l-1,0.4l-0.4-0.6l-0.7,0.4h-1l-1.2-0.5l-0.9-0.4l-0.7,0.1l-0.2,1.2v0.1l-0.7,0.9l-1.3,0.8
		l-0.2,0.2l-1.5,1.9l-2.8,3l-2.4,1.2l-2.5,0.8l-1.7,1.4l-4.5,2.2l-7.2,3.6l-1.5,0.5l-2.1,0.3l-3.7,1.4l-3.3,1l-0.2,0.1l-0.7,0.2
		l-4.7,1.4l-2.2-0.2l-1.3,0.5l-3.3-0.4h-2.3l-1.5,0.3l-2.8,1.3l-4.7,2.2l-1.5,1.4l-2.4,1.3l-2.8,0.9v-1.3l-1,0.3l-0.7,0.2l-2.3,0.4
		h-1.3l-0.8-0.2h-0.1l-4.7,1.5l-5.2,0.5l-2.6,0.8H279l-1.2,0.4l-2.4,0.3l-0.9-0.2l-0.2-0.1l-7,0.3l-3.2-0.4l-1.5,0.3l-2.6-0.9
		l-3.7-0.4l-0.9-0.3l-2-0.6l-0.9,0.5L252,183l-1.6-0.6h-0.6l-1.3,0.5l-0.8-0.2l-0.7-0.6l-1.6-0.2l-1-0.8l-5.6,0.7l-1.5-0.4l-5.1-1.5
		h-0.8l-1,0.8l-1.5,0.6l-1.3,0.3l-1.8,0.1l-2.1-0.5l-2.2-1l-0.8-0.2h-2.2l-3.3-1.7l-4.2-2.6l-2.8-1.4l-1.1-0.2l-0.1,0.5l0.5,1.7
		l0.2,1.7l-0.1,1.5v0.9l0.3,0.8l1,1.1l0.4,1.1l0.3,3.2v3.2l-0.5,5.1l-0.2,0.8l-0.6,2.6l-0.5,2.4l-2.1,6.5l-0.6,0.8l-1.4,1l-3.2,2.2
		l-2.4,1.4l-0.8,0.3l-1.9,0.1l-1.2-0.1l-1.5-0.8l-1.5-0.4l-1.9-1.4l-2.1-0.4l-2.4-1.4l-0.6-0.7l-1.3-0.1l-1.8-0.5l0,0l-0.7-0.2H180
		l-2.3-0.1l-2.1-1l-1.1-0.3l-1.5-0.1l-1.6,0.7l0,0l-0.8,0.4l-1-0.4h-0.7l-0.8,1.3l-0.1,0.2l-0.6,0.3h-1.3l-0.6,0.3l-0.8,0.4l0,0
		L164,209l-0.4,0.2h-0.2l-0.4,0.1l-0.5,0.1l-0.8-0.5l-0.4-0.3l-0.7-0.2l-0.4,0.3l-0.1,1.4l-0.4,0.8l-1.2,1l-1.2,1l-0.8,1.2l-2.2,5
		l-1.4,2l-0.4,0.5l-1.4,1.6l-1.3,1l-2.9,2.3l-2.8,1l-2.4,0.5h-1.2l-2.2-0.3l-2-0.6l-2.2-1.4l-2.4-1.9l-3.5-3.4l-0.5-0.3l-0.1-0.1
		l-1.1-0.7h-0.8l-0.3,0.5l-0.2,0.8l-0.1,0.7l-0.4,3.8v0.2l0.2,1.6l2.6,3.7l0.8,1.9l0.1,0.2l0.5,0.9l0.4,0.7v0.1l0.9,2.7l-0.6,1.5
		l0.3,1l-0.8,0.6l-0.1,0.9l2.4,3l0.5,1.3l-0.6,1.8l-0.9,1l-0.3,0.3l0.1,0.8l1.1,1l1.8,1.6l1,2.4l0.7,0.7l0.9-0.2l0.5,0.4h0.7
		l0.7,0.7l0.5,0.2l0.7,0.4l0.6,0.8l0.1,2.3l1.1,2.9v1.8l0.7,1.2l0.2,0.9l-0.4,2.4l0.9,0.8l0.9-0.2l0.6,0.1l1,0.8l1.2,1.8l1.1-0.2
		l0.7,0.4l3.5,3.2l0.8,0.4l0,0l0.6,0.3l0.7,0.7l1.1-0.7h0.1l1.2-0.1l0.5,0.4l1,0.7h1.3l2.9,0.9l1.3,0.3l2.5,1.6l1.1,0.7l0.6,0.5
		l0.8,0.7l1.7,0.7l1.5,0.3l0.8,0.2l0.6,0.2l0,0l3.2,1.2l1.7,0.4l1.6,0.6l1.1,0.4h0.8l1.2-1l1.2-0.1l1,0.2l0.9-0.2l1.5-0.9l0.3-0.4
		l1.1-0.5l3.5-0.4l1,0.3l2.7-1.2l1.8,0.5l1.6-0.6l3.4,0.8l0.9,0.6l1,1.2h1.2l-0.5,0.8l1.5,1.6l1.4,2.1l0.1,0.3l1,2.9l0.7,1l0.5,1.4
		v0.9l-0.8,0.6l-0.1,0.3v0.1l0.2,0.4l0.3-0.2l0.6-0.3l0.7-0.1l1.2,0.1l0.8,0.1l1.3-0.6l0.9-0.4l1.4,0.6h1.5l0.6,0.3l1.8,0.8l0.9,0.1
		l0.3-0.2l0.2-0.5l-0.1-0.6l-0.7-0.8l-1.5-1.8l-0.6-0.9l-0.5-1.3l-0.1-1.7l-0.1-1.1l0.2-1.5l0.4-0.5l0.3-1.2l0,0l0.1-0.3l0.8-1.1
		l2.2-1.4l2.4-2.1l1.9-1.2l1.9-0.8l0.1-0.2l0.2,0.1l4.9-1.7h0.1l2.2-0.4l14.9,1l0.6-0.2l0,0l0.5-1.4l0.3-0.3l0.2-0.2l1.6-0.7
		l0.8-0.1l2.1,0.5l0.9,0.2l1.4-0.8h1l2-1.1h1.3l0.5-0.2l2.5-1.8l2.4-0.7l0.6-0.3l0.2-0.1l2.4-1.3l1.5-1.2l1.3-0.7l1.5-0.4l3.8-0.3
		l0.8-1.3l1.6-0.2l1-1.1l1.1-0.5l0.8-1.2l0.7-1l0.9-0.5l3-0.2l3.6,0.4l0.5-0.3l0.8-2.9l0.9-0.5l2.3-3.3v-2.2l0.4-1.5l-0.3-2.6
		l0.3-2.7l1.4-3.4l1.3-1.4l2-1.4l1-0.4l1.5-0.2h0.2l0.4-0.1l5-0.1c0.6-0.1,1.2-0.1,1.8,0h1.7l4.2,0.8l0.3,0.1l1.4,0.5l1.7,1.3
		l1.8,1.7l0.3,0.3l1.1,0.5l0.3,0.1l0.9-0.1l1.3-0.7l1-0.9l1.4-0.7l0,0l0.8-1.2l0,0l0.3-0.5l2.7-1l3.1-0.2l0.4-0.2l0.2-0.1l0.8-1h0.8
		l1.9,0.7l1.3-0.3l1,0.4l0.8-0.1l1.5-0.2l1.6,1.2l1,0.1l3.4,2h0.5l0.4-0.1l0.6-0.2h0.1l0.1,0.1l0.4,0.5l0.5,0.1l0.6-0.8l-0.2-0.4
		l-0.1-0.1l-1.2-0.2l-1.1-1.8l1-1.1l-1.6-2l-0.3-0.3l-0.1-0.1l-0.6-0.8l-2.8-4.3l-3.7-2.9l0,0l-1.3-1l0,0l-0.5-0.4l-2-2l-1.4-1.9
		l-0.2-0.4l-0.3-0.6l-0.8-1.8l-1.5-1.1l-1.2-1.3l-0.1-0.1l-2.5-3.4l-0.4-0.6l-0.6-0.3h-1.2l-0.1-0.1l-0.1-0.1l0,0l0.6-0.6l0.7-0.2
		l0.3-0.6l-1.3-3.6V205l-0.1-1.2l1-5.3l0.1-0.6l1.7-3.6l1.1-0.9l1.2-2.3l1-1.5l1-0.9l0.2-0.1l1.7-1.1l1.5-0.2l1.4-0.2l2.4,0.8h2.8
		l1.1-0.1l1.7-0.5l0.8-0.5l0.4-0.7l0.9-3l0.3-0.9l0.5-1l3.2-3.6l2.4-2.2l5.4-3.9l2.6-1.6l1.3-0.8l12-5.3l3.1-3.2l1.6-1.6l2.9-1.9
		l3.4-1.4l2.9-2.3l0.6-0.8l0.8-2.6l0.7-0.2l0.6-1.3l0.2-0.4l2.4-1.7l0.3-0.1l9.2-4.6l1.3,0.2l0.7-1.1l2.7-0.4l0.5-0.1l0.7-0.3l0.6-1
		v-0.2l0.1-2.5l0.6-0.7l0.3-1.7l0.3-0.4l0.3-0.4l0.8-0.5L417.8,132L417.8,132z"/>
</g>
</svg>
