<svg xmlns="http://www.w3.org/2000/svg" width="512" height="335.449" viewBox="0 0 512 335.449"><g transform="translate(0 -88.276)"><path d="M503.172,423.725H8.828A8.829,8.829,0,0,1,0,414.9V97.1a8.829,8.829,0,0,1,8.828-8.828H503.173A8.829,8.829,0,0,1,512,97.1V414.9A8.83,8.83,0,0,1,503.172,423.725Z" fill="#82afff"/><path d="M503.172,88.277h-25.3L0,335.449V353.1L508.367,90.156A8.63,8.63,0,0,0,503.172,88.277Z" fill="#ffe15a"/><path d="M8.828,423.725h25.3L512,176.553V158.9L3.633,421.846A8.63,8.63,0,0,0,8.828,423.725Z" fill="#ffe15a"/><path d="M508.367,90.156,0,353.1V414.9a8.663,8.663,0,0,0,3.633,6.948L512,158.9V97.1A8.665,8.665,0,0,0,508.367,90.156Z" fill="#ff4b55"/><path d="M92.619,122.979l12.718,38.135,40.2.311a2.34,2.34,0,0,1,1.372,4.222l-32.339,23.881,12.126,38.328a2.34,2.34,0,0,1-3.591,2.609L90.4,207.088,57.694,230.465a2.34,2.34,0,0,1-3.591-2.609l12.126-38.328L33.89,165.647a2.34,2.34,0,0,1,1.372-4.222l40.2-.311,12.718-38.135A2.341,2.341,0,0,1,92.619,122.979Z" fill="#ffe15a"/></g></svg>