<svg xmlns="http://www.w3.org/2000/svg" width="512" height="335.449" viewBox="0 0 512 335.449"><g transform="translate(0 -88.276)"><path d="M503.172,423.725H8.828A8.829,8.829,0,0,1,0,414.9V97.1a8.829,8.829,0,0,1,8.828-8.828H503.173A8.829,8.829,0,0,1,512,97.1V414.9A8.83,8.83,0,0,1,503.172,423.725Z" fill="#41479b"/><rect width="512" height="17.655" transform="translate(0 132.411)" fill="#f5f5f5"/><rect width="512" height="17.655" transform="translate(0 361.931)" fill="#f5f5f5"/><rect width="512" height="211.86" transform="translate(0 150.071)" fill="#ff4b55"/><circle cx="70.62" cy="70.62" r="70.62" transform="translate(70.62 185.381)" fill="#f5f5f5"/><path d="M143.122,191.706l14.167,42.478,44.777.348a1.982,1.982,0,0,1,1.162,3.577l-36.021,26.6L180.713,307.4a1.983,1.983,0,0,1-3.043,2.211l-36.428-26.039-36.429,26.038a1.983,1.983,0,0,1-3.043-2.211l13.506-42.692-36.021-26.6a1.982,1.982,0,0,1,1.162-3.577l44.777-.348,14.167-42.478A1.982,1.982,0,0,1,143.122,191.706Z" fill="#ff4b55"/></g></svg>