<svg xmlns="http://www.w3.org/2000/svg" width="512" height="335.448" viewBox="0 0 512 335.448"><g transform="translate(0 -88.276)"><path d="M3.256,421.59,256,256,3.256,90.41A8.683,8.683,0,0,0,0,97.1V414.9A8.683,8.683,0,0,0,3.256,421.59Z" fill="#f5f5f5"/><path d="M3.256,421.59a8.676,8.676,0,0,0,5.571,2.134H503.172A8.829,8.829,0,0,0,512,414.9V256H256Z" fill="#73af00"/><path d="M3.256,90.41a8.676,8.676,0,0,1,5.571-2.134H503.172A8.829,8.829,0,0,1,512,97.1V256H256Z" fill="#82afff"/><path d="M91.766,216.135l-8.94,26.806-28.257.22a1.613,1.613,0,0,0-.946,2.91l22.732,16.787L67.832,289.8a1.612,1.612,0,0,0,2.475,1.8L93.3,275.167,116.285,291.6a1.613,1.613,0,0,0,2.475-1.8l-8.523-26.942,22.729-16.788a1.613,1.613,0,0,0-.946-2.91l-28.257-.22-8.94-26.806A1.611,1.611,0,0,0,91.766,216.135Z" fill="#ff4b55"/></g></svg>