<svg xmlns="http://www.w3.org/2000/svg" width="512" height="335.454" viewBox="0 0 512 335.454"><g transform="translate(0 -88.273)"><path d="M503.172,423.721H8.828A8.829,8.829,0,0,1,0,414.893V97.1a8.829,8.829,0,0,1,8.828-8.828H503.173A8.829,8.829,0,0,1,512,97.1V414.893A8.829,8.829,0,0,1,503.172,423.721Z" fill="#73af00"/><rect width="512" height="23.54" transform="translate(0 220.687)" fill="#ffe15a"/><rect width="512" height="23.54" transform="translate(0 244.227)" fill="#464655"/><rect width="512" height="23.54" transform="translate(0 267.767)" fill="#f5f5f5"/><rect width="23.54" height="335.45" transform="translate(220.69 88.277)" fill="#ffe15a"/><rect width="23.54" height="335.45" transform="translate(244.23 88.277)" fill="#464655"/><rect width="23.54" height="335.45" transform="translate(267.77 88.277)" fill="#f5f5f5"/><circle cx="88.28" cy="88.28" r="88.28" transform="translate(167.72 167.717)" fill="#ff4b55"/><path d="M248.421,271.182s-1.031,7.217,5.98,17.938h13.608l-3.093-12.989Z" fill="#73af00"/><path d="M247.459,222.868S225.193,259.293,257.9,281.01l3.436-20.618,2.2-26.666L260.1,222.317Z" fill="#a561cd"/><path d="M247.459,222.867a57.969,57.969,0,0,0-4.653,10.612c2.866,3,10.7,6.708,20.335,5.08l.4-4.834L260.1,222.316Z" fill="#73af00"/><path d="M243.2,217.645s.274-7.285,7.423-7.285c8.935,0,16.22,2.061,27.765,25.978,0,0-10.269,10.08-16.769-3.849A36.784,36.784,0,0,1,259,223.418s-7.972,2.749-13.47-.413Z" fill="#a561cd"/><path d="M246.771,221.081l-1.65-4.4s-9.209-1.512-5.361,9.622a2.234,2.234,0,0,1,2.612-1.924C244.71,224.655,247.183,222.868,246.771,221.081Z" fill="#ffe15a"/><path d="M262.165,262.866s-9.689,7.593-4.26,25.428c2.887,9.484,14.432,19.9,14.432,19.9s8.556-22.37,5.773-31.029C276.472,272.064,262.165,262.866,262.165,262.866Z" fill="#73af00"/><path d="M280.584,291.594s-25.016-23.848-26.666-42.61,9.169-15.784,11.134-14.57C269.725,237.3,281.546,249.4,280.584,291.594Z" fill="#73af00"/><path d="M277.48,297.057H236.062A1.557,1.557,0,0,1,234.5,295.5v-3.07a1.557,1.557,0,0,1,1.558-1.558H277.48a1.557,1.557,0,0,1,1.558,1.558v3.07A1.559,1.559,0,0,1,277.48,297.057Z" fill="#b34900"/><path d="M267.389,291.181c-1.442.6-4.33,1.341-3.608,3.917.553,1.974,4.33,1.752,3.608,4.021-.488,1.533-8.159,1.674-11.134,1.237-1.822-.268-5.773-1.341-5.223-5.876s2.2-5.234,4.262-6.048c2.045-.808,10.99-.629,12.3.481A1.311,1.311,0,0,1,267.389,291.181Z" fill="#ffe15a"/><path d="M256.812,177.134l2.009,6.025,6.35.05a.856.856,0,0,1,.5,1.544l-5.109,3.773,1.916,6.055a.855.855,0,0,1-1.313.954L256,191.842l-5.166,3.693a.855.855,0,0,1-1.313-.954l1.916-6.055-5.109-3.773a.856.856,0,0,1,.5-1.544l6.35-.05,2.009-6.025A.855.855,0,0,1,256.812,177.134Z" fill="#73af00"/><path d="M256.812,317.987l2.009,6.025,6.35.05a.856.856,0,0,1,.5,1.544l-5.109,3.773,1.916,6.055a.855.855,0,0,1-1.313.954L256,332.7l-5.166,3.693a.855.855,0,0,1-1.313-.954l1.916-6.055-5.109-3.773a.856.856,0,0,1,.5-1.544l6.35-.05,2.009-6.025A.855.855,0,0,1,256.812,317.987Z" fill="#73af00"/><path d="M256.812,177.134l2.009,6.025,6.35.05a.856.856,0,0,1,.5,1.544l-5.109,3.773,1.916,6.055a.855.855,0,0,1-1.313.954L256,191.842l-5.166,3.693a.855.855,0,0,1-1.313-.954l1.916-6.055-5.109-3.773a.856.856,0,0,1,.5-1.544l6.35-.05,2.009-6.025A.855.855,0,0,1,256.812,177.134Z" fill="#73af00"/><path d="M256.812,317.987l2.009,6.025,6.35.05a.856.856,0,0,1,.5,1.544l-5.109,3.773,1.916,6.055a.855.855,0,0,1-1.313.954L256,332.7l-5.166,3.693a.855.855,0,0,1-1.313-.954l1.916-6.055-5.109-3.773a.856.856,0,0,1,.5-1.544l6.35-.05,2.009-6.025A.855.855,0,0,1,256.812,317.987Z" fill="#73af00"/><path d="M207.734,191.589l1.76,6.1-5.2,3.64a.855.855,0,0,0,.462,1.556l6.347.212,1.855,6.074a.856.856,0,0,0,1.623.042l2.163-5.971,6.35.114a.855.855,0,0,0,.541-1.53l-5.011-3.9,2.069-6.006a.856.856,0,0,0-1.289-.988l-5.259,3.56-5.07-3.823A.855.855,0,0,0,207.734,191.589Z" fill="#73af00"/><path d="M287.582,307.621l1.76,6.1-5.2,3.64a.855.855,0,0,0,.462,1.556l6.347.212,1.855,6.074a.856.856,0,0,0,1.623.042l2.163-5.971,6.35.114a.855.855,0,0,0,.541-1.53l-5.011-3.9,2.07-6a.856.856,0,0,0-1.289-.988l-5.259,3.56-5.07-3.823A.855.855,0,0,0,287.582,307.621Z" fill="#73af00"/><path d="M177.885,232.025l5.07,3.823-1.976,6.036a.856.856,0,0,0,1.3.968l5.2-3.641,5.13,3.744a.856.856,0,0,0,1.323-.941l-1.855-6.073,5.146-3.721a.856.856,0,0,0-.487-1.549l-6.35-.113-1.949-6.045a.856.856,0,0,0-1.623-.017l-2.069,6-6.35-.014A.856.856,0,0,0,177.885,232.025Z" fill="#73af00"/><path d="M311.4,276.887l5.07,3.823-1.976,6.036a.856.856,0,0,0,1.3.968l5.2-3.641,5.13,3.744a.856.856,0,0,0,1.323-.941L325.6,280.8l5.146-3.721a.856.856,0,0,0-.487-1.549l-6.35-.113-1.949-6.045a.856.856,0,0,0-1.623-.017l-2.069,6-6.35-.014A.856.856,0,0,0,311.4,276.887Z" fill="#73af00"/><path d="M300.912,191.589l-1.76,6.1,5.2,3.64a.855.855,0,0,1-.462,1.556l-6.347.212-1.855,6.074a.856.856,0,0,1-1.623.042l-2.163-5.971-6.35.114a.855.855,0,0,1-.541-1.53l5.011-3.9-2.07-6a.856.856,0,0,1,1.289-.988l5.259,3.56,5.07-3.823A.855.855,0,0,1,300.912,191.589Z" fill="#73af00"/><path d="M221.063,307.621l-1.76,6.1,5.2,3.64a.855.855,0,0,1-.462,1.556l-6.347.212-1.855,6.074a.856.856,0,0,1-1.623.042l-2.163-5.971-6.35.114a.855.855,0,0,1-.541-1.53l5.011-3.9-2.07-6a.856.856,0,0,1,1.289-.988l5.259,3.56,5.07-3.823A.855.855,0,0,1,221.063,307.621Z" fill="#73af00"/><path d="M330.761,232.025l-5.07,3.823,1.976,6.036a.856.856,0,0,1-1.3.968l-5.2-3.641-5.13,3.744a.856.856,0,0,1-1.323-.941l1.855-6.073-5.146-3.721a.856.856,0,0,1,.487-1.549l6.35-.113,1.949-6.045a.856.856,0,0,1,1.623-.017l2.069,6,6.35-.014A.856.856,0,0,1,330.761,232.025Z" fill="#73af00"/><path d="M197.244,276.887l-5.07,3.823,1.976,6.036a.856.856,0,0,1-1.3.968l-5.2-3.641-5.13,3.744a.856.856,0,0,1-1.323-.941l1.855-6.073-5.146-3.721a.856.856,0,0,1,.487-1.549l6.35-.113,1.949-6.045a.856.856,0,0,1,1.623-.017l2.069,6,6.35-.014A.856.856,0,0,1,197.244,276.887Z" fill="#73af00"/></g></svg>