<svg xmlns="http://www.w3.org/2000/svg" width="512" height="335.449" viewBox="0 0 512 335.449"><g transform="translate(0 -88.276)"><path d="M503.172,423.725H8.828A8.829,8.829,0,0,1,0,414.9V97.1a8.829,8.829,0,0,1,8.828-8.828H503.173A8.829,8.829,0,0,1,512,97.1V414.9A8.83,8.83,0,0,1,503.172,423.725Z" fill="#f5f5f5"/><path d="M211.862,220.691H8.828A8.829,8.829,0,0,1,0,211.863V97.1a8.829,8.829,0,0,1,8.828-8.828H211.862A8.829,8.829,0,0,1,220.69,97.1V211.863A8.829,8.829,0,0,1,211.862,220.691Z" fill="#41479b"/><path d="M503.172,423.725H300.138a8.829,8.829,0,0,1-8.828-8.828V300.139a8.829,8.829,0,0,1,8.828-8.828H503.172A8.829,8.829,0,0,1,512,300.139V414.9A8.828,8.828,0,0,1,503.172,423.725Z" fill="#41479b"/><path d="M503.172,220.691H300.138a8.829,8.829,0,0,1-8.828-8.828V97.1a8.829,8.829,0,0,1,8.828-8.828H503.172A8.829,8.829,0,0,1,512,97.1V211.863A8.829,8.829,0,0,1,503.172,220.691Z" fill="#ff4b55"/><path d="M211.862,423.725H8.828A8.829,8.829,0,0,1,0,414.9V300.139a8.829,8.829,0,0,1,8.828-8.828H211.862a8.829,8.829,0,0,1,8.828,8.828V414.9A8.828,8.828,0,0,1,211.862,423.725Z" fill="#ff4b55"/><path d="M250.932,281.172s5.274,1.931,4.586,8.552l2.132-.04s-1.345-7.651-2.457-8.568S250.932,281.172,250.932,281.172Z" fill="#64b496"/><path d="M256.218,280.15a38.739,38.739,0,0,1-10.259-1.113,8.66,8.66,0,0,0,2.184-6.227c0-5.248-3.616-1.9-3.616-1.9s-2.378,2-.94,7.35a20.734,20.734,0,0,1-4.119-2.109,19.2,19.2,0,0,0,3.427-7.278s-6.026-1.191-7.674,3.347a20.724,20.724,0,0,1-2.6-4.317c1.549.019,3.71-1,3.71-6.9,0,0-3.935.007-4.986,3.42a33.551,33.551,0,0,1-.961-4.572c1.571.456,5.633.783,5.633-8.032,0,0-4.877.009-6.006,4.329q-.093-1.657-.075-3.425a9.514,9.514,0,0,0,5.3-9.56,11.406,11.406,0,0,0-4.311,2.239,7.67,7.67,0,0,0-3.015-7.817s-2.989,5.29,1.377,9.585a8.851,8.851,0,0,0-.984,1.817,9.373,9.373,0,0,0-5.088-3.727s-1.166,7.085,5.449,10.049a37.51,37.51,0,0,0,1.916,10.973,23.4,23.4,0,0,1-3.428-3.967c0-7.872-6.453-8.071-6.453-8.071-1.205,8.985,5.439,9.348,5.439,9.348l3.638,3.97c-7.872-1.312-7.872,5.248-7.872,5.248,5.248,1.312,7.872-1.312,7.872-1.312l2.838,1.459c-5.034.147-6.774,5.1-6.774,5.1A23.952,23.952,0,0,0,238.368,277c6.372,4.455,14.226,4.461,17.852,4.461V280.15Z" fill="#64b496"/><path d="M255.772,280.15a38.739,38.739,0,0,0,10.259-1.113,8.66,8.66,0,0,1-2.184-6.227c0-5.248,3.616-1.9,3.616-1.9s2.378,2,.94,7.35a20.733,20.733,0,0,0,4.119-2.109,19.2,19.2,0,0,1-3.427-7.278s6.026-1.191,7.674,3.347a20.724,20.724,0,0,0,2.6-4.317c-1.549.019-3.71-1-3.71-6.9,0,0,3.935.007,4.988,3.42a33.551,33.551,0,0,0,.961-4.572c-1.571.456-5.633.783-5.633-8.032,0,0,4.877.009,6.006,4.329q.093-1.657.075-3.425a9.514,9.514,0,0,1-5.3-9.56,11.406,11.406,0,0,1,4.311,2.239,7.67,7.67,0,0,1,3.015-7.817s2.989,5.29-1.377,9.585a8.851,8.851,0,0,1,.984,1.817,9.372,9.372,0,0,1,5.088-3.727s1.166,7.085-5.449,10.049a37.511,37.511,0,0,1-1.916,10.973,23.4,23.4,0,0,0,3.428-3.967c0-7.872,6.453-8.071,6.453-8.071,1.2,8.985-5.439,9.348-5.439,9.348l-3.638,3.97c7.872-1.312,7.872,5.248,7.872,5.248-5.248,1.312-7.872-1.312-7.872-1.312l-2.838,1.459c5.034.147,6.774,5.1,6.774,5.1A23.952,23.952,0,0,1,273.624,277c-6.372,4.455-14.226,4.461-17.852,4.461V280.15Z" fill="#64b496"/><path d="M233.863,222.956A44.99,44.99,0,0,0,221.9,234.123l4.224,3.115a39.747,39.747,0,0,1,10.551-9.856Z" fill="#41479b"/><path d="M256.014,257.067h18.367v10.5a5.247,5.247,0,0,1-5.248,5.248h-7.872a6.53,6.53,0,0,0-5.248,2.66v-18.4Z" fill="#ff6b71"/><path d="M259.95,245.259V230.827h19.68l-5.248,5.248v14.432H259.95Z" fill="#5f64b9"/><rect width="6.56" height="6.56" transform="translate(267.82 250.501)" fill="#f5f5f5"/><path d="M256.014,257.067H237.647v10.5a5.247,5.247,0,0,0,5.248,5.248h7.872a6.53,6.53,0,0,1,5.248,2.66v-18.4Z" fill="#ff6b71"/><path d="M252.735,273.127a6.586,6.586,0,0,1,3.25,2.307h.061a6.591,6.591,0,0,1,3.25-2.307V262.314h-6.56v10.813Z" fill="#f5f5f5"/><path d="M252.079,245.259V230.827H232.4l5.248,5.248v14.432h14.432Z" fill="#5f64b9"/><rect width="6.56" height="6.56" transform="translate(237.65 250.501)" fill="#f5f5f5"/><path d="M244.207,237.387v3.936l3.936,2.624v-2.624Z" fill="#41479b"/><path d="M248.143,241.323v3.936l5.248,2.624v-1.312Z" fill="#f5f5f5"/><path d="M267.822,237.387v3.936l-3.936,2.624v-2.624Z" fill="#41479b"/><path d="M263.886,241.323v3.936l-5.248,2.624v-1.312Z" fill="#f5f5f5"/><path d="M263.932,266.25H248.1a6.538,6.538,0,0,1-6.515-6.56V239.4l14.525,9.795,14.333-9.795V259.69A6.536,6.536,0,0,1,263.932,266.25Z" fill="#ff4b55"/><path d="M246.831,242.635l-5.248-3.936v14.432l5.248,2.624Z" fill="#41479b"/><path d="M265.2,242.635l5.248-3.936v14.432l-5.248,2.624Z" fill="#41479b"/><rect width="15.744" height="6.56" transform="translate(248.14 255.761)" fill="#41479b"/><path d="M248.143,243.947l7.871,3.936,7.872-3.936v11.808H248.143Z" fill="#ff4b55"/><path d="M261.919,245.187v13.192a1.969,1.969,0,0,1-1.967,1.967H252.08a1.969,1.969,0,0,1-1.967-1.967V245.241l-3.936-2.636v15.774a5.91,5.91,0,0,0,5.9,5.9h7.872a5.91,5.91,0,0,0,5.9-5.9V242.516Z" fill="#f5f5f5"/><path d="M263.293,254.351a29.385,29.385,0,0,0-7.278,1.32,29.378,29.378,0,0,0-7.278-1.32c-3.7-.332-5.892-.655-7.148-2.886v3.787c1.929,1.254,4.372,1.484,6.913,1.713a25.635,25.635,0,0,1,7.049,1.329l.465.175.465-.175a25.661,25.661,0,0,1,7.049-1.329c2.543-.228,4.99-.455,6.919-1.711v-3.8C269.192,253.7,267,254.019,263.293,254.351Z" fill="#f5f5f5"/><path d="M258.638,241.979h-1.967v-1.968h-1.312v1.968h-1.968v1.312h1.968v5.9h1.312v-5.9h1.967Z" fill="#ffe15a"/><rect width="1.018" height="16.304" transform="translate(243.081 236.746) rotate(-45)" fill="#464655"/><path d="M241.278,234.221l1.441,2.882,1.441-1.441Z" fill="#ffe15a"/><rect width="1.019" height="16.305" transform="matrix(0.808, -0.589, 0.589, 0.808, 245.626, 234.758)" fill="#464655"/><path d="M244.227,231.984l.977,3.071,1.647-1.2Z" fill="#ffe15a"/><rect width="1.018" height="16.304" transform="matrix(0.572, -0.82, 0.82, 0.572, 240.928, 239.268)" fill="#464655"/><path d="M238.71,237.109l1.923,2.585,1.167-1.67Z" fill="#ffe15a"/><rect width="1.018" height="16.304" transform="translate(257.416 248.266) rotate(-135)" fill="#464655"/><path d="M270.745,234.221,269.3,237.1l-1.441-1.441Z" fill="#ffe15a"/><rect width="1.019" height="16.305" transform="matrix(-0.808, -0.589, 0.589, -0.808, 256.808, 247.926)" fill="#464655"/><path d="M267.8,231.984l-.977,3.071-1.646-1.2Z" fill="#ffe15a"/><rect width="1.018" height="16.304" transform="matrix(-0.572, -0.82, 0.82, -0.572, 257.745, 248.616)" fill="#464655"/><path d="M273.313,237.109l-1.923,2.585-1.167-1.67Z" fill="#ffe15a"/><path d="M255.349,272.437s-5.074-5.449-4.089-10.451c.791-4.023,3.192-8.458,5.071-9.537,0,0,2.657-.164,1.991,2.144s-1.478,2.9-1.24,5.178C257.491,263.709,258.126,268.375,255.349,272.437Z" fill="#f5f5f5"/><path d="M256.888,252.478a3.268,3.268,0,0,0-.558-.028c-1.879,1.079-4.28,5.514-5.071,9.537a10.182,10.182,0,0,0,1.373,6.543C251.991,260.282,254.4,257.356,256.888,252.478Z" fill="#41479b"/><path d="M257.08,259.773c-.237-2.275.574-2.87,1.24-5.178a1.5,1.5,0,0,0-1.432-2.116,23.7,23.7,0,0,0-1.8,6.5c-.1,2.3.492,11.644.264,13.458C258.126,268.375,257.491,263.709,257.08,259.773Z" fill="#ff4b55"/><path d="M253.639,254.424a4.608,4.608,0,0,1,4-1.242l-2.07-6.664a4.616,4.616,0,0,0-4,1.242Q252.6,251.093,253.639,254.424Z" fill="#f5f0f0"/><path d="M257.638,253.182a4.608,4.608,0,0,1,4-1.242l-2.07-6.664a4.616,4.616,0,0,0-4,1.242Q256.6,249.849,257.638,253.182Z" fill="#f5f5f5"/><path d="M250.022,224.355a39.786,39.786,0,0,0-20.37,5.07q-1.282-2.289-2.567-4.577a45.017,45.017,0,0,1,23.058-5.74Q250.082,221.731,250.022,224.355Z" fill="#5f64b9"/><path d="M278.167,222.956a44.99,44.99,0,0,1,11.958,11.167l-4.224,3.115a39.747,39.747,0,0,0-10.551-9.856Z" fill="#41479b"/><path d="M262.008,224.355a39.786,39.786,0,0,1,20.37,5.07q1.283-2.289,2.567-4.577a45.017,45.017,0,0,0-23.058-5.74Q261.949,221.731,262.008,224.355Z" fill="#5f64b9"/><path d="M266.51,222.956a39.767,39.767,0,0,0-20.991,0q-.691-2.53-1.385-5.062a45.037,45.037,0,0,1,23.761,0Q267.2,220.424,266.51,222.956Z" fill="#41479b"/><path d="M238.432,281.758a95.256,95.256,0,0,0-16.529,5.985q1.119,2.373,2.237,4.747a89.834,89.834,0,0,1,15.96-5.742Z" fill="#ff6b71"/><path d="M273.6,281.758a95.256,95.256,0,0,1,16.529,5.985q-1.119,2.373-2.237,4.747a89.835,89.835,0,0,0-15.96-5.742Z" fill="#ff6b71"/><path d="M277.119,285.816a89.912,89.912,0,0,0-41.983,0q-.612-2.553-1.225-5.1a95.167,95.167,0,0,1,44.433,0Q277.734,283.264,277.119,285.816Z" fill="#ff4b55"/><path d="M256.014,287.242l-3.618.9a1.312,1.312,0,0,1-1.63-1.272v-1.887a1.311,1.311,0,0,1,1.63-1.272l3.618.9Z" fill="#ff4b55"/><path d="M256.014,284.618l3.618-.9a1.312,1.312,0,0,1,1.63,1.272v1.887a1.311,1.311,0,0,1-1.63,1.272l-3.618-.9Z" fill="#ff4b55"/><path d="M256.3,287.242h-.563a1.031,1.031,0,0,1-1.031-1.031v-.563a1.031,1.031,0,0,1,1.031-1.031h.563a1.031,1.031,0,0,1,1.031,1.031v.563A1.032,1.032,0,0,1,256.3,287.242Z" fill="#ff6b71"/></g></svg>