<svg xmlns="http://www.w3.org/2000/svg" width="512" height="335.449" viewBox="0 0 512 335.449"><g transform="translate(0 -88.276)"><path d="M512,339.863H0V414.9a8.829,8.829,0,0,0,8.828,8.828H503.173A8.829,8.829,0,0,0,512,414.9V339.863Z" fill="#ff4b55"/><path d="M512,256H0V97.1a8.829,8.829,0,0,1,8.828-8.828H503.173A8.829,8.829,0,0,1,512,97.1V256Z" fill="#ffe15a"/><rect width="512" height="83.86" transform="translate(0 256.001)" fill="#41479b"/><path d="M246.788,260.954l64.48-55.268v79.987a24.408,24.408,0,0,1-24.408,24.408h0a24.413,24.413,0,0,1-16.329-6.265l-23.743-21.368V260.954Z" fill="#ffe15a"/><path d="M280.8,292.4l-18.66-16.794V247.8l33.775-28.95v66.828A9.056,9.056,0,0,1,280.8,292.4Z" fill="#ff4b55"/><path d="M271.352,239.9v31.617L286.7,285.38V226.743l9.212-7.9v66.828a9.056,9.056,0,0,1-15.115,6.731l-18.66-16.794V247.8Z" fill="#41479b"/><path d="M265.212,260.954l-64.48-55.268v79.987a24.408,24.408,0,0,0,24.408,24.408h0a24.413,24.413,0,0,0,16.329-6.265l23.743-21.368Z" fill="#ffe15a"/><path d="M231.2,292.4l18.66-16.794V247.8l-33.775-28.95v66.828A9.056,9.056,0,0,0,231.2,292.4Z" fill="#ff4b55"/><path d="M240.648,239.9v31.617L225.3,285.38V226.743l-9.212-7.9v66.828a9.056,9.056,0,0,0,15.115,6.731l18.66-16.794V247.8Z" fill="#41479b"/><rect width="4.414" height="26.449" transform="translate(309.04 205.961)" fill="#41479b"/><rect width="4.414" height="26.449" transform="translate(198.51 205.961)" fill="#41479b"/><path d="M246.788,193.4s6.141-29.17-15.352-25.332-21.493,9.978-46.057,22.261c0,0,27.634,6.141,39.916,3.071,0,0,9.212,12.281,18.423,15.352h9.212Z" fill="#5a4646"/><path d="M265.212,193.4s-6.141-29.17,15.352-25.332,21.493,9.978,46.057,22.261c0,0-27.634,6.141-39.916,3.071,0,0-9.212,12.281-18.423,15.352H259.07Z" fill="#5a4646"/><path d="M265.212,208.757H246.789V193.291a9.1,9.1,0,0,1,9.1-9.1h.227a9.1,9.1,0,0,1,9.1,9.1v15.466Z" fill="#5a4646"/><circle cx="6.141" cy="6.141" r="6.141" transform="translate(249.859 187.26)" fill="#e6e1cd"/><path d="M242.823,189.439l11.546,6.166a2.49,2.49,0,0,0,2.937-.437h0a2.494,2.494,0,0,0,0-3.527l-7.448-7.448h-1.791a5.245,5.245,0,0,0-5.244,5.246Z" fill="#ffd0af"/><path d="M246.827,190.334h-9.249l4.047-4.738a4,4,0,0,1,3.042-1.4h5.192V187.3A3.033,3.033,0,0,1,246.827,190.334Z" fill="#ffaf94"/><path d="M282.186,208.765a8.67,8.67,0,0,1-1.5-8.541,8.668,8.668,0,0,1,8.162,2.931,8.559,8.559,0,0,1,1.784,7.272c.614,1.042,1.364,2.382,2.189,3.964a6.767,6.767,0,0,1,.1-.673,7.134,7.134,0,0,1,5.135-4.958,7.135,7.135,0,0,1,1.759,6.918,7.046,7.046,0,0,1-4.18,4.581c.771,1.769,1.534,3.677,2.247,5.69.041-.118.044-.238.092-.355a7.134,7.134,0,0,1,5.65-4.362,7.139,7.139,0,0,1,.987,7.07,7.049,7.049,0,0,1-4.764,4.121,53.98,53.98,0,0,1,1.775,13.183h-3.071A49.683,49.683,0,0,0,297.032,234a6.983,6.983,0,0,1-5.845-.641,7.072,7.072,0,0,1-3.361-6.223,7.068,7.068,0,0,1,7.071.168c.081.049.135.121.213.173-.658-1.89-1.358-3.683-2.077-5.365a6.985,6.985,0,0,1-6,.071,7.072,7.072,0,0,1-4.026-5.815,7.073,7.073,0,0,1,7.023-.62c-.845-1.625-1.608-2.986-2.206-4A8.584,8.584,0,0,1,282.186,208.765Z" fill="#8cb400"/><path d="M229.814,208.765a8.67,8.67,0,0,0,1.5-8.541,8.668,8.668,0,0,0-8.162,2.931,8.559,8.559,0,0,0-1.784,7.272c-.614,1.042-1.364,2.382-2.189,3.964a6.771,6.771,0,0,0-.1-.673,7.134,7.134,0,0,0-5.135-4.958,7.135,7.135,0,0,0-1.759,6.918,7.046,7.046,0,0,0,4.18,4.581c-.771,1.769-1.534,3.677-2.247,5.69-.041-.118-.044-.238-.092-.355a7.134,7.134,0,0,0-5.65-4.362,7.137,7.137,0,0,0-.986,7.07,7.049,7.049,0,0,0,4.764,4.121,53.98,53.98,0,0,0-1.775,13.183h3.071A49.683,49.683,0,0,1,214.969,234a6.983,6.983,0,0,0,5.845-.641,7.07,7.07,0,0,0,3.361-6.223,7.068,7.068,0,0,0-7.071.168c-.081.049-.135.121-.213.173.658-1.89,1.358-3.683,2.077-5.365a6.985,6.985,0,0,0,6,.071A7.072,7.072,0,0,0,229,216.366a7.073,7.073,0,0,0-7.023-.62c.845-1.625,1.608-2.986,2.206-4A8.584,8.584,0,0,0,229.814,208.765Z" fill="#8cb400"/><path d="M256,276.307l-64.48-55.268v79.987a24.408,24.408,0,0,0,24.408,24.408h0a24.413,24.413,0,0,0,16.329-6.265L256,297.8Z" fill="#ffe15a"/><path d="M221.987,307.757l18.66-16.794V263.148L206.872,234.2v66.828a9.056,9.056,0,0,0,15.115,6.731Z" fill="#ff4b55"/><path d="M231.436,255.253V286.87l-15.352,13.862V242.095l-9.212-7.9v66.828a9.056,9.056,0,0,0,15.115,6.731l18.66-16.794V263.149Z" fill="#41479b"/><path d="M256,276.307l64.48-55.268v79.987a24.408,24.408,0,0,1-24.408,24.408h0a24.413,24.413,0,0,1-16.329-6.265L256,297.8Z" fill="#ffe15a"/><path d="M290.013,307.757l-18.66-16.794V263.148l33.775-28.95v66.828a9.056,9.056,0,0,1-15.115,6.731Z" fill="#ff4b55"/><path d="M280.564,255.253V286.87l15.352,13.862V242.095l9.212-7.9v66.828a9.056,9.056,0,0,1-15.115,6.731l-18.66-16.794V263.149Z" fill="#41479b"/><ellipse cx="30.705" cy="46.06" rx="30.705" ry="46.06" transform="translate(225.295 208.751)" fill="#69c3ff"/><path d="M228.366,267.1h55.268l3.071-12.281-13.993,2.333a9.617,9.617,0,0,1-7.839-2.184l-15.884-13.615a7.831,7.831,0,0,0-5.1-1.886h0a7.83,7.83,0,0,0-5.538,2.294l-9.988,9.988V267.1Z" fill="#009b64"/><path d="M253.087,252.751l5.274-3.37-9.374-8.034a7.831,7.831,0,0,0-5.1-1.886h0a7.83,7.83,0,0,0-5.538,2.294l-9.988,9.988v3.071l15.352-3.071,2.714,1.357A6.753,6.753,0,0,0,253.087,252.751Z" fill="#f5f5f5"/><path d="M228.366,267.1l3.07,18.422,15.352,15.353H256l12.281-3.07,12.283-12.283,3.07-18.422Z" fill="#5aa0e6"/><path d="M256,303.941c-18.624,0-33.775-22.039-33.775-49.128S237.376,205.685,256,205.685s33.775,22.039,33.775,49.128S274.624,303.941,256,303.941Zm0-92.113c-15.236,0-27.634,19.284-27.634,42.987S240.763,297.8,256,297.8s27.634-19.284,27.634-42.987S271.236,211.828,256,211.828Z" fill="#ffc88c"/><path d="M234.339,300.6a12.777,12.777,0,0,0-21.492,0,14.819,14.819,0,0,1,9.683,9.479,18.053,18.053,0,0,1,1.064,6.15C223.593,308.628,228.182,302.3,234.339,300.6Z" fill="#e1e1e1"/><path d="M226.031,310.282s-.239,4.094-2.339,6.013l-.088-.072c-2.1-1.919-2.339-6.013-2.339-6.013Z" fill="#e1e1e1"/><path d="M294.4,311.617H217.6a1.516,1.516,0,0,1-1.516-1.516v-.038a1.516,1.516,0,0,1,1.516-1.516h76.8a1.516,1.516,0,0,1,1.516,1.516v.038A1.516,1.516,0,0,1,294.4,311.617Z" fill="#966446"/><path d="M271.428,316.223H240.572a6.066,6.066,0,0,1-6.066-6.066v-.151a6.066,6.066,0,0,1,6.066-6.066h30.856a6.066,6.066,0,0,1,6.066,6.066v.151A6.068,6.068,0,0,1,271.428,316.223Z" fill="#be915a"/><path d="M228.366,308.547H217.62a1.535,1.535,0,0,0,0,3.07h10.746Z" fill="#b9b9b9"/><path d="M256,316.223v28.054l-12.281-3.49,6.14-24.564Z" fill="#ff4b55"/><path d="M252.929,316.223l-6.141,21.494-12.281-3.071,9.212-18.423Z" fill="#41479b"/><path d="M240.648,316.223l-9.212,12.282,9.212,3.07,6.14-15.352Z" fill="#ffe15a"/><path d="M256,316.223v28.054l12.281-3.49-6.14-24.564Z" fill="#ff4b55"/><path d="M259.071,316.223l6.141,21.494,12.281-3.071-9.212-18.423Z" fill="#41479b"/><path d="M271.352,316.223l9.212,12.282-9.212,3.07-6.14-15.352Z" fill="#ffe15a"/><path d="M193.728,247.483l-4.414-4.448v-22h4.414Z" fill="#41479b"/><path d="M322.646,243.035l-4.414,4.448V221.036h4.414Z" fill="#41479b"/></g></svg>