<svg xmlns="http://www.w3.org/2000/svg" width="512" height="335.449" viewBox="0 0 512 335.449"><g transform="translate(0 -88.276)"><path d="M512,200.093H0V97.1a8.829,8.829,0,0,1,8.828-8.828H503.173A8.829,8.829,0,0,1,512,97.1V200.093Z" fill="#ff4b55"/><path d="M503.172,423.725H8.828A8.829,8.829,0,0,1,0,414.9V311.909H512V414.9A8.828,8.828,0,0,1,503.172,423.725Z" fill="#464655"/><rect width="512" height="111.81" transform="translate(0 200.091)" fill="#f5f5f5"/><path d="M284.186,238.571a6.413,6.413,0,0,0-8.441-6.084l-7.8,2.6-1.895-11.444a14.047,14.047,0,0,0-13.906-11.78h-7.3l-7.634,9.4h10.109l-2.829,13.972-8.233-2.744a6.413,6.413,0,0,0-8.441,6.084v47.475l11.363-11.363-5.354,16.061h-6.008v9.4h56.373v-9.4h-6.008l-5.354-16.061,11.363,11.363V238.571ZM251.3,290.743h-7.574l5.208-13.909,2.366,3.021v10.888Zm9.394,0V279.855l2.366-3.021,5.208,13.909ZM256,273.714s-14.534-9.836-13.946-28.186c0,0,8.956-1.468,13.946-9.4,4.991,7.927,13.947,9.4,13.947,9.4C270.534,263.879,256,273.714,256,273.714Z" fill="#f0c727"/></g></svg>