<svg xmlns="http://www.w3.org/2000/svg" width="512" height="335.449" viewBox="0 0 512 335.449"><g transform="translate(0 -88.276)"><path d="M512,200.093H0V97.1a8.829,8.829,0,0,1,8.828-8.828H503.173A8.829,8.829,0,0,1,512,97.1V200.093Z" fill="#41479b"/><path d="M503.172,423.725H8.828A8.829,8.829,0,0,1,0,414.9V311.909H512V414.9A8.828,8.828,0,0,1,503.172,423.725Z" fill="#41479b"/><rect width="512" height="111.81" transform="translate(0 200.091)" fill="#f5f5f5"/><path d="M255.789,293.563a38.62,38.62,0,0,1-29.541-63.5l1.687,1.422a36.413,36.413,0,0,0,27.853,59.869v2.207Z" fill="#50af69"/><path d="M241.662,282.16a7.711,7.711,0,0,0-.825,3.1,9.615,9.615,0,0,0-1.4-.851,9.788,9.788,0,0,0-.166,4.6,7.272,7.272,0,0,0-3.861,2.1,10.331,10.331,0,0,0,1.73.919,7.748,7.748,0,0,0-2.4,2.848c10.83,5.415,16.02-2.138,16.246-2.477A17.943,17.943,0,0,0,241.662,282.16Z" fill="#50af69"/><path d="M250.985,292.4c.007.019.015.035.022.055v-.087Z" fill="#50af69"/><path d="M231.66,274.942a7.122,7.122,0,0,0-1.83,2.312,8.747,8.747,0,0,0-.87-1.229,8.979,8.979,0,0,0-1.821,3.817,6.687,6.687,0,0,0-4.023.362,9.505,9.505,0,0,0,1.122,1.408,7.117,7.117,0,0,0-3.065,1.523c7.149,8.525,14.287,4.055,14.6,3.852A16.475,16.475,0,0,0,231.66,274.942Z" fill="#50af69"/><path d="M235.775,286.985c0,.019,0,.035,0,.054l.032-.073Z" fill="#50af69"/><path d="M225.455,265.505a6.421,6.421,0,0,0-2.359,1.22,7.987,7.987,0,0,0-.259-1.332,8.1,8.1,0,0,0-2.91,2.461,6.017,6.017,0,0,0-3.438-1.194,8.43,8.43,0,0,0,.4,1.572,6.412,6.412,0,0,0-3.082.115c2.713,9.652,10.232,8.625,10.567,8.574A14.862,14.862,0,0,0,225.455,265.505Z" fill="#50af69"/><path d="M224.372,276.922c-.008.014-.013.029-.022.044l.053-.049A.218.218,0,0,1,224.372,276.922Z" fill="#50af69"/><path d="M223,254.75a6.742,6.742,0,0,0-2.4.774,6.7,6.7,0,0,0,.073-1.187,8.752,8.752,0,0,0-3.183,1.782,4.888,4.888,0,0,0-2.822-1.452,7,7,0,0,0,0,1.412,6.111,6.111,0,0,0-2.8-.274c.228,8.7,7.231,8.721,7.543,8.717A13.478,13.478,0,0,0,223,254.75Z" fill="#50af69"/><path d="M219.4,264.524l-.03.035.058-.035Z" fill="#50af69"/><path d="M223.814,245.843a5.909,5.909,0,0,0-2.217.028,5.673,5.673,0,0,0,.367-.977,7.694,7.694,0,0,0-3.132.672,4.284,4.284,0,0,0-1.991-1.948,6.1,6.1,0,0,0-.366,1.185,5.35,5.35,0,0,0-2.279-.953c-2.06,7.358,3.809,9.186,4.072,9.263A11.843,11.843,0,0,0,223.814,245.843Z" fill="#50af69"/><path d="M218.27,253.112l-.034.022.058-.014Z" fill="#50af69"/><path d="M219.168,235.011s-2,5.241,1.1,8.276a10.686,10.686,0,0,0,6.046-5.4l-1.7-.322-.874-2.621-2.9,1.288Z" fill="#50af69"/><path d="M224.8,226.586s-3.135,4.652-.8,8.311A10.689,10.689,0,0,0,231.115,231l-1.585-.7-.257-2.751-3.113.6Z" fill="#50af69"/><path d="M256.211,293.563v-2.207a36.413,36.413,0,0,0,27.853-59.869l1.687-1.422a38.62,38.62,0,0,1-29.54,63.5Z" fill="#50af69"/><path d="M270.338,282.16a7.712,7.712,0,0,1,.825,3.1,9.616,9.616,0,0,1,1.4-.851,9.78,9.78,0,0,1,.165,4.6,7.272,7.272,0,0,1,3.861,2.1,10.331,10.331,0,0,1-1.73.919,7.748,7.748,0,0,1,2.4,2.848c-10.83,5.415-16.02-2.138-16.246-2.477A17.947,17.947,0,0,1,270.338,282.16Z" fill="#50af69"/><path d="M261.015,292.4c-.007.019-.015.035-.022.055v-.087Z" fill="#50af69"/><path d="M280.34,274.942a7.107,7.107,0,0,1,1.829,2.312,8.746,8.746,0,0,1,.87-1.229,8.979,8.979,0,0,1,1.821,3.817,6.687,6.687,0,0,1,4.023.362,9.506,9.506,0,0,1-1.122,1.408,7.117,7.117,0,0,1,3.065,1.523c-7.149,8.525-14.287,4.055-14.6,3.852A16.478,16.478,0,0,1,280.34,274.942Z" fill="#50af69"/><path d="M276.225,286.985c0,.019,0,.035,0,.054l-.032-.073Z" fill="#50af69"/><path d="M286.545,265.505a6.421,6.421,0,0,1,2.359,1.22,7.987,7.987,0,0,1,.259-1.332,8.1,8.1,0,0,1,2.91,2.461,6.017,6.017,0,0,1,3.438-1.194,8.43,8.43,0,0,1-.4,1.572,6.412,6.412,0,0,1,3.082.115c-2.713,9.652-10.232,8.625-10.567,8.574A14.862,14.862,0,0,1,286.545,265.505Z" fill="#50af69"/><path d="M287.628,276.922c.008.014.013.029.022.044l-.053-.049A.22.22,0,0,0,287.628,276.922Z" fill="#50af69"/><path d="M289,254.75a6.742,6.742,0,0,1,2.4.774,6.7,6.7,0,0,1-.073-1.187,8.752,8.752,0,0,1,3.183,1.782,4.888,4.888,0,0,1,2.822-1.452,7,7,0,0,1,0,1.412,6.111,6.111,0,0,1,2.8-.274c-.228,8.7-7.231,8.721-7.543,8.717A13.478,13.478,0,0,1,289,254.75Z" fill="#50af69"/><path d="M292.6,264.524l.03.035-.059-.035Z" fill="#50af69"/><path d="M288.186,245.843a5.909,5.909,0,0,1,2.217.028,5.671,5.671,0,0,1-.367-.977,7.693,7.693,0,0,1,3.132.672,4.284,4.284,0,0,1,1.991-1.948,6.1,6.1,0,0,1,.366,1.185,5.35,5.35,0,0,1,2.279-.953c2.06,7.358-3.809,9.186-4.072,9.263A11.842,11.842,0,0,1,288.186,245.843Z" fill="#50af69"/><path d="M293.73,253.112l.034.022-.058-.014Z" fill="#50af69"/><path d="M292.832,235.011s2,5.241-1.1,8.276a10.686,10.686,0,0,1-6.046-5.4l1.7-.322.874-2.621,2.9,1.288Z" fill="#50af69"/><path d="M287.2,226.586s3.135,4.652.8,8.311A10.689,10.689,0,0,1,280.885,231l1.585-.7.257-2.751,3.113.6Z" fill="#50af69"/><path d="M256,270.346l-3.412,5.118a2.2,2.2,0,0,0,.276,2.781L256,281.381l3.136-3.136a2.2,2.2,0,0,0,.276-2.781Z" fill="#41479b"/><path d="M257.454,275.464,256,270.346l-1.454,5.118a4.642,4.642,0,0,0,.117,2.781L256,281.381l1.336-3.136A4.627,4.627,0,0,0,257.454,275.464Z" fill="#f5f5f5"/><path d="M256,224.553V210.76a30.876,30.876,0,0,0-4.414,18.574" fill="#41479b"/><path d="M232.494,224.6a34.372,34.372,0,0,0,1.827,32.545c.043.068,10.827-17.376,10.827-17.376L232.494,224.6" fill="#41479b"/><path d="M240.477,247.315a22.056,22.056,0,0,1,.067-13.066l-4.692-5.624c-3.855,10.388-2.26,18.058,1.6,23.562C238.4,250.664,239.45,248.97,240.477,247.315Z" fill="#f5f5f5"/><path d="M244.967,240.688a1.1,1.1,0,0,1-.872-.427L230.258,222.47A1.1,1.1,0,1,1,232,221.117l13.837,17.791a1.1,1.1,0,0,1-.193,1.547A1.09,1.09,0,0,1,244.967,240.688Z" fill="#ffe15a"/><path d="M222.9,241.7c-4.414,44.138,30.9,33.1,33.1,28.69l-22.069-11.034,4.414-8.828L222.9,241.7" fill="#41479b"/><path d="M233.567,246.778l-6.151-3.69c-1.384,26.228,12.622,30.6,22.953,29.294C241.994,271.258,233.626,265.074,233.567,246.778Z" fill="#f5f5f5"/><path d="M238.343,251.628a1.1,1.1,0,0,1-.584-.168l-17.654-11.032a1.1,1.1,0,0,1,1.171-1.87L238.93,249.59a1.1,1.1,0,0,1-.587,2.038Z" fill="#ffe15a"/><path d="M279.506,224.556a34.372,34.372,0,0,1-1.827,32.545c-.043.068-10.827-17.376-10.827-17.376l12.654-15.169" fill="#41479b"/><path d="M271.523,247.271a22.056,22.056,0,0,0-.067-13.066l4.692-5.624c3.855,10.388,2.26,18.058-1.6,23.562C273.6,250.621,272.55,248.926,271.523,247.271Z" fill="#f5f5f5"/><path d="M267.033,240.645a1.088,1.088,0,0,1-.676-.233,1.1,1.1,0,0,1-.193-1.547L280,221.074a1.1,1.1,0,1,1,1.741,1.353L267.9,240.218A1.1,1.1,0,0,1,267.033,240.645Z" fill="#ffe15a"/><path d="M289.1,241.656c4.414,44.138-30.9,33.1-33.1,28.69l22.069-11.034-4.414-8.828,15.448-8.828" fill="#41479b"/><path d="M278.433,246.734l6.151-3.69c1.384,26.228-12.622,30.6-22.953,29.294C270.006,271.214,278.374,265.031,278.433,246.734Z" fill="#f5f5f5"/><path d="M273.657,251.585a1.1,1.1,0,0,1-.587-2.039l17.654-11.032a1.1,1.1,0,0,1,1.171,1.87l-17.654,11.032A1.088,1.088,0,0,1,273.657,251.585Z" fill="#ffe15a"/><circle cx="8.828" cy="8.828" r="8.828" transform="translate(247.172 235.033)" fill="#ffe6e6"/><circle cx="4.414" cy="4.414" r="4.414" transform="translate(251.586 239.447)" fill="#f5f5f5"/><path d="M256,258.208a1.1,1.1,0,0,1-1.1-1.1V243.864a1.1,1.1,0,1,1,2.206,0v13.241A1.1,1.1,0,0,1,256,258.208Z" fill="#ffe15a"/><path d="M286.161,270.162H227.034l6.9-13.124h44.322Z" fill="#5aa0e6"/><path d="M257.8,259.5h15.377l-4.783-4.783a2.048,2.048,0,0,0-.8-.495l-1.665-.555a2.052,2.052,0,0,0-1.785.239l-5.316,3.544Z" fill="#ffb750"/><path d="M252.567,260.323H270.92l-5.709-5.709a2.446,2.446,0,0,0-.957-.591l-1.987-.662a2.446,2.446,0,0,0-2.131.286l-6.345,4.231Z" fill="#ffc455"/><path d="M246.183,261.242h22.163l-6.894-6.894a2.962,2.962,0,0,0-1.155-.714l-2.4-.8a2.957,2.957,0,0,0-2.573.344l-7.662,5.108Z" fill="#ffcd55"/><path d="M239.865,262.07h25.376l-7.894-7.894a3.39,3.39,0,0,0-1.323-.818l-2.748-.916a3.385,3.385,0,0,0-2.947.4l-8.774,5.849Z" fill="#ffd25a"/><path d="M229.517,263.725h33.1l-10.3-10.3a4.4,4.4,0,0,0-1.726-1.066l-3.584-1.2a4.414,4.414,0,0,0-3.844.515l-11.445,7.629Z" fill="#ffe15a"/><path d="M258.382,245.843h-4.771l1.1-4.607h1.658a1.161,1.161,0,0,1,1.129.892Z" fill="#ff4b55"/><path d="M258.108,246.583h-4.284a.634.634,0,0,1-.634-.634v-.212a.634.634,0,0,1,.634-.634h4.284a.634.634,0,0,1,.634.634v.212A.635.635,0,0,1,258.108,246.583Z" fill="#ff4b55"/><path d="M255.276,243.333l-1.071-.271a.474.474,0,0,1-.27-.734l.775-1.092Z" fill="#ff4b55"/><path d="M250.495,232.527q-.078.607-.157,1.216a10.46,10.46,0,0,1,11.324,0q-.078-.609-.157-1.216a11.523,11.523,0,0,0-11.01,0Z" fill="#41479b"/><path d="M250.563,232q-.078.607-.157,1.216a10.2,10.2,0,0,1,11.186,0q-.078-.609-.157-1.216a11.212,11.212,0,0,0-10.872,0Z" fill="#5aa0e6"/><path d="M250.626,231.51q-.078.607-.157,1.216a9.966,9.966,0,0,1,11.06,0q-.078-.607-.157-1.216a10.936,10.936,0,0,0-10.746,0Z" fill="#9bc800"/><path d="M250.7,230.951q-.078.609-.157,1.216a9.7,9.7,0,0,1,10.918,0q-.078-.607-.157-1.216a10.628,10.628,0,0,0-10.6,0Z" fill="#ffe14e"/><path d="M250.77,230.4q-.078.607-.157,1.216a9.449,9.449,0,0,1,10.774,0q-.078-.607-.157-1.216a10.329,10.329,0,0,0-10.46,0Z" fill="#ffb14e"/><path d="M250.8,230.168c-.036.284-.073.568-.109.852a9.177,9.177,0,0,1,10.622,0c-.036-.284-.073-.568-.109-.852a10.208,10.208,0,0,0-10.4,0Z" fill="#ff4b55"/><path d="M286.9,271.449H225.1a1.1,1.1,0,0,1-.918-1.715l30.9-46.345a1.148,1.148,0,0,1,1.836,0l30.9,46.345a1.1,1.1,0,0,1-.919,1.715Zm-59.732-2.207h57.671L256,225.991Z" fill="#ffe15a"/><path d="M256,214.07a1.1,1.1,0,0,1-1.1-1.1v-4.414a1.1,1.1,0,1,1,2.206,0v4.414A1.1,1.1,0,0,1,256,214.07Z" fill="#ffe15a"/><path d="M258.207,214.07h-4.414a1.1,1.1,0,0,1,0-2.206h4.414a1.1,1.1,0,1,1,0,2.206Z" fill="#ffe15a"/><path d="M256,293.518a1.205,1.205,0,0,1-.239-.025c-1.08-.242-4.684-1.106-5.747-2.159a3.447,3.447,0,0,1,2.416-5.9h.012a3.423,3.423,0,0,1,2.43,1c1.063,1.056,1.954,4.651,2.2,5.728a1.1,1.1,0,0,1-1.074,1.35Zm-3.558-5.875a2.054,2.054,0,0,0-.882.366,1.244,1.244,0,0,0,.008,1.757,10.522,10.522,0,0,0,2.89,1.119A10.513,10.513,0,0,0,253.317,288l.777-.782-.778.782A1.226,1.226,0,0,0,252.442,287.643Z" fill="#41479b"/><path d="M256,293.518a1.1,1.1,0,0,1-1.075-1.352c.248-1.078,1.14-4.672,2.2-5.728h0a3.537,3.537,0,0,1,2.442-1,3.447,3.447,0,0,1,2.417,5.894c-1.064,1.056-4.668,1.92-5.748,2.162A1.119,1.119,0,0,1,256,293.518Zm1.906-6.3.777.782a10.527,10.527,0,0,0-1.141,2.881,10.4,10.4,0,0,0,2.891-1.121,1.243,1.243,0,0,0,.006-1.754,1.226,1.226,0,0,0-.876-.366h0a1.229,1.229,0,0,0-.874.36Zm0,0h0Z" fill="#41479b"/><path d="M251.586,300.139a1.1,1.1,0,0,1-1.1-1.1c0-5.038,4.819-7.505,5.024-7.608a1.1,1.1,0,0,1,.991,1.972c-.039.02-3.807,1.976-3.807,5.635A1.1,1.1,0,0,1,251.586,300.139Z" fill="#41479b"/><path d="M260.414,300.139a1.1,1.1,0,0,1-1.1-1.1c0-3.659-3.768-5.617-3.807-5.635a1.1,1.1,0,0,1,.991-1.972c.2.1,5.024,2.569,5.024,7.608A1.1,1.1,0,0,1,260.414,300.139Z" fill="#41479b"/></g></svg>