<svg xmlns="http://www.w3.org/2000/svg" width="512" height="335.449" viewBox="0 0 512 335.449"><g transform="translate(0 -88.276)"><path d="M512,200.093H0V97.1a8.829,8.829,0,0,1,8.828-8.828H503.173A8.829,8.829,0,0,1,512,97.1V200.093Z" fill="#73af00"/><path d="M503.172,423.725H8.828A8.829,8.829,0,0,1,0,414.9V311.909H512V414.9A8.828,8.828,0,0,1,503.172,423.725Z" fill="#ff4b55"/><rect width="512" height="111.81" transform="translate(0 200.091)" fill="#f5f5f5"/><path d="M128.1,261.471a8.828,8.828,0,0,0,0-10.94L2.335,91.234A8.728,8.728,0,0,0,0,97.1V414.9a8.726,8.726,0,0,0,2.335,5.87Z" fill="#4173cd"/><path d="M253.881,263.9c0,.216-.071,20.968-5.378,31.177h14.913c-5.308-10.208-5.378-30.961-5.378-31.177,0-7.15,7.411-12.832,7.486-12.888l-2.5-3.322a28.194,28.194,0,0,0-4.988,5.114v-5.53h-4.157v5.53a28.119,28.119,0,0,0-4.988-5.114l-2.5,3.322C246.472,251.065,253.881,256.746,253.881,263.9Z" fill="#b46446"/><path d="M276.745,238.956c-.127,0-.244.033-.37.041a6.153,6.153,0,0,0-8.593-3.545,5.065,5.065,0,0,0-6.16-2.45,7.253,7.253,0,0,0-13.881,1.911,7.225,7.225,0,0,0-8.268,8.539,6.205,6.205,0,0,0-3.925,3.855c-.124-.011-.244-.038-.371-.038a4.157,4.157,0,1,0,2.752,7.25,6.147,6.147,0,0,0,6.6.2,6.2,6.2,0,0,0,9.353-5.371,6.279,6.279,0,0,0-.077-.769,7.114,7.114,0,0,0,7.112-.392,6.1,6.1,0,0,0,6.9,3.049,6.159,6.159,0,0,0,9.433.14,6.219,6.219,0,0,0-.5-12.419Z" fill="#73af00"/><path d="M270.509,244.152c0-.216.045-.42.064-.631a6.2,6.2,0,0,1-9.417-1.125,6.211,6.211,0,0,1-9.493,1.062,7.272,7.272,0,0,1-7.135,5.89,7.1,7.1,0,0,1-1.049-.106c0,.036.011.07.011.106a6.216,6.216,0,0,1-4.175,5.859,6.043,6.043,0,0,0,5.214-.489,6.2,6.2,0,0,0,9.353-5.371,6.279,6.279,0,0,0-.077-.769,7.114,7.114,0,0,0,7.112-.392,6.1,6.1,0,0,0,6.9,3.049,6.158,6.158,0,0,0,9.432.14l.013,0A7.252,7.252,0,0,1,270.509,244.152Z" fill="#5fa000"/><path d="M255.96,308.322a.783.783,0,0,1-.739-.527c-.079-.234-2.036-5.706-9.653-5.706H235.176a11.183,11.183,0,0,1-11.171-11.171V222.33a.779.779,0,0,1,.779-.779h64.431a.779.779,0,0,1,.779.779v68.588a11.183,11.183,0,0,1-11.171,11.171H266.352c-7.663,0-9.634,5.644-9.652,5.7a.777.777,0,0,1-.738.532Zm-30.4-85.215v67.809a9.624,9.624,0,0,0,9.613,9.613h10.392c6.169,0,9.155,3.313,10.392,5.3,1.237-1.992,4.223-5.3,10.392-5.3h12.471a9.624,9.624,0,0,0,9.613-9.613V223.107Z" fill="#464655"/><path d="M247.983,203.8l1.976,3.161,3.725.129-1.751,3.291,1.751,3.291-3.725.129-1.976,3.162-1.974-3.162-3.725-.129,1.75-3.291-1.75-3.291,3.725-.129Z" fill="#ffe15a"/><path d="M230.425,206.663l2.659,2.612,3.652-.744-.934,3.608,2.471,2.792-3.592.995-1.181,3.535-2.659-2.613-3.652.745.933-3.609-2.47-2.791,3.592-.995Z" fill="#ffe15a"/><path d="M213.578,211.648l3.16,1.978,3.4-1.516-.132,3.725,3.015,2.192-3.292,1.748-.391,3.707-3.16-1.978-3.4,1.516.132-3.725L209.9,217.1l3.292-1.748Z" fill="#ffe15a"/><path d="M264.017,203.8l-1.976,3.161-3.725.129,1.751,3.291-1.751,3.291,3.725.129,1.976,3.162,1.974-3.162,3.725-.129-1.75-3.291,1.75-3.291-3.725-.129Z" fill="#ffe15a"/><path d="M281.575,206.663l-2.659,2.612-3.652-.744.934,3.608-2.471,2.792,3.592.995,1.181,3.535,2.659-2.613,3.652.745-.933-3.609,2.47-2.791-3.592-.995Z" fill="#ffe15a"/><path d="M298.422,211.648l-3.16,1.978-3.4-1.516.132,3.725-3.015,2.192,3.292,1.748.391,3.707,3.16-1.978,3.4,1.516-.132-3.725,3.015-2.192-3.292-1.748Z" fill="#ffe15a"/></g></svg>