<svg xmlns="http://www.w3.org/2000/svg" width="512" height="335.45" viewBox="0 0 512 335.45"><g transform="translate(0 -88.275)"><path d="M512,256H0V97.1a8.829,8.829,0,0,1,8.828-8.828H503.173A8.829,8.829,0,0,1,512,97.1V256Z" fill="#73af00"/><path d="M0,256H512V414.9a8.829,8.829,0,0,1-8.828,8.828H8.828A8.829,8.829,0,0,1,0,414.9Z" fill="#4173cd"/><path d="M0,97.1V414.9a8.692,8.692,0,0,0,4.321,7.412L512,256,4.321,89.692A8.689,8.689,0,0,0,0,97.1Z" fill="#ff4b55"/><path d="M188.808,306.391s24.862-9.067,31.882-36.269c0,0-10.823,14.04-18.428,18.135,0,0,16.672-22.23,13.162-43.874,0,0-2.048,8.775-6.143,12.285,0,0,7.313-31.3-2.048-44.459a67.216,67.216,0,0,1-3.8,22.23s1.56-35.2-14.43-44.167c0,0,6.24,11.115,3.607,20.474,0,0-4.387-19.89-24.765-27.787,0,0-1.268,1.462-.975,5.85,0,0-5.557-6.728-19.305-6.435a19.692,19.692,0,0,0,3.8,9.652s-5.557,2.925-9.067,2.048c0,0,5.557,6.143,25.154,5.557,0,0-2.633,2.34-7.9,2.925a56.365,56.365,0,0,0,15.892,4.387c10.823.974,15.113,7.313,17.16,15.21,0,0-8.482-4.972-11.7-9.945,0,0-.585,8.482,15.5,24.862l-8.19-3.51s5.265,15.21,11.7,32.467l-6.728-7.313s-1.462,12.285-2.633,35.1l-4.68-10.823s-8.19,26.91-20.767,31.3a205.274,205.274,0,0,1-25.015,6.649c-.4-15.055,6-18.349,6-18.349,11.407.585,14.04-11.992,14.04-11.992-2.34,2.34-6.728,2.34-6.728,2.34,6.728-7.02,6.728-16.964,6.728-16.964-4.1,7.9-10.53,9.067-10.53,9.067l.585-7.9c-11.9,8.652-11.048,18.785-10.851,20.27-.268-1.894-2.387-16.713-3.481-20.27-1.17-3.8,1.462-11.407,5.557-10.238,13.255,3.787,16.38-5.849,16.38-5.849-7.02,3.218-11.115.877-11.115.877,9.067-8.775,5.265-16.964,5.265-16.964a15.433,15.433,0,0,1-11.115,9.945l-.292-9.359c-3.8,2.048-7.313,11.115-7.313,11.115a31.388,31.388,0,0,1,1.754-13.748c2.633-6.435,9.359-3.218,9.359-3.218,11.992,2.34,15.795-9.067,15.795-9.067l-7.9,1.17c8.775-6.435,6.143-14.333,6.143-14.333-2.048,4.972-9.359,5.85-9.359,5.85l3.51-9.359c-7.6,0-11.992,9.945-11.992,9.945l-.585-9.652c3.51-12.577-4.68-18.135-4.68-18.135-1.754,2.34-.877,7.313-.877,7.313-7.313-6.435-12.87,1.17-12.87,1.17,5.557,5.85,10.823,5.265,10.823,5.265-1.754,1.17-8.19,1.754-8.19,1.754,7.313,6.143,11.407,4.972,11.407,4.972,3.51,14.918-5.85,21.645-5.85,21.645-1.754-11.115-8.482-16.38-8.482-16.38l.292,7.313c-4.387-2.633-7.9-10.53-7.9-10.53-2.925,11.115,4.972,20.767,4.972,20.767l-7.313-.585c6.435,14.918,16.672,10.238,16.672,10.238-.877,10.53,2.633,27.787,2.633,27.787-1.462-1.754-16.964-16.38-16.964-16.38-.585,5.849,4.972,13.454,4.972,13.454-2.925-.585-11.407-7.02-11.407-7.02.877,9.359,13.162,15.5,13.162,15.5-4.68.585-13.748-4.68-13.748-4.68,5.265,22.522,24.569,12.577,24.569,12.577l1.481,30.464c-4.078-.979-13-3.252-22.248-6.479-12.577-4.387-20.767-31.3-20.767-31.3l-4.68,10.823c-1.17-22.815-2.633-35.1-2.633-35.1l-6.728,7.313c6.435-17.257,11.7-32.467,11.7-32.467l-8.19,3.51c16.093-16.382,15.507-24.864,15.507-24.864-3.218,4.972-11.7,9.945-11.7,9.945,2.048-7.9,8.482-16.087,16.38-16.672a106.527,106.527,0,0,0,16.672-2.925c-5.265-.585-7.9-2.925-7.9-2.925,22.815-2.048,25.154-8.19,25.154-8.19-3.51.877-14.333-.292-14.333-.292,9.067-4.972,23.985-9.652,23.985-9.652-18.428-3.218-34.222,7.313-34.222,7.313a72.815,72.815,0,0,1,7.313-10.53c-22.522,9.945-33.053,32.467-33.053,32.467-2.633-9.359,3.607-20.475,3.607-20.475-15.99,8.97-14.43,44.167-14.43,44.167a67.185,67.185,0,0,1-3.8-22.23c-9.359,13.162-2.048,44.459-2.048,44.459-4.1-3.51-6.143-12.285-6.143-12.285-3.51,21.645,13.162,43.874,13.162,43.874-7.605-4.1-18.428-18.135-18.428-18.135,7.02,27.2,31.882,36.269,31.882,36.269-13.748-5.265-19.6-.877-19.6-.877,9.652,2.048,19.012,7.9,26.617,13.454s17.843,6.728,26.91,7.9a87.835,87.835,0,0,1,9.254,1.689,14.9,14.9,0,0,0-8.376,13.391h29.835a14.914,14.914,0,0,0-7.815-13.121c3-.641,6.987-1.4,11.325-1.96,9.067-1.17,18.54-3.577,26.91-7.9,9.067-4.68,16.964-11.407,26.617-13.454C208.4,305.514,202.554,301.128,188.808,306.391Z" fill="#ffe15a"/></g></svg>