<svg xmlns="http://www.w3.org/2000/svg" width="512" height="335.449" viewBox="0 0 512 335.449"><g transform="translate(0 -88.276)"><path d="M512,200.093H0V97.1a8.829,8.829,0,0,1,8.828-8.828H503.173A8.829,8.829,0,0,1,512,97.1V200.093Z" fill="#73af00"/><path d="M503.172,423.725H8.828A8.829,8.829,0,0,1,0,414.9V311.909H512V414.9A8.828,8.828,0,0,1,503.172,423.725Z" fill="#ff4b55"/><rect width="512" height="111.81" transform="translate(0 200.091)" fill="#ffe15a"/><path d="M361.945,256.1A105.945,105.945,0,1,1,256,150.07,106,106,0,0,1,361.945,256.1Z" fill="#4173cd"/><path d="M175.42,229.464h61.556L250.9,186.6l3.7,11.5-20.228,62.316-6.026-4.4,6.3-19.362H185.145Zm30.756,94.785,19.025-58.51-36.462-26.551h12.026l52.995,38.473-6.024,4.4L231.227,270.05,215.9,317.231l-9.726,7.018Zm99.646,0L256,288.062l-36.442,26.464,3.721-11.329,52.952-38.558,2.262,7.1-16.468,11.923,40.057,29.172,3.74,11.413Zm30.756-94.785L286.8,265.738l13.931,42.869L291,301.5l-20.209-62.316h7.4l6.3,19.448,40.079-29.172h12.007ZM256,170.954l19.025,58.51h45.088l-9.745,7.189H244.881l2.3-7.189H267.6l-15.325-47.1Z" fill="#f2dd30"/><path d="M257.775,340.823h-3.53V294.911h3.53v45.912Zm78.276-56.991L292.4,269.712l1.1-3.3,43.672,14.12-1.121,3.3Zm-160.123,0-1.1-3.3,43.692-14.12,1.08,3.3-43.672,14.12Zm104.361-58.173-2.877-2.028,26.995-37.12,2.812,2.03-26.93,37.118Zm-48.513,0-27.038-37.118,2.855-2.03,26.973,37.12-2.79,2.028Z" fill="#f2dd30"/></g></svg>