<svg xmlns="http://www.w3.org/2000/svg" width="512" height="335.449" viewBox="0 0 512 335.449"><g transform="translate(0 -88.276)"><path d="M503.172,423.725H8.828A8.829,8.829,0,0,1,0,414.9V97.1a8.829,8.829,0,0,1,8.828-8.828H503.173A8.829,8.829,0,0,1,512,97.1V414.9A8.83,8.83,0,0,1,503.172,423.725Z" fill="#41479b"/><path d="M259.59,126.686l3.54,10.613,11.187.087a1.507,1.507,0,0,1,.884,2.72l-9,6.646,3.374,10.666a1.507,1.507,0,0,1-2.314,1.681l-9.1-6.506-9.1,6.506a1.508,1.508,0,0,1-2.314-1.681l3.374-10.666-9-6.646a1.507,1.507,0,0,1,.884-2.72l11.187-.087,3.54-10.613A1.507,1.507,0,0,1,259.59,126.686Z" fill="#ffe15a"/><path d="M259.59,354.548l3.54,10.613,11.187.087a1.507,1.507,0,0,1,.884,2.72l-9,6.646,3.374,10.666a1.507,1.507,0,0,1-2.314,1.681l-9.1-6.506-9.1,6.506a1.508,1.508,0,0,1-2.314-1.681l3.374-10.666-9-6.646a1.507,1.507,0,0,1,.884-2.72l11.187-.087,3.54-10.613A1.507,1.507,0,0,1,259.59,354.548Z" fill="#ffe15a"/><path d="M373.521,240.617l3.54,10.613,11.187.087a1.507,1.507,0,0,1,.884,2.72l-9,6.646,3.374,10.666a1.507,1.507,0,0,1-2.314,1.681l-9.1-6.506-9.1,6.506a1.508,1.508,0,0,1-2.314-1.681l3.374-10.666-9-6.646a1.507,1.507,0,0,1,.884-2.72l11.187-.087,3.54-10.613A1.507,1.507,0,0,1,373.521,240.617Z" fill="#ffe15a"/><path d="M145.658,240.617l3.54,10.613,11.187.087a1.507,1.507,0,0,1,.884,2.72l-9,6.646,3.374,10.666a1.507,1.507,0,0,1-2.314,1.681l-9.1-6.506-9.1,6.506a1.508,1.508,0,0,1-2.314-1.681l3.374-10.666-9-6.646a1.507,1.507,0,0,1,.884-2.72l11.187-.087,3.54-10.613A1.507,1.507,0,0,1,145.658,240.617Z" fill="#ffe15a"/><path d="M162.762,181.121l3.54,10.613,11.187.087a1.507,1.507,0,0,1,.884,2.72l-9,6.646,3.374,10.666a1.507,1.507,0,0,1-2.314,1.681l-9.1-6.506-9.1,6.506a1.508,1.508,0,0,1-2.314-1.681l3.374-10.666-9-6.646a1.507,1.507,0,0,1,.884-2.72l11.187-.087,3.54-10.613A1.507,1.507,0,0,1,162.762,181.121Z" fill="#ffe15a"/><path d="M360.1,295.052l3.54,10.613,11.187.087a1.507,1.507,0,0,1,.884,2.72l-9,6.646,3.374,10.666a1.507,1.507,0,0,1-2.314,1.681l-9.1-6.506-9.1,6.506a1.508,1.508,0,0,1-2.314-1.681l3.374-10.666-9-6.646a1.507,1.507,0,0,1,.884-2.72l11.187-.087,3.54-10.613A1.507,1.507,0,0,1,360.1,295.052Z" fill="#ffe15a"/><path d="M318.395,139.419l3.54,10.613,11.187.087a1.507,1.507,0,0,1,.884,2.72l-9,6.646,3.374,10.666a1.507,1.507,0,0,1-2.314,1.681l-9.1-6.506-9.1,6.506a1.508,1.508,0,0,1-2.314-1.681l3.374-10.666-9-6.646a1.507,1.507,0,0,1,.884-2.72l11.187-.087,3.54-10.613A1.507,1.507,0,0,1,318.395,139.419Z" fill="#ffe15a"/><path d="M204.463,336.754,208,347.367l11.187.087a1.507,1.507,0,0,1,.884,2.72l-9,6.646,3.374,10.666a1.507,1.507,0,0,1-2.314,1.681l-9.1-6.506-9.1,6.506a1.508,1.508,0,0,1-2.314-1.681l3.374-10.666-9-6.646a1.507,1.507,0,0,1,.884-2.72l11.187-.087,3.54-10.613A1.507,1.507,0,0,1,204.463,336.754Z" fill="#ffe15a"/><path d="M357.236,181.121l-3.54,10.613-11.187.087a1.507,1.507,0,0,0-.884,2.72l9,6.646-3.374,10.666a1.507,1.507,0,0,0,2.314,1.681l9.1-6.506,9.1,6.506a1.508,1.508,0,0,0,2.314-1.681l-3.374-10.666,9-6.646a1.507,1.507,0,0,0-.884-2.72l-11.187-.087-3.54-10.613A1.507,1.507,0,0,0,357.236,181.121Z" fill="#ffe15a"/><path d="M159.9,295.052l-3.54,10.613-11.187.087a1.507,1.507,0,0,0-.884,2.72l9,6.646-3.374,10.666a1.507,1.507,0,0,0,2.314,1.681l9.1-6.506,9.1,6.506a1.508,1.508,0,0,0,2.314-1.681l-3.374-10.666,9-6.646a1.507,1.507,0,0,0-.884-2.72l-11.187-.087-3.54-10.613A1.507,1.507,0,0,0,159.9,295.052Z" fill="#ffe15a"/><path d="M201.6,139.419l-3.54,10.613-11.187.087a1.507,1.507,0,0,0-.884,2.72l9,6.646-3.374,10.666a1.507,1.507,0,0,0,2.314,1.681l9.1-6.506,9.1,6.506a1.508,1.508,0,0,0,2.314-1.681l-3.374-10.666,9-6.646a1.507,1.507,0,0,0-.884-2.72L208,150.032l-3.54-10.613A1.507,1.507,0,0,0,201.6,139.419Z" fill="#ffe15a"/><path d="M315.534,336.754l-3.54,10.613-11.187.087a1.507,1.507,0,0,0-.884,2.72l9,6.646-3.374,10.666a1.507,1.507,0,0,0,2.314,1.681l9.1-6.506,9.1,6.506a1.508,1.508,0,0,0,2.314-1.681l-3.374-10.666,9-6.646a1.507,1.507,0,0,0-.884-2.72l-11.187-.087-3.54-10.613A1.507,1.507,0,0,0,315.534,336.754Z" fill="#ffe15a"/></g></svg>