<svg xmlns="http://www.w3.org/2000/svg" width="512" height="335.448" viewBox="0 0 512 335.448"><g transform="translate(0 -88.276)"><path d="M503.172,423.724H8.828A8.829,8.829,0,0,1,0,414.9V97.1a8.829,8.829,0,0,1,8.828-8.828H503.173A8.829,8.829,0,0,1,512,97.1V414.9A8.83,8.83,0,0,1,503.172,423.724Z" fill="#41479b"/><path d="M247.172,88.276H231.839l-81.77,53.573V88.276H105.931v53.573L24.161,88.276H8.828A8.829,8.829,0,0,0,0,97.1v7l70.155,45.963H0v44.138H70.155L0,240.171v7A8.829,8.829,0,0,0,8.828,256H24.161l81.77-53.573V256h44.138V202.427L231.838,256h15.333A8.829,8.829,0,0,0,256,247.172v-7l-70.154-45.963H256V150.069H185.844L256,104.106v-7A8.827,8.827,0,0,0,247.172,88.276Z" fill="#f5f5f5"/><path d="M256,158.9H141.241V88.276H114.758V158.9H0v26.482H114.758V256h26.483V185.379H256Z" fill="#ff4b55"/><path d="M97.1,150.069l-92.9-60.3A8.686,8.686,0,0,0,0,97.1v.458l80.889,52.507Z" fill="#ff4b55"/><path d="M166.283,150.069,254.657,92.7a8.7,8.7,0,0,0-7.485-4.427h-1.909l-95.194,61.793Z" fill="#ff4b55"/><path d="M89.474,194.207l-88.2,57.256A8.717,8.717,0,0,0,8.828,256h1.665l95.2-61.793Z" fill="#ff4b55"/><path d="M255.859,247.867l-82.666-53.659H156.98l93.873,60.934A8.739,8.739,0,0,0,255.859,247.867Z" fill="#ff4b55"/><path d="M330.706,352.392l-4.143-9.669,2.071,4.835-2.1-4.823c.873-.385,21.38-9.741,21.38-37.253h10.519C358.438,340.108,331.839,351.9,330.706,352.392Z" fill="#e67346"/><path d="M334.819,328.867l-7.437-7.437c14.219-14.219,21.608-18.119,22.4-18.518l4.7,9.409-2.353-4.7,2.393,4.684C354.464,312.336,347.8,315.882,334.819,328.867Z" fill="#eb7d4b"/><path d="M438.8,352.392l4.143-9.669-2.071,4.835,2.1-4.823c-.873-.385-21.38-9.741-21.38-37.253H411.063C411.063,340.108,437.662,351.9,438.8,352.392Z" fill="#e67346"/><path d="M434.683,328.867l7.437-7.437c-14.219-14.219-21.608-18.119-22.4-18.518l-4.7,9.409,2.353-4.7-2.393,4.684C415.037,312.336,421.7,315.882,434.683,328.867Z" fill="#eb7d4b"/><path d="M384.735,168.734h-56.1v84.152c0,17.531,3.507,63.114,56.1,80.645,52.6-17.532,56.1-63.114,56.1-80.645V168.734Z" fill="#4173cd"/><path d="M409.279,189.772H379.135a14.026,14.026,0,0,1-8.761-3.073L358.6,177.283a7.018,7.018,0,0,0-4.381-1.537h-1.046a7.012,7.012,0,0,0-7.012,7.012h-5.259a5.259,5.259,0,1,0,0,10.518h5.259a3.507,3.507,0,0,1,3.507,3.507v17.532a13.991,13.991,0,0,0,10.519,13.529v11.015H367.2l2.63-10.519h32.434l3.507,3.507v7.012h3.507V228.34h3.507v10.519H416.3V227.368a6.981,6.981,0,0,0,3.507-6.04V200.29A10.526,10.526,0,0,0,409.279,189.772Z" fill="#c8c8c8"/><path d="M346.165,235.355l7.014,21.037h63.114l7.012-21.037Z" fill="#73af00"/><path d="M422.091,249.379c-9.348,0-9.348,7.012-18.7,7.012s-9.345-7.012-18.691-7.012-9.344,7.012-18.689,7.012-9.347-7.012-18.7-7.012c-9.327,0-9.351,6.98-18.638,7.01a105.511,105.511,0,0,0,1.31,13.963c7.992-.653,8.466-6.947,17.329-6.947,9.347,0,9.347,7.012,18.7,7.012s9.344-7.012,18.689-7.012,9.345,7.012,18.691,7.012,9.348-7.012,18.7-7.012c8.887,0,9.354,6.307,17.385,6.948a105.666,105.666,0,0,0,1.31-13.963C431.456,256.374,431.444,249.379,422.091,249.379Z" fill="#f5f5f5"/><path d="M422.091,263.4c-9.348,0-9.348,7.012-18.7,7.012S394.05,263.4,384.7,263.4s-9.344,7.012-18.689,7.012-9.347-7.012-18.7-7.012c-8.863,0-9.336,6.294-17.329,6.947a90.69,90.69,0,0,0,3.225,13.367c5.114-1.786,6.607-6.29,14.1-6.29,9.347,0,9.347,7.012,18.7,7.012s9.344-7.012,18.689-7.012,9.345,7.012,18.691,7.012,9.348-7.012,18.7-7.012c7.523,0,9.01,4.522,14.156,6.3a90.868,90.868,0,0,0,3.229-13.377C431.446,269.711,430.979,263.4,422.091,263.4Z" fill="#4173cd"/><path d="M422.091,277.43c-9.348,0-9.348,7.012-18.7,7.012s-9.345-7.012-18.691-7.012-9.344,7.012-18.689,7.012-9.347-7.012-18.7-7.012c-7.5,0-8.989,4.5-14.1,6.29a79.59,79.59,0,0,0,4.655,11.317c2.371-1.778,4.707-3.582,9.448-3.582,9.347,0,9.347,7.012,18.7,7.012s9.344-7.012,18.689-7.012,9.345,7.012,18.691,7.012,9.348-7.012,18.7-7.012c4.768,0,7.109,1.818,9.494,3.6a79.461,79.461,0,0,0,4.662-11.328C431.1,281.952,429.615,277.43,422.091,277.43Z" fill="#f5f5f5"/><path d="M422.091,291.456c-9.348,0-9.348,7.012-18.7,7.012s-9.345-7.012-18.691-7.012-9.344,7.012-18.689,7.012-9.347-7.012-18.7-7.012c-4.74,0-7.078,1.8-9.448,3.582a73.022,73.022,0,0,0,6.613,10.7,15.1,15.1,0,0,1,2.835-.26c9.347,0,9.347,7.012,18.7,7.012s9.344-7.012,18.689-7.012,9.345,7.012,18.691,7.012,9.348-7.012,18.7-7.012a15.174,15.174,0,0,1,2.887.267,72.957,72.957,0,0,0,6.607-10.689C429.2,293.274,426.86,291.456,422.091,291.456Z" fill="#4173cd"/><path d="M424.978,305.748a15.158,15.158,0,0,0-2.887-.267c-9.348,0-9.348,7.012-18.7,7.012s-9.345-7.012-18.691-7.012-9.344,7.012-18.689,7.012-9.347-7.012-18.7-7.012a15.111,15.111,0,0,0-2.835.26,74.492,74.492,0,0,0,23.823,20.6c7.1-1.048,7.894-6.835,16.394-6.835,8.52,0,9.294,5.812,16.442,6.841A74.446,74.446,0,0,0,424.978,305.748Z" fill="#f5f5f5"/><rect width="3.507" height="59.61" transform="translate(382.98 249.38)" fill="#ff965a"/><rect width="21.04" height="3.507" transform="translate(374.21 258.141)" fill="#ff965a"/><rect width="21.04" height="3.507" transform="translate(374.21 279.18)" fill="#ff965a"/><rect width="21.04" height="13.87" transform="translate(374.21 261.641)" fill="#ffe15a"/><path d="M382.982,249.379v7.013l-10.519-3.506Z" fill="#ff4b55"/><rect width="3.507" height="41.2" transform="translate(406.36 249.38)" fill="#ff965a"/><rect width="21.04" height="3.507" transform="translate(397.59 258.141)" fill="#ff965a"/><rect width="21.04" height="3.507" transform="translate(397.59 279.18)" fill="#ff965a"/><rect width="21.04" height="13.87" transform="translate(397.59 261.641)" fill="#ffe15a"/><path d="M406.357,249.379v7.013l-10.519-3.506Z" fill="#ff4b55"/><rect width="3.507" height="40.905" transform="translate(359.46 249.38)" fill="#ff965a"/><rect width="21.04" height="3.507" transform="translate(350.7 258.141)" fill="#ff965a"/><rect width="21.04" height="3.507" transform="translate(350.7 279.18)" fill="#ff965a"/><rect width="21.04" height="13.87" transform="translate(350.7 261.641)" fill="#ffe15a"/><path d="M359.461,249.379v7.013l-10.519-3.506Z" fill="#ff4b55"/><path d="M402.267,287.949a17.532,17.532,0,0,1-35.064,0h-6.985l-23.747-5.363-.773,3.421,10.467,2.364v3.084l7.717,3.086a31.537,31.537,0,0,0,61.6.419h11.331V284.441Z" fill="#ff965a"/><path d="M440.837,168.734v84.152c0,17.531-3.507,63.114-56.1,80.645-52.6-17.532-56.1-63.114-56.1-80.645V168.734h112.2m3.505-3.506H325.126v87.659c0,41.576,20.776,71.4,58.5,83.972l1.109.37,1.109-.37c37.724-12.575,58.5-42.4,58.5-83.972V165.228Z" fill="#f5f5f5"/><path d="M384.735,351.063c-25.807,0-49.741-8.645-64.021-23.127l9.985-9.848c11.7,11.864,31.9,18.949,54.037,18.949s42.335-7.084,54.037-18.949l9.985,9.848C434.476,342.417,410.543,351.063,384.735,351.063Z" fill="#ff965a"/></g></svg>