<svg xmlns="http://www.w3.org/2000/svg" width="512" height="335.449" viewBox="0 0 512 335.449"><g transform="translate(0 -88.276)"><path d="M503.172,423.725H8.828A8.829,8.829,0,0,1,0,414.9V97.1a8.829,8.829,0,0,1,8.828-8.828H503.173A8.829,8.829,0,0,1,512,97.1V414.9A8.83,8.83,0,0,1,503.172,423.725Z" fill="#82afff"/><path d="M247.172,256H8.828A8.829,8.829,0,0,1,0,247.173V97.1a8.829,8.829,0,0,1,8.828-8.828H247.173A8.829,8.829,0,0,1,256,97.1V247.173A8.83,8.83,0,0,1,247.172,256Z" fill="#41479b"/><path d="M247.172,88.277H231.838l-81.77,53.574V88.277H105.93v53.574L24.16,88.277H8.828A8.828,8.828,0,0,0,0,97.1v7l70.155,45.963H0v44.138H70.155L0,240.171v7A8.829,8.829,0,0,0,8.828,256H24.162l81.77-53.574V256H150.07V202.427L231.839,256h15.334A8.829,8.829,0,0,0,256,247.173v-7l-70.155-45.963H256V150.07H185.845L256,104.107v-7A8.828,8.828,0,0,0,247.172,88.277Z" fill="#f5f5f5"/><path d="M256,158.9H141.241V88.277H114.759V158.9H0V185.38H114.759V256h26.482V185.38H256Z" fill="#ff4b55"/><path d="M97.1,150.07l-92.9-60.3A8.684,8.684,0,0,0,0,97.1v.458L80.889,150.07H97.1Z" fill="#ff4b55"/><path d="M166.283,150.07,254.657,92.7a8.7,8.7,0,0,0-7.485-4.427h-1.909L150.069,150.07Z" fill="#ff4b55"/><path d="M89.474,194.208l-88.2,57.256A8.717,8.717,0,0,0,8.828,256h1.665l95.2-61.793H89.474Z" fill="#ff4b55"/><path d="M255.86,247.866l-82.666-53.658H156.98l93.874,60.935A8.741,8.741,0,0,0,255.86,247.866Z" fill="#ff4b55"/><path d="M322.034,184.618v96.858c0,39.281,55.178,59.469,61.9,61.782,6.717-2.313,61.9-22.534,61.9-61.782V184.618h-123.8Z" fill="#f5f5f5"/><path d="M448.022,229.042V182.433H319.849v46.609H375.2v43.695H319.849v17.479H375.2v52.433l8.739,2.913,8.738-2.913V290.216h55.348V272.737H392.674V229.042Z" fill="#ff4b55"/><circle cx="7.293" cy="7.293" r="7.293" transform="translate(326.927 203.568)" fill="#f5f5f5"/><path d="M348.231,201c-2.334-1.283-6.535-4.726-8.226-4.142s-2.07,1.78-4.437,1.962c-2.306.178-5.948,2.428-4.43,4.922,1.973,3.246,8.149.722,8.557-.8a8.367,8.367,0,0,0,2.792-.061s2.537,3.54,5.687,3.307,4.609-4.142,3.91-4.142A28.5,28.5,0,0,1,348.231,201Z" fill="#ffe15a"/><path d="M357.916,216.46c-.525.962-4.522,4.38-11.2,5.951-1.487.35-1.225,2.1-2.713,1.225s-5.6-1.576-9.277-1.75a3.521,3.521,0,0,1-3.413-4.813c.8-1.565,6.665-2.519,7.715-.594s1.837,1.524,4.45,2.081c1.619.346,1.663,1.138,1.663,1.138s2.976-2.976,5.514-3.851,4.726-2.8,5.163-2.8a26.415,26.415,0,0,1,2.713.612Z" fill="#ffe15a"/><path d="M367.63,206.133c3.851,1.4,15.228.962,27.392-2.976s15.666-4.638,21.617-2.451,8.527-4.725,4.619-5.894c-6.138-1.837-25.124,9.194-38.871,3a4.511,4.511,0,0,0,.032,2.452s-9.976.35-7.614-9.976c0,0,.68,3.77,5.4,3.337,8.921-.819,10.2,5.462,29.085-.362,10.487-3.233,18.635-1.646,18.707,3.456.087,6.143-8.381,7.571-8.381,7.571s3.3,6.739,9.948,3.763,7,2.158,7.585,3.91,1.692,3.443,3.15,3.617c0,0,1.05,3.15.642,3.559s-3.15,3.851-5.892,3.851h-8.693s-1.576-3.91,1.459-3.967,6.71-.291,6.243-1.926-2.859-2.392-2.8-4.2c0,0-7.06,5.134-11.435-.934l-.117,2.859s-5.31-.992-7.234-5.251c0,0,.525,4.785-4.025,4.084a9.263,9.263,0,0,0,2.509,2.392c1.576.992-.059,3.15-3.092,4.959s-12.369,7.06-16.628,1.692.934-8.46,2.217-8.11,4.959,6.009,7.468,5.251,3.734-3.326,1.633-4.9-3.673-3.064-2.349-4.654c1.821-2.185,8.534-1.53,8.3-2.988s-6.476-1.05-10.56,3.033-21.821,13.478-28.881,7.527S367.63,206.133,367.63,206.133Z" fill="#ffe15a"/><path d="M365.355,203.508a29.61,29.61,0,0,0,14.353,6.914s-1.663,2.538-6.476,1.838a14.6,14.6,0,0,1,3.239,4.463,9.09,9.09,0,0,1-5.777-.788,10.845,10.845,0,0,0,1.663,4.114,10.983,10.983,0,0,1-6.652-2.713l-1.225,3.5a11.151,11.151,0,0,1-3.413-4.114,9.433,9.433,0,0,1-4.9,1.926,17.819,17.819,0,0,0,.875-4.114s-3.5,2.1-6.389,1.313c0,0,.087-3.676,1.05-4.726a7.685,7.685,0,0,1-3.763-.525s.875-2.013,1.313-3.326a6.146,6.146,0,0,1-3.938-1.313s4.726-1.838,5.777-3.588Z" fill="#ffd25a"/><path d="M356.749,188.8a7.372,7.372,0,0,1,3.443,4.025,8.63,8.63,0,0,1,5.251-3.326s1.459,1.633,1.05,5.892c0,0,3.676-1.05,5.66.875a9.513,9.513,0,0,0-5.718,4.142s-.7,3.338.524,5.322a5.706,5.706,0,0,1-2.741-.42s-.7,3.326,0,4.376a4.192,4.192,0,0,1-2.976-2.275s-1.576,2.392-1.459,3.851c0,0-2.1-1.225-2.217-3.033,0,0-1.459,2.742-3.033,2.976,0,0-.175-3.851-.875-5.31a4.539,4.539,0,0,1-3.092,1.4s0-2.976,1.459-4.376A3.231,3.231,0,0,1,348.232,201s4.025,1.166,5.017-1.283,1.283-3.209,2.684-4.551S356.749,188.8,356.749,188.8Z" fill="#ffbe5a"/><path d="M365.355,200.1s-4.989,9.539-9.539,6.652c-4.985-3.165,1.225-10.59,2.013-11.377A18.856,18.856,0,0,1,365.355,200.1Z" fill="#ffe15a"/><path d="M347.363,248.953s-.523-6.851-4.237-8.828c-3.492-1.858-5.555-2.787-5.955-5.169a45.968,45.968,0,0,0,6.241,2.265c2.9.787,5.726,5.692,4.867,11.209Z" fill="#5abea0"/><path d="M335.639,254.586l.472.871.343,1.873-.687,2.221a6.154,6.154,0,0,1,3.35,4.791c.426,2.543,1.546,3.093,2.233,2.57s1.1-1.141.386-3.921a23.731,23.731,0,0,0-3.393-6.925l-1.932-2.962Z" fill="#b46446"/><path d="M338.345,256.067c-2.49-3.223-9.277-9.931-10.564-.785,0,0-2.66-7.706,2.319-7.4C335.854,248.227,338.345,256.067,338.345,256.067Z" fill="#5abea0"/><path d="M336.111,255.458c-2.147-2.353-2.835-4.1-3.951-8.45s-1.46-5.663-2.749-5.576-2.061,1.481-2.061,4.268c0,0-3.779-3.4-1.2-6.1s8.331-1.219,8.675,3.572.258,8.014,1.975,12.022Z" fill="#5abea0"/><path d="M336.713,253.367s-4.552-10.018,8.246-15.42c0,0-11.338-3.049-9.963,13.067Z" fill="#5abea0"/><path d="M338.174,256.939s-9.62-3.659-8.761,5.227a4.846,4.846,0,0,1,6.356-2.613Z" fill="#5abea0"/><path d="M349.081,253.424c0,2.6,1.022,10.14-.429,11.093a1.806,1.806,0,0,1-2.62-1.742c.172-1.829.988-10.716.988-12.893S349.081,253.424,349.081,253.424Z" fill="#b46446"/><path d="M342.955,259.465c1.661-1.684,2.176-5.517,1.6-10.628,0,0,3.436,2.381,4.524,4.588,0,0,1.088-5.053-2.462-6.389s-5.44-.58-6.07,1.045,1.085,3.445,1.833,6.1A19.769,19.769,0,0,1,342.955,259.465Z" fill="#5abea0"/><path d="M348.853,252.089a6.407,6.407,0,0,1,2.462-3.775s3.894,2.73,3.607,6.389c0,0,1.031-4.994-1.088-6.969s-4.524-2.5-5.726-.755S348.853,252.089,348.853,252.089Z" fill="#5abea0"/><path d="M349.769,246.978s1.2-7.144,4.237-8.712,8.647-3.02,8.99-3.369c0,0-6.7.349-7.787.349s-7.1,4.355-7.1,10.8.573,2.033.745,1.974A7.039,7.039,0,0,0,349.769,246.978Z" fill="#5abea0"/><path d="M352.561,265.868c.687,1.438,2.319,1.785,2.663,1.045s1.889-6.4,1.889-6.4l-2.19-1.045Z" fill="#b46446"/><path d="M365.4,242.1c2.691-1.568,4.467,3.079,4.467,3.079,0-5.471-1.718-7.2-6.013-5.111a6.842,6.842,0,0,0-2.936,3.479c-2.174-6.247-6.969-6.151-6.969-6.151l-1.088.755c3.926.755,6.175,5.46,7.126,8.026a30.272,30.272,0,0,0-.867,4.728c-2.573,2.667-4.2,8.559-4.2,8.559a10.424,10.424,0,0,0,2.19,1.045s1.2-3.7,2.706-3.615,3.264,2.483,3.307,4.008c0,0,2.233-4.53-.429-6.272a4.735,4.735,0,0,0-2.446-.915l1.974-2.221c3.221.61,5.454,3.659,5.454,3.659.065-5.444-2.339-6.507-4.874-6.051C363.258,246.91,364.255,242.768,365.4,242.1Z" fill="#5abea0"/><path d="M418.42,249.639v15.439c0,.747-3.27,3.652-3.27,3.652h8.693s-2.792-3.238-2.792-3.652.638-14.278.638-14.278Z" fill="#b46446"/><path d="M418.978,251.216c-2.073-.166-7.816,4.566-9.491,11.787,0,0-5.105-8.3,7.657-15.191,0,0-5.663-1.661-14.276,7.3-.465.484-.877-13.53,14.6-9.795,0,0-5.9-8.551-18.025-1.826,0,0,8.055-14.444,19.939-1.494,0,0,.079-11.207.16-10.045s.957,6.308.957,6.308l2.313-4.067-1.834,8.3s10.607-14.112,19.62.582c0,0-11.645-4.814-17.227.581,0,0,11.964-3.238,11.006,10.625,0,0-4.7-8.218-12.362-7.139,0,0,9.013,4.15,6.141,15.357C428.15,262.506,422.719,251.515,418.978,251.216Z" fill="#5abea0"/><path d="M342.815,301.1a2.416,2.416,0,0,0-1.676-.966,4.269,4.269,0,0,0,.329-1.77,4.71,4.71,0,0,0,.555.153l.082-.666a5.86,5.86,0,0,1-2.273-.887,1.775,1.775,0,1,0-.451-.28c-.3-.2-.593-.44-.892-.694a2.4,2.4,0,0,0-.747-1.484,1.22,1.22,0,1,0-1.282,1.407,2.4,2.4,0,0,0,1.618.61c.126.107.258.214.4.323a2.584,2.584,0,0,0-1.2.142,1.219,1.219,0,1,0,.651,1.788,2.406,2.406,0,0,0,1.4-1.335,8.175,8.175,0,0,0,1.523.753l-.085.011a5.079,5.079,0,0,1-.226,1.58,2.411,2.411,0,0,0-2.014-.286,1.22,1.22,0,1,0,.538,1.826,2.4,2.4,0,0,0,1.336-1.03c-.113.341-.255.693-.414,1.052a2.409,2.409,0,0,0-1.213,1.137,1.22,1.22,0,1,0,1.713.833,2.4,2.4,0,0,0,.128-1.724c.067-.151.132-.308.2-.472a2.586,2.586,0,0,0,.474,1.109,1.22,1.22,0,1,0,1.53-1.13Z" fill="#5abea0"/><path d="M338.874,298.952c2.911,0,6.719-.111,6.606,2.8s-3.359,12.766,4.143,15.789,8.4,2.575,8.4,2.575l3.359,7.726,8.174-2.911-7.839-6.271a21.5,21.5,0,0,0-2.575-7.167s4.815-2.464,6.495-4.591l-3.359-.224s4.367-2.8,6.382-5.934l-2.351.224a13.761,13.761,0,0,0,3.359-5.823s-4.367,4.367-8.846,4.927c0,0,1.9-4.927,2.351-6.83a41.428,41.428,0,0,1-5.71,3.023c-2.351.9-6.047,1.007-4.367,8.622a12.444,12.444,0,0,1-3.247-5.263c-1.231-3.583-1.679-4.927-3.359-4.927a4.3,4.3,0,0,0-3.807,2.464Z" fill="#ffecde"/><path d="M421.519,300.392c1.007-1.343,3.022-5.54,4.785-4.449s4.114,3.777,5.54,2.518,1.511-2.854-.672-3.609-4.617-2.015-6.127-1.511-6.127,5.289-6.127,5.289Z" fill="#b46446"/><path d="M408.509,304c-.084-1.931,1.219-10.313,6.464-9.234,2.854.588,4.258,3.613,7.975,5.036,3.945,1.511,6.464,2.434,5.708,5.036s-2.183,5.708-5.457,6.464S408.509,304,408.509,304Z" fill="#ffe15a"/><path d="M405.067,310.912c-1.119.224-5.26,6.268-.335,12.424,0,0,6.044,2.462,10.857-1.343s1.231-5.708,1.231-5.708Z" fill="#5abea0"/><path d="M405.486,312.227a2.043,2.043,0,0,1-.419-1.315s-.252-8.674,3.358-8.842,16.62,8.394,16.62,9.821-4.2,5.54-7.723,6.379S405.486,312.227,405.486,312.227Z" fill="#5abea0"/><path d="M396.589,333.213s11.466-5.151,9.311-9.342c-1.555-3.023-5.05-1.086-5.6,1.223A34.281,34.281,0,0,1,396.589,333.213Z" fill="#b46446"/><path d="M383.936,347.855l-.663-.211a146.571,146.571,0,0,1-32.583-15.916c-21.605-14.238-33.026-31.617-33.026-50.252V180.248H450.207V281.476c0,18.636-11.421,36.014-33.026,50.252A146.526,146.526,0,0,1,384.6,347.644Zm-61.9-163.237v96.858c0,39.281,55.178,59.469,61.9,61.782,6.717-2.313,61.9-22.534,61.9-61.782V184.618h-123.8Z" fill="#464655"/></g></svg>