<svg xmlns="http://www.w3.org/2000/svg" width="511.902" height="335.4" viewBox="0 0 511.902 335.4"><g transform="translate(0 -88.3)"><path d="M503.2,423.7H8.8A8.813,8.813,0,0,1,0,414.9V97.1a8.813,8.813,0,0,1,8.8-8.8H503.1a8.813,8.813,0,0,1,8.8,8.8V414.9A8.665,8.665,0,0,1,503.2,423.7Z" fill="#078930"/><path d="M3.3,90.4A8.581,8.581,0,0,0,0,97.1V414.9a8.813,8.813,0,0,0,8.8,8.8H503.1a9.421,9.421,0,0,0,5.6-2.1Z" fill="#fcdd09"/><path d="M256,185.8l45.6,140.4L182.2,239.4H329.8L210.4,326.2Z" fill="#da121a"/></g></svg>