<svg xmlns="http://www.w3.org/2000/svg" width="512" height="335.448" viewBox="0 0 512 335.448"><g transform="translate(0 -88.276)"><path d="M0,335.448H512V414.9a8.829,8.829,0,0,1-8.828,8.828H8.828A8.829,8.829,0,0,1,0,414.9Z" fill="#ff4b55"/><path d="M8.828,88.276H503.173A8.829,8.829,0,0,1,512,97.1v79.448H0V97.1A8.828,8.828,0,0,1,8.828,88.276Z" fill="#ff4b55"/><rect width="512" height="158.9" transform="translate(0 176.55)" fill="#f5f5f5"/><path d="M314.2,233.458,258.16,256.331c-.022-.057-.049-.108-.075-.162l54.118-27.1a62.958,62.958,0,0,0-7.755-11.919l-46.657,38.585a2.091,2.091,0,0,0-.126-.186l42.77-42.813a63.05,63.05,0,0,0-10.048-8.153l-33.113,50.686a2.144,2.144,0,0,0-.224-.151L284.1,200.964a62.374,62.374,0,0,0-13.825-4.988l-13.749,58.966a1.366,1.366,0,0,0-1.06,0l-13.749-58.966a62.3,62.3,0,0,0-13.825,4.988l27.055,54.151a2.254,2.254,0,0,0-.224.151L221.615,204.58a63.117,63.117,0,0,0-10.048,8.153l42.77,42.813c-.052.054-.078.127-.126.186l-46.657-38.585a62.924,62.924,0,0,0-7.755,11.919l54.118,27.1c-.026.055-.053.106-.075.162l-56.036-22.873a62.4,62.4,0,0,0-3.721,13.035l59.658,10.329c-.008.052-.026.1-.031.152L193.494,250.7a62.755,62.755,0,0,0,.66,17.515l61.846-6.4,61.847,6.4a63.1,63.1,0,0,0,.989-11.052,63.877,63.877,0,0,0-.329-6.463l-60.219,6.273c0-.053-.023-.1-.031-.152l59.657-10.329A62.312,62.312,0,0,0,314.2,233.458Z" fill="#ffb955"/><path d="M195.27,273.315q.646,2.438,1.484,4.793H315.248q.832-2.355,1.484-4.793c-5.8-.75-6.526-4.515-13.6-4.515-7.851,0-7.851,4.654-15.7,4.654s-7.851-4.654-15.7-4.654-7.853,4.654-15.708,4.654-7.849-4.654-15.7-4.654-7.857,4.654-15.712,4.654-7.861-4.654-15.723-4.654C201.8,268.8,201.085,272.566,195.27,273.315Z" fill="#4173cd"/><path d="M301.282,285.09c-7.558,0-7.559-4.654-15.118-4.654s-7.561,4.654-15.122,4.654-7.561-4.654-15.122-4.654-7.563,4.654-15.125,4.654-7.559-4.654-15.117-4.654-7.565,4.654-15.13,4.654c-6.712,0-7.484-3.652-12.846-4.482a62.575,62.575,0,0,0,4.558,9.137H309.741a62.625,62.625,0,0,0,4.567-9.16C308.785,281.362,308.064,285.09,301.282,285.09Z" fill="#4173cd"/><path d="M307.292,293.44a11.908,11.908,0,0,0-5.9-1.367c-7.561,0-7.561,4.654-15.122,4.654s-7.561-4.654-15.122-4.654-7.563,4.654-15.125,4.654-7.559-4.654-15.117-4.654-7.565,4.654-15.13,4.654-7.571-4.654-15.14-4.654a11.923,11.923,0,0,0-5.92,1.372,63.244,63.244,0,0,0,6.653,7.938h89.271A63.3,63.3,0,0,0,307.292,293.44Z" fill="#4173cd"/><path d="M294.721,306.633c-2.284-1.324-4.121-2.924-8.557-2.924-7.561,0-7.561,4.654-15.122,4.654s-7.561-4.654-15.122-4.654-7.563,4.654-15.125,4.654-7.559-4.654-15.117-4.654c-4.377,0-6.225,1.556-8.468,2.87a62.9,62.9,0,0,0,10.014,6.44h57.551A62.967,62.967,0,0,0,294.721,306.633Z" fill="#4173cd"/><path d="M240.9,315.346a12.014,12.014,0,0,0-5.525,1.174A62.736,62.736,0,0,0,256,320h.012C248.461,320,248.459,315.346,240.9,315.346Z" fill="#4173cd"/><path d="M256.056,320a62.7,62.7,0,0,0,20.594-3.488,12.034,12.034,0,0,0-5.5-1.165C263.6,315.346,263.581,319.982,256.056,320Z" fill="#4173cd"/><path d="M264.266,249.207l-19.912-5.754a2.63,2.63,0,0,1-1.906-2.494c-.092-7.373-.412-33.336-.412-37.323C242.036,198.982,246.69,192,256,192h7.34a.636.636,0,0,1,.266,1.219c-3.362,1.441-7.605,4.444-7.605,10.417,0,7.092,6.753,10.132,9.971,11.178a2.4,2.4,0,0,1,1.666,2.282v29.578A2.639,2.639,0,0,1,264.266,249.207Z" fill="#ff4b55"/><path d="M246.7,275.255a.875.875,0,0,1,1.267,1.084c-1.949,4.679-6.726,13.407-15.243,13.407-11.636,0-13.964-9.309-13.964-16.291V224.09a1.835,1.835,0,0,1,1.835-1.835h3.311a1.835,1.835,0,0,1,1.835,1.835v47.038C225.746,277.421,238.978,279.932,246.7,275.255Z" fill="#ff4b55"/><path d="M264.321,275.255a.875.875,0,0,0-1.267,1.084c1.949,4.679,6.726,13.407,15.243,13.407,11.636,0,13.964-9.309,13.964-16.291V224.09a1.835,1.835,0,0,0-1.835-1.835h-3.311a1.835,1.835,0,0,0-1.835,1.835v47.038C285.278,277.421,272.045,279.932,264.321,275.255Z" fill="#ff4b55"/><path d="M280.477,267.636H231.524a1.123,1.123,0,0,1-1.123-1.123v-.081a1.123,1.123,0,0,1,1.123-1.123h48.953a1.123,1.123,0,0,1,1.123,1.123v.081A1.123,1.123,0,0,1,280.477,267.636Z" fill="#aa4650"/><path d="M235.345,258.852l2.52-3.36A1.164,1.164,0,1,0,236,254.1l-.981,1.308v-.9a1.164,1.164,0,0,0-2.328,0v.819l-.917-1.223a1.164,1.164,0,1,0-1.862,1.4l2.52,3.36-2.52,3.36a1.163,1.163,0,1,0,1.86,1.4l2.112-2.817L236,263.608a1.163,1.163,0,1,0,1.86-1.4Z" fill="#aa4650"/><path d="M257.066,258.852l2.52-3.36a1.164,1.164,0,1,0-1.862-1.4l-.981,1.308v-.9a1.164,1.164,0,1,0-2.328,0v.819L253.5,254.1a1.164,1.164,0,1,0-1.862,1.4l2.52,3.36-2.52,3.36a1.163,1.163,0,1,0,1.86,1.4l2.112-2.817,2.112,2.817a1.163,1.163,0,1,0,1.86-1.4Z" fill="#aa4650"/><path d="M246.206,258.852l2.52-3.36a1.164,1.164,0,1,0-1.862-1.4l-.981,1.308v-.9a1.164,1.164,0,0,0-2.328,0v.819l-.917-1.223a1.164,1.164,0,1,0-1.862,1.4l2.52,3.36-2.52,3.36a1.163,1.163,0,1,0,1.86,1.4l2.112-2.817,2.112,2.817a1.163,1.163,0,1,0,1.86-1.4Z" fill="#aa4650"/><path d="M267.927,258.852l2.52-3.36a1.164,1.164,0,1,0-1.862-1.4L267.6,255.4v-.9a1.164,1.164,0,1,0-2.328,0v.819l-.917-1.223a1.164,1.164,0,1,0-1.862,1.4l2.52,3.36-2.52,3.36a1.163,1.163,0,1,0,1.86,1.4l2.112-2.817,2.112,2.817a1.163,1.163,0,1,0,1.86-1.4Z" fill="#aa4650"/><path d="M278.787,258.852l2.52-3.36a1.164,1.164,0,1,0-1.862-1.4l-.981,1.308v-.9a1.164,1.164,0,0,0-2.328,0v.819l-.917-1.223a1.164,1.164,0,1,0-1.862,1.4l2.52,3.36-2.52,3.36a1.163,1.163,0,1,0,1.86,1.4l2.112-2.817,2.112,2.817a1.163,1.163,0,1,0,1.86-1.4Z" fill="#aa4650"/><path d="M233.2,274.824c1.721.753,11.832.861,14.413-1.828s2.044-3.872,2.044-3.872l-12.263.107Z" fill="#aa4650"/><path d="M278.312,274.824c-1.721.753-11.832.861-14.413-1.828s-2.044-3.872-2.044-3.872l12.263.107Z" fill="#aa4650"/></g></svg>