<svg xmlns="http://www.w3.org/2000/svg" width="511.902" height="335.9" viewBox="0 0 511.902 335.9"><g transform="translate(0 -87.8)"><path d="M503.2,423.7H8.8A8.813,8.813,0,0,1,0,414.9V97.1a8.813,8.813,0,0,1,8.8-8.8H503.1a8.813,8.813,0,0,1,8.8,8.8V414.9A8.665,8.665,0,0,1,503.2,423.7Z" fill="#002654"/><path d="M8.8,88.3H247.1a8.813,8.813,0,0,1,8.8,8.8V247.2a8.813,8.813,0,0,1-8.8,8.8H8.8A8.878,8.878,0,0,1,0,247.2V97.1A8.813,8.813,0,0,1,8.8,88.3Z" fill="#41479b"/><rect width="85.6" height="168.2" transform="translate(84.8 87.8)" fill="#f5f5f5"/><path d="M251.6,256H170.4V87.8h81.2a4.439,4.439,0,0,1,4.4,4.4V251.6A4.439,4.439,0,0,1,251.6,256Z" fill="#ff4b55"/><path d="M344.8,227.1l10.5,16.8h29.9v58.4l-22.5-35.1-30.2,48.2h18.8l2.8-5.3H373l21.7,34.7,21.7-34.7h18.8l2.8,5.3h18.8l-30.2-48.2-22.5,35.1V270h13.5l10-15.9H404.1V243.9H434l10.5-16.8ZM363,287.4l7.3,11.4-13.1.1Zm63.1,1.1,5.9,10.2-11.9-.1Z" fill="#fff" fill-rule="evenodd"/><path d="M431.2,328.3l3.9,12.1,12.7-.1-10.3,7.4,4,12.1-10.3-7.5-10.3,7.5,4-12.1-10.3-7.4,12.7.1Z" fill="#fff" fill-rule="evenodd"/><path d="M394.3,356.5l3.9,12.1,12.7-.1-10.3,7.4,4,12.1-10.3-7.5L384,388l4-12.1-10.3-7.4,12.7.1Z" fill="#fff" fill-rule="evenodd"/><path d="M358.4,328.4l-3.9,12.1-12.7-.1,10.3,7.4-4,12.1,10.3-7.5,10.3,7.5-4-12.1,10.3-7.4-12.7.1Z" fill="#fff" fill-rule="evenodd"/><path d="M462.1,245.7l3.9,12.1,12.7-.1-10.3,7.4,4,12.1-10.3-7.5-10.3,7.5,4-12.1-10.3-7.4,12.7.1Z" fill="#fff" fill-rule="evenodd"/><path d="M327.8,245.4l3.9,12.1,12.7-.1-10.3,7.4,4,12.1-10.3-7.5-10.3,7.5,4-12.1-10.3-7.4,12.7.1Z" fill="#fff" fill-rule="evenodd"/></g></svg>