<svg xmlns="http://www.w3.org/2000/svg" width="512" height="335.449" viewBox="0 0 512 335.449"><g transform="translate(0 -88.276)"><path d="M503.172,423.725H8.828A8.829,8.829,0,0,1,0,414.9V97.1a8.829,8.829,0,0,1,8.828-8.828H503.173A8.829,8.829,0,0,1,512,97.1V414.9A8.83,8.83,0,0,1,503.172,423.725Z" fill="#f5f5f5"/><path d="M512,229.518H282.483V88.277H229.517V229.518H0v52.966H229.517V423.725h52.966V282.484H512Z" fill="#ff4b55"/><path d="M150.069,146.834c-8.744.879-17.31,1.76-25.888,2.642.882-8.579,1.762-17.145,2.643-25.888a93.961,93.961,0,0,1-24.129,0c.879,8.743,1.76,17.31,2.643,25.888-8.579-.881-17.146-1.762-25.888-2.642a93.954,93.954,0,0,1,0,24.128c8.744-.879,17.31-1.76,25.888-2.642-.882,8.579-1.763,17.145-2.643,25.888a93.961,93.961,0,0,1,24.129,0c-.879-8.743-1.761-17.31-2.643-25.888,8.579.881,17.145,1.762,25.888,2.642A94.044,94.044,0,0,1,150.069,146.834Z" fill="#ff4b55"/><path d="M432.552,146.834c-8.744.879-17.31,1.76-25.888,2.642.882-8.579,1.762-17.145,2.643-25.888a93.961,93.961,0,0,1-24.129,0c.879,8.743,1.76,17.31,2.643,25.888-8.579-.881-17.146-1.762-25.888-2.642a93.955,93.955,0,0,1,0,24.128c8.744-.879,17.31-1.76,25.888-2.642-.882,8.579-1.763,17.145-2.643,25.888a93.961,93.961,0,0,1,24.129,0c-.879-8.743-1.761-17.31-2.643-25.888,8.579.881,17.145,1.762,25.888,2.642A94.043,94.043,0,0,1,432.552,146.834Z" fill="#ff4b55"/><path d="M150.069,341.04c-8.744.879-17.31,1.76-25.888,2.642.882-8.579,1.762-17.145,2.643-25.888a93.963,93.963,0,0,1-24.129,0c.879,8.743,1.76,17.31,2.643,25.888-8.579-.881-17.146-1.762-25.888-2.642a93.953,93.953,0,0,1,0,24.128c8.744-.879,17.31-1.76,25.888-2.642-.882,8.579-1.763,17.145-2.643,25.888a93.963,93.963,0,0,1,24.129,0c-.879-8.743-1.761-17.31-2.643-25.888,8.579.881,17.145,1.762,25.888,2.642A94.044,94.044,0,0,1,150.069,341.04Z" fill="#ff4b55"/><path d="M432.552,341.04c-8.744.879-17.31,1.76-25.888,2.642.882-8.579,1.762-17.145,2.643-25.888a93.963,93.963,0,0,1-24.129,0c.879,8.743,1.76,17.31,2.643,25.888-8.579-.881-17.146-1.762-25.888-2.642a93.955,93.955,0,0,1,0,24.128c8.744-.879,17.31-1.76,25.888-2.642-.882,8.579-1.763,17.145-2.643,25.888a93.963,93.963,0,0,1,24.129,0c-.879-8.743-1.761-17.31-2.643-25.888,8.579.881,17.145,1.762,25.888,2.642A94.043,94.043,0,0,1,432.552,341.04Z" fill="#ff4b55"/></g></svg>