<svg xmlns="http://www.w3.org/2000/svg" width="512" height="335.449" viewBox="0 0 512 335.449"><g transform="translate(0 -88.276)"><path d="M512,200.093H0V97.1a8.829,8.829,0,0,1,8.828-8.828H503.173A8.829,8.829,0,0,1,512,97.1V200.093Z" fill="#ff4b55"/><path d="M503.172,423.725H8.828A8.829,8.829,0,0,1,0,414.9V311.909H512V414.9A8.828,8.828,0,0,1,503.172,423.725Z" fill="#73af00"/><rect width="512" height="111.81" transform="translate(0 200.091)" fill="#ffe15a"/><path d="M259.722,213.91l9.213,27.623,29.118.226a3.924,3.924,0,0,1,2.3,7.08l-23.424,17.3,8.783,27.763a3.923,3.923,0,0,1-6.023,4.375L256,281.341l-23.69,16.932a3.924,3.924,0,0,1-6.023-4.375l8.783-27.763-23.424-17.3a3.924,3.924,0,0,1,2.3-7.08l29.118-.226,9.213-27.623A3.924,3.924,0,0,1,259.722,213.91Z" fill="#464655"/></g></svg>