<svg xmlns="http://www.w3.org/2000/svg" width="512" height="335.448" viewBox="0 0 512 335.448"><g transform="translate(0 -88.276)"><path d="M503.172,423.724H8.828A8.829,8.829,0,0,1,0,414.9V97.1a8.829,8.829,0,0,1,8.828-8.828H503.173A8.829,8.829,0,0,1,512,97.1V414.9A8.83,8.83,0,0,1,503.172,423.724Z" fill="#f5f5f5"/><path d="M503.172,423.724H8.828A8.829,8.829,0,0,1,0,414.9V308.965H512V414.9A8.828,8.828,0,0,1,503.172,423.724Z" fill="#ff4b55"/><path d="M353.1,211.862V194.207H335.448V150.069h8.827V132.414H291.31v17.655h8.827v44.138H273.655V132.414h8.827V114.759H229.517v17.655h8.827v61.793H211.862V150.069h8.827V132.414H167.724v17.655h8.827v44.138H158.9v17.655h8.828v70.621H158.9v17.655H353.1V282.483h-8.828V211.862Z" fill="#ff4b55"/><path d="M273.655,291.31h-35.31V256A17.654,17.654,0,0,1,256,238.345h0A17.654,17.654,0,0,1,273.655,256Z" fill="#464655"/><path d="M256,167.724a8.829,8.829,0,0,0-8.828,8.828v26.483h17.655V176.552A8.827,8.827,0,0,0,256,167.724Z" fill="#464655"/><path d="M317.792,176.552a8.829,8.829,0,0,0-8.828,8.828v17.655h17.655V185.38A8.825,8.825,0,0,0,317.792,176.552Z" fill="#464655"/><path d="M194.206,176.552a8.829,8.829,0,0,0-8.828,8.828v17.655h17.655V185.38A8.827,8.827,0,0,0,194.206,176.552Z" fill="#464655"/><path d="M326.62,291.31H291.31V264.827a17.654,17.654,0,0,1,17.655-17.655h0a17.654,17.654,0,0,1,17.655,17.655Z" fill="#464655"/><path d="M220.689,291.31h-35.31V264.827a17.654,17.654,0,0,1,17.655-17.655h0a17.654,17.654,0,0,1,17.655,17.655Z" fill="#464655"/><path d="M280.275,322.207a4.414,4.414,0,0,0-1.965-3.672l-17.9-11.93v-3.737l15.215-7.608a4.414,4.414,0,1,0-3.948-7.9L256,295.205l-15.681-7.84a4.414,4.414,0,0,0-3.948,7.9l15.215,7.607v3.737l-17.9,11.932a4.412,4.412,0,0,0,0,7.343l17.9,11.932v37.362H233.93v6.759A4.415,4.415,0,0,0,242.245,384h9.341v8.828h-9.418a4.414,4.414,0,0,0-8.237,2.207v6.621h17.655v4.414a4.414,4.414,0,0,0,8.828,0V337.813l17.9-11.932A4.423,4.423,0,0,0,280.275,322.207ZM256,330.143l-11.9-7.936,11.9-7.935,11.9,7.935Z" fill="#ffe15a"/></g></svg>