<svg xmlns="http://www.w3.org/2000/svg" width="512" height="335.45" viewBox="0 0 512 335.45"><g transform="translate(0 -88.275)"><path d="M512,256H0V97.1a8.829,8.829,0,0,1,8.828-8.828H503.173A8.829,8.829,0,0,1,512,97.1V256Z" fill="#f5f5f5"/><path d="M0,256H512V414.9a8.829,8.829,0,0,1-8.828,8.828H8.828A8.829,8.829,0,0,1,0,414.9Z" fill="#ff4b55"/><path d="M176.552,141.241A114.759,114.759,0,0,0,61.793,256H291.31A114.758,114.758,0,0,0,176.552,141.241Z" fill="#ff4b55"/><path d="M176.552,370.759A114.759,114.759,0,0,0,291.311,256H61.793A114.759,114.759,0,0,0,176.552,370.759Z" fill="#f5f5f5"/></g></svg>