<svg xmlns="http://www.w3.org/2000/svg" width="512" height="335.449" viewBox="0 0 512 335.449"><g transform="translate(0 -88.276)"><rect width="512" height="37.27" transform="translate(0 125.551)" fill="#f5f5f5"/><rect width="512" height="37.27" transform="translate(0 200.091)" fill="#f5f5f5"/><rect width="512" height="37.27" transform="translate(0 274.641)" fill="#f5f5f5"/><rect width="512" height="37.27" transform="translate(0 311.911)" fill="#41479b"/><rect width="512" height="37.27" transform="translate(0 349.181)" fill="#f5f5f5"/><path d="M8.828,423.725H503.173A8.829,8.829,0,0,0,512,414.9V386.452H0V414.9A8.828,8.828,0,0,0,8.828,423.725Z" fill="#41479b"/><path d="M512,125.549V97.1a8.829,8.829,0,0,0-8.828-8.828H8.828A8.829,8.829,0,0,0,0,97.1V274.637H512V237.365H176.552V200.093H512V162.821H176.552V125.549Z" fill="#41479b"/><path d="M176.552,162.821h-69.64V88.277H69.64v74.544H0v37.272H69.64v74.544h37.272V200.093h69.64Z" fill="#f5f5f5"/></g></svg>