<svg xmlns="http://www.w3.org/2000/svg" width="512" height="335.448" viewBox="0 0 512 335.448"><g transform="translate(0 -88.276)"><path d="M503.172,423.724H8.828A8.829,8.829,0,0,1,0,414.9V97.1a8.829,8.829,0,0,1,8.828-8.828H503.173A8.829,8.829,0,0,1,512,97.1V414.9A8.83,8.83,0,0,1,503.172,423.724Z" fill="#ff4b55"/><path d="M459.033,141.242V370.759H52.965V141.242H459.033" fill="#ffe15a"/><path d="M52.965,141.242,256,256,52.965,370.758Z" fill="#73af00"/><path d="M459.033,141.242,256,256,459.033,370.758Z" fill="#73af00"/><circle cx="35.31" cy="35.31" r="35.31" transform="translate(220.69 220.69)" fill="#ff4b55"/><path d="M258.231,230.129l5.523,16.558,17.454.136a2.352,2.352,0,0,1,1.379,4.244l-14.041,10.369,5.266,16.642A2.352,2.352,0,0,1,270.2,280.7L256,270.55,241.8,280.7a2.352,2.352,0,0,1-3.61-2.623l5.266-16.642-14.041-10.369a2.352,2.352,0,0,1,1.379-4.244l17.454-.136,5.523-16.558A2.35,2.35,0,0,1,258.231,230.129Z" fill="#ffe15a"/><path d="M257.318,99.993l3.263,9.783,10.313.079a1.389,1.389,0,0,1,.814,2.507l-8.3,6.126,3.111,9.833a1.389,1.389,0,0,1-2.133,1.549L256,123.876l-8.391,6a1.389,1.389,0,0,1-2.133-1.549l3.111-9.833-8.3-6.126a1.389,1.389,0,0,1,.814-2.507l10.313-.079L254.68,100A1.39,1.39,0,0,1,257.318,99.993Z" fill="#ffe15a"/><path d="M373.456,99.993l3.263,9.783,10.313.079a1.389,1.389,0,0,1,.814,2.507l-8.3,6.126,3.111,9.833a1.389,1.389,0,0,1-2.133,1.549l-8.391-6-8.391,6a1.389,1.389,0,0,1-2.133-1.549l3.111-9.833-8.3-6.126a1.389,1.389,0,0,1,.814-2.507l10.313-.079,3.263-9.783A1.392,1.392,0,0,1,373.456,99.993Z" fill="#ffe15a"/><path d="M141.18,99.993l3.263,9.783,10.313.079a1.389,1.389,0,0,1,.814,2.507l-8.3,6.126,3.111,9.833a1.389,1.389,0,0,1-2.133,1.549l-8.391-6-8.391,6a1.389,1.389,0,0,1-2.133-1.549l3.111-9.833-8.3-6.126a1.389,1.389,0,0,1,.814-2.507l10.313-.079,3.263-9.783A1.392,1.392,0,0,1,141.18,99.993Z" fill="#ffe15a"/><path d="M257.318,381.993l3.263,9.783,10.313.079a1.389,1.389,0,0,1,.814,2.507l-8.3,6.126,3.111,9.833a1.389,1.389,0,0,1-2.133,1.549L256,405.876l-8.391,6a1.389,1.389,0,0,1-2.133-1.549l3.111-9.833-8.3-6.126a1.389,1.389,0,0,1,.814-2.507l10.313-.079L254.68,382A1.39,1.39,0,0,1,257.318,381.993Z" fill="#ffe15a"/><path d="M373.456,381.993l3.263,9.783,10.313.079a1.389,1.389,0,0,1,.814,2.507l-8.3,6.126,3.111,9.833a1.389,1.389,0,0,1-2.133,1.549l-8.391-6-8.391,6a1.389,1.389,0,0,1-2.133-1.549l3.111-9.833-8.3-6.126a1.389,1.389,0,0,1,.814-2.507l10.313-.079,3.263-9.783A1.392,1.392,0,0,1,373.456,381.993Z" fill="#ffe15a"/><path d="M141.18,381.993l3.263,9.783,10.313.079a1.389,1.389,0,0,1,.814,2.507l-8.3,6.126,3.111,9.833a1.389,1.389,0,0,1-2.133,1.549l-8.391-6-8.391,6a1.389,1.389,0,0,1-2.133-1.549l3.111-9.833-8.3-6.126a1.389,1.389,0,0,1,.814-2.507l10.313-.079,3.263-9.783A1.392,1.392,0,0,1,141.18,381.993Z" fill="#ffe15a"/><path d="M118.069,233.931H96V256a22.069,22.069,0,1,0,22.069-22.069Z" fill="#ffe15a"/><path d="M140.138,278.069l-12.132-2.352L118.069,256l19.717,9.939Z" fill="#ff4b55"/></g></svg>