<svg xmlns="http://www.w3.org/2000/svg" width="512" height="335.4" viewBox="0 0 512 335.4"><g transform="translate(0 -88.3)"><path d="M512,228H0V99.3c0-6.1,4-11,8.8-11H503.1c4.9,0,8.8,4.9,8.8,11L512,228Z" fill="#4173cd"/><path d="M503.2,423.7H8.8c-4.9,0-8.8-6.9-8.8-15.5V228H512V408.3C512,416.8,508,423.7,503.2,423.7Z" fill="#1e1e1e"/><path d="M169.9,286.1c.2-.2,3,.8,6.4,2.1a51.484,51.484,0,0,0,9.5,2.7c3.3.1,14.9,5.7,14.8,7,0,1.2-17.6-4.1-23.7-7.3-7.4-3.8-7.6-3.9-7-4.5Z" fill="green"/><path d="M191.6,288.6c1.4,3.5,6.4,5.8,13.2,6.4,4.6.3,2.5-1.6-3.9-4a40.216,40.216,0,0,1-8-3.8c-2.6-2-2.6-2-1.3,1.4Zm-63.4-25.9c3.6,5.4,7.8,9.3,15.8,14.7,5.9,4,11,7.2,11.3,6.9.5-.6-28.9-27.9-30.9-28.6C123.7,255.5,125.3,258.6,128.2,262.7Zm75.5,28.8a22.992,22.992,0,0,0,8,2.3c2.1.1,1.5-.4-2.3-1.9a44.551,44.551,0,0,1-8.3-4.4c-2.9-2.4-2.9-2.4-2.6-.3.2,1.2,2.3,3,5.2,4.3ZM186.8,267c1.8,7,9,20,11.5,20.5,2.3.4,2.3.3.4-1.9-3.1-3.6-9.9-17-9.9-19.5,0-1.4-.6-2.4-1.4-2.4C186.5,263.7,186.3,265,186.8,267Zm-75.5-8.8a30.946,30.946,0,0,0,5.3,4.1,45.407,45.407,0,0,1,7.5,6.4c2,2.6,13,9.2,14.1,8.4,1-.7-13.3-12.3-19.3-15.7C111.7,257.4,111.5,257.3,111.3,258.2Zm4.1,9.6c0,.3,2.6,1.6,5.9,3.1a42.183,42.183,0,0,1,8.5,5c2.4,2.3,14.4,6.8,15.3,5.8.9-.9-15.2-9.8-21.7-12.1C115.6,267,115.4,267,115.4,267.8Zm56,4.5c4.8,8.8,9.7,14.6,11.7,13.9,1-.4-1.3-4-6.1-9.9-4.4-5.2-8.2-9.7-8.5-10.1-.5-.3.9,2.4,2.9,6.1Zm6.1-3.5c0,1.4,4.9,10.9,7.8,15,1.6,2.3,3.5,3.5,5.6,3.5,3.1,0,3.1,0-1.6-5.4-2.8-2.9-6.4-7.3-8.3-9.7-1.8-2.3-3.5-3.9-3.5-3.4ZM166,272.9c0,1.9,9.2,14.5,10.6,14.5.6,0-.9-3-3.6-6.7C166.9,272.4,166,271.5,166,272.9Zm-8.7,34.6c-8.3,3.3-10,4.4-10,6.2,0,.8.9.6,2.3-.5,1.1-1.1,5.3-2.6,9-3.5a58.019,58.019,0,0,0,10-3.3l3.1-1.6H168c-2,.1-6.9,1.4-10.7,2.7Zm-23.5-21.3c6.2,5.6,26.9,16.3,37.4,19.4a26.686,26.686,0,0,0,10.1.5l4.9-1-4.8-2.5c-7.7-4-20.4-12.5-25-16.6-5-4.5-4.8-2.9.2,3.3,2,2.5,7.8,6.8,12.9,9.5,5.2,2.8,8.8,5.4,8.2,5.6-1.5.6-15.7-7.5-26.5-15.1-11.7-8.3-12.2-8.5-7.8-3.2a38.246,38.246,0,0,0,8.9,7.7c2.8,1.8,4.7,3.4,4.1,3.6-1.2.4-8.5-3.6-18.1-9.7-2.7-1.8-6.3-4.1-7.9-5.2-1.7-1.1-.1.6,3.4,3.7Zm.9-1.8-5,1.6,3.8.6a9.545,9.545,0,0,0,5.9-.4,17.387,17.387,0,0,1,5-1.3c2.8,0,2.8-.1.4-1.1C141.6,282.5,140.9,282.5,134.7,284.4Zm6.2,3.4c-2.1,1.6-2,1.8,2.6,1,2.8-.4,6.8-1.1,8.8-1.6,3.3-.9,3-1-2.6-1.1C145.9,286,142.4,286.7,140.9,287.8Zm-31.2-13.2c20.7,3.8,62.2,17.7,59.7,20.1-.6.6-12.3-2.3-13.9-3.4-.6-.6-6.8-.4-13.6.5-12.7,1.4-14.8,2.5-14.6,7.7.1,2.5.1,2.5.8,0,1.1-4.6,3-5.7,10.2-5.7,7.8,0,29.1,3.1,38.5,5.7,12.6,3.5,12.9,3.5,8.8,1.3-5.4-3-13.6-8.5-15.1-10.2-2.8-3.1-52.8-17-60.1-16.7C107.1,274.1,107,274.1,109.7,274.6Zm9.5,6.7a11.034,11.034,0,0,0-3.5,5.9c-.8,3.6-.8,3.6,1.3,1.3,5.3-6.7,5.6-6.9,12.2-7,5.3-.1,6-.4,3.5-1.1C127.4,278.7,122.1,279.1,119.2,281.3Zm64,7.8c1,1.8,10.8,6.7,11.5,5.9.4-.4-.8-1.4-2.3-2.3a19.494,19.494,0,0,1-4.6-3.3c-2-1.8-5.7-2.2-4.6-.3ZM184,301c1,1.8,10.8,6.7,11.5,5.9.4-.4-.8-1.4-2.3-2.3a19.494,19.494,0,0,1-4.6-3.3c-2-1.8-5.8-2.2-4.6-.3Zm6.7-5.8c-2.3.9-4.7,2.5-5.4,3.7-.9,1.4-.1,1.4,2.9-.1a23.675,23.675,0,0,1,7.7-2.3c3.5-.2,3.5-.2,1.3-1.6-1.4-.8-4.1-.7-6.5.3Zm-14.4,9.1c-7.2,6.4-8.7,10.9-6.4,17.6l2,5.7-.6-5.8c-.9-7.9,1.3-11.5,9.9-17.8,4.1-2.9,7.3-5.5,7.2-5.8-.4-1.3-8.5,2.6-12.1,6.1ZM132,252.9c3.9,7.4,19.7,24.5,28.5,31a25.013,25.013,0,0,0,9.3,3.9l4.9.8-3.6-4c-5.9-6.4-14.9-18.7-17.8-24.1-3.1-5.9-3.5-4.4-.9,3.1,1,3,5,9,8.9,13.3,3.9,4.4,6.4,8,5.8,8-1.6,0-12.2-12.4-19.7-23.2-8.2-11.8-8.5-12.2-6.3-5.7a37.411,37.411,0,0,0,5.8,10.3c2,2.6,3.3,4.8,2.6,4.8-1.3,0-6.8-6.3-13.7-15.3-1.9-2.6-4.5-6-5.6-7.5C128.9,246.6,129.7,248.7,132,252.9Zm40.5,35.2c0,.9,1.9,3.1,4.1,4.9,6.7,5,24.3,13.4,26.6,12.6,1.4-.5-.8-1.9-6.8-4.1-10.5-4.1-20.2-9.7-20.2-11.6,0-1,4.1-1.1,14.4-.5,15.4.9,20.1-.9,6-2.1-14.7-1.6-24.1-1.2-24.1.8Zm-33.2,13.4c-5.4,1.3-8.3,3.1-8.3,5.4,0,.9.5.8,1.1-.3,1-1.6,11.3-4.6,12.3-3.6.3.3-.1,2.1-.9,4s-1,3.8-.6,4.1c.4.5,1-.5,1.4-1.9,1.5-5.4,6.1-7,17.3-6,5.6.5,11.9,1.1,13.9,1.3a16.434,16.434,0,0,1,6.5,1.8c3.3,1.8,15.9,1.9,14.8.1-.4-.6-2.8-1.5-5.4-1.9-2.5-.4-7.8-1.6-11.7-2.6-7.6-2-32.5-2.3-40.4-.4ZM185.2,316c-9.5-1.7-14-.2-17.8,5.7l-3.3,5.1,4.2-4c5.7-5.5,9.8-6.1,20.1-3.1,4.8,1.4,8.9,2.3,9,2.1C198.2,320.7,190.1,316.8,185.2,316Zm-12.3-3.5c-17.4,4.8-19.5,6.5-16.9,14.5,1,3,1,2.9,1.1-1a11.867,11.867,0,0,1,2.5-6.4c2.3-2.3,12.4-5.2,24.8-7.2,3-.4,5-1.3,4.6-1.9C188.1,308.9,184.1,309.4,172.9,312.5Zm14.8,6.2c-8.8,3.9-11.7,7.7-11.5,14.7l.1,6,1.3-5.7c1.6-7.8,4.8-10.6,14.9-13.8,4.8-1.5,8.7-3,8.7-3.3,0-1.3-8.9-.1-13.5,2.1Zm-1.6,10.8c-1.5,2-2.6,4.6-2.6,6,0,1.6.6,1.3,2.4-1.6a24.588,24.588,0,0,1,5.3-6c2.9-2,2.9-2,.3-2-1.7-.1-3.9,1.4-5.4,3.6Z" fill="green"/><path d="M388,387c-.8,1.3-1.3,2.3-1.7,2.9-3.9-1.2-20.4-8.5-34.5-14.9-14.2-6.4-34.4-14.7-38.2-17-2.9-1.8-2.6-3.3.9-2,3.6,1.3,17.2,7.7,26.9,12C352.7,373.1,380.9,384,388,387Zm-72-32.2c3.9,2.2,24.3,9.7,38.8,15.6,14.3,5.9,31,12.7,35,13.7.4-.7.9-1.7,1.6-3-7.2-2.7-35.8-12.7-47.2-17.3-9.8-3.9-23.7-9.9-27.3-11C313.2,351.6,313,353.1,316,354.8Zm-4.1,4.3c-3.5-1.5-3.8,0-1,1.9h0c3.7,2.5,23.4,11.8,37.3,19,13.7,7.1,29.8,15.3,33.7,16.7.4-.6,1-1.6,1.9-2.9-7-3.3-34.6-15.7-45.5-21.3C328.7,367.7,315.4,360.6,311.9,359.1Zm41.6-7.3c-10.3-2.5-24.9-6.4-28.6-7.1s-3.7.8-.6,2.1h0c4.1,1.6,25.5,6.2,40.6,10.1,15,3.8,32.5,8.2,36.5,8.7.3-.7.7-1.8,1.2-3.2C395.1,360.7,365.5,354.8,353.5,351.8Zm-6.4,8c-10-3.4-24.2-8.6-27.9-9.6s-3.8.5-.7,2c4,2,24.8,8.4,39.5,13.6,14.6,5.1,31.6,11,35.7,11.8.3-.7.8-1.7,1.5-3.1C387.8,372.3,358.7,363.8,347.1,359.8Zm3.6-3.8c-10.2-2.9-24.6-7.3-28.3-8.1s-3.8.7-.6,2.1c4.1,1.8,25.2,7.1,40.2,11.5,14.8,4.4,32.2,9.4,36.2,10,.3-.7.7-1.7,1.3-3.2C392,366.3,362.6,359.4,350.7,356Z" fill="green"/><path d="M267.1,387.7l4.1,2.9c5.8,4.1,9,9.7,8.7,15.5l-.2,4.8,1.9-4.7c2.1-5,1.8-12.5-.7-18l-1.4-3.2,4.6,2c6.5,2.8,10.9,7.6,11.8,13.4l.8,4.8.9-5c1-5.3-.8-12.6-4.4-17.5l-2.1-2.9,4.9,1c7,1.3,12.2,5.2,14.3,10.7l1.8,4.5-.2-5.1c-.1-5.4-3.4-12.1-7.9-16.2l-2.6-2.4h5c7.1-.1,13,2.5,16.2,7.4l2.7,4-1.2-5c-1.2-5.2-5.9-11.1-11.1-14.2l-3.1-1.8,4.9-1.1c6.9-1.6,13.3-.2,17.4,3.9l3.4,3.4-2.2-4.6c-2.3-4.9-8-9.7-13.8-11.6l-3.4-1.1,4.5-2.1c6.4-3,12.9-3,17.8.2l4.1,2.6-3.1-4c-3.2-4.3-9.9-7.8-15.9-8.4l-3.5-.4,4-3c5.7-4.3,12-5.6,17.5-3.5l4.5,1.7-3.9-3.3c-4.1-3.5-11.3-5.6-17.3-4.9l-3.5.4,3.3-3.7c4.6-5.4,10.6-8,16.4-7.1l4.8.7-4.5-2.4c-4.7-2.6-12.2-3.1-18-1.2l-3.4,1.1,2.5-4.4c3.4-6.2,8.7-10,14.5-10.3l4.8-.3-4.9-1.4c-5.1-1.6-12.6-.5-17.8,2.5l-3.1,1.8,1.5-4.8c2.1-6.8,6.4-11.6,12.1-13.1l4.6-1.3-5.1-.4c-5.4-.5-12.4,2.1-16.9,6.2l-2.6,2.4.5-5c.6-7.1,3.9-12.7,9.1-15.3l4.3-2.2-5.1.7c-5.3.7-11.7,4.7-15.3,9.6l-2.1,2.9-.6-5c-.9-7.1,1.2-13.2,5.7-16.9l3.7-3.1-4.8,1.7c-5.1,1.8-10.5,7-12.9,12.6l-1.4,3.2-1.6-4.7c-2.3-6.7-1.6-13.2,2.1-17.7l3-3.8-4.3,2.7c-4.6,2.8-8.8,9-10,15l-.7,3.5-2.5-4.3c-3.7-6.1-4.3-12.6-1.6-17.8l2.2-4.3-3.7,3.5c-3.9,3.7-6.7,10.7-6.7,16.7v3.5l-3.4-3.7c-4.9-5.2-6.8-11.4-5.3-17l1.2-4.7-2.9,4.2c-3.1,4.4-4.4,11.8-3.1,17.8l.7,3.5-4.1-2.9c-5.8-4.1-9-9.7-8.7-15.5l.2-4.8-1.9,4.7c-2.1,5-1.8,12.5.7,18l1.4,3.2-4.6-2c-6.5-2.8-10.9-7.6-11.8-13.4l-.8-4.8-.9,5c-1,5.3.8,12.6,4.4,17.5l2.1,2.9-4.9-1c-7-1.3-12.2-5.2-14.3-10.7l-1.8-4.5.2,5.1c.1,5.4,3.4,12.1,7.9,16.2l2.6,2.4h-5c-7.1.1-13-2.5-16.2-7.4l-2.7-4,1.2,5c1.2,5.2,5.9,11.1,11.1,14.2l3.1,1.8-4.9,1.1c-6.9,1.6-13.3.2-17.4-3.9l-3.4-3.4,2.2,4.6c2.3,4.9,8,9.7,13.8,11.6l3.4,1.1-4.5,2.1c-6.4,3-12.9,3-17.8-.2l-4.1-2.6,3.1,4c3.2,4.3,9.9,7.8,15.9,8.4l3.5.4-4,3c-5.7,4.3-12,5.6-17.5,3.5l-4.5-1.7,3.9,3.3c4.1,3.5,11.3,5.6,17.3,4.9l3.5-.4-3.3,3.7c-4.6,5.4-10.6,8-16.4,7.1l-4.8-.7,4.5,2.4c4.7,2.6,12.2,3.1,18,1.2l3.4-1.1-2.5,4.4c-3.4,6.2-8.7,10-14.5,10.3l-4.8.3,4.9,1.4c5.1,1.6,12.6.5,17.8-2.5l3.1-1.8-1.5,4.8c-2.1,6.8-6.4,11.6-12.1,13.1l-4.6,1.3,5.1.4c5.4.5,12.4-2.1,16.9-6.2l2.6-2.4-.5,5c-.6,7.1-3.9,12.7-9.1,15.3l-4.3,2.2,5.1-.7c5.3-.7,11.7-4.7,15.3-9.6l2.1-2.9.6,5c.9,7.1-1.2,13.2-5.7,16.9l-3.7,3.1,4.8-1.7c5.1-1.8,10.5-7,12.9-12.6l1.4-3.2,1.6,4.7c2.3,6.7,1.6,13.2-2.1,17.7l-3,3.8,4.3-2.7c4.6-2.8,8.8-9,10-15l.7-3.5,2.5,4.3c3.7,6.1,4.3,12.6,1.6,17.7l-2.2,4.3,3.7-3.6c3.9-3.7,6.7-10.6,6.7-16.7v-3.5l3.4,3.7c4.9,5.2,6.8,11.4,5.3,17l-1.2,4.7,2.9-4.2c3.1-4.4,4.4-11.8,3.1-17.8l-.7-3.3" fill="#fcdd09"/><path d="M249.2,123.8c-5.5,9.1-6.2,16.3-2.4,28.8a182.517,182.517,0,0,1,4.6,19.3c1.1,6.7,1,7.3,1.2,8.8h6c.2-2.3.4-5,.9-8.6a166.844,166.844,0,0,1,4.1-19.4c3.7-12.4,3.4-20-2.3-28.7-2.1-3.2-4.9-5.8-6.1-5.8C253.9,118.1,251.1,120.5,249.2,123.8Zm27,25.6c-7.8,3.3-12.5,12.6-15,25.3a35.028,35.028,0,0,0-.8,5.9h4a47.66,47.66,0,0,1,1.4-5.3c3.1-10,12.4-13.9,12-4.6a8.029,8.029,0,0,1-2.4,5.4,41.89,41.89,0,0,0,7.2-3.3c14.2-8.6,8.6-29.8-6.4-23.4Zm-31.8,34.5c6.3,0,17.1.1,22.3.1v-1.7H244.4C244.4,183,244.4,183.3,244.4,183.9Zm1.9,7.4a27.657,27.657,0,0,1-5.8,4.3,30.039,30.039,0,0,0,6,.1,19,19,0,0,0,6.3-1.4,54.459,54.459,0,0,0-.5,6.8c.4,4.5.9,5.6,1.9,7.8,1.3,1.8,2.1,1.8,3-.1a21.545,21.545,0,0,0,2-7.7,36.537,36.537,0,0,0-.8-6.8,17.283,17.283,0,0,0,6.3,1.4,39.669,39.669,0,0,0,5.9.1s-4.2-2.1-6-4.7c-1.8-2.5-1.4-2.1-2.7-5.4-1.6-.1-9.7,0-12.3,0-1.5,3.1-1.6,3.7-3.3,5.6Zm-11.5-41.9c7.8,3.3,12.5,12.6,15,25.3a35.029,35.029,0,0,1,.8,5.9h-4a47.66,47.66,0,0,0-1.4-5.3c-3.1-10-12.4-13.9-12-4.6a8.029,8.029,0,0,0,2.4,5.4,41.89,41.89,0,0,1-7.2-3.3c-14.2-8.6-8.6-29.8,6.4-23.4Z" fill="#fcdd09"/><path d="M110.5,123.8c-5.5,9.1-6.2,16.3-2.4,28.8a182.515,182.515,0,0,1,4.6,19.3c1.1,6.7,1,7.3,1.2,8.8h6c.2-2.3.4-5,.9-8.6a166.847,166.847,0,0,1,4.1-19.4c3.7-12.4,3.4-20-2.3-28.7-2.1-3.2-4.9-5.8-6.1-5.8C115.2,118.1,112.3,120.5,110.5,123.8Zm26.9,25.6c-7.8,3.3-12.5,12.6-15,25.3a35.03,35.03,0,0,0-.8,5.9h4a47.658,47.658,0,0,1,1.4-5.3c3.1-10,12.4-13.9,12-4.6a8.029,8.029,0,0,1-2.4,5.4,41.89,41.89,0,0,0,7.2-3.3c14.3-8.6,8.6-29.8-6.4-23.4Zm-31.7,34.5c6.3,0,17.1.1,22.3.1v-1.7H105.7Zm1.8,7.4a27.657,27.657,0,0,1-5.8,4.3,30.039,30.039,0,0,0,6,.1,19,19,0,0,0,6.3-1.4,54.459,54.459,0,0,0-.5,6.8c.4,4.5.9,5.6,1.9,7.8,1.3,1.8,2.1,1.8,3-.1a21.546,21.546,0,0,0,2-7.7,36.534,36.534,0,0,0-.8-6.8,17.283,17.283,0,0,0,6.3,1.4,39.67,39.67,0,0,0,5.9.1s-4.2-2.1-6-4.7c-1.8-2.5-1.4-2.1-2.7-5.4-1.6-.1-9.7,0-12.3,0-1.4,3.1-1.6,3.7-3.3,5.6ZM96.1,149.4c7.8,3.3,12.5,12.6,15,25.3a35.03,35.03,0,0,1,.8,5.9h-4a47.658,47.658,0,0,0-1.4-5.3c-3.1-10-12.4-13.9-12-4.6a8.029,8.029,0,0,0,2.4,5.4,41.89,41.89,0,0,1-7.2-3.3c-14.3-8.6-8.6-29.8,6.4-23.4Z" fill="#fcdd09"/><path d="M388,123.8c-5.5,9.1-6.2,16.3-2.4,28.8a182.525,182.525,0,0,1,4.6,19.3c1.1,6.7,1,7.3,1.2,8.8h6c.2-2.3.4-5,.9-8.6a166.844,166.844,0,0,1,4.1-19.4c3.7-12.4,3.4-20-2.3-28.7-2.1-3.2-4.9-5.8-6.1-5.8C392.7,118.1,389.8,120.5,388,123.8Zm26.9,25.6c-7.8,3.3-12.5,12.6-15,25.3a35.028,35.028,0,0,0-.8,5.9h4a47.66,47.66,0,0,1,1.4-5.3c3.1-10,12.4-13.9,12-4.6a8.029,8.029,0,0,1-2.4,5.4,41.89,41.89,0,0,0,7.2-3.3c14.3-8.6,8.6-29.8-6.4-23.4Zm-31.7,34.5c6.3,0,17.1.1,22.3.1v-1.7H383.2Zm1.8,7.4a27.657,27.657,0,0,1-5.8,4.3,30.039,30.039,0,0,0,6,.1,16.8,16.8,0,0,0,6.3-1.4,54.459,54.459,0,0,0-.5,6.8c.4,4.5.9,5.6,1.9,7.8,1.3,1.8,2.1,1.8,3-.1a21.545,21.545,0,0,0,2-7.7,36.537,36.537,0,0,0-.8-6.8,17.283,17.283,0,0,0,6.3,1.4,39.669,39.669,0,0,0,5.9.1s-4.2-2.1-6-4.7c-1.8-2.5-1.4-2.1-2.7-5.4-1.6-.1-9.7,0-12.3,0-1.4,3.1-1.6,3.7-3.3,5.6Zm-11.4-41.9c7.8,3.3,12.5,12.6,15,25.3a35.028,35.028,0,0,1,.8,5.9h-4a47.66,47.66,0,0,0-1.4-5.3c-3.1-10-12.4-13.9-12-4.6a8.029,8.029,0,0,0,2.4,5.4,41.89,41.89,0,0,1-7.2-3.3c-14.3-8.6-8.6-29.8,6.4-23.4Z" fill="#fcdd09"/></g></svg>