<svg xmlns="http://www.w3.org/2000/svg" width="512" height="335.448" viewBox="0 0 512 335.448"><g transform="translate(0 -88.276)"><path d="M503.172,423.724H8.828A8.829,8.829,0,0,1,0,414.9V97.1a8.829,8.829,0,0,1,8.828-8.828H503.173A8.829,8.829,0,0,1,512,97.1V414.9A8.83,8.83,0,0,1,503.172,423.724Z" fill="#41479b"/><path d="M256,167.724c-33.549,17.651-56.175,59.69-56.175,88.276S222.45,326.626,256,344.276c33.549-17.651,56.175-59.69,56.175-88.276S289.549,185.375,256,167.724Z" fill="#3cc8ff"/><path d="M263.244,225.773c5.42-2.857,14.674-6,25.189-2.142,0,0-10.127-11.281-24.181-2.09,3.781-4.585,9.459-10.261,15.608-11.842,0,0-12.237-4.57-19.641,11.749,1.434-8.231,1.173-21.191-12.094-28.714,0,0,7.418,15.919,8.147,29.129a13.279,13.279,0,0,0-3.572-7.17c-7.015-7.319-13.114-7.929-13.114-7.929s9.726,10.778,14.505,20.975a18.736,18.736,0,0,0-15.42-7.252c-18.3.61-22.264,11.589-22.264,11.589,7.586-3.194,19.625-4.785,28.958-4-12.049,2.123-16.33,17.134-16.33,17.134,9.675-12.064,20.235-14.024,24.451-14.311-7.7,6.371-7.233,18.1-7.233,18.1,1.79-6.6,8.724-14.133,12.1-17.507a39.576,39.576,0,0,1,10.175,20.907s1.991-3.329,1.073-10.1c-.868-6.4-4.882-10.6-7.945-13.062,16.064,2.214,26.546,13.866,26.546,13.866C282.95,227.775,269.8,225.778,263.244,225.773Z" fill="#73af00"/><path d="M494.344,105.931V406.068H17.655V105.931H494.344m8.828-17.655H8.828A8.829,8.829,0,0,0,0,97.1V414.9a8.829,8.829,0,0,0,8.828,8.828H503.173A8.829,8.829,0,0,0,512,414.9V97.1a8.83,8.83,0,0,0-8.829-8.828Z" fill="#ff4b55"/><path d="M238.068,277.335l8.093-13.978,66.483-1.471-4.414,18.39Z" fill="#ff965a"/><path d="M202.249,273.655c6.664,26.153,26.631,56.353,53.75,70.621,27.119-14.268,47.086-44.468,53.75-70.621Z" fill="#4173cd"/><path d="M211.862,300.138s19.255-.953,30.823,3.8a3.857,3.857,0,0,1,.654,6.807c-5.635,3.708-13.822,10.09-13.822,15.879Z" fill="#ffe15a"/><path d="M245.7,335.448c-.736-7.357,5.773-12.707,14.712-16.184,11.586-4.505,5.241-11.678-.552-16.367-6.909-5.592,2.023-7.172,39.54-7.908l-18.391,28.69L256,344.277Z" fill="#ffe15a"/><path d="M256,349.268l-2.056-1.086c-35.012-18.414-58.535-62.534-58.535-92.181s23.521-73.768,58.535-92.181L256,162.734l2.056,1.086c35.013,18.414,58.534,62.534,58.534,92.181s-23.521,73.768-58.534,92.181Zm0-176.517C224.943,190.286,204.236,229.51,204.236,256S224.943,321.716,256,339.249c31.056-17.535,51.763-56.759,51.763-83.249S287.056,190.285,256,172.751Z" fill="#ff4b55"/><path d="M274.758,306.389a2.186,2.186,0,0,1-1.173-.337,39.68,39.68,0,0,1-18.874-34.237V231.173a2.207,2.207,0,1,1,4.414,0v40.642a35.341,35.341,0,0,0,16.8,30.5,2.208,2.208,0,0,1-1.172,4.078Z" fill="#a54b37"/><circle cx="4.828" cy="4.828" r="4.828" transform="translate(252.092 226.482)" fill="#a54b37"/></g></svg>