<svg xmlns="http://www.w3.org/2000/svg" width="512" height="335.455" viewBox="0 0 512 335.455"><g transform="translate(0 -88.272)"><path d="M170.667,423.721H8.828A8.829,8.829,0,0,1,0,414.893V97.1a8.829,8.829,0,0,1,8.828-8.828H170.667Z" fill="#82afff"/><rect width="170.67" height="335.45" transform="translate(170.67 88.277)" fill="#f5f5f5"/><path d="M503.172,423.721H341.333V88.273H503.172A8.829,8.829,0,0,1,512,97.1V414.894A8.827,8.827,0,0,1,503.172,423.721Z" fill="#82afff"/><path d="M253.773,212.107l-5.062,2.532,4.657,1.922Z" fill="#ffc855"/><path d="M256,305.65a51.027,51.027,0,0,1-27.492-94.012l1.31,2.046A48.6,48.6,0,0,0,256,303.221v2.429Z" fill="#73af00"/><path d="M226.8,308.833c1.944.4,4.943-.117,8.023-1.551s5.4-3.4,6.349-5.145c-1.944-.4-4.943.117-8.023,1.551S227.746,307.09,226.8,308.833Z" fill="#73af00"/><path d="M241.172,302.138c.4-1.944-.117-4.943-1.551-8.023s-3.4-5.4-5.145-6.349c-.4,1.944.117,4.943,1.551,8.023S239.428,301.189,241.172,302.138Z" fill="#73af00"/><path d="M216.633,302.594c1.865.678,4.907.61,8.164-.356s5.843-2.572,7.036-4.157c-1.865-.678-4.907-.61-8.164.356S217.826,301.008,216.633,302.594Z" fill="#73af00"/><path d="M231.834,298.079c.678-1.865.61-4.907-.356-8.164s-2.572-5.843-4.157-7.036c-.678,1.865-.61,4.907.356,8.164S230.249,296.887,231.834,298.079Z" fill="#73af00"/><path d="M207.231,294.086c1.713,1,4.717,1.482,8.1,1.116s6.21-1.481,7.668-2.826c-1.713-1-4.717-1.482-8.1-1.116S208.689,292.741,207.231,294.086Z" fill="#73af00"/><path d="M222.995,292.375c1-1.713,1.482-4.717,1.116-8.1s-1.481-6.21-2.826-7.668c-1,1.713-1.482,4.717-1.116,8.1S221.65,290.918,222.995,292.375Z" fill="#73af00"/><path d="M199.458,282.336c1.508,1.289,4.38,2.294,7.77,2.531s6.375-.358,8.047-1.423c-1.508-1.289-4.38-2.294-7.77-2.531S201.131,281.271,199.458,282.336Z" fill="#73af00"/><path d="M215.276,283.444c1.289-1.508,2.294-4.38,2.531-7.77s-.358-6.375-1.423-8.047c-1.289,1.508-2.294,4.38-2.531,7.77S214.21,281.771,215.276,283.444Z" fill="#73af00"/><path d="M194.908,269.395c1.2,1.577,3.8,3.164,7.064,4.109s6.306.991,8.167.3c-1.2-1.577-3.8-3.164-7.064-4.109S196.768,268.7,194.908,269.395Z" fill="#73af00"/><path d="M210.138,273.8c1.577-1.2,3.164-3.8,4.109-7.064s.991-6.306.3-8.167c-1.577,1.2-3.164,3.8-4.109,7.064S209.449,271.944,210.138,273.8Z" fill="#73af00"/><path d="M192.982,254.283c.758,1.834,2.858,4.034,5.77,5.788s5.839,2.58,7.815,2.391c-.758-1.834-2.858-4.034-5.77-5.788S194.957,254.1,192.982,254.283Z" fill="#73af00"/><path d="M206.567,262.462c1.834-.758,4.034-2.858,5.788-5.77s2.58-5.839,2.391-7.815c-1.834.758-4.034,2.858-5.788,5.77S206.378,260.487,206.567,262.462Z" fill="#73af00"/><path d="M194.807,240.016c.356,1.952,1.949,4.544,4.428,6.869s5.17,3.746,7.139,3.977c-.356-1.952-1.949-4.544-4.428-6.869S196.778,240.246,194.807,240.016Z" fill="#73af00"/><path d="M206.376,250.863c1.952-.356,4.544-1.949,6.869-4.428s3.746-5.17,3.977-7.139c-1.952.356-4.544,1.949-6.869,4.428S206.6,248.891,206.376,250.863Z" fill="#73af00"/><path d="M201.975,224.579c-.408,1.941.085,4.943,1.5,8.033s3.368,5.423,5.1,6.382c.408-1.941-.085-4.943-1.5-8.033S203.712,225.536,201.975,224.579Z" fill="#73af00"/><path d="M208.58,238.994c1.941.408,4.943-.085,8.033-1.5s5.423-3.368,6.382-5.1c-1.941-.408-4.943.085-8.033,1.5S209.538,237.257,208.58,238.994Z" fill="#73af00"/><path d="M210.546,213.146c-.915,1.76-1.247,4.785-.714,8.141s1.785,6.13,3.2,7.519c.915-1.76,1.247-4.785.714-8.141S211.961,214.536,210.546,213.146Z" fill="#73af00"/><path d="M213.034,228.807c1.76.915,4.785,1.247,8.141.714s6.13-1.785,7.519-3.2c-1.76-.915-4.785-1.247-8.141-.714S214.423,227.391,213.034,228.807Z" fill="#73af00"/><path d="M218.951,205.189c-1.164,1.607-1.938,4.548-1.9,7.947s.864,6.325,2.059,7.908c1.164-1.607,1.938-4.548,1.9-7.947S220.147,206.771,218.951,205.189Z" fill="#73af00"/><path d="M219.1,221.044c1.607,1.164,4.548,1.938,7.947,1.9s6.325-.864,7.908-2.059c-1.607-1.164-4.548-1.938-7.947-1.9S220.689,219.85,219.1,221.044Z" fill="#73af00"/><path d="M223.183,216.876c1.977.16,4.894-.707,7.78-2.5s4.956-4.024,5.688-5.868c-1.977-.16-4.894.707-7.78,2.5S223.916,215.031,223.183,216.876Z" fill="#73af00"/><path d="M256,305.65v-2.43a48.6,48.6,0,0,0,26.183-89.537l1.31-2.046A51.028,51.028,0,0,1,256,305.65Z" fill="#73af00"/><path d="M285.2,308.833c-1.944.4-4.943-.117-8.023-1.551s-5.4-3.4-6.349-5.145c1.944-.4,4.943.117,8.023,1.551S284.254,307.09,285.2,308.833Z" fill="#73af00"/><path d="M270.828,302.138c-.4-1.944.117-4.943,1.551-8.023s3.4-5.4,5.145-6.349c.4,1.944-.117,4.943-1.551,8.023S272.572,301.189,270.828,302.138Z" fill="#73af00"/><path d="M295.367,302.594c-1.865.678-4.907.61-8.164-.356s-5.843-2.572-7.036-4.157c1.865-.678,4.907-.61,8.164.356S294.174,301.008,295.367,302.594Z" fill="#73af00"/><path d="M280.165,298.079c-.677-1.865-.61-4.907.356-8.164s2.572-5.843,4.157-7.036c.678,1.865.61,4.907-.356,8.164S281.751,296.887,280.165,298.079Z" fill="#73af00"/><path d="M304.769,294.086c-1.713,1-4.717,1.482-8.1,1.116s-6.21-1.481-7.668-2.826c1.713-1,4.717-1.482,8.1-1.116S303.311,292.741,304.769,294.086Z" fill="#73af00"/><path d="M289.005,292.375c-1-1.713-1.482-4.717-1.116-8.1s1.481-6.21,2.826-7.668c1,1.713,1.482,4.717,1.116,8.1S290.35,290.918,289.005,292.375Z" fill="#73af00"/><path d="M312.542,282.336c-1.508,1.289-4.38,2.294-7.77,2.531s-6.374-.358-8.047-1.423c1.508-1.289,4.38-2.294,7.77-2.531S310.869,281.271,312.542,282.336Z" fill="#73af00"/><path d="M296.724,283.444c-1.289-1.508-2.294-4.38-2.531-7.77s.358-6.375,1.423-8.047c1.289,1.508,2.294,4.38,2.531,7.77S297.79,281.771,296.724,283.444Z" fill="#73af00"/><path d="M317.092,269.395c-1.2,1.577-3.8,3.164-7.064,4.109s-6.306.991-8.167.3c1.2-1.577,3.8-3.164,7.064-4.109S315.232,268.7,317.092,269.395Z" fill="#73af00"/><path d="M301.862,273.8c-1.577-1.2-3.164-3.8-4.109-7.064s-.991-6.306-.3-8.167c1.577,1.2,3.164,3.8,4.109,7.064S302.551,271.944,301.862,273.8Z" fill="#73af00"/><path d="M319.018,254.283c-.758,1.834-2.858,4.034-5.77,5.788s-5.839,2.58-7.815,2.391c.758-1.834,2.858-4.034,5.77-5.788S317.043,254.1,319.018,254.283Z" fill="#73af00"/><path d="M305.433,262.462c-1.834-.758-4.034-2.858-5.788-5.77s-2.58-5.839-2.391-7.815c1.834.758,4.034,2.858,5.788,5.77S305.622,260.487,305.433,262.462Z" fill="#73af00"/><path d="M317.193,240.016c-.356,1.952-1.949,4.544-4.428,6.869s-5.17,3.746-7.139,3.977c.356-1.952,1.949-4.544,4.428-6.869S315.222,240.246,317.193,240.016Z" fill="#73af00"/><path d="M305.624,250.863c-1.952-.356-4.544-1.949-6.869-4.428s-3.746-5.17-3.977-7.139c1.952.356,4.544,1.949,6.869,4.428S305.395,248.891,305.624,250.863Z" fill="#73af00"/><path d="M310.025,224.579c.408,1.941-.085,4.943-1.5,8.033s-3.368,5.423-5.105,6.382c-.408-1.941.085-4.943,1.5-8.033S308.288,225.536,310.025,224.579Z" fill="#73af00"/><path d="M303.42,238.994c-1.941.408-4.943-.085-8.033-1.5s-5.423-3.368-6.382-5.1c1.941-.408,4.943.085,8.033,1.5S302.462,237.257,303.42,238.994Z" fill="#73af00"/><path d="M301.454,213.146c.915,1.76,1.247,4.785.714,8.141s-1.785,6.13-3.2,7.519c-.915-1.76-1.247-4.785-.714-8.141S300.039,214.536,301.454,213.146Z" fill="#73af00"/><path d="M298.966,228.807c-1.76.915-4.785,1.247-8.141.714s-6.13-1.785-7.519-3.2c1.76-.915,4.785-1.247,8.141-.714S297.577,227.391,298.966,228.807Z" fill="#73af00"/><path d="M293.049,205.189c1.164,1.607,1.938,4.548,1.9,7.947s-.864,6.325-2.059,7.908c-1.164-1.607-1.938-4.548-1.9-7.947S291.853,206.771,293.049,205.189Z" fill="#73af00"/><path d="M292.895,221.044c-1.607,1.164-4.548,1.938-7.947,1.9s-6.325-.864-7.908-2.059c1.607-1.164,4.548-1.938,7.947-1.9S291.311,219.85,292.895,221.044Z" fill="#73af00"/><path d="M288.817,216.876c-1.977.16-4.894-.707-7.78-2.5s-4.956-4.024-5.688-5.868c1.977-.16,4.894.707,7.78,2.5S288.084,215.031,288.817,216.876Z" fill="#73af00"/><path d="M228.146,294.349l-8.844,8.844-4.361-8.723,13.084-13.084,4.361,4.361-1.26,3.779A12.337,12.337,0,0,1,228.146,294.349Z" fill="#966446"/><path d="M276,229.053l-47.972,47.972a3.084,3.084,0,0,0,0,4.361l2.18,2.18,8.723-8.723,34.889-39.251,4.361-4.361Z" fill="#b9b9b9"/><path d="M239.83,269.581a3.086,3.086,0,0,0-.9,2.18v3.084l34.889-39.251Z" fill="#966446"/><path d="M278.177,231.233l-2.18-2.18-2.181,2.18L276,233.415l2.18,2.181,23.987-28.347Z" fill="#a0a0a0"/><path d="M286.284,294.349l8.844,8.844,4.361-8.723L286.4,281.386l-4.361,4.361,1.26,3.779A12.337,12.337,0,0,0,286.284,294.349Z" fill="#966446"/><path d="M238.433,229.053,286.4,277.025a3.084,3.084,0,0,1,0,4.361l-2.18,2.18-8.723-8.723-34.889-39.251-4.361-4.361Z" fill="#b9b9b9"/><path d="M274.6,269.581a3.086,3.086,0,0,1,.9,2.18v3.084l-34.889-39.251Z" fill="#966446"/><path d="M236.253,231.233l2.18-2.18,2.181,2.18-2.181,2.182-2.18,2.181-23.987-28.347Z" fill="#a0a0a0"/><path d="M239.315,292.534l2.167,1.976a577.71,577.71,0,0,1,43.673-43.529S266.986,262.2,239.315,292.534Z" fill="#b9b9b9"/><path d="M233.184,301.431h0a1.908,1.908,0,0,1-.124-2.694l4.644-5.092a1.908,1.908,0,0,1,2.694-.124h0a1.908,1.908,0,0,1,.124,2.694l-4.644,5.092A1.905,1.905,0,0,1,233.184,301.431Z" fill="#ffe15a"/><path d="M237.556,290.931l-1.258.561c-1.119.557-4.063,2.222-4.57,4.6a3.714,3.714,0,0,0,.972,3.255,1.872,1.872,0,0,1,.361-.6l.585-.641a2.211,2.211,0,0,1-.486-1.7c.318-1.484,2.3-2.809,3.542-3.466l5.564,5.075,1.384-1.517Z" fill="#ffc855"/><path d="M275.093,294.934l-2.167,1.976a577.7,577.7,0,0,0-43.673-43.529S247.422,264.6,275.093,294.934Z" fill="#b9b9b9"/><path d="M281.224,303.832h0a1.908,1.908,0,0,0,.124-2.694l-4.644-5.092a1.908,1.908,0,0,0-2.694-.124h0a1.908,1.908,0,0,0-.124,2.694l4.644,5.092A1.906,1.906,0,0,0,281.224,303.832Z" fill="#ffe15a"/><path d="M276.852,293.329l1.258.561c1.119.557,4.063,2.222,4.57,4.6a3.714,3.714,0,0,1-.972,3.255,1.883,1.883,0,0,0-.361-.6l-.585-.641a2.211,2.211,0,0,0,.486-1.7c-.318-1.484-2.3-2.809-3.542-3.466l-5.564,5.075-1.384-1.517Z" fill="#ffc855"/><path d="M258.161,214.684a3.646,3.646,0,1,0-5.539,1.557c-1.318,10.585,9.119,11.394,13.1,12.874,6.034,2.244,13.6,6.787,13.127,19.484-.462,12.342-8.267,24.251-8.267,24.251l6.479-8.808c-2.369,10.02-7.9,22.784-21.057,37.963a138.943,138.943,0,0,0,16.5-20.146c-5.523,12.993-11.642,25.005-11.642,25.005s10.833-14.072,19.59-38.419C291.065,238.927,268.733,221.193,258.161,214.684Z" fill="#69b469"/><rect width="9.719" height="4.86" transform="translate(239 258.267)" fill="#f4e08f"/><circle cx="4.86" cy="4.86" r="4.86" transform="translate(234.14 258.268)" fill="#ecd077"/><circle cx="4.86" cy="4.86" r="4.86" transform="translate(234.14 226.688)" fill="#ecd077"/><path d="M268.148,236.4a4.86,4.86,0,0,0,0-9.72H238.992a4.86,4.86,0,1,1-4.86,4.86c0,8.157,6.826,18.019,9.027,26.727a17.831,17.831,0,0,1,.692,4.86,4.86,4.86,0,0,1-4.86,4.86h29.156a4.86,4.86,0,0,0,4.86-4.86c0-8.157-6.826-18.019-9.027-26.727Z" fill="#fcf0a8"/><path d="M243.852,231.546a4.86,4.86,0,0,1-4.86,4.86h29.156a4.86,4.86,0,0,0,4.86-4.86Z" fill="#f4e08f"/><path d="M243.852,263.13a4.86,4.86,0,0,1-4.86,4.86h29.156a4.86,4.86,0,0,0,4.86-4.86Z" fill="#f4e08f"/></g></svg>