<svg xmlns="http://www.w3.org/2000/svg" width="512" height="335.448" viewBox="0 0 512 335.448"><g transform="translate(0 -88.276)"><path d="M503.172,423.724H8.828A8.829,8.829,0,0,1,0,414.9V97.1a8.829,8.829,0,0,1,8.828-8.828H503.173A8.829,8.829,0,0,1,512,97.1V414.9A8.83,8.83,0,0,1,503.172,423.724Z" fill="#f5f5f5"/><path d="M512,220.69H291.31V88.276H220.689V220.69H0v70.62H220.689V423.724H291.31V291.31H512Z" fill="#ff4b55"/><path d="M361.93,282.483V229.517l-13.241,13.242H163.31l-13.241-13.242v52.966l13.241-13.242H348.689Z" fill="#ffe15a"/><path d="M229.517,361.931h52.965l-13.241-13.242V163.311l13.241-13.242H229.517l13.241,13.242V348.689Z" fill="#ffe15a"/></g></svg>