<svg xmlns="http://www.w3.org/2000/svg" width="512" height="335.45" viewBox="0 0 512 335.45"><g transform="translate(0 -88.275)"><path d="M512,256H0V97.1a8.829,8.829,0,0,1,8.828-8.828H503.173A8.829,8.829,0,0,1,512,97.1V256Z" fill="#ffe15a"/><path d="M0,256H512V414.9a8.829,8.829,0,0,1-8.828,8.828H8.828A8.829,8.829,0,0,1,0,414.9Z" fill="#73af00"/><path d="M167.724,88.276V423.724H8.828A8.829,8.829,0,0,1,0,414.9V97.1a8.829,8.829,0,0,1,8.828-8.828h158.9Z" fill="#ff4b55"/><path d="M82.2,211.959l-9.731,29.18-30.759.238a1.755,1.755,0,0,0-1.028,3.167l24.744,18.272-9.278,29.326a1.756,1.756,0,0,0,2.694,1.958l25.024-17.886L108.887,294.1a1.755,1.755,0,0,0,2.694-1.957L102.3,262.818l24.744-18.272a1.755,1.755,0,0,0-1.028-3.167l-30.759-.238-9.731-29.18A1.756,1.756,0,0,0,82.2,211.959Z" fill="#464655"/></g></svg>