<svg xmlns="http://www.w3.org/2000/svg" width="512.023" height="335.4" viewBox="0 0 512.023 335.4"><g transform="translate(0 -88.3)"><path d="M503.2,88.3H8.8A8.813,8.813,0,0,0,0,97.1V414.9a8.813,8.813,0,0,0,8.8,8.8H503.1a8.813,8.813,0,0,0,8.8-8.8V97.1A8.665,8.665,0,0,0,503.2,88.3Z" fill="#009e49"/><path d="M6.2,421.8,506.4,261.5c7.5-2.4,7.5-8.6,0-11L6.2,90.2C2.5,91.8,0,94.2,0,97.1V414.9C0,417.7,2.5,420.1,6.2,421.8Z" fill="#fff"/><path d="M5.5,421.8,455.9,261.5c6.8-2.4,6.8-8.6,0-11L5.5,90.2C2.2,91.8,0,94.2,0,97.1V414.9C0,417.7,2.3,420.1,5.5,421.8Z" fill="#ffe15a"/><path d="M2.7,421.2,195.6,262a7.846,7.846,0,0,0,0-12.1L2.7,90.8A8.919,8.919,0,0,0,0,97.1V414.9A8.919,8.919,0,0,0,2.7,421.2Z" fill="#464655"/><path d="M2.3,421.2,165.6,262a8.826,8.826,0,0,0,0-12.1L2.3,90.8A9.524,9.524,0,0,0,0,97.1V414.9A9.524,9.524,0,0,0,2.3,421.2Z" fill="#ff4b55"/></g></svg>