<svg xmlns="http://www.w3.org/2000/svg" width="512" height="335.448" viewBox="0 0 512 335.448"><g transform="translate(0 -88.276)"><path d="M503.172,88.276H256V423.724H503.172A8.829,8.829,0,0,0,512,414.9V97.1A8.828,8.828,0,0,0,503.172,88.276Z" fill="#f5f5f5"/><path d="M8.828,423.724H256V88.276H8.828A8.828,8.828,0,0,0,0,97.1V414.9A8.828,8.828,0,0,0,8.828,423.724Z" fill="#ffe15a"/><path d="M408.267,174.752l-.587,1.173c1.895.97,2.978,2.074,2.978,3.25l-.3-5.831A2.54,2.54,0,0,1,408.267,174.752Z" fill="#ebebeb"/><path d="M362.438,175.925l-.587-1.173a2.552,2.552,0,0,1-2.1-1.408l-.294,5.831C359.459,178,360.543,176.9,362.438,175.925Z" fill="#ebebeb"/><path d="M362.019,169.666a2.56,2.56,0,0,1,2.56,2.56,2.491,2.491,0,0,1-.448,1.362l.674,1.347a42.364,42.364,0,0,1,7.027-1.7l-.288-1.152a2.528,2.528,0,0,1-1.845-2.415,2.56,2.56,0,1,1,4.337,1.833l.342,1.367c1.427-.179,2.922-.32,4.474-.426a6.4,6.4,0,1,1,12.414,0c1.554.1,3.049.247,4.474.426l.342-1.367a2.582,2.582,0,1,1,2.492.582l-.288,1.152a42.189,42.189,0,0,1,7.027,1.7l.674-1.347a2.493,2.493,0,0,1-.448-1.362,2.56,2.56,0,0,1,2.56-2.56,2.519,2.519,0,0,1,2.143,1.244l-.2-3.9c-2.528-2.87-12.746-5.02-24.987-5.02s-22.458,2.148-24.986,5.02l-.2,3.9A2.517,2.517,0,0,1,362.019,169.666Z" fill="#ebebeb"/><path d="M389.056,139.551a5.073,5.073,0,0,0-2.717-8.1v-3.134a2.523,2.523,0,0,0,1.28-2.167,2.56,2.56,0,0,0-5.12,0,2.523,2.523,0,0,0,1.28,2.167v3.134a5.073,5.073,0,0,0-2.717,8.1,13.506,13.506,0,0,1,7.994,0Z" fill="#e6b432"/><path d="M374.332,152.511l-.227-.909a2.528,2.528,0,0,1-1.845-2.415,2.56,2.56,0,1,1,4.337,1.833l.289,1.154a75.765,75.765,0,0,1,8.174-.427,3.84,3.84,0,1,1,3.84-3.84,3.84,3.84,0,0,1-3.84,3.84,75.738,75.738,0,0,1,8.174.427l.289-1.154a2.582,2.582,0,1,1,2.492.582l-.227.909c1.3.2,2.511.434,3.6.7l1.887-3.774c-3.265-5.059-7.484-8.589-12.216-9.885a13.506,13.506,0,0,0-7.994,0c-4.733,1.295-8.951,4.825-12.216,9.885l1.887,3.774C371.82,152.945,373.031,152.712,374.332,152.511Z" fill="#ebebeb"/><path d="M382.5,362.136v-5.59a7.624,7.624,0,0,1,.214-1.734c-.068-.044-.143-.075-.214-.116a5.1,5.1,0,0,0-6.246,7.951,7.33,7.33,0,0,1,6.246-.511Z" fill="#e6b432"/><path d="M387.619,341.9a5.083,5.083,0,0,0-1.126,7.951,7.415,7.415,0,0,1,7.372,0,5.1,5.1,0,0,0-6.246-7.951Z" fill="#e6b432"/><path d="M386.494,349.847a7.743,7.743,0,0,0-3.994,6.7v5.59a7.69,7.69,0,0,0-10.24,7.21v10.24h15.36v-10.24a7.6,7.6,0,0,0-.47-2.56h10.71v-10.24a7.626,7.626,0,0,0-11.366-6.7Z" fill="#ff4b57"/><path d="M387.619,246.9l4.374,4.375,1.5-1.5a2.492,2.492,0,0,1,1.254-.641l21.651-21.656,13.868,13.868,9.05-9.05-3.62-3.62-1.811,1.81-3.62-3.62,1.81-1.81-1.81-1.811,3.62-3.62,1.811,1.81,1.81-1.81,3.62,3.62-1.81,1.811,3.62,3.62,9.05-9.05-13.871-13.871,9.492-9.495a3.847,3.847,0,0,1-1.26-.836l-5.12-5.12a3.824,3.824,0,0,1-.849-1.3l-53.333,53.347a2.508,2.508,0,0,1,.577,1.554V246.9Z" fill="#e6b432"/><path d="M381.747,262.134l-7.241-7.241L352,277.407a5.121,5.121,0,0,0,7.243,7.24l17.592-17.6Z" fill="#e6b432"/><path d="M311.864,288.7a3.895,3.895,0,1,0-2.326,2.326A26.053,26.053,0,0,1,311.864,288.7Z" fill="#d2d2d2"/><path d="M309.538,324.781a3.895,3.895,0,1,0,2.326,2.326A25.924,25.924,0,0,1,309.538,324.781Z" fill="#d2d2d2"/><path d="M347.94,291.031a3.895,3.895,0,1,0-2.326-2.326A25.92,25.92,0,0,1,347.94,291.031Z" fill="#d2d2d2"/><path d="M345.379,328.386a3.825,3.825,0,0,0,6.772,2.453,58.1,58.1,0,0,1-6.727-2.9A3.942,3.942,0,0,0,345.379,328.386Z" fill="#d2d2d2"/><path d="M340.033,324.679a2.538,2.538,0,0,1-.987-1.561,6.359,6.359,0,0,1-7.577-4.834,3.832,3.832,0,0,1-5.46,0,6.394,6.394,0,1,1-7.647-7.647,3.832,3.832,0,0,1,0-5.46,6.394,6.394,0,1,1,7.647-7.647,3.832,3.832,0,0,1,5.46,0,6.394,6.394,0,1,1,7.647,7.647,3.832,3.832,0,0,1,0,5.46,6.377,6.377,0,0,1,3.842,9.863c.024.017.053.018.077.035a37.151,37.151,0,0,0,5.685,3.333,25.464,25.464,0,0,0-.781-32.835,25.92,25.92,0,0,0-2.326-2.326,25.45,25.45,0,0,0-33.75,0,25.92,25.92,0,0,0-2.326,2.326,25.45,25.45,0,0,0,0,33.75,25.92,25.92,0,0,0,2.326,2.326,25.492,25.492,0,0,0,33.1.586A41.34,41.34,0,0,1,340.033,324.679Zm8.5-21.951a19.774,19.774,0,0,1,0,10.356,11.487,11.487,0,0,0-3.679-5.178A11.487,11.487,0,0,0,348.53,302.728Zm-14.612-14.612a11.487,11.487,0,0,0-5.178,3.679,11.493,11.493,0,0,0-5.178-3.679,19.774,19.774,0,0,1,10.356,0Zm-24.969,14.612a11.482,11.482,0,0,0,3.679,5.178,11.493,11.493,0,0,0-3.679,5.178,19.774,19.774,0,0,1,0-10.356ZM323.561,327.7a11.487,11.487,0,0,0,5.178-3.679,11.485,11.485,0,0,0,5.178,3.679,19.774,19.774,0,0,1-10.356,0Z" fill="#e6b432"/><path d="M324.9,307.906a3.838,3.838,0,1,0-3.84,3.84A3.84,3.84,0,0,0,324.9,307.906Z" fill="#f0c814"/><path d="M332.579,307.906a3.838,3.838,0,1,0,3.84-3.84A3.84,3.84,0,0,0,332.579,307.906Z" fill="#f0c814"/><path d="M328.739,304.066a3.838,3.838,0,1,0-3.84-3.84A3.84,3.84,0,0,0,328.739,304.066Z" fill="#f0c814"/><path d="M328.739,311.746a3.838,3.838,0,1,0,3.84,3.84A3.84,3.84,0,0,0,328.739,311.746Z" fill="#f0c814"/><path d="M446.345,195.421a3.8,3.8,0,0,0,5.81-4.859l1.416-5.661a2.438,2.438,0,0,0,.609.122,2.56,2.56,0,1,0-2.56-2.56,2.53,2.53,0,0,0,.122.609l-5.661,1.416a3.785,3.785,0,0,0-4.857.381,3.853,3.853,0,0,0,0,5.431Z" fill="#d2d2d2"/><path d="M382.5,255.646v-11.74a2.508,2.508,0,0,1,.577-1.554L329.743,189a3.834,3.834,0,0,1-.849,1.3l-5.12,5.12a3.8,3.8,0,0,1-1.26.836l9.492,9.495-13.871,13.871,9.05,9.05,3.62-3.62-1.81-1.811,3.62-3.62,1.81,1.81,1.811-1.81,3.62,3.62-1.81,1.811,1.81,1.81-3.62,3.62-1.811-1.81-3.62,3.62,9.05,9.05,13.868-13.868,21.651,21.656a2.5,2.5,0,0,1,1.254.641Z" fill="#d2d2d2"/><path d="M388.372,262.134l4.914,4.915,17.592,17.6a5.121,5.121,0,0,0,7.243-7.24l-22.507-22.514Z" fill="#d2d2d2"/><path d="M387.619,254.146v1.5l4.374-4.374-4.374-4.375Z" fill="#d2d2d2"/><path d="M460.58,291.031a3.895,3.895,0,1,0-2.326-2.326A25.912,25.912,0,0,1,460.58,291.031Z" fill="#d2d2d2"/><path d="M461.859,324.546a3.8,3.8,0,0,0-1.279.235,25.92,25.92,0,0,1-2.326,2.326,3.831,3.831,0,1,0,3.6-2.561Z" fill="#d2d2d2"/><path d="M424.5,288.7a3.895,3.895,0,1,0-2.326,2.326A26.053,26.053,0,0,1,424.5,288.7Z" fill="#d2d2d2"/><path d="M420.9,332.226a3.84,3.84,0,0,0,3.84-3.84,3.942,3.942,0,0,0-.045-.45,57.841,57.841,0,0,1-6.726,2.9A3.813,3.813,0,0,0,420.9,332.226Z" fill="#d2d2d2"/><path d="M460.58,324.781a25.45,25.45,0,0,0,0-33.75,25.92,25.92,0,0,0-2.326-2.326,25.45,25.45,0,0,0-33.75,0,25.92,25.92,0,0,0-2.326,2.326,25.5,25.5,0,0,0-2.539,30.327,25.806,25.806,0,0,0,1.758,2.509,37.193,37.193,0,0,0,5.681-3.33c.025-.019.056-.02.082-.038A6.377,6.377,0,0,1,431,310.636a3.832,3.832,0,0,1,0-5.46,6.394,6.394,0,1,1,7.647-7.647,3.832,3.832,0,0,1,5.46,0,6.394,6.394,0,1,1,7.647,7.647,3.832,3.832,0,0,1,0,5.46,6.394,6.394,0,1,1-7.647,7.647,3.832,3.832,0,0,1-5.46,0,6.364,6.364,0,0,1-7.581,4.834,2.531,2.531,0,0,1-.989,1.565,40.937,40.937,0,0,1-4.921,3.012,25.492,25.492,0,0,0,33.1-.586A25.811,25.811,0,0,0,460.58,324.781Zm-38.991-11.7a19.774,19.774,0,0,1,0-10.356,11.482,11.482,0,0,0,3.679,5.178A11.482,11.482,0,0,0,421.589,313.085Zm19.79-21.29a11.493,11.493,0,0,0-5.178-3.679,19.774,19.774,0,0,1,10.356,0A11.492,11.492,0,0,0,441.379,291.8Zm19.791,10.933a19.774,19.774,0,0,1,0,10.356,11.487,11.487,0,0,0-3.679-5.178A11.488,11.488,0,0,0,461.17,302.728ZM436.2,327.7a11.487,11.487,0,0,0,5.178-3.679,11.485,11.485,0,0,0,5.178,3.679,19.774,19.774,0,0,1-10.356,0Z" fill="#e6b432"/><path d="M445.219,307.906a3.838,3.838,0,1,0,3.84-3.84A3.84,3.84,0,0,0,445.219,307.906Z" fill="#f0c814"/><path d="M437.539,307.906a3.838,3.838,0,1,0-3.84,3.84A3.84,3.84,0,0,0,437.539,307.906Z" fill="#f0c814"/><path d="M441.379,304.066a3.838,3.838,0,1,0-3.84-3.84A3.84,3.84,0,0,0,441.379,304.066Z" fill="#f0c814"/><path d="M441.379,311.746a3.838,3.838,0,1,0,3.84,3.84A3.84,3.84,0,0,0,441.379,311.746Z" fill="#f0c814"/><path d="M328.894,190.3a3.8,3.8,0,0,0-4.857-5.812l-5.661-1.416a2.439,2.439,0,0,0,.122-.609,2.56,2.56,0,1,0-2.56,2.56,2.532,2.532,0,0,0,.609-.122l1.416,5.661a3.785,3.785,0,0,0,.381,4.857,3.844,3.844,0,0,0,5.429,0Z" fill="#f7b518"/><path d="M430.08,324.681a2.551,2.551,0,0,0-2.919-4.183c-.026.018-.056.019-.082.038a37.142,37.142,0,0,1-5.681,3.33c-7.506,3.611-17.667,6.019-28.658,6.8V294.706c11.172,15.257,22.054,23.457,26.9,26.652a25.4,25.4,0,0,1-3.447-9,119.663,119.663,0,0,1-23.453-26.718V268.241c.181-.4.366-.788.546-1.192l-4.914-4.915,7.241-7.241,1.5-1.5a2.559,2.559,0,0,0,0-3.62,2.694,2.694,0,0,0-3.621,0l-1.5,1.5-4.374,4.374v-11.74a2.561,2.561,0,0,0-5.12,0v11.74l-5.87-5.87a2.492,2.492,0,0,0-1.254-.641,2.52,2.52,0,0,0-2.367.641,2.559,2.559,0,0,0,0,3.62l1.5,1.5,7.241,7.241-4.914,4.915c.18.4.365.792.546,1.192v17.374a120.208,120.208,0,0,1-23.449,26.714,25.38,25.38,0,0,1-3.451,9.027c4.846-3.194,15.727-11.394,26.9-26.652v35.958c-10.991-.778-21.152-3.187-28.659-6.8a37.231,37.231,0,0,1-5.685-3.333c-.024-.018-.053-.019-.077-.035a2.554,2.554,0,0,0-3.5.605,2.611,2.611,0,0,0,.572,3.575,40.974,40.974,0,0,0,4.926,3.015c.155.082.309.162.466.243a57.618,57.618,0,0,0,6.727,2.9,93.253,93.253,0,0,0,25.228,4.966V354.7a4.97,4.97,0,0,1,5.12,0V336.028c.851.018,1.7.036,2.56.036s1.709-.019,2.56-.036V341.9a4.97,4.97,0,0,1,5.12,0V335.8a93.245,93.245,0,0,0,25.229-4.966,57.841,57.841,0,0,0,6.726-2.9c.157-.081.311-.161.466-.243A40.554,40.554,0,0,0,430.08,324.681Zm-45.021,6.265c-.856,0-1.709-.018-2.56-.038V287.217c.858-1.347,1.711-2.749,2.56-4.185.849,1.437,1.7,2.838,2.56,4.185v43.691C386.769,330.929,385.916,330.946,385.059,330.946Z" fill="#ff4b55"/><path d="M385.059,184.457c14.138,0,25.6,2.42,25.6,5.4V179.175c0-1.174-1.084-2.28-2.978-3.25l.587-1.173a2.552,2.552,0,0,0,2.1-1.408,2.276,2.276,0,0,0-.122-2.434,2.521,2.521,0,0,0-2.143-1.244,2.56,2.56,0,0,0-2.56,2.56,2.491,2.491,0,0,0,.448,1.362l-.674,1.347a42.364,42.364,0,0,0-7.027-1.7l.288-1.152a2.528,2.528,0,0,0,1.845-2.415,2.56,2.56,0,1,0-4.337,1.833l-.342,1.367c-1.427-.179-2.922-.32-4.474-.426a6.4,6.4,0,1,0-12.414,0c-1.554.1-3.049.247-4.474.426l-.342-1.367a2.582,2.582,0,1,0-2.492.582l.288,1.152a42.189,42.189,0,0,0-7.027,1.7l-.674-1.347a2.493,2.493,0,0,0,.448-1.362,2.56,2.56,0,0,0-2.56-2.56,2.519,2.519,0,0,0-2.143,1.244,2.489,2.489,0,0,0-.417,1.316,2.444,2.444,0,0,0,.294,1.118,2.55,2.55,0,0,0,2.1,1.408l.587,1.173c-1.895.97-2.978,2.074-2.978,3.25v10.687C359.459,186.877,370.921,184.457,385.059,184.457Z" fill="#e6b432"/><path d="M359.459,190.146l.032-.013c-.008-.086-.032-.2-.032-.271Z" fill="#e6b432"/><path d="M410.659,190.146v-.285c0,.07-.024.186-.032.271Z" fill="#e6b432"/><path d="M364.579,195.266a2.491,2.491,0,0,1-.448,1.362l.97,1.941a28.121,28.121,0,0,1,6.775-2.114l-.333-1.333a2.528,2.528,0,0,1-1.845-2.415,2.56,2.56,0,1,1,4.337,1.833l.37,1.476a70.043,70.043,0,0,1,8.094-.706v-2.319a3.84,3.84,0,1,1,5.12,0v2.319a70.513,70.513,0,0,1,8.094.706l.37-1.476a2.582,2.582,0,1,1,2.492.582l-.333,1.333a28.2,28.2,0,0,1,6.775,2.114l.97-1.941a2.493,2.493,0,0,1-.448-1.362,2.56,2.56,0,0,1,2.56-2.56,2.51,2.51,0,0,1,1.592.6,12.669,12.669,0,0,0,.936-3.176c.008-.086.032-.2.032-.271,0-2.985-11.462-5.4-25.6-5.4s-25.6,2.42-25.6,5.4c0,.07.024.186.032.271a12.612,12.612,0,0,0,.935,3.176,2.51,2.51,0,0,1,1.592-.6A2.561,2.561,0,0,1,364.579,195.266Z" fill="#ebebeb"/><path d="M359.459,195.266a2.542,2.542,0,0,0,2.391,2.526L362.955,200a2.647,2.647,0,0,0-.937,1.847,2.885,2.885,0,0,0,1.23,2.11l3.89,6.668c0-2.828,8.023-5.12,17.92-5.12s17.92,2.292,17.92,5.12l3.89-6.668a2.879,2.879,0,0,0,1.23-2.11,2.643,2.643,0,0,0-.937-1.847l1.105-2.209a2.543,2.543,0,0,0,2.392-2.526,2.66,2.66,0,0,0-2.56-2.56,2.56,2.56,0,0,0-2.56,2.56,2.491,2.491,0,0,0,.448,1.362l-.97,1.941a28.121,28.121,0,0,0-6.775-2.114l.333-1.333a2.528,2.528,0,0,0,1.845-2.415,2.56,2.56,0,1,0-4.337,1.833l-.37,1.476a70.043,70.043,0,0,0-8.094-.706v-2.319a3.84,3.84,0,1,0-5.12,0v2.319a70.513,70.513,0,0,0-8.094.706l-.37-1.476a2.582,2.582,0,1,0-2.492.582l.333,1.333a28.2,28.2,0,0,0-6.775,2.114l-.97-1.941a2.493,2.493,0,0,0,.448-1.362,2.56,2.56,0,0,0-2.56-2.56,2.658,2.658,0,0,0-2.559,2.56Z" fill="#e6b432"/><ellipse cx="17.92" cy="5.12" rx="17.92" ry="5.12" transform="translate(367.14 205.51)" fill="#ebebeb"/><path d="M410.046,167.006l-4.507-10.14c0-.64-.491-1.25-1.35-1.815l3.639-7.279a2.56,2.56,0,1,0-4.58-2.29l-1.977,3.955-1.887,3.774c-1.086-.266-2.3-.5-3.6-.7l.227-.909a2.528,2.528,0,0,0,1.845-2.415,2.56,2.56,0,1,0-4.337,1.833l-.289,1.154a78.45,78.45,0,0,0-16.348,0l-.289-1.154a2.582,2.582,0,1,0-2.492.582l.227.909c-1.3.2-2.511.434-3.6.7l-1.887-3.774-1.977-3.955a2.56,2.56,0,1,0-4.58,2.29l3.639,7.279c-.858.565-1.35,1.175-1.35,1.815l-4.507,10.14c2.528-2.87,12.746-5.02,24.987-5.02S407.518,164.135,410.046,167.006Z" fill="#e6b432"/><circle cx="3.84" cy="3.84" r="3.84" transform="translate(381.22 144.07)" fill="#e6b432"/></g></svg>