<svg xmlns="http://www.w3.org/2000/svg" width="512" height="335.449" viewBox="0 0 512 335.449"><g transform="translate(0 -88.276)"><path d="M512,200.093H0V97.1a8.829,8.829,0,0,1,8.828-8.828H503.173A8.829,8.829,0,0,1,512,97.1V200.093Z" fill="#4173cd"/><path d="M503.172,423.725H8.828A8.829,8.829,0,0,1,0,414.9V311.909H512V414.9A8.828,8.828,0,0,1,503.172,423.725Z" fill="#4173cd"/><rect width="512" height="111.81" transform="translate(0 200.091)" fill="#f5f5f5"/><path d="M257.277,241.579l3.159,9.473,9.985.077a1.346,1.346,0,0,1,.789,2.428l-8.033,5.932,3.012,9.521a1.346,1.346,0,0,1-2.066,1.5L256,264.7l-8.124,5.806a1.346,1.346,0,0,1-2.066-1.5l3.012-9.521-8.033-5.932a1.346,1.346,0,0,1,.789-2.428l9.985-.077,3.159-9.473A1.347,1.347,0,0,1,257.277,241.579Z" fill="#4173cd"/><path d="M167.1,267l3.159,9.473,9.985.077a1.346,1.346,0,0,1,.789,2.428L173,284.912l3.012,9.521a1.346,1.346,0,0,1-2.066,1.5l-8.124-5.806-8.124,5.806a1.346,1.346,0,0,1-2.066-1.5l3.012-9.521-8.033-5.932a1.346,1.346,0,0,1,.789-2.428l9.985-.077L164.548,267A1.348,1.348,0,0,1,167.1,267Z" fill="#4173cd"/><path d="M167.1,216.155l3.159,9.473,9.985.077a1.346,1.346,0,0,1,.789,2.428L173,234.065l3.012,9.521a1.346,1.346,0,0,1-2.066,1.5l-8.124-5.806-8.124,5.806a1.346,1.346,0,0,1-2.066-1.5l3.012-9.521-8.033-5.932a1.346,1.346,0,0,1,.789-2.428l9.985-.077,3.159-9.473A1.348,1.348,0,0,1,167.1,216.155Z" fill="#4173cd"/><path d="M347.449,267l3.159,9.473,9.985.077a1.346,1.346,0,0,1,.789,2.428l-8.033,5.932,3.012,9.521a1.346,1.346,0,0,1-2.066,1.5l-8.124-5.806-8.124,5.806a1.346,1.346,0,0,1-2.066-1.5l3.012-9.521-8.033-5.932a1.345,1.345,0,0,1,.789-2.428l9.985-.077L344.893,267A1.348,1.348,0,0,1,347.449,267Z" fill="#4173cd"/><path d="M347.449,216.155l3.159,9.473,9.985.077a1.346,1.346,0,0,1,.789,2.428l-8.033,5.932,3.012,9.521a1.346,1.346,0,0,1-2.066,1.5l-8.124-5.806-8.124,5.806a1.346,1.346,0,0,1-2.066-1.5l3.012-9.521-8.033-5.932a1.345,1.345,0,0,1,.789-2.428l9.985-.077,3.159-9.473A1.348,1.348,0,0,1,347.449,216.155Z" fill="#4173cd"/></g></svg>