<svg xmlns="http://www.w3.org/2000/svg" width="512" height="335.449" viewBox="0 0 512 335.449"><g transform="translate(0 -88.276)"><path d="M503.172,423.725H8.828A8.829,8.829,0,0,1,0,414.9V97.1a8.829,8.829,0,0,1,8.828-8.828H503.173A8.829,8.829,0,0,1,512,97.1V414.9A8.83,8.83,0,0,1,503.172,423.725Z" fill="#ff4b55"/><path d="M224.477,268.923c-11.128.115-23.624-3.449-34.573-15.518a2.011,2.011,0,0,1,.209-2.87l0,0a2.015,2.015,0,0,1,2.8.211c16.69,18.327,37.376,15.118,49.735,10.69-4.566.2-10.3-.14-13.993-2.565-15.415-10.133-8.433-20.913-18.671-33.944-10.173-12.948-19.327-12.631-33.741-10.446-14.27,2.162-18.816-8.305-20.231-14.114a1.088,1.088,0,0,0-2.077-.1c-17.786,48.054,35.694,107.514,90.6,64.761A60.411,60.411,0,0,1,224.477,268.923ZM184.41,252.616a.95.95,0,0,1-1.8-.05l-2.048-6.749-7.049-.247a.95.95,0,0,1-.51-1.729l5.786-4.033-1.943-6.781a.951.951,0,0,1,1.487-1.02l5.624,4.256,5.848-3.944a.95.95,0,0,1,1.429,1.1l-2.31,6.664,5.558,4.343a.95.95,0,0,1-.6,1.7l-7.052-.138Z" fill="#f5f5f5"/><path d="M263.869,237c8.836-6.765,20.972-11.407,36.972-8.317A2.011,2.011,0,0,1,302.4,231.1v0a2.014,2.014,0,0,1-2.365,1.508c-24.346-4.657-38.976,10.317-46.209,21.272,3.532-2.9,8.329-6.067,12.736-6.338,18.412-1.137,19.289,11.678,35.3,15.965,15.9,4.259,23.04-1.483,33.266-11.876,10.122-10.289,20.038-4.639,24.653-.839a1.087,1.087,0,0,0,1.723-1.163c-14.586-49.12-93.042-64.627-111.339,2.513A60.429,60.429,0,0,1,263.869,237Zm41.842-10.979a.951.951,0,0,1,1.472-1.042l5.686,4.172,5.789-4.03a.951.951,0,0,1,1.446,1.078l-2.211,6.7,5.621,4.26a.95.95,0,0,1-.578,1.708l-7.053-.033-2.314,6.663a.95.95,0,0,1-1.8-.022l-2.148-6.718-7.052-.142a.95.95,0,0,1-.535-1.721l5.726-4.119Z" fill="#f5f5f5"/><path d="M234.4,241.627c-4.34-10.248-5.8-23.159,1.2-37.877a2.01,2.01,0,0,1,2.733-.9l0,0a2.017,2.017,0,0,1,.87,2.667c-10.6,22.408.241,40.318,9.038,50.061-1.926-4.146-3.79-9.581-2.952-13.917,3.505-18.111,16.131-15.756,24.286-30.184,8.1-14.335,4.327-22.679-3.178-35.178-7.43-12.374.521-20.561,5.355-24.079a1.088,1.088,0,0,0-.7-1.959c-51.207,1.837-85.845,73.92-25.416,108.428A60.441,60.441,0,0,1,234.4,241.627Zm-.165-43.258a.95.95,0,0,1-.64-1.685l5.462-4.462-2.454-6.613a.95.95,0,0,1,1.4-1.13l5.932,3.816,5.53-4.377a.95.95,0,0,1,1.508.988l-1.8,6.82,5.871,3.907a.95.95,0,0,1-.472,1.74l-7.042.4-1.9,6.792a.95.95,0,0,1-1.8.088l-2.556-6.573Z" fill="#f5f5f5"/><path d="M274.3,264.88c9.2,6.264,17.418,16.328,19.508,32.489a2.011,2.011,0,0,1-1.811,2.237h-.006a2.015,2.015,0,0,1-2.175-1.771c-3.225-24.577-22.037-33.763-34.71-37.19,3.863,2.442,8.375,6,10.018,10.1,6.862,17.123-5.028,21.982-4.071,38.527.951,16.438,8.646,21.408,21.724,27.852,12.947,6.379,10.7,17.566,8.538,23.143a1.087,1.087,0,0,0,1.645,1.27c42.052-29.276,32.134-108.631-37.355-104.915A60.364,60.364,0,0,1,274.3,264.88Zm23.567,36.276a.95.95,0,0,1,1.451,1.07l-2.175,6.709,5.644,4.231a.951.951,0,0,1-.569,1.711l-7.053,0-2.279,6.675a.95.95,0,0,1-1.8-.013l-2.184-6.707-7.052-.105a.95.95,0,0,1-.545-1.719l5.7-4.15-2.08-6.74a.95.95,0,0,1,1.466-1.049l5.709,4.142Z" fill="#f5f5f5"/><path d="M251.292,284.823c-3.168,10.668-10.254,21.56-25.013,28.469a2.01,2.01,0,0,1-2.681-1.044l0,0a2.016,2.016,0,0,1,1.025-2.611c22.43-10.551,25.457-31.265,24.865-44.38-1.151,4.424-3.169,9.8-6.573,12.617-14.223,11.747-22.47,1.9-37.939,7.846-15.37,5.908-17.763,14.75-19.922,29.169-2.136,14.274-13.479,15.535-19.447,15.176a1.088,1.088,0,0,0-.71,1.954c40.684,31.15,113.258-2.444,88.574-67.507A60.323,60.323,0,0,1,251.292,284.823Zm-27.386,33.486a.95.95,0,0,1-.578,1.708l-7.052-.031-2.312,6.664a.95.95,0,0,1-1.8-.022l-2.151-6.718-7.052-.14a.95.95,0,0,1-.536-1.721l5.724-4.121-2.046-6.75a.95.95,0,0,1,1.471-1.042l5.688,4.17,5.788-4.032a.951.951,0,0,1,1.446,1.078l-2.208,6.7Z" fill="#f5f5f5"/></g></svg>