<svg xmlns="http://www.w3.org/2000/svg" width="512" height="335.449" viewBox="0 0 512 335.449"><g transform="translate(0 -88.276)"><path d="M503.172,423.725H8.828A8.829,8.829,0,0,1,0,414.9V97.1a8.829,8.829,0,0,1,8.828-8.828H503.173A8.829,8.829,0,0,1,512,97.1V414.9A8.83,8.83,0,0,1,503.172,423.725Z" fill="#41479b"/><path d="M512,211.863H229.517V88.277H141.241V211.863H0v88.276H141.241V423.725h88.276V300.139H512Z" fill="#f5f5f5"/><path d="M512,229.518H211.862V88.277H158.9V229.518H0v52.966H158.9V423.725h52.965V282.484H512Z" fill="#ff4b55"/></g></svg>