<svg xmlns="http://www.w3.org/2000/svg" width="512" height="335.449" viewBox="0 0 512 335.449"><g transform="translate(0 -88.276)"><path d="M512,200.093H0V97.1a8.829,8.829,0,0,1,8.828-8.828H503.173A8.829,8.829,0,0,1,512,97.1V200.093Z" fill="#fab446"/><path d="M503.172,423.725H8.828A8.829,8.829,0,0,1,0,414.9V311.909H512V414.9A8.828,8.828,0,0,1,503.172,423.725Z" fill="#73af00"/><rect width="512" height="111.81" transform="translate(0 200.091)" fill="#f5f5f5"/><path d="M256,303.449A47.448,47.448,0,1,1,303.448,256,47.5,47.5,0,0,1,256,303.449Zm0-86.069A38.621,38.621,0,1,0,294.621,256,38.662,38.662,0,0,0,256,217.38Z" fill="#41479b"/><circle cx="5.379" cy="5.379" r="5.379" transform="translate(250.621 250.622)" fill="#41479b"/><path d="M256,256.808l-13.67,1.38-29.364-1.38v-1.614l29.364-1.38,13.67,1.38Z" fill="#41479b"/><path d="M256,256.808l13.67,1.38,29.364-1.38v-1.614l-29.364-1.38L256,255.194Z" fill="#41479b"/><path d="M255.193,256l-1.38-13.67,1.38-29.364h1.614l1.38,29.364L256.807,256Z" fill="#41479b"/><path d="M255.193,256l-1.38,13.67,1.38,29.364h1.614l1.38-29.364L256.807,256Z" fill="#41479b"/><path d="M255.43,256.571l-10.642-8.689L225,226.142,226.141,225l21.74,19.788,8.689,10.642Z" fill="#41479b"/><path d="M255.43,256.571l8.689,10.642L285.859,287,287,285.86l-19.788-21.74-10.642-8.689Z" fill="#41479b"/><path d="M255.43,255.431l8.689-10.642L285.859,225,287,226.142l-19.788,21.74-10.642,8.689Z" fill="#41479b"/><path d="M255.43,255.431l-10.642,8.689L225,285.86,226.141,287l21.74-19.788,8.689-10.642Z" fill="#41479b"/><path d="M256.309,256.747l-12.1,6.506-27.656,9.962-.618-1.491,26.6-12.512,13.157-3.957Z" fill="#41479b"/><path d="M256.309,256.747l13.157-3.957,26.6-12.512-.618-1.491-27.656,9.962-12.1,6.506Z" fill="#41479b"/><path d="M255.254,256.31l-6.506-12.1-9.962-27.656,1.491-.618,12.512,26.6,3.957,13.157Z" fill="#41479b"/><path d="M255.254,256.31l3.957,13.157,12.512,26.6,1.491-.618-9.962-27.656-6.506-12.1Z" fill="#41479b"/><path d="M255.691,256.747l-13.157-3.957-26.6-12.512.618-1.491,27.656,9.962,12.1,6.506Z" fill="#41479b"/><path d="M255.691,256.747l12.1,6.506,27.656,9.962.618-1.491-26.6-12.512-13.157-3.957Z" fill="#41479b"/><path d="M255.254,255.692l3.957-13.157,12.512-26.6,1.491.618-9.962,27.656-6.506,12.1Z" fill="#41479b"/><path d="M255.254,255.692l-6.506,12.1-9.962,27.656,1.491.618,12.512-26.6,3.957-13.157Z" fill="#41479b"/><circle cx="7.256" cy="7.256" r="7.256" transform="translate(248.744 248.745)" fill="#f5f5f5"/><circle cx="4.351" cy="4.351" r="4.351" transform="translate(251.649 251.65)" fill="#41479b"/></g></svg>