<svg xmlns="http://www.w3.org/2000/svg" width="512" height="335.449" viewBox="0 0 512 335.449"><g transform="translate(0 -88.276)"><path d="M512,200.092H0V97.1a8.829,8.829,0,0,1,8.828-8.828H503.173A8.829,8.829,0,0,1,512,97.1V200.092Z" fill="#73af00"/><path d="M503.172,423.725H8.828A8.829,8.829,0,0,1,0,414.9V311.909H512V414.9A8.829,8.829,0,0,1,503.172,423.725Z" fill="#ff4b55"/><rect width="512" height="111.81" transform="translate(0 200.088)" fill="#f5f5f5"/><path d="M1.389,194.176h.077a1.389,1.389,0,0,0,1.389-1.389v-3.008a1.389,1.389,0,0,1,1.389-1.389h5.827a1.389,1.389,0,0,1,1.389,1.389v3.008a1.389,1.389,0,0,0,1.389,1.389h11.5a1.389,1.389,0,0,0,1.389-1.389v-5.938a1.389,1.389,0,0,0-1.389-1.389h-5.79a1.389,1.389,0,0,0-1.389,1.389V187a1.389,1.389,0,0,0,1.389,1.389H21.5a1.389,1.389,0,0,1,1.389,1.389v.151a1.389,1.389,0,0,1-1.389,1.389H15.7a1.389,1.389,0,0,1-1.389-1.389v-3.081a1.389,1.389,0,0,0-1.389-1.389H1.389A1.389,1.389,0,0,0,0,186.849v5.938A1.389,1.389,0,0,0,1.389,194.176Zm5.748,0h.079a1.389,1.389,0,0,0,1.389-1.389v-.079a1.389,1.389,0,0,0-1.389-1.389H7.137a1.389,1.389,0,0,0-1.389,1.389v.079A1.39,1.39,0,0,0,7.137,194.176ZM1.389,182.531H35.812a1.389,1.389,0,0,0,1.389-1.389v-.152a1.389,1.389,0,0,0-1.389-1.389H1.389A1.389,1.389,0,0,0,0,180.99v.152A1.388,1.388,0,0,0,1.389,182.531Zm34.422,11.645h-5.79a1.389,1.389,0,0,1-1.389-1.389v-5.938a1.389,1.389,0,0,1,1.389-1.389h8.648a1.389,1.389,0,0,0,1.389-1.389V180.99a1.389,1.389,0,0,1,1.389-1.389h.077a1.389,1.389,0,0,1,1.389,1.389v8.94a1.389,1.389,0,0,0,1.389,1.389h.079a1.389,1.389,0,0,0,1.389-1.389v-8.94a1.389,1.389,0,0,1,1.389-1.389h.077a1.389,1.389,0,0,1,1.389,1.389v8.94a1.389,1.389,0,0,0,1.389,1.389h.115a1.389,1.389,0,0,0,1.389-1.389v-8.94a1.389,1.389,0,0,1,1.389-1.389h.042a1.389,1.389,0,0,1,1.389,1.389v11.8a1.389,1.389,0,0,1-1.389,1.389h-11.5a1.389,1.389,0,0,1-1.389-1.389v-3.008a1.389,1.389,0,0,0-1.389-1.389h-5.79a1.389,1.389,0,0,0-1.389,1.389v.151a1.389,1.389,0,0,0,1.389,1.389h2.933a1.389,1.389,0,0,1,1.389,1.389v.079A1.391,1.391,0,0,1,35.811,194.176Z" fill="#f5f5f5"/><path d="M58.618,194.176h.115a1.389,1.389,0,0,0,1.389-1.389v-3.008a1.389,1.389,0,0,1,1.389-1.389h5.754a1.389,1.389,0,0,1,1.389,1.389v3.008a1.389,1.389,0,0,0,1.389,1.389h11.5a1.389,1.389,0,0,0,1.389-1.389v-5.938a1.389,1.389,0,0,0-1.389-1.389h-5.79a1.389,1.389,0,0,0-1.389,1.389V187a1.389,1.389,0,0,0,1.389,1.389H78.69a1.389,1.389,0,0,1,1.389,1.389v.151a1.389,1.389,0,0,1-1.389,1.389H72.9a1.389,1.389,0,0,1-1.389-1.389v-3.081a1.389,1.389,0,0,0-1.389-1.389h-11.5a1.389,1.389,0,0,0-1.389,1.389v5.938A1.391,1.391,0,0,0,58.618,194.176Zm5.713,0h.077a1.389,1.389,0,0,0,1.389-1.389v-.079a1.389,1.389,0,0,0-1.389-1.389h-.077a1.389,1.389,0,0,0-1.389,1.389v.079A1.39,1.39,0,0,0,64.331,194.176Zm-5.713-11.645H93.006a1.389,1.389,0,0,0,1.389-1.389v-.152a1.389,1.389,0,0,0-1.389-1.389H58.618a1.389,1.389,0,0,0-1.389,1.389v.152A1.39,1.39,0,0,0,58.618,182.531Zm34.388,11.645H87.179a1.389,1.389,0,0,1-1.389-1.389v-5.938a1.389,1.389,0,0,1,1.389-1.389h8.648a1.389,1.389,0,0,0,1.389-1.389V180.99A1.389,1.389,0,0,1,98.6,179.6h.115a1.389,1.389,0,0,1,1.389,1.389v8.94a1.389,1.389,0,0,0,1.389,1.389h.115A1.389,1.389,0,0,0,103,189.93v-8.94a1.389,1.389,0,0,1,1.389-1.389h.042a1.389,1.389,0,0,1,1.389,1.389v8.94a1.389,1.389,0,0,0,1.389,1.389h.115a1.389,1.389,0,0,0,1.389-1.389v-8.94A1.389,1.389,0,0,1,110.1,179.6h.077a1.389,1.389,0,0,1,1.389,1.389v11.8a1.389,1.389,0,0,1-1.389,1.389H98.607a1.389,1.389,0,0,1-1.389-1.389v-3.008a1.389,1.389,0,0,0-1.389-1.389H90.075a1.389,1.389,0,0,0-1.389,1.389v.151a1.389,1.389,0,0,0,1.389,1.389H93.01a1.389,1.389,0,0,1,1.389,1.389v.079A1.4,1.4,0,0,1,93.006,194.176Z" fill="#f5f5f5"/><path d="M115.814,194.176h.077a1.389,1.389,0,0,0,1.389-1.389v-3.008a1.389,1.389,0,0,1,1.389-1.389h5.792a1.389,1.389,0,0,1,1.389,1.389v3.008a1.389,1.389,0,0,0,1.389,1.389h11.538a1.389,1.389,0,0,0,1.389-1.389v-5.938a1.389,1.389,0,0,0-1.389-1.389h-5.79a1.389,1.389,0,0,0-1.389,1.389V187a1.389,1.389,0,0,0,1.389,1.389h2.935a1.389,1.389,0,0,1,1.389,1.389v.151a1.389,1.389,0,0,1-1.389,1.389H130.1a1.389,1.389,0,0,1-1.389-1.389v-3.081a1.389,1.389,0,0,0-1.389-1.389h-11.5a1.389,1.389,0,0,0-1.389,1.389v5.938A1.388,1.388,0,0,0,115.814,194.176Zm5.712,0h.077a1.389,1.389,0,0,0,1.389-1.389v-.079a1.389,1.389,0,0,0-1.389-1.389h-.077a1.389,1.389,0,0,0-1.389,1.389v.079A1.39,1.39,0,0,0,121.526,194.176Zm-5.712-11.645h34.424a1.389,1.389,0,0,0,1.389-1.389v-.152a1.389,1.389,0,0,0-1.389-1.389H115.814a1.389,1.389,0,0,0-1.389,1.389v.152A1.388,1.388,0,0,0,115.814,182.531Zm34.424,11.645h-5.827a1.389,1.389,0,0,1-1.389-1.389v-5.938a1.389,1.389,0,0,1,1.389-1.389h8.646a1.389,1.389,0,0,0,1.389-1.389V180.99a1.389,1.389,0,0,1,1.389-1.389h.079a1.389,1.389,0,0,1,1.389,1.389v8.94a1.389,1.389,0,0,0,1.389,1.389h.115a1.389,1.389,0,0,0,1.389-1.389v-8.94a1.389,1.389,0,0,1,1.389-1.389h.115a1.389,1.389,0,0,1,1.389,1.389v8.94a1.389,1.389,0,0,0,1.389,1.389h.042a1.389,1.389,0,0,0,1.389-1.389v-8.94A1.389,1.389,0,0,1,167.3,179.6h.077a1.389,1.389,0,0,1,1.389,1.389v11.8a1.389,1.389,0,0,1-1.389,1.389h-11.54a1.389,1.389,0,0,1-1.389-1.389v-3.008a1.389,1.389,0,0,0-1.389-1.389h-5.79a1.389,1.389,0,0,0-1.389,1.389v.151a1.389,1.389,0,0,0,1.389,1.389h2.973a1.389,1.389,0,0,1,1.389,1.389v.079A1.393,1.393,0,0,1,150.238,194.176Z" fill="#f5f5f5"/><path d="M173.007,194.176h.077a1.389,1.389,0,0,0,1.389-1.389v-3.008a1.389,1.389,0,0,1,1.389-1.389h5.79a1.389,1.389,0,0,1,1.389,1.389v3.008a1.389,1.389,0,0,0,1.389,1.389h11.54a1.389,1.389,0,0,0,1.389-1.389v-5.938a1.389,1.389,0,0,0-1.389-1.389h-5.827a1.389,1.389,0,0,0-1.389,1.389V187a1.389,1.389,0,0,0,1.389,1.389h2.935a1.389,1.389,0,0,1,1.389,1.389v.151a1.389,1.389,0,0,1-1.389,1.389h-5.79a1.389,1.389,0,0,1-1.389-1.389v-3.081a1.389,1.389,0,0,0-1.389-1.389h-11.5a1.389,1.389,0,0,0-1.389,1.389v5.938A1.39,1.39,0,0,0,173.007,194.176Zm5.713,0h.077a1.389,1.389,0,0,0,1.389-1.389v-.079a1.389,1.389,0,0,0-1.389-1.389h-.077a1.389,1.389,0,0,0-1.389,1.389v.079A1.39,1.39,0,0,0,178.72,194.176Zm-5.713-11.645H207.4a1.389,1.389,0,0,0,1.389-1.389v-.152A1.389,1.389,0,0,0,207.4,179.6H173.007a1.389,1.389,0,0,0-1.389,1.389v.152A1.39,1.39,0,0,0,173.007,182.531ZM207.4,194.176h-5.827a1.389,1.389,0,0,1-1.389-1.389v-5.938a1.389,1.389,0,0,1,1.389-1.389h8.721a1.389,1.389,0,0,0,1.389-1.389V180.99a1.389,1.389,0,0,1,1.389-1.389h.077a1.389,1.389,0,0,1,1.389,1.389v8.94a1.389,1.389,0,0,0,1.389,1.389h.042a1.389,1.389,0,0,0,1.389-1.389v-8.94a1.389,1.389,0,0,1,1.389-1.389h.115a1.389,1.389,0,0,1,1.389,1.389v8.94a1.389,1.389,0,0,0,1.389,1.389h.079a1.389,1.389,0,0,0,1.389-1.389v-8.94a1.389,1.389,0,0,1,1.389-1.389h.077a1.389,1.389,0,0,1,1.389,1.389v11.8a1.389,1.389,0,0,1-1.389,1.389H213.062a1.389,1.389,0,0,1-1.389-1.389v-3.008a1.389,1.389,0,0,0-1.389-1.389h-5.827a1.389,1.389,0,0,0-1.389,1.389v.151a1.389,1.389,0,0,0,1.389,1.389h2.935a1.389,1.389,0,0,1,1.389,1.389v.079A1.386,1.386,0,0,1,207.4,194.176Z" fill="#f5f5f5"/><path d="M230.2,194.176h.079a1.389,1.389,0,0,0,1.389-1.389v-3.008a1.389,1.389,0,0,1,1.389-1.389h5.79a1.389,1.389,0,0,1,1.389,1.389v3.008a1.389,1.389,0,0,0,1.389,1.389h11.54a1.389,1.389,0,0,0,1.389-1.389v-5.938a1.389,1.389,0,0,0-1.389-1.389h-5.827a1.389,1.389,0,0,0-1.389,1.389V187a1.389,1.389,0,0,0,1.389,1.389h2.97a1.389,1.389,0,0,1,1.389,1.389v.151a1.389,1.389,0,0,1-1.389,1.389h-5.79a1.389,1.389,0,0,1-1.389-1.389v-3.081a1.389,1.389,0,0,0-1.389-1.389H230.2a1.389,1.389,0,0,0-1.389,1.389v5.938A1.39,1.39,0,0,0,230.2,194.176Zm5.75,0h.042a1.389,1.389,0,0,0,1.389-1.389v-.079a1.389,1.389,0,0,0-1.389-1.389h-.042a1.389,1.389,0,0,0-1.389,1.389v.079A1.39,1.39,0,0,0,235.95,194.176Zm-5.75-11.645h34.425a1.389,1.389,0,0,0,1.389-1.389v-.152a1.389,1.389,0,0,0-1.389-1.389H230.2a1.389,1.389,0,0,0-1.389,1.389v.152A1.389,1.389,0,0,0,230.2,182.531Zm34.426,11.645H258.8a1.389,1.389,0,0,1-1.389-1.389v-5.938a1.389,1.389,0,0,1,1.389-1.389h8.684a1.389,1.389,0,0,0,1.389-1.389V180.99a1.389,1.389,0,0,1,1.389-1.389h.077a1.389,1.389,0,0,1,1.389,1.389v8.94a1.389,1.389,0,0,0,1.389,1.389h.079a1.389,1.389,0,0,0,1.389-1.389v-8.94a1.389,1.389,0,0,1,1.389-1.389h.077a1.389,1.389,0,0,1,1.389,1.389v8.94a1.389,1.389,0,0,0,1.389,1.389h.077a1.389,1.389,0,0,0,1.389-1.389v-8.94a1.389,1.389,0,0,1,1.389-1.389h.079a1.389,1.389,0,0,1,1.389,1.389v11.8a1.389,1.389,0,0,1-1.389,1.389h-11.5a1.389,1.389,0,0,1-1.389-1.389v-3.008a1.389,1.389,0,0,0-1.389-1.389h-5.827a1.389,1.389,0,0,0-1.389,1.389v.151a1.389,1.389,0,0,0,1.389,1.389h2.97a1.389,1.389,0,0,1,1.389,1.389v.079A1.389,1.389,0,0,1,264.626,194.176Z" fill="#f5f5f5"/><path d="M287.395,194.176h.079a1.389,1.389,0,0,0,1.389-1.389v-3.008a1.389,1.389,0,0,1,1.389-1.389h5.79a1.389,1.389,0,0,1,1.389,1.389v3.008a1.389,1.389,0,0,0,1.389,1.389h11.54a1.389,1.389,0,0,0,1.389-1.389v-5.938a1.389,1.389,0,0,0-1.389-1.389h-5.792a1.389,1.389,0,0,0-1.389,1.389V187a1.389,1.389,0,0,0,1.389,1.389h2.9a1.389,1.389,0,0,1,1.389,1.389v.151a1.389,1.389,0,0,1-1.389,1.389h-5.754a1.389,1.389,0,0,1-1.389-1.389v-3.081a1.389,1.389,0,0,0-1.389-1.389H287.4a1.389,1.389,0,0,0-1.389,1.389v5.938A1.39,1.39,0,0,0,287.395,194.176Zm5.749,0h.042a1.389,1.389,0,0,0,1.389-1.389v-.079a1.389,1.389,0,0,0-1.389-1.389h-.042a1.389,1.389,0,0,0-1.389,1.389v.079A1.39,1.39,0,0,0,293.144,194.176Zm-5.749-11.645h34.424a1.389,1.389,0,0,0,1.389-1.389v-.152a1.389,1.389,0,0,0-1.389-1.389H287.395a1.389,1.389,0,0,0-1.389,1.389v.152A1.389,1.389,0,0,0,287.395,182.531Zm34.425,11.645h-5.79a1.389,1.389,0,0,1-1.389-1.389v-5.938a1.389,1.389,0,0,1,1.389-1.389h8.646a1.389,1.389,0,0,0,1.389-1.389V180.99a1.389,1.389,0,0,1,1.389-1.389h.079a1.389,1.389,0,0,1,1.389,1.389v8.94a1.389,1.389,0,0,0,1.389,1.389h.077a1.389,1.389,0,0,0,1.389-1.389v-8.94a1.389,1.389,0,0,1,1.389-1.389h.079a1.389,1.389,0,0,1,1.389,1.389v8.94a1.389,1.389,0,0,0,1.389,1.389h.077a1.389,1.389,0,0,0,1.389-1.389v-8.94a1.389,1.389,0,0,1,1.389-1.389h.079a1.389,1.389,0,0,1,1.389,1.389v11.8a1.389,1.389,0,0,1-1.389,1.389H327.452a1.389,1.389,0,0,1-1.389-1.389v-3.008a1.389,1.389,0,0,0-1.389-1.389h-5.826a1.389,1.389,0,0,0-1.389,1.389v.151a1.389,1.389,0,0,0,1.389,1.389h2.97a1.389,1.389,0,0,1,1.389,1.389v.079A1.388,1.388,0,0,1,321.82,194.176Z" fill="#f5f5f5"/><path d="M344.589,194.176h.079a1.389,1.389,0,0,0,1.389-1.389v-3.008a1.389,1.389,0,0,1,1.389-1.389h5.826a1.389,1.389,0,0,1,1.389,1.389v3.008a1.389,1.389,0,0,0,1.389,1.389h11.505a1.389,1.389,0,0,0,1.389-1.389v-5.938a1.389,1.389,0,0,0-1.389-1.389h-5.792a1.389,1.389,0,0,0-1.389,1.389V187a1.389,1.389,0,0,0,1.389,1.389h2.973a1.389,1.389,0,0,1,1.389,1.389v.151a1.389,1.389,0,0,1-1.389,1.389h-5.865a1.389,1.389,0,0,1-1.389-1.389v-3.081a1.389,1.389,0,0,0-1.389-1.389h-11.5a1.389,1.389,0,0,0-1.389,1.389v5.938A1.387,1.387,0,0,0,344.589,194.176Zm5.713,0h.115a1.389,1.389,0,0,0,1.389-1.389v-.079a1.389,1.389,0,0,0-1.389-1.389H350.3a1.389,1.389,0,0,0-1.389,1.389v.079A1.39,1.39,0,0,0,350.3,194.176Zm-5.713-11.645h34.424a1.389,1.389,0,0,0,1.389-1.389v-.152a1.389,1.389,0,0,0-1.389-1.389H344.589a1.389,1.389,0,0,0-1.389,1.389v.152A1.389,1.389,0,0,0,344.589,182.531Zm34.426,11.645h-5.79a1.389,1.389,0,0,1-1.389-1.389v-5.938a1.389,1.389,0,0,1,1.389-1.389h8.646a1.389,1.389,0,0,0,1.389-1.389V180.99a1.389,1.389,0,0,1,1.389-1.389h.079a1.389,1.389,0,0,1,1.389,1.389v8.94a1.389,1.389,0,0,0,1.389,1.389h.077a1.389,1.389,0,0,0,1.389-1.389v-8.94a1.389,1.389,0,0,1,1.389-1.389h.079a1.389,1.389,0,0,1,1.389,1.389v8.94a1.389,1.389,0,0,0,1.389,1.389h.115a1.389,1.389,0,0,0,1.389-1.389v-8.94a1.389,1.389,0,0,1,1.389-1.389h.04a1.389,1.389,0,0,1,1.389,1.389v11.8a1.389,1.389,0,0,1-1.389,1.389h-11.5a1.389,1.389,0,0,1-1.389-1.389v-3.008a1.389,1.389,0,0,0-1.389-1.389h-5.754a1.389,1.389,0,0,0-1.389,1.389v.151a1.389,1.389,0,0,0,1.389,1.389h2.9a1.389,1.389,0,0,1,1.389,1.389v.079A1.392,1.392,0,0,1,379.015,194.176Z" fill="#f5f5f5"/><path d="M401.82,194.176h.042a1.389,1.389,0,0,0,1.389-1.389v-3.008a1.389,1.389,0,0,1,1.389-1.389h5.792a1.389,1.389,0,0,1,1.389,1.389v3.008a1.389,1.389,0,0,0,1.389,1.389h11.538a1.389,1.389,0,0,0,1.389-1.389v-5.938a1.389,1.389,0,0,0-1.389-1.389H419a1.389,1.389,0,0,0-1.389,1.389V187A1.389,1.389,0,0,0,419,188.39h2.933a1.389,1.389,0,0,1,1.389,1.389v.151a1.389,1.389,0,0,1-1.389,1.389H416.1a1.389,1.389,0,0,1-1.389-1.389v-3.081a1.389,1.389,0,0,0-1.389-1.389H401.82a1.389,1.389,0,0,0-1.389,1.389v5.938A1.389,1.389,0,0,0,401.82,194.176Zm5.712,0h.079A1.389,1.389,0,0,0,409,192.787v-.079a1.389,1.389,0,0,0-1.389-1.389h-.079a1.389,1.389,0,0,0-1.389,1.389v.079A1.39,1.39,0,0,0,407.532,194.176Zm-5.712-11.645h34.462a1.389,1.389,0,0,0,1.389-1.389v-.152a1.389,1.389,0,0,0-1.389-1.389H401.82a1.389,1.389,0,0,0-1.389,1.389v.152A1.388,1.388,0,0,0,401.82,182.531Zm34.461,11.645h-5.865a1.389,1.389,0,0,1-1.389-1.389v-5.938a1.389,1.389,0,0,1,1.389-1.389h8.648a1.389,1.389,0,0,0,1.389-1.389V180.99a1.389,1.389,0,0,1,1.389-1.389h.115a1.389,1.389,0,0,1,1.389,1.389v8.94a1.389,1.389,0,0,0,1.389,1.389h.077a1.389,1.389,0,0,0,1.389-1.389v-8.94a1.389,1.389,0,0,1,1.389-1.389h.042a1.389,1.389,0,0,1,1.389,1.389v8.94a1.389,1.389,0,0,0,1.389,1.389h.115a1.389,1.389,0,0,0,1.389-1.389v-8.94A1.389,1.389,0,0,1,453.3,179.6h.079a1.389,1.389,0,0,1,1.389,1.389v11.8a1.389,1.389,0,0,1-1.389,1.389h-11.54a1.389,1.389,0,0,1-1.389-1.389v-3.008a1.389,1.389,0,0,0-1.389-1.389h-5.79a1.389,1.389,0,0,0-1.389,1.389v.151a1.389,1.389,0,0,0,1.389,1.389h3.008a1.389,1.389,0,0,1,1.389,1.389v.079A1.391,1.391,0,0,1,436.281,194.176Z" fill="#f5f5f5"/><path d="M459.013,194.176h.079a1.389,1.389,0,0,0,1.389-1.389v-3.008a1.389,1.389,0,0,1,1.389-1.389h5.79a1.389,1.389,0,0,1,1.389,1.389v3.008a1.389,1.389,0,0,0,1.389,1.389h11.54a1.389,1.389,0,0,0,1.389-1.389v-5.938a1.389,1.389,0,0,0-1.389-1.389h-5.754a1.389,1.389,0,0,0-1.389,1.389V187a1.389,1.389,0,0,0,1.389,1.389h2.935a1.389,1.389,0,0,1,1.389,1.389v.151a1.389,1.389,0,0,1-1.389,1.389h-5.865a1.389,1.389,0,0,1-1.389-1.389v-3.081a1.389,1.389,0,0,0-1.389-1.389h-11.5a1.389,1.389,0,0,0-1.389,1.389v5.938A1.39,1.39,0,0,0,459.013,194.176Zm5.713,0h.079a1.389,1.389,0,0,0,1.389-1.389v-.079a1.389,1.389,0,0,0-1.389-1.389h-.079a1.389,1.389,0,0,0-1.389,1.389v.079A1.39,1.39,0,0,0,464.726,194.176Zm-5.713-11.645H493.4a1.389,1.389,0,0,0,1.389-1.389v-.152A1.389,1.389,0,0,0,493.4,179.6H459.013a1.389,1.389,0,0,0-1.389,1.389v.152A1.39,1.39,0,0,0,459.013,182.531ZM493.4,194.176h-5.79a1.389,1.389,0,0,1-1.389-1.389v-5.938a1.389,1.389,0,0,1,1.389-1.389h8.721a1.389,1.389,0,0,0,1.389-1.389V180.99a1.389,1.389,0,0,1,1.389-1.389h0a1.389,1.389,0,0,1,1.389,1.389v8.94a1.389,1.389,0,0,0,1.389,1.389h.152a1.389,1.389,0,0,0,1.389-1.389v-8.94a1.389,1.389,0,0,1,1.389-1.389h0a1.389,1.389,0,0,1,1.389,1.389v8.94a1.389,1.389,0,0,0,1.389,1.389h.079a1.389,1.389,0,0,0,1.389-1.389v-8.94a1.389,1.389,0,0,1,1.389-1.389h.151A1.389,1.389,0,0,1,512,180.99v11.8a1.389,1.389,0,0,1-1.389,1.389h-11.5a1.389,1.389,0,0,1-1.389-1.389v-3.008a1.389,1.389,0,0,0-1.389-1.389h-5.864a1.389,1.389,0,0,0-1.389,1.389v.151a1.389,1.389,0,0,0,1.389,1.389H493.4a1.389,1.389,0,0,1,1.389,1.389v.079A1.39,1.39,0,0,1,493.4,194.176Z" fill="#f5f5f5"/><path d="M1.389,203.035H24.352a1.389,1.389,0,0,0,1.389-1.389v-3.081a1.389,1.389,0,0,0-1.389-1.389H1.389A1.389,1.389,0,0,0,0,198.565v3.081A1.388,1.388,0,0,0,1.389,203.035Zm28.633,0H52.949a1.389,1.389,0,0,0,1.389-1.389v-3.081a1.389,1.389,0,0,0-1.389-1.389H30.022a1.389,1.389,0,0,0-1.389,1.389v3.081A1.389,1.389,0,0,0,30.022,203.035Z" fill="#f5f5f5"/><path d="M58.618,203.035H81.545a1.389,1.389,0,0,0,1.389-1.389v-3.081a1.389,1.389,0,0,0-1.389-1.389H58.618a1.389,1.389,0,0,0-1.389,1.389v3.081A1.39,1.39,0,0,0,58.618,203.035Zm28.561,0h23a1.389,1.389,0,0,0,1.389-1.389v-3.081a1.389,1.389,0,0,0-1.389-1.389h-23a1.389,1.389,0,0,0-1.389,1.389v3.081A1.389,1.389,0,0,0,87.179,203.035Z" fill="#f5f5f5"/><path d="M115.814,203.035h22.963a1.389,1.389,0,0,0,1.389-1.389v-3.081a1.389,1.389,0,0,0-1.389-1.389H115.814a1.389,1.389,0,0,0-1.389,1.389v3.081A1.388,1.388,0,0,0,115.814,203.035Zm28.6,0h22.963a1.389,1.389,0,0,0,1.389-1.389v-3.081a1.389,1.389,0,0,0-1.389-1.389H144.41a1.389,1.389,0,0,0-1.389,1.389v3.081A1.39,1.39,0,0,0,144.41,203.035Z" fill="#f5f5f5"/><path d="M173.007,203.035H195.97a1.389,1.389,0,0,0,1.389-1.389v-3.081a1.389,1.389,0,0,0-1.389-1.389H173.007a1.389,1.389,0,0,0-1.389,1.389v3.081A1.39,1.39,0,0,0,173.007,203.035Zm28.561,0h23a1.389,1.389,0,0,0,1.389-1.389v-3.081a1.389,1.389,0,0,0-1.389-1.389h-23a1.389,1.389,0,0,0-1.389,1.389v3.081A1.388,1.388,0,0,0,201.568,203.035Z" fill="#f5f5f5"/><path d="M230.2,203.035h22.965a1.389,1.389,0,0,0,1.389-1.389v-3.081a1.389,1.389,0,0,0-1.389-1.389H230.2a1.389,1.389,0,0,0-1.389,1.389v3.081A1.389,1.389,0,0,0,230.2,203.035Zm28.6,0h22.965a1.389,1.389,0,0,0,1.389-1.389v-3.081a1.389,1.389,0,0,0-1.389-1.389H258.8a1.389,1.389,0,0,0-1.389,1.389v3.081A1.389,1.389,0,0,0,258.8,203.035Z" fill="#f5f5f5"/><path d="M287.395,203.035H310.36a1.389,1.389,0,0,0,1.389-1.389v-3.081a1.389,1.389,0,0,0-1.389-1.389H287.395a1.389,1.389,0,0,0-1.389,1.389v3.081A1.389,1.389,0,0,0,287.395,203.035Zm28.635,0h22.927a1.389,1.389,0,0,0,1.389-1.389v-3.081a1.389,1.389,0,0,0-1.389-1.389H316.03a1.389,1.389,0,0,0-1.389,1.389v3.081A1.389,1.389,0,0,0,316.03,203.035Z" fill="#f5f5f5"/><path d="M344.589,203.035h22.965a1.389,1.389,0,0,0,1.389-1.389v-3.081a1.389,1.389,0,0,0-1.389-1.389H344.589a1.389,1.389,0,0,0-1.389,1.389v3.081A1.389,1.389,0,0,0,344.589,203.035Zm28.635,0h22.925a1.389,1.389,0,0,0,1.389-1.389v-3.081a1.389,1.389,0,0,0-1.389-1.389H373.224a1.389,1.389,0,0,0-1.389,1.389v3.081A1.389,1.389,0,0,0,373.224,203.035Z" fill="#f5f5f5"/><path d="M401.82,203.035h22.927a1.389,1.389,0,0,0,1.389-1.389v-3.081a1.389,1.389,0,0,0-1.389-1.389H401.82a1.389,1.389,0,0,0-1.389,1.389v3.081A1.388,1.388,0,0,0,401.82,203.035Zm28.6,0h22.965a1.389,1.389,0,0,0,1.389-1.389v-3.081a1.389,1.389,0,0,0-1.389-1.389H430.417a1.389,1.389,0,0,0-1.389,1.389v3.081A1.389,1.389,0,0,0,430.417,203.035Z" fill="#f5f5f5"/><path d="M459.013,203.035h22.965a1.389,1.389,0,0,0,1.389-1.389v-3.081a1.389,1.389,0,0,0-1.389-1.389H459.013a1.389,1.389,0,0,0-1.389,1.389v3.081A1.39,1.39,0,0,0,459.013,203.035Zm28.6,0h23A1.389,1.389,0,0,0,512,201.646v-3.081a1.389,1.389,0,0,0-1.389-1.389h-23a1.389,1.389,0,0,0-1.389,1.389v3.081A1.387,1.387,0,0,0,487.612,203.035Z" fill="#f5f5f5"/><path d="M510.611,317.826h-.077a1.389,1.389,0,0,0-1.389,1.389v3.008a1.389,1.389,0,0,1-1.389,1.389h-5.827a1.389,1.389,0,0,1-1.389-1.389v-3.008a1.389,1.389,0,0,0-1.389-1.389h-11.5a1.389,1.389,0,0,0-1.389,1.389v5.939a1.389,1.389,0,0,0,1.389,1.389h5.79a1.389,1.389,0,0,0,1.389-1.389V325a1.389,1.389,0,0,0-1.389-1.389H490.5a1.389,1.389,0,0,1-1.389-1.389v-.151a1.389,1.389,0,0,1,1.389-1.389H496.3a1.389,1.389,0,0,1,1.389,1.389v3.081a1.389,1.389,0,0,0,1.389,1.389h11.538A1.389,1.389,0,0,0,512,325.154v-5.939A1.39,1.39,0,0,0,510.611,317.826Zm-5.748,0h-.079a1.389,1.389,0,0,0-1.389,1.389v.079a1.389,1.389,0,0,0,1.389,1.389h.079a1.389,1.389,0,0,0,1.389-1.389v-.079A1.389,1.389,0,0,0,504.863,317.826Zm5.748,11.645H476.188a1.389,1.389,0,0,0-1.389,1.389v.152a1.389,1.389,0,0,0,1.389,1.389h34.423A1.389,1.389,0,0,0,512,331.012v-.152A1.388,1.388,0,0,0,510.611,329.471Zm-34.422-11.645h5.79a1.389,1.389,0,0,1,1.389,1.389v5.939a1.389,1.389,0,0,1-1.389,1.389h-8.648a1.389,1.389,0,0,0-1.389,1.389v3.081a1.389,1.389,0,0,1-1.389,1.389h-.077a1.389,1.389,0,0,1-1.389-1.389v-8.94a1.389,1.389,0,0,0-1.389-1.389h-.079a1.389,1.389,0,0,0-1.389,1.389v8.94a1.389,1.389,0,0,1-1.389,1.389h-.077a1.389,1.389,0,0,1-1.389-1.389v-8.94a1.389,1.389,0,0,0-1.389-1.389h-.115a1.389,1.389,0,0,0-1.389,1.389v8.94a1.389,1.389,0,0,1-1.389,1.389h-.042a1.389,1.389,0,0,1-1.389-1.389v-11.8a1.389,1.389,0,0,1,1.389-1.389h11.5a1.389,1.389,0,0,1,1.389,1.389v3.008a1.389,1.389,0,0,0,1.389,1.389h5.79a1.389,1.389,0,0,0,1.389-1.389v-.151a1.389,1.389,0,0,0-1.389-1.389h-2.933a1.389,1.389,0,0,1-1.389-1.389v-.079A1.39,1.39,0,0,1,476.189,317.826Z" fill="#f5f5f5"/><path d="M453.382,317.826h-.115a1.389,1.389,0,0,0-1.389,1.389v3.008a1.389,1.389,0,0,1-1.389,1.389h-5.754a1.389,1.389,0,0,1-1.389-1.389v-3.008a1.389,1.389,0,0,0-1.389-1.389h-11.5a1.389,1.389,0,0,0-1.389,1.389v5.939a1.389,1.389,0,0,0,1.389,1.389h5.79a1.389,1.389,0,0,0,1.389-1.389V325a1.389,1.389,0,0,0-1.389-1.389H433.31a1.389,1.389,0,0,1-1.389-1.389v-.151a1.389,1.389,0,0,1,1.389-1.389H439.1a1.389,1.389,0,0,1,1.389,1.389v3.081a1.389,1.389,0,0,0,1.389,1.389h11.5a1.389,1.389,0,0,0,1.389-1.389v-5.939A1.39,1.39,0,0,0,453.382,317.826Zm-5.713,0h-.077a1.389,1.389,0,0,0-1.389,1.389v.079a1.389,1.389,0,0,0,1.389,1.389h.077a1.389,1.389,0,0,0,1.389-1.389v-.079A1.39,1.39,0,0,0,447.669,317.826Zm5.713,11.645H418.994a1.389,1.389,0,0,0-1.389,1.389v.152a1.389,1.389,0,0,0,1.389,1.389h34.388a1.389,1.389,0,0,0,1.389-1.389v-.152A1.39,1.39,0,0,0,453.382,329.471Zm-34.388-11.645h5.827a1.389,1.389,0,0,1,1.389,1.389v5.939a1.389,1.389,0,0,1-1.389,1.389h-8.648a1.389,1.389,0,0,0-1.389,1.389v3.081a1.389,1.389,0,0,1-1.389,1.389h-.115a1.389,1.389,0,0,1-1.389-1.389v-8.94a1.389,1.389,0,0,0-1.389-1.389h-.115A1.389,1.389,0,0,0,409,322.073v8.94a1.389,1.389,0,0,1-1.389,1.389h-.042a1.389,1.389,0,0,1-1.389-1.389v-8.94a1.389,1.389,0,0,0-1.389-1.389h-.115a1.389,1.389,0,0,0-1.389,1.389v8.94A1.389,1.389,0,0,1,401.9,332.4h-.077a1.389,1.389,0,0,1-1.389-1.389v-11.8a1.389,1.389,0,0,1,1.389-1.389h11.575a1.389,1.389,0,0,1,1.389,1.389v3.008a1.389,1.389,0,0,0,1.389,1.389h5.754a1.389,1.389,0,0,0,1.389-1.389v-.151a1.389,1.389,0,0,0-1.389-1.389h-2.935a1.389,1.389,0,0,1-1.389-1.389v-.079A1.394,1.394,0,0,1,418.994,317.826Z" fill="#f5f5f5"/><path d="M396.186,317.826h-.077a1.389,1.389,0,0,0-1.389,1.389v3.008a1.389,1.389,0,0,1-1.389,1.389h-5.792a1.389,1.389,0,0,1-1.389-1.389v-3.008a1.389,1.389,0,0,0-1.389-1.389H373.223a1.389,1.389,0,0,0-1.389,1.389v5.939a1.389,1.389,0,0,0,1.389,1.389h5.79a1.389,1.389,0,0,0,1.389-1.389V325a1.389,1.389,0,0,0-1.389-1.389h-2.935a1.389,1.389,0,0,1-1.389-1.389v-.151a1.389,1.389,0,0,1,1.389-1.389H381.9a1.389,1.389,0,0,1,1.389,1.389v3.081a1.389,1.389,0,0,0,1.389,1.389h11.5a1.389,1.389,0,0,0,1.389-1.389v-5.939A1.387,1.387,0,0,0,396.186,317.826Zm-5.712,0H390.4a1.389,1.389,0,0,0-1.389,1.389v.079a1.389,1.389,0,0,0,1.389,1.389h.077a1.389,1.389,0,0,0,1.389-1.389v-.079A1.389,1.389,0,0,0,390.474,317.826Zm5.712,11.645H361.761a1.389,1.389,0,0,0-1.389,1.389v.152a1.389,1.389,0,0,0,1.389,1.389h34.425a1.389,1.389,0,0,0,1.389-1.389v-.152A1.388,1.388,0,0,0,396.186,329.471Zm-34.424-11.645h5.827a1.389,1.389,0,0,1,1.389,1.389v5.939a1.389,1.389,0,0,1-1.389,1.389h-8.646a1.389,1.389,0,0,0-1.389,1.389v3.081a1.389,1.389,0,0,1-1.389,1.389h-.079a1.389,1.389,0,0,1-1.389-1.389v-8.94a1.389,1.389,0,0,0-1.389-1.389h-.115a1.389,1.389,0,0,0-1.389,1.389v8.94a1.389,1.389,0,0,1-1.389,1.389H350.3a1.389,1.389,0,0,1-1.389-1.389v-8.94a1.389,1.389,0,0,0-1.389-1.389h-.042a1.389,1.389,0,0,0-1.389,1.389v8.94A1.389,1.389,0,0,1,344.7,332.4h-.077a1.389,1.389,0,0,1-1.389-1.389v-11.8a1.389,1.389,0,0,1,1.389-1.389h11.54a1.389,1.389,0,0,1,1.389,1.389v3.008a1.389,1.389,0,0,0,1.389,1.389h5.79a1.389,1.389,0,0,0,1.389-1.389v-.151a1.389,1.389,0,0,0-1.389-1.389H361.76a1.389,1.389,0,0,1-1.389-1.389v-.079A1.392,1.392,0,0,1,361.762,317.826Z" fill="#f5f5f5"/><path d="M338.993,317.826h-.077a1.389,1.389,0,0,0-1.389,1.389v3.008a1.389,1.389,0,0,1-1.389,1.389h-5.79a1.389,1.389,0,0,1-1.389-1.389v-3.008a1.389,1.389,0,0,0-1.389-1.389H316.03a1.389,1.389,0,0,0-1.389,1.389v5.939a1.389,1.389,0,0,0,1.389,1.389h5.827a1.389,1.389,0,0,0,1.389-1.389V325a1.389,1.389,0,0,0-1.389-1.389h-2.935a1.389,1.389,0,0,1-1.389-1.389v-.151a1.389,1.389,0,0,1,1.389-1.389h5.79a1.389,1.389,0,0,1,1.389,1.389v3.081a1.389,1.389,0,0,0,1.389,1.389h11.5a1.389,1.389,0,0,0,1.389-1.389v-5.939A1.389,1.389,0,0,0,338.993,317.826Zm-5.713,0H333.2a1.389,1.389,0,0,0-1.389,1.389v.079a1.389,1.389,0,0,0,1.389,1.389h.077a1.389,1.389,0,0,0,1.389-1.389v-.079A1.39,1.39,0,0,0,333.28,317.826Zm5.713,11.645H304.605a1.389,1.389,0,0,0-1.389,1.389v.152a1.389,1.389,0,0,0,1.389,1.389h34.388a1.389,1.389,0,0,0,1.389-1.389v-.152A1.39,1.39,0,0,0,338.993,329.471Zm-34.388-11.645h5.827a1.389,1.389,0,0,1,1.389,1.389v5.939a1.389,1.389,0,0,1-1.389,1.389h-8.721a1.389,1.389,0,0,0-1.389,1.389v3.081a1.389,1.389,0,0,1-1.389,1.389h-.077a1.389,1.389,0,0,1-1.389-1.389v-8.94a1.389,1.389,0,0,0-1.389-1.389h-.042a1.389,1.389,0,0,0-1.389,1.389v8.94a1.389,1.389,0,0,1-1.389,1.389h-.115a1.389,1.389,0,0,1-1.389-1.389v-8.94a1.389,1.389,0,0,0-1.389-1.389h-.079a1.389,1.389,0,0,0-1.389,1.389v8.94a1.389,1.389,0,0,1-1.389,1.389h-.077a1.389,1.389,0,0,1-1.389-1.389v-11.8a1.389,1.389,0,0,1,1.389-1.389h11.5a1.389,1.389,0,0,1,1.389,1.389v3.008a1.389,1.389,0,0,0,1.389,1.389h5.827a1.389,1.389,0,0,0,1.389-1.389v-.151a1.389,1.389,0,0,0-1.389-1.389H304.6a1.389,1.389,0,0,1-1.389-1.389v-.079A1.393,1.393,0,0,1,304.605,317.826Z" fill="#f5f5f5"/><path d="M281.8,317.826h-.079a1.389,1.389,0,0,0-1.389,1.389v3.008a1.389,1.389,0,0,1-1.389,1.389h-5.79a1.389,1.389,0,0,1-1.389-1.389v-3.008a1.389,1.389,0,0,0-1.389-1.389h-11.54a1.389,1.389,0,0,0-1.389,1.389v5.939a1.389,1.389,0,0,0,1.389,1.389h5.827a1.389,1.389,0,0,0,1.389-1.389V325a1.389,1.389,0,0,0-1.389-1.389h-2.97a1.389,1.389,0,0,1-1.389-1.389v-.151a1.389,1.389,0,0,1,1.389-1.389h5.79a1.389,1.389,0,0,1,1.389,1.389v3.081a1.389,1.389,0,0,0,1.389,1.389H281.8a1.389,1.389,0,0,0,1.389-1.389v-5.939A1.39,1.39,0,0,0,281.8,317.826Zm-5.75,0h-.042a1.389,1.389,0,0,0-1.389,1.389v.079a1.389,1.389,0,0,0,1.389,1.389h.042a1.389,1.389,0,0,0,1.389-1.389v-.079A1.389,1.389,0,0,0,276.05,317.826Zm5.75,11.645H247.375a1.389,1.389,0,0,0-1.389,1.389v.152a1.389,1.389,0,0,0,1.389,1.389H281.8a1.389,1.389,0,0,0,1.389-1.389v-.152A1.389,1.389,0,0,0,281.8,329.471Zm-34.426-11.645H253.2a1.389,1.389,0,0,1,1.389,1.389v5.939a1.389,1.389,0,0,1-1.389,1.389h-8.684a1.389,1.389,0,0,0-1.389,1.389v3.081a1.389,1.389,0,0,1-1.389,1.389h-.077a1.389,1.389,0,0,1-1.389-1.389v-8.94a1.389,1.389,0,0,0-1.389-1.389H238.8a1.389,1.389,0,0,0-1.389,1.389v8.94a1.389,1.389,0,0,1-1.389,1.389h-.077a1.389,1.389,0,0,1-1.389-1.389v-8.94a1.389,1.389,0,0,0-1.389-1.389h-.077a1.389,1.389,0,0,0-1.389,1.389v8.94a1.389,1.389,0,0,1-1.389,1.389h-.079a1.389,1.389,0,0,1-1.389-1.389v-11.8a1.389,1.389,0,0,1,1.389-1.389h11.5a1.389,1.389,0,0,1,1.389,1.389v3.008a1.389,1.389,0,0,0,1.389,1.389h5.827a1.389,1.389,0,0,0,1.389-1.389v-.151a1.389,1.389,0,0,0-1.389-1.389h-2.97a1.389,1.389,0,0,1-1.389-1.389v-.079A1.389,1.389,0,0,1,247.374,317.826Z" fill="#f5f5f5"/><path d="M224.6,317.826h-.079a1.389,1.389,0,0,0-1.389,1.389v3.008a1.389,1.389,0,0,1-1.389,1.389h-5.79a1.389,1.389,0,0,1-1.389-1.389v-3.008a1.389,1.389,0,0,0-1.389-1.389H201.64a1.389,1.389,0,0,0-1.389,1.389v5.939a1.389,1.389,0,0,0,1.389,1.389h5.792a1.389,1.389,0,0,0,1.389-1.389V325a1.389,1.389,0,0,0-1.389-1.389h-2.9a1.389,1.389,0,0,1-1.389-1.389v-.151a1.389,1.389,0,0,1,1.389-1.389h5.754a1.389,1.389,0,0,1,1.389,1.389v3.081a1.389,1.389,0,0,0,1.389,1.389H224.6a1.389,1.389,0,0,0,1.389-1.389v-5.939A1.389,1.389,0,0,0,224.6,317.826Zm-5.749,0h-.042a1.389,1.389,0,0,0-1.389,1.389v.079a1.389,1.389,0,0,0,1.389,1.389h.042a1.389,1.389,0,0,0,1.389-1.389v-.079A1.39,1.39,0,0,0,218.856,317.826Zm5.749,11.645H190.18a1.389,1.389,0,0,0-1.389,1.389v.152a1.389,1.389,0,0,0,1.389,1.389H224.6a1.389,1.389,0,0,0,1.389-1.389v-.152A1.387,1.387,0,0,0,224.6,329.471ZM190.18,317.826h5.79a1.389,1.389,0,0,1,1.389,1.389v5.939a1.389,1.389,0,0,1-1.389,1.389h-8.646a1.389,1.389,0,0,0-1.389,1.389v3.081a1.389,1.389,0,0,1-1.389,1.389h-.079a1.389,1.389,0,0,1-1.389-1.389v-8.94a1.389,1.389,0,0,0-1.389-1.389h-.077a1.389,1.389,0,0,0-1.389,1.389v8.94a1.389,1.389,0,0,1-1.389,1.389h-.079a1.389,1.389,0,0,1-1.389-1.389v-8.94a1.389,1.389,0,0,0-1.389-1.389H175.9a1.389,1.389,0,0,0-1.389,1.389v8.94a1.389,1.389,0,0,1-1.389,1.389h-.079a1.389,1.389,0,0,1-1.389-1.389v-11.8a1.389,1.389,0,0,1,1.389-1.389h11.505a1.389,1.389,0,0,1,1.389,1.389v3.008a1.389,1.389,0,0,0,1.389,1.389h5.826a1.389,1.389,0,0,0,1.389-1.389v-.151a1.389,1.389,0,0,0-1.389-1.389h-2.97a1.389,1.389,0,0,1-1.389-1.389v-.079A1.387,1.387,0,0,1,190.18,317.826Z" fill="#f5f5f5"/><path d="M167.411,317.826h-.079a1.389,1.389,0,0,0-1.389,1.389v3.008a1.389,1.389,0,0,1-1.389,1.389h-5.826a1.389,1.389,0,0,1-1.389-1.389v-3.008a1.389,1.389,0,0,0-1.389-1.389H144.445a1.389,1.389,0,0,0-1.389,1.389v5.939a1.389,1.389,0,0,0,1.389,1.389h5.792a1.389,1.389,0,0,0,1.389-1.389V325a1.389,1.389,0,0,0-1.389-1.389h-2.973a1.389,1.389,0,0,1-1.389-1.389v-.151a1.389,1.389,0,0,1,1.389-1.389h5.865a1.389,1.389,0,0,1,1.389,1.389v3.081a1.389,1.389,0,0,0,1.389,1.389h11.5a1.389,1.389,0,0,0,1.389-1.389v-5.939A1.387,1.387,0,0,0,167.411,317.826Zm-5.713,0h-.115a1.389,1.389,0,0,0-1.389,1.389v.079a1.389,1.389,0,0,0,1.389,1.389h.115a1.389,1.389,0,0,0,1.389-1.389v-.079A1.389,1.389,0,0,0,161.7,317.826Zm5.713,11.645H132.987a1.389,1.389,0,0,0-1.389,1.389v.152a1.389,1.389,0,0,0,1.389,1.389h34.424a1.389,1.389,0,0,0,1.389-1.389v-.152A1.389,1.389,0,0,0,167.411,329.471Zm-34.426-11.645h5.79a1.389,1.389,0,0,1,1.389,1.389v5.939a1.389,1.389,0,0,1-1.389,1.389h-8.646a1.389,1.389,0,0,0-1.389,1.389v3.081a1.389,1.389,0,0,1-1.389,1.389h-.079a1.389,1.389,0,0,1-1.389-1.389v-8.94a1.389,1.389,0,0,0-1.389-1.389h-.077a1.389,1.389,0,0,0-1.389,1.389v8.94a1.389,1.389,0,0,1-1.389,1.389h-.079a1.389,1.389,0,0,1-1.389-1.389v-8.94a1.389,1.389,0,0,0-1.389-1.389h-.115a1.389,1.389,0,0,0-1.389,1.389v8.94a1.389,1.389,0,0,1-1.389,1.389h-.041a1.389,1.389,0,0,1-1.389-1.389v-11.8a1.389,1.389,0,0,1,1.389-1.389h11.5a1.389,1.389,0,0,1,1.389,1.389v3.008a1.389,1.389,0,0,0,1.389,1.389h5.754a1.389,1.389,0,0,0,1.389-1.389v-.151a1.389,1.389,0,0,0-1.389-1.389h-2.9a1.389,1.389,0,0,1-1.389-1.389v-.079A1.393,1.393,0,0,1,132.985,317.826Z" fill="#f5f5f5"/><path d="M110.18,317.826h-.042a1.389,1.389,0,0,0-1.389,1.389v3.008a1.389,1.389,0,0,1-1.389,1.389h-5.792a1.389,1.389,0,0,1-1.389-1.389v-3.008a1.389,1.389,0,0,0-1.389-1.389H87.254a1.389,1.389,0,0,0-1.389,1.389v5.939a1.389,1.389,0,0,0,1.389,1.389h5.752a1.389,1.389,0,0,0,1.389-1.389V325a1.389,1.389,0,0,0-1.389-1.389H90.073a1.389,1.389,0,0,1-1.389-1.389v-.151a1.389,1.389,0,0,1,1.389-1.389H95.9a1.389,1.389,0,0,1,1.389,1.389v3.081a1.389,1.389,0,0,0,1.389,1.389h11.5a1.389,1.389,0,0,0,1.389-1.389v-5.939A1.393,1.393,0,0,0,110.18,317.826Zm-5.712,0h-.079A1.389,1.389,0,0,0,103,319.215v.079a1.389,1.389,0,0,0,1.389,1.389h.079a1.389,1.389,0,0,0,1.389-1.389v-.079A1.389,1.389,0,0,0,104.468,317.826Zm5.712,11.645H75.719a1.389,1.389,0,0,0-1.389,1.389v.152a1.389,1.389,0,0,0,1.389,1.389h34.462a1.389,1.389,0,0,0,1.389-1.389v-.152A1.389,1.389,0,0,0,110.18,329.471ZM75.719,317.826h5.865a1.389,1.389,0,0,1,1.389,1.389v5.939a1.389,1.389,0,0,1-1.389,1.389H72.936a1.389,1.389,0,0,0-1.389,1.389v3.081a1.389,1.389,0,0,1-1.389,1.389h-.115a1.389,1.389,0,0,1-1.389-1.389v-8.94a1.389,1.389,0,0,0-1.389-1.389h-.077a1.389,1.389,0,0,0-1.389,1.389v8.94A1.389,1.389,0,0,1,64.41,332.4h-.042a1.389,1.389,0,0,1-1.389-1.389v-8.94a1.389,1.389,0,0,0-1.389-1.389h-.115a1.389,1.389,0,0,0-1.389,1.389v8.94A1.389,1.389,0,0,1,58.7,332.4h-.079a1.389,1.389,0,0,1-1.389-1.389v-11.8a1.389,1.389,0,0,1,1.389-1.389h11.54a1.389,1.389,0,0,1,1.389,1.389v3.008a1.389,1.389,0,0,0,1.389,1.389h5.79a1.389,1.389,0,0,0,1.389-1.389v-.151a1.389,1.389,0,0,0-1.389-1.389h-3a1.389,1.389,0,0,1-1.389-1.389v-.079A1.386,1.386,0,0,1,75.719,317.826Z" fill="#f5f5f5"/><path d="M52.986,317.826h-.079a1.389,1.389,0,0,0-1.389,1.389v3.008a1.389,1.389,0,0,1-1.389,1.389h-5.79a1.389,1.389,0,0,1-1.389-1.389v-3.008a1.389,1.389,0,0,0-1.389-1.389H30.022a1.389,1.389,0,0,0-1.389,1.389v5.939a1.389,1.389,0,0,0,1.389,1.389h5.754a1.389,1.389,0,0,0,1.389-1.389V325a1.389,1.389,0,0,0-1.389-1.389H32.841a1.389,1.389,0,0,1-1.389-1.389v-.151a1.389,1.389,0,0,1,1.389-1.389h5.865a1.389,1.389,0,0,1,1.389,1.389v3.081a1.389,1.389,0,0,0,1.389,1.389h11.5a1.389,1.389,0,0,0,1.389-1.389v-5.939A1.389,1.389,0,0,0,52.986,317.826Zm-5.712,0h-.079a1.389,1.389,0,0,0-1.389,1.389v.079a1.389,1.389,0,0,0,1.389,1.389h.079a1.389,1.389,0,0,0,1.389-1.389v-.079A1.39,1.39,0,0,0,47.274,317.826Zm5.712,11.645H18.6a1.389,1.389,0,0,0-1.389,1.389v.152A1.389,1.389,0,0,0,18.6,332.4H52.987a1.389,1.389,0,0,0,1.389-1.389v-.152A1.39,1.39,0,0,0,52.986,329.471ZM18.6,317.826h5.79a1.389,1.389,0,0,1,1.389,1.389v5.939a1.389,1.389,0,0,1-1.389,1.389H15.67a1.389,1.389,0,0,0-1.389,1.389v3.081a1.389,1.389,0,0,1-1.389,1.389h0a1.389,1.389,0,0,1-1.389-1.389v-8.94a1.389,1.389,0,0,0-1.389-1.389H9.956a1.389,1.389,0,0,0-1.389,1.389v8.94A1.389,1.389,0,0,1,7.178,332.4h0a1.389,1.389,0,0,1-1.389-1.389v-8.94A1.389,1.389,0,0,0,4.4,320.684h-.08a1.389,1.389,0,0,0-1.389,1.389v8.94A1.389,1.389,0,0,1,1.539,332.4h-.15A1.389,1.389,0,0,1,0,331.013v-11.8a1.389,1.389,0,0,1,1.389-1.389h11.5a1.389,1.389,0,0,1,1.389,1.389v3.008a1.389,1.389,0,0,0,1.389,1.389h5.864a1.389,1.389,0,0,0,1.389-1.389v-.151a1.389,1.389,0,0,0-1.389-1.389H18.6a1.389,1.389,0,0,1-1.389-1.389v-.079A1.388,1.388,0,0,1,18.6,317.826Z" fill="#f5f5f5"/><path d="M510.611,308.966H487.648a1.389,1.389,0,0,0-1.389,1.389v3.081a1.389,1.389,0,0,0,1.389,1.389h22.963A1.389,1.389,0,0,0,512,313.436v-3.081A1.388,1.388,0,0,0,510.611,308.966Zm-28.633,0H459.051a1.389,1.389,0,0,0-1.389,1.389v3.081a1.389,1.389,0,0,0,1.389,1.389h22.927a1.389,1.389,0,0,0,1.389-1.389v-3.081A1.389,1.389,0,0,0,481.978,308.966Z" fill="#f5f5f5"/><path d="M453.382,308.966H430.455a1.389,1.389,0,0,0-1.389,1.389v3.081a1.389,1.389,0,0,0,1.389,1.389h22.927a1.389,1.389,0,0,0,1.389-1.389v-3.081A1.39,1.39,0,0,0,453.382,308.966Zm-28.561,0h-23a1.389,1.389,0,0,0-1.389,1.389v3.081a1.389,1.389,0,0,0,1.389,1.389h23a1.389,1.389,0,0,0,1.389-1.389v-3.081A1.388,1.388,0,0,0,424.821,308.966Z" fill="#f5f5f5"/><path d="M396.186,308.966H373.223a1.389,1.389,0,0,0-1.389,1.389v3.081a1.389,1.389,0,0,0,1.389,1.389h22.963a1.389,1.389,0,0,0,1.389-1.389v-3.081A1.388,1.388,0,0,0,396.186,308.966Zm-28.6,0H344.627a1.389,1.389,0,0,0-1.389,1.389v3.081a1.389,1.389,0,0,0,1.389,1.389H367.59a1.389,1.389,0,0,0,1.389-1.389v-3.081A1.389,1.389,0,0,0,367.59,308.966Z" fill="#f5f5f5"/><path d="M338.993,308.966H316.03a1.389,1.389,0,0,0-1.389,1.389v3.081a1.389,1.389,0,0,0,1.389,1.389h22.963a1.389,1.389,0,0,0,1.389-1.389v-3.081A1.39,1.39,0,0,0,338.993,308.966Zm-28.561,0h-23a1.389,1.389,0,0,0-1.389,1.389v3.081a1.389,1.389,0,0,0,1.389,1.389h23a1.389,1.389,0,0,0,1.389-1.389v-3.081A1.388,1.388,0,0,0,310.432,308.966Z" fill="#f5f5f5"/><path d="M281.8,308.966H258.835a1.389,1.389,0,0,0-1.389,1.389v3.081a1.389,1.389,0,0,0,1.389,1.389H281.8a1.389,1.389,0,0,0,1.389-1.389v-3.081A1.389,1.389,0,0,0,281.8,308.966Zm-28.6,0H230.238a1.389,1.389,0,0,0-1.389,1.389v3.081a1.389,1.389,0,0,0,1.389,1.389H253.2a1.389,1.389,0,0,0,1.389-1.389v-3.081A1.389,1.389,0,0,0,253.2,308.966Z" fill="#f5f5f5"/><path d="M224.6,308.966H201.64a1.389,1.389,0,0,0-1.389,1.389v3.081a1.389,1.389,0,0,0,1.389,1.389H224.6a1.389,1.389,0,0,0,1.389-1.389v-3.081A1.389,1.389,0,0,0,224.6,308.966Zm-28.635,0H173.043a1.389,1.389,0,0,0-1.389,1.389v3.081a1.389,1.389,0,0,0,1.389,1.389H195.97a1.389,1.389,0,0,0,1.389-1.389v-3.081A1.389,1.389,0,0,0,195.97,308.966Z" fill="#f5f5f5"/><path d="M167.411,308.966H144.446a1.389,1.389,0,0,0-1.389,1.389v3.081a1.389,1.389,0,0,0,1.389,1.389h22.965a1.389,1.389,0,0,0,1.389-1.389v-3.081A1.389,1.389,0,0,0,167.411,308.966Zm-28.635,0H115.851a1.389,1.389,0,0,0-1.389,1.389v3.081a1.389,1.389,0,0,0,1.389,1.389h22.925a1.389,1.389,0,0,0,1.389-1.389v-3.081A1.389,1.389,0,0,0,138.776,308.966Z" fill="#f5f5f5"/><path d="M110.18,308.966H87.254a1.389,1.389,0,0,0-1.389,1.389v3.081a1.389,1.389,0,0,0,1.389,1.389h22.927a1.389,1.389,0,0,0,1.389-1.389v-3.081A1.389,1.389,0,0,0,110.18,308.966Zm-28.6,0H58.618a1.389,1.389,0,0,0-1.389,1.389v3.081a1.389,1.389,0,0,0,1.389,1.389H81.583a1.389,1.389,0,0,0,1.389-1.389v-3.081A1.389,1.389,0,0,0,81.583,308.966Z" fill="#f5f5f5"/><path d="M52.986,308.966H30.022a1.389,1.389,0,0,0-1.389,1.389v3.081a1.389,1.389,0,0,0,1.389,1.389H52.987a1.389,1.389,0,0,0,1.389-1.389v-3.081A1.39,1.39,0,0,0,52.986,308.966Zm-28.6,0h-23A1.388,1.388,0,0,0,0,310.355v3.081a1.389,1.389,0,0,0,1.389,1.389h23a1.389,1.389,0,0,0,1.389-1.389v-3.081A1.389,1.389,0,0,0,24.388,308.966Z" fill="#f5f5f5"/><path d="M248.7,214.274a7.549,7.549,0,0,0,7.334-2.026,7.558,7.558,0,0,0,12.711-7.193,8.71,8.71,0,0,1-12.046,2.863c-.21-.141-.489-.28-.663-.42a8.859,8.859,0,0,1-12.291-1.745,7.477,7.477,0,0,0-.455-.7A7.54,7.54,0,0,0,248.7,214.274Z" fill="#ff4b55"/><path d="M264.966,295.855A47.609,47.609,0,0,0,275.2,219.449a.568.568,0,0,0-.863.724,51.786,51.786,0,0,1-12.99,68.278l1.021-65.367a2.894,2.894,0,0,0-1.071-2.291l-3.473-2.807a2.887,2.887,0,0,0-3.642.01l-3.422,2.8a2.885,2.885,0,0,0-1.059,2.28l.992,65.413a51.853,51.853,0,0,1-13.026-68.312.567.567,0,0,0-.863-.723,47.6,47.6,0,0,0,10.23,76.4,52.735,52.735,0,0,1-18.6,2.952.57.57,0,0,0-.163,1.119,47.352,47.352,0,0,0,24.168.868l3.063,5.943a.57.57,0,0,0,1.012,0l3.084-5.941a47.423,47.423,0,0,0,24.177-.874.57.57,0,0,0-.163-1.119A52.874,52.874,0,0,1,264.966,295.855Z" fill="#ff4b55"/><path d="M303.171,235.086a40.514,40.514,0,0,0-22.279-19.111.578.578,0,0,0-.573.978,51.663,51.663,0,0,1,8.956,70.3c-.839,1.118-1.747,2.3-2.62,3.281A40.854,40.854,0,0,0,303.171,235.086Z" fill="#ff4b55"/><path d="M222.755,287.255a51.659,51.659,0,0,1,8.918-70.3.578.578,0,0,0-.573-.978,40.941,40.941,0,0,0-5.691,74.559A30.221,30.221,0,0,1,222.755,287.255Z" fill="#ff4b55"/></g></svg>