<svg xmlns="http://www.w3.org/2000/svg" width="512" height="335.449" viewBox="0 0 512 335.449"><g transform="translate(0 -88.276)"><path d="M512,200.093H0V97.1a8.829,8.829,0,0,1,8.828-8.828H503.173A8.829,8.829,0,0,1,512,97.1V200.093Z" fill="#ff4b55"/><path d="M503.172,423.725H8.828A8.829,8.829,0,0,1,0,414.9V311.909H512V414.9A8.828,8.828,0,0,1,503.172,423.725Z" fill="#464655"/><rect width="512" height="111.81" transform="translate(0 200.091)" fill="#f5f5f5"/><path d="M308.065,233.526c-.928-.483-2.027-2.211-1.684-2.967.361-.793-.2-.725,1.7-.161,3.43.888,5.65.483,7.829-1.372l1.937-1.533,2.261,1.13a8.093,8.093,0,0,0,2.9.886c1.049-.242,3.069-2.825,3.027-3.713-.041-1.208.847-.886,1.291.4.928,2.422-.779,6.6-3.119,7.164a6.365,6.365,0,0,1-3.955-.322c-2.1-.808-2.422-.808-3.55,0a7.928,7.928,0,0,1-8.638.483" fill="#73af00"/><path d="M316.9,224.183c-1.132-1.587-2.493-7.14-2.1-8.5.395-1.248.792-1.474,1.868-1.134,1.927.679,2.382,1.927,2.153,6.462-.339,3.4-.791,4.532-1.926,3.171" fill="#73af00"/><path d="M241.005,248.731c-4.651,2.646-11.569,3.1-11.569,10.434-10.13.377-22.076.831-32.85.6,2.92-3.772,21.4-20.853,29.086-27.623a4.3,4.3,0,0,0,.964-4.813l-.2-.41a3.746,3.746,0,0,0-5.958-1.074C212.821,233.175,205.232,240,204,241.171c-9.914,10.02-12.822,12.94-14.38,14.508a5.914,5.914,0,0,0-1.718,4.2v.1a5.943,5.943,0,0,0,5.942,5.911h43.381c2.458,0-.565-8.543,2.609-8.543,2.207,0,2.41,3.065,2.313,6.312a4.577,4.577,0,0,1-4.579,4.427c-18.755.026-38.279.2-56.651.222a2.737,2.737,0,0,1-2.735-2.748v-3.3a3.5,3.5,0,0,0-5.454-2.893c-.086.056-.17.11-.254.162a3.114,3.114,0,0,0-1.372,3.624,10.367,10.367,0,0,1,.474,3.085,2.724,2.724,0,0,1-2.658,2.759c-6.076.186-12.679.241-14.554-3.342a3.985,3.985,0,0,0-5.35-1.954l-.271.136a4.226,4.226,0,0,0-1.832,5.824c2.238,3.979,4.28,8.6,3.22,15.06a10.255,10.255,0,0,1-4.256,4.461,2.109,2.109,0,0,0,1.569,3.837,13.535,13.535,0,0,0,10.59-10.642h86.42a5.74,5.74,0,0,0,5.739-5.739V257.881C249.4,252.285,243.386,252.512,241.005,248.731Z" fill="#73af00"/><path d="M350.62,223.948a35.824,35.824,0,0,0,3.975,2.319,2.87,2.87,0,0,1,1.241,4.107,4.2,4.2,0,0,0-.556,1.346v37.2a6.109,6.109,0,0,0,5.16-.771,2.263,2.263,0,0,1,3.489,1.288c.877,3.263,2.313,6.45,3.079,9.352a2.855,2.855,0,0,1-2.759,3.588H349.677a2.336,2.336,0,0,1-2.336-2.336v-54.3A2.128,2.128,0,0,1,350.62,223.948Z" fill="#73af00"/><path d="M332.975,233.006c.011,10.271.131,21.335.148,32.345a2.58,2.58,0,0,1-2.582,2.583h-.167a2.58,2.58,0,0,1-2.58-2.58v-26.09a1.651,1.651,0,0,0-2.737-1.245l-3.42,2.955a3.172,3.172,0,0,0-1.105,2.4c-.011,4.244-.049,16.6-.064,21.994a2.578,2.578,0,0,1-2.58,2.569h-.234a2.576,2.576,0,0,1-2.58-2.557c-.025-3.591-.069-10.246-.087-15.238a1.675,1.675,0,0,0-2.784-1.24c-3.543,3.1-4.361,3.807-6.22,5.728.151.983.908,0,1.361.755v4.991c-12.908-2.43-13.871,7.882-13.388,18.946a3.11,3.11,0,0,0,3.1,2.978h40.526a2.721,2.721,0,0,0,2.721-2.721V229.2a1.928,1.928,0,0,0-3.239-1.41c-.99.906-2.047,1.813-2.955,2.634A3.487,3.487,0,0,0,332.975,233.006ZM303.15,267.557c-.793-2.269,3.668-3.1,4.2-1.058C307.535,268.993,304.134,269.069,303.15,267.557Z" fill="#73af00"/><path d="M169.295,286.381a2.815,2.815,0,0,1,2.8,2.8,2.767,2.767,0,0,1-2.8,2.8,2.809,2.809,0,0,1-2.874-2.8,2.86,2.86,0,0,1,2.874-2.8" fill="#73af00"/><path d="M261.44,225.088a26.62,26.62,0,0,0,2.364,1.281,2.725,2.725,0,0,1,1.171,3.945,4.429,4.429,0,0,0-.648,1.482v37.121c2.694.6,4.167.012,5.342-.857A2.075,2.075,0,0,1,272.9,269.2c.673,2.52,1.685,5.012,2.466,7.378a4.466,4.466,0,0,1-4.237,5.874H259.76a3.333,3.333,0,0,1-3.333-3.334V227.963A3.326,3.326,0,0,1,261.44,225.088Z" fill="#73af00"/></g></svg>