<svg xmlns="http://www.w3.org/2000/svg" width="512" height="335.449" viewBox="0 0 512 335.449"><g transform="translate(0 -88.276)"><path d="M503.172,423.725H8.828A8.829,8.829,0,0,1,0,414.9V97.1a8.829,8.829,0,0,1,8.828-8.828H503.173A8.829,8.829,0,0,1,512,97.1V414.9A8.83,8.83,0,0,1,503.172,423.725Z" fill="#ff4b55"/><path d="M257.266,256.382l-2.445,1.412c-4.236-6.1-4-21.02-4-21.19a1.013,1.013,0,0,0-.619-1.017l-18.327-8.021.1-1.881c9.557,1.1,20.606,5.548,20.759,5.624a1.014,1.014,0,0,0,1.187-.1l15.208-12.68,3.273,2.925c-4.742,5.824-16.279,13.869-16.428,13.952a1.013,1.013,0,0,0-.589,1.035Z" fill="#ffe15a"/><path d="M323.765,166.041a1.1,1.1,0,0,0,1.16-.1L328.9,163l-1.262,3.668a1.126,1.126,0,0,0,.309,1.185l1.871,1.672a6.706,6.706,0,0,0-.8,3.3l-2.773,1.408a1.117,1.117,0,0,0-.522.564l-2.068,5.007-1.133-4.152a1.1,1.1,0,0,0-1.216-.806l-4.99.682,4.051-4.588a1.109,1.109,0,0,0,.264-.9l-.9-6.059Z" fill="#ffe15a"/><path d="M278.562,329.545a1.1,1.1,0,0,0-.48,1.06l.643,4.9-2.594-2.884a1.123,1.123,0,0,0-1.186-.3l-2.37.824a6.7,6.7,0,0,0-2.5-2.3l.115-3.107a1.119,1.119,0,0,0-.239-.73l-3.374-4.238,4.18,1.024a1.1,1.1,0,0,0,1.294-.672l1.825-4.694,2.046,5.768a1.106,1.106,0,0,0,.654.665l5.736,2.152Z" fill="#ffe15a"/><path d="M157.188,214.6a1.106,1.106,0,0,0-.735-.9l-4.673-1.614,3.74-1.032a1.122,1.122,0,0,0,.8-.925l.321-2.488a6.706,6.706,0,0,0,3.172-1.207l2.729,1.492a1.109,1.109,0,0,0,.76.111l5.3-1.124-2.784,3.282a1.094,1.094,0,0,0,.023,1.458l3.384,3.731-6.074-.747a1.108,1.108,0,0,0-.888.288l-4.488,4.17Z" fill="#ffe15a"/><path d="M254.4,364.643c-2.7,5.442-8.538,9.954-10,10.22a.765.765,0,0,1-.707-.266c-.664-.753-.973-2.787-.088-5.486.088-.266.178-.619.31-1.017Z" fill="#f5f5f5"/><path d="M256.345,359.024c-.354,1.062-.664,2.123-.885,2.92l-10.795,3.584q.465-1.459.929-3.186Z" fill="#f5f5f5"/><path d="M258.734,352.963q-.8,1.793-1.46,3.451L246.3,359.776c.31-1.194.664-2.433.973-3.672Z" fill="#ffe15a"/><path d="M260.9,348.584c-.31.575-.619,1.151-.929,1.77L247.9,353.628c.531-2.079.973-4.115,1.327-5.884Z" fill="#f5f5f5"/><path d="M264.309,343.982a14.891,14.891,0,0,0-2.035,2.477l-12.7-.929a21.227,21.227,0,0,0,.309-2.92c0-.575-.044-1.106-.088-1.682.487.044,1.017.044,1.46.044a15.31,15.31,0,0,0,7.079-1.416A11.164,11.164,0,0,0,264.309,343.982Z" fill="#f5f5f5"/><path d="M266.876,342.168a9.166,9.166,0,0,1-6.726-3.893,6.764,6.764,0,0,0,2.035-2.876c1.327-3.716-7.919-9.512-13.582-12.609-2.655-1.46-4.734-4.335-6.592-7.654a2.932,2.932,0,0,0,.619.044,9.946,9.946,0,0,0,6.282-2.345c1.062,1.77,2.035,3.406,2.92,4.822,4.026,6.814,5.885,9.91,10.176,12.919a.927.927,0,0,0,.487.177c2.079.266,8.1,1.592,8.45,4.247C271.433,338.628,270.105,340.929,266.876,342.168Z" fill="#f5f5f5"/><path d="M260.106,334.647c-.487,1.416-2.521,4.6-10.574,4.071-.708-4.6-2.743-7.875-5.973-9.379-4.2-1.991-19.91-13.228-27.076-19.91,1.416-4.513,5.132-8.184,10.4-10.132.753-.31,1.416-.575,1.991-.885a20.9,20.9,0,0,1,3.761,3.893,59.861,59.861,0,0,1,4.557,8.318c2.787,5.663,5.663,11.548,10.353,14.113C256.213,329.515,260.5,333.63,260.106,334.647Z" fill="#f5f5f5"/><path d="M247.719,310.933a7.459,7.459,0,0,1-6.99,1.77c-.531-1.017-1.017-2.035-1.548-3.052a58.056,58.056,0,0,0-4.778-8.628,20.39,20.39,0,0,0-3.672-3.893,6.708,6.708,0,0,0,2.389-5.176,52.635,52.635,0,0,1,9.778,11.414C244.8,306.243,246.347,308.72,247.719,310.933Z" fill="#f5f5f5"/><path d="M231.039,290.316a9.406,9.406,0,0,0-.088,1.151,4.929,4.929,0,0,1-1.991,4.291,43.533,43.533,0,0,0-11.68-5.663,13.3,13.3,0,0,0,3.318-5.132h.044A30.642,30.642,0,0,1,231.039,290.316Z" fill="#f5f5f5"/><path d="M226.792,296.908c-.221.088-.4.221-.664.309-5.53,2.035-9.6,5.8-11.414,10.442A64.391,64.391,0,0,1,209.758,302a18.546,18.546,0,0,0-3.938-4.115,54.277,54.277,0,0,0,9.6-6.061h.088A43.474,43.474,0,0,1,226.792,296.908Z" fill="#f5f5f5"/><path d="M213.342,290.625a55.334,55.334,0,0,1-10.088,6.061c-1.062-.266-2.123-.487-3.008-.663-2.168-.4-3.584-.708-4.69-1.947a26.16,26.16,0,0,1-3.186-5.22,2.746,2.746,0,0,0,.531.221c1.283.31,3.1-.266,5.353-1.062,2.787-.929,6.194-2.08,9.291-1.682a5.325,5.325,0,0,1,4.424,2.7A9.165,9.165,0,0,0,213.342,290.625Z" fill="#f5f5f5"/><path d="M218.606,283.989a11.334,11.334,0,0,1-3.54,5.176,4.971,4.971,0,0,1-1.283-1.416,7.484,7.484,0,0,0-5.929-3.584c-3.584-.487-7.3.753-10.308,1.77-1.682.575-3.452,1.2-4.159,1.017a2.983,2.983,0,0,1-1.77-2.567c-.044-1.372,1.2-1.991,2.212-2.3,2.3-.707,5.088-.177,7.831.31,2.787.531,5.442,1.017,7.565.177,1.46-.575,3.142-2.389,5.176-5a5.126,5.126,0,0,1,3.318,1.814A5.431,5.431,0,0,1,218.606,283.989Z" fill="#ffe15a"/><path d="M211.838,277.264a11.677,11.677,0,0,1-3.45,3.274c-1.5.619-3.849.177-6.327-.31-2.831-.531-6.061-1.106-8.849-.266a5.376,5.376,0,0,0-3.142,2.123c-.487-2.433-.487-4.778.619-6.636a28.969,28.969,0,0,1,4.071-5.22c1.991.266,3.45.664,8.494,5.088,1.726,1.5,4.513,1.682,7.212,1.814C210.908,277.175,211.4,277.22,211.838,277.264Z" fill="#f5f5f5"/><path d="M252.939,258.991c-4.956,3.274-27.032,17.785-31.634,19.688a1.307,1.307,0,0,0-.531.442c-.132.221-.221.4-.354.619a8.358,8.358,0,0,0-.885-1.636,6.54,6.54,0,0,0-3.672-2.433c.664-.841,1.327-1.726,2.035-2.7A130.43,130.43,0,0,1,228.959,259.3c7.212-7.521,16.856-12.477,20.086-13.981C249.533,250.01,250.594,255.541,252.939,258.991Z" fill="#f5f5f5"/><path d="M248.824,242.976c-2.3,1.017-13.228,6.194-21.458,14.777a132.64,132.64,0,0,0-11.238,13.892c-.929,1.239-1.814,2.433-2.655,3.54-.973-.088-1.946-.177-2.876-.221-2.433-.177-4.734-.31-5.885-1.327-4.247-3.716-6.239-4.822-8.141-5.309.178-.177.31-.354.487-.531a45.81,45.81,0,0,0,8.008-9.91c3.981-7.123,17.3-22.653,25.971-28.271l17.565,7.7C248.6,238.375,248.648,240.455,248.824,242.976Z" fill="#f5f5f5"/><path d="M136.587,177.3c-3.662-4.846-5.089-12.087-4.674-13.512a.767.767,0,0,1,.554-.514c.97-.257,2.929.375,4.948,2.372.2.2.474.435.771.732Z" fill="#f5f5f5"/><path d="M140.744,181.55c-.791-.791-1.6-1.543-2.217-2.1l1.619-11.258q1.1,1.068,2.434,2.254Z" fill="#f5f5f5"/><path d="M145.1,186.4q-1.248-1.514-2.434-2.848l1.9-11.318c.93.811,1.88,1.682,2.85,2.511Z" fill="#ffe15a"/><path d="M148.047,190.293c-.376-.534-.753-1.068-1.167-1.622l2.468-12.268c1.623,1.4,3.246,2.709,4.671,3.817Z" fill="#f5f5f5"/><path d="M150.642,195.4a14.77,14.77,0,0,0-1.308-2.927l6.505-10.944a21.261,21.261,0,0,0,2.474,1.582c.514.257,1.01.455,1.544.672-.257.416-.494.89-.692,1.287a15.32,15.32,0,0,0-1.9,6.966A11.165,11.165,0,0,0,150.642,195.4Z" fill="#f5f5f5"/><path d="M151.118,198.5a9.164,9.164,0,0,1,6.488-4.276,6.779,6.779,0,0,0,1.663,3.106c2.731,2.848,12.049-2.834,17.35-6.516,2.493-1.722,5.994-2.3,9.793-2.477a3.042,3.042,0,0,0-.317.534,9.948,9.948,0,0,0-.71,6.668c-2.058.159-3.957.3-5.619.457-7.894.557-11.5.835-16.1,3.33a.916.916,0,0,0-.375.356c-1.166,1.741-5.043,6.531-7.576,5.662C152.248,204.161,150.783,201.946,151.118,198.5Z" fill="#f5f5f5"/><path d="M160.872,195.808c-1.049-1.068-2.989-4.312,1.084-11.278,4.433,1.422,8.27,1.065,11.06-1.152,3.659-2.87,20.732-11.9,29.91-15.326,3.4,3.283,5.028,8.249,4.417,13.828-.058.811-.118,1.524-.1,2.176a20.84,20.84,0,0,1-5.164,1.624,60.1,60.1,0,0,1-9.478.36c-6.312-.038-12.861-.094-17.252,2.955C167.2,194.619,161.6,196.619,160.872,195.808Z" fill="#f5f5f5"/><path d="M187.622,195.323a7.459,7.459,0,0,1,1.54-7.044c1.148-.021,2.275,0,3.423-.021a58.122,58.122,0,0,0,9.854-.419,20.415,20.415,0,0,0,5.124-1.545,6.709,6.709,0,0,0,3.563,4.45,52.644,52.644,0,0,1-14.581,3.646C193.122,194.807,190.214,195.085,187.622,195.323Z" fill="#f5f5f5"/><path d="M213.519,189.615a9.422,9.422,0,0,0-.99-.594,4.935,4.935,0,0,1-2.95-3.7,43.582,43.582,0,0,0,10.286-7.918,13.32,13.32,0,0,0,3.108,5.262l-.02.04A30.629,30.629,0,0,1,213.519,189.615Z" fill="#f5f5f5"/><path d="M209.521,182.87c.02-.237-.02-.455.02-.732.651-5.857-.9-11.179-4.241-14.878a64,64,0,0,1,7.281-1.9,18.55,18.55,0,0,0,5.44-1.684,54.2,54.2,0,0,0,1.132,11.3l-.04.079A43.452,43.452,0,0,1,209.521,182.87Z" fill="#f5f5f5"/><path d="M221.151,173.645a55.357,55.357,0,0,1-.915-11.733c.712-.831,1.385-1.683,1.938-2.394,1.325-1.761,2.234-2.89,3.837-3.326a26.171,26.171,0,0,1,6.094-.516,2.675,2.675,0,0,0-.435.376c-.851,1.01-1.146,2.889-1.442,5.263-.414,2.909-.908,6.471-2.648,9.063a5.328,5.328,0,0,1-4.392,2.752A9.076,9.076,0,0,0,221.151,173.645Z" fill="#f5f5f5"/><path d="M224.735,181.321a11.339,11.339,0,0,1-3.049-5.48,4.967,4.967,0,0,1,1.839-.515,7.484,7.484,0,0,0,5.855-3.7c2.037-2.988,2.59-6.867,3.023-10.013.237-1.761.473-3.622.948-4.175a2.982,2.982,0,0,1,3.086-.437c1.247.574,1.247,1.959,1.069,3.007-.4,2.375-2.115,4.631-3.777,6.867-1.72,2.257-3.342,4.414-3.539,6.689-.138,1.564.734,3.878,2.159,6.865a5.125,5.125,0,0,1-3.1,2.158A5.43,5.43,0,0,1,224.735,181.321Z" fill="#ffe15a"/><path d="M233.777,178.271a11.66,11.66,0,0,1-1.387-4.551c.118-1.623,1.562-3.522,3.1-5.522,1.74-2.295,3.7-4.928,4.192-7.8a5.364,5.364,0,0,0-.5-3.759c2.394.652,4.492,1.7,5.66,3.52a29.044,29.044,0,0,1,2.851,5.974c-1.128,1.663-2.136,2.791-8.348,5.325-2.116.872-3.521,3.286-4.845,5.641C234.271,177.479,234.014,177.9,233.777,178.271Z" fill="#f5f5f5"/><path d="M231.755,223.205c-.714-5.9-3.831-32.131-3.477-37.1a1.3,1.3,0,0,0-.159-.673c-.139-.217-.257-.375-.4-.594a8.312,8.312,0,0,0,1.86-.06,6.536,6.536,0,0,0,3.818-2.2c.456.97.95,1.959,1.505,3.027a130.265,130.265,0,0,1,7.287,16c3.506,9.813,3.628,20.655,3.531,24.216C241.391,224.879,236.372,223.807,231.755,223.205Z" fill="#f5f5f5"/><path d="M247.922,226.681c.118-2.513.371-14.6-3.63-25.8a132.542,132.542,0,0,0-7.406-16.262c-.693-1.385-1.366-2.71-1.98-3.957.514-.831,1.028-1.663,1.483-2.474,1.246-2.1,2.392-4.1,3.817-4.671,5.223-2.138,7.1-3.426,8.387-4.91.079.237.179.435.257.673a45.859,45.859,0,0,0,5.287,11.593c4.594,6.745,12.534,25.6,13.686,35.866l-14.735,12.273C252.137,228.539,250.257,227.65,247.922,226.681Z" fill="#f5f5f5"/><path d="M366.18,170.134c6.068-.281,12.847,2.635,13.789,3.783a.766.766,0,0,1,.111.748c-.335.946-1.964,2.2-4.754,2.74-.275.052-.628.146-1.039.223Z" fill="#f5f5f5"/><path d="M360.323,171.159c1.1-.205,2.179-.45,2.983-.643l8.373,7.7q-1.5.3-3.236.734Z" fill="#f5f5f5"/><path d="M353.864,172.012q1.953-.174,3.725-.4l8.265,7.961c-1.2.309-2.45.6-3.683.931Z" fill="#ffe15a"/><path d="M348.982,172.243c.653-.009,1.306-.017,2-.046l8.724,8.971c-2.076.545-4.07,1.146-5.789,1.7Z" fill="#f5f5f5"/><path d="M343.306,171.5a14.86,14.86,0,0,0,3.154.577l5.351,11.553a21.309,21.309,0,0,0-2.7,1.146c-.5.279-.946.575-1.427.893-.2-.447-.455-.911-.67-1.3a15.318,15.318,0,0,0-4.673-5.5A11.182,11.182,0,0,0,343.306,171.5Z" fill="#f5f5f5"/><path d="M340.474,170.134a9.168,9.168,0,0,1-.14,7.769,6.788,6.788,0,0,0-3.5-.384c-3.893.643-4.473,11.541-4.433,17.995.012,3.029-1.493,6.243-3.492,9.479a2.83,2.83,0,0,0-.262-.563,9.951,9.951,0,0,0-5.1-4.355c1.032-1.788,1.991-3.433,2.8-4.894,4-6.827,5.81-9.954,6.357-15.167a.926.926,0,0,0-.082-.511c-.777-1.946-2.537-7.852-.387-9.45C335.168,167.866,337.824,167.912,340.474,170.134Z" fill="#f5f5f5"/><path d="M337.183,179.7c1.474-.262,5.247-.029,8.691,7.27-3.679,2.852-5.555,6.22-5.3,9.774.3,4.641-1.9,23.828-4.267,33.336-4.632.952-9.647-.515-13.9-4.173a21.668,21.668,0,0,0-1.74-1.311,20.888,20.888,0,0,1,1.579-5.177,60.057,60.057,0,0,1,5.06-8.021c3.6-5.185,7.348-10.556,7.316-15.9C334.585,185.6,336.1,179.848,337.183,179.7Z" fill="#f5f5f5"/><path d="M322.462,202.042a7.46,7.46,0,0,1,4.94,5.252c-.632.958-1.286,1.877-1.918,2.836a57.988,57.988,0,0,0-5.224,8.365,20.413,20.413,0,0,0-1.622,5.1,6.7,6.7,0,0,0-5.685.424,52.666,52.666,0,0,1,5.235-14.089C319.778,206.871,321.193,204.315,322.462,202.042Z" fill="#f5f5f5"/><path d="M312.53,226.632a9.444,9.444,0,0,0,1.048-.481,4.932,4.932,0,0,1,4.718-.342,43.538,43.538,0,0,0,.717,12.961,13.313,13.313,0,0,0-6.1-.41l-.021-.039A30.688,30.688,0,0,1,312.53,226.632Z" fill="#f5f5f5"/><path d="M320.355,227.146c.184.15.386.241.593.43,4.463,3.848,9.727,5.581,14.669,4.913a63.947,63.947,0,0,1-2.547,7.081,18.537,18.537,0,0,0-1.686,5.44,54.125,54.125,0,0,0-9.959-5.452c-.021-.039-.021-.039-.043-.077A43.523,43.523,0,0,1,320.355,227.146Z" fill="#f5f5f5"/><path d="M321.389,241.955a55.354,55.354,0,0,1,10.2,5.878c.284,1.057.605,2.093.879,2.953.7,2.089,1.12,3.477.574,5.045a26.175,26.175,0,0,1-3.019,5.319,2.831,2.831,0,0,0-.064-.572c-.352-1.272-1.735-2.579-3.527-4.165-2.165-1.986-4.824-4.406-5.98-7.308a5.326,5.326,0,0,1,.213-5.178A8.96,8.96,0,0,0,321.389,241.955Z" fill="#f5f5f5"/><path d="M313.032,240.573a11.348,11.348,0,0,1,6.244.583,4.968,4.968,0,0,1-.616,1.809,7.484,7.484,0,0,0-.256,6.923c1.313,3.37,4.2,6.017,6.55,8.154,1.319,1.191,2.719,2.438,2.909,3.143a2.982,2.982,0,0,1-1.385,2.793c-1.177.7-2.321-.078-3.085-.818-1.736-1.668-2.624-4.363-3.53-7-.888-2.7-1.751-5.251-3.517-6.7-1.212-1-3.614-1.587-6.883-2.1a5.126,5.126,0,0,1-.024-3.782A5.426,5.426,0,0,1,313.032,240.573Z" fill="#ffe15a"/><path d="M310.438,249.754a11.657,11.657,0,0,1,4.537,1.428c1.271,1.015,2.023,3.279,2.8,5.682.91,2.733,1.974,5.836,4.062,7.865a5.372,5.372,0,0,0,3.381,1.716c-1.891,1.607-3.941,2.744-6.1,2.679a29.026,29.026,0,0,1-6.54-1.025c-.734-1.869-1.1-3.339.327-9.9.478-2.239-.721-4.761-1.914-7.186C310.81,250.61,310.613,250.163,310.438,249.754Z" fill="#f5f5f5"/><path d="M274.514,222.686c5.268,2.743,28.67,15,32.566,18.1a1.29,1.29,0,0,0,.644.249c.258.009.456,0,.714.009a8.394,8.394,0,0,0-1,1.568,6.533,6.533,0,0,0-.345,4.392c-1.057-.172-2.153-.323-3.348-.47a130.28,130.28,0,0,1-17.321-3.036c-10.076-2.655-19.09-8.683-21.972-10.777C267.631,229.881,271.838,226.2,274.514,222.686Z" fill="#f5f5f5"/><path d="M262.507,234.057c2.006,1.517,11.836,8.561,23.333,11.59a132.4,132.4,0,0,0,17.6,3.083c1.534.211,3.008.4,4.383.6.395.894.79,1.788,1.2,2.622,1.026,2.214,2.027,4.289,1.7,5.789-1.188,5.517-1.188,7.8-.691,9.7-.241-.07-.46-.1-.7-.168a45.869,45.869,0,0,0-12.552-2.193c-8.161-.024-28.2-4.131-37.323-8.986L257.661,237C258.592,236.483,260.388,235.435,262.507,234.057Z" fill="#f5f5f5"/><path d="M381.988,173a2.307,2.307,0,0,0-.318-.481c-1.714-2.084-11.742-5.93-18.855-4.158-7.68,1.935-18.135,2.425-20.726.22-3.319-2.936-7.006-3.052-10.65-.567l-1.472-1.314,2.183-6.342a1.108,1.108,0,0,0-1.707-1.25l-6.287,4.653-5.337-2.712a1.1,1.1,0,0,0-1.593,1.147l1.142,7.67-5.678,6.432a1.108,1.108,0,0,0-.146,1.255,1.4,1.4,0,0,0,1.124.574l6.976-.954,1.73,6.344a1.094,1.094,0,0,0,1,.813,1.107,1.107,0,0,0,1.092-.681l3.15-7.624,1.6-.811a25.928,25.928,0,0,0,1.273,4.817c-.534,4.6-2.306,7.6-6.008,14.062-2.158,3.678-4.794,8.227-8.235,14.793-5.728,10.921-7.571,21-5.482,29.963a21.083,21.083,0,0,1-2.574.012c-5.28-3.951-32.545-18.065-33.7-18.688-.064-.033-4.5-3.841-4.5-3.841-1.229-10.752-9.248-29.645-13.99-36.7a43.665,43.665,0,0,1-5.049-11.079,43.136,43.136,0,0,0-4.218-9.575c-4.355-6.726-17.987-5.771-21.272-4.938-2.335.615-3.6,2.257-5.044,4.157-.574.753-1.226,1.564-2.037,2.494-1.345,1.5-3.224,1.9-6.252,2.516a67.822,67.822,0,0,0-9.259,2.5c-9.14,3.247-27.339,12.95-31.217,15.959-3.818,2.989-9.378.953-12.346-.53-4.2-2.1-16.863-13.666-20.307-17.067-2.4-2.334-5.106-3.441-7.1-2.9a2.875,2.875,0,0,0-1.879,1.484,2.307,2.307,0,0,0-.217.534c-.751,2.592,1.746,13.038,7.229,17.9,5.938,5.241,12.253,13.588,11.9,16.972-.546,4.4,1.443,7.505,5.554,9.107l-.252,1.956-6.464,1.784a1.112,1.112,0,0,0-.694.573,1.093,1.093,0,0,0-.116.459,1.106,1.106,0,0,0,.745,1.081l7.392,2.556.78,5.937a1.105,1.105,0,0,0,1.848.666l5.682-5.278,8.515,1.047a1.109,1.109,0,0,0,1.118-.588,1.4,1.4,0,0,0-.162-1.252l-4.732-5.215,4.255-5.013a1.094,1.094,0,0,0,.107-1.282,1.1,1.1,0,0,0-1.178-.516l-8.071,1.711-1.571-.86a25.938,25.938,0,0,0,3.254-3.773c4.1-2.158,7.577-2.4,15-2.994,4.254-.3,9.5-.7,16.857-1.569,12.247-1.449,21.6-5.628,27.815-12.416a20.709,20.709,0,0,1,1.464,2.116c-.275,6.589,3.5,37.057,3.636,38.364.009.068-.065,3.292-.065,3.292-9.067,5.931-22.324,21.457-26.511,28.838a43.685,43.685,0,0,1-7.655,9.468,43.182,43.182,0,0,0-6.68,8.052c-4.071,6.9,2.876,18.67,5.088,21.237,1.592,1.814,3.628,2.212,5.973,2.655.929.177,1.947.4,3.142.707,1.946.531,3.142,2.035,5.044,4.469a67.777,67.777,0,0,0,6.371,7.167c6.99,6.726,23.8,18.67,28.227,20.794,4.38,2.08,5.044,7.964,5.044,11.282,0,4.69-4.69,21.193-6.194,25.793-1.017,3.186-.8,6.105.575,7.654a2.879,2.879,0,0,0,2.168,1.017,2.349,2.349,0,0,0,.575-.044c2.655-.487,10.883-7.389,12.787-14.467,2.035-7.654,6.68-17.033,9.866-18.228,4.178-1.476,6.069-4.644,5.665-9.037l1.863-.649,4.484,4.987a1.113,1.113,0,0,0,.823.365,1.081,1.081,0,0,0,.462-.1,1.111,1.111,0,0,0,.636-1.15l-1.017-7.755,4.962-3.35a1.105,1.105,0,0,0-.228-1.951l-7.261-2.724-2.869-8.086a1.108,1.108,0,0,0-1.026-.737,1.406,1.406,0,0,0-1.048.7l-2.553,6.566-6.386-1.566a1.093,1.093,0,0,0-1.2.478,1.109,1.109,0,0,0,.065,1.286l5.138,6.455-.066,1.79a25.885,25.885,0,0,0-4.83-1.225c-3.761-2.7-5.53-5.707-9.379-12.078-2.168-3.672-4.867-8.185-8.937-14.379-6.77-10.308-14.689-16.812-23.538-19.335a20.972,20.972,0,0,1,1.239-2.257c6.017-2.7,31.59-19.688,32.7-20.4.015-.01.013-.035.028-.046l3.459-2c9.589,5.048,29.634,9.1,38.119,9.175a43.658,43.658,0,0,1,11.992,2.1,43.15,43.15,0,0,0,10.283,1.933c8.01.209,14.929-11.576,16.1-14.755.813-2.273.173-4.246-.578-6.51-.3-.9-.6-1.9-.906-3.091-.481-1.96.255-3.734,1.459-6.579a67.779,67.779,0,0,0,3.175-9.048c2.487-9.376,4.772-29.873,4.482-34.772-.308-4.839,4.515-8.275,7.416-9.885,4.1-2.276,20.806-6.185,25.558-7.1,3.279-.657,5.725-2.266,6.413-4.217A2.893,2.893,0,0,0,381.988,173Zm-52.97-.168-2.773,1.408a1.117,1.117,0,0,0-.522.564l-2.068,5.007-1.133-4.152a1.1,1.1,0,0,0-1.215-.806l-4.991.682,4.051-4.588a1.106,1.106,0,0,0,.264-.9l-.9-6.059,4.036,2.051a1.106,1.106,0,0,0,1.16-.1L328.9,163l-1.262,3.668a1.126,1.126,0,0,0,.309,1.185l1.871,1.672A6.721,6.721,0,0,0,329.018,172.829Zm-2.673,22.352c4-6.827,5.81-9.954,6.357-15.167a.93.93,0,0,0-.082-.512c-.777-1.947-2.537-7.852-.387-9.45,2.936-2.187,5.591-2.142,8.242.081a9.168,9.168,0,0,1-.14,7.769,6.788,6.788,0,0,0-3.5-.384c-3.893.643-4.473,11.541-4.433,17.995.012,3.03-1.493,6.243-3.492,9.479a2.83,2.83,0,0,0-.262-.563,9.951,9.951,0,0,0-5.1-4.355C324.577,198.287,325.536,196.642,326.345,195.181Zm-8.158,14.75c1.591-3.059,3.006-5.615,4.275-7.889a7.459,7.459,0,0,1,4.94,5.254c-.632.958-1.286,1.878-1.918,2.836a58.088,58.088,0,0,0-5.225,8.365,20.413,20.413,0,0,0-1.622,5.1,6.7,6.7,0,0,0-5.685.424A52.612,52.612,0,0,1,318.187,209.931Zm-5.657,16.7a9.093,9.093,0,0,0,1.048-.481,4.932,4.932,0,0,1,4.718-.342,43.538,43.538,0,0,0,.717,12.961,13.313,13.313,0,0,0-6.1-.41l-.022-.039A30.709,30.709,0,0,1,312.53,226.632Zm-4.806,14.406c.258.009.456,0,.714.009a8.343,8.343,0,0,0-1,1.568,6.538,6.538,0,0,0-.345,4.392c-1.057-.172-2.153-.323-3.348-.47a130.279,130.279,0,0,1-17.321-3.036c-10.077-2.655-19.09-8.683-21.972-10.777,2.771-2.641,6.781-5.751,10.063-10.039,5.268,2.743,28.67,15,32.566,18.1A1.3,1.3,0,0,0,307.724,241.038Zm-50.458,15.344-2.445,1.412c-4.236-6.1-4-21.02-4-21.19a1.013,1.013,0,0,0-.619-1.017l-18.327-8.021.1-1.881c9.557,1.1,20.606,5.548,20.759,5.624a1.014,1.014,0,0,0,1.187-.1l15.208-12.68,3.273,2.925c-4.742,5.824-16.279,13.869-16.428,13.952a1.013,1.013,0,0,0-.589,1.035Zm-8.673-87.773c.079.237.179.436.257.672a45.811,45.811,0,0,0,5.287,11.593c4.593,6.745,12.534,25.6,13.685,35.866l-14.735,12.273c-.95-.474-2.83-1.364-5.165-2.333.118-2.513.371-14.6-3.63-25.8a132.693,132.693,0,0,0-7.406-16.262c-.693-1.385-1.366-2.71-1.98-3.957.514-.831,1.028-1.663,1.483-2.474,1.246-2.1,2.392-4.1,3.817-4.671C245.428,171.381,247.307,170.093,248.593,168.609Zm-3.743-8.447a29.044,29.044,0,0,1,2.851,5.974c-1.127,1.663-2.135,2.791-8.348,5.325-2.116.872-3.521,3.286-4.845,5.641-.237.376-.494.792-.732,1.167a11.66,11.66,0,0,1-1.387-4.551c.118-1.623,1.562-3.522,3.1-5.522,1.74-2.295,3.7-4.928,4.192-7.8a5.359,5.359,0,0,0-.5-3.759C241.583,157.294,243.681,158.343,244.85,160.162Zm-22.675-.644c1.325-1.761,2.234-2.89,3.837-3.326a26.171,26.171,0,0,1,6.094-.516,2.675,2.675,0,0,0-.435.376c-.851,1.01-1.146,2.889-1.442,5.263-.415,2.909-.908,6.471-2.648,9.064a5.328,5.328,0,0,1-4.392,2.752,9.018,9.018,0,0,0-2.038.515,55.357,55.357,0,0,1-.915-11.733C220.948,161.081,221.621,160.231,222.175,159.518Zm-9.6,5.84a18.6,18.6,0,0,0,5.441-1.684,54.13,54.13,0,0,0,1.132,11.3l-.04.079a43.485,43.485,0,0,1-9.593,7.819c.02-.237-.02-.456.02-.732.651-5.857-.9-11.179-4.239-14.878A64.261,64.261,0,0,1,212.58,165.358Zm-39.565,18.02c3.659-2.87,20.732-11.9,29.91-15.326,3.4,3.283,5.028,8.248,4.417,13.828-.058.811-.118,1.524-.1,2.176a20.84,20.84,0,0,1-5.164,1.624,60.1,60.1,0,0,1-9.478.36c-6.312-.038-12.861-.094-17.252,2.954-8.15,5.622-13.748,7.623-14.481,6.812-1.049-1.068-2.989-4.312,1.085-11.278C166.388,185.953,170.227,185.6,173.015,183.378Zm-36.428-6.08c-3.662-4.846-5.089-12.087-4.674-13.512a.769.769,0,0,1,.554-.514c.97-.257,2.929.375,4.948,2.372.2.2.474.435.771.732Zm4.157,4.252c-.792-.791-1.6-1.543-2.217-2.1l1.619-11.258q1.1,1.068,2.434,2.254Zm1.92,2,1.9-11.318c.93.811,1.88,1.682,2.85,2.511L145.1,186.4Q143.851,184.883,142.664,183.547Zm5.383,6.746c-.376-.534-.753-1.068-1.167-1.622l2.468-12.268c1.623,1.4,3.246,2.709,4.671,3.817Zm1.288,2.176,6.506-10.944a21.261,21.261,0,0,0,2.474,1.582c.514.257,1.01.455,1.544.672-.257.415-.494.89-.692,1.287a15.319,15.319,0,0,0-1.9,6.965,11.171,11.171,0,0,0-6.627,3.366A14.894,14.894,0,0,0,149.335,192.469Zm13.211,15.451a1.1,1.1,0,0,0,.76.111l5.3-1.124-2.784,3.282a1.094,1.094,0,0,0,.023,1.458l3.384,3.731-6.074-.747a1.1,1.1,0,0,0-.887.288l-4.488,4.17-.59-4.489a1.106,1.106,0,0,0-.735-.9l-4.673-1.614,3.74-1.033a1.122,1.122,0,0,0,.8-.925l.321-2.488a6.706,6.706,0,0,0,3.172-1.207ZM186.1,188.874a9.948,9.948,0,0,0-.71,6.668c-2.058.159-3.957.3-5.619.457-7.894.557-11.5.835-16.1,3.33a.91.91,0,0,0-.375.356c-1.166,1.741-5.043,6.531-7.576,5.662-3.464-1.186-4.928-3.4-4.593-6.845a9.164,9.164,0,0,1,6.488-4.276,6.779,6.779,0,0,0,1.663,3.106c2.731,2.848,12.049-2.834,17.35-6.516,2.493-1.722,5.994-2.3,9.793-2.477A3.035,3.035,0,0,0,186.1,188.874Zm10.45,5.516c-3.423.417-6.332.7-8.924.934a7.462,7.462,0,0,1,1.54-7.044c1.148-.021,2.275,0,3.423-.021a58.02,58.02,0,0,0,9.854-.419,20.362,20.362,0,0,0,5.124-1.545,6.709,6.709,0,0,0,3.563,4.45A52.708,52.708,0,0,1,196.545,194.39Zm26.41-11.683a30.65,30.65,0,0,1-9.436,6.909,9.422,9.422,0,0,0-.99-.594,4.935,4.935,0,0,1-2.95-3.7,43.529,43.529,0,0,0,10.285-7.918,13.32,13.32,0,0,0,3.108,5.262S222.975,182.667,222.955,182.707Zm1.78-1.386a11.353,11.353,0,0,1-3.049-5.48,4.967,4.967,0,0,1,1.839-.515,7.484,7.484,0,0,0,5.855-3.7c2.037-2.988,2.59-6.867,3.023-10.013.237-1.761.473-3.622.948-4.175a2.982,2.982,0,0,1,3.086-.437c1.247.574,1.247,1.959,1.069,3.007-.4,2.375-2.115,4.631-3.776,6.867-1.72,2.257-3.342,4.414-3.539,6.689-.138,1.564.734,3.878,2.159,6.866a5.125,5.125,0,0,1-3.1,2.158A5.435,5.435,0,0,1,224.735,181.321Zm3.543,4.786a1.3,1.3,0,0,0-.159-.673c-.139-.217-.257-.375-.4-.594a8.3,8.3,0,0,0,1.859-.06,6.536,6.536,0,0,0,3.818-2.2c.456.97.95,1.959,1.505,3.027a130.333,130.333,0,0,1,7.287,16c3.506,9.813,3.628,20.655,3.531,24.217-4.289-.931-8.644-1.9-13.97-2.626C231.041,217.309,227.925,191.074,228.278,186.107ZM197.06,267.8a45.81,45.81,0,0,0,8.008-9.91c3.981-7.123,17.3-22.653,25.971-28.271l17.565,7.7c0,1.062.044,3.142.221,5.663-2.3,1.017-13.228,6.194-21.458,14.777a132.64,132.64,0,0,0-11.238,13.892c-.929,1.239-1.814,2.433-2.655,3.54-.973-.088-1.946-.177-2.876-.221-2.433-.177-4.734-.31-5.885-1.327-4.247-3.716-6.239-4.822-8.141-5.309C196.75,268.15,196.883,267.973,197.06,267.8Zm-6.99,14.291c-.487-2.433-.487-4.778.619-6.636a29,29,0,0,1,4.071-5.22c1.991.266,3.45.664,8.494,5.088,1.726,1.5,4.513,1.682,7.212,1.814.442.044.929.088,1.372.132a11.677,11.677,0,0,1-3.45,3.274c-1.5.619-3.849.177-6.327-.31-2.831-.531-6.061-1.106-8.849-.266A5.365,5.365,0,0,0,190.07,282.087Zm3.761,0c2.3-.707,5.088-.177,7.831.31,2.787.531,5.442,1.017,7.565.177,1.46-.575,3.142-2.389,5.176-5a5.126,5.126,0,0,1,3.318,1.814,5.436,5.436,0,0,1,.885,4.6,11.334,11.334,0,0,1-3.54,5.176,4.971,4.971,0,0,1-1.283-1.416,7.484,7.484,0,0,0-5.929-3.584c-3.584-.487-7.3.753-10.308,1.77-1.682.575-3.452,1.2-4.159,1.017a2.983,2.983,0,0,1-1.77-2.567C191.574,283.016,192.813,282.4,193.831,282.087Zm9.423,14.6c-1.062-.266-2.123-.487-3.008-.663-2.168-.4-3.584-.708-4.69-1.947a26.16,26.16,0,0,1-3.186-5.22,2.746,2.746,0,0,0,.531.221c1.283.31,3.1-.266,5.353-1.062,2.787-.929,6.194-2.08,9.291-1.682a5.325,5.325,0,0,1,4.424,2.7,9.031,9.031,0,0,0,1.372,1.592A55.258,55.258,0,0,1,203.254,296.686Zm6.5,5.31a18.546,18.546,0,0,0-3.938-4.115,54.277,54.277,0,0,0,9.6-6.061h.088a43.531,43.531,0,0,1,11.282,5.088c-.221.088-.4.221-.664.309-5.53,2.035-9.6,5.8-11.414,10.442A64.192,64.192,0,0,1,209.758,302Zm33.8,27.341c-4.2-1.991-19.91-13.228-27.076-19.91,1.416-4.513,5.132-8.184,10.4-10.132.753-.31,1.416-.575,1.991-.885a20.9,20.9,0,0,1,3.761,3.893,59.861,59.861,0,0,1,4.557,8.318c2.787,5.663,5.663,11.548,10.353,14.113,8.672,4.778,12.963,8.893,12.565,9.91-.487,1.416-2.521,4.6-10.574,4.071C248.824,334.116,246.79,330.842,243.56,329.337Zm.839,45.526a.765.765,0,0,1-.707-.266c-.664-.753-.973-2.787-.088-5.486.088-.266.178-.619.31-1.017l10.486-3.451C251.7,370.085,245.86,374.6,244.4,374.863Zm11.061-12.919-10.795,3.584q.465-1.459.929-3.186l10.751-3.318C255.991,360.086,255.682,361.149,255.46,361.944Zm1.814-5.53L246.3,359.776c.31-1.194.664-2.433.973-3.672l11.458-3.142Q257.94,354.756,257.274,356.414Zm2.7-6.062L247.9,353.626c.531-2.079.973-4.115,1.327-5.884l11.68.841C260.593,349.159,260.284,349.733,259.974,350.352Zm2.3-3.893-12.7-.929a21.227,21.227,0,0,0,.309-2.92c0-.575-.044-1.106-.088-1.682.487.044,1.017.044,1.46.044a15.31,15.31,0,0,0,7.079-1.416,11.169,11.169,0,0,0,5.973,4.424A14.9,14.9,0,0,0,262.274,346.459Zm4.306-23.692,4.18,1.024a1.1,1.1,0,0,0,1.294-.672l1.825-4.694,2.046,5.768a1.106,1.106,0,0,0,.654.665l5.736,2.152-3.753,2.534a1.1,1.1,0,0,0-.48,1.06l.643,4.9-2.594-2.884a1.123,1.123,0,0,0-1.186-.3l-2.37.824a6.7,6.7,0,0,0-2.5-2.3l.115-3.107a1.119,1.119,0,0,0-.239-.73Zm-14.748-5.11c4.026,6.814,5.885,9.91,10.176,12.919a.927.927,0,0,0,.487.177c2.079.266,8.1,1.592,8.45,4.247.487,3.628-.841,5.929-4.071,7.167a9.163,9.163,0,0,1-6.725-3.893,6.764,6.764,0,0,0,2.035-2.876c1.327-3.716-7.919-9.512-13.582-12.609-2.655-1.46-4.734-4.335-6.592-7.654a2.932,2.932,0,0,0,.619.044,9.946,9.946,0,0,0,6.282-2.345C249.974,314.605,250.948,316.242,251.832,317.657ZM242.9,303.368c1.9,2.876,3.45,5.354,4.822,7.565a7.459,7.459,0,0,1-6.99,1.77c-.531-1.017-1.017-2.035-1.548-3.052a58.056,58.056,0,0,0-4.778-8.628,20.39,20.39,0,0,0-3.672-3.893,6.708,6.708,0,0,0,2.389-5.176A52.581,52.581,0,0,1,242.9,303.368Zm-11.856-13.052a9.406,9.406,0,0,0-.088,1.151,4.929,4.929,0,0,1-1.991,4.291,43.533,43.533,0,0,0-11.68-5.663,13.3,13.3,0,0,0,3.318-5.132h.044A30.642,30.642,0,0,1,231.039,290.316ZM221.3,278.68a1.307,1.307,0,0,0-.531.442c-.132.221-.221.4-.354.619a8.358,8.358,0,0,0-.885-1.636,6.54,6.54,0,0,0-3.672-2.433c.664-.841,1.327-1.726,2.035-2.7A130.427,130.427,0,0,1,228.959,259.3c7.212-7.521,16.856-12.477,20.086-13.981.487,4.69,1.548,10.22,3.893,13.671C247.983,262.265,225.907,276.777,221.3,278.68Zm89.417-20.937c-1.188,5.517-1.19,7.8-.691,9.694-.241-.068-.46-.1-.7-.168a45.869,45.869,0,0,0-12.552-2.193c-8.16-.024-28.2-4.131-37.323-8.986L257.662,237c.928-.515,2.724-1.564,4.844-2.942,2.006,1.517,11.836,8.561,23.334,11.59a132.4,132.4,0,0,0,17.6,3.083c1.534.212,3.008.4,4.383.6.395.894.79,1.788,1.2,2.622C310.053,254.167,311.053,256.244,310.722,257.743Zm8.393,11.382a29.026,29.026,0,0,1-6.54-1.025c-.734-1.869-1.1-3.339.327-9.9.478-2.239-.721-4.761-1.914-7.186-.177-.408-.374-.855-.549-1.263a11.654,11.654,0,0,1,4.537,1.429c1.272,1.014,2.023,3.279,2.8,5.682.91,2.733,1.975,5.836,4.063,7.865a5.372,5.372,0,0,0,3.381,1.716C323.327,268.053,321.276,269.191,319.115,269.125Zm7.362-5.149c-1.177.7-2.321-.078-3.085-.818-1.736-1.668-2.624-4.363-3.53-7-.888-2.7-1.751-5.252-3.517-6.7-1.212-1-3.614-1.587-6.883-2.1a5.126,5.126,0,0,1-.024-3.782,5.432,5.432,0,0,1,3.593-3.007,11.348,11.348,0,0,1,6.244.583,4.985,4.985,0,0,1-.615,1.809,7.484,7.484,0,0,0-.256,6.923c1.314,3.37,4.2,6.017,6.55,8.154,1.319,1.191,2.719,2.438,2.908,3.143A2.978,2.978,0,0,1,326.477,263.976Zm6.561-8.146a26.206,26.206,0,0,1-3.018,5.32,2.753,2.753,0,0,0-.064-.572c-.352-1.272-1.735-2.579-3.527-4.165-2.165-1.986-4.824-4.406-5.98-7.308a5.329,5.329,0,0,1,.212-5.178,9.112,9.112,0,0,0,.727-1.972,55.354,55.354,0,0,1,10.2,5.878c.284,1.057.605,2.093.881,2.953C333.169,252.874,333.585,254.262,333.038,255.83Zm.032-16.26a18.572,18.572,0,0,0-1.687,5.44,54.126,54.126,0,0,0-9.959-5.452c-.021-.039-.021-.039-.043-.077a43.467,43.467,0,0,1-1.026-12.333c.184.15.386.241.593.43,4.463,3.848,9.727,5.581,14.669,4.913A64.254,64.254,0,0,1,333.07,239.57Zm7.5-42.823c.3,4.641-1.9,23.828-4.267,33.336-4.632.952-9.647-.515-13.9-4.173a21.668,21.668,0,0,0-1.74-1.311,20.888,20.888,0,0,1,1.579-5.177,60.057,60.057,0,0,1,5.06-8.021c3.6-5.185,7.348-10.556,7.316-15.9-.031-9.9,1.484-15.65,2.567-15.8,1.474-.262,5.247-.029,8.691,7.27C342.2,189.824,340.32,193.193,340.572,196.747Zm8.535-11.974c-.5.279-.946.575-1.427.893-.2-.447-.455-.911-.67-1.3a15.318,15.318,0,0,0-4.673-5.5,11.173,11.173,0,0,0,.97-7.369,14.86,14.86,0,0,0,3.154.577l5.351,11.553A21.023,21.023,0,0,0,349.107,184.773Zm4.809-1.911-4.934-10.621c.653-.009,1.306-.017,2-.046l8.724,8.971C357.629,181.712,355.635,182.314,353.916,182.862Zm8.256-2.356-8.308-8.494q1.953-.174,3.725-.4l8.265,7.961C364.66,179.884,363.4,180.176,362.172,180.506Zm6.269-1.557-8.119-7.789c1.1-.205,2.179-.45,2.983-.643l8.373,7.7Q370.176,178.516,368.441,178.949Zm6.885-1.544c-.275.051-.627.146-1.039.223l-8.106-7.494c6.068-.281,12.847,2.635,13.789,3.783a.766.766,0,0,1,.111.748C379.745,175.61,378.115,176.868,375.326,177.4Z" fill="#464655"/></g></svg>