<svg xmlns="http://www.w3.org/2000/svg" width="512" height="335.449" viewBox="0 0 512 335.449"><g transform="translate(0 -88.276)"><path d="M503.172,423.725H8.828A8.829,8.829,0,0,1,0,414.9V97.1a8.829,8.829,0,0,1,8.828-8.828H503.173A8.829,8.829,0,0,1,512,97.1V414.9A8.83,8.83,0,0,1,503.172,423.725Z" fill="#41479b"/><rect width="512" height="211.86" transform="translate(0 150.071)" fill="#f5f5f5"/><path d="M301.869,256,324.8,216.28H278.937L256,176.553,233.064,216.28H187.2L210.132,256,187.2,295.722h45.865L256,335.449l22.936-39.727H324.8Zm.433-26.73-7.933,13.74-7.933-13.74ZM286.869,256l-15.433,26.73H240.563L225.131,256l15.433-26.73h30.873ZM256,202.535l7.936,13.746H248.064Zm-46.3,26.736h15.865l-7.933,13.74Zm0,53.46,7.933-13.74,7.933,13.74ZM256,309.467l-7.936-13.746h15.872Zm38.369-40.476,7.933,13.74H286.437Z" fill="#41479b"/></g></svg>