<svg xmlns="http://www.w3.org/2000/svg" width="512" height="335.45" viewBox="0 0 512 335.45"><g transform="translate(0 -88.275)"><path d="M503.172,88.276H8.828A8.828,8.828,0,0,0,0,97.1V414.9a8.829,8.829,0,0,0,8.828,8.828H503.173A8.829,8.829,0,0,0,512,414.9V97.1A8.829,8.829,0,0,0,503.172,88.276Z" fill="#73af00"/><path d="M512,97.1a8.829,8.829,0,0,0-8.828-8.828h-39.5L256,224.337,48.329,88.276H8.828A8.828,8.828,0,0,0,0,97.1v22.836L207.671,256,0,392.061V414.9a8.829,8.829,0,0,0,8.828,8.828h39.5L256,287.663,463.671,423.724h39.5A8.829,8.829,0,0,0,512,414.9V392.06L304.329,256,512,119.939Z" fill="#ffe15a"/><path d="M512,119.939V392.061L304.329,256Z" fill="#464655"/><path d="M0,392.061V119.939L207.671,256Z" fill="#464655"/></g></svg>