<svg xmlns="http://www.w3.org/2000/svg" width="512" height="335.449" viewBox="0 0 512 335.449"><g transform="translate(0 -88.276)"><path d="M503.172,423.725H8.828A8.829,8.829,0,0,1,0,414.9V97.1a8.829,8.829,0,0,1,8.828-8.828H503.173A8.829,8.829,0,0,1,512,97.1V414.9A8.83,8.83,0,0,1,503.172,423.725Z" fill="#f5f5f5"/><path d="M512,97.1a8.829,8.829,0,0,0-8.828-8.828H479.783L256,234.894,32.216,88.277H8.828A8.828,8.828,0,0,0,0,97.1v12.279L223.784,256,0,402.618V414.9a8.829,8.829,0,0,0,8.828,8.828H32.217L256,277.108,479.784,423.725h23.389A8.829,8.829,0,0,0,512,414.9V402.618L288.216,256,512,109.384Z" fill="#ff4b55"/><path d="M282.557,126.861s-2.8-4.193-6.988-1.4c0,0,4.849,3.495,1.572,7.164-3.467,3.883-8.233.085-8.532-2.7a2.454,2.454,0,1,0-1.032-.139c-.6,2.382-6.849,4.205-8.65.26-2.028-4.441,1.18-8.212,5.5-7.688,0,0-.83-5.5-6.682-3.189,0,0,2.446-6.29-1.747-10.483-4.193,4.193-1.747,10.483-1.747,10.483-5.853-2.315-6.682,3.189-6.682,3.189,4.324-.524,7.531,3.245,5.5,7.688-1.8,3.945-8.049,2.122-8.65-.26a2.47,2.47,0,1,0-1.032.139c-.3,2.783-5.066,6.581-8.532,2.7-3.276-3.669,1.572-7.164,1.572-7.164-4.193-2.795-6.988,1.4-6.988,1.4-1.4-5.591-6.988-4.193-6.988-4.193,5.591,6.988,9.7,21.4,9.7,21.4h47.687s4.11-14.415,9.7-21.4C289.545,122.668,283.954,121.27,282.557,126.861Z" fill="#ffe15a"/><path d="M279.843,144.072a71.741,71.741,0,0,0-47.686,0C219.65,198.871,256,213.518,256,213.518S292.35,198.871,279.843,144.072Z" fill="#ff4b55"/><path d="M238.561,163.568a2.854,2.854,0,0,0-2.143.582s-.349-1.378,1.444-1.71S238.561,163.568,238.561,163.568Z" fill="#82afff"/><path d="M237.181,161.825a2.854,2.854,0,0,0-2.163-.5s.344-1.379,2.082-.824S237.181,161.825,237.181,161.825Z" fill="#82afff"/><path d="M237.932,162.539a3.351,3.351,0,0,0-2.342.582s-.381-1.378,1.579-1.71S237.932,162.539,237.932,162.539Z" fill="#82afff"/><path d="M259.623,166.2a2.854,2.854,0,0,0-1.95,1.062s-.658-1.26,1.01-2S259.623,166.2,259.623,166.2Z" fill="#82afff"/><path d="M257.914,164.7a2.854,2.854,0,0,0-2.22.014s.015-1.422,1.834-1.284S257.914,164.7,257.914,164.7Z" fill="#82afff"/><path d="M258.773,165.344a3.348,3.348,0,0,0-2.144,1.107s-.69-1.252,1.141-2.029S258.773,165.344,258.773,165.344Z" fill="#82afff"/><path d="M272.931,166.92s-.436,0-1.217.735c0,0-.559-1.25,1.087-1.864S272.931,166.92,272.931,166.92Z" fill="#82afff"/><path d="M272.1,165.2a2.749,2.749,0,0,0-2.135-.116s.1-1.366,1.838-1.129S272.1,165.2,272.1,165.2Z" fill="#82afff"/><path d="M272.883,165.874a3.226,3.226,0,0,0-2.125.94s-.59-1.245,1.215-1.886S272.883,165.874,272.883,165.874Z" fill="#82afff"/><path d="M236.644,154.92a3.11,3.11,0,0,0-2.387-.329s.238-1.519,2.17-1.091S236.644,154.92,236.644,154.92Z" fill="#82afff"/><path d="M236.557,152.3a2.833,2.833,0,0,0-2.131-1.163,1.752,1.752,0,0,1,2.588-.335C238.664,151.9,236.557,152.3,236.557,152.3Z" fill="#82afff"/><path d="M236.563,153.69a3.475,3.475,0,0,0-2.577-.518s.33-1.6,2.408-1.011S236.563,153.69,236.563,153.69Z" fill="#82afff"/><path d="M269.568,158.486c1.844.05,4.035-.681,4.384-2.591.4-2.2-1.479-3.3-4-3.206-1.842.073-6.507,1.131-9.848,1.013-3.3-.116-3.395-3.386,1.611-3.039,7.424.515,8.6-.448,8.6-.448-3.986.747-5.58-.648-9.815-.648s-5.048,2.933-3.338,4.534c1.916,1.794,8.868.6,10.712.249s4.182-.367,4.367.93c.165,1.163-2.923,1.1-5.111,1.016-3.482-.134-8.55.811-13.058,1.044-3.756.194-4.279-.865-5.134-1.95a2.444,2.444,0,0,0,.314-1.19,2.412,2.412,0,0,0-.088-.625,3.077,3.077,0,0,0,.718-1.618,3.111,3.111,0,0,0-1.687.2,3.635,3.635,0,0,0-4.412,0,3.122,3.122,0,0,0-1.687-.2,3.092,3.092,0,0,0,.718,1.618,2.394,2.394,0,0,0-.088.625,2.6,2.6,0,0,0,.983,2,1.662,1.662,0,0,1,.584.941l.1.531a.78.78,0,0,0,.391.526,7.072,7.072,0,0,1-5.314-3.347c-.849-1.22-1.378-3.919-2.674-4.218l-.764,4.07s1.637,3.786,4.683,5.331a45.3,45.3,0,0,0,5.215,2.292c.132.6-2.126.963-4.418.5-1.6-.324-3.756-2.648-4.984-2.482l1.431,3.179a13.53,13.53,0,0,0,10.2,1.993,3.665,3.665,0,0,0,2.978-2.76c.841-.156,1.757-.33,4.6-1.027a20.977,20.977,0,0,1,3.919-.51c.384.876,1.262,2,4.285,2.1,0,0,.73,1.163-1.76.93s-3.13-1.009-4.593-.843l1.3,3.1a18.429,18.429,0,0,1,7.108-.7,1.1,1.1,0,0,0,1.163-.431c.431-.631.233-1-.167-1.561a6.489,6.489,0,0,1-.424-2.191c1.436.361,5.841-.533,7.433-.4a1.889,1.889,0,0,1,1.461,2.624c-.365.631-3.7.092-3.7.092l1.121,3.064a6.094,6.094,0,0,0,1.187-.963c.692-.651,3.521-.431,3.521-.93v-5.676a.461.461,0,0,0-.5-.456C270.846,159.527,269.568,158.486,269.568,158.486Z" fill="#ffe15a"/><path d="M244.679,156.469a2.119,2.119,0,0,1,.2.593l.094.531a.37.37,0,0,0,.35.321h1.448a.37.37,0,0,0,.35-.321l.094-.531a2.129,2.129,0,0,1,.2-.593Z" fill="#ff4b55"/><path d="M246.047,157.518c-.334,0-.6.041-.559.505l.135,1.985c.023.3.206.534.424.534s.4-.231.424-.534l.135-1.985C246.641,157.559,246.38,157.518,246.047,157.518Z" fill="#82afff"/><path d="M241.736,183.172a2.325,2.325,0,0,0-1.748.474s-.285-1.124,1.178-1.4S241.736,183.172,241.736,183.172Z" fill="#82afff"/><path d="M240.61,181.751a2.327,2.327,0,0,0-1.764-.408s.28-1.126,1.7-.673S240.61,181.751,240.61,181.751Z" fill="#82afff"/><path d="M241.224,182.333a2.728,2.728,0,0,0-1.91.474s-.311-1.124,1.288-1.4S241.224,182.333,241.224,182.333Z" fill="#82afff"/><path d="M258.916,185.32a2.329,2.329,0,0,0-1.59.865s-.537-1.028.824-1.63S258.916,185.32,258.916,185.32Z" fill="#82afff"/><path d="M257.523,184.1a2.332,2.332,0,0,0-1.811.011s.012-1.16,1.5-1.047S257.523,184.1,257.523,184.1Z" fill="#82afff"/><path d="M258.222,184.621a2.735,2.735,0,0,0-1.749.9s-.563-1.022.93-1.655S258.222,184.621,258.222,184.621Z" fill="#82afff"/><path d="M269.771,185.906s-.355,0-.993.6c0,0-.457-1.02.887-1.519S269.771,185.906,269.771,185.906Z" fill="#82afff"/><path d="M269.09,184.506a2.241,2.241,0,0,0-1.742-.094s.079-1.114,1.5-.92S269.09,184.506,269.09,184.506Z" fill="#82afff"/><path d="M269.732,185.053a2.631,2.631,0,0,0-1.734.767s-.482-1.015.991-1.538S269.732,185.053,269.732,185.053Z" fill="#82afff"/><path d="M240.172,176.118a2.539,2.539,0,0,0-1.947-.268s.194-1.24,1.771-.89S240.172,176.118,240.172,176.118Z" fill="#82afff"/><path d="M240.1,173.979a2.309,2.309,0,0,0-1.738-.949,1.43,1.43,0,0,1,2.111-.274C241.82,173.658,240.1,173.979,240.1,173.979Z" fill="#82afff"/><path d="M240.107,175.115a2.833,2.833,0,0,0-2.1-.422s.269-1.308,1.964-.824S240.107,175.115,240.107,175.115Z" fill="#82afff"/><path d="M267.028,179.028c1.5.041,3.292-.555,3.576-2.113.327-1.79-1.206-2.7-3.265-2.614-1.5.06-5.308.922-8.033.826-2.7-.1-2.77-2.762,1.314-2.479,6.056.42,7.017-.365,7.017-.365-3.251.609-4.552-.529-8.007-.529s-4.117,2.392-2.723,3.7c1.563,1.463,7.234.488,8.738.2s3.412-.3,3.563.759c.136.948-2.385.9-4.169.829-2.841-.109-6.974.662-10.652.851-3.064.158-3.49-.706-4.188-1.59a1.992,1.992,0,0,0,.256-.97,1.969,1.969,0,0,0-.073-.509,2.517,2.517,0,0,0,.586-1.32,2.538,2.538,0,0,0-1.376.161,2.968,2.968,0,0,0-3.6,0,2.538,2.538,0,0,0-1.376-.161,2.509,2.509,0,0,0,.586,1.32,1.955,1.955,0,0,0-.073.509,2.125,2.125,0,0,0,.8,1.628,1.353,1.353,0,0,1,.476.768l.086.434a.639.639,0,0,0,.319.429,5.764,5.764,0,0,1-4.334-2.73c-.692-.995-1.124-3.2-2.182-3.441l-.623,3.319a9.824,9.824,0,0,0,3.82,4.349,36.682,36.682,0,0,0,4.254,1.869c.108.488-1.734.786-3.6.406-1.3-.265-3.063-2.159-4.066-2.025l1.167,2.593a11.035,11.035,0,0,0,8.318,1.625,2.99,2.99,0,0,0,2.429-2.251c.685-.127,1.432-.269,3.748-.838a17.123,17.123,0,0,1,3.2-.416c.313.715,1.03,1.631,3.495,1.716,0,0,.6.948-1.436.758s-2.553-.823-3.746-.687l1.064,2.53a15.04,15.04,0,0,1,5.8-.569.9.9,0,0,0,.948-.352c.352-.515.19-.813-.136-1.273a5.309,5.309,0,0,1-.346-1.788c1.171.295,4.765-.435,6.062-.327a1.541,1.541,0,0,1,1.192,2.141c-.3.515-3.021.075-3.021.075l.915,2.5a4.966,4.966,0,0,0,.969-.786c.564-.531,2.872-.352,2.872-.758V179.8a.376.376,0,0,0-.409-.372C268.071,179.876,267.028,179.028,267.028,179.028Z" fill="#ffe15a"/><path d="M246.727,177.381a1.7,1.7,0,0,1,.163.483l.076.434a.3.3,0,0,0,.285.262h1.181a.3.3,0,0,0,.285-.262l.076-.434a1.754,1.754,0,0,1,.163-.483Z" fill="#ff4b55"/><path d="M247.842,178.238c-.273,0-.484.033-.456.413l.11,1.619c.019.248.168.436.346.436s.328-.188.346-.436l.11-1.619C248.327,178.271,248.115,178.238,247.842,178.238Z" fill="#82afff"/><path d="M245.267,198.754a1.744,1.744,0,0,0-1.309.355s-.213-.842.883-1.045S245.267,198.754,245.267,198.754Z" fill="#82afff"/><path d="M244.424,197.689a1.746,1.746,0,0,0-1.321-.306s.21-.843,1.271-.5S244.424,197.689,244.424,197.689Z" fill="#82afff"/><path d="M244.883,198.125a2.046,2.046,0,0,0-1.43.355s-.233-.842.964-1.045S244.883,198.125,244.883,198.125Z" fill="#82afff"/><path d="M258.13,200.362a1.74,1.74,0,0,0-1.191.648s-.4-.77.617-1.22S258.13,200.362,258.13,200.362Z" fill="#82afff"/><path d="M257.087,199.445a1.74,1.74,0,0,0-1.356.009s.01-.868,1.12-.785S257.087,199.445,257.087,199.445Z" fill="#82afff"/><path d="M257.611,199.839a2.048,2.048,0,0,0-1.309.676s-.422-.765.7-1.239S257.611,199.839,257.611,199.839Z" fill="#82afff"/><path d="M266.259,200.8s-.266,0-.744.449c0,0-.342-.764.664-1.138S266.259,200.8,266.259,200.8Z" fill="#82afff"/><path d="M265.748,199.753a1.68,1.68,0,0,0-1.3-.071s.06-.834,1.123-.69S265.748,199.753,265.748,199.753Z" fill="#82afff"/><path d="M266.229,200.162a1.974,1.974,0,0,0-1.3.575s-.361-.76.742-1.152S266.229,200.162,266.229,200.162Z" fill="#82afff"/><path d="M244.1,193.473a1.9,1.9,0,0,0-1.458-.2s.146-.928,1.326-.666S244.1,193.473,244.1,193.473Z" fill="#82afff"/><path d="M244.043,191.871a1.731,1.731,0,0,0-1.3-.711,1.071,1.071,0,0,1,1.58-.205C245.33,191.63,244.043,191.871,244.043,191.871Z" fill="#82afff"/><path d="M244.046,192.722a2.122,2.122,0,0,0-1.574-.316s.2-.979,1.471-.617S244.046,192.722,244.046,192.722Z" fill="#82afff"/><path d="M264.2,195.65c1.126.031,2.465-.416,2.678-1.582.245-1.341-.9-2.018-2.444-1.958a57.616,57.616,0,0,1-6.015.619c-2.018-.071-2.073-2.068.984-1.856,4.534.314,5.255-.274,5.255-.274-2.434.457-3.409-.4-5.995-.4s-3.083,1.791-2.039,2.77c1.17,1.1,5.417.365,6.542.152s2.554-.224,2.668.568c.1.71-1.785.672-3.122.62-2.127-.082-5.221.495-7.976.638-2.294.118-2.614-.529-3.136-1.191a1.494,1.494,0,0,0,.192-.726,1.467,1.467,0,0,0-.054-.381,1.894,1.894,0,0,0,.439-.989,1.91,1.91,0,0,0-1.031.12,2.218,2.218,0,0,0-2.694,0,1.9,1.9,0,0,0-1.031-.12,1.9,1.9,0,0,0,.439.989,1.454,1.454,0,0,0-.054.381,1.594,1.594,0,0,0,.6,1.219,1.006,1.006,0,0,1,.356.575l.064.324a.479.479,0,0,0,.238.321,4.32,4.32,0,0,1-3.245-2.044c-.519-.745-.842-2.393-1.633-2.577l-.467,2.485a7.359,7.359,0,0,0,2.86,3.256,27.54,27.54,0,0,0,3.185,1.4c.082.365-1.3.588-2.7.3-.978-.2-2.294-1.618-3.044-1.516l.874,1.942a8.264,8.264,0,0,0,6.228,1.217,2.235,2.235,0,0,0,1.818-1.685c.513-.1,1.073-.2,2.806-.628a12.667,12.667,0,0,1,2.394-.311c.235.535.771,1.22,2.616,1.284,0,0,.446.71-1.075.568s-1.912-.616-2.8-.515l.8,1.9a11.245,11.245,0,0,1,4.341-.426.676.676,0,0,0,.71-.264c.264-.385.142-.609-.1-.953a3.967,3.967,0,0,1-.259-1.338c.877.221,3.567-.326,4.54-.244a1.154,1.154,0,0,1,.893,1.6c-.223.385-2.262.056-2.262.056l.684,1.871a3.761,3.761,0,0,0,.725-.588c.423-.4,2.151-.264,2.151-.568V196.23a.281.281,0,0,0-.307-.278C264.984,196.287,264.2,195.65,264.2,195.65Z" fill="#ffe15a"/><path d="M249,194.419a1.321,1.321,0,0,1,.122.362l.057.324a.225.225,0,0,0,.213.2h.884a.225.225,0,0,0,.213-.2l.057-.324a1.31,1.31,0,0,1,.122-.362Z" fill="#ff4b55"/><path d="M249.838,195.06c-.2,0-.363.024-.342.309l.083,1.212c.014.185.126.327.259.327s.245-.141.259-.327l.083-1.212C250.2,195.084,250.042,195.06,249.838,195.06Z" fill="#82afff"/></g></svg>