<svg xmlns="http://www.w3.org/2000/svg" width="512" height="335.449" viewBox="0 0 512 335.449"><g transform="translate(0 -88.276)"><path d="M512,200.093H0V97.1a8.829,8.829,0,0,1,8.828-8.828H503.173A8.829,8.829,0,0,1,512,97.1V200.093Z" fill="#464655"/><path d="M503.172,423.725H8.828A8.829,8.829,0,0,1,0,414.9V311.909H512V414.9A8.828,8.828,0,0,1,503.172,423.725Z" fill="#73af00"/><rect width="512" height="111.81" transform="translate(0 200.091)" fill="#f5f5f5"/><path d="M3.256,421.591,302.368,259.574a4.064,4.064,0,0,0,0-7.147L3.256,90.411A8.683,8.683,0,0,0,0,97.1V414.9A8.683,8.683,0,0,0,3.256,421.591Z" fill="#ff4b55"/><path d="M95.4,233.165l5.247,11.381,12.169-2.994a.917.917,0,0,1,1.038,1.3l-5.626,11.2,9.928,7.648a.916.916,0,0,1-.371,1.623l-12.263,2.583.211,12.531a.917.917,0,0,1-1.5.723l-9.665-7.977L84.9,279.16a.917.917,0,0,1-1.5-.723l.211-12.531L71.35,263.323a.917.917,0,0,1-.371-1.623l9.928-7.648-5.626-11.2a.917.917,0,0,1,1.038-1.3l12.169,2.994,5.247-11.381A.916.916,0,0,1,95.4,233.165Z" fill="#f5f5f5"/></g></svg>