<svg xmlns="http://www.w3.org/2000/svg" width="512" height="335.448" viewBox="0 0 512 335.448"><g transform="translate(0 -88.276)"><path d="M503.172,88.276H8.828A8.828,8.828,0,0,0,0,97.1V414.9a8.829,8.829,0,0,0,8.828,8.828H503.173A8.829,8.829,0,0,0,512,414.9V97.1A8.829,8.829,0,0,0,503.172,88.276Z" fill="#82c3d2"/><path d="M59.516,128.447c-.8-3.383-1-4.63.52-6.147a1.894,1.894,0,1,0-2.679-2.679c-3.072,3.073-2.339,6.262-1.544,9.639a5.689,5.689,0,0,0-6.28,1.494c-.668.847-1.96,3.223.461,7.017a1.893,1.893,0,1,0,3.193-2.034c-.908-1.429-.935-2.31-.681-2.632a2.141,2.141,0,0,1,2.2-.237,3.162,3.162,0,0,1,2.091,3.253,5.636,5.636,0,0,1-2.31,4.574,5.79,5.79,0,0,1-5.21.825,5.923,5.923,0,0,1-3.849-5.806,14.085,14.085,0,0,1,1.186-5.651c.122-.255,3.018-6.254,3.764-8.49,1.475-4.423-.024-6.647-1.047-7.576a4.739,4.739,0,0,0-5.092-.8,4.4,4.4,0,0,0-.705.44,4.372,4.372,0,0,0-.705-.44,4.74,4.74,0,0,0-5.092.8c-1.023.929-2.522,3.154-1.047,7.576.746,2.236,3.641,8.235,3.737,8.435a14.153,14.153,0,0,1,1.212,5.707,5.921,5.921,0,0,1-3.849,5.806,5.78,5.78,0,0,1-5.21-.825,5.638,5.638,0,0,1-2.31-4.574,3.163,3.163,0,0,1,2.091-3.253,2.14,2.14,0,0,1,2.2.237c.254.322.227,1.2-.681,2.632a1.893,1.893,0,1,0,3.193,2.034c2.42-3.794,1.129-6.169.461-7.017a5.69,5.69,0,0,0-6.28-1.494c.8-3.375,1.528-6.566-1.544-9.639a1.894,1.894,0,0,0-2.679,2.679c1.517,1.517,1.32,2.764.52,6.147a31.732,31.732,0,0,0-1.076,7.671,9.485,9.485,0,0,0,1.955,5.685h-.061a1.9,1.9,0,0,0,0,3.79h.061a9.482,9.482,0,0,0-1.955,5.684,31.8,31.8,0,0,0,1.075,7.672c.8,3.383,1,4.63-.52,6.147a1.895,1.895,0,0,0,2.68,2.679c3.072-3.073,2.339-6.263,1.544-9.639a5.694,5.694,0,0,0,6.28-1.494c.668-.847,1.96-3.223-.461-7.017a1.893,1.893,0,1,0-3.193,2.034c.908,1.429.935,2.31.681,2.632a2.16,2.16,0,0,1-2.2.237,3.162,3.162,0,0,1-2.091-3.253,5.636,5.636,0,0,1,2.31-4.574,5.777,5.777,0,0,1,5.21-.825,5.923,5.923,0,0,1,3.849,5.806,14.136,14.136,0,0,1-1.212,5.707L28.02,185.311a17.731,17.731,0,0,0-1.538,7.246,10.131,10.131,0,0,0,3.784,7.987,10.134,10.134,0,0,0-3.784,7.987,17.744,17.744,0,0,0,1.538,7.246L40.429,243.7a14.153,14.153,0,0,1,1.212,5.707,5.921,5.921,0,0,1-3.849,5.806,5.765,5.765,0,0,1-5.21-.825,5.638,5.638,0,0,1-2.31-4.574,3.163,3.163,0,0,1,2.091-3.253,2.147,2.147,0,0,1,2.2.237c.254.322.227,1.2-.681,2.632a1.893,1.893,0,1,0,3.193,2.034c2.42-3.794,1.129-6.169.461-7.017a5.693,5.693,0,0,0-6.28-1.494c.8-3.375,1.528-6.566-1.544-9.639a1.894,1.894,0,1,0-2.679,2.679c1.517,1.517,1.32,2.764.52,6.147a31.8,31.8,0,0,0-1.075,7.672,9.485,9.485,0,0,0,1.955,5.685h-.061a1.895,1.895,0,1,0,0,3.79h.061a9.476,9.476,0,0,0-1.955,5.685,31.8,31.8,0,0,0,1.075,7.672c.8,3.383,1,4.63-.52,6.147a1.895,1.895,0,0,0,2.68,2.679c3.072-3.073,2.339-6.263,1.544-9.639a5.694,5.694,0,0,0,6.28-1.494c.668-.847,1.96-3.223-.461-7.017a1.893,1.893,0,1,0-3.193,2.034c.908,1.429.935,2.31.681,2.632a2.14,2.14,0,0,1-2.2.237,3.162,3.162,0,0,1-2.091-3.253,5.636,5.636,0,0,1,2.31-4.574,5.777,5.777,0,0,1,5.21-.825,5.923,5.923,0,0,1,3.849,5.806,14.136,14.136,0,0,1-1.212,5.707L28.02,299a17.731,17.731,0,0,0-1.538,7.246,10.131,10.131,0,0,0,3.784,7.987,10.134,10.134,0,0,0-3.784,7.987,17.744,17.744,0,0,0,1.538,7.246l12.409,27.919a14.153,14.153,0,0,1,1.212,5.707,5.921,5.921,0,0,1-3.849,5.806,5.774,5.774,0,0,1-5.21-.825,5.638,5.638,0,0,1-2.31-4.574,3.163,3.163,0,0,1,2.091-3.253,2.147,2.147,0,0,1,2.2.237c.254.322.227,1.2-.681,2.632a1.893,1.893,0,1,0,3.193,2.034c2.42-3.794,1.129-6.169.461-7.017a5.681,5.681,0,0,0-6.28-1.494c.8-3.375,1.528-6.566-1.544-9.639a1.894,1.894,0,0,0-2.679,2.679c1.517,1.517,1.32,2.764.52,6.147a31.8,31.8,0,0,0-1.075,7.671,9.513,9.513,0,0,0,3.8,7.58,9.513,9.513,0,0,0-3.8,7.58,31.8,31.8,0,0,0,1.075,7.672c.8,3.382,1,4.63-.52,6.147a1.895,1.895,0,0,0,2.68,2.679c3.072-3.073,2.339-6.263,1.544-9.639a5.694,5.694,0,0,0,6.28-1.494c.668-.847,1.96-3.223-.461-7.017a1.893,1.893,0,1,0-3.193,2.034c.908,1.429.935,2.31.681,2.632a2.151,2.151,0,0,1-2.2.237,3.162,3.162,0,0,1-2.091-3.253,5.636,5.636,0,0,1,2.31-4.574,5.789,5.789,0,0,1,5.21-.825,5.923,5.923,0,0,1,3.849,5.806,14.085,14.085,0,0,1-1.186,5.651c-.122.255-3.018,6.254-3.764,8.49-1.475,4.423.024,6.647,1.047,7.576A4.677,4.677,0,0,0,40.893,402a4.845,4.845,0,0,0,1.939-.41,4.4,4.4,0,0,0,.705-.44,4.37,4.37,0,0,0,.705.44,4.825,4.825,0,0,0,1.939.41,4.685,4.685,0,0,0,3.154-1.214c1.023-.929,2.522-3.154,1.047-7.576-.746-2.236-3.641-8.235-3.737-8.435a14.153,14.153,0,0,1-1.212-5.707,5.92,5.92,0,0,1,3.849-5.806,5.786,5.786,0,0,1,5.21.825,5.638,5.638,0,0,1,2.31,4.574,3.163,3.163,0,0,1-2.091,3.253,2.147,2.147,0,0,1-2.2-.237c-.254-.322-.227-1.2.681-2.632A1.893,1.893,0,1,0,50,377.007c-2.42,3.794-1.129,6.169-.461,7.017a5.693,5.693,0,0,0,6.28,1.494c-.8,3.375-1.528,6.566,1.544,9.639a1.895,1.895,0,0,0,2.68-2.679c-1.517-1.517-1.32-2.764-.52-6.147a31.8,31.8,0,0,0,1.075-7.672,9.513,9.513,0,0,0-3.8-7.58,9.512,9.512,0,0,0,3.8-7.58,31.8,31.8,0,0,0-1.075-7.672c-.8-3.382-1-4.63.52-6.147A1.894,1.894,0,0,0,57.359,347c-3.072,3.073-2.339,6.262-1.544,9.639a5.681,5.681,0,0,0-6.28,1.494c-.668.847-1.96,3.223.461,7.017a1.893,1.893,0,1,0,3.193-2.034c-.908-1.429-.935-2.31-.681-2.632a2.152,2.152,0,0,1,2.2-.237A3.162,3.162,0,0,1,56.8,363.5a5.636,5.636,0,0,1-2.31,4.574,5.778,5.778,0,0,1-5.21.825,5.923,5.923,0,0,1-3.849-5.806,14.136,14.136,0,0,1,1.212-5.707l12.409-27.919a17.731,17.731,0,0,0,1.538-7.246,10.131,10.131,0,0,0-3.784-7.987,10.134,10.134,0,0,0,3.784-7.987A17.744,17.744,0,0,0,59.055,299L46.647,271.085a14.153,14.153,0,0,1-1.212-5.707,5.921,5.921,0,0,1,3.849-5.806,5.786,5.786,0,0,1,5.21.825,5.638,5.638,0,0,1,2.31,4.574,3.163,3.163,0,0,1-2.091,3.253,2.141,2.141,0,0,1-2.2-.237c-.254-.322-.227-1.2.681-2.632A1.893,1.893,0,1,0,50,263.321c-2.42,3.794-1.129,6.169-.461,7.017a5.693,5.693,0,0,0,6.28,1.494c-.8,3.375-1.528,6.566,1.544,9.639a1.895,1.895,0,1,0,2.68-2.679c-1.517-1.517-1.32-2.764-.52-6.147a31.8,31.8,0,0,0,1.075-7.672,9.485,9.485,0,0,0-1.955-5.685H58.7a1.895,1.895,0,1,0,0-3.79H58.64a9.474,9.474,0,0,0,1.955-5.685,31.8,31.8,0,0,0-1.075-7.672c-.8-3.383-1-4.63.52-6.147a1.894,1.894,0,1,0-2.679-2.679c-3.072,3.073-2.339,6.263-1.544,9.639a5.694,5.694,0,0,0-6.28,1.494c-.668.847-1.96,3.223.461,7.017a1.893,1.893,0,1,0,3.193-2.034c-.908-1.429-.935-2.31-.681-2.632a2.152,2.152,0,0,1,2.2-.237,3.162,3.162,0,0,1,2.091,3.253,5.636,5.636,0,0,1-2.31,4.574,5.79,5.79,0,0,1-5.21.825,5.923,5.923,0,0,1-3.849-5.806,14.136,14.136,0,0,1,1.212-5.707l12.409-27.919a17.731,17.731,0,0,0,1.538-7.246,10.131,10.131,0,0,0-3.784-7.987,10.134,10.134,0,0,0,3.784-7.987,17.744,17.744,0,0,0-1.538-7.246L46.648,157.4a14.153,14.153,0,0,1-1.212-5.707,5.921,5.921,0,0,1,3.849-5.806,5.786,5.786,0,0,1,5.21.825,5.638,5.638,0,0,1,2.31,4.574,3.163,3.163,0,0,1-2.091,3.253,2.159,2.159,0,0,1-2.2-.237c-.254-.322-.227-1.2.681-2.632A1.893,1.893,0,1,0,50,149.632c-2.42,3.794-1.129,6.169-.461,7.017a5.693,5.693,0,0,0,6.28,1.494c-.8,3.375-1.528,6.566,1.544,9.639a1.895,1.895,0,0,0,2.68-2.679c-1.517-1.517-1.32-2.764-.52-6.147a31.8,31.8,0,0,0,1.075-7.672,9.485,9.485,0,0,0-1.955-5.685H58.7a1.9,1.9,0,0,0,0-3.79h-.061a9.474,9.474,0,0,0,1.955-5.685A32.137,32.137,0,0,0,59.516,128.447Zm-19.23-8.075c-.673-2.02-.438-3.171.006-3.575a.948.948,0,0,1,1.009-.137.5.5,0,0,1,.342.511,1.9,1.9,0,0,0,3.79,0,.5.5,0,0,1,.342-.511.95.95,0,0,1,1.009.137c.444.4.679,1.555.006,3.575-.49,1.465-2.263,5.279-3.251,7.349C42.571,125.7,40.779,121.847,40.286,120.372Zm3.251,78.185a9.376,9.376,0,0,0,1.907,1.987,9.4,9.4,0,0,0-1.907,1.987,9.376,9.376,0,0,0-1.907-1.987A9.376,9.376,0,0,0,43.537,198.557Zm0,113.692a9.375,9.375,0,0,0,1.907,1.987,9.4,9.4,0,0,0-1.907,1.987,9.375,9.375,0,0,0-1.907-1.987A9.352,9.352,0,0,0,43.537,312.249Zm3.25,82.16c.673,2.02.438,3.171-.006,3.575a.967.967,0,0,1-1.009.137.5.5,0,0,1-.342-.511,1.9,1.9,0,0,0-3.79,0,.5.5,0,0,1-.342.511.962.962,0,0,1-1.009-.137c-.444-.4-.679-1.555-.006-3.575.49-1.465,2.263-5.279,3.251-7.349C44.5,389.081,46.294,392.934,46.787,394.409Zm-1.361-23.327a9.407,9.407,0,0,0-1.889,1.981,9.4,9.4,0,0,0-1.889-1.981,9.407,9.407,0,0,0,1.889-1.981A9.357,9.357,0,0,0,45.426,371.082Zm10.162-43.153L43.536,355.045,31.484,327.929a14.153,14.153,0,0,1-1.212-5.707,5.92,5.92,0,0,1,3.849-5.806,5.785,5.785,0,0,1,5.21.825,5.638,5.638,0,0,1,2.31,4.574,3.163,3.163,0,0,1-2.091,3.253,2.145,2.145,0,0,1-2.2-.237c-.254-.322-.227-1.2.681-2.632a1.893,1.893,0,1,0-3.193-2.034c-2.42,3.794-1.129,6.169-.461,7.017a5.719,5.719,0,0,0,6.421,1.465,6.681,6.681,0,0,0,.847-.361v4.792s0,0,0,0a1.895,1.895,0,0,0-3.786.11c0,1.236.864,3.38,3.789,4.044v3.535a1.9,1.9,0,0,0,3.79,0v-3.535c2.925-.664,3.789-2.808,3.789-4.044a1.946,1.946,0,0,0-1.891-1.957,1.838,1.838,0,0,0-1.891,1.832s-.007.008-.008.011v-4.783a6.681,6.681,0,0,0,.847.361,5.723,5.723,0,0,0,6.421-1.465c.668-.847,1.96-3.223-.461-7.017a1.893,1.893,0,1,0-3.193,2.034c.908,1.429.935,2.31.681,2.632a2.151,2.151,0,0,1-2.2.237,3.162,3.162,0,0,1-2.091-3.253,5.636,5.636,0,0,1,2.31-4.574,5.778,5.778,0,0,1,5.21-.825,5.923,5.923,0,0,1,3.849,5.806A14.08,14.08,0,0,1,55.588,327.929Zm0-27.386A14.153,14.153,0,0,1,56.8,306.25a5.921,5.921,0,0,1-3.849,5.806,5.775,5.775,0,0,1-5.21-.825,5.638,5.638,0,0,1-2.31-4.574,3.163,3.163,0,0,1,2.091-3.253,2.146,2.146,0,0,1,2.2.237c.254.322.227,1.2-.681,2.632a1.893,1.893,0,1,0,3.193,2.034c2.42-3.794,1.129-6.169.461-7.017a5.731,5.731,0,0,0-6.421-1.465,6.83,6.83,0,0,0-.847.361v-4.793l0,.006a1.895,1.895,0,0,0,3.786-.111c0-1.236-.864-3.38-3.789-4.044v-3.535a1.9,1.9,0,0,0-3.79,0v3.535c-2.925.664-3.789,2.808-3.789,4.044a1.946,1.946,0,0,0,1.891,1.957,1.838,1.838,0,0,0,1.891-1.832.03.03,0,0,1,.007-.008v4.78a6.681,6.681,0,0,0-.847-.361,5.734,5.734,0,0,0-6.421,1.465c-.668.847-1.96,3.223.461,7.017a1.893,1.893,0,1,0,3.193-2.034c-.908-1.429-.935-2.31-.681-2.632a2.15,2.15,0,0,1,2.2-.237,3.162,3.162,0,0,1,2.091,3.253,5.636,5.636,0,0,1-2.31,4.574,5.776,5.776,0,0,1-5.21.825,5.923,5.923,0,0,1-3.849-5.806,14.136,14.136,0,0,1,1.212-5.707l12.052-27.116ZM45.426,257.391a9.407,9.407,0,0,0-1.889,1.981,9.4,9.4,0,0,0-1.889-1.981,9.407,9.407,0,0,0,1.889-1.981A9.4,9.4,0,0,0,45.426,257.391Zm10.162-43.153L43.536,241.354,31.484,214.238a14.153,14.153,0,0,1-1.212-5.707,5.921,5.921,0,0,1,3.849-5.806,5.785,5.785,0,0,1,5.21.825,5.638,5.638,0,0,1,2.31,4.574,3.163,3.163,0,0,1-2.091,3.253,2.138,2.138,0,0,1-2.2-.237c-.254-.322-.227-1.2.681-2.632a1.893,1.893,0,1,0-3.193-2.034c-2.42,3.794-1.129,6.169-.461,7.017a5.726,5.726,0,0,0,6.421,1.465,6.686,6.686,0,0,0,.847-.361v4.792l0-.006a1.895,1.895,0,0,0-3.786.111c0,1.236.864,3.38,3.789,4.044v3.535a1.9,1.9,0,1,0,3.79,0v-3.535c2.925-.664,3.789-2.808,3.789-4.044a1.947,1.947,0,0,0-1.891-1.958,1.838,1.838,0,0,0-1.891,1.832.03.03,0,0,1-.007.008v-4.78a6.681,6.681,0,0,0,.847.361A5.73,5.73,0,0,0,52.7,213.49c.668-.847,1.96-3.223-.461-7.017a1.893,1.893,0,1,0-3.193,2.034c.908,1.429.935,2.31.681,2.632a2.14,2.14,0,0,1-2.2.237,3.162,3.162,0,0,1-2.091-3.253,5.636,5.636,0,0,1,2.31-4.574,5.79,5.79,0,0,1,5.21-.825A5.923,5.923,0,0,1,56.8,208.53,14.087,14.087,0,0,1,55.588,214.238Zm0-27.387a14.153,14.153,0,0,1,1.212,5.707,5.921,5.921,0,0,1-3.849,5.806,5.775,5.775,0,0,1-5.21-.825,5.638,5.638,0,0,1-2.31-4.574,3.163,3.163,0,0,1,2.091-3.253,2.146,2.146,0,0,1,2.2.237c.254.322.227,1.2-.681,2.632a1.893,1.893,0,1,0,3.193,2.034c2.42-3.794,1.129-6.169.461-7.017a5.726,5.726,0,0,0-6.421-1.465,6.686,6.686,0,0,0-.847.361V181.7s0,0,0,0a1.895,1.895,0,0,0,3.786-.11c0-1.236-.864-3.38-3.789-4.044v-3.535a1.9,1.9,0,1,0-3.79,0v3.535c-2.925.664-3.789,2.808-3.789,4.044a1.947,1.947,0,0,0,1.891,1.958,1.838,1.838,0,0,0,1.891-1.832s.007-.008.008-.011v4.783a6.681,6.681,0,0,0-.847-.361,5.729,5.729,0,0,0-6.421,1.465c-.668.847-1.96,3.223.461,7.017a1.893,1.893,0,1,0,3.193-2.034c-.908-1.429-.935-2.31-.681-2.632a2.15,2.15,0,0,1,2.2-.237,3.162,3.162,0,0,1,2.091,3.253,5.636,5.636,0,0,1-2.31,4.574,5.776,5.776,0,0,1-5.21.825,5.923,5.923,0,0,1-3.849-5.806,14.136,14.136,0,0,1,1.212-5.707l12.052-27.116ZM41.647,143.7a9.406,9.406,0,0,0,1.889-1.981,9.4,9.4,0,0,0,1.889,1.981,9.406,9.406,0,0,0-1.889,1.981A9.356,9.356,0,0,0,41.647,143.7Z" fill="#ffe15a"/><circle cx="45.606" cy="45.606" r="45.606" transform="translate(225.134 189.424)" fill="#ffe15a"/><path d="M274.167,176.883a3.421,3.421,0,1,1-6.842,0c0-1.889,3.421-10.262,3.421-10.262S274.167,174.994,274.167,176.883Z" fill="#ffe15a"/><path d="M267.326,293.186a3.421,3.421,0,0,1,6.842,0c0,1.889-3.421,10.262-3.421,10.262S267.326,295.076,267.326,293.186Z" fill="#ffe15a"/><path d="M328.9,238.455a3.421,3.421,0,0,1,0-6.842c1.889,0,10.262,3.421,10.262,3.421S330.787,238.455,328.9,238.455Z" fill="#ffe15a"/><path d="M212.6,231.614a3.421,3.421,0,1,1,0,6.842c-1.889,0-10.262-3.421-10.262-3.421S210.706,231.614,212.6,231.614Z" fill="#ffe15a"/><path d="M314.285,196.334a3.421,3.421,0,0,1-4.838-4.838c1.336-1.337,9.675-4.838,9.675-4.838S315.622,195,314.285,196.334Z" fill="#ffe15a"/><path d="M227.209,273.735a3.421,3.421,0,0,1,4.838,4.838c-1.336,1.337-9.675,4.837-9.675,4.837S225.873,275.072,227.209,273.735Z" fill="#ffe15a"/><path d="M309.448,278.573a3.421,3.421,0,0,1,4.838-4.838c1.337,1.336,4.838,9.675,4.838,9.675S310.784,279.908,309.448,278.573Z" fill="#ffe15a"/><path d="M232.046,191.5a3.421,3.421,0,1,1-4.838,4.838c-1.337-1.336-4.838-9.675-4.838-9.675S230.71,190.161,232.046,191.5Z" fill="#ffe15a"/><path d="M251.654,180a3.421,3.421,0,1,1-6.321,2.617c-.723-1.746-.767-10.79-.767-10.79S250.931,178.254,251.654,180Z" fill="#ffe15a"/><path d="M289.841,290.069a3.421,3.421,0,0,1,6.321-2.617c.723,1.746.767,10.79.767,10.79S290.563,291.815,289.841,290.069Z" fill="#ffe15a"/><path d="M325.781,215.942a3.421,3.421,0,0,1-2.617-6.321c1.746-.723,10.789-.767,10.789-.767S327.527,215.218,325.781,215.942Z" fill="#ffe15a"/><path d="M215.713,254.127a3.421,3.421,0,1,1,2.617,6.321c-1.746.723-10.79.767-10.79.767S213.967,254.851,215.713,254.127Z" fill="#ffe15a"/><path d="M296.161,182.618A3.421,3.421,0,1,1,289.84,180c.723-1.745,7.087-8.172,7.087-8.172S296.884,180.873,296.161,182.618Z" fill="#ffe15a"/><path d="M245.333,287.451a3.421,3.421,0,0,1,6.321,2.617c-.723,1.746-7.087,8.172-7.087,8.172S244.61,289.2,245.333,287.451Z" fill="#ffe15a"/><path d="M323.164,260.448a3.421,3.421,0,0,1,2.617-6.321c1.745.722,8.172,7.087,8.172,7.087S324.908,261.172,323.164,260.448Z" fill="#ffe15a"/><path d="M218.33,209.621a3.421,3.421,0,1,1-2.617,6.321c-1.745-.723-8.172-7.087-8.172-7.087S216.586,208.9,218.33,209.621Z" fill="#ffe15a"/><path d="M262.758,177.333a3.421,3.421,0,1,1-6.71,1.334c-.369-1.853,1.353-10.732,1.353-10.732S262.389,175.48,262.758,177.333Z" fill="#ffe15a"/><path d="M278.737,292.736a3.421,3.421,0,0,1,6.71-1.334c.369,1.853-1.353,10.732-1.353,10.732S279.105,294.589,278.737,292.736Z" fill="#ffe15a"/><path d="M328.449,227.044a3.421,3.421,0,0,1-1.334-6.71c1.853-.369,10.732,1.353,10.732,1.353S330.3,226.676,328.449,227.044Z" fill="#ffe15a"/><path d="M213.045,243.025a3.421,3.421,0,1,1,1.334,6.71c-1.853.369-10.732-1.353-10.732-1.353S211.192,243.393,213.045,243.025Z" fill="#ffe15a"/><path d="M305.9,188.584a3.421,3.421,0,1,1-5.688-3.8c1.049-1.571,8.545-6.632,8.545-6.632S306.948,187.012,305.9,188.584Z" fill="#ffe15a"/><path d="M235.6,281.485a3.421,3.421,0,1,1,5.688,3.8c-1.049,1.571-8.545,6.632-8.545,6.632S234.546,283.057,235.6,281.485Z" fill="#ffe15a"/><path d="M317.2,270.186A3.421,3.421,0,0,1,321,264.5c1.571,1.049,6.632,8.545,6.632,8.545S318.769,271.235,317.2,270.186Z" fill="#ffe15a"/><path d="M224.3,199.883a3.421,3.421,0,0,1-3.8,5.688c-1.571-1.05-6.632-8.545-6.632-8.545S222.726,198.834,224.3,199.883Z" fill="#ffe15a"/><path d="M241.283,184.782a3.421,3.421,0,1,1-5.688,3.8c-1.049-1.571-2.857-10.433-2.857-10.433S240.234,183.212,241.283,184.782Z" fill="#ffe15a"/><path d="M300.21,285.287a3.421,3.421,0,0,1,5.688-3.8c1.049,1.571,2.857,10.433,2.857,10.433S301.26,286.857,300.21,285.287Z" fill="#ffe15a"/><path d="M321,205.571a3.421,3.421,0,0,1-3.8-5.688c1.571-1.049,10.433-2.857,10.433-2.857S322.57,204.522,321,205.571Z" fill="#ffe15a"/><path d="M220.495,264.5a3.421,3.421,0,1,1,3.8,5.688c-1.571,1.049-10.433,2.857-10.433,2.857S218.924,265.547,220.495,264.5Z" fill="#ffe15a"/><path d="M285.447,178.667a3.421,3.421,0,1,1-6.71-1.334c.369-1.853,5.357-9.4,5.357-9.4S285.815,176.814,285.447,178.667Z" fill="#ffe15a"/><path d="M256.047,291.4a3.421,3.421,0,0,1,6.71,1.334c-.369,1.853-5.357,9.4-5.357,9.4S255.679,293.255,256.047,291.4Z" fill="#ffe15a"/><path d="M327.114,249.735a3.421,3.421,0,0,1,1.334-6.71c1.853.369,9.4,5.357,9.4,5.357S328.967,250.1,327.114,249.735Z" fill="#ffe15a"/><path d="M214.38,220.334a3.421,3.421,0,1,1-1.334,6.71c-1.853-.369-9.4-5.357-9.4-5.357S212.527,219.966,214.38,220.334Z" fill="#ffe15a"/><path d="M378.027,247.034a2.615,2.615,0,0,0-3.42,1.41v.006c-.01.025-.062.148-.151.358-1.977,4.618-6.067,11.367-10.2,17.716,3.847-12.383,7.364-25.609,7.609-26.539a2.616,2.616,0,0,0-5.048-1.374c-1.8,6.432-5.466,14.9-8.853,22.063.621-7.99.738-15.392.746-15.928a2.62,2.62,0,0,0-2.5-2.652,2.751,2.751,0,0,0-2.72,2.426c-3.349,46.068-47.678,66.676-51.994,68.572a107.5,107.5,0,0,0-22.324,4.725c-1.082.376-2,.753-2.922,1.127a2.642,2.642,0,0,0-1.092-.177c-29.3,2.12-52.666-9.9-69.458-35.652A125.853,125.853,0,0,1,189,243.029a2.614,2.614,0,1,0-5.138.97,120.856,120.856,0,0,0,6.66,21.212,109.9,109.9,0,0,1-12.494-28.864,2.562,2.562,0,0,0-.162-.343,1.575,1.575,0,0,0-.514-.809,2.938,2.938,0,0,0-1.373-.78,2.656,2.656,0,0,0-.456-.013,2.412,2.412,0,0,0-.466-.014c-.035.006-.062.03-.1.038s-.066,0-.1,0a2.381,2.381,0,0,0-.375.177,2.7,2.7,0,0,0-.473.223,2.464,2.464,0,0,0-.363.344,2.592,2.592,0,0,0-.331.365,2.7,2.7,0,0,0-.209.457,2.5,2.5,0,0,0-.169.462,2.567,2.567,0,0,0-.018.52,2.352,2.352,0,0,0-.014.42c.01.062.03.124.041.184v.01l.01.038c1.618,9.533,5.474,19.415,8.961,26.951-5.537-6.283-10.164-13.522-11.8-17.809a2.309,2.309,0,0,0-.206-.324,2.546,2.546,0,0,0-.313-.493,2.518,2.518,0,0,0-.312-.253,2.577,2.577,0,0,0-.494-.345,2.743,2.743,0,0,0-.371-.113,2.59,2.59,0,0,0-.585-.135,2.5,2.5,0,0,0-.484.051,2.446,2.446,0,0,0-.45.047c-.029.009-.049.032-.076.042s-.056,0-.084.014a2.485,2.485,0,0,0-.37.234,2.623,2.623,0,0,0-.435.275,2.483,2.483,0,0,0-.322.4,2.664,2.664,0,0,0-.277.394,2.5,2.5,0,0,0-.146.484,2.459,2.459,0,0,0-.111.48,2.6,2.6,0,0,0,.052.509,2.425,2.425,0,0,0,.045.441c2.846,9.18,9.69,20.1,15.052,27.8a60.5,60.5,0,0,1-8.705-8.291c-.1-.122-.2-.245-.307-.367a2.614,2.614,0,0,0-4.056,3.3c.049.062.245.307.573.69a158.7,158.7,0,0,0,12.072,12.7l-5.3-2.258a2.615,2.615,0,0,0-2.592,4.5,149.335,149.335,0,0,0,18.02,11.535A20.607,20.607,0,0,1,187.26,298a2.615,2.615,0,0,0-1.187,5.026c.2.082,2.675,1.1,5.731,2.191a2.614,2.614,0,0,0-.32,4.684,77.994,77.994,0,0,0,8.546,4.158,2.714,2.714,0,0,0-.3.618,2.619,2.619,0,0,0,1,2.963c.794.546,18.559,12.6,39.307,12.6,1.362,0,2.738-.051,4.122-.163a2.614,2.614,0,1,0-.418-5.211c-13.034,1.063-25.591-3.831-33.059-7.571a13.1,13.1,0,0,0,1.694-.516,2.618,2.618,0,0,0-.93-5.043c-3.032-.062-7.231-1.538-10.848-3.122a12.577,12.577,0,0,0,2.234-1.395,2.614,2.614,0,0,0-1.253-4.592,33.121,33.121,0,0,1-3.946-.981,5.462,5.462,0,0,0,2.24-2.161,2.613,2.613,0,0,0-1.786-3.73,15.471,15.471,0,0,1-2.3-.725,2.514,2.514,0,0,0,.408-.526,2.622,2.622,0,0,0-.643-3.392c-.054-.041-2.084-1.634-5.158-4.286a2.614,2.614,0,0,0,1.121-4.082c-.058-.072-2.091-2.628-4.893-6.51.925.718,1.849,1.452,2.773,2.046a2.642,2.642,0,0,0,1.415.414,2.587,2.587,0,0,0,2.315-1.411,38.845,38.845,0,0,0,5.005,4.547,2.414,2.414,0,0,0,.761.254q1.113,1.866,2.324,3.736c15.883,24.438,38.278,37.528,65.138,38.314a55.412,55.412,0,0,1-9.409,4.71c-.928.362-1.748.724-2.572,1.087a2.48,2.48,0,0,0-1.082.469c-7.42,3.435-10.492,6.829-11.738,9.2a4.884,4.884,0,0,0,1.348,6.038,2.643,2.643,0,0,0,1.675.587,2.7,2.7,0,0,0,2.705-2.743c.107-.117.562-.495,1.987-.542a54.12,54.12,0,0,1,5.778.352c2.428.2,5.34.427,8.436.586-1.937,2.258-4.188,4.875-4.188,4.875a2.617,2.617,0,0,0,2.072,4.321c2.067-.072,3.471-.113,4.393-.132a4.437,4.437,0,0,0,2.427,1.634,6.456,6.456,0,0,0,4.942-1.113,6.462,6.462,0,0,0,2.854,1.165,8.307,8.307,0,0,0,4.74-.884,6.3,6.3,0,0,0,3.454,1.027h.043a8.662,8.662,0,0,0,5.09-1.962,6.425,6.425,0,0,0,3.009.915,7.7,7.7,0,0,0,4.457-1.329,10.355,10.355,0,0,0,8.963-2.912,4.665,4.665,0,0,0,2.6.659,6.073,6.073,0,0,0,4.2-2.217c4.179.505,7.178-.266,8.911-2.324a6.247,6.247,0,0,0,1.433-3.53c11.594-.066,12.643-6.4,12.728-7.178a2.618,2.618,0,0,0-2.441-2.891l-30.4-1.828a2.591,2.591,0,0,0-2.7,2,8.337,8.337,0,0,1-2.145,3.495c-2.182,2.083-5.7,3.183-9.516,3.766a2.606,2.606,0,0,0-3.551-2.55c-6.275,2.435-16.435,2.129-24.383,1.576a27.422,27.422,0,0,1,3.86-2.627,2.619,2.619,0,0,0,1.313-2.778,2.517,2.517,0,0,0-1.443-1.734c2.21-1.116,4.022-2.194,5.741-3.242a49.666,49.666,0,0,1,10.937-5.333,104.575,104.575,0,0,1,21.494-4.5,2.612,2.612,0,0,0,.758-.184c.408-.169,32.758-13.721,48-44.991-.2.945-.414,1.809-.647,2.564a2.616,2.616,0,0,0,4.276,2.692,39.472,39.472,0,0,1-2.545,5.716,2.619,2.619,0,0,0,.792,3.535,2.75,2.75,0,0,0,.868.373c-1.18,1.727-2.376,3.361-3.569,4.858a2.618,2.618,0,0,0,.082,3.357,63.5,63.5,0,0,1-5.244,5.037,2.615,2.615,0,0,0-.781,2.994,17.515,17.515,0,0,1-3.182,1.527,2.615,2.615,0,0,0-.764,4.628c-1.6.429-3.349.843-5.249,1.22a2.616,2.616,0,0,0-.787,4.837,24.4,24.4,0,0,0,2.343,1.134c-5.06,2.038-14.094,4.7-28.919,6.161a2.618,2.618,0,0,0,.516,5.211c28.142-2.784,36.832-9.828,37.187-10.13a2.61,2.61,0,0,0-.476-4.322c8.991-2.83,12.851-5.962,13.053-6.13a2.615,2.615,0,0,0-2.618-4.45,10.411,10.411,0,0,1-1.543.393c6.034-4.132,12.439-9.053,15.256-11.249.495-.367.945-.721,1.341-1.053a2.616,2.616,0,0,0-3.3-4.056q-.612.483-1.272,1c-1.3.966-2.963,2.059-4.777,3.182,6.848-7.775,13.742-16.2,15.711-18.625l.534-.659a2.616,2.616,0,0,0-4.072-3.285l-.006.006,0,.006c-.049.056-.27.332-.643.792-2.063,2.518-4.235,4.956-6.378,7.233,6.976-12.643,12.258-25.088,13.032-26.932.028-.066.054-.132.082-.2A2.606,2.606,0,0,0,378.027,247.034ZM255.437,335.2l.714.093A12.306,12.306,0,0,0,254,337.979c-1.242-.1-2.369-.188-3.252-.227A38.561,38.561,0,0,1,255.437,335.2Z" fill="#ffe15a"/></g></svg>