<svg xmlns="http://www.w3.org/2000/svg" width="512" height="335.448" viewBox="0 0 512 335.448"><g transform="translate(0 -88.276)"><path d="M0,311.908H512V414.9a8.829,8.829,0,0,1-8.828,8.828H8.828A8.829,8.829,0,0,1,0,414.9Z" fill="#73af00"/><path d="M8.828,88.276H503.173A8.829,8.829,0,0,1,512,97.1V200.092H0V97.1A8.828,8.828,0,0,1,8.828,88.276Z" fill="#464655"/><rect width="512" height="111.81" transform="translate(0 200.09)" fill="#c8414b"/><rect width="512" height="17.655" transform="translate(0 194.21)" fill="#f5f5f5"/><rect width="512" height="17.655" transform="translate(0 300.141)" fill="#f5f5f5"/><path d="M303.268,181.618c7.108-14.657,14.525-48.61,14.525-48.61s-22.072,26.845-29.182,41.5A8.129,8.129,0,0,0,289.9,183.5L208.938,350.438l5.5,2.666L295.4,186.17A8.127,8.127,0,0,0,303.268,181.618Z" fill="#f5f5f5"/><path d="M208.732,181.618c-7.108-14.657-14.525-48.61-14.525-48.61s22.072,26.845,29.182,41.5A8.129,8.129,0,0,1,222.1,183.5l80.967,166.934-5.5,2.666L216.6,186.17A8.127,8.127,0,0,1,208.732,181.618Z" fill="#f5f5f5"/><path d="M300.138,256c0,48.754-36.012,88.276-44.138,88.276S211.862,304.754,211.862,256,247.874,167.724,256,167.724,300.138,207.246,300.138,256Z" fill="#c8414b"/><path d="M291.31,298.591a107.155,107.155,0,0,0,0-85.182,107.155,107.155,0,0,0,0,85.182Z" fill="#464655"/><path d="M220.69,213.409a107.155,107.155,0,0,0,0,85.182,107.155,107.155,0,0,0,0-85.182Z" fill="#464655"/><ellipse cx="8.828" cy="13.241" rx="8.828" ry="13.241" transform="translate(247.172 242.759)" fill="#f5f5f5"/><path d="M257.324,167.724v75.034c2.407-5.01,6.676-19.815,6.676-37.517S259.731,172.734,257.324,167.724Z" fill="#f5f5f5"/><path d="M254.676,167.724c-2.407,5.01-6.676,19.814-6.676,37.517s4.269,32.508,6.676,37.517Z" fill="#f5f5f5"/><path d="M257.324,269.241v75.034c2.407-5.01,6.676-19.815,6.676-37.517S259.731,274.251,257.324,269.241Z" fill="#f5f5f5"/><path d="M254.676,269.241c-2.407,5.01-6.676,19.814-6.676,37.517s4.269,32.508,6.676,37.517Z" fill="#f5f5f5"/></g></svg>