<svg xmlns="http://www.w3.org/2000/svg" width="512" height="335.449" viewBox="0 0 512 335.449"><g transform="translate(0 -88.276)"><path d="M503.172,423.724H8.828A8.829,8.829,0,0,1,0,414.9V97.1a8.829,8.829,0,0,1,8.828-8.828H503.173A8.829,8.829,0,0,1,512,97.1V414.9A8.829,8.829,0,0,1,503.172,423.724Z" fill="#ff4b55"/><path d="M305.466,258.78a26.124,26.124,0,0,0-7.328-4.353c14.409-2.841,26-15.016,26-15.016-7.005,3.073-10.261,3.7-21.41.031a26.117,26.117,0,0,0-8.435-1.217c12.224-8.14,18.272-23.82,18.272-23.82-5.3,5.519-8.066,7.341-19.768,8.222a26.14,26.14,0,0,0-8.26,2.1c8.18-12.2,7.766-29,7.766-29-2.78,7.126-4.642,9.869-15.117,15.16a26.149,26.149,0,0,0-6.826,5.1c2.888-14.4-3.924-29.763-3.924-29.763.159,7.647-.513,10.894-8.164,19.792a26.124,26.124,0,0,0-4.353,7.328c-2.841-14.409-15.016-26-15.016-26,3.073,7.005,3.7,10.261.031,21.41a26.117,26.117,0,0,0-1.217,8.435c-8.14-12.224-23.82-18.272-23.82-18.272,5.519,5.295,7.341,8.066,8.222,19.768a26.153,26.153,0,0,0,2.1,8.259c-12.2-8.179-29-7.765-29-7.765,7.126,2.78,9.869,4.642,15.16,15.117a26.147,26.147,0,0,0,5.106,6.826c-14.4-2.889-29.765,3.924-29.765,3.924,7.648-.159,10.894.513,19.793,8.164a26.148,26.148,0,0,0,7.328,4.353c-14.409,2.841-26,15.016-26,15.016,7.005-3.073,10.261-3.7,21.41-.031a26.127,26.127,0,0,0,8.436,1.217c-12.224,8.139-18.273,23.821-18.273,23.821,5.295-5.519,8.066-7.341,19.768-8.222a26.153,26.153,0,0,0,8.259-2.1c-8.179,12.2-7.765,29-7.765,29,2.78-7.127,4.642-9.869,15.117-15.161a26.166,26.166,0,0,0,6.826-5.105c-2.889,14.4,3.924,29.764,3.924,29.764-.159-7.648.513-10.894,8.164-19.793a26.124,26.124,0,0,0,4.353-7.328c2.841,14.408,15.016,26,15.016,26-3.073-7.005-3.7-10.262-.031-21.41a26.117,26.117,0,0,0,1.217-8.435c8.14,12.224,23.82,18.272,23.82,18.272-5.519-5.3-7.341-8.066-8.222-19.768a26.16,26.16,0,0,0-2.1-8.259c12.2,8.179,29,7.765,29,7.765-7.126-2.781-9.869-4.642-15.161-15.117a26.149,26.149,0,0,0-5.105-6.826c14.4,2.888,29.764-3.924,29.764-3.924C317.611,267.1,314.364,266.434,305.466,258.78Z" fill="#ffe15a"/><path d="M291.406,263.044,326.62,256l-35.214-7.043,29.839-19.982-35.229,6.968,19.921-29.88-29.88,19.921,6.969-35.229-19.982,29.838L256,185.382,248.958,220.6l-19.982-29.838,6.969,35.229-29.88-19.921,19.921,29.88-35.229-6.968L220.6,248.96,185.38,256l35.214,7.043-29.839,19.982,35.229-6.969-19.921,29.88,29.88-19.921-6.969,35.229,19.982-29.838L256,326.621l7.043-35.214,19.982,29.838-6.969-35.229,29.88,19.921-19.921-29.88,35.229,6.969Z" fill="#ffd25a"/><circle cx="35.31" cy="35.31" r="35.31" transform="translate(220.69 220.69)" fill="#ffe15a"/><path d="M102.265,361.931c25.61,0,25.61,8.828,51.221,8.828,25.629,0,25.629-8.828,51.256-8.828s25.629,8.828,51.256,8.828c25.571,0,25.571-8.828,51.143-8.828s25.585,8.828,51.169,8.828,25.6-8.828,51.191-8.828,25.6,8.828,51.19,8.828,25.6-8.828,51.192-8.828l.116,0V335.45l-.116,0c-25.6,0-25.6,8.828-51.192,8.828s-25.594-8.828-51.19-8.828-25.6,8.828-51.191,8.828-25.585-8.828-51.169-8.828S281.57,344.276,256,344.276c-25.629,0-25.629-8.828-51.256-8.828s-25.629,8.828-51.256,8.828c-25.611,0-25.611-8.828-51.221-8.828-25.588,0-25.588,8.828-51.177,8.828-25.561,0-25.609-8.8-51.088-8.825v26.483c25.48.029,25.527,8.825,51.088,8.825C76.677,370.759,76.677,361.931,102.265,361.931Z" fill="#41479b"/><path d="M0,308.969c25.48.028,25.527,8.824,51.088,8.824,25.589,0,25.589-8.828,51.177-8.828,25.61,0,25.61,8.828,51.221,8.828,25.629,0,25.629-8.828,51.256-8.828s25.629,8.828,51.256,8.828c25.571,0,25.571-8.828,51.143-8.828s25.585,8.828,51.169,8.828,25.6-8.828,51.191-8.828,25.6,8.828,51.19,8.828,25.6-8.828,51.192-8.828l.116,0V282.484l-.116,0c-25.6,0-25.6,8.828-51.192,8.828s-25.594-8.828-51.19-8.828-25.6,8.828-51.191,8.828-25.585-8.828-51.169-8.828S281.57,291.31,256,291.31c-25.629,0-25.629-8.828-51.256-8.828s-25.629,8.828-51.256,8.828c-25.611,0-25.611-8.828-51.221-8.828-25.588,0-25.588,8.828-51.177,8.828-25.561,0-25.609-8.8-51.088-8.825v26.484Z" fill="#41479b"/><path d="M0,388.417c25.48.028,25.527,8.824,51.088,8.824,25.589,0,25.589-8.828,51.177-8.828,25.61,0,25.61,8.828,51.221,8.828,25.629,0,25.629-8.828,51.256-8.828s25.629,8.828,51.256,8.828c25.571,0,25.571-8.828,51.143-8.828s25.585,8.828,51.169,8.828,25.6-8.828,51.191-8.828,25.6,8.828,51.19,8.828,25.6-8.828,51.192-8.828l.116,0V361.932l-.116,0c-25.6,0-25.6,8.828-51.192,8.828S435.1,361.93,409.5,361.93s-25.6,8.828-51.191,8.828-25.585-8.828-51.169-8.828S281.57,370.758,256,370.758c-25.629,0-25.629-8.828-51.256-8.828s-25.629,8.828-51.256,8.828c-25.611,0-25.611-8.828-51.221-8.828-25.588,0-25.588,8.828-51.177,8.828-25.561,0-25.609-8.8-51.088-8.825v26.484Z" fill="#f5f5f5"/><path d="M0,335.452c25.48.028,25.527,8.824,51.088,8.824,25.589,0,25.589-8.828,51.177-8.828,25.61,0,25.61,8.828,51.221,8.828,25.629,0,25.629-8.828,51.256-8.828s25.629,8.828,51.256,8.828c25.571,0,25.571-8.828,51.143-8.828s25.585,8.828,51.169,8.828,25.6-8.828,51.191-8.828,25.6,8.828,51.19,8.828,25.6-8.828,51.192-8.828l.116,0V308.967l-.116,0c-25.6,0-25.6,8.828-51.192,8.828s-25.594-8.828-51.19-8.828-25.6,8.828-51.191,8.828-25.585-8.828-51.169-8.828S281.57,317.793,256,317.793c-25.629,0-25.629-8.828-51.256-8.828s-25.629,8.828-51.256,8.828c-25.611,0-25.611-8.828-51.221-8.828-25.588,0-25.588,8.828-51.177,8.828-25.561,0-25.609-8.8-51.088-8.825v26.484Z" fill="#f5f5f5"/><path d="M0,282.487c25.48.028,25.527,8.824,51.088,8.824,25.589,0,25.589-8.828,51.177-8.828,25.61,0,25.61,8.828,51.221,8.828,25.629,0,25.629-8.828,51.256-8.828s25.629,8.828,51.256,8.828c25.571,0,25.571-8.828,51.143-8.828s25.585,8.828,51.169,8.828,25.6-8.828,51.191-8.828,25.6,8.828,51.19,8.828,25.6-8.828,51.192-8.828l.116,0V256l-.116,0c-25.6,0-25.6,8.828-51.192,8.828S435.1,256,409.5,256s-25.6,8.828-51.191,8.828S332.725,256,307.141,256,281.57,264.828,256,264.828c-25.629,0-25.629-8.828-51.256-8.828s-25.629,8.828-51.256,8.828c-25.611,0-25.611-8.828-51.221-8.828-25.588,0-25.588,8.828-51.177,8.828-25.561,0-25.609-8.8-51.088-8.825v26.484Z" fill="#f5f5f5"/><path d="M460.692,397.242c-25.594,0-25.594-8.828-51.19-8.828s-25.6,8.828-51.191,8.828-25.585-8.828-51.169-8.828-25.571,8.828-51.142,8.828c-25.629,0-25.629-8.828-51.256-8.828s-25.629,8.828-51.256,8.828c-25.611,0-25.611-8.828-51.221-8.828-25.588,0-25.588,8.828-51.177,8.828-25.561,0-25.609-8.8-51.088-8.825V414.9a8.829,8.829,0,0,0,8.828,8.828H503.175a8.808,8.808,0,0,0,8.792-8.652c.011-15.532.023-26.655.035-26.655h0l-.116,0C486.288,388.414,486.288,397.242,460.692,397.242Z" fill="#41479b"/><path d="M274.38,135.165c42.927-1.66,64.746-20.4,64.746-20.4-3.083,1.185-51.227,5.217-64.983,6.4-8.687.748-19.524,10.653-26.349,17.865-1.838-4.994-5.431-10.174-12.546-11.224-14.467-2.134-52.888-4.5-62.374-9.013h0s6.123,9.465,37.769,13.756c15.162,2.056,23.522,7.256,27.5,10.8l-3.609-.124-6.166-3.084c-6.166-3.083-12.333,2.134-12.333,2.134h-9.822a1.493,1.493,0,0,0-1.194,2.388l.945,1.26a5.106,5.106,0,0,0,4.087,2.044h10.015c3.558,6.166,17.076,12.57,28.223,12.57s45.3-15.178,48.619-15.178l-30.894-1.057Z" fill="#ffe15a"/></g></svg>