<svg xmlns="http://www.w3.org/2000/svg" width="512" height="335.449" viewBox="0 0 512 335.449"><g transform="translate(0 -88.276)"><path d="M503.172,423.725H8.828A8.829,8.829,0,0,1,0,414.9V97.1a8.829,8.829,0,0,1,8.828-8.828H503.173A8.829,8.829,0,0,1,512,97.1V414.9A8.83,8.83,0,0,1,503.172,423.725Z" fill="#f5f5f5"/><path d="M305.009,182.533a88.3,88.3,0,0,0-122.374,24.506,44.109,44.109,0,1,0,73.4,48.943,44.108,44.108,0,1,1,73.4,48.941,88.264,88.264,0,0,0-24.417-122.39" fill="#ff4b55"/><path d="M182.634,207.04a44.109,44.109,0,1,0,73.4,48.943,44.108,44.108,0,1,1,73.4,48.941A88.217,88.217,0,1,1,182.634,207.04" fill="#41479b"/><path d="M349.92,149.191l16.035,24.1a4.414,4.414,0,0,1-1.219,6.112l-4.066,2.723a4.414,4.414,0,0,1-6.129-1.22l-16.055-24.1a4.415,4.415,0,0,1,1.223-6.119l4.086-2.728A4.413,4.413,0,0,1,349.92,149.191Z" fill="#464655"/><path d="M374.66,186.352l16.087,24.087a4.415,4.415,0,0,1-1.237,6.134l-4.084,2.7a4.413,4.413,0,0,1-6.1-1.23L363.245,193.98a4.414,4.414,0,0,1,1.217-6.122l4.074-2.724A4.415,4.415,0,0,1,374.66,186.352Z" fill="#464655"/><path d="M367.089,137.733l40.829,61.273a4.413,4.413,0,0,1-1.225,6.12l-4.1,2.734a4.413,4.413,0,0,1-6.121-1.224l-40.843-61.269a4.413,4.413,0,0,1,1.227-6.122l4.115-2.739A4.416,4.416,0,0,1,367.089,137.733Z" fill="#464655"/><path d="M384.211,126.293l16.07,24.149a4.412,4.412,0,0,1-1.241,6.127l-4.086,2.7a4.412,4.412,0,0,1-6.105-1.234l-16.082-24.117a4.413,4.413,0,0,1,1.224-6.121l4.1-2.732A4.411,4.411,0,0,1,384.211,126.293Z" fill="#464655"/><path d="M408.967,163.532l16.045,24.1a4.413,4.413,0,0,1-1.22,6.115l-4.075,2.724a4.413,4.413,0,0,1-6.127-1.223l-16.045-24.1a4.414,4.414,0,0,1,1.22-6.115l4.075-2.724A4.413,4.413,0,0,1,408.967,163.532Z" fill="#464655"/><path d="M132.721,293.983l40.824,61.207a4.413,4.413,0,0,1-1.222,6.12l-4.088,2.73a4.414,4.414,0,0,1-6.123-1.222l-40.824-61.207a4.413,4.413,0,0,1,1.222-6.12l4.088-2.73A4.415,4.415,0,0,1,132.721,293.983Z" fill="#464655"/><path d="M115.582,305.432l16.028,24.041a4.413,4.413,0,0,1-1.217,6.116l-4.066,2.722a4.414,4.414,0,0,1-6.126-1.217l-16.047-24.035a4.413,4.413,0,0,1,1.22-6.122l4.086-2.728A4.414,4.414,0,0,1,115.582,305.432Z" fill="#464655"/><path d="M140.351,342.606l16.046,24.1a4.412,4.412,0,0,1-1.222,6.115l-4.078,2.726a4.414,4.414,0,0,1-6.126-1.221l-16.056-24.1a4.415,4.415,0,0,1,1.222-6.119l4.088-2.73A4.414,4.414,0,0,1,140.351,342.606Z" fill="#464655"/><path d="M98.442,316.877l40.8,61.21a4.416,4.416,0,0,1-1.219,6.118l-4.077,2.726a4.413,4.413,0,0,1-6.125-1.22L87,324.509a4.415,4.415,0,0,1,1.224-6.122l4.1-2.734A4.412,4.412,0,0,1,98.442,316.877Z" fill="#464655"/><path d="M121.294,210.443l40.818-61.257a4.414,4.414,0,0,1,6.124-1.224l4.087,2.729a4.415,4.415,0,0,1,1.222,6.12l-40.834,61.223a4.414,4.414,0,0,1-6.108,1.231l-4.071-2.7A4.413,4.413,0,0,1,121.294,210.443Z" fill="#464655"/><path d="M104.147,199.01l40.825-61.269a4.414,4.414,0,0,1,6.126-1.222l4.077,2.726a4.413,4.413,0,0,1,1.22,6.116l-40.814,61.272a4.413,4.413,0,0,1-6.124,1.224l-4.088-2.729A4.413,4.413,0,0,1,104.147,199.01Z" fill="#464655"/><path d="M86.99,187.626l40.829-61.33a4.415,4.415,0,0,1,6.127-1.224l4.077,2.726a4.413,4.413,0,0,1,1.222,6.114l-40.8,61.339a4.414,4.414,0,0,1-6.123,1.228l-4.1-2.734A4.416,4.416,0,0,1,86.99,187.626Z" fill="#464655"/><path d="M338.493,355.19l16.047-24.035a4.414,4.414,0,0,1,6.126-1.217l4.066,2.723a4.414,4.414,0,0,1,1.217,6.116l-16.028,24.04a4.414,4.414,0,0,1-6.123,1.223l-4.086-2.728A4.414,4.414,0,0,1,338.493,355.19Z" fill="#464655"/><path d="M363.243,318.142l16.073-24.154a4.415,4.415,0,0,1,6.123-1.227l4.1,2.73a4.415,4.415,0,0,1,1.223,6.124l-16.107,24.116a4.412,4.412,0,0,1-6.109,1.227l-4.062-2.692A4.414,4.414,0,0,1,363.243,318.142Z" fill="#464655"/><path d="M355.626,366.7l16.057-24.1a4.414,4.414,0,0,1,6.122-1.225l4.1,2.737a4.415,4.415,0,0,1,1.225,6.119l-16.047,24.1a4.414,4.414,0,0,1-6.12,1.228l-4.115-2.739A4.416,4.416,0,0,1,355.626,366.7Z" fill="#464655"/><path d="M380.4,329.464l16.066-24.042a4.415,4.415,0,0,1,6.119-1.22l4.1,2.734a4.413,4.413,0,0,1,1.221,6.124L391.846,337.1a4.414,4.414,0,0,1-6.118,1.22l-4.1-2.734A4.411,4.411,0,0,1,380.4,329.464Z" fill="#464655"/><path d="M372.771,378.082l16.075-24.056a4.414,4.414,0,0,1,6.1-1.23l4.086,2.7a4.415,4.415,0,0,1,1.239,6.131l-16.063,24.088a4.415,4.415,0,0,1-6.121,1.224l-4.1-2.732A4.414,4.414,0,0,1,372.771,378.082Z" fill="#464655"/><path d="M397.554,340.97l16.035-24.085a4.414,4.414,0,0,1,6.127-1.223l4.072,2.722a4.414,4.414,0,0,1,1.218,6.119l-16.049,24.053a4.413,4.413,0,0,1-6.11,1.229l-4.06-2.69A4.414,4.414,0,0,1,397.554,340.97Z" fill="#464655"/></g></svg>