<svg xmlns="http://www.w3.org/2000/svg" width="512" height="335.449" viewBox="0 0 512 335.449"><g transform="translate(0 -88.276)"><path d="M503.172,423.725H8.828A8.829,8.829,0,0,1,0,414.9V97.1a8.829,8.829,0,0,1,8.828-8.828H503.173A8.829,8.829,0,0,1,512,97.1V414.9A8.83,8.83,0,0,1,503.172,423.725Z" fill="#41479b"/><path d="M267.31,202.484c-5.1-.966-11.31-7.448-9.1-11.034s-1.931-11.586-6.9-8.828-8.276,6.069-12.966,7.172-8.552,4.69-4.966,8,9.1,9.931,3.862,16.828-3.586,2.207-9.931,5.241-10.759,9.1-8.828,12.69,3.586,4.966-1.931,7.448-8,.828-12.414,1.931-15.172,6.621-18.483,11.31-10.483.276-13.517-.276-9.1,1.655-10.483,5.241,1.1,6.9,6.345,8.552,7.448,1.931,4.966,6.345-.828,12.966,3.31,15.448S188.412,298.759,188.412,304s-1.1,12.966,6.621,14.069,19.586,4.414,23.724,11.586,5.241,11.31,6.069,15.724a43.953,43.953,0,0,0,4.138,12.966c2.483,4.966,4.138,13.517,1.655,15.448s-4.414,3.31-2.483,7.034,2.345,5.1,5.931,3.034,3.586.138,5.517-.276,10.759-3.586,9.1-7.862-5.241-14.069-.138-19.172,12-5.931,16.414-9.379,11.724-4,17.379-9.517,11.724-2.207,12.69,1.655,2.483,11.31,6.9,11.172,5.379-.138,6.207-5.517,7.724-17.379,10.483-15.862,5.241.276,5.379-2.069,5.379-4.414,7.586-1.1,7.034,5.931,6.9,1.793-5.793-3.586-5.931-8.138,4.552-7.448,8.69-9.379,1.655-6.9,2.9-9.655,8-6.207,8.276-8.966-1.655-3.862,1.241-4.552,6.483-1.931,4.414-5.1-1.379-5.517.828-7.034,3.242-8.718.023-9.654-9.035,1.766-10.489,3.531-7.373-5.816-10.178-7.686-20.875-.727-20.459-3.842,8-14.487,4.69-16.28a85.247,85.247,0,0,0-12.828-5.793c-4.276-1.379-3.31,3.31-5.655-.414s-3.172-16.966-5.793-16.966-4.552,5.517-5.655,3.448.414-16.414-5.655-16.69-6.207,3.31-9.655.69S274.287,203.8,267.31,202.484Z" fill="#ff9b55"/><path d="M229.837,124.014l-4.583,13.74-14.484.113a.826.826,0,0,0-.484,1.491l11.651,8.6-4.369,13.81a.826.826,0,0,0,1.269.921l11.783-8.423,11.784,8.423a.827.827,0,0,0,1.269-.921l-4.369-13.81,11.651-8.6a.826.826,0,0,0-.484-1.491l-14.484-.113-4.583-13.74A.826.826,0,0,0,229.837,124.014Z" fill="#f5f5f5"/><path d="M280.872,124.014l-4.583,13.74-14.484.113a.826.826,0,0,0-.484,1.491l11.651,8.6-4.369,13.81a.826.826,0,0,0,1.269.921l11.784-8.423,11.784,8.423a.827.827,0,0,0,1.269-.921l-4.369-13.81,11.651-8.6a.826.826,0,0,0-.484-1.491l-14.484-.113-4.583-13.74A.827.827,0,0,0,280.872,124.014Z" fill="#f5f5f5"/><path d="M179.492,132.428l-4.583,13.74-14.484.113a.826.826,0,0,0-.484,1.491l11.651,8.6-4.369,13.81a.826.826,0,0,0,1.269.921l11.784-8.423,11.784,8.423a.827.827,0,0,0,1.269-.921l-4.369-13.81,11.651-8.6a.826.826,0,0,0-.484-1.491l-14.484-.113-4.583-13.74A.827.827,0,0,0,179.492,132.428Z" fill="#f5f5f5"/><path d="M131.859,149.741l-4.583,13.74-14.484.113a.826.826,0,0,0-.484,1.491l11.651,8.6L119.59,187.5a.826.826,0,0,0,1.269.921L132.643,180l11.784,8.423a.827.827,0,0,0,1.269-.921l-4.369-13.81,11.651-8.6a.826.826,0,0,0-.484-1.491l-14.484-.113-4.583-13.74A.827.827,0,0,0,131.859,149.741Z" fill="#f5f5f5"/><path d="M332.647,132.428l4.583,13.74,14.484.113a.826.826,0,0,1,.484,1.491l-11.651,8.6,4.369,13.81a.826.826,0,0,1-1.269.921l-11.784-8.423-11.784,8.423a.827.827,0,0,1-1.269-.921l4.369-13.81-11.651-8.6a.826.826,0,0,1,.484-1.491l14.483-.113,4.583-13.74A.827.827,0,0,1,332.647,132.428Z" fill="#f5f5f5"/><path d="M380.28,149.741l4.583,13.74,14.484.113a.826.826,0,0,1,.484,1.491l-11.651,8.6,4.369,13.81a.826.826,0,0,1-1.269.921L379.5,180l-11.784,8.423a.827.827,0,0,1-1.269-.921l4.369-13.81-11.651-8.6a.826.826,0,0,1,.484-1.491l14.484-.113,4.583-13.74A.827.827,0,0,1,380.28,149.741Z" fill="#f5f5f5"/></g></svg>