<svg xmlns="http://www.w3.org/2000/svg" width="512" height="335.449" viewBox="0 0 512 335.449"><g transform="translate(0 -88.276)"><path d="M503.172,423.725H8.828A8.829,8.829,0,0,1,0,414.9V97.1a8.829,8.829,0,0,1,8.828-8.828H503.173A8.829,8.829,0,0,1,512,97.1V414.9A8.83,8.83,0,0,1,503.172,423.725Z" fill="#ff4b55"/><path d="M349.373,282.328s-17.586-2.932-30.613-13.735c-3.843-3.187-9.42-5.622-14.852-7.422a55.812,55.812,0,0,1,13.376.813C335.416,265.65,353,256.849,353,256.849s-17.739,1.79-33.145-5.213c-4.167-1.894-9.571-2.786-14.846-3.162a54.065,54.065,0,0,1,11.8-2.165c18.471-1.024,33.265-13.973,33.265-13.973s-16.714,6.2-33.388,3.311c-4.856-.843-10.817-.212-16.364.9a55.462,55.462,0,0,1,11.836-5.813c17.562-5.811,28.462-22.174,28.462-22.174s-14.515,10.353-31.366,11.914c-5,.463-10.7,2.71-15.846,5.3a55.884,55.884,0,0,1,10.1-8.961c15.413-10.229,21.622-28.884,21.622-28.884S313.849,201.738,298,207.68c-4.32,1.62-8.8,4.864-12.818,8.36a54.2,54.2,0,0,1,6.865-9.991c12.329-13.791,13.622-33.409,13.622-33.409s-7.423,16.21-21.253,25.963c-4.032,2.844-7.8,7.512-10.934,12.23a55.565,55.565,0,0,1,4.254-12.5c8.3-16.533,4.424-35.808,4.424-35.808s-2.932,17.586-13.735,30.613c-3.187,3.843-5.622,9.42-7.422,14.854a55.812,55.812,0,0,1,.813-13.376c3.666-18.132-5.135-35.713-5.135-35.713s1.79,17.739-5.214,33.145c-1.894,4.167-2.786,9.571-3.162,14.846a54.065,54.065,0,0,1-2.165-11.795c-1.024-18.471-13.973-33.265-13.973-33.265s6.2,16.714,3.311,33.388c-.843,4.856-.212,10.817.9,16.365a55.447,55.447,0,0,1-5.813-11.837c-5.811-17.562-22.174-28.462-22.174-28.462s10.353,14.515,11.914,31.366c.463,5,2.71,10.705,5.3,15.847a55.9,55.9,0,0,1-8.962-10.1c-10.229-15.413-28.884-21.621-28.884-21.621s13.809,11.277,19.751,27.124c1.62,4.32,4.864,8.8,8.36,12.818a54.2,54.2,0,0,1-9.991-6.865c-13.791-12.329-33.409-13.622-33.409-13.622s16.21,7.423,25.963,21.254c2.842,4.031,7.511,7.8,12.227,10.934a55.548,55.548,0,0,1-12.5-4.254c-16.533-8.3-35.808-4.424-35.808-4.424s17.586,2.932,30.613,13.735c3.843,3.187,9.42,5.622,14.854,7.422a55.811,55.811,0,0,1-13.376-.813c-18.132-3.666-35.713,5.135-35.713,5.135s17.739-1.79,33.145,5.214c4.167,1.894,9.571,2.786,14.846,3.162a54.066,54.066,0,0,1-11.795,2.165c-18.471,1.024-33.265,13.973-33.265,13.973s16.714-6.2,33.388-3.311c4.856.843,10.817.212,16.365-.9a55.448,55.448,0,0,1-11.837,5.813c-17.562,5.811-28.462,22.174-28.462,22.174s14.515-10.353,31.366-11.914c5-.463,10.705-2.71,15.847-5.3a55.9,55.9,0,0,1-10.1,8.962c-15.413,10.229-21.622,28.884-21.622,28.884s11.277-13.809,27.124-19.751c4.319-1.62,8.8-4.864,12.817-8.36a54.226,54.226,0,0,1-6.863,9.99c-12.329,13.791-13.622,33.409-13.622,33.409s7.423-16.21,21.254-25.963c4.032-2.844,7.8-7.512,10.934-12.228a55.556,55.556,0,0,1-4.254,12.5c-8.3,16.533-4.424,35.808-4.424,35.808s2.932-17.586,13.735-30.613c3.187-3.843,5.622-9.42,7.422-14.854a55.813,55.813,0,0,1-.813,13.377c-3.666,18.132,5.135,35.712,5.135,35.712s-1.79-17.738,5.214-33.144c1.894-4.167,2.786-9.572,3.162-14.846a54.066,54.066,0,0,1,2.165,11.8c1.024,18.471,13.973,33.265,13.973,33.265s-6.2-16.715-3.311-33.388c.843-4.856.212-10.817-.9-16.364a55.44,55.44,0,0,1,5.813,11.836c5.811,17.562,22.174,28.462,22.174,28.462s-10.353-14.515-11.914-31.367c-.463-5-2.71-10.7-5.3-15.847a55.9,55.9,0,0,1,8.962,10.105c10.229,15.413,28.884,21.622,28.884,21.622s-13.809-11.277-19.751-27.124c-1.62-4.319-4.864-8.8-8.36-12.817a54.259,54.259,0,0,1,9.99,6.863c13.791,12.329,33.409,13.622,33.409,13.622s-16.21-7.423-25.963-21.254c-2.844-4.032-7.512-7.8-12.23-10.934a55.557,55.557,0,0,1,12.5,4.254C330.1,286.2,349.373,282.328,349.373,282.328Zm-93.394,18.5A44.819,44.819,0,1,1,300.8,256.006,44.819,44.819,0,0,1,255.979,300.825Z" fill="#ffe15a"/><path d="M241.769,237.868c.956-.746,1.907-1.495,2.873-2.161a62.538,62.538,0,0,0-16.076-4.9c-.638.694-1.214,1.439-1.8,2.179A66.955,66.955,0,0,1,241.769,237.868Z" fill="#ffe15a"/><path d="M230.494,228.833a62.814,62.814,0,0,1,17.468,4.747c1.16-.692,2.314-1.3,3.47-1.9a62.909,62.909,0,0,0-18.862-4.564C231.872,227.687,231.148,228.219,230.494,228.833Z" fill="#ffe15a"/><path d="M252.932,249.607q-1.341-1.266-2.712-2.4c-8.391,7.986-15.732,19.633-19.046,36.532a37.646,37.646,0,0,0,3.738,3.085C237.347,269.639,244.484,257.776,252.932,249.607Z" fill="#ffe15a"/><path d="M249.678,242.184c.951-.765,1.9-1.533,2.865-2.217-1.174-.749-2.344-1.407-3.51-2.048-1,.684-2,1.346-2.986,2.115C247.255,240.7,248.463,241.407,249.678,242.184Z" fill="#ffe15a"/><path d="M272.866,240.02c7.194,6.319,13.77,15.217,18.449,27.553a36.213,36.213,0,0,0-4.341-32.4A57.854,57.854,0,0,0,272.866,240.02Z" fill="#ffe15a"/><path d="M253.2,244.585c.937.7,1.855,1.482,2.777,2.255.921-.774,1.839-1.559,2.777-2.255-.922-.768-1.842-1.524-2.777-2.214C255.044,243.062,254.125,243.817,253.2,244.585Z" fill="#ffe15a"/><path d="M255.979,233.77c-1.173.6-2.347,1.266-3.527,1.964,1.174.617,2.346,1.279,3.527,2,1.181-.724,2.354-1.386,3.527-2C258.326,235.035,257.152,234.365,255.979,233.77Z" fill="#ffe15a"/><path d="M227.1,279.427c3.951-16.135,11.4-27.189,19.734-34.793-1.165-.823-2.326-1.578-3.49-2.276-8.021,7.053-15.279,17.245-19.751,31.929A37.038,37.038,0,0,0,227.1,279.427Z" fill="#ffe15a"/><path d="M239.092,240.02a57.9,57.9,0,0,0-14.109-4.85,36.213,36.213,0,0,0-4.341,32.4C225.322,255.236,231.9,246.339,239.092,240.02Z" fill="#ffe15a"/><path d="M255.979,229.579a64.212,64.212,0,0,1,20.489-4.757,37.129,37.129,0,0,0-40.978,0A64.186,64.186,0,0,1,255.979,229.579Z" fill="#ffe15a"/><path d="M255.979,252.766c-7.449,8.255-13.6,20.107-15.592,37.081a36.4,36.4,0,0,0,31.184,0C269.576,272.874,263.428,261.021,255.979,252.766Z" fill="#ffe15a"/><path d="M268.61,242.358c-1.163.7-2.324,1.453-3.49,2.276,8.334,7.6,15.783,18.658,19.734,34.793a37.094,37.094,0,0,0,3.507-5.14C283.89,259.6,276.631,249.411,268.61,242.358Z" fill="#ffe15a"/><path d="M280.783,283.741c-3.314-16.9-10.655-28.545-19.046-36.532q-1.371,1.133-2.712,2.4c8.448,8.169,15.585,20.032,18.019,37.218A37.4,37.4,0,0,0,280.783,283.741Z" fill="#ffe15a"/><path d="M260.526,231.684c1.156.591,2.311,1.2,3.47,1.9a62.813,62.813,0,0,1,17.468-4.747c-.654-.614-1.378-1.146-2.076-1.713A63.007,63.007,0,0,0,260.526,231.684Z" fill="#ffe15a"/><path d="M262.28,242.184c1.215-.777,2.423-1.484,3.631-2.15-.986-.769-1.987-1.431-2.986-2.115-1.166.642-2.335,1.3-3.51,2.048C260.378,240.651,261.329,241.42,262.28,242.184Z" fill="#ffe15a"/><path d="M270.189,237.868a66.914,66.914,0,0,1,15-4.877c-.585-.74-1.16-1.486-1.8-2.179a62.5,62.5,0,0,0-16.076,4.9C268.282,236.372,269.234,237.122,270.189,237.868Z" fill="#ffe15a"/></g></svg>