<svg xmlns="http://www.w3.org/2000/svg" width="512" height="335.449" viewBox="0 0 512 335.449"><g transform="translate(0 -88.276)"><path d="M512,158.9H0V97.1a8.829,8.829,0,0,1,8.828-8.828H503.173A8.829,8.829,0,0,1,512,97.1V158.9Z" fill="#ff4b55"/><path d="M503.172,423.725H8.828A8.829,8.829,0,0,1,0,414.9V353.1H512V414.9A8.828,8.828,0,0,1,503.172,423.725Z" fill="#ff4b55"/><rect width="512" height="194.21" transform="translate(0 158.901)" fill="#f5f5f5"/><path d="M274.862,315.38l81.581-16.317a8.137,8.137,0,0,0,4.89-12.894h0a8.136,8.136,0,0,0-5.233-3.127l-86.911-13.551a4.447,4.447,0,0,1-3.7-5.124,4.641,4.641,0,0,1,5.262-3.633l60.259,7.929a5.26,5.26,0,0,0,4.523-8.812l-4.838-5.16a12.572,12.572,0,0,0-6.785-3.746L273.571,241.2l42.921,3.092a3.668,3.668,0,0,0,2.993-6.108l-2.2-2.453a9.354,9.354,0,0,0-5.048-2.909l-42.613-8.9,30.284-.876a3.146,3.146,0,0,0,2.25-5.246l-1.358-1.513a8.48,8.48,0,0,0-3.97-2.486l-27.01-7.755h21.226a2.918,2.918,0,0,0,2.677-4.078l-.716-1.652a7.656,7.656,0,0,0-4.559-4.2l-19.629-6.678,9.654-.031a3.994,3.994,0,0,0,3.652-5.582h0a10.045,10.045,0,0,0-4.593-4.924L256,167.725,234.466,178.89a10.049,10.049,0,0,0-4.593,4.924h0a3.993,3.993,0,0,0,3.652,5.582l9.654.032-19.629,6.678a7.65,7.65,0,0,0-4.559,4.2l-.716,1.652a2.918,2.918,0,0,0,2.677,4.078h21.226l-27.01,7.755a8.48,8.48,0,0,0-3.97,2.486l-1.358,1.513a3.146,3.146,0,0,0,2.25,5.246l30.284.876-42.613,8.9a9.347,9.347,0,0,0-5.048,2.909l-2.2,2.453a3.668,3.668,0,0,0,2.993,6.108l42.921-3.092-50.339,9.749a12.572,12.572,0,0,0-6.785,3.746l-4.838,5.16a5.26,5.26,0,0,0,4.523,8.812l60.259-7.929a4.641,4.641,0,0,1,5.262,3.633,4.446,4.446,0,0,1-3.7,5.124L155.9,283.045a8.14,8.14,0,0,0-5.233,3.126h0a8.138,8.138,0,0,0,4.89,12.894l81.581,16.317v10.182A20.958,20.958,0,0,1,231,340.383l-12.721,12.723h75.449L281,340.382a20.958,20.958,0,0,1-6.138-14.819V315.38Z" fill="#73af00"/></g></svg>