<svg xmlns="http://www.w3.org/2000/svg" width="512" height="335.448" viewBox="0 0 512 335.448"><g transform="translate(0 -88.276)"><path d="M0,311.908H512V414.9a8.829,8.829,0,0,1-8.828,8.828H8.828A8.829,8.829,0,0,1,0,414.9Z" fill="#73af00"/><path d="M8.828,88.276H503.173A8.829,8.829,0,0,1,512,97.1V200.092H0V97.1A8.828,8.828,0,0,1,8.828,88.276Z" fill="#41479b"/><rect width="512" height="111.81" transform="translate(0 200.09)" fill="#f5f5f5"/><path d="M286.477,275.913l-2.052,1.045c-.279.142-.58.265-.865.4l-18.127-22.9c3.726-8.1,5.934-19.153,5.934-24.178,0-8.257-5.418-15.136-12.547-16.591a3.064,3.064,0,0,0-5.61,0c-7.128,1.455-12.547,8.335-12.547,16.591,0,5.025,2.209,16.078,5.934,24.178l-18.126,22.9c-.282-.137-.583-.259-.861-.4l-2.052-1.045L217.9,290.969l2.052,1.044c10.451,5.316,22.921,8.126,36.063,8.126s25.617-2.812,36.07-8.127l2.052-1.044ZM268.3,230.285c0,3.735-1.387,11.586-3.957,18.783q-.508,1.422-1.042,2.7l-2.677-3.382V236.426h4.606l-6.141-6.141V216.922C264.373,218.462,268.3,223.86,268.3,230.285ZM247.69,249.067c-2.57-7.2-3.957-15.048-3.957-18.783,0-6.424,3.923-11.822,9.212-13.363v13.363l-6.141,6.141h4.606v11.959l-2.677,3.382Q248.2,250.489,247.69,249.067Zm-20.648,34.084.627,2.579-2.251.614Zm-2.679,5.869,3.851-1.05.707,2.91C227.368,290.306,225.841,289.7,224.363,289.02Zm5.839-5.866c1.752.693,3.575,1.3,5.449,1.849l.554,1.7-4.849,1.2Zm2.164,8.9-.467-1.919,5.022-1.239,1.557,4.771Q235.354,292.988,232.366,292.054Zm6.816-6.127c1.927.449,3.889.836,5.892,1.129l.834,1.492-5.33,1.661Zm2.742,8.4-.631-1.933,5.763-1.8,2.612,4.671Q245.728,294.98,241.924,294.332Zm6.923-6.823c2.366.224,4.759.348,7.167.348.513,0,1.023-.028,1.535-.039l.641.983-7.084,2.748Zm7.167,8.024c-.913,0-1.814-.039-2.719-.067l-1.055-1.887,7.235-2.806,2.933,4.5C260.3,295.426,258.172,295.533,256.014,295.533Zm5.1-7.87c2.434-.163,4.839-.44,7.2-.831l.691.883-5.608,3.446Zm4.748,7.28-1.208-1.853,5.778-3.55,3.212,4.107Q269.838,294.483,265.86,294.943Zm5.846-8.754c2.008-.433,3.974-.941,5.878-1.536l.715.926-4.077,3.827Zm5.22,6.673-1.28-1.636,4.067-3.817,2.835,3.671C280.715,291.74,278.848,292.348,276.926,292.862Zm3.726-9.26c1.293-.48,2.564-.985,3.786-1.54l.6,1.181-1.962,3.5Zm4.886,6.327-.931-1.206,1.688-3.011,1.628,3.2C287.144,289.272,286.338,289.6,285.538,289.929Z" fill="#464655"/></g></svg>