<svg xmlns="http://www.w3.org/2000/svg" width="512" height="335.449" viewBox="0 0 512 335.449"><g transform="translate(0 -88.276)"><path d="M512,118.772H0V97.1a8.829,8.829,0,0,1,8.828-8.828H503.173A8.829,8.829,0,0,1,512,97.1v21.668Z" fill="#ff4b55"/><rect width="512" height="30.495" transform="translate(0 118.781)" fill="#f5f5f5"/><rect width="512" height="30.495" transform="translate(0 149.261)" fill="#ff4b55"/><rect width="512" height="30.495" transform="translate(0 179.761)" fill="#f5f5f5"/><path d="M512,240.754H8.828A8.829,8.829,0,0,1,0,231.926V210.259H512Z" fill="#ff4b55"/><path d="M512,271.248H0v-41.73H8.826l0,11.236H512Z" fill="#f5f5f5"/><rect width="512" height="30.495" transform="translate(0 271.251)" fill="#ff4b55"/><rect width="512" height="30.495" transform="translate(0 301.741)" fill="#f5f5f5"/><rect width="512" height="30.495" transform="translate(0 332.241)" fill="#ff4b55"/><rect width="512" height="30.495" transform="translate(0 362.741)" fill="#f5f5f5"/><path d="M503.172,423.725H8.828A8.829,8.829,0,0,1,0,414.9V393.23H512V414.9A8.828,8.828,0,0,1,503.172,423.725Z" fill="#ff4b55"/><path d="M141.241,240.754H8.828A8.829,8.829,0,0,1,0,231.926V97.1a8.829,8.829,0,0,1,8.828-8.828H141.242A8.829,8.829,0,0,1,150.07,97.1V231.926A8.83,8.83,0,0,1,141.241,240.754Z" fill="#41479b"/><path d="M72.512,127.738l-8.428,25.27-26.638.206a2.659,2.659,0,0,0-1.559,4.8l21.429,15.825-8.035,25.4a2.659,2.659,0,0,0,4.081,2.965l21.674-15.49L96.708,202.2a2.659,2.659,0,0,0,4.081-2.965l-8.035-25.4,21.429-15.825a2.659,2.659,0,0,0-1.559-4.8l-26.638-.206-8.428-25.27A2.66,2.66,0,0,0,72.512,127.738Z" fill="#f5f5f5"/></g></svg>