<svg xmlns="http://www.w3.org/2000/svg" width="512" height="335.448" viewBox="0 0 512 335.448"><g transform="translate(0 -88.276)"><path d="M0,335.448H512V414.9a8.829,8.829,0,0,1-8.828,8.828H8.828A8.829,8.829,0,0,1,0,414.9Z" fill="#73af00"/><path d="M8.828,88.276H503.173A8.829,8.829,0,0,1,512,97.1v79.448H0V97.1A8.828,8.828,0,0,1,8.828,88.276Z" fill="#ff4b55"/><rect width="512" height="158.9" transform="translate(0 176.55)" fill="#464655"/><path d="M306.058,227.432l13.286,17.379,20.745-6.944a1.273,1.273,0,0,1,1.452,1.93L329.117,257.8l13.014,17.583a1.273,1.273,0,0,1-1.387,1.977l-20.963-6.251-12.7,17.811a1.274,1.274,0,0,1-2.31-.708l-.533-21.869-20.864-6.575a1.273,1.273,0,0,1-.04-2.415l20.634-7.264-.193-21.875A1.273,1.273,0,0,1,306.058,227.432Z" fill="#f5f5f5"/><path d="M270,298.9a42.9,42.9,0,0,1,0-85.8,42.059,42.059,0,0,1,23.7,7.294,1.038,1.038,0,0,0,1.352-1.562,53.153,53.153,0,0,0-40.309-16.392A53.591,53.591,0,0,0,256.6,309.592a53.163,53.163,0,0,0,38.485-16.459,1.031,1.031,0,0,0-1.354-1.54A42.108,42.108,0,0,1,270,298.9Z" fill="#f5f5f5"/></g></svg>