<svg xmlns="http://www.w3.org/2000/svg" width="512" height="335.45" viewBox="0 0 512 335.45"><g transform="translate(0 -88.275)"><path d="M512,256H0V97.1a8.829,8.829,0,0,1,8.828-8.828H503.173A8.829,8.829,0,0,1,512,97.1V256Z" fill="#41479b"/><path d="M0,256H512V414.9a8.829,8.829,0,0,1-8.828,8.828H8.828A8.829,8.829,0,0,1,0,414.9Z" fill="#ff4b55"/><path d="M164.028,188.687a1.237,1.237,0,0,0-.708-.749c-.034-.013-.727-.277-1.839-.59a3.6,3.6,0,0,0,.2-4.353,3.872,3.872,0,0,0,.715-6.387,3.839,3.839,0,0,0-.351-6.551,3.884,3.884,0,0,0-1.722-6.354,3.877,3.877,0,0,0,.627-2.016,3.982,3.982,0,0,0-3.892-3.968,3.869,3.869,0,0,0,.205-1.015,3.993,3.993,0,0,0-3.989-3.988,3.851,3.851,0,0,0-1.046.212c.006-.088.051-.163.051-.254a3.993,3.993,0,0,0-3.988-3.988,3.879,3.879,0,0,0-2.026.633,3.923,3.923,0,0,0-6.6-1.785,3.858,3.858,0,0,0-6.721-.307,3.886,3.886,0,0,0-6.292.766,3.864,3.864,0,0,0-6.323.642,3.908,3.908,0,0,0-2.424-.9,3.982,3.982,0,0,0-3.69,2.515,3.909,3.909,0,0,0-6.237,1.009,3.836,3.836,0,0,0-.931-.427,7.755,7.755,0,0,0-3.193-11.4l1.118-2.237a1.233,1.233,0,0,0,0-1.1l-1.346-2.692c.1-.089.191-.182.28-.28l2.695,1.346a1.224,1.224,0,0,0,1.1,0l6.554-3.277a1.226,1.226,0,0,0,0-2.2l-6.554-3.277a1.226,1.226,0,0,0-1.1,0l-2.692,1.346c-.09-.1-.184-.193-.282-.284l1.346-2.692a1.233,1.233,0,0,0,0-1.1l-3.277-6.554a1.281,1.281,0,0,0-2.2,0l-3.277,6.554a1.233,1.233,0,0,0,0,1.1l1.346,2.692c-.1.089-.191.182-.28.28l-2.695-1.346a1.226,1.226,0,0,0-1.1,0l-6.554,3.277a1.226,1.226,0,0,0,0,2.2l6.554,3.277a1.212,1.212,0,0,0,1.1,0l2.692-1.346c.09.1.184.193.282.284l-1.346,2.692a1.233,1.233,0,0,0,0,1.1l1.118,2.237A7.738,7.738,0,0,0,94.1,150.746a3.85,3.85,0,0,0-1.336.51,3.909,3.909,0,0,0-6.237-1.009,3.98,3.98,0,0,0-3.69-2.515,3.9,3.9,0,0,0-2.424.9,3.864,3.864,0,0,0-6.323-.642,3.886,3.886,0,0,0-6.292-.766,3.858,3.858,0,0,0-6.721.307,3.923,3.923,0,0,0-6.6,1.785,3.873,3.873,0,0,0-2.026-.633,3.993,3.993,0,0,0-3.988,3.988c0,.089.045.166.051.254a3.851,3.851,0,0,0-1.046-.212,3.993,3.993,0,0,0-3.989,3.988,3.869,3.869,0,0,0,.205,1.015,3.982,3.982,0,0,0-3.892,3.968,3.877,3.877,0,0,0,.627,2.016,3.884,3.884,0,0,0-1.722,6.354,3.839,3.839,0,0,0-.351,6.551A3.872,3.872,0,0,0,39.063,183a3.637,3.637,0,0,0,.269,4.461c-.888.263-1.433.47-1.463.482a1.232,1.232,0,0,0-.6,1.776c.1.16,9.76,16.386,12.959,32.378a1.163,1.163,0,0,0,.7.811c2.457,3.319,23.746,5.913,49.66,5.913s47.2-2.594,49.66-5.913a1.163,1.163,0,0,0,.7-.811c3.2-15.98,12.861-32.218,12.959-32.378A1.237,1.237,0,0,0,164.028,188.687Z" fill="#ffe15a"/><path d="M164.028,188.687a1.237,1.237,0,0,0-.708-.749c-.034-.013-.727-.277-1.839-.59a3.6,3.6,0,0,0,.2-4.353,3.872,3.872,0,0,0,.715-6.387,3.839,3.839,0,0,0-.351-6.551,3.884,3.884,0,0,0-1.722-6.354,3.877,3.877,0,0,0,.627-2.016,3.982,3.982,0,0,0-3.892-3.968,3.869,3.869,0,0,0,.205-1.015,3.993,3.993,0,0,0-3.989-3.988,3.851,3.851,0,0,0-1.046.212c.006-.088.051-.163.051-.254a3.993,3.993,0,0,0-3.988-3.988,3.879,3.879,0,0,0-2.026.633,3.923,3.923,0,0,0-6.6-1.785,3.858,3.858,0,0,0-6.721-.307,3.886,3.886,0,0,0-6.292.766,3.864,3.864,0,0,0-6.323.642,3.908,3.908,0,0,0-2.424-.9,3.982,3.982,0,0,0-3.69,2.515,3.909,3.909,0,0,0-6.237,1.009,3.836,3.836,0,0,0-.931-.427,7.755,7.755,0,0,0-3.193-11.4l1.118-2.237a1.233,1.233,0,0,0,0-1.1l-1.346-2.692c.1-.089.191-.182.28-.28l2.695,1.346a1.224,1.224,0,0,0,1.1,0l6.554-3.277a1.226,1.226,0,0,0,0-2.2l-6.554-3.277a1.226,1.226,0,0,0-1.1,0l-2.692,1.346c-.09-.1-.184-.193-.282-.284l1.346-2.692a1.233,1.233,0,0,0,0-1.1l-3.277-6.554a1.281,1.281,0,0,0-2.2,0l-3.277,6.554a1.233,1.233,0,0,0,0,1.1l1.346,2.692c-.1.089-.191.182-.28.28l-2.695-1.346a1.226,1.226,0,0,0-1.1,0l-6.554,3.277a1.226,1.226,0,0,0,0,2.2l6.554,3.277a1.212,1.212,0,0,0,1.1,0l2.692-1.346c.09.1.184.193.282.284l-1.346,2.692a1.233,1.233,0,0,0,0,1.1l1.118,2.237A7.738,7.738,0,0,0,94.1,150.746a3.85,3.85,0,0,0-1.336.51,3.909,3.909,0,0,0-6.237-1.009,3.98,3.98,0,0,0-3.69-2.515,3.9,3.9,0,0,0-2.424.9,3.864,3.864,0,0,0-6.323-.642,3.886,3.886,0,0,0-6.292-.766,3.858,3.858,0,0,0-6.721.307,3.923,3.923,0,0,0-6.6,1.785,3.873,3.873,0,0,0-2.026-.633,3.993,3.993,0,0,0-3.988,3.988c0,.089.045.166.051.254a3.851,3.851,0,0,0-1.046-.212,3.993,3.993,0,0,0-3.989,3.988,3.869,3.869,0,0,0,.205,1.015,3.982,3.982,0,0,0-3.892,3.968,3.877,3.877,0,0,0,.627,2.016,3.884,3.884,0,0,0-1.722,6.354,3.839,3.839,0,0,0-.351,6.551A3.872,3.872,0,0,0,39.063,183a3.637,3.637,0,0,0,.269,4.461c-.888.263-1.433.47-1.463.482a1.232,1.232,0,0,0-.6,1.776c.1.16,9.76,16.386,12.959,32.378a1.163,1.163,0,0,0,.7.811c2.457,3.319,23.746,5.913,49.66,5.913s47.2-2.594,49.66-5.913a1.163,1.163,0,0,0,.7-.811c3.2-15.98,12.861-32.218,12.959-32.378A1.237,1.237,0,0,0,164.028,188.687Zm-34.742-7.916V161.538a37.462,37.462,0,0,1,4.533-.127v19.98A7.815,7.815,0,0,0,129.286,180.771Zm-14.146-26.2c.034.033.082.047.117.079l-.157.034C115.117,154.65,115.126,154.612,115.14,154.575ZM158.326,183.5a1.529,1.529,0,1,1-1.529,1.529A1.53,1.53,0,0,1,158.326,183.5Zm1.443-2.407a1.529,1.529,0,1,1,1.532-1.529A1.53,1.53,0,0,1,159.769,181.089Zm-1.223-7.639a1.529,1.529,0,1,1,1.529,1.529A1.53,1.53,0,0,1,158.546,173.45Zm-45.7,15.237a146.82,146.82,0,0,1-4.177-22.38c.845-.3,2.3-.781,4.177-1.35Zm-20.486-22.28a149.644,149.644,0,0,1-4.463,23.4V164.955C90,165.593,91.585,166.132,92.359,166.407Zm9.766-10.1a1.529,1.529,0,1,1-1.529-1.529A1.53,1.53,0,0,1,102.125,156.309ZM85.6,154.583l-.01,0a.026.026,0,0,0,.008-.006S85.6,154.581,85.6,154.583ZM40.665,171.921a1.529,1.529,0,1,1-1.529,1.529A1.53,1.53,0,0,1,40.665,171.921ZM42.5,179.56a1.531,1.531,0,1,1-1.529-1.529A1.53,1.53,0,0,1,42.5,179.56Zm-.086,3.936a1.529,1.529,0,1,1-1.529,1.529A1.53,1.53,0,0,1,42.414,183.5Zm6.311-20.706c2.406-3.892,7.1-8.53,15.82-8.53,8.512,0,20.522,2.6,28.214,4.513,0,1.668-.073,3.378-.191,5.1-5.248-1.827-26.121-8.508-35-2.432-10.047,6.89-6.872,20.033-4.995,25.476a19.754,19.754,0,0,0-4.761-.66A24.97,24.97,0,0,1,48.725,162.79Zm6.923,25.317c-.864-2.009-6.389-15.9,1.824-23.42v24.518A14.442,14.442,0,0,0,55.648,188.107Zm4.282-25.151a13.914,13.914,0,0,1,4.533-1.341v21.87a16.516,16.516,0,0,0-4.044,8.524c-.156-.2-.328-.354-.49-.537V162.956Zm6.992-1.547a37.462,37.462,0,0,1,4.533.127v19.213c-.268-.024-.548-.093-.81-.093a7.424,7.424,0,0,0-3.372.771c-.127.063-.23.149-.352.216V161.408h0Zm6.991.391c1.523.2,3.043.467,4.533.765V183.6a17.831,17.831,0,0,0-4.533-2.329Zm6.992,1.293c1.611.371,3.132.76,4.533,1.151v26.012a36.036,36.036,0,0,0-4.533-4.748Zm14.3-3.7c1.848.48,3.306.879,4.161,1.12v20.844a12.245,12.245,0,0,0-7.818,4.129C93.279,178.281,95.142,168.447,95.206,159.394Zm6.618,1.12c.833-.234,2.231-.618,4.009-1.08.068,8.961,1.895,18.677,3.609,25.856a12.137,12.137,0,0,0-7.617-3.93V160.515h0Zm13.479,3.732c1.4-.39,2.922-.78,4.533-1.151V185.7a1.149,1.149,0,0,0,.033.163,36.28,36.28,0,0,0-4.566,4.989S115.3,164.246,115.3,164.246Zm6.991-1.679c1.491-.3,3.01-.563,4.533-.765v19.586a19.142,19.142,0,0,0-4.533,2.507Zm13.983-.95a13.881,13.881,0,0,1,4.533,1.34v28.788a1.1,1.1,0,0,0,.036.181c-.024.031-.052.054-.076.084-.51-2.732-1.724-6.4-4.493-8.919Zm6.991,3.072c8.8,8.056,1.79,23.505,1.714,23.669a.47.47,0,0,0-.012.051,14.417,14.417,0,0,0-1.7,1.151V164.689Zm-.1-3.25c-8.7-5.96-28.974.36-34.709,2.332-.113-1.673-.186-3.335-.183-4.959,7.684-1.917,19.8-4.552,28.366-4.552,8.718,0,13.415,4.638,15.82,8.53a24.972,24.972,0,0,1,.913,23.466,19.464,19.464,0,0,0-5.262.81C149.984,181.715,153.308,168.391,143.17,161.439Zm15.915,7.531a1.529,1.529,0,1,1,1.532-1.529A1.53,1.53,0,0,1,159.085,168.97Zm-.6-7.285a1.531,1.531,0,1,1-1.532-1.529A1.534,1.534,0,0,1,158.488,161.685ZM154.8,156.7a1.531,1.531,0,1,1-1.532-1.529A1.53,1.53,0,0,1,154.8,156.7Zm-6.515-5.559a1.531,1.531,0,1,1-1.532,1.529A1.53,1.53,0,0,1,148.287,151.143Zm-5.8-2.321a1.529,1.529,0,1,1-1.529,1.529A1.53,1.53,0,0,1,142.483,148.822Zm-6.281-.957a1.531,1.531,0,1,1-1.532,1.529A1.53,1.53,0,0,1,136.2,147.865Zm-6.145.548a1.529,1.529,0,1,1-1.532,1.529A1.53,1.53,0,0,1,130.057,148.413Zm-6.349.682a1.531,1.531,0,1,1-1.532,1.529A1.53,1.53,0,0,1,123.708,149.1Zm-5.805,1.094a1.529,1.529,0,1,1-1.529,1.529A1.53,1.53,0,0,1,117.9,150.189Zm-6.451,1.383a1.529,1.529,0,1,1-1.529,1.529A1.53,1.53,0,0,1,111.452,151.572Zm-5.531,4.544a1.529,1.529,0,1,1,1.529-1.529A1.53,1.53,0,0,1,105.921,156.116ZM98.547,130.09a2.048,2.048,0,1,1,2.048,2.048A2.049,2.049,0,0,1,98.547,130.09Zm8.6-1.9,3.807,1.9-3.807,1.9-2.133-1.067a4.178,4.178,0,0,0,0-1.677Zm-8.457-4.651,1.9-3.806,1.9,3.806-1.067,2.133a4.154,4.154,0,0,0-1.672,0Zm-4.652,8.459-3.807-1.9,3.807-1.9,2.133,1.067a4.178,4.178,0,0,0,0,1.677Zm4.652,4.65,1.067-2.133a4.153,4.153,0,0,0,1.672,0l1.067,2.133-1.066,2.133a7.684,7.684,0,0,0-.836-.085,7.417,7.417,0,0,0-.836.085Zm1.9,4.507a5.325,5.325,0,1,1-5.325,5.325A5.331,5.331,0,0,1,100.6,141.151ZM94.82,153.057a1.529,1.529,0,1,1-1.529,1.529A1.53,1.53,0,0,1,94.82,153.057Zm-5.53-1.485a1.529,1.529,0,1,1-1.529,1.529A1.53,1.53,0,0,1,89.29,151.572Zm-6.453-1.383a1.529,1.529,0,1,1-1.529,1.529A1.53,1.53,0,0,1,82.837,150.189Zm-5.8-1.094a1.531,1.531,0,1,1-1.529,1.529A1.531,1.531,0,0,1,77.034,149.1Zm-6.35-.682a1.529,1.529,0,1,1-1.529,1.529A1.531,1.531,0,0,1,70.684,148.413Zm-6.146-.548a1.531,1.531,0,1,1-1.529,1.529A1.531,1.531,0,0,1,64.538,147.865Zm-6.28.957a1.529,1.529,0,1,1-1.529,1.529A1.53,1.53,0,0,1,58.258,148.822Zm-5.8,2.321a1.531,1.531,0,1,1-1.529,1.529A1.531,1.531,0,0,1,52.454,151.143Zm-4.983,4.029a1.529,1.529,0,1,1-1.532,1.529A1.53,1.53,0,0,1,47.471,155.172Zm-3.687,4.984a1.531,1.531,0,1,1-1.532,1.529A1.53,1.53,0,0,1,43.784,160.156Zm-2.129,5.754a1.529,1.529,0,1,1-1.532,1.529A1.53,1.53,0,0,1,41.655,165.91Zm107.122,54.669c-5.667-2.8-25.06-4.871-48.181-4.871s-42.515,2.068-48.182,4.871c-2.931-13.569-9.939-26.7-12.275-30.823,3.892-1.194,15.034-3.562,20.03,6.43a1.23,1.23,0,0,0,2.33-.55c0-.089.067-9.106,5.875-12.011,5.751-2.861,15.055,6.637,18.015,12.562,0,0,0,0,0,0a1.212,1.212,0,0,0,.446.462,1.025,1.025,0,0,0,.117.065.8.8,0,0,0,.533.147c.023,0,.042-.02.065-.021s.043.015.068.014a1.155,1.155,0,0,0,.305-.135,1.181,1.181,0,0,0,.314-.138,1.209,1.209,0,0,0,.252-.343c.051-.083.136-.132.168-.228.036-.113.189-.59.415-1.334,1.074-3.1,4.477-10.923,11.524-10.923,5.981,0,9.336,5.633,10.873,9.237.5,1.731.854,2.84.913,3.02a1.229,1.229,0,0,0,1.17.851,1.207,1.207,0,0,0,.38-.061c.022-.008.038-.025.06-.033a1.177,1.177,0,0,0,.814-.584c2.962-5.928,12.274-15.4,18.015-12.562a7.769,7.769,0,0,1,1.079.66c.333.281.558.489.938.794,3.785,3.694,3.858,10.478,3.858,10.557a1.23,1.23,0,0,0,2.33.55c4.986-9.97,16.13-7.617,20.029-6.426C158.714,193.889,151.708,207.014,148.777,220.579Z" fill="#464655"/><path d="M105.443,193.561c-.159.131-.314.27-.468.414a1.882,1.882,0,0,1-3.153-1.4v-.221a1.229,1.229,0,1,0-2.458,0v.221a1.882,1.882,0,0,1-3.153,1.4c-.152-.143-.309-.281-.468-.414a1.23,1.23,0,0,0-1.569,1.894c3.358,2.781,5.188,9.358,5.188,11.957v1.332a1.229,1.229,0,1,0,2.458,0v-1.332c0-2.6,1.831-9.175,5.188-11.957a1.228,1.228,0,0,0-1.565-1.894Z" fill="#464655"/><path d="M133.309,198.724a4.173,4.173,0,0,0-.433-.011,2.086,2.086,0,0,1-1.717-2.823l.071-.161a1.983,1.983,0,0,0-.359-1.813c-.409-.52-.94-.492-1.194.084-.026.062-.054.122-.082.185-.58,1.318-2.251.924-2.514-1.013-.033-.249-.067-.5-.106-.754-.129-.819-.6-1.387-1.1-1.16a1.97,1.97,0,0,0-.716,1.969c.711,5.494-.1,11.288-1.035,13.4-.163.372-.328.744-.491,1.117-.253.574.07,1.018.729.97a2.041,2.041,0,0,0,1.593-.992q.214-.486.428-.974c.882-2.01,4.577-6.467,7.6-6.236.487,0,.694-.32.5-.8A1.638,1.638,0,0,0,133.309,198.724Z" fill="#464655"/><path d="M151.542,202.548a3.119,3.119,0,0,0-.36.021c-.966.161-1.785-1.338-1.227-2.606l.071-.161a2.035,2.035,0,0,0-.167-1.728c-.3-.473-.748-.408-1,.169-.026.062-.054.122-.082.184-.58,1.318-1.945,1.058-2.024-.8-.009-.239-.02-.481-.033-.722-.047-.783-.4-1.3-.835-1.042a2.383,2.383,0,0,0-.74,1.958c.192,5.267-.91,10.934-1.841,13.041-.163.372-.328.744-.491,1.117-.253.574-.015.98.538.886a2.1,2.1,0,0,0,1.4-1.077q.215-.486.428-.974c.882-2.01,4.29-6.593,6.8-6.59.407-.039.6-.36.476-.807A1.145,1.145,0,0,0,151.542,202.548Z" fill="#464655"/><path d="M77.049,206.624c-.931-2.106-1.746-7.9-1.035-13.4a1.973,1.973,0,0,0-.716-1.969c-.5-.227-.974.341-1.1,1.16-.039.252-.073.5-.106.754-.264,1.937-1.934,2.329-2.514,1.013-.028-.062-.054-.124-.082-.185-.254-.577-.783-.6-1.194-.084a1.986,1.986,0,0,0-.359,1.813c.023.054.047.108.071.161a2.087,2.087,0,0,1-1.717,2.823,4.173,4.173,0,0,0-.433.011,1.639,1.639,0,0,0-1.178.988c-.194.476.013.792.5.8,3.027-.232,6.722,4.225,7.6,6.236.142.324.286.649.428.974a2.035,2.035,0,0,0,1.593.992c.66.049.982-.4.729-.97Q77.3,207.181,77.049,206.624Z" fill="#464655"/><path d="M57.869,210.863c-.93-2.106-2.033-7.774-1.841-13.041a2.391,2.391,0,0,0-.74-1.958c-.436-.257-.788.259-.835,1.042-.014.241-.024.482-.033.722-.078,1.855-1.443,2.114-2.024.8-.028-.062-.054-.124-.082-.184-.254-.577-.7-.642-1-.169a2.035,2.035,0,0,0-.167,1.728c.023.054.047.108.071.161.558,1.268-.262,2.767-1.227,2.606a3.128,3.128,0,0,0-.36-.021,1.148,1.148,0,0,0-.911.871c-.127.446.07.768.476.807,2.508,0,5.917,4.579,6.8,6.59.142.324.286.649.428.974a2.106,2.106,0,0,0,1.4,1.077c.554.1.791-.311.538-.886C58.2,211.608,58.033,211.235,57.869,210.863Z" fill="#464655"/></g></svg>