<svg xmlns="http://www.w3.org/2000/svg" width="512" height="335.449" viewBox="0 0 512 335.449"><g transform="translate(0 -88.276)"><path d="M503.172,423.725H8.828A8.829,8.829,0,0,1,0,414.9V97.1a8.829,8.829,0,0,1,8.828-8.828H503.173A8.829,8.829,0,0,1,512,97.1V414.9A8.83,8.83,0,0,1,503.172,423.725Z" fill="#5aa587"/><path d="M277.124,301.609a65.49,65.49,0,0,0,72.915-32.41,65.744,65.744,0,0,0-52.15-8.988,65.057,65.057,0,0,0-26.183,13.45c.07-.093.128-.184.2-.277,27.407-24.715,58-16.736,58-16.736l7.239-6.185s-30.862-10.663-58.506,12.2c17.109-33.124-1.353-61.538-1.353-61.538l-4.258,8.515s15.353,28.154-2.609,61l-.063.074A65.409,65.409,0,0,0,256,193.13a65.409,65.409,0,0,0-14.36,77.591c-.021-.024-.042-.051-.063-.074-17.962-32.849-2.609-61-2.609-61l-4.258-8.515s-18.461,28.414-1.353,61.538c-27.644-22.866-58.506-12.2-58.506-12.2l7.239,6.185s30.6-7.98,58,16.736c.07.093.128.184.2.277a65.051,65.051,0,0,0-26.183-13.45,65.744,65.744,0,0,0-52.15,8.988,65.491,65.491,0,0,0,72.916,32.41c-36.875,10.31-60.993-11.9-60.993-11.9l-9.291,2.08s37.269,39.964,91.409.76c54.14,39.2,91.409-.76,91.409-.76l-9.291-2.08S314,311.918,277.124,301.609Z" fill="#f5f5f5"/><path d="M202.194,347.61A101.911,101.911,0,0,0,214.23,354h83.539A101.677,101.677,0,0,0,309.8,347.61Z" fill="#f5f5f5"/><path d="M221.715,357.016a102.369,102.369,0,0,0,68.57,0Z" fill="#f5f5f5"/><path d="M179.542,328.509c1.29,1.453,2.609,2.88,3.978,4.258H328.48c1.369-1.378,2.688-2.8,3.978-4.258Z" fill="#f5f5f5"/><path d="M188.886,337.764c2.133,1.86,4.334,3.642,6.618,5.322H316.5c2.283-1.681,4.486-3.463,6.618-5.322Z" fill="#f5f5f5"/><path d="M298.579,317.156c-23.847,0-40.163-15.938-40.326-16.1l-2.26-2.246-2.252,2.25c-.162.162-16.373,16.1-40.321,16.1H170.8c1.454,2.193,3,4.318,4.616,6.387h38c21.422,0,36.975-11.206,42.579-15.929,5.6,4.724,21.156,15.929,42.579,15.929h38c1.615-2.069,3.161-4.194,4.616-6.387Z" fill="#f5f5f5"/><path d="M254.882,149.879l-3.736,11.2-11.809.092a1.178,1.178,0,0,0-.691,2.126l9.5,7.016-3.562,11.26a1.179,1.179,0,0,0,1.81,1.314L256,176.023l9.608,6.867a1.179,1.179,0,0,0,1.81-1.314l-3.562-11.26,9.5-7.016a1.178,1.178,0,0,0-.691-2.126l-11.809-.092-3.736-11.2A1.182,1.182,0,0,0,254.882,149.879Z" fill="#ffe15a"/><path d="M198.994,172.81l2.163,7.854-6.731,4.589a.813.813,0,0,0,.422,1.484l8.139.371,2.284,7.82a.813.813,0,0,0,1.542.058l2.867-7.626,8.143.244a.813.813,0,0,0,.532-1.448l-6.367-5.084,2.749-7.669a.813.813,0,0,0-1.213-.953l-6.8,4.484-6.444-4.984A.815.815,0,0,0,198.994,172.81Z" fill="#ffe15a"/><path d="M166.41,212.371,172.3,218l-3.417,7.4a.813.813,0,0,0,1.123,1.057l7.172-3.863,5.977,5.536a.814.814,0,0,0,1.353-.742l-1.458-8.015,7.112-3.975a.813.813,0,0,0-.288-1.515l-8.074-1.09-1.582-7.992a.813.813,0,0,0-1.53-.194l-3.532,7.341-8.089-.966A.813.813,0,0,0,166.41,212.371Z" fill="#ffe15a"/><path d="M314.859,172.81l-2.163,7.854,6.731,4.589a.813.813,0,0,1-.422,1.484l-8.139.371-2.284,7.82a.813.813,0,0,1-1.542.058l-2.867-7.626-8.143.244a.813.813,0,0,1-.532-1.448l6.367-5.084-2.749-7.669a.813.813,0,0,1,1.213-.953l6.8,4.484,6.444-4.984A.815.815,0,0,1,314.859,172.81Z" fill="#ffe15a"/><path d="M347.443,212.371,341.552,218l3.417,7.4a.813.813,0,0,1-1.123,1.057l-7.172-3.863-5.977,5.536a.814.814,0,0,1-1.353-.742l1.458-8.015-7.112-3.975a.813.813,0,0,1,.288-1.515l8.074-1.09,1.582-7.992a.813.813,0,0,1,1.53-.194l3.532,7.341,8.089-.966A.813.813,0,0,1,347.443,212.371Z" fill="#ffe15a"/></g></svg>