<svg xmlns="http://www.w3.org/2000/svg" width="512" height="335.449" viewBox="0 0 512 335.449"><g transform="translate(0 -88.276)"><path d="M503.172,423.724H8.828A8.829,8.829,0,0,1,0,414.9V97.1a8.829,8.829,0,0,1,8.828-8.828H503.173A8.829,8.829,0,0,1,512,97.1V414.9A8.829,8.829,0,0,1,503.172,423.724Z" fill="#ff4b55"/><path d="M225.728,224.016l-.017.013L97.1,88.277H8.828a8.676,8.676,0,0,0-5.571,2.134L219.121,231.839A44.172,44.172,0,0,1,225.728,224.016Z" fill="#ffe15a"/><path d="M212.318,260.523a43.243,43.243,0,0,1-.456-4.522,43.248,43.248,0,0,1,.456-4.522v0L0,229.518v52.966L212.318,260.52Z" fill="#ffe15a"/><path d="M249.139,212.553a34.407,34.407,0,0,1,13.722,0h0L282.483,88.276H229.517l19.622,124.277Z" fill="#ffe15a"/><path d="M292.879,231.839,508.744,90.411a8.678,8.678,0,0,0-5.571-2.134H414.9L286.289,224.03l-.017-.013A44.129,44.129,0,0,1,292.879,231.839Z" fill="#ffe15a"/><path d="M286.272,287.985l.017-.013L414.9,423.725h88.276a8.676,8.676,0,0,0,5.571-2.134L292.879,280.162A44.135,44.135,0,0,1,286.272,287.985Z" fill="#ffe15a"/><path d="M299.682,251.482v0a43.217,43.217,0,0,1,.456,4.522,43.244,43.244,0,0,1-.456,4.522v0L512,282.484V229.518Z" fill="#ffe15a"/><path d="M262.861,299.448a34.407,34.407,0,0,1-13.722,0h0L229.517,423.725h52.966L262.861,299.448Z" fill="#ffe15a"/><path d="M219.121,280.162,3.256,421.591a8.676,8.676,0,0,0,5.571,2.134H97.1L225.711,287.972l.017.013A44.136,44.136,0,0,1,219.121,280.162Z" fill="#ffe15a"/><circle cx="35.31" cy="35.31" r="35.31" transform="translate(220.69 220.69)" fill="#ffe15a"/></g></svg>