<svg xmlns="http://www.w3.org/2000/svg" width="512" height="335.448" viewBox="0 0 512 335.448"><g transform="translate(0 -88.276)"><path d="M0,311.908H512V414.9a8.829,8.829,0,0,1-8.828,8.828H8.828A8.829,8.829,0,0,1,0,414.9Z" fill="#73af00"/><path d="M8.828,88.276H503.173A8.829,8.829,0,0,1,512,97.1V200.092H0V97.1A8.828,8.828,0,0,1,8.828,88.276Z" fill="#464655"/><rect width="512" height="111.81" transform="translate(0 200.09)" fill="#ff4b55"/><path d="M324.584,189.548a79.313,79.313,0,0,0-137.168,0Z" fill="#ff4b55"/><path d="M260.561,112.552c0,3.961-4.561,28.69-4.561,28.69s-4.561-24.728-4.561-28.69,2.042-7.172,4.561-7.172S260.561,108.59,260.561,112.552Z" fill="#ff4b55"/><path d="M341.737,149.954c-2.8,2.8-23.511,17.062-23.511,17.062S332.487,146.3,335.288,143.5s6.516-3.628,8.3-1.846S344.538,147.154,341.737,149.954Z" fill="#ff4b55"/><path d="M176.713,143.505c2.8,2.8,17.062,23.511,17.062,23.511s-20.711-14.261-23.511-17.062-3.628-6.516-1.846-8.3S173.912,140.7,176.713,143.505Z" fill="#ff4b55"/><path d="M215.559,119.689c1.516,3.66,6.765,28.252,6.765,28.252s-13.677-21.1-15.192-24.76-.858-7.407,1.469-8.372S214.042,116.029,215.559,119.689Z" fill="#ff4b55"/><path d="M304.868,123.18c-1.516,3.66-15.192,24.76-15.192,24.76s5.249-24.591,6.765-28.252,4.631-5.845,6.958-4.881S306.385,119.52,304.868,123.18Z" fill="#ff4b55"/><path d="M237.274,113.974c.788,3.882,1.233,29.024,1.233,29.024s-9.385-23.328-10.173-27.211.576-7.435,3.044-7.936S236.488,110.091,237.274,113.974Z" fill="#ff4b55"/><path d="M324.266,134.494c-2.188,3.3-19.651,21.4-19.651,21.4s9.859-23.132,12.047-26.434,5.664-4.851,7.764-3.459S326.454,131.192,324.266,134.494Z" fill="#ff4b55"/><path d="M161.252,160.975c3.3,2.188,21.4,19.651,21.4,19.651s-23.132-9.859-26.434-12.047-4.851-5.664-3.459-7.764S157.951,158.787,161.252,160.975Z" fill="#ff4b55"/><path d="M194.589,129.913c2.214,3.285,12.246,26.343,12.246,26.343s-17.6-17.961-19.811-21.246-2.314-7.09-.224-8.5S192.376,126.628,194.589,129.913Z" fill="#ff4b55"/><path d="M355.328,167.83c-3.285,2.214-26.343,12.246-26.343,12.246s17.961-17.6,21.246-19.811,7.09-2.314,8.5-.224S358.613,165.618,355.328,167.83Z" fill="#ff4b55"/><path d="M282.812,115.582c-.758,3.887-9.967,27.286-9.967,27.286s.256-25.144,1.015-29.032,3.377-6.649,5.849-6.167S283.57,111.694,282.812,115.582Z" fill="#ff4b55"/><path d="M285.529,116.258c-1.151,3.79-3.969,28.778-3.969,28.778s11.546-22.337,12.7-26.129.129-7.456-2.281-8.188S286.68,112.468,285.529,116.258Z" fill="#ff4b55"/><path d="M196.989,128.47c1.867,3.494,17.543,23.155,17.543,23.155s-7.63-23.96-9.5-27.454-5.181-5.364-7.4-4.177S195.122,124.975,196.989,128.47Z" fill="#ff4b55"/><path d="M356.771,170.23c-3.493,1.867-23.155,17.543-23.155,17.543s23.96-7.63,27.454-9.5,5.364-5.181,4.177-7.4S360.266,168.363,356.771,170.23Z" fill="#ff4b55"/><path d="M326.518,136.159c-2.514,3.062-14.679,25.068-14.679,25.068s19.217-16.218,21.73-19.281,2.973-6.839,1.026-8.438S329.032,133.1,326.518,136.159Z" fill="#ff4b55"/><path d="M162.918,158.723c3.062,2.514,25.068,14.679,25.068,14.679s-16.218-19.217-19.281-21.73-6.839-2.973-8.438-1.026S159.855,156.21,162.918,158.723Z" fill="#ff4b55"/><path d="M240.044,113.558c.387,3.943,7.346,28.106,7.346,28.106s2.12-25.056,1.732-29-2.734-6.938-5.24-6.691S239.657,109.615,240.044,113.558Z" fill="#ff4b55"/><path d="M263.061,112.676c-.394,3.942,1.686,29,1.686,29s7-24.152,7.39-28.094-1.319-7.34-3.826-7.591S263.455,108.735,263.061,112.676Z" fill="#ff4b55"/><path d="M178.569,141.825c2.509,3.065,21.7,19.314,21.7,19.314s-12.131-22.026-14.639-25.091-6.123-4.257-8.072-2.663S176.06,138.759,178.569,141.825Z" fill="#ff4b55"/><path d="M343.416,151.81c-3.065,2.509-19.314,21.7-19.314,21.7s22.026-12.131,25.091-14.639,4.257-6.123,2.663-8.072S346.483,149.3,343.416,151.81Z" fill="#ff4b55"/><path d="M307.13,124.252c-1.873,3.491-9.54,27.438-9.54,27.438s15.706-19.637,17.579-23.127,1.59-7.286-.629-8.477S309,120.76,307.13,124.252Z" fill="#ff4b55"/><path d="M151.01,178.111c3.491,1.873,27.438,9.54,27.438,9.54s-19.637-15.706-23.127-17.579-7.286-1.59-8.477.63S147.519,176.238,151.01,178.111Z" fill="#ff4b55"/><path d="M217.916,118.847c1.144,3.793,12.657,26.148,12.657,26.148s-2.778-24.992-3.924-28.783-4.028-6.276-6.439-5.548S216.771,115.055,217.916,118.847Z" fill="#ff4b55"/></g></svg>