<svg xmlns="http://www.w3.org/2000/svg" width="512" height="335.449" viewBox="0 0 512 335.449"><g transform="translate(0 -88.276)"><path d="M512,112.237H0V97.1a8.829,8.829,0,0,1,8.828-8.828H503.173A8.829,8.829,0,0,1,512,97.1v15.133Z" fill="#ff4b55"/><rect width="512" height="23.96" transform="translate(0 112.231)" fill="#f5f5f5"/><rect width="512" height="23.96" transform="translate(0 136.201)" fill="#ff4b55"/><rect width="512" height="23.96" transform="translate(0 160.151)" fill="#f5f5f5"/><rect width="512" height="23.96" transform="translate(0 184.121)" fill="#ff4b55"/><rect width="512" height="23.96" transform="translate(0 208.081)" fill="#f5f5f5"/><rect width="512" height="23.96" transform="translate(0 232.041)" fill="#ff4b55"/><rect width="512" height="23.96" transform="translate(0 256.001)" fill="#f5f5f5"/><path d="M512,303.923H0V264.829H8.828l0,15.132H512Z" fill="#ff4b55"/><rect width="512" height="23.96" transform="translate(0 303.921)" fill="#f5f5f5"/><rect width="512" height="23.96" transform="translate(0 327.881)" fill="#ff4b55"/><rect width="512" height="23.96" transform="translate(0 351.851)" fill="#f5f5f5"/><rect width="512" height="23.96" transform="translate(0 375.801)" fill="#ff4b55"/><path d="M503.172,423.725H8.828A8.829,8.829,0,0,1,0,414.9V399.764H512V414.9A8.828,8.828,0,0,1,503.172,423.725Z" fill="#f5f5f5"/><path d="M308.966,279.961H8.828A8.829,8.829,0,0,1,0,271.133V97.1a8.829,8.829,0,0,1,8.828-8.828H308.966a8.829,8.829,0,0,1,8.828,8.828V271.133A8.828,8.828,0,0,1,308.966,279.961Z" fill="#41479b"/><path d="M83.862,184.023a60.456,60.456,0,0,1,84.1-55.656.851.851,0,0,0,.807-1.489,69.1,69.1,0,1,0-.1,114.332.85.85,0,0,0-.8-1.491,60.457,60.457,0,0,1-84.008-55.7" fill="#ffe15a"/><path d="M222.061,184.023l25.558-9.889a1.176,1.176,0,0,0-.518-2.268l-27.308,2.187,18.766-20.06a1.175,1.175,0,0,0-1.45-1.818l-23.718,13.836,8.186-26.176a1.175,1.175,0,0,0-2.1-1.009l-15.354,22.745-3.939-27.148a1.175,1.175,0,0,0-2.326,0L195.347,151.6l-1.044,7.27-.4,2.7-15.354-22.726a1.175,1.175,0,0,0-2.1,1.01l8.216,26.154-23.716-13.836a1.175,1.175,0,0,0-1.45,1.818l18.765,20.06-27.315-2.187a1.176,1.176,0,0,0-.518,2.268l25.581,9.889-25.582,9.891a1.175,1.175,0,0,0,.518,2.268l27.316-2.187L159.5,214.1a1.175,1.175,0,0,0,1.453,1.816l23.715-13.885-8.216,26.154a1.175,1.175,0,0,0,2.1,1.01L193.9,206.473l.4,2.766,1.044,7.206,2.517,17.224a1.175,1.175,0,0,0,2.326,0l3.939-27.193,15.354,22.745a1.175,1.175,0,0,0,2.1-1.009l-8.186-26.176,23.715,13.885a1.175,1.175,0,0,0,1.453-1.816l-18.767-20.11,27.309,2.187a1.176,1.176,0,0,0,.518-2.268Z" fill="#ffe15a"/></g></svg>