<svg xmlns="http://www.w3.org/2000/svg" width="512" height="335.449" viewBox="0 0 512 335.449"><g transform="translate(0 -88.276)"><path d="M503.172,423.725H8.828A8.829,8.829,0,0,1,0,414.9V97.1a8.829,8.829,0,0,1,8.828-8.828H503.173A8.829,8.829,0,0,1,512,97.1V414.9A8.83,8.83,0,0,1,503.172,423.725Z" fill="#ff4b55"/><path d="M441.379,158.9V353.1H70.621V158.9H441.379" fill="#73af00"/><path d="M238.378,256.027A71.9,71.9,0,0,1,291.965,186.5a.963.963,0,0,0-.1-1.889,66.738,66.738,0,0,0-8.533-.566,71.938,71.938,0,1,0,0,143.876,66.887,66.887,0,0,0,8.544-.569.963.963,0,0,0,.1-1.889A71.932,71.932,0,0,1,238.378,256.027Z" fill="#f5f5f5"/></g></svg>