<svg xmlns="http://www.w3.org/2000/svg" width="512" height="335.448" viewBox="0 0 512 335.448"><g transform="translate(0 -88.276)"><path d="M503.172,88.276H256V423.724H503.172A8.829,8.829,0,0,0,512,414.9V97.1A8.828,8.828,0,0,0,503.172,88.276Z" fill="#ff4b55"/><path d="M8.828,423.724H256V88.276H8.828A8.828,8.828,0,0,0,0,97.1V414.9A8.828,8.828,0,0,0,8.828,423.724Z" fill="#f5f5f5"/><path d="M73.564,108.874v23.62a6.39,6.39,0,0,1,5.805,5.8h23.62v23.54H79.368a6.39,6.39,0,0,1-5.805,5.8v23.62H50.023v-23.62a6.39,6.39,0,0,1-5.805-5.8H20.6V138.3h23.62a6.39,6.39,0,0,1,5.805-5.8v-23.62H73.564m2.941-2.944H47.08v24.246a9.726,9.726,0,0,0-5.18,5.179H17.655v29.426H41.9a9.728,9.728,0,0,0,5.179,5.179v24.245H76.506V169.96a9.728,9.728,0,0,0,5.179-5.179H105.93V135.355H81.686a9.726,9.726,0,0,0-5.18-5.179V105.931Z" fill="#ff4b55"/><path d="M102.988,138.3H73.564V108.874H50.023V138.3H20.6v23.541H50.023v29.425H73.564V161.839h29.424Z" fill="#cdcdcd"/><circle cx="11.77" cy="11.77" r="11.77" transform="translate(50.023 138.3)" fill="#b4a08c"/><ellipse cx="5.234" cy="3.663" rx="5.234" ry="3.663" transform="translate(49.766 169.498) rotate(-135)" fill="#b4a08c"/><ellipse cx="5.234" cy="3.663" rx="5.234" ry="3.663" transform="translate(68.642 164.308) rotate(-45)" fill="#b4a08c"/><ellipse cx="5.234" cy="3.663" rx="5.234" ry="3.663" transform="translate(73.812 130.644) rotate(45)" fill="#b4a08c"/><ellipse cx="5.234" cy="3.663" rx="5.234" ry="3.663" transform="translate(54.943 135.82) rotate(135)" fill="#b4a08c"/><path d="M61.793,166.182a16.113,16.113,0,1,1,16.113-16.113A16.13,16.13,0,0,1,61.793,166.182Zm0-30.754a14.641,14.641,0,1,0,14.641,14.641A14.659,14.659,0,0,0,61.793,135.428Z" fill="#b4a08c"/></g></svg>