<svg xmlns="http://www.w3.org/2000/svg" width="512" height="335.449" viewBox="0 0 512 335.449"><g transform="translate(0 -88.276)"><path d="M503.172,423.725H8.828A8.829,8.829,0,0,1,0,414.9V97.1a8.829,8.829,0,0,1,8.828-8.828H503.173A8.829,8.829,0,0,1,512,97.1V414.9A8.83,8.83,0,0,1,503.172,423.725Z" fill="#41479b"/><path d="M3.978,422.079,512,211.863V150.07L0,414.9A8.67,8.67,0,0,0,3.978,422.079Z" fill="#f5f5f5"/><path d="M508.658,90.352,0,406.07V414.9L512,150.07V97.1A8.677,8.677,0,0,0,508.658,90.352Z" fill="#ff9b55"/><path d="M145.9,210.17l57.131-7.135L145.9,195.9l28.955-17.759-36.027,8.809,21.926-29.914-29.913,21.926,8.808-36.027-17.758,28.955-7.135-57.131-7.135,57.131L89.865,142.936l8.809,36.027L68.76,157.037l21.926,29.914-36.027-8.809L83.614,195.9l-57.131,7.134,57.131,7.135L54.659,227.929l36.027-8.809L68.76,249.034l29.914-21.926-8.809,36.027,17.759-28.955,7.135,57.131,7.135-57.131,17.758,28.955-8.808-36.027,29.913,21.926L138.831,219.12l36.027,8.809Z" fill="#f5f5f5"/></g></svg>