<svg xmlns="http://www.w3.org/2000/svg" width="512" height="335.448" viewBox="0 0 512 335.448"><g transform="translate(0 -88.276)"><path d="M503.172,423.724H8.828A8.829,8.829,0,0,1,0,414.9V97.1a8.829,8.829,0,0,1,8.828-8.828H503.173A8.829,8.829,0,0,1,512,97.1V414.9A8.83,8.83,0,0,1,503.172,423.724Z" fill="#41479b"/><path d="M512,238.345H273.655V88.276H238.344V238.345H0v35.31H238.344V423.724h35.311V273.655H512Z" fill="#f5f5f5"/><path d="M172.41,203.12a13.206,13.206,0,0,0-1.543-4.426,14.162,14.162,0,0,0-4.691-4.225c-12.639-5.806-23.22-4.668-33.317-4.708a143.2,143.2,0,0,0-26.877,3.635c-2.056.414-3.837.723-5.742,1.081.942-1.946,4.395-4.381,9.045-5.857,11.336-3.872,24.276-5.427,36.994-7.9,3.212-.629,6.468-1.366,9.8-2.314a49.031,49.031,0,0,0,5.42-2.077,22,22,0,0,0,3.833-2.763,10.7,10.7,0,0,0,1.749-2.138c2.888-5.5.154-9.411-2.138-11.455a20.212,20.212,0,0,0-5.841-3.25,74.436,74.436,0,0,0-9.7-2.6l-17.447-3.491a65.281,65.281,0,0,1-7.625-2.167c-2.029-.541-4.9-2.546-4.47-2-5.239-.452,7.175-6.295,16.126-9.559a56.709,56.709,0,0,0,7.167-3.606c2.377-1.571,4.826-2.9,7.467-7.3a12,12,0,0,0,.769-1.732l.3-.759a7.792,7.792,0,0,0,.447-2.722,10.79,10.79,0,0,0-2.178-7.262,16.657,16.657,0,0,0-8.5-4.968c-9.5-2.252-16.342-1.636-22.283-1.613l-17.705.832-.435.02-.039,0a6.529,6.529,0,0,0-6.137,6.9,6.113,6.113,0,0,0,.258.98c-5.1,1.406-13.175,2.844-21.162.961a2.176,2.176,0,1,0-1.005,4.235,40.148,40.148,0,0,0,9.219,1.03,52.631,52.631,0,0,0,15.369-2.41,6.412,6.412,0,0,0,4.218,1.343l17.892-1.047c5.331-.192,12.5-.473,18.407.916a3.866,3.866,0,0,1,1.075.365c.046-.524-.954.952-2.517,1.711a45.023,45.023,0,0,1-5.545,2.849c-4.2,1.9-9.006,3.539-14.334,6.406-2.572,1.518-5.752,3.06-8.394,7.571a11.375,11.375,0,0,0-1.172,7.851l.192.971.109.48.058.238c-.409-.849.622,1.434.541,1.228l.533.888a9.006,9.006,0,0,0,1.535,2.136,25.091,25.091,0,0,0,3,2.754,27.527,27.527,0,0,0,2.461,1.416,29.748,29.748,0,0,0,4.708,2.035,76.572,76.572,0,0,0,9.074,2.484l17.7,3.33a67.493,67.493,0,0,1,7.055,1.772,73.3,73.3,0,0,1-10.066,2.669c-12.255,2.586-25.25,4.15-38.467,8.792a38.1,38.1,0,0,0-10.02,5.309c-3.129,2.371-6.418,7.1-6,12.295-1.121.157-2.409.386-3.445.5-11.212,1.484-15.924-.49-15.62-.547a3.078,3.078,0,0,0-3.131,5.3,16.607,16.607,0,0,0,5.353,2.057,48.565,48.565,0,0,0,14.067.665c1.611-.11,3.5-.351,5.27-.538a20.433,20.433,0,0,0,3.981,4.658,39.19,39.19,0,0,0,9.62,5.7c13.123,5.076,26.239,6.142,39.027,5.639,6.42-.482,12.738-1.231,19.226-4.126,3.025-1.411,7.177-3.633,8.459-10.06A13.981,13.981,0,0,0,172.41,203.12Zm-9.438,2.024c-.167-.95-.69,1.205-3.14,1.8-4.217,1.853-9.973,2.7-15.631,3-11.41.375-23.87-.957-34.554-5.29a35.441,35.441,0,0,1-4.49-2.687c.792-.121,1.479-.205,2.291-.333,7.939-1.265,16.214-2.754,25.719-2.911,9.053-.166,20.581-.041,28.236,3.767a5.554,5.554,0,0,1,1.572,1.279s-.254-.3.029-.5A9.62,9.62,0,0,1,162.972,205.144Z" fill="#f5f5f5"/><path d="M446.066,203.12a13.206,13.206,0,0,0-1.543-4.426,14.162,14.162,0,0,0-4.691-4.225c-12.639-5.806-23.22-4.668-33.317-4.708a143.2,143.2,0,0,0-26.877,3.635c-2.056.414-3.837.723-5.742,1.081.942-1.946,4.395-4.381,9.045-5.857,11.336-3.872,24.276-5.427,36.994-7.9,3.212-.629,6.468-1.366,9.8-2.314a49.031,49.031,0,0,0,5.42-2.077,22,22,0,0,0,3.833-2.763,10.7,10.7,0,0,0,1.749-2.138c2.888-5.5.155-9.411-2.138-11.455a20.2,20.2,0,0,0-5.841-3.25,74.435,74.435,0,0,0-9.7-2.6l-17.447-3.491a65.281,65.281,0,0,1-7.625-2.167c-2.029-.541-4.9-2.546-4.47-2-5.239-.452,7.175-6.295,16.126-9.559a56.71,56.71,0,0,0,7.167-3.606c2.377-1.571,4.826-2.9,7.467-7.3a12,12,0,0,0,.769-1.732l.3-.759a7.791,7.791,0,0,0,.447-2.722,10.79,10.79,0,0,0-2.178-7.262,16.657,16.657,0,0,0-8.5-4.968c-9.5-2.252-16.342-1.636-22.283-1.613l-17.7.832-.435.02-.039,0a6.529,6.529,0,0,0-6.137,6.9,6.113,6.113,0,0,0,.258.98c-5.1,1.406-13.175,2.844-21.162.961a2.176,2.176,0,0,0-1.005,4.235,40.148,40.148,0,0,0,9.219,1.03,52.631,52.631,0,0,0,15.369-2.41,6.412,6.412,0,0,0,4.218,1.343l17.892-1.047c5.331-.192,12.495-.473,18.407.916a3.866,3.866,0,0,1,1.075.365c.046-.524-.954.952-2.517,1.711a45.022,45.022,0,0,1-5.545,2.849c-4.2,1.9-9.006,3.539-14.334,6.406-2.572,1.518-5.752,3.06-8.394,7.571a11.375,11.375,0,0,0-1.172,7.851l.192.971.109.48.059.238c-.409-.849.622,1.434.541,1.228l.533.888a9,9,0,0,0,1.535,2.136,25.092,25.092,0,0,0,3,2.754,27.525,27.525,0,0,0,2.461,1.416,29.747,29.747,0,0,0,4.708,2.035,76.571,76.571,0,0,0,9.074,2.484l17.7,3.33a67.492,67.492,0,0,1,7.055,1.772,73.3,73.3,0,0,1-10.066,2.669c-12.255,2.586-25.25,4.15-38.467,8.792a38.1,38.1,0,0,0-10.02,5.309c-3.129,2.371-6.418,7.1-6,12.295-1.121.157-2.409.386-3.445.5-11.212,1.484-15.924-.49-15.62-.547a3.078,3.078,0,0,0-3.131,5.3,16.607,16.607,0,0,0,5.353,2.057,48.565,48.565,0,0,0,14.067.665c1.611-.11,3.5-.351,5.27-.538a20.434,20.434,0,0,0,3.981,4.658,39.189,39.189,0,0,0,9.62,5.7c13.123,5.076,26.24,6.142,39.027,5.639,6.42-.482,12.738-1.231,19.226-4.126,3.025-1.411,7.177-3.633,8.459-10.06A14.543,14.543,0,0,0,446.066,203.12Zm-9.439,2.024c-.167-.95-.69,1.205-3.14,1.8-4.217,1.853-9.973,2.7-15.631,3-11.41.375-23.87-.957-34.554-5.29a35.441,35.441,0,0,1-4.49-2.687c.792-.121,1.479-.205,2.291-.333,7.939-1.265,16.214-2.754,25.719-2.911,9.053-.166,20.581-.041,28.236,3.767a5.554,5.554,0,0,1,1.572,1.279s-.254-.3.029-.5A9.536,9.536,0,0,1,436.627,205.144Z" fill="#f5f5f5"/><path d="M172.41,388.5a13.206,13.206,0,0,0-1.543-4.426,14.162,14.162,0,0,0-4.691-4.225c-12.639-5.806-23.22-4.668-33.317-4.708a143.193,143.193,0,0,0-26.877,3.635c-2.056.414-3.837.723-5.742,1.081.942-1.946,4.395-4.381,9.045-5.857,11.336-3.872,24.276-5.427,36.994-7.9,3.212-.629,6.468-1.366,9.8-2.314a49.028,49.028,0,0,0,5.42-2.077,22,22,0,0,0,3.833-2.763,10.7,10.7,0,0,0,1.749-2.138c2.888-5.5.154-9.411-2.138-11.455a20.212,20.212,0,0,0-5.841-3.25,74.436,74.436,0,0,0-9.7-2.6L131.96,336a65.287,65.287,0,0,1-7.625-2.167c-2.029-.541-4.9-2.546-4.47-2-5.239-.452,7.175-6.3,16.126-9.559a56.842,56.842,0,0,0,7.167-3.606c2.377-1.571,4.826-2.9,7.467-7.3a12,12,0,0,0,.769-1.732l.3-.759a7.792,7.792,0,0,0,.447-2.722,10.79,10.79,0,0,0-2.178-7.262,16.657,16.657,0,0,0-8.5-4.968c-9.5-2.252-16.342-1.636-22.283-1.613l-17.705.832-.435.02-.039,0a6.529,6.529,0,0,0-6.137,6.9,6.113,6.113,0,0,0,.258.98c-5.1,1.406-13.175,2.844-21.162.961a2.176,2.176,0,1,0-1.005,4.235,40.149,40.149,0,0,0,9.219,1.03,52.631,52.631,0,0,0,15.369-2.41,6.412,6.412,0,0,0,4.218,1.343l17.892-1.047c5.331-.192,12.5-.473,18.407.916a3.866,3.866,0,0,1,1.075.365c.046-.524-.954.952-2.517,1.711A45.023,45.023,0,0,1,131.072,311c-4.2,1.9-9.006,3.539-14.334,6.4-2.572,1.518-5.752,3.06-8.394,7.571a11.375,11.375,0,0,0-1.172,7.851l.192.971.109.48.058.238c-.409-.849.622,1.434.541,1.228l.533.888a9.005,9.005,0,0,0,1.535,2.136,25.008,25.008,0,0,0,3,2.754,27.523,27.523,0,0,0,2.461,1.416,29.75,29.75,0,0,0,4.708,2.035,76.581,76.581,0,0,0,9.074,2.484l17.7,3.33a67.5,67.5,0,0,1,7.055,1.772,73.3,73.3,0,0,1-10.066,2.669c-12.255,2.586-25.25,4.15-38.467,8.792a38.1,38.1,0,0,0-10.02,5.309c-3.129,2.371-6.418,7.1-6,12.3-1.121.157-2.409.386-3.445.5-11.212,1.484-15.924-.49-15.62-.547a3.078,3.078,0,0,0-3.131,5.3,16.607,16.607,0,0,0,5.353,2.057,48.6,48.6,0,0,0,14.067.665c1.611-.11,3.5-.351,5.27-.538a20.433,20.433,0,0,0,3.981,4.658,39.19,39.19,0,0,0,9.62,5.7c13.123,5.076,26.239,6.142,39.027,5.639,6.42-.482,12.738-1.231,19.226-4.126,3.025-1.411,7.177-3.633,8.459-10.06A13.965,13.965,0,0,0,172.41,388.5Zm-9.438,2.025c-.167-.95-.69,1.2-3.14,1.8-4.217,1.853-9.973,2.7-15.631,3-11.41.375-23.87-.957-34.554-5.29a35.438,35.438,0,0,1-4.49-2.687c.792-.121,1.479-.2,2.291-.333,7.939-1.265,16.214-2.754,25.719-2.911,9.053-.165,20.581-.041,28.236,3.767a5.555,5.555,0,0,1,1.572,1.279s-.254-.3.029-.5A9.62,9.62,0,0,1,162.972,390.523Z" fill="#f5f5f5"/><path d="M446.066,388.5a13.206,13.206,0,0,0-1.543-4.426,14.162,14.162,0,0,0-4.691-4.225c-12.639-5.806-23.22-4.668-33.317-4.708a143.194,143.194,0,0,0-26.877,3.635c-2.056.414-3.837.723-5.742,1.081.942-1.946,4.395-4.381,9.045-5.857,11.336-3.872,24.276-5.427,36.994-7.9,3.212-.629,6.468-1.366,9.8-2.314a49.028,49.028,0,0,0,5.42-2.077,22,22,0,0,0,3.833-2.763,10.7,10.7,0,0,0,1.749-2.138c2.888-5.5.155-9.411-2.138-11.455a20.2,20.2,0,0,0-5.841-3.25,74.435,74.435,0,0,0-9.7-2.6L405.616,336a65.287,65.287,0,0,1-7.625-2.167c-2.029-.541-4.9-2.546-4.47-2-5.239-.452,7.175-6.3,16.126-9.559a56.843,56.843,0,0,0,7.167-3.606c2.377-1.571,4.826-2.9,7.467-7.3a12,12,0,0,0,.769-1.732l.3-.759a7.791,7.791,0,0,0,.447-2.722,10.789,10.789,0,0,0-2.178-7.262,16.657,16.657,0,0,0-8.5-4.968c-9.5-2.252-16.342-1.636-22.283-1.613l-17.7.832-.435.02-.039,0a6.529,6.529,0,0,0-6.137,6.9,6.113,6.113,0,0,0,.258.98c-5.1,1.406-13.175,2.844-21.162.961a2.176,2.176,0,1,0-1.005,4.235,40.149,40.149,0,0,0,9.219,1.03,52.63,52.63,0,0,0,15.369-2.41,6.412,6.412,0,0,0,4.218,1.343l17.892-1.047c5.331-.192,12.495-.473,18.407.916a3.866,3.866,0,0,1,1.075.365c.046-.524-.954.952-2.517,1.711A45.022,45.022,0,0,1,404.728,311c-4.2,1.9-9.006,3.539-14.334,6.4-2.572,1.518-5.752,3.06-8.394,7.571a11.375,11.375,0,0,0-1.172,7.851l.192.971.109.48.059.238c-.409-.849.622,1.434.541,1.228l.533.888a9,9,0,0,0,1.535,2.136,25.008,25.008,0,0,0,3,2.754,27.521,27.521,0,0,0,2.461,1.416,29.748,29.748,0,0,0,4.708,2.035,76.58,76.58,0,0,0,9.074,2.484l17.7,3.33a67.5,67.5,0,0,1,7.055,1.772,73.3,73.3,0,0,1-10.066,2.669c-12.255,2.586-25.25,4.15-38.467,8.792a38.1,38.1,0,0,0-10.02,5.309c-3.129,2.371-6.418,7.1-6,12.3-1.121.157-2.409.386-3.445.5-11.212,1.484-15.924-.49-15.62-.547a3.078,3.078,0,0,0-3.131,5.3,16.607,16.607,0,0,0,5.353,2.057,48.6,48.6,0,0,0,14.067.665c1.611-.11,3.5-.351,5.27-.538a20.434,20.434,0,0,0,3.981,4.658,39.19,39.19,0,0,0,9.62,5.7c13.123,5.076,26.24,6.142,39.027,5.639,6.42-.482,12.738-1.231,19.226-4.126,3.025-1.411,7.177-3.633,8.459-10.06A14.526,14.526,0,0,0,446.066,388.5Zm-9.439,2.025c-.167-.95-.69,1.2-3.14,1.8-4.217,1.853-9.973,2.7-15.631,3-11.41.375-23.87-.957-34.554-5.29a35.438,35.438,0,0,1-4.49-2.687c.792-.121,1.479-.2,2.291-.333,7.939-1.265,16.214-2.754,25.719-2.911,9.053-.165,20.581-.041,28.236,3.767a5.554,5.554,0,0,1,1.572,1.279s-.254-.3.029-.5A9.536,9.536,0,0,1,436.627,390.523Z" fill="#f5f5f5"/></g></svg>