<svg xmlns="http://www.w3.org/2000/svg" width="512" height="335.449" viewBox="0 0 512 335.449"><g transform="translate(0 -88.276)"><path d="M503.172,423.725H8.828A8.829,8.829,0,0,1,0,414.9V97.1a8.829,8.829,0,0,1,8.828-8.828H503.173A8.829,8.829,0,0,1,512,97.1V414.9A8.83,8.83,0,0,1,503.172,423.725Z" fill="#73af00"/><path d="M351.049,224.981a1.31,1.31,0,0,0-2.6.084,93.058,93.058,0,0,1-184.9,0,1.31,1.31,0,0,0-2.6-.084,92.276,92.276,0,0,0-1.132,14.315,96.18,96.18,0,0,0,192.359,0A92.809,92.809,0,0,0,351.049,224.981Z" fill="#ffe15a"/><path d="M254.81,185.268l-6.955,20.854-21.983.17a1.254,1.254,0,0,0-.735,2.263l17.685,13.059-6.631,20.96a1.255,1.255,0,0,0,1.926,1.4L256,231.19l17.885,12.783a1.255,1.255,0,0,0,1.926-1.4l-6.631-20.96,17.685-13.059a1.254,1.254,0,0,0-.735-2.263l-21.983-.17-6.955-20.854A1.256,1.256,0,0,0,254.81,185.268Z" fill="#ffe15a"/></g></svg>