<svg xmlns="http://www.w3.org/2000/svg" width="511.898" height="335.4" viewBox="0 0 511.898 335.4"><g transform="translate(0 -88.3)"><path d="M503.2,423.7H8.8A8.813,8.813,0,0,1,0,414.9V97.1a8.813,8.813,0,0,1,8.8-8.8H503.1a8.813,8.813,0,0,1,8.8,8.8V414.9A8.665,8.665,0,0,1,503.2,423.7Z" fill="#f5f5f5"/><path d="M114.3,147.3V106.5h13.3l8.7,31,8.6-31h13.4v40.8h-8.4V114.4L141,147.3h-9.2l-9-32.9v32.9h-8.5m69.4-32.6L177.6,132h12.1l-6-17.3m-5.3-8.1h10.4l15.8,40.8h-9.4l-3-8.4H175.3l-2.9,8.4h-9.5l15.5-40.8m50.2,40.7h-9V132.1l-15.9-25.6h11l9.3,17.6,8.6-17.6H243l-14.4,25.6v15.2M254.2,127c0,4.5,1.1,8,3.2,10.5s5.1,3.7,9,3.7,6.9-1.2,9-3.7c2.2-2.5,3.2-6,3.2-10.5s-1.1-8-3.2-10.4c-2.2-2.5-5.2-3.7-9-3.7s-6.8,1.2-9,3.7c-2.2,2.4-3.2,5.9-3.2,10.4m-9.2,0c0-6.6,1.9-11.8,5.8-15.7s9-5.8,15.6-5.8c6.5,0,11.7,1.9,15.6,5.8s5.8,9.1,5.8,15.7-1.9,11.8-5.8,15.7-9,5.8-15.6,5.8c-6.5,0-11.7-1.9-15.6-5.8S245,133.6,245,127m58.9,20.3V113.8h-13v-7.3h34.8v7.3H312.8v33.5h-8.9m36.1,0V113.8H327v-7.3h34.8v7.3H349v33.5h-9m27,0V106.5h31.7v7.1H375.9v8.7h20.9v7H375.9v10.5h23.9v7.5H367" fill="#d42e12"/><g transform="translate(-98.734 -81.609)"><path d="M240.5,258.7a25.058,25.058,0,0,0-10.5,3.9,8.023,8.023,0,0,1-2.6,1.2,2.344,2.344,0,0,1-.6-1.5,4.932,4.932,0,0,0-.5-1.8c-.5-.7-1-.1-2,2.4-.5,1.2-1,2.4-1.1,2.5-.5.6-1.1.4-1.9-.6s-2-1.3-2.2-.6a6.8,6.8,0,0,0,.1,1.9c.5,2.5-.3,2.9-2.5,1.2-1.9-1.5-2.6-1.8-3.3-1.4s-.7,1,.2,3.2c.8,1.9.9,3.3.1,2.2a6.35,6.35,0,0,0-2.2-1.4A39.01,39.01,0,0,1,208,268c-.9-.5-2.2-1.1-2.9-1.4a54.834,54.834,0,0,0-8.1-1.2c-.2.1.7.8,1.9,1.6,2.6,1.8,7.7,6.5,7.7,7.1,0,.3-.3.4-2.1.2-2.4-.2-2.4-.3-1.8,2.2a2.994,2.994,0,0,1,.1,1.6c-.2.2-1,.1-2.2-.2-1.1-.2-2.1-.4-2.2-.4-.4,0-.2,2.1.3,3.9.5,1.7.5,1.8.1,2.1-.5.4-1.2.2-5.2-1.7-2.4-1.1-3-1.3-4.3-1.3a6.174,6.174,0,0,0-2.2.4l-.7.4,1.7,1.9a24.441,24.441,0,0,1,4.5,6.4c.6,2-1.4,2.4-8.1,1.5-3.6-.5-6.1-.4-7.3.2-.9.5-4.1,3.5-4.1,3.9a16.134,16.134,0,0,0,3.5.4,21.213,21.213,0,0,1,9.3,2.2c2.2,1.2,2.2,1.5-.2,1.5a6.138,6.138,0,0,0-4.3,1.2c-.5.4-.5.4,0,1a7.118,7.118,0,0,0,4.1,1.8,13.356,13.356,0,0,1,1.8.4c.1.1-.8.2-1.8.4a36.416,36.416,0,0,0-8.6,2.6c-1.7.9-1.8,1-2.1,3.5l-.2,1,.9-.2a49.407,49.407,0,0,1,9.4-.2c1.7.4,1.2.7-1.4,1.1a25.666,25.666,0,0,0-6.1,1.2l-.7.4,1.4.7a19.9,19.9,0,0,0,4.1,1.3c6.3,1.3,7,2,1.8,1.7-4.3-.2-6-.1-5.9.6s2.8,2,5.5,2.7c1.7.4,1,.7-1.7.9-2.5.1-4.4.7-5.1,1.8-.6.8-.2,4.3.5,4.8a.663.663,0,0,0,.7-.2,22.192,22.192,0,0,1,2.4-1.4c2.1-1,2.1-1,5-.5,1.3.2,2.4,1.2,3.3,3.2a22.031,22.031,0,0,0,2.1,3.2c.7.9,1.5,1.8,1.8,2.2.5.6.5.6-.1,1.8-.3.6-.6,1.4-.7,1.6-.5,1.7-8.7,1.1-15.1-1a35.973,35.973,0,0,1-8.1-4l-1.3-1v1a14.609,14.609,0,0,0,4,8.7l1.3,1.2-1.3,2.5c-1.6,3.1-1.7,4.3-.5,5.6.5.5.8,1,.7,1.2a6.876,6.876,0,0,1-1.6,1.2c-2.4,1.4-2.3,1.2-1.3,1.7a9.1,9.1,0,0,0,2.9.6,5.472,5.472,0,0,1,2.3.5c.7.8-.7,2.6-3.1,4-.4.2-.1.3,1.6.6a27.48,27.48,0,0,0,3.8.3l1.7.1-.6,1a10.235,10.235,0,0,1-3,3.2l-.7.5.8.1a7.736,7.736,0,0,0,2.1-.1c2-.3,4.4-.3,5,.1.8.6.1,2-2,4l-1.8,1.8,1.2.2a12.317,12.317,0,0,0,6.5-.8c.8-.4,1.4-.7,1.5-.6.4.4-1.1,4.3-2,5.4a.663.663,0,0,0-.2.7,15.611,15.611,0,0,0,3.2.2c2.3,0,3.2-.1,3.9-.5a8.122,8.122,0,0,0,1-.5,8.867,8.867,0,0,1,.1,1.3,2.971,2.971,0,0,1-.7,2.1l-.7.9h.7a19.055,19.055,0,0,0,7.3-2.4c1-.7,1-.6,1,.3a6.666,6.666,0,0,1-1.2,3.5c-.6.6-.4.6,2.2,0a17.267,17.267,0,0,0,5.5-2.2c1-.7,1.1-.6.9.5a3.01,3.01,0,0,1-1.8,2.6c-.5.2-.8.5-.7.5a31.63,31.63,0,0,0,7.1-1.1,5.4,5.4,0,0,0,1.7-.9c.5-.4.5-.4.5.2a4.963,4.963,0,0,1-.7,1.9,8.079,8.079,0,0,0-.7,1.4c0,.2,1.5-.2,3.2-1a9.376,9.376,0,0,1,2.4-.8,3.844,3.844,0,0,1,2.8,2.1,5.83,5.83,0,0,0,2.5,1.9l1.9.9.1-1.1c.1-1,4.5-12.6,5-13.1.2-.2,5.6,3.5,10.8,7.4a90.8,90.8,0,0,1,12.4,12.4c5.8,7.9,7.7,13.4,7.7,22.2a44.082,44.082,0,0,1-1.4,12.1c-2.5,10-8.2,19.5-14.7,24.3-4.3,3.2-9.3,4.3-18.8,4-11.4-.3-18.5-2.7-23.8-7.9a26.93,26.93,0,0,1-7.5-14.8,35.419,35.419,0,0,1-.3-5.2c0-6.5,1.5-11.1,4.7-14.5a15.842,15.842,0,0,1,9.6-5.2,12.732,12.732,0,0,1,10.3,3c1.8,1.6,1.8,2.4.5,5.2-1.2,2.5-1.3,3.1-.6,3.9.7.7,2.2.7,3.9-.1,2.5-1.2,3.7-4,3.5-7.9-.2-3.5-1.8-5.8-5.5-7.7-3.6-1.8-5.4-2.1-11-2.1-4.6,0-5.1.1-7.4.7-4.5,1.4-7.2,3.2-9.3,6.1-4.8,6.8-7.5,18.5-5.9,26a38.674,38.674,0,0,0,8.9,17.1c7.5,8.7,17.6,12.7,31.9,12.7,10.6,0,18.2-2,25.7-6.9,8.3-5.4,13.8-12.4,18.3-23.7a24.04,24.04,0,0,0,1.9-7.7,7.016,7.016,0,0,1,.5-2.6c1.1-1.2,1.4-4.7.8-7l-.4-1.3.8-.7c1.5-1.3,1.3-4.1-.3-6l-.8-.9.9-.9c1.2-1.2,1.7-3.4,1.4-6.3-.1-2-1-4.9-1.6-4.9-.5,0-.2-.7.6-1.2a3.762,3.762,0,0,0,1.8-3.5c0-3.2-1.3-8.2-2.3-8.6-.4-.2-.5-.9-.1-.9.6,0,1.4-2.5,1.6-4.8.2-2.9-.4-5.1-1.6-6.2l-.8-.8.8-1.7a4.793,4.793,0,0,0,.7-3.1c-.3-2.8-3.4-8.1-5.8-9.6-.9-.6-1.1-.9-1.1-1.5,0-1.8-1.5-4.4-3.9-7.1-2.6-2.7-3.4-4-3.9-5.9a6.615,6.615,0,0,0-1.9-3,15.576,15.576,0,0,0-5.8-3.4c-.3-.1-.5-.3-.5-.8,0-1.7-2.1-4.6-4-5.4-.9-.4-1.1-.6-1.1-1.4,0-1.1-.9-2.2-3.1-3.7-2-1.4-5.2-2.2-10.2-2.6-10.4-.9-15-2.6-19.9-7.5a16.641,16.641,0,0,1-5.2-8.8,14.822,14.822,0,0,1-.1-8.6c.6-1.7,2.4-5,2.7-5a7.393,7.393,0,0,1-.3,1.9c-.7,2.5-.8,6.7-.1,8.7a9.958,9.958,0,0,0,5.1,6.2c1.7.9,2.5,1,5.3,1.3,2.9.3,4.9.9,5.9,1.7,1.4,1.3,4.7,1.5,7.8.4a16.023,16.023,0,0,1,3.3-.7l1.9-.2,2.5,1.7c2.6,1.8,13.7,8,15.6,8.8,3.6,1.4,7.6.4,9.3-2.3,1.4-2.2.1-4.2-5.7-9.4-4.7-4.2-5.8-5.7-6.4-8.1a32.112,32.112,0,0,0-2-5c-2-4.2-2-4.9-.1-6.9a9.786,9.786,0,0,0,1.7-2.4c.4-1,.6-3.2.3-3.6a8.142,8.142,0,0,0-2.9.6c-.3.1-.3-.3-.3-2.1a11.973,11.973,0,0,0-.2-3.1l-.3-.8-1,.9c-1,1-1.7,1.2-2,.7a5.833,5.833,0,0,1-.4-1.7c-.3-1.7-1.3-4.3-1.6-4a8.66,8.66,0,0,0-.5,1.2c-.2.6-.4,1-.5,1a2.767,2.767,0,0,1-.4-1.4c-.3-2.3-.6-3.3-1.3-3.9-.6-.6-.7-.6-.9-.3a2.9,2.9,0,0,0-.3,1.1,15.61,15.61,0,0,1-1.7,5.6c-1.9,3.9-3.7,3.5-7.5-1.5-2.1-2.8-2.5-3.7-1.9-5,1.4-3,7.4-7,13-8.8a6.085,6.085,0,0,0,1.9-.8c0-.5-1.3-1.7-2.5-2.3A54.256,54.256,0,0,0,240.5,258.7Z" fill="#dfdfdf"/><path d="M185.2,311.9c1.7-.9-6.5-.8-8.3-.8-1.2.4-2.3.9-2.6.7-.4-.2-.1-1.5.3-3.7a11.428,11.428,0,0,1,4.1-2.1c1.4-.5,2.6-.8,4.1-1.3a26.939,26.939,0,0,0,4.1-.6c-2.5-.4-4.3-.1-6.7-2.7,1-.6,1.4-1.4,2.6-1.7a8.009,8.009,0,0,1,2.6-.2c1.9,0,2.4.3,1.2-.6a16.16,16.16,0,0,0-6.4-2.4,77.8,77.8,0,0,0-7.8-.5c.8-1.6,2.3-2.5,3.2-3.5,1.5-1.8,4.9-1.8,10-.9,8.1,1,8.6,0,3.5-6.4l-3.2-3.6,2.1-.8,2.2-.1c2.1.5,4.9,2.1,6.5,2.8,2.6,1.2,2.5.1,1.7-2.1-.7-1.8-.2-1.8-.4-3.8,1.3,0,4.8,1.3,4.8.5,0-1-.5-1.6-.7-3.9,1.2,0,3.7.3,4.3.2s-.8-1.4-2.2-2.7l-3.6-3.2-5-3.4,7.5.9c2.3,0,6,2.5,7.9,3.5a9.673,9.673,0,0,1,2.5,1.3c1.3.5-.3,1.8.7.6.5-.9-1.8-3.5-1.5-4.9,1.6-3.1,5.3,2.6,6.1,1.7,1.5-.2-.7-3.7.5-4.4,1.7-1,2.7,2.5,3.6,1.9s1.5-5.1,3-5.7.9,4.6,1.9,3.9c2.1-1.5,6.8-4.4,10.6-4.9a20.321,20.321,0,0,1,6-.5,5.28,5.28,0,0,1,4.2,3.2,29.221,29.221,0,0,0-5.6,2,27.17,27.17,0,0,0-7.7,5.1c-2.8,3.1-2.8,3.5.3,7.4,4,5.4,5.9,5.1,8.1-1.2.9-2.5.6-4,1.1-4.9a7.356,7.356,0,0,1,1.7,1.4c.5.7.9,4,.9,4.9.4-.2.8-1.3,1.1-3a21.412,21.412,0,0,1,1.6,3.4c.3.9,0,3.3,1,3.3.6,0,1.3-1.1,2.5-2.2,1.1,2,.9,4.5.5,6.4a13.124,13.124,0,0,1,3.4-.9,6.5,6.5,0,0,1,0,3.1c-.6,1.3-.8,2.4-2.1,3.4-2,1.6-2,2.6,0,6.4,1.3,2.5,2.3,5.3,2.3,6.4,0,1,3,4.3,6.8,7.4,4.6,4,6.3,6.4,5.6,8.2-1.6,4-6.8,5.1-11.4,2.6-2.1-1.2-6.9-3.8-10.7-5.9-2.6-1.4-4.2-2.9-5.8-3.9a13.476,13.476,0,0,0-6.6,1.3c-3.3.5-5.9.2-6.6-.8s-3.3-1.8-5.8-1.8c-6.6,0-10.9-4.4-11.2-10.7a21.108,21.108,0,0,1,1.2-7.6c-3.6,5.7-3.9,8.4-2.5,13.5,1.6,7.1,8.9,16.1,25,16.3a48.81,48.81,0,0,1,8.5,1.5c1.8,1.1,5.8,3.2,5,5.8a7.322,7.322,0,0,1,5.1,6.4c7.3,2.2,8.3,6.5,8.3,7.3s1.8,3.3,4.1,5.4,3.8,5.6,3.6,7.5c2.6,1.3,3.5,3.2,5,5.3,1.3,2.7,3.5,6,.3,10,3.4,1.3,3.2,10.8.5,12.2,2,1.4,2.4,4.7,2.8,9.2,0,1.5-.5,2.9-2.9,4.1a3.7,3.7,0,0,1,1.5,2.4,12.914,12.914,0,0,1,.5,4,11.829,11.829,0,0,1-.6,3.9,3.108,3.108,0,0,1-1.9,2.1c3,2,2.9,7.2.3,7.7,1.5,2.7,1,7.9-.9,8.9.4,5.4-1.7,9.2-2.9,12a46.678,46.678,0,0,1-8.9,14.5,45.389,45.389,0,0,1-13.5,9.9c-11.5,5.6-31.1,5.4-42.3-.3-9.9-5.1-18-16.1-19.6-26.8-1.5-9.6,3.1-23.6,9.1-28,9.4-6.9,27.7-4.6,30.3,3.8,1.3,4.3-.3,9.4-3.5,10.5-4.1,1.5-5.8-.5-3.5-4.1,1.6-2.8,1.5-3.6-1.2-5.8-7.9-5.8-19.8-.7-22.6,9.6-3.5,13.2,2,26.5,13,32,9.2,4.6,27.8,4.9,34.4.8,12.8-8.1,20.9-30,17-46.5-2.1-9.1-11-20.3-22.6-28l-7.2-5.1-2.6,6.8c-1.4,3.5-2.6,5.5-2.3,7.7-2.1-1.3-2.9-1.1-4.4-2.5-.7-1.5-1.9-3.1-3.7-2.6a20.051,20.051,0,0,1-5.4,1.9c.9-2,1.7-2.1,1.6-4.1-1.3,1.7-5.2,1.9-10.1,2.4,3.9-2.2,3.1-2.7,3.4-4.5-1.5,1.7-5.2,2.7-9.5,3.5,2.2-2.3,1.8-3,2-5.1-2.2,2.1-7.5,3.3-9.4,3.2,1.7-2,1.7-2,1.7-4.4-1.9,1.5-5.5,1.3-8.7.7a9.585,9.585,0,0,0,2.7-6.2c-2.6,2.4-6.8,1.9-9.6,1.4,2.2-1.9,3.5-3,4.1-4.2.8-1.5.3-2-2.4-2-1.8,0-3.1,1.2-5.7.1,3.9-1.5,4.9-6.5,5.8-6.6,3.5-.4-4.8,6.3,2.6,4.9a20.277,20.277,0,0,1,4.1-.2,19.769,19.769,0,0,1-2,2.5c-.9,1.4-1.1,3.2-3.3,4.3,1.9,0,3.4.2,4.6-.8a37.738,37.738,0,0,1,3.9-3.3,7.57,7.57,0,0,1,0,3.7,13.821,13.821,0,0,1-1.5,4.6c2.8.7,4.6-.2,5.1-1.5.7-.8,1.8-2.7,3.3-3.1.6,1.8,0,1.8-.3,3.3-.6,1.7-.8,2.9-1.3,4.5a11.783,11.783,0,0,0,6.5-4.1c3.1-2.6,3.1-2.6,2.1.8a17.76,17.76,0,0,1-1.1,4.8,9.721,9.721,0,0,0,6.7-4c1.6-2.5,1.8-2.3,1.2.8-.1,2.1.3,2.4-.2,4.5a7.792,7.792,0,0,0,5.7-3.7c1.6-2.5,1.8-2.3,1.2.8-.4,2,.3,2.4-.8,4.4,2.8-1.2,3-.9,4-2.5.7-1.3,1.7.4,3.1,2.9,1.1,1.9,1.9,2,2.7,2.1.2-1.4.8-2.4,2.1-5.5,1.5-3.6,2.5-6.6,2.3-6.9-.3-.2-4.4-2.3-9.1-4.8-4.8-2.3-8.7-4.9-8.7-5.9,0-.8-.8-1.5-2-1.5-2.6,0-9.6-6.6-9.6-9.1,0-1.2-1.5-4-3.3-6.1-2.5-3.3-5.3-4.4-12.7-5.3a43.5,43.5,0,0,1-12.4-3.8c-1.4-.7-1.5-1.3-2.6-1.7a8.222,8.222,0,0,0,2.4,5.3c1.1,1.2,2.2,1.4,3.1,2-.9.9-1.6,2.7-2.3,3.9-1.6,2.6-1.6,3.5.7,4.3,2.1.8,2.1,1.3.3,2.5-.7.6-1.9,1-2.6,1.5a7.839,7.839,0,0,0,4.5-.2c3-1.8,3.2-1.3,1.9.6-1.1,1.6-1.8,3.4-3.3,4.6a8.369,8.369,0,0,0,4.1-.8c1.6-.7,3-1.1,1.9,1.5-1.1,1.8-.5-1-1.5,1.4a28.3,28.3,0,0,1-8.7-.8c2.6-1.4,3.6-2.6,3.9-3.3.5-1.5-.9-1.4-2.2-1.4a4.813,4.813,0,0,1-3.9-1.3c1.2-.6,3-1.2,4.1-2.6-3.4-1.9-1.4-4.9-.6-6.3.7-1.1.7-1.7,1.5-2.9-1-.1-2.6-2-3.3-3.4a13.554,13.554,0,0,1-2-7.8,24.468,24.468,0,0,0,4.5,3,39.429,39.429,0,0,0,11.9,3.9c4.5.7,8.4.6,8.4-1.1,0-1.6,1.8-1.5.5-2.8a19.253,19.253,0,0,1-4.5-6.9c-1.4-1.7-3.2-1.8-5.6-1.9-1.3.7-3.7,1.3-4.8,2.9-1.1-.5-1.6-3.8-1.1-5.3.2-.7,3-1.9,4.5-2s2.4.4,3.7-.2c-1.6-.5-2.5-.4-4.1-1.3-1.5-.7-2.9-1.2-2.7-2.1.2-1.2,8.4-.4,9.6-.3.9,0-1.8-1.1-3.8-1.3-1.3-.5-4.3-.3-7.2-2.5,2.2-1.4,3.4-.8,5.2-1.5m6.6,1.1c-.7,1.4-8.6,1-6.4,1.6,0,0,6.1,1.1,8.2,2.9.4,1.5-1.8,2.2-1.8,2.2l-7.8-.8c-.1,1.1,7.6,1.5,7.3,3.1-.1.5.4,1.5-2.1,1.2-2.3.1-5.2-.1-6.9.8a2.515,2.515,0,0,0-1,3.2,13.156,13.156,0,0,1,3.9-2,9.192,9.192,0,0,1,5.1.8c1.4.6,2.4,1.3,3.7,3.7.8,2.1,3.5,4.6,5.9,5.6,2.6.8,6.8,3.1,8.7,5.6,2.1,2.8,3.6,5.1,8.7,8,4.9,4.4.7,2.9,2.8,3.2,5.7.9,8.8,2.2,9.8,3.5a13.58,13.58,0,0,0,5.9,3.3c2.3.7,4.1,1.8,4.1,2.6,0,1,1.2,1.6,2.6,1.6,3.6,0,19.8,17,22.7,23.7,5.6,12.7,6.6,17.3,6.6,29.6-.2,8.2-1.2,15.6-2.6,19.1-3.3,7.7-17.3,23.3-21.1,23.3a4.3,4.3,0,0,1-1.2.2c-.4.5-.6.6-1.9,1.2a18.326,18.326,0,0,1-7.2,1.5,58.821,58.821,0,0,1-10.4-.8,77.513,77.513,0,0,1-10.8-2.3c-2.9-1-4-1.5-4.8-2.4a1.811,1.811,0,0,1-.8-1.8c-.6.5-2,.4-3.6-1.1-1.3-1.2-2.6-1.8-2-3-1.8-.2-2.1-.9-3.5-2.9-.9-1.3-2-2.4-1.5-4.3-1.2.2-1.8-1.5-2.5-3.1-.6-1.4-1.7-3.4-.3-4.1-1.6,0-1.3-1.9-1.5-3.2s-.6-3.4,1-3.8c-1.6-.5-.9-2.2-.7-3.7.3-2.1.5-3.3,1.9-3.5-1.2-.5-.5-2.5.3-5.2.6-2.2,2.1-3,3.8-2.6-1.6-1.2,1.3-3.2,2-3.7,1.8-1.5,3.7-2,4.1-1.1-.2-1.8,6-1.9,8.4-1.7a11.612,11.612,0,0,1,6.7,3.2c3.5,2.8,3.6,3.6,1.8,6.6-2.1,3.8-.5,4.6,2.6,1.5,3.3-3.3,2.3-7.4-2.5-11.2-3.6-3-6.1-3.5-12.4-3-11,1.2-15.5,4.6-18.6,14.8-4.9,17,1.8,33.8,16.6,41,6.6,3.1,10.5,4,21.2,4,15.6-.2,25.4-4,34.4-14,5.6-6.1,11.9-22,9.9-25-3.2-1.4,0-1.4,1-1.4,1.3,0,1.8-6.8-.6-8.1,4.9,0,2.3-6.1-.6-7.3,2.6-.1,3.9-2.6,4-5.4s-1.1-5.6-3.3-6.3c-1.7-.5-.1-1,1.5-1.3,1.9-.4,2.7-.7,2.4-4.1-.3-2.2-1.1-6-2.7-6.7a20.752,20.752,0,0,0-5.7-1,19.61,19.61,0,0,1,4.8-1c3-1.2,4-7.2,1.3-8.9s-9.4,1.6-9.7.3c1.3-1.4,5.4-1.8,7.2-3.1,2.2-2.2,4.2-4.2.6-9.3-1.8-2.8-1.5-3.5-3.6-4.3-2.8-.1-8.7,3.6-13.3,3.5,2.1-1.7,9.2-3.1,11.5-4.8s.5-4.2-1.8-7.1c-2.8-2.5-4-2.6-7.6-1a55.631,55.631,0,0,1-10.6,2.7c1.6-1.7,9.1-3.5,10.8-4.9,3.1-2.3,3.1-3.3.2-6.6L254,337l-5,2.6c-3.6,1.6-9.2,3.6-9.2,3.1,0-.3,5.1-2.6,7.7-4.1,2.8-1.5,4.5-3.6,4.5-4.8,0-4.1-3.8-4.7-9.6-.6-3,1.7-10.4,4-10.8,3.2-.5-1,5-2,7.7-3.4,2.7-1.5,7.8-4.1,7.8-5.4-.7-2.2-3.7-3.8-16.7-5.3-9.7-1.2-14.8-4.3-19.1-11.4-5.3-8.6-4.3-16,2.8-22.7l5.9-5.6-3.5,5.3c-6.4,9.2-3.3,20.3,5.8,20.3a13.557,13.557,0,0,1,6.9,2,7.621,7.621,0,0,0,6.2.5l3.1-.9,1.1-.2-4.6-3.1c-5.1-2.5-7.2-7.2-4.4-10,1-1,1.3,0,.8,2.6-.7,3.1,0,4.6,2.3,5.4a49.732,49.732,0,0,1,7.1,4.3c7.1,5.1,16.6,11,17.6,11,.5,0-.3-1.6-2.1-3.8-1.8-2-.8-1.6,2.1,1.2,4.4,4,5.8,4.4,7.9,2.6,3.6-3,3.1-4.3-3.1-8.2a16.671,16.671,0,0,1-7.7-9.6,38.658,38.658,0,0,0-3.3-7.9c-1-1.2-.5-2.6,1-4,1.4-1.2,2.8-3.8,2.7-4.8a4.491,4.491,0,0,0-1.8.7c-.8.5-1.6-.2-1.6-1.6,0-.7.6-3.5.4-4.2a11.34,11.34,0,0,1-2.1,2.6c-.8.5-1.8,0-1.8-1.2a23.844,23.844,0,0,0-.8-4.2,18.032,18.032,0,0,1-2.8,3.7c.7-1.8.1-7.7-.1-8.2a23.117,23.117,0,0,1-1.2,5.3c-1.7,2.5-2.2,3-4.1,3.6-1.7.1-2.5-.6-4.8-3.3-2.3-2.8-3.7-4.9-3.9-6.3,0-1.5,4.9-7.3,10.7-9.6,2.5-.9,2.8-1.1,4.3-1.5a9.222,9.222,0,0,0-2.8-1,14.824,14.824,0,0,0-7.2,1c-2.2.7-7.2,2.9-9.6,5.2-1.3.2.2-4-1.3-3.4s-.9,5-2.1,5.6c-1.8,1-2.1-2.3-3-2.3-.8.1.7,3.8-.9,4.7-1,.6-4.5-3.7-4.9-3-.3.5,2.7,4,1.9,4.6-1,.8-.9,1.8-3.1,1-1.8-.9-9.7-5.9-11.8-5.8a42.77,42.77,0,0,1,5.4,4.6c3.3,3.5,4.2,3.9,1.6,4.3-2.4-.4-3.1-1.1-4.3-.3-.6.4.6,3.5-.3,4-.8.5-3.6-.6-3.9-.3-1.3,1.3,1,3,.2,4.9-1,2.8-1.5,2.8-4.8.5-2.6-1.9-6-3.2-6.1-2.5-.1.9.7,1.4,2.2,3.5,4.8,6.8,3.5,8.1-5.9,7.1,0,0-7.6-2.2-9.9,1.3,2.3-.4,7.7.7,9.1,1.3a20.052,20.052,0,0,1,3.9,2.5c.7.6.3,1-.1,2.3a14.646,14.646,0,0,1-5.6.9c6.1,2.5,5.6.4,7.8,1.7-1.6,2.6-2.9,2.4-8.3,3.2-1.3.6-2.7.9-4.1,1.4-1.5.4-2.5,1.6-2.1,1.7a23.86,23.86,0,0,0,3.5-.4c2,0,.9,0,5.4.5,2.1.3,3,1.9,2.6,2.7Z"/><path d="M243.9,296.1c0,1-.6,1.7-1.2,1.7s-1.2-.8-1.2-1.7.6-1.7,1.2-1.7c.6-.1,1.2.7,1.2,1.7"/><path d="M246.4,297.4a4.022,4.022,0,0,1-5.2,2.2,3.807,3.807,0,0,1-2.3-5,4.022,4.022,0,0,1,5.2-2.2,3.773,3.773,0,0,1,2.3,5" fill="none" stroke="#000" stroke-width="1.7"/><path d="M231.9,290.9c5.2-2.7,12.4,1.5,12.4,1.5" fill="none" stroke="#000" stroke-width="1.7"/><path d="M192.9,338.1c-.2-.9.2-1.3,1.6-2.2a14.943,14.943,0,0,1,6.8,3.2,31.376,31.376,0,0,1,5.7,6.5,11.236,11.236,0,0,1-2.7,3.2,28.973,28.973,0,0,1-3.3,2c-.8-2.5-1.8-3.7-4-6.5-1-1.6-4.1-2.8-5.6-3.9C191.7,339.2,192.3,339.1,192.9,338.1Z" fill="#dfdfdf"/><path d="M205.3,349.7c1.5-1,1.9-2.4,3-3,1.4.6,1,.8,3.3,1.9,2.4,1.5,1.5,1.2,3.4,3.7a32.085,32.085,0,0,1-2.3,3.8c-1.3,1.1-1.3,2-2.5,3.4a9.613,9.613,0,0,1-5.4-3.4c-1.2-1.5-2.6-1.5-3.2-4A26.529,26.529,0,0,0,205.3,349.7Z" fill="#dfdfdf"/><path d="M213.9,356.7c1.1-1.5,1.4-2.6,2.3-3.8a26.763,26.763,0,0,1,5,1.1c2.7.6,3.1,1.5,4.5,2.9-.8,1.5-.9,3.4-1.5,6.2a18.625,18.625,0,0,1-1.6,4.7,52.778,52.778,0,0,1-5.8-3c-2-1.2-3.9-2.4-4.8-4.9,1-1.7,1-2.3,1.9-3.2Z" fill="#dfdfdf"/><path d="M225.7,364.1c.5-2.1.4-4.3,1.5-6,1.7.2,1.4.8,3.4,1.4,2,.9,3.4,1.1,4.5,3.3-1.8,1.7-2.2,1.5-2.8,4.2-.4,1.9.4,4.6-.4,6.3-2.2-1-2.4-1.5-4.3-2.7-2-1.2-2.2-.7-3.4-1.9a35.505,35.505,0,0,1,1.5-4.6Z" fill="#dfdfdf"/><path d="M233.8,367.1a8.268,8.268,0,0,1,2.4-3.3c2,.8,2.8.3,4.7,2a54.67,54.67,0,0,1,6.8,5.8,9.607,9.607,0,0,0-4.1,3.1c-1.5,2-1.1,2.6-2,4.9-1.6-1-2.4-1.6-4-2.5a32.174,32.174,0,0,0-4.1-3.2c.8-2.1.1-5.1.3-6.8Z" fill="#dfdfdf"/><path d="M244.7,376c.9-1.9,2.3-2.3,3.3-3.2,2,.8,2.7,2.5,4.6,4.1a53.5,53.5,0,0,1,3.8,4.5,10.393,10.393,0,0,0-3.7,2.3c-1.6,1.4-2.1,1.4-3.1,2.7-1.2-1.3-1-1.2-2.5-2.7-1.6-1.5-1.8-1.4-3.9-3.4A23.546,23.546,0,0,1,244.7,376Z" fill="#dfdfdf"/><path d="M253.8,385.2a24.9,24.9,0,0,1,3.2-2.1,13.1,13.1,0,0,1,2.3,3.1,11.664,11.664,0,0,1,1.7,2.9c-1.7.8-1.5.6-2.8,1.3a37.4,37.4,0,0,0-3.2,2.2c-1.2-1.3-.3-.8-1.9-2.4a22.085,22.085,0,0,0-2.3-2.8,12.858,12.858,0,0,1,3-2.2Z" fill="#dfdfdf"/><path d="M258.3,391.9c1.4-.6,2-1,3.1-1.5a20.282,20.282,0,0,1,1.5,2.9c.3,1,.6,1.5,1.2,3.2a25.54,25.54,0,0,0-2.5,1,26.032,26.032,0,0,0-2.8,1.5,15,15,0,0,0-1.5-2.4,13.7,13.7,0,0,0-1.8-2.6A19.7,19.7,0,0,1,258.3,391.9Z" fill="#dfdfdf"/><path d="M261.7,398.7c1.4-.6,1.4-.5,2.5-1a25.979,25.979,0,0,1,1.7,5.6,50.282,50.282,0,0,1,.7,5.9c-1.2.2-.7.1-1.8.3a9.354,9.354,0,0,0-2.2.7,20.861,20.861,0,0,0-1.2-5.3,21.24,21.24,0,0,0-2.2-5A27.206,27.206,0,0,1,261.7,398.7Z" fill="#dfdfdf"/><path d="M264.7,410.9a6.816,6.816,0,0,1,1.8-.2,52.97,52.97,0,0,1,.1,6.9c-.2,3.2-.3,5.8-.8,9.1a5.343,5.343,0,0,0-1.8-.4,7.387,7.387,0,0,0-2.1,0,30.753,30.753,0,0,0,1-7.8,55.467,55.467,0,0,0-.1-7,13.9,13.9,0,0,1,1.9-.6Z" fill="#dfdfdf"/><path d="M263.2,427.7a18.75,18.75,0,0,1,2.4,0c-1,5.4-1.8,7.4-3.6,10.8a83.14,83.14,0,0,1-7.1,9.1,7.637,7.637,0,0,1-.9-.9,8.654,8.654,0,0,0-1-.7,40.979,40.979,0,0,0,5.6-9.3,50.955,50.955,0,0,0,2.9-9.1,2.056,2.056,0,0,0,1.7.1Z" fill="#dfdfdf"/><path d="M253.2,447.6c.5.4.3.2,1.1.8a64.287,64.287,0,0,1-4.7,4.8c-1.8,1.3-2.4,2.5-6.1,4-.4-.5-.5-.6-.7-.9a3.032,3.032,0,0,1-.5-1,14.1,14.1,0,0,0,5.6-3.4,24.752,24.752,0,0,0,4.5-4.9c.4.3.6.3.8.6Z" fill="#dfdfdf"/><path d="M241.4,456.9c.3.5.2.6.5,1.2-1.7,1-2.1,1.1-6.3,1.9a44.12,44.12,0,0,1-9.7-.3,5.7,5.7,0,0,0,.1-1.3v-1a46.3,46.3,0,0,0,8.1-.1,37.871,37.871,0,0,0,6.8-1.3c.4.6.4.4.5.9Z" fill="#dfdfdf"/><path d="M224.6,458.5a7.468,7.468,0,0,0-.2,1.1c-4-.7-4.1-.6-8.9-1.6a28.483,28.483,0,0,1-7.1-3c-.2-.8-.1-.7.1-1,.2-.4.1-.3.6-.6a29.729,29.729,0,0,0,7,2.6,60.944,60.944,0,0,0,8.5,1.3,2.438,2.438,0,0,1,0,1.2Z" fill="#dfdfdf"/><path d="M207.5,452.9c-.6.5-.6.7-1.4.6-1.2-.2-1.4-.5-2.6-1.5-.6-.5-1.5-1.4-1.3-1.7.2-.4.6-1.7,1.2-.9a19.706,19.706,0,0,0,3.6,2.7C207.8,452.7,207.7,452.7,207.5,452.9Z" fill="#dfdfdf"/><path d="M201.5,448.8c-.7.2-.5.4-1.1-.1-.5-.4-.8-1.1-1.7-2.1a8.978,8.978,0,0,1-1.5-2.6c-.1-1.1.5-1.8.9-.9a17.787,17.787,0,0,0,3.3,4.6c.9.7.4,1,.1,1.1Z" fill="#dfdfdf"/><path d="M197.2,441.9c-.7.2-.6.4-1.2-.1a10.273,10.273,0,0,1-1.5-2.7c-.3-.7-1-1.8-.8-2.5.3-.8,1.3-1.3,1.6-.4a37.9,37.9,0,0,0,1.4,3.8C197.1,440.8,197.5,441.8,197.2,441.9Z" fill="#dfdfdf"/><path d="M194.9,434.6c-.3.5-.8.5-1.6.1-.7-.3-.4-1.3-.5-2.7a5.909,5.909,0,0,1,0-2.3c.2-.8,1.7-1.1,1.8-.1.1.7,0,1.1.1,2.4.2,2,.4,2.2.2,2.6Z" fill="#dfdfdf"/><path d="M194.3,427.7c-.2.4-.8.3-1.2-.2-.5-.6.1-1.5.1-2.7a5.611,5.611,0,0,1,.6-2.3c.2-.5,1.1-.6,1.1.4a13.44,13.44,0,0,1-.3,2.2,9.278,9.278,0,0,1-.3,2.6Z" fill="#dfdfdf"/><path d="M195.5,420.7c-.2.4-.9,0-1-.6-.2-.9.4-1.9.7-3a4.461,4.461,0,0,1,1.4-2.6c.5-.4,1.5-.7,1.3.3-.2.7-1.2,2.2-1.6,3.4-.4,1.1-.6,1.8-.8,2.5Z" fill="#dfdfdf"/><path d="M199.9,412.7c-.5,0-1,.2-.9-.4.1-.5.6-.8,1.6-1.6a23.068,23.068,0,0,1,1.9-1.4c.6-.3,1.7-.6,1.3.3-.2.4-.7.5-1.6,1.2-.9.6-2,1.9-2.3,1.9Z" fill="#dfdfdf"/></g><g transform="translate(750) rotate(180)"><g transform="translate(-98.734 81.609)"><path d="M471.7-258.7a25.058,25.058,0,0,0,10.5-3.9,8.023,8.023,0,0,1,2.6-1.2,2.344,2.344,0,0,1,.6,1.5,4.931,4.931,0,0,0,.5,1.8c.5.7,1,.1,2-2.4.5-1.2,1-2.4,1.1-2.5.5-.6,1.1-.4,1.9.6s2,1.3,2.2.6a6.8,6.8,0,0,0-.1-1.9c-.5-2.5.3-2.9,2.5-1.2,1.9,1.5,2.6,1.8,3.3,1.4s.7-1-.2-3.2c-.8-1.9-.9-3.3-.1-2.2a6.35,6.35,0,0,0,2.2,1.4,39.01,39.01,0,0,1,3.5,1.9c.9.5,2.2,1.1,2.9,1.4a54.834,54.834,0,0,0,8.1,1.2c.2-.1-.7-.8-1.9-1.6-2.6-1.8-7.7-6.5-7.7-7.1,0-.3.3-.4,2.1-.2,2.4.2,2.4.3,1.8-2.2a2.994,2.994,0,0,1-.1-1.6,4.716,4.716,0,0,1,2.2.2c1.1.2,2.1.4,2.2.4.4,0,.2-2.1-.3-3.9-.5-1.7-.5-1.8-.1-2.1.5-.4,1.2-.2,5.2,1.7,2.4,1.1,3,1.3,4.3,1.3a6.174,6.174,0,0,0,2.2-.4l.7-.4-1.7-1.9a24.443,24.443,0,0,1-4.5-6.4c-.6-2,1.4-2.4,8.1-1.5,3.6.5,6.1.4,7.3-.2.9-.5,4.1-3.5,4.1-3.9a16.133,16.133,0,0,0-3.5-.4,21.213,21.213,0,0,1-9.3-2.2c-2.2-1.2-2.2-1.5.2-1.5a6.138,6.138,0,0,0,4.3-1.2c.5-.4.5-.4,0-1a7.118,7.118,0,0,0-4.1-1.8,13.353,13.353,0,0,1-1.8-.4c-.1-.1.8-.2,1.8-.4a36.415,36.415,0,0,0,8.6-2.6c1.7-.9,1.8-1,2.1-3.5l.2-1-.9.2a49.407,49.407,0,0,1-9.4.2c-1.7-.4-1.2-.7,1.4-1.1a25.666,25.666,0,0,0,6.1-1.2l.7-.4-1.4-.7a19.9,19.9,0,0,0-4.1-1.3c-6.3-1.3-7-2-1.8-1.7,4.3.2,6,.1,5.9-.6s-2.8-2-5.5-2.7c-1.7-.4-1-.7,1.7-.9,2.5-.1,4.4-.7,5.1-1.8.6-.8.2-4.3-.5-4.8a.663.663,0,0,0-.7.2,22.19,22.19,0,0,1-2.4,1.4c-2.1,1-2.1,1-5,.5-1.3-.2-2.4-1.2-3.3-3.2a22.036,22.036,0,0,0-2.1-3.2c-.7-.9-1.5-1.8-1.8-2.2-.5-.6-.5-.6.1-1.8.3-.6.6-1.4.7-1.6.5-1.7,8.7-1.1,15.1,1a35.972,35.972,0,0,1,8.1,4l1.3,1v-1a14.609,14.609,0,0,0-4-8.7l-1.3-1.2,1.3-2.5c1.6-3.1,1.7-4.3.5-5.6-.5-.5-.8-1-.7-1.2a6.875,6.875,0,0,1,1.6-1.2c2.4-1.4,2.3-1.2,1.3-1.7a9.1,9.1,0,0,0-2.9-.6,5.471,5.471,0,0,1-2.3-.5c-.7-.8.7-2.6,3.1-4,.4-.2.1-.3-1.6-.6a27.481,27.481,0,0,0-3.8-.3l-1.7-.1.6-1a10.236,10.236,0,0,1,3-3.2l.7-.5-.8-.1a7.736,7.736,0,0,0-2.1.1c-2,.3-4.4.3-5-.1-.8-.6-.1-2,2-4l1.8-1.8-1.2-.2a12.317,12.317,0,0,0-6.5.8c-.8.4-1.4.7-1.5.6-.4-.4,1.1-4.3,2-5.4a.663.663,0,0,0,.2-.7,15.61,15.61,0,0,0-3.2-.2c-2.3,0-3.2.1-3.9.5a8.122,8.122,0,0,0-1,.5,8.87,8.87,0,0,1-.1-1.3,2.971,2.971,0,0,1,.7-2.1l.7-.9h-.7a19.055,19.055,0,0,0-7.3,2.4c-1,.7-1,.6-1-.3a6.666,6.666,0,0,1,1.2-3.5c.6-.6.4-.6-2.2,0a17.267,17.267,0,0,0-5.5,2.2c-1,.7-1.1.6-.9-.5a3.01,3.01,0,0,1,1.8-2.6c.5-.2.8-.5.7-.5a31.63,31.63,0,0,0-7.1,1.1,5.4,5.4,0,0,0-1.7.9c-.5.4-.5.4-.5-.2a4.963,4.963,0,0,1,.7-1.9,8.076,8.076,0,0,0,.7-1.4c0-.2-1.5.2-3.2,1a9.376,9.376,0,0,1-2.4.8,3.844,3.844,0,0,1-2.8-2.1,5.83,5.83,0,0,0-2.5-1.9l-1.9-.9-.1,1.1c-.1,1-4.5,12.6-5,13.1-.2.2-5.6-3.5-10.8-7.4a90.8,90.8,0,0,1-12.4-12.4c-5.8-7.9-7.7-13.4-7.7-22.2a44.082,44.082,0,0,1,1.4-12.1c2.5-10,8.2-19.5,14.7-24.3,4.3-3.2,9.3-4.3,18.8-4,11.4.3,18.5,2.7,23.8,7.9a26.93,26.93,0,0,1,7.5,14.8,35.418,35.418,0,0,1,.3,5.2c0,6.5-1.5,11.1-4.7,14.5a15.842,15.842,0,0,1-9.6,5.2,12.732,12.732,0,0,1-10.3-3c-1.8-1.6-1.8-2.4-.5-5.2,1.2-2.5,1.3-3.1.6-3.9-.7-.7-2.2-.7-3.9.1-2.5,1.2-3.7,4-3.5,7.9.2,3.5,1.8,5.8,5.5,7.7,3.6,1.8,5.4,2.1,11,2.1,4.6,0,5.1-.1,7.4-.7,4.5-1.4,7.2-3.2,9.3-6.1,4.8-6.8,7.5-18.5,5.9-26a38.674,38.674,0,0,0-8.9-17.1c-7.5-8.7-17.6-12.7-31.9-12.7-10.6,0-18.2,2-25.7,6.9-8.3,5.4-13.8,12.4-18.3,23.7a24.04,24.04,0,0,0-1.9,7.7,7.016,7.016,0,0,1-.5,2.6c-1.1,1.2-1.4,4.7-.8,7l.4,1.3-.8.7c-1.5,1.3-1.3,4.1.3,6l.8.9-.9.9c-1.2,1.2-1.7,3.4-1.4,6.3.1,2,1,4.9,1.6,4.9.5,0,.2.7-.6,1.2a3.762,3.762,0,0,0-1.8,3.5c0,3.2,1.3,8.2,2.3,8.6.4.2.5.9.1.9-.6,0-1.4,2.5-1.6,4.8-.2,2.9.4,5.1,1.6,6.2l.8.8-.8,1.7a4.793,4.793,0,0,0-.7,3.1c.3,2.8,3.4,8.1,5.8,9.6.9.6,1.1.9,1.1,1.5,0,1.8,1.5,4.4,3.9,7.1,2.6,2.7,3.4,4,3.9,5.9a6.615,6.615,0,0,0,1.9,3,15.576,15.576,0,0,0,5.8,3.4c.3.1.5.3.5.8,0,1.7,2.1,4.6,4,5.4.9.4,1.1.6,1.1,1.4,0,1.1.9,2.2,3.1,3.7,2,1.4,5.2,2.2,10.2,2.6,10.4.9,15,2.6,19.9,7.5a16.641,16.641,0,0,1,5.2,8.8,14.822,14.822,0,0,1,.1,8.6c-.6,1.7-2.4,5-2.7,5a7.394,7.394,0,0,1,.3-1.9c.7-2.5.8-6.7.1-8.7a9.958,9.958,0,0,0-5.1-6.2c-1.7-.9-2.5-1-5.3-1.3-2.9-.3-4.9-.9-5.9-1.7-1.4-1.3-4.7-1.5-7.8-.4a16.022,16.022,0,0,1-3.3.7l-1.9.2-2.5-1.7c-2.6-1.8-13.7-8-15.6-8.8-3.6-1.4-7.6-.4-9.3,2.3-1.4,2.2-.1,4.2,5.7,9.4,4.7,4.2,5.8,5.7,6.4,8.1a32.112,32.112,0,0,0,2,5c2,4.2,2,4.9.1,6.9a9.786,9.786,0,0,0-1.7,2.4c-.4,1-.6,3.2-.3,3.6a8.142,8.142,0,0,0,2.9-.6c.3-.1.3.3.3,2.1a11.972,11.972,0,0,0,.2,3.1l.3.8,1-.9c1-1,1.7-1.2,2-.7a5.834,5.834,0,0,1,.4,1.7c.3,1.7,1.3,4.3,1.6,4a8.662,8.662,0,0,0,.5-1.2c.2-.6.4-1,.5-1a2.767,2.767,0,0,1,.4,1.4c.3,2.3.6,3.3,1.3,3.9.6.6.7.6.9.3a2.9,2.9,0,0,0,.3-1.1,15.61,15.61,0,0,1,1.7-5.6c1.9-3.9,3.7-3.5,7.5,1.5,2.1,2.8,2.5,3.7,1.9,5-1.4,3-7.4,7-13,8.8a6.085,6.085,0,0,0-1.9.8c0,.5,1.3,1.7,2.5,2.3C467.9-258.6,469.5-258.4,471.7-258.7Z" fill="#dfdfdf"/><path d="M527-311.9c-1.7.9,6.5.8,8.3.8,1.2-.4,2.3-.9,2.6-.7.4.2.1,1.5-.3,3.7a11.428,11.428,0,0,1-4.1,2.1c-1.4.5-2.6.8-4.1,1.3a26.938,26.938,0,0,0-4.1.6c2.5.4,4.3.1,6.7,2.7-1,.6-1.4,1.4-2.6,1.7a8.009,8.009,0,0,1-2.6.2c-1.9,0-2.4-.3-1.2.6a16.16,16.16,0,0,0,6.4,2.4,77.8,77.8,0,0,0,7.8.5c-.8,1.6-2.3,2.5-3.2,3.5-1.5,1.8-4.9,1.8-10,.9-8.1-1-8.6,0-3.5,6.4l3.2,3.6-2.1.8-2.2.1c-2.1-.5-4.9-2.1-6.5-2.8-2.6-1.2-2.5-.1-1.7,2.1.7,1.8.2,1.8.4,3.8-1.3,0-4.8-1.3-4.8-.5,0,1,.5,1.6.7,3.9-1.2,0-3.7-.3-4.3-.2s.8,1.4,2.2,2.7l3.6,3.2,5,3.4-7.5-.9c-2.3,0-6-2.5-7.9-3.5a9.673,9.673,0,0,1-2.5-1.3c-1.3-.5.3-1.8-.7-.6-.5.9,1.8,3.5,1.5,4.9-1.6,3.1-5.3-2.6-6.1-1.7-1.5.2.7,3.7-.5,4.4-1.7,1-2.7-2.5-3.6-1.9s-1.5,5.1-3,5.7-.9-4.6-1.9-3.9c-2.1,1.5-6.8,4.4-10.6,4.9a20.321,20.321,0,0,1-6,.5,5.28,5.28,0,0,1-4.2-3.2,29.221,29.221,0,0,0,5.6-2,27.17,27.17,0,0,0,7.7-5.1c2.8-3.1,2.8-3.5-.3-7.4-4-5.4-5.9-5.1-8.1,1.2-.9,2.5-.6,4-1.1,4.9a7.356,7.356,0,0,1-1.7-1.4c-.5-.7-.9-4-.9-4.9-.4.2-.8,1.3-1.1,3a21.413,21.413,0,0,1-1.6-3.4c-.3-.9,0-3.3-1-3.3-.6,0-1.3,1.1-2.5,2.2-1.1-2-.9-4.5-.5-6.4a13.124,13.124,0,0,1-3.4.9,6.5,6.5,0,0,1,0-3.1c.6-1.3.8-2.4,2.1-3.4,2-1.6,2-2.6,0-6.4-1.3-2.5-2.3-5.3-2.3-6.4,0-1-3-4.3-6.8-7.4-4.6-4-6.3-6.4-5.6-8.2,1.6-4,6.8-5.1,11.4-2.6,2.1,1.2,6.9,3.8,10.7,5.9,2.6,1.4,4.2,2.9,5.8,3.9a13.476,13.476,0,0,0,6.6-1.3c3.3-.5,5.9-.2,6.6.8s3.3,1.8,5.8,1.8c6.6,0,10.9,4.4,11.2,10.7a21.107,21.107,0,0,1-1.2,7.6c3.6-5.7,3.9-8.4,2.5-13.5-1.6-7.1-8.9-16.1-25-16.3a48.81,48.81,0,0,1-8.5-1.5c-1.8-1.1-5.8-3.2-5-5.8a7.322,7.322,0,0,1-5.1-6.4c-7.3-2.2-8.3-6.5-8.3-7.3s-1.8-3.3-4.1-5.4-3.8-5.6-3.6-7.5c-2.6-1.3-3.5-3.2-5-5.3-1.3-2.7-3.5-6-.3-10-3.4-1.3-3.2-10.8-.5-12.2-2-1.4-2.4-4.7-2.8-9.2,0-1.5.5-2.9,2.9-4.1a3.7,3.7,0,0,1-1.5-2.4,12.914,12.914,0,0,1-.5-4,11.829,11.829,0,0,1,.6-3.9,3.108,3.108,0,0,1,1.9-2.1c-3-2-2.9-7.2-.3-7.7-1.5-2.7-1-7.9.9-8.9-.4-5.4,1.7-9.2,2.9-12a46.678,46.678,0,0,1,8.9-14.5,45.389,45.389,0,0,1,13.5-9.9c11.5-5.6,31.1-5.4,42.3.3,9.9,5.1,18,16.1,19.6,26.8,1.5,9.6-3.1,23.6-9.1,28-9.4,6.9-27.7,4.6-30.3-3.8-1.3-4.3.3-9.4,3.5-10.5,4.1-1.5,5.8.5,3.5,4.1-1.6,2.8-1.5,3.6,1.2,5.8,7.9,5.8,19.8.7,22.6-9.6,3.5-13.2-2-26.5-13-32-9.2-4.6-27.8-4.9-34.4-.8-12.8,8.1-20.9,30-17,46.5,2.1,9.1,11,20.3,22.6,28l7.2,5.1,2.6-6.8c1.4-3.5,2.6-5.5,2.3-7.7,2.1,1.3,2.9,1.1,4.4,2.5.7,1.5,1.9,3.1,3.7,2.6a20.051,20.051,0,0,1,5.4-1.9c-.9,2-1.7,2.1-1.6,4.1,1.3-1.7,5.2-1.9,10.1-2.4-3.9,2.2-3.1,2.7-3.4,4.5,1.5-1.7,5.2-2.7,9.5-3.5-2.2,2.3-1.8,3-2,5.1,2.2-2.1,7.5-3.3,9.4-3.2-1.7,2-1.7,2-1.7,4.4,1.9-1.5,5.5-1.3,8.7-.7a9.585,9.585,0,0,0-2.7,6.2c2.6-2.4,6.8-1.9,9.6-1.4-2.2,1.9-3.5,3-4.1,4.2-.8,1.5-.3,2,2.4,2,1.8,0,3.1-1.2,5.7-.1-3.9,1.5-4.9,6.5-5.8,6.6-3.5.4,4.8-6.3-2.6-4.9a20.277,20.277,0,0,1-4.1.2,19.766,19.766,0,0,1,2-2.5c.9-1.4,1.1-3.2,3.3-4.3-1.9,0-3.4-.2-4.6.8a37.736,37.736,0,0,1-3.9,3.3,7.569,7.569,0,0,1,0-3.7,13.82,13.82,0,0,1,1.5-4.6c-2.8-.7-4.6.2-5.1,1.5-.7.8-1.8,2.7-3.3,3.1-.6-1.8,0-1.8.3-3.3.6-1.7.8-2.9,1.3-4.5a11.783,11.783,0,0,0-6.5,4.1c-3.1,2.6-3.1,2.6-2.1-.8a17.759,17.759,0,0,1,1.1-4.8,9.722,9.722,0,0,0-6.7,4c-1.6,2.5-1.8,2.3-1.2-.8.1-2.1-.3-2.4.2-4.5a7.793,7.793,0,0,0-5.7,3.7c-1.6,2.5-1.8,2.3-1.2-.8.4-2-.3-2.4.8-4.4-2.8,1.2-3,.9-4,2.5-.7,1.3-1.7-.4-3.1-2.9-1.1-1.9-1.9-2-2.7-2.1-.2,1.4-.8,2.4-2.1,5.5-1.5,3.6-2.5,6.6-2.3,6.9.3.2,4.4,2.3,9.1,4.8,4.8,2.3,8.7,4.9,8.7,5.9,0,.8.8,1.5,2,1.5,2.6,0,9.6,6.6,9.6,9.1,0,1.2,1.5,4,3.3,6.1,2.5,3.3,5.3,4.4,12.7,5.3a43.5,43.5,0,0,1,12.4,3.8c1.4.7,1.5,1.3,2.6,1.7a8.221,8.221,0,0,0-2.4-5.3c-1.1-1.2-2.2-1.4-3.1-2,.9-.9,1.6-2.7,2.3-3.9,1.6-2.6,1.6-3.5-.7-4.3-2.1-.8-2.1-1.3-.3-2.5.7-.6,1.9-1,2.6-1.5a7.839,7.839,0,0,0-4.5.2c-3,1.8-3.2,1.3-1.9-.6,1.1-1.6,1.8-3.4,3.3-4.6a8.369,8.369,0,0,0-4.1.8c-1.6.7-3,1.1-1.9-1.5,1.1-1.8.5,1,1.5-1.4a28.3,28.3,0,0,1,8.7.8c-2.6,1.4-3.6,2.6-3.9,3.3-.5,1.5.9,1.4,2.2,1.4a4.813,4.813,0,0,1,3.9,1.3c-1.2.6-3,1.2-4.1,2.6,3.4,1.9,1.4,4.9.6,6.3-.7,1.1-.7,1.7-1.5,2.9,1,.1,2.6,2,3.3,3.4a13.554,13.554,0,0,1,2,7.8,24.468,24.468,0,0,0-4.5-3,39.429,39.429,0,0,0-11.9-3.9c-4.5-.7-8.4-.6-8.4,1.1,0,1.6-1.8,1.5-.5,2.8a19.253,19.253,0,0,1,4.5,6.9c1.4,1.7,3.2,1.8,5.6,1.9,1.3-.7,3.7-1.3,4.8-2.9,1.1.5,1.6,3.8,1.1,5.3-.2.7-3,1.9-4.5,2s-2.4-.4-3.7.2c1.6.5,2.5.4,4.1,1.3,1.5.7,2.9,1.2,2.7,2.1-.2,1.2-8.4.4-9.6.3-.9,0,1.8,1.1,3.8,1.3,1.3.5,4.3.3,7.2,2.5-2.2,1.4-3.4.8-5.2,1.5m-6.7-1.1c.7-1.4,8.6-1,6.4-1.6,0,0-6.1-1.1-8.2-2.9-.4-1.5,1.8-2.2,1.8-2.2l7.8.8c.1-1.1-7.6-1.5-7.3-3.1.1-.5-.4-1.5,2.1-1.2,2.3-.1,5.2.1,6.9-.8a2.515,2.515,0,0,0,1-3.2,13.156,13.156,0,0,1-3.9,2,9.192,9.192,0,0,1-5.1-.8c-1.5-.6-2.4-1.3-3.7-3.7-.8-2.1-3.5-4.6-5.9-5.6-2.6-.8-6.8-3.1-8.7-5.6-2.1-2.8-3.6-5.1-8.7-8-4.9-4.4-.7-2.9-2.8-3.2-5.7-.9-8.8-2.2-9.8-3.5a13.58,13.58,0,0,0-5.9-3.3c-2.3-.7-4.1-1.8-4.1-2.6,0-1-1.2-1.6-2.6-1.6-3.6,0-19.8-17-22.7-23.7-5.6-12.7-6.6-17.3-6.6-29.6.2-8.2,1.2-15.6,2.6-19.1,3.3-7.7,17.3-23.3,21.1-23.3a4.3,4.3,0,0,1,1.2-.2c.4-.5.6-.6,1.9-1.2a18.326,18.326,0,0,1,7.2-1.5,58.821,58.821,0,0,1,10.4.8,77.512,77.512,0,0,1,10.8,2.3c2.9,1,4,1.5,4.8,2.4a1.811,1.811,0,0,1,.8,1.8c.6-.5,2-.4,3.6,1.1,1.3,1.2,2.6,1.8,2,3,1.8.2,2.1.9,3.5,2.9.9,1.3,2,2.4,1.5,4.3,1.2-.2,1.8,1.5,2.5,3.1.6,1.4,1.7,3.4.3,4.1,1.6,0,1.3,1.9,1.5,3.2s.6,3.4-1,3.8c1.6.5.9,2.2.7,3.7-.3,2.1-.5,3.3-1.9,3.5,1.2.5.5,2.5-.3,5.2-.6,2.2-2.1,3-3.8,2.6,1.6,1.2-1.3,3.2-2,3.7-1.8,1.5-3.7,2-4.1,1.1.2,1.8-6,1.9-8.4,1.7a12.268,12.268,0,0,1-6.7-3.2c-3.5-2.8-3.6-3.6-1.8-6.6,2.1-3.8.5-4.6-2.6-1.5-3.3,3.3-2.3,7.4,2.5,11.2,3.6,3,6.1,3.5,12.4,3,11-1.2,15.5-4.6,18.6-14.8,4.9-17-1.8-33.8-16.6-41-6.6-3.1-10.5-4-21.2-4-15.6.2-25.4,4-34.4,14-5.6,6.1-11.9,22-9.9,25,3.2,1.4,0,1.4-1,1.4-1.3,0-1.8,6.8.6,8.1-4.9,0-2.3,6.1.6,7.3-2.6.1-3.9,2.6-4,5.4s1.1,5.6,3.3,6.3c1.7.5.1,1-1.5,1.3-1.9.4-2.7.7-2.4,4.1.3,2.2,1.1,6,2.7,6.7a20.752,20.752,0,0,0,5.7,1,19.61,19.61,0,0,1-4.8,1c-3,1.2-4,7.2-1.3,8.9s9.4-1.6,9.7-.3c-1.3,1.4-5.4,1.8-7.2,3.1-2.2,2.2-4.2,4.2-.6,9.3,1.8,2.8,1.5,3.5,3.6,4.3,2.8.1,8.7-3.6,13.3-3.5-2.1,1.7-9.2,3.1-11.5,4.8-2.3,1.6-.5,4.2,1.8,7.1,2.8,2.5,4,2.6,7.6,1a55.631,55.631,0,0,1,10.6-2.7c-1.6,1.7-9.1,3.5-10.8,4.9-3.1,2.3-3.1,3.3-.2,6.6l4.4,1.8,5-2.6c3.6-1.6,9.2-3.6,9.2-3.1,0,.3-5.1,2.6-7.7,4.1-2.8,1.5-4.5,3.6-4.5,4.8,0,4.1,3.8,4.7,9.6.6,3-1.7,10.4-4,10.8-3.2.5,1-5,2-7.7,3.4-2.7,1.5-7.8,4.1-7.8,5.4.7,2.2,3.7,3.8,16.7,5.3,9.7,1.2,14.8,4.3,19.1,11.4,5.3,8.6,4.3,16-2.8,22.7l-5.9,5.6,3.5-5.3c6.4-9.2,3.3-20.3-5.8-20.3a13.557,13.557,0,0,1-6.9-2,7.621,7.621,0,0,0-6.2-.5l-3.1.9-1.1.2,4.6,3.1c5.1,2.5,7.2,7.2,4.4,10-1,1-1.3,0-.8-2.6.7-3.1,0-4.6-2.3-5.4a49.732,49.732,0,0,1-7.1-4.3c-7.1-5.1-16.6-11-17.6-11-.5,0,.3,1.6,2.1,3.8,1.8,2,.8,1.6-2.1-1.2-4.4-4-5.8-4.4-7.9-2.6-3.6,3-3.1,4.3,3.1,8.2a16.671,16.671,0,0,1,7.7,9.6,38.659,38.659,0,0,0,3.3,7.9c1,1.2.5,2.6-1,4-1.4,1.2-2.8,3.8-2.7,4.8a4.491,4.491,0,0,0,1.8-.7c.8-.5,1.6.2,1.6,1.6,0,.7-.6,3.5-.4,4.2a11.34,11.34,0,0,1,2.1-2.6c.8-.5,1.8,0,1.8,1.2a23.847,23.847,0,0,0,.8,4.2,18.032,18.032,0,0,1,2.8-3.7c-.7,1.8-.1,7.7.1,8.2a23.116,23.116,0,0,1,1.2-5.3c1.7-2.5,2.2-3,4.1-3.6,1.7-.1,2.5.6,4.8,3.3,2.3,2.8,3.7,4.9,3.9,6.3,0,1.5-4.9,7.3-10.7,9.6-2.5.9-2.8,1.1-4.3,1.5a9.223,9.223,0,0,0,2.8,1,14.824,14.824,0,0,0,7.2-1c2.2-.7,7.2-2.9,9.6-5.2,1.3-.2-.2,4,1.3,3.4s.9-5,2.1-5.6c1.8-1,2.1,2.3,3,2.3.8-.1-.7-3.8.9-4.7,1-.6,4.5,3.7,4.9,3,.3-.5-2.7-4-1.9-4.6,1-.8.9-1.8,3.1-1,1.8.9,9.7,5.9,11.8,5.8a42.77,42.77,0,0,1-5.4-4.6c-3.3-3.5-4.2-3.9-1.6-4.3,2.4.4,3.1,1.1,4.3.3.6-.4-.6-3.5.3-4,.8-.5,3.6.6,3.9.3,1.3-1.3-1-3-.2-4.9,1-2.8,1.5-2.8,4.8-.5,2.6,1.9,6,3.2,6.1,2.5.1-.9-.7-1.4-2.2-3.5-4.8-6.8-3.5-8.1,5.9-7.1,0,0,7.6,2.2,9.9-1.3-2.3.4-7.7-.7-9.1-1.3a20.054,20.054,0,0,1-3.9-2.5c-.7-.6-.3-1,.1-2.3a14.645,14.645,0,0,1,5.6-.9c-6.1-2.5-5.6-.4-7.8-1.7,1.6-2.6,2.9-2.4,8.3-3.2,1.3-.6,2.7-.9,4.1-1.4,1.5-.4,2.5-1.6,2.1-1.7a23.859,23.859,0,0,0-3.5.4c-2,0-.9,0-5.4-.5-2.1-.3-3-1.9-2.6-2.7Z"/><path d="M468.3-296.1c0-1,.6-1.7,1.2-1.7.7,0,1.2.8,1.2,1.7s-.6,1.7-1.2,1.7c-.7.1-1.2-.7-1.2-1.7"/><path d="M465.7-297.4a4.022,4.022,0,0,1,5.2-2.2,3.807,3.807,0,0,1,2.3,5,4.022,4.022,0,0,1-5.2,2.2,3.931,3.931,0,0,1-2.3-5" fill="none" stroke="#000" stroke-width="1.7"/><path d="M480.3-290.9c-5.2,2.7-12.4-1.5-12.4-1.5" fill="none" stroke="#000" stroke-width="1.7"/><path d="M519.3-338.1c.2.9-.2,1.3-1.6,2.2a14.943,14.943,0,0,1-6.8-3.2,31.377,31.377,0,0,1-5.7-6.5,11.235,11.235,0,0,1,2.7-3.2,28.973,28.973,0,0,1,3.3-2c.8,2.5,1.8,3.7,4,6.5,1,1.6,4.1,2.8,5.6,3.9C520.4-339.2,519.8-339.1,519.3-338.1Z" fill="#dfdfdf"/><path d="M506.9-349.7c-1.5,1-1.9,2.4-3,3-1.4-.6-1-.8-3.3-1.9-2.4-1.5-1.5-1.2-3.4-3.7a32.087,32.087,0,0,1,2.3-3.8c1.3-1.1,1.3-2,2.5-3.4a9.613,9.613,0,0,1,5.4,3.4c1.2,1.5,2.6,1.5,3.2,4A26.529,26.529,0,0,0,506.9-349.7Z" fill="#dfdfdf"/><path d="M498.3-356.7c-1.1,1.5-1.4,2.6-2.3,3.8a26.763,26.763,0,0,1-5-1.1c-2.7-.6-3.1-1.5-4.5-2.9.8-1.5.9-3.4,1.5-6.2a18.624,18.624,0,0,1,1.6-4.7,52.776,52.776,0,0,1,5.8,3c2,1.2,3.9,2.4,4.8,4.9-1.1,1.7-1,2.3-1.9,3.2Z" fill="#dfdfdf"/><path d="M486.5-364.1c-.5,2.1-.4,4.3-1.5,6-1.7-.2-1.4-.8-3.4-1.4-2-.9-3.4-1.1-4.5-3.3,1.8-1.7,2.2-1.5,2.8-4.2.4-1.9-.4-4.6.4-6.3,2.2,1,2.4,1.5,4.3,2.7,2,1.2,2.2.7,3.4,1.9-.7,2.3-1.1,3.3-1.5,4.6Z" fill="#dfdfdf"/><path d="M478.3-367.1a8.268,8.268,0,0,1-2.4,3.3c-2-.8-2.8-.3-4.7-2a54.67,54.67,0,0,1-6.8-5.8,9.607,9.607,0,0,0,4.1-3.1c1.5-2,1.1-2.6,2-4.9,1.6,1,2.4,1.6,4,2.5a32.173,32.173,0,0,0,4.1,3.2c-.7,2.1,0,5.1-.3,6.8Z" fill="#dfdfdf"/><path d="M467.5-376c-.9,1.9-2.3,2.3-3.3,3.2-2-.8-2.7-2.5-4.6-4.1a53.5,53.5,0,0,1-3.8-4.5,10.393,10.393,0,0,0,3.7-2.3c1.6-1.4,2.1-1.4,3.1-2.7,1.2,1.3,1,1.2,2.5,2.7,1.6,1.5,1.8,1.4,3.9,3.4A34.721,34.721,0,0,1,467.5-376Z" fill="#dfdfdf"/><path d="M458.4-385.2a24.9,24.9,0,0,1-3.2,2.1,13.1,13.1,0,0,1-2.3-3.1,11.664,11.664,0,0,1-1.7-2.9c1.7-.8,1.5-.6,2.8-1.3a37.405,37.405,0,0,0,3.2-2.2c1.2,1.3.3.8,1.9,2.4a22.087,22.087,0,0,0,2.3,2.8,15.355,15.355,0,0,1-3,2.2Z" fill="#dfdfdf"/><path d="M453.9-391.9c-1.4.6-2,1-3.1,1.5a20.282,20.282,0,0,1-1.5-2.9c-.3-1-.6-1.5-1.2-3.2a25.54,25.54,0,0,0,2.5-1,26.032,26.032,0,0,0,2.8-1.5,15,15,0,0,0,1.5,2.4,13.7,13.7,0,0,0,1.8,2.6A19.694,19.694,0,0,1,453.9-391.9Z" fill="#dfdfdf"/><path d="M450.5-398.7c-1.4.6-1.4.5-2.5,1a25.979,25.979,0,0,1-1.7-5.6,50.282,50.282,0,0,1-.7-5.9c1.2-.2.7-.1,1.8-.3a9.354,9.354,0,0,0,2.2-.7,20.861,20.861,0,0,0,1.2,5.3,21.24,21.24,0,0,0,2.2,5C451.8-399.2,451.4-399.2,450.5-398.7Z" fill="#dfdfdf"/><path d="M447.5-410.9a6.816,6.816,0,0,1-1.8.2,52.97,52.97,0,0,1-.1-6.9c.2-3.2.3-5.8.8-9.1a5.343,5.343,0,0,0,1.8.4,7.387,7.387,0,0,0,2.1,0,30.753,30.753,0,0,0-1,7.8,55.467,55.467,0,0,0,.1,7c-.8.3-1.2.4-1.9.6Z" fill="#dfdfdf"/><path d="M449-427.7a18.75,18.75,0,0,1-2.4,0c1-5.4,1.8-7.4,3.6-10.8a83.14,83.14,0,0,1,7.1-9.1,7.639,7.639,0,0,1,.9.9,8.653,8.653,0,0,0,1,.7,40.979,40.979,0,0,0-5.6,9.3,50.955,50.955,0,0,0-2.9,9.1,2.056,2.056,0,0,0-1.7-.1Z" fill="#dfdfdf"/><path d="M458.9-447.6c-.5-.4-.3-.2-1.1-.8a64.285,64.285,0,0,1,4.7-4.8c1.8-1.3,2.4-2.5,6.1-4,.4.5.5.6.7.9a3.032,3.032,0,0,1,.5,1,14.1,14.1,0,0,0-5.6,3.4,24.752,24.752,0,0,0-4.5,4.9,5.545,5.545,0,0,1-.8-.6Z" fill="#dfdfdf"/><path d="M470.8-456.9c-.3-.5-.2-.6-.5-1.2,1.7-1,2.1-1.1,6.3-1.9a44.12,44.12,0,0,1,9.7.3,5.7,5.7,0,0,0-.1,1.3v1a46.3,46.3,0,0,0-8.1.1,37.871,37.871,0,0,0-6.8,1.3c-.5-.6-.4-.4-.5-.9Z" fill="#dfdfdf"/><path d="M487.5-458.5a7.47,7.47,0,0,0,.2-1.1c4,.7,4.1.6,8.9,1.6a28.483,28.483,0,0,1,7.1,3c.2.8.1.7-.1,1-.2.4-.1.3-.6.6a29.729,29.729,0,0,0-7-2.6,60.944,60.944,0,0,0-8.5-1.3v-1.2Z" fill="#dfdfdf"/><path d="M504.7-452.9c.6-.5.6-.7,1.4-.6,1.2.2,1.4.5,2.6,1.5.6.5,1.5,1.4,1.3,1.7-.2.4-.6,1.7-1.2.9a19.706,19.706,0,0,0-3.6-2.7C504.3-452.7,504.5-452.7,504.7-452.9Z" fill="#dfdfdf"/><path d="M510.7-448.8c.7-.2.5-.4,1.1.1.5.4.8,1.1,1.7,2.1A8.978,8.978,0,0,1,515-444c.1,1.1-.5,1.8-.9.9a17.787,17.787,0,0,0-3.3-4.6c-1-.7-.4-1-.1-1.1Z" fill="#dfdfdf"/><path d="M514.9-441.9c.7-.2.6-.4,1.2.1a10.272,10.272,0,0,1,1.5,2.7c.3.7,1,1.8.8,2.5-.3.8-1.3,1.3-1.6.4a37.882,37.882,0,0,0-1.4-3.8C515.1-440.8,514.6-441.8,514.9-441.9Z" fill="#dfdfdf"/><path d="M517.2-434.6c.3-.5.8-.5,1.6-.1.7.3.4,1.3.5,2.7a5.91,5.91,0,0,1,0,2.3c-.2.8-1.7,1.1-1.8.1-.1-.7,0-1.1-.1-2.4-.2-2-.4-2.2-.2-2.6Z" fill="#dfdfdf"/><path d="M517.8-427.7c.2-.4.8-.3,1.2.2.5.6-.1,1.5-.1,2.7a5.612,5.612,0,0,1-.6,2.3c-.2.5-1.1.6-1.1-.4a13.438,13.438,0,0,1,.3-2.2,15.553,15.553,0,0,1,.3-2.6Z" fill="#dfdfdf"/><path d="M516.7-420.7c.2-.4.9,0,1,.6.2.9-.4,1.9-.7,3a4.46,4.46,0,0,1-1.4,2.6c-.5.4-1.5.7-1.3-.3.2-.7,1.2-2.2,1.6-3.4.4-1.1.5-1.8.8-2.5Z" fill="#dfdfdf"/><path d="M512.3-412.7c.5,0,1-.2.9.4-.1.5-.6.8-1.6,1.6a23.068,23.068,0,0,1-1.9,1.4c-.6.3-1.7.6-1.3-.3.2-.4.7-.5,1.6-1.2.9-.6,2-1.9,2.3-1.9Z" fill="#dfdfdf"/></g></g><path d="M185.4,377.5c-9.7,3.3-23.7,10-29.3,13.8-1.8,1.3-1.6,2.8,1.2,8.4,2,3.6,4,6.8,4.3,6.8.5,0,5.9-2.5,12-5.6,6.1-3,13.9-6.9,17.5-7.6a35.2,35.2,0,0,0,6.8-1.7,16.955,16.955,0,0,0,1.4,3c1.6,3.4.6,3.3,3.4,4.3,3,1,10.3-3,10.3-3,8.6-3,13.3-3.3,44.1-3.3s35.6.3,44.1,3.5l7.8,2.6a3.62,3.62,0,0,0,2.3.3c.8-.2,1.7-1.5,2.1-2.3,0,0,1.9-4.6,2.4-6.1a60.388,60.388,0,0,0,7.5,2.7c3.5,1.2,11.2,4.6,17.3,7.6,6.1,3.1,11.5,5.6,12,5.6.3,0,2.3-3.1,4.3-6.8,4-7.7,4.3-7.1-10-14.5-19.1-9.9-38.2-14.3-40-9.6-.3.9-.6,1.4-1.1,2.6-1.9-.4-6.9-1.6-12-2.4-15.5-2.8-58-2.8-73.5,0-5,.8-8.4,2.2-11.3,3-1.6-3.2-1.3-1.9-1.6-2.8-1.3-3.3-10-2.8-22,1.5Z"/><path d="M201,375.1c-7.1.2-20.3,4.8-33.8,11.6-11.5,5.8-11.9,6.1-8.7,12.2a57.245,57.245,0,0,0,3,5.6h0c.6.2,5.7-2.1,11.7-5.1,6.3-3.1,14.2-6.6,17.6-7.6a48.358,48.358,0,0,1,6.7-1.5c-.4-2.4.1-.3-1.5-5,1.9-4.7,5.5-8.7,9-9.6a10.509,10.509,0,0,0-4-.6Z" fill="#dfdfdf"/><path d="M255.1,375.2c-13.7.1-27.1.8-33.2,1.8a55.926,55.926,0,0,0-20,7.1c-1.4,1.1-2.7,1.3-4.2,2.2,1.2,2.8,1.2,4.4,2.2,6.9,1.1,2.6.6,4.2,3.6,4.3s9.5-3.2,9.5-3.2c8.4-3,13.3-3.3,44-3.3,30.8,0,37,1,44.1,3.5,5.2,1.8,7.3,3.2,9.4,2.8,1.1-.2,1.6-1.7,2.4-3.6a47.5,47.5,0,0,0,2.9-10.2c-1.6-.2-.9.6-3.1-.4-4.8-2.1-5.7-2.3-8.8-3.6-3.7-1.6-7.2-1.6-12.7-2.6-6.4-1-20.7-1.4-34.7-1.7Z" fill="#dfdfdf"/><path d="M312.4,375.2a8.752,8.752,0,0,0-2.4.3c1.4.9,3.1,2.4,4,2.9,3.5,1.8,3.4,3.5,3.1,6.6a31.016,31.016,0,0,1-.8,4c1.3.6,4.5,1.9,7.1,2.8a144.611,144.611,0,0,1,17.5,7.6c5.8,3,10.9,5.2,11.6,5.1h0a57.23,57.23,0,0,0,3-5.6c2.1-4.1,2.3-5.6.7-6.9-3.6-3-18.3-9.7-28.8-13.4-6.8-2.2-11.8-3.4-15-3.4Z" fill="#dfdfdf"/><path d="M308.2,376.6c-.1.1-.2.3-.3.4a3.722,3.722,0,0,0-.7,2c1.1.4,4.8,2.7,6.7,2.6a2.219,2.219,0,0,0,.9-.1h0v-.1h0v-.1a15.869,15.869,0,0,0-2.6-1.8c-1.1-.8-2.9-2-4-2.9Z" fill="#dfdfdf"/><path d="M205.9,376.6c-1.1.8-2.9,2-4.1,2.8-2.1,1.4-2.4,2.6-3.3,4.6v.1h0a21.619,21.619,0,0,1,5.7-2.9,25.985,25.985,0,0,0,3.6-1.5c-1.3-2.1-1.5-2.2-1.7-2.7,0-.1-.1-.2-.2-.4Z" fill="#dfdfdf"/><path d="M220.2,381.5l.4,3.3,2.2-.3a3.035,3.035,0,0,0,1.7-.6,1.955,1.955,0,0,0,.4-1.4,1.709,1.709,0,0,0-.6-1.2,3.947,3.947,0,0,0-1.8-.2l-2.3.4m-1.4-1,3.7-.4a7.775,7.775,0,0,1,1.3-.1,1.884,1.884,0,0,1,.8.2,2,2,0,0,1,1,.8,2.919,2.919,0,0,1,.5,1.4,2.2,2.2,0,0,1-.2,1.4,2.836,2.836,0,0,1-.9,1,1.885,1.885,0,0,1,.9.4,2.352,2.352,0,0,1,.4,1.2l.3,1.6c.1.3.1.6.2.7q.15.3.3.3v.3l-1.5.2a3.934,3.934,0,0,1-.4-1.3h0L225,387a1.709,1.709,0,0,0-.6-1.2c-.3-.2-.8-.2-1.8-.1l-2.1.2.5,4.1-1.3.1-.9-9.6m11.4,4.6,3-.2-1.8-4.2-1.2,4.4m-2.5,4.2,2.9-9.9,1.5-.1,4.3,9.4-1.4.1-1.2-2.8-3.8.3-.8,3h-1.5m13.4-.9-.3-9.7h1.3l.1,4,5-.1-.1-4h1.3l.3,9.7h-1.3l-.1-4.5-5,.1.1,4.5h-1.3m11.4-4.3h3l-1.5-4.3-1.5,4.3m-2.8,4.1,3.5-9.7h1.5l3.7,9.7H257l-1-2.9h-3.8l-1,2.9h-1.5m16.5-3.5h1.3a3.911,3.911,0,0,1-1.3,2.8,4.1,4.1,0,0,1-2.9,1,3.8,3.8,0,0,1-3.2-1.5,5.676,5.676,0,0,1-1.1-3.9,5.271,5.271,0,0,1,1.3-3.6,4.156,4.156,0,0,1,3.3-1.3,4,4,0,0,1,2.7.9,3.47,3.47,0,0,1,1.2,2.3h-1.3a2.751,2.751,0,0,0-.8-1.5,3.51,3.51,0,0,0-1.8-.6,2.644,2.644,0,0,0-2.3,1,4.763,4.763,0,0,0-.9,2.9,4.521,4.521,0,0,0,.8,2.9,2.8,2.8,0,0,0,2.2,1.1,2.883,2.883,0,0,0,2-.7,2.2,2.2,0,0,0,.8-1.8m2.8,3.6.4-9.7,1.3.1-.2,4,5,.2.2-4,1.3.1-.4,9.7-1.3-.1.2-4.5-5-.2-.2,4.5-1.3-.1m9.7.5.7-9.7,1.3.1-.7,9.7-1.3-.1m5.6-8.1L284,384l2.2.2a2.7,2.7,0,0,0,1.7-.2c.4-.2.6-.6.6-1.3a1.389,1.389,0,0,0-.4-1.3,3.109,3.109,0,0,0-1.7-.5l-2.1-.2m-1.2-1.3,3.7.4a12.287,12.287,0,0,1,1.3.2,4.88,4.88,0,0,1,.7.3,1.891,1.891,0,0,1,.8,1,3.178,3.178,0,0,1,.2,1.4,2.541,2.541,0,0,1-.5,1.3,3.134,3.134,0,0,1-1.1.8.877.877,0,0,1,.7.6,3.918,3.918,0,0,1,.2,1.3v1.6a1.949,1.949,0,0,0,.1.8c.1.2.1.3.3.4v.3l-1.5-.1a4.153,4.153,0,0,1-.1-1.3h0v-1.3a1.876,1.876,0,0,0-.3-1.3,3.366,3.366,0,0,0-1.7-.5l-2.1-.2-.4,4.1-1.3-.1,1-9.7m8,10.6,1.3-9.6,1.3.2-1.3,9.6-1.3-.2"/><path d="M201,188.9c-4.5,2.3-6.8,5.7-7.1,10.4-.4,5,.7,8.6,3.6,11.2a12.123,12.123,0,0,1,2.4,2.8,10.432,10.432,0,0,1-2.2,2.6,13.476,13.476,0,0,0-4.5,9.9c0,3.8,1.2,6.4,4.3,9.8l2.6,2.8-2.8,3.1c-5.6,6.2-5.4,13.4.4,19.3l2.5,2.6h115l2.8-3c5.4-5.8,5.4-12.1.1-18.8l-2.7-3.4,2.6-3.1c5.6-6.7,5.5-12.9-.3-19.4-2.6-2.9-2.7-3.4-.6-4.8,3.4-2.3,5.4-9.9,3.9-14.5-2.3-7-12-11.6-17.9-8.6a31.547,31.547,0,0,0-4.9,3.4,16.076,16.076,0,0,1-3.5,2.4,18.186,18.186,0,0,1-3.2-2.4c-5.9-5.1-12.9-4.7-18.8,1l-2.3,2.2-3-2.7c-6-5.7-13.6-5.4-19.8.5l-2.3,2.2-2.4-2.2c-3.6-3.3-6-4.3-10.1-4.3a13.687,13.687,0,0,0-10.6,4.8l-1.5,1.5-3.2-2.7c-6.1-4.7-10.8-5.6-16.5-2.6Z" fill="#171796" stroke="#000" stroke-width="2"/><path d="M198,267.1c-6,6.7-5.9,13.4.1,20.2l2.3,2.5-2.6,2.8a22.75,22.75,0,0,0-3.4,4.8c-2,4.7-.5,11,3.4,14.6,2.3,2.3,2.4,3.2.2,5.9a28.629,28.629,0,0,0-2.6,3.7c-4.6,8.7,2.3,19.5,12.4,19.5a12.521,12.521,0,0,0,9.8-4.2c2.2-2.3,3.4-2.4,5.3-.3,2.9,3.2,6.7,5.1,9.8,5.1,3.7,0,6-1.2,9.8-4.8l2.9-2.8L248,337c5.7,6.1,11.4,6.3,19.1.5l3.1-2.3,2.7,2.4c3.4,2.9,5.9,4.1,9.2,4.1s5.7-1.3,9.6-5.1l3.2-3.1,2.4,2.2c4.7,4.2,7.3,5.6,10.7,5.6,3.5,0,6-1.2,9.6-4.3,3.3-3,5.1-6.5,4.6-9.3-.4-3.1-3.2-8.8-5.3-10.8l-1.8-1.7,2.7-3.1c6-7,6-12.5.1-19.4l-2.4-2.9,2.6-3.1c5.7-6.8,5.7-13.1-.1-19.2l-3.1-3.2-57.2.1-57.2.1-2.5,2.6Z" fill="#d42e12" stroke="#000" stroke-width="2"/><path d="M185.4,259.2s0,57.2.2,79c-.2,3.2,1.7,4,4.5,6.2,4.5,3.5,9.3,7.1,34.9,5.1,23.6.2,28.5,2,31,11.4l1.3,5.3,1.2-5.3c1.8-9.1,7.4-11.2,30.1-11.4,29.3.4,31.7-1.4,35.9-5,0,0,3.1-2.4,3.9-4.6a9.59,9.59,0,0,0,.5-4.6V179.2H185.3l.1,80Zm141.6.7.3,65.9c0,8.9.6,11.6-.3,13.3a24.691,24.691,0,0,1-2.9,3.9c-4.4,4.4-8.2,5.4-28.5,5.1-13.1,0-20.2.4-30.5,2-1.6,1.5-6.1,1.3-8.1,9.8-2.7-8.5-4.6-8.1-4.6-8.1-11-4.6-15.9-3.7-33.4-3.9-11.4,1.6-23.6-.5-28.2-5.1,0,0-.7.2-3.8-3.5V180.7H327v79.2Z"/><path d="M237.2,215.2c-4.3,9-4.5,13-.9,20.2,2.8,5.5,6.1,9,10.6,11.3,11.8,5.9,26.9,1.6,32.8-9.5,3.7-6.8,3.2-18.1-.8-23.1l-1.1-1.3-1,3.9c-1.5,5.6-2.9,8.4-5.9,11.4-5.5,5.6-13.1,6.8-20.9,3.4-6-2.7-8.5-6.4-10.7-16.8l-.5-2.6-1.6,3.1Z" fill="#fff"/><path d="M235.8,215.7c-3.6,8.2-3.3,12.4,1.2,21.1,11.5,22.7,45.8,14.2,45.6-11.5-.2-4.1,0-6.8-2.3-11.4a33.5,33.5,0,0,0-2.3-3.6c-.3,1.2-.8,3.4-1.7,7.1-3.3,12.7-14.2,18.6-25.5,13.8-6.4-2.6-9.4-6.9-11-15.8l-1.2-5.8-2.8,6.1ZM247,232c7.9,5.1,19.9,3.5,26-3.3,2.5-2.8,4-7.2,4.6-9.4a39.915,39.915,0,0,0,1.1-4.7,16.727,16.727,0,0,1,1.9,6.5A22.835,22.835,0,0,1,279,233c-5.8,15.2-24.2,19.8-35.7,8.9-5.6-5.1-10-15.1-7.6-21.6.9-2.3,1.1-3.6,2.2-6a29.494,29.494,0,0,0,1.5,7.4c1.5,4.7,4.1,8.2,7.6,10.3Z"/><g transform="translate(310.257 43.566)"><path d="M-81.1,247.9a30.1,30.1,0,0,0,.6,7.8,33.024,33.024,0,0,0-6.1-4.4c-3.2-1.8-7.2-3.6-8.5-1.3-1.3,2.2,2.4,5.1,5.4,6.8,3.2,1.8,5.1,2.1,7.1,2.9a50.9,50.9,0,0,0-6.8,3.3c-2.6,1.7-6.5,5.2-5.1,7.4,1.5,2.3,5.9-.3,8.3-1.9a34.35,34.35,0,0,0,5.8-4.7,58.991,58.991,0,0,0-.8,7.8c.1,3.7.6,7.8,3.3,7.8,2.8,0,3.4-4.9,3.4-8.2a33.039,33.039,0,0,0-.8-7.6,51.8,51.8,0,0,0,5.5,4.9c2,1.6,6.9,3.9,8.3,1.7,1.5-2.3-.8-4.5-5.1-7.2a37.3,37.3,0,0,0-7-3.3c2-.8,4.1-1,7.3-2.9,4.7-2.8,6.6-4.7,5.2-7.2-1.4-2.4-4.2-1.1-8.5,1.6a45,45,0,0,0-5.9,4.8,64.6,64.6,0,0,0,.7-7.8c0-3.5-.8-8.1-3.2-8.1-2.3,0-2.9,3.9-3.1,7.8Z" fill="#e9d315" stroke="#000" stroke-width="1.625"/><path d="M-74.1,259.7a3.8,3.8,0,0,1-3.8,3.8,3.8,3.8,0,0,1-3.8-3.8,3.8,3.8,0,0,1,3.8-3.8,3.864,3.864,0,0,1,3.8,3.8" fill="#fff" stroke="#000" stroke-miterlimit="2.676" stroke-width="1.868"/></g><g transform="translate(310.257 43.566)"><path d="M-31.9,247.9a30.1,30.1,0,0,0,.6,7.8,33.024,33.024,0,0,0-6.1-4.4c-3.2-1.8-7.2-3.6-8.5-1.3-1.3,2.2,2.4,5.1,5.4,6.8,3.2,1.8,5.1,2.1,7.1,2.9a50.9,50.9,0,0,0-6.8,3.3c-2.6,1.7-6.5,5.2-5.1,7.4,1.5,2.3,5.9-.3,8.3-1.9a34.35,34.35,0,0,0,5.8-4.7,58.991,58.991,0,0,0-.8,7.8c.1,3.7.6,7.8,3.3,7.8,2.8,0,3.4-4.9,3.4-8.2a33.039,33.039,0,0,0-.8-7.6,51.8,51.8,0,0,0,5.5,4.9c2,1.6,6.9,3.9,8.3,1.7,1.5-2.3-.8-4.5-5.1-7.2a37.3,37.3,0,0,0-7-3.3c2-.8,4.1-1,7.3-2.9,4.7-2.8,6.6-4.7,5.2-7.2-1.4-2.4-4.2-1.1-8.5,1.6a45,45,0,0,0-5.9,4.8,64.6,64.6,0,0,0,.7-7.8c0-3.5-.8-8.1-3.2-8.1s-3,3.9-3.1,7.8Z" fill="#e9d315" stroke="#000" stroke-width="1.625"/><path d="M-25,259.7a3.8,3.8,0,0,1-3.8,3.8,3.8,3.8,0,0,1-3.8-3.8,3.8,3.8,0,0,1,3.8-3.8,3.864,3.864,0,0,1,3.8,3.8" fill="#fff" stroke="#000" stroke-miterlimit="2.676" stroke-width="1.868"/></g></g></svg>