<svg xmlns="http://www.w3.org/2000/svg" width="512" height="335.455" viewBox="0 0 512 335.455"><g transform="translate(0 -88.272)"><path d="M170.667,423.721H8.828A8.829,8.829,0,0,1,0,414.893V97.1a8.829,8.829,0,0,1,8.828-8.828H170.667Z" fill="#73af00"/><rect width="170.67" height="335.45" transform="translate(170.67 88.277)" fill="#f5f5f5"/><path d="M503.172,423.721H341.333V88.273H503.172A8.829,8.829,0,0,1,512,97.1V414.894A8.827,8.827,0,0,1,503.172,423.721Z" fill="#ff4b55"/><path d="M271.225,263.893,256,271.507v7.613h7.613Z" fill="#ffd250"/><path d="M256,298.151a3.805,3.805,0,0,1-3.807-3.807V279.119a3.807,3.807,0,0,1,7.614,0v15.225A3.805,3.805,0,0,1,256,298.151Z" fill="#00c3a0"/><path d="M256,282.926a59.661,59.661,0,0,1-40.654-16.244,3.805,3.805,0,1,1,5.18-5.576,51.389,51.389,0,0,0,70.946,0,3.805,3.805,0,0,1,5.18,5.576A59.648,59.648,0,0,1,256,282.926Z" fill="#00c3a0"/><path d="M256,298.151a49.256,49.256,0,0,1-27.336-8.248l4.215-6.342a42.461,42.461,0,0,0,46.241,0l4.215,6.342A49.243,49.243,0,0,1,256,298.151Z" fill="#00aadc"/><path d="M249.973,246.764l-8.405,13.007-1.428,4.281,21.887-5.075Z" fill="#732d37"/><path d="M232.7,268.236c-10.062,0-22.14-8.468-25.344-27.336l7.509-1.271c2.662,15.69,12.314,21.005,18.11,20.991,1.777-.049,3.631-.662,3.777-1.918.171-1.5.212-1.858-3.769-3.2-2.164-.733-4.617-1.561-6.338-3.531-6.963-7.951,2.464-16.366,6.993-20.41.8-.714,1.13-1.32,1.045-1.55a4.07,4.07,0,0,0-3.427-1.635c-4.836,0-8.505-2.732-9.571-7.126a10.168,10.168,0,0,1,4.97-11.4l3.495,6.765a2.651,2.651,0,0,0-1.067,2.84c.093.394.32,1.312,2.175,1.312,4.661,0,9.1,2.751,10.538,6.535.617,1.613,1.546,5.806-3.085,9.943-5,4.465-7.992,7.825-6.334,9.717a10.727,10.727,0,0,0,3.048,1.331c3.427,1.16,9.806,3.316,8.892,11.289-.573,5.014-5.048,8.493-11.129,8.658C233.028,268.232,232.864,268.236,232.7,268.236Z" fill="#aad264"/><path d="M263.613,225.83S271.226,210.6,256,202.992c0,0,53.289-7.613,45.676,60.9l0,0c-5-4-12.414-11.3-15.063-17.126l-23-13.323V225.83Z" fill="#874150"/><path d="M256,241.055l38.063,22.838-15.225,7.613L256,248.669Z" fill="#732d37"/><path d="M240.775,218.217h0a7.614,7.614,0,0,1,7.613,7.613l-.008.008a14.921,14.921,0,0,0-2.795,17.224l1.72,3.441a14.924,14.924,0,0,0,2.795,3.878l21.127,21.127V260.987a84.421,84.421,0,0,0-8.913-37.757h0A22.84,22.84,0,0,0,241.887,210.6h-1.111v7.614h0v0Z" fill="#783c46"/><path d="M240.775,210.6l-7.613,7.613v7.613s9.056-4.591,12.108-6.054c2.133-1.022,1.745-3.439.521-4.6C244.838,214.266,240.775,210.6,240.775,210.6Z" fill="#ffd250"/><path d="M256,313.376a64.78,64.78,0,0,1-64.708-64.708H198.9a57.1,57.1,0,0,0,114.192,0h7.613A64.783,64.783,0,0,1,256,313.376Z" fill="#aad264"/><circle cx="5.166" cy="5.166" r="5.166" transform="translate(194.154 266.092)" fill="#ffe15a"/><circle cx="5.166" cy="5.166" r="5.166" transform="translate(205.574 284.331)" fill="#ffe15a"/><circle cx="5.166" cy="5.166" r="5.166" transform="translate(224.124 298.122)" fill="#ffe15a"/><circle cx="5.166" cy="5.166" r="5.166" transform="translate(308.064 266.092)" fill="#ffe15a"/><circle cx="5.166" cy="5.166" r="5.166" transform="translate(296.634 284.331)" fill="#ffe15a"/><circle cx="5.166" cy="5.166" r="5.166" transform="translate(278.084 298.122)" fill="#ffe15a"/><path d="M259.807,301.957h-7.613a7.614,7.614,0,0,1-7.613-7.613h0a7.614,7.614,0,0,1,7.613-7.613h7.613a7.614,7.614,0,0,1,7.613,7.613h0A7.613,7.613,0,0,1,259.807,301.957Z" fill="#ffb478"/><path d="M286.61,246.764c2.538,7.454,7.93,14.274,15.063,17.126l0,0c7.613-68.513-45.676-60.9-45.676-60.9C294.063,202.992,286.61,246.764,286.61,246.764Z" fill="#9b4b5a"/></g></svg>