<svg xmlns="http://www.w3.org/2000/svg" width="512" height="335.449" viewBox="0 0 512 335.449"><g transform="translate(0 -88.276)"><path d="M503.172,423.725H8.828A8.829,8.829,0,0,1,0,414.9V97.1a8.829,8.829,0,0,1,8.828-8.828H503.173A8.829,8.829,0,0,1,512,97.1V414.9A8.83,8.83,0,0,1,503.172,423.725Z" fill="#82afff"/><path d="M254.837,136.57l-6.8,20.392-21.495.167a1.227,1.227,0,0,0-.719,2.214l17.292,12.769-6.484,20.494a1.226,1.226,0,0,0,1.882,1.368L256,181.474l17.489,12.5a1.226,1.226,0,0,0,1.882-1.368l-6.484-20.494,17.292-12.769a1.227,1.227,0,0,0-.719-2.214l-21.495-.167-6.8-20.392A1.226,1.226,0,0,0,254.837,136.57Z" fill="#f5f5f5"/><path d="M254.837,318.633l-6.8,20.392-21.495.167a1.227,1.227,0,0,0-.719,2.214l17.292,12.769-6.484,20.494a1.226,1.226,0,0,0,1.882,1.368L256,363.537l17.489,12.5a1.226,1.226,0,0,0,1.882-1.368l-6.484-20.494,17.292-12.769a1.227,1.227,0,0,0-.719-2.214l-21.495-.167-6.8-20.392A1.226,1.226,0,0,0,254.837,318.633Z" fill="#f5f5f5"/><path d="M375.431,254.838l-20.392-6.8-.167-21.495a1.227,1.227,0,0,0-2.214-.719l-12.769,17.292L319.4,236.631a1.227,1.227,0,0,0-1.368,1.882L330.527,256l-12.5,17.489a1.226,1.226,0,0,0,1.368,1.882l20.494-6.484,12.769,17.292a1.227,1.227,0,0,0,2.214-.719l.167-21.495,20.392-6.8A1.226,1.226,0,0,0,375.431,254.838Z" fill="#f5f5f5"/><path d="M136.569,254.838l20.392-6.8.167-21.495a1.227,1.227,0,0,1,2.214-.719l12.769,17.292,20.494-6.484a1.226,1.226,0,0,1,1.368,1.882L181.473,256l12.5,17.489a1.226,1.226,0,0,1-1.368,1.882l-20.494-6.484L159.342,286.18a1.227,1.227,0,0,1-2.214-.719l-.167-21.495-20.392-6.8A1.227,1.227,0,0,1,136.569,254.838Z" fill="#f5f5f5"/></g></svg>