<svg xmlns="http://www.w3.org/2000/svg" width="512" height="335.454" viewBox="0 0 512 335.454"><g transform="translate(0 -88.273)"><path d="M341.333,88.273H503.172A8.829,8.829,0,0,1,512,97.1V414.894a8.829,8.829,0,0,1-8.828,8.828H341.333Z" fill="#ff4b55"/><rect width="170.67" height="335.45" transform="translate(170.67 88.277)" fill="#ffe15a"/><path d="M8.828,88.273H170.667V423.721H8.828A8.829,8.829,0,0,1,0,414.893V97.1A8.828,8.828,0,0,1,8.828,88.273Z" fill="#41479b"/><rect width="5.666" height="31.668" transform="translate(291.673 312.915) rotate(140.808)" fill="#ffcd5a"/><rect width="11.329" height="13.937" transform="translate(282.648 297.397) rotate(140.832)" fill="#ffbe5a"/><rect width="5.666" height="31.668" transform="translate(242.795 288.374) rotate(39.192)" fill="#ffcd5a"/><rect width="11.329" height="13.937" transform="translate(240.592 286.593) rotate(39.168)" fill="#ffbe5a"/><path d="M250.14,297.583,235.977,325.91,255.8,340.073V300.416Z" fill="#ffe15a"/><path d="M261.471,297.583l14.163,28.327L255.8,340.073V300.416Z" fill="#ffcd5a"/><path d="M216.148,297.583v-73.65h8.5v56.653C224.646,289.085,216.148,297.583,216.148,297.583Z" fill="#ffbe5a"/><path d="M210.482,311.747V223.933h8.5V294.75C218.979,303.248,210.482,311.747,210.482,311.747Z" fill="#ffcd5a"/><path d="M204.817,323.078V223.934h8.5v82.148C213.315,314.579,204.817,323.078,204.817,323.078Z" fill="#ffe15a"/><path d="M224.646,226.766v53.821c0,14.164,20.537,12.275,31.159,22.661,10.623-10.387,31.159-8.5,31.159-22.661V226.766Z" fill="#ff4b55"/><path d="M224.646,257.926v22.662c0,14.164,20.537,12.275,31.159,22.661,10.623-10.387,31.159-8.5,31.159-22.662V257.925Z" fill="#41479b"/><path d="M255.8,294.75l-8.5-5.665v-2.833l2.833-2.832v-17l-8.5-5.665,8.5-11.331h2.832l2.833,2.834,2.833-2.834h2.833l8.5,11.331-8.5,5.665v17l2.832,2.832v2.833Z" fill="#ffe15a"/><path d="M244.474,229.6s-11.33,2.833-11.33,14.164,11.33,17,11.33,17l5.665-8.5C233.143,246.6,244.474,229.6,244.474,229.6Z" fill="#ffe15a"/><path d="M267.136,229.6s11.33,2.833,11.33,14.164-11.33,17-11.33,17l-5.665-8.5C278.466,246.6,267.136,229.6,267.136,229.6Z" fill="#ffe15a"/><path d="M227.478,257.926l5.665,2.832,5.666-2.832-5.666-2.833Z" fill="#ffe15a"/><path d="M272.8,257.926l5.665,2.832,5.666-2.832-5.666-2.833Z" fill="#ffe15a"/><path d="M255.8,231.015l2.06,2.11,2.947-.036-.034,2.948,2.109,2.06-2.109,2.059.034,2.948-2.947-.035-2.06,2.11-2.059-2.11-2.949.035.036-2.948-2.109-2.059,2.109-2.06-.036-2.948,2.949.036Z" fill="#ffe15a"/><path d="M236.568,270.3l2.042,2.272,2.84-1.126a1.668,1.668,0,0,1,2.059,2.386l-1.529,2.645,1.949,2.354a1.669,1.669,0,0,1-1.633,2.7l-2.988-.638-1.636,2.581a1.669,1.669,0,0,1-3.069-.721l-.318-3.039-2.959-.758a1.668,1.668,0,0,1-.264-3.14l2.792-1.24-.193-3.049A1.669,1.669,0,0,1,236.568,270.3Z" fill="#ffe15a"/><path d="M274.3,276.755a7.294,7.294,0,0,1,6.382-5.847,7.229,7.229,0,0,0-2.057-.769,7.318,7.318,0,0,0-2.786,14.368,7.211,7.211,0,0,0,2.2.056A7.3,7.3,0,0,1,274.3,276.755Z" fill="#ffe15a"/><path d="M244.474,226.766l5.665-28.327-11.33-8.5,2.833-2.833h5.665s2.833-2.833,8.5-2.833,11.33,2.833,11.33,11.33,2.833,31.159,2.833,31.159H244.474v0Z" fill="#ffe15a"/><path d="M224.646,215.435a11.33,11.33,0,0,0-11.33,11.33h22.662A11.333,11.333,0,0,0,224.646,215.435Z" fill="#ffaa5a"/><path d="M221.813,226.766h-17V207.911a6.639,6.639,0,0,1,6.639-6.639h3.718a6.639,6.639,0,0,1,6.639,6.639v18.855Z" fill="#ffbe5a"/><path d="M295.463,297.583v-73.65h-8.5v56.653C286.965,289.085,295.463,297.583,295.463,297.583Z" fill="#ffbe5a"/><path d="M301.128,311.747V223.933h-8.5V294.75C292.63,303.248,301.128,311.747,301.128,311.747Z" fill="#ffcd5a"/><path d="M306.794,323.078V223.934h-8.5v82.148C298.3,314.579,306.794,323.078,306.794,323.078Z" fill="#ffe15a"/><path d="M286.965,215.435a11.33,11.33,0,0,1,11.33,11.33H275.633A11.332,11.332,0,0,1,286.965,215.435Z" fill="#ffaa5a"/><path d="M289.8,226.766h17V207.911a6.639,6.639,0,0,0-6.639-6.639h-3.717a6.639,6.639,0,0,0-6.639,6.639v18.855Z" fill="#ffbe5a"/><rect width="4.249" height="76.27" transform="translate(318.97 256.821) rotate(31.339)" fill="#ffaa5a"/><rect width="11.331" height="8.861" transform="translate(295.078 311.573) rotate(128.638)" fill="#ffe15a"/><rect width="7.082" height="16.344" transform="matrix(0.854, 0.52, -0.52, 0.854, 317.717, 256.084)" fill="#ffcd5a"/><rect width="73.65" height="2.833" transform="translate(194.253 260.052) rotate(57.119)" fill="#73af00"/><path d="M219.413,289.383a8.554,8.554,0,0,0-1.86,4.913,8.519,8.519,0,0,0-4.495-2.549,8.509,8.509,0,0,0,.479,5.145,8.545,8.545,0,0,0-5.242-.321,10.771,10.771,0,0,0,12.163,7.257l.582-.376a10.765,10.765,0,0,0-1.627-14.069Z" fill="#73af00"/><circle cx="2.833" cy="2.833" r="2.833" transform="translate(217.917 300.814)" fill="#ff4b55"/><path d="M208.648,272.731a8.554,8.554,0,0,0-1.86,4.913,8.519,8.519,0,0,0-4.495-2.549,8.509,8.509,0,0,0,.479,5.145,8.545,8.545,0,0,0-5.242-.321,10.771,10.771,0,0,0,12.163,7.257l.582-.376a10.765,10.765,0,0,0-1.627-14.069Z" fill="#73af00"/><circle cx="2.833" cy="2.833" r="2.833" transform="translate(207.157 284.164)" fill="#ff4b55"/><path d="M197.884,256.079a8.554,8.554,0,0,0-1.86,4.913,8.519,8.519,0,0,0-4.495-2.549,8.509,8.509,0,0,0,.479,5.145,8.545,8.545,0,0,0-5.242-.321,10.771,10.771,0,0,0,12.163,7.257l.582-.376a10.765,10.765,0,0,0-1.627-14.069Z" fill="#73af00"/><circle cx="2.833" cy="2.833" r="2.833" transform="translate(196.387 267.514)" fill="#ff4b55"/><rect width="11.331" height="8.861" transform="translate(226.293 306.052) rotate(51.362)" fill="#ffe15a"/><rect width="2.833" height="19.829" transform="translate(238.81 178.617)" fill="#ffe15a"/><rect width="8.498" height="2.833" transform="translate(235.97 181.447)" fill="#ffe15a"/><path d="M238.809,189.941l8.5,6.374v-9.206h-5.665Z" fill="#ff875a"/><path d="M241.642,178.61v2.833h2.833v2.833h-2.833v2.833h5.665s2.833-2.833,8.5-2.833,11.33,2.833,11.33,11.33,2.833,31.159,2.833,31.159h5.665a11.33,11.33,0,0,1,11.33-11.33,11.188,11.188,0,0,1,2.833.4V209.77a8.5,8.5,0,1,1,17,0v67.023l3.658-6.009-1.209-.736,8.5-13.962,1.209.736h0l1.815,1.106,3.025,1.841-8.5,13.962-1.21-.736-7.288,11.974v38.113s-6.764-6.783-8.212-14.287a36.961,36.961,0,0,1-3.276-4.952l-3.242,5.326,3.014,2.409L288,320.429l-1.879-1.5-3.2,5.261-3.629-2.21,3.485-5.726-1.692-1.353,2.409-3.015-7.433-9.116-2.2,1.79-6.609-8.11a53.88,53.88,0,0,0-5.171,2.372l13.547,27.1L255.8,340.079l-19.829-14.164,13.547-27.1c-1-.531-2.016-1.034-3.055-1.492l-5.891,7.23-2.2-1.79-7.433,9.116,2.409,3.015-2.406,1.923,3.288,5.086-2.379,1.538-3.133-4.846-2.287,1.828-7.075-8.851,3.179-2.541-1.685-2.607-.119,0a2.714,2.714,0,0,1-2.781-2.383,9.436,9.436,0,0,1-1.635-.242,36.945,36.945,0,0,1-3.294,4.989c-1.447,7.505-8.212,14.287-8.212,14.287V286.947a11.866,11.866,0,0,1-2.568-1.118,9.632,9.632,0,0,1-4.721-5.909,6.658,6.658,0,0,1,1.961-.276,9.992,9.992,0,0,1,3.282.6,10.074,10.074,0,0,1-.655-2.81l-2.786-4.31-.119,0a2.717,2.717,0,0,1-2.782-2.383,10.976,10.976,0,0,1-4.943-1.562,9.632,9.632,0,0,1-4.721-5.909,6.663,6.663,0,0,1,1.961-.276,9.966,9.966,0,0,1,3.282.6,8.509,8.509,0,0,1-.479-5.145,8.519,8.519,0,0,1,4.495,2.549,8.56,8.56,0,0,1,1.859-4.913,9.626,9.626,0,0,1,3.45,6.731,10.952,10.952,0,0,1-.6,5.15,2.722,2.722,0,0,1,.98,3.623l2.786,4.31c.108.06.214.132.322.2V209.773a8.5,8.5,0,0,1,17,0v6.066a11.192,11.192,0,0,1,14.163,10.929h8.5l5.665-28.327-2.833-2.124-5.665-4.249v6.374H238.8V184.278H235.97v-2.833H238.8v-2.833h2.844m45.467,128.741,1.046-1.309.557.445,4.566-7.5a15.411,15.411,0,0,1-.653-4.237v-.5c-2.472-3.252-5.665-8.455-5.665-13.666,0,5.966-3.662,9.074-8.674,11.462l4.36,5.351-2.2,1.788,6.658,8.165m-62.345-.1,1.514-1.21,1.046,1.309,6.658-8.167-2.2-1.788,3.6-4.424c-6.051-2.527-10.752-5.623-10.752-12.387,0,3.793-1.693,7.578-3.567,10.616a11.28,11.28,0,0,1,1.18,10.06,2.722,2.722,0,0,1,.98,3.623l1.531,2.368m16.873-130.767h-2.833a2.124,2.124,0,0,0-2.124,2.124v.708h-.708a2.124,2.124,0,0,0-2.124,2.124v2.833a2.124,2.124,0,0,0,2.124,2.124h.708v12.039a2.124,2.124,0,0,0,2.124,2.124h2.833a2.124,2.124,0,0,0,2.124-2.124v-2.124l2.266,1.7,1.761,1.321-5.062,25.306h-4.8a13.477,13.477,0,0,0-13.288-11.33c-.235,0-.47.008-.708.022v-3.563a10.623,10.623,0,0,0-21.246,0v49.575a10.446,10.446,0,0,0-3.577-5,2.122,2.122,0,0,0-2.824.325,9.016,9.016,0,0,0-1.593,2.667,8.974,8.974,0,0,0-2.831-1,2.057,2.057,0,0,0-.339-.028,2.125,2.125,0,0,0-2.049,1.571,8.956,8.956,0,0,0-.254,2.989q-.251-.012-.5-.012a8.774,8.774,0,0,0-2.588.371,2.126,2.126,0,0,0-1.458,2.442A11.711,11.711,0,0,0,190.4,271a13.389,13.389,0,0,0,4.457,1.685q.093.176.2.342a4.852,4.852,0,0,0,3.042,2.1l1.548,2.395h-.154a8.774,8.774,0,0,0-2.588.371,2.126,2.126,0,0,0-1.458,2.442,11.711,11.711,0,0,0,5.716,7.321,12.478,12.478,0,0,0,1.532.776v34.648a2.124,2.124,0,0,0,3.629,1.5c.289-.289,6.952-7.042,8.689-14.879q1.071-1.408,1.974-2.834a4.887,4.887,0,0,0,2.643,1.565l.092.141-1.678,1.342a2.126,2.126,0,0,0-.333,2.987l7.075,8.851a2.124,2.124,0,0,0,1.425.785,2.056,2.056,0,0,0,.235.013,2.119,2.119,0,0,0,1.326-.465l.452-.361,1.857,2.873a2.123,2.123,0,0,0,2.937.63l1.374-.888-.311.623a2.125,2.125,0,0,0,.665,2.679L254.571,341.8a2.124,2.124,0,0,0,2.47,0l19.829-14.164a2.123,2.123,0,0,0,.665-2.679l-12.6-25.2q.8-.378,1.674-.753l5.609,6.883a2.125,2.125,0,0,0,2.99.3l.551-.448,5.006,6.14-1.338,1.674a2.126,2.126,0,0,0,.333,2.987l.232.185-2.514,4.129a2.125,2.125,0,0,0,.71,2.919l3.629,2.21a2.126,2.126,0,0,0,1.106.31,2.083,2.083,0,0,0,.5-.061,2.128,2.128,0,0,0,1.313-.96l1.947-3.2a2.125,2.125,0,0,0,2.979-.339l7.075-8.851a2.122,2.122,0,0,0,.452-1.09c2.308,6.9,7.838,12.506,8.1,12.769a2.124,2.124,0,0,0,3.629-1.5V285.553l5.937-9.752a2.127,2.127,0,0,0,2.252-.976l8.5-13.962a2.126,2.126,0,0,0-.711-2.92l-3.025-1.841L320.06,255l-1.212-.737a2.122,2.122,0,0,0-2.917.712l-7.007,11.512V209.767a10.623,10.623,0,1,0-21.246,0v3.563c-.237-.014-.473-.022-.708-.022a13.477,13.477,0,0,0-13.288,11.33h-1.827c-.67-5.577-2.59-22.173-2.59-29.035,0-9.92-6.951-13.455-13.455-13.455a15.372,15.372,0,0,0-9.258,2.833h-.07a2.131,2.131,0,0,0,.121-.708V181.44a2.124,2.124,0,0,0-2.124-2.124h-.708v-.708a2.131,2.131,0,0,0-2.129-2.122ZM223.55,291.2a30.644,30.644,0,0,0,1.426-2.831,19.023,19.023,0,0,0,7.031,5.4l-1.86,2.283a2.124,2.124,0,0,0,.3,2.989l.546.446-3.785,4.642a2.126,2.126,0,0,0-.7-.2,2.069,2.069,0,0,0-.235-.013,2.134,2.134,0,0,0-.621.093,4.82,4.82,0,0,0-.751-3.062c-.072-.111-.149-.22-.23-.324a13.557,13.557,0,0,0-1.13-9.426Zm58.029,1.523a16.568,16.568,0,0,0,5.066-4.33,35.12,35.12,0,0,0,3.861,6.569,16.691,16.691,0,0,0,.491,3.694l-3.225,5.3a2.085,2.085,0,0,0-.543.179l-3.785-4.642.546-.446a2.124,2.124,0,0,0,.3-2.989l-2.715-3.334Zm-41,13.956a2.124,2.124,0,0,0,1.649-.782l3.583-4.4-9.7,19.394c-.026-.049-.055-.1-.086-.145l-2.244-3.473.9-.724a2.125,2.125,0,0,0,.333-2.986l-1.338-1.674,5.006-6.141.551.448a2.088,2.088,0,0,0,1.338.479Zm54.274,1.993.462-.76q.609.9,1.288,1.788c.04.179.082.356.127.534a2.127,2.127,0,0,0-.323-.32l-1.554-1.242Z" fill="#ffaa5a"/></g></svg>