<svg xmlns="http://www.w3.org/2000/svg" width="512" height="335.454" viewBox="0 0 512 335.454"><g transform="translate(0 -88.273)"><path d="M341.333,88.273H503.172A8.829,8.829,0,0,1,512,97.1V414.894a8.829,8.829,0,0,1-8.828,8.828H341.333Z" fill="#ff4b55"/><rect width="170.67" height="335.45" transform="translate(170.67 88.277)" fill="#41479b"/><path d="M8.828,88.273H170.667V423.721H8.828A8.829,8.829,0,0,1,0,414.893V97.1A8.828,8.828,0,0,1,8.828,88.273Z" fill="#ff4b55"/><path d="M85.689,227.025a32.556,32.556,0,0,1-29.814-19.519c0,.175-.052.338-.052.513a29.865,29.865,0,1,0,59.731,0c0-.175-.049-.338-.052-.512A32.556,32.556,0,0,1,85.689,227.025Z" fill="#f9cf02"/><circle cx="21.72" cy="21.72" r="21.72" transform="translate(63.97 178.157)" fill="#f9cf02"/><path d="M72.114,159.15a13.575,13.575,0,0,0,27.15,0c0-5.43-3.394-6.109-3.394-8.145s2.036-4.751-2.036-8.145c2.036,3.394-1.357,4.073-1.357,7.466s1.357,3.394,1.357,6.109a2.714,2.714,0,1,1-5.428,0c0-2.714,2.714-5.43,2.714-9.5s-.679-5.43-2.714-8.824-5.43-6.109-2.714-8.824c-4.073,1.357-2.036,6.787-2.036,10.182s-2.714,5.43-2.714,9.5,2.036,4.751,2.036,7.466a2.714,2.714,0,1,1-5.428,0c0-2.714,1.357-2.714,1.357-6.109s-3.394-4.073-1.357-7.466c-4.073,3.394-2.036,6.109-2.036,8.145S72.114,153.719,72.114,159.15Z" fill="#f9cf02"/><path d="M25.959,245.557V371.4a2.241,2.241,0,0,0,2.241,2.241H50.867a2.241,2.241,0,0,0,2.241-2.241V245.557a2.241,2.241,0,0,0-2.241-2.241H28.2A2.241,2.241,0,0,0,25.959,245.557Z" fill="#f9cf02"/><path d="M118.27,245.557V371.4a2.241,2.241,0,0,0,2.241,2.241h22.667a2.241,2.241,0,0,0,2.241-2.241V245.557a2.241,2.241,0,0,0-2.241-2.241H120.511A2.24,2.24,0,0,0,118.27,245.557Z" fill="#f9cf02"/><path d="M58.539,267.276v6.377a2.241,2.241,0,0,0,2.241,2.241H110.6a2.241,2.241,0,0,0,2.241-2.241v-6.377a2.241,2.241,0,0,0-2.241-2.241H60.78A2.241,2.241,0,0,0,58.539,267.276Z" fill="#f9cf02"/><path d="M58.539,343.3v6.377a2.241,2.241,0,0,0,2.241,2.241H110.6a2.241,2.241,0,0,0,2.241-2.241V343.3a2.241,2.241,0,0,0-2.241-2.241H60.78A2.241,2.241,0,0,0,58.539,343.3Z" fill="#f9cf02"/><path d="M62.585,243.315h46.208a1.121,1.121,0,0,1,.577,2.082L87.42,258.568a3.36,3.36,0,0,1-3.459,0L62.009,245.4A1.121,1.121,0,0,1,62.585,243.315Z" fill="#f9cf02"/><path d="M62.585,357.347h46.208a1.121,1.121,0,0,1,.577,2.082L87.418,372.6a3.36,3.36,0,0,1-3.459,0L62.008,359.428A1.121,1.121,0,0,1,62.585,357.347Z" fill="#f9cf02"/><path d="M88.341,281.537c-.856-.082-1.685-.259-2.562-.259a26.97,26.97,0,0,0-16.135,48.661.93.93,0,0,0,1.4-1.127,15.656,15.656,0,0,1-1.239-6.106,15.993,15.993,0,0,1,16.026-15.975,12.172,12.172,0,0,0,11.149-6.443C101.228,291.677,96.041,283.118,88.341,281.537ZM85.779,299.42A5.415,5.415,0,1,1,91.194,294,5.416,5.416,0,0,1,85.779,299.42Z" fill="#f9cf02"/><path d="M101.912,286.772a.93.93,0,0,0-1.4,1.127A15.637,15.637,0,0,1,101.754,294,15.994,15.994,0,0,1,85.728,309.98a12.171,12.171,0,0,0-11.149,6.443c-4.249,8.612.938,17.172,8.638,18.751.856.082,1.685.259,2.562.259a26.969,26.969,0,0,0,16.133-48.661Zm-16.133,41.35a5.415,5.415,0,1,1,5.415-5.416A5.416,5.416,0,0,1,85.779,328.122Z" fill="#f9cf02"/></g></svg>