<svg xmlns="http://www.w3.org/2000/svg" width="512" height="335.449" viewBox="0 0 512 335.449"><g transform="translate(0 -88.276)"><path d="M503.172,423.725H8.828A8.829,8.829,0,0,1,0,414.9V97.1a8.829,8.829,0,0,1,8.828-8.828H503.173A8.829,8.829,0,0,1,512,97.1V414.9A8.83,8.83,0,0,1,503.172,423.725Z" fill="#41479b"/><path d="M247.172,88.277H231.838l-81.77,53.574V88.277H105.93v53.574L24.16,88.277H8.828A8.828,8.828,0,0,0,0,97.1v7l70.155,45.963H0v44.138H70.155L0,240.171v7A8.829,8.829,0,0,0,8.828,256H24.162l81.77-53.574V256H150.07V202.427L231.839,256h15.334A8.829,8.829,0,0,0,256,247.173v-7l-70.155-45.963H256V150.07H185.845L256,104.107v-7A8.828,8.828,0,0,0,247.172,88.277Z" fill="#f5f5f5"/><path d="M256,158.9H141.241V88.277H114.759V158.9H0V185.38H114.759V256h26.482V185.38H256Z" fill="#ff4b55"/><path d="M97.1,150.07l-92.9-60.3A8.684,8.684,0,0,0,0,97.1v.458L80.889,150.07H97.1Z" fill="#ff4b55"/><path d="M166.283,150.07,254.657,92.7a8.7,8.7,0,0,0-7.485-4.427h-1.909L150.069,150.07Z" fill="#ff4b55"/><path d="M89.474,194.208l-88.2,57.256A8.717,8.717,0,0,0,8.828,256h1.665l95.2-61.793H89.474Z" fill="#ff4b55"/><path d="M255.86,247.866l-82.666-53.658H156.98l93.874,60.935A8.741,8.741,0,0,0,255.86,247.866Z" fill="#ff4b55"/><rect width="117.27" height="90.63" transform="translate(325.36 187.241)" fill="#82afff"/><path d="M325.362,277.869c0,30.913,34.649,55.972,58.638,55.972h0c21.323,0,58.638-25.06,58.638-55.972H325.362Z" fill="#c86464"/><path d="M399.659,220.342c1.888.333,5.109.778,5.442,5.331s-1.333,20.768-3,22.766c0,0,5.442,12.328,5.664,19.657s-.777,29.263-.111,32.761a109.274,109.274,0,0,0,3.165,10.662s-7.663-4.5-10.661-1.666-13.993,6.664-18.325,2.166A105.905,105.905,0,0,0,387,280.7V222.9a9.18,9.18,0,0,1,5-1.777C394.828,221.064,399.659,220.342,399.659,220.342Z" fill="#73af00"/><path d="M400.769,308.41c.333,2.11,1.221,3.665.777,4.442s-3.331,7.885-1.666,7.885,4.553-.888,5.331-2.443,1.11-3.887,1.555-4.553-.778-4-1.777-4.553A16.258,16.258,0,0,0,400.769,308.41Z" fill="#fff5e1"/><path d="M381.557,225.006l-6.108.778a56.373,56.373,0,0,0,.888-6.775c.111-2.776.333-7.885.333-7.885s4.331-2.665,4.442-3.11c.055-.222.569-1.61.167-2.332s-1.721-.778-1.721-.778-5.109,2.665-5.109,3.11,0,3.11-.555,4.109-3.665,9.329-3.887,11.55-.555,6.886.333,7.108,10.106,1.222,11.106.777S381.557,225.006,381.557,225.006Z" fill="#fff5e1"/><path d="M409.229,203.072H387v-10.5h-7.662v10.5H357.105v7.663h22.231V311.52H387V210.735h22.231Z" fill="#464655"/><path d="M396.105,216.676s7.441,2.143,8.44-.333c1.166-2.888-2.721-3.276-3.443-6.33-.081-.342-.777-4.442-3.776-5.219s-5.775,0-5.886,2S396.105,216.676,396.105,216.676Z" fill="#963c3c"/><path d="M392.107,226.116c-.22.036-.555-2.221-.111-5s0-3.665,0-3.665-3.109.333-3.109-.888.666-6.886,2.554-9.773a5.063,5.063,0,0,0,3.776,1.666,4.794,4.794,0,0,0,1.222,3.331s-1.666,1.443-.888,2.443a19.1,19.1,0,0,0,2.221,2.221,6.033,6.033,0,0,0,1.888,3.887A10.832,10.832,0,0,1,392.107,226.116Z" fill="#fff5e1"/><rect width="0.666" height="13.215" transform="translate(361.68 274.321)" fill="#464655"/><rect width="0.666" height="18.333" transform="translate(364.36 271.761)" fill="#464655"/><rect width="0.666" height="23.01" transform="translate(367.04 269.421)" fill="#464655"/><rect width="0.666" height="29.688" transform="translate(369.72 266.071)" fill="#464655"/><rect width="0.666" height="38.424" transform="translate(372.4 261.701)" fill="#464655"/><rect width="0.666" height="40.22" transform="translate(375.08 261.701)" fill="#464655"/><path d="M387.109,282.755C384.164,267.44,376,258.544,373.116,258.1a4.66,4.66,0,0,0-5.219,3.554c-.222,1.666-1.777,6.664-5,8.995s-9.218,3.665-10.55,8,2.221,6.219,4.331,5.774a4.477,4.477,0,0,0,.471-.147l22.7,27.927a1.8,1.8,0,0,0,3.005-.327C385.192,307.105,389.621,295.813,387.109,282.755Zm-28.052.31a2.7,2.7,0,0,0,.289-3.641c-1.666-2.333-3.554,1-3.554,1s-.555-2.888,3.776-4.331,9.218-3.886,11.439-9.107,2.11-4.221,2.11-4.221,8.885,5,10.106,20.657-3.109,21.99-3.109,21.99Z" fill="#ffe15a"/><path d="M379.336,249.25c-1.02.652-1.939,1.214-2.582,1.549-2.082,1.082-4.582,2.166-4.831,3.165s-1.666,1.833-1.582,3,0,4.664,0,4.664c1.249-.249,3.748-.667,4.582-2.166s1.582-4.415,4.248-5.664c.047-.022.117-.045.167-.067V249.25Z" fill="#fff5e1"/><path d="M401.408,227.977c-1.249.583-5,5.081-5.58,7.164s-2.415,7-2.415,7A21.154,21.154,0,0,0,387,244.1v7.274a20.668,20.668,0,0,0,3.5-1.242c2.166-1.166,5.247-3.331,6.83-3.748s2.915-3.082,3.5-4.664,2.415-6.247,2.665-9.412S402.657,227.394,401.408,227.977Z" fill="#fff5e1"/><path d="M384,335.732l-.291-.046c-59.529-9.4-60.213-60.958-60.213-63.146V185.381H444.505v87.158c0,2.189-.684,53.747-60.213,63.146ZM327.229,189.113v83.425c0,2.057.644,50.387,56.771,59.414,56.128-9.027,56.771-57.357,56.771-59.414V189.113Z" fill="#f5f5f5"/></g></svg>