<svg xmlns="http://www.w3.org/2000/svg" width="512" height="335.448" viewBox="0 0 512 335.448"><g transform="translate(0 -88.276)"><rect width="476.69" height="300.14" transform="translate(17.655 105.93)" fill="#c8414b"/><path d="M503.172,88.276H8.828A8.828,8.828,0,0,0,0,97.1V414.9a8.829,8.829,0,0,0,8.828,8.828H503.173A8.829,8.829,0,0,0,512,414.9V97.1A8.829,8.829,0,0,0,503.172,88.276Zm-8.827,317.793H17.655V105.931h476.69Z" fill="#e6b432"/><circle cx="13.433" cy="13.433" r="13.433" transform="translate(314.997 297.937)" fill="#41479b"/><path d="M352,234.242c-9.886,8.311-16.535,8.661-16.535,8.661,17.586-7.174,15.748-20.822,15.748-20.822-8.311,10.936-16.8,14-16.8,14,17.673-11.986,14.873-28.084,14.873-28.084-5.774,12.774-13.079,17.76-13.079,17.76,14.7-19.554,7.48-32.152,7.48-32.152-5.774,18.11-10.63,23.36-10.63,23.36,11.286-30.184,1.619-38.889,1.619-38.889,0,16.185-6.037,25.459-6.037,25.459,6.3-21.347-3.587-33.6-3.587-33.6s-.093,17.4-3.445,26.52c-.8-1.222-1.28-1.06-1.28-1.06a44.586,44.586,0,0,1-10.306,22.01,5.121,5.121,0,0,0-2.308-3.639,18.657,18.657,0,0,1-2.766,6.769c-1.608,2.643-9.2,8.806-10.429,14.23-.982,4.349,3.325,7.961,4.724,8.836a4.417,4.417,0,0,1,2.274,4.986c-.612,2.537-5.162,2.274-8.4,2.187s-3.674,5.249-7.262,5.075l-.608,3.98-1.4.307s-14.7,29.289-15.949,39.255l-10.823,1.427-10.823-1.427C245,289.427,230.3,260.138,230.3,260.138l-1.4-.307-.608-3.98c-3.587.175-4.024-5.162-7.262-5.075s-7.787.35-8.4-2.187A4.418,4.418,0,0,1,214.9,243.6c1.4-.875,5.707-4.488,4.724-8.836-1.225-5.425-8.821-11.587-10.429-14.23a18.65,18.65,0,0,1-2.766-6.769,5.121,5.121,0,0,0-2.308,3.639,44.606,44.606,0,0,1-10.305-22.01s-.476-.161-1.28,1.06c-3.352-9.117-3.445-26.52-3.445-26.52s-9.886,12.248-3.587,33.6c0,0-6.037-9.273-6.037-25.459,0,0-9.667,8.705,1.619,38.889,0,0-4.855-5.249-10.63-23.36,0,0-7.218,12.6,7.48,32.152,0,0-7.3-4.986-13.079-17.76,0,0-2.8,16.1,14.873,28.084,0,0-8.487-3.062-16.8-14,0,0-1.837,13.649,15.748,20.822,0,0-6.649-.35-16.535-8.661,0,0-1.75,12.074,21.172,18.285a38.724,38.724,0,0,1-18.9-6.562s-.263,11.9,19.335,14.261a31.155,31.155,0,0,1-13.736-1.662s.263,9.623,17.323,10.848c0,0-6.737.525-11.111-.525,0,0,.437,9.886,13.911,8.224,0,0-4.55,1.487-6.037,1.924,0,0,.263,8.071,14.3,5.184A17.285,17.285,0,0,1,192.5,286.3s2.887,6.737,14.611,3.762l-2.406,2.625s9.055,5.249,16.01-1.969l-2.494,4.462a8.092,8.092,0,0,0,9.58-3.543s-1.006,8.661-13.255,10.237a9.615,9.615,0,0,0,.962,2.537s-.788,1.487-7.874,2.712A9.521,9.521,0,0,0,210.7,310.1s-3.062,2.625-4.724,3.149a19.815,19.815,0,0,0,4.287,1.575s-3.674,3.587-8.224,3.674-12.685-.438-12.685-.438a19.655,19.655,0,0,0-2.187-8.137c-2.1-3.762-2.8-4.046-2.8-4.046s.459-3.018-.853-4.265-2.034-1.837-2.034-1.837.7-6.037-1.225-9.8-8.749-11.986-9.1-18.11a57.6,57.6,0,0,1-.087-8.4l-2.1.525-1.4-2.887,2.362-.263-.962-4.374-3.238,1.225-.438-3.762-3.849,1.575,1.924,3.412-3.412.962,2.013,4.024,2.625-1.662.7,3.5a4.256,4.256,0,0,0-2.45,1.75s4.329,2.873,5.6,6.3c2.013,5.425,1.4,17.673,4.287,21.347s5.162,6.211,5.162,6.211-.809,2.494.109,3.871a4.547,4.547,0,0,0,2.231,1.772s-.788,5.578,1.247,9.252,3.215,4.594,3.215,4.594-7.415,4.527-2.165,9.777a5.279,5.279,0,0,0,4.287,5.906s.263,3.762,4.55,3.325c0,0,2.1-.612,2.625.438s0,7.086,0,7.086a7.532,7.532,0,0,0,3.149-1.049l3.849,1.924.087-4.287,4.812-1.924s-2.1.35-6.387-3.674c0,0,.7-.438,1.225-3.85,0,0,3.412-2.712,4.113-4.9s5.512-7,11.111-8.574l.766,3.412s8.006-7.086,11.351-7.48l2.756,3.63s10.324-15.31,14.873-18.023c-.35,1.225,2.187,1.4-3.456,7.7s-2.144,11.286-2.144,11.286c-3.5,2.887-2.8,5.512-3.238,8.487s-12.074,10.674-12.074,10.674c3.674,4.637,7.787,3.587,7.787,3.587-2.275,1.487-1.575,6.474-1.575,6.474a11.258,11.258,0,0,0,6.649-.612,5.715,5.715,0,0,0,.612,5.336c2.1-1.312,6.912-2.1,6.912-2.1a9.635,9.635,0,0,0,2.887,8.311l3.062-3.325c.525,6.124,5.95,9.624,5.95,9.624s5.425-3.5,5.95-9.624l3.062,3.325a9.633,9.633,0,0,0,2.887-8.311s4.812.788,6.912,2.1a5.715,5.715,0,0,0,.612-5.336,11.26,11.26,0,0,0,6.649.612s.7-4.987-1.575-6.474c0,0,4.113,1.049,7.787-3.587,0,0-11.636-7.7-12.074-10.674s.263-5.6-3.238-8.487c0,0,3.5-4.987-2.144-11.286s-3.106-6.475-3.456-7.7c4.55,2.712,14.873,18.023,14.873,18.023l2.756-3.63c3.347.394,11.351,7.48,11.351,7.48l.766-3.412.145-.158c4.174,2.248,11.068,5.288,13.854,7.418,2.975,2.275,5.425,2.45,12.6,0s20.522-6.217,18.548-10.674a4.49,4.49,0,0,0-.348-.6,4.539,4.539,0,0,0-1.665-4.916s.025.489.008,1.117l-6.839-2.549a3.769,3.769,0,0,0-1.217-1.717,9.073,9.073,0,0,1-.084,1.233l-1.754-.654,3.5-9.849c-.265-.148-.563-.231-.838-.361a30.2,30.2,0,0,1,.5-3.414,7.38,7.38,0,0,1,2.2,1.131l.988-3.606a23.179,23.179,0,0,1-2.464-.332,9.073,9.073,0,0,1,1.273-2.7l-4.637-1.4a26.7,26.7,0,0,1,.038,3.158,8.789,8.789,0,0,1-2.411-1.4l-1.087,4a30.131,30.131,0,0,1,3.106.393,6.949,6.949,0,0,1-1.4,3c-.165-.022-.318-.082-.486-.1l-3.4,9.565-9.22-3.436a12.923,12.923,0,0,0-.985,1.986,2.261,2.261,0,0,1,.145-.319s-3.567,1.866-3.518,4.607a2.624,2.624,0,0,0-1.558,1.6c-1.049,2.756,5.38,8.924,3.806,9.711-1.546.772-9.623-5.88-10.918-7a20.837,20.837,0,0,0,4.094-1.533c-1.663-.525-4.724-3.149-4.724-3.149a9.51,9.51,0,0,0,3.062-2.975c-7.086-1.225-7.874-2.712-7.874-2.712a9.616,9.616,0,0,0,.962-2.537c-12.248-1.575-13.255-10.237-13.255-10.237a8.092,8.092,0,0,0,9.58,3.543l-2.494-4.462c6.955,7.218,16.01,1.969,16.01,1.969l-2.406-2.625c11.723,2.975,14.611-3.762,14.611-3.762a17.285,17.285,0,0,1-5.906-2.078c14.042,2.887,14.3-5.184,14.3-5.184-1.487-.438-6.037-1.924-6.037-1.924,13.473,1.663,13.911-8.224,13.911-8.224-4.374,1.049-11.111.525-11.111.525,17.06-1.225,17.323-10.848,17.323-10.848a31.137,31.137,0,0,1-13.736,1.662c19.6-2.362,19.335-14.261,19.335-14.261a38.724,38.724,0,0,1-18.9,6.562C353.753,246.315,352,234.242,352,234.242ZM332.121,320.79c-.935-1.518,1.293-2.876,2.3-4.321l3.878,1.444C336.978,319.484,333.085,322.355,332.121,320.79Zm-2.591-6.142c-1.258,1.949-2.133,4.135-6.005,4.239-4.855.131-5.643-4.2-6.692-6.562a3.469,3.469,0,0,0-1.44-1.566c0-.424.02-.889.057-1.359Z" fill="#e6b432"/><path d="M255.635,222.212s-6.233-5.315-8.071-8.2a9.115,9.115,0,0,0,3.149-2.165s-5.643-3.018-8.661-6.1a8.287,8.287,0,0,0,3.478-1.575s-5.068-.916-7.638-5.066a5.711,5.711,0,0,0,3.9-7.467c-1.181,1.575-6.037,3.543-11.286,1.312s-11.023-.657-11.023,2.231c0,0-11.811-3.412-8.858,8.006,0,0,1.9-4.265,6.1-2.69s8.465,6.955,8.465,6.955-2.625,1.443-7.48-.131c0,0,1.969,7.545,10.827,3.74,0,0,3.5,1.881,3.674,7.393a6.743,6.743,0,0,0,2.45-2.537s1.4,5.336-.437,9.711c0,0,2.45-.437,3.238-1.225a11.709,11.709,0,0,1-2.362,8.4s13.451,6.409,21.982-.612c0,0-3.215-3.674-4.265-7.086A6.1,6.1,0,0,0,255.635,222.212Z" fill="#e6b432"/><path d="M294.677,195.178c0-2.887-5.774-4.462-11.023-2.231s-10.105.263-11.286-1.312a5.71,5.71,0,0,0,3.9,7.467c-2.57,4.15-7.638,5.066-7.638,5.066a8.292,8.292,0,0,0,3.478,1.575c-3.018,3.084-8.661,6.1-8.661,6.1a9.115,9.115,0,0,0,3.149,2.165c-1.837,2.887-8.071,8.2-8.071,8.2a6.044,6.044,0,0,0,2.822,2.887c-1.049,3.412-4.265,7.086-4.265,7.086,8.53,7.021,21.982.612,21.982.612a11.709,11.709,0,0,1-2.362-8.4c.788.788,3.238,1.225,3.238,1.225-1.837-4.374-.437-9.711-.437-9.711a6.725,6.725,0,0,0,2.45,2.537c.175-5.512,3.674-7.393,3.674-7.393,8.858,3.806,10.827-3.74,10.827-3.74-4.855,1.575-7.48.131-7.48.131s4.265-5.38,8.465-6.955,6.1,2.69,6.1,2.69C306.487,191.766,294.677,195.178,294.677,195.178Z" fill="#e6b432"/><path d="M289.329,264.884c-1.152-6.706-2.145-12.5.748-19.134l.54-1.239L279.16,231.355l-1.354.451c-.117.04-12.092,3.955-19.769.115l-.958-.479-.958.479c-7.641,3.829-19.648-.075-19.772-.117l-1.354-.447L223.54,244.511l.54,1.239c2.893,6.636,1.9,12.428.748,19.134-1.085,6.332-2.316,13.51-.15,22.263,2.351,9.5,10.268,12.879,17.25,15.863,5.383,2.3,10.466,4.467,13.34,9.022l1.81,2.87,1.81-2.87c2.874-4.555,7.957-6.724,13.34-9.022,6.984-2.983,14.9-6.36,17.25-15.863C291.645,278.393,290.413,271.215,289.329,264.884Zm-60.807-19.576,7.863-9.027c3.562.979,13.19,3.1,20.693-.088,7.5,3.186,17.13,1.066,20.693.088l7.863,9.027c-2.761,7.272-1.674,13.611-.526,20.3.859,5.012,1.714,10.175,1,16.121H228.052c-.717-5.946.138-11.109,1-16.121C230.2,258.919,231.283,252.579,228.522,245.308Zm42.026,53.764c-4.866,2.078-9.873,4.214-13.47,8.269-3.6-4.055-8.6-6.191-13.47-8.269-6.828-2.915-12.719-5.463-14.662-12.618h56.262C283.267,293.609,277.376,296.158,270.548,299.072Z" fill="#e6b432"/><path d="M228.522,245.308l7.863-9.027c3.562.979,13.19,3.1,20.693-.088,7.5,3.186,17.13,1.066,20.693.088l7.863,9.027c-2.761,7.272-1.674,13.611-.526,20.3.859,5.012,1.714,10.175,1,16.121H228.052c-.717-5.946.138-11.109,1-16.121C230.2,258.919,231.283,252.579,228.522,245.308Z" fill="#41479b"/><path d="M228.646,285.2c.067.307.11.6.188.914,1.839,7.431,7.834,9.99,14.776,12.953,4.866,2.078,9.873,4.214,13.47,8.269,3.6-4.055,8.6-6.191,13.47-8.269,6.942-2.964,12.937-5.523,14.776-12.953.077-.311.12-.607.188-.914Z" fill="#73af00"/><path d="M282.763,260.391c0-3.871-3.679-4.481-7.023-4.415s-8.237-.544-8.361-3.144c-.077-1.621,2.643-1.772,4.415-1.2,1.028.33,7.424,1.472,9.431-2.809a21.609,21.609,0,0,1-4.808-.479c-1.9-.427-9.707.545-11.112,3.555s3.125,6.014,8.342,6.014,5.933,1.044,5.892,2.316c-.054,1.672-4.191,2.145-6.569,2.123-3.743-1.359-12.477-.3-12.519-.46-.05-.2-2.015-3.575-2.015-3.575s3.576-.252,4.029-.907-2.713-3.169-2.713-3.169,2.663-1.062,2.764-1.817c.11-.831-2.162-2.8-2.162-2.8a8.325,8.325,0,0,0,1.538-2.342c.472-1.055-3.277-1.337-3.277-1.337a1.423,1.423,0,0,0-.87-1.94c-.768-.277-3.612.8-5.551.8a3,3,0,0,0-2.676,1.4s-3.411.4-3.88.8.134,3.01.134,3.01a3.71,3.71,0,0,1-2.541-1.806c-.87,3.946,3.211,4.348,3.211,4.348l.669,2.141,1.672.2c1.672.2.87,1.806-1.739,1.806s-3.716,3.112-3.716,3.112c-1.813.051-2.82-1.41-3.223-3.274a22.374,22.374,0,0,1,.151-7.2c.4-2.418-.806-3.123-.806-3.123l-.806,2.015a2.19,2.19,0,0,0-1.864-2.266l-.3,2.518a1.854,1.854,0,0,0-2.467-.907s1.511,5.439,1.461,5.741-.554.554-1.259-.2-1.208-.252-1.208-.252c.756,5.439,3.672,4.641,3.672,4.641a34.309,34.309,0,0,0,1.011,5.163c.94,3.693,4.808,3,4.808,3,0,1.2.937,2.943,1.2,6.956s-3.411,6.823-3.411,6.823a2.813,2.813,0,0,0-3.01,3.211h9.23c0-8.535,3.669-10,3.669-10a27.443,27.443,0,0,0,10.677-2.015c-.806,3.274.605,4.633.605,4.633,2.216-.3,1.108,4.079.453,4.079h-2.82c-.8,0-3.123,2.518-3.123,2.518h9.569a34.082,34.082,0,0,0,1.964-3.172c.5-1.058-1.108-2.518-1.208-3.626s1.662-1.813,1.662-1.813c1.864,2.618,6.144,2.77,6.144,2.77l-.1-1.964a8.742,8.742,0,0,1,2.72,1.41,2.924,2.924,0,0,1-2.266,4.029c-2.669.352-2.871,2.266-2.871,2.266h7.3c1.209,0,2.165-2.266,2.165-3.123V271c0-1.208-1.007-1.057-3.374-1.31-2.15-.228-1.944-2.581-2.83-5.312C277.956,264.277,282.763,263.6,282.763,260.391Z" fill="#e6b432"/><path d="M282.2,168.872c-.6-5.281-4.809-12.006-20.844-15.158a4.177,4.177,0,0,0-2.6-3.756v-2.943h2.625v-3.149h-2.625v-2.624H255.6v2.625h-2.625v3.149H255.6v2.943a4.18,4.18,0,0,0-2.6,3.756c-16.035,3.153-20.245,9.877-20.844,15.158-.747,6.585,3.969,12.829,8.221,15.222v3.341h33.6V184.1C278.228,181.7,282.943,175.457,282.2,168.872Zm-17.588,10.165h-4.7V159.668c3.876,1.751,6.274,4.436,6.972,8.124A16.76,16.76,0,0,1,264.609,179.037Zm-17.132-11.248c.7-3.688,3.1-6.372,6.972-8.122v19.369h-4.7A16.74,16.74,0,0,1,247.477,167.789Zm-3.887-5.318a16.714,16.714,0,0,0-1.516,4.515,21.8,21.8,0,0,0,1.551,12.051h-1.1c-2.356-1.622-5.383-5.612-4.936-9.549C237.9,166.733,239.986,164.37,243.59,162.471Zm28.245,16.566h-1.106a21.794,21.794,0,0,0,1.553-12.049,16.748,16.748,0,0,0-1.517-4.518c3.605,1.9,5.694,4.264,6.005,7.017C277.217,173.425,274.19,177.415,271.835,179.037Z" fill="#e6b432"/></g></svg>