<svg xmlns="http://www.w3.org/2000/svg" width="512" height="335.449" viewBox="0 0 512 335.449"><g transform="translate(0 -88.276)"><path d="M503.172,423.725H8.828A8.829,8.829,0,0,1,0,414.9V97.1a8.829,8.829,0,0,1,8.828-8.828H503.173A8.829,8.829,0,0,1,512,97.1V414.9A8.83,8.83,0,0,1,503.172,423.725Z" fill="#ff4b55"/><path d="M297.951,277.962l67.433-49.478H281.875L256,148.846l-25.875,79.638H146.616l67.433,49.478-25.675,79.022,67.56-48.289.066.047.066-.047,67.56,48.289Zm13.527-31.823L292.2,260.28l-4.6-14.141Zm-76.694,25.139,8.169-25.14h26.094l8.169,25.14L256,286.846ZM256,205.984l7.31,22.5H248.688Zm-55.478,40.155H224.39l-4.6,14.141Zm21.215,65.293,7.3-22.472L240.95,297.7Zm61.225-22.472,7.3,22.472L271.052,297.7Z" fill="#5a8250"/></g></svg>