<svg xmlns="http://www.w3.org/2000/svg" width="512" height="335.449" viewBox="0 0 512 335.449"><g transform="translate(0 -88.276)"><path d="M512,200.093H0V97.1a8.829,8.829,0,0,1,8.828-8.828H503.173A8.829,8.829,0,0,1,512,97.1V200.093Z" fill="#5aa587"/><path d="M503.172,423.725H8.828A8.829,8.829,0,0,1,0,414.9V311.909H512V414.9A8.828,8.828,0,0,1,503.172,423.725Z" fill="#ffe15a"/><rect width="512" height="111.81" transform="translate(0 200.091)" fill="#464655"/><rect width="512" height="13.942" transform="translate(0 190.161)" fill="#f5f5f5"/><rect width="512" height="13.942" transform="translate(0 307.891)" fill="#f5f5f5"/><path d="M3.256,421.591,206.1,260.576a5.842,5.842,0,0,0,0-9.151L3.256,90.411A8.683,8.683,0,0,0,0,97.1V414.9A8.683,8.683,0,0,0,3.256,421.591Z" fill="#ff4b55"/><path d="M81.814,198.578l12.9,38.7,40.789.317a2.374,2.374,0,0,1,1.391,4.284l-32.813,24.231L116.389,305a2.374,2.374,0,0,1-3.644,2.647L79.56,283.923l-33.185,23.72A2.374,2.374,0,0,1,42.731,305l12.3-38.891L22.222,241.874a2.374,2.374,0,0,1,1.391-4.284l40.789-.317,12.9-38.7A2.376,2.376,0,0,1,81.814,198.578Z" fill="#ffe15a"/><path d="M77.2,270.447l-3.19,3.21H47.328l7.281-26.717,2.975-1.487-4.776,23.82a1.039,1.039,0,0,0,.215.822.91.91,0,0,0,.744.352Z" fill="#f5f5f5"/><path d="M83.6,274.891a6.692,6.692,0,0,1-8.064,0l4.032-4.032Z" fill="#f5f5f5"/><path d="M111.8,273.658H85.123l-3.19-3.21h23.428a.91.91,0,0,0,.744-.352,1.04,1.04,0,0,0,.215-.822l-4.776-23.82,2.975,1.487Z" fill="#f5f5f5"/><path d="M104.168,268.491H80.543V244.122c3.954-3.347,14.386-1.057,18.809.313Z" fill="#f5f5f5"/><path d="M78.585,244.122v24.369H54.961l4.815-24.055C64.2,243.065,74.632,240.776,78.585,244.122Z" fill="#f5f5f5"/><path d="M114.033,274.382,106.3,246a.977.977,0,0,0-.509-.607l-5.167-2.583c-.02-.02-.04-.02-.078-.02-.02,0-.02-.02-.039-.04-.627-.215-14.934-4.874-20.943-.313-6.009-4.561-20.317.1-20.943.313l-.039.04c-.04,0-.058,0-.078.02l-5.167,2.583a.978.978,0,0,0-.509.607L45.1,274.382a.984.984,0,0,0,.157.842,1.052,1.052,0,0,0,.783.392h27.4a8.556,8.556,0,0,0,12.252,0h27.4a1.054,1.054,0,0,0,.783-.392A.987.987,0,0,0,114.033,274.382Zm-33.49-30.26c3.954-3.347,14.386-1.057,18.809.313l4.815,24.055H80.543Zm-20.767.314c4.424-1.37,14.856-3.66,18.809-.313v24.369H54.961ZM47.328,273.658l7.281-26.717,2.975-1.487-4.776,23.82a1.039,1.039,0,0,0,.215.822.91.91,0,0,0,.744.352H77.195L74,273.658Zm32.236,2.584a6.746,6.746,0,0,1-4.032-1.351l4.032-4.032,4.032,4.032A6.748,6.748,0,0,1,79.564,276.242Zm5.559-2.584-3.19-3.21h23.428a.91.91,0,0,0,.744-.352,1.04,1.04,0,0,0,.215-.822l-4.776-23.82,2.975,1.487,7.281,26.717H85.123Z" fill="#464655"/><path d="M104.034,218.559a2.51,2.51,0,0,1-3.211-.285l-1.3-1.3v3.187l-7.967,7.967H88.367L75.621,240.873H72.434L47.926,265.381a2.252,2.252,0,0,0-.544,2.306l1.153,3.459-4.78,4.78H40.568l-9.743,9.743a1.994,1.994,0,0,0,0,2.819l6.43,6.43a2.253,2.253,0,0,0,3.3-.127l14.35-17.272,1.593-4.78,3.187-3.187,6.374,9.56,4.78-4.78-5.1-7.648,1.27-1.27a3.161,3.161,0,0,0,0-4.471l-.951-.951.895-.895c6.8,5.828,14.967,7.335,22.742,4l-2.663-6.214c-6.424,2.753-11.67.45-15.319-2.549l13.464-13.464-.531-2.656,3.718-3.718h3.187l23.9-23.9Z" fill="#464655"/><path d="M56.5,215.379l-3.187,3.187a2.255,2.255,0,0,0,0,3.187l.531.531-5.311,1.063-14.34,14.34,7.967,7.967,14.34-14.34L57.563,226l2.125,2.125,1.593-1.593,53,53,3.187-3.187-53-53,1.593-1.593-6.374-6.374A2.252,2.252,0,0,0,56.5,215.379Z" fill="#464655"/></g></svg>