<svg xmlns="http://www.w3.org/2000/svg" width="512" height="335.7" viewBox="0 0 512 335.7"><g transform="translate(0 -88.3)"><path d="M0,311.9H512v103a8.813,8.813,0,0,1-8.8,8.8H8.8A8.813,8.813,0,0,1,0,414.9Z" fill="#ffb400"/><path d="M8.8,88.3H503.1a8.813,8.813,0,0,1,8.8,8.8v103H0V97.1A8.813,8.813,0,0,1,8.8,88.3Z" fill="#ff4b55"/><rect width="512" height="111.8" transform="translate(0 200.1)" fill="#41479b"/><path d="M503.1,88.3H400.3v37.3H344.5v37.3H288.7v37.3H232.9v37.3H177v37.3h55.8v37.3h55.8v37.3h55.8v37.3h55.8V424H503a8.749,8.749,0,0,0,8.8-8.8V386.7H456V349.4H400.2V312.1H344.4V274.8H288.6V237.5h55.8V200.2h55.8V162.9H456V125.6h56V97.1A8.835,8.835,0,0,0,503.1,88.3Z" fill="#f9f9f9"/></g></svg>