<svg xmlns="http://www.w3.org/2000/svg" width="512" height="335.45" viewBox="0 0 512 335.45"><g transform="translate(0 -88.275)"><path d="M0,344.276V97.1a8.829,8.829,0,0,1,8.828-8.828H388.414Z" fill="#41479b"/><path d="M512,167.724V414.9a8.829,8.829,0,0,1-8.828,8.828H123.586Z" fill="#73af00"/><path d="M512,172.7V97.1a8.829,8.829,0,0,0-8.828-8.828H383.139L0,339.3v75.6a8.829,8.829,0,0,0,8.828,8.828H128.861Z" fill="#f5f5f5"/><path d="M512,141.047V97.1a8.829,8.829,0,0,0-8.828-8.828H431.454L0,370.953V414.9a8.829,8.829,0,0,0,8.828,8.828H80.546Z" fill="#ff4b55"/><path d="M90.207,145.894a31.382,31.382,0,0,1,22.254,9.214l3.125-21.686L98.351,146.983l-8.145-20.362-8.145,20.362L64.826,133.422l3.125,21.686A31.386,31.386,0,0,1,90.207,145.894Z" fill="#ffe15a"/><path d="M67.935,199.634a31.481,31.481,0,0,1,0-44.508L46.249,152,59.81,169.235,39.448,177.38l20.362,8.145L46.249,202.76Z" fill="#ffe15a"/><path d="M140.966,177.379,120.6,169.234,134.165,152l-21.686,3.125a31.481,31.481,0,0,1,0,44.508l21.686,3.125L120.6,185.523Z" fill="#ffe15a"/><path d="M90.207,208.865a31.382,31.382,0,0,1-22.254-9.214l-3.125,21.686,17.235-13.561,8.145,20.362,8.145-20.362,17.235,13.561-3.125-21.686A31.386,31.386,0,0,1,90.207,208.865Z" fill="#ffe15a"/><circle cx="25.709" cy="25.709" r="25.709" transform="translate(64.501 151.671)" fill="#ffe15a"/></g></svg>