<svg xmlns="http://www.w3.org/2000/svg" width="512" height="335.448" viewBox="0 0 512 335.448"><g transform="translate(0 -88.276)"><path d="M503.172,88.276H8.828A8.828,8.828,0,0,0,0,97.1V414.9a8.829,8.829,0,0,0,8.828,8.828H503.173A8.829,8.829,0,0,0,512,414.9V97.1A8.829,8.829,0,0,0,503.172,88.276Z" fill="#41479b"/><path d="M353.582,253.845l-25.316-5.626a72.752,72.752,0,0,0-64.481-64.471l-5.629-25.33c-.448-2.017-3.862-2.017-4.31,0l-5.615,25.27a72.793,72.793,0,0,0-64.493,64.531l-25.319,5.626a2.208,2.208,0,0,0,0,4.31l25.319,5.626a72.769,72.769,0,0,0,64.486,64.5l5.622,25.3a2.208,2.208,0,0,0,4.311,0l5.631-25.34a72.746,72.746,0,0,0,64.479-64.46l25.318-5.626a2.208,2.208,0,0,0,0-4.311Zm-29.785-6.62-48.291-10.731L264.78,188.23A68.462,68.462,0,0,1,323.8,247.225Zm-76.575-59L236.494,236.5l-48.276,10.728A68.46,68.46,0,0,1,247.222,188.222Zm-9.58,52.54L252.879,256h-83.81ZM188.22,264.779,236.5,275.507l10.73,48.286A68.468,68.468,0,0,1,188.22,264.779ZM256,342.931l-15.238-68.574L256,259.121Zm0-90.052v-83.81l15.238,68.574Zm8.788,70.854,10.717-48.228,48.29-10.731A68.431,68.431,0,0,1,264.788,323.733Zm9.57-52.495L259.121,256h83.81Z" fill="#f5f5f5"/><path d="M141.241,258.207H17.655a2.207,2.207,0,0,1,0-4.414H141.241a2.207,2.207,0,0,1,0,4.414Z" fill="#f5f5f5"/><path d="M494.345,258.207H370.759a2.207,2.207,0,0,1,0-4.414H494.345a2.207,2.207,0,0,1,0,4.414Z" fill="#f5f5f5"/><path d="M256,143.448a2.207,2.207,0,0,1-2.207-2.207v-35.31a2.207,2.207,0,1,1,4.414,0v35.31A2.206,2.206,0,0,1,256,143.448Z" fill="#f5f5f5"/><path d="M256,408.276a2.207,2.207,0,0,1-2.207-2.207v-35.31a2.207,2.207,0,0,1,4.414,0v35.31A2.207,2.207,0,0,1,256,408.276Z" fill="#f5f5f5"/></g></svg>