<svg xmlns="http://www.w3.org/2000/svg" width="512" height="335.448" viewBox="0 0 512 335.448"><g transform="translate(0 -88.276)"><path d="M503.172,423.724H8.828A8.829,8.829,0,0,1,0,414.9V97.1a8.829,8.829,0,0,1,8.828-8.828H503.173A8.829,8.829,0,0,1,512,97.1V414.9A8.83,8.83,0,0,1,503.172,423.724Z" fill="#41479b"/><rect width="512" height="35.31" transform="translate(0 238.34)" fill="#ffe15a"/><path d="M119.172,308.965l5.141,20.54,14.721-15.218-5.817,20.358,20.357-5.818L138.358,343.55l20.538,5.139-20.538,5.141,15.216,14.721-20.357-5.817,5.817,20.358-14.721-15.217-5.141,20.539-5.141-20.539L99.31,383.092l5.818-20.358L84.77,368.551,99.987,353.83l-20.539-5.141,20.539-5.139L84.77,328.827l20.358,5.818L99.31,314.287l14.721,15.218Z" fill="#f5f5f5"/></g></svg>