<svg xmlns="http://www.w3.org/2000/svg" width="512" height="335.449" viewBox="0 0 512 335.449"><g transform="translate(0 -88.276)"><path d="M503.172,423.725H8.828A8.829,8.829,0,0,1,0,414.9V97.1a8.829,8.829,0,0,1,8.828-8.828H503.173A8.829,8.829,0,0,1,512,97.1V414.9A8.83,8.83,0,0,1,503.172,423.725Z" fill="#f5f5f5"/><path d="M11.476,110.877,194.364,244.526H53.442L70.6,263.663,203.815,412.25H11.476V110.877M3.081,90.529A8.7,8.7,0,0,0,0,97.1V414.9a8.829,8.829,0,0,0,8.828,8.828h220.69L79.144,256H229.518L3.081,90.529Z" fill="#41479b"/><path d="M11.476,110.877,194.364,244.525H53.442L70.6,263.661,203.816,412.249H11.476V110.877" fill="#ff4b55"/><path d="M67.345,296.4l7.066,14.583,13.411-9.1a.856.856,0,0,1,1.334.77l-1.171,16.162,16.162-1.171a.856.856,0,0,1,.77,1.334l-9.1,13.411,14.583,7.066a.856.856,0,0,1,0,1.54l-14.583,7.066,9.1,13.411a.856.856,0,0,1-.77,1.334l-16.162-1.171L89.156,377.8a.856.856,0,0,1-1.334.77l-13.411-9.1-7.066,14.583a.856.856,0,0,1-1.54,0l-7.066-14.583-13.411,9.1a.856.856,0,0,1-1.334-.77l1.171-16.162L29,362.809a.856.856,0,0,1-.77-1.334l9.1-13.411L22.743,341a.856.856,0,0,1,0-1.54L37.326,332.4l-9.1-13.411A.856.856,0,0,1,29,317.65l16.162,1.171-1.171-16.162a.856.856,0,0,1,1.334-.77l13.411,9.1L65.8,296.4A.857.857,0,0,1,67.345,296.4Z" fill="#f5f5f5"/><path d="M85.694,212.062l-6.135-4.191,5.4-5.661-7.7-1.4,2.632-7.367-7.6,1.847-.593-7.8-6.194,4.779-3.713-6.884-3.714,6.886-6.194-4.779-.593,7.8-7.6-1.847,2.632,7.367-7.7,1.4,5.4,5.661-6.135,4.191a56.812,56.812,0,0,1-19.9-15.427,44.444,44.444,0,0,0,87.608,0A56.789,56.789,0,0,1,85.694,212.062Z" fill="#f5f5f5"/></g></svg>