<svg xmlns="http://www.w3.org/2000/svg" width="512" height="335.4" viewBox="0 0 512 335.4"><g transform="translate(0 -88.3)"><path d="M503.2,423.7H8.8A8.813,8.813,0,0,1,0,414.9V97.1a8.813,8.813,0,0,1,8.8-8.8H503.1a8.813,8.813,0,0,1,8.8,8.8V414.9A8.665,8.665,0,0,1,503.2,423.7Z" fill="#f5f5f5"/><path d="M199.1,88.3H312.9V423.7H199.1Z" fill="#dc171d"/><path d="M0,199.9H512V313.7H0Z" fill="#012a87"/><path d="M259.2,214.5l-3.2-9.8-3.2,9.8H242.5l8.3,6.1-3.2,9.8,8.4-6.1,8.4,6.1-3.2-9.8,8.3-6.1Z" fill="#fff"/><path d="M337,252l8.4-6.1H335l-3.1-9.8-3.2,9.8H318.3l8.4,6.1-3.2,9.8,8.4-6,8.3,6Z" fill="#fff"/><path d="M290.6,290.4l-3.2-9.9-3.2,9.9H273.9l8.4,6-3.2,9.9,8.3-6.1,8.4,6.1-3.2-9.9,8.3-6Z" fill="#fff"/><path d="M183.3,245.9l-3.2-9.8-3.1,9.8H166.6L175,252l-3.2,9.8,8.3-6,8.4,6-3.2-9.8,8.4-6.1Z" fill="#fff"/><path d="M227.8,290.4l-3.2-9.9-3.2,9.9H211.1l8.3,6-3.2,9.9,8.4-6.1,8.3,6.1-3.2-9.9,8.4-6Z" fill="#fff"/></g></svg>