<svg xmlns="http://www.w3.org/2000/svg" width="512" height="335.4" viewBox="0 0 512 335.4"><g transform="translate(0 -88.3)"><path d="M0,311.9H512v103a8.813,8.813,0,0,1-8.8,8.8H8.8A8.813,8.813,0,0,1,0,414.9Z" fill="#009543"/><path d="M8.8,88.3H503.1a8.813,8.813,0,0,1,8.8,8.8v103H0V97.1A8.813,8.813,0,0,1,8.8,88.3Z" fill="#0035ad"/><rect width="512" height="111.8" transform="translate(0 200.1)" fill="#ff4b55"/><circle cx="111" cy="111" r="111" transform="translate(41.4 145)" fill="#fae600" stroke="#000" stroke-width="5"/><path d="M133.6,272.6h37.6m-37.6-27.9h37.6m-18.8-99.3V335" stroke="#000" stroke-width="6"/><path d="M171.2,334.9c-8-6.6-31.6-6.3-39.7,0-6.7,5.3-26,24.8-23.9,23,45.3,18.5,87.8,1.1,87.8,1.1S179.5,341.7,171.2,334.9Z"/><ellipse cx="12.4" cy="18.1" rx="12.4" ry="18.1" transform="translate(140 289.1)"/><ellipse cx="15.1" cy="9.5" rx="15.1" ry="9.5" transform="translate(137.3 249.1)"/><circle cx="15.1" cy="15.1" r="15.1" transform="translate(131.046 214.609) rotate(-45)"/><path d="M140.3,191.8c2.5-2,15.7-2.5,28.8-26.2,2.7-4.9,1.4-7.1,1.4-7.1h0s.1.3-1.9,2.1c-13,11.3-29.7,11.1-31.7,22.2-.1.8-.3,9.1-.5,11.1C136.3,193.9,137.5,194,140.3,191.8Z"/><path d="M152.4,240.2c8.9,0,21.9-.4,22.6-13.9a67.112,67.112,0,0,1,3.4-16.9s-6.3,7.5-8.7,12.4c-4.9,9.9-10.6,10.9-17.3,10.9s-12.5-1-17.3-10.9c-2.4-4.9-8.7-12.4-8.7-12.4a74.035,74.035,0,0,1,3.4,16.9C130.5,239.8,143.5,240.2,152.4,240.2Z"/><path d="M152.4,287.6c6.3,0,13.2,4.2,16.1,11.3,5.5,13.7,10.3,19.6,10.3,19.6a235.3,235.3,0,0,1-4.4-28.3c-.7-7.8-7.6-13.1-21.9-13.1s-21.2,5.3-21.9,13.1a235.3,235.3,0,0,1-4.4,28.3s4.7-5.8,10.3-19.6A17.559,17.559,0,0,1,152.4,287.6Z"/></g></svg>