<svg xmlns="http://www.w3.org/2000/svg" width="512" height="335.449" viewBox="0 0 512 335.449"><g transform="translate(0 -88.276)"><path d="M503.172,423.725H8.828A8.829,8.829,0,0,1,0,414.9V97.1a8.829,8.829,0,0,1,8.828-8.828H503.173A8.829,8.829,0,0,1,512,97.1V414.9A8.83,8.83,0,0,1,503.172,423.725Z" fill="#41479b"/><path d="M247.172,88.277H231.838l-81.77,53.574V88.277H105.93v53.574L24.16,88.277H8.828A8.828,8.828,0,0,0,0,97.1v7l70.155,45.963H0v44.138H70.155L0,240.171v7A8.829,8.829,0,0,0,8.828,256H24.162l81.77-53.574V256H150.07V202.427L231.839,256h15.334A8.829,8.829,0,0,0,256,247.173v-7l-70.155-45.963H256V150.07H185.845L256,104.107v-7A8.828,8.828,0,0,0,247.172,88.277Z" fill="#f5f5f5"/><path d="M256,158.9H141.241V88.277H114.759V158.9H0V185.38H114.759V256h26.482V185.38H256Z" fill="#ff4b55"/><path d="M97.1,150.07l-92.9-60.3A8.684,8.684,0,0,0,0,97.1v.458L80.889,150.07H97.1Z" fill="#ff4b55"/><path d="M166.283,150.07,254.657,92.7a8.7,8.7,0,0,0-7.485-4.427h-1.909L150.069,150.07Z" fill="#ff4b55"/><path d="M89.474,194.208l-88.2,57.256A8.717,8.717,0,0,0,8.828,256h1.665l95.2-61.793H89.474Z" fill="#ff4b55"/><path d="M255.86,247.866l-82.666-53.658H156.98l93.874,60.935A8.741,8.741,0,0,0,255.86,247.866Z" fill="#ff4b55"/><path d="M395.474,368.114a1.8,1.8,0,0,1-1.026-.328L384,360.32l-10.449,7.466a1.794,1.794,0,0,1-1.026.328,1.768,1.768,0,0,1-1.685-2.3l3.875-12.242-10.327-7.62a1.767,1.767,0,0,1,1.035-3.189l12.841-.1,4.061-12.181a1.769,1.769,0,0,1,3.354,0l4.061,12.181,12.841.1a1.767,1.767,0,0,1,1.035,3.189l-10.327,7.62,3.875,12.242a1.778,1.778,0,0,1-.647,1.965A1.8,1.8,0,0,1,395.474,368.114Z" fill="#ff4b55"/><path d="M384,331.035l4.461,13.378,14.1.109L391.218,352.9l4.254,13.445L384,358.145l-11.473,8.2,4.254-13.445-11.345-8.377,14.1-.109L384,331.035m0-3.531a3.532,3.532,0,0,0-3.35,2.414L376.987,340.9l-11.578.09a3.532,3.532,0,0,0-2.071,6.372l9.314,6.878-3.492,11.039a3.531,3.531,0,0,0,5.421,3.937l9.42-6.733,9.42,6.733a3.531,3.531,0,0,0,5.42-3.937l-3.492-11.039,9.314-6.878a3.532,3.532,0,0,0-2.071-6.372l-11.578-.09-3.663-10.984A3.535,3.535,0,0,0,384,327.5Z" fill="#f5f5f5"/><path d="M395.474,225.794a1.787,1.787,0,0,1-1.026-.328L384,217.993l-10.449,7.474a1.794,1.794,0,0,1-1.026.328,1.768,1.768,0,0,1-1.685-2.3l3.875-12.242-10.327-7.629a1.767,1.767,0,0,1,1.035-3.189l12.841-.1,4.061-12.181a1.769,1.769,0,0,1,3.354,0l4.061,12.181,12.841.1a1.767,1.767,0,0,1,1.035,3.189l-10.327,7.629,3.875,12.242a1.778,1.778,0,0,1-.647,1.965A1.8,1.8,0,0,1,395.474,225.794Z" fill="#ff4b55"/><path d="M384,188.714l4.461,13.378,14.1.109-11.345,8.377,4.254,13.446L384,215.823l-11.473,8.2,4.254-13.446L365.436,202.2l14.1-.109L384,188.714m0-3.531a3.532,3.532,0,0,0-3.35,2.414l-3.663,10.984-11.578.09a3.532,3.532,0,0,0-2.071,6.372l9.314,6.878L369.16,222.96a3.531,3.531,0,0,0,5.421,3.937l9.42-6.733,9.42,6.733a3.531,3.531,0,0,0,5.42-3.937l-3.492-11.039,9.314-6.878a3.532,3.532,0,0,0-2.071-6.372l-11.578-.09L387.351,187.6A3.534,3.534,0,0,0,384,185.183Z" fill="#f5f5f5"/><path d="M457.267,269.932a1.787,1.787,0,0,1-1.026-.328l-10.447-7.474L435.345,269.6a1.794,1.794,0,0,1-1.026.328,1.768,1.768,0,0,1-1.685-2.3l3.875-12.242-10.327-7.629a1.767,1.767,0,0,1,1.035-3.189l12.841-.1,4.061-12.181a1.769,1.769,0,0,1,3.354,0l4.061,12.181,12.841.1a1.767,1.767,0,0,1,1.035,3.189l-10.327,7.629,3.875,12.242a1.778,1.778,0,0,1-.647,1.965A1.8,1.8,0,0,1,457.267,269.932Z" fill="#ff4b55"/><path d="M445.793,232.852l4.461,13.378,14.1.109-11.345,8.377,4.254,13.446-11.473-8.2-11.473,8.2,4.254-13.445-11.345-8.377,14.1-.109,4.463-13.379m0-3.531a3.532,3.532,0,0,0-3.35,2.414l-3.663,10.984-11.578.09a3.532,3.532,0,0,0-2.071,6.372l9.314,6.878L430.953,267.1a3.531,3.531,0,0,0,5.42,3.937l9.42-6.733,9.42,6.733a3.531,3.531,0,0,0,5.421-3.937l-3.492-11.039,9.314-6.878a3.532,3.532,0,0,0-2.071-6.372l-11.578-.09-3.663-10.984a3.533,3.533,0,0,0-3.351-2.414Z" fill="#f5f5f5"/><path d="M333.681,287.587a1.787,1.787,0,0,1-1.026-.328l-10.447-7.474-10.449,7.474a1.794,1.794,0,0,1-1.026.328,1.768,1.768,0,0,1-1.685-2.3l3.875-12.242L302.6,265.414a1.767,1.767,0,0,1,1.035-3.189l12.841-.1,4.061-12.181a1.769,1.769,0,0,1,3.354,0l4.061,12.181,12.841.1a1.767,1.767,0,0,1,1.035,3.189L331.5,273.043l3.875,12.242a1.768,1.768,0,0,1-1.691,2.3Z" fill="#ff4b55"/><path d="M322.207,250.507l4.461,13.378,14.1.109-11.345,8.377,4.254,13.446-11.473-8.2-11.473,8.2,4.254-13.446-11.345-8.377,14.1-.109,4.463-13.378m0-3.531a3.532,3.532,0,0,0-3.35,2.414l-3.663,10.984-11.578.09a3.532,3.532,0,0,0-2.071,6.372l9.314,6.878-3.492,11.039a3.531,3.531,0,0,0,5.42,3.937l9.42-6.733,9.42,6.733a3.531,3.531,0,0,0,5.42-3.937l-3.492-11.039,9.314-6.878a3.532,3.532,0,0,0-2.071-6.372l-11.578-.09-3.663-10.984a3.532,3.532,0,0,0-3.35-2.414Z" fill="#f5f5f5"/></g></svg>