<svg xmlns="http://www.w3.org/2000/svg" width="512" height="335.449" viewBox="0 0 512 335.449"><g transform="translate(0 -88.276)"><path d="M512,200.093H0V97.1a8.829,8.829,0,0,1,8.828-8.828H503.173A8.829,8.829,0,0,1,512,97.1V200.093Z" fill="#41479b"/><path d="M503.172,423.725H8.828A8.829,8.829,0,0,1,0,414.9V311.909H512V414.9A8.828,8.828,0,0,1,503.172,423.725Z" fill="#41479b"/><rect width="512" height="111.81" transform="translate(0 200.091)" fill="#f5f5f5"/><path d="M256,223.678l-26.927,39.6h53.854Z" fill="#afebff"/><path d="M229.073,263.277l-17.424,25.344h88.7l-17.424-25.344Z" fill="#557de6"/><path d="M262.891,261.064c.107-.221.22-.438.317-.664C263.112,260.624,263,260.843,262.891,261.064Z" fill="#73af00"/><path d="M263.633,259.239c.066-.2.146-.392.2-.594C263.778,258.846,263.7,259.039,263.633,259.239Z" fill="#73af00"/><path d="M261.975,262.725c.136-.217.27-.433.4-.655C262.246,262.293,262.11,262.509,261.975,262.725Z" fill="#73af00"/><path d="M266.091,255.348a2.166,2.166,0,0,0-.685.111,2.138,2.138,0,0,1,.685-.111Z" fill="#73af00"/><path d="M264.83,255.766a1.581,1.581,0,0,0-.617,1.043v0A1.578,1.578,0,0,1,264.83,255.766Z" fill="#73af00"/><path d="M264.013,267.585c.377.358.751.7,1.127,1.024a25.84,25.84,0,0,0,5.58-6.538c-.106.185-.22.365-.332.547a28.339,28.339,0,0,1-2.453-6.012,1.857,1.857,0,0,0-1.842-1.257C266.43,258.3,267.154,263.732,264.013,267.585Z" fill="#73af00"/><path d="M271.98,259.239c.066-.2.146-.392.2-.594C272.126,258.846,272.046,259.039,271.98,259.239Z" fill="#73af00"/><path d="M273.178,255.766a1.581,1.581,0,0,0-.617,1.043v0A1.578,1.578,0,0,1,273.178,255.766Z" fill="#73af00"/><path d="M271.24,261.064c.107-.221.22-.438.317-.664C271.459,260.624,271.347,260.843,271.24,261.064Z" fill="#73af00"/><path d="M288.339,269.613a9.441,9.441,0,0,1-7.706-3.957,29.33,29.33,0,0,1-4.349-9.049,1.857,1.857,0,0,0-1.845-1.258h0c.4,3.526,1.358,10.575-4.371,14.264h-3.73c-.153-.121-.3-.237-.459-.365l.01.009a3.864,3.864,0,0,1-4.751.91c-6.778-3.492-5.726-11.109-5.3-14.818A1.855,1.855,0,0,0,254,256.607a28.339,28.339,0,0,1-2.453,6.012c-.111-.182-.226-.361-.332-.547a26.919,26.919,0,0,0,6.333,7.186,3.864,3.864,0,0,1-4.751.91c-6.778-3.492-5.726-11.11-5.3-14.818a1.855,1.855,0,0,0-1.842,1.257,28.339,28.339,0,0,1-2.453,6.012c-.111-.182-.226-.361-.332-.547a26.919,26.919,0,0,0,6.333,7.186,3.864,3.864,0,0,1-4.751.91c-6.778-3.492-5.726-11.109-5.3-14.818h0a1.855,1.855,0,0,0-1.845,1.258,29.33,29.33,0,0,1-4.349,9.049,9.436,9.436,0,0,1-7.706,3.957h-2.508v3.168h66.526v-3.168Z" fill="#73af00"/><path d="M258.724,260.4c.1.226.21.444.317.664C258.934,260.843,258.82,260.624,258.724,260.4Z" fill="#73af00"/><path d="M258.1,258.644c.056.2.137.395.2.594C258.234,259.039,258.154,258.846,258.1,258.644Z" fill="#73af00"/><path d="M257.719,256.812v0a1.573,1.573,0,0,0-.617-1.043,1.581,1.581,0,0,1,.617,1.043Z" fill="#73af00"/><path d="M259.56,262.071c.127.223.262.438.4.655C259.822,262.509,259.687,262.293,259.56,262.071Z" fill="#73af00"/><path d="M261.015,264.267c-.017-.021-.031-.043-.047-.065.136-.181.266-.363.4-.548-.13.184-.264.366-.4.546-.136-.18-.269-.361-.4-.546C260.714,263.861,260.862,264.064,261.015,264.267Z" fill="#73af00"/><path d="M261.711,265.143c.154.185.308.37.466.548C262.019,265.513,261.865,265.328,261.711,265.143Z" fill="#73af00"/><path d="M263.4,267c-.148-.148-.292-.3-.438-.456C263.112,266.7,263.255,266.853,263.4,267Z" fill="#73af00"/><path d="M274.442,255.349h0a2.058,2.058,0,0,0-1.261.418,1.581,1.581,0,0,0-.617,1.043v0a12.653,12.653,0,0,1-.378,1.833c-.056.2-.137.395-.2.594-.129.392-.262.782-.424,1.161-.1.226-.21.444-.317.664-.164.34-.332.679-.519,1.007a25.858,25.858,0,0,1-5.58,6.538c-.375-.324-.749-.665-1.127-1.024,3.14-3.853,2.417-9.282,2.081-12.236h0a2.166,2.166,0,0,0-.685.111,1.976,1.976,0,0,0-.576.307,1.581,1.581,0,0,0-.617,1.043v0a12.522,12.522,0,0,1-.379,1.833c-.056.2-.137.395-.2.594-.129.392-.262.782-.424,1.161-.1.226-.21.444-.317.664-.164.34-.332.679-.519,1.007-.127.223-.262.438-.4.655-.2.314-.4.625-.61.927-.13.185-.262.369-.4.548-.136-.181-.27-.363-.4-.548-.213-.3-.414-.612-.61-.927-.136-.217-.27-.433-.4-.655-.188-.329-.354-.668-.519-1.007-.107-.221-.22-.438-.317-.664-.162-.378-.3-.769-.424-1.161-.066-.2-.146-.392-.2-.594a12.492,12.492,0,0,1-.378-1.833v0a1.573,1.573,0,0,0-.617-1.043,2.047,2.047,0,0,0-1.26-.418h0c-.422,3.709-1.475,11.326,5.3,14.818a4.013,4.013,0,0,0,3.591.024,4.894,4.894,0,0,1,2.194-.578h3.146C275.8,265.924,274.844,258.874,274.442,255.349Z" fill="#ffe15a"/><path d="M249.749,258.644c.056.2.137.395.2.594C249.886,259.039,249.806,258.846,249.749,258.644Z" fill="#73af00"/><path d="M249.37,256.812v0a1.573,1.573,0,0,0-.617-1.043,1.581,1.581,0,0,1,.617,1.043Z" fill="#73af00"/><path d="M250.376,260.4c.1.226.21.444.317.664C250.585,260.843,250.473,260.624,250.376,260.4Z" fill="#73af00"/><path d="M247.494,255.348h0a2.166,2.166,0,0,1,.685.111A2.147,2.147,0,0,0,247.494,255.348Z" fill="#73af00"/><path d="M252.793,270.167a3.866,3.866,0,0,0,4.751-.91,26.921,26.921,0,0,1-6.333-7.186c-.188-.329-.354-.668-.519-1.007-.107-.221-.22-.438-.317-.664-.162-.378-.295-.769-.424-1.161-.066-.2-.146-.392-.2-.594a12.492,12.492,0,0,1-.378-1.833v0a1.573,1.573,0,0,0-.617-1.043,1.976,1.976,0,0,0-.576-.307,2.138,2.138,0,0,0-.685-.111h0C247.068,259.058,246.015,266.674,252.793,270.167Z" fill="#ffe15a"/><path d="M241.4,258.644c.056.2.137.395.2.594C241.538,259.039,241.458,258.846,241.4,258.644Z" fill="#73af00"/><path d="M242.028,260.4c.1.226.21.444.317.664C242.238,260.843,242.124,260.624,242.028,260.4Z" fill="#73af00"/><path d="M241.023,256.812v0a1.573,1.573,0,0,0-.617-1.043,1.581,1.581,0,0,1,.617,1.043Z" fill="#73af00"/><path d="M244.446,270.167a3.866,3.866,0,0,0,4.751-.91,26.921,26.921,0,0,1-6.333-7.186c-.188-.329-.354-.668-.519-1.007-.107-.221-.22-.438-.317-.664-.162-.378-.295-.769-.424-1.161-.066-.2-.146-.392-.2-.594a12.492,12.492,0,0,1-.378-1.833v0a1.573,1.573,0,0,0-.617-1.043,2.048,2.048,0,0,0-1.261-.418h0C238.72,259.058,237.666,266.674,244.446,270.167Z" fill="#ffe15a"/><path d="M242.655,242.753c-.131.505-.264,1.011-.4,1.516a50.11,50.11,0,0,1,28.548,0c-.131-.505-.264-1.011-.395-1.516a56.035,56.035,0,0,0-27.758,0Z" fill="#41479b"/><path d="M242.827,242.094c-.131.505-.264,1.011-.4,1.516a48.8,48.8,0,0,1,28.2,0c-.131-.505-.264-1.011-.395-1.516a54.5,54.5,0,0,0-27.414,0Z" fill="#5aa0e6"/><path d="M242.986,241.485c-.131.505-.264,1.011-.4,1.516a47.6,47.6,0,0,1,27.886,0c-.131-.505-.264-1.011-.395-1.516a53.054,53.054,0,0,0-27.1,0Z" fill="#9bc800"/><path d="M243.167,240.789c-.131.505-.264,1.011-.4,1.516a46.249,46.249,0,0,1,27.524,0c-.131-.505-.264-1.011-.395-1.516a51.471,51.471,0,0,0-26.734,0Z" fill="#ffe14e"/><path d="M243.346,240.1c-.131.505-.264,1.011-.4,1.516a44.937,44.937,0,0,1,27.166,0c-.131-.505-.264-1.011-.395-1.516a49.961,49.961,0,0,0-26.376,0Z" fill="#ffb14e"/><path d="M243.421,239.813c-.093.354-.184.707-.277,1.062a43.535,43.535,0,0,1,26.778,0c-.093-.354-.184-.707-.277-1.062a49.317,49.317,0,0,0-26.224,0Z" fill="#ff4b55"/><path d="M300.352,290.158h-88.7a1.583,1.583,0,0,1-1.318-2.463l44.352-66.527a1.648,1.648,0,0,1,2.636,0L301.671,287.7a1.584,1.584,0,0,1-1.319,2.463Zm-85.745-3.168h82.785L256,224.9Z" fill="#ffe15a"/><path d="M259.029,248.933a3.807,3.807,0,0,0-3.673-3.512c-1.321,0-2.392.808-2.392,1.8a1.61,1.61,0,0,0,.7,1.273c0,.018,0,.038,0,.055a1.678,1.678,0,0,0-.892,1.394c0,.95.979,1.72,2.216,1.79L256,253.772l.919-1.838A3.013,3.013,0,0,0,259.029,248.933Z" fill="#ff4b55"/></g></svg>