<svg xmlns="http://www.w3.org/2000/svg" width="512" height="335.448" viewBox="0 0 512 335.448"><g transform="translate(0 -88.276)"><path d="M503.172,423.724H8.828A8.829,8.829,0,0,1,0,414.9V97.1a8.829,8.829,0,0,1,8.828-8.828H503.173A8.829,8.829,0,0,1,512,97.1V414.9A8.83,8.83,0,0,1,503.172,423.724Z" fill="#ffe15a"/><path d="M247.172,256H8.828A8.829,8.829,0,0,1,0,247.172V97.1a8.829,8.829,0,0,1,8.828-8.828H247.172A8.829,8.829,0,0,1,256,97.1V247.173A8.827,8.827,0,0,1,247.172,256Z" fill="#41479b"/><path d="M247.172,88.276H231.839l-81.77,53.573V88.276H105.931v53.573L24.161,88.276H8.828A8.829,8.829,0,0,0,0,97.1v7l70.155,45.963H0v44.138H70.155L0,240.171v7A8.829,8.829,0,0,0,8.828,256H24.161l81.77-53.573V256h44.138V202.427L231.838,256h15.333A8.829,8.829,0,0,0,256,247.172v-7l-70.154-45.963H256V150.069H185.844L256,104.106v-7A8.827,8.827,0,0,0,247.172,88.276Z" fill="#f5f5f5"/><path d="M256,158.9H141.241V88.276H114.758V158.9H0v26.482H114.758V256h26.483V185.379H256Z" fill="#ff4b55"/><path d="M97.1,150.069l-92.9-60.3A8.686,8.686,0,0,0,0,97.1v.458l80.889,52.507Z" fill="#ff4b55"/><path d="M166.283,150.069,254.657,92.7a8.7,8.7,0,0,0-7.485-4.427h-1.909l-95.194,61.793Z" fill="#ff4b55"/><path d="M89.474,194.207l-88.2,57.256A8.717,8.717,0,0,0,8.828,256h1.665l95.2-61.793Z" fill="#ff4b55"/><path d="M255.859,247.867l-82.666-53.659H156.98l93.873,60.934A8.739,8.739,0,0,0,255.859,247.867Z" fill="#ff4b55"/><circle cx="26.483" cy="26.483" r="26.483" transform="translate(101.517 145.657)" fill="#41479b"/><path d="M129.787,150.668l4.425,13.266,13.984.108a1.884,1.884,0,0,1,1.1,3.4l-11.25,8.307,4.218,13.333a1.884,1.884,0,0,1-2.892,2.1L128,183.052l-11.377,8.131a1.884,1.884,0,0,1-2.892-2.1l4.218-13.333-11.25-8.307a1.884,1.884,0,0,1,1.105-3.4l13.984-.108,4.425-13.266A1.883,1.883,0,0,1,129.787,150.668Z" fill="#ffe15a"/><path d="M56.5,161.474l2.379,7.133,7.519.058a1.013,1.013,0,0,1,.594,1.828l-6.048,4.467,2.268,7.168a1.013,1.013,0,0,1-1.555,1.13l-6.116-4.372-6.116,4.372a1.013,1.013,0,0,1-1.555-1.13l2.268-7.168-6.048-4.467a1.013,1.013,0,0,1,.594-1.828l7.519-.058,2.379-7.133A1.01,1.01,0,0,1,56.5,161.474Z" fill="#ffe15a"/><path d="M202.085,161.474l2.379,7.133,7.519.058a1.013,1.013,0,0,1,.594,1.828l-6.048,4.467,2.268,7.168a1.013,1.013,0,0,1-1.555,1.13l-6.116-4.372-6.116,4.372a1.013,1.013,0,0,1-1.555-1.13l2.268-7.168-6.048-4.467a1.013,1.013,0,0,1,.594-1.828l7.519-.058,2.379-7.133A1.01,1.01,0,0,1,202.085,161.474Z" fill="#ffe15a"/><path d="M129.074,107.894l2.379,7.133,7.519.058a1.013,1.013,0,0,1,.594,1.828l-6.049,4.466,2.268,7.168a1.013,1.013,0,0,1-1.555,1.13l-6.116-4.372L122,129.677a1.013,1.013,0,0,1-1.555-1.13l2.268-7.168-6.048-4.467a1.013,1.013,0,0,1,.594-1.828l7.519-.058,2.379-7.133A1.011,1.011,0,0,1,129.074,107.894Z" fill="#ffe15a"/><path d="M129.074,216.316l2.379,7.133,7.519.058a1.013,1.013,0,0,1,.594,1.828l-6.049,4.466,2.268,7.168a1.013,1.013,0,0,1-1.555,1.13l-6.116-4.372L122,238.1a1.013,1.013,0,0,1-1.555-1.13l2.268-7.168-6.048-4.467a1.013,1.013,0,0,1,.594-1.828l7.519-.058,2.379-7.133A1.011,1.011,0,0,1,129.074,216.316Z" fill="#ffe15a"/></g></svg>