<svg xmlns="http://www.w3.org/2000/svg" width="512" height="335.454" viewBox="0 0 512 335.454"><g transform="translate(0 -88.273)"><path d="M170.667,423.721H8.828A8.829,8.829,0,0,1,0,414.893V97.1a8.829,8.829,0,0,1,8.828-8.828H170.667Z" fill="#73af00"/><rect width="170.67" height="335.45" transform="translate(170.67 88.277)" fill="#f5f5f5"/><path d="M503.172,423.721H341.333V88.273H503.172A8.829,8.829,0,0,1,512,97.1V414.893A8.828,8.828,0,0,1,503.172,423.721Z" fill="#73af00"/><path d="M314.959,342.6l-27.4-159.812a49.976,49.976,0,0,0-6.4-17.266L256,123.583l-25.161,41.935a49.956,49.956,0,0,0-6.4,17.266L197.04,342.6a5,5,0,0,0,4.925,5.841h44.041v39.973h19.987V348.437h44.041A5,5,0,0,0,314.959,342.6Z" fill="#73af00"/></g></svg>