<svg xmlns="http://www.w3.org/2000/svg" width="512" height="335.448" viewBox="0 0 512 335.448"><g transform="translate(0 -88.276)"><path d="M503.172,423.724H8.828A8.829,8.829,0,0,1,0,414.9V97.1a8.829,8.829,0,0,1,8.828-8.828H503.173A8.829,8.829,0,0,1,512,97.1V414.9A8.83,8.83,0,0,1,503.172,423.724Z" fill="#4173cd"/><path d="M256,384A128,128,0,1,1,384,256,128.147,128.147,0,0,1,256,384Zm0-229.517A101.517,101.517,0,1,0,357.516,256,101.63,101.63,0,0,0,256,154.483Z" fill="#f5f5f5"/><path d="M256,375.172A119.172,119.172,0,1,1,375.172,256,119.308,119.308,0,0,1,256,375.172Zm0-229.517A110.345,110.345,0,1,0,366.344,256,110.469,110.469,0,0,0,256,145.655Z" fill="#ffdc00"/><circle cx="8.828" cy="8.828" r="8.828" transform="translate(132.412 247.172)" fill="#ffdc00"/><circle cx="8.828" cy="8.828" r="8.828" transform="translate(361.932 247.172)" fill="#ffdc00"/><circle cx="8.828" cy="8.828" r="8.828" transform="translate(247.172 132.412)" fill="#ffdc00"/><circle cx="8.828" cy="8.828" r="8.828" transform="translate(166.022 166.022)" fill="#ffdc00"/><circle cx="8.828" cy="8.828" r="8.828" transform="translate(328.322 166.022)" fill="#ffdc00"/><circle cx="8.828" cy="8.828" r="8.828" transform="translate(353.192 203.252)" fill="#ffdc00"/><circle cx="8.828" cy="8.828" r="8.828" transform="translate(203.252 141.152)" fill="#ffdc00"/><circle cx="8.828" cy="8.828" r="8.828" transform="translate(141.152 203.252)" fill="#ffdc00"/><circle cx="8.828" cy="8.828" r="8.828" transform="translate(291.092 141.152)" fill="#ffdc00"/><circle cx="8.828" cy="8.828" r="8.828" transform="translate(359.722 224.782)" fill="#ffdc00"/><circle cx="8.828" cy="8.828" r="8.828" transform="translate(224.782 134.622)" fill="#ffdc00"/><circle cx="8.828" cy="8.828" r="8.828" transform="translate(151.752 183.412)" fill="#ffdc00"/><circle cx="8.828" cy="8.828" r="8.828" transform="translate(310.932 151.762)" fill="#ffdc00"/><circle cx="8.828" cy="8.828" r="8.828" transform="translate(342.582 183.412)" fill="#ffdc00"/><circle cx="8.828" cy="8.828" r="8.828" transform="translate(183.412 151.762)" fill="#ffdc00"/><circle cx="8.828" cy="8.828" r="8.828" transform="translate(134.622 224.782)" fill="#ffdc00"/><circle cx="8.828" cy="8.828" r="8.828" transform="translate(269.562 134.622)" fill="#ffdc00"/><path d="M370.758,260.414A4.411,4.411,0,0,1,366.344,256a110.344,110.344,0,1,0-220.689,0,4.414,4.414,0,0,1-8.828,0,119.173,119.173,0,0,1,238.345,0A4.411,4.411,0,0,1,370.758,260.414Z" fill="#ffa000"/><path d="M280.527,388.414H231.473a17.654,17.654,0,0,1-17.558-19.5l15.6-148.22h52.965l15.6,148.22A17.654,17.654,0,0,1,280.527,388.414Z" fill="#b4b4b4"/><path d="M282.232,220.69H229.561a4.547,4.547,0,0,1-4.52-4.055l-3.29-30.3a8.828,8.828,0,0,1,8.776-9.781h50.945a8.828,8.828,0,0,1,8.776,9.781l-3.268,30.1A4.775,4.775,0,0,1,282.232,220.69Z" fill="#aaa"/><path d="M258.044,186.834l16.364,47.079,49.831,1.015a2.164,2.164,0,0,1,1.263,3.889l-39.717,30.111,14.433,47.705a2.164,2.164,0,0,1-3.308,2.4L256,290.568l-40.911,28.468a2.164,2.164,0,0,1-3.308-2.4l14.433-47.7L186.5,238.817a2.165,2.165,0,0,1,1.263-3.889l49.831-1.015,16.364-47.079A2.164,2.164,0,0,1,258.044,186.834Z" fill="#f5f5f5"/></g></svg>