<svg xmlns="http://www.w3.org/2000/svg" width="512" height="335.449" viewBox="0 0 512 335.449"><g transform="translate(0 -88.276)"><path d="M503.172,423.725H8.828A8.829,8.829,0,0,1,0,414.9V97.1a8.829,8.829,0,0,1,8.828-8.828H503.173A8.829,8.829,0,0,1,512,97.1V414.9A8.83,8.83,0,0,1,503.172,423.725Z" fill="#f5f5f5"/><rect width="512" height="35.31" transform="translate(0 123.591)" fill="#ff4b55"/><rect width="512" height="35.31" transform="translate(0 353.101)" fill="#ff4b55"/><path d="M248.5,228.834,260.93,245.09l19.4-6.495a1.191,1.191,0,0,1,1.358,1.8l-11.62,16.842,12.173,16.447a1.191,1.191,0,0,1-1.3,1.849l-19.608-5.847-11.88,16.66a1.19,1.19,0,0,1-2.159-.662l-.5-20.456-19.516-6.151a1.191,1.191,0,0,1-.038-2.259l19.3-6.795-.181-20.461A1.191,1.191,0,0,1,248.5,228.834Z" fill="#ff4b55"/><path d="M184.489,319.6a63.6,63.6,0,0,1,0-127.191,62.35,62.35,0,0,1,35.134,10.813,1.539,1.539,0,0,0,2-2.316,78.793,78.793,0,0,0-59.758-24.3c-40.434,1.379-73.906,33.8-76.49,74.172a79.275,79.275,0,0,0,136.3,60.275,1.528,1.528,0,0,0-2.006-2.283A62.42,62.42,0,0,1,184.489,319.6Z" fill="#ff4b55"/></g></svg>