<svg xmlns="http://www.w3.org/2000/svg" width="512" height="335.449" viewBox="0 0 512 335.449"><g transform="translate(0 -88.276)"><path d="M512,200.093H0V97.1a8.829,8.829,0,0,1,8.828-8.828H503.173A8.829,8.829,0,0,1,512,97.1V200.093Z" fill="#f5f5f5"/><path d="M503.172,423.725H8.828A8.829,8.829,0,0,1,0,414.9V311.909H512V414.9A8.828,8.828,0,0,1,503.172,423.725Z" fill="#73af00"/><rect width="512" height="111.81" transform="translate(0 200.091)" fill="#ff4b55"/><path d="M132.414,423.725H8.828A8.829,8.829,0,0,1,0,414.9V97.1a8.829,8.829,0,0,1,8.828-8.828H132.414Z" fill="#ff4b55"/><path d="M36.056,161.444c-.494.056-.971.116-1.436.178v6.287c.468.119.945.237,1.436.353Z" fill="#f5f5f5"/><path d="M57.8,173.427c-1.311-.1-3.325-.307-5.729-.6L37,186.238a48.238,48.238,0,0,1,5.271,1.005Q48.078,182.158,57.8,173.427Z" fill="#f5f5f5"/><path d="M80.491,152.1v-1.291H53.739v1.923H80.491Z" fill="#f5f5f5"/><path d="M60.685,113.837c0,1.884,2.839,3.475,6.2,3.475s6.2-1.591,6.2-3.475-2.839-3.475-6.2-3.475S60.685,111.954,60.685,113.837Z" fill="#f5f5f5"/><path d="M54.887,160.594c-6.039-.03-12.066.192-16.993.658v7.422c5.789,1.242,12.533,2.194,16.993,2.668Z" fill="#f5f5f5"/><path d="M23.776,197.221c2.387-.051,7.63-.994,11.18-3.767q1.65-1.29,5.62-4.736c-1.791-.367-4.8-.813-6.4-1.033Z" fill="#f5f5f5"/><path d="M58.332,148.969V145.6c-.452-.674-.919-1.369-1.4-2.076l-4.107,2.987c.818,1.4,1.342,2.3,1.439,2.462Z" fill="#f5f5f5"/><path d="M26.728,164.2c-.013.055-.045.183.161.448.762.977,2.967,1.91,5.9,2.759v-5.516C29.269,162.478,26.967,163.248,26.728,164.2Z" fill="#f5f5f5"/><path d="M73.717,161.57v-7H60.169v17.108h3.445A10.116,10.116,0,0,0,73.717,161.57Z" fill="#f5f5f5"/><path d="M51.942,136.128c-7.254-10.692-15-21.93-16.892-24.157a51.755,51.755,0,0,0,2.453,6.366c1.971,4.518,6.755,13.177,10.716,20.149Z" fill="#f5f5f5"/><path d="M49.129,140.085c1.032,1.806,1.977,3.448,2.774,4.824L55.91,142q-1.429-2.122-2.935-4.344Z" fill="#f5f5f5"/><path d="M58.332,171.641v-11c-.535-.011-1.07-.022-1.608-.029v10.913C57.343,171.575,57.882,171.616,58.332,171.641Z" fill="#f5f5f5"/><rect width="13.549" height="1.923" transform="translate(60.17 139.521)" fill="#f5f5f5"/><path d="M92.547,148.854v.115h.689a.917.917,0,0,1,.918.918v3.761a.917.917,0,0,1-.918.918h-.689v.115a.92.92,0,0,0,.918.918h15.5a.92.92,0,0,0,.918-.918v-5.827a.92.92,0,0,0-.918-.918h-15.5A.918.918,0,0,0,92.547,148.854Z" fill="#f5f5f5"/><path d="M109.89,197.17l-10.345-9.485c-1.6.221-4.606.665-6.4,1.033q4.034,3.5,5.62,4.738A20.6,20.6,0,0,0,109.89,197.17Z" fill="#f5f5f5"/><path d="M88.643,151.437v1.292h3.675v-1.923H88.643Z" fill="#f5f5f5"/><path d="M91.454,187.245a47.439,47.439,0,0,1,5.278-1.007L74.518,166.415a11.959,11.959,0,0,1-2.476,3.606l.585.522Q84.7,181.349,91.454,187.245Z" fill="#f5f5f5"/><path d="M41.683,154.681v-.115h-.69a.917.917,0,0,1-.918-.918v-3.761a.917.917,0,0,1,.918-.918h.689v-.115a.92.92,0,0,0-.918-.918h-15.5a.92.92,0,0,0-.918.918v5.827a.92.92,0,0,0,.918.918h15.5A.919.919,0,0,0,41.683,154.681Z" fill="#f5f5f5"/><path d="M45.587,152.1v-1.291H41.912v1.923h3.675Z" fill="#f5f5f5"/><path d="M80.895,146.506l-4.107-2.987-1.234,1.835v3.614h3.9C79.553,148.8,80.077,147.911,80.895,146.506Z" fill="#f5f5f5"/><path d="M61.4,133.9H72.493l-2.442-2.71H63.84Z" fill="#f5f5f5"/><rect width="13.549" height="1.866" transform="translate(60.17 135.821)" fill="#f5f5f5"/><path d="M66.886,119.149a12.007,12.007,0,0,1-2.526-.285v10.383h5.109V118.853A11.992,11.992,0,0,1,66.886,119.149Z" fill="#f5f5f5"/><path d="M60.169,145.208h13.49a.9.9,0,0,1,.06-.338v-1.585H60.169v1.923Z" fill="#f5f5f5"/><path d="M77.815,141.995l4.007,2.914c.8-1.375,1.742-3.018,2.774-4.824l-3.846-2.434Q79.247,139.868,77.815,141.995Z" fill="#f5f5f5"/><rect width="13.549" height="1.923" transform="translate(60.17 147.051)" fill="#f5f5f5"/><path d="M85.506,138.486c3.96-6.97,8.744-15.631,10.716-20.149a51.658,51.658,0,0,0,2.455-6.372c-1.857,2.179-9.623,13.443-16.9,24.163Z" fill="#f5f5f5"/><path d="M112.449,197.024,100.47,186.039a.9.9,0,0,0-.744-.233l-.64.087c-.017-.017-.023-.04-.042-.055L75.167,164.531a11.863,11.863,0,0,0,.386-2.961v-7h5.792a4.03,4.03,0,0,0,6.442,0h2.922v.115a2.758,2.758,0,0,0,2.755,2.755h15.5a2.758,2.758,0,0,0,2.755-2.755v-5.827a2.758,2.758,0,0,0-2.755-2.755h-15.5a2.758,2.758,0,0,0-2.755,2.755v.115H87.789a4.015,4.015,0,0,0-5.83-.638c3.1-5.3,12.823-22.1,15.947-29.259,3.351-7.682,3.081-8.674,2.289-9.311-.836-.669-1.894.1-2.293.393-1.537,1.117-16.44,23.134-22.348,31.91v-7.246c0-.02-.01-.038-.011-.057v0a.9.9,0,0,0-.449-.719l-3.787-4.2V118.291c2.19-.94,3.617-2.564,3.617-4.454,0-2.978-3.531-5.312-8.038-5.312s-8.038,2.334-8.038,5.312c0,1.9,1.453,3.538,3.674,4.473v11.6l-3.715,4.121a.909.909,0,0,0-.476.789V142.3c-5.793-8.607-20.959-31.022-22.508-32.149-.4-.29-1.46-1.06-2.294-.393-.793.637-1.063,1.629,2.289,9.311,3.025,6.932,12.238,22.9,15.631,28.719a4,4,0,0,0-5.007,1.178H43.52v-.115a2.758,2.758,0,0,0-2.755-2.755h-15.5a2.758,2.758,0,0,0-2.755,2.755v5.827a2.758,2.758,0,0,0,2.755,2.755h15.5a2.758,2.758,0,0,0,2.755-2.755v-.115H46.44a4.03,4.03,0,0,0,6.442,0H58.33v4.23c-8.516-.182-32.093-.21-33.385,4.963a2.29,2.29,0,0,0,.5,2.024c2.485,3.183,15.079,5.506,24.214,6.734l-14.976,13.32c-.019.017-.025.04-.043.057-.307-.043-.538-.074-.64-.087a.9.9,0,0,0-.744.233l-11.98,10.985a.917.917,0,0,0-.084,1.265,3.827,3.827,0,0,0,2.755.711,22.261,22.261,0,0,0,12.141-4.1c2.83-2.21,10.67-9.084,23.3-20.43l1.069-.96H63.61a11.86,11.86,0,0,0,7.01-2.295l.778.7c14.546,13.02,23.372,20.754,26.237,22.99a22.231,22.231,0,0,0,12.139,4.1,3.825,3.825,0,0,0,2.756-.711A.914.914,0,0,0,112.449,197.024Zm-52.28-25.35V154.566H73.718v7a10.117,10.117,0,0,1-10.1,10.1Zm-27.384-4.263c-2.926-.85-5.132-1.782-5.9-2.759-.207-.266-.175-.393-.161-.448.239-.956,2.541-1.726,6.056-2.308Zm2.265-55.44c1.89,2.227,9.638,13.463,16.892,24.157l-3.724,2.358c-3.96-6.972-8.744-15.631-10.716-20.149A51.484,51.484,0,0,1,35.05,111.971Zm21.886,31.548c.476.706.942,1.4,1.4,2.076v3.374H54.268c-.1-.164-.621-1.057-1.439-2.462Zm-5.034,1.39c-.8-1.375-1.742-3.018-2.774-4.824l3.846-2.434q1.5,2.219,2.935,4.344Zm6.43,15.729v11c-.448-.025-.988-.066-1.608-.12V160.609C57.261,160.616,57.8,160.626,58.332,160.638Zm-20.438.613c4.928-.466,10.954-.687,16.993-.658v10.748c-4.46-.473-11.2-1.426-16.993-2.668Zm-3.273.371c.465-.062.941-.121,1.436-.178v6.817c-.491-.115-.968-.233-1.436-.353Zm17.453,11.2c2.4.294,4.418.495,5.729.6q-9.7,8.711-15.535,13.816A48.047,48.047,0,0,0,37,186.237Zm-11.5,15.891q-3.961,3.441-5.62,4.736c-3.55,2.774-8.792,3.718-11.18,3.767l10.4-9.537C35.78,187.9,38.784,188.35,40.576,188.717Zm13.163-35.988v-1.922H80.492v1.922Zm19.347-38.892c0,1.884-2.839,3.475-6.2,3.475s-6.2-1.591-6.2-3.475,2.839-3.475,6.2-3.475S73.086,111.954,73.086,113.837ZM60.169,141.448v-1.923H73.718v1.923Zm13.548,1.837v1.585a.9.9,0,0,0-.06.338H60.169v-1.923Zm-13.548-5.6v-1.866H73.718v1.866Zm9.882-6.5,2.442,2.709H61.4l2.442-2.709Zm-5.691-1.941V118.865a11.378,11.378,0,0,0,5.109-.011v10.394Zm-4.191,17.8H73.718v1.923H60.169Zm36.053-28.708c-1.971,4.518-6.755,13.177-10.716,20.149l-3.724-2.358c7.272-10.72,15.038-21.984,16.9-24.163A51.835,51.835,0,0,1,96.222,118.337Zm-9.416,33.1v.66a2.239,2.239,0,0,1-4.478,0v-.66a2.239,2.239,0,0,1,4.478,0Zm-4.984-6.528-4.007-2.914q1.43-2.122,2.935-4.344l3.846,2.434C83.564,141.891,82.618,143.533,81.822,144.909Zm-6.268.445q.6-.9,1.234-1.835l4.107,2.987c-.818,1.4-1.342,2.3-1.439,2.463h-3.9Zm-1.036,21.059,22.214,19.823a48.246,48.246,0,0,0-5.278,1.007q-6.735-5.882-18.828-16.7l-.585-.522A11.915,11.915,0,0,0,74.518,166.413Zm25.028,21.271,10.345,9.485a20.59,20.59,0,0,1-11.123-3.714q-1.58-1.234-5.62-4.738C94.94,188.35,97.944,187.9,99.546,187.684Zm10.34-38.83v5.827a.92.92,0,0,1-.918.918h-15.5a.92.92,0,0,1-.918-.918v-.115h.689a.917.917,0,0,0,.918-.918v-3.761a.917.917,0,0,0-.918-.918h-.689v-.115a.92.92,0,0,1,.918-.918h15.5A.919.919,0,0,1,109.886,148.854Zm-17.568,3.875H88.644v-1.922h3.674Zm-67.974,1.952v-5.827a.92.92,0,0,1,.918-.918h15.5a.92.92,0,0,1,.918.918v.115h-.687a.917.917,0,0,0-.918.918v3.761a.917.917,0,0,0,.918.918h.689v.115a.92.92,0,0,1-.918.918h-15.5A.92.92,0,0,1,24.344,154.681Zm17.568-3.875h3.674v1.922H41.912ZM51.9,152.1a2.239,2.239,0,0,1-4.478,0v-.66a2.239,2.239,0,0,1,4.478,0Z" fill="#d23741"/></g></svg>