<svg xmlns="http://www.w3.org/2000/svg" width="512" height="335.449" viewBox="0 0 512 335.449"><g transform="translate(0 -88.276)"><path d="M503.172,423.725H132.414V88.277H503.173A8.829,8.829,0,0,1,512,97.105V414.9A8.829,8.829,0,0,1,503.172,423.725Z" fill="#73af00"/><path d="M132.414,423.725H8.828A8.829,8.829,0,0,1,0,414.9V97.1a8.829,8.829,0,0,1,8.828-8.828H132.414Z" fill="#f5f5f5"/><path d="M412.053,302.189a98.522,98.522,0,0,1-130.73-147.431l.178-.157a1.135,1.135,0,0,0-1.16-1.913A107.494,107.494,0,1,0,413.868,303.52a1.136,1.136,0,0,0-1.766-1.377Z" fill="#f5f5f5"/><path d="M359.787,172.59l14.12,15.841,19.56-8.232a2.859,2.859,0,0,1,3.578,4.077l-10.7,18.325,13.873,16.058a2.859,2.859,0,0,1-2.772,4.663l-20.735-4.516-10.986,18.156a2.86,2.86,0,0,1-5.292-1.2l-2.112-21.116-20.662-4.838a2.859,2.859,0,0,1-.5-5.4l19.43-8.533L354.8,174.732A2.859,2.859,0,0,1,359.787,172.59Z" fill="#f5f5f5"/></g></svg>