<svg xmlns="http://www.w3.org/2000/svg" width="512" height="335.449" viewBox="0 0 512 335.449"><g transform="translate(0 -88.276)"><path d="M503.172,423.725H8.828A8.829,8.829,0,0,1,0,414.9V97.1a8.829,8.829,0,0,1,8.828-8.828H503.173A8.829,8.829,0,0,1,512,97.1V414.9A8.83,8.83,0,0,1,503.172,423.725Z" fill="#f5f5f5"/><path d="M256,256H503.172A8.829,8.829,0,0,0,512,247.173V97.1a8.829,8.829,0,0,0-8.828-8.828H264.828A8.829,8.829,0,0,0,256,97.1Z" fill="#ff4b55"/><path d="M8.828,423.725H247.173A8.829,8.829,0,0,0,256,414.9V256H8.828A8.829,8.829,0,0,0,0,264.829V414.9A8.828,8.828,0,0,0,8.828,423.725Z" fill="#4173cd"/><path d="M131.4,134.488l8.416,25.234,26.6.206a3.584,3.584,0,0,1,2.1,6.467l-21.4,15.8,8.023,25.362a3.585,3.585,0,0,1-5.5,4L128,196.088l-21.641,15.468a3.585,3.585,0,0,1-5.5-4L108.88,182.2l-21.4-15.8a3.584,3.584,0,0,1,2.1-6.467l26.6-.206,8.416-25.234A3.585,3.585,0,0,1,131.4,134.488Z" fill="#4173cd"/><path d="M387.4,302.212l8.416,25.234,26.6.206a3.584,3.584,0,0,1,2.1,6.467l-21.4,15.8,8.023,25.362a3.585,3.585,0,0,1-5.5,4L384,363.812,362.359,379.28a3.585,3.585,0,0,1-5.5-4l8.023-25.362-21.4-15.8a3.584,3.584,0,0,1,2.1-6.467l26.6-.206,8.416-25.234A3.585,3.585,0,0,1,387.4,302.212Z" fill="#ff4b55"/></g></svg>