<svg xmlns="http://www.w3.org/2000/svg" width="512" height="335.449" viewBox="0 0 512 335.449"><g transform="translate(0 -88.276)"><path d="M503.172,423.725H8.828A8.829,8.829,0,0,1,0,414.9V97.1a8.829,8.829,0,0,1,8.828-8.828H503.173A8.829,8.829,0,0,1,512,97.1V414.9A8.83,8.83,0,0,1,503.172,423.725Z" fill="#ff4b55"/><path d="M3.256,90.411A8.683,8.683,0,0,0,0,97.1V414.9a8.829,8.829,0,0,0,8.828,8.828H503.173a8.676,8.676,0,0,0,5.571-2.134Z" fill="#464655"/><path d="M51.5,250.288l-5.052,15.148-15.968.124a1.594,1.594,0,0,0-.935,2.876l12.845,9.485-4.817,15.224a1.594,1.594,0,0,0,2.446,1.778l12.991-9.286L66,294.923a1.594,1.594,0,0,0,2.446-1.778l-4.817-15.224,12.845-9.485a1.594,1.594,0,0,0-.935-2.876l-15.968-.124-5.052-15.148A1.591,1.591,0,0,0,51.5,250.288Z" fill="#f5f5f5"/><path d="M160.282,250.288l-5.052,15.148-15.968.124a1.594,1.594,0,0,0-.935,2.876l12.845,9.485-4.817,15.224a1.594,1.594,0,0,0,2.446,1.778l12.991-9.286,12.991,9.286a1.594,1.594,0,0,0,2.446-1.778l-4.817-15.224,12.845-9.485a1.594,1.594,0,0,0-.935-2.876l-15.968-.124L163.3,250.288A1.591,1.591,0,0,0,160.282,250.288Z" fill="#f5f5f5"/><path d="M105.89,184.352,100.838,199.5l-15.968.124a1.594,1.594,0,0,0-.935,2.876l12.845,9.485-4.817,15.224a1.594,1.594,0,0,0,2.446,1.778L107.4,219.7l12.991,9.286a1.594,1.594,0,0,0,2.446-1.778l-4.817-15.224,12.845-9.485a1.594,1.594,0,0,0-.935-2.876l-15.968-.124-5.052-15.148A1.591,1.591,0,0,0,105.89,184.352Z" fill="#f5f5f5"/><path d="M105.89,346.5l-5.052,15.148-15.968.124a1.594,1.594,0,0,0-.935,2.876l12.845,9.485-4.817,15.224a1.594,1.594,0,0,0,2.446,1.778l12.991-9.286,12.991,9.286a1.594,1.594,0,0,0,2.446-1.778l-4.817-15.224,12.845-9.485a1.594,1.594,0,0,0-.935-2.876l-15.968-.124L108.91,346.5A1.591,1.591,0,0,0,105.89,346.5Z" fill="#f5f5f5"/><path d="M131.229,306.992l-2.687,8.055-8.491.066a.847.847,0,0,0-.5,1.529l6.83,5.044-2.561,8.1a.847.847,0,0,0,1.3.945l6.909-4.938,6.909,4.938a.848.848,0,0,0,1.3-.945l-2.561-8.1,6.83-5.044a.847.847,0,0,0-.5-1.529l-8.491-.066-2.687-8.055A.848.848,0,0,0,131.229,306.992Z" fill="#f5f5f5"/><path d="M437.565,248.346c-1.292-10-5.566-19.89-8.671-25.995,1.533.767,3.917,2.148,3.917,2.148l-2.1-7.628a30.012,30.012,0,0,1,9.206,6.182c-2.631-13.152-6.708-19.332-6.708-19.332l3.288,1.184c-6.182-15.256-15.388-19.6-15.388-19.6l5.26-1.315a42.1,42.1,0,0,0-18.675-13.02l7.1-3.42c-18.807-10.653-36.956.526-36.956.526s6.313-6.575,8.68-9.337-3.288-3.682-3.288-3.682,5.524-3.814,5.26-6.05-5.26-1.052-5.26-1.052,4.34-4.471,4.34-6.97-4.471-.92-4.471-.92a25.05,25.05,0,0,0,1.842-5.393c.395-2.367-3.946-.4-3.946-.4s4.866-8.68,4.6-10.521-12.757,5.918-21.7,14.467-7.87,22.286-7.078,25.555,1.288,10.893-2.674,13.566-11.029-3.874-14.536-7.907-7.891-2.631-12.45-1.052-13.152-.526-15.782-.877,2.98,2.631,7.715,4.384,6.839,5.962,13.5,8.417c5.836,2.151,10.51,7.61,5.918,10.126-3.578,1.961-3.551-1.184-19.332-5.26s-34.72,36.035-34.72,36.035c10.138-1.254,15.32-7.327,15.32-7.327l-2.739,7.857a19.629,19.629,0,0,0,11.156-5.975l-1.981,7.923c5.743-1.783,9.7-7.923,9.7-7.923l-1.684,7.823a21.649,21.649,0,0,0,8.616-7.823c.594,2.872,1.062,8.733,1.062,8.733,8.742-4.673,10.784-11.31,10.784-11.31,9.995,30.249,24.462,35.246,24.462,35.246l.789-7.891a32.81,32.81,0,0,0,10.784,9.469l-1.052-6.839c15.519,18.938,33.4,23.673,33.4,23.673l-4.58-10.482,5.632,1.143c-6.05-5.129-8.286-14.072-8.286-14.072l4.735.789a54.517,54.517,0,0,1-11.442-14.993l4.6.789c-1.447-2.236-2.631-10.126-2.631-10.126,8.417,2.631,12.757,5.918,12.757,5.918l.5-2.865c7.221,5.2,19.079,14.889,27.3,27.066a31,31,0,0,1-2.281,12.009c-7.538,18.386-27.356,17.185-36.124,13.326,0,0,27.18,21.218,42.086-8.943a24.442,24.442,0,0,0,1.959-6.054,41.335,41.335,0,0,1,3.39,13.857c1.578,30.775-30.511,27.882-30.511,27.882s35.509,14.2,37.088-26.829C447.628,266.141,443.765,257.019,437.565,248.346ZM405.3,217.627l.155-.888a47.317,47.317,0,0,1,11.048,5.393l1.249-3.748c5.335,6.411,9.6,13.31,11.968,20.452A174.282,174.282,0,0,0,405.3,217.627Z" fill="#ffe15a"/></g></svg>