<svg xmlns="http://www.w3.org/2000/svg" width="512" height="335.449" viewBox="0 0 512 335.449"><g transform="translate(0 -88.276)"><path d="M512,200.093H0V97.1a8.829,8.829,0,0,1,8.828-8.828H503.173A8.829,8.829,0,0,1,512,97.1V200.093Z" fill="#ff4b55"/><path d="M503.172,423.725H8.828A8.829,8.829,0,0,1,0,414.9V311.909H512V414.9A8.828,8.828,0,0,1,503.172,423.725Z" fill="#41479b"/><rect width="512" height="111.81" transform="translate(0 200.091)" fill="#f5f5f5"/><path d="M256,211.863A44.138,44.138,0,1,0,300.138,256,44.138,44.138,0,0,0,256,211.863Zm0,77.426A33.288,33.288,0,1,1,289.288,256,33.289,33.289,0,0,1,256,289.289Z" fill="#ff4b55"/><circle cx="15.31" cy="15.31" r="15.31" transform="translate(240.69 240.691)" fill="#41479b"/><path d="M257,244.4l2.467,7.4,7.8.061a1.051,1.051,0,0,1,.616,1.9l-6.274,4.633,2.353,7.436A1.051,1.051,0,0,1,262.346,267L256,262.468,249.654,267a1.051,1.051,0,0,1-1.613-1.172l2.353-7.436-6.274-4.633a1.051,1.051,0,0,1,.616-1.9l7.8-.061L255,244.4A1.052,1.052,0,0,1,257,244.4Z" fill="#ffe15a"/><path d="M284.96,256.357s.875-4.046-3.43.809a19.7,19.7,0,0,0-.059-2.521c.947-1.025,2.121-3.267,1.845-8.052,0,0-.675-4.084-2.891,2.013a15.871,15.871,0,0,0-1.248-2.795c.534-1.108.947-3.125-.334-6.947,0,0-1.5-3.27-1.963,2.348a10.037,10.037,0,0,0-2.028-2.29c.154-.906.033-2.462-1.775-4.981,0,0-1.8-2.02-.893,2.126,0,0-1.651-1.337-2.179-1.18-.274-.792-1.067-2.131-3.73-3.893,0,0-2.307-1.263.34,2.034,0,0-2.34-.928-2.312-.4s1.159,1.513,2.088,1.951c0,0-3.432.356-2.023,1.121,0,0,3.481,1.2,5.572.045a4.049,4.049,0,0,0,1.015,1.783s-4.084-.793-2.978.433c0,0,3.063,2.251,6.09,1.906a5.9,5.9,0,0,0,.681,2.718s-4.87-2.6-3.947-.616c0,0,2.912,3.9,6.786,4.74a7.055,7.055,0,0,0,.054,2.78s-4.622-4.365-4.2-1.878c0,0,1.932,5.122,5.848,7.3a7.108,7.108,0,0,0-.676,2.056s-2.692-5.761-3.213-3.292c0,0-.089,5.754,2.983,9.195a7.182,7.182,0,0,0-1.688,2.052s-.589-6.329-1.913-4.182c0,0-1.83,4.8-.591,8.929a7.183,7.183,0,0,0-2.371,1.224s1.953-6.051-.11-4.6c0,0-3.674,3.975-3.955,8.447a6.7,6.7,0,0,0-3.249.9s2.8-5.709.545-4.567c0,0-4.008,3.274-5.043,7.523-.948.541-2.558,1.46-4.167,2.372-.936-.543-1.845-1.071-2.622-1.525l.026-.042-9.111-7.638.181,2.5-4.575-8.182-.565,2.784-1.5-9.045-1.329,1.335.514-8.438-1.732.934,3.146-6.276-1.478.417,3.887-3.726-2.055.175,4.914-2.231-1.8-.276,4.8-2.429-2.067-.1,6.219-2.152-1.139-1,5.383-1.588-6.45-.492,1.837-2.261-4.921,2.518.706-3.4-4.3,4.433.748-3.1-4.029,4.009.26-3.026-3.983,6.746-.514-3.019-3.31,7.574-.911-3.3-1.478,9.393-1.233-1.4,1.621,9.06-2.056-1.542,3.769,8.138a29.233,29.233,0,0,0-3.084-1.2c-.343,0,6.553,7,6.553,7l-3.6-.385,6.952,4.888-2.583.638,5.783,2.248-1.414,1.094,11.972.856s1.154.961,2.724,2.074c-.829.468-1.558.875-2.009,1.122a1.689,1.689,0,0,1-1.468.073c-1.137-.477-2.781-1.149-3.574-1.466a3.567,3.567,0,0,0,3.62,3.488c1.455.033,3.439-.893,5.284-1.988,1.889,1.178,3.974,2.217,5.48,2.181a3.542,3.542,0,0,0,3.542-3.488c-.776.318-2.386.99-3.5,1.466a1.62,1.62,0,0,1-1.436-.073c-.491-.275-1.3-.736-2.225-1.271.946-.641,1.739-1.223,2.3-1.652.872.685,3.368,1.889,8.946-.2,0,0,3.7-1.858-2.781-2.163a19.028,19.028,0,0,0,2.015-1.721c1.063.547,3.69,1.2,8.684-1.547,0,0,3.4-2.367-3.06-1.745a20.973,20.973,0,0,0,1.54-1.694c1.114.125,3.865-.173,7.513-4.839,0,0,2.19-3.513-3.5-.4a15.773,15.773,0,0,0,.909-2.927C281.539,262.561,283.456,260.909,284.96,256.357Z" fill="#64c86e"/></g></svg>