<svg xmlns="http://www.w3.org/2000/svg" width="512" height="335.448" viewBox="0 0 512 335.448"><g transform="translate(0 -88.276)"><path d="M3.256,421.59,256,256,3.256,90.41A8.683,8.683,0,0,0,0,97.1V414.9A8.683,8.683,0,0,0,3.256,421.59Z" fill="#f5f5f5"/><path d="M3.256,421.59a8.676,8.676,0,0,0,5.571,2.134H503.172A8.829,8.829,0,0,0,512,414.9V256H256Z" fill="#ff4b55"/><path d="M3.256,90.41a8.676,8.676,0,0,1,5.571-2.134H503.172A8.829,8.829,0,0,1,512,97.1V256H256Z" fill="#41479b"/><circle cx="28.69" cy="28.69" r="28.69" transform="translate(64 227.31)" fill="#ffe15a"/><path d="M92.69,256,81.931,212.966,92.69,198.621l10.758,14.345Z" fill="#ffe15a"/><path d="M92.69,256l10.758,43.034L92.69,313.379,81.931,299.034Z" fill="#ffe15a"/><path d="M92.69,256,49.655,266.759,35.31,256l14.345-10.759Z" fill="#ffe15a"/><path d="M92.69,256l43.034-10.759L150.069,256l-14.345,10.759Z" fill="#ffe15a"/><path d="M92.69,256l22.822-38.037,17.751-2.537-2.536,17.751Z" fill="#ffe15a"/><path d="M92.69,256,69.867,294.037l-17.751,2.537,2.537-17.751Z" fill="#ffe15a"/><path d="M92.69,256,54.653,233.177l-2.537-17.751,17.751,2.537Z" fill="#ffe15a"/><path d="M92.69,256l38.037,22.823,2.536,17.751-17.751-2.537Z" fill="#ffe15a"/><path d="M23.658,131.694l1.5,11.16-10.076,5.028a1.517,1.517,0,0,0,.4,2.85l11.076,2.026,1.668,11.136a1.517,1.517,0,0,0,2.836.495l5.35-9.908,11.106,1.854a1.517,1.517,0,0,0,1.348-2.543l-7.77-8.15,5.195-9.99a1.518,1.518,0,0,0-2-2.068l-10.152,4.872-7.9-8.029A1.517,1.517,0,0,0,23.658,131.694Z" fill="#ffe15a"/><path d="M28.1,348.906l-1.89,11.1-11.114,1.8a1.517,1.517,0,0,0-.461,2.841l9.973,5.227-1.717,11.128a1.517,1.517,0,0,0,2.56,1.316l8.053-7.87,10.054,5.073A1.518,1.518,0,0,0,45.6,377.5l-5-10.091,7.93-7.993a1.518,1.518,0,0,0-1.3-2.57L36.1,358.478l-5.152-10.013A1.517,1.517,0,0,0,28.1,348.906Z" fill="#ffe15a"/><path d="M202.734,239.555l-6.481,9.208-10.81-3.15a1.518,1.518,0,0,0-1.639,2.367l6.755,9.009-6.337,9.308a1.518,1.518,0,0,0,1.745,2.29l10.655-3.64,6.894,8.9a1.518,1.518,0,0,0,2.717-.952l-.17-11.258,10.6-3.806a1.517,1.517,0,0,0-.066-2.878l-10.761-3.318-.344-11.255A1.516,1.516,0,0,0,202.734,239.555Z" fill="#ffe15a"/></g></svg>