<svg xmlns="http://www.w3.org/2000/svg" width="512" height="335.448" viewBox="0 0 512 335.448"><g transform="translate(0 -88.276)"><path d="M503.172,423.724H8.828A8.829,8.829,0,0,1,0,414.9V97.1a8.829,8.829,0,0,1,8.828-8.828H503.173A8.829,8.829,0,0,1,512,97.1V414.9A8.83,8.83,0,0,1,503.172,423.724Z" fill="#41479b"/><path d="M247.172,88.276H231.839l-81.77,53.573V88.276H105.931v53.573L24.161,88.276H8.828A8.829,8.829,0,0,0,0,97.1v7l70.155,45.963H0v44.138H70.155L0,240.171v7A8.829,8.829,0,0,0,8.828,256H24.161l81.77-53.573V256h44.138V202.427L231.838,256h15.333A8.829,8.829,0,0,0,256,247.172v-7l-70.154-45.963H256V150.069H185.844L256,104.106v-7A8.827,8.827,0,0,0,247.172,88.276Z" fill="#f5f5f5"/><path d="M256,158.9H141.241V88.276H114.758V158.9H0v26.482H114.758V256h26.483V185.379H256Z" fill="#ff4b55"/><path d="M97.1,150.069l-92.9-60.3A8.686,8.686,0,0,0,0,97.1v.458l80.889,52.507Z" fill="#ff4b55"/><path d="M166.283,150.069,254.657,92.7a8.7,8.7,0,0,0-7.485-4.427h-1.909l-95.194,61.793Z" fill="#ff4b55"/><path d="M89.474,194.207l-88.2,57.256A8.717,8.717,0,0,0,8.828,256h1.665l95.2-61.793Z" fill="#ff4b55"/><path d="M255.859,247.867l-82.666-53.659H156.98l93.873,60.934A8.739,8.739,0,0,0,255.859,247.867Z" fill="#ff4b55"/><path d="M387.206,177.365a.957.957,0,0,1-.575-.193c-.138-.106-13.838-10.783-5.769-28.879a.953.953,0,1,1,1.741.777c-7.443,16.687,4.662,26.19,5.181,26.586a.952.952,0,0,1-.578,1.709Z" fill="#73af00"/><path d="M379.315,161.734a1.019,1.019,0,0,1-.111-.006.953.953,0,0,1-.836-1.056c.4-3.422,1.683-5.81,3.828-7.1,3.449-2.073,7.76-.417,7.941-.344a.952.952,0,0,1-.694,1.772c-.038-.014-3.638-1.382-6.276.209-1.6.969-2.583,2.879-2.9,5.679A.956.956,0,0,1,379.315,161.734Z" fill="#73af00"/><path d="M381.9,149.46c-.082-.21-2.141-5.1-11.447-3.018-10.539,2.361-10.661,16.264-10.661,16.4a.953.953,0,0,0,.831.945.838.838,0,0,0,.121.008.95.95,0,0,0,.92-.711c3.928-14.962,18.557-12.449,19.178-12.34a.953.953,0,0,0,1.058-1.287Z" fill="#73af00"/><path d="M379.709,157.211s-6.348-4.046-8.967,1.111-.634,10.712.4,12.933c0,0,3.784-4.183,7.38-4.761,4.444-.714,5.555-6.269,2.46-9.046C377.281,154.131,379.709,157.211,379.709,157.211Z" fill="#73af00"/><path d="M386.644,147.731c-.09,5.554,3.005,6.282,3.005,6.282A4.364,4.364,0,0,0,386.644,147.731Z" fill="#73af00"/><path d="M385.675,159.4c.042-5.27,3.616-5.863,3.616-5.863C391.457,158.433,385.675,159.4,385.675,159.4Z" fill="#73af00"/><path d="M406.291,155.147s-5.054-.747-6.993-1.663c-1.613-.761-3.719-2.6-6.444-2.24a3.772,3.772,0,0,0-3.772,3.772c0,2.084,1.431,4.579,8.917,4.025a13.683,13.683,0,0,1,6.721,1.389C404.245,158.447,406.291,155.147,406.291,155.147Z" fill="#ff4b55"/><path d="M401.046,156.8s-7.752.537-9.454-.717c-1.571-1.158-1.161-3,.448-3.181C394.46,152.634,401.046,156.8,401.046,156.8Z" fill="#ffe15a"/><path d="M416.13,165.581l-17.14,10.712-1.964-1.9,9.4-9.106,2.2.893,2.143-2.857-5.118-2.678s-13.569,12.794-25.113,13.866a23.865,23.865,0,0,1-10.929-1.164l-6.925,9.972,14.52,12.378,21.3-.833,17.615-23.924,3.094,1.428,2.618-3.094Z" fill="#b49b91"/><path d="M368.364,194.424a8.647,8.647,0,1,1,8.645-8.646A8.658,8.658,0,0,1,368.364,194.424Zm0-14.437a5.79,5.79,0,1,0,5.79,5.791A5.8,5.8,0,0,0,368.364,179.987Z" fill="#9b8278"/><path d="M404.386,202.439s1.587-1.032,3.174-5.871l-3.253.476a9.814,9.814,0,0,0-.079-4.682l-3.65,2.857s-1.666-3.491-2.38-3.967c0,0-2.539,3.571-3.967,4.046,0,0-1.428-5.158-2.857-6.189l-2.46,3.491-3.65-2.857s0,2.46-.079,3.016-4.761-4.919-4.761-4.919-2.063.873-4.84,5.316l-3.491-3.571-1.428,4.682-4.84-1.27.793,2.777-4.2-.318s.714,4.126,2.777,5.555Z" fill="#73af00"/><path d="M362.332,220.094s-13.092,16.663-37.849,14.759l26.9,3.69,13.806-13.092Z" fill="#73af00"/><path d="M319.6,232.353c2.618,1.9,18.806,6.547,30.469.952,0,0,.238,2.738-1.071,4.285,0,0,8.569-3.452,13.212-9.879s-9.641,13.806-9.641,13.806l-21.9,4.046-8.927-7.38Z" fill="#ffe15a"/><path d="M317.882,172.349a11.519,11.519,0,0,0-7.662,4.122,5.091,5.091,0,0,0-4.436.537c-2.148,1.432-6.118,6.6-9.45,5.236a4.371,4.371,0,0,0,4.879,4.7,9.036,9.036,0,0,0-1.071,5.237,7.14,7.14,0,0,1-2.083,5.356s10.474,1.487,10.891-6.665c.051-1,.1-1.874.15-2.657,5.466,2.952,7.617-1.215,7.617-1.215s-3.285-3.1.058-7.52,12.533,6,12.533,6C329.488,181.311,329.114,171.4,317.882,172.349Z" fill="#ffe15a"/><path d="M358.364,199.82s-3.015,2.063-12.378.159c0,0,2.063-4.6,1.111-7.3,0,0-2.539,2.38-8.728,4.761s-13.806,10-16.029,14.917c0,0,13.92-32.088,2.738-35.35a7.6,7.6,0,0,0-8.3,2.474,4.715,4.715,0,0,1,1.161,2.882c.119,2.738-2.618,21.186-6.665,33.921,0,0-1.191-4.4-3.094-6.547a23.617,23.617,0,0,1-3.332-5.594,6.675,6.675,0,0,0-2.738,6.07s-1.785-1.428-5.237-.476-4.761-1.31-4.761-1.31-2.857,7.617,5.594,11.545a23.8,23.8,0,0,0-3.332,1.9,5.12,5.12,0,0,1-2.738.833,12.62,12.62,0,0,0,9.283,6.07c6.308.6,9.207,2.393,11.188,5.633,6.428,10.514,18.727,18.488,38.8,6.189,0,0-28.565,8.887-29.835-9.363-1.111-15.965,16.345-19.2,18.091-15.711a6.961,6.961,0,0,1-.159,6.507s9.522-2.221,4.919-10.951C343.923,211.088,353.286,212.517,358.364,199.82Z" fill="#73af00"/><path d="M450.051,232.353c-2.618,1.9-19.162,9.046-30.589-2.38s-15.882-28.581-15.235-26.661H392.8l3.809,34.279,42.372,7.975,8.927-7.38Z" fill="#73af00"/><path d="M451.773,172.349a11.519,11.519,0,0,1,7.662,4.122,5.091,5.091,0,0,1,4.436.537c2.148,1.432,6.117,6.6,9.45,5.236a4.371,4.371,0,0,1-4.879,4.7,9.036,9.036,0,0,1,1.071,5.237,7.14,7.14,0,0,0,2.083,5.356s-10.474,1.487-10.891-6.665c-.051-1-.1-1.874-.15-2.657-5.466,2.952-7.617-1.215-7.617-1.215s3.284-3.1-.059-7.52-12.533,6-12.533,6C440.167,181.311,440.541,171.4,451.773,172.349Z" fill="#73af00"/><path d="M411.29,199.82s3.015,2.063,12.378.159c0,0-2.063-4.6-1.111-7.3,0,0,2.539,2.38,8.728,4.761s13.806,10,16.029,14.917c0,0-13.92-32.088-2.738-35.35a7.6,7.6,0,0,1,8.3,2.474,4.715,4.715,0,0,0-1.161,2.882c-.119,2.738,2.618,21.186,6.665,33.921,0,0,1.191-4.4,3.094-6.547a23.617,23.617,0,0,0,3.332-5.594,6.675,6.675,0,0,1,2.738,6.07s1.785-1.428,5.237-.476,4.761-1.31,4.761-1.31,2.857,7.617-5.594,11.545a23.8,23.8,0,0,1,3.332,1.9,5.12,5.12,0,0,0,2.738.833,12.62,12.62,0,0,1-9.283,6.07c-6.308.6-9.207,2.393-11.188,5.633-6.428,10.514-18.727,18.488-38.8,6.189,0,0,28.565,8.887,29.835-9.363,1.111-15.965-16.345-19.2-18.091-15.711a6.961,6.961,0,0,0,.159,6.507s-9.522-2.221-4.919-10.951C425.732,211.088,416.368,212.517,411.29,199.82Z" fill="#ffe15a"/><path d="M403.2,226.482c4.682,6.824,11.188,13.013,30.073,18.884S457.2,252.11,467.1,260.115a11.987,11.987,0,0,1,2.6,5.167c.845,3.738-4.919,14.52-4.919,14.52s.555-2.539-2.936-7.458-24.122-13.806-34.913-16.5-29.439-15.215-24.28-24.6Z" fill="#73af00"/><path d="M467.081,260.086c.008.01.011.02.019.03l-.034-.039Z" fill="#73af00"/><path d="M466.6,283.3a8.32,8.32,0,0,1-2.38,6.428c-2.857,2.976-4.879,5.118-4.761,7.617,0,0-4.285-3.094-3.571-10,0,0-5.594,4.642-14.045.119,0,0,.833-8.45,11.784-9.522,0,0-4.285-3.332,1.31-8.45,0,0,.65,2.289,5.713,3.452,4.4,1.012,12.239-4.511,6.445-12.824C477.078,271.393,471.96,279.129,466.6,283.3Z" fill="#ffe15a"/><path d="M399.11,220.213s2.413,3.945,8.689,7.776c7.538,4.6,8.213,6.744,8.213,6.744l-5.118-.119s6.547,3.571,8.332,8.094a15,15,0,0,1-5.832-.358s2.5,2.261,1.31,9.522H401.968Z" fill="#ffe15a"/><path d="M373.758,252.825V222.356s-10.342,17.693-19.275,30.469Z" fill="#73af00"/><path d="M364.862,221.72c-2.539,4.6-10.474,19.758-29.359,25.63s-22.337,4.761-32.234,12.765a11.987,11.987,0,0,0-2.6,5.167c-.845,3.738,4.919,14.52,4.919,14.52s-.555-2.539,2.936-7.458,24.005-14.324,34.913-16.5c15.085-3.016,28.733-19.2,26.511-29.676S364.862,221.72,364.862,221.72Z" fill="#ffe15a"/><path d="M303.288,260.086c-.008.01-.011.02-.019.03l.034-.039Z" fill="#73af00"/><path d="M303.764,283.3a8.32,8.32,0,0,0,2.38,6.428c2.857,2.976,4.879,5.118,4.761,7.617,0,0,4.285-3.094,3.571-10,0,0,5.594,4.642,14.045.119,0,0-.833-8.45-11.784-9.522,0,0,4.285-3.332-1.309-8.45,0,0-.65,2.289-5.713,3.452-4.4,1.012-12.239-4.511-6.445-12.824C293.29,271.393,298.408,279.129,303.764,283.3Z" fill="#73af00"/><path d="M330.117,334.078a137.822,137.822,0,0,1,2.857,24.677s11.823.4,17.536-8.49c0,0-11.426-5.951-17.536-17.457Z" fill="#ffe15a"/><path d="M327.578,307.258c-.476-5.713,2.063-20.154,13.647-30.628l.284-12.826A12.949,12.949,0,0,0,335,266.842l-6.547,10.145-6.07,22.972Z" fill="#73af00"/><path d="M327.894,311.384s0,12.22,5.078,21.424l-2.857,1.269s-10.236-8.054-12.378-24.6c0,0-9.165,6.07-12.537-6.348,0,0,9.839,3.968,13.013-5.078,2.863-8.162,5.758-23.02,16.783-31.212-5.241,8.055-13.133,28.673-7.023,35.973,1.618,1.933,6.269,3.571,11.359,1.4C339,308.272,337.064,314.477,327.894,311.384Z" fill="#ffe15a"/><path d="M329.377,336.245l-1.672-3.072a1.109,1.109,0,0,1,.444-1.5l3.051-1.658a1.107,1.107,0,0,1,1.5.444l1.672,3.072a1.109,1.109,0,0,1-.444,1.5l-3.051,1.658A1.107,1.107,0,0,1,329.377,336.245Z" fill="#ffce5a"/><path d="M432.635,334.078a137.822,137.822,0,0,0-2.857,24.677s-11.823.4-17.536-8.49c0,0,11.426-5.951,17.536-17.457Z" fill="#ffe15a"/><path d="M435.174,307.258c.476-5.713-2.063-20.154-13.647-30.628l-.284-12.826a12.949,12.949,0,0,1,6.511,3.038l6.547,10.145,6.07,22.972Z" fill="#ffe15a"/><path d="M423.419,304.212c5.09,2.174,9.741.536,11.359-1.4,6.11-7.3-1.782-27.918-7.023-35.973,11.026,8.192,13.919,23.05,16.783,31.212,3.174,9.046,13.013,5.078,13.013,5.078-3.372,12.418-12.537,6.348-12.537,6.348-2.143,16.544-12.378,24.6-12.378,24.6l-2.857-1.269c5.078-9.2,5.078-21.425,5.078-21.425C425.687,314.477,423.751,308.272,423.419,304.212Z" fill="#73af00"/><path d="M433.374,336.245l1.672-3.072a1.109,1.109,0,0,0-.444-1.5l-3.051-1.658a1.107,1.107,0,0,0-1.5.444l-1.672,3.072a1.109,1.109,0,0,0,.444,1.5l3.051,1.658A1.107,1.107,0,0,0,433.374,336.245Z" fill="#ffce5a"/><path d="M343.289,249.016a3.809,3.809,0,0,0-3.809,3.809v41.9c0,11.426,3.809,53.322,41.9,68.557,38.088-15.235,41.9-57.131,41.9-68.557v-41.9a3.809,3.809,0,0,0-3.809-3.809Z" fill="#4173cd"/><path d="M379.067,249.016l-36.121,69.231a83.841,83.841,0,0,0,3.446,9.864l34.984-67.053,34.984,67.053a83.97,83.97,0,0,0,3.446-9.864l-36.121-69.231Z" fill="#ffe15a"/><path d="M416.359,328.112l-34.984-67.053-34.984,67.053h0c5.762,13.639,16.188,27.649,34.984,35.167,18.8-7.519,29.223-21.529,34.984-35.167Z" fill="#73af00"/><path d="M395.539,332.451l2.3,1.105a19,19,0,0,1-6.823,5.831,81.146,81.146,0,0,0-7.741,4.885V312.839l9.522-.979v-3.809l-9.522-.979v-4.734a1.905,1.905,0,0,0-1.9-1.9,1.877,1.877,0,0,0-1.816,1.469,3.761,3.761,0,0,0-2.2-.777,3.871,3.871,0,0,0-3.866,3.866,3.826,3.826,0,0,0,1.037,2.589l-4.578.471v3.809l9.522.979v31.433a80.7,80.7,0,0,0-7.741-4.885,18.983,18.983,0,0,1-6.823-5.831l2.3-1.105-8.689-11.069v15.235l2.929-1.4a22.066,22.066,0,0,0,8.46,7.519,84.054,84.054,0,0,1,9.559,6.254l1.9,1.476,1.9-1.476a84.144,84.144,0,0,1,9.559-6.254,22.066,22.066,0,0,0,8.46-7.519l2.929,1.4V321.382Zm-18.183-25.5a1.962,1.962,0,1,1,1.962-1.962A1.963,1.963,0,0,1,377.356,306.955Z" fill="#ffe15a"/><path d="M384.318,298.53h-5.885a2.771,2.771,0,0,1-2.771-2.771v-9.694a2.771,2.771,0,0,1,2.771-2.771h5.885a2.771,2.771,0,0,1,2.771,2.771v9.694A2.77,2.77,0,0,1,384.318,298.53Z" fill="#f5f5f5"/><path d="M408.037,249.016c-7.617-11.426-7.617-34.279-7.617-34.279s0-15.235-19.043-15.235c-9.647,0-14.4,3.91-16.746,7.767a30.647,30.647,0,0,0-13.724,11.276,28.055,28.055,0,0,0,10.463,3.115c6.209,7.389,8.275,14.524,8.824,19.656-3.576,3.652-5.559,12.46-.243,19.125a51.134,51.134,0,0,0,20.779-11.426h17.307Z" fill="#b49b91"/><path d="M390.728,249.016h14.215C404.228,241.994,397.324,243.125,390.728,249.016Z" fill="#9b8278"/><path d="M404.588,241.826c-4.163-11.818-4.169-27.088-4.169-27.088s0-.248-.04-.675c-4.959-.673-10.035-.308-19.956,3.532-10.563,4.088-15.734,4.205-19.055,4.067,6.209,7.389,8.275,14.524,8.824,19.656l.153,8.1s5.951.873,19.043-6.666C395.92,238.988,401.456,238.666,404.588,241.826Z" fill="#9b8278"/><path d="M384.311,213.072c7.725-1.931,12.654-1.732,15.83-.6-.851-4.243-4.349-12.964-18.765-12.964-9.647,0-14.4,3.91-16.746,7.767l-5.789,8.1S366.081,217.629,384.311,213.072Z" fill="#9b8278"/><path d="M368.789,197.837c.75.748,2.988,6.144,2.527,6.946-.3.515-6.257,2-7.223,1.241-.862-.674-1.87-6.486-1.293-7.157C363.323,198.261,368.163,197.213,368.789,197.837Z" fill="#ffe15a"/><path d="M376.453,197.549c.692.793,2.26,6.068,1.639,6.741-.4.433-7.042.957-7.965.127-.822-.74-1-6.227-.278-6.761C370.505,197.171,375.876,196.887,376.453,197.549Z" fill="#73af00"/><path d="M383.706,197.349c.717.747,2.353,5.707,1.711,6.337-.413.4-7.284.882-8.241.1-.853-.7-1.054-5.852-.3-6.353C377.552,196.979,383.108,196.726,383.706,197.349Z" fill="#ffe15a"/><path d="M391.077,197.694c.635.815,1.831,6.019,1.165,6.623-.428.387-7.09.4-7.951-.465-.768-.776-.568-6.08.193-6.542C385.171,196.892,390.547,197.013,391.077,197.694Z" fill="#73af00"/><path d="M406.289,200.848c.491.909.444,5.743-.313,6.228-.487.311-6.485-.758-7.191-1.758-.63-.892.444-6.09,1.271-6.421C400.8,198.6,405.879,200.088,406.289,200.848Z" fill="#73af00"/><path d="M399.3,198.786c.6.828,1.059,5.681.334,6.194-.466.33-7.33-.234-8.162-1.131-.743-.8-.2-5.8.613-6.175C392.821,197.336,398.8,198.1,399.3,198.786Z" fill="#ffe15a"/><circle cx="2.59" cy="2.59" r="2.59" transform="translate(365.77 183.19)" fill="#9b8278"/></g></svg>