<svg xmlns="http://www.w3.org/2000/svg" width="512" height="335.449" viewBox="0 0 512 335.449"><g transform="translate(0 -88.276)"><path d="M503.172,423.725H8.828A8.829,8.829,0,0,1,0,414.9V97.1a8.829,8.829,0,0,1,8.828-8.828H503.173A8.829,8.829,0,0,1,512,97.1V414.9A8.83,8.83,0,0,1,503.172,423.725Z" fill="#ff4b55"/><path d="M185.379,88.277H8.828A8.828,8.828,0,0,0,0,97.1V414.9a8.829,8.829,0,0,0,8.828,8.828H185.38V88.277Z" fill="#73af00"/><circle cx="79.38" cy="79.38" r="79.38" transform="translate(106.07 176.621)" fill="#ffe15a"/><path d="M211.932,229.518v35.31a26.483,26.483,0,0,1-52.966,0v-35.31h52.966m8.827-17.655H150.138a8.829,8.829,0,0,0-8.828,8.828v44.138a44.138,44.138,0,1,0,88.276,0V220.691a8.827,8.827,0,0,0-8.827-8.828Z" fill="#ff4b55"/><path d="M211.932,229.518v35.31a26.483,26.483,0,0,1-52.966,0v-35.31h52.966" fill="#f5f5f5"/><circle cx="4.414" cy="4.414" r="4.414" transform="translate(145.656 216.277)" fill="#ffe15a"/><circle cx="4.414" cy="4.414" r="4.414" transform="translate(216.276 216.277)" fill="#ffe15a"/><circle cx="4.414" cy="4.414" r="4.414" transform="translate(145.656 251.587)" fill="#ffe15a"/><circle cx="4.414" cy="4.414" r="4.414" transform="translate(216.276 251.587)" fill="#ffe15a"/><circle cx="4.414" cy="4.414" r="4.414" transform="translate(180.966 216.277)" fill="#ffe15a"/><circle cx="4.414" cy="4.414" r="4.414" transform="translate(207.466 284.137)" fill="#ffe15a"/><circle cx="4.414" cy="4.414" r="4.414" transform="translate(154.986 284.137)" fill="#ffe15a"/><path d="M191.149,253.763v7.6a5.7,5.7,0,0,1-11.4,0v-7.6h11.4" fill="#41479b"/><path d="M191.149,235.741v7.6a5.7,5.7,0,0,1-11.4,0v-7.6h11.4" fill="#41479b"/><path d="M191.149,271.97v7.6a5.7,5.7,0,0,1-11.4,0v-7.6h11.4" fill="#41479b"/><path d="M206.506,253.763v7.6a5.7,5.7,0,1,1-11.4,0v-7.6h11.4" fill="#41479b"/><path d="M175.794,253.763v7.6a5.7,5.7,0,1,1-11.4,0v-7.6h11.4" fill="#41479b"/></g></svg>