<svg xmlns="http://www.w3.org/2000/svg" width="512" height="335.449" viewBox="0 0 512 335.449"><g transform="translate(0 -88.276)"><path d="M512,155.367H0V97.1a8.829,8.829,0,0,1,8.828-8.828H503.173A8.829,8.829,0,0,1,512,97.1v58.263Z" fill="#ff4b55"/><rect width="512" height="67.09" transform="translate(0 155.371)" fill="#f5f5f5"/><rect width="512" height="67.09" transform="translate(0 222.461)" fill="#ff4b55"/><path d="M503.172,423.725H8.828A8.829,8.829,0,0,1,0,414.9V356.635H512V414.9A8.828,8.828,0,0,1,503.172,423.725Z" fill="#ff4b55"/><rect width="512" height="67.09" transform="translate(0 289.551)" fill="#f5f5f5"/><path d="M3.256,421.591,247.6,261.505a6.58,6.58,0,0,0,0-11.009L3.256,90.411A8.683,8.683,0,0,0,0,97.1V414.9A8.683,8.683,0,0,0,3.256,421.591Z" fill="#41479b"/><path d="M90.183,215.027,99.4,242.65l29.118.226a3.924,3.924,0,0,1,2.3,7.08l-23.424,17.3,8.783,27.763a3.923,3.923,0,0,1-6.023,4.375L86.461,282.46l-23.69,16.932a3.924,3.924,0,0,1-6.023-4.375l8.783-27.763-23.424-17.3a3.924,3.924,0,0,1,2.3-7.08l29.118-.226,9.213-27.623A3.923,3.923,0,0,1,90.183,215.027Z" fill="#f5f5f5"/></g></svg>