<svg xmlns="http://www.w3.org/2000/svg" width="512" height="335.449" viewBox="0 0 512 335.449"><g transform="translate(0 -88.276)"><path d="M238.345,423.725H8.828A8.829,8.829,0,0,1,0,414.9V97.1a8.829,8.829,0,0,1,8.828-8.828H238.345Z" fill="#f5f5f5"/><path d="M503.172,88.277h-335.8a2.307,2.307,0,0,1,.689.1l53.386,16.312a2.355,2.355,0,0,1,0,4.5L175.11,123.306a2.355,2.355,0,0,0,0,4.5l46.34,14.162a2.354,2.354,0,0,1,0,4.5L175.11,160.586a2.355,2.355,0,0,0,0,4.505l46.34,14.162a2.354,2.354,0,0,1,0,4.5l-46.322,14.1a2.355,2.355,0,0,0,0,4.506l46.322,14.1a2.355,2.355,0,0,1,0,4.505l-46.34,14.162a2.355,2.355,0,0,0,0,4.505l46.336,14.108a2.355,2.355,0,0,1,0,4.505l-46.34,14.162a2.355,2.355,0,0,0,0,4.505l46.336,14.108a2.354,2.354,0,0,1,0,4.5l-46.34,14.162a2.355,2.355,0,0,0,0,4.505l46.335,14.109a2.354,2.354,0,0,1,0,4.5l-46.339,14.161a2.355,2.355,0,0,0,0,4.505l46.322,14.105a2.354,2.354,0,0,1,0,4.5L175.11,384.193a2.354,2.354,0,0,0,0,4.5l46.34,14.162a2.354,2.354,0,0,1,0,4.5L168.06,423.618a2.347,2.347,0,0,1-.686.1h335.8A8.829,8.829,0,0,0,512,414.893V97.1A8.829,8.829,0,0,0,503.172,88.277Z" fill="#873250"/></g></svg>