<svg xmlns="http://www.w3.org/2000/svg" width="512" height="335.448" viewBox="0 0 512 335.448"><g transform="translate(0 -88.276)"><path d="M503.172,88.276H361.931L2.7,421.218a8.774,8.774,0,0,0,6.124,2.506H150.068L509.3,90.782A8.772,8.772,0,0,0,503.172,88.276Z" fill="#ffe15a"/><path d="M361.931,88.276H8.828A8.828,8.828,0,0,0,0,97.1V414.9a8.776,8.776,0,0,0,2.7,6.322Z" fill="#73af00"/><path d="M509.3,90.782,150.069,423.724h353.1A8.829,8.829,0,0,0,512,414.9V97.1A8.77,8.77,0,0,0,509.3,90.782Z" fill="#ff4b55"/></g></svg>