<svg xmlns="http://www.w3.org/2000/svg" width="512" height="335.45" viewBox="0 0 512 335.45"><g transform="translate(0 -88.275)"><path d="M512,256H0V97.1a8.829,8.829,0,0,1,8.828-8.828H503.173A8.829,8.829,0,0,1,512,97.1V256Z" fill="#4173cd"/><path d="M0,256H512V414.9a8.829,8.829,0,0,1-8.828,8.828H8.828A8.829,8.829,0,0,1,0,414.9Z" fill="#4173cd"/><rect width="512" height="83.86" transform="translate(0 256)" fill="#ffe15a"/><path d="M8.828,423.724H503.173A8.829,8.829,0,0,0,512,414.9V339.862H0V414.9A8.828,8.828,0,0,0,8.828,423.724Z" fill="#73af00"/><path d="M458.211,178.12l36.134-5.982-36.134-5.982L489.3,146.8l-35.672,8.3,21.321-29.78-29.78,21.321,8.3-35.672-19.354,31.094-5.983-36.135-5.982,36.134L402.8,110.971l8.3,35.672-29.78-21.321,21.321,29.78-35.672-8.3,31.094,19.354-36.135,5.983,36.134,5.982-31.094,19.354,35.672-8.3-21.321,29.78,29.78-21.321L402.8,233.3l19.354-31.094,5.983,36.135,5.982-36.134,19.354,31.094-8.3-35.672,29.78,21.321-21.321-29.78,35.672,8.3Zm-30.073,16.087a22.069,22.069,0,1,1,22.069-22.069A22.068,22.068,0,0,1,428.138,194.207Z" fill="#ffe15a"/><circle cx="16.552" cy="16.552" r="16.552" transform="translate(411.588 155.588)" fill="#ffe15a"/></g></svg>