<svg xmlns="http://www.w3.org/2000/svg" width="512" height="335.449" viewBox="0 0 512 335.449"><g transform="translate(0 -88.276)"><path d="M503.172,423.725H8.828A8.829,8.829,0,0,1,0,414.9V97.1a8.829,8.829,0,0,1,8.828-8.828H503.173A8.829,8.829,0,0,1,512,97.1V414.9A8.83,8.83,0,0,1,503.172,423.725Z" fill="#f5f5f5"/><path d="M208.865,322.147a106.018,106.018,0,0,1-52.606-29.714v31.1a129.023,129.023,0,0,0,52.606,22.613Z" fill="#ffecd7"/><path d="M303.085,322.147a106.018,106.018,0,0,0,52.606-29.714v31.1a129.023,129.023,0,0,1-52.606,22.613Z" fill="#ffecd7"/><path d="M199.836,254.745c-.981.2-2.356,2.748-2.748,7.066s-3.14,22.573-9.03,20.61-9.814-10.6-9.814-10.6L170,283.8a15.7,15.7,0,0,1,11.189.393c5.693,2.552,7.066,3.926,8.637,2.356s5.3-6.281,8.244-5.889l3.337-23.752Z" fill="#ffe15a"/><path d="M167.252,293.807s-1.374,11.385-.589,12.759,22.377,6.477,22.377,6.477-6.281,5.1-6.477,7.852c0,0-7.656,1.374-10.4,3.73l-10.207-16.881-.393-13.937Z" fill="#ffe15a"/><path d="M160.43,190.264l.147-5.889s-6.92-.736-7.8,14.869l-2.5-6.92s-5.153,6.92-2.061,18.108l-1.325,1.031a86.018,86.018,0,0,1-10.894-20.61s-6.92,5.447,1.177,20.9L127.159,199.1s-5,10.6,10.01,23.261l-14.133-10.01s-.883,11.484,12.808,18.844l-13.692-7.361s.441,11.041,16.341,16.489l-15.017-2.8a21.516,21.516,0,0,0,14.906,11.463,19.382,19.382,0,0,0-5.043,10.62l11.189-6.184s-5.3,5.447-3.828,12.956l17.225-17.225-2.354-1.053c13.031-2.444,10.3-3.364,10.3-3.364s-9.619-24.733-3.14-41.81,12.17-19.433,12.17-20.218S167.938,180.989,160.43,190.264Z" fill="#ffecd7"/><path d="M173.729,200.176s22.377,23.555,22.77,25.715-2.356,1.767-2.356,1.767-5.5-7.066-12.956-9.814-12.366-11.385-15.31-13.347S173.729,200.176,173.729,200.176Z" fill="#ffe15a"/><path d="M166.27,205.869c2.944.981,9.619-.393,9.422-6.477s-6.281-8.44-10.8-7.066-12.956,7.656-7.656,19.826,13.152,16.685,14.722,27.089c0,0-7.066,1.079-10.8.2-3.206-.759-8.637-3.337-7.459-10.4s3.926-11.189,1.57-15.115-9.814-10.8-9.814-10.8-16.1,41.221,12.956,52.018c0,0-13.74,13.152-20.61,25.91l4.122,1.177s-7.263,7.852-11.385,10.8c0,0,13.544,4.711,26.892-10.6a33.9,33.9,0,0,1,4.122,11.385h5.693a34.719,34.719,0,0,1,10.993-17.273c9.03-7.852,18.194-19.048,17.273-29.248-1.079-11.974-10.1-17.361-19.482-24.782C163.374,212.494,166.27,205.869,166.27,205.869Z" fill="#fff5e1"/><path d="M312.164,254.745c.981.2,2.356,2.748,2.748,7.066s3.14,22.573,9.03,20.61,9.815-10.6,9.815-10.6L342,283.8a15.7,15.7,0,0,0-11.189.393c-5.693,2.552-7.066,3.926-8.637,2.356s-5.3-6.281-8.244-5.889L310.594,256.9Z" fill="#ffe15a"/><path d="M344.748,293.807s1.374,11.385.589,12.759-22.377,6.477-22.377,6.477,6.281,5.1,6.477,7.852c0,0,7.656,1.374,10.4,3.73l10.207-16.881.393-13.937h-5.692Z" fill="#ffe15a"/><path d="M351.57,190.264l-.147-5.889s6.92-.736,7.8,14.869l2.5-6.92s5.153,6.92,2.061,18.108l1.325,1.031a86.018,86.018,0,0,0,10.894-20.61s6.92,5.447-1.177,20.9l10.01-12.661s5.005,10.6-10.01,23.261l14.133-10.01s.884,11.484-12.808,18.844l13.692-7.361s-.441,11.041-16.341,16.489l15.017-2.8a21.516,21.516,0,0,1-14.906,11.463,19.382,19.382,0,0,1,5.043,10.62l-11.189-6.184s5.3,5.447,3.828,12.956l-17.225-17.225,2.354-1.053c-13.032-2.444-10.3-3.364-10.3-3.364s9.619-24.733,3.14-41.81-12.17-19.433-12.17-20.218S344.062,180.989,351.57,190.264Z" fill="#ffecd7"/><path d="M338.271,200.176s-22.377,23.555-22.77,25.715,2.356,1.767,2.356,1.767,5.5-7.066,12.956-9.814,12.366-11.385,15.31-13.347S338.271,200.176,338.271,200.176Z" fill="#ffe15a"/><path d="M345.73,205.869c-2.944.981-9.619-.393-9.422-6.477s6.281-8.44,10.8-7.066,12.956,7.656,7.656,19.826-13.152,16.685-14.722,27.089c0,0,7.066,1.079,10.8.2,3.206-.759,8.637-3.337,7.459-10.4s-3.926-11.189-1.57-15.115,9.814-10.8,9.814-10.8,16.1,41.221-12.956,52.018c0,0,13.74,13.152,20.61,25.91l-4.122,1.177s7.263,7.852,11.385,10.8c0,0-13.544,4.711-26.892-10.6a33.9,33.9,0,0,0-4.122,11.385h-5.693a34.719,34.719,0,0,0-10.993-17.273c-9.03-7.852-18.194-19.048-17.273-29.248,1.079-11.974,10.1-17.361,19.482-24.782C348.626,212.494,345.73,205.869,345.73,205.869Z" fill="#fff5e1"/><rect width="113.06" height="22.77" transform="translate(199.45 166.031)" fill="#464655"/><path d="M255.976,184.08H199.444v75.377c0,14.133,9.422,51.821,56.532,65.954,47.11-14.133,56.532-51.821,56.532-65.954V184.08Z" fill="#41479b"/><path d="M199.444,259.457a54.416,54.416,0,0,0,2.172,14.133H310.337a54.416,54.416,0,0,0,2.172-14.133V231.191H199.444Z" fill="#ff4b55"/><path d="M255.976,252.391l-6.6,16.487,6.6-3.3,6.6,3.3Z" fill="#f5f5f5"/><path d="M255.976,252.391l6.6-16.489-6.6,3.3-6.6-3.3Z" fill="#f5f5f5"/><path d="M255.976,252.391l-16.489-6.6,3.3,6.6-3.3,6.595Z" fill="#f5f5f5"/><path d="M255.976,252.391l16.487,6.595-3.3-6.595,3.3-6.6Z" fill="#f5f5f5"/><path d="M263.382,200.738a9.386,9.386,0,0,0-2.941.776c.992-2.479,1.692-4.806,1.076-6.435-1.505-3.985-4.4-3.272-5.514-6.177v-.11c-.008.022-.02.034-.028.055-.008-.022-.02-.034-.028-.055v.11c-1.114,2.9-4.009,2.193-5.514,6.177-.616,1.63.084,3.955,1.076,6.435a9.35,9.35,0,0,0-2.942-.776c-2.246-.36-5.658,1.976-4.94,6.467s5.928,4.851,5.928,4.851a3.262,3.262,0,0,1-.988-3.144c.359-1.258,2.964-2.335,4.311,1.886s-3.233,10.24-3.233,10.24a7.5,7.5,0,0,0,3.54-1.067c-1.087,3.545,2.47,6.289,2.761,6.5v.042l.028-.021.028.021v-.042c.291-.215,3.848-2.958,2.761-6.5a7.5,7.5,0,0,0,3.54,1.066s-4.58-6.018-3.233-10.24,3.953-3.144,4.311-1.886a3.258,3.258,0,0,1-.988,3.144s5.209-.36,5.928-4.851S265.628,200.378,263.382,200.738Z" fill="#ffe15a"/><path d="M298.048,200.738a9.386,9.386,0,0,0-2.941.776c.992-2.479,1.692-4.806,1.076-6.435-1.505-3.985-4.4-3.272-5.514-6.177v-.11c-.008.022-.02.034-.028.055-.008-.022-.02-.034-.028-.055v.11c-1.114,2.9-4.009,2.193-5.514,6.177-.616,1.63.084,3.955,1.076,6.435a9.35,9.35,0,0,0-2.942-.776c-2.246-.36-5.658,1.976-4.94,6.467s5.928,4.851,5.928,4.851a3.262,3.262,0,0,1-.988-3.144c.36-1.258,2.964-2.335,4.311,1.886s-3.233,10.24-3.233,10.24a7.5,7.5,0,0,0,3.54-1.067c-1.087,3.545,2.47,6.289,2.761,6.5v.042l.028-.021.028.021v-.042c.291-.215,3.848-2.958,2.761-6.5a7.5,7.5,0,0,0,3.54,1.066s-4.58-6.018-3.233-10.24,3.953-3.144,4.311-1.886a3.258,3.258,0,0,1-.988,3.144s5.209-.36,5.928-4.851S300.294,200.378,298.048,200.738Z" fill="#ffe15a"/><path d="M228.716,200.738a9.386,9.386,0,0,0-2.941.776c.992-2.479,1.692-4.806,1.076-6.435-1.505-3.985-4.4-3.272-5.514-6.177v-.11c-.008.022-.02.034-.028.055-.008-.022-.02-.034-.028-.055v.11c-1.114,2.9-4.009,2.193-5.514,6.177-.616,1.63.084,3.955,1.076,6.435a9.35,9.35,0,0,0-2.942-.776c-2.246-.36-5.658,1.976-4.94,6.467s5.928,4.851,5.928,4.851a3.262,3.262,0,0,1-.988-3.144c.36-1.258,2.964-2.335,4.311,1.886s-3.233,10.24-3.233,10.24a7.5,7.5,0,0,0,3.54-1.067c-1.087,3.545,2.47,6.289,2.761,6.5v.042l.028-.021.028.021v-.042c.291-.215,3.848-2.958,2.761-6.5a7.5,7.5,0,0,0,3.54,1.066s-4.58-6.018-3.233-10.24,3.953-3.144,4.311-1.886a3.258,3.258,0,0,1-.988,3.144s5.209-.36,5.928-4.851S230.962,200.378,228.716,200.738Z" fill="#ffe15a"/><path d="M267.032,297.8a2.283,2.283,0,0,0-2.72,2.143s0,.29-.012.693a2.366,2.366,0,0,0-1.017-.244,2.411,2.411,0,0,0,0,4.821,2.126,2.126,0,0,0,.3-.061,6.829,6.829,0,0,1-1.73,2.951h-3.218c-.846-.937-1.1-2.771-1.159-4.1.052,0,.092.04.145.04a1.974,1.974,0,0,0,.037-3.947,1.923,1.923,0,0,0,.3-.978,1.977,1.977,0,0,0-3.954,0,1.926,1.926,0,0,0,.3.978,1.974,1.974,0,0,0,.037,3.947c.053,0,.093-.035.145-.04-.054,1.329-.312,3.162-1.159,4.1H250.1a6.825,6.825,0,0,1-1.73-2.951,2.315,2.315,0,0,0,.3.061,2.411,2.411,0,0,0,0-4.821,2.352,2.352,0,0,0-1.017.244c-.012-.4-.012-.693-.012-.693a2.283,2.283,0,0,0-2.72-2.143,30.794,30.794,0,0,1,1.154,10.3v4.86H265.85v-4.849l.029-.011A30.777,30.777,0,0,1,267.032,297.8Z" fill="#ffe15a"/><path d="M243.919,278.959a2.283,2.283,0,0,0-2.72,2.143s0,.29-.012.693a2.366,2.366,0,0,0-1.017-.244,2.411,2.411,0,0,0,0,4.821,2.126,2.126,0,0,0,.3-.061,6.829,6.829,0,0,1-1.73,2.951H235.52c-.846-.937-1.1-2.771-1.159-4.1.052,0,.092.04.145.04a1.974,1.974,0,0,0,.037-3.947,1.923,1.923,0,0,0,.3-.978,1.977,1.977,0,0,0-3.954,0,1.926,1.926,0,0,0,.3.978,1.974,1.974,0,0,0,.037,3.947c.053,0,.093-.035.145-.04-.054,1.329-.312,3.162-1.159,4.1h-3.218a6.825,6.825,0,0,1-1.73-2.951,2.315,2.315,0,0,0,.3.061,2.411,2.411,0,0,0,0-4.821,2.352,2.352,0,0,0-1.017.244c-.012-.4-.012-.693-.012-.693a2.283,2.283,0,0,0-2.72-2.143,30.794,30.794,0,0,1,1.154,10.3v4.86h19.778v-4.849l.029-.011A30.776,30.776,0,0,1,243.919,278.959Z" fill="#ffe15a"/><path d="M290.146,278.959a2.283,2.283,0,0,0-2.72,2.143s0,.29-.012.693a2.366,2.366,0,0,0-1.017-.244,2.411,2.411,0,1,0,0,4.821,2.126,2.126,0,0,0,.3-.061,6.829,6.829,0,0,1-1.73,2.951h-3.218c-.846-.937-1.1-2.771-1.159-4.1.052,0,.092.04.145.04a1.974,1.974,0,0,0,.037-3.947,1.923,1.923,0,0,0,.3-.978,1.977,1.977,0,1,0-3.954,0,1.926,1.926,0,0,0,.3.978,1.974,1.974,0,0,0,.037,3.947c.053,0,.093-.035.145-.04-.054,1.329-.312,3.162-1.159,4.1h-3.218a6.825,6.825,0,0,1-1.73-2.951,2.314,2.314,0,0,0,.3.061,2.411,2.411,0,0,0,0-4.821,2.352,2.352,0,0,0-1.017.244c-.012-.4-.012-.693-.012-.693a2.283,2.283,0,0,0-2.72-2.143,30.794,30.794,0,0,1,1.154,10.3v4.86h19.778v-4.849l.029-.011A30.75,30.75,0,0,1,290.146,278.959Z" fill="#ffe15a"/><path d="M329.138,155.193q-4.066-1.615-8.185-3.043l-2.3,6.678q-1.986-.687-3.982-1.334,1.078-3.364,2.157-6.728-4.14-1.335-8.322-2.484l-1.862,6.815q-2.016-.555-4.042-1.064.858-3.428,1.714-6.855-4.2-1.056-8.431-1.926-1.413,6.923-2.829,13.845,2.621.54,5.229,1.154-.539,2.292-1.076,4.586a179.325,179.325,0,0,0-30.855-4.5q.135-2.352.27-4.7,2.658.154,5.313.385.609-7.039,1.217-14.08-4.285-.372-8.582-.559-.153,3.531-.3,7.06-2.07-.09-4.143-.135.076-3.532.152-7.064-4.3-.093-8.6,0,.076,3.532.152,7.064-2.073.045-4.143.135-.153-3.531-.3-7.06-4.295.186-8.582.559.609,7.039,1.217,14.08,2.655-.229,5.313-.385.135,2.352.27,4.7a179.41,179.41,0,0,0-30.855,4.5q-.538-2.292-1.076-4.586,2.608-.618,5.229-1.154l-2.829-13.845q-4.23.868-8.431,1.926.858,3.428,1.714,6.855-2.026.51-4.042,1.064-.93-3.408-1.862-6.815-4.181,1.15-8.322,2.484,1.078,3.364,2.157,6.728-2,.644-3.982,1.334L191,152.15q-4.117,1.43-8.185,3.043L188,168.334q2.519-1,5.06-1.923l6.4,17.716q6.846-2.49,13.842-4.354,2.331-.621,4.672-1.175a165.388,165.388,0,0,1,76,0q2.342.555,4.672,1.175,6.99,1.867,13.842,4.354l6.4-17.716q2.541.924,5.06,1.923Q326.544,161.764,329.138,155.193Z" fill="#ffe15a"/><path d="M255.976,379.587A128.808,128.808,0,0,0,331.353,355.3V324.467a105.765,105.765,0,0,1-151.538-.824v31.1A128.806,128.806,0,0,0,255.976,379.587Z" fill="#ffe1cd"/></g></svg>