<svg xmlns="http://www.w3.org/2000/svg" width="512" height="335.448" viewBox="0 0 512 335.448"><g transform="translate(0 -88.276)"><path d="M503.172,423.724H8.828A8.829,8.829,0,0,1,0,414.9V97.1a8.829,8.829,0,0,1,8.828-8.828H503.173A8.829,8.829,0,0,1,512,97.1V414.9A8.83,8.83,0,0,1,503.172,423.724Z" fill="#73af00"/><path d="M375.086,88.276,0,334.021v26.385L415.355,88.276Z" fill="#ffe15a"/><path d="M512,177.979V151.594L96.644,423.724h40.269Z" fill="#ffe15a"/><path d="M512,151.594V97.1a8.829,8.829,0,0,0-8.828-8.828H415.355L0,360.406V414.9a8.829,8.829,0,0,0,8.828,8.828H96.645Z" fill="#464655"/><path d="M156.018,275.9l18.119,14.59,19.67-12.42a3.134,3.134,0,0,1,4.6,3.766l-8.277,21.74,17.89,14.869a3.135,3.135,0,0,1-2.159,5.542l-23.234-1.154-8.613,21.61a3.135,3.135,0,0,1-5.938-.341L162,321.648l-23.213-1.514a3.135,3.135,0,0,1-1.511-5.752l19.475-12.724-5.734-22.546A3.135,3.135,0,0,1,156.018,275.9Z" fill="#f5f5f5"/><path d="M323.007,166.29l18.119,14.59,19.67-12.42a3.134,3.134,0,0,1,4.6,3.766l-8.277,21.74,17.89,14.869a3.135,3.135,0,0,1-2.159,5.542l-23.234-1.154L341,234.833a3.135,3.135,0,0,1-5.938-.341l-6.082-22.454-23.213-1.514a3.135,3.135,0,0,1-1.511-5.752l19.475-12.724L318,169.5A3.135,3.135,0,0,1,323.007,166.29Z" fill="#f5f5f5"/><path d="M512,414.9V177.979L136.913,423.724H503.171A8.828,8.828,0,0,0,512,414.9Z" fill="#ff4b55"/></g></svg>