<svg xmlns="http://www.w3.org/2000/svg" width="512" height="335.454" viewBox="0 0 512 335.454"><g transform="translate(0 -88.273)"><rect width="282.48" height="335.45" transform="translate(114.76 88.277)" fill="#ffe15a"/><path d="M503.172,423.721H397.242V88.273H503.173A8.829,8.829,0,0,1,512,97.1V414.893A8.83,8.83,0,0,1,503.172,423.721Z" fill="#73af00"/><path d="M8.828,88.273H114.759V423.721H8.828A8.829,8.829,0,0,1,0,414.893V97.1A8.829,8.829,0,0,1,8.828,88.273Z" fill="#4173cd"/><path d="M191.886,251.475l28.635,57.271,28.636-57.271L220.521,194.2Z" fill="#73af00"/><path d="M262.843,251.475l28.636,57.271,28.635-57.271L291.479,194.2Z" fill="#73af00"/><path d="M227.364,320.327,256,377.6l28.636-57.27L256,263.056Z" fill="#73af00"/></g></svg>