<svg xmlns="http://www.w3.org/2000/svg" width="512" height="335.448" viewBox="0 0 512 335.448"><g transform="translate(0 -88.276)"><path d="M8.828,88.276H503.173A8.829,8.829,0,0,1,512,97.1V256H0V97.1A8.828,8.828,0,0,1,8.828,88.276Z" fill="#ff4b55"/><path d="M503.172,423.724H8.828A8.829,8.829,0,0,1,0,414.9V256H512V414.9A8.828,8.828,0,0,1,503.172,423.724Z" fill="#41479b"/><path d="M3.256,421.59,247.6,261.5a6.58,6.58,0,0,0,0-11.009L3.256,90.41A8.683,8.683,0,0,0,0,97.1V414.9A8.683,8.683,0,0,0,3.256,421.59Z" fill="#f5f5f5"/><circle cx="27.719" cy="27.719" r="27.719" transform="translate(62.781 194.211)" fill="#ffe15a"/><path d="M124.39,247.606c.11,3.363.476,6.833.829,10.187,1.385,13.163,2.582,24.533-10.06,28.943a64,64,0,0,1-11,2.19c-5.651.81-10.711,1.534-13.654,3.585-2.943-2.05-8-2.775-13.654-3.585a64.072,64.072,0,0,1-11-2.19c-12.642-4.41-11.445-15.78-10.06-28.943.353-3.354.718-6.824.829-10.187.393-11.918-2.12-23.6-3.885-30.2a30.19,30.19,0,0,0,12.017,2.208,70.741,70.741,0,0,0,7.133-.674c5.844-.745,12.467-1.583,17.768.512l.85.378.85-.378c5.3-2.1,11.924-1.257,17.768-.512a70.736,70.736,0,0,0,7.133.674,30.2,30.2,0,0,0,12.017-2.208C126.509,224.009,124,235.688,124.39,247.606Z" fill="#8cd7ff"/><path d="M129.007,247.453c-.557-16.894,5.207-33.843,5.266-34.012l-3.633-2.551A23.919,23.919,0,0,1,116.349,215a66.552,66.552,0,0,1-6.642-.639c-6.113-.774-13.009-1.651-19.2.486-6.19-2.136-13.085-1.259-19.2-.486-2.434.309-4.734.6-6.642.639a23.931,23.931,0,0,1-14.291-4.108l-3.633,2.551c.057.169,5.823,17.118,5.266,34.012-.1,3.2-.461,6.583-.807,9.856-1.389,13.206-2.964,28.175,13.133,33.791,3.411,1.188,7.721,1.714,11.862,2.4,12.433,2.06,14.31,5.236,14.31,5.236s1.877-3.177,14.31-5.236c4.141-.686,8.451-1.212,11.862-2.4,16.1-5.615,14.524-20.585,13.133-33.791C129.469,254.035,129.112,250.652,129.007,247.453Zm-4.617.153c.11,3.363.476,6.833.829,10.187,1.385,13.163,2.582,24.533-10.06,28.943a64,64,0,0,1-11,2.19c-5.651.81-10.711,1.534-13.654,3.585-2.943-2.05-8-2.775-13.654-3.585a64.072,64.072,0,0,1-11-2.19c-12.642-4.41-11.445-15.78-10.06-28.943.353-3.354.718-6.824.829-10.187.393-11.918-2.12-23.6-3.885-30.2a30.19,30.19,0,0,0,12.017,2.208,70.741,70.741,0,0,0,7.133-.674c5.844-.745,12.467-1.583,17.768.512l.85.378.85-.378c5.3-2.1,11.924-1.257,17.768-.512a70.736,70.736,0,0,0,7.133.674,30.2,30.2,0,0,0,12.017-2.208C126.509,224.009,124,235.688,124.39,247.606Z" fill="#ff4b55"/><path d="M114.33,276V265.822h1.745v-3h-4.268V252.361h4.268L96.557,238.534v-5.2h2.715l-8.764-6.208-8.762,6.208h2.713v5.2L64.941,252.361H69.21v10.457H64.941v3h1.746V276h-2.55V280.4h52.744V276Z" fill="#f5f5f5"/><path d="M65.193,234.33a4.751,4.751,0,0,0,.145,4.185,4.976,4.976,0,0,0,2.956-7A4.753,4.753,0,0,0,65.193,234.33Z" fill="#41aa5a"/><path d="M68.216,234.794a4.749,4.749,0,0,0,2.671,3.225,4.977,4.977,0,0,0-1.935-7.347A4.75,4.75,0,0,0,68.216,234.794Z" fill="#41aa5a"/><path d="M72.914,232.222a4.747,4.747,0,0,0,4.175-.328,4.977,4.977,0,0,0-7.122-2.647A4.752,4.752,0,0,0,72.914,232.222Z" fill="#41aa5a"/><path d="M74.321,229.582a4.749,4.749,0,0,0,2.769-3.142,4.976,4.976,0,0,0-6.955,3.058A4.745,4.745,0,0,0,74.321,229.582Z" fill="#41aa5a"/><path d="M64.479,230.916a4.75,4.75,0,0,0,2.081-3.635,4.978,4.978,0,0,0-6.2,4.395A4.743,4.743,0,0,0,64.479,230.916Z" fill="#41aa5a"/><path d="M63.389,228.983a7.732,7.732,0,0,0,5.759,1,8.567,8.567,0,0,0-9.536-5.461A7.739,7.739,0,0,0,63.389,228.983Z" fill="#41aa5a"/><path d="M71.86,231.341a1.442,1.442,0,0,0-1.395-1.437,1.438,1.438,0,0,0-2.874,0,1.438,1.438,0,0,0,0,2.874,1.438,1.438,0,0,0,2.874,0A1.443,1.443,0,0,0,71.86,231.341Z" fill="#ffe15a"/><circle cx="0.85" cy="0.85" r="0.85" transform="translate(68.18 230.49)" fill="#f5f5f5"/><path d="M67.34,229.909a1.184,1.184,0,0,0-1.146-1.181,1.182,1.182,0,0,0-2.362,0,1.182,1.182,0,0,0,0,2.362,1.182,1.182,0,0,0,2.362,0A1.185,1.185,0,0,0,67.34,229.909Z" fill="#ffe15a"/><circle cx="0.698" cy="0.698" r="0.698" transform="translate(64.312 229.202)" fill="#f5f5f5"/><path d="M71.676,227.906a.855.855,0,0,0-.826-.851.851.851,0,0,0-1.7,0,.851.851,0,0,0,0,1.7.851.851,0,0,0,1.7,0A.853.853,0,0,0,71.676,227.906Z" fill="#ffe15a"/><circle cx="0.503" cy="0.503" r="0.503" transform="translate(69.497 227.407)" fill="#f5f5f5"/><path d="M68.494,226.46a.855.855,0,0,0-.826-.851.851.851,0,0,0-1.7,0,.851.851,0,0,0,0,1.7.851.851,0,0,0,1.7,0A.854.854,0,0,0,68.494,226.46Z" fill="#ffe15a"/><circle cx="0.503" cy="0.503" r="0.503" transform="translate(66.311 225.957)" fill="#f5f5f5"/><path d="M105.406,239.156h16.021a8.778,8.778,0,0,0-5.535-4.907,25.039,25.039,0,0,0,.294-3.85c0-4.839-1.239-8.761-2.769-8.761s-2.769,3.923-2.769,8.761a24.924,24.924,0,0,0,.294,3.85A8.775,8.775,0,0,0,105.406,239.156Z" fill="#f5f5f5"/><path d="M90.508,317.793a61.285,61.285,0,0,1-61.216-61.216h11.55a49.665,49.665,0,1,0,99.33,0h11.552A61.284,61.284,0,0,1,90.508,317.793Z" fill="#ffe15a"/><path d="M113.2,201.879h-9.983a1.815,1.815,0,1,0,0-3.63h-12.7a1.815,1.815,0,0,0,0,3.63H67.821a2.722,2.722,0,0,0,0,5.444h8.167a1.815,1.815,0,0,0,0,3.63H92.324a1.815,1.815,0,0,0,0-3.63H113.2a2.722,2.722,0,1,0,0-5.444Z" fill="#c87878"/></g></svg>