<svg xmlns="http://www.w3.org/2000/svg" xmlns:xlink="http://www.w3.org/1999/xlink" width="512" height="335.4" viewBox="0 0 512 335.4"><defs><linearGradient id="a" x1="15.893" y1="-38.361" x2="15.696" y2="-39.404" gradientUnits="objectBoundingBox"><stop offset="0"/><stop offset="1" stop-color="#2b5df2"/></linearGradient><linearGradient id="b" x1="15.893" y1="-30.492" x2="15.696" y2="-31.535" xlink:href="#a"/></defs><g transform="translate(0 -88.3)"><path d="M503.2,423.7H8.8A8.813,8.813,0,0,1,0,414.9V97.1a8.813,8.813,0,0,1,8.8-8.8H503.1a8.813,8.813,0,0,1,8.8,8.8V414.9A8.665,8.665,0,0,1,503.2,423.7Z" fill="#3cc8ff"/><path d="M.1,200.8H139.5V312.2H.1Z" fill="#fff"/><path d="M121.9,260.8a3.632,3.632,0,0,1-3.3.4c-.7-.3-.8-.1-.2.5a3.447,3.447,0,0,0,1.6.8,9.354,9.354,0,0,1,2.2.7,4.2,4.2,0,0,0,3.8,0c2.1-1.1.8-3.1-2-3.1a3.747,3.747,0,0,0-2.1.7Zm5.9,2.4a4.872,4.872,0,0,0-.2,1.5c0,4-1.8,7.7-5.1,10.9a10.146,10.146,0,0,0-1.3,1.4,12.049,12.049,0,0,0,4.2-.1c.4-.2.5-.1.6.6a4.022,4.022,0,0,0,1.7,2.6,1.213,1.213,0,0,0,1.3.1,3.037,3.037,0,0,0,1.8-2.5c.1-.9.2-1,.5-.9a10.7,10.7,0,0,0,2.5.2l2.1.1-1.1-1.1a19.649,19.649,0,0,1-3.5-4.4,13.155,13.155,0,0,1-1.8-5.9,20.95,20.95,0,0,0-.3-2.5.8.8,0,0,0-1.4,0Zm-84.3-9.8a5.013,5.013,0,0,0-.8,1.4,17.719,17.719,0,0,1-.6,1.7,3,3,0,0,0,.1,3.3,1.734,1.734,0,0,0,3,0,3.556,3.556,0,0,0-.4-3.8,2.456,2.456,0,0,1-.4-2.9c.3-.6-.2-.4-.9.3Zm3.1,7a4.2,4.2,0,0,0-1.2.7c-1.4,1.6,1.8,3.4,4,2.3,2.5-1.2,2.5-1.2,3.7-.9,1,.3,1,.3.8-.1-.4-.7-1-1-3.4-1.7-2.7-.7-2.8-.7-3.9-.3Zm-9.5.5a3.632,3.632,0,0,1-3.3.4c-.7-.3-.8-.1-.2.5a3.447,3.447,0,0,0,1.6.8,9.354,9.354,0,0,1,2.2.7,4.2,4.2,0,0,0,3.8,0c2.1-1.1.8-3.1-2-3.1A6.478,6.478,0,0,0,37.1,260.9Zm6,2.4a4.872,4.872,0,0,0-.2,1.5c0,4-1.8,7.7-5.1,10.9a10.145,10.145,0,0,0-1.3,1.4,12.049,12.049,0,0,0,4.2-.1c.4-.2.5-.1.6.6a4.022,4.022,0,0,0,1.7,2.6,1.213,1.213,0,0,0,1.3.1,3.037,3.037,0,0,0,1.8-2.5c.1-.9.2-1,.5-.9a10.7,10.7,0,0,0,2.5.2l2.1.1-1.1-1.1a19.649,19.649,0,0,1-3.5-4.4,13.155,13.155,0,0,1-1.8-5.9,20.95,20.95,0,0,0-.3-2.5c-.5-.5-1.1-.5-1.4,0Zm42.3-10a5.013,5.013,0,0,0-.8,1.4,17.717,17.717,0,0,1-.6,1.7,3,3,0,0,0,.1,3.3,1.734,1.734,0,0,0,3,0,3.556,3.556,0,0,0-.4-3.8,2.456,2.456,0,0,1-.4-2.9c.4-.5-.2-.4-.9.3Zm3.1,7a4.2,4.2,0,0,0-1.2.7c-1.4,1.6,1.8,3.4,4,2.3,2.5-1.2,2.5-1.2,3.7-.9,1,.3,1,.3.8-.1-.4-.7-1-1-3.4-1.7-2.6-.7-2.7-.7-3.9-.3Zm-9.5.6a3.632,3.632,0,0,1-3.3.4c-.7-.3-.8-.1-.2.5a3.447,3.447,0,0,0,1.6.8,9.354,9.354,0,0,1,2.2.7,4.2,4.2,0,0,0,3.8,0c2.1-1.1.8-3.1-2-3.1a3.747,3.747,0,0,0-2.1.7Zm6,2.4a4.872,4.872,0,0,0-.2,1.5c0,4-1.8,7.7-5.1,10.9a10.146,10.146,0,0,0-1.3,1.4,12.049,12.049,0,0,0,4.2-.1c.4-.2.5-.1.6.6a4.022,4.022,0,0,0,1.7,2.6,1.213,1.213,0,0,0,1.3.1,3.037,3.037,0,0,0,1.8-2.5c.1-.9.2-1,.5-.9a10.7,10.7,0,0,0,2.5.2l2.1.1L92,276.1a19.649,19.649,0,0,1-3.5-4.4,13.155,13.155,0,0,1-1.8-5.9,20.948,20.948,0,0,0-.3-2.5.769.769,0,0,0-1.4,0Zm-82.6-10a5.013,5.013,0,0,0-.8,1.4,17.717,17.717,0,0,1-.6,1.7,3,3,0,0,0,.1,3.3,1.734,1.734,0,0,0,3,0,3.556,3.556,0,0,0-.4-3.8,2.456,2.456,0,0,1-.4-2.9c.3-.6-.2-.4-.9.3Zm3.1,7a4.2,4.2,0,0,0-1.2.7c-1.4,1.6,1.8,3.4,4,2.3,2.5-1.2,2.5-1.2,3.7-.9,1,.3,1,.3.8-.1-.4-.7-1-1-3.4-1.7-2.7-.8-2.8-.8-3.9-.3Zm121.8-59.1a4.872,4.872,0,0,0-.2,1.5c0,4-1.8,7.7-5.1,10.9a10.146,10.146,0,0,0-1.3,1.4,12.049,12.049,0,0,0,4.2-.1c.4-.2.5-.1.6.6a4.022,4.022,0,0,0,1.7,2.6,1.213,1.213,0,0,0,1.3.1,3.037,3.037,0,0,0,1.8-2.5c.1-.9.2-1,.5-.9a10.7,10.7,0,0,0,2.5.2l2.1.1-1.1-1.1a19.649,19.649,0,0,1-3.5-4.4,13.155,13.155,0,0,1-1.8-5.9,20.95,20.95,0,0,0-.3-2.5c-.5-.5-1.1-.6-1.4,0Zm-84.8.2a4.872,4.872,0,0,0-.2,1.5c0,4-1.8,7.7-5.1,10.9a10.145,10.145,0,0,0-1.3,1.4,12.049,12.049,0,0,0,4.2-.1c.4-.2.5-.1.6.6a4.022,4.022,0,0,0,1.7,2.6,1.213,1.213,0,0,0,1.3.1,3.037,3.037,0,0,0,1.8-2.5c.1-.9.2-1,.5-.9a10.7,10.7,0,0,0,2.5.2l2.1.1-1.1-1.1a19.649,19.649,0,0,1-3.5-4.4,13.155,13.155,0,0,1-1.8-5.9,20.951,20.951,0,0,0-.3-2.5c-.5-.6-1.1-.6-1.4,0Zm41.9-.1a4.872,4.872,0,0,0-.2,1.5c0,4-1.8,7.7-5.1,10.9a10.146,10.146,0,0,0-1.3,1.4A12.049,12.049,0,0,0,82,215c.4-.2.5-.1.6.6a4.022,4.022,0,0,0,1.7,2.6,1.213,1.213,0,0,0,1.3.1,3.037,3.037,0,0,0,1.8-2.5c.1-.9.2-1,.5-.9a10.7,10.7,0,0,0,2.5.2l2.1.1-1.1-1.1a19.649,19.649,0,0,1-3.5-4.4,13.155,13.155,0,0,1-1.8-5.9,20.949,20.949,0,0,0-.3-2.5.769.769,0,0,0-1.4,0Zm-82.6-.1a4.872,4.872,0,0,0-.2,1.5,16.575,16.575,0,0,1-1.5,6.1L0,215.6a4.022,4.022,0,0,0,1.7,2.6,1.213,1.213,0,0,0,1.3.1,3.037,3.037,0,0,0,1.8-2.5c.1-.9.2-1,.5-.9a10.7,10.7,0,0,0,2.5.2l2.1.1-1.1-1.1a19.649,19.649,0,0,1-3.5-4.4,13.155,13.155,0,0,1-1.8-5.9,20.951,20.951,0,0,0-.3-2.5c-.4-.6-1-.7-1.4-.1Zm105.3,84.1a5.013,5.013,0,0,0-.8,1.4,17.717,17.717,0,0,1-.6,1.7,3,3,0,0,0,.1,3.3,1.734,1.734,0,0,0,3,0,3.556,3.556,0,0,0-.4-3.8,2.456,2.456,0,0,1-.4-2.9c.4-.6-.2-.4-.9.3Zm3.1,7a4.2,4.2,0,0,0-1.2.7c-1.4,1.6,1.8,3.4,4,2.3,2.5-1.2,2.5-1.2,3.7-.9,1,.3,1,.3.8-.1-.4-.7-1-1-3.4-1.7-2.7-.8-2.7-.8-3.9-.3Zm-9.5.5a3.632,3.632,0,0,1-3.3.4c-.7-.3-.8-.1-.2.5a3.447,3.447,0,0,0,1.6.8,9.354,9.354,0,0,1,2.2.7,4.2,4.2,0,0,0,3.8,0c2.1-1.1.8-3.1-2-3.1a4.736,4.736,0,0,0-2.1.7Zm6.5,2.3a4.872,4.872,0,0,0-.2,1.5c0,3.9-1.8,7.6-5.1,10.8a10.146,10.146,0,0,0-1.3,1.4,12.049,12.049,0,0,0,4.2-.1c.4-.2.5-.1.6.6a3.58,3.58,0,0,0,1.7,2.5,1.213,1.213,0,0,0,1.3.1,3.037,3.037,0,0,0,1.8-2.5c.1-.9.2-1,.5-.9a10.7,10.7,0,0,0,2.5.2l2.1.1-1.1-1.1a17.639,17.639,0,0,1-3.5-4.4,12.749,12.749,0,0,1-1.8-5.8,20.948,20.948,0,0,0-.3-2.5c-.5-.4-1.1-.5-1.4.1Zm-84.8-9.7a5.013,5.013,0,0,0-.8,1.4,17.717,17.717,0,0,1-.6,1.7,3,3,0,0,0,.1,3.3,1.734,1.734,0,0,0,3,0,3.556,3.556,0,0,0-.4-3.8,2.456,2.456,0,0,1-.4-2.9c.3-.5-.3-.4-.9.3Zm3,7a4.2,4.2,0,0,0-1.2.7c-1.4,1.6,1.8,3.4,4,2.3,2.5-1.2,2.5-1.2,3.7-.9,1,.3,1,.3.8-.1-.4-.7-1-1-3.4-1.7-2.6-.7-2.7-.7-3.9-.3ZM16,293a3.632,3.632,0,0,1-3.3.4c-.7-.3-.8-.1-.2.5a3.447,3.447,0,0,0,1.6.8,9.354,9.354,0,0,1,2.2.7,4.2,4.2,0,0,0,3.8,0c2.1-1.1.8-3.1-2-3.1a3.322,3.322,0,0,0-2.1.7Zm6.4,2.2a4.872,4.872,0,0,0-.2,1.5c0,3.9-1.8,7.6-5.1,10.8a10.145,10.145,0,0,0-1.3,1.4,12.049,12.049,0,0,0,4.2-.1c.4-.2.5-.1.6.6a3.58,3.58,0,0,0,1.7,2.5,1.213,1.213,0,0,0,1.3.1,3.037,3.037,0,0,0,1.8-2.5c.1-.9.2-1,.5-.9a10.7,10.7,0,0,0,2.5.2l2.1.1-1.1-1.1a17.639,17.639,0,0,1-3.5-4.4,12.749,12.749,0,0,1-1.8-5.8,20.951,20.951,0,0,0-.3-2.5.9.9,0,0,0-1.4.1Zm41.9-9.8a5.013,5.013,0,0,0-.8,1.4,17.717,17.717,0,0,1-.6,1.7,3,3,0,0,0,.1,3.3,1.734,1.734,0,0,0,3,0,3.556,3.556,0,0,0-.4-3.8,2.456,2.456,0,0,1-.4-2.9c.3-.6-.2-.5-.9.3Zm3.1,7a4.2,4.2,0,0,0-1.2.7c-1.4,1.6,1.8,3.4,4,2.3,2.5-1.2,2.5-1.2,3.7-.9,1,.3,1,.3.8-.1-.4-.7-1-1-3.4-1.7-2.7-.8-2.8-.8-3.9-.3Zm-9.5.5a3.632,3.632,0,0,1-3.3.4c-.7-.3-.8-.1-.2.5a3.447,3.447,0,0,0,1.6.8,9.354,9.354,0,0,1,2.2.7,4.2,4.2,0,0,0,3.8,0c2.1-1.1.8-3.1-2-3.1a3.747,3.747,0,0,0-2.1.7Zm6.4,2.2a4.872,4.872,0,0,0-.2,1.5c0,3.9-1.8,7.6-5.1,10.8a10.145,10.145,0,0,0-1.3,1.4,12.049,12.049,0,0,0,4.2-.1c.4-.2.5-.1.6.6a3.58,3.58,0,0,0,1.7,2.5,1.213,1.213,0,0,0,1.3.1,3.037,3.037,0,0,0,1.8-2.5c.1-.9.2-1,.5-.9a10.7,10.7,0,0,0,2.5.2l2.1.1-1.1-1.1a17.639,17.639,0,0,1-3.5-4.4,12.749,12.749,0,0,1-1.8-5.8,20.948,20.948,0,0,0-.3-2.5.9.9,0,0,0-1.4.1ZM107,222.5a5.013,5.013,0,0,0-.8,1.4,17.717,17.717,0,0,1-.6,1.7,3,3,0,0,0,.1,3.3,1.734,1.734,0,0,0,3,0,3.556,3.556,0,0,0-.4-3.8,2.456,2.456,0,0,1-.4-2.9c.3-.6-.2-.4-.9.3Zm3.1,7a4.2,4.2,0,0,0-1.2.7c-1.4,1.6,1.8,3.4,4,2.3,2.5-1.2,2.5-1.2,3.7-.9,1,.3,1,.3.8-.1-.4-.7-1-1-3.4-1.7-2.7-.7-2.8-.7-3.9-.3Zm-9.5.5a3.632,3.632,0,0,1-3.3.4c-.7-.3-.8-.1-.2.5a3.448,3.448,0,0,0,1.6.8,9.354,9.354,0,0,1,2.2.7,4.2,4.2,0,0,0,3.8,0c2.1-1.1.8-3.1-2-3.1a6.478,6.478,0,0,0-2.1.7Zm6,2.4a4.872,4.872,0,0,0-.2,1.5c0,4-1.8,7.7-5.1,10.9a10.146,10.146,0,0,0-1.3,1.4,12.049,12.049,0,0,0,4.2-.1c.4-.2.5-.1.6.6a4.022,4.022,0,0,0,1.7,2.6,1.213,1.213,0,0,0,1.3.1,3.037,3.037,0,0,0,1.8-2.5c.1-.9.2-1,.5-.9a10.7,10.7,0,0,0,2.5.2l2.1.1-1.1-1.1a19.649,19.649,0,0,1-3.5-4.4,13.155,13.155,0,0,1-1.8-5.9,20.949,20.949,0,0,0-.3-2.5c-.5-.5-1.1-.5-1.4,0Zm-84.4-9.7a5.013,5.013,0,0,0-.8,1.4,17.717,17.717,0,0,1-.6,1.7,3,3,0,0,0,.1,3.3,1.734,1.734,0,0,0,3,0,3.556,3.556,0,0,0-.4-3.8,2.456,2.456,0,0,1-.4-2.9c.4-.6-.2-.4-.9.3Zm3.1,7a4.2,4.2,0,0,0-1.2.7c-1.4,1.6,1.8,3.4,4,2.3,2.5-1.2,2.5-1.2,3.7-.9,1,.3,1,.3.8-.1-.4-.7-1-1-3.4-1.7C26.5,229.2,26.4,229.2,25.3,229.7Zm-9.5.5a3.632,3.632,0,0,1-3.3.4c-.7-.3-.8-.1-.2.5a3.448,3.448,0,0,0,1.6.8,9.354,9.354,0,0,1,2.2.7,4.2,4.2,0,0,0,3.8,0c2.1-1.1.8-3.1-2-3.1a3.747,3.747,0,0,0-2.1.7Zm6,2.4a4.872,4.872,0,0,0-.2,1.5c0,4-1.8,7.7-5.1,10.9a10.145,10.145,0,0,0-1.3,1.4,12.049,12.049,0,0,0,4.2-.1c.4-.2.5-.1.6.6a4.022,4.022,0,0,0,1.7,2.6,1.213,1.213,0,0,0,1.3.1,3.037,3.037,0,0,0,1.8-2.5c.1-.9.2-1,.5-.9a10.7,10.7,0,0,0,2.5.2l2.1.1-1.1-1.1a19.649,19.649,0,0,1-3.5-4.4,13.155,13.155,0,0,1-1.8-5.9,20.951,20.951,0,0,0-.3-2.5c-.4-.5-1.1-.6-1.4,0Zm42.4-10a5.013,5.013,0,0,0-.8,1.4,17.717,17.717,0,0,1-.6,1.7,3,3,0,0,0,.1,3.3,1.734,1.734,0,0,0,3,0,3.556,3.556,0,0,0-.4-3.8,2.456,2.456,0,0,1-.4-2.9c.3-.6-.3-.4-.9.3Zm3,7a4.2,4.2,0,0,0-1.2.7c-1.4,1.6,1.8,3.4,4,2.3,2.5-1.2,2.5-1.2,3.7-.9,1,.3,1,.3.8-.1-.4-.7-1-1-3.4-1.7-2.6-.8-2.7-.8-3.9-.3Zm-9.4.5a3.632,3.632,0,0,1-3.3.4c-.7-.3-.8-.1-.2.5a3.448,3.448,0,0,0,1.6.8,9.355,9.355,0,0,1,2.2.7,4.2,4.2,0,0,0,3.8,0c2.1-1.1.8-3.1-2-3.1a3.746,3.746,0,0,0-2.1.7Zm5.9,2.4a4.872,4.872,0,0,0-.2,1.5c0,4-1.8,7.7-5.1,10.9a10.145,10.145,0,0,0-1.3,1.4,12.049,12.049,0,0,0,4.2-.1c.4-.2.5-.1.6.6a4.022,4.022,0,0,0,1.7,2.6,1.213,1.213,0,0,0,1.3.1,3.037,3.037,0,0,0,1.8-2.5c.1-.9.2-1,.5-.9a10.7,10.7,0,0,0,2.5.2l2.1.1-1.1-1.1a19.649,19.649,0,0,1-3.5-4.4,13.155,13.155,0,0,1-1.8-5.9,20.949,20.949,0,0,0-.3-2.5.8.8,0,0,0-1.4,0ZM1.9,263.3a4.872,4.872,0,0,0-.2,1.5,16.575,16.575,0,0,1-1.5,6.1l-.1,6.8a4.022,4.022,0,0,0,1.7,2.6,1.213,1.213,0,0,0,1.3.1,3.037,3.037,0,0,0,1.8-2.5c.1-.9.2-1,.5-.9a10.7,10.7,0,0,0,2.5.2l2.1.1-1.1-1.1a19.649,19.649,0,0,1-3.5-4.4,13.155,13.155,0,0,1-1.8-5.9,20.95,20.95,0,0,0-.3-2.5.8.8,0,0,0-1.4-.1Z"/><path d="M8.9,88.3H140V200.8H0V97.2A8.92,8.92,0,0,1,8.9,88.3Z" fill="#c00"/><path d="M140,102.9V88.3H122.9L0,186.2v14.6H17.1Z" fill="#08672f"/><path d="M0,102.9V97.2a8.92,8.92,0,0,1,8.9-8.9h8.2L140,186.2v14.6H122.5Z" fill="#08672f"/><path d="M0,133.4l140-.1v22.4L0,155.8Z" fill="#fff"/><path d="M58.5,88.3H81.2l.1,112.5H58.6Z" fill="#fff"/><path d="M9,423.7H139.4V312.2H0V414.6A9.048,9.048,0,0,0,9,423.7Z" fill="#c00"/><path d="M72.7,406.5c-.4.6.7,3.5,2.4,3.5a7.386,7.386,0,0,1-1-3.8Zm-4.3-3.1c-.6.1-2.1,3.9.3,5.2a6.872,6.872,0,0,1,1.2-3.7l-1.2-1.1Z" fill="#2b5df2" stroke="#650000" stroke-width="1"/><path d="M68.1,401.2c-.6-.6-3.2,1.2-3.1,3.9a4.723,4.723,0,0,1,3.5-1.7Zm3-2.2c0-.9-2.3-1.8-3.5-.1a4.143,4.143,0,0,1,2.7,1.8Zm46,7.9a1.755,1.755,0,0,0,.6,1.5,5.9,5.9,0,0,1,.8,1.7s1.2-3.4.9-3.9C119.1,405.8,117.1,406.9,117.1,406.9Zm-6.6-1.4c-.6-.1-1.8,2.7-.8,4.7a5.32,5.32,0,0,1,1.8-3.2Zm-3.1-.9c-.5-.5-2.6,1-2.5,3.4a3.3,3.3,0,0,1,2.8-1.4ZM109,401c-.3-.7-2.7-.1-3.1,2.1a3.363,3.363,0,0,1,3-.2Zm-78-1.6c.2-.8-1.5-3-3.1-2.1a6.088,6.088,0,0,1,1.9,3.2Zm-6.7,5c-.6-.7-3,1.3-2.9,4.4a4.177,4.177,0,0,1,3.3-1.9Zm.2-4.4c-.3-1-3.1-.9-4.1,1.9a3.678,3.678,0,0,1,3.6.6Zm2.9,8.3a1.706,1.706,0,0,0,.3,1.6,9.348,9.348,0,0,1,.6,1.9s1.7-3,1.5-3.5C29.5,407.7,27.5,408.3,27.4,408.3Zm-7.1-34.7c0-1.1-2.8-2.2-4.3,0a4.534,4.534,0,0,1,3.2,2.1Zm-2.9,4.3c-.6-.7-3,1.3-2.9,4.4a4.177,4.177,0,0,1,3.3-1.9Zm10-4.6c.3-1-2.1-3.3-4.1-2a5.676,5.676,0,0,1,2.5,3.5Zm3.3,3.7c.5-.6-.4-3.6-2.1-3.8a7.332,7.332,0,0,1,.7,4Z" fill="#2b5df2" stroke="#650000" stroke-width="1"/><path d="M39.9,380.5c-1.7-2,0-5.6,1.5-4.1-.8-1.5.5-2.7,1.1-1.9-.3-1.2,1-2,1.6-.9-.2-1.3,1.7-2.1,2.2-.7,0-1.3,1.9-2.4,2.3-.4.4-1.5,2.4-1.7,2.6.4.6-1.2,2.1-1.1,2.2.6.7-.8,2.4.4,2.1,1.9,1.1-.2,2.4,1.9,1.1,3.5,2.3-1.2,2.9,2.7,1.4,4.5.7.4.8.1,1.4.4a11.764,11.764,0,0,0,2.9,1.1c1,0,4.5-.1,5.2-.2a21.813,21.813,0,0,0,2.9-.9c1.2-.4,3-.4,4.6-.8,1.3-.1,37.4.6,38.5.5,1-.1,2.6-1.1,2.5-2.3a2.671,2.671,0,0,0-2.5-2.2,80.027,80.027,0,0,0-8.5.1,8.472,8.472,0,0,0-3.5,1.5c-.4.2-1,1.2-1.6,1.8-.5.4-1.9.5-1.9-.1,0-.4-.1.1-.5.2-.5.3-2.5.4-2.4,0,.2-.4,0-.5-.5-.1a7.691,7.691,0,0,1-3.7.1c.3-.5.3-.5-.5-.1-.5.2-2.8.4-2.9,0,0-.4-.3-.2-.6-.1-2.5.7-2.8-.1-2.4-.4s1-2.2.4-2.1-4.6.9-6,1.1-11.2,0-12.6-.1a3.425,3.425,0,0,1-3-3.2c-.1-2.9,2.2-3.6,3.7-4a35.318,35.318,0,0,1,6.5-1.1c1.4,0,5.5.5,6.7.1,1.1-.4,4.5-1.7,5.5-1.7,1.4-.1,5.5.3,7.4,2.6-1,.5-1.5.7-.3.3,1-.2,5.5-1.1,6.5-1.4,3.6-.2,2.7.4.9.8-.6,1.8-5.9,4.4-7.6,4.7a23.12,23.12,0,0,1-6-.1c-.8-.1-4.6-.2-6-1.1a16.925,16.925,0,0,0-8.1-2.4c-1.7,0-6.5.5-6.5,2.2,0,2.9,4.5,3.1,6.4,2.9,1.9-.1,6.7-.3,8.1-.9a22.715,22.715,0,0,1,5.9-.7c1.6,0,3.9.4,4.7.2.7-.1,2.4-.1,3.2-.7a8.928,8.928,0,0,1,4.3-1.1c1.8,0,14.8-.5,16.6-.4,2.5,0,4.3,2.7,4.4,5.1,0,1.1-.5,2.7-1,3,.8.1,2.8.3,3.4.4,1.2.2,3.2,1.6,3.4,2.8a8.676,8.676,0,0,0-3.8-1.5h-31c6.1.7,10.7,5.3,11.9,8,1,1.6,3.6,1,4.6.8a6.915,6.915,0,0,0,2.9-2,2.941,2.941,0,0,1,2.6-.8,1.17,1.17,0,0,1,1,1.9c-.5.7.1.4,1.4.4a3.934,3.934,0,0,1,3.2,1.5c-.7.7-1.1.1,0,.2,1,.1,2.3,2,1.5,2.5-.7.3-.9.2,0,.3,1.3.1,1.7.9,1.8,2.4-1.1.2-.6-.1,0,.4s1.4,3-.6,3.1c-.7-.3-.7-.4-.6.4s-.2,2.6-1.4,2.6c-1.6.3-3-.5-3.1-1.5-.2-1-.1,1.9-2.3,2.3-2.1.5-3.2-.7-3.3-1.3-.2-.5-.1-.1-.9-.2s-1.8-.1-2.2-1.4c0-.8.2-1.8,1.6-1.9.6-.1.8-.9.3-1s-.1-1.7,1-1.3c1,.4,3.4.5,4,1.1.6.5.7-.4-.2-1.3s-6.2-2.6-7.7-2c-3.4,1.7-9,1.4-9.9,1.2-1-.2-3.7.4-5-3.6a9.1,9.1,0,0,0-6.9-6.3c-9.1-.8-8.6-.2-2.7.1,0,.8-.3,2.3.7,2.5,1.6-.2,4.9-.9,5.7-.3.8.7,1.6,1.2,1.4,2.7s.1,1.1-.6,1.7a1.487,1.487,0,0,0,.7,2.4,6.717,6.717,0,0,1,2.3,1.6c.7.6-.3,2-1,1.5-.6-.4-.6-.4-.7.4-.1.9-.9,2.5-2.2,2.6-.3-.1-.2-.6-.2-.9.1-.8-.3.9-.7,1.4a5.429,5.429,0,0,1-3.2.6c.3-.7.1-.4-.4-.1-.5.2-3.5.6-2.2-.8.3-.5-.5.6-.9.8s-2.1.4-2.1-.3c-.6.5-1.9.5-2.1.1-.4-.4-.4.3-1.2.4-.7.1-2.3-.1-2.4-1s.2-.3-.7-.2c-2.1,1.4-3.2-.5-3.2-1.2a3.854,3.854,0,0,1,.2-1.9c.2-.4-1.5-.6-1-1.4.6-1,1.2-1.8,2.4-1.6.6.1.5-.2.2-.7-.2-.4.6-.7,1.7-.2a4.027,4.027,0,0,1,2.1,2.5c.3,1,2.8.2,3.8.3s1.1-1.6.5-2.2c-.6-.5-2.4-2.5-3.1-3.2s-.2-2.9.4-3.5c3.7-2.5,1.7-3.3.3-3.1s-4.9,1.6-6,2.8-9.8,7.1-10.6,7.7c-.8.7-2,.8-2.4,0-.5-.8-.8-.2-.7.9a4.621,4.621,0,0,1-3.8,5.4,2.83,2.83,0,0,1-1.6-.7c-.5,2.3-2.5,2.5-4.4,2.3,0-.3.3-.8.1-.6-.6.8-2.5.7-4.1.6-.1-.5.6-1.1.2-.7-.5,1-1.5.8-3,.7,0-.2.7-.9.4-.5-.7.7-2.1.5-3.1.5-.1-.2.6-1.3-.1-.5-.6.6-1.9.7-3.1.6-.2-.5.3-.5.4-.9.3-.5-.2,0-.6,0s-1,.1-1.2-.4-.1.5-.3.8a2.113,2.113,0,0,1-1.3,1.1c-.8.2-2.9.4-3.2-.5a2.061,2.061,0,0,1-.3-2c.3-.5-1.5,1.1-2.3,1.2-2.3.4-2.6-3.2-1.6-3.5s.9-.9.3-1.3-.9-2.2-.2-2.7a3.667,3.667,0,0,1,3.4-.2c.6.4,1.9,1.8,1.7.8a2,2,0,0,1,.8-1.9,1.537,1.537,0,0,1,2.2.4c.8,2,1.4,2.9,2.5,2.8a39.956,39.956,0,0,1,6.1-1.3c1.1-.3,7.1-.8,7.1-1.4-3.6,1.2-5-.4-5.4-.3s-1.4-.4-1.4-.7c0-.7.9-.6-.4-.4a2.668,2.668,0,0,1-2.1-.9c-.1-.4.8-1.8,1.2-2.9-.8-.2-2.7,1.2-3.2,2.5-.4-.5-.6,0-2.1.3a3.569,3.569,0,0,1-2.5-.1c-.6-.3-3.1-2.2-1.9-2.4a4.705,4.705,0,0,0-.9-.3c-.9-.4-1.7-1.1-1.5-1.3-.2-.3.3-.3-.1-.4-.5-.1-1.7-1-1.4-1.3-.3-.2-1-.5-1.3-.7a3.508,3.508,0,0,1-1.2-2c-.5,0-1.6-.9-1.1-1.2-.8-.6-1.6-1.6-1-2-.5-.4-.8-1.1-.5-.8-.5-.6-.4-1.3,0-1.3s.2-1.7-.5-1.7-1.9.5-2.7,0c-.7-.5-1.3-2.8-.6-3.8.6-1,1.9-2.1,2.6-2,.6.1.3.3.2-.7-.2-1,.9-1.7,1.6-2a3.814,3.814,0,0,1,3,.3c.5.4.6.4.6-.3,0-.5.6-.8,1.2-1a2.116,2.116,0,0,1,2,.4c.5.7.8,1.5.2,2.2s-.1.1,1-.1c.7-.2,1.9.1,2.1.8.3.8.5,2.1-.2,2.7-.7.7-1.8,2.3-1.2,2.8s2.3,2.9,2.7,3.3c.4.3.9,1.1,1.5,1s1.4-.2,1.9-.3c2.2-.4,3.2-.7.4-.6a4.039,4.039,0,0,1,2.6-1.3c-1,.3.9-1.3.9-1.6Z" fill="#ffcf00" stroke="#650000" stroke-width="1"/><path d="M39.9,389.4c-1.5-.2-5.4,3.1-4.2,7.2" fill="none" stroke="#650000" stroke-width="1.081"/><path d="M40.1,385.7c-2.1,12.9,10.6,7.9,10.7,3.6" fill="none" stroke="#707070" stroke-width="1.067"/><path d="M50.1,391.1c.2,1.7.3,6.4-1.5,7.6a6.564,6.564,0,0,1-5.7.8" fill="none" stroke="#650000" stroke-width="0.992"/><path d="M46.2,393.7c-.2,1.7-1.9,5.8-5.2,5.2m-21.5-23a3.66,3.66,0,0,1,3,2.7l.6,1.8m-2.2,5.1a4.658,4.658,0,0,0,2.1,0" fill="none" stroke="#650000" stroke-width="1"/><path d="M21.7,387.3A5.148,5.148,0,0,0,25,387" fill="none" stroke="#650000" stroke-width="0.909"/><path d="M25.3,391.3c4.5,0,6.4-6.2,6.4-6.2" fill="none" stroke="rgba(112,112,112,0.26)" stroke-width="1.017"/><path d="M34.4,388.3c-1.2,3.2-1.1,3.2-2.7,3.9l-1.6.7" fill="none" stroke="rgba(101,0,0,0.09)" stroke-width="1.232"/><path d="M29.3,394.6a7.827,7.827,0,0,0,2.8-1.5m-4.6-17.9a5.829,5.829,0,0,0-.9,3.4m21.2-3.4c.2,2.2-.7,3.4-1.4,3.4-.6,0-1.3.8-.9,2.1m4.9-5.8a5.219,5.219,0,0,0-1,4.5c.4,1.3,0,1.7,0,1.7" fill="none" stroke="#650000" stroke-width="1"/><path d="M37.2,387.3c-2,.5-2.8,4.1-1.7,6" fill="none" stroke="#650000" stroke-width="1.244"/><path d="M55.4,382.3H54s-.9,1.9-2.3,1.3c-1.5-.5-.1,0-.1,0m-3.5-2.9c2.1.1,1.7,1.7.1,1.5.1,2-2.3,1.8-2.1.2-1.5,0-2.1-2,.1-1.7m51.9,1.6c.4-1.3,2.4-2.5,2.4-2.5m-5.3,2.4a8.973,8.973,0,0,1,2.4-2.5m-6.7,2.7a10.393,10.393,0,0,0,2.1-1.5c.5-.5,1.4-1.3,1.4-1.3" fill="none" stroke="#650000" stroke-width="1"/><path d="M87.2,382.3a17.316,17.316,0,0,0,2.4-1.3,9.878,9.878,0,0,0,1.4-1.3" fill="none" stroke="#650000" stroke-width="0.951"/><path d="M88,378.2a8.944,8.944,0,0,1-4.5-3.1m9.7-1.3c-2,.8-6.2.5-6.4.5m-30.5,26c.6-2.1,1.8-2.6,3.2-3.3,1.5-.6,3.7-2.4,2.3-1.1a25.538,25.538,0,0,1-4.1,2.6c-.7.5-1.1,1.5-.8,2" fill="none" stroke="#650000" stroke-width="1"/><path d="M53.4,392.2c1.3,2.1.5,5.1-1.2,5.9" fill="none" stroke="#650000" stroke-linecap="round" stroke-width="1"/><path d="M57.7,384.9c2.1.9,2.2,2.9,2.5,4.1-.7-.3-1.3-.2-1.8-.4" fill="none" stroke="#650000" stroke-width="1"/><path d="M56.9,386a10.448,10.448,0,0,1,2.1,3.8c.1,1.2.1,4.1-3.3,4,.3-.9.7-3.1.2-4" fill="none" stroke="#650000" stroke-width="0.913"/><path d="M56.1,391.9a2.936,2.936,0,0,1-1.9,2.9m-3.3-11.3c.1,2.3-4.1,3.9-4,.5" fill="none" stroke="#650000" stroke-width="1"/><path d="M46.9,384a1.708,1.708,0,0,1-3.2.6c-.6-.9-1-1.4-1.4-1.5s-.4-1.5-.5-1.7a6.943,6.943,0,0,0-.5-1.3" fill="none" stroke="#650000" stroke-width="1.007"/><path d="M43.6,384.5c1.1,1.8,3.6.7,4.3,1.5.7.7-.6,3.3-1,4.8a2.534,2.534,0,0,1-3.8.2,40.4,40.4,0,0,0,.5-5.6Z" stroke="#650000" stroke-width="1.052" fill="url(#a)"/><path d="M24.5,373.8c.2,1.1-.1,1.3-.3,2.3a8.749,8.749,0,0,0,.1,2.6M24,403.6a11.432,11.432,0,0,1,2.7,0m.6,2.8a7.354,7.354,0,0,1,1.7-1.8m8,3a6.91,6.91,0,0,0,.4-2.5m2.8,2.5a4.36,4.36,0,0,0,.7-2.4m1.8,2.4a5.82,5.82,0,0,0,.6-2.8m3.4,2.9a6.735,6.735,0,0,0,.4-2.4M74.9,404c-1.6-.4-2.5,1.8-2.5,1.8m4.5-2.2a7.305,7.305,0,0,1-1.4,3m3.9-3.1a7.824,7.824,0,0,1-1.5,3.1m4.6-3.6a5.755,5.755,0,0,1-1.5,3m3.7-3.6a8.253,8.253,0,0,1-1.2,4.4m3.9-3.8a4.112,4.112,0,0,1,0,2m-17-5.2a3.152,3.152,0,0,1,1.7,1.4m-3.5,1.6c.5-1.9,2.9-1,3.2-.5m41.5-8.1a5.939,5.939,0,0,0-2.2.4m6.2,1.2a9.555,9.555,0,0,1-2.6.6m4.2,2.1c-1-.1-1.8-.1-1.8-.1m3.8,2.7a22.445,22.445,0,0,0-2.7,0m1.9,3.3a2.181,2.181,0,0,0-1.4-1.2m-8.8,3.4a3.749,3.749,0,0,1,2.9-2.6h1m-5.4-.5a10.956,10.956,0,0,1,2.7-.5m-70.4-5.1a9.674,9.674,0,0,0,1.9-2.5m10.9-18.2c-1,1.1-1.1,1.2-1.1,1.2m2.1.8c-1.4.1-1.5.1-1.5.1" fill="none" stroke="#650000" stroke-width="1"/><path d="M49.6,378.4c1-.4,3.4-.1,3.4.8,0,1.1-.9,1.1-3.4.1v-.9Z" fill="none" stroke="#650000" stroke-width="1.132"/><path d="M46.3,378.5c.1-1.3-2.4-2.5-3-1.8-.7,1.2,1.4,2.2,1.9,2.2s.2.1.2.1" fill="none" stroke="#650000" stroke-width="0.92"/><path d="M53.7,387.9c.8,1.5,1,4.1.1,5.3" fill="none" stroke="rgba(101,0,0,0.3)" stroke-width="1"/><path d="M53.1,383.2a8.671,8.671,0,0,0-.2,4.9m-11-4.2a1.626,1.626,0,0,1-1.4.4" fill="none" stroke="#650000" stroke-width="1"/><path d="M50.9,391.4c.8.4,1.9,3,1.7,3.9l-.2.9m-1.8-3.7c.5,1.3,1.1,3.2.9,3.9l-.2.6m-3.6-3.3c.3,1.3.2,3.4-.3,3.9l-.4.4m0-4a33.294,33.294,0,0,0-.9,3.7" fill="none" stroke="rgba(101,0,0,0.3)" stroke-width="1"/><path d="M40,384.7a22.322,22.322,0,0,1-2.2,2.6" fill="none" stroke="rgba(101,0,0,0.1)" stroke-linecap="round" stroke-width="2.161"/><path d="M39.4,389.9a13.114,13.114,0,0,0-1.9,2.1m2.8,0c-1.3-.9-2.7.6-2.7.6" fill="none" stroke="rgba(101,0,0,0.3)" stroke-width="1"/><path d="M32.5,394.3c-.3.9-2.7,1.5-2.7,1.5" fill="none" stroke="rgba(101,0,0,0.09)" stroke-width="1.232"/><path d="M51.9,378.7l-.2,1" fill="none" stroke="#650000" stroke-linecap="round" stroke-width="1.94"/><path d="M45.4,376.9c-.2.7-.5,1.5-.5,1.5" fill="none" stroke="#650000" stroke-linecap="round" stroke-width="1.574"/><path d="M38,384.5c-2.9,1.5-3.4,2.8-2.9,6" fill="none" stroke="#650000" stroke-width="1"/><path d="M57.7,380.2c-.8.4-.7,2.3-.7,2.3" fill="none" stroke="#600" stroke-width="1.197"/><path d="M40,377.5c.9.6.5,2.5.5,2.5" fill="none" stroke="#600" stroke-width="1.05"/><path d="M34.2,407.3c-.1,1.8-1.8,1.4-2.6,1.4l.7-1.2a.726.726,0,0,0,.6-.1Z" fill="rgba(57,0,0,0.6)"/><path d="M49.7,391.4a6.473,6.473,0,0,1,.1,2.4,7.045,7.045,0,0,1-.9,2.9,8.6,8.6,0,0,0-.7,1.2l-2.1-1.4c.1.5,0-.3.1-.5a3.313,3.313,0,0,0,.4-1.5c0-.7.6-1.8.9-.7Zm-7.4,5.8a9.331,9.331,0,0,0,2.2-.4c.8-.3.1-.4.7-1a6.117,6.117,0,0,0,.5-1.2l-.9-.1c-.1.7-.8.1-.9.2-.3.3-.3.1-.7.2s-.8-.1-.2.2Zm46-4.6A9.27,9.27,0,0,1,87,396a8.945,8.945,0,0,1-3.9,3.4l-1.5.3-.2-5a1.952,1.952,0,0,0,.7-.1,4.365,4.365,0,0,0,1.9-1.7c.5-.9.7-2.1.4-.2Z" fill="rgba(57,0,0,0.1)"/><path d="M27,392.7c3.4-.8,5.3-5.3,5.3-5.3" fill="none" stroke="rgba(112,112,112,0.26)" stroke-width="1.405"/><path d="M23.1,388.7c3.5.2,6-3.6,6-3.6" fill="none" stroke="rgba(112,112,112,0.26)" stroke-width="1.405"/><path d="M105.7,398.6c.1-.2.1-.3.2-.5-.4,1-.3.5,1-.5h2.5a6.551,6.551,0,0,1,2.5.5,17.668,17.668,0,0,1,1.7,1.2" fill="none" stroke="rgba(119,0,0,0.1)" stroke-width="2.556"/><path d="M39.2,395.1c-.1.5,1.2,1.2,2,1.2a3.389,3.389,0,0,0,1.4-1.5c.1-.3,0-.1.1-.4L41,392.8c-.2.1-.4.3-.4.4-.3.4-.3.7-.7.9s-.4.1-.1.2l-.3.5Zm15.3-.1a4.454,4.454,0,0,0,1-1.8,12.628,12.628,0,0,0,.4-3.9c-.1-.4-.1-.9-.2-1.3l-1.9.9c0,.2.1.4.1.6a4.133,4.133,0,0,1-.2,1.9c-.2.6-.6,1,0,.4Z" fill="rgba(57,0,0,0.1)"/><path d="M55.8,386.3a2.479,2.479,0,0,1,1.5.8,9.377,9.377,0,0,1,1.8,3.1c.1.4.2.8.3,1.3l-2,.8c0-.2-.1-.4-.1-.6a3.765,3.765,0,0,0-.9-1.5c-.4-.3-.9-.4-.1-.3Z" fill="rgba(0,0,0,0.1)"/><path d="M52.8,397.6c.5-.9,1-.4,1.1-1.4a10.777,10.777,0,0,0-.7-4.7c-.2-.5-.5-.9-.7-1.4L50,392l.3.6a4.454,4.454,0,0,1,.3,2.3c-.1.8,0,1,.6,1.2Z" fill="rgba(57,0,0,0.1)"/><path d="M117.7,401.8a6.551,6.551,0,0,1,2.5.5,17.668,17.668,0,0,1,1.7,1.2m-9.1-8.4a7.634,7.634,0,0,1,2.6-.2c.6.2,1.2.5,1.8.7" fill="none" stroke="rgba(119,0,0,0.1)" stroke-width="2.556"/><path d="M96.3,397.9a10.107,10.107,0,0,1-1.7-.3c-.4-.3-.7-.7-1.1-1" fill="none" stroke="rgba(119,0,0,0.1)" stroke-width="1.926"/><path d="M102.9,385.4c-3.4-.1-6-.2-8.2-.2-2.2-.1-5.9-.2-8.3-.2" fill="none" stroke="rgba(119,0,0,0.1)" stroke-width="2.119"/><path d="M75.5,388.1a3.32,3.32,0,0,1,1.6-.5,6.108,6.108,0,0,1,1.3.3" fill="none" stroke="rgba(119,0,0,0.1)" stroke-width="1.926"/><path d="M22.9,383.6a3.779,3.779,0,0,1-.9,1.2,1.624,1.624,0,0,1-1.4.4c-.2-.1-.2-1.4-.3-1.5l.3-.9c.1,0,.1.1.2.1a.912.912,0,0,0,.8-.3c.3-.3.5-.8.1,0Z" fill="rgba(57,0,0,0.1)"/><path d="M43.4,384a5.37,5.37,0,0,1-1.4,3.6" fill="none" stroke="#650000" stroke-width="1.052"/><path d="M42.1,382.9a7.394,7.394,0,0,0,.2,4.6" fill="none" stroke="#650000" stroke-width="1.161"/><path d="M48.7,385.9a5.676,5.676,0,0,0,1,3.8" fill="none" stroke="#650000" stroke-width="1.047"/><path d="M50.2,385a7.423,7.423,0,0,1-.7,4.5" fill="none" stroke="#650000" stroke-width="1.156"/><path d="M40.8,406c-.1,1.9-2.6,1.4-3.6,1.4l.3-.5c.1,0,1-.6,1.4-.8Z" fill="rgba(57,0,0,0.1)"/><path d="M43.2,405.2c-.1,2.7-2.2,2-3.1,2l.3-.7c.1,0,.9-.9,1.2-1.1Zm3.8.1c-.1,4-3,2.9-4.2,2.9l.3-1c.2,0,1.2-1.3,1.6-1.7Z" fill="rgba(57,0,0,0.1)"/><path d="M50.8,405.2c-.1,4-3,2.9-4.2,2.9l.3-1c.2,0,1.2-1.3,1.6-1.7Zm-13.7,0c-.1,4-2.6,2.9-3.6,2.9l.3-1c.1,0,1-1.3,1.4-1.7Z" fill="rgba(57,0,0,0.1)"/><path d="M38.9,394.4c-.3,1-.9,1.8-.8,2.4l-.5-.2c.4.1-.5-1.6-.7-1.3l.5-.4.1-.2.2-.1Z" fill="rgba(57,0,0,0.6)"/><path d="M58.1,383.5a7.668,7.668,0,0,1,2.1.5c-.5.7-1.8,1.2-2.3.9" fill="none" stroke="#650000" stroke-width="1"/><path d="M88.3,400.4a6.229,6.229,0,0,1-1.9.1c-.5-.2-.9-.5-1.4-.7" fill="none" stroke="rgba(119,0,0,0.1)" stroke-width="2.066"/><path d="M80.7,403.1a16.408,16.408,0,0,0,3.7.5c1-.1,1.9-.4,2.9-.5" fill="none" stroke="rgba(119,0,0,0.1)" stroke-width="3.17"/><path d="M61.1,399.2c-1.5.5-2.2.5-2.7.1" fill="none" stroke="#650000" stroke-linecap="round" stroke-width="1"/><path d="M62.7,398c-1.3.5-2.1.7-2.7.3" fill="none" stroke="#650000" stroke-linecap="round" stroke-width="0.965"/><path d="M65,396.5c-.9.5-1.4.7-1.8.3" fill="none" stroke="#650000" stroke-linecap="round" stroke-width="0.787"/><path d="M66.5,395.3c-1.1.5-1.7.7-2.2.3" fill="none" stroke="#650000" stroke-linecap="round" stroke-width="0.871"/><path d="M24.3,373.8c.2,1.1-.1,1.3-.3,2.3a8.749,8.749,0,0,0,.1,2.6m3.6-3.5a5.829,5.829,0,0,0-.9,3.4" fill="none" stroke="#650000" stroke-width="1"/><path d="M19.6,375.7a3.419,3.419,0,0,1,3,2.7l.6,1.8" fill="none" stroke="#650000" stroke-width="1.011"/><path d="M72.7,359.3c-.4.6.7,3.5,2.4,3.5a7.386,7.386,0,0,1-1-3.8Zm-4.3-3.1c-.6.1-2.1,3.9.3,5.2a6.872,6.872,0,0,1,1.2-3.7l-1.2-1.1Z" fill="#2b5df2" stroke="#650000" stroke-width="1"/><path d="M68.1,353.9c-.6-.6-3.2,1.2-3.1,3.9a4.723,4.723,0,0,1,3.5-1.7Zm3-2.2c0-.9-2.3-1.8-3.5-.1a4.143,4.143,0,0,1,2.7,1.8Zm46,7.9a1.755,1.755,0,0,0,.6,1.5,5.9,5.9,0,0,1,.8,1.7s1.2-3.4.9-3.9C119.1,358.5,117.1,359.6,117.1,359.6Zm-6.6-1.4c-.6-.1-1.8,2.7-.8,4.7a5.32,5.32,0,0,1,1.8-3.2Zm-3.1-.8c-.5-.5-2.6,1-2.5,3.4a3.3,3.3,0,0,1,2.8-1.4Zm1.6-3.7c-.3-.7-2.7-.1-3.1,2.1a3.363,3.363,0,0,1,3-.2Zm-78-1.6c.2-.8-1.5-3-3.1-2.1a6.088,6.088,0,0,1,1.9,3.2Zm-6.7,5c-.6-.7-3,1.3-2.9,4.4a4.177,4.177,0,0,1,3.3-1.9Zm.2-4.4c-.3-1-3.1-.9-4.1,1.9a3.678,3.678,0,0,1,3.6.6Zm2.9,8.3a1.706,1.706,0,0,0,.3,1.6,9.348,9.348,0,0,1,.6,1.9s1.7-3,1.5-3.5C29.5,360.5,27.5,361,27.4,361Zm-7.1-34.6c0-1.1-2.8-2.2-4.3,0a4.534,4.534,0,0,1,3.2,2.1Zm-2.9,4.3c-.6-.7-3,1.3-2.9,4.4a4.177,4.177,0,0,1,3.3-1.9Zm10-4.7c.3-1-2.1-3.3-4.1-2a5.676,5.676,0,0,1,2.5,3.5Zm3.3,3.7c.5-.6-.4-3.6-2.1-3.8a7.332,7.332,0,0,1,.7,4Z" fill="#2b5df2" stroke="#650000" stroke-width="1"/><path d="M39.9,333.3c-1.7-2,0-5.6,1.5-4.1-.8-1.5.5-2.7,1.1-1.9-.3-1.2,1-2,1.6-.9-.2-1.3,1.7-2.1,2.2-.7,0-1.3,1.9-2.4,2.3-.4.4-1.5,2.4-1.7,2.6.4.6-1.2,2.1-1.1,2.2.6.7-.8,2.4.4,2.1,1.9,1.1-.2,2.4,1.9,1.1,3.5,2.3-1.2,2.9,2.7,1.4,4.5.7.4.8.1,1.4.4a11.764,11.764,0,0,0,2.9,1.1c1,0,4.5-.1,5.2-.2a21.813,21.813,0,0,0,2.9-.9c1.2-.4,3-.4,4.6-.8,1.3-.1,37.4.6,38.5.5,1-.1,2.6-1.1,2.5-2.3a2.671,2.671,0,0,0-2.5-2.2,80.027,80.027,0,0,0-8.5.1,8.472,8.472,0,0,0-3.5,1.5c-.4.2-1,1.2-1.6,1.8-.5.4-1.9.5-1.9-.1,0-.4-.1.1-.5.2-.5.3-2.5.4-2.4,0,.2-.4,0-.5-.5-.1a7.691,7.691,0,0,1-3.7.1c.3-.5.3-.5-.5-.1-.5.2-2.8.4-2.9,0,0-.4-.3-.2-.6-.1-2.5.7-2.8-.1-2.4-.4s1-2.2.4-2.1-4.6.9-6,1.1-11.2,0-12.6-.1a3.425,3.425,0,0,1-3-3.2c-.1-2.9,2.2-3.6,3.7-4a35.318,35.318,0,0,1,6.5-1.1c1.4,0,5.5.5,6.7.1,1.1-.4,4.5-1.7,5.5-1.7,1.4-.1,5.5.3,7.4,2.6-1,.5-1.5.7-.3.3,1-.2,5.5-1.1,6.5-1.4,3.6-.2,2.7.4.9.8-.6,1.8-5.9,4.4-7.6,4.7a23.12,23.12,0,0,1-6-.1c-.8-.1-4.6-.2-6-1.1a16.925,16.925,0,0,0-8.1-2.4c-1.7,0-6.5.5-6.5,2.2,0,2.9,4.5,3.1,6.4,2.9,1.9-.1,6.7-.3,8.1-.9a22.715,22.715,0,0,1,5.9-.7c1.6,0,3.9.4,4.7.2.7-.1,2.4-.1,3.2-.7a8.928,8.928,0,0,1,4.3-1.1c1.8,0,14.8-.5,16.6-.4,2.5,0,4.3,2.7,4.4,5.1,0,1.1-.5,2.7-1,3,.8.1,2.8.3,3.4.4,1.2.2,3.2,1.6,3.4,2.8a8.676,8.676,0,0,0-3.8-1.5h-31c6.1.7,10.7,5.3,11.9,8,1,1.6,3.6,1,4.6.8a6.915,6.915,0,0,0,2.9-2,2.941,2.941,0,0,1,2.6-.8,1.17,1.17,0,0,1,1,1.9c-.5.7.1.4,1.4.4a3.934,3.934,0,0,1,3.2,1.5c-.7.7-1.1.1,0,.2,1,.1,2.3,2,1.5,2.5-.7.3-.9.2,0,.3,1.3.1,1.7.9,1.8,2.4-1.1.2-.6-.1,0,.4s1.4,3-.6,3.1c-.7-.3-.7-.4-.6.4s-.2,2.6-1.4,2.6c-1.6.3-3-.5-3.1-1.5-.2-1-.1,1.9-2.3,2.3-2.1.5-3.2-.7-3.3-1.3-.2-.5-.1-.1-.9-.2s-1.8-.1-2.2-1.4c0-.8.2-1.8,1.6-1.9.6-.1.8-.9.3-1s-.1-1.7,1-1.3c1,.4,3.4.5,4,1.1.6.5.7-.4-.2-1.3s-6.2-2.6-7.7-2c-3.4,1.7-9,1.4-9.9,1.2-1-.2-3.7.4-5-3.6a9.1,9.1,0,0,0-6.9-6.3c-9.1-.8-8.6-.2-2.7.1,0,.8-.3,2.3.7,2.5,1.6-.2,4.9-.9,5.7-.3.8.7,1.6,1.2,1.4,2.7s.1,1.1-.6,1.7a1.487,1.487,0,0,0,.7,2.4,6.717,6.717,0,0,1,2.3,1.6c.7.6-.3,2-1,1.5-.6-.4-.6-.4-.7.4-.1.9-.9,2.5-2.2,2.6-.3-.1-.2-.6-.2-.9.1-.8-.3.9-.7,1.4a5.429,5.429,0,0,1-3.2.6c.3-.7.1-.4-.4-.1-.5.2-3.5.6-2.2-.8.3-.5-.5.6-.9.8s-2.1.4-2.1-.3c-.6.5-1.9.5-2.1.1-.4-.4-.4.3-1.2.4-.7.1-2.3-.1-2.4-1s.2-.3-.7-.2c-2.1,1.4-3.2-.5-3.2-1.2a3.854,3.854,0,0,1,.2-1.9c.2-.4-1.5-.6-1-1.4.6-1,1.2-1.8,2.4-1.6.6.1.5-.2.2-.7-.2-.4.6-.7,1.7-.2a4.027,4.027,0,0,1,2.1,2.5c.3,1,2.8.2,3.8.3s1.1-1.6.5-2.2c-.6-.5-2.4-2.5-3.1-3.2s-.2-2.9.4-3.5c3.7-2.5,1.7-3.3.3-3.1s-4.9,1.6-6,2.8-9.8,7.1-10.6,7.7c-.8.7-2,.8-2.4,0-.5-.8-.8-.2-.7.9a4.621,4.621,0,0,1-3.8,5.4A2.83,2.83,0,0,1,51,358c-.5,2.3-2.5,2.5-4.4,2.3,0-.3.3-.8.1-.6-.6.8-2.5.7-4.1.6-.1-.5.6-1.1.2-.7-.5,1-1.5.8-3,.7,0-.2.7-.9.4-.5-.7.7-2.1.5-3.1.5-.1-.2.6-1.3-.1-.5-.6.6-1.9.7-3.1.6-.2-.5.3-.5.4-.9.3-.5-.2,0-.6,0s-1,.1-1.2-.4-.1.5-.3.8a2.113,2.113,0,0,1-1.3,1.1c-.8.2-2.9.4-3.2-.5a2.061,2.061,0,0,1-.3-2c.3-.5-1.5,1.1-2.3,1.2-2.3.4-2.6-3.2-1.6-3.5s.9-.9.3-1.3-.9-2.2-.2-2.7A3.667,3.667,0,0,1,27,352c.6.4,1.9,1.8,1.7.8a2,2,0,0,1,.8-1.9,1.537,1.537,0,0,1,2.2.4c.8,2,1.4,2.9,2.5,2.8a39.956,39.956,0,0,1,6.1-1.3c1.1-.3,7.1-.8,7.1-1.4-3.6,1.2-5-.4-5.4-.3s-1.4-.4-1.4-.7c0-.7.9-.6-.4-.4a2.668,2.668,0,0,1-2.1-.9c-.1-.4.8-1.8,1.2-2.9-.8-.2-2.7,1.2-3.2,2.5-.4-.5-.6,0-2.1.3a3.569,3.569,0,0,1-2.5-.1c-.6-.3-3.1-2.2-1.9-2.4a4.705,4.705,0,0,0-.9-.3c-.9-.4-1.7-1.1-1.5-1.3-.2-.3.3-.3-.1-.4-.5-.1-1.7-1-1.4-1.3-.3-.2-1-.5-1.3-.7a3.508,3.508,0,0,1-1.2-2c-.5,0-1.6-.9-1.1-1.2-.8-.6-1.6-1.6-1-2-.5-.4-.8-1.1-.5-.8-.5-.6-.4-1.3,0-1.3s.2-1.7-.5-1.7-1.9.5-2.7,0c-.7-.5-1.3-2.8-.6-3.8.6-1,1.9-2.1,2.6-2,.6.1.3.3.2-.7-.2-1,.9-1.7,1.6-2a3.814,3.814,0,0,1,3,.3c.5.4.6.4.6-.3,0-.5.6-.8,1.2-1a2.116,2.116,0,0,1,2,.4c.5.7.8,1.5.2,2.2s-.1.1,1-.1c.7-.2,1.9.1,2.1.8.3.8.5,2.1-.2,2.7s-1.8,2.3-1.2,2.8,2.3,2.9,2.7,3.3c.4.3.9,1.1,1.5,1s1.4-.2,1.9-.3c2.2-.4,3.2-.7.4-.6a4.039,4.039,0,0,1,2.6-1.3c-1,.2.9-1.4.9-1.6Z" fill="#ffcf00" stroke="#650000" stroke-width="1"/><path d="M39.9,342.1c-1.5-.2-5.4,3.1-4.2,7.2" fill="none" stroke="#650000" stroke-width="1.081"/><path d="M40.1,338.4c-2.1,12.9,10.6,7.9,10.7,3.6" fill="none" stroke="#707070" stroke-width="1.067"/><path d="M50.1,343.8c.2,1.7.3,6.4-1.5,7.6a6.564,6.564,0,0,1-5.7.8" fill="none" stroke="#650000" stroke-width="0.992"/><path d="M46.2,346.5c-.2,1.7-1.9,5.8-5.2,5.2M19.5,328.6a3.66,3.66,0,0,1,3,2.7l.6,1.8m-2.2,5.1a4.658,4.658,0,0,0,2.1,0" fill="none" stroke="#650000" stroke-width="1"/><path d="M21.7,340a5.148,5.148,0,0,0,3.3-.3" fill="none" stroke="#650000" stroke-width="0.909"/><path d="M25.3,344c4.5,0,6.4-6.2,6.4-6.2" fill="none" stroke="rgba(112,112,112,0.26)" stroke-width="1.017"/><path d="M34.4,341.1c-1.2,3.2-1.1,3.2-2.7,3.9l-1.6.7" fill="none" stroke="rgba(101,0,0,0.09)" stroke-width="1.232"/><path d="M29.3,347.3a7.827,7.827,0,0,0,2.8-1.5m-4.6-17.9a5.829,5.829,0,0,0-.9,3.4M47.8,328c.2,2.2-.7,3.4-1.4,3.4-.6,0-1.3.8-.9,2.1m4.9-5.9a5.219,5.219,0,0,0-1,4.5c.4,1.3,0,1.7,0,1.7" fill="none" stroke="#650000" stroke-width="1"/><path d="M37.2,340.1c-2,.5-2.8,4.1-1.7,6" fill="none" stroke="#650000" stroke-width="1.244"/><path d="M55.4,335H54s-.9,1.9-2.3,1.3c-1.5-.5-.1,0-.1,0m-3.5-2.8c2.1.1,1.7,1.7.1,1.5.1,2-2.3,1.8-2.1.2-1.5,0-2.1-2,.1-1.7M98.1,335c.4-1.3,2.4-2.5,2.4-2.5M95.2,335a8.973,8.973,0,0,1,2.4-2.5m-6.7,2.6a10.393,10.393,0,0,0,2.1-1.5c.5-.5,1.4-1.3,1.4-1.3" fill="none" stroke="#650000" stroke-width="1"/><path d="M87.2,335.1a17.316,17.316,0,0,0,2.4-1.3,9.878,9.878,0,0,0,1.4-1.3" fill="none" stroke="#650000" stroke-width="0.951"/><path d="M88,330.9a8.944,8.944,0,0,1-4.5-3.1m9.7-1.2c-2,.8-6.2.5-6.4.5M56.3,353c.6-2.1,1.8-2.6,3.2-3.3,1.5-.6,3.7-2.4,2.3-1.1a25.538,25.538,0,0,1-4.1,2.6c-.7.5-1.1,1.5-.8,2" fill="none" stroke="#650000" stroke-width="1"/><path d="M53.4,345c1.3,2.1.5,5.1-1.2,5.9" fill="none" stroke="#650000" stroke-linecap="round" stroke-width="1"/><path d="M57.7,337.6c2.1.9,2.2,2.9,2.5,4.1-.7-.3-1.3-.2-1.8-.4" fill="none" stroke="#650000" stroke-width="1"/><path d="M56.9,338.8a10.448,10.448,0,0,1,2.1,3.8c.1,1.2.1,4.1-3.3,4,.3-.9.7-3.1.2-4" fill="none" stroke="#650000" stroke-width="0.913"/><path d="M56.1,344.6a2.936,2.936,0,0,1-1.9,2.9m-3.3-11.3c.1,2.3-4.1,3.9-4,.5" fill="none" stroke="#650000" stroke-width="1"/><path d="M46.9,336.8a1.708,1.708,0,0,1-3.2.6c-.6-.9-1-1.4-1.4-1.5s-.4-1.5-.5-1.7a6.943,6.943,0,0,0-.5-1.3" fill="none" stroke="#650000" stroke-width="1.007"/><path d="M43.6,337.3c1.1,1.8,3.6.7,4.3,1.5.7.7-.6,3.3-1,4.8a2.534,2.534,0,0,1-3.8.2,40.4,40.4,0,0,0,.5-5.6Z" stroke="#650000" stroke-width="1.052" fill="url(#b)"/><path d="M24.5,326.5c.2,1.1-.1,1.3-.3,2.3a6.379,6.379,0,0,0,.1,2.6M24,356.3a11.432,11.432,0,0,1,2.7,0m.6,2.8a7.354,7.354,0,0,1,1.7-1.8m8,3.1a6.91,6.91,0,0,0,.4-2.5m2.8,2.5a4.36,4.36,0,0,0,.7-2.4m1.8,2.3a5.82,5.82,0,0,0,.6-2.8m3.4,3a6.735,6.735,0,0,0,.4-2.4m27.8-1.4c-1.6-.4-2.5,1.8-2.5,1.8m4.5-2.1a7.305,7.305,0,0,1-1.4,3m3.9-3.2a7.824,7.824,0,0,1-1.5,3.1m4.6-3.6a5.755,5.755,0,0,1-1.5,3m3.7-3.6a8.253,8.253,0,0,1-1.2,4.4m3.9-3.8a4.112,4.112,0,0,1,0,2m-17-5.2a3.152,3.152,0,0,1,1.7,1.4m-3.5,1.6c.5-1.9,2.9-1,3.2-.5m41.5-8.1a5.939,5.939,0,0,0-2.2.4m6.2,1.2a9.555,9.555,0,0,1-2.6.6m4.2,2.2c-1-.1-1.8-.1-1.8-.1m3.8,2.6a22.445,22.445,0,0,0-2.7,0m1.9,3.4a2.181,2.181,0,0,0-1.4-1.2m-8.8,3.4a3.749,3.749,0,0,1,2.9-2.6h1m-5.4-.6a10.956,10.956,0,0,1,2.7-.5m-70.4-5.1a9.674,9.674,0,0,0,1.9-2.5m10.9-18.2c-1,1.1-1.1,1.2-1.1,1.2m2.1.8c-1.4.1-1.5.1-1.5.1" fill="none" stroke="#650000" stroke-width="1"/><path d="M49.6,331.1c1-.4,3.4-.1,3.4.8,0,1.1-.9,1.1-3.4.1v-.9Z" fill="none" stroke="#650000" stroke-width="1.132"/><path d="M46.3,331.2c.1-1.3-2.4-2.5-3-1.8-.7,1.2,1.4,2.2,1.9,2.2s.2.1.2.1" fill="none" stroke="#650000" stroke-width="0.92"/><path d="M53.7,340.7c.8,1.5,1,4.1.1,5.3" fill="none" stroke="rgba(101,0,0,0.3)" stroke-width="1"/><path d="M53.1,335.9a8.671,8.671,0,0,0-.2,4.9m-11-4.2a1.626,1.626,0,0,1-1.4.4" fill="none" stroke="#650000" stroke-width="1"/><path d="M50.9,344.1c.8.4,1.9,3,1.7,3.9l-.2.9m-1.8-3.7c.5,1.3,1.1,3.2.9,3.9l-.2.6m-3.6-3.2c.3,1.3.2,3.4-.3,3.9l-.5.4m.1-4.1a33.294,33.294,0,0,0-.9,3.7" fill="none" stroke="rgba(101,0,0,0.3)" stroke-width="1"/><path d="M40,337.4a22.322,22.322,0,0,1-2.2,2.6" fill="none" stroke="rgba(101,0,0,0.1)" stroke-linecap="round" stroke-width="2.161"/><path d="M39.4,342.6a13.114,13.114,0,0,0-1.9,2.1m2.8.1c-1.3-.9-2.7.6-2.7.6" fill="none" stroke="rgba(101,0,0,0.3)" stroke-width="1"/><path d="M32.5,347.1c-.3.9-2.7,1.5-2.7,1.5" fill="none" stroke="rgba(101,0,0,0.09)" stroke-width="1.232"/><path d="M51.9,331.4l-.2,1" fill="none" stroke="#650000" stroke-linecap="round" stroke-width="1.94"/><path d="M45.4,329.6c-.2.7-.5,1.5-.5,1.5" fill="none" stroke="#650000" stroke-linecap="round" stroke-width="1.574"/><path d="M38,337.2c-2.9,1.5-3.4,2.8-2.9,6" fill="none" stroke="#650000" stroke-width="1"/><path d="M57.7,332.9c-.8.4-.7,2.3-.7,2.3" fill="none" stroke="#600" stroke-width="1.197"/><path d="M40,330.2c.9.6.5,2.5.5,2.5" fill="none" stroke="#600" stroke-width="1.05"/><path d="M34.2,360c-.1,1.8-1.8,1.4-2.6,1.4l.7-1.2a.726.726,0,0,0,.6-.1Z" fill="rgba(57,0,0,0.6)"/><path d="M49.7,344.1a6.473,6.473,0,0,1,.1,2.4,7.045,7.045,0,0,1-.9,2.9,8.6,8.6,0,0,0-.7,1.2l-2.1-1.4c.1.5,0-.3.1-.5a3.313,3.313,0,0,0,.4-1.5c0-.7.6-1.8.9-.7Zm-7.4,5.8a9.331,9.331,0,0,0,2.2-.4c.8-.3.1-.4.7-1a6.117,6.117,0,0,0,.5-1.2l-.9-.1c-.1.7-.8.1-.9.2-.3.3-.3.1-.7.2s-.8-.1-.2.2Zm46-4.6a9.27,9.27,0,0,1-1.3,3.4,8.945,8.945,0,0,1-3.9,3.4l-1.5.3-.2-5a1.952,1.952,0,0,0,.7-.1,4.365,4.365,0,0,0,1.9-1.7c.5-.9.7-2.1.4-.2Z" fill="rgba(57,0,0,0.1)"/><path d="M27,345.5c3.4-.8,5.3-5.3,5.3-5.3" fill="none" stroke="rgba(112,112,112,0.26)" stroke-width="1.405"/><path d="M23.1,341.5c3.5.2,6-3.6,6-3.6" fill="none" stroke="rgba(112,112,112,0.26)" stroke-width="1.405"/><path d="M105.7,351.4c.1-.2.1-.3.2-.5-.4,1-.3.5,1-.5h2.5a6.551,6.551,0,0,1,2.5.5,17.668,17.668,0,0,1,1.7,1.2" fill="none" stroke="rgba(119,0,0,0.1)" stroke-width="2.556"/><path d="M39.2,347.9c-.1.5,1.2,1.2,2,1.2a3.389,3.389,0,0,0,1.4-1.5c.1-.3,0-.1.1-.4L41,345.6c-.2.1-.4.3-.4.4-.3.4-.3.7-.7.9s-.4.1-.1.2l-.3.5Zm15.3-.1a4.454,4.454,0,0,0,1-1.8,12.628,12.628,0,0,0,.4-3.9c-.1-.4-.1-.9-.2-1.3l-1.9.9c0,.2.1.4.1.6a4.133,4.133,0,0,1-.2,1.9c-.2.6-.6,1,0,.4Z" fill="rgba(57,0,0,0.1)"/><path d="M55.8,339a2.479,2.479,0,0,1,1.5.8,9.377,9.377,0,0,1,1.8,3.1c.1.4.2.8.3,1.3l-2,.8c0-.2-.1-.4-.1-.6a3.765,3.765,0,0,0-.9-1.5c-.4-.3-.9-.4-.1-.3Z" fill="rgba(0,0,0,0.1)"/><path d="M52.8,350.3c.5-.9,1-.4,1.1-1.4a10.777,10.777,0,0,0-.7-4.7c-.2-.5-.5-.9-.7-1.4l-2.4,1.9.3.6a4.454,4.454,0,0,1,.3,2.3c-.1.8,0,1,.6,1.2Z" fill="rgba(57,0,0,0.1)"/><path d="M117.7,354.5a6.551,6.551,0,0,1,2.5.5,17.668,17.668,0,0,1,1.7,1.2m-9.1-8.3a7.634,7.634,0,0,1,2.6-.2c.6.2,1.2.5,1.8.7" fill="none" stroke="rgba(119,0,0,0.1)" stroke-width="2.556"/><path d="M96.3,350.7a10.107,10.107,0,0,1-1.7-.3c-.4-.3-.7-.7-1.1-1" fill="none" stroke="rgba(119,0,0,0.1)" stroke-width="1.926"/><path d="M102.9,338.1c-3.4-.1-6-.2-8.2-.2-2.2-.1-5.9-.2-8.3-.2" fill="none" stroke="rgba(119,0,0,0.1)" stroke-width="2.119"/><path d="M75.5,340.9a3.32,3.32,0,0,1,1.6-.5,6.108,6.108,0,0,1,1.3.3" fill="none" stroke="rgba(119,0,0,0.1)" stroke-width="1.926"/><path d="M22.9,336.3a3.779,3.779,0,0,1-.9,1.2,1.624,1.624,0,0,1-1.4.4c-.2-.1-.2-1.4-.3-1.5l.3-.9c.1,0,.1.1.2.1a.912.912,0,0,0,.8-.3c.3-.3.5-.8.1,0Z" fill="rgba(57,0,0,0.1)"/><path d="M43.4,336.7a5.37,5.37,0,0,1-1.4,3.6" fill="none" stroke="#650000" stroke-width="1.052"/><path d="M42.1,335.6a7.394,7.394,0,0,0,.2,4.6" fill="none" stroke="#650000" stroke-width="1.161"/><path d="M48.7,338.6a5.676,5.676,0,0,0,1,3.8" fill="none" stroke="#650000" stroke-width="1.047"/><path d="M50.2,337.8a7.423,7.423,0,0,1-.7,4.5" fill="none" stroke="#650000" stroke-width="1.156"/><path d="M40.8,358.8c-.1,1.9-2.6,1.4-3.6,1.4l.3-.5c.1,0,1-.6,1.4-.8Z" fill="rgba(57,0,0,0.1)"/><path d="M43.2,357.9c-.1,2.7-2.2,2-3.1,2l.3-.7c.1,0,.9-.9,1.2-1.1Zm3.8.1c-.1,4-3,2.9-4.2,2.9l.3-1c.2,0,1.2-1.3,1.6-1.7Z" fill="rgba(57,0,0,0.1)"/><path d="M50.8,358c-.1,4-3,2.9-4.2,2.9l.3-1c.2,0,1.2-1.3,1.6-1.7Zm-13.7,0c-.1,4-2.6,2.9-3.6,2.9l.3-1c.1,0,1-1.3,1.4-1.7Z" fill="rgba(57,0,0,0.1)"/><path d="M38.9,347.2c-.3,1-.9,1.8-.8,2.4l-.5-.2c.4.1-.5-1.6-.7-1.3l.5-.4.1-.2.2-.1Z" fill="rgba(57,0,0,0.6)"/><path d="M58.1,336.3a7.668,7.668,0,0,1,2.1.5c-.5.7-1.8,1.2-2.3.9" fill="none" stroke="#650000" stroke-width="1"/><path d="M88.3,353.1a6.229,6.229,0,0,1-1.9.1c-.5-.2-.9-.5-1.4-.7" fill="none" stroke="rgba(119,0,0,0.1)" stroke-width="2.066"/><path d="M80.7,355.8a16.408,16.408,0,0,0,3.7.5c1-.1,1.9-.4,2.9-.5" fill="none" stroke="rgba(119,0,0,0.1)" stroke-width="3.17"/><path d="M61.1,352c-1.5.5-2.2.5-2.7.1" fill="none" stroke="#650000" stroke-linecap="round" stroke-width="1"/><path d="M62.7,350.7c-1.3.5-2.1.7-2.7.3" fill="none" stroke="#650000" stroke-linecap="round" stroke-width="0.965"/><path d="M65,349.2c-.9.5-1.4.7-1.8.3" fill="none" stroke="#650000" stroke-linecap="round" stroke-width="0.787"/><path d="M66.5,348c-1.1.5-1.7.7-2.2.3" fill="none" stroke="#650000" stroke-linecap="round" stroke-width="0.871"/><path d="M24.3,326.5c.2,1.1-.1,1.3-.3,2.3a6.379,6.379,0,0,0,.1,2.6m3.6-3.5a5.829,5.829,0,0,0-.9,3.4" fill="none" stroke="#650000" stroke-width="1"/><path d="M19.6,328.4a3.419,3.419,0,0,1,3,2.7l.6,1.8" fill="none" stroke="#650000" stroke-width="1.011"/><path d="M128.8,253.1a5.013,5.013,0,0,0-.8,1.4,17.719,17.719,0,0,1-.6,1.7,3,3,0,0,0,.1,3.3,1.734,1.734,0,0,0,3,0,3.556,3.556,0,0,0-.4-3.8,2.456,2.456,0,0,1-.4-2.9c.4-.6-.2-.4-.9.3Zm3.1,7a4.2,4.2,0,0,0-1.2.7c-1.4,1.6,1.8,3.4,4,2.3,2.5-1.2,2.5-1.2,3.7-.9,1,.3,1,.3.8-.1-.4-.7-1-1-3.4-1.7-2.6-.7-2.7-.7-3.9-.3Z"/><path d="M338,116.8a3.611,3.611,0,0,0-1.2,3.5c.3,2,.3,2-2.5,1.5-5.4-.9-15.4-.4-21.6,1.1-8.4,2.1-12.4,1.9-22.1-1-1.1-.3-1.1,0,.7,3.2,2.1,3.8,3.1,4.6,8,6.3l3.2,1.1-5.7,1.5a61.376,61.376,0,0,1-6.8,1.5c-2.3,0-1.2,1.2,2.1,2.4,4.8,1.6,9.9,1.4,20.2-1,7.3-1.7,10.4-2.1,15-1.9,3.2.1,6,.5,6.3.8.4.3-1.3,2.2-3.6,4.3-3.5,3-4.7,3.7-6.8,3.8a35.828,35.828,0,0,0-4.8.4c-2.1.4-2.2.6-2.2,4.4v4l-16.4,15.1c-9,8.3-17.5,15.7-18.8,16.4a11.006,11.006,0,0,0-2.9,2.5,3.422,3.422,0,0,0,1.6,4.4c.9.3.4,1.5-2.8,5.8A82.575,82.575,0,0,0,266,217.2l-2,5.2-1.1-3.8a85.454,85.454,0,0,1-3.2-20.8c0-5.3,0-5.3,3.7-10.5,4.4-6.2,14.9-16.9,20.7-21.2a66.28,66.28,0,0,1,8.8-5.3c5.6-2.6,7.1-3.7,7.1-5.7,0-2.3-1.7-3.4-4.4-2.8-1.6.3-7.8-.7-18.5-2.8-8.9-1.7-16.3-3.3-16.4-3.3,0-.1.7-3,1.7-6.6,1.1-4.2,2.3-7.2,3.5-8.4,2.1-2.2,2.2-4.8.1-6.7a4.73,4.73,0,0,0-8,4.3l.4,2.4-4.7.5a120.738,120.738,0,0,0-13.4,2.8c-9.7,2.6-17.3,3-22.3,1.3a30.018,30.018,0,0,0-3-1,4.115,4.115,0,0,0-.2,1.7c0,3,1.9,5.6,5,7.1l3,1.5-2,.5a30.953,30.953,0,0,1-7.1.1c-2.9-.2-5.2-.2-5.2,0,0,1.5,3.5,5.3,5.7,6.4,4.9,2.5,15.2,1.6,26.7-2.4,5.7-1.9,13.1-2.5,12.6-1-.3.8-10.2,8.2-27.3,20.2-8.6,6-9.9,7.7-8.6,10.6.7,1.6.5,2.2-1.6,5.7-4.6,7.6-8.9,20.7-8.9,27.4,0,3.3-.2,3.6-4.9,8.4-9.5,9.8-28.1,32.8-32.2,39.6l-1.3,2.1-1.3-1.7c-2.7-3.3-8.3-1.5-8.3,2.8,0,2.9,1.8,4.6,5.1,4.6,1.8,0,5.5,1.4,11.8,4.6l9.2,4.5-1.8,1.9c-3.4,3.6-4.1,6.4-2.3,8.9.8,1.1,1.9,1.3,5.9,1.3,4.2,0,5.6.3,10.5,2.7,4.8,2.4,6.6,3.8,13.7,11,21.8,22.4,27.1,27,40.2,34.9a193.941,193.941,0,0,0,28.1,13.6,127.267,127.267,0,0,0,69.2,4.2,122.5,122.5,0,0,0,28.5-10c5.6-2.8,8.4-3.8,8.5-3.3.2.5.8,2.5,1.5,4.4,1.2,3.8,4.7,9.6,6.2,10.2.5.1,11.8-1.4,25.2-3.4s24.5-3.7,24.8-3.7c1.3-.1,3-7.6,3-13.5,0-6-.1-6.4-3.1-12.1-3.8-7.2-9.6-13.2-15.2-15.7L424,307l1.7-2.1c7.8-10.2,17.1-24.8,20.7-32.6l2-5.3,3.7-.1c2,0,3.8-.3,4-.6s-.1-2.4-.6-5.6c-.6-3.2-1.1-5.9-1.1-6a14.356,14.356,0,0,1,2.8-.1H460V238.9l12.2-22.8c6.6-12.5,12.8-23.5,13.7-24.4a4.635,4.635,0,0,0-.7-7.3c-1.6-1.2-2.2-1.2-3.9-.6-2.2.9-3.9,3.6-3.2,5.1.2.6-.4,2.1-1.1,3.5-1.3,2.1-1.8,2.4-3.4,2.1-1.1-.2-9.1-1.5-17.9-3l-15.9-2.6L432,202.7c-4.3,7.6-7.8,13.9-7.7,14.1.1.1,8.3.7,18.2,1.3s18.1,1.3,18.3,1.5c.1.1-2.3,4.4-5.3,9.6l-5.5,9.3H433.8c-14.1,0-16.2.1-17,1.1-.7,1-1.1-.1-2.4-6-2.2-10-4.3-23.3-4.3-26.7s3.1-10.4,8.7-19.8c8.4-14,20.4-27.6,25.2-28.5,4.1-.8,7-2.9,7-5.2,0-2.4-1.1-3.5-3.9-3.8-1.9-.2-26.8-9.8-27.9-10.8-.7-.6,2.8-12.5,4.1-13.9,3.7-4.2-3.5-10.1-7.5-6.2-1.6,1.5-1.8,4.8-.5,6.2.9,1.1,0,.8-3.7.3a56.333,56.333,0,0,0-20.2,1.1c-7.1,1.8-12.5,1.9-18.8.1-2.7-.7-4.7-1-4.7-.6,0,1.6,3,5.9,5.1,7.3a17.692,17.692,0,0,0,5.1,2.1l2.7.6-4.2,1.2c-2.3.6-5.6,1.5-7.3,1.9l-3.2.8,2.8,1.2c4.2,1.9,11.6,1.7,20.7-.6a66.866,66.866,0,0,1,14-1.9c5.6-.1,8.2.4,7.2,1.2-9.4,7.3-41.9,31.5-45.6,33.9-5.6,3.7-6.5,4.8-6.5,8.1,0,1.8.4,2.4,2,3l2,.7-2.5,3.8a76.106,76.106,0,0,0-4.9,9.1l-2.5,5.3-1.3-2.4c-1.2-2.4-2.4-7-3.1-12.2-.4-2.4,0-3.5,3-8.5,4.2-7.1,10.9-16,14.7-19.5a36.2,36.2,0,0,0,3.5-3.5c.6-1-1.6-3.5-3-3.5-1.1,0-26.3-17.2-26.3-17.9,0-1.9,3.8-11.9,4.9-13a4.768,4.768,0,0,0,1.4-3.3c-.1-3.8-5.5-5.9-8.6-2.9Zm14.4,31.1c5.2,3.6,9.5,6.7,9.6,6.9,0,.5-18.5,7-18.8,6.6a24.423,24.423,0,0,1,2.2-5.2,26.787,26.787,0,0,0,2.5-5.9c0-1-6.7-4.2-8.7-4.6-1.7-.3-2-1.2-1.1-4.2l.8-2.8,2,1.2c1.1.9,6.3,4.4,11.5,8Zm88.6,2.8c0,.4-28.3,9.1-28.7,8.8-.1-.1,3.9-14.3,5.1-17.6.2-.6,4.2.8,11.9,3.8C435.7,148.3,441,150.5,441,150.7ZM331.4,143a1.644,1.644,0,0,1-1.2.8c-.4,0-.4-.4.1-1,1-1.3,1.8-1,1.1.2Zm75.6,9.5a84.978,84.978,0,0,1-3.4,9.4c-.4.5-10.2,3.6-26.1,8.4-5.2,1.6-6.4,1.8-4.2.5,1-.8,9.4-7.1,18.7-14.2,9.3-7,17.5-13.2,17.8-13.2C410,143.3,408.6,147.7,407,152.5Zm-133.8-1.4c14.8,3,15.1,3,12.3,3.8-1.1.3-8.2,2.3-15.7,4.4L256.1,163l.5-1.9c1.6-6.4,3.4-12.5,3.7-12.5s6.1,1.1,12.9,2.5Zm-21.5,3.2c-.1.5-.9,3.1-1.8,5.8l-1.4,5-5.5,1.5c-3,.8-7.6,2.1-10.3,2.8s-4.7,1.2-4.5,1c.6-.5,23.4-16.9,23.6-16.9C251.9,153.4,251.9,153.9,251.7,154.3Zm66.5,3.1a2.615,2.615,0,0,1,1.5-.1c0,1.1-13,17.3-14.3,17.8-.8.3-5,1.8-9.2,3.3l-7.7,2.7,5.9-5.4c3.2-2.9,9.4-8.5,13.6-12.5,5.1-4.7,7.9-6.9,8.2-6.3a1.78,1.78,0,0,0,2,.5Zm6.4,5.7-2.1,6.2-5.4,1.7a37.214,37.214,0,0,1-5.5,1.6c-.1-.1,2.5-3.7,5.7-8,4.7-6.2,6.3-7.8,7.6-7.8h1.8Zm15.8-2.1,2,1.2-6.1,2.1c-3.3,1.2-5.9,1.7-5.8,1.3s.8-2.4,1.5-4.4l1.2-3.7,2.6,1.1c1.4.7,3.5,1.7,4.6,2.4Zm9.3,42.1,1.8,3.7-1.8,5.7a140.544,140.544,0,0,0-4.7,22.6c-.7,5.5-1.3,7.1-3.7,11a57.772,57.772,0,0,0-3.5,6.5c-1.9,4.2-2.1,1.2-2.4-8.4a117.055,117.055,0,0,1,2.6-30.8c1.5-6.6,5-17.3,6.8-20.8l1.1-2.1.9,4.4a56.122,56.122,0,0,0,2.9,8.2Zm-92.1.1c.1,4,1.8,12,3.9,18.1,1.4,4.1,1.6,5.5,1.1,7.9a99.369,99.369,0,0,0-1.4,10.3,67.993,67.993,0,0,0,6.6,37.5,71.813,71.813,0,0,1,3.6,7.9l.5,1.7-2-1.5c-5.9-4.1-12-12.1-15.4-20.1-2.1-4.9-2.3-5.7-.8-5.7.9,0,1.1-1.5,1.1-8.7v-8.7h-2.1c-1.8,0-2.2-.3-3-3-.6-1.7-.9-6.6-.9-12.3,0-10.2,1-14.5,5.5-24.4,2.7-6.4,3.4-5.9,3.3,1Zm151,12.7c.9,6.4,3.7,20.1,5.2,25.9.9,3.5.9,4.2-.4,7.8a14.667,14.667,0,0,0-1.1,4.7c.2.5-1.2,2.5-3,4.5-3.3,3.6-3.4,3.7-4.2,2.1-3.4-6.3-4.7-22.3-2.5-33.2.9-4.8,4.5-17.5,4.9-17.5a48.384,48.384,0,0,1,1.1,5.7ZM208,228.7l1,4.2L203.1,254l-5.9,21-2.3-.2c-3-.3-24-9.8-24-10.9,0-2.6,20.1-28,31.4-39.7l4.2-4.4.2,2.3c.2,1.3.8,4.3,1.3,6.6Zm22.2-.7c0,.3-.9,3.5-2,7.1l-2,6.6-4.8.2c-2.7.1-5.1-.1-5.6-.5-1-1,.1-6,1.8-8.5,1.8-2.7,6.9-5.4,10.2-5.4,1.3,0,2.4.3,2.4.5Zm15.2,9.8a17.775,17.775,0,0,1,2.4,3.7c0,.3-2.9.6-6.4.6H235l.4-1.9c.3-1,1-3.5,1.6-5.5l1.1-3.6,2.5,1.9a27.154,27.154,0,0,1,4.8,4.8Zm-33,3.8c1.3,2.9,1.6,5,1.6,10.7v7.1h4.6l.1,6.1a61.294,61.294,0,0,0,1.6,11.5c1.4,5.9,1.1,8.7-1.1,8.7-.6,0-4.4-1.9-8.3-4.2a77.884,77.884,0,0,0-9.2-4.8l-2.1-.8,5.3-19c2.9-10.5,5.2-19.8,5.4-19.8a28.882,28.882,0,0,1,2.1,4.5Zm133.8,23.5a75.481,75.481,0,0,0,9.2,23.5c2.2,3.7,3.9,6.9,3.7,7.1-.7.6-7.9,1.7-8.5,1.4-1-.6-4.9-9-7.6-16.2-3-8.1-5.8-19.3-5.3-21.4a63.433,63.433,0,0,1,3.4-7.7l2.9-5.9.6,6.8a91,91,0,0,0,1.6,12.4Zm52.8-2.2c2.7,1.4,3.5,2.1,3.4,3.3s.2,1.5,2.1,1.7c3.7.3,3.1,2-2.7,7-3,2.6-5.8,4.6-6.2,4.6-1.6,0-8.5-8.2-10.8-12.8l-2.3-4.8,1.9-.5c4.1-1,11-.3,14.6,1.5Zm-9.5,14.3,4.1,4-1.8,1.2c-2.5,1.7-18.7,9.5-19,9.2-.1-.1,1.6-6.4,3.8-13.9l4.1-13.6,2.4,4.5a40.04,40.04,0,0,0,6.4,8.6Zm-23.9,4.5c-2,6.2-3.9,11.6-4.2,11.9-.9.9-1.6-4.1-1.1-7.8.8-5.6,2.5-9.6,5.5-13,1.6-1.7,3.7-4.1,3.9-3.9,0,.2-2.2,6.6-4.1,12.8Zm-77.7-10.4c-.2.5-1.7,4.9-3.4,9.9a86.3,86.3,0,0,1-3.5,9.6c-.3.3-1.8,0-3.3-.8-2.3-1.2-2.9-1.9-3.7-4.9-.8-3.4-.8-3.7.9-6.6a15.569,15.569,0,0,1,9.3-7.2c3.8-1,4-1,3.7,0Zm11.9,1c1.3.3,1.8,1.4,2.7,6.1a55.711,55.711,0,0,0,5,12.8l3.7,7.1-3.7-.4c-2-.2-6.9-1.1-10.8-1.9l-7.2-1.5,1.7-5.3c.9-2.9,2.5-8,3.6-11.4,1.9-5.9,2.2-6.3,5-5.5Zm15.6,5.8,7.3,3.5-3.2,3.6a25.873,25.873,0,0,0-4.4,6.8,18.064,18.064,0,0,1-1.6,3.7c-1.3,1.4-9.2-16.6-9.2-20.8-.1-1.6,2.5-.8,11.1,3.2Zm14.8,7.7c7.8,4.6,18.1,12.3,16.7,12.5-.4,0-4.4.3-8.8.6s-11.4.4-15.3.2l-7.2-.4.4-2.1c.6-3.3,2.8-7.2,6-10.5a29.432,29.432,0,0,1,3.1-3c.2-.2,2.4,1.1,5.1,2.7Z" fill="#ffcf00" stroke="#000" stroke-miterlimit="1.714" stroke-width="0.492"/><path d="M337.9,116.7a3.932,3.932,0,0,0-1.2,3.5l.3,1.9-3.6-.5a55.472,55.472,0,0,0-20.3,1.3c-6.9,1.8-12.1,1.9-18.3.1-2.6-.7-4.8-1.4-4.8-1,0,1.2,2,4.8,3.8,6.4a17.137,17.137,0,0,0,5.1,2.8l3.5,1.3-4.2,1.2c-2.3.6-5.2,1.3-6.5,1.5-4.2.1-3.6,1.1.6,2.6,5.1,1.6,8.6,1.4,19.8-1,7.6-1.7,11.1-2.1,15.4-1.9,3,.1,5.8.5,6.1.8s-1.3,2.2-3.7,4.3c-3.1,2.8-4.8,3.7-6.3,3.7a42.59,42.59,0,0,0-4.7.4l-2.4.7-.3,3.8v4l-16.1,14.8c-8.8,8.2-17.3,15.7-19,16.7-2.4,1.5-3,2.3-3,3.9a3.014,3.014,0,0,0,1.4,2.8c1.3.7,1.1,1-2.6,6.1-4.7,6.4-6.6,10.1-10.2,18.8l-2.6,6.6-1.5-4.8a65.266,65.266,0,0,1-2.9-19.7c0-5.7,0-5.8,3.1-10,9.4-12.9,22.9-24.1,31.6-27.8,3.7-1.2,5.5-2.8,5.5-4.8,0-1.9-2.2-3.3-4.5-2.6-1.3.3-34.1-5.5-34.8-6.2a51.846,51.846,0,0,1,1.6-6.7c1.1-4.2,2.5-7.1,3.5-8.3,2.1-2.2,2.2-4.8.1-6.7a4.762,4.762,0,0,0-8,4.4l.4,2.1-5.9.8a99.693,99.693,0,0,0-13.2,2.9c-9,2-16.9,3-21.4,1.1-3.5-1.5-3.2-1.5-3.2.8,0,2.6,2.4,5.5,5.9,7.1l2.1,1.2-1.2.5a42.3,42.3,0,0,1-7.5.1c-3-.2-5.6-.1-5.6.2,0,1.2,4.7,5.7,6.8,6.6,4.7,1.9,15.3.7,26.6-3.1,4.7-1.7,12-2,11.6-.6-.2.5-7.6,6.1-16.5,12.4-8.9,6.4-17,12.3-18,13.3-2.2,1.9-2.5,4.1-1,5.5a3.349,3.349,0,0,1-.4,2.8c-4.6,6.4-10.4,23.3-10.4,30.1,0,2.9-.4,3.5-6.2,9.8-11.8,12.7-25.9,30.1-30,37l-1.9,3.2-1.7-1.7a4.663,4.663,0,0,0-6.7-.3c-3.1,3-.7,7.6,3.9,7.6,1.6,0,5.6,1.5,11.7,4.5l9.2,4.6-2.1,2.4c-5.1,5.6-2.8,10.8,4.2,9.6,6.3-1,15.9,4.7,25.9,15.4,15.8,17,24.5,24.6,37.2,32.3,3.5,2.1,6.7,4.1,7.1,4.4,1.5,1.2,17.2,8.4,22.1,10.1a127.267,127.267,0,0,0,69.2,4.2,122.5,122.5,0,0,0,28.5-10c5.6-2.8,8.4-3.8,8.5-3.3.2.5.8,2.5,1.5,4.4,1.2,3.8,4.7,9.6,6.2,10.2.5.1,11.8-1.4,25.2-3.4s24.5-3.7,24.8-3.7c1.3-.1,3-7.6,3-13.5,0-6-.1-6.4-3.1-12-3.8-7.1-9.4-12.9-15-15.7-3.7-1.7-3.9-2-3.2-3.2.5-.7,3-4,5.4-7.3,5.4-7.3,13.5-20.6,16.3-26.8l2.1-4.6h3.9c3.7,0,3.9-.1,3.5-1.6-.5-2.3-1.8-9.6-1.8-10.3,0-.3,1.3-.6,3-.6h2.9l-.4-7.3.1-8,11.9-22.6c6.8-12.8,13.1-24,14-25.1,2.9-3,1.8-6.6-2.3-7.8-2.3-.7-5.6,1.8-5.6,4.4a11.444,11.444,0,0,1-1.1,4.6c-1.3,1.9-1.8,2.3-3.4,2-7.3-1.5-33.1-6-33.8-5.8-.5.5-15.2,26.3-15.3,27.6,0,.4,1.4.6,2.7.6,1.2,0,8.6.5,16.4,1,7.8.6,15.1,1.3,16.2,1.3,1.8,0,1.7-.2-4,9.4l-5.7,9.7H433.8c-16.4,0-16.4,0-17,1.3-.9,0-.5-.1-.7-.3-.6-.6-4.4-19-5.5-27l-.4-7.4,3.5-8.6c8.5-17.2,24.3-36.8,30.3-37.9,4.1-.7,7.1-2.8,7.1-5.1q0-3.6-3.3-3.6c-1.6,0-27.5-10-28.6-11-.7-.7,2.6-12,4.1-14.1a4.067,4.067,0,0,0-.6-5.9,4.566,4.566,0,0,0-6.7.1c-1.6,1.7-2.1,4.9-.8,5.7,1.6,1,.5,1.5-1.9,1-5-1.4-15.9-1-21.7.8-7.1,1.7-13.8,1.7-19.3.1-2.4-.7-4.3-1.2-4.3-1a13.951,13.951,0,0,0,1,2.6c1.4,3.3,4.5,5.7,8.5,6.9l3.4,1-5.1,1.5c-2.9.8-6.1,1.7-7.3,1.9l-2.1.6,2.5,1c4.7,2,11,1.9,21.7-.5,9.4-2,16.1-2,19.7-1.6,1.4.4-1.4,2.8-20.1,16.8-12,9-23.3,17.4-25.2,18.6-4.4,2.8-5.9,4.7-6,7-.5,2.1,1.7,4.2,3.5,4.1.6,0,.4.7-.6,1.9-1.8,2.6-8.1,14.2-8.1,15.2,0,.4-.3.8-.6.8-1.1,0-3.2-6.4-4.1-11.8l-.2-5.3,3-6c3.9-6.5,11.1-15.9,15.1-19.6,3.8-2.5,3.7-4.6.7-5.9-2.7-1.1-26.4-17.2-26.8-18.1-.4-1.2,3-11.1,4.7-13.2,1.8-2.4,1.9-4.7.1-6.5-2.5-2.2-6-2.4-7.8-.4Zm5.8,1.8a2.22,2.22,0,0,1-1.9,3.7c-2.4-.3-3.6-2.1-2.4-3.6a2.728,2.728,0,0,1,4.3-.1Zm77.5,2.1a2.819,2.819,0,0,1-1.1,4.1c-1.6.6-3.8-.8-3.8-2.2A2.763,2.763,0,0,1,421.2,120.6Zm-85.4,3.9a19.918,19.918,0,0,1,4.7,1.2,23.1,23.1,0,0,1-1.1,4.8c-1.2,3.5-1.7,4.2-2.7,3.8a37.906,37.906,0,0,0-5.4-1.4c-4.9-1.1-9.6-.6-21.9,2.1a77.761,77.761,0,0,1-10.6,1.7l-2.8-.1,2.1-.7c7-2.3,9.5-3.5,9.5-4.8,0-1.1-.6-1.3-3.3-1.3-3.7,0-8.4-1.8-10.1-3.8-1-1.2-.9-1.2.4-.8,3.1,1.2,12.6,1.3,17.3.1a51.853,51.853,0,0,1,23.9-.8ZM265,126.6a2.708,2.708,0,0,1-1.8,3.9c-1.1.2-3.4-1.6-3.4-2.6s2.3-2.8,3.4-2.6A3.094,3.094,0,0,1,265,126.6Zm148.2,1.3a21.2,21.2,0,0,1,4.7,1.3c.6.6-1.5,9-2.3,9-.2,0-2-.5-3.9-1-5.2-1.6-11.6-1.2-22.1,1-5.1,1.1-10.8,2.1-12.4,2h-3l4.2-1.6c6.6-2.5,6.8-2.6,6.6-3.8-.1-.8-1.3-1.2-4.1-1.5-3.9-.4-8-2-8.8-3.5-.4-.5.5-.6,2.9-.1a41.214,41.214,0,0,0,16.5-1.1,58.731,58.731,0,0,1,21.7-.7Zm-152,6.5c0,.2-.6,3-1.5,6.2l-1.5,5.7-6.1-.3c-5.4-.3-6.9-.1-12.8,1.8-12.8,4-20.9,4.6-25.2,1.8l-2-1.3,5.6-.4a45.763,45.763,0,0,0,9.4-1.6L231,145l-5.8-1.8c-5.1-1.7-8.7-3.7-7.8-4.4a39.048,39.048,0,0,1,5.2.4c5.4.8,7.2.5,21.2-3.3,5.9-1.6,17.4-2.5,17.4-1.5Zm75.9,3.4c-.2.6-.8,2.2-1.3,3.8s-1.3,2.8-1.8,2.8c-.9,0-.7-.8,1.5-6.8a1.206,1.206,0,0,1,1.1-.8c.5,0,.7.4.5,1Zm13.4,8.8c6.1,4.2,11.2,7.9,11.4,8.2.2.6-18.2,7.2-18.7,6.7a31.573,31.573,0,0,1,2.4-5.6l2.7-5.3-1.6-1.2a21.955,21.955,0,0,0-4.9-2.5,24.081,24.081,0,0,1-3.9-1.7c-.5-.4.8-6.2,1.3-6.2.1-.1,5.2,3.4,11.3,7.6Zm64.4-5.3a36.858,36.858,0,0,1-1.3,5.3c-.8,2.4-2,6.6-2.8,9.3-1.1,3.7-1.8,5.1-3,5.3-1,.3-1.3.1-1.1-.5.2-.5,1.7-5.1,3.3-10.2s3.1-9.5,3.3-9.8c.5-.8,1.6-.5,1.6.6Zm26.1,9.4c0,.4-28.3,9.1-28.6,8.7-.2-.2,3.9-14.8,4.9-17.6.3-.6,4.1.6,12,3.8C435.7,148.3,441,150.5,441,150.7Zm-109.7-7.4c-.5.4-1.2.5-1.1.7-.4-.2-.3-.8.2-1.4,1-1.2,1.5-.9.9.7Zm75.8,9.2c-1.6,4.9-3.2,9.3-3.7,9.7-.8.7-8.5,3.1-25,8-3.7,1-6.4,1.7-6.2,1.5.9-.9,37.4-28.4,37.6-28.3C409.9,143.4,408.6,147.5,407.1,152.5Zm-81-2.9c-.6,5.1-1.4,5.6-1.4.8,0-3-.2-3.9-1.1-3.9-.8,0-.7.8-.8,3.8l-.5,4.1-.8-2.3c-.2-1.9,0-4.9-.4-5.4-.6-.7-.1-.9,2.4-.9h3.1Zm3.7-3.3a19.639,19.639,0,0,1-.6,4.7l-.8,4.2-.3-4.7c-.2-3.3-.1-4.6.6-4.6A1.11,1.11,0,0,1,329.8,146.3Zm-10.1,4.4c0,2.3-.3,4.2-.7,4.2s-.7-1.9-.7-4.2.3-4.2.7-4.2S319.7,148.4,319.7,150.7Zm14.3-3a18.206,18.206,0,0,0-1.2,4.2c-.3,1.7-.8,3-1.2,3s-.6-.8-.3-2.1a29.836,29.836,0,0,0,.4-4.2c0-1.5.4-2,1.4-2C334.3,146.5,334.4,146.8,334,147.7Zm8.1,1.6c1.6.7,3,1.7,3,2.1a19.468,19.468,0,0,1-1.8,4.3c-1.2,2.4-2,3.3-2.5,2.8-.4-.4-.2-1.6.8-3.5a14.372,14.372,0,0,0,1.5-3.9c0-2.1-1.5-1-3,2.2-2,4.1-1.9,3.9-2.3,3.5-.2-.2.1-1.7.7-3.3,1.3-3.6,1.3-4.8.1-4.8-.5,0-1.6,1.8-2.3,3.9-1.5,4.4-2.3,3.6-1.1-1.2a8.737,8.737,0,0,0,.3-3.7c-.6-.9,2.8-.1,6.6,1.6Zm-85.1.5c0,2.3-3.5,13.5-4.4,14.1-1.4.9-1.5.3-.3-3.8.6-2.1,1.6-5.6,2.3-7.7,1-3.7,2.4-5.1,2.4-2.6Zm16.5,1.2c7,1.4,12.7,2.8,13.3,3.1.6.2-5.6,2.1-14.4,4.6-8.7,2.4-16,4.2-16.1,4.1a17.689,17.689,0,0,1,.8-4.2c.6-2.2,1.5-5.3,1.9-7,.4-1.6,1-2.9,1.3-2.9C260.6,148.6,266.5,149.7,273.5,151Zm175.2,2c0,1.5-1.6,2.5-6.1,3.8-2.3.7-13.6,4.6-25.2,8.7s-27.8,9.8-35.9,12.6c-11.1,3.9-15.4,5.1-17.6,5-2.1-.1-3-.6-3.1-1.5-.5-2.5,2.7-4.6,10.7-7.1,33.8-10.5,73.7-22.4,75.4-22.4,1.1,0,1.8.3,1.8.9Zm-198.2,5.8a44.442,44.442,0,0,1-1.9,5.9c-.4.5-6.6,2.3-18,5.3-1.6.4-2.5.4-2.1.1,1-.9,22.9-16.7,23.2-16.7.1,0-.5,2.5-1.2,5.4Zm47.4-3.3c0,1.1-2.3,1.9-23.7,8.2-45.5,13.4-53.2,15.4-54.2,15.1-.8-.3-.9-.8-.2-2.1.8-1.9,1.2-2.1,17.1-6.2,5.1-1.3,19.5-5.2,32.1-8.7,28.5-7.8,27.7-7.5,28.4-7.2A1.623,1.623,0,0,1,297.9,155.5Zm21,1.6c1.3-.3.1,1.5-5.1,8.6l-7.8,9.2-7.9,3c-4.9,1.7-9,3.1-9.2,3-.1-.1,5.9-5.7,13.3-12.5,9.6-8.7,13.7-12.1,14.2-11.6.1,1.2,1.6.6,2.5.3Zm5.7,6-2.1,6.2-5.3,1.9a41.821,41.821,0,0,1-5.5,1.7,76.837,76.837,0,0,1,5.5-8c4.8-6.5,6-7.8,7.6-7.8h1.9Zm6-5.4c-2.7,8.6-3.4,10.2-4.4,10.2a.724.724,0,0,1-.8-.9c.2-.4,1.1-2.9,1.9-5.5,1-2.8,2-4.6,2.6-4.6s.9.4.7.8Zm36-.2c-.4.3-9,3.8-19,7.7-10.1,3.9-27.7,10.7-39.1,15-11.4,4.4-21.9,8.3-23.3,8.6-2.9.7-4.9.2-4.9-1s2.7-2.3,24.7-10c9.9-3.5,27-9.6,38.1-13.5C361,157.7,368.6,155.7,366.6,157.5ZM340.4,161l2,1.2-5.9,2.1a20.626,20.626,0,0,1-5.8,1.5,9,9,0,0,1,.7-3.1c.6-1.9,1.2-3.8,1.4-4.3.3-.9,3.8.2,7.6,2.6Zm92.4,3.7c-21.4,22-36.5,59.6-33.5,83a55.561,55.561,0,0,0,2.2,10c.8,2.2,1.4,4.1,1.4,4.2a18.579,18.579,0,0,1-3.4-1.3l-3.4-1.5-3.2-10.5c-1.7-5.7-3.2-10.4-3.3-10.2-.2.2,3,16,3.8,19.2.3,1-.1,1.2-2.1,1.2-2.7,0-2.1,1.4-6.6-14.1-1.1-3.7-2-6.5-2.1-6.2a98.125,98.125,0,0,0,1.8,10.3c1.1,5.3,2,9.6,2,9.8a19.33,19.33,0,0,1-2,.6c-1.8.4-1.8.3-4.9-10-1.7-5.7-3.1-10.3-3.2-10.2-.2.2,2.6,15.7,3.6,19.7.3,1.1-.1,1.7-1.1,2.4-2,1-2.1.8-4.9-8.9-1.3-4.3-2.5-7.7-2.6-7.5-.2.1.5,4.3,1.5,9.2l1.9,8.9-1.6,1.2c-1.8,1.5-1.9,1.5-4.1-6.2a28.542,28.542,0,0,0-1.9-5.5,41.255,41.255,0,0,0,.8,6.4c1.4,7.8,1.4,8.4-.2,9.3-1.3.6-1.5.3-2.6-3.5-1.5-5.3-2-4.9-.9.7.6,3.4.6,4.6-.1,6-1.3,2.3-1.8,2.1-2.7-1-.7-2.4-.7-2.3-.4,1.2.4,4.2-.6,6.6-1.9,4.8-.6-.8-.6-.5-.4,1.4a23.248,23.248,0,0,1-.5,6.6l-.9,4.1-2.5-5.1c-5.9-11.8-7.8-20.8-7.9-36,0-8.9.4-13.2,1.6-19.5,4.2-22,14.7-43.5,21.2-43.5.6,0,.8.5.5,1.5-.4,1.3-.2,1.2,1-.5a7.7,7.7,0,0,1,2.9-2.6c1.4-.5,1.4-.5.3,1.6-.6,1.2-.9,2.3-.7,2.5.1.2.8-.6,1.4-1.7,2.6-4.9,5.2-5.7,3.2-1-1.6,3.8-1.3,3.6,1.8-.9a12.041,12.041,0,0,1,3.7-3.8c1.6-.6,1.5-.3-.8,4.2-1.3,2.7-2.4,4.8-2.2,4.8.1,0,1.9-2.5,3.9-5.5s4.3-5.6,5-5.8c1.1-.3.9.5-1.5,5.1a46.566,46.566,0,0,0-2.5,5.5,61.486,61.486,0,0,0,3.9-5.6c3.4-5.1,5.8-7.5,7.2-7.5.3,0-1.1,2.7-3,6-6.6,11.3-6.4,11.4,1.1.6,3-4.4,6-8,6.5-8,.8,0,.7.5-.4,2.2-4.5,7.5-8.5,14.4-8.2,14.4.1,0,3.2-4.2,6.7-9.3,3.9-5.6,7.1-9.4,8-9.7a4.105,4.105,0,0,1,1.7-.2c.1.1-2.5,4.2-5.6,9.2-9.4,14.5-9.1,14.4,1.6-.3,6.3-8.6,9.4-11.9,10.2-11.1a101.076,101.076,0,0,1-5.4,8.9c-6.6,10-7.3,11.4-6.5,10.9.3-.2,3.9-5.1,8-10.8,5.4-7.6,8-10.6,9.4-11.1,1.1-.3,2.2-.6,2.4-.4.1.2-3.7,6.1-8.6,13.2s-8.8,12.9-8.6,12.9c.1,0,5.1-6.3,10.9-14.1l10.6-14.1,4.4-1.5c2.5-.8,4.6-1.5,4.7-1.5a47.893,47.893,0,0,0-3.9,4Zm-74.8,2c-11.4,14.1-19.5,32-23.3,51.3-1.8,9.3-1.8,32.2.1,41.7a140.765,140.765,0,0,0,8.5,27.8c1.3,3.2,2.3,5.7,2.2,5.7-.6,0-7.1-5-7.5-5.8-.3-.4-3.1-9.7-6.3-20.6s-6-19.8-6.1-19.7,2,8.9,4.7,19.4,4.7,19.1,4.6,19.1a12.792,12.792,0,0,1-2.3-1.1c-1.7-1-2.5-2.9-7.1-18.4-2.9-9.4-5.3-17.1-5.4-17s1.6,7.3,3.7,15.9c2.1,8.7,3.9,15.9,3.9,16.1s-.9-.1-2-.7c-2.3-1.1-2.3-1-8.2-21.3-1.5-4.9-2.7-8.7-2.9-8.6-.1.1,1.1,6.1,2.9,13.3,1.7,7.2,3,13.2,3,13.3a9.748,9.748,0,0,1-2.6-.8c-2.4-1-2.5-1.1-5.9-13.2-1.9-6.7-3.6-12-3.7-11.9a112.558,112.558,0,0,0,2.2,11.4c2.5,11.6,2.4,12-.8,10.2-1.3-.7-2.3-2.8-4.4-8.8-3-8.9-3.5-8.8-1.4.3.8,3.4,1.3,6.3,1.1,6.4a7.745,7.745,0,0,1-2.6-.3c-2.2-.6-2.6-1.1-4.4-5.8-1.1-2.9-1.8-4.1-1.6-2.7.3,1.3.6,3.5.8,4.6.4,2.1.2,2.3-1.3,2.3-2.4,0-3-.6-4.8-4.2-1.4-3-1.5-2.8-.5,1.5.4,1.8.3,1.9-2,1.9-1.7,0-2.5-.3-2.7-1.2-.3-.9-.4-.9-.4.3-.1,1.7-3.6,2.8-4.4,1.5-.4-.6-.6-.5-.6.2,0,.6-1.1,1.7-2.3,2.6a15.5,15.5,0,0,0-4,4.4c-1,1.5-2,2.8-2.3,2.8-.8,0-4.6-8.7-6.2-14.5-2.1-7.6-2.6-22-1-31.2,2.3-13.4,8.1-27,15.7-36.6,3.7-4.6,4.6-5.3,9-7.1a20.865,20.865,0,0,1,5.8-1.7c.5.2.9.1.9-.3,0-.6,2.9-2.1,3.4-1.7a4.551,4.551,0,0,1-.6,2.1l-.7,2,1.3-1.7c3.5-4.8,5.1-5.7,3.7-1.8-1.2,3-.3,2.8,1.3-.3a9.758,9.758,0,0,1,2.9-3.5c1.3-.7,1.3-.7-.1,2.5-2,4.6-1.2,4.5,1.4,0,1.2-2.1,2.8-4.2,3.6-4.6,1.8-1,1.8-.8-.7,4.9a34.376,34.376,0,0,0-1.8,4.8c.1,0,1.8-2.6,3.8-5.8s4.1-6,4.7-6.2c1.4-.5,1.4-.6-1.7,6.2A50.228,50.228,0,0,0,314,190c.1,0,1.9-2.7,4-6a61.948,61.948,0,0,1,5-7.3c3-2.9,2.5-.8-1.1,6a75.52,75.52,0,0,0-3.7,7.3c.1,0,2.7-3.7,5.7-8.3,4.7-7.2,6.7-9.5,6.7-7.9a86.2,86.2,0,0,1-4.3,8.3c-2.3,4.4-4.1,7.9-3.9,7.9a90.107,90.107,0,0,0,6.1-9.1c4.9-7.7,7.9-10.9,9-10,.2.2-6.2,11.3-11,19-2.8,4.5,1.1-.7,7.5-10.2,6.2-9,8.7-12,9.7-11.1a84.6,84.6,0,0,1-4.8,8.5c-8.1,13.7-8.4,14.2-8,14.2.1,0,3.9-5.5,8.4-12.3,6.6-10,8.6-12.5,10.4-13.1a7.621,7.621,0,0,1,2.5-.7c.1.1-2.5,4.2-5.6,9.1-10.2,15.9-11.7,18.4-11.4,18.4.1,0,4.9-6.5,10.4-14.5,8.2-11.8,10.5-14.7,12.5-15.5,4.1-1.6,4.1-1.1-.1,4Zm-76.7-1.3A111.366,111.366,0,0,0,253,200.2c-4.9,9.9-6.8,17.7-6.8,27.6,0,6.2-.1,7.3-.9,6.6-.6-.4-1-2.2-1.1-4a50.576,50.576,0,0,0-.6-6.6c-.5-3.3-.5-3.3-.6,1.9,0,3-.2,5.4-.4,5.4-2.2,0-2.5-1-2.6-7.5-.1-5.6-.2-6.2-.7-3.5a42.044,42.044,0,0,0-.6,6c-.1,2.2-.3,2.8-1.1,2.6-.6-.3-1.1-2.5-1.6-7.4l-.6-7.1-.2,6.4c-.1,3.5-.3,6.4-.5,6.4-1.9,0-2.5-1.2-2.5-5.1-.1-6-1.2-9-1.3-3.5-.1,5.2-.6,7.3-1.9,7.3-.7,0-1-.9-1.1-3a35.512,35.512,0,0,0-.6-5.7c-.6-2.4-.6-1.9-.7,2.9-.1,4.4-.3,5.7-1.1,5.7-1.2,0-1.8-2.1-1.9-6.9-.1-3.7-.1-3.7-.7,1.4-.7,5.9-1,6.9-2,6.9-.4,0-.7-1.6-.7-3.7,0-2.6-.2-3.3-.7-2.6a11.49,11.49,0,0,0-.7,4.6c0,1.9-.3,3.8-.7,4-.4.3-.7-.5-.7-1.9,0-1.7-.2-2-.7-1.2a6.2,6.2,0,0,0-.7,2.9c0,2.8-.8,4.4-1.5,3.2-.4-.6-.6.1-.6,2,0,1.7-.3,3-.6,3-1.6,0-3.8-10.2-4.2-18.4-.3-7.3-.1-9.1,1.5-15.1,1.8-7.1,6.9-18.3,9.7-21.4a8.63,8.63,0,0,1,3.3-2.3c1.5-.4,1.6-.3,1.2.8-.4,1,0,.8,1.5-.6,2.4-2.1,4.5-2.7,3-.7-.6.8-.2.6.8-.3,2-1.7,5.6-3.3,5.6-2.3a1.353,1.353,0,0,1-.7,1,5.215,5.215,0,0,0-1.5,1.9c-.5.9.7.1,2.7-1.8,5.3-4.8,6.3-4.5,2.3.9-1.3,1.9-.8,1.6,2.5-1.5,3.7-3.5,6.6-5.4,6.6-4.4a18.917,18.917,0,0,1-2.7,3.7c-4.9,5.9-4.6,6,1.1.2,3.2-3.1,6.1-5.7,6.5-5.7,1,0,.6.6-4.1,6.6l-3.7,4.8,6.2-6.4c5.3-5.4,9.4-8.4,9.4-6.8a84.647,84.647,0,0,1-5.6,6.9c-3.1,3.6-5.6,6.6-5.6,6.9a78.838,78.838,0,0,0,5.8-5.6c8.9-9.3,9.2-9.7,11.1-10.2,1.3-.4.8.6-2.9,4.9-8.5,10.2-10.2,12.6-4.7,6.9,10.3-10.9,13-13.4,15.1-13.9,2-.5,2-.5,1.1.9-.6.8-4.5,5.5-8.7,10.4-13.2,15.2-12.8,15,2.3-1.2,9.8-10.5,12.8-12.9,15.9-13.1.4.1-.8,1.4-2.8,3ZM485,187.5c1,2.9-3.2,4.6-4.3,1.7a2.113,2.113,0,0,1,2.1-3.1A1.816,1.816,0,0,1,485,187.5ZM349.7,202.8l2,3.9-1.9,6.1a114.882,114.882,0,0,0-4.7,22.6c-.6,5-1.2,7-2.8,9.5-1.1,1.7-2.7,4.6-3.6,6.4-.9,1.9-1.8,3.3-2.1,3.3-.8,0-1.6-13.2-1.1-21.8a110.475,110.475,0,0,1,8.4-37.7l2.3-5.3.8,4.5A31.232,31.232,0,0,0,349.7,202.8Zm110.2-8.1c10.2,1.7,18.7,3.2,18.9,3.3.3.3-9.3,18.4-10.2,19.3-.4.3-33.4-1.5-39.5-2.3-1.3-.2-1-1.1,4.6-10.9,6.2-10.8,7.2-12.5,7.4-12.5C441.3,191.5,449.7,192.9,459.9,194.7Zm21.5-2.1c.7.7-.8,3-2,3-1.3,0-1.3-.3-.4-2.1q1.2-1.95,2.4-.9Zm-223.7,8.9c0,5,1.8,14,3.9,19.9,1.8,4.7,1.8,4.8.6,10.4-1.6,7.1-1.8,21.7-.1,28.5,1.3,6.8,2.7,10.7,6.6,18.4,1.8,3.5,3,6.8,2.9,7.2-.4,1-5.7-3.4-9.2-7.5a62.1,62.1,0,0,1-8.9-15.2c-1.3-3.5-.9-3.4-.1-3.6,1.3-.3,1.4-.5,1.4-8.7v-8.7h-2.1c-1.8,0-2.2-.3-2.9-2.6a59.45,59.45,0,0,1-1.1-10.5c.3-6.1,0-9,1.1-14,1.5-6.2,6.1-17.2,7.2-17.2C257.4,197.8,257.7,199.4,257.7,201.5Zm151.8,19.8c1,5.9,2.6,13.9,3.6,17.8l1.4,7-1,4.1c-.8,2.1-1.2,4.2-1,4.5s-1.2,2.3-3.2,4.3l-3.4,3.2-1.5-2.8c-3.8-9.8-4-27.4,1.3-44.6a18.759,18.759,0,0,1,1.7-4.4c.2,0,1.1,5,2.1,10.9ZM208,228.2l1,5.2-5.9,20.8L197.2,275l-2.4-.2c-2.9-.2-23.9-9.8-23.9-10.9,0-2.7,17.3-24.9,31.4-40,4-4.4,4.2-4.5,4.4-2.8.1,1.1.7,4.3,1.3,7.1Zm259.1-7.7c0,.1-2.1,4.4-4.7,9.2-4.7,8.7-4.9,8.9-7.1,8.9-1.3,0-2.3-.2-2.3-.4,0-.3,2.4-4.6,5.4-9.6,4.9-8.2,5.6-9.1,7.1-8.9.8.2,1.6.6,1.6.8Zm-237.3,9.1c-.2,1.1-1.1,4.3-2,7.1l-1.6,5.1-5.4.2c-5.2.2-5.3,0-5.3-1.5a13.074,13.074,0,0,1,12.1-12.9c2.6-.1,2.6,0,2.2,2Zm5.5,2c-2.4,9.6-2.6,10.1-4.7,10.3-1.7.2-2,0-1.7-1,3.8-13.5,3.5-12.6,5.2-11.8,1.4.6,1.6,1.1,1.2,2.5Zm10.4,6.5a12.282,12.282,0,0,1,2,3.4c0,.3-2.8.6-6.3.6s-6.3-.2-6.3-.4c0-.5,2-8.5,2.5-9.8s5.5,2.6,8.1,6.2Zm-33.5,2.7c1.5,3.2,1.8,4.7,1.8,11.1v7.5h4.7v5.3a77.073,77.073,0,0,0,1.6,11.8c1.6,6.8,1.3,9.2-1.3,9.2-.7,0-4.3-1.7-8-3.9-3.6-2.1-7.8-4.4-9.2-5.1l-2.5-1.1,5.4-19.2c3-10.6,5.4-19.3,5.6-19.3.1.1,1,1.8,1.9,3.7Zm245,2.1c0,1.2.2,3.9.4,5.9l.5,3.7H415l1.8-5.1c.9-2.7,1.8-5.4,2-5.9.2-.6,4.8-.8,19.4-.8h19Zm-204.5,7.5v6.2H216V244.1h36.7Zm92.5,7.5c1.3,11.2,4.9,22.1,10.4,30.7,4.4,7.1,4.4,7.2.1,8.1a28.472,28.472,0,0,1-4.6.5c-2,0-10.8-22.1-13-32.5-.9-4.6-.5-6.5,3.5-14l2.5-4.8.1,2.8C344.3,250.2,344.7,254.3,345.2,257.9Zm107.7,1.6a41.316,41.316,0,0,1,.6,5.2c-.1.2-10.6.2-23.3.1l-23.1-.2,4.4-5,4.4-5h18l18-.1Zm-206.2,5.6c6.1,18.3,21.7,31.5,43.8,37.3,14,3.6,29.1,4.7,46.5,3.5,35.7-2.4,52.1-9.1,72.8-29.6l9.3-9.2h13.4c8.7,0,13.5.3,13.5.7,0,2-9.2,17.9-15.9,27.4-5.1,7.3-6.5,8.2-18.7,13-15,5.9-36.7,10.5-59.2,12.6-14.6,1.4-48.9,1-61-.7-15.8-2.3-27.8-5-39.9-9.1-9.9-3.4-14.1-5.3-25.7-11.8-12.5-7.1-19.7-10.6-26.4-13-6.4-2.3-12.3-2.6-15-.8-2.1,1.4-2.4.7-.8-2.3a11.305,11.305,0,0,1,9.9-5.5c4.8,0,8,1.2,16.6,6.2,8.1,4.7,10.4,5.1,12.5,2.4,1.8-2.3,1.8-2.9.1-10.1a55.28,55.28,0,0,1-1.4-11.1v-5.3h23.8Zm4.9-1c4.2,10.6,12.3,20.6,21,25.6,11.9,6.9,28.3,10.7,50.8,11.6,33.6,1.5,65.7-9.7,84.7-29.4,2.8-2.9,5.3-4.9,6.1-4.9s1.4.3,1.4.7c0,1.2-14.5,15-20.1,19.1-17.3,12.5-38.4,17.8-71.6,17.8-13.5,0-20.7-.8-31.4-3.4-23.8-5.8-39.1-18.8-45.1-38.2l-1.1-3.6H248c1.6,0,2.1.8,3.6,4.7Zm148.3-1c2.7,1.6,1.8,2.5,2.7,3.1-.6.8,0,1.4,1.5,1.6,1.1.1,2.1.1,2.5.7.8,1.4-1.1,3.7-7.1,8.2-4.3,3.3-4.8,3.2-9.7-2.3-2.6-3-7.4-11-7.4-12.5,0-.8,3.2-1,8.5-.9,4.1.2,6.2.7,9,2.1Zm-234.7-.8c1.3,1.3,1,3.2-.6,3.7s-3.5-.6-3.5-2a3.084,3.084,0,0,1,2.5-2.5,2.683,2.683,0,0,1,1.6.8Zm208.7,16.4-4.4,14.5-2.7.7c-1.6.3-2.7.5-2.7.2,0-.2,2-6.6,4.4-14.1,4.3-13.4,4.4-13.8,6.9-15,1.3-.7,2.5-1.2,2.7-1,.1,0-1.8,6.6-4.2,14.7Zm8.9-10.6a46.263,46.263,0,0,0,6.4,8.6l4.5,4.7-5.1,2.9c-6.8,3.2-15.7,7.8-15.9,7-.1-.3,1.6-6.3,3.7-13.4s3.9-13.1,3.9-13.3c0-1,.7.1,2.5,3.5Zm-193.9,6.4c1.2.3,1.2.4-.4,1.2-1.5.8-2.6.4-11.4-3.9-7-3.5-9.6-5.1-9.3-5.7.3-.8,2.5,0,10,3.5,5.3,2.5,10.3,4.7,11.1,4.9Zm176.7,7.1c-2.1,6.9-4.2,12.3-4.4,12.3-.8,0-1.5-4.6-1-8,.8-5.7,2.5-9.7,5.9-13.3a38.547,38.547,0,0,1,3.4-3.5S367.8,274.7,365.6,281.6Zm-77.8-10.3c-.2.5-1.7,4.9-3.4,9.9a86.3,86.3,0,0,1-3.5,9.6c-.3.3-1.8-.1-3.4-.8-2.4-1.2-2.9-1.9-3.7-4.8-.7-3-.6-3.7.6-6a15.144,15.144,0,0,1,8.7-7.5c4-1.4,5.1-1.4,4.7-.4Zm6.4.2a102.714,102.714,0,0,1-3.4,11.3l-3.5,11.1-2.1-.7c-1.1-.4-1.9-1.1-1.8-1.5.1-.5,1.6-4.9,3.2-9.8,3.7-11.3,3.8-11.6,5.8-11C293.3,271.1,294,271.5,294.2,271.5Zm7.1,2.2a4.5,4.5,0,0,1,.8,2.4c0,2.8,3.9,12.8,6.6,17.4,1.4,2.4,2.4,4.4,2.2,4.6-.4.5-10-.9-16.5-2.4-3.5-.7-5-1.4-4.8-1.9s1.9-5.6,3.7-11.4l3.5-9.9,2-.3a3.976,3.976,0,0,1,2.5,1.5Zm12,3.4c11.7,5.8,10,3.9,6.6,7.6a40.465,40.465,0,0,0-5.9,9.9c-.7,1.6-1.3,1.1-3.8-3.2-2.6-4.5-5.9-13.6-5.9-16,0-.8.4-1.5.8-1.5a86.46,86.46,0,0,1,8.2,3.2Zm17.6,9.1c3,1.8,7.8,5.1,10.9,7.4l5.2,4.3-1.6.5c-2.4.8-28.8,1-29.5.3-.3-.2,0-2.1.6-4.3a18.579,18.579,0,0,1,4.7-7.6,36.414,36.414,0,0,1,4-3.9,61,61,0,0,1,5.7,3.3Zm-132.3,2c6.5,2.3,13.8,5.9,26.2,12.9,14.9,8.4,25,12.5,41.2,16.5,19,4.6,35.9,6.4,59.6,6.4,36.9,0,66.9-5.5,94.8-17.3.6-.3-.1.9-1.5,2.6a21.8,21.8,0,0,1-6.3,4.9c-5.6,2.8-18,6.6-28.8,8.9-8.4,1.8-9,2-4.6,1.7,9.2-.7,20.3-3.4,31.7-7.5.8-.3.3.6-1.7,2.6-2.7,2.7-4.1,3.5-9.9,5.3a176.611,176.611,0,0,1-20.9,4.4c-7.8,1.3-13.4,2.4-12.6,2.4,3.4.1,23.1-2.8,29.5-4.4a47.423,47.423,0,0,1,7.2-1.5c.2.1-1.5,1.7-3.6,3.4-4.1,3.3-7.6,4.4-19.2,6.4-3.4.6-4.6.9-3.1,1a81.851,81.851,0,0,0,8.8-1.2,51.854,51.854,0,0,1,6.6-1.1c.4.3-9,5.9-16.1,9.3a142.985,142.985,0,0,1-31,10.5c-10.9,2.3-35.7,2.3-46.5,0-22-4.7-49-17.8-63.8-31l-3.5-3.1,4.6,2.1a97.142,97.142,0,0,0,19.7,5.8c2,.3.5-.3-3.9-1.7-10.6-3.2-23.3-9.6-28.5-14.3a28.125,28.125,0,0,1-4.3-4.4c0-.3,3.6,1.2,8,3.5a140.1,140.1,0,0,0,31.2,11.5c11.5,2.8,15.4,3,5.6.3-23.5-6.7-44.7-16.8-55.6-26.2-7.2-6.2-13.5-9.3-18.9-9.4-2.2,0-3.8-.2-3.6-.6.8-1.2,8.2-.4,13.2,1.3Zm223.6,21.9c-.4.5-1.9,2.4-3.4,4.4l-2.7,3.5,4.4-4.1c4.9-4.6,6.4-4.8,2.9-.3l-2.3,3,3.2-2.8c3.5-3.3,5.6-3.5,3.7-.4-1.2,1.9-1.2,1.9.2.6a6.707,6.707,0,0,1,2-1.2,25.409,25.409,0,0,1,4.4,3.5c4.5,4.3,8.5,11.4,9.4,17.1.6,4,.6,5.5-.7,11.3l-.7,3.1-23.3,3.6c-17.1,2.6-23.7,3.4-24.6,2.9-1.8-1-4.6-5.7-5.9-10.2l-1.1-3.5,6.4-4.6c3.8-2.7,11.1-9.2,17.4-15.6,10-10.3,12.3-12.5,10.7-10.3Z"/><path d="M421.1,247.3v3.1h6.3v-6.2h-6.3Zm12.7,0v3.1h6.3v-6.2h-6.3Zm12.7,0v3.1h6.3v-6.2h-6.3ZM419,260.4v3.1h6.3v-6.2H419Zm20.4,0v3.1h6.3v-6.2h-6.3Zm-23.2,15.3c0,2.4,0,2.4,3.2,2.4s3.2,0,3.2-2.4,0-2.4-3.2-2.4S416.2,273.3,416.2,275.7Zm14.8,0c0,2.4,0,2.4,3.2,2.4s3.2,0,3.2-2.4,0-2.4-3.2-2.4S431,273.3,431,275.7ZM268.1,305.5V310h6.3v-9h-6.3Zm107.2,2.7v4.5h6.3v-9h-6.3Zm-52.9,6.3V319h6.3v-9h-6.3ZM220.2,250.7v3.1h6.3v-6.2h-6.3Zm12.7,0v3.1h6.3v-6.2h-6.3Zm12.7,0v3.1h6.3v-6.2h-6.3Zm134.6,88.2a3.4,3.4,0,0,0,2,0c.5-.2.1-.4-1-.4s-1.5.1-1,.4Z"/><path d="M512,339.3v75.3a8.963,8.963,0,0,1-9,9H139.4V334.1c.4,1.4,6.1,3.2,10.1,4.6,7.3,2.5,7.9,2.5,15.1-2.1,9.7-6.3,15.8-6.1,26.8.7,16.5,10.2,20.9,10.4,25.9,1.4,3.7-7,11.9-7,26.1.2,6.1,3,12.3,5.4,14.1,5.4,1.7,0,5.7-2.9,8.8-6.3,7-7.9,11-7.3,29,2.9,14.5,8.4,19.5,8.9,20.9,2,2-8.8,3.7-10.2,12.1-10.2,5.1.2,12.8,2.3,20.7,5.9,6.8,3.2,13.8,5.7,15.1,5.7,1.5,0,3.1-2.5,3.9-5.5a14.365,14.365,0,0,1,5-8c5-3,10.1-1.8,26.2,6.3,16.2,7.9,20.7,7.1,20.7-3.4,0-3.2,3.5-5.4,8.8-5.4,1.7,0,8.4,3.2,15.2,7.3,14.7,8.6,18.7,8.6,20-.2,1.3-8.9,7.3-9.1,23.1-1.1,11.8,6.2,25,8.7,25,5Z" fill="#0091c8"/><path d="M142.5,334.3c.4,1.4,3.4,3.6,7.5,5,7.3,2.5,7.9,2.5,15-2.1,9.7-6.3,15.7-6.1,26.7.7,16.4,10.2,20.8,10.4,25.8,1.4,3.7-7,11.9-7,25.9.2,6,3,12.2,5.4,14.1,5.4,1.6,0,5.7-2.9,8.8-6.3,6.9-7.9,11-7.3,28.9,2.9,14.4,8.4,19.4,8.9,20.8,2,2-8.8,3.7-10.2,12.1-10.2,5.1.2,12.8,2.3,20.6,5.9,6.8,3.2,13.7,5.7,15,5.7,1.5,0,3.1-2.5,3.8-5.5a14.24,14.24,0,0,1,4.9-8c4.9-3,10-1.8,26.1,6.3,16.1,7.9,20.6,7.1,20.6-3.4,0-3.2,3.5-5.4,8.8-5.4,1.6,0,8.4,3.2,15.2,7.3,14.6,8.6,18.6,8.6,19.9-.2,1.3-8.9,7.3-9.1,23-1.1,11.7,6.3,23.9,8.4,23.9,4.6" fill="none" stroke="#000" stroke-linecap="round" stroke-linejoin="round" stroke-miterlimit="1.714" stroke-width="3.745"/><path d="M143.3,338.7c.4,1.4,4.2,3.6,8.2,5,7.3,2.5,7.9,2.5,15-2.1,9.7-6.3,15.7-6.1,26.7.7,16.4,10.2,20.8,10.4,25.8,1.4,3.7-7,11.9-7,25.9.2,6,3,12.2,5.4,14.1,5.4,1.6,0,5.7-2.9,8.8-6.3,6.9-7.9,11-7.3,28.9,2.9,14.4,8.4,19.4,8.9,20.8,2,2-8.8,3.7-10.2,12.1-10.2,5.1.2,12.8,2.3,20.6,5.9,6.8,3.2,13.7,5.7,15,5.7,1.5,0,3.1-2.5,3.8-5.5a14.24,14.24,0,0,1,4.9-8c4.9-3,10-1.8,26.1,6.3,16.1,7.9,20.6,7.1,20.6-3.4,0-3.2,3.5-5.4,8.8-5.4,1.6,0,8.4,3.2,15.2,7.3,14.6,8.6,18.6,8.6,19.9-.2,1.3-8.9,7.3-9.1,23-1.1,11.7,6.3,22.6,8.4,22.6,4.6" fill="none" stroke="#fff" stroke-linecap="round" stroke-linejoin="round" stroke-miterlimit="1.714" stroke-width="3.745"/><path d="M175.3,363.4c-3.1,2-2.8,2.1,2.8,1.4,4.7-.6,7.8.2,14.1,3.6,12,6.8,17,7.3,25,2.4,9.6-5.6,13.4-6.7,20.9-5.1,5.7,1.1,6.3,1.1,4-.9-4.9-4.4-14.4-4.4-22.9,0-9.7,4.8-14.4,5-25.4.2-10-4.5-13.6-4.8-18.5-1.6ZM354.7,368c-6.6,3.8-13.9,6.8-16.3,6.8s-9.9-2.9-16.5-6.4c-11.3-5.9-12.3-6.2-17.6-4.4-14.4,5.1-23.8,6.8-30.8,5.1-8-1.8-8.7-.6-1.7,3,6.8,3.5,12.7,3.3,25.9-.8,11-3.3,11.1-3.3,16.5-.5,21.7,11.4,28,12,39.3,4.1,13-9.1,18.4-9.8,37-4.5,11.1,3.2,12,3.2,17.4.9l5.7-2.6h-7.1a87.532,87.532,0,0,1-18.8-3.9c-6.4-2.1-13.7-3.8-16.3-3.8-2.8.2-9.9,3-16.7,7Zm102.2-.8c-2.1.8-4.3,2-5,2.9-1.4,2.1-10.4,2.1-15.3,0-3-1.2-2.8-.8,1,2.3,5.9,4.7,10.3,5,17.9.9,5.4-3,6.1-3,12.2-.8,10.3,3.6,12.2,2.6,4-2.3-8.1-4.8-9.2-5-14.8-3Zm-54.5,19.7c-5,3.3-11.1,6.1-13.4,6.1-2.1,0-8.7-2.1-14.3-4.7l-10.4-4.8-6.6,3.3c-3.7,1.8-8.7,4.1-11.3,5-2.8,1.1-4.9,2.4-4.9,3,0,2.3,5.6,1.2,13.2-2.7,8.5-4.4,13.4-4.1,21.7.9,11.5,7.3,15.1,7,27.8-1.8,8-5.6,13.6-5.8,27.1-.6,10.1,3.6,11.3,3.8,16.5,1.8l5.7-2.1-6.1-.2c-3.3-.2-11.1-2.3-17-4.7-6.1-2.6-12.9-4.5-14.9-4.5-2-.1-8.1,2.7-13.1,6Zm-142.4.7c-8.2,6.5-13.4,6.7-21.9.8-7.8-5.4-13-5.6-23.5-.8-5.9,2.7-7.1,3.8-4.9,4.5,1.6.6,5.2-.2,8.2-1.4,7.6-3.5,11.5-3,21.2,2.9,4.9,2.9,9.6,5.3,10.3,5.3s4.5-2.1,8.5-4.5c12.2-7.7,14.6-8,26.4-3.8,10.8,4.1,13.9,3.8,19.1-1.7,2.3-2.4,2.1-2.4-1.4-.9-5.6,2.6-9.6,2.3-20-2C270.1,381.3,268,381.3,260,387.6Zm-94.9,10a14.484,14.484,0,0,0-5.7,4.5c-2.1,2.7-1.9,2.9,1.2,1.5,4.3-2.1,11.8-2.1,13.2,0,.7.9,4.3,3.6,8.2,6.1,9,5.6,16.5,5.8,25.7.5,7-3.9,11.6-4.2,21.7-1.4,2.4.8,2.1-.2-1.7-2.9-6.6-5-13.4-5-23.5,0-9.2,4.5-12.3,4.1-23.8-3.9-9.6-6.5-9.9-6.6-15.3-4.4Zm124.3,6.8c-3.3,2.1-7.3,4.4-8.7,5.1-1.4.8-2.1,1.7-1.6,2.1.5.6,4.7-.8,9.2-2.9s9.6-3.8,11.1-3.8c1.7,0,6.8,2.7,11.6,6.2,9.6,6.8,12.5,7,23.3.5,8-4.7,9.7-4.5,19.3.9,9.9,5.8,13.9,5.8,25.7-.2,10.6-5.1,14.4-5,25,1.1,3.7,2,7.8,3.6,9.2,3.6,4,0,11.6-3.8,15.6-7.6l3.5-3.3-6.1,3.2c-8.2,4.2-13.2,3.9-23.5-1.4-11-5.6-14.1-5.6-23.6,0-9.7,5.6-14.8,5.8-24.3,0-9.7-5.6-14.8-5.8-23.5,0-8.5,5.6-10.6,5.6-18.1.3-7.1-5.1-12.9-7.9-16-7.9a54.445,54.445,0,0,0-8.1,4.1Z" fill="#fff"/></g></svg>