<svg xmlns="http://www.w3.org/2000/svg" width="511.898" height="335.4" viewBox="0 0 511.898 335.4"><g transform="translate(0 -88.3)"><path d="M503.2,423.7H8.8A8.813,8.813,0,0,1,0,414.9V97.1a8.813,8.813,0,0,1,8.8-8.8H503.1a8.813,8.813,0,0,1,8.8,8.8V414.9A8.665,8.665,0,0,1,503.2,423.7Z" fill="#41479b"/><path d="M247.2,88.3H231.9l-81.8,53.6V88.3H106v53.6L24.2,88.3H8.8A8.813,8.813,0,0,0,0,97.1v7l70.2,46H0v44.1H70.2L0,240.2v7A8.813,8.813,0,0,0,8.8,256H24.1l81.8-53.6V256H150V202.4L231.8,256h15.3a8.813,8.813,0,0,0,8.8-8.8v-7l-70.2-46H256V150.1H185.8l70.2-46v-7A8.813,8.813,0,0,0,247.2,88.3Z" fill="#f5f5f5"/><path d="M256,158.9H141.2V88.3H114.8v70.6H0v26.5H114.8V256h26.4V185.4H256Z" fill="#ff4b55"/><path d="M97.1,150.1,4.2,89.8A8.529,8.529,0,0,0,0,97.1v.5l80.9,52.5Z" fill="#ff4b55"/><path d="M166.3,150.1l88.4-57.4a8.581,8.581,0,0,0-7.5-4.4h-1.9l-95.2,61.8Z" fill="#ff4b55"/><path d="M89.5,194.2,1.3,251.5A8.631,8.631,0,0,0,8.9,256h1.7l95.2-61.8Z" fill="#ff4b55"/><path d="M255.9,247.9l-82.7-53.7H157l93.9,60.9A8.752,8.752,0,0,0,255.9,247.9Z" fill="#ff4b55"/><path d="M460,249.2c-.1,49.5-8,102.7-72.5,128.1C323,351.9,315.1,298.6,315,249.2H460Z" fill="#128bbf"/><path d="M387.5,377.3c29.2-11.5,47.3-30.3,57.9-50.3a12.278,12.278,0,0,0-6.3-.1c-1.6-.1-62.4-4.6-69.5-7.2-6.2-2.3-29.9,1.9-41,5.8C339,346.9,356.8,365.2,387.5,377.3Z" fill="#e8ece9"/><path d="M342.5,346.7a11.07,11.07,0,0,1,3.6-.1c.9.2,1,.2,1.3-.7s1-.7,1.6-.2a1.948,1.948,0,0,0,2.5-.6c.6-.8.7-.7,1.3-.2.6.6.8.4,1.3.2a3.91,3.91,0,0,0,2-1.7c.5-.9,1.2-1.2,1.6-.7a1.268,1.268,0,0,0,1.3.6c.6-.1.7.5.6,1.2s.2.9,1.6-.2c1.2,1.2,1.6.7,1.6-.6s-.3-5.9-.8-6.5a7.623,7.623,0,0,1-1-3.9c-.1-2.7-.2-2.8-3.4-4.5,0-.9-.2-1.3-2.5-1.2a2.4,2.4,0,0,0-.8-1.7c-.5-.4-.6-.6-.3-1.7a2.5,2.5,0,0,0,2.5-.9c.6-.8,2.4-.6,3.5-.2a7.763,7.763,0,0,0,4.7.2,31.692,31.692,0,0,1,3.6-2.1c1.4-.8,1.8-1.1,1.9-2.2a16.2,16.2,0,0,0-1.6-7.6c-.8-1.5-1-3.4-2.1-5.7-1.2-2.6-1.2-3.2-2.5-4.8a2.533,2.533,0,0,1-.9-1.7,4.723,4.723,0,0,0-1.3-2.9c-2.4-2.2-3.3-9.2-4.3-14.4-.5-3-.2-10-1.4-11.1-2.1-1.7-3.2-1.4-4.6-2-1-1.4-1.5-4.2-2.5-6.8-1.5.2-2.5,1.8-3.6,2.4-1,.6-1.2.6-1.2,2A11.847,11.847,0,0,1,342,272c-1.4,2.2-3.8,1.6-5.8,4.9-4.4-5.3-4.4-6.8-4.8-8.3-.3-1.5-1-1.8-3.5-3.9a31.508,31.508,0,0,1-.1-4.6c-1.8-1.5-3.2-1.3-4-.2-.9,1.1-1.5,2.8-2.9,3.4a67.512,67.512,0,0,0-5.2,6.7c1.8,27.7,8,54.9,26.8,76.7Z" fill="#69522b"/><path d="M460,249.2c.1-18.6-1-36.7-.5-52.6-24.1-10.7-55.8-12.9-72-12.9s-47.9,2.2-72,12.9c.5,15.8-.6,33.9-.5,52.6H460Z" fill="#bca76b"/><path d="M318.9,270.8c.8,1.3,2.2,3.4,2.4,4.6a7.915,7.915,0,0,0,1.1-2.4c.1-.7,1-2.1.6-2.8-.3-.7-.6-1.3.3-.8.9.6.7,1.5.5,2.9-.5,3.9-2.1,4.6-2.4,7.2,2.3,5.5.6,7.4,3.1,12.8.4.2,1.5-.2,1.8-.1,1.3-.9,2.4-.6,4.3-.2s2.9,1.7,2.9,2.9a3.476,3.476,0,0,0,.4,2.2c.4.7,1.2,1.8,1,2.6a2.172,2.172,0,0,0,.4,1.7c.2.4-.1,1.3-.3,1.8-.2.6-.2,1.3.8,2.4,1,1.2,3.2,6.1,3.2,9s.2,4.3,1.3,4.8c1.2.6,1.6,1,1.4,2.3s.6,7.8.7,8.8c.2,1,.6.8,1,1.3a2.632,2.632,0,0,0,2.4,1.2c1.6,0,3.1-.2,4.1-.1a17.229,17.229,0,0,1,2.6,6.3c.3,1.7.3,3.9.8,3.9.6,0,1.1.1,1-2-.2-2-.3-2.4-1-3.4s-1.1-1.5-.7-2.1a3.322,3.322,0,0,0,.3-2.4c-.2-.8-.4-2,1-.4,1.3,1.6,1.7,2,2.1,2.5a4.036,4.036,0,0,1,.5,2.5c-.1.9.1,1.3.6.9.6-.5,1.3.3,1,1.3a1.461,1.461,0,0,0,1,2,2.007,2.007,0,0,1,1.6,1.3c.2.7,1,1,1-.4a21.614,21.614,0,0,0-1-5.4,17.4,17.4,0,0,1-.8-4.2c-.1-1.2-.3-1.5-.9-1.7a1.5,1.5,0,0,1-1.1-1.2.828.828,0,0,0-.9-.7,1.068,1.068,0,0,1-.9-.7c-.2-.4-.4-.4-.8-.5-.4,0-1,.2-1.2-.4a7.219,7.219,0,0,0-.9-2,2.727,2.727,0,0,1-.8-2.4c0-1.8-.1-2-.6-2.6a30.484,30.484,0,0,1-1.9-3c-.4-.7-.8-1.4-.8.1s0,2.3.9,2.8c1,.6,1.2.6.8,1.3-.4.8,0,1.3.2,1.9s.5,1.1,0,1.7-1,.4-.9-.5a4.557,4.557,0,0,0-.6-2.6c-.4-.7-.7-1.2-1.2-.8s-.9-.1-.6-.4a.518.518,0,0,0,0-.8c-.2-.2-.3-.5.1-.9.4-.5.4-.7.2-1.8a46.992,46.992,0,0,0-2.8-7.9c-.8-1.3-.7-2.2.3-.9s1.9,2.4,2,3.4a3.6,3.6,0,0,0,.6,2c.3.4.6.2.7-.6s.8-.6-.3-2.2a21.486,21.486,0,0,1-4-9.4c-.8-5-1.1-8.3-1.9-9.6a5.263,5.263,0,0,1-1.1-2.9,8.076,8.076,0,0,0-.6-3.5c-.6-.9-1-1.1-1,.3-.1,1.4.1,4.6.5,5.1s.2,2,.1,2.8-1.3,1.6,1.3,3.1a1.537,1.537,0,0,1,.7,2c-.2.5-.3.5-.9-.4a7.07,7.07,0,0,0-1.7-2c-.6-.5-.6-.8-.6-1.9.1-1.1.3-1.9,0-2.3s-.5-.1-.6.5a19.552,19.552,0,0,1-.6,2.8c-.3.5-.5.2-.7-.9a11.089,11.089,0,0,1,.6-4.4,11.126,11.126,0,0,0,.4-6.1c-.5-2.4-.2-3.1-2.1-5-1.8-2-3.9-3.9-4.8-6.3s-1-4.6-2-5.7a12,12,0,0,0-3.2-2.9v-3.6c0-.9-.4-1.4-1.4-1.3a3.54,3.54,0,0,0-2.3,2.2c-.6,1.2-1.1.6-2,2.7-.4,2.4-1.7,3.4-1.7,5.6Z" fill="#cfa763"/><path d="M324.7,293.8a1.9,1.9,0,0,0,2.2.2c1-.5,2.1-1.8,3.4-.5a7.941,7.941,0,0,1,2,5.3c0,1.7,0,5,2,6.8a8.3,8.3,0,0,1,3.1,6.1,44.931,44.931,0,0,0,1.2,6.9,6.979,6.979,0,0,0,1.4,2.7c.6.6,1.1,2.4,1.2,4.3s-.2,3.2,0,4.2c.2.9,0,1.7-.7,1.3a3.182,3.182,0,0,1-1.3-1.5c-.4-.8-.9-.6-.5.6a3.327,3.327,0,0,0,2.6,2.3,2.438,2.438,0,0,1,2,.8c.6.6.7.9,1.8.9a5.833,5.833,0,0,1,2.3.3c1,.3,1,.2,1.6,0s1.1.3,1.5,1.3a25.069,25.069,0,0,1,1.3,4.6,3.607,3.607,0,0,0,.6,2.4c.6.8.4,1.6-.2,1.1s-.6-.3-1.1-.2-.8-.2-1.4-.6-.2-.3-.9-1.3c-.6-.9-1-1.3-1-.6s-.1,1.6-.6,1.2-.7-.4-1.1,0-.6.7-1-.1a1.777,1.777,0,0,0-1.5-.9c-.5-.2-.5-.2-.7-.9s-1-.9-1.6-.9-1-.3-1-.8a1.65,1.65,0,0,0-.8-1c-.3-.2-.2-.8-.2-1.3-.1-.6-.6-.3-.9-.5s-.6-.1-.6-.9-.3-1-.6-1.6a2.532,2.532,0,0,1,.2-1.7,1.456,1.456,0,0,0-.4-1.6c-.5-.6-.1-1.1-1.3-2.2s-1.9-.2-2.3-2.8-1.2-7.9-1.9-8.8-1.2-1.5-1.9-1.7-1.2-.1-1.3-1.6a7.416,7.416,0,0,0-1.5-4.3c-1-.9-1.3-1.3-1.8-1.7s-.6-1.1,0-2.4a8.1,8.1,0,0,0,.3-4,14.155,14.155,0,0,1-.2-2.9,6.421,6.421,0,0,0-.2-2.8c-.3-.5-.6-.7-.2-1.2Z" fill="#cfa763"/><path d="M348.8,336.9c-.5.9-1,.6-1.5.2-.5-.5-1-.5-.8-1.3.2-.9.2-1-.5-1.5l-.2-.2h-.7c-1.1,0-1.2-.3-1.8-.9l-.4-.4v.6c0,.9,0,.7-.9.9s-.7-.9-.9-1.6c0-.2-.1-.3-.1-.4a3.378,3.378,0,0,1-2.3-2.2c-.4-1.2.1-1.3.5-.6a3.183,3.183,0,0,0,1.3,1.5c.7.5,1-.3.7-1.3a3.4,3.4,0,0,1-.1-1,1.576,1.576,0,0,0-.7-.7c-1.3-.6-.9-.7-.8-1.7s-.2-1-1-.5c-.8.6-.9-.1-.9-1.7s-1-1.6-1.3-.5c-.2,1.1-.6.4-1.1-1.2s-1.1-2-1.2-.5c-.1,1.3-.4,1.6-1.3.9.1.9.3,1.8.4,2.4.4,2.6,1,1.7,2.3,2.8s.9,1.7,1.3,2.2a1.42,1.42,0,0,1,.4,1.6,2.6,2.6,0,0,0-.2,1.7c.2.6.6.8.6,1.6s.2.7.6.9c.2.1.5,0,.6.1a5.546,5.546,0,0,1,.6-.8c1-.9,2.4.1,2.9,1.3s1,1.5,1.7.6.5-.8,1.3.1,1.1.7,1.1.7a1.329,1.329,0,0,1,1.3.2c.6.5.9.4,1.9-1.1,1.1-1.6-.4-1.2-.8-.2Z" fill="#d7c99c"/><g transform="translate(0 0)"><path d="M349.5,347.9a36.19,36.19,0,0,0,7.6-2.1c1.3.9,3.5,2,4.4,2-1.8.4-3,.2-3.5-.2a2.812,2.812,0,0,0,1.3,1.5c-1.7-.1-3.7-.5-4.4-1.1a6.371,6.371,0,0,1-5.4-.1Z" fill="#7fb8c1"/><path d="M352.9,350.3a41.4,41.4,0,0,0,4.5.7c-1.1.9-.2,1.8,1.7,1.7-.9.1-1.9.5-1.2.6,1.6.3,6-.9,6.9-1.3-1.6,1.9-8.9,3.6-11.9-1.7Z" fill="#7fb8c1"/><path d="M355.9,355.1a6.111,6.111,0,0,1,4.2.2C358.9,355.7,356.6,355.7,355.9,355.1Z" fill="#7fb8c1"/><path d="M359.3,355c1.6-.3,6.2.8,7.8-.2-.6,1.5-3.5,1.7-4.4,1.3a11.337,11.337,0,0,0-2.6-.7c.4-.1-.2-.1-.8-.4Z" fill="#7fb8c1"/><path d="M361,357.2a24.928,24.928,0,0,0,7-.9,19.251,19.251,0,0,0,4.9,1.1c-1.3.8-3.9.4-4.8,0A8.077,8.077,0,0,1,361,357.2Z" fill="#7fb8c1"/><path d="M363.1,358a8.563,8.563,0,0,0,5-.5,9.673,9.673,0,0,0,3,.5,7.444,7.444,0,0,0,2.9,1.2,13.9,13.9,0,0,1-5.8-.4c-2,0-5.4.5-6.2,1.1A2.068,2.068,0,0,1,363.1,358Z" fill="#7fb8c1"/><path d="M361,349.1c1.4.5,6.3.2,8.9-.9,1-.5,1.6.3.5.7-4.1,1.4-7.4,2-9.8.7-1-.5-1.1-1,.4-.5Z" fill="#7fb8c1"/><path d="M385.3,342.4c-6.1,2.8-10.2,3.7-18.6,1.1-.8-.2-1.3,0-.5.6a34.717,34.717,0,0,0,6.7,1.9c1.1.1.7.6,0,.8s-.9.7,0,.3,6-.5,8.1.6c.9.5,1.1.4,1.1,0-.1-.4.4-.6,1.1-.7s1.1-.3.6-.5-.6-.3-.2-.5.4-.4-.2-.5-1-.3-.4-.6a4.919,4.919,0,0,1,2-.5C385.1,343.9,384.8,342.8,385.3,342.4Z" fill="#7fb8c1"/><path d="M375.2,343.1c3.5.2,9.9-1.3,13.3-4.6a19.075,19.075,0,0,0,3.7,1.7c.9.2,1.7.9.3.9a14.667,14.667,0,0,1-4.1-.9,23,23,0,0,1-13.2,3.4C374.3,343.4,374,343,375.2,343.1Z" fill="#7fb8c1"/><path d="M369.6,333.3a15.439,15.439,0,0,1-3.1.5c-.6,0-1.1.1-1.1.5s.2.6-.6.6a1.932,1.932,0,0,0-1.7.5c-.2.2-.4.5.5.6a2.928,2.928,0,0,0,2.2-.3c1-.4,1.9-1.1,2.9-1.1C369.8,334.4,370.8,333.1,369.6,333.3Z" fill="#7fb8c1"/><path d="M366.8,335.7a19.436,19.436,0,0,0,6.7,1.9c1.5-.1,1.3.6.1.9a9.659,9.659,0,0,1-7.4-2.1c-1-.9-.1-1.1.6-.7Z" fill="#7fb8c1"/><path d="M387.1,337.8a15.817,15.817,0,0,1-8,.3c-1.3-.4-2.6-.4-1.7.4.9.9,3.8,1.5,5.5,1-5.9,1.3-7.5,1.2-8.9,1a33.022,33.022,0,0,0-5.4-.1,4.227,4.227,0,0,1-2.6-.4c-.5-.3-.7-.9.9-.7,1.5.2,1.7-.2.4-.4s-3.2.4-1.4,1.5,5.8-.1,8.4.6a14.608,14.608,0,0,0,13-2.9c.3-.1.8-.6-.2-.3Z" fill="#7fb8c1"/><path d="M379.4,334.5a7.172,7.172,0,0,1-2.5-.7c-.6-.3-1.5-.3-.9.6.7.9,3.6,1.4,4.6,1s.6-.9,1.6-.3a6.576,6.576,0,0,0,2.9,1.1c.8,0,1,0,.2-.5s-1.2-.6-1.3-1-.2-.6.6-.4,1.6.7,2.2.4a6.623,6.623,0,0,1,2.7-1l.2-.6a5.031,5.031,0,0,0-2.7.5,3.74,3.74,0,0,1-1.9.1,6.9,6.9,0,0,1-2-.4c-.3-.2-.2-.4.4-.5s.8-.6,0-.4a11.284,11.284,0,0,1-4.4-.3,3.222,3.222,0,0,0-2.3-.2c-.5.2-.4.7.3.8a6.428,6.428,0,0,1,3.1.7c.6.6.5.6-.2.3-.6-.2-1.8-.1-.6.8Z" fill="#7fb8c1"/><path d="M408.1,332.4c-2.4,1.7-5.2,2.1-8.6,2.4-1,.1-.7.3.2.4,3.6.4,7.7-.9,9-2.4C409.1,332.4,409,331.7,408.1,332.4Z" fill="#7fb8c1"/><path d="M391.9,336.4a31.033,31.033,0,0,1,5.7,1.3c.9-.1,1.1-.3,1-.6-.2-.3-.3-.7,1.3-.6s5.2,0,5.9,0c.6-.2,1.8-1.2,2.3-1.2-1.4.1-7.4.4-8.1.3a1.942,1.942,0,0,0-1.6.3,1.227,1.227,0,0,1-1.3.2c-.6-.2-1.7-.6-2.3-.2s-1.8.1-2.9.5Z" fill="#7fb8c1"/><path d="M405.8,336.6c.6-.2,1.8-1.2,2.3-1.2a17,17,0,0,1,2.8.4c.6.1,1.2,0,.8-.5-.4-.4,0-1.2,1.6-1a13.767,13.767,0,0,0,4,.3c1.6-.2,2.3,1,5.3-.2-.2,1.2.3,1.3.9,1a1.917,1.917,0,0,1,2.1.6c1,.7,6.7.8,8.1.6,1.3-.2,2.1.5,1,.8-1,.3-1.3.8-1,1.1.2.3.5.7-.8.5a1.976,1.976,0,0,0-2.1.7c-.6.5-.8.6-2.5.3a5.594,5.594,0,0,0-3,.1,2.558,2.558,0,0,1-2.1-.2,8.776,8.776,0,0,0-4.3-.2c-1.3.4-2.2.8-3.3.5s-1.2-.2-.5-.9.9-.6,2.2-.8,2.4-.5,1.4-1.1-1.3-.5-2.5.2c-1.3.6-1.9,1-3.3.2a3.589,3.589,0,0,0-3.1-.4c-1,.3-2.6-.2-4-.8Z" fill="#7fb8c1"/><path d="M410.6,339c-1.8.3-2.3-.9-4.2-.7-.6.1-1.7.9-.2.7,1.5-.1,3.1.7,4.5.6S411.4,338.8,410.6,339Z" fill="#7fb8c1"/><path d="M408.5,340.3c1-.3,2.9.3,3.8.2.8-.2,1.6.4.8.6s-3-.5-3.9-.2c-1.1.3-2-.1-.7-.6Z" fill="#7fb8c1"/><path d="M389.5,345.4c1.3,0,6-.2,7.9-4.1.1-.3.3-.4.9,0a14.38,14.38,0,0,0,6.9,2c1.1.1,2.4.7.1.5s-5.9-.8-7.2-1.5c-2.1,3.2-5.8,3.6-8.5,3.5-1.7,0-1.3-.4-.1-.4Z" fill="#7fb8c1"/><path d="M399.7,340.1c-.6.9-2.8,2.4-3.8,2.4a17.391,17.391,0,0,1-4.7-.5c-.8-.3-1.7-.2-.6.6a7.635,7.635,0,0,0,4.8,1c1.1-.2,2.3-.6,3.1-.1s2.4,1.5,3.3,1.3a7.649,7.649,0,0,1,3.4.1c.6.3,1.6,1.1.1.6s-2.8-.1-3.5-.4c.8,1.1,2.6,2.9,4.1,2.9.4,0,.6.6-.2,1a3.463,3.463,0,0,0,3.4-.2c-.2.3-.1.5.3.7s.9.5.2.6a8.968,8.968,0,0,1-2.8.1,14.178,14.178,0,0,0,9.6,1.8c.8-.1,1.2-.5-.1-.4-2.6.1-2.8,0-3.2-.2-.5-.3-.4-.5.4-.7a21.49,21.49,0,0,1,3.4-.5c.7,0,1.6-.3,0-.3a18.077,18.077,0,0,1-4.4-.3c-.8-.3-1.4-.6-.6-1.2s1.7-.4,2.1-.9c-2.6,0-5.8-1.4-4-2.7.4-.3.3-.3-.4-.4a12.8,12.8,0,0,1-3.5-1.1c-.8-.5-.3-.9.4-1a12.576,12.576,0,0,1-6.8-2.2Z" fill="#7fb8c1"/><path d="M423,340a10.218,10.218,0,0,1-5.3,1.5c-1.2,0-1.3.4-.4.5a9.683,9.683,0,0,0,2.3.1,1.313,1.313,0,0,1,1.2.1,4.922,4.922,0,0,0,3,.1,13.047,13.047,0,0,1,3.7-.5c.8,0,1.6.1.1-.4a13.9,13.9,0,0,0-4.6,0c-.6.2-2.2,0-1.3-.2a6.82,6.82,0,0,0,2.1-1.1,1.719,1.719,0,0,1-.8-.1Z" fill="#7fb8c1"/><path d="M422.3,343.1a8.5,8.5,0,0,1-4.8,1.8c1.7.6,3.1,2.3,4.1,2.2a5.076,5.076,0,0,1-1.8.9,6.185,6.185,0,0,0,4.2-.8c2.4.7,5.5.2,6.5-.6a7.479,7.479,0,0,1-4.2-1.3,2.41,2.41,0,0,0,1.8-.9,10,10,0,0,1-5.8-1.3Z" fill="#7fb8c1"/><path d="M419.7,348a5.076,5.076,0,0,0,1.8-.9c-1.3.4-7-.5-8.7-2s-1.7-.4-.5.7A8.476,8.476,0,0,0,419.7,348Z" fill="#7fb8c1"/><path d="M423.9,351.6a14.5,14.5,0,0,1-5.2.4c-1.1-.2-1.6-.1-1.3.3s.4.8-.5.7a10.894,10.894,0,0,0-3.2.3c-.7.2-1.5.8-.1.6a10.032,10.032,0,0,1,3.8-.2c1.1.3,4.9.4,5.6,0,.8-.3.2-.3-.1-.3s-.5-.2,0-.5a2.43,2.43,0,0,0,1-1.3Z" fill="#7fb8c1"/><path d="M390.9,347a43.977,43.977,0,0,1-7.5,2,11.181,11.181,0,0,1-3.6,1.1,6.156,6.156,0,0,0,3.6.7,16.715,16.715,0,0,1-2,1.3,15.739,15.739,0,0,1,3.4.2,9.768,9.768,0,0,1-5.2,1.1,2.173,2.173,0,0,0,1.7,1.1,9.019,9.019,0,0,1-4.3.1c.4.8.8,1.3,1.3,1.3a6.145,6.145,0,0,1-4.2-.4c1,1.3,3.3,1.8,6.7,1.4a17.156,17.156,0,0,0,7.1-2.5,21.166,21.166,0,0,1-4.3.1c1.9-.5,6-2.2,6.7-2.9a3.48,3.48,0,0,1-2.1-.6,19.234,19.234,0,0,0,6.2-.8,4.827,4.827,0,0,1-2.7-1.7,26.033,26.033,0,0,0,13.2.4c.6-.2.7-1-.6-.9a23.323,23.323,0,0,1-7.6-1,6.835,6.835,0,0,0,3.2,1.4c-1.9.5-4.8.9-9-1.4Z" fill="#7fb8c1"/><path d="M381.4,352.1a9.606,9.606,0,0,0,2-1.3,6.156,6.156,0,0,1-3.6-.7,9.944,9.944,0,0,0,3.6-1.1c-2.9-.1-4.8-.1-5.9-.6a5.66,5.66,0,0,0-3.6-.2c-.7.2-.5,1.3,2.5,1-1.3.9-4.7,1.2-5.9.9.3,1,.6,2,.2,2.6a21.98,21.98,0,0,0,8.2,2c-1.9-.7-2.9-1.5-1.3-1.7a19.279,19.279,0,0,0,3.8-.9Z" fill="#7fb8c1"/><path d="M376.5,357.2c3.8-.3,8.9-.4,12.9-3.8,1-.9,1.7-.6.7.3a22.189,22.189,0,0,1-12.5,4.6C375.5,358.3,374.6,357.3,376.5,357.2Z" fill="#7fb8c1"/><path d="M404.9,351a14.368,14.368,0,0,1-4.4.7,4.571,4.571,0,0,0-2.6.2c-.6.4-.7.6.2.7a11.215,11.215,0,0,0,2.5.1,3.051,3.051,0,0,0-1.3,1.2,8.183,8.183,0,0,1,4.3.6,1.625,1.625,0,0,1-1.5-.3c2.1,2.2,8.5,2.2,9.5,1.9a3.36,3.36,0,0,1-1.4.8,8.5,8.5,0,0,0,5.9-.9c-.7.1-2.7-.1-3.2-.1a4.616,4.616,0,0,1,1.5-.9,10.059,10.059,0,0,0-3.9.2,2.54,2.54,0,0,1,1.2-1.3c-3.1,0-6.9,0-8.3-.8,2.2.2,4.7-1.1,5.7-1.1-1.8.1-3.7-.3-4.2-1Z" fill="#7fb8c1"/><path d="M397,352.7a20.833,20.833,0,0,0-4.5,1.3c-.6.4-1.3.6.1.6s5.2.2,6,.3a52.708,52.708,0,0,0-5.5-.4c-.5,0-1.2,0-.2-.4a23.835,23.835,0,0,1,4.1-1.4Z" fill="#7fb8c1"/><path d="M393.8,356.4c.6,0,3,0,3.9-.8,1,.7,2.9,1.8,4.1,1.8s1.1.3,0,.4a7.406,7.406,0,0,1-4.2-1.3c-1.4.5-2.5.1-3.8-.1Z" fill="#7fb8c1"/><path d="M375.5,366.9c2.5.9,5.7,1.7,8.1.9,1.3,1.2,4.1,1.3,5.6.9a7.69,7.69,0,0,1,4.5.1c1.7.6,5.1.6,6,1.4a30.143,30.143,0,0,0-3.2.1c-.4.1-.2.4.6.8-2.7-.2-7.3,1-8.8,2.2a5.041,5.041,0,0,1,4.6-2.9c-1.4-.5-6-.5-7.5.4a5.017,5.017,0,0,1-1-1.6c-2.3,1.4-7-.5-8.9-2.3Z" fill="#7fb8c1"/><path d="M369.2,362.5c2.9-.4,4.9-1.3,5.8-2.2.5.5,2.7.9,5,.2a1.122,1.122,0,0,0-.3,1.4,17.767,17.767,0,0,0-5.5,1.3c-1,.5-3.9.9-4.8.4-1-.5-1.1-1-.2-1.1Z" fill="#7fb8c1"/><path d="M379.6,361.9a17.767,17.767,0,0,0-5.5,1.3,6.579,6.579,0,0,1,.4,1.5c2.9-1,9.4-1.7,11.9-1.3-1.2.1-3.5,1.3-4.7,1.5a25.278,25.278,0,0,1,6.9.6c.8.2,1,.8.4,1.3-.6.6-.9.6.4.7,1.3,0,3.9-.1,5.1-1.3-.5-.5-1.7-.3-2.1-.7a5.832,5.832,0,0,0,2.1-1.3,22.4,22.4,0,0,1-3.6-.2c-.7-.2-1.2-.4-.4-.8A4.135,4.135,0,0,0,392,362c-1.5.4-4,.8-6-.8a6.875,6.875,0,0,0,3.2-.2,3.49,3.49,0,0,0-1.8-.6,10.9,10.9,0,0,1,8.8.1,16.8,16.8,0,0,1,5.6.3,21.058,21.058,0,0,1,2.7-2.5c-4.7.4-13.1-.5-12.9-2.9a8.234,8.234,0,0,1-6.5,2.8c-.2.7.5,1.6,1,2a17.566,17.566,0,0,1-5.5.3,5.071,5.071,0,0,0,2.9,1.3c-1.7-.1-2.6.3-3.9.1Z" fill="#7fb8c1"/><path d="M389.3,367.5c1.3,0,3.9-.1,5.1-1.3-.5-.5-1.7-.3-2.1-.7a5.832,5.832,0,0,0,2.1-1.3c3.3-.3,6.3-.1,7.7-.5s5.1-.2,5.8-.4c-3.2.5-3.8.8-4,1.3s1,.9,1.8.9a4.443,4.443,0,0,0-3.4,2c-1.9-1.1-2.8.2-3,.6a6.421,6.421,0,0,0-4.8.9,9.121,9.121,0,0,0-4.6-.5c1.2-.1,1-.9-.6-1Z" fill="#7fb8c1"/><path d="M404.6,358.3c1.1,0,3.4.1,4.2,0a4.564,4.564,0,0,0-1.4,1,58.34,58.34,0,0,1,7.5-.4,4.683,4.683,0,0,0-3.3,1.1c-.7.4-.3.7.6.8s2.1.8.5.6a37.742,37.742,0,0,0-5.7-.1c-.8.1-1.2-.3-.1-.4a7.8,7.8,0,0,0,2.5-.9,12.645,12.645,0,0,1-3.3.1c-.6-.2-.9-.5-.3-.6.6-.2.2-.4-.5-.3a7.443,7.443,0,0,0-3.3,1.7,10.561,10.561,0,0,1,2.6-2.6Z" fill="#7fb8c1"/><path d="M392.5,360.1a6.832,6.832,0,0,0,5.3,2.4c.5,0,1.5.7.2.7-3.3.1-5-.7-6.5-2.8C391.3,359.9,391.8,359.3,392.5,360.1Z" fill="#7fb8c1"/><path d="M434.7,342.2c-1,.7-2.3,1.9-1.4,3.5.1-.1.2-.1.3-.2a97.1,97.1,0,0,0,10-14.6c0-.2.1-.3.1-.5a14.216,14.216,0,0,1-3.6,2.1c.5,1.3-1.7,2.9-2.9,3.4a1.4,1.4,0,0,1-.7,2.2c.2.7-.6.7-1.5,1.1a3.377,3.377,0,0,0-1.7,1.2,2.542,2.542,0,0,1,1.6-.4c.4.1.5.7-.2.9a2.6,2.6,0,0,0-1.4.9c1-.5,2.4-.3,1.4.4Z" fill="#7fb8c1"/><path d="M364.9,324.2a9.484,9.484,0,0,0,6,2,12.832,12.832,0,0,0,4.4,2.2c-1.8.7-3.8,1.4-4.3,2-.8-.8-1.9-.7-2.2-1.1-.8.6-.7,1-.2,1.3s4.5,1,5.5.7,1.3.5.4.8c-2.1.7-6.3,0-7.7-2.2-1.4-2.3-2.7-3.1-6.5-1.1-.4-1.1-.4-1.4-1.2-1.4s-2.1-1-1.1-.9a12.337,12.337,0,0,0,6.9-2.3Z" fill="#7fb8c1"/><path d="M365.8,329.3c-.7.2-2.5,1.2-3.2,1.3s-1.9,1-.6,1.1c1.2,0,2.8-1.3,3.7-1.4C366.5,330.1,366.6,329.1,365.8,329.3Z" fill="#7fb8c1"/><path d="M371,333a2.045,2.045,0,0,1,0,1.1c-.1.3-.1.6.4.2s.8-.9,1.3-.6a6.346,6.346,0,0,0,2.4.2c.6-.1.8-.2-.1-.6a3.944,3.944,0,0,0-2.2-.4,6.8,6.8,0,0,1-1.5-.2q-.45-.3-.3.3Z" fill="#7fb8c1"/><path d="M389.8,333.1l-.2.6c1.5,0,5,.3,6.2,1,1.1-.9.9-1.1,1.7-1a4.465,4.465,0,0,0,2.2.2,1.672,1.672,0,0,1,1.2-.1,3.423,3.423,0,0,0,2.1-.5,5.659,5.659,0,0,1,2.5-.8c.7,0,1.6-.2.3-.4a11.729,11.729,0,0,0-4,.4,20.372,20.372,0,0,1-3.9.4c-1.2,0-2.8.6-4.2.2a25.149,25.149,0,0,0-3.9,0Z" fill="#7fb8c1"/><path d="M412.3,332.5a21.208,21.208,0,0,0,8,1.4c.5,0,1.4.5.2.6a14,14,0,0,1-8.4-1.6c-.7-.3-.4-.7.2-.4Z" fill="#7fb8c1"/><path d="M414.1,332.5c2.7-.1,4.7,0,5.5.7a16.709,16.709,0,0,1,5-.6c.7.1,1.3-.2-.1-.5a20.29,20.29,0,0,0-5.9-.3,33.735,33.735,0,0,1-5.5.2,1.905,1.905,0,0,1,1,.5Z" fill="#7fb8c1"/><path d="M424.6,333.6c1.3-.7,4.9,0,6-.5-.8.9,2.5,1,5.4.3-1.1.7-3.5.8-4.5,1.3a2.836,2.836,0,0,1-2.4-.2,7.22,7.22,0,0,0-4.5-.9Z" fill="#7fb8c1"/><path d="M436,333.3c-2.9.7-6.2.7-5.4-.3-1.1.5-4.8-.2-6,.5,1.3-.8,2.3-.2,3.2-1.8.6.1,2,.2,2.5-.4a8.473,8.473,0,0,1,2.7,1c.4.4,1.1-.1.6-.8,1.3-.5.5.6,3.5-.2.6-.2,2.2-.4,2.7-.5a13.918,13.918,0,0,1-3.8,2.5Z" fill="#7fb8c1"/></g><path d="M460,249.2c-.1,49.5-8,102.7-72.5,128.1C323,351.9,315.1,298.6,315,249.2H460Z" fill="none" stroke="#000" stroke-width="2"/><g transform="translate(0 0)"><path d="M343.8,271.5a18.075,18.075,0,0,1-3.7,3.6c-1.5,1.1-3.4,1.9-2.3,3.7s1.9,2,2.1,3.4.5,2.5,1.6,2.8,1.5.1,1.5,2.3,0,3,1,3.9c1,.8.8,1.7,1.3,3.7.4,2,.4,6.3,1.7,9.2s4.1,8.5,3.8,9.7-.7,2,.5,3.4a8.9,8.9,0,0,1,2.2,4.5c.1,1.2.3,1.6,1.6,1.2a3.781,3.781,0,0,0,2.3-1.4c.4-.5,1.3-.4,2.4.2,1.2.6,3,1.3,4,.6,1.1-.6,1.6-1.6,2.5-1.6,1.5-1.1,2-3.3,2.3-3.9s.1-.6-.5-1.3c-.6-.6-.3-1.7-.4-2.7a12.27,12.27,0,0,0-1.8-4.9c-1.3-2.3-2-5.1-2.9-5.9a6.364,6.364,0,0,1-1.4-3.4c-.1-.8-1.1-1.6-1.7-2.2s-1.3-1.6-2-5.2c-.7-3.7-1.3-6.3-1.3-6.9s-.1-.7-.7-.9a1.49,1.49,0,0,1-.7-1.8c.2-.5-.2-1-.4-1.7a3.442,3.442,0,0,1,.4-2.4c.4-.6.3-2.4-.1-3.9s-.8-2.7-2.5-2.9-2-.6-2.6-2-1.3-3.8-1.5-4.3-.5-.6-1.8.4-1.7,1.4-1.7,3.4a3.845,3.845,0,0,0,.6,2.4c.4.7.5.9.8,2.9s2.1,5.1-.2,6.9-2,2.2-1.9,3.5-.6,2.1-1.1.3c-.4-1.8,0-2.8,1.3-3.7,1.3-.8,2.4-1.9,1.6-3-.8-1.2-1.2-3.9-1.3-5.1-.1-1.5-.3-1.9-1-.9Z" fill="#cfa763"/><path d="M324.9,298.2a9.749,9.749,0,0,0,.2,2.5,8.1,8.1,0,0,1-.3,4c-.6,1.3-.5,2,0,2.4a.1.1,0,0,1,.1.1,1.883,1.883,0,0,0,1.1-2.6,2.337,2.337,0,0,1,.2-2.4,1.523,1.523,0,0,0,.1-1.7c-.4-.5-.4-.5.1-2,.2-1.1-.7-1.1-1.5-.3Z" fill="#d7c99c"/><path d="M338.4,318.5a47.353,47.353,0,0,1-1.2-6.9,8.3,8.3,0,0,0-3.1-6.1c-1.5-1.4-1.9-3.7-2-5.4-1.2-.7-1.7-.4-1.6.9.1,1.4,1.5,2.1,1.3,4.1s-.2,1.5.8,2.5,1.4,1.9.8,2.4c-.5.4-.6,1.2.2,1.4a1.562,1.562,0,0,1,.7,1.8c-.1.7.6.9,1,1.4a2.73,2.73,0,0,1,.1,2.5c-.4.7-.5,1.9.3,1.3.7-.6,1.1-.1,1.6.9.5.9.9.6,1.5.3C338.7,319.3,338.5,318.9,338.4,318.5Z" fill="#d7c99c"/><path d="M332.3,274.8c-.8.1-1.3.7-.9,3.1.3,1.5-.8,1.2-1.3.4a29.216,29.216,0,0,0-1.6-3.7c-.8-1.4-.4.9-.5,2.2s.7,1.3,1.5,2.3c.7,1.1.1,1.5-.7,1.5s-.4,1.7-.2,2.8-.2,1.4-.8.4c-.6-.9-.2-2.4-.1-4.2s.2-1.4-1-1.8-1-.6-.5-1.7c.4-1,.8-1.6.3-2.1s-.4-.8.4-.9.5-.7,1.3-.9c.7-.2,1.1.1,1.2-1.3.1-1.1.5-1.8,1.3-1.5a25.49,25.49,0,0,0,1.6,5.4Z" fill="#d7c99c"/><path d="M351.6,293.7c.3-2.3.1-4.6,1.1-5.5,1-.8,2.1-2.5,2,1.1s-.2,3.4-.9,4.2-1.4,1-.6,2.4a5,5,0,0,1,.7,3.6c-.1,2.1-.1,2.9.7,4,.8,1,1.1,1.2,1.3,2.3a6.673,6.673,0,0,0,1.9,3.6,8.782,8.782,0,0,1,2.1,4.9c.1,1.7,1.6,2.1,3,3.3s-.3,2-1.4,1.5-.6,0-1.3.7c-.6.7-.8.8-1.4-.4-.5-1.3-2.3-2.1-3.2-2.4-.8-.3-1.6-1.7-2.3-3a3.979,3.979,0,0,0-3-2.1,4.436,4.436,0,0,1,.4,1.9c-.3,1.2-.7,2,.5,3.4a8.9,8.9,0,0,1,2.2,4.5c.1,1.2.3,1.6,1.6,1.2a3.781,3.781,0,0,0,2.3-1.4c.4-.5,1.3-.4,2.4.2,1.2.6,3,1.3,4,.6,1.1-.6,1.6-1.6,2.5-1.6,1.5-1.1,2-3.3,2.3-3.9s.1-.6-.5-1.3c-.6-.6-.3-1.7-.4-2.7a12.27,12.27,0,0,0-1.8-4.9c-1.3-2.3-2-5.1-2.9-5.9a6.364,6.364,0,0,1-1.4-3.4c-.1-.8-1.1-1.6-1.7-2.2s-1.3-1.6-2-5.2c-.6-2.9-1-5.1-1.2-6.2-.8,1.2-1.3,1.5-1.6.7-.3-.9-.7-1.5-1.2-.8-.4.6-.5-.5-.5-1s-.1-.6-.6-.6-.1-.8-.3-2.4-.5-1.8-.7.1-1.3,3-.8,3.5c.4.4.2,1.3-.2,2.5a3.727,3.727,0,0,0,.1,2.8c.3.8-.2,2.4-.4,3.8-.2,1,.9,2.4,1.2.1Z" fill="#d7c99c"/><path d="M342.9,287.2c0,2.2,0,3,1,3.9,1,.8.8,1.7,1.3,3.7.4,2,.4,6.3,1.7,9.2.4.9.9,2,1.4,3.1a5.242,5.242,0,0,0,1.5-2c.3-.7-.6-2.2-1.4-3.5-.7-1.3.1-1.7.8-3.3s-.1-1.7-1.3-2.1-1.2-1.5-1.8-3.1a4.03,4.03,0,0,1-.1-3.4c.4-.9.1-1.7-.7-1.9s-.6-.8-.3-1.9.5-1.3-.7-.9c-1,.2-1.2.4-1.5.8a5.721,5.721,0,0,1,.1,1.4Z" fill="#d7c99c"/></g><g transform="translate(-857.557 -110.013)"><path d="M1220.4,396.383l-2.495,27.7" fill="none" stroke="#000" stroke-miterlimit="5.252" stroke-width="0.862"/><path d="M1228.011,413.32c-1.05,4.727-2.363,9.979-3.808,14.574" fill="none" stroke="#000" stroke-miterlimit="5.252" stroke-width="0.862"/><path d="M1261.229,399.928c1.969,1.838,4.464,2.232,7.353,3.545" fill="none" stroke="#000" stroke-miterlimit="5.252" stroke-width="0.862"/><path d="M1273.965,412.269l-1.444,10.635" fill="none" stroke="#000" stroke-miterlimit="5.252" stroke-width="0.862"/><path d="M1272.521,412.663l-2.495,11.029" fill="none" stroke="#000" stroke-miterlimit="5.252" stroke-width="0.862"/><path d="M1226.436,413.714c-1.182,4.6-2.757,8.666-4.333,13" fill="none" stroke="#000" stroke-miterlimit="5.252" stroke-width="0.862"/><path d="M1281.318,439.448h-1.444a.129.129,0,0,0-.131.131l-.131.131a.129.129,0,0,1-.131.131l-.131.131-.131.131-.131.131-.131.131-.131.131-.131.131a.129.129,0,0,1-.131.131,3.321,3.321,0,0,1-1.969.788,6.372,6.372,0,0,1-2.232,0,4.123,4.123,0,0,1-2.626-.525,2.348,2.348,0,0,0-2.1.131c-.394.263-.525.656-1.05.788-.263.394-1.707.394-2.1.131a6.09,6.09,0,0,1-2.757-.525,1.768,1.768,0,0,0-2.1-.131,3,3,0,0,1-1.576.788,8.545,8.545,0,0,1-3.282-.263,9.951,9.951,0,0,1-2.1-.788c-.919-.131-1.444.394-2.1.525-.525.525-1.313.525-2.363.525a6.579,6.579,0,0,1-2.889-.263,8.816,8.816,0,0,1-1.969-.788c-.656-.525-1.707,0-2.232.263-.919.131-1.182.788-2.363.788a12.478,12.478,0,0,1-2.363-.788,4.569,4.569,0,0,0-2.757-.788,3.1,3.1,0,0,1-2.1.788,9.962,9.962,0,0,1-2.1-.131c-1.576,0-2.232-1.707-3.414-2.495l-5.514-5.514c.263-.919.394-1.182-.131-1.838.263-.919-.525-1.05-.131-2.1.394-.788-.788-.656-1.05-1.05-.656-.131-.919-.656-1.576-.788a7.077,7.077,0,0,0-1.707-.919l-1.576-.788c-.394-.394-.919-.525-1.313-.919a11.542,11.542,0,0,1-1.313-.788c-.525-.131-.788-.525-1.313-.788a5.422,5.422,0,0,0-1.444-.919,9.951,9.951,0,0,0-2.1-.788c-.525,0-.656-1.182.263-1.182a2.592,2.592,0,0,1,1.576.788,13.872,13.872,0,0,0,2.495.788c.525.263,1.05.525,1.707.788.525.394,1.313.525,1.969.919a11.92,11.92,0,0,1,1.838.919c.525.263.788.656,1.444.788.263.263.656.394.919.656a14.3,14.3,0,0,1,1.444.788c.525.394.788.394,1.182.788.525.131,3.545,1.707,3.414,1.444,3.02.525,4.333.788,7.353,1.182l21.926.394c2.626-1.05,5.252-2.232,7.878-3.282.788-1.313,1.576-2.495,2.363-3.808,3.939-.656,7.878-1.444,11.685-2.1-.263-.263,20.613-.788,21.007,1.05.131.788.788,2.232.131,2.626-.394.263-19.694-2.495-19.957-.656a48.425,48.425,0,0,0,.131,6.171,12.943,12.943,0,0,1,.263,2.232c0,.788.263,1.444.263,2.232a12.932,12.932,0,0,1,.263,2.232,2.4,2.4,0,0,1,.918,2.1Z" fill="#666"/><path d="M1221.841,409.906a86.5,86.5,0,0,1-10.766,10.241" fill="none" stroke="#000" stroke-miterlimit="5.252" stroke-width="0.862"/><path d="M1241.4,393.494l11.423-9.847" fill="none" stroke="#000" stroke-miterlimit="5.252" stroke-width="0.862"/><path d="M1236.283,403.341a25.522,25.522,0,0,0,8.272,3.939" fill="none" stroke="#000" stroke-miterlimit="5.252" stroke-width="0.862"/><path d="M1234.576,388.374c1.444,2.232,3.02,4.464,8.009,5.777" fill="none" stroke="#000" stroke-miterlimit="5.252" stroke-width="0.862"/><path d="M1231.425,365.922a19.073,19.073,0,0,1-7.221,5.514" fill="none" stroke="#000" stroke-miterlimit="5.252" stroke-width="0.862"/><path d="M1235.5,379.839c1.576,1.576,3.939,2.495,6.3,3.282" fill="none" stroke="#000" stroke-miterlimit="5.252" stroke-width="0.862"/><path d="M1235.5,414.108c1.182,5.646,2.1,10.11,3.414,14.836" fill="none" stroke="#000" stroke-miterlimit="5.252" stroke-width="0.862"/><path d="M1234.576,428.813c5.908-6.04,11.029-12.6,14.311-20.088" fill="none" stroke="#000" stroke-miterlimit="5.252" stroke-width="0.862"/><path d="M1260.967,386.8a14.051,14.051,0,0,0,6.959,4.333" fill="none" stroke="#000" stroke-miterlimit="5.252" stroke-width="0.862"/><path d="M1269.107,379.445a53.086,53.086,0,0,0,5.383,7.353" fill="none" stroke="#000" stroke-miterlimit="5.252" stroke-width="0.862"/><path d="M1251.645,370.517c-.263,2.889-1.969,5.777-3.151,8.272" fill="none" stroke="#000" stroke-miterlimit="5.252" stroke-width="0.862"/><path d="M1255.715,371.83c-2.1,2.363-4.2,4.858-7.09,6.3" fill="none" stroke="#000" stroke-miterlimit="5.252" stroke-width="0.862"/><path d="M1256.109,361.589a26.6,26.6,0,0,1-4.989,2.757" fill="none" stroke="#000" stroke-miterlimit="5.252" stroke-width="0.862"/><path d="M1277.773,383.516a26.761,26.761,0,0,1-6.433,6.3" fill="none" stroke="#000" stroke-miterlimit="5.252" stroke-width="0.862"/><path d="M1278.035,400.715c-2.232,2.1-4.2,4.6-6.827,6.171" fill="none" stroke="#000" stroke-miterlimit="5.252" stroke-width="0.862"/><path d="M1291.034,413.057a87.688,87.688,0,0,1-12.6,8.4" fill="none" stroke="#000" stroke-miterlimit="5.252" stroke-width="0.862"/><path d="M1280.53,421.723c3.808-2.363,7.09-5.646,10.372-8.8" fill="none" stroke="#000" stroke-miterlimit="5.252" stroke-width="0.862"/><path d="M1279.479,383.91a14.234,14.234,0,0,0,4.07,5.252" fill="none" stroke="#000" stroke-miterlimit="5.252" stroke-width="0.862"/><path d="M1276.985,365l-.263,56.72,4.07-.263-1.707-56.72Z" fill="#bca76b" stroke="#472b1f" stroke-miterlimit="5.252" stroke-width="0.495"/><path d="M1279.742,438.266a11.769,11.769,0,0,1,2.363,1.969c1.838,1.707,3.02,1.707,5.646,0,.919.131,1.969.656,3.02.394a10,10,0,0,0,2.757-.394c1.05-.263,1.313-1.576,1.707-2.495a14.3,14.3,0,0,1,1.838-3.02,10.763,10.763,0,0,0,2.626-2.232,3.839,3.839,0,0,0,.525-3.151,23.254,23.254,0,0,1-.131-3.02c-.263-1.313.919-2.232.788-3.545a8.128,8.128,0,0,0-2.495-.919,27.68,27.68,0,0,0-4.6-.656c-1.313-.131-2.495-.263-3.808-.394a34.406,34.406,0,0,0-3.676-.131,22.135,22.135,0,0,0-4.2.131c-.919.263-2.232.131-3.02.525a7.685,7.685,0,0,0-.656,2.889,16.749,16.749,0,0,0-.131,2.626,20.137,20.137,0,0,0,.263,4.858c.263,1.313.394,2.495.656,3.808a2.936,2.936,0,0,0,.525,2.757Z" fill="#333" stroke="#000" stroke-miterlimit="5.252" stroke-width="1.724"/><path d="M1284.469,410.563l5.646,10.5" fill="none" stroke="#000" stroke-miterlimit="5.252" stroke-width="0.862"/><path d="M1298.517,421.723a17.751,17.751,0,0,1-3.939-6.171" fill="none" stroke="#000" stroke-miterlimit="5.252" stroke-width="0.862"/><path d="M1298.124,405.311l1.838,1.313h.131a4.033,4.033,0,0,0-1.969-1.313Z" fill="#472b1f"/><path d="M1294.185,405.836h-.263l-2.626,10.241Z" fill="#472b1f"/><path d="M1306.658,406.23a3.137,3.137,0,0,0-1.838.656l1.05-.394,1.444-.263Z" fill="#472b1f"/><path d="M1294.579,415.421l-.525.131h.525c.263.131.525.131.656.263Z" fill="#472b1f"/><path d="M1295.629,416.077a9.794,9.794,0,0,0,1.969,1.182Z" fill="#472b1f"/><path d="M1301.669,416.6l-3.414.656A11.173,11.173,0,0,0,1301.669,416.6Z" fill="#472b1f"/><path d="M1294.447,405.179l-3.02,10.9,3.151-.656,3.282,1.838,4.989-1.05,2.495.394c.788-3.545.525-7.615,2.626-10.5l-2.1.263-3.282,1.182-2.626-1.05-2.1-1.444Z" fill="#fff"/><path d="M1299.174,406.492a9.176,9.176,0,0,0-1.182,3.151,17.532,17.532,0,0,0-2.232-.656,14.94,14.94,0,0,0-2.495,0v.131l-.656,2.626a16.043,16.043,0,0,1,2.889-.131,12.247,12.247,0,0,1,1.838.656c-.263,1.444-.656,2.757-.919,4.2l.656.394,1.313.394h0l.525-.131a15.61,15.61,0,0,1,1.05-3.939,16.243,16.243,0,0,0,3.151.525c.788,0,2.363-.263,2.757-.263.131-.919.263-1.707.394-2.626a9.344,9.344,0,0,1-3.02.394,11.359,11.359,0,0,1-2.495-.919,15.654,15.654,0,0,1,1.05-2.626Z" fill="#c8102e"/><path d="M1292.215,405.179a81.121,81.121,0,0,1-3.676-14.311" fill="none" stroke="#000" stroke-miterlimit="5.252" stroke-width="0.862"/><path d="M1293.4,405.967s3.282-.788,4.6-.525c1.444.263,2.363,1.969,3.808,2.1,1.707.263,3.151-1.313,4.858-1.444a20.362,20.362,0,0,1,2.363.263l-1.05,3.939-.919,3.414v3.02a18.162,18.162,0,0,0-4.2-.525c-1.707.131-3.282,1.182-4.989.919-1.313-.263-1.969-1.313-3.151-1.576a11.773,11.773,0,0,0-3.676.394Z" fill="none" stroke="#472b1f" stroke-miterlimit="5.252" stroke-width="1.724"/><path d="M1294.053,405.836l-1.313.131-4.07,14.574,1.969.131Z" fill="#bca76b" stroke="#472b1f" stroke-miterlimit="5.252" stroke-width="0.517"/><path d="M1292.74,405.967a1.685,1.685,0,0,1-.656-1.838,2.1,2.1,0,0,1,2.1-.656c.788.263,1.838,1.05,1.576,1.838C1295.5,406.361,1293.66,406.492,1292.74,405.967Z" fill="#bca76b" stroke="#472b1f" stroke-miterlimit="5.252" stroke-width="0.517"/><path d="M1307.839,406.23c-1.969,2.889-1.838,6.827-2.626,10.241a10.979,10.979,0,0,1,1.707.394v-3.02l.919-3.414,1.182-3.939S1308.5,406.361,1307.839,406.23Z" fill="#472b1f"/><path d="M1284.206,394.413c2.1,1.444,4.2,5.121,7.09,8.009" fill="none" stroke="#000" stroke-miterlimit="5.252" stroke-width="0.862"/><path d="M1288.145,389.161a55.966,55.966,0,0,1-3.02-15.362" fill="none" stroke="#000" stroke-miterlimit="5.252" stroke-width="0.862"/><path d="M1282.105,412.532l3.282,8.4" fill="none" stroke="#000" stroke-miterlimit="5.252" stroke-width="0.862"/><path d="M1285.257,369.861c-2.757-.656-5.383-2.626-5.777-4.2" fill="none" stroke="#000" stroke-miterlimit="5.252" stroke-width="0.862"/><path d="M1267.138,372.618c1.838.131,8.14-4.6,9.059-7.09" fill="none" stroke="#000" stroke-miterlimit="5.252" stroke-width="0.862"/><path d="M1283.156,411.35l4.464,9.453" fill="none" stroke="#000" stroke-miterlimit="5.252" stroke-width="0.862"/><path d="M1282.893,414.5l3.282-1.182" fill="none" stroke="#000" stroke-miterlimit="5.252" stroke-width="0.862"/><path d="M1283.418,416.34l3.414-1.444" fill="none" stroke="#000" stroke-miterlimit="5.252" stroke-width="0.862"/><path d="M1284.863,419.885l3.808-1.576" fill="none" stroke="#000" stroke-miterlimit="5.252" stroke-width="0.862"/><path d="M1280.924,401.241l4.6,4.858" fill="none" stroke="#000" stroke-miterlimit="5.252" stroke-width="0.862"/><path d="M1271.339,412.926l-3.151,10.635" fill="none" stroke="#000" stroke-miterlimit="5.252" stroke-width="0.862"/><path d="M1270.42,415.289h3.151" fill="none" stroke="#000" stroke-miterlimit="5.252" stroke-width="0.862"/><path d="M1269.632,417.915l3.676.131" fill="none" stroke="#000" stroke-miterlimit="5.252" stroke-width="0.862"/><path d="M1268.845,420.672l3.939.788" fill="none" stroke="#000" stroke-miterlimit="5.252" stroke-width="0.862"/><path d="M1279.479,363.69a5.12,5.12,0,0,0-3.414.263c-.394.394-.131,1.444.394,1.444,1.05,0,2.363.131,2.757-.263.525-.263.788-1.313.263-1.444Z" fill="#bca76b" stroke="#472b1f" stroke-miterlimit="5.252" stroke-width="0.499"/><path d="M1268.057,372.487c1.313,5.514,7.221,4.6,6.959-.394" fill="#bca76b" stroke="#472b1f" stroke-miterlimit="5.252" stroke-width="0.685"/><path d="M1273.44,372.224c1.707,6.433,9.453,5.252,9.059-.525" fill="#bca76b" stroke="#472b1f" stroke-miterlimit="5.252" stroke-width="0.837"/><path d="M1279.873,372.093c1.707,4.727,4.2,3.808,7.09-.525" fill="#bca76b" stroke="#472b1f" stroke-miterlimit="5.252" stroke-width="0.717"/><path d="M1288.67,369.861l-21.533,1.182v1.444l21.664-1.05Z" fill="#bca76b" stroke="#472b1f" stroke-miterlimit="5.252" stroke-width="0.694"/><path d="M1268.845,391.525c1.313,6.171,7.484,5.252,7.221-.394" fill="#bca76b" stroke="#472b1f" stroke-miterlimit="5.252" stroke-width="0.731"/><path d="M1274.359,391.262c1.707,6.959,9.716,6.04,9.453-.394" fill="#bca76b" stroke="#472b1f" stroke-miterlimit="5.252" stroke-width="0.894"/><path d="M1281.186,391.262c1.707,5.121,4.2,4.2,7.353-.394" fill="#bca76b" stroke="#472b1f" stroke-miterlimit="5.252" stroke-width="0.765"/><path d="M1290.246,389.03l-22.452.919v1.576l22.583-.788Z" fill="#bca76b" stroke="#472b1f" stroke-miterlimit="5.252" stroke-width="0.741"/><path d="M1268.188,408.724c1.444,6.171,7.746,5.252,7.484-.525" fill="#bca76b" stroke="#472b1f" stroke-miterlimit="5.252" stroke-width="0.75"/><path d="M1273.965,408.462c1.576,9.322,10.11,5.908,9.716-.525" fill="#bca76b" stroke="#472b1f" stroke-miterlimit="5.252" stroke-width="0.916"/><path d="M1280.924,408.331c1.838,5.252,4.464,4.2,7.484-.525" fill="#bca76b" stroke="#472b1f" stroke-miterlimit="5.252" stroke-width="0.784"/><path d="M1290.246,405.836l-22.977,1.444v1.576l23.108-1.313Z" fill="#bca76b" stroke="#472b1f" stroke-miterlimit="5.252" stroke-width="0.759"/><path d="M1282.5,381.021l-8.534.263v2.1h8.534Z" fill="#bca76b" stroke="#472b1f" stroke-miterlimit="5.252" stroke-width="0.441"/><path d="M1282.5,399.009l-8.534.263v2.1h8.534Z" fill="#bca76b" stroke="#472b1f" stroke-miterlimit="5.252" stroke-width="0.441"/><path d="M1261.229,408.856l6.3,15.1" fill="none" stroke="#000" stroke-miterlimit="5.252" stroke-width="0.862"/><path d="M1229.456,413.582a124.175,124.175,0,0,1-3.02,15.493" fill="none" stroke="#000" stroke-miterlimit="5.252" stroke-width="0.862"/><path d="M1299.962,422.773a100.364,100.364,0,0,0-10.766-1.313,61.161,61.161,0,0,0-8.534.263c-4.2.394-8.4.525-12.342,1.838a4.436,4.436,0,0,0-1.576.788c-1.182,1.05-1.182,2.889-2.232,4.2-.919,1.182-4.464,3.282-5.646,4.07a171.493,171.493,0,0,1-30.854-1.576l-1.576-1.838-.656-.656,1.838.656,4.07.131,9.978-.394s8.4,0,12.6-.131c2.363-.131,4.727-.263,7.09-.525a6.592,6.592,0,0,0,1.576-.263c.656-.525.919-1.444,1.444-2.1a5.007,5.007,0,0,1,1.444-1.838c1.838-1.313,4.07-1.182,6.04-1.576,2.363-.394,4.464-.525,6.827-.919q4.136-.591,8.272-.788a35.094,35.094,0,0,1,5.252-.131c2.626.263,5.646,0,8.009,1.313.394.263,1.182.656.919,1.182-.394.131-.919-.263-1.182-.394Z" stroke="#000" stroke-miterlimit="5.252" stroke-width="0.517"/><path d="M1258.078,361.589a13.746,13.746,0,0,0,6.3,2.232" fill="none" stroke="#000" stroke-miterlimit="5.252" stroke-width="0.862"/><path d="M1255.19,400.059a29.118,29.118,0,0,1-9.059,4.464" fill="none" stroke="#000" stroke-miterlimit="5.252" stroke-width="0.862"/><path d="M1263.33,426.975l-4.989-13.13" fill="none" stroke="#000" stroke-miterlimit="5.252" stroke-width="0.862"/><path d="M1259.391,409.644l5.777,14.968" fill="none" stroke="#000" stroke-miterlimit="5.252" stroke-width="0.862"/><path d="M1258.6,413.451l3.808-1.313" fill="none" stroke="#000" stroke-miterlimit="5.252" stroke-width="0.862"/><path d="M1255.978,359.751,1254.8,429.6l4.07-.263-.788-69.587Z" fill="#bca76b" stroke="#472b1f" stroke-miterlimit="5.252" stroke-width="0.497"/><path d="M1260.967,370.517a16.115,16.115,0,0,0,8.009,7.221" fill="none" stroke="#000" stroke-miterlimit="5.252" stroke-width="0.862"/><path d="M1247.443,366.185c1.313,6.171,7.484,5.252,7.221-.394" fill="#bca76b" stroke="#472b1f" stroke-miterlimit="5.252" stroke-width="0.731"/><path d="M1253.089,365.922c1.707,6.959,9.716,6.04,9.453-.394" fill="#bca76b" stroke="#472b1f" stroke-miterlimit="5.252" stroke-width="0.894"/><path d="M1259.785,365.922c1.707,5.121,4.858,5.646,7.353-.394" fill="#bca76b" stroke="#472b1f" stroke-miterlimit="5.252" stroke-width="0.765"/><path d="M1268.976,363.69l-22.452.919v1.576l22.583-.788Z" fill="#bca76b" stroke="#472b1f" stroke-miterlimit="5.252" stroke-width="0.741"/><path d="M1247.443,380.233c1.313,6.171,7.484,5.252,7.221-.394" fill="#bca76b" stroke="#472b1f" stroke-miterlimit="5.252" stroke-width="0.731"/><path d="M1253.089,379.971c1.707,6.959,9.716,6.04,9.453-.394" fill="#bca76b" stroke="#472b1f" stroke-miterlimit="5.252" stroke-width="0.894"/><path d="M1259.785,379.971c1.707,5.121,6.827,4.333,7.353-.394" fill="#bca76b" stroke="#472b1f" stroke-miterlimit="5.252" stroke-width="0.765"/><path d="M1268.976,377.739l-22.452.919v1.576l22.583-.788Z" fill="#bca76b" stroke="#472b1f" stroke-miterlimit="5.252" stroke-width="0.741"/><path d="M1254.139,388.111c-1.969,1.313-3.808,2.889-6.565,3.808" fill="none" stroke="#000" stroke-miterlimit="5.252" stroke-width="0.862"/><path d="M1246.787,393.363c1.313,6.171,7.484,5.252,7.221-.394" fill="#bca76b" stroke="#472b1f" stroke-miterlimit="5.252" stroke-width="0.731"/><path d="M1252.433,393.232c1.707,6.959,9.716,6.04,9.453-.394" fill="#bca76b" stroke="#472b1f" stroke-miterlimit="5.252" stroke-width="0.894"/><path d="M1259.129,393.232c1.707,5.121,6.3,3.545,7.353-.394" fill="#bca76b" stroke="#472b1f" stroke-miterlimit="5.252" stroke-width="0.765"/><path d="M1268.319,391l-22.452.919v1.576l22.583-.788Z" fill="#bca76b" stroke="#472b1f" stroke-miterlimit="5.252" stroke-width="0.741"/><path d="M1249.675,409.381c-.525,6.827-3.282,13.13-5.252,19.694" fill="none" stroke="#000" stroke-miterlimit="5.252" stroke-width="0.862"/><path d="M1252.17,409.512c-.656,6.7-2.757,13-4.333,19.3" fill="none" stroke="#000" stroke-miterlimit="5.252" stroke-width="0.862"/><path d="M1254.139,408.856a119.537,119.537,0,0,1-3.414,19.826" fill="none" stroke="#000" stroke-miterlimit="5.252" stroke-width="0.862"/><path d="M1247.049,406.1c1.313,6.171,7.484,5.252,7.221-.394" fill="#bca76b" stroke="#472b1f" stroke-miterlimit="5.252" stroke-width="0.731"/><path d="M1252.7,405.836c1.707,6.959,9.716,6.04,9.453-.394" fill="#bca76b" stroke="#472b1f" stroke-miterlimit="5.252" stroke-width="0.894"/><path d="M1259.391,405.836c1.707,5.121,6.171,4.07,7.353-.394" fill="#bca76b" stroke="#472b1f" stroke-miterlimit="5.252" stroke-width="0.765"/><path d="M1268.582,403.6l-22.452.919V406.1l22.583-.788Z" fill="#bca76b" stroke="#472b1f" stroke-miterlimit="5.252" stroke-width="0.741"/><path d="M1261.492,373.143l-8.009.263v2.1h8.14Z" fill="#bca76b" stroke="#472b1f" stroke-miterlimit="5.252" stroke-width="0.429"/><path d="M1261.1,386.8l-7.09.263v1.969h7.221Z" fill="#bca76b" stroke="#472b1f" stroke-miterlimit="5.252" stroke-width="0.391"/><path d="M1261.623,399.928l-7.746.263v2.1h7.878Z" fill="#bca76b" stroke="#472b1f" stroke-miterlimit="5.252" stroke-width="0.422"/><path d="M1249.413,411.876l4.2.919" fill="none" stroke="#000" stroke-miterlimit="5.252" stroke-width="0.862"/><path d="M1248.494,415.814l4.858.131" fill="none" stroke="#000" stroke-miterlimit="5.252" stroke-width="0.862"/><path d="M1247.706,418.572l4.989,1.444" fill="none" stroke="#000" stroke-miterlimit="5.252" stroke-width="0.862"/><path d="M1246.393,423.036l5.908-.263" fill="none" stroke="#000" stroke-miterlimit="5.252" stroke-width="0.862"/><path d="M1245.343,426.581l6.171-.131" fill="none" stroke="#000" stroke-miterlimit="5.252" stroke-width="0.862"/><path d="M1243.9,409.25c-.656,7.09,3.939,13.786,6.171,19.694" fill="none" stroke="#000" stroke-miterlimit="5.252" stroke-width="0.862"/><path d="M1262.8,425.136l3.939-1.182" fill="none" stroke="#000" stroke-miterlimit="5.252" stroke-width="0.862"/><path d="M1261.886,423.036l4.464-1.838" fill="none" stroke="#000" stroke-miterlimit="5.252" stroke-width="0.862"/><path d="M1260.442,419.753l4.6-1.313" fill="none" stroke="#000" stroke-miterlimit="5.252" stroke-width="0.862"/><path d="M1259.391,416.6l4.6-1.182" fill="none" stroke="#000" stroke-miterlimit="5.252" stroke-width="0.862"/><path d="M1235.1,441.417a6.588,6.588,0,0,1-1.576-.263,7.4,7.4,0,0,1-1.576-.525,11.342,11.342,0,0,1-1.313-.919,4.531,4.531,0,0,1-1.182-1.05,14.379,14.379,0,0,1-1.444-1.313,13.082,13.082,0,0,1-1.313-1.444c-.394-.525-.919-.919-1.313-1.444-.394-.394-.394-1.05-.788-1.576-.525-.131-1.313-.263-1.444-.919-.131-.394-.263-1.05-.788-.919-.263,0-.263.394-.131.131-.263-.131-.263.525-.263.131l-.394.788c-.263.525-.263,1.05.394,1.05.656.131.656.788,1.182,1.05a14.386,14.386,0,0,0,1.444,1.313,13.97,13.97,0,0,1,1.182,1.444,7.921,7.921,0,0,0,1.05,1.05,7.219,7.219,0,0,0,.919,1.182,9.2,9.2,0,0,0,1.313,1.05,11.542,11.542,0,0,0,1.313.788,7.035,7.035,0,0,0,1.444.656,7.572,7.572,0,0,0,1.838.394,2.552,2.552,0,0,0,1.707-.394c.525-.262,0-.262-.263-.262Z"/><path d="M1267.794,425.53a20.924,20.924,0,0,1-3.414,5.646c4.858.919,8.666-.394,13-1.182a15.4,15.4,0,0,1-.263-6.04C1273.7,424.349,1271.208,425.136,1267.794,425.53Z"/><path d="M1268.188,426.056c-.656,1.576-1.05,3.151-2.232,4.464,3.939.788,7.221-.394,10.766-1.05a7.806,7.806,0,0,1-.263-4.6c-2.889.394-5.383.788-8.272,1.182Z" fill="#333"/><path d="M1226.7,433.014l13.917,1.05a242.731,242.731,0,0,0,35.187-1.444c.394,0,1.182-.131,1.313.263.131.525-.525,1.182-1.05,1.313-12.736,1.707-25.6,1.05-38.47.919l-7.615-.788Z"/><path d="M1231.819,401.634c-3.545,2.757-7.221,5.514-11.16,7.09" fill="none" stroke="#000" stroke-miterlimit="5.252" stroke-width="0.862"/><path d="M1232.344,388.5c-3.282,2.363-6.565,5.252-9.978,6.7" fill="none" stroke="#000" stroke-miterlimit="5.252" stroke-width="0.862"/><path d="M1231.163,364.609l-.131,65.254,3.545-.263-2.1-65.385Z" fill="#bca76b" stroke="#472b1f" stroke-miterlimit="5.252" stroke-width="0.462"/><path d="M1232.607,364.215a87.347,87.347,0,0,0,7.615,7.09" fill="none" stroke="#000" stroke-miterlimit="5.252" stroke-width="0.862"/><path d="M1233.526,362.377a3.3,3.3,0,0,0-3.414.525c-.394.525-.131,2.1.394,2.1,1.05,0,2.363.131,2.757-.394C1233.789,364.084,1234.051,362.508,1233.526,362.377Z" fill="#bca76b" stroke="#472b1f" stroke-miterlimit="5.252" stroke-width="0.598"/><path d="M1231.425,438.135c.131-.525.525-.656,1.05-.788.525,0,1.313-.131,1.707.131.394.131.656.394,1.05.525a3.989,3.989,0,0,0,.919.656c1.182.394.525-.919,1.182-.919.525,0,1.182-.263,1.576,0a1.345,1.345,0,0,1,.788.656c.263.263.525.394.656.656.131.394,1.313.919,1.444.131.263-.525.131-1.576,1.05-1.444a16.161,16.161,0,0,1,2.626.263,2.5,2.5,0,0,1,1.313.656c.394.263.263.656.656.525.919.656.656-.525,1.05-.919.263-.394.919-.263,1.182-.525a4.2,4.2,0,0,1,1.969-.263,12.145,12.145,0,0,1,1.313.656,3.159,3.159,0,0,1,.788,1.05c0,.394.394.788.788.394.131-.525.656-.525.919-.788a2.117,2.117,0,0,0,.919-.525c.263,0,.394-.525.656-.788a3.894,3.894,0,0,1,1.838-.263,3.657,3.657,0,0,1,1.576.525c.263.263.394.525.788.656.263.394.656.131,1.05-.131a2.64,2.64,0,0,1,1.05-.525,2.006,2.006,0,0,1,1.313-.525c.788-.131,1.05.263,1.707.394.525.263,1.182.263,1.444.525.394.263.919.525,1.313.131.525,0,.131-.919.263-1.182.525-.525,1.969-.394,2.626-.131.656,0,1.313-.131,1.707.131.394.131.525.525.656.919s1.313.394,1.576.131c.394,0-.131-.525-.263-.656a1.08,1.08,0,0,1-.525-.788c.525-.263.788.263,1.313.263.263.263.656.263.919.525a2.383,2.383,0,0,0,1.444.263c.656.131.394,1.05-.394.919-.525.131-1.313,0-1.969.131-.919-.131-1.969,0-3.02-.131-.525.131-1.313.131-1.969.263-.656,0-1.05.131-1.838.131a11.3,11.3,0,0,1-2.1.131c-.656.131-1.182.131-1.838.263-.525,0-1.05.131-1.707.131-.788.131-1.969,0-2.889.131a8.076,8.076,0,0,1-1.707.131c-.656,0-1.182.131-1.838.131s-1.182.131-1.838.131c-1.05.131-2.232,0-3.282.131a8.074,8.074,0,0,0-1.838-.131c-.525,0-1.05-.131-1.576-.131-.394-.131-1.182,0-1.707-.131-.919,0-1.576-.131-2.495-.131h-4.727c-.394-.131-1.182,0-1.707-.131h-2.757a11.492,11.492,0,0,1-2.1-.263c-.919,0-2.1-.394-2.1-1.182Z" stroke="#000" stroke-miterlimit="5.252" stroke-width="1.207"/><path d="M1223.547,372.618c1.182,4.2,6.565,3.545,6.3-.263" fill="#bca76b" stroke="#472b1f" stroke-miterlimit="5.252" stroke-width="0.569"/><path d="M1228.537,372.487c1.444,4.858,8.534,4.2,8.272-.263" fill="#bca76b" stroke="#472b1f" stroke-miterlimit="5.252" stroke-width="0.696"/><path d="M1234.445,372.487c1.444,3.545,4.2,3.939,6.433-.263" fill="#bca76b" stroke="#472b1f" stroke-miterlimit="5.252" stroke-width="0.596"/><path d="M1242.454,370.911l-19.563.656v1.05l19.826-.525Z" fill="#bca76b" stroke="#472b1f" stroke-miterlimit="5.252" stroke-width="0.577"/><path d="M1228.931,380.365c-1.707,1.444-4.989,3.414-6.433,3.282" fill="none" stroke="#000" stroke-miterlimit="5.252" stroke-width="0.862"/><path d="M1225.386,374.981a458.584,458.584,0,0,1-14.968,46.873" fill="none" stroke="#000" stroke-miterlimit="5.252" stroke-width="0.862"/><path d="M1223.416,384.7c1.182,4.6,6.7,3.808,6.565-.263" fill="#bca76b" stroke="#472b1f" stroke-miterlimit="5.252" stroke-width="0.598"/><path d="M1228.011,384.7c1.576,6.04,8.666,5.252,8.534-.394" fill="#bca76b" stroke="#472b1f" stroke-miterlimit="5.252" stroke-width="0.789"/><path d="M1234.445,384.566c1.707,3.808,4.858,4.2,7.353-.263" fill="#bca76b" stroke="#472b1f" stroke-miterlimit="5.252" stroke-width="0.658"/><path d="M1242.717,382.465l-20.088.919v1.444l20.22-.788Z" fill="#bca76b" stroke="#472b1f" stroke-miterlimit="5.252" stroke-width="0.672"/><path d="M1222.366,396.383c1.313,5.514,7.221,4.727,7.09-.263" fill="#bca76b" stroke="#472b1f" stroke-miterlimit="5.252" stroke-width="0.689"/><path d="M1227.749,396.251c1.838,8.14,10.11,6.959,9.847-.394" fill="#bca76b" stroke="#472b1f" stroke-miterlimit="5.252" stroke-width="0.986"/><path d="M1234.314,396.251c1.707,4.727,4.727,5.121,7.09-.394" fill="#bca76b" stroke="#472b1f" stroke-miterlimit="5.252" stroke-width="0.721"/><path d="M1243.242,394.151l-22.846.919v1.444l23.108-.788Z" fill="#bca76b" stroke="#472b1f" stroke-miterlimit="5.252" stroke-width="0.715"/><path d="M1221.841,409.906c1.313,6.04,7.878,5.121,7.615-.394" fill="#bca76b" stroke="#472b1f" stroke-miterlimit="5.252" stroke-width="0.746"/><path d="M1238.909,413.057a152.085,152.085,0,0,0,4.727,15.887" fill="none" stroke="#000" stroke-miterlimit="5.252" stroke-width="0.862"/><path d="M1237.071,412.926a105.519,105.519,0,0,0,3.808,16.018" fill="none" stroke="#000" stroke-miterlimit="5.252" stroke-width="0.862"/><path d="M1227.88,409.775c1.707,8.009,9.978,7.353,9.978-.394" fill="#bca76b" stroke="#472b1f" stroke-miterlimit="5.252" stroke-width="0.912"/><path d="M1234.97,409.775c1.838,5.121,5.12,5.514,7.746-.394" fill="#bca76b" stroke="#472b1f" stroke-miterlimit="5.252" stroke-width="0.781"/><path d="M1244.555,407.28l-25.471,1.05v1.707l25.734-.919Z" fill="#bca76b" stroke="#472b1f" stroke-miterlimit="5.252" stroke-width="0.825"/><path d="M1236.283,378.526l-7.353.131v1.576h7.353Z" fill="#bca76b" stroke="#472b1f" stroke-miterlimit="5.252" stroke-width="0.36"/><path d="M1236.283,390.343l-7.353.131v1.576h7.353Z" fill="#bca76b" stroke="#472b1f" stroke-miterlimit="5.252" stroke-width="0.36"/><path d="M1236.677,403.341l-7.747.131v1.576h7.878Z" fill="#bca76b" stroke="#472b1f" stroke-miterlimit="5.252" stroke-width="0.37"/><path d="M1239.566,414.764l-4.2.919" fill="none" stroke="#000" stroke-miterlimit="5.252" stroke-width="0.862"/><path d="M1240.222,417.915l-4.2.919" fill="none" stroke="#000" stroke-miterlimit="5.252" stroke-width="0.862"/><path d="M1241.141,421.329l-4.2-.263" fill="none" stroke="#000" stroke-miterlimit="5.252" stroke-width="0.862"/><path d="M1242.454,424.743l-4.333.656" fill="none" stroke="#000" stroke-miterlimit="5.252" stroke-width="0.862"/><path d="M1222.891,424.086l4.333.919" fill="none" stroke="#000" stroke-miterlimit="5.252" stroke-width="0.862"/><path d="M1224.073,420.41l3.939.919" fill="none" stroke="#000" stroke-miterlimit="5.252" stroke-width="0.862"/><path d="M1225.123,417.653l3.676.919" fill="none" stroke="#000" stroke-miterlimit="5.252" stroke-width="0.862"/><path d="M1225.779,415.158l3.282.656" fill="none" stroke="#000" stroke-miterlimit="5.252" stroke-width="0.862"/><path d="M1278.035,429.863c7.353-.263,16.018-1.182,21.927,1.182" fill="none" stroke="#000" stroke-miterlimit="5.252" stroke-width="1.724"/><path d="M1278.56,432.226c6.7-1.05,14.574-1.576,20.351.656" fill="none" stroke="#000" stroke-miterlimit="5.252" stroke-width="1.724"/><path d="M1279.217,437.084c4.858-1.05,11.423-1.313,16.018-.131" fill="none" stroke="#000" stroke-miterlimit="5.252" stroke-width="1.724"/><path d="M1279.742,438.266c4.858,1.05,10.635,1.313,15.23.131" fill="none" stroke="#000" stroke-miterlimit="5.252" stroke-width="1.724"/><path d="M1208.58,421.2l15.755,9.585.394-.394-4.989-3.414C1216.195,424.743,1212.65,422.511,1208.58,421.2Z"/><path d="M1284.469,429.075l-.131-5.252" fill="none" stroke="#000" stroke-miterlimit="5.252" stroke-width="0.862"/><path d="M1286.044,423.823v5.383" fill="none" stroke="#000" stroke-miterlimit="5.252" stroke-width="0.862"/><path d="M1289.064,429.338v-5.646" fill="none" stroke="#000" stroke-miterlimit="5.252" stroke-width="0.862"/><path d="M1292.347,424.086v5.383" fill="none" stroke="#000" stroke-miterlimit="5.252" stroke-width="0.862"/><path d="M1294.316,424.086V429.6" fill="none" stroke="#000" stroke-miterlimit="5.252" stroke-width="0.862"/><path d="M1296.942,424.611v5.121" fill="none" stroke="#000" stroke-miterlimit="5.252" stroke-width="0.862"/><path d="M1298.255,424.611v5.777" fill="none" stroke="#000" stroke-miterlimit="5.252" stroke-width="0.862"/><path d="M1285.125,431.307V436.3" fill="none" stroke="#000" stroke-miterlimit="5.252" stroke-width="0.862"/><path d="M1283.418,431.57V436.3" fill="none" stroke="#000" stroke-miterlimit="5.252" stroke-width="0.862"/><path d="M1287.751,431.439l-.131,4.727" fill="none" stroke="#000" stroke-miterlimit="5.252" stroke-width="0.862"/><path d="M1289.327,431.439v4.727" fill="none" stroke="#000" stroke-miterlimit="5.252" stroke-width="0.862"/><path d="M1291.821,431.307l-.263,4.6" fill="none" stroke="#000" stroke-miterlimit="5.252" stroke-width="0.862"/><path d="M1294.053,431.964l-.919,4.2" fill="none" stroke="#000" stroke-miterlimit="5.252" stroke-width="0.862"/><path d="M1278.167,424.086c7.221-.919,14.443.131,21.664.919" fill="none" stroke="#000" stroke-miterlimit="5.252" stroke-width="1.724"/></g><path d="M460,249.2c.1-18.6-1-36.7-.5-52.6-24.1-10.7-55.8-12.9-72-12.9s-47.9,2.2-72,12.9c.5,15.8-.6,33.9-.5,52.6H460Z" fill="none" stroke="#000" stroke-width="2"/><g transform="translate(180.708 93.35)"><path d="M202.45,125.59a35.391,35.391,0,0,1,3.3,5.976,7.987,7.987,0,0,1,.389,3.207,24.374,24.374,0,0,1-1.506,5.733c-.437,1.312-1.36,2.283-.826,3.547.243.632.486,1.166,1.166,1.069.389-.049.583-.534.923-.777a2.953,2.953,0,0,1,.68-.486c.389-.146.923.1,1.215-.194.243-.243.437-.729.194-1.02-.194-.243-.583,0-.923,0-.437,0-.923.292-1.312.1-.389-.243-.583-1.215-.583-1.215s.777-2.138,1.215-3.207A17.727,17.727,0,0,0,207.5,135.7a5.844,5.844,0,0,0,0-.923c.049-.486-.1-1.069.194-1.409.194-.243.777.1.923-.194.437-1.117-1.555-1.8-1.992-2.915-.146-.389-.049-.875-.194-1.312a13.479,13.479,0,0,0-1.409-2.526Z" fill="#69737c" stroke="#000" stroke-miterlimit="1.943" stroke-width="0.354"/><path d="M210.612,128.6s2.332,2.866,2.575,4.615c.049.389-.243.729-.292,1.117,0,.632.34,1.215.34,1.8-.1,1.992-1.117,3.79-1.6,5.684-.389,1.6-1.069,4.907-1.069,4.907l1.458-.146.292-2.478s.777-2.818,1.117-4.227c.243-.972.389-1.992.729-2.964a15.255,15.255,0,0,0,.875-1.8,4.052,4.052,0,0,0,.049-2.624c-.146-.292-.534-.34-.729-.534a8.989,8.989,0,0,1-1.215-1.8,15.728,15.728,0,0,1-.729-2.089,11.175,11.175,0,0,1-1.8.534Z" fill="#66452b" stroke="#000" stroke-miterlimit="1.943" stroke-width="0.354"/><path d="M199.68,123.355l1.652,1.312,2.866,1.7,1.312.1,1.506.534,1.846-.049,1.36,1.409.389.243,1.506-.194.583-.632,2.915-4.421-.68-7.336-13.846.875Z" fill="#fff"/><path d="M214.644,111.014a28.176,28.176,0,0,1,5.15,5.053c1.117,1.36,1.8,3.158,3.5,3.984,2.332,2.478,12.34,5.393,12.34,6.17-2.283-.923-3.3,2.186-5.539,1.7-2.089.583-3.79-.777-5.587-1.506-2.721-.1-5.49.049-7.919,1.409-1.312.729-2.866-.389-3.935-.049l-.1.243-.146.146m-12.729-4.81c-1.6-.777-2.769-2.283-4.275-3.207-1.166-1.6-2.624-3.255-2.575-5.393-.194-2.186-.777-5.247.292-7.336-.729-1.652-1.8-2.089-2.624-3.692-.583-2.235-2.866-3.5-1.506-5.247,1.506-1.36,2.575-2.915,4.518-3.644a8.559,8.559,0,0,1,4.81.34c1.992.243,3.109,1.943,4.178,3.449a17.953,17.953,0,0,1,2.526,6.607c.923,1.943,3.4,2.332,5.2,3.158a16.2,16.2,0,0,1,4.421,2.575" fill="#fff"/><path d="M225.576,123.986c-.777-.1-2.672.68-2.186-.486-1.943-.146-3.935.292-5.83-.389a38.992,38.992,0,0,0-6.073-2.089c-1.992-.1-4.373.34-5.927-1.312-1.6-.923-3.935-.243-5.441-1.6a6.212,6.212,0,0,1-2.332-4.956c-.292-1.895-1.02-4.518,1.117-5.636,1.409-.437,2.721-.049,3.6-1.458a7.513,7.513,0,0,1,4.956,1.215c1.8.875,3.79,1.458,5.539,2.429,1.7,1.117,3.109,2.575,4.664,3.79a20.92,20.92,0,0,1,3.5,4.47c.972,1.846,2.915,2.866,4.615,3.935,1.02.243,3.4,1.36,1.117,1.652A5.2,5.2,0,0,1,225.576,123.986Z"/><path d="M205.9,117.67a6.052,6.052,0,0,1-2.769-.923c-.632-.389-2.186-1.312-1.166-2.041.826-.1,1.8.34,2.575-.243a12,12,0,0,0,3.4-.826c.972-.534,2.138-.194,3.158-.486.777-.389.632-1.943,1.8-1.652,1.069-.292.777,1.8-.194,1.117-.583.826,1.069,1.117,1.506,1.6.875,1.02-1.069,1.215-1.215,1.943-1.215.34-2.138-1.166-3.352-.729-.243.389.049,1.263-.874,1.069-1.02-.632-1.895.1-2.915.194.291.194-.34,1.02.049.972Z" fill="#69737c"/><path d="M227.179,125.007a3.764,3.764,0,0,0-1.943,0,2.75,2.75,0,0,1-1.263-.146c-.632,0-1.846-.68-2.041.194.049.389,1.069.583.243.68a5.224,5.224,0,0,1-2.429-.534c-.34-.292-1.02-.68-.826.049.292.632-.389.923-.972.923a3.217,3.217,0,0,1-2.186-.826c-.389.486.583,1.215,1.166,1.263.583.486-.874.292-1.215.243a1.9,1.9,0,0,0-1.458.146c-.68.146-.68.826.1.729a3.117,3.117,0,0,0,2.381.1,7.464,7.464,0,0,1,2.624-.972,16.5,16.5,0,0,1,2.235-.34c.972-.1,1.992-.1,2.964-.1a2.308,2.308,0,0,0,2.235-.292c.437-.146,1.7-.632.777-.972-.194-.049-.292-.194-.389-.146Z" fill="#69737c"/><path d="M224.507,126.416a2.184,2.184,0,0,0,1.117-.194,11.372,11.372,0,0,1,1.166-.437c.534,0,.729-.68.194-.826a3.973,3.973,0,0,0-.923-.437c-.292-.243-.729-.34-1.02-.632.243-.292.437-.583.68-.875a8.336,8.336,0,0,1,1.166-.194,2.654,2.654,0,0,1,.874-.049c.389.194.826.34,1.215.534a9.86,9.86,0,0,0,1.263.534,9.449,9.449,0,0,1,1.069.389,6.285,6.285,0,0,0,1.263.389c.437.1.583.583,1.117.486a2.605,2.605,0,0,1,1.312.534c.292.1.777.389.777.583-.389.049-.729-.292-1.166-.243-.34.049-.534.389-.923.34-.146.486-.777.389-1.069.826a5.844,5.844,0,0,1-1.312.777,1.4,1.4,0,0,1-1.166-.049c-.437-.1-.875,0-1.36-.1a2.17,2.17,0,0,1-1.36-.146,4.263,4.263,0,0,1-1.02-.583c-.389-.146-1.117-.34-1.555-.534a1.2,1.2,0,0,0-.437-.194Z"/><path d="M194.676,94.642a3.474,3.474,0,0,0-1.215.146,3.02,3.02,0,0,0-1.7,1.069,9.221,9.221,0,0,1-1.943,1.7,2.981,2.981,0,0,0-.826.923c.389.243,1.069.34,1.36-.146A4.693,4.693,0,0,1,192,97.071a5.38,5.38,0,0,1,1.749.194,5.26,5.26,0,0,0,1.458.534c.292.1.729.146,1.117.243.534.194,1.117.292,1.652.437a4.972,4.972,0,0,0,1.895,0,1.345,1.345,0,0,0,.437-.049,1.287,1.287,0,0,0-.146.486,2.759,2.759,0,0,0,.34,1.069c.194.34.389.68.583.972.146.389.34.729.486,1.117a7.927,7.927,0,0,1,.437.923,2.3,2.3,0,0,0,.486.972c.243.34.534.632.777.972.194.292.34.632.534.972.292.243.583.583.923.534a4.792,4.792,0,0,0,1.166-.146.178.178,0,0,1-.146-.049,2.142,2.142,0,0,1-.729-.875,10.842,10.842,0,0,1-.194-1.117,3.859,3.859,0,0,0-.292-1.069,5.133,5.133,0,0,1-.292-.923,5.791,5.791,0,0,1-.389-.972,9.2,9.2,0,0,0-.437-1.02c-.194-.34-.34-.68-.534-1.02-.243-.292-.34-.68-.583-.972a.73.73,0,0,0-.437-.34.585.585,0,0,0-.194-.583,5.433,5.433,0,0,1-.826-1.02,4.5,4.5,0,0,0-1.749-1.02,8.462,8.462,0,0,0-2.235-.632,5.675,5.675,0,0,0-1.8-.194A.4.4,0,0,1,194.676,94.642Z"/><path d="M201.721,104.5c0-.534-.777-.34-.972-.049-.34.34-.583.875-1.02,1.166-.632.486-1.506.534-2.138,1.02-.389.389-.632.875-1.117,1.069a2.954,2.954,0,0,0-1.312,1.117c-.1.389-.389.923.049,1.263.534.194,0,.68.049,1.02a.964.964,0,0,0,1.215.243,4.153,4.153,0,0,0,1.36-1.069,5.436,5.436,0,0,1,1.7-1.458,2.359,2.359,0,0,0,1.117-.729c.34-.243.049-.777.534-.875.437-.146.68-.583.972-.923.243-.389-.194-.777-.146-1.215a1.637,1.637,0,0,0-.292-.583Z" fill="#69737c"/><path d="M209.4,147.21h-2.721c-.437-.194-.777-.923-1.312-.632-.486.194-.972.437-1.458.68a4.441,4.441,0,0,0-1.166.972c-.049.292-.875.632-.194.632.632.049.972-.583,1.555-.68a4.918,4.918,0,0,1,1.458-.1,5.334,5.334,0,0,0,1.263.1,13.653,13.653,0,0,1,1.409.049c.68.049-.243.486-.486.583a9.692,9.692,0,0,1-1.7.437,3.8,3.8,0,0,0-1.652.243,9.079,9.079,0,0,0-1.506.826c-.243.146-.923.486-.292.486A3.423,3.423,0,0,0,204,150.61a14.785,14.785,0,0,1,2.526-.632,16.4,16.4,0,0,1,1.652-.486c.34,0,1.263-.146.972.437a3.238,3.238,0,0,1-1.36.923c-.437.243-.826.632-1.312.632-.389-.146-1.215.146-.632.583.292.534.972.194,1.36-.049.486-.243.923-.437,1.409-.632.534-.194,1.117-.437,1.652-.68.437-.292.972-.389,1.409-.68.486-.292,1.069-.486,1.263-1.069a1.385,1.385,0,0,1,.923-.874c.486-.146,1.02-.049,1.506-.146.583,0,.389-1.02-.1-1.02-.437-.292-.826-.632-1.312-.923a4.053,4.053,0,0,0-1.7-.292,1.5,1.5,0,0,0-1.117.729c-.292.34-.389.972-.972.826a.869.869,0,0,1-.777-.049Z" fill="#66452b" stroke="#000" stroke-miterlimit="1.943" stroke-width="0.354"/><path d="M196.182,150.562a8,8,0,0,1,1.166-2.526c1.36-1.312,5.2-2.283,5.2-2.283-1.652.632-3.6.146-5.2.632a19.346,19.346,0,0,0-3.6,2.089,12.864,12.864,0,0,1,1.506-2.526c1.895-2.089,4.956-2.332,7.239-1.992l2.624.389s.437.292.243.68c-.389.826-1.652,1.312-2.478,1.7C200.555,147.841,197.64,148.764,196.182,150.562Z" fill="#66452b" stroke="#000" stroke-miterlimit="1.943" stroke-width="0.354"/><path d="M204.15,143.906c-2.089,1.409-6.947,3.935-6.753,4.081a38.008,38.008,0,0,0,6.024-1.846c.632-.34,1.555-.534,1.8-1.263a1.022,1.022,0,0,0-.389-1.069A.827.827,0,0,0,204.15,143.906Z" fill="#69737c" stroke="#000" stroke-miterlimit="1.943" stroke-width="0.354"/><path d="M214.158,132.926c-.486-.049-.583.923-.583,1.409,0,.34,0,.972.34,1.02.437.049.583-.777.583-1.215.049-.437.049-1.215-.34-1.215Z" fill="#69737c"/><path d="M212.021,146.675c0-.389-.486-.194-.729-.1a4.688,4.688,0,0,0-1.409.68c-.34.243-.729.389-1.069.632-.68.34-1.36.777-2.041,1.117a3.008,3.008,0,0,1-.923.34c-.243.049-.146.194.049.194a2.98,2.98,0,0,0,1.458-.1,15.445,15.445,0,0,0,1.6-.486,11.678,11.678,0,0,1,1.117-.534,8.884,8.884,0,0,1,1.215-.389c.486-.243.292-.583.777-.583a.3.3,0,0,0,.049-.583.252.252,0,0,1-.1-.194Z" fill="#69737c" stroke="#000" stroke-miterlimit="1.943" stroke-width="0.354"/><path d="M207.259,151.1c.389-.1.777-.1,1.117-.194a6.929,6.929,0,0,0,1.312-.437c.194-.1.437-.194.632-.292a2.967,2.967,0,0,0,.875-1.02c.146-.34.34-.632.486-.972.1-.243-.243-.389-.389-.194a4.021,4.021,0,0,1-.729.534,8.1,8.1,0,0,0-.777.583c-.292.34-.389.729-.729,1.02a1.745,1.745,0,0,1-.486.34c-.389.194-.826.34-1.215.534l-.1.1Z" fill="#69737c" stroke="#000" stroke-miterlimit="1.943" stroke-width="0.354"/><path d="M212.312,123.743a1.638,1.638,0,0,1,.243.826c.049.34.146.68.194,1.02,0,.34-.389.583-.437.923a3.677,3.677,0,0,1-.049.729c-.1.389.049.777-.1,1.166-.194.34-.68.1-1.02.194-.292.049-.68.1-.874-.243-.292-.292-.486-.583-.826-.875a5.637,5.637,0,0,1-.972-1.166,10.4,10.4,0,0,0-.632-.923,2.885,2.885,0,0,0-.194-.389" fill="none" stroke="#000" stroke-miterlimit="1.943" stroke-width="0.354"/><path d="M208.814,126.95a5.88,5.88,0,0,1-.923.049h-.923c-.243-.1-.68-.1-.874-.243a2.184,2.184,0,0,1-.583-.292c-.146-.1-.292,0-.534,0a4.905,4.905,0,0,0-.632-.777,1.258,1.258,0,0,1-.534-.34c-.194-.049-.34-.34-.389-.437-.146-.146-.194-.389-.34-.583s-.194-.389-.34-.583c-.049-.049,0-.1,0-.146" fill="none" stroke="#000" stroke-miterlimit="1.943" stroke-width="0.354"/><path d="M204.976,126.464c-.049.437-.583,0-.777-.049a2.1,2.1,0,0,0-.583-.243c-.146-.1-.389-.194-.534-.292a2.3,2.3,0,0,1-.583-.34c-.292-.049-.486-.34-.729-.389a4.639,4.639,0,0,0-.777-.583,3.623,3.623,0,0,1-.826-.68,1.2,1.2,0,0,1-.486-.777,1.818,1.818,0,0,0-.243-.875c.049-.146-.1-.243-.049-.389" fill="none" stroke="#000" stroke-miterlimit="1.943" stroke-width="0.354"/><path d="M225.576,126.707a2.273,2.273,0,0,0,.826-.1,4.115,4.115,0,0,0,.826-.194c.292-.146.534-.389.875-.389a1.522,1.522,0,0,0,.923-.1.687.687,0,0,1,.68-.292,2.273,2.273,0,0,1,.826.1c.243.1.534.146.777.243a3.873,3.873,0,0,0,.777.389c.243.146-.194.34-.243.437-.243.1-.583,0-.826.194a1.545,1.545,0,0,0-.583.534c-.146.292-.486.194-.729.292-.243.049-.486,0-.777.049-.194,0-.437.1-.632,0a2.467,2.467,0,0,0-.826-.146c-.243-.146-.389-.389-.68-.437a7.155,7.155,0,0,1-1.069-.486c-.049.049-.1,0-.146-.1Z" fill="#bca76b"/><path d="M190.692,101.735a8.311,8.311,0,0,0-1.895.146,7.426,7.426,0,0,1-1.8.049,6.52,6.52,0,0,0-1.943.049c-.972.146-1.846.534-2.818.68-1.312.1-2.624,0-3.935.049-.923.1.1-1.117.632-1.069a21.584,21.584,0,0,1,3.6-.875c.923-.146,1.8-.437,2.721-.583.729-.194,1.506-.389,2.235-.583a6.114,6.114,0,0,1,2.283-.146,12.983,12.983,0,0,0,2.332-.729c.68-.34,1.506-.1,2.186-.534.389-.583,1.166-.583,1.846-.534a2.945,2.945,0,0,1,1.895,1.02c.534.729-1.069.632-.583,1.409a1.785,1.785,0,0,1-1.215.34c-.389,0-.729.1-1.069-.146a10.839,10.839,0,0,1-1.6-.972c-.583-.1-.583.923-1.312.826a9.125,9.125,0,0,1-2.818.292,5.523,5.523,0,0,1,1.7.826c.146.292-.194.437-.437.486Z" stroke="#000" stroke-miterlimit="1.943" stroke-width="0.236"/><path d="M194.482,99.111l.583-.292.34-.534s.534.777.292,1.02c-.292.34-1.215-.194-1.215-.194Z" fill="#fff"/><path d="M196.085,97.7c.146-.1-.486-.486-.049-.583.486-.583,1.263-.1,1.8.1a5.892,5.892,0,0,1,2.964,1.7c1.02,1.215,1.263,2.866,2.089,4.178a14.322,14.322,0,0,1,.826,1.992c.194.534,1.02,1.117.583,1.7-.534.292-1.02-.1-1.506-.243-.632-.049-.34.68.1.729.486.194.632.923-.049.875-.632-.1-1.263-.146-1.895-.243-.486-.292.146-.777.389-.923.389-.243.874-.534.777-1.02,0-.923-.632-1.652-.777-2.575a8.283,8.283,0,0,0-.632-1.943,4.153,4.153,0,0,0-2.866-2.866,18.643,18.643,0,0,1-1.7-.875c-.049.049-.049,0-.049,0Z" fill="#fff"/><path d="M200.846,98.383c.194.1.389.243.583.34.146.146.486.68.632.875a1.85,1.85,0,0,1,.146.486,2.9,2.9,0,0,0,.292.534l.292.729a1.506,1.506,0,0,1,.292.632,2.739,2.739,0,0,0,.194.583c.1.146.146.437-.1.486a1.008,1.008,0,0,1-.486-.292,8.243,8.243,0,0,1-.486-.68,2.03,2.03,0,0,1-.194-.486,3.141,3.141,0,0,1-.194-.632c-.1-.194-.146-.389-.243-.583a2.871,2.871,0,0,1-.292-.68c-.1-.243-.534-.875-.437-1.166a.091.091,0,0,1,0-.146Z" fill="#bca76b"/><path d="M196.571,96.828a.653.653,0,0,1-.34-.292c-.1-.049-.34-.146-.389-.243-.292.1-.049-.194-.194-.146-.049-.1-.049-.194-.146-.292l-.292-.292c0-.049-.1-.146,0-.146a1.345,1.345,0,0,1,.437.049c.146-.049.243.1.389.049h.632c.1-.049.1.1.194.049.049,0,.1.1.194.049.146,0,.194.194.292.292a.367.367,0,0,1,.194.34c.049.049.049.194.049.146s0,.146-.049.146c-.1.1-.243.1-.34.194-.146,0-.243.146-.389.1Z" fill="#bca76b"/><path d="M196.182,96.536a1.085,1.085,0,0,1-.68.146,1.7,1.7,0,0,0-.389.243,1.544,1.544,0,0,1-.437.146c-.146-.049-.194-.146-.34-.146-.1-.049-.1-.194-.194-.243a.977.977,0,0,0-.389-.194c-.1-.049-.1-.194-.1-.292a.827.827,0,0,1,.049-.34c0-.146.146-.194.243-.194h.777c.146-.049.292-.146.389-.1.146.049.194.194.34.292a5,5,0,0,1,.729.68Z" fill="#fff"/><path d="M197.348,95.953a1.741,1.741,0,0,1,.534-.194,2.067,2.067,0,0,1,.534.1,2.739,2.739,0,0,1,.583.194c.194.049.389.194.583.243.194.1.34.194.534.292.146.1.34.194.486.292.146.146.34.243.437.437.1.146,0,.389-.146.243a1.8,1.8,0,0,0-.534-.243,1.426,1.426,0,0,1-.486-.146c-.194-.049-.34-.146-.534-.194l-.729-.292c-.1-.1-.243-.1-.34-.146-.194-.1-.437-.194-.68-.34-.146-.049-.292-.146-.243-.243Z" fill="#fff"/><path d="M200.02,99.792c-.729-.049-1.458.292-2.186.049-.534-.049-.972.34-1.458.534-.583-.049-.729.826-1.263.777-.437-.049-1.02-.389-1.409-.243a14.662,14.662,0,0,1,2.721,1.458,4.009,4.009,0,0,0,1.555.972c.389.194.875.583.68,1.069-.194.583-1.02.68-1.069,1.312-.1.583-.729.826-.923,1.312-.243.389-.729.632-.777,1.117.146.632.826.146.826-.292.1-.389.437-1.02.923-.729.389.583.874-.389,1.36-.146.243.34.729.486.972.049.34-.146.826-.34.534-.777,0-.486.583-.437.826-.729.389-.146.777-.632.34-.972-.34-.486.049-1.215-.437-1.7-.34-.534,0-1.215-.292-1.749-.243-.437-.437-1.117-.923-1.312Z"/><path d="M219.6,119.614c-.826,0-1.506.632-2.332.68-1.02.146.243.583.583.826a10.145,10.145,0,0,0,2.624,1.02,4.628,4.628,0,0,0,2.672.486c.826-.194.243-1.02,0-1.506a11.165,11.165,0,0,0-1.992-1.7,1.046,1.046,0,0,0-1.555.194Z" fill="#69737c"/><path d="M219.017,121.411a2.839,2.839,0,0,1-.923.1,1.632,1.632,0,0,1-1.069-.1,2.836,2.836,0,0,1-1.069-.389c-.243-.194-.583-.243-.777-.534s.243-.34.437-.389a2.374,2.374,0,0,1,1.166-.049c.389.194.874.34,1.263.534a2.988,2.988,0,0,1,.923.583.987.987,0,0,1,.049.243Z" fill="#fff"/><path d="M223.146,121.12c.049.34-.583,0-.777.146a2.718,2.718,0,0,1-1.215-.243,10.12,10.12,0,0,0-1.895-.729c-.292-.1-.923-.389-.486-.729a2.446,2.446,0,0,1,1.263-.534c.486-.049.875.292,1.312.437a4.737,4.737,0,0,1,1.263.729,1.289,1.289,0,0,1,.534.923Z" fill="#fff"/><path d="M211.826,117.087a4.075,4.075,0,0,1-1.992.534c-.632.243-1.7-.34-1.943.486-.292.68.534.972.923,1.263a9.418,9.418,0,0,0,4.178.777c.389,0,1.6-.146.972-.632a9.713,9.713,0,0,1-1.8-1.943,4.206,4.206,0,0,1-.34-.486Z" fill="#69737c"/><path d="M218.968,117.573a5.31,5.31,0,0,1-.826-.243c-.389-.146-.68-.389-1.069-.534-.486-.292-.972-.583-1.458-.826-.243-.1-.194-.34.049-.34.292,0,.34-.437.632-.146a3.182,3.182,0,0,1,.874.729c.292.243.583.583.972.632.34.194.777.34.826.729Z" fill="#69737c"/><path d="M218,118.885a4.237,4.237,0,0,1-1.895.1,6.929,6.929,0,0,1-1.312-.437,5.537,5.537,0,0,1-1.458-.875.559.559,0,0,1,.583-.875c.292-.1.194-.826.68-.486a9.064,9.064,0,0,1,1.895,1.069c.34.34.729.632,1.069.972C217.7,118.5,218,118.885,218,118.885Z" fill="#69737c"/><path d="M208.377,109.8a4.353,4.353,0,0,1,2.381,1.36c.777.923-.729,1.409-1.409.923A22.3,22.3,0,0,0,206,110.674c-1.117.146.486.777.826,1.117a1.853,1.853,0,0,1,.923,1.409c-.729.583-1.7-.049-2.526-.1-.875-.1-1.409-.875-1.943-1.506a1.176,1.176,0,0,0-1.409-.437c0,.729.534.923.875,1.555.292.389,1.506,1.36.34,1.36a3.444,3.444,0,0,1-2.041-1.555c-.486-.534-.923-1.6.146-1.749a5.974,5.974,0,0,1,3.012-.826,16.267,16.267,0,0,0,3.449-.243C207.794,109.8,208.523,109.411,208.377,109.8Z" fill="#69737c"/><path d="M199.632,110.48a1.446,1.446,0,0,0-.243.729,5.28,5.28,0,0,0,.049.875c.1.243.146.486.243.729a2.378,2.378,0,0,0,.583.632,2.615,2.615,0,0,0,.583.437c.194.1.34.146.534.243a2.785,2.785,0,0,0,.68.194.438.438,0,0,0,.534-.194c.243-.146.049-.292-.146-.34a1.258,1.258,0,0,1-.534-.34,2.284,2.284,0,0,1-.437-.583,1.819,1.819,0,0,0-.34-.583,4.248,4.248,0,0,1-.389-.486,3.051,3.051,0,0,1-.534-.583,2.546,2.546,0,0,0-.486-.534c-.049-.1-.1-.146-.1-.194Z" fill="#fff"/><path d="M207.211,113.444a13.316,13.316,0,0,1-1.8-.389,3.673,3.673,0,0,1-1.652-1.166,12.208,12.208,0,0,0-1.506-1.263c-.583-.194-.826.632-.437,1.02a16.311,16.311,0,0,0,1.166,1.409,6.255,6.255,0,0,0,1.458,1.069,4.7,4.7,0,0,0,2.283.583,1.266,1.266,0,0,0,1.117-.826C207.842,113.541,207.454,113.492,207.211,113.444Z" fill="#fff"/><path d="M205.559,117.33a1.338,1.338,0,0,1-1.215-.194,2.856,2.856,0,0,1-.826-.875,2.549,2.549,0,0,0-1.069-.826c-.389-.1-.874.146-.729.583a1.686,1.686,0,0,0,.583.923,5.668,5.668,0,0,0,1.506.826,1.779,1.779,0,0,0,.875.194c.292,0,.777.1.874-.292,0-.1,0-.243,0-.34Z" fill="#fff"/><path d="M209.786,116.067a.749.749,0,0,1,.389.972,1.271,1.271,0,0,1-1.215.534,4.694,4.694,0,0,1-1.166-.049c-.437-.146-.826-.34-1.263-.534-.437-.146-.486-.68-.777-.972-.194-.34.437-.486.68-.389.437.146.68.534,1.117.68a2.939,2.939,0,0,0,1.02.389c.34.1.729.146.923-.194a1.148,1.148,0,0,1,.292-.437Z" fill="#fff"/><path d="M213.43,115.144a.646.646,0,0,1-.34,1.02,2.16,2.16,0,0,1-1.117.049,5.124,5.124,0,0,1-1.458-.729c-.292-.243-.729-.292-.923-.632-.146-.437.34-.777.777-.632a7.4,7.4,0,0,1,1.749.583,3.485,3.485,0,0,0,1.215.34Z" fill="#fff"/><path d="M214.644,111.014a28.176,28.176,0,0,1,5.15,5.053c1.117,1.36,1.8,3.158,3.5,3.984,2.332,2.478,12.34,5.393,12.34,6.17-2.283-.923-3.3,2.186-5.539,1.7-2.089.583-3.79-.777-5.587-1.506-2.721-.1-5.49.049-7.919,1.409-1.312.729-2.866-.389-3.935-.049l-.1.243-.146.146m-12.729-4.81c-1.6-.777-2.769-2.283-4.275-3.207-1.166-1.6-2.624-3.255-2.575-5.393-.194-2.186-.777-5.247.292-7.336-.729-1.652-1.8-2.089-2.624-3.692-.583-2.235-2.866-3.5-1.506-5.247,1.506-1.36,2.575-2.915,4.518-3.644a8.559,8.559,0,0,1,4.81.34c1.992.243,3.109,1.943,4.178,3.449a17.953,17.953,0,0,1,2.526,6.607c.923,1.943,3.4,2.332,5.2,3.158a16.2,16.2,0,0,1,4.421,2.575" fill="none" stroke="#000" stroke-miterlimit="1.943" stroke-width="0.354"/></g></g></svg>