<svg xmlns="http://www.w3.org/2000/svg" width="512" height="335.449" viewBox="0 0 512 335.449"><g transform="translate(0 -88.276)"><path d="M503.172,423.725H8.828A8.829,8.829,0,0,1,0,414.9V97.1a8.829,8.829,0,0,1,8.828-8.828H503.173A8.829,8.829,0,0,1,512,97.1V414.9A8.83,8.83,0,0,1,503.172,423.725Z" fill="#ff4b55"/><path d="M8.828,88.277H247.173A8.829,8.829,0,0,1,256,97.105V247.174A8.829,8.829,0,0,1,247.173,256H8.828A8.83,8.83,0,0,1,0,247.173V97.1A8.828,8.828,0,0,1,8.828,88.277Z" fill="#41479b"/><path d="M125.766,197.6l-4.053,12.151-12.809.1a1.726,1.726,0,0,0-1.012,3.114l10.3,7.609-3.863,12.212a1.726,1.726,0,0,0,2.649,1.924l10.421-7.448,10.421,7.448a1.726,1.726,0,0,0,2.649-1.924L136.61,220.57l10.3-7.609a1.726,1.726,0,0,0-1.012-3.114l-12.809-.1L129.04,197.6A1.725,1.725,0,0,0,125.766,197.6Z" fill="#f5f5f5"/><path d="M126.079,102.853l-3.278,9.83-10.361.081a1.4,1.4,0,0,0-.819,2.519l8.335,6.155-3.125,9.879a1.4,1.4,0,0,0,2.143,1.557l8.429-6.025,8.429,6.025a1.4,1.4,0,0,0,2.143-1.557l-3.125-9.879,8.335-6.155a1.4,1.4,0,0,0-.819-2.519l-10.361-.081-3.278-9.83A1.4,1.4,0,0,0,126.079,102.853Z" fill="#f5f5f5"/><path d="M178.493,132.1l-3.278,9.83-10.361.081a1.4,1.4,0,0,0-.819,2.519l8.335,6.155-3.125,9.879a1.4,1.4,0,0,0,2.143,1.557l8.429-6.025,8.429,6.025a1.4,1.4,0,0,0,2.143-1.557l-3.125-9.879,8.335-6.155a1.4,1.4,0,0,0-.819-2.519l-10.361-.081-3.278-9.83A1.4,1.4,0,0,0,178.493,132.1Z" fill="#f5f5f5"/><path d="M74.769,143.681l-3.278,9.83-10.361.081a1.4,1.4,0,0,0-.819,2.519l8.335,6.155-3.125,9.879a1.4,1.4,0,0,0,2.143,1.557l8.429-6.025,8.429,6.025a1.4,1.4,0,0,0,2.143-1.557l-3.125-9.879,8.335-6.155a1.4,1.4,0,0,0-.819-2.519l-10.361-.081-3.278-9.83A1.4,1.4,0,0,0,74.769,143.681Z" fill="#f5f5f5"/><path d="M155.9,175.769l-1.841,5.518-5.816.045a.784.784,0,0,0-.459,1.415l4.679,3.455-1.754,5.546a.784.784,0,0,0,1.2.874l4.732-3.382,4.732,3.382a.784.784,0,0,0,1.2-.874l-1.754-5.546,4.679-3.455a.784.784,0,0,0-.459-1.415l-5.816-.045-1.841-5.518A.784.784,0,0,0,155.9,175.769Z" fill="#f5f5f5"/></g></svg>