<svg xmlns="http://www.w3.org/2000/svg" width="512" height="335.45" viewBox="0 0 512 335.45"><g transform="translate(0 -88.275)"><path d="M512,256H0V97.1a8.829,8.829,0,0,1,8.828-8.828H503.173A8.829,8.829,0,0,1,512,97.1V256Z" fill="#f5f5f5"/><path d="M0,256H512V414.9a8.829,8.829,0,0,1-8.828,8.828H8.828A8.829,8.829,0,0,1,0,414.9Z" fill="#82afff"/><path d="M256.82,327.98c-1.495-.065-36.791-1.87-54.505-26.14-10.324-14.142-12.384-32.952-6.123-55.907l2.529.69c-6.038,22.143-4.12,40.195,5.7,53.662,16.958,23.249,52.154,25.06,52.51,25.075Z" fill="#b46446"/><path d="M196.167,235.756a15.28,15.28,0,0,0,.672,12.878,15.859,15.859,0,0,0,8.446-22A15.272,15.272,0,0,0,196.167,235.756Z" fill="#41aa5a"/><path d="M218.275,298.424a14.269,14.269,0,0,0,6.283,19.786,14.269,14.269,0,0,0-19.45,7.25,14.332,14.332,0,0,0,20.128-6.941l0,0a14.326,14.326,0,0,0-6.957-20.093Z" fill="#41aa5a"/><path d="M210.717,286.856a14.268,14.268,0,0,0-1.548,20.7,14.265,14.265,0,0,0-20.749-.525,14.329,14.329,0,0,0,21.263,1.064l0,0a14.326,14.326,0,0,0,1.036-21.238Z" fill="#41aa5a"/><path d="M207.448,273.814A14.266,14.266,0,0,0,198.2,292.4a14.267,14.267,0,0,0-19.017-8.318,14.329,14.329,0,0,0,19.288,9.011l0,0a14.328,14.328,0,0,0,8.977-19.274Z" fill="#41aa5a"/><path d="M209.3,260.872a14.267,14.267,0,0,0-15.143,14.2,14.267,14.267,0,0,0-14.928-14.422,14.329,14.329,0,0,0,14.941,15.167v-.006a14.326,14.326,0,0,0,15.13-14.939Z" fill="#41aa5a"/><path d="M211.924,248.554a14.265,14.265,0,0,0-17.283,11.5,14.266,14.266,0,0,0-12.335-16.693,14.329,14.329,0,0,0,12.225,17.43v0a14.328,14.328,0,0,0,17.393-12.233Z" fill="#41aa5a"/><circle cx="2.731" cy="2.731" r="2.731" transform="translate(210.239 313.779)" fill="#ffe15a"/><circle cx="2.731" cy="2.731" r="2.731" transform="translate(222.789 315.309)" fill="#ffe15a"/><circle cx="2.731" cy="2.731" r="2.731" transform="translate(203.029 293.139)" fill="#ffe15a"/><circle cx="2.731" cy="2.731" r="2.731" transform="translate(185.659 272.599)" fill="#ffe15a"/><circle cx="2.731" cy="2.731" r="2.731" transform="translate(197.789 258.699)" fill="#ffe15a"/><circle cx="2.731" cy="2.731" r="2.731" transform="translate(193.189 244.439)" fill="#ffe15a"/><path d="M256.932,327.98l-.115-2.622c.355-.013,35.552-1.826,52.51-25.075,9.824-13.465,11.742-31.519,5.7-53.662l2.529-.69c6.26,22.955,4.2,41.766-6.123,55.907C293.724,326.11,258.428,327.916,256.932,327.98Z" fill="#b46446"/><path d="M317.586,235.756a15.28,15.28,0,0,1-.672,12.878,15.859,15.859,0,0,1-8.446-22A15.277,15.277,0,0,1,317.586,235.756Z" fill="#41aa5a"/><path d="M295.476,298.424a14.269,14.269,0,0,1-6.283,19.786,14.269,14.269,0,0,1,19.45,7.25,14.332,14.332,0,0,1-20.128-6.941h0a14.33,14.33,0,0,1,6.958-20.094Z" fill="#41aa5a"/><path d="M303.036,286.856a14.268,14.268,0,0,1,1.548,20.7,14.265,14.265,0,0,1,20.749-.525,14.33,14.33,0,0,1-21.264,1.064l0,0a14.325,14.325,0,0,1-1.035-21.238Z" fill="#41aa5a"/><path d="M306.3,273.814A14.266,14.266,0,0,1,315.55,292.4a14.267,14.267,0,0,1,19.017-8.318,14.329,14.329,0,0,1-19.288,9.011l0,0a14.328,14.328,0,0,1-8.977-19.274Z" fill="#41aa5a"/><path d="M304.45,260.872a14.267,14.267,0,0,1,15.143,14.2,14.267,14.267,0,0,1,14.928-14.422,14.329,14.329,0,0,1-14.941,15.167v-.006a14.326,14.326,0,0,1-15.13-14.939Z" fill="#41aa5a"/><path d="M301.828,248.554a14.265,14.265,0,0,1,17.283,11.5,14.266,14.266,0,0,1,12.335-16.693,14.329,14.329,0,0,1-12.225,17.43v0a14.328,14.328,0,0,1-17.393-12.233Z" fill="#41aa5a"/><circle cx="2.731" cy="2.731" r="2.731" transform="translate(298.059 313.779)" fill="#ffe15a"/><circle cx="2.731" cy="2.731" r="2.731" transform="translate(285.489 315.309)" fill="#ffe15a"/><circle cx="2.731" cy="2.731" r="2.731" transform="translate(305.259 293.139)" fill="#ffe15a"/><circle cx="2.731" cy="2.731" r="2.731" transform="translate(322.629 272.599)" fill="#ffe15a"/><circle cx="2.731" cy="2.731" r="2.731" transform="translate(310.509 258.699)" fill="#ffe15a"/><circle cx="2.731" cy="2.731" r="2.731" transform="translate(315.109 244.439)" fill="#ffe15a"/><path d="M272.247,236.244H240.922A17.654,17.654,0,0,0,223.267,253.9v27.595a17.654,17.654,0,0,0,17.655,17.655h31.325A17.654,17.654,0,0,0,289.9,281.494V253.9A17.654,17.654,0,0,0,272.247,236.244Z" fill="#8cd7ff"/><path d="M261.753,260.259v3.5h-3.494v-3.5h-2.692v3.5h-3.495v-3.5h-2.186v6.991l1.748,2.214v25.748h10.485V269.464l1.747-2.214v-6.991Z" fill="#f5f5f5"/><path d="M257.386,249.191c1.729-.838,2.185,2.7,2.185,2.7,3.641-1.821,2.691-4.776,1.821-6.189-1.165-1.894-5.825-2.622-7.791,1.311s3.35,11.724,3.35,11.724C257.24,256.328,255.128,250.284,257.386,249.191Z" fill="#f5f5f5"/><path d="M279.722,266.776v3.5h-3.5v-3.5h-2.691v3.5h-3.5v-3.5h-2.186v6.992l1.748,2.213v25.748h10.486V275.981l1.747-2.213v-6.992Z" fill="#f5f5f5"/><path d="M275.353,255.708c1.729-.838,2.185,2.695,2.185,2.695,3.641-1.821,2.691-4.776,1.821-6.189-1.165-1.894-5.825-2.622-7.791,1.311s3.35,11.724,3.35,11.724C275.208,262.845,273.1,256.8,275.353,255.708Z" fill="#f5f5f5"/><path d="M243.786,266.776v3.5h-3.5v-3.5H237.6v3.5H234.1v-3.5h-2.187v6.992l1.748,2.213v25.748h10.486V275.981l1.748-2.213v-6.992Z" fill="#f5f5f5"/><path d="M239.417,255.708c1.729-.838,2.185,2.695,2.185,2.695,3.641-1.821,2.691-4.776,1.821-6.189-1.165-1.894-5.825-2.622-7.791,1.311s3.35,11.724,3.35,11.724C239.273,262.845,237.161,256.8,239.417,255.708Z" fill="#f5f5f5"/><path d="M285.554,297.076a16.847,16.847,0,0,0-15.9.266,17.321,17.321,0,0,0-25.552,0,16.847,16.847,0,0,0-15.9-.266c4.99,9.152,14.546,23.941,28.678,29.593C271.008,321.017,280.564,306.228,285.554,297.076Z" fill="#6ec86e"/><path d="M256.718,179.947l.158-.078A.642.642,0,0,0,256.718,179.947Z" fill="#ffe15a"/><path d="M256.876,179.869l.158.078A.661.661,0,0,0,256.876,179.869Z" fill="#ffe15a"/><path d="M290.409,194.833c-.983-5.679-8.3-6.663-16.712-7.209s-12.015-5.352-12.015-5.352H252.07s-3.6,4.806-12.015,5.352-15.729,1.529-16.712,7.209,6.226,14.636,6.226,14.636l6.335-5.133s-7.755-7.427-3.933-10.158c3.775-2.7,14.782-.829,19.684-7.3a9.377,9.377,0,0,0,.7,5.081,20.848,20.848,0,0,1,1.02,8.884h6.992a20.83,20.83,0,0,1,1.02-8.884,9.36,9.36,0,0,0,.7-5.081c4.9,6.474,15.91,4.606,19.684,7.3,3.823,2.731-3.933,10.158-3.933,10.158l6.335,5.133S291.392,200.512,290.409,194.833Z" fill="#ffe15a"/><path d="M260.444,162.611h-1.821v-1.966a1.748,1.748,0,1,0-3.5,0v1.966h-1.894a1.748,1.748,0,0,0,0,3.5h1.894v5.024a1.748,1.748,0,1,0,3.5,0v-5.024h1.821a1.748,1.748,0,0,0,0-3.5Z" fill="#ffe15a"/><circle cx="3.496" cy="3.496" r="3.496" transform="translate(253.374 169.384)" fill="#fff0e1"/><path d="M231.827,243.22a10.854,10.854,0,0,0,4.733,1.311c5.791,0,8.629-3.275,8.629-9.066s-3.494-10.158-9.284-10.158a14.021,14.021,0,0,0-1.7.171c-.225.036-.448.07-.668.12-5.567,1.062-19.325,6.191-22.1,31.166-3.879,34.912,24.467,66.41,45.439,73.4v-3.5S207.36,288.8,231.827,243.22Z" fill="#ffc75a"/><path d="M235.9,228.8l20.972,6.991-20.972,6.99Z" fill="#ffc75a"/><path d="M277.847,242.783l-20.971-6.99,20.971-6.991Z" fill="#ffe15a"/><path d="M214.911,257.151c2.5-22.538,14.317-27.172,19.406-28.145.111-.025.225-.042.417-.073a11.964,11.964,0,0,1,1.219-.131,6.228,6.228,0,0,1,6.359,6.408c0,3.854-2.258,5.315-4.514,5.388,0,0,1.821-3.787-1.894-4.806a4.45,4.45,0,0,0-5.388,4.951,5.688,5.688,0,0,0,5.388,5.024c5.791,0,10.486-4.185,10.486-9.976A10.486,10.486,0,0,0,235.9,225.305a14.021,14.021,0,0,0-1.7.171c-.225.036-.448.07-.668.12-5.567,1.062-19.325,6.191-22.1,31.166-3.879,34.912,24.467,66.41,45.439,73.4v-3.5a114.834,114.834,0,0,1-12.505-7.321C228.682,308.2,212.079,282.641,214.911,257.151Z" fill="#ffe15a"/><path d="M281.926,243.22a10.854,10.854,0,0,1-4.733,1.311c-5.791,0-8.629-3.275-8.629-9.066s3.494-10.158,9.284-10.158a14.021,14.021,0,0,1,1.7.171c.225.036.448.07.668.12,5.567,1.062,19.325,6.191,22.1,31.166,3.879,34.912-24.467,66.41-45.439,73.4v-3.5S306.392,288.8,281.926,243.22Z" fill="#ffc75a"/><path d="M277.847,228.8l-20.971,6.991,20.971,6.99Z" fill="#ffc75a"/><path d="M298.84,257.151c-2.5-22.538-14.317-27.172-19.406-28.145-.111-.025-.225-.042-.417-.073a11.964,11.964,0,0,0-1.219-.131,6.228,6.228,0,0,0-6.359,6.408c0,3.854,2.258,5.315,4.514,5.388,0,0-1.821-3.787,1.894-4.806a4.45,4.45,0,0,1,5.388,4.951,5.688,5.688,0,0,1-5.388,5.024c-5.791,0-10.486-4.185-10.486-9.976a10.486,10.486,0,0,1,10.486-10.486,14.021,14.021,0,0,1,1.7.171c.225.036.448.07.668.12,5.567,1.062,19.325,6.191,22.1,31.166,3.879,34.912-24.467,66.41-45.439,73.4v-3.5a114.834,114.834,0,0,0,12.505-7.321C285.07,308.2,301.673,282.641,298.84,257.151Z" fill="#ffe15a"/><circle cx="3.496" cy="3.496" r="3.496" transform="translate(253.374 232.304)" fill="#ffe15a"/><path d="M281.834,207.721c.928-2.4-.328-5.625-.328-5.625a7.877,7.877,0,0,0-5.461,2.239,11.774,11.774,0,0,0-.983-5.516c-4.151.491-5.516,2.95-5.516,2.95-.218-4.533-2.95-6.39-2.95-6.39-3.605,1.092-4.7,5.024-4.7,5.024-.546-4.478-5.024-6.553-5.024-6.553s-4.478,2.076-5.024,6.553c0,0-1.092-3.933-4.7-5.024,0,0-2.731,1.857-2.95,6.39,0,0-1.365-2.457-5.516-2.95a11.774,11.774,0,0,0-.983,5.516,7.877,7.877,0,0,0-5.461-2.239s-1.256,3.222-.328,5.625a9.238,9.238,0,0,0-6.663.6s5.506,2.13,7.341,4.751h48.561c1.834-2.622,7.341-4.751,7.341-4.751A9.235,9.235,0,0,0,281.834,207.721Z" fill="#ffc75a"/><path d="M281.156,213.074c0,1.572-3.674,6.434-3.674,6.434a184.312,184.312,0,0,1-20.606,1.658,180.36,180.36,0,0,1-20.689-1.7s-3.592-4.835-3.592-6.39c0-4.47,10.871-8.094,24.28-8.094S281.156,208.6,281.156,213.074Z" fill="#ffe15a"/><ellipse cx="20.977" cy="6.99" rx="20.977" ry="6.99" transform="translate(235.893 211.33)" fill="#ffc75a"/><path d="M262.009,179.541c0-2.294-1.711-5.207-5.133-3.168-3.423-2.039-5.133.874-5.133,3.168a2.538,2.538,0,0,1-2.95,2.4s2.185,2.84,4.7.983a3.9,3.9,0,0,0,6.773,0c2.513,1.857,4.7-.983,4.7-.983A2.539,2.539,0,0,1,262.009,179.541Z" fill="#ffc75a"/><path d="M249.884,348.952a1.28,1.28,0,0,1-.584-.14,1.308,1.308,0,0,1-.587-1.758l6.99-13.981a1.311,1.311,0,0,1,2.345,1.174l-6.99,13.981A1.314,1.314,0,0,1,249.884,348.952Z" fill="#b46446"/><path d="M263.869,348.952a1.315,1.315,0,0,1-1.174-.724l-6.99-13.981a1.311,1.311,0,0,1,2.345-1.174l6.99,13.981a1.308,1.308,0,0,1-.587,1.758A1.283,1.283,0,0,1,263.869,348.952Z" fill="#b46446"/><path d="M288.333,336.718a144.193,144.193,0,0,1-62.915,0V323.185a144.193,144.193,0,0,0,62.915,0Z" fill="#f5f5f5"/><path d="M242.749,331.624a144.189,144.189,0,0,1-40.727,2.015c.23,1.8,11.017,7.158,11.017,7.158s-9.518,4.6-9.306,6.266a144.21,144.21,0,0,0,39.016-1.677V331.624Z" fill="#f5f5f5"/><path d="M271.054,331.624a144.189,144.189,0,0,0,40.727,2.015c-.23,1.8-11.017,7.158-11.017,7.158s9.518,4.6,9.306,6.266a144.209,144.209,0,0,1-39.016-1.677V331.624Z" fill="#f5f5f5"/></g></svg>