<svg xmlns="http://www.w3.org/2000/svg" width="512" height="335.448" viewBox="0 0 512 335.448"><g transform="translate(0 -88.276)"><path d="M503.172,423.724H8.828A8.829,8.829,0,0,1,0,414.9V97.1a8.829,8.829,0,0,1,8.828-8.828H503.173A8.829,8.829,0,0,1,512,97.1V414.9A8.83,8.83,0,0,1,503.172,423.724Z" fill="#73af00"/><rect width="512" height="176.55" transform="translate(0 167.72)" fill="#ffe15a"/><path d="M2.666,421.192,176.551,256,2.666,90.809A8.77,8.77,0,0,0,0,97.1V414.9A8.774,8.774,0,0,0,2.666,421.192Z" fill="#ff4b55"/><path d="M278.3,215.767l9.047,27.126,28.594.222a3.853,3.853,0,0,1,2.259,6.953l-23,16.986,8.626,27.263a3.853,3.853,0,0,1-5.914,4.3l-23.263-16.628-23.263,16.628a3.853,3.853,0,0,1-5.914-4.3l8.626-27.263-23-16.986a3.853,3.853,0,0,1,2.259-6.953l28.594-.222,9.047-27.126A3.85,3.85,0,0,1,278.3,215.767Z" fill="#464655"/><path d="M410.3,215.767l9.047,27.126,28.594.222a3.853,3.853,0,0,1,2.259,6.953l-23,16.986,8.626,27.263a3.853,3.853,0,0,1-5.914,4.3l-23.263-16.628-23.263,16.628a3.853,3.853,0,0,1-5.914-4.3l8.626-27.263-23-16.986a3.853,3.853,0,0,1,2.259-6.953l28.594-.222,9.047-27.126A3.85,3.85,0,0,1,410.3,215.767Z" fill="#464655"/></g></svg>