<svg xmlns="http://www.w3.org/2000/svg" width="512" height="335.449" viewBox="0 0 512 335.449"><g transform="translate(0 -88.276)"><path d="M503.172,423.725H8.828A8.829,8.829,0,0,1,0,414.9V97.1a8.829,8.829,0,0,1,8.828-8.828H503.173A8.829,8.829,0,0,1,512,97.1V414.9A8.83,8.83,0,0,1,503.172,423.725Z" fill="#73af00"/><path d="M105.94,202.279c.87,5.577,4.241,7.327,7.172,7.1a7.205,7.205,0,0,0,6.487-6.766V183.473a1.74,1.74,0,1,1,3.48,0v19.22a6.955,6.955,0,0,0,9.544,6.459l1.739-.7c.16,16.065-.817,30.184-.835,30.443a3.479,3.479,0,0,0,3.223,3.718c.085.007.168.01.252.01a3.48,3.48,0,0,0,3.468-3.232c.081-1.131,1.153-16.594.832-33.715l1.052-.42a3.49,3.49,0,0,1,2.845.119,9.941,9.941,0,0,0,11.474-1.863l.627-.626a10.388,10.388,0,0,0,2.52-10.684l-2.963-8.889a3.48,3.48,0,0,0,2.58-6.439l-6.959-3.48a3.479,3.479,0,0,0-4.858,4.213l5.6,16.8a3.464,3.464,0,0,1-.84,3.561l-.626.626a2.988,2.988,0,0,1-3.444.557,10.4,10.4,0,0,0-7.232-.724c-.489-11.169-1.692-22.291-4.254-29.98a3.48,3.48,0,0,0-6.6,2.2c2.507,7.519,3.6,18.978,3.987,30.372l-4.166,1.666V183.47a8.7,8.7,0,1,0-17.4,0v16.845l-3.55-17.535a3.479,3.479,0,1,0-6.82,1.38Z" fill="#f5f5f5"/><path d="M112.64,173.034a3.479,3.479,0,0,0,3.48-3.48v-3.48a3.48,3.48,0,0,0-6.96,0v3.48A3.479,3.479,0,0,0,112.64,173.034Z" fill="#f5f5f5"/><path d="M147.437,169.554h3.48a3.48,3.48,0,1,0,0-6.96h-3.48a3.48,3.48,0,1,0,0,6.96Z" fill="#f5f5f5"/><path d="M124.768,215.287l-17.4,10.44a3.48,3.48,0,1,0,3.582,5.967l17.4-10.44a3.48,3.48,0,1,0-3.582-5.967Z" fill="#f5f5f5"/><path d="M171.682,221.442l.082-.055a7.941,7.941,0,0,0,1.606,3.27,6.836,6.836,0,0,0,5.93,2.3,9.6,9.6,0,0,0,7.239-3.806,6.327,6.327,0,0,0,.734.435,6.587,6.587,0,0,0,6.127-.2c5.259-2.708,6.392-8.974,6.232-12.25a3.559,3.559,0,0,0-3.623-3.3,3.492,3.492,0,0,0-3.33,3.613c0,.044.079,4.173-2.445,5.706a8.472,8.472,0,0,1-1.084-2.933,3.48,3.48,0,0,0-6.913.574c0,.506-.114,4.971-3.561,5.345-.4-.547-.408-2.851-.013-4.554a3.48,3.48,0,0,0-5.343-3.683l-1.942,1.321c-.922-20.18-3.047-43.695-3.073-44a3.48,3.48,0,1,0-6.931.633c.03.322,2.487,27.529,3.245,48.306-.178.169-.361.354-.535.516a8.971,8.971,0,0,0-7.617-5.987,12.7,12.7,0,0,0-12.256,7.755c-1.66,4.146-.615,8.221,2.66,10.378,2.355,1.553,5.909,2.042,10.378.476a29.1,29.1,0,0,1-5.66,10.728c-2.313,2.7-6.175,5.8-11.117,5.665a9.143,9.143,0,0,1-6.758-2.882c-4.029-4.4-3.682-12.366-3.679-12.451a3.48,3.48,0,0,0-3.283-3.657A3.41,3.41,0,0,0,123.085,232c-.024.441-.529,10.909,5.464,17.491a15.959,15.959,0,0,0,11.649,5.169c.233.01.466.013.7.013,5.821,0,11.469-2.855,15.968-8.1a35.993,35.993,0,0,0,7.968-17.836c-.011,11.9-7.185,25.33-16.7,31.245-4.039,2.508-10.336,4.771-17.429,1.274-8.744-4.316-7.7-14.31-7.656-14.718a3.479,3.479,0,0,0-6.905-.863c-.078.622-1.75,15.292,11.482,21.82a23.655,23.655,0,0,0,10.535,2.511,25.75,25.75,0,0,0,13.647-4.115c11.58-7.2,19.985-22.836,19.985-37.183C171.8,226.469,171.753,224.019,171.682,221.442ZM150.7,225.029c-.622-.412-.136-1.726-.031-1.988a5.914,5.914,0,0,1,4.856-3.422,2.589,2.589,0,0,1,.28.013c.445.041,1.626.153,2.134,2.78.054.279.1.564.136.856C154.2,225.546,151.6,225.618,150.7,225.029Z" fill="#f5f5f5"/><path d="M114.4,257.034a3.486,3.486,0,0,0-4.757,1.234,7.146,7.146,0,0,1-.588.825c-.038-.088-.075-.183-.113-.286-1.451-3.871-.418-9.834.1-11.806a3.479,3.479,0,0,0-6.723-1.794c-.253.941-2.392,9.389.1,16.043,1.6,4.255,4.049,5.329,5.826,5.474.158.013.314.02.469.02,3.746,0,6.239-3.775,6.932-4.971A3.473,3.473,0,0,0,114.4,257.034Z" fill="#f5f5f5"/><path d="M178.612,193.912a3.452,3.452,0,0,0,2.147-.744L198.3,179.4a3.358,3.358,0,0,0,.574-.673,8.713,8.713,0,1,0-10-.772L176.46,187.7a3.478,3.478,0,0,0,2.152,6.214Zm15.8-24.358a1.74,1.74,0,1,1-1.74,1.74A1.742,1.742,0,0,1,194.414,169.554Z" fill="#f5f5f5"/><path d="M190.295,190.613a3.474,3.474,0,0,0-4.4,2.2c-.372,1.114-2.055,6.855,1.356,10.262a7.019,7.019,0,0,0,5.2,1.984,15.29,15.29,0,0,0,4.807-.887,3.479,3.479,0,1,0-2.2-6.6,12.061,12.061,0,0,1-2.841.608A6.663,6.663,0,0,1,192.5,195,3.472,3.472,0,0,0,190.295,190.613Z" fill="#f5f5f5"/><path d="M230.121,176.227a3.482,3.482,0,0,0,4.316-2.366l2.03-6.959a3.48,3.48,0,1,0-6.681-1.951l-2.03,6.959A3.479,3.479,0,0,0,230.121,176.227Z" fill="#f5f5f5"/><path d="M209.838,175.82a3.479,3.479,0,1,0,3.513-6.007c-.7-.408-.6-1.56-.579-1.788a2.73,2.73,0,0,1,1.6-2.324,3.481,3.481,0,0,0-2.07-6.647,9.554,9.554,0,0,0-6.443,8.18A8.579,8.579,0,0,0,209.838,175.82Z" fill="#f5f5f5"/><path d="M182.234,232.19a3.48,3.48,0,0,0-.653,6.9c.183.268.652,1.19.652,3.541a3.48,3.48,0,1,0,6.96,0C189.194,232.309,182.518,232.19,182.234,232.19Z" fill="#f5f5f5"/><path d="M241.27,217.781a8.022,8.022,0,0,0,1.309.1c2.734,0,5.5-1.379,8.232-4.115a3.479,3.479,0,0,0-4.92-4.92c-2.081,2.083-3.2,2.127-3.488,2.062-.664-.1-1.266-.962-1.4-1.2a3.479,3.479,0,0,0-6.2,3.153A9.407,9.407,0,0,0,241.27,217.781Z" fill="#f5f5f5"/><path d="M300.419,193.327c-.022-.054-.043-.1-.06-.153a3.48,3.48,0,0,0-6.594,2.226c.271.815,1.822,4.907,5.662,5.423a5.828,5.828,0,0,0,.765.051c2.411,0,4.672-1.56,6.73-4.646a3.48,3.48,0,0,0-5.791-3.859A10.516,10.516,0,0,1,300.419,193.327Z" fill="#f5f5f5"/><path d="M293.588,256.548c0-14.839-.652-28.76-1.558-40.958a176.209,176.209,0,0,1,12.218,24.782,3.48,3.48,0,1,0,6.516-2.446c-4.4-11.742-12.321-25.726-20.124-38.14-1.9-18.745-4.032-30.643-4.069-30.855a3.479,3.479,0,0,0-6.847,1.243c.028.151,1.124,6.28,2.435,16.6-2.674-3.967-5.158-7.546-7.242-10.492l.17.054a3.479,3.479,0,1,0,2.2-6.6l-10.44-3.48a3.46,3.46,0,0,0-3.923,1.265,3.508,3.508,0,0,0-.509,1.066c-2.083-1.54-4.755-2.792-7.263-1.742-1.517.629-3.325,2.212-3.325,6.191,0,3.055,1.165,6.358,2.4,9.858,2.049,5.8,3.332,10.072,1.162,12.108a3.8,3.8,0,0,1-3.566,1.254c-2.146-.544-4.27-3.4-5.685-7.646a3.24,3.24,0,0,0-.278-.483,59.172,59.172,0,0,0-1.062-19.253,3.48,3.48,0,0,0-6.824,1.366c2.272,11.363,1.59,20.633-1.823,24.8a6.247,6.247,0,0,1-5.2,2.358,2,2,0,0,1-1.665-.775c-2.745-3.164-2.734-13.372-1.848-19.615a3.482,3.482,0,0,0-3.446-3.969c-5.987,0-8.257,6.81-10.261,12.818-.878,2.641-2.516,7.551-3.658,8.061-2.106,0-3.468-6.185-3.48-10.443a3.481,3.481,0,0,0-3.48-3.473h-.006a3.475,3.475,0,0,0-3.475,3.476c0,8.026,2.734,17.4,10.44,17.4,5.738,0,8.062-6.253,10.008-12.064.338,4.621,1.382,9.409,3.947,12.366a8.925,8.925,0,0,0,6.924,3.177,13.238,13.238,0,0,0,10.585-4.9,16.008,16.008,0,0,0,1.292-1.92A12.984,12.984,0,0,0,250.12,203a10.027,10.027,0,0,0,2.458.312,11.039,11.039,0,0,0,7.578-3.239,10.33,10.33,0,0,0,1.162-1.4,9.387,9.387,0,0,0,2.571.387,14.081,14.081,0,0,0,7.217-2.216,3.479,3.479,0,0,0-3.737-5.869c-.03.014-2.354,1.35-3.939,1.036,0-3.815-1.376-7.866-2.636-11.435a48.261,48.261,0,0,1-1.8-5.817c.287.242.567.493.818.737a3.477,3.477,0,0,0,4.919,0,3.345,3.345,0,0,0,.505-.761c3.607,4.969,11.026,15.411,18.657,27.448,1.457,14.795,2.735,33.668,2.735,54.368a3.48,3.48,0,0,0,6.96.005Z" fill="#f5f5f5"/><path d="M297.067,179.993a3.48,3.48,0,0,0,6.96,0c0-4.1-3.2-10.711-3.847-12a3.48,3.48,0,1,0-6.225,3.113C295.21,173.621,297.067,178.178,297.067,179.993Z" fill="#f5f5f5"/><path d="M281.234,256.928a3.476,3.476,0,0,0-4.671,1.533,9.975,9.975,0,0,1-1.442,2.066,19.443,19.443,0,0,1,.916-6.436,3.481,3.481,0,0,0-5.788-3.483l-6.959,6.959a3.479,3.479,0,1,0,4.92,4.92l.177-.177a7.194,7.194,0,0,0,1.863,3.657,6.369,6.369,0,0,0,4.521,1.995,6.2,6.2,0,0,0,.957-.078c3.942-.639,6.4-4.985,7.054-6.3A3.475,3.475,0,0,0,281.234,256.928Z" fill="#f5f5f5"/><path d="M279.885,228.927H255.36q.325-1.3.67-2.477c9.78-2.033,15.593-5.19,17.3-9.4a7.779,7.779,0,0,0-1.309-7.809c-2.269-3.059-5.471-4.431-8.8-3.752-4.945,1-9.351,6.33-12.512,14.86-9.823,1.682-16.111,5.208-20.092,8.687-1.412-14.26-6.947-22.731-7.217-23.134a3.479,3.479,0,1,0-5.791,3.859c.063.1,6.375,9.749,6.375,25.908,0,15.883-12.665,27.838-20.878,27.838-3.907,0-5.618-4.644-6.369-8.572,8.042-5.636,15.138-12.158,16.705-18.424,2.121-8.479-.548-14.728-2.314-18.863-.083-.19-.17-.394-.258-.6.075.068.146.139.217.207a3.479,3.479,0,1,0,4.919-4.92c-2.034-2.036-5.984-5.234-9.575-3.731-1.517.629-3.325,2.212-3.325,6.191a14.8,14.8,0,0,0,1.621,5.593c1.567,3.667,3.516,8.231,1.962,14.442-.919,3.676-5.433,8.135-11.39,12.563a3.421,3.421,0,0,0-2.633-1.277h-.006a3.477,3.477,0,0,0-3.475,3.476c0,.626.028,1.295.068,1.982a182.986,182.986,0,0,1-22.388,12.249,3.48,3.48,0,0,0,1.443,6.647,3.435,3.435,0,0,0,1.438-.312,200.448,200.448,0,0,0,20.783-11.128c1.757,5.965,5.48,11.442,12.576,11.442,8.348,0,17.818-6.826,23.283-17.017a20.2,20.2,0,0,0,2.323,3.322c8.759,10.1,25.867,10.215,26.591,10.215a3.479,3.479,0,0,0,.249-6.949,7.45,7.45,0,0,1-4.343-2.11,5.966,5.966,0,0,1-1.139-4.57c.356-4.288,14.189-7.494,26.38-7.683a3.483,3.483,0,0,0,3.226-2.314l3.48-9.786a3.484,3.484,0,0,0-3.275-4.646ZM264.611,212.31a1.263,1.263,0,0,1,.265-.034c.333,0,.858.163,1.558,1.108.132.177.556.781.449,1.047-.4.985-2.8,2.613-7.807,4.088C261.277,214.223,263.43,212.548,264.611,212.31ZM243.6,258.053a21.3,21.3,0,0,1-9.632-5.855c-2.741-3.17-3.753-7.18-3.089-12.254a10.216,10.216,0,0,1,.726-1.475c4.9-.449,17.991,1.482,18.9,5.231-4.038,2.061-7.012,4.959-7.356,9.079A14.669,14.669,0,0,0,243.6,258.053Z" fill="#f5f5f5"/><path d="M317.768,178.892l-3.48-10.44a3.48,3.48,0,0,0-6.764,1.447c2.4,24.012,6.943,70.839,6.943,76.209,0,4.822-8.577,14.316-22.435,21.246a3.48,3.48,0,0,0,3.113,6.225c12.659-6.33,26.282-17.626,26.282-27.471,0-5.141-3.556-42.134-5.593-62.914A3.484,3.484,0,0,0,317.768,178.892Z" fill="#f5f5f5"/><path d="M346.8,210.292a3.48,3.48,0,0,0,5.833-3.32,17.565,17.565,0,0,1-.5-6.755,3.531,3.531,0,0,0,3.617-2.984A3.481,3.481,0,0,0,352.8,193.3a6.285,6.285,0,0,0-5.732,1.933,7.963,7.963,0,0,0-1.753,3.735l-4.03-4.03a3.479,3.479,0,1,0-4.92,4.92Z" fill="#f5f5f5"/><path d="M354.631,213.921l-13.049,9.352a3.479,3.479,0,1,0,4.055,5.655l13.049-9.352a3.479,3.479,0,1,0-4.055-5.655Z" fill="#f5f5f5"/><path d="M353.475,227.007a3.48,3.48,0,0,0,.3,4.615c.149.252.828,1.583.7,5.009a3.479,3.479,0,0,0,3.354,3.6c.042,0,.085,0,.126,0a3.48,3.48,0,0,0,3.476-3.354c.253-7.1-2.071-9.7-3.082-10.484A3.478,3.478,0,0,0,353.475,227.007Z" fill="#f5f5f5"/><path d="M383.843,252.633a3.479,3.479,0,0,0,3.48-3.48c0-5.134-.264-10.866-.7-16.829a126.983,126.983,0,0,1,8.155,15.154,3.473,3.473,0,0,0,3.2,2.11,3.426,3.426,0,0,0,1.369-.282,3.478,3.478,0,0,0,1.826-4.567c-3.186-7.435-9.14-17.283-15.921-27.45-1.365-12.772-3.148-25.287-4.534-34.264a3.361,3.361,0,0,0,2.173-.541,3.433,3.433,0,0,0,1.54-3.144,3.4,3.4,0,0,0,.385,1,12.654,12.654,0,0,1,1.268,8.52,3.48,3.48,0,0,0,2.7,4.111,3.666,3.666,0,0,0,.708.072,3.485,3.485,0,0,0,3.4-2.776,19.722,19.722,0,0,0-2.212-13.664,3.49,3.49,0,0,0-4.806-1.067,3.444,3.444,0,0,0-1.554,3.147,3.371,3.371,0,0,0-.392-1.005l-5.873-9.134a3.48,3.48,0,0,0-6.355,2.484c.049.274,2.708,15.544,5.065,33.949-2.668-3.767-5.335-7.45-7.922-10.966-.42-5.265-.842-10.132-1.207-14.157a3.525,3.525,0,0,0,.566-.224,3.479,3.479,0,0,0,1.556-4.669L366.29,168a3.48,3.48,0,0,0-6.575,1.9c.415,4.153.847,8.75,1.271,13.579-2.2-2.9-4.237-5.557-5.98-7.806a3.482,3.482,0,0,0-.712-5.753l-6.959-3.48a3.48,3.48,0,0,0-4.273,5.288c.188.234,8.756,10.974,19.005,24.836,1.778,22.991,2.962,46.908,1.29,51.922-.306.917-.84,2-1.341,2.036-2.1.292-7.123-4.41-9.644-9.45-1.453-2.9-3.543-3.2-4.661-3.154-3.74.231-5.2,4.346-7.851,11.816-1.9,5.352-4.263,12.006-6.915,14.728-1.437-1.756-3.3-7.647-4.327-13.7a3.461,3.461,0,0,0,6.723-1.174c0-5.19-3.629-44.711-5.656-66.37a3.478,3.478,0,0,0,2-4.326l-3.48-10.44a3.48,3.48,0,0,0-6.766,1.431c2.365,24.824,6.8,72.772,6.937,79.39-.009-.06-.021-.118-.029-.178a3.48,3.48,0,1,0-6.889.985c1.016,7.113,3.613,19.342,9.593,21.334a5.806,5.806,0,0,0,1.854.3,6.838,6.838,0,0,0,4.9-2.27c3.79-3.789,6.355-11.014,8.618-17.385.511-1.441,1.117-3.147,1.687-4.608,3.192,4.662,8.762,10.466,14.4,10.012,1.984-.142,5.593-1.209,7.449-6.776,1.85-5.551,1.119-24.91-.128-43.444,2.932,4.109,5.866,8.317,8.666,12.472,1.086,10.421,1.862,20.861,1.862,29.436A3.486,3.486,0,0,0,383.843,252.633Z" fill="#f5f5f5"/><path d="M410.251,234.33c-2.465-18.364-5.9-39.637-8.074-52.693a3.423,3.423,0,0,0,2.915-.619,3.476,3.476,0,0,0,.655-4.876l-6.307-8.265a3.48,3.48,0,0,0-6.2,2.709c.063.356,6.268,36.078,10.106,64.668,1.466,10.925-.674,20.689-5.729,26.112-3.249,3.484-7.554,5.06-12.764,4.757a3.479,3.479,0,1,0-.438,6.945c.588.038,1.167.054,1.741.054a21.961,21.961,0,0,0,16.551-7.014C409.271,259.076,412.019,247.491,410.251,234.33Z" fill="#f5f5f5"/><path d="M371.97,257.268a3.526,3.526,0,0,0,.172,4.891,1.464,1.464,0,0,1,.416.721,1.628,1.628,0,0,1-.526.778,3.48,3.48,0,1,0,4.922,4.92,7.894,7.894,0,0,0,2.562-5.937,8.285,8.285,0,0,0-2.73-5.668A3.449,3.449,0,0,0,371.97,257.268Z" fill="#f5f5f5"/><path d="M359.7,333.581H335.345V330.1a3.48,3.48,0,0,0-6.96,0v3.48H143.957c6.959,6.959,20.878,10.44,31.318,10.44h153.11v6.959a3.479,3.479,0,0,0,3.48,3.48H359.7a10.44,10.44,0,1,0,0-20.879Zm0,13.919H335.344v-3.48h27.838l-.625-1.873a3.377,3.377,0,0,1,.625,1.873A3.482,3.482,0,0,1,359.7,347.5Z" fill="#f5f5f5"/></g></svg>