<svg xmlns="http://www.w3.org/2000/svg" width="512" height="335.455" viewBox="0 0 512 335.455"><g transform="translate(0 -88.272)"><path d="M170.667,423.721H8.828A8.829,8.829,0,0,1,0,414.893V97.1a8.829,8.829,0,0,1,8.828-8.828H170.667Z" fill="#73af00"/><rect width="170.67" height="335.45" transform="translate(170.67 88.277)" fill="#ffe15a"/><path d="M503.172,423.721H341.333V88.273H503.172A8.829,8.829,0,0,1,512,97.1V414.894A8.827,8.827,0,0,1,503.172,423.721Z" fill="#ff4b55"/><path d="M258.04,205.777l11.693,35.062,36.959.287a2.151,2.151,0,0,1,1.261,3.881l-29.732,21.955L289.369,302.2a2.151,2.151,0,0,1-3.3,2.4L256,283.107,225.931,304.6a2.151,2.151,0,0,1-3.3-2.4l11.148-35.239-29.732-21.955a2.151,2.151,0,0,1,1.261-3.881l36.959-.287,11.693-35.062A2.152,2.152,0,0,1,258.04,205.777Z" fill="#73af00"/></g></svg>