<svg xmlns="http://www.w3.org/2000/svg" width="512" height="335.448" viewBox="0 0 512 335.448"><g transform="translate(0 -88.276)"><path d="M0,311.908H512V414.9a8.829,8.829,0,0,1-8.828,8.828H8.828A8.829,8.829,0,0,1,0,414.9Z" fill="#f5f5f5"/><path d="M8.828,88.276H503.173A8.829,8.829,0,0,1,512,97.1V200.092H0V97.1A8.828,8.828,0,0,1,8.828,88.276Z" fill="#ff4b55"/><rect width="512" height="111.81" transform="translate(0 200.09)" fill="#41479b"/><path d="M173.021,200.07H109.462l-2.648-15.89h68.855Z" fill="#ffe15a"/><path d="M108.8,196.1l.662,3.973h63.559l.662-3.973Z" fill="#ffd350"/><rect width="2.648" height="10.593" transform="translate(139.92 147.1)" fill="#ffe15a"/><rect width="7.945" height="2.648" transform="translate(137.27 149.75)" fill="#ffe15a"/><path d="M173.228,189.476a2.7,2.7,0,0,1-.9-.158,2.648,2.648,0,0,1-1.587-3.393l5.61-15.481a2.807,2.807,0,0,0-.18-2.319,2.452,2.452,0,0,0-1.624-1.234c-6.839-1.453-20.1-3.9-32.023-3.9h-2.558c-11.927,0-25.184,2.444-32.026,3.9a2.441,2.441,0,0,0-1.622,1.231,2.8,2.8,0,0,0-.179,2.319l5.608,15.481a2.648,2.648,0,1,1-4.979,1.805l-5.61-15.481a8.1,8.1,0,0,1,.526-6.694,7.748,7.748,0,0,1,5.149-3.843c7.047-1.5,20.718-4.017,33.131-4.017h2.558c12.413,0,26.084,2.516,33.128,4.013a7.757,7.757,0,0,1,5.152,3.846,8.107,8.107,0,0,1,.527,6.694l-5.611,15.481A2.642,2.642,0,0,1,173.228,189.476Z" fill="#ffe15a"/><path d="M141.251,187.159a2.647,2.647,0,0,1-2.648-2.648V162.994a2.648,2.648,0,0,1,5.3,0v21.517A2.647,2.647,0,0,1,141.251,187.159Z" fill="#ffe15a"/><path d="M159.559,189.476a2.773,2.773,0,0,1-.541-.054,2.649,2.649,0,0,1-2.055-3.132l3.212-15.481a5.309,5.309,0,0,0-.608-4.094c-3.672-1.347-11.039-3.722-17.594-3.722h-1.465c-6.554,0-13.921,2.375-17.73,3.791a5.972,5.972,0,0,0-.472,4.024l3.212,15.481a2.648,2.648,0,1,1-5.185,1.076l-3.212-15.481c-.8-3.859.428-8.8,3.808-10.063,5.063-1.882,12.565-4.125,19.578-4.125h1.465c7.014,0,14.516,2.242,19.576,4.122,3.383,1.265,4.611,6.207,3.811,10.066l-3.212,15.481A2.644,2.644,0,0,1,159.559,189.476Z" fill="#ffe15a"/><path d="M107.476,188.152h67.531l.662-3.972H106.814Z" fill="#ffd350"/><path d="M90.924,200.07a2.649,2.649,0,0,0-2.648,2.648V295.2a52.966,52.966,0,1,0,105.932,0V202.718a2.649,2.649,0,0,0-2.648-2.648Z" fill="#ff4b55"/><path d="M146.538,287.464l5.3-13.241-10.593,2.648-10.593-2.648,5.3,13.241L122.7,332.485a35.087,35.087,0,0,0,37.076,0Z" fill="#f5f5f5"/><path d="M122.061,298.135l-4.673,1.169,10.279-18.5-4.63-2.571L110.552,300.7H98.869V306h5.69l-7.344,5.875,3.308,4.138,6.239-4.992L104.3,318.4l5.025,1.675,4.837-14.511,9.183-2.3Z" fill="#ffe15a"/><path d="M122.7,226.552l-12.089-6.045a5.3,5.3,0,0,1-2.77-6.022l.684-2.735a3.007,3.007,0,0,0-5.266-2.607,44.219,44.219,0,0,0-9.69,27.625v55.991s11.059-2.211,21.048-16.742a10.4,10.4,0,0,1,8.072-4.412l-5.286,15.857L128,290.111l9.269-11.03Z" fill="#f5f5f5"/><path d="M160.422,298.135,165.1,299.3l-10.279-18.5,4.63-2.571L171.93,300.7h11.684V306h-5.691l7.345,5.875-3.308,4.138-6.239-4.992,2.461,7.382-5.026,1.675-4.836-14.511-9.183-2.3Z" fill="#ffe15a"/><path d="M159.779,226.552l12.089-6.045a5.3,5.3,0,0,0,2.77-6.022l-.684-2.735a3.007,3.007,0,0,1,5.266-2.607,44.219,44.219,0,0,1,9.69,27.625v55.991s-11.059-2.211-21.048-16.742a10.4,10.4,0,0,0-8.072-4.412l5.286,15.857-10.593,2.648-9.269-11.03Z" fill="#f5f5f5"/><path d="M125.352,208.014H112.11l3.973,5.3,9.269,2.648-5.3,2.648H128Z" fill="#ffe15a"/><path d="M157.131,208.014h13.241l-3.972,5.3-9.269,2.648,5.3,2.648h-7.945Z" fill="#ffe15a"/><path d="M159,205.938l-12.458,2.076-5.3,10.593-5.3-10.593-12.458-2.076a1.772,1.772,0,0,0-1.876,2.54L128,221.256l-5.3,5.3h37.076l-5.3-5.3,6.389-12.778A1.771,1.771,0,0,0,159,205.938Z" fill="#f5f5f5"/><circle cx="3.972" cy="3.972" r="3.972" transform="translate(137.268 181.368)" fill="#ffbe50"/><ellipse cx="3.139" cy="2.207" rx="3.139" ry="2.207" transform="translate(138.051 192.613)" fill="#41479b"/><ellipse cx="3.139" cy="2.207" rx="3.139" ry="2.207" transform="translate(122.381 192.613)" fill="#ff4b55"/><ellipse cx="3.139" cy="2.207" rx="3.139" ry="2.207" transform="translate(106.711 192.613)" fill="#41479b"/><ellipse cx="3.139" cy="2.207" rx="3.139" ry="2.207" transform="translate(169.381 192.613)" fill="#41479b"/><ellipse cx="3.139" cy="2.207" rx="3.139" ry="2.207" transform="translate(153.711 192.613)" fill="#ff4b55"/><circle cx="3.972" cy="3.972" r="3.972" transform="translate(155.678 181.368)" fill="#ffbe50"/><circle cx="3.972" cy="3.972" r="3.972" transform="translate(170.198 181.368)" fill="#ffbe50"/><circle cx="3.972" cy="3.972" r="3.972" transform="translate(118.888 181.368)" fill="#ffbe50"/><circle cx="3.972" cy="3.972" r="3.972" transform="translate(104.358 181.368)" fill="#ffbe50"/><path d="M145.8,162.994a5.239,5.239,0,0,0,.735-2.648,5.3,5.3,0,0,0-10.594,0,5.229,5.229,0,0,0,.735,2.648Z" fill="#41479b"/><path d="M141.241,280.842a19.883,19.883,0,0,1-19.862-19.862V225.228H161.1V260.98A19.883,19.883,0,0,1,141.241,280.842Z" fill="#ff4b55"/><path d="M159.779,226.552V260.98a18.538,18.538,0,0,1-37.076,0V226.552h37.076m2.649-2.648H120.056V260.98a21.186,21.186,0,1,0,42.372,0V223.9Z" fill="#a54b50"/><path d="M137.269,279.08a18.269,18.269,0,0,0,7.944,0V226.551h-7.945S137.269,279.08,137.269,279.08Z" fill="#f5f5f5"/><rect width="37.08" height="7.945" transform="translate(122.7 248.4)" fill="#f5f5f5"/></g></svg>