<svg xmlns="http://www.w3.org/2000/svg" width="512" height="335.448" viewBox="0 0 512 335.448"><g transform="translate(0 -88.276)"><path d="M8.828,423.724H503.173A8.829,8.829,0,0,0,512,414.9V311.908L4.85,422.664A8.6,8.6,0,0,0,8.828,423.724Z" fill="#73af00"/><path d="M170.667,88.276H8.828A8.829,8.829,0,0,0,0,97.1V414.9a8.619,8.619,0,0,0,1.862,5.169Z" fill="#41479b"/><path d="M2.613,421.158,341.333,88.277H170.667L1.862,420.065A8.843,8.843,0,0,0,2.613,421.158Z" fill="#ffe15a"/><path d="M503.172,88.276H341.333L2.613,421.158a8.955,8.955,0,0,0,1.284.865L512,200.092V97.1A8.829,8.829,0,0,0,503.172,88.276Z" fill="#ff4b55"/><path d="M4.85,422.664,512,311.907V200.092L3.9,422.022A8.463,8.463,0,0,0,4.85,422.664Z" fill="#f5f5f5"/></g></svg>