<svg xmlns="http://www.w3.org/2000/svg" width="512" height="335.45" viewBox="0 0 512 335.45"><g transform="translate(0 -88.275)"><path d="M512,256H0V97.1a8.829,8.829,0,0,1,8.828-8.828H503.173A8.829,8.829,0,0,1,512,97.1V256Z" fill="#ff4b55"/><path d="M0,256H512V414.9a8.829,8.829,0,0,1-8.828,8.828H8.828A8.829,8.829,0,0,1,0,414.9Z" fill="#f5f5f5"/><path d="M72.569,172.263a58.363,58.363,0,0,1,49.113-57.542,1.351,1.351,0,0,0,.088-2.663,60.413,60.413,0,0,0-21.793-1c-30,4.086-53.186,30.046-53.61,60.318a61.813,61.813,0,0,0,61.785,62.712,60.567,60.567,0,0,0,13.606-1.554,1.353,1.353,0,0,0-.094-2.666A58.332,58.332,0,0,1,72.569,172.263Z" fill="#f5f5f5"/><path d="M122.14,187.795l-2.613,7.836-8.259.064a1.113,1.113,0,0,0-.652,2.008l6.644,4.907-2.492,7.875a1.113,1.113,0,0,0,1.708,1.241l6.72-4.8,6.72,4.8a1.113,1.113,0,0,0,1.708-1.241l-2.492-7.875,6.644-4.907a1.113,1.113,0,0,0-.652-2.008l-8.259-.064-2.613-7.836A1.113,1.113,0,0,0,122.14,187.795Z" fill="#f5f5f5"/><path d="M162.967,187.795l-2.613,7.836-8.259.064a1.113,1.113,0,0,0-.652,2.008l6.644,4.907-2.492,7.875a1.113,1.113,0,0,0,1.708,1.241l6.72-4.8,6.72,4.8a1.113,1.113,0,0,0,1.708-1.241l-2.492-7.875L176.6,197.7a1.113,1.113,0,0,0-.652-2.008l-8.259-.064-2.613-7.836A1.113,1.113,0,0,0,162.967,187.795Z" fill="#f5f5f5"/><path d="M142.738,124.79l-2.613,7.836-8.259.064a1.113,1.113,0,0,0-.652,2.008l6.644,4.907-2.492,7.875a1.113,1.113,0,0,0,1.708,1.241l6.72-4.8,6.72,4.8a1.113,1.113,0,0,0,1.708-1.241L149.73,139.6l6.644-4.907a1.113,1.113,0,0,0-.652-2.008l-8.259-.064-2.613-7.836A1.113,1.113,0,0,0,142.738,124.79Z" fill="#f5f5f5"/><path d="M110.186,148.928l-2.613,7.836-8.259.064a1.113,1.113,0,0,0-.652,2.008l6.644,4.907-2.492,7.875a1.113,1.113,0,0,0,1.708,1.241l6.72-4.8,6.72,4.8a1.113,1.113,0,0,0,1.708-1.241l-2.492-7.875,6.644-4.907a1.113,1.113,0,0,0-.652-2.008l-8.259-.064-2.613-7.836A1.113,1.113,0,0,0,110.186,148.928Z" fill="#f5f5f5"/><path d="M175.014,148.928l-2.613,7.836-8.259.064a1.113,1.113,0,0,0-.652,2.008l6.644,4.907-2.492,7.875a1.113,1.113,0,0,0,1.708,1.241l6.72-4.8,6.72,4.8a1.113,1.113,0,0,0,1.708-1.241l-2.492-7.875,6.644-4.907a1.113,1.113,0,0,0-.652-2.008l-8.259-.064-2.613-7.836A1.113,1.113,0,0,0,175.014,148.928Z" fill="#f5f5f5"/></g></svg>