<svg xmlns="http://www.w3.org/2000/svg" width="512" height="335.449" viewBox="0 0 512 335.449"><g transform="translate(0 -88.276)"><path d="M512,200.093H0V97.1a8.829,8.829,0,0,1,8.828-8.828H503.173A8.829,8.829,0,0,1,512,97.1V200.093Z" fill="#f5f5f5"/><path d="M503.172,423.725H8.828A8.829,8.829,0,0,1,0,414.9V311.909H512V414.9A8.828,8.828,0,0,1,503.172,423.725Z" fill="#ff4b55"/><rect width="512" height="111.81" transform="translate(0 200.091)" fill="#41479b"/><path d="M130.225,339.286c-2.613-1.5-64.018-37.216-64.018-92.113V172.139H198.621v75.034c0,54.9-61.4,90.612-64.018,92.113l-2.189,1.249Z" fill="#ff4b55"/><path d="M167.094,233.932l-20.809,2.741H139.35V224.255h4.161L160.157,227l-2.254-9.677,2.254-9.677-16.646,2.74H139.35v-4.194l2.74-20.808-9.676,2.819-9.676-2.819,2.74,20.808v4.194h-4.163l-16.645-2.74,2.254,9.677L104.67,227l16.645-2.741h4.163v12.418h-6.936l-20.808-2.741,2.818,9.676-2.818,9.677,20.808-2.741h6.936v31.94H139.35v-31.94h6.935l20.809,2.741-2.818-9.677Z" fill="#f5f5f5"/><path d="M132.414,269.242a22.068,22.068,0,0,0-20.3,13.419c-.594-.049-1.162-.178-1.767-.178A22.008,22.008,0,0,0,88.4,303.274c17.875,22,40.264,35.116,41.82,36.011l2.189,1.25,2.189-1.25c1.556-.895,23.945-14.006,41.82-36.011a22.008,22.008,0,0,0-21.94-20.791c-.6,0-1.173.129-1.767.178A22.068,22.068,0,0,0,132.414,269.242Z" fill="#41479b"/><path d="M194.207,176.553v70.621c0,52.966-61.793,88.276-61.793,88.276s-61.793-35.31-61.793-88.276V176.553H194.207m8.827-8.828H61.793v79.449c0,57.428,63.537,94.394,66.241,95.94l4.38,2.5,4.38-2.5c2.705-1.546,66.241-38.513,66.241-95.94V167.725Z" fill="#f5f5f5"/></g></svg>