<svg xmlns="http://www.w3.org/2000/svg" width="512" height="335.449" viewBox="0 0 512 335.449"><g transform="translate(0 -88.276)"><path d="M512,200.093H0V97.1a8.829,8.829,0,0,1,8.828-8.828H503.173A8.829,8.829,0,0,1,512,97.1V200.093Z" fill="#f5f5f5"/><path d="M503.172,423.725H8.828A8.829,8.829,0,0,1,0,414.9V311.909H512V414.9A8.828,8.828,0,0,1,503.172,423.725Z" fill="#ff4b55"/><rect width="512" height="111.81" transform="translate(0 200.091)" fill="#41479b"/><path d="M172.014,157.371S170.236,214,162.29,229.9c-9.836,19.545-19.725,25.247-34.438,30.515-14.711-5.267-24.6-10.965-34.438-30.515-7.945-15.9-9.725-72.524-9.724-72.53A107.317,107.317,0,0,1,172.014,157.371Z" fill="#41479b"/><path d="M140.64,235.9a6.1,6.1,0,0,0-7.226,0,9.756,9.756,0,0,1-11.182,0,6.108,6.108,0,0,0-7.212,0,9.416,9.416,0,0,1-5.171,1.727c5.362,6.538,10.983,9.64,18,12.333,7.012-2.694,12.632-5.793,17.994-12.331A9.456,9.456,0,0,1,140.64,235.9Z" fill="#f5f5f5"/><path d="M105.832,225.438a6.1,6.1,0,0,0,7.2,0,9.753,9.753,0,0,1,11.18,0,6.1,6.1,0,0,0,7.214.006,9.767,9.767,0,0,1,11.189,0,6.117,6.117,0,0,0,7.234,0,9.685,9.685,0,0,1,4.35-1.651,41.939,41.939,0,0,0,1.536-4.9l-13.17-21.95-4.907,9.814-9.814-19.627-9.814,19.627-4.907-9.814L99.965,218.872a42.32,42.32,0,0,0,1.534,4.915A9.561,9.561,0,0,1,105.832,225.438Z" fill="#f5f5f5"/><path d="M151.831,228.538a9.779,9.779,0,0,1-11.191,0,6.1,6.1,0,0,0-7.226,0,9.756,9.756,0,0,1-11.182,0,6.108,6.108,0,0,0-7.212,0,9.731,9.731,0,0,1-11.172,0l-.017-.011q1.443,2.619,2.881,4.8a5.162,5.162,0,0,0,2.718.651,5.665,5.665,0,0,0,3.606-1.178,9.753,9.753,0,0,1,11.18,0,6.1,6.1,0,0,0,7.214.006,9.767,9.767,0,0,1,11.189,0,5.666,5.666,0,0,0,3.616,1.184,5.2,5.2,0,0,0,2.754-.663q1.436-2.178,2.879-4.8A.323.323,0,0,0,151.831,228.538Z" fill="#f5f5f5"/><path d="M128.046,170.223l.861,2.814,2.867-.661a.2.2,0,0,1,.194.335l-2.006,2.153,2.006,2.153a.2.2,0,0,1-.194.335l-2.867-.661-.861,2.814a.2.2,0,0,1-.387,0l-.861-2.814-2.867.661a.2.2,0,0,1-.194-.335l2.006-2.153-2.006-2.153a.2.2,0,0,1,.194-.335l2.867.661.861-2.814A.2.2,0,0,1,128.046,170.223Z" fill="#ffe15a"/><path d="M113.939,156.7l.861,2.814,2.867-.661a.2.2,0,0,1,.194.335l-2.006,2.153,2.006,2.153a.2.2,0,0,1-.194.335l-2.867-.661-.861,2.814a.2.2,0,0,1-.387,0l-.861-2.814-2.867.661a.2.2,0,0,1-.194-.335l2.006-2.153-2.006-2.153a.2.2,0,0,1,.194-.335l2.867.661.861-2.814A.2.2,0,0,1,113.939,156.7Z" fill="#ffe15a"/><path d="M142.255,156.7l.861,2.814,2.867-.661a.2.2,0,0,1,.194.335l-2.006,2.153,2.006,2.153a.2.2,0,0,1-.194.335l-2.867-.661-.861,2.814a.2.2,0,0,1-.387,0l-.861-2.814-2.867.661a.2.2,0,0,1-.194-.335l2.006-2.153-2.006-2.153a.2.2,0,0,1,.194-.335l2.867.661.861-2.814A.2.2,0,0,1,142.255,156.7Z" fill="#ffe15a"/><path d="M166.934,155.239c.03,1.565.055,3.144.055,4.849-.708,17.7-3.342,56.258-9.082,67.87-8.463,17-16.277,22.614-30.055,27.791-13.778-5.176-21.591-10.793-30.048-27.778-5.761-11.656-8.414-50.866-9.091-67.882,0-1.707.028-3.268.052-4.846-1.7.665-3.386,1.368-5.058,2.123.118,3.438.974,25.992,3.545,45.823C88.7,214.26,90.7,224.463,93.415,229.9c9.837,19.55,19.726,25.248,34.438,30.515,14.713-5.269,24.6-10.969,34.439-30.515,2.718-5.439,4.713-15.642,6.164-26.713,2.57-19.831,3.425-42.385,3.544-45.823C170.325,156.609,168.636,155.9,166.934,155.239Z" fill="#ff1722"/></g></svg>