<svg xmlns="http://www.w3.org/2000/svg" width="512" height="335.45" viewBox="0 0 512 335.45"><g transform="translate(0 -88.275)"><path d="M503.172,423.724H8.828A8.829,8.829,0,0,1,0,414.9V97.1a8.829,8.829,0,0,1,8.828-8.828H503.173A8.829,8.829,0,0,1,512,97.1V414.9A8.83,8.83,0,0,1,503.172,423.724Z" fill="#41479b"/><path d="M508.744,90.41,3.256,421.59a8.676,8.676,0,0,0,5.571,2.134H503.172A8.829,8.829,0,0,0,512,414.9V97.1A8.681,8.681,0,0,0,508.744,90.41Z" fill="#73af00"/><path d="M512,97.1a8.829,8.829,0,0,0-8.828-8.828H487.833L0,407.891V414.9a8.829,8.829,0,0,0,8.828,8.828H24.167L512,104.109Z" fill="#ffe15a"/><path d="M44.429,115.778,39.7,129.947l-14.936.116a1.491,1.491,0,0,0-.874,2.69l12.015,8.873L31.4,155.867a1.491,1.491,0,0,0,2.289,1.663l12.152-8.685L58,157.53a1.492,1.492,0,0,0,2.289-1.663L55.78,141.626,67.8,132.753a1.491,1.491,0,0,0-.874-2.69l-14.936-.116-4.726-14.169A1.492,1.492,0,0,0,44.429,115.778Z" fill="#f5f5f5"/><path d="M158.21,115.778l-4.726,14.169-14.936.116a1.491,1.491,0,0,0-.874,2.69l12.015,8.873-4.505,14.241a1.491,1.491,0,0,0,2.289,1.663l12.152-8.685,12.152,8.685a1.492,1.492,0,0,0,2.289-1.663l-4.505-14.241,12.015-8.873a1.491,1.491,0,0,0-.874-2.69l-14.936-.116-4.726-14.169A1.492,1.492,0,0,0,158.21,115.778Z" fill="#f5f5f5"/><path d="M101.32,166.476l-4.726,14.169-14.936.116a1.491,1.491,0,0,0-.874,2.69L92.8,192.324l-4.5,14.241a1.491,1.491,0,0,0,2.289,1.663l12.152-8.685,12.152,8.685a1.492,1.492,0,0,0,2.289-1.663l-4.5-14.241,12.015-8.873a1.491,1.491,0,0,0-.874-2.69l-14.936-.116-4.726-14.169A1.492,1.492,0,0,0,101.32,166.476Z" fill="#f5f5f5"/><path d="M44.429,217.174,39.7,231.343l-14.936.116a1.491,1.491,0,0,0-.874,2.69l12.015,8.873L31.4,257.263a1.491,1.491,0,0,0,2.289,1.663l12.152-8.685L58,258.926a1.492,1.492,0,0,0,2.289-1.663L55.78,243.022,67.8,234.149a1.491,1.491,0,0,0-.874-2.69l-14.936-.116-4.726-14.169A1.492,1.492,0,0,0,44.429,217.174Z" fill="#f5f5f5"/><path d="M158.21,217.174l-4.726,14.169-14.936.116a1.491,1.491,0,0,0-.874,2.69l12.015,8.873-4.505,14.241a1.491,1.491,0,0,0,2.289,1.663l12.152-8.685,12.152,8.685a1.492,1.492,0,0,0,2.289-1.663l-4.505-14.241,12.015-8.873a1.491,1.491,0,0,0-.874-2.69l-14.936-.116-4.726-14.169A1.492,1.492,0,0,0,158.21,217.174Z" fill="#f5f5f5"/></g></svg>