<svg xmlns="http://www.w3.org/2000/svg" width="512" height="335.448" viewBox="0 0 512 335.448"><g transform="translate(0 -88.276)"><path d="M512,200.093H0V97.1a8.829,8.829,0,0,1,8.828-8.828H503.173A8.829,8.829,0,0,1,512,97.1V200.093Z" fill="#73af00"/><path d="M503.172,423.724H8.828A8.829,8.829,0,0,1,0,414.9V311.908H512V414.9A8.828,8.828,0,0,1,503.172,423.724Z" fill="#ff4b55"/><rect width="512" height="111.81" transform="translate(0 200.09)" fill="#f5f5f5"/><path d="M258.225,230.485,263.732,247l17.407.135a2.345,2.345,0,0,1,1.375,4.232l-14,10.34,5.25,16.6a2.346,2.346,0,0,1-3.6,2.615L256,270.8l-14.162,10.122a2.346,2.346,0,0,1-3.6-2.615l5.25-16.6-14-10.34a2.345,2.345,0,0,1,1.375-4.232L248.264,247l5.507-16.513A2.348,2.348,0,0,1,258.225,230.485Z" fill="#464655"/><path d="M136.486,133.861c.693,4.441,3.378,5.835,5.713,5.654a5.739,5.739,0,0,0,5.166-5.388V118.884a1.386,1.386,0,1,1,2.772,0v15.308a5.539,5.539,0,0,0,7.6,5.145l1.385-.554c.128,12.794-.651,24.04-.665,24.246a2.772,2.772,0,0,0,2.567,2.961c.067.006.134.008.2.008a2.773,2.773,0,0,0,2.762-2.574c.064-.9.918-13.216.662-26.851l.838-.334a2.778,2.778,0,0,1,2.265.1,7.92,7.92,0,0,0,9.139-1.483l.5-.5a8.273,8.273,0,0,0,2.007-8.509l-2.36-7.08a2.772,2.772,0,0,0,2.055-5.129l-5.543-2.772a2.771,2.771,0,0,0-3.868,3.356l4.459,13.378a2.758,2.758,0,0,1-.669,2.836l-.5.5a2.38,2.38,0,0,1-2.743.444,8.283,8.283,0,0,0-5.76-.576c-.39-8.9-1.347-17.753-3.389-23.876a2.772,2.772,0,0,0-5.259,1.754c2,5.988,2.867,15.115,3.176,24.19l-3.317,1.327V118.886a6.929,6.929,0,0,0-13.858,0V132.3L139,118.337a2.77,2.77,0,1,0-5.431,1.1Z" fill="#f5f5f5"/><path d="M141.821,110.569a2.771,2.771,0,0,0,2.772-2.772v-2.771a2.772,2.772,0,1,0-5.544,0V107.8A2.772,2.772,0,0,0,141.821,110.569Z" fill="#f5f5f5"/><path d="M169.536,107.8h2.772a2.772,2.772,0,1,0,0-5.544h-2.772a2.772,2.772,0,0,0,0,5.544Z" fill="#f5f5f5"/><path d="M151.481,144.221l-13.857,8.314a2.771,2.771,0,0,0,2.852,4.752l13.857-8.314a2.771,2.771,0,1,0-2.852-4.752Z" fill="#f5f5f5"/><path d="M188.845,149.124l.065-.044a6.33,6.33,0,0,0,1.279,2.6,5.447,5.447,0,0,0,4.723,1.835,7.641,7.641,0,0,0,5.764-3.031,4.94,4.94,0,0,0,.585.346,5.248,5.248,0,0,0,4.879-.157c4.189-2.157,5.091-7.148,4.963-9.757a2.834,2.834,0,0,0-2.886-2.625,2.781,2.781,0,0,0-2.653,2.877c0,.035.064,3.324-1.948,4.544a6.745,6.745,0,0,1-.863-2.336,2.772,2.772,0,0,0-5.506.457c0,.4-.09,3.959-2.836,4.257-.319-.436-.324-2.271-.011-3.627a2.772,2.772,0,0,0-4.255-2.934l-1.547,1.053c-.735-16.072-2.426-34.8-2.447-35.04a2.772,2.772,0,0,0-5.521.5c.024.256,1.982,21.924,2.585,38.473-.141.135-.288.282-.427.41a7.146,7.146,0,0,0-6.067-4.769,10.113,10.113,0,0,0-9.761,6.176c-1.322,3.3-.49,6.547,2.119,8.266,1.876,1.237,4.706,1.626,8.266.378a23.15,23.15,0,0,1-4.508,8.544c-1.842,2.146-4.918,4.622-8.854,4.512a7.276,7.276,0,0,1-5.382-2.295c-3.209-3.505-2.933-9.849-2.93-9.917a2.771,2.771,0,0,0-2.614-2.912,2.717,2.717,0,0,0-2.921,2.614c-.019.352-.42,8.687,4.352,13.93a12.712,12.712,0,0,0,9.278,4.117c.185.008.371.011.557.011,4.637,0,9.134-2.273,12.717-6.45a28.657,28.657,0,0,0,6.346-14.205c-.009,9.481-5.721,20.174-13.3,24.885-3.217,2-8.232,3.8-13.881,1.015-6.964-3.437-6.134-11.4-6.1-11.722a2.771,2.771,0,1,0-5.5-.687c-.062.495-1.394,12.179,9.145,17.378a18.832,18.832,0,0,0,8.391,2,20.511,20.511,0,0,0,10.869-3.277c9.223-5.732,15.917-18.187,15.917-29.614C188.936,153.128,188.9,151.176,188.845,149.124Zm-16.711,2.856c-.495-.328-.108-1.375-.024-1.583a4.712,4.712,0,0,1,3.868-2.726,1.84,1.84,0,0,1,.223.011c.354.032,1.295.121,1.7,2.214q.064.333.108.682C174.919,152.392,172.849,152.449,172.134,151.98Z" fill="#f5f5f5"/><path d="M143.221,177.47a2.778,2.778,0,0,0-3.789.982,5.784,5.784,0,0,1-.468.658c-.03-.071-.06-.146-.089-.227-1.155-3.083-.333-7.832.083-9.4a2.771,2.771,0,0,0-5.355-1.429c-.2.749-1.906,7.478.082,12.777,1.272,3.389,3.224,4.244,4.64,4.36.126.011.25.017.373.017,2.984,0,4.969-3.007,5.522-3.959A2.77,2.77,0,0,0,143.221,177.47Z" fill="#f5f5f5"/><path d="M194.365,127.2a2.746,2.746,0,0,0,1.71-.593l13.972-10.969a2.667,2.667,0,0,0,.457-.536,6.939,6.939,0,1,0-7.965-.616l-9.889,7.764a2.771,2.771,0,0,0,1.715,4.95Zm12.585-19.4a1.386,1.386,0,1,1-1.386,1.386A1.387,1.387,0,0,1,206.95,107.8Z" fill="#f5f5f5"/><path d="M203.67,124.57a2.767,2.767,0,0,0-3.507,1.751c-.3.887-1.636,5.459,1.08,8.173a5.589,5.589,0,0,0,4.141,1.58,12.194,12.194,0,0,0,3.828-.706,2.771,2.771,0,1,0-1.755-5.256,9.685,9.685,0,0,1-2.262.484,5.327,5.327,0,0,1,.228-2.534A2.765,2.765,0,0,0,203.67,124.57Z" fill="#f5f5f5"/><path d="M235.388,113.114a2.771,2.771,0,0,0,3.437-1.884l1.618-5.543a2.771,2.771,0,0,0-5.321-1.553l-1.617,5.543A2.772,2.772,0,0,0,235.388,113.114Z" fill="#f5f5f5"/><path d="M219.235,112.788a2.772,2.772,0,0,0,2.8-4.786c-.557-.324-.482-1.242-.461-1.423a2.177,2.177,0,0,1,1.272-1.852,2.772,2.772,0,1,0-1.648-5.293,7.608,7.608,0,0,0-5.131,6.515A6.827,6.827,0,0,0,219.235,112.788Z" fill="#f5f5f5"/><path d="M197.25,157.683a2.772,2.772,0,0,0-.52,5.494,5.2,5.2,0,0,1,.52,2.82,2.772,2.772,0,1,0,5.544,0C202.793,157.778,197.476,157.683,197.25,157.683Z" fill="#f5f5f5"/><path d="M244.269,146.208a6.421,6.421,0,0,0,1.042.084c2.177,0,4.377-1.1,6.557-3.277a2.771,2.771,0,0,0-3.919-3.919c-1.657,1.66-2.549,1.694-2.778,1.643-.53-.076-1.009-.766-1.116-.956a2.771,2.771,0,0,0-4.94,2.512A7.492,7.492,0,0,0,244.269,146.208Z" fill="#f5f5f5"/><path d="M291.377,126.732c-.018-.043-.034-.084-.047-.121a2.771,2.771,0,0,0-5.251,1.773c.216.65,1.451,3.908,4.509,4.32a4.472,4.472,0,0,0,.609.041c1.92,0,3.721-1.242,5.361-3.7a2.771,2.771,0,0,0-4.612-3.074A8.7,8.7,0,0,1,291.377,126.732Z" fill="#f5f5f5"/><path d="M285.936,177.084c0-11.819-.52-22.906-1.24-32.62a140.225,140.225,0,0,1,9.731,19.737,2.774,2.774,0,0,0,2.6,1.8,2.818,2.818,0,0,0,.973-.175,2.774,2.774,0,0,0,1.622-3.57c-3.508-9.352-9.813-20.489-16.028-30.376-1.515-14.93-3.211-24.4-3.242-24.574a2.771,2.771,0,0,0-5.453.991c.022.12.9,5,1.939,13.217-2.129-3.159-4.107-6.01-5.768-8.356l.136.043a2.771,2.771,0,1,0,1.755-5.256l-8.314-2.772a2.741,2.741,0,0,0-3.53,1.856c-1.66-1.227-3.787-2.223-5.784-1.388-1.208.5-2.648,1.762-2.648,4.931,0,2.433.928,5.064,1.912,7.851,1.632,4.622,2.654,8.022.926,9.643a3.028,3.028,0,0,1-2.84,1c-1.709-.433-3.4-2.709-4.527-6.09a2.563,2.563,0,0,0-.221-.385,47.137,47.137,0,0,0-.845-15.333,2.772,2.772,0,1,0-5.436,1.088c1.81,9.05,1.267,16.434-1.452,19.749a4.976,4.976,0,0,1-4.145,1.878,1.594,1.594,0,0,1-1.326-.617c-2.187-2.52-2.177-10.65-1.472-15.621a2.775,2.775,0,0,0-2.744-3.162c-4.769,0-6.577,5.423-8.172,10.209-.7,2.1-2,6.014-2.913,6.42-1.678,0-2.762-4.926-2.772-8.317a2.773,2.773,0,0,0-2.772-2.766h0a2.767,2.767,0,0,0-2.767,2.769c0,6.392,2.177,13.857,8.314,13.857,4.569,0,6.421-4.98,7.97-9.608.269,3.681,1.1,7.495,3.144,9.849a7.11,7.11,0,0,0,5.514,2.53,10.545,10.545,0,0,0,8.43-3.9,12.919,12.919,0,0,0,1.03-1.529,10.349,10.349,0,0,0,5.807,4.358,7.936,7.936,0,0,0,1.959.249,8.8,8.8,0,0,0,6.036-2.579,8.2,8.2,0,0,0,.926-1.118,7.46,7.46,0,0,0,2.047.309,11.217,11.217,0,0,0,5.747-1.764,2.77,2.77,0,0,0-2.977-4.673,5.878,5.878,0,0,1-3.137.825c0-3.038-1.1-6.265-2.1-9.108a37.991,37.991,0,0,1-1.433-4.633c.228.192.452.393.651.587a2.769,2.769,0,0,0,3.917,0,2.71,2.71,0,0,0,.4-.606c2.873,3.958,8.781,12.274,14.859,21.86,1.16,11.783,2.179,26.815,2.179,43.3a2.77,2.77,0,1,0,5.54,0Z" fill="#f5f5f5"/><path d="M288.707,116.112a2.772,2.772,0,0,0,5.544,0c0-3.262-2.552-8.531-3.064-9.554a2.772,2.772,0,0,0-4.958,2.48C287.228,111.037,288.707,114.666,288.707,116.112Z" fill="#f5f5f5"/><path d="M276.1,177.386a2.769,2.769,0,0,0-3.72,1.22,7.9,7.9,0,0,1-1.149,1.645,15.479,15.479,0,0,1,.729-5.126,2.772,2.772,0,0,0-4.609-2.774l-5.543,5.543a2.771,2.771,0,0,0,3.919,3.919l.141-.141a5.725,5.725,0,0,0,1.483,2.912,5.073,5.073,0,0,0,3.6,1.589,4.882,4.882,0,0,0,.761-.062c3.139-.509,5.094-3.97,5.619-5.017A2.765,2.765,0,0,0,276.1,177.386Z" fill="#f5f5f5"/><path d="M275.023,155.085H255.491q.26-1.035.533-1.973c7.789-1.619,12.418-4.132,13.78-7.489a6.2,6.2,0,0,0-1.042-6.219,6.871,6.871,0,0,0-7.006-2.988c-3.938.8-7.447,5.042-9.965,11.836-7.823,1.34-12.832,4.148-16,6.92-1.124-11.357-5.534-18.1-5.747-18.424a2.771,2.771,0,0,0-4.612,3.074c.05.076,5.077,7.765,5.077,20.634,0,12.65-10.087,22.172-16.629,22.172-3.112,0-4.473-3.7-5.073-6.826,6.4-4.489,12.056-9.683,13.3-14.674,1.689-6.753-.437-11.73-1.843-15.023-.066-.151-.136-.314-.205-.482.06.054.116.111.173.166a2.77,2.77,0,0,0,3.917-3.919c-1.62-1.621-4.766-4.168-7.626-2.972-1.208.5-2.648,1.762-2.648,4.931a11.787,11.787,0,0,0,1.291,4.455c1.248,2.921,2.8,6.556,1.562,11.5-.732,2.927-4.328,6.479-9.071,10.005a2.727,2.727,0,0,0-2.1-1.017h0a2.768,2.768,0,0,0-2.767,2.769c0,.5.022,1.032.054,1.579a145.979,145.979,0,0,1-17.831,9.757,2.771,2.771,0,0,0,1.149,5.294,2.726,2.726,0,0,0,1.145-.249,159.628,159.628,0,0,0,16.553-8.863c1.4,4.751,4.364,9.112,10.016,9.112,6.648,0,14.191-5.437,18.543-13.554a16.183,16.183,0,0,0,1.849,2.646c6.976,8.044,20.6,8.136,21.178,8.136a2.771,2.771,0,0,0,.2-5.534,5.932,5.932,0,0,1-3.459-1.681,4.748,4.748,0,0,1-.907-3.64c.285-3.415,11.3-5.967,21.011-6.12a2.775,2.775,0,0,0,2.57-1.843l2.772-7.795a2.777,2.777,0,0,0-2.61-3.7Zm-12.166-13.234a.972.972,0,0,1,.211-.028c.265,0,.683.13,1.241.883.106.141.443.622.358.833-.318.785-2.231,2.081-6.218,3.256C260.2,143.375,261.917,142.039,262.857,141.851Zm-16.736,36.431a16.966,16.966,0,0,1-7.671-4.663c-2.183-2.525-2.989-5.719-2.461-9.76a7.98,7.98,0,0,1,.578-1.175c3.9-.358,14.328,1.181,15.051,4.167-3.215,1.642-5.585,3.949-5.858,7.231A11.688,11.688,0,0,0,246.121,178.282Z" fill="#f5f5f5"/><path d="M305.193,115.236l-2.772-8.314a2.772,2.772,0,0,0-5.387,1.153c1.912,19.124,5.529,56.419,5.529,60.695,0,3.84-6.831,11.4-17.868,16.921a2.772,2.772,0,0,0,2.48,4.959c10.081-5.042,20.931-14.038,20.931-21.879,0-4.1-2.833-33.558-4.455-50.107A2.775,2.775,0,0,0,305.193,115.236Z" fill="#f5f5f5"/><path d="M328.319,140.243a2.771,2.771,0,0,0,4.645-2.644,13.97,13.97,0,0,1-.4-5.38,2.813,2.813,0,0,0,2.881-2.377,2.772,2.772,0,0,0-2.35-3.137,5,5,0,0,0-4.566,1.54,6.35,6.35,0,0,0-1.4,2.975l-3.21-3.21A2.771,2.771,0,0,0,320,131.929Z" fill="#f5f5f5"/><path d="M334.554,143.133l-10.393,7.448a2.77,2.77,0,1,0,3.228,4.5l10.393-7.448a2.77,2.77,0,1,0-3.228-4.5Z" fill="#f5f5f5"/><path d="M333.633,153.556a2.772,2.772,0,0,0,.243,3.676c.119.2.659,1.261.562,3.989a2.771,2.771,0,0,0,2.671,2.869c.034,0,.067,0,.1,0a2.773,2.773,0,0,0,2.769-2.671c.2-5.656-1.65-7.724-2.455-8.35A2.77,2.77,0,0,0,333.633,153.556Z" fill="#f5f5f5"/><path d="M357.82,173.965a2.771,2.771,0,0,0,2.772-2.772c0-4.089-.21-8.654-.554-13.4a101.171,101.171,0,0,1,6.495,12.069,2.766,2.766,0,0,0,2.548,1.681,2.733,2.733,0,0,0,1.09-.225,2.769,2.769,0,0,0,1.454-3.637c-2.537-5.921-7.279-13.764-12.68-21.863-1.087-10.173-2.507-20.139-3.61-27.289a2.683,2.683,0,0,0,1.731-.43,2.736,2.736,0,0,0,1.227-2.5,2.718,2.718,0,0,0,.307.8,10.081,10.081,0,0,1,1.01,6.785,2.772,2.772,0,0,0,2.153,3.275,2.87,2.87,0,0,0,.564.057,2.775,2.775,0,0,0,2.712-2.211,15.7,15.7,0,0,0-1.762-10.882,2.779,2.779,0,0,0-3.827-.85,2.741,2.741,0,0,0-1.237,2.506,2.715,2.715,0,0,0-.312-.8l-4.676-7.275a2.772,2.772,0,0,0-5.061,1.979c.039.217,2.156,12.38,4.034,27.038-2.125-3-4.249-5.934-6.31-8.734-.335-4.193-.671-8.07-.961-11.275a2.868,2.868,0,0,0,.45-.179,2.772,2.772,0,0,0,1.239-3.719l-2.772-5.543a2.772,2.772,0,0,0-5.237,1.517c.331,3.307.674,6.969,1.013,10.815-1.753-2.311-3.375-4.426-4.762-6.217a2.774,2.774,0,0,0-.567-4.582l-5.543-2.772a2.771,2.771,0,0,0-3.4,4.211c.15.186,6.973,8.74,15.136,19.781,1.416,18.312,2.358,37.359,1.027,41.353-.244.73-.669,1.591-1.068,1.621-1.675.233-5.673-3.513-7.681-7.527-1.158-2.312-2.822-2.552-3.712-2.511-2.978.184-4.141,3.462-6.253,9.41-1.514,4.263-3.395,9.562-5.507,11.73-1.144-1.4-2.624-6.09-3.446-10.912a2.756,2.756,0,0,0,5.355-.935c0-4.132-2.891-35.609-4.505-52.859a2.771,2.771,0,0,0,1.591-3.445l-2.772-8.314a2.772,2.772,0,0,0-5.389,1.14c1.884,19.77,5.416,57.958,5.525,63.23-.007-.047-.017-.1-.023-.141a2.771,2.771,0,1,0-5.485.786c.809,5.665,2.877,15.4,7.64,16.991a4.638,4.638,0,0,0,1.476.241,5.447,5.447,0,0,0,3.9-1.807c3.019-3.018,5.061-8.771,6.863-13.846.407-1.148.889-2.506,1.344-3.67,2.542,3.713,6.978,8.335,11.473,7.973,1.58-.114,4.455-.963,5.932-5.4s.892-19.84-.1-34.6c2.335,3.273,4.672,6.623,6.9,9.933.864,8.3,1.483,16.615,1.483,23.444A2.768,2.768,0,0,0,357.82,173.965Z" fill="#f5f5f5"/><path d="M378.852,159.389c-1.963-14.626-4.7-31.568-6.431-41.966a2.733,2.733,0,0,0,2.322-.492,2.769,2.769,0,0,0,.522-3.884l-5.023-6.582a2.772,2.772,0,0,0-4.934,2.157c.05.285,4.992,28.735,8.049,51.5,1.167,8.7-.537,16.477-4.563,20.8a12.263,12.263,0,0,1-10.165,3.789,2.772,2.772,0,0,0-.349,5.533c.468.03.929.043,1.387.043a17.5,17.5,0,0,0,13.182-5.586C378.07,179.1,380.258,169.871,378.852,159.389Z" fill="#f5f5f5"/><path d="M348.363,177.658a2.808,2.808,0,0,0,.137,3.894,1.171,1.171,0,0,1,.331.574,1.308,1.308,0,0,1-.419.62,2.772,2.772,0,0,0,3.92,3.919,6.284,6.284,0,0,0,2.04-4.728,6.589,6.589,0,0,0-2.175-4.514A2.742,2.742,0,0,0,348.363,177.658Z" fill="#f5f5f5"/></g></svg>