<svg xmlns="http://www.w3.org/2000/svg" width="512" height="335.449" viewBox="0 0 512 335.449"><g transform="translate(0 -88.276)"><path d="M503.172,423.725H8.828A8.829,8.829,0,0,1,0,414.9V97.1a8.829,8.829,0,0,1,8.828-8.828H503.173A8.829,8.829,0,0,1,512,97.1V414.9A8.83,8.83,0,0,1,503.172,423.725Z" fill="#82afff"/><path d="M253.466,193.443l-14.81,44.409-46.813.363a2.671,2.671,0,0,0-1.566,4.82l37.658,27.809-14.121,44.632a2.67,2.67,0,0,0,4.1,2.978L256,291.234l38.086,27.222a2.67,2.67,0,0,0,4.1-2.978l-14.121-44.633,37.658-27.809a2.671,2.671,0,0,0-1.566-4.82l-46.813-.363-14.81-44.409A2.671,2.671,0,0,0,253.466,193.443Z" fill="#f5f5f5"/></g></svg>