<svg xmlns="http://www.w3.org/2000/svg" width="512" height="335.448" viewBox="0 0 512 335.448"><g transform="translate(0 -88.276)"><path d="M512,200.093H0V97.1a8.829,8.829,0,0,1,8.828-8.828H503.173A8.829,8.829,0,0,1,512,97.1V200.093Z" fill="#464655"/><path d="M503.172,423.724H8.828A8.829,8.829,0,0,1,0,414.9V311.908H512V414.9A8.828,8.828,0,0,1,503.172,423.724Z" fill="#73af00"/><rect width="512" height="111.81" transform="translate(0 200.09)" fill="#ff4b55"/><path d="M95.4,233.164l5.247,11.381,12.169-2.994a.917.917,0,0,1,1.038,1.3l-5.626,11.2,9.928,7.648a.916.916,0,0,1-.371,1.623L105.52,265.9l.211,12.531a.917.917,0,0,1-1.5.723l-9.665-7.977L84.9,279.159a.917.917,0,0,1-1.5-.723l.211-12.531-12.263-2.583a.917.917,0,0,1-.371-1.623l9.928-7.648-5.626-11.2a.917.917,0,0,1,1.038-1.3l12.169,2.994,5.247-11.381A.916.916,0,0,1,95.4,233.164Z" fill="#f5f5f5"/><rect width="512" height="15.01" transform="translate(0 194.21)" fill="#f5f5f5"/><rect width="512" height="15.01" transform="translate(0 302.79)" fill="#f5f5f5"/><path d="M2.877,421.335,233.2,259.613a4.413,4.413,0,0,0,0-7.224L2.877,90.666A8.732,8.732,0,0,0,0,97.1V414.9A8.733,8.733,0,0,0,2.877,421.335Z" fill="#41479b"/><path d="M73.561,214.847l19.831,20.3,25.624-12.192a3.824,3.824,0,0,1,5.03,5.228l-13.175,25.132,19.513,20.6a3.824,3.824,0,0,1-3.418,6.4l-27.973-4.765L85.429,300.473a3.824,3.824,0,0,1-7.142-1.273l-4.114-28.077-27.9-5.2a3.824,3.824,0,0,1-.995-7.186l25.432-12.588-3.678-28.138A3.823,3.823,0,0,1,73.561,214.847Z" fill="#ffe15a"/></g></svg>