<svg xmlns="http://www.w3.org/2000/svg" xmlns:xlink="http://www.w3.org/1999/xlink" width="511.898" height="335.4" viewBox="0 0 511.898 335.4"><defs><linearGradient id="a" x1="-13.317" y1="-12.43" x2="-13.297" y2="-11.104" gradientUnits="objectBoundingBox"><stop offset="0" stop-color="#474747"/><stop offset="1" stop-color="#f50"/></linearGradient><linearGradient id="b" x1="-50.018" y1="-38.161" x2="-50.013" y2="-39.538" gradientUnits="objectBoundingBox"><stop offset="0" stop-color="#b50000"/><stop offset="1" stop-color="#ffc500"/></linearGradient><linearGradient id="c" x1="-26.954" y1="0.261" x2="-25.932" y2="0.274" gradientUnits="objectBoundingBox"><stop offset="0" stop-color="#d5dfff"/><stop offset="1" stop-color="#fff"/></linearGradient><linearGradient id="d" x1="-148.085" y1="8.332" x2="-146.557" y2="8.332" xlink:href="#a"/><linearGradient id="e" x1="-9.194" y1="-173.518" x2="-9.567" y2="-171.038" xlink:href="#c"/><linearGradient id="f" x1="-49.187" y1="-10.314" x2="-49.587" y2="-9.674" xlink:href="#c"/></defs><g transform="translate(0 -88.3)"><path d="M503.2,423.7H8.8A8.813,8.813,0,0,1,0,414.9V97.1a8.813,8.813,0,0,1,8.8-8.8H503.1a8.813,8.813,0,0,1,8.8,8.8V414.9A8.665,8.665,0,0,1,503.2,423.7Z" fill="#41479b"/><path d="M247.2,88.3H231.9l-81.8,53.6V88.3H106v53.6L24.2,88.3H8.8A8.813,8.813,0,0,0,0,97.1v7l70.2,46H0v44.1H70.2L0,240.2v7A8.813,8.813,0,0,0,8.8,256H24.1l81.8-53.6V256H150V202.4L231.8,256h15.3a8.813,8.813,0,0,0,8.8-8.8v-7l-70.2-46H256V150.1H185.8l70.2-46v-7A8.813,8.813,0,0,0,247.2,88.3Z" fill="#f5f5f5"/><path d="M256,158.9H141.2V88.3H114.8v70.6H0v26.5H114.8V256h26.4V185.4H256Z" fill="#ff4b55"/><path d="M97.1,150.1,4.2,89.8A8.529,8.529,0,0,0,0,97.1v.5l80.9,52.5Z" fill="#ff4b55"/><path d="M166.3,150.1l88.4-57.4a8.581,8.581,0,0,0-7.5-4.4h-1.9l-95.2,61.8Z" fill="#ff4b55"/><path d="M89.5,194.2,1.3,251.5A8.631,8.631,0,0,0,8.9,256h1.7l95.2-61.8Z" fill="#ff4b55"/><path d="M255.9,247.9l-82.7-53.7H157l93.9,60.9A8.752,8.752,0,0,0,255.9,247.9Z" fill="#ff4b55"/><g transform="translate(461.4 21.482)"><path d="M-76.321,308.637s-1.49,3.912-2.3,3.912-3.912-1.677-3.912-1.677-2.236,3.6-3.353,3.788a17.961,17.961,0,0,1-4.223-.5s-2.919,0-3.043-.435a2.95,2.95,0,0,1,.124-1.242s-4.223,3.353-5.154,3.167-4.1-4.223-4.1-4.223l-.5,2.111-6.024-.186L-114.078,310s-2.919,4.844-3.043,4.72-5.154,1.18-5.154,1.18l-.311-.932-3.353-1.987s2.608-3.664,2.608-3.788-1.242-.559-1.242-.559l-1.925,1.552-3.912,2.546-3.912-1.8,1.677-3.167.186-2.3,3.043-4.658,37.384-36.328,18.444,34.031-2.732,10.122Z" fill="#6a4c2d" stroke="#000" stroke-miterlimit="2.484" stroke-width="0.386"/><path d="M-49.742,310.873l9.75-.373-4.161-2.049,37.074-1.366L-12.3,305.1l-4.658-6.272L-36.142,297.4a4.632,4.632,0,0,0-3.788-.559c-.124-1.49-1.925-3.415-1.925-3.415l-11.8-.869-7.39,5.03,4.968,12.793,6.334.5Z" fill="#fff" stroke="#000" stroke-miterlimit="2.484" stroke-width="0.386"/><path d="M-87.623,201.887l.994-3.353s1.739-2.919,1.739-4.161a5.4,5.4,0,0,1,1.3-2.795s3.912-1.118,4.72,1.3c4.223-6.4,9.191-.311,9.191-.311l1.366-1.615,2.795-3.416s3.974,3.726,4.036,4.347.683.186.683.186l4.285-.373A5.128,5.128,0,0,1-54.9,196.36c1.49.869,2.919,6.148,2.919,6.148Z" stroke="#000" stroke-miterlimit="2.484" stroke-width="0.386" fill="url(#a)"/><path d="M-49.742,241.569c.745-.435,3.1-1.18,2.795-4.6s-3.229-3.85-4.906-3.726a6.037,6.037,0,0,0-3.167,1.552l-5.465-3.478s2.732-17.326,5.651-18.382c2.794-1.987,3.229-2.857,3.229-3.291s-1.056-1.615-1.056-1.615l-17.885-2.111-16.891,1.987s-1.3,1.987-1.118,2.794.248,1.677,3.229,3.974c3.353,2.608,5.651,17.388,5.651,17.388s-4.72,2.36-5.03,2.049a4.263,4.263,0,0,0-2.484-.435,4.56,4.56,0,0,0-3.229,4.6,7,7,0,0,0,2.484,5.154s16.146-1.863,18.568,2.546C-66.944,240.575-51.605,242.438-49.742,241.569Z" fill="#656263" stroke="#000" stroke-miterlimit="2.484" stroke-width="0.386"/><path d="M-32.354,223.56a4.319,4.319,0,0,1,1.49-2.794c1.366-.869,10.309-1.366,12.42,0,2.173,1.366,2.981,7.949,2.981,7.949a10.844,10.844,0,0,1,1.428,4.036,26.576,26.576,0,0,0,.248,2.857s7.142,9.315,7.266,17.7c.807,5.713.621,21.052-1.615,26.827a24.186,24.186,0,0,1-3.1,11.985,5.591,5.591,0,0,1,.621,2.608,6.341,6.341,0,0,1-.807,2.608l10.495,5.216-3.85-1.428s3.912,3.291,3.85,3.229S-5.341,302.3-5.341,302.3l2.608,2.608c-.062-.062-6.334-2.857-6.334-2.857s2.981,2.794,2.794,2.67c-.186-.062-4.72-2.236-4.72-2.236s2.857,3.043,2.795,2.857-4.1-1.8-4.1-1.8l.186,1.49s-3.229-.186-3.229-2.608a9.779,9.779,0,0,1-2.67-2.173l-7.452-1.242-8.446-25.15,1.987-42.476.559-2.173-.994-5.651Z" stroke="rgba(0,0,0,0.98)" stroke-linejoin="round" stroke-miterlimit="2.484" stroke-width="0.482"/><path d="M-37.943,359.373s-4.285-9.067-6.458-9.191c-1.925-3.726,6.707-33.907,23.536-35.645,9.253.745.745,10.619-5.278,7.576.745,2.67,3.788,6.458,3.788,6.458s-12.047,5.216-15.587,30.8Z" fill="#fb0" stroke="#000" stroke-miterlimit="2.484" stroke-width="0.383"/><path d="M-95.7,360.739s3.54-10.309,5.713-10.433S-95.7,315.9-112.9,315.654c-9.315.745-.745,10.681,5.341,7.638-.745,2.67-3.85,6.52-3.85,6.52S-99.3,334.967-95.7,360.739Z" fill="#fb0" stroke="#000" stroke-miterlimit="2.484" stroke-width="0.386"/><path d="M-79.923,296.279c-.062-.062-4.285,1.3-1.552,5.9a4.286,4.286,0,0,1,2.111-2.857s-2.919,3.415.186,6.334a4.632,4.632,0,0,1,2.111-3.6s-2.174,6.334.062,7.638a5.151,5.151,0,0,1,1.863-3.664s-1.925,5.651-.186,6.955a4.145,4.145,0,0,1,1.677-3.1s-.869,5.9,1.428,6.272a8.3,8.3,0,0,1,1.677-4.1s-.745,4.782,2.795,5.03a18.806,18.806,0,0,1,.683-3.912s1.615,5.092,3.974,4.285c-.062-1.49.062-4.285,0-4.285s1.49,4.844,4.285,3.912a5.2,5.2,0,0,1,.186-2.981s1.49,3.043,4.161,2.049a4.765,4.765,0,0,0-.124-2.67s3.912,4.036,5.154,1.615c1.18-2.422-3.167-3.291-3.167-3.291h2.919s-.931-2.484-4.906-3.043a4.376,4.376,0,0,1,2.794-.186s-.807-3.105-4.906-3.415a6.82,6.82,0,0,1,3.291-.186s-.559-2.919-5.03-3.788c.683-.807,2.608-.559,2.608-.559s-1.8-2.794-3.788-2.608c-2.049.248-20.369-1.8-20.307-1.739Z" fill="#00713d" stroke="#000" stroke-miterlimit="2.484" stroke-width="0.386"/><path d="M-61.852,311.245s1.615.807,1.552,1.49" fill="none" stroke="#3ec26d" stroke-linecap="round" stroke-miterlimit="2.484" stroke-width="0.482"/><path d="M-60.858,309.941s2.049,1.428,2.049,2.546" fill="none" stroke="#3ec26d" stroke-linecap="round" stroke-miterlimit="2.484" stroke-width="0.482"/><path d="M-59.057,309.2a3.839,3.839,0,0,1,1.739,2.67" fill="none" stroke="#3ec26d" stroke-linecap="round" stroke-miterlimit="2.484" stroke-width="0.482"/><path d="M-56.263,309.879s.807,1.8.559,2.111" fill="none" stroke="#3ec26d" stroke-linecap="round" stroke-miterlimit="2.484" stroke-width="0.482"/><path d="M-54.648,310.81c.124,1.428-.124,1.553-.124,1.553" fill="none" stroke="#3ec26d" stroke-linecap="round" stroke-miterlimit="2.484" stroke-width="0.482"/><path d="M-75.079,301.93s1.925,1.242,1.8,2.981" fill="none" stroke="#3ec26d" stroke-linecap="round" stroke-miterlimit="2.484" stroke-width="0.482"/><path d="M-75.2,303.421s.931.869.683,1.428" fill="none" stroke="#3ec26d" stroke-linecap="round" stroke-miterlimit="2.484" stroke-width="0.482"/><path d="M-72.781,301.93s1.3,1.8.869,3.043" fill="none" stroke="#3ec26d" stroke-linecap="round" stroke-miterlimit="2.484" stroke-width="0.482"/><path d="M-70.608,303.11s.559,1.118.062,1.739" fill="none" stroke="#3ec26d" stroke-linecap="round" stroke-miterlimit="2.484" stroke-width="0.482"/><path d="M-69.552,303.669s.683,1.118.062,1.49" fill="none" stroke="#3ec26d" stroke-linecap="round" stroke-miterlimit="2.484" stroke-width="0.482"/><path d="M-70.359,307.333s1.8.435,2.049,1.8" fill="none" stroke="#3ec26d" stroke-linecap="round" stroke-miterlimit="2.484" stroke-width="0.482"/><path d="M-69.242,306.091a2.316,2.316,0,0,1,2.111,2.174" fill="none" stroke="#3ec26d" stroke-linecap="round" stroke-miterlimit="2.484" stroke-width="0.482"/><path d="M-66.757,305.408c.062,0,1.3,2.174,1.056,2.919" fill="none" stroke="#3ec26d" stroke-linecap="round" stroke-miterlimit="2.484" stroke-width="0.482"/><path d="M-64.273,305.594s.5,2.111.124,2.795" fill="none" stroke="#3ec26d" stroke-linecap="round" stroke-miterlimit="2.484" stroke-width="0.482"/><path d="M-62.721,306.4c0,.062.062,2.422.062,2.422" fill="none" stroke="#3ec26d" stroke-linecap="round" stroke-miterlimit="2.484" stroke-width="0.482"/><path d="M-65.143,303.11a1.724,1.724,0,0,1,1.118,1.615" fill="none" stroke="#3ec26d" stroke-linecap="round" stroke-miterlimit="2.484" stroke-width="0.482"/><path d="M-64.025,302.054a2.759,2.759,0,0,1,1.366,2.546" fill="none" stroke="#3ec26d" stroke-linecap="round" stroke-miterlimit="2.484" stroke-width="0.482"/><path d="M-62.224,301.309a3.965,3.965,0,0,1,.807,3.291" fill="none" stroke="#3ec26d" stroke-linecap="round" stroke-miterlimit="2.484" stroke-width="0.482"/><path d="M-59.926,301.682a8.767,8.767,0,0,0-.311,2.732" fill="none" stroke="#3ec26d" stroke-linecap="round" stroke-miterlimit="2.484" stroke-width="0.482"/><path d="M-58.5,303.048s-.869.683-.435,1.49" fill="none" stroke="#3ec26d" stroke-linecap="round" stroke-miterlimit="2.484" stroke-width="0.482"/><path d="M-66.012,310.624s.311,1.49,0,1.739" fill="none" stroke="#3ec26d" stroke-linecap="round" stroke-miterlimit="2.484" stroke-width="0.482"/><path d="M-67.937,309.755s.932,1.677.621,2.484" fill="none" stroke="#3ec26d" stroke-linecap="round" stroke-miterlimit="2.484" stroke-width="0.482"/><path d="M-69.987,309.631a4.538,4.538,0,0,1,1.056,2.236" fill="none" stroke="#3ec26d" stroke-linecap="round" stroke-miterlimit="2.484" stroke-width="0.482"/><path d="M-71.6,309.879s.994.931.932,1.49" fill="none" stroke="#3ec26d" stroke-linecap="round" stroke-miterlimit="2.484" stroke-width="0.482"/><path d="M-72.471,311.369a6.513,6.513,0,0,1,.931,1.18" fill="none" stroke="#3ec26d" stroke-linecap="round" stroke-miterlimit="2.484" stroke-width="0.482"/><path d="M-93.088,243.308c4.6-.062,9.129-.186,13.724-.248,0,0,9.067,0,10.06,2.919,1.739-3.912,9.563-3.664,9.563-3.664,4.72-.186,9.439-.311,14.221-.5.062,11.426.186,22.853.248,34.279a36.888,36.888,0,0,1-22.977,26.7c-12.668-4.1-20.617-14.78-23.225-26.889-.621-10.868-1.118-21.735-1.615-32.6Z" fill="#fff" stroke="#000" stroke-miterlimit="2.484" stroke-width="0.386"/><path d="M-88.244,243.184-68.31,296.4-50.3,242.066c-5.589.373-17.574-.869-19.065,4.223C-71.6,241.693-84.27,243.556-88.244,243.184Z" fill="#006b00" stroke="#000" stroke-miterlimit="2.484" stroke-width="0.386"/><path d="M-74.644,272c.745.373.745-14.407,1.739-14.9.311-1.242.435-1.739.807-3.043-.869-1.553-4.782-1.49-6.21-.124a26.149,26.149,0,0,0,.931,2.732C-75.389,259.826-75.762,272.371-74.644,272Z" fill="#ffc900" stroke="#006b00" stroke-linecap="round" stroke-miterlimit="2.484" stroke-width="0.266"/><path d="M-79.985,157.3a11.741,11.741,0,0,0,1.49-1.987c.062-.373,6.4-.621,10.184-7.7,2.111-3.726,0-1.553,0-1.553l-.124-1.8s2.608-2.484,1.677-3.85c-.994-1.366-.621,1.739-2.174,1.677s-.683-3.353-.683-3.353a1.026,1.026,0,0,0-.559-.559c-.621.062-.435,1.242-1.056,1.366-.559.124-1.118-2.67-1.118-2.67s-.932-1.3-1.8,2.732c.435,4.285,3.229,3.478,3.229,6.272s-2.422,5.03-3.167,5.092c-.683.062-.435-2.36-.435-2.36s-.373-1.18-.621-1.18,1.428-.248,1.18-3.478c-.559-3.85-1.056.869-2.049.683-1.056-.186-.248-3.54.124-3.912s-.435-1.987-2.67,2.111c-.186,1.987-.435-.5-.869-.373a3.668,3.668,0,0,0,.435,4.223c1.615,1.49,2.608,2.919,2.546,3.726-.062.745-.869,2.484-2.049,2.484s.062-2.111,0-2.795-1.987-3.291-1.987-3.291a15.741,15.741,0,0,1-1.242-2.236c.124-.062-.124-.373-.745,1.863s-1.428-1.49-1.428-1.49-.869,2.732,1.056,4.409c-1.49-.186-1.615.373-1.615.373,0,.745,1.987,1.118,2.236,2.422.248,1.366-2.049,2.111-2.049,2.111s.994,1.366,3.664-1.3a4.15,4.15,0,0,1-.994,2.794c.807.559,1.49.559,1.615,1.553Z" fill="#cdad56" stroke="#000" stroke-linejoin="round" stroke-miterlimit="2.484" stroke-width="0.482"/><path d="M-88.741,157.3a19.109,19.109,0,0,1-1.242-2.111c-.062-.373-5.9.435-8.632-6.707-1.8-3.353,0-1.428,0-1.428l.124-1.615s-1.925-2.36-1.118-3.54c.807-1.242.5,1.553,1.553,1.553,1.3-.062.621-3.043.621-3.043a.848.848,0,0,1,.5-.5c.559.062.745,1.8,1.242,1.925s1.49-2.049,1.8-2.484c.435-.062.435-1.8,1.118,1.863-.373,3.912-3.6,3.167-3.6,5.713s2.049,4.533,2.67,4.6.373-2.174.373-2.174.31-1.056.559-1.056-1.925.435-1.677-2.484c.5-2.732,1.552.186,2.422,0s-.124-2.857.124-3.291c.062-.435,1.366-2.174,1.863,1.739.186,1.8,1.18-1.553,1.552-1.428.683,1.428-.311,3.415-1.242,4.72a5.552,5.552,0,0,0-1.925,3.54c.062.683.373,1.553,1.366,1.553s.311-1.242.373-1.863a12.437,12.437,0,0,1,1.677-2.732c.311-.5.062-1.49.373-1.925.559,0,.745-.745,1.3,1.3s1.18-1.366,1.18-1.366.745,2.484-.869,4.036c1.242-.186,1.366.373,1.366.373,0,.683-.621.994-.807,2.236a2,2,0,0,0,.621,1.925s-.807,1.242-3.105-1.18A3.93,3.93,0,0,0-87.313,156C-88.058,156.43-88.679,156.368-88.741,157.3Z" fill="#cdad56" stroke="#000" stroke-linejoin="round" stroke-miterlimit="2.484" stroke-width="0.424"/><path d="M-53.53,251.132c-1.18-1.056-1.3-.124-1.925-.373a2.345,2.345,0,0,1-.745-.621,1.816,1.816,0,0,0-.745-.435c-.124.311-.186.621-.31.931s.31.869.31,1.3a1.619,1.619,0,0,1-1.3,1.553c.248-.5.373-.559.31-1.18-.062-.311-.931-.869-.807-1.18a2.138,2.138,0,0,0,.248-1.49c-.373.248-.869.124-1.242.248-.311.124-.311.683-.745.932a2.845,2.845,0,0,1-2.236-.373c.5-.373.931-.124,1.428-.5.248-.186.248-.994.5-1.18s.869-.373,1.118-.559c-.248-.248-.186-.683-.435-.931s-1.242-.186-1.428-.435c-.435-.5-.373-1.18-.807-1.677,1.18.435.994.994,1.3.932a1.929,1.929,0,0,1,1.366-.186c.311.124.807.807,1.118.932.124-.311.248-.745.373-1.056s-.5-.869-.373-1.18c.248-.621.745-1.18.994-1.863.062.621.186,1.118.248,1.739.062.311.621.5.683.807s-.31,1.056-.31,1.366c.31-.062.807,0,1.118-.062s.559-.807.869-.931a4.406,4.406,0,0,1,1.8.062c-.5.435-.869.435-1.18.869-.248.186.124.807-.621,1.242-.248.186-.994,0-1.242.186.248.248.435.5.683.745s1.242.373,1.428.621a2.246,2.246,0,0,1,.559,1.739Z" fill="#ffc900"/><path d="M-84.27,251.691c1.18-1.056,1.3-.124,1.925-.373a2.345,2.345,0,0,0,.745-.621,1.816,1.816,0,0,1,.745-.435,4.654,4.654,0,0,1,.311.994c.124.311-.311.869-.311,1.3a1.575,1.575,0,0,0,1.242,1.553c-.248-.5-.373-.559-.311-1.18.062-.311.932-.869.807-1.18a2.138,2.138,0,0,1-.248-1.49c.373.248.869.124,1.242.248.311.124.311.745.745.931a2.845,2.845,0,0,0,2.236-.373c-.5-.373-.932-.124-1.428-.5-.248-.186-.248-.994-.5-1.18s-.869-.373-1.118-.559c.248-.248.186-.683.435-.932s1.242-.186,1.428-.435c.435-.5.373-1.18.807-1.677-1.18.435-.994.994-1.3.931a1.929,1.929,0,0,0-1.366-.186c-.311.124-.807.807-1.118.931-.124-.311-.248-.745-.373-1.056s.5-.869.373-1.18c-.186-.621-.745-1.18-.994-1.863-.062.621-.186,1.118-.248,1.739-.062.311-.621.5-.683.807s.311,1.056.311,1.3c-.311-.062-.807,0-1.118-.062s-.559-.869-.869-.932a4.406,4.406,0,0,0-1.8.062c.5.5.869.435,1.18.869.248.186-.124.807.621,1.242.248.186.994,0,1.242.186-.248.248-.435.5-.683.745s-1.242.373-1.428.621a2.365,2.365,0,0,0-.5,1.739Z" fill="#ffc900"/><path d="M-54.648,254.548c-1.056.869-8.073,2.608-8.135,8.694s1.242,7.452-.062,7.576c-2.546,0-2.857-6.769-2.794-9.75s.124-2.546.124-2.546,1.739.435,1.615,1.925c-.124,1.428,1.739-3.6,1.056-4.968a2.486,2.486,0,0,0,2.67.621,19.293,19.293,0,0,1-1.242-1.677c-.373-.683,1.3.373,1.3.373s.062-1.18-1.366-1.056c-1.863,0,.311-.621.311-.621s1.056.994,1.8-.062a5.877,5.877,0,0,0-1.925-1.3s-.994-1.925-2.36-2.3c-1.615-.373-1.366.683-3.167.559-.373.683-.373.745.373.994-1.242.869-.559,2.546-.559,2.546s1.925-.869,1.863.559c-.062,1.366-1.18,1.18-1.863.311-.621-.373-.869.373-.869.373l.994,1.056s-1.925-.062-2.422,1.242a3.563,3.563,0,0,1,1.677.248s-2.236.994-2.422,1.552-.311-.621-.373-.621-2.174-.745-2.174-.745l-.745,3.291s1.428,1.428,2.236.994,2.236-1.863,3.105-1.428c-2.546,1.925-5.03,4.657-6.4,5.092-.373-.31-1.552-1.552-2.111-.931-.5.621-.124,1.366.5,1.3s-2.111.621-1.49,1.739c.559,1.18.5,1.056.994.745s-.435-.373,1.428-.931,1.8-1.056,1.8-1.056a1.945,1.945,0,0,1-1.366,1.056c-.994.248-1.8.248-1.552.559.186.31.621.869.5,1.18s2.111-1.615,2.67-.062c1.49-.062,2.546-1.925,1.8-2.981.062,1.18.807,1.552.373,2.049-.435.559,3.415-1.739,1.49-3.167a7.167,7.167,0,0,1,.559,2.049s.869-.062,1.056-.373-.435.869-.124,1.056c.311.248,1.677,1.552,1.056,2.484-.373-.559-.435-1.366-.869-1.3s-2.236,1.366-3.291,1.428,1.3,3.974,1.3,3.974-1.677-.248-1.863-.062c-.186.124-1.3-1.366-1.49-.435-.373,1.18.373.683.373.683s-.931-.435-1.428.062c-.5.559-.994,1.056-.621,1.3a4.387,4.387,0,0,0,2.174.124c.186-.062-1.8.124-1.925.373s-.435,1.056,0,1.366a1.453,1.453,0,0,0,1.552-.373c.062-.248.124.869.124.869a1.691,1.691,0,0,0,1.863-1.739c0-1.925.124,1.366.124,1.366a1.594,1.594,0,0,0,1.925-1.615c.062-1.925.186,1.3.186,1.3s1.242-.373,1.242-.683-.062,3.85-.932,4.968a1.541,1.541,0,0,0-2.236.621,21.667,21.667,0,0,1-.062,2.732c-.124.559.932-.311.994-.559s1.366-.869,1.428-.994.435-.931.435-.931-.31,1.056-.807,1.242c-.5.124-.994.683-.807,1.18.186.435.994.745,1.3,1.242.311.435,1.3-2.67,1.3-2.67l.062.683s1.3-.31,1.428-.931-1.366-1.18-.124-2.173,0,.931,0,.931.435,1.428.745,1.428.994-2.794.311-3.478c-.745-.683,1.056.869,1.056.869s.994-2.857-.062-3.229-1.615-.559-1.615-.559.559-.745.311-.869c-.311-.062,1.49,1.677,1.8,1.242s.745-1.863-1.366-2.608-.062-2.919-.062-2.919,1.3,1.552,2.236.683-.062-.869-.062-.869,2.67-1.677,2.732-2.546a6.848,6.848,0,0,0-1.366.062,2.748,2.748,0,0,0,1.18-2.608,1.753,1.753,0,0,1-1.366.869s1.3-1.3,1.056-2.546c-.807.621-.745,1.056-1.242.932s-1.366-4.968.621-5.279.931,2.36.994,2.36,3.043-1.242,0-3.229c.745-.248,2.236,1.18,2.236,1.18s-.621-3.353-3.912-1.3c.807-.869,1.3-1.366,1.925-1.242s2.981-.062,2.981-.745c-.559-.435-1.8.248-2.422,0-.683-.186,4.533-.621,4.1-3.229Z" fill="#ffc900" stroke="#006b00" stroke-linecap="round" stroke-linejoin="round" stroke-miterlimit="2.484" stroke-width="0.266"/><path d="M-77.439,256.535s2.857-1.615,4.347.373" fill="none" stroke="#006b00" stroke-linecap="round" stroke-width="0.776"/><path d="M-71.974,260.013c-.062,0-.994.994-1.242.994" fill="none" stroke="#006b00" stroke-linecap="round" stroke-width="0.776"/><path d="M-70.049,263.242a4.943,4.943,0,0,0,4.409-2.608" fill="none" stroke="#006b00" stroke-linecap="round" stroke-width="0.776"/><path d="M-67.13,262.372s.186,1.552.621,1.552-.745.373-1.18.062c.5.683.807,1.925,0,2.36" fill="none" stroke="#006b00" stroke-linecap="round" stroke-width="0.776"/><path d="M-68.558,281.748a3.807,3.807,0,0,1-2.111,1.18" fill="#e80000" stroke="#006b00" stroke-linecap="round" stroke-width="0.776"/><path d="M-67.441,276.842s-.559-3.043-.186-3.85c.186-.994,1.18-1.366,1.863-2.67" fill="none" stroke="#006b00" stroke-linecap="round" stroke-width="0.776"/><path d="M-67.751,274.606s-.745,1.863-3.912,1.242" fill="none" stroke="#006b00" stroke-linecap="round" stroke-width="0.776"/><path d="M-66.882,270.011s.186,2.484-2.67,1.552" fill="none" stroke="#006b00" stroke-linecap="round" stroke-width="0.776"/><path d="M-70.421,258.957a2.626,2.626,0,0,0-.745,2.546" fill="none" stroke="#006b00" stroke-linecap="round" stroke-width="0.776"/><path d="M-66.074,256.287a10.072,10.072,0,0,0,1.8-.932,4.113,4.113,0,0,0,.931-1.366c.124-.435-.994-1.18-.435-2.174.373-.435.869-.559,1.739,0s-.807-1.677-1.677-1.739-1.428.621-1.677.435c-.186-.124.062.621-.311.621s.745.621.621.994c-.062.373,1.18,1.677,1.056,1.987C-63.963,254.424-65.7,256.163-66.074,256.287Z" fill="#006b00"/><path d="M-65.019,251.195c.683-.186.745,0,.621.621A2.927,2.927,0,0,1-65.019,251.195Z" fill="#ffc900" stroke="#ffc900" stroke-linecap="round" stroke-linejoin="round" stroke-width="0.776"/><path d="M-69.614,285.412s-.248,1.615.373,1.739a2.48,2.48,0,0,1,.248-1.242c-.124-.062-.559-.5-.621-.5Z" fill="#e80000" stroke="#006b00" stroke-linejoin="round" stroke-width="0.776"/><path d="M-70.918,283.424c-.559-.062-1.49.373-1.18.994.435-.435.869.062,1.18-.373a2.082,2.082,0,0,0,0-.621Z" fill="#e80000" stroke="#006b00" stroke-linejoin="round" stroke-width="0.776"/><path d="M-70.918,282.245s-.869-.124-.994.5c.621-.062.745-.124.994,0v-.5Z" fill="#e80000" stroke="#006b00" stroke-linejoin="round" stroke-width="0.776"/><path d="M-74.582,273.24a1.253,1.253,0,0,1,.683.745C-73.526,273.737-73.34,272.495-74.582,273.24Z" fill="#e80000" stroke="#006b00" stroke-linejoin="round" stroke-width="0.621"/><path d="M-75.824,274.606s1.056-.683,1.18-.062c-.248.248-.311.373-.5.435C-75.327,274.979-75.576,274.544-75.824,274.606Z" fill="#e80000" stroke="#006b00" stroke-linejoin="round" stroke-width="0.621"/><path d="M-75.948,276.78s.683-.621.932-.248c.248.435-.186.373-.186.373A7.025,7.025,0,0,0-75.948,276.78Z" fill="#e80000" stroke="#006b00" stroke-linejoin="round" stroke-width="0.621"/><path d="M-76.88,264.422s-.869-.373-1.18.248a1.658,1.658,0,0,1,.994.5C-77.128,264.981-77.252,264.546-76.88,264.422Z" fill="#e80000" stroke="#006b00" stroke-linejoin="round" stroke-width="0.621"/><path d="M-78.494,269.079a2.845,2.845,0,0,1,.5-1.49c.248.186.311.435.5.745a1.016,1.016,0,0,0-.994.745Z" fill="#e80000" stroke="#006b00" stroke-linejoin="round" stroke-width="0.621"/><path d="M-76.259,268.334s-.931.435-.621.931a.565.565,0,0,1,.621-.248Z" fill="#e80000" stroke="#006b00" stroke-linejoin="round" stroke-width="0.621"/><path d="M-77.625,258.336c-.311.373.435,1.242,1.18,1.118C-76.259,258.522-77.439,258.025-77.625,258.336Z" fill="#ffc900" stroke="#006b00" stroke-linejoin="round" stroke-width="0.621"/><path d="M-77.625,256.535c-.186.435.5,1.056.869.869C-76.631,256.97-77.439,256.163-77.625,256.535Z" fill="none"/><path d="M-76.756,257.591s.124.745.807.559a2.314,2.314,0,0,0-.559-.994C-76.569,257.342-76.445,257.591-76.756,257.591Z" fill="#e80000" stroke="#006b00" stroke-linejoin="round" stroke-width="0.621"/><path d="M-76.321,259.764s.373.435,1.118-.435c-.311.124-.932-.186-.932-.186S-76.135,259.7-76.321,259.764Z" fill="#e80000" stroke="#006b00" stroke-linejoin="round" stroke-width="0.621"/><path d="M-77.625,256.659c-.311.373.124.931.932.807C-76.569,256.535-77.439,256.349-77.625,256.659Z" fill="#ffc900" stroke="#006b00" stroke-linejoin="round" stroke-width="0.621"/><path d="M-77.314,252.933s3.105-.869,4.72.435,1.615.124,1.615.124,2.422.869,3.105.683-.5.062.435-.5-1.925.124-2.174-1.056c-.435-.745.062-1.739-.931-1.366-.683-.869.435-1.49.186-2.484-.683.5-1.056-.186-1.677,1.056-1.3-.248-.186-2.111-1.615-2.3,0,1.3-1.056,1.366-1.118,2.174C-75.389,250.2-78.184,251.815-77.314,252.933Z" fill="url(#b)"/><path d="M-113.022,353.846c1.987-.5,12.917,2.422,17.14,6.893a67.148,67.148,0,0,0-3.105-14.159s-6.521-1.863-7.39-.931C-107.743,347.015-111.656,351.113-113.022,353.846Z" fill="#c01500" stroke="#000" stroke-miterlimit="2.484" stroke-width="0.386"/><path d="M-116.375,316.772a3.374,3.374,0,0,0-2.3,1.925c-.869,2.173-1.552,7.638-2.794,8.942-1.3,1.3-2.422,1.428-2.422,2.546a4.582,4.582,0,0,0,3.54,4.844c3.416.124,8.942-5.465,8.942-5.465a21.864,21.864,0,0,0,3.974-6.4c-6.645,2.236-11.364-3.85-8.942-6.4Z" fill="#c01500" stroke="#000" stroke-miterlimit="2.484" stroke-width="0.386"/><path d="M-20.555,352.542c-1.987-.5-13.041,2.422-17.2,6.893a67.146,67.146,0,0,1,3.1-14.1c.745-.186,6.4-1.863,7.266-.931C-26.082,345.773-21.921,349.871-20.555,352.542Z" fill="#c01500" stroke="#000" stroke-miterlimit="2.484" stroke-width="0.383"/><path d="M-17.45,315.716c.745.124,1.056,1.118,1.677,2.422.869,2.174,1.8,5.279,3.043,6.521s2.422,3.167,2.422,4.285-.248,2.67-3.664,3.664c-3.416.124-8.383-4.285-8.383-4.285a21.152,21.152,0,0,1-3.912-6.334c6.521,2.36,10.743-3.54,8.818-6.272Z" fill="#c01500" stroke="#000" stroke-miterlimit="2.484" stroke-width="0.383"/><path d="M-120.163,346.828s6.893,4.72,7.017,6.893c18.444-27.386,65.578-35.894,92.467-1.925a19.182,19.182,0,0,1,7.266-6.21C-41.731,308.637-97.994,313.232-120.163,346.828Z" fill="#fb0" stroke="#000" stroke-miterlimit="2.484" stroke-width="0.386"/><g transform="translate(0 0)"><path d="M-50.115,242.066l2.67-.062-4.782,6.086,5.775,6.707-11.364,14.283,10.681,12.855a34.637,34.637,0,0,1-4.347,7.887l-6.148-6.769,11.178-13.91-9.191-10.371Z" fill="#1e5aa6" stroke="#000" stroke-miterlimit="2.484" stroke-width="0.386"/><path d="M-88.555,243.246l-2.857.062,5.4,5.837-5.713,7.142L-79.861,269.2l-9.812,13.165a39.707,39.707,0,0,0,4.657,8.446l5.837-7.39-11.985-13.352,8.756-11.178Z" fill="#1e5aa6" stroke="#000" stroke-miterlimit="2.484" stroke-width="0.386"/><path d="M-75.2,277.9l-4.223,5.651,15.152,17.512a39.036,39.036,0,0,0,7.079-4.72l-7.887-9.129,3.229-9.439,4.6,5.341L-71.663,301.5a32.635,32.635,0,0,1-7.514-4.6l7.638-9.688L-75.2,277.9Z" fill="#1e5aa6" stroke="#000" stroke-miterlimit="2.484" stroke-width="0.386"/><path d="M-79.923,269.079l2.732,3.478-1.8-4.658Z" fill="#1e5aa6" stroke="#000" stroke-miterlimit="2.484" stroke-width="0.386"/><path d="M-60.175,272.184c.062-.062,2.236-2.981,2.236-2.981l-.869-1.18Z" fill="#1e5aa6" stroke="#000" stroke-miterlimit="2.484" stroke-width="0.373"/></g><path d="M-28.318,223.995s2.67-2.3,4.533-2.36" fill="none" stroke="#fff700" stroke-linecap="round" stroke-miterlimit="2.484" stroke-width="0.386"/><path d="M-27.945,223.684c.062-.062,15.9-2.3,16.394-2.794" fill="none" stroke="#fff700" stroke-linecap="round" stroke-miterlimit="2.484" stroke-width="0.386"/><path d="M-27.883,223.808c.062-.062,17.7-1.49,17.7-1.49" fill="none" stroke="#fff700" stroke-linecap="round" stroke-miterlimit="2.484" stroke-width="0.386"/><path d="M-27.945,223.87s18.816-.869,19.934.062" fill="none" stroke="#fff700" stroke-linecap="round" stroke-miterlimit="2.484" stroke-width="0.386"/><path d="M-28.007,223.808s18.444.124,18.754.559" fill="none" stroke="#fff700" stroke-linecap="round" stroke-miterlimit="2.484" stroke-width="0.386"/><path d="M-27.945,223.808l17.7,1.428" fill="none" stroke="#fff700" stroke-linecap="round" stroke-miterlimit="2.484" stroke-width="0.386"/><path d="M-28.131,223.933c.062,0,18.009,1.553,19.81,3.85" fill="none" stroke="#fff700" stroke-linecap="round" stroke-miterlimit="2.484" stroke-width="0.386"/><path d="M-7.328,231.074c-.062-.062-6.148-7.266-20.8-7.141" fill="none" stroke="#fff700" stroke-linecap="round" stroke-miterlimit="2.484" stroke-width="0.386"/><path d="M-28.131,223.995s10.184.683,13.414,4.223" fill="none" stroke="#fff700" stroke-linecap="round" stroke-miterlimit="2.484" stroke-width="0.386"/><path d="M-27.945,223.87s6.583-1.242,13.476,7.017" fill="none" stroke="#fff700" stroke-linecap="round" stroke-miterlimit="2.484" stroke-width="0.386"/><path d="M-32.044,231.447s9.129.373,9.129,1.242-6.831,2.608-6.893,6.334c-.062,3.788,5.216,4.036,5.527,8.756.373,4.72-4.1,5.465-5.03,6.707-.869.621-3.043,7.328-2.795,11.3.248,3.912,1.428,17.264,3.478,19.934,1.615,1.242,4.037,5.279,6.645,4.036s.807-5.837.559-7.079,1.056-3.291,1.056-5.216c0-1.863-.994-3.415-.869-3.85.062-.435,7.266,1.677,6.769,8.756-.435,7.079-3.291,4.906-3.291,4.906s.869,8.694-1.366,9.874a6.142,6.142,0,0,1-6.955-.435l.373,1.739-3.043-1.615s-3.912-5.651-4.844-8.135c-.869-2.484-1.987-13.662-1.615-16.084s.621-16.581.435-17.264c-.186-.745-.869-12.544-.435-14.345C-34.714,239.271-31.981,231.447-32.044,231.447Z" stroke="#000" stroke-miterlimit="2.484" stroke-width="0.386" fill="url(#c)"/><path d="M-41.917,229.087s6.334-6.148,10-5.465c1.863,0,.062,1.366.062,1.366s3.229.248,3.664,1.677c.062.621-1.552.807-1.552.807s1.366.248,1.428,1.428C-28.131,230.08-41.793,229.211-41.917,229.087Z" fill="#ff7000" stroke="#000" stroke-miterlimit="2.484" stroke-width="0.386"/><path d="M-41.545,228.839s6.831-.869,9.688-3.788" fill="none" stroke="#000" stroke-miterlimit="2.484" stroke-width="0.386"/><path d="M-34.652,226.975s5.03-.186,5.03.559" fill="none" stroke="#000" stroke-miterlimit="2.484" stroke-width="0.386"/><path d="M-16.829,300.129s4.285-.994,5.465-2.484C-10.681,297.086-6.893,303.3-16.829,300.129Z" fill="#fff" stroke="#000" stroke-linejoin="round" stroke-miterlimit="2.484" stroke-width="0.482"/><path d="M-18.009,264.608s.559,3.291-.994,5.527c-.807.869-3.229,2.422-3.229,3.478s.869,2.484.745,3.788c-.186,1.242-1.49,2.484-1.428,3.6,0,1.056,1.49,6.831,1.366,6.893" fill="none" stroke="#fff" stroke-linecap="round" stroke-miterlimit="2.484" stroke-width="0.482"/><path d="M-25.9,253.865a6.631,6.631,0,0,0-4.1,4.533" fill="none" stroke="#fff" stroke-linecap="round" stroke-miterlimit="2.484" stroke-width="0.482"/><path d="M-27.324,226.975s1.18,3.229,4.906.186C-24.84,223.808-27.324,227.038-27.324,226.975Z" fill="#c75b00" stroke="#000" stroke-miterlimit="2.484" stroke-width="0.386"/><path d="M-24.529,226.789a.348.348,0,0,1-.373.311c-.248,0-.373-.124-.373-.311a.348.348,0,0,1,.373-.311A.4.4,0,0,1-24.529,226.789Z"/><path d="M-58.063,219.461s7.141,7.7,11.737,7.638c.807,2.236-2.111,4.347-3.291,5.4-2.36-.745-4.471.124-9.936-6.583A26.374,26.374,0,0,1-58.063,219.461Z" fill="#fff" stroke="#000" stroke-miterlimit="2.484" stroke-width="0.386"/><path d="M-48.376,201.514c.931-2.857,2.794-5.092,4.347-5.341-.435-2.173,3.353-11.8,14.345-15.525.683,4.968-4.72,9.812-4.72,9.812s16.208-2.795,19.437-6.893c-.31,1.863-3.6,13.352-20.866,13.227,6.521,6.21-2.111,11.178-5.775,9.626C-34.838,201.266-43.532,198.161-48.376,201.514Z" fill="#fff" stroke="#000" stroke-miterlimit="2.484" stroke-width="0.386"/><path d="M-42.849,197.54c3.291-2.111,4.471-2.111,7.141-1.677a9.2,9.2,0,0,0-1.925.311s-.186.248.994,1.366C-38.005,197.167-39.185,196.422-42.849,197.54Z" fill="#cccccd" stroke="#ccc" stroke-miterlimit="2.484" stroke-width="0.386"/><path d="M-44.153,196.174s6.458-3.415,10.06-5.775" fill="none" stroke="#000" stroke-miterlimit="2.484" stroke-width="0.386"/><path d="M-49.68,232.5s8.88,2.422,9.874-10.309c-1.925-5.527-4.6-17.45-.5-20.866-3.788-2.608-7.887.062-7.887.062-.248.559-3.6,5.341.931,13.724-10.743-2.857-6.4,7.266-6.4,7.266.435-1.615,6.148-3.1,7.576,5.03C-45.457,229.46-49.928,232.564-49.68,232.5Z" fill="blue" stroke="#000" stroke-miterlimit="2.484" stroke-width="0.386"/><path d="M-39.682,222.256a19.023,19.023,0,0,0,9.129-16.829c-7.949.186-10.805,10.495-10.805,10.495Z" fill="blue" stroke="#000" stroke-miterlimit="2.484" stroke-width="0.386"/><path d="M-81.786,221.635s-6.955,6.024-10.93,4.1c-2.919,1.739-6.4-1.366-6.4-1.366s4.036,14.842,18.444,4.1A29.917,29.917,0,0,0-81.786,221.635Z" fill="#fff" stroke="#000" stroke-miterlimit="2.484" stroke-width="0.386"/><path d="M-92.777,225.485c.559-3.105,3.043-4.6,4.968-1.677,2.608.5,5.216-10.122-4.036-8.383,2.608-13.91-5.216-19.127-5.216-19.127s-2.794,15.4-1.49,18.257c1.242,2.857-1.863-5.279-11.8-7.576-.186,11.675,11.178,17.077,11.178,17.077S-96.007,227.1-92.777,225.485Z" fill="blue" stroke="#000" stroke-miterlimit="2.484" stroke-width="0.386"/><path d="M-91.846,215.363s-4.347,3.664-3.353,8.694" fill="none" stroke="#000" stroke-miterlimit="2.484" stroke-width="0.386"/><path d="M-98.491,214.866s-.994,3.6,1.18,8.694" fill="none" stroke="#000" stroke-miterlimit="2.484" stroke-width="0.386"/><path d="M-99.112,224.74s1.987-3.291,6.4.931" fill="none" stroke="#000" stroke-miterlimit="2.484" stroke-width="0.386"/><path d="M-98.3,202.135c0-.062-6.645,0-2.67,6.707-2.919.932-9.5-3.353-4.968-9.067-14.842-.311-20.866-7.452-20.866-13.972,4.347,4.533,14.78,2.67,18.444,5.465a11.946,11.946,0,0,1-3.6-10s12.668,3.788,14.9,15.028C-97.807,198.41-98.118,202.26-98.3,202.135Z" fill="#fff" stroke="#000" stroke-miterlimit="2.484" stroke-width="0.386"/><path d="M-108.489,190.958c2.422,2.484,8.694,3.229,11.923,6.024" fill="none" stroke="#000" stroke-miterlimit="2.484" stroke-width="0.386"/><path d="M-105.57,198.285s5.216-.683,6.707,1.18c-2.049,0-2.732-.5-5.651.621.807-.435.621-1.18,1.056-1.18C-103.024,198.844-105.384,198.285-105.57,198.285Z" fill="#cccccd" stroke="#ccc" stroke-miterlimit="2.484" stroke-width="0.366"/><path d="M-79.674,157.61a4.784,4.784,0,0,1,5.962-.248c-1.428,4.161-6.458,2.608-6.458,2.608a7.78,7.78,0,0,1-.311,3.1c.994.745,1.863,3.291,1.863,3.291s5.216-1.242,6.272.994a12.742,12.742,0,0,1,3.415,0,38.851,38.851,0,0,1,5.465-.994c1.428,0,5.962,1.18,6.4,1.987.435.869,1.925,6.458,2.919,6.4s-2.422,1.366-3.353-.062-.683,1.863-.683,1.863a45.2,45.2,0,0,1,3.167,3.664c.311.683-1.739,6.148-.186,9.874A1.753,1.753,0,0,0-56.7,191.7c-.062,1.677-2.174,2.111-2.174,2.111l-.5-2.236-1.428.869.559-1.739a45.993,45.993,0,0,0,2.111-6.21c.186-1.49-1.739-4.223-3.291-4.223-1.49,0-2.608,4.782-2.608,4.782s-.745,3.6-.5,3.912-.994-1.18-.994-1.18a15.453,15.453,0,0,1-1.18,2.857,3.125,3.125,0,0,1-1.615.931,7.978,7.978,0,0,1-.5-3.043c.248-.807,4.1-4.1,3.788-6.458s0-1.739-.062-1.863c-.062-.062-1.987-1.739-2.111-2.67-.062-.932-2.546,1.18-5.713.5C-73.9,179.717-74.023,184-74.023,184s-.311,5.092.31,5.713c.683.559-1.677,1.863-1.677,1.863l-1.677,2.236s-.559-1.428-.559-1.366a13.3,13.3,0,0,1-1.18.807l.683-1.677c-.062-1.242,1.615-4.72,1.615-7.7,0-2.919.186-6.086.186-6.086a2.813,2.813,0,0,0-3.043,3.043c.062,3.167-.745,3.353-.559,4.285s.994,3.54.745,4.285-1.242.994-1.242.994l-.248.435s-3.1,1.428-3.043,1.987-.062-1.677-.062-1.677l-.186-2.422a4.828,4.828,0,0,0,1.863-4.1c0-2.919-.435-3.353-.311-4.036.062-.683.5-3.1.435-3.353s-1.739.683-2.236.683.931-1.739,1.118-3.043c.186-1.242-1.677,1.18-3.167-.248.683-1.553,1.739-1.987,1.925-3.167s-1.18.994-2.36.186a4.026,4.026,0,0,1,1.242-2.111,4.75,4.75,0,0,0-1.366,0c-.745-.248.869-1.428.932-3.1a3.043,3.043,0,0,0-.932-2.422,13.811,13.811,0,0,1-1.925-2.111,3.526,3.526,0,0,1-.248-1.242s-2.795,1.987-6.024-2.236a5.555,5.555,0,0,1,6.21-.683s.807-2.36,4.72-2.174c3.788.124,4.6,2.3,4.409,2.049Z" fill="#923f00" stroke="#000" stroke-miterlimit="2.484" stroke-width="0.386"/><path d="M-58.56,200.956c.062,0,7.142.186,7.2,3.974s-2.174,2.795-2.236,2.795-5.154-.621-5.154-.621Z" fill="blue" stroke="#000" stroke-miterlimit="2.484" stroke-width="0.386"/><path d="M-65.453,199.9s8.818-.062,8.321,3.788-2.732,3.1-2.732,3.1l-4.285-.373C-64.087,206.42-65.453,199.9-65.453,199.9Z" fill="#fffeff" stroke="#000" stroke-miterlimit="2.484" stroke-width="0.386"/><path d="M-70.421,199.527l5.092.435s3.043.435,2.919,3.353-3.167,2.981-3.167,2.981l-4.968-.311C-70.483,205.986-70.421,199.527-70.421,199.527Z" fill="blue" stroke="#000" stroke-miterlimit="2.484" stroke-width="0.386"/><path d="M-82.345,200.956c-.062,0-7.141.186-7.2,3.974s2.174,2.795,2.236,2.795,5.154-.621,5.154-.621Z" fill="#fff" stroke="#000" stroke-miterlimit="2.484" stroke-width="0.386"/><path d="M-75.514,199.9s-8.818-.062-8.321,3.788,2.732,3.1,2.732,3.1l4.285-.373Z" fill="blue" stroke="#000" stroke-miterlimit="2.484" stroke-width="0.386"/><path d="M-70.546,199.527l-5.092.435s-3.105.435-2.919,3.353c.124,2.919,3.167,2.981,3.167,2.981l4.968-.311Z" fill="#fff" stroke="#000" stroke-miterlimit="2.484" stroke-width="0.386"/><path d="M-56.884,241.88s3.664-5.4,5.216-4.844c1.366.435.311,4.658-.311,5.03Z" fill="#5e0043" stroke="#000" stroke-miterlimit="2.484" stroke-width="0.386"/><path d="M-82.034,242.873c-1.18-1.615-2.857-6.024-4.347-4.844-1.366.435-.311,4.658.311,5.03Z" fill="#5e0043" stroke="#000" stroke-miterlimit="2.484" stroke-width="0.386"/><path d="M-79.55,232.192s7.142,4.409,9.5,4.533,9.75-5.713,9.75-5.713" fill="none" stroke="#000" stroke-miterlimit="2.484" stroke-width="0.386"/><path d="M-78.867,214.928l1.366-1.739,6.831,3.478,6.955-3.105,1.366,1.428-7.763,5.465C-70.111,220.517-78.867,214.928-78.867,214.928Z" fill="#5e0043" stroke="#000" stroke-miterlimit="2.484" stroke-width="0.386"/><path d="M-84.332,214.8c.559.683,4.968,6.086,5.775,10.557s-.435-6.086-.435-6.086,5.465,2.67,5.651,4.409,2.608-.124,2.732-.435l-15.9-10.309Z" fill="#474747" stroke="#474747" stroke-linejoin="round" stroke-miterlimit="2.484" stroke-width="0.482"/><path d="M-57.256,214.493s-5.775,7.576-5.092,15.9c-1.18-3.974-.248-10.495-.248-10.495l-1.242.807s-1.3,5.589-2.981,6.458a3.328,3.328,0,0,1-.248-.932,30.391,30.391,0,0,1-2.111,2.484c-.373.248.124,7.7.124,7.7s.621,5.4,1.3,5.341a15.466,15.466,0,0,0-1.739.994l-.683-14.469,1.615-1.615a11.032,11.032,0,0,0,2.36-5.216,5.208,5.208,0,0,1-1.987,1.056s-.311,3.664-1.118,4.161a1.824,1.824,0,0,0-.869,1.49l-.186-4.782C-70.421,223.374-57.256,214.493-57.256,214.493Z" fill="#474747" stroke="#474747" stroke-linejoin="round" stroke-miterlimit="2.484" stroke-width="0.482"/><path d="M-70.421,223.312l1.118,22.853" fill="none" stroke="#000" stroke-linecap="round" stroke-miterlimit="2.484" stroke-width="0.482"/><path d="M-84.518,234.241s2.608,1.552,3.6,6.21c8.57-.621,11.24,2.422,11.24,2.422s7.017-3.353,10.309-2.732c1.118-2.422,4.409-5.465,4.409-5.465" fill="none" stroke="#000" stroke-miterlimit="2.484" stroke-width="0.386"/><path d="M-88.058,211.823l17.636,11.551,15.9-10.681s3.291-1.8,3.043-3.167c-.311-1.3-1.428-.807-1.987-.559s-16.643,11.613-16.643,11.613l-17.077-10.805s-1.242-.373-1.49.373C-88.927,210.954-88.244,211.451-88.058,211.823Z" fill="#b4b6b9" stroke="#000" stroke-miterlimit="2.484" stroke-width="0.386"/><path d="M-56.511,208.842s-4.533-1.925-4.533-.248a3.682,3.682,0,0,0,.869,2.919c.745,1.056-.559,1.739-.559,1.739s-.186-.5-.435-1.18c-.248-.745-2.67-1.242-2.919-2.111-.186-.869.5-2.236-.932-2.36a2.763,2.763,0,0,0-3.167,2.236,34.659,34.659,0,0,1-2.174,5.527l.248-8.818c3.167.248,9.067.932,13.6,1.428-1.366-.186.5.062.5.559C-56.076,208.9-56.573,208.966-56.511,208.842Z" fill="#474747" stroke="#474747" stroke-linejoin="round" stroke-miterlimit="2.484" stroke-width="0.482"/><path d="M-72.471,206.607a23.694,23.694,0,0,0-5.9,1.056c-.994.621,1.677,1.553,1.3,2.36-.31.807-.373,2.422-1.677,2.111-1.3-.373-5.589-2.484-5.713-3.167-.124-.745-.994-.745-.994-.745S-73.092,206.482-72.471,206.607Z" fill="#474747" stroke="#474747" stroke-linejoin="round" stroke-miterlimit="2.484" stroke-width="0.482"/><path d="M-70.546,205.613v10.805" fill="none" stroke="#000" stroke-miterlimit="2.484" stroke-width="0.386"/><path d="M-78.867,192.883s-4.968,8.011-5.03,8.259" fill="none" stroke="#000" stroke-miterlimit="2.484" stroke-width="0.386"/><path d="M-69.8,192.634s2.174,2.919,1.925,3.788c.869.683,1.863,3.416,1.863,3.416" stroke="#000" stroke-miterlimit="2.484" stroke-width="0.386" fill="url(#d)"/><path d="M-61.417,192.137s-4.658,6.583-4.533,7.079" fill="none" stroke="#000" stroke-miterlimit="2.484" stroke-width="0.386"/><path d="M-85.263,160.963c-.124.373-.683.5-1.3.311s-1.056-.621-.931-.994.683-.5,1.3-.311S-85.2,160.591-85.263,160.963Z"/><path d="M-83.4,160.839c.124.373.683.5,1.3.31s1.056-.621.932-.994-.683-.5-1.3-.311S-83.524,160.466-83.4,160.839Z"/><path d="M-28.939,296.776s-1.739.311-1.677.5a28.01,28.01,0,0,1-5.154.186c-.124-.186-.745.869-.745.869l.807-.5s1.242,1.3,1.615,1.18-.186.5-.062.621.5-.186.5-.186l8.383-.124C-25.275,299.26-28.939,296.776-28.939,296.776Z" fill="#ff7000" stroke="#000" stroke-linejoin="round" stroke-miterlimit="2.484" stroke-width="0.386"/><path d="M-25.834,299.384l-6.831.186a13.978,13.978,0,0,0-1.863,1.925c-.124.373,1.118.5,1.118.5l.373,1.3.869-.31a35.427,35.427,0,0,0,11.178-.311c2.67-.931,3.167-2.049,1.3-2.732-1.863-.745-6.086-.5-6.148-.559Z" fill="#ff7000" stroke="#000" stroke-linejoin="round" stroke-miterlimit="2.484" stroke-width="0.482"/><path d="M-49.245,313.481l12.3-.559-2.3-1.925L-5.9,309.631l-1.18-2.67-37.322,1.49,4.471,2.111-10.06.311.31,1.056-2.67-.124c.062,0,2.981,1.118,3.1,1.677Z" stroke="#000" stroke-miterlimit="2.484" stroke-width="0.386" fill="url(#e)"/><path d="M-35.459,245.357c-.994-.5-5.278-1.056-10.06,2.049l.186,11.054s7.017-3.85,10.495-2.919C-35.024,252.126-35.024,247.717-35.459,245.357Z" stroke="#000" stroke-miterlimit="2.484" stroke-width="0.386" fill="url(#f)"/><path d="M-103.583,278.953l-29.063,28.876" fill="none" stroke="#000" stroke-miterlimit="2.484" stroke-width="0.386"/><path d="M-90.6,279.2l-23.6,31.05" fill="none" stroke="#000" stroke-miterlimit="2.484" stroke-width="0.386"/><path d="M-91.66,271.066-123.144,309.2" fill="none" stroke="#000" stroke-miterlimit="2.484" stroke-width="0.386"/><path d="M-124.138,308.637l3.043-3.6" fill="none" stroke="#000" stroke-miterlimit="2.484" stroke-width="0.386"/><path d="M-85.7,290.255l-12.234,16.829" fill="none" stroke="#000" stroke-miterlimit="2.484" stroke-width="0.386"/><path d="M-98.428,309.32l.311,6.4" fill="none" stroke="#000" stroke-miterlimit="2.484" stroke-width="0.386"/><path d="M-80.109,296.155l-12.979,16.208" fill="none" stroke="#000" stroke-miterlimit="2.484" stroke-width="0.386"/><path d="M-82.407,311.059l5.279-8.632" fill="none" stroke="#000" stroke-miterlimit="2.484" stroke-width="0.386"/><path d="M-80.42,300.75l-6.334,7.142" fill="none" stroke="#000" stroke-miterlimit="2.484" stroke-width="0.386"/><path d="M-82.283,294.043l-4.347,5.279" fill="none" stroke="#000" stroke-miterlimit="2.484" stroke-width="0.386"/><path d="M-87.871,286.343s-13.165,19.251-12.979,20.866" fill="none" stroke="#000" stroke-miterlimit="2.484" stroke-width="0.386"/><path d="M-89.238,283.8c-.311.186-11.364,14.842-11.364,14.842" fill="none" stroke="#000" stroke-miterlimit="2.484" stroke-width="0.386"/><path d="M-101.285,303.3l-1.987,2.422" fill="none" stroke="#000" stroke-miterlimit="2.484" stroke-width="0.386"/><path d="M-105.818,309.382l-3.043,3.974" fill="none" stroke="#000" stroke-miterlimit="2.484" stroke-width="0.386"/><path d="M-105.011,234.614s-.869,2.795,0,4.223,6.521,12.73,6.521,12.73,3.85-4.72,5.216-4.844c1.428-.124.745,12.234.745,12.234s-2.3,2.173-3.664,2.049c-1.428-.124,3.415,4.844,3.291,9.067s-6.4,25.088-8.632,25.461c-2.3.373.994-3.85.869-4.968s-.745-.373-1.3-1.677c-.5-1.3.745-3.167.5-4.471s-1.428-.994-1.552-1.925c-.124-.869.745-1.118.621-2.173-.124-.994-1.553-.745-1.428-1.677a5.037,5.037,0,0,0,.124-2.173c-.124-1.677-.373,1.118-1.8,1.3-1.428.124-2.546,3.291-2.546,3.291s-2.795,3.974-5.589,2.173c1.677,3.54.373,5.092-.248,5.216s.5,2.794-.994,2.919,1.118,5.962-.621,6.521c1.925.869.373,2.049.373,2.049s-4.409.373-3.415,6.086c-12.979-4.6-19.375-12.482-19.251-20.493s2.67-15.277,8.942-17.947a123.912,123.912,0,0,1,4.844-13.786,17.017,17.017,0,0,1-.124-4.844,9.577,9.577,0,0,1,2.174-3.85s-.248-4.6-.124-6.893.994-3.291,1.118-4.6-.373-7.762.869-8.942c1.3-1.118,3.664-.994,4.968-1.8,1.3-.745,2.919-2.174,4.6-2.049a5.952,5.952,0,0,1,3.043,1.3s6.272,0,6.645,2.422a3.034,3.034,0,0,1-1.3,3.291s.932,3.6-2.857,6.769Z" fill="#8a9396" stroke="#2b2b2b" stroke-miterlimit="2.484" stroke-width="0.386"/><path d="M-110.538,225.8c.186.373-.248.994-.994,1.428s-1.552.435-1.739.062.248-.994.994-1.428C-111.532,225.485-110.724,225.423-110.538,225.8Z" fill="#cecfcf" stroke="#2b2b2b" stroke-miterlimit="2.484" stroke-width="0.386"/><path d="M-111.594,226.417a.443.443,0,0,1-.5.435.48.48,0,0,1-.5-.435.443.443,0,0,1,.5-.435A.481.481,0,0,1-111.594,226.417Z"/><path d="M-102.279,230.639s1.552,6.893-.311,11.675" fill="none" stroke="#2b2b2b" stroke-miterlimit="2.484" stroke-width="0.241"/><path d="M-101.844,227.659a14.2,14.2,0,0,1,2.608,8.942" fill="none" stroke="#2b2b2b" stroke-miterlimit="2.484" stroke-width="0.241"/><path d="M-101.534,226.789c.124,0,2.546,2.111,2.422,3.6" fill="none" stroke="#2b2b2b" stroke-miterlimit="2.484" stroke-width="0.241"/><path d="M-100.975,225.858a6.23,6.23,0,0,1,2.049,2.36" fill="none" stroke="#2b2b2b" stroke-miterlimit="2.484" stroke-width="0.241"/><path d="M-101.72,225.175s-5.962,9.625-5.154,15.649" fill="none" stroke="#000" stroke-miterlimit="2.484" stroke-width="0.386"/><path d="M-101.347,224.926s-7.887,4.658-9.315,19.934" fill="none" stroke="#2b2b2b" stroke-miterlimit="2.484" stroke-width="0.241"/><path d="M-102.217,227.721l-3.1,2.36" fill="none" stroke="#000" stroke-miterlimit="2.484" stroke-width="0.386"/><path d="M-113.581,245.73s4.409-18.2,12.172-20.8" fill="none" stroke="#2b2b2b" stroke-miterlimit="2.484" stroke-width="0.241"/><path d="M-98.428,251.878s4.161-5.278,5.154-5.092.683,12.172.683,12.172-3.1,2.36-3.788,2.236,3.478,5.651,3.415,7.763a10.7,10.7,0,0,1-.186,2.111,8.444,8.444,0,0,0-.994-3.291c-.994-2.049-.373-4.409-6.707-9.563-1.552-3.229,3.1,1.925,4.1,1.18.932-.683-1.739-7.39-1.677-7.514Z" fill="#2b2b2b" stroke="#2b2b2b" stroke-miterlimit="2.484" stroke-width="0.386"/><path d="M-105.881,222.256s-1.739.5-1.987,1.18c-.248.745-1.3,1.428-1.863,1.18a10.715,10.715,0,0,1-1.615-1.118" fill="none" stroke="#2b2b2b" stroke-miterlimit="2.484" stroke-width="0.386"/><path d="M-115.879,228.4s-2.67,2.608-1.366,2.981c1.3.311,2.67-2.049,2.67-2.049s0,4.1,1.118,3.415c1.118-.621,4.409-2.981,4.409-2.981a9.842,9.842,0,0,1,1.366,0c.248.062,3.043,2.484,4.906,1.615-1.056,2.732-2.236,3.043-2.236,3.043s-1.925,2.484-4.409,1.925-3.105-1.615-3.105-1.615-2.049.186-2.732-.807a11.328,11.328,0,0,1-.869-1.49s-1.18,1.18-1.49.621C-117.99,232.5-117.679,229.211-115.879,228.4Z" fill="#2b2b2b" stroke="#2b2b2b" stroke-linejoin="round" stroke-miterlimit="2.484" stroke-width="0.482"/><path d="M-100.912,224.74s-4.906-1.428-6.583.931c-1.677,2.422-1.3,3.788-.373,3.974" fill="none" stroke="#2b2b2b" stroke-miterlimit="2.484" stroke-width="0.386"/><path d="M-100.167,224.616a1.028,1.028,0,0,1-.932,1.056,1.028,1.028,0,0,1-.932-1.056,1.028,1.028,0,0,1,.932-1.056A1.028,1.028,0,0,1-100.167,224.616Z"/><path d="M-114.326,237.036s1.987,3.043,4.347,3.912-1.615,1.553-4.036-.062c-1.739-2.36-1.242-4.036-1.242-4.036S-114.823,236.477-114.326,237.036Z" fill="#2b2b2b" stroke="#2b2b2b" stroke-miterlimit="2.484" stroke-width="0.386"/><path d="M-97.311,255.107s-5.589-7.763-7.2-8.2,1.242-.745,2.919.869c1.739,1.615-.435-2.67-.435-2.67Z" fill="#2b2b2b" stroke="#2b2b2b" stroke-miterlimit="2.484" stroke-width="0.386"/><path d="M-114.885,300.005c2.174-.559,11.489,5.341,13.6,6.831s6.521.559,6.521.559a16.592,16.592,0,0,1-3.291,1.553c-1.242.31,3.726.31,3.726.31a35.807,35.807,0,0,1-24.095-3.105C-119.542,301.185-115.816,300.067-114.885,300.005Z" fill="#2b2b2b" stroke="#2b2b2b" stroke-linejoin="round" stroke-miterlimit="2.484" stroke-width="0.482"/><path d="M-101.223,257.032a4.839,4.839,0,0,1-2.36-1.242c-.807-.931-1.925-3.167-3.167-4.161-1.18-.931-7.142-4.223-9.253-3.974-2.174.248-2.795-.248-3.043-.5s-1.118.124-.994,1.242-1.615,3.54-.994,4.72,3.726,5.837,4.347,5.962.248,2.732.248,2.732,2.732,2.732,3.415,2.919c.683.124,1.366.683,1.3,1.3s-2.981,4.223-2.981,4.223-3.167,1.615-3.167,2.546a3.738,3.738,0,0,0,3.229,3.415c2.484.621,9.191.124,9.5-.435a11.162,11.162,0,0,0,.621-4.347,4.335,4.335,0,0,0-2.732-1.242c-.869.124-1.615.869-1.553.994s-1.18.807-1.18.186,2.484-3.353,2.732-3.167c.248.248,3.726.559,4.409,2.36.621,1.739.621,3.043,2.484,2.857a5.517,5.517,0,0,0,4.657-5.4,7.356,7.356,0,0,0-2.608-6.21c-.559-.373-2.484-1.49-2.67-2.049s-.559-2.3-.248-2.732Z" fill="#2b2b2b" stroke="#2b2b2b" stroke-miterlimit="2.484" stroke-width="0.386"/><path d="M-134.322,272.557s5.962-1.552,7.452-1.49c1.552.062,7.328,2.732,9,4.347s5.154,5.527,7.39,5.216a8.968,8.968,0,0,0,2.919-.807l-.869,1.677a7.354,7.354,0,0,1-2.732.248,10.018,10.018,0,0,1-4.533-2.546c-1.8-1.739-7.328-6.521-12.047-6.148s-7.452,4.968-7.452,4.968a17.531,17.531,0,0,1,.248-2.732c.186-.5-.994,1.056-.994,1.056l1.615-3.788Z" fill="#2b2b2b" stroke="#2b2b2b" stroke-miterlimit="2.484" stroke-width="0.386"/><path d="M-112.463,277.152a12.933,12.933,0,0,0,3.912.435,6.215,6.215,0,0,0,3.726-1.056l-.124-.931.373-1.366s1.863,1.925,1.863,2.3c-.062.373-.745.559-.745.559l-.248-.931-.621.807s-3.54,2.857-5.527,2.422c-1.925-.435-3.726-1.677-3.229-1.987C-112.649,277.028-112.4,277.152-112.463,277.152Z" fill="#2b2b2b" stroke="#2b2b2b" stroke-miterlimit="2.484" stroke-width="0.386"/><path d="M-121.1,282.182a8.6,8.6,0,0,0-3.1.435c-.932.435-1.3,1.056-1.925.932-.621-.062-1.118-.932-.932-1.242.248-.559,1.552-1.242,3.912-1.056s2.049.932,2.049.932Z" fill="#2b2b2b" stroke="#2b2b2b" stroke-miterlimit="2.484" stroke-width="0.386"/><path d="M-113.643,288.02c0-.124-.124-3.167-1.366-4.347a3.443,3.443,0,0,0-3.291-1.056c-.621.124,2.422,1.49,2.732,2.36s1.3,3.353,1.056,3.912c-.248.621-.745-1.739-2.67-2.36-1.863-.621-4.471-.311-3.912.559s2.67.062,3.726,1.863a35.834,35.834,0,0,1,1.863,3.726l.373-1.3.932-.248.124-2.484.435-.621Z" fill="#2b2b2b" stroke="#2b2b2b" stroke-miterlimit="2.484" stroke-width="0.386"/><path d="M-115.133,297.77l-1.925-3.912s-.621-2.484-2.236-3.167-3.85-.559-3.85.248c-.062.869,3.54,1.925,3.726,2.36.248.435.124,1.242-.186,1.242-.311.062-1.863-.559-2.67-.373s-1.242,1.242-2.422.931-2.174-4.1-1.739-4.471-.869.683-1.118-.311.373-4.1-.062-4.471a31.855,31.855,0,0,1-2.732-1.987c-.062-.248.124-15.215,12.606-2.857-5.341-6.334-7.452-5.651-8.446-5.713-.745,0-5.589.435-6.831,6.645s-2.67,2.36-2.67,2.36-.248,2.67,1.056,3.415-.621,2.981-.621,2.981-2.36-5.713-1.987-8.2c-.435,1.987-.435,6.955,2.546,12.3,3.415,3.664,6.707,7.017,15.339,10.805,4.409-6.893,4.223-7.7,4.223-7.825Z" fill="#2b2b2b" stroke="#2b2b2b" stroke-linejoin="round" stroke-miterlimit="2.484" stroke-width="0.482"/><path d="M-123.331,297.832s2.546.31,3.229,1.615a12.869,12.869,0,0,1,.994,3.291,5.119,5.119,0,0,1,1.428-2.173c.807-.621,1.428-.683,1.428-1.18-.062-.435-2.67-3.229-4.036-3.415-1.366-.124-3.664,1.428-3.664,1.428s-.435.683.621.435Z" fill="#8a9396" stroke="#2b2b2b" stroke-linejoin="round" stroke-miterlimit="2.484" stroke-width="0.482"/><path d="M-117.555,304.414s6.521,2.981,17.326,3.167" fill="none" stroke="#8a9396" stroke-linecap="round" stroke-miterlimit="2.484" stroke-width="0.482"/><path d="M-95.7,274.047s-.559,5.465-4.782,16.332" fill="none" stroke="#2b2b2b" stroke-linecap="round" stroke-miterlimit="2.484" stroke-width="0.482"/><path d="M-96.565,277.4a16.616,16.616,0,0,1-4.782,6.893" fill="none" stroke="#2b2b2b" stroke-miterlimit="2.484" stroke-width="0.386"/></g><g transform="translate(460 17.5)"><path d="M-114.282,349.587l1.134-1.26.378.315-.126.126c-.063.063-.063.126-.126.126v.126c0,.063.063.063.126.126l1.512,1.323a.2.2,0,0,0,.126.063h.063a.22.22,0,0,1,.126-.063c.126-.189.252-.315.315-.441a1.072,1.072,0,0,0,.063-.441,1.016,1.016,0,0,0-.189-.567l.441-.252.693,1.2-1.764,2.016-.378-.315.126-.126a.2.2,0,0,0,.063-.126v-.126c0-.063-.063-.063-.126-.126l-1.512-1.323c-.063-.063-.126-.063-.126-.126h-.126a.22.22,0,0,1-.126.063l-.126.126-.441-.315Z"/><path d="M-111.825,346.815l2.079-2.079,1.071.5-.189.441a1.948,1.948,0,0,0-.5-.126.8.8,0,0,0-.378.063,1.318,1.318,0,0,0-.378.252l-.378.378.63.63.126-.126c.063-.063.126-.189.189-.189v-.126c0-.063-.063-.126-.126-.189l-.063-.126.315-.315,1.071,1.071-.315.315-.126-.126c-.063-.063-.126-.126-.189-.126h-.126q-.095,0-.189.189l-.126.126.567.567.126.126h.063l.126-.126.189-.189a1.915,1.915,0,0,0,.315-.441,1.228,1.228,0,0,0,.063-.5,1.84,1.84,0,0,0-.126-.567l.441-.189.567,1.26-2.142,2.142-.315-.315.063-.063c.063-.063.126-.126.126-.189v-.126a.779.779,0,0,1-.126-.189l-1.323-1.386c-.063-.063-.126-.126-.189-.126h-.126c-.063,0-.063.063-.126.126l-.126.126-.441-.378Z"/><path d="M-107.415,342.594a1.949,1.949,0,0,1,1.323-.5,2.02,2.02,0,0,1,1.26.63,1.68,1.68,0,0,1,.441.882,1.384,1.384,0,0,1-.063.882,1.922,1.922,0,0,1-.63.819,2,2,0,0,1-1.26.5,1.883,1.883,0,0,1-1.323-.63,1.5,1.5,0,0,1-.441-1.323,1.722,1.722,0,0,1,.693-1.26Zm.378.441a.875.875,0,0,0-.315.63,1.513,1.513,0,0,0,.378.945,1.4,1.4,0,0,0,.819.567.711.711,0,0,0,.693-.189.875.875,0,0,0,.315-.63,1.244,1.244,0,0,0-.378-.882,1.737,1.737,0,0,0-.567-.441,1.948,1.948,0,0,0-.5-.126.361.361,0,0,0-.441.126Z"/><path d="M-103.635,339.507l.252-.189.126.063,1.638-1.134-.063-.126.252-.189,1.071.756-.315.378a.837.837,0,0,0-.441-.189.934.934,0,0,0-.441-.063c-.126,0-.189.063-.252.063a.062.062,0,0,0-.063.063.2.2,0,0,0,.063.126l1.134,1.638c.063.126.126.126.126.189l.063.063h.063c.063,0,.126-.063.252-.126l.252.378-1.386.945-.252-.378.063-.063c.063-.063.126-.126.189-.126v-.126c0-.063-.063-.126-.126-.189l-1.2-1.7-.063-.063h-.063a.869.869,0,0,0-.189.252.8.8,0,0,0-.063.378,1.662,1.662,0,0,0,.063.441l-.441.126-.252-1.2Z"/><path d="M-100.422,337.491l2.52-1.512.945.756-.315.378a3.617,3.617,0,0,0-.441-.252.4.4,0,0,0-.378,0c-.126.063-.252.063-.378.189l-.441.252.441.756.126-.063q.189-.094.189-.189c0-.063.063-.063.063-.126s-.063-.126-.126-.252l-.063-.126.378-.252.756,1.26-.378.252-.063-.126c-.063-.063-.126-.126-.126-.189-.063,0-.063-.063-.126,0-.063,0-.126.063-.252.126l-.126.063.441.693a.2.2,0,0,1,.063.126h.063a.2.2,0,0,0,.126-.063l.252-.126a2.741,2.741,0,0,0,.441-.378.681.681,0,0,0,.189-.441v-.567l.5-.126.252,1.323-2.583,1.575-.252-.441.063-.063a.779.779,0,0,0,.189-.126c0-.063.063-.063,0-.126a.779.779,0,0,1-.126-.189l-1.008-1.638c-.063-.063-.126-.126-.126-.189h-.063c-.063,0-.063,0-.189.063l-.126.063-.315-.315Z"/><path d="M-96.894,335.349l1.89-1.008a3.071,3.071,0,0,1,.441-.189,1.387,1.387,0,0,1,.5-.063.91.91,0,0,1,.441.126.759.759,0,0,1,.315.315.893.893,0,0,1,.063.693,1,1,0,0,1-.441.567l1.008.441h.063c.063,0,.126.063.189.063h.126c.063,0,.063,0,.126-.063l.126-.063.252.441-1.008.5-1.7-.819-.252.126.315.63a.78.78,0,0,0,.126.189l.063.063c.063,0,.063,0,.189-.063l.126-.063.252.441-1.512.819-.252-.441.126-.063c.063-.063.126-.063.126-.126s.063-.063.063-.126a.488.488,0,0,0-.063-.189l-.882-1.764a.2.2,0,0,1-.063-.126s-.063-.063-.063,0c-.063,0-.063,0-.126.063l-.063.063-.126.063-.378-.441Zm1.386-.063.441.819.441-.252a.968.968,0,0,0,.378-.252.477.477,0,0,0,.126-.252.379.379,0,0,0-.063-.252l-.189-.189c-.063-.063-.126-.063-.252-.063a1.3,1.3,0,0,0-.378.126l-.5.315Z"/><path d="M-92.925,333.333l1.953-.882a.911.911,0,0,1,.441-.126.7.7,0,0,1,.5,0,.681.681,0,0,1,.441.189.578.578,0,0,1,.252.378.68.68,0,0,1,0,.693,1.112,1.112,0,0,1-.5.567l1.008.5h.063a.231.231,0,0,0,.189.063h.126c.063,0,.063,0,.126-.063l.126-.063.189.441-1.008.441-1.638-.945-.252.126.252.63c.063.126.063.189.126.189l.063.063c.063,0,.063,0,.189-.063l.126-.063.189.441-1.575.693-.189-.441.126-.063a.2.2,0,0,1,.126-.063.22.22,0,0,0,.063-.126.488.488,0,0,0-.063-.189l-.819-1.827a.22.22,0,0,0-.063-.126l-.063-.063h-.189l-.126.063-.189-.378Zm1.386,0,.378.819.5-.189a.968.968,0,0,0,.378-.252.327.327,0,0,0,.126-.252.379.379,0,0,0-.063-.252c-.063-.063-.063-.126-.189-.189-.063-.063-.126-.063-.252-.063a2.566,2.566,0,0,0-.441.126l-.441.252Z"/><path d="M-87.7,331.128l.756-.252,1.89,2.2c.126.126.189.189.252.189a.476.476,0,0,0,.252-.063l.189.441-1.575.567-.189-.441.063-.063c.063-.063.126-.063.189-.126,0-.063.063-.063,0-.126A.779.779,0,0,1-86,333.27l-.189-.252-1.008.378v.5a.062.062,0,0,0,.063.063H-87a.628.628,0,0,0,.252-.063l.189.441-1.26.441-.189-.441c.063,0,.126-.063.189-.063s.063-.063.063-.126v-.189l.063-2.835Zm.567,1.827.63-.252-.63-.819v1.071Z"/><path d="M-84.987,330.183l1.512-.441,1.2,1.89v-2.205l1.575-.441.126.441-.189.063c-.063,0-.126.063-.189.126v.252l.567,1.89a.22.22,0,0,0,.063.126l.063.063h.126l.189-.063.126.441-1.638.441-.126-.441.126-.063c.063,0,.126-.063.189-.063l.063-.063v-.189l-.567-2.079v3.024l-.441.126-1.575-2.457.567,2.016c0,.063.063.063.063.126l.063.063h.126l.189-.063.126.441-1.386.378-.126-.441.126-.063c.063,0,.126-.063.189-.063l.063-.063V332.7l-.567-1.89c0-.063-.063-.126-.063-.189l-.063-.063h-.126l-.189.063-.189-.441Z"/><path d="M-77.931,328.356l1.827-.315a2.17,2.17,0,0,1,.567-.063.91.91,0,0,1,.441.126.759.759,0,0,1,.315.315l.189.378a.955.955,0,0,1-.189.819,1.722,1.722,0,0,1-.882.5l-.567.126.126.63c0,.063,0,.126.063.126l.063.063h.189L-75.6,331l.063.5-1.7.315-.063-.5h.126a.276.276,0,0,0,.189-.063l.063-.063V331l-.378-1.89a.276.276,0,0,0-.063-.189.062.062,0,0,0-.063-.063h-.378l-.126-.5Zm1.323.315.189,1.008.315-.063c.189-.063.315-.063.378-.126l.189-.189a.281.281,0,0,0,0-.315c0-.189-.126-.252-.252-.315a.533.533,0,0,0-.441,0Z"/><path d="M-74.277,327.663l2.142-.252h.441a.91.91,0,0,1,.441.126c.126.063.252.189.378.252a3.072,3.072,0,0,1,.189.441.9.9,0,0,1-.189.693,1.307,1.307,0,0,1-.63.378l.819.756.063.063c.063.063.126.063.126.126.063,0,.063.063.126.063h.315l.063.5-1.134.126-1.323-1.386-.315.063.063.693c0,.126,0,.189.063.252l.063.063h.378l.063.5-1.7.189-.063-.5h.126a.231.231,0,0,0,.189-.063.062.062,0,0,0,.063-.063V330.5l-.252-1.953a.231.231,0,0,0-.063-.189.062.062,0,0,0-.063-.063h-.315l-.063-.63Zm1.386.378.126.882.5-.063a.734.734,0,0,0,.441-.126q.189-.094.189-.189a.379.379,0,0,0,.063-.252.478.478,0,0,0-.126-.252c-.063-.063-.126-.126-.189-.126h-.441l-.567.126Z"/><path d="M-67.977,326.97a1.766,1.766,0,0,1,1.386.441,1.586,1.586,0,0,1,.567,1.26,2.1,2.1,0,0,1-.189.945,1.343,1.343,0,0,1-.63.693,1.6,1.6,0,0,1-1.008.252,1.933,1.933,0,0,1-1.323-.378,1.73,1.73,0,0,1-.693-1.323,1.872,1.872,0,0,1,.441-1.323,2.219,2.219,0,0,1,1.449-.567Zm.063.567a.875.875,0,0,0-.63.315,1.6,1.6,0,0,0-.252,1.008,1.548,1.548,0,0,0,.315.945.809.809,0,0,0,.63.252.875.875,0,0,0,.63-.315,1.518,1.518,0,0,0,.252-.945,1.27,1.27,0,0,0-.189-.693.645.645,0,0,0-.315-.378c-.126-.189-.252-.252-.441-.189Z"/><path d="M-65.268,326.907h1.827a1.4,1.4,0,0,1,.567.063,2.1,2.1,0,0,1,.378.189.8.8,0,0,1,.252.378.934.934,0,0,1,.063.441.9.9,0,0,1-.378.756,1.547,1.547,0,0,1-.945.315h-.567v.756a.062.062,0,0,0,.063.063h.378v.5h-1.7v-.5h.315a.062.062,0,0,0,.063-.063v-2.331a.062.062,0,0,0-.063-.063h-.378l.126-.5Zm1.26.567v1.008h.315c.189,0,.315,0,.378-.063l.189-.189a.379.379,0,0,0,.063-.252.381.381,0,0,0-.189-.378.676.676,0,0,0-.378-.126Z"/><path d="M-61.488,326.907l2.142.126c.126,0,.315.063.441.063a3.071,3.071,0,0,1,.441.189.759.759,0,0,1,.315.315,1.072,1.072,0,0,1,.063.441.775.775,0,0,1-.315.63,1.321,1.321,0,0,1-.693.252l.63.882v.063c.063.063.063.126.126.126s.063.063.126.063h.315l-.063.5-1.134-.063-1.008-1.575h-.315l-.063.693v.252c0,.063,0,.063.063.063a.488.488,0,0,1,.189.063h.189l-.063.5-1.7-.126.063-.5h.315a.062.062,0,0,0,.063-.063v-.189l.126-1.953v-.189c0-.063,0-.063-.063-.063s-.063-.063-.126-.063h-.189l.126-.441Zm1.26.693-.063.882.5.063h.441a.327.327,0,0,0,.252-.126c.063-.063.063-.126.126-.252a.379.379,0,0,0-.063-.252l-.189-.189c-.063-.063-.252-.063-.441-.063l-.567-.063Z"/><path d="M-57.141,327.285l1.7.189-.063.5h-.315l-.063.063c0,.063-.063.126-.063.189l-.252,1.953v.189a.062.062,0,0,0,.063.063c.063,0,.063.063.126.063h.189l-.063.5-1.7-.189.063-.5h.315c.063,0,.063,0,.063-.063a.276.276,0,0,0,.063-.189l.252-1.953v-.189c0-.063,0-.063-.063-.063a.488.488,0,0,1-.189-.063H-57.2l.063-.5Z"/><path d="M-53.55,327.789l.756.126.567,2.835c.063.126.063.252.126.315s.126.063.252.063l-.063.5-1.638-.252.063-.5h.315a.062.062,0,0,0,.063-.063v-.189l-.063-.315-1.071-.189-.189.315a.2.2,0,0,0-.063.126v.063l.063.063a.628.628,0,0,1,.252.063l-.063.5L-55.566,331l.063-.5h.189c.063,0,.063,0,.126-.063l.126-.126,1.512-2.52Zm-.378,1.827.693.126-.189-1.008-.5.882Z"/><path d="M-50.652,328.293l1.512.378.063,2.205,1.134-1.89,1.575.378-.126.441-.189-.063h-.189c-.063,0-.063.126-.126.189l-.5,1.953v.189c0,.063,0,.063.063.063a.22.22,0,0,0,.126.063l.189.063-.126.441-1.638-.441.126-.441.126.063c.063,0,.126.063.189,0,.063,0,.063,0,.063-.063a.276.276,0,0,0,.063-.189l.5-2.079-1.512,2.583-.441-.126-.126-2.9-.5,2.079v.126a.062.062,0,0,0,.063.063.22.22,0,0,0,.126.063l.189.063-.126.441-1.386-.378.126-.441.126.063h.189c.063,0,.063,0,.063-.063a.276.276,0,0,0,.063-.189l.5-1.89v-.189c0-.063,0-.063-.063-.063a.22.22,0,0,0-.126-.063l-.189-.063.189-.378Z"/><path d="M-43.6,330.246l1.764.63a3.737,3.737,0,0,1,.5.252c.126.126.252.189.315.315a.911.911,0,0,1,.126.441,1.072,1.072,0,0,1-.063.441,1,1,0,0,1-.567.567,1.15,1.15,0,0,1-1.008-.063l-.567-.189-.252.63a.22.22,0,0,1-.063.126c0,.063,0,.063.063.063a.22.22,0,0,0,.126.063l.189.063-.189.441-1.575-.567.189-.441.126.063a.488.488,0,0,0,.189.063c.063,0,.063,0,.063-.063a.276.276,0,0,0,.063-.189l.63-1.827a.488.488,0,0,0,.063-.189c0-.063,0-.063-.063-.063a.22.22,0,0,0-.126-.063l-.189-.063.252-.441Zm1.008,1.008-.315.945.252.126a1.109,1.109,0,0,0,.378.063c.063,0,.189-.063.252-.063a.87.87,0,0,0,.189-.252.388.388,0,0,0-.063-.441.579.579,0,0,0-.378-.252l-.315-.126Z"/><path d="M-40.005,331.569l1.953.882.378.189a.759.759,0,0,1,.315.315.911.911,0,0,1,.126.441,1.072,1.072,0,0,1-.063.441.984.984,0,0,1-.5.5,1.536,1.536,0,0,1-.756,0l.315,1.071v.063c0,.063.063.126.063.189s.063.063.063.126a.22.22,0,0,0,.126.063l.126.063-.189.441-1.008-.441-.441-1.827-.189-.189-.252.63a.488.488,0,0,0-.063.189v.063a.22.22,0,0,0,.126.063l.126.063-.189.441-1.575-.693.189-.441.126.063a.231.231,0,0,0,.189.063c.063,0,.063,0,.126-.063a.276.276,0,0,0,.063-.189l.819-1.827a.22.22,0,0,1,.063-.126v-.063c0-.063-.063-.063-.126-.063h-.063l-.126-.063.252-.378Zm.945,1.071-.378.819.5.189a1.6,1.6,0,0,0,.441.126c.126,0,.189,0,.252-.063l.189-.189a.192.192,0,0,0,0-.252c0-.063-.063-.126-.126-.189a1.026,1.026,0,0,0-.378-.189l-.5-.252Z"/><path d="M-34.272,334.215a1.736,1.736,0,0,1,.945,1.071,2.116,2.116,0,0,1-.126,1.386,2.521,2.521,0,0,1-.63.756,1.446,1.446,0,0,1-.882.252,2.159,2.159,0,0,1-1.008-.252,2.272,2.272,0,0,1-.945-.945,1.828,1.828,0,0,1,.126-1.512,1.833,1.833,0,0,1,1.071-.882,1.687,1.687,0,0,1,1.449.126Zm-.252.5a.892.892,0,0,0-.693-.063,1.478,1.478,0,0,0-.693.693,1.41,1.41,0,0,0-.189.945.8.8,0,0,0,.441.567.892.892,0,0,0,.693.063,1.822,1.822,0,0,0,.693-.693,3.071,3.071,0,0,0,.252-.693,1.228,1.228,0,0,0-.063-.5c-.189-.126-.252-.189-.441-.315Z"/><path d="M-31.626,335.6l.252.189-.063.126,1.7,1.071.126-.063.252.189-.252,1.26-.5-.126v-.441a.675.675,0,0,0-.126-.378c-.063-.063-.126-.189-.189-.189h-.063a.22.22,0,0,0-.063.126l-1.071,1.7a.779.779,0,0,1-.126.189v.063a.062.062,0,0,0,.063.063l.252.126-.252.441-1.449-.882.252-.441.063.063c.126.063.189.063.189.126h.126c.063,0,.063-.063.126-.189l1.071-1.764c0-.063.063-.063.063-.126a.062.062,0,0,0-.063-.063.472.472,0,0,0-.315-.063.8.8,0,0,0-.378.063c-.063,0-.189.126-.378.252l-.315-.378,1.071-.945Z"/><path d="M-28.539,337.743l2.394,1.7-.315,1.134-.441-.126a1.566,1.566,0,0,0,.063-.5.9.9,0,0,0-.126-.378c-.063-.126-.189-.189-.315-.315l-.441-.315-.5.693.126.126c.126.063.189.126.252.126h.126q.094,0,.189-.189l.063-.126.378.252-.882,1.2-.378-.252.063-.126c.063-.063.063-.126.126-.189v-.126c0-.063-.126-.126-.189-.189l-.126-.063-.441.63a.2.2,0,0,0-.063.126v.063l.126.126.252.189a3.716,3.716,0,0,0,.5.252,1.356,1.356,0,0,0,.5,0,1.266,1.266,0,0,0,.5-.252l.252.378-1.134.819-2.457-1.764.252-.378.063.063a.778.778,0,0,1,.189.126h.126a.779.779,0,0,0,.126-.189l1.134-1.575c.063-.063.063-.126.126-.189v-.126l-.126-.126-.126-.063.126-.441Z"/><path d="M-24.633,342.72l1.323,1.071-.315.378-.126-.063a.2.2,0,0,0-.126-.063H-24c-.063,0-.063.063-.126.126l-.693.819-.378-.315.063-.252a1.186,1.186,0,0,1-.5-.126,2.732,2.732,0,0,1-.441-.252,1.254,1.254,0,0,1-.5-.756,1.418,1.418,0,0,1-.063-.882,1.68,1.68,0,0,1,.441-.882,1.72,1.72,0,0,1,.756-.567,1.418,1.418,0,0,1,.882-.063,1.952,1.952,0,0,1,.819.378c.126.126.252.189.315.315a.545.545,0,0,1,.189.378l.189-.063.252.252-.5,1.071-.441-.189a2.893,2.893,0,0,0,.063-.63.9.9,0,0,0-.126-.378.87.87,0,0,0-.189-.252.572.572,0,0,0-.441-.189.758.758,0,0,0-.5.126c-.189.063-.315.252-.5.441a1.678,1.678,0,0,0-.378.63.874.874,0,0,0,0,.567,1.016,1.016,0,0,0,.252.441,1.377,1.377,0,0,0,.315.189c.126,0,.189.063.252,0s.126-.063.189-.126l.063-.126a.2.2,0,0,0,.063-.126v-.126l-.126-.126-.126-.126.315-.5Z"/><path d="M-20.853,343.854l.567.567-1.071,2.709a.685.685,0,0,0-.063.315c0,.063.063.126.126.189l-.315.378-1.2-1.134.315-.378.063.063c.063.063.126.126.189.126h.126a.276.276,0,0,0,.063-.189l.126-.315-.756-.756-.315.189a.2.2,0,0,1-.126.063v.063a.2.2,0,0,0,.063.126l.189.189-.315.378-1.008-.945.315-.378.126.126h.126a.231.231,0,0,0,.189-.063l2.583-1.323Zm-1.323,1.323.5.5.378-.945-.882.441Z"/><path d="M-18.522,345.933l.252.252-.063.126,1.386,1.449.126-.063.252.252-.567,1.134-.441-.252a2.567,2.567,0,0,0,.126-.441v-.441a.327.327,0,0,0-.126-.252l-.063-.063a.2.2,0,0,0-.126.063l-1.449,1.386c-.063.063-.126.126-.126.189v.063a.062.062,0,0,0,.063.063.47.47,0,0,0,.189.189l-.378.315-1.2-1.26.378-.315.063.063c.063.063.126.126.189.126h.126c.063,0,.126-.063.189-.126l1.512-1.449.063-.063a.062.062,0,0,0-.063-.063.327.327,0,0,0-.252-.126c-.126,0-.252-.063-.378,0-.063,0-.189.063-.441.126l-.189-.441.945-.441Z"/></g></g></svg>