<svg xmlns="http://www.w3.org/2000/svg" width="512" height="335.45" viewBox="0 0 512 335.45"><g transform="translate(0 -88.275)"><path d="M0,150.069V361.931L141.241,256Z" fill="#464655"/><path d="M70.621,88.276l158.9,123.586H512V97.1a8.829,8.829,0,0,0-8.828-8.828H70.621Z" fill="#ff4b55"/><path d="M70.621,423.724l158.9-123.586H512V414.9a8.829,8.829,0,0,1-8.828,8.828H70.621Z" fill="#41479b"/><path d="M56.889,88.276H8.828A8.828,8.828,0,0,0,0,97.1v36.21L154.974,256,0,378.69V414.9a8.829,8.829,0,0,0,8.828,8.828H56.884L224.147,291.31H512V220.69H224.148Z" fill="#73af00"/><path d="M85.333,88.276H56.889L224.148,220.69H512V203.034H230.291Z" fill="#f5f5f5"/><path d="M0,133.313v22.518L126.53,256,0,356.173V378.69L154.974,256Z" fill="#ffe15a"/><path d="M224.147,291.31,56.884,423.724H85.329l144.96-114.758H512V291.31Z" fill="#f5f5f5"/></g></svg>