<svg xmlns="http://www.w3.org/2000/svg" width="512" height="335.449" viewBox="0 0 512 335.449"><g transform="translate(0 -88.276)"><path d="M8.828,423.725H503.173A8.829,8.829,0,0,0,512,414.9V97.1a8.829,8.829,0,0,0-8.828-8.828H8.828A8.829,8.829,0,0,0,0,97.1V414.9A8.828,8.828,0,0,0,8.828,423.725Z" fill="#c8414b"/><rect width="512" height="194.21" transform="translate(0 158.901)" fill="#ffd250"/><path d="M216.276,256l7.485-33.681a4.966,4.966,0,0,0-4.849-6.044H213.64a4.968,4.968,0,0,0-4.849,6.044Z" fill="#c8414b"/><rect width="17.655" height="75.03" transform="translate(207.45 238.341)" fill="#f5f5f5"/><rect width="26.483" height="8.828" transform="translate(203.03 229.521)" fill="#fab446"/><rect width="44.14" height="8.828" transform="translate(185.38 256.001)" fill="#c8414b"/><path d="M229.517,291.311l-26.483-8.827v-8.828l26.483,8.828Z" fill="#c8414b"/><path d="M83.862,256l7.485-33.681a4.966,4.966,0,0,0-4.849-6.044H81.226a4.968,4.968,0,0,0-4.849,6.044Z" fill="#c8414b"/><path d="M114.759,229.518a8.829,8.829,0,0,0-8.828,8.828v57.379c0,10.725,10.01,30.9,44.138,30.9s44.138-20.171,44.138-30.9V238.346a8.829,8.829,0,0,0-8.828-8.828Z" fill="#f5f5f5"/><path d="M150.069,273.656H105.931v-35.31a8.829,8.829,0,0,1,8.828-8.828h35.31Z" fill="#c8414b"/><path d="M150.069,273.656h44.138v22.069a22.068,22.068,0,0,1-22.069,22.069h0a22.068,22.068,0,0,1-22.069-22.069Z" fill="#c8414b"/><path d="M105.931,273.656h44.138v22.069A22.068,22.068,0,0,1,128,317.794h0a22.068,22.068,0,0,1-22.069-22.069Z" fill="#fab446"/><path d="M141.241,313.281V273.656h-8.828v43.693A21.84,21.84,0,0,0,141.241,313.281Z" fill="#c8414b"/><path d="M123.586,317.349V273.656h-8.828v39.625A21.853,21.853,0,0,0,123.586,317.349Z" fill="#c8414b"/><rect width="26.483" height="8.828" transform="translate(114.76 256.001)" fill="#ffb441"/><rect width="26.483" height="8.828" transform="translate(114.76 238.341)" fill="#fab446"/><rect width="17.655" height="15.992" transform="translate(119.17 243.591)" fill="#fab446"/><rect width="17.655" height="75.03" transform="translate(75.03 238.341)" fill="#f5f5f5"/><rect width="26.483" height="8.828" transform="translate(70.62 308.971)" fill="#fab446"/><rect width="26.483" height="8.828" transform="translate(70.62 229.521)" fill="#fab446"/><rect width="35.31" height="8.828" transform="translate(66.21 317.791)" fill="#5064aa"/><rect width="26.483" height="8.828" transform="translate(207.45 308.971)" fill="#fab446"/><rect width="35.31" height="8.828" transform="translate(198.62 317.791)" fill="#5064aa"/><rect width="52.966" height="8.828" transform="translate(123.59 220.691)" fill="#fab446"/><rect width="8.828" height="26.483" transform="translate(145.66 194.211)" fill="#ffb441"/><path d="M141.241,207.449a13.241,13.241,0,1,1,13.241-13.241A13.255,13.255,0,0,1,141.241,207.449Zm0-17.655a4.414,4.414,0,1,0,4.414,4.414A4.417,4.417,0,0,0,141.241,189.794Z" fill="#f5f5f5"/><path d="M158.9,207.449a13.241,13.241,0,1,1,13.241-13.241A13.255,13.255,0,0,1,158.9,207.449Zm0-17.655a4.414,4.414,0,1,0,4.414,4.414A4.417,4.417,0,0,0,158.9,189.794Z" fill="#f5f5f5"/><path d="M176.552,216.277a13.241,13.241,0,1,1,13.241-13.241A13.255,13.255,0,0,1,176.552,216.277Zm0-17.655a4.414,4.414,0,1,0,4.414,4.414A4.417,4.417,0,0,0,176.552,198.622Z" fill="#f5f5f5"/><path d="M123.586,216.277a13.241,13.241,0,1,1,13.241-13.241A13.255,13.255,0,0,1,123.586,216.277Zm0-17.655A4.414,4.414,0,1,0,128,203.035,4.417,4.417,0,0,0,123.586,198.622Z" fill="#f5f5f5"/><path d="M176.552,291.311v4.414a4.414,4.414,0,0,1-8.828,0v-4.414h8.828m8.827-8.827H158.9v13.241a13.241,13.241,0,1,0,26.482,0V282.484Z" fill="#fab446"/><path d="M172.138,264.829h0A8.829,8.829,0,0,1,163.31,256v-8.828a8.829,8.829,0,0,1,8.828-8.828h0a8.829,8.829,0,0,1,8.828,8.828V256A8.829,8.829,0,0,1,172.138,264.829Z" fill="#ffa0d2"/><circle cx="13.241" cy="13.241" r="13.241" transform="translate(136.829 260.41)" fill="#5064aa"/><rect width="8.828" height="26.483" transform="translate(145.66 176.551)" fill="#fab446"/><path d="M123.586,220.691l-8.828-8.828,5.171-5.171a42.625,42.625,0,0,1,30.14-12.484h0a42.627,42.627,0,0,1,30.14,12.484l5.171,5.171-8.828,8.828Z" fill="#c8414b"/><circle cx="4.414" cy="4.414" r="4.414" transform="translate(145.656 207.447)" fill="#ffd250"/><circle cx="4.414" cy="4.414" r="4.414" transform="translate(127.996 207.447)" fill="#ffd250"/><circle cx="4.414" cy="4.414" r="4.414" transform="translate(163.306 207.447)" fill="#ffd250"/><rect width="44.14" height="8.828" transform="translate(70.62 256.001)" fill="#c8414b"/><path d="M70.621,291.311,97.1,282.484v-8.828l-26.482,8.828Z" fill="#c8414b"/></g></svg>