<svg xmlns="http://www.w3.org/2000/svg" width="512" height="335.448" viewBox="0 0 512 335.448"><g transform="translate(0 -88.276)"><path d="M503.172,88.276H8.828A8.828,8.828,0,0,0,0,97.1V414.9a8.829,8.829,0,0,0,8.828,8.828H503.173A8.829,8.829,0,0,0,512,414.9V97.1A8.829,8.829,0,0,0,503.172,88.276Z" fill="#ffd250"/><path d="M185.379,123.586V388.414a8.829,8.829,0,0,0,8.828,8.828H476.69a8.829,8.829,0,0,0,8.828-8.828V123.586a8.829,8.829,0,0,0-8.828-8.828H194.207A8.829,8.829,0,0,0,185.379,123.586Z" fill="#963c3c"/><path d="M92.69,114.759H35.31a8.829,8.829,0,0,0-8.828,8.828V388.415a8.829,8.829,0,0,0,8.828,8.828H92.69Z" fill="#5aa587"/><path d="M150.069,114.759H92.69V397.242h57.379a8.829,8.829,0,0,0,8.828-8.828V123.586A8.828,8.828,0,0,0,150.069,114.759Z" fill="#ff7350"/><path d="M393.553,326.735c-.3-1.973,1.441-4.521,4.125-8.182a30.331,30.331,0,0,0,2.752-4.158,7.8,7.8,0,0,0-.85.015,6.432,6.432,0,0,1-5.7-2.005,4.14,4.14,0,0,1-1.066-3.089c.147-2.371,2.083-4.7,3.284-5.935a64.9,64.9,0,0,1-8.785-7.162c-5.214-5.215-11.161-7.726-17.727-7.588-.608,6.531,2.758,10.826,6.35,15.347,1.059,1.331,2.114,2.66,3.073,4.049,4.725,6.841,3.737,20.049,3.138,21.448-.679,1.586-4.415,5.1-9.54,4.417a9.048,9.048,0,0,0-6.78,1.977,4.274,4.274,0,0,0-1.612,3.147c0,.072.006.435.118.5.689.416,3.262-.4,5.1-1.391a1.353,1.353,0,0,1,1.568.2c3.623,3.392,7.26.461,7.661.116a1.364,1.364,0,0,1,1.736-.032c3.708,2.988,7.573-.278,7.736-.419a1.359,1.359,0,0,1,1.628-.109,4.966,4.966,0,0,0,4.393.906,3.27,3.27,0,0,0,1.825-1.468,43.2,43.2,0,0,0-1.191-5.247C394.284,330.112,393.756,328.082,393.553,326.735Z" fill="#ffd250"/><path d="M433.707,201.665a3.014,3.014,0,0,0-2.479.705,4.189,4.189,0,0,0-.93,2.828,1.367,1.367,0,0,1-.431,1.068,1.332,1.332,0,0,1-1.1.354c-2.008-.263-4.978-2.382-10.488-6.421-8.755-6.417-21.987-16.115-34.611-17.71-14.674-1.864-27.733,2.817-31.05,11.113-3.694,9.236,4.157,17.651,4.236,17.736a1.355,1.355,0,0,1,.213,1.567,6.885,6.885,0,0,0,.911,8.355A4.8,4.8,0,0,1,360,218.522c2.2-1.316,5.078-.227,9.055,1.279a68.188,68.188,0,0,0,8.119,2.657c7.964,1.952,17.677.212,26.248-1.323,3.029-.543,5.95-1.064,8.666-1.411,6.835-.871,13.687,2.158,15.57,6.906.913,2.3,1.4,6.915-5.581,11.993-12.556,9.133-69.815,4.918-73.188,4.661-.075.007-.149.013-.307.024,1.252,1.406,2.721,2.777,3.361,2.948a1.353,1.353,0,0,1-.328,2.66l-5.866.089.54,5.645a1.349,1.349,0,0,1-.422,1.113,1.387,1.387,0,0,1-1.137.352,31.342,31.342,0,0,1-8.793-2.793l-6.625,4.179a1.351,1.351,0,0,1-.723.207,1.319,1.319,0,0,1-.435-.072,1.353,1.353,0,0,1-.835-.814l-2.528-6.873-3,6a1.352,1.352,0,0,1-1.145.747,1.3,1.3,0,0,1-1.213-.632l-2.569-4.1a26.352,26.352,0,0,1-4.986,4.939,1.352,1.352,0,0,1-2.06-.7l-1.346-4.249a33.974,33.974,0,0,1-4.738,5,1.352,1.352,0,0,1-2.207-.959l-.434-6.831a40.254,40.254,0,0,1-4.8,2.173,1.353,1.353,0,0,1-1.575-1.967c2.087-3.624,4-8.149,4.148-10.4a40.8,40.8,0,0,1-5.486,5c-4.606,3.75-10.337,8.413-14.556,16.576-2.946,5.7-5.062,15.657-1.331,24.935C280.677,293.4,287.531,299.3,297.8,303.1a21.823,21.823,0,0,1-.634-4.353,62.845,62.845,0,0,1,1.388-13.713,1.353,1.353,0,0,1,2.636.608,61.468,61.468,0,0,0-1.318,13.053c.063,3.271,1.47,7.307,2.829,11.209,1.806,5.188,3.676,10.552,2.863,15.066-1.107,6.136-8.746,7.692-15.838,6.508a5.938,5.938,0,0,0-5.167,1.388,6.185,6.185,0,0,0-1.834,5.115c.089.921.434,1.107.546,1.169.853.461,2.86-.166,3.945-.733a1.353,1.353,0,0,1,1.639.3c2.844,3.186,6.674.007,6.835-.132a1.357,1.357,0,0,1,1.863.106,4.829,4.829,0,0,0,3.469,1.739c2.309.141,4.5-1.916,4.524-1.933a1.356,1.356,0,0,1,1.505-.26c4.463,2.043,6.8.856,6.9.8,3.873-3.3,1.635-11.137,1.612-11.217a1.344,1.344,0,0,1,.13-1.064,1.359,1.359,0,0,1,.865-.636,15.834,15.834,0,0,0,9.923-7.033c-2.68-.026-4.81-.966-6.065-2.926-2.02-3.165-1.05-7.93,2.474-12.141,6.029-7.2,9.715-21.784,9.162-27.722a1.354,1.354,0,0,1,2.7-.25c.483,5.2-1.862,15.988-6.142,24.122a104.067,104.067,0,0,0,15.534-6.051,139.731,139.731,0,0,1,16.82-6.761c10.781-3.375,20.29-1.036,28.274,6.951,3.868,3.868,8.09,6.7,12.98,9.983,2.147,1.441,4.382,2.941,6.7,4.611,6.285,4.524,6.174,8.3,6.056,12.3a29.06,29.06,0,0,0,.063,3.844c.649,6.495-4.515,7.522-7,8.015-.34.067-.659.13-.937.2-.351.088-.77.174-1.234.268-2.521.511-6.33,1.284-7.266,4.511a1.569,1.569,0,0,0-.1.78c.4.181,2.462-.287,4.105-1.034a1.356,1.356,0,0,1,1.843.791c.479,1.4,1.226,1.644,1.471,1.724,1.7.532,4.491-1.036,5.332-1.633a1.354,1.354,0,0,1,1.7.1c1.4,1.276,2.689,1.837,3.85,1.681a4.013,4.013,0,0,0,2.507-1.7,1.358,1.358,0,0,1,1.028-.636,1.407,1.407,0,0,1,1.128.442,8.9,8.9,0,0,0,3.61,2.02c1.589.5,1.99-.076,2.121-.266.671-.98.43-3.48-.879-5.115a10.964,10.964,0,0,1-2.029-8.312,9.047,9.047,0,0,1,4.165-6.3c4.178-2.659,5.132-5.524,4.865-6.07a7.2,7.2,0,0,0-.894-.145c-1.864-.247-4.984-.659-8.193-6.584-2.834-5.229-.092-13.508,3.082-23.1a136.414,136.414,0,0,0,4.3-14.81c2.84-13.632-6.086-24.456-6.176-24.563a1.353,1.353,0,0,1,.111-1.857c6.265-5.878,8.959-11.327,8-16.195-.995-5.076-5.911-8.625-9.817-10.121-4.868-1.866-13.75-.806-22.343.216-7.18.853-13.966,1.662-18.347.747a7.185,7.185,0,0,1-4.913-3.179,7.517,7.517,0,0,1-1.021-3.977,9.135,9.135,0,0,0-3.663,2.858,1.354,1.354,0,0,1-1.075.566,1.29,1.29,0,0,1-1.1-.523,6.086,6.086,0,0,1-1.32-4.694A10.037,10.037,0,0,1,372.8,203.9c-5.037-1.769-8.9,2.453-9.076,2.654a1.37,1.37,0,0,1-1.721.256,8.511,8.511,0,0,1-3.841-7.469,7.557,7.557,0,0,1,4.065-6.6,5.746,5.746,0,0,1,4.863-.5,6.708,6.708,0,0,1,3.1,2.622c1.843-2.1,2-5.73,2-5.772a1.349,1.349,0,0,1,.43-.953,1.281,1.281,0,0,1,.98-.363,9.441,9.441,0,0,1,7.393,3.439c2.324,2.941,2.542,7.025,2.406,9.554,5.119-2.613,4.47-8.644,4.437-8.926a1.356,1.356,0,0,1,.5-1.217,1.339,1.339,0,0,1,1.3-.218c5.432,1.917,7.409,6.761,7.874,10.366a5.129,5.129,0,0,0,1.561-3.375,1.353,1.353,0,0,1,2.541-.649,19.861,19.861,0,0,0,7.629,7.548l-1.61-3.9a1.352,1.352,0,0,1,1.892-1.707,50.439,50.439,0,0,1,7.05,4.807,48.766,48.766,0,0,0,9.461,6.1c3.855,1.813,6.455,1.468,7.951.862a4.835,4.835,0,0,0,2.724-2.486,5.778,5.778,0,0,0-.171-4.842A3.391,3.391,0,0,0,433.707,201.665Z" fill="#ffd250"/><path d="M273.95,221.122a.007.007,0,0,1,0,0c.007,0,.011,0,.014,0a93.815,93.815,0,0,0,19.4,3.773,1.354,1.354,0,0,1,.974,2.2l-.321.4a45.433,45.433,0,0,1,6.362-.535c-.921-1.1-2.067-2.49-3.243-3.951-2.457-.045-11.446-.436-18.762-3.961-1.777-.862-4.849-2.35-6.31-1.6a1.658,1.658,0,0,0-.6,1.489C271.564,219.893,272.441,220.668,273.95,221.122Z" fill="#ffd250"/><path d="M304.436,201.564a1.3,1.3,0,0,0-.382.05,1.634,1.634,0,0,0-.969,1.364,2.1,2.1,0,0,0,.844,2.078,2.128,2.128,0,0,0,2.7-.4,1.842,1.842,0,0,0,.437-2.268l0,0A7.321,7.321,0,0,0,304.436,201.564Z" fill="#ffd250"/><path d="M291.157,234.186a10.991,10.991,0,0,0,2.513,3.585,4.93,4.93,0,0,1,1.544-1.946,4.656,4.656,0,0,1,3.808-.657c.029,0,.054.008.083.011.053.012.094.007.148.02s.077.049.124.062a1.136,1.136,0,0,1,.2.06,1.116,1.116,0,0,1,.118.1,2.833,2.833,0,0,1,1.571,1.48c1.025,2.392-.779,7.036-2.371,10.34,1.125-.557,2.2-1.121,2.784-1.432a1.354,1.354,0,0,1,1.99,1.107l.382,6.036a43.319,43.319,0,0,0,3.8-4.685,1.352,1.352,0,0,1,2.406.355l1.544,4.875a33.764,33.764,0,0,0,4.066-4.682,1.412,1.412,0,0,1,1.142-.575,1.357,1.357,0,0,1,1.112.634l2.327,3.711,3.321-6.641a1.29,1.29,0,0,1,1.287-.747,1.353,1.353,0,0,1,1.2.885l3.03,8.241,5.914-3.732a1.345,1.345,0,0,1,1.464.014,22.585,22.585,0,0,0,6.761,2.5l-.505-5.3a1.356,1.356,0,0,1,1.327-1.482l3.384-.051c-.814-.824-1.487-1.621-1.816-2.025a1.336,1.336,0,0,1-.294-.919,26.945,26.945,0,0,1-9.441-2.05l-2.067,3.188a1.346,1.346,0,0,1-.863.588,1.242,1.242,0,0,1-.271.029,1.354,1.354,0,0,1-.754-.23l-7.816-5.244-1.436,3.91a1.355,1.355,0,0,1-2.29.423c-1.343-1.54-3.452-3.9-4.706-5.2a27.042,27.042,0,0,1-5.231,4.022,1.355,1.355,0,0,1-1.926-.711l-2.143-5.751a1.354,1.354,0,0,1,2.538-.944l1.562,4.2a29.544,29.544,0,0,0,4.183-3.628,1.352,1.352,0,0,1,1.837-.138c.788.631,2.926,2.986,4.419,4.66l1.246-3.393a1.343,1.343,0,0,1,.853-.819,1.322,1.322,0,0,1,1.172.162l8.105,5.438,1.96-3.02a1.347,1.347,0,0,1,1.739-.474,24.237,24.237,0,0,0,9.962,2.3,17.274,17.274,0,0,1-1.655-7.253,30.3,30.3,0,0,1-7.02-4.3l-.974,2.407a1.357,1.357,0,0,1-2.049.587l-3.91-2.837-.381,2.93a1.355,1.355,0,0,1-2.046.982,27.046,27.046,0,0,1-5.27-4.2,1.353,1.353,0,0,1,2.023-1.8,18.852,18.852,0,0,0,2.891,2.5l.393-3.018a1.355,1.355,0,0,1,2.138-.921l4.352,3.157,1.042-2.571a1.354,1.354,0,0,1,2.182-.475,27.888,27.888,0,0,0,9.3,5.73,67.275,67.275,0,0,1-1.086-8.38c0-.034.013-.063.013-.1a26.465,26.465,0,0,1-7.667-6.316,14.217,14.217,0,0,1-.557,4.438,1.354,1.354,0,0,1-.807.793,1.377,1.377,0,0,1-1.125-.1,23.518,23.518,0,0,1-5.3-4.254,17.724,17.724,0,0,1-1.216,3.434,1.354,1.354,0,0,1-1.766.514,21.6,21.6,0,0,1-4.051-2.719,22.433,22.433,0,0,1-.854,4.83,1.347,1.347,0,0,1-.8.771,1.388,1.388,0,0,1-1.107-.086,44.319,44.319,0,0,1-4.665-2.988l-.594,2.257a1.353,1.353,0,0,1-1.869.888A19.846,19.846,0,0,1,307.473,220a1.352,1.352,0,0,1,2.092-1.712,14.626,14.626,0,0,0,3.829,3.038l.694-2.637a1.351,1.351,0,0,1,.924-.953,1.336,1.336,0,0,1,1.293.295,30.721,30.721,0,0,0,4.287,3.083c.265-1.671.47-4.086.558-5.652a1.353,1.353,0,0,1,2.54-.569,11.729,11.729,0,0,0,3.88,3.549c.37-1.158.826-2.865,1.169-4.338a1.35,1.35,0,0,1,1.186-1.039,1.327,1.327,0,0,1,1.365.789,13.467,13.467,0,0,0,4.355,4.633,41.215,41.215,0,0,0-.169-6.531,1.353,1.353,0,0,1,2.56-.738,22.955,22.955,0,0,0,10.039,9.865c1.365-14.934-3.012-20.648-3.059-20.706a1.36,1.36,0,0,1,.374-2.023c2.431-1.407,3.906-3.977,4.811-6.471-5.5,5.334-14.219,7.383-18.465,8.092l2.073,2.527a1.352,1.352,0,0,1-.913,2.2,27.421,27.421,0,0,1-11.556-1.031l.885,1.633a1.352,1.352,0,0,1-.042,1.362,1.285,1.285,0,0,1-1.2.634c-4.239-.181-7.948-1.928-11-3.471a4.859,4.859,0,0,1-1.453,2.763,5.075,5.075,0,0,1-3.537,1.482,4.589,4.589,0,0,1-2.56-.774,4.761,4.761,0,0,1-2.019-4.73,4.239,4.239,0,0,1,2.87-3.555c2.017-.6,4.32.567,7.233,2.051a32.933,32.933,0,0,0,8.075,3.21l-1.675-3.094A1.353,1.353,0,0,1,319,199.523c.03.026,3.4,2.793,11.042,2.65l-1.928-2.35a1.352,1.352,0,0,1,.921-2.205c.146-.013,11.251-1.14,18.083-6.645a13,13,0,0,1-4.079.546,1.352,1.352,0,0,1-.954-.508c-3.13-3.933-6.333-5.149-7.948-5.525a15.388,15.388,0,0,1-3.21,5.282,1.355,1.355,0,0,1-2.127-.224,10.728,10.728,0,0,0-7.916-5.167,7.466,7.466,0,0,1-3.1,6.221,1.36,1.36,0,0,1-1.7-.081c-5.807-5.191-10.292-3.655-12.106-2.618a4,4,0,0,1-.085,3.372c-2.773,5.619-19.927,6.749-23.338,6.918a1.337,1.337,0,0,1-1.119-.5,1.354,1.354,0,0,1-.256-1.2,3.63,3.63,0,0,0-.469-2.847,3.9,3.9,0,0,0-2.415-1.795,4.065,4.065,0,0,0-3.61,1.048c-1.163,1.279-1.242,3.644-.23,6.841,1.816,5.739,7.411,11.393,10.894,14.492-.032-.714-.011-1.239,0-1.37a1.354,1.354,0,0,1,2.462-.705,13.363,13.363,0,0,0,3.564,3.464l.679-4.329a1.355,1.355,0,0,1,1.178-1.134,1.381,1.381,0,0,1,1.409.83c1.226,2.978,8.988,12.3,11.875,15.642a1.348,1.348,0,0,1,.163,1.533,1.375,1.375,0,0,1-1.379.691c-4.946-.705-12.212.941-12.284.957a1.353,1.353,0,0,1-1.358-2.166l1-1.246a98.118,98.118,0,0,1-16.256-3.309l-2.271,6.17,6.12-.611a1.332,1.332,0,0,1,1.217.537,1.348,1.348,0,0,1,.169,1.322l-1.154,2.82,5.041-1.334a1.343,1.343,0,0,1,1.606.81,10.745,10.745,0,0,0,2.141,3.492l1.42-3.139a1.306,1.306,0,0,1,1.252-.794A1.339,1.339,0,0,1,291.157,234.186Z" fill="#ffd250"/><path d="M273.632,303.383c5.337,3.564,9.651-.5,11.956-3.633a30.33,30.33,0,0,1-10.61-13.255,29.363,29.363,0,0,1-1.491-5.186,129.5,129.5,0,0,1-14.146-13.15,7.924,7.924,0,0,1-1.073,1.932,5.526,5.526,0,0,1-.535,4.158,4.85,4.85,0,0,1-.365,3.441,4.1,4.1,0,0,1,.509,4.146,5.394,5.394,0,0,1-.518.865c.774.934,1.991,3.072,1.991,7.374a8.018,8.018,0,0,0,1.871,5.521,2.757,2.757,0,0,1,1.54-.691c1.707-.19,3.109,1.27,5.026,3.284A34.2,34.2,0,0,0,273.632,303.383Z" fill="#ffd250"/><path d="M247.085,266.7l-.3,0a29.758,29.758,0,0,1-5.364-.527,2.84,2.84,0,0,0,.529,2.036,1.434,1.434,0,0,1,.564,1.138,1.367,1.367,0,0,1-.558,1.105,2.2,2.2,0,0,0-.927,1.374c-.009.584.68,1.187,1.092,1.5a1.353,1.353,0,0,1,.206,1.974,2.479,2.479,0,0,0-.585,1.591c.018.134.074.543.779,1.022a1.35,1.35,0,0,1,.321,1.931,1.548,1.548,0,0,0-.233,1.107c.162.611.924,1.081,1.532,1.367a12.2,12.2,0,0,0,4.487.948,1.184,1.184,0,0,1,.158,0,11.356,11.356,0,0,0,4.182-.564,4.016,4.016,0,0,0,2.444-1.969c.12-.265.369-.815-.7-2.058a1.355,1.355,0,0,1-.047-1.7s.9-1.244.348-2.234a1.353,1.353,0,0,1,.222-1.621,2.754,2.754,0,0,0,.254-2.852,1.352,1.352,0,0,1,.34-1.461,4.874,4.874,0,0,0,1.246-3.26c-.166-.2-.332-.4-.493-.608A24.38,24.38,0,0,1,247.085,266.7Z" fill="#ffd250"/><path d="M259.463,172.375c-5.472,2.943-17.142,12.17-17.479,37.43l.3,42.568c.036.06.088.121.118.179a5.677,5.677,0,0,1-.024,4.255,18.33,18.33,0,0,0,9.4.265,5.225,5.225,0,0,1,.577-4.69C252.17,201.618,257.011,180.022,259.463,172.375Z" fill="#ffd250"/><path d="M260.026,257.675a4.819,4.819,0,0,0-3.245-4.394c-.334-.115-1.473-.431-1.995.254a2.691,2.691,0,0,0-.3,3.059,2.517,2.517,0,0,1,.234,1.563,1.774,1.774,0,0,1-1.071,1.134c-1.836.833-8.817,1.926-13.641-.564a1.358,1.358,0,0,1-.594-1.8c.509-1.043.879-2.574.6-3.106-.023-.044-.086-.165-.467-.216a7.793,7.793,0,0,0-1.073-.074,5.589,5.589,0,0,0-4,1.4,2.925,2.925,0,0,0-.634,2.767c.8,3.873,5.651,6.223,12.971,6.29,5.178-.018,9.632-1.24,11.855-3.445A4.024,4.024,0,0,0,260.026,257.675Z" fill="#ffd250"/><path d="M248.378,289.781a1.335,1.335,0,0,1,1.34-.505c.941.2,3.279.693,4.621-.348a1.7,1.7,0,0,0,.215-1.981c-.124-.221-.5-.885-1.908-.345-1.334.514-3.249,1.071-4.452-.011a2.092,2.092,0,0,1-.509-.728c-.362-.031-.722-.051-1.077-.105a2.09,2.09,0,0,1-.546.833c-1.2,1.08-3.115.525-4.45.011-1.4-.534-1.786.125-1.908.345a1.7,1.7,0,0,0,.212,1.978c1.344,1.036,3.684.546,4.452.384a1.5,1.5,0,0,1,1.429.481,1.342,1.342,0,0,1,.218,1.415,31.784,31.784,0,0,1-2.925,4.818c1.692,2.474,3.157,6.883-.275,10.806a1.432,1.432,0,0,1-1.119.458,1.35,1.35,0,0,1-1.037-.618,3.141,3.141,0,0,0-1.642-1.265,1.4,1.4,0,0,0-1.116.3,1.82,1.82,0,0,0-.254,1.942c.534,1.586,2.194,2.466,4.535,2.357a1.352,1.352,0,0,1,.946,2.378l-2.206,1.892,3.6.877a1.354,1.354,0,0,1,.985.957,14.2,14.2,0,0,0,1.621,3.561,14.2,14.2,0,0,0,1.619-3.561,1.354,1.354,0,0,1,.985-.957l3.6-.877-2.208-1.892a1.353,1.353,0,0,1-.377-1.527,1.331,1.331,0,0,1,1.323-.851c2.314.1,4-.771,4.537-2.359a1.818,1.818,0,0,0-.254-1.94,1.389,1.389,0,0,0-1.124-.3,3.2,3.2,0,0,0-1.635,1.263,1.353,1.353,0,0,1-2.156.16c-3.431-3.922-1.964-8.332-.273-10.806a31.689,31.689,0,0,1-2.925-4.818A1.347,1.347,0,0,1,248.378,289.781Z" fill="#ffd250"/><path d="M438.807,201.65a5.981,5.981,0,0,0-4.925-2.684,5.608,5.608,0,0,0-4.576,1.5,5.9,5.9,0,0,0-1.54,2.947,81.923,81.923,0,0,1-7.884-5.4c-8.981-6.582-22.552-16.529-35.873-18.214-10.8-1.373-23.093.782-29.85,7.052.1-.829.132-1.384.136-1.479,0-.018-.014-.031-.014-.05a1.42,1.42,0,0,0-.872-1.276s-.007-.008-.012-.009h0a1.33,1.33,0,0,0-.757-.017c-.047.011-.088.019-.134.034a1.324,1.324,0,0,0-.6.422c-.011.013-.03.014-.04.028a10.548,10.548,0,0,1-8.078,4.311c-5.067-6.017-10.422-6.2-10.653-6.209a1.341,1.341,0,0,0-1.369,1.154,9.431,9.431,0,0,1-1.746,3.826,13.266,13.266,0,0,0-11.031-4.972,1.352,1.352,0,0,0-1.1,1.906,3.8,3.8,0,0,1-.95,4.174c-8.79-7.044-15.554-1.3-15.625-1.242a1.353,1.353,0,0,0-.222,1.786c.655.95.54,1.474.365,1.828-1.422,2.882-11.74,4.762-19.467,5.314a6.724,6.724,0,0,0-5.135-6.19,6.668,6.668,0,0,0-6.18,1.875c-1.875,2.061-2.144,5.25-.806,9.479,2.092,6.607,8.372,12.823,12.035,16.022-.892-.33-1.777-.69-2.634-1.1-2.156-1.05-5.767-2.807-8.435-1.42a4.3,4.3,0,0,0-2.051,4.142,4.986,4.986,0,0,0,3.053,3.994l-3,8.16a1.353,1.353,0,0,0,.2,1.295,1.337,1.337,0,0,0,1.2.518l6.033-.6-1.331,3.254a1.354,1.354,0,0,0,.236,1.406,1.33,1.33,0,0,0,1.364.414l6.549-1.734a10.62,10.62,0,0,0,4.054,4.745,1.333,1.333,0,0,0,1.068.081A1.353,1.353,0,0,0,289,240l1.043-2.31a14.548,14.548,0,0,0,2.974,3.072c-.44.364-.874.722-1.351,1.11-4.547,3.7-10.774,8.769-15.25,17.434a35.181,35.181,0,0,0-3.476,18.049,112.57,112.57,0,0,1-13.931-13.738,11.263,11.263,0,0,0,1.562-1.155,6.715,6.715,0,0,0,2.162-4.791,7.506,7.506,0,0,0-5.084-6.958,5.268,5.268,0,0,0-2.586-.217c-.079-58.979,6.638-77.035,8-80.076a1.352,1.352,0,0,0-1.615-1.851c-.886.26-21.713,6.766-22.172,41.226l.29,41.112a8.5,8.5,0,0,0-7.074,2.175,5.563,5.563,0,0,0-1.308,5.166c.7,3.383,3.43,5.88,7.618,7.252a4.291,4.291,0,0,0-.1,1.508,6.034,6.034,0,0,0,.653,2.188,4.157,4.157,0,0,0-1.039,2.553,4.02,4.02,0,0,0,1.226,2.894,4.536,4.536,0,0,0-.493,2.572,3.876,3.876,0,0,0,1.034,2.152,3.906,3.906,0,0,0-.109,2.211,4.223,4.223,0,0,0,1.571,2.275,3.794,3.794,0,0,0-4.209,1.767,4.365,4.365,0,0,0,.924,5.45,6.119,6.119,0,0,0,4.087,1.2,11.678,11.678,0,0,1-1.875,2.6,1.353,1.353,0,0,0-.173,1.977c.141.156,3.092,3.481,1.335,6.936a4.831,4.831,0,0,0-2.082-1.033,4.1,4.1,0,0,0-3.188.717,4.359,4.359,0,0,0-1.29,5.035,6.1,6.1,0,0,0,3.975,3.8l-1.9,1.628a1.353,1.353,0,0,0,.56,2.342l5.429,1.323a14.105,14.105,0,0,0,2.956,5.085,1.7,1.7,0,0,0,1.1.4,1.351,1.351,0,0,0,.957-.4,14.09,14.09,0,0,0,2.956-5.085l5.429-1.323a1.353,1.353,0,0,0,.56-2.342l-1.9-1.628a6.1,6.1,0,0,0,3.975-3.8,4.358,4.358,0,0,0-1.29-5.035,4.111,4.111,0,0,0-3.189-.717,4.831,4.831,0,0,0-2.081,1.031c-1.728-3.436,1.2-6.782,1.34-6.938a1.356,1.356,0,0,0-.176-1.973,11.628,11.628,0,0,1-1.871-2.6,6.415,6.415,0,0,0,4.083-1.2,3.5,3.5,0,0,0,.671-.782c.1,5.939,3.86,8.289,4.023,8.388a1.349,1.349,0,0,0,1.85-.457,2.094,2.094,0,0,1,.505-.626c.476.026,1.811,1.432,2.787,2.457a36.444,36.444,0,0,0,6.3,5.58,10.034,10.034,0,0,0,5.625,1.859c4.872,0,8.521-4.111,10.078-6.223a49.682,49.682,0,0,0,10.4,4.895,1.327,1.327,0,0,0,.4.067c.468,1.519.979,3.048,1.507,4.564,1.693,4.857,3.443,9.881,2.755,13.7-.889,4.943-8.71,4.993-12.729,4.317a8.639,8.639,0,0,0-7.46,2.081,8.9,8.9,0,0,0-2.678,7.354,3.888,3.888,0,0,0,1.951,3.288c1.806.971,4.248.245,5.575-.3,3.047,2.654,6.691,1.54,8.9.138a7.149,7.149,0,0,0,4.505,1.763c.054,0,.107,0,.162,0a9.6,9.6,0,0,0,5.6-2.1c5.241,2.121,8.238.54,8.763.215,4.255-3.59,3.555-10.041,3-12.846a18.432,18.432,0,0,0,11.685-10.585,1.352,1.352,0,0,0-1.626-1.763c-2.7.724-4.825.231-5.839-1.356-1.373-2.147-.483-5.661,2.268-8.947a26.847,26.847,0,0,0,1.657-2.248c6.758-1.511,12.53-4.139,18.641-6.926a138.043,138.043,0,0,1,16.508-6.641,29.581,29.581,0,0,1,5.107-1.085c-.505,7.331,3.255,12.161,6.948,16.808,1.02,1.282,2.04,2.563,2.964,3.9,3.96,5.735,3.2,17.759,2.879,18.844a7.273,7.273,0,0,1-6.7,2.8,11.731,11.731,0,0,0-8.919,2.622,6.917,6.917,0,0,0-2.537,5.184,3.051,3.051,0,0,0,1.44,2.828c1.96,1.164,5.2-.081,6.941-.913a7.773,7.773,0,0,0,4.833,1.718,9.038,9.038,0,0,0,4.849-1.506c3.628,2.292,7.428.95,9.546-.495a7.078,7.078,0,0,0,6.162.614,6.309,6.309,0,0,0,1.226-.647c.055.057.105.134.161.181,1.44,1.239,4.1.579,5.809-.039a4.683,4.683,0,0,0,2.613,2.121c2.506.8,5.383-.575,6.831-1.432a6.9,6.9,0,0,0,5.246,1.684,6.228,6.228,0,0,0,3.445-1.763,12.888,12.888,0,0,0,3.641,1.8,6.278,6.278,0,0,0,1.911.322,3.821,3.821,0,0,0,3.256-1.636c1.565-2.285.749-6.154-1-8.338a8.243,8.243,0,0,1-1.474-6.177,6.414,6.414,0,0,1,2.947-4.465c3.676-2.338,6.088-5.5,6.144-8.063a2.8,2.8,0,0,0-1.133-2.457,4.552,4.552,0,0,0-2.137-.661c-1.61-.213-3.616-.478-6.168-5.191-2.274-4.2.419-12.339,3.274-20.957a139.14,139.14,0,0,0,4.378-15.108c2.618-12.569-3.693-22.7-5.978-25.849,6.355-6.251,9.02-12.25,7.922-17.842-1.208-6.162-6.953-10.383-11.5-12.126-5.5-2.108-14.719-1.012-23.633.056-6.951.832-13.523,1.621-17.47.785a4.6,4.6,0,0,1-3.153-1.928,5.684,5.684,0,0,1-.479-3.918,1.358,1.358,0,0,0-.254-1.193,1.333,1.333,0,0,0-1.108-.505,9.473,9.473,0,0,0-5.935,2.742,3.314,3.314,0,0,1-.033-1.122c.351-2.6,3.346-4.874,3.375-4.9a1.354,1.354,0,0,0-.107-2.239c-5.512-3.357-10.658-.871-13.292,1.464a6.061,6.061,0,0,1-1.732-4.437,4.875,4.875,0,0,1,2.627-4.3,3.138,3.138,0,0,1,2.631-.361,5.011,5.011,0,0,1,2.388,2.659,1.355,1.355,0,0,0,.815.789,1.332,1.332,0,0,0,1.13-.106c3.017-1.76,3.982-5.457,4.288-7.508a6.281,6.281,0,0,1,4.11,2.282c2.758,3.478,1.63,9.6,1.619,9.666a1.354,1.354,0,0,0,1.679,1.563,11.1,11.1,0,0,0,8.386-10.29c4.683,2.916,4.364,8.947,4.346,9.23a1.355,1.355,0,0,0,1.858,1.345,7.779,7.779,0,0,0,4.169-3.753,23.407,23.407,0,0,0,10.473,7.623,1.354,1.354,0,0,0,1.662-1.806l-1.323-3.207c1.077.759,2.114,1.558,3.18,2.379a51.084,51.084,0,0,0,9.96,6.4c4.738,2.226,8.114,1.727,10.119.924a7.487,7.487,0,0,0,4.239-4.035A8.349,8.349,0,0,0,438.807,201.65Zm-2.105,6.3a4.828,4.828,0,0,1-2.724,2.486c-1.5.606-4.1.951-7.951-.862a48.781,48.781,0,0,1-9.461-6.1,50.614,50.614,0,0,0-7.05-4.807,1.352,1.352,0,0,0-1.892,1.707l1.61,3.9a19.868,19.868,0,0,1-7.629-7.548,1.353,1.353,0,0,0-2.541.649,5.127,5.127,0,0,1-1.561,3.375c-.466-3.6-2.442-8.448-7.874-10.366a1.342,1.342,0,0,0-1.3.218,1.358,1.358,0,0,0-.5,1.217c.033.281.682,6.313-4.437,8.926.138-2.528-.081-6.613-2.406-9.554a9.436,9.436,0,0,0-7.393-3.439,1.281,1.281,0,0,0-.98.363,1.353,1.353,0,0,0-.43.953c0,.042-.156,3.67-2,5.772a6.713,6.713,0,0,0-3.1-2.622,5.749,5.749,0,0,0-4.863.5,7.553,7.553,0,0,0-4.065,6.6,8.511,8.511,0,0,0,3.841,7.469,1.366,1.366,0,0,0,1.721-.256c.178-.2,4.039-4.423,9.076-2.654a10.04,10.04,0,0,0-2.856,5.259,6.087,6.087,0,0,0,1.32,4.694,1.288,1.288,0,0,0,1.1.523,1.353,1.353,0,0,0,1.075-.566,9.144,9.144,0,0,1,3.663-2.858,7.492,7.492,0,0,0,1.021,3.977,7.183,7.183,0,0,0,4.913,3.179c4.381.915,11.167.106,18.347-.747,8.593-1.022,17.475-2.082,22.343-.216,3.906,1.5,8.822,5.044,9.817,10.121.957,4.868-1.737,10.318-8,16.195a1.352,1.352,0,0,0-.111,1.857c.089.107,9.016,10.931,6.176,24.563a136.4,136.4,0,0,1-4.3,14.81c-3.174,9.588-5.914,17.868-3.082,23.1,3.209,5.926,6.329,6.337,8.193,6.584a7.076,7.076,0,0,1,.894.145c.268.546-.687,3.411-4.865,6.07a9.044,9.044,0,0,0-4.165,6.3,10.967,10.967,0,0,0,2.029,8.312c1.309,1.635,1.55,4.136.879,5.114-.132.19-.532.763-2.121.266a8.959,8.959,0,0,1-3.61-2.02,1.407,1.407,0,0,0-1.128-.443,1.351,1.351,0,0,0-1.028.636,4.02,4.02,0,0,1-2.507,1.7c-1.161.157-2.453-.4-3.85-1.681a1.359,1.359,0,0,0-1.7-.1c-.841.6-3.628,2.165-5.332,1.633-.245-.079-.992-.319-1.471-1.724a1.356,1.356,0,0,0-1.843-.791c-1.644.747-3.708,1.216-4.105,1.036a1.577,1.577,0,0,1,.1-.782c.936-3.227,4.745-4,7.266-4.511.463-.094.883-.18,1.234-.268.278-.068.6-.132.937-.2,2.483-.493,7.647-1.521,7-8.015a28.889,28.889,0,0,1-.063-3.844c.118-4,.23-7.777-6.056-12.3-2.318-1.671-4.553-3.17-6.7-4.611-4.889-3.283-9.112-6.115-12.98-9.983-7.983-7.987-17.492-10.327-28.274-6.951a139.7,139.7,0,0,0-16.82,6.761,104.067,104.067,0,0,1-15.534,6.051c4.28-8.135,6.624-18.922,6.142-24.122a1.354,1.354,0,0,0-2.7.25c.553,5.938-3.133,20.518-9.162,27.722-3.523,4.211-4.494,8.977-2.474,12.141,1.255,1.961,3.384,2.9,6.065,2.926a15.83,15.83,0,0,1-9.923,7.033,1.358,1.358,0,0,0-.865.636,1.344,1.344,0,0,0-.13,1.064c.023.079,2.261,7.915-1.612,11.217-.1.056-2.439,1.242-6.9-.8a1.356,1.356,0,0,0-1.505.26c-.023.018-2.215,2.073-4.524,1.933a4.829,4.829,0,0,1-3.469-1.739,1.357,1.357,0,0,0-1.863-.106c-.16.139-3.991,3.318-6.835.132a1.353,1.353,0,0,0-1.639-.3c-1.086.567-3.092,1.2-3.945.733-.113-.062-.457-.247-.546-1.169a6.186,6.186,0,0,1,1.834-5.115,5.937,5.937,0,0,1,5.167-1.388c7.092,1.184,14.731-.372,15.838-6.508.812-4.514-1.057-9.877-2.863-15.066-1.361-3.9-2.766-7.939-2.829-11.209a61.414,61.414,0,0,1,1.318-13.053,1.353,1.353,0,0,0-2.636-.608,62.764,62.764,0,0,0-1.388,13.713,21.823,21.823,0,0,0,.634,4.353c-10.269-3.794-17.123-9.7-20.308-17.615-3.732-9.278-1.615-19.23,1.331-24.935,4.218-8.163,9.95-12.826,14.556-16.576a40.737,40.737,0,0,0,5.486-5c-.146,2.25-2.06,6.775-4.148,10.4a1.353,1.353,0,0,0,1.575,1.967,40.179,40.179,0,0,0,4.8-2.173l.434,6.831a1.352,1.352,0,0,0,2.207.959,33.929,33.929,0,0,0,4.738-5l1.346,4.249a1.352,1.352,0,0,0,2.06.7,26.359,26.359,0,0,0,4.987-4.939l2.569,4.1a1.3,1.3,0,0,0,1.213.632,1.349,1.349,0,0,0,1.145-.747l3-6,2.528,6.873a1.353,1.353,0,0,0,.835.814,1.3,1.3,0,0,0,.435.072,1.374,1.374,0,0,0,.723-.207l6.625-4.179a31.409,31.409,0,0,0,8.793,2.793,1.393,1.393,0,0,0,1.137-.352,1.356,1.356,0,0,0,.422-1.113L345.75,249l5.866-.089a1.353,1.353,0,0,0,.328-2.66c-.64-.171-2.108-1.543-3.361-2.948.159-.011.232-.018.307-.024,3.373.257,60.632,4.472,73.188-4.661,6.983-5.078,6.495-9.694,5.581-11.993-1.884-4.748-8.736-7.777-15.57-6.906-2.717.348-5.639.868-8.666,1.411-8.57,1.535-18.283,3.275-26.248,1.323a68.186,68.186,0,0,1-8.119-2.657c-3.977-1.506-6.852-2.6-9.055-1.279a4.79,4.79,0,0,0-2.017,2.738,6.883,6.883,0,0,1-.911-8.355,1.357,1.357,0,0,0-.213-1.567c-.079-.085-7.931-8.5-4.236-17.736,3.318-8.295,16.377-12.977,31.05-11.113,12.625,1.6,25.856,11.294,34.611,17.71,5.512,4.039,8.48,6.158,10.488,6.421a1.336,1.336,0,0,0,1.1-.354,1.359,1.359,0,0,0,.431-1.068,4.189,4.189,0,0,1,.93-2.828,3.018,3.018,0,0,1,2.479-.705,3.4,3.4,0,0,1,2.825,1.447A5.8,5.8,0,0,1,436.7,207.954ZM394.162,338.79a4.96,4.96,0,0,1-4.393-.906,1.359,1.359,0,0,0-1.628.109c-.163.141-4.03,3.407-7.736.419a1.364,1.364,0,0,0-1.736.032c-.4.345-4.039,3.275-7.661-.116a1.355,1.355,0,0,0-1.568-.2c-1.842.995-4.414,1.807-5.1,1.391-.113-.067-.118-.43-.118-.5a4.274,4.274,0,0,1,1.612-3.147,9.047,9.047,0,0,1,6.78-1.977c5.126.685,8.863-2.831,9.54-4.417.6-1.4,1.588-14.606-3.138-21.448-.959-1.388-2.014-2.719-3.073-4.049-3.593-4.52-6.958-8.815-6.35-15.347,6.566-.138,12.513,2.374,17.727,7.588a64.605,64.605,0,0,0,8.785,7.162c-1.2,1.234-3.137,3.564-3.284,5.935a4.143,4.143,0,0,0,1.066,3.089,6.43,6.43,0,0,0,5.7,2.005,7.56,7.56,0,0,1,.85-.015,30.329,30.329,0,0,1-2.752,4.158c-2.684,3.661-4.42,6.209-4.125,8.182.2,1.346.732,3.375,1.244,5.339a43.006,43.006,0,0,1,1.191,5.247A3.266,3.266,0,0,1,394.162,338.79Zm5.7-18.639c2.6-3.549,3.922-5.471,3.157-7-.785-1.571-2.389-1.5-3.563-1.443-1.26.06-2.454.113-3.558-1.113a1.412,1.412,0,0,1-.377-1.108c.094-1.546,1.838-3.552,2.842-4.536.777.527,1.549,1.054,2.342,1.586,2.125,1.426,4.334,2.909,6.626,4.559,5.119,3.686,5.044,6.209,4.934,10.027a31.193,31.193,0,0,0,.076,4.193c.375,3.758-1.768,4.481-4.833,5.09-.387.077-.749.15-1.068.23s-.7.156-1.116.242c-1.955.4-5.08,1.065-7.253,3.091-.179-.733-.4-1.582-.657-2.574-.493-1.9-1-3.855-1.186-5.058C396.077,325.315,398.539,321.957,399.86,320.151ZM262.762,294.9a2.757,2.757,0,0,0-1.54.691,8.016,8.016,0,0,1-1.871-5.521c0-4.3-1.217-6.441-1.991-7.374a5.427,5.427,0,0,0,.518-.865,4.1,4.1,0,0,0-.509-4.146,4.85,4.85,0,0,0,.365-3.441,5.522,5.522,0,0,0,.535-4.158,7.858,7.858,0,0,0,1.073-1.932,129.847,129.847,0,0,0,14.146,13.15,29.415,29.415,0,0,0,1.491,5.186,30.336,30.336,0,0,0,10.61,13.255c-2.3,3.13-6.618,7.2-11.956,3.633a34.16,34.16,0,0,1-5.844-5.194C265.871,296.175,264.469,294.714,262.762,294.9Zm-11.321,11.924a1.353,1.353,0,0,0,2.156-.16,3.213,3.213,0,0,1,1.635-1.263,1.379,1.379,0,0,1,1.124.3,1.818,1.818,0,0,1,.254,1.94c-.535,1.588-2.223,2.462-4.537,2.359a1.33,1.33,0,0,0-1.323.851,1.353,1.353,0,0,0,.377,1.527l2.208,1.892-3.6.877a1.354,1.354,0,0,0-.985.957,14.239,14.239,0,0,1-1.619,3.561,14.2,14.2,0,0,1-1.621-3.561,1.354,1.354,0,0,0-.985-.957l-3.6-.877,2.206-1.892a1.352,1.352,0,0,0-.946-2.378c-2.342.109-4-.771-4.535-2.357a1.821,1.821,0,0,1,.254-1.942,1.4,1.4,0,0,1,1.116-.3,3.141,3.141,0,0,1,1.642,1.265,1.352,1.352,0,0,0,1.037.618,1.432,1.432,0,0,0,1.119-.458c3.432-3.922,1.966-8.332.275-10.806a31.689,31.689,0,0,0,2.925-4.818,1.344,1.344,0,0,0-.218-1.415,1.5,1.5,0,0,0-1.429-.481c-.768.162-3.108.652-4.452-.384a1.7,1.7,0,0,1-.212-1.978c.121-.221.5-.879,1.908-.345,1.335.514,3.253,1.069,4.45-.011a2.08,2.08,0,0,0,.546-.833c.355.054.715.073,1.077.105a2.082,2.082,0,0,0,.509.728c1.2,1.081,3.118.525,4.452.011,1.409-.54,1.785.125,1.908.345a1.7,1.7,0,0,1-.215,1.981c-1.343,1.039-3.681.544-4.621.348a1.341,1.341,0,0,0-1.34.505,1.356,1.356,0,0,0-.136,1.426,31.784,31.784,0,0,0,2.925,4.818C249.476,298.5,248.011,302.908,251.441,306.829Zm4.389-38.036a1.352,1.352,0,0,0-.34,1.461,2.747,2.747,0,0,1-.254,2.852,1.351,1.351,0,0,0-.222,1.621c.557.99-.345,2.23-.348,2.234a1.356,1.356,0,0,0,.047,1.7c1.064,1.242.815,1.793.7,2.058a4.014,4.014,0,0,1-2.444,1.969,11.344,11.344,0,0,1-4.182.564,1.19,1.19,0,0,0-.158,0,12.221,12.221,0,0,1-4.487-.948c-.608-.286-1.369-.756-1.532-1.367a1.533,1.533,0,0,1,.233-1.107,1.35,1.35,0,0,0-.321-1.931c-.705-.479-.761-.888-.779-1.022a2.474,2.474,0,0,1,.585-1.591,1.353,1.353,0,0,0-.206-1.974c-.413-.31-1.1-.915-1.092-1.5a2.192,2.192,0,0,1,.927-1.374,1.365,1.365,0,0,0,.558-1.105,1.43,1.43,0,0,0-.564-1.138,2.839,2.839,0,0,1-.529-2.036,29.568,29.568,0,0,0,5.364.527l.3,0a24.348,24.348,0,0,0,9.5-1.773c.162.2.328.406.493.608A4.856,4.856,0,0,1,255.83,268.793Zm-9.021-4.8c-7.32-.067-12.17-2.418-12.971-6.29a2.923,2.923,0,0,1,.634-2.767,5.585,5.585,0,0,1,4-1.4,7.792,7.792,0,0,1,1.073.074c.381.051.444.172.467.216.284.532-.086,2.063-.6,3.106a1.357,1.357,0,0,0,.594,1.8c4.824,2.489,11.8,1.4,13.641.564a1.775,1.775,0,0,0,1.071-1.134,2.5,2.5,0,0,0-.234-1.562,2.691,2.691,0,0,1,.3-3.059c.522-.685,1.66-.369,2-.254a4.817,4.817,0,0,1,3.245,4.394,4.04,4.04,0,0,1-1.362,2.87C256.441,262.75,251.987,263.972,246.809,263.99Zm4.974-6.918a18.3,18.3,0,0,1-9.4-.265,5.668,5.668,0,0,0,.024-4.255c-.031-.057-.082-.119-.118-.179l-.3-42.568c.337-25.261,12.006-34.488,17.479-37.43-2.452,7.647-7.293,29.242-7.1,80.006A5.231,5.231,0,0,0,251.783,257.072Zm36.892-22.921-1.42,3.139a10.773,10.773,0,0,1-2.141-3.492,1.341,1.341,0,0,0-1.605-.81l-5.041,1.334,1.154-2.82a1.351,1.351,0,0,0-.169-1.322,1.328,1.328,0,0,0-1.217-.537l-6.12.611,2.271-6.17a98.2,98.2,0,0,0,16.256,3.309l-1,1.246A1.353,1.353,0,0,0,291,230.8c.072-.015,7.338-1.662,12.284-.957a1.374,1.374,0,0,0,1.379-.691,1.351,1.351,0,0,0-.163-1.533c-2.888-3.34-10.649-12.664-11.875-15.642a1.382,1.382,0,0,0-1.409-.83,1.355,1.355,0,0,0-1.178,1.134l-.679,4.329a13.348,13.348,0,0,1-3.564-3.464,1.354,1.354,0,0,0-2.462.705c-.007.132-.029.658,0,1.37-3.484-3.1-9.077-8.754-10.894-14.492-1.013-3.2-.934-5.562.229-6.841a4.063,4.063,0,0,1,3.611-1.048,3.893,3.893,0,0,1,2.415,1.795,3.635,3.635,0,0,1,.469,2.847,1.347,1.347,0,0,0,.256,1.2,1.333,1.333,0,0,0,1.119.5c3.411-.169,20.565-1.3,23.338-6.918a4,4,0,0,0,.085-3.372c1.815-1.036,6.3-2.572,12.106,2.618a1.358,1.358,0,0,0,1.7.081,7.47,7.47,0,0,0,3.1-6.221,10.734,10.734,0,0,1,7.916,5.167,1.355,1.355,0,0,0,2.127.224,15.387,15.387,0,0,0,3.21-5.282c1.615.377,4.818,1.592,7.948,5.525a1.354,1.354,0,0,0,.954.508,13,13,0,0,0,4.079-.546c-6.833,5.505-17.938,6.631-18.083,6.645a1.352,1.352,0,0,0-.921,2.205l1.928,2.35c-7.645.142-11.012-2.624-11.042-2.65a1.353,1.353,0,0,0-2.079,1.664l1.675,3.094a32.893,32.893,0,0,1-8.075-3.21c-2.912-1.483-5.215-2.65-7.233-2.051a4.239,4.239,0,0,0-2.87,3.555,4.757,4.757,0,0,0,2.019,4.73,4.591,4.591,0,0,0,2.56.774,5.079,5.079,0,0,0,3.537-1.482,4.844,4.844,0,0,0,1.453-2.763c3.048,1.544,6.758,3.289,11,3.471a1.288,1.288,0,0,0,1.2-.634,1.35,1.35,0,0,0,.042-1.362l-.885-1.633a27.442,27.442,0,0,0,11.556,1.031,1.352,1.352,0,0,0,.913-2.2l-2.073-2.527c4.247-.707,12.964-2.758,18.465-8.092-.9,2.494-2.38,5.064-4.811,6.471a1.36,1.36,0,0,0-.374,2.023c.046.058,4.424,5.772,3.059,20.706a22.966,22.966,0,0,1-10.039-9.865,1.353,1.353,0,0,0-2.56.738,41.215,41.215,0,0,1,.169,6.531,13.476,13.476,0,0,1-4.355-4.633,1.326,1.326,0,0,0-1.365-.789,1.351,1.351,0,0,0-1.186,1.039c-.342,1.473-.8,3.18-1.169,4.338a11.729,11.729,0,0,1-3.88-3.549,1.353,1.353,0,0,0-2.54.569c-.088,1.566-.3,3.982-.558,5.652a30.721,30.721,0,0,1-4.287-3.083,1.341,1.341,0,0,0-1.293-.295,1.357,1.357,0,0,0-.924.953l-.694,2.637a14.628,14.628,0,0,1-3.829-3.038A1.352,1.352,0,0,0,307.468,220a19.827,19.827,0,0,0,6.237,4.547,1.371,1.371,0,0,0,1.14-.009,1.355,1.355,0,0,0,.729-.879l.594-2.257a44.545,44.545,0,0,0,4.665,2.988,1.384,1.384,0,0,0,1.107.086,1.355,1.355,0,0,0,.8-.771,22.361,22.361,0,0,0,.854-4.83,21.65,21.65,0,0,0,4.051,2.719,1.355,1.355,0,0,0,1.766-.514,17.93,17.93,0,0,0,1.216-3.434,23.56,23.56,0,0,0,5.3,4.254,1.384,1.384,0,0,0,1.126.1,1.354,1.354,0,0,0,.807-.793,14.281,14.281,0,0,0,.557-4.438,26.494,26.494,0,0,0,7.667,6.316c0,.033-.015.062-.013.1a67.073,67.073,0,0,0,1.086,8.38,27.853,27.853,0,0,1-9.3-5.73,1.354,1.354,0,0,0-2.182.475l-1.042,2.571-4.352-3.157a1.355,1.355,0,0,0-2.138.921l-.393,3.018a18.8,18.8,0,0,1-2.891-2.5,1.353,1.353,0,0,0-2.023,1.8,27.131,27.131,0,0,0,5.27,4.2,1.355,1.355,0,0,0,2.046-.982l.381-2.93,3.91,2.837a1.357,1.357,0,0,0,2.049-.587l.974-2.407a30.264,30.264,0,0,0,7.02,4.3,17.29,17.29,0,0,0,1.655,7.253,24.208,24.208,0,0,1-9.962-2.3,1.349,1.349,0,0,0-1.739.474l-1.96,3.02-8.105-5.438a1.321,1.321,0,0,0-1.172-.162,1.35,1.35,0,0,0-.853.819l-1.246,3.393c-1.492-1.674-3.631-4.03-4.419-4.66a1.352,1.352,0,0,0-1.837.138,29.755,29.755,0,0,1-4.183,3.628l-1.562-4.2a1.354,1.354,0,0,0-2.538.944l2.143,5.751a1.355,1.355,0,0,0,1.926.711,27.058,27.058,0,0,0,5.231-4.022c1.255,1.295,3.363,3.656,4.706,5.2a1.355,1.355,0,0,0,2.29-.423l1.436-3.91,7.816,5.244a1.362,1.362,0,0,0,.754.23,1.255,1.255,0,0,0,.271-.029,1.343,1.343,0,0,0,.863-.588l2.067-3.188a26.923,26.923,0,0,0,9.441,2.05,1.338,1.338,0,0,0,.294.919c.33.4,1,1.2,1.816,2.025l-3.384.051a1.356,1.356,0,0,0-1.326,1.482l.505,5.3a22.6,22.6,0,0,1-6.761-2.5,1.347,1.347,0,0,0-1.464-.014l-5.914,3.732-3.03-8.241a1.352,1.352,0,0,0-1.2-.885,1.292,1.292,0,0,0-1.287.747l-3.321,6.641-2.327-3.711a1.357,1.357,0,0,0-1.112-.634,1.407,1.407,0,0,0-1.142.575,34.2,34.2,0,0,1-4.066,4.682l-1.544-4.875a1.352,1.352,0,0,0-2.406-.355,43.429,43.429,0,0,1-3.8,4.685l-.382-6.036a1.354,1.354,0,0,0-1.99-1.107c-.582.312-1.658.876-2.784,1.432,1.592-3.3,3.4-7.948,2.371-10.34a2.835,2.835,0,0,0-1.571-1.48,1.361,1.361,0,0,0-.118-.1,1.382,1.382,0,0,0-.2-.06c-.046-.013-.076-.051-.124-.062s-.1-.009-.148-.02c-.028,0-.054-.009-.083-.011a4.651,4.651,0,0,0-3.808.657,4.951,4.951,0,0,0-1.544,1.946,11.006,11.006,0,0,1-2.513-3.585,1.35,1.35,0,0,0-1.228-.83A1.315,1.315,0,0,0,288.675,234.151Zm-10.29-15.1c7.315,3.526,16.3,3.916,18.762,3.961,1.176,1.461,2.323,2.856,3.243,3.951a45.57,45.57,0,0,0-6.362.535l.321-.4a1.354,1.354,0,0,0-.974-2.2,93.6,93.6,0,0,1-19.4-3.773h-.012a.026.026,0,0,0-.008,0c-1.508-.455-2.386-1.23-2.474-2.179a1.665,1.665,0,0,1,.6-1.489C273.536,216.7,276.608,218.189,278.385,219.051Zm12.784.763a1.341,1.341,0,0,0,.565-.871l.4-2.537c.811,1.18,1.794,2.486,2.808,3.8C293.891,220.136,292.6,220.012,291.169,219.814Zm-2.382-.383c-.66-.122-1.339-.265-2.026-.423a1.348,1.348,0,0,0-.114-.879c-.039-.077-.074-.159-.109-.243A15.882,15.882,0,0,0,288.787,219.431Zm17.846-14.772a2.129,2.129,0,0,1-2.7.4,2.1,2.1,0,0,1-.844-2.078,1.63,1.63,0,0,1,.969-1.364,1.37,1.37,0,0,1,.382-.05,7.376,7.376,0,0,1,2.633.824l0,0A1.843,1.843,0,0,1,306.633,204.659Zm51.45,20.256a1.352,1.352,0,0,0,2.066-.967c.225-1.7.641-2.746,1.238-3.1,1.078-.647,3.69.343,6.709,1.487a70.989,70.989,0,0,0,8.43,2.755c8.519,2.087,18.534.295,27.368-1.288,2.985-.534,5.86-1.048,8.533-1.39,5.589-.712,11.287,1.628,12.713,5.22,1.077,2.711-.578,5.839-4.659,8.807-11.313,8.226-65.482,4.573-71.005,4.178-1.469-1.4-2.044-4.263-2.215-6.15.893.285,1.492.427,1.569.444a1.306,1.306,0,0,0,.278.029,1.352,1.352,0,0,0,1.271-1.819,42.313,42.313,0,0,1-1.5-8.736,1.32,1.32,0,0,0,1.054-.134,1.355,1.355,0,0,0,.634-.994c1.6-13.594-1.191-20.682-2.654-23.337a11.465,11.465,0,0,0,1-.87c.1,6.425,3.825,11.592,5.349,13.437A9.837,9.837,0,0,0,358.083,224.915Z" fill="#464655"/><path d="M222.355,155.24c-.525-10.9-3.113-28.531-11.385-28.935a8.546,8.546,0,0,0-7.054,2.778,1.394,1.394,0,0,1-1.155.531l-3.161-.19.566,2.1a1.36,1.36,0,0,1-.435,1.387c-.192.162-4.662,4.044-1.942,8.988,2.072,3.767,8.769,5.55,13.658,6.85a33.088,33.088,0,0,1,5.294,1.683A16.812,16.812,0,0,1,222.355,155.24Z" fill="#ffd250"/><path d="M211.1,123.6a11.5,11.5,0,0,0-8.831,3.271l-4.385-.263a1.356,1.356,0,0,0-1.389,1.7l.842,3.124c-2.15,2.194-4.678,6.75-1.922,11.759,2.628,4.782,9.973,6.735,15.334,8.163a32.24,32.24,0,0,1,4.8,1.5c3.17,1.55,5.716,5.076,7.041,7.86a1.351,1.351,0,0,0,1.222.771,1.389,1.389,0,0,0,.292-.032,1.353,1.353,0,0,0,1.06-1.308C225.181,158.686,225.354,124.3,211.1,123.6Zm.345,25.141c-4.889-1.3-11.586-3.083-13.658-6.85-2.72-4.943,1.75-8.825,1.942-8.988a1.364,1.364,0,0,0,.435-1.387l-.566-2.1,3.161.19a1.389,1.389,0,0,0,1.155-.531,8.54,8.54,0,0,1,7.054-2.778c8.273.4,10.86,18.034,11.385,28.935a16.817,16.817,0,0,0-5.615-4.813A32.805,32.805,0,0,0,211.445,148.743Z" fill="#464655"/><path d="M448.542,155.24c.525-10.9,3.113-28.531,11.385-28.935a8.546,8.546,0,0,1,7.054,2.778,1.394,1.394,0,0,0,1.155.531l3.161-.19-.566,2.1a1.36,1.36,0,0,0,.435,1.387c.192.162,4.662,4.044,1.942,8.988-2.072,3.767-8.769,5.55-13.658,6.85a33.088,33.088,0,0,0-5.294,1.683A16.8,16.8,0,0,0,448.542,155.24Z" fill="#ffd250"/><path d="M445.729,160.15a1.355,1.355,0,0,0,1.06,1.308,1.389,1.389,0,0,0,.292.032,1.351,1.351,0,0,0,1.221-.771c1.325-2.784,3.871-6.31,7.041-7.86a32.119,32.119,0,0,1,4.8-1.5c5.362-1.427,12.7-3.381,15.334-8.163,2.755-5.01.227-9.566-1.922-11.759l.842-3.124a1.356,1.356,0,0,0-1.389-1.7l-4.385.263a11.516,11.516,0,0,0-8.831-3.271C445.543,124.3,445.716,158.686,445.729,160.15Zm8.428-9.725a16.83,16.83,0,0,0-5.615,4.813c.525-10.9,3.113-28.531,11.385-28.935a8.546,8.546,0,0,1,7.054,2.778,1.394,1.394,0,0,0,1.155.531l3.161-.19-.566,2.1a1.36,1.36,0,0,0,.435,1.387c.192.162,4.662,4.044,1.942,8.988-2.072,3.767-8.769,5.55-13.658,6.85A33.137,33.137,0,0,0,454.157,150.425Z" fill="#464655"/><path d="M448.542,356.76c.525,10.9,3.113,28.531,11.385,28.935a8.542,8.542,0,0,0,7.054-2.779,1.394,1.394,0,0,1,1.155-.531l3.161.19-.566-2.1a1.36,1.36,0,0,1,.435-1.387c.192-.162,4.662-4.044,1.942-8.988-2.072-3.767-8.769-5.55-13.658-6.85a33.088,33.088,0,0,1-5.294-1.683A16.777,16.777,0,0,1,448.542,356.76Z" fill="#ffd250"/><path d="M459.8,388.4a11.5,11.5,0,0,0,8.831-3.271l4.385.263a1.356,1.356,0,0,0,1.389-1.7l-.842-3.124c2.15-2.194,4.678-6.75,1.922-11.759-2.628-4.782-9.973-6.735-15.334-8.163a32.241,32.241,0,0,1-4.8-1.5c-3.17-1.55-5.716-5.076-7.041-7.86a1.351,1.351,0,0,0-1.221-.771,1.387,1.387,0,0,0-.292.032,1.353,1.353,0,0,0-1.06,1.308C445.716,353.314,445.543,387.7,459.8,388.4Zm-.345-25.141c4.889,1.3,11.586,3.083,13.658,6.85,2.72,4.943-1.75,8.825-1.942,8.988a1.364,1.364,0,0,0-.435,1.387l.566,2.1-3.161-.19a1.389,1.389,0,0,0-1.155.531,8.54,8.54,0,0,1-7.054,2.778c-8.273-.4-10.86-18.034-11.385-28.935a16.817,16.817,0,0,0,5.615,4.813A32.8,32.8,0,0,0,459.452,363.257Z" fill="#464655"/><path d="M222.355,356.76c-.525,10.9-3.113,28.531-11.385,28.935a8.542,8.542,0,0,1-7.054-2.779,1.394,1.394,0,0,0-1.155-.531l-3.161.19.566-2.1a1.36,1.36,0,0,0-.435-1.387c-.192-.162-4.662-4.044-1.942-8.988,2.072-3.767,8.769-5.55,13.658-6.85a33.088,33.088,0,0,0,5.294-1.683A16.787,16.787,0,0,0,222.355,356.76Z" fill="#ffd250"/><path d="M225.167,351.85a1.355,1.355,0,0,0-1.06-1.308,1.389,1.389,0,0,0-.292-.032,1.353,1.353,0,0,0-1.222.771c-1.325,2.784-3.871,6.31-7.041,7.86a32.12,32.12,0,0,1-4.8,1.5c-5.362,1.427-12.705,3.381-15.334,8.163-2.755,5.01-.227,9.566,1.922,11.759l-.842,3.124a1.356,1.356,0,0,0,1.389,1.7l4.385-.263A11.516,11.516,0,0,0,211.1,388.4C225.354,387.7,225.181,353.314,225.167,351.85Zm-8.428,9.726a16.83,16.83,0,0,0,5.615-4.813c-.525,10.9-3.113,28.531-11.385,28.935a8.546,8.546,0,0,1-7.054-2.778,1.394,1.394,0,0,0-1.155-.531l-3.161.19.566-2.1a1.36,1.36,0,0,0-.435-1.387c-.192-.162-4.662-4.044-1.942-8.988,2.072-3.767,8.769-5.55,13.658-6.85A33.272,33.272,0,0,0,216.739,361.576Z" fill="#464655"/></g></svg>