<svg xmlns="http://www.w3.org/2000/svg" width="512" height="335.449" viewBox="0 0 512 335.449"><g transform="translate(0 -88.276)"><path d="M512,200.093H0V97.1a8.829,8.829,0,0,1,8.828-8.828H503.173A8.829,8.829,0,0,1,512,97.1V200.093Z" fill="#ff4b55"/><path d="M503.172,423.725H8.828A8.829,8.829,0,0,1,0,414.9V311.909H512V414.9A8.828,8.828,0,0,1,503.172,423.725Z" fill="#464655"/><rect width="512" height="111.81" transform="translate(0 200.091)" fill="#f5f5f5"/><path d="M3.256,421.591,206.1,260.576a5.842,5.842,0,0,0,0-9.151L3.256,90.411A8.683,8.683,0,0,0,0,97.1V414.9A8.683,8.683,0,0,0,3.256,421.591Z" fill="#73af00"/></g></svg>