<svg xmlns="http://www.w3.org/2000/svg" width="512" height="335.449" viewBox="0 0 512 335.449"><g transform="translate(0 -88.276)"><path d="M503.172,423.725H8.828A8.829,8.829,0,0,1,0,414.9V97.1a8.829,8.829,0,0,1,8.828-8.828H503.173A8.829,8.829,0,0,1,512,97.1V414.9A8.83,8.83,0,0,1,503.172,423.725Z" fill="#73af00"/><rect width="512" height="35.31" transform="translate(0 150.071)" fill="#f5f5f5"/><rect width="512" height="35.31" transform="translate(0 326.621)" fill="#f5f5f5"/><rect width="512" height="141.24" transform="translate(0 185.381)" fill="#c8414b"/><path d="M253.8,201.615l-12.854,38.541-40.627.314a2.318,2.318,0,0,0-1.359,4.183l32.683,24.135-12.255,38.737a2.318,2.318,0,0,0,3.559,2.585L256,286.485l33.053,23.625a2.319,2.319,0,0,0,3.559-2.585l-12.255-38.737,32.683-24.135a2.318,2.318,0,0,0-1.359-4.183l-40.627-.314L258.2,201.615A2.319,2.319,0,0,0,253.8,201.615Z" fill="#ffe15a"/></g></svg>