<svg xmlns="http://www.w3.org/2000/svg" width="512" height="335.449" viewBox="0 0 512 335.449"><g transform="translate(0 -88.276)"><path d="M0,361.931H512V414.9a8.829,8.829,0,0,1-8.828,8.828H8.828A8.829,8.829,0,0,1,0,414.9Z" fill="#4173cd"/><path d="M8.828,88.276H503.173A8.829,8.829,0,0,1,512,97.1V150.07H0V97.1A8.828,8.828,0,0,1,8.828,88.276Z" fill="#4173cd"/><rect width="512" height="211.86" transform="translate(0 150.07)" fill="#ff4b55"/><rect width="512" height="17.655" transform="translate(0 141.24)" fill="#ffe15a"/><rect width="512" height="17.655" transform="translate(0 353.1)" fill="#ffe15a"/><path d="M448.9,264.519H62.734a4.744,4.744,0,0,1-4.745-4.745v-1.5a4.744,4.744,0,0,1,4.745-4.745H448.9a4.744,4.744,0,0,1,4.745,4.745v1.5A4.745,4.745,0,0,1,448.9,264.519Z" fill="#ffe15a"/><path d="M373.962,242.538l19.233-8.243,19.233,8.243L393.2,250.781Z" fill="#f5f5f5"/><path d="M378.7,239.027H96.456a3.511,3.511,0,1,0,0,7.022H378.694a3.511,3.511,0,0,0,0-7.022Z" fill="#ffe15a"/><path d="M393.959,223.3l19.233-8.243,19.233,8.243-19.233,8.243Z" fill="#f5f5f5"/><path d="M398.69,219.794H116.452a3.511,3.511,0,0,0,0,7.022H398.69a3.511,3.511,0,0,0,0-7.022Z" fill="#ffe15a"/><path d="M255.816,187.586c-48.808,0-91.39,27.639-114.2,68.69,22.806,41.05,65.389,68.69,114.2,68.69s91.39-27.639,114.2-68.69C347.207,215.225,304.623,187.586,255.816,187.586Z" fill="#f5f5f5"/><path d="M141.62,256.276c22.806,41.05,65.389,68.69,114.2,68.69a127.09,127.09,0,0,0,23.846-2.312c-5.909-12.971-26.691-12.949-27.967-17.837-1.374-5.266,16.943-4.121,20.149-8.472s-17.4-6.182-18.317-10.532,8.243-7.327,9.846-14.2,5.266-8.929,8.013-13.05-4.579-5.495-6.411-19.233-12.594-15.57-17.859-26.788,3.206-19.462,8.7-24.957C207.009,187.586,164.426,215.225,141.62,256.276Z" fill="#464655"/><rect width="5.495" height="21.981" transform="translate(184.37 231.55)" fill="#f5f5f5"/><rect width="5.495" height="21.981" transform="translate(195.37 231.55)" fill="#f5f5f5"/><rect width="5.495" height="21.981" transform="translate(206.36 231.55)" fill="#f5f5f5"/><rect width="5.495" height="21.981" transform="translate(217.35 231.55)" fill="#f5f5f5"/><rect width="5.495" height="21.981" transform="translate(228.34 231.55)" fill="#f5f5f5"/><rect width="5.495" height="21.981" transform="translate(239.33 231.55)" fill="#f5f5f5"/><rect width="5.495" height="21.981" transform="translate(184.37 264.52)" fill="#f5f5f5"/><rect width="5.495" height="21.981" transform="translate(195.37 264.52)" fill="#f5f5f5"/><rect width="5.495" height="21.981" transform="translate(206.36 264.52)" fill="#f5f5f5"/><rect width="5.495" height="21.981" transform="translate(217.35 264.52)" fill="#f5f5f5"/><rect width="5.495" height="21.981" transform="translate(228.34 264.52)" fill="#f5f5f5"/><rect width="5.495" height="21.981" transform="translate(239.33 264.52)" fill="#f5f5f5"/><rect width="5.495" height="21.981" transform="translate(266.8 231.55)" fill="#464655"/><rect width="5.495" height="21.981" transform="translate(277.79 231.55)" fill="#464655"/><rect width="5.495" height="21.981" transform="translate(288.78 231.55)" fill="#464655"/><rect width="5.495" height="21.981" transform="translate(299.77 231.55)" fill="#464655"/><rect width="5.495" height="21.981" transform="translate(310.76 231.55)" fill="#464655"/><rect width="5.495" height="21.981" transform="translate(321.75 231.55)" fill="#464655"/><rect width="5.495" height="21.981" transform="translate(266.8 264.52)" fill="#464655"/><rect width="5.495" height="21.981" transform="translate(277.79 264.52)" fill="#464655"/><rect width="5.495" height="21.981" transform="translate(288.78 264.52)" fill="#464655"/><rect width="5.495" height="21.981" transform="translate(299.77 264.52)" fill="#464655"/><rect width="5.495" height="21.981" transform="translate(310.76 264.52)" fill="#464655"/><rect width="5.495" height="21.981" transform="translate(321.75 264.52)" fill="#464655"/><path d="M425.386,252.67c-4.4,10.223-16.925,11.426-9.985,37.486l3.554-3.608a40.759,40.759,0,0,0,12.693,16.438s11-9.222,11.847-23.854l4.569,2.005S445.864,254.474,425.386,252.67Z" fill="#245dbd"/><path d="M441.633,273.618a1.257,1.257,0,0,1-.966-.482,22.768,22.768,0,0,0-9.853-6.884,1.643,1.643,0,0,1-.989-1.942,1.361,1.361,0,0,1,1.636-1.172,25.051,25.051,0,0,1,11.136,7.755,1.824,1.824,0,0,1-.015,2.268A1.244,1.244,0,0,1,441.633,273.618Z" fill="#ff4b55"/><path d="M438.531,285.746a1.284,1.284,0,0,1-1.074-.627,31.452,31.452,0,0,0-6.86-7.63,1.786,1.786,0,0,1-.441-2.211,1.243,1.243,0,0,1,1.865-.52,34.156,34.156,0,0,1,7.584,8.407,1.81,1.81,0,0,1-.248,2.249A1.218,1.218,0,0,1,438.531,285.746Z" fill="#ff4b55"/><path d="M431.426,299.245a1.05,1.05,0,0,1-.233-.025,1.6,1.6,0,0,1-1.106-1.848,42.512,42.512,0,0,0-.646-12.8,1.668,1.668,0,0,1,.939-1.98,1.345,1.345,0,0,1,1.668,1.116,46.328,46.328,0,0,1,.708,14.2A1.441,1.441,0,0,1,431.426,299.245Z" fill="#ff4b55"/><path d="M421.9,284.436a1.275,1.275,0,0,1-1.036-.57,1.82,1.82,0,0,1,.161-2.261,17.968,17.968,0,0,0,4.393-8.394,1.37,1.37,0,0,1,1.613-1.221,1.627,1.627,0,0,1,1.032,1.911,21.116,21.116,0,0,1-5.294,10.161A1.242,1.242,0,0,1,421.9,284.436Z" fill="#ff4b55"/><path d="M418.143,274.175a1.317,1.317,0,0,1-1.155-.765,1.781,1.781,0,0,1,.445-2.2c.051-.038,4.961-3.652,6.484-7.6a1.269,1.269,0,0,1,1.8-.8,1.739,1.739,0,0,1,.669,2.124c-1.869,4.842-7.3,8.833-7.531,9A1.191,1.191,0,0,1,418.143,274.175Z" fill="#ff4b55"/><path d="M82.285,256.11c-3.679,8.548-14.152,9.555-8.35,31.345l2.972-3.017a34.084,34.084,0,0,0,10.614,13.745s9.2-7.711,9.906-19.947l3.821,1.676S99.409,257.62,82.285,256.11Z" fill="#245dbd"/><path d="M95.871,273.628a1.045,1.045,0,0,1-.807-.4,19.043,19.043,0,0,0-8.239-5.757A1.372,1.372,0,0,1,86,265.843a1.138,1.138,0,0,1,1.368-.98,20.951,20.951,0,0,1,9.311,6.485,1.524,1.524,0,0,1-.013,1.9A1.041,1.041,0,0,1,95.871,273.628Z" fill="#ff4b55"/><path d="M93.277,283.768a1.074,1.074,0,0,1-.9-.524,26.327,26.327,0,0,0-5.736-6.38,1.5,1.5,0,0,1-.37-1.849,1.038,1.038,0,0,1,1.559-.435,28.568,28.568,0,0,1,6.342,7.03,1.512,1.512,0,0,1-.207,1.88A1.015,1.015,0,0,1,93.277,283.768Z" fill="#ff4b55"/><path d="M87.335,295.057a.867.867,0,0,1-.194-.021,1.336,1.336,0,0,1-.925-1.545,35.524,35.524,0,0,0-.54-10.7,1.393,1.393,0,0,1,.785-1.655,1.125,1.125,0,0,1,1.395.932,38.782,38.782,0,0,1,.593,11.875A1.209,1.209,0,0,1,87.335,295.057Z" fill="#ff4b55"/><path d="M79.372,282.674a1.067,1.067,0,0,1-.867-.477,1.519,1.519,0,0,1,.135-1.891,15,15,0,0,0,3.672-7.019,1.146,1.146,0,0,1,1.348-1.022,1.359,1.359,0,0,1,.863,1.6,17.674,17.674,0,0,1-4.427,8.5A1.026,1.026,0,0,1,79.372,282.674Z" fill="#ff4b55"/><path d="M76.228,274.093a1.105,1.105,0,0,1-.967-.639,1.489,1.489,0,0,1,.372-1.844c.042-.031,4.148-3.054,5.422-6.354a1.061,1.061,0,0,1,1.5-.665,1.454,1.454,0,0,1,.559,1.775c-1.564,4.049-6.105,7.385-6.3,7.527A.988.988,0,0,1,76.228,274.093Z" fill="#ff4b55"/></g></svg>