<svg xmlns="http://www.w3.org/2000/svg" width="512" height="335.449" viewBox="0 0 512 335.449"><g transform="translate(0 -88.276)"><path d="M503.172,423.725H8.828A8.829,8.829,0,0,1,0,414.9V97.1a8.829,8.829,0,0,1,8.828-8.828H503.173A8.829,8.829,0,0,1,512,97.1V414.9A8.83,8.83,0,0,1,503.172,423.725Z" fill="#ff4b55"/><path d="M353.1,220.691H291.31V158.9a8.829,8.829,0,0,0-8.828-8.828H229.516a8.829,8.829,0,0,0-8.828,8.828v61.793H158.895a8.829,8.829,0,0,0-8.828,8.828v52.966a8.829,8.829,0,0,0,8.828,8.828h61.793v61.793a8.829,8.829,0,0,0,8.828,8.828h52.966a8.829,8.829,0,0,0,8.828-8.828v-61.8H353.1a8.829,8.829,0,0,0,8.828-8.828V229.517A8.828,8.828,0,0,0,353.1,220.691Z" fill="#f5f5f5"/></g></svg>