<svg xmlns="http://www.w3.org/2000/svg" width="512" height="335.449" viewBox="0 0 512 335.449"><g transform="translate(0 -88.276)"><path d="M512,200.093H0V97.1a8.829,8.829,0,0,1,8.828-8.828H503.173A8.829,8.829,0,0,1,512,97.1V200.093Z" fill="#ff4b55"/><path d="M503.172,423.725H8.828A8.829,8.829,0,0,1,0,414.9V311.909H512V414.9A8.828,8.828,0,0,1,503.172,423.725Z" fill="#464655"/><rect width="512" height="111.81" transform="translate(0 200.091)" fill="#f5f5f5"/><path d="M150.03,223.315l7.36,22.068,23.262.18a3.134,3.134,0,0,1,1.837,5.656l-18.713,13.82,7.017,22.179a3.135,3.135,0,0,1-4.811,3.5l-18.925-13.527-18.925,13.527a3.135,3.135,0,0,1-4.811-3.5l7.017-22.179-18.713-13.82a3.134,3.134,0,0,1,1.837-5.656l23.262-.18,7.36-22.068A3.134,3.134,0,0,1,150.03,223.315Z" fill="#73af00"/><path d="M367.917,223.315l7.36,22.068,23.262.18a3.134,3.134,0,0,1,1.837,5.656l-18.713,13.82,7.017,22.179a3.135,3.135,0,0,1-4.811,3.5l-18.925-13.527-18.925,13.527a3.135,3.135,0,0,1-4.811-3.5l7.017-22.179-18.713-13.82a3.134,3.134,0,0,1,1.837-5.656l23.262-.18,7.36-22.068A3.134,3.134,0,0,1,367.917,223.315Z" fill="#73af00"/></g></svg>