<svg xmlns="http://www.w3.org/2000/svg" width="512" height="335.449" viewBox="0 0 512 335.449"><g transform="translate(0 -88.276)"><path d="M503.172,423.725H8.828A8.829,8.829,0,0,1,0,414.9V97.1a8.829,8.829,0,0,1,8.828-8.828H503.173A8.829,8.829,0,0,1,512,97.1V414.9A8.83,8.83,0,0,1,503.172,423.725Z" fill="#ff4b55"/><path d="M8.828,88.277H247.173A8.829,8.829,0,0,1,256,97.105V247.174A8.829,8.829,0,0,1,247.173,256H8.828A8.83,8.83,0,0,1,0,247.173V97.1A8.828,8.828,0,0,1,8.828,88.277Z" fill="#41479b"/><path d="M96.4,172.139a31.5,31.5,0,0,1,9.248-22.335l-26.474-7.573a1.536,1.536,0,0,0-1.49,2.58L97.5,163.966,70.764,170.65a1.535,1.535,0,0,0,0,2.979L97.5,180.313,77.687,199.468a1.536,1.536,0,0,0,1.49,2.58l26.474-7.573A31.5,31.5,0,0,1,96.4,172.139Z" fill="#f5f5f5"/><path d="M105.665,149.79a31.595,31.595,0,0,1,44.67,0l7.573-26.474a1.536,1.536,0,0,0-2.58-1.49l-19.155,19.81L129.489,114.9a1.535,1.535,0,0,0-2.979,0l-6.684,26.734-19.155-19.81a1.536,1.536,0,0,0-2.58,1.49Z" fill="#f5f5f5"/><path d="M150.335,194.488a31.595,31.595,0,0,1-44.67,0l-7.573,26.474a1.536,1.536,0,0,0,2.58,1.49l19.155-19.81,6.684,26.734a1.535,1.535,0,0,0,2.979,0l6.684-26.734,19.155,19.81a1.536,1.536,0,0,0,2.58-1.49Z" fill="#f5f5f5"/><path d="M185.236,170.649,158.5,163.965l19.81-19.155a1.536,1.536,0,0,0-1.49-2.58L150.348,149.8a31.595,31.595,0,0,1,0,44.67l26.474,7.573a1.536,1.536,0,0,0,1.49-2.58L158.5,180.311l26.734-6.684A1.535,1.535,0,0,0,185.236,170.649Z" fill="#f5f5f5"/><circle cx="25.16" cy="25.16" r="25.16" transform="translate(102.84 146.981)" fill="#f5f5f5"/></g></svg>