<svg xmlns="http://www.w3.org/2000/svg" width="512" height="335.448" viewBox="0 0 512 335.448"><g transform="translate(0 -88.276)"><path d="M0,311.908H512V414.9a8.829,8.829,0,0,1-8.828,8.828H8.828A8.829,8.829,0,0,1,0,414.9Z" fill="#73af00"/><path d="M8.828,88.276H503.173A8.829,8.829,0,0,1,512,97.1V200.092H0V97.1A8.828,8.828,0,0,1,8.828,88.276Z" fill="#ff4b55"/><rect width="512" height="111.81" transform="translate(0 200.09)" fill="#f5f5f5"/><path d="M227.069,287.535a16.3,16.3,0,0,0,6.966-7.1c6.575,4.3,12.209,2.837,15.145,1.463a17.761,17.761,0,0,0,6.8-5.762,17.775,17.775,0,0,0,6.8,5.762c2.935,1.374,8.569,2.83,15.145-1.463a16.3,16.3,0,0,0,6.966,7.1,15.307,15.307,0,0,0,6.979,1.6,24.078,24.078,0,0,0,8.408-1.687l-1.457-3.886c-4.771,1.789-8.819,1.886-12.025.286a12.985,12.985,0,0,1-6-7.211l-.875-3.063-2.447,2.038c-4.318,3.6-8.789,4.478-12.936,2.53-4.211-1.972-6.484-5.963-6.484-7.16V253.076a5.7,5.7,0,0,1,5.186-3.358,5.639,5.639,0,0,1,2.329.511l2.568,1.159-.388-2.792a11.877,11.877,0,0,0-23.54,0l-.388,2.792,2.568-1.159a5.635,5.635,0,0,1,2.329-.511,5.7,5.7,0,0,1,5.186,3.358v17.907c0,1.2-2.272,5.188-6.484,7.16-4.145,1.947-8.618,1.068-12.936-2.53l-2.429-2.012-.893,3.029a12.987,12.987,0,0,1-6,7.219c-3.209,1.6-7.255,1.505-12.025-.286l-1.457,3.886a24.078,24.078,0,0,0,8.408,1.687A15.319,15.319,0,0,0,227.069,287.535Zm21.647-40.93c-.248,0-.495.01-.742.032a8.746,8.746,0,0,1,16.006,0,8.872,8.872,0,0,0-8,3.789A8.81,8.81,0,0,0,248.716,246.6Z" fill="#ffcd5a"/><path d="M220.051,300.727l1.315,3.935c8.821-2.944,21.438-4.633,34.612-4.633s25.791,1.689,34.612,4.633l1.315-3.935c-9.228-3.082-22.324-4.849-35.927-4.849S229.279,297.645,220.051,300.727Z" fill="#ffcd5a"/><path d="M255.978,291.73a6.847,6.847,0,0,0,5.359-3.01,8.307,8.307,0,0,0-3.3-1c0-.047.017-.09.017-.138a4.976,4.976,0,0,0-2.074-4.149,4.973,4.973,0,0,0-2.074,4.149c0,.047.015.09.017.138a8.3,8.3,0,0,0-3.3,1A6.848,6.848,0,0,0,255.978,291.73Z" fill="#ffcd5a"/><path d="M236.935,293.69a6.848,6.848,0,0,0,4.649-4.021,8.3,8.3,0,0,0-3.434-.32c-.009-.046,0-.092-.012-.139a4.972,4.972,0,0,0-2.862-3.65,4.975,4.975,0,0,0-1.2,4.48c.01.047.033.086.043.132a8.287,8.287,0,0,0-3.034,1.641A6.847,6.847,0,0,0,236.935,293.69Z" fill="#ffcd5a"/><path d="M276.68,285.559a4.972,4.972,0,0,0-2.862,3.65c-.01.047,0,.092-.012.139a8.3,8.3,0,0,0-3.434.32,6.276,6.276,0,0,0,10.5,2.143,8.31,8.31,0,0,0-3.034-1.641c.011-.046.034-.085.043-.132A4.98,4.98,0,0,0,276.68,285.559Z" fill="#ffcd5a"/><path d="M255.424,209.15l-1.4,4.191-4.417.034a.6.6,0,0,0-.349,1.074l3.553,2.624-1.332,4.212a.6.6,0,0,0,.914.664l3.594-2.569,3.594,2.569a.6.6,0,0,0,.914-.664l-1.333-4.212,3.553-2.624a.6.6,0,0,0-.349-1.074l-4.417-.034-1.4-4.191A.6.6,0,0,0,255.424,209.15Z" fill="#ffcd5a"/><path d="M230.138,216.065l-1.4,4.191-4.417.034a.6.6,0,0,0-.349,1.074l3.553,2.624-1.333,4.212a.6.6,0,0,0,.914.664l3.594-2.569,3.594,2.569a.6.6,0,0,0,.914-.664l-1.333-4.212,3.553-2.624a.6.6,0,0,0-.349-1.074l-4.417-.034-1.4-4.191A.594.594,0,0,0,230.138,216.065Z" fill="#ffcd5a"/><path d="M211.553,234.737l-1.4,4.191-4.417.034a.6.6,0,0,0-.349,1.074l3.553,2.624-1.332,4.212a.6.6,0,0,0,.914.664l3.594-2.569,3.594,2.569a.6.6,0,0,0,.914-.664l-1.332-4.212,3.553-2.624a.6.6,0,0,0-.349-1.074l-4.417-.034-1.4-4.191A.6.6,0,0,0,211.553,234.737Z" fill="#ffcd5a"/><path d="M204.724,259.979l-1.4,4.191-4.417.034a.6.6,0,0,0-.349,1.074l3.553,2.624-1.333,4.212a.6.6,0,0,0,.914.664l3.594-2.569,3.594,2.569a.6.6,0,0,0,.914-.664l-1.333-4.212,3.553-2.624a.6.6,0,0,0-.349-1.074l-4.417-.034-1.4-4.191A.594.594,0,0,0,204.724,259.979Z" fill="#ffcd5a"/><path d="M281.862,216.065l1.4,4.191,4.417.034a.6.6,0,0,1,.349,1.074l-3.553,2.624,1.333,4.212a.6.6,0,0,1-.914.664l-3.594-2.569-3.594,2.569a.6.6,0,0,1-.914-.664l1.333-4.212-3.553-2.624a.6.6,0,0,1,.349-1.074l4.417-.034,1.4-4.191A.594.594,0,0,1,281.862,216.065Z" fill="#ffcd5a"/><path d="M300.447,234.737l1.4,4.191,4.417.034a.6.6,0,0,1,.349,1.074l-3.553,2.624,1.333,4.212a.6.6,0,0,1-.914.664l-3.594-2.569-3.594,2.569a.6.6,0,0,1-.914-.664l1.333-4.212-3.553-2.624a.6.6,0,0,1,.349-1.074l4.417-.034,1.4-4.191A.6.6,0,0,1,300.447,234.737Z" fill="#ffcd5a"/><path d="M307.276,259.979l1.4,4.191,4.417.034a.6.6,0,0,1,.349,1.074l-3.553,2.624,1.332,4.212a.6.6,0,0,1-.914.664l-3.594-2.569-3.594,2.569a.6.6,0,0,1-.914-.664l1.332-4.212-3.553-2.624a.6.6,0,0,1,.349-1.074l4.417-.034,1.4-4.191A.6.6,0,0,1,307.276,259.979Z" fill="#ffcd5a"/></g></svg>