<svg xmlns="http://www.w3.org/2000/svg" width="512" height="335.45" viewBox="0 0 512 335.45"><g transform="translate(0 -88.275)"><path d="M0,344.276V97.1a8.829,8.829,0,0,1,8.828-8.828H388.414Z" fill="#73af00"/><path d="M512,167.724V414.9a8.829,8.829,0,0,1-8.828,8.828H123.586Z" fill="#4173cd"/><path d="M512,172.7V97.1a8.829,8.829,0,0,0-8.828-8.828H383.139L0,339.3v75.6a8.829,8.829,0,0,0,8.828,8.828H128.861Z" fill="#ffe15a"/><path d="M512,141.047V97.1a8.829,8.829,0,0,0-8.828-8.828H431.454L0,370.953V414.9a8.829,8.829,0,0,0,8.828,8.828H80.546Z" fill="#464655"/></g></svg>