<svg xmlns="http://www.w3.org/2000/svg" width="512" height="335.4" viewBox="0 0 512 335.4"><g transform="translate(0 -88.3)"><path d="M503.2,423.7H8.8A8.813,8.813,0,0,1,0,414.9V97.1a8.813,8.813,0,0,1,8.8-8.8H503.1a8.813,8.813,0,0,1,8.8,8.8V414.9A8.665,8.665,0,0,1,503.2,423.7Z" fill="#f5f5f5"/><path d="M503.2,423.7H8.8A8.813,8.813,0,0,1,0,414.9V370.8H512v44.1A8.813,8.813,0,0,1,503.2,423.7Z" fill="#ff4b55"/><path d="M8.8,88.3H503.1a8.813,8.813,0,0,1,8.8,8.8v44.1H0V97.1A8.813,8.813,0,0,1,8.8,88.3Z" fill="#ff4b55"/><rect width="512" height="123.6" transform="translate(0 194.2)" fill="#41479b"/></g></svg>