<svg xmlns="http://www.w3.org/2000/svg" width="512" height="335.448" viewBox="0 0 512 335.448"><g transform="translate(0 -88.276)"><path d="M503.172,88.276H8.828A8.828,8.828,0,0,0,0,97.1V414.9a8.829,8.829,0,0,0,8.828,8.828H503.173A8.829,8.829,0,0,0,512,414.9V97.1A8.829,8.829,0,0,0,503.172,88.276Z" fill="#ff4b55"/><path d="M3.495,421.751,287.363,261.483a6.3,6.3,0,0,0,0-10.965L3.495,90.249A8.665,8.665,0,0,0,0,97.1V414.9A8.669,8.669,0,0,0,3.495,421.751Z" fill="#ffe15a"/><path d="M2.741,421.244,195.673,262.073a7.873,7.873,0,0,0,0-12.146L2.741,90.756A8.764,8.764,0,0,0,0,97.1V414.9A8.763,8.763,0,0,0,2.741,421.244Z" fill="#464655"/><path d="M55.132,214.545l.841,31.772L26.184,257.4a3.172,3.172,0,0,0,.206,6.015l30.477,9.018L58.2,304.186a3.172,3.172,0,0,0,5.784,1.663l18-26.2,30.613,8.544a3.172,3.172,0,0,0,3.369-4.987L96.605,258l17.586-26.474a3.172,3.172,0,0,0-3.7-4.745L80.533,237.4,60.789,212.49A3.172,3.172,0,0,0,55.132,214.545Z" fill="#f5f5f5"/></g></svg>