<svg xmlns="http://www.w3.org/2000/svg" width="512" height="335.449" viewBox="0 0 512 335.449"><g transform="translate(0 -88.276)"><path d="M512,155.367H0V97.1a8.829,8.829,0,0,1,8.828-8.828H503.173A8.829,8.829,0,0,1,512,97.1v58.263Z" fill="#73af00"/><rect width="512" height="67.09" transform="translate(0 222.461)" fill="#73af00"/><rect width="512" height="67.09" transform="translate(0 155.371)" fill="#ffe15a"/><path d="M503.172,423.725H8.828A8.829,8.829,0,0,1,0,414.9V356.635H512V414.9A8.828,8.828,0,0,1,503.172,423.725Z" fill="#73af00"/><rect width="512" height="67.09" transform="translate(0 289.551)" fill="#ffe15a"/><path d="M194.207,289.546H8.828A8.829,8.829,0,0,1,0,280.718V97.1a8.829,8.829,0,0,1,8.828-8.828H194.207a8.829,8.829,0,0,1,8.828,8.828V280.718A8.829,8.829,0,0,1,194.207,289.546Z" fill="#ff4b55"/><path d="M99.335,135.638,86.577,173.89l-40.322.312a2.3,2.3,0,0,0-1.348,4.151l32.438,23.954L65.182,240.753a2.3,2.3,0,0,0,3.531,2.566l32.806-23.448,32.806,23.448a2.3,2.3,0,0,0,3.531-2.566l-12.163-38.445,32.438-23.954a2.3,2.3,0,0,0-1.348-4.151l-40.322-.312L103.7,135.639A2.3,2.3,0,0,0,99.335,135.638Z" fill="#f5f5f5"/></g></svg>