<svg xmlns="http://www.w3.org/2000/svg" width="512" height="335.448" viewBox="0 0 512 335.448"><g transform="translate(0 -88.276)"><path d="M503.172,423.724H8.828A8.829,8.829,0,0,1,0,414.9V97.1a8.829,8.829,0,0,1,8.828-8.828H503.173A8.829,8.829,0,0,1,512,97.1V414.9A8.83,8.83,0,0,1,503.172,423.724Z" fill="#41479b"/><path d="M476.689,370.758h-353.1a8.829,8.829,0,0,1-8.828-8.828h0a8.829,8.829,0,0,1,8.828-8.828h353.1l8.828,8.828Z" fill="#ffe15a"/><path d="M481.1,344.276H123.586S264.827,185.38,397.241,150.07c0,0-44.138,114.758,61.793,185.379H481.1a4.414,4.414,0,0,1,4.414,4.414h0A4.415,4.415,0,0,1,481.1,344.276Z" fill="#ffe15a"/><path d="M108.162,293.173l3.425,10.271,10.826.084a1.459,1.459,0,0,1,.855,2.632l-8.709,6.431,3.266,10.323a1.458,1.458,0,0,1-2.239,1.626l-8.808-6.3-8.808,6.3a1.458,1.458,0,0,1-2.239-1.626L99,312.591l-8.709-6.431a1.459,1.459,0,0,1,.855-2.632l10.826-.084,3.425-10.271A1.459,1.459,0,0,1,108.162,293.173Z" fill="#f5f5f5"/><path d="M107.9,151.97l2.778,8.332,8.783.068a1.183,1.183,0,0,1,.694,2.135l-7.065,5.218,2.649,8.374a1.183,1.183,0,0,1-1.816,1.32l-7.146-5.108-7.146,5.108a1.183,1.183,0,0,1-1.816-1.32l2.649-8.374L93.4,162.5a1.183,1.183,0,0,1,.694-2.135l8.783-.068,2.778-8.332A1.184,1.184,0,0,1,107.9,151.97Z" fill="#f5f5f5"/><path d="M41.359,203.53l2.778,8.332,8.783.068a1.183,1.183,0,0,1,.694,2.135l-7.065,5.218,2.649,8.374a1.183,1.183,0,0,1-1.816,1.32l-7.146-5.108-7.146,5.108a1.183,1.183,0,0,1-1.816-1.32l2.649-8.374-7.065-5.218a1.183,1.183,0,0,1,.694-2.135l8.783-.068,2.778-8.332A1.184,1.184,0,0,1,41.359,203.53Z" fill="#f5f5f5"/><path d="M155.489,200.016l2.138,6.412,6.759.052a.911.911,0,0,1,.534,1.643l-5.438,4.015,2.039,6.444a.91.91,0,0,1-1.4,1.015l-5.5-3.93-5.5,3.93a.911.911,0,0,1-1.4-1.015l2.039-6.444-5.438-4.015a.911.911,0,0,1,.534-1.643l6.759-.052,2.138-6.412A.91.91,0,0,1,155.489,200.016Z" fill="#f5f5f5"/></g></svg>