<svg xmlns="http://www.w3.org/2000/svg" width="512" height="335.448" viewBox="0 0 512 335.448"><g transform="translate(0 -88.276)"><path d="M503.172,423.724H8.828A8.829,8.829,0,0,1,0,414.9V97.1a8.829,8.829,0,0,1,8.828-8.828H503.173A8.829,8.829,0,0,1,512,97.1V414.9A8.83,8.83,0,0,1,503.172,423.724Z" fill="#ff4b55"/><path d="M194.206,256H8.828A8.829,8.829,0,0,1,0,247.172V97.1a8.829,8.829,0,0,1,8.828-8.828H194.207a8.829,8.829,0,0,1,8.828,8.828V247.173A8.829,8.829,0,0,1,194.206,256Z" fill="#f5f5f5"/><path d="M167.724,150.069H123.586V105.931H79.448v44.138H35.31v44.138H79.448v44.138h44.138V194.207h44.138Z" fill="#ff4b55"/></g></svg>