<svg xmlns="http://www.w3.org/2000/svg" width="512" height="335.449" viewBox="0 0 512 335.449"><g transform="translate(0 -88.276)"><path d="M503.172,423.725H8.828A8.829,8.829,0,0,1,0,414.9V97.1a8.829,8.829,0,0,1,8.828-8.828H503.173A8.829,8.829,0,0,1,512,97.1V414.9A8.83,8.83,0,0,1,503.172,423.725Z" fill="#ff4b55"/><path d="M8.828,88.277A8.774,8.774,0,0,0,2.7,90.783L361.932,423.725h26.483L26.483,88.277Z" fill="#f5f5f5"/><path d="M150.069,88.277H123.586L485.517,423.725h17.655a8.774,8.774,0,0,0,6.124-2.506Z" fill="#f5f5f5"/><path d="M26.483,88.277,388.414,423.725h97.1L123.586,88.277Z" fill="#464655"/></g></svg>