<svg xmlns="http://www.w3.org/2000/svg" width="512" height="335.449" viewBox="0 0 512 335.449"><g transform="translate(0 -88.276)"><path d="M503.172,423.725H8.828A8.829,8.829,0,0,1,0,414.9V97.1a8.829,8.829,0,0,1,8.828-8.828H503.173A8.829,8.829,0,0,1,512,97.1V414.9A8.83,8.83,0,0,1,503.172,423.725Z" fill="#ff4b55"/><path d="M257,167.725A88.276,88.276,0,1,1,168.656,256,88.284,88.284,0,0,1,257,167.725" fill="#f5f5f5"/><path d="M273.043,305.467a49.428,49.428,0,1,1,0-98.856,48.861,48.861,0,0,1,25.4,7.1,1.092,1.092,0,0,0,1.355-1.7,61.8,61.8,0,1,0-.016,88.052,1.092,1.092,0,0,0-1.355-1.7A48.85,48.85,0,0,1,273.043,305.467Z" fill="#ff4b55"/><path d="M268.52,221.388l13.644,18.526L304.109,233a3.1,3.1,0,0,1,3.452,4.762l-13.4,18.7L307.514,275.2a3.1,3.1,0,0,1-3.464,4.754l-21.928-6.968-13.692,18.49a3.1,3.1,0,0,1-5.591-1.825l-.149-23.007-21.816-7.307a3.1,3.1,0,0,1,.008-5.881l21.835-7.252.207-23.007A3.1,3.1,0,0,1,268.52,221.388Z" fill="#ff4b55"/></g></svg>