<svg xmlns="http://www.w3.org/2000/svg" width="512" height="335.454" viewBox="0 0 512 335.454"><g transform="translate(0 -88.273)"><path d="M503.172,423.721H8.828A8.829,8.829,0,0,1,0,414.893V97.1a8.829,8.829,0,0,1,8.828-8.828H503.173A8.829,8.829,0,0,1,512,97.1V414.893A8.829,8.829,0,0,1,503.172,423.721Z" fill="#73af00"/><rect width="88.28" height="335.45" transform="translate(70.62 88.277)" fill="#ff4b55"/><path d="M150.069,126.526l-17.655,14.713H97.1L79.448,126.526V111.813L97.1,97.1h35.311l17.655,14.712Z" fill="#f5f5f5"/><path d="M150.069,250.112l-17.655,14.714H97.1L79.448,250.112V235.4L97.1,220.687h35.311L150.069,235.4Z" fill="#73af00"/><path d="M150.069,188.319l-17.655,14.713H97.1L79.448,188.319V173.607L97.1,158.894h35.311l17.655,14.713Z" fill="#73af00"/><path d="M150.069,311.9l-17.655,14.713H97.1L79.448,311.9V297.194L97.1,282.48h35.311l17.655,14.714Z" fill="#73af00"/><path d="M70.621,132.411l17.655,17.655L70.621,167.721Z" fill="#ffb400"/><path d="M158.9,167.721l-17.655-17.655L158.9,132.411Z" fill="#ffb400"/><path d="M70.621,194.2l17.655,17.655L70.621,229.514Z" fill="#ffb400"/><path d="M158.9,229.514l-17.655-17.655L158.9,194.2Z" fill="#ffb400"/><path d="M70.621,256l17.655,17.655L70.621,291.307Z" fill="#ffb400"/><path d="M158.9,291.307l-17.655-17.655L158.9,256Z" fill="#ffb400"/><path d="M70.621,317.79l17.655,17.655L70.621,353.1Z" fill="#ffb400"/><path d="M158.9,353.1l-17.655-17.655L158.9,317.79Z" fill="#ffb400"/><path d="M70.621,88.273H88.276L70.621,105.928Z" fill="#ffb400"/><path d="M158.9,105.928,141.241,88.273H158.9Z" fill="#ffb400"/><rect width="8.828" height="44.14" transform="translate(110.34 158.897)" fill="#ffb400"/><rect width="35.31" height="8.828" transform="translate(97.1 176.547)" fill="#ff4b55"/><path d="M141.241,166.25l-8.827-7.356v44.138l8.827-7.357Z" fill="#ffb400"/><path d="M88.276,195.675l8.827,7.357V158.9l-8.827,7.355Z" fill="#ffb400"/><path d="M114.758,97.1H97.1L79.448,111.813v7.357h35.31Z" fill="#ffb400"/><path d="M114.758,141.239h17.656l17.655-14.713V119.17H114.758Z" fill="#ffb400"/><path d="M114.758,132.411,97.1,119.222l17.655-13.294,17.656,13.294Z" fill="#ff4b55"/><path d="M114.758,132.411l17.656-13.189-.069-.052H114.758Z" fill="#73af00"/><path d="M114.758,119.17V105.928L97.173,119.17Z" fill="#73af00"/><rect width="35.31" height="26.483" transform="translate(97.1 229.517)" fill="#ff4b55"/><rect width="8.828" height="8.828" transform="translate(132.41 238.337)" fill="#ffb400"/><rect width="8.828" height="8.828" transform="translate(110.34 238.337)" fill="#f5f5f5"/><rect width="8.828" height="8.828" transform="translate(110.34 291.307)" fill="#ff4b55"/><rect width="8.828" height="8.828" transform="translate(123.59 300.138)" fill="#ffb400"/><rect width="8.828" height="8.828" transform="translate(97.1 300.138)" fill="#ffb400"/><rect width="8.828" height="8.828" transform="translate(110.34 308.957)" fill="#ff4b55"/><rect width="8.828" height="8.828" transform="translate(88.28 238.337)" fill="#ffb400"/><path d="M150.069,373.7l-17.655,14.713H97.1L79.448,373.7V358.987L97.1,344.273h35.311l17.655,14.714Z" fill="#f5f5f5"/><path d="M114.758,344.273H97.1L79.448,358.986v7.356h35.31Z" fill="#ffb400"/><path d="M114.758,388.411h17.656L150.069,373.7v-7.356H114.758Z" fill="#ffb400"/><path d="M132.414,370.755l-17.656,8.828L97.1,370.755v-8.827l17.655-8.828,17.656,8.828Z" fill="#ff4b55"/><path d="M280.01,136.34a.911.911,0,0,0-1.028,1.48,51.317,51.317,0,0,1,16.3,37.433A52.074,52.074,0,0,1,243.3,227.532a50.825,50.825,0,0,1-15.2-2.328.91.91,0,0,0-.783,1.621,51.424,51.424,0,0,0,29.514,9.31A52.53,52.53,0,0,0,280.01,136.34Z" fill="#f5f5f5"/><path d="M208.173,170.4l-2.159,6.109,5.08,4.021a.873.873,0,0,1-.564,1.557l-6.477-.167-2.254,6.074a.873.873,0,0,1-1.655-.055l-1.843-6.211-6.474-.267a.873.873,0,0,1-.459-1.591l5.338-3.672-1.747-6.24a.873.873,0,0,1,1.372-.928l5.142,3.942,5.4-3.59A.872.872,0,0,1,208.173,170.4Z" fill="#f5f5f5"/><path d="M234.407,183.65l-2.159,6.109,5.08,4.021a.873.873,0,0,1-.564,1.557l-6.477-.167-2.254,6.074a.873.873,0,0,1-1.655-.055l-1.843-6.211-6.474-.267a.873.873,0,0,1-.459-1.591l5.338-3.672-1.747-6.24a.873.873,0,0,1,1.372-.928l5.142,3.942,5.4-3.59A.873.873,0,0,1,234.407,183.65Z" fill="#f5f5f5"/><path d="M234.142,156.355l-2.159,6.109,5.08,4.021a.873.873,0,0,1-.564,1.557l-6.477-.167-2.254,6.074a.873.873,0,0,1-1.655-.055l-1.843-6.211-6.474-.267a.873.873,0,0,1-.459-1.591l5.338-3.672-1.747-6.24a.873.873,0,0,1,1.372-.928l5.142,3.942,5.4-3.59A.872.872,0,0,1,234.142,156.355Z" fill="#f5f5f5"/><path d="M235.036,130.01l-2.159,6.109,5.08,4.021a.873.873,0,0,1-.564,1.557l-6.477-.167-2.254,6.074a.873.873,0,0,1-1.655-.055l-1.843-6.211-6.474-.267a.873.873,0,0,1-.459-1.591l5.338-3.672-1.747-6.24a.873.873,0,0,1,1.372-.928l5.142,3.942,5.4-3.59A.872.872,0,0,1,235.036,130.01Z" fill="#f5f5f5"/><path d="M260.741,143.26l-2.159,6.109,5.08,4.021a.873.873,0,0,1-.564,1.557l-6.477-.167-2.254,6.074a.873.873,0,0,1-1.655-.055l-1.843-6.211-6.474-.267a.873.873,0,0,1-.459-1.591l5.338-3.672-1.747-6.24a.873.873,0,0,1,1.372-.928l5.142,3.942,5.4-3.59A.872.872,0,0,1,260.741,143.26Z" fill="#f5f5f5"/></g></svg>