<svg xmlns="http://www.w3.org/2000/svg" width="512" height="335.449" viewBox="0 0 512 335.449"><g transform="translate(0 -88.276)"><path d="M503.172,423.725H8.828A8.829,8.829,0,0,1,0,414.9V97.1a8.829,8.829,0,0,1,8.828-8.828H503.173A8.829,8.829,0,0,1,512,97.1V414.9A8.83,8.83,0,0,1,503.172,423.725Z" fill="#ff4b55"/><path d="M253.474,225.753l13.837,18.1,21.606-7.232a1.326,1.326,0,0,1,1.512,2.01L277.49,257.385,291.045,275.7a1.326,1.326,0,0,1-1.444,2.059l-21.834-6.511L254.539,289.8a1.327,1.327,0,0,1-2.406-.737l-.555-22.777-21.73-6.849a1.326,1.326,0,0,1-.042-2.515l21.491-7.566-.2-22.783A1.326,1.326,0,0,1,253.474,225.753Z" fill="#f5f5f5"/><path d="M176.956,326.662a70.663,70.663,0,0,1,0-141.325,69.285,69.285,0,0,1,39.037,12.014,1.71,1.71,0,0,0,2.227-2.573,87.551,87.551,0,0,0-66.4-27C106.9,169.31,69.7,205.33,66.833,250.19a88.083,88.083,0,0,0,151.448,66.974,1.7,1.7,0,0,0-2.229-2.537A69.329,69.329,0,0,1,176.956,326.662Z" fill="#f5f5f5"/></g></svg>