<svg xmlns="http://www.w3.org/2000/svg" width="512" height="335.448" viewBox="0 0 512 335.448"><g transform="translate(0 -88.276)"><path d="M503.172,423.724H8.828A8.829,8.829,0,0,1,0,414.9V97.1a8.829,8.829,0,0,1,8.828-8.828H503.173A8.829,8.829,0,0,1,512,97.1V414.9A8.83,8.83,0,0,1,503.172,423.724Z" fill="#41479b"/><path d="M247.172,88.276H231.839l-81.77,53.573V88.276H105.931v53.573L24.161,88.276H8.828A8.829,8.829,0,0,0,0,97.1v7l70.155,45.963H0v44.138H70.155L0,240.171v7A8.829,8.829,0,0,0,8.828,256H24.161l81.77-53.573V256h44.138V202.427L231.838,256h15.333A8.829,8.829,0,0,0,256,247.172v-7l-70.154-45.963H256V150.069H185.844L256,104.106v-7A8.827,8.827,0,0,0,247.172,88.276Z" fill="#f5f5f5"/><path d="M256,158.9H141.241V88.276H114.758V158.9H0v26.482H114.758V256h26.483V185.379H256Z" fill="#ff4b55"/><path d="M97.1,150.069l-92.9-60.3A8.686,8.686,0,0,0,0,97.1v.458l80.889,52.507Z" fill="#ff4b55"/><path d="M166.283,150.069,254.657,92.7a8.7,8.7,0,0,0-7.485-4.427h-1.909l-95.194,61.793Z" fill="#ff4b55"/><path d="M89.474,194.207l-88.2,57.256A8.717,8.717,0,0,0,8.828,256h1.665l95.2-61.793Z" fill="#ff4b55"/><path d="M255.859,247.867l-82.666-53.659H156.98l93.873,60.934A8.739,8.739,0,0,0,255.859,247.867Z" fill="#ff4b55"/><path d="M344.072,205.977a1.928,1.928,0,0,0-1.928,1.928v32.773c0,65.548,46.269,77.114,46.269,77.114s46.269-11.567,46.269-77.114V207.9a1.928,1.928,0,0,0-1.928-1.928Z" fill="#ffe15a"/><path d="M429.863,210.8v29.881c0,55.751-34.461,69.813-41.448,72.089-7.026-2.291-41.451-16.369-41.451-72.089V210.8h82.9m2.891-4.82H344.072a1.928,1.928,0,0,0-1.928,1.928v32.773c0,65.548,46.269,77.114,46.269,77.114s46.269-11.567,46.269-77.114V207.9a1.928,1.928,0,0,0-1.928-1.928Z" fill="#f5f5f5"/><path d="M393.588,267.04h-9.863s-7.954,7.954-9.778,25.426a1.653,1.653,0,0,0,.608,1.468c1.673,1.311,6.372,4.339,14.1,4.339s12.428-3.028,14.1-4.339a1.655,1.655,0,0,0,.608-1.468C401.542,274.994,393.588,267.04,393.588,267.04Z" fill="#73af00"/><path d="M393.588,265.4h-9.863v-8.218a4.946,4.946,0,0,1,4.931-4.931h0a4.946,4.946,0,0,1,4.931,4.931V265.4Z" fill="#ff4b55"/><path d="M393.588,268.684h-9.863a1.644,1.644,0,0,1-1.644-1.644h0a1.644,1.644,0,0,1,1.644-1.644h9.863a1.644,1.644,0,0,1,1.644,1.644h0A1.645,1.645,0,0,1,393.588,268.684Z" fill="#ff4b55"/><path d="M426.463,232.339a60.015,60.015,0,0,0-9.041.787v-2.57a46.509,46.509,0,0,1,7.517-2.622.822.822,0,1,0-.376-1.6,46.493,46.493,0,0,0-7.171,2.425,4.883,4.883,0,0,0-.956-2.635,53.99,53.99,0,0,1,5.5-3.755.822.822,0,1,0-.813-1.429,54.312,54.312,0,0,0-5.887,4.019,4.9,4.9,0,0,0-5.584.07c.843-4.23,2.575-6.061,2.6-6.084a.822.822,0,0,0-1.165-1.159,12.787,12.787,0,0,0-2.707,5.452,12.77,12.77,0,0,0-2.707-5.452.822.822,0,0,0-1.166,1.16c.023.023,1.756,1.855,2.6,6.084a4.9,4.9,0,0,0-5.584-.07,53.924,53.924,0,0,0-5.887-4.019.822.822,0,1,0-.813,1.429,54.073,54.073,0,0,1,5.5,3.754,4.89,4.89,0,0,0-.957,2.636,46.332,46.332,0,0,0-7.171-2.425.822.822,0,1,0-.376,1.6,46.283,46.283,0,0,1,7.517,2.622v2.57a59.848,59.848,0,0,0-9.041-.787.822.822,0,0,0,0,1.644,59.939,59.939,0,0,1,9.041.812v2.659A16.2,16.2,0,0,0,391.574,239a.822.822,0,1,0,.735,1.47,14.62,14.62,0,0,1,7.029-1.353v10.17a19.09,19.09,0,0,1-.366,3.708l-1.261,6.3a.822.822,0,0,0,.644.967.811.811,0,0,0,.162.017.823.823,0,0,0,.806-.661l1.261-6.3a20.587,20.587,0,0,0,.4-4.03V239.242a24.781,24.781,0,0,1,3.231.583l.627,8.14a3.528,3.528,0,0,0,1.327,2.486l-2.666,4a3.224,3.224,0,0,0,2.682,5.012h4.391a3.224,3.224,0,0,0,2.682-5.012l-2.666-4a3.526,3.526,0,0,0,1.327-2.486l.626-8.14a24.745,24.745,0,0,1,3.231-.583v10.047a20.589,20.589,0,0,0,.4,4.03l1.261,6.3a.822.822,0,0,0,.806.661.7.7,0,0,0,.162-.017.821.821,0,0,0,.644-.967l-1.261-6.3a18.989,18.989,0,0,1-.366-3.708V239.116a14.618,14.618,0,0,1,7.029,1.353.82.82,0,0,0,1.1-.368.821.821,0,0,0-.367-1.1,16.247,16.247,0,0,0-7.765-1.546v-2.66a59.936,59.936,0,0,1,9.041-.812.821.821,0,0,0,0-1.642Zm-10.685,1.1a27.768,27.768,0,0,0-2.86.769,4.58,4.58,0,0,0-.145-.942,20.931,20.931,0,0,1,3.006-1.909v2.082Zm0-4.39v.455a24.936,24.936,0,0,0-3.732,2.248,4.5,4.5,0,0,0-.829-.871,37.788,37.788,0,0,1,3.941-3.737A3.24,3.24,0,0,1,415.778,229.051Zm-3.287-3.288a3.253,3.253,0,0,1,1.369.308,38.228,38.228,0,0,0-4.149,4.022,4.326,4.326,0,0,0-.509-.135v-.087c0-.374.013-.729.026-1.082A3.284,3.284,0,0,1,412.491,225.763Zm-8.219,0a3.28,3.28,0,0,1,3.261,3.027c.013.353.026.707.026,1.082v.087a4.379,4.379,0,0,0-.509.135,38.233,38.233,0,0,0-4.149-4.022A3.255,3.255,0,0,1,404.272,225.763Zm-3.287,3.288a3.256,3.256,0,0,1,.62-1.907,37.886,37.886,0,0,1,3.94,3.737,4.539,4.539,0,0,0-.829.872,24.887,24.887,0,0,0-3.732-2.248v-.454Zm0,2.309a21.043,21.043,0,0,1,3.006,1.909,4.457,4.457,0,0,0-.145.941,27.907,27.907,0,0,0-2.86-.769V231.36Zm0,6.209v-2.441a23.082,23.082,0,0,1,2.935.854l.162,2.1A25.311,25.311,0,0,0,400.985,237.569Zm14.793,0a25.278,25.278,0,0,0-3.1.518l.162-2.1a23.3,23.3,0,0,1,2.935-.854Z" fill="#d35a10"/><path d="M374.534,254.529h-3.692l-14.109-12.541a5.536,5.536,0,0,1-1.694-5.483l3.934-15.737a1.845,1.845,0,0,1,3.1-.857l6.385,6.385a1.845,1.845,0,0,0,1.3.541h4.773V254.53Z" fill="#ffa033"/><path d="M371.888,223.051l-2.265,10.2a11.089,11.089,0,0,0,.2,5.586l4.708,15.695h3.692l4.708-15.7a11.066,11.066,0,0,0,.2-5.586l-2.265-10.2a4.6,4.6,0,0,0-4.488-3.6h-.01A4.593,4.593,0,0,0,371.888,223.051Z" fill="#ff9480"/><path d="M376.38,223.144h0a1.845,1.845,0,0,0-1.846,1.846v29.539h3.692V224.99A1.846,1.846,0,0,0,376.38,223.144Z" fill="#ffa0e4"/></g></svg>