<svg xmlns="http://www.w3.org/2000/svg" width="512" height="335.448" viewBox="0 0 512 335.448"><g transform="translate(0 -88.276)"><path d="M503.172,423.724H8.828A8.829,8.829,0,0,1,0,414.9V97.1a8.829,8.829,0,0,1,8.828-8.828H503.173A8.829,8.829,0,0,1,512,97.1V414.9A8.83,8.83,0,0,1,503.172,423.724Z" fill="#3cc8ff"/><path d="M247.172,256H8.828A8.829,8.829,0,0,1,0,247.172V97.1a8.829,8.829,0,0,1,8.828-8.828H247.172A8.829,8.829,0,0,1,256,97.1V247.173A8.827,8.827,0,0,1,247.172,256Z" fill="#41479b"/><path d="M247.172,88.276H231.839l-81.77,53.573V88.276H105.931v53.573L24.161,88.276H8.828A8.829,8.829,0,0,0,0,97.1v7l70.155,45.963H0v44.138H70.155L0,240.171v7A8.829,8.829,0,0,0,8.828,256H24.161l81.77-53.573V256h44.138V202.427L231.838,256h15.333A8.829,8.829,0,0,0,256,247.172v-7l-70.154-45.963H256V150.069H185.844L256,104.106v-7A8.827,8.827,0,0,0,247.172,88.276Z" fill="#f5f5f5"/><path d="M256,158.9H141.241V88.276H114.758V158.9H0v26.482H114.758V256h26.483V185.379H256Z" fill="#ff4b55"/><path d="M97.1,150.069l-92.9-60.3A8.686,8.686,0,0,0,0,97.1v.458l80.889,52.507Z" fill="#ff4b55"/><path d="M166.283,150.069,254.657,92.7a8.7,8.7,0,0,0-7.485-4.427h-1.909l-95.194,61.793Z" fill="#ff4b55"/><path d="M89.474,194.207l-88.2,57.256A8.717,8.717,0,0,0,8.828,256h1.665l95.2-61.793Z" fill="#ff4b55"/><path d="M255.859,247.867l-82.666-53.659H156.98l93.873,60.934A8.739,8.739,0,0,0,255.859,247.867Z" fill="#ff4b55"/><path d="M284.332,362.783l4.3,12.884,13.581.105a1.83,1.83,0,0,1,1.073,3.3l-10.925,8.067,4.1,12.949a1.83,1.83,0,0,1-2.809,2.04l-11.049-7.9-11.049,7.9a1.83,1.83,0,0,1-2.809-2.04l4.1-12.949-10.925-8.067a1.83,1.83,0,0,1,1.073-3.3l13.581-.105,4.3-12.884A1.829,1.829,0,0,1,284.332,362.783Z" fill="#ffe15a"/><path d="M409.33,265.572l4.3,12.884,13.581.105a1.83,1.83,0,0,1,1.073,3.3l-10.925,8.067,4.1,12.949a1.83,1.83,0,0,1-2.809,2.04l-11.049-7.9-11.049,7.9a1.83,1.83,0,0,1-2.809-2.04l4.1-12.949-10.925-8.067a1.83,1.83,0,0,1,1.073-3.3l13.581-.105,4.3-12.884A1.829,1.829,0,0,1,409.33,265.572Z" fill="#ffe15a"/><path d="M468.27,229.447l4.3,12.884,13.581.1a1.83,1.83,0,0,1,1.073,3.3L476.3,253.805l4.1,12.949a1.83,1.83,0,0,1-2.809,2.04l-11.049-7.9-11.049,7.9a1.83,1.83,0,0,1-2.809-2.04l4.1-12.949-10.925-8.067a1.83,1.83,0,0,1,1.073-3.3l13.581-.1,4.3-12.884A1.828,1.828,0,0,1,468.27,229.447Z" fill="#ffe15a"/><path d="M454.209,105.5l4.3,12.884,13.581.105a1.83,1.83,0,0,1,1.073,3.3l-10.925,8.067,4.1,12.949a1.83,1.83,0,0,1-2.809,2.04l-11.049-7.9-11.049,7.9a1.83,1.83,0,0,1-2.809-2.04l4.1-12.949-10.925-8.067a1.83,1.83,0,0,1,1.073-3.3l13.581-.105,4.3-12.884A1.829,1.829,0,0,1,454.209,105.5Z" fill="#ffe15a"/><path d="M336.584,394.979l-4.3-12.884-13.581-.105a1.83,1.83,0,0,1-1.073-3.3l10.925-8.067-4.1-12.949a1.83,1.83,0,0,1,2.809-2.04l11.049,7.9,11.049-7.9a1.83,1.83,0,0,1,2.809,2.04l-4.1,12.949,10.925,8.067a1.83,1.83,0,0,1-1.073,3.3l-13.581.105-4.3,12.884A1.829,1.829,0,0,1,336.584,394.979Z" fill="#ffe15a"/><path d="M377.2,358.523l-4.3-12.884-13.581-.105a1.83,1.83,0,0,1-1.073-3.3l10.925-8.067-4.1-12.949a1.83,1.83,0,0,1,2.809-2.04l11.049,7.9,11.049-7.9a1.83,1.83,0,0,1,2.809,2.04l-4.1,12.949,10.925,8.067a1.83,1.83,0,0,1-1.073,3.3l-13.581.105-4.3,12.884A1.828,1.828,0,0,1,377.2,358.523Z" fill="#ffe15a"/><path d="M413.76,199.525l-4.3-12.884-13.581-.1a1.83,1.83,0,0,1-1.073-3.3l10.925-8.067-4.1-12.949a1.83,1.83,0,0,1,2.809-2.04l11.049,7.9,11.049-7.9a1.83,1.83,0,0,1,2.809,2.04l-4.1,12.949,10.925,8.067a1.83,1.83,0,0,1-1.073,3.3l-13.581.1-4.3,12.884A1.829,1.829,0,0,1,413.76,199.525Z" fill="#ffe15a"/><path d="M371.577,213.065l-4.3-12.884-13.581-.1a1.83,1.83,0,0,1-1.073-3.3l10.925-8.067-4.1-12.949a1.83,1.83,0,0,1,2.809-2.04l11.049,7.9,11.049-7.9a1.83,1.83,0,0,1,2.809,2.04l-4.1,12.949L394,196.774a1.83,1.83,0,0,1-1.073,3.3l-13.581.1-4.3,12.884A1.829,1.829,0,0,1,371.577,213.065Z" fill="#ffe15a"/><path d="M344.569,318.249l-4.3-12.884-13.581-.105a1.83,1.83,0,0,1-1.073-3.3l10.925-8.067-4.1-12.949a1.83,1.83,0,0,1,2.809-2.04l11.049,7.9,11.049-7.9a1.83,1.83,0,0,1,2.809,2.04l-4.1,12.949,10.925,8.067a1.83,1.83,0,0,1-1.073,3.3l-13.581.105-4.3,12.884A1.829,1.829,0,0,1,344.569,318.249Z" fill="#ffe15a"/></g></svg>