<svg xmlns="http://www.w3.org/2000/svg" width="512" height="335.449" viewBox="0 0 512 335.449"><g transform="translate(0 -88.276)"><path d="M512,144.185H0V97.1a8.829,8.829,0,0,1,8.828-8.828H503.173A8.829,8.829,0,0,1,512,97.1v47.081Z" fill="#464655"/><rect width="512" height="55.908" transform="translate(0 144.191)" fill="#ffe15a"/><rect width="512" height="55.908" transform="translate(0 200.091)" fill="#ff4b55"/><rect width="512" height="55.908" transform="translate(0 256.001)" fill="#464655"/><rect width="512" height="55.908" transform="translate(0 311.911)" fill="#ffe15a"/><path d="M503.172,423.725H8.828A8.829,8.829,0,0,1,0,414.9V367.816H512V414.9A8.828,8.828,0,0,1,503.172,423.725Z" fill="#ff4b55"/><circle cx="52.966" cy="52.966" r="52.966" transform="translate(203.034 203.035)" fill="#f5f5f5"/><path d="M259.194,223.754l5.217-2.087a1.431,1.431,0,0,0,.787-1.911c-1.17-2.594-4.3-7.962-10.263-8.124a20.124,20.124,0,0,0-8.186,1.4,1.439,1.439,0,0,0-.7,2.062l3.148,5.378Z" fill="#ff4b55"/><path d="M254.935,211.631c-.434-.012-.825.013-1.234.025l-.568,8.329,3.03,1.678,6.554-5.93A10.371,10.371,0,0,0,254.935,211.631Z" fill="#ffe15a"/><path d="M277.377,272.733l-23.588-27.52a27.354,27.354,0,0,1,3.2-12.486,7.862,7.862,0,1,0-11.059-7.172c0,.186.042.361.055.544-5.088,1.342-6.034,2.978-6.034,2.978s3.335-.887,6.229-1.645c.058.236.136.463.214.691l-5.707,1.938,6.232-.758a7.974,7.974,0,0,0,2.957,3.046c-4.658,3.752-11.81,10.8-11.81,18.763,0,7.278,5.391,12.128,12.181,15.352A20.856,20.856,0,0,1,256.592,271l.067.072.59,9.035h-13.29c-4.915,0-6.265,3.194-6.265,8.477l2.334-3.317,1.965,3.686.246-4.178,2.089,2.7s-.021-3.53,2.642-3.993a90.232,90.232,0,0,1,10.465-.553l.881,13.464c-5.639-.026-12.021,2.63-12.021,2.63,1.965-.369,6.758.369,6.758.369l-.8,2.334c5.528-3.01,15.665-3.072,15.665-3.072s-2.211-1.508-7.371-2.1l.119-13.628h8.111l1.228-3.194s-4.185-5.553-4.185-8.493A94.873,94.873,0,0,0,277.377,272.733Zm-16.686,7.372.041-4.674,4.361,4.674Z" fill="#464655"/><path d="M277.377,276.664c-1.965-7.863-10.58-10.28-19.657-15.726-9.828-5.9-3.932-15.726-3.932-15.726s32.926,9.665,35.383,23.588c1.913,10.844-5.9,17.692-9.828,19.657l1.412-3.932h-7.31s7.74-6.02,7.863-11.8Z" fill="#696e7d"/><path d="M289.172,268.8c-1.643-9.309-16.893-16.707-26.829-20.594h0c-3.18-.354-5.974,4.991,2.749,10.765,11.735,7.768,12.286,17.692,12.286,17.692l3.932-3.932c-.122,5.774-7.863,11.8-7.863,11.8h7.31l-1.412,3.932C283.275,286.493,291.085,279.646,289.172,268.8Z" fill="#fffcff"/><path d="M289.172,268.8c-1.089-6.169-8.158-11.492-15.693-15.517a22.871,22.871,0,0,0-6.79-.946c2.211,1.352,3.194,4.791,3.194,4.791-1.6-.983-5.16-.491-5.16-.491a12.955,12.955,0,0,1,2.558,3.911c9.609,7.469,10.1,16.116,10.1,16.116l3.932-3.932c-.122,5.774-7.863,11.8-7.863,11.8h7.31l-1.412,3.932C283.275,286.493,291.085,279.646,289.172,268.8Z" fill="#ff4b55"/><circle cx="1.311" cy="1.311" r="1.311" transform="translate(249.279 223.51)" fill="#f5f5f5"/><path d="M247.155,229.814s-2.867,3.358-.983,4.341,3.7-1.809,3.7-1.809Z" fill="#ff4b55"/></g></svg>