<svg xmlns="http://www.w3.org/2000/svg" width="512" height="335.448" viewBox="0 0 512 335.448"><g transform="translate(0 -88.276)"><path d="M503.172,88.276H8.828A8.828,8.828,0,0,0,0,97.1V414.9a8.829,8.829,0,0,0,8.828,8.828H503.173A8.829,8.829,0,0,0,512,414.9V97.1A8.829,8.829,0,0,0,503.172,88.276Z" fill="#82afff"/><path d="M255.25,321.654a81.431,81.431,0,1,0-81.431-81.431A81.524,81.524,0,0,0,255.25,321.654Zm9.29-154.345,7-2.579a76.844,76.844,0,0,1,27.145,11.651c-.7-.07-2.532-.258-2.849-.364-.392-.13-1,2.494-1,2.494l3.212,1.278.876-3.226a77.654,77.654,0,0,1,9.382,7.654l-4.722,4.722h-.834l-.679-2.665-2.583-4.643-9.124-3.289-6.311,3.054,3.581,7.753a60.084,60.084,0,0,0-30.3-9.369V168.974l6.43,2.03-2.673-4.712-3.757,1.608v-4.825a76.969,76.969,0,0,1,8.247.669l-3.158,1.053Zm42.256,59.6,1.537-.651.387-3.783a56.038,56.038,0,0,1,2.8,15.656H297.356l.522-2.262,4-.348,3.313-5.641-.094-1.058-3.393,4.35-2.072.509-1.321-1.553,1.554-2.641L296.486,227l-3.037,2.663a39.452,39.452,0,0,0-3.373-8.414l1.647-.6,1.321-.788-.011-1.554.847-1.053-.49-.3c-.362.172-2.251.721-2.251.721l-.655,2.126-.94.572a39.8,39.8,0,0,0-4.85-6.641l7.809-7.809.067.11,1.9-1.143-.3-.643,2.321-2.321a56.351,56.351,0,0,1,11.913,19.719l-1.944-2.889-1,.374ZM296.5,278.521l-4.224-4.224-1.594-4.226-.82,1.812-1.634-1.634,1.675-5.135-1.085-3.726-.077.01a39.355,39.355,0,0,0,3.029-5.686l.02,0c.262,0,1.218-1.218,1.218-1.218l2.349.262,6.072-2.4-2.332-2.211-1.373-1.226-1.064-2.166-1.9-3.313c.03-.372.038-.749.057-1.124h16.7A56.079,56.079,0,0,1,296.5,278.521Zm-81.054-2.672,2.091-3.654-4.5-15.731-3.549-8.759,3.219-1.393.87-2.61,2.174-.063A39.464,39.464,0,0,0,225.8,266.714l-9.222,9.222Zm5.024-38.562-.045.849h-.567c.019-.321.022-.647.049-.966Zm53.608,32.972-.714-.388-9.109,3.522-4.721-1.817-2.2.607v-3l2.273-.686,1.378.332,2.9,1.135-1.749-3.2,3.748,3.142,1.8.41-.547-2.4,1.219-3.961,4.247-2.591.369,2.385-5.181,2.816.994,1.983,5.388-1.088.085,2.688C274.2,270.186,274.138,270.22,274.079,270.259Zm-21.468-15.687-.162-.348-.978.056a14.488,14.488,0,0,1-3.541-1.482l3.635-.441,1.6-4.286v6.556C252.98,254.6,252.79,254.6,252.611,254.572Zm-15.265-8.941-3.551-.547,1.811-2.773h1.063A18.506,18.506,0,0,0,237.346,245.631Zm19.991-14.448.979.3,1.231,1.493-2.21,2.21v-4Zm6.586,26.541-1.7,1.984-2.825,1.4-.947-1.66-.57,3.3-.547.214V258.8c.395-.044.8-.052,1.19-.12l1.352,1.7,1.122-1.4-.087-.934a18.76,18.76,0,0,0,1.853-.625Zm-1.271-21.95-.045,2.259-.082.1h-2.236Zm1.341,7.777,2.7-.086,1.474,1.228-.491.885-2.063-1.18-1.13.884.567,1.694-.023.074-4.739-4.739h3.157Zm-1.788,6.58-2.582-.278-1.824,4.728c-.15.026-.309.025-.46.046v-9.364Zm-13.406-12-.181-.761-1.813.761H246l.265-1.1,1.171-1.134-.929-.211-.966,1.373-1,.46.118.615H243.6l.634-2.467,1.856-1.646,4.114,4.114H248.8Zm-7.747,4.177.428.5.289-.5h1.493l-1.942,2.1a14.357,14.357,0,0,1-.474-2.1Zm2.311,6.356,2.7-4.662-.706-.631,1.19-.614.149-.45h1.9l-.436.234-.181.626,1.471-.1-1.1,1.1-1.113.235-.231,1.11-3.426,3.425C243.514,248.842,243.431,248.762,243.363,248.668Zm9.8-22.414-.78-.12.6,2.505.177.138v6.406l-3.509-3.509,2.463-1.331-2.225-3.686a14.547,14.547,0,0,1,3.271-.839v.436ZM220.2,242.312l-.042.794-.175,1.06c-.067-.611-.09-1.235-.127-1.855Zm2.043,4.958,2.6,2.611,2.131-1.484,5.02,4.212,5.4.95,1.51-4.248a18.8,18.8,0,0,0,1.729,2.578L236,256.528l.746-1.9-2.762-.449.885,3.243.131.109-6.237,6.236a35.377,35.377,0,0,1-8.274-16.374Zm21.338,7.57a18.578,18.578,0,0,0,9.577,3.964v4.829l-.047.114.047-.015v3.612l-1.216.244-.705,4.533,1.921-.223v1.438l-3.042.84-1.013.977a35.345,35.345,0,0,1-17.4-8.434Zm35.222,17.228,3.064.65,3.014.093,1.657,1.657-5.063-.184-3.262-1.774C278.418,272.366,278.61,272.215,278.807,272.068Zm2.936-8.3-.914-.914,1.86-.142C282.39,263.073,282.057,263.41,281.743,263.764Zm4.789-40.285c-1.421.02-2.8.04-2.921.04a17.644,17.644,0,0,0-2.308,1.749l-1.564,2.025-.471-2.471,1.108-2.524-.854-.782-3.828,2.436-.812-.41,2.99-2.99.658.217,1.906-.448-.969-1.363,2.275-2.276A35.646,35.646,0,0,1,286.532,223.479Zm-11.2-6.292-.183-.585-1.24.2-.77,1.491-3.4.335c.249.5,1.309,2.569,1.4,2.755l-4.225,4.225a18.715,18.715,0,0,0-2.879-1.892l.523-.281-.621-2.1-.423-.774-1.884,2.061a18.6,18.6,0,0,0-4.292-.98V204.831a35.293,35.293,0,0,1,21.453,8.9Zm-22.172,4.455a18.608,18.608,0,0,0-3.893.855l.625-1.451-3.257,2.56.006.01a18.681,18.681,0,0,0-3.058,1.991l-11.876-11.876a35.293,35.293,0,0,1,21.453-8.9v16.808Zm-13.2,6.247-5.614.982.2-2.133-4.653-1.606-7.442,1.556a35.571,35.571,0,0,1,6.306-10.006Zm-18.021.187,2.337.489-2.8.775C221.615,228.91,221.786,228.5,221.941,228.076Zm-6.258,10.059h-.362l.38-.351C215.694,237.9,215.69,238.018,215.683,238.135Zm4.453,40.154,8.621-8.62a39.554,39.554,0,0,0,16.736,8.963l-2.969,2.861,6.391,8.445,4.247.235v6.322a55.987,55.987,0,0,1-30.08-10.036l1.38-.9Zm37.2,12.112,5.385.3.137,1.235,3.276,3.59a56.345,56.345,0,0,1-8.8.971V290.4Zm34.207-10.933,2.005,2.005c-.959.89-1.923,1.773-2.942,2.6Zm2-80.495-1.223,1.223-1.45-3.168-2.636-1.4s-2.455-2.166-3.733-3.5A56.6,56.6,0,0,1,293.548,198.973Zm-9.61-7.194,1.845,6.455,4.31,3.752.168.275-8.519,8.518a39.44,39.44,0,0,0-24.4-10.121v-16.7A55.931,55.931,0,0,1,283.938,191.779Zm-30.776,8.879a39.454,39.454,0,0,0-24.4,10.121l-11.806-11.806a56.084,56.084,0,0,1,36.211-15.019v16.7ZM225.8,213.731a39.554,39.554,0,0,0-9.236,17.794l-3.67,6.61H198.979A56.083,56.083,0,0,1,214,201.925Zm-14.918,28.581-3.966,8.524-5.61-2.087-1.053,3.734a56.216,56.216,0,0,1-1.277-10.173h11.9v0Zm-4.181,42.281.648.574-8.111,8.111a77.446,77.446,0,0,1-13.778-20.137l2.157,1.26,14.387,12.8Zm3.777,3.348,1.964,1.741,6.37-1.21a60.147,60.147,0,0,0,34.346,12.2v16.7a76.883,76.883,0,0,1-50.969-21.142Zm46.855,12.728a60.427,60.427,0,0,0,10.374-1.2l.389,2.573,9.952,7.339,11.206-6.217,3.217-6.782-.211-4.2,2.116-4.964-.516-.4c.915-.759,1.768-1.586,2.635-2.4l1.926,1.924.586,3.637,2.186-.866,7.111,7.111a76.885,76.885,0,0,1-50.969,21.142v-16.7h0Zm44.857-16.455-.4-4.754-.535.024A60.22,60.22,0,0,0,315.7,242.311h16.7a76.888,76.888,0,0,1-21.14,50.967Zm13.5-46.079a60.073,60.073,0,0,0-8.515-28.892l7.1,6.641,5.7-4.893-8.744-13.181-5.771-4.437.015-.425,5.781-5.781a76.885,76.885,0,0,1,21.14,50.967H315.7Zm-62.533-58.357A60.243,60.243,0,0,0,214,196.022l-11.807-11.806a76.885,76.885,0,0,1,50.969-21.142v16.7Zm-42.115,19.2a60.249,60.249,0,0,0-16.243,39.16H178.1a76.888,76.888,0,0,1,21.14-50.967ZM194.8,242.312a60.1,60.1,0,0,0,3.309,17.773l-.63,2.237-16.32-.359a76.879,76.879,0,0,1-3.062-19.65Z" fill="#f5f5f5"/><path d="M198.993,336.966l15.076-2.441a1.7,1.7,0,0,0,.973-2.842c-3.626-3.874-10.833-11.9-15.006-18.728-5.742-9.4-15.852-17.142-15.852-17.142s1.933,25.842,21.42,34.716c0,0-19.314-4.873-31.668-8.178s-15.735-6.944-15.735-6.944S167.848,340.1,198.993,336.966Z" fill="#f5f5f5"/><path d="M184.029,308.083c-.522-6.439-5.228-22.9-14.1-36.505,0,0,.011,33.068,11.752,44.269,0,0-16.62-15.943-26.538-23.251a48.757,48.757,0,0,1-13.4-14.616s2.495,20.9,16.008,31.319c9.135,7.047,29.406,12.006,29.406,12.006A55.474,55.474,0,0,1,184.029,308.083Z" fill="#f5f5f5"/><path d="M152.188,283.374l10.154,8.782a1.647,1.647,0,0,0,2.731-1.207,70.433,70.433,0,0,1,1.035-12.273c1.218-5.394,2.724-22.909-3.423-35.64,0,0-7.431,22.816-1.623,41.817a262.12,262.12,0,0,0-18.444-25.491,37.711,37.711,0,0,1-6.8-12.512S135.658,269.629,152.188,283.374Z" fill="#f5f5f5"/><path d="M149.4,260.9a1.658,1.658,0,0,0,2.9-.409,125.565,125.565,0,0,1,7.366-16.612c6.264-11.484,3.374-25,3.374-25s-10.056,17.237-12.971,36.392c-.19-.854-.4-1.767-.647-2.81-2.76-11.6-13.495-40.542-13.495-40.542s-3.776,15.893.943,28.48C139.3,246.857,146.074,256.409,149.4,260.9Z" fill="#f5f5f5"/><path d="M147.33,235.489a1.174,1.174,0,0,0,2.264.04,28.856,28.856,0,0,1,7.117-11.837c7.83-8,13.767-19.115,16.8-29.045,0,0-16.706,13.4-21.974,22.442,0,0,.521-12.429-1.266-21.411-1.523-7.656,1.713-15.032,1.713-15.032s-10.586,10.161-9.021,28.778A155.758,155.758,0,0,0,147.33,235.489Z" fill="#f5f5f5"/><path d="M157.91,203.577c3.169-2.9,8.719-7.854,14.07-10.856,7.1-3.986,12.724-16.844,13.963-19.705,0,0-19.8,16.2-25.186,21.4,0,0,3.263-14.485,5.351-20.749s1.827-8.352,3.654-10.962c0,0-9.526,8.352-12.137,15.007-2.145,5.47-1.734,17.9-2.026,24.767A1.38,1.38,0,0,0,157.91,203.577Z" fill="#f5f5f5"/><path d="M177.939,174.452c5.568-4.524,14.442-17.748,14.442-17.748-2.2,1.256-11.136,4.35-18.617,12.006s-9.048,18.1-9.048,18.1S172.371,178.976,177.939,174.452Z" fill="#f5f5f5"/><path d="M304.372,340.793c-16.356-3.219-30.362-5.568-46.781-1.3-.808.21-1.564.452-2.342.681-.779-.228-1.534-.47-2.342-.681-16.418-4.27-30.425-1.922-46.781,1.3a88.3,88.3,0,0,1-28.857.391s10.24,10.4,33.556,10.4c10.172,0,22.955-8.562,31.021-9.018a35.017,35.017,0,0,1,5.891.225c-17.32,7.065-25.315,17.78-25.472,17.987a2.084,2.084,0,0,0,.4,2.92,2.063,2.063,0,0,0,1.26.428,2.091,2.091,0,0,0,1.664-.824c.637-.837,13.431-14.073,29.658-18.963,16.227,4.89,29.022,18.125,29.658,18.963a2.086,2.086,0,0,0,1.664.824,2.063,2.063,0,0,0,1.26-.428,2.084,2.084,0,0,0,.4-2.92c-.157-.207-8.152-10.922-25.472-17.987a35.23,35.23,0,0,1,5.891-.225c8.066.456,20.85,9.018,31.021,9.018,23.316,0,33.556-10.4,33.556-10.4A88.3,88.3,0,0,1,304.372,340.793Z" fill="#f5f5f5"/><path d="M304.894,330.529c19.488-8.874,21.42-34.716,21.42-34.716s-10.111,7.746-15.852,17.142c-4.173,6.829-11.381,14.854-15.006,18.728a1.7,1.7,0,0,0,.973,2.842l15.076,2.441c31.146,3.132,40.791-21.56,40.791-21.56s-3.382,3.639-15.735,6.944S304.894,330.529,304.894,330.529Z" fill="#f5f5f5"/><path d="M355.353,292.6c-9.918,7.308-26.538,23.251-26.538,23.251,11.742-11.2,11.752-44.269,11.752-44.269-8.87,13.607-13.576,30.067-14.1,36.505a55.49,55.49,0,0,1-3.132,13.224s20.27-4.959,29.406-12.006c13.513-10.424,16.008-31.319,16.008-31.319A48.79,48.79,0,0,1,355.353,292.6Z" fill="#f5f5f5"/><path d="M349.438,284.854c5.807-19-1.623-41.817-1.623-41.817-6.147,12.732-4.641,30.247-3.423,35.64a70.425,70.425,0,0,1,1.035,12.273,1.647,1.647,0,0,0,2.731,1.207l10.154-8.782c16.53-13.746,16.371-36.523,16.371-36.523a37.711,37.711,0,0,1-6.8,12.512A261.9,261.9,0,0,0,349.438,284.854Z" fill="#f5f5f5"/><path d="M360.426,255.27c-2.915-19.155-12.971-36.392-12.971-36.392s-2.889,13.516,3.374,25a125.967,125.967,0,0,1,7.366,16.612,1.658,1.658,0,0,0,2.9.409c3.328-4.49,10.1-14.041,12.526-20.5,4.719-12.587.943-28.48.943-28.48s-10.735,28.94-13.495,40.542C360.823,253.5,360.616,254.415,360.426,255.27Z" fill="#f5f5f5"/><path d="M360.225,195.679c-1.786,8.982-1.266,21.411-1.266,21.411-5.268-9.038-21.974-22.442-21.974-22.442,3.034,9.93,8.971,21.041,16.8,29.045A28.85,28.85,0,0,1,360.9,235.53a1.175,1.175,0,0,0,2.264-.04,155.59,155.59,0,0,0,4.365-26.065c1.566-18.618-9.021-28.778-9.021-28.778S361.748,188.024,360.225,195.679Z" fill="#f5f5f5"/><path d="M349.742,194.418c-5.389-5.2-25.186-21.4-25.186-21.4,1.24,2.861,6.858,15.72,13.963,19.705,5.351,3,10.9,7.95,14.07,10.856a1.381,1.381,0,0,0,2.312-1.1c-.292-6.863.119-19.3-2.026-24.767-2.61-6.655-12.137-15.007-12.137-15.007,1.827,2.61,1.566,4.7,3.654,10.962S349.742,194.418,349.742,194.418Z" fill="#f5f5f5"/><path d="M332.559,174.452c5.568,4.524,13.224,12.353,13.224,12.353s-1.566-10.44-9.048-18.1-16.419-10.75-18.617-12.006C318.118,156.7,326.991,169.928,332.559,174.452Z" fill="#f5f5f5"/><path d="M298.444,217.491l-3.549,2.337,3.786.592,4.137,4.575,2.317-1.492-2.779-5.683Z" fill="#f5f5f5"/><path d="M304.047,236.98l1.314.5,3.328-8.939-.914-1.24-1.436.718-2.283,8.091Z" fill="#f5f5f5"/><path d="M270.648,221.823l-1.044-1.109-2.349,3,.584.908Z" fill="#f5f5f5"/><path d="M294.692,214.842l.635-2.042-2.1.426-.594.168-.623.834,2.271,2.634.92-.783Z" fill="#f5f5f5"/><path d="M252.509,262.669l.033-1.27-1.6,2.315.457.781Z" fill="#f5f5f5"/></g></svg>