<svg xmlns="http://www.w3.org/2000/svg" width="512" height="335.449" viewBox="0 0 512 335.449"><g transform="translate(0 -88.276)"><path d="M503.172,423.725H8.828A8.829,8.829,0,0,1,0,414.9V97.1a8.829,8.829,0,0,1,8.828-8.828H503.173A8.829,8.829,0,0,1,512,97.1V414.9A8.83,8.83,0,0,1,503.172,423.725Z" fill="#f5f5f5"/><path d="M512,114.081H0V97.1a8.829,8.829,0,0,1,8.828-8.828H503.173A8.829,8.829,0,0,1,512,97.1v16.977Z" fill="#ff4b55"/><rect width="512" height="25.804" transform="translate(0 191.491)" fill="#ff4b55"/><rect width="512" height="25.804" transform="translate(0 139.881)" fill="#ff4b55"/><path d="M512,268.9H8.828A8.829,8.829,0,0,1,0,260.075V243.1H512Z" fill="#ff4b55"/><rect width="512" height="25.804" transform="translate(0 346.321)" fill="#ff4b55"/><path d="M503.172,423.725H8.828A8.829,8.829,0,0,1,0,414.9V397.921H512V414.9A8.828,8.828,0,0,1,503.172,423.725Z" fill="#ff4b55"/><rect width="512" height="25.804" transform="translate(0 294.711)" fill="#ff4b55"/><path d="M229.517,88.277H8.828A8.828,8.828,0,0,0,0,97.1v162.97A8.829,8.829,0,0,0,8.828,268.9h220.69a8.829,8.829,0,0,0,8.828-8.828V97.1A8.829,8.829,0,0,0,229.517,88.277Z" fill="#41479b"/><path d="M24.789,108.538l1.954,5.86,6.177.047a.832.832,0,0,1,.488,1.5l-4.969,3.67,1.864,5.889a.832.832,0,0,1-1.278.928L24,122.843l-5.025,3.592a.833.833,0,0,1-1.278-.928l1.864-5.889-4.969-3.67a.832.832,0,0,1,.488-1.5l6.177-.047,1.954-5.86A.831.831,0,0,1,24.789,108.538Z" fill="#f5f5f5"/><path d="M24.789,139.192l1.954,5.86,6.177.047a.832.832,0,0,1,.488,1.5l-4.969,3.67L30.3,156.16a.832.832,0,0,1-1.278.928L24,153.5l-5.025,3.592a.833.833,0,0,1-1.278-.928l1.864-5.889-4.969-3.67a.832.832,0,0,1,.488-1.5l6.177-.047,1.954-5.86A.832.832,0,0,1,24.789,139.192Z" fill="#f5f5f5"/><path d="M24.789,169.846l1.954,5.86,6.177.047a.832.832,0,0,1,.488,1.5l-4.969,3.67,1.864,5.889a.832.832,0,0,1-1.278.928L24,184.151l-5.025,3.592a.833.833,0,0,1-1.278-.928l1.864-5.889-4.969-3.67a.832.832,0,0,1,.488-1.5l6.177-.047,1.954-5.86A.832.832,0,0,1,24.789,169.846Z" fill="#f5f5f5"/><path d="M24.789,200.5l1.954,5.86,6.177.047a.832.832,0,0,1,.488,1.5l-4.969,3.67,1.864,5.889a.832.832,0,0,1-1.278.928L24,214.806,18.975,218.4a.833.833,0,0,1-1.278-.928l1.864-5.889-4.969-3.67a.832.832,0,0,1,.488-1.5l6.177-.047,1.954-5.86A.831.831,0,0,1,24.789,200.5Z" fill="#f5f5f5"/><path d="M24.789,231.155l1.954,5.86,6.177.047a.832.832,0,0,1,.488,1.5l-4.969,3.67,1.864,5.889a.832.832,0,0,1-1.278.928L24,245.46l-5.025,3.592a.833.833,0,0,1-1.278-.928l1.864-5.889-4.969-3.67a.832.832,0,0,1,.488-1.5l6.177-.047,1.954-5.86A.831.831,0,0,1,24.789,231.155Z" fill="#f5f5f5"/><path d="M48.582,123.567l1.954,5.86,6.177.047a.832.832,0,0,1,.488,1.5l-4.969,3.67,1.864,5.889a.832.832,0,0,1-1.278.928l-5.025-3.592-5.025,3.592a.833.833,0,0,1-1.278-.928l1.864-5.889-4.969-3.67a.832.832,0,0,1,.488-1.5l6.177-.047L47,123.567A.832.832,0,0,1,48.582,123.567Z" fill="#f5f5f5"/><path d="M48.582,154.222l1.954,5.86,6.177.047a.832.832,0,0,1,.488,1.5l-4.969,3.67L54.1,171.19a.832.832,0,0,1-1.278.928l-5.025-3.592-5.025,3.592a.833.833,0,0,1-1.278-.928l1.864-5.889-4.969-3.67a.832.832,0,0,1,.488-1.5l6.177-.047L47,154.222A.831.831,0,0,1,48.582,154.222Z" fill="#f5f5f5"/><path d="M48.582,184.876l1.954,5.86,6.177.047a.832.832,0,0,1,.488,1.5l-4.969,3.67,1.864,5.889a.832.832,0,0,1-1.278.928l-5.025-3.592-5.025,3.592a.833.833,0,0,1-1.278-.928l1.864-5.889-4.969-3.67a.832.832,0,0,1,.488-1.5l6.177-.047L47,184.876A.831.831,0,0,1,48.582,184.876Z" fill="#f5f5f5"/><path d="M48.582,215.53l1.954,5.86,6.177.047a.832.832,0,0,1,.488,1.5l-4.969,3.67L54.1,232.5a.832.832,0,0,1-1.278.928l-5.025-3.592-5.025,3.592a.833.833,0,0,1-1.278-.928l1.864-5.889-4.969-3.67a.832.832,0,0,1,.488-1.5l6.177-.047L47,215.53A.832.832,0,0,1,48.582,215.53Z" fill="#f5f5f5"/><path d="M72.375,108.538l1.954,5.86,6.177.047a.832.832,0,0,1,.488,1.5l-4.969,3.67,1.864,5.889a.832.832,0,0,1-1.278.928l-5.025-3.592-5.025,3.592a.833.833,0,0,1-1.278-.928l1.864-5.889-4.969-3.67a.832.832,0,0,1,.488-1.5l6.177-.047,1.954-5.86A.831.831,0,0,1,72.375,108.538Z" fill="#f5f5f5"/><path d="M72.375,139.192l1.954,5.86,6.177.047a.832.832,0,0,1,.488,1.5l-4.969,3.67,1.864,5.889a.832.832,0,0,1-1.278.928L71.586,153.5l-5.025,3.592a.833.833,0,0,1-1.278-.928l1.864-5.889-4.969-3.67a.832.832,0,0,1,.488-1.5l6.177-.047,1.954-5.86A.832.832,0,0,1,72.375,139.192Z" fill="#f5f5f5"/><path d="M72.375,169.846l1.954,5.86,6.177.047a.832.832,0,0,1,.488,1.5l-4.969,3.67,1.864,5.889a.832.832,0,0,1-1.278.928l-5.025-3.592-5.025,3.592a.833.833,0,0,1-1.278-.928l1.864-5.889-4.969-3.67a.832.832,0,0,1,.488-1.5l6.177-.047,1.954-5.86A.832.832,0,0,1,72.375,169.846Z" fill="#f5f5f5"/><path d="M72.375,200.5l1.954,5.86,6.177.047a.832.832,0,0,1,.488,1.5l-4.969,3.67,1.864,5.889a.832.832,0,0,1-1.278.928L71.586,214.8,66.561,218.4a.833.833,0,0,1-1.278-.928l1.864-5.889-4.969-3.67a.832.832,0,0,1,.488-1.5l6.177-.047L70.8,200.5A.831.831,0,0,1,72.375,200.5Z" fill="#f5f5f5"/><path d="M72.375,231.155l1.954,5.86,6.177.047a.832.832,0,0,1,.488,1.5l-4.969,3.67,1.864,5.889a.832.832,0,0,1-1.278.928l-5.025-3.592-5.025,3.592a.833.833,0,0,1-1.278-.928l1.864-5.889-4.969-3.67a.832.832,0,0,1,.488-1.5l6.177-.047,1.954-5.86A.831.831,0,0,1,72.375,231.155Z" fill="#f5f5f5"/><path d="M96.169,123.567l1.954,5.86,6.177.047a.832.832,0,0,1,.488,1.5l-4.969,3.67,1.864,5.889a.832.832,0,0,1-1.278.928l-5.025-3.592-5.025,3.592a.833.833,0,0,1-1.278-.928l1.864-5.889-4.969-3.67a.832.832,0,0,1,.488-1.5l6.177-.047,1.954-5.86A.832.832,0,0,1,96.169,123.567Z" fill="#f5f5f5"/><path d="M96.169,154.222l1.954,5.86,6.177.047a.832.832,0,0,1,.488,1.5l-4.969,3.67,1.864,5.889a.832.832,0,0,1-1.278.928l-5.025-3.592-5.025,3.592a.833.833,0,0,1-1.278-.928l1.864-5.889-4.969-3.67a.832.832,0,0,1,.488-1.5l6.177-.047,1.954-5.86A.831.831,0,0,1,96.169,154.222Z" fill="#f5f5f5"/><path d="M96.169,184.876l1.954,5.86,6.177.047a.832.832,0,0,1,.488,1.5l-4.969,3.67,1.864,5.889a.832.832,0,0,1-1.278.928L95.38,199.18l-5.025,3.592a.833.833,0,0,1-1.278-.928l1.864-5.889-4.969-3.67a.832.832,0,0,1,.488-1.5l6.177-.047,1.954-5.86A.831.831,0,0,1,96.169,184.876Z" fill="#f5f5f5"/><path d="M96.169,215.53l1.954,5.86,6.177.047a.832.832,0,0,1,.488,1.5l-4.969,3.67,1.864,5.889a.832.832,0,0,1-1.278.928l-5.025-3.592-5.025,3.592a.833.833,0,0,1-1.278-.928l1.864-5.889-4.969-3.67a.832.832,0,0,1,.488-1.5l6.177-.047,1.954-5.86A.832.832,0,0,1,96.169,215.53Z" fill="#f5f5f5"/><path d="M119.962,108.538l1.954,5.86,6.177.047a.832.832,0,0,1,.488,1.5l-4.969,3.67,1.864,5.889a.832.832,0,0,1-1.278.928l-5.026-3.592-5.025,3.592a.833.833,0,0,1-1.278-.928l1.864-5.889-4.969-3.67a.832.832,0,0,1,.488-1.5l6.177-.047,1.954-5.86A.832.832,0,0,1,119.962,108.538Z" fill="#f5f5f5"/><path d="M119.962,139.192l1.954,5.86,6.177.047a.832.832,0,0,1,.488,1.5l-4.969,3.67,1.864,5.889a.832.832,0,0,1-1.278.928l-5.026-3.592-5.025,3.592a.833.833,0,0,1-1.278-.928l1.864-5.889-4.969-3.67a.832.832,0,0,1,.488-1.5l6.177-.047,1.954-5.86A.832.832,0,0,1,119.962,139.192Z" fill="#f5f5f5"/><path d="M119.962,169.846l1.954,5.86,6.177.047a.832.832,0,0,1,.488,1.5l-4.969,3.67,1.864,5.889a.832.832,0,0,1-1.278.928l-5.026-3.592-5.025,3.592a.833.833,0,0,1-1.278-.928l1.864-5.889-4.969-3.67a.832.832,0,0,1,.488-1.5l6.177-.047,1.954-5.86A.832.832,0,0,1,119.962,169.846Z" fill="#f5f5f5"/><path d="M119.962,200.5l1.954,5.86,6.177.047a.832.832,0,0,1,.488,1.5l-4.969,3.67,1.864,5.889a.832.832,0,0,1-1.278.928l-5.026-3.592-5.025,3.592a.833.833,0,0,1-1.278-.928l1.864-5.889-4.969-3.67a.832.832,0,0,1,.488-1.5l6.177-.047,1.954-5.86A.832.832,0,0,1,119.962,200.5Z" fill="#f5f5f5"/><path d="M119.962,231.155l1.954,5.86,6.177.047a.832.832,0,0,1,.488,1.5l-4.969,3.67,1.864,5.889a.832.832,0,0,1-1.278.928l-5.026-3.592-5.025,3.592a.833.833,0,0,1-1.278-.928l1.864-5.889-4.969-3.67a.832.832,0,0,1,.488-1.5l6.177-.047,1.954-5.86A.832.832,0,0,1,119.962,231.155Z" fill="#f5f5f5"/><path d="M143.755,123.567l1.954,5.86,6.177.047a.832.832,0,0,1,.488,1.5l-4.969,3.67,1.864,5.889a.832.832,0,0,1-1.278.928l-5.025-3.592-5.025,3.592a.833.833,0,0,1-1.278-.928l1.864-5.889-4.969-3.67a.832.832,0,0,1,.488-1.5l6.177-.047,1.954-5.86A.832.832,0,0,1,143.755,123.567Z" fill="#f5f5f5"/><path d="M143.755,154.222l1.954,5.86,6.177.047a.832.832,0,0,1,.488,1.5l-4.969,3.67,1.864,5.889a.832.832,0,0,1-1.278.928l-5.025-3.592-5.025,3.592a.833.833,0,0,1-1.278-.928l1.864-5.889-4.969-3.67a.832.832,0,0,1,.488-1.5l6.177-.047,1.954-5.86A.831.831,0,0,1,143.755,154.222Z" fill="#f5f5f5"/><path d="M143.755,184.876l1.954,5.86,6.177.047a.832.832,0,0,1,.488,1.5l-4.969,3.67,1.864,5.889a.832.832,0,0,1-1.278.928l-5.025-3.592-5.025,3.592a.833.833,0,0,1-1.278-.928l1.864-5.889-4.969-3.67a.832.832,0,0,1,.488-1.5l6.177-.047,1.954-5.86A.831.831,0,0,1,143.755,184.876Z" fill="#f5f5f5"/><path d="M143.755,215.53l1.954,5.86,6.177.047a.832.832,0,0,1,.488,1.5l-4.969,3.67,1.864,5.889a.832.832,0,0,1-1.278.928l-5.025-3.592-5.025,3.592a.833.833,0,0,1-1.278-.928l1.864-5.889-4.969-3.67a.832.832,0,0,1,.488-1.5l6.177-.047,1.954-5.86A.832.832,0,0,1,143.755,215.53Z" fill="#f5f5f5"/><path d="M167.549,108.538l1.954,5.86,6.177.047a.832.832,0,0,1,.488,1.5l-4.969,3.67,1.864,5.889a.832.832,0,0,1-1.278.928l-5.025-3.592-5.025,3.592a.833.833,0,0,1-1.278-.928l1.864-5.889-4.969-3.67a.832.832,0,0,1,.488-1.5l6.177-.047,1.954-5.86A.831.831,0,0,1,167.549,108.538Z" fill="#f5f5f5"/><path d="M167.549,139.192l1.954,5.86,6.177.047a.832.832,0,0,1,.488,1.5l-4.969,3.67,1.864,5.889a.832.832,0,0,1-1.278.928L166.76,153.5l-5.025,3.592a.833.833,0,0,1-1.278-.928l1.864-5.889-4.969-3.67a.832.832,0,0,1,.488-1.5l6.177-.047,1.954-5.86A.832.832,0,0,1,167.549,139.192Z" fill="#f5f5f5"/><path d="M167.549,169.846l1.954,5.86,6.177.047a.832.832,0,0,1,.488,1.5l-4.969,3.67,1.864,5.889a.832.832,0,0,1-1.278.928l-5.025-3.592-5.025,3.592a.833.833,0,0,1-1.278-.928l1.864-5.889-4.969-3.67a.832.832,0,0,1,.488-1.5l6.177-.047,1.954-5.86A.832.832,0,0,1,167.549,169.846Z" fill="#f5f5f5"/><path d="M167.549,200.5l1.954,5.86,6.177.047a.832.832,0,0,1,.488,1.5l-4.969,3.67,1.864,5.889a.832.832,0,0,1-1.278.928L166.76,214.8l-5.025,3.592a.833.833,0,0,1-1.278-.928l1.864-5.889-4.969-3.67a.832.832,0,0,1,.488-1.5l6.177-.047,1.954-5.86A.831.831,0,0,1,167.549,200.5Z" fill="#f5f5f5"/><path d="M167.549,231.155l1.954,5.86,6.177.047a.832.832,0,0,1,.488,1.5l-4.969,3.67,1.864,5.889a.832.832,0,0,1-1.278.928l-5.025-3.592-5.025,3.592a.833.833,0,0,1-1.278-.928l1.864-5.889-4.969-3.67a.832.832,0,0,1,.488-1.5l6.177-.047,1.954-5.86A.831.831,0,0,1,167.549,231.155Z" fill="#f5f5f5"/><path d="M191.342,123.567l1.954,5.86,6.177.047a.832.832,0,0,1,.488,1.5l-4.969,3.67,1.864,5.889a.832.832,0,0,1-1.278.928l-5.025-3.592-5.025,3.592a.833.833,0,0,1-1.278-.928l1.864-5.889-4.969-3.67a.832.832,0,0,1,.488-1.5l6.177-.047,1.954-5.86A.832.832,0,0,1,191.342,123.567Z" fill="#f5f5f5"/><path d="M191.342,154.222l1.954,5.86,6.177.047a.832.832,0,0,1,.488,1.5l-4.969,3.67,1.864,5.889a.832.832,0,0,1-1.278.928l-5.025-3.592-5.025,3.592a.833.833,0,0,1-1.278-.928l1.864-5.889-4.969-3.67a.832.832,0,0,1,.488-1.5l6.177-.047,1.954-5.86A.831.831,0,0,1,191.342,154.222Z" fill="#f5f5f5"/><path d="M191.342,184.876l1.954,5.86,6.177.047a.832.832,0,0,1,.488,1.5l-4.969,3.67,1.864,5.889a.832.832,0,0,1-1.278.928l-5.025-3.592-5.025,3.592a.833.833,0,0,1-1.278-.928l1.864-5.889-4.969-3.67a.832.832,0,0,1,.488-1.5l6.177-.047,1.954-5.86A.831.831,0,0,1,191.342,184.876Z" fill="#f5f5f5"/><path d="M191.342,215.53l1.954,5.86,6.177.047a.832.832,0,0,1,.488,1.5l-4.969,3.67,1.864,5.889a.832.832,0,0,1-1.278.928l-5.025-3.592-5.025,3.592a.833.833,0,0,1-1.278-.928l1.864-5.889-4.969-3.67a.832.832,0,0,1,.488-1.5l6.177-.047,1.954-5.86A.832.832,0,0,1,191.342,215.53Z" fill="#f5f5f5"/><path d="M215.136,108.538l1.954,5.86,6.177.047a.832.832,0,0,1,.488,1.5l-4.969,3.67,1.864,5.889a.832.832,0,0,1-1.278.928l-5.025-3.592-5.025,3.592a.833.833,0,0,1-1.278-.928l1.864-5.889-4.969-3.67a.832.832,0,0,1,.488-1.5l6.177-.047,1.954-5.86A.831.831,0,0,1,215.136,108.538Z" fill="#f5f5f5"/><path d="M215.136,139.192l1.954,5.86,6.177.047a.832.832,0,0,1,.488,1.5l-4.969,3.67,1.864,5.889a.832.832,0,0,1-1.278.928l-5.025-3.592-5.025,3.592a.833.833,0,0,1-1.278-.928l1.864-5.889-4.969-3.67a.832.832,0,0,1,.488-1.5l6.177-.047,1.954-5.86A.832.832,0,0,1,215.136,139.192Z" fill="#f5f5f5"/><path d="M215.136,169.846l1.954,5.86,6.177.047a.832.832,0,0,1,.488,1.5l-4.969,3.67,1.864,5.889a.832.832,0,0,1-1.278.928l-5.025-3.592-5.025,3.592a.833.833,0,0,1-1.278-.928l1.864-5.889-4.969-3.67a.832.832,0,0,1,.488-1.5l6.177-.047,1.954-5.86A.832.832,0,0,1,215.136,169.846Z" fill="#f5f5f5"/><path d="M215.136,200.5l1.954,5.86,6.177.047a.832.832,0,0,1,.488,1.5l-4.969,3.67,1.864,5.889a.832.832,0,0,1-1.278.928l-5.025-3.592-5.025,3.592a.833.833,0,0,1-1.278-.928l1.864-5.889-4.969-3.67a.832.832,0,0,1,.488-1.5l6.177-.047,1.954-5.86A.831.831,0,0,1,215.136,200.5Z" fill="#f5f5f5"/><path d="M215.136,231.155l1.954,5.86,6.177.047a.832.832,0,0,1,.488,1.5l-4.969,3.67,1.864,5.889a.832.832,0,0,1-1.278.928l-5.025-3.592-5.025,3.592a.833.833,0,0,1-1.278-.928l1.864-5.889-4.969-3.67a.832.832,0,0,1,.488-1.5l6.177-.047,1.954-5.86A.831.831,0,0,1,215.136,231.155Z" fill="#f5f5f5"/></g></svg>