<svg xmlns="http://www.w3.org/2000/svg" width="512" height="335.449" viewBox="0 0 512 335.449"><g transform="translate(0 -88.276)"><path d="M503.172,423.725H8.828A8.829,8.829,0,0,1,0,414.9V97.1a8.829,8.829,0,0,1,8.828-8.828H503.173A8.829,8.829,0,0,1,512,97.1V414.9A8.83,8.83,0,0,1,503.172,423.725Z" fill="#41479b"/><path d="M512,97.1a8.829,8.829,0,0,0-8.828-8.828H463.677L300.137,195.423V88.276H211.861V195.423L48.322,88.276H8.828A8.829,8.829,0,0,0,0,97.1v22.831l140.309,91.927H0v88.276H140.309L0,392.066V414.9a8.829,8.829,0,0,0,8.828,8.828H48.323l163.54-107.147V423.725h88.276V316.578l163.54,107.147h39.495A8.829,8.829,0,0,0,512,414.9V392.066L371.693,300.139H512V211.863H371.691L512,119.935Z" fill="#f5f5f5"/><path d="M512,229.518H282.483V88.276H229.517V229.518H0v52.965H229.517V423.725h52.966V282.483H512Z" fill="#ff4b55"/><path d="M178.948,300.138l-178.7,116a8.718,8.718,0,0,0,8.577,7.59H20.986l190.39-123.586H178.948Z" fill="#ff4b55"/><path d="M346.388,300.138H313.96l190.113,123.4A8.742,8.742,0,0,0,512,414.9v-7.258Z" fill="#ff4b55"/><path d="M0,106.849,161.779,211.863h32.428L5.143,89.137A8.792,8.792,0,0,0,0,97.1Z" fill="#ff4b55"/><path d="M332.566,211.863,511.693,95.586a8.708,8.708,0,0,0-8.521-7.309H490.525L300.138,211.863Z" fill="#ff4b55"/></g></svg>