<svg xmlns="http://www.w3.org/2000/svg" width="511.906" height="335.4" viewBox="0 0 511.906 335.4"><path d="M503.1,88.3H8.8A8.813,8.813,0,0,0,0,97.1V414.9a8.813,8.813,0,0,0,8.8,8.8H503.2a8.665,8.665,0,0,0,8.7-8.8V97.1A8.813,8.813,0,0,0,503.1,88.3ZM254,369.3a30.4,30.4,0,1,1,30.4-30.4A30.387,30.387,0,0,1,254,369.3Zm25.9-90v17.2H227.8V271.9c0-28.5,44.7-44.7,44.7-61.5,0-11.7-11-19.1-20.7-19.1-12,0-22,10.7-31.7,23l-32.7-30.4c19.4-25.6,42.4-41.1,70.6-41.1,37.2,0,66.7,26.2,66.7,68h0C324.6,250.8,279.9,260.9,279.9,279.3Z" transform="translate(0 -88.3)" fill="#9e9e9e"/></svg>