<svg xmlns="http://www.w3.org/2000/svg" width="512" height="335.448" viewBox="0 0 512 335.448"><g transform="translate(0 -88.276)"><path d="M503.172,88.276H8.828A8.828,8.828,0,0,0,0,97.1V414.9a8.829,8.829,0,0,0,8.828,8.828H503.173A8.829,8.829,0,0,0,512,414.9V97.1A8.829,8.829,0,0,0,503.172,88.276Z" fill="#f5f5f5"/><rect width="326.62" height="37.27" transform="translate(185.38 125.55)" fill="#4173cd"/><rect width="512" height="37.27" transform="translate(0 162.82)" fill="#f5f5f5"/><rect width="326.62" height="37.27" transform="translate(185.38 200.09)" fill="#4173cd"/><rect width="512" height="37.27" transform="translate(0 237.36)" fill="#f5f5f5"/><rect width="512" height="37.27" transform="translate(0 274.641)" fill="#4173cd"/><rect width="512" height="37.27" transform="translate(0 311.91)" fill="#f5f5f5"/><rect width="512" height="37.27" transform="translate(0 349.18)" fill="#4173cd"/><path d="M63.976,111.642l14.767,68.333L101.85,170.4Z" fill="#ffe15a"/><path d="M63.976,111.642,90.3,175.189l-11.553,4.786Z" fill="#ffcd5a"/><path d="M121.4,250.289l-14.768-68.333-23.107,9.572Z" fill="#ffe15a"/><path d="M121.4,250.289,95.083,186.742l11.553-4.786Z" fill="#ffcd5a"/><path d="M162.013,152.252,93.681,167.019l9.571,23.107Z" fill="#ffe15a"/><path d="M162.013,152.252l-63.547,26.32-4.785-11.553Z" fill="#ffcd5a"/><path d="M23.367,209.679,91.7,194.912,82.127,171.8Z" fill="#ffe15a"/><path d="M23.367,209.679l63.546-26.32L91.7,194.912Z" fill="#ffcd5a"/><path d="M121.4,111.642,83.529,170.4l23.107,9.572Z" fill="#ffe15a"/><path d="M121.4,111.642,95.083,175.189,83.529,170.4Z" fill="#ffcd5a"/><path d="M63.976,250.289l37.874-58.761-23.107-9.572Z" fill="#ffe15a"/><path d="M63.976,250.289,90.3,186.742l11.554,4.786Z" fill="#ffcd5a"/><path d="M162.013,209.679,103.252,171.8l-9.571,23.107Z" fill="#ffe15a"/><path d="M162.013,209.679l-63.547-26.32,4.786-11.554Z" fill="#ffcd5a"/><path d="M23.367,152.252l58.76,37.874L91.7,167.019Z" fill="#ffe15a"/><path d="M23.367,152.252l63.546,26.32-4.786,11.554Z" fill="#ffcd5a"/><path d="M92.69,105.931,80.184,174.712h25.011Z" fill="#ffe15a"/><path d="M92.69,105.931v68.781H80.184Z" fill="#ffcd5a"/><path d="M92.69,256l12.5-68.781H80.184Z" fill="#ffe15a"/><path d="M92.69,256V187.219h12.5Z" fill="#ffcd5a"/><path d="M167.724,180.966,98.943,168.46v25.011Z" fill="#ffe15a"/><path d="M167.724,180.966H98.943V168.46Z" fill="#ffcd5a"/><path d="M17.655,180.966l68.781,12.5V168.46Z" fill="#ffe15a"/><path d="M17.655,180.966H86.436v12.5Z" fill="#ffcd5a"/><path d="M145.747,127.908,88.268,167.7l17.686,17.686Z" fill="#ffe15a"/><path d="M145.747,127.908,97.111,176.544,88.268,167.7Z" fill="#ffcd5a"/><path d="M39.633,234.023,97.111,194.23,79.425,176.544Z" fill="#ffe15a"/><path d="M39.633,234.023l48.635-48.636,8.843,8.843Z" fill="#ffcd5a"/><path d="M145.747,234.023l-39.793-57.479L88.268,194.23Z" fill="#ffe15a"/><path d="M145.747,234.023,97.111,185.387l8.843-8.843Z" fill="#ffcd5a"/><path d="M39.633,127.908l39.792,57.479L97.111,167.7Z" fill="#ffe15a"/><path d="M39.633,127.908l48.635,48.636-8.843,8.843Z" fill="#ffcd5a"/><circle cx="25.01" cy="25.01" r="25.01" transform="translate(67.68 155.96)" fill="#ffe15a"/></g></svg>