<svg xmlns="http://www.w3.org/2000/svg" width="512" height="335.448" viewBox="0 0 512 335.448"><g transform="translate(0 -88.276)"><path d="M503.172,423.724H8.828A8.829,8.829,0,0,1,0,414.9V97.1a8.829,8.829,0,0,1,8.828-8.828H503.173A8.829,8.829,0,0,1,512,97.1V414.9A8.83,8.83,0,0,1,503.172,423.724Z" fill="#f5f5f5"/><path d="M399.057,290.007l3.222,11.3,11.2-33.276-31.057,16.375,11.673,1.373-37.274,43.8-.323-.928,29.77-61.643,5.97,10.125,2.436-35.025L368.753,265.79l11.641-1.618-29.77,61.643-.929.323,11.13-56.424L369.157,278l-6.485-34.5-19.1,29.459,10.856-4.505-12,60.84-3.917,8.113-4.221,2.83-1.737,8.8-14.761,17.345,11.524-.928-2.091,10.6,4.076-2.732.394,4.89,7-8.227,6.438,9.6,4.407-22.345,5.815-6.832-.408-5.066,3.918-8.112Z" fill="#4173cd"/><path d="M130.918,256.929c1.266-5.692.481-11.025-1.687-14.308-3.357,2.056-6.327,6.553-7.593,12.245a23.775,23.775,0,0,0-.463,7.486l-6.969-10.391A20.2,20.2,0,0,0,120.6,240.7c1.266-5.692.481-11.025-1.687-14.308-3.357,2.056-6.327,6.553-7.593,12.245a23.292,23.292,0,0,0-.343,8.505l-4.712-7.025a20.559,20.559,0,0,0-3.489-12.041c-3.129-4.92-7.455-8.136-11.31-8.925-.919,3.827.16,9.108,3.289,14.027a20.448,20.448,0,0,0,9.537,8.3l4.318,7.168a23.288,23.288,0,0,0-7.85-3.295c-5.692-1.266-11.025-.481-14.308,1.687C88.5,250.4,93,253.368,98.693,254.634A20.193,20.193,0,0,0,111.6,253.62l6.457,10.718a23.814,23.814,0,0,0-6.978-2.754c-5.692-1.266-11.025-.481-14.308,1.687,2.056,3.356,6.553,6.327,12.245,7.593a20.561,20.561,0,0,0,12.485-.811l5.945,9.868a23.9,23.9,0,0,0-6.2-2.358c-5.692-1.266-11.025-.481-14.308,1.687,2.056,3.356,6.553,6.327,12.245,7.593a20.993,20.993,0,0,0,12.068-.61l5.734,9.517a24.126,24.126,0,0,0-5.415-1.956c-5.692-1.266-11.025-.481-14.308,1.687,2.056,3.356,6.553,6.327,12.245,7.593a21.48,21.48,0,0,0,11.645-.407l5.223,8.668a24.752,24.752,0,0,0-4.639-1.561c-5.692-1.266-11.025-.481-14.308,1.687,2.056,3.356,6.553,6.327,12.245,7.593a21.767,21.767,0,0,0,11.193-.265l16.588,27.533,7.045-4.482-17.907-26.7a21.779,21.779,0,0,0,4.984-10.026c1.266-5.692.481-11.025-1.687-14.308-3.357,2.056-6.327,6.553-7.593,12.244a24.693,24.693,0,0,0-.553,4.862l-5.636-8.4a21.479,21.479,0,0,0,5.3-10.375c1.266-5.692.481-11.025-1.687-14.308-3.357,2.056-6.327,6.553-7.593,12.245a24.164,24.164,0,0,0-.523,5.732l-6.188-9.226a21,21,0,0,0,5.668-10.671c1.266-5.692.481-11.025-1.687-14.308-3.357,2.056-6.327,6.553-7.593,12.245a23.943,23.943,0,0,0-.493,6.615L124.9,267.9A20.621,20.621,0,0,0,130.918,256.929Z" fill="#73af00"/><path d="M203.034,256l-8.828-52.965H192.84A11.741,11.741,0,0,1,181.7,187.581l.029-.085a11.74,11.74,0,0,0-7.231-14.784L53.293,129.934a8.364,8.364,0,0,0-10.471,11.181l13.144,30.669a44.146,44.146,0,0,0,18.67,20.936l33.623,19.213a66.474,66.474,0,0,0,32.979,8.758h0l3.016,6.031A52.969,52.969,0,0,0,191.631,256Z" fill="#ffe15a"/><path d="M308.965,256l8.828-52.965h1.366A11.741,11.741,0,0,0,330.3,187.581l-.029-.085a11.74,11.74,0,0,1,7.231-14.784L458.657,129.95a8.386,8.386,0,0,1,10.5,11.212l-13.123,30.621a44.146,44.146,0,0,1-18.67,20.936L403.74,211.932a66.474,66.474,0,0,1-32.979,8.758h0l-3.016,6.031A52.964,52.964,0,0,1,320.369,256Z" fill="#ffe15a"/><path d="M291.31,194.207l-21.9-51.093a17.654,17.654,0,0,0-16.227-10.7h-6.014l-8.828,8.828h-8.828l-8.828,8.828h12.319a4.351,4.351,0,0,1,4,6.065l-16.318,38.073H291.31Z" fill="#ffe15a"/><path d="M229.517,282.483,211.862,256l-16.168,16.168a61.789,61.789,0,0,0-14.927,24.153l-4.215,12.644-8.828,8.828H156.25a10,10,0,0,0-8.946,5.528l-2.489,4.979a4.938,4.938,0,0,0,4.417,7.147h18.492l5.886-11.77,28.143-14.072a8.837,8.837,0,0,0,2.294-1.654Z" fill="#ffe15a"/><path d="M282.482,282.483,300.137,256,316.3,272.168a61.789,61.789,0,0,1,14.927,24.153l4.215,12.644,8.828,8.828h11.474a10,10,0,0,1,8.946,5.528l2.489,4.979a4.938,4.938,0,0,1-4.417,7.147H344.275l-5.885-11.77-28.143-14.072a8.837,8.837,0,0,1-2.294-1.654Z" fill="#ffe15a"/><path d="M229.517,291.31l-21.454,35.756a11.412,11.412,0,0,0,2.479,14.638l32.579,27.149a20.112,20.112,0,0,0,25.754,0L301.454,341.7a11.41,11.41,0,0,0,2.479-14.638L282.481,291.31Z" fill="#ffe15a"/><path d="M256,185.379s-26.483,8.828-61.793,0v35.31c0,17.655,8.828,70.621,61.793,88.276,52.965-17.655,61.793-70.621,61.793-88.276v-35.31C282.482,194.207,256,185.379,256,185.379Z" fill="#f5f5f5"/><path d="M256,185.379s-26.483,8.828-61.793,0v35.31H317.792v-35.31C282.482,194.207,256,185.379,256,185.379Z" fill="#41479b"/><path d="M212.664,277.163V220.69h-9.63v39.294A95.225,95.225,0,0,0,212.664,277.163Z" fill="#ff4b55"/><path d="M231.924,220.69h-9.63v67.758a82.648,82.648,0,0,0,9.63,8.2Z" fill="#ff4b55"/><path d="M299.335,277.163a95.269,95.269,0,0,0,9.63-17.18V220.69h-9.63Z" fill="#ff4b55"/><path d="M251.184,220.69h-9.63v81.932a89.994,89.994,0,0,0,9.63,4.449Z" fill="#ff4b55"/><path d="M289.7,220.69h-9.63v75.958a82.73,82.73,0,0,0,9.63-8.2Z" fill="#ff4b55"/><path d="M270.445,302.622V220.69h-9.63v86.381A90,90,0,0,0,270.445,302.622Z" fill="#ff4b55"/><path d="M163.184,324.98l-6.268,3.857,10.532,17.483,7.045-4.481Z" fill="#73af00"/><path d="M358.641,337.7,353.1,326.621H342.955l-.526,2.671-3.918,8.113-4.221,2.83-1.737,8.8-14.761,17.345,11.524-.928-2.091,10.6,4.076-2.732.394,4.89,7-8.227,6.438,9.6,4.407-22.345,5.815-6.832-.408-5.066Z" fill="#4173cd"/><path d="M84.493,220.69h-22.7L63.83,226.8,50.443,273.655,37.056,226.8l2.038-6.112h-22.7l6.112,8.149,18.625,65.188-2.037,6.111h22.7l-2.037-6.111,18.625-65.188Z" fill="#4173cd"/><path d="M469.122,226.365l3.784-5.675h-22.7l3.784,5.675v68.1l-3.784,5.674h22.7l-3.784-5.674Z" fill="#4173cd"/></g></svg>