<svg xmlns="http://www.w3.org/2000/svg" width="512" height="335.449" viewBox="0 0 512 335.449"><g transform="translate(0 -88.276)"><path d="M512,200.093H0V97.1a8.829,8.829,0,0,1,8.828-8.828H503.173A8.829,8.829,0,0,1,512,97.1V200.093Z" fill="#82afff"/><path d="M503.172,423.725H8.828A8.829,8.829,0,0,1,0,414.9V311.909H512V414.9A8.828,8.828,0,0,1,503.172,423.725Z" fill="#73af00"/><rect width="512" height="111.81" transform="translate(0 200.091)" fill="#f5f5f5"/><rect width="512" height="13.942" transform="translate(0 190.161)" fill="#ff4b55"/><rect width="512" height="13.942" transform="translate(0 307.891)" fill="#ff4b55"/><path d="M113.491,172.072a32.687,32.687,0,1,1,0-65.374h.206a1.011,1.011,0,0,0,.5-1.9,38.783,38.783,0,0,0-18.668-4.622,39.211,39.211,0,0,0,.283,78.421,38.9,38.9,0,0,0,18.417-4.627,1.011,1.011,0,0,0-.5-1.9C113.645,172.072,113.568,172.072,113.491,172.072Z" fill="#f5f5f5"/><path d="M139.113,163.051l-1.461,4.382-4.619.035a.622.622,0,0,0-.365,1.123l3.716,2.744-1.394,4.4a.623.623,0,0,0,.956.694l3.758-2.686,3.758,2.686a.623.623,0,0,0,.956-.694l-1.394-4.4,3.715-2.744a.622.622,0,0,0-.365-1.123l-4.619-.035-1.461-4.382A.623.623,0,0,0,139.113,163.051Z" fill="#f5f5f5"/><path d="M171.656,163.051l-1.461,4.382-4.619.035a.622.622,0,0,0-.365,1.123l3.715,2.744-1.394,4.4a.623.623,0,0,0,.956.694l3.758-2.686L176,176.433a.623.623,0,0,0,.956-.694l-1.394-4.4,3.715-2.744a.622.622,0,0,0-.365-1.123l-4.619-.035-1.461-4.382A.622.622,0,0,0,171.656,163.051Z" fill="#f5f5f5"/><path d="M204.2,163.051l-1.461,4.382-4.619.035a.622.622,0,0,0-.365,1.123l3.716,2.744-1.394,4.4a.623.623,0,0,0,.956.694l3.758-2.686,3.758,2.686a.623.623,0,0,0,.956-.694l-1.394-4.4,3.715-2.744a.622.622,0,0,0-.365-1.123l-4.619-.035-1.461-4.382A.623.623,0,0,0,204.2,163.051Z" fill="#f5f5f5"/><path d="M236.74,163.051l-1.461,4.382-4.619.035a.622.622,0,0,0-.365,1.123l3.715,2.744-1.394,4.4a.623.623,0,0,0,.956.694l3.758-2.686,3.758,2.686a.623.623,0,0,0,.956-.694l-1.394-4.4,3.715-2.744a.622.622,0,0,0-.365-1.123l-4.619-.035-1.461-4.382A.622.622,0,0,0,236.74,163.051Z" fill="#f5f5f5"/><path d="M269.283,163.051l-1.461,4.382-4.619.035a.622.622,0,0,0-.365,1.123l3.716,2.744-1.394,4.4a.623.623,0,0,0,.956.694l3.758-2.686,3.758,2.686a.623.623,0,0,0,.956-.694l-1.394-4.4,3.716-2.744a.622.622,0,0,0-.365-1.123l-4.619-.035-1.461-4.382A.623.623,0,0,0,269.283,163.051Z" fill="#f5f5f5"/><path d="M171.656,132.679l-1.461,4.382-4.619.035a.622.622,0,0,0-.365,1.123l3.715,2.744-1.394,4.4a.623.623,0,0,0,.956.694l3.758-2.686L176,146.061a.623.623,0,0,0,.956-.694l-1.394-4.4,3.715-2.744a.622.622,0,0,0-.365-1.123l-4.619-.035-1.461-4.382A.621.621,0,0,0,171.656,132.679Z" fill="#f5f5f5"/><path d="M204.2,132.679l-1.461,4.382-4.619.035a.622.622,0,0,0-.365,1.123l3.716,2.744-1.394,4.4a.623.623,0,0,0,.956.694l3.758-2.686,3.758,2.686a.623.623,0,0,0,.956-.694l-1.394-4.4,3.715-2.744a.622.622,0,0,0-.365-1.123l-4.619-.035-1.461-4.382A.622.622,0,0,0,204.2,132.679Z" fill="#f5f5f5"/><path d="M236.74,132.679l-1.461,4.382-4.619.035a.622.622,0,0,0-.365,1.123l3.715,2.744-1.394,4.4a.623.623,0,0,0,.956.694l3.758-2.686,3.758,2.686a.623.623,0,0,0,.956-.694l-1.394-4.4,3.715-2.744A.622.622,0,0,0,244,137.1l-4.619-.035-1.461-4.382A.621.621,0,0,0,236.74,132.679Z" fill="#f5f5f5"/><path d="M269.283,132.679l-1.461,4.382-4.619.035a.622.622,0,0,0-.365,1.123l3.716,2.744-1.394,4.4a.623.623,0,0,0,.956.694l3.758-2.686,3.758,2.686a.623.623,0,0,0,.956-.694l-1.394-4.4,3.716-2.744a.622.622,0,0,0-.365-1.123l-4.619-.035-1.461-4.382A.623.623,0,0,0,269.283,132.679Z" fill="#f5f5f5"/><path d="M204.2,163.051l-1.461,4.382-4.619.035a.622.622,0,0,0-.365,1.123l3.716,2.744-1.394,4.4a.623.623,0,0,0,.956.694l3.758-2.686,3.758,2.686a.623.623,0,0,0,.956-.694l-1.394-4.4,3.715-2.744a.622.622,0,0,0-.365-1.123l-4.619-.035-1.461-4.382A.623.623,0,0,0,204.2,163.051Z" fill="#f5f5f5"/><path d="M204.2,102.305l-1.461,4.382-4.619.035a.622.622,0,0,0-.365,1.123l3.716,2.744-1.394,4.4a.623.623,0,0,0,.956.694L204.789,113l3.758,2.686a.623.623,0,0,0,.956-.694l-1.394-4.4,3.715-2.744a.622.622,0,0,0-.365-1.123l-4.619-.035-1.461-4.382A.623.623,0,0,0,204.2,102.305Z" fill="#f5f5f5"/><path d="M236.74,163.051l-1.461,4.382-4.619.035a.622.622,0,0,0-.365,1.123l3.715,2.744-1.394,4.4a.623.623,0,0,0,.956.694l3.758-2.686,3.758,2.686a.623.623,0,0,0,.956-.694l-1.394-4.4,3.715-2.744a.622.622,0,0,0-.365-1.123l-4.619-.035-1.461-4.382A.622.622,0,0,0,236.74,163.051Z" fill="#f5f5f5"/><path d="M269.283,163.051l-1.461,4.382-4.619.035a.622.622,0,0,0-.365,1.123l3.716,2.744-1.394,4.4a.623.623,0,0,0,.956.694l3.758-2.686,3.758,2.686a.623.623,0,0,0,.956-.694l-1.394-4.4,3.716-2.744a.622.622,0,0,0-.365-1.123l-4.619-.035-1.461-4.382A.623.623,0,0,0,269.283,163.051Z" fill="#f5f5f5"/><path d="M236.74,102.305l-1.461,4.382-4.619.035a.622.622,0,0,0-.365,1.123l3.715,2.744-1.394,4.4a.623.623,0,0,0,.956.694L237.33,113l3.758,2.686a.623.623,0,0,0,.956-.694l-1.394-4.4,3.715-2.744a.622.622,0,0,0-.365-1.123l-4.619-.035L237.92,102.3A.622.622,0,0,0,236.74,102.305Z" fill="#f5f5f5"/><path d="M269.283,102.305l-1.461,4.382-4.619.035a.622.622,0,0,0-.365,1.123l3.716,2.744-1.394,4.4a.623.623,0,0,0,.956.694L269.874,113l3.758,2.686a.623.623,0,0,0,.956-.694l-1.394-4.4,3.716-2.744a.622.622,0,0,0-.365-1.123l-4.619-.035-1.461-4.382A.623.623,0,0,0,269.283,102.305Z" fill="#f5f5f5"/></g></svg>