<svg xmlns="http://www.w3.org/2000/svg" width="512" height="335.448" viewBox="0 0 512 335.448"><g transform="translate(0 -88.276)"><path d="M503.172,423.724H8.828A8.829,8.829,0,0,1,0,414.9V97.1a8.829,8.829,0,0,1,8.828-8.828H503.173A8.829,8.829,0,0,1,512,97.1V414.9A8.83,8.83,0,0,1,503.172,423.724Z" fill="#464655"/><path d="M512,247.172H249.444L0,109.545v20.169L228.9,256,0,382.286v20.17L249.444,264.828H512Z" fill="#ffe15a"/><path d="M3.531,421.776a8.639,8.639,0,0,0,5.3,1.948H503.173A8.829,8.829,0,0,0,512,414.9V282.483H256Z" fill="#73af00"/><path d="M503.172,88.276H8.828a8.638,8.638,0,0,0-5.3,1.949L256,229.517H512V97.1A8.826,8.826,0,0,0,503.172,88.276Z" fill="#ff4b55"/><path d="M76.452,206.487c-25.205-7.929-44.234,10.386-48.583,19.812-3.683,7.987-10.525,44.167,23.581,49.936s33.72-26.412,33.72-26.412c-1.538,5.129-4.3,19.745-28.914,19.745-9.234,0-22.5-13.719-20-28.848,2.353-14.236,15.07-21.518,24.682-21.924,9.1-.384,30.322,5.9,30.322,31.734,0,29.039-29.93,32.31-29.93,32.31v17.535c26.053-2.554,40.8-16.986,44.7-40.1C109.916,237.259,102.08,214.55,76.452,206.487Z" fill="#ffe15a"/><path d="M48.544,249.549a4.4,4.4,0,0,0-.927,2.655l-.074,4.716-.918,1.6a1.214,1.214,0,1,0,2.107,1.206l.941-1.646,3.766-1.364a4.462,4.462,0,0,0,2.554-2.378,48.846,48.846,0,0,1,6.521-10.44,48.846,48.846,0,0,1,6.521,10.44,4.461,4.461,0,0,0,2.553,2.378l3.767,1.364.941,1.646a1.214,1.214,0,1,0,2.107-1.206l-.918-1.6-.074-4.716a4.4,4.4,0,0,0-.927-2.655,67.509,67.509,0,0,0-9.818-9.945,37.687,37.687,0,0,1,9.394-6.686,2.079,2.079,0,0,0-1.81-3.744,73.1,73.1,0,0,0-11.737,7.047,73.377,73.377,0,0,0-11.737-7.047,2.08,2.08,0,0,0-1.811,3.744,37.7,37.7,0,0,1,9.4,6.686A67.651,67.651,0,0,0,48.544,249.549Z" fill="#ffe15a"/></g></svg>