<svg xmlns="http://www.w3.org/2000/svg" width="512" height="335.449" viewBox="0 0 512 335.449"><g transform="translate(0 -88.276)"><path d="M512,200.093H0V97.1a8.829,8.829,0,0,1,8.828-8.828H503.173A8.829,8.829,0,0,1,512,97.1V200.093Z" fill="#ffe15a"/><path d="M503.172,423.725H8.828A8.829,8.829,0,0,1,0,414.9V311.909H512V414.9A8.828,8.828,0,0,1,503.172,423.725Z" fill="#ff4b55"/><rect width="512" height="111.81" transform="translate(0 200.091)" fill="#41479b"/><path d="M178.14,277.5l2.212,6.633,6.991.054a.942.942,0,0,1,.553,1.7l-5.624,4.153,2.109,6.667a.942.942,0,0,1-1.447,1.05l-5.688-4.066-5.688,4.066a.943.943,0,0,1-1.447-1.05l2.109-6.667-5.624-4.153a.942.942,0,0,1,.553-1.7l6.991-.054,2.212-6.633A.943.943,0,0,1,178.14,277.5Z" fill="#f5f5f5"/><path d="M191.723,256.383l-1.185,6.891,6.136,3.352a.942.942,0,0,1-.317,1.759l-6.92,1-1.292,6.871a.942.942,0,0,1-1.771.243l-3.091-6.272-6.935.895a.942.942,0,0,1-.778-1.61l5.01-4.878-2.994-6.318a.942.942,0,0,1,1.29-1.237l6.187,3.257,5.085-4.8A.942.942,0,0,1,191.723,256.383Z" fill="#f5f5f5"/><path d="M208.913,237.9l-3.282,6.174,4.779,5.1a.941.941,0,0,1-.851,1.571l-6.887-1.213-3.377,6.123a.942.942,0,0,1-1.758-.323l-.974-6.924-6.867-1.32a.942.942,0,0,1-.235-1.772l6.284-3.066-.867-6.938a.942.942,0,0,1,1.612-.771l4.858,5.028,6.33-2.968A.944.944,0,0,1,208.913,237.9Z" fill="#f5f5f5"/><path d="M229.6,226.437l-4.824,5.062L228,237.7a.942.942,0,0,1-1.244,1.284l-6.3-3.025-4.9,4.986a.943.943,0,0,1-1.606-.786l.928-6.931-6.257-3.122a.942.942,0,0,1,.25-1.77l6.878-1.259,1.035-6.915a.942.942,0,0,1,1.761-.308l3.322,6.152,6.9-1.152A.944.944,0,0,1,229.6,226.437Z" fill="#f5f5f5"/><path d="M253.374,221.124l-6,3.584,1.448,6.84a.942.942,0,0,1-1.542.9l-5.263-4.6-6.059,3.49a.942.942,0,0,1-1.336-1.187l2.751-6.429-5.192-4.683a.942.942,0,0,1,.716-1.637l6.964.629,2.85-6.385a.942.942,0,0,1,1.779.174l1.554,6.817,6.953.737A.943.943,0,0,1,253.374,221.124Z" fill="#f5f5f5"/><path d="M333.86,277.5l-2.212,6.633-6.991.054a.942.942,0,0,0-.553,1.7l5.624,4.153-2.109,6.667a.942.942,0,0,0,1.447,1.05l5.688-4.066,5.688,4.066a.943.943,0,0,0,1.447-1.05l-2.109-6.667,5.624-4.153a.942.942,0,0,0-.553-1.7l-6.991-.054-2.212-6.633A.943.943,0,0,0,333.86,277.5Z" fill="#f5f5f5"/><path d="M320.277,256.383l1.185,6.891-6.136,3.352a.942.942,0,0,0,.317,1.759l6.92,1,1.292,6.871a.942.942,0,0,0,1.771.243l3.091-6.272,6.935.895a.942.942,0,0,0,.778-1.61l-5.01-4.878,2.994-6.318a.942.942,0,0,0-1.29-1.237l-6.187,3.257-5.085-4.8A.942.942,0,0,0,320.277,256.383Z" fill="#f5f5f5"/><path d="M303.087,237.9l3.282,6.174-4.779,5.1a.941.941,0,0,0,.851,1.571l6.887-1.213,3.377,6.123a.942.942,0,0,0,1.758-.323l.974-6.924,6.867-1.32a.942.942,0,0,0,.235-1.772l-6.284-3.066.867-6.938a.942.942,0,0,0-1.612-.771l-4.858,5.028-6.33-2.968A.944.944,0,0,0,303.087,237.9Z" fill="#f5f5f5"/><path d="M282.4,226.437l4.824,5.062L284,237.7a.942.942,0,0,0,1.244,1.284l6.3-3.025,4.9,4.986a.942.942,0,0,0,1.605-.786l-.928-6.931,6.257-3.122a.942.942,0,0,0-.25-1.77l-6.878-1.259-1.035-6.915a.942.942,0,0,0-1.761-.308l-3.322,6.152-6.9-1.152A.944.944,0,0,0,282.4,226.437Z" fill="#f5f5f5"/><path d="M258.626,221.124l6,3.584-1.448,6.84a.942.942,0,0,0,1.542.9l5.263-4.6,6.059,3.49a.942.942,0,0,0,1.336-1.187l-2.751-6.429,5.192-4.683a.942.942,0,0,0-.716-1.637l-6.964.629-2.85-6.385a.942.942,0,0,0-1.779.174l-1.554,6.817-6.953.737A.943.943,0,0,0,258.626,221.124Z" fill="#f5f5f5"/></g></svg>