<svg xmlns="http://www.w3.org/2000/svg" width="512" height="335.45" viewBox="0 0 512 335.45"><g transform="translate(0 -88.275)"><path d="M512,256H0V97.1a8.829,8.829,0,0,1,8.828-8.828H503.173A8.829,8.829,0,0,1,512,97.1V256Z" fill="#f5f5f5"/><path d="M0,256H512V414.9a8.829,8.829,0,0,1-8.828,8.828H8.828A8.829,8.829,0,0,1,0,414.9Z" fill="#73af00"/><path d="M389.491,186.436s6.1,16.737,6.625,17.609l.7-1.4L401,180.857l10.809-20.224-3.138.349-24.583,11.855s-14.645,16.04-14.819,16.563S389.491,186.436,389.491,186.436Z" fill="#ff4b55"/><path d="M398.151,346.486c-.813-.117-12.9.465-12.9.465L381.3,333.7l-2.266-25.047,4.271-1.133,5.318,2.528,1.918-10.025s-4.62-5.056-5.492-5.4-11.332-2.7-11.332-2.7L359.68,273.35l16.737-9.327,13.076-17.958,3.138-16.214-2.615-13.425-5.947-9.956-.156-.5a3.369,3.369,0,0,0-.282-.231l-1.112-1.862-.018,1.086c-2.579-1.611-7.858-4.413-9.223-5.1-1.743-.872-10.984-2.441-12.9-1.046S349.567,204.4,348,207.36s-2.615,13.6-2.615,13.6,2.615,5.928,5.928,7.322,9.763,2.964,10.809,2.615c.9-.3,11.137-3.325,13.929-4.6l1.239,2.505-.523,7.148-5.753,4.01-10.635,4.184s-16.214-4.533-16.911-4.359-20.747-5.928-20.747-5.928L303.89,229.5l6.276-3.138,17.086-1.22s3.313-19.352,3.836-19.7,11.681-9.24,11.681-9.24l9.24-2.266-5.579-23.654,8.369-25.8-21.852,6.276-34.636,8.6-22.083-1.4L256.7,164.236l-12.553,11.391-7.207,9.763-2.557,15.575-1.628,20.69-6.044,11.391-6.848,5.368c-.768-2.027-4.367-9.784-4.367-9.784l8.717-2.092-2.266-5.753-6.1-4.533,1.918-6.974,6.974,3.836,1.918,1.4,1.22-7.148L220.2,196.552l1.22-5.4,9.24,4.882-1.046-12.553-8.194-5.056.523-6.974,8.95,2.673-.93-6.625L220.2,160.4l9.53-15.342-11.623.582-.93-5-3.021-1.163s-16.157,6.858-17.319,6.625-14.063-1.975-15.575-1.626-6.858,1.743-6.858,1.743l-1.512,5.928-9.879-1.626-14.645-1.22-4.417,5.4,6.974,2.79s-1.626,12.32-1.162,13.25,4.649,6.974,4.649,6.974l-9.53,13.017,9.763,1.4,13.483-2.092-.466,3.255,17.9-1.86-3.953,2.092L176.5,208.873l-14.878,30.22-5.23,26.849-8.369-8.717-5.579-23.014-8.369-22.665s-1.743-6.974-2.79-7.148-5.579-1.046-5.579-1.046l-5.753,4.707-7.322-1.046-4.184,5.753,4.707,7.322s-7.846,3.138-7.846,4.01.523,5.928,1.046,6.1,12.378-.174,12.378-.174l7.148,12.727L120.3,257.4l2.79,5.579,4.882.7,4.533-5.23,15.691,46.9s-1.22,6.1-2.092,6.625-5.056,5.23-4.01,5.23,7.5.872,8.194.523,9.763-7.322,9.763-7.322,14.3-10.984,15.168-10.112,14.471,9.24,14.471,9.24l-6.276,21.619L168.6,352.765l-9.24-5.579-6.625-9.415-4.882,1.569-1.743,2.964.7,6.276s-5.056,4.01-5.056,4.882.523,7.148.523,7.148,3.313,1.569,3.487,2.441,1.918,7.148,1.918,7.148l3.487,1.22,6.625-4.01h10.984l6.8,1.046,14.471-4.533,21.1,1.046-1.918-4.01s-8.543-4.359-11.507-5.23-5.928-1.569-5.928-1.569l-1.22-6.1,20.747-24.583,7.671-1.569,2.615,6.451s8.6-2.092,8.6-2.79v-8.834c0-.7-1.86-6.508-1.86-6.508l-.062-.533,6.571-1.1,22.781-10.925,8.02,9.647,10,4.765L263.208,334.4l-10.693,7.207-7.671-3.487-10.694-7.9-4.184,2.558.93,7.9-6.276-.465-2.79,5.579,4.649,6.741-1.628,5.347s1.163,4.882,2.325,4.882,8.136-2.558,8.136-2.558l20.457-1.626,14.878-4.882,15.575,1.163s3.022-10.461,2.325-10.461a24.414,24.414,0,0,0-2.79-.233c-1.86,0-8.369.233-8.369.233l-.234-2.328,5.114-9.3,19.759-16.505,5.812,1.163,2.092,3.021,5.812-4.416-.233-7.439-5.113-5.346-5.115-6.045,1.628-9.066,8.833,4.184s13.948,9.763,15.109,10.229,28.128,7.438,28.128,7.438l5.579,13.25-2.79,20.921-8.6-2.557-8.136-10.461s-2.325-1.163-3.487-.93-3.951,4.882-3.951,4.882l2.79,6.509-3.72,1.162-3.487,2.325-.7,4.882,3.254,3.021v6.276a7.6,7.6,0,0,0,2.558,3.487,44.171,44.171,0,0,0,7.322.814c1.278-.117,10.809-4.068,10.809-4.068s17.9.349,18.365.233,15.924-3.487,15.924-3.487l8.717,1.395s5.812-4.417,5.579-5S398.964,346.6,398.151,346.486ZM364.734,220.608c-4.707.523-7.148,1.918-7.5-.7s-.349-7.846.174-8.02,5.928-3.313,6.1-2.79,5.579,3.138,5.579,3.138l3.292,6.653C370.647,219.815,367.968,220.248,364.734,220.608Z" fill="#ff4b55"/><path d="M127.1,177.894s1.918-9.938,2.441-9.938,7.671-2.615,7.671-2.615l-21.27-13.773s3.661,16.911,4.01,18.306S127.1,177.894,127.1,177.894Z" fill="#ff4b55"/><path d="M181.2,157.441c.074.017.5.111,1.146.239l-.16.7a2.086,2.086,0,0,0,1.569,2.506,1.958,1.958,0,0,0,.471.054,2.09,2.09,0,0,0,2.035-1.623l.224-.974a39.662,39.662,0,0,0,4.769.331,17.1,17.1,0,0,0,3.787-.36,2.091,2.091,0,0,0-.942-4.075c-3.31.779-9.763-.371-11.965-.872a2.091,2.091,0,1,0-.934,4.077Z" fill="#464655"/><path d="M388.332,191.217l5.272,16.1a2.094,2.094,0,0,0,1.988,1.439h.093a2.1,2.1,0,0,0,1.945-1.618c3.858-16.53,11.577-42.677,17.034-46.948a2.091,2.091,0,0,0-1.667-3.7c-1.117.207-27.582,5.362-45.995,32.979a2.094,2.094,0,0,0,.006,2.332,2.128,2.128,0,0,0,2.161.877L384.5,189.5a108.708,108.708,0,0,0-3.99,11.4c-6.982-4.249-14.856-5.005-20.317-3.591a22.936,22.936,0,0,0-14.376,10.9,15.728,15.728,0,0,0-1.615,12.226,18.591,18.591,0,0,0,11.366,11.779c4.146,1.408,10.845,1.72,19.677-3.746,0,.042.007.081.006.122-.06,3.487-1.849,6.33-5.325,8.461-6.909,4.233-19.022,4.516-27,.616-10.515-5.133-26.324-8.055-35.156-9.38,5.476-1.746,12.1-2.238,20.053-.415a1.722,1.722,0,0,0,.321-.007c.053,0,.094.062.148.062s.1-.062.161-.066a2.056,2.056,0,0,0,1.3-.527.092.092,0,0,0,.011-.019s.006,0,.006,0,.007-.024.014-.032a2.043,2.043,0,0,0,.529-1.274,1.817,1.817,0,0,0,.015-.312,2.012,2.012,0,0,0,.013-.279c-.024-.12-2.343-12,4.04-20.181,3.836-4.92,10.11-7.606,18.647-7.992a1.97,1.97,0,0,0,.374-.115,2.055,2.055,0,0,0,.536-.163,2.022,2.022,0,0,0,.386-.338,1.89,1.89,0,0,0,.323-.284.724.724,0,0,0,.036-.085c.014-.023.042-.033.056-.057a1.853,1.853,0,0,0,.06-.209,2.048,2.048,0,0,0,.182-.64,1.775,1.775,0,0,0,0-.309,2.019,2.019,0,0,0-.156-.676c-.022-.055-.011-.117-.039-.17-.169-.332-16.585-33.159,10.161-55.078a2.091,2.091,0,0,0-2.528-3.329c-26.408,18.54-62.906,20.54-77.372,20.54-25.8,0-42.1,9.715-49.838,29.694a40.188,40.188,0,0,0-1.85,7.174,15.894,15.894,0,0,0-2.086-9.647,14.714,14.714,0,0,0-7.66-6.044c0-.948-.007-1.887-.034-2.808,2.826-.435,6.18,1.759,7.286,2.69a2.106,2.106,0,0,0,1.356.5,2.067,2.067,0,0,0,.942-.228,2.091,2.091,0,0,0,1.144-2.01A17.861,17.861,0,0,0,222.5,159.6c3.992-3.172,8.247-8.363,10.854-16.829a2.095,2.095,0,0,0-3.016-2.446,60.759,60.759,0,0,1-10.732,4.247l.585-7.6a2.091,2.091,0,0,0-3.116-1.977,119.356,119.356,0,0,1-21.745,9.246c-8.246-2.073-18.978-3.687-23.047.551a6.4,6.4,0,0,0-1.667,5.241c-7.02-1.465-23.136-3.863-32.919,2.463a2.092,2.092,0,0,0,1.087,3.847c3.1.076,7.9.79,9.908,2.114-.883,2.381-2.343,7.426-1.068,12.291a17.391,17.391,0,0,1-14.119-1.511l4.723-1.159a2.091,2.091,0,0,0,.46-3.891,93.829,93.829,0,0,1-21.935-16.672,2.114,2.114,0,0,0-2.2-.534,2.089,2.089,0,0,0-1.4,1.771c-.085.839-1.86,20.632,13.171,32.369a2.118,2.118,0,0,0,1.289.441,2.1,2.1,0,0,0,2.086-1.929l.583-7.477c7.5,4.49,13.708,4.061,19.034,2.442a12.993,12.993,0,0,0,2.588,2.877,7.674,7.674,0,0,0,.647.455,17.887,17.887,0,0,1-10.511,10.159,2.1,2.1,0,0,0-.284,3.928,34.437,34.437,0,0,0,23.727.588l-.193,1.4a2.1,2.1,0,0,0,2.029,2.376c.052,0,.191.006.408.006a53.839,53.839,0,0,0,11.382-1.324c-.8,7.486-5.362,16.407-10.214,25.82-6.568,12.751-13.888,27.132-13.771,41.654a38.909,38.909,0,0,1-7.169-15.017c-.534-2.332-.888-4.424-1.209-6.336-.782-4.626-1.458-8.625-4.192-12.384-3.092-4.249-7.464-13.736-7.274-18.916a7.786,7.786,0,0,0-6.146-8.276c-.23-.047-.447.012-.675-.015a8.651,8.651,0,0,0-7.5-4.769,2.059,2.059,0,0,0-2.237,1.94A2.09,2.09,0,0,0,120.67,201a4.944,4.944,0,0,1,3.279,1.366,8.544,8.544,0,0,0-3.642,3.79,11.067,11.067,0,0,0-7.8-1.523,6.981,6.981,0,0,0-1.469.659,9.485,9.485,0,0,0-9.739.746,2.092,2.092,0,1,0,2.245,3.531,5.969,5.969,0,0,1,4.029-1.036,8.411,8.411,0,0,0-1.1,4.322,6.457,6.457,0,0,0,4.29,5.928,11.006,11.006,0,0,0-6.9,3.852,5.947,5.947,0,0,0-.423.977c-1.912.2-4.853,1.484-6.712,5.415a2.092,2.092,0,1,0,3.782,1.788,5.148,5.148,0,0,1,2.531-2.76c1.987,6.554,8.448,5.062,12.345,4.149l1.561-.354c2.185-.436,6.037,5.944,7.072,10.084.719,2.877-.512,6.4-4.392,12.553-2.356,3.748-1.678,6.462-.692,8.079.02.033.052.051.072.082a5.583,5.583,0,0,1-2.439.185,2.05,2.05,0,0,0-2.356,1.788,2.09,2.09,0,0,0,1.79,2.354,10.729,10.729,0,0,0,1.515.109,8.538,8.538,0,0,0,5.028-1.511,8.491,8.491,0,0,0,3.8.721c2.884-.239,4.839-2.767,6.159-5.906,3.849,21.222,12.694,40.928,14.231,44.252-.31,7.519-8.426,9.284-8.777,9.361a2.092,2.092,0,0,0-.376,3.983,24.6,24.6,0,0,0,9.3,2.022,16.65,16.65,0,0,0,14.029-7.562c6.112-2.129,13.277-7.113,16.074-9.152a58.474,58.474,0,0,0,9.836,6.038c-2.253,22.184-15.26,37.169-19.065,41.1-2.577-1.476-8.268-5.121-10.147-9.464-1.778-4.1-5.075-5.26-7.764-5.02-.9-1.166-2.93-3.342-5.772-3.655a6.82,6.82,0,0,0-5.672,2.266,2.094,2.094,0,0,0,2.958,2.964c1.182-1.182,1.986-1.111,2.248-1.074a4.075,4.075,0,0,1,2.2,1.269,6.123,6.123,0,0,0-2.317,5.105,8.969,8.969,0,0,0,1.368,3.927,11.222,11.222,0,0,0-4.569,4.152c-.043.074-.093.191-.138.273a8.324,8.324,0,0,0-7.694,7.742,2.091,2.091,0,0,0,1.828,2.326,2,2,0,0,0,.254.017,2.093,2.093,0,0,0,2.076-1.842,4.311,4.311,0,0,1,2.206-3.588,7.7,7.7,0,0,0,.355,2.684,9.759,9.759,0,0,0,4.977,5.362,9.93,9.93,0,0,0-.468,2.761,9.317,9.317,0,0,0-4.345,4.1,6.569,6.569,0,0,0-.139,5.2,2.089,2.089,0,0,0,1.962,1.362,2.167,2.167,0,0,0,.73-.13,2.091,2.091,0,0,0,1.231-2.691,2.337,2.337,0,0,1,0-1.951,4.452,4.452,0,0,1,1.551-1.643,6.21,6.21,0,0,0,3.516,2.972,7.1,7.1,0,0,0,2.207.349,8.379,8.379,0,0,0,6.631-3.448c1.937-2.626,5.726-1.122,5.972-1.018,7.922,2.877,18.625.708,25.1-2.931,3.593-2.022,16.253-.931,23.392.239a2.223,2.223,0,0,0,1.613-.4,2.1,2.1,0,0,0,.807-1.454c.722-7.224-8.625-9.142-16.135-10.684a29.986,29.986,0,0,1-5.83-1.6c-.733-4.238,10.281-19.668,20.775-27.383,2.572-1.89,4.642-2.648,5.679-2.092,1.482.812,1.953,4.593,1.8,6.892,0,.061.031.113.032.173a2,2,0,0,0,.125.669,2.018,2.018,0,0,0,.106.268c.029.056.032.117.066.17a2.022,2.022,0,0,0,.444.451c.032.026.043.069.077.094a.025.025,0,0,0,.018,0,2.089,2.089,0,0,0,.884.359,1.889,1.889,0,0,0,.238,0,1.98,1.98,0,0,0,.69-.082c.054-.015.111,0,.164-.019.17-.066.354-.16.527-.231,1.116-.572,3.007.066,4.33.744a6.14,6.14,0,0,0-.324,2.423,8.584,8.584,0,0,0,.946,3.182,7.413,7.413,0,0,0-5.416,1.079,8.412,8.412,0,0,0-1.295,1.346,8.209,8.209,0,0,0-7.5,6.532,2.092,2.092,0,1,0,4.1.818,3.54,3.54,0,0,1,1.336-2.158,6.534,6.534,0,0,0,4.617,6.537,10.777,10.777,0,0,0-.664,1.356,7.556,7.556,0,0,0-5.248,7.454,2.092,2.092,0,1,0,4.184,0,3.8,3.8,0,0,1,.468-1.894,6.449,6.449,0,0,0,.224.9c.506,1.324,2.029,3.808,6.295,3.808a16.833,16.833,0,0,0,5.165-.937,41.262,41.262,0,0,1,11.954-1.956c4.092-.2,7.957-.387,13.387-2.9,7.823-3.634,17.514-2.4,22.591-1.341a5.787,5.787,0,0,0,6.551-3.307c.381-.86.63-1.613.893-2.378a3.477,3.477,0,0,1,2.921,3.091,2.093,2.093,0,0,0,2.076,1.864c.071,0,.145-.006.217-.011a2.1,2.1,0,0,0,1.866-2.3c-.226-2.186-1.846-6.108-6.181-6.79a5.268,5.268,0,0,0-.961-3.606c-.8-.981-2.378-2.01-5.479-1.373a22.856,22.856,0,0,1-5.351.736,15.006,15.006,0,0,1,.89-2.37c1.869-4.206,14.278-15.3,22.4-21.94,1.959-.441,4.444-.469,5.017.185.2.223.2.992-.256,2.207a2.093,2.093,0,0,0,3.155,2.457c.324-.228,7.914-5.618,7.762-12.182-.079-3.318-2.013-6.2-5.751-8.565-3.168-2-4.988-4.316-5.412-6.876a9.527,9.527,0,0,1,1.461-6.321,43.6,43.6,0,0,1,9,5.77c17.667,14.609,32.7,16.935,40.823,16.9,1.7,3.764,6.706,16.605,2.436,29.8a14.316,14.316,0,0,1-9.8-6.957c-2.977-4.958-6.549-6.2-9.025-6.364-3.849-.3-7.933,1.89-11.142,5.9a2.093,2.093,0,0,0,3.067,2.833c.534-.507,1.528-1.122,1.956-.79l.434,1.209c.232.67.469,1.346.751,2a7.236,7.236,0,0,0-4.516,2.343,8.939,8.939,0,0,0-1.718,3.122,9.935,9.935,0,0,0-6.008,3.726,2.093,2.093,0,0,0,1.738,3.242,2.1,2.1,0,0,0,1.732-.9,5.641,5.641,0,0,1,2.2-1.689,7.165,7.165,0,0,0,.885,2.244,5.6,5.6,0,0,0,2.91,2.358,15.231,15.231,0,0,0-.378,1.975c-.044.015-.09.008-.135.025-5.01,2.109-3.988,8.335-2.749,11.332a2.088,2.088,0,0,0,1.931,1.291,2.142,2.142,0,0,0,.8-.158,2.1,2.1,0,0,0,1.141-2.73c-.015-.04-1.191-3.115-.435-4.866.02.047.025.1.045.143a7.34,7.34,0,0,0,4.828,4.038,11.206,11.206,0,0,0,3.239.48c3.424,0,6.33-1.586,8.777-2.925,1.9-1.041,3.7-1.994,5.124-1.9,1.033.1,2.215.284,3.511.484,4.893.763,11.6,1.8,18.254-.343,1.239-.4,2.361-.785,3.389-1.139,5.408-1.853,7.428-2.545,10.733-.664,4,2.289,9.161.751,11.82-2.053a6.421,6.421,0,0,0,1.571-2.852,7.4,7.4,0,0,1,2.648,1.458,2.092,2.092,0,1,0,3.94,1.406,3.888,3.888,0,0,0-.269-3.258c-1.383-2.518-5.431-3.87-7.458-4.407-3.348-4.549-8.452-5.966-16.885-4.632a1.026,1.026,0,0,1-.885-.25c-3.079-2.489-3.756-15.424-4.16-23.145-.324-6.178-.545-9.763-1.493-11.485.484-.4,3.133-.447,4.783.757a1.39,1.39,0,0,1,.684,1.716c-.033.087-.063.169-.093.25a2.091,2.091,0,0,0,3.89,1.536c.063-.147.117-.3.167-.447.746-2.12,3.8-11.72.2-17.8a10.147,10.147,0,0,0-7.834-4.843c-9.126-1.23-16.081-7.061-20.757-17.223,7.085-2.489,27.944-11.944,31.844-38.04,2.591-17.347-3.626-27.062-9.3-32.156-.271-.244-.565-.429-.842-.659a1.965,1.965,0,0,0,.447-.664A106.468,106.468,0,0,1,388.332,191.217Zm-14.772-3.729a75.771,75.771,0,0,1,34.455-25.215c-5.187,9.344-10.129,26.822-12.7,36.8l-4.353-13.294c-.017-.052-.071-.074-.09-.124a45.056,45.056,0,0,1,4.293-7.014,2.092,2.092,0,0,0-3.318-2.549,51.416,51.416,0,0,0-5.217,8.69ZM125.869,175.044c-6.445-6.827-8.124-15.686-8.508-21.068a99.534,99.534,0,0,0,14.827,11.267l-3.334.819c-.637-.511-1.262-.983-1.928-1.581a2.093,2.093,0,0,0-2.8,3.116c.747.671,1.457,1.187,2.179,1.762Zm157.812,69.014c-3.91-10.434-15.711-35.414-44.621-56.314.023-.061.038-.141.061-.2.371-.958.855-1.783,1.27-2.689,43.772,11.186,70.413,29.383,81.056,37.855C299.7,221.106,288.2,236.083,283.681,244.058Zm47.385-41.369c-4.621,5.94-5.428,13.175-5.337,18.06-9.6-8.035-36.577-27.593-83.5-39.727.607-1.053,1.334-1.969,2.013-2.94a2.771,2.771,0,0,0,.457.1c57.73-2.481,89.939,9.916,101.735,15.758C339.816,195.281,334.6,198.144,331.066,202.689Zm-46.008-42.17c12.76,0,42.219-1.53,67.627-14.122-10.906,16.427-6.986,34.866-3.9,43.976-11.7-5.993-43.389-18.441-101.186-16.448C255.933,164.995,268.26,160.519,285.058,160.519ZM235.988,205.1c.521-4.729,1.041-9.227,1.862-13.016,27.784,20.6,38.974,45.492,42.284,54.519-6.824-1.53-13.005-1.034-18.333,1.713a26.227,26.227,0,0,0-9.487,8.588c-.929-10.528-4.4-29.314-17.1-44.106-.041-.047-.1-.068-.142-.111C235.412,210.14,235.713,207.59,235.988,205.1Zm-2.643,63.871c-9.722-2.266-13.806-12.063-13.994-12.525a2.1,2.1,0,0,0-1.469-1.259,2.32,2.32,0,0,0-.474-.054,2.1,2.1,0,0,0-1.4.54c-6.985,6.282-15.53,7.938-19.8,8.374,3.372-10.592,12.855-16.094,25.612-23.5l.588-.343a19.682,19.682,0,0,0,7.268-7.944,87.487,87.487,0,0,0,1.247,16.067,2.092,2.092,0,0,0,2.051,1.689,2.015,2.015,0,0,0,.406-.039,2.1,2.1,0,0,0,1.651-2.457c-2.093-10.677-.768-26.737-.576-28.9,12.168,16.425,13.779,37.153,13.961,43.913a18.708,18.708,0,0,1-11.157-6.839,2.08,2.08,0,0,0-1.714-.9h-.008a2.086,2.086,0,0,0-1.71.883C230.741,260.049,231.948,265.448,233.345,268.968Zm-7.41-57.241a18.488,18.488,0,0,0-5.961-5.153c.488-1.949.946-4.023,1.362-6.2C223.575,202.211,226.963,206,225.935,211.727Zm-9.424,7.479c.627.092,4.439.829,6.023,5.724a9.141,9.141,0,0,0-5.969.99A21.814,21.814,0,0,1,216.511,219.206Zm7.471,10.729a2.073,2.073,0,0,0,2.1.225,16.521,16.521,0,0,1-4.616,5.516,17.927,17.927,0,0,1-3.671-5.569A5.242,5.242,0,0,1,223.982,229.935Zm7.211-30.842a2.08,2.08,0,0,0,1.485-1.5c-.3,2.276-.584,4.618-.851,7.044-.876,7.955-1.832,16.57-4.543,23.11-.769-8.792-6.507-12.028-9.867-12.612.179-.607.341-1.205.569-1.838.3-.826.59-1.715.877-2.653,1.912,1.206,4.554,4.471,6.035,6.744a2.088,2.088,0,0,0,1.754.953,1.205,1.205,0,0,0,.147-.006,2.1,2.1,0,0,0,1.749-1.2c5.007-10.77-1.734-18.45-6.425-21.347.118-.767.236-1.533.343-2.312a26.194,26.194,0,0,1,6.668,5.026,2.089,2.089,0,0,0,1.528.664A1.98,1.98,0,0,0,231.193,199.093ZM227.72,185.75a11.794,11.794,0,0,1,1.5,7.126,21.65,21.65,0,0,0-6.24-3.746c.247-2.378.433-4.765.54-7.121A10.251,10.251,0,0,1,227.72,185.75Zm1.511-14.215a11.738,11.738,0,0,0-5.9-1.027,45.093,45.093,0,0,0-1.027-6.453A13.234,13.234,0,0,1,229.231,171.535Zm-13.5-31.1-.4,5.238a54.6,54.6,0,0,1-10.6,1.354c-.567-.2-1.357-.461-2.276-.757A128.989,128.989,0,0,0,215.731,140.437Zm-61.138,33.817a8.943,8.943,0,0,1-1.139-1.139c.412-.163.82-.327,1.22-.484,2.9-1.166,5.644-2.266,8.281-2.413,5.926-.365,7.655,1.977,8.042,2.7a1.668,1.668,0,0,1,.1,1.705,6.513,6.513,0,0,1-4.7,2.408C161.523,177.583,155.723,175.2,154.593,174.254Zm14.7,13.273a2.053,2.053,0,0,0-2.155-.169,29.32,29.32,0,0,1-18.857,2.228,22.833,22.833,0,0,0,8.052-9.884,25.669,25.669,0,0,0,8.491,1.6,17.242,17.242,0,0,0,2.076-.126,10.672,10.672,0,0,0,7.565-4.075,5.747,5.747,0,0,0,.213-6.178c-.877-1.623-3.795-5.366-11.95-4.882-3.326.18-6.519,1.46-9.608,2.7-.495.2-.992.4-1.484.588-1.122-4.952,1.384-10.412,1.419-10.483a2.1,2.1,0,0,0-.152-2.054c-1.163-1.749-3.479-2.838-5.914-3.52,11.278-2.359,25.757,1.536,25.934,1.586a2.093,2.093,0,0,0,2.5-2.789c-.842-2.12-.879-3.6-.115-4.392,3.253-3.389,18.566-.039,28.391,3.416.234.082.495.06.727.12a64.813,64.813,0,0,0,23.153-4.991c-5.655,12.28-15.274,14.007-15.726,14.084a2.093,2.093,0,0,0,.649,4.135,19.9,19.9,0,0,0,5.049-1.73c4.143,11.462.9,36.942-3.5,49.163-4.924,13.681.538,22.369,3.882,26.1-13.214,7.688-23.544,14.22-26.436,27.64,0,.011-.014.02-.018.032-.07.218-.777,2.57-1.593,6.764-5.121-3.4-14.664-17.372-9.527-33.745,1.4-4.468,3.046-8.838,4.637-13.065,4.728-12.552,9.182-24.418,5.866-35.531a19.953,19.953,0,0,0,3.554-3.19c3.648-4.249,4.922-9.682,3.789-16.149a2.091,2.091,0,0,0-4.119.72c.918,5.247-.011,9.4-2.841,12.7-5.47,6.386-16.593,7.7-21.455,7.971l.36-2.615A2.1,2.1,0,0,0,169.292,187.527Zm18.781,95.394c-3.6,4.4-10.916,10.263-13.756,12.477a52.908,52.908,0,0,1-7.562-8.945,31.933,31.933,0,0,0,19.539-11.54,13.294,13.294,0,0,0,2.24,1.59,1.911,1.911,0,0,0,.611.152c-.281,1.792-.548,3.823-.8,6.045A1.9,1.9,0,0,0,188.073,282.921Zm-25.462-38.132a40.726,40.726,0,0,0,10.087,1.59,16.357,16.357,0,0,0,2.092-.222,35.438,35.438,0,0,0,.339,7.414c-3.336,2.172-11.11,2.355-15.308,2.175A61.829,61.829,0,0,1,162.611,244.789Zm5.237-12.486a34.564,34.564,0,0,0,7.618.983,18.2,18.2,0,0,0,2.347-.147c-.492,1.419-.995,2.826-1.451,4.276a36.633,36.633,0,0,0-1.079,4.521c-.015,0-.031,0-.046,0-3.1.767-8.434-.341-11.155-1.082C165.237,237.969,166.5,235.11,167.848,232.3Zm4.781-9.51q.812-1.575,1.6-3.127c1.821.438,5.411,1.261,7.925,1.574-.359.96-.713,1.913-1.081,2.894-.556,1.475-1.114,2.994-1.673,4.5a2.022,2.022,0,0,0-.79.083c-2.479.766-6.353.243-8.862-.279C170.712,226.53,171.678,224.64,172.629,222.793Zm6.637-13.652a18.747,18.747,0,0,0,6.351,1.329c.076,0,.146-.033.223-.034-.63,2.188-1.387,4.444-2.206,6.743a55.237,55.237,0,0,1-7.467-1.361Q177.848,212.422,179.266,209.141Zm2.891-8c1.183.083,2.279.138,3.2.138a18.3,18.3,0,0,0,2.3-.141,41.734,41.734,0,0,1-.736,4.959c-1.588.47-4.183-.139-6.1-.85Q181.589,203.168,182.157,201.145ZM162.506,259.99c4.007,0,9.612-.457,13.483-2.255A38.31,38.31,0,0,0,178,263.317a38.876,38.876,0,0,1-18.059,6.379,44.88,44.88,0,0,1-.646-5.385,38.162,38.162,0,0,1,.057-4.395C160.163,259.953,161.234,259.99,162.506,259.99Zm17.437,7.057a35.927,35.927,0,0,0,3.385,4.852,27.915,27.915,0,0,1-18.857,10.738,44.1,44.1,0,0,1-3.562-8.82A42.81,42.81,0,0,0,179.943,267.047Zm7.136-74.734a24.32,24.32,0,0,1,.668,4.617h0a22.022,22.022,0,0,1-4.659.074,27.275,27.275,0,0,0,.314-3.169A33.184,33.184,0,0,0,187.079,192.313ZM158.9,308.686a2.117,2.117,0,0,0-1.248,1.063c-.172.343-3.715,7.23-13.065,5.885a13.325,13.325,0,0,0,6.336-11.453,2.059,2.059,0,0,0-.2-.894C150.59,303,136.98,273.969,135.113,248a2.091,2.091,0,0,0-2.076-1.94h-.011a2.091,2.091,0,0,0-2.084,1.918c-.542,6.532-2.705,13.942-4.947,14.127a4.417,4.417,0,0,1-3.481-1.727c-.54-.888-.316-2.125.659-3.672,3.806-6.048,6.1-11.043,4.909-15.8-.994-3.982-5.644-14.454-11.994-13.169l-1.656.376c-5.4,1.28-6.786,1.007-7.456-1.433a1.754,1.754,0,0,1,.289-1.613c.916-1.274,3.258-2.228,5.833-2.376,4.83-.262,6.756,1.8,6.807,1.858a2.092,2.092,0,0,0,3.62-1.928c-.082-.267-2.059-6.554-10.468-7.578a2.408,2.408,0,0,1-2.394-2.413,3.846,3.846,0,0,1,2.778-3.934c3.307-.736,9.478,2.07,12.152,12.766a2.123,2.123,0,0,0,2.536,1.526,2.1,2.1,0,0,0,1.523-2.539c-1.369-5.474-3.587-9.227-6.067-11.756a1.921,1.921,0,0,0,.142-.22,3.98,3.98,0,0,1,4.561-2.778,3.632,3.632,0,0,1,2.825,4.026c-.259,6.931,5.219,17.614,8.068,21.532,2.157,2.964,2.7,6.173,3.448,10.618.335,1.983.7,4.151,1.259,6.577a42.626,42.626,0,0,0,11.78,20.978c2.264,14.521,10.444,24.662,17.944,31.115C170.382,302.835,163.961,307.109,158.9,308.686Zm18.589-10.458c2.415-1.9,6.671-5.378,10.238-8.855-.3,4.075-.52,8.551-.54,13.635,0,.594-.052,1.161-.07,1.746A59.939,59.939,0,0,1,177.494,298.228Zm129.23-13.944,3.644-10.791a88.358,88.358,0,0,1,10.077,4.3l-6.959,9.715A43.049,43.049,0,0,0,306.724,284.284Zm-4-1.238a38.925,38.925,0,0,0-5.935-1.065l1.354-11.8c.487.092.985.143,1.468.246,2.337.5,4.58,1.116,6.775,1.778ZM292.6,281.8a42.158,42.158,0,0,0-6.257.541l-1.15-13.22a70.377,70.377,0,0,1,8.813.412ZM281.006,269.3l1.207,13.888a52.936,52.936,0,0,0-6.531,2.159l-3.692-15.064C274.95,269.826,277.963,269.487,281.006,269.3Zm-6.438,40.192a26.3,26.3,0,0,1-4.738-2.282l7.479-14.2a4.237,4.237,0,0,1,.511.615,6.326,6.326,0,0,1,.332,4.909C277.457,301.2,276.21,305.128,274.568,309.49ZM265.3,295.577a67.411,67.411,0,0,1,8.474-4.822l-7.427,14.1a45.773,45.773,0,0,1-6.326-5.962C261.762,297.85,263.524,296.758,265.3,295.577Zm2.558-24.592,3.939,16.071q-3.027,1.458-6.089,3.325L259.646,272.8C262.263,272.135,265.023,271.524,267.855,270.985ZM255.6,273.9l6.386,18.524c.029.083.11.12.148.2-2.551,1.669-5.074,3.162-7.554,4.536l-6.186-21C250.6,275.41,253,274.645,255.6,273.9Zm-11.161,3.647,6.359,21.589c0,.015.021.022.025.036-2.778,1.422-5.441,2.679-7.891,3.741l-6.918-21.593c.088-.15.185-.344.271-.484C237.431,280.318,240.328,279.059,244.437,277.546ZM233.35,286.71l5.706,17.81c-4.355,1.728-7.757,2.829-9.45,3.335C228.518,300.93,230.792,292.737,233.35,286.71Zm-1.233,38.272c1.417-3.4,1-7.6-1.28-12.809-.041-.093-.082-.185-.12-.284a133.43,133.43,0,0,0,25.6-10.9c2.111,2.556,8.356,9.385,16.728,12.383-4.754,11.628-11.851,24.662-19,25.818-5.993.948-9.238-2.626-12.371-6.108-2.732-3.029-5.835-6.462-10.238-4.141a8.591,8.591,0,0,0-.9.62c-.341-.2-.811-.444-1.366-.7A10.512,10.512,0,0,0,232.117,324.982Zm70.836-28.353c.612,3.808,3.073,7.1,7.315,9.785,2.476,1.564,3.754,3.285,3.8,5.116.049,1.956-1.228,3.993-2.675,5.644a4.3,4.3,0,0,0-.69-1.018c-2.669-2.964-8.474-1.629-9.613-1.33a2.083,2.083,0,0,0-.79.4c-2.144,1.743-21.044,17.244-23.954,23.787-1.09,2.452-2.029,5-.558,6.822,1.534,1.907,4.468,1.7,9.7.61a4.991,4.991,0,0,1,.992-.12c.25,0,.373,0,.373.028.177.3.3,1.983-1.4,5.807a1.658,1.658,0,0,1-1.869.9c-5.582-1.155-16.288-2.485-25.207,1.645-4.689,2.174-8,2.332-11.828,2.517a45.194,45.194,0,0,0-13.043,2.157c-1.272.408-5.492,1.613-6.263-.392-.644-1.685.611-4.633,1.943-5.5,8.234.32,11.59.323,11.59.323a2.092,2.092,0,0,0,0-4.184c-.035,0-3.506,0-12.12-.349-1.487-.06-4.067-.419-4.622-2.174a4.222,4.222,0,0,1,1.629-4.184c1.139-.883,4.977.087,8.728,1.7a16.87,16.87,0,0,0,3.631,1.754,2.09,2.09,0,0,0,1.672-3.813c-.744-.414-1.959-1.052-3.424-1.7-2.435-1.651-4.364-4.015-4.514-5.863-.054-.664.079-1.536,1.626-2.348,1.343-.7,2.3.06,5.178,3.242,3.337,3.7,7.894,8.723,16.149,7.432,16.073-2.6,27.386-43.319,27.492-43.729a10.3,10.3,0,0,0-.782-8.1,8.735,8.735,0,0,0-2.71-2.792c7.892-2.84,16.789-3.811,25.923-.647A13.615,13.615,0,0,0,302.953,296.629Zm14.059-6.861,7.153-9.985c2.606,1.463,5.053,3,7.352,4.587l-9.176,9.482c-.713-.555-1.4-1.033-2.127-1.631Q318.63,290.911,317.012,289.768Zm17.933,12.239,9.19-7.321c1.77,1.71,3.384,3.381,4.81,4.958l-7.431,5.281A62.7,62.7,0,0,1,334.945,302.007Zm-3.994-2.165q-2.57-1.527-5.267-3.427l9.265-9.574c2.177,1.647,4.219,3.314,6.082,4.969Zm15.542,6.678,5.2-3.694c1.7,2.053,3.082,3.876,4.076,5.278A47.15,47.15,0,0,1,346.493,306.52Zm43.426-70.994c-3.7,24.751-23.531,32.956-29.437,34.87-4.964-11.168-13.2-20.563-18.673-23.4a2.092,2.092,0,1,0-1.923,3.717c4.173,2.163,12.623,10.962,17.5,22.986,5.266,12.972,13.686,20.328,25.022,21.864a6.093,6.093,0,0,1,4.794,2.823c1.389,2.343,1.319,5.863.809,8.957-2.669-1.7-7.015-2.239-9.382-.425a3.876,3.876,0,0,0-1.133,4.794c.518,1.269.757,5.824.989,10.232.668,12.755,1.515,22.785,5.7,26.179a5.136,5.136,0,0,0,4.173,1.128c8.27-1.308,11.289.447,13.258,3.492.12.185.484.746-.495,1.788-1.487,1.569-4.607,2.489-6.707,1.3-4.95-2.834-8.423-1.64-14.168.338-1.005.343-2.105.719-3.318,1.117-5.7,1.842-11.588.926-16.323.185-1.389-.213-2.654-.408-3.756-.512-2.7-.256-5.154,1.085-7.532,2.387-2.879,1.575-5.6,3.084-8.8,2.109a3.115,3.115,0,0,1-2.207-1.721c-.7-1.573-.183-3.854.318-5.3a17.981,17.981,0,0,1,5.183-.072,18.751,18.751,0,0,0,9.148-.79,2.091,2.091,0,1,0-1.45-3.923,14.565,14.565,0,0,1-7.268.551,20.04,20.04,0,0,0-7.658.316,1.358,1.358,0,0,1-1.667-.659,4.2,4.2,0,0,1,.755-4.767c1.09-1.237,3.2-1.2,5.151-.785a14.16,14.16,0,0,0,4.277,1.454,2.094,2.094,0,0,0,1.33-3.929,21.881,21.881,0,0,0-4-1.438c-1.155-.839-1.567-2.022-2.185-3.793l-.466-1.3a5.223,5.223,0,0,0-1.024-1.727,6.362,6.362,0,0,1,2.945-.572c2.152.147,4.075,1.608,5.715,4.348a18.258,18.258,0,0,0,14.814,9.148,2.093,2.093,0,0,0,1.956-1.352c6.766-17.881-2.28-35.169-2.669-35.9-.007-.011-.018-.018-.024-.03s0-.021-.009-.031c-.8-1.389-20.113-34.03-61-42.84-29.451-6.369-65.039,10.249-66.54,10.962a2.067,2.067,0,0,0-.864.751c-4.233,6.543-11.292,23.907-6.089,35.8,1.773,4.054,2.2,7.257,1.254,9.529a8,8,0,0,1-3.958,3.869c-.28-2.615-1.182-6.02-3.874-7.5-2.632-1.438-6.054-.638-10.177,2.392-9.761,7.176-23.687,24.125-22.417,31.464a4.378,4.378,0,0,0,3.179,3.607c1.681.5,3.751.931,5.93,1.378,4.31.888,9.393,1.929,11.648,3.8-6.086-.779-17.876-1.858-22.537.757-5.5,3.1-14.947,5.067-21.526,2.686-2.392-1-7.747-1.788-10.861,2.43a3.9,3.9,0,0,1-4.16,1.608c-1.367-.447-1.654-1.869-1.654-2.98,0-4.854,4.672-5.23,6.1-5.23a2.092,2.092,0,0,0,0-4.184,10.676,10.676,0,0,0-7.65,2.82,5.911,5.911,0,0,1-3.145-3.1,5.328,5.328,0,0,1,.744-4.179,7.568,7.568,0,0,1,3.734-2.944,25.821,25.821,0,0,0,6.526,4.436,2.093,2.093,0,0,0,1.677-3.835c-2.8-1.226-7.925-5.007-8.167-8.178a2.47,2.47,0,0,1,2.087-2.321c.8-.2,2.808-.36,4.018,2.435,3.059,7.078,13.007,12.057,13.43,12.264a2.068,2.068,0,0,0,.926.219,2.1,2.1,0,0,0,1.406-.54c.885-.807,21.722-20.05,21.843-51.53.072-19.03,2.718-30.9,3.7-34.677a39.778,39.778,0,0,0,21.64-7.826c2.457,4.353,8.693,12.8,20.17,13.092h.052a2.094,2.094,0,0,0,1.766-3.215c-.041-.065-3.255-5.208-2.522-9.643a21.672,21.672,0,0,0,14.283,6.233h.076a2.016,2.016,0,0,0,.986-.284,1.718,1.718,0,0,0,.37-.241,2.064,2.064,0,0,0,.587-.872c.011-.032.044-.047.054-.081.028-.093,2.923-9.207,11.186-13.474,5.277-2.73,11.64-2.9,18.938-.495a2.043,2.043,0,0,0,.541.065c.041,0,.072.039.113.039s.065-.011.1-.013c.054,0,.105-.014.159-.021a1.891,1.891,0,0,0,.278-.036c.064-.017.11-.062.172-.085a2.048,2.048,0,0,0,.387-.191,1.984,1.984,0,0,0,.3-.225,2.018,2.018,0,0,0,.262-.3,2.055,2.055,0,0,0,.21-.341,1.474,1.474,0,0,0,.1-.158c.278-.761,4.606-12.06,15.4-18.728a1.053,1.053,0,0,0,.109.034c.259.028,26.04,2.882,40.309,9.85a34.607,34.607,0,0,0,14.915,3.177c5.933,0,11.793-1.341,16.105-3.982,4.707-2.882,7.239-7.022,7.322-11.959.172-10.123-6.059-17.914-12.008-20.1-3.732-1.367-7.326-.545-9.6,2.228-2.828,3.444-2.661,7.9.4,10.613,3.174,2.812,9.036,3.258,14.9-1.929a19.158,19.158,0,0,1,1.605,4.374c-6.616,4.573-12.788,6.1-17.827,4.4a14.319,14.319,0,0,1-8.719-9.1,11.576,11.576,0,0,1,1.3-8.93,18.687,18.687,0,0,1,11.763-8.858c5.34-1.4,14.1-.2,20.712,5.742C386.873,211.516,392.237,220.02,389.919,235.526Zm-19.156-19.549c-4.11,3.869-7.894,3.956-9.761,2.3-1.373-1.215-1.348-3.111.063-4.822a3.574,3.574,0,0,1,2.877-1.362,6.055,6.055,0,0,1,2.046.4A12.17,12.17,0,0,1,370.763,215.977Z" fill="#464655"/></g></svg>