<svg xmlns="http://www.w3.org/2000/svg" width="511.906" height="335.9" viewBox="0 0 511.906 335.9"><g transform="translate(0 -87.8)"><path d="M503.2,423.7H8.8A8.813,8.813,0,0,1,0,414.9V97.1a8.813,8.813,0,0,1,8.8-8.8H503.1a8.813,8.813,0,0,1,8.8,8.8V414.9A8.665,8.665,0,0,1,503.2,423.7Z" fill="#ed2939"/><path d="M8.8,88.3H247.1a8.813,8.813,0,0,1,8.8,8.8V247.2a8.813,8.813,0,0,1-8.8,8.8H8.8A8.878,8.878,0,0,1,0,247.2V97.1A8.813,8.813,0,0,1,8.8,88.3Z" fill="#41479b"/><rect width="85.6" height="168.2" transform="translate(84.8 87.8)" fill="#f5f5f5"/><path d="M251.6,256H170.4V87.8h81.2a4.439,4.439,0,0,1,4.4,4.4V251.6A4.439,4.439,0,0,1,251.6,256Z" fill="#ff4b55"/><path d="M393.7,290.6l-49-49h98ZM377.3,307l-49-49v98Zm16.4,16.3-49,49h98ZM410,307l49-49v98Z" fill="#fff"/><path d="M247.2,88.3a8.813,8.813,0,0,1,8.8,8.8V247.2a8.813,8.813,0,0,1-8.8,8.8H8.8A8.878,8.878,0,0,1,0,247.2V97.1a8.813,8.813,0,0,1,8.8-8.8H247.2m0,0H8.9C1.8,88.3,0,90,0,97.1V247.2C0,254.3,1.8,260,8.8,260H247.1a12.825,12.825,0,0,0,12.8-12.8V97.1c.1-7.1-5.7-8.8-12.7-8.8Z" fill="#fff"/></g></svg>