<svg xmlns="http://www.w3.org/2000/svg" width="512" height="335.449" viewBox="0 0 512 335.449"><g transform="translate(0 -88.276)"><path d="M512,200.093H0V97.1a8.829,8.829,0,0,1,8.828-8.828H503.173A8.829,8.829,0,0,1,512,97.1V200.093Z" fill="#464655"/><path d="M503.172,423.725H8.828A8.829,8.829,0,0,1,0,414.9V311.909H512V414.9A8.828,8.828,0,0,1,503.172,423.725Z" fill="#73af00"/><rect width="512" height="111.81" transform="translate(0 200.091)" fill="#f5f5f5"/><path d="M3.256,421.591,206.1,260.576a5.842,5.842,0,0,0,0-9.151L3.256,90.411A8.683,8.683,0,0,0,0,97.1V414.9A8.683,8.683,0,0,0,3.256,421.591Z" fill="#ff4b55"/><path d="M264.957,256a45.271,45.271,0,0,1,31.33-43.068,1.013,1.013,0,0,0-.184-1.974,45.259,45.259,0,1,0-4.43,90.3q2.234,0,4.41-.215a1.016,1.016,0,0,0,.191-1.98A45.272,45.272,0,0,1,264.957,256Z" fill="#ff4b55"/><path d="M303.384,226.265l-5.946,17.83-18.8.146a2.532,2.532,0,0,0-1.485,4.569l15.119,11.165-5.67,17.92a2.532,2.532,0,0,0,3.887,2.824l15.29-10.93,15.29,10.93a2.532,2.532,0,0,0,3.887-2.824l-5.67-17.92L334.41,248.81a2.532,2.532,0,0,0-1.485-4.569l-18.8-.146-5.946-17.83A2.529,2.529,0,0,0,303.384,226.265Z" fill="#ff4b55"/></g></svg>