<svg xmlns="http://www.w3.org/2000/svg" width="512" height="335.448" viewBox="0 0 512 335.448"><g transform="translate(0 -88.277)"><path d="M503.172,88.277H8.828A8.828,8.828,0,0,0,0,97.1V414.9a8.829,8.829,0,0,0,8.828,8.828H503.173A8.829,8.829,0,0,0,512,414.9V97.1A8.829,8.829,0,0,0,503.172,88.277Z" fill="#73af00"/><rect width="61.793" height="220.69" transform="translate(326.62 203.031)" fill="#ff4b55"/><rect width="61.793" height="220.69" transform="translate(388.41 203.031)" fill="#464655"/><rect width="61.793" height="220.69" transform="translate(450.21 203.031)" fill="#ff9b55"/><path d="M496.952,128.859a.955.955,0,0,0-1.385-1.22c-1.785,1.185-3.585,2.262-5.37,3.239,5.746-4.749,6.551-8.873,6.6-9.173a.956.956,0,0,0-1.478-.952,91.935,91.935,0,0,1-17.775,9.33c7.193-4.545,10.044-9.182,10.218-9.475a.955.955,0,0,0-1.313-1.308,93.175,93.175,0,0,1-19.046,8.294c.863-1.332,1.478-2.828.926-3.669-.513-.779-1.449-.779-2.786,0-2.706,1.586-23.211,6.813-31.157,8.76a33.593,33.593,0,0,0-16.9,1.379,4.166,4.166,0,0,1-.918-1.807,2.958,2.958,0,0,1,.339-2.222c.63-.937,1.932-1.027,3.081-1.106a7.847,7.847,0,0,0,1.336-.163c.25.074.556.218.551.33a.955.955,0,0,0,1.765.554c.058-.094,1.409-2.305.363-4.188-.761-1.369-2.508-2.089-5.194-2.141a11.364,11.364,0,0,0-10.4-1.338c-5.2,1.961-7.505,7.3-8.268,9.555-4.045-.562-22.617-3.4-32.714-9.323-.491-.223-2.166-.881-3.1.011-.575.545-.642,1.391-.2,2.516a6.431,6.431,0,0,0,1.069,1.75c-5.4-2.481-12.691-5.946-18.2-9.027-.862-.4-2.425-.941-3.232-.1-.505.532-.5,1.3.023,2.3.11.21.219.444.337.7a14.662,14.662,0,0,0,3.053,4.548,26.443,26.443,0,0,1-3.5-2.229c-4.834-3.761-5.489-4.129-6.355-3.545-.746.5-.505,1.351-.25,2.25l.067.237a11.615,11.615,0,0,0,1.492,3.4c-.749-.51-1.393-.614-1.9-.26-.3.209-.757.729-.407,1.875.841,2.741,6.65,9.958,17.7,12.083a27.909,27.909,0,0,1-3.407.3.955.955,0,0,0-.457,1.782c.2.116,4.108,2.3,11.27,2.118a19.606,19.606,0,0,1-3.63.558.955.955,0,0,0-.437,1.771,20.008,20.008,0,0,0,10.8,2.212l-.561.345a.955.955,0,0,0,.238,1.732,23.99,23.99,0,0,0,8.346.589l-.794.565a.955.955,0,0,0,.422,1.724,12.4,12.4,0,0,0,1.6.087,18.821,18.821,0,0,0,2.265-.141,1.676,1.676,0,0,0,.082.681c.452,1.361,2.456,1.69,3.123,1.7h.121a13.118,13.118,0,0,0,2.529-.287c1.393,1.3,3.936,1.182,6.4.608a2.735,2.735,0,0,0-.327.663,1.2,1.2,0,0,0,.289,1.233c.314.311,1.071,1.064,7.967-.876l-.086.066a1.613,1.613,0,0,0-.742,1.817c.423,1.356,3.465,2.225,8.985,2.6a25.938,25.938,0,0,1-.74,6.441.955.955,0,0,0,1.377,1.082,6.455,6.455,0,0,0,.937-.633l-.026,1.015a.955.955,0,0,0,.955.98.812.812,0,0,0,.11-.018,2.207,2.207,0,0,1-1.562,2.141,14.079,14.079,0,0,1-1.553.217c-2.35.241-5.013.514-5.434,5.9a.956.956,0,0,0,1.648.731l1.023-1.088a6.643,6.643,0,0,0,2.588.134,4.36,4.36,0,0,0,1.065,4.081.955.955,0,0,0,1.645-.661v-.69a5.379,5.379,0,0,0,2.124-1.018,6.807,6.807,0,0,0,2.852,2.977.956.956,0,0,0,1.381-1.152l-.5-1.372a12.9,12.9,0,0,0,1.2-1.358.945.945,0,0,0,.873.413.956.956,0,0,0,.8-.616l.351-.935a5.313,5.313,0,0,0,.594-.2,7.754,7.754,0,0,0,1.922,3.893.958.958,0,0,0,.7.3.929.929,0,0,0,.233-.029.958.958,0,0,0,.691-.679l.532-1.986a3.141,3.141,0,0,0,1.634-2.814c.017-.158.041-.377.045-.488a10.517,10.517,0,0,1,2.6,2.944.958.958,0,0,0,.8.437,1.013,1.013,0,0,0,.8-.428s.746-1.13,1.109-1.789c1.54-2.795-.793-4.469-1.914-5.273a8.074,8.074,0,0,1-.713-.543,1.814,1.814,0,0,1,0-1.359,9.446,9.446,0,0,0,3.175,1.464.906.906,0,0,0,.218.025.956.956,0,0,0,.8-1.479,30.427,30.427,0,0,1-2.91-6.058c1.828,1.073,4.3,2.368,5.587,2.368a1.35,1.35,0,0,0,1.322-.783,1.31,1.31,0,0,0,.084-.856c1.7.918,3.616,1.63,5.073,1.254.43-.11,1.439-.371,1.592-1.276a1.339,1.339,0,0,0-.415-1.194,13.583,13.583,0,0,0,4.948.353c1.391-.183,1.8-.858,1.9-1.393.063-.342.175-1-1.066-2.241,2.4-.131,4.537-.655,4.713-2.1a1.738,1.738,0,0,0-.02-.37A28.69,28.69,0,0,0,467,150.972a.93.93,0,0,0,.177-.22,51.8,51.8,0,0,0,14.251-3.564c8.094-3.639,12.193-8.552,11.459-10.335a1.185,1.185,0,0,0-1.58-.612c-.212.079-.641.253-1.2.481A26.311,26.311,0,0,0,496.952,128.859Z" fill="#ff9b55"/><path d="M496.952,128.859a.955.955,0,0,0-1.385-1.22c-1.785,1.186-3.586,2.262-5.37,3.239,5.746-4.749,6.552-8.873,6.6-9.173a.956.956,0,0,0-1.478-.952,91.935,91.935,0,0,1-17.775,9.33c7.194-4.545,10.044-9.181,10.218-9.474a.955.955,0,0,0-1.313-1.308,93.233,93.233,0,0,1-19.046,8.295c.863-1.332,1.478-2.828.926-3.669-.513-.78-1.449-.78-2.786,0-2.706,1.586-23.211,6.813-31.156,8.76a33.593,33.593,0,0,0-16.9,1.379,4.2,4.2,0,0,1-.919-1.806,2.958,2.958,0,0,1,.339-2.222c.63-.937,1.932-1.026,3.081-1.106a7.981,7.981,0,0,0,1.336-.162c.25.073.556.218.552.329a.956.956,0,0,0,1.766.554c.059-.093,1.408-2.305.363-4.188-.761-1.369-2.507-2.089-5.2-2.141a11.365,11.365,0,0,0-10.4-1.338c-5.2,1.96-7.505,7.3-8.268,9.555-4.045-.562-22.617-3.4-32.714-9.323-.49-.223-2.165-.879-3.1.011-.575.545-.642,1.391-.2,2.516a6.431,6.431,0,0,0,1.069,1.75c-5.4-2.481-12.69-5.946-18.2-9.027-.861-.4-2.425-.942-3.231-.1-.505.532-.5,1.305.023,2.3.11.21.218.444.337.7a14.67,14.67,0,0,0,3.053,4.55,26.508,26.508,0,0,1-3.5-2.229c-4.834-3.761-5.49-4.129-6.355-3.545-.746.5-.505,1.351-.25,2.25l.067.237a11.587,11.587,0,0,0,1.492,3.4c-.749-.51-1.393-.614-1.9-.26-.3.207-.757.729-.406,1.875.84,2.741,6.65,9.956,17.7,12.083a27.891,27.891,0,0,1-3.407.3.955.955,0,0,0-.457,1.782c.2.116,4.108,2.3,11.27,2.116a19.52,19.52,0,0,1-3.631.558.955.955,0,0,0-.436,1.771,20,20,0,0,0,10.8,2.212l-.561.345a.955.955,0,0,0,.238,1.732,24.019,24.019,0,0,0,8.346.589l-.794.565a.955.955,0,0,0,.422,1.724,12.314,12.314,0,0,0,1.6.088,18.821,18.821,0,0,0,2.265-.141,1.674,1.674,0,0,0,.082.681c.452,1.361,2.456,1.69,3.123,1.7h.121a13.135,13.135,0,0,0,2.529-.287c1.393,1.3,3.936,1.182,6.4.608a2.765,2.765,0,0,0-.328.664,1.2,1.2,0,0,0,.289,1.233c.315.311,1.071,1.063,7.968-.876l-.086.067a1.613,1.613,0,0,0-.742,1.817c.423,1.356,3.465,2.225,8.985,2.6a26.044,26.044,0,0,1-.74,6.441.955.955,0,0,0,1.377,1.082,6.4,6.4,0,0,0,.937-.633l-.026,1.014a.956.956,0,0,0,.956.98.817.817,0,0,0,.11-.019,2.206,2.206,0,0,1-1.564,2.141,14.047,14.047,0,0,1-1.553.217c-2.35.241-5.013.514-5.434,5.9a.955.955,0,0,0,1.647.73l1.023-1.088a6.663,6.663,0,0,0,2.588.134,4.36,4.36,0,0,0,1.065,4.081.955.955,0,0,0,1.644-.661v-.69a5.379,5.379,0,0,0,2.124-1.018,6.8,6.8,0,0,0,2.852,2.977.955.955,0,0,0,1.382-1.149l-.5-1.373a12.764,12.764,0,0,0,1.2-1.357.945.945,0,0,0,.873.413.957.957,0,0,0,.8-.616l.351-.935a5.313,5.313,0,0,0,.594-.2,7.754,7.754,0,0,0,1.922,3.893.953.953,0,0,0,.7.3.924.924,0,0,0,.233-.029.955.955,0,0,0,.69-.679l.532-1.986a3.14,3.14,0,0,0,1.634-2.814c.017-.158.041-.377.045-.488a10.517,10.517,0,0,1,2.6,2.944.958.958,0,0,0,.8.437,1.014,1.014,0,0,0,.8-.429s.746-1.129,1.109-1.789c1.54-2.795-.793-4.469-1.914-5.273a8.074,8.074,0,0,1-.713-.543,1.824,1.824,0,0,1,0-1.359,9.455,9.455,0,0,0,3.175,1.464.906.906,0,0,0,.218.025.956.956,0,0,0,.8-1.479,30.427,30.427,0,0,1-2.91-6.058c1.83,1.071,4.3,2.368,5.587,2.368a1.347,1.347,0,0,0,1.321-.783,1.3,1.3,0,0,0,.084-.856c1.7.919,3.616,1.63,5.073,1.254.43-.111,1.439-.372,1.592-1.276a1.339,1.339,0,0,0-.415-1.194,13.579,13.579,0,0,0,4.947.353c1.391-.184,1.8-.858,1.9-1.393.063-.342.175-1-1.066-2.241,2.4-.131,4.537-.655,4.713-2.1a1.563,1.563,0,0,0-.02-.37A28.69,28.69,0,0,0,467,150.977a.93.93,0,0,0,.177-.22,51.758,51.758,0,0,0,14.251-3.563c8.094-3.639,12.193-8.552,11.459-10.335a1.185,1.185,0,0,0-1.58-.612c-.211.079-.641.253-1.2.482A26.375,26.375,0,0,0,496.952,128.859Zm-14.069-5.423c-3.518,3.442-10.146,8.392-21.077,11.264a.921.921,0,0,0-.256.124,29.475,29.475,0,0,1-7.752-1.55C461.876,131.442,473.225,128.286,482.883,123.436ZM434.243,134.6a.977.977,0,0,0,.4-.011c1.137-.278,27.449-6.731,31.673-8.91a9.508,9.508,0,0,1-2.206,2.89c-.022.015-.032.04-.052.057a168.181,168.181,0,0,1-21.1,4.8.955.955,0,1,0,.271,1.891c.087-.013,3.007-.442,7.49-1.378a22.928,22.928,0,0,0,7.772,2.462,61.913,61.913,0,0,1-7.532.137.979.979,0,0,0-.988.761.954.954,0,0,0,.607,1.089l3.613,1.324a27.316,27.316,0,0,1-10.036.054.955.955,0,0,0-.965,1.506c.69.92,2.636,1.887,4.334,2.6a14.662,14.662,0,0,1-12.017-3.165.955.955,0,0,0-1.3,1.4c5.517,5.163,15.8,7.362,20.414,8.119a7.3,7.3,0,0,1-2.37.939c-3.542.629-11.72-3.261-17.474-6.408l-4.608-2.659a.955.955,0,0,0-.978,1.641c.221.136,2.028,1.242,4.6,2.653L445,152.874a24.649,24.649,0,0,1-7.116-.355.75.75,0,0,0-.082,0c-2.625-1.846-6.861-4.954-13.221-10.228a10.763,10.763,0,0,0-5.343-6.784A32.186,32.186,0,0,1,434.243,134.6Zm6.932,20.254c-.006,0-.01.007-.017.009l-.013-.01Zm-62.221-4.332,2.185-1.555a.955.955,0,0,0-.875-1.678,21.04,21.04,0,0,1-9.551.864l2.53-1.557a.956.956,0,0,0-.744-1.738,20.984,20.984,0,0,1-10.951.014,17.775,17.775,0,0,0,6.431-2.792.955.955,0,0,0-.762-1.694,31.071,31.071,0,0,1-12.051.1,45.839,45.839,0,0,0,5.2-1.188c.017,0,.028-.018.043-.023a1.874,1.874,0,0,0,.317-.189,1,1,0,0,0,.116-.142.952.952,0,0,0,.1-.147,1.155,1.155,0,0,0,.051-.164.983.983,0,0,0,.041-.194c0-.015.009-.029.009-.045a.847.847,0,0,0-.028-.142,1,1,0,0,0-.013-.143c0-.015-.017-.025-.022-.04a.792.792,0,0,0-.328-.434.9.9,0,0,0-.151-.1.993.993,0,0,0-.163-.05.871.871,0,0,0-.2-.042c-.017,0-.029-.01-.045-.01-12.271-.115-19.043-6.57-21.212-9.864a56.7,56.7,0,0,0,12.5,6.223h0a77.636,77.636,0,0,0,11.186,3.126.955.955,0,0,0,.367-1.875A76.986,76.986,0,0,1,352.052,132c-10.166-3.934-12.226-8.195-12.913-10.347,1.1.781,2.575,1.93,3.366,2.545,5.951,4.628,19.8,9.005,20.384,9.19a.956.956,0,0,0,.594-1.817c-14.317-4.877-16.467-9.514-17.622-12-.1-.216-.194-.418-.287-.606a5.2,5.2,0,0,1,.557.207c7.937,4.441,19.6,9.7,24.011,11.652a6.839,6.839,0,0,1-2.176.732.956.956,0,0,0-.654,1.6,5.527,5.527,0,0,0,2.812,1.46l-1.29.841a.956.956,0,0,0,.2,1.7,16.471,16.471,0,0,0,3.51.756l-1.074.783a.956.956,0,0,0,.158,1.637,8.832,8.832,0,0,0,3.949.614l-.081.056a.955.955,0,0,0,.347,1.716,15.133,15.133,0,0,0,4.538.108l-.588.392a.955.955,0,0,0,.287,1.719,19.165,19.165,0,0,0,9.944-.628,10.229,10.229,0,0,1-3.108,1.505.956.956,0,0,0-.164,1.812c.025.011.119.047.244.092A17.68,17.68,0,0,1,378.954,150.526ZM374.332,133.2a.951.951,0,0,0-1.1-.548,6.022,6.022,0,0,1-2.691.1,19.311,19.311,0,0,0,2.271-1.214.946.946,0,0,0,.183-.154q2.55,1.026,5.793,1.969l-3.667,2.676a12.378,12.378,0,0,1-3.417-.161l2.276-1.484A.958.958,0,0,0,374.332,133.2Zm8.583,19.655a3.032,3.032,0,0,1-1.282-.367,2.575,2.575,0,0,1,.575-.577,18.99,18.99,0,0,0,7.327-3.7c2.6.189,6.7-.43,10.872-4.623.154.279.316.562.5.85C400.458,144.777,389.674,152.912,382.915,152.852Zm7.452-6.523a51.663,51.663,0,0,0,8.7-7.253,9.482,9.482,0,0,0,.529,2.692.94.94,0,0,0-.214.15C395.959,145.529,392.628,146.326,390.367,146.329ZM408.311,158.7a28.418,28.418,0,0,1-7.143-1.176,22.869,22.869,0,0,0,3.426-3.026.955.955,0,0,0-1.04-1.505,71.462,71.462,0,0,1-9.411,2.467,20.238,20.238,0,0,1,3.982-2.575.955.955,0,0,0-.833-1.719c-2.6,1.223-6.322,2.455-8.651,2.436,6.34-2.283,12.8-7.166,13.419-7.637a19.307,19.307,0,0,0,1.674,1.773C409.439,153.037,408.814,157.2,408.311,158.7Zm1.574,5.825c-.052.063-.122.146-.209.242a22.457,22.457,0,0,0,.22-4.875c.525-1.155,1.589-4.579-1.165-9.121,1.816.264,5.985,1.138,7.789,3.762.239.348.477.734.712,1.134l0,0a22.172,22.172,0,0,0-1.319,10.055,6.268,6.268,0,0,1-1.1-1.823.953.953,0,0,0-.789-.61.963.963,0,0,0-.9.425c-.4.611-.985,1.449-1.565,2.212l.02-.772a.955.955,0,0,0-1.692-.632Zm6.159,11.891a8.323,8.323,0,0,1-1.871,2.265c-.023.021-.046.044-.067.067a2.953,2.953,0,0,1-.48-1.514.956.956,0,0,0-1.787-.538,3.388,3.388,0,0,1-2.689,1.738,5.077,5.077,0,0,1,.756-2.261.956.956,0,0,0-1.44-1.233c-1.4,1.269-3.629.448-3.649.441a.993.993,0,0,0-.281-.063c.617-1.342,1.7-1.452,3.187-1.6a15.274,15.274,0,0,0,1.767-.253c2.94-.643,3.287-3.893,3.059-5.522a.866.866,0,0,0-.044-.124c.46-.566.919-1.186,1.3-1.721a8.618,8.618,0,0,0,.587.785,25.817,25.817,0,0,0,.287,3.977,3.033,3.033,0,0,0,1.479,1.891,2.925,2.925,0,0,0-.248.649,5.276,5.276,0,0,0,.252,2.814A.921.921,0,0,0,416.044,176.411Zm.5-5.958a12.978,12.978,0,0,1-.186-1.77c.267.184.455.295.482.309a.955.955,0,0,0,1.391-1.066,20.048,20.048,0,0,1,.227-9.878c1.645,3.615,2.825,8.076,2.417,11.018a.956.956,0,0,0,.629,1.033.943.943,0,0,0,.271.045c-.01.1-.02.206-.032.3a8.563,8.563,0,0,0-4.1.921C417.2,171.178,416.63,170.84,416.547,170.453Zm12.58,4.938c-.076.138-.17.3-.27.461-1.14-1.51-2.706-3.063-4.046-2.557a2.223,2.223,0,0,0-1.265,2.14c-.088.831-.151,1.177-.844,1.415a.958.958,0,0,0-.614.655l-.107.4a2.645,2.645,0,0,1-.014-2.6.955.955,0,0,0-1.534-1.134,3.837,3.837,0,0,1-2.132,1.207.97.97,0,0,0-.362.13,3.33,3.33,0,0,1-.173-1.668.936.936,0,0,1,.451-.621,6.92,6.92,0,0,1,4.165-.825.945.945,0,0,0,1.082-.724,10.078,10.078,0,0,0,.162-3.641l1.236-2.076a17.008,17.008,0,0,0,1.781,1.951,3.777,3.777,0,0,0-.237,3.317,3.575,3.575,0,0,0,1.366,1.367C429.33,173.709,429.743,174.271,429.127,175.391ZM425.61,163.71a1.052,1.052,0,0,0-.821-.459.957.957,0,0,0-.817.466l-1.241,2.086a30.968,30.968,0,0,0-4.637-12.359c-2.76-4.015-9.585-4.776-10.872-4.771a23.666,23.666,0,0,0-2.188-2.339c-5.665-5.266-3.8-9.475-3.712-9.671.008-.017.006-.034.013-.051a.892.892,0,0,0,.047-.188.937.937,0,0,0,.025-.174,1.063,1.063,0,0,0-.024-.177,1.109,1.109,0,0,0-.043-.179.963.963,0,0,0-.086-.148.8.8,0,0,0-.118-.161c-.013-.013-.018-.031-.032-.044a.814.814,0,0,0-.114-.068.987.987,0,0,0-.109-.084.538.538,0,0,0-.054-.014.959.959,0,0,0-.189-.05.641.641,0,0,0-.351,0,.9.9,0,0,0-.179.043.964.964,0,0,0-.149.085.889.889,0,0,0-.161.118c-.013.013-.031.019-.043.032h0c-6.482,7.081-13.266,7.923-16.781,7.775l4.077-2.719a18.676,18.676,0,0,0,2.414-1.612.955.955,0,0,0-1.119-1.545l-2.239,1.492a16.082,16.082,0,0,1-7.293,2l2.124-1.489a21.654,21.654,0,0,0,5.289-3.72.955.955,0,0,0-1.2-1.482l-5.064,3.55a10.988,10.988,0,0,1-5.7,1.151l7.241-5.286a.956.956,0,0,0-.318-1.695c-11.8-3.142-14.641-6.349-15.281-7.982a2.819,2.819,0,0,1-.115-.348,3.634,3.634,0,0,1,.763.213c11.565,6.8,33.231,9.518,34.147,9.632a.963.963,0,0,0,1.036-.693c.327-1.176,2.216-7.14,7.349-9.077a9.461,9.461,0,0,1,8.811,1.249.955.955,0,0,0,.6.21c2.057,0,3.421.41,3.839,1.156a1.442,1.442,0,0,1,.159.787,3.51,3.51,0,0,0-1.065-.338.948.948,0,0,0-.486.054,5.367,5.367,0,0,1-1.081.135c-1.347.093-3.383.233-4.535,1.946a4.821,4.821,0,0,0-.621,3.687,6.189,6.189,0,0,0,1.638,2.977.938.938,0,0,0,.448.43,8.9,8.9,0,0,0,1.2.9c2.254,1.409,3.908,2.71,4.787,5.9a.927.927,0,0,0,.082.323,25.394,25.394,0,0,1,.623,5.585.956.956,0,0,0,.954.936h.021a.957.957,0,0,0,.936-.975,34.539,34.539,0,0,0-.243-3.511c7.115,5.812,11.316,8.7,13.423,10.145.3.2.579.4.825.57-2.144.2-5.539-1.762-8.194-3.786-.873-.788-1.7-1.439-2.145-1.781a.955.955,0,0,0-1.225,1.464c.242.221,1.012.91,2.094,1.747a12.73,12.73,0,0,1,2.52,2.828c-1.487-.313-5.566-2.739-8.883-5.107a.956.956,0,0,0-1.214,1.47,14.114,14.114,0,0,1,4.6,8.416h0a26.97,26.97,0,0,0,2.346,6.4A14.492,14.492,0,0,1,425.61,163.71Zm21.786-2.649c-5.056.664-10.777-3.19-10.834-3.229a.955.955,0,0,0-1.213,1.464,28.364,28.364,0,0,0,4.577,3.6c.179.119.371.247.555.373-1.838-.092-5.032-2.164-6.793-3.606a.955.955,0,0,0-1.311,1.383,18.775,18.775,0,0,1,1.8,2.292,35.028,35.028,0,0,1-5.452-2.938,19.313,19.313,0,0,0-1.473-4.363c5.549,3.3,6.483,2.19,6.834,1.77a1.658,1.658,0,0,0,.363-1.286v-.007c2.265,1.146,4.693,1.822,6.556.951a2.392,2.392,0,0,0,.7-.468c3.438,1.921,5.237,3.359,5.784,4.049Zm-1.3-3.63c-1.055-.716-2.406-1.54-4.182-2.5a.764.764,0,0,0-.115-.035c.313.012.633.021.962.021a19.866,19.866,0,0,0,2.845-.2.975.975,0,0,0,.231.127c2.959.93,4.74,1.637,5.31,2.11A16.074,16.074,0,0,1,446.1,157.431Zm5.629-2.38a.089.089,0,0,1-.017,0,19.333,19.333,0,0,0-3.25-1.365.914.914,0,0,0,.1-.323.963.963,0,0,0-.175-.652,10.846,10.846,0,0,0,4.206.34,9.834,9.834,0,0,0,3.651-1.587h0c.959,0,3.682-.034,7.171-.321A25.124,25.124,0,0,1,451.727,155.051Zm38.528-16.322c-1.3,1.635-4.252,4.311-9.613,6.721-7.321,3.292-18.133,3.948-22.639,4.075a.87.87,0,0,0-.04-.213.958.958,0,0,0-.8-.643,66.017,66.017,0,0,1-10.3-2.194q4.838.457,9.117.456a66.228,66.228,0,0,0,19.956-2.8c.028,0,.055,0,.083,0,2.944-.771,9.96-3.645,13.728-5.188C489.924,138.863,490.093,138.794,490.255,138.729Zm-5.1-.913c-6.215,3.847-17.053,7.957-34.2,7.039a.949.949,0,0,0-.1-1.758c-.767-.259-1.678-.6-2.564-.973a24.269,24.269,0,0,0,9.287-1.419.955.955,0,0,0-.016-1.788l-1.248-.457c3.167-.132,7.05-.547,9.758-1.687a.955.955,0,0,0,.561-1.09c-.006-.023-.02-.042-.026-.065a96.467,96.467,0,0,0,27.129-11.553c-2.342,3.892-9.145,11.129-28.4,15.68a.955.955,0,0,0,.363,1.873,86.889,86.889,0,0,0,26.752-9.815A33.441,33.441,0,0,1,485.16,137.816Z" fill="#464655"/></g></svg>