<svg xmlns="http://www.w3.org/2000/svg" width="512" height="335.449" viewBox="0 0 512 335.449"><g transform="translate(0 -88.276)"><path d="M512,136.2H0V97.1a8.829,8.829,0,0,1,8.828-8.828H503.173A8.829,8.829,0,0,1,512,97.1v39.1Z" fill="#73af00"/><rect width="512" height="47.923" transform="translate(0 136.201)" fill="#ffe15a"/><rect width="512" height="47.923" transform="translate(0 184.121)" fill="#ff4b55"/><path d="M0,375.8H512V414.9a8.829,8.829,0,0,1-8.828,8.828H8.828A8.829,8.829,0,0,1,0,414.9Z" fill="#73af00"/><rect width="512" height="47.923" transform="translate(0 327.881)" fill="#ffe15a"/><rect width="512" height="47.923" transform="translate(0 279.961)" fill="#ff4b55"/><path d="M512,232.041H195.818L14.222,88.277H8.828a8.725,8.725,0,0,0-5.875,2.338V421.388a8.729,8.729,0,0,0,5.875,2.337h5.395L195.818,279.961H512Z" fill="#464655"/><path d="M2.953,421.387,211.862,256,2.953,90.615A8.717,8.717,0,0,0,0,97.1V414.9A8.718,8.718,0,0,0,2.953,421.387Z" fill="#f5f5f5"/><path d="M86.065,191.449l18.6,37.693,41.6,6.045-30.1,29.339,7.106,41.428-37.2-19.56L48.86,305.954l7.106-41.428-30.1-29.339,41.6-6.045Z" fill="#ff4b55"/><path d="M134.328,260.8l-49.436-38.27c-5.784-13.554-14-22.3-20.984-22.3-5.929,0-8.828,5.495-9.658,8.8a9.782,9.782,0,0,0-5.314,6.083.947.947,0,0,0,.92,1.172l.885-.017c3.972-.092,10.59-.266,12.282,12.352,1.056,7.879-.512,21.992-5.5,32.629a23.685,23.685,0,0,0-2.282,13.694.967.967,0,0,0,1.028.756c.076-.008.26-.015.494-.023l4,22.614a.947.947,0,0,0,.932.782h59.683a.947.947,0,0,0,.92-.723l6.667-27.384c0-.008.011-.012.013-.02s0-.03,0-.045l2.118-8.7c1.567.185,2.5.282,2.551.288a.9.9,0,0,0,.975-.59A.951.951,0,0,0,134.328,260.8Z" fill="#ffe15a"/><path d="M134.328,260.8l-49.436-38.27c-5.784-13.554-14-22.3-20.984-22.3-5.929,0-8.828,5.495-9.658,8.8a9.782,9.782,0,0,0-5.314,6.083.947.947,0,0,0,.92,1.172l.885-.017c3.972-.092,10.59-.266,12.282,12.352,1.056,7.879-.512,21.992-5.5,32.629a23.685,23.685,0,0,0-2.282,13.694.967.967,0,0,0,1.028.756c.076-.008.26-.015.494-.023l4,22.614a.947.947,0,0,0,.932.782h59.683a.947.947,0,0,0,.92-.723l6.667-27.384c0-.008.011-.012.013-.02s0-.03,0-.045l2.118-8.7c1.567.185,2.5.282,2.551.288a.9.9,0,0,0,.975-.59A.951.951,0,0,0,134.328,260.8ZM59.239,262.06c4.512-9.624,6.945-24.106,5.661-33.685-1.832-13.662-9.5-14.091-13.641-14.008a8.027,8.027,0,0,1,4.164-3.778.946.946,0,0,0,.569-.687c.066-.317,1.678-7.768,7.914-7.768,6.159,0,13.93,8.588,19.338,21.368a.942.942,0,0,0,.292.38l46.95,36.345c-8.275-1-29.9-3.983-42.706-9.03-6.695-2.637-8.221-6.65-9.567-10.191a.948.948,0,1,0-1.771.675c1.338,3.518,3.171,8.338,10.644,11.282,1.523.6,3.167,1.171,4.9,1.713-.3.913-2.217,5.566-10.712,8.618-6.884,2.474-11.783,6.644-12.452,10.411-2.516-.01-4.761-.006-6.647.006v-2.735c0-2.078,2-5.087,4.121-8.274,2.953-4.44,6.3-9.473,6.3-14.621a.948.948,0,0,0-1.9,0c0,4.575-3.179,9.355-5.983,13.571-2.382,3.581-4.438,6.674-4.438,9.323v2.751c-1.43.015-2.551.034-3.282.055A23.093,23.093,0,0,1,59.239,262.06Zm37.571-6c-1.1,3.046-4.34,4.077-6.745,4.407a12.359,12.359,0,0,0,3.734-5.244C94.781,255.512,95.789,255.789,96.81,256.059Zm1.826.471q1.564.393,3.158.758c-.967,1.967-3.551,2.932-6.375,3.336A7.578,7.578,0,0,0,98.636,256.53Zm26.783,21.01c-9.6-2.959-37.32-3.716-54.69-3.827.588-2.152,3.314-4.978,7.93-7.243a.817.817,0,0,0,.139.029c25.93.092,43.979,3.938,48.114,4.907Zm-1.223,5.021-3.788-4.226a35.3,35.3,0,0,1,4.562,1.053Zm-49,.668,1.842,1.734c-.567,0-1.126-.01-1.706-.013C75.278,284.394,75.236,283.8,75.192,283.229Zm47.871,3.985-4.813-5.274a.941.941,0,0,0-1.226-.148l-5.652,3.784-4.253-4.661a.951.951,0,0,0-1.276-.113l-5.109,3.917L96.1,280.142a.948.948,0,0,0-1.276-.051l-4.991,4.2-4.676-4.339a.953.953,0,0,0-1.269-.018l-4.878,4.287L75,280.445q-.1-1.689-.186-3.479l3.591,3.526a.95.95,0,0,0,1.281.042l5.023-4.324,4.589,4.519a.951.951,0,0,0,1.272.053l5.039-4.2,4.835,4.555a.944.944,0,0,0,1.226.062l5.057-3.879,4.231,4.855a.95.95,0,0,0,1.265.148l5.625-4.008,5.592,6.238a.927.927,0,0,0,.233.168Zm-2.843-.3c-1.508-.191-3.614-.416-6.466-.647l3.648-2.442Zm-11.087-.977c-1.9-.12-4.035-.236-6.417-.345l3.59-2.752Zm-10.384-.511c-2.168-.082-4.525-.156-7.057-.221l3.69-3.1Zm-10.813-.308c-2.184-.045-4.5-.082-6.946-.111l3.507-3.08Zm-11.741-9.442c1.966.025,4.014.061,6.109.105l-3.2,2.753Zm10.889.22c2.036.056,4.093.125,6.146.2l-3.218,2.681Zm10.988.411c2.174.105,4.32.222,6.4.356l-3.319,2.546Zm10.877.685c2.338.19,4.55.4,6.586.648l-3.715,2.647Zm-50.268-1.345c2.847-.042,7.95-.065,14.175-.009a125.311,125.311,0,0,0,2.337,21.55h-12.7Zm61.956,21.542h-43.5a84.174,84.174,0,0,1-1.617-10.338c31.69.209,43.729,1.782,46.738,2.274a.921.921,0,0,0,.3.2Zm6.723-27.618c-4.006-.937-20.542-4.446-44.4-4.9a27.422,27.422,0,0,0,4.321-2.145,36.081,36.081,0,0,0,4.307.254c4.323,0,10.4-.818,12.073-5.064,9.846,2.155,19.938,3.57,25.542,4.27Z" fill="#464655"/><path d="M66.592,208.607a3.158,3.158,0,1,0-3.158,3.158A3.161,3.161,0,0,0,66.592,208.607Zm-3.158,1.263a1.263,1.263,0,1,1,1.263-1.263A1.264,1.264,0,0,1,63.434,209.87Z" fill="#464655"/><path d="M89.907,267.322a3.105,3.105,0,1,0,3.106,3.105A3.108,3.108,0,0,0,89.907,267.322Zm0,4.316a1.21,1.21,0,1,1,1.212-1.21A1.211,1.211,0,0,1,89.907,271.638Z" fill="#464655"/><path d="M99.19,267.852a3.105,3.105,0,1,0,3.105,3.106A3.11,3.11,0,0,0,99.19,267.852Zm0,4.316a1.211,1.211,0,1,1,1.21-1.21A1.213,1.213,0,0,1,99.19,272.168Z" fill="#464655"/></g></svg>