<svg xmlns:rdf="http://www.w3.org/1999/02/22-rdf-syntax-ns#" xmlns="http://www.w3.org/2000/svg" height="512" width="512" version="1.1" xmlns:cc="http://creativecommons.org/ns#" xmlns:dc="http://purl.org/dc/elements/1.1/" viewBox="0 0 512.00001 512.00001">
	<g transform="translate(0 -540.36)">
		<path d="m247.4 1050.5c-5.75-2.3-161.54-157.23-165.46-164.6-9.8415-18.522 11.816-41.289 30.354-31.909 2.2962 1.1618 30.193 28.035 61.994 59.718l57.819 57.606v-206c0-221.87-0.31125-214.81 9.7802-221.87 5.7754-4.0453 22.335-4.1243 28.033-0.1338 10.435 7.3087 9.9712-2.9639 9.9712 221.02v206.99l57.819-57.606c31.8-31.683 59.698-58.557 61.994-59.718 18.538-9.3797 40.196 13.388 30.354 31.909-3.3096 6.2286-158.92 161.56-164.85 164.56-5.0112 2.5341-11.323 2.5349-17.806 0z"/>
	</g>
</svg>
