<svg xmlns:inkscape="http://www.inkscape.org/namespaces/inkscape" xmlns:rdf="http://www.w3.org/1999/02/22-rdf-syntax-ns#" xmlns="http://www.w3.org/2000/svg" sodipodi:docname="arrow-right.svg" height="512" width="512" version="1.1" xmlns:cc="http://creativecommons.org/ns#" xmlns:dc="http://purl.org/dc/elements/1.1/" inkscape:version="0.91 r13725" viewBox="0 0 512.00001 512.00001" xmlns:sodipodi="http://sodipodi.sourceforge.net/DTD/sodipodi-0.dtd">
	<sodipodi:namedview bordercolor="#666666" inkscape:pageshadow="2" inkscape:window-y="-8" pagecolor="#ffffff" inkscape:window-height="1017" inkscape:window-maximized="1" inkscape:zoom="0.35" inkscape:window-x="-8" showgrid="false" borderopacity="1.0" inkscape:current-layer="layer1" inkscape:cx="-126.42857" inkscape:cy="520" units="px" inkscape:window-width="1920" inkscape:pageopacity="0.0" inkscape:document-units="px"/>
	<g inkscape:label="Layer 1" inkscape:groupmode="layer" transform="translate(0 -540.36)">
		<path inkscape:connector-curvature="0" d="m131.91 1050.9c-6.1403-2.1672-13.434-9.8394-15.288-16.08-1.976-6.6539-1.853-10.941 0.49783-17.365 1.8846-5.1495 6.5905-10.007 109.69-113.23l107.72-107.86-106.85-106.85c-75.6-75.59-107.57-108.16-109.3-111.34-9.56-17.565 4.8923-39.601 24.722-37.696 10.345 0.99405 5.9321-3.1225 132.54 123.63 113.13 113.26 118.26 118.54 119.81 123.33 2.2568 6.9993 1.5394 16.239-1.6814 21.653-1.3269 2.2305-55.087 56.61-120.75 122.14-108.71 108.49-118.74 118.25-123.01 119.7-5.682 1.926-12.562 1.9078-18.103-0.048z"/>
	</g>
</svg>
