<svg xmlns:inkscape="http://www.inkscape.org/namespaces/inkscape" xmlns:rdf="http://www.w3.org/1999/02/22-rdf-syntax-ns#" xmlns="http://www.w3.org/2000/svg" sodipodi:docname="arrow-line-left.svg" height="512" width="512" version="1.1" xmlns:cc="http://creativecommons.org/ns#" xmlns:dc="http://purl.org/dc/elements/1.1/" inkscape:version="0.91 r13725" viewBox="0 0 512.00001 512.00001" xmlns:sodipodi="http://sodipodi.sourceforge.net/DTD/sodipodi-0.dtd">
	<sodipodi:namedview bordercolor="#666666" inkscape:pageshadow="2" inkscape:window-y="-8" pagecolor="#ffffff" inkscape:window-height="1017" inkscape:window-maximized="1" inkscape:zoom="0.35" inkscape:window-x="-8" showgrid="false" borderopacity="1.0" inkscape:current-layer="layer1" inkscape:cx="-126.42857" inkscape:cy="520" units="px" inkscape:window-width="1920" inkscape:pageopacity="0.0" inkscape:document-units="px"/>
	<g inkscape:label="Layer 1" inkscape:groupmode="layer" transform="translate(0 -540.36)">
		<path inkscape:connector-curvature="0" d="m164.99 969.46c-9.09-5.73-162.93-161.27-164.42-166.23-0.73567-2.4576-0.76525-7.6203-0.0658-11.473 1.1011-6.06 12.081-17.85 80.969-86.97 43.837-43.98 82.017-81.2 84.857-82.7 18.545-9.8229 41.303 11.832 31.921 30.374-1.1623 2.2971-28.046 30.205-59.741 62.017l-57.628 57.841h206.08c221.95 0 214.89-0.31137 221.96 9.7839 4.0468 5.7776 4.1259 22.344 0.1339 28.043-7.3115 10.439 2.965 9.9749-221.1 9.9749h-207.07l57.628 57.841c31.695 31.812 58.579 59.72 59.741 62.017 7.1034 14.039-5.6794 33.124-22.171 33.102-2.9442-0.004-7.9345-1.6339-11.089-3.6222z"/>
	</g>
</svg>
