<?xml version="1.0" encoding="UTF-8" standalone="no"?>
<svg
   xmlns:dc="http://purl.org/dc/elements/1.1/"
   xmlns:cc="http://creativecommons.org/ns#"
   xmlns:rdf="http://www.w3.org/1999/02/22-rdf-syntax-ns#"
   xmlns:svg="http://www.w3.org/2000/svg"
   xmlns="http://www.w3.org/2000/svg"
   xmlns:sodipodi="http://sodipodi.sourceforge.net/DTD/sodipodi-0.dtd"
   xmlns:inkscape="http://www.inkscape.org/namespaces/inkscape"
   width="512"
   height="512"
   viewBox="0 0 512 512"
   version="1.1"
   id="svg8"
   inkscape:version="1.0.1 (3bc2e813f5, 2020-09-07)"
   sodipodi:docname="arrow-clock.svg">
  <defs
     id="defs2" />
  <sodipodi:namedview
     id="base"
     pagecolor="#ffffff"
     bordercolor="#666666"
     borderopacity="1.0"
     inkscape:pageopacity="0.0"
     inkscape:pageshadow="2"
     inkscape:zoom="0.7"
     inkscape:cx="435.2904"
     inkscape:cy="292.55607"
     inkscape:document-units="px"
     inkscape:current-layer="layer1"
     inkscape:document-rotation="0"
     showgrid="false"
     units="px"
     inkscape:window-width="1920"
     inkscape:window-height="1017"
     inkscape:window-x="-8"
     inkscape:window-y="-8"
     inkscape:window-maximized="1" />
  <metadata
     id="metadata5">
    <rdf:RDF>
      <cc:Work
         rdf:about="">
        <dc:format>image/svg+xml</dc:format>
        <dc:type
           rdf:resource="http://purl.org/dc/dcmitype/StillImage" />
        <dc:title></dc:title>
      </cc:Work>
    </rdf:RDF>
  </metadata>
  <g
     inkscape:label="Слой 1"
     inkscape:groupmode="layer"
     id="layer1">
    <path
       style="fill:#000000;stroke-width:0.743461"
       d="M 260.13079,495.83034 C 223.83458,493.01847 196.4412,485.41251 164.71904,469.33856 99.076701,436.07694 51.357788,370.61273 39.224797,297.17658 c -2.16185,-13.08479 -2.30899,-14.43752 -3.02471,-27.80707 -1.00165,-18.71038 0.66211,-42.60143 4.10009,-58.87615 0.59439,-2.81369 0.92415,-5.27155 0.73281,-5.46189 -0.19135,-0.19035 -2.64356,0.97058 -5.44937,2.57982 -6.67957,3.83099 -9.23203,4.66103 -14.333341,4.66103 -5.9757,0 -10.62641,-1.79975 -14.6145604,-5.6556 C 1.8244653,201.96506 0.01921523,197.65338 1.2522575e-4,190.76817 -0.01757477,184.36785 1.8404553,179.6772 5.9695755,175.69849 8.7902357,172.98056 65.619529,140.28478 69.974189,138.8745 c 7.027091,-2.27579 17.494951,0.90273 22.193921,6.73906 1.70304,2.11526 28.68531,49.43741 34.20243,59.98506 2.44554,4.6754 2.49478,13.01333 0.10564,17.8909 -3.90515,7.97262 -11.12424,12.50317 -19.89866,12.48797 -9.193849,-0.0159 -14.6007,-3.60703 -19.94877,-13.24949 -3.5826,-6.45938 -3.479,-6.57723 -5.4746,6.22856 -1.92725,12.36719 -1.97418,43.789 -0.0829,55.51469 7.16279,44.40847 25.72255,81.18304 56.40053,111.7528 29.10042,28.99777 66.67744,47.86803 108.4963,54.48418 11.74791,1.85863 35.87481,2.23092 48.82401,0.75339 24.391,-2.78309 43.1162,-8.16947 64.4775,-18.54729 43.6015,-21.18267 78.49331,-58.84227 96.21971,-103.8523 8.5729,-21.76782 12.7284,-41.99962 13.4789,-65.6247 1.1153,-35.10993 -6.0582,-66.86807 -22.0257,-97.51014 -18.2931,-35.10522 -45.49701,-62.82732 -80.34801,-81.878579 -19.443,-10.628484 -44.0922,-18.669609 -69.5662,-22.694072 -10.2109,-1.613156 -35.9934,-2.268909 -46.21601,-1.175474 -32.0748,3.430884 -62.95283,14.283074 -87.94921,30.910133 -9.93941,6.611476 -12.68711,7.732904 -18.9227,7.723004 -5.86798,-0.0094 -10.94578,-2.312606 -15.15604,-6.8748 -4.38045,-4.7466 -5.6511,-7.993528 -5.72223,-14.622084 -0.054,-5.026304 0.19455,-6.025182 2.5825,-10.381313 2.50575,-4.571006 3.1979,-5.193253 13.40428,-12.050391 53.85263,-36.180824 123.68461,-47.9747234 187.93271,-31.739886 25.5652,6.46004 43.1879,13.207171 62.3176,23.85914 18.8678,10.506112 34.287,22.012134 49.99201,37.30455 36.4338,35.476722 59.9286,79.330162 68.9554,128.706412 3.1076,16.9991 3.7993,25.27098 3.7511,44.86209 -0.048,19.73078 -0.907,28.6555 -4.4582,46.34512 -9.2981,46.31705 -32.1104,88.69014 -65.8913,122.39111 -19.59491,19.54848 -38.03851,32.63023 -63.74351,45.21233 -25.2095,12.33952 -47.4116,18.88907 -76.7767,22.64878 -8.1953,1.04929 -33.961,1.90217 -40.9972,1.35708 z m 62.7887,-165.69974 c -1.5438,-0.37368 -4.0595,-1.32515 -5.5905,-2.11438 -4.022,-2.07327 -59.2004,-57.44207 -61.40091,-61.61281 l -1.7605,-3.33684 -0.2029,-62.60318 c -0.2321,-71.61345 -0.597,-67.20569 6.11751,-73.88522 4.9065,-4.88101 9.6542,-6.59251 16.8642,-6.07933 8.0315,0.57166 14.4622,5.22791 18.1397,13.13447 1.5401,3.31139 1.5765,4.4106 1.9422,58.74746 l 0.3727,55.37294 24.0819,24.52758 c 26.8578,27.35491 27.2736,27.9157 27.2542,36.75964 -0.013,6.11038 -2.0234,11.00742 -6.2391,15.2012 -4.9427,4.91686 -13.2591,7.41815 -19.5785,5.88847 z"
       id="path863" />
  </g>
</svg>
