<svg xmlns:rdf="http://www.w3.org/1999/02/22-rdf-syntax-ns#" xmlns="http://www.w3.org/2000/svg" height="512" width="512" version="1.1" xmlns:cc="http://creativecommons.org/ns#" xmlns:dc="http://purl.org/dc/elements/1.1/" viewBox="0 0 512.00001 512.00001">
	<g transform="translate(0 -540.36)">
		<path d="m248.98 1050.1c-2.6288-1.3325-5.2639-3.6773-6.4619-5.75-1.9524-3.3781-2.0327-5.389-2.3057-57.75l-0.28285-54.25h-113.26-113.26l-4.4619-2.25c-3.2477-1.63-5.0563-3.44-6.7-6.7l-2.25-4.46v-122.58-122.57l2.25-4.47c1.6437-3.2596 3.4523-5.0682 6.7119-6.7119l4.4619-2.25h113.29 113.29l0.006-52.25c0.004-34.586 0.37362-53.576 1.0943-56.171 2.2683-8.1714 10.995-13.03 19.15-10.661 3.7456 1.0879 18.81 15.795 126.92 123.91 108.11 108.11 122.82 123.18 123.91 126.92 2.7577 9.4948 10.728 0.76665-122.91 134.6-84.19 84.29-122.9 122.39-125.67 123.69-5.2536 2.4632-8.1427 2.3926-13.515-0.3306z"/>
	</g>
</svg>
