<svg xmlns:rdf="http://www.w3.org/1999/02/22-rdf-syntax-ns#" xmlns="http://www.w3.org/2000/svg" height="512" width="512" version="1.1" xmlns:cc="http://creativecommons.org/ns#" xmlns:dc="http://purl.org/dc/elements/1.1/" viewBox="0 0 512.00001 512.00001">
	<g transform="translate(0 -540.36)">
		<path d="m136.45 1003.2c-4.8524-1.7317-8.734-5.2092-10.823-9.6966l-1.9323-4.1498-0.008-167.44-0.008-167.44-46.835 46.694c-51.796 51.63-49.701 49.89-59.32 49.19-6.35-0.46-11.722-3.71-15.072-9.13-2.1273-3.44-2.4549-4.74-2.4549-9.71 0-4.7812 0.36381-6.3505 2.1768-9.3901 2.7418-4.5968 128.15-129.86 132.04-131.89 3.89-2.0276 13.141-2.0276 17.031 0 3.7234 1.9407 129.27 127.23 131.87 131.6 7.544 12.672-1.7914 28.678-16.707 28.645-8.534-0.0189-8.0893 0.36071-58.189-49.675l-46.43-46.37v167.68 167.68l-2.0157 3.9777c-3.2177 6.3498-9.9492 10.495-17.043 10.495-1.7842 0-4.6133-0.4886-6.2869-1.0858zm226.38 0.088c-1.6124-0.6033-3.9846-1.8627-5.2715-2.7984-4.6276-3.3648-128.32-127.98-129.63-130.6-6.3673-12.717 3.0654-27.739 17.398-27.707 8.5486 0.019 8.0807-0.3804 58.189 49.676l46.43 46.382v-167.52-167.52l2.2302-4.4032c6.9818-13.784 26.675-13.784 33.656 0l2.2302 4.4032v167.52 167.52l46.43-46.382c35.431-35.394 47.294-46.771 50.079-48.024 8.1715-3.6773 18.058-1.3372 23.294 5.5134 4.5506 5.9542 5.4305 14.118 2.2141 20.542-1.7948 3.5849-127.15 129.14-131.55 131.76-4.1934 2.4955-11.405 3.2479-15.705 1.6387z"/>
	</g>
</svg>
