<?xml version="1.0" encoding="UTF-8" standalone="no"?>
<svg id="svg2" xmlns:rdf="http://www.w3.org/1999/02/22-rdf-syntax-ns#" xmlns="http://www.w3.org/2000/svg" height="512" width="512" version="1.1" xmlns:cc="http://creativecommons.org/ns#" xmlns:dc="http://purl.org/dc/elements/1.1/" viewBox="0 0 512.00001 512.00001">
	<g id="layer1" transform="translate(0,-540.36216)">
		<path id="path3347" d="m116.25176 680.61041 115.25176-115.24852 32.74807 32.74807 32.74807 32.74807-82.74757 82.75207-82.74757 82.75208 82.74946 82.75396 82.74946 82.75397-32.75533 32.74405-32.75533 32.74404l-115.24639-115.24962c-63.38551-63.3873-115.24639-115.47464-115.24639-115.74964s51.86329-52.36184 115.25176-115.74853zm215 0 115.25176-115.24852 32.74807 32.74807 32.74807 32.74807-82.74757 82.75207-82.74757 82.75208 82.74946 82.75396 82.74946 82.75397-32.75533 32.74405-32.75533 32.74404l-115.24639-115.24962c-63.38551-63.3873-115.24639-115.47464-115.24639-115.74964s51.86329-52.36184 115.25176-115.74853z"/>
	</g>
</svg>
