<svg width="512" height="512" version="1.1" viewBox="0 0 512 512" xmlns="http://www.w3.org/2000/svg">
	<g transform="translate(0 -610.52)">
		<path d="m380.09 612c6.1403 2.1672 13.434 9.8393 15.288 16.08 1.976 6.6538 1.8531 10.941-0.49782 17.365-1.8847 5.1495-6.5905 10.007-109.69 113.23l-107.72 107.85 106.85 106.85c75.596 75.594 107.57 108.16 109.3 111.34 9.5599 17.565-4.8923 39.601-24.722 37.696-10.345-0.99405-5.9321 3.1224-132.54-123.63-113.13-113.26-118.26-118.54-119.81-123.33-2.2568-6.9993-1.5394-16.239 1.6814-21.653 1.3269-2.2305 55.087-56.61 120.75-122.14 108.71-108.49 118.74-118.25 123.01-119.7 5.682-1.926 12.562-1.9077 18.103 0.048039z" stroke-width=".92965"/>
	</g>
</svg>
