<svg width="512" height="512" version="1.1" viewBox="0 0 512 512" xmlns="http://www.w3.org/2000/svg">
	<g transform="translate(0 -610.52)">
		<path d="m1.4798 742.43c2.1672-6.1403 9.8393-13.434 16.08-15.288 6.6538-1.976 10.941-1.8531 17.365 0.49782 5.1495 1.8847 10.007 6.5905 113.23 109.69l107.85 107.72 106.85-106.85c75.594-75.596 108.16-107.57 111.34-109.3 17.565-9.5599 39.601 4.8923 37.696 24.722-0.99405 10.345 3.1224 5.9321-123.63 132.54-113.26 113.13-118.54 118.26-123.33 119.81-6.9993 2.2568-16.239 1.5394-21.653-1.6814-2.2305-1.3269-56.61-55.087-122.14-120.75-108.49-108.71-118.25-118.74-119.7-123.01-1.926-5.682-1.9077-12.562 0.048039-18.103z" stroke-width=".92965"/>
	</g>
</svg>
