<svg xmlns:inkscape="http://www.inkscape.org/namespaces/inkscape" xmlns:rdf="http://www.w3.org/1999/02/22-rdf-syntax-ns#" xmlns="http://www.w3.org/2000/svg" sodipodi:docname="urrow-up.svg" height="512" width="512" version="1.1" xmlns:cc="http://creativecommons.org/ns#" xmlns:dc="http://purl.org/dc/elements/1.1/" inkscape:version="0.91 r13725" viewBox="0 0 512.00001 512.00001" xmlns:sodipodi="http://sodipodi.sourceforge.net/DTD/sodipodi-0.dtd">
	<sodipodi:namedview bordercolor="#666666" inkscape:pageshadow="2" inkscape:window-y="-8" pagecolor="#ffffff" inkscape:window-height="1017" inkscape:window-maximized="1" inkscape:zoom="0.35" inkscape:window-x="-8" showgrid="false" borderopacity="1.0" inkscape:current-layer="layer1" inkscape:cx="-126.42857" inkscape:cy="520" units="px" inkscape:window-width="1920" inkscape:pageopacity="0.0" inkscape:document-units="px"/>
	<g inkscape:label="Layer 1" inkscape:groupmode="layer" transform="translate(0 -540.36)">
		<path inkscape:connector-curvature="0" d="m17.05 936.08c-6.4798-2.0688-13.985-9.9029-15.944-16.644-1.9181-6.5981-1.324-13.603 1.6426-19.364 1.7031-3.3075 30.388-32.456 120.7-122.65 113.7-113.55 118.67-118.39 123.55-120.16 6.1227-2.2306 11.131-2.345 17.44-0.39805 4.5452 1.4026 9.0045 5.7396 124.45 121.04 111.71 111.57 119.86 119.91 121.57 124.42 2.3101 6.1035 1.9717 15.355-0.75525 20.65-2.4801 4.8154-7.7831 9.975-12.527 12.188-5.7846 2.6988-16.548 2.5988-21.968-0.2042-2.7751-1.435-36.054-34.119-111.6-109.6l-107.63-107.55-107.2 107.26c-82.092 82.14-108.23 107.79-111.59 109.53-5.5288 2.8527-13.919 3.475-20.127 1.4929z"/>
	</g>
</svg>
