<svg xmlns:rdf="http://www.w3.org/1999/02/22-rdf-syntax-ns#" xmlns="http://www.w3.org/2000/svg" height="512" width="512" version="1.1" xmlns:cc="http://creativecommons.org/ns#" xmlns:dc="http://purl.org/dc/elements/1.1/" viewBox="0 0 512.00001 512.00001">
	<g transform="translate(0 -540.36)">
		<path d="m249.5 1050.4c-2.77-1.3-41.48-39.4-125.67-123.69-133.57-133.76-125.7-125.15-122.9-134.51 1.5809-5.28 5.613-9.34 10.649-10.74 2.595-0.72 21.585-1.09 56.171-1.09l52.25-0.006v-113.29-113.29l2.25-4.4619c1.6437-3.2596 3.4523-5.0682 6.7119-6.7119l4.4619-2.25h122.58 122.58l4.4619 2.25c3.2596 1.6437 5.0682 3.4523 6.7119 6.7119l2.25 4.4619v113.29 113.29l52.25 0.006c34.586 0.004 53.576 0.37362 56.171 1.0943 5.0358 1.3982 9.0679 5.4629 10.647 10.733 2.8055 9.364 10.67 0.75535-122.9 134.52-84.188 84.313-122.9 122.43-125.67 123.73-2.2 1.0315-5.125 1.8755-6.5 1.8755s-4.3-0.844-6.5-1.8755z"/>
	</g>
</svg>
