<svg xmlns:rdf="http://www.w3.org/1999/02/22-rdf-syntax-ns#" xmlns="http://www.w3.org/2000/svg" height="512" width="512" version="1.1" xmlns:cc="http://creativecommons.org/ns#" xmlns:dc="http://purl.org/dc/elements/1.1/" viewBox="0 0 512.00001 512.00001">
	<g transform="translate(0 -540.36)">
		<path d="m242.07 1049.4c-10.439-7.3114-9.9749 2.9651-9.9749-221.1v-207.07l-57.841 57.628c-31.812 31.695-59.72 58.579-62.017 59.741-18.542 9.3818-40.197-13.376-30.374-31.921 4.0407-7.6284 161.9-164.2 167.13-165.76 2.4576-0.73558 7.6203-0.76503 11.472-0.065 6.0542 1.0994 17.848 12.08 86.967 80.967 43.979 43.832 81.193 82.019 82.698 84.858 9.8229 18.545-11.832 41.303-30.374 31.921-2.2971-1.1622-30.205-28.046-62.017-59.741l-57.841-57.628v206.08c0 221.95 0.31137 214.89-9.7839 221.96-5.7776 4.0467-22.344 4.1259-28.043 0.1338z"/>
	</g>
</svg>
