<svg width="512" height="512" version="1.1" viewBox="0 0 512 512" xmlns="http://www.w3.org/2000/svg">
	<g transform="translate(0 -610.52)">
		<path d="m232.2 1116.3c-5.9047-1.7058-10.622-7.479-14.615-17.886-7.7495-20.196-13.398-42.029-17.206-66.5-2.4863-15.98-3.0053-49.259-1.0327-66.22l1.6538-14.22-113.3-133.06-7.1335-0.030876c-22.278-0.096424-46.333-7.2778-63.134-18.847-10.775-7.4202-14.406-15.867-11.1-25.822 1.4518-4.371 8.9141-12.137 77.353-80.506 53.913-53.857 76.611-75.898 78.746-76.467 10.496-2.7957 19.763 0.84257 25.972 10.196 12.532 18.881 19.528 41.461 19.528 63.028v9.2893l59.741 50.83c32.858 27.956 62.598 53.254 66.089 56.218l6.3482 5.3884 10.161-1.7726c13.218-2.306 44.02-3.1257 58.901-1.5675 15.217 1.5934 34.639 5.2802 49.882 9.4695 16.1 4.4247 36.435 12.019 40.514 15.13 6.8244 5.2052 9.3271 16.683 5.4431 24.964-1.2647 2.6961-20 22.089-57.474 59.492l-55.597 55.492 55.393 55.508c30.466 30.529 56.076 56.873 56.91 58.542 2.4424 4.8851 3.0368 10.15 1.6892 14.964-3.5086 12.532-17.276 18.737-29.109 13.12-1.8703-0.88778-28.284-26.506-58.884-57.11l-55.492-55.5-56.508 56.413c-48.369 48.288-57.084 56.568-60.508 57.49-4.7145 1.2694-8.7762 1.2613-13.233-0.02631zm215.43-258.52c-0.12162-0.12162-5.1658-1.3534-11.209-2.7373-32.217-7.3773-66.345-7.9598-91.655-1.5641-9.8945 2.5003-12.278 2.4325-18.333-0.52156-7.1857-3.5057-155.23-129.83-158.29-135.07-2.1967-3.7576-2.2871-4.6265-1.7132-16.467 0.5613-11.582-0.58623-25.461-2.3751-28.726-0.42529-0.77622-19.037 17.381-50.74 49.5-27.537 27.899-50.251 51.144-50.474 51.654-0.85296 1.9506 6.1975 2.8026 22.602 2.7313 15.833-0.068804 17.284 0.08082 21 2.1649 2.852 1.5996 22.478 23.93 68.735 78.207 35.609 41.783 65.647 77.798 66.75 80.034 2.5407 5.1489 2.5209 9.3586-0.11358 24.085-2.5145 14.056-3.0402 44.858-1.0299 60.349 1.3795 10.63 4.6607 27.732 6.308 32.878l1.0814 3.3783 99.839-99.836c54.912-54.91 99.74-99.935 99.618-100.06z"/>
	</g>
</svg>
