<svg xmlns:rdf="http://www.w3.org/1999/02/22-rdf-syntax-ns#" xmlns="http://www.w3.org/2000/svg" height="512" width="512" version="1.1" xmlns:cc="http://creativecommons.org/ns#" xmlns:dc="http://purl.org/dc/elements/1.1/" viewBox="0 0 512.00001 512.00001">
	<g transform="translate(0 -540.36)">
		<path d="m161.02 1050.6c-4.1339-2.0652-6.9986-7.1902-7.0008-12.525-0.002-4.925 6.017-16.887 13.719-27.265 16-21.559 40.998-37.053 68.558-42.494l5.752-1.1354v-135.5-135.5l-2.7509-1.1111c-16.477-6.655-27.193-15.861-33.288-28.596-2.451-5.1214-3.9065-7.1056-4.9708-6.7763-5.5476 1.7163-71.665 17.716-76.413 18.491-3.2364 0.52832-6.0932 1.1694-6.3484 1.4246-0.25521 0.2552 15.201 33.244 34.346 73.309l34.81 72.845-0.0599 8.5029c-0.10834 15.37-7.206 36.388-16.716 49.499-9.2902 12.809-25.895 26.311-39.147 31.831-14.995 6.2463-19.9 7.1998-37.013 7.1952-12.535 0-17.518-0.41324-22.98-1.8899-31.893-8.6-56.897-32.08-66.939-62.85-2.8565-8.75-5.0718-24.53-4.1405-29.49 0.36748-1.96 17.292-38.36 37.608-80.9 20.318-42.53 36.941-77.53 36.941-77.76 0-0.23296-3.1224-2.7018-6.9387-5.4862-8.5617-6.2468-10.452-8.9938-10.452-15.19 0-11.636 12.349-17.987 22.003-11.316 2.14 1.4788 6.0758 4.1807 8.7464 6.0043 7.0978 4.8468 14.467 6.7764 25.155 6.587 7.7875-0.13803 14.267-1.4918 47.991-10.027l38.988-9.8672 2.0613-5.9459c1.1337-3.2702 3.3354-8.2736 4.8927-11.119 5.5094-10.065 18.894-21.279 29.672-24.859l4.9386-1.6403 0.004-18.176c0.003-16.251 0.21014-18.514 1.9529-21.373 5.3279-8.738 15.809-9.5664 23.052-1.8219 2.4634 2.6339 2.5055 2.9633 2.8093 21.99l0.30845 19.316 5.8698 2.1403c16.169 5.8954 29.47 20.375 34.419 37.467l1.1574 3.9976 39.489 9.8779c33.058 8.2692 40.874 9.9027 47.992 10.03 10.64 0.1904 17.487-1.784 25.968-7.4877 3.502-2.3554 7.5323-5.068 8.9563-6.0279 8.6346-5.8209 22.033 2.9254 20.738 13.537-0.65256 5.3469-2.7829 8.1178-10.659 13.864l-6.8881 5.0257 2.3388 5.1658c1.2863 2.8412 17.709 37.352 36.494 76.69 18.786 39.338 34.646 73.443 35.245 75.788 1.4171 5.5446-0.42305 20.748-3.7417 30.915-9.9254 30.406-33.826 53.5-64.61 62.431-10.522 3.0524-31.541 3.7726-42.931 1.4708-28.133-5.6853-53.148-24.981-66.198-51.064-5.876-11.744-10.691-33.916-9.1499-42.132 0.36205-1.9299 16.309-36.229 35.438-76.221l34.779-72.712-10.644-2.1389c-5.8544-1.1764-24.941-5.738-42.415-10.137l-31.771-7.998-3.9813 7.6361c-6.5175 12.5-16.905 21.939-29.253 26.581l-6.2594 2.3531-0.25367 135.58-0.25366 135.58 5.7555 1.1156c34.5 6.6867 63.577 28.171 78.865 58.273 4.083 8.0393 4.5366 14.431 1.3904 19.592-3.9364 6.4564 0.34385 6.1921-100.23 6.1904-84.93-0.001-91.558-0.1238-94.814-1.7506zm154.01-30.851c-31.175-32.108-82.855-33.028-115.75-2.0616-2.8885 2.7193-5.2518 5.3291-5.2518 5.7996 0 0.4703 28.228 0.8552 62.73 0.8552h62.73l-4.4597-4.5932zm-205.64-126.36c12.002-3.0696 20.898-8.2226 30.191-17.487 8.4683-8.4426 13.192-15.633 16.405-24.97l1.9224-5.5875h-63.914-63.914l1.8221 5.2961c4.9298 14.329 18.445 30.133 31.594 36.945 14.632 7.5803 30.902 9.6375 45.894 5.8033zm324.11 0c18.041-4.6142 34.716-17.527 42.601-32.991 1.2489-2.4494 3.0912-6.8384 4.0941-9.7533l1.8235-5.2999h-63.576-63.576l0.63453 2.7509c0.34899 1.513 2.4983 6.5717 4.7762 11.241 3.2759 6.7156 5.8321 10.171 12.228 16.53 10.608 10.547 20.16 15.534 36.096 18.847 5.5027 1.1438 17.807 0.48917 24.899-1.3248zm-282.65-77.92c-1.64-4.21-56.45-118.18-56.84-118.18-0.44388 0.003-54.3 112.22-56.251 117.2-0.69136 1.7672 1.4014 1.8354 56.353 1.8354 31.389 0 56.921-0.38664 56.737-0.8592zm323.88-0.73085c-0.97953-2.5526-54.581-114.8-55.595-116.42-0.50599-0.80934-1.0842-1.2595-1.285-1.0003-0.20079 0.25916-12.671 26.355-27.711 57.991s-27.746 58.307-28.234 59.27c-0.84097 1.6572 2.162 1.7506 56.273 1.7506 51.83 0 57.105-0.14831 56.551-1.59zm-206.05-148.26c5.6137-2.8778 11.913-10.295 13.949-16.423 4.4791-13.485-2.7106-28.733-16.24-34.442-5.7112-2.4097-16.054-2.1556-21.603 0.53074-14.107 6.8291-20.087 22.807-13.818 36.918 2.7325 6.1499 9.2949 12.388 15.4 14.64 5.8204 2.1467 16.925 1.5378 22.312-1.2235z"/>
	</g>
</svg>
