<svg xmlns:rdf="http://www.w3.org/1999/02/22-rdf-syntax-ns#" xmlns="http://www.w3.org/2000/svg" height="512" width="512" version="1.1" xmlns:cc="http://creativecommons.org/ns#" xmlns:dc="http://purl.org/dc/elements/1.1/" viewBox="0 0 512.00001 512.00001">
	<g transform="translate(0 -540.36)">
		<path d="m20.071 970.52c-7.313-1.22-14.543-6.83-18.091-14.04l-1.98-4.02v-114.55-114.55l1.8636-3.94c3.384-7.1419 10.557-12.803 18.001-14.205 1.8869-0.35558 14.918-0.60398 31.684-0.60398h28.479v-26.948c0-22.141 0.16111-27.58 0.90316-30.494 3.0585-12.009 12.986-21.732 25.277-24.756 2.7161-0.66828 35.091-0.8052 190.4-0.8052 179.97 0 187.27 0.0419 190.7 1.094 11.582 3.5494 20.81 12.928 23.809 24.198 0.74697 2.8071 0.87061 17.983 0.87668 107.61 0.008 115.21 0.25615 107.55-3.736 115.22-2.6537 5.0991-9.7399 11.966-14.941 14.479-7.1021 3.431-9.2748 3.6472-36.781 3.6586l-24.822 0.0103-0.16826 32.279-0.16833 32.279-1.8501 3.9043c-3.4887 7.3623-10.837 12.93-18.764 14.216-4.7406 0.76923-386.07 0.73161-390.69-0.0386zm49.247-26.048c0-2.6212-2.7603-11.574-4.8446-15.713-6.679-13.27-18.108-22.76-32.382-26.9-8.31-2.4-7.398-5.04-7.398 21.42v22.908h22.313 22.313v-1.7184zm266.87-0.51281c2.3275-14.433 6.0202-24.353 12.792-34.362 11.844-17.507 30.531-29.507 51.161-32.853l6.5458-1.0618v-37.515-37.515l-5.1416-0.74339c-31.858-4.6063-58.583-30.987-63.682-62.863-0.52353-3.2725-1.041-6.2847-1.1498-6.6938-0.15753-0.59192-24.796-0.74377-120.68-0.74377h-120.48l-0.36727 2.2313c-2.5107 15.254-6.387 25.345-13.656 35.552-10.86 15.248-26.469 25.935-44.296 30.326-3.1335 0.77182-7.2388 1.58-9.123 1.7961l-3.4257 0.39275 0.15317 37.591 0.15317 37.591 1.4875 0.16781c33.822 3.8155 61.865 30.433 67.212 63.795 0.39336 2.4544 0.83237 5.065 0.97558 5.8013l0.26038 1.3388h120.45 120.45l0.35983-2.2313zm-124.33-24.81c-3.6165-1.3367-5.2461-2.7915-7.0257-6.272-1.4726-2.88-1.6363-3.8143-1.6363-9.3409v-6.1409h-7.9246c-9.5846 0-12.934-0.82652-16.074-3.9667-6.183-6.183-4.1308-16.745 3.9061-20.103 1.8454-0.77106 5.5713-0.92144 22.9-0.92421 21.368-0.004 23.933-0.23944 27.105-2.4943 3.5325-2.5108 5.0455-8.7302 3.1989-13.15-1.0785-2.5813-4.6699-5.6424-7.0672-6.0239-1.0706-0.17038-8.3725-0.41042-16.227-0.53347-13.497-0.21144-14.541-0.30955-19.04-1.7888-11.452-3.7653-20.719-13.553-23.811-25.149-1.141-4.2784-1.2764-12.752-0.27194-17.028 3.2297-13.748 14.408-24.474 28.319-27.171l4.9832-0.9663 0.002-6.1179c0.001-4.1721 0.29486-6.8189 0.92286-8.322 3.9005-9.3352 16.987-10.199 22.118-1.4607 1.4876 2.5335 1.6714 3.4701 1.865 9.5042l0.21485 6.6938h8.4465c7.8477 0 8.6611 0.10691 11.473 1.5081 7.3853 3.6803 8.9972 13.104 3.3168 19.391-3.4861 3.8588-5.1006 4.0907-28.491 4.0907-12.953 0-20.991 0.23063-22.056 0.63286-3.983 1.5049-6.7893 5.6396-6.8235 10.054-0.0398 5.1349 3.0351 9.4131 7.6958 10.708 1.217 0.33801 8.2372 0.62001 15.6 0.62667 15.103 0.0137 18.376 0.51605 24.844 3.8131 9.4514 4.8184 16.352 13.31 18.879 23.23 1.1697 4.593 1.1548 13.161-0.0309 17.736-3.3109 12.777-14.435 23.602-26.734 26.016-1.9635 0.38539-4.1442 0.80969-4.846 0.94291-1.2051 0.22874-1.2877 0.63627-1.4875 7.3356-0.2023 6.783-0.29082 7.2063-2.023 9.6733-3.2553 4.6361-9.3752 6.7864-14.219 4.9959zm-130.9-69.63c-3.5984-1.3003-5.2409-2.7621-7.0257-6.2526-2.6494-5.1815-1.7871-10.572 2.305-14.409 3.677-3.448 3.7347-3.454 32.781-3.4398 24.486 0.012 26.839 0.10088 29.031 1.0966 4.4182 2.0071 7.4201 6.7449 7.4291 11.725 0.006 3.2968-2.9369 8.0792-6.1966 10.07l-2.9274 1.7879-26.525 0.13465c-21.714 0.11022-26.951-0.0191-28.871-0.71296zm211.33 0.0982c-9.0123-2.8507-11.679-14.33-4.8223-20.76 3.677-3.448 3.7347-3.454 32.781-3.4398 29.963 0.0147 29.642-0.0283 33.344 4.4623 4.8797 5.92 3.3272 14.674-3.2926 18.565l-2.8105 1.6521-26.478 0.11484c-19.142 0.0831-27.099-0.0819-28.722-0.59501zm114.4 73.666c0-25.661 0.84128-23.085-6.8961-21.113-17.949 4.5744-32.723 19.304-37.377 37.266-1.7804 6.8708-4.279 6.1603 21.663 6.1603h22.61v-22.313zm75.588-61.732c5.1902-2.6173 4.7354 7.6587 4.7364-107.01v-101.51l-1.3388-1.9671c-0.73633-1.0819-2.0947-2.5272-3.0186-3.2118l-1.6799-1.2447h-184.85c-183.8 0-184.87 0.007-186.83 1.19-2.2516 1.3568-4.1082 4.0642-4.2844 6.2476-0.066 0.81813-0.0904 12.532-0.0542 26.031l0.0668 24.544 151.87 0.009c165.23 0.01 155.65-0.18575 161.89 3.3017 4.2066 2.3514 8.3578 6.8046 10.613 11.385l1.9797 4.0211 0.16071 69.777 0.16064 69.777h23.96c23.664 0 23.992-0.0165 26.614-1.3388zm-75.588-109.03v-22.908h-22.396-22.396l0.33874 2.8263c0.5552 4.6324 3.1911 12.024 6.1457 17.233 5.1139 9.0168 14.271 17.345 23.841 21.685 3.8158 1.7302 11.262 3.9701 13.424 4.0381 0.9742 0.0307 1.0412-1.4423 1.0412-22.875zm-374.55 20.75c4.0944-0.98962 12.158-4.6944 16.059-7.3786 6.6955-4.6066 13.247-12.255 17.177-20.052 1.732-3.4363 4.5469-12.62 4.5469-14.834v-1.428l-22.759 0.15582-22.759 0.15583-0.15633 21.715c-0.08598 11.943-0.01928 22.072 0.14826 22.509 0.32433 0.84519 1.1133 0.75927 7.7431-0.8432z"/>
	</g>
</svg>
