<svg xmlns:rdf="http://www.w3.org/1999/02/22-rdf-syntax-ns#" xmlns="http://www.w3.org/2000/svg" height="512" width="512" version="1.1" xmlns:cc="http://creativecommons.org/ns#" xmlns:dc="http://purl.org/dc/elements/1.1/" viewBox="0 0 512.00001 512.00001">
	<g transform="translate(0 -540.36)">
		<path d="m196.53 1022.4c-9.4605-1.9168-20.725-8.1183-27.999-15.415-22.807-22.877-22.692-58.19 0.2627-80.849 11.244-11.099 23.757-16.199 39.804-16.223 24.273-0.0354 45.609 15.362 53.599 38.68 3.4929 10.194 3.4916 26.002-0.003 35.898-8.0115 22.688-27.69 37.574-51.03 38.6-5.0705 0.2229-11.655-0.089-14.633-0.6916zm22.671-38.974c12.878-8.8243 11.999-27.628-1.6158-34.574-5.2197-2.6629-13.31-2.7686-18.271-0.23881-6.3205 3.2229-10.159 9.0946-10.683 16.342-0.6983 9.6539 3.7792 16.834 12.929 20.732 4.006 1.7067 13.656 0.47008 17.641-2.2606zm165.98 38.473c-19.504-4.7253-35.531-20.007-41.634-39.699-2.6691-8.6117-2.3209-24.448 0.73264-33.318 8.1774-23.754 29.42-39.035 54.154-38.954 16.282 0.0527 27.969 4.9606 39.665 16.657 11.907 11.907 16.607 23.338 16.657 40.514 0.1059 36.063-34.479 63.303-69.575 54.8zm21.543-37.19c11.671-5.3002 15.1-21.464 6.6053-31.138-4.2008-4.7844-8.8511-6.8538-15.402-6.8538-13.631 0-23.324 13.783-18.527 26.345 4.413 11.555 16.335 16.637 27.323 11.647zm-245.47-89.29c-2.617-1.3839-5.6683-4.0745-6.7806-5.9791s-9.5209-32.322-18.686-67.595c-9.1648-35.273-25.549-98.362-36.409-140.2l-19.746-76.067h-32.607c-31.949 0-32.702-0.0504-37.322-2.4934-5.4689-2.89-9.699-9.76-9.699-15.74-5.1801e-7 -5.45 3.6429-12.18 8.2969-15.33l3.9978-2.707h44.017 44.017l3.9769 3.0337c2.1873 1.6685 4.6453 4.3485 5.4622 5.9554 0.81692 1.607 4.7294 15.591 8.6943 31.075 3.965 15.484 7.671 29.249 8.2356 30.589l1.0265 2.4363h186.1 186.1l4.3734 3.1681c5.2235 3.7838 8.4746 11.047 7.5355 16.834-0.55556 3.4235-16.111 63.776-46.833 181.71-7.2516 27.837-12.038 44.227-13.524 46.314-1.2653 1.777-4.1892 4.1943-6.4974 5.3719-4.1156 2.0996-6.8581 2.1411-141.59 2.1411h-137.39l-4.7582-2.5162zm262.39-38.089c7.9968-29.182 45.981-177.75 45.602-178.36-0.6683-1.0813-331.45-1.1109-332.05-0.0297-0.30073 0.54834 42.824 168.18 46.798 181.92 0.0439 0.15151 53.782 0.15151 119.42 0l119.34-0.27543 0.89016-3.2484zm-176.02-29.13c-10.47-3.8581-10.866-5.1962-15.926-53.821-2.3677-22.752-4.3049-43.288-4.3049-45.636 0-18.923 25.534-24.966 34.253-8.1065 1.1434 2.2111 3.0515 16.281 5.8929 43.454 4.753 45.453 4.9654 50.258 2.4557 55.547-3.5751 7.534-14.164 11.587-22.371 8.5631zm99.419 0.32567c-4.1453-1.2746-7.3624-4.0054-10.198-8.6558-2.5471-4.1781-2.812-9.4457-1.1924-23.717 0.57447-5.0621 2.5292-23.499 4.3438-40.971 2.0202-19.452 3.9056-32.94 4.8632-34.791 2.2474-4.3459 7.597-8.4964 12.021-9.3263 12.274-2.3026 22.107 5.6362 22.103 17.844-0.004 11.74-8.4283 87.476-10.087 90.684-2.1888 4.2326-5.2456 6.8122-10.142 8.5584-4.7546 1.6957-7.1647 1.7728-11.712 0.37465z"/>
	</g>
</svg>
