<svg xmlns:rdf="http://www.w3.org/1999/02/22-rdf-syntax-ns#" xmlns="http://www.w3.org/2000/svg" height="512" width="512" version="1.1" xmlns:cc="http://creativecommons.org/ns#" xmlns:dc="http://purl.org/dc/elements/1.1/" viewBox="0 0 512.00001 512.00001">
	<g transform="translate(0 -540.36)">
		<path d="m177.32 1051c-9.722-2.1153-18.173-6.9729-26.104-15.004-11.366-11.511-16.269-24.296-15.29-39.872 0.85896-13.665 5.5818-24.446 14.877-33.961l4.1681-4.2666-6.5082-7.0294c-9.6519-10.425-12.681-17.121-21.454-47.417-4.24-14.62-11.24-38.82-15.56-53.77-18.049-62.42-23.848-82.41-34.287-118.19-6.043-20.72-11.155-37.84-11.36-38.04-0.205-0.21-6.823-2.36-14.708-4.79-15.593-4.8-19.634-7.36-20.718-13.14-1.126-6.0019 5.9847-15.598 11.543-15.578 0.88697 0.003 10.817 3.0608 22.066 6.7944 17.13 5.6857 20.677 7.1974 21.828 9.305 0.75602 1.384 3.9619 11.123 7.1242 21.642 6.7611 22.49 7.3878 23.928 7.4559 17.112 0.0878-8.7921 2.8412-26.384 5.9544-38.044 9.9976-37.443 32.019-71.622 61.505-95.463 14.126-11.422 39.801-25.437 57.823-31.566 22.382-7.6105 48.513-10.777 72.271-8.7563 7.8891 0.67086 18.298 2.0993 23.132 3.1743 38.907 8.6536 77.148 31.217 100.93 59.553 33.327 39.707 48.856 88.908 43.754 138.62l-1.0387 10.122 6.4482 6.4482c8.8845 8.8845 11.082 14.733 10.475 27.877-0.38184 8.2726-2.8332 18.903-18.171 78.804-12.252 47.848-18.588 70.862-20.506 74.487-1.5271 2.8852-6.5188 8.9923-11.093 13.571l-8.3162 8.3259 4.4012 6.4286c6.2693 9.1572 8.7824 16.452 9.3873 27.249 0.57408 10.247-1.0574 18.499-5.4724 27.681-3.5556 7.3945-16.072 19.799-23.634 23.422-21.379 10.243-44.465 6.3587-61.342-10.322-11.28-11.149-16.593-24.749-15.736-40.281 0.4367-7.9146 1.469-11.577 6.4542-22.897 0.43924-0.99743-10.11-1.2582-50.889-1.2582-28.294 0-51.444 0.14143-51.444 0.31426 0 0.17273 0.90605 2.1895 2.0134 4.4815 4.9889 10.326 6.3597 23.91 3.5148 34.832-2.582 9.913-6.5439 16.788-14.062 24.402-13.69 13.863-30.804 19.057-49.434 15.004zm22.464-27.225c6.351-2.6536 10.461-6.5349 13.176-12.444 6.8462-14.897 0.20217-31.797-14.691-37.369-10.504-3.9299-21.967-1.4045-29.189 6.4307-4.9506 5.3707-6.7162 10.326-6.6815 18.752 0.0475 11.534 5.5618 20.247 15.558 24.584 4.6314 2.009 17.067 2.0357 21.827 0.046zm197.06-0.852c6.1107-2.8816 8.7545-5.6316 11.744-12.215 2.6535-5.8438 3.0753-15.79 0.93353-22.012-1.7255-5.0128-7.3826-11.264-12.609-13.933-10.109-5.162-25.001-2.6672-32.299 5.4109-5.1499 5.7003-6.7237 10.061-6.6905 18.535 0.0459 11.693 4.4126 19.497 13.422 23.986 7.2183 3.5971 18.146 3.6945 25.498 0.2275zm-23.648-76.197c3.0047-0.92495 6.7424-1.0476 22.811-0.74809 3.6477 0.0685 12.998-4.785 17.868-9.2738 8.4851-7.8213 6.2601-0.71488 32.294-103.14 11.076-43.576 11.492-46.225 8.0878-51.421-2.7135-4.1413-7.0164-5.5402-20.007-6.5044-6.7321-0.49967-31.038-2.2738-54.014-3.9426-22.975-1.6688-60.571-4.4029-83.547-6.076-22.975-1.673-66.686-4.8478-97.135-7.055s-62.505-4.5342-71.235-5.1711c-8.7298-0.63689-16.059-0.97112-16.288-0.74276-0.46897 0.46898 0.55618 4.228 9.8506 36.12 3.6302 12.456 9.8126 33.746 13.738 47.31 3.9259 13.564 10.987 37.958 15.692 54.21 4.7049 16.252 9.6861 31.782 11.069 34.512 3.365 6.6405 8.7772 12.495 15.706 16.99 4.94 3.2049 6.5728 3.7245 12.079 3.8438 3.5018 0.0755 7.7258 0.55734 9.3866 1.0699 4.4509 1.3735 169.18 1.3948 173.64 0.0221zm70.775-206.78c2.0681-15.16-0.60679-43.491-5.7893-61.319l-1.6336-5.6193h-26.273-26.273l0.64509 5.7879c2.0205 18.128 2.5854 27.827 2.6087 44.793 0.0143 10.38 0.13921 18.924 0.27761 18.985 1.0436 0.4614 46.626 3.6625 50.581 3.5522l5.0329-0.14041 0.82388-6.0395zm-78.842-16.86c-0.008-17.841-0.82628-29.272-3.0982-43.283l-1.1017-6.7944h-33.126-33.126v31.707 31.707l2.7681 0.0707c1.5225 0.0389 16.583 1.1175 33.469 2.397 16.885 1.2795 31.494 2.3801 32.462 2.4458 1.6179 0.10972 1.7608-1.378 1.7533-18.251zm-92.598-19.377v-30.701h-33.11c-28.309 0-33.193 0.21607-33.682 1.4904-1.2022 3.1328-3.6694 29.783-3.9156 42.295l-0.2575 13.085 29.191 2.1239c16.055 1.1681 32.022 2.1876 35.482 2.2655l6.2912 0.14165v-30.701zm-93.034 11.576c0.44176-12.004 1.8046-28.806 3.0822-37.999l0.59453-4.278h-26.245-26.245l-2.0052 6.4922c-3.0964 10.025-5.1743 22.149-5.8312 34.023l-0.59868 10.821 2.4156 0.0864c1.3286 0.0475 12.834 0.90039 25.567 1.8953 12.733 0.99488 24.423 1.7487 25.977 1.6751l2.8257-0.13371 0.46305-12.582zm10.462-73.229c5.0627-19.503 14.81-41.742 25.116-57.307 3.3659-5.0833 6.1199-9.5044 6.1199-9.8246 0-1.0377-19.4 9.5182-27.681 15.062-19.709 13.194-39.055 34.175-50.795 55.09l-3.2491 5.7879h24.102 24.102l2.2864-8.8076zm82.572-34.543v-43.351l-2.2648 0.68533c-18.304 5.5385-39.137 30.05-50.935 59.929-3.6259 9.1823-8.2016 23.019-8.2016 24.802 0 1.0157 6.4557 1.2862 30.701 1.2862h30.701v-43.351zm83.547 42.648c0-1.6041-5.4206-18.363-7.7492-23.958-4.2915-10.312-11.304-23.636-16.638-31.614-9.0948-13.602-24.234-26.56-34.749-29.741l-2.2648-0.68533v43.351 43.351h30.701c16.885 0 30.701-0.31635 30.701-0.703zm70.461-0.29034c0-0.54634-1.9251-4.2076-4.278-8.1362-14.121-23.578-36.015-44.889-60.647-59.034-8.7653-5.0335-16.913-8.6422-15.878-7.0327 0.42883 0.66682 3.4235 5.1925 6.6548 10.057 9.92 14.934 19.322 36.465 24.818 56.835l2.2407 8.3043h23.544c14.816 0 23.544-0.36826 23.544-0.99334z"/>
	</g>
</svg>
