<svg xmlns:inkscape="http://www.inkscape.org/namespaces/inkscape" xmlns:rdf="http://www.w3.org/1999/02/22-rdf-syntax-ns#" xmlns="http://www.w3.org/2000/svg" sodipodi:docname="battery-level-75.svg" height="512" width="512" version="1.1" xmlns:cc="http://creativecommons.org/ns#" xmlns:dc="http://purl.org/dc/elements/1.1/" inkscape:version="0.91 r13725" viewBox="0 0 512.00001 512.00001" xmlns:sodipodi="http://sodipodi.sourceforge.net/DTD/sodipodi-0.dtd">
	<sodipodi:namedview bordercolor="#666666" inkscape:pageshadow="2" inkscape:window-y="-8" pagecolor="#ffffff" inkscape:window-height="1017" inkscape:window-maximized="1" inkscape:zoom="0.35" inkscape:window-x="-8" showgrid="false" borderopacity="1.0" inkscape:current-layer="layer1" inkscape:cx="-126.42857" inkscape:cy="520" units="px" inkscape:window-width="1920" inkscape:pageopacity="0.0" inkscape:document-units="px"/>
	<g inkscape:label="Layer 1" inkscape:groupmode="layer" transform="translate(0 -540.36)">
		<path inkscape:connector-curvature="0" d="m40.072 942.11c-11.49-1.3644-20.494-5.7519-27.888-13.59-6.1423-6.5111-10.205-14.607-11.579-23.074-0.80647-4.9703-0.80647-213.41 0-218.38 2.7882-17.184 15.945-31.294 33.337-35.754 3.6966-0.94791 14.701-0.99733 222.1-0.99733s218.41 0.0494 222.1 0.99733c15.914 4.0809 27.739 15.511 32.604 31.517 0.96294 3.1681 1.0243 8.9432 1.1852 111.47 0.15295 97.506 0.0812 108.57-0.73055 112.61-1.8337 9.13-6.3197 17.091-13.318 23.635-6.9183 6.4689-14.854 10.141-24.54 11.356-3.176 0.3982-72.732 0.5579-218.13 0.5007-117.41-0.046-214.22-0.1738-215.15-0.2835zm433.74-35.031c1.3688-0.9058 2.7447-2.4798 3.4606-3.9585l1.1883-2.4548v-104.5-104.5l-1.2999-2.4691c-0.87072-1.6539-2.1193-2.9315-3.7816-3.8697l-2.4818-1.4006h-214.85-214.85l-2.6073 1.5328c-1.8106 1.0644-2.9661 2.2739-3.7816 3.9585l-1.1743 2.4258v104.41 104.41l1.1686 2.4139c1.2237 2.5278 3.4342 4.4557 5.9977 5.2309 0.83461 0.2525 98.093 0.417 216.13 0.3656l214.61-0.093 2.2722-1.5037zm-364.27-38.71c-4.945-2.0208-7.9163-4.744-9.9155-9.0878l-1.2892-2.8012-0.15013-59.067c-0.16765-65.958-0.35922-62.509 3.7614-67.722 3.2101-4.0611 7.3889-5.9929 12.916-5.9707 6.8902 0.0277 12.096 3.305 15.17 9.5504l1.3574 2.758v60.226 60.226l-1.1974 2.5896c-1.6331 3.5319-4.6185 6.6992-7.8618 8.341-3.1463 1.5926-9.9842 2.1049-12.79 0.9584zm94.12 0c-4.945-2.0208-7.9163-4.744-9.9156-9.0878l-1.2892-2.8012-0.15014-59.067c-0.16764-65.958-0.35922-62.509 3.7614-67.722 3.2102-4.0611 7.3889-5.9929 12.916-5.9707 6.8902 0.0277 12.096 3.305 15.17 9.5504l1.3574 2.758v60.226 60.226l-1.1974 2.5896c-1.6331 3.5319-4.6185 6.6992-7.8618 8.341-3.1463 1.5926-9.9842 2.1049-12.79 0.9584zm89.483-0.9906c-3.8348-1.9162-6.4426-4.5751-8.1888-8.3489-1.1718-2.5325-1.1808-2.9379-1.3485-60.534-0.11889-40.84 0.0154-58.979 0.45426-61.346 1.4642-7.8992 8.5065-13.726 16.59-13.726 6.3152 0 12.977 4.7403 15.268 10.865l1.2106 3.2356-0.14992 59.758-0.14992 59.758-1.5142 2.8703c-4.3561 8.2578-14.054 11.524-22.172 7.4679z"/>
	</g>
</svg>
