<svg xmlns:rdf="http://www.w3.org/1999/02/22-rdf-syntax-ns#" xmlns="http://www.w3.org/2000/svg" height="512" width="512" version="1.1" xmlns:cc="http://creativecommons.org/ns#" xmlns:dc="http://purl.org/dc/elements/1.1/" viewBox="0 0 512.00001 512.00001">
	<g transform="translate(0 -540.36)">
		<path d="m469.6 983.27c-17.34-17.347-32.32-31.541-33.289-31.541-0.96868 0-4.927 2.4048-8.7963 5.344-7.2373 5.4975-19.64 11.83-28.752 14.679-6.4677 2.0223-25.138 4.804-32.213 4.7995-7.8071-0.01-28.952-3.8076-35.521-6.3881-8.9487-3.5153-19.786-9.1034-24.302-12.531-7.2116-5.4732-23.295-21.716-27.349-27.62-2.148-3.1281-5.0968-8.0436-6.5531-10.923-1.4563-2.8796-3.3355-5.8063-4.1761-6.504-1.1891-0.9867-28.829-1.255-124.52-1.208l-122.99 0.06-5.602-2.5031c-3.0811-1.3768-7.0909-4.0613-8.9105-5.9658-6.8284-7.1466-6.4517-0.6144-6.5456-113.48l-0.08398-102.46 5.6538-12.17c12.146-26.141 19.28-41.835 19.28-42.414 0-0.33247 2.6291-6.2278 5.8424-13.101 3.2133-6.8729 7.6918-16.452 9.9521-21.286 4.816-10.301 7.6704-13.679 14.712-17.411l5.1706-2.7406 90.485 0.33335c119.14 0.43893 167.7 0.95537 171.3 1.8218 5.0857 1.2242 10.1 4.2264 12.492 7.4787 2.3832 3.2408 21.425 44.515 25.6 55.488 1.3012 3.4201 6.6584 15.521 11.905 26.891l9.5392 20.673-0.15924 35.686c-0.12411 27.816 0.13592 36.067 1.1791 37.411 0.7394 0.95299 5.5033 2.7588 10.645 4.0352 17.171 4.2626 37.02 15.766 49.179 28.502 17.277 18.097 25.993 36.172 29.523 61.222 1.7064 12.11 1.7065 13.417 0 25.853-2.634 19.226-8.5011 34.397-18.318 47.367-2.7843 3.6786-5.0624 7.7384-5.0624 9.022 0 1.6868 7.9804 10.199 28.79 30.71 15.835 15.607 30.028 29.388 31.541 30.625 1.5123 1.2367 2.7498 3.0365 2.7498 3.9996 0 2.0935-7.4275 9.7807-9.4503 9.7807-0.7814 0-15.608-14.193-32.948-31.541zm-89.451-22.147c23.516-4.8768 36.235-11.718 52.398-28.182 18.398-18.742 26.512-39.673 25.388-65.492-0.6687-15.362-2.9386-25.041-8.5006-36.248-13.467-27.136-38.472-46.275-66.183-50.659-17.31-2.7384-31.913-1.5396-46.425 3.8111-32.063 11.822-53.769 37.573-59.148 70.17-5.5118 33.404 5.5988 64.104 30.769 85.02 13.306 11.057 21.608 15.42 37.059 19.475 11.413 2.9953 26.059 3.8854 34.643 2.1054zm-73.681-56.704c-1.6511-1.6512-1.8028-4.6898-1.7304-34.67 0.0523-21.704 0.45214-33.234 1.1775-33.959 1.5574-1.5574 10.238-1.4982 12.143 0.0827 1.3763 1.1422 1.5952 5.837 1.5952 34.215 0 28.522-0.21585 33.107-1.625 34.516-2.2245 2.2244-9.2632 2.112-11.56-0.18461zm24.204-0.081c-1.5162-1.6755-1.7115-5.6039-1.7115-34.436 0-23.934 0.32835-32.873 1.2409-33.786 0.68252-0.68252 3.9236-1.2409 7.2024-1.2409 4.6864 0 6.175 0.39887 6.9595 1.8648 0.58177 1.0871 0.98773 15.33 0.9733 34.149-0.0208 27.076-0.27121 32.531-1.5526 33.812-2.2627 2.2628-10.954 2.022-13.112-0.3632zm33.74 0.3242c-2.2111-1.5487-2.238-1.9507-2.3146-34.598-0.0879-37.466-0.64682-35.189 8.6406-35.189 3.5999 0 4.9372 0.47097 5.7733 2.0333 0.71306 1.3324 0.99295 13.287 0.81196 34.681-0.23424 27.688-0.51186 32.797-1.8274 33.628-2.3812 1.5042-8.5874 1.1934-11.084-0.5553zm24.084-0.058c-1.4092-1.4092-1.625-5.9941-1.625-34.516 0-36.883-0.23102-35.782 7.4639-35.58 7.0722 0.18545 6.9238-0.53298 7.016 33.976 0.0456 17.063 0.0637 31.805 0.0404 32.759-0.072 2.9326-3.0708 4.986-7.2814 4.986-2.2473 0-4.6982-0.7095-5.6138-1.6251zm27.071-0.1847c-1.3836-1.5519-1.6298-6.4325-1.7288-34.258-0.0819-22.91 0.23098-32.865 1.0627-33.867 1.6094-1.9393 11.647-1.9013 13.267 0.0502 0.88263 1.0635 1.2083 10.568 1.1781 34.384-0.0472 37.028 0.29179 35.5-7.8695 35.5-2.7871 0-4.8623-0.6356-5.909-1.8097zm-153.94-9.4707c1.2071-0.7645 1.2332-2.9981 0.16599-14.203-1.088-11.424-1.0341-14.825 0.38291-24.154 2.7936-18.392 7.8406-31.651 17.714-46.535 11.491-17.323 33.399-33.868 53.299-40.254 7.1185-2.2841 22.292-5.1971 27.233-5.2283 1.6615-0.0104 3.8719-0.78921 4.912-1.7305 1.7483-1.5822 1.8911-3.9498 1.8911-31.343 0-22.591-0.31755-30.066-1.3364-31.459-1.253-1.7135-5.1428-1.8221-62.265-1.7377-35.741 0.0528-61.323 0.48472-61.883 1.0449-0.56114 0.56114-0.87192 19.722-0.75358 46.462 0.19838 44.828 0.16936 45.539-1.947 47.655-2.0668 2.0668-2.2754 2.082-5.4918 0.40001-1.8389-0.96161-5.6701-2.3114-8.514-2.9995-2.8438-0.6881-10.987-2.9974-18.097-5.1318-17.535-5.2642-16.431-5.1665-25.521-2.2588-4.4484 1.423-11.811 3.6161-16.361 4.8736-4.5501 1.2574-10.367 2.9718-12.926 3.8097-7.2108 2.3606-10.021 2.7061-10.868 1.3358-0.42453-0.68692-0.70465-21.789-0.62247-46.893 0.0822-25.104-0.25645-46.261-0.75249-47.015-0.73354-1.1148-12.349-1.3492-62.223-1.2555-33.727 0.0634-61.715 0.35861-62.196 0.65614-0.4814 0.29753-0.87528 43.239-0.87528 95.425v94.884l2.8438 2.6497c1.5641 1.4574 3.5418 2.9037 4.395 3.2142 2.6459 0.9627 238.27 0.7554 239.8-0.211zm-224.04-11.567c-2.4228-1.2088-5.4459-3.6593-6.718-5.4457-2.2144-3.1096-2.3208-4.2382-2.4986-26.515-0.20785-26.043 0.26581-28.725 5.8658-33.208l3.6194-2.8977 45.727-0.16189 45.727-0.16191 4.5785 2.6832c3.0474 1.7859 4.9826 3.8137 5.787 6.0638 1.4482 4.0511 1.506 50.799 0.0661 53.49-0.5142 0.9607-2.9001 3.1091-5.302 4.7742l-4.3671 3.0273-44.04 0.275c-43.116 0.2694-44.132 0.229-48.445-1.9227zm87.101-15.711c0.70139-0.9592 1.055-7.7134 0.95737-18.288-0.12235-13.255-0.47468-17.087-1.6821-18.294-1.295-1.295-7.2458-1.5114-39.119-1.4224-33.134 0.0925-37.812 0.30392-39.446 1.7832-1.6396 1.4838-1.8545 3.6428-1.8545 18.631v16.953l2.9544 1.2427c2.1407 0.9005 13.162 1.1978 40.016 1.0795 31.29-0.1377 37.235-0.4001 38.174-1.6841zm41.015-94.769c2.0473-1.0973 5.5305-2.299 7.7406-2.6704 2.21-0.37144 6.8869-1.6657 10.393-2.876l6.3748-2.2007 7.0687 2.3008c3.8878 1.2654 7.9545 2.294 9.0371 2.2858 1.0826-0.008 4.5581 1.2101 7.7232 2.7074 5.222 2.4704 5.9971 2.5864 8.3727 1.2533l2.618-1.4691 0.33641-39.257c0.3619-42.23-0.30568-52.243-5.5498-83.242-1.3984-8.2662-2.5481-17.108-2.5548-19.648-0.007-2.5403-0.71625-7.1781-1.5767-10.306-0.86042-3.1282-1.9514-10.018-2.4243-15.311-0.47296-5.293-1.4156-10.179-2.0948-10.858-1.4674-1.467-39.204-1.0961-41.034 0.40331-1.0571 0.86614-2.6147 10.075-4.0957 24.215-0.35744 3.4126-1.2612 8.9968-2.0083 12.409-0.74711 3.4126-1.6579 10.237-2.0239 15.165-0.36605 4.9279-1.1129 10.512-1.6598 12.409-0.54683 1.8973-1.9343 11.361-3.0832 21.03-1.764 14.845-2.0688 23.372-1.9595 54.808 0.11167 32.104 0.35106 37.477 1.7391 39.038 2.0685 2.3256 4.0558 2.2831 8.6614-0.18536zm-25.156-91.537c0.7412-0.70047 1.7612-4.0243 2.2666-7.3864 0.5054-3.362 1.4114-7.7384 2.0132-9.7254 0.60186-1.9869 1.0898-6.1751 1.0843-9.307-0.008-4.7833 2.9008-25.821 7.1942-52.024 1.0782-6.5804 0.67815-8.6692-1.8767-9.7996-0.92843-0.41077-21.609-0.51418-45.957-0.2298l-44.269 0.51706-1.9861 2.5853c-2.5012 3.2557-6.245 10.703-10.398 20.682-1.7751 4.2657-5.2719 12.083-7.7707 17.372s-4.5433 9.9358-4.5433 10.326c0 0.84724-2.8 6.8653-10.817 23.249-4.8577 9.9272-5.721 12.449-4.688 13.693 1.0826 1.3045 9.4541 1.5643 57.765 1.7928 31.074 0.14701 57.429 0.10104 58.567-0.10217 1.1375-0.20323 2.6747-0.94262 3.4159-1.6431zm219.59 0.25267c1.3159-2.0744 1.0392-5.1436-0.62996-6.988-0.83223-0.91961-3.5802-6.3078-6.1066-11.974-2.5264-5.666-6.499-14.136-8.828-18.822-2.329-4.6864-4.2346-8.816-4.2346-9.1769 0-0.83771-5.929-14.504-12.371-28.515-1.226-2.6665-3.9466-6.7658-6.0457-9.1097l-3.8166-4.2616-44.333-0.0211c-26.224-0.0125-44.729 0.37471-45.302 0.94795-1.2556 1.2557 0.74311 20.529 3.3741 32.535 1.0893 4.9707 1.9805 11.551 1.9805 14.622 0 3.0714 0.67034 9.2422 1.4897 13.713 0.81931 4.4708 1.8125 11.819 2.2072 16.329 1.1999 13.714-4.9818 12.518 63.429 12.273 46.517-0.16649 58.508-0.48077 59.187-1.5512z"/>
	</g>
</svg>
