<svg xmlns:inkscape="http://www.inkscape.org/namespaces/inkscape" xmlns:rdf="http://www.w3.org/1999/02/22-rdf-syntax-ns#" xmlns="http://www.w3.org/2000/svg" sodipodi:docname="box-ok.svg" height="512" width="512" version="1.1" xmlns:cc="http://creativecommons.org/ns#" xmlns:dc="http://purl.org/dc/elements/1.1/" inkscape:version="0.91 r13725" viewBox="0 0 512.00001 512.00001" xmlns:sodipodi="http://sodipodi.sourceforge.net/DTD/sodipodi-0.dtd">
	<sodipodi:namedview bordercolor="#666666" inkscape:pageshadow="2" inkscape:window-y="-8" pagecolor="#ffffff" inkscape:window-height="1017" inkscape:window-maximized="1" inkscape:zoom="0.35" inkscape:window-x="-8" showgrid="false" borderopacity="1.0" inkscape:current-layer="layer1" inkscape:cx="-126.42857" inkscape:cy="520" units="px" inkscape:window-width="1920" inkscape:pageopacity="0.0" inkscape:document-units="px"/>
	<g inkscape:label="Layer 1" inkscape:groupmode="layer" transform="translate(0 -540.36)">
		<path inkscape:connector-curvature="0" d="m370.19 1052.2c-28.147-3.2655-48.076-12.214-69.262-31.098-1.6973-1.5128-3.3355-2.7599-3.6406-2.7711-0.30506-0.012-13.638 7.5408-29.629 16.782l-29.074 16.803-92.78-53.556c-51.038-29.46-100.89-58.24-110.79-63.95l-18.001-10.389 0.0165-127.9 0.0165-127.9 110.76-63.925 110.76-63.925 110.72 63.925 110.72 63.925 0.0124 93.187 0.0124 93.187 4.2976 4.8779c9.5788 10.872 13.973 17.45 19.75 29.565 15.164 31.803 14.494 68.875-1.8165 100.44-5.7745 11.176-11.979 19.779-20.494 28.419-17.538 17.795-38.033 28.56-62.87 33.02-5.6195 1.0092-23.972 1.8256-28.702 1.2768zm23.572-30.844c41.304-7.2248 71.058-42.384 71.058-83.966 0-46.829-38.125-85.014-84.898-85.032-32.029-0.013-61.531 18.18-76.017 46.877-12.098 23.965-12.213 51.697-0.31569 75.791 11.954 24.208 35.72 41.894 62.3 46.363 7.4657 1.2552 20.6 1.24 27.873-0.032zm-49.268-57.189-21.238-21.136 8.3149-8.821c4.5732-4.8516 9.278-9.7352 10.455-10.852l2.1404-2.0314 10.957 10.94 10.957 10.941 24.683-24.676 24.683-24.676 10.635 10.618 10.635 10.618-35.146 35.151c-19.33 19.333-35.301 35.131-35.491 35.106-0.18995-0.025-9.9025-9.5563-21.584-21.181zm-121.06-57.808-0.005-101.66-76.607-44.232c-42.13-24.39-81.78-47.29-88.11-50.95l-11.509-6.6517 0.014 101.97 0.014 101.97 87.593 50.558c48.176 27.807 87.824 50.566 88.107 50.575 0.28288 0.012 0.5122-45.732 0.5096-101.65zm43.673 94.446c6.3446-3.6375 11.662-6.7394 11.817-6.8931 0.15454-0.1537-1.2831-3.5991-3.1947-7.6562-8.6486-18.356-12.28-38.134-10.576-57.61 1.0148-11.605 2.1904-17.422 5.594-27.678 9.5738-28.85 30.444-52.757 58.301-66.786 9.3793-4.7234 20.148-8.2481 31.754-10.394 8.6263-1.5949 29.275-1.6215 37.85-0.049 8.3713 1.5355 18.92 4.6396 25.64 7.5449l5.5619 2.4046v-65.35-65.349l-49.547 28.607c-27.251 15.734-66.901 38.617-88.111 50.852l-38.564 22.246-0.0103 101.74c-0.008 87.894 0.1235 101.69 0.96985 101.36 0.53883-0.2067 6.1707-3.352 12.515-6.9896zm20.279-250.15c13.107-7.5719 23.824-13.941 23.816-14.153-0.008-0.2124-39.524-23.187-87.813-51.055-76.418-44.101-87.995-50.579-89.307-49.973-2.1276 0.98306-70.667 40.608-71.245 41.188-0.26112 0.26266 39.175 23.364 87.635 51.336l88.11 50.858 12.486-7.2166c6.8675-3.9692 23.21-13.412 36.317-20.984zm92.89-53.65c18.936-10.922 34.198-20.09 33.915-20.372-1.354-1.354-175.3-101.36-175.99-101.19-1.7137 0.43076-72.289 41.377-72.158 41.864 0.0767 0.28455 39.639 23.331 87.916 51.213l87.777 50.696 2.0573-1.1776c1.1315-0.64771 17.55-10.114 36.486-21.036z"/>
	</g>
</svg>
