<svg xmlns:rdf="http://www.w3.org/1999/02/22-rdf-syntax-ns#" xmlns="http://www.w3.org/2000/svg" height="512" width="512" version="1.1" xmlns:cc="http://creativecommons.org/ns#" xmlns:dc="http://purl.org/dc/elements/1.1/" viewBox="0 0 512.00001 512.00001">
	<g transform="translate(0 -540.36)">
		<path d="m14.487 1051.5c-5.7583-1.5324-10.032-5.1303-12.754-10.737l-1.7305-3.5641v-193.05-193.05l1.6765-3.4472c1.2624-2.5956 3.8571-5.6039 10.503-12.177 4.8547-4.8015 27.614-27.354 50.576-50.117 36.285-35.97 42.214-41.607 45.298-43.066l3.5483-1.6786 141.79-0.15479c155.55-0.16981 144.9-0.40719 150.79 3.3611 1.5194 0.97223 25.598 23.968 53.508 51.103 44.126 42.899 50.963 49.781 52.41 52.756l1.6642 3.4212 0.18103 190.98c0.13292 140.29-0.006 191.92-0.51677 194.54-1.441 7.3597-6.889 12.993-14.439 14.93-4.4246 1.1352-478.24 1.101-482.51-0.035zm457.51-207.36v-169.59h-216.11-216.11v169.59 169.59h216.11 216.11v-169.59zm-219.63 103.03c-1.5935-0.24972-4.2538-1.1653-5.9117-2.0346-2.1221-1.1127-15.245-13.394-44.329-41.486-36.761-35.507-41.472-40.266-42.739-43.173-4.1212-9.4574 0.56705-20.82 10.371-25.135 2.1642-0.95258 4.1128-1.2726 7.8157-1.2836 8.8236-0.026 8.9234 0.046 35.286 25.383l22.954 22.061 0.16785-62.934 0.16786-62.934 1.611-3.2671c2.0493-4.1558 5.4821-7.463 9.7958-9.4372 2.8312-1.2957 4.2568-1.5519 8.6323-1.5512 4.3673 0.0005 5.7424 0.24722 8.2486 1.4797 4.1643 2.0478 7.6071 5.4462 9.5391 9.4164l1.6348 3.3594 0.16519 62.93 0.16519 62.93 22.982-22.067c26.382-25.332 26.468-25.394 35.263-25.368 5.7602 0.017 9.1633 1.2455 13.212 4.7695 6.9296 6.0313 8.5141 15.03 4.1017 23.296-1.0872 2.0367-12.911 13.765-43.011 42.663-35.67 34.246-41.945 40.024-44.594 41.059-3.7737 1.4748-7.6956 1.9254-11.53 1.3245zm-16.525-339.74v-28.513h-55.408-55.408l-28.796 28.513-28.796 28.513h84.204 84.204v-28.513zm203.16 24.206c-2.3609-2.3686-15.532-15.199-29.269-28.513l-24.976-24.206h-54.417-54.417v28.513 28.513h83.685 83.685l-4.2927-4.3066z"/>
	</g>
</svg>
