<svg xmlns:inkscape="http://www.inkscape.org/namespaces/inkscape" xmlns:rdf="http://www.w3.org/1999/02/22-rdf-syntax-ns#" xmlns="http://www.w3.org/2000/svg" sodipodi:docname="box-close.svg" height="512" width="512" version="1.1" xmlns:cc="http://creativecommons.org/ns#" xmlns:dc="http://purl.org/dc/elements/1.1/" inkscape:version="0.91 r13725" viewBox="0 0 511.99999 511.99999" xmlns:sodipodi="http://sodipodi.sourceforge.net/DTD/sodipodi-0.dtd">
	<sodipodi:namedview bordercolor="#666666" inkscape:pageshadow="2" inkscape:window-y="-8" pagecolor="#ffffff" inkscape:window-height="1017" inkscape:window-maximized="1" inkscape:zoom="0.49497475" inkscape:window-x="-8" showgrid="false" borderopacity="1.0" inkscape:current-layer="layer1" inkscape:cx="366.70293" inkscape:cy="269.41868" units="px" inkscape:window-width="1920" inkscape:pageopacity="0.0" inkscape:document-units="px"/>
	<g inkscape:label="Layer 1" inkscape:groupmode="layer" transform="translate(0 -540.36)">
		<path inkscape:connector-curvature="0" d="m234.31 1050.1c0-1.5783-1.2784-3.0448-4.25-4.8753-12.979-7.9951-26.942-16.629-40.25-24.89-8.25-5.1207-17.45-10.617-20.444-12.214-2.9942-1.5968-7.0442-4.1632-9-5.703-1.9558-1.5399-5.806-3.9882-8.556-5.4407-2.75-1.4526-7.1067-4.0989-9.6815-5.8807-7.3739-5.1028-18.684-12.241-29.052-18.335-5.7214-3.3631-17.877-10.846-41.267-25.405-8.25-5.1352-19.725-12.155-25.5-15.599-17.98-10.723-21.032-12.766-25.989-17.4-9.2099-8.6106-8.4751 2.4275-8.7814-131.93-0.29832-130.85-0.58231-124.58 6.0286-133.14 1.7828-2.3079 4.8164-5.0023 6.7414-5.9876 9.3329-4.7768 22.608-10.947 23.5-10.922 0.55 0.015 5.05-1.9964 10-4.4699 4.95-2.4734 15.737-7.2677 23.971-10.654 8.2339-3.3862 16.637-7.2086 18.673-8.4942 3.3505-2.1151 30.785-13.409 32.572-13.409 0.40955 0 3.3288-1.595 6.4872-3.5445s8.3063-4.4266 11.44-5.5046c3.1335-1.0781 7.5699-3.0576 9.8586-4.3989 2.2888-1.3413 7.4997-3.7675 11.58-5.3915 4.0802-1.624 16.194-6.8709 26.918-11.66 10.725-4.7888 23.325-10.288 28-12.221 14.038-5.8039 16-7.0057 16-9.7998v-2.4797h12.5c12.443 0 12.5 0.0108 12.5 2.3425 0 2.7634 0.67472 3.1416 21.5 12.049 8.25 3.5289 21.3 9.2036 29 12.61 7.7 3.4069 16.925 7.31 20.5 8.6735 3.575 1.3636 8.525 3.7208 11 5.2384 2.475 1.5175 6.975 3.5585 10 4.5356 3.025 0.97702 8.2776 3.303 11.672 5.1688 6.4071 3.5214 29.861 13.381 31.831 13.381 0.6178 0 4.083 1.7852 7.7006 3.967 3.6175 2.1818 13.489 6.7302 21.937 10.107 8.4478 3.3772 18.06 7.6161 21.36 9.4198s8.475 4.0766 11.5 5.0508c3.025 0.97419 7.075 2.774 9 3.9996s5.6711 3.0284 8.3247 4.0063c6.02 2.2185 14.187 9.4404 15.634 13.825 1.661 5.0329 1.8053 250.83 0.1502 255.81-1.3395 4.0373-12.389 15.132-16.305 16.371-1.267 0.4011-5.0037 2.3923-8.3037 4.4251-3.3 2.0327-12.75 7.6592-21 12.503-8.25 4.8442-19.275 11.38-24.5 14.524-13.812 8.3102-27.844 16.392-32.965 18.986-2.4559 1.2441-6.7718 4.0033-9.5909 6.1317-2.819 2.1284-5.6019 3.8699-6.1842 3.8699-0.5822 0-3.4663 1.6225-6.4091 3.6055-2.9428 1.9831-7.4238 4.6582-9.9579 5.9446-2.5341 1.2865-5.9091 3.4164-7.5 4.733-1.5909 1.3167-6.2676 4.1773-10.393 6.357-7.506 3.9661-19.865 11.173-51.241 29.879-13.714 8.176-16.743 10.388-16.75 12.231l-0.009 2.25h-22-22v-2.2573zm58.565-58.137c2.5972-1.9831 5.2921-3.6056 5.9886-3.6056 0.69652 0 3.4787-1.7488 6.1826-3.8861s7.5819-5.2311 10.84-6.875c6.3829-3.2208 19.775-11.034 62.424-36.418 6.325-3.7646 14.606-8.5268 18.402-10.583 3.7963-2.0558 10.51-6.1405 14.92-9.0771 4.4095-2.9367 9.1428-5.7672 10.518-6.2902 1.3756-0.523 4.5616-2.4191 7.0803-4.2137 2.5185-1.7946 5.9092-3.834 7.5347-4.532 1.6256-0.6981 6.7287-3.7541 11.34-6.7911 6.1798-4.0696 8.8213-6.4832 10.044-9.1778 1.508-3.3218 1.6555-11.881 1.6137-93.656-0.049-95.72 0.047-93.834-4.8175-95.055-3.031-0.76073-12.335 2.5637-17.91 6.3994-2.4409 1.6794-7.0672 4.2162-10.281 5.6374-3.2135 1.4212-7.2159 3.6144-8.8941 4.874-1.6783 1.2595-8.6764 4.9058-15.551 8.1028-6.875 3.1971-14.589 7.3298-17.143 9.1838-2.5536 1.854-6.496 4.0248-8.7609 4.8239-2.265 0.79911-6.1332 2.8394-8.5961 4.5339s-6.3955 3.7549-8.739 4.5786c-2.3436 0.82369-6.736 3.1922-9.761 5.2633s-7.525 4.6188-10 5.6616c-2.475 1.0427-10.654 5.181-18.176 9.1962-7.5219 4.0152-14.097 7.3004-14.61 7.3004-0.5138 0-2.6845 1.2202-4.8237 2.7116-2.1392 1.4913-7.4896 4.5288-11.89 6.75-6.5602 3.3115-8.4069 4.7823-10.261 8.1721l-2.2608 4.1337-0.0289 96.744c-0.0274 91.463 0.0685 96.851 1.7553 98.715 2.5884 2.8602 8.0302 1.8313 13.861-2.6206zm-60.965 1.6291c3.8264-2.555 3.8212-2.4148 3.7823-100.84l-0.0375-95.103-2.1916-3.546c-1.9221-3.11-9.1239-7.7484-12.03-7.7484-0.49428 0-3.1655-1.5593-5.936-3.4651s-15.084-8.5582-27.362-14.783c-12.279-6.2249-24.125-12.523-26.325-13.996-2.2-1.4729-5.9941-3.3793-8.4313-4.2364-2.4372-0.85718-5.9778-2.7381-7.868-4.1798s-5.7366-3.4952-8.5477-4.5633c-2.811-1.0681-7.1454-3.4115-9.632-5.2076s-10.146-5.8588-17.021-9.0282-13.848-6.7251-15.495-7.9015c-1.6471-1.1764-6.5971-3.9691-11-6.2061s-11.724-6.1744-16.269-8.75c-9.2538-5.2439-12.54-5.798-14.428-2.4328-1.7364 3.0947-1.5741 181.45 0.16811 184.71 1.1824 2.2094 12.524 11.045 14.178 11.045 0.5138 0 3.8916 2.025 7.5062 4.5s7.1272 4.5 7.8058 4.5c0.67853 0 3.0589 1.3221 5.2896 2.9381 2.2308 1.6159 6.6858 4.3223 9.9 6.0141 3.2143 1.6918 7.8691 4.4734 10.344 6.1812 2.475 1.7079 15.075 9.336 28 16.952 12.925 7.6155 27.1 16.04 31.5 18.722 15.506 9.4497 30.045 17.992 34 19.977 2.2 1.1043 9.1661 5.4296 15.48 9.6118 11.597 7.6812 12.633 8.1659 14.62 6.8389zm36.444-242.18c5.2004-2.7224 12.83-6.6118 16.955-8.6432s8.8641-4.7324 10.531-6.0022c1.6673-1.2698 8.1832-4.6043 14.48-7.4099 6.2967-2.8056 12.245-5.822 13.219-6.703 2.2596-2.0449 2.269-5.5389 0.02-7.5362-1.6202-1.439-17.841-10.42-33.945-18.795-3.7428-1.9464-9.0307-4.9839-11.751-6.75-2.7202-1.7661-5.4875-3.2111-6.1495-3.2111-0.66205 0-3.6114-1.621-6.5542-3.6021-2.9428-1.9812-8.0505-4.9183-11.35-6.527-3.3-1.6087-10.275-5.3817-15.5-8.3845s-12.325-6.8026-15.779-8.4441c-3.4534-1.6415-7.7284-4.0682-9.5-5.3928-1.7716-1.3245-5.3784-3.346-8.0151-4.4921s-6.2293-3.1129-7.9837-4.3706c-2.9793-2.1359-6.3939-3.9971-24.194-13.187-4.3337-2.2375-8.3789-3.5995-10.69-3.5995-4.5814 0-16.053 4.0566-24.317 8.5993-3.4028 1.8704-6.9156 3.4007-7.8063 3.4007-0.89069 0-4.9033 1.7287-8.917 3.8415-4.0136 2.1128-9.0975 4.425-11.298 5.1382-6.6103 2.1428-22.09 9.91-24.036 12.06-1.7593 1.944-1.7547 2.0934 0.14328 4.6356 1.1012 1.475 7.8657 5.6967 15.427 9.6279 7.4062 3.8506 17.176 8.9626 21.71 11.36 4.5345 2.3973 11.962 6.2663 16.505 8.5977 4.5434 2.3314 9.6084 5.1768 11.255 6.3232 1.6471 1.1464 4.9697 2.8552 7.3835 3.7974 2.4138 0.94221 6.2388 2.9647 8.5 4.4944s6.0232 3.5295 8.3599 4.444c2.3368 0.91448 6.8368 3.3822 10 5.4838s10.926 6.23 17.251 9.1743 12.85 6.3548 14.5 7.579 6.15 3.8047 10 5.7345 11.5 5.7827 17 8.562 11.145 5.0743 12.545 5.0998c1.3996 0.025 6.7996-2.1809 12-4.9033zm111.31-58.96c2.276-1.5659 7.0619-4.2625 10.635-5.9924 17.116-8.2859 36.244-18.779 37.131-20.369 1.8826-3.3733-0.089-5.6658-8.4563-9.8323-4.4978-2.2397-11.226-5.1346-14.951-6.4331-3.7251-1.2985-8.1023-3.3075-9.7271-4.4645s-6.0121-3.1436-9.7495-4.4148c-3.7375-1.2712-9.2603-3.6736-12.273-5.3386-3.0126-1.6651-7.9525-3.8252-10.978-4.8002-3.025-0.97505-7.525-2.9986-10-4.4968-4.2096-2.5482-13.174-6.3282-29.319-12.363-3.7506-1.402-8.1839-3.5206-9.8516-4.7082-2.9789-2.1211-17.037-8.2217-31.829-13.812-4.125-1.559-9.9232-4.3416-12.885-6.1837-7.9325-4.9337-14.053-4.7432-24.115 0.75065-4.125 2.2522-11.55 5.5662-16.5 7.3645-15.957 5.7971-19.079 8.0735-17.796 12.978 0.46312 1.771 3.4953 3.665 13.199 8.2447 6.9286 3.27 14.066 7.0605 15.86 8.4232 1.7946 1.3628 5.6196 3.5246 8.5 4.804s7.6448 3.9521 10.588 5.9393c2.9428 1.9871 5.8922 3.613 6.5542 3.613 0.66205 0 3.4293 1.445 6.1495 3.2111 4.9363 3.205 13.156 7.6875 25.446 13.876 3.575 1.8002 7.8748 4.3036 9.555 5.563 1.6803 1.2594 5.2802 3.2576 8 4.4405 2.7197 1.1828 6.3537 3.2032 8.0755 4.4898 1.7218 1.2865 5.7565 3.5005 8.966 4.9199s6.5278 3.2073 7.3741 3.9732c0.8463 0.76586 4.9073 3.0573 9.0245 5.0921 4.1173 2.0348 8.8691 4.7546 10.56 6.0441 6.416 4.8937 15.238 4.6933 22.812-0.51837z"/>
	</g>
</svg>
