<svg xmlns:rdf="http://www.w3.org/1999/02/22-rdf-syntax-ns#" xmlns="http://www.w3.org/2000/svg" height="512" width="512" version="1.1" xmlns:cc="http://creativecommons.org/ns#" xmlns:dc="http://purl.org/dc/elements/1.1/" viewBox="0 0 512.00001 512.00001">
	<g transform="translate(0 -540.36)">
		<path d="m180.34 967.22c-57.854-17.724-106.43-33.037-107.94-34.03-5.6914-3.7291-5.5898-2.2667-5.5898-80.448v-71.856l-29.239-7.5062c-16.608-4.26-30.54-8.38-32.248-9.53-3.9866-2.67-6.2033-8.48-4.9924-13.08 1.0322-3.93 68.595-96.97 71.566-98.56 1.0338-0.55326 37.475-14.058 80.98-30.01 53.245-19.524 80.377-29.005 83.004-29.005 2.1469 0 45.278 6.0846 95.846 13.521 50.568 7.4368 95.64 13.946 100.16 14.465 4.5199 0.51905 9.2977 1.6512 10.617 2.5159 2.7734 1.8172 66.567 92.172 68.622 97.195 1.6989 4.1508 0.88058 9.0249-2.1256 12.66-1.4791 1.7887-11.152 6.9614-28.274 15.121l-26.026 12.402-0.5005 72.968c-0.36116 52.653-0.8233 73.526-1.6599 74.97-0.63765 1.1011-2.2142 2.9384-3.5035 4.0828-1.2893 1.1445-36.635 21.077-78.545 44.295-68.969 38.208-76.616 42.206-80.581 42.131-2.71-0.051-44.499-12.373-109.57-32.308zm96.68-109.99v-112.35l-23.774 35.479c-13.076 19.513-24.991 36.358-26.478 37.432-1.7897 1.2928-4.1596 1.908-7.0071 1.8187-2.3665-0.0742-31.781-7.2754-65.364-16.003l-61.062-15.868-0.25783 62.55c-0.14181 34.402-0.0921 62.716 0.1105 62.918 0.36014 0.3602 181.6 56.061 183.08 56.267 0.41291 0.057 0.75075-50.453 0.75075-112.24zm89.09 72.982 61.562-34.234 0.25802-60.798c0.1419-33.439 0.0206-60.798-0.26954-60.798-0.29015 0-19.782 9.2343-43.315 20.521-45.803 21.967-47.449 22.537-53.827 18.648-2.4889-1.5177-4.9851-5.9474-13.395-23.77-5.6848-12.048-11.158-23.482-12.162-25.408-1.7789-3.4127-1.8274-0.86322-1.8705 98.349-0.0243 56.019 0.29359 101.82 0.70651 101.79 0.41292-0.035 28.454-15.469 62.313-34.298zm-125.13-177.77c14.59-21.946 26.432-40.273 26.315-40.725-0.1873-0.72907-182.55-34.791-183-34.18-0.0979 0.13445-11.316 15.488-24.929 34.119s-24.604 34.003-24.425 34.16c0.29926 0.2615 177.86 46.366 179.01 46.479 0.27528 0.0273 12.438-17.906 27.027-39.852zm171.91 0.1125c36.469-17.452 66.199-32.24 66.067-32.864-0.13234-0.62371-10.826-16.287-23.764-34.807-18.724-26.803-23.9-33.58-25.369-33.22-4.102 1.0062-121.75 56.22-121.77 57.148-0.0114 0.55056 7.9763 18.009 17.75 38.796 13.647 29.023 18.12 37.665 19.273 37.236 0.82584-0.30776 31.34-14.838 67.809-32.29zm-73.4-87.78c41.879-19.444 49.164-23.129 46.861-23.7-1.4993-0.37241-35.734-5.5023-76.078-11.4l-73.352-10.723-54.172 19.86c-29.795 10.923-53.544 20.072-52.776 20.33 3.698 1.2455 154.9 28.955 157.24 28.816 1.4788-0.0878 25.003-10.52 52.276-23.183z"/>
	</g>
</svg>
