<?xml version="1.0" encoding="UTF-8" standalone="no"?>
<svg
   xmlns:dc="http://purl.org/dc/elements/1.1/"
   xmlns:cc="http://creativecommons.org/ns#"
   xmlns:rdf="http://www.w3.org/1999/02/22-rdf-syntax-ns#"
   xmlns:svg="http://www.w3.org/2000/svg"
   xmlns="http://www.w3.org/2000/svg"
   xmlns:sodipodi="http://sodipodi.sourceforge.net/DTD/sodipodi-0.dtd"
   xmlns:inkscape="http://www.inkscape.org/namespaces/inkscape"
   width="512"
   height="512"
   viewBox="0 0 512 512"
   version="1.1"
   id="svg8"
   inkscape:version="1.0.2-2 (e86c870879, 2021-01-15)"
   sodipodi:docname="box3.svg">
  <defs
     id="defs2" />
  <sodipodi:namedview
     id="base"
     pagecolor="#ffffff"
     bordercolor="#666666"
     borderopacity="1.0"
     inkscape:pageopacity="0.0"
     inkscape:pageshadow="2"
     inkscape:zoom="1.4"
     inkscape:cx="311.27069"
     inkscape:cy="248.85682"
     inkscape:document-units="px"
     inkscape:current-layer="layer1"
     inkscape:document-rotation="0"
     showgrid="false"
     units="px"
     inkscape:window-width="1920"
     inkscape:window-height="1017"
     inkscape:window-x="-8"
     inkscape:window-y="-8"
     inkscape:window-maximized="1" />
  <metadata
     id="metadata5">
    <rdf:RDF>
      <cc:Work
         rdf:about="">
        <dc:format>image/svg+xml</dc:format>
        <dc:type
           rdf:resource="http://purl.org/dc/dcmitype/StillImage" />
        <dc:title></dc:title>
      </cc:Work>
    </rdf:RDF>
  </metadata>
  <g
     inkscape:label="Слой 1"
     inkscape:groupmode="layer"
     id="layer1">
    <path
       style="fill:#000000;stroke-width:1.02001"
       d="M 160.80606,412.18313 C 110.42564,395.74221 68.311851,381.482 67.219887,380.49378 65.286932,378.74449 65.234493,376.71262 65.234493,303.57496 V 228.45288 L 57.839401,226.118 C 0.29941633,207.95075 -1.7989639,207.01747 0.60739893,200.66304 1.6871231,197.81185 63.49375,115.39407 68.321154,110.36822 c 2.72736,-2.83946 5.724333,-3.52311 95.271016,-21.732633 l 92.45507,-18.800934 91.00094,18.48111 c 50.05056,10.164622 91.99195,18.721307 93.20311,19.014877 C 443.19332,108.04371 512,199.2165 512,202.40179 c 0,4.74249 -3.76425,6.51593 -34.93543,16.45866 l -30.34538,9.67935 v 75.16384 c 0,66.38473 -0.1838,75.34768 -1.57388,76.7378 -0.86568,0.86567 -18.42265,7.07188 -39.01548,13.79156 -117.40344,38.31009 -147.89866,48.01213 -150.65843,47.93185 -1.68552,-0.0491 -44.28492,-13.5408 -94.66534,-29.98172 z m 89.05073,-104.78939 c 0,-101.94847 -0.20099,-118.33098 -1.43604,-117.04645 -0.78983,0.82148 -12.791,18.2473 -26.66929,38.72406 -13.8783,20.47675 -25.94246,37.80421 -26.80926,38.50547 -0.86681,0.70126 -2.60437,1.27502 -3.86126,1.27502 -1.67419,0 -102.218239,-32.01061 -111.318435,-35.44089 -1.023297,-0.38573 -1.229248,13.47119 -1.020013,68.63123 l 0.262174,69.11455 83.641044,27.3047 c 46.00257,15.01759 84.4443,27.34242 85.42606,27.38852 1.69026,0.0794 1.78502,-6.209 1.78502,-118.45621 z m 98.9887,91.17571 84.10353,-27.36435 0.26225,-69.13873 c 0.2092,-55.18163 0,-69.04013 -1.02001,-68.65031 -9.18359,3.49831 -109.39559,35.43578 -111.1889,35.43578 -1.34702,0 -3.39569,-1.03276 -4.55262,-2.29503 -1.15693,-1.26227 -13.6301,-19.23057 -27.71814,-39.92957 L 263.11696,188.9927 v 118.47054 c 0,65.1588 0.36561,118.47055 0.81248,118.47055 0.44687,0 38.65909,-12.31395 84.91605,-27.36434 z M 218.19862,210.02941 c 16.32551,-23.93724 29.32395,-43.82281 28.88544,-44.19017 -0.43852,-0.36736 -39.52797,-9.73864 -86.86543,-20.82508 -71.166615,-16.66721 -86.285395,-19.92142 -87.323013,-18.79561 -0.690182,0.74884 -13.340248,17.3978 -28.111245,36.99766 -18.927304,25.11493 -26.422969,35.79312 -25.388401,36.16787 9.410943,3.40892 166.142889,54.07083 167.404959,54.11185 1.14223,0.0371 11.62746,-14.47849 31.39769,-43.46652 z m 191.47382,16.46028 c 45.84283,-14.88406 83.55352,-27.26488 83.80158,-27.51293 0.42688,-0.42691 -50.20869,-68.30417 -53.88074,-72.22738 -1.66608,-1.78003 -5.00183,-1.08386 -87.31925,18.22356 -47.07287,11.04087 -86.16031,20.38328 -86.86097,20.76091 -1.53721,0.82851 57.45962,87.8178 59.55874,87.8178 0.74253,0 38.85783,-12.17788 84.70064,-27.06196 z m -85.56368,-88.88249 68.64187,-16.05588 -0.30101,-5.07919 -0.3011,-5.07919 -66.30078,-13.524115 c -36.46546,-7.43828 -67.67784,-13.541312 -69.36087,-13.562314 -1.68302,-0.02101 -33.12491,6.066933 -69.87086,13.528734 l -66.81083,13.566895 -0.30082,5.06796 -0.30082,5.06796 67.62165,15.93099 c 37.19192,8.76204 67.85116,15.99017 68.13167,16.06251 0.2805,0.0723 31.39885,-7.09362 69.1519,-15.92436 z"
       id="path38" />
  </g>
</svg>
