<svg width="512" height="512" version="1.1" viewBox="0 0 512 512" xmlns="http://www.w3.org/2000/svg">
	<g transform="translate(0 -393.83)">
		<path d="m189.4 905.41c-26.042-3.8239-52.753-11.827-71.793-21.511-45.011-22.892-86.197-69.377-101.28-114.31-3.8418-11.444-3.0038-17.859 3.2352-24.765 6.4289-7.116 7.3176-7.3372 29.773-7.4088 23.227-0.074099 29.435-1.3042 45.43-9.0024 17.011-8.1872 27.987-16.942 42.576-33.961 19.945-23.267 39.424-36.904 63.097-44.173 8.2477-2.5326 10.305-2.755 25.48-2.755 15.097 0 17.258 0.23076 25.294 2.701 4.8322 1.4856 11.444 3.781 14.692 5.1009l5.9061 2.3999 93.668-128.46c51.517-70.652 95.104-129.52 96.86-130.83 9.3022-6.9024 20.4-6.0027 28.732 2.3295 6.9241 6.9241 8.7486 15.535 5.028 23.73-1.047 2.3061-43.604 61.382-94.571 131.28l-92.667 127.09 4.0686 5.1471c11.086 14.025 16.997 29.353 17.805 46.169 0.92666 19.299-3.6135 37.06-15.675 61.321-20.079 40.387-51.911 75.398-89.212 98.122-17.621 10.735-25.728 13.356-36.445 11.783zm17.508-52.746c13.537-9.1185 31.726-24.725 37.896-32.515l3.0778-3.886-10.733-5.2085c-26.442-12.833-54.283-28.762-80.044-45.799l-17.287-11.433-6.7808 4.4672c-15.248 10.046-36.324 18.803-52.189 21.685-9.5006 1.7259-9.2794 1.6075-7.9238 4.2402 1.8034 3.5025 11.694 16.586 17.743 23.471 21.625 24.613 55.61 43.481 91.596 50.853l11.137 2.2817 4.5021-2.5614c2.4762-1.4088 6.5281-3.926 9.0042-5.5939zm76.255-95.698c1.8431-5.2526 2.2819-8.6192 2.2819-17.508 0-9.6178-0.30668-11.636-2.4327-16.007-5.1944-10.681-19.151-21.11-37.484-28.011-17.965-6.762-32.991-4.7431-50.224 6.7482-8.6391 5.7607-22.635 18.591-21.783 19.969 0.95135 1.5393 20.855 14.323 37.89 24.335 8.2539 4.8513 25.587 14.179 38.518 20.727l23.511 11.907 3.7209-7.8283c2.0465-4.3056 4.7478-10.755 6.0028-14.331z" stroke-width="1.0005"/>
	</g>
</svg>
