<?xml version="1.0" encoding="UTF-8" standalone="no"?>
<!-- Created with Inkscape (http://www.inkscape.org/) -->

<svg
   xmlns:dc="http://purl.org/dc/elements/1.1/"
   xmlns:cc="http://creativecommons.org/ns#"
   xmlns:rdf="http://www.w3.org/1999/02/22-rdf-syntax-ns#"
   xmlns:svg="http://www.w3.org/2000/svg"
   xmlns="http://www.w3.org/2000/svg"
   xmlns:sodipodi="http://sodipodi.sourceforge.net/DTD/sodipodi-0.dtd"
   xmlns:inkscape="http://www.inkscape.org/namespaces/inkscape"
   width="512"
   height="512"
   viewBox="0 0 511.99999 511.99999"
   id="svg2"
   version="1.1"
   inkscape:version="0.91 r13725"
   sodipodi:docname="building.svg">
  <defs
     id="defs4" />
  <sodipodi:namedview
     id="base"
     pagecolor="#ffffff"
     bordercolor="#666666"
     borderopacity="1.0"
     inkscape:pageopacity="0.0"
     inkscape:pageshadow="2"
     inkscape:zoom="1"
     inkscape:cx="199.5"
     inkscape:cy="200"
     inkscape:document-units="px"
     inkscape:current-layer="layer1"
     showgrid="false"
     units="px"
     inkscape:window-width="1920"
     inkscape:window-height="1057"
     inkscape:window-x="-8"
     inkscape:window-y="-8"
     inkscape:window-maximized="1" />
  <metadata
     id="metadata7">
    <rdf:RDF>
      <cc:Work
         rdf:about="">
        <dc:format>image/svg+xml</dc:format>
        <dc:type
           rdf:resource="http://purl.org/dc/dcmitype/StillImage" />
        <dc:title></dc:title>
      </cc:Work>
    </rdf:RDF>
  </metadata>
  <g
     inkscape:label="Layer 1"
     inkscape:groupmode="layer"
     id="layer1"
     transform="translate(0,-540.36219)">
    <path
       style="fill:#000000"
       d="m 93.021962,805.54565 c 0.02191,-246.2727 0.02646,-246.82645 2.062065,-251.31774 2.537895,-5.59952 5.276343,-8.58365 10.415953,-11.35038 l 4,-2.15326 143.9998,-0.28587 c 108.25648,-0.21492 145.06661,0.007 148.29766,0.8936 6.43929,1.76716 11.57788,6.00036 14.56702,12.00043 l 2.63509,5.28935 0,246.8702 0,246.87022 -52.99993,0 -52.99992,0 -0.002,-41.7613 c -0.002,-46.56248 0.0244,-46.36919 -6.89632,-50.99379 l -3.39744,-2.27054 -46.70417,0 -46.70416,0 -3.39789,2.27054 c -6.92072,4.6246 -6.89458,4.43131 -6.89632,50.99379 l -0.002,41.7613 -52.99992,0 -52.99993,0 0.02196,-246.81655 z m 140.399128,86.8491 2.57871,-2.42497 0,-28.64484 c 0,-27.24333 -0.0977,-28.7497 -1.99604,-30.78793 -1.09783,-1.1787 -3.46033,-2.41447 -5.25,-2.74616 -1.78966,-0.33169 -14.88107,-0.46496 -29.092,-0.29614 l -25.83806,0.30694 -2.4119,2.80652 -2.4119,2.80652 0,27.00117 c 0,30.17281 0.34841,32.0543 6.26257,33.8185 1.79962,0.53683 14.86048,0.88125 29.40866,0.77554 l 26.17125,-0.19019 2.57871,-2.42496 z m 102.82697,1.87268 c 6.63008,-1.84177 6.88305,-3.17372 6.54663,-34.46839 -0.29058,-27.03021 -0.32933,-27.47808 -2.57106,-29.72058 -2.23261,-2.23337 -2.76688,-2.28267 -27.99996,-2.58375 -14.14817,-0.16882 -27.18822,-0.0355 -28.97788,0.29614 -1.78967,0.33169 -4.15217,1.56746 -5.25,2.74616 -1.89838,2.03823 -1.99604,3.5446 -1.99604,30.78793 0,28.42409 0.0173,28.66083 2.24999,30.71989 1.2375,1.14126 3.15,2.29281 4.25,2.559 4.03683,0.97683 50.05777,0.68879 53.74832,-0.3364 z m -102.7028,-113.43299 2.45454,-2.4552 0,-27.97121 c 0,-15.38416 -0.27953,-28.69985 -0.62118,-29.59042 -1.56142,-4.07013 -5.05855,-4.54602 -33.40603,-4.54602 l -27.12655,0 -2.92307,2.92386 -2.92307,2.92386 0,27.14999 c 0,27.59086 0.28191,29.94933 3.91333,32.73821 1.15879,0.88992 9.21708,1.2271 29.88207,1.25033 l 28.29542,0.0318 2.45454,-2.45521 z m 105.54106,1.17307 c 3.63142,-2.78888 3.91333,-5.14735 3.91333,-32.73821 l 0,-27.14999 -2.92307,-2.92386 -2.92307,-2.92386 -27.12655,0 c -28.34748,0 -31.84461,0.47589 -33.40603,4.54602 -0.34165,0.89057 -0.62118,14.20626 -0.62118,29.59042 l 0,27.97121 2.45454,2.4552 2.45454,2.45521 28.29542,-0.0318 c 20.66499,-0.0232 28.72328,-0.36041 29.88207,-1.25033 z M 230.60322,669.21959 c 5.2884,-2.0112 5.33054,-2.27072 5.36478,-33.04528 l 0.0318,-28.58339 -2.57864,-2.42497 c -2.56897,-2.41585 -2.67384,-2.42614 -27.91384,-2.73679 -16.25205,-0.20002 -26.79773,0.0821 -29.41462,0.78696 -6.8628,1.84846 -7.0928,2.94329 -7.0928,33.76192 0,28.84573 0.2278,30.21886 5.35699,32.2893 3.11668,1.25808 52.92384,1.21579 56.24633,-0.0477 z m 109.62024,-1.73735 c 2.24195,-2.24255 2.28064,-2.68973 2.57123,-29.72059 0.33974,-31.60325 0.12999,-32.65532 -6.88784,-34.54553 -2.61689,-0.70485 -13.16257,-0.98698 -29.41462,-0.78696 -25.24,0.31065 -25.34487,0.32094 -27.91384,2.73679 l -2.57864,2.42497 0.0318,28.58339 c 0.0339,30.49218 0.11031,30.9907 5.05891,33.01788 1.42763,0.58482 13.50152,0.90137 29.63304,0.77691 26.85723,-0.20722 27.25442,-0.24071 29.49996,-2.48686 z"
       id="path3347"
       inkscape:connector-curvature="0" />
  </g>
</svg>
