<svg xmlns:rdf="http://www.w3.org/1999/02/22-rdf-syntax-ns#" xmlns="http://www.w3.org/2000/svg" height="512" width="512" version="1.1" xmlns:cc="http://creativecommons.org/ns#" xmlns:dc="http://purl.org/dc/elements/1.1/" viewBox="0 0 512.00001 512.00001">
	<g transform="translate(0 -540.36)">
		<path d="m10.581 1055.2c-4.2755-1.229-9.0059-6.2203-10.164-10.724-0.84598-3.2906-0.35154-9.1574 1.0079-11.959 0.61748-1.2727 2.2245-3.3346 3.5711-4.5822 3.9891-3.6956 5.6272-4.034 19.527-4.034h12.154v-152.49c0-136.95 0.086-152.93 0.84367-156.81 4.1237-21.118 21.969-36.901 44.469-39.331 6.6832-0.7218 146.29-0.78473 150.94-0.0684 1.7575 0.2707 4.0942 0.67211 5.1926 0.89198l1.9972 0.39972 0.00044-38.598c0.00053-45.88 0.35925-51.471 3.9455-61.498 6.3808-17.842 18.737-30.202 35.208-35.22l4.251-1.2952h77.49c88.182 0 80.032-0.45182 90.805 5.0345 14.215 7.2396 23.828 20.373 28.631 39.117l1.1823 4.614 0.14406 217.62 0.14407 217.62h8.9537c10.392 0 12.546 0.532 16.326 4.034 3.8298 3.548 4.7921 5.9436 4.7967 11.941 0.005 4.4606-0.16025 5.3366-1.4133 7.5671-1.7691 3.1489-3.7566 5.13-6.8379 6.816l-2.3966 1.3115-244.45 0.083c-154.06 0.052-245.14-0.1151-246.32-0.4528zm226.88-182.31v-151.01l-1.6143-1.4296c-0.88785-0.7863-2.5056-1.6902-3.5949-2.0085-1.3179-0.38531-26.444-0.58001-75.094-0.58212-80.023-0.0105-75.148-0.20292-78.538 3.2144l-1.4646 1.4765v150.68 150.68h80.153 80.153v-151.01zm203.85-64.07c-0.13128-205.8-0.17879-215.21-1.0981-217.7-0.52853-1.4285-1.7892-3.6156-2.8017-4.8605-3.5541-4.3701 2.1524-4.0815-77.277-3.9078l-70.92 0.15492-2.3025 1.7033c-1.5395 1.1388-2.8342 2.7975-3.907 5.005l-1.6044 3.3018-0.13587 215.7-0.13587 215.7h80.16 80.16l-0.13724-215.1z"/>
	</g>
</svg>
