<svg xmlns:rdf="http://www.w3.org/1999/02/22-rdf-syntax-ns#" xmlns="http://www.w3.org/2000/svg" height="512" width="512" version="1.1" xmlns:cc="http://creativecommons.org/ns#" xmlns:dc="http://purl.org/dc/elements/1.1/" viewBox="0 0 512.00001 512.00001">
	<g transform="translate(0 -540.36)">
		<path d="m2.9229 992.53-2.9231-2.923v-111.56-111.56l2.9171-3.2658 2.9171-3.2658 37.583-0.28478 37.583-0.28479v-25.497c0-27.361 0.4839-30.557 5.1169-33.802 2.1299-1.4918 16.602-1.6307 169.97-1.6307 167.37 0 167.65 0.003 170.24 2.0455 1.4302 1.125 3.0634 3.7125 3.6293 5.75 0.57686 2.077 1.0313 14.578 1.0344 28.455l0.006 24.75h35.375c19.456 0 36.779 0.28081 38.495 0.62402 2.0513 0.41026 3.8068 1.7352 5.125 3.868 1.9751 3.1958 2.0049 4.8986 2.0049 114.45v111.21l-2.9231 2.923-2.9231 2.9231h-250.15-250.15l-2.9231-2.9231zm488.08-115.08v-97h-235-235v97 97h235 235v-97zm-430 41v-26h16 16v26 26h-16-16v-26zm72 0v-26h15.5 15.5v26 26h-15.5-15.5v-26zm71 0v-26h16 16v26 26h-16-16v-26zm72 0v-26h16 16v26 26h-16-16v-26zm72 0v-26h15.5 15.5v26 26h-15.5-15.5v-26zm71 0v-26h16 16v26 26h-16-16v-26zm-358-82v-26h16 16v26 26h-16-16v-26zm72 0v-26h15.5 15.5v26 26h-15.5-15.5v-26zm71 0v-26h16 16v26 26h-16-16v-26zm72 0v-26h16 16v26 26h-16-16v-26zm72 0v-26h15.5 15.5v26 26h-15.5-15.5v-26zm71 0v-26h16 16v26 26h-16-16v-26zm-10-97v-20h-153-153v20 20h153 153v-20zm-111.34-68.09c-3.2782-0.47896-8.2174-2.1816-11.25-3.8781-2.9733-1.6633-7.7953-4.3616-10.715-5.9961-7.3148-4.0944-16.223-6.2067-29.191-6.9217l-11-0.60648-0.26573-28.341-0.26573-28.341 8.7657 0.63753c20.089 1.461 26.299 3.148 37.766 10.258 9.6259 5.9688 14.609 7.2185 31.74 7.96l14.76 0.63888v27.844 27.844l-12.25-0.12194c-6.7375-0.0671-14.88-0.50617-18.094-0.97577z"/>
	</g>
</svg>
