<svg xmlns:inkscape="http://www.inkscape.org/namespaces/inkscape" xmlns:rdf="http://www.w3.org/1999/02/22-rdf-syntax-ns#" xmlns="http://www.w3.org/2000/svg" sodipodi:docname="card-lock3.svg" height="512" width="512" version="1.1" xmlns:cc="http://creativecommons.org/ns#" xmlns:dc="http://purl.org/dc/elements/1.1/" inkscape:version="0.91 r13725" viewBox="0 0 512.00001 512.00001" xmlns:sodipodi="http://sodipodi.sourceforge.net/DTD/sodipodi-0.dtd">
	<sodipodi:namedview bordercolor="#666666" inkscape:pageshadow="2" inkscape:window-y="-8" pagecolor="#ffffff" inkscape:window-height="1017" inkscape:window-maximized="1" inkscape:zoom="0.35" inkscape:window-x="-8" showgrid="false" borderopacity="1.0" inkscape:current-layer="layer1" inkscape:cx="-126.42857" inkscape:cy="520" units="px" inkscape:window-width="1920" inkscape:pageopacity="0.0" inkscape:document-units="px"/>
	<g inkscape:label="Layer 1" inkscape:groupmode="layer" transform="translate(0 -540.36)">
		<path inkscape:connector-curvature="0" d="m288.84 1022.7c-1.863-0.9516-4.439-3.0517-5.7244-4.6669l-2.3371-2.9368-0.20289-69.868c-0.19932-68.639-0.17592-69.921 1.3304-72.874 1.8483-3.6229 5.4341-6.4701 9.5724-7.6005 1.6814-0.45929 8.13-0.83699 14.33-0.83933l11.273-0.005 0.005-19.68c0.005-19.835 0.88609-29.79 3.3369-37.682 5.4166-17.442 17.075-33.101 32.076-43.082 31.763-21.134 73.892-16.46 100.24 11.122 9.3988 9.8376 15.051 19.622 19.243 33.313 2.0138 6.577 2.0618 7.2135 2.3606 31.299l0.30487 24.586 13.183 0.25323c13.125 0.25211 13.2 0.26341 16.873 2.5461 2.2935 1.4253 4.2939 3.4495 5.2871 5.35 1.5814 3.0259 1.5998 3.7537 1.801 71.365l0.20315 68.308-1.855 4.0519c-1.3108 2.8632-2.8114 4.6849-5.115 6.2094l-3.26 2.1575-104.77 0.2016-104.77 0.2017-3.3873-1.7303zm192.94-78.54v-50.06l-85.79-0.19435-85.791-0.19436v50.449 50.449l85.791-0.1943 85.79-0.1944v-50.06zm-37.24-102.95c-0.32726-25.054-0.42752-25.66-5.9649-36.049-7.2882-13.674-22.755-23.541-39.055-24.915-22.543-1.9005-44.221 13.586-50.837 36.316-0.94552 3.2485-1.306 9.1089-1.5867 25.794l-0.36323 21.591h49.052 49.052l-0.29699-22.737zm-407.95 117.77c-16.001-2.48-29.077-13.28-34.528-28.54l-1.7754-4.96-0.21237-159.36c-0.19079-143.2-0.089399-159.91 1.0004-164.86 3.1267-14.2 12.773-25.19 26.971-30.72l5.1044-1.9871 200.47-0.19955c221.42-0.22042 205.04-0.57036 215.63 4.6067 6.7939 3.3213 14.892 11.446 18.247 18.306 4.7881 9.7926 4.7906 9.8334 4.5588 73.817-0.20391 56.282-0.25114 57.925-1.7382 60.448-0.8407 1.4267-2.831 3.6467-4.423 4.9334-2.4025 1.9419-3.7295 2.3926-7.8086 2.6524-4.2465 0.2704-5.3758 0.0423-8.3122-1.6785-1.8689-1.0952-4.2018-3.2841-5.1841-4.8642-1.7021-2.7377-1.8041-3.6996-2.1683-20.451l-0.38214-17.578h-205.97-205.97l-0.22109 113.5c-0.1216 62.423-0.01055 114.98 0.24682 116.8 0.68353 4.8319 4.6295 8.9453 9.6047 10.012 2.6033 0.55831 34.669 0.8192 100.7 0.8192h96.876l3.4788 2.2061c10.579 6.7092 8.2708 22.667-3.8667 26.731-1.8948 0.6344-29.095 0.8416-100.5 0.7658-53.848-0.057-98.765-0.2374-99.816-0.4001zm405.68-326.42c-0.22159-24.977-0.2817-25.879-1.8957-28.469-0.91676-1.4712-2.8084-3.3628-4.2035-4.2035-2.5193-1.5181-3.8918-1.5286-200.1-1.5286-196.92 0-197.58 0.005-200.24 1.546-1.5842 0.91558-3.3762 2.9295-4.3946 4.9387-1.6794 3.3132-1.7196 3.9793-1.7196 28.452v25.059h206.39 206.39l-0.22884-25.794zm-363.37 218.45c-6.2185-1.5256-11.738-8.2154-11.738-14.227 0-5.5401 2.983-10.609 7.9018-13.427l3.1803-1.8222h40.125c44.649 0 42.36-0.25633 47.23 5.29 2.1758 2.4781 3.968 6.8201 3.968 9.6134s-1.7922 7.1353-3.968 9.6134c-4.8458 5.519-2.7928 5.2756-45.702 5.4194-21.228 0.0712-39.677-0.13576-40.997-0.45977zm-2.9487-54.996c-12.335-5.6929-11.18-23.868 1.7541-27.613 1.9664-0.56933 31.459-0.75069 96.521-0.59357l93.69 0.22627 3.0479 2.1123c9.2386 6.4027 8.4351 20.902-1.4228 25.674l-3.3851 1.6387-93.574-0.0168c-89.341-0.016-93.712-0.0806-96.631-1.4277z"/>
	</g>
</svg>
