<svg width="512" height="512" version="1.1" viewBox="0 0 512 512" xmlns="http://www.w3.org/2000/svg">
	<path d="m216.19 447.63-39.443-42.925-52.722-0.00396c-57.986-0.00435-60.352-0.13693-71.984-4.0342-25.834-8.6551-43.743-28.526-50.627-56.174-1.0227-4.1072-1.1413-15.341-1.3545-128.23-0.16002-84.74-0.00923-125.44 0.47853-129.17 2.2074-16.863 8.8217-30.402 20.805-42.587 11.115-11.302 21.677-17.391 36.883-21.263l7.0414-1.7932h189.78c201.97 0 191.89-0.15525 203.19 3.1307 19.038 5.5354 36.927 20.708 46.121 39.117 2.2202 4.4457 5.4486 14.286 6.6006 20.118 1.3826 6.9997 1.3784 251.89-0.00443 258.85-3.061 15.423-10.644 29.094-22.354 40.299-11.197 10.714-24.369 17.284-40.054 19.979-5.4318 0.93305-13.684 1.0866-59.666 1.1099l-53.363 0.027101-38.117 41.482c-20.964 22.815-38.939 42.27-39.944 43.233l-1.8271 1.7505zm67.039-42.073c28.772-31.329 31.005-33.343 40.536-36.574 4.3522-1.4751 4.7285-1.4861 62.386-1.8254l58.007-0.34136 4.9917-1.8221c8.9068-3.2512 16.332-9.6301 20.658-17.747 4.4787-8.403 4.2315-0.057787 4.0347-136.16l-0.17814-123.24-1.8078-4.5099c-3.7925-9.461-9.8316-16.185-18.263-20.335-9.4848-4.6681 5.3058-4.3595-199.71-4.1662l-185.26 0.17473-4.4971 1.5267c-9.4846 3.2199-18.27 10.884-22.351 19.498-4.2211 8.9106-3.9393-0.028388-4.1614 132.02-0.17679 105.11-0.07517 120.79 0.81044 125.07 2.5807 12.456 11.253 22.437 23.708 27.285l4.4788 1.7436 58.343 0.35681c57.142 0.34947 58.419 0.38573 62.063 1.7615 5.5334 2.089 9.3528 4.1395 12.568 6.7473 1.5823 1.2832 14.82 15.293 29.417 31.132 14.597 15.839 26.78 28.71 27.072 28.601 0.29288-0.10866 12.514-13.243 27.157-29.188z" stroke-width=".67061"/>
</svg>
