<svg xmlns:inkscape="http://www.inkscape.org/namespaces/inkscape" xmlns:rdf="http://www.w3.org/1999/02/22-rdf-syntax-ns#" xmlns="http://www.w3.org/2000/svg" sodipodi:docname="chat.svg" height="512" width="512" version="1.1" xmlns:cc="http://creativecommons.org/ns#" xmlns:dc="http://purl.org/dc/elements/1.1/" inkscape:version="0.91 r13725" viewBox="0 0 512.00001 512.00001" xmlns:sodipodi="http://sodipodi.sourceforge.net/DTD/sodipodi-0.dtd">
	<sodipodi:namedview bordercolor="#666666" inkscape:pageshadow="2" inkscape:window-y="-8" pagecolor="#ffffff" inkscape:window-height="1017" inkscape:window-maximized="1" inkscape:zoom="0.35" inkscape:window-x="-8" showgrid="false" borderopacity="1.0" inkscape:current-layer="layer1" inkscape:cx="-126.42857" inkscape:cy="520" units="px" inkscape:window-width="1920" inkscape:pageopacity="0.0" inkscape:document-units="px"/>
	<g inkscape:label="Layer 1" inkscape:groupmode="layer" transform="translate(0 -540.36)">
		<path inkscape:connector-curvature="0" d="m88.394 984.43v-56.257l-10.131-8.1139c-19.367-15.511-38.573-37.055-50.508-56.659-26.348-43.27-34.394-94.92-22.173-142.31 18.52-71.83 80.521-131.14 163.18-156.09 28.089-8.481 49.393-11.716 81.289-12.345 31.038-0.61176 50.992 1.5088 78.667 8.3599 74.852 18.531 134.86 63.846 164.47 124.21 13.359 27.227 18.838 51.098 18.811 81.952-0.026 29.819-5.7038 53.509-19.422 81.045-29.53 59.273-89.501 104.33-163.53 122.86-36.26 9.0766-79.097 11.3-114.52 5.9438l-8.5007-1.2853-57.399 31.932c-31.569 17.562-58.037 32.177-58.817 32.476-1.2812 0.4917-1.4182-4.8897-1.4182-55.713zm73.21-22.764 38.107-21.192 11.032 1.7999c34.935 5.6995 71.315 4.6317 105.97-3.1106 57.137-12.763 107.37-45.789 136.19-89.532 10.629-16.136 19.356-37.612 23.375-57.523 2.4651-12.214 2.1895-41.597-0.5073-54.099-11.718-54.325-47.876-97.633-105.05-125.82-54.454-26.848-119.81-33.304-180.96-17.875-54.638 13.784-101.78 45.362-129.69 86.864-10.409 15.483-19.776 37.601-23.426 55.316-6.5643 31.857-1.8805 66.092 13.191 96.419 13.246 26.654 33.629 49.634 61.742 69.612l11.029 7.8376 0.003 36.248c0.002 19.936 0.20083 36.248 0.44316 36.248 0.24234 0 17.589-9.5361 38.548-21.191z"/>
	</g>
</svg>
