<svg xmlns:rdf="http://www.w3.org/1999/02/22-rdf-syntax-ns#" xmlns="http://www.w3.org/2000/svg" height="512" width="512" version="1.1" xmlns:cc="http://creativecommons.org/ns#" xmlns:dc="http://purl.org/dc/elements/1.1/" viewBox="0 0 512.00001 512.00001">
	<g transform="translate(0 -540.36)">
		<path d="m229.66 1051.1c-109.74-11.1-201.83-94.56-224.39-203.31-21.03-101.36 22.063-206.14 108.67-264.25 85.75-57.53 198.26-57.526 283.93 0.01 115.26 77.405 148.42 230.25 75.476 347.86-19.533 31.494-52.205 63.914-84.025 83.376-47.147 28.838-104.44 41.854-159.67 36.274zm63.883-39.748c33.905-5.8178 67.368-20.668 96.104-42.647 11.335-8.6702 31.372-28.809 39.737-39.938 55.363-73.66 59.818-169.47 11.535-248.1-15.882-25.865-43.664-53.689-69.103-69.207-14.129-8.6192-32.998-17.591-46.499-22.108-79.88-26.82-166.69-5.58-225.76 55.14-50.804 52.23-72.066 124.8-57.411 195.94 6.196 30.078 21.171 63.04 39.809 87.625 8.359 11.026 28.145 31.006 39.59 39.978 31.789 24.919 71.291 40.934 112.49 45.605 14.437 1.637 42.712 0.5098 59.508-2.3723zm-200.44-199.19c-4.9487-2.8683-9.6764-10.67-9.6764-15.968 0-5.4395 4.7402-13.143 9.857-16.019 4.8318-2.7156 5.2208-2.7299 74.342-2.7299h69.485l0.33961-79.278c0.33351-77.851 0.38601-79.34 2.9166-82.729 4.627-6.196 8.7884-8.4607 15.547-8.4607 6.7585 0 10.92 2.2651 15.546 8.4615 2.5482 3.4131 2.577 4.4811 2.577 95.54v92.088l-2.7877 3.9081c-5.8731 8.2336-2.7932 7.969-92.394 7.9373-80.97-0.0288-81.059-0.0316-85.752-2.7513z"/>
	</g>
</svg>
