<?xml version="1.0" encoding="UTF-8" standalone="no"?>
<svg id="svg2" xmlns:rdf="http://www.w3.org/1999/02/22-rdf-syntax-ns#" xmlns="http://www.w3.org/2000/svg" height="512" width="512" version="1.1" xmlns:cc="http://creativecommons.org/ns#" xmlns:dc="http://purl.org/dc/elements/1.1/" viewBox="0 0 511.99999 512.00001">
	<g id="layer1" transform="translate(0,-540.36216)">
		<path id="path3347" d="m232.5 1051.2338c-47.38694-4.5182-92.45188-22.0611-131.412-51.1563-12.34001-9.21543-39.587892-36.46331-48.803326-48.80332-69.600059-93.1986-69.600059-216.6254 0-309.824 9.215434-12.34001 36.463316-39.58789 48.803326-48.80333 93.1986-69.60006 216.6254-69.60006 309.824 0 12.34001 9.21544 39.58789 36.46332 48.80333 48.80333 69.60006 93.1986 69.60006 216.6254 0 309.824-9.21544 12.34001-36.46332 39.58789-48.80333 48.80332-51.9783 38.817-115.82458 57.1238-178.412 51.1563zm-4.27729-60.7739c0.87677-11.40671 1.86972-14.6215 6.31377-20.4417 12.40034-16.24024 38.98834-12.39757 47.00698 6.79375 0.83331 1.9944 1.79751 7.92529 2.14266 13.17977 0.41533 6.32274 1.05812 9.71882 1.90071 10.04218 0.70024 0.2687 5.01716-0.25893 9.59316-1.17249 82.65034-16.50049 146.49682-80.20098 163.22945-162.85619 2.46161-12.15977 3.11612-11.24798-8.58574-11.96089-15.24732-0.9289-22.18577-4.89608-28.09832-16.06568-3.0757-5.81042-3.0757-17.42252 0-23.23294 5.91255-11.1696 12.851-15.13678 28.09832-16.06568 11.67389-0.71121 11.05626 0.1075 8.67738-11.50247-17.28534-84.36005-80.30546-147.46006-163.09551-163.30227-11.97268-2.29103-11.03402-2.97798-11.66869 8.53979-0.83399 15.13508-4.92366 22.2948-16.12041 28.22172-5.81042 3.0757-17.42252 3.0757-23.23294 0-11.19675-5.92692-15.28642-13.08664-16.12041-28.22172-0.63432-11.51153 0.29063-10.82826-11.58281-8.55623-73.71236 14.10518-132.404505 65.49159-156.0492 136.6249-4.521118 13.60144-9.184574 33.99374-8.300685 36.29712 0.320719 0.83578 3.741121 1.48143 10.040034 1.89519 14.752548 0.96906 22.30131 5.24479 27.326583 15.47821 7.073589 14.40458 0.620989 31.58099-14.188457 37.76877-2.017296 0.84288-8.131985 1.80448-13.588198 2.13689-11.516322 0.7016-10.860933-0.40536-7.958566 13.44217 3.870052 18.46447 8.607371 32.24851 16.964149 49.36008 27.985192 57.30325 79.74719 97.52978 143.57403 111.5777 13.17883 2.90062 12.87269 3.07862 13.72271-7.97998zm18.27729-165.32498c-3.37569-1.20327-10.49383-5.85545-12.3129-8.04729-0.65882-0.79384-20.65794-9.24275-44.44248-18.77535-23.78454-9.53261-44.64669-18.23477-46.36033-19.33814-11.0075-7.08744-11.05434-24.16955-0.0862-31.42794 3.29367-2.17965 5.19703-2.68094 10.12885-2.66765 5.49847 0.0148 9.67601 1.47131 44.15597 15.3949l38.08294 15.37854 6.80859-3.35186c5.7595-2.83539 7.82686-3.33706 13.41706-3.25584 3.63466 0.0528 7.75715 0.55103 9.1611 1.10716 1.57147 0.62249 3.17923 0.66048 4.18285 0.0988 0.89663-0.50177 24.94795-22.10446 53.44738-48.00596 28.49942-25.90151 53.26519-47.72106 55.03502-48.48789 4.21078-1.82444 7.70498-1.76194 11.86523 0.21222 7.14356 3.38984 9.78631 13.75741 5.16689 20.26977-1.2375 1.7446-25.425 24.12941-53.75 49.74401-28.325 25.61461-52.35894 47.4002-53.40877 48.41243-1.17423 1.13219-2.20931 4.05515-2.68976 7.59564-1.59145 11.7274-9.87025 22.24812-19.8631 25.24205-4.64573 1.39189-14.50533 1.33998-18.53837-0.0976z"/>
	</g>
</svg>
