<?xml version="1.0" encoding="UTF-8" standalone="no"?>
<svg id="svg2" xmlns:rdf="http://www.w3.org/1999/02/22-rdf-syntax-ns#" xmlns="http://www.w3.org/2000/svg" height="512" width="595" version="1.1" xmlns:cc="http://creativecommons.org/ns#" xmlns:dc="http://purl.org/dc/elements/1.1/" viewBox="0 0 594.99999 512.00001">
	<g id="layer1" transform="matrix(.99523745 0 0 .99523745 0 -535.35024)">
		<path id="path3423" d="m284.90042 1050.7794c-39.67137-4.8603-77.59578-17.2848-110.39702-36.1672l-7.01073-4.0358-71.843239 19.8932c-44.91681 12.4374-73.934548 19.9112-77.42312 19.9408-10.9292914 0.092-19.7378573-10.0819-18.00858489-20.8019 0.36793559-2.2808 14.69273389-29.6532 31.83288789-60.82735 17.140153-31.17417 32.237546-58.64011 33.549762-61.03543l2.385846-4.35512-4.150008-9.15967c-14.374159-31.72582-20.950039-62.78687-20.972301-99.06236-0.040795-66.48247 25.259567-126.52997 73.778427-175.1046 42.02528-42.07359 93.26175-67.97837 155.99194-78.86842 18.06483-3.13608 57.44744-4.299 77.22394-2.2803 99.16474 10.12225 184.72115 68.40075 224.72546 153.07637 18.40107 38.9489 26.35274 84.0119 22.17616 125.67501-12.17841 121.48535-112.09577 217.84337-241.75983 233.14777-17.60859 2.0783-52.99401 2.0607-70.09959-0.035z"/>
	</g>
</svg>
