<?xml version="1.0" encoding="UTF-8" standalone="no"?>
<svg
   xmlns:dc="http://purl.org/dc/elements/1.1/"
   xmlns:cc="http://creativecommons.org/ns#"
   xmlns:rdf="http://www.w3.org/1999/02/22-rdf-syntax-ns#"
   xmlns:svg="http://www.w3.org/2000/svg"
   xmlns="http://www.w3.org/2000/svg"
   xmlns:sodipodi="http://sodipodi.sourceforge.net/DTD/sodipodi-0.dtd"
   xmlns:inkscape="http://www.inkscape.org/namespaces/inkscape"
   width="512"
   height="512"
   viewBox="0 0 512 512"
   version="1.1"
   id="svg8"
   inkscape:version="1.0.1 (3bc2e813f5, 2020-09-07)"
   sodipodi:docname="customs-calculator.svg">
  <defs
     id="defs2" />
  <sodipodi:namedview
     id="base"
     pagecolor="#ffffff"
     bordercolor="#666666"
     borderopacity="1.0"
     inkscape:pageopacity="0.0"
     inkscape:pageshadow="2"
     inkscape:zoom="0.98994949"
     inkscape:cx="291.44723"
     inkscape:cy="193.43182"
     inkscape:document-units="mm"
     inkscape:current-layer="layer1"
     inkscape:document-rotation="0"
     showgrid="false"
     units="px"
     inkscape:window-width="1920"
     inkscape:window-height="1017"
     inkscape:window-x="-8"
     inkscape:window-y="-8"
     inkscape:window-maximized="1" />
  <metadata
     id="metadata5">
    <rdf:RDF>
      <cc:Work
         rdf:about="">
        <dc:format>image/svg+xml</dc:format>
        <dc:type
           rdf:resource="http://purl.org/dc/dcmitype/StillImage" />
        <dc:title></dc:title>
      </cc:Work>
    </rdf:RDF>
  </metadata>
  <g
     inkscape:label="Слой 1"
     inkscape:groupmode="layer"
     id="layer1">
    <path
       style="fill:#000000;stroke-width:0.596914"
       d="m 63.978527,511.37249 c -12.20899,-1.75508 -23.85551,-6.58142 -34.82874,-14.43308 -7.48276,-5.35414 -8.25138,-6.13061 -14.02438,-14.1677 C 8.1424474,473.05014 3.9807474,463.85461 1.2261574,452.0605 0.33586744,448.24861 0.23422744,431.24119 0.06701744,258.08411 -0.09352256,91.852884 -0.00558256,67.644334 0.77549744,63.118714 5.4361174,36.113784 24.808107,13.261894 50.734047,4.1857838 c 2.84275,-0.99518 7.14066,-2.28743 9.55091,-2.87168 4.14441,-1.00458997 14.54029,-1.07310997 191.520433,-1.26230997 128.90214,-0.1378 189.08898,-0.003 193.407,0.43275 14.85922,1.49993997 25.83194,6.06327997 40.33706,16.77539017 4.63476,3.4228 6.18069,5.04253 10.30864,10.80075 7.84331,10.94096 11.79386,19.47119 14.54176,31.39944 l 1.33983,5.81602 0.2005,188.915506 c 0.15102,142.24917 0.0275,190.24251 -0.50075,194.28751 -3.63522,27.84465 -23.81962,51.8331 -50.70539,60.26147 -11.1166,3.48492 0.19894,3.30641 -204.75011,3.23007 -105.5928,-0.0393 -189.945833,-0.30214 -192.005403,-0.59821 z M 446.40519,468.25917 c 5.56318,-1.88277 9.06129,-3.96625 12.98543,-7.73415 4.21484,-4.047 7.95062,-10.66492 9.05931,-16.04849 0.46347,-2.25064 0.60608,-56.1367 0.49548,-187.24658 L 468.79013,73.143424 272.10107,270.89763 C 163.9221,379.66245 75.321347,468.88404 75.210527,469.16781 c -0.11307,0.28955 80.566063,0.44718 183.855023,0.35922 177.69235,-0.15132 184.17004,-0.19516 187.33964,-1.26786 z m -164.5656,-85.64562 c -6.48798,-2.25317 -10.26369,-6.1196 -12.47396,-12.77369 -1.36266,-4.10225 -0.95597,-12.80604 0.7789,-16.66942 1.85484,-4.13061 5.57485,-7.82981 9.8674,-9.81221 l 3.72933,-1.72228 62.30728,-0.16521 c 40.79238,-0.10816 63.45241,0.0464 65.6235,0.44777 8.91595,1.64809 14.54473,7.44529 16.22494,16.71046 1.75863,9.69748 -2.46584,18.93301 -10.52878,23.0181 l -3.49578,1.77114 -64.46867,0.13518 c -60.75315,0.12739 -64.64705,0.0732 -67.56416,-0.93984 z M 260.47137,221.50353 439.47416,42.279064 254.75689,42.447554 c -167.841823,0.15309 -184.997113,0.25629 -187.780483,1.12953 -11.07536,3.47473 -19.98214,12.38363 -23.14485,23.1504 -0.86279,2.93717 -0.95233,20.61575 -0.95233,188.019026 v 184.77703 l 19.29465,-19.39777 C 72.785937,409.457 162.01981,320.07699 260.47137,221.50353 Z m -109.77192,29.35294 c -5.67521,-1.79975 -10.09396,-5.6597 -12.54651,-10.95984 -1.20725,-2.60896 -1.26378,-3.73682 -1.43009,-28.5318 l -0.17315,-25.81547 -23.70413,-0.009 c -25.625913,-0.0101 -28.152153,-0.25174 -33.130903,-3.16927 -3.3329,-1.95307 -5.53285,-4.51257 -7.52876,-8.7592 -1.33931,-2.84962 -1.54224,-4.07066 -1.53756,-9.25178 0.005,-5.30223 0.1968,-6.38539 1.71921,-9.69795 1.96193,-4.26892 5.6305,-7.97455 9.80431,-9.90337 2.68739,-1.24191 3.74439,-1.3009 28.459133,-1.58826 l 25.66807,-0.29844 0.29847,-25.66625 0.29846,-25.666236 1.55967,-3.2829 c 3.24393,-6.82806 9.32949,-10.75974 17.37508,-11.22546 13.16935,-0.7623 21.56275,5.74678 23.14827,17.95148 0.30841,2.37404 0.56904,14.176626 0.57918,26.227966 l 0.0184,21.91153 25.51884,0.17338 25.51885,0.17338 3.28313,1.55955 c 4.11443,1.95446 7.3061,5.15678 9.41102,9.4425 1.44793,2.94812 1.63221,3.99713 1.63221,9.29219 0,4.94408 -0.23256,6.47314 -1.3545,8.90579 -2.29698,4.9804 -5.09964,7.83736 -10.12608,10.32229 l -4.57134,2.25994 -24.61452,0.17966 -24.61453,0.17965 -0.19077,24.29281 -0.19078,24.2928 -1.85609,3.91664 c -2.29147,4.8354 -6.75523,9.41518 -11.39534,11.69152 -4.22325,2.07184 -10.70863,2.51716 -15.32729,1.05246 z"
       id="path24" />
  </g>
</svg>
