<svg xmlns:inkscape="http://www.inkscape.org/namespaces/inkscape" xmlns:rdf="http://www.w3.org/1999/02/22-rdf-syntax-ns#" xmlns="http://www.w3.org/2000/svg" sodipodi:docname="diamond-stroke.svg" height="512" width="512" version="1.1" xmlns:cc="http://creativecommons.org/ns#" xmlns:dc="http://purl.org/dc/elements/1.1/" inkscape:version="0.91 r13725" viewBox="0 0 511.99999 511.99999" xmlns:sodipodi="http://sodipodi.sourceforge.net/DTD/sodipodi-0.dtd">
	<sodipodi:namedview bordercolor="#666666" inkscape:pageshadow="2" inkscape:window-y="-8" pagecolor="#ffffff" inkscape:window-height="1017" inkscape:window-maximized="1" inkscape:zoom="0.49497475" inkscape:window-x="-8" showgrid="false" borderopacity="1.0" inkscape:current-layer="layer1" inkscape:cx="366.70293" inkscape:cy="269.41868" units="px" inkscape:window-width="1920" inkscape:pageopacity="0.0" inkscape:document-units="px"/>
	<g inkscape:label="Layer 1" inkscape:groupmode="layer" transform="translate(0 -540.36)">
		<path inkscape:connector-curvature="0" d="m130.91 863.09c-72.122-77.52-131.03-141.21-130.91-141.52 0.12014-0.31 20.302-30.34 44.848-66.73l44.63-66.168 166.69 0.134 166.69 0.1339 44.646 66.23c24.556 36.426 44.576 66.42 44.49 66.651-0.2954 0.7958-249.15 282.22-249.56 282.22-0.22457 0-59.414-63.43-131.53-140.96zm160.12-28.698c16.157-53.916 29.376-98.309 29.376-98.651 0-0.4695-15.522-0.621-63.637-0.621-50.554 0-63.637 0.1368-63.638 0.6657-0.002 1.2858 67.886 197.39 68.203 197.02 0.17627-0.2094 13.54-44.494 29.697-98.411zm88.971-7.9191c43.96-49.778 79.928-90.696 79.928-90.929 0-0.2329-24.307-0.4235-54.016-0.4235-50.983 0-54.031 0.052-54.294 0.9319-0.153 0.5126-12.521 41.79-27.485 91.728s-27.34 91.275-27.503 91.861c-0.22132 0.7969 0.17478 0.5957 1.5729-0.7988 1.0278-1.0251 37.836-42.591 81.797-92.37zm-187.08 0.8115c-17.407-50.444-31.75-91.818-31.875-91.943-0.12455-0.1246-24.517-0.1654-54.206-0.091l-53.98 0.1357 82.182 88.4c82.045 88.252 89.031 95.711 89.355 95.387 0.0946-0.095-14.07-41.444-31.477-91.888zm-48.782-122.26c0-0.6187-46.775-73.482-47.172-73.482-0.44623 0-49.691 72.644-49.728 73.356-0.0113 0.2197 21.787 0.3994 48.44 0.3994s48.46-0.1228 48.46-0.2728zm165.25-2.5451c-1.1144-1.5499-13.503-18.673-27.53-38.052-25.182-34.79-25.515-35.219-26.415-34.06-0.50137 0.6458-12.915 17.769-27.586 38.052l-26.674 36.878h55.116 55.116l-2.0263-2.8179zm155.5 2.1196c-0.8006-1.3127-46.699-69.324-48.124-71.311l-1.4223-1.9815-23.152 36.33c-12.733 19.981-23.323 36.629-23.532 36.995-0.30285 0.5305 9.4758 0.6657 48.138 0.6657 39.884 0 48.442-0.1243 48.092-0.6983zm-265.08-48.254c14.639-20.236 26.696-37.031 26.793-37.321 0.11654-0.3467-17.325-0.5282-50.78-0.5282-45.558 0-50.925 0.087-50.645 0.8162 0.24745 0.6448 19.08 30.295 44.907 70.7 1.2721 1.9902 2.4921 3.5079 2.711 3.3726 0.21893-0.1354 12.375-16.803 27.014-37.039zm164.37-0.1969 23.794-37.386-50.906-0.1358c-27.998-0.075-51.002-0.04-51.119 0.077-0.26429 0.2643 53.692 74.888 54.124 74.855 0.172-0.013 11.02-16.848 24.107-37.41z"/>
	</g>
</svg>
