<svg xmlns:rdf="http://www.w3.org/1999/02/22-rdf-syntax-ns#" xmlns="http://www.w3.org/2000/svg" height="512" width="512" version="1.1" xmlns:cc="http://creativecommons.org/ns#" xmlns:dc="http://purl.org/dc/elements/1.1/" viewBox="0 0 512.00001 512.00001">
	<g transform="translate(0 -540.36)">
		<path d="m116.6 875.72c-63.883-73.06-116.35-133.16-116.59-133.57-0.36765-0.6121 9.5993-0.712 59.375-0.5954l59.817 0.1402 54.801 128.33c59.345 138.97 59.153 138.52 58.905 138.52-0.0922 0-52.433-59.772-116.31-132.83zm162.47 131.18c4.0763-9.7776 113.2-265.05 113.38-265.23 0.13164-0.1316 27.084-0.1763 59.894-0.099l59.66 0.13-115.26 131.91c-63.391 72.549-115.98 132.65-116.87 133.56l-1.6111 1.6523 0.80365-1.9277zm-74.45-150c-27.929-63.107-50.78-114.91-50.78-115.11 0-0.2031 45.851-0.3693 101.89-0.3693 56.04 0 101.89 0.1859 101.89 0.413 0 0.7559-101.56 229.81-101.89 229.81-0.18119 0-23.181-51.633-51.11-114.74zm-199.72-151.41c18.687-19.42 116.58-118.14 118.11-119.11 3.482-2.202 6.6292-2.4733 28.696-2.4733 18.292 0 20.92 0.10414 20.764 0.82302-0.0979 0.45267-12.075 28.823-26.615 63.045l-26.437 62.222-59.44 0.017-59.44 0.017 4.3639-4.5356zm153-6.06c2.4811-5.8312 14.54-34.205 26.798-63.053l22.287-52.451 48.742-0.006 48.742-0.006 25.574 60.167c14.066 33.092 26.145 61.468 26.843 63.059l1.2684 2.8915h-102.38-102.38l4.5111-10.602zm233.95 9.6384c-0.81849-1.5613-52.522-123.14-52.817-124.2-0.25266-0.90577 0.99427-0.96384 20.697-0.96384 22.101 0 25.233 0.27016 28.731 2.4786 1.4678 0.92661 103.06 103.39 119.73 120.75l2.7756 2.8915h-59.306c-55.923 0-59.335-0.055-59.812-0.9638z"/>
	</g>
</svg>
