<svg xmlns:inkscape="http://www.inkscape.org/namespaces/inkscape" xmlns:rdf="http://www.w3.org/1999/02/22-rdf-syntax-ns#" xmlns="http://www.w3.org/2000/svg" sodipodi:docname="download-stroke.svg" height="512" width="512" version="1.1" xmlns:cc="http://creativecommons.org/ns#" xmlns:dc="http://purl.org/dc/elements/1.1/" inkscape:version="0.91 r13725" viewBox="0 0 512.00001 512.00001" xmlns:sodipodi="http://sodipodi.sourceforge.net/DTD/sodipodi-0.dtd">
	<sodipodi:namedview bordercolor="#666666" inkscape:pageshadow="2" inkscape:window-y="-8" pagecolor="#ffffff" inkscape:window-height="1017" inkscape:window-maximized="1" inkscape:zoom="0.35" inkscape:window-x="-8" showgrid="false" borderopacity="1.0" inkscape:current-layer="layer1" inkscape:cx="-126.42857" inkscape:cy="520" units="px" inkscape:window-width="1920" inkscape:pageopacity="0.0" inkscape:document-units="px"/>
	<g inkscape:label="Layer 1" inkscape:groupmode="layer" transform="translate(0 -540.36)">
		<path inkscape:connector-curvature="0" d="m0 1032.4v-20h256 256v20 20h-256-256v-20zm179.25-136.29c-41.94-41.94-76.25-76.71-76.25-77.26 0-1.3018 26.207-27.484 27.51-27.484 0.54068 0 24.497 23.511 53.237 52.246l52.25 52.25v-177.75-177.75h20 20v177.5c0 97.625 0.33591 177.5 0.74646 177.5 0.41056 0 24.258-23.509 52.995-52.241l52.249-52.242 14.01 13.984 14.01 13.984-76.753 76.758c-42.214 42.217-76.98 76.758-77.258 76.758-0.27768 0-34.816-34.314-76.752-76.252z"/>
	</g>
</svg>
