<svg inkscape:version="0.92.4 (5da689c313, 2019-01-14)" sodipodi:docname="envelope-plus.svg" version="1.1" viewBox="0 0 512 512" xmlns="http://www.w3.org/2000/svg" xmlns:inkscape="http://www.inkscape.org/namespaces/inkscape" xmlns:sodipodi="http://sodipodi.sourceforge.net/DTD/sodipodi-0.dtd">
 <sodipodi:namedview id="base" bordercolor="#666666" borderopacity="1.0" inkscape:current-layer="layer1" inkscape:cx="-101.42857" inkscape:cy="560" inkscape:document-units="px" inkscape:pageopacity="0.0" inkscape:pageshadow="2" inkscape:window-height="1017" inkscape:window-maximized="1" inkscape:window-width="1920" inkscape:window-x="1192" inkscape:window-y="-8" inkscape:zoom="0.35" pagecolor="#ffffff" showgrid="false" units="px" viewbox-height="512"/>
 <g transform="translate(0 -161.53)" inkscape:groupmode="layer" inkscape:label="Layer 1">
  <path d="m37.466 672.24c-13.632-3.6685-25.131-12.829-31.475-25.075-6.2488-12.062-5.6663 2.0558-5.8938-142.86-0.22261-141.97-0.47671-133.69 4.3928-143.34 1.2844-2.5443 3.9615-6.3454 5.9492-8.447 1.9877-2.1016 18.001-15.816 35.585-30.476l31.971-26.655 0.0189-16.143c0.0189-18.028 0.70254-22.507 4.5959-30.22 2.9956-5.9343 10.888-13.888 16.424-16.552 8.1708-3.9317 11.154-4.2854 36.142-4.2854h23.062l34.531-28.856c18.992-15.871 36.333-29.896 38.537-31.167 2.2033-1.2713 6.709-3.2122 10.013-4.3131 5.0665-1.6883 7.3584-2.0078 14.641-2.0411 9.8748-0.045 16.594 1.5895 24.402 5.9366 2.4778 1.3794 20.091 15.543 39.141 31.474l34.636 28.966h23.209c25.543 0 27.967 0.30577 36.482 4.6006 6.0864 3.07 13.177 10.285 16.242 16.527 3.7132 7.5613 4.5606 13.257 4.5754 30.754l0.0151 15.465 32.849 27.456c18.067 15.101 33.744 28.414 34.838 29.585 3.3132 3.5465 6.6171 9.3704 8.1743 14.409 1.4418 4.665 1.4748 7.6842 1.4748 134.88v130.11l-1.7387 6.0028c-4.4158 15.246-16.477 27.796-32.049 33.348l-4.8805 1.7402-215.87 0.14098c-188.53 0.12321-216.39 2.2e-4 -220-0.9704zm431.36-33.237c1.6518-0.75451 4.0958-2.4948 5.431-3.8674 5.0692-5.211 4.7575 3.0113 4.5331-119.62l-0.20333-111-94.982 79.407c-52.24 43.674-96.516 80.511-98.391 81.861-15.723 11.316-38.14 12.329-54.424 2.46-2.2116-1.3404-46.894-38.278-99.294-82.083-52.4-43.805-95.841-80.112-96.535-80.682-1.1818-0.97035-1.25 6.1572-1.0675 111.62l0.19502 112.66 2.2572 3.2556c1.4784 2.1323 3.6621 3.9681 6.3291 5.3205l4.0719 2.0648 209.54-0.0189c201.31-0.0189 209.66-0.0703 212.54-1.3883zm-204.49-99.858c1.9196-1.0878 33.411-26.981 69.98-57.54l66.49-55.562 0.068-161.7-3.9567-3.1124h-140.27c-104.75 0-140.75 0.22034-142.18 0.87031-1.2235 0.55748-2.1794 1.8394-2.6591 3.5665-0.47596 1.7134-0.75047 31.335-0.75315 81.269l-3e-3 78.573 65.511 54.725c36.031 30.099 66.939 55.863 68.685 57.254 3.5918 2.8624 9.0752 4.5556 12.969 4.0049 1.4454-0.20448 4.1985-1.2616 6.118-2.3493zm-8.7592-74.127c-0.4057-0.10129-1.9561-0.38721-3.4453-0.63507-4.3135-0.718-9.1547-4.4082-11.62-8.8572l-2.1912-3.9548-0.23848-26.792-0.23849-26.792-26.792-0.23849c-26.41-0.23509-26.839-0.26344-30.078-1.9914-6.4156-3.4227-9.8208-8.933-9.8208-15.892 0-6.9823 3.4134-12.832 9.3525-16.028 2.8917-1.5562 4.0138-1.6246 30.171-1.8388l27.167-0.22261 0.23849-26.808 0.23849-26.808 1.8692-3.6601c2.2367-4.3796 5.8437-7.5227 10.424-9.0833 4.2116-1.435 6.3443-1.4405 11.1-0.0302 4.424 1.3138 8.824 5.2512 10.848 9.7076 1.2706 2.7976 1.393 5.3948 1.4081 29.872l0.0189 26.808 27.593 0.22224c24.609 0.19842 27.854 0.36434 29.999 1.5374 5.9662 3.2623 9.9923 9.982 9.9763 16.651-8e-3 4.0717-2.8698 10.015-6.2453 12.979-4.9729 4.3662-7.6627 4.7195-35.931 4.7195h-25.392l-0.0189 26.467c-0.0189 25.016-0.10054 26.652-1.5483 29.846-1.7558 3.8729-3.783 6.2279-7.1554 8.3121-2.2438 1.3868-8.104 2.9032-9.6887 2.5071zm-177.56-96.835c0-22.97-0.19389-28.832-0.93853-28.372-1.4633 0.9032-33.614 27.946-33.805 28.435-0.19767 0.50449 33.338 28.823 34.181 28.863 0.30954 0.0151 0.56311-13.002 0.56311-28.925zm374.14 14.958c9.1687-7.6964 16.774-14.259 16.901-14.583 0.12699-0.3239-6.9686-6.5819-15.768-13.906-8.7991-7.3245-16.59-13.823-17.312-14.441-1.2481-1.0676-1.314 0.33071-1.314 27.9 0 15.963 0.18482 29.024 0.41129 29.024 0.22601 0 7.913-6.2972 17.082-13.994zm-150.45-155.23c-7.5461-6.8609-36.465-30.322-38.606-31.32-3.4152-1.5919-8.2796-1.8246-12.391-0.59271-1.8358 0.55008-8.9973 6.0166-20.735 15.828-9.8619 8.2432-18.252 15.298-18.644 15.678-0.43435 0.42055 17.16 0.69063 44.988 0.69063 25.136 0 45.56-0.12812 45.388-0.2846z" stroke-width=".75084" inkscape:connector-curvature="0"/>
 </g>
</svg>
