<svg xmlns:rdf="http://www.w3.org/1999/02/22-rdf-syntax-ns#" xmlns="http://www.w3.org/2000/svg" height="512" width="512" version="1.1" xmlns:cc="http://creativecommons.org/ns#" xmlns:dc="http://purl.org/dc/elements/1.1/" viewBox="0 0 512.00001 512.00001">
	<g transform="translate(0 -540.36)">
		<path d="m14.776 1051.7c-6.3123-2.3286-10.363-5.8937-13.007-11.448l-1.7238-3.6208v-160.15-160.15l1.7747-3.7463c1.029-2.1722 2.7845-4.6912 4.1777-5.9944 2.8625-2.6779 237.79-163.12 241.55-164.97 2.2104-1.0852 3.4802-1.2769 8.4501-1.2769 4.9991 0 6.2337 0.188 8.4986 1.2997 4.2819 2.1005 238.27 161.83 241.37 164.77 1.5927 1.5102 3.534 4.1321 4.4562 6.0182l1.6342 3.3421v160.42 160.42l-1.7237 3.6208c-2.1908 4.6015-5.6508 8.0615-10.252 10.252l-3.6207 1.7237-239.8 0.1003c-196.64 0.084-240.16-0.031-241.78-0.6296zm454.98-165.6c0.0773-68.09 0.006-123.8-0.16147-123.8-0.16606 0-45.725 30.991-101.24 68.869-55.516 37.878-102.32 69.519-104 70.315-2.6224 1.2377-3.8284 1.4474-8.3741 1.456-4.7989 0-5.6316-0.1504-8.6454-1.6611-1.8342-0.9191-48.619-32.565-103.97-70.325-55.347-37.76-100.77-68.654-100.95-68.654-0.4522 0-0.39986 247.05 0.05241 247.51 0.20462 0.2047 96.396 0.3091 213.76 0.2321l213.39-0.14 0.14058-123.8zm-115.42-97.07c53.908-36.769 98.015-67.128 98.015-67.465 0-0.6358-195.42-134.17-196.35-134.17-0.90965 0-196.69 133.78-196.52 134.29 0.17356 0.5017 195.95 134.2 196.52 134.2 0.17808 0 44.431-30.083 98.339-66.852z"/>
	</g>
</svg>
