<svg width="512" height="512" version="1.1" viewBox="0 0 512 512" xmlns="http://www.w3.org/2000/svg">
	<g transform="translate(0 -161.53)">
		<g transform="matrix(.86804 0 0 .86804 1.8555 161.53)">
			<path transform="translate(313.2 208.61)" d="m38.38 198.38 233.72 175.75-0.09-348.74-62.67 46.265z" data-name="Path 680"/>
			<path transform="translate(22.512 351.32)" d="m270.27 42.76-36.869 22.119h-0.553l-229.85 173.63h534.54l-229.67-173.54z" data-name="Path 681"/>
			<path transform="translate(0 208.53)" d="m0.26 25.38v348.83l233.54-175.75z" data-name="Path 682"/>
			<path transform="translate(7.805)" d="m46.185 250.22 4.7 3.5 23.593 17.6v-189.94a6.82 6.82 0 0 1 5.806-2.488h409.29a6.728 6.728 0 0 1 5.714 2.4v191.88l28.295-22.768 47.095-34.561-47-29.031v-105.52a32.533 32.533 0 0 0-34.1-30.69h-113.08l-73.085-45.528a35.851 35.851 0 0 0-18.432-5.069 35.114 35.114 0 0 0-18.432 5.161l-72.992 45.439h-113.27a32.533 32.533 0 0 0-34.1 30.69v105.98l-44.975 29.492z" data-name="Path 683"/>
			<path transform="translate(111 99.58)" d="m27.963 40.506h307.54a14.193 14.193 0 1 0 0-28.386h-307.54a14.193 14.193 0 0 0 0 28.386z" data-name="Path 684"/>
			<path transform="translate(111 145.59)" d="m27.963 46.106h307.54a14.193 14.193 0 1 0 0-28.386h-307.54a14.193 14.193 0 0 0 0 28.386z" data-name="Path 685"/>
			<path transform="translate(111 191.6)" d="m27.963 51.706h307.54a14.193 14.193 0 1 0 0-28.386h-307.54a14.193 14.193 0 1 0 0 28.386z" data-name="Path 686"/>
			<path transform="translate(145.76 237.61)" d="m32.193 57.306h229.58a14.193 14.193 0 0 0 0-28.386h-229.58a14.193 14.193 0 1 0 0 28.386z" data-name="Path 687"/>
		</g>
	</g>
</svg>
