<svg xmlns:rdf="http://www.w3.org/1999/02/22-rdf-syntax-ns#" xmlns="http://www.w3.org/2000/svg" height="512" width="512" version="1.1" xmlns:cc="http://creativecommons.org/ns#" xmlns:dc="http://purl.org/dc/elements/1.1/" viewBox="0 0 512.00001 512.00001">
	<g transform="translate(0 -540.36)">
		<path d="m254.03 1052.2c-1.3077-0.1274-5.7213-0.5144-9.808-0.8599-82.83-7.0033-158.02-50.919-203.2-118.68-18.604-27.904-31.28-59.206-37.252-91.988-3.0299-16.631-3.5504-23.129-3.5504-44.324 0-15.637 0.22845-21.7 1.0638-28.235 3.8819-30.366 11.572-56.022 24.588-82.03 12.228-24.434 27.235-45.128 47.451-65.434 19.281-19.366 35.705-31.806 60.994-46.197 11.644-6.6261 29.385-14.374 44.499-19.433 62.149-20.803 126.29-19.481 186.24 3.839 45.802 17.815 84.386 48.698 105.91 84.773 26.885 45.053 30.475 97.326 10.714 156.02-8.7826 26.086-20.277 47.798-35.418 66.9-5.5961 7.0601-18.332 19.987-24.913 25.288-19.387 15.614-41.248 26.09-65.386 31.333-10.517 2.2845-17.18 2.9811-28.829 3.0141-11.138 0.032-16.709-0.6138-23.45-2.7169-5.198-1.6214-6.8503-2.5469-10.287-5.7619-4.6316-4.3324-6.7604-9.3334-7.8213-18.374l-0.6451-5.4975-5.0526 4.2185c-11.47 9.5768-28.667 19.385-41.976 23.941-18.793 6.434-37.988 7.7677-55.91 3.8847-45.325-9.82-77.372-49.927-84.344-105.56-1.1312-9.0252-1.2736-28.35-0.2793-37.891 6.2538-60.008 40.822-114.47 88.659-139.68 17.54-9.2427 34.31-13.529 52.835-13.504 26.135 0.0354 48.332 8.9423 66.795 26.803 9.6009 9.2876 15.22 16.51 21.269 27.334 2.7791 4.9737 2.8208 5.0146 3.4426 3.3792 0.34617-0.9105 0.6294-1.8433 0.6294-2.0728 0-1.5195 9.7004-35.59 10.679-37.509 7.5358-14.771 29.262-14.776 36.879-0.007 1.6583 3.2151 2.4834 8.7414 1.8202 12.19-0.31047 1.6145-2.1667 8.8203-4.1248 16.013-25.375 93.205-44.463 174.63-48.553 207.1l-0.40469 3.2134 6.4586-0.3572c12.542-0.6935 25.528-4.1904 38.253-10.3 32.94-15.817 56.181-44.839 70.528-88.07 10.719-32.3 13.202-59.301 7.8565-85.431-9.7938-47.872-50.793-88.214-110.26-108.49-37.91-12.927-75.213-15.503-115.83-8.001-41.193 7.6084-81.164 27.215-111.75 54.815-39.83 35.941-63.323 80.226-70.243 132.41-1.4344 10.818-1.4344 37.331 0 48.148 4.9469 37.309 17.998 69.792 39.887 99.278 7.3182 9.8579 14.16 17.583 24.206 27.334 19.451 18.878 40.646 33.195 65.574 44.296 44.611 19.865 94.152 25.509 142.93 16.283 65.623-12.411 122.34-52.099 154.82-108.33 5.457-9.4488 7.2418-11.495 12.121-13.897 3.658-1.8008 4.4262-1.9561 9.6345-1.9476 6.8969 0.011 10.013 1.2917 14.671 6.0291 5.533 5.6268 7.1314 13.829 4.1212 21.148-4.2699 10.383-20.182 33.922-32.452 48.009-16.136 18.525-37.456 37.019-57.365 49.76-37.799 24.192-79.34 38.464-125.12 42.986-6.3847 0.6307-37.026 1.2422-41.312 0.8244zm-37.25-166.93c23.915-5.0689 46.725-22.791 63.89-49.639 6.1952-9.6899 13.601-26.335 17.068-38.363 1.7242-5.9808 3.9032-16.34 4.8137-22.885 1.152-8.2805 0.99283-29.09-0.27955-36.557-3.5402-20.777-10.409-35.951-21.715-47.969-8.5001-9.036-17.73-14.615-28.907-17.474-6.8312-1.7472-17.938-2.1508-24.669-0.89654-40.074 7.4684-76.085 49.578-86.137 100.73-2.2425 11.41-2.6456 15.576-2.6835 27.731-0.0411 13.183 0.79109 20.53 3.5109 30.994 9.1068 35.039 33.967 56.632 63.911 55.513 3.7597-0.1406 8.7986-0.6716 11.198-1.1801z"/>
	</g>
</svg>
