<svg inkscape:version="0.92.4 (5da689c313, 2019-01-14)" sodipodi:docname="envelope-fill.svg" version="1.1" viewBox="0 0 512 512" xmlns="http://www.w3.org/2000/svg" xmlns:inkscape="http://www.inkscape.org/namespaces/inkscape" xmlns:sodipodi="http://sodipodi.sourceforge.net/DTD/sodipodi-0.dtd">
 <sodipodi:namedview id="base" bordercolor="#666666" borderopacity="1.0" inkscape:current-layer="layer1" inkscape:cx="-101.42857" inkscape:cy="560" inkscape:document-units="px" inkscape:pageopacity="0.0" inkscape:pageshadow="2" inkscape:window-height="1017" inkscape:window-maximized="1" inkscape:window-width="1920" inkscape:window-x="1192" inkscape:window-y="-8" inkscape:zoom="0.35" pagecolor="#ffffff" showgrid="false" units="px"/>
 <g transform="translate(0 -161.53)" inkscape:groupmode="layer" inkscape:label="Layer 1">
  <path d="m32.501 608.18c-7.0544-1.7155-14.904-6.2439-19.538-11.271-5.0692-5.4995-5.4827-10.696-1.2116-15.23 1.5125-1.6057 16.7-12.942 33.75-25.192 35.825-25.739 98.043-72.032 121.71-90.556 25.761-20.165 24.582-19.364 28.524-19.364 4.0541 0 6.421 1.5982 19.268 13.011 4.675 4.153 10.525 9.1714 13 11.152 10.56 8.4503 22.807 11.947 34.632 9.8877 11.521-2.0063 15.451-4.5378 40.27-25.942 8.0096-6.9074 9.9352-8.1076 13-8.1032 4.4469 7e-3 4.4831 0.0306 28.748 19.07 31.486 24.705 77.003 58.587 132.11 98.34 12.794 9.2291 23.931 17.736 24.75 18.905 0.81852 1.1686 1.4882 3.8233 1.4882 5.8993 0 6.885-9.4416 14.949-22.125 18.896-5.8549 1.8222-13.22 1.8812-224.71 1.799-168.01-0.0653-219.82-0.36671-223.66-1.301zm-27.08-56.758c-1.1439-0.55505-2.8314-2.2815-3.75-3.8366-1.5361-2.6004-1.6702-12.794-1.6702-126.97 0-133.68-0.20442-128.26 4.9446-131.02 3.369-1.803 9.5499-1.2127 12.67 1.2102 3.3411 2.594 75.396 63.796 121.38 103.1 17.322 14.805 32.119 27.808 32.881 28.897 2.3519 3.3579 1.9224 9.2816-0.89438 12.335-5.57 6.0384-63.93 50.305-122.34 92.798-29.907 21.756-34.286 24.625-37.5 24.565-2.0013-0.0372-4.5746-0.52182-5.7185-1.0769zm456.47-24.631c-57.735-42.054-115.33-85.728-120.77-91.578-1.7061-1.8345-2.3864-3.7292-2.3864-6.6467 0-2.9085 0.68552-4.8271 2.3864-6.6789 2.6726-2.9098 43.365-37.897 103.39-88.893 57.004-48.432 51.887-44.432 56.802-44.406 4.4421 0.0235 7.6743 1.9336 9.581 5.662 0.80498 1.5741 1.117 36.869 1.117 126.35 0 114.05-0.13565 124.39-1.6653 126.98-1.9742 3.3421-5.1918 4.9895-9.7454 4.9895-2.7544 0-9.3148-4.3691-38.703-25.775zm-209.89-67.157c-5.5418-1.1037-7.2065-2.3276-27.914-20.523-25.525-22.429-91.327-78.784-157.1-134.54-28.869-24.475-53.925-45.891-55.68-47.591-3.5567-3.4453-4.8505-7.1149-3.8766-10.995 0.92358-3.6799 8.6647-11.604 14.368-14.709 11.15-6.0688-3.7659-5.7049 233.86-5.7049 157.04 0 218.71 0.31159 222.54 1.1244 7.0868 1.5037 14.014 5.1108 19.466 10.136 6.96 6.4155 8.633 10.792 6.1819 16.172-0.6331 1.3895-22.781 20.873-49.217 43.297-64.268 54.513-142.6 121.62-166.75 142.84-10.791 9.4844-20.916 17.901-22.5 18.704-3.8346 1.9429-9.092 2.6478-13.38 1.7938z" inkscape:connector-curvature="0"/>
 </g>
</svg>
