<svg xmlns:rdf="http://www.w3.org/1999/02/22-rdf-syntax-ns#" xmlns="http://www.w3.org/2000/svg" height="512" width="512" version="1.1" xmlns:cc="http://creativecommons.org/ns#" xmlns:dc="http://purl.org/dc/elements/1.1/" viewBox="0 0 512.00001 512.00001">
	<g transform="translate(0 -540.36)">
		<path d="m25.416 1051.7c-9.8609-2.1654-18.422-9.4724-22.454-19.165-3.0254-7.2727-2.852 3.4197-2.6923-165.96 0.13895-147.39 0.19447-155.41 1.0872-157.04 0.51743-0.9468 1.7136-2.6018 2.6582-3.6776 2.3464-2.6724 243.41-163.4 246.93-164.64 3.3787-1.1891 6.7276-1.1891 10.106 0 3.5197 1.2388 244.59 161.97 246.93 164.64 0.94457 1.0758 2.1407 2.7308 2.6582 3.6776 0.89276 1.6336 0.94829 9.6537 1.0872 157.04 0.16016 169.9 0.35063 158.51-2.7805 166.22-3.2895 8.1016-10.402 14.854-18.92 17.963l-3.9774 1.4516-228.72 0.093c-187.53 0.076-229.3-0.034-231.91-0.6083zm443.05-31.6c-0.27793-0.2637-48.199-35.447-106.49-78.186l-105.99-77.706-105.98 77.715c-58.289 42.743-106.21 77.927-106.49 78.186-0.29353 0.2737 88.755 0.4712 212.47 0.4712 126.49 0 212.77-0.1947 212.47-0.4795zm-358.21-88.57c40.226-29.492 73.54-54.009 74.032-54.483 0.82959-0.7996-4.526-4.8327-74.602-56.18-41.523-30.425-75.974-55.647-76.558-56.049-1.0611-0.7288-1.0626-0.5749-1.0626 111.62v112.35l2.5266-1.8164c1.3896-0.9989 35.439-25.946 75.664-55.438zm369.55-111.2-0.13542-56.118-76.49 56.094-76.49 56.094 7.0634 5.2098c3.8849 2.8654 38.305 28.12 76.49 56.122l69.426 50.912 0.13542-56.099c0.0745-30.854 0.0745-81.352 0-112.22zm-249.89 23.439c9.3248-6.8563 17.992-13.017 19.26-13.69 3.3076-1.7562 10.337-1.7617 13.634-0.01 1.257 0.6676 9.937 6.8283 19.289 13.69 9.352 6.8621 17.233 12.476 17.513 12.476 0.55164 0 179.79-131.27 179.79-131.67 0-0.373-222.89-148.65-223.45-148.65-0.43133 0-221.87 147.37-223.01 148.41-0.24569 0.2256 30.033 22.75 67.287 50.054 37.253 27.304 77.547 56.872 89.542 65.707 11.995 8.8347 22.117 16.082 22.495 16.106 0.37757 0.023 8.3159-5.5669 17.641-12.423z"/>
	</g>
</svg>
