<svg xmlns:rdf="http://www.w3.org/1999/02/22-rdf-syntax-ns#" xmlns="http://www.w3.org/2000/svg" height="512" width="512" version="1.1" xmlns:cc="http://creativecommons.org/ns#" xmlns:dc="http://purl.org/dc/elements/1.1/" viewBox="0 0 512.00001 512.00001">
	<g transform="translate(0 -540.36)">
		<path d="m239.12 1045.1c-64.31-24.5-117.27-64.09-149.06-111.38-19.08-28.382-33.549-75.376-40.9-132.83-5.6714-44.33-8.408-116.03-5.5737-146.02l1.1574-12.249 14.374-4.3583c23.002-6.9745 47.644-19.773 58.578-30.422 12.17-11.854 17.384-23.395 18.523-41.003 0.67517-10.43 1.5946-13.814 3.9338-14.478 46.489-13.209 150.84-16.058 210.63-5.7508 23.899 4.1196 22.383 3.0784 22.73 15.605 0.9156 33.036 23.331 54.289 74.753 70.878l19.014 6.1342 1.5173 25.252c1.7135 28.517 0.3569 95.497-2.5238 124.61-6.4274 64.955-19.825 111.65-41.508 144.67-23.33 35.53-61.586 68.977-107.28 93.791-13.402 7.2783-54.562 24.947-57.824 24.822-0.83968-0.032-10.081-3.3164-20.536-7.2982zm43.915-32.567c64.355-27.561 113.85-71.878 134.53-120.45 7.5642-17.769 15.699-49.965 19.532-77.303 4.5636-32.55 7.0435-90.78 5.3167-124.84l-1.5189-29.958-13.189-3.5712c-18.529-5.0171-45.348-18.562-56.79-28.682-12.399-10.966-22.693-26.5-25.436-38.385-2.138-9.2623-2.2323-9.3537-11.779-11.419-44.382-9.603-123.37-8.5745-159.37 2.0751-7.9471 2.351-8.5207 2.9764-9.8452 10.735-4.6079 26.992-40.185 57.302-80.873 68.898l-12.485 3.5586-1.3192 21.422c-2.834 46.021 3.6136 122.52 13.946 165.47 14.552 60.489 43.054 100.1 97.131 134.98 25.412 16.391 67.023 35.061 78.604 35.268 2.8169 0.05 13.415-3.4603 23.552-7.8015zm-40.921-6.9857c-51.4-19.17-97.71-53.76-122.87-91.74-17.38-26.23-29.191-64.28-35.32-113.82-3.5299-28.527-6.1037-87.067-4.7799-108.72l1.2904-21.103 12.538-4.0703c23.371-7.587 39.352-16.432 53.066-29.369 13.347-12.591 24.475-30.613 24.475-39.636 0-5.4677 2.6358-6.5468 27.32-11.185 23.3-4.3782 95.502-5.0512 116.82-1.0888 24.906 4.6297 27.32 5.6158 27.32 11.157 0 15.544 24.988 43.804 49.106 55.537 7.8369 3.8124 20.681 8.8238 28.542 11.137l14.293 4.2051 1.2873 34.065c3.5083 92.841-10.47 171.85-37.697 213.07-10.426 15.784-34.713 40.643-53.462 54.717-23.204 17.42-73.486 42.527-84.544 42.216-1.7898-0.05-9.6133-2.4652-17.385-5.3664zm34.752-53.879c19.675-8.5892 40.868-21.519 55.065-33.596 44.746-38.063 59.031-81.463 59.031-179.34v-42.217l-12.718-3.8386c-29.984-9.0501-45.568-23.011-47.163-42.254l-0.85142-10.266-11.556-2.2643c-27.754-5.4381-99.7-4.3261-128.85 1.9914l-9.8918 2.1442-0.0414 7.8516c-0.10843 20.574-15.887 35.728-47.534 45.652l-10.834 3.3974v35.938c0 78.054 12.072 128.49 38.69 161.65 11.667 14.535 34.754 32.682 55.481 43.611 20.487 10.802 37.304 17.945 42.43 18.022 2.0726 0.0311 10.504-2.8839 18.737-6.4779zm-49.83-42.04c-66.81-18.72-102.76-86.64-80.81-152.65 2.1802-6.5554 8.1548-18.185 13.277-25.842 33.924-50.72 98.622-66.138 153.9-36.675 23.059 12.291 44.642 37.818 52.857 62.517 11.97 35.99 7.1625 73.762-13.277 104.32-14.869 22.231-33.926 36.621-61.364 46.34-15.805 5.5976-48.15 6.5915-64.59 1.9847zm61.716-28.196c1.6418-0.57589 2.3552-5.8202 2.3552-17.313v-16.487l15.088-1.0342c17.964-1.2313 27.42-5.5161 32.315-14.643 4.8006-8.9512 4.6311-25.327-0.3467-33.492-6.104-10.012-12.756-11.663-46.995-11.663h-30.207v46.966c0 43.123 0.26978 47.041 3.2973 47.886 3.9482 1.1012 21.168 0.94634 24.494-0.22035zm2.3552-65.427v-10.363h8.3441c9.8034 0 14.266 3.5576 14.266 11.373 0 6.626-4.3582 9.3525-14.949 9.3525h-7.6605v-10.363zm-33.915-1.8842v-10.363h-23.552-23.552v-8.4787-8.4787h20.726 20.726v-9.4208-9.4208h-20.726-20.726v-6.5946-6.5946h22.61 22.61v-9.4208-9.4208h-35.799-35.799v44.278 44.278h36.741 36.741v-10.363z"/>
	</g>
</svg>
