<svg xmlns:rdf="http://www.w3.org/1999/02/22-rdf-syntax-ns#" xmlns="http://www.w3.org/2000/svg" height="512" width="512" version="1.1" xmlns:cc="http://creativecommons.org/ns#" xmlns:dc="http://purl.org/dc/elements/1.1/" viewBox="0 0 512.00001 512.00001">
	<g transform="translate(0 -540.36)">
		<path d="m48.249 1052c-8.7485-1.5841-15.922-8.834-17.435-17.622-0.3497-2.0307-0.38282-26.417-0.32471-239.09l0.0647-236.83 0.57214-2.0155c2.1538-7.5875 8.1852-13.553 15.742-15.57l2.0781-0.5546h126.98 126.98l2.1024 0.5608c2.6098 0.6961 5.3497 1.9968 7.1707 3.4041 2.6609 2.0564 164.04 155.1 165.25 156.72 1.3727 1.8295 2.9778 5.1292 3.6422 7.4875 0.44506 1.5797 0.46141 7.3699 0.46141 163.51v161.87l-0.56977 2.138c-2.003 7.5157-7.9744 13.52-15.61 15.695l-1.9599 0.5585-206.59 0.041c-176.55 0.035-206.88-0.011-208.55-0.3134zm389.81-185.47-0.0151-143.29-73.489-70.221-73.489-70.221-109.03-0.01-109.03-0.01v213.52 213.52h182.53 182.53l-0.0154-143.29zm-200.41 29.247c-17.643-0.8371-30.172-5.1874-38.258-13.284-7.1109-7.1206-10.741-16.746-11.505-30.508-0.31538-5.6799-0.31122-93.165 0.005-98.857 1.4886-26.82 14.828-40.104 43.46-43.278 3.3469-0.3711 5.9984-0.4397 15.622-0.4045 17.317 0.063 38.061 0.7871 41.936 1.4628 1.9582 0.3415 3.7172 1.7564 4.8345 3.8888 0.58864 1.1235 0.59403 1.2081 0.59403 9.3219v8.1882l-0.69829 1.3251c-0.79601 1.5105-2.1737 2.6261-3.7616 3.0461-0.76626 0.2027-9.001 0.3119-28.167 0.3738-23.365 0.075-27.458 0.1436-29.812 0.4957-8.9497 1.3391-12.093 3.7189-13.579 10.282-0.51342 2.2663-0.53989 3.111-0.63259 20.187l-0.0968 17.822 35.098 0.066 35.098 0.066 1.4159 0.664c1.9169 0.8988 3.2536 2.1659 4.2782 4.0554l0.85639 1.5792v6.8025 6.8025l-0.85639 1.5792c-1.0246 1.8895-2.3613 3.1566-4.2782 4.0554l-1.4159 0.664-35.083 0.066-35.083 0.066v20.013c0 16.28 0.07 20.547 0.37536 22.876 1.0832 8.2628 4.1312 10.993 13.903 12.455 2.3335 0.349 6.7171 0.4295 30.316 0.5569 22.03 0.1189 27.74 0.2159 28.343 0.4812 1.356 0.5968 2.3895 1.5651 3.0911 2.8956l0.68917 1.3071v8.3142c0 8.2461-0.005 8.3234-0.59404 9.4478-1.2574 2.3999-2.9006 3.5775-5.6111 4.0211-4.5344 0.7422-41.2 1.5431-50.482 1.1028z"/>
	</g>
</svg>
