<svg xmlns:rdf="http://www.w3.org/1999/02/22-rdf-syntax-ns#" xmlns="http://www.w3.org/2000/svg" height="512" width="512" version="1.1" xmlns:cc="http://creativecommons.org/ns#" xmlns:dc="http://purl.org/dc/elements/1.1/" viewBox="0 0 512.00001 512.00001">
	<g transform="translate(0 -540.36)">
		<path d="m37.141 1051.8c-16.673-2.7-30.174-14.7-35.385-31.3l-1.2464-3.9691v-220.13-220.13l1.2464-3.9691c5.2819-16.821 18.73-28.598 35.822-31.371 4.641-0.7532 432.2-0.7532 436.84 0 17.092 2.7737 30.54 14.551 35.822 31.371l1.2463 3.9691v220.13 220.13l-1.2463 3.9691c-5.2819 16.821-18.73 28.598-35.822 31.371-4.1505 0.6736-433.25 0.6459-437.28-0.028zm434.26-38.389c1.1214-0.7545 2.0592-1.9816 2.4722-3.2348 0.52816-1.6024 0.63791-35.446 0.53172-164.02l-0.13378-162-218.14-0.1336-218.14-0.1335v163.27c0 114.36 0.16945 163.59 0.56565 164.33 0.31111 0.5812 1.328 1.5217 2.2598 2.0899 1.6701 1.0183 4.7293 1.033 215.23 1.035h213.54l1.8067-1.2159zm-218.47-65.27c-5.8392-0.9448-11.326-5.1151-13.895-10.562l-1.3795-2.9244-0.1449-32.302-0.14491-32.302-29.631-0.01c-17.813-0.01-30.981-0.2229-33.014-0.5529-6.404-1.0391-11.731-4.9723-14.369-10.609-1.9385-4.1425-2.1919-10.249-0.60121-14.488 1.4939-3.98 5.3813-8.2236 9.3978-10.259l3.106-1.5735 32.435-0.2659 32.435-0.2659 0.26586-32.435c0.26164-31.92 0.28424-32.475 1.4246-34.943 1.6197-3.506 5.4326-7.3891 9.0606-9.2273 2.7572-1.3971 3.5937-1.5574 8.125-1.5574 4.4364 0 5.4144 0.1783 8.034 1.4648 3.9551 1.9423 7.9445 6.2213 9.5529 10.246l1.2694 3.1769 0.17657 31.754 0.17657 31.754 32.268 0.1487 32.268 0.1487 2.9827 1.4647c4.0388 1.9834 7.97 6.2345 9.4757 10.246 1.6386 4.3663 1.4079 10.414-0.55736 14.609-2.6772 5.7149-7.8795 9.5565-14.367 10.609-2.031 0.3295-15.122 0.5504-32.76 0.5529l-29.377 0.01-0.0107 29.112c-0.006 16.011-0.2267 30.605-0.4907 32.43-0.94373 6.5249-4.6655 11.989-10.011 14.698-2.274 1.1523-3.5412 1.4992-7.8317 2.1438-0.58489 0.088-2.3253-0.045-3.8676-0.2939zm221.58-332.92c-0.0218-22.544-0.20269-31.474-0.66465-32.815-0.36258-1.0528-1.409-2.3633-2.4413-3.0574l-1.8067-1.2148h-213.43c-188.32 0-213.61 0.094-214.97 0.7946-3.3497 1.7322-3.1962 0.041-3.1962 35.215v32.051h218.27 218.27l-0.0298-30.973z"/>
	</g>
</svg>
