<?xml version="1.0" encoding="UTF-8" standalone="no"?>
<svg id="svg2" xmlns:rdf="http://www.w3.org/1999/02/22-rdf-syntax-ns#" xmlns="http://www.w3.org/2000/svg" height="512" width="512" version="1.1" xmlns:cc="http://creativecommons.org/ns#" xmlns:dc="http://purl.org/dc/elements/1.1/" viewBox="0 0 512.00001 512.00001">
	<g id="layer1" transform="translate(0,-540.36216)">
		<path id="path3373" d="m198.4 1048.9622-3.4-3.4v-108.10002-108.1h-34.54966c-36.75778 0-38.91205-0.25717-41.4207-4.94461-0.66418-1.24103-1.02175-18.18579-1.0074-47.73965 0.0203-41.89966 0.16991-45.99805 1.75-47.9487 3.42385-4.22682 4.72668-4.36704 40.5748-4.36704h34.47852l0.44376-40.25c0.40357-36.60521 0.63959-41.13235 2.6065-49.99388 10.89444-49.0828 41.71231-80.23917 89.8803-90.86755 8.90837-1.96565 13.45619-2.19003 53.03752-2.61674 23.81151-0.25671 44.43736-0.17968 45.83523 0.17116 1.39788 0.35084 3.62824 1.81041 4.95636 3.24348l2.41477 2.60558v42.91971c0 27.34188-0.37127 43.61345-1.02292 44.83106-2.22161 4.15113-4.28711 4.4355-36.47708 5.022-35.55092 0.64774-38.85499 1.25357-46.05657 8.44489-6.79077 6.78111-7.44343 10.84133-7.44343 46.30589v30.1844h40.6 40.6l3.4 3.4 3.4 3.4-0.0222 45.85c-0.0203 41.93212-0.16987 46.03226-1.75 47.98296-3.46035 4.27182-4.46682 4.36704-46.16206 4.36704h-40.06574l-0.002 106.75c-0.001 99.63282-0.11813 106.98242-1.75 110.23612-0.96165 1.9173-2.87345 4.0482-4.24845 4.7352-1.88985 0.9443-13.81222 1.2528-48.85 1.2639l-46.34955 0.015-3.4-3.4z"/>
	</g>
</svg>
