<svg width="512" height="512" version="1.1" viewBox="0 0 512 512" xmlns="http://www.w3.org/2000/svg">
	<g transform="translate(0 -161.53)">
		<path d="m442.15 231.43a142 142 0 0 0-41.902-16.037 124.41 124.41 0 0 0-25.866-1.8106 108.38 108.38 0 0 0-25.866 2.3279 159.33 159.33 0 0 0-74.493 46.817l-17.847 17.847-14.743-15.261a160.63 160.63 0 0 0-75.786-48.886 75.01 75.01 0 0 0-27.417-2.8452 124.41 124.41 0 0 0-25.866 1.8106 140.45 140.45 0 0 0-97.513 73.2 129.33 129.33 0 0 0-14.743 65.181 110.96 110.96 0 0 0 2.5866 29.228 173.56 173.56 0 0 0 36.47 72.941 957.03 957.03 0 0 0 174.33 148.73 173.82 173.82 0 0 0 31.039 15.519 36.212 36.212 0 0 0 10.605 1.5519 57.939 57.939 0 0 0 25.866-7.7597 750.1 750.1 0 0 0 142.26-108.12 303.66 303.66 0 0 0 72.165-85.356 142.26 142.26 0 0 0-53.283-189.08z"/>
	</g>
</svg>
