<svg width="512" height="512" version="1.1" viewBox="0 0 135.47 135.47" xmlns="http://www.w3.org/2000/svg">
	<g transform="translate(0 -161.53)">
		<path d="m117.06 179.97a37.594 37.594 0 0 0-11.093-4.2456 34.718 34.718 0 0 0-6.8478-0.47935 30.404 30.404 0 0 0-6.8478 0.61631 41.977 41.977 0 0 0-19.722 12.394l-4.725 4.725-3.9032-4.0402a42.525 42.525 0 0 0-20.064-12.942 19.859 19.859 0 0 0-7.2586-0.68477h-0.34239a30.678 30.678 0 0 0-6.8478 0.47935 37.252 37.252 0 0 0-25.474 19.311 34.239 34.239 0 0 0-3.9032 17.256 29.377 29.377 0 0 0 0.68478 7.738 46.359 46.359 0 0 0 9.6553 19.311 251.18 251.18 0 0 0 46.154 39.375 46.017 46.017 0 0 0 8.2173 4.1087 9.9293 9.9293 0 0 0 2.8076 0.41087 15.339 15.339 0 0 0 6.8478-2.0543 198.59 198.59 0 0 0 37.663-28.624 80.393 80.393 0 0 0 19.105-22.803 37.663 37.663 0 0 0-14.106-49.852zm11.162 38.142a47.181 47.181 0 0 1-16.024 25.268 223.51 223.51 0 0 1-39.169 31.226 12.463 12.463 0 0 1-5.4097 2.1228h-0.54782a92.171 92.171 0 0 1-20.201-13.148c-3.9717-3.0815-5.6836-4.451-12.942-10.614-3.8347-3.2869-13.696-12.668-16.298-15.681a41.087 41.087 0 0 1-10.409-19.927 37.32 37.32 0 0 1 0-11.71 30.541 30.541 0 0 1 26.706-23.693h2.6021a24.926 24.926 0 0 1 13.696 4.5195 63.068 63.068 0 0 1 11.093 9.4499c4.0402 4.2456 4.9304 4.8619 6.4369 4.8619 1.5065 0 2.5337-0.61629 8.4912-6.4369a94.636 94.636 0 0 1 7.601-6.8478 24.994 24.994 0 0 1 15.339-5.4782h2.3967a30.541 30.541 0 0 1 26.501 23.625 38.074 38.074 0 0 1 0.6163 5.6152 25.474 25.474 0 0 1-0.47934 6.8478z" stroke-width="6.8478"/>
	</g>
</svg>
