<svg xmlns:rdf="http://www.w3.org/1999/02/22-rdf-syntax-ns#" xmlns="http://www.w3.org/2000/svg" height="512" width="512" version="1.1" xmlns:cc="http://creativecommons.org/ns#" xmlns:dc="http://purl.org/dc/elements/1.1/" viewBox="0 0 512.00001 512.00001">
	<g transform="translate(0 -540.36)">
		<path d="m46.733 1051.7c-7.3054-1.977-13.184-7.7666-15.367-15.134-0.78097-2.6362-0.85586-23.654-0.85586-240.18s0.0749-237.55 0.85586-240.18c1.8222-6.1506 6.0963-11.029 12.175-13.897l3.7232-1.7567 127.39-0.14125c125.74-0.13943 127.43-0.12762 130.87 0.91436 1.9171 0.58059 4.4579 1.7212 5.6461 2.5347 1.9381 1.327 155.21 146.03 163.36 154.22 2.2035 2.2162 3.9366 4.6034 5.0529 6.9598l1.699 3.5867 0.13722 162.47c0.14973 177.26 0.35599 164.7-2.7971 170.34-1.9104 3.418-6.0782 7.1137-10.253 9.0912l-3.576 1.6941-207.7 0.1c-173.17 0.083-208.14-0.02-210.36-0.62zm391.2-185.02v-143.26l-5.7177-5.5455c-3.1448-3.05-24.387-23.384-47.205-45.188-22.818-21.803-53.306-50.941-67.752-64.751l-26.266-25.108h-108.97-108.97v213.55 213.55h182.44 182.44v-143.26zm-219.53 32.867c-6.5714-1.7697-6.8647-2.0241-36.378-31.547-26.023-26.031-28.119-28.264-29.785-31.725-1.716-3.564-1.7926-3.9848-1.7921-9.8399 0.0005-5.8663 0.0728-6.2607 1.7674-9.6372 4.5761-9.1184 14.614-14.44 24.098-12.775 7.037 1.2353 8.0724 2.0542 28.646 22.653l18.875 18.899 53.993-53.891c51.009-50.913 54.181-53.973 57.386-55.372 1.8662-0.8146 4.9885-1.7281 6.9386-2.0299 9.1889-1.4223 19.353 4.1363 23.291 12.737 2.9739 6.4959 2.8582 12.766-0.36498 19.776-1.5377 3.3444-4.8893 6.7799-64.777 66.398-41.809 41.62-63.978 63.322-65.589 64.207-5.0886 2.7955-11.007 3.575-16.308 2.1475z"/>
	</g>
</svg>
