<?xml version="1.0" encoding="UTF-8" standalone="no"?>
<svg id="svg2" xmlns:rdf="http://www.w3.org/1999/02/22-rdf-syntax-ns#" xmlns="http://www.w3.org/2000/svg" height="512" width="512" version="1.1" xmlns:cc="http://creativecommons.org/ns#" xmlns:dc="http://purl.org/dc/elements/1.1/" viewBox="0 0 512.00001 512.00001">
	<g id="layer1" transform="translate(0,-540.36216)">
		<g id="g3381" transform="matrix(.54456499 0 0 .54456499 .683565 540.36216)">
			<g id="g3337">
				<path id="path3339" d="m414.226 674.899c0-49.399 15.5-95.3 41.9-133h-265.7c-13.8 0-25-11.199-25-25 0-13.8 11.2-25 25-25h313.1c39.5-31 89.299-49.5 143.299-49.5 18.701 0 36.9 2.2 54.4 6.4v-395.899c0-29.2-23.699-52.9-52.9-52.9h-283.699-94.301v17.5c0.2 1.8 0.301 3.7 0.301 5.6v144.9c0 41.1-33.4 74.5-74.5 74.5h-144.9c-1.5 0-3.1-0.1-4.6-0.2h-18.5v554c0 29.2 23.7 52.9 52.9 52.9h283.601 128.4c-48.202-42.7-78.801-105-78.801-174.301zm-223.8-318.599h369.899c13.801 0 25 11.2 25 25s-11.199 25-25 25h-369.899c-13.8 0-25-11.2-25-25s11.199-25 25-25zm184.899 313.099h-185c-13.8 0-25-11.199-25-25 0-13.8 11.2-25 25-25h185c13.801 0 25 11.2 25 25 0 13.801-11.199 25-25 25z"/>
				<path id="path3341" d="m51.226 212.5h144.9c24.6 0 44.5-19.9 44.5-44.5v-144.9c0-13.4-11-22.3-22.4-22.3-5.5 0-11 2-15.6 6.6l-167.2 167.1c-14 14-4.1 38 15.8 38z"/>
				<path id="path3343" d="m835.526 810.6-10.801-10.8-10.799-10.8c22.299-32.5 35.299-71.8 35.299-114.2 0-81.6-48.5-152-118.1-184.1-4.9-2.301-9.9-4.301-15-6.2-4.9-1.8-9.9-3.4-15-4.8-17.301-4.801-35.5-7.4-54.4-7.4-31 0-60.4 7-86.6 19.5-25.301 12-47.699 29.1-65.9 50-31.099 35.6-49.9 82.1-49.9 133 0 74.1 40 139 99.5 174.3 9.801 5.8 20.201 10.9 31.102 15 22.398 8.5 46.6 13.2 72 13.2 8.299 0 16.398-0.5 24.398-1.5 33-4 63.5-15.9 89.701-33.9l10.699 10.9 10.701 10.7 65.699 65.7c7.301 7.3 16.9 11 26.5 11s19.199-3.7 26.5-11c14.6-14.601 14.6-38.4 0-53l-65.599-65.6zm-188.701-263.201c19.4 0 37.9 4.4 54.4 12.2 5.201 2.5 10.201 5.3 15 8.4 5.301 3.399 10.301 7.3 15 11.399 26.4 23.4 43.1 57.5 43.1 95.5s-16.699 72.101-43.1 95.5c-4.699 4.2-9.699 8-15 11.4-4.799 3.1-9.799 5.9-15 8.4-16.5 7.8-34.9 12.199-54.4 12.199-70.299 0-127.5-57.199-127.5-127.5 0-70.297 57.101-127.498 127.5-127.498z"/>
			</g>
		</g>
	</g>
</svg>
