<svg xmlns:inkscape="http://www.inkscape.org/namespaces/inkscape" xmlns:rdf="http://www.w3.org/1999/02/22-rdf-syntax-ns#" xmlns="http://www.w3.org/2000/svg" sodipodi:docname="file-plus.svg" height="512" width="512" version="1.1" xmlns:cc="http://creativecommons.org/ns#" xmlns:dc="http://purl.org/dc/elements/1.1/" inkscape:version="0.91 r13725" viewBox="0 0 511.99999 511.99999" xmlns:sodipodi="http://sodipodi.sourceforge.net/DTD/sodipodi-0.dtd">
	<sodipodi:namedview bordercolor="#666666" inkscape:pageshadow="2" inkscape:window-y="-8" pagecolor="#ffffff" inkscape:window-height="1017" inkscape:window-maximized="1" inkscape:zoom="0.49497475" inkscape:window-x="-8" showgrid="false" borderopacity="1.0" inkscape:current-layer="layer1" inkscape:cx="366.70293" inkscape:cy="269.41868" units="px" inkscape:window-width="1920" inkscape:pageopacity="0.0" inkscape:document-units="px"/>
	<g inkscape:label="Layer 1" inkscape:groupmode="layer" transform="translate(0 -540.36)">
		<path inkscape:connector-curvature="0" d="m48.242 1052c-8.7469-1.5838-15.919-8.8325-17.432-17.619-0.34964-2.0303-0.38275-26.412-0.32466-239.05l0.0647-236.78 0.57204-2.0152c2.1344-7.5191 8.0383-13.407 15.605-15.563l1.9596-0.5583 125.95-0.074c90.148-0.053 126.5 0 127.89 0.2018 3.9821 0.5636 8.0896 2.4373 10.758 4.907 7.0797 6.5539 160.51 151.74 161.95 153.24 3.1681 3.3186 5.1508 7.1143 5.9452 11.381 0.36132 1.9409 0.39248 17.197 0.33334 163.1l-0.0653 160.96-0.57203 2.0152c-2.1344 7.5189-8.0384 13.407-15.605 15.563l-1.9596 0.5584-206.56 0.041c-176.51 0.035-206.84-0.011-208.51-0.3133zm389.5-185.46v-143.29l-73.442-70.191-73.442-70.191h-108.93-108.93v213.48 213.48h182.37 182.37v-143.29zm-197.24 38.215c0-0.864-0.18727-1.2646-1.0891-2.33-2.9223-3.4525-3.4341-4.2129-3.9568-5.8796-1.2372-3.9445-1.2646-4.7273-1.2388-35.437 0.0232-27.737 0.008-28.716-0.4507-29.331-0.8357-1.1193-1.6589-1.5344-3.573-1.8018-1.2013-0.1678-11.829-0.2588-29.724-0.2546l-27.854 0.01-2.8516-0.6011c-2.1379-0.4506-3.1151-0.7894-3.9044-1.3535-0.57906-0.4139-1.6438-1.0506-2.366-1.415-1.7279-0.8717-2.9386-1.9594-3.4734-3.1209-0.23883-0.5187-0.84653-1.5939-1.3504-2.3893-0.87977-1.3887-0.95874-1.4463-1.9868-1.4484h-1.0706v-6.9272-6.9272l1.0706-0.01c1.0112-0.01 1.0977-0.066 1.5596-1.0705 0.26898-0.5853 1.6531-2.2597 3.0759-3.721 3.2665-3.355 4.1055-3.7676 9.1744-4.5123 3.5821-0.5262 4.3324-0.5388 30.983-0.5208 17.514 0.012 27.796-0.073 28.66-0.2373 2.048-0.3888 2.6175-0.7582 3.3127-2.1486l0.62975-1.2595 0.13393-29.85c0.14878-33.16 0.1074-32.357 1.8374-35.624 1.0243-1.9342 3.5682-4.5002 6.0224-6.0747 1.9258-1.2356 1.9482-1.2623 1.9522-2.3205l0.004-1.0706h7.1791 7.1791v1.0302c0 1.1705 0.32918 1.5414 2.4808 2.7951 1.7823 1.0385 2.9486 2.272 3.8698 4.0924 0.41586 0.8219 1.0332 1.913 1.3719 2.4248 0.7009 1.0591 1.8144 5.1644 2.0116 7.4164 0.0728 0.8312 0.15114 13.924 0.17411 29.094l0.0418 27.583 0.62974 1.2464c1.2182 2.411-1.9415 2.1806 30.625 2.2335 26.792 0.044 28.815 0.077 30.461 0.5028 0.9698 0.2509 2.9226 0.7494 4.3396 1.1077 1.417 0.3584 2.9086 0.8536 3.3147 1.1006 0.40611 0.247 1.5705 1.4153 2.5876 2.5964 1.7732 2.0592 1.8932 2.1478 2.9198 2.1588l1.0706 0.011v10.076 10.076h-0.90711c-0.7625 0-1.1797 0.251-2.6164 1.5743-0.94006 0.8659-2.1472 1.7944-2.6824 2.0633-0.53526 0.2689-1.903 1.0384-3.0394 1.71-1.8067 1.0677-2.3287 1.2512-4.1563 1.4614-1.2073 0.1388-14.326 0.2415-31.058 0.2431-28.267 0-28.988 0.015-29.773 0.4937-0.44274 0.27-1.0095 0.8029-1.2595 1.1843-0.42984 0.6559-0.46168 2.3422-0.58655 31.058-0.14497 33.335-0.0121 30.584-1.6714 34.628-0.56229 1.3703-1.2147 2.2875-3.0456 4.2818-2.0738 2.2588-2.3301 2.6418-2.3301 3.4829v0.9451h-10.328-10.328v-1.0434z"/>
	</g>
</svg>
