<svg xmlns:rdf="http://www.w3.org/1999/02/22-rdf-syntax-ns#" xmlns="http://www.w3.org/2000/svg" height="512" width="512" version="1.1" xmlns:cc="http://creativecommons.org/ns#" xmlns:dc="http://purl.org/dc/elements/1.1/" viewBox="0 0 512.00001 512.00001">
	<g transform="translate(0 -540.36)">
		<path d="m13.397 1021.8c-5.7327-2.3568-9.692-6.4038-12.099-12.367l-1.2978-3.2153v-209.63-209.63l1.2976-3.17c2.4437-6.0541 6.6702-10.281 12.724-12.724l3.2152-1.2978 73.911-0.1546c45.502-0.095 75.403 0.052 77.794 0.3835 5.1939 0.7198 10.218 3.2467 13.265 6.6727 1.5319 1.722 8.0284 12.97 17.969 31.11l15.569 28.413 97.308 0.1505 97.308 0.1505 3.7259 1.7652c4.7403 2.2456 8.3886 5.894 10.634 10.634l1.7651 3.7259 0.16587 24.605 0.16587 24.605 32.085 0.01c17.647 0 33.507 0.2362 35.245 0.5209 4.7133 0.7721 9.0033 3.1225 12.405 6.7967 3.9363 4.2516 5.4407 8.1431 5.4461 14.087 0.006 4.3143-1.2891 8.6783-42.897 144.78-23.595 77.181-43.394 141.44-43.998 142.81-2.3696 5.3568-6.7785 9.3135-12.616 11.322-3.0809 1.06-6.5791 1.0787-199.47 1.0657l-196.34-0.013-3.2845-1.3504zm370.55-191.84v-150.96l-92.721-0.1469-92.721-0.1471-3.3363-1.3414c-2.3805-0.9572-4.292-2.3111-6.6726-4.7264-2.9647-3.0079-5.0702-6.557-18.906-31.867l-15.569-28.482-55.744-0.015-55.744-0.016v184.33 184.33h170.71 170.71v-150.96zm60.587-27.586c9.4928-31.071 17.26-56.781 17.26-57.134 0-0.4707-4.6577-0.6412-17.515-0.6412h-17.515l0.0439 57.69c0.0239 31.729 0.13924 57.44 0.25584 57.134 0.11655-0.3058 7.9788-25.978 17.472-57.048z"/>
	</g>
</svg>
