<?xml version="1.0" encoding="UTF-8" standalone="no"?>
<svg id="svg2" xmlns:rdf="http://www.w3.org/1999/02/22-rdf-syntax-ns#" xmlns="http://www.w3.org/2000/svg" height="512" width="512" version="1.1" xmlns:cc="http://creativecommons.org/ns#" xmlns:dc="http://purl.org/dc/elements/1.1/" viewBox="0 0 511.99999 512.00001">
	<path id="path3447" d="m174.24507 183.77906c95.71702-11.6444 174.27161-20.93073 174.56568-20.63628 0.29411 0.29444-8.04319 69.75858-18.5273 154.3648-10.48415 84.60617-20.19149 162.9786-21.57192 174.16093l-2.50986 20.33149-38.32283-38.38984-38.32283-38.38985 11.08475-87.24312c6.09664-47.98371 10.92301-87.4051 10.72523-87.60308-0.19774-0.19797-39.6479 4.559-87.66704 10.57105l-87.307506 10.93099-38.302182-38.32503c-21.066459-21.07851-38.20610206-38.387-38.08866206-38.46273 0.117412-0.0756 78.52744406-9.66494 174.2444901-21.30933zm164.096-163.236213c95.03895-11.534928 173.18145-20.77718 173.65003-20.538319 0.70929 0.361522-41.20473 344.464712-42.26517 346.985972-0.19099 0.45409-17.49159-16.3388-38.44573-37.31753l-38.09848-38.14314 10.93583-86.75469c6.01472-47.71508 10.71728-86.97351 10.45018-87.24093-0.26709-0.26742-39.55401 4.36612-87.30424 10.29675l-86.81854 10.78298-38.03855-38.08316c-20.92121-20.945725-37.77413-38.292892-37.45096-38.549248 0.32316-0.256325 78.34669-9.903754 173.38563-21.438685z"/>
</svg>
