<svg xmlns:rdf="http://www.w3.org/1999/02/22-rdf-syntax-ns#" xmlns="http://www.w3.org/2000/svg" height="512" width="512" version="1.1" xmlns:cc="http://creativecommons.org/ns#" xmlns:dc="http://purl.org/dc/elements/1.1/" viewBox="0 0 512.00001 512.00001">
	<g transform="translate(0 -540.36)">
		<path d="m15.873 1030.1c-5.8363-1.2991-11.321-5.4944-14.238-10.891l-1.635-3v-74.072c0-77.88 0.0506-79.272 3.5162-96.7 2.306-11.597 5.5584-20.994 11.266-32.548 6.6099-13.382 13.236-22.644 23.766-33.22 10.991-11.04 20.335-18.047 39.61-29.702 0.82117-0.49657 0.24491-1.4058-2.5392-4.0064-11.741-10.967-22.859-28.233-27.911-43.345-17.022-50.914 5.8808-105.98 53.977-129.77 33.621-16.631 73.511-14.155 105.04 6.518 24.039 15.763 40.126 39.357 46.227 67.801 2.2081 10.294 2.4073 30.797 0.39678 40.835-4.1445 20.692-13.515 38.519-28.74 54.677l-6.4876 6.8851 6.6604 3.9425c23.507 13.914 43.32 34.89 56.098 59.391 2.166 4.1529 4.0118 7.6503 4.1017 7.772 0.0899 0.1218 3.1818-2.7891 6.8708-6.4685 8.0302-8.0094 16.133-14.535 24.197-19.487 3.2678-2.0068 6.0668-3.7387 6.22-3.8487 0.15318-0.11-1.2375-2.0021-3.0905-4.2046-13.101-15.573-19.539-33.593-19.552-54.728-0.0143-23.255 8.5021-43.577 25.208-60.15 33.69-33.422 88.181-32.623 121.15 1.7774 18.643 19.453 26.906 45.903 22.612 72.383-2.4984 15.405-8.8012 28.657-20.369 42.827l-1.906 2.3347 3.6643 1.9944c7.0919 3.8599 18.785 13.296 26.661 21.516 16.895 17.631 27.886 38.483 33.355 63.277 1.6345 7.4112 1.6717 8.8091 1.9077 71.8 0.21912 58.481 0.12781 64.538-1.0181 67.538-2.3733 6.2145-8.0892 11.164-14.824 12.838-4.3522 1.0813-475.34 1.1367-480.19 0.057zm239.21-99.513c-0.0141-59.52-0.19181-63.541-3.3427-75.628-10.563-40.521-43.692-71.021-85.189-78.43-9.4268-1.6829-26.657-1.6778-36.118 0.0107-40.817 7.285-73.814 37.32-84.747 77.14-3.5252 12.839-3.7271 17.019-3.7318 77.285l-0.005 56.877h106.57 106.57l-0.0135-57.255zm214.67 10.96c-0.00076-47.911-0.18012-51.287-3.2976-62.168-5.0734-17.708-15.905-33.34-31.096-44.878-7.2357-5.4959-20.282-11.758-29.474-14.146-10.177-2.6442-25.593-3.2936-35.828-1.5092-36.033 6.2825-63.05 32.402-70.843 68.491-1.0246 4.7448-1.276 13.226-1.5731 53.076l-0.3536 47.429h86.233 86.233v-46.295zm-74.56-168.08c9.666-2.4922 19.326-9.4999 25.112-18.218 8.8446-13.325 8.9788-32.154 0.3238-45.457-7.4389-11.433-17.911-18.089-31.058-19.74-25.131-3.1555-47.556 16.784-47.556 42.285 0 19.595 13.873 36.955 33.191 41.533 4.5626 1.0812 15.051 0.86979 19.987-0.4029zm-234.15-42.56c13.657-2.8186 24.21-8.7857 34.196-19.335 4.9844-5.2656 6.7834-7.8899 10.228-14.919 5.3135-10.844 6.778-17.151 6.719-28.937-0.0538-10.747-1.684-17.936-6.1615-27.169-7.6048-15.683-20.711-27.165-37.665-32.999-7.1895-2.4737-7.661-2.534-19.836-2.5381-12.141-0.004-12.661 0.0615-19.652 2.4787-27.277 9.4317-44.127 32.932-43.998 61.361 0.1817 39.981 37.161 70.108 76.17 62.057z"/>
	</g>
</svg>
