<svg xmlns:inkscape="http://www.inkscape.org/namespaces/inkscape" xmlns:rdf="http://www.w3.org/1999/02/22-rdf-syntax-ns#" xmlns="http://www.w3.org/2000/svg" sodipodi:docname="get-paid-stroke.svg" height="512" width="512" version="1.1" xmlns:cc="http://creativecommons.org/ns#" xmlns:dc="http://purl.org/dc/elements/1.1/" inkscape:version="0.91 r13725" viewBox="0 0 512.00001 512.00001" xmlns:sodipodi="http://sodipodi.sourceforge.net/DTD/sodipodi-0.dtd">
	<sodipodi:namedview bordercolor="#666666" inkscape:pageshadow="2" inkscape:window-y="-8" pagecolor="#ffffff" inkscape:window-height="1017" inkscape:window-maximized="1" inkscape:zoom="0.35" inkscape:window-x="-8" showgrid="false" borderopacity="1.0" inkscape:current-layer="layer1" inkscape:cx="-126.42857" inkscape:cy="748.57143" units="px" inkscape:window-width="1920" inkscape:pageopacity="0.0" inkscape:document-units="px"/>
	<g inkscape:label="Layer 1" inkscape:groupmode="layer" transform="translate(0 -540.36)">
		<path inkscape:connector-curvature="0" d="m222.59 1048c-1.6507-0.7157-31.598-11.953-66.549-24.971l-63.548-23.67h-46.247-46.247v-8.5035-8.5035h46.939 46.939l68.62 25.511 68.62 25.51h18.933 18.933l68.341-59.653c37.588-32.809 69.456-60.721 70.82-62.026l2.4786-2.3726-8.4731-8.5173c-4.6602-4.6845-8.9929-8.3178-9.6282-8.074-1.0157 0.38976-13.002 9.1381-54.884 40.057-6.0525 4.4682-18.369 13.509-27.369 20.091-9.0005 6.5819-22.056 16.129-29.012 21.217-8.9834 6.57-13.48 9.2509-15.52 9.2538-1.58 0.002-10.809-3.6472-20.508-8.1099-9.6996-4.4627-30.916-14.207-47.148-21.654s-30.525-14.454-31.763-15.57c-5.083-4.5842-1.0994-13.718 5.957-13.658 1.8132 0.0153 12.91 1.0876 24.658 2.3828l21.362 2.355 14.153-1.8464c7.7841-1.0155 14.716-1.8627 15.403-1.8826 0.92243-0.0267 1.2505-2.9234 1.2505-11.041v-11.005l-21.259-0.0601c-16.659-0.0471-27.97-0.76563-52.272-3.3204l-31.013-3.2603-24.666 10.824-24.666 10.824h-47.614-47.614v-8.0033-8.0033h45.196 45.196l25.909-11.055 25.909-11.055 34.689 3.5546c28.753 2.9464 38.558 3.5542 57.299 3.5523 14.296-0.001 23.808 0.41532 25.868 1.1335 5.265 1.8354 6.0441 5.1474 6.0441 25.694 0 18.771-0.68048 22.885-4.1422 25.047-1.1581 0.72324-10.491 2.215-20.741 3.315-10.249 1.1-19.282 2.2053-20.072 2.4561-1.2328 0.39126 14.417 8.2399 36.702 18.407l6.253 2.8527 31.763-23.454c98.622-72.824 94.165-69.654 98.072-69.764 3.1323-0.0888 4.7731 1.2748 19.824 16.476 21.272 21.484 21.171 20.731 4.7014 35.077-5.3907 4.6956-22.86 19.959-38.82 33.918-59.019 51.619-99.113 86.503-101.92 88.674-2.8104 2.1746-3.5313 2.2321-27.511 2.1939-17.934-0.029-25.441-0.3927-27.627-1.3405zm-35.51-270.24c-31.134-6.2916-55.139-28.087-65.04-59.056-3.3864-10.592-3.9233-30.977-1.1246-42.694 7.4431-31.159 31.009-55.058 62.026-62.901l8.2953-2.0977 46.192-33.603c25.405-18.482 47.371-33.79 48.813-34.018 3.2054-0.50648 142.99 32.12 148.04 34.553 1.982 0.95509 20.28 14.716 40.661 30.58l37.06 28.85-4.6466 6.3494c-2.5556 3.4922-4.9529 6.3815-5.3272 6.4208-0.37439 0.0393-17.256-12.848-37.515-28.639l-36.835-28.711-69.028-16.26-69.028-16.26-4.0016 2.6284c-2.2009 1.4456-8.9537 6.2898-15.006 10.765-6.0525 4.475-17.757 13.014-26.011 18.976-8.2534 5.9618-17.455 12.655-20.448 14.874-6.1484 4.5575-6.5306 4.0141 5.4168 7.7024 3.8377 1.1848 8.1012 2.7428 9.4743 3.4623 2.322 1.2166 4.3009 0.40552 28.279-11.591 14.181-7.0943 26.795-12.899 28.032-12.899s12.01 3.8968 23.941 8.6596l21.692 8.6596-2.0367 5.0961c-1.1202 2.8029-2.47 6.3038-2.9995 7.7798l-0.96275 2.6837-4.6776-2.0173c-2.5727-1.1095-11.302-4.691-19.398-7.9588l-14.72-5.9415-19.044 9.5319c-10.474 5.2425-19.044 9.886-19.044 10.319 0 0.43291 2.0671 2.7941 4.5935 5.2472 2.5264 2.453 6.6176 7.2737 9.0915 10.713 2.4739 3.4389 5.0213 6.2529 5.6608 6.2532 0.63948 0.00037 8.2074-1.4057 16.818-3.1246l15.655-3.1253 23.861 5.2868 23.861 5.2868 21.339-2.2483c11.737-1.2366 21.518-2.07 21.736-1.8521 0.72414 0.72414 2.4885 15.071 1.923 15.636-0.30571 0.30572-10.78 1.7693-23.277 3.2523l-22.721 2.6965-23.638-5.2968-23.638-5.2968-16.212 3.3126c-8.9166 1.822-16.388 3.4884-16.603 3.7032-0.21482 0.21481-0.69606 6.1047-1.0694 13.089l-0.67884 12.698h19.608c15.009 0 29.768 0.94036 62.928 4.0095 23.826 2.2052 44.446 4.4666 45.822 5.0253 1.3756 0.5587 12.587 11.585 24.914 24.502l22.413 23.486h28.398 28.398l-0.29056 8.2534-0.29056 8.2534h-31.298-31.298l-10.755-11.005c-5.9154-6.0525-16.648-17.193-23.85-24.757l-13.095-13.753-43.733-4.0046c-24.053-2.2026-49.002-4.0046-55.441-4.0046h-11.707l-2.6911 8.2534c-5.8692 18-20.693 36.484-36.737 45.807-17.938 10.424-39.93 14.323-59.024 10.464zm36.515-18.407c20.024-7.0512 35.172-21.333 42.074-39.669l2.4274-6.4492h-2.4366c-1.3402 0-3.6848-1.0737-5.2104-2.3859-2.5337-2.1794-2.7597-2.937-2.6109-8.7536 0.24097-9.4195 2.3016-39.174 2.819-40.706 1.2517-3.706-14.293-19.727-24.768-25.527-33.681-18.65-76.429-5.5666-93.284 28.551-5.842 11.825-8.0474 22.62-7.1749 35.119 1.9938 28.56 22.298 53.304 49.865 60.768 9.9057 2.6819 29.362 2.2014 38.3-0.94601zm-31.013-23.143c-10.672-2.1743-20.285-10.056-22.372-18.342-1.9687-7.8185-2.1429-7.6348 7.2405-7.6348h8.3784l0.59288 2.9644c0.90785 4.5393 6.6464 7.0397 16.156 7.0397 8.1778 0 12.877-1.4504 15.981-4.9324 1.7982-2.0172 1.8401-2.4382 0.48615-4.89-2.1548-3.9019-7.0615-5.8361-19.355-7.6294-12.501-1.8236-17.734-3.8404-22.454-8.6541-13.457-13.725-7.7381-33.376 11.471-39.417l5.3743-1.6904v-4.4088-4.4087h8.5035 8.5035v4.4309 4.4309l5.316 1.5454c10.712 3.1142 18.59 11.46 19.471 20.63l0.47827 4.9775h-8.1306c-7.2049 0-8.1306-0.20795-8.1306-1.8264 0-1.9438-3.0845-5.1969-6.687-7.0523-1.2018-0.61898-6.1998-1.1254-11.107-1.1254-7.6295 0-9.4138 0.33067-12.321 2.2832-2.2615 1.519-3.5081 3.2228-3.7244 5.0905-0.64673 5.5848 3.0653 7.3608 21.334 10.207 12.328 1.9205 16.906 3.8855 21.856 9.3807 8.4193 9.3461 9.142 19.488 2.0512 28.785-6.6876 8.7679-23.911 13.303-38.914 10.247z"/>
	</g>
</svg>
