<svg xmlns:rdf="http://www.w3.org/1999/02/22-rdf-syntax-ns#" xmlns="http://www.w3.org/2000/svg" height="512" width="512" version="1.1" xmlns:cc="http://creativecommons.org/ns#" xmlns:dc="http://purl.org/dc/elements/1.1/" viewBox="0 0 512.00001 512.00001">
	<g transform="translate(0 -540.36)">
		<path d="m229.36 1051.6c-58.389-6.3818-113.82-33.132-155.02-74.811-15.151-15.326-33.168-38.965-42.4-55.629-14.353-25.909-26.008-60.57-30.25-89.963-2.1431-14.849-2.1431-54.997 0-69.847 4.2752-29.622 16.597-65.982 30.869-91.088 9.3746-16.491 27.075-39.558 41.682-54.318 14.487-14.639 39.02-33.614 55.75-43.12 25.128-14.277 61.475-26.595 91.094-30.869 14.849-2.1431 54.997-2.1431 69.847 0 29.394 4.2422 64.054 15.897 89.963 30.25 16.69 9.2459 40.3 27.254 55.581 42.393 14.524 14.39 33.481 38.938 42.982 55.658 14.277 25.128 26.595 61.475 30.869 91.094 2.1431 14.849 2.1431 54.997 0 69.847-4.2446 29.41-15.897 64.054-30.27 89.999-9.1688 16.551-28.221 41.541-42.898 56.271-14.473 14.524-39.627 33.659-56.623 43.075-25.037 13.87-59.655 25.587-88.135 29.83-12.96 1.9309-50.005 2.6532-63.036 1.2288zm-23.561-38.738c-0.98073-1.3265-3.9439-5.2743-6.5849-8.773-10.171-13.475-21.396-36.6-29.014-59.776-9.1324-27.782-17.597-73.007-19.436-103.85-0.42639-7.1484-1.1048-16.36-1.5077-20.47l-0.73244-7.4733h-57.709-57.709v4.3806c0 8.5867 5.3637 35.067 9.864 48.699 20.562 62.284 68.333 113.76 128.25 138.21 6.8302 2.7867 33.108 11.296 35.227 11.406 0.62332 0.033 0.33089-1.0259-0.64986-2.3525zm119.72-3.6607c24.84-8.052 50.291-21.839 71.356-38.654 4.7264-3.7729 14.587-13.14 21.913-20.815 33.082-34.659 54.36-80.086 59.857-127.79l1.086-9.4229h-58.252c-32.039 0-58.258 0.43865-58.265 0.97478-0.006 0.53613-0.60631 9.4554-1.3317 19.821-4.0428 57.771-15.006 105.81-32.482 142.32-6.1479 12.845-17.874 32.008-20.627 33.709-0.78135 0.4828-2.0393 2.0339-2.7955 3.4468-1.2541 2.3433-1.0549 2.4926 2.2675 1.6996 2.0033-0.4781 9.7754-2.8572 17.271-5.287zm-58.092-5.8158c7.728-3.941 18.79-15.931 25.44-27.573 20.5-35.893 33.193-87.029 37.224-149.97l0.8533-13.322h-74.935-74.935l0.81664 12.022c0.44915 6.6123 1.699 20.21 2.7775 30.218 8.0407 74.615 32.325 134.09 60.937 149.25 5.6341 2.9842 15.291 2.7091 21.822-0.6212zm-118.18-230.83c0.40283-4.1103 1.088-13.322 1.5226-20.47 3.8943-64.056 24.093-131.65 49.116-164.35 2.9819-3.8974 5.8666-7.8048 6.4106-8.6831 1.4516-2.3439-19.277 3.4944-34.418 9.694-61.217 25.066-108.19 75.425-128.92 138.2-4.5003 13.631-9.864 40.112-9.864 48.699v4.3806h57.709 57.709l0.73244-7.4733zm180.84-5.8487c-4.4405-69.326-19.195-124-42.647-158.02-20.826-30.215-42.891-29.597-64.18 1.7982-22.227 32.779-36.622 87.585-41.372 157.52l-0.81664 12.022h74.935 74.935l-0.8533-13.322zm148.56 3.8991c-3.8513-33.417-16.46-68.299-34.883-96.503-29.619-45.345-74.973-78.674-127.29-93.544-6.0588-1.722-11.212-2.9344-11.453-2.6943-0.24007 0.24007 1.2786 2.3987 3.3749 4.797 18.655 21.343 36.592 65.773 45.575 112.89 4.0818 21.41 9.0171 65.973 9.2483 83.506 0.007 0.53613 26.226 0.97478 58.265 0.97478h58.252l-1.086-9.4229z"/>
	</g>
</svg>
