<svg xmlns:rdf="http://www.w3.org/1999/02/22-rdf-syntax-ns#" xmlns="http://www.w3.org/2000/svg" height="512" width="512" version="1.1" xmlns:cc="http://creativecommons.org/ns#" xmlns:dc="http://purl.org/dc/elements/1.1/" viewBox="0 0 512.00001 512.00001">
	<g transform="translate(0 -540.36)">
		<path d="m6.5561 1047.2c-11.208-11.208-6.9481-400.75 4.5082-412.21 16.184-16.185 394.71-14.762 408.24 1.5343 6.9947 8.4276 9.276 71.838 7.6271 212l-2.36 199.98-206.02 2.3c-113.31 1.3-208.71-0.3-212-3.6zm378.68-204.14v-174.85h-170.48-170.48v174.85 174.85h170.48 170.48v-174.85zm55.98 110.23c-6.4086-16.7 2.4609-31.548 18.846-31.548 10.538 0 12.598-27.873 12.598-170.48v-170.48h-169.46c-164.46 0-169.6 0.542-174.23 18.245-3.092 11.823-10.374 17.166-20.69 15.179-12.222-2.3543-15.919-11.16-15.919-37.916v-34.85h209.82 209.82v209.82 209.82l-32.854 2.7171c-23.118 1.9128-34.358-1.2021-37.93-10.509z"/>
	</g>
</svg>
