<svg xmlns:rdf="http://www.w3.org/1999/02/22-rdf-syntax-ns#" xmlns="http://www.w3.org/2000/svg" height="512" width="512" version="1.1" xmlns:cc="http://creativecommons.org/ns#" xmlns:dc="http://purl.org/dc/elements/1.1/" viewBox="0 0 512.00001 512.00001">
	<g transform="translate(0 -540.36)">
		<path d="m78.09 1029.2c-4.601-1.3997-8.3801-4.1078-10.935-7.8354l-2.4647-3.5967-0.50212-120.82-0.50212-120.82-20.4 18.195c-11.651 10.392-20.771 17.814-21.265 17.306-0.47547-0.48931-5.8564-6.5355-11.958-13.436-8.5151-9.69-10.807-12.86-9.8659-13.73 27.379-25.1 245.73-218.77 248-219.96 4.1995-2.1985 11.397-2.1985 15.597 0 2.2701 1.1884 220.63 194.86 248 219.97 0.94138 0.8633-1.3508 4.0392-9.8668 13.671-6.1012 6.9005-11.482 12.947-11.958 13.436-0.49373 0.50809-9.6138-6.914-21.265-17.306l-20.4-18.195-0.50212 120.82-0.50213 120.82-2.4934 3.6385c-1.3714 2.0012-4.3088 4.6794-6.5276 5.9516l-4.0342 2.3131-176.75 0.1704c-97.211 0.093-177.95-0.1949-179.42-0.6415zm333.57-160.5v-125.32l-77.051-68.753c-42.38-37.84-77.75-68.77-78.61-68.77-0.85616 0-36.23 30.939-78.607 68.753l-77.051 68.753v125.32 125.32h155.66 155.66v-125.32z"/>
	</g>
</svg>
