<?xml version="1.0" encoding="UTF-8" standalone="no"?>
<svg id="svg2" xmlns:rdf="http://www.w3.org/1999/02/22-rdf-syntax-ns#" xmlns="http://www.w3.org/2000/svg" height="512" width="512" version="1.1" xmlns:cc="http://creativecommons.org/ns#" xmlns:dc="http://purl.org/dc/elements/1.1/" viewBox="0 0 512.00001 512.00001">
	<g id="layer1" transform="translate(0,-540.36216)">
		<path id="path3347" d="m34.212567 1050.8556c-5.612021-2.4383-6.212567-5.4312-6.212567-30.9613v-22.53212h13 13v-12.77623c0-23.86759 2.65562-35.59975 14.197762-62.72377 9.757677-22.93053 26.491639-54.06846 54.148368-100.75726l14.60112-24.64893-13.80655-23.29691c-36.922645-62.30254-54.613753-96.97159-63.458674-124.35917-4.249582-13.15849-5.682026-23.40929-5.682026-40.6615v-12.77623h-13-13v-22.53212c0-25.78936 0.574012-28.55629 6.431892-31.00387 5.288674-2.20975 359.847538-2.20975 365.136218 0 5.85788 2.44758 6.43189 5.21451 6.43189 31.00387v22.53212h-12-12l-0.008 12.75c-0.004 7.0125-0.43974 16.50873-0.96793 21.10273-1.83905 15.99559-13.29997 45.11028-30.07161 76.39227-4.49837 8.39025-8.27177 15.36126-8.38532 15.49112-0.11356 0.12987-5.40556 1.12496-11.76002 2.2113-6.35445 1.08635-14.76127 2.86409-18.68182 3.95053-6.48029 1.79578-7.04556 1.82202-6.2185 0.2887 0.50078-0.92766 5.93868-10.68665 12.08463-21.68665 15.25945-27.31131 29.04476-55.35509 32.84678-66.82098 3.05323-9.20776 3.16179-10.12128 3.16179-26.60708v-17.07194h-136-136v17.07194c0 16.49895 0.106942 17.39678 3.186243 26.75 4.27221 12.97663 24.123097 51.96957 48.199577 94.67806 25.38511 45.02982 31.11418 56.54423 31.11418 62.53398 0 5.91959-5.10976 16.11458-33.06241 65.96602-24.98693 44.5623-41.712222 77.55843-46.250108 91.24351-3.08346 9.2989-3.187482 10.16974-3.187482 26.68455v17.07194h63.33378 63.33378l3.91622 5.72102c11.7868 17.2189 28.48124 33.562 48.54749 47.5257 2.20644 1.5354-5.3731 1.6493-110.63127 1.6617-95.744217 0.011-113.502011-0.2048-116.287433-1.415zm308.877833 0.4596c-16.09211-2.0211-37.06823-8.3664-51.15863-15.4757-8.91899-4.5-23.95592-14.8174-31.49754-21.6117-20.24083-18.23509-34.50982-39.54304-42.76795-63.86562-6.32143-18.61844-8.01533-29.07942-8.01533-49.5s1.6939-30.88156 8.01533-49.5c14.88709-43.84678 50.47359-79.06562 94.86633-93.88624 17.36264-5.79656 28.07252-7.46281 47.96739-7.46281s30.60475 1.66625 47.96739 7.46281c44.39274 14.82062 79.97924 50.03946 94.86633 93.88624 6.32143 18.61844 8.01533 29.07942 8.01533 49.5s-1.6939 30.88156-8.01533 49.5c-20.09431 59.18352-75.71143 99.85052-138.83372 101.51452-7.7 0.203-17.33432-0.05-21.4096-0.5615zm42.04882-64.86323c2.35528-1.90576 2.36195-1.97511 2.86078-29.75l0.5-27.83979 27.83979-0.5c27.77489-0.49883 27.84424-0.5055 29.75-2.86078 1.75247-2.16585 1.91021-4.20044 1.91021-24.63922s-0.15774-22.47337-1.91021-24.63922c-1.90576-2.35528-1.97511-2.36195-29.75-2.86078l-27.83979-0.5-0.5-27.83979c-0.49883-27.77489-0.5055-27.84424-2.86078-29.75-2.16585-1.75247-4.20044-1.91021-24.63922-1.91021s-22.47337 0.15774-24.63922 1.91021c-2.35528 1.90576-2.36195 1.97511-2.86078 29.75l-0.5 27.83979-27.83979 0.5c-27.77489 0.49883-27.84424 0.5055-29.75 2.86078-1.75247 2.16585-1.91021 4.20044-1.91021 24.63922s0.15774 22.47337 1.91021 24.63922c1.90576 2.35528 1.97511 2.36195 29.75 2.86078l27.83979 0.5 0.5 27.83979c0.49883 27.77489 0.5055 27.84424 2.86078 29.75 2.16585 1.75247 4.20044 1.91021 24.63922 1.91021s22.47337-0.15774 24.63922-1.91021zm-262.13004-42.33979c0.009-8.60298 0.31264-9.99278 4.34756-19.86902 13.05086-31.94449 41.32641-74.58205 67.88611-102.36751l5.74819-6.01347-3.5914 8c-11.89201 26.48993-16.61552 48.44583-16.56551 77 0.0301 17.19273 2.0781 33.73063 5.67839 45.85412 0.81812 2.75489 1.48748 5.37721 1.48748 5.82738 0 0.45018-14.625 0.8185-32.5 0.8185h-32.5l0.009-9.25zm83.02192-155.25-0.0738-18-4.00032-2.83043c-22.41312-15.85843-46.70094-47.18219-65.37593-84.3147-11.61255-23.08986-13.58105-28.60856-13.58105-38.07451v-8.28036h95 95v8.92032c0 10.31001-2.81148 19.59901-10.90028 36.0141-13.29958 26.98958-38.25244 58.9504-62.90021 80.56558-6.97647 6.11811-9.13146 8.60453-9.16095 10.56989-0.0216 1.44156-1.41335 4.07591-3.16977 6-2.87794 3.15267-15.06524 19.09999-19.06634 24.94868-1.62684 2.37808-1.70062 1.73173-1.77135-15.51857z"/>
	</g>
</svg>
