<?xml version="1.0" encoding="UTF-8" standalone="no"?>
<svg id="svg2" xmlns:rdf="http://www.w3.org/1999/02/22-rdf-syntax-ns#" xmlns="http://www.w3.org/2000/svg" height="512" width="512" version="1.1" xmlns:cc="http://creativecommons.org/ns#" xmlns:dc="http://purl.org/dc/elements/1.1/" viewBox="0 0 512.00001 512.00001">
	<g id="layer1" transform="translate(0,-540.36216)">
		<path id="path3386" d="m72 1050.0557c-6.379385-2.1754-6.996667-4.9047-6.998446-30.9435l-0.001554-22.75002h13.367093 13.367093l0.531192-18.25c0.584099-20.06773 1.619961-25.49467 8.263552-43.29328 10.30302-27.60245 29.56637-64.05676 64.34272-121.76332 5.57059-9.24363 10.12835-17.20566 10.12835-17.6934s-4.55776-8.44977-10.12835-17.6934c-37.90253-62.89402-58.39551-102.53222-67.295422-130.16505-4.427831-13.74772-5.50495-21.39906-5.545352-39.39155l-0.030876-13.75h-13.5-13.5v-22.03212c0-25.24522 0.594537-28.06487 6.431892-30.50387 3.032592-1.2671 27.88673-1.4638 184.785988-1.46246 170.58526 0.001 181.48864 0.10473 184.78212 1.75 5.30245 2.64887 5.87896 5.60719 5.94356 30.49845l0.0564 21.75h-13.5-13.5v12.77623c0 18.3253-1.43916 27.81726-6.48474 42.76997-9.44083 27.97817-26.15923 60.56689-62.14651 121.14045l-14.3695 24.18666 13.86576 23.31334c36.20402 60.87202 54.60511 96.97948 63.57208 124.74408 4.2651 13.2061 5.54471 22.49325 5.55532 40.31927l0.008 12.75h13.5 13.5v22.53212c0 25.7894-0.57401 28.5563-6.43189 31.0039-3.03415 1.2677-27.73932 1.4564-184.28599 1.4075-137.31813-0.043-181.623597-0.3434-184.28212-1.25zm320-70.76546c0-16.53864-0.10025-17.37428-3.209-26.75-1.76495-5.32293-7.54673-18.45306-12.84841-29.17806-8.50848-17.21219-16.67731-32.222-48.16457-88.5-13.60529-24.3171-18.27802-34.41517-18.27802-39.5s4.67273-15.1829 18.27802-39.5c31.48726-56.278 39.65609-71.28781 48.16457-88.5 5.30168-10.725 11.08346-23.85513 12.84841-29.17806 3.10875-9.37572 3.209-10.21136 3.209-26.75v-17.07194h-136-136v17.10249c0 16.41489 0.12297 17.47028 3.05849 26.25 5.70236 17.05494 17.15377 39.31549 50.74685 98.64751 22.74468 40.1716 29.46739 53.6319 29.46739 59s-6.72271 18.8284-29.46739 59c-33.59308 59.33202-45.04449 81.59257-50.74685 98.6475-2.93552 8.77973-3.05849 9.83512-3.05849 26.25v17.1025h136 136v-17.07194zm-153.90237-209.48285c-27.71297-29.62525-53.92469-68.56103-71.16967-105.71785-5.92182-12.75942-5.92796-12.78246-5.92796-22.25v-9.47736h95.08848 95.08847l-0.38044 10.75c-0.36726 10.37751-0.55769 11.15401-5.49597 22.40973-14.37015 32.75362-41.12691 72.02648-70.23582 103.09027l-7.26228 7.75h-11.78657-11.78656l-6.13168-6.55479z"/>
	</g>
</svg>
