<?xml version="1.0" encoding="UTF-8" standalone="no"?>
<svg id="svg2" xmlns:rdf="http://www.w3.org/1999/02/22-rdf-syntax-ns#" xmlns="http://www.w3.org/2000/svg" height="512" width="512" version="1.1" xmlns:cc="http://creativecommons.org/ns#" xmlns:dc="http://purl.org/dc/elements/1.1/" viewBox="0 0 512.00001 512.00001">
	<g id="layer1" transform="translate(0,-540.36216)">
		<path id="path3347" d="m34.212567 1050.8556c-5.612021-2.4383-6.212567-5.4312-6.212567-30.9613v-22.53212h13 13v-12.77623c0-23.86759 2.65562-35.59975 14.197762-62.72377 9.757677-22.93053 26.491639-54.06846 54.148368-100.75726l14.60112-24.64893-13.80655-23.29691c-36.922645-62.30254-54.613753-96.97159-63.458674-124.35917-4.249582-13.15849-5.682026-23.40929-5.682026-40.6615v-12.77623h-13-13v-22.53212c0-25.78936 0.574012-28.55629 6.431892-31.00387 5.288674-2.20975 359.847538-2.20975 365.136218 0 5.85788 2.44758 6.43189 5.21451 6.43189 31.00387v22.53212h-12-12l-0.008 12.75c-0.004 7.0125-0.43974 16.50873-0.96793 21.10273-1.83905 15.99559-13.29997 45.11028-30.07161 76.39227-4.49837 8.39025-8.27177 15.36126-8.38532 15.49112-0.11356 0.12987-5.40556 1.12496-11.76002 2.2113-6.35445 1.08635-14.76127 2.86409-18.68182 3.95053-6.48029 1.79578-7.04556 1.82202-6.2185 0.2887 0.50078-0.92766 5.93868-10.68665 12.08463-21.68665 15.25945-27.31131 29.04476-55.35509 32.84678-66.82098 3.05323-9.20776 3.16179-10.12128 3.16179-26.60708v-17.07194h-136-136v17.07194c0 16.49895 0.106942 17.39678 3.186243 26.75 4.27221 12.97663 24.123097 51.96957 48.199577 94.67806 25.38511 45.02982 31.11418 56.54423 31.11418 62.53398 0 5.91959-5.10976 16.11458-33.06241 65.96602-24.98693 44.5623-41.712222 77.55843-46.250108 91.24351-3.08346 9.2989-3.187482 10.16974-3.187482 26.68455v17.07194h63.33378 63.33378l3.91622 5.72102c11.7868 17.2189 28.48124 33.562 48.54749 47.5257 2.20644 1.5354-5.3731 1.6493-110.63127 1.6617-95.744217 0.011-113.502011-0.2048-116.287433-1.415zm308.787433 0.4715c-66.33769-8.1257-119.67343-58.34636-131.65415-123.96492-2.37611-13.014-2.37611-39.986 0-53 11.35655-62.2 60.45415-111.2976 122.65415-122.65415 13.014-2.37611 39.986-2.37611 53 0 62.22142 11.36046 111.29369 60.43273 122.65415 122.65415 2.37611 13.014 2.37611 39.986 0 53-7.34311 40.21833-31.31431 76.82442-65.05707 99.34782-16.22415 10.8296-38.5194 19.8722-57.09708 23.1576-10.9821 1.9421-34.31288 2.7073-44.5 1.4595zm27-66.44587v-10.48095l2.75-0.60633c13.70497-3.02176 19.65047-5.80578 26.76181-12.53138 19.536-18.47634 17.57436-52.55719-3.8542-66.96167-5.10265-3.43004-12.3319-6.77384-34.39626-15.90955-12.58317-5.21003-16.26135-8.73774-16.26135-15.59608 0-9.84569 5.25928-15.53489 15.01316-16.24042 9.41124-0.68075 17.41811 5.03855 21.72717 15.51969 0.96782 2.35408 2.11286 4.28183 2.54454 4.28389 0.43168 0.002 5.9717-2.10597 12.31116-4.68451 12.89579-5.2453 12.56044-4.69754 8.45597-13.81174-5.86552-13.02471-16.96888-21.37795-33.052-24.86558-2.4494-0.53116-2.4934-0.70498-2.17385-8.58828l0.32614-8.04614h-9.07614-9.07615v7.98095c0 7.89761-0.0287 7.98707-2.75 8.56757-11.2288 2.39528-20.90092 7.69772-26.16496 14.34411-14.02788 17.71164-12.93036 44.50596 2.41756 59.02139 6.13624 5.80339 10.85303 8.30151 28.19693 14.93372 22.89283 8.75409 26.08801 11.08766 27.06638 19.76775 0.64632 5.73413-2.66142 12.53406-7.58686 15.5968-3.08068 1.91563-5.06151 2.28771-12.17905 2.28771-7.16733 0-9.16418-0.38042-12.73626-2.42642-4.97011-2.84675-8.58985-7.70005-10.89645-14.60981-0.91135-2.73007-1.7592-5.09366-1.88411-5.25241-0.35908-0.45634-25.89525 5.98895-26.75952 6.75406-1.176 1.04107 3.6697 14.41412 7.23763 19.97426 7.04958 10.98582 18.37905 18.18638 32.28871 20.52143l3.75 0.62952v10.45468 10.45469h9 9v-10.48095zm-246.99082-40.76905c0.009-8.60298 0.31264-9.99278 4.34756-19.86902 13.05086-31.94449 41.32641-74.58205 67.88611-102.36751l5.74819-6.01347-3.5914 8c-11.89201 26.48993-16.61552 48.44583-16.56551 77 0.0301 17.19273 2.0781 33.73063 5.67839 45.85412 0.81812 2.75489 1.48748 5.37721 1.48748 5.82738 0 0.45018-14.625 0.8185-32.5 0.8185h-32.5l0.009-9.25zm83.02192-155.25-0.0738-18-4.00032-2.83043c-22.41312-15.85843-46.70094-47.18219-65.37593-84.3147-11.61255-23.08986-13.58105-28.60856-13.58105-38.07451v-8.28036h95 95v8.92032c0 10.31001-2.81148 19.59901-10.90028 36.0141-13.29958 26.98958-38.25244 58.9504-62.90021 80.56558-6.97647 6.11811-9.13146 8.60453-9.16095 10.56989-0.0216 1.44156-1.41335 4.07591-3.16977 6-2.87794 3.15267-15.06524 19.09999-19.06634 24.94868-1.62684 2.37808-1.70062 1.73173-1.77135-15.51857z"/>
	</g>
</svg>
