<svg xmlns:inkscape="http://www.inkscape.org/namespaces/inkscape" xmlns:rdf="http://www.w3.org/1999/02/22-rdf-syntax-ns#" xmlns="http://www.w3.org/2000/svg" sodipodi:docname="incognito.svg" height="500" width="500" version="1.1" xmlns:cc="http://creativecommons.org/ns#" xmlns:dc="http://purl.org/dc/elements/1.1/" inkscape:version="0.91 r13725" viewBox="0 0 499.99998 500.00001" xmlns:sodipodi="http://sodipodi.sourceforge.net/DTD/sodipodi-0.dtd">
	<sodipodi:namedview bordercolor="#666666" inkscape:pageshadow="2" inkscape:window-y="-8" pagecolor="#ffffff" inkscape:window-height="1017" inkscape:window-maximized="1" inkscape:zoom="0.35" inkscape:window-x="-8" showgrid="false" borderopacity="1.0" inkscape:current-layer="layer1" inkscape:cx="-126.42857" inkscape:cy="520" units="px" inkscape:window-width="1920" inkscape:pageopacity="0.0" inkscape:document-units="px"/>
	<g inkscape:label="Layer 1" inkscape:groupmode="layer" transform="translate(0 -552.36)">
		<path inkscape:connector-curvature="0" d="m137.04 1003.9c-23.391-5.3405-44.98-22.349-56.187-44.266-5.6118-10.975-9.6436-30.326-8.3603-40.128 1.8446-14.089 10.884-22.562 28.754-26.952 16.564-4.0698 59.845-4.7692 78.996-1.2766 33.535 6.1159 57.225 19.861 57.225 33.203v2.4395l7.5451-1.3241c9.8572-1.7298 18.117-1.6803 28.359 0.1702 4.5791 0.8274 8.4742 1.5135 8.6559 1.5247 0.18166 0.012 0.0307-0.9235-0.33549-2.0772-2.8096-8.8522 13.756-22.099 36.289-29.017 15.878-4.8754 26.562-6.4482 48.039-7.0721 21.189-0.6155 33.51 0.2336 49.36 3.4016 25.501 5.097 33.973 16.887 30.281 42.138-3.8849 26.569-20.563 49.995-43.931 61.705-13.017 6.5234-23.254 8.9962-37.203 8.9869-25.373-0.017-47.92-10.438-63.391-29.297-5.5184-6.7272-12.441-19.03-14.73-26.177-1.4806-4.6245-3.1158-5.4522-15.116-7.651-9.5446-1.7489-20.739-1.1903-30.854 1.5397l-6.5074 1.7562-2.4084 6.7277c-5.8987 16.478-20.614 33.958-35.681 42.384-13.608 7.6106-22.304 9.9462-38.506 10.343-9.338 0.2287-16.143-0.134-20.294-1.0816zm35.878-17.227c10.491-2.9025 22.517-10.47 30.475-19.178 9.2266-10.095 15.98-25.588 16.58-38.034l0.32269-6.6969-8.0352-4.2305-8.0352-4.2305-35.435 35.384-35.435 35.384 3.2235 1.3368c7.3668 3.055 25.77 3.1895 36.338 0.2658zm207.34 0.4201c23.709-5.7314 43.123-26.04 48.29-50.513 2.0981-9.9393 1.5186-17.989-1.5135-21.021l-2.2625-2.2625-36.893 36.882c-20.291 20.285-36.648 37.126-36.349 37.425 1.0061 1.0061 11.295 1.8377 17.067 1.3795 3.1481-0.2498 8.3956-1.1002 11.661-1.8896zm23.977-79.73c-0.99837-0.3954-4.6278-0.7518-8.0654-0.792l-6.2502-0.073-33.788 33.8c-20.787 20.795-33.398 34.153-32.776 34.718 0.55643 0.5048 2.8801 2.1567 5.1637 3.6707l4.152 2.7529 36.689-36.678c29.128-29.119 36.315-36.827 34.874-37.397zm-252.14 36.12c18.574-18.58 33.557-33.976 33.296-34.213-0.26071-0.2369-3.7207-0.9861-7.6889-1.665l-7.2149-1.2341-31.031 31.018c-17.067 17.06-31.031 31.489-31.031 32.065-0.00006 1.2541 7.3602 7.7169 8.852 7.7726 0.57568 0.022 16.243-15.163 34.817-33.743zm207.41-37.833c-15.013-0.6988-33.584 3.7962-49.187 11.905-13.797 7.1702-13.131 6.2618-11.545 15.743 1.4936 8.9328 4.9965 18.416 9.0843 24.593l2.6803 4.0502 28.004-27.982 28.004-27.982-7.039-0.3276zm-235.99 24.784 24.961-24.977-7.7971 0.01c-13.085 0.015-31.36 1.9677-38.524 4.1163-12.427 3.7271-15.403 10.084-12.084 25.805 1.5436 7.3103 6.5196 20.024 7.8374 20.024 0.35559 0 11.879-11.24 25.607-24.977zm-55.163-58.45c-34.747-2.219-59.657-18.084-70.036-44.606-4.7368-12.104-5.6505-22.129-2.3844-26.162l1.9894-2.4569h252.03 252.03l1.9895 2.4569c5.9712 7.3742-2.0051 32.392-14.768 46.321-10.986 11.989-23.552 18.64-42.515 22.502-10.826 2.2047-11.764 2.2166-189.41 2.4128-98.19 0.10845-183.21-0.10188-188.93-0.46742zm363.59-16.53c26.797-2.8224 43.776-12.628 52.678-30.424 2.0082-4.0142 3.6513-7.938 3.6513-8.7197 0-1.197-37.595-1.4212-238.32-1.4212-200.73 0-238.32 0.2242-238.32 1.4212 0 0.78168 1.6136 4.6453 3.5858 8.5858 8.8236 17.63 25.978 27.803 51.433 30.502 11.772 1.2482 353.48 1.3002 365.29 0.0556zm-357.08-74.45c-1.5668-0.85013-3.1519-2.7536-3.5224-4.2299-1.0346-4.1223 16.196-140.26 18.587-146.86 4.5909-12.668 16.988-24.132 30.666-28.357 12.642-3.9047 17.3-3.2714 60.259 8.193 21.195 5.6562 42.559 10.819 47.476 11.474 16.107 2.1434 44.277 1.3437 56.89-1.615 1.4931-0.35025 19.34-5.0639 39.66-10.475 36.286-9.6625 37.121-9.8312 46.832-9.4602 8.4969 0.32458 10.888 0.8475 17.013 3.72 3.9192 1.8382 8.9273 4.7691 11.129 6.5129 5.1944 4.114 11.135 12.259 13.521 18.537 1.2466 3.2806 4.9709 29.217 10.923 76.069 9.683 76.22 9.618 74.99 4.0778 77.096-1.7143 0.6518-65.47 1.0048-176.67 0.97814-151.86-0.02-174.35-0.22-176.84-1.57zm340.11-18.93c-0.34785-2.1464-4.0726-31.311-8.2772-64.811-6.2155-49.521-8.0519-61.707-9.8225-65.177-2.8723-5.6302-10.566-12.289-16.557-14.331-9.1125-3.1049-14.462-2.2923-53.759 8.1663-46.807 12.457-53.173 13.481-79.656 12.808-24.021-0.61046-24.658-0.72884-71.36-13.274-32.935-8.847-35.932-9.4755-43.311-9.082-6.1989 0.33063-8.9554 1.0256-12.646 3.1882-5.6794 3.3283-12.745 11.1-14.215 15.635-0.58725 1.812-3.6494 24.135-6.8047 49.606s-5.9975 47.833-6.3161 49.693l-0.57917 3.3823h65.526c36.039 0 66.284 0.29091 67.211 0.64646 1.8972 0.728 4.7298 5.6556 4.7298 8.2279 0 0.93103-1.3689 3.0617-3.042 4.7348l-3.042 3.042h-66.549-66.549l-0.64506 3.9026c-0.35479 2.1464-0.65022 4.7222-0.65652 5.7238-0.0108 1.7268 8.4628 1.8212 163.47 1.8212h163.48l-0.63247-3.9026z"/>
	</g>
</svg>
