<svg width="512" height="512" version="1.1" viewBox="0 0 512 512" xmlns="http://www.w3.org/2000/svg">
	<g transform="translate(0 -393.83)">
		<path d="m186 904.93c-9.285-1.8283-17.838-8.6576-21.802-17.408-2.9519-6.5167-2.8228-18.468 0.2674-24.757 2.8113-5.7215 8.7854-11.659 14.625-14.534 4.1638-2.0505 5.5796-2.1873 25.522-2.4657l21.114-0.29475v-240.98l-36.7-0.65771-6.1645-3.0353c-7.0896-3.4908-11.183-7.721-14.516-15.002-3.1406-6.8599-3.3202-17.036-0.41419-23.464 2.7623-6.1103 9.6008-13.1 15.369-15.708 4.8307-2.1843 4.9021-2.188 42.89-2.188h38.051l4.6162 2.2716c5.8878 2.8973 11.561 8.5702 14.458 14.458l2.2716 4.6162 0.2438 139.84 0.2438 139.84 21.102 0.29464c23.745 0.33155 25.879 0.82634 33.584 7.7878 5.9056 5.3353 8.6364 11.434 9.1114 20.349 0.51452 9.6571-1.8104 16.265-7.8468 22.301-4.9703 4.9703-9.1347 7.2451-15.881 8.6751-5.8773 1.2457-133.84 1.2936-140.14 0.05238zm60.376-432.93c-7.2623-1.9556-12.086-4.7294-17.948-10.32-7.3355-6.9969-10.883-14.49-12.153-25.67-1.1899-10.475 0.029339-15.812 5.5722-24.388 6.1626-9.5347 15.027-15.199 26.998-17.252 16.73-2.8689 34.857 5.9904 42.134 20.592 1.2971 2.6029 3.097 7.8657 3.9997 11.695 1.3834 5.8679 1.478 7.9161 0.60216 13.029-3.9891 23.288-26.885 38.324-49.205 32.314z" stroke-width=".92807"/>
	</g>
</svg>
