<svg width="512" height="512" version="1.1" viewBox="0 0 512 512" xmlns="http://www.w3.org/2000/svg">
	<path d="m245.27 511.8c-23.628-1.4509-40.147-4.1703-59.942-9.8677-37.981-10.932-72.475-30.199-101.18-56.512-56.526-51.822-86.664-123.41-83.888-199.26 0.71978-19.671 2.5206-32.534 7.2313-51.649 27.379-111.1 125.22-190.24 240.27-194.35 52.538-1.8736 104.23 12.713 148.34 41.86 46.663 30.835 80.014 72.61 99.88 125.11 14.724 38.912 19.706 88.3 13.001 128.89-12.109 73.297-54.363 137.11-117.11 176.87-21.714 13.759-53.918 26.97-80.482 33.015-17.819 4.0554-49.708 6.8945-66.119 5.8867zm42.068-48.652c52.039-8.1207 99.02-35.363 132.6-76.89 30.444-37.646 47.48-89.117 45.383-137.11-2.3361-53.444-22.241-100.4-58.486-137.98-13.05-13.529-22.363-21.328-36.407-30.488-33.423-21.798-68.226-32.568-108.92-33.703-20.392-0.56911-34.325 0.71313-52.143 4.7986-46.552 10.674-88.202 37.203-118.85 75.703-16.864 21.186-32.203 53.243-38.708 80.897-6.7647 28.757-6.7042 65.657 0.15607 95.124 13.493 57.957 52.565 108.81 105.54 137.37 22.701 12.237 50.087 20.625 77.289 23.675 10.947 1.2274 40.814 0.43401 52.539-1.3957zm-41.722-64.499c-21.393-3.5742-34.253-17.785-34.253-37.853 0-10.619 2.4698-22.335 11.447-54.302 10.8-38.459 11.876-43.238 11.897-52.856 0.031286-14.623-4.3329-18.725-19.853-18.663-5.9052 0.023609-9.857 0.68791-15.209 2.5566-3.9767 1.3886-7.2361 2.2148-7.2431 1.8361-0.00703-0.3787 0.75649-3.9774 1.6967-7.9971 2.0064-8.5781 1.1212-7.9366 19.978-14.475 18.576-6.4413 27.21-8.0237 40.124-7.3538 16.488 0.85534 27.256 5.696 34.497 15.507 4.7886 6.4888 6.4441 12.703 6.4028 24.033-0.047481 13.023-1.4786 19.991-10.87 52.924-9.9492 34.89-12.316 45.983-11.85 55.548 0.55263 11.354 4.5267 15.149 16.783 16.026 6.2522 0.44734 16.785-1.2345 23.34-3.7268 3.1252-1.1882 3.1473-0.94384 0.75729 8.397l-1.7739 6.9328-16.544 6.213c-21.233 7.9738-33.879 9.833-49.326 7.2522zm24.479-222.59c-6.7799-2.8594-10.633-5.5229-14.717-10.175-4.4191-5.0331-5.9471-8.4305-7.2602-16.143-0.97588-5.7316-0.90528-7.656 0.45057-12.282 3.4886-11.902 11.621-20.188 23.484-23.93 19.447-6.1339 40.169 3.9136 46.026 22.316 1.8351 5.7662 0.83316 18.077-1.9046 23.4-3.1804 6.1844-10.254 12.855-16.854 15.894-8.3043 3.8233-21.364 4.2341-29.224 0.9192z" stroke-width=".99728"/>
</svg>
