<svg xmlns:rdf="http://www.w3.org/1999/02/22-rdf-syntax-ns#" xmlns="http://www.w3.org/2000/svg" height="512" width="512" version="1.1" xmlns:cc="http://creativecommons.org/ns#" xmlns:dc="http://purl.org/dc/elements/1.1/" viewBox="0 0 512.00001 512.00001">
	<g transform="translate(0 -540.36)">
		<path d="m48.249 1052c-8.7485-1.5841-15.922-8.834-17.435-17.622-0.3497-2.0307-0.38282-26.417-0.32471-239.09l0.0647-236.83 0.57214-2.0155c2.1538-7.5875 8.1852-13.553 15.742-15.57l2.0781-0.5546h126.98 126.98l2.1024 0.5608c2.6102 0.6962 5.3501 1.997 7.1702 3.4041 2.6633 2.0589 164.04 155.1 165.25 156.72 1.3727 1.8296 2.9778 5.1293 3.6422 7.4876 0.44506 1.5797 0.46141 7.3699 0.46141 163.51v161.87l-0.56977 2.138c-2.003 7.5157-7.9744 13.52-15.61 15.695l-1.9599 0.5585-206.59 0.041c-176.55 0.035-206.88-0.011-208.55-0.3134zm389.81-185.47-0.0151-143.29-73.489-70.221-73.489-70.221-109.03-0.01-109.03-0.01v213.52 213.52h182.53 182.53l-0.0154-143.29zm-203.23 51.376c-1.853-0.6516-3.1853-1.6516-4.202-3.1539-1.8173-2.6853-1.6682 5.1894-1.6682-88.112 0-83.509 0.003-84.088 0.50649-85.717 0.61524-1.992 2.2285-3.913 4.1274-4.9148l1.2868-0.6789h8.944 8.944l1.3069 0.6891c1.7091 0.9012 3.0169 2.2573 3.8304 3.9719l0.65741 1.3857v85.283 85.283l-0.68382 1.3857c-1.0008 2.0281-1.9779 3.0776-3.7693 4.0489l-1.5935 0.864-8.1882 0.063c-7.3868 0.057-8.3164 0.018-9.4983-0.3979z"/>
	</g>
</svg>
