<svg width="512" height="512" version="1.1" viewBox="0 0 512 512" xmlns="http://www.w3.org/2000/svg">
	<g transform="translate(0 -161.53)">
		<path d="m17.739 673.44c-13.829-1.9672-21.867-17.899-15.345-30.418 0.95522-1.8337 26.631-28.176 58.231-59.741 31.087-31.054 56.522-56.714 56.522-57.023 0-0.30919-4.4362-3.3314-9.8582-6.716-29.485-18.405-58.821-42.278-84.248-68.557-18.666-19.291-21.54-23.126-22.738-30.338-1.6285-9.8002 2.7983-16.561 25.979-39.673 63.548-63.362 132.81-101.5 201.17-110.76 14.792-2.0046 42.985-2.0046 57.777 0 19.89 2.6956 41.676 8.3329 60.292 15.601l9.0809 3.5455 62.265-62.178c34.246-34.198 63.503-62.796 65.018-63.55 13.898-6.9259 30.074 3.3744 30.074 19.15 0 10.14 1.0689 8.9082-61.071 70.38l-56.531 55.924 5.4803 3.3787c36.09 22.25 68.643 49.126 97.929 80.852 6 6.4999 11.639 13.394 12.531 15.32 2.5292 5.4592 2.2205 13.202-0.74664 18.728-4.9851 9.2855-31.592 36.249-55.673 56.421-32.055 26.85-69.01 49.719-102.02 63.132-63.023 25.61-121.63 26.585-184.12 3.0653-5.2763-1.9856-9.7462-3.4573-9.9332-3.2704-68.39 68.39-124.19 123.38-126.31 124.48-3.7431 1.9356-9.4287 2.8667-13.751 2.2519zm265.3-151c44.669-6.9855 89.728-28.605 135.64-65.082 10.52-8.3572 32.572-28.012 39.843-35.511l3.9073-4.0298-5.2204-5.3411c-22.266-22.781-53.317-47.343-80.583-63.743l-13.053-7.8513-12.693 12.473c-6.9813 6.8604-18.158 17.799-24.838 24.308l-12.144 11.834 2.2613 6.5516c4.2339 12.267 5.0044 24.743 2.2509 36.45-0.53679 2.2823-2.9492 8.2635-5.361 13.292-3.8147 7.9529-5.375 10.132-11.996 16.753-6.5977 6.5977-8.8289 8.199-16.753 12.024-11.205 5.4079-16.856 6.6724-29.276 6.5512-9.3876-0.091627-15.269-1.2607-23.961-4.7633l-2.9512-1.1892-18.249 18.806c-10.037 10.343-17.966 19.084-17.621 19.424 1.9466 1.9148 26.889 7.7626 42.21 9.8963 11.292 1.5725 35.836 1.1425 48.585-0.85116zm-108.72-52.794 24.329-24.34-1.7024-3.9715c-5.2849-12.329-5.9011-30.064-1.5012-43.204 7.1631-21.392 24.121-37.079 46.014-42.564 2.9116-0.72946 9.1399-1.1789 15.757-1.1371 9.8479 0.062236 11.731 0.34004 18.821 2.7769l7.8786 2.7078 18.584-18.509c10.221-10.18 18.297-18.787 17.946-19.128-2.386-2.3146-30.8-8.9308-44.978-10.473-13.123-1.4276-38.113-0.54421-51.407 1.8172-49.874 8.859-102.52 37.585-153.13 83.564-7.077 6.4286-14.759 13.639-17.071 16.022l-4.2037 4.3339 12.189 11.796c18.477 17.882 37.792 33.654 57.516 46.964 11.145 7.5208 28.235 17.685 29.737 17.685 0.4924 0 11.843-10.953 25.224-24.34z" stroke-width=".8754"/>
	</g>
</svg>
