<?xml version="1.0" encoding="UTF-8" standalone="no"?>
<svg id="svg2" xmlns:rdf="http://www.w3.org/1999/02/22-rdf-syntax-ns#" xmlns="http://www.w3.org/2000/svg" height="512" width="512" version="1.1" xmlns:cc="http://creativecommons.org/ns#" xmlns:dc="http://purl.org/dc/elements/1.1/" viewBox="0 0 512.00001 512.00001">
	<g id="layer1" transform="translate(0,-540.36216)">
		<g id="g3860" transform="matrix(.83660098 0 0 .86882834 .000097773135 530.50053)">
			<g id="g3820">
				<path id="path3822" d="m482.188 83.333-297.566 139.892v89.832l-51.91-23.082v-89.832l297.566-139.891-99.946-44.439c-13.383-5.95-35.281-5.95-48.664 0l-246.111 109.43c-19.607 8.718-35.607 33.406-35.557 54.864l0.606 256.534c0.051 21.686 16.408 46.401 36.348 54.926l245.466 104.932c12.945 5.534 34.129 5.534 47.075 0.003l245.55-104.936c19.939-8.521 36.297-33.234 36.348-54.919l0.607-256.54c0.051-21.458-15.949-46.146-35.557-54.864l-94.255-41.91zm74.21 205.342-14.403 6.683-0.292 101.353c-0.013 4.429-3.925 9.701-8.727 11.773l-21.563 9.309c-4.727 2.041-8.551 0.149-8.554-4.223l-0.073-100.021-13.951 6.472c-6.562 3.044-10.669-1.729-7.411-8.601l33.348-70.356c3.366-7.102 11.806-11.199 15.184-7.347l34.221 39.012c3.416 3.894-0.92 12.765-7.779 15.946zm-140.802 162.768c0.037 4.243-3.55 9.24-8.001 11.162l-19.996 8.632c-4.385 1.893-7.972 0.029-8.022-4.16l-1.171-95.826-12.938 6.002c-6.085 2.823-9.968-1.808-7.006-8.344l30.31-66.881c3.057-6.747 10.873-10.541 14.062-6.805l32.301 37.836c3.226 3.777-0.712 12.202-7.062 15.147l-13.338 6.188 0.861 97.049zm164.605-27.824c-0.015 2.226-2.016 4.865-4.468 5.896l-228.395 95.95c-2.131 0.896-3.884-0.043-3.915-2.096l-0.175-11.162c-0.032-2.058 1.67-4.463 3.805-5.372l228.802-97.467c2.455-1.046 4.438-0.086 4.423 2.146l-0.077 12.105z"/>
			</g>
		</g>
	</g>
</svg>
