<svg xmlns:inkscape="http://www.inkscape.org/namespaces/inkscape" xmlns:rdf="http://www.w3.org/1999/02/22-rdf-syntax-ns#" xmlns="http://www.w3.org/2000/svg" sodipodi:docname="language.svg" height="512" width="512" version="1.1" xmlns:cc="http://creativecommons.org/ns#" xmlns:dc="http://purl.org/dc/elements/1.1/" inkscape:version="0.91 r13725" viewBox="0 0 512.00001 512.00001" xmlns:sodipodi="http://sodipodi.sourceforge.net/DTD/sodipodi-0.dtd">
	<sodipodi:namedview bordercolor="#666666" inkscape:pageshadow="2" inkscape:window-y="-8" pagecolor="#ffffff" inkscape:window-height="1017" inkscape:window-maximized="1" inkscape:zoom="0.35" inkscape:window-x="-8" showgrid="false" borderopacity="1.0" inkscape:current-layer="layer1" inkscape:cx="-126.42857" inkscape:cy="520" units="px" inkscape:window-width="1920" inkscape:pageopacity="0.0" inkscape:document-units="px"/>
	<g inkscape:label="Layer 1" inkscape:groupmode="layer" transform="translate(0 -540.36)">
		<path inkscape:connector-curvature="0" d="m215.55 997.53c0.30448-1.1644 26.277-74.35 57.717-162.63l57.164-160.52h33.079 33.079l57.144 160.47c31.429 88.256 57.396 161.44 57.705 162.63l0.56155 2.1687-24.647-0.2556-24.647-0.2555-16.427-48.307-16.427-48.307h-66.332-66.332l-16.433 48.307-16.433 48.307-24.662 0.2555-24.662 0.2556 0.55361-2.117zm197.53-144.13c-0.17537-0.45212-11.296-29.721-24.712-65.043-13.416-35.321-24.608-64.218-24.871-64.215-0.26306 0.003-11.509 28.949-24.991 64.325l-24.513 64.32 30.253 0.49853c55.769 0.919 69.155 0.94123 68.835 0.11429zm-404.28 42.19c-4.23-12.495-7.9672-23.424-8.3047-24.286-0.48236-1.2314 1.6008-2.7502 9.7307-7.0944 22.771-12.168 40.385-24.96 55.846-40.558 21.76-21.953 35.241-47.198 46.455-86.995 3.2116-11.397 6.22-27.539 5.411-29.034-0.21354-0.39459-26.836-0.71744-59.161-0.71744h-58.773v-23.914-23.914h57.873 57.873v-33.002-33.002h24.858 24.858l0.25186 32.284 0.25187 32.284 57.155 0.24667 57.155 0.24667v24.378 24.378l-57.695 0.24654-57.695 0.24656 2.7001 9.3908c11.644 40.499 28.839 68.729 62.686 102.92 6.9833 7.054 12.697 13.269 12.697 13.811 0 0.54212-3.7665 11.501-8.37 24.353l-8.37 23.367-11.384-11.828c-29.3-30.45-50.22-60.52-63.14-90.75l-2.6562-6.2177-3.2239 9.0875c-1.7732 4.9981-6.2566 15.204-9.9632 22.68-17.798 35.897-44.069 65.339-81.732 91.598-8.7471 6.0986-35.744 22.512-37.029 22.512-0.33683 0-4.0734-10.223-8.3034-22.719z"/>
	</g>
</svg>
