<?xml version="1.0" encoding="UTF-8" standalone="no"?>
<!-- Created with Inkscape (http://www.inkscape.org/) -->

<svg
   xmlns:dc="http://purl.org/dc/elements/1.1/"
   xmlns:cc="http://creativecommons.org/ns#"
   xmlns:rdf="http://www.w3.org/1999/02/22-rdf-syntax-ns#"
   xmlns:svg="http://www.w3.org/2000/svg"
   xmlns="http://www.w3.org/2000/svg"
   xmlns:sodipodi="http://sodipodi.sourceforge.net/DTD/sodipodi-0.dtd"
   xmlns:inkscape="http://www.inkscape.org/namespaces/inkscape"
   width="512"
   height="512"
   viewBox="0 0 511.99999 511.99999"
   id="svg2"
   version="1.1"
   inkscape:version="0.91 r13725"
   sodipodi:docname="library.svg">
  <defs
     id="defs4" />
  <sodipodi:namedview
     id="base"
     pagecolor="#ffffff"
     bordercolor="#666666"
     borderopacity="1.0"
     inkscape:pageopacity="0.0"
     inkscape:pageshadow="2"
     inkscape:zoom="1.24"
     inkscape:cx="199.5"
     inkscape:cy="198.62732"
     inkscape:document-units="px"
     inkscape:current-layer="svg2"
     showgrid="false"
     units="px"
     inkscape:window-width="1920"
     inkscape:window-height="1057"
     inkscape:window-x="-8"
     inkscape:window-y="-8"
     inkscape:window-maximized="1" />
  <metadata
     id="metadata7">
    <rdf:RDF>
      <cc:Work
         rdf:about="">
        <dc:format>image/svg+xml</dc:format>
        <dc:type
           rdf:resource="http://purl.org/dc/dcmitype/StillImage" />
        <dc:title></dc:title>
      </cc:Work>
    </rdf:RDF>
  </metadata>
  <path
     style="fill:#000000"
     d="m 266.06214,511.09574 c -11.05682,-1.43711 -22.43065,-4.88453 -32.70841,-9.91395 -19.23476,-9.41251 -30.92115,-22.66336 -34.44094,-39.05154 -0.88457,-4.11855 -1.10372,-38.2528 -0.8706,-135.60037 l 0.31154,-130.0963 2.33869,-7.00519 c 3.33072,-9.97661 9.97797,-20.1389 18.39657,-28.12459 9.21129,-8.73763 120.80532,-86.490115 129.13138,-89.971542 7.43295,-3.107988 16.05064,-1.056707 21.72388,5.170968 4.64209,5.095746 5.05454,7.589815 4.72031,28.543614 -0.30866,19.35131 -0.33004,19.51639 -3.06195,23.64377 -3.57579,5.40232 -9.545,8.47298 -16.35204,8.41177 -6.36659,-0.0572 -10.13837,-1.92598 -14.73555,-7.30072 l -3.53945,-4.13811 -20.81092,14.30179 c -66.25914,45.53498 -73.85697,51.32913 -77.02607,58.74061 -2.29987,5.37862 -2.14236,15.08745 0.31303,19.29477 6.67236,11.43313 29.71571,10.94793 55.11394,-1.16046 14.82533,-7.06785 42.39859,-26.9514 114.28818,-82.41522 18.425,-14.21514 35.48,-26.73221 37.9,-27.81571 8.48544,-3.79915 18.45602,-0.51409 23.6,7.77564 l 3,4.83462 0,133.17699 0,133.177 -2.09571,4.00296 c -2.34009,4.46973 -17.8267,16.7319 -86.40429,68.41422 -50.0274,37.70228 -61.22645,45.18752 -73.48845,49.1183 -14.50093,4.6485 -29.83155,5.9976 -45.30314,3.98668 z m 121.21192,-222.59401 46.49457,-36.02667 0.0426,-19.8481 0.0426,-19.84809 -2.47862,1.83476 c -1.36334,1.00912 -23.39729,18.04676 -48.96443,37.86143 l -46.48572,36.02667 -0.0357,19.8481 -0.0357,19.84809 2.46288,-1.83476 c 1.35465,-1.00912 23.3855,-18.04677 48.95752,-37.86143 z M 117.85373,432.44092 C 96.617417,431.28696 74.900428,424.96859 61.99965,416.19065 49.860969,407.93127 43.039011,397.88557 40.868007,385.07321 40.093003,380.49946 39.858696,340.54123 40.078741,250.47358 l 0.312949,-128.09481 2.259093,-7.34408 C 46.758979,101.67937 54.347385,89.63122 63.122492,82.531637 65.449675,80.648808 80.628734,70.777768 96.853734,60.595993 113.07873,50.414217 139.64642,33.528447 155.89305,23.072059 189.38351,1.5174712 190.13178,1.0879735 195.76361,0.18673946 c 9.10683,-1.45731896 18.89214,5.79264114 20.98227,15.54581554 1.42685,6.658073 1.43195,29.47943 0.008,36.123627 -1.78069,8.30923 -10.30252,15.904821 -17.90023,15.954654 -6.84013,0.04486 -14.33561,-4.190349 -17.95393,-10.144613 l -1.6723,-2.751917 -20.43689,13.104015 c -11.2402,7.207209 -31.2368,19.847606 -44.4368,28.089772 -13.2,8.242167 -25.463588,16.375847 -27.252422,18.074847 -9.387759,8.91629 -9.689715,29.90154 -0.493095,34.26885 4.901591,2.32769 16.254187,1.43315 26.526837,-2.09018 16.66531,-5.71591 30.15446,-13.98207 122.71868,-75.202149 26.675,-17.642298 49.85,-32.757936 51.5,-33.590309 4.80502,-2.42398 9.02508,-2.960325 13.59756,-1.728171 9.79223,2.638728 15.40036,10.821109 14.72216,21.479943 -0.69603,10.938965 0.52069,9.907918 -57.27356,48.533736 -45.61987,30.48927 -53.10586,35.84928 -59.22201,42.40324 -9.96945,10.6831 -15.09087,21.11342 -19.0044,38.70447 -1.47234,6.61807 -1.72782,19.96361 -2.24078,117.05084 -0.64459,122.00166 -0.0332,112.32373 -7.51097,118.89415 -7.16586,6.29637 -31.36781,10.68556 -52.568,9.53356 z"
     id="path3550"
     inkscape:connector-curvature="0" />
</svg>
