<svg xmlns:rdf="http://www.w3.org/1999/02/22-rdf-syntax-ns#" xmlns="http://www.w3.org/2000/svg" height="512" width="512" version="1.1" xmlns:cc="http://creativecommons.org/ns#" xmlns:dc="http://purl.org/dc/elements/1.1/" viewBox="0 0 512.00001 512.00001">
	<g transform="translate(0 -540.36)">
		<path d="m-0.00001 796.36v-256h256 256v256 256h-256-256v-256zm159 55v-114h-38-38v114 114h38 38v-114zm118.01 50.25c0.004-35.062 0.43061-67.429 0.94763-71.925 1.9674-17.109 13.519-31.5 28.867-35.962 6.9598-2.0233 18.897-1.9498 25.235 0.1554 8.0652 2.6788 14.251 8.2974 18.386 16.699 6.3895 12.984 6.5576 15.263 6.5576 88.871v65.912h38 38l-0.0309-72.25c-0.0174-40.658-0.45507-75.529-1.001-79.75-5.6928-44.01-29.443-72.262-66.968-79.661-10.265-2.0239-29.571-1.9463-39 0.15666-4.125 0.92005-11.687 3.6819-16.805 6.1374-7.637 3.6644-10.789 5.9344-17.584 12.666-4.5537 4.5106-9.689 10.001-11.412 12.201l-3.1323 4-0.0335-15.75-0.0336-15.75-37.75 0.00051-37.75 0.00051-0.14066 114-0.14066 114h37.891 37.891l0.008-63.75zm-142.51-197.44c16.556-4.105 28.328-18.117 29.298-34.874 1.1493-19.854-10.39-35.582-30.005-40.896-7.0177-1.9011-22.849-0.91221-30.045 1.8767-16.242 6.2952-25.497 20.845-24.542 38.582 1.0874 20.191 15.637 34.749 36.794 36.817 4.627 0.45224 13.521-0.27205 18.5-1.5066z"/>
	</g>
</svg>
