<svg xmlns:rdf="http://www.w3.org/1999/02/22-rdf-syntax-ns#" xmlns="http://www.w3.org/2000/svg" height="512" width="512" version="1.1" xmlns:cc="http://creativecommons.org/ns#" xmlns:dc="http://purl.org/dc/elements/1.1/" viewBox="0 0 512.00001 512.00001">
	<g transform="translate(0 -540.36)">
		<path d="m133.87 1052.2c-22.683-2.255-37.831-6.4658-55.336-15.383-28.076-14.302-49.899-36.495-63.832-64.915-10.073-20.547-14.639-40.293-14.639-63.317 0-31.617 9.9745-61.639 28.756-86.55 5.0903-6.7517 4.9702-6.627 45.929-47.698 44.389-44.511 41.18-41.869 50.866-41.869 4.961 0 5.941 0.1621 8.647 1.4303 8.5979 4.0296 13.936 14.969 11.567 23.704-1.7005 6.2691-1.5277 6.077-41.984 46.697-42.925 43.099-44.287 44.652-51.176 58.38-5.0226 10.009-8.5643 21.32-10.126 32.34-0.95909 6.7668-0.82934 21.501 0.25141 28.548 6.2614 40.831 36.249 74.09 75.645 83.896 9.8532 2.4526 12.685 2.7517 25.806 2.7247 11.555-0.024 13.029-0.1368 19.421-1.4896 16.012-3.3889 29.471-9.5212 42.566-19.395 1.7559-1.3239 20.552-19.701 41.768-40.837 37.468-37.327 40.293-39.941 44.695-41.358 7.5951-2.4454 15.826-0.5714 21.231 4.8341 6.5634 6.5635 8.1414 16.164 4.0016 24.346-1.1047 2.1834-9.8194 11.162-41.383 42.636-32.556 32.463-41.129 40.724-46.147 44.467-20.1 14.992-41.334 23.855-66.046 27.566-6.7554 1.0144-25.212 1.7674-30.482 1.2436zm17.689-135.91c-5.7505-1.4526-11.673-6.3314-14.184-11.685-1.2075-2.5742-1.377-3.6233-1.377-8.5224 0-5.2099 0.11824-5.838 1.7527-9.3113 1.6898-3.5908 5.4076-7.3779 103.49-105.42 110.67-110.62 103.38-103.72 110.94-105.13 9.9646-1.8531 20.384 4.656 23.329 14.574 1.2664 4.2645 0.79755 10.491-1.1143 14.797-1.466 3.3017-6.0832 8.0112-101.88 103.91-55.188 55.25-101.58 101.42-103.1 102.6-1.5173 1.178-4.0314 2.6261-5.5868 3.2179-3.2305 1.2291-9.3301 1.7085-12.275 0.9646zm231.65-55.959c-7.9088-1.2173-14.457-6.9898-16.772-14.784-1.5482-5.2133-0.94345-10.53 1.8241-16.037 0.80839-1.6085 13.165-14.373 39.855-41.173 42.735-42.91 44.308-44.701 51.158-58.251 7.5393-14.913 10.775-28.738 10.775-46.037 0-13.61-1.9566-24.754-6.3374-36.098-15.445-39.993-52.883-65.795-95.466-65.795-23.217 0-44.302 7.2079-62.785 21.463-1.9022 1.467-20.818 19.936-42.034 41.042-41.849 41.63-40.697 40.624-47.759 41.734-14.509 2.2795-26.959-11.266-23.34-25.394 0.47332-1.8476 1.4604-4.3827 2.1935-5.6336 1.3396-2.2858 71.553-72.971 79.015-79.546 20.551-18.108 45.985-29.849 74.036-34.177 10.991-1.6959 30.358-1.6959 41.348 0 24.51 3.782 46.387 12.925 65.925 27.551 8.0816 6.05 21.882 19.821 27.918 27.859 15.818 21.062 25.318 44.704 28.338 70.519 1.6541 14.141 0.82802 31.848-2.1701 46.516-2.9524 14.444-10.587 33.388-18.557 46.047-7.8155 12.413-10.4 15.247-51.587 56.572-21.678 21.75-40.398 40.13-41.601 40.844-4.3682 2.5924-9.0876 3.5303-13.977 2.7777z"/>
	</g>
</svg>
