<?xml version="1.0" encoding="UTF-8" standalone="no"?>
<svg id="svg2" xmlns:rdf="http://www.w3.org/1999/02/22-rdf-syntax-ns#" xmlns="http://www.w3.org/2000/svg" height="512" width="512" version="1.1" xmlns:cc="http://creativecommons.org/ns#" xmlns:dc="http://purl.org/dc/elements/1.1/" viewBox="0 0 512.00001 512.00001">
	<g id="layer1" transform="translate(0,-540.36216)">
		<path id="path3347" d="m7 875.86218v-164.5h54.5 54.5v164.5 164.50002h-54.5-54.5v-164.50002zm170.31647 0.00076 0.18353-164.49924 54.73123-0.00076 54.73122-0.00076 0.26878 22.62333 0.26877 22.62332 4-5.87332c9.41542-13.82497 26.42985-28.81755 41-36.12792 30.05308-15.07873 76.7544-14.98391 109.12261 0.22156 12.26362 5.76103 20.24439 11.29519 30.21878 20.95485 22.42599 21.71835 35.61396 53.57792 39.14976 94.57818 0.57094 6.62049 0.99537 53.61227 1.0003 110.75l0.009 99.25002h-54.96332-54.96332l-0.32647-99.25002c-0.31793-96.65651-0.3804-99.44598-2.39056-106.75-6.80999-24.74438-17.9073-37.62575-36.69273-42.59158-23.58225-6.23385-48.19776 2.04794-62.5372 21.04039-5.42258 7.18216-10.79875 18.47395-12.11121 25.43768-0.64398 3.41452-1.01564 41.39687-1.01564 103.75v98.36353h-54.93353-54.93354l0.18354-164.49926zm-133.31647-212.00803c-12.606773-3.07296-25.231358-10.9115-31.988843-19.86173-19.6994285-26.0917-14.1346434-63.76414 11.98377-81.12763 11.378292-7.56427 18.956456-9.78952 35.005073-10.27886 15.585419-0.47523 23.009904 0.84164 33.733837 5.98328 13.773583 6.60382 26.022193 22.38907 29.169193 37.59143 1.57708 7.61852 1.35059 20.42841-0.48722 27.55643-5.09791 19.77241-22.216271 35.74106-43.044914 40.15392-8.478091 1.79621-26.970027 1.78715-34.370896-0.01684z"/>
	</g>
</svg>
