<svg xmlns:rdf="http://www.w3.org/1999/02/22-rdf-syntax-ns#" xmlns="http://www.w3.org/2000/svg" height="512" width="512" version="1.1" xmlns:cc="http://creativecommons.org/ns#" xmlns:dc="http://purl.org/dc/elements/1.1/" viewBox="0 0 512.00001 512.00001">
	<g transform="translate(0 -540.36)">
		<path d="m33.292 1051.8c-6.4163-1.5122-12.653-6.7393-15.69-13.15l-1.8519-3.9094v-238.36-238.37l1.8519-3.9094c2.3969-5.0598 6.5778-9.2407 11.638-11.638l3.9094-1.8519 104.97-0.15498c103.21-0.15238 105.04-0.13571 108.76 0.99413 6.9888 2.1182 12.981 7.8233 15.391 14.652 3.9093 11.08-1.3875 23.27-12.373 28.474l-3.9094 1.8519-92.069 0.15028-92.069 0.15027v209.64 209.64l92.069 0.152 92.069 0.152 3.9094 1.8519c6.939 3.2871 11.664 9.2595 13.198 16.681 2.3304 11.279-4.7695 22.92-16.117 26.424-3.6553 1.129-5.585 1.1486-107.62 1.0914-57.981-0.033-104.86-0.285-106.07-0.5714zm326.77-124.1c-10.339-2.169-17.936-10.911-18.53-21.323-0.30002-5.2578 0.74421-9.5123 3.3897-13.812 1.0383-1.6874 16.074-17.05 36.958-37.762l35.207-34.917-144.99-0.1704-144.99-0.1703-3.2783-1.3255c-14.9-6.0243-19.997-23.81-10.327-36.043 2.5876-3.2736 6.386-6.0602 10.651-7.8141l2.9544-1.2148 144.68-0.154 144.68-0.154-35.131-35.224c-21.427-21.484-35.729-36.266-36.665-37.896-2.4722-4.3068-3.4252-8.3527-3.1379-13.321 0.78191-13.522 13.105-23.547 26.401-21.477 8.0835 1.2585 5.1709-1.3683 67.231 60.633 40.282 40.244 57.296 57.615 58.192 59.414 3.8721 7.7738 3.8706 15.006-0.006 22.756-0.89123 1.7823-17.575 18.881-55.872 57.261-30.031 30.096-56.086 55.974-57.9 57.506-1.8142 1.5323-4.737 3.3242-6.4951 3.982-3.792 1.4188-9.5216 1.9587-13.013 1.2264z"/>
	</g>
</svg>
