<svg xmlns:inkscape="http://www.inkscape.org/namespaces/inkscape" xmlns:rdf="http://www.w3.org/1999/02/22-rdf-syntax-ns#" xmlns="http://www.w3.org/2000/svg" sodipodi:docname="magnifier.svg" height="512" width="512" version="1.1" xmlns:cc="http://creativecommons.org/ns#" xmlns:dc="http://purl.org/dc/elements/1.1/" inkscape:version="0.91 r13725" viewBox="0 0 512.00001 512.00001" xmlns:sodipodi="http://sodipodi.sourceforge.net/DTD/sodipodi-0.dtd">
	<sodipodi:namedview bordercolor="#666666" inkscape:pageshadow="2" inkscape:window-y="-8" pagecolor="#ffffff" inkscape:window-height="1017" inkscape:window-maximized="1" inkscape:zoom="0.35" inkscape:window-x="-8" showgrid="false" borderopacity="1.0" inkscape:current-layer="layer1" inkscape:cx="-126.42857" inkscape:cy="520" units="px" inkscape:window-width="1920" inkscape:pageopacity="0.0" inkscape:document-units="px"/>
	<g inkscape:label="Layer 1" inkscape:groupmode="layer" transform="translate(0 -540.36)">
		<path inkscape:connector-curvature="0" d="m480.98 1050.7c-1.3599-0.8985-35.145-34.245-75.077-74.102l-72.605-72.468-8.1232 6.0229c-31.374 23.263-65.553 35.794-107.4 39.378-10.675 0.9143-16.956 0.9057-28.011-0.038-51.571-4.4028-94.188-23.882-129.89-59.374-31.411-31.222-51.689-71.402-58.322-115.56-2.056-13.689-2.0588-46.729-0.005-60.403 5.1116-34.032 18.763-66.458 39.59-94.035 8.0315-10.635 28.027-30.63 38.661-38.661 27.577-20.827 60.002-34.478 94.035-39.59 13.674-2.0538 46.714-2.051 60.403 0.005 21.076 3.1655 39.562 8.9319 59.281 18.491 22.993 11.146 40.813 24.106 57.999 42.18 30.238 31.8 47.62 66.865 55.171 111.29 2.6458 15.569 2.395 47.241-0.50376 63.618-5.9877 33.828-18.787 64.058-37.843 89.381l-5.2677 6.9999 72.876 72.999c40.082 40.15 73.594 74.44 74.472 76.2 0.9975 2.0007 1.5957 5.7864 1.5957 10.1 0 5.9177-0.4034 7.4997-2.8362 11.122-4.5463 6.7694-7.3031 8.0637-17.191 8.0713-6.2238 0.01-9.1953-0.4348-11-1.6273zm-260.83-144.38c83.611-8.5022 146.82-78.22 146.82-161.95 0-45.389-18.906-88.192-52.661-119.22-43.202-39.717-105.68-52.954-161.87-34.296-40.555 13.467-75.242 43.394-93.882 80.998-10.537 21.257-14.54 35.437-16.732 59.272-2.6599 28.919 3.0777 58.957 16.379 85.749 30.115 60.658 94.63 96.291 161.95 89.446z"/>
	</g>
</svg>
