<?xml version="1.0" encoding="UTF-8" standalone="no"?>
<svg id="svg2" xmlns:rdf="http://www.w3.org/1999/02/22-rdf-syntax-ns#" xmlns="http://www.w3.org/2000/svg" height="512" width="512" version="1.1" xmlns:cc="http://creativecommons.org/ns#" xmlns:dc="http://purl.org/dc/elements/1.1/" viewBox="0 0 512.00001 512.00001">
	<g id="layer1" transform="translate(0,-540.36216)">
		<path id="path3412" d="m232.5 1051.2338c-38.55276-3.6759-77.12046-16.5266-109.88471-36.6134-32.94271-20.1962-64.677315-51.9308-84.873535-84.87351-46.0243904-75.07188-50.014678-168.90525-10.536458-247.76942 20.77073-41.49291 55.716479-79.53859 95.409993-103.87354 75.07188-46.02439 168.90525-50.01467 247.76942-10.53645 41.49291 20.77073 79.53859 55.71648 103.87353 95.40999 46.0244 75.07188 50.01468 168.90525 10.53646 247.76942-20.77073 41.49291-55.71648 79.53859-95.40999 103.87351-46.46829 28.4884-103.21133 41.7309-156.88471 36.6134zm147.85536-203.90339c6.67763-2.49842 13.50581-9.43986 16.22721-16.4964 1.73422-4.49676 1.91743-7.79061 1.91743-34.47183s-0.18321-29.97507-1.91743-34.47183c-2.7214-7.05654-9.54958-13.99798-16.22721-16.4964-5.34688-2.00053-7.25906-2.03177-124.35536-2.03177s-119.00848 0.0312-124.35536 2.03177c-6.67763 2.49842-13.50581 9.43986-16.22721 16.4964-1.73681 4.50349-1.91743 7.79779-1.91743 34.97183 0 29.1955 0.0619 30.13673 2.30811 35.09882 2.97121 6.56367 9.50201 12.9387 15.75652 15.38068 4.77222 1.86325 8.8761 1.9285 124.14786 1.97373 117.44418 0.0461 119.29303 0.0166 124.64287-1.985z"/>
	</g>
</svg>
