<svg xmlns:rdf="http://www.w3.org/1999/02/22-rdf-syntax-ns#" xmlns="http://www.w3.org/2000/svg" height="512" width="512" version="1.1" xmlns:cc="http://creativecommons.org/ns#" xmlns:dc="http://purl.org/dc/elements/1.1/" viewBox="0 0 512.00001 512.00001">
	<g transform="translate(0 -540.36)">
		<path d="m250.81 1051.7c-1.2327-0.3853-3.3868-1.3564-4.7869-2.1582-1.6397-0.939-15.551-14.447-39.091-37.958-32.148-32.108-36.711-36.866-37.924-39.534-4.0468-8.9044-2.5616-17.519 4.2177-24.462 5.0699-5.1927 12.015-7.5909 18.493-6.3861 6.7423 1.2538 7.8687 2.1268 25.641 19.87 9.0377 9.0231 16.517 16.406 16.621 16.406 0.10404 0 0.18917-35.902 0.18917-79.782v-79.782h-80.962-80.962l17.535 17.521c21.124 21.107 21.263 21.306 21.25 30.349-0.007 5.0963-0.14523 5.8639-1.5747 8.776-4.3152 8.7911-14.187 14.18-23 12.556-6.9446-1.2796-6.1919-0.6228-44.463-38.802-37.819-37.728-38.28-38.246-40.8-45.821-0.8917-2.6803-1.1082-4.4073-0.96676-7.7122 0.3445-8.0505-1.3695-6.0178 40.011-47.451 34.834-34.879 36.958-36.902 40.486-38.561 3.4348-1.616 4.1352-1.7517 9.042-1.7517 4.8485 0 5.6274 0.1463 8.8089 1.6538 4.5395 2.1512 8.6614 6.2731 10.813 10.813 1.5076 3.1814 1.6538 3.9604 1.6538 8.8089 0 4.9178-0.13282 5.5993-1.7619 9.0398-1.6026 3.3846-3.2596 5.2236-18.331 20.344l-16.569 16.624h79.896 79.896v-80.682-80.682l-17.685 17.565c-19.109 18.98-20.137 19.784-26.894 21.041-9.0314 1.6796-18.864-3.7322-23.125-12.727-1.5503-3.2729-1.7066-4.0682-1.7066-8.6833 0-4.7906 0.11232-5.3065 1.9684-9.042 1.8687-3.7607 3.7827-5.7717 37.764-39.675l35.795-35.713 4.521-2.1392c8.1325-3.848 13.388-4.1435 19.675-1.1064 3.1458 1.5196 6.8238 5.0302 40.272 38.438 34.877 34.836 36.902 36.961 38.561 40.489 1.5976 3.3957 1.7516 4.1686 1.7516 8.7872 0 4.6944-0.13338 5.335-1.8272 8.776-4.4566 9.0535-13.988 14.272-23.005 12.596-6.7017-1.2463-7.8721-2.1515-25.83-19.977l-16.621-16.498v79.616 79.616h80.846c44.465 0 80.844-0.06 80.841-0.133-0.004-0.073-7.8586-8.0314-17.458-17.685-15.619-15.707-17.644-17.942-19.276-21.264-1.7086-3.4791-1.823-4.0471-1.823-9.0532 0-4.9459 0.12731-5.5997 1.7206-8.8361 2.2386-4.5472 6.3709-8.6832 10.779-10.788 3.188-1.5224 3.8922-1.651 9.042-1.651 9.4432 0 6.4923-2.3958 47.746 38.765 33.776 33.7 35.899 35.929 37.92 39.814 2.8725 5.5205 3.6776 8.4118 3.6844 13.232 0.006 3.5674-0.21395 4.4875-1.8356 7.7123-1.6864 3.3536-4.9424 6.7568-38.694 40.444-28.725 28.67-37.447 37.078-39.546 38.121-5.8785 2.922-12.74 2.9173-18.523-0.013-3.9565-2.0049-5.4964-3.2861-8.0901-6.7311-4.7258-6.2769-5.6623-14.092-2.5426-21.218 1.3059-2.9831 3.1914-5.074 18.229-20.214l16.773-16.887h-79.896-79.896v80.846c0 44.465 0.17481 80.846 0.38847 80.846s8.2916-7.884 17.951-17.52c15.482-15.444 17.965-17.71 20.96-19.119 4.2324-1.9912 8.1331-2.5157 12.45-1.6741 6.8181 1.3292 12.964 6.1403 16.16 12.651 1.3584 2.7672 1.5007 3.5893 1.5007 8.6696 0 9.5487 2.2528 6.7867-39.522 48.455-32.963 32.879-36.324 36.076-39.777 37.846-6.5654 3.3642-12.264 4.2939-17.085 2.7872z"/>
	</g>
</svg>
