<svg xmlns:inkscape="http://www.inkscape.org/namespaces/inkscape" xmlns:rdf="http://www.w3.org/1999/02/22-rdf-syntax-ns#" xmlns="http://www.w3.org/2000/svg" sodipodi:docname="new-stroke.svg" height="512" width="512" version="1.1" xmlns:cc="http://creativecommons.org/ns#" xmlns:dc="http://purl.org/dc/elements/1.1/" inkscape:version="0.91 r13725" viewBox="0 0 512.00001 512.00001" xmlns:sodipodi="http://sodipodi.sourceforge.net/DTD/sodipodi-0.dtd">
	<sodipodi:namedview bordercolor="#666666" inkscape:pageshadow="2" inkscape:window-y="-8" pagecolor="#ffffff" inkscape:window-height="1017" inkscape:window-maximized="1" inkscape:zoom="0.35" inkscape:window-x="-8" showgrid="false" borderopacity="1.0" inkscape:current-layer="layer1" inkscape:cx="-126.42857" inkscape:cy="520" units="px" inkscape:window-width="1920" inkscape:pageopacity="0.0" inkscape:document-units="px"/>
	<g inkscape:label="Layer 1" inkscape:groupmode="layer" transform="translate(0 -540.36)">
		<path inkscape:connector-curvature="0" d="m231.68 1050.7c-51.74-5.7-96.38-23.9-135.94-55.4-53.477-42.54-88.545-107.8-94.736-176.31-7.5929-84.01 28.3-168.4 94.064-221.17 35.954-28.849 79.137-47.713 124.78-54.51 17.948-2.6728 55.575-2.6476 72.876 0.0487 73.439 11.446 136.23 51.348 177 112.48 22.21 33.302 37.585 77.195 41.252 117.77 9.417 104.2-47.048 204.79-141 251.18-25.2 12.445-49.671 20.2-76.711 24.312-13.832 2.1032-48.94 3.0263-61.585 1.6193zm46.074-37.849c51.404-5.1999 100.58-29.251 136.05-66.545 30.892-32.477 50.113-71.157 57.911-116.54 2.6378-15.352 2.6608-50.942 0.0429-66.542-8.2433-49.123-29.434-89.631-64.735-123.75-31.955-30.885-69.576-49.746-116.46-58.386-14.533-2.678-54.615-2.678-69.148 0-49.47 9.1161-89.134 29.924-122.13 64.067-32.079 33.197-51.257 71.533-59.067 118.07-2.6178 15.6-2.5949 51.19 0.0429 66.542 10.734 62.471 44.775 114.76 96.877 148.81 41.168 26.903 91.707 39.222 140.61 34.275zm-95.17-114.55c-9.7712-7.0922-18.219-13.348-18.772-13.901-1.4416-1.4416 24.247-32.493 50.304-60.806l10.636-11.557-4.0976-0.72481c-4.7828-0.84601-33.255-6.927-47.315-10.105-11.244-2.5418-39.761-9.7779-40.178-10.195-0.15531-0.1553 3.5958-12.244 8.3359-26.863l8.6182-26.581 10.532 3.7387c19.154 6.7999 45.962 17.805 61.62 25.296l15.434 7.3839-0.55942-3.4514c-1.8587-11.468-7.0791-73.533-7.0791-84.164v-6.263h27.178 27.178l-0.69382 14.316c-0.70606 14.568-3.858 47.491-6.4649 67.527-0.79248 6.091-1.1131 11.074-0.71253 11.074 0.4006 0 6.7575-2.8497 14.126-6.3327 17.123-8.0931 37.153-16.22 57.822-23.459l16.333-5.7204 6.8188 20.727c4.2615 12.954 6.9919 23.187 7.2805 27.285l0.46174 6.5581-13.349 3.94c-23.975 7.0764-45.967 11.893-68.162 14.929l-9.4344 1.2904 10.541 10.373c11.731 11.545 29.491 31.271 44.307 49.214l9.7682 11.829-6.1266 4.4432c-30.889 22.402-32.202 23.219-37.305 23.219-4.7851 0-5.0266-0.1677-9.7244-6.7527-6.6896-9.377-23.051-35.11-34.005-53.482-5.0488-8.468-9.4648-15.394-9.8132-15.392-0.34844 0.002-2.2058 3.0409-4.1276 6.7527-7.0019 13.524-23.476 41.657-32.264 55.098l-9.007 13.776-5.1685-0.063c-4.8521-0.059-6.2559-0.8523-22.934-12.958z"/>
	</g>
</svg>
