<svg xmlns:rdf="http://www.w3.org/1999/02/22-rdf-syntax-ns#" xmlns="http://www.w3.org/2000/svg" height="512" width="512" version="1.1" xmlns:cc="http://creativecommons.org/ns#" xmlns:dc="http://purl.org/dc/elements/1.1/" viewBox="0 0 512.00001 512.00001">
	<g transform="translate(0 -540.36)">
		<path d="m8.027 1018.3-8.027-8 0.13233-215.34l0.13232-215.34 12.907-6.6417 12.907-6.6416 19.178 13.522c12.342 8.7019 19.382 13.356 19.751 13.055 0.315-0.2568 8.8519-6.2981 18.971-13.425l18.398-12.958h9.8856 9.8856l19.005 13.393 19.005 13.393 19.011-13.393 19.011-13.393h9.8707 9.8707l19.022 13.39 19.022 13.39 19.002-13.39 19.002-13.39h9.8868 9.8868l4.7062 3.317c2.5884 1.8244 11.149 7.851 19.023 13.393l14.317 10.076 18.999-13.392 18.999-13.393h9.9037 9.9036l15.775 11.117c8.6762 6.1144 17.223 12.147 18.994 13.406l3.219 2.2894 19.167-13.502 19.167-13.502 12.905 6.6405 12.905 6.6404 0.13695 159.77 0.1369 159.77-1.9805 4.8725-1.9805 4.8725-56.361 56.292-56.361 56.292-5.9096 2.4391-5.9095 2.4392h-183.72-183.72l-8.027-8.0395zm347.12-75.053c0.20359-43.858 0.29856-48.04 1.1513-50.698 3.0238-9.4253 9.0273-16.291 18.541-21.203l5.862-3.0268h48.524 48.524v-126.66-126.66l-10.041 7.0879-10.041 7.0879h-10.034-10.034l-18.347-12.91c-10.091-7.1005-18.705-13.047-19.143-13.216-0.50303-0.193-7.6949 4.5587-19.54 12.91l-18.744 13.216h-10.044-10.044l-18.68-13.168c-10.274-7.2427-18.91-13.168-19.19-13.168-0.28063 0-8.9106 5.9257-19.178 13.168l-18.668 13.168h-10.044-10.044l-18.689-13.168c-10.279-7.2427-18.912-13.168-19.184-13.168-0.27222 0-8.9051 5.9257-19.184 13.168l-18.689 13.168h-10.044-10.044l-18.668-13.168c-10.267-7.2427-18.893-13.168-19.169-13.168-0.27586 0-8.9108 5.9257-19.189 13.168l-18.687 13.168h-10.034-10.034l-10.041-7.0879-10.041-7.0879v188.02 188.02h160.34 160.34l0.22186-47.801zm67.691-42.144c-18.614-0.075-34.141-0.023-34.503 0.1152-0.51747 0.1977-0.65842 7.6139-0.65842 34.636v34.385l34.503-34.5 34.503-34.5-33.844-0.1365z"/>
	</g>
</svg>
