<?xml version="1.0" encoding="UTF-8" standalone="no"?>
<svg id="svg2" xmlns:rdf="http://www.w3.org/1999/02/22-rdf-syntax-ns#" xmlns="http://www.w3.org/2000/svg" height="512" width="512" version="1.1" xmlns:cc="http://creativecommons.org/ns#" xmlns:dc="http://purl.org/dc/elements/1.1/" viewBox="0 0 512.00001 512.00001">
	<g id="layer1" transform="translate(0,-540.36216)">
		<path id="path3503" d="m244 1013.8665c-33.95921-4.1357-66.42298-14.70789-94.50127-30.77536l-6.00127-3.43415-61.498729 16.92758c-38.449362 10.58323-63.288916 16.94273-66.275178 16.96793-9.3556134 0.079-16.8958583-8.5788-15.41557897-17.70072 0.31495756-1.94085 12.57716897-25.2325 27.24935797-51.75921 14.67219-26.52672 27.595751-49.89803 28.719024-51.93626l2.042316-3.70586-3.55246-7.79414c-12.304465-26.99613-17.933501-53.42661-17.952557-84.29413-0.03492-56.57126 21.622511-107.66687 63.155279-149 35.974166-35.80125 79.833236-57.84415 133.531066-67.1107 15.46374-2.66855 49.17576-3.65809 66.10469-1.94035 84.8863 8.61323 158.12366 58.20356 192.36786 130.25573 15.75156 33.1424 22.55829 71.48739 18.98309 106.93937-10.42489 103.37429-95.95542 185.36727-206.94951 198.39007-15.07318 1.7685-45.36354 1.7535-60.00613-0.03zm59.02379-161.08616c7.69272-4.04241 17.98675-12.89049 21.53335-18.50867 1.30272-2.06364 3.37258-6.59999 4.59968-10.08078 2.03994-5.78644 2.26568-8.57949 2.63455-32.59704l0.40343-26.26833-23.8474 0.26833-23.8474 0.26833v22.5 22.5l11.25 0.28275c12.88449 0.32383 12.83383 0.27416 8.89869 8.72453-2.61536 5.61626-7.04078 9.91251-14.56177 14.13675-2.79669 1.57078-5.08534 3.2516-5.0859 3.73515-0.002 1.66988 9.35612 18.62082 10.27995 18.62082 0.50961 0 3.99388-1.61183 7.74282-3.58184zm73.72546-0.46491c10.62433-5.89206 19.21696-14.34607 23.03292-22.66136 4.33297-9.4419 5.20159-16.45382 5.21028-42.05999l0.008-22.2681-23.75 0.2681-23.75 0.2681v22.5 22.5l11.25 0.28275c12.88449 0.32383 12.83383 0.27416 8.89869 8.72453-2.61536 5.61626-7.04078 9.91251-14.56177 14.13675-2.79669 1.57078-5.08534 3.23449-5.0859 3.69712-0.002 1.91339 9.29254 18.6578 10.35022 18.64563 0.63182-0.007 4.41092-1.82236 8.39801-4.03353zm-187.74925-63.45325v-22.5h-11.5c-12.84737 0-12.49039 0.26291-9.91314-7.30091 1.81328-5.32169 9.2181-12.7262 16.69154-16.69085l4.61904-2.4504-5.10501-9.52892c-2.80775-5.2409-5.22659-9.68334-5.3752-9.87208-0.14862-0.18873-3.34079 1.27221-7.09372 3.24654-14.84998 7.81222-23.37276 16.98441-27.50113 29.59662-1.8834 5.75379-2.18005 9.45613-2.58402 32.25l-0.45636 25.75h24.109 24.109v-22.5zm73 0v-22.5h-11.5c-12.8446 0-12.48965 0.26075-9.91822-7.286 1.92231-5.64166 7.15694-11.06229 15.18361-15.7231l6.0119-3.4909-5.0557-9.5c-2.78063-5.225-5.17244-9.65442-5.31513-9.84316-0.14269-0.18873-3.33002 1.27221-7.08295 3.24654-14.83958 7.80675-23.35155 16.96237-27.51596 29.59662-1.90683 5.78506-2.18989 9.33225-2.5735 32.25l-0.43101 25.75h24.09848 24.09848v-22.5z"/>
	</g>
</svg>
