<svg width="512" height="512" version="1.1" viewBox="0 0 512 512" xmlns="http://www.w3.org/2000/svg">
 <path d="m146.52 510.54c-23.731-6.5554-35.507-31.924-25.122-54.117 2.9224-6.245 6.4378-10.078 41.842-45.623 21.258-21.343 38.457-38.96 38.219-39.151-0.23792-0.19041-3.5826-1.1574-7.4326-2.1489-10.033-2.5839-29.795-9.8108-40.821-14.929-12.951-6.0108-29.627-15.885-33.999-20.131-20.845-20.245-11.992-55.815 16.048-64.475 12.395-3.8283 20.524-2.28 37.291 7.1021 13.472 7.5384 24.096 11.997 37.651 15.8 44.781 12.564 91.459 6.434 132.33-17.377 13.825-8.0543 24.585-9.3676 37.285-4.5511 8.0252 3.0437 16.809 11.34 20.75 19.598 7.1698 15.023 3.7467 32.999-8.4193 44.213-11.532 10.63-49.35 28.36-74.116 34.747-3.85 0.99299-7.2024 1.969-7.4498 2.1689-0.24741 0.19989 17.169 18.011 38.702 39.58 42.464 42.534 43.154 43.394 45.282 56.396 2.7096 16.558-8.0325 35.266-23.788 41.427-8.0806 3.16-20.427 3.1368-28.747-0.054-5.6005-2.1479-8.6468-4.9377-45.75-41.898l-39.75-39.597-39.25 39.06c-40.71 40.512-42.369 41.901-52.959 44.344-5.6303 1.2987-12.219 1.1563-17.797-0.3847zm86.506-248.51c-43.626-7.7392-81.158-37.445-98.244-77.76-14.046-33.14-14.612-68.842-1.6044-101.11 24.266-60.192 88.521-93.982 151.61-79.726 49.669 11.223 88.187 49.995 99.874 100.53 2.8835 12.469 3.5957 36.635 1.4441 49-3.344 19.217-9.5724 35.115-19.98 50.999-28.782 43.928-81.974 67.132-133.1 58.063zm34-76.573c24.717-5.2125 43.5-28.034 43.5-52.855 0-15.079-5.5806-28.424-16.4-39.217-21.642-21.59-55.424-21.55-77.066 0.0922-10.37 10.37-15.604 23.12-15.596 37.991 9e-3 15.757 5.1058 28.5 15.596 38.991 13.47 13.47 31.52 18.888 49.966 14.998z"/>
</svg>
