<svg xmlns:rdf="http://www.w3.org/1999/02/22-rdf-syntax-ns#" xmlns="http://www.w3.org/2000/svg" height="512" width="512" version="1.1" xmlns:cc="http://creativecommons.org/ns#" xmlns:dc="http://purl.org/dc/elements/1.1/" viewBox="0 0 512.00001 512.00001">
	<g transform="translate(0 -540.36)">
		<path d="m48.249 1052c-8.7485-1.5841-15.922-8.834-17.435-17.622-0.3497-2.0307-0.38282-26.417-0.32471-239.09l0.0647-236.83 0.57214-2.0155c2.1538-7.5875 8.1852-13.553 15.742-15.57l2.0781-0.5546h126.98 126.98l2.1024 0.5608c2.6102 0.6962 5.3501 1.997 7.1702 3.4041 2.6633 2.0589 164.04 155.1 165.25 156.72 1.3727 1.8296 2.9778 5.1293 3.6422 7.4876 0.44506 1.5797 0.46141 7.3699 0.46141 163.51v161.87l-0.56977 2.138c-2.003 7.5157-7.9744 13.52-15.61 15.695l-1.9599 0.5585-206.59 0.041c-176.55 0.035-206.88-0.011-208.55-0.3134zm389.81-185.47-0.0151-143.29-73.489-70.221-73.489-70.221-109.03-0.01-109.03-0.01v213.52 213.52h182.53 182.53l-0.0154-143.29zm-192.34 31.256c-14.148-0.928-26.939-5.3861-36.374-12.678-7.1619-5.5351-12.434-12.168-16.918-21.286-4.3341-8.8127-6.5839-16.752-8.1031-28.596-0.50137-3.9085-0.53969-5.5658-0.64091-27.714-0.11241-24.599-0.0134-28.252 0.96564-35.631 2.9777-22.442 12.724-39.797 28.064-49.975 7.4361-4.9336 16.826-8.2523 27.621-9.7624 3.8815-0.543 14.327-0.7681 18.504-0.3988 17.462 1.5439 31.026 7.5008 41.188 18.088 8.966 9.3413 15.141 22.617 17.734 38.124 1.4357 8.5876 1.4748 9.4213 1.5906 33.886 0.11211 23.691-0.003 27.873-0.96056 35.398-1.7939 14.074-6.3373 26.528-13.162 36.078-10.351 14.486-26.051 22.652-46.86 24.373-2.9588 0.2447-9.5919 0.2937-12.646 0.093zm11.41-27.809c12.85-1.4118 20.813-6.8196 26.13-17.745 3.2333-6.6445 4.9992-14.36 5.6796-24.816 0.44219-6.7957 0.17838-46.252-0.33606-50.263-1.3971-10.892-3.6986-18.029-7.922-24.564-1.7687-2.7369-5.8452-6.8024-8.4261-8.4033-3.7319-2.3148-9.1761-4.0698-14.582-4.7009-3.4884-0.4073-11.637-0.2036-14.851 0.3711-3.1293 0.5597-7.9565 2.1683-10.33 3.4424-8.5499 4.5903-14.402 13.818-16.999 26.802-1.4882 7.4423-1.5194 8.1557-1.5179 34.767 0.001 21.63 0.051 24.818 0.43348 27.737 1.6907 12.906 5.3277 22.158 11.098 28.233 5.1265 5.397 11.045 7.974 21.22 9.2395 1.7089 0.2126 8.1213 0.1514 10.403-0.099z"/>
	</g>
</svg>
