<svg xmlns:rdf="http://www.w3.org/1999/02/22-rdf-syntax-ns#" xmlns="http://www.w3.org/2000/svg" height="512" width="512" version="1.1" xmlns:cc="http://creativecommons.org/ns#" xmlns:dc="http://purl.org/dc/elements/1.1/" viewBox="0 0 512.00001 512.00001">
	<g transform="translate(0 -540.36)">
		<path d="m240.04 1051.9c-56.308-3.4356-110.93-26.098-153.2-63.566-6.9894-6.1944-18.885-18.146-24.298-24.412-32.632-37.775-53.559-83.953-60.267-132.99-2.8276-20.67-2.8276-48.484 0-69.154 10.178-74.399 52.62-140.52 116.48-181.46 17.628-11.302 38.513-21.11 59.179-27.79 50.077-16.188 106.06-16.188 156.13 0 60.384 19.52 111.43 60.614 143.3 115.36 16.873 28.983 27.827 60.766 32.358 93.89 2.8277 20.67 2.8277 48.485 0 69.154-6.7048 49.012-27.723 95.398-60.26 132.99-9.0028 10.401-24.485 25.163-35.211 33.574-49.84 39.079-111.22 58.249-174.22 54.405zm29.533-36.129c69.503-4.4805 131.56-40.547 170.22-98.928 18.613-28.109 29.869-58.929 34.678-94.954 0.72676-5.445 0.923-10.874 0.923-25.534 0-19.471-0.34662-24.026-2.935-38.567-12.325-69.236-57.861-129.11-121.36-159.57-55.291-26.522-119.31-28.811-175.96-6.2922-73.622 29.265-126.35 96.499-136.95 174.64-2.5717 18.95-2.5717 40.63 0 59.579 7.8844 58.096 39.066 110.9 86.415 146.35 10.894 8.155 21.035 14.39 33.614 20.666 34.669 17.297 73.013 25.083 111.35 22.612zm-46.82-153.95c-1.1703-0.3856-2.7263-1.0094-3.4577-1.3862-2.1922-1.1295-46.253-45.322-47.501-47.643-3.4415-6.4006-3.3407-12.472 0.30682-18.48 4.4617-7.3499 13.585-10.383 21.926-7.2892 2.9594 1.0976 4.3146 2.2998 18.619 16.518l15.427 15.335 42.823-42.778c48.541-48.49 45.333-45.758 53.728-45.758 5.4102 0 8.9987 1.4207 12.686 5.0227 3.6147 3.5305 5.1341 7.318 5.1341 12.798 0 7.9735 3.3429 4.1582-53.137 60.646-40.721 40.726-50.824 50.562-53.229 51.819-2.3775 1.2428-3.7862 1.5858-7.0822 1.7247-2.4493 0.1033-4.9755-0.1102-6.2422-0.5274z"/>
	</g>
</svg>
