<svg width="512" height="512" version="1.1" viewBox="0 0 512 512" xmlns="http://www.w3.org/2000/svg">
	<g transform="translate(0 -161.53)">
		<path d="m164.59 614.05c-2.1303-0.44753-5.6324-1.5999-7.7824-2.5608-2.3727-1.0604-31.259-25.415-73.493-61.963-38.271-33.119-71.357-61.917-73.525-63.997-2.1672-2.0796-5.2573-6.4503-6.8669-9.7127-2.637-5.3449-2.9265-6.7488-2.9265-14.192 0-7.0308 0.36243-9.033 2.4358-13.456 3.1075-6.6289 8.5395-12.516 14.696-15.927 4.4919-2.4885 5.5371-2.6825 14.456-2.6825 9.0131 0 9.9111 0.17156 14.376 2.7467 2.6192 1.5107 31.162 25.613 63.428 53.562 32.266 27.948 58.772 50.815 58.903 50.815 0.33368 0 37.21-38.65 62.915-65.941 18.63-19.78 36.322-38.759 95.143-102.07 51.355-55.273 90.828-96.901 122.23-128.9 15.201-15.491 19.451-18.325 28.736-19.167 24.685-2.2384 42.397 24.341 31.305 46.977-2.1402 4.3674-6.7556 9.7333-21.288 24.749-34.266 35.407-82.627 86.821-132.48 140.84-9.7833 10.601-25.672 27.721-35.307 38.045s-26.737 28.658-38.003 40.743c-11.266 12.086-36.541 38.77-56.166 59.298-31.644 33.099-36.314 37.632-41.261 40.043-6.1758 3.0111-13.414 4.0293-19.522 2.7461z" stroke-width=".91558"/>
	</g>
</svg>
