<?xml version="1.0" encoding="UTF-8" standalone="no"?>
<svg id="svg2" xmlns:rdf="http://www.w3.org/1999/02/22-rdf-syntax-ns#" xmlns="http://www.w3.org/2000/svg" height="512" width="512" version="1.1" xmlns:cc="http://creativecommons.org/ns#" xmlns:dc="http://purl.org/dc/elements/1.1/" viewBox="0 0 512.00001 512.00001">
	<g id="layer1" transform="translate(0,-540.36216)">
		<g id="g4284" transform="matrix(1.2320116,0,0,1.2320116,-6.160058e-4,535.02546)">
			<g id="g4244">
				<path id="path4246" d="m411.47 96.426-46.319-46.32c-5.482-5.482-14.371-5.482-19.853 0l-192.95 192.952-82.066-82.064c-5.48-5.482-14.37-5.482-19.851 0l-46.319 46.32c-5.482 5.481-5.482 14.37 0 19.852l138.311 138.31c2.741 2.742 6.334 4.112 9.926 4.112 3.593 0 7.186-1.37 9.926-4.112l249.195-249.199c2.633-2.632 4.111-6.203 4.111-9.925 0.001-3.724-1.478-7.293-4.111-9.926z"/>
			</g>
		</g>
	</g>
</svg>
