<?xml version="1.0" encoding="UTF-8" standalone="no"?>
<svg id="svg2" xmlns:rdf="http://www.w3.org/1999/02/22-rdf-syntax-ns#" xmlns="http://www.w3.org/2000/svg" height="512" width="512" version="1.1" xmlns:cc="http://creativecommons.org/ns#" xmlns:dc="http://purl.org/dc/elements/1.1/" viewBox="0 0 512.00001 512.00001">
	<g id="layer1" transform="translate(0,-540.36216)">
		<g id="g3740" transform="translate(0,539.29916)">
			<g id="g3700">
				<path id="path3702" d="m48 256c0 55.563 21.656 107.813 61 147.125l-33.938 33.938c-48.406-48.375-75.062-112.688-75.062-181.063s26.625-132.687 75-181l33.938 33.938c-39.313 39.25-60.938 91.5-60.938 147.062zm388.938-181.062-33.938 33.937c39.344 39.313 61 91.563 61 147.125s-21.625 107.813-60.906 147.125l33.938 33.938c48.343-48.375 74.968-112.688 74.968-181.063 0-68.438-26.656-132.75-75.062-181.062zm-254.5 107.5l-33.938-33.938c-28.687 28.75-44.5 66.938-44.5 107.5 0 40.625 15.813 78.813 44.563 107.5l33.938-33.938c-19.688-19.624-30.501-45.75-30.501-73.562 0-27.75 10.813-53.875 30.438-73.562zm181-33.938-33.938 33.938c19.656 19.687 30.5 45.812 30.5 73.562 0 27.813-10.812 53.938-30.438 73.563l33.938 33.937c28.688-28.688 44.5-66.875 44.5-107.5s-15.812-78.75-44.562-107.5zm-107.438 59.5c-26.5 0-48 21.5-48 48 0 26.563 21.5 48 48 48 26.531 0 48-21.438 48-48 0-26.5-21.469-48-48-48z"/>
			</g>
		</g>
	</g>
</svg>
