<svg xmlns:inkscape="http://www.inkscape.org/namespaces/inkscape" xmlns:rdf="http://www.w3.org/1999/02/22-rdf-syntax-ns#" xmlns="http://www.w3.org/2000/svg" sodipodi:docname="paper-stroke.svg" height="512" width="512" version="1.1" xmlns:cc="http://creativecommons.org/ns#" xmlns:dc="http://purl.org/dc/elements/1.1/" inkscape:version="0.91 r13725" viewBox="0 0 512.00001 512.00001" xmlns:sodipodi="http://sodipodi.sourceforge.net/DTD/sodipodi-0.dtd">
	<sodipodi:namedview bordercolor="#666666" inkscape:pageshadow="2" inkscape:window-y="-8" pagecolor="#ffffff" inkscape:window-height="1017" inkscape:window-maximized="1" inkscape:zoom="0.35" inkscape:window-x="-8" showgrid="false" borderopacity="1.0" inkscape:current-layer="layer1" inkscape:cx="-126.42857" inkscape:cy="748.57143" units="px" inkscape:window-width="1920" inkscape:pageopacity="0.0" inkscape:document-units="px"/>
	<g inkscape:label="Layer 1" inkscape:groupmode="layer" transform="translate(0 -540.36)">
		<path inkscape:connector-curvature="0" d="m51.442 1052.1c-0.231-0.3-0.419-109.56-0.419-242.93v-242.48h35.436c27.798 0 35.49-0.16889 35.686-0.78355 0.13732-0.43095 1.4376-6.3546 2.8895-13.164l2.6398-12.38h128.4 128.4l0.32637 1.4104c0.17951 0.77572 1.3127 6.0647 2.5183 11.753 1.2056 5.6886 2.3388 10.978 2.5183 11.753l0.32637 1.4104h35.405 35.405l-0.15753 242.74-0.15746 242.74-204.4 0.1576c-112.42 0.087-204.59-0.031-204.82-0.2612zm387.59-242.48v-220.96h-21.939c-14.798 0-21.939 0.21262-21.939 0.65317 0 0.71255 9.2537 44.103 9.7866 45.89 0.31105 1.0426-7.0741 1.097-148.94 1.097-141.88 0-149.26-0.0543-148.93-1.097 0.62401-2.0207 9.7752-44.766 9.7752-45.66 0-0.74179-3.4954-0.88237-21.939-0.88237h-21.939v220.96 220.96h183.04 183.04v-220.96zm-324.7 90.265v-49.834h47.005 47.005v49.834 49.834h-47.005-47.005v-49.834zm72.086 0v-28.521h-25.074-25.074v28.521 28.521h25.074 25.074v-28.521zm62.057 0v-10.97h68.952 68.952v10.97 10.97h-68.952-68.952v-10.97zm-134.14-145.74v-50.151h47.006 47.006l-0.15022 49.99-0.15021 49.99-46.856 0.1607-46.856 0.1607v-50.151zm72.086-0.004v-28.208h-25.074-25.074v28.208 28.208h25.074 25.074v-28.208zm62.057-0.31342v-10.97h68.952 68.952v10.97 10.97h-68.952-68.952v-10.97zm130.35-140.28c-0.0127-0.43095-2.6238-12.067-5.8026-25.857l-5.7795-25.074-111.06-0.15844c-105.37-0.15032-111.08-0.10215-111.4 0.94026-0.50785 1.6549-10.405 49.444-10.405 50.241 0 0.50172 33.545 0.69148 122.23 0.69148 97.381 0 122.23-0.15931 122.21-0.78355z"/>
	</g>
</svg>
