<svg xmlns:rdf="http://www.w3.org/1999/02/22-rdf-syntax-ns#" xmlns="http://www.w3.org/2000/svg" height="512" width="512" version="1.1" xmlns:cc="http://creativecommons.org/ns#" xmlns:dc="http://purl.org/dc/elements/1.1/" viewBox="0 0 512.00001 512.00001">
	<g transform="translate(0 -540.36)">
		<path d="m200.48 988.59c-13.474-1.4162-25.67-6.4415-33.871-13.956-1.3138-1.2039-29.421-32.311-62.46-69.128l-60.077-66.94-22.037-10.91-22.036-10.9v-87.938-87.938l17.097-0.1941c11.346-0.1289 19.25-0.3926 23.497-0.7839 30.829-2.8404 55.455-9.58 84.323-23.077 11.412-5.3358 14.939-6.8343 20.23-8.5952 9.5309-3.172 15.198-3.6864 41.549-3.7722 19.162-0.062 24.454 0.2665 31.634 1.9658 8.9102 2.1088 19.2 6.5538 31.329 13.533 1.7345 0.9981 3.2648 1.8147 3.4008 1.8147 0.13601 0 2.0461-1.0849 4.2447-2.4108 12.684-7.6496 25.135-12.229 39.366-14.478 4.2416-0.6704 6.907-0.7886 20.951-0.9284 18.581-0.1851 34.576 0.2959 39.68 1.1933 6.725 1.1824 14.149 3.7674 24.137 8.4049 2.9166 1.3541 7.7714 3.6057 10.789 5.0035 22.833 10.578 48.218 17.807 72.229 20.569 9.8662 1.135 14.012 1.3446 30.629 1.5489l16.914 0.208v88.731 88.731l-32.457 10.873-32.457 10.873-34.926 17.598c-19.209 9.6789-35.071 17.735-35.248 17.902-0.17711 0.1669-1.1826 2.9068-2.2344 6.0888-3.1496 9.5285-7.1861 16.772-12.485 22.405-2.279 2.4227-4.9174 4.4267-14.892 11.312-22.832 15.76-35.913 24.642-56.557 38.403-21.807 14.536-32.674 21.463-38.4 24.476-8.9054 4.6863-20.597 8.2974-31.634 9.7702-5.2353 0.6987-15.981 0.9838-20.233 0.5369zm17.071-37.102c6.9218-1.2322 15.776-4.3038 20.318-7.0487 3.4468-2.083 8.2616-5.2467 8.2616-5.4284 0-0.09-5.1828-7.1149-11.517-15.611-6.3346-8.4963-11.519-15.55-11.52-15.676-0.004-0.3526 28.86-21.349 29.349-21.349 0.33457 0 23.102 30.186 24.36 32.298 0.31745 0.5328 0.48282 0.4259 15.317-9.8971 4.8777-3.3944 8.8686-6.2455 8.8686-6.3357 0-0.09-5.1828-7.1155-11.517-15.612-6.3346-8.4962-11.519-15.55-11.52-15.676-0.004-0.3539 28.861-21.349 29.352-21.349 0.23917 0 5.6224 7.0317 11.963 15.626 6.3404 8.5943 11.712 15.805 11.936 16.024 0.98589 0.9618 4.9676-3.1985 7.9794-8.3375 2.9662-5.061 4.5073-12.35 3.8445-18.183-0.7033-6.1897-2.9825-11.364-7.377-16.746-1.3525-1.6567-17.616-21.651-36.142-44.432-23.724-29.174-33.824-41.338-34.162-41.143-0.26367 0.1525-8.2382 6.6954-17.721 14.54-9.483 7.8446-18.594 15.216-20.247 16.382-3.6206 2.5522-10.146 5.92-14.891 7.6853-21.602 8.0365-46.98 5.4072-69.889-7.2412-5.5089-3.0415-12.511-7.7518-17.821-11.989-4.2736-3.4097-14.873-13.755-20.946-20.443l-2.5482-2.8066 5.9566-4.8646c11.324-9.2477 109.83-90.996 112.63-93.466 1.5434-1.3635 2.8114-2.5612 2.8177-2.6618 0.0223-0.3542-11.864-5.8264-13.67-6.293-1.4072-0.3638-6.5758-0.4557-22.428-0.399-17.867 0.064-20.875 0.1534-22.674 0.6742-1.1409 0.3302-9.0687 3.4006-17.617 6.8231-27.658 11.073-32.946 13.009-44.399 16.251-18.311 5.1843-41.319 9.1235-61.75 10.572l-3.5657 0.2529v59.201 59.201l14.912 7.4575 14.912 7.4576 2.2545 2.6918c1.24 1.4806 29.462 32.808 62.716 69.615 58.386 64.626 60.543 66.964 62.834 68.114 2.5284 1.2682 5.5367 2.1336 9.2368 2.657 2.996 0.4238 10.275 0.1479 14.111-0.535zm186.72-130.83 28.195-14.113 21.394-7.1183 21.394-7.1182 0.0925-58.316 0.0926-58.316-7.224-0.642c-28.575-2.5396-54.415-8.2653-77.441-17.159-1.8103-0.6992-11.767-4.6441-22.126-8.7665-10.359-4.1223-19.41-7.6733-20.114-7.8911-0.72309-0.2238-7.5653-0.5612-15.726-0.7756-20.515-0.5388-30.031 0.021-38.034 2.2358-14.27 3.9502-29.611 14.279-48.823 32.873-3.2037 3.1006-20.621 17.796-46.537 39.265-22.779 18.87-41.417 34.425-41.417 34.566 0 0.6604 5.1566 3.9291 8.6882 5.5072 10.528 4.7047 19.154 5.9208 27.379 3.8601 3.9952-1.0009 10.669-4.098 13.548-6.2866 0.97229-0.7393 13.123-10.582 27.002-21.872 31.366-25.515 36.271-29.451 36.7-29.451 0.18821 0 2.2856 2.4274 4.6608 5.3943 2.3752 2.9668 22.267 27.447 44.203 54.4 42.333 52.014 42.533 52.261 45.805 56.503 2.7651 3.5842 6.1434 9.5365 7.946 14 0.79261 1.9628 1.5996 3.5159 1.7932 3.4513 0.19357-0.065 13.04-6.4683 28.547-14.231z"/>
	</g>
</svg>
