<?xml version="1.0" encoding="UTF-8"?>
<svg width="512" height="512" version="1.1" viewBox="0 0 512 512" xmlns="http://www.w3.org/2000/svg">
 <path d="m14.822 510.87c-5.9245-1.471-9.7897-4.3512-12.408-9.2465-1.5415-2.8817-1.8021-3.9193-1.8198-7.2455-0.01138-2.1352 0.29279-4.8374 0.67594-6.005 1.0619-3.2357 4.0348-6.8481 7.3708-8.9563 5.9679-3.7715-16.629-3.4548 246.54-3.4548 262.76 0 240.56-0.30392 246.41 3.3745 4.5669 2.8729 6.8111 6.0485 7.9915 11.308 0.81692 3.64 0.13389 7.9417-1.8344 11.553-1.6332 2.9966-6.0991 6.6719-9.7629 8.0345l-3.1519 1.1722-238.55 0.0954c-204.69 0.0819-238.96-8e-3 -241.47-0.62959zm2.5101-41.822c-8.3964-1.8729-13.408-6.7053-15.162-14.619-0.73617-3.3223-0.73913-4.183-0.02518-7.3077 1.6066-7.0315 45.334-149.46 46.726-152.2 1.2419-2.4407 20.964-20.796 151.94-141.41 82.78-76.235 152.13-139.84 154.11-141.34 6.561-4.9751 13.99-8.5481 21.979-10.57 3.6318-0.91932 5.8712-1.1012 13.758-1.1173 8.5545-0.0175 9.9545 0.11024 15.238 1.3904 9.7599 2.3648 19.243 6.5334 26.32 11.57 4.4607 3.1745 64.662 59.049 67.841 62.965 3.6487 4.4946 7.8876 12.399 9.845 18.359 1.4304 4.355 1.5072 5.124 1.5021 15.044-6e-3 11.667-0.53395 14.404-4.3364 22.48-4.6084 9.787-1.8403 7.0635-86.517 85.122-43.053 39.688-111.4 102.73-151.89 140.09-59.28 54.706-74.148 68.169-76.379 69.161-1.5238 0.67722-39.195 10.67-83.713 22.206-87.792 22.75-83.741 21.853-91.242 20.18zm80.618-58.115c23.695-6.1301 43.082-11.276 43.082-11.435 0-0.47172-62.551-57.888-62.788-57.634-0.1196 0.12809-5.6483 18.018-12.286 39.755-6.6377 21.737-12.203 39.849-12.368 40.248-0.19451 0.47077-0.02264 0.63556 0.48889 0.46877 0.43386-0.14147 20.176-5.2727 43.871-11.403zm260.55-269.02c-23.147-21.304-42.305-38.667-42.573-38.584-0.26862 0.0824-49.448 45.233-109.29 100.33l-108.8 100.19 84.478 77.793 218.27-200.99zm109.58-25.201c0.97835-1.9878 1.2643-3.4915 1.2643-6.6485 0-7.6342 1.7788-5.6087-33.736-38.414-22.984-21.23-32.408-29.608-34.42-30.597-2.472-1.2153-3.3676-1.362-8.3117-1.362-8.4066 0-8.4996 0.0598-28.437 18.293-9.2402 8.4502-17.06 15.797-17.377 16.327-0.50449 0.84304 4.6586 5.781 41.456 39.649l42.032 38.686 18.132-16.681c14.426-13.272 18.39-17.206 19.396-19.25z" stroke-width=".53158"/>
</svg>
