<svg xmlns:rdf="http://www.w3.org/1999/02/22-rdf-syntax-ns#" xmlns="http://www.w3.org/2000/svg" height="512" width="512" version="1.1" xmlns:cc="http://creativecommons.org/ns#" xmlns:dc="http://purl.org/dc/elements/1.1/" viewBox="0 0 512.00001 512.00001">
	<g transform="translate(0 -540.36)">
		<path d="m15.543 1051.5c-8.4301-2.0433-13.462-7.315-15.223-15.948-0.73913-3.6243-0.74209-4.5634-0.0253-7.9722 1.6132-7.7 45.516-163.03 46.913-166.02 1.2469-2.6627 21.048-22.688 152.55-154.27 83.112-83.168 152.74-152.56 154.73-154.2 6.5873-5.4276 14.046-9.3255 22.067-11.532 3.6464-1.0029 5.8948-1.2014 13.813-1.2189 8.5888-0.019 9.9944 0.1202 15.299 1.5168 9.7991 2.5798 19.32 7.1275 26.426 12.622 4.4786 3.4631 64.921 64.419 68.113 68.691 3.7345 4.9986 7.9927 13.686 9.7502 19.891 3.8032 13.429 2.8211 28.306-2.7115 41.073-4.6269 10.677-1.8477 7.7058-86.864 92.863-43.225 43.297-111.85 112.07-152.5 152.83-59.517 59.681-74.445 74.368-76.686 75.45-1.5299 0.7389-39.352 11.64-84.049 24.225-88.144 24.818-84.076 23.841-91.608 22.015zm80.941-63.4c23.79-6.6875 43.255-12.301 43.255-12.474 0-0.5147-62.801-63.152-63.04-62.875-0.12007 0.1397-5.6709 19.656-12.335 43.37-6.6643 23.714-12.252 43.472-12.418 43.908-0.19528 0.5136-0.0228 0.6933 0.49085 0.5114 0.4356-0.1544 20.257-5.7522 44.047-12.44zm261.59-293.44c-23.24-23.241-42.474-42.183-42.744-42.093-0.26969 0.09-49.646 49.347-109.73 109.46l-109.24 109.3 42.409 42.433 42.409 42.434 109.57-109.64 109.57-109.64-42.254-42.257zm110.02-27.492c0.98227-2.1686 1.2694-3.809 1.2694-7.2531 0-8.3284 1.786-6.1187-33.871-41.908-23.076-23.161-32.538-32.3-34.558-33.38-2.482-1.3258-3.3811-1.4859-8.345-1.4859-8.4404 0-8.5336 0.065-28.551 19.956-9.2772 9.2186-17.128 17.234-17.446 17.812-0.50652 0.9197 4.6773 6.3067 41.622 43.254l42.201 42.204 18.205-18.198c14.484-14.479 18.464-18.771 19.474-21.001z"/>
	</g>
</svg>
