<svg xmlns:rdf="http://www.w3.org/1999/02/22-rdf-syntax-ns#" xmlns="http://www.w3.org/2000/svg" height="512" width="512" version="1.1" xmlns:cc="http://creativecommons.org/ns#" xmlns:dc="http://purl.org/dc/elements/1.1/" viewBox="0 0 512.00001 512.00001">
	<g transform="translate(0 -540.36)">
		<path d="m67.937 1051.7c-34.613-4.7344-62.058-32.101-67.317-67.124-0.81022-5.3958-0.81022-370.09 0-375.48 4.693-31.253 26.372-56.428 56.364-65.454 11.8-3.5511-3.8131-3.2928 199.02-3.2928s187.22-0.25832 199.02 3.2928c30.049 9.043 51.662 34.142 56.363 65.454 0.81023 5.3957 0.81023 370.09 0 375.48-4.4772 29.816-24.795 54.256-52.91 63.645-13.156 4.3936 7.184 3.9778-200.34 4.0957-153.15 0.087-185.82-0.019-190.19-0.6165zm374.04-40.296c17.125-5.0686 28.892-19.154 29.914-35.807l0.29603-4.8242-46.42-68.876c-25.531-37.882-46.589-69.056-46.795-69.276-0.20597-0.2202-16.286 23.238-35.733 52.129s-36.356 53.541-37.574 54.778c-7.5049 7.6199-20.317 7.6043-27.807-0.034-1.293-1.3186-26.199-37.787-55.347-81.042-29.148-43.254-53.215-78.644-53.482-78.644-0.2669 0-29.451 42.977-64.853 95.504l-64.367 95.504 0.28811 4.8291c0.33143 5.5553 2.094 11.433 5.0227 16.75 2.8395 5.1546 10.442 12.473 15.881 15.288 3.7709 1.9517 9.4792 3.877 13.539 4.5665 0.73168 0.1243 82.986 0.1976 182.79 0.1631 172.16-0.06 181.62-0.1113 184.65-1.0079zm-345.67-195.92c30.76-45.657 56.856-84.102 57.99-85.432 6.9438-8.1484 20.625-8.6954 28.422-1.1363 1.1118 1.0777 26.016 37.578 55.342 81.112s53.508 79.09 53.738 79.015c0.22971-0.075 16.222-23.601 35.538-52.279s36.13-53.197 37.364-54.486c1.2449-1.3005 3.7828-3.0756 5.7022-3.9883 3.0708-1.4602 3.9962-1.6448 8.248-1.6448 4.2661 0 5.1758 0.1829 8.3286 1.6743 1.9466 0.9208 4.4609 2.6038 5.5874 3.7399 1.1264 1.1361 18.008 25.764 37.515 54.729s36.93 54.807 38.718 57.428l3.2513 4.7644-0.13878-143.38-0.13884-143.38-1.3928-4.0797c-2.2943-6.7205-4.9289-10.87-10.259-16.157-5.475-5.4311-10.454-8.3849-17.645-10.467l-4.2269-1.2239h-181.72c-174.84 0-181.88 0.0372-185.92 0.98284-12.948 3.035-24.043 13.196-28.74 26.319l-1.6558 4.6263-0.1388 143.37c-0.0763 78.854-0.0394 143.27 0.082 143.14 0.12145-0.1251 25.388-37.583 56.149-83.24z"/>
	</g>
</svg>
