<?xml version="1.0" encoding="UTF-8" standalone="no"?>
<svg xmlns:rdf="http://www.w3.org/1999/02/22-rdf-syntax-ns#" xmlns="http://www.w3.org/2000/svg" height="512" width="512" version="1.1" xmlns:cc="http://creativecommons.org/ns#" xmlns:dc="http://purl.org/dc/elements/1.1/" viewBox="0 0 512.00001 512.00001">
	<g transform="translate(0 -540.36)">
		<path d="m37.105 1050.8c-2.9675-0.798-7.6925-2.6749-10.5-4.1708-6.546-3.5-17.356-14.3-20.836-20.8-6.1427-11.5-5.769 3.3-5.769-229.44 0-232.75-0.37371-217.89 5.7695-229.42 3.4732-6.52 14.286-17.34 20.806-20.81 11.53-6.14-3.331-5.77 229.42-5.77s217.89-0.37371 229.43 5.7695c6.5191 3.4732 17.332 14.286 20.805 20.805 6.13 11.54 5.76-3.32 5.76 229.43s0.37371 217.89-5.7695 229.43c-3.4732 6.5191-14.286 17.332-20.805 20.805-11.537 6.1467 3.4137 5.7757-229.89 5.7037-182.87-0.056-213.8-0.2713-218.44-1.5167zm147.06-59.69c17.588-23.524 26.664-39.279 32.206-55.903 1.9531-5.8591 3.9939-13.284 4.5352-16.5 2.3523-13.976 5.2244-28.21 7.016-34.771 1.0628-3.892 2.4382-9.6248 3.0564-12.739l1.124-5.663 10.405 6.3091c12.098 7.3358 23.347 11.891 35.99 14.575 10.918 2.3174 16.128 2.3931 28.5 0.41392 16.125-2.5795 33.667-9.3308 45.629-17.561 8.9763-6.1759 24.114-18.85 29.328-24.554 14.651-16.031 24.724-36.798 30.244-62.358 3.0563-14.15 3.2882-45.146 0.45268-60.5-8.796-47.629-33.095-87.191-67.49-109.88-16.126-10.639-31.535-16.88-50.902-20.618-16.03-3.0934-43.764-2.8569-60.373 0.51495-49.697 10.089-88.18 37.018-113.71 79.575-8.6605 14.434-15.228 30.793-19.414 48.358-1.7704 7.4281-2.1648 12.192-2.1986 26.552-0.04742 20.155 1.6342 28.892 8.3649 43.46 9.2203 19.957 20.084 30.927 37.142 37.505 9.1786 3.5396 14.832 3.9082 17.346 1.1306 2.4556-2.7134 8.5871-21.368 8.5871-26.125 0-3.3974-0.46506-4.2831-3.0861-5.877-6.992-4.2521-16.507-20.513-19.365-33.094-9.3488-41.151 23.136-91.901 76.869-120.09 10.894-5.7155 19.837-9.1922 32.582-12.666 8.1705-2.2272 11.599-2.5984 24.5-2.6524 13.198-0.0553 15.841 0.21964 22 2.2883 36.519 12.266 52.983 46.421 51.234 106.29-0.97443 33.355-7.4049 57.346-20.424 76.197-7.9958 11.578-19.993 20.997-33.451 26.262-6.5225 2.5518-8.6104 2.8793-18.359 2.8793-9.5754 0-11.583-0.30246-15.5-2.3354-6.3139-3.2768-11.483-8.5801-14.188-14.557-2.0667-4.5659-2.2969-6.4857-2.1714-18.107 0.1482-13.724-0.27498-11.687 8.9331-43 5.9938-20.382 7.8364-39.568 4.9019-51.04-1.9171-7.4942-7.6552-16.007-13.375-19.843-3.8497-2.5816-5.2932-2.9505-11.546-2.9505-8.5158 0-15.301 2.713-24.513 9.8014-10.285 7.9141-16.564 16.975-20.998 30.304-6.6745 20.06-6.4988 39.009 0.43051 46.434l2.5254 2.7058-2.5034 6.7942c-12.253 33.253-21.503 66.878-28.914 105.1-7.9951 41.235-8.082 41.926-8.082 64.198 0 22.506 0.2197 23.656 7.7897 40.749 3.0361 6.8555 3.3869 7.249 6.4649 7.25 2.9977 0 3.9777-0.9661 12.413-12.249zm-57.17-301.69c0-0.51754 0.44485-1.2159 0.98855-1.5519 0.56686-0.35034 0.7345 0.0511 0.39301 0.94098-0.66 1.73-1.38 2.05-1.38 0.61z"/>
	</g>
</svg>
