<svg xmlns:inkscape="http://www.inkscape.org/namespaces/inkscape" xmlns:rdf="http://www.w3.org/1999/02/22-rdf-syntax-ns#" xmlns="http://www.w3.org/2000/svg" sodipodi:docname="plus-stroke.svg" height="512" width="512" version="1.1" xmlns:cc="http://creativecommons.org/ns#" xmlns:dc="http://purl.org/dc/elements/1.1/" inkscape:version="0.91 r13725" viewBox="0 0 512.00001 512.00001" xmlns:sodipodi="http://sodipodi.sourceforge.net/DTD/sodipodi-0.dtd">
	<sodipodi:namedview bordercolor="#666666" inkscape:pageshadow="2" inkscape:window-y="-8" pagecolor="#ffffff" inkscape:window-height="1017" inkscape:window-maximized="1" inkscape:zoom="0.35" inkscape:window-x="-8" showgrid="false" borderopacity="1.0" inkscape:current-layer="layer1" inkscape:cx="-126.42857" inkscape:cy="520" units="px" inkscape:window-width="1920" inkscape:pageopacity="0.0" inkscape:document-units="px"/>
	<g inkscape:label="Layer 1" inkscape:groupmode="layer" transform="translate(0 -540.36)">
		<path inkscape:connector-curvature="0" d="m251.39 1051.4c-4.8175-1.5746-8.2268-4.2665-10.556-8.3343l-2.4999-4.3666-0.27215-112.23-0.27214-112.23h-110.95c-61.023 0-111.18 0.005-111.46 0.0114-1.5507 0.035-8.3231-3.4218-10.25-5.2321-3.3346-3.1327-5.6777-10.089-5.0285-14.928 0.73912-5.5106 4.7215-11.256 9.4191-13.588 3.7159-1.845 7.8786-1.9206 114.83-2.085 61.034-0.0938 111.53-0.20681 112.21-0.25107 0.96659-0.063 1.2933-24.419 1.5064-112.31 0.25168-103.79 0.40163-112.46 1.9936-115.37 7.1962-13.144 25.482-13.171 31.835-0.0466 2.085 4.3069 2.0947 4.8482 2.0947 115.99 0 88.613 0.2591 111.68 1.2553 111.74 0.69043 0.0465 50.063 0.0929 109.72 0.10314 63.362 0.0109 110.3 0.40892 112.88 0.95734 5.767 1.2257 9.7208 4.1294 12.176 8.9422 5.1178 10.032-0.0848 22.028-10.85 25.018-2.4646 0.68449-41.391 1.0392-114.46 1.0429l-110.72 0.006-0.0221 111.72c-0.021 106.26-0.11225 111.92-1.8667 115.74-2.2607 4.923-4.8405 7.305-9.8449 9.0898-4.0994 1.462-7.6256 1.6563-10.862 0.5983z"/>
	</g>
</svg>
