<?xml version="1.0" encoding="UTF-8" standalone="no"?>
<svg id="svg2" xmlns:rdf="http://www.w3.org/1999/02/22-rdf-syntax-ns#" xmlns="http://www.w3.org/2000/svg" height="512" width="512" version="1.1" xmlns:cc="http://creativecommons.org/ns#" xmlns:dc="http://purl.org/dc/elements/1.1/" viewBox="0 0 512.00001 512.00001">
	<g id="layer1" transform="translate(0,-540.36216)">
		<path id="path4211" d="m201.10686 1050.8711c-1.82863-0.9088-4.53222-3.2353-6.00796-5.1699l-2.68319-3.5175-0.26589-90.94869-0.26589-90.94872h-89.70225c-99.8352898 0-93.8044347 0.41422-99.3237159-6.82193l-2.6971291-3.53613v-53.7269-53.72691l2.6971291-3.53612c5.5193264-7.23621-0.5133384-6.82193 99.3392759-6.82193h89.71781v-89.71781c0-99.8526-0.41428-93.81994 6.82192-99.33927l3.53612-2.69713h53.72691 53.7269l3.53613 2.69713c7.2362 5.51933 6.82192-0.51333 6.82192 99.33927v89.71781h89.71781c99.8526 0 93.81995-0.41428 99.33927 6.82193l2.69713 3.53612v53.72691 53.7269l-2.69713 3.53613c-5.51932 7.23621 0.51333 6.82193-99.33927 6.82193h-89.71781v89.7178c0 99.85151 0.4142 93.81941-6.82113 99.33921l-3.53533 2.6972-52.64841 0.2415c-47.22665 0.2166-52.99084 0.071-55.97322-1.4109z"/>
	</g>
</svg>
