<svg xmlns:rdf="http://www.w3.org/1999/02/22-rdf-syntax-ns#" xmlns="http://www.w3.org/2000/svg" height="512" width="512" version="1.1" xmlns:cc="http://creativecommons.org/ns#" xmlns:dc="http://purl.org/dc/elements/1.1/" viewBox="0 0 512.00001 512.00001">
	<g transform="translate(0 -540.36)">
		<path d="m243.1 1052.1c-35.811-1.72-71.914-11.35-104.17-27.786-43.451-22.142-82.663-59.828-106.29-102.15-17.461-31.282-27.215-61.701-31.718-98.918-1.178-9.7366-1.3467-42.701-0.26557-51.9 4.2463-36.133 12.407-63.542 27.742-93.175 30.456-58.854 83.848-104.48 146.43-125.14 5.4078-1.7849 17.823-5.4168 19.93-5.8302 0.56817-0.1115 3.802-0.8049 7.1862-1.541 6.2164-1.352 14.174-2.8124 17.598-3.2294 1.0247-0.1249 3.7686-0.475 6.0976-0.7782 8.0324-1.0456 14.985-1.33 31.963-1.3075 18.921 0.025 24.441 0.4617 40.877 3.2333 28.582 4.8196 55.441 14.115 80.313 27.794 58.031 31.916 101.43 84.616 121.28 147.27 12.397 39.129 15.226 81.25 8.1692 121.63-4.544 26.003-12.551 49.824-24.592 73.16-39.246 76.062-112.98 127.1-198.37 137.32-5.1521 0.6164-7.7684 0.8507-12.509 1.12-9.2424 0.525-21.46 0.6159-29.685 0.2209zm26.491-40.128c19.957-1.1035 42.175-5.7904 61.583-12.991 50.831-18.858 93.701-57.337 118.04-105.95 10.406-20.782 17.586-43.766 20.718-66.321 1.3106-9.4385 1.4238-10.696 1.8804-20.893 2.0605-46.012-10.429-91.133-35.769-129.22-18.547-27.876-43.598-51.363-72.503-67.976-25.803-14.83-51.716-23.362-83.076-27.351-9.3886-1.1944-35.109-1.4458-45.15-0.4413-25.414 2.5423-49.851 9.3102-72.189 19.992-8.2259 3.9337-9.5344 4.6323-18.099 9.6631-33.229 19.519-62.657 50.61-80.699 85.259-14.157 27.188-21.958 54.705-24.227 85.454-1.056 14.313-0.15891 34.58 2.1794 49.239 10.528 66.002 51.403 123.65 110.55 155.92 27.82 15.178 60.735 24.443 91.205 25.674 4.538 0.1833 8.3088 0.3789 8.3796 0.4346 0.21375 0.1682 10.644-0.1299 17.171-0.4909zm-19.019-92.664c-5.3402-1.4382-10.183-5.536-12.771-10.806l-1.4795-3.0127-0.14486-44.581-0.14486-44.581h-41.908c-24.659 0-43.211-0.2166-45.074-0.5217-8.7607-1.4346-15.371-8.0246-16.789-16.738-1.5694-9.6431 4.4436-18.844 14.426-22.073 1.3899-0.4496 14-0.6541 45.513-0.7381l43.59-0.1159 0.26616-44.448c0.28478-47.559 0.1693-45.605 2.9602-50.07 1.8345-2.9348 6.3824-6.7217 9.4418-7.8618 12.144-4.5256 24.557 2.5243 26.985 15.326 0.33201 1.7507 0.53638 18.907 0.53638 45.026v42.198l43.921 0.058c42.672 0.056 44.002 0.088 46.792 1.1319 13.042 4.8796 17.198 21.603 7.9298 31.911-2.3241 2.5849-4.5425 4.0645-8.6814 5.7903-2.0855 0.8695-16.678 1.1279-63.744 1.1286l-26.216 0.0003-0.003 41.92c-0.002 24.256-0.21851 43.235-0.51432 45.041-1.921 11.73-13.396 19.116-24.889 16.02z"/>
	</g>
</svg>
