<svg xmlns:inkscape="http://www.inkscape.org/namespaces/inkscape" xmlns:rdf="http://www.w3.org/1999/02/22-rdf-syntax-ns#" xmlns="http://www.w3.org/2000/svg" sodipodi:docname="po.svg" height="512" width="512" version="1.1" xmlns:cc="http://creativecommons.org/ns#" xmlns:dc="http://purl.org/dc/elements/1.1/" inkscape:version="0.91 r13725" viewBox="0 0 512.00001 512.00001" xmlns:sodipodi="http://sodipodi.sourceforge.net/DTD/sodipodi-0.dtd">
	<sodipodi:namedview bordercolor="#666666" inkscape:pageshadow="2" inkscape:window-y="-8" pagecolor="#ffffff" inkscape:window-height="1017" inkscape:window-maximized="1" inkscape:zoom="0.35" inkscape:window-x="-8" showgrid="false" borderopacity="1.0" inkscape:current-layer="layer1" inkscape:cx="-126.42857" inkscape:cy="520" units="px" inkscape:window-width="1920" inkscape:pageopacity="0.0" inkscape:document-units="px"/>
	<g inkscape:label="Layer 1" inkscape:groupmode="layer" transform="translate(0 -540.36)">
		<path inkscape:connector-curvature="0" d="m46.612 1051.7c-6.0296-1.6262-11.431-6.1822-14.162-11.945l-1.6406-3.4619v-239.83-239.83l1.6573-3.4604c1.886-3.9378 5.4628-7.7933 9.1404-9.8524 5.542-3.103-2.6234-2.9245 133.76-2.9245 90.609 0 126.26 0.16589 128.41 0.59742 1.6361 0.32858 4.2999 1.3467 5.9195 2.2626 2.0625 1.1662 27.592 25.002 85.207 79.554l82.262 77.889 2.0105 4.0679 2.0105 4.068v163.46 163.46l-1.6956 3.5792c-2.3564 4.9743-5.8326 8.5156-10.739 10.941l-4.0134 1.9836-207.65 0.1c-178.86 0.086-208.04-0.01-210.48-0.6635zm391.18-185.1-0.0141-143.34-73.319-70.105-73.319-70.106-109-0.0339-109-0.0339v213.48 213.48h182.34 182.34l-0.0144-143.34zm-181.31 53.142c-0.90754-0.395-2.1653-1.5519-2.7949-2.5707l-1.1449-1.8524 0.002-88.31c0.002-86.648 0.0216-88.342 1.0412-90.014 2.1279-3.4898 0.48729-3.3536 40.322-3.3487 21.21 0 38.07 0.2299 40.886 0.5513 17.583 2.0072 30.192 7.3995 39.668 16.963 5.4089 5.459 8.5827 10.532 10.992 17.569 4.9847 14.559 4.3047 33.669-1.6437 46.195-5.1836 10.915-14.112 19.29-25.916 24.307-2.5203 1.0713-4.8818 1.9479-5.2475 1.9479-0.3923 0-0.53035 0.3511-0.33662 0.8559 0.18063 0.4708 9.0939 16.067 19.807 34.658s19.677 34.492 19.918 35.335c0.89476 3.12-1.0774 6.6324-4.4393 7.9062-2.0581 0.7798-14.901 0.7215-17.575-0.08-1.3123-0.3931-3.0026-1.5413-4.3021-2.9223-1.2944-1.3755-9.6292-15.297-21.085-35.219-10.42-18.119-19.359-33.576-19.865-34.349l-0.92062-1.4051-21.944 0.139-21.944 0.139-0.26619 34.96-0.26618 34.96-1.3309 1.4422c-2.2984 2.4905-4.0718 2.9039-12.36 2.8812-5.1694-0.014-8.1316-0.2508-9.2534-0.7392zm77.035-99.037c14.097-2.125 22.257-8.5173 25.851-20.252 0.76325-2.4919 0.97396-4.8915 0.95831-10.914-0.0181-7.0157-0.15321-8.1011-1.481-11.907-2.9186-8.3658-8.5393-13.883-17.174-16.856-6.7289-2.3175-11.277-2.6417-37.09-2.644h-24.356v31.676 31.676h24.09c18.304 0 25.318-0.1882 29.202-0.7738zm-216.75 96.716c-1.5134-0.7035-2.9226-1.9675-3.9841-3.5737-1.0413-1.5757-1.0555-2.7365-1.0555-86.244 0-79.592 0.0556-84.748 0.93109-86.349 1.2097-2.2121 3.8503-4.1825 6.5221-4.8667 6.0598-1.5519 40.132-2.6969 51.302-1.7241 21.56 1.878 34.439 6.7824 44.845 17.078 8.9539 8.8585 12.531 17.042 13.881 31.762 0.50189 5.4692 0.50226 8.5065 0.002 13.842-1.4408 15.356-5.2718 24.488-13.938 33.223-9.5963 9.6735-20.322 14.323-38.597 16.732-6.5864 0.8682-28.561 1.1786-33.843 0.4779l-2.6246-0.3482-0.0127 31.079c-0.007 17.094-0.23025 32.017-0.49615 33.163-0.28577 1.2321-1.2632 2.8647-2.3904 3.9928l-1.907 1.9083-8.9097 0.1134c-4.9003 0.062-9.2771-0.057-9.7261-0.2662zm58.844-95.687c14.561-2.5188 20.929-7.6605 24.049-19.418 0.68316-2.5748 0.91619-5.5723 0.91052-11.712-0.0109-11.765-1.5182-16.803-6.5256-21.811-4.5113-4.5113-12.21-7.3522-23.071-8.5138-5.7817-0.6184-19.674-0.7262-26.373-0.2046l-4.392 0.3419v30.788 30.788l1.1978 0.2781c4.261 0.9894 27.487 0.6242 34.205-0.5379z"/>
	</g>
</svg>
