<svg xmlns:rdf="http://www.w3.org/1999/02/22-rdf-syntax-ns#" xmlns="http://www.w3.org/2000/svg" height="512" width="512" version="1.1" xmlns:cc="http://creativecommons.org/ns#" xmlns:dc="http://purl.org/dc/elements/1.1/" viewBox="0 0 512.00001 512.00001">
	<g transform="translate(0 -540.36)">
		<path d="m340.78 1051.8c-25.193-3.9889-40.501-9.4787-80.868-29-44.269-21.408-58.58-26.256-74.727-25.311-13.408 0.7843-21.131 4.4659-34.584 16.485-8.9378 7.9855-13.449 10.094-22.74 10.63-9.8034 0.5649-17.453-2.0948-23.819-8.2817-7.0125-6.8153-9.4525-12.816-9.4368-23.209 0.0168-11.182 1.7664-14.581 15.114-29.355 24.047-26.618 37.182-51.504 42.316-80.175 1.9201-10.723 2.4526-33.533 1.0799-46.256l-0.84903-7.8688-32.42-0.36744c-36.681-0.41574-38.264-0.69419-46.839-8.2422-9.6539-8.4977-13.249-22.658-8.8738-34.956 2.418-6.7974 10.104-15.043 16.875-18.103 5.1508-2.3279 6.5635-2.4526 31.242-2.7579 14.216-0.17588 25.847-0.70231 25.847-1.1698 0-0.46752-1.3719-6.893-3.0487-14.279-12.64-55.675-12.38-91.259 0.92363-126.56 14.439-38.317 46.865-65.699 91.459-77.234 16.716-4.3237 26.747-5.4994 46.3-5.4261 71.308 0.26737 126.77 38.963 140.86 98.268 2.8443 11.976 4.1647 28.625 2.8464 35.892-3.6973 20.38-25.543 32.04-44.107 23.541-12.436-5.6936-17.856-14.525-19.246-31.363-0.494-5.983-1.8304-13.872-2.9698-17.532-6.3735-20.471-24.624-35.371-51.491-42.039-10.97-2.7225-32.297-3.7155-43.913-2.0447-29.582 4.2548-52.435 19.837-60.151 41.013-8.8415 24.265-7.6364 49.902 4.7878 101.85l3.9169 16.378 78.751 0.51183 78.751 0.51182 5.3948 2.4381c6.921 3.1279 14.45 11.292 16.999 18.434 4.2308 11.85 0.44005 26.317-9.0951 34.71-9.3186 8.2026-5.3582 7.8269-86.064 8.1627l-71.741 0.29846 0.0225 22.232c0.0301 29.794-2.5884 49.388-9.6546 72.242-1.7155 5.5484-2.9754 10.189-2.7999 10.312 0.1755 0.1235 4.2346 1.0395 9.0201 2.0355 19.035 3.962 35.112 10.18 69.173 26.754 44.404 21.607 56.915 26.048 73.386 26.048 13.679 0 23.857-4.5642 37.542-16.836 9.5313-8.5465 16.084-11.189 26.164-10.552 17.325 1.095 29.532 14.077 29.603 31.482 0.0447 10.896-2.6079 16.324-12.68 25.947-18.344 17.526-38.241 28.058-60.306 31.923-7.7765 1.3618-29.407 1.8543-35.95 0.8183z"/>
	</g>
</svg>
