<svg xmlns:rdf="http://www.w3.org/1999/02/22-rdf-syntax-ns#" xmlns="http://www.w3.org/2000/svg" height="512" width="512" version="1.1" xmlns:cc="http://creativecommons.org/ns#" xmlns:dc="http://purl.org/dc/elements/1.1/" viewBox="0 0 512.00001 512.00001">
	<g transform="translate(0 -540.36)">
		<path d="m239.51 1051.8c-48.61-3.6-92.99-19.2-130.81-46.1-56.252-39.93-93.787-99.41-105.03-166.41-2.8356-16.899-3.214-21.964-3.2096-42.963 0.004-20.976 0.38092-26.008 3.2148-42.963 11.575-69.255 52.059-131.46 110.85-170.32 10.939-7.2308 17.747-11.087 30.557-17.307 11.35-5.511 16.36-7.5905 27.571-11.441 48.333-16.603 100.15-18.405 149.83-5.2083 26.169 6.9522 51.528 18.434 74.991 33.953 59.084 39.08 99.465 101.34 111.09 171.27 2.549 15.335 2.982 21.434 2.982 42.016 0 20.572-0.43654 26.728-2.9753 41.958-6.9124 41.466-24.26 81.369-49.62 114.13-42.479 54.882-104.51 90.127-172.63 98.082-15.98 1.8661-33.148 2.3598-46.803 1.3458zm36.432-43.055c7.5641-0.7187 15.668-1.9046 22.338-3.2685 56.295-11.513 105.35-44.88 136.7-92.986 17.951-27.546 28.275-56.128 33.042-91.478 1.3902-10.31 1.3902-39.152 0-49.462-2.9939-22.203-7.7149-39.957-15.614-58.719-17.18-40.71-48.14-76.31-86.53-99.4-45.64-27.45-100.06-36.71-152.96-26.01-30.268 6.1199-59.552 19.31-84.726 38.161-8.7806 6.5753-12.69 9.949-21.29 18.373-35.018 34.3-55.958 76.42-62.684 126.09-1.0287 7.5961-1.1884 11.134-1.1884 26.326 0 19.366 0.69702 26.889 3.9776 42.929 11.939 58.37 47.713 108.85 99.43 140.29 6.6138 4.0215 23.152 12.125 31.113 15.244 22.34 8.754 41.243 12.833 68.342 14.747 4.6781 0.3305 23.665-0.1434 30.049-0.75zm-26.356-42.754c-3.6475-1.3902-6.1073-2.9045-8.3428-5.1356-8.4569-8.4403-8.6348-21.527-0.40593-29.873 8.4839-8.6055 21.603-8.6893 30.113-0.1923 10.396 10.38 7.4006 27.62-5.9113 34.021-3.0295 1.4566-4.0818 1.6769-8.5096 1.7817-3.2417 0.077-5.7301-0.1387-6.9431-0.601zm1.4895-84.892c-5.9994-1.5159-11.612-6.2335-14.388-12.093l-1.6983-3.585-0.16645-23.401c-0.10712-15.059 0.0483-25.297 0.43611-28.72 2.4046-21.224 11.306-39.634 25.794-53.344 4.6412-4.3925 9.4715-7.9253 17.597-12.87 4.5308-2.7574 11.384-9.7152 13.96-14.174 1.2084-2.0913 2.9512-6.0403 3.873-8.7755 3.8916-11.547 2.2108-25.924-4.1565-35.554-6.3298-9.5736-14.883-16.007-25.16-18.925-4.8084-1.3652-16.907-1.4044-21.806-0.071-18.311 4.985-30.418 19.908-31.899 39.319-0.56052 7.3435-1.2717 9.8346-3.9666 13.895-2.2388 3.3729-5.1179 5.7772-9.2209 7.7002-2.6756 1.254-3.6914 1.4261-8.364 1.4164-4.8748-0.01-5.6069-0.1514-8.7755-1.6927-4.4688-2.1739-8.2154-5.9043-10.307-10.263-1.6563-3.4509-1.6592-3.4725-1.6286-12.232 0.0267-7.6612 0.21901-9.5832 1.5143-15.136 3.9346-16.868 10.816-29.355 22.849-41.459 12.542-12.617 25.982-19.97 43.55-23.826 4.748-1.0422 6.9598-1.1951 17.152-1.1849 12.876 0.0128 16.962 0.61297 26.949 3.9591 24.84 8.3223 45.301 28.781 53.622 53.618 2.7887 8.3238 3.7677 13.946 4.0973 23.532 0.35323 10.272-0.2427 16.388-2.4476 25.118-5.5659 22.038-19.253 39.887-40.681 53.048-8.2865 5.0896-13.585 11.348-17.213 20.328-2.7483 6.8041-2.9128 8.5691-3.2596 34.965l-0.32488 24.731-1.6983 3.585c-3.4888 7.3649-10.302 12.03-18.113 12.401-2.2668 0.1078-5.0199-0.031-6.118-0.3085z"/>
	</g>
</svg>
