<svg width="512" height="512" version="1.1" viewBox="0 0 512 512" xmlns="http://www.w3.org/2000/svg">
	<g transform="translate(0 -393.83)">
		<path d="m249.03 904.94c-10.596-2.0863-20.506-9.965-25.495-20.269-2.5343-5.2339-2.8725-7.0202-2.9039-15.337-0.031889-8.4354 0.26499-10.026 2.8571-15.305 13.442-27.378 51.882-27.826 65.196-0.76023 3.0279 6.1558 3.2561 7.3188 3.2462 16.546-0.0096 8.94-0.28603 10.449-2.787 15.216-5.696 10.856-14.852 17.8-26.322 19.962-6.0447 1.1391-7.7793 1.1327-13.792-0.051223zm1.6524-115.53c-5.1436-0.89466-13.053-6.5955-16.178-11.661l-3.0083-4.8755-0.27592-46.368c-0.29894-50.236-0.37459-49.407 5.1754-56.684 1.388-1.8198 4.8118-4.5541 7.6083-6.0762 4.3781-2.3829 6.7468-2.8829 17.046-3.5986 14.247-0.98993 20.163-2.1307 31.386-6.0514 30.569-10.679 55.646-36.253 65.87-67.175 4.1556-12.568 5.7877-24.706 5.13-38.15-2.3047-47.107-32.798-86.126-77.411-99.054-54.186-15.703-111.81 13.818-130.77 66.992-3.8502 10.798-6.4962 25.008-6.51 34.962-0.01725 12.491-7.0075 22.532-17.947 25.781-6.5216 1.9367-9.1016 1.9336-15.676-0.018613-7.0777-2.1019-13.97-8.9338-16.403-16.26-3.3915-10.211-0.60389-36.106 6.13-56.944 15.2-47.037 54.002-86.41 100.47-101.95 31.237-10.446 62.864-11.205 94.605-2.2709 25.96 7.3064 48.15 20.608 68.869 41.28 22.417 22.367 36.766 49.051 43.677 81.223 1.9126 8.9033 2.2381 13.407 2.2559 31.214 0.017914 17.846-0.2916 22.241-2.1737 30.865-2.7929 12.797-8.0737 28.063-13.705 39.62-14.359 29.469-42.905 57.69-72.72 71.893-9.7976 4.6672-32.102 12.268-38.829 13.231l-4.6429 0.665-0.62317 60.735-2.6269 4.9545c-3.07 5.7902-5.7233 8.4077-11.42 11.266-4.1918 2.1033-12.526 3.2861-17.302 2.4554z" stroke-width=".99091"/>
	</g>
</svg>
