<?xml version="1.0" encoding="UTF-8" standalone="no"?>
<svg id="svg2" xmlns:rdf="http://www.w3.org/1999/02/22-rdf-syntax-ns#" xmlns="http://www.w3.org/2000/svg" height="512" width="512" version="1.1" xmlns:cc="http://creativecommons.org/ns#" xmlns:dc="http://purl.org/dc/elements/1.1/" viewBox="0 0 511.99999 511.99999">
	<g id="layer1" transform="translate(0,-540.3622)">
		<path id="path3477" d="m35.145159 1051.2922c-4.619597-1.8502-7.941553-4.9654-10.027739-9.4036-2.105205-4.4786-2.11742-5.0005-2.11742-90.46847 0-62.83265 0.310553-86.64543 1.154126-88.49687 0.634769-1.39317 2.322269-3.32684 3.75-4.29706 2.420894-1.64511 8.325465-1.78434 87.595874-2.06544 61.8341-0.21928 86.09016 0.0117 89 0.84748 8.34903 2.39806 14.50645 9.39763 14.4743 16.45394-0.0369 8.09564-2.79932 11.70833-29.22588 38.22133-13.8265 13.87173-24.93869 25.39309-24.69376 25.60302 1.67037 1.43166 14.88106 8.166 21.94534 11.18696 49.25871 21.06492 108.75203 16.71978 153.99118-11.24686 28.29718-17.4932 49.00426-40.21199 63.45241-69.61688 10.79418-21.96832 16.16923-43.77331 17.23013-69.89757l0.6396-15.75h42.49841 42.4984l-0.67477 16.463c-1.16912 28.52391-4.98476 50.36912-13.10649 75.037-25.57604 77.68128-89.57485 139.64582-167.75111 162.41912-21.08955 6.1435-37.2269 8.8339-60.02758 10.0076-54.2162 2.7911-108.40545-11.9542-152.97584-41.6259l-9.86096-6.56474-25.206688 24.94444c-25.660091 25.3932-30.760662 29.3968-37.272416 29.2561-1.613852-0.035-3.993954-0.4878-5.289117-1.0066zm-30.145159-249.2848c0-56.90515 18.039867-111.22889 51.852815-156.14522 15.152427-20.12813 39.33663-42.88256 60.905685-57.30494 42.24063-28.24466 89.1903-42.25846 141.7415-42.3078 50.12237-0.0471 98.30171 14.37005 139.59105 41.77103l9.99703 6.63435 25.30459-25.12744c25.59246-25.4133 30.24744-29.09081 36.88945-29.14324 6.46586-0.051 13.45765 5.02611 16.30454 11.8397 2.18068 5.21909 2.09909 172.89098-0.0864 177.49648-3.08617 6.50363 2.45437 6.11495-91.42627 6.41378-94.51006 0.30083-91.60484 0.48041-97.7796-6.04435-4.12801-4.362-5.29845-6.89534-5.27246-11.41183 0.0455-7.89833 2.92794-11.64936 29.22962-38.03707 13.8265-13.87173 24.93869-25.39309 24.69376-25.60302-1.67037-1.43166-14.88106-8.166-21.94534-11.18696-49.77716-21.28663-111.72585-16.39085-155.88262 12.31934-28.01975 18.2181-47.47116 39.87534-61.56302 68.5444-10.915176 22.20633-16.270784 43.89182-17.262391 69.89757l-0.600552 15.75h-42.345693-42.345694v-8.35478z"/>
	</g>
</svg>
