<svg xmlns:rdf="http://www.w3.org/1999/02/22-rdf-syntax-ns#" xmlns="http://www.w3.org/2000/svg" height="512" width="512" version="1.1" xmlns:cc="http://creativecommons.org/ns#" xmlns:dc="http://purl.org/dc/elements/1.1/" viewBox="0 0 512.00001 512.00001">
	<g transform="translate(0 -540.36)">
		<path d="m239.77 1051.9c-66.17-4.1183-128.45-34.028-173.09-83.126-33.067-36.368-54.977-81.317-63.031-129.31-2.3848-14.212-3.0464-21.761-3.3445-38.164-0.35421-19.491 0.61382-32.798 3.6275-49.864 11.664-66.051 48.741-124.46 104.2-164.14 22.253-15.924 49.879-29.224 76.592-36.872 41.799-11.968 85.797-13.239 128.15-3.7011 63.793 14.365 120.6 53.685 156.67 108.45 7.2028 10.935 11.215 17.985 16.802 29.52 14.463 29.863 22.144 58.492 24.999 93.175 0.81975 9.958 0.35616 36.843-0.80085 46.446-3.744 31.073-11.191 56.956-23.997 83.406-20.86 43.084-52.41 78.577-93.098 104.73-12.769 8.2091-29.53 16.748-43.84 22.335-34.763 13.573-72.446 19.446-109.84 17.119zm28.988-39.835c32.381-2.1526 62.071-10.507 89.038-25.055 49.128-26.503 84.938-68.81 103.05-121.75 4.2939-12.548 7.8314-28.311 9.8478-43.881 1.3827-10.676 1.3801-39.357-0.005-49.998-5.1408-39.502-18.455-73.095-41.004-103.45-29.84-40.173-71.403-68.271-119.18-80.565-44.859-11.544-92.032-8.6874-134.3 8.1332-48.911 19.464-89.237 56.396-113.06 103.55-11.689 23.135-18.382 45.427-21.875 72.869-1.3479 10.587-1.3479 38.347 0 48.934 6.4562 50.708 27.267 93.683 62.331 128.72 43.312 43.274 104.73 66.517 165.15 62.5zm-91.86-123.18c-9.3849-2.933-15.465-12.514-13.955-21.99 1.0864-6.8156 0.69757-6.3616 34.037-39.742l30.818-30.856-30.57-30.567c-32.86-32.856-33.205-33.256-34.226-39.648-2.6009-16.289 14.247-28.274 29.168-20.751 1.0239 0.5163 15.804 14.85 32.844 31.853l30.982 30.914 30.982-30.914c17.04-17.003 31.82-31.336 32.844-31.853 14.87-7.498 31.803 4.4207 29.204 20.557-1.0546 6.5481-0.9348 6.4089-34.04 39.575l-30.796 30.853 30.572 30.569c32.96 32.956 33.199 33.234 34.255 39.788 2.5923 16.097-14.005 27.981-28.929 20.714-1.3794-0.6716-13.023-11.908-33.11-31.952l-30.982-30.916-30.982 30.914c-17.04 17.003-31.785 31.318-32.766 31.812-4.7561 2.3943-10.85 3.0446-15.351 1.638z"/>
	</g>
</svg>
