<svg width="512" height="512" version="1.1" viewBox="0 0 512 512" xmlns="http://www.w3.org/2000/svg">
	<g transform="translate(0 -161.53)">
		<path d="m25.423 671.4c-23.087-9.693-32.075-34.678-20.037-55.699 1.7444-3.0461 36.539-38.591 99.3-101.44l96.615-96.751-97.578-97.738c-80.447-80.579-97.972-98.605-99.826-102.67-7.0594-15.498-4.115-32.028 7.8331-43.976 12.294-12.294 29.199-15 44.901-7.1887 3.9403 1.9601 25.591 23.056 102.25 99.631l97.251 97.144 92.302-92.393c50.766-50.816 95.255-94.97 98.865-98.118 8.7901-7.6677 15.45-10.24 26.51-10.24 6.3734 0 9.7652 0.53698 14.103 2.2326 7.9701 3.1159 16.554 11.275 20.681 19.658 2.9951 6.0839 3.2255 7.2614 3.2189 16.446-0.012604 17.358 8.5758 7.4179-102.81 118.99l-98.077 98.24 96.562 97.253c105.12 105.87 100.75 101 103.13 114.91 2.7221 15.891-6.3283 32.827-21.707 40.619-5.1915 2.6305-6.627 2.8973-15.591 2.8973-17.272 0-7.9903 8.0247-119.47-103.29l-97.747-97.608-31.09 31.166c-17.099 17.142-61.38 61.133-98.401 97.758-75.982 75.17-71.8 71.706-87.194 72.232-7.0329 0.24028-9.2986-0.094075-13.993-2.065z" stroke-width=".98725"/>
	</g>
</svg>
