<?xml version="1.0" encoding="UTF-8" standalone="no"?>
<svg id="svg2" xmlns:rdf="http://www.w3.org/1999/02/22-rdf-syntax-ns#" xmlns="http://www.w3.org/2000/svg" height="512" width="512" version="1.1" xmlns:cc="http://creativecommons.org/ns#" xmlns:dc="http://purl.org/dc/elements/1.1/" viewBox="0 0 512.00001 512.00001">
	<g id="layer1" transform="translate(0,-540.36216)">
		<path id="path4263" d="m72.11957 1050.9238c-2.807448-1.0039-6.863816-3.2307-9.01415-4.9482s-16.34824-15.6694-31.550904-31.0043c-30.5152696-30.78068-31.45155408-32.08774-31.45155408-43.90678 0-12.88527-4.31939632-7.91974 82.98578008-95.39975l79.215968-79.37459-79.215968-79.3746c-87.752163-87.92789-83.03158834-82.46985-82.94268742-95.90054 0.07724362-11.66957 1.15274392-13.12023 34.30799042-46.27548 33.467983-33.46798 34.598493-34.29689 46.776265-34.29689 4.949591 0 8.338575 0.60656 11.526158 2.06294 3.469921 1.58537 22.818252 20.4234 83.580112 81.37568l79.06496 79.31276 79.67616-79.51799c88.26172-88.0865 82.76876-83.3334 96.2021-83.24448 11.62757 0.0769 13.0879 1.15992 46.26057 34.3063 33.1834 33.15709 34.24553 34.58914 34.32289 46.27716 0.0889 13.43069 4.80948 7.97265-82.94269 95.90054l-79.21595 79.3746 79.21595 79.37459c87.75217 87.9279 83.0316 82.46985 82.94269 95.90054-0.0772 11.66957-1.15274 13.12024-34.30798 46.27549-33.15525 33.1553-34.60592 34.2307-46.27548 34.308-13.43073 0.089-7.97234 4.8098-95.90341-82.94557l-79.37746-79.21882-78.87094 78.80132c-64.87996 64.82277-79.739151 79.18437-83.765221 80.96077-6.811705 3.0054-14.880905 3.4526-21.243199 1.1773z"/>
	</g>
</svg>
