<svg xmlns:inkscape="http://www.inkscape.org/namespaces/inkscape" xmlns:rdf="http://www.w3.org/1999/02/22-rdf-syntax-ns#" xmlns="http://www.w3.org/2000/svg" sodipodi:docname="remove-circle2.svg" height="512" width="512" version="1.1" xmlns:cc="http://creativecommons.org/ns#" xmlns:dc="http://purl.org/dc/elements/1.1/" inkscape:version="0.91 r13725" viewBox="0 0 512.00001 512.00001" xmlns:sodipodi="http://sodipodi.sourceforge.net/DTD/sodipodi-0.dtd">
	<sodipodi:namedview bordercolor="#666666" inkscape:pageshadow="2" inkscape:window-y="-8" pagecolor="#ffffff" inkscape:window-height="1017" inkscape:window-maximized="1" inkscape:zoom="0.35" inkscape:window-x="-8" showgrid="false" borderopacity="1.0" inkscape:current-layer="layer1" inkscape:cx="-126.42857" inkscape:cy="520" units="px" inkscape:window-width="1920" inkscape:pageopacity="0.0" inkscape:document-units="px"/>
	<g inkscape:label="Layer 1" inkscape:groupmode="layer" transform="translate(0 -540.36)">
		<path inkscape:connector-curvature="0" d="m240.04 1051.9c-56.308-3.4356-110.93-26.098-153.2-63.566-6.9894-6.1944-18.885-18.146-24.298-24.412-32.632-37.774-53.559-83.952-60.267-132.99-2.8276-20.67-2.8276-48.484 0-69.154 10.178-74.399 52.62-140.52 116.48-181.46 17.628-11.302 38.513-21.109 59.179-27.79 50.077-16.188 106.06-16.188 156.13 0 60.384 19.52 111.43 60.614 143.3 115.36 16.873 28.983 27.827 60.766 32.358 93.89 2.8276 20.67 2.8276 48.484 0 69.154-6.7048 49.012-27.723 95.398-60.26 132.99-9.0028 10.402-24.485 25.163-35.211 33.574-49.84 39.079-111.22 58.249-174.22 54.405zm-49.47-163.8c2.583-1.0946 6.5873-4.8903 34.178-32.398l31.25-31.15 31.253 31.158c35.665 35.557 33.329 33.69 42.158 33.709 4.457 0.01 5.4444-0.1694 8.3636-1.5179 7.9981-3.6944 12.744-12.488 11.363-21.058-1.0337-6.4186-0.76532-6.107-33.926-39.392l-31.009-31.126 30.808-30.804c32.707-32.703 32.905-32.931 34.096-39.136 1.6457-8.5737-3.215-17.863-11.301-21.597-2.9454-1.3601-3.9412-1.5431-8.3954-1.5431-8.8602 0-6.8211-1.6308-42.424 33.929l-30.987 30.949-31.252-31.158c-35.671-35.563-33.346-33.704-42.158-33.714-4.4508-0.01-5.4484 0.1765-8.3636 1.523-3.8783 1.7914-8.1857 6.0431-9.7849 9.6584-2.7254 6.1613-2.2158 13.583 1.3028 18.973 1.0249 1.5698 15.197 16.151 31.95 32.873l30.108 30.052-30.8 30.858c-32.931 32.992-32.882 32.936-34.049 39.402-1.7435 9.6615 3.6878 18.492 13.757 22.366 2.9297 1.1272 10.257 0.6791 13.86-0.8477z"/>
	</g>
</svg>
