<svg width="512" height="512" version="1.1" viewBox="0 0 512 512" xmlns="http://www.w3.org/2000/svg">
	<g transform="translate(0 -161.53)">
		<path d="m31.886 491.33c33.433-50.966 79.42-93.497 129.47-119.77 36.857-19.342 76.203-30.198 119.62-33.012l14.463-0.94146s0.24654-85.715 0.55795-85.715c1.0092 0 216.01 159.46 216.01 160.07s-212.42 170.83-215.37 170.83c-0.67546 0-1.1952-93.946-1.1952-93.946l-9.0772-2.0336c-36.519-8.1538-78.867-4.5163-126.11 10.843-49.228 16.008-102.12 44.881-153.11 83.604-19.163 14.546 4.1421-58.514 24.758-89.939z" stroke-width=".72087" data-name="Path 690"/>
	</g>
</svg>
