<?xml version="1.0" encoding="UTF-8" standalone="no"?>
<svg id="svg2" xmlns:rdf="http://www.w3.org/1999/02/22-rdf-syntax-ns#" xmlns="http://www.w3.org/2000/svg" height="512" width="512" version="1.1" xmlns:cc="http://creativecommons.org/ns#" xmlns:dc="http://purl.org/dc/elements/1.1/" viewBox="0 0 511.99999 511.99999">
	<g id="layer1" transform="translate(0,-540.3622)">
		<path id="path3347" d="m511.32602 987.36218c-0.94141-20.88285-11.14841-51.45372-23.70549-71-25.16635-39.1738-60.47479-63.8382-106.15377-74.15277-9.96952-2.25117-10.43255-2.26222-108.38303-2.58667l-98.37073-0.32584v50.28192 50.28193l-87.356502-87.24929-87.356498-87.24928 87.356498-87.24928 87.356502-87.24929v38.70289 38.70288l96.36828 0.35957c103.26692 0.38531 100.64438 0.26432 120.39776 5.55466 55.44683 14.84972 100.63584 60.00773 114.7573 114.67857 5.29166 20.48649 5.13532 17.54533 5.58137 105 0.36501 71.56451 0.1722 108.22712-0.49169 93.5z"/>
	</g>
</svg>
