<svg xmlns:inkscape="http://www.inkscape.org/namespaces/inkscape" xmlns:rdf="http://www.w3.org/1999/02/22-rdf-syntax-ns#" xmlns="http://www.w3.org/2000/svg" sodipodi:docname="report.svg" height="512" width="512" version="1.1" xmlns:cc="http://creativecommons.org/ns#" xmlns:dc="http://purl.org/dc/elements/1.1/" inkscape:version="0.91 r13725" viewBox="0 0 512.00001 512.00001" xmlns:sodipodi="http://sodipodi.sourceforge.net/DTD/sodipodi-0.dtd">
	<sodipodi:namedview bordercolor="#666666" inkscape:pageshadow="2" inkscape:window-y="-8" pagecolor="#ffffff" inkscape:window-height="1017" inkscape:window-maximized="1" inkscape:zoom="0.35" inkscape:window-x="-8" showgrid="false" borderopacity="1.0" inkscape:current-layer="layer1" inkscape:cx="-126.42857" inkscape:cy="520" units="px" inkscape:window-width="1920" inkscape:pageopacity="0.0" inkscape:document-units="px"/>
	<g inkscape:label="Layer 1" inkscape:groupmode="layer" transform="translate(0 -540.36)">
		<path inkscape:connector-curvature="0" d="m128.64 1018.4c-2.7923-1.3914-5.6282-3.7233-7.0114-5.7649-4-5.9-120.3-208.05-121-210.32-1.1531-3.7269-0.6611-10.98 0.96045-14.159 4.4764-8.7753 119.9-208.15 121.57-209.99 1.0802-1.1908 3.6244-3.0587 5.6537-4.1508l3.6896-1.9856h123.6c136.11 0 125.68-0.43598 131.62 5.5022 2.9527 2.9527 122.25 209.48 123.48 213.77 1.3605 4.7436 1.0152 8.1988-1.3161 13.171-1.1892 2.5366-28.6 50.478-60.913 106.54-41.538 72.063-59.729 102.8-62.087 104.92-1.8348 1.648-4.8241 3.4098-6.6428 3.915-2.1182 0.5885-47.088 0.9205-125.11 0.9238l-121.81 0.01-4.6888-2.3365zm287.11-129.57c29.143-50.478 52.877-92.269 52.744-92.87-0.13337-0.60026-24.094-42.421-53.247-92.935l-53.004-91.844-106.57 0.23443-106.57 0.23444-53.297 92.363-53.297 92.363 53.294 92.35 53.294 92.35 106.83-0.2345 106.83-0.2344 52.987-91.778zm-165.33 43.367c-8.357-1.768-16.417-8.2412-20.689-16.617-3.2292-6.3303-3.0809-16.246 0.34725-23.227 4.9024-9.983 14.54-15.765 26.498-15.897 6.0817-0.067 7.7524 0.2953 12.47 2.7059 20.076 10.259 20.082 40.914 0.0103 50.734-5.4315 2.6573-12.708 3.556-18.637 2.3017zm-4.3134-83.37c-2.4516-0.6916-5.5647-2.0688-6.918-3.0605-5.0952-3.7337-5.2582-4.7757-6.4881-41.456-0.62712-18.704-1.522-40.649-1.9887-48.766-1.7616-30.64-2.848-73.842-1.9566-77.809 1.4211-6.3248 4.7846-10.474 11.321-13.964 5.0532-2.6987 6.9742-3.1911 13.716-3.5159 9.1406-0.44038 13.569 0.55626 19.674 4.4281 3.4361 2.1791 4.9599 3.973 6.8131 8.021l2.3871 5.2142-0.71629 46.192c-1.8621 120.09-1.6247 113.13-3.9927 116.94-3.2072 5.1579-10.2 8.2266-19.769 8.6749-4.7212 0.2211-9.3215-0.1217-12.082-0.9003z"/>
	</g>
</svg>
