<?xml version="1.0" encoding="UTF-8" standalone="no"?>
<!-- Created with Inkscape (http://www.inkscape.org/) -->

<svg
   xmlns:dc="http://purl.org/dc/elements/1.1/"
   xmlns:cc="http://creativecommons.org/ns#"
   xmlns:rdf="http://www.w3.org/1999/02/22-rdf-syntax-ns#"
   xmlns:svg="http://www.w3.org/2000/svg"
   xmlns="http://www.w3.org/2000/svg"
   xmlns:sodipodi="http://sodipodi.sourceforge.net/DTD/sodipodi-0.dtd"
   xmlns:inkscape="http://www.inkscape.org/namespaces/inkscape"
   width="512"
   height="512"
   viewBox="0 0 511.99999 511.99999"
   id="svg2"
   version="1.1"
   inkscape:version="0.91 r13725"
   sodipodi:docname="request.svg">
  <defs
     id="defs4" />
  <sodipodi:namedview
     id="base"
     pagecolor="#ffffff"
     bordercolor="#666666"
     borderopacity="1.0"
     inkscape:pageopacity="0.0"
     inkscape:pageshadow="2"
     inkscape:zoom="1.24"
     inkscape:cx="199.5"
     inkscape:cy="198.62732"
     inkscape:document-units="px"
     inkscape:current-layer="svg2"
     showgrid="false"
     units="px"
     inkscape:window-width="1920"
     inkscape:window-height="1057"
     inkscape:window-x="-8"
     inkscape:window-y="-8"
     inkscape:window-maximized="1" />
  <metadata
     id="metadata7">
    <rdf:RDF>
      <cc:Work
         rdf:about="">
        <dc:format>image/svg+xml</dc:format>
        <dc:type
           rdf:resource="http://purl.org/dc/dcmitype/StillImage" />
        <dc:title></dc:title>
      </cc:Work>
    </rdf:RDF>
  </metadata>
  <path
     style="fill:#000000"
     d="M 77.5,510.10414 C 72.844259,507.9486 68.575758,503.68711 67.063618,499.6849 66.344723,497.78219 66,471.15877 66,417.54024 66,340.79108 65.934337,337.99808 63.981322,331.67495 60.784949,321.3263 60.070586,312.47465 59.932007,281.5 59.812822,254.86028 59.68636,252.86625 58.378205,257 c -2.837717,8.96714 -4.483284,22.89665 -5.02075,42.5 -0.301588,11 -0.979605,21.713 -1.506704,23.80667 -1.233953,4.90135 -6.986222,11.25291 -11.557452,12.76155 -8.840902,2.91776 -18.287902,-0.068 -23.042184,-7.28249 L 14.5,324.61097 14.647532,305.55549 c 0.46762,-60.39866 17.487219,-109.9447 46.113387,-134.24147 3.443506,-2.92271 6.593506,-5.30118 7,-5.28548 0.406495,0.0157 9.477371,12.14542 20.157503,26.95493 10.680132,14.80951 19.738728,26.72842 20.130218,26.48647 0.39148,-0.24195 9.16226,-11.47167 19.49061,-24.95493 C 137.8676,181.03176 146.63884,170 147.0309,170 c 0.39206,0 11.1535,12.84292 23.91431,28.53982 l 23.20149,28.53983 7.67665,-6.8909 C 235.64535,189.82865 236.77903,189 244.49228,189 c 6.05279,0 10.34477,1.91144 14.23126,6.33791 5.28752,6.02215 6.38161,13.93946 2.96444,21.45195 -1.75163,3.85088 -57.29302,53.05432 -62.59181,55.44933 -4.92291,2.22511 -10.9048,1.94537 -16.12496,-0.75408 -1.64688,-0.85163 -8.05162,-7.86894 -14.23277,-15.59403 L 157.5,241.84548 l -0.55031,39.32726 c -0.53821,38.46348 -0.60343,39.47003 -2.96942,45.82726 l -2.41912,6.5 -0.53057,82.57391 -0.53058,82.57391 -2.68285,4.05318 c -1.74786,2.64062 -4.51722,4.96728 -7.94635,6.67609 L 134.60731,512 108.05366,511.978 C 84.34304,511.95843 81.071729,511.75779 77.5,510.10414 Z m 301,-0.76934 c -4.40932,-2.32977 -6.48728,-4.39289 -8.60641,-8.54496 C 368.08315,497.2426 368,493.6392 368,418.73124 l 0,-78.34843 -3.21904,-8.44141 -3.21904,-8.4414 -0.53096,-35 -0.53096,-35 -1.68291,6.5 c -2.74404,10.59843 -3.97434,22.25116 -4.69832,44.5 -0.62761,19.28728 -0.86856,21.32763 -2.95434,25.01718 -4.39239,7.7697 -12.66398,11.27776 -21.30594,9.03607 -5.81732,-1.50899 -9.42276,-4.53749 -11.96845,-10.05325 -3.27423,-7.09431 -2.212,-38.6861 2.19477,-65.27444 6.51737,-39.32274 19.19131,-66.91022 39.62528,-86.25267 4.63254,-4.38509 8.73041,-7.94603 9.10636,-7.91319 0.37595,0.0328 8.76481,11.28907 18.6419,25.01387 16.9983,23.62012 18.04867,24.85987 19.64779,23.1903 0.92919,-0.97013 9.41333,-11.88887 18.85366,-24.26387 9.44032,-12.375 17.4945,-22.61939 17.89816,-22.76532 0.40367,-0.14592 4.2844,3.00408 8.62385,7 27.95177,25.73903 42.85615,68.22641 45.18181,128.79821 0.7347,19.13508 0.12163,22.12152 -5.60291,27.29329 -6.53302,5.9022 -17.40434,6.76417 -23.98332,1.90162 -1.41756,-1.04773 -3.66923,-3.86032 -5.00371,-6.2502 -2.2627,-4.0522 -2.47824,-5.74991 -3.1962,-25.17522 -0.7055,-19.0882 -2.65129,-38.01198 -4.81232,-46.80238 -0.55159,-2.24372 -0.89989,6.37079 -0.97035,24 -0.12187,30.4904 -0.78558,36.65214 -5.12449,47.57471 L 446,336.05206 l 0,80.77819 0,80.77819 -2.88658,4.55167 c -1.91879,3.02561 -4.37156,5.27053 -7.31573,6.69578 -4.17328,2.02025 -5.86953,2.1418 -29.36341,2.10407 -20.77577,-0.0334 -25.43462,-0.3044 -27.93428,-1.62516 z M 104,176.27847 c -0.825,-0.31 -2.625,-1.34929 -4,-2.30952 -2.384778,-1.66542 -2.776532,-1.65953 -8.5,0.12785 -11.695412,3.65237 -13.5,2.27947 -13.5,-10.27055 0,-6.98044 0.329798,-8.81474 1.828741,-10.17126 2.428755,-2.198 4.597167,-2.04057 11.171259,0.81102 l 5.5,2.3857 2.638358,-2.50599 c 5.076102,-4.82142 14.838102,-4.51758 19.001462,0.59143 1.63673,2.00849 1.65161,2.00749 7.90264,-0.53253 10.24929,-4.16466 12.97138,-2.08032 12.9428,9.91048 -0.0175,7.32622 -1.62014,11.05439 -4.95662,11.53018 -1.33171,0.1899 -5.29744,-0.43326 -8.81274,-1.38481 -6.28891,-1.70233 -6.4524,-1.69583 -10.18983,0.40472 -3.65733,2.05554 -7.87734,2.59644 -11.02607,1.41328 z m 299.5,-2.9761 c -1.1,-0.29474 -3.19536,-1.38399 -4.65636,-2.42055 -2.60653,-1.8493 -2.77534,-1.84735 -9,0.10386 -7.85101,2.46103 -9.1105,2.48192 -11.18865,0.18558 C 377.38507,169.76801 377,167.3416 377,160.74269 c 0,-12.45737 2.01767,-13.92089 12.68685,-9.20247 l 5.74388,2.54021 1.57292,-2.08527 c 3.91417,-5.18913 13.67844,-5.43521 18.99635,-0.47874 l 2.5,2.33008 6,-2.46268 c 9.98393,-4.09787 12.5,-1.99267 12.5,10.45877 0,7.60948 -1.73864,11.15741 -5.46761,11.15741 -1.29481,0 -5.15203,-0.87078 -8.57161,-1.93507 -6.13386,-1.90908 -6.25263,-1.90926 -8.83909,-0.0137 -2.87452,2.10672 -7.50109,3.08725 -10.62169,2.2511 z m -203.04545,-6.75692 c -3.09904,-3.09903 -3.09653,-4.62386 0.0447,-27.13493 1.37462,-9.85079 2.49962,-19.03482 2.5,-20.40895 3.9e-4,-1.37414 -1.80549,-6.09914 -4.01306,-10.5 C 181.08291,72.810686 194.18093,29.819128 229.10585,9.6400938 240.40907,3.1092853 257.09809,-0.64132321 270.5,0.3373755 c 11.0322,0.8056459 18.38654,2.8831393 29.5,8.3333082 8.01133,3.9288493 10.92367,6.0825833 18.5852,13.7441143 7.66153,7.66153 9.81527,10.573874 13.74412,18.585202 5.45017,11.113455 7.52766,18.467804 8.3333,29.5 2.60478,35.66883 -21.62125,68.56832 -57.07258,77.50584 -8.81111,2.22135 -22.47366,2.64139 -30.42799,0.93549 l -4.93639,-1.05866 -19.97475,10.55866 C 217.22903,164.26751 207.07337,169 205.59262,169 c -1.51585,0 -3.75157,-1.06804 -5.13807,-2.45455 z M 231,138 c 13.62644,-7.20913 16.40056,-7.92764 23.0066,-5.95888 1.92137,0.57262 7.64351,1.04892 12.71586,1.05845 21.98217,0.0413 41.53448,-12.388 51.28176,-32.59957 6.29852,-13.060343 7.59402,-25.931 4.01763,-39.91456 -2.81558,-11.008803 -6.34601,-16.956114 -15.49859,-26.108699 -9.15259,-9.152585 -15.0999,-12.683015 -26.1087,-15.498593 -14.09992,-3.606153 -26.81771,-2.287102 -40.28678,4.178427 -19.75017,9.480635 -32.21878,29.265125 -32.26374,51.194308 -0.0273,13.321268 1.03458,16.8825 10.48072,35.149117 l 2.58563,5 -1.93236,13.5 c -1.98426,13.86251 -2.28206,17 -1.61361,17 0.21143,0 6.33844,-3.15 13.61558,-7 z m 2,-45 c -3.04045,-3.040453 -2.99218,-8.318914 0.10518,-11.5 1.84394,-1.893789 3.47274,-2.015686 30.67109,-2.295375 15.79805,-0.162457 29.72378,-0.04451 30.94605,0.262105 5.9777,1.499535 8.29011,9.294059 3.96323,13.358956 C 296.41306,94.960583 295.81481,95 265.68555,95 236.33333,95 234.9131,94.913097 233,93 Z m 1.32578,-27.484368 c -4.75049,-3.327376 -4.44198,-11.777527 0.5271,-14.436895 2.89729,-1.550582 58.53648,-1.473992 61.46286,0.08461 3.20556,1.707292 4.62065,3.954168 4.62065,7.336657 0,3.382489 -1.41509,5.629365 -4.62065,7.336657 C 294.80039,66.64374 285.29857,67 265.28825,67 241.40329,67 236.08071,66.744831 234.32578,65.515632 Z M 98.10833,145.9184 C 86.922301,143.72159 73.003235,133.98077 67.408517,124.43411 57.943291,108.28292 58.516586,87.94332 68.858248,73 82.234957,53.671149 106.99223,47.19178 128.5,57.390812 c 28.67117,13.595931 35.35101,52.611818 12.87072,75.175878 -11.51413,11.55704 -27.41414,16.46412 -43.26239,13.35171 z m 296.49609,-3.60724 c -11.95408,-3.1319 -23.57901,-12.40728 -29.02862,-23.16157 -13.61923,-26.876263 -0.47612,-57.852954 28.32477,-66.757996 6.36209,-1.967113 20.0923,-1.886843 26.23482,0.153376 20.06117,6.66325 32.90603,23.807278 32.99979,44.044785 0.0624,13.471855 -4.47578,24.766615 -13.53232,33.679615 -12.16315,11.97037 -28.54172,16.35334 -44.99844,12.04179 z"
     id="path3602"
     inkscape:connector-curvature="0" />
</svg>
