<svg xmlns:inkscape="http://www.inkscape.org/namespaces/inkscape" xmlns:rdf="http://www.w3.org/1999/02/22-rdf-syntax-ns#" xmlns="http://www.w3.org/2000/svg" sodipodi:docname="rights2.svg" height="512" width="512" version="1.1" xmlns:cc="http://creativecommons.org/ns#" xmlns:dc="http://purl.org/dc/elements/1.1/" inkscape:version="0.91 r13725" viewBox="0 0 512.00001 512.00001" xmlns:sodipodi="http://sodipodi.sourceforge.net/DTD/sodipodi-0.dtd">
	<sodipodi:namedview bordercolor="#666666" inkscape:pageshadow="2" inkscape:window-y="-8" pagecolor="#ffffff" inkscape:window-height="1017" inkscape:window-maximized="1" inkscape:zoom="0.35" inkscape:window-x="-8" showgrid="false" borderopacity="1.0" inkscape:current-layer="layer1" inkscape:cx="-126.42857" inkscape:cy="520" units="px" inkscape:window-width="1920" inkscape:pageopacity="0.0" inkscape:document-units="px"/>
	<g inkscape:label="Layer 1" inkscape:groupmode="layer" transform="translate(0 -540.36)">
		<path inkscape:connector-curvature="0" d="m371.4 1008.9c-16.418-1.5709-31.523-10.578-40.644-24.235-7.6932-11.52-9.8063-20.763-9.8185-42.951l-0.005-9.9792h-80.099-80.099v-27.886c0-26.213-0.0627-28.089-1.0454-31.268-3.0608-9.9039-11.939-16.986-22.393-17.862-4.5179-0.3788-10.435 0.8932-14.215 3.0559-5.4576 3.1223-10.713 9.8099-12.324 15.682-0.38928 1.4192-0.58527 11.489-0.58785 30.204l-0.004 28.075h-55.081-55.081v-135.45-135.45h39.917 39.917l0.002-11.842c0.002-13.27 0.58093-19.37 2.4534-25.833 4.8588-16.773 18.5-31.055 35.067-36.714 7.9642-2.7204 18.72-3.6281 27.02-2.2803 20.874 3.3897 38.348 18.984 44.236 39.479 1.7012 5.9212 2.4526 14.168 2.4548 26.945l0.002 10.245h64.931 64.931v-9.5027c0-17.959 1.31-26.706 5.3254-35.562 2.5215-5.5611 6.9787-11.787 11.79-16.468 10.987-10.69 23.526-15.737 39.037-15.712 24.194 0.0392 45.735 16.18 52.659 39.457 1.7689 5.9468 2.4166 12.749 2.4198 25.414l0.005 12.374h39.917 39.917v135.45 135.45h-39.857-39.857l-0.25094 15.035c-0.23333 13.98-0.34626 15.395-1.6099 20.163-3.2708 12.341-9.6543 22.382-18.965 29.831-11.438 9.1515-25.794 13.501-40.06 12.136zm11.247-30.37c7.9078-1.8223 15.565-8.9282 18.221-16.908 1.1456-3.4426 1.184-4.3274 1.3738-31.616l0.19522-28.075h39.879 39.879v-105.65-105.65h-39.879-39.879l-0.19522-28.075c-0.18979-27.289-0.22822-28.174-1.3738-31.616-2.7475-8.2566-10.299-15.065-18.806-16.957-4.0512-0.90079-10.595-0.42956-14.424 1.0387-6.315 2.4214-12.257 8.3457-14.879 14.834-1.2177 3.0134-1.225 3.1808-1.3788 31.902l-0.15461 28.873h-40.161-40.161v25.014 25.014h10.854c19.418 0 27.242 1.4511 37.484 6.9526 12.908 6.933 22.543 18.96 27.049 33.762 1.3698 4.5007 1.4579 5.4009 1.4579 14.902 0 9.5014-0.0881 10.402-1.4579 14.902-4.8087 15.799-14.986 27.896-29.35 34.888-9.6788 4.7112-16.193 5.8026-34.728 5.8177l-11.31 0.01v25.014 25.014h40.183 40.183v27.564c0 30.028 0.0801 30.977 3.0774 36.484 1.8363 3.3739 6.8278 8.4644 9.8007 9.995 5.6599 2.9139 12.717 3.8891 18.501 2.5564zm-302.81-88.16c0.007-18.281 1.1065-24.783 5.8284-34.461 7.2375-14.835 20.19-25.376 36.385-29.608 6.1511-1.6078 16.6-1.948 22.974-0.7482 18.002 3.3881 32.607 14.574 40.471 30.996 4.2163 8.8045 5.5664 17.326 5.5695 35.153l0.002 10.245h25.014 25.014v-40.161-40.161l29.139-0.1544 29.139-0.1545 4.0748-1.9459c11.243-5.3689 17.077-17.634 14.003-29.437-2.2577-8.668-9.4171-15.871-18.078-18.188-2.0594-0.5509-8.9488-0.7133-30.47-0.7182l-27.809-0.01v-40.183-40.183h-40.183-40.183v-27.845c0-24.047-0.11689-28.239-0.85704-30.736-4.5929-15.492-21.704-23.101-35.866-15.947-5.8129 2.9363-10.952 8.8826-12.773 14.779-1.0224 3.3102-1.0759 4.8838-1.0741 31.616l0.002 28.133h-40.179-40.179v105.65 105.65h25.014 25.014l0.004-11.576z"/>
	</g>
</svg>
