<svg width="512" height="512" version="1.1" viewBox="0 0 512 512" xmlns="http://www.w3.org/2000/svg">
 <path d="m15.689 510.88c-4.7082-1.4808-11.279-7.0555-13.527-11.475l-1.8569-3.6515-0.1993-238.33c-0.2192-262.09-0.5849-242.07 4.5348-248.25 3.1225-3.7696 7.8159-6.6385 13.174-8.0526 3.7998-1.0029 18.262-1.1118 147.64-1.1118 161.13 0 148.29-0.42687 155.52 5.1725 7.4597 5.7816 180 149.61 183.9 153.3 2.5289 2.3911 4.6776 5.2803 5.6568 7.6064 1.5712 3.7324 1.578 4.5462 1.3792 167.06l-0.19974 163.31-1.8157 3.2767c-2.5725 4.6424-8.1112 9.2432-13.141 10.916-4.1804 1.3901-5.3906 1.3969-240.97 1.3424-209.06-0.0483-237.16-0.17713-240.09-1.1009zm447.3-184.36-3e-4 -143.25-167.22-140.94-247.52-0.0606v427.5h414.74zm-224.02 53.848c-39.139-6.2522-64.945-27.698-67.3-55.927l-0.4768-5.7162h39.211v2.9723c0 7.4508 4.8947 17.376 10.959 22.222 8.2367 6.5819 19.061 9.8769 34.646 10.547 21.177 0.91046 35.559-4.6654 41.76-16.191 2.6367-4.9008 2.9738-13.134 0.7984-19.5-3.624-10.604-13.238-15.971-45.889-25.62-20.598-6.0868-32.102-10.363-42.177-15.677-21.245-11.206-32.085-26.529-32.047-45.3 0.017-8.61 1.5481-14.825 5.3688-21.799 6.4905-11.848 19.629-22.133 35.443-27.745 18.914-6.7127 49.608-7.8013 68.431-2.427 7.7144 2.2026 20.001 7.8094 25.978 11.855 13.991 9.4695 23.45 24.753 25.053 40.482l0.5215 5.1148h-38.97l-0.5054-4.8327c-1.3429-12.842-10.361-22.435-24.898-26.487-7.5142-2.094-26.35-2.2591-33.645-0.295-10.504 2.8279-17.604 7.57-21.252 14.194-1.9117 3.4715-2.1539 4.6864-2.1609 10.838-0.01 6.0205 0.246 7.3704 1.9286 10.298 4.9198 8.5616 17.049 14.628 46.398 23.205 26.522 7.7511 39.264 13.031 50.446 20.904 9.6356 6.7844 17.2 16.711 20.578 27.005 1.176 3.5837 1.4727 6.6974 1.4528 15.243-0.023 9.9389-0.1874 11.152-2.2013 16.276-7.3291 18.646-24.699 30.627-51.922 35.811-11.087 2.1116-34.014 2.388-45.527 0.5489z" stroke-width=".73495"/>
</svg>
