<svg xmlns:rdf="http://www.w3.org/1999/02/22-rdf-syntax-ns#" xmlns="http://www.w3.org/2000/svg" height="512" width="512" version="1.1" xmlns:cc="http://creativecommons.org/ns#" xmlns:dc="http://purl.org/dc/elements/1.1/" viewBox="0 0 512.00001 512.00001">
	<g transform="translate(0 -540.36)">
		<path d="m0.26584 796.36v-256h203.36 203.36l52.374 58.185 52.374 58.185v197.82 197.82h-255.73-255.73v-256zm104.74 105.01v-111.65h150.99 150.99v111.65 111.65h32.698 32.698v-170.08-170.08l-32.565-36.496-32.565-36.496-0.13509 62.223-0.13516 62.223h-150.99-150.99v-72.307-72.307h-32.698-32.698v216.66 216.66h32.698 32.698v-111.65zm262.65 19.672v-91.979h-111.65-111.65v91.979 91.979h111.65 111.65v-91.979zm0-288.7v-52.636h-19.672-19.672v32.698 32.698h-19.672-19.672v-32.698-32.698h-72.307-72.307v52.636 52.635h111.65 111.65v-52.635z"/>
	</g>
</svg>
