<svg xmlns:inkscape="http://www.inkscape.org/namespaces/inkscape" xmlns:rdf="http://www.w3.org/1999/02/22-rdf-syntax-ns#" xmlns="http://www.w3.org/2000/svg" sodipodi:docname="select-shipper-stroke.svg" height="512" width="512" version="1.1" xmlns:cc="http://creativecommons.org/ns#" xmlns:dc="http://purl.org/dc/elements/1.1/" inkscape:version="0.91 r13725" viewBox="0 0 512.00001 512.00001" xmlns:sodipodi="http://sodipodi.sourceforge.net/DTD/sodipodi-0.dtd">
	<sodipodi:namedview bordercolor="#666666" inkscape:pageshadow="2" inkscape:window-y="-8" pagecolor="#ffffff" inkscape:window-height="1017" inkscape:window-maximized="1" inkscape:zoom="0.35" inkscape:window-x="-8" showgrid="false" borderopacity="1.0" inkscape:current-layer="layer1" inkscape:cx="-126.42857" inkscape:cy="748.57143" units="px" inkscape:window-width="1920" inkscape:pageopacity="0.0" inkscape:document-units="px"/>
	<g inkscape:label="Layer 1" inkscape:groupmode="layer" transform="translate(0 -540.36)">
		<path inkscape:connector-curvature="0" d="m59.991 1034.5c-18.081-3.5509-32.727-20.177-33.902-38.483-0.54932-8.5597 0.74501-14.617 4.8572-22.731 1.6115-3.1798 2.93-5.993 2.93-6.2516 0-0.25862-6.5267-0.47022-14.504-0.47022-13.108 0-14.694-0.1901-16.479-1.9751-1.0863-1.0863-2.2258-2.9993-2.5321-4.2511-0.30638-1.2518-0.43035-37.485-0.2755-80.519l0.28155-78.243 2.2783-2.2781 2.2783-2.2781 162.76-0.28627c89.52-0.15745 164.16-0.0362 165.88 0.26938 2.4123 0.43069 8.6775 6.1488 27.858 25.425l24.746 24.87 8.8817 0.42464c7.6304 0.36483 9.2368 0.75824 11.402 2.7925l2.5205 2.3679v54.666 54.666l-2.315 2.1749c-2.1523 2.022-3.3125 2.1749-16.504 2.1749-7.8041 0-14.189 0.38689-14.189 0.85977 0 0.47286 1.3648 3.5111 3.0329 6.7517 8.3692 16.259 5.2138 35.146-8.0831 48.38-13.449 13.386-31.909 16.393-48.643 7.9245-13.127-6.6431-21.94-19.758-23.038-34.283-0.64819-8.5705 0.53388-14.115 4.8724-22.853 1.5628-3.1476 2.8415-5.9609 2.8415-6.2516 0-0.29076-22.956-0.52866-51.013-0.52866s-51.013 0.2116-51.013 0.47022c0 0.25861 1.3185 3.0718 2.93 6.2516 6.5107 12.846 6.7906 25.086 0.85641 37.444-12.926 26.918-46.673 32.808-67.754 11.826-13.336-13.273-16.391-31.789-7.993-48.439 1.6185-3.2087 2.9427-6.2207 2.9427-6.6933 0-0.47262-7.4269-0.85931-16.504-0.85931-9.0774 0-16.504 0.37822-16.504 0.8405 0 0.46227 1.3283 3.5006 2.9518 6.7518 6.7948 13.607 6.0383 28.831-2.0478 41.206-9.833 15.049-26.826 22.472-43.807 19.138zm17.896-18.002c12.707-5.7455 18.825-19.294 14.476-32.058-4.4562-13.078-18.444-19.791-32.886-15.781-5.2374 1.4542-14.049 10.266-15.504 15.504-1.828 6.5838-1.327 14.37 1.2857 19.981 5.5792 11.982 20.748 17.725 32.628 12.354zm101.15 0.5508c10.073-3.4322 16.853-12.873 16.861-23.478 0.007-8.7391-1.5929-12.742-7.4213-18.57-5.8284-5.8284-9.831-7.428-18.57-7.4214-18.064 0.0138-30.316 19.24-22.619 35.494 5.9153 12.491 19.088 18.29 31.749 13.976zm172.45-0.838c6.3207-2.9433 12.795-10.171 14.47-16.154 5.6022-20.009-12.824-37.423-33.155-31.332-9.5261 2.8541-16.853 13.453-16.831 24.346 0.0376 18.486 18.991 30.835 35.516 23.14zm-317.37-108.54l0.26081-42.761 8.2521-0.29052 8.2521-0.29051v43.052 43.052h102.53 102.53v-68.518-68.518h-119.53-119.53v68.518 68.518h8.4915 8.4915l0.2608-42.761zm-0.23932-68.768v-8.5022h8.5022 8.5022v8.5022 8.5022h-8.5022-8.5022v-8.5022zm358.85 68.268 0.26079-42.761h-60.026-60.026v43.019 43.019l59.765-0.25794 59.765-0.25793 0.26081-42.761zm-51.774-17.254v-8.5022h17.004 17.004v8.5022 8.5022h-17.004-17.004v-8.5022zm5.5014-59.515-16.982-17.004h-28.268-28.268v17.004 17.004h45.251 45.251l-16.982-17.004zm-68.052-51.958c-1.1194-0.45767-2.5551-1.4585-3.1905-2.2241-0.63538-0.76558-5.2304-17.674-10.211-37.574-7.5026-29.976-8.8788-36.648-8.0231-38.899 1.9988-5.2572 2.343-5.3144 32.212-5.3486 15.266-0.0175 27.757-0.31002 27.757-0.65007 0-1.1149 6.9718-56.82 7.5059-59.972 0.28658-1.6916 1.4332-4.0547 2.5481-5.2514l2.027-2.1758h76.026 76.026l2.4552 2.4552 2.4552 2.4552v31.554 31.554h10.414c10.401 0 10.417 0.004 13.003 3.0775 1.4243 1.6926 2.5896 3.5484 2.5896 4.1239 0 0.57553-4.0789 17.308-9.0642 37.183-6.4699 25.794-9.627 36.709-11.03 38.137-1.939 1.9728-3.4193 2.0032-106.72 2.1944-57.612 0.10661-105.67-0.18063-106.78-0.6383zm202.5-19.811c5.2519-19.926 11.73-47.29 11.298-47.722-0.72173-0.72173-215.77-0.69841-216.49 0.0235-0.31009 0.31009 2.3156 11.802 5.8348 25.539 3.5193 13.736 6.3986 25.185 6.3986 25.443 0 0.25748 43.194 0.46814 95.986 0.46814h95.986l0.98863-3.751zm-11.414-90.273v-25.507l-64.767-0.25735c-51.481-0.20458-64.768 0.00062-64.773 1.0002-0.003 0.69169-1.351 11.835-2.9946 24.764-1.6437 12.928-2.9913 24.072-2.9946 24.763-0.005 0.99978 13.874 1.2047 67.761 1.0003l67.768-0.25706v-25.507zm-111.53 0v-9.0023h17.505 17.505v9.0023 9.0023h-17.505-17.505v-9.0023zm-293.06 75.73c-1.3587-0.68753-3.1258-2.4177-3.9268-3.8448-1.3373-2.3825-0.82846-5.7353 6.2217-40.996 4.223-21.121 7.678-38.739 7.6778-39.152-0.0002-0.4126-15.67-0.75019-34.821-0.75019-33.415 0-34.907-0.0806-36.963-1.9966-1.1787-1.0981-2.4103-3.4612-2.7369-5.2514-0.3266-1.7901-0.45985-22.71-0.29613-46.489l0.2977-43.234 2.2767-2.2775c2.1287-2.1295 3.2423-2.2996 17.131-2.6169 11.725-0.26784 15.463-0.0247 17.742 1.1539 2.2589 1.1681 4.5684 4.8899 10.607 17.094l7.7197 15.6h86.892c60.861 0 87.842 0.33116 90.063 1.1055 1.7441 0.60801 3.6654 2.029 4.2695 3.1577 2.8624 5.3484 18.897 55.452 18.393 57.475-0.30421 1.2226-1.5328 3.1356-2.7301 4.2511-2.115 1.9704-3.3692 2.0282-44.024 2.0282h-41.847l-4.5118 6.2516c-2.4815 3.4384-15.862 22.442-29.733 42.229-18.748 26.744-25.863 36.153-27.722 36.66-4.678 1.2758-37.314 0.95073-39.98-0.39816zm56.635-49.24c12.772-18.155 23.252-33.571 23.288-34.259 0.0507-0.97028-5.8386-1.2503-26.294-1.2503h-26.36l-6.6492 33.259c-3.6571 18.292-6.649 33.838-6.6488 34.545 0.00031 0.97992 2.3173 1.2183 9.7214 1.0003l9.721-0.28629 23.222-33.009zm66.154-60.266 0.29052-8.2521h8.4618 8.4617v8.5022 8.5022h14.945c8.2197 0 15.14-0.33759 15.378-0.75019 0.23851-0.41261-2.098-8.1771-5.1923-17.254l-5.626-16.504-103.78-0.25471-103.78-0.25472v17.515 17.515l85.272-0.25568 85.272-0.25569 0.29051-8.2521zm-150.82-43.78c0-0.28728-1.8055-4.1133-4.0122-8.5022l-4.0122-7.9799h-5.9904-5.9904v8.5022 8.5022h10.003c5.5014 0 10.003-0.23505 10.003-0.52234z"/>
	</g>
</svg>
