<?xml version="1.0" encoding="UTF-8" standalone="no"?>
<!-- Created with Inkscape (http://www.inkscape.org/) -->

<svg
   xmlns:dc="http://purl.org/dc/elements/1.1/"
   xmlns:cc="http://creativecommons.org/ns#"
   xmlns:rdf="http://www.w3.org/1999/02/22-rdf-syntax-ns#"
   xmlns:svg="http://www.w3.org/2000/svg"
   xmlns="http://www.w3.org/2000/svg"
   xmlns:sodipodi="http://sodipodi.sourceforge.net/DTD/sodipodi-0.dtd"
   xmlns:inkscape="http://www.inkscape.org/namespaces/inkscape"
   width="512"
   height="512"
   viewBox="0 0 511.99999 511.99999"
   id="svg2"
   version="1.1"
   inkscape:version="0.91 r13725"
   sodipodi:docname="services.svg">
  <defs
     id="defs4" />
  <sodipodi:namedview
     id="base"
     pagecolor="#ffffff"
     bordercolor="#666666"
     borderopacity="1.0"
     inkscape:pageopacity="0.0"
     inkscape:pageshadow="2"
     inkscape:zoom="1"
     inkscape:cx="199.5"
     inkscape:cy="200"
     inkscape:document-units="px"
     inkscape:current-layer="layer1"
     showgrid="false"
     units="px"
     inkscape:window-width="1920"
     inkscape:window-height="1057"
     inkscape:window-x="-8"
     inkscape:window-y="-8"
     inkscape:window-maximized="1" />
  <metadata
     id="metadata7">
    <rdf:RDF>
      <cc:Work
         rdf:about="">
        <dc:format>image/svg+xml</dc:format>
        <dc:type
           rdf:resource="http://purl.org/dc/dcmitype/StillImage" />
        <dc:title></dc:title>
      </cc:Work>
    </rdf:RDF>
  </metadata>
  <g
     inkscape:label="Layer 1"
     inkscape:groupmode="layer"
     id="layer1"
     transform="translate(0,-540.36219)">
    <path
       style="fill:#000000"
       d="m 231.13341,1017.5129 0,-34.84916 6.38245,3.4329 c 8.69293,4.67564 13.82665,5.28359 20.40616,2.41657 14.44137,-6.29282 23.65329,-25.83224 23.65329,-50.1711 0,-23.27969 -8.20817,-41.86442 -21.5041,-48.68907 -7.20617,-3.69885 -13.43756,-3.40139 -22.06728,1.05341 l -6.87052,3.54666 0,-27.20711 c 0,-25.44752 -0.12302,-27.31987 -1.90207,-28.9507 -1.04615,-0.95899 -2.1922,-3.31007 -2.54679,-5.22465 l -0.64471,-3.48103 -33.97429,0 c -18.68587,0 -33.9743,0.27165 -33.9743,0.60367 0,0.33203 0.8219,1.81429 1.82645,3.29392 5.61765,8.27436 6.32028,19.56228 1.77619,28.53478 -5.29063,10.44654 -17.11969,19.12821 -31.11852,22.8387 -8.16232,2.16349 -24.25391,2.16011 -32.518774,-0.007 -20.730904,-5.43538 -34.478701,-19.67623 -34.331155,-35.56241 0.05831,-6.27802 2.723634,-14.21508 6.007991,-17.89116 1.550421,-1.73508 0.133448,-1.81041 -34.057853,-1.81041 l -35.675579,0 0,-44.25403 0,-44.25404 6.7538982,6.60439 c 10.5428618,10.30949 19.8418478,13.97412 30.3413408,11.95719 7.457397,-1.43255 11.797885,-3.83442 17.733377,-9.81299 6.267635,-6.31314 9.670194,-13.30427 11.374331,-23.3705 3.068921,-18.12791 -5.863822,-37.49937 -20.702765,-44.89583 -4.096606,-2.04194 -6.480956,-2.48067 -13.481702,-2.48067 -10.624898,0 -15.032847,1.99688 -24.9612085,11.30784 L 0,696.8094 l 0,-44.18266 0,-44.18265 34.019635,0 c 18.7108,0 34.019636,0.36323 34.019636,0.80719 0,0.44395 -1.565683,3.75053 -3.479295,7.34796 -6.028958,11.33391 -4.012268,21.2275 6.183523,30.33548 10.220271,9.12986 23.214372,13.31787 41.321181,13.31787 18.10681,0 31.10091,-4.18801 41.32118,-13.31787 10.1958,-9.10798 12.21248,-19.00157 6.18353,-30.33548 -1.91361,-3.59743 -3.4793,-6.89818 -3.4793,-7.335 0,-0.43682 15.84316,-0.91407 35.20702,-1.06057 l 35.20702,-0.26634 0.83912,-3.28116 c 1.53099,-5.98656 3.44563,-6.3472 33.69706,-6.3472 l 27.00454,0 -1.54468,-4.59199 c -2.26205,-6.72459 -1.49559,-18.80642 1.59983,-25.21832 3.75006,-7.76795 13.28374,-16.8993 22.07903,-21.14728 10.48047,-5.06188 18.65379,-6.96149 30.07052,-6.98886 16.2499,-0.0389 27.89243,3.47083 39.68118,11.96238 14.07133,10.13571 20.2002,25.83812 15.8085,40.50206 -0.81951,2.73639 -1.4949,5.08928 -1.50086,5.22863 -0.006,0.13936 12.40596,0.25338 27.58202,0.25338 l 27.59285,0 2.92476,2.96258 2.92477,2.96256 0,30.60153 0,30.60151 2.2513,-0.65217 c 7.15683,-2.07322 12.69364,-2.58455 17.65875,-1.63077 19.01605,3.65294 33.3535,23.0095 36.36751,49.09867 4.10945,35.57132 -19.97567,68.4756 -46.63333,63.7089 -3.37822,-0.60408 -6.93017,-1.42093 -7.89322,-1.81524 -1.64494,-0.6735 -1.75101,1.16499 -1.75101,30.34968 l 0,31.0666 -2.45597,2.48771 c -1.35078,1.36824 -2.92669,2.48771 -3.50202,2.48771 -0.70034,0 -1.04605,8.54141 -1.04605,25.84455 0,14.2145 0.39512,25.84455 0.87806,25.84455 0.48293,0 1.42447,-0.6669 2.09231,-1.482 0.66784,-0.8151 3.76222,-2.45275 6.87641,-3.63923 11.14268,-4.24524 22.85735,-1.18657 32.10901,8.38359 19.5809,20.25502 19.67431,61.50301 0.18469,81.55843 -7.33226,7.54511 -12.7888,9.94254 -22.62922,9.94254 -7.19104,0 -8.58938,-0.33567 -13.75794,-3.30258 l -5.75332,-3.30258 0,35.98829 0,35.9884 -43.02484,0 c -23.66366,0 -43.02483,-0.3056 -43.02483,-0.6791 0,-0.3733 2.93768,-3.7611 6.52817,-7.5283 10.35173,-10.8611 13.32608,-20.4911 10.07215,-32.6103 -4.33488,-16.14515 -20.13529,-27.08761 -39.11331,-27.08761 -18.8076,0 -34.47652,10.86823 -39.15103,27.15571 -3.31259,11.5423 -0.20945,21.3858 10.29897,32.6692 3.48649,3.7436 6.33906,7.0932 6.33906,7.4435 0,0.3503 -19.36117,0.6369 -43.02483,0.6369 l -43.02483,0 0,-34.8493 z m 213.12301,-231.27429 0,-35.0429 6.68056,5.61682 c 6.39169,5.37394 13.24092,8.72586 17.83022,8.72586 5.16917,0 12.504,-3.23166 17.34848,-7.64355 9.59842,-8.74136 14.56563,-21.88207 14.54219,-38.47123 -0.028,-19.82651 -7.47542,-35.35496 -20.3639,-42.46043 -9.63528,-5.31196 -19.00266,-3.47829 -30.03409,5.87921 l -5.50318,4.66811 -0.26189,-39.02645 -0.2619,-39.02645 -36.60973,0 -36.60973,0 5.26723,-5.82769 c 7.33695,-8.11765 10.36263,-15.09137 9.6371,-22.21198 -1.31786,-12.93385 -12.66461,-23.62458 -30.05106,-28.31364 -6.83778,-1.84413 -22.82232,-1.79487 -29.97543,0.0923 -17.95767,4.73784 -29.755,16.75312 -29.69837,30.24706 0.0282,6.73413 2.39674,11.90086 8.91276,19.44274 l 5.23951,6.06439 -36.10387,0.26602 -36.10387,0.26603 0,28.99064 0,28.99064 2.2513,-0.6938 c 10.3785,-3.19841 15.91517,-3.08134 22.81142,0.48234 11.26684,5.82221 19.26123,17.94742 23.70567,35.95471 2.29377,9.29356 1.96508,29.41772 -0.64373,39.41272 -4.22435,16.18454 -12.96971,28.69545 -23.54553,33.68374 -5.93978,2.8016 -16.48751,3.25777 -20.57682,0.88989 -1.3758,-0.79664 -2.83914,-1.46461 -3.25188,-1.48435 -0.41274,-0.0198 -0.75043,9.99785 -0.75043,22.26134 l 0,22.29725 29.01675,0 c 15.95921,0 29.01674,-0.20779 29.01674,-0.46174 0,-0.25397 -1.11921,-2.13233 -2.48714,-4.17415 -8.93484,-13.33641 -4.21521,-31.95505 10.73336,-42.34249 7.53607,-5.23666 16.45618,-8.59976 27.822,-10.48956 9.07446,-1.50881 10.57598,-1.51223 17.94917,-0.0408 11.21665,2.23837 23.66419,8.53613 30.44281,15.40238 10.62201,10.75932 12.69969,26.09294 5.07719,37.47052 -1.36793,2.04181 -2.48714,4.14821 -2.48714,4.68089 0,0.5945 11.78508,0.9685 30.51761,0.9685 l 30.51762,0 0,-35.04291 z M 229.5898,764.59491 c 0.31663,-0.51892 0.11806,-1.22996 -0.44123,-1.58009 -0.55929,-0.35012 -1.0169,0.0744 -1.0169,0.94348 0,1.78026 0.60041,2.04239 1.45813,0.63661 z"
       id="path3386"
       inkscape:connector-curvature="0" />
  </g>
</svg>
