<svg width="512" height="512" version="1.1" viewBox="0 0 135.47 135.47" xmlns="http://www.w3.org/2000/svg">
	<g transform="translate(0 -161.53)">
		<path d="m107.27 297a20.948 20.948 0 0 0 18.155-10.614 21.367 21.367 0 0 0-7.681-29.188 20.948 20.948 0 0 0-25.347 3.5612l-1.1172 1.1871-43.712-25.347 0.48879-1.5362a22.694 22.694 0 0 0 0-11.452l-0.41896-1.3267 43.921-25.696 1.1172 1.1871a20.948 20.948 0 0 0 25.347 3.5612 21.367 21.367 0 0 0 7.681-28.978 20.948 20.948 0 0 0-18.155-10.823 20.32 20.32 0 0 0-10.404 2.8629 20.948 20.948 0 0 0-9.7059 24.02l0.41896 1.5362-43.921 25.696-1.1172-1.1871a20.948 20.948 0 0 0-14.943-6.1448 20.32 20.32 0 0 0-10.404 2.8629 20.948 20.948 0 0 0-7.681 28.699 20.948 20.948 0 0 0 28.559 7.8206 21.995 21.995 0 0 0 4.4689-3.4913l1.1172-0.97759 43.642 25.557-0.41896 1.5362a20.948 20.948 0 0 0 9.7059 24.02 20.459 20.459 0 0 0 10.404 2.6534zm-6.4939-126.18a13.477 13.477 0 0 1 6.9827-1.8155 13.965 13.965 0 0 1 11.801 6.9827 13.965 13.965 0 0 1-5.1672 18.364 13.546 13.546 0 0 1-18.714-4.5387 13.965 13.965 0 0 1 5.0974-18.993zm-66.056 70.385a13.546 13.546 0 0 1-18.504-4.9577 13.965 13.965 0 0 1 4.8879-18.853 14.524 14.524 0 0 1 6.9827-1.8853 13.965 13.965 0 0 1 11.731 6.7732 13.965 13.965 0 0 1-5.0974 18.923zm60.819 27.931a13.477 13.477 0 0 1 11.731-6.9827 13.058 13.058 0 0 1 6.9827 1.8853 13.965 13.965 0 0 1 4.9577 18.714 13.477 13.477 0 0 1-18.364 5.1672 13.965 13.965 0 0 1-5.1672-18.923z" stroke-width="6.9827"/>
	</g>
</svg>
