<svg width="512" height="512" version="1.1" viewBox="0 0 512 512" xmlns="http://www.w3.org/2000/svg">
	<g transform="translate(0 -161.53)">
		<path d="m125.81 454.64c21.007-11.787 28.207-37.895 16.076-58.313s-38.99-27.412-59.997-15.625-28.207 37.896-16.076 58.313c12.131 20.417 38.991 27.413 59.997 15.625zm40.527 23.066a87.692 87.692 0 0 1-18.567 13.902c-42.013 23.576-95.736 9.5885-120-31.25-24.259-40.838-9.8593-93.049 32.159-116.63 35.447-19.89 79.228-13.04 106.62 14.111l156.94-88.065c-10.498-36.629 5.2895-76.906 40.735-96.797 42.014-23.575 95.737-9.5885 120 31.25 24.258 40.838 9.8612 93.05-32.153 116.63-35.447 19.892-79.229 13.041-106.62-14.109l-156.94 88.065a82.986 82.986 0 0 1-0.09961 45.987l155.96 87.51c27.389-27.15 71.171-34.001 106.62-14.109 42.013 23.575 56.408 75.791 32.152 116.63s-77.98 54.825-120 31.25c-35.447-19.892-51.235-60.168-40.736-96.797zm263.76-193.82c21.007-11.787 28.207-37.895 16.076-58.313s-38.99-27.413-59.997-15.625c-21.007 11.788-28.207 37.896-16.076 58.313s38.991 27.41 59.997 15.624zm-44.998 341.22c21.006 11.787 47.868 4.7914 59.997-15.625 12.129-20.416 4.9339-46.525-16.076-58.313s-47.869-4.7924-59.997 15.625-4.9301 46.524 16.076 58.313z" stroke-width=".93092" data-name="Path 8"/>
	</g>
</svg>
