<?xml version="1.0" encoding="UTF-8" standalone="no"?>
<svg id="svg2" xmlns:rdf="http://www.w3.org/1999/02/22-rdf-syntax-ns#" xmlns="http://www.w3.org/2000/svg" height="512" width="512" version="1.1" xmlns:cc="http://creativecommons.org/ns#" xmlns:dc="http://purl.org/dc/elements/1.1/" viewBox="0 0 512.00001 512.00001">
	<g id="layer1" transform="translate(0,-540.36216)">
		<path id="path3425" d="m251.5 1051.4486c-4.0195-1.0073-7.6563-2.9638-20.34541-10.9452-53.45584-33.6232-94.69537-75.99915-125.57967-129.04017-37.303441-64.06531-59.160597-144.6002-65.607484-241.73737-1.44288-21.74029-0.669444-25.61834 6.410946-32.14481 4.555465-4.19908 8.728227-5.56871 20.469204-6.71859 14.342396-1.40467 35.248664-9.37246 57.401504-21.87685 7.29717-4.11895 25.18883-14.97885 39.75924-24.13312 37.54433-23.58824 75.53562-42.153 90.21345-44.08354 10.89749-1.43332 51.68381 17.62696 92.27822 43.12349 13.75 8.6361 29.275 18.18745 34.5 21.22521 24.69904 14.3598 46.27167 23.21843 61.59379 25.29303 16.90948 2.28952 18.54548 2.83301 23.55082 7.82385 6.799 6.7793 7.33328 9.65455 5.87713 31.62765-11.03256 166.47888-66.8177 282.86625-171.28473 357.36002-11.47033 8.1793-28.4418 18.9634-35.23701 22.3905-3.88391 1.9588-10.20317 2.7875-14 1.8359zm17.31722-131.4938c16.4817-8.35191 19.67508-28.03365 6.66016-41.04858-5.088-5.08799-9.08171-6.80901-16.97738-7.31611-8.71694-0.55984-13.9563 0.81297-19.62655 5.14253-12.03592 9.19011-13.72317 26.88297-3.57277 37.46486 8.59148 8.95669 22.49112 11.3443 33.51654 5.7573zm4.40481-74.84262c1.42775-1.11245 1.78984-11.01877 3.29061-90.02767 1.32936-69.98503 1.42766-89.08934 0.4644-90.25-1.00448-1.21032-4.89269-1.46961-21.84948-1.45702-11.34516 0.008-21.25921 0.41522-22.03122 0.90399-1.2027 0.76144-1.09164 13.10787 0.77572 86.23469 1.19866 46.9403 2.16781 87.00137 2.15366 89.02458-0.045 6.43523 1.05076 6.82143 19.35458 6.82143 11.46767 0 16.7087-0.36719 17.84173-1.25z"/>
	</g>
</svg>
