<?xml version="1.0" encoding="UTF-8" standalone="no"?>
<svg id="svg2" xmlns:rdf="http://www.w3.org/1999/02/22-rdf-syntax-ns#" xmlns="http://www.w3.org/2000/svg" height="512" width="512" version="1.1" xmlns:cc="http://creativecommons.org/ns#" xmlns:dc="http://purl.org/dc/elements/1.1/" viewBox="0 0 512.00001 512.00001">
	<g id="layer1" transform="translate(0,-540.36216)">
		<path id="path3464" d="m249 1050.917c-4.59658-1.713-25.14699-14.5263-38.19788-23.8166-34.54491-24.591-66.04737-56.5305-89.98975-91.23822-46.585841-67.53246-73.87446-157.11636-80.875347-265.5-1.384115-21.42805-0.853767-24.87263 4.791631-31.12141 4.972011-5.50343 7.974974-6.82434 18.069036-7.94804 26.513318-2.95153 45.40064-11.62237 100.70231-46.23063 28.36169-17.74899 65.18797-37.09117 79.5-41.7556 14.33352-4.67143 22.01538-3.04804 49.93514 10.55268 23.43531 11.41619 28.88834 14.49423 58.97586 33.28982 51.196 31.98198 71.72811 41.29797 97.29131 44.14373 10.09194 1.12346 13.09725 2.44486 18.06407 7.94254 5.78924 6.408 6.25081 9.35893 4.83349 30.90224-9.1499 139.07953-49.66054 242.91685-123.57005 316.73614-21.86235 21.83565-42.43666 38.08915-69.86172 55.19025-16.21432 10.1105-21.81175 11.7808-29.6681 8.8531zm-4.61947-197.06515c1.75053-0.83068 27.30307-25.69318 56.78343-55.25 58.37165-58.52305 56.82473-56.65961 53.49139-64.43699-0.77853-1.81647-6.35222-8.14018-12.38599-14.05268l-10.97047-10.75h-5.34764-5.34764l-40.80161 40.72198-40.80162 40.72198-23.25019-23.11716c-24.96882-24.82597-26.36456-25.80195-32.8966-23.00342-1.84447 0.79023-8.13614 6.32824-13.98147 12.3067-11.69702 11.96341-13.04236 14.63338-10.47252 20.78387 1.68375 4.02977 72.02751 75.01679 75.86741 76.56118 3.35417 1.34903 6.57324 1.19451 10.11352-0.48546z"/>
	</g>
</svg>
