<svg xmlns:inkscape="http://www.inkscape.org/namespaces/inkscape" xmlns:rdf="http://www.w3.org/1999/02/22-rdf-syntax-ns#" xmlns="http://www.w3.org/2000/svg" sodipodi:docname="sheild-ok3.svg" height="512" width="512" version="1.1" xmlns:cc="http://creativecommons.org/ns#" xmlns:dc="http://purl.org/dc/elements/1.1/" inkscape:version="0.91 r13725" viewBox="0 0 512.00001 512.00001" xmlns:sodipodi="http://sodipodi.sourceforge.net/DTD/sodipodi-0.dtd">
	<sodipodi:namedview bordercolor="#666666" inkscape:pageshadow="2" inkscape:window-y="-8" pagecolor="#ffffff" inkscape:window-height="1017" inkscape:window-maximized="1" inkscape:zoom="0.35" inkscape:window-x="-8" showgrid="false" borderopacity="1.0" inkscape:current-layer="layer1" inkscape:cx="-126.42857" inkscape:cy="520" units="px" inkscape:window-width="1920" inkscape:pageopacity="0.0" inkscape:document-units="px"/>
	<g inkscape:label="Layer 1" inkscape:groupmode="layer" transform="translate(0 -540.36)">
		<path inkscape:connector-curvature="0" d="m245.64 1049.7c-81.27-28.6-139.75-77.71-171.18-143.88-18.128-38.164-27.649-78.548-32.119-136.23-1.0777-13.909-1.5115-72.376-0.81125-109.34 0.66675-35.196 0.56407-34.421 5.2457-39.603 4.4273-4.9005 6.8252-5.4848 25.824-6.2921 23.261-0.98839 38.445-2.8439 56.843-6.9462 42.085-9.3842 76.972-27.894 110.38-58.563 6.4295-5.903 9.6569-7.788 14.265-8.332 6.541-0.77209 10.198 1.1823 21.766 11.633 26.165 23.637 53.312 39.284 86.328 49.755 23.851 7.5649 45.903 11.128 77.066 12.452 18.786 0.79824 21.083 1.3364 25.632 6.0054 4.7682 4.8934 4.8189 5.2072 5.3429 33.034 1.1184 59.396 0.64481 99.831-1.4735 125.79-3.9906 48.913-14.39 90.906-31.361 126.63-26.614 56.029-72.707 100.05-135.21 129.12-19.903 9.2574-41.656 17.437-46.338 17.424-1.4634-0.01-6.0541-1.1998-10.202-2.6574zm15.892-36.335c15.64-5.7824 34.929-14.889 49.576-23.405 20.951-12.182 36.705-24.209 52.443-40.037 40.837-41.072 62.331-92.942 69.19-166.97 2.3818-25.707 3.0452-62.869 1.9958-111.79l-0.44961-20.96-11.717-0.82998c-54.221-3.8407-100.68-19.386-141.28-47.279-8.6143-5.9173-14.628-10.488-20.642-15.689-2.304-1.9927-4.4292-3.6231-4.7227-3.6231-0.29341 0-2.4186 1.6412-4.7226 3.647-2.304 2.0059-7.274 5.9677-11.044 8.8042-42.8 32.198-92.406 49.999-150.88 54.141l-11.717 0.82994-0.45026 23.016c-1.4046 71.803 0.14497 106.03 6.5044 143.67 14.383 85.124 57.715 144.03 134.07 182.26 10.489 5.2517 35.699 15.967 38.023 16.162 0.25706 0.021 2.8792-0.8526 5.827-1.9424zm-35.51-150.45c-1.364-0.5104-3.5234-1.5783-4.7987-2.3731-3.9713-2.4752-54.397-53.676-55.848-56.706-1.8056-3.7714-1.798-11.362 0.0149-15.015 3.0904-6.2285 9.3248-10.143 16.153-10.143 7.2946 0 8.6431 1.0032 30.155 22.432l19.573 19.498 44.202-44.219c29.258-29.269 45.141-44.675 46.978-45.57 8.7082-4.2393 19.4-0.71785 23.758 7.825 0.77687 1.5228 1.565 4.6694 1.7515 6.9924 0.69087 8.6068 2.8028 6.1498-54.535 63.446-36.133 36.106-52.108 51.623-54.249 52.69-3.7495 1.8691-9.8068 2.3948-13.155 1.1418z"/>
	</g>
</svg>
