<?xml version="1.0" encoding="UTF-8" standalone="no"?>
<svg id="svg2" xmlns:rdf="http://www.w3.org/1999/02/22-rdf-syntax-ns#" xmlns="http://www.w3.org/2000/svg" height="512" width="512" version="1.1" xmlns:cc="http://creativecommons.org/ns#" xmlns:dc="http://purl.org/dc/elements/1.1/" viewBox="0 0 512.00001 512.00001">
	<g id="layer1" transform="translate(0,-540.36216)">
		<path id="path3360" d="m41.5 1051.3299c-18.323486-3.7875-33.0260317-16.9237-39.1372381-34.9677-1.79413239-5.2974-1.8627619-13.4028-1.8627619-220.00002 0-206.5972 0.0686295-214.70264 1.8627619-220 5.2089357-15.37993 16.8505631-27.39289 32.2179631-33.24562l5.919275-2.25438h215.5 215.5l5.91927 2.25438c15.3674 5.85273 27.00903 17.86569 32.21797 33.24562 1.79413 5.29736 1.86276 13.4028 1.86276 220 0 206.59722-0.0686 214.70262-1.86276 220.00002-5.20894 15.3799-16.85057 27.3929-32.21797 33.2456l-5.91927 2.2544-213 0.1473c-117.15 0.081-214.8-0.2248-217-0.6796zm303.31789-105.97581c30.58454-7.33215 53.99066-30.43916 62.2879-61.49191 5.31292-19.88384 1.45426-45.99993-9.36751-63.40092-2.11936-3.40786-2.21974-4.44917-1.88933-19.59908 0.25551-11.71595-0.0999-18.67753-1.32726-26-1.92718-11.49733-7.91052-30.3537-12.57594-39.63288-13.52489-26.89997-36.97345-50.35081-63.81287-63.81908-21.59396-10.83604-51.96091-16.54907-75.07924-14.12489l-10.44636 1.0954-7.55364-3.90971c-12.82365-6.63744-23.77167-9.21389-39.07514-9.19572-38.27382 0.0454-70.96862 25.6859-81.08123 63.58688-1.58163 5.92776-2.15451 11.10837-2.21162 20-0.0933 14.52451 2.1989 24.46987 8.75824 38l4.36315 9-0.99716 7.5c-1.34256 10.09779-0.3841 28.36809 2.13724 40.74053 11.37055 55.79622 53.23456 97.96312 109.55288 110.3455 11.83604 2.60233 32.51977 3.53604 44.6125 2.01392l9.42604-1.18646 8.62041 4.03966c12.22871 5.73057 21.93542 7.88836 35.84105 7.96744 8.23142 0.0468 13.86415-0.50137 19.81789-1.92868zm-114.31789-46.55101c-16.14984-2.98375-28.15741-8.50552-41.21539-18.9532-15.97197-12.77915-21.94851-27.28764-16.16346-39.23796 3.14876-6.50447 8.43426-9.62474 16.30357-9.62474 8.47478 0 13.3866 2.99412 26.07528 15.89484 9.22605 9.38023 10.61916 10.40428 18 13.23151 10.96831 4.2014 18.87112 5.57248 29.21816 5.06912 6.68085-0.32501 10.12639-1.04489 14.40185-3.00901 13.66424-6.27725 21.05603-18.76899 16.41591-27.742-4.45181-8.60885-19.02048-15.12576-43.88921-19.63268-39.70317-7.19535-65.56097-22.71041-73.68487-44.21201-2.71523-7.18643-2.9235-19.85574-0.48015-29.20768 6.55877-25.10369 25.75079-42.37989 52.7743-47.50617 10.28575-1.95117 33.82347-1.9755 44.86302-0.0464 15.50709 2.70982 29.14315 8.68037 41.67708 18.24831 16.1614 12.33702 20.82391 26.19634 12.86095 38.22919-2.65108 4.00609-9.51844 8.05798-13.65704 8.05798-3.96922 0-10.07095-3.63056-19.29328-11.4796-15.70683-13.36793-25.23942-18.65409-36.96497-20.49841-18.44139-2.90065-38.57881 7.45397-41.73805 21.4616-1.14907 5.09483 0.36614 9.49649 4.73393 13.75204 5.30176 5.16549 10.21258 7.01372 31.26237 11.76582 46.0408 10.39395 60.99095 16.68198 74.82621 31.47192 9.014 9.636 14.15766 21.64055 14.16821 33.06653 0.0197 21.29179-14.76903 41.35383-39.67342 53.82016-13.48771 6.75151-19.32907 7.88929-42.321 8.24327-14.98328 0.23068-22.65287-0.0821-28.5-1.16243z"/>
	</g>
</svg>
