<svg xmlns:rdf="http://www.w3.org/1999/02/22-rdf-syntax-ns#" xmlns="http://www.w3.org/2000/svg" height="512" width="512" version="1.1" xmlns:cc="http://creativecommons.org/ns#" xmlns:dc="http://purl.org/dc/elements/1.1/" viewBox="0 0 512.00001 512.00001">
	<g transform="translate(0 -540.36)">
		<path d="m232 1051.2c-76.83-7-146.6-48.9-189.46-113.73-36.931-55.84-50.129-121.1-38.049-188.11 12.219-67.78 52.099-127.91 110.4-166.46 36.23-23.96 75.41-37.61 119.11-41.51 93.093-8.2978 183.2 35.219 235.35 113.66 36.919 55.533 50.242 121.28 38.158 188.31-10.493 58.207-42.07 111.96-88.274 150.28-19.278 15.986-47.818 32.781-70.735 41.625-35.532 13.712-77.793 19.499-116.5 15.955zm51-43.307c46.79-6.2836 90.319-27.777 123.55-61.005 33.227-33.227 54.721-76.756 61.005-123.55 1.8586-13.84 1.8257-40.025-0.0685-54.474-8.29-63.14-46.57-121.86-100.65-154.34-35.12-21.08-70.66-31.1-110.54-31.15-40.25-0.05-75.37 9.82-111.3 31.28-53.706 32.08-92.219 91.19-100.48 154.23-1.9434 14.825-1.9434 40.124 0 54.949 5.9945 45.729 27.964 90.099 60.936 123.07 32.67 32.67 76.95 54.745 122.17 60.902 13.247 1.8041 42.308 1.8578 55.379 0.1024zm-42-63.011c-0.825-0.19789-4.875-0.90605-9-1.5737-29.36-4.74-61.28-24.74-79.17-49.59-9.55-13.26-19.83-36.13-19.83-44.11 0-8.7367 7.0522-18.029 15.249-20.093 6.8388-1.722 9.785-1.4532 15.548 1.4185 6.0892 3.0344 8.3464 5.8995 11.73 14.89 10.52 27.95 31.507 47.225 59.485 54.635 11.957 3.1666 30.019 3.1666 41.976 0 27.993-7.4136 49.091-26.83 59.657-54.9 3.1844-8.4602 4.8861-10.852 9.747-13.701 8.9923-5.2695 19.034-4.142 26.095 2.93 3.9888 3.9949 6.5128 9.7382 6.5128 14.82 0 4.3967-4.0181 15.886-9.1748 26.235-16.925 33.966-48.475 58.422-86.501 67.052-6.2217 1.412-38.423 2.9273-42.324 1.9916zm-82.55-192.95c-7.2455-2.3878-11.983-5.3309-17.515-10.881-24.754-24.833-11.176-66.157 23.632-71.925 20.815-3.4492 41.695 10.41 47.405 31.465 2.1677 7.9932 0.98511 20.13-2.7364 28.083-4.1536 8.876-12.044 16.76-20.958 20.941-5.9201 2.7768-7.9711 3.2072-16.274 3.4149-5.8715 0.14688-11.049-0.27269-13.554-1.0985zm171.05 0.02c-11.72-3.7163-21.606-12.325-26.731-23.279-2.5153-5.375-3.2363-8.3998-3.5847-15.038-0.70919-13.512 2.9072-23.167 12.115-32.345 24.839-24.76 66.162-11.187 71.93 23.627 2.1512 12.982-2.3165 26.258-12.159 36.133-8.6771 8.705-17.568 12.32-30.07 12.227-4.125-0.0308-9.3-0.62683-11.5-1.3244z"/>
	</g>
</svg>
