<?xml version="1.0" encoding="UTF-8" standalone="no"?>
<svg id="svg2" xmlns:rdf="http://www.w3.org/1999/02/22-rdf-syntax-ns#" xmlns="http://www.w3.org/2000/svg" height="512" width="512" version="1.1" xmlns:cc="http://creativecommons.org/ns#" xmlns:dc="http://purl.org/dc/elements/1.1/" viewBox="0 0 512.00001 512.00001">
	<g id="layer1" transform="translate(0,-540.36216)">
		<path id="path3477" d="m101.08062 1038.1097c-5.13525-2.5942-8.529571-7.1363-9.463331-12.6632-0.511639-3.0283 3.346847-21.024 17.961331-83.7703l18.61295-79.91343-2.27808-2.16999c-1.25294-1.1935-28.722974-24.99289-61.044514-52.88753-32.32154-27.89463-59.6892686-51.89071-60.8171745-53.32461-6.9050453-8.77835-4.07303806-21.15975 5.9603495-26.05837 4.083582-1.99374 12.064419-2.82786 85.592497-8.94572 44.598952-3.71083 81.244712-6.85647 81.435032-6.99032 0.1903-0.13383 14.53572-33.9498 31.87867-75.14657 17.34297-41.19678 32.64357-76.37252 34.00135-78.16832 6.73657-8.90982 22.14294-7.93264 27.81142 1.764 1.12637 1.92681 16.06726 36.83096 33.20197 77.56479l31.15401 74.06151 81.47963 6.83747c73.6885 6.18368 81.91024 7.0471 85.98311 9.02969 8.39223 4.08518 11.97036 13.58759 8.22801 21.8511-2.55271 5.63667-1.19395 4.39702-66.79084 60.93558-30.83384 26.57598-56.90284 49.11231-57.93111 50.08074-1.8187 1.71285-1.36052 3.94672 16.83502 82.08001 14.33642 61.56187 18.55763 81.18927 18.07523 84.04447-0.77888 4.6101-5.76787 10.8297-10.15864 12.6642-1.81296 0.7575-5.30671 1.3773-7.76387 1.3773-4.73186 0-4.4224 0.1798-118.52529-68.87777l-28.32474-17.14274-69.46654 42.00879c-38.20661 23.10482-70.65188 42.45942-72.1006 43.01022-4.1952 1.5951-8.74374 1.175-13.54585-1.251zm213.2641-195.96507c1.82997-1.82997 2.0022-3.33699 2.0022-17.51923s-0.17223-15.68926-2.0022-17.51923c-1.95576-1.95577-3.33699-2.0022-59.56537-2.0022s-57.60961 0.0465-59.56538 2.0022c-1.82997 1.82997-2.00219 3.33699-2.00219 17.51923s0.17222 15.68926 2.00219 17.51923c1.95577 1.95576 3.337 2.0022 59.56538 2.0022s57.60961-0.0465 59.56537-2.0022z"/>
	</g>
</svg>
