<?xml version="1.0" encoding="UTF-8" standalone="no"?>
<svg id="svg2" xmlns:rdf="http://www.w3.org/1999/02/22-rdf-syntax-ns#" xmlns="http://www.w3.org/2000/svg" height="512" width="512" version="1.1" xmlns:cc="http://creativecommons.org/ns#" xmlns:dc="http://purl.org/dc/elements/1.1/" viewBox="0 0 511.99999 511.99999">
	<g id="layer1" transform="translate(0,-540.3622)">
		<path id="path3516" d="m100.82304 1050.001c-5.135253-2.7195-8.529574-7.4808-9.463334-13.2744-0.511639-3.1745 3.346847-22.0389 17.961334-87.81392l18.61295-83.7708-2.27808-2.27473c-1.25294-1.25111-28.722977-26.19928-61.044517-55.44038-32.32154-29.24109-59.6892685-54.39544-60.8171744-55.89856-6.9050453-9.20206-4.07303803-22.18111 5.9603495-27.31619 4.0835819-2.08997 12.0644189-2.96435 85.5924969-9.37752 44.598955-3.88994 81.244715-7.18742 81.435035-7.32773 0.1903-0.14029 14.53572-35.58853 31.87867-78.77385 17.34297-43.18532 32.64357-80.05897 34.00135-81.94146 6.73657-9.33989 22.14294-8.31554 27.81142 1.84916 1.12637 2.01981 16.06726 38.60877 33.20197 81.30879l31.15401 77.6364 81.47963 7.16752c73.6885 6.48216 81.91024 7.38725 85.98311 9.46555 8.39223 4.28236 11.97036 14.24344 8.22801 22.90584-2.55271 5.90874-1.19395 4.60925-66.79084 63.8769-30.83384 27.85878-56.90284 51.48292-57.93111 52.4981-1.8187 1.79553-1.36052 4.13722 16.83502 86.04195 14.33642 64.53343 18.55763 85.10823 18.07523 88.10123-0.77888 4.8327-5.76787 11.3524-10.15864 13.2755-1.81296 0.7941-5.30671 1.4438-7.76387 1.4438-4.73186 0-4.4224 0.1885-118.52529-72.20246l-28.32474-17.97021-69.46654 44.03657c-38.20661 24.22-70.65188 44.5089-72.1006 45.0863-4.1952 1.672-8.74374 1.2317-13.54585-1.3114z"/>
	</g>
</svg>
