<svg xmlns:rdf="http://www.w3.org/1999/02/22-rdf-syntax-ns#" xmlns="http://www.w3.org/2000/svg" height="512" width="512" version="1.1" xmlns:cc="http://creativecommons.org/ns#" xmlns:dc="http://purl.org/dc/elements/1.1/" viewBox="0 0 512.00001 512.00001">
	<g transform="translate(0 -540.36)">
		<path d="m16.253 1051.6c-6.0175-1.6194-11.414-6.1704-14.142-11.926l-1.6383-3.4569v-239.75-239.75l1.6383-3.4569c2.7815-5.8691 8.1478-10.332 14.373-11.954 4.6241-1.2044 97.315-1.2044 101.94 0 6.2253 1.6215 11.592 6.0845 14.373 11.954l1.6383 3.4569v239.48 239.48l-1.6931 3.5741c-1.9121 4.0364-5.5904 8.2582-8.8623 10.172-5.2804 3.0884-3.643 3.0023-56.389 2.9642-40.234-0.029-48.889-0.1634-51.237-0.7954zm75.388-255.13v-213.43h-24.719-24.719v213.43 213.43h24.719 24.719v-213.43zm113.63 255.39c-7.4357-1.7773-14.086-8.4368-16.153-16.175-1.0975-4.1085-1.0629-351.19 0.0354-355.39 1.6491-6.3144 6.1071-11.715 12-14.538l3.4554-1.6549h51.299 51.299l3.4569 1.6383c3.8264 1.8134 7.6424 5.3037 9.7725 8.9384 3.2109 5.4789 3.0049-7.8738 2.8553 185.09l-0.13683 176.47-1.7081 3.4696c-2.3244 4.7216-5.8867 8.206-10.784 10.549l-3.987 1.9071-49.704 0.086c-27.849 0.048-50.582-0.1236-51.7-0.3908zm75.621-193.99v-152.04h-24.453-24.453v152.04 152.04h24.453 24.453v-152.04zm112.43 193.78c-6.1346-1.6799-11.526-6.1964-14.293-11.974l-1.6549-3.4554v-98.611-98.611l1.706-3.6017c2.1522-4.5435 6.1443-8.5087 10.777-10.704l3.4649-1.642h51.033 51.033l3.5834 1.6974c4.4254 2.0964 8.2383 5.8136 10.596 10.33l1.7689 3.389 0.15113 98.079c0.11472 74.442 0 98.634-0.47987 100.38-1.5403 5.6203-7.1534 11.552-13.326 14.082l-2.825 1.158-49.438 0.1047c-40.446 0.086-49.922-0.028-52.096-0.6232zm76.284-114.04v-72.297h-24.719-24.719v72.297 72.297h24.719 24.719v-72.297z"/>
	</g>
</svg>
