<svg xmlns:inkscape="http://www.inkscape.org/namespaces/inkscape" xmlns:rdf="http://www.w3.org/1999/02/22-rdf-syntax-ns#" xmlns="http://www.w3.org/2000/svg" sodipodi:docname="support4.svg" height="512" width="512" version="1.1" xmlns:cc="http://creativecommons.org/ns#" xmlns:dc="http://purl.org/dc/elements/1.1/" inkscape:version="0.91 r13725" viewBox="0 0 512.00001 512.00001" xmlns:sodipodi="http://sodipodi.sourceforge.net/DTD/sodipodi-0.dtd">
	<sodipodi:namedview bordercolor="#666666" inkscape:pageshadow="2" inkscape:window-y="-8" pagecolor="#ffffff" inkscape:window-height="1017" inkscape:window-maximized="1" inkscape:zoom="0.35" inkscape:window-x="-8" showgrid="false" borderopacity="1.0" inkscape:current-layer="layer1" inkscape:cx="-126.42857" inkscape:cy="520" units="px" inkscape:window-width="1920" inkscape:pageopacity="0.0" inkscape:document-units="px"/>
	<g inkscape:label="Layer 1" inkscape:groupmode="layer" transform="translate(0 -540.36)">
		<path inkscape:connector-curvature="0" d="m249.83 1050c-10.06-2.2147-18.496-7.0171-26.424-15.042-9.0739-9.1852-14.138-20.073-14.893-32.02-1.6458-26.047 17.967-49.78 44.547-53.904 20.117-3.1212 42.266 9.353 52.387 29.503l1.6689 3.3228 5.3299-0.8739c24.028-3.9395 46.25-14.476 68.798-32.619 7.9338-6.3841 20.714-18.809 27.364-26.604l4.2947-5.034-3.7101-2.2341c-13.277-7.9952-24.112-21.061-29.337-35.379-4.0108-10.99-4.1766-13.522-3.9205-59.888 0.22894-41.461 0.25454-42.134 1.8213-47.885 4.215-15.474 14.674-30.399 27.313-38.977 2.3359-1.5854 4.367-3.1157 4.5135-3.4006 0.1466-0.28494 0.0302-4.4302-0.25895-9.2116-4.014-66.405-50.604-122.73-114.88-138.88-13.997-3.5176-23.476-4.6463-38.778-4.6172-18.612 0.0354-34.682 2.6955-51.415 8.5109-8.7958 3.0569-25.528 11.465-33.69 16.93-41.008 27.457-66.49 72.977-68.067 121.59l-0.18881 5.8202 3.7579 2.6216c13.78 9.6133 23.745 23.49 28.201 39.272 1.5204 5.3843 1.5552 6.3189 1.7992 48.256 0.21706 37.305 0.1063 43.526-0.86736 48.722-2.8516 15.218-9.5233 27.388-20.895 38.116-12.144 11.456-26.735 17.471-43.944 18.114-19.197 0.7175-36.18-5.8894-49.799-19.373-7.338-7.22-11.946-13.95-15.485-22.55-5.0374-12.25-5.07-12.64-5.07-60.8 9.8312e-8 -42.2 0.0249-42.99 1.5407-48.94 5.5217-21.66 20.071-38.88 39.982-47.32 7.5961-3.2193 13.054-4.5762 20.803-5.1724l6.307-0.48519 0.18061-3.4317c0.0993-1.8874 0.81832-7.7556 1.5977-13.04 10.397-70.498 61.199-130.21 129.6-152.32 17.367-5.6143 31.32-7.9263 50.881-8.4307 23.73-0.61191 41.617 1.978 63.029 9.1266 37.675 12.578 71.208 37.307 94.449 69.65 18.887 26.285 32.084 61.072 34.351 90.551 0.6654 8.653 0.071 7.9681 7.3306 8.4462 14.908 0.9817 29.319 7.6108 41.241 18.971 9.3487 8.908 15.774 20.12 19.174 33.456 1.518 5.9555 1.5406 6.6918 1.5353 49.97l-0.007 43.925-1.8078 6.5547c-7.1509 25.927-27.554 44.981-53.398 49.867-6.0824 1.1499-6.2141 1.2169-8.419 4.2879-24.746 34.466-60.815 63.932-95.087 77.679-12.805 5.1365-29.307 9.4239-40.804 10.602l-4.5387 0.465-1.1721 3.1714c-3.3554 9.0789-12.487 19.945-20.993 24.98-7.5448 4.4662-13.982 6.1618-24.281 6.3962-4.9073 0.1117-10.158-0.069-11.668-0.4014zm14.001-33.687c7.5577-1.6209 12.406-7.9021 12.412-16.08 0.005-8.0846-2.7844-12.877-9.25-15.888-9.1082-4.2415-21.222 0.4606-23.642 9.1773-2.8778 10.363 1.8098 20.143 10.817 22.568 4.0751 1.0973 5.4351 1.1285 9.6633 0.2217zm-185.24-127.34c11.288-3.083 18.793-10.557 22.229-22.138 0.96313-3.2462 1.106-9.0165 1.106-44.659 0-44.418 0.0354-43.948-3.8943-51.709-7.9124-15.625-30.29-21.502-47.478-12.47-5.4359 2.8564-8.6745 5.9702-12.03 11.566-4.4153 7.3636-4.5446 8.8585-4.5446 52.542 0 40.384 0.15864 43.106 2.883 49.466 6.3232 14.761 24.16 22.199 41.729 17.401zm376.08 0.0003c11.442-3.1483 19.741-11.673 22.295-22.9 1.6014-7.0408 1.5928-81.832-0.0103-88.018-1.6012-6.179-4.109-10.6-8.4368-14.874-15.524-15.329-45.084-11.38-54.536 7.2856-3.9269 7.7547-3.8943 7.3254-3.8943 51.346 0 43.756 0.0556 44.533 3.7081 51.678 6.933 13.563 24.15 20.084 40.874 15.483z"/>
	</g>
</svg>
