<svg xmlns:rdf="http://www.w3.org/1999/02/22-rdf-syntax-ns#" xmlns="http://www.w3.org/2000/svg" height="512" width="512" version="1.1" xmlns:cc="http://creativecommons.org/ns#" xmlns:dc="http://purl.org/dc/elements/1.1/" viewBox="0 0 512.00001 512.00001">
	<g transform="translate(0 -540.36)">
		<path d="m225.52 1051.7c-13.186-2.497-25.259-11.393-31.061-22.888l-1.6272-3.2234h-9.4644c-17.75 0-30.523-1.5114-43.931-5.1893-22.469-6.1637-42.95-18.134-59.707-34.898-11.371-11.35-18.73-21.6-25.808-35.93-4.972-10.07-7.586-16.89-9.839-25.68-3.479-13.57-4.436-23.02-4.436-43.82v-15.84l-4.7009-2.2029c-6.992-3.28-11.672-6.63-16.791-12.04-6.903-7.28-11.397-15.65-13.521-25.18-0.855-3.84-0.9542-8.17-0.9542-41.63 0-36.976 0.012123-37.388 1.2418-42.215 1.397-5.4838 4.4826-12.437 7.6307-17.195 6.6143-9.9963 18.07-18.287 29.732-21.519 4.5124-1.2504 5.05-1.5144 5.05-2.4796 0-1.4283 4.0379-13.499 7.2327-21.622 22.559-57.354 68.283-102.31 126.48-124.34 44.377-16.806 95.424-17.917 141.4-3.0789 67.67 21.841 121.49 76.821 141.15 144.19 1.6286 5.5811 1.9459 6.2197 3.2243 6.4896 2.6164 0.55234 9.6285 3.0844 12.4 4.4777 7.4815 3.7608 15.685 11.012 20.231 17.882 3.1481 4.7578 6.2337 11.711 7.6307 17.195 1.2297 4.827 1.2418 5.2389 1.2418 42.215 0 33.631-0.096 37.771-0.96629 41.68-3.7507 16.847-16.119 31.552-31.973 38.016-6.504 2.6516-11.608 3.6675-18.678 3.7174-5.5657 0.0394-6.2653-0.0759-8.9048-1.4626-3.8008-1.9972-6.5865-4.8701-8.2539-8.5124-1.2047-2.6312-1.3389-3.5491-1.137-7.7734 0.18763-3.9241 0.48888-5.2296 1.6669-7.2226 3.3984-5.7496 7.9343-8.4663 15.4-9.223 8.0331-0.81422 13.023-3.8835 16.381-10.076l1.8714-3.4513 0.15304-34.395c0.1514-34.025 0.14031-34.429-1.028-37.615-1.7815-4.8574-6.7895-9.6088-11.739-11.138-2.3936-0.73932-5.1966-1.143-7.9361-1.143-10.851 0-16.855-4.9205-19.253-15.779-5.5625-25.193-16.633-49.871-31.144-69.424-11.525-15.53-26.211-29.947-42.006-41.238-35.066-25.066-80.306-36.992-123.32-32.511-34.505 3.5948-67.708 17.273-95.119 39.184-6.7802 5.4199-19.823 18.149-25.379 24.769-18.897 22.515-32.117 48.939-38.599 77.151-2.2596 9.8354-4.4006 13.268-9.9755 15.996-2.6061 1.275-4.0088 1.5402-9.787 1.8503-5.7523 0.3087-7.1868 0.57817-9.7474 1.831-4.0451 1.9791-8.1647 6.4231-9.6607 10.421-1.1648 3.1133-1.1839 3.7021-1.1839 36.619 0 32.947 0.01804 33.503 1.1875 36.633 0.86348 2.3109 2.1082 4.0995 4.562 6.5554 2.85 2.8523 3.9548 3.5565 7.1072 4.5302 2.0529 0.63405 4.9394 1.1529 6.4145 1.1529 5.9771 0 11.924 3.8046 14.733 9.4255l1.6888 3.3796 0.000985 21.465c0.002 23.419 0.51077 32.919 2.2482 41.936 6.6316 34.416 31.529 63.666 64.743 76.06 12.531 4.6761 20.139 5.944 37.689 6.2805l14.351 0.27519 1.9853-3.7781c5.4037-10.283 15.098-18.154 26.71-21.686 4.0014-1.2172 4.8104-1.2528 32.56-1.4362 23.364-0.15435 29.225-0.0434 32.75 0.62164 17.016 3.2094 30.595 16.05 34.915 33.016 1.4 5.4985 1.2887 15.571-0.23681 21.416-3.255 12.47-11.815 22.923-23.401 28.575-8.8578 4.3212-8.4506 4.2764-40.36 4.4368-21.681 0.1089-29.177-0.028-32.123-0.5859zm56.661-34.383c6.3307-2.3919 8.2206-10.611 3.5701-15.527-3.2675-3.4536-2.5937-3.3674-27.748-3.5483-15.578-0.1122-23.941 0.034-25.969 0.4554-9.1824 1.9064-11.234 13.402-3.2033 17.951 2.171 1.2296 2.2858 1.2348 26.992 1.2438 16.218 0.01 25.347-0.1933 26.358-0.575zm-42.384-74.144c-47.283-4.8484-90.225-30.6-116.88-70.092-13.239-19.613-21.865-41.534-25.663-65.218-1.6575-10.335-2.0602-31.664-0.80334-42.557 3.434-29.761 14.658-57.187 33.259-81.27 5.0649-6.5575 19.477-21.042 26.349-26.481 37.847-29.955 86.394-41.362 133.61-31.392 60.604 12.796 109.6 61.225 123.02 121.6 2.9422 13.234 3.37 17.726 3.3701 35.39 0.0001 14.591-0.14575 17.383-1.2764 24.436-5.5372 34.538-20.906 64.754-45.39 89.237-26.646 26.646-60.443 42.65-97.944 46.379-6.5426 0.65051-25.184 0.63228-31.653-0.0315zm29.262-34.028c23.769-2.5812 47.586-12.453 66.278-27.471 21.745-17.471 37.795-43.377 43.858-70.792 2.2678-10.254 2.802-15.517 2.7872-27.456-0.016-12.773-0.83857-19.479-3.813-31.084-5.7461-22.42-16.534-41.237-33.194-57.896-16.659-16.659-35.476-27.447-57.896-33.194-11.669-2.9906-18.313-3.8037-31.084-3.8037-12.708 0-19.221 0.7908-30.948 3.7574-44.747 11.32-79.952 46.525-91.272 91.272-2.9526 11.672-3.7512 18.239-3.7636 30.948-0.0198 20.49 3.9119 37.538 12.855 55.736 18.858 38.376 56.809 65.145 99.126 69.922 6.268 0.70748 20.808 0.74001 27.066 0.0601z"/>
	</g>
</svg>
