<svg width="512" height="512" version="1.1" viewBox="0 0 512 512" xmlns="http://www.w3.org/2000/svg">
	<g transform="translate(0 -161.53)">
		<path d="m89.904 636.3c-6.2375-0.66722-16.944-3.1095-22.732-5.1854-55.18-19.79-81.981-81.255-58.837-134.94 8.4164-19.522 23.232-35.794 43.965-48.285l2.284-1.3761 0.3768-34.557c0.41505-38.065 0.90443-43.071 6.2501-63.943 8.9915-35.107 28.539-68.358 55.216-93.92 30.799-29.513 68.48-47.936 111.16-54.348 12.604-1.8935 41.437-2.1438 53.614-0.46549 45.011 6.2035 85.483 25.948 116.57 56.87 27.831 27.684 46.497 61.428 55.001 99.434 3.5455 15.845 4.2834 26.032 4.2834 59.136v31.657l5.7903 3.4416c40.79 24.244 59.004 73.593 43.874 118.87-4.4359 13.274-12.154 26-22.432 36.988-14.787 15.807-38.183 27.557-60.258 30.262-5.1329 0.62902-35.216 0.94693-89.759 0.94853l-82.039 0.00242-4.5883-2.397c-3.34-1.7449-5.292-3.535-7.175-6.5803l-2.5867-4.1833v-23.229c0-22.144 0.08628-23.39 1.8466-26.661 2.3178-4.3069 5.0087-6.8384 9.0748-8.5373 2.5923-1.0831 7.296-1.3277 25.536-1.3277 23.909 0 26.236 0.34393 30.739 4.5445 4.5477 4.242 5.6449 7.9258 5.9921 20.118l0.32367 11.366h54.683l0.23907-68.457 0.23907-68.457 3.2247-6.5239c2.2457-4.5432 4.6548-7.8309 7.9351-10.829 8.7331-7.9816 16.694-10.384 34.519-10.419l8.7927-0.016993v-21.784c0-11.981-0.40499-25.781-0.89998-30.667-7.3041-72.098-59.858-130.16-131.61-145.39-8.3632-1.7755-13.578-2.2771-27.478-2.6433-18.798-0.49517-29.563 0.56925-45.036 4.4529-58.188 14.605-103.77 59.428-119.18 117.19-4.4275 16.596-5.3143 24.637-5.8183 52.757l-0.46277 25.821 12.763 0.49435c7.9437 0.30769 14.459 1.0153 17.255 1.874 6.9197 2.1252 14.593 7.8468 18.834 14.044 6.6225 9.6772 6.3361 5.6031 6.0739 86.426l-0.23356 71.987-2.6681 5.5759c-4.9377 10.319-13.334 17.391-23.89 20.123-4.7903 1.2396-20.314 1.6321-28.771 0.72733zm19.73-100.2v-63.908h-7.7566c-19.487 0-35.586 6.9805-48.847 21.181-10.954 11.73-16.567 26.342-16.577 43.156-0.021673 35.501 27.956 63.248 63.959 63.432l9.2216 0.047234zm315.73 62.685c22.802-4.8338 40.819-21.736 48.098-45.121 2.6024-8.3612 2.8197-24.812 0.44161-33.434-6.0907-22.083-23.81-39.918-45.591-45.889-2.8308-0.77609-9.8757-1.6292-15.655-1.8959l-10.508-0.48482v128.05l8.7927-0.014895c4.836-0.00819 11.326-0.55197 14.423-1.2084z" stroke-width=".85783"/>
	</g>
</svg>
