<?xml version="1.0" encoding="UTF-8" standalone="no"?>
<svg id="svg2" xmlns:rdf="http://www.w3.org/1999/02/22-rdf-syntax-ns#" xmlns="http://www.w3.org/2000/svg" height="512" width="512" version="1.1" xmlns:cc="http://creativecommons.org/ns#" xmlns:dc="http://purl.org/dc/elements/1.1/" viewBox="0 0 512.00001 512.00001">
	<g id="layer1" transform="translate(0,-540.36216)">
		<g id="g5062" transform="matrix(10.853395 0 0 10.853395 .00293191 537.78207)">
			<g id="g5020">
				<path id="path5022" d="m15.825 40.675c-3.931 0.001-7.077-1.764-7.918-5.563-0.964-4.353-1.43-8.932 0.731-13.221 0.77-1.529 2.103-2.543 3.523-3.391 1.511-0.903 2.47-1.979 2.131-3.891-0.117-0.664 0.148-1.391 0.055-2.063-0.046-0.334-0.508-0.611-0.782-0.914-0.222 0.315-0.665 0.654-0.633 0.94 0.32 2.874-1.403 4.319-3.697 5.303-1.293 0.555-2.651 1.006-4.022 1.32-1.299 0.298-2.582-0.025-3.645-0.858-2.212-1.733-2.093-5.033 0.414-6.636 1.701-1.088 3.626-1.871 5.528-2.588 4.9-1.849 10.055-2.504 15.236-2.616 3.143-0.068 6.305 0.407 9.448 0.748 4.142 0.45 8.044 1.789 11.747 3.641 1.011 0.505 2.04 1.345 2.605 2.301 1.754 2.965-0.361 6.261-3.936 6.052-2.667-0.156-5.136-1.144-7.145-3.02-0.919-0.858-1.383-1.911-1.222-3.199 0.032-0.257 0.078-0.586-0.046-0.773-0.174-0.263-0.482-0.531-0.772-0.585-0.147-0.027-0.471 0.38-0.553 0.641-0.094 0.297-0.018 0.652 0.003 0.98 0.033 0.526 0.218 1.085 0.101 1.572-0.438 1.797 0.549 2.706 1.913 3.535 1.948 1.183 3.575 2.687 4.411 4.909 0.696 1.847 0.775 10.117 0.058 11.927-1.278 3.224-3.895 5.582-7.994 5.455-1.319-0.042-12.999-0.007-15.539-0.006zm7.723-8.896c3.002-0.142 5.661-0.972 7.733-3.155 2.082-2.195 2.246-4.697 0.59-7.208-0.97-1.469-2.366-2.338-3.952-2.993-4.039-1.67-8.918-0.841-11.784 2.03-2.522 2.527-2.581 5.808-0.058 8.338 2.063 2.068 4.688 2.839 7.471 2.988zm0.1-20.985v0.006c-1.349 0-2.698 0.025-4.046-0.009-0.848-0.021-1.215 0.355-1.195 1.176 0.006 0.23-0.046 0.466-0.009 0.689 0.054 0.334 0.163 0.659 0.249 0.988 0.321-0.121 0.679-0.184 0.956-0.371 2.05-1.382 5.967-1.365 8 0.034 0.273 0.189 0.633 0.255 0.952 0.378 0.086-0.36 0.195-0.717 0.247-1.082 0.032-0.223-0.032-0.458-0.04-0.688-0.026-0.823-0.443-1.155-1.266-1.131-1.281 0.037-2.563 0.01-3.848 0.01z"/>
				<path id="path5024" d="m24.112 27.844c-1.897-0.097-3.226-0.41-4.329-1.356-1.805-1.55-1.791-3.724 0.022-5.274 1.961-1.678 5.471-1.732 7.438-0.115 2.166 1.781 1.969 4.526-0.507 5.856-0.932 0.5-2.028 0.694-2.624 0.889z"/>
			</g>
		</g>
	</g>
</svg>
