<svg xmlns:inkscape="http://www.inkscape.org/namespaces/inkscape" xmlns:rdf="http://www.w3.org/1999/02/22-rdf-syntax-ns#" xmlns="http://www.w3.org/2000/svg" sodipodi:docname="text-more.svg" height="512" width="512" version="1.1" xmlns:cc="http://creativecommons.org/ns#" xmlns:dc="http://purl.org/dc/elements/1.1/" inkscape:version="0.91 r13725" viewBox="0 0 512.00001 512.00001" xmlns:sodipodi="http://sodipodi.sourceforge.net/DTD/sodipodi-0.dtd">
	<sodipodi:namedview bordercolor="#666666" inkscape:pageshadow="2" inkscape:window-y="-8" pagecolor="#ffffff" inkscape:window-height="1017" inkscape:window-maximized="1" inkscape:zoom="0.98994949" inkscape:window-x="-8" showgrid="false" borderopacity="1.0" inkscape:current-layer="layer1" inkscape:cx="99.236846" inkscape:cy="387.19934" units="px" inkscape:window-width="1920" inkscape:pageopacity="0.0" inkscape:document-units="px"/>
	<g inkscape:label="Layer 1" inkscape:groupmode="layer" transform="translate(0 -540.36)">
		<path inkscape:connector-curvature="0" d="m25.015 1051.8c-10.459-2.2-19.908-10.5-23.425-20.6-1.4588-4.1681-1.9842-12.358-1.0911-17.009 1.7738-9.2359 8.5998-18.059 17.118-22.127 5.2783-2.5204 8.6385-3.2978 14.21-3.2871 8.3357 0.016 15.698 2.9643 21.789 8.7255 4.1477 3.9232 6.5576 7.6503 8.5196 13.176 1.168 3.2897 1.3879 4.8245 1.3979 9.7581 0.01 5.0282-0.19539 6.4555-1.4573 10.112-5.4409 15.768-21.02 24.705-37.061 21.26zm128.27 0.071c-3.2714-0.7464-7.804-2.5008-9.9964-3.8693-10.564-6.5932-16.831-19.568-15.093-31.249 1.1956-8.0384 3.7133-13.059 9.4395-18.823 6.0248-6.0645 13.576-9.1689 22.303-9.1689 5.3804 0 8.8208 0.7962 13.838 3.2024 16.885 8.0981 23.07 28.878 13.445 45.168-6.6171 11.199-21.369 17.606-33.936 14.739zm127.82-0.059c-11.853-2.5728-21.793-12.687-24.374-24.802-2.4916-11.696 2.4606-24.634 12.31-32.161 2.6003-1.9872 7.9438-4.4313 11.543-5.2798 19.974-4.7088 39.284 10.399 39.284 30.733 0 20.659-18.704 35.864-38.763 31.51zm-281.1-222.14v-31.933h256 256v31.933 31.933h-256-256v-31.933zm0-129.33v-31.933h159.93 159.93v31.933 31.933h-159.93-159.93v-31.933zm0-128.27v-31.933h256 256v31.933 31.933h-256-256v-31.933z"/>
	</g>
</svg>
