<svg xmlns:inkscape="http://www.inkscape.org/namespaces/inkscape" xmlns:rdf="http://www.w3.org/1999/02/22-rdf-syntax-ns#" xmlns="http://www.w3.org/2000/svg" sodipodi:docname="thumbdown-stroke.svg" height="512" width="512" version="1.1" xmlns:cc="http://creativecommons.org/ns#" xmlns:dc="http://purl.org/dc/elements/1.1/" inkscape:version="0.91 r13725" viewBox="0 0 512.00001 512.00001" xmlns:sodipodi="http://sodipodi.sourceforge.net/DTD/sodipodi-0.dtd">
	<sodipodi:namedview bordercolor="#666666" inkscape:pageshadow="2" inkscape:window-y="-8" pagecolor="#ffffff" inkscape:window-height="1017" inkscape:window-maximized="1" inkscape:zoom="0.35" inkscape:window-x="-8" showgrid="false" borderopacity="1.0" inkscape:current-layer="layer1" inkscape:cx="-126.42857" inkscape:cy="520" units="px" inkscape:window-width="1920" inkscape:pageopacity="0.0" inkscape:document-units="px"/>
	<g inkscape:label="Layer 1" inkscape:groupmode="layer" transform="translate(0 -540.36)">
		<path inkscape:connector-curvature="0" d="m298.31 1051.1c-7.4408-2.0943-10.811-4.0312-15.941-9.1617-4.7638-4.7638-8.2692-11.616-10.271-20.078-0.78664-3.325-1.3012-15.372-1.4334-33.554-0.20188-27.786-0.26239-28.551-2.9553-37.381-3.4752-11.395-12.758-30.328-20.727-42.271-7.8205-11.722-44.245-57.188-54.858-68.476-5.2598-5.5943-10.102-9.662-13.908-11.685-11.46-6.0891-10.907-6.0482-92.229-6.8222l-74.37-0.70779v-108.14-108.14l72.367 0.20449c61.329 0.1733 74.321-0.0408 85.178-1.4036 7.0464-0.88448 14.033-2.2396 15.525-3.0114 1.4924-0.77177 6.3192-4.6394 10.726-8.5947 10.159-9.1175 30.529-24.108 40.447-29.765 14.386-8.2061 24.147-10.926 54.707-15.246 40.002-5.6539 48.773-6.5222 66.107-6.5441 18.895-0.0238 24.028 0.97173 35.03 6.7946 14.129 7.4777 25.505 24.597 25.556 38.456 0.0106 2.8971 0.56609 3.5186 5.2704 5.8974 2.9563 1.4949 8.5666 5.997 12.815 10.283 12.178 12.288 17.929 25.563 18.041 41.639l0.0559 8.0529 5.5445 4.3784c15.258 12.049 24.266 32.642 23.04 52.677l-0.5491 8.9777 5.3413 5.5998c9.4786 9.9372 13.598 21.223 13.572 37.187-0.018 11.633-1.9706 20.159-6.6592 29.081-9.2085 17.524-26.926 27.827-57.429 33.396-21.737 3.9689-49.288 10.938-56.401 14.266-13.131 6.1446-18.694 14.193-18.711 27.072-0.0138 10.285 1.9788 18.809 9.8879 42.299 8.4663 25.145 10.402 34.162 10.421 48.556 0.0491 35.93-16.968 70.916-42.851 88.096-11.931 7.9192-28.854 11.306-40.339 8.0736zm18.8-31.357c1.9281-0.8647 7.1669-5.2444 11.642-9.7329 6.1845-6.2032 8.9808-9.9439 11.657-15.594 6.9819-14.74 10.477-31.086 9.2977-43.485-0.96874-10.185-2.7506-17.194-10.06-39.57-8.542-26.149-9.7807-31.982-9.8915-46.576-0.0759-10.008 0.2846-13.109 2.1546-18.53 6.2414-18.094 19.182-31.52 38.281-39.718 7.3045-3.1352 16.915-5.3467 47.168-10.854 35.098-6.3889 51.997-17.573 51.997-34.414 0-9.9299-4.0292-15.924-12.936-19.245-6.8879-2.5683-9.5703-4.9902-11.698-10.562-2.001-5.2396-1.4277-9.0724 2.6449-17.681 3.4071-7.2019 3.7676-12.677 1.3669-20.761-2.205-7.4251-10.724-15.983-18.451-18.536-7.4212-2.4516-9.7711-4.1328-12.067-8.6335-2.4922-4.885-2.4727-10.529 0.0507-14.667 3.0007-4.9216 3.4742-10.154 1.5287-16.895-3.5616-12.339-7.7922-16.203-18.324-16.734-8.1258-0.40975-12.565-2.5466-16.073-7.7362-1.9027-2.8149-2.2258-4.2829-1.7516-7.9588 1.7619-13.658 1.7822-17.726 0.10472-20.97-4.0557-7.8428-19.602-10.032-49.853-7.0205-42.575 4.2385-73.294 10.032-82.461 15.553-8.6575 5.2133-25.272 17.683-35.991 27.013-13.707 11.931-22.787 16.178-37.505 17.544-28.131 2.6112-36.522 9.8059-42.354 36.315-2.0912 9.5054-2.2411 12.59-2.2229 45.75 0.0208 37.908 0.54146 43.293 5.4486 56.357 4.2271 11.253 8.3065 13.896 28.056 18.178 17.224 3.7348 29.246 9.5834 39.711 19.319 8.4101 7.8243 33.986 37.799 45.55 53.383 7.6045 10.249 27.748 39.654 32.107 46.871 6.2759 10.389 12.234 24.028 14.836 33.96 3.2993 12.596 4.1602 23.602 3.8302 48.965-0.3348 25.732-0.20084 26.551 4.6594 28.499 2.2574 0.9047 4.3306 0.5064 9.5501-1.8341z"/>
	</g>
</svg>
