<svg xmlns:inkscape="http://www.inkscape.org/namespaces/inkscape" xmlns:rdf="http://www.w3.org/1999/02/22-rdf-syntax-ns#" xmlns="http://www.w3.org/2000/svg" sodipodi:docname="thumbup-stroke.svg" height="512" width="512" version="1.1" xmlns:cc="http://creativecommons.org/ns#" xmlns:dc="http://purl.org/dc/elements/1.1/" inkscape:version="0.91 r13725" viewBox="0 0 512.00001 512.00001" xmlns:sodipodi="http://sodipodi.sourceforge.net/DTD/sodipodi-0.dtd">
	<sodipodi:namedview bordercolor="#666666" inkscape:pageshadow="2" inkscape:window-y="-8" pagecolor="#ffffff" inkscape:window-height="1017" inkscape:window-maximized="1" inkscape:zoom="0.35" inkscape:window-x="-8" showgrid="false" borderopacity="1.0" inkscape:current-layer="layer1" inkscape:cx="-126.42857" inkscape:cy="520" units="px" inkscape:window-width="1920" inkscape:pageopacity="0.0" inkscape:document-units="px"/>
	<g inkscape:label="Layer 1" inkscape:groupmode="layer" transform="translate(0 -540.36)">
		<path inkscape:connector-curvature="0" d="m329.6 1050.9c-32.159-3.5228-62.317-8.158-73.103-11.236-3.8554-1.1001-11.291-4.2652-16.523-7.0336-11.038-5.8401-33.012-21.571-44.563-31.903-4.4062-3.941-9.1822-7.7712-10.613-8.5112-1.431-0.74-8.1906-2.1115-15.021-3.0477-10.899-1.4937-21.339-1.6721-85.272-1.4574l-72.853 0.2445v-108.09-108.09l51.237-0.66439c28.18-0.36542 61.649-0.66439 74.375-0.66439 34.619 0 40.003-1.9672 57.397-20.971 9.8961-10.812 32.457-38.583 44.508-54.786 13.988-18.807 23.289-36.087 28.488-52.93 2.7364-8.8639 2.7841-9.4624 2.9934-37.605 0.17009-22.871 0.54582-29.89 1.8762-35.05 3.41-13.226 10.616-22 21.375-26.025 26.261-9.8255 57.916 7.7356 74.698 41.439 6.5934 13.242 10.021 24.721 12.087 40.485 2.4856 18.961 0.65731 30.572-9.6409 61.224-8.3466 24.844-10.302 33.739-9.6856 44.057 1.2565 21.029 13.493 27.913 67.882 38.19 27.136 5.1274 39.212 9.4983 50.325 18.215 13.857 10.87 20.776 26.075 20.776 45.659 0 16.024-4.1112 27.288-13.584 37.22l-5.3402 5.5987 0.58699 9.0602c1.2927 19.953-7.7753 40.568-23.115 52.548l-5.6145 4.385v8.0644c0 4.4355-0.67016 10.638-1.4892 13.782-3.7762 14.498-14.84 29.28-27.58 36.849l-6.7096 3.986-0.54564 6.0174c-1.6233 17.902-18.645 36.28-37.972 40.998-8.1792 1.9967-31.319 2.0131-49.378 0.035zm42.322-32.25c7.3725-1.2676 10.665-3.5381 12.296-8.4793 1.1137-3.3747 1.0176-6.3532-0.62613-19.406-1.0925-8.6751 5.9684-15.091 17.238-15.662 3.5269-0.1789 7.6743-0.9778 9.2165-1.7753 3.8391-1.9853 7.7003-7.9402 9.716-14.984 1.9288-6.7405 1.4499-11.982-1.543-16.891-2.5228-4.1377-2.5423-9.7801-0.0507-14.664 2.2173-4.3463 5.015-6.462 10.575-7.9971 2.1324-0.5888 5.9334-2.4917 8.4467-4.2287 12.33-8.5212 16.321-22.595 10.124-35.695-3.7402-7.906-4.4903-11.938-3.1482-16.922 1.3848-5.1429 5.2534-8.732 12.2-11.318 8.9033-3.3151 12.933-9.3094 12.933-19.239 0-17.938-19.037-29.42-59.584-35.936-29.289-4.707-40.361-8.0312-51.571-15.483-14.182-9.4282-24.342-23.838-27.537-39.057-3.1651-15.075-1.2203-27.942 9.0065-59.584 9.1953-28.451 9.9534-31.999 9.8423-46.065-0.17048-21.601-8.2782-41.299-22.503-54.672-8.3543-7.854-16.305-11.441-20.345-9.1801-4.113 2.3018-4.6861 6.6586-3.9651 30.143 1.2994 42.321-3.702 59.312-28.233 95.912-19.223 28.68-30.72 43.743-52.809 69.189-19.948 22.979-31.842 30.696-54.721 35.504-19.509 4.0997-23.239 6.3786-27.383 16.731-5.5175 13.782-6.1759 20.027-6.1377 58.216 0.0319 31.898 0.22493 35.905 2.1467 44.563 4.1019 18.48 8.4825 26.079 18.03 31.275 6.0691 3.3032 11.326 4.512 24.655 5.6693 13.895 1.2066 23.551 5.6262 35.858 16.412 10.396 9.1118 28.666 23.01 36.244 27.571 4.0008 2.4081 9.454 4.2388 19.88 6.6739 19.932 4.6553 27.288 5.7201 72.449 10.487 8.9008 0.9395 19.799 0.5281 29.303-1.1061z"/>
	</g>
</svg>
