<svg xmlns:inkscape="http://www.inkscape.org/namespaces/inkscape" xmlns:rdf="http://www.w3.org/1999/02/22-rdf-syntax-ns#" xmlns="http://www.w3.org/2000/svg" sodipodi:docname="ticket-stroke.svg" height="512" width="512" version="1.1" xmlns:cc="http://creativecommons.org/ns#" xmlns:dc="http://purl.org/dc/elements/1.1/" inkscape:version="0.91 r13725" viewBox="0 0 512.00001 512.00001" xmlns:sodipodi="http://sodipodi.sourceforge.net/DTD/sodipodi-0.dtd">
	<sodipodi:namedview bordercolor="#666666" inkscape:pageshadow="2" inkscape:window-y="-8" pagecolor="#ffffff" inkscape:window-height="1017" inkscape:window-maximized="1" inkscape:zoom="0.35" inkscape:window-x="-8" showgrid="false" borderopacity="1.0" inkscape:current-layer="layer1" inkscape:cx="-126.42857" inkscape:cy="520" units="px" inkscape:window-width="1920" inkscape:pageopacity="0.0" inkscape:document-units="px"/>
	<g inkscape:label="Layer 1" inkscape:groupmode="layer" transform="translate(0 -540.36)">
		<path inkscape:connector-curvature="0" d="m160.25 1021.1c-17.19-17.2-31.25-31.71-31.25-32.27 0-0.5627 2.9453-3.9351 6.545-7.4942 11.65-11.52 16.46-21.8 16.46-35.16 0-25.43-20.385-45.815-45.815-45.815-13.362 0-23.646 4.8136-35.156 16.455-3.5591 3.5997-6.9368 6.545-7.506 6.545-0.56917 0-15.094-14.064-32.277-31.254l-31.245-31.25 160.26-160.25 160.25-160.25 31.24 31.26c17.19 17.19 31.25 31.71 31.25 32.28 0 0.56266-2.9453 3.935-6.545 7.4941-11.65 11.51-16.46 21.8-16.46 35.16 0 25.43 20.385 45.815 45.815 45.815 13.362 0 23.646-4.8136 35.156-16.455 3.5591-3.5998 6.9368-6.545 7.506-6.545 0.56917 0 15.094 14.064 32.277 31.254l31.242 31.254-160.25 160.25-160.25 160.28-31.24-31.3zm170.5-149.99c76.04-76.03 138.25-138.7 138.25-139.26 0-0.56057-4.7045-5.7077-10.454-11.438l-10.454-10.419-8.2955 4.1258c-10.684 5.3138-17.92 7.205-30.336 7.9285-21.75 1.2675-40.214-5.6395-56.189-21.019-16.555-15.938-24.27-35.477-22.951-58.12 0.72356-12.416 2.6148-19.652 7.9285-30.336l4.1258-8.2955-10.419-10.454c-5.7304-5.75-10.876-10.454-11.435-10.454-1.33-0.01-277.52 276.18-277.52 277.51 0 0.56057 4.7045 5.7077 10.454 11.438l10.454 10.419 8.2955-4.1258c10.684-5.3138 17.92-7.205 30.336-7.9285 21.75-1.2675 40.214 5.6395 56.189 21.019 16.555 15.938 24.27 35.477 22.951 58.12-0.72356 12.416-2.6148 19.652-7.9285 30.336l-4.1258 8.2955 10.419 10.454c5.7304 5.75 10.876 10.454 11.435 10.454 0.55909 0 63.23-62.212 139.27-138.25zm0.48425-64.018c-5.63-5.64-10.23-10.71-10.23-11.26 0-1.3042 19.227-20.464 20.536-20.464 0.54999 0 5.6044 4.6202 11.232 10.267l10.232 10.267-10.767 10.734-10.767 10.734-10.233-10.268zm-43.24-43.23-10.47-10.51 10.74-10.74 10.74-10.74l10.738 10.738 10.738 10.738-10.47 10.506c-5.7587 5.7783-10.711 10.506-11.006 10.506-0.29465 0-5.2474-4.7277-11.006-10.506zm-42.762-42.761-10.232-10.267 10.767-10.734 10.767-10.734 10.233 10.268c5.63 5.64 10.23 10.71 10.23 11.26 0 1.3042-19.227 20.464-20.536 20.464-0.54999 0-5.6044-4.6202-11.232-10.267z"/>
	</g>
</svg>
