<svg width="512" height="512" version="1.1" viewBox="0 0 512 512" xmlns="http://www.w3.org/2000/svg">
	<g transform="translate(0 -161.53)">
		<path d="m190.8 671.99c-5.6945-2.035-8.0588-4.1138-31.035-27.287-24.827-25.04-24.872-25.115-22.944-38.075 2.136-14.362 0.49145-24.996-5.8397-37.762-5.0552-10.193-11.566-17.56-20.911-23.66-13.492-8.8078-24.948-11.158-48.16-9.8791-5.1284 0.28246-7.3444-0.081598-10.5-1.725-2.2162-1.1541-14.105-12.263-26.658-24.911-18.603-18.743-22.853-23.544-23.745-26.828-1.5622-5.7478-1.3189-10.424 0.78054-15.001 1.7737-3.8666 17.079-19.241 243.4-244.5 30.674-30.531 57.675-56.635 60.002-58.01 5.3026-3.1332 14.363-3.3983 19.731-0.57738 5.3129 2.7918 46.653 44.228 49.036 49.149 1.8372 3.7951 1.9525 5.4274 1.3799 19.536-0.59751 14.723-0.5115 15.748 1.9701 23.474 3.2684 10.176 8.4773 18.241 16.775 25.976 7.915 7.3776 13.154 10.53 23.453 14.112 7.375 2.565 9.001 2.7472 24.891 2.7901l17.001 0.045838 4.5002 3.1553c2.4751 1.7354 13.374 12.118 24.22 23.073 20.397 20.601 23.721 25.117 23.754 32.274 0.046182 9.8644 8.855 0.51048-152.79 162.24-131.06 131.14-151.24 150.94-155.11 152.26-5.3454 1.8214-8.4035 1.8529-13.208 0.1361zm85.618-127.62 77.998-78.003-73.498-73.503c-40.424-40.427-73.829-73.391-74.233-73.253-0.40423 0.13786-35.621 35.111-78.26 77.719l-77.525 77.468 5.371 5.5346c2.954 3.044 6.631 6.9971 8.1709 8.7847 2.7 3.1341 3.0706 3.2503 10.385 3.2541 28.411 0.015062 56.216 11.878 75.791 32.335 18.208 19.029 27.594 41.127 28.935 68.119l0.59829 12.045 8.6117 8.7503c4.7365 4.8127 8.8472 8.7503 9.135 8.7503 0.2878 0 35.622-35.101 78.521-78.003zm147-147 38.984-38.993-17.933-18.017h-8.6402c-10.331 0-22.819-2.0531-32.403-5.327-42.72-14.594-70.503-52.447-70.503-96.058v-10.161l-18.02-17.936-78.479 78.479 73.498 73.503c40.424 40.427 73.726 73.503 74.005 73.503 0.27906 0 18.05-17.547 39.491-38.993z"/>
	</g>
</svg>
