<svg xmlns:inkscape="http://www.inkscape.org/namespaces/inkscape" xmlns:rdf="http://www.w3.org/1999/02/22-rdf-syntax-ns#" xmlns="http://www.w3.org/2000/svg" sodipodi:docname="ticket-free.svg" height="512" width="512" version="1.1" xmlns:cc="http://creativecommons.org/ns#" xmlns:dc="http://purl.org/dc/elements/1.1/" inkscape:version="0.91 r13725" viewBox="0 0 512.00001 512.00001" xmlns:sodipodi="http://sodipodi.sourceforge.net/DTD/sodipodi-0.dtd">
	<sodipodi:namedview bordercolor="#666666" inkscape:pageshadow="2" inkscape:window-y="-8" pagecolor="#ffffff" inkscape:window-height="1017" inkscape:window-maximized="1" inkscape:zoom="0.35" inkscape:window-x="-8" showgrid="false" borderopacity="1.0" inkscape:current-layer="layer1" inkscape:cx="-126.42857" inkscape:cy="520" units="px" inkscape:window-width="1920" inkscape:pageopacity="0.0" inkscape:document-units="px"/>
	<g inkscape:label="Layer 1" inkscape:groupmode="layer" transform="translate(0 -540.36)">
		<path inkscape:connector-curvature="0" d="m282.73 1051.9c-11.198-1.3037-22.777-5.9549-32.53-13.067-5.59-4-228.97-227.45-233.37-233.37-9.0902-12.21-14.277-24.87-16.121-39.35-0.44345-3.4813-0.5643-29.806-0.44314-96.532l0.16659-91.745 1.751-5.0526c2.4059-6.9426 5.5112-12.175 10.174-17.144 6.5267-6.9554 13.578-11.261 22.646-13.827l4.2548-1.2042 89.086-0.16619c65.124-0.12149 90.647 0.00036 94.892 0.45303 15.607 1.6645 29.107 7.0045 42.061 16.637 2.8187 2.0961 42.504 41.422 117.57 116.51 93.437 93.46 113.9 114.19 116.66 118.13 5.8563 8.3881 9.782 17.942 11.553 28.116 1.2567 7.2204 0.75816 20.064-1.0557 27.197-2.304 9.0606-5.8156 16.62-11.118 23.934-2.7612 3.8087-154.53 156.32-163.07 163.87-6.9482 6.1409-13.148 9.8509-21.98 13.154-9.2884 3.4731-20.488 4.7297-31.121 3.4918zm18.813-24.466c5.4576-1.192 12.055-4.1625 16.261-7.3216 1.5408-1.1572 38.502-37.846 82.135-81.531 83.63-83.728 81.914-81.915 85.448-90.239 2.4027-5.6584 3.2593-10.315 3.1964-17.375-0.0941-10.566-3.241-19.478-9.7168-27.517-1.7113-2.1243-53.338-54.029-114.73-115.34-96.3-96.18-112.22-111.86-116.13-114.43-7.5345-4.9354-16.031-8.233-24.203-9.3932-3.06-0.43446-29.143-0.55863-93.594-0.44559l-89.352 0.15671-4.0181 1.919c-6.8884 3.2898-11.921 9.702-13.264 16.902-0.71885 3.8517-0.71243 171.85 0.007 178.68 1.04 9.873 4.0624 18.419 9.4354 26.68 2.5538 3.9263 17.635 19.23 114.69 116.38 61.46 61.522 113.18 113.01 114.94 114.42 6.5239 5.2368 15.054 8.7047 23.402 9.5138 5.547 0.5378 9.5344 0.2723 15.508-1.0323zm17.201-87.21c-1.7756-0.8006-6.9431-5.6366-20.021-18.736-9.695-9.7113-18.052-18.495-18.572-19.518-1.5167-2.9886-1.3402-7.7246 0.39645-10.637 2.1214-3.5576 68.801-69.951 71.287-70.981 2.9641-1.2281 6.6766-1.0409 9.752 0.4918 3.3628 1.676 36.791 35.098 38.214 38.207 1.0218 2.2329 1.22 6.7753 0.3908 8.9551-0.84208 2.2134-3.8554 5.3218-6.1851 6.3801-2.6186 1.1897-6.5591 1.2646-9.1962 0.1748-1.2967-0.5358-6.5085-5.3402-15.14-13.956l-13.162-13.139-8.2328 8.2199-8.2328 8.22 9.2342 9.326c9.7852 9.8826 10.425 10.849 10.405 15.708-0.0191 4.6168-3.6094 9.2949-8.1745 10.65-3.2686 0.9707-3.2213 0.9713-6.7372-0.073-2.6219-0.7786-3.7293-1.6912-12.076-9.9526l-9.1899-9.0955-8.2318 8.219-8.2318 8.2189 12.98 13.036c7.1389 7.1696 13.342 13.762 13.784 14.65 1.3789 2.7675 1.5894 5.2678 0.70083 8.3244-1.9726 6.7856-9.3421 10.203-15.761 7.308zm-66.216-66.123c-3.5913-1.8192-37.036-35.256-38.307-38.298-1.1-2.6327-1.1015-7.0316-0.003-9.6822 0.61949-1.4953 10.319-11.529 35.008-36.216 36.293-36.29 36.305-36.3 41.331-36.3 4.774 0 6.0469 1.0188 25.085 20.079 17.43 17.45 17.928 18.007 18.791 21.003 1.119 3.8838 0.71364 6.5163-1.5095 9.8026-3.0261 4.4733-8.9833 6.2185-14.062 4.1196-1.2967-0.5358-6.5085-5.3402-15.14-13.956l-13.162-13.139-8.2386 8.2257-8.2386 8.2258 9.011 9.0644c5.5275 5.5603 9.3288 9.825 9.833 11.032 1.6435 3.9335 0.74598 9.5859-1.9956 12.569-1.6834 1.8315-6.1382 3.7836-8.6173 3.776-4.0118-0.012-6.4263-1.6961-15.827-11.038l-8.9187-8.863-8.238 8.2251-8.238 8.2252 13.009 13.036c13.707 13.734 15.146 15.631 15.17 19.987 0.017 3.1511-2.395 7.5742-5.1848 9.5079-3.2566 2.2574-7.8331 2.5006-11.557 0.6142zm-65.436-65.42c-2.1332-0.9293-5.0093-3.8516-5.9083-6.0033-1.0659-2.551-0.91532-7.2831 0.3063-9.6278 0.56546-1.0853 5.2549-6.2453 10.421-11.467 10.085-10.193 11.397-12.101 11.397-16.567 0-3.9021-1.4293-6.3646-6.7001-11.543l-4.7114-4.629-13.03 12.793c-7.1668 7.0363-13.952 13.265-15.078 13.842-2.4456 1.2518-6.8362 1.3857-9.4624 0.2884-2.2699-0.9484-4.8152-3.4559-5.9628-5.8743-1.169-2.4635-1.1015-7.0052 0.14369-9.6635 0.67858-1.4487 12.001-13.094 35.49-36.501 29.799-29.696 34.837-34.501 37.02-35.308 2.8679-1.06 6.2447-0.8332 9.0506 0.6079 2.0732 1.0647 17.409 16.081 21.42 20.974 11.25 13.723 10.663 33.044-1.3956 45.934-5.5023 5.882-13.075 9.8946-20.228 10.718l-2.987 0.3439-0.89171 4.5931c-0.55705 2.8693-1.7204 6.2897-3.0999 9.1138-2.0399 4.1763-3.0415 5.3672-13.141 15.625-6.9986 7.1084-11.698 11.458-13.06 12.088-2.5027 1.1577-7.2394 1.2875-9.5915 0.2628zm40.439-65.252c6.609-1.7799 10.098-8.1977 8.1915-15.066-0.42163-1.5186-1.9687-3.5042-5.7145-7.3343l-5.1363-5.2519-8.2347 8.2624-8.2347 8.2624 4.5117 4.5618c6.5454 6.618 9.4977 7.9441 14.617 6.5654zm-137.35-32.87c-4.7105-1.1707-8.6321-6.2586-8.6321-11.199 0-5.0448 0.31843-5.4065 36.816-41.823 27.485-27.424 34.588-34.238 36.234-34.762 3.2879-1.0465 8.3714-0.48298 10.794 1.1965 1.1279 0.78189 9.6351 9.0304 18.905 18.33 17.912 17.969 19.012 19.363 19.035 24.112 0.033 6.8383-6.9575 12.776-13.406 11.387-3.4439-0.7417-5.1203-2.1344-17.967-14.926l-13.036-12.98-8.2251 8.238-8.2251 8.238 8.8311 8.9156c4.8571 4.9036 9.2604 9.7533 9.785 10.777 0.60531 1.1813 0.95669 3.0456 0.96154 5.1017 0.009 4.0267-1.7343 7.3143-5.0398 9.5018-2.9961 1.9827-7.8636 2.4531-10.888 1.0522-1.1985-0.555-5.9219-4.749-11.14-9.8916l-9.0594-8.9279-12.481 12.52c-6.8644 6.8859-13.438 13.084-14.608 13.773-2.4169 1.4236-6.09 2.0038-8.6532 1.3668z"/>
	</g>
</svg>
