<svg xmlns:rdf="http://www.w3.org/1999/02/22-rdf-syntax-ns#" xmlns="http://www.w3.org/2000/svg" height="512" width="512" version="1.1" xmlns:cc="http://creativecommons.org/ns#" xmlns:dc="http://purl.org/dc/elements/1.1/" viewBox="0 0 512.00001 512.00001">
	<g transform="translate(0 -540.36)">
		<path d="m88.047 1051.6c-28.777-2.5381-43.956-6.1291-51.016-12.07-2.4514-2.0627-2.9844-3.271-2.9844-6.7657 0-8.8379 5.8691-20.729 15.479-31.361 7.7884-8.617 22.772-18.292 33.629-21.714l5.5865-1.761-6.1087-6.1156c-6.8009-6.8086-12.745-17.564-14.664-26.533-3.6719-17.163 2.995-34.522 16.77-43.666 2.9198-1.9381 5.3088-3.8018 5.3088-4.1416s-0.7678-1.4662-1.7062-2.5032c-1.108-1.2244-1.8324-4.0566-2.066-8.0787-0.1979-3.4064 1.9199-34.144 4.7062-68.306l5.066-62.113v-44.705-44.705l-2.25 0.69162c-1.2375 0.38039-2.3005 0.74821-2.3623 0.81739-0.0618 0.0692-4.4279 19.595-9.7024 43.39-5.2746 23.796-10.174 44.479-10.888 45.963-1.8799 3.909-7.3888 7.2728-11.911 7.2728-2.8382 0-4.7178-0.79062-7.3278-3.0823-6.5053-5.7117-6.6097-4.5871 5.4875-59.082 5.9956-27.009 11.594-50.165 12.441-51.457 0.84703-1.2927 2.5795-3.0315 3.8499-3.8639 5.0945-3.338 33.548-10.462 48.178-12.062l6.0158-0.65796 1.5876 3.3527c1.4975 3.1625 1.341 5.2794-2.7588 37.314l-4.3464 33.961 4.782 8.4089c2.6301 4.6249 5.1969 8.4089 5.7039 8.4089 0.50706 0 3.0679-3.7737 5.6908-8.3859l4.7689-8.3859-4.3849-33.899c-4.1828-32.337-4.3096-34.057-2.7508-37.326l1.6341-3.4266 6.3861 0.68389c13.556 1.4518 30.306 5.7794 58.435 15.098 16.072 5.3243 29.784 9.891 30.471 10.148 0.98607 0.36897 1.25-7.4352 1.25-36.961 0-41.622 0.2626-43.66 6.4483-50.029 7.2274-7.4418 5.5151-7.2219 58.802-7.5514l47.75-0.29526 0.006-7.7047c0.008-10.472 1.3308-14.81 5.114-16.767 3.6303-1.8773 7.8985-1.1796 10.527 1.7208 1.4978 1.6529 1.9192 4.0419 2.1947 12.443l0.34061 10.398h45.75c48.781 0 51.357 0.2213 58.051 4.9878 1.7202 1.2249 4.3403 4.0913 5.8224 6.3697l2.6947 4.1425 0.28192 76c0.31161 84.004 0.53968 80.706-6.0487 87.478-6.3671 6.5453-8.516 6.9752-34.983 6.9997-13.062 0.0121-23.75 0.32657-23.75 0.69888 0 0.3723 8.325 31.775 18.5 69.783s18.5 70.138 18.5 71.4c0 2.8387-5.1294 8.1401-7.876 8.1401-2.8265 0-6.5341-1.823-7.7713-3.8212-0.57173-0.92336-9.7408-34.191-20.376-73.929l-19.336-72.25h-14.82-14.82v51.55c0 56.436-0.0192 56.629-5.7682 58.139-3.8432 1.0092-6.3787 0.45993-8.973-1.9439l-2.2412-2.0767-0.25875-52.584-0.25876-52.584h-14.913-14.913l-19.221 71.748c-10.572 39.462-19.901 72.786-20.731 74.053-1.4357 2.1911-1.3409 2.4207 1.9235 4.6575 4.6096 3.1586 8.8231 8.6422 12.067 15.705 3.5318 7.6888 4.3194 20.255 1.8137 28.934-2.6377 9.1367-7.4511 17.324-14.113 24.007l-6.0871 6.1058 6.7124 2.1618c21.306 6.8621 44.244 29.825 47.576 47.627l0.7487 4 0.84801-3.9678c3.9989-18.711 26.709-41.046 48.822-48.017l5.5122-1.7376-6.0228-6.1546c-10.864-11.102-15.963-23.874-15.353-38.46 0.56896-13.619 6.5718-24.478 17.565-31.775 16.195-10.75 37.111-8.6731 50.831 5.0467 17.084 17.084 15.72 44.505-3.2115 64.573l-6.4228 6.8085 5.2845 1.731c16.389 5.3682 32.311 17.502 41.276 31.453 5.0424 7.8471 7.1914 13.13 8.087 19.882 0.63269 4.7695 0.48749 5.2534-2.38 7.932-9.2348 8.6266-43.425 14.099-80.315 12.855-33.209-1.1196-55.807-6.0359-62.095-13.51l-2.3696-2.816-1.7603 2.3336c-13.698 18.16-123.62 19.106-142.76 1.2288l-2.955-2.7604-2.4551 2.455c-4.6934 4.6934-15.988 8.3569-33.716 10.936-9.9142 1.4424-47.55 2.6792-56.774 1.8658zm95.33-28.292c5.5366-17.766 25.992-36.537 47.482-43.573l5.3117-1.7391-5.886-6.1491c-16.063-16.781-20.181-37.016-11.246-55.254 6.8348-13.95 24.942-24.028 39.104-21.764 3.5508 0.56779 3.7256 0.4582 4.4195-2.77 0.39735-1.8487 8.7691-33.383 18.604-70.077 9.8348-36.694 17.881-67.406 17.881-68.25 0-1.3353-3.0489-1.5341-23.532-1.5341-17.485 0-24.359-0.34654-26.75-1.3485-4.7575-1.9937-9.5164-6.3625-12.012-11.027-2.0648-3.86-2.2262-5.6318-2.5197-27.657l-0.31355-23.533-31.186-10.361c-17.153-5.6985-31.749-10.569-32.436-10.824-0.98833-0.36592-1.25 8.9541-1.25 44.522v44.985l5 61.744c2.75 33.959 5 64.223 5 67.254 0 11.98-10.625 19.354-21.4 14.852-4.1506-1.7342-8.2406-6.9912-9.0297-11.606-0.48888-2.8591-9.57-113.48-9.57-116.57 0-0.50963-2.8846-0.92659-6.4103-0.92659h-6.4103l-0.58812 6c-0.32347 3.3-2.3837 29.175-4.5784 57.5-2.3329 30.109-4.5658 53.263-5.376 55.745l-1.3857 4.2453 4.1244 1.096c6.4844 1.7231 13.289 5.8472 18.056 10.943 16.575 17.72 14.951 43.806-3.9764 63.871l-6.5239 6.9157 5.2845 1.731c22.044 7.2208 43.253 26.996 47.941 44.703 0.69182 2.6125 1.502 4.7462 1.8004 4.7415 0.29843-0.01 1.3662-2.6512 2.3727-5.881zm276.12-283.47c1.8646-0.77907 4.2126-2.6717 5.2179-4.2058 1.7283-2.6375 1.8278-6.7707 1.8278-75.932 0-79.232 0.19298-76.424-5.4827-79.776-2.5896-1.5297-11.342-1.669-104.67-1.6656-99.082 0.004-101.93 0.0565-105.03 1.9465-1.7524 1.0685-3.6701 2.8469-4.2615 3.952-0.7284 1.361-0.99096 14.821-0.81382 41.72l0.26151 39.711 4.2385 1.4126c10.538 3.512 12.327 17.584 2.9629 23.294-1.7608 1.0736-4.214 1.9537-5.4514 1.9558l-2.25 0.004v20.923 20.923l3.0085 3.0085c1.6547 1.6547 4.0172 3.203 5.25 3.4407 1.2328 0.23774 47.143 0.49354 102.02 0.56844 84.042 0.1147 100.32-0.0873 103.17-1.2803zm-334.09-108.62c-8.672-2.6767-18.487-12.68-22.538-22.969-2.9213-7.4206-3.5622-19.251-1.3961-25.772 3.2847-9.8893 12.397-18.358 22.798-21.187 14.398-3.917 30.718 3.6802 37.77 17.582 3.7591 7.4108 4.019 18.669 0.638 27.638-4.258 11.296-10.313 18.488-19.542 23.212-4.0527 2.0744-13.322 2.8566-17.729 1.4962z"/>
	</g>
</svg>
