<svg xmlns:inkscape="http://www.inkscape.org/namespaces/inkscape" xmlns:rdf="http://www.w3.org/1999/02/22-rdf-syntax-ns#" xmlns="http://www.w3.org/2000/svg" sodipodi:docname="trash-stroke.svg" height="512" width="512" version="1.1" xmlns:cc="http://creativecommons.org/ns#" xmlns:dc="http://purl.org/dc/elements/1.1/" inkscape:version="0.91 r13725" viewBox="0 0 512.00001 512.00001" xmlns:sodipodi="http://sodipodi.sourceforge.net/DTD/sodipodi-0.dtd">
	<sodipodi:namedview bordercolor="#666666" inkscape:pageshadow="2" inkscape:window-y="-8" pagecolor="#ffffff" inkscape:window-height="1017" inkscape:window-maximized="1" inkscape:zoom="0.35" inkscape:window-x="-8" showgrid="false" borderopacity="1.0" inkscape:current-layer="layer1" inkscape:cx="-126.42857" inkscape:cy="520" units="px" inkscape:window-width="1920" inkscape:pageopacity="0.0" inkscape:document-units="px"/>
	<g inkscape:label="Layer 1" inkscape:groupmode="layer" transform="translate(0 -540.36)">
		<path inkscape:connector-curvature="0" d="m102.01 1049.9c-2.3721-1.287-5.4412-4.5222-6.8204-7.1892-1.916-3.7-6.375-49.04-18.999-193.31-9.072-103.68-16.792-189.39-17.157-190.48-0.48474-1.4409-6.1725-1.9694-21.194-1.9694h-20.531v-19.694-19.694h70.11 70.11l0.0347-25.602c0.029-21.492 0.50229-26.632 2.9476-32.016 3.451-7.5982 12.943-15.886 20.651-18.031 7.6606-2.1316 142.39-2.0253 150.11 0.11832 3.2732 0.90896 8.4495 3.8462 11.503 6.5272 9.9677 8.7518 10.821 11.773 11.693 41.431l0.78776 26.784 69.717 0.41026 69.717 0.41026v19.678 19.678h-21.269c-18.074 0-21.269 0.36344-21.269 2.4191 0 1.3305-7.4765 87.24-16.614 190.91-12.95 146.92-17.167 189.43-19.12 192.73-5.8803 9.9544 3.6502 9.4009-160.66 9.3314-129.1-0.055-150.02-0.3814-153.74-2.4031zm279.24-38.23c0-2.6454 29.818-341.59 30.62-348.06l0.82981-6.6959h-156.85-156.85l0.95849 8.2715c0.52719 4.5493 7.2929 80.942 15.035 169.76 7.742 88.82 14.503 165.21 15.023 169.76l0.94693 8.2714h125.14c68.827 0 125.14-0.5889 125.14-1.3086zm-66.172-413.07v-18.925l-58.688 0.41305-58.688 0.41306-0.44389 18.512-0.44387 18.512h59.132 59.132v-18.925z"/>
	</g>
</svg>
