<?xml version="1.0" encoding="UTF-8" standalone="no"?>
<svg id="svg2" xmlns:rdf="http://www.w3.org/1999/02/22-rdf-syntax-ns#" xmlns="http://www.w3.org/2000/svg" height="512" width="512" version="1.1" xmlns:cc="http://creativecommons.org/ns#" xmlns:dc="http://purl.org/dc/elements/1.1/" viewBox="0 0 512.00001 512.00001">
	<g id="layer1" transform="translate(0,-540.36216)">
		<path id="path3594" d="m96.260999 1051.0059c-14.446366-4.7851-22.334271-15.2887-22.305578-29.7022 0.02439-12.2528 5.74267-21.35353 16.929868-26.94385 7.330136-3.66291 15.676771-4.15296 23.782831-1.39636 7.10574 2.41642 15.80657 11.27531 18.22475 18.55571 4.79512 14.4367-1.80607 30.7612-15.05732 37.2363-6.45734 3.1552-15.87641 4.1378-21.574551 2.2504zm15.172241-16.2231c13.54511-7.7654 8.08346-28.2403-7.5331-28.2403-5.900625 0-10.53025 2.8269-13.200085 8.0601-3.201648 6.2757-2.417967 12.1136 2.318494 17.2712 4.968034 5.4097 12.090321 6.5349 18.414691 2.909zm145.9804 16.5302c-13.49614-3.3715-23.1364-15.5402-23.13813-29.2071-0.002-17.7692 13.14792-30.8494 31.01423-30.8494 5.3411 0 7.63325 0.59008 12.91688 3.32524 27.18441 14.07246 19.11747 54.48366-11.41877 57.20216-3.03685 0.2702-7.25523 0.058-9.37421-0.4709zm12.84527-15.6111c7.79519-3.257 11.37424-11.6425 8.34954-19.5626-5.99313-15.6928-29.03795-11.1096-29.05166 5.7778-0.009 10.7655 10.76267 17.9379 20.70212 13.7848zm-264.5762254-21.6008c-1.2038342-1.2038-1.6005805-3.7452-1.6005805-10.2524 0-13.81602-3.6249932-12.5922 37.2985469-12.5922h35.189774l-3.243133 4.09479c-3.756659 4.74321-7.55913 12.28351-8.593005 17.04011l-0.719514 3.3104h-28.365755c-24.42898 0-28.5878909-0.2222-29.9663334-1.6007zm138.6316354 0.9333c-0.37987-0.3799-0.69105-1.4165-0.69148-2.3034-0.00099-2.7633-5.69132-13.79633-9.14161-17.72598l-3.29123-3.74852h37.79191 37.79191v-71.85844c0-78.63867-0.1777-76.28217 5.94329-78.81755 2.16784-0.89796 10.60585-1.13815 30.8592-0.87844 32.34543 0.41479 35.24195 1.06025 45.07116 10.04359 5.75428 5.2591 36.42986 49.58843 40.67752 58.78316 2.12674 4.60366 2.24306 6.45732 2.73064 43.51346l0.50928 38.70494 7.12986 0.28862c5.20068 0.21053 7.47435 0.7455 8.40305 1.97714 1.96464 2.60554 1.70932 19.05142-0.32739 21.08812-1.35025 1.3503-4.84367 1.6007-22.33586 1.6007h-20.73527l-1.59074-5.472c-2.46817-8.4901-9.08526-17.56444-16.12731-22.11593-23.14159-14.95713-51.92633-4.97806-60.71147 21.04743l-2.03589 6.0312-39.61443 0.2662c-21.78794 0.1465-39.92525-0.044-40.30514-0.4243zm154.30355-105.92915c1.02448-0.92712 1.86268-2.4182 1.86268-3.3135 0-1.95692-22.45849-34.26738-26.08327-37.52532-2.45239-2.20422-3.27803-2.29174-21.61881-2.29174-15.61049 0-19.47962 0.28758-21.33278 1.58558-2.20143 1.54194-2.26374 2.10751-2.26374 20.54546 0 16.21301 0.24422 19.22974 1.68569 20.82256 1.56514 1.72945 3.98132 1.86266 33.78663 1.86266 28.44091 0 32.31332-0.1922 33.9636-1.6857zm-280.71257 65.2724c-1.426525-1.42653-1.600409-9.87218-1.598997-77.66454 0.0014-70.40354 0.134109-76.32386 1.782464-79.55649 0.979485-1.92089 3.07495-4.4418 4.656588-5.60203 2.849904-2.09058 3.581064-2.1095 81.484105-2.1095h78.6084l3.42553 2.44316c6.46763 4.61283 6.25071 1.66137 6.25071 85.04678 0 67.58925-0.17417 76.01621-1.60059 77.44262-1.42946 1.42948-10.67713 1.60059-86.5041 1.60059-75.826957 0-85.074639-0.17111-86.50411-1.60059zm341.65122-28.80316v-15.12546l6.87522-2.88402c46.53859-19.52201 85.78438-60.98361 102.64815-108.44368 7.95769-22.39547 10.72037-38.9259 10.73117-64.20983 0.0213-49.75201-18.87723-95.11873-54.53209-130.9068-28.50622-28.61272-63.03925-46.20465-103.91812-52.93834-13.74228-2.26365-42.27805-2.26365-56.02033 0-40.9005 6.73725-75.36505 24.31844-103.96157 53.03331-29.34757 29.46902-46.41603 63.6044-52.95159 105.89842-1.38793 8.98173-1.61216 15.14366-1.1305 31.06581 0.33047 10.92397 0.9007 21.12221 1.26718 22.66276l0.66632 2.80103h-14.318343c-7.875084 0-14.567883-0.40377-14.87288-0.89727-0.304996-0.4935-1.098648-7.59047-1.763671-15.77105-4.05678-49.90327 11.527357-101.93502 43.208434-144.26279 8.77348-11.7219 28.7739-31.91394 40.12593-40.51038 58.19181-44.06636 130.96267-56.61778 198.81211-34.29084 32.76851 10.78301 60.41694 27.91627 85.24142 52.82265 26.35934 26.44632 44.29554 56.16895 54.3689 90.0963 20.21783 68.09429 5.92368 141.21472-38.4535 196.70561-18.30724 22.89205-41.00391 41.80603-66.37294 55.31103-9.67355 5.14965-32.45644 14.96901-34.73107 14.96901-0.50503 0-0.91823-6.80646-0.91823-15.12547zm-40.19978-101.85773c-1.02539-4.66853-7.70141-14.38456-13.22409-19.24581-9.0977-8.00811-22.0205-12.42464-36.46328-12.4618l-6.87522-0.0177v-18.33393-18.33392h-33.29062c-31.76439 0-33.4937-0.0982-37.72047-2.14446-7.50467-3.6329-8.43592-6.71312-8.43592-27.90276 0-21.18966 0.93125-24.26986 8.43592-27.90281 4.22677-2.04614 5.95608-2.14446 37.72047-2.14446h33.29062v-33.29062c0-31.76438 0.0982-33.49369 2.14445-37.72046 3.63295-7.50467 6.71316-8.43592 27.90281-8.43592s24.26986 0.93125 27.90281 8.43592c2.04614 4.22677 2.14445 5.95608 2.14445 37.72046v33.29062h33.29062c31.76439 0 33.4937 0.0983 37.72046 2.14446 7.50468 3.63295 8.43592 6.71315 8.43592 27.90281 0 21.18964-0.93124 24.26986-8.43592 27.90281-4.22644 2.04598-5.95672 2.14445-37.68192 2.14445h-33.25206l-0.29319 34.58102c-0.20626 24.32878-0.6401 34.92757-1.46334 35.74996-0.88081 0.87992-1.33886 0.40079-1.8525-1.93784z"/>
	</g>
</svg>
