<svg xmlns:rdf="http://www.w3.org/1999/02/22-rdf-syntax-ns#" xmlns="http://www.w3.org/2000/svg" height="512" width="512" version="1.1" xmlns:cc="http://creativecommons.org/ns#" xmlns:dc="http://purl.org/dc/elements/1.1/" viewBox="0 0 512.00001 512.00001">
	<g transform="translate(0 -540.36)">
		<path d="m106.32 1016.7c-28.287-4.6417-50.566-21.101-62.361-46.074-5.545-11.74-8.1016-24.68-7.5798-38.366l0.31782-8.3371-11.042-0.1794-11.042-0.1793-3.4822-1.7154c-4.4015-2.1681-7.6419-5.3724-9.601-9.4939l-1.53-3.24 0.13568-159.91 0.13569-159.92 1.559-3.08c1.9234-3.7959 5.7486-7.4515 9.7689-9.3358l3.0436-1.4265h166.07 166.07l2.9275 1.3809c5.7844 2.7285 9.6969 8.2224 10.676 14.991 0.26428 1.8273 0.48533 9.4901 0.49122 17.028l0.0107 13.706 6.2543-0.0267c3.4398-0.0147 22.839-0.45611 43.109-0.98094s37.875-0.79508 39.122-0.60056c4.9598 0.7737 10.692 4.7438 12.808 8.8697 0.42886 0.83659 11.766 27.869 25.193 60.072l24.414 58.551 0.13791 84.879c0.15287 94.073 0.40655 87.116-3.3634 92.255-2.0561 2.8028-6.2145 5.6879-9.6109 6.6681-1.5471 0.4464-9.2506 0.6322-26.215 0.6322h-24.024l-0.0106 4.9236c-0.0277 12.955-4.6821 28.778-11.843 40.263-10.315 16.544-25.736 28.902-43.77 35.077-9.421 3.2259-14.806 4.0452-26.614 4.0499-9.729 0.01-11.178-0.1206-16.825-1.4453-24.715-5.7972-44.605-20.931-55.748-42.415-6.7717-13.056-9.4342-24.994-9.0309-40.493l0.23439-9.009h-42.771-42.771l0.35614 8.1172c0.64486 14.698-1.7342 26.399-8.0349 39.522-11.103 23.124-33.4 40.13-58.628 44.715-6.6309 1.2053-21.052 1.4814-26.937 0.5159zm23.292-36.946c14.819-3.786 26.741-14.955 31.64-29.642 4.1166-12.342 3.3378-23.403-2.4839-35.282-2.6622-5.432-3.5166-6.6206-8.0821-11.244-9.9722-10.098-20.884-14.343-35.131-13.666-12.323 0.5855-21.896 5.0567-30.725 14.351-5.6581 5.9565-8.7482 11.604-10.909 19.936-1.6387 6.3191-1.6415 16.532-0.006 22.663 4.021 15.075 15.006 27.02 29.221 31.774 2.7102 0.9064 6.3031 1.8659 7.9842 2.1322 4.5626 0.7228 13.623 0.2221 18.493-1.0219zm248.57-0.017c7.832-2.02 14.39-5.6909 20.42-11.43 23.017-21.907 16.913-60.143-11.813-73.993-2.6845-1.2944-6.3181-2.7431-8.0746-3.2194-4.3686-1.1846-14.61-1.6287-19.185-0.832-13.909 2.4222-25.977 11.105-32.66 23.498-4.0436 7.4985-5.4544 13.226-5.4407 22.086 0.0183 11.778 4.3307 22.467 12.51 31.011 11.559 12.074 28.381 16.97 44.244 12.88zm97.673-134.95v-51.365h-57.486-57.486v29.949 29.949l6.7319 0.1001c8.1043 0.1205 12.916 0.7757 20.68 2.8158 20.824 5.4714 38.097 18.762 49.974 38.452l0.88294 1.4638h18.351 18.351v-51.365zm-421.83 39.848c2.3648-3.3068 9.7339-10.703 13.839-13.89 21.377-16.595 49.167-21.448 75.583-13.199 15.703 4.9035 29.702 14.622 39.217 27.225l2.1624 2.864h57.89 57.89l2.308-3.0606c4.5526-6.0371 11.448-12.447 18.467-17.166l2.7709-1.8629 0.001-127.08 0.001-127.08h-143.98-143.98v138.13 138.13l7.8511-0.012 7.8511-0.012 2.1291-2.9773zm421.83-127.7c0-0.4587-41.097-98.924-41.462-99.339-0.17699-0.20155-15.412-0.0285-33.855 0.38448-18.443 0.41302-34.911 0.75757-36.594 0.76568l-3.0606 0.0147v49.236 49.236h57.486c31.617 0 57.486-0.1337 57.486-0.297z"/>
	</g>
</svg>
