<svg xmlns:rdf="http://www.w3.org/1999/02/22-rdf-syntax-ns#" xmlns="http://www.w3.org/2000/svg" height="512" width="512" version="1.1" xmlns:cc="http://creativecommons.org/ns#" xmlns:dc="http://purl.org/dc/elements/1.1/" viewBox="0 0 512.00001 512.00001">
	<g transform="translate(0 -540.36)">
		<path d="m135.14 1016.9c-25.066-3.4445-46.597-17.405-60.004-38.909-7.1607-11.484-11.815-27.308-11.843-40.263l-0.0105-4.9236h-24.024c-16.964 0-24.668-0.1858-26.215-0.6322-3.3964-0.9802-7.5548-3.8653-9.6109-6.6681-3.7699-5.139-3.5163 1.8188-3.3634-92.255l0.13793-84.879 24.414-58.551c13.428-32.203 24.765-59.235 25.193-60.072 2.1151-4.1259 7.8478-8.096 12.808-8.8698 1.247-0.1945 18.852 0.076 39.122 0.6006 20.27 0.5248 39.67 0.9663 43.109 0.9809l6.2543 0.027 0.0107-13.706c0.006-7.5384 0.22693-15.201 0.49121-17.028 0.979-6.7687 4.8915-12.263 10.676-14.991l2.9275-1.3808h166.07 166.07l3.0436 1.4265c4.0203 1.8843 7.8455 5.54 9.7688 9.3358l1.559 3.0769 0.13568 159.92 0.14 159.91-1.533 3.225c-1.9591 4.1216-5.1995 7.3258-9.601 9.494l-3.4822 1.7153-11.042 0.1794-11.042 0.1794 0.31782 8.3371c0.3842 10.078-0.59615 17.994-3.3729 27.233-10.69 35.571-43.992 59.327-81.077 57.838-9.2445-0.3712-15.238-1.3812-22.698-3.825-21.486-7.0382-38.764-22.059-48.357-42.037-6.3008-13.122-8.6798-24.824-8.0349-39.522l0.35614-8.1172h-42.771-42.771l0.23439 9.0089c0.31906 12.263-0.89348 20.103-4.7811 30.912-7.1692 19.934-23.352 37.392-42.773 46.145-11.73 5.2866-19.454 7.0645-31.921 7.3477-4.9768 0.1131-10.606-0.01-12.509-0.2698zm21.025-37.238c20.243-5.2208 34.366-23.241 34.398-43.89 0.0137-8.8604-1.397-14.588-5.4407-22.086-6.6834-12.394-18.751-21.076-32.66-23.498-4.5751-0.7968-14.817-0.3526-19.185 0.832-1.7565 0.4763-5.3901 1.925-8.0747 3.2193-28.726 13.85-34.831 52.086-11.813 73.993 7.008 6.6702 14.327 10.399 24.062 12.26 4.9778 0.9513 13.228 0.5856 18.714-0.8293zm244.27 1.0277c18.121-2.6193 32.844-15.873 37.65-33.895 1.6353-6.131 1.6325-16.344-0.006-22.663-2.1608-8.3324-5.251-13.98-10.909-19.936-8.829-9.2946-18.401-13.766-30.725-14.351-14.247-0.6769-25.159 3.5679-35.131 13.666-4.5655 4.6233-5.4199 5.8119-8.0821 11.244-5.8217 11.879-6.6004 22.94-2.4839 35.282 7.0044 21 27.783 33.819 49.687 30.653zm-326.71-86.07c9.817-16.275 23.729-28.495 40.163-35.28 4.76-1.9652 14.153-4.49 19.713-5.2988 2.2257-0.3238 7.0761-0.6338 10.779-0.6888l6.7319-0.1002v-29.949-29.949h-57.486-57.486v51.365 51.365h18.351 18.351l0.88295-1.4637zm255.6-9.9167c9.5154-12.603 23.514-22.321 39.217-27.225 26.417-8.2492 54.206-3.3964 75.583 13.199 4.1054 3.187 11.474 10.583 13.839 13.89l2.1291 2.9772 7.8511 0.012 7.8511 0.012v-138.13-138.13h-143.98-143.98l0.001 127.08 0.001 127.08 2.7709 1.863c7.0191 4.7192 13.915 11.129 18.467 17.166l2.308 3.0606h57.89 57.89l2.1624-2.8641zm-178.21-176.77v-49.236l-3.0606-0.015c-1.6833-0.01-18.151-0.3527-36.594-0.7657s-33.678-0.5861-33.855-0.3845c-0.36485 0.4155-41.462 98.881-41.462 99.339 0 0.1634 25.869 0.297 57.486 0.297h57.486v-49.236z"/>
	</g>
</svg>
