<?xml version="1.0" encoding="UTF-8" standalone="no"?>
<svg id="svg2" xmlns:rdf="http://www.w3.org/1999/02/22-rdf-syntax-ns#" xmlns="http://www.w3.org/2000/svg" height="512" width="512" version="1.1" xmlns:cc="http://creativecommons.org/ns#" xmlns:dc="http://purl.org/dc/elements/1.1/" viewBox="0 0 512.00001 512.00001">
	<g id="layer1" transform="translate(0,-540.36216)">
		<path id="path3347" d="m41.5 1051.3299c-18.323486-3.7875-33.0260317-16.9237-39.1372381-34.9677-1.79413239-5.2974-1.8627619-13.4028-1.8627619-220.00002 0-206.5972 0.0686295-214.70264 1.8627619-220 5.2089357-15.37993 16.8505631-27.39289 32.2179631-33.24562l5.919275-2.25438h215.5 215.5l5.91927 2.25438c15.3674 5.85273 27.00903 17.86569 32.21797 33.24562 1.79413 5.29736 1.86276 13.4028 1.86276 220 0 206.59722-0.0686 214.70262-1.86276 220.00002-5.20894 15.3799-16.85057 27.3929-32.21797 33.2456l-5.91927 2.2544-213 0.1473c-117.15 0.081-214.8-0.2248-217-0.6796zm182.07632-120.0307c78.03403-7.59345 136.99412-52.29207 163.82204-124.19618 7.262-19.46357 11.8478-41.29221 13.8246-65.80566l1.17452-14.56481 4.3587-3.34608c8.18358-6.28234 18.11745-17.06666 20.83246-22.61595 1.47316-3.01101 2.49642-5.65662 2.27392-5.87912s-3.9951 0.85773-8.38355 2.4005c-4.38846 1.54278-12.24818 3.73542-17.46605 4.87254l-9.48705 2.06749 6.83158-6.10657c8.0062-7.15654 15.74064-17.73678 18.64948-25.51137 1.13485-3.03315 1.86708-5.71109 1.62718-5.951-0.2399-0.2399-5.57552 1.80142-11.85692 4.53627-12.16228 5.29531-22.40374 8.76322-27.43957 9.29145-2.57451 0.27005-4.09743-0.61651-9.24413-5.38145-19.36884-17.93213-50.3218-20.62213-77.06616-6.6975-24.86351 12.94535-38.22902 35.02854-36.75871 60.73466 0.30564 5.34367 0.88836 10.55535 1.29493 11.58152 0.69081 1.74355 0.31992 1.82082-5.66218 1.17963-48.36777-5.18429-85.3179-22.97407-122.82328-59.13374l-12.08468-11.65108-1.9815 4.4795c-8.33278 18.83764-6.69599 44.99808 4.12842 65.98376 2.89425 5.61118 6.40203 10.42804 10.89345 14.95883l6.6246 6.68265-5.07921-0.54954c-4.45902-0.48245-14.34495-3.36096-19.98927-5.82033-1.80075-0.78463-1.8727-0.4748-1.25719 5.41406 1.57215 15.04148 8.03298 30.69849 16.62251 40.28253 6.32646 7.05895 17.03746 14.27298 27.38842 18.44654l7.88202 3.17807-6.40692 0.68612c-3.52381 0.37737-9.42553 0.53113-13.11495 0.34168-4.53777-0.233-6.70735 0.0225-6.70593 0.78976 0.005 2.60729 8.27154 17.28766 12.70961 22.57025 11.34542 13.50434 23.85817 20.03894 46.58339 24.3275 3.55616 0.6711 2.96103 1.54336-4.51847 6.62259-21.13447 14.35215-47.82521 22.25314-75.3759 22.31277l-15.10348 0.0327 3.10348 1.90299c8.31123 5.09629 33.84799 16.78944 43.5934 19.96119 9.92464 3.23008 26.99961 6.99842 36.01007 7.9472 7.78905 0.82017 27.29809 0.62581 37.57632-0.37436z"/>
	</g>
</svg>
