<?xml version="1.0" encoding="UTF-8" standalone="no"?>
<svg id="svg2" xmlns:rdf="http://www.w3.org/1999/02/22-rdf-syntax-ns#" xmlns="http://www.w3.org/2000/svg" height="512" width="512" version="1.1" xmlns:cc="http://creativecommons.org/ns#" xmlns:dc="http://purl.org/dc/elements/1.1/" viewBox="0 0 511.99999 512.00001">
	<path id="path3447" d="m337.75493 328.22094c-95.71702 11.6444-174.27161 20.93073-174.56568 20.63628-0.29411-0.29444 8.04319-69.75858 18.5273-154.3648 10.48415-84.60617 20.19149-162.9786 21.57192-174.16093l2.50986-20.33148971 38.32283 38.38983971 38.32283 38.389852-11.08475 87.243118c-6.09664 47.98371-10.92301 87.4051-10.72523 87.60308 0.19774 0.19797 39.6479-4.559 87.66704-10.57105l87.3075-10.93099 38.30219 38.32503c21.06646 21.07851 38.2061 38.387 38.08866 38.46273-0.11741 0.0756-78.52745 9.66494-174.24449 21.30933zm-164.096 163.23621c-95.038951 11.53492-173.1814489 20.77718-173.6500289 20.53832-0.70929-0.36153 41.2047299-344.46471 42.2651699-346.98597 0.19099-0.45409 17.49159 16.3388 38.445728 37.31753l38.098481 38.14314-10.93583 86.75469c-6.01472 47.71508-10.717281 86.9735-10.450181 87.24092 0.26709 0.26742 39.554011-4.36611 87.304241-10.29674l86.81854-10.78298 38.03855 38.08315c20.92121 20.94573 37.77413 38.2929 37.45096 38.54925-0.32316 0.25633-78.34669 9.90376-173.38563 21.43869z"/>
</svg>
