<?xml version="1.0" encoding="UTF-8" standalone="no"?>
<svg id="svg2" xmlns:rdf="http://www.w3.org/1999/02/22-rdf-syntax-ns#" xmlns="http://www.w3.org/2000/svg" height="512" width="512" version="1.1" xmlns:cc="http://creativecommons.org/ns#" xmlns:dc="http://purl.org/dc/elements/1.1/" viewBox="0 0 512.00001 512.00001">
	<g id="layer1" transform="translate(0,-540.36216)">
		<path id="path3555" d="m41.462438 1051.2985c-7.126588-2.0725-10.447432-9.1073-10.456861-22.1516l-0.005577-7.7153 8.288985 8.7153c4.558942 4.7934 11.15527 11.7528 14.658508 15.4653l6.369522 6.75-7.908508-0.09c-4.349679-0.05-9.27541-0.4877-10.946069-0.9736zm61.307582-20.6402c11.60274-11.9879 30.39523-31.02112 41.7611-42.29612l20.66522-20.5-0.44197 37.00002c-0.47307 39.6041-0.562 40.2994-5.75568 45.0023-2.10976 1.9105-3.84587 2.0106-39.76532 2.2938l-37.559243 0.2961 21.095893-21.7961zm93.2439 18.8716c-8.43322-8.4332-8.84975-36.3366-0.65731-44.033l2.30628-2.1667 119.58818 0.266 119.58818 0.266 2.55135 2.397c3.83948 3.6073 5.07494 8.4838 5.09304 20.103 0.0193 12.3916-1.56646 18.747-5.6551 22.6645l-2.95942 2.8355-118.49155 0.2699-118.49155 0.27-2.8721-2.8722zm-126.51392-28.1012c-1.1-0.4949-10.020239-8.9622-19.822754-18.8162-16.435382-16.52162-17.867304-18.24842-18.395046-22.18303l-0.572292-4.26675 202.642902-202.65027 202.6429-202.65027h4.49881 4.49881l18.75334 18.75333 18.75333 18.75334v4.49635 4.49636l-202.02699 202.02699c-179.20261 179.20261-202.41936 202.07855-205.5 202.48345-1.910156 0.2511-4.37301 0.0516-5.47301-0.4433zm127.63305-44.60802c-4.89583-4.11957-7.40414-12.17545-7.52778-24.17679l-0.10527-10.21828 5.9687-6.03172 5.96869-6.03171h136.26553 136.26553l3.26577 2.91916 3.26578 2.91916v16.83084c0 15.1608-0.20335 17.17813-2.04938 20.33084-1.28647 2.19707-3.33393 3.94432-5.5 4.69356-2.60378 0.90064-36.50183 1.20741-138.12389 1.25l-134.67328 0.0564-3.0204-2.5415zm-155.528728-120.49693c-4.76549-1.42606-8.408708-5.71733-9.646369-11.36226-0.760543-3.46881-1.012502-19.32812-0.787993-49.59931l0.33004-44.5 2.5-4.98323c3.06225-6.10395 6.428357-8.15439 15.551128-9.47287 4.236044-0.61221 42.083517-1.01202 96.945802-1.02409l89.99692-0.0198-60.99385 61-60.99385 61-35.003076-0.086c-19.251691-0.04731-36.306129-0.4759-37.898752-0.95249zm247.943118-15.19268c8.70741-8.94789 35.65886-36.40518 59.89211-61.01621l44.06045-44.74731 37 0.003c21.29315 0.002 38.50991 0.42235 40.55685 0.99099 1.95626 0.54345 4.7662 2.2504 6.24432 3.79321 4.38165 4.57346 5.01113 13.39946 4.50425 63.15465-0.47678 46.80153-0.46783 46.72209-5.80776 51.55525-2.171 1.96497-3.84336 2.00204-102.24449 2.26653l-100.03738 0.26889 15.83165-16.26889zm-248.151974-179.84998c-4.758464-1.38056-8.144189-5.42377-9.422428-11.2522-0.779454-3.5541-1.030107-19.05582-0.803078-49.66671 0.320906-43.2685 0.390424-44.63071 2.512011-49.22333 4.762634-10.3097 9.376975-10.97845 72.995839-10.5791 46.85501 0.29413 48.25531 0.35912 51 2.36696 1.55221 1.1355 3.72219 3.8355 4.82219 6 1.9193 3.77667 2 5.91396 2 52.96908 0 45.82581-0.12285 49.30596-1.87785 53.19673-3.38837 7.51187-1.35618 7.28128-63.273279 7.17947-30.166879-0.0496-56.245911-0.49551-57.953405-0.9909zm154.598524-1.77108c-8.59004-8.59004-8.77351-37.4565-0.28053-44.13708 2.5125-1.97633 3.92767-2.01075 82.66374-2.01075h80.10749l-24.48469 24.5-24.48469 24.5h-55.33458-55.33458l-2.85216-2.85217zm2.25445-71.36902c-3.06718-1.47917-7.07483-10.03647-8.3553-17.84056-1.8758-11.43245 0.47905-22.59838 5.80734-27.53647l2.59157-2.40178h116.59632 116.59632l-24.48469 24.5-24.48469 24.5-91.00766-0.0677c-63.28738-0.0471-91.69346-0.39842-93.25921-1.15351zm267.33413-32.43942-14.91744-15.51454 12.08986 0.33758c11.15924 0.31159 12.2871 0.52308 14.65213 2.7475 3.20127 3.01095 3.7739 6.09252 3.39447 18.26703l-0.30159 9.67696-14.91743-15.51453z"/>
	</g>
</svg>
