<?xml version="1.0" encoding="UTF-8" standalone="no"?>
<svg id="svg2" xmlns:rdf="http://www.w3.org/1999/02/22-rdf-syntax-ns#" xmlns="http://www.w3.org/2000/svg" height="512" width="512" version="1.1" xmlns:cc="http://creativecommons.org/ns#" xmlns:dc="http://purl.org/dc/elements/1.1/" viewBox="0 0 512.00001 512.00001">
	<g id="layer1" transform="translate(0,-540.36216)">
		<path id="path3347" d="m112 1051.2642c-11.85014-2.3142-25.953768-12.9571-31.391994-23.6889-5.791383-11.4287-5.608006-7.4652-5.608006-121.21312 0-113.25066-0.152327-109.84567 5.404681-120.8119 5.555483-10.96321 17.129572-20.12191 29.514129-23.35483 5.99891-1.56598 15.32463-1.72308 105.40283-1.77562l98.82165-0.0577-0.36443-51.75-0.36442-51.75-2.63663-7.33492c-3.76773-10.48159-8.31261-17.4943-15.92214-24.56776-22.20483-20.64052-55.45828-20.64743-77.71134-0.0161-12.6828 11.75849-17.65196 23.70709-18.94639 45.55755-0.63073 10.647-1.24616 14.32944-3.00048 17.95337-3.37539 6.97263-8.40553 12.20128-15.37145 15.97806-5.95185 3.22698-6.8879 3.42892-15.82601 3.41432-11.48246-0.0187-16.72246-2.14424-24.59621-9.97687-7.71758-7.67727-9.40379-13.13087-9.40379-30.41412 0-22.70907 4.14066-40.05239 14.11688-59.1291 34.76774-66.48349 119.43332-88.08789 181.9935-46.43989 23.04727 15.34319 40.99828 38.77725 49.7777 64.98205 5.7934 17.29216 6.11192 21.46778 6.11192 80.12445v53.36901l6.75 0.0576c22.8138 0.19483 41.17128 14.1855 46.75833 35.63565 2.23779 8.59143 2.23779 212.02197 0 220.61337-4.57064 17.5479-19.18404 31.476-36.39482 34.688-6.75678 1.2611-280.63461 1.1727-287.11351-0.093zm155.04519-83.38061c5.65243-2.84973 10.81567-8.53358 12.96124-14.26815 1.73127-4.62723 1.99357-7.79696 1.99357-24.0911v-18.76281l5.56335-5.74384c13.55972-13.99964 16.66576-33.16629 8.20895-50.65551-8.19765-16.95324-28.11189-27.40357-46.28762-24.2902-19.42931 3.3281-34.16248 17.92862-37.51036 37.17262-2.26095 12.99617 2.53054 27.51909 12.46233 37.77309l5.56335 5.74384v18.76281c0 16.29414 0.2623 19.46387 1.99357 24.0911 2.74268 7.33047 9.12303 13.30065 16.94803 15.85848 3.89439 1.27299 14.22405 0.36557 18.10359-1.59033z"/>
	</g>
</svg>
