<svg xmlns="http://www.w3.org/2000/svg" height="512" width="512" version="1.1" viewBox="0 0 512.00001 512.00001">
	<g transform="translate(0 -540.36)">
		<path d="m217.64 1050.3c-72.42-8.4-137.51-50.2-177.35-113.75-12.94-20.66-19.836-35.3-26.819-56.96-21.77-67.52-17.072-137.03 13.501-199.7 41.39-84.86 125-138.71 215.33-138.71 65.554 0 129.66 28.752 174.2 78.129 54.481 60.397 77.862 141.28 64.325 222.51-2.6863 16.121-9.9372 41.538-15.913 55.779-2.0298 4.8374-3.0413 8.7953-2.2478 8.7953 0.79353 0 7.0183-1.8752 13.833-4.1668 14.397-4.8418 19.531-5.1717 25.965-1.6684 10.077 5.4875 12.804 22.011 5.1183 31.007-3.661 4.2849-10.217 7.1757-40.17 17.714-19.687 6.9264-39.886 13.029-44.886 13.561-8.7467 0.93147-9.2967 0.75154-14.526-4.7554-4.7308-4.9818-6.9865-10.819-17.406-45.042-6.5838-21.625-12.438-40.994-13.01-43.042-0.6228-2.2305 0.18765-6.6461 2.0208-11.01 5.5951-13.32 20.932-16.734 30.737-6.8418 2.9911 3.0177 6.1707 9.851 9.5788 20.585l5.1015 16.068 4.4679-10.405c9.2047-21.435 15.648-54.823 15.612-80.899-0.13-94.47-57.54-176.87-142.86-205.07-98.12-32.42-205.5 19.8-246.09 119.69-27.679 68.09-19.794 147 20.664 206.84 18.332 27.114 44.558 51.271 72.489 66.77 24.744 13.73 49.137 20.562 86.55 24.238 14.866 1.461 16.087 1.8697 20.251 6.776 5.868 6.916 7.0821 12.756 4.346 20.904-4.3502 12.955-14.52 15.966-42.803 12.672z"/>
	</g>
</svg>
