<svg width="512" height="512" version="1.1" viewBox="0 0 512 512" xmlns="http://www.w3.org/2000/svg">
	<g transform="translate(0 -161.53)">
		<path d="m184.86 671.48c-2.1882-1.1693-5.1722-3.8202-6.631-5.8909l-2.6524-3.7648-0.88413-91.357-160.03-0.88413-3.7063-1.9811c-4.2144-2.2527-7.8871-6.6429-9.6204-11.5-1.62-4.5395-1.8492-374.25-0.23535-379.64 1.3287-4.4347 6.1513-10.027 10.784-12.504l3.6626-1.9588 238.72-0.24987c171.83-0.17986 239.71 0.023075 242.25 0.7243 5.6925 1.5681 10.285 5.2694 13.01 10.486l2.4745 4.7367-0.4541 378.92-2.6771 3.809c-1.4724 2.0949-4.391 5.0137-6.4858 6.4861l-3.8087 2.6771-162.53 0.46926v42.917c0 28.376-0.33071 44.231-0.97606 46.794-1.3033 5.176-6.0382 10.546-10.953 12.424-6.9825 2.6666-10.005 1.7626-39.601-11.845-14.969-6.8823-27.69-12.513-28.269-12.513-0.5789 0-13.596 5.6387-28.926 12.53-23.765 10.683-28.656 12.583-33.179 12.889-4.3532 0.29413-6.0185-0.022955-9.2834-1.7676zm53.046-62.953 18.558-8.357 12.604 5.8166c6.9324 3.1991 15.091 6.9431 18.13 8.3201l5.5258 2.5035v-99.673l-4.6417 1.2337c-7.1086 1.8894-22.927 3.9119-30.533 3.9038-8.2089-0.00872-20.476-1.3464-28.925-3.1541-3.4039-0.72831-7.283-1.5583-8.6203-1.8443l-2.4314-0.52011v50.064c0 32.921 0.30397 50.064 0.88772 50.064 0.48824 0 9.2387-3.7607 19.445-8.357zm-62.772-97.551v-16.611l-10.413-10.576c-14.86-15.093-24.407-30.248-31.059-49.302-6.8028-19.486-8.936-44.055-5.5421-63.833 4.762-27.751 16.564-50.567 36.362-70.296 25.592-25.503 55.953-38.19 91.551-38.256 37.003-0.068121 68.384 13.479 94.688 40.876 28.526 29.711 41.221 75.006 32.562 116.17-5.5001 26.147-21.429 53.403-40.895 69.978l-6.2303 5.3048-0.11057 33.155h133.5v-323.59h-427.04v323.59h132.62zm99.002-32.469c49.116-10.456 79.739-59.52 67.537-108.21-9.0469-36.097-40.698-63.32-77.019-66.244-17.611-1.4177-32.4 1.2952-47.563 8.7249-17.015 8.3372-31.636 22.796-39.682 39.24-7.0121 14.332-9.3554 24.297-9.3373 39.707 0.02807 23.849 8.7293 45.375 25.038 61.941 15.123 15.362 31.468 23.252 54.965 26.533 4.426 0.61796 19.931-0.39113 26.061-1.6961z" stroke-width=".88413"/>
	</g>
</svg>
