<svg xmlns:rdf="http://www.w3.org/1999/02/22-rdf-syntax-ns#" xmlns="http://www.w3.org/2000/svg" height="512" width="512" version="1.1" xmlns:cc="http://creativecommons.org/ns#" xmlns:dc="http://purl.org/dc/elements/1.1/" viewBox="0 0 512.00001 512.00001">
	<g transform="translate(0 -540.36)">
		<path d="m245.75 1051.7c-5.6109-0.8519-20.719-4.5027-22.751-5.498-1.0838-0.5307-4.2527-2.0778-7.0418-3.4378-10.7-5.2179-13.372-7.1457-23.364-16.862-10.565-10.272-17.667-20.921-21.139-31.695-1.2359-3.8351-2.5934-7.2582-3.0166-7.6068-1.0064-0.829-3.8261-20.909-3.8261-27.247 0-6.2452 2.1556-18.431 4.7115-26.634 1.8655-5.9876 9.5668-22.051 12.379-25.821 3.8384-5.1451 21.351-21.722 22.948-21.722 0.38936 0 3.0928-1.6138 6.0076-3.5862 11.996-8.1174 21.827-10.602 44.601-11.272 16.837-0.49554 23.874 0.33978 30.093 3.5721 1.2108 0.62934 3.0476 1.1442 4.0818 1.1442s4.0371 1.2289 6.6732 2.7308c2.636 1.5019 6.922 3.8844 9.5244 5.2943s9.4643 7.1909 15.249 12.847c12.085 11.816 19.318 24.147 23.865 40.688 3.3498 12.185 3.7079 32.311 0.80339 45.152-2.1856 9.663-10.395 27.456-15.692 34.013-6.4162 7.9413-18.686 19.345-23.97 22.279-10.441 5.7967-16.873 8.5943-24.003 10.439-2.7892 0.7217-7.4194 1.9277-10.289 2.6802-4.9412 1.2955-18.944 1.589-25.843 0.5417zm29.042-84.054c16.102-16.003 29.277-29.383 29.277-29.733 0-0.3497-2.9024-3.5381-6.4497-7.0855-4.7983-4.7982-7.0797-6.2496-8.9103-5.6686-2.8342 0.8995-20.138 17.767-20.138 19.63 0 0.683-0.54286 1.2417-1.2064 1.2417-1.5984 0-19.078 17.448-19.078 19.043 0 0.683-1.3156 1.2417-2.9235 1.2417-1.9511 0-5.7982-2.9516-11.567-8.8746-4.7539-4.881-9.286-8.8711-10.071-8.8668-0.78546 0-4.4652 3.1332-8.1773 6.9528l-6.7492 6.9447 15.941 16.068c8.7674 8.8377 15.941 16.549 15.941 17.136 0 4.4988 7.986-2.0631 34.113-28.03zm-148.22-2.5978c0-0.6973-0.77563-1.2678-1.7236-1.2678-2.0833 0-17.753-7.8491-18.35-9.1916-0.23244-0.5229-0.95051-0.9508-1.5957-0.9508-1.4323 0-7.7058-5.2774-14.127-11.884l-4.7733-4.9109v-22.612c0-12.437 0.58047-27.057 1.2899-32.489 0.70947-5.4325 1.871-14.727 2.5813-20.654 1.9638-16.388 7.8541-35.676 13.383-43.823 1.667-2.4565 3.0309-4.9843 3.0309-5.6174 0-1.1711 9.2749-10.731 15.993-16.485 2.0354-1.7432 6.2583-4.5262 9.3842-6.1844 8.307-4.4066 29.193-12.833 31.808-12.833 1.2381 0 2.5647-0.50748 2.9481-1.1277 0.38333-0.62025 2.5564-1.4444 4.8291-1.8313 2.2727-0.38698 6.842-1.3058 10.154-2.0418 10.12-2.2487 17.901-3.9527 21.397-4.6854 3.1482-0.65993 5.2771 0.45103 10.666 5.5659 0.91832 0.87161 2.2334 1.5848 2.9224 1.5848 0.68899 0 1.4429 0.45477 1.6753 1.0106 0.58129 1.3901 11.977 6.5962 14.438 6.5962 1.0994 0 3.1241 0.60223 4.4995 1.3383 3.4999 1.8731 32.847 1.7703 38.775-0.13582 8.271-2.6594 11.739-4.1518 18.723-8.0563 1.3643-0.76275 4.2168-2.9805 6.339-4.9284 3.0711-2.8189 4.6346-3.3856 7.6619-2.7774 2.0919 0.4203 6.656 1.2994 10.142 1.9536 7.7822 1.4601 14.875 3.1066 21.553 5.0032 2.7892 0.79215 6.4975 1.7385 8.2407 2.103s5.588 1.7511 8.5438 3.0813c2.9559 1.3302 5.9026 2.4186 6.5482 2.4186 1.7515 0 20.468 10.007 24.844 13.283 5.3415 3.9991 15.848 14.503 15.848 15.844 0 0.61502 0.8334 1.9516 1.852 2.9702 3.2564 3.2564 9.7519 18.886 12.741 30.658 3.912 15.407 5.8833 35.397 6.5897 66.825l0.59016 26.255-5.4982 5.5196c-3.024 3.0359-8.3508 7.4475-11.837 9.8035-3.4864 2.3561-6.5292 4.7449-6.7616 5.3084-0.23244 0.5636-1.3735 1.0374-2.5356 1.0528-1.1622 0.015-3.5393 1.144-5.2825 2.5075s-4.1342 2.4918-5.3133 2.5074c-1.1791 0.015-2.4964 0.5987-2.9274 1.296-0.43095 0.6973-2.1762 1.2678-3.8782 1.2678-2.9914 0-3.0965-0.3068-3.1499-9.1916-0.0303-5.0553-0.63208-11.759-1.3371-14.897-0.70505-3.1378-1.767-7.9872-2.3598-10.776-3.2864-15.461-9.7915-29.259-20.662-43.826-7.5585-10.129-18.372-21.418-21.67-22.623-0.78872-0.28831-2.9188-1.9998-4.7336-3.8034s-5.5286-4.4632-8.2529-5.9104c-2.7243-1.4471-6.0943-3.2347-7.4889-3.9724s-4.2471-2.0449-6.339-2.9049-4.794-2.0676-6.0048-2.6835c-1.2108-0.61594-3.887-1.1199-5.9472-1.1199s-4.0984-0.57051-4.5293-1.2678c-0.43095-0.69729-2.6326-1.2678-4.8925-1.2678s-4.8107-0.70179-5.6685-1.5595c-2.2324-2.2324-38.26-2.17-45.856 0.0794-3.1378 0.92915-7.9871 2.295-10.776 3.0353-13.438 3.5666-28.37 9.9812-29.582 12.708-0.23244 0.52297-1.0882 0.95349-1.9017 0.95672-0.81351 0.004-3.2061 1.6248-5.3169 3.6035s-4.525 3.8302-5.3649 4.1145c-2.2264 0.75348-18.055 16.528-18.055 17.993 0 0.68377-1.01 2.1659-2.2444 3.2936-3.143 2.8714-14.237 19.656-14.237 21.54 0 0.85513-0.89399 3.2835-1.9867 5.3965-3.8372 7.4202-9.3902 32.955-9.4073 43.258l-0.0162 9.8255h-3.8034c-2.0919 0-3.8034-0.5705-3.8034-1.2678zm115.37-207.85c-1.0459-0.69996-3.4369-1.2814-5.3133-1.2921-1.8764-0.0101-3.7642-0.58992-4.1952-1.2872-0.43095-0.69729-1.8756-1.2678-3.2103-1.2678s-4.8667-1.4513-7.8489-3.2252-6.4206-3.5519-7.6408-3.9513c-1.2203-0.39935-2.2186-1.23-2.2186-1.846 0-0.61596-0.61126-1.1199-1.3584-1.1199-2.2629 0-21.989-20.521-25.593-26.624-7.7246-13.081-12.476-24.878-16.339-40.57-2.5658-10.422-2.1899-57.213 0.56011-69.729 2.2564-10.269 6.2438-22.303 9.4338-28.472 5.6323-10.892 16.718-22.275 25.463-26.146 2.2167-0.9812 4.0303-2.2152 4.0303-2.7423 0-0.52708 0.86351-0.95832 1.9189-0.95832s2.9095-0.5149 4.1203-1.1442c2.4978-1.2982 9.2167-3.0903 19.097-5.0935 3.714-0.753 14.269-1.3691 23.455-1.3691 15.206 0 19.927 0.59461 37.62 4.738 1.7432 0.40824 5.041 1.7912 7.3284 3.0733s4.9973 2.331 6.022 2.331 1.8631 0.57051 1.8631 1.2678 0.57545 1.2678 1.2788 1.2678c1.4801 0 7.6076 5.191 12.974 10.991 6.6489 7.1861 12.06 16.858 15.355 27.444 5.8864 18.914 6.4571 23.281 6.4913 49.677 0.0341 26.315-1.0682 35.384-5.9324 48.81-5.5415 15.295-6.342 17.189-8.0787 19.117-0.99195 1.1008-1.8036 2.955-1.8036 4.1204s-0.47893 2.1188-1.0643 2.1188-1.6749 1.34-2.4211 2.9778c-1.6249 3.5662-21.656 24.914-23.378 24.914-0.66311 0-3.5905 1.6087-6.5053 3.575-2.9148 1.9662-7.2964 4.3059-9.7369 5.1992s-5.5783 2.0941-6.9729 2.6685c-7.4499 3.0684-33.926 4.8714-37.4 2.5468z"/>
	</g>
</svg>
