<svg xmlns:rdf="http://www.w3.org/1999/02/22-rdf-syntax-ns#" xmlns="http://www.w3.org/2000/svg" height="512" width="512" version="1.1" xmlns:cc="http://creativecommons.org/ns#" xmlns:dc="http://purl.org/dc/elements/1.1/" viewBox="0 0 512.00001 512.00001">
	<g transform="translate(0 -540.36)">
		<path d="m23.812 1038.4c5.949-84.63 54.13-157.78 128.24-194.69l12.655-6.3035-5.9888-4.4042c-15.46-11.36-31.31-28.9-41.89-46.36-18.346-30.25-26.328-65.51-22.541-99.57 4.2871-38.555 20.147-71.881 46.978-98.711 63.751-63.751 165.71-63.751 229.47 0 53.099 53.099 63.128 134.48 24.437 198.29-10.581 17.451-26.435 34.999-41.884 46.361l-5.9888 4.4042 12.655 6.3035c74.369 37.043 122.27 109.76 128.24 194.69l0.96871 13.781h-23.487-23.487l-0.026-6.9091c-0.0333-8.8112-3.3228-30.336-6.4977-42.517-14.19-54.39-55.95-101.66-108.53-122.86-96.02-38.72-205.32 6.68-243.39 101.09-7.931 19.67-13.851 46.97-13.916 64.27l-0.0261 6.9091h-23.487-23.487l0.96871-13.781zm262.01-222.62c22.641-6.069 48.226-23.027 61.853-40.997 8.8029-11.608 17.644-29.327 21.255-42.599 3.5798-13.157 3.5798-45.025 0-58.182-8.9221-32.791-32.351-61.078-62.632-75.62-18.285-8.7816-27.638-10.788-50.295-10.788-22.625 0-32.014 2.0083-50.182 10.734-23.631 11.35-43.185 30.852-54.45 54.307-8.8635 18.454-10.867 27.757-10.867 50.459 0 22.656 2.0062 32.01 10.788 50.295 16.115 33.555 48.183 57.997 84.693 64.553 10.603 1.904 39.316 0.65889 49.836-2.1611z"/>
	</g>
</svg>
