<svg xmlns:inkscape="http://www.inkscape.org/namespaces/inkscape" xmlns:rdf="http://www.w3.org/1999/02/22-rdf-syntax-ns#" xmlns="http://www.w3.org/2000/svg" sodipodi:docname="user-plus-stroke.svg" height="512" width="512" version="1.1" xmlns:cc="http://creativecommons.org/ns#" xmlns:dc="http://purl.org/dc/elements/1.1/" inkscape:version="0.91 r13725" viewBox="0 0 512.00001 512.00001" xmlns:sodipodi="http://sodipodi.sourceforge.net/DTD/sodipodi-0.dtd">
	<sodipodi:namedview bordercolor="#666666" inkscape:pageshadow="2" inkscape:window-y="-8" pagecolor="#ffffff" inkscape:window-height="1017" inkscape:window-maximized="1" inkscape:zoom="0.98994949" inkscape:window-x="-8" showgrid="false" borderopacity="1.0" inkscape:current-layer="layer1" inkscape:cx="99.236846" inkscape:cy="387.19934" units="px" inkscape:window-width="1920" inkscape:pageopacity="0.0" inkscape:document-units="px"/>
	<g inkscape:label="Layer 1" inkscape:groupmode="layer" transform="translate(0 -540.36)">
		<path inkscape:connector-curvature="0" d="m228.31 1013.1v-39.229h-39.229-39.229v-27.691-27.691h39.229 39.229v-39.229-39.229h27.691 27.691v39.229 39.229h39.229 39.229v27.691 27.691h-39.229-39.229v39.229 39.229h-27.691-27.691v-39.229zm-156.49-77.82c4.718-67.13 42.94-125.15 101.72-154.43l10.038-5.0002-4.7506-3.4936c-12.255-9.0124-24.83-22.932-33.224-36.775-14.553-24.001-20.884-51.971-17.88-78.987 3.4007-30.583 15.982-57.019 37.265-78.302 50.57-50.57 131.45-50.57 182.02 0 42.12 42.12 50.075 106.67 19.385 157.29-8.3935 13.843-20.969 27.763-33.224 36.775l-4.7506 3.4936 10.038 5.0002c58.992 29.384 96.986 87.066 101.72 154.43l0.76842 10.932h-18.631-18.631l-0.0207-5.4806c-0.0264-6.9894-2.6358-24.064-5.1542-33.726-11.236-43.108-44.363-80.604-86.071-97.422-76.166-30.712-162.87 5.2994-193.07 80.188-6.2899 15.599-10.986 37.279-11.037 50.96l-0.0208 5.4806h-18.631-18.631l0.76842-10.932zm207.83-176.59c17.96-4.8142 38.254-18.266 49.064-32.52 6.9828-9.2079 13.996-23.263 16.86-33.791 2.8396-10.436 2.8396-35.716 0-46.152-7.0773-26.011-25.662-48.449-49.682-59.985-14.505-6.9659-21.924-8.5572-39.896-8.5572-17.947 0-25.395 1.593-39.806 8.5145-24.029 11.541-42.708 34.069-49.772 60.028-2.8397 10.436-2.8397 35.716 0 46.152 9.451 34.734 38.712 61.743 73.699 68.026 8.4108 1.5103 31.187 0.52266 39.532-1.7142z"/>
	</g>
</svg>
