<svg xmlns:inkscape="http://www.inkscape.org/namespaces/inkscape" xmlns:rdf="http://www.w3.org/1999/02/22-rdf-syntax-ns#" xmlns="http://www.w3.org/2000/svg" sodipodi:docname="users-shopping-stroke.svg" height="512" width="512" version="1.1" xmlns:cc="http://creativecommons.org/ns#" xmlns:dc="http://purl.org/dc/elements/1.1/" inkscape:version="0.91 r13725" viewBox="0 0 512.00001 512.00001" xmlns:sodipodi="http://sodipodi.sourceforge.net/DTD/sodipodi-0.dtd">
	<sodipodi:namedview bordercolor="#666666" inkscape:pageshadow="2" inkscape:window-y="-8" pagecolor="#ffffff" inkscape:window-height="1017" inkscape:window-maximized="1" inkscape:zoom="0.35" inkscape:window-x="-8" showgrid="false" borderopacity="1.0" inkscape:current-layer="layer1" inkscape:cx="-126.42857" inkscape:cy="748.57143" units="px" inkscape:window-width="1920" inkscape:pageopacity="0.0" inkscape:document-units="px"/>
	<g inkscape:label="Layer 1" inkscape:groupmode="layer" transform="translate(0 -540.36)">
		<path inkscape:connector-curvature="0" d="m4.8248 1018.2c-4.574-2.486-5.2439-5.9403-4.6328-23.89 0.64077-18.823 2.5648-27.796 8.6564-40.373 12.396-25.593 35.575-43.788 64.153-50.359 11.935-2.7441 30.053-2.2984 42.889 1.055 12.805 3.3452 25.928 9.868 36.188 17.987l8.0729 6.3884 8.3596-8.903c4.5978-4.8966 10.994-10.93 14.214-13.408 14.04-10.804 32.046-19.184 49.039-22.823 13.422-2.8747 34.975-2.8747 48.398 0 26.04 5.5769 51.277 20.864 67.867 41.111l3.4733 4.2387 8.2093-6.4962c34.535-27.328 83.493-27.996 116.81-1.593 16.071 12.736 27.633 30.093 32.555 48.869 2.6864 10.247 3.9477 38.81 1.929 43.684-2.6903 6.495 17.432 6.0236-255.24 5.9794-212.52-0.034-248.69-0.2456-250.94-1.4655zm132.11-24.83c1.3879-16.155 4.695-29.24 10.907-43.154l2.5678-5.7513-5.6785-5.0611c-7.9752-7.1082-17.221-12.41-28.331-16.247-9.1267-3.152-10.168-3.2916-24.099-3.2298-13.117 0.0582-15.355 0.33565-22.592 2.8001-19.126 6.5134-33.952 18.6-43.142 35.172-5.7498 10.368-7.7032 17.769-8.3022 31.456l-0.53834 12.3h59.248 59.248l0.71164-8.2839zm220.45 3.3949c0-2.689-0.66321-8.676-1.4738-13.304-8.5261-48.684-50.7-84.226-99.941-84.226-49.242 0-91.415 35.542-99.941 84.226-0.81058 4.6285-1.4738 10.615-1.4738 13.304v4.889h101.41 101.41v-4.889zm136.29-7.4113c-0.59899-13.687-2.5524-21.088-8.3022-31.456-9.1902-16.572-24.016-28.658-43.142-35.172-7.237-2.4645-9.4755-2.7419-22.592-2.8001-13.929-0.0617-14.973 0.078-24.099 3.2289-11.275 3.893-20.441 9.1355-28.301 16.188l-5.7085 5.1217 2.5678 5.7513c6.2122 13.914 9.5194 26.999 10.907 43.154l0.71164 8.2839h59.248 59.248l-0.53833-12.3zm-410.01-91.12c-24.373-3.5738-43.93-22.347-49.203-47.231-6.0148-28.385 12.178-58.42 40.779-67.321 30.986-9.644 64.759 8.8293 73.656 40.289 7.6308 26.984-5.0706 56.048-29.826 68.249-12.387 6.1054-22.764 7.8682-35.405 6.0147zm25.849-20.92c18.63-8.89 28-29.66 22.12-49.03-9.9-32.59-51.976-39.79-72.551-12.4-16.523 21.99-5.8493 54.555 20.762 63.347 9.0256 2.9819 21.04 2.2079 29.672-1.9115zm301.49 20.92c-24.373-3.5738-43.93-22.347-49.203-47.231-6.0148-28.385 12.178-58.42 40.779-67.321 30.986-9.644 64.759 8.8293 73.656 40.289 7.6308 26.984-5.0706 56.048-29.826 68.249-12.387 6.1054-22.764 7.8682-35.405 6.0147zm25.851-20.92c18.632-8.8924 27.998-29.66 22.114-49.034-9.8999-32.593-51.972-39.785-72.547-12.402-16.523 21.99-5.8493 54.555 20.762 63.347 9.0256 2.9819 21.04 2.2079 29.672-1.9115zm-195.28 0.306c-30.311-5.7385-54.612-28.761-62.503-59.215-2.4128-9.3114-2.4467-27.45-0.0694-37.152 3.8365-15.657 14.454-32.432 27.033-42.711 7.6201-6.2271 21.87-13.351 31.353-15.675 9.6333-2.3605 27.815-2.3406 37.152 0.0406 9.5439 2.4339 23.773 9.5415 31.364 15.667 12.299 9.9243 23.214 27.161 27.026 42.679 2.2728 9.2521 2.2751 27.641 0.004 36.97-5.7721 23.717-21.834 43.098-44.331 53.492-13.982 6.4603-32.088 8.7336-47.03 5.9048zm28.447-18.104c22.263-5.2315 40.398-23.367 45.63-45.63 3.8545-16.403 0.6028-33.783-9.0326-48.277-7.5881-11.414-18.761-19.612-33.585-24.642-7.2868-2.4725-26.231-2.5816-33.748-0.19441-21.171 6.723-35.442 21.029-42.382 42.487-2.3838 7.3706-2.2708 26.355 0.20011 33.638 7.6872 22.656 22.802 36.891 45.305 42.67 6.9919 1.7954 19.854 1.7711 27.613-0.0521zm-182.57-122.26c-1.3674-1.4555-2.1832-3.6137-2.1832-5.7754 0-3.0731-0.50222-3.7178-4.5818-5.882-8.3891-4.4504-10.668-10.02-6.007-14.681 2.9809-2.9809 6.4364-3.1484 9.8331-0.47649 4.3861 3.4501 7.5032 4.181 11.216 2.6298 10.618-4.4363 7.8784-17.557-4.0021-19.17-7.7477-1.0518-10.865-2.3018-15.383-6.1698-13.23-11.325-11.199-31.958 3.9692-40.322 4.5076-2.4856 4.9286-3.0317 4.9419-6.4096 0.0109-2.7829 0.66623-4.2052 2.6602-5.7736 3.3376-2.6254 5.4286-2.6254 8.7661 0 2.0661 1.6252 2.6457 2.9562 2.6457 6.0759 0 3.5553 0.35897 4.1461 3.2633 5.3704 4.4977 1.896 9.79 7.3304 9.79 10.053 0 3.4587-3.7208 7.5471-6.8686 7.5471-1.4885 0-4.3687-1.1296-6.4005-2.5103-6.1187-4.1578-12.65-2.8304-15.733 3.1973-1.8434 3.6045-1.287 7.1299 1.6397 10.39 2.2724 2.531 3.8978 3.2351 9.1801 3.9762 11.847 1.6622 20.078 9.1766 22.329 20.386 2.0692 10.303-3.9541 22.362-13.21 26.445-3.5961 1.5866-3.9906 2.1213-3.9906 5.4088 0 6.9657-7.3619 10.494-11.874 5.6907zm327.34 0c-1.3674-1.4555-2.1832-3.6137-2.1832-5.7754 0-3.0731-0.50223-3.7178-4.5818-5.882-8.3891-4.4504-10.668-10.02-6.007-14.681 2.9809-2.9809 6.4364-3.1484 9.8331-0.47649 4.386 3.4501 7.5032 4.181 11.216 2.6298 10.618-4.4363 7.8784-17.557-4.0021-19.17-7.7478-1.0518-10.865-2.3018-15.383-6.1698-13.23-11.325-11.199-31.958 3.9692-40.322 4.5076-2.4856 4.9286-3.0317 4.9419-6.4096 0.0109-2.7829 0.66622-4.2052 2.6602-5.7736 3.3376-2.6254 5.4286-2.6254 8.7661 0 2.0661 1.6252 2.6457 2.9562 2.6457 6.0759 0 3.5553 0.35898 4.1461 3.2634 5.3704 4.4977 1.896 9.79 7.3304 9.79 10.053 0 3.4587-3.7208 7.5471-6.8686 7.5471-1.4885 0-4.3687-1.1296-6.4005-2.5103-6.1187-4.1578-12.65-2.8304-15.733 3.1973-1.8434 3.6045-1.287 7.1299 1.6397 10.39 2.2724 2.531 3.8978 3.2351 9.1801 3.9762 11.847 1.6622 20.078 9.1766 22.329 20.386 2.0692 10.303-3.9541 22.362-13.21 26.445-3.5961 1.5866-3.9906 2.1213-3.9906 5.4088 0 6.9657-7.3619 10.494-11.874 5.6907zm-163.67-60.246c-1.3674-1.4555-2.1832-3.6137-2.1832-5.7753 0-3.0731-0.50222-3.7178-4.5818-5.882-8.3891-4.4504-10.668-10.02-6.007-14.681 2.9809-2.9809 6.4364-3.1484 9.8331-0.47649 4.386 3.4501 7.5032 4.181 11.216 2.6298 10.618-4.4363 7.8784-17.557-4.0021-19.17-7.7478-1.0518-10.865-2.3018-15.383-6.1698-13.23-11.325-11.199-31.958 3.9692-40.322 4.5076-2.4856 4.9287-3.0317 4.9419-6.4096 0.011-2.7829 0.66623-4.2052 2.6602-5.7736 3.3376-2.6254 5.4286-2.6254 8.7662 0 2.0661 1.6252 2.6457 2.9562 2.6457 6.0759 0 3.5554 0.35898 4.1461 3.2634 5.3704 4.4977 1.896 9.7901 7.3304 9.7901 10.053 0 3.4587-3.7208 7.5471-6.8686 7.5471-1.4885 0-4.3688-1.1296-6.4006-2.5103-6.1187-4.1578-12.65-2.8304-15.733 3.1973-1.8434 3.6045-1.287 7.1299 1.6397 10.39 2.2724 2.5311 3.8978 3.2351 9.1801 3.9762 11.847 1.6622 20.078 9.1766 22.329 20.386 2.0692 10.303-3.9541 22.362-13.21 26.445-3.5961 1.5866-3.9906 2.1213-3.9906 5.4088 0 6.9657-7.3619 10.494-11.874 5.6907z"/>
	</g>
</svg>
