<svg inkscape:version="0.92.4 (5da689c313, 2019-01-14)" sodipodi:docname="users.svg" version="1.1" viewBox="0 0 512 512" xmlns="http://www.w3.org/2000/svg" xmlns:inkscape="http://www.inkscape.org/namespaces/inkscape" xmlns:sodipodi="http://sodipodi.sourceforge.net/DTD/sodipodi-0.dtd">
 <sodipodi:namedview id="base" bordercolor="#666666" borderopacity="1.0" inkscape:current-layer="layer1" inkscape:cx="-101.42857" inkscape:cy="560" inkscape:document-units="px" inkscape:pageopacity="0.0" inkscape:pageshadow="2" inkscape:window-height="1017" inkscape:window-maximized="1" inkscape:window-width="1920" inkscape:window-x="1192" inkscape:window-y="-8" inkscape:zoom="0.35" pagecolor="#ffffff" showgrid="false" units="px"/>
 <g transform="translate(0 -161.53)" inkscape:groupmode="layer" inkscape:label="Layer 1">
  <path d="m8.3301e-7 623.56c0.0112-2.5802 3.1612-21.824 4.9956-30.518 15.268-72.364 51.203-118.96 104.1-135 14.874-4.5085 23.127-5.5215 44.988-5.5223 18.248-6.6e-4 19.722 0.098 28.017 1.8768 14.505 3.1104 25.63 7.2134 38.105 14.053 17.149 9.4021 33.473 24.192 44.31 40.147l3.9534 5.82-4.5621 5.1037c-5.9845 6.695-10.791 13.106-14.197 18.937-1.5191 2.6003-2.9488 4.7278-3.1773 4.7278-0.22842 0-1.1231-1.4568-1.9882-3.2374-4.6868-9.6468-16.615-24.019-26.391-31.798-11.449-9.1101-25.681-15.943-40.537-19.461-7.2165-1.7092-8.9253-1.8409-23.882-1.84-12.524 7e-4 -17.668 0.28403-23.114 1.2729-53.801 9.7703-85.474 53.667-95.953 132.99l-0.43954 3.327h-17.117c-13.229 0-17.116-0.19888-17.113-0.87552zm275.67-2.4514c1.0661-9.1378 4.0738-25.071 6.5398-34.645 14.539-56.446 45.681-90.19 90.753-98.334 9.4263-1.7034 31.545-1.7509 40.624-0.0874 10.577 1.9379 18.487 4.5482 28.017 9.2447 11.168 5.5041 18.937 11.296 28.284 21.086 17.831 18.676 31.253 47.153 37.941 80.498 1.1894 5.9298 4.1666 23.914 4.1666 25.168 0 0.21834-7.5744 0.39698-16.832 0.39698-12.865 0-16.891-0.20633-17.082-0.87552-0.13756-0.48154-0.93667-5.2881-1.7758-10.681-5.2516-33.754-15.314-56.52-32.059-72.531-7.8767-7.5317-14.63-11.722-24.321-15.091-9.0578-3.1492-15.388-4.0953-27.001-4.0354-16.714 0.0861-29.109 3.5253-41.044 11.388-21.517 14.175-36.189 43.017-41.294 81.176-0.65487 4.8949-1.298 9.2938-1.4292 9.7754-0.18236 0.66949-4.1963 0.87552-17.057 0.87552h-16.819zm109.04-169.66c-19.37-2.1842-36.763-10.305-50.711-23.678-34.226-32.814-35.649-86.938-3.1844-121.11 13.385-14.091 31.975-23.691 50.709-26.186 8.5865-1.1438 24.149-0.43976 31.715 1.4347 31.579 7.8232 55.957 32.016 63.658 63.175 9.3746 37.932-7.7871 76.924-42.368 96.263-13.515 7.5582-34.559 11.827-49.82 10.106zm24.677-36.761c7.9506-2.4618 13.799-6.131 20.753-13.019 5.0894-5.0416 6.552-7.0336 9.2568-12.607 4.1039-8.4571 5.5365-14.538 5.5202-23.43-0.0168-9.0053-1.4763-15.148-5.5768-23.464-2.6971-5.4703-4.3449-7.7256-9.2627-12.678-6.6326-6.6793-12.32-10.243-20.924-13.113-4.7123-1.5713-6.5705-1.794-15.176-1.8182-7.4164-0.0209-10.915 0.28314-14.359 1.2475-30.853 8.6412-46.449 42.724-32.862 71.812 11.021 23.594 37.247 34.929 62.629 27.07zm-274.27 1.4291c-14.192-2.5065-29.778-8.9236-42.138-17.348-7.3355-5-18.103-15.367-23.423-22.552-14.058-18.986-20.59-38.765-20.731-62.766-0.0931-15.916 2.8488-29.064 9.7049-43.374 28.478-59.434 102.32-77.935 155.13-38.867 16.271 12.037 29.698 30.51 36.026 49.565 11.804 35.545 4.8846 71.542-19.286 100.33-13.762 16.392-32.77 27.893-55.653 33.674-6.0262 1.5223-8.9111 1.8046-20.662 2.022-9.3512 0.17298-15.332-0.043-18.966-0.68488zm29.203-34.328c21.668-3.8133 40.961-18.807 50.351-39.13 14.169-30.667 3.2765-67.999-25.279-86.64-18.821-12.286-43.207-14.374-64.477-5.5195-14.994 6.2421-29.144 20.078-35.958 35.16-4.5046 9.9704-6.2634 20.214-5.5534 32.343 0.58421 9.979 2.656 17.922 6.9419 26.616 6.1463 12.467 15.647 22.546 27.758 29.447 5.8633 3.3414 15.78 6.9217 21.972 7.9326 6.0584 0.98912 18.021 0.88577 24.244-0.20945z" stroke-width=".70042" inkscape:connector-curvature="0"/>
 </g>
</svg>
