<svg inkscape:version="0.92.4 (5da689c313, 2019-01-14)" sodipodi:docname="user-add.svg" version="1.1" viewBox="0 0 512 512" xmlns="http://www.w3.org/2000/svg" xmlns:inkscape="http://www.inkscape.org/namespaces/inkscape" xmlns:sodipodi="http://sodipodi.sourceforge.net/DTD/sodipodi-0.dtd">
 <sodipodi:namedview id="base" bordercolor="#666666" borderopacity="1.0" inkscape:current-layer="layer1" inkscape:cx="-101.42857" inkscape:cy="560" inkscape:document-units="px" inkscape:pageopacity="0.0" inkscape:pageshadow="2" inkscape:window-height="1017" inkscape:window-maximized="1" inkscape:window-width="1920" inkscape:window-x="1192" inkscape:window-y="-8" inkscape:zoom="0.35" pagecolor="#ffffff" showgrid="false" units="px"/>
 <g transform="translate(0 -161.53)" inkscape:groupmode="layer" inkscape:label="Layer 1">
  <path d="m0.58631 661.7c1.9365-36.956 10.193-68.884 26.26-101.55 28.204-57.339 78.021-103.11 136.16-125.09 4.7518-1.797 8.6469-3.4572 8.6558-3.6894 9e-3 -0.23222-2.4214-2.2264-5.4006-4.4314-7.7123-5.7082-18.23-15.806-24.291-23.32-15.893-19.706-25.601-40.188-30.853-65.09-2.0152-9.5556-2.2418-12.444-2.2897-29.183-0.0426-14.907 0.2543-20.072 1.5026-26.136 5.972-29.01 18.285-53.327 37.41-73.876 30.486-32.757 75.878-50.513 119.22-46.635 24.926 2.2301 44.04 8.3762 65.262 20.986 38.264 22.735 64.76 64.263 69.959 109.65 9.3955 82.017-50.352 155.26-133.27 163.36-4.8099 0.47011-12.602 0.85475-17.317 0.85475-23.893 0-55.544 6.6339-78.7 16.496-13.63 5.8046-22.632 10.639-35.178 18.892-57.839 38.048-93.818 100.5-97.463 169.18l-0.57136 10.767h-39.685zm276.65-246.3c37.525-7.8104 68.597-35.195 80.566-71.007 4.6106-13.794 5.8427-22.596 5.3199-38.001-0.51683-15.228-3.1378-27.155-8.838-40.219-14.179-32.495-45.747-57.153-80.611-62.963-7.9146-1.319-28.029-1.319-35.943 0-8.5322 1.4219-21.287 5.6071-29.318 9.6202-29.366 14.673-49.119 39.225-57.611 71.605-2.8492 10.864-3.587 30.498-1.5866 42.223 8.1821 47.957 45.825 84.355 93.4 90.31 8.9802 1.1242 25.216 0.38818 34.622-1.5695zm111.47 215.69v-41.801h-83.602v-39.69h83.602v-84.447h39.69v84.447h83.602v39.69h-83.602v83.602h-39.69z" stroke-width=".84447" inkscape:connector-curvature="0"/>
 </g>
</svg>
