<?xml version="1.0" encoding="UTF-8" standalone="no"?>
<svg id="svg2" xmlns:rdf="http://www.w3.org/1999/02/22-rdf-syntax-ns#" xmlns="http://www.w3.org/2000/svg" height="512" width="512" version="1.1" xmlns:cc="http://creativecommons.org/ns#" xmlns:dc="http://purl.org/dc/elements/1.1/" viewBox="0 0 512.00001 512.00001">
	<g id="layer1" transform="translate(0,-540.36216)">
		<path id="path3413" d="m7.9416107 960.60972c-1.8868882-0.96216-4.3631807-3.02048-5.5028722-4.57405-2.07177916-2.82416-2.07222162-2.85371-2.36711892-158.08251-0.20662919-108.76601 0.02774258-156.37347 0.78267659-158.98349 0.67399223-2.33018 2.44169853-4.76609 4.71941953-6.5034l3.6417905-2.77773h246.7844938 246.78449l3.64179 2.77773c2.27773 1.73731 4.04543 4.17322 4.71942 6.5034 0.75494 2.61002 0.98931 50.21748 0.78268 158.98349-0.29489 155.2288-0.29534 155.25835-2.36711 158.08251-1.1397 1.55357-3.61599 3.61189-5.50288 4.57405-3.23848 1.65133-17.13758 1.74935-248.05839 1.74935-230.920806 0-244.819912-0.098-248.0583893-1.74935zm72.9670003-87.61268c0-21.51972 3.320154-29.50563 15.007834-36.09806l5.502875-3.1039h28.01462c27.82946 0 28.04665 0.0163 32.85983 2.47483 5.44279 2.78007 9.58426 7.06181 12.87512 13.31121 1.98437 3.76834 2.26595 6.03362 2.60833 20.98315l0.38381 16.75874h5.36717c4.56867 0 5.88974-0.4588 8.87952-3.08387 1.97032-1.72996 3.95982-4.69497 4.53158-6.75353 0.65225-2.34832 1.0207-32.13001 1.02328-82.7109 0.004-88.1424 0.37322-83.42109-6.89435-88.27615l-3.39967-2.27111-58.13245 0.004c-55.891851 0.004-58.255918 0.079-61.335583 1.9568-1.761718 1.07418-4.012893 3.43624-5.002611 5.249-1.690644 3.09633-1.799488 8.23052-1.799488 84.88239 0 76.9526 0.102539 81.74319 1.805276 84.34176 2.751657 4.19934 7.526254 6.6536 12.952427 6.65787l4.75248 0.004v-14.32598zm40.129279-57.79327c-22.042269-4.32885-37.927019-27.03907-34.136685-48.80478 3.700798-21.25155 20.969625-36.15796 41.888405-36.15796 13.63839 0 23.87625 4.44785 32.61823 14.17103 18.76115 20.86691 12.35851 54.53817-12.70159 66.79726-9.53889 4.66629-18.01581 5.8901-27.66836 3.99445zm324.51231 69.02628c4.34021-3.81076 5.88452-9.01944 5.37062-18.11421-0.40711-7.20482-2.00594-10.3656-7.20786-14.24954-2.744-2.04876-3.397-2.06287-95.48805-2.06287-87.37447 0-92.91536 0.10385-96.02111 1.79949-5.55328 3.03192-7.20152 6.92276-7.2058 17.00999-0.004 10.09219 1.36886 13.74403 6.29809 16.74956 3.11662 1.90031 5.73548 1.95316 96.96727 1.9568l93.76415 0.004 3.52269-3.09297zm-1.6809-71.42409c4.53394-2.74172 7.23385-8.75499 7.22695-16.09596-0.008-8.07238-1.40813-12.50418-5.05617-15.99948l-3.07337-2.94469-94.09117-0.26526c-93.05671-0.26234-94.12732-0.24291-97.37893 1.76669-1.80827 1.11757-4.01103 3.55615-4.89506 5.41907-2.12039 4.46842-2.1963 18.55369-0.12161 22.56571 1.59838 3.09095 5.78463 6.48387 9.0198 7.31051 1.10057 0.2812 43.19755 0.44634 93.54883 0.36695 89.30669-0.14081 91.6279-0.1928 94.82073-2.12354zm-0.9786-72.5521c6.20895-2.81796 8.61078-8.55107 8.00031-19.09657-0.50054-8.64639-2.0321-11.87931-7.09732-14.98146-3.12204-1.91207-5.40052-1.95218-96.74617-1.70315-91.76861 0.25018-93.60055 0.29311-96.26717 2.25607-4.36489 3.21312-5.7861 7.33026-5.7861 16.762 0 7.12509 0.35732 8.99028 2.27112 11.85506 4.89266 7.32386-1.27674 6.90073 100.28241 6.87795 88.08468-0.0197 91.18731-0.0838 95.34292-1.9699z"/>
	</g>
</svg>
