<?xml version="1.0" encoding="UTF-8" standalone="no"?>
<!-- Created with Inkscape (http://www.inkscape.org/) -->

<svg
   xmlns:dc="http://purl.org/dc/elements/1.1/"
   xmlns:cc="http://creativecommons.org/ns#"
   xmlns:rdf="http://www.w3.org/1999/02/22-rdf-syntax-ns#"
   xmlns:svg="http://www.w3.org/2000/svg"
   xmlns="http://www.w3.org/2000/svg"
   xmlns:sodipodi="http://sodipodi.sourceforge.net/DTD/sodipodi-0.dtd"
   xmlns:inkscape="http://www.inkscape.org/namespaces/inkscape"
   width="512"
   height="512"
   viewBox="0 0 512.00001 512.00001"
   id="svg2"
   version="1.1"
   inkscape:version="0.91 r13725"
   sodipodi:docname="user-add.svg">
  <defs
     id="defs4" />
  <sodipodi:namedview
     id="base"
     pagecolor="#ffffff"
     bordercolor="#666666"
     borderopacity="1.0"
     inkscape:pageopacity="0.0"
     inkscape:pageshadow="2"
     inkscape:zoom="0.35"
     inkscape:cx="-139.28571"
     inkscape:cy="520"
     inkscape:document-units="px"
     inkscape:current-layer="layer1"
     showgrid="false"
     units="px"
     inkscape:window-width="1920"
     inkscape:window-height="1057"
     inkscape:window-x="-8"
     inkscape:window-y="-8"
     inkscape:window-maximized="1" />
  <metadata
     id="metadata7">
    <rdf:RDF>
      <cc:Work
         rdf:about="">
        <dc:format>image/svg+xml</dc:format>
        <dc:type
           rdf:resource="http://purl.org/dc/dcmitype/StillImage" />
        <dc:title></dc:title>
      </cc:Work>
    </rdf:RDF>
  </metadata>
  <g
     inkscape:label="Layer 1"
     inkscape:groupmode="layer"
     id="layer1"
     transform="translate(0,-540.36216)">
    <path
       style="fill:#000000"
       d="m 388.44204,1053.8819 c -17.07669,-2.7954 -33.86897,-10.0608 -48.20605,-20.8572 -28.93518,-21.7892 -45.21447,-59.30904 -41.24036,-95.04908 1.61199,-14.49694 4.28871,-23.70928 10.70085,-36.82858 14.3179,-29.29455 41.84716,-50.69002 73.88748,-57.42461 11.51321,-2.41997 31.68753,-2.41997 43.20073,0 32.04033,6.73459 59.56959,28.13006 73.88749,57.42461 6.41214,13.1193 9.08886,22.33164 10.70085,36.82858 2.18004,19.60556 -1.31047,38.39743 -10.70085,57.61023 -11.81356,24.17065 -31.3831,42.08295 -57.22892,52.38265 -16.02365,6.3854 -37.80925,8.7277 -55.00122,5.9134 z m 34.32398,-45.7377 c 1.86833,-1.8684 2.00934,-3.3489 2.00934,-21.09803 l 0,-19.0887 19.08869,0 c 24.76623,0 23.10737,1.40643 23.10737,-19.59102 0,-20.99746 1.65886,-19.59103 -23.10737,-19.59103 l -19.08869,0 0,-19.0887 c 0,-24.76622 1.40642,-23.10737 -19.59103,-23.10737 -20.99746,0 -19.59103,-1.65885 -19.59103,23.10737 l 0,19.0887 -19.0887,0 c -24.76622,0 -23.10736,-1.40643 -23.10736,19.59103 0,20.99745 -1.65886,19.59102 23.10736,19.59102 l 19.0887,0 0,19.0887 c 0,24.76623 -1.40643,23.10743 19.59103,23.10743 14.2328,0 15.7452,-0.1729 17.58169,-2.0094 z m -397.848578,45.2326 c -6.203805,-0.9795 -9.77629,-2.573 -14.564487,-6.4965 -8.0246869,-6.5756 -12.1756689,-18.9442 -9.58421457,-28.5579 C 1.8092768,1014.4622 54.195651,895.40905 60.801141,881.89285 c 1.394708,-2.85385 4.176727,-6.78298 6.182266,-8.73138 2.364244,-2.29688 19.679455,-11.90025 49.242903,-27.31112 25.07806,-13.07271 46.90731,-24.22553 48.50944,-24.78404 2.64396,-0.92169 3.76793,-0.45348 12.17193,5.07045 25.39409,16.69148 50.94299,24.51061 80.0881,24.51061 29.16165,0 54.6921,-7.81774 80.12588,-24.53552 l 9.29678,-6.11083 4.51741,1.72522 c 2.48457,0.94887 4.49493,2.0269 4.46745,2.39562 -0.0275,0.36872 -4.88756,3.03807 -10.80018,5.93187 -13.143,6.43256 -22.00394,12.91974 -33.91018,24.82599 -12.20605,12.20604 -18.44133,20.81973 -25.49213,35.21597 -11.00958,22.47921 -13.63734,34.19129 -13.63734,60.78243 0,26.59113 2.62776,38.30321 13.63734,60.78248 6.52491,13.3224 12.81204,22.2479 23.78611,33.768 4.00636,4.2056 7.28428,7.9354 7.28428,8.2885 0,0.8824 -285.722338,0.5486 -291.353758,-0.3403 z M 240.22371,812.75083 c -46.79173,-8.48781 -83.95314,-48.25811 -95.23515,-101.92106 -5.60697,-26.66962 -3.1788,-67.91006 5.57579,-94.70015 13.41543,-41.05282 41.09496,-64.08046 84.32873,-70.1563 9.69908,-1.36306 34.50632,-1.36306 44.2054,0 43.23377,6.07584 70.91329,29.10348 84.32873,70.1563 8.84007,27.05169 11.23036,67.80392 5.55918,94.77911 -4.26565,20.2897 -12.84534,39.95 -24.58448,56.33517 -5.88309,8.21144 -18.88331,21.1503 -27.20834,27.07988 -22.77666,16.22293 -51.3757,23.06972 -76.96986,18.42705 z"
       id="path3451"
       inkscape:connector-curvature="0" />
  </g>
</svg>
