<svg xmlns:rdf="http://www.w3.org/1999/02/22-rdf-syntax-ns#" xmlns="http://www.w3.org/2000/svg" height="512" width="512" version="1.1" xmlns:cc="http://creativecommons.org/ns#" xmlns:dc="http://purl.org/dc/elements/1.1/" viewBox="0 0 512.00001 512.00001">
	<g transform="translate(0 -540.36)">
		<path d="m232.5 1051.2c-59.77-6.2-112.24-30.3-153.87-70.82-42.516-41.35-67.155-89.51-76.26-149.05-2.4854-16.254-2.4891-52.937-0.00695-69.5 8.964-59.81 33.91-108.69 76.329-149.55 71.408-68.78 173.65-90.14 266.81-55.74 58.637 21.651 110.29 67.819 138.51 123.79 13.926 27.625 20.667 49.156 25.673 82 2.4284 15.933 2.4148 51.799-0.0261 68.5-12.572 86.017-63.554 156.45-141.51 195.5-39.762 19.916-91.728 29.459-135.64 24.91zm56.5-41.312c94.616-15.146 166.87-88.569 181.15-184.09 1.759-11.76 1.7672-47.156 0.0136-59-14.29-96.6-87.89-170.19-184.66-184.63-11.667-1.7417-47.081-1.716-59 0.0428-96.629 14.259-170.36 87.967-184.67 184.61-1.7535 11.844-1.7454 47.24 0.01364 59 13.249 88.58 76.94 159.3 162.15 180.05 11.712 2.8515 18.912 4.0597 35 5.8734 7.4705 0.8422 40.976-0.3813 50-1.8257zm-62-80.716c-26.57-2.65-50.59-11.23-62.46-22.27l-5.8444-5.4392 0.62627-19.319c1.1805-36.413 4.9738-50.234 17.138-62.439 8.8371-8.8672 20.854-14.488 40.515-18.952l10.471-2.3773 2.5286 2.4184c1.3907 1.3301 5.2286 3.6814 8.5286 5.225 5.4833 2.5649 6.9903 2.8065 17.5 2.8065s12.017-0.24168 17.5-2.8065c3.3-1.5436 7.1379-3.8948 8.5286-5.225l2.5286-2.4184 10.471 2.3773c19.661 4.4637 31.678 10.085 40.515 18.952 12.164 12.205 15.957 26.026 17.138 62.438l0.62624 19.318-5.6542 5.3468c-11.972 11.321-35.895 19.663-64.509 22.494-12.073 1.1944-43.874 1.1388-56.144-0.0981zm15.489-138.22c-12.845-4.777-23.252-14.846-30.14-29.16-6.4021-13.305-7.7181-21.223-7.0635-42.5 0.58935-19.157 2.4101-27.505 8.1256-37.258 3.0808-5.257 10.223-12.002 15.589-14.721 12.86-6.5178 41.14-6.5178 54 0 5.3661 2.7198 12.508 9.4643 15.589 14.721 5.7156 9.7528 7.5363 18.101 8.1256 37.258 0.65482 21.285-0.66011 29.189-7.0759 42.533-11.97 24.898-35.827 37.057-57.15 29.127z"/>
	</g>
</svg>
