<?xml version="1.0" encoding="UTF-8" standalone="no"?>
<!-- Created with Inkscape (http://www.inkscape.org/) -->

<svg
   xmlns:dc="http://purl.org/dc/elements/1.1/"
   xmlns:cc="http://creativecommons.org/ns#"
   xmlns:rdf="http://www.w3.org/1999/02/22-rdf-syntax-ns#"
   xmlns:svg="http://www.w3.org/2000/svg"
   xmlns="http://www.w3.org/2000/svg"
   xmlns:sodipodi="http://sodipodi.sourceforge.net/DTD/sodipodi-0.dtd"
   xmlns:inkscape="http://www.inkscape.org/namespaces/inkscape"
   width="512"
   height="512"
   viewBox="0 0 511.99999 511.99999"
   id="svg2"
   version="1.1"
   inkscape:version="0.91 r13725"
   sodipodi:docname="user-staff.svg">
  <defs
     id="defs4" />
  <sodipodi:namedview
     id="base"
     pagecolor="#ffffff"
     bordercolor="#666666"
     borderopacity="1.0"
     inkscape:pageopacity="0.0"
     inkscape:pageshadow="2"
     inkscape:zoom="1"
     inkscape:cx="199.5"
     inkscape:cy="200"
     inkscape:document-units="px"
     inkscape:current-layer="layer1"
     showgrid="false"
     units="px"
     inkscape:window-width="1920"
     inkscape:window-height="1057"
     inkscape:window-x="-8"
     inkscape:window-y="-8"
     inkscape:window-maximized="1" />
  <metadata
     id="metadata7">
    <rdf:RDF>
      <cc:Work
         rdf:about="">
        <dc:format>image/svg+xml</dc:format>
        <dc:type
           rdf:resource="http://purl.org/dc/dcmitype/StillImage" />
        <dc:title></dc:title>
      </cc:Work>
    </rdf:RDF>
  </metadata>
  <g
     inkscape:label="Layer 1"
     inkscape:groupmode="layer"
     id="layer1"
     transform="translate(0,-540.36219)">
    <path
       style="fill:#000000"
       d="m 228.70762,1050.482 c -5.07062,-2.2408 -9.28718,-6.9288 -10.70759,-11.9046 -0.58405,-2.0459 -1.06449,-12.6098 -1.06764,-23.4752 l -0.006,-19.75532 -108.46332,0 -108.46332,0 4.6974551,-7.25194 C 7.2808047,984.10637 26.54615,952.9355 47.509085,918.82635 68.472018,884.7172 87.20507,854.89874 89.138088,852.5631 c 5.42804,-6.5586 10.07653,-9.1403 42.553372,-23.63345 l 30.22997,-13.49046 13.67415,-11.13994 c 7.52079,-6.12696 14.06769,-10.9974 14.54867,-10.82319 0.48098,0.1742 10.93478,9.54422 23.23066,20.82224 12.29588,11.27803 22.68244,20.50551 23.08123,20.50551 0.39879,0 11.23149,-9.35085 24.07267,-20.77966 l 23.34758,-20.77966 3.40783,2.77483 c 1.8743,1.52615 7.33115,6.25877 12.12632,10.51692 8.60726,7.64333 9.09094,7.90623 37.91364,20.60758 36.51065,16.08921 38.68004,17.17716 43.01956,21.57443 l 3.54311,3.59025 53.72455,0 c 35.1842,0 55.54401,0.37963 58.99685,1.10007 6.05784,1.26397 11.8866,5.67862 14.00246,10.60533 1.13002,2.63127 1.38904,19.24433 1.38904,89.09375 l 0,85.85935 -2.96778,4.5529 c -1.97277,3.0264 -4.49453,5.2719 -7.52152,6.6976 l -4.55374,2.1447 -132.04714,-0.022 c -125.88721,-0.021 -132.24099,-0.1076 -136.20221,-1.8582 z m 264.78605,-98.14666 0,-81.02174 -128.51627,0 -128.51627,0 0,81.02174 0,81.02176 128.51627,0 128.51627,0 0,-81.02176 z m -227.21677,1.00027 0,-45.01208 35.98456,0 35.98455,0 0,45.01208 0,45.01208 -35.98455,0 -35.98456,0 0,-45.01208 z m 106.92554,14.50389 0,-9.50255 28.78764,0 28.78765,0 0,9.50255 0,9.50255 -28.78765,0 -28.78764,0 0,-9.50255 z m 0,-46.01234 0,-9.50255 46.77992,0 46.77992,0 0,9.50255 0,9.50255 -46.77992,0 -46.77992,0 0,-9.50255 z M 225.1517,790.22737 c -11.84694,-1.09818 -20.35714,-3.37968 -31.35797,-8.40679 -39.16762,-17.89863 -62.82342,-62.65398 -66.14627,-125.1447 -1.77566,-33.39376 3.00252,-56.87732 15.35652,-75.47337 18.57326,-27.9577 55.66975,-42.92322 100.65406,-40.60598 33.49814,1.72556 56.79989,10.6032 75.20115,28.65058 20.56448,20.169 28.30433,45.18513 26.45585,85.50839 -3.98857,87.00747 -52.53679,141.74062 -120.16334,135.47187 z"
       id="path3412"
       inkscape:connector-curvature="0" />
  </g>
</svg>
