<?xml version="1.0" encoding="UTF-8" standalone="no"?>
<svg id="svg2" xmlns:rdf="http://www.w3.org/1999/02/22-rdf-syntax-ns#" xmlns="http://www.w3.org/2000/svg" height="512" width="512" version="1.1" xmlns:cc="http://creativecommons.org/ns#" xmlns:dc="http://purl.org/dc/elements/1.1/" viewBox="0 0 512.00001 512.00001">
	<g id="layer1" transform="translate(0,-540.36216)">
		<g id="g5000" transform="matrix(2.976097,0,0,2.976097,-1.636476,540.36216)">
			<g id="g4960">
				<path id="path4962" d="m79.287 159.943h0.019l-0.013 0.006-0.006-0.006zm52.34-10.394c-12.167 0-23.48-6.527-29.521-17.025-4.543-7.849-5.748-17.013-3.386-25.805 1.924-7.161 6.107-13.281 11.819-17.793-4.08-1.814-8.36-3.35-12.806-4.476 13.518-9.097 22.834-27.03 22.834-43.178 0.001-22.789-18.485-41.272-41.261-41.272-22.789 0-41.273 18.474-41.273 41.272 0 16.148 9.31 34.081 22.834 43.178-32.33 8.202-56.285 36.267-56.285 57.062 0 12.288 37.354 18.426 74.705 18.426l-20.919-20.929 17.622-42.6h-0.188l-6.847-7.849c3.318 1.193 6.765 1.899 10.345 1.899 3.574 0 7.015-0.706 10.318-1.894l-6.844 7.837h-0.171l17.622 42.6-20.925 20.935c23.526-0.006 47.054-2.436 61.242-7.307l-2.217-3.837c-2.211 0.452-4.445 0.756-6.698 0.756zm-15.522-60.806c14.76-8.513 33.722-3.446 42.246 11.313 8.519 14.754 3.446 33.709-11.325 42.229-14.755 8.519-33.704 3.459-42.229-11.326-8.525-14.742-3.445-33.691 11.308-42.216zm2.57 4.427c-12.33 7.112-16.568 22.92-9.444 35.238 7.118 12.324 22.914 16.574 35.232 9.462 12.324-7.112 16.55-22.932 9.45-35.244-7.112-12.318-22.92-16.55-35.238-9.456zm36.108 47.221-13.292 7.673 10.241 17.72 13.287-7.685-10.236-17.708zm11.649 20.13-13.311 7.673c2.131 3.678 6.832 4.933 10.498 2.813 3.659-2.094 4.926-6.801 2.813-10.486z"/>
			</g>
		</g>
	</g>
</svg>
