<svg xmlns:rdf="http://www.w3.org/1999/02/22-rdf-syntax-ns#" xmlns="http://www.w3.org/2000/svg" height="512" width="512" version="1.1" xmlns:cc="http://creativecommons.org/ns#" xmlns:dc="http://purl.org/dc/elements/1.1/" viewBox="0 0 512.00001 512.00001">
	<g transform="translate(0 -540.36)">
		<path d="m120.36 1046.3c-8.0062-2.3204-18.268-12.24-21.453-20.737-1.1353-3.0294-1.4273-24.862-1.664-124.42l-0.28705-120.75h7.0195 7.0195v116.34c0 124.91-0.13545 121.45 5.0398 128.71 1.2934 1.8164 4.6972 4.3347 7.8697 5.8224l5.5905 2.6217h152 152l5.1516-2.3308c6.2368-2.8218 8.5393-5.1507 11.55-11.682l2.2988-4.9875v-195.5-195.5l-2.3763-5.2573c-1.307-2.8915-3.8881-6.5847-5.7359-8.2071-6.9392-6.0927-6.0782-6.0356-91.069-6.0356h-77.318v-7.0332-7.0332l82.272 0.28317 82.272 0.28317 6.6752 3.2868c8.0216 3.9497 13.886 10.207 16.757 17.879 2.0357 5.441 2.042 6.1689 1.7833 208.65l-0.26 203.17-2.4229 4.9229c-3.2968 6.6985-9.0244 12.164-16.408 15.657l-6.1694 2.9186-158.5-0.089c-91.782-0.052-159.82-0.4719-161.64-0.9981zm146.84-128.14c-0.66-0.66-1.2-2.4711-1.2-4.0248 0-2.112 0.64719-3.0708 2.5651-3.8 1.5263-0.58028 20.471-0.97525 46.777-0.97525 38.397 0 44.505 0.20475 46.435 1.5567 2.6012 1.822 2.8695 4.6534 0.65108 6.8719-1.3832 1.3832-7.1074 1.5714-47.8 1.5714-34.622 0-46.53-0.30128-47.429-1.2zm-69-53c-1.7672-1.7672-1.4603-5.2544 0.62874-7.145 1.6698-1.5111 8.8224-1.655 82.277-1.655 71.194 0 80.704 0.17908 82.671 1.5567 2.5036 1.7536 2.7953 4.1049 0.83046 6.6933-1.2462 1.6416-6.4031 1.75-83.268 1.75-62.398 0-82.226-0.28619-83.14-1.2zm0-48c-1.7672-1.7672-1.4603-5.2544 0.62874-7.145 1.6698-1.5111 8.8224-1.655 82.277-1.655 71.194 0 80.704 0.17908 82.671 1.5567 2.5036 1.7536 2.7953 4.1049 0.83046 6.6933-1.2462 1.6416-6.4031 1.75-83.268 1.75-62.398 0-82.226-0.28619-83.14-1.2zm-89.2-58.23c-8.52-5.08-26.975-16.05-41-24.36-30.594-18.12-31.563-18.83-30.647-22.48 1.055-4.2 4.693-4.54 10.392-0.96 2.615 1.65 17.58 10.54 33.255 19.77 15.675 9.226 31.755 18.73 35.733 21.12 3.9781 2.3901 7.8031 4.3301 8.5 4.3111 0.69686-0.019 17.242-24.825 36.767-55.124s39.55-61.328 44.5-68.954c4.95-7.6256 14.311-22.082 20.802-32.126 29.971-46.377 33.919-52.306 35.369-53.117 0.92009-0.5149 2.5164-0.42433 3.9381 0.22343 4.144 1.8881 3.0636 5.577-5.457 18.632-4.3076 6.6-17.419 26.85-29.138 45-11.718 18.15-23.649 36.6-26.512 41-6.0836 9.3472-20.826 32.154-42.987 66.5-33.22 51.485-32.177 50.009-35.244 49.913-1.5944-0.0503-9.3532-4.0167-18.271-9.3403zm89.206 7.2335c-1.6878-1.6878-1.5018-5.3668 0.3657-7.2343 1.4026-1.4026 10.252-1.5714 82.389-1.5714 77.84 0 80.904 0.0698 83.158 1.8953 2.0144 1.6312 2.2007 2.2932 1.3368 4.75l-1.0039 2.8547-82.52 0.25573c-63.353 0.19634-82.8-0.0243-83.726-0.95zm-0.01-45c-1.7672-1.7672-1.4603-5.2544 0.62874-7.145 1.6446-1.4883 6.3555-1.655 46.777-1.655 39.064 0 45.24 0.20382 47.171 1.5567 2.6012 1.822 2.8695 4.6534 0.65108 6.8719-1.3832 1.3832-7.1074 1.5714-47.8 1.5714-34.622 0-46.53-0.30128-47.429-1.2zm-101.2-58.25c0-26.113 0.39811-42.329 1.1232-45.75 2.9395-13.869 12.479-23.145 26.457-25.73 3.367-0.62242 19.718-1.0697 39.103-1.0697h33.316v6.9506 6.9506l-33.824 0.29942-33.824 0.29942-5.8186 3c-4.7777 2.4633-6.3746 3.9839-8.9261 8.5l-3.1074 5.5-0.29217 40.75-0.29217 40.75h-6.9578-6.9578v-40.451z"/>
	</g>
</svg>
