<svg xmlns:rdf="http://www.w3.org/1999/02/22-rdf-syntax-ns#" xmlns="http://www.w3.org/2000/svg" height="512" width="512" version="1.1" xmlns:cc="http://creativecommons.org/ns#" xmlns:dc="http://purl.org/dc/elements/1.1/" viewBox="0 0 512.00001 512.00001">
	<g transform="translate(0 -540.36)">
		<path d="m0 796.37v-256.01h147.25 147.25l44.754 44.746 44.754 44.746v67.754c0 37.265 0.16605 67.754 0.36901 67.754 3.1979 0 19.942 3.7469 27.39 6.1291 50.863 16.269 88.267 59.083 97.92 112.08 2.2753 12.492 2.2809 37.056 0.0113 49.513-10.877 59.698-55.558 104.65-116.23 116.95-8.4391 1.7103-20.039 1.8299-201.21 2.0746l-192.25 0.3v-256.03zm267.76 214.73c-28.74-28.33-42.91-61.97-43.16-102.49l-0.1-16.25-48.25-0.00002-48.25-0.00001v-24.012-24.012l-32 24.024-32 24.024v-80.024-80.024l32 24.024 32 24.024v-24.012-24.012h96 96v20c0 11 0.3707 20 0.82377 20 0.45308 0 4.3906-1.0664 8.75-2.3699 4.3594-1.3034 11.189-2.9191 15.176-3.5904l7.25-1.2205v-48.41-48.41h-48-48v-48-48h-112-112v224 224h122.58 122.58l-9.4031-9.2666zm118.46 5.7344c67.09-11.7 107.65-79.79 85.81-144-15.06-44.3-57.18-74.43-104.03-74.43-60.521 0-109.99 49.473-109.99 109.99 0 67.676 61.926 120.06 128.22 108.47zm-34.22-76.44v-48h16 16v48 48h-16-16v-48zm0-96v-16h16 16v16 16h-16-16v-16zm-7-208.25c0-0.14112-12.825-13.076-28.5-28.743l-28.5-28.487v28.743 28.743h28.5c15.675 0 28.5-0.11546 28.5-0.25658z"/>
	</g>
</svg>
