<?xml version="1.0" encoding="UTF-8" standalone="no"?>
<svg xmlns:rdf="http://www.w3.org/1999/02/22-rdf-syntax-ns#" xmlns="http://www.w3.org/2000/svg" height="512" width="512" version="1.1" xmlns:cc="http://creativecommons.org/ns#" xmlns:dc="http://purl.org/dc/elements/1.1/" viewBox="0 0 512.00001 512.00001">
	<g transform="translate(0 -540.36)">
		<path d="m39.634 941.78c-18.147-4.4-33.777-20.2-38.094-38.51-2.2656-9.6113-2.2656-204.2 0-213.81 4.3749-18.56 19.993-34.178 38.553-38.553 9.5416-2.2491 297.14-2.2812 306.67-0.0342 18.811 4.4352 33.807 19.217 38.751 38.198 1.108 4.2539 1.4891 11.55 1.4891 28.507 0 12.534 0.32357 22.79 0.71904 22.79 0.39548 0 16.708-15.935 36.25-35.412l35.53-35.43 7.3552-2.2178c19.079-5.7527 37.973 4.2534 43.561 23.069 1.3999 4.714 1.5843 17.048 1.5843 105.97 0 88.923-0.1844 101.26-1.5843 105.97-3.0135 10.148-9.2105 17.162-19.37 21.926-4.5332 2.1256-7.0062 2.5987-13.546 2.5913-14.4-0.0163-14.923-0.40031-54.549-40.038-18.942-18.948-34.78-34.451-35.196-34.451-0.41549 0-0.75544 10.255-0.75544 22.79 0 16.957-0.3811 24.253-1.4891 28.507-4.9439 18.981-19.939 33.762-38.751 38.198-9.1904 2.1668-298.15 2.0907-307.13-0.0809zm130.45-76.7c5.6047-2.8953 72.909-54.727 76.306-58.764 4.6624-5.5409 4.6624-14.365 0-19.906-3.3776-4.014-70.649-55.833-76.386-58.839-8.2773-4.3382-18.19-1.2474-22.751 7.094-1.6089 2.9422-1.749 7.8832-1.749 61.698 0 52.448 0.17045 58.811 1.6476 61.502 4.8385 8.8168 14.157 11.748 22.933 7.2146z"/>
	</g>
</svg>
