<?xml version="1.0" encoding="UTF-8" standalone="no"?>
<svg
   xmlns:dc="http://purl.org/dc/elements/1.1/"
   xmlns:cc="http://creativecommons.org/ns#"
   xmlns:rdf="http://www.w3.org/1999/02/22-rdf-syntax-ns#"
   xmlns:svg="http://www.w3.org/2000/svg"
   xmlns="http://www.w3.org/2000/svg"
   xmlns:sodipodi="http://sodipodi.sourceforge.net/DTD/sodipodi-0.dtd"
   xmlns:inkscape="http://www.inkscape.org/namespaces/inkscape"
   width="512"
   height="512"
   viewBox="0 0 512 512"
   version="1.1"
   id="svg8"
   inkscape:version="1.0.1 (3bc2e813f5, 2020-09-07)"
   sodipodi:docname="views.svg">
  <defs
     id="defs2" />
  <sodipodi:namedview
     id="base"
     pagecolor="#ffffff"
     bordercolor="#666666"
     borderopacity="1.0"
     inkscape:pageopacity="0.0"
     inkscape:pageshadow="2"
     inkscape:zoom="0.35"
     inkscape:cx="400"
     inkscape:cy="560"
     inkscape:document-units="px"
     inkscape:current-layer="layer1"
     inkscape:document-rotation="0"
     showgrid="false"
     units="px"
     inkscape:window-width="1920"
     inkscape:window-height="1017"
     inkscape:window-x="-8"
     inkscape:window-y="-8"
     inkscape:window-maximized="1" />
  <metadata
     id="metadata5">
    <rdf:RDF>
      <cc:Work
         rdf:about="">
        <dc:format>image/svg+xml</dc:format>
        <dc:type
           rdf:resource="http://purl.org/dc/dcmitype/StillImage" />
        <dc:title></dc:title>
      </cc:Work>
    </rdf:RDF>
  </metadata>
  <g
     inkscape:label="Layer 1"
     inkscape:groupmode="layer"
     id="layer1">
    <path
       style="fill:#000000;stroke-width:0.349582"
       d="M 247.38737,405.8545 C 185.95329,403.6428 119.96205,373.83162 55.510129,319.17667 41.510907,307.30546 16.000337,282.56598 6.2141175,271.37094 1.5268219,266.00839 -0.0296635,262.13311 4.2152582e-4,255.90005 0.03065777,249.93822 1.5882014,246.03254 6.0173931,240.82654 14.489357,230.86838 35.212851,210.45337 49.400899,198.08833 c 45.478725,-39.63434 91.425391,-66.83871 136.637061,-80.901 48.9182,-15.21472 93.73056,-14.9197 142.93393,0.94152 57.79131,18.63029 119.08569,60.65306 173.17524,118.72744 6.42463,6.89751 7.47806,8.36756 8.89448,12.41207 0.81611,2.33029 0.95361,3.30594 0.9583,6.8011 0.004,3.59953 -0.1149,4.41672 -1.01594,6.92138 -1.63555,4.54802 -2.67779,5.87806 -14.16363,18.07349 -7.74414,8.22373 -29.84429,29.11972 -39.2727,37.13474 -26.77921,22.76335 -53.15661,40.9348 -79.49448,54.76469 -45.13805,23.70082 -87.78178,34.43502 -130.66579,32.89074 z m 26.05384,-35.16604 c 57.60788,-6.0114 120.05854,-39.55546 180.15361,-96.76531 6.57846,-6.26283 17.38844,-17.13369 17.61544,-17.71512 0.31294,-0.80043 -23.75468,-24.06547 -35.23262,-34.05682 -36.47437,-31.7515 -75.0411,-55.58822 -111.14747,-68.6964 -19.05634,-6.91816 -37.44703,-11.01479 -56.06068,-12.48892 -5.55183,-0.43994 -19.96298,-0.43994 -25.5148,0 -5.43909,0.43087 -16.40229,1.85411 -21.16041,2.7472 -51.48848,9.6649 -107.51114,41.61448 -161.1586,91.90822 -9.650308,9.04681 -20.26277,19.83798 -20.111778,20.44974 0.180284,0.72995 10.702906,11.36331 19.339053,19.54258 35.366446,33.49438 73.794425,60.17581 109.242545,75.84983 27.05825,11.9647 50.78182,18.11609 76.54441,19.84816 4.35734,0.29303 22.69568,-0.12544 27.4913,-0.62316 z m -25.69448,-40.01468 c -10.89891,-1.03748 -23.98549,-5.26652 -33.3602,-10.78146 -10.29369,-6.05545 -20.12704,-15.42774 -26.01381,-24.79436 -5.7487,-9.1468 -9.38778,-18.848 -10.87786,-28.99617 -0.68576,-4.67093 -0.78913,-15.20231 -0.19049,-19.38352 2.41236,-16.84495 10.13379,-31.68517 22.64811,-43.52772 28.72475,-27.18191 73.74941,-29.5806 105.47186,-5.61838 23.15229,17.48853 33.9834,45.80406 28.16489,73.63049 -2.31908,11.09099 -8.64329,23.57204 -16.42965,32.42467 -10.25367,11.65841 -23.24859,19.85861 -38.33292,24.18938 -9.85043,2.82865 -20.80116,3.83485 -31.08016,2.85707 z m 18.8987,-35.43931 c 12.42448,-3.29109 22.21732,-10.89272 27.65866,-21.47041 3.62979,-7.05576 4.95281,-13.74088 4.18133,-21.12782 -0.99446,-9.52226 -4.80347,-17.58806 -11.47755,-24.30465 -12.75943,-12.8408 -32.92718,-16.37716 -49.50302,-8.68114 -17.18619,7.97939 -26.55141,24.71 -23.73358,42.39897 1.36607,8.57562 5.25388,15.91381 11.83752,22.34335 4.65535,4.54642 10.35409,7.92574 16.82596,9.97739 5.52893,1.75284 7.35172,1.98595 14.47575,1.85173 5.58437,-0.10665 6.91502,-0.24059 9.73493,-0.98742 z"
       id="path56" />
  </g>
</svg>
