<svg width="512" height="512" version="1.1" viewBox="0 0 512 512" xmlns="http://www.w3.org/2000/svg">
	<g transform="translate(0 -161.53)">
		<path d="m241.79 566.29c-46.787-3.2475-96.803-21.601-143.25-52.565-30.285-20.19-63.779-48.797-84.715-72.355-12.045-13.553-13.828-16.656-13.828-24.066-2.8736e-4 -5.0245 0.47571-6.6125 3.3646-11.225 7.4394-11.879 37.26-41.107 62.435-61.194 42.236-33.701 85.544-56.696 128.88-68.435 21.34-5.78 37.117-7.8282 60.568-7.8634 23.447-0.035188 37.183 1.6089 58.125 6.9576 61.937 15.819 128.18 57.695 181.03 114.44 17.663 18.966 20.364 25.253 15.367 35.774-6.2748 13.21-49.622 54.339-80.986 76.843-48.676 34.924-94.197 54.693-142.29 61.793-9.9122 1.4633-35.371 2.5418-44.705 1.8939zm38.456-43.772c52.666-6.4267 116.38-41.405 169.49-93.047l12.297-11.958-6.5284-6.6263c-25.993-26.382-67.212-57.323-95.939-72.016-72.17-36.913-132.87-37.523-203.76-2.0474-31.161 15.594-64.412 39.827-94.33 68.746l-12.072 11.669 7.5035 7.5968c28.973 29.333 66.154 56.709 100.11 73.709 15.58 7.8003 19.299 9.3705 34.631 14.622 29.43 10.08 57.955 13.091 88.597 9.3513zm-37.379-31.64c-25.728-4.6015-48.861-24.24-57.342-48.681-5.6471-16.273-5.6471-33.347 0-49.62 7.4632-21.507 26.784-39.929 48.94-46.665 11.032-3.3538 30.236-3.5187 41.271-0.35427 22.483 6.4475 40.621 22.781 49.381 44.47 7.4277 18.389 6.4883 42.579-2.3317 60.047-9.6571 19.126-26.598 33.308-46.541 38.959-8.1672 2.3145-25.418 3.2674-33.378 1.8437z" stroke-width=".9614"/>
	</g>
</svg>
