<svg width="512" height="512" version="1.1" viewBox="0 0 512 512" xmlns="http://www.w3.org/2000/svg">
 <path d="m239.54 405.64c-38.814-5.3365-76.123-23.615-110.89-54.332-25.029-22.11-59.26-69.147-86.577-118.97-25.187-45.935-44.539-99.453-41.609-115.07 0.89875-4.7908 5.0082-9.0193 10.154-10.448 5.1948-1.4423 67.525-1.4764 72.699-0.0397 4.9918 1.3862 10.312 6.1811 13.147 11.85 1.2627 2.5245 4.4448 10.44 7.0713 17.59 19.846 54.025 51.032 109.03 73.726 130.04 10.667 9.8757 18.367 11.564 23.204 5.0891 2.026-2.7125 2.0818-3.9632 2.3629-52.956 0.24588-42.85 0.0541-51.333-1.3131-58.089-2.0983-10.368-5.8606-18.293-13.324-28.066-6.4309-8.4209-7.7246-11.636-6.6504-16.526 0.87753-3.9954 5.805-8.7802 9.7882-9.505 1.7661-0.32134 24.666-0.45095 50.889-0.28801 46.557 0.28928 47.744 0.34535 50.5 2.3862 5.975 4.4244 5.7773 2.1921 6.3224 71.41 0.52253 66.361 0.44899 65.281 4.7835 70.25 2.1858 2.5058 7.924 2.179 13.034-0.7425 7.6467-4.3716 15.303-11.718 25.541-24.508 19.089-23.846 34.727-49.568 53.313-87.691 12.021-24.657 13.663-26.88 22.076-29.883 4.9005-1.7488 67.069-2.0053 73.823-0.30452 13.39 3.3718 12.556 16.44-2.9606 46.378-10.269 19.812-18.268 32.815-41.094 66.804-26.108 38.875-27.766 41.671-27.696 46.72 0.032 2.3488 1.003 5.5942 2.3201 7.7571 1.2454 2.0453 11.519 13.169 22.83 24.719 21.755 22.214 35.699 37.95 47.339 53.421 21.545 28.637 24.933 43.718 11.586 51.579-3.2304 1.9028-5.194 2-40.396 2h-37l-5-2.4056c-3.5596-1.7125-8.6011-6.1778-17.5-15.5-41.574-43.551-59.713-59.884-74.774-67.328-6.9393-3.4296-8.3558-3.7669-15.819-3.7669-14.171 0-14.407 0.7126-14.407 43.542 0 26.674-0.2335 31.648-1.6233 34.577-3.7252 7.8503-11.869 10.435-34.377 10.911-9.075 0.1919-19.647-0.084-23.494-0.6127z"/>
</svg>
