<svg xmlns:rdf="http://www.w3.org/1999/02/22-rdf-syntax-ns#" xmlns="http://www.w3.org/2000/svg" height="512" width="512" version="1.1" xmlns:cc="http://creativecommons.org/ns#" xmlns:dc="http://purl.org/dc/elements/1.1/" viewBox="0 0 512.00001 512.00001">
	<g transform="translate(0 -540.36)">
		<path d="m36.765 1044.1c-1.9643-0.968-4.8685-3.4604-6.4538-5.5387l-2.8823-3.7787-0.28031-146.1-0.28031-146.1h-7.8061c-6.5778 0-8.436-0.428-11.809-2.7199-7.2074-4.94-7.253-5.2-7.253-42.5 0-35.75 0.105-36.538 5.5449-41.615 1.3873-1.2947 7.8467-4.7386 14.354-7.6531 24.077-10.783 63.442-28.461 100.57-45.165 120.68-54.294 124.96-56.156 128.89-56.156 2.337 0 9.0244 2.1564 16.326 5.2644 6.8022 2.8954 44.945 19.1 84.763 36.011 39.817 16.911 73.942 31.441 75.832 32.289 1.8903 0.84825 14.57 6.2283 28.176 11.956 50.03 21.059 52.09 22.043 54.938 26.233l2.6083 3.8384-0.004 34.439c-0.004 32.468-0.12638 34.64-2.1414 37.945-3.4849 5.7157-7.9755 7.7798-16.936 7.7845l-7.7869 0.004-0.28031 146.1-0.28031 146.1-2.8973 3.7983c-6.0913 7.9858 14.163 7.3308-225.84 7.3036-197.33-0.023-215.8-0.1733-219.07-1.7848zm44.719-139.91 0.27343-123.97h174.25 174.25v124.26 124.26l18.555-0.2942 18.555-0.2943 0.27263-151.4 0.27263-151.39h13.459 13.459l-0.28649-28.685-0.28647-28.685-12.37-5.3053c-6.8034-2.9179-26.407-11.258-43.563-18.535-17.156-7.276-42.81-18.172-57.008-24.214-14.198-6.0416-35.254-14.982-46.79-19.868-11.536-4.8861-35.431-15.019-53.099-22.518l-32.124-13.634-109.86 49.429c-60.434 27.24-112.65 50.71-116.06 52.21l-6.1849 2.7297v28.563 28.563h13.445 13.445v151.69 151.69l18.555-0.2942 18.555-0.2943 0.27343-123.97zm-4.0381-170.22v-8.605h33.882 33.882v8.605 8.605h-33.882-33.882v-8.605zm96.807 0v-8.605h33.882 33.882v8.605 8.605h-33.882-33.882v-8.605zm95.731 0v-8.605h34.42 34.42v8.605 8.605h-34.42-34.42v-8.605zm96.807 0v-8.605h33.882 33.882v8.605 8.605h-33.882-33.882v-8.605zm-243.09 211.9v-82.824h50.017 50.017v27.429 27.429h40.874 40.874v27.429 27.429h41.412 41.412v28.003 28.003l11.563-0.3053 11.563-0.3052 0.27375-115.37 0.27376-115.36-156.24 0.27251-156.24 0.27252-0.27708 114.02c-0.15241 62.709-0.0466 114.62 0.23514 115.36 0.36704 0.9635 3.8757 1.3446 12.378 1.3446h11.866v-82.824zm81.748 63.731 0.0006-19.092-32.27 0.29976-32.27 0.29977v18.793 18.793h32.269 32.269l0.0006-19.092zm82.823 0.2689v-18.824h-32.269-32.269v18.824 18.824h32.269 32.269v-18.824zm82.824-0.5378v-19.361h-32.269-32.269v19.361 19.361h32.269 32.269v-19.361zm-165.65-55.411v-18.84l-32 0.28491-32 0.28491-0.29431 18.555-0.29431 18.555h32.294 32.294v-18.84zm82.824 0.016v-18.824h-32.269-32.269v18.824 18.824h32.269 32.269v-18.824zm-81.991-54.588-0.29431-18.555-32.538-0.28467-32.538-0.28469v18.839 18.839h32.832 32.832l-0.29431-18.555z"/>
	</g>
</svg>
