<svg width="512" height="512" version="1.1" viewBox="0 0 512 512" xmlns="http://www.w3.org/2000/svg">
	<g transform="translate(0 -393.83)">
		<path d="m245.12 904.85c-5.599-1.8218-10.676-5.1277-15.041-9.7939-14.027-14.996-13.217-37.238 1.865-51.201 6.5468-6.0612 12.602-8.513 22.249-9.009 11.49-0.59072 18.706 2.0499 26.863 9.8301 11.738 11.196 14.467 29.889 6.378 43.692-3.1262 5.3344-10.802 12.251-16.54 14.903-4.133 1.9103-6.3649 2.3259-13.549 2.5229-5.563 0.15255-9.8817-0.18073-12.226-0.9435zm3.1945-138.48c-9.8046-2.1836-18.443-8.4491-23.443-17.002-5.2183-8.9279-4.9417 0.55614-4.9417-169.4 0-152.39 0.033056-155.52 1.7009-160.92 3.2226-10.434 11.334-19.187 21.523-23.226 6.7188-2.6638 19.127-2.6549 25.804 0.018479 9.6087 3.8471 16.838 11.058 20.846 20.792l1.9477 4.7308 0.22979 157.41c0.22597 154.79 0.20144 157.5-1.4744 163.03-3.8816 12.807-14.658 22.373-27.978 24.835-6.1446 1.1359-8.1054 1.0999-14.215-0.26067z" stroke-width=".86014"/>
	</g>
</svg>
