<svg xmlns:rdf="http://www.w3.org/1999/02/22-rdf-syntax-ns#" xmlns="http://www.w3.org/2000/svg" height="512" width="512" version="1.1" xmlns:cc="http://creativecommons.org/ns#" xmlns:dc="http://purl.org/dc/elements/1.1/" viewBox="0 0 512.00001 512.00001">
	<g transform="translate(0 -540.36)">
		<path d="m238.47 1051.8c-55.982-3.8746-107.62-25.25-150.62-62.353-7.1744-6.1903-20.51-19.644-26.74-26.977-29.351-34.546-48.819-75.64-56.999-120.32-3.0156-16.469-3.5879-23.767-3.5879-45.749s0.57234-29.28 3.5879-45.749c10.487-57.275 39.694-108.72 83.442-146.97 17.564-15.358 34.273-26.467 55.553-36.935 31.347-15.42 61.296-23.384 97.042-25.806 50.417-3.4154 102.7 9.1898 146.55 35.332 63.978 38.144 107.78 101.17 121.18 174.38 3.0156 16.469 3.5879 23.767 3.5879 45.749 0 26.238-1.503 39.355-7.1202 62.141-18.99 77.031-74.391 142.04-147.7 173.32-36.934 15.758-78.12 22.705-118.18 19.932zm29.41-39.735c21.033-1.2473 37.545-4.4114 57.038-10.929 73.431-24.554 128.16-86.931 143.12-163.14 2.8936-14.731 3.6017-22.817 3.6163-41.293 0.0137-17.518-0.39053-23.008-2.7134-36.837-6.0343-35.926-21.514-70.177-44.894-99.332-10.095-12.588-26.793-28.472-40.61-38.628-47.086-34.61-106.49-48.302-165.47-38.141-66.164 11.399-124.63 55.029-155.02 115.69-11.61 23.172-18.111 45.112-21.861 73.781-0.97985 7.4909-0.97985 38.853 0 46.344 2.216 16.941 4.9832 29.742 9.383 43.406 15.581 48.388 48.175 89.94 92.016 117.3 29.452 18.384 65.028 29.659 100.14 31.738 11.743 0.6953 14.118 0.699 25.251 0.039zm-20.514-96.994c-12.253-4.1776-20.068-17.082-17.922-29.595 1.0283-5.9963 3.2663-10.313 7.6019-14.663 10.772-10.807 27.132-10.807 37.903 0 8.1265 8.1536 10.219 19.526 5.4917 29.851-5.7542 12.569-20.116 18.825-33.074 14.407zm2.9297-77.826c-3.4262-0.9646-8.4006-4.6571-10.494-7.7899-3.9228-5.8698-3.7444-2.0182-3.5696-77.053l0.15842-67.992 1.5733-3.3557c2.0083-4.2836 5.6612-7.9303 9.9247-9.908 4.7777-2.2161 11.44-2.2161 16.218 0 4.2635 1.9776 7.9164 5.6243 9.9247 9.908l1.5733 3.3557 0.18119 67.733c0.13412 50.134 0.0006 68.514-0.51323 70.738-1.4665 6.3473-7.648 12.717-13.987 14.412-3.0832 0.8246-7.9658 0.8033-10.989-0.048z"/>
	</g>
</svg>
