<?xml version="1.0" encoding="UTF-8" standalone="no"?>
<svg id="svg2" xmlns:rdf="http://www.w3.org/1999/02/22-rdf-syntax-ns#" xmlns="http://www.w3.org/2000/svg" height="512" width="512" version="1.1" xmlns:cc="http://creativecommons.org/ns#" xmlns:dc="http://purl.org/dc/elements/1.1/" viewBox="0 0 512.00001 512.00001">
	<g id="layer1" transform="translate(0,-540.36216)">
		<g id="g3512" transform="matrix(4.1291826 0 0 4.5673811 .00163783 513.19196)">
			<g id="g3472">
				<path id="path3474" d="m9.821 118.048h104.4c7.3 0 12-7.7 8.7-14.2l-52.2-92.5c-3.601-7.199-13.9-7.199-17.5 0l-52.2 92.5c-3.2 6.5 1.5 14.2 8.8 14.2zm60.401-21.5c0 4.8-3.5 8.5-8.5 8.5s-8.5-3.7-8.5-8.5v-0.2c0-4.8 3.5-8.5 8.5-8.5s8.5 3.7 8.5 8.5v0.2zm-13.101-62.5h9.801c2.699 0 4.3 2.3 4 5.2l-4.301 37.6c-0.3 2.7-2.1 4.4-4.6 4.4s-4.3-1.7-4.6-4.4l-4.301-37.6c-0.299-2.9 1.302-5.2 4.001-5.2z"/>
			</g>
		</g>
	</g>
</svg>
