<svg xmlns:rdf="http://www.w3.org/1999/02/22-rdf-syntax-ns#" xmlns="http://www.w3.org/2000/svg" height="512" width="512" version="1.1" xmlns:cc="http://creativecommons.org/ns#" xmlns:dc="http://purl.org/dc/elements/1.1/" viewBox="0 0 512.00001 512.00001">
	<g transform="translate(0 -540.36)">
		<path d="m109.86 1050.5c-2.3526-1.905-2.3608-1.9885-2.3608-24.088s0.008-22.183 2.3608-24.088c2.1855-1.7697 4.2408-1.9117 27.679-1.9117h25.318l1.5065-5.25c4.8645-16.952 9.6354-34.569 9.6354-35.58 0-0.8845-20.648-1.1703-84.545-1.1703h-84.545l-2.4545-2.4545-2.4546-2.4546v-192.11c0-194.28 0.0116-194.95 3.3997-197.21 0.60517-0.40408 50.47-0.74158 110.81-0.75l109.71-0.0153 2.039 2.1886c2.7775 2.9813 2.6027 7.3386-0.41559 10.357l-2.4545 2.4545h-104.05-104.05l0.25356 136.75 0.25356 136.75 32.75 0.26366 32.75 0.26367v-30.119c0-33.763 0.60207-38.167 6.5618-47.998 8.9277-14.728 24.333-22.855 43.438-22.916l5.5-0.0177-5.7672-3.2381c-15.709-8.8198-25.733-25.693-25.733-43.314 0-12.978 5.1406-25.055 14.832-34.846 27.029-27.306 72.887-14.053 82.636 23.882 5.2918 20.592-4.9257 43.541-24.166 54.278l-5.8025 3.2381 6 0.0293c8.1749 0.0399 18.182 2.2931 24.577 5.5338 11.456 5.8052 21.427 19.301 23.902 32.352 0.56139 2.9602 1.0207 18.371 1.0207 34.246v28.864h127 127v-66.826-66.826l2.3144-2.1743c3.0744-2.8882 7.7245-2.8262 10.511 0.14014l2.1744 2.3144-0.085 111.94c-0.046 61.565-0.414 114.58-0.8169 117.82-0.4961 3.9818-1.3375 6.3219-2.6068 7.25-1.5523 1.1351-16.457 1.3704-86.8 1.3704-80.4 0-84.9 0.093-84.44 1.75 0.26705 0.9625 2.8745 10.392 5.7943 20.954l5.3087 19.204 25.719 0.2964c23.65 0.2725 25.888 0.44964 27.822 2.2013 2.0175 1.8274 2.1031 2.8116 2.1031 24.177v22.272l-2.6349 2.0725-2.6349 2.0726h-135.75c-132.17 0-135.82-0.05-138.12-1.9116zm263.92-24.338 0.28383-10.75h-125.53-125.53v11.004 11.004l125.25-0.2539 125.25-0.2539 0.28383-10.75zm-57.022-28.5c-0.25947-0.96251-2.8626-10.416-5.7848-21.008l-5.3131-19.258-57.474 0.25811-57.474 0.258-3.7249 13.5c-2.0487 7.425-4.6502 16.762-5.7812 20.75l-2.0562 7.25h69.04c65.265 0 69.014-0.096 68.568-1.75zm164.24-92.75v-37.5h-233-233v36.833c0 20.258 0.3 37.133 0.66667 37.5 0.36666 0.3666 105.22 0.6666 233 0.6666h232.33v-37.5zm-239.78 22.079c-12.534-4.0568-19.37-16.678-15.76-29.097 4.4173-15.195 21.91-22.104 35.184-13.898 12.361 7.642 15.11 25.038 5.6183 35.544-6.6271 7.3354-16.407 10.245-25.043 7.45zm14.39-19.795c2.9993-5.8-0.82916-11.784-7.5392-11.784-9.6345 0-11.019 14.273-1.5726 16.211 3.4022 0.6977 7.4884-1.2874 9.1118-4.4267zm-42.612-85.746c0-27.927-0.14171-30.341-2.0863-35.539-2.8009-7.4861-9.9668-14.627-17.511-17.449-5.4402-2.0354-7.0859-2.1114-39.789-1.8363-33.181 0.27908-34.24 0.34917-38.734 2.5634-5.8243 2.8696-11.857 8.9186-14.971 15.01-2.3707 4.6386-2.4136 5.2068-2.7114 35.963l-0.30265 31.25h58.053 58.053v-29.962zm-45-85.699c10.364-4.5972 18.092-14.57 19.759-25.5 4.9305-32.324-34.128-52.31-57.18-29.259-13.341 13.341-13.405 34.453-0.14392 47.691 10.225 10.208 24.452 12.885 37.565 7.0682zm123 88.965c-5.2758-1.9844-6.9099-9.2648-2.895-12.898 2.0315-1.8385 4.785-1.905 78.895-1.905s76.863 0.0665 78.895 1.905c2.8617 2.5898 2.862 8.5998 0.00044 11.19-2.0266 1.8345-4.9048 1.9118-77.75 2.0887-41.605 0.10104-76.32-0.0702-77.145-0.38049zm-1.5-36.498c-2.8542-1.6185-3.4674-2.8327-3.4847-6.9001-0.0314-7.362-5.3797-6.905 80.813-6.905 75.838 0 77.206 0.0346 79.171 2 2.9777 2.9777 2.6667 8.3304-0.63486 10.927-2.6136 2.0559-3.2434 2.0724-78.25 2.0422-54.479-0.0219-76.174-0.34743-77.615-1.1645zm-24.029-45.022c-2.5424-3.0215-2.6715-3.6451-2.1213-10.25 0.32222-3.868 0.88389-11.826 1.2482-17.685l0.66231-10.652-10.027-0.34776c-8.1361-0.28218-10.424-0.70707-12.13-2.2528l-2.1026-1.905 0.0153-77.595c0.008-42.677 0.34592-78.09 0.75-78.695 2.2412-3.3564 3.9624-3.3997 135.21-3.3997h130.11l2.4545 2.4546 2.4546 2.4545v75.98c0 44.338-0.3868 76.997-0.9286 78.423-0.5383 1.4157-2.2825 2.9143-4.1493 3.5651-2.2798 0.79476-27.023 1.1227-84.705 1.1227h-81.484l-34.041 21c-18.722 11.55-35.047 21-36.278 21-1.2918 0-3.3813-1.3596-4.9444-3.2172zm41.304-35.702c14.307-8.7556 27.387-16.631 29.069-17.5 2.711-1.4019 12.001-1.5808 82.114-1.5808h79.057l-0.2571-66.25-0.2571-66.25-120.25-0.25403-120.25-0.25403v66.41 66.41l9.9742 0.3437c8.8004 0.30326 10.242 0.61241 12.25 2.6268 2.1337 2.1405 2.2593 2.9834 2.0119 13.5-0.14514 6.1693-0.52219 12.904-0.8379 14.967-0.32901 2.1494-0.16021 3.75 0.39548 3.75 0.53323 0 12.675-7.1636 26.981-15.919zm-6.775-65.675c-15.285-6.6206-18.087-28.811-4.8488-38.4 9.5418-6.912 22.013-5.8109 30.046 2.653 10.837 11.418 5.8261 30.533-9.512 36.286-3.998 1.4996-11.581 1.2393-15.685-0.53841zm13.06-16.34c4.6633-3.7761 1.7606-12.156-4.2109-12.156-6.4058 0-9.2239 7.9836-4.2102 11.927 3.2521 2.5581 5.4697 2.6182 8.421 0.22841zm52.824 15.05c-12.52-6.5408-15.813-23.379-6.6184-33.85 5.6951-6.4864 13.863-9.2446 21.764-7.3492 10.63 2.5502 17.316 11.015 17.299 21.904-0.0251 16.856-17.37 27.171-32.445 19.296zm14.486-15.278c5.0499-3.9723 2.187-11.927-4.2926-11.927-6.285 0-8.8652 8.0648-3.9191 12.25 2.7168 2.2989 4.9928 2.2094 8.2117-0.32258zm55.135 16.173c-11.223-5.2071-16.337-18.245-11.416-29.1 4.0758-8.9902 10.733-13.34 20.416-13.34 9.6832 0 16.34 4.3497 20.416 13.34 6.4753 14.283-4.5208 30.956-20.416 30.956-2.7671 0-6.7863-0.82882-9-1.8559zm13.5-16.1c2.8024-2.8024 2.6829-8.4082-0.22251-10.443-4.871-3.4118-10.777-0.67158-10.777 5 0 4.1094 2.9114 7.4433 6.5 7.4433 1.375 0 3.4-0.9 4.5-2z"/>
	</g>
</svg>
