<svg xmlns:rdf="http://www.w3.org/1999/02/22-rdf-syntax-ns#" xmlns="http://www.w3.org/2000/svg" height="512" width="512" version="1.1" xmlns:cc="http://creativecommons.org/ns#" xmlns:dc="http://purl.org/dc/elements/1.1/" viewBox="0 0 512.00001 512.00001">
	<g transform="translate(0 -540.36)">
		<path d="m18.56 997.66c10.208-30.117 20.37-60.096 22.581-66.618l4.02-11.86-8.599-17.18c-16.69-33.35-24.322-61.33-26.61-97.55-2.7271-43.17 5.827-85.67 25.036-124.39 13.522-27.255 28.51-47.712 50.654-69.134 20.648-19.974 38.926-32.858 63.93-45.063 24.307-11.865 47.179-19.031 74.105-23.218 18.691-2.9065 54.208-3.1383 71.602-0.46725 28.749 4.4146 52.002 11.587 76.609 23.629 76.589 37.481 127.03 107.72 138.83 193.33 1.6855 12.225 1.712 48.818 0.0439 60.586-7.6149 53.721-29.013 100.03-63.409 137.24-28.202 30.505-61.527 52.972-99.292 66.943-31.261 11.565-70.039 17.099-102.86 14.679-36.826-2.7159-66.66-10.673-96.744-25.802l-9.1191-4.586-65.487 20.824c-36.004 11.5-67.356 21.4-69.658 22.1l-4.186 1.3 18.56-54.74zm275.7-0.65893c68.572-11.623 125.89-53.909 156.73-115.63 35.131-70.307 26.628-155.52-21.822-218.69-14.824-19.328-37.954-39.963-58.785-52.443-46.224-27.693-99.156-36.833-152.06-26.258-72.868 14.567-135.36 69.868-158.47 140.23-19.713 60.033-11.226 125.56 23.128 178.57l6.4542 9.9592-13.168 38.956c-10.11 29.909-12.779 38.848-11.496 38.49 0.91963-0.25614 19.174-6.0304 40.565-12.832l38.893-12.366 3.1665 1.8514c30.835 18.029 55.431 26.779 87.787 31.231 12.498 1.7197 46.192 1.1047 59.07-1.0782zm22.546-91.124c-15.852-3.4673-50.788-16.325-65.28-24.026-29.306-15.572-56.989-41.124-82.186-75.86-11.641-16.048-15.394-21.921-20.193-31.603-16.087-32.451-14.128-62.243 5.6243-85.508 9.4859-11.173 13.166-12.858 28.091-12.858 12.216 0 14.083 0.74152 17.183 6.8258 4.9483 9.711 22.125 52.368 22.105 54.898-0.0362 4.7174-3.2815 10.339-11.871 20.564-9.5231 11.336-9.8101 12.684-4.5576 21.419 11.833 19.678 30.641 39.441 49.571 52.09 11.539 7.7098 31.88 17.573 37.563 18.214 3.7222 0.41955 4.4645 0.0992 7.8906-3.4047 2.08-2.1273 7.862-8.9784 12.849-15.225 4.9869-6.2462 10.1-11.75 11.363-12.23 1.4706-0.55914 3.8381-0.39793 6.5859 0.44845 9.6743 2.9798 53.42 24.2 55.8 27.068 1.9 2.2893 0.826 17.289-1.8415 25.72-3.577 11.306-12.298 19.963-27.637 27.434-13.977 6.8077-28.061 8.8776-41.058 6.0346z"/>
	</g>
</svg>
