<svg xmlns:rdf="http://www.w3.org/1999/02/22-rdf-syntax-ns#" xmlns="http://www.w3.org/2000/svg" height="512" width="512" version="1.1" xmlns:cc="http://creativecommons.org/ns#" xmlns:dc="http://purl.org/dc/elements/1.1/" viewBox="0 0 512.00001 512.00001">
	<g transform="translate(0 -540.36)">
		<path d="m46.113 1012.8c-5.6406-1.2063-10.433-2.9317-15.406-5.5468-17.063-8.973-28.124-25.404-30.107-44.725-0.80059-7.8014-0.80059-324.73 0-332.53 2.4132-23.516 18.047-42.164 41.347-49.32l4.9977-1.5348h208.51c203.3 0 208.62 0.0267 212.68 1.0589 23.703 6.027 40.794 25.462 43.298 49.236 0.75371 7.1562 0.75371 326.49 0 333.65-2.2907 21.75-17.325 40.599-38.022 47.669-9.1036 3.1096 6.2578 2.9079-217.79 2.8599-173.56-0.037-206.47-0.1654-209.51-0.816zm413.07-42.207c3.6549-1.0854 7.0511-4.0885 8.7564-7.7428l1.2957-2.7765 0.006-108.98 0.006-108.98h-213.23-213.23v108.54c0 107.14 0.0143 108.58 1.1092 111.5 0.99254 2.6528 2.7209 4.7833 5.7241 7.056 2.9202 2.21-1.682 2.161 206.44 2.1999 179.66 0.034 200.52-0.051 203.13-0.8268zm-232.6-25.453c-8.2368-2.3612-14.181-8.9985-15.47-17.274-1.4154-9.0867 3.5705-18.488 11.804-22.257 4.1237-1.8879 7.7932-2.4547 15.82-2.4437 11.478 0.016 16.852 1.7598 21.818 7.0809 9.9546 10.666 6.6673 27.318-6.6371 33.621l-3.7342 1.769-10.551 0.1101c-7.258 0.076-11.33-0.1134-13.049-0.6061zm87.596 0.1707c-10.463-2.466-17.964-13.698-16-23.958 1.7277-9.0238 7.9727-15.533 16.696-17.404 4.2151-0.9038 16.31-1.0412 20.568-0.2337 9.3421 1.7717 16.064 8.5424 17.775 17.904 1.8728 10.247-5.1548 20.681-15.854 23.539-3.1654 0.8455-19.781 0.9544-23.186 0.1519zm86.003-0.2847c-5.1015-1.6066-8.9245-4.4879-11.751-8.8563-5.5851-8.6334-4.4285-19.359 2.8627-26.548 5.3619-5.2862 10.967-6.7603 24.088-6.3346 6.558 0.2128 8.6463 0.4901 11.247 1.4934 11.719 4.5205 17.104 17.94 11.647 29.024-2.2629 4.5962-6.6468 8.7545-11.094 10.524-2.8718 1.1423-4.2466 1.2834-13.742 1.41-8.2484 0.1099-11.141-0.046-13.258-0.712zm-309.48-105.75c-7.4563-2.6668-12.448-8.5153-14.102-16.523-1.7985-8.7075 3.165-18.32 11.606-22.476l3.6998-1.8217 35.829-0.16109c26.285-0.11817 36.494 0.0139 38.328 0.4966 6.6753 1.7569 12.719 7.5956 14.733 14.232 1.0207 3.3639 1.0302 9.1164 0.0204 12.443-1.6914 5.573-5.8045 10.222-11.422 12.909l-3.6094 1.7268-36.094 0.1043c-33.966 0.098-36.265 0.043-38.989-0.9309zm378.55-173.4-0.006-33.457-1.2957-2.7765c-1.5288-3.2762-4.9066-6.5033-7.922-7.5683-1.81-0.63932-34.507-0.76115-204.28-0.76115-185.39 0-202.29 0.0747-204.11 0.9023-3.1037 1.4116-6.1243 4.3859-7.5387 7.4231l-1.2948 2.7805-0.006 33.457-0.006 33.457h213.23 213.23l-0.006-33.457z"/>
	</g>
</svg>
