<svg xmlns:rdf="http://www.w3.org/1999/02/22-rdf-syntax-ns#" xmlns="http://www.w3.org/2000/svg" height="512" width="512" version="1.1" xmlns:cc="http://creativecommons.org/ns#" xmlns:dc="http://purl.org/dc/elements/1.1/" viewBox="0 0 512.00001 512.00001">
	<g transform="translate(0 -540.36)">
		<path d="m102.5 1051.7c-17.064-2.421-33.935-11.697-44.615-24.53-5.1805-6.225-8.7405-12.538-12.261-21.743-2.0811-5.4414-2.1165-6.779-2.4063-91.023-0.3228-93.84-0.3751-92.866 5.6655-105.54 8.6251-18.102 26.657-32.399 46.83-37.13 7.361-1.7265 16.127-1.8264 160.29-1.8264s152.93 0.0999 160.29 1.8264c20.173 4.7316 38.205 19.029 46.83 37.13 6.0406 12.677 5.9883 11.703 5.6655 105.54-0.28979 84.243-0.32515 85.581-2.4063 91.023-8.7457 22.866-24.465 37.487-47.985 44.631-5.5417 1.6832-15.006 1.7978-159.39 1.9291-84.425 0.077-154.85-0.052-156.5-0.286zm84.947-48.371c8.2465-1.5244 16.292-5.6132 21.762-11.06l4.7095-4.689 0.29048 7.6619 0.29048 7.6619 11.75 0.2817 11.75 0.2817v-68.032-68.032h-14.5-14.5v53.1 53.1l-3.4 3.4c-4.7428 4.7428-9.7742 4.8027-12.611 0.15-1.9098-3.1323-1.9817-5.1788-1.9853-56.5l-0.004-53.25h-15-15l0.008 53.25c0.005 29.355 0.46208 57.212 1.0197 62.078 1.54 13.442 4.9167 18.513 13.706 20.583 5.186 1.2218 5.1772 1.2218 11.714 0.013zm217.64-2.2854c7.5049-3.5664 12.27-7.7758 15.813-13.968 4.986-8.7146 7.4557-22.004 5.4678-29.421-0.57847-2.1586-1.0452-2.25-11.486-2.25h-10.883v8.5989c0 14.139-3.5811 18.776-14.5 18.776-7.03 0-10.556-1.8662-12.914-6.8342-1.26-2.64-1.59-6.9-1.59-20.44v-17.099h25.5 25.5l-0.0258-19.75c-0.0539-41.295-2.4538-48.555-18.474-55.888-5.2627-2.4088-7.1674-2.7368-15.5-2.6693-14.823 0.12-24.566 4.3505-31.791 13.804-7.9009 10.338-9.5209 21.845-8.9677 63.696 0.35078 26.537 0.68546 32.145 2.1966 36.807 4.8369 14.923 13.56 24.162 27.062 28.663 6.2088 2.0699 18.02 1.098 24.589-2.0233zm-29.085-96.39c0.004-11.265 1.4795-14.828 7.2793-17.58 7.074-3.3568 14.654-1.1013 18.722 5.5709 1.6038 2.6304 1.9878 5.0437 1.9909 12.509l0.004 9.25h-14-14l0.004-9.75zm-244.25 19 0.25602-79.25h17.494 17.494v-12-12h-47.5-47.5v11.5 11.5h15 15v80.027 80.027l14.75-0.2767 14.75-0.2767 0.25602-79.25zm186.19 78.276c4.6317-2.3952 9.8186-9.3368 12.265-16.415 2.257-6.5291 2.2854-7.2086 2.2854-54.611v-48l-2.3633-5.227c-4.583-10.137-14.273-16.22-23.499-14.753-4.7122 0.74955-13.325 4.4093-17.688 7.5154l-2.94 2.1v-26.068-26.068h-15-15v90.531 90.531l12.23-0.2807 12.23-0.2808 1.02-5.2762 1.02-5.2762 5.5 4.1664c8.2826 6.2744 14.499 8.8648 21.3 8.8762 3.1898 0 7.0822-0.6534 8.6496-1.464zm-27.037-23.806c-5.9506-4.0101-5.8822-3.4506-5.8911-48.22-0.008-38.857 0.0929-41.153 1.925-43.933 1.0632-1.6129 2.9728-3.5095 4.2434-4.2146 3.15-1.748 10.287-1.6748 13.799 0.14143 6.1726 3.192 6.011 1.8944 6.011 48.263 0 38.182-0.16637 42.567-1.7044 44.914-3.5325 5.3913-12.66 6.905-18.383 3.0484zm-144.9-291.59v-53.85l-17.59-41.4c-9.6722-22.765-18.441-43.529-19.485-46.142l-1.8995-4.75h16.768 16.768l9.3826 32.75c5.1604 18.012 9.684 33.349 10.053 34.082 0.52372 1.0411 9.5428-28.841 19.19-63.582l0.90253-3.25h17.06c13.253 0 16.946 0.27895 16.551 1.25-0.28002 0.6875-8.6532 21.71-18.607 46.717l-18.08 45.47v53.283 53.283h-15.5-15.5v-53.858zm88.536 51.793c-3.2801-1.1568-7.2711-3.0342-8.8689-4.1719-4.0791-2.9046-8.3686-10.053-10.959-18.263-2.1282-6.7456-2.2084-8.4899-2.2084-48 0-43.883 0.36307-47.992 5.1394-58.165 3.1529-6.7148 9.4797-12.995 16.361-16.241 4.842-2.284 6.7562-2.5922 16-2.5762 9.6431 0.0166 11.038 0.27137 17.089 3.1219 10.943 5.1552 16.848 12.755 20.686 26.625 1.4963 5.407 1.7198 11.213 1.6834 43.735-0.0458 40.925-0.44696 44.977-5.549 56.046-3.6497 7.9181-9.4608 13.979-16.409 17.114-7.377 3.3286-24.576 3.7328-32.964 0.77457zm24.562-24.529c1.6205-1.5525 3.412-4.4164 3.9812-6.3643 0.66174-2.2646 0.92411-18.208 0.72768-44.219-0.29656-39.27-0.37864-40.776-2.3717-43.5-1.1355-1.5521-3.767-3.6676-5.8477-4.7011-4.76-2.3642-9.7405-1.1582-14.129 3.4215l-2.9585 3.0871-0.28084 42.925c-0.3108 47.505-0.37186 46.993 6.0794 51.044 4.4859 2.8172 10.852 2.0889 14.8-1.6932zm62.4 23.03c-4.6628-2.4251-7.14-5.1858-9.6692-10.776l-2.3308-5.1516-0.28568-62.779-0.28567-62.779 13.286 0.27928 13.286 0.27927 0.5 57.146c0.47556 54.352 0.59286 57.248 2.3999 59.244 2.8023 3.0956 8.1733 4.3153 11.986 2.7217 6.4131-2.6808 6.0664 0.56944 6.6145-62.015l0.5-57.097 12.75-0.27988 12.75-0.27987v70.53 70.53h-16.332-16.332l0.47172-5.75 0.47171-5.75-3.4316 4.4886c-5.4235 7.0939-8.991 9.0125-16.745 9.0052-4.0222-0.004-7.7744-0.61587-9.6021-1.5664z"/>
	</g>
</svg>
