<svg xmlns="http://www.w3.org/2000/svg" width="56" height="55" viewBox="0 0 56 55"><g transform="translate(0.003 -543.384)"><path d="M24.343,598.238c-.181-.078-3.456-1.3-7.279-2.714l-6.95-2.573H0V591.1H10.265l7.505,2.773,7.505,2.773h4.142l7.475-6.484c4.111-3.566,7.6-6.6,7.746-6.742l.271-.258-.927-.926a4.192,4.192,0,0,0-1.053-.878c-.111.042-1.422.993-6,4.354-.662.486-2.009,1.469-2.993,2.184L30.759,590.2a4.92,4.92,0,0,1-1.7,1.006,13.8,13.8,0,0,1-2.243-.882l-5.157-2.354c-1.775-.81-3.339-1.571-3.474-1.693a.883.883,0,0,1,.652-1.485c.2,0,1.412.118,2.7.259l2.336.256,1.548-.2c.851-.11,1.61-.2,1.685-.2.1,0,.137-.318.137-1.2v-1.2l-2.325-.007a49.286,49.286,0,0,1-5.717-.361l-3.392-.354-2.7,1.177-2.7,1.177H0V582.4H9.883l2.834-1.2,2.834-1.2,3.794.386a51.167,51.167,0,0,0,6.267.386,17.194,17.194,0,0,1,2.829.123c.576.2.661.56.661,2.793,0,2.041-.074,2.488-.453,2.723a13.66,13.66,0,0,1-2.269.36c-1.121.12-2.109.24-2.2.267a26.842,26.842,0,0,0,4.014,2l.684.31,3.474-2.55c10.787-7.916,10.3-7.572,10.727-7.584.343-.01.522.139,2.168,1.791,2.327,2.335,2.316,2.254.514,3.813-.59.51-2.5,2.17-4.246,3.687-6.455,5.611-10.84,9.4-11.147,9.639s-.386.243-3.009.238a13.727,13.727,0,0,1-3.022-.146Zm-3.884-29.376a9.293,9.293,0,0,1-7.114-6.42,10.7,10.7,0,0,1-.123-4.641,9.231,9.231,0,0,1,6.784-6.838l.907-.228,5.052-3.653c2.779-2.009,5.181-3.673,5.339-3.7.351-.055,15.639,3.492,16.192,3.756.217.1,2.218,1.6,4.447,3.324L56,553.6l-.508.69a4.18,4.18,0,0,1-.583.7c-.041,0-1.887-1.4-4.1-3.113l-4.029-3.121-7.55-1.768-7.55-1.768-.438.286c-.241.157-.979.684-1.641,1.17s-1.942,1.415-2.845,2.063-1.909,1.376-2.236,1.617c-.672.5-.714.436.592.837a8.812,8.812,0,0,1,1.036.376c.254.132.47.044,3.093-1.26a29.391,29.391,0,0,1,3.066-1.4,24.881,24.881,0,0,1,2.619.941l2.373.941-.223.554c-.123.3-.27.685-.328.846l-.105.292-.512-.219c-.281-.121-1.236-.51-2.122-.865l-1.61-.646-2.083,1.036a18.966,18.966,0,0,0-2.083,1.122,2.745,2.745,0,0,0,.5.57,10.567,10.567,0,0,1,.994,1.165,2.443,2.443,0,0,0,.619.68c.07,0,.9-.153,1.839-.34l1.712-.34,2.61.575,2.61.575,2.334-.244c1.284-.134,2.354-.225,2.377-.2a7.116,7.116,0,0,1,.21,1.7c-.033.033-1.179.192-2.546.354l-2.485.293-2.585-.576-2.585-.576-1.773.36c-.975.2-1.792.379-1.816.4a13.453,13.453,0,0,0-.117,1.423l-.074,1.38H32.2c1.642,0,3.256.1,6.883.436,2.606.24,4.861.486,5.012.546a34.339,34.339,0,0,1,2.725,2.663l2.451,2.553h6.212l-.032.9-.032.9H48.572L47.4,566.9c-.647-.658-1.821-1.869-2.609-2.691l-1.432-1.495-4.783-.435c-2.631-.239-5.36-.435-6.064-.435h-1.28l-.294.9a9.63,9.63,0,0,1-4.018,4.979,9.523,9.523,0,0,1-6.456,1.137Zm3.994-2a7.413,7.413,0,0,0,4.6-4.312l.265-.7h-.267a1.09,1.09,0,0,1-.57-.259c-.277-.237-.3-.319-.286-.952.026-1.024.252-4.258.308-4.425.137-.4-1.563-2.144-2.709-2.775a7.423,7.423,0,0,0-10.2,3.1,7.033,7.033,0,0,0-.785,3.818,7.441,7.441,0,0,0,5.454,6.606,9.318,9.318,0,0,0,4.189-.1Zm-3.392-2.516a3.19,3.19,0,0,1-2.447-1.994c-.215-.85-.234-.83.792-.83h.916l.065.322c.1.493.727.765,1.767.765a2.165,2.165,0,0,0,1.748-.536c.2-.219.2-.265.053-.532-.236-.424-.772-.634-2.117-.829a3.773,3.773,0,0,1-2.456-.941c-1.472-1.492-.846-3.628,1.255-4.285l.588-.184v-.958h1.86v.963l.581.168a2.808,2.808,0,0,1,2.13,2.243l.052.541h-.889c-.788,0-.889-.023-.889-.2,0-.211-.337-.565-.731-.767a4.37,4.37,0,0,0-1.215-.122c-.834,0-1.03.036-1.348.248a.806.806,0,0,0-.407.553c-.071.607.335.8,2.333,1.11a3.377,3.377,0,0,1,2.39,1.02,2.255,2.255,0,0,1,.224,3.129c-.731.953-2.615,1.446-4.256,1.114Z" fill="#fff"/></g></svg>