<svg xmlns="http://www.w3.org/2000/svg" width="44" height="55" viewBox="0 0 44 55"><g transform="translate(-51.023 -540.362)"><path d="M51.068,595.335c-.025-.032-.045-11.769-.045-26.1V543.191h3.8a24.832,24.832,0,0,0,3.83-.084c.015-.046.154-.683.31-1.414l.283-1.33H86.812l.035.151c.019.083.141.651.27,1.263s.251,1.179.27,1.263l.035.152h7.6l-.017,26.076-.017,26.076-21.938.017c-12.066.009-21.959,0-21.983-.028Zm41.6-26.048V545.551H90.313a14.6,14.6,0,0,0-2.355.07c0,.077.993,4.738,1.05,4.93.033.112-.759.118-15.986.118s-16.02-.006-15.985-.118c.067-.217,1.049-4.809,1.049-4.9,0-.08-.375-.095-2.355-.095H53.378v47.473H92.67V569.287Zm-34.85,9.7V573.63h10.09v10.707H57.818Zm7.737,0V575.92H60.173v6.128h5.382Zm6.661,0v-1.178h14.8v2.357h-14.8Zm-14.4-15.656V557.94h10.09l-.016,5.37-.016,5.37-5.029.017-5.029.017v-5.387Zm7.737,0V560.3H60.173v6.06h5.382Zm6.661-.034v-1.178h14.8v2.357h-14.8Zm13.99-15.069c0-.046-.282-1.3-.623-2.778l-.62-2.694-11.92-.017c-11.309-.016-11.922-.011-11.957.1-.055.178-1.117,5.311-1.117,5.4,0,.054,3.6.074,13.119.074,10.452,0,13.119-.017,13.117-.084Z" transform="translate(0)" fill="#fff"/></g></svg>