<svg xmlns="http://www.w3.org/2000/svg" width="46" height="55" viewBox="0 0 46 55"><g transform="translate(-56.088 -540.363)"><path d="M78.412,595.185c-.413-.235-9.473-6.233-10.28-6.805a28.421,28.421,0,0,1-11.707-18.593c-.283-1.781-.363-4.184-.332-9.967.03-5.61.034-5.7.24-5.968.251-.322,21.925-13.271,22.477-13.429a.985.985,0,0,1,.75.032c.207.077,5.3,3.075,11.313,6.662,8.279,4.937,10.973,6.588,11.087,6.793.131.236.145,1.207.112,7.482s-.061,7.342-.213,8.238A27.532,27.532,0,0,1,99,578.225a28.946,28.946,0,0,1-8.955,10.192c-.695.492-9.126,6.09-10.121,6.72a1.5,1.5,0,0,1-1.512.044Zm5.079-5.4c2.284-1.513,4.595-3.067,5.136-3.453a25.97,25.97,0,0,0,10.2-15.014c.63-2.77.685-3.653.649-10.4l-.031-5.734-10.155-6.054c-9.53-5.681-10.169-6.045-10.372-5.923-.511.309-18.092,10.782-19.044,11.345l-1.051.621v6.44c0,7.064.014,7.268.645,9.849a26.073,26.073,0,0,0,9.815,14.623c1.442,1.074,9.835,6.572,9.941,6.512.06-.034,1.977-1.3,4.261-2.812Zm-7.269-16.1a23.362,23.362,0,0,1-3.2-2.847c-1.588-1.519-2.965-2.895-3.062-3.058a1.139,1.139,0,0,1,.387-1.552,1.529,1.529,0,0,1,1.439-.031c.138.09,1.284,1.142,2.548,2.338a28.338,28.338,0,0,0,2.41,2.148c.061-.014,2.224-1.892,4.806-4.172s4.829-4.224,4.994-4.32c1.069-.622,2.391.534,1.811,1.582-.077.139-1.552,1.5-3.277,3.016s-4.149,3.657-5.388,4.749c-2.057,1.816-2.661,2.263-3.023,2.239a3.3,3.3,0,0,1-.444-.094Z" transform="translate(0)" fill="#fff"/></g></svg>