<svg xmlns="http://www.w3.org/2000/svg" width="60" height="55" viewBox="0 0 60 55"><path d="M.565,627.827c-.536-.306-.615-.731-.543-2.942a11.181,11.181,0,0,1,8.532-11.172,11.4,11.4,0,0,1,5.026.13,11.7,11.7,0,0,1,4.241,2.215l.946.787.98-1.1a18.555,18.555,0,0,1,1.666-1.651,14.616,14.616,0,0,1,5.747-2.81,15.28,15.28,0,0,1,5.672,0,14.381,14.381,0,0,1,7.953,5.062l.407.522.962-.8a10.685,10.685,0,0,1,13.689-.2,11.549,11.549,0,0,1,3.815,6.017,18.4,18.4,0,0,1,.226,5.379c-.315.8,2.043.742-29.911.736-24.9,0-29.143-.03-29.407-.18Zm15.482-3.057a16.32,16.32,0,0,1,1.278-5.314l.3-.708-.665-.623a9.466,9.466,0,0,0-3.32-2,5.754,5.754,0,0,0-2.824-.4,6.078,6.078,0,0,0-2.648.345A9.017,9.017,0,0,0,3.113,620.4a7.873,7.873,0,0,0-.973,3.873l-.063,1.515H15.964l.083-1.02Zm25.834.418a12.875,12.875,0,0,0-.173-1.638A12.093,12.093,0,0,0,30,613.179a12.093,12.093,0,0,0-11.712,10.371,12.876,12.876,0,0,0-.173,1.638v.6H41.88v-.6Zm15.971-.913a7.873,7.873,0,0,0-.973-3.873,9.017,9.017,0,0,0-5.056-4.331,6.079,6.079,0,0,0-2.648-.345,5.756,5.756,0,0,0-2.824.4,9.343,9.343,0,0,0-3.317,1.993l-.669.631.3.708a16.319,16.319,0,0,1,1.278,5.314l.083,1.02H57.916l-.063-1.515ZM9.8,613.055a7.145,7.145,0,0,1-5.766-5.816,7.359,7.359,0,0,1,4.779-8.289,6.882,6.882,0,0,1,8.632,4.961,7.355,7.355,0,0,1-3.5,8.4,6.282,6.282,0,0,1-4.149.741Zm3.029-2.576a5.16,5.16,0,0,0,2.592-6.037,4.725,4.725,0,0,0-8.5-1.527,5.187,5.187,0,0,0,2.433,7.8,4.789,4.789,0,0,0,3.477-.235Zm35.331,2.576A7.145,7.145,0,0,1,42.4,607.24a7.359,7.359,0,0,1,4.779-8.289,6.882,6.882,0,0,1,8.632,4.961,7.355,7.355,0,0,1-3.5,8.4,6.282,6.282,0,0,1-4.149.741Zm3.029-2.576a5.16,5.16,0,0,0,2.591-6.038,4.725,4.725,0,0,0-8.5-1.527,5.187,5.187,0,0,0,2.433,7.8,4.789,4.789,0,0,0,3.477-.235Zm-22.884.038a9.627,9.627,0,0,1-7.325-7.291,12.529,12.529,0,0,1-.008-4.574,10.533,10.533,0,0,1,3.168-5.259,10.994,10.994,0,0,1,3.674-1.93,10.929,10.929,0,0,1,4.354.005,11.382,11.382,0,0,1,3.675,1.929,10.619,10.619,0,0,1,3.167,5.255,13.071,13.071,0,0,1,0,4.552,9.66,9.66,0,0,1-5.2,6.586,9.183,9.183,0,0,1-5.511.727Zm3.334-2.229a7.477,7.477,0,0,0,5.347-5.618,7.906,7.906,0,0,0-1.059-5.944A7.428,7.428,0,0,0,32,593.691a8.823,8.823,0,0,0-3.955-.024,7.514,7.514,0,0,0-4.967,5.231,10.157,10.157,0,0,0,.023,4.142,7.4,7.4,0,0,0,5.309,5.254,7.917,7.917,0,0,0,3.236-.006ZM10.248,593.234a1.09,1.09,0,0,1-.256-.711c0-.378-.059-.458-.537-.724-.983-.548-1.25-1.234-.7-1.808a.767.767,0,0,1,1.152-.059c.514.425.879.515,1.314.324a1.225,1.225,0,0,0-.469-2.36,2.8,2.8,0,0,1-1.8-.76,3.1,3.1,0,0,1,.465-4.965c.528-.306.578-.373.579-.789a.786.786,0,0,1,.312-.711.665.665,0,0,1,1.027,0,.8.8,0,0,1,.31.748c0,.438.042.511.382.661.527.233,1.147.9,1.147,1.238a1.006,1.006,0,0,1-.8.929,1.655,1.655,0,0,1-.75-.309,1.154,1.154,0,0,0-1.844.394,1.1,1.1,0,0,0,.192,1.279c.266.312.457.4,1.076.49a3,3,0,0,1,2.617,2.51,3.122,3.122,0,0,1-1.548,3.256c-.421.2-.468.261-.468.666,0,.858-.863,1.292-1.391.7Zm38.36,0a1.09,1.09,0,0,1-.256-.711c0-.378-.059-.458-.537-.724-.983-.548-1.25-1.234-.7-1.808a.767.767,0,0,1,1.152-.059c.514.425.879.515,1.314.324a1.225,1.225,0,0,0-.469-2.36,2.8,2.8,0,0,1-1.8-.76,3.1,3.1,0,0,1,.465-4.965c.528-.306.578-.373.579-.789a.786.786,0,0,1,.312-.711.665.665,0,0,1,1.027,0,.8.8,0,0,1,.31.748c0,.438.042.511.382.661.527.233,1.147.9,1.147,1.238a1.006,1.006,0,0,1-.8.929,1.655,1.655,0,0,1-.75-.309,1.154,1.154,0,0,0-1.844.394,1.1,1.1,0,0,0,.192,1.279c.266.312.457.4,1.076.49a3,3,0,0,1,2.617,2.51,3.122,3.122,0,0,1-1.548,3.256c-.421.2-.468.261-.468.666,0,.858-.863,1.292-1.391.7Zm-19.18-7.418a1.09,1.09,0,0,1-.256-.711c0-.378-.059-.458-.537-.724-.983-.548-1.25-1.234-.7-1.808a.767.767,0,0,1,1.152-.059c.514.425.879.515,1.314.324a1.225,1.225,0,0,0-.469-2.36,2.8,2.8,0,0,1-1.8-.76,3.1,3.1,0,0,1,.465-4.965c.528-.306.578-.373.579-.789a.786.786,0,0,1,.312-.711.665.665,0,0,1,1.027,0,.8.8,0,0,1,.31.748c0,.438.042.51.382.661.527.233,1.147.9,1.147,1.238a1.006,1.006,0,0,1-.8.929,1.655,1.655,0,0,1-.75-.309,1.154,1.154,0,0,0-1.844.394,1.1,1.1,0,0,0,.192,1.279c.266.312.457.4,1.076.49a3,3,0,0,1,2.617,2.51,3.122,3.122,0,0,1-1.548,3.256c-.421.2-.468.261-.468.666,0,.858-.863,1.292-1.391.7Z" transform="translate(0 -573.01)" fill="#fff"/></svg>