<?xml version="1.0" standalone="no"?>
<!DOCTYPE svg PUBLIC "-//W3C//DTD SVG 20010904//EN"
 "http://www.w3.org/TR/2001/REC-SVG-20010904/DTD/svg10.dtd">
<svg version="1.0" xmlns="http://www.w3.org/2000/svg"
 width="282.000000pt" height="282.000000pt" viewBox="0 0 282.000000 282.000000"
 preserveAspectRatio="xMidYMid meet">
<metadata>
Created by potrace 1.14, written by Peter Selinger 2001-2017
</metadata>
<g transform="translate(0.000000,282.000000) scale(0.100000,-0.100000)"
fill="#000000" stroke="none">
<path d="M1198 2815 c-2 -1 -43 -6 -91 -10 -48 -3 -96 -8 -106 -10 -10 -2 -42
-6 -72 -10 -66 -8 -337 -62 -350 -70 -5 -4 -21 -9 -36 -11 -86 -16 -367 -146
-390 -180 -12 -19 -13 -63 -9 -266 3 -134 7 -252 9 -263 3 -11 8 -47 11 -80 7
-58 20 -149 32 -210 28 -156 40 -200 85 -310 4 -11 16 -47 25 -80 21 -73 19
-66 29 -90 39 -96 55 -140 55 -151 0 -15 100 -213 145 -288 74 -121 211 -293
315 -395 76 -74 217 -192 265 -221 22 -13 42 -27 45 -30 5 -7 97 -62 165 -100
70 -40 84 -40 155 -5 96 48 263 161 365 247 290 244 512 571 650 957 50 138
109 360 121 451 4 33 9 58 30 160 14 67 18 148 21 378 5 340 18 299 -122 367
-198 94 -430 160 -695 195 -41 5 -95 12 -120 15 -47 7 -526 15 -532 10z"/>
</g>
</svg>
