<svg xmlns="http://www.w3.org/2000/svg" width="41.942" height="46" viewBox="0 0 41.942 46"><g transform="translate(-24.88 -2.5)"><path d="M85.45,144.674a.954.954,0,0,0,.952.952h19.591a.953.953,0,1,0,0-1.905H86.4A.954.954,0,0,0,85.45,144.674Z" transform="translate(-55.075 -128.407)"/><path d="M105.984,188.92H86.393a.953.953,0,1,0,0,1.905h19.591a.953.953,0,1,0,0-1.905Z" transform="translate(-55.065 -169.506)"/><path d="M105.984,234.12H86.393a.953.953,0,1,0,0,1.905h19.591a.953.953,0,1,0,0-1.905Z" transform="translate(-55.065 -210.605)"/><path d="M105.984,279.31H86.393a.953.953,0,0,0,0,1.905h19.591a.953.953,0,0,0,0-1.905Z" transform="translate(-55.065 -251.695)"/><path d="M324.477,355.384h0a.953.953,0,0,0-1.325-.022l-5.922,5.54-2.432-2.431a.952.952,0,0,0-1.4,1.29c.018.02.036.038.056.056l3.085,3.085a.949.949,0,0,0,1.325.022l6.594-6.17a.953.953,0,0,0,.044-1.345Z" transform="translate(-262.115 -320.613)"/><path d="M63.967,31.554a9.922,9.922,0,0,0-6.6-2.981V6.185a.953.953,0,0,0-.952-.952h-7.5V3.453a.953.953,0,0,0-.952-.953H34.29a.954.954,0,0,0-.953.953V5.234H25.832a.954.954,0,0,0-.952.952V43.431a.954.954,0,0,0,.952.953H48.786a9.967,9.967,0,0,0,18.035-5.856h0a9.93,9.93,0,0,0-2.854-6.973ZM35.241,8.138V4.4H47.005V8.138Zm-.952,1.905H47.957a.953.953,0,0,0,.952-.952V7.137h6.552V28.654a9.955,9.955,0,0,0-5.892,3.063H31.327a.953.953,0,1,0,0,1.905H48.171a9.889,9.889,0,0,0-.92,2.2H31.327a.953.953,0,1,0,0,1.905H46.91a9.853,9.853,0,0,0,.784,4.758H26.784V7.137h6.553V9.091a.953.953,0,0,0,.952.952ZM64.915,38.532a8.068,8.068,0,0,1-16.135.058v-.057a8.068,8.068,0,1,1,16.135,0Z"/></g></svg>