<svg xmlns="http://www.w3.org/2000/svg" width="50.308" height="46" viewBox="0 0 50.308 46"><g transform="translate(-4 -25.58)"><path d="M208.519,362.15a2.5,2.5,0,1,0,2.5,2.5A2.5,2.5,0,0,0,208.519,362.15Zm.378,2.5a.4.4,0,0,1-.378.383.4.4,0,0,1-.385-.383.382.382,0,0,1,.764,0Z" transform="translate(-181.845 -302.974)"/><path d="M127.092,68.9H125a1.062,1.062,0,0,0,.042,2.123h2.056a1.061,1.061,0,1,0,0-2.122Z" transform="translate(-108.003 -38.996)"/><path d="M61.831,68.887h-2a.9.9,0,0,0-.1,0,1.062,1.062,0,1,0,.054,2.123h2.042a1.061,1.061,0,1,0,0-2.122Z" transform="translate(-49.24 -38.983)"/><path d="M50.748,25.58H7.559A3.566,3.566,0,0,0,4,29.145V68.015A3.566,3.566,0,0,0,7.559,71.58H50.748a3.566,3.566,0,0,0,3.561-3.565V29.145A3.566,3.566,0,0,0,50.748,25.58ZM6.12,29.145a1.43,1.43,0,0,1,1.439-1.452H50.748a1.43,1.43,0,0,1,1.438,1.452V34.23H6.12Zm46.066,7.207V68.015a1.429,1.429,0,0,1-1.438,1.45H7.559a1.429,1.429,0,0,1-1.439-1.45V36.352Z"/><path d="M116.581,194.338h3.41l3.238,12.278a1.06,1.06,0,0,0,1.025.786h12.711a1.055,1.055,0,0,0,1.01-.743l1.186-3.771a6.373,6.373,0,1,0-8.2-7.707H122.4l-.574-2.172a1.059,1.059,0,0,0-1.024-.791h-4.33a1.061,1.061,0,0,0,.1,2.119Zm16.27,2.513a4.206,4.206,0,0,1,1.25-3.006,4.265,4.265,0,1,1,4.254,7.075,1.06,1.06,0,0,0-.5.112,4.363,4.363,0,0,1-.726.066A4.271,4.271,0,0,1,132.851,196.851Zm-9.882.453h7.786a6.372,6.372,0,0,0,6.089,5.906l-.65,2.072h-11.12Z" transform="translate(-100.363 -148.44)"/><path d="M303.586,237.138l.047.04,1.117.945a1.056,1.056,0,0,0,1.377,0l2.138-1.833a1.06,1.06,0,0,0-.736-1.878h0a1.059,1.059,0,0,0-.639.265l-1.458,1.248-.424-.357a1.06,1.06,0,1,0-1.422,1.57Z" transform="translate(-269.342 -187.986)"/><path d="M277.52,362.15a2.5,2.5,0,1,0,2.505,2.5A2.5,2.5,0,0,0,277.52,362.15Zm.385,2.5a.382.382,0,1,1-.382-.363.382.382,0,0,1,.382.363Z" transform="translate(-243.967 -302.974)"/></g></svg>