<svg xmlns="http://www.w3.org/2000/svg" width="46" height="46" viewBox="0 0 46 46"><g transform="translate(-10 -9.78)"><path d="M33,9.78a23,23,0,1,0,23,23A23.027,23.027,0,0,0,33,9.78ZM47.585,47.365a20.63,20.63,0,1,1,0-29.174,20.626,20.626,0,0,1,0,29.174Z"/><path d="M142.89,161.321l-.109-.109v-.033a1.188,1.188,0,0,0-1.56.093l-14.483,14.487a.8.8,0,0,1-1.089,0l-.008-.008-6.326-6.326a1.18,1.18,0,1,0-1.668,1.669l8.518,8.516a.048.048,0,0,0,.06,0l16.667-16.616A1.187,1.187,0,0,0,142.89,161.321Z" transform="translate(-97.268 -137.019)"/></g></svg>