<svg xmlns="http://www.w3.org/2000/svg" width="47.023" height="46" viewBox="0 0 47.023 46"><g transform="translate(-6 -11.44)"><path d="M52.33,45.161a8.926,8.926,0,0,0-1.711-2.622c-.065-.064-.124-.123-.182-.188a8.783,8.783,0,0,0-1.458-1.176,8.492,8.492,0,0,0-1.293-.687V16.495a5.057,5.057,0,0,0-5.049-5.055H11.055A5.057,5.057,0,0,0,6,16.5V26.952a.881.881,0,0,0,.882.881h7.464V54.748A2.661,2.661,0,0,0,17,57.4H43.318a8.5,8.5,0,0,0,.864.04,8.609,8.609,0,0,0,.87-.04,2.9,2.9,0,0,0,.682-.094,8.85,8.85,0,0,0,6.6-12.144ZM14.347,26.07H7.769V16.5a3.292,3.292,0,0,1,6.578-.076ZM17,55.63a.886.886,0,0,1-.893-.881V27.034a.4.4,0,0,0,.006-.082V16.5A5.019,5.019,0,0,0,14.9,13.209H42.637a3.3,3.3,0,0,1,3.286,3.286V39.936a8.6,8.6,0,0,0-1.74-.17,8.818,8.818,0,0,0-3.438.693c-.049.021-.094.047-.142.069a.681.681,0,0,0-.116-.013H20.041a.888.888,0,0,0,0,1.77H38.009c-.024.024-.05.043-.074.067a8.757,8.757,0,0,0-1.622,2.235H20.107a.882.882,0,1,0,0,1.763H35.636a8.926,8.926,0,0,0-.288,2.239V48.6a8.734,8.734,0,0,0,.147,1.622,9.166,9.166,0,0,0,.547,1.823,8.919,8.919,0,0,0,1.892,2.809,9.217,9.217,0,0,0,.888.776ZM47.686,54.9a7.218,7.218,0,0,1-3.5.911,7.336,7.336,0,0,1-1.575-.177,7.218,7.218,0,0,1-5.584-6.289.051.051,0,0,1-.007-.03A7.211,7.211,0,0,1,44.183,41.4a7.375,7.375,0,0,1,1.74.212,7.065,7.065,0,0,1,1.763.7,7.2,7.2,0,0,1,0,12.584Z" transform="translate(0)"/><path d="M147.753,277.519h22.1a.885.885,0,0,0,0-1.769h-22.1a.885.885,0,0,0,0,1.769Z" transform="translate(-127.646 -239.453)"/><path d="M147.753,189.4h22.1a.885.885,0,0,0,0-1.769h-22.1a.885.885,0,0,0,0,1.769Z" transform="translate(-127.646 -159.62)"/><path d="M147.225,101.319h22.1a.882.882,0,0,0,0-1.763h-22.1a.882.882,0,1,0,0,1.763Z" transform="translate(-127.118 -79.828)"/><path d="M386,348.769a2.548,2.548,0,0,0-1.382-.394h-.658a.374.374,0,0,0-.082-.006.861.861,0,0,1,0-1.723h.864a.772.772,0,0,1,.722.512.806.806,0,0,0,.535.506.782.782,0,0,0,.235.035.722.722,0,0,0,.271-.047.821.821,0,0,0,.5-1.046A2.411,2.411,0,0,0,386,345.371a2.294,2.294,0,0,0-.94-.335V343.99a.817.817,0,1,0-1.634,0v1.064a2.432,2.432,0,0,0-.629.205,2.5,2.5,0,0,0-1.329,1.6,2.665,2.665,0,0,0-.087.653A2.5,2.5,0,0,0,383.719,350a.9.9,0,0,0,.123.006h.776a.8.8,0,0,1,.859.782v.082a.8.8,0,0,1-.859.782h-.782a.958.958,0,0,1-.846-.517.817.817,0,1,0-1.54.547,2.535,2.535,0,0,0,1.975,1.569v.982a.817.817,0,1,0,1.634,0v-.982a2.509,2.509,0,0,0,.94-.358,2.361,2.361,0,0,0,1.111-2.022v-.082A2.361,2.361,0,0,0,386,348.769Z" transform="translate(-340.077 -300.509)"/><path d="M147.753,234.509h22.1a.885.885,0,0,0,0-1.769h-22.1a.885.885,0,0,0,0,1.769Z" transform="translate(-127.646 -200.488)"/><path d="M147.475,145.85h22.1a.885.885,0,1,0,0-1.77h-22.1a.885.885,0,0,0,0,1.77Z" transform="translate(-127.368 -120.166)"/></g></svg>