<svg xmlns="http://www.w3.org/2000/svg" width="45.932" height="46" viewBox="0 0 45.932 46"><g transform="translate(-3.869 -3.5)"><path d="M162.615,39.59a2.915,2.915,0,1,0-2.915-2.915v.011A3.016,3.016,0,0,0,162.615,39.59Zm-1.081-2.9a1.18,1.18,0,0,1,1.081-1.093,1.081,1.081,0,1,1-1.081,1.093Z" transform="translate(-141.636 -27.504)"/><path d="M48.884,23.55H38.156V11.721a.877.877,0,0,0-.916-.917H29.1A7.4,7.4,0,0,0,26.02,7.992,5.062,5.062,0,0,0,20.978,3.5a4.991,4.991,0,0,0-5.041,4.487A7.374,7.374,0,0,0,12.86,10.8H4.787a.877.877,0,0,0-.916.917V48.583a.877.877,0,0,0,.916.916h44.1a.877.877,0,0,0,.916-.916V24.467a.877.877,0,0,0-.916-.917ZM17.761,8.526V8.413a3.082,3.082,0,0,1,3.217-3.006,3.08,3.08,0,0,1,3.215,3.006v.142a.987.987,0,0,0,.539.893l.017.008A5.456,5.456,0,0,1,27.665,12.1a5.118,5.118,0,0,1,.522,2.013H13.771a5.415,5.415,0,0,1,3.438-4.661l.014-.006A.889.889,0,0,0,17.761,8.526ZM38.941,33.8l-2.152-2.386L36.78,31.4a.85.85,0,0,0-.643-.273.773.773,0,0,0-.669.3L33.333,33.8V25.384h5.608Zm-14.7-2.277h7.2v4.6a.928.928,0,0,0,.569.836l.016.005a1,1,0,0,0,.975-.267l3.077-3.4,3.07,3.4.008.008a1,1,0,0,0,.974.267.828.828,0,0,0,.586-.842v-4.6h7.259v16.15H24.238Zm0-1.834v-4.3h7.2v4.3ZM11.929,14.707v.32a.877.877,0,0,0,.916.917h16.4a.877.877,0,0,0,.916-.917q0-.158,0-.32a7.153,7.153,0,0,0-.2-2.07h6.429V23.55H23.448a.877.877,0,0,0-.917.917v23.2H5.7V12.637h6.43A7.156,7.156,0,0,0,11.929,14.707ZM47.968,25.384v4.3h-7.2v-4.3Z" transform="translate(0)"/><path d="M46.538,312.119a7.118,7.118,0,1,0,7.118,7.122,6.887,6.887,0,0,0-1.994-4.985A7.12,7.12,0,0,0,46.538,312.119Zm5.283,7.2A5.073,5.073,0,0,1,50.364,323a5.316,5.316,0,1,1,1.457-3.684Z" transform="translate(-32.312 -280.508)"/><path d="M77.645,362.046a.779.779,0,0,0-.562.281l-3.943,3.943-1.63-2.069a.918.918,0,1,0-1.466,1.1l2.277,2.894.018.021a.9.9,0,0,0,.643.342h.068a.851.851,0,0,0,.644-.273L78.38,363.6a.891.891,0,0,0,0-1.286A.95.95,0,0,0,77.645,362.046Z" transform="translate(-59.996 -325.885)"/><path d="M32.611,168.557a.919.919,0,0,0,.917.916H56.265a.916.916,0,0,0,0-1.833H33.528a.877.877,0,0,0-.917.916Z" transform="translate(-26.123 -149.188)"/><path d="M46.619,223.61H33.528a.877.877,0,0,0-.917.917.919.919,0,0,0,.917.916H46.619a.917.917,0,0,0,0-1.834Z" transform="translate(-26.122 -200.06)"/><path d="M46.34,278.835H33.249a.917.917,0,1,0,0,1.834H46.34a.877.877,0,0,0,.916-.917A.966.966,0,0,0,46.34,278.835Z" transform="translate(-25.843 -250.255)"/></g></svg>