<svg xmlns="http://www.w3.org/2000/svg" width="39.916" height="46" viewBox="0 0 39.916 46"><g transform="translate(-37.33 -4)"><path d="M77.151,13.651,72.588,4.524A.936.936,0,0,0,71.744,4H42.836a.937.937,0,0,0-.843.521l-4.564,9.127a.947.947,0,0,0-.1.421V46.014a.945.945,0,0,0,.944.943H53.941c1.33,1.46,2.4,2.5,2.7,2.785a.943.943,0,0,0,1.3,0c.3-.285,1.369-1.32,2.7-2.784H76.3a.945.945,0,0,0,.944-.943V14.07A.947.947,0,0,0,77.151,13.651ZM57.288,27.183a8.193,8.193,0,0,1,8.184,8.184c0,3.338-5.083,9.284-8.184,12.374C54.185,44.652,49.1,38.7,49.1,35.367A8.193,8.193,0,0,1,57.288,27.183Zm10.07,8.184a10.07,10.07,0,1,0-20.14,0c0,2.938,2.705,6.845,5.083,9.7H39.217V15.014H51.782V23.2a.943.943,0,0,0,.943.943h0a.938.938,0,0,0,.519-.157l4.069-2.7,4.016,2.692A.943.943,0,0,0,62.8,23.2V15.014H75.36V45.072H62.275c2.378-2.862,5.083-6.767,5.083-9.7ZM60.909,21.433l-3.063-2.057a.94.94,0,0,0-1.046,0l-3.132,2.066V15.014h7.241Zm1.741-8.306-1.207-7.24h9.711l3.622,7.24Zm-22.85,0,3.62-7.24h9.712l-1.206,7.24Zm14.038,0,1.207-7.24h4.487l1.207,7.24Z"/><path d="M220.3,307.985A4,4,0,0,0,216.316,304h0a3.986,3.986,0,1,0,3.986,3.985Zm-1.887,0a2.1,2.1,0,1,1-2.1-2.1,2.1,2.1,0,0,1,2.1,2.1Z" transform="translate(-159.028 -272.619)"/></g></svg>