<svg xmlns:inkscape="http://www.inkscape.org/namespaces/inkscape" xmlns:rdf="http://www.w3.org/1999/02/22-rdf-syntax-ns#" xmlns="http://www.w3.org/2000/svg" sodipodi:docname="icon-government and association.svg" height="512" width="506.87" version="1.1" xmlns:cc="http://creativecommons.org/ns#" xmlns:dc="http://purl.org/dc/elements/1.1/" inkscape:version="0.91 r13725" viewBox="0 0 506.86702 512.00001" xmlns:sodipodi="http://sodipodi.sourceforge.net/DTD/sodipodi-0.dtd">
	<sodipodi:namedview bordercolor="#666666" inkscape:pageshadow="2" inkscape:window-y="-8" pagecolor="#ffffff" inkscape:window-height="1017" inkscape:window-maximized="1" inkscape:zoom="0.35" inkscape:window-x="-8" showgrid="false" borderopacity="1.0" inkscape:current-layer="layer1" inkscape:cx="-126.42857" inkscape:cy="520" units="px" inkscape:window-width="1920" inkscape:pageopacity="0.0" inkscape:document-units="px"/>
	<g inkscape:label="Layer 1" inkscape:groupmode="layer" transform="translate(0 -540.36)">
		<g transform="matrix(6.416 0 0 6.416 -67.368 474.92)">
			<path inkscape:connector-curvature="0" d="m88 55.2c0.8 0 1.5-0.7 1.5-1.5v-7.7c0-0.8-0.7-1.5-1.5-1.5h-19c-1.2-9-8.6-16.1-17.8-16.6v-4.4h14.8c0.8 0 1.5-0.7 1.5-1.5v-10.3c0-0.8-0.7-1.5-1.5-1.5h-16.3c-0.8 0-1.5 0.7-1.5 1.5v10.3 5.9c-8.9 0.8-16 7.8-17.2 16.6h-19c-0.8 0-1.5 0.7-1.5 1.5v7.7c0 0.8 0.7 1.5 1.5 1.5h4.2v24.1h-4.2c-0.8 0-1.5 0.7-1.5 1.5v7.7c0 0.8 0.7 1.5 1.5 1.5h76c0.8 0 1.5-0.7 1.5-1.5v-7.7c0-0.8-0.7-1.5-1.5-1.5h-3.3v-24.1h3.3zm-36.8-42h13.3v7.3h-13.3v-7.3zm-1.2 17.6c8.1 0 14.7 5.9 16 13.7h-32c1.3-7.7 7.9-13.7 16-13.7zm-36.5 16.7h17.4 2.8 32.5 2.8 17.4v4.7h-73v-4.7zm49.3 31.8v-24.1h7.9v24.1h-7.9zm-10.9 0v-24.1h7.9v24.1h-7.9zm-10.9 0v-24.1h7.9v24.1h-7.9zm-10.9 0v-24.1h7.9v24.1h-7.9zm-10.9-24.1h7.9v24.1h-7.9v-24.1zm67.3 31.7h-73v-4.7h73v4.7zm-4.8-7.6h-7.9v-24.1h7.9v24.1z"/>
		</g>
	</g>
</svg>
