<svg xmlns:inkscape="http://www.inkscape.org/namespaces/inkscape" xmlns:rdf="http://www.w3.org/1999/02/22-rdf-syntax-ns#" xmlns="http://www.w3.org/2000/svg" sodipodi:docname="icon-industryt-ambassador.svg" height="512" width="475.43" version="1.1" xmlns:cc="http://creativecommons.org/ns#" xmlns:dc="http://purl.org/dc/elements/1.1/" inkscape:version="0.91 r13725" viewBox="0 0 475.429 512.00001" xmlns:sodipodi="http://sodipodi.sourceforge.net/DTD/sodipodi-0.dtd">
	<sodipodi:namedview bordercolor="#666666" inkscape:pageshadow="2" inkscape:window-y="-8" pagecolor="#ffffff" inkscape:window-height="1017" inkscape:window-maximized="1" inkscape:zoom="0.35" inkscape:window-x="-8" showgrid="false" borderopacity="1.0" inkscape:current-layer="layer1" inkscape:cx="-126.42857" inkscape:cy="520" units="px" inkscape:window-width="1920" inkscape:pageopacity="0.0" inkscape:document-units="px"/>
	<g inkscape:label="Layer 1" inkscape:groupmode="layer" transform="translate(0 -540.36)">
		<g transform="matrix(18.286 0 0 18.286 -18.286 -18155)">
			<path inkscape:connector-curvature="0" d="m11.5 1022.4c-3 0-5.5 2.5-5.5 5.5s2.5 5.5 5.5 5.5 5.5-2.5 5.5-5.5c0-3.1-2.5-5.5-5.5-5.5zm0 1c2.5 0 4.5 2 4.5 4.5s-2 4.5-4.5 4.5-4.5-2-4.5-4.5 2-4.5 4.5-4.5zm-3 11c-4.1 0-7.5 3.4-7.5 7.5v4.5c0 0.3 0.2 0.5 0.5 0.5h3.9 0.3 8.5c0.1-0.2 0.1-0.4 0.3-0.5-0.4 0-0.7-0.2-1-0.5h-7.5v-4c0-0.3-0.2-0.5-0.5-0.5s-0.5 0.2-0.5 0.5v4h-3v-4c0-3.6 2.9-6.5 6.5-6.5h6c1.5 0 2.9 0.5 4 1.4 0.3-0.2 0.6-0.4 0.9-0.4h0.2c-1.3-1.2-3.1-2-5.1-2h-6zm10.9 3c-0.3 0-0.5 0.2-0.5 0.5v0.9c-0.3 0.1-0.6 0.2-0.9 0.4l-0.6-0.6c-0.2-0.2-0.5-0.2-0.7 0l-1.5 1.5c-0.2 0.2-0.2 0.5 0 0.7l0.6 0.6c-0.2 0.3-0.3 0.6-0.4 0.9h-0.9c-0.3 0-0.5 0.2-0.5 0.5v2.2c0 0.3 0.2 0.5 0.5 0.5h0.9c0.1 0.3 0.2 0.6 0.4 0.9l-0.6 0.6c-0.2 0.2-0.2 0.5 0 0.7l1.5 1.5c0.2 0.2 0.5 0.2 0.7 0l0.6-0.6c0.3 0.2 0.6 0.3 0.9 0.4v0.9c0 0.3 0.2 0.5 0.5 0.5h2.2c0.3 0 0.5-0.2 0.5-0.5v-0.9c0.3-0.1 0.6-0.2 0.9-0.4l0.6 0.6c0.2 0.2 0.5 0.2 0.7 0l1.5-1.5c0.2-0.2 0.2-0.5 0-0.7l-0.6-0.6c0.2-0.3 0.3-0.6 0.4-0.9h0.9c0.3 0 0.5-0.2 0.5-0.5v-2.2c0-0.3-0.2-0.5-0.5-0.5h-0.9c-0.1-0.3-0.2-0.6-0.4-0.9l0.6-0.6c0.2-0.2 0.2-0.5 0-0.7l-1.5-1.5c-0.2-0.2-0.5-0.2-0.7 0l-0.6 0.6c-0.3-0.2-0.6-0.3-0.9-0.4v-0.9c0-0.3-0.2-0.5-0.5-0.5h-2.2zm0.5 1h1.2v0.7c0 0.2 0.2 0.4 0.4 0.5 0.5 0.1 0.9 0.3 1.4 0.6 0.2 0.1 0.5 0.1 0.6-0.1l0.5-0.5 0.8 0.8-0.5 0.5c-0.2 0.2-0.2 0.4-0.1 0.6 0.3 0.4 0.5 0.9 0.6 1.4 0.1 0.2 0.3 0.4 0.5 0.4h0.7v1.2h-0.7c-0.2 0-0.4 0.2-0.5 0.4-0.1 0.5-0.3 0.9-0.6 1.4-0.1 0.2-0.1 0.5 0.1 0.6l0.5 0.5-0.8 0.8-0.5-0.5c-0.2-0.2-0.4-0.2-0.6-0.1-0.4 0.3-0.9 0.5-1.4 0.6-0.2 0.1-0.4 0.3-0.4 0.5v0.7h-1.2v-0.7c0-0.2-0.2-0.4-0.4-0.5-0.5-0.1-0.9-0.3-1.4-0.6-0.2-0.1-0.5-0.1-0.6 0.1l-0.5 0.5-0.8-0.8 0.5-0.5c0.2-0.2 0.2-0.4 0.1-0.6-0.3-0.4-0.5-0.9-0.6-1.4-0.1-0.2-0.3-0.4-0.5-0.4h-0.7v-1.2h0.7c0.2 0 0.4-0.2 0.5-0.4 0.1-0.5 0.3-0.9 0.6-1.4 0.1-0.2 0.1-0.5-0.1-0.6l-0.5-0.5 0.8-0.8 0.5 0.5c0.2 0.2 0.4 0.2 0.6 0.1 0.4-0.3 0.9-0.5 1.4-0.6 0.2-0.1 0.4-0.3 0.4-0.5v-0.7zm0.6 3c-1.4 0-2.5 1.1-2.5 2.5s1.1 2.5 2.5 2.5 2.5-1.1 2.5-2.5-1.1-2.5-2.5-2.5zm0 1c0.8 0 1.5 0.7 1.5 1.5s-0.7 1.5-1.5 1.5-1.5-0.7-1.5-1.5c0-0.9 0.7-1.5 1.5-1.5z"/>
		</g>
	</g>
</svg>
