<svg xmlns:inkscape="http://www.inkscape.org/namespaces/inkscape" xmlns:rdf="http://www.w3.org/1999/02/22-rdf-syntax-ns#" xmlns="http://www.w3.org/2000/svg" sodipodi:docname="country-ambassadors.svg" height="512" width="512" version="1.1" xmlns:cc="http://creativecommons.org/ns#" xmlns:dc="http://purl.org/dc/elements/1.1/" inkscape:version="0.91 r13725" viewBox="0 0 512.00001 512.003" xmlns:sodipodi="http://sodipodi.sourceforge.net/DTD/sodipodi-0.dtd">
	<sodipodi:namedview bordercolor="#666666" inkscape:pageshadow="2" inkscape:window-y="-8" pagecolor="#ffffff" inkscape:window-height="1017" inkscape:window-maximized="1" inkscape:zoom="0.35" inkscape:window-x="-8" showgrid="false" borderopacity="1.0" inkscape:current-layer="layer1" inkscape:cx="-126.42857" inkscape:cy="520" units="px" inkscape:window-width="1920" inkscape:pageopacity="0.0" inkscape:document-units="px"/>
	<g inkscape:label="Layer 1" inkscape:groupmode="layer" transform="translate(0 -540.36)">
		<g fill="none" transform="matrix(8.5576 0 0 8.5576 -1.4548 538.91)">
			<g fill="#000">
				<path inkscape:connector-curvature="0" d="m56.241 15.604c1.498-3.404 0.743-7.3795-1.898-9.9985-2.641-2.6191-6.622-3.3404-10.014-1.8143-6.867-3.7272-14.92-4.6184-22.435-2.4826l-0.0014 0.0008c-7.376 2.0808-13.664 6.9278-17.553 13.531-0.0702 0.12-0.1144 0.253-0.13 0.391-0.4774 0.634-0.8745 1.325-1.1823 2.057l-0.0742 0.16c-1.8323 3.959-2.7821 8.269-2.7835 12.632 0.00028322 2.8344 0.4052 5.6543 1.2025 8.3743-0.68025 2.2874-0.42165 4.7515 0.71866 6.8478s3.0684 3.6523 5.3583 4.3241c4.605 5.3505 10.958 8.8943 17.93 10.001 7.2841 1.1623 14.741-0.41501 20.93-4.4274 3.6524 1.6499 7.9557 0.68267 10.551-2.3713 2.5952-3.054 2.8552-7.457 0.63752-10.795 3.7327-8.5223 3.2676-18.3-1.2573-26.429zm-8.241-2.604c-1.1046 0-2-0.89543-2-2s0.89543-2 2-2 2 0.89543 2 2c-0.0011 1.1041-0.89589 1.9989-2 2zm-2.02 1.4329c1.2402 0.75613 2.7988 0.75613 4.039 0 1.2104 0.5425 2.1595 1.5383 2.6433 2.7733-2.6485 2.3918-6.6771 2.3918-9.3256 0 0.48393-1.2351 1.4333-2.2309 2.6438-2.7733h-0.0005zm9.02-2.433c-0.000336 1.2287-0.32652 2.4354-0.9453 3.497-0.61663-1.0667-1.5059-1.9503-2.5766-2.56 0.338-0.59 0.518-1.257 0.522-1.937 0-2.2091-1.791-4-4-4-2.2091 0-4 1.7909-4 4 0.0045 0.67965 0.18423 1.3467 0.5219 1.9365-1.0707 0.60972-1.96 1.4933-2.5766 2.56-1.472-2.547-1.193-5.743 0.699-7.9969 1.891-2.2538 4.99-3.0839 7.754-2.0769 2.764 1.0069 4.604 3.6357 4.602 6.5778zm-24.92-9.83c4.2509 0.0007953 8.4456 0.97153 12.265 2.8383-1.8236 1.474-2.9993 3.6022-3.2763 5.9306-0.84434-0.36735-1.7718-0.50137-2.6856-0.3881-0.67125 0.12383-1.3228 0.33748-1.937 0.6352-0.39196 0.18532-0.79925 0.33628-1.2173 0.4512-0.40088 0.09178-0.82171 0.02534-1.1748-0.1855-0.147-0.1055-0.1548-0.1885-0.1577-0.22-0.023-0.26 0.3032-0.581 0.8027-1.0415 0.61338-0.48453 1.0965-1.1141 1.4058-1.832 0.41-1.4144-0.197-2.9265-1.472-3.6641-1.211-0.6671-2.618-0.8869-3.974-0.6211-0.476 0.055-0.955 0.0777-1.434 0.0679-1.196-0.0651-2.337-0.5223-3.246-1.3009 2.003-0.4473 4.049-0.672 6.101-0.67zm-8.2972 1.2654c1.32 1.6179 3.264 2.6005 5.3495 2.7038 0.57105 0.015136 1.1424-0.00983 1.71-0.0747 0.91912-0.20907 1.8822-0.094929 2.727 0.3232 0.47192 0.2532 0.73223 0.77705 0.649 1.3061-0.21733 0.39868-0.51512 0.74786-0.8745 1.0254-0.89407 0.60582-1.4326 1.6129-1.44 2.6929 0.06716 0.67245 0.42684 1.2813 0.9834 1.6646 0.82479 0.54632 1.838 0.72941 2.8018 0.5063 0.53394-0.13982 1.054-0.3281 1.5537-0.5625 0.45396-0.22347 0.93447-0.38836 1.43-0.4907 0.85462-0.06097 1.7048 0.16804 2.4132 0.65 0.2024 1.5321 0.79845 2.9855 1.73 4.2186-0.0836 0.05-0.1655 0.1025-0.2491 0.152-0.2681 0.1587-0.5288 0.314-0.8364 0.5259-1.1043 0.83663-2.3143 1.5236-3.5987 2.0429-0.48566 0.1626-0.98028 0.29712-1.4814 0.4029-1.0435 0.1815-2.0466 0.54644-2.9628 1.0779-1.8374 1.1865-1.6128 3.0845-1.4722 4.2256-0.0322-0.0107-0.0683-0.0239-0.1074-0.041-0.1719-0.07-0.34-0.15-0.5058-0.2285-1.036-0.698-2.375-0.752-3.462-0.139-1.086 0.612-1.734 1.786-1.672 3.032 0 2.3726 1.7612 3.7554 3.1763 4.8672l0.4931 0.3911c0.31312 0.28654 0.59471 0.60572 0.84 0.9521-2.0112-0.5058-4.0229-1.0033-6.0352-1.4926-1.6919-0.4087-3.4028-0.9131-4.101-2.1651-0.2678-0.56747-0.44857-1.1721-0.5362-1.7934-0.12642-0.98551-0.47268-1.93-1.0132-2.7637-1.0271-1.1456-2.4109-1.9109-3.9272-2.1719l-0.1817-0.0522c-1.4975-0.4458-2.3212-0.9824-2.59-1.6861-0.16695-0.91256-0.01796-1.8548 0.4224-2.6713 0.5653-1.1757 0.75388-2.4973 0.54-3.7842-0.223-0.986-0.883-1.819-1.7931-2.262-0.6656-0.298-1.3982-0.413-2.123-0.335 3.5161-4.7774 8.4741-8.2994 14.143-10.047zm-19.613 26.645c0.0011-4.071 0.8869-8.093 2.5961-11.787l0.0752-0.1617c0.27172-0.71806 0.67753-1.3779 1.1958-1.9443 0.18327-0.18458 0.40062-0.33184 0.64-0.4336 0.68936-0.34749 1.4912-0.39637 2.2177-0.1352 0.37766 0.19008 0.64598 0.54436 0.7266 0.9594 0.088021 0.89478-0.079053 1.7962-0.4819 2.6-0.6375 1.2585-0.78472 2.709-0.4131 4.07 0.6709 1.7534 2.54 2.49 3.8974 2.8935l0.1939 0.0557c1.081 0.17278 2.0825 0.67456 2.8681 1.437 0.35515 0.60203 0.58012 1.2718 0.6604 1.9662 0.1236 0.82706 0.37706 1.6294 0.751 2.3774 1.0918 1.9566 3.3486 2.6441 5.3764 3.1343 2.1778 0.52927 4.3557 1.0687 6.5337 1.6182 0.43858 0.14341 0.91229 0.13757 1.3472-0.0166 0.50674-0.19707 0.86951-0.64996 0.9512-1.1875 0.229-1.5161-1.8648-3.3369-1.8965-3.3633l-0.5274-0.418c-1.241-0.974-2.413-1.894-2.413-3.304-0.01172-0.59036 0.32821-1.1313 0.8652-1.3769 0.377-0.1577 0.6856-0.0415 1.4126 0.3013 0.1983 0.0937 0.399 0.1875 0.5826 0.2627 0.77607 0.4176 1.7313 0.29908 2.3818-0.2955 0.42467-0.46979 0.60587-1.1108 0.49-1.7334-0.1645-1.3335-0.103-1.8837 0.5713-2.3188 0.72559-0.3991 1.5133-0.67294 2.33-0.81 0.57746-0.1226 1.1472-0.27927 1.7061-0.4692 1.4735-0.58829 2.8618-1.371 4.1279-2.3272 0.2-0.1372 0.4214-0.2675 0.6484-0.4018 0.201-0.1191 0.4154-0.2478 0.63-0.3866 1.8564 1.5668 4.269 2.3138 6.686 2.0701 2.417-0.24374 4.6319-1.4573 6.1381-3.3633 3.5604 7.0979 3.9264 15.377 1.0062 22.761-2.4792-2.2677-6.0172-2.9611-9.1691-1.7971-3.1518 1.164-5.3898 3.9907-5.7999 7.3255-0.3545-0.3534-0.7082-0.7083-1.0645-1.0724-1.3791-1.306-2.9679-2.3708-4.7-3.15-2.5293-1.2119-4.748-1.0977-6.0894 0.3154-0.62411 0.73902-1.1211 1.5766-1.4707 2.4785-0.1787 0.396-0.3535 0.7862-0.5478 1.127-0.35538 0.66439-0.83917 1.2516-1.4233 1.7275-0.26286 0.18292-0.54324 0.33929-0.837 0.4668-0.60926 0.24987-1.1623 0.6192-1.6266 1.0862-0.50835 0.63223-0.84272 1.3863-0.97 2.1875-0.0695 0.35732-0.17809 0.70592-0.3238 1.0395-0.47609 0.79533-0.74876 1.6958-0.7939 2.6216 0.0134 0.71362 0.2185 1.4105 0.5938 2.0176-4.2578-1.3128-8.1383-3.6282-11.316-6.7519 4.1757-0.2302 7.6417-3.3082 8.3638-7.4274 0.723-4.119-1.489-8.193-5.338-9.829-3.8479-1.637-8.3167-0.405-10.783 2.972-0.382-1.846-0.5764-3.725-0.58-5.61zm7.83 11.92c-1.1046 0-2-0.89543-2-2s0.89543-2 2-2 2 0.89543 2 2c-0.0011 1.1041-0.89589 1.9989-2 2zm-2.0195 1.4329c1.2402 0.75613 2.7988 0.75613 4.039 0 1.2104 0.5425 2.1595 1.5383 2.6433 2.7733-2.6485 2.3918-6.6771 2.3918-9.3256 0 0.48381-1.235 1.4329-2.2308 2.6433-2.7733zm2.0195-9.433c2.5019-0.0045 4.8152 1.329 6.0653 3.4962 1.25 2.1672 1.246 4.8374-0.01056 7.0008-0.61663-1.0667-1.5059-1.9503-2.5766-2.56 0.338-0.59 0.518-1.257 0.522-1.937 0-2.2091-1.7909-4-4-4s-4 1.7909-4 4c0.00447 0.67965 0.18423 1.3467 0.5219 1.9365-1.0707 0.60972-1.96 1.4933-2.5766 2.56-1.256-2.163-1.2599-4.833-0.0099-7s3.5632-3.5 6.0649-3.496zm20.08 24c-1.4105-0.000874-2.8189-0.1102-4.2127-0.327-0.38546-0.21437-0.75931-0.44896-1.12-0.7028-0.808-0.504-1.361-1.331-1.517-2.27 0.05696-0.60172 0.25232-1.1821 0.5708-1.6958 0.22325-0.47584 0.38834-0.97685 0.4917-1.4922 0.06514-0.46929 0.23828-0.91706 0.5058-1.3081 0.29589-0.26858 0.63811-0.48117 1.01-0.6274 0.41802-0.18427 0.81539-0.4122 1.1855-0.68 0.79695-0.63585 1.4581-1.4252 1.9444-2.3213 0.2353-0.4131 0.4394-0.8633 0.6362-1.2988 0.26713-0.69488 0.63841-1.3451 1.1011-1.9283 0.9971-1.0522 2.97-0.2715 3.769 0.1118 1.5212 0.68324 2.9199 1.6118 4.14 2.7486 0.8534 0.8721 1.7 1.7186 2.587 2.53 0.41523 2.0919 1.5596 3.9685 3.2293 5.2955-4.324 2.598-9.275 3.969-14.32 3.966zm15.257-5.7938c0.48381-1.235 1.4329-2.2308 2.6433-2.7733 1.2402 0.75613 2.7988 0.75613 4.039 0 1.2104 0.5425 2.1595 1.5383 2.6433 2.7733-2.6485 2.3918-6.6771 2.3918-9.3256 0zm4.663-4.206c-1.1046 0-2-0.89543-2-2s0.89543-2 2-2 2 0.89543 2 2c-0.0011 1.1041-0.89589 1.9989-2 2zm6.0547 2.497c-0.617-1.067-1.506-1.95-2.577-2.56 0.338-0.59 0.518-1.257 0.522-1.937 0-2.2091-1.7909-4-4-4s-4 1.7909-4 4c0.0045 0.67965 0.18423 1.3467 0.5219 1.9365-1.0707 0.60972-1.96 1.4933-2.5766 2.56-1.7067-2.9416-1.0522-6.6842 1.5514-8.872 2.6036-2.1879 6.403-2.1879 9.0066 0s3.2581 5.9305 1.5514 8.872v0.0005z"/>
			</g>
		</g>
	</g>
</svg>
