<svg xmlns:inkscape="http://www.inkscape.org/namespaces/inkscape" xmlns:rdf="http://www.w3.org/1999/02/22-rdf-syntax-ns#" xmlns="http://www.w3.org/2000/svg" sodipodi:docname="icon-advisors.svg" height="602.35" width="512" version="1.1" xmlns:cc="http://creativecommons.org/ns#" xmlns:dc="http://purl.org/dc/elements/1.1/" inkscape:version="0.91 r13725" viewBox="0 0 512.00001 602.35304" xmlns:sodipodi="http://sodipodi.sourceforge.net/DTD/sodipodi-0.dtd">
	<sodipodi:namedview bordercolor="#666666" inkscape:pageshadow="2" inkscape:window-y="-8" pagecolor="#ffffff" inkscape:window-height="1017" inkscape:window-maximized="1" inkscape:zoom="0.35" inkscape:window-x="-8" showgrid="false" borderopacity="1.0" inkscape:current-layer="layer1" inkscape:cx="-126.42857" inkscape:cy="520" units="px" inkscape:window-width="1920" inkscape:pageopacity="0.0" inkscape:document-units="px"/>
	<g inkscape:label="Layer 1" inkscape:groupmode="layer" transform="translate(0 -450.01)">
		<g transform="matrix(1.2549 0 0 1.2549 -45.176 450.01)">
			<path inkscape:connector-curvature="0" d="m316 304h-160c-4.418 0-8 3.582-8 8s3.582 8 8 8h72v152c0 4.418 3.582 8 8 8s8-3.582 8-8v-152h72c4.418 0 8-3.582 8-8s-3.582-8-8-8z"/>
			<path inkscape:connector-curvature="0" d="m404 232c-22.091 0-40 17.909-40 40v64c0 4.418-3.582 8-8 8h-40c-13.255 0-24 10.745-24 24v88c0 13.255 10.745 24 24 24s24-10.745 24-24v-56c0-4.418 3.582-8 8-8h72c13.255 0 24-10.745 24-24v-96c0-22.091-17.909-40-40-40zm24 136c0 4.418-3.582 8-8 8h-72c-13.255 0-24 10.745-24 24v56c0 4.418-3.582 8-8 8s-8-3.582-8-8v-88c0-4.418 3.582-8 8-8h40c13.255 0 24-10.745 24-24v-64c0-13.255 10.745-24 24-24s24 10.745 24 24v96z"/>
			<path inkscape:connector-curvature="0" d="m404 144c-22.08 0.026-39.974 17.92-40 40 0 22.091 17.909 40 40 40s40-17.909 40-40-17.909-40-40-40zm0 64c-13.255 0-24-10.745-24-24s10.745-24 24-24 24 10.745 24 24-10.745 24-24 24z"/>
			<path inkscape:connector-curvature="0" d="m164 344h-40c-4.418 0-8-3.582-8-8v-64c0-22.091-17.909-40-40-40s-40 17.909-40 40v96c0 13.255 10.745 24 24 24h72c4.418 0 8 3.582 8 8v56c0 13.255 10.745 24 24 24s24-10.745 24-24v-88c0-13.255-10.745-24-24-24zm8 112c0 4.418-3.582 8-8 8s-8-3.582-8-8v-56c0-13.255-10.745-24-24-24h-72c-4.418 0-8-3.582-8-8v-96c0-13.255 10.745-24 24-24s24 10.745 24 24v64c0 13.255 10.745 24 24 24h40c4.418 0 8 3.582 8 8v88z"/>
			<path inkscape:connector-curvature="0" d="m76 144c-22.091 0-40 17.909-40 40 0.026 22.08 17.92 39.974 40 40 22.091 0 40-17.909 40-40s-17.909-40-40-40zm0 64c-13.255 0-24-10.745-24-24s10.745-24 24-24 24 10.745 24 24-10.745 24-24 24z"/>
			<path inkscape:connector-curvature="0" d="m354.23 203c-1.872-2.34-4.896-3.438-7.833-2.844l-22.76 4.544c-1.883 0.378-3.836-0.11-5.32-1.328-1.493-1.217-2.347-3.05-2.32-4.976-0.022-12.362-10.038-22.378-22.4-22.4h-115.2c-12.362 0.022-22.378 10.038-22.4 22.4v67.2c0.022 12.362 10.038 22.378 22.4 22.4h115.2c12.362-0.022 22.378-10.038 22.4-22.4v-18.672c-0.012-1.949 0.873-3.796 2.4-5.008l34.584-27.672c3.45-2.759 4.009-7.793 1.249-11.244zm-45.809 26.421c-5.337 4.24-8.44 10.688-8.424 17.504v18.672c0 3.535-2.865 6.4-6.4 6.4h-115.2c-3.535 0-6.4-2.865-6.4-6.4v-67.2c0-3.535 2.865-6.4 6.4-6.4h115.2c3.535 0 6.4 2.865 6.4 6.4-0.013 11.222 8.28 20.721 19.4 22.224l-10.976 8.8z"/>
			<path inkscape:connector-curvature="0" d="m300 0h-136c-13.255 0-24 10.745-24 24v64c0.002 8.336 4.33 16.075 11.432 20.44l-26.088 39.12c-2.165 3.244-1.675 7.577 1.16 10.256 2.832 2.676 7.18 2.922 10.296 0.584l59.736-44.8c1.387-1.035 3.07-1.596 4.8-1.6h98.66c13.255 0 24-10.745 24-24v-64c0-13.255-10.74-24-24-24zm8 88c0 4.418-3.582 8-8 8h-98.664c-5.192 0.008-10.242 1.691-14.4 4.8l-22.4 16.8 6.096-9.136c2.465-3.666 1.492-8.637-2.175-11.103-1.318-0.886-2.869-1.36-4.457-1.361-4.418 0-8-3.582-8-8v-64c0-4.418 3.582-8 8-8h136c4.418 0 8 3.582 8 8v64z"/>
			<path inkscape:connector-curvature="0" d="m284 48h-104c-4.418 0-8 3.582-8 8s3.582 8 8 8h104c4.418 0 8-3.582 8-8s-3.582-8-8-8z"/>
			<path inkscape:connector-curvature="0" d="m276 224h-80c-4.418 0-8 3.582-8 8s3.582 8 8 8h80c4.418 0 8-3.582 8-8s-3.582-8-8-8z"/>
		</g>
	</g>
</svg>
