<svg xmlns:inkscape="http://www.inkscape.org/namespaces/inkscape" xmlns:rdf="http://www.w3.org/1999/02/22-rdf-syntax-ns#" xmlns="http://www.w3.org/2000/svg" sodipodi:docname="icon-content-ambassadors.svg" height="512" width="495.47" version="1.1" xmlns:cc="http://creativecommons.org/ns#" xmlns:dc="http://purl.org/dc/elements/1.1/" inkscape:version="0.91 r13725" viewBox="0 0 495.47102 512.00001" xmlns:sodipodi="http://sodipodi.sourceforge.net/DTD/sodipodi-0.dtd">
	<sodipodi:namedview bordercolor="#666666" inkscape:pageshadow="2" inkscape:window-y="-8" pagecolor="#ffffff" inkscape:window-height="1017" inkscape:window-maximized="1" inkscape:zoom="0.35" inkscape:window-x="-8" showgrid="false" borderopacity="1.0" inkscape:current-layer="layer1" inkscape:cx="-126.42857" inkscape:cy="520" units="px" inkscape:window-width="1920" inkscape:pageopacity="0.0" inkscape:document-units="px"/>
	<g inkscape:label="Layer 1" inkscape:groupmode="layer" transform="translate(0 -540.36)">
		<g transform="matrix(1.0079 0 0 1.0079 -8.2645 540.36)">
			<path inkscape:connector-curvature="0" d="m458.8 188.5h-47.6l-26.2 41.9-26.2-41.9h-47.6c-22.6 0-41 18.4-41 41v81.9h-41-65.5-122.7v-262.2h311.4v26.7c-14.8 10.4-24.6 27.6-24.6 47 0 31.6 25.7 57.4 57.4 57.4s57.4-25.7 57.4-57.4-25.7-57.4-57.4-57.4c-5.7 0-11.2 0.9-16.4 2.4v-20.2c9.5-3.4 16.4-12.4 16.4-23.1 0-13.6-11-24.6-24.6-24.6h-327.8c-13.6 0-24.6 11-24.6 24.6 0 10.7 6.9 19.7 16.4 23.1v280.1h139.3v139.2h-57.4v41h16.4v-24.6h41 65.5 41v24.6h16.4v-41h-57.4v-139.3h41v41h32.8v139.3h163.8v-139.3h32.8v-139.3c0-22.6-18.4-40.9-41-40.9zm-73.7-106.6c22.6 0 41 18.4 41 41s-18.4 41-41 41-41-18.4-41-41 18.4-41 41-41zm-360.5-57.3c0-4.5 3.7-8.2 8.2-8.2h327.7c4.5 0 8.2 3.7 8.2 8.2s-3.7 8.2-8.2 8.2h-327.7c-4.5 0-8.2-3.7-8.2-8.2zm188.4 442.4h-32.8v-139.3h32.8v139.3zm270.4-114.7h-32.8v139.3h-57.4v-122.9h-16.4v122.9h-57.4v-139.3h-32.8v-122.9c0-13.6 11-24.6 24.6-24.6h38.5l35.3 56.4 35.3-56.4h38.5c13.6 0 24.6 11 24.6 24.6v122.9z"/>
			<path inkscape:connector-curvature="0" d="m232.5 90.1 26.5 26.5-63.3 73.9-59.7-69.8-76.1 88.8 12.4 10.7 63.6-74.2 59.9 69.9 74.9-87.4 24.7 24.8v-63.2h-62.9zm46.7 23.4-7-7h7v7z"/>
			<rect y="245.8" width="41" x="418.5" height="16.4"/>
		</g>
	</g>
</svg>
