<svg xmlns="http://www.w3.org/2000/svg" xmlns:xlink="http://www.w3.org/1999/xlink" width="139.999" height="40" viewBox="0 0 139.999 40">
  <defs>
    <linearGradient id="linear-gradient" x1="-0.047" y1="0.049" x2="1.229" y2="1.48" gradientUnits="objectBoundingBox">
      <stop offset="0" stop-color="#2181f8"/>
      <stop offset="1" stop-color="#16294e"/>
    </linearGradient>
  </defs>
  <g id="Logo" transform="translate(19887.471 -1784.28)">
    <path id="Path_7141" data-name="Path 7141" d="M629.281,380.084c-.836,6.318-.836,6.318-6.52,6.318H601.53c1.067-5.388,2.081-10.491,3.1-15.594.978-4.9,1.9-9.81,2.964-14.688.385-1.743.338-3.052-1.583-3.841h28.225c-.385,1.926-.664,3.787-1.185,5.566-.113.379-1.186.646-1.831.652-4.742.053-9.448.113-14.166,0-1.707-.041-2.371.539-2.525,2.169s-.593,3.3-.99,5.269h15.891l-1.185,6.182c-4.742,0-9.288.065-13.852-.03-1.642-.036-2.4.421-2.572,2.128-.19,1.873-.688,3.71-1.108,5.88Z" transform="translate(-20443.268 1435)"/>
    <path id="Path_7142" data-name="Path 7142" d="M661.246,385.753H653.39l6.822-34.123c6.24.276,12.587-.094,18.674.975,8.75,1.545,11.364,11.964,5.147,18.886a14.616,14.616,0,0,1-10.277,4.742c-3.473.229-6.981.047-10.577.047C662.527,379.595,661.91,382.574,661.246,385.753Zm3.156-15.689c2.862,0,5.488.135,8.085-.053a10.114,10.114,0,0,0,3.914-1.222,6.342,6.342,0,0,0,2.8-6.8c-.535-2.233-2.35-3.526-5.33-3.637-2.315-.088-4.636,0-7.087,0C665.994,362.219,665.23,365.95,664.4,370.064Z" transform="translate(-20462.617 1435.65)"/>
    <path id="Path_7143" data-name="Path 7143" d="M738.287,380.046v1.067c-.854,5.334-.854,5.334-6.259,5.334H710.66c.593-3.165,1.185-6.141,1.778-9.11,1.417-7.113,2.815-14.225,4.309-21.338.356-1.671.367-2.964-1.594-3.639h10.183c-1.885,9.187-3.752,18.3-5.678,27.716Z" transform="translate(-20485.758 1434.938)"/>
    <path id="Path_7148" data-name="Path 7148" d="M657.4,362.662l9.538,2.587-.928,3.662,10.355-3.534-7.228-8.312-.983,3.6c-.322-.07-.607-.117-.884-.193-3.7-1-7.4-2.022-11.109-3a1.13,1.13,0,0,1-.93-.97,49.667,49.667,0,0,1-1.3-13.821.96.96,0,0,1,.617-.9,30.055,30.055,0,0,1,10-3.193,46.045,46.045,0,0,1,18.134.7,27.233,27.233,0,0,1,6.587,2.491.982.982,0,0,1,.618.981c-.025,2.3-.01,4.609-.01,7.078l-13-3.53.929-3.663-10.352,3.538,7.222,8.31,1-3.639,13.322,3.619c-.063.348-.109.662-.177.969a35.187,35.187,0,0,1-6.482,14.306,29.315,29.315,0,0,1-9.97,8.163,1.116,1.116,0,0,1-.886.015,29.871,29.871,0,0,1-14.042-14.962A1.35,1.35,0,0,1,657.4,362.662Z" transform="translate(-20541.355 1446.278)" fill="url(#linear-gradient)"/>
  </g>
</svg>
