<svg
        xmlns="http://www.w3.org/2000/svg"
        xmlns:xlink="http://www.w3.org/1999/xlink"
        width="90px" height="82px">
    <path fill-rule="evenodd"  fill="rgb(47, 47, 47)"
          d="M75.201,24.408 C75.201,22.211 75.201,20.014 75.201,17.817 C75.201,17.150 75.201,16.482 75.201,15.815 C75.187,15.815 75.173,15.815 75.159,15.815 C75.159,15.634 75.159,15.453 75.159,15.272 C75.145,15.272 75.131,15.272 75.117,15.272 C75.117,15.147 75.117,15.022 75.117,14.897 C75.103,14.897 75.089,14.897 75.075,14.897 C75.075,14.800 75.075,14.702 75.075,14.605 C75.061,14.605 75.047,14.605 75.033,14.605 C75.004,14.382 74.976,14.160 74.948,13.937 C74.808,13.465 74.667,12.992 74.527,12.519 C74.513,12.519 74.499,12.519 74.485,12.519 C74.485,12.491 74.485,12.463 74.485,12.436 C74.470,12.436 74.456,12.436 74.442,12.436 C74.442,12.394 74.442,12.352 74.442,12.310 C74.428,12.310 74.414,12.310 74.400,12.310 C74.400,12.283 74.400,12.255 74.400,12.227 C74.386,12.227 74.372,12.227 74.358,12.227 C74.358,12.185 74.358,12.144 74.358,12.102 C74.344,12.102 74.330,12.102 74.316,12.102 C74.302,12.046 74.288,11.991 74.274,11.935 C74.260,11.935 74.246,11.935 74.232,11.935 C74.232,11.893 74.232,11.852 74.232,11.810 C74.218,11.810 74.203,11.810 74.189,11.810 C74.161,11.726 74.133,11.643 74.105,11.560 C74.091,11.560 74.077,11.560 74.063,11.560 C74.063,11.532 74.063,11.504 74.063,11.476 C74.049,11.476 74.035,11.476 74.021,11.476 C74.021,11.448 74.021,11.420 74.021,11.393 C74.007,11.393 73.993,11.393 73.979,11.393 C73.979,11.365 73.979,11.337 73.979,11.309 C73.965,11.309 73.951,11.309 73.937,11.309 C73.937,11.281 73.937,11.254 73.937,11.226 C73.922,11.226 73.908,11.226 73.894,11.226 C73.894,11.198 73.894,11.170 73.894,11.142 C73.880,11.142 73.866,11.142 73.852,11.142 C73.852,11.115 73.852,11.087 73.852,11.059 C73.824,11.045 73.796,11.031 73.768,11.017 C73.740,10.934 73.712,10.850 73.684,10.767 C73.656,10.753 73.627,10.739 73.599,10.725 C73.585,10.670 73.571,10.614 73.557,10.558 C73.529,10.544 73.501,10.531 73.473,10.517 C73.459,10.461 73.445,10.405 73.431,10.350 C73.403,10.336 73.374,10.322 73.346,10.308 C73.346,10.280 73.346,10.252 73.346,10.225 C73.332,10.225 73.318,10.225 73.304,10.225 C73.290,10.183 73.276,10.141 73.262,10.099 C73.234,10.086 73.206,10.072 73.178,10.058 C73.178,10.030 73.178,10.002 73.178,9.974 C73.150,9.960 73.122,9.946 73.093,9.933 C73.079,9.891 73.065,9.849 73.051,9.807 C73.009,9.780 72.967,9.752 72.925,9.724 C72.925,9.696 72.925,9.668 72.925,9.641 C72.883,9.613 72.841,9.585 72.798,9.557 C72.798,9.529 72.798,9.501 72.798,9.474 C72.742,9.432 72.686,9.390 72.630,9.349 C72.630,9.321 72.630,9.293 72.630,9.265 C72.545,9.196 72.461,9.126 72.377,9.057 C72.377,9.029 72.377,9.001 72.377,8.973 C72.236,8.848 72.096,8.723 71.955,8.598 C71.773,8.403 71.590,8.208 71.407,8.014 C71.379,8.014 71.351,8.014 71.323,8.014 C71.253,7.930 71.182,7.847 71.112,7.763 C71.084,7.763 71.056,7.763 71.028,7.763 C70.986,7.708 70.944,7.652 70.901,7.596 C70.873,7.596 70.845,7.596 70.817,7.596 C70.789,7.555 70.761,7.513 70.733,7.471 C70.705,7.471 70.677,7.471 70.649,7.471 C70.620,7.430 70.592,7.388 70.564,7.346 C70.522,7.332 70.480,7.318 70.438,7.304 C70.424,7.277 70.410,7.249 70.396,7.221 C70.368,7.221 70.339,7.221 70.311,7.221 C70.297,7.193 70.283,7.165 70.269,7.138 C70.227,7.124 70.185,7.110 70.143,7.096 C70.143,7.082 70.143,7.068 70.143,7.054 C70.115,7.054 70.086,7.054 70.058,7.054 C70.044,7.026 70.030,6.998 70.016,6.971 C69.960,6.957 69.904,6.943 69.848,6.929 C69.834,6.901 69.820,6.873 69.805,6.846 C69.763,6.832 69.721,6.818 69.679,6.804 C69.679,6.790 69.679,6.776 69.679,6.762 C69.595,6.734 69.510,6.706 69.426,6.679 C69.412,6.651 69.398,6.623 69.384,6.595 C69.356,6.595 69.328,6.595 69.300,6.595 C69.300,6.581 69.300,6.567 69.300,6.553 C69.272,6.553 69.243,6.553 69.215,6.553 C69.215,6.540 69.215,6.526 69.215,6.512 C69.187,6.512 69.159,6.512 69.131,6.512 C69.131,6.498 69.131,6.484 69.131,6.470 C69.103,6.470 69.075,6.470 69.047,6.470 C69.047,6.456 69.047,6.442 69.047,6.428 C69.019,6.428 68.990,6.428 68.962,6.428 C68.962,6.414 68.962,6.401 68.962,6.387 C68.934,6.387 68.906,6.387 68.878,6.387 C68.878,6.373 68.878,6.359 68.878,6.345 C68.850,6.345 68.822,6.345 68.794,6.345 C68.794,6.331 68.794,6.317 68.794,6.303 C68.766,6.303 68.738,6.303 68.709,6.303 C68.709,6.289 68.709,6.275 68.709,6.261 C68.625,6.234 68.541,6.206 68.457,6.178 C68.457,6.164 68.457,6.150 68.457,6.136 C68.414,6.136 68.372,6.136 68.330,6.136 C68.330,6.122 68.330,6.108 68.330,6.095 C68.302,6.095 68.274,6.095 68.246,6.095 C68.246,6.081 68.246,6.067 68.246,6.053 C68.204,6.053 68.161,6.053 68.119,6.053 C68.119,6.039 68.119,6.025 68.119,6.011 C68.091,6.011 68.063,6.011 68.035,6.011 C68.035,5.997 68.035,5.983 68.035,5.969 C67.993,5.969 67.951,5.969 67.909,5.969 C67.909,5.956 67.909,5.942 67.909,5.928 C67.880,5.928 67.852,5.928 67.824,5.928 C67.824,5.914 67.824,5.900 67.824,5.886 C67.740,5.872 67.656,5.858 67.571,5.844 C67.571,5.830 67.571,5.816 67.571,5.803 C67.529,5.803 67.487,5.803 67.445,5.803 C67.445,5.789 67.445,5.775 67.445,5.761 C67.403,5.761 67.361,5.761 67.318,5.761 C67.318,5.747 67.318,5.733 67.318,5.719 C67.276,5.719 67.234,5.719 67.192,5.719 C67.192,5.705 67.192,5.691 67.192,5.677 C67.150,5.677 67.108,5.677 67.065,5.677 C67.065,5.664 67.065,5.650 67.065,5.636 C66.532,5.524 65.998,5.413 65.464,5.302 C65.169,5.288 64.873,5.274 64.578,5.260 C64.274,5.176 63.774,5.219 63.398,5.219 C62.639,5.219 61.880,5.219 61.122,5.219 C58.087,5.219 55.051,5.219 52.017,5.219 C38.220,5.219 24.419,5.219 10.622,5.219 C10.627,4.877 10.741,4.556 10.832,4.301 C10.847,4.203 10.861,4.106 10.875,4.009 C10.889,4.009 10.903,4.009 10.917,4.009 C10.917,3.981 10.917,3.953 10.917,3.925 C10.931,3.925 10.945,3.925 10.959,3.925 C10.973,3.842 10.987,3.758 11.001,3.675 C11.015,3.675 11.029,3.675 11.043,3.675 C11.057,3.619 11.071,3.564 11.085,3.508 C11.099,3.508 11.113,3.508 11.128,3.508 C11.128,3.480 11.128,3.453 11.128,3.425 C11.142,3.425 11.156,3.425 11.170,3.425 C11.184,3.355 11.198,3.286 11.212,3.216 C11.240,3.202 11.268,3.188 11.296,3.174 C11.324,3.091 11.352,3.008 11.380,2.924 C11.409,2.910 11.437,2.896 11.465,2.882 C11.479,2.827 11.493,2.771 11.507,2.716 C11.535,2.702 11.563,2.688 11.591,2.674 C11.591,2.646 11.591,2.618 11.591,2.590 C11.633,2.563 11.676,2.535 11.718,2.507 C11.718,2.479 11.718,2.451 11.718,2.423 C11.746,2.410 11.774,2.396 11.802,2.382 C11.802,2.354 11.802,2.326 11.802,2.298 C11.872,2.243 11.943,2.187 12.013,2.131 C12.013,2.104 12.013,2.076 12.013,2.048 C12.153,1.923 12.294,1.798 12.434,1.673 C12.505,1.589 12.575,1.506 12.645,1.422 C12.673,1.422 12.701,1.422 12.729,1.422 C12.786,1.353 12.842,1.283 12.898,1.214 C12.926,1.214 12.954,1.214 12.982,1.214 C13.010,1.172 13.039,1.130 13.067,1.089 C13.095,1.089 13.123,1.089 13.151,1.089 C13.165,1.061 13.179,1.033 13.193,1.005 C13.235,0.991 13.277,0.977 13.320,0.963 C13.320,0.949 13.320,0.936 13.320,0.922 C13.376,0.908 13.432,0.894 13.488,0.880 C13.502,0.852 13.516,0.824 13.530,0.797 C13.587,0.783 13.643,0.769 13.699,0.755 C13.713,0.727 13.727,0.699 13.741,0.671 C13.868,0.630 13.994,0.588 14.120,0.546 C14.120,0.532 14.120,0.518 14.120,0.505 C14.177,0.491 14.233,0.477 14.289,0.463 C14.289,0.449 14.289,0.435 14.289,0.421 C14.654,0.310 15.020,0.199 15.385,0.087 C15.568,0.073 15.750,0.060 15.933,0.046 C16.154,-0.016 16.530,0.004 16.818,0.004 C17.380,0.004 17.942,0.004 18.504,0.004 C20.668,0.004 22.832,0.004 24.996,0.004 C36.700,0.004 48.407,0.004 60.110,0.004 C63.651,0.004 67.192,0.004 70.733,0.004 C71.801,0.004 72.869,0.004 73.937,0.004 C74.444,0.004 75.024,-0.025 75.412,0.087 C75.496,0.087 75.581,0.087 75.665,0.087 C76.030,0.199 76.396,0.310 76.761,0.421 C76.761,0.435 76.761,0.449 76.761,0.463 C76.817,0.477 76.873,0.491 76.929,0.505 C76.929,0.518 76.929,0.532 76.929,0.546 C76.972,0.546 77.014,0.546 77.056,0.546 C77.056,0.560 77.056,0.574 77.056,0.588 C77.112,0.602 77.168,0.616 77.225,0.630 C77.225,0.644 77.225,0.657 77.225,0.671 C77.253,0.671 77.281,0.671 77.309,0.671 C77.323,0.699 77.337,0.727 77.351,0.755 C77.407,0.769 77.463,0.783 77.520,0.797 C77.534,0.824 77.548,0.852 77.562,0.880 C77.618,0.894 77.674,0.908 77.730,0.922 C77.730,0.936 77.730,0.949 77.730,0.963 C77.773,0.977 77.815,0.991 77.857,1.005 C77.871,1.033 77.885,1.061 77.899,1.089 C77.927,1.089 77.955,1.089 77.983,1.089 C77.997,1.116 78.011,1.144 78.025,1.172 C78.068,1.186 78.110,1.200 78.152,1.214 C78.208,1.283 78.264,1.353 78.321,1.422 C78.349,1.422 78.377,1.422 78.405,1.422 C78.531,1.561 78.658,1.700 78.784,1.839 C78.868,1.909 78.953,1.979 79.037,2.048 C79.037,2.076 79.037,2.104 79.037,2.131 C79.093,2.173 79.150,2.215 79.206,2.257 C79.206,2.284 79.206,2.312 79.206,2.340 C79.248,2.368 79.290,2.396 79.332,2.423 C79.332,2.451 79.332,2.479 79.332,2.507 C79.374,2.535 79.417,2.563 79.459,2.590 C79.459,2.618 79.459,2.646 79.459,2.674 C79.487,2.688 79.515,2.702 79.543,2.716 C79.557,2.771 79.571,2.827 79.585,2.882 C79.613,2.896 79.641,2.910 79.669,2.924 C79.698,3.008 79.726,3.091 79.754,3.174 C79.782,3.188 79.810,3.202 79.838,3.216 C79.852,3.286 79.866,3.355 79.880,3.425 C79.894,3.425 79.908,3.425 79.922,3.425 C79.922,3.453 79.922,3.480 79.922,3.508 C79.936,3.508 79.950,3.508 79.964,3.508 C79.979,3.564 79.993,3.619 80.007,3.675 C80.021,3.675 80.035,3.675 80.049,3.675 C80.063,3.758 80.077,3.842 80.091,3.925 C80.105,3.925 80.119,3.925 80.133,3.925 C80.133,3.953 80.133,3.981 80.133,4.009 C80.147,4.009 80.161,4.009 80.175,4.009 C80.189,4.106 80.203,4.203 80.217,4.301 C80.231,4.301 80.246,4.301 80.260,4.301 C80.260,4.342 80.260,4.384 80.260,4.426 C80.274,4.426 80.288,4.426 80.302,4.426 C80.316,4.551 80.330,4.676 80.344,4.801 C80.531,5.402 80.470,6.316 80.470,7.096 C80.470,8.417 80.470,9.738 80.470,11.059 C80.470,16.287 80.470,21.517 80.470,26.745 C80.456,26.745 80.442,26.745 80.428,26.745 C80.428,26.731 80.428,26.717 80.428,26.703 C80.372,26.689 80.316,26.675 80.260,26.661 C80.260,26.647 80.260,26.633 80.260,26.619 C80.231,26.619 80.203,26.619 80.175,26.619 C80.175,26.605 80.175,26.592 80.175,26.578 C80.133,26.578 80.091,26.578 80.049,26.578 C80.049,26.564 80.049,26.550 80.049,26.536 C80.021,26.536 79.993,26.536 79.964,26.536 C79.964,26.522 79.964,26.508 79.964,26.494 C79.880,26.466 79.796,26.439 79.712,26.411 C79.712,26.397 79.712,26.383 79.712,26.369 C79.669,26.369 79.627,26.369 79.585,26.369 C79.585,26.355 79.585,26.341 79.585,26.327 C79.529,26.313 79.473,26.300 79.417,26.286 C79.417,26.272 79.417,26.258 79.417,26.244 C79.388,26.244 79.360,26.244 79.332,26.244 C79.332,26.230 79.332,26.216 79.332,26.202 C79.262,26.188 79.192,26.174 79.121,26.160 C79.121,26.147 79.121,26.133 79.121,26.119 C79.037,26.091 78.953,26.063 78.869,26.035 C78.869,26.021 78.869,26.008 78.869,25.994 C78.742,25.952 78.616,25.910 78.489,25.868 C78.489,25.855 78.489,25.841 78.489,25.827 C78.461,25.827 78.433,25.827 78.405,25.827 C78.405,25.813 78.405,25.799 78.405,25.785 C78.363,25.785 78.321,25.785 78.278,25.785 C78.278,25.771 78.278,25.757 78.278,25.743 C78.250,25.743 78.222,25.743 78.194,25.743 C78.194,25.729 78.194,25.715 78.194,25.702 C78.110,25.674 78.025,25.646 77.941,25.618 C77.941,25.604 77.941,25.590 77.941,25.576 C77.899,25.576 77.857,25.576 77.815,25.576 C77.815,25.563 77.815,25.549 77.815,25.535 C77.758,25.521 77.702,25.507 77.646,25.493 C77.646,25.479 77.646,25.465 77.646,25.451 C77.618,25.451 77.590,25.451 77.562,25.451 C77.562,25.437 77.562,25.423 77.562,25.410 C77.520,25.410 77.477,25.410 77.435,25.410 C77.435,25.396 77.435,25.382 77.435,25.368 C77.351,25.340 77.267,25.312 77.182,25.284 C77.182,25.271 77.182,25.257 77.182,25.243 C77.154,25.243 77.126,25.243 77.098,25.243 C77.098,25.229 77.098,25.215 77.098,25.201 C77.056,25.201 77.014,25.201 76.972,25.201 C76.972,25.187 76.972,25.173 76.972,25.159 C76.943,25.159 76.915,25.159 76.887,25.159 C76.887,25.145 76.887,25.131 76.887,25.118 C76.803,25.090 76.719,25.062 76.634,25.034 C76.634,25.020 76.634,25.006 76.634,24.992 C76.592,24.992 76.550,24.992 76.508,24.992 C76.508,24.978 76.508,24.965 76.508,24.951 C76.480,24.951 76.452,24.951 76.424,24.951 C76.424,24.937 76.424,24.923 76.424,24.909 C76.339,24.881 76.255,24.853 76.171,24.826 C76.171,24.812 76.171,24.798 76.171,24.784 C76.129,24.784 76.086,24.784 76.044,24.784 C76.044,24.770 76.044,24.756 76.044,24.742 C76.016,24.742 75.988,24.742 75.960,24.742 C75.960,24.728 75.960,24.714 75.960,24.700 C75.904,24.686 75.847,24.673 75.791,24.659 C75.791,24.645 75.791,24.631 75.791,24.617 C75.749,24.617 75.707,24.617 75.665,24.617 C75.665,24.603 75.665,24.589 75.665,24.575 C75.637,24.575 75.609,24.575 75.581,24.575 C75.448,24.507 75.399,24.432 75.201,24.408 ZM69.932,20.862 C46.637,20.862 23.336,20.862 0.041,20.862 C0.041,19.625 0.041,18.387 0.041,17.150 C0.041,16.475 0.009,15.739 0.168,15.231 C0.168,15.161 0.168,15.092 0.168,15.022 C0.182,15.022 0.196,15.022 0.210,15.022 C0.210,14.966 0.210,14.911 0.210,14.855 C0.224,14.855 0.238,14.855 0.252,14.855 C0.266,14.758 0.280,14.660 0.294,14.563 C0.308,14.563 0.322,14.563 0.336,14.563 C0.336,14.521 0.336,14.480 0.336,14.438 C0.350,14.438 0.364,14.438 0.378,14.438 C0.378,14.396 0.378,14.355 0.378,14.313 C0.392,14.313 0.406,14.313 0.421,14.313 C0.421,14.285 0.421,14.257 0.421,14.229 C0.435,14.229 0.449,14.229 0.463,14.229 C0.463,14.188 0.463,14.146 0.463,14.104 C0.477,14.104 0.491,14.104 0.505,14.104 C0.519,14.049 0.533,13.993 0.547,13.937 C0.561,13.937 0.575,13.937 0.589,13.937 C0.589,13.896 0.589,13.854 0.589,13.812 C0.603,13.812 0.617,13.812 0.631,13.812 C0.645,13.757 0.659,13.701 0.673,13.645 C0.687,13.645 0.702,13.645 0.716,13.645 C0.716,13.618 0.716,13.590 0.716,13.562 C0.744,13.548 0.772,13.534 0.800,13.520 C0.828,13.437 0.856,13.353 0.884,13.270 C0.912,13.256 0.940,13.242 0.969,13.228 C0.969,13.200 0.969,13.173 0.969,13.145 C0.983,13.145 0.997,13.145 1.011,13.145 C1.025,13.103 1.039,13.061 1.053,13.020 C1.081,13.006 1.109,12.992 1.137,12.978 C1.137,12.950 1.137,12.922 1.137,12.894 C1.179,12.867 1.221,12.839 1.264,12.811 C1.264,12.783 1.264,12.755 1.264,12.728 C1.320,12.686 1.376,12.644 1.432,12.602 C1.432,12.575 1.432,12.547 1.432,12.519 C1.545,12.422 1.657,12.324 1.769,12.227 C1.896,12.088 2.022,11.949 2.149,11.810 C2.177,11.810 2.205,11.810 2.233,11.810 C2.275,11.754 2.317,11.699 2.360,11.643 C2.388,11.643 2.416,11.643 2.444,11.643 C2.472,11.601 2.500,11.560 2.528,11.518 C2.556,11.518 2.584,11.518 2.613,11.518 C2.627,11.490 2.641,11.462 2.655,11.434 C2.697,11.420 2.739,11.407 2.781,11.393 C2.781,11.379 2.781,11.365 2.781,11.351 C2.809,11.351 2.837,11.351 2.865,11.351 C2.879,11.323 2.894,11.295 2.908,11.268 C2.964,11.254 3.020,11.240 3.076,11.226 C3.090,11.198 3.104,11.170 3.118,11.142 C3.175,11.128 3.231,11.115 3.287,11.101 C3.287,11.087 3.287,11.073 3.287,11.059 C3.371,11.031 3.456,11.003 3.540,10.975 C3.540,10.962 3.540,10.948 3.540,10.934 C3.610,10.920 3.680,10.906 3.751,10.892 C3.751,10.878 3.751,10.864 3.751,10.850 C3.779,10.850 3.807,10.850 3.835,10.850 C3.835,10.836 3.835,10.823 3.835,10.809 C3.877,10.809 3.919,10.809 3.961,10.809 C3.961,10.795 3.961,10.781 3.961,10.767 C4.004,10.767 4.046,10.767 4.088,10.767 C4.088,10.753 4.088,10.739 4.088,10.725 C4.130,10.725 4.172,10.725 4.214,10.725 C4.214,10.711 4.214,10.697 4.214,10.683 C4.256,10.683 4.299,10.683 4.341,10.683 C4.341,10.670 4.341,10.656 4.341,10.642 C4.397,10.642 4.453,10.642 4.509,10.642 C4.509,10.628 4.509,10.614 4.509,10.600 C4.566,10.600 4.622,10.600 4.678,10.600 C4.678,10.586 4.678,10.572 4.678,10.558 C4.734,10.558 4.790,10.558 4.847,10.558 C4.847,10.544 4.847,10.531 4.847,10.517 C4.917,10.517 4.987,10.517 5.057,10.517 C5.057,10.503 5.057,10.489 5.057,10.475 C5.156,10.475 5.254,10.475 5.352,10.475 C5.352,10.461 5.352,10.447 5.352,10.433 C6.434,10.433 7.516,10.433 8.598,10.433 C11.717,10.433 14.837,10.433 17.956,10.433 C29.702,10.433 41.451,10.433 53.197,10.433 C55.838,10.433 58.480,10.433 61.122,10.433 C61.965,10.433 62.808,10.433 63.651,10.433 C64.073,10.447 64.494,10.461 64.916,10.475 C65.323,10.586 65.731,10.697 66.138,10.809 C66.138,10.823 66.138,10.836 66.138,10.850 C66.194,10.864 66.251,10.878 66.307,10.892 C66.307,10.906 66.307,10.920 66.307,10.934 C66.349,10.934 66.391,10.934 66.433,10.934 C66.433,10.948 66.433,10.962 66.433,10.975 C66.517,11.003 66.602,11.031 66.686,11.059 C66.686,11.073 66.686,11.087 66.686,11.101 C66.742,11.115 66.799,11.128 66.855,11.142 C66.869,11.170 66.883,11.198 66.897,11.226 C66.953,11.240 67.009,11.254 67.065,11.268 C67.080,11.295 67.094,11.323 67.108,11.351 C67.136,11.351 67.164,11.351 67.192,11.351 C67.192,11.365 67.192,11.379 67.192,11.393 C67.234,11.407 67.276,11.420 67.318,11.434 C67.332,11.462 67.346,11.490 67.361,11.518 C67.389,11.518 67.417,11.518 67.445,11.518 C67.473,11.560 67.501,11.601 67.529,11.643 C67.557,11.643 67.585,11.643 67.613,11.643 C67.656,11.699 67.698,11.754 67.740,11.810 C67.768,11.810 67.796,11.810 67.824,11.810 C67.937,11.935 68.049,12.060 68.161,12.185 C68.288,12.297 68.414,12.408 68.541,12.519 C68.541,12.547 68.541,12.575 68.541,12.602 C68.597,12.644 68.653,12.686 68.709,12.728 C68.709,12.755 68.709,12.783 68.709,12.811 C68.752,12.839 68.794,12.867 68.836,12.894 C68.836,12.922 68.836,12.950 68.836,12.978 C68.864,12.992 68.892,13.006 68.920,13.020 C68.934,13.061 68.948,13.103 68.962,13.145 C68.976,13.145 68.990,13.145 69.005,13.145 C69.005,13.173 69.005,13.200 69.005,13.228 C69.033,13.242 69.061,13.256 69.089,13.270 C69.117,13.353 69.145,13.437 69.173,13.520 C69.201,13.534 69.229,13.548 69.257,13.562 C69.272,13.618 69.286,13.673 69.300,13.729 C69.314,13.729 69.328,13.729 69.342,13.729 C69.356,13.784 69.370,13.840 69.384,13.896 C69.398,13.896 69.412,13.896 69.426,13.896 C69.426,13.937 69.426,13.979 69.426,14.021 C69.440,14.021 69.454,14.021 69.468,14.021 C69.468,14.049 69.468,14.076 69.468,14.104 C69.482,14.104 69.496,14.104 69.510,14.104 C69.623,14.466 69.735,14.827 69.848,15.189 C69.848,15.272 69.848,15.356 69.848,15.439 C69.977,15.876 69.932,16.547 69.932,17.108 C69.932,18.359 69.932,19.611 69.932,20.862 ZM0.041,26.035 C18.474,26.035 36.913,26.035 55.347,26.035 C55.347,26.049 55.347,26.063 55.347,26.077 C55.333,26.077 55.319,26.077 55.305,26.077 C55.305,26.091 55.305,26.105 55.305,26.119 C55.248,26.133 55.192,26.147 55.136,26.160 C55.136,26.174 55.136,26.188 55.136,26.202 C55.108,26.202 55.080,26.202 55.052,26.202 C55.052,26.216 55.052,26.230 55.052,26.244 C55.010,26.244 54.967,26.244 54.925,26.244 C54.925,26.258 54.925,26.272 54.925,26.286 C54.897,26.286 54.869,26.286 54.841,26.286 C54.841,26.300 54.841,26.313 54.841,26.327 C54.757,26.355 54.672,26.383 54.588,26.411 C54.588,26.425 54.588,26.439 54.588,26.452 C54.462,26.494 54.335,26.536 54.209,26.578 C54.209,26.592 54.209,26.605 54.209,26.619 C54.181,26.619 54.152,26.619 54.124,26.619 C54.124,26.633 54.124,26.647 54.124,26.661 C54.082,26.661 54.040,26.661 53.998,26.661 C53.998,26.675 53.998,26.689 53.998,26.703 C53.970,26.703 53.942,26.703 53.914,26.703 C53.914,26.717 53.914,26.731 53.914,26.745 C53.857,26.758 53.801,26.772 53.745,26.786 C53.745,26.800 53.745,26.814 53.745,26.828 C53.703,26.828 53.661,26.828 53.618,26.828 C53.618,26.842 53.618,26.856 53.618,26.870 C53.590,26.870 53.562,26.870 53.534,26.870 C53.534,26.884 53.534,26.897 53.534,26.911 C53.478,26.925 53.422,26.939 53.366,26.953 C53.366,26.967 53.366,26.981 53.366,26.995 C53.239,27.037 53.113,27.078 52.986,27.120 C52.986,27.134 52.986,27.148 52.986,27.162 C52.958,27.162 52.930,27.162 52.902,27.162 C52.902,27.176 52.902,27.189 52.902,27.203 C52.860,27.203 52.818,27.203 52.775,27.203 C52.775,27.217 52.775,27.231 52.775,27.245 C52.747,27.245 52.719,27.245 52.691,27.245 C52.691,27.259 52.691,27.273 52.691,27.287 C52.635,27.301 52.579,27.315 52.522,27.329 C52.522,27.342 52.522,27.356 52.522,27.370 C52.480,27.370 52.438,27.370 52.396,27.370 C52.396,27.384 52.396,27.398 52.396,27.412 C52.368,27.412 52.340,27.412 52.312,27.412 C52.312,27.426 52.312,27.440 52.312,27.454 C52.284,27.454 52.255,27.454 52.227,27.454 C52.227,27.468 52.227,27.482 52.227,27.495 C52.199,27.495 52.171,27.495 52.143,27.495 C52.143,27.509 52.143,27.523 52.143,27.537 C52.101,27.537 52.059,27.537 52.017,27.537 C52.017,27.551 52.017,27.565 52.017,27.579 C51.989,27.579 51.960,27.579 51.932,27.579 C51.932,27.593 51.932,27.607 51.932,27.621 C51.848,27.648 51.764,27.676 51.679,27.704 C51.679,27.718 51.679,27.732 51.679,27.746 C51.637,27.746 51.595,27.746 51.553,27.746 C51.553,27.760 51.553,27.774 51.553,27.787 C51.525,27.787 51.497,27.787 51.469,27.787 C51.469,27.801 51.469,27.815 51.469,27.829 C51.412,27.843 51.356,27.857 51.300,27.871 C51.300,27.885 51.300,27.899 51.300,27.913 C51.258,27.913 51.216,27.913 51.174,27.913 C51.174,27.926 51.174,27.940 51.174,27.954 C51.145,27.954 51.117,27.954 51.089,27.954 C51.089,27.968 51.089,27.982 51.089,27.996 C51.061,27.996 51.033,27.996 51.005,27.996 C51.005,28.010 51.005,28.024 51.005,28.038 C50.977,28.038 50.949,28.038 50.921,28.038 C50.921,28.052 50.921,28.066 50.921,28.079 C50.850,28.093 50.780,28.107 50.710,28.121 C50.710,28.135 50.710,28.149 50.710,28.163 C50.654,28.177 50.597,28.191 50.541,28.205 C50.541,28.219 50.541,28.232 50.541,28.246 C50.499,28.246 50.457,28.246 50.415,28.246 C50.415,28.260 50.415,28.274 50.415,28.288 C50.387,28.288 50.359,28.288 50.330,28.288 C50.330,28.302 50.330,28.316 50.330,28.330 C50.246,28.358 50.162,28.385 50.078,28.413 C50.078,28.427 50.078,28.441 50.078,28.455 C50.035,28.455 49.993,28.455 49.951,28.455 C49.951,28.469 49.951,28.483 49.951,28.497 C49.923,28.497 49.895,28.497 49.867,28.497 C49.867,28.511 49.867,28.524 49.867,28.538 C49.811,28.552 49.754,28.566 49.698,28.580 C49.698,28.594 49.698,28.608 49.698,28.622 C49.656,28.622 49.614,28.622 49.572,28.622 C49.572,28.636 49.572,28.650 49.572,28.663 C49.544,28.663 49.515,28.663 49.487,28.663 C49.487,28.677 49.487,28.691 49.487,28.705 C49.431,28.719 49.375,28.733 49.319,28.747 C49.319,28.761 49.319,28.775 49.319,28.789 C49.192,28.830 49.066,28.872 48.939,28.914 C48.939,28.928 48.939,28.942 48.939,28.956 C48.911,28.956 48.883,28.956 48.855,28.956 C48.855,28.969 48.855,28.983 48.855,28.997 C48.813,28.997 48.771,28.997 48.729,28.997 C48.729,29.011 48.729,29.025 48.729,29.039 C48.701,29.039 48.672,29.039 48.644,29.039 C48.644,29.053 48.644,29.067 48.644,29.081 C48.588,29.095 48.532,29.108 48.476,29.122 C48.476,29.136 48.476,29.150 48.476,29.164 C48.434,29.164 48.391,29.164 48.349,29.164 C48.349,29.178 48.349,29.192 48.349,29.206 C48.321,29.206 48.293,29.206 48.265,29.206 C48.265,29.220 48.265,29.234 48.265,29.248 C48.181,29.275 48.096,29.303 48.012,29.331 C48.012,29.345 48.012,29.359 48.012,29.373 C47.970,29.373 47.928,29.373 47.886,29.373 C47.886,29.387 47.886,29.400 47.886,29.414 C47.857,29.414 47.829,29.414 47.801,29.414 C47.801,29.428 47.801,29.442 47.801,29.456 C47.717,29.484 47.633,29.512 47.548,29.540 C47.548,29.553 47.548,29.567 47.548,29.581 C47.506,29.581 47.464,29.581 47.422,29.581 C47.422,29.595 47.422,29.609 47.422,29.623 C47.394,29.623 47.366,29.623 47.338,29.623 C47.338,29.637 47.338,29.651 47.338,29.665 C47.309,29.665 47.281,29.665 47.253,29.665 C47.253,29.679 47.253,29.693 47.253,29.706 C47.225,29.706 47.197,29.706 47.169,29.706 C47.169,29.720 47.169,29.734 47.169,29.748 C47.127,29.748 47.085,29.748 47.042,29.748 C47.042,29.762 47.042,29.776 47.042,29.790 C47.014,29.790 46.986,29.790 46.958,29.790 C46.958,29.804 46.958,29.818 46.958,29.832 C46.874,29.859 46.790,29.887 46.705,29.915 C46.705,29.929 46.705,29.943 46.705,29.957 C46.663,29.957 46.621,29.957 46.579,29.957 C46.579,29.971 46.579,29.985 46.579,29.998 C46.551,29.998 46.523,29.998 46.494,29.998 C46.494,30.012 46.494,30.026 46.494,30.040 C46.466,30.040 46.438,30.040 46.410,30.040 C46.410,30.054 46.410,30.068 46.410,30.082 C46.326,30.110 46.242,30.138 46.157,30.165 C46.157,30.179 46.157,30.193 46.157,30.207 C46.115,30.207 46.073,30.207 46.031,30.207 C46.031,30.221 46.031,30.235 46.031,30.249 C46.003,30.249 45.975,30.249 45.946,30.249 C45.946,30.263 45.946,30.277 45.946,30.290 C45.862,30.318 45.778,30.346 45.694,30.374 C45.694,30.388 45.694,30.402 45.694,30.416 C45.651,30.416 45.609,30.416 45.567,30.416 C45.567,30.430 45.567,30.443 45.567,30.457 C45.539,30.457 45.511,30.457 45.483,30.457 C45.483,30.471 45.483,30.485 45.483,30.499 C45.455,30.499 45.427,30.499 45.398,30.499 C45.398,30.513 45.398,30.527 45.398,30.541 C45.314,30.569 45.230,30.596 45.146,30.624 C45.146,30.638 45.146,30.652 45.146,30.666 C45.103,30.666 45.061,30.666 45.019,30.666 C45.019,30.680 45.019,30.694 45.019,30.708 C44.991,30.708 44.963,30.708 44.935,30.708 C44.935,30.722 44.935,30.735 44.935,30.749 C44.907,30.749 44.879,30.749 44.850,30.749 C44.850,30.763 44.850,30.777 44.850,30.791 C44.766,30.819 44.682,30.847 44.598,30.874 C44.598,30.888 44.598,30.902 44.598,30.916 C44.555,30.916 44.513,30.916 44.471,30.916 C44.471,30.930 44.471,30.944 44.471,30.958 C44.443,30.958 44.415,30.958 44.387,30.958 C44.387,30.972 44.387,30.986 44.387,31.000 C44.359,31.000 44.331,31.000 44.302,31.000 C44.302,31.014 44.302,31.027 44.302,31.041 C44.218,31.069 44.134,31.097 44.050,31.125 C44.050,31.139 44.050,31.153 44.050,31.167 C44.007,31.167 43.965,31.167 43.923,31.167 C43.923,31.180 43.923,31.194 43.923,31.208 C43.867,31.222 43.811,31.236 43.754,31.250 C43.754,31.264 43.754,31.278 43.754,31.292 C29.185,31.292 14.611,31.292 0.041,31.292 C0.041,29.540 0.041,27.787 0.041,26.035 ZM66.813,26.745 C67.401,26.725 67.894,26.776 68.288,26.953 C68.288,26.967 68.288,26.981 68.288,26.995 C68.344,27.009 68.400,27.023 68.457,27.037 C68.457,27.050 68.457,27.064 68.457,27.078 C68.485,27.078 68.513,27.078 68.541,27.078 C68.541,27.092 68.541,27.106 68.541,27.120 C68.583,27.120 68.625,27.120 68.667,27.120 C68.667,27.134 68.667,27.148 68.667,27.162 C68.695,27.162 68.724,27.162 68.752,27.162 C68.752,27.176 68.752,27.189 68.752,27.203 C68.836,27.231 68.920,27.259 69.005,27.287 C69.005,27.301 69.005,27.315 69.005,27.329 C69.075,27.342 69.145,27.356 69.215,27.370 C69.215,27.384 69.215,27.398 69.215,27.412 C69.300,27.440 69.384,27.468 69.468,27.495 C69.468,27.509 69.468,27.523 69.468,27.537 C69.510,27.537 69.553,27.537 69.595,27.537 C69.595,27.551 69.595,27.565 69.595,27.579 C69.623,27.579 69.651,27.579 69.679,27.579 C69.679,27.593 69.679,27.607 69.679,27.621 C69.735,27.634 69.791,27.648 69.848,27.662 C69.848,27.676 69.848,27.690 69.848,27.704 C69.890,27.704 69.932,27.704 69.974,27.704 C69.974,27.718 69.974,27.732 69.974,27.746 C70.002,27.746 70.030,27.746 70.058,27.746 C70.058,27.760 70.058,27.774 70.058,27.787 C70.143,27.815 70.227,27.843 70.311,27.871 C70.311,27.885 70.311,27.899 70.311,27.913 C70.438,27.954 70.564,27.996 70.691,28.038 C70.691,28.052 70.691,28.066 70.691,28.079 C70.719,28.079 70.747,28.079 70.775,28.079 C70.775,28.093 70.775,28.107 70.775,28.121 C70.845,28.135 70.916,28.149 70.986,28.163 C70.986,28.177 70.986,28.191 70.986,28.205 C71.070,28.232 71.154,28.260 71.239,28.288 C71.239,28.302 71.239,28.316 71.239,28.330 C71.281,28.330 71.323,28.330 71.365,28.330 C71.365,28.344 71.365,28.358 71.365,28.371 C71.393,28.371 71.421,28.371 71.449,28.371 C71.449,28.385 71.449,28.399 71.449,28.413 C71.506,28.427 71.562,28.441 71.618,28.455 C71.618,28.469 71.618,28.483 71.618,28.497 C71.660,28.497 71.702,28.497 71.745,28.497 C71.745,28.511 71.745,28.524 71.745,28.538 C71.773,28.538 71.801,28.538 71.829,28.538 C71.829,28.552 71.829,28.566 71.829,28.580 C71.913,28.608 71.997,28.636 72.082,28.663 C72.082,28.677 72.082,28.691 72.082,28.705 C72.124,28.705 72.166,28.705 72.208,28.705 C72.208,28.719 72.208,28.733 72.208,28.747 C72.236,28.747 72.264,28.747 72.293,28.747 C72.293,28.761 72.293,28.775 72.293,28.789 C72.377,28.816 72.461,28.844 72.545,28.872 C72.545,28.886 72.545,28.900 72.545,28.914 C72.588,28.914 72.630,28.914 72.672,28.914 C72.672,28.928 72.672,28.942 72.672,28.956 C72.700,28.956 72.728,28.956 72.756,28.956 C72.756,28.969 72.756,28.983 72.756,28.997 C72.841,29.025 72.925,29.053 73.009,29.081 C73.009,29.095 73.009,29.108 73.009,29.122 C73.051,29.122 73.093,29.122 73.136,29.122 C73.136,29.136 73.136,29.150 73.136,29.164 C73.164,29.164 73.192,29.164 73.220,29.164 C73.220,29.178 73.220,29.192 73.220,29.206 C73.248,29.206 73.276,29.206 73.304,29.206 C73.304,29.220 73.304,29.234 73.304,29.248 C73.332,29.248 73.360,29.248 73.389,29.248 C73.389,29.261 73.389,29.275 73.389,29.289 C73.431,29.289 73.473,29.289 73.515,29.289 C73.515,29.303 73.515,29.317 73.515,29.331 C73.543,29.331 73.571,29.331 73.599,29.331 C73.599,29.345 73.599,29.359 73.599,29.373 C73.684,29.400 73.768,29.428 73.852,29.456 C73.852,29.470 73.852,29.484 73.852,29.498 C73.894,29.498 73.937,29.498 73.979,29.498 C73.979,29.512 73.979,29.526 73.979,29.540 C74.007,29.540 74.035,29.540 74.063,29.540 C74.063,29.553 74.063,29.567 74.063,29.581 C74.147,29.609 74.232,29.637 74.316,29.665 C74.316,29.679 74.316,29.693 74.316,29.706 C74.358,29.706 74.400,29.706 74.442,29.706 C74.442,29.720 74.442,29.734 74.442,29.748 C74.470,29.748 74.499,29.748 74.527,29.748 C74.527,29.762 74.527,29.776 74.527,29.790 C74.583,29.804 74.639,29.818 74.695,29.832 C74.695,29.845 74.695,29.859 74.695,29.873 C74.737,29.873 74.780,29.873 74.822,29.873 C74.822,29.887 74.822,29.901 74.822,29.915 C74.850,29.915 74.878,29.915 74.906,29.915 C74.906,29.929 74.906,29.943 74.906,29.957 C74.990,29.985 75.075,30.012 75.159,30.040 C75.159,30.054 75.159,30.068 75.159,30.082 C75.285,30.124 75.412,30.165 75.538,30.207 C75.538,30.221 75.538,30.235 75.538,30.249 C75.566,30.249 75.595,30.249 75.623,30.249 C75.623,30.263 75.623,30.277 75.623,30.290 C75.693,30.304 75.763,30.318 75.833,30.332 C75.833,30.346 75.833,30.360 75.833,30.374 C75.918,30.402 76.002,30.430 76.086,30.457 C76.086,30.471 76.086,30.485 76.086,30.499 C76.129,30.499 76.171,30.499 76.213,30.499 C76.213,30.513 76.213,30.527 76.213,30.541 C76.241,30.541 76.269,30.541 76.297,30.541 C76.297,30.555 76.297,30.569 76.297,30.582 C76.353,30.596 76.410,30.610 76.466,30.624 C76.466,30.638 76.466,30.652 76.466,30.666 C76.508,30.666 76.550,30.666 76.592,30.666 C76.592,30.680 76.592,30.694 76.592,30.708 C76.620,30.708 76.648,30.708 76.677,30.708 C76.677,30.722 76.677,30.735 76.677,30.749 C76.761,30.777 76.845,30.805 76.929,30.833 C76.929,30.847 76.929,30.861 76.929,30.874 C77.056,30.916 77.182,30.958 77.309,31.000 C77.309,31.014 77.309,31.027 77.309,31.041 C77.337,31.041 77.365,31.041 77.393,31.041 C77.393,31.055 77.393,31.069 77.393,31.083 C77.463,31.097 77.534,31.111 77.604,31.125 C77.604,31.139 77.604,31.153 77.604,31.167 C77.688,31.194 77.773,31.222 77.857,31.250 C77.857,31.264 77.857,31.278 77.857,31.292 C77.899,31.292 77.941,31.292 77.983,31.292 C77.983,31.306 77.983,31.319 77.983,31.333 C78.011,31.333 78.039,31.333 78.068,31.333 C78.068,31.347 78.068,31.361 78.068,31.375 C78.124,31.389 78.180,31.403 78.236,31.417 C78.236,31.431 78.236,31.445 78.236,31.459 C78.278,31.459 78.321,31.459 78.363,31.459 C78.363,31.472 78.363,31.486 78.363,31.500 C78.391,31.500 78.419,31.500 78.447,31.500 C78.447,31.514 78.447,31.528 78.447,31.542 C78.531,31.570 78.616,31.598 78.700,31.625 C78.700,31.639 78.700,31.653 78.700,31.667 C78.826,31.709 78.953,31.751 79.079,31.792 C79.079,31.806 79.079,31.820 79.079,31.834 C79.107,31.834 79.135,31.834 79.164,31.834 C79.164,31.848 79.164,31.862 79.164,31.876 C79.234,31.890 79.304,31.904 79.374,31.917 C79.374,31.931 79.374,31.945 79.374,31.959 C79.459,31.987 79.543,32.015 79.627,32.043 C79.627,32.056 79.627,32.070 79.627,32.084 C79.669,32.084 79.712,32.084 79.754,32.084 C79.754,32.098 79.754,32.112 79.754,32.126 C79.782,32.126 79.810,32.126 79.838,32.126 C79.838,32.140 79.838,32.154 79.838,32.168 C79.894,32.182 79.950,32.196 80.007,32.209 C80.007,32.223 80.007,32.237 80.007,32.251 C80.049,32.251 80.091,32.251 80.133,32.251 C80.133,32.265 80.133,32.279 80.133,32.293 C80.161,32.293 80.189,32.293 80.217,32.293 C80.217,32.307 80.217,32.321 80.217,32.335 C80.302,32.362 80.386,32.390 80.470,32.418 C80.470,32.432 80.470,32.446 80.470,32.460 C80.597,32.501 80.723,32.543 80.850,32.585 C80.850,32.599 80.850,32.613 80.850,32.627 C80.878,32.627 80.906,32.627 80.934,32.627 C80.934,32.641 80.934,32.654 80.934,32.668 C81.004,32.682 81.075,32.696 81.145,32.710 C81.145,32.724 81.145,32.738 81.145,32.752 C81.229,32.780 81.313,32.807 81.398,32.835 C81.398,32.849 81.398,32.863 81.398,32.877 C81.440,32.877 81.482,32.877 81.524,32.877 C81.524,32.891 81.524,32.905 81.524,32.919 C81.552,32.919 81.580,32.919 81.608,32.919 C81.608,32.933 81.608,32.946 81.608,32.960 C81.665,32.974 81.721,32.988 81.777,33.002 C81.777,33.016 81.777,33.030 81.777,33.044 C81.819,33.044 81.861,33.044 81.904,33.044 C81.904,33.058 81.904,33.072 81.904,33.086 C81.932,33.086 81.960,33.086 81.988,33.086 C81.988,33.099 81.988,33.113 81.988,33.127 C82.072,33.155 82.156,33.183 82.241,33.211 C82.241,33.225 82.241,33.238 82.241,33.252 C82.283,33.252 82.325,33.252 82.367,33.252 C82.367,33.266 82.367,33.280 82.367,33.294 C82.395,33.294 82.423,33.294 82.452,33.294 C82.452,33.308 82.452,33.322 82.452,33.336 C82.536,33.364 82.620,33.391 82.704,33.419 C82.704,33.433 82.704,33.447 82.704,33.461 C82.747,33.461 82.789,33.461 82.831,33.461 C82.831,33.475 82.831,33.489 82.831,33.503 C82.859,33.503 82.887,33.503 82.915,33.503 C82.915,33.517 82.915,33.530 82.915,33.544 C83.000,33.572 83.084,33.600 83.168,33.628 C83.168,33.642 83.168,33.656 83.168,33.670 C83.210,33.670 83.252,33.670 83.295,33.670 C83.295,33.683 83.295,33.697 83.295,33.711 C83.323,33.711 83.351,33.711 83.379,33.711 C83.379,33.725 83.379,33.739 83.379,33.753 C83.435,33.767 83.491,33.781 83.548,33.795 C83.548,33.809 83.548,33.823 83.548,33.836 C83.590,33.836 83.632,33.836 83.674,33.836 C83.674,33.850 83.674,33.864 83.674,33.878 C83.702,33.878 83.730,33.878 83.758,33.878 C83.758,33.892 83.758,33.906 83.758,33.920 C83.843,33.948 83.927,33.975 84.011,34.003 C84.011,34.017 84.011,34.031 84.011,34.045 C84.053,34.045 84.096,34.045 84.138,34.045 C84.138,34.059 84.138,34.073 84.138,34.087 C84.166,34.087 84.194,34.087 84.222,34.087 C84.222,34.101 84.222,34.115 84.222,34.128 C84.306,34.156 84.391,34.184 84.475,34.212 C84.475,34.226 84.475,34.240 84.475,34.254 C84.601,34.295 84.728,34.337 84.854,34.379 C84.854,34.393 84.854,34.407 84.854,34.420 C84.882,34.420 84.911,34.420 84.939,34.420 C84.939,34.434 84.939,34.448 84.939,34.462 C84.981,34.462 85.023,34.462 85.065,34.462 C85.065,34.476 85.065,34.490 85.065,34.504 C85.093,34.504 85.121,34.504 85.149,34.504 C85.149,34.518 85.149,34.532 85.149,34.546 C85.177,34.546 85.206,34.546 85.234,34.546 C85.234,34.560 85.234,34.573 85.234,34.587 C85.262,34.587 85.290,34.587 85.318,34.587 C85.318,34.601 85.318,34.615 85.318,34.629 C85.360,34.629 85.402,34.629 85.444,34.629 C85.444,34.643 85.444,34.657 85.444,34.671 C85.473,34.671 85.501,34.671 85.529,34.671 C85.529,34.685 85.529,34.699 85.529,34.712 C85.613,34.740 85.697,34.768 85.782,34.796 C85.782,34.810 85.782,34.824 85.782,34.838 C85.852,34.852 85.922,34.865 85.992,34.879 C85.992,34.893 85.992,34.907 85.992,34.921 C86.077,34.949 86.161,34.977 86.245,35.004 C86.245,35.018 86.245,35.032 86.245,35.046 C86.288,35.046 86.330,35.046 86.372,35.046 C86.372,35.060 86.372,35.074 86.372,35.088 C86.400,35.088 86.428,35.088 86.456,35.088 C86.456,35.102 86.456,35.116 86.456,35.130 C86.540,35.157 86.625,35.185 86.709,35.213 C86.709,35.227 86.709,35.241 86.709,35.255 C86.751,35.255 86.793,35.255 86.836,35.255 C86.836,35.269 86.836,35.283 86.836,35.297 C86.864,35.297 86.892,35.297 86.920,35.297 C86.920,35.310 86.920,35.324 86.920,35.338 C86.976,35.352 87.032,35.366 87.088,35.380 C87.088,35.394 87.088,35.408 87.088,35.422 C87.131,35.422 87.173,35.422 87.215,35.422 C87.215,35.436 87.215,35.449 87.215,35.463 C87.243,35.463 87.271,35.463 87.299,35.463 C87.299,35.477 87.299,35.491 87.299,35.505 C87.384,35.533 87.468,35.561 87.552,35.589 C87.552,35.602 87.552,35.616 87.552,35.630 C87.594,35.630 87.636,35.630 87.679,35.630 C87.679,35.644 87.679,35.658 87.679,35.672 C87.707,35.672 87.735,35.672 87.763,35.672 C87.763,35.686 87.763,35.700 87.763,35.714 C87.847,35.741 87.932,35.769 88.016,35.797 C88.016,35.811 88.016,35.825 88.016,35.839 C88.058,35.839 88.100,35.839 88.142,35.839 C88.142,35.853 88.142,35.867 88.142,35.881 C88.227,35.908 88.311,35.936 88.395,35.964 C88.395,35.978 88.395,35.992 88.395,36.006 C88.423,36.006 88.451,36.006 88.480,36.006 C88.480,36.020 88.480,36.034 88.480,36.047 C88.564,36.075 88.648,36.103 88.732,36.131 C88.747,36.159 88.761,36.186 88.775,36.214 C88.803,36.214 88.831,36.214 88.859,36.214 C88.887,36.256 88.915,36.298 88.943,36.339 C88.971,36.339 88.999,36.339 89.028,36.339 C89.098,36.423 89.168,36.506 89.238,36.590 C89.280,36.618 89.323,36.645 89.365,36.673 C89.365,36.701 89.365,36.729 89.365,36.757 C89.407,36.784 89.449,36.812 89.491,36.840 C89.491,36.868 89.491,36.896 89.491,36.923 C89.519,36.937 89.547,36.951 89.576,36.965 C89.590,37.021 89.604,37.076 89.618,37.132 C89.632,37.132 89.646,37.132 89.660,37.132 C89.688,37.215 89.716,37.299 89.744,37.382 C89.758,37.382 89.772,37.382 89.786,37.382 C89.786,37.424 89.786,37.466 89.786,37.508 C89.800,37.508 89.814,37.508 89.828,37.508 C89.828,37.549 89.828,37.591 89.828,37.633 C89.843,37.633 89.857,37.633 89.871,37.633 C89.871,37.688 89.871,37.744 89.871,37.800 C89.885,37.800 89.899,37.800 89.913,37.800 C89.913,37.869 89.913,37.939 89.913,38.008 C89.927,38.008 89.941,38.008 89.955,38.008 C89.955,38.495 89.955,38.982 89.955,39.468 C89.955,40.817 89.955,42.166 89.955,43.515 C89.955,46.699 89.955,49.884 89.955,53.068 C89.955,53.694 89.955,54.320 89.955,54.945 C89.955,55.268 89.985,55.693 89.913,55.946 C89.913,56.183 89.913,56.419 89.913,56.656 C89.899,56.656 89.885,56.656 89.871,56.656 C89.871,56.836 89.871,57.017 89.871,57.198 C89.857,57.198 89.843,57.198 89.828,57.198 C89.828,57.337 89.828,57.476 89.828,57.615 C89.814,57.615 89.800,57.615 89.786,57.615 C89.786,57.740 89.786,57.865 89.786,57.991 C89.772,57.991 89.758,57.991 89.744,57.991 C89.730,58.213 89.716,58.436 89.702,58.658 C89.592,59.028 89.563,59.508 89.449,59.868 C89.435,60.007 89.421,60.146 89.407,60.285 C89.302,60.614 89.222,61.009 89.112,61.328 C89.098,61.439 89.084,61.550 89.070,61.662 C88.845,62.329 88.620,62.997 88.395,63.664 C88.381,63.664 88.367,63.664 88.353,63.664 C88.353,63.692 88.353,63.720 88.353,63.748 C88.339,63.748 88.325,63.748 88.311,63.748 C88.311,63.789 88.311,63.831 88.311,63.873 C88.297,63.873 88.283,63.873 88.269,63.873 C88.255,63.928 88.241,63.984 88.227,64.040 C88.213,64.040 88.199,64.040 88.184,64.040 C88.184,64.081 88.184,64.123 88.184,64.165 C88.170,64.165 88.156,64.165 88.142,64.165 C88.128,64.220 88.114,64.276 88.100,64.332 C88.086,64.332 88.072,64.332 88.058,64.332 C88.058,64.373 88.058,64.415 88.058,64.457 C88.044,64.457 88.030,64.457 88.016,64.457 C88.016,64.485 88.016,64.512 88.016,64.540 C88.002,64.540 87.988,64.540 87.974,64.540 C87.974,64.568 87.974,64.596 87.974,64.624 C87.960,64.624 87.946,64.624 87.932,64.624 C87.903,64.707 87.875,64.790 87.847,64.874 C87.833,64.874 87.819,64.874 87.805,64.874 C87.805,64.916 87.805,64.957 87.805,64.999 C87.791,64.999 87.777,64.999 87.763,64.999 C87.749,65.055 87.735,65.110 87.721,65.166 C87.707,65.166 87.693,65.166 87.679,65.166 C87.665,65.221 87.651,65.277 87.636,65.333 C87.608,65.347 87.580,65.361 87.552,65.374 C87.552,65.402 87.552,65.430 87.552,65.458 C87.538,65.458 87.524,65.458 87.510,65.458 C87.510,65.486 87.510,65.514 87.510,65.541 C87.496,65.541 87.482,65.541 87.468,65.541 C87.468,65.569 87.468,65.597 87.468,65.625 C87.454,65.625 87.440,65.625 87.426,65.625 C87.426,65.653 87.426,65.680 87.426,65.708 C87.412,65.708 87.398,65.708 87.384,65.708 C87.369,65.764 87.355,65.819 87.341,65.875 C87.313,65.889 87.285,65.903 87.257,65.917 C87.229,66.000 87.201,66.084 87.173,66.167 C87.145,66.181 87.117,66.195 87.088,66.209 C87.074,66.264 87.060,66.320 87.046,66.376 C87.018,66.390 86.990,66.403 86.962,66.417 C86.962,66.445 86.962,66.473 86.962,66.501 C86.934,66.515 86.906,66.529 86.878,66.543 C86.878,66.570 86.878,66.598 86.878,66.626 C86.864,66.626 86.850,66.626 86.836,66.626 C86.836,66.654 86.836,66.682 86.836,66.709 C86.807,66.723 86.779,66.737 86.751,66.751 C86.751,66.779 86.751,66.807 86.751,66.835 C86.723,66.848 86.695,66.862 86.667,66.876 C86.667,66.904 86.667,66.932 86.667,66.960 C86.653,66.960 86.639,66.960 86.625,66.960 C86.611,67.001 86.597,67.043 86.583,67.085 C86.555,67.099 86.526,67.113 86.498,67.127 C86.498,67.154 86.498,67.182 86.498,67.210 C86.470,67.224 86.442,67.238 86.414,67.252 C86.414,67.280 86.414,67.307 86.414,67.335 C86.386,67.349 86.358,67.363 86.330,67.377 C86.316,67.419 86.302,67.460 86.288,67.502 C86.245,67.530 86.203,67.558 86.161,67.585 C86.161,67.613 86.161,67.641 86.161,67.669 C86.119,67.697 86.077,67.725 86.035,67.752 C86.035,67.780 86.035,67.808 86.035,67.836 C85.992,67.864 85.950,67.891 85.908,67.919 C85.908,67.947 85.908,67.975 85.908,68.003 C85.852,68.044 85.796,68.086 85.740,68.128 C85.740,68.156 85.740,68.183 85.740,68.211 C85.683,68.253 85.627,68.295 85.571,68.336 C85.571,68.364 85.571,68.392 85.571,68.420 C85.487,68.489 85.402,68.559 85.318,68.628 C85.318,68.656 85.318,68.684 85.318,68.712 C85.290,68.726 85.262,68.740 85.234,68.754 C85.178,68.823 85.121,68.893 85.065,68.962 C84.981,69.032 84.896,69.101 84.812,69.171 C84.812,69.199 84.812,69.226 84.812,69.254 C84.700,69.351 84.587,69.449 84.475,69.546 C84.447,69.588 84.419,69.630 84.391,69.671 C84.363,69.671 84.334,69.671 84.306,69.671 C84.166,69.824 84.025,69.977 83.885,70.130 C83.857,70.130 83.829,70.130 83.800,70.130 C83.730,70.214 83.660,70.297 83.590,70.381 C83.562,70.381 83.534,70.381 83.505,70.381 C83.449,70.450 83.393,70.520 83.337,70.589 C83.309,70.589 83.281,70.589 83.252,70.589 C83.210,70.645 83.168,70.700 83.126,70.756 C83.098,70.756 83.070,70.756 83.042,70.756 C83.014,70.798 82.986,70.839 82.957,70.881 C82.929,70.881 82.901,70.881 82.873,70.881 C82.845,70.923 82.817,70.965 82.789,71.006 C82.761,71.006 82.733,71.006 82.704,71.006 C82.676,71.048 82.648,71.090 82.620,71.131 C82.592,71.131 82.564,71.131 82.536,71.131 C82.508,71.173 82.480,71.215 82.452,71.257 C82.423,71.257 82.395,71.257 82.367,71.257 C82.339,71.298 82.311,71.340 82.283,71.382 C82.255,71.382 82.227,71.382 82.199,71.382 C82.156,71.437 82.114,71.493 82.072,71.549 C82.044,71.549 82.016,71.549 81.988,71.549 C81.960,71.590 81.932,71.632 81.904,71.674 C81.861,71.688 81.819,71.702 81.777,71.715 C81.763,71.743 81.749,71.771 81.735,71.799 C81.707,71.799 81.679,71.799 81.651,71.799 C81.623,71.841 81.594,71.882 81.566,71.924 C81.538,71.924 81.510,71.924 81.482,71.924 C81.454,71.966 81.426,72.007 81.398,72.049 C81.370,72.049 81.342,72.049 81.313,72.049 C81.285,72.091 81.257,72.133 81.229,72.174 C81.201,72.174 81.173,72.174 81.145,72.174 C81.117,72.216 81.089,72.258 81.060,72.299 C81.032,72.299 81.004,72.299 80.976,72.299 C80.962,72.327 80.948,72.355 80.934,72.383 C80.892,72.397 80.850,72.411 80.808,72.425 C80.779,72.466 80.751,72.508 80.723,72.550 C80.695,72.550 80.667,72.550 80.639,72.550 C80.597,72.605 80.555,72.661 80.512,72.717 C80.484,72.717 80.456,72.717 80.428,72.717 C80.400,72.758 80.372,72.800 80.344,72.842 C80.302,72.856 80.260,72.870 80.217,72.884 C80.203,72.911 80.189,72.939 80.175,72.967 C80.147,72.967 80.119,72.967 80.091,72.967 C80.063,73.009 80.035,73.050 80.007,73.092 C79.979,73.092 79.950,73.092 79.922,73.092 C79.894,73.134 79.866,73.176 79.838,73.217 C79.810,73.217 79.782,73.217 79.754,73.217 C79.726,73.259 79.698,73.301 79.669,73.342 C79.641,73.342 79.613,73.342 79.585,73.342 C79.557,73.384 79.529,73.426 79.501,73.468 C79.473,73.468 79.445,73.468 79.417,73.468 C79.388,73.509 79.360,73.551 79.332,73.593 C79.304,73.593 79.276,73.593 79.248,73.593 C79.234,73.621 79.220,73.648 79.206,73.676 C79.164,73.690 79.121,73.704 79.079,73.718 C79.037,73.773 78.995,73.829 78.953,73.885 C78.925,73.885 78.897,73.885 78.869,73.885 C78.840,73.926 78.812,73.968 78.784,74.010 C78.742,74.024 78.700,74.038 78.658,74.052 C78.644,74.079 78.630,74.107 78.616,74.135 C78.587,74.135 78.559,74.135 78.531,74.135 C78.503,74.177 78.475,74.218 78.447,74.260 C78.419,74.260 78.391,74.260 78.363,74.260 C78.335,74.302 78.306,74.344 78.278,74.385 C78.250,74.385 78.222,74.385 78.194,74.385 C78.166,74.427 78.138,74.469 78.110,74.510 C78.082,74.510 78.054,74.510 78.025,74.510 C77.997,74.552 77.969,74.594 77.941,74.636 C77.913,74.636 77.885,74.636 77.857,74.636 C77.843,74.663 77.829,74.691 77.815,74.719 C77.773,74.733 77.730,74.747 77.688,74.761 C77.660,74.803 77.632,74.844 77.604,74.886 C77.576,74.886 77.548,74.886 77.520,74.886 C77.477,74.942 77.435,74.997 77.393,75.053 C77.365,75.053 77.337,75.053 77.309,75.053 C77.281,75.095 77.253,75.136 77.225,75.178 C77.196,75.178 77.168,75.178 77.140,75.178 C77.112,75.220 77.084,75.261 77.056,75.303 C77.028,75.303 77.000,75.303 76.972,75.303 C76.943,75.345 76.915,75.387 76.887,75.428 C76.859,75.428 76.831,75.428 76.803,75.428 C76.775,75.470 76.747,75.512 76.719,75.553 C76.691,75.553 76.662,75.553 76.634,75.553 C76.606,75.595 76.578,75.637 76.550,75.679 C76.522,75.679 76.494,75.679 76.466,75.679 C76.438,75.720 76.410,75.762 76.381,75.804 C76.353,75.804 76.325,75.804 76.297,75.804 C76.269,75.845 76.241,75.887 76.213,75.929 C76.185,75.929 76.157,75.929 76.129,75.929 C76.100,75.971 76.072,76.012 76.044,76.054 C76.016,76.054 75.988,76.054 75.960,76.054 C75.918,76.110 75.876,76.165 75.833,76.221 C75.805,76.221 75.777,76.221 75.749,76.221 C75.721,76.263 75.693,76.304 75.665,76.346 C75.623,76.360 75.581,76.374 75.538,76.388 C75.524,76.416 75.510,76.443 75.496,76.471 C75.468,76.471 75.440,76.471 75.412,76.471 C75.384,76.513 75.356,76.555 75.328,76.596 C75.299,76.596 75.271,76.596 75.243,76.596 C75.215,76.638 75.187,76.680 75.159,76.721 C75.131,76.721 75.103,76.721 75.075,76.721 C75.047,76.763 75.018,76.805 74.990,76.847 C74.962,76.847 74.934,76.847 74.906,76.847 C74.878,76.888 74.850,76.930 74.822,76.972 C74.794,76.972 74.766,76.972 74.737,76.972 C74.709,77.014 74.681,77.055 74.653,77.097 C74.625,77.097 74.597,77.097 74.569,77.097 C74.541,77.139 74.513,77.180 74.485,77.222 C74.456,77.222 74.428,77.222 74.400,77.222 C74.358,77.278 74.316,77.333 74.274,77.389 C74.246,77.389 74.218,77.389 74.189,77.389 C74.161,77.431 74.133,77.472 74.105,77.514 C74.077,77.514 74.049,77.514 74.021,77.514 C73.993,77.556 73.965,77.598 73.937,77.639 C73.908,77.639 73.880,77.639 73.852,77.639 C73.838,77.667 73.824,77.695 73.810,77.723 C73.768,77.737 73.726,77.751 73.684,77.764 C73.656,77.806 73.627,77.848 73.599,77.890 C73.571,77.890 73.543,77.890 73.515,77.890 C73.487,77.931 73.459,77.973 73.431,78.015 C73.403,78.015 73.374,78.015 73.346,78.015 C73.318,78.056 73.290,78.098 73.262,78.140 C73.234,78.140 73.206,78.140 73.178,78.140 C73.150,78.182 73.122,78.223 73.093,78.265 C73.065,78.265 73.037,78.265 73.009,78.265 C72.981,78.307 72.953,78.348 72.925,78.390 C72.897,78.390 72.869,78.390 72.841,78.390 C72.812,78.432 72.784,78.474 72.756,78.515 C72.728,78.515 72.700,78.515 72.672,78.515 C72.630,78.571 72.588,78.627 72.545,78.682 C72.517,78.682 72.489,78.682 72.461,78.682 C72.433,78.724 72.405,78.766 72.377,78.807 C72.349,78.807 72.321,78.807 72.293,78.807 C72.264,78.849 72.236,78.891 72.208,78.932 C72.180,78.932 72.152,78.932 72.124,78.932 C72.096,78.974 72.068,79.016 72.040,79.058 C72.012,79.058 71.983,79.058 71.955,79.058 C71.941,79.085 71.927,79.113 71.913,79.141 C71.871,79.155 71.829,79.169 71.787,79.183 C71.759,79.225 71.730,79.266 71.702,79.308 C71.674,79.308 71.646,79.308 71.618,79.308 C71.590,79.350 71.562,79.391 71.534,79.433 C71.506,79.433 71.478,79.433 71.449,79.433 C71.421,79.475 71.393,79.517 71.365,79.558 C71.337,79.558 71.309,79.558 71.281,79.558 C71.253,79.600 71.225,79.642 71.197,79.683 C71.168,79.683 71.140,79.683 71.112,79.683 C71.070,79.739 71.028,79.795 70.986,79.850 C70.958,79.850 70.930,79.850 70.901,79.850 C70.873,79.892 70.845,79.934 70.817,79.975 C70.789,79.975 70.761,79.975 70.733,79.975 C70.705,80.017 70.677,80.059 70.649,80.101 C70.620,80.101 70.592,80.101 70.564,80.101 C70.536,80.142 70.508,80.184 70.480,80.226 C70.452,80.226 70.424,80.226 70.396,80.226 C70.368,80.267 70.339,80.309 70.311,80.351 C70.283,80.351 70.255,80.351 70.227,80.351 C70.213,80.379 70.199,80.406 70.185,80.434 C70.143,80.448 70.101,80.462 70.058,80.476 C70.030,80.518 70.002,80.559 69.974,80.601 C69.946,80.601 69.918,80.601 69.890,80.601 C69.862,80.643 69.834,80.685 69.805,80.726 C69.777,80.726 69.749,80.726 69.721,80.726 C69.693,80.768 69.665,80.810 69.637,80.851 C69.609,80.851 69.581,80.851 69.553,80.851 C69.510,80.907 69.468,80.963 69.426,81.018 C69.398,81.018 69.370,81.018 69.342,81.018 C69.314,81.060 69.286,81.102 69.257,81.143 C69.229,81.143 69.201,81.143 69.173,81.143 C69.145,81.185 69.117,81.227 69.089,81.269 C69.061,81.269 69.033,81.269 69.005,81.269 C68.976,81.310 68.948,81.352 68.920,81.394 C68.892,81.394 68.864,81.394 68.836,81.394 C68.808,81.436 68.780,81.477 68.752,81.519 C68.724,81.519 68.695,81.519 68.667,81.519 C68.653,81.547 68.639,81.575 68.625,81.602 C68.569,81.616 68.513,81.630 68.457,81.644 C68.442,81.672 68.428,81.700 68.414,81.728 C68.372,81.728 68.330,81.728 68.288,81.728 C68.288,81.741 68.288,81.755 68.288,81.769 C68.232,81.783 68.176,81.797 68.119,81.811 C68.119,81.825 68.119,81.839 68.119,81.853 C67.951,81.880 67.782,81.908 67.613,81.936 C67.613,81.950 67.613,81.964 67.613,81.978 C67.425,82.032 66.898,81.974 66.770,81.936 C66.700,81.936 66.630,81.936 66.560,81.936 C66.560,81.922 66.560,81.908 66.560,81.894 C66.461,81.880 66.363,81.867 66.265,81.853 C66.265,81.839 66.265,81.825 66.265,81.811 C66.236,81.811 66.208,81.811 66.180,81.811 C66.180,81.797 66.180,81.783 66.180,81.769 C66.138,81.769 66.096,81.769 66.054,81.769 C66.054,81.755 66.054,81.741 66.054,81.728 C66.026,81.728 65.998,81.728 65.969,81.728 C65.955,81.700 65.941,81.672 65.927,81.644 C65.871,81.630 65.815,81.616 65.759,81.602 C65.745,81.575 65.731,81.547 65.717,81.519 C65.688,81.519 65.660,81.519 65.632,81.519 C65.604,81.477 65.576,81.436 65.548,81.394 C65.520,81.394 65.492,81.394 65.464,81.394 C65.436,81.352 65.407,81.310 65.379,81.269 C65.351,81.269 65.323,81.269 65.295,81.269 C65.267,81.227 65.239,81.185 65.211,81.143 C65.183,81.143 65.155,81.143 65.126,81.143 C65.098,81.102 65.070,81.060 65.042,81.018 C65.014,81.018 64.986,81.018 64.958,81.018 C64.930,80.977 64.902,80.935 64.873,80.893 C64.845,80.893 64.817,80.893 64.789,80.893 C64.761,80.851 64.733,80.810 64.705,80.768 C64.677,80.768 64.649,80.768 64.621,80.768 C64.592,80.726 64.564,80.685 64.536,80.643 C64.508,80.643 64.480,80.643 64.452,80.643 C64.410,80.587 64.368,80.532 64.325,80.476 C64.283,80.462 64.241,80.448 64.199,80.434 C64.185,80.406 64.171,80.379 64.157,80.351 C64.129,80.351 64.101,80.351 64.073,80.351 C64.044,80.309 64.016,80.267 63.988,80.226 C63.960,80.226 63.932,80.226 63.904,80.226 C63.876,80.184 63.848,80.142 63.820,80.101 C63.792,80.101 63.763,80.101 63.735,80.101 C63.707,80.059 63.679,80.017 63.651,79.975 C63.623,79.975 63.595,79.975 63.567,79.975 C63.539,79.934 63.511,79.892 63.482,79.850 C63.454,79.850 63.426,79.850 63.398,79.850 C63.370,79.809 63.342,79.767 63.314,79.725 C63.286,79.725 63.258,79.725 63.229,79.725 C63.201,79.683 63.173,79.642 63.145,79.600 C63.117,79.600 63.089,79.600 63.061,79.600 C63.033,79.558 63.005,79.517 62.977,79.475 C62.948,79.475 62.920,79.475 62.892,79.475 C62.864,79.433 62.836,79.391 62.808,79.350 C62.780,79.350 62.752,79.350 62.724,79.350 C62.681,79.294 62.639,79.238 62.597,79.183 C62.569,79.183 62.541,79.183 62.513,79.183 C62.485,79.141 62.457,79.099 62.429,79.058 C62.386,79.044 62.344,79.030 62.302,79.016 C62.288,78.988 62.274,78.960 62.260,78.932 C62.232,78.932 62.204,78.932 62.176,78.932 C62.148,78.891 62.119,78.849 62.091,78.807 C62.063,78.807 62.035,78.807 62.007,78.807 C61.979,78.766 61.951,78.724 61.923,78.682 C61.895,78.682 61.867,78.682 61.838,78.682 C61.810,78.640 61.782,78.599 61.754,78.557 C61.726,78.557 61.698,78.557 61.670,78.557 C61.642,78.515 61.614,78.474 61.585,78.432 C61.557,78.432 61.529,78.432 61.501,78.432 C61.473,78.390 61.445,78.348 61.417,78.307 C61.389,78.307 61.361,78.307 61.333,78.307 C61.304,78.265 61.276,78.223 61.248,78.182 C61.220,78.182 61.192,78.182 61.164,78.182 C61.136,78.140 61.108,78.098 61.080,78.056 C61.052,78.056 61.023,78.056 60.995,78.056 C60.967,78.015 60.939,77.973 60.911,77.931 C60.883,77.931 60.855,77.931 60.827,77.931 C60.785,77.876 60.742,77.820 60.700,77.764 C60.672,77.764 60.644,77.764 60.616,77.764 C60.588,77.723 60.560,77.681 60.532,77.639 C60.490,77.625 60.447,77.611 60.405,77.598 C60.391,77.570 60.377,77.542 60.363,77.514 C60.335,77.514 60.307,77.514 60.279,77.514 C60.251,77.472 60.223,77.431 60.194,77.389 C60.166,77.389 60.138,77.389 60.110,77.389 C60.082,77.347 60.054,77.306 60.026,77.264 C59.998,77.264 59.970,77.264 59.942,77.264 C59.913,77.222 59.885,77.180 59.857,77.139 C59.829,77.139 59.801,77.139 59.773,77.139 C59.745,77.097 59.717,77.055 59.689,77.014 C59.660,77.014 59.632,77.014 59.604,77.014 C59.576,76.972 59.548,76.930 59.520,76.888 C59.492,76.888 59.464,76.888 59.436,76.888 C59.422,76.861 59.408,76.833 59.394,76.805 C59.351,76.791 59.309,76.777 59.267,76.763 C59.239,76.721 59.211,76.680 59.183,76.638 C59.155,76.638 59.127,76.638 59.098,76.638 C59.056,76.582 59.014,76.527 58.972,76.471 C58.944,76.471 58.916,76.471 58.888,76.471 C58.860,76.429 58.831,76.388 58.803,76.346 C58.775,76.346 58.747,76.346 58.719,76.346 C58.691,76.304 58.663,76.263 58.635,76.221 C58.607,76.221 58.579,76.221 58.550,76.221 C58.522,76.179 58.494,76.137 58.466,76.096 C58.438,76.096 58.410,76.096 58.382,76.096 C58.354,76.054 58.326,76.012 58.298,75.971 C58.269,75.971 58.241,75.971 58.213,75.971 C58.199,75.943 58.185,75.915 58.171,75.887 C58.129,75.873 58.087,75.859 58.045,75.845 C58.016,75.804 57.988,75.762 57.960,75.720 C57.932,75.720 57.904,75.720 57.876,75.720 C57.848,75.679 57.820,75.637 57.792,75.595 C57.764,75.595 57.735,75.595 57.707,75.595 C57.679,75.553 57.651,75.512 57.623,75.470 C57.595,75.470 57.567,75.470 57.539,75.470 C57.511,75.428 57.483,75.387 57.454,75.345 C57.426,75.345 57.398,75.345 57.370,75.345 C57.328,75.289 57.286,75.234 57.244,75.178 C57.216,75.178 57.187,75.178 57.159,75.178 C57.131,75.136 57.103,75.095 57.075,75.053 C57.047,75.053 57.019,75.053 56.991,75.053 C56.963,75.011 56.935,74.969 56.906,74.928 C56.878,74.928 56.850,74.928 56.822,74.928 C56.794,74.886 56.766,74.844 56.738,74.803 C56.710,74.803 56.682,74.803 56.654,74.803 C56.625,74.761 56.597,74.719 56.569,74.677 C56.541,74.677 56.513,74.677 56.485,74.677 C56.457,74.636 56.429,74.594 56.401,74.552 C56.372,74.552 56.344,74.552 56.316,74.552 C56.288,74.510 56.260,74.469 56.232,74.427 C56.204,74.427 56.176,74.427 56.148,74.427 C56.120,74.385 56.091,74.344 56.063,74.302 C56.035,74.302 56.007,74.302 55.979,74.302 C55.951,74.260 55.923,74.218 55.895,74.177 C55.867,74.177 55.839,74.177 55.810,74.177 C55.782,74.135 55.754,74.093 55.726,74.052 C55.698,74.052 55.670,74.052 55.642,74.052 C55.614,74.010 55.586,73.968 55.558,73.926 C55.529,73.926 55.501,73.926 55.473,73.926 C55.431,73.871 55.389,73.815 55.347,73.760 C55.319,73.760 55.291,73.760 55.262,73.760 C55.234,73.718 55.206,73.676 55.178,73.634 C55.136,73.621 55.094,73.607 55.052,73.593 C55.038,73.565 55.024,73.537 55.010,73.509 C54.981,73.509 54.953,73.509 54.925,73.509 C54.897,73.468 54.869,73.426 54.841,73.384 C54.813,73.384 54.785,73.384 54.757,73.384 C54.729,73.342 54.700,73.301 54.672,73.259 C54.644,73.259 54.616,73.259 54.588,73.259 C54.560,73.217 54.532,73.176 54.504,73.134 C54.476,73.134 54.447,73.134 54.419,73.134 C54.391,73.092 54.363,73.050 54.335,73.009 C54.307,73.009 54.279,73.009 54.251,73.009 C54.223,72.967 54.195,72.925 54.166,72.884 C54.138,72.884 54.110,72.884 54.082,72.884 C54.054,72.842 54.026,72.800 53.998,72.758 C53.970,72.758 53.942,72.758 53.914,72.758 C53.885,72.717 53.857,72.675 53.829,72.633 C53.801,72.633 53.773,72.633 53.745,72.633 C53.703,72.578 53.661,72.522 53.618,72.466 C53.590,72.466 53.562,72.466 53.534,72.466 C53.506,72.425 53.478,72.383 53.450,72.341 C53.422,72.341 53.394,72.341 53.366,72.341 C53.337,72.299 53.309,72.258 53.281,72.216 C53.253,72.216 53.225,72.216 53.197,72.216 C53.169,72.174 53.141,72.133 53.113,72.091 C53.085,72.091 53.056,72.091 53.028,72.091 C53.000,72.049 52.972,72.007 52.944,71.966 C52.916,71.966 52.888,71.966 52.860,71.966 C52.832,71.924 52.803,71.882 52.775,71.841 C52.747,71.841 52.719,71.841 52.691,71.841 C52.663,71.799 52.635,71.757 52.607,71.715 C52.579,71.715 52.551,71.715 52.522,71.715 C52.494,71.674 52.466,71.632 52.438,71.590 C52.410,71.590 52.382,71.590 52.354,71.590 C52.340,71.562 52.326,71.535 52.312,71.507 C52.270,71.493 52.227,71.479 52.185,71.465 C52.157,71.423 52.129,71.382 52.101,71.340 C52.073,71.340 52.045,71.340 52.017,71.340 C51.974,71.284 51.932,71.229 51.890,71.173 C51.862,71.173 51.834,71.173 51.806,71.173 C51.778,71.131 51.750,71.090 51.722,71.048 C51.693,71.048 51.665,71.048 51.637,71.048 C51.609,71.006 51.581,70.965 51.553,70.923 C51.525,70.923 51.497,70.923 51.469,70.923 C51.441,70.881 51.412,70.839 51.384,70.798 C51.356,70.798 51.328,70.798 51.300,70.798 C51.258,70.742 51.216,70.686 51.174,70.631 C51.145,70.631 51.117,70.631 51.089,70.631 C51.047,70.575 51.005,70.520 50.963,70.464 C50.935,70.464 50.907,70.464 50.878,70.464 C50.822,70.394 50.766,70.325 50.710,70.255 C50.682,70.255 50.654,70.255 50.626,70.255 C50.527,70.144 50.429,70.033 50.330,69.922 C50.302,69.922 50.274,69.922 50.246,69.922 C50.176,69.838 50.106,69.755 50.035,69.671 C49.782,69.435 49.530,69.199 49.277,68.962 C49.277,68.934 49.277,68.907 49.277,68.879 C49.164,68.781 49.052,68.684 48.939,68.587 C48.939,68.559 48.939,68.531 48.939,68.503 C48.911,68.489 48.883,68.475 48.855,68.462 C48.855,68.448 48.855,68.434 48.855,68.420 C48.813,68.392 48.771,68.364 48.729,68.336 C48.729,68.309 48.729,68.281 48.729,68.253 C48.672,68.211 48.616,68.170 48.560,68.128 C48.560,68.100 48.560,68.072 48.560,68.044 C48.532,68.030 48.504,68.017 48.476,68.003 C48.476,67.989 48.476,67.975 48.476,67.961 C48.448,67.947 48.419,67.933 48.391,67.919 C48.391,67.891 48.391,67.864 48.391,67.836 C48.349,67.808 48.307,67.780 48.265,67.752 C48.265,67.725 48.265,67.697 48.265,67.669 C48.223,67.641 48.181,67.613 48.138,67.585 C48.124,67.544 48.110,67.502 48.096,67.460 C48.068,67.446 48.040,67.433 48.012,67.419 C48.012,67.391 48.012,67.363 48.012,67.335 C47.984,67.321 47.956,67.307 47.928,67.293 C47.914,67.252 47.900,67.210 47.886,67.168 C47.872,67.168 47.857,67.168 47.843,67.168 C47.843,67.140 47.843,67.113 47.843,67.085 C47.815,67.071 47.787,67.057 47.759,67.043 C47.759,67.015 47.759,66.988 47.759,66.960 C47.731,66.946 47.703,66.932 47.675,66.918 C47.675,66.890 47.675,66.862 47.675,66.835 C47.647,66.821 47.619,66.807 47.590,66.793 C47.590,66.765 47.590,66.737 47.590,66.709 C47.562,66.696 47.534,66.682 47.506,66.668 C47.492,66.626 47.478,66.584 47.464,66.543 C47.450,66.543 47.436,66.543 47.422,66.543 C47.422,66.515 47.422,66.487 47.422,66.459 C47.408,66.459 47.394,66.459 47.380,66.459 C47.380,66.431 47.380,66.403 47.380,66.376 C47.352,66.362 47.323,66.348 47.295,66.334 C47.281,66.278 47.267,66.223 47.253,66.167 C47.225,66.153 47.197,66.139 47.169,66.125 C47.155,66.070 47.141,66.014 47.127,65.959 C47.113,65.959 47.099,65.959 47.085,65.959 C47.085,65.931 47.085,65.903 47.085,65.875 C47.057,65.861 47.028,65.847 47.000,65.833 C47.000,65.806 47.000,65.778 47.000,65.750 C46.986,65.750 46.972,65.750 46.958,65.750 C46.958,65.722 46.958,65.694 46.958,65.666 C46.944,65.666 46.930,65.666 46.916,65.666 C46.916,65.639 46.916,65.611 46.916,65.583 C46.902,65.583 46.888,65.583 46.874,65.583 C46.874,65.555 46.874,65.527 46.874,65.500 C46.860,65.500 46.846,65.500 46.832,65.500 C46.832,65.472 46.832,65.444 46.832,65.416 C46.818,65.416 46.804,65.416 46.790,65.416 C46.790,65.388 46.790,65.361 46.790,65.333 C46.776,65.333 46.761,65.333 46.747,65.333 C46.733,65.277 46.719,65.221 46.705,65.166 C46.691,65.166 46.677,65.166 46.663,65.166 C46.663,65.138 46.663,65.110 46.663,65.082 C46.649,65.082 46.635,65.082 46.621,65.082 C46.621,65.055 46.621,65.027 46.621,64.999 C46.607,64.999 46.593,64.999 46.579,64.999 C46.579,64.971 46.579,64.943 46.579,64.916 C46.565,64.916 46.551,64.916 46.537,64.916 C46.537,64.888 46.537,64.860 46.537,64.832 C46.523,64.832 46.509,64.832 46.494,64.832 C46.494,64.804 46.494,64.777 46.494,64.749 C46.480,64.749 46.466,64.749 46.452,64.749 C46.438,64.693 46.424,64.637 46.410,64.582 C46.396,64.582 46.382,64.582 46.368,64.582 C46.368,64.554 46.368,64.526 46.368,64.498 C46.354,64.498 46.340,64.498 46.326,64.498 C46.326,64.457 46.326,64.415 46.326,64.373 C46.312,64.373 46.298,64.373 46.284,64.373 C46.270,64.318 46.256,64.262 46.242,64.206 C46.228,64.206 46.213,64.206 46.199,64.206 C46.199,64.165 46.199,64.123 46.199,64.081 C46.185,64.081 46.171,64.081 46.157,64.081 C46.143,64.026 46.129,63.970 46.115,63.914 C46.101,63.914 46.087,63.914 46.073,63.914 C46.073,63.873 46.073,63.831 46.073,63.789 C46.059,63.789 46.045,63.789 46.031,63.789 C46.031,63.761 46.031,63.734 46.031,63.706 C46.017,63.706 46.003,63.706 45.989,63.706 C45.989,63.664 45.989,63.622 45.989,63.581 C45.975,63.581 45.961,63.581 45.946,63.581 C45.946,63.553 45.946,63.525 45.946,63.497 C45.932,63.497 45.918,63.497 45.904,63.497 C45.876,63.372 45.848,63.247 45.820,63.122 C45.806,63.122 45.792,63.122 45.778,63.122 C45.778,63.094 45.778,63.066 45.778,63.038 C45.764,63.038 45.750,63.038 45.736,63.038 C45.722,62.955 45.708,62.871 45.694,62.788 C45.680,62.788 45.665,62.788 45.651,62.788 C45.651,62.746 45.651,62.705 45.651,62.663 C45.637,62.663 45.623,62.663 45.609,62.663 C45.609,62.621 45.609,62.579 45.609,62.538 C45.595,62.538 45.581,62.538 45.567,62.538 C45.567,62.496 45.567,62.454 45.567,62.413 C45.553,62.413 45.539,62.413 45.525,62.413 C45.525,62.371 45.525,62.329 45.525,62.287 C45.511,62.287 45.497,62.287 45.483,62.287 C45.483,62.232 45.483,62.176 45.483,62.121 C45.469,62.121 45.455,62.121 45.441,62.121 C45.441,62.079 45.441,62.037 45.441,61.995 C45.427,61.995 45.413,61.995 45.398,61.995 C45.398,61.954 45.398,61.912 45.398,61.870 C45.384,61.870 45.370,61.870 45.356,61.870 C45.356,61.815 45.356,61.759 45.356,61.703 C45.342,61.703 45.328,61.703 45.314,61.703 C45.314,61.662 45.314,61.620 45.314,61.578 C45.300,61.578 45.286,61.578 45.272,61.578 C45.272,61.523 45.272,61.467 45.272,61.411 C45.258,61.411 45.244,61.411 45.230,61.411 C45.230,61.356 45.230,61.300 45.230,61.244 C45.216,61.244 45.202,61.244 45.188,61.244 C45.188,61.189 45.188,61.133 45.188,61.078 C45.174,61.078 45.160,61.078 45.146,61.078 C45.132,60.966 45.117,60.855 45.103,60.744 C45.089,60.744 45.075,60.744 45.061,60.744 C45.033,60.563 45.005,60.382 44.977,60.202 C44.963,60.202 44.949,60.202 44.935,60.202 C44.822,59.520 44.710,58.839 44.598,58.157 C44.584,57.907 44.569,57.657 44.555,57.407 C44.541,57.407 44.527,57.407 44.513,57.407 C44.485,56.975 44.457,56.544 44.429,56.113 C44.429,55.863 44.429,55.613 44.429,55.362 C44.415,55.362 44.401,55.362 44.387,55.362 C44.387,54.570 44.387,53.777 44.387,52.985 C44.387,51.316 44.387,49.647 44.387,47.978 C44.387,45.573 44.387,43.167 44.387,40.761 C44.387,39.646 44.246,38.094 44.598,37.299 C44.612,37.299 44.626,37.299 44.640,37.299 C44.654,37.243 44.668,37.188 44.682,37.132 C44.696,37.132 44.710,37.132 44.724,37.132 C44.724,37.104 44.724,37.076 44.724,37.049 C44.752,37.035 44.780,37.021 44.808,37.007 C44.808,36.979 44.808,36.951 44.808,36.923 C44.836,36.910 44.865,36.896 44.893,36.882 C44.893,36.854 44.893,36.826 44.893,36.798 C44.949,36.757 45.005,36.715 45.061,36.673 C45.061,36.645 45.061,36.618 45.061,36.590 C45.117,36.548 45.174,36.506 45.230,36.465 C45.244,36.437 45.258,36.409 45.272,36.381 C45.300,36.381 45.328,36.381 45.356,36.381 C45.398,36.326 45.441,36.270 45.483,36.214 C45.511,36.214 45.539,36.214 45.567,36.214 C45.581,36.186 45.595,36.159 45.609,36.131 C45.665,36.117 45.722,36.103 45.778,36.089 C45.778,36.075 45.778,36.061 45.778,36.047 C45.806,36.047 45.834,36.047 45.862,36.047 C45.862,36.034 45.862,36.020 45.862,36.006 C45.946,35.978 46.031,35.950 46.115,35.922 C46.115,35.908 46.115,35.894 46.115,35.881 C46.157,35.881 46.199,35.881 46.242,35.881 C46.242,35.867 46.242,35.853 46.242,35.839 C46.270,35.839 46.298,35.839 46.326,35.839 C46.326,35.825 46.326,35.811 46.326,35.797 C46.382,35.783 46.438,35.769 46.494,35.755 C46.494,35.741 46.494,35.728 46.494,35.714 C46.537,35.714 46.579,35.714 46.621,35.714 C46.621,35.700 46.621,35.686 46.621,35.672 C46.649,35.672 46.677,35.672 46.705,35.672 C46.705,35.658 46.705,35.644 46.705,35.630 C46.790,35.602 46.874,35.575 46.958,35.547 C46.958,35.533 46.958,35.519 46.958,35.505 C47.000,35.505 47.042,35.505 47.085,35.505 C47.085,35.491 47.085,35.477 47.085,35.463 C47.113,35.463 47.141,35.463 47.169,35.463 C47.169,35.449 47.169,35.436 47.169,35.422 C47.253,35.394 47.338,35.366 47.422,35.338 C47.422,35.324 47.422,35.310 47.422,35.297 C47.492,35.283 47.562,35.269 47.633,35.255 C47.633,35.241 47.633,35.227 47.633,35.213 C47.717,35.185 47.801,35.157 47.886,35.130 C47.886,35.116 47.886,35.102 47.886,35.088 C47.928,35.088 47.970,35.088 48.012,35.088 C48.012,35.074 48.012,35.060 48.012,35.046 C48.040,35.046 48.068,35.046 48.096,35.046 C48.096,35.032 48.096,35.018 48.096,35.004 C48.153,34.991 48.209,34.977 48.265,34.963 C48.265,34.949 48.265,34.935 48.265,34.921 C48.307,34.921 48.349,34.921 48.391,34.921 C48.391,34.907 48.391,34.893 48.391,34.879 C48.419,34.879 48.448,34.879 48.476,34.879 C48.476,34.865 48.476,34.852 48.476,34.838 C48.560,34.810 48.644,34.782 48.729,34.754 C48.729,34.740 48.729,34.726 48.729,34.712 C48.771,34.712 48.813,34.712 48.855,34.712 C48.855,34.699 48.855,34.685 48.855,34.671 C48.883,34.671 48.911,34.671 48.939,34.671 C48.939,34.657 48.939,34.643 48.939,34.629 C49.024,34.601 49.108,34.573 49.192,34.546 C49.192,34.532 49.192,34.518 49.192,34.504 C49.234,34.504 49.277,34.504 49.319,34.504 C49.319,34.490 49.319,34.476 49.319,34.462 C49.347,34.462 49.375,34.462 49.403,34.462 C49.403,34.448 49.403,34.434 49.403,34.420 C49.487,34.393 49.572,34.365 49.656,34.337 C49.656,34.323 49.656,34.309 49.656,34.295 C49.698,34.295 49.740,34.295 49.782,34.295 C49.782,34.281 49.782,34.267 49.782,34.254 C49.811,34.254 49.839,34.254 49.867,34.254 C49.867,34.240 49.867,34.226 49.867,34.212 C49.923,34.198 49.979,34.184 50.035,34.170 C50.035,34.156 50.035,34.142 50.035,34.128 C50.078,34.128 50.120,34.128 50.162,34.128 C50.162,34.115 50.162,34.101 50.162,34.087 C50.190,34.087 50.218,34.087 50.246,34.087 C50.246,34.073 50.246,34.059 50.246,34.045 C50.330,34.017 50.415,33.989 50.499,33.962 C50.499,33.948 50.499,33.934 50.499,33.920 C50.626,33.878 50.752,33.836 50.878,33.795 C50.878,33.781 50.878,33.767 50.878,33.753 C50.907,33.753 50.935,33.753 50.963,33.753 C50.963,33.739 50.963,33.725 50.963,33.711 C51.005,33.711 51.047,33.711 51.089,33.711 C51.089,33.697 51.089,33.683 51.089,33.670 C51.117,33.670 51.145,33.670 51.174,33.670 C51.174,33.656 51.174,33.642 51.174,33.628 C51.230,33.614 51.286,33.600 51.342,33.586 C51.342,33.572 51.342,33.558 51.342,33.544 C51.384,33.544 51.426,33.544 51.469,33.544 C51.469,33.530 51.469,33.517 51.469,33.503 C51.497,33.503 51.525,33.503 51.553,33.503 C51.553,33.489 51.553,33.475 51.553,33.461 C51.637,33.433 51.722,33.405 51.806,33.378 C51.806,33.364 51.806,33.350 51.806,33.336 C51.932,33.294 52.059,33.252 52.185,33.211 C52.185,33.197 52.185,33.183 52.185,33.169 C52.213,33.169 52.241,33.169 52.270,33.169 C52.270,33.155 52.270,33.141 52.270,33.127 C52.312,33.127 52.354,33.127 52.396,33.127 C52.396,33.113 52.396,33.099 52.396,33.086 C52.424,33.086 52.452,33.086 52.480,33.086 C52.480,33.072 52.480,33.058 52.480,33.044 C52.565,33.016 52.649,32.988 52.733,32.960 C52.733,32.946 52.733,32.933 52.733,32.919 C52.775,32.919 52.818,32.919 52.860,32.919 C52.860,32.905 52.860,32.891 52.860,32.877 C52.888,32.877 52.916,32.877 52.944,32.877 C52.944,32.863 52.944,32.849 52.944,32.835 C53.000,32.821 53.056,32.807 53.113,32.793 C53.113,32.780 53.113,32.766 53.113,32.752 C53.155,32.752 53.197,32.752 53.239,32.752 C53.239,32.738 53.239,32.724 53.239,32.710 C53.267,32.710 53.295,32.710 53.323,32.710 C53.323,32.696 53.323,32.682 53.323,32.668 C53.408,32.641 53.492,32.613 53.576,32.585 C53.576,32.571 53.576,32.557 53.576,32.543 C53.703,32.501 53.829,32.460 53.956,32.418 C53.956,32.404 53.956,32.390 53.956,32.376 C53.984,32.376 54.012,32.376 54.040,32.376 C54.040,32.362 54.040,32.348 54.040,32.335 C54.082,32.335 54.124,32.335 54.166,32.335 C54.166,32.321 54.166,32.307 54.166,32.293 C54.195,32.293 54.223,32.293 54.251,32.293 C54.251,32.279 54.251,32.265 54.251,32.251 C54.307,32.237 54.363,32.223 54.419,32.209 C54.419,32.196 54.419,32.182 54.419,32.168 C54.462,32.168 54.504,32.168 54.546,32.168 C54.546,32.154 54.546,32.140 54.546,32.126 C54.574,32.126 54.602,32.126 54.630,32.126 C54.630,32.112 54.630,32.098 54.630,32.084 C54.714,32.056 54.799,32.029 54.883,32.001 C54.883,31.987 54.883,31.973 54.883,31.959 C55.010,31.917 55.136,31.876 55.262,31.834 C55.262,31.820 55.262,31.806 55.262,31.792 C55.291,31.792 55.319,31.792 55.347,31.792 C55.347,31.778 55.347,31.764 55.347,31.751 C55.417,31.737 55.487,31.723 55.558,31.709 C55.558,31.695 55.558,31.681 55.558,31.667 C55.642,31.639 55.726,31.611 55.810,31.584 C55.810,31.570 55.810,31.556 55.810,31.542 C55.853,31.542 55.895,31.542 55.937,31.542 C55.937,31.528 55.937,31.514 55.937,31.500 C55.965,31.500 55.993,31.500 56.021,31.500 C56.021,31.486 56.021,31.472 56.021,31.459 C56.077,31.445 56.134,31.431 56.190,31.417 C56.190,31.403 56.190,31.389 56.190,31.375 C56.232,31.375 56.274,31.375 56.316,31.375 C56.316,31.361 56.316,31.347 56.316,31.333 C56.344,31.333 56.372,31.333 56.401,31.333 C56.401,31.319 56.401,31.306 56.401,31.292 C56.485,31.264 56.569,31.236 56.654,31.208 C56.654,31.194 56.654,31.180 56.654,31.167 C56.696,31.167 56.738,31.167 56.780,31.167 C56.780,31.153 56.780,31.139 56.780,31.125 C56.808,31.125 56.836,31.125 56.864,31.125 C56.864,31.111 56.864,31.097 56.864,31.083 C56.949,31.055 57.033,31.027 57.117,31.000 C57.117,30.986 57.117,30.972 57.117,30.958 C57.159,30.958 57.202,30.958 57.244,30.958 C57.244,30.944 57.244,30.930 57.244,30.916 C57.272,30.916 57.300,30.916 57.328,30.916 C57.328,30.902 57.328,30.888 57.328,30.874 C57.412,30.847 57.497,30.819 57.581,30.791 C57.581,30.777 57.581,30.763 57.581,30.749 C57.623,30.749 57.665,30.749 57.707,30.749 C57.707,30.735 57.707,30.722 57.707,30.708 C57.735,30.708 57.764,30.708 57.792,30.708 C57.792,30.694 57.792,30.680 57.792,30.666 C57.848,30.652 57.904,30.638 57.960,30.624 C57.960,30.610 57.960,30.596 57.960,30.582 C58.002,30.582 58.045,30.582 58.087,30.582 C58.087,30.569 58.087,30.555 58.087,30.541 C58.115,30.541 58.143,30.541 58.171,30.541 C58.171,30.527 58.171,30.513 58.171,30.499 C58.255,30.471 58.340,30.443 58.424,30.416 C58.424,30.402 58.424,30.388 58.424,30.374 C58.466,30.374 58.508,30.374 58.550,30.374 C58.550,30.360 58.550,30.346 58.550,30.332 C58.579,30.332 58.607,30.332 58.635,30.332 C58.635,30.318 58.635,30.304 58.635,30.290 C58.719,30.263 58.803,30.235 58.888,30.207 C58.888,30.193 58.888,30.179 58.888,30.165 C58.930,30.165 58.972,30.165 59.014,30.165 C59.014,30.151 59.014,30.137 59.014,30.124 C59.042,30.124 59.070,30.124 59.098,30.124 C59.098,30.110 59.098,30.096 59.098,30.082 C59.155,30.068 59.211,30.054 59.267,30.040 C59.267,30.026 59.267,30.012 59.267,29.998 C59.309,29.998 59.351,29.998 59.394,29.998 C59.394,29.985 59.394,29.971 59.394,29.957 C59.422,29.957 59.450,29.957 59.478,29.957 C59.478,29.943 59.478,29.929 59.478,29.915 C59.562,29.887 59.646,29.859 59.731,29.832 C59.731,29.818 59.731,29.804 59.731,29.790 C59.857,29.748 59.984,29.706 60.110,29.665 C60.110,29.651 60.110,29.637 60.110,29.623 C60.138,29.623 60.166,29.623 60.194,29.623 C60.194,29.609 60.194,29.595 60.194,29.581 C60.265,29.567 60.335,29.553 60.405,29.540 C60.405,29.526 60.405,29.512 60.405,29.498 C60.489,29.470 60.574,29.442 60.658,29.414 C60.658,29.400 60.658,29.387 60.658,29.373 C60.700,29.373 60.742,29.373 60.785,29.373 C60.785,29.359 60.785,29.345 60.785,29.331 C60.813,29.331 60.841,29.331 60.869,29.331 C60.869,29.317 60.869,29.303 60.869,29.289 C60.925,29.275 60.981,29.261 61.037,29.248 C61.037,29.234 61.037,29.220 61.037,29.206 C61.080,29.206 61.122,29.206 61.164,29.206 C61.164,29.192 61.164,29.178 61.164,29.164 C61.192,29.164 61.220,29.164 61.248,29.164 C61.248,29.150 61.248,29.136 61.248,29.122 C61.333,29.095 61.417,29.067 61.501,29.039 C61.501,29.025 61.501,29.011 61.501,28.997 C61.628,28.956 61.754,28.914 61.881,28.872 C61.881,28.858 61.881,28.844 61.881,28.830 C61.909,28.830 61.937,28.830 61.965,28.830 C61.965,28.816 61.965,28.803 61.965,28.789 C62.007,28.789 62.049,28.789 62.091,28.789 C62.091,28.775 62.091,28.761 62.091,28.747 C62.119,28.747 62.148,28.747 62.176,28.747 C62.176,28.733 62.176,28.719 62.176,28.705 C62.260,28.677 62.344,28.650 62.429,28.622 C62.429,28.608 62.429,28.594 62.429,28.580 C62.471,28.580 62.513,28.580 62.555,28.580 C62.555,28.566 62.555,28.552 62.555,28.538 C62.583,28.538 62.611,28.538 62.639,28.538 C62.639,28.524 62.639,28.511 62.639,28.497 C62.667,28.497 62.696,28.497 62.724,28.497 C62.724,28.483 62.724,28.469 62.724,28.455 C62.752,28.455 62.780,28.455 62.808,28.455 C62.808,28.441 62.808,28.427 62.808,28.413 C62.850,28.413 62.892,28.413 62.934,28.413 C62.934,28.399 62.934,28.385 62.934,28.371 C62.963,28.371 62.991,28.371 63.019,28.371 C63.019,28.358 63.019,28.344 63.019,28.330 C63.103,28.302 63.187,28.274 63.272,28.246 C63.272,28.232 63.272,28.219 63.272,28.205 C63.314,28.205 63.356,28.205 63.398,28.205 C63.398,28.191 63.398,28.177 63.398,28.163 C63.426,28.163 63.454,28.163 63.482,28.163 C63.482,28.149 63.482,28.135 63.482,28.121 C63.567,28.093 63.651,28.066 63.735,28.038 C63.735,28.024 63.735,28.010 63.735,27.996 C63.777,27.996 63.820,27.996 63.862,27.996 C63.862,27.982 63.862,27.968 63.862,27.954 C63.890,27.954 63.918,27.954 63.946,27.954 C63.946,27.940 63.946,27.926 63.946,27.913 C64.002,27.899 64.059,27.885 64.115,27.871 C64.115,27.857 64.115,27.843 64.115,27.829 C64.157,27.829 64.199,27.829 64.241,27.829 C64.241,27.815 64.241,27.801 64.241,27.787 C64.269,27.787 64.297,27.787 64.325,27.787 C64.325,27.774 64.325,27.760 64.325,27.746 C64.410,27.718 64.494,27.690 64.578,27.662 C64.578,27.648 64.578,27.634 64.578,27.621 C64.621,27.621 64.663,27.621 64.705,27.621 C64.705,27.607 64.705,27.593 64.705,27.579 C64.733,27.579 64.761,27.579 64.789,27.579 C64.789,27.565 64.789,27.551 64.789,27.537 C64.873,27.509 64.958,27.482 65.042,27.454 C65.042,27.440 65.042,27.426 65.042,27.412 C65.112,27.398 65.183,27.384 65.253,27.370 C65.253,27.356 65.253,27.342 65.253,27.329 C65.337,27.301 65.421,27.273 65.506,27.245 C65.506,27.231 65.506,27.217 65.506,27.203 C65.548,27.203 65.590,27.203 65.632,27.203 C65.632,27.189 65.632,27.176 65.632,27.162 C65.660,27.162 65.688,27.162 65.717,27.162 C65.717,27.148 65.717,27.134 65.717,27.120 C65.773,27.106 65.829,27.092 65.885,27.078 C65.885,27.064 65.885,27.050 65.885,27.037 C65.927,27.037 65.969,27.037 66.012,27.037 C66.012,27.023 66.012,27.009 66.012,26.995 C66.068,26.981 66.124,26.967 66.180,26.953 C66.180,26.939 66.180,26.925 66.180,26.911 C66.265,26.897 66.349,26.884 66.433,26.870 C66.433,26.856 66.433,26.842 66.433,26.828 C66.545,26.784 66.732,26.817 66.813,26.745 ZM0.041,36.465 C13.150,36.465 26.262,36.465 39.371,36.465 C39.371,43.597 39.371,50.733 39.371,57.865 C30.308,57.865 21.244,57.865 12.181,57.865 C10.552,57.865 8.921,57.865 7.292,57.865 C6.582,57.865 5.673,57.948 5.100,57.782 C5.015,57.782 4.931,57.782 4.847,57.782 C4.481,57.671 4.116,57.559 3.751,57.448 C3.751,57.434 3.751,57.420 3.751,57.407 C3.694,57.393 3.638,57.379 3.582,57.365 C3.582,57.351 3.582,57.337 3.582,57.323 C3.456,57.281 3.329,57.240 3.203,57.198 C3.189,57.170 3.175,57.142 3.161,57.114 C3.104,57.101 3.048,57.087 2.992,57.073 C2.978,57.045 2.964,57.017 2.950,56.989 C2.894,56.975 2.837,56.962 2.781,56.948 C2.781,56.934 2.781,56.920 2.781,56.906 C2.739,56.892 2.697,56.878 2.655,56.864 C2.641,56.836 2.627,56.809 2.613,56.781 C2.584,56.781 2.556,56.781 2.528,56.781 C2.500,56.739 2.472,56.697 2.444,56.656 C2.416,56.656 2.388,56.656 2.360,56.656 C2.303,56.586 2.247,56.517 2.191,56.447 C2.163,56.447 2.135,56.447 2.107,56.447 C1.980,56.308 1.854,56.169 1.727,56.030 C1.643,55.960 1.559,55.891 1.474,55.821 C1.474,55.793 1.474,55.766 1.474,55.738 C1.418,55.696 1.362,55.654 1.306,55.613 C1.306,55.585 1.306,55.557 1.306,55.529 C1.264,55.501 1.221,55.474 1.179,55.446 C1.179,55.418 1.179,55.390 1.179,55.362 C1.137,55.335 1.095,55.307 1.053,55.279 C1.053,55.251 1.053,55.223 1.053,55.196 C1.025,55.182 0.997,55.168 0.969,55.154 C0.954,55.098 0.940,55.043 0.926,54.987 C0.898,54.973 0.870,54.959 0.842,54.945 C0.814,54.862 0.786,54.778 0.758,54.695 C0.730,54.681 0.702,54.667 0.673,54.653 C0.659,54.584 0.645,54.514 0.631,54.445 C0.617,54.445 0.603,54.445 0.589,54.445 C0.589,54.417 0.589,54.389 0.589,54.361 C0.575,54.361 0.561,54.361 0.547,54.361 C0.533,54.306 0.519,54.250 0.505,54.194 C0.491,54.194 0.477,54.194 0.463,54.194 C0.449,54.111 0.435,54.027 0.421,53.944 C0.406,53.944 0.392,53.944 0.378,53.944 C0.378,53.916 0.378,53.888 0.378,53.861 C0.364,53.861 0.350,53.861 0.336,53.861 C0.322,53.763 0.308,53.666 0.294,53.569 C0.280,53.569 0.266,53.569 0.252,53.569 C0.252,53.527 0.252,53.485 0.252,53.443 C0.238,53.443 0.224,53.443 0.210,53.443 C0.210,53.388 0.210,53.332 0.210,53.277 C0.196,53.277 0.182,53.277 0.168,53.277 C0.168,53.207 0.168,53.137 0.168,53.068 C0.016,52.580 0.041,51.883 0.041,51.232 C0.041,50.064 0.041,48.896 0.041,47.728 C0.041,43.974 0.041,40.219 0.041,36.465 ZM77.646,44.307 C77.549,44.389 77.278,44.342 77.140,44.391 C77.140,44.405 77.140,44.419 77.140,44.433 C77.056,44.446 76.972,44.460 76.887,44.474 C76.887,44.488 76.887,44.502 76.887,44.516 C76.859,44.516 76.831,44.516 76.803,44.516 C76.803,44.530 76.803,44.544 76.803,44.558 C76.761,44.558 76.719,44.558 76.677,44.558 C76.662,44.585 76.648,44.613 76.634,44.641 C76.606,44.641 76.578,44.641 76.550,44.641 C76.550,44.655 76.550,44.669 76.550,44.683 C76.494,44.697 76.438,44.711 76.381,44.725 C76.353,44.766 76.325,44.808 76.297,44.850 C76.269,44.850 76.241,44.850 76.213,44.850 C75.398,45.670 74.583,46.491 73.768,47.311 C72.026,49.021 70.283,50.732 68.541,52.442 C67.810,53.179 67.079,53.916 66.349,54.653 C66.222,54.764 66.096,54.876 65.969,54.987 C65.745,55.209 65.520,55.432 65.295,55.654 C65.185,55.763 65.133,55.899 64.958,55.946 C64.848,55.760 64.645,55.637 64.494,55.488 C64.255,55.237 64.016,54.987 63.777,54.737 C63.665,54.639 63.553,54.542 63.440,54.445 C62.949,53.944 62.457,53.443 61.965,52.943 C61.754,52.748 61.543,52.553 61.333,52.359 C60.868,51.899 60.462,51.387 59.815,51.107 C59.773,51.107 59.731,51.107 59.689,51.107 C59.689,51.093 59.689,51.079 59.689,51.066 C59.646,51.066 59.604,51.066 59.562,51.066 C59.562,51.052 59.562,51.038 59.562,51.024 C59.492,51.024 59.422,51.024 59.351,51.024 C58.167,50.673 57.001,51.515 56.569,52.192 C56.555,52.248 56.541,52.303 56.527,52.359 C56.513,52.359 56.499,52.359 56.485,52.359 C56.471,52.414 56.457,52.470 56.443,52.526 C56.429,52.526 56.415,52.526 56.401,52.526 C56.401,52.567 56.401,52.609 56.401,52.651 C56.387,52.651 56.372,52.651 56.358,52.651 C56.358,52.679 56.358,52.706 56.358,52.734 C56.344,52.734 56.330,52.734 56.316,52.734 C56.316,52.790 56.316,52.845 56.316,52.901 C56.302,52.901 56.288,52.901 56.274,52.901 C56.274,52.971 56.274,53.040 56.274,53.110 C56.260,53.110 56.246,53.110 56.232,53.110 C56.155,53.376 56.261,54.030 56.316,54.194 C56.316,54.250 56.316,54.306 56.316,54.361 C56.330,54.361 56.344,54.361 56.358,54.361 C56.358,54.389 56.358,54.417 56.358,54.445 C56.372,54.445 56.387,54.445 56.401,54.445 C56.401,54.486 56.401,54.528 56.401,54.570 C56.415,54.570 56.429,54.570 56.443,54.570 C56.457,54.625 56.471,54.681 56.485,54.737 C56.499,54.737 56.513,54.737 56.527,54.737 C56.541,54.792 56.555,54.848 56.569,54.903 C56.597,54.917 56.625,54.931 56.654,54.945 C56.654,54.973 56.654,55.001 56.654,55.029 C56.682,55.043 56.710,55.056 56.738,55.070 C56.738,55.098 56.738,55.126 56.738,55.154 C57.595,55.988 58.452,56.823 59.309,57.657 C59.618,57.977 59.927,58.297 60.237,58.616 C60.799,59.159 61.361,59.701 61.923,60.243 C62.176,60.507 62.429,60.772 62.681,61.036 C62.780,61.119 62.878,61.203 62.977,61.286 C63.103,61.425 63.230,61.564 63.356,61.703 C63.384,61.703 63.412,61.703 63.440,61.703 C63.454,61.731 63.468,61.759 63.482,61.787 C63.511,61.787 63.539,61.787 63.567,61.787 C63.581,61.815 63.595,61.842 63.609,61.870 C63.665,61.884 63.721,61.898 63.777,61.912 C63.777,61.926 63.777,61.940 63.777,61.954 C63.862,61.981 63.946,62.009 64.030,62.037 C64.030,62.051 64.030,62.065 64.030,62.079 C64.115,62.093 64.199,62.107 64.283,62.121 C64.283,62.134 64.283,62.148 64.283,62.162 C64.452,62.176 64.621,62.190 64.789,62.204 C64.789,62.218 64.789,62.232 64.789,62.246 C64.917,62.281 65.105,62.222 65.169,62.204 C65.281,62.204 65.393,62.204 65.506,62.204 C65.506,62.190 65.506,62.176 65.506,62.162 C65.618,62.148 65.731,62.134 65.843,62.121 C65.843,62.107 65.843,62.093 65.843,62.079 C65.913,62.065 65.984,62.051 66.054,62.037 C66.054,62.023 66.054,62.009 66.054,61.995 C66.082,61.995 66.110,61.995 66.138,61.995 C66.138,61.981 66.138,61.968 66.138,61.954 C66.194,61.940 66.251,61.926 66.307,61.912 C66.750,61.634 67.082,61.228 67.445,60.869 C67.543,60.786 67.642,60.702 67.740,60.619 C68.147,60.202 68.555,59.784 68.962,59.367 C69.960,58.394 70.958,57.420 71.955,56.447 C73.473,54.931 74.991,53.415 76.508,51.900 C77.084,51.344 77.660,50.787 78.236,50.231 C78.447,50.009 78.658,49.786 78.869,49.564 C79.299,49.138 79.801,48.749 80.133,48.229 C80.175,48.104 80.217,47.978 80.260,47.853 C80.274,47.853 80.288,47.853 80.302,47.853 C80.302,47.826 80.302,47.798 80.302,47.770 C80.316,47.770 80.330,47.770 80.344,47.770 C80.358,47.659 80.372,47.547 80.386,47.436 C80.510,47.031 80.471,46.596 80.344,46.226 C80.344,46.171 80.344,46.115 80.344,46.059 C80.330,46.059 80.316,46.059 80.302,46.059 C80.302,46.032 80.302,46.004 80.302,45.976 C80.288,45.976 80.274,45.976 80.260,45.976 C80.260,45.934 80.260,45.893 80.260,45.851 C80.246,45.851 80.231,45.851 80.217,45.851 C80.203,45.795 80.189,45.740 80.175,45.684 C80.161,45.684 80.147,45.684 80.133,45.684 C80.133,45.656 80.133,45.628 80.133,45.601 C80.105,45.587 80.077,45.573 80.049,45.559 C80.049,45.531 80.049,45.503 80.049,45.475 C80.021,45.462 79.993,45.448 79.964,45.434 C79.964,45.406 79.964,45.378 79.964,45.350 C79.894,45.295 79.824,45.239 79.754,45.183 C79.351,44.638 78.603,44.305 77.646,44.307 Z"/>
</svg>
