<svg
        xmlns="http://www.w3.org/2000/svg"
        xmlns:xlink="http://www.w3.org/1999/xlink"
        width="82px" height="82px">
    <path fill-rule="evenodd"  fill="rgb(127, 127, 127)"
          d="M54.649,-0.000 C54.649,5.967 54.649,11.936 54.649,17.902 C54.649,18.967 54.649,20.033 54.649,21.098 C54.663,21.617 54.676,22.136 54.690,22.655 C54.704,22.655 54.717,22.655 54.731,22.655 C54.731,22.737 54.731,22.818 54.731,22.900 C54.745,22.900 54.758,22.900 54.772,22.900 C54.772,22.969 54.772,23.037 54.772,23.105 C54.786,23.105 54.799,23.105 54.813,23.105 C54.813,23.160 54.813,23.214 54.813,23.269 C54.827,23.269 54.840,23.269 54.854,23.269 C54.854,23.310 54.854,23.351 54.854,23.392 C54.868,23.392 54.881,23.392 54.895,23.392 C54.895,23.433 54.895,23.474 54.895,23.515 C54.908,23.515 54.922,23.515 54.936,23.515 C54.936,23.556 54.936,23.597 54.936,23.638 C54.949,23.638 54.963,23.638 54.977,23.638 C54.990,23.720 55.004,23.802 55.018,23.884 C55.031,23.884 55.045,23.884 55.059,23.884 C55.072,23.938 55.086,23.993 55.100,24.047 C55.113,24.047 55.127,24.047 55.141,24.047 C55.141,24.088 55.141,24.129 55.141,24.170 C55.154,24.170 55.168,24.170 55.181,24.170 C55.195,24.225 55.209,24.280 55.222,24.334 C55.236,24.334 55.250,24.334 55.263,24.334 C55.277,24.389 55.291,24.443 55.304,24.498 C55.332,24.512 55.359,24.525 55.386,24.539 C55.400,24.594 55.413,24.648 55.427,24.703 C55.441,24.703 55.454,24.703 55.468,24.703 C55.482,24.744 55.495,24.785 55.509,24.826 C55.536,24.839 55.564,24.853 55.591,24.867 C55.591,24.894 55.591,24.921 55.591,24.949 C55.618,24.962 55.646,24.976 55.673,24.990 C55.673,25.017 55.673,25.044 55.673,25.072 C55.714,25.099 55.755,25.126 55.796,25.154 C55.796,25.181 55.796,25.208 55.796,25.235 C55.850,25.276 55.905,25.317 55.959,25.358 C55.959,25.386 55.959,25.413 55.959,25.440 C56.096,25.563 56.232,25.686 56.369,25.809 C56.424,25.877 56.478,25.946 56.533,26.014 C56.560,26.014 56.587,26.014 56.615,26.014 C56.656,26.068 56.696,26.123 56.737,26.178 C56.765,26.178 56.792,26.178 56.819,26.178 C56.847,26.219 56.874,26.260 56.901,26.301 C56.929,26.301 56.956,26.301 56.983,26.301 C56.997,26.328 57.010,26.355 57.024,26.383 C57.051,26.383 57.079,26.383 57.106,26.383 C57.120,26.410 57.133,26.437 57.147,26.464 C57.188,26.478 57.229,26.492 57.270,26.505 C57.270,26.519 57.270,26.533 57.270,26.546 C57.324,26.560 57.379,26.574 57.434,26.587 C57.447,26.615 57.461,26.642 57.474,26.669 C57.529,26.683 57.584,26.697 57.638,26.710 C57.638,26.724 57.638,26.738 57.638,26.751 C57.693,26.765 57.747,26.779 57.802,26.792 C57.802,26.806 57.802,26.820 57.802,26.833 C57.843,26.833 57.884,26.833 57.925,26.833 C57.925,26.847 57.925,26.861 57.925,26.874 C57.980,26.888 58.034,26.901 58.089,26.915 C58.089,26.929 58.089,26.942 58.089,26.956 C58.171,26.970 58.252,26.983 58.334,26.997 C58.334,27.011 58.334,27.024 58.334,27.038 C58.362,27.038 58.389,27.038 58.416,27.038 C58.416,27.052 58.416,27.065 58.416,27.079 C58.471,27.079 58.525,27.079 58.580,27.079 C58.580,27.093 58.580,27.106 58.580,27.120 C58.621,27.120 58.662,27.120 58.703,27.120 C58.703,27.134 58.703,27.147 58.703,27.161 C58.757,27.161 58.812,27.161 58.867,27.161 C58.867,27.175 58.867,27.188 58.867,27.202 C58.935,27.202 59.003,27.202 59.071,27.202 C59.622,27.369 60.408,27.325 61.119,27.325 C62.497,27.325 63.876,27.325 65.254,27.325 C70.823,27.325 76.393,27.325 81.961,27.325 C81.961,38.426 81.961,49.530 81.961,60.631 C81.961,63.225 81.961,65.820 81.961,68.414 C81.961,69.083 81.961,69.753 81.961,70.422 C81.961,70.763 81.997,71.215 81.920,71.487 C81.906,71.692 81.893,71.897 81.879,72.101 C81.770,72.456 81.661,72.812 81.551,73.167 C81.538,73.167 81.524,73.167 81.510,73.167 C81.483,73.248 81.456,73.330 81.429,73.412 C81.415,73.412 81.401,73.412 81.388,73.412 C81.388,73.440 81.388,73.467 81.388,73.494 C81.374,73.494 81.360,73.494 81.347,73.494 C81.347,73.522 81.347,73.549 81.347,73.576 C81.333,73.576 81.319,73.576 81.306,73.576 C81.278,73.658 81.251,73.740 81.224,73.822 C81.197,73.836 81.169,73.849 81.142,73.863 C81.128,73.918 81.115,73.972 81.101,74.027 C81.074,74.041 81.046,74.054 81.019,74.068 C81.019,74.095 81.019,74.122 81.019,74.150 C80.978,74.177 80.937,74.204 80.896,74.232 C80.896,74.259 80.896,74.286 80.896,74.314 C80.855,74.341 80.814,74.368 80.773,74.396 C80.773,74.423 80.773,74.450 80.773,74.477 C80.692,74.546 80.610,74.614 80.528,74.682 C80.528,74.710 80.528,74.737 80.528,74.764 C80.432,74.846 80.337,74.928 80.241,75.010 C80.227,75.037 80.214,75.065 80.200,75.092 C80.173,75.092 80.146,75.092 80.118,75.092 C80.050,75.174 79.982,75.256 79.914,75.338 C79.886,75.338 79.859,75.338 79.832,75.338 C79.804,75.379 79.777,75.420 79.750,75.461 C79.722,75.461 79.695,75.461 79.668,75.461 C79.654,75.488 79.641,75.515 79.627,75.543 C79.586,75.556 79.545,75.570 79.504,75.584 C79.504,75.597 79.504,75.611 79.504,75.625 C79.477,75.625 79.449,75.625 79.422,75.625 C79.409,75.652 79.395,75.679 79.381,75.706 C79.327,75.720 79.272,75.734 79.217,75.747 C79.204,75.775 79.190,75.802 79.176,75.829 C79.095,75.857 79.013,75.884 78.931,75.911 C78.931,75.925 78.931,75.939 78.931,75.952 C78.849,75.980 78.767,76.007 78.685,76.034 C78.685,76.048 78.685,76.062 78.685,76.075 C78.344,76.184 78.003,76.294 77.661,76.403 C77.457,76.430 77.252,76.458 77.047,76.485 C76.924,76.485 76.802,76.485 76.679,76.485 C76.429,76.555 76.013,76.526 75.696,76.526 C75.082,76.526 74.468,76.526 73.853,76.526 C71.847,76.526 69.840,76.526 67.834,76.526 C56.015,76.526 44.193,76.526 32.374,76.526 C32.345,76.334 32.267,76.118 32.210,75.952 C32.210,75.898 32.210,75.843 32.210,75.788 C32.125,75.542 32.049,75.216 31.964,74.969 C31.937,74.805 31.910,74.641 31.883,74.477 C31.688,73.913 31.576,73.243 31.391,72.675 C31.391,72.607 31.391,72.538 31.391,72.470 C31.377,72.470 31.364,72.470 31.350,72.470 C31.350,72.416 31.350,72.361 31.350,72.306 C31.284,72.113 31.212,71.844 31.145,71.651 C31.145,71.596 31.145,71.542 31.145,71.487 C31.061,71.240 30.984,70.915 30.900,70.668 C30.886,70.558 30.872,70.449 30.859,70.340 C30.538,69.405 30.400,68.326 30.081,67.390 C30.026,67.117 29.972,66.844 29.917,66.571 C29.903,66.571 29.890,66.571 29.876,66.571 C29.849,66.407 29.821,66.243 29.794,66.079 C29.584,65.461 29.471,64.732 29.262,64.113 C29.235,63.949 29.207,63.785 29.180,63.621 C29.166,63.621 29.153,63.621 29.139,63.621 C29.125,63.512 29.112,63.403 29.098,63.294 C29.084,63.294 29.071,63.294 29.057,63.294 C29.047,63.210 29.076,63.245 29.098,63.212 C29.118,63.126 29.209,62.987 29.262,62.925 C29.289,62.911 29.316,62.898 29.344,62.884 C29.344,62.857 29.344,62.829 29.344,62.802 C29.371,62.788 29.398,62.775 29.426,62.761 C29.426,62.734 29.426,62.706 29.426,62.679 C29.453,62.665 29.480,62.652 29.508,62.638 C29.508,62.611 29.508,62.583 29.508,62.556 C29.535,62.543 29.562,62.529 29.589,62.515 C29.589,62.488 29.589,62.461 29.589,62.433 C29.603,62.433 29.617,62.433 29.630,62.433 C29.644,62.392 29.658,62.351 29.671,62.310 C29.699,62.297 29.726,62.283 29.753,62.269 C29.753,62.242 29.753,62.215 29.753,62.187 C29.781,62.174 29.808,62.160 29.835,62.147 C29.849,62.106 29.862,62.065 29.876,62.024 C29.890,62.024 29.903,62.024 29.917,62.024 C29.931,61.969 29.944,61.914 29.958,61.860 C29.985,61.846 30.013,61.832 30.040,61.819 C30.054,61.764 30.067,61.710 30.081,61.655 C30.108,61.641 30.135,61.628 30.163,61.614 C30.176,61.559 30.190,61.505 30.204,61.450 C30.231,61.436 30.258,61.423 30.286,61.409 C30.313,61.327 30.340,61.245 30.367,61.163 C30.395,61.150 30.422,61.136 30.449,61.122 C30.545,60.904 30.640,60.685 30.736,60.467 C30.763,60.453 30.791,60.440 30.818,60.426 C30.832,60.358 30.845,60.289 30.859,60.221 C30.872,60.221 30.886,60.221 30.900,60.221 C30.913,60.166 30.927,60.112 30.941,60.057 C30.954,60.057 30.968,60.057 30.982,60.057 C30.982,60.030 30.982,60.003 30.982,59.975 C30.995,59.975 31.009,59.975 31.023,59.975 C31.023,59.948 31.023,59.921 31.023,59.893 C31.036,59.893 31.050,59.893 31.064,59.893 C31.091,59.811 31.118,59.729 31.145,59.648 C31.159,59.648 31.173,59.648 31.186,59.648 C31.186,59.607 31.186,59.566 31.186,59.525 C31.200,59.525 31.214,59.525 31.227,59.525 C31.241,59.470 31.255,59.415 31.268,59.361 C31.282,59.361 31.296,59.361 31.309,59.361 C31.309,59.320 31.309,59.279 31.309,59.238 C31.323,59.238 31.337,59.238 31.350,59.238 C31.350,59.211 31.350,59.183 31.350,59.156 C31.364,59.156 31.377,59.156 31.391,59.156 C31.391,59.115 31.391,59.074 31.391,59.033 C31.405,59.033 31.418,59.033 31.432,59.033 C31.446,58.978 31.459,58.924 31.473,58.869 C31.487,58.869 31.500,58.869 31.514,58.869 C31.528,58.787 31.541,58.705 31.555,58.623 C31.569,58.623 31.582,58.623 31.596,58.623 C31.596,58.596 31.596,58.569 31.596,58.541 C31.610,58.541 31.623,58.541 31.637,58.541 C31.664,58.419 31.691,58.296 31.719,58.173 C31.732,58.173 31.746,58.173 31.760,58.173 C31.760,58.145 31.760,58.118 31.760,58.091 C31.773,58.091 31.787,58.091 31.801,58.091 C31.828,57.954 31.855,57.818 31.883,57.681 C31.896,57.681 31.910,57.681 31.923,57.681 C31.923,57.640 31.923,57.599 31.923,57.558 C31.937,57.558 31.951,57.558 31.964,57.558 C31.964,57.517 31.964,57.476 31.964,57.435 C31.978,57.435 31.992,57.435 32.005,57.435 C32.005,57.394 32.005,57.353 32.005,57.312 C32.019,57.312 32.033,57.312 32.046,57.312 C32.046,57.258 32.046,57.203 32.046,57.149 C32.060,57.149 32.074,57.149 32.087,57.149 C32.087,57.108 32.087,57.067 32.087,57.026 C32.101,57.026 32.115,57.026 32.128,57.026 C32.128,56.971 32.128,56.916 32.128,56.862 C32.142,56.862 32.155,56.862 32.169,56.862 C32.169,56.807 32.169,56.753 32.169,56.698 C32.183,56.698 32.196,56.698 32.210,56.698 C32.210,56.643 32.210,56.589 32.210,56.534 C32.224,56.534 32.237,56.534 32.251,56.534 C32.251,56.479 32.251,56.425 32.251,56.370 C32.265,56.370 32.278,56.370 32.292,56.370 C32.292,56.316 32.292,56.261 32.292,56.206 C32.306,56.206 32.319,56.206 32.333,56.206 C32.347,56.083 32.360,55.961 32.374,55.838 C32.388,55.838 32.401,55.838 32.415,55.838 C32.469,55.442 32.524,55.046 32.579,54.650 C32.592,54.650 32.606,54.650 32.620,54.650 C32.620,54.554 32.620,54.458 32.620,54.363 C32.633,54.363 32.647,54.363 32.660,54.363 C32.660,54.240 32.660,54.117 32.660,53.994 C32.674,53.994 32.688,53.994 32.701,53.994 C32.701,53.858 32.701,53.721 32.701,53.584 C32.715,53.584 32.729,53.584 32.742,53.584 C32.742,53.393 32.742,53.202 32.742,53.011 C32.853,52.610 32.783,51.970 32.783,51.495 C32.770,51.072 32.756,50.648 32.742,50.225 C32.729,50.225 32.715,50.225 32.701,50.225 C32.701,50.089 32.701,49.952 32.701,49.816 C32.688,49.816 32.674,49.816 32.660,49.816 C32.660,49.706 32.660,49.597 32.660,49.488 C32.647,49.488 32.633,49.488 32.620,49.488 C32.620,49.379 32.620,49.269 32.620,49.160 C32.516,48.810 32.481,48.353 32.374,48.013 C32.374,47.945 32.374,47.876 32.374,47.808 C32.360,47.808 32.347,47.808 32.333,47.808 C32.319,47.699 32.306,47.590 32.292,47.480 C32.278,47.480 32.265,47.480 32.251,47.480 C32.251,47.426 32.251,47.371 32.251,47.317 C32.237,47.317 32.224,47.317 32.210,47.317 C32.210,47.262 32.210,47.207 32.210,47.153 C32.196,47.153 32.183,47.153 32.169,47.153 C32.169,47.098 32.169,47.043 32.169,46.989 C32.155,46.989 32.142,46.989 32.128,46.989 C32.128,46.934 32.128,46.880 32.128,46.825 C32.115,46.825 32.101,46.825 32.087,46.825 C32.087,46.784 32.087,46.743 32.087,46.702 C32.074,46.702 32.060,46.702 32.046,46.702 C32.046,46.647 32.046,46.593 32.046,46.538 C32.033,46.538 32.019,46.538 32.005,46.538 C31.978,46.402 31.951,46.265 31.923,46.129 C31.910,46.129 31.896,46.129 31.883,46.129 C31.883,46.088 31.883,46.047 31.883,46.006 C31.869,46.006 31.855,46.006 31.842,46.006 C31.842,45.965 31.842,45.924 31.842,45.883 C31.828,45.883 31.814,45.883 31.801,45.883 C31.787,45.801 31.773,45.719 31.760,45.637 C31.746,45.637 31.732,45.637 31.719,45.637 C31.719,45.610 31.719,45.582 31.719,45.555 C31.705,45.555 31.691,45.555 31.678,45.555 C31.650,45.432 31.623,45.309 31.596,45.186 C31.582,45.186 31.569,45.186 31.555,45.186 C31.555,45.159 31.555,45.132 31.555,45.104 C31.541,45.104 31.528,45.104 31.514,45.104 C31.514,45.063 31.514,45.022 31.514,44.981 C31.500,44.981 31.487,44.981 31.473,44.981 C31.473,44.954 31.473,44.927 31.473,44.900 C31.459,44.900 31.446,44.900 31.432,44.900 C31.432,44.859 31.432,44.818 31.432,44.777 C31.418,44.777 31.405,44.777 31.391,44.777 C31.377,44.722 31.364,44.667 31.350,44.613 C31.337,44.613 31.323,44.613 31.309,44.613 C31.309,44.572 31.309,44.531 31.309,44.490 C31.296,44.490 31.282,44.490 31.268,44.490 C31.255,44.435 31.241,44.381 31.227,44.326 C31.214,44.326 31.200,44.326 31.186,44.326 C31.186,44.285 31.186,44.244 31.186,44.203 C31.173,44.203 31.159,44.203 31.145,44.203 C31.145,44.176 31.145,44.148 31.145,44.121 C31.132,44.121 31.118,44.121 31.105,44.121 C31.077,44.039 31.050,43.957 31.023,43.875 C31.009,43.875 30.995,43.875 30.982,43.875 C30.982,43.834 30.982,43.793 30.982,43.752 C30.968,43.752 30.954,43.752 30.941,43.752 C30.913,43.671 30.886,43.589 30.859,43.507 C30.845,43.507 30.832,43.507 30.818,43.507 C30.818,43.479 30.818,43.452 30.818,43.425 C30.804,43.425 30.791,43.425 30.777,43.425 C30.750,43.343 30.722,43.261 30.695,43.179 C30.668,43.165 30.640,43.152 30.613,43.138 C30.613,43.111 30.613,43.083 30.613,43.056 C30.599,43.056 30.586,43.056 30.572,43.056 C30.572,43.029 30.572,43.001 30.572,42.974 C30.559,42.974 30.545,42.974 30.531,42.974 C30.531,42.947 30.531,42.919 30.531,42.892 C30.518,42.892 30.504,42.892 30.490,42.892 C30.490,42.865 30.490,42.838 30.490,42.810 C30.477,42.810 30.463,42.810 30.449,42.810 C30.449,42.783 30.449,42.756 30.449,42.728 C30.436,42.728 30.422,42.728 30.408,42.728 C30.408,42.701 30.408,42.674 30.408,42.646 C30.381,42.633 30.354,42.619 30.327,42.605 C30.299,42.523 30.272,42.442 30.245,42.360 C30.217,42.346 30.190,42.332 30.163,42.319 C30.149,42.264 30.135,42.209 30.122,42.155 C30.094,42.141 30.067,42.127 30.040,42.114 C30.026,42.059 30.013,42.005 29.999,41.950 C29.972,41.936 29.944,41.923 29.917,41.909 C29.917,41.882 29.917,41.854 29.917,41.827 C29.890,41.813 29.862,41.800 29.835,41.786 C29.835,41.759 29.835,41.731 29.835,41.704 C29.808,41.690 29.781,41.677 29.753,41.663 C29.753,41.636 29.753,41.609 29.753,41.581 C29.726,41.568 29.699,41.554 29.671,41.540 C29.658,41.486 29.644,41.431 29.630,41.376 C29.589,41.349 29.549,41.322 29.508,41.294 C29.508,41.267 29.508,41.240 29.508,41.213 C29.494,41.213 29.480,41.213 29.467,41.213 C29.453,41.172 29.439,41.131 29.426,41.090 C29.398,41.076 29.371,41.062 29.344,41.049 C29.344,41.021 29.344,40.994 29.344,40.967 C29.303,40.939 29.262,40.912 29.221,40.885 C29.221,40.857 29.221,40.830 29.221,40.803 C29.194,40.789 29.166,40.776 29.139,40.762 C29.139,40.735 29.139,40.707 29.139,40.680 C29.098,40.653 29.057,40.625 29.016,40.598 C29.016,40.571 29.016,40.543 29.016,40.516 C28.975,40.489 28.934,40.461 28.893,40.434 C28.893,40.407 28.893,40.380 28.893,40.352 C28.839,40.311 28.784,40.270 28.730,40.229 C28.730,40.202 28.730,40.175 28.730,40.147 C28.675,40.106 28.620,40.065 28.566,40.024 C28.566,39.997 28.566,39.970 28.566,39.943 C28.511,39.902 28.457,39.861 28.402,39.820 C28.402,39.792 28.402,39.765 28.402,39.738 C28.320,39.669 28.238,39.601 28.156,39.533 C28.156,39.506 28.156,39.478 28.156,39.451 C28.047,39.355 27.938,39.260 27.829,39.164 C27.829,39.137 27.829,39.110 27.829,39.082 C27.651,38.918 27.474,38.754 27.296,38.591 C26.937,38.231 26.610,37.869 26.191,37.566 C26.136,37.498 26.082,37.430 26.027,37.362 C26.000,37.362 25.972,37.362 25.945,37.362 C25.891,37.293 25.836,37.225 25.781,37.157 C25.754,37.157 25.727,37.157 25.699,37.157 C25.659,37.102 25.618,37.048 25.577,36.993 C25.549,36.993 25.522,36.993 25.495,36.993 C25.467,36.952 25.440,36.911 25.413,36.870 C25.386,36.870 25.358,36.870 25.331,36.870 C25.290,36.815 25.249,36.761 25.208,36.706 C25.181,36.706 25.154,36.706 25.126,36.706 C25.113,36.679 25.099,36.652 25.085,36.624 C25.058,36.624 25.031,36.624 25.003,36.624 C24.990,36.597 24.976,36.570 24.962,36.542 C24.921,36.529 24.881,36.515 24.840,36.501 C24.812,36.460 24.785,36.419 24.758,36.378 C24.730,36.378 24.703,36.378 24.676,36.378 C24.662,36.351 24.648,36.324 24.635,36.297 C24.608,36.297 24.580,36.297 24.553,36.297 C24.539,36.269 24.526,36.242 24.512,36.215 C24.485,36.215 24.457,36.215 24.430,36.215 C24.416,36.187 24.403,36.160 24.389,36.133 C24.362,36.133 24.335,36.133 24.307,36.133 C24.294,36.105 24.280,36.078 24.266,36.051 C24.239,36.051 24.212,36.051 24.184,36.051 C24.171,36.023 24.157,35.996 24.143,35.969 C24.116,35.969 24.089,35.969 24.062,35.969 C24.048,35.941 24.034,35.914 24.021,35.887 C23.993,35.887 23.966,35.887 23.939,35.887 C23.925,35.860 23.911,35.832 23.898,35.805 C23.843,35.791 23.789,35.778 23.734,35.764 C23.720,35.737 23.707,35.709 23.693,35.682 C23.638,35.668 23.584,35.655 23.529,35.641 C23.516,35.614 23.502,35.586 23.488,35.559 C23.434,35.545 23.379,35.532 23.325,35.518 C23.311,35.491 23.297,35.464 23.284,35.436 C23.202,35.409 23.120,35.382 23.038,35.354 C23.024,35.327 23.011,35.300 22.997,35.272 C22.970,35.272 22.942,35.272 22.915,35.272 C22.915,35.259 22.915,35.245 22.915,35.231 C22.888,35.231 22.860,35.231 22.833,35.231 C22.833,35.218 22.833,35.204 22.833,35.190 C22.806,35.190 22.779,35.190 22.751,35.190 C22.751,35.177 22.751,35.163 22.751,35.149 C22.724,35.149 22.697,35.149 22.669,35.149 C22.669,35.136 22.669,35.122 22.669,35.108 C22.642,35.108 22.615,35.108 22.587,35.108 C22.587,35.095 22.587,35.081 22.587,35.068 C22.533,35.054 22.478,35.040 22.424,35.027 C22.410,34.999 22.396,34.972 22.383,34.945 C22.260,34.904 22.137,34.863 22.014,34.822 C22.014,34.808 22.014,34.794 22.014,34.781 C21.987,34.781 21.960,34.781 21.932,34.781 C21.932,34.767 21.932,34.753 21.932,34.740 C21.905,34.740 21.878,34.740 21.850,34.740 C21.850,34.726 21.850,34.712 21.850,34.699 C21.823,34.699 21.796,34.699 21.769,34.699 C21.769,34.685 21.769,34.671 21.769,34.658 C21.687,34.631 21.605,34.603 21.523,34.576 C21.523,34.562 21.523,34.549 21.523,34.535 C21.482,34.535 21.441,34.535 21.400,34.535 C21.400,34.521 21.400,34.508 21.400,34.494 C21.345,34.480 21.291,34.467 21.236,34.453 C21.236,34.439 21.236,34.426 21.236,34.412 C21.195,34.412 21.154,34.412 21.113,34.412 C21.113,34.398 21.113,34.385 21.113,34.371 C21.059,34.357 21.004,34.344 20.950,34.330 C20.950,34.316 20.950,34.303 20.950,34.289 C20.909,34.289 20.868,34.289 20.827,34.289 C20.827,34.275 20.827,34.262 20.827,34.248 C20.799,34.248 20.772,34.248 20.745,34.248 C20.745,34.235 20.745,34.221 20.745,34.207 C20.677,34.194 20.608,34.180 20.540,34.166 C20.540,34.153 20.540,34.139 20.540,34.125 C20.458,34.112 20.376,34.098 20.294,34.084 C20.294,34.071 20.294,34.057 20.294,34.043 C20.267,34.043 20.240,34.043 20.213,34.043 C20.213,34.030 20.213,34.016 20.213,34.002 C20.090,33.975 19.967,33.948 19.844,33.920 C19.844,33.907 19.844,33.893 19.844,33.879 C19.803,33.879 19.762,33.879 19.721,33.879 C19.721,33.866 19.721,33.852 19.721,33.839 C19.680,33.839 19.639,33.839 19.598,33.839 C19.598,33.825 19.598,33.811 19.598,33.798 C19.557,33.798 19.516,33.798 19.476,33.798 C19.476,33.784 19.476,33.770 19.476,33.757 C19.435,33.757 19.394,33.757 19.353,33.757 C19.353,33.743 19.353,33.729 19.353,33.716 C19.216,33.688 19.080,33.661 18.943,33.634 C18.943,33.620 18.943,33.606 18.943,33.593 C18.793,33.565 18.643,33.538 18.493,33.511 C18.493,33.497 18.493,33.483 18.493,33.470 C17.810,33.333 17.128,33.197 16.445,33.060 C16.372,32.975 16.404,32.721 16.404,32.569 C16.404,32.118 16.404,31.667 16.404,31.217 C16.404,29.442 16.404,27.666 16.404,25.891 C16.404,18.955 16.404,12.016 16.404,5.080 C16.498,4.970 16.436,4.633 16.486,4.465 C16.596,4.097 16.705,3.728 16.814,3.359 C16.828,3.359 16.841,3.359 16.855,3.359 C16.882,3.277 16.909,3.195 16.937,3.113 C16.950,3.113 16.964,3.113 16.978,3.113 C16.978,3.086 16.978,3.059 16.978,3.032 C16.991,3.032 17.005,3.032 17.019,3.032 C17.019,3.004 17.019,2.977 17.019,2.950 C17.032,2.950 17.046,2.950 17.060,2.950 C17.087,2.868 17.114,2.786 17.142,2.704 C17.169,2.690 17.196,2.676 17.223,2.663 C17.237,2.608 17.251,2.554 17.264,2.499 C17.292,2.485 17.319,2.472 17.346,2.458 C17.346,2.431 17.346,2.403 17.346,2.376 C17.374,2.362 17.401,2.349 17.428,2.335 C17.442,2.294 17.455,2.253 17.469,2.212 C17.510,2.185 17.551,2.158 17.592,2.130 C17.592,2.103 17.592,2.076 17.592,2.048 C17.660,1.994 17.728,1.939 17.797,1.884 C17.797,1.857 17.797,1.830 17.797,1.803 C17.906,1.707 18.015,1.611 18.124,1.516 C18.152,1.475 18.179,1.434 18.206,1.393 C18.233,1.393 18.261,1.393 18.288,1.393 C18.343,1.325 18.397,1.256 18.452,1.188 C18.479,1.188 18.506,1.188 18.534,1.188 C18.575,1.133 18.616,1.079 18.657,1.024 C18.684,1.024 18.711,1.024 18.738,1.024 C18.752,0.997 18.766,0.970 18.779,0.942 C18.820,0.929 18.861,0.915 18.902,0.901 C18.902,0.888 18.902,0.874 18.902,0.860 C18.930,0.860 18.957,0.860 18.984,0.860 C18.998,0.833 19.011,0.806 19.025,0.778 C19.107,0.751 19.189,0.724 19.271,0.696 C19.284,0.669 19.298,0.642 19.312,0.615 C19.339,0.615 19.366,0.615 19.394,0.615 C19.394,0.601 19.394,0.587 19.394,0.574 C19.421,0.574 19.448,0.574 19.476,0.574 C19.476,0.560 19.476,0.546 19.476,0.533 C19.516,0.533 19.557,0.533 19.598,0.533 C19.598,0.519 19.598,0.505 19.598,0.492 C19.653,0.478 19.708,0.464 19.762,0.451 C19.762,0.437 19.762,0.423 19.762,0.410 C20.117,0.300 20.472,0.191 20.827,0.082 C20.909,0.082 20.991,0.082 21.072,0.082 C21.072,0.068 21.072,0.055 21.072,0.041 C21.182,0.041 21.291,0.041 21.400,0.041 C21.400,0.027 21.400,0.014 21.400,-0.000 C22.273,-0.000 23.147,-0.000 24.021,-0.000 C26.150,-0.000 28.279,-0.000 30.408,-0.000 C38.488,-0.000 46.570,-0.000 54.649,-0.000 ZM60.095,21.876 C60.095,14.585 60.095,7.291 60.095,-0.000 C60.109,-0.000 60.122,-0.000 60.136,-0.000 C67.410,7.291 74.687,14.585 81.961,21.876 C74.673,21.876 67.383,21.876 60.095,21.876 ZM29.630,16.428 C29.398,16.496 29.166,16.564 28.934,16.632 C28.934,16.646 28.934,16.660 28.934,16.673 C28.907,16.673 28.880,16.673 28.852,16.673 C28.852,16.687 28.852,16.701 28.852,16.714 C28.825,16.714 28.798,16.714 28.771,16.714 C28.757,16.742 28.743,16.769 28.730,16.796 C28.675,16.810 28.620,16.824 28.566,16.837 C28.552,16.865 28.538,16.892 28.525,16.919 C28.498,16.919 28.470,16.919 28.443,16.919 C28.402,16.974 28.361,17.029 28.320,17.083 C28.293,17.083 28.265,17.083 28.238,17.083 C28.225,17.110 28.211,17.138 28.197,17.165 C28.143,17.206 28.088,17.247 28.033,17.288 C28.033,17.315 28.033,17.343 28.033,17.370 C27.979,17.411 27.924,17.452 27.870,17.493 C27.870,17.520 27.870,17.547 27.870,17.575 C27.842,17.588 27.815,17.602 27.788,17.616 C27.788,17.643 27.788,17.670 27.788,17.698 C27.760,17.711 27.733,17.725 27.706,17.739 C27.706,17.766 27.706,17.793 27.706,17.821 C27.692,17.821 27.679,17.821 27.665,17.821 C27.638,17.902 27.610,17.984 27.583,18.066 C27.569,18.066 27.556,18.066 27.542,18.066 C27.515,18.189 27.488,18.312 27.460,18.435 C27.447,18.435 27.433,18.435 27.419,18.435 C27.406,18.613 27.392,18.790 27.378,18.968 C27.365,18.968 27.351,18.968 27.337,18.968 C27.337,19.077 27.337,19.186 27.337,19.295 C27.351,19.295 27.365,19.295 27.378,19.295 C27.378,19.405 27.378,19.514 27.378,19.623 C27.392,19.623 27.406,19.623 27.419,19.623 C27.419,19.691 27.419,19.760 27.419,19.828 C27.433,19.828 27.447,19.828 27.460,19.828 C27.460,19.869 27.460,19.910 27.460,19.951 C27.474,19.951 27.488,19.951 27.501,19.951 C27.515,20.033 27.528,20.115 27.542,20.197 C27.556,20.197 27.569,20.197 27.583,20.197 C27.597,20.251 27.610,20.306 27.624,20.360 C27.638,20.360 27.651,20.360 27.665,20.360 C27.679,20.415 27.692,20.470 27.706,20.524 C27.733,20.538 27.760,20.552 27.788,20.565 C27.788,20.593 27.788,20.620 27.788,20.647 C27.815,20.661 27.842,20.675 27.870,20.688 C27.870,20.715 27.870,20.743 27.870,20.770 C27.924,20.811 27.979,20.852 28.033,20.893 C28.033,20.920 28.033,20.948 28.033,20.975 C28.061,20.989 28.088,21.002 28.115,21.016 C28.156,21.071 28.197,21.125 28.238,21.180 C28.265,21.180 28.293,21.180 28.320,21.180 C28.361,21.234 28.402,21.289 28.443,21.344 C28.470,21.344 28.498,21.344 28.525,21.344 C28.538,21.371 28.552,21.398 28.566,21.426 C28.593,21.426 28.620,21.426 28.648,21.426 C28.661,21.453 28.675,21.480 28.689,21.508 C28.716,21.508 28.743,21.508 28.771,21.508 C28.771,21.521 28.771,21.535 28.771,21.548 C28.852,21.576 28.934,21.603 29.016,21.630 C29.016,21.644 29.016,21.658 29.016,21.671 C29.139,21.699 29.262,21.726 29.385,21.753 C29.385,21.767 29.385,21.781 29.385,21.794 C29.453,21.794 29.521,21.794 29.589,21.794 C29.589,21.808 29.589,21.822 29.589,21.835 C30.449,21.835 31.309,21.835 32.169,21.835 C34.776,21.835 37.383,21.835 39.990,21.835 C41.641,21.835 43.293,21.835 44.945,21.835 C45.610,21.835 46.775,21.934 47.279,21.753 C48.086,21.464 48.708,20.838 49.039,20.074 C49.067,19.910 49.094,19.746 49.121,19.582 C49.135,19.582 49.149,19.582 49.162,19.582 C49.162,19.459 49.162,19.336 49.162,19.213 C49.163,18.778 49.133,18.408 48.998,18.107 C48.985,18.107 48.971,18.107 48.957,18.107 C48.944,18.053 48.930,17.998 48.917,17.943 C48.903,17.943 48.889,17.943 48.876,17.943 C48.848,17.861 48.821,17.780 48.794,17.698 C48.766,17.684 48.739,17.670 48.712,17.657 C48.712,17.629 48.712,17.602 48.712,17.575 C48.684,17.561 48.657,17.547 48.630,17.534 C48.630,17.506 48.630,17.479 48.630,17.452 C48.575,17.411 48.521,17.370 48.466,17.329 C48.357,17.206 48.248,17.083 48.139,16.960 C48.111,16.960 48.084,16.960 48.057,16.960 C48.043,16.933 48.029,16.906 48.016,16.878 C47.770,16.755 47.524,16.632 47.279,16.510 C47.224,16.510 47.169,16.510 47.115,16.510 C46.559,16.328 45.377,16.428 44.658,16.428 C39.649,16.428 34.639,16.428 29.630,16.428 ZM35.076,32.814 C35.076,32.828 35.076,32.842 35.076,32.855 C35.008,32.855 34.940,32.855 34.872,32.855 C34.872,32.869 34.872,32.883 34.872,32.896 C34.831,32.896 34.790,32.896 34.749,32.896 C34.749,32.910 34.749,32.924 34.749,32.937 C34.708,32.937 34.667,32.937 34.626,32.937 C34.626,32.951 34.626,32.965 34.626,32.978 C34.585,32.978 34.544,32.978 34.503,32.978 C34.503,32.992 34.503,33.006 34.503,33.019 C34.476,33.019 34.449,33.019 34.421,33.019 C34.421,33.033 34.421,33.046 34.421,33.060 C34.394,33.060 34.367,33.060 34.339,33.060 C34.339,33.074 34.339,33.087 34.339,33.101 C34.312,33.101 34.285,33.101 34.257,33.101 C34.257,33.115 34.257,33.128 34.257,33.142 C34.230,33.142 34.203,33.142 34.176,33.142 C34.176,33.156 34.176,33.169 34.176,33.183 C34.148,33.183 34.121,33.183 34.094,33.183 C34.080,33.210 34.066,33.238 34.053,33.265 C34.025,33.265 33.998,33.265 33.971,33.265 C33.944,33.306 33.916,33.347 33.889,33.388 C33.862,33.388 33.834,33.388 33.807,33.388 C33.725,33.483 33.643,33.579 33.561,33.675 C33.507,33.716 33.452,33.757 33.398,33.798 C33.398,33.825 33.398,33.852 33.398,33.879 C33.357,33.907 33.316,33.934 33.275,33.961 C33.275,33.989 33.275,34.016 33.275,34.043 C33.247,34.057 33.220,34.071 33.193,34.084 C33.097,34.303 33.002,34.521 32.906,34.740 C32.906,34.794 32.906,34.849 32.906,34.904 C32.855,35.062 32.750,35.669 32.824,35.928 C32.838,35.928 32.852,35.928 32.865,35.928 C32.865,36.010 32.865,36.092 32.865,36.174 C32.879,36.174 32.893,36.174 32.906,36.174 C32.933,36.296 32.961,36.419 32.988,36.542 C33.002,36.542 33.015,36.542 33.029,36.542 C33.056,36.624 33.084,36.706 33.111,36.788 C33.125,36.788 33.138,36.788 33.152,36.788 C33.166,36.843 33.179,36.897 33.193,36.952 C33.206,36.952 33.220,36.952 33.234,36.952 C33.247,36.993 33.261,37.034 33.275,37.075 C33.302,37.089 33.329,37.102 33.357,37.116 C33.357,37.143 33.357,37.170 33.357,37.198 C33.466,37.293 33.575,37.389 33.684,37.485 C33.739,37.553 33.793,37.621 33.848,37.689 C33.875,37.689 33.903,37.689 33.930,37.689 C33.957,37.730 33.984,37.771 34.012,37.812 C34.066,37.826 34.121,37.840 34.176,37.853 C34.189,37.881 34.203,37.908 34.216,37.935 C34.244,37.935 34.271,37.935 34.298,37.935 C34.298,37.949 34.298,37.962 34.298,37.976 C34.326,37.976 34.353,37.976 34.380,37.976 C34.380,37.990 34.380,38.003 34.380,38.017 C35.093,38.336 36.220,38.263 37.247,38.263 C39.048,38.263 40.850,38.263 42.652,38.263 C49.080,38.263 55.510,38.263 61.938,38.263 C63.548,38.263 65.159,38.263 66.770,38.263 C67.517,38.263 68.407,38.331 68.981,38.140 C69.035,38.140 69.090,38.140 69.144,38.140 C69.144,38.126 69.144,38.113 69.144,38.099 C69.172,38.099 69.199,38.099 69.226,38.099 C69.226,38.085 69.226,38.072 69.226,38.058 C69.267,38.058 69.308,38.058 69.349,38.058 C69.349,38.044 69.349,38.031 69.349,38.017 C69.431,37.990 69.513,37.962 69.595,37.935 C69.595,37.922 69.595,37.908 69.595,37.894 C69.649,37.881 69.704,37.867 69.759,37.853 C69.772,37.826 69.786,37.799 69.800,37.771 C69.827,37.771 69.854,37.771 69.881,37.771 C69.909,37.730 69.936,37.689 69.963,37.648 C69.991,37.648 70.018,37.648 70.045,37.648 C70.086,37.594 70.127,37.539 70.168,37.485 C70.250,37.416 70.332,37.348 70.414,37.280 C70.414,37.252 70.414,37.225 70.414,37.198 C70.455,37.170 70.496,37.143 70.537,37.116 C70.537,37.089 70.537,37.061 70.537,37.034 C70.564,37.020 70.591,37.007 70.619,36.993 C70.619,36.966 70.619,36.938 70.619,36.911 C70.632,36.911 70.646,36.911 70.659,36.911 C70.659,36.884 70.659,36.856 70.659,36.829 C70.673,36.829 70.687,36.829 70.700,36.829 C70.700,36.802 70.700,36.774 70.700,36.747 C70.714,36.747 70.728,36.747 70.741,36.747 C70.741,36.720 70.741,36.693 70.741,36.665 C70.755,36.665 70.769,36.665 70.782,36.665 C70.782,36.638 70.782,36.611 70.782,36.583 C70.796,36.583 70.810,36.583 70.823,36.583 C70.823,36.556 70.823,36.529 70.823,36.501 C70.837,36.501 70.851,36.501 70.864,36.501 C70.919,36.256 70.973,36.010 71.028,35.764 C71.028,35.600 71.028,35.436 71.028,35.272 C71.014,35.272 71.001,35.272 70.987,35.272 C70.987,35.177 70.987,35.081 70.987,34.986 C70.973,34.986 70.960,34.986 70.946,34.986 C70.946,34.931 70.946,34.876 70.946,34.822 C70.932,34.822 70.919,34.822 70.905,34.822 C70.905,34.767 70.905,34.712 70.905,34.658 C70.796,34.439 70.687,34.221 70.578,34.002 C70.550,33.989 70.523,33.975 70.496,33.961 C70.496,33.934 70.496,33.907 70.496,33.879 C70.455,33.852 70.414,33.825 70.373,33.798 C70.373,33.770 70.373,33.743 70.373,33.716 C70.346,33.702 70.318,33.688 70.291,33.675 C70.236,33.606 70.182,33.538 70.127,33.470 C70.100,33.470 70.073,33.470 70.045,33.470 C70.004,33.415 69.963,33.361 69.922,33.306 C69.895,33.306 69.868,33.306 69.841,33.306 C69.827,33.279 69.813,33.251 69.800,33.224 C69.745,33.210 69.690,33.197 69.636,33.183 C69.622,33.156 69.609,33.128 69.595,33.101 C69.568,33.101 69.540,33.101 69.513,33.101 C69.513,33.087 69.513,33.074 69.513,33.060 C69.486,33.060 69.458,33.060 69.431,33.060 C69.431,33.046 69.431,33.033 69.431,33.019 C69.390,33.019 69.349,33.019 69.308,33.019 C69.308,33.006 69.308,32.992 69.308,32.978 C69.281,32.978 69.254,32.978 69.226,32.978 C69.226,32.965 69.226,32.951 69.226,32.937 C69.185,32.937 69.144,32.937 69.103,32.937 C69.103,32.924 69.103,32.910 69.103,32.896 C68.624,32.726 67.716,32.814 67.097,32.814 C65.732,32.814 64.367,32.814 63.002,32.814 C53.695,32.814 44.384,32.814 35.076,32.814 ZM4.284,61.737 C4.257,61.737 4.230,61.737 4.202,61.737 C4.107,61.628 4.011,61.518 3.916,61.409 C3.888,61.395 3.861,61.382 3.834,61.368 C3.834,61.341 3.834,61.314 3.834,61.286 C3.806,61.273 3.779,61.259 3.752,61.245 C3.752,61.232 3.752,61.218 3.752,61.204 C3.629,61.095 3.506,60.986 3.383,60.877 C3.383,60.849 3.383,60.822 3.383,60.795 C3.315,60.740 3.247,60.685 3.179,60.631 C3.179,60.603 3.179,60.576 3.179,60.549 C3.110,60.494 3.042,60.440 2.974,60.385 C2.974,60.358 2.974,60.330 2.974,60.303 C2.933,60.276 2.892,60.248 2.851,60.221 C2.851,60.194 2.851,60.166 2.851,60.139 C2.810,60.112 2.769,60.085 2.728,60.057 C2.728,60.030 2.728,60.003 2.728,59.975 C2.687,59.948 2.646,59.921 2.605,59.893 C2.605,59.866 2.605,59.839 2.605,59.811 C2.564,59.784 2.523,59.757 2.482,59.729 C2.482,59.702 2.482,59.675 2.482,59.648 C2.455,59.634 2.428,59.620 2.401,59.607 C2.401,59.579 2.401,59.552 2.401,59.525 C2.373,59.511 2.346,59.497 2.319,59.484 C2.319,59.456 2.319,59.429 2.319,59.402 C2.291,59.388 2.264,59.374 2.237,59.361 C2.237,59.333 2.237,59.306 2.237,59.279 C2.209,59.265 2.182,59.252 2.155,59.238 C2.141,59.183 2.128,59.129 2.114,59.074 C2.087,59.060 2.059,59.047 2.032,59.033 C2.032,59.006 2.032,58.978 2.032,58.951 C2.005,58.937 1.977,58.924 1.950,58.910 C1.950,58.883 1.950,58.856 1.950,58.828 C1.936,58.828 1.923,58.828 1.909,58.828 C1.909,58.801 1.909,58.774 1.909,58.746 C1.896,58.746 1.882,58.746 1.868,58.746 C1.868,58.719 1.868,58.692 1.868,58.664 C1.841,58.651 1.814,58.637 1.786,58.623 C1.759,58.541 1.732,58.459 1.704,58.378 C1.677,58.364 1.650,58.350 1.623,58.337 C1.595,58.255 1.568,58.173 1.541,58.091 C1.527,58.091 1.513,58.091 1.500,58.091 C1.500,58.063 1.500,58.036 1.500,58.009 C1.486,58.009 1.472,58.009 1.459,58.009 C1.459,57.982 1.459,57.954 1.459,57.927 C1.445,57.927 1.431,57.927 1.418,57.927 C1.391,57.845 1.363,57.763 1.336,57.681 C1.322,57.681 1.309,57.681 1.295,57.681 C1.295,57.640 1.295,57.599 1.295,57.558 C1.281,57.558 1.268,57.558 1.254,57.558 C1.254,57.531 1.254,57.504 1.254,57.476 C1.240,57.476 1.227,57.476 1.213,57.476 C1.199,57.422 1.186,57.367 1.172,57.312 C1.158,57.312 1.145,57.312 1.131,57.312 C1.131,57.271 1.131,57.230 1.131,57.190 C1.118,57.190 1.104,57.190 1.090,57.190 C1.077,57.135 1.063,57.080 1.049,57.026 C1.036,57.026 1.022,57.026 1.008,57.026 C1.008,56.985 1.008,56.944 1.008,56.903 C0.995,56.903 0.981,56.903 0.967,56.903 C0.967,56.875 0.967,56.848 0.967,56.821 C0.954,56.821 0.940,56.821 0.926,56.821 C0.913,56.739 0.899,56.657 0.885,56.575 C0.872,56.575 0.858,56.575 0.845,56.575 C0.845,56.548 0.845,56.520 0.845,56.493 C0.831,56.493 0.817,56.493 0.804,56.493 C0.790,56.411 0.776,56.329 0.763,56.247 C0.749,56.247 0.735,56.247 0.722,56.247 C0.722,56.206 0.722,56.165 0.722,56.124 C0.708,56.124 0.694,56.124 0.681,56.124 C0.681,56.083 0.681,56.042 0.681,56.001 C0.667,56.001 0.653,56.001 0.640,56.001 C0.613,55.865 0.585,55.728 0.558,55.592 C0.544,55.592 0.531,55.592 0.517,55.592 C0.503,55.483 0.490,55.373 0.476,55.264 C0.462,55.264 0.449,55.264 0.435,55.264 C0.435,55.209 0.435,55.155 0.435,55.100 C0.421,55.100 0.408,55.100 0.394,55.100 C0.394,55.046 0.394,54.991 0.394,54.936 C0.380,54.936 0.367,54.936 0.353,54.936 C0.353,54.882 0.353,54.827 0.353,54.772 C0.340,54.772 0.326,54.772 0.312,54.772 C0.312,54.704 0.312,54.636 0.312,54.568 C0.299,54.568 0.285,54.568 0.271,54.568 C0.271,54.499 0.271,54.431 0.271,54.363 C0.258,54.363 0.244,54.363 0.230,54.363 C0.217,54.185 0.203,54.008 0.189,53.830 C0.176,53.830 0.162,53.830 0.148,53.830 C0.135,53.612 0.121,53.393 0.107,53.175 C0.094,53.175 0.080,53.175 0.067,53.175 C0.067,52.970 0.067,52.765 0.067,52.560 C0.053,52.560 0.039,52.560 0.026,52.560 C-0.033,52.348 0.022,51.408 0.067,51.249 C0.067,51.058 0.067,50.867 0.067,50.676 C0.080,50.676 0.094,50.676 0.107,50.676 C0.107,50.539 0.107,50.403 0.107,50.266 C0.121,50.266 0.135,50.266 0.148,50.266 C0.148,50.171 0.148,50.075 0.148,49.979 C0.162,49.979 0.176,49.979 0.189,49.979 C0.203,49.802 0.217,49.624 0.230,49.447 C0.244,49.447 0.258,49.447 0.271,49.447 C0.271,49.379 0.271,49.310 0.271,49.242 C0.285,49.242 0.299,49.242 0.312,49.242 C0.312,49.174 0.312,49.105 0.312,49.037 C0.326,49.037 0.340,49.037 0.353,49.037 C0.353,48.983 0.353,48.928 0.353,48.873 C0.367,48.873 0.380,48.873 0.394,48.873 C0.394,48.819 0.394,48.764 0.394,48.709 C0.408,48.709 0.421,48.709 0.435,48.709 C0.435,48.655 0.435,48.600 0.435,48.546 C0.449,48.546 0.462,48.546 0.476,48.546 C0.490,48.436 0.503,48.327 0.517,48.218 C0.531,48.218 0.544,48.218 0.558,48.218 C0.572,48.122 0.585,48.027 0.599,47.931 C0.613,47.931 0.626,47.931 0.640,47.931 C0.640,47.890 0.640,47.849 0.640,47.808 C0.653,47.808 0.667,47.808 0.681,47.808 C0.681,47.767 0.681,47.726 0.681,47.685 C0.694,47.685 0.708,47.685 0.722,47.685 C0.722,47.644 0.722,47.603 0.722,47.562 C0.735,47.562 0.749,47.562 0.763,47.562 C0.776,47.480 0.790,47.398 0.804,47.317 C0.817,47.317 0.831,47.317 0.845,47.317 C0.845,47.289 0.845,47.262 0.845,47.235 C0.858,47.235 0.872,47.235 0.885,47.235 C0.899,47.153 0.913,47.071 0.926,46.989 C0.940,46.989 0.954,46.989 0.967,46.989 C0.967,46.962 0.967,46.934 0.967,46.907 C0.981,46.907 0.995,46.907 1.008,46.907 C1.008,46.866 1.008,46.825 1.008,46.784 C1.022,46.784 1.036,46.784 1.049,46.784 C1.049,46.757 1.049,46.729 1.049,46.702 C1.063,46.702 1.077,46.702 1.090,46.702 C1.090,46.661 1.090,46.620 1.090,46.579 C1.104,46.579 1.118,46.579 1.131,46.579 C1.145,46.525 1.158,46.470 1.172,46.415 C1.186,46.415 1.199,46.415 1.213,46.415 C1.213,46.374 1.213,46.333 1.213,46.292 C1.227,46.292 1.240,46.292 1.254,46.292 C1.281,46.210 1.309,46.129 1.336,46.047 C1.350,46.047 1.363,46.047 1.377,46.047 C1.377,46.019 1.377,45.992 1.377,45.965 C1.390,45.965 1.404,45.965 1.418,45.965 C1.418,45.937 1.418,45.910 1.418,45.883 C1.431,45.883 1.445,45.883 1.459,45.883 C1.459,45.855 1.459,45.828 1.459,45.801 C1.472,45.801 1.486,45.801 1.500,45.801 C1.500,45.773 1.500,45.746 1.500,45.719 C1.513,45.719 1.527,45.719 1.541,45.719 C1.541,45.692 1.541,45.664 1.541,45.637 C1.554,45.637 1.568,45.637 1.582,45.637 C1.582,45.610 1.582,45.582 1.582,45.555 C1.595,45.555 1.609,45.555 1.623,45.555 C1.623,45.528 1.623,45.500 1.623,45.473 C1.636,45.473 1.650,45.473 1.663,45.473 C1.663,45.446 1.663,45.418 1.663,45.391 C1.677,45.391 1.691,45.391 1.704,45.391 C1.704,45.364 1.704,45.336 1.704,45.309 C1.732,45.296 1.759,45.282 1.786,45.268 C1.814,45.186 1.841,45.104 1.868,45.022 C1.896,45.009 1.923,44.995 1.950,44.981 C1.964,44.927 1.977,44.872 1.991,44.818 C2.005,44.818 2.018,44.818 2.032,44.818 C2.046,44.777 2.059,44.736 2.073,44.695 C2.100,44.681 2.128,44.667 2.155,44.654 C2.168,44.599 2.182,44.544 2.196,44.490 C2.223,44.476 2.250,44.463 2.278,44.449 C2.278,44.422 2.278,44.394 2.278,44.367 C2.291,44.367 2.305,44.367 2.319,44.367 C2.332,44.326 2.346,44.285 2.360,44.244 C2.387,44.230 2.414,44.217 2.441,44.203 C2.441,44.176 2.441,44.148 2.441,44.121 C2.482,44.094 2.523,44.067 2.564,44.039 C2.564,44.012 2.564,43.985 2.564,43.957 C2.592,43.944 2.619,43.930 2.646,43.916 C2.646,43.889 2.646,43.862 2.646,43.834 C2.687,43.807 2.728,43.780 2.769,43.752 C2.769,43.725 2.769,43.698 2.769,43.671 C2.824,43.630 2.878,43.589 2.933,43.548 C2.933,43.520 2.933,43.493 2.933,43.466 C2.987,43.425 3.042,43.384 3.097,43.343 C3.097,43.315 3.097,43.288 3.097,43.261 C3.165,43.206 3.233,43.152 3.301,43.097 C3.301,43.070 3.301,43.042 3.301,43.015 C3.397,42.933 3.492,42.851 3.588,42.769 C3.933,42.292 4.420,41.845 4.898,41.499 C4.953,41.431 5.008,41.363 5.062,41.294 C5.089,41.294 5.117,41.294 5.144,41.294 C5.185,41.240 5.226,41.185 5.267,41.131 C5.294,41.131 5.321,41.131 5.349,41.131 C5.376,41.090 5.403,41.049 5.431,41.008 C5.458,41.008 5.485,41.008 5.513,41.008 C5.540,40.967 5.567,40.926 5.594,40.885 C5.622,40.885 5.649,40.885 5.676,40.885 C5.704,40.844 5.731,40.803 5.758,40.762 C5.785,40.762 5.813,40.762 5.840,40.762 C5.854,40.735 5.867,40.707 5.881,40.680 C5.908,40.680 5.936,40.680 5.963,40.680 C5.977,40.653 5.990,40.625 6.004,40.598 C6.031,40.598 6.058,40.598 6.086,40.598 C6.099,40.571 6.113,40.543 6.127,40.516 C6.154,40.516 6.181,40.516 6.209,40.516 C6.222,40.489 6.236,40.461 6.250,40.434 C6.277,40.434 6.304,40.434 6.331,40.434 C6.345,40.407 6.359,40.380 6.372,40.352 C6.400,40.352 6.427,40.352 6.454,40.352 C6.468,40.325 6.482,40.298 6.495,40.270 C6.550,40.257 6.604,40.243 6.659,40.229 C6.673,40.202 6.686,40.175 6.700,40.147 C6.727,40.147 6.755,40.147 6.782,40.147 C6.782,40.134 6.782,40.120 6.782,40.106 C6.809,40.106 6.836,40.106 6.864,40.106 C6.877,40.079 6.891,40.052 6.905,40.024 C6.932,40.024 6.959,40.024 6.987,40.024 C6.987,40.011 6.987,39.997 6.987,39.984 C7.014,39.984 7.041,39.984 7.069,39.984 C7.069,39.970 7.069,39.956 7.069,39.943 C7.096,39.943 7.123,39.943 7.150,39.943 C7.150,39.929 7.150,39.915 7.150,39.902 C7.178,39.902 7.205,39.902 7.232,39.902 C7.232,39.888 7.232,39.874 7.232,39.861 C7.260,39.861 7.287,39.861 7.314,39.861 C7.328,39.833 7.341,39.806 7.355,39.779 C7.410,39.765 7.464,39.751 7.519,39.738 C7.519,39.724 7.519,39.710 7.519,39.697 C7.546,39.697 7.574,39.697 7.601,39.697 C7.601,39.683 7.601,39.669 7.601,39.656 C7.683,39.628 7.765,39.601 7.847,39.574 C7.847,39.560 7.847,39.547 7.847,39.533 C7.887,39.533 7.928,39.533 7.969,39.533 C7.969,39.519 7.969,39.506 7.969,39.492 C7.997,39.492 8.024,39.492 8.051,39.492 C8.051,39.478 8.051,39.465 8.051,39.451 C8.106,39.437 8.160,39.424 8.215,39.410 C8.215,39.396 8.215,39.383 8.215,39.369 C8.256,39.369 8.297,39.369 8.338,39.369 C8.338,39.355 8.338,39.342 8.338,39.328 C8.392,39.314 8.447,39.301 8.502,39.287 C8.502,39.273 8.502,39.260 8.502,39.246 C8.543,39.246 8.584,39.246 8.625,39.246 C8.625,39.232 8.625,39.219 8.625,39.205 C8.652,39.205 8.679,39.205 8.706,39.205 C8.706,39.191 8.706,39.178 8.706,39.164 C8.788,39.151 8.870,39.137 8.952,39.123 C8.952,39.110 8.952,39.096 8.952,39.082 C8.979,39.082 9.007,39.082 9.034,39.082 C9.034,39.069 9.034,39.055 9.034,39.041 C9.157,39.014 9.280,38.987 9.402,38.959 C9.402,38.946 9.402,38.932 9.402,38.918 C9.443,38.918 9.484,38.918 9.525,38.918 C9.525,38.905 9.525,38.891 9.525,38.877 C9.566,38.877 9.607,38.877 9.648,38.877 C9.648,38.864 9.648,38.850 9.648,38.836 C9.689,38.836 9.730,38.836 9.771,38.836 C9.771,38.823 9.771,38.809 9.771,38.795 C9.867,38.782 9.962,38.768 10.058,38.755 C10.058,38.741 10.058,38.727 10.058,38.714 C10.112,38.714 10.167,38.714 10.221,38.714 C10.221,38.700 10.221,38.686 10.221,38.673 C10.385,38.645 10.549,38.618 10.713,38.591 C10.713,38.577 10.713,38.563 10.713,38.550 C10.849,38.536 10.986,38.522 11.122,38.509 C11.122,38.495 11.122,38.481 11.122,38.468 C11.204,38.468 11.286,38.468 11.368,38.468 C11.368,38.454 11.368,38.440 11.368,38.427 C11.450,38.427 11.532,38.427 11.614,38.427 C11.614,38.413 11.614,38.399 11.614,38.386 C11.709,38.386 11.805,38.386 11.900,38.386 C11.900,38.372 11.900,38.358 11.900,38.345 C12.009,38.345 12.119,38.345 12.228,38.345 C12.228,38.331 12.228,38.318 12.228,38.304 C12.378,38.304 12.528,38.304 12.678,38.304 C12.678,38.290 12.678,38.277 12.678,38.263 C12.869,38.263 13.060,38.263 13.252,38.263 C13.713,38.263 14.338,38.194 14.726,38.304 C14.876,38.304 15.026,38.304 15.176,38.304 C15.176,38.318 15.176,38.331 15.176,38.345 C15.285,38.345 15.394,38.345 15.504,38.345 C15.504,38.358 15.504,38.372 15.504,38.386 C15.599,38.386 15.695,38.386 15.790,38.386 C15.790,38.399 15.790,38.413 15.790,38.427 C15.872,38.427 15.954,38.427 16.036,38.427 C16.036,38.440 16.036,38.454 16.036,38.468 C16.104,38.468 16.172,38.468 16.241,38.468 C16.241,38.481 16.241,38.495 16.241,38.509 C16.309,38.509 16.377,38.509 16.445,38.509 C16.445,38.522 16.445,38.536 16.445,38.550 C16.514,38.550 16.582,38.550 16.650,38.550 C16.650,38.563 16.650,38.577 16.650,38.591 C16.705,38.591 16.759,38.591 16.814,38.591 C16.814,38.604 16.814,38.618 16.814,38.632 C16.869,38.632 16.923,38.632 16.978,38.632 C16.978,38.645 16.978,38.659 16.978,38.673 C17.032,38.673 17.087,38.673 17.142,38.673 C17.142,38.686 17.142,38.700 17.142,38.714 C17.251,38.727 17.360,38.741 17.469,38.755 C17.469,38.768 17.469,38.782 17.469,38.795 C17.510,38.795 17.551,38.795 17.592,38.795 C17.592,38.809 17.592,38.823 17.592,38.836 C17.633,38.836 17.674,38.836 17.715,38.836 C17.715,38.850 17.715,38.864 17.715,38.877 C17.756,38.877 17.797,38.877 17.838,38.877 C17.838,38.891 17.838,38.905 17.838,38.918 C17.879,38.918 17.920,38.918 17.960,38.918 C17.960,38.932 17.960,38.946 17.960,38.959 C18.001,38.959 18.042,38.959 18.083,38.959 C18.083,38.973 18.083,38.987 18.083,39.000 C18.124,39.000 18.165,39.000 18.206,39.000 C18.206,39.014 18.206,39.028 18.206,39.041 C18.329,39.069 18.452,39.096 18.575,39.123 C18.575,39.137 18.575,39.151 18.575,39.164 C18.602,39.164 18.629,39.164 18.657,39.164 C18.657,39.178 18.657,39.191 18.657,39.205 C18.698,39.205 18.738,39.205 18.779,39.205 C18.779,39.219 18.779,39.232 18.779,39.246 C18.807,39.246 18.834,39.246 18.861,39.246 C18.861,39.260 18.861,39.273 18.861,39.287 C18.902,39.287 18.943,39.287 18.984,39.287 C18.984,39.301 18.984,39.314 18.984,39.328 C19.039,39.342 19.093,39.355 19.148,39.369 C19.148,39.383 19.148,39.396 19.148,39.410 C19.175,39.410 19.203,39.410 19.230,39.410 C19.230,39.424 19.230,39.437 19.230,39.451 C19.271,39.451 19.312,39.451 19.353,39.451 C19.353,39.465 19.353,39.478 19.353,39.492 C19.435,39.519 19.516,39.547 19.598,39.574 C19.598,39.588 19.598,39.601 19.598,39.615 C19.626,39.615 19.653,39.615 19.680,39.615 C19.680,39.628 19.680,39.642 19.680,39.656 C19.708,39.656 19.735,39.656 19.762,39.656 C19.762,39.669 19.762,39.683 19.762,39.697 C19.789,39.697 19.817,39.697 19.844,39.697 C19.844,39.710 19.844,39.724 19.844,39.738 C19.871,39.738 19.899,39.738 19.926,39.738 C19.926,39.751 19.926,39.765 19.926,39.779 C19.953,39.779 19.981,39.779 20.008,39.779 C20.008,39.792 20.008,39.806 20.008,39.820 C20.035,39.820 20.062,39.820 20.090,39.820 C20.090,39.833 20.090,39.847 20.090,39.861 C20.117,39.861 20.144,39.861 20.172,39.861 C20.172,39.874 20.172,39.888 20.172,39.902 C20.199,39.902 20.226,39.902 20.254,39.902 C20.267,39.929 20.281,39.956 20.294,39.984 C20.376,40.011 20.458,40.038 20.540,40.065 C20.554,40.093 20.567,40.120 20.581,40.147 C20.608,40.147 20.636,40.147 20.663,40.147 C20.663,40.161 20.663,40.175 20.663,40.188 C20.690,40.188 20.718,40.188 20.745,40.188 C20.759,40.216 20.772,40.243 20.786,40.270 C20.840,40.284 20.895,40.298 20.950,40.311 C20.963,40.339 20.977,40.366 20.991,40.393 C21.018,40.393 21.045,40.393 21.072,40.393 C21.086,40.420 21.100,40.448 21.113,40.475 C21.141,40.475 21.168,40.475 21.195,40.475 C21.209,40.502 21.223,40.530 21.236,40.557 C21.264,40.557 21.291,40.557 21.318,40.557 C21.332,40.584 21.345,40.612 21.359,40.639 C21.386,40.639 21.414,40.639 21.441,40.639 C21.455,40.666 21.468,40.694 21.482,40.721 C21.509,40.721 21.537,40.721 21.564,40.721 C21.591,40.762 21.618,40.803 21.646,40.844 C21.673,40.844 21.700,40.844 21.728,40.844 C21.741,40.871 21.755,40.898 21.769,40.926 C21.796,40.926 21.823,40.926 21.850,40.926 C21.878,40.967 21.905,41.008 21.932,41.049 C21.960,41.049 21.987,41.049 22.014,41.049 C22.055,41.103 22.096,41.158 22.137,41.213 C22.164,41.213 22.192,41.213 22.219,41.213 C22.260,41.267 22.301,41.322 22.342,41.376 C22.369,41.376 22.396,41.376 22.424,41.376 C22.492,41.458 22.560,41.540 22.628,41.622 C22.656,41.622 22.683,41.622 22.710,41.622 C22.710,41.636 22.710,41.649 22.710,41.663 C22.765,41.704 22.820,41.745 22.874,41.786 C22.983,41.909 23.093,42.032 23.202,42.155 C23.229,42.155 23.256,42.155 23.284,42.155 C23.311,42.196 23.338,42.237 23.365,42.278 C23.393,42.291 23.420,42.305 23.447,42.319 C23.447,42.346 23.447,42.373 23.447,42.401 C23.625,42.564 23.802,42.728 23.980,42.892 C23.980,42.919 23.980,42.947 23.980,42.974 C24.048,43.029 24.116,43.083 24.184,43.138 C24.184,43.165 24.184,43.193 24.184,43.220 C24.253,43.275 24.321,43.329 24.389,43.384 C24.389,43.411 24.389,43.438 24.389,43.466 C24.430,43.493 24.471,43.520 24.512,43.548 C24.512,43.575 24.512,43.602 24.512,43.630 C24.567,43.671 24.621,43.711 24.676,43.752 C24.676,43.780 24.676,43.807 24.676,43.834 C24.703,43.848 24.730,43.862 24.758,43.875 C24.758,43.903 24.758,43.930 24.758,43.957 C24.799,43.985 24.840,44.012 24.881,44.039 C24.881,44.067 24.881,44.094 24.881,44.121 C24.908,44.135 24.935,44.148 24.962,44.162 C24.962,44.189 24.962,44.217 24.962,44.244 C24.990,44.258 25.017,44.271 25.044,44.285 C25.044,44.312 25.044,44.340 25.044,44.367 C25.072,44.381 25.099,44.394 25.126,44.408 C25.126,44.435 25.126,44.463 25.126,44.490 C25.154,44.504 25.181,44.517 25.208,44.531 C25.208,44.558 25.208,44.585 25.208,44.613 C25.235,44.626 25.263,44.640 25.290,44.654 C25.304,44.708 25.317,44.763 25.331,44.818 C25.358,44.831 25.386,44.845 25.413,44.859 C25.426,44.913 25.440,44.968 25.454,45.022 C25.481,45.036 25.508,45.050 25.536,45.063 C25.563,45.145 25.590,45.227 25.618,45.309 C25.645,45.323 25.672,45.336 25.699,45.350 C25.699,45.377 25.699,45.405 25.699,45.432 C25.713,45.432 25.727,45.432 25.740,45.432 C25.740,45.459 25.740,45.487 25.740,45.514 C25.754,45.514 25.768,45.514 25.781,45.514 C25.781,45.541 25.781,45.569 25.781,45.596 C25.795,45.596 25.809,45.596 25.822,45.596 C25.822,45.623 25.822,45.651 25.822,45.678 C25.836,45.678 25.850,45.678 25.863,45.678 C25.863,45.705 25.863,45.733 25.863,45.760 C25.877,45.760 25.891,45.760 25.904,45.760 C25.904,45.787 25.904,45.814 25.904,45.842 C25.918,45.842 25.932,45.842 25.945,45.842 C25.945,45.869 25.945,45.896 25.945,45.924 C25.959,45.924 25.972,45.924 25.986,45.924 C25.986,45.951 25.986,45.978 25.986,46.006 C26.000,46.006 26.013,46.006 26.027,46.006 C26.054,46.088 26.082,46.169 26.109,46.251 C26.123,46.251 26.136,46.251 26.150,46.251 C26.164,46.320 26.177,46.388 26.191,46.456 C26.204,46.456 26.218,46.456 26.232,46.456 C26.232,46.484 26.232,46.511 26.232,46.538 C26.245,46.538 26.259,46.538 26.273,46.538 C26.273,46.579 26.273,46.620 26.273,46.661 C26.286,46.661 26.300,46.661 26.314,46.661 C26.327,46.716 26.341,46.770 26.355,46.825 C26.368,46.825 26.382,46.825 26.396,46.825 C26.409,46.907 26.423,46.989 26.437,47.071 C26.450,47.071 26.464,47.071 26.477,47.071 C26.477,47.098 26.477,47.125 26.477,47.153 C26.491,47.153 26.505,47.153 26.518,47.153 C26.600,47.439 26.682,47.726 26.764,48.013 C26.778,48.013 26.791,48.013 26.805,48.013 C26.805,48.068 26.805,48.122 26.805,48.177 C26.819,48.177 26.832,48.177 26.846,48.177 C26.846,48.218 26.846,48.259 26.846,48.300 C26.860,48.300 26.873,48.300 26.887,48.300 C26.887,48.354 26.887,48.409 26.887,48.464 C26.901,48.464 26.914,48.464 26.928,48.464 C26.928,48.518 26.928,48.573 26.928,48.627 C26.942,48.627 26.955,48.627 26.969,48.627 C26.969,48.682 26.969,48.737 26.969,48.791 C26.982,48.791 26.996,48.791 27.010,48.791 C27.010,48.846 27.010,48.901 27.010,48.955 C27.023,48.955 27.037,48.955 27.051,48.955 C27.051,49.023 27.051,49.092 27.051,49.160 C27.064,49.160 27.078,49.160 27.092,49.160 C27.105,49.297 27.119,49.433 27.133,49.570 C27.146,49.570 27.160,49.570 27.174,49.570 C27.174,49.652 27.174,49.734 27.174,49.816 C27.187,49.816 27.201,49.816 27.215,49.816 C27.215,49.911 27.215,50.007 27.215,50.102 C27.228,50.102 27.242,50.102 27.255,50.102 C27.269,50.375 27.283,50.649 27.296,50.922 C27.385,51.243 27.387,52.567 27.296,52.888 C27.296,53.038 27.296,53.188 27.296,53.339 C27.283,53.339 27.269,53.339 27.255,53.339 C27.242,53.557 27.228,53.776 27.215,53.994 C27.105,54.499 26.996,55.005 26.887,55.510 C26.737,55.960 26.587,56.411 26.437,56.862 C26.423,56.862 26.409,56.862 26.396,56.862 C26.396,56.889 26.396,56.916 26.396,56.944 C26.382,56.944 26.368,56.944 26.355,56.944 C26.355,56.985 26.355,57.026 26.355,57.067 C26.341,57.067 26.327,57.067 26.314,57.067 C26.314,57.094 26.314,57.121 26.314,57.149 C26.300,57.149 26.286,57.149 26.273,57.149 C26.273,57.190 26.273,57.231 26.273,57.271 C26.259,57.271 26.245,57.271 26.232,57.271 C26.218,57.326 26.204,57.381 26.191,57.435 C26.177,57.435 26.164,57.435 26.150,57.435 C26.150,57.463 26.150,57.490 26.150,57.517 C26.136,57.517 26.123,57.517 26.109,57.517 C26.109,57.558 26.109,57.599 26.109,57.640 C26.095,57.640 26.082,57.640 26.068,57.640 C26.041,57.722 26.013,57.804 25.986,57.886 C25.972,57.886 25.959,57.886 25.945,57.886 C25.945,57.913 25.945,57.941 25.945,57.968 C25.932,57.968 25.918,57.968 25.904,57.968 C25.904,57.995 25.904,58.023 25.904,58.050 C25.891,58.050 25.877,58.050 25.863,58.050 C25.836,58.132 25.809,58.214 25.781,58.296 C25.754,58.309 25.727,58.323 25.699,58.337 C25.699,58.364 25.699,58.391 25.699,58.419 C25.686,58.419 25.672,58.419 25.659,58.419 C25.659,58.446 25.659,58.473 25.659,58.500 C25.645,58.500 25.631,58.500 25.618,58.500 C25.618,58.528 25.618,58.555 25.618,58.582 C25.604,58.582 25.590,58.582 25.577,58.582 C25.577,58.610 25.577,58.637 25.577,58.664 C25.549,58.678 25.522,58.692 25.495,58.705 C25.481,58.760 25.467,58.815 25.454,58.869 C25.426,58.883 25.399,58.896 25.372,58.910 C25.372,58.937 25.372,58.965 25.372,58.992 C25.358,58.992 25.345,58.992 25.331,58.992 C25.331,59.019 25.331,59.047 25.331,59.074 C25.304,59.088 25.276,59.101 25.249,59.115 C25.249,59.142 25.249,59.170 25.249,59.197 C25.222,59.211 25.194,59.224 25.167,59.238 C25.167,59.265 25.167,59.292 25.167,59.320 C25.140,59.333 25.113,59.347 25.085,59.361 C25.085,59.388 25.085,59.415 25.085,59.443 C25.072,59.443 25.058,59.443 25.044,59.443 C25.031,59.484 25.017,59.525 25.003,59.566 C24.976,59.579 24.949,59.593 24.921,59.607 C24.921,59.634 24.921,59.661 24.921,59.689 C24.894,59.702 24.867,59.716 24.840,59.729 C24.840,59.757 24.840,59.784 24.840,59.811 C24.799,59.839 24.758,59.866 24.717,59.893 C24.717,59.921 24.717,59.948 24.717,59.975 C24.676,60.003 24.635,60.030 24.594,60.057 C24.594,60.085 24.594,60.112 24.594,60.139 C24.553,60.166 24.512,60.194 24.471,60.221 C24.471,60.248 24.471,60.276 24.471,60.303 C24.416,60.344 24.362,60.385 24.307,60.426 C24.307,60.453 24.307,60.481 24.307,60.508 C24.239,60.562 24.171,60.617 24.103,60.672 C24.103,60.699 24.103,60.726 24.103,60.754 C24.007,60.836 23.911,60.918 23.816,60.999 C23.816,61.027 23.816,61.054 23.816,61.081 C23.570,61.313 23.325,61.546 23.079,61.778 C24.334,66.775 25.590,71.774 26.846,76.772 C26.873,76.935 26.901,77.099 26.928,77.263 C27.087,77.736 27.194,78.292 27.337,78.779 C27.385,78.941 27.336,79.770 27.296,79.885 C27.283,79.885 27.269,79.885 27.255,79.885 C27.255,79.926 27.255,79.967 27.255,80.008 C27.242,80.008 27.228,80.008 27.215,80.008 C27.187,80.131 27.160,80.254 27.133,80.377 C27.119,80.377 27.105,80.377 27.092,80.377 C27.092,80.404 27.092,80.431 27.092,80.459 C27.078,80.459 27.064,80.459 27.051,80.459 C27.051,80.486 27.051,80.513 27.051,80.541 C27.023,80.554 26.996,80.568 26.969,80.582 C26.955,80.636 26.942,80.691 26.928,80.745 C26.901,80.759 26.873,80.773 26.846,80.786 C26.846,80.814 26.846,80.841 26.846,80.868 C26.791,80.909 26.737,80.950 26.682,80.991 C26.682,81.019 26.682,81.046 26.682,81.073 C26.655,81.087 26.628,81.100 26.600,81.114 C26.559,81.169 26.518,81.223 26.477,81.278 C26.450,81.278 26.423,81.278 26.396,81.278 C26.355,81.333 26.314,81.387 26.273,81.442 C26.245,81.442 26.218,81.442 26.191,81.442 C26.177,81.469 26.164,81.496 26.150,81.524 C26.109,81.537 26.068,81.551 26.027,81.565 C26.027,81.578 26.027,81.592 26.027,81.606 C26.000,81.606 25.972,81.606 25.945,81.606 C25.945,81.619 25.945,81.633 25.945,81.647 C25.863,81.674 25.781,81.701 25.699,81.729 C25.699,81.742 25.699,81.756 25.699,81.770 C25.577,81.797 25.454,81.824 25.331,81.851 C25.331,81.865 25.331,81.879 25.331,81.892 C25.276,81.892 25.222,81.892 25.167,81.892 C25.014,81.941 24.552,82.047 24.307,81.974 C24.307,81.961 24.307,81.947 24.307,81.933 C24.225,81.933 24.143,81.933 24.062,81.933 C24.062,81.920 24.062,81.906 24.062,81.892 C23.952,81.879 23.843,81.865 23.734,81.851 C23.734,81.838 23.734,81.824 23.734,81.811 C23.707,81.811 23.679,81.811 23.652,81.811 C23.652,81.797 23.652,81.783 23.652,81.770 C23.611,81.770 23.570,81.770 23.529,81.770 C23.529,81.756 23.529,81.742 23.529,81.729 C23.447,81.701 23.365,81.674 23.284,81.647 C23.284,81.633 23.284,81.619 23.284,81.606 C23.256,81.606 23.229,81.606 23.202,81.606 C23.202,81.592 23.202,81.578 23.202,81.565 C23.174,81.565 23.147,81.565 23.120,81.565 C23.120,81.551 23.120,81.537 23.120,81.524 C23.093,81.524 23.065,81.524 23.038,81.524 C23.038,81.510 23.038,81.496 23.038,81.483 C23.011,81.483 22.983,81.483 22.956,81.483 C22.956,81.469 22.956,81.455 22.956,81.442 C22.929,81.442 22.901,81.442 22.874,81.442 C22.874,81.428 22.874,81.415 22.874,81.401 C22.792,81.374 22.710,81.346 22.628,81.319 C22.628,81.305 22.628,81.292 22.628,81.278 C22.574,81.264 22.519,81.251 22.465,81.237 C22.465,81.223 22.465,81.210 22.465,81.196 C22.410,81.182 22.355,81.169 22.301,81.155 C22.301,81.141 22.301,81.128 22.301,81.114 C22.246,81.100 22.192,81.087 22.137,81.073 C22.137,81.059 22.137,81.046 22.137,81.032 C22.110,81.032 22.082,81.032 22.055,81.032 C22.055,81.019 22.055,81.005 22.055,80.991 C22.028,80.991 22.001,80.991 21.973,80.991 C21.973,80.978 21.973,80.964 21.973,80.950 C21.946,80.950 21.919,80.950 21.891,80.950 C21.891,80.937 21.891,80.923 21.891,80.909 C21.864,80.909 21.837,80.909 21.809,80.909 C21.809,80.896 21.809,80.882 21.809,80.868 C21.782,80.868 21.755,80.868 21.728,80.868 C21.728,80.855 21.728,80.841 21.728,80.827 C21.673,80.814 21.618,80.800 21.564,80.786 C21.564,80.773 21.564,80.759 21.564,80.745 C21.509,80.732 21.455,80.718 21.400,80.704 C21.400,80.691 21.400,80.677 21.400,80.663 C21.373,80.663 21.345,80.663 21.318,80.663 C21.318,80.650 21.318,80.636 21.318,80.622 C21.291,80.622 21.264,80.622 21.236,80.622 C21.236,80.609 21.236,80.595 21.236,80.582 C21.209,80.582 21.182,80.582 21.154,80.582 C21.154,80.568 21.154,80.554 21.154,80.541 C21.127,80.541 21.100,80.541 21.072,80.541 C21.072,80.527 21.072,80.513 21.072,80.500 C20.991,80.472 20.909,80.445 20.827,80.418 C19.622,79.773 18.345,79.180 17.142,78.533 C17.114,78.533 17.087,78.533 17.060,78.533 C17.060,78.520 17.060,78.506 17.060,78.492 C17.005,78.479 16.950,78.465 16.896,78.451 C16.896,78.438 16.896,78.424 16.896,78.410 C16.841,78.397 16.787,78.383 16.732,78.369 C16.732,78.356 16.732,78.342 16.732,78.328 C16.705,78.328 16.677,78.328 16.650,78.328 C16.650,78.315 16.650,78.301 16.650,78.287 C16.623,78.287 16.596,78.287 16.568,78.287 C16.568,78.274 16.568,78.260 16.568,78.246 C16.541,78.246 16.514,78.246 16.486,78.246 C16.486,78.233 16.486,78.219 16.486,78.205 C16.459,78.205 16.432,78.205 16.404,78.205 C16.404,78.192 16.404,78.178 16.404,78.164 C16.323,78.137 16.241,78.110 16.159,78.083 C16.159,78.069 16.159,78.055 16.159,78.042 C16.131,78.042 16.104,78.042 16.077,78.042 C16.077,78.028 16.077,78.014 16.077,78.001 C16.050,78.001 16.022,78.001 15.995,78.001 C15.995,77.987 15.995,77.973 15.995,77.960 C15.968,77.960 15.940,77.960 15.913,77.960 C15.913,77.946 15.913,77.932 15.913,77.919 C15.886,77.919 15.859,77.919 15.831,77.919 C15.831,77.905 15.831,77.891 15.831,77.878 C15.749,77.850 15.667,77.823 15.586,77.796 C15.586,77.782 15.586,77.768 15.586,77.755 C15.531,77.741 15.476,77.728 15.422,77.714 C15.422,77.700 15.422,77.687 15.422,77.673 C15.367,77.659 15.313,77.646 15.258,77.632 C15.258,77.618 15.258,77.605 15.258,77.591 C15.231,77.591 15.203,77.591 15.176,77.591 C15.176,77.577 15.176,77.564 15.176,77.550 C15.149,77.550 15.121,77.550 15.094,77.550 C15.094,77.536 15.094,77.523 15.094,77.509 C15.067,77.509 15.040,77.509 15.012,77.509 C15.012,77.495 15.012,77.482 15.012,77.468 C14.985,77.468 14.958,77.468 14.930,77.468 C14.930,77.454 14.930,77.441 14.930,77.427 C14.903,77.427 14.876,77.427 14.848,77.427 C14.848,77.413 14.848,77.400 14.848,77.386 C14.821,77.386 14.794,77.386 14.767,77.386 C14.767,77.372 14.767,77.359 14.767,77.345 C14.739,77.345 14.712,77.345 14.685,77.345 C14.685,77.332 14.685,77.318 14.685,77.304 C14.657,77.304 14.630,77.304 14.603,77.304 C14.603,77.291 14.603,77.277 14.603,77.263 C14.575,77.263 14.548,77.263 14.521,77.263 C14.521,77.250 14.521,77.236 14.521,77.222 C14.494,77.222 14.466,77.222 14.439,77.222 C14.439,77.209 14.439,77.195 14.439,77.181 C14.357,77.154 14.275,77.127 14.193,77.099 C14.011,77.002 13.889,76.872 13.620,76.854 C13.620,76.867 13.620,76.881 13.620,76.895 C13.565,76.908 13.511,76.922 13.456,76.935 C13.456,76.949 13.456,76.963 13.456,76.976 C13.429,76.976 13.402,76.976 13.374,76.976 C13.374,76.990 13.374,77.004 13.374,77.017 C13.320,77.031 13.265,77.045 13.211,77.058 C13.211,77.072 13.211,77.086 13.211,77.099 C13.183,77.099 13.156,77.099 13.129,77.099 C13.129,77.113 13.129,77.127 13.129,77.140 C13.101,77.140 13.074,77.140 13.047,77.140 C13.047,77.154 13.047,77.168 13.047,77.181 C13.020,77.181 12.992,77.181 12.965,77.181 C12.965,77.195 12.965,77.209 12.965,77.222 C12.938,77.222 12.910,77.222 12.883,77.222 C12.883,77.236 12.883,77.250 12.883,77.263 C12.828,77.277 12.774,77.291 12.719,77.304 C12.719,77.318 12.719,77.332 12.719,77.345 C12.692,77.345 12.665,77.345 12.637,77.345 C12.637,77.359 12.637,77.372 12.637,77.386 C12.610,77.386 12.583,77.386 12.555,77.386 C12.555,77.400 12.555,77.413 12.555,77.427 C12.528,77.427 12.501,77.427 12.474,77.427 C12.474,77.441 12.474,77.454 12.474,77.468 C12.446,77.468 12.419,77.468 12.392,77.468 C12.392,77.482 12.392,77.495 12.392,77.509 C12.364,77.509 12.337,77.509 12.310,77.509 C12.310,77.523 12.310,77.536 12.310,77.550 C12.228,77.577 12.146,77.605 12.064,77.632 C12.064,77.646 12.064,77.659 12.064,77.673 C11.982,77.700 11.900,77.728 11.818,77.755 C11.818,77.768 11.818,77.782 11.818,77.796 C11.764,77.809 11.709,77.823 11.655,77.837 C11.655,77.850 11.655,77.864 11.655,77.878 C11.600,77.891 11.545,77.905 11.491,77.919 C11.491,77.932 11.491,77.946 11.491,77.960 C11.464,77.960 11.436,77.960 11.409,77.960 C11.409,77.973 11.409,77.987 11.409,78.001 C11.382,78.001 11.354,78.001 11.327,78.001 C11.327,78.014 11.327,78.028 11.327,78.042 C11.300,78.042 11.272,78.042 11.245,78.042 C11.245,78.055 11.245,78.069 11.245,78.083 C11.218,78.083 11.191,78.083 11.163,78.083 C11.163,78.096 11.163,78.110 11.163,78.124 C11.136,78.124 11.109,78.124 11.081,78.124 C11.081,78.137 11.081,78.151 11.081,78.164 C11.054,78.164 11.027,78.164 10.999,78.164 C10.999,78.178 10.999,78.192 10.999,78.205 C10.972,78.205 10.945,78.205 10.918,78.205 C10.918,78.219 10.918,78.233 10.918,78.246 C10.890,78.246 10.863,78.246 10.836,78.246 C10.836,78.260 10.836,78.274 10.836,78.287 C10.808,78.287 10.781,78.287 10.754,78.287 C10.754,78.301 10.754,78.315 10.754,78.328 C10.726,78.328 10.699,78.328 10.672,78.328 C10.672,78.342 10.672,78.356 10.672,78.369 C10.645,78.369 10.617,78.369 10.590,78.369 C9.466,78.971 8.273,79.528 7.150,80.131 C7.123,80.131 7.096,80.131 7.069,80.131 C7.069,80.145 7.069,80.158 7.069,80.172 C7.014,80.186 6.959,80.199 6.905,80.213 C6.905,80.226 6.905,80.240 6.905,80.254 C6.850,80.267 6.796,80.281 6.741,80.295 C6.741,80.308 6.741,80.322 6.741,80.336 C6.714,80.336 6.686,80.336 6.659,80.336 C6.659,80.349 6.659,80.363 6.659,80.377 C6.632,80.377 6.604,80.377 6.577,80.377 C6.577,80.390 6.577,80.404 6.577,80.418 C6.550,80.418 6.523,80.418 6.495,80.418 C6.495,80.431 6.495,80.445 6.495,80.459 C6.468,80.459 6.441,80.459 6.413,80.459 C6.413,80.472 6.413,80.486 6.413,80.500 C6.331,80.527 6.250,80.554 6.168,80.582 C6.168,80.595 6.168,80.609 6.168,80.622 C6.086,80.650 6.004,80.677 5.922,80.704 C5.922,80.718 5.922,80.732 5.922,80.745 C5.840,80.773 5.758,80.800 5.676,80.827 C5.676,80.841 5.676,80.855 5.676,80.868 C5.622,80.882 5.567,80.896 5.513,80.909 C5.513,80.923 5.513,80.937 5.513,80.950 C5.458,80.964 5.403,80.978 5.349,80.991 C5.349,81.005 5.349,81.019 5.349,81.032 C5.321,81.032 5.294,81.032 5.267,81.032 C5.267,81.046 5.267,81.059 5.267,81.073 C5.240,81.073 5.212,81.073 5.185,81.073 C5.185,81.087 5.185,81.100 5.185,81.114 C5.158,81.114 5.130,81.114 5.103,81.114 C5.103,81.128 5.103,81.141 5.103,81.155 C5.076,81.155 5.048,81.155 5.021,81.155 C5.021,81.169 5.021,81.182 5.021,81.196 C4.994,81.196 4.967,81.196 4.939,81.196 C4.939,81.210 4.939,81.223 4.939,81.237 C4.912,81.237 4.885,81.237 4.857,81.237 C4.857,81.251 4.857,81.264 4.857,81.278 C4.830,81.278 4.803,81.278 4.775,81.278 C4.775,81.292 4.775,81.305 4.775,81.319 C4.748,81.319 4.721,81.319 4.694,81.319 C4.694,81.333 4.694,81.346 4.694,81.360 C4.639,81.374 4.584,81.387 4.530,81.401 C4.530,81.415 4.530,81.428 4.530,81.442 C4.502,81.442 4.475,81.442 4.448,81.442 C4.448,81.455 4.448,81.469 4.448,81.483 C4.421,81.483 4.393,81.483 4.366,81.483 C4.366,81.496 4.366,81.510 4.366,81.524 C4.339,81.524 4.311,81.524 4.284,81.524 C4.284,81.537 4.284,81.551 4.284,81.565 C4.257,81.565 4.230,81.565 4.202,81.565 C4.202,81.578 4.202,81.592 4.202,81.606 C4.148,81.619 4.093,81.633 4.038,81.647 C4.038,81.660 4.038,81.674 4.038,81.688 C4.011,81.688 3.984,81.688 3.957,81.688 C3.957,81.701 3.957,81.715 3.957,81.729 C3.916,81.729 3.875,81.729 3.834,81.729 C3.834,81.742 3.834,81.756 3.834,81.770 C3.806,81.770 3.779,81.770 3.752,81.770 C3.752,81.783 3.752,81.797 3.752,81.811 C3.615,81.838 3.479,81.865 3.342,81.892 C3.342,81.906 3.342,81.920 3.342,81.933 C3.260,81.933 3.179,81.933 3.097,81.933 C2.756,82.031 2.300,81.952 2.032,81.851 C1.909,81.824 1.786,81.797 1.663,81.770 C1.663,81.756 1.663,81.742 1.663,81.729 C1.609,81.715 1.554,81.701 1.500,81.688 C1.500,81.674 1.500,81.660 1.500,81.647 C1.472,81.647 1.445,81.647 1.418,81.647 C1.404,81.619 1.390,81.592 1.377,81.565 C1.322,81.551 1.268,81.537 1.213,81.524 C1.186,81.483 1.158,81.442 1.131,81.401 C1.104,81.401 1.077,81.401 1.049,81.401 C0.995,81.333 0.940,81.264 0.885,81.196 C0.790,81.114 0.694,81.032 0.599,80.950 C0.599,80.923 0.599,80.896 0.599,80.868 C0.572,80.855 0.544,80.841 0.517,80.827 C0.503,80.786 0.490,80.745 0.476,80.704 C0.462,80.704 0.449,80.704 0.435,80.704 C0.435,80.677 0.435,80.650 0.435,80.622 C0.408,80.609 0.380,80.595 0.353,80.582 C0.353,80.554 0.353,80.527 0.353,80.500 C0.340,80.500 0.326,80.500 0.312,80.500 C0.312,80.472 0.312,80.445 0.312,80.418 C0.299,80.418 0.285,80.418 0.271,80.418 C0.271,80.377 0.271,80.336 0.271,80.295 C0.258,80.295 0.244,80.295 0.230,80.295 C0.230,80.267 0.230,80.240 0.230,80.213 C0.217,80.213 0.203,80.213 0.189,80.213 C0.176,80.131 0.162,80.049 0.148,79.967 C0.135,79.967 0.121,79.967 0.107,79.967 C0.107,79.912 0.107,79.858 0.107,79.803 C-0.085,79.196 0.103,78.494 0.271,78.001 C0.271,77.946 0.271,77.891 0.271,77.837 C0.285,77.837 0.299,77.837 0.312,77.837 C0.312,77.782 0.312,77.728 0.312,77.673 C0.326,77.673 0.340,77.673 0.353,77.673 C0.353,77.618 0.353,77.564 0.353,77.509 C0.367,77.509 0.380,77.509 0.394,77.509 C0.394,77.454 0.394,77.400 0.394,77.345 C0.678,76.516 0.807,75.553 1.090,74.723 C1.104,74.614 1.118,74.505 1.131,74.396 C1.216,74.149 1.292,73.823 1.377,73.576 C1.377,73.522 1.377,73.467 1.377,73.412 C1.516,73.007 1.607,72.508 1.745,72.101 C1.759,71.979 1.773,71.856 1.786,71.733 C2.128,70.686 2.291,69.496 2.646,68.455 C2.755,67.964 2.865,67.472 2.974,66.981 C3.240,66.204 3.364,65.300 3.629,64.523 C3.629,64.468 3.629,64.413 3.629,64.359 C3.643,64.359 3.656,64.359 3.670,64.359 C3.670,64.304 3.670,64.249 3.670,64.195 C3.684,64.195 3.697,64.195 3.711,64.195 C3.711,64.140 3.711,64.086 3.711,64.031 C3.724,64.031 3.738,64.031 3.752,64.031 C3.752,63.976 3.752,63.922 3.752,63.867 C3.854,63.567 3.936,63.185 4.038,62.884 C4.052,62.775 4.066,62.665 4.079,62.556 C4.162,62.312 4.265,62.037 4.284,61.737 ZM13.456,43.711 C13.321,43.825 12.729,43.731 12.514,43.793 C12.514,43.807 12.514,43.821 12.514,43.834 C12.419,43.834 12.323,43.834 12.228,43.834 C12.228,43.848 12.228,43.862 12.228,43.875 C12.160,43.875 12.091,43.875 12.023,43.875 C12.023,43.889 12.023,43.903 12.023,43.916 C11.969,43.916 11.914,43.916 11.859,43.916 C11.859,43.930 11.859,43.944 11.859,43.957 C11.791,43.957 11.723,43.957 11.655,43.957 C11.655,43.971 11.655,43.985 11.655,43.998 C11.559,44.012 11.463,44.026 11.368,44.039 C11.368,44.053 11.368,44.067 11.368,44.080 C11.327,44.080 11.286,44.080 11.245,44.080 C11.245,44.094 11.245,44.107 11.245,44.121 C11.204,44.121 11.163,44.121 11.122,44.121 C11.122,44.135 11.122,44.148 11.122,44.162 C11.081,44.162 11.040,44.162 10.999,44.162 C10.999,44.176 10.999,44.189 10.999,44.203 C10.918,44.217 10.836,44.230 10.754,44.244 C9.397,44.833 8.169,45.650 7.355,46.784 C7.301,46.825 7.246,46.866 7.191,46.907 C7.191,46.934 7.191,46.962 7.191,46.989 C7.150,47.016 7.109,47.043 7.069,47.071 C7.069,47.098 7.069,47.125 7.069,47.153 C7.028,47.180 6.987,47.207 6.946,47.235 C6.946,47.262 6.946,47.289 6.946,47.317 C6.918,47.330 6.891,47.344 6.864,47.358 C6.850,47.398 6.836,47.439 6.823,47.480 C6.809,47.480 6.796,47.480 6.782,47.480 C6.768,47.535 6.755,47.590 6.741,47.644 C6.714,47.658 6.686,47.672 6.659,47.685 C6.645,47.740 6.632,47.795 6.618,47.849 C6.591,47.863 6.563,47.876 6.536,47.890 C6.536,47.917 6.536,47.945 6.536,47.972 C6.523,47.972 6.509,47.972 6.495,47.972 C6.495,47.999 6.495,48.027 6.495,48.054 C6.482,48.054 6.468,48.054 6.454,48.054 C6.454,48.081 6.454,48.109 6.454,48.136 C6.441,48.136 6.427,48.136 6.413,48.136 C6.413,48.163 6.413,48.191 6.413,48.218 C6.400,48.218 6.386,48.218 6.372,48.218 C6.372,48.245 6.372,48.272 6.372,48.300 C6.359,48.300 6.345,48.300 6.331,48.300 C6.331,48.327 6.331,48.354 6.331,48.382 C6.318,48.382 6.304,48.382 6.291,48.382 C6.263,48.464 6.236,48.546 6.209,48.627 C6.195,48.627 6.181,48.627 6.168,48.627 C6.168,48.668 6.168,48.709 6.168,48.750 C6.154,48.750 6.140,48.750 6.127,48.750 C6.127,48.778 6.127,48.805 6.127,48.832 C6.113,48.832 6.099,48.832 6.086,48.832 C6.072,48.901 6.058,48.969 6.045,49.037 C6.031,49.037 6.018,49.037 6.004,49.037 C5.881,49.474 5.758,49.911 5.635,50.348 C5.622,50.526 5.608,50.703 5.594,50.881 C5.373,51.665 5.544,53.192 5.758,53.830 C5.772,53.939 5.785,54.049 5.799,54.158 C5.813,54.158 5.826,54.158 5.840,54.158 C5.840,54.199 5.840,54.240 5.840,54.281 C5.854,54.281 5.867,54.281 5.881,54.281 C5.895,54.376 5.908,54.472 5.922,54.568 C5.936,54.568 5.949,54.568 5.963,54.568 C5.963,54.595 5.963,54.622 5.963,54.650 C5.977,54.650 5.990,54.650 6.004,54.650 C6.018,54.732 6.031,54.813 6.045,54.895 C6.058,54.895 6.072,54.895 6.086,54.895 C6.086,54.923 6.086,54.950 6.086,54.977 C6.099,54.977 6.113,54.977 6.127,54.977 C6.127,55.018 6.127,55.059 6.127,55.100 C6.140,55.100 6.154,55.100 6.168,55.100 C6.195,55.182 6.222,55.264 6.250,55.346 C6.263,55.346 6.277,55.346 6.291,55.346 C6.291,55.373 6.291,55.401 6.291,55.428 C6.304,55.428 6.318,55.428 6.331,55.428 C6.331,55.455 6.331,55.483 6.331,55.510 C6.345,55.510 6.359,55.510 6.372,55.510 C6.372,55.537 6.372,55.565 6.372,55.592 C6.386,55.592 6.400,55.592 6.413,55.592 C6.413,55.619 6.413,55.646 6.413,55.674 C6.427,55.674 6.441,55.674 6.454,55.674 C6.454,55.701 6.454,55.728 6.454,55.756 C6.468,55.756 6.482,55.756 6.495,55.756 C6.495,55.783 6.495,55.810 6.495,55.838 C6.509,55.838 6.523,55.838 6.536,55.838 C6.536,55.865 6.536,55.892 6.536,55.920 C6.550,55.920 6.563,55.920 6.577,55.920 C6.577,55.947 6.577,55.974 6.577,56.001 C6.604,56.015 6.632,56.029 6.659,56.042 C6.673,56.097 6.686,56.152 6.700,56.206 C6.727,56.220 6.755,56.234 6.782,56.247 C6.782,56.275 6.782,56.302 6.782,56.329 C6.809,56.343 6.836,56.357 6.864,56.370 C6.864,56.398 6.864,56.425 6.864,56.452 C6.891,56.466 6.918,56.479 6.946,56.493 C6.946,56.520 6.946,56.548 6.946,56.575 C6.973,56.589 7.000,56.602 7.028,56.616 C7.028,56.643 7.028,56.671 7.028,56.698 C7.069,56.725 7.109,56.753 7.150,56.780 C7.150,56.807 7.150,56.834 7.150,56.862 C7.191,56.889 7.232,56.916 7.273,56.944 C7.273,56.971 7.273,56.998 7.273,57.026 C7.328,57.067 7.382,57.108 7.437,57.149 C7.437,57.176 7.437,57.203 7.437,57.231 C7.587,57.367 7.737,57.504 7.887,57.640 C8.051,57.818 8.215,57.995 8.379,58.173 C8.406,58.173 8.433,58.173 8.461,58.173 C8.502,58.227 8.543,58.282 8.584,58.337 C8.611,58.337 8.638,58.337 8.665,58.337 C8.693,58.378 8.720,58.419 8.747,58.460 C8.788,58.473 8.829,58.487 8.870,58.500 C8.884,58.528 8.897,58.555 8.911,58.582 C8.938,58.582 8.966,58.582 8.993,58.582 C9.007,58.610 9.020,58.637 9.034,58.664 C9.075,58.678 9.116,58.692 9.157,58.705 C9.157,58.719 9.157,58.733 9.157,58.746 C9.184,58.746 9.211,58.746 9.239,58.746 C9.252,58.774 9.266,58.801 9.280,58.828 C9.321,58.842 9.362,58.856 9.402,58.869 C9.402,58.883 9.402,58.896 9.402,58.910 C9.457,58.924 9.512,58.937 9.566,58.951 C9.580,58.978 9.594,59.006 9.607,59.033 C9.635,59.033 9.662,59.033 9.689,59.033 C9.689,59.047 9.689,59.060 9.689,59.074 C9.716,59.074 9.744,59.074 9.771,59.074 C9.771,59.088 9.771,59.101 9.771,59.115 C9.798,59.115 9.826,59.115 9.853,59.115 C9.853,59.129 9.853,59.142 9.853,59.156 C9.880,59.156 9.908,59.156 9.935,59.156 C9.935,59.170 9.935,59.183 9.935,59.197 C9.962,59.197 9.989,59.197 10.017,59.197 C10.017,59.211 10.017,59.224 10.017,59.238 C10.044,59.238 10.071,59.238 10.099,59.238 C10.099,59.252 10.099,59.265 10.099,59.279 C10.126,59.279 10.153,59.279 10.180,59.279 C10.180,59.292 10.180,59.306 10.180,59.320 C10.208,59.320 10.235,59.320 10.262,59.320 C10.262,59.333 10.262,59.347 10.262,59.361 C10.344,59.388 10.426,59.415 10.508,59.443 C10.508,59.456 10.508,59.470 10.508,59.484 C10.549,59.484 10.590,59.484 10.631,59.484 C10.631,59.497 10.631,59.511 10.631,59.525 C10.658,59.525 10.686,59.525 10.713,59.525 C10.713,59.538 10.713,59.552 10.713,59.566 C10.795,59.579 10.877,59.593 10.958,59.607 C10.958,59.620 10.958,59.634 10.958,59.648 C10.986,59.648 11.013,59.648 11.040,59.648 C11.040,59.661 11.040,59.675 11.040,59.689 C11.081,59.689 11.122,59.689 11.163,59.689 C11.163,59.702 11.163,59.716 11.163,59.729 C11.218,59.729 11.272,59.729 11.327,59.729 C11.327,59.743 11.327,59.757 11.327,59.770 C11.368,59.770 11.409,59.770 11.450,59.770 C11.450,59.784 11.450,59.798 11.450,59.811 C11.504,59.811 11.559,59.811 11.614,59.811 C11.614,59.825 11.614,59.839 11.614,59.852 C11.668,59.852 11.723,59.852 11.777,59.852 C11.777,59.866 11.777,59.880 11.777,59.893 C11.832,59.893 11.887,59.893 11.941,59.893 C11.941,59.907 11.941,59.921 11.941,59.934 C12.009,59.934 12.078,59.934 12.146,59.934 C12.146,59.948 12.146,59.962 12.146,59.975 C12.460,60.003 12.774,60.030 13.088,60.057 C13.235,60.098 14.074,60.155 14.275,60.098 C14.275,60.085 14.275,60.071 14.275,60.057 C14.521,60.044 14.767,60.030 15.012,60.016 C15.012,60.003 15.012,59.989 15.012,59.975 C15.217,59.948 15.422,59.921 15.626,59.893 C15.626,59.880 15.626,59.866 15.626,59.852 C15.681,59.852 15.736,59.852 15.790,59.852 C15.790,59.839 15.790,59.825 15.790,59.811 C15.886,59.798 15.981,59.784 16.077,59.770 C16.077,59.757 16.077,59.743 16.077,59.729 C16.118,59.729 16.159,59.729 16.200,59.729 C16.200,59.716 16.200,59.702 16.200,59.689 C16.241,59.689 16.282,59.689 16.323,59.689 C16.323,59.675 16.323,59.661 16.323,59.648 C16.404,59.634 16.486,59.620 16.568,59.607 C16.568,59.593 16.568,59.579 16.568,59.566 C16.596,59.566 16.623,59.566 16.650,59.566 C16.650,59.552 16.650,59.538 16.650,59.525 C16.691,59.525 16.732,59.525 16.773,59.525 C16.773,59.511 16.773,59.497 16.773,59.484 C16.800,59.484 16.828,59.484 16.855,59.484 C16.855,59.470 16.855,59.456 16.855,59.443 C16.923,59.429 16.991,59.415 17.060,59.402 C17.060,59.388 17.060,59.374 17.060,59.361 C17.142,59.333 17.223,59.306 17.305,59.279 C17.305,59.265 17.305,59.252 17.305,59.238 C17.333,59.238 17.360,59.238 17.387,59.238 C17.387,59.224 17.387,59.211 17.387,59.197 C17.469,59.170 17.551,59.142 17.633,59.115 C17.647,59.088 17.660,59.060 17.674,59.033 C17.756,59.006 17.838,58.978 17.920,58.951 C17.933,58.924 17.947,58.896 17.960,58.869 C17.988,58.869 18.015,58.869 18.042,58.869 C18.056,58.842 18.070,58.815 18.083,58.787 C18.111,58.787 18.138,58.787 18.165,58.787 C18.179,58.760 18.192,58.733 18.206,58.705 C18.233,58.705 18.261,58.705 18.288,58.705 C18.302,58.678 18.315,58.651 18.329,58.623 C18.356,58.623 18.384,58.623 18.411,58.623 C18.425,58.596 18.438,58.569 18.452,58.541 C18.479,58.541 18.506,58.541 18.534,58.541 C18.561,58.500 18.588,58.459 18.616,58.419 C18.643,58.419 18.670,58.419 18.698,58.419 C18.738,58.364 18.779,58.309 18.820,58.255 C18.848,58.255 18.875,58.255 18.902,58.255 C18.970,58.173 19.039,58.091 19.107,58.009 C19.134,58.009 19.162,58.009 19.189,58.009 C19.312,57.872 19.435,57.736 19.557,57.599 C19.639,57.531 19.721,57.463 19.803,57.394 C19.803,57.367 19.803,57.340 19.803,57.312 C19.885,57.244 19.967,57.176 20.049,57.108 C20.049,57.080 20.049,57.053 20.049,57.026 C20.090,56.998 20.131,56.971 20.172,56.944 C20.172,56.916 20.172,56.889 20.172,56.862 C20.213,56.834 20.254,56.807 20.294,56.780 C20.294,56.753 20.294,56.725 20.294,56.698 C20.335,56.671 20.376,56.643 20.417,56.616 C20.417,56.589 20.417,56.561 20.417,56.534 C20.445,56.520 20.472,56.507 20.499,56.493 C20.499,56.466 20.499,56.438 20.499,56.411 C20.526,56.398 20.554,56.384 20.581,56.370 C20.595,56.329 20.608,56.288 20.622,56.247 C20.636,56.247 20.649,56.247 20.663,56.247 C20.677,56.193 20.690,56.138 20.704,56.083 C20.731,56.070 20.759,56.056 20.786,56.042 C20.786,56.015 20.786,55.988 20.786,55.961 C20.799,55.961 20.813,55.961 20.827,55.961 C20.827,55.933 20.827,55.906 20.827,55.879 C20.840,55.879 20.854,55.879 20.868,55.879 C20.868,55.851 20.868,55.824 20.868,55.797 C20.881,55.797 20.895,55.797 20.909,55.797 C20.909,55.769 20.909,55.742 20.909,55.715 C20.922,55.715 20.936,55.715 20.950,55.715 C20.950,55.687 20.950,55.660 20.950,55.633 C20.963,55.633 20.977,55.633 20.991,55.633 C20.991,55.605 20.991,55.578 20.991,55.551 C21.004,55.551 21.018,55.551 21.031,55.551 C21.031,55.524 21.031,55.496 21.031,55.469 C21.045,55.469 21.059,55.469 21.072,55.469 C21.072,55.442 21.072,55.414 21.072,55.387 C21.086,55.387 21.100,55.387 21.113,55.387 C21.141,55.305 21.168,55.223 21.195,55.141 C21.209,55.141 21.223,55.141 21.236,55.141 C21.236,55.100 21.236,55.059 21.236,55.018 C21.250,55.018 21.264,55.018 21.277,55.018 C21.277,54.991 21.277,54.964 21.277,54.936 C21.291,54.936 21.304,54.936 21.318,54.936 C21.332,54.868 21.345,54.800 21.359,54.732 C21.373,54.732 21.386,54.732 21.400,54.732 C21.509,54.349 21.618,53.967 21.728,53.584 C21.755,53.311 21.782,53.038 21.809,52.765 C21.823,52.765 21.837,52.765 21.850,52.765 C21.850,52.533 21.850,52.301 21.850,52.069 C21.864,52.069 21.878,52.069 21.891,52.069 C21.891,51.959 21.891,51.850 21.891,51.741 C21.878,51.741 21.864,51.741 21.850,51.741 C21.837,51.400 21.823,51.058 21.809,50.717 C21.796,50.717 21.782,50.717 21.769,50.717 C21.769,50.635 21.769,50.553 21.769,50.471 C21.755,50.471 21.741,50.471 21.728,50.471 C21.728,50.403 21.728,50.334 21.728,50.266 C21.714,50.266 21.700,50.266 21.687,50.266 C21.687,50.198 21.687,50.130 21.687,50.061 C21.673,50.061 21.659,50.061 21.646,50.061 C21.646,50.007 21.646,49.952 21.646,49.897 C21.632,49.897 21.618,49.897 21.605,49.897 C21.605,49.843 21.605,49.788 21.605,49.734 C21.591,49.734 21.577,49.734 21.564,49.734 C21.550,49.638 21.537,49.542 21.523,49.447 C21.509,49.447 21.496,49.447 21.482,49.447 C21.482,49.406 21.482,49.365 21.482,49.324 C21.468,49.324 21.455,49.324 21.441,49.324 C21.441,49.283 21.441,49.242 21.441,49.201 C21.427,49.201 21.414,49.201 21.400,49.201 C21.400,49.174 21.400,49.146 21.400,49.119 C21.386,49.119 21.373,49.119 21.359,49.119 C21.345,49.037 21.332,48.955 21.318,48.873 C21.304,48.873 21.291,48.873 21.277,48.873 C21.264,48.819 21.250,48.764 21.236,48.709 C21.223,48.709 21.209,48.709 21.195,48.709 C21.195,48.668 21.195,48.627 21.195,48.587 C21.182,48.587 21.168,48.587 21.154,48.587 C21.127,48.505 21.100,48.423 21.072,48.341 C21.059,48.341 21.045,48.341 21.031,48.341 C21.031,48.313 21.031,48.286 21.031,48.259 C21.018,48.259 21.004,48.259 20.991,48.259 C20.991,48.231 20.991,48.204 20.991,48.177 C20.977,48.177 20.963,48.177 20.950,48.177 C20.922,48.095 20.895,48.013 20.868,47.931 C20.840,47.917 20.813,47.904 20.786,47.890 C20.772,47.835 20.759,47.781 20.745,47.726 C20.718,47.713 20.690,47.699 20.663,47.685 C20.663,47.658 20.663,47.631 20.663,47.603 C20.649,47.603 20.636,47.603 20.622,47.603 C20.622,47.576 20.622,47.549 20.622,47.521 C20.608,47.521 20.595,47.521 20.581,47.521 C20.567,47.480 20.554,47.439 20.540,47.398 C20.513,47.385 20.486,47.371 20.458,47.358 C20.458,47.330 20.458,47.303 20.458,47.276 C20.431,47.262 20.404,47.248 20.376,47.235 C20.376,47.207 20.376,47.180 20.376,47.153 C20.335,47.125 20.294,47.098 20.254,47.071 C20.254,47.043 20.254,47.016 20.254,46.989 C20.213,46.962 20.172,46.934 20.131,46.907 C20.131,46.880 20.131,46.852 20.131,46.825 C20.076,46.784 20.021,46.743 19.967,46.702 C19.967,46.675 19.967,46.647 19.967,46.620 C19.844,46.511 19.721,46.402 19.598,46.292 C19.585,46.251 19.571,46.210 19.557,46.169 C19.516,46.142 19.476,46.115 19.435,46.088 C19.435,46.074 19.435,46.060 19.435,46.047 C19.407,46.047 19.380,46.047 19.353,46.047 C19.230,45.910 19.107,45.773 18.984,45.637 C18.957,45.637 18.930,45.637 18.902,45.637 C18.861,45.582 18.820,45.528 18.779,45.473 C18.752,45.473 18.725,45.473 18.698,45.473 C18.670,45.432 18.643,45.391 18.616,45.350 C18.588,45.350 18.561,45.350 18.534,45.350 C18.506,45.309 18.479,45.268 18.452,45.227 C18.425,45.227 18.397,45.227 18.370,45.227 C18.356,45.200 18.343,45.173 18.329,45.145 C18.288,45.132 18.247,45.118 18.206,45.104 C18.206,45.091 18.206,45.077 18.206,45.063 C18.179,45.063 18.152,45.063 18.124,45.063 C18.111,45.036 18.097,45.009 18.083,44.981 C18.042,44.968 18.001,44.954 17.960,44.940 C17.960,44.927 17.960,44.913 17.960,44.900 C17.879,44.872 17.797,44.845 17.715,44.818 C16.620,44.130 15.229,43.722 13.456,43.711 ZM40.563,49.201 C40.563,49.215 40.563,49.228 40.563,49.242 C40.400,49.269 40.236,49.297 40.072,49.324 C40.072,49.338 40.072,49.351 40.072,49.365 C40.045,49.365 40.017,49.365 39.990,49.365 C39.990,49.379 39.990,49.392 39.990,49.406 C39.949,49.406 39.908,49.406 39.867,49.406 C39.867,49.420 39.867,49.433 39.867,49.447 C39.840,49.447 39.813,49.447 39.785,49.447 C39.785,49.460 39.785,49.474 39.785,49.488 C39.758,49.488 39.731,49.488 39.703,49.488 C39.690,49.515 39.676,49.542 39.662,49.570 C39.608,49.583 39.553,49.597 39.499,49.611 C39.485,49.638 39.471,49.665 39.458,49.693 C39.430,49.693 39.403,49.693 39.376,49.693 C39.335,49.747 39.294,49.802 39.253,49.856 C39.226,49.856 39.198,49.856 39.171,49.856 C39.117,49.925 39.062,49.993 39.007,50.061 C38.980,50.075 38.953,50.089 38.925,50.102 C38.925,50.130 38.925,50.157 38.925,50.184 C38.884,50.212 38.844,50.239 38.803,50.266 C38.789,50.307 38.775,50.348 38.762,50.389 C38.734,50.403 38.707,50.416 38.680,50.430 C38.666,50.485 38.652,50.539 38.639,50.594 C38.625,50.594 38.611,50.594 38.598,50.594 C38.598,50.621 38.598,50.649 38.598,50.676 C38.584,50.676 38.571,50.676 38.557,50.676 C38.530,50.758 38.502,50.840 38.475,50.922 C38.461,50.922 38.448,50.922 38.434,50.922 C38.420,51.004 38.407,51.086 38.393,51.167 C38.379,51.167 38.366,51.167 38.352,51.167 C38.352,51.222 38.352,51.277 38.352,51.331 C38.246,51.666 38.245,52.147 38.352,52.478 C38.393,52.656 38.434,52.833 38.475,53.011 C38.489,53.011 38.502,53.011 38.516,53.011 C38.530,53.066 38.543,53.120 38.557,53.175 C38.571,53.175 38.584,53.175 38.598,53.175 C38.598,53.202 38.598,53.229 38.598,53.257 C38.625,53.270 38.652,53.284 38.680,53.298 C38.680,53.325 38.680,53.352 38.680,53.380 C38.693,53.380 38.707,53.380 38.721,53.380 C38.734,53.421 38.748,53.462 38.762,53.503 C38.789,53.516 38.816,53.530 38.844,53.543 C38.844,53.571 38.844,53.598 38.844,53.625 C38.898,53.666 38.953,53.707 39.007,53.748 C39.103,53.858 39.198,53.967 39.294,54.076 C39.321,54.076 39.349,54.076 39.376,54.076 C39.389,54.103 39.403,54.131 39.417,54.158 C39.444,54.158 39.471,54.158 39.499,54.158 C39.512,54.185 39.526,54.213 39.540,54.240 C39.594,54.254 39.649,54.267 39.703,54.281 C39.703,54.295 39.703,54.308 39.703,54.322 C39.731,54.322 39.758,54.322 39.785,54.322 C39.785,54.336 39.785,54.349 39.785,54.363 C39.867,54.390 39.949,54.417 40.031,54.445 C40.031,54.458 40.031,54.472 40.031,54.486 C40.555,54.715 41.575,54.650 42.324,54.650 C43.866,54.650 45.409,54.650 46.951,54.650 C52.369,54.650 57.789,54.650 63.207,54.650 C64.531,54.650 65.855,54.650 67.179,54.650 C67.816,54.650 68.509,54.686 68.981,54.527 C69.076,54.513 69.172,54.499 69.267,54.486 C69.267,54.472 69.267,54.458 69.267,54.445 C69.295,54.445 69.322,54.445 69.349,54.445 C69.349,54.431 69.349,54.417 69.349,54.404 C69.376,54.404 69.404,54.404 69.431,54.404 C69.431,54.390 69.431,54.376 69.431,54.363 C69.458,54.363 69.486,54.363 69.513,54.363 C69.513,54.349 69.513,54.336 69.513,54.322 C69.540,54.322 69.568,54.322 69.595,54.322 C69.595,54.308 69.595,54.295 69.595,54.281 C69.622,54.281 69.649,54.281 69.677,54.281 C69.677,54.267 69.677,54.254 69.677,54.240 C69.704,54.240 69.731,54.240 69.759,54.240 C69.772,54.213 69.786,54.185 69.800,54.158 C69.827,54.158 69.854,54.158 69.881,54.158 C69.909,54.117 69.936,54.076 69.963,54.035 C69.991,54.035 70.018,54.035 70.045,54.035 C70.114,53.953 70.182,53.871 70.250,53.789 C70.305,53.748 70.359,53.707 70.414,53.666 C70.414,53.639 70.414,53.612 70.414,53.584 C70.455,53.557 70.496,53.530 70.537,53.503 C70.537,53.475 70.537,53.448 70.537,53.421 C70.564,53.407 70.591,53.393 70.619,53.380 C70.632,53.325 70.646,53.270 70.659,53.216 C70.687,53.202 70.714,53.188 70.741,53.175 C70.741,53.147 70.741,53.120 70.741,53.093 C70.755,53.093 70.769,53.093 70.782,53.093 C70.782,53.052 70.782,53.011 70.782,52.970 C70.796,52.970 70.810,52.970 70.823,52.970 C70.823,52.943 70.823,52.915 70.823,52.888 C70.837,52.888 70.851,52.888 70.864,52.888 C70.919,52.656 70.973,52.424 71.028,52.192 C71.028,52.014 71.028,51.837 71.028,51.659 C71.014,51.659 71.001,51.659 70.987,51.659 C70.987,51.563 70.987,51.468 70.987,51.372 C70.973,51.372 70.960,51.372 70.946,51.372 C70.946,51.318 70.946,51.263 70.946,51.208 C70.932,51.208 70.919,51.208 70.905,51.208 C70.905,51.154 70.905,51.099 70.905,51.045 C70.892,51.045 70.878,51.045 70.864,51.045 C70.864,51.017 70.864,50.990 70.864,50.963 C70.851,50.963 70.837,50.963 70.823,50.963 C70.823,50.922 70.823,50.881 70.823,50.840 C70.810,50.840 70.796,50.840 70.782,50.840 C70.769,50.785 70.755,50.730 70.741,50.676 C70.728,50.676 70.714,50.676 70.700,50.676 C70.687,50.621 70.673,50.567 70.659,50.512 C70.632,50.498 70.605,50.485 70.578,50.471 C70.578,50.444 70.578,50.416 70.578,50.389 C70.550,50.375 70.523,50.362 70.496,50.348 C70.496,50.321 70.496,50.293 70.496,50.266 C70.441,50.225 70.386,50.184 70.332,50.143 C70.332,50.116 70.332,50.089 70.332,50.061 C70.277,50.020 70.223,49.979 70.168,49.938 C70.168,49.925 70.168,49.911 70.168,49.897 C70.141,49.897 70.114,49.897 70.086,49.897 C70.032,49.829 69.977,49.761 69.922,49.693 C69.895,49.693 69.868,49.693 69.841,49.693 C69.827,49.665 69.813,49.638 69.800,49.611 C69.745,49.597 69.690,49.583 69.636,49.570 C69.622,49.542 69.609,49.515 69.595,49.488 C69.527,49.474 69.458,49.460 69.390,49.447 C69.390,49.433 69.390,49.420 69.390,49.406 C69.336,49.392 69.281,49.379 69.226,49.365 C69.226,49.351 69.226,49.338 69.226,49.324 C69.172,49.324 69.117,49.324 69.063,49.324 C69.063,49.310 69.063,49.297 69.063,49.283 C69.022,49.283 68.981,49.283 68.940,49.283 C68.940,49.269 68.940,49.256 68.940,49.242 C68.858,49.242 68.776,49.242 68.694,49.242 C68.366,49.147 67.824,49.201 67.425,49.201 C66.360,49.201 65.295,49.201 64.231,49.201 C56.342,49.201 48.452,49.201 40.563,49.201 Z"/>
</svg>
