<svg
        xmlns="http://www.w3.org/2000/svg"
        xmlns:xlink="http://www.w3.org/1999/xlink"
        width="89px" height="78px">
    <path fill-rule="evenodd"  fill="rgb(127, 127, 127)"
          d="M71.340,30.500 C53.704,30.500 36.063,30.500 18.428,30.500 C18.428,23.333 18.428,16.164 18.428,8.997 C18.428,6.679 18.428,4.360 18.428,2.043 C18.464,2.043 18.500,2.043 18.535,2.043 C18.639,1.755 18.601,1.418 18.751,1.187 C18.859,1.116 18.967,1.044 19.074,0.973 C19.074,0.902 19.074,0.830 19.074,0.759 C19.182,0.723 19.290,0.688 19.398,0.652 C19.469,0.545 19.541,0.438 19.613,0.331 C19.685,0.331 19.757,0.331 19.829,0.331 C19.829,0.295 19.829,0.260 19.829,0.224 C19.901,0.224 19.972,0.224 20.044,0.224 C20.044,0.188 20.044,0.153 20.044,0.117 C20.152,0.117 20.260,0.117 20.367,0.117 C20.367,0.081 20.367,0.046 20.367,0.010 C21.122,0.010 21.876,0.010 22.631,0.010 C25.324,0.010 28.019,0.010 30.713,0.010 C40.303,0.010 49.896,0.010 59.486,0.010 C61.964,0.010 64.443,0.010 66.922,0.010 C68.231,0.010 69.605,-0.095 70.370,0.438 C70.406,0.509 70.442,0.581 70.478,0.652 C70.658,0.795 70.837,0.937 71.017,1.080 C71.053,1.222 71.089,1.365 71.125,1.508 C71.160,1.508 71.196,1.508 71.232,1.508 C71.232,1.615 71.232,1.722 71.232,1.829 C71.268,1.829 71.304,1.829 71.340,1.829 C71.340,3.968 71.340,6.108 71.340,8.248 C71.340,15.664 71.340,23.083 71.340,30.500 ZM26.618,8.569 C26.618,8.604 26.618,8.640 26.618,8.676 C26.438,8.711 26.259,8.747 26.079,8.783 C26.079,8.818 26.079,8.854 26.079,8.890 C26.007,8.890 25.935,8.890 25.863,8.890 C25.863,8.925 25.863,8.961 25.863,8.997 C25.684,9.139 25.504,9.282 25.325,9.424 C25.325,9.496 25.325,9.567 25.325,9.638 C25.289,9.638 25.253,9.638 25.217,9.638 C25.094,9.853 25.196,9.898 25.001,10.066 C24.993,11.343 24.983,11.677 25.648,12.313 C25.684,12.384 25.720,12.456 25.756,12.527 C25.828,12.527 25.899,12.527 25.971,12.527 C26.007,12.598 26.043,12.670 26.079,12.741 C26.151,12.741 26.223,12.741 26.295,12.741 C26.295,12.777 26.295,12.812 26.295,12.848 C26.787,13.065 27.682,12.955 28.342,12.955 C29.815,12.955 31.288,12.955 32.760,12.955 C40.591,12.955 48.423,12.955 56.253,12.955 C57.905,12.955 59.558,12.955 61.210,12.955 C61.926,12.955 62.932,13.083 63.473,12.848 C63.473,12.812 63.473,12.777 63.473,12.741 C64.489,12.248 64.881,11.785 64.874,10.280 C64.838,10.280 64.802,10.280 64.766,10.280 C64.731,10.102 64.695,9.924 64.659,9.745 C64.479,9.496 64.299,9.246 64.120,8.997 C64.048,8.997 63.976,8.997 63.904,8.997 C63.868,8.925 63.832,8.854 63.797,8.783 C63.725,8.783 63.653,8.783 63.581,8.783 C63.581,8.747 63.581,8.711 63.581,8.676 C62.881,8.366 61.464,8.569 60.564,8.569 C58.265,8.569 55.965,8.569 53.667,8.569 C44.651,8.569 35.633,8.569 26.618,8.569 ZM14.009,18.304 C14.009,22.405 14.009,26.506 14.009,30.607 C13.887,30.697 13.994,30.593 13.902,30.714 C13.328,30.730 13.011,30.882 12.608,31.035 C12.501,31.035 12.393,31.035 12.285,31.035 C12.285,31.071 12.285,31.106 12.285,31.142 C12.213,31.142 12.141,31.142 12.070,31.142 C12.070,31.177 12.070,31.213 12.070,31.249 C11.962,31.249 11.854,31.249 11.746,31.249 C11.746,31.284 11.746,31.320 11.746,31.356 C11.531,31.427 11.315,31.498 11.100,31.570 C11.100,31.605 11.100,31.641 11.100,31.677 C11.028,31.677 10.956,31.677 10.884,31.677 C10.884,31.712 10.884,31.748 10.884,31.784 C10.741,31.819 10.597,31.855 10.453,31.891 C10.417,31.962 10.381,32.033 10.345,32.105 C10.274,32.105 10.202,32.105 10.130,32.105 C10.094,32.176 10.058,32.247 10.022,32.319 C9.950,32.319 9.878,32.319 9.807,32.319 C9.771,32.390 9.735,32.461 9.699,32.533 C9.627,32.533 9.555,32.533 9.483,32.533 C9.411,32.640 9.340,32.747 9.268,32.854 C9.196,32.854 9.124,32.854 9.052,32.854 C8.873,33.067 8.693,33.281 8.513,33.495 C8.226,33.745 7.939,33.995 7.651,34.244 C7.651,34.316 7.651,34.387 7.651,34.458 C7.544,34.530 7.436,34.601 7.328,34.672 C7.292,34.779 7.256,34.886 7.220,34.993 C7.148,35.029 7.077,35.065 7.005,35.100 C6.969,35.243 6.933,35.385 6.897,35.528 C6.825,35.564 6.753,35.599 6.681,35.635 C6.645,35.778 6.610,35.920 6.574,36.063 C6.538,36.063 6.502,36.063 6.466,36.063 C6.466,36.134 6.466,36.206 6.466,36.277 C6.430,36.277 6.394,36.277 6.358,36.277 C6.286,36.491 6.214,36.705 6.143,36.919 C6.107,36.919 6.071,36.919 6.035,36.919 C6.035,37.026 6.035,37.133 6.035,37.240 C5.999,37.240 5.963,37.240 5.927,37.240 C5.927,37.311 5.927,37.382 5.927,37.454 C5.891,37.454 5.855,37.454 5.819,37.454 C5.819,37.561 5.819,37.668 5.819,37.775 C5.783,37.775 5.747,37.775 5.712,37.775 C5.676,38.060 5.640,38.345 5.604,38.631 C5.289,39.556 5.146,40.784 4.849,41.733 C4.813,42.090 4.778,42.446 4.742,42.803 C4.496,43.561 4.338,44.594 4.095,45.370 C4.059,45.727 4.023,46.084 3.987,46.440 C3.268,48.720 3.102,51.447 2.371,53.715 C2.335,54.072 2.299,54.428 2.263,54.785 C2.227,54.785 2.191,54.785 2.155,54.785 C2.155,54.963 2.155,55.142 2.155,55.320 C1.955,55.954 1.816,56.825 1.616,57.459 C1.581,57.816 1.545,58.173 1.509,58.529 C1.040,59.970 0.891,61.775 0.431,63.236 C0.431,63.415 0.431,63.593 0.431,63.771 C0.395,63.771 0.359,63.771 0.323,63.771 C0.251,64.271 0.180,64.770 0.108,65.269 C0.072,65.269 0.036,65.269 0.000,65.269 C0.000,54.786 0.000,44.300 0.000,33.816 C0.000,30.358 0.000,26.898 0.000,23.439 C0.036,23.439 0.072,23.439 0.108,23.439 C0.180,23.011 0.251,22.583 0.323,22.155 C0.359,22.155 0.395,22.155 0.431,22.155 C0.503,21.941 0.575,21.727 0.647,21.513 C0.683,21.513 0.718,21.513 0.754,21.513 C0.790,21.371 0.826,21.228 0.862,21.086 C0.934,21.050 1.006,21.014 1.078,20.979 C1.078,20.907 1.078,20.836 1.078,20.765 C1.221,20.658 1.365,20.551 1.509,20.444 C1.509,20.372 1.509,20.301 1.509,20.230 C1.652,20.123 1.796,20.016 1.940,19.909 C1.940,19.873 1.940,19.837 1.940,19.802 C2.012,19.802 2.083,19.802 2.155,19.802 C2.263,19.659 2.371,19.516 2.479,19.374 C2.550,19.374 2.622,19.374 2.694,19.374 C2.730,19.302 2.766,19.231 2.802,19.160 C2.874,19.160 2.946,19.160 3.017,19.160 C3.017,19.124 3.017,19.089 3.017,19.053 C3.233,18.982 3.448,18.910 3.664,18.839 C3.664,18.803 3.664,18.768 3.664,18.732 C3.880,18.696 4.095,18.661 4.311,18.625 C4.311,18.589 4.311,18.554 4.311,18.518 C4.454,18.518 4.598,18.518 4.742,18.518 C4.742,18.482 4.742,18.447 4.742,18.411 C5.541,18.167 6.893,18.304 7.867,18.304 C9.914,18.304 11.962,18.304 14.009,18.304 ZM27.049,20.016 C27.049,20.051 27.049,20.087 27.049,20.123 C26.833,20.123 26.618,20.123 26.402,20.123 C26.402,20.158 26.402,20.194 26.402,20.230 C25.947,20.317 25.323,20.877 25.217,21.299 C24.859,21.645 24.967,23.056 25.217,23.439 C25.325,23.510 25.432,23.582 25.540,23.653 C25.576,23.760 25.612,23.867 25.648,23.974 C25.720,23.974 25.792,23.974 25.863,23.974 C25.899,24.045 25.935,24.117 25.971,24.188 C26.166,24.313 26.212,24.191 26.402,24.402 C35.849,24.632 45.764,24.508 55.391,24.509 C57.402,24.509 59.414,24.509 61.426,24.509 C62.853,24.509 64.260,24.409 64.551,23.332 C64.971,22.965 64.972,21.698 64.659,21.192 C64.587,21.157 64.515,21.121 64.443,21.086 C64.443,21.014 64.443,20.943 64.443,20.872 C64.371,20.836 64.299,20.800 64.228,20.765 C64.156,20.658 64.084,20.551 64.012,20.444 C63.797,20.372 63.581,20.301 63.366,20.230 C63.366,20.194 63.366,20.158 63.366,20.123 C62.683,20.087 62.000,20.051 61.318,20.016 C59.953,20.016 58.588,20.016 57.223,20.016 C47.166,20.016 37.106,20.016 27.049,20.016 ZM75.866,25.900 C76.872,25.900 77.878,25.900 78.884,25.900 C79.530,26.114 80.177,26.328 80.823,26.542 C80.859,26.613 80.895,26.684 80.931,26.756 C81.003,26.756 81.075,26.756 81.147,26.756 C81.254,26.898 81.362,27.041 81.470,27.183 C82.430,27.872 83.176,29.000 83.302,30.500 C80.824,30.500 78.345,30.500 75.866,30.500 C75.866,28.967 75.866,27.433 75.866,25.900 ZM15.195,34.886 C32.795,34.886 50.400,34.886 67.999,34.886 C72.669,34.886 77.339,34.886 82.009,34.886 C83.765,34.886 86.652,34.614 87.720,35.314 C87.792,35.421 87.864,35.528 87.936,35.635 C89.339,36.657 89.131,38.280 88.582,40.021 C88.582,40.200 88.582,40.378 88.582,40.556 C88.546,40.556 88.511,40.556 88.475,40.556 C88.475,40.699 88.475,40.842 88.475,40.984 C88.439,40.984 88.403,40.984 88.367,40.984 C88.367,41.162 88.367,41.341 88.367,41.519 C88.331,41.519 88.295,41.519 88.259,41.519 C88.259,41.697 88.259,41.876 88.259,42.054 C88.223,42.054 88.187,42.054 88.151,42.054 C88.151,42.232 88.151,42.411 88.151,42.589 C88.115,42.589 88.080,42.589 88.044,42.589 C87.900,43.480 87.756,44.372 87.613,45.263 C87.363,46.049 87.214,47.045 86.966,47.831 C86.966,48.009 86.966,48.188 86.966,48.366 C86.764,49.000 86.627,49.871 86.427,50.506 C86.427,50.684 86.427,50.862 86.427,51.041 C85.704,53.313 85.529,56.038 84.811,58.315 C84.775,58.672 84.739,59.029 84.703,59.385 C84.403,60.332 84.249,61.558 83.949,62.488 C83.913,62.844 83.877,63.201 83.841,63.557 C83.432,64.847 83.282,66.458 82.871,67.730 C82.799,68.265 82.727,68.800 82.655,69.334 C82.027,71.326 81.986,73.970 80.931,75.539 C80.823,75.611 80.716,75.682 80.608,75.753 C80.608,75.825 80.608,75.896 80.608,75.967 C80.392,76.146 80.177,76.324 79.961,76.502 C79.925,76.574 79.889,76.645 79.853,76.716 C79.782,76.716 79.710,76.716 79.638,76.716 C79.566,76.823 79.494,76.930 79.422,77.037 C79.351,77.037 79.279,77.037 79.207,77.037 C79.171,77.108 79.135,77.180 79.099,77.251 C79.027,77.251 78.955,77.251 78.884,77.251 C78.884,77.287 78.884,77.322 78.884,77.358 C78.740,77.394 78.596,77.429 78.453,77.465 C78.453,77.501 78.453,77.536 78.453,77.572 C78.345,77.572 78.237,77.572 78.129,77.572 C78.129,77.608 78.129,77.643 78.129,77.679 C78.057,77.679 77.986,77.679 77.914,77.679 C77.914,77.715 77.914,77.750 77.914,77.786 C77.770,77.786 77.626,77.786 77.483,77.786 C77.483,77.822 77.483,77.857 77.483,77.893 C77.303,77.893 77.123,77.893 76.944,77.893 C76.944,77.929 76.944,77.964 76.944,78.000 C74.645,78.000 72.346,78.000 70.047,78.000 C61.498,78.000 52.947,78.000 44.399,78.000 C35.276,78.000 26.150,78.000 17.027,78.000 C14.082,78.000 11.135,78.000 8.190,78.000 C7.544,77.786 6.897,77.572 6.250,77.358 C6.250,77.322 6.250,77.287 6.250,77.251 C6.143,77.215 6.035,77.180 5.927,77.144 C5.891,77.073 5.855,77.001 5.819,76.930 C5.747,76.930 5.676,76.930 5.604,76.930 C5.496,76.788 5.388,76.645 5.280,76.502 C5.209,76.502 5.137,76.502 5.065,76.502 C5.065,76.467 5.065,76.431 5.065,76.395 C4.957,76.324 4.849,76.253 4.742,76.181 C4.742,76.110 4.742,76.039 4.742,75.967 C4.598,75.860 4.454,75.753 4.311,75.646 C4.311,75.575 4.311,75.504 4.311,75.432 C4.239,75.397 4.167,75.361 4.095,75.325 C4.095,75.254 4.095,75.183 4.095,75.111 C4.059,75.111 4.023,75.111 3.987,75.111 C3.915,74.898 3.844,74.684 3.772,74.470 C3.736,74.470 3.700,74.470 3.664,74.470 C3.628,74.256 3.592,74.042 3.556,73.828 C3.520,73.828 3.484,73.828 3.448,73.828 C3.448,73.685 3.448,73.542 3.448,73.400 C3.413,73.400 3.377,73.400 3.341,73.400 C3.341,73.115 3.341,72.829 3.341,72.544 C3.305,72.544 3.269,72.544 3.233,72.544 C3.305,71.902 3.377,71.260 3.448,70.618 C3.484,70.618 3.520,70.618 3.556,70.618 C3.556,70.440 3.556,70.262 3.556,70.083 C3.805,69.299 3.959,68.291 4.203,67.516 C4.382,66.446 4.562,65.376 4.742,64.306 C5.100,63.177 5.247,61.799 5.604,60.669 C5.640,60.312 5.676,59.956 5.712,59.599 C5.747,59.599 5.783,59.599 5.819,59.599 C5.819,59.421 5.819,59.242 5.819,59.064 C5.855,59.064 5.891,59.064 5.927,59.064 C5.927,58.886 5.927,58.708 5.927,58.529 C5.963,58.529 5.999,58.529 6.035,58.529 C6.035,58.351 6.035,58.173 6.035,57.994 C6.071,57.994 6.107,57.994 6.143,57.994 C6.143,57.816 6.143,57.638 6.143,57.459 C6.390,56.702 6.545,55.668 6.789,54.892 C6.789,54.714 6.789,54.535 6.789,54.357 C6.825,54.357 6.861,54.357 6.897,54.357 C6.897,54.179 6.897,54.000 6.897,53.822 C6.933,53.822 6.969,53.822 7.005,53.822 C7.005,53.644 7.005,53.465 7.005,53.287 C7.041,53.287 7.077,53.287 7.112,53.287 C7.112,53.109 7.112,52.931 7.112,52.752 C7.148,52.752 7.184,52.752 7.220,52.752 C7.220,52.574 7.220,52.396 7.220,52.217 C7.845,50.298 8.014,47.941 8.621,46.012 C8.657,45.656 8.693,45.299 8.729,44.943 C9.137,43.647 9.296,42.053 9.699,40.770 C9.735,40.414 9.771,40.057 9.807,39.700 C9.842,39.700 9.878,39.700 9.914,39.700 C9.914,39.558 9.914,39.415 9.914,39.272 C9.950,39.272 9.986,39.272 10.022,39.272 C10.058,39.059 10.094,38.845 10.130,38.631 C10.166,38.631 10.202,38.631 10.238,38.631 C10.309,38.417 10.381,38.203 10.453,37.989 C10.489,37.989 10.525,37.989 10.561,37.989 C10.561,37.917 10.561,37.846 10.561,37.775 C10.633,37.739 10.705,37.703 10.776,37.668 C10.776,37.596 10.776,37.525 10.776,37.454 C10.884,37.382 10.992,37.311 11.100,37.240 C11.100,37.168 11.100,37.097 11.100,37.026 C11.315,36.848 11.531,36.669 11.746,36.491 C11.782,36.420 11.818,36.348 11.854,36.277 C11.926,36.277 11.998,36.277 12.070,36.277 C12.141,36.170 12.213,36.063 12.285,35.956 C12.357,35.956 12.429,35.956 12.501,35.956 C12.537,35.885 12.573,35.813 12.608,35.742 C12.824,35.671 13.040,35.599 13.255,35.528 C13.255,35.492 13.255,35.457 13.255,35.421 C13.327,35.421 13.399,35.421 13.471,35.421 C13.471,35.385 13.471,35.350 13.471,35.314 C13.578,35.314 13.686,35.314 13.794,35.314 C13.794,35.278 13.794,35.243 13.794,35.207 C13.902,35.207 14.009,35.207 14.117,35.207 C14.117,35.171 14.117,35.136 14.117,35.100 C14.261,35.100 14.405,35.100 14.548,35.100 C14.548,35.065 14.548,35.029 14.548,34.993 C14.764,34.993 14.979,34.993 15.195,34.993 C15.195,34.958 15.195,34.922 15.195,34.886 Z"/>
</svg>
