<svg
        xmlns="http://www.w3.org/2000/svg"
        xmlns:xlink="http://www.w3.org/1999/xlink"
        width="92px" height="85px">
    <path fill-rule="evenodd"  fill="rgb(127, 127, 127)"
          d="M0.042,0.000 C7.808,0.000 15.577,0.000 23.343,0.000 C23.343,2.524 23.343,5.048 23.343,7.571 C23.357,7.571 23.371,7.571 23.385,7.571 C23.385,7.697 23.385,7.822 23.385,7.948 C42.510,7.948 61.640,7.948 80.765,7.948 C81.066,8.032 81.559,7.990 81.930,7.990 C82.665,7.990 83.401,7.990 84.136,7.990 C84.136,8.115 84.136,8.241 84.136,8.366 C84.690,8.380 85.245,8.394 85.800,8.408 C85.800,8.533 85.800,8.659 85.800,8.784 C86.216,8.798 86.632,8.812 87.048,8.826 C87.048,8.952 87.048,9.077 87.048,9.203 C87.326,9.217 87.603,9.231 87.881,9.245 C87.881,9.370 87.881,9.496 87.881,9.621 C88.005,9.621 88.130,9.621 88.255,9.621 C88.293,9.723 88.298,9.880 88.297,10.039 C88.560,10.053 88.824,10.067 89.087,10.081 C89.087,10.221 89.087,10.360 89.087,10.500 C89.226,10.500 89.365,10.500 89.503,10.500 C89.503,10.639 89.503,10.778 89.503,10.918 C89.642,10.918 89.781,10.918 89.919,10.918 C89.933,11.183 89.947,11.448 89.961,11.713 C90.086,11.713 90.211,11.713 90.336,11.713 C90.336,11.866 90.336,12.019 90.336,12.173 C90.474,12.173 90.613,12.173 90.752,12.173 C90.766,12.577 90.779,12.982 90.793,13.386 C90.918,13.386 91.043,13.386 91.168,13.386 C91.182,13.944 91.196,14.501 91.209,15.059 C91.334,15.059 91.459,15.059 91.584,15.059 C91.584,23.313 91.584,31.569 91.584,39.823 C91.459,39.823 91.334,39.823 91.209,39.823 C91.196,40.241 91.182,40.659 91.168,41.078 C91.043,41.078 90.918,41.078 90.793,41.078 C90.779,41.357 90.766,41.636 90.752,41.914 C90.627,41.914 90.502,41.914 90.377,41.914 C90.377,42.040 90.377,42.165 90.377,42.291 C90.276,42.329 90.120,42.334 89.961,42.333 C89.947,42.598 89.933,42.863 89.919,43.127 C89.781,43.127 89.642,43.127 89.503,43.127 C89.503,43.267 89.503,43.406 89.503,43.546 C89.240,43.560 88.976,43.574 88.713,43.588 C88.713,43.713 88.713,43.839 88.713,43.964 C88.611,44.002 88.455,44.007 88.297,44.006 C88.297,44.131 88.297,44.257 88.297,44.382 C88.019,44.396 87.742,44.410 87.464,44.424 C87.464,44.550 87.464,44.675 87.464,44.801 C87.312,44.801 87.159,44.801 87.007,44.801 C87.007,44.940 87.007,45.080 87.007,45.219 C86.605,45.233 86.202,45.247 85.800,45.261 C85.800,45.386 85.800,45.512 85.800,45.637 C85.384,45.651 84.968,45.665 84.552,45.679 C84.552,45.805 84.552,45.930 84.552,46.056 C83.720,46.070 82.887,46.083 82.055,46.097 C82.055,46.223 82.055,46.348 82.055,46.474 C80.238,46.474 78.421,46.474 76.604,46.474 C76.604,46.488 76.604,46.502 76.604,46.516 C76.479,46.516 76.355,46.516 76.230,46.516 C76.230,48.858 76.230,51.201 76.230,53.543 C76.355,53.543 76.479,53.543 76.604,53.543 C76.604,53.697 76.604,53.850 76.604,54.003 C76.327,54.003 76.049,54.003 75.772,54.003 C75.772,53.864 75.772,53.725 75.772,53.585 C75.495,53.585 75.217,53.585 74.940,53.585 C74.940,53.446 74.940,53.306 74.940,53.167 C74.662,53.167 74.385,53.167 74.108,53.167 C74.108,53.027 74.108,52.888 74.108,52.749 C73.830,52.749 73.553,52.749 73.275,52.749 C73.275,52.609 73.275,52.470 73.275,52.330 C72.998,52.330 72.721,52.330 72.443,52.330 C72.443,52.191 72.443,52.051 72.443,51.912 C72.166,51.912 71.888,51.912 71.611,51.912 C71.611,51.772 71.611,51.633 71.611,51.494 C71.334,51.494 71.056,51.494 70.779,51.494 C70.779,51.354 70.779,51.215 70.779,51.075 C70.488,51.075 70.196,51.075 69.905,51.075 C69.905,50.950 69.905,50.824 69.905,50.699 C69.628,50.685 69.350,50.671 69.073,50.657 C69.073,50.532 69.073,50.406 69.073,50.281 C68.795,50.267 68.518,50.253 68.241,50.239 C68.241,50.113 68.241,49.988 68.241,49.862 C67.963,49.848 67.686,49.834 67.408,49.820 C67.408,49.695 67.408,49.569 67.408,49.444 C67.131,49.430 66.854,49.416 66.576,49.402 C66.576,49.277 66.576,49.151 66.576,49.026 C66.299,49.012 66.021,48.998 65.744,48.984 C65.744,48.858 65.744,48.733 65.744,48.607 C65.467,48.593 65.189,48.579 64.912,48.565 C64.912,48.440 64.912,48.314 64.912,48.189 C64.634,48.175 64.357,48.161 64.080,48.147 C64.080,48.022 64.080,47.896 64.080,47.771 C63.802,47.757 63.525,47.743 63.247,47.729 C63.247,47.603 63.247,47.478 63.247,47.352 C62.970,47.338 62.693,47.324 62.415,47.311 C62.415,47.185 62.415,47.060 62.415,46.934 C62.138,46.920 61.860,46.906 61.583,46.892 C61.583,46.767 61.583,46.641 61.583,46.516 C61.306,46.502 61.028,46.488 60.751,46.474 C60.751,46.348 60.751,46.223 60.751,46.097 C60.473,46.083 60.196,46.070 59.919,46.056 C59.919,45.930 59.919,45.805 59.919,45.679 C59.641,45.665 59.364,45.651 59.086,45.637 C59.086,45.512 59.086,45.386 59.086,45.261 C58.809,45.247 58.532,45.233 58.254,45.219 C58.254,45.094 58.254,44.968 58.254,44.843 C57.977,44.829 57.699,44.815 57.422,44.801 C57.422,44.675 57.422,44.550 57.422,44.424 C57.145,44.410 56.867,44.396 56.590,44.382 C56.590,44.257 56.590,44.131 56.590,44.006 C56.312,43.992 56.035,43.978 55.758,43.964 C55.758,43.839 55.758,43.713 55.758,43.588 C55.480,43.574 55.203,43.560 54.925,43.546 C54.925,43.420 54.925,43.295 54.925,43.169 C54.648,43.155 54.371,43.141 54.093,43.127 C54.093,43.002 54.093,42.876 54.093,42.751 C53.982,42.751 53.871,42.751 53.760,42.751 C53.760,42.876 53.760,43.002 53.760,43.127 C53.746,43.127 53.733,43.127 53.719,43.127 C53.719,46.892 53.719,50.657 53.719,54.422 C45.938,54.422 38.156,54.422 30.375,54.422 C30.375,51.787 30.375,49.151 30.375,46.516 C30.251,46.516 30.126,46.516 30.001,46.516 C30.001,46.502 30.001,46.488 30.001,46.474 C27.934,46.474 25.867,46.474 23.801,46.474 C19.210,46.474 14.619,46.474 10.028,46.474 C10.028,46.488 10.028,46.502 10.028,46.516 C9.903,46.516 9.778,46.516 9.654,46.516 C9.654,46.641 9.654,46.767 9.654,46.892 C9.376,46.906 9.099,46.920 8.821,46.934 C8.821,47.060 8.821,47.185 8.821,47.311 C8.669,47.311 8.516,47.311 8.364,47.311 C8.364,47.464 8.364,47.617 8.364,47.771 C8.239,47.771 8.114,47.771 7.989,47.771 C7.989,47.896 7.989,48.022 7.989,48.147 C7.888,48.186 7.731,48.191 7.573,48.189 C7.559,48.607 7.545,49.026 7.531,49.444 C7.407,49.444 7.282,49.444 7.157,49.444 C7.157,54.993 7.157,60.544 7.157,66.093 C7.282,66.093 7.407,66.093 7.531,66.093 C7.545,66.650 7.559,67.208 7.573,67.766 C7.698,67.766 7.823,67.766 7.948,67.766 C7.948,67.919 7.948,68.073 7.948,68.226 C8.086,68.226 8.225,68.226 8.364,68.226 C8.364,68.365 8.364,68.505 8.364,68.644 C8.516,68.644 8.669,68.644 8.821,68.644 C8.821,68.770 8.821,68.895 8.821,69.021 C9.099,69.035 9.376,69.049 9.654,69.062 C9.654,69.188 9.654,69.313 9.654,69.439 C9.778,69.439 9.903,69.439 10.028,69.439 C10.028,69.453 10.028,69.467 10.028,69.481 C21.955,69.481 33.886,69.481 45.813,69.481 C45.813,66.971 45.813,64.461 45.813,61.951 C45.951,61.951 46.090,61.951 46.229,61.951 C46.229,62.091 46.229,62.230 46.229,62.370 C46.506,62.370 46.784,62.370 47.061,62.370 C47.061,62.509 47.061,62.648 47.061,62.788 C47.338,62.788 47.616,62.788 47.893,62.788 C47.893,62.927 47.893,63.067 47.893,63.206 C48.171,63.206 48.448,63.206 48.725,63.206 C48.725,63.346 48.725,63.485 48.725,63.625 C49.003,63.625 49.280,63.625 49.558,63.625 C49.558,63.764 49.558,63.903 49.558,64.043 C49.849,64.043 50.140,64.043 50.431,64.043 C50.431,64.168 50.431,64.294 50.431,64.419 C50.709,64.433 50.986,64.447 51.264,64.461 C51.264,64.587 51.264,64.712 51.264,64.838 C51.541,64.852 51.819,64.865 52.096,64.879 C52.096,65.005 52.096,65.130 52.096,65.256 C52.373,65.270 52.651,65.284 52.928,65.298 C52.928,65.423 52.928,65.549 52.928,65.674 C53.205,65.688 53.483,65.702 53.760,65.716 C53.760,65.842 53.760,65.967 53.760,66.093 C54.038,66.106 54.315,66.120 54.592,66.134 C54.592,66.260 54.592,66.385 54.592,66.511 C54.870,66.525 55.147,66.539 55.425,66.553 C55.425,66.678 55.425,66.804 55.425,66.929 C55.702,66.943 55.980,66.957 56.257,66.971 C56.257,67.096 56.257,67.222 56.257,67.347 C56.534,67.361 56.812,67.375 57.089,67.389 C57.089,67.515 57.089,67.640 57.089,67.766 C57.366,67.780 57.644,67.794 57.921,67.808 C57.921,67.933 57.921,68.059 57.921,68.184 C58.199,68.198 58.476,68.212 58.754,68.226 C58.754,68.351 58.754,68.477 58.754,68.602 C59.031,68.616 59.308,68.630 59.586,68.644 C59.586,68.770 59.586,68.895 59.586,69.021 C59.863,69.035 60.141,69.049 60.418,69.062 C60.418,69.188 60.418,69.313 60.418,69.439 C60.695,69.453 60.973,69.467 61.250,69.481 C61.250,69.606 61.250,69.732 61.250,69.857 C61.527,69.871 61.805,69.885 62.082,69.899 C62.082,70.025 62.082,70.150 62.082,70.276 C62.360,70.290 62.637,70.303 62.915,70.317 C62.915,70.443 62.915,70.568 62.915,70.694 C63.192,70.708 63.469,70.722 63.747,70.736 C63.747,70.861 63.747,70.987 63.747,71.112 C64.024,71.126 64.302,71.140 64.579,71.154 C64.579,71.280 64.579,71.405 64.579,71.531 C64.856,71.544 65.134,71.558 65.411,71.572 C65.411,71.698 65.411,71.823 65.411,71.949 C65.688,71.963 65.966,71.977 66.243,71.991 C66.243,72.116 66.243,72.242 66.243,72.367 C66.521,72.381 66.798,72.395 67.076,72.409 C67.076,72.534 67.076,72.660 67.076,72.785 C67.353,72.799 67.630,72.813 67.908,72.827 C67.908,72.953 67.908,73.078 67.908,73.204 C68.033,73.204 68.157,73.204 68.282,73.204 C68.324,73.315 68.326,73.494 68.324,73.664 C68.033,73.664 67.741,73.664 67.450,73.664 C67.450,73.803 67.450,73.943 67.450,74.082 C67.173,74.082 66.895,74.082 66.618,74.082 C66.618,74.222 66.618,74.361 66.618,74.500 C66.354,74.514 66.091,74.528 65.827,74.542 C65.827,74.668 65.827,74.793 65.827,74.919 C65.550,74.933 65.272,74.947 64.995,74.961 C64.995,75.086 64.995,75.212 64.995,75.337 C64.718,75.351 64.440,75.365 64.163,75.379 C64.163,75.504 64.163,75.630 64.163,75.755 C63.885,75.769 63.608,75.783 63.331,75.797 C63.331,75.923 63.331,76.048 63.331,76.174 C63.053,76.188 62.776,76.202 62.498,76.216 C62.498,76.341 62.498,76.467 62.498,76.592 C62.221,76.606 61.944,76.620 61.666,76.634 C61.666,76.759 61.666,76.885 61.666,77.010 C61.389,77.024 61.111,77.038 60.834,77.052 C60.834,77.178 60.834,77.303 60.834,77.429 C60.557,77.443 60.279,77.457 60.002,77.470 C60.002,77.596 60.002,77.721 60.002,77.847 C59.724,77.861 59.447,77.875 59.170,77.889 C59.170,78.014 59.170,78.140 59.170,78.265 C58.892,78.279 58.615,78.293 58.337,78.307 C58.337,78.433 58.337,78.558 58.337,78.684 C58.060,78.698 57.783,78.711 57.505,78.725 C57.505,78.851 57.505,78.976 57.505,79.102 C57.228,79.116 56.950,79.130 56.673,79.144 C56.673,79.269 56.673,79.395 56.673,79.520 C56.396,79.534 56.118,79.548 55.841,79.562 C55.841,79.687 55.841,79.813 55.841,79.938 C55.563,79.952 55.286,79.966 55.009,79.980 C55.009,80.106 55.009,80.231 55.009,80.357 C54.731,80.371 54.454,80.385 54.176,80.399 C54.176,80.524 54.176,80.650 54.176,80.775 C53.899,80.789 53.622,80.803 53.344,80.817 C53.344,80.942 53.344,81.068 53.344,81.193 C53.067,81.207 52.789,81.221 52.512,81.235 C52.512,81.361 52.512,81.486 52.512,81.612 C52.221,81.612 51.929,81.612 51.638,81.612 C51.638,81.751 51.638,81.891 51.638,82.030 C51.361,82.030 51.083,82.030 50.806,82.030 C50.806,82.169 50.806,82.309 50.806,82.448 C50.529,82.448 50.251,82.448 49.974,82.448 C49.974,82.588 49.974,82.727 49.974,82.867 C49.572,82.881 49.169,82.895 48.767,82.908 C48.767,83.034 48.767,83.159 48.767,83.285 C48.490,83.299 48.212,83.313 47.935,83.327 C47.935,83.452 47.935,83.578 47.935,83.703 C47.657,83.717 47.380,83.731 47.103,83.745 C47.103,83.871 47.103,83.996 47.103,84.122 C46.825,84.135 46.548,84.149 46.270,84.163 C46.270,84.289 46.270,84.414 46.270,84.540 C46.118,84.540 45.965,84.540 45.813,84.540 C45.813,82.170 45.813,79.799 45.813,77.429 C45.799,77.429 45.785,77.429 45.771,77.429 C45.771,77.303 45.771,77.178 45.771,77.052 C45.646,77.052 45.521,77.052 45.397,77.052 C45.397,77.038 45.397,77.024 45.397,77.010 C33.456,77.010 21.511,77.010 9.570,77.010 C9.570,76.885 9.570,76.759 9.570,76.634 C9.016,76.620 8.461,76.606 7.906,76.592 C7.906,76.467 7.906,76.341 7.906,76.216 C7.490,76.202 7.074,76.188 6.658,76.174 C6.658,76.048 6.658,75.923 6.658,75.797 C6.380,75.783 6.103,75.769 5.825,75.755 C5.825,75.630 5.825,75.504 5.825,75.379 C5.562,75.365 5.298,75.351 5.035,75.337 C5.035,75.198 5.035,75.058 5.035,74.919 C4.882,74.919 4.730,74.919 4.577,74.919 C4.577,74.793 4.577,74.668 4.577,74.542 C4.314,74.528 4.050,74.514 3.787,74.500 C3.787,74.361 3.787,74.222 3.787,74.082 C3.648,74.082 3.509,74.082 3.370,74.082 C3.370,73.943 3.370,73.803 3.370,73.664 C3.232,73.664 3.093,73.664 2.954,73.664 C2.954,73.524 2.954,73.385 2.954,73.246 C2.816,73.246 2.677,73.246 2.538,73.246 C2.524,72.981 2.510,72.716 2.497,72.451 C2.372,72.451 2.247,72.451 2.122,72.451 C2.084,72.349 2.079,72.192 2.081,72.032 C1.956,72.032 1.831,72.032 1.706,72.032 C1.692,71.754 1.678,71.475 1.664,71.196 C1.540,71.196 1.415,71.196 1.290,71.196 C1.276,70.917 1.262,70.638 1.248,70.359 C1.123,70.359 0.999,70.359 0.874,70.359 C0.860,70.080 0.846,69.801 0.832,69.523 C0.707,69.523 0.583,69.523 0.458,69.523 C0.444,68.965 0.430,68.407 0.416,67.849 C0.291,67.849 0.166,67.849 0.042,67.849 C0.042,61.129 0.042,54.407 0.042,47.687 C0.166,47.687 0.291,47.687 0.416,47.687 C0.430,47.129 0.444,46.571 0.458,46.014 C0.583,46.014 0.707,46.014 0.832,46.014 C0.846,45.735 0.860,45.456 0.874,45.177 C0.999,45.177 1.123,45.177 1.248,45.177 C1.262,44.898 1.276,44.619 1.290,44.341 C1.415,44.341 1.540,44.341 1.664,44.341 C1.678,44.062 1.692,43.783 1.706,43.504 C1.831,43.504 1.956,43.504 2.081,43.504 C2.094,43.239 2.108,42.974 2.122,42.709 C2.261,42.709 2.400,42.709 2.538,42.709 C2.538,42.570 2.538,42.430 2.538,42.291 C2.677,42.291 2.816,42.291 2.954,42.291 C2.954,42.151 2.954,42.012 2.954,41.873 C3.093,41.873 3.232,41.873 3.370,41.873 C3.370,41.733 3.370,41.594 3.370,41.454 C3.509,41.454 3.648,41.454 3.787,41.454 C3.787,41.315 3.787,41.175 3.787,41.036 C4.050,41.022 4.314,41.008 4.577,40.994 C4.577,40.869 4.577,40.743 4.577,40.618 C4.679,40.579 4.835,40.574 4.993,40.576 C4.993,40.450 4.993,40.325 4.993,40.199 C5.271,40.185 5.548,40.171 5.825,40.157 C5.825,40.032 5.825,39.906 5.825,39.781 C6.103,39.767 6.380,39.753 6.658,39.739 C6.658,39.614 6.658,39.488 6.658,39.363 C6.935,39.349 7.212,39.335 7.490,39.321 C7.490,39.195 7.490,39.070 7.490,38.944 C8.183,38.930 8.877,38.917 9.570,38.903 C9.570,38.777 9.570,38.652 9.570,38.526 C16.380,38.526 23.191,38.526 30.001,38.526 C30.001,38.512 30.001,38.498 30.001,38.484 C30.126,38.484 30.251,38.484 30.375,38.484 C30.375,35.989 30.375,33.492 30.375,30.997 C30.556,30.930 30.878,30.955 31.124,30.955 C31.596,30.955 32.068,30.955 32.539,30.955 C34.148,30.955 35.757,30.955 37.366,30.955 C42.816,30.955 48.268,30.955 53.719,30.955 C53.719,34.733 53.719,38.513 53.719,42.291 C53.982,42.277 54.246,42.263 54.509,42.249 C54.509,42.124 54.509,41.998 54.509,41.873 C54.787,41.859 55.064,41.845 55.341,41.831 C55.341,41.705 55.341,41.580 55.341,41.454 C55.619,41.440 55.896,41.426 56.174,41.412 C56.174,41.287 56.174,41.161 56.174,41.036 C56.451,41.022 56.729,41.008 57.006,40.994 C57.006,40.869 57.006,40.743 57.006,40.618 C57.283,40.604 57.561,40.590 57.838,40.576 C57.838,40.450 57.838,40.325 57.838,40.199 C58.115,40.185 58.393,40.171 58.670,40.157 C58.670,40.032 58.670,39.906 58.670,39.781 C58.948,39.767 59.225,39.753 59.502,39.739 C59.502,39.614 59.502,39.488 59.502,39.363 C59.780,39.349 60.057,39.335 60.335,39.321 C60.335,39.195 60.335,39.070 60.335,38.944 C60.612,38.930 60.890,38.917 61.167,38.903 C61.167,38.777 61.167,38.652 61.167,38.526 C61.444,38.512 61.722,38.498 61.999,38.484 C61.999,38.359 61.999,38.233 61.999,38.108 C62.276,38.094 62.554,38.080 62.831,38.066 C62.831,37.940 62.831,37.815 62.831,37.689 C63.109,37.676 63.386,37.662 63.664,37.648 C63.664,37.522 63.664,37.397 63.664,37.271 C63.941,37.257 64.218,37.243 64.496,37.229 C64.496,37.104 64.496,36.978 64.496,36.853 C64.773,36.839 65.051,36.825 65.328,36.811 C65.328,36.686 65.328,36.560 65.328,36.435 C65.605,36.421 65.883,36.407 66.160,36.393 C66.160,36.267 66.160,36.142 66.160,36.016 C66.437,36.002 66.715,35.988 66.992,35.974 C66.992,35.849 66.992,35.723 66.992,35.598 C67.270,35.584 67.547,35.570 67.825,35.556 C67.825,35.431 67.825,35.305 67.825,35.180 C68.102,35.166 68.379,35.152 68.657,35.138 C68.657,35.012 68.657,34.887 68.657,34.761 C68.934,34.747 69.212,34.733 69.489,34.719 C69.489,34.594 69.489,34.468 69.489,34.343 C69.766,34.329 70.044,34.315 70.321,34.301 C70.321,34.176 70.321,34.050 70.321,33.925 C70.598,33.911 70.876,33.897 71.153,33.883 C71.153,33.757 71.153,33.632 71.153,33.506 C71.431,33.492 71.708,33.479 71.986,33.465 C71.986,33.339 71.986,33.214 71.986,33.088 C72.263,33.074 72.540,33.060 72.818,33.046 C72.818,32.921 72.818,32.795 72.818,32.670 C73.095,32.656 73.373,32.642 73.650,32.628 C73.650,32.502 73.650,32.377 73.650,32.251 C73.927,32.238 74.205,32.224 74.482,32.210 C74.482,32.084 74.482,31.959 74.482,31.833 C74.760,31.819 75.037,31.805 75.314,31.791 C75.314,31.666 75.314,31.540 75.314,31.415 C75.592,31.401 75.869,31.387 76.147,31.373 C76.147,31.248 76.147,31.122 76.147,30.997 C76.325,31.000 76.527,31.000 76.646,30.955 C76.646,33.464 76.646,35.975 76.646,38.484 C76.771,38.484 76.896,38.484 77.020,38.484 C77.020,38.498 77.020,38.512 77.020,38.526 C77.672,38.526 78.324,38.526 78.976,38.526 C79.295,38.526 79.614,38.526 79.933,38.526 C80.245,38.438 80.756,38.484 81.140,38.484 C81.140,38.359 81.140,38.233 81.140,38.108 C81.556,38.094 81.972,38.080 82.388,38.066 C82.388,37.940 82.388,37.815 82.388,37.689 C82.665,37.676 82.943,37.662 83.220,37.648 C83.234,37.383 83.248,37.118 83.262,36.853 C83.401,36.853 83.539,36.853 83.678,36.853 C83.678,36.560 83.678,36.267 83.678,35.974 C83.803,35.974 83.928,35.974 84.052,35.974 C84.066,34.678 84.080,33.381 84.094,32.084 C84.094,27.678 84.094,23.271 84.094,18.866 C84.040,18.670 84.053,18.333 84.052,18.071 C83.928,18.071 83.803,18.071 83.678,18.071 C83.678,17.778 83.678,17.485 83.678,17.192 C83.539,17.192 83.401,17.192 83.262,17.192 C83.248,16.928 83.234,16.663 83.220,16.398 C82.943,16.384 82.665,16.370 82.388,16.356 C82.388,16.230 82.388,16.105 82.388,15.979 C81.972,15.965 81.556,15.951 81.140,15.938 C81.140,15.812 81.140,15.687 81.140,15.561 C80.757,15.561 80.245,15.607 79.933,15.519 C78.227,15.519 76.521,15.519 74.815,15.519 C57.685,15.519 40.445,15.518 23.385,15.561 C23.385,15.687 23.385,15.812 23.385,15.938 C23.371,15.938 23.357,15.938 23.343,15.938 C23.343,18.447 23.343,20.957 23.343,23.467 C15.577,23.467 7.808,23.467 0.042,23.467 C0.042,23.328 0.042,23.188 0.042,23.049 C0.028,23.049 0.014,23.049 -0.000,23.049 C-0.000,20.706 -0.000,18.363 -0.000,16.021 C-0.000,10.835 -0.000,5.647 -0.000,0.460 C0.014,0.460 0.028,0.460 0.042,0.460 C0.042,0.307 0.042,0.153 0.042,0.000 ZM68.698,61.533 C76.465,61.533 84.234,61.533 92.000,61.533 C92.000,69.355 92.000,77.178 92.000,85.000 C84.234,85.000 76.465,85.000 68.698,85.000 C68.698,77.094 68.698,69.442 68.698,61.533 Z"/>
</svg>
