<svg
        xmlns="http://www.w3.org/2000/svg"
        xmlns:xlink="http://www.w3.org/1999/xlink"
        width="88px" height="88px">
    <path fill-rule="evenodd"  fill="rgb(47, 47, 47)"
          d="M54.830,23.060 C54.885,23.417 54.940,23.774 54.995,24.131 C55.009,24.131 55.022,24.131 55.036,24.131 C55.036,24.214 55.036,24.296 55.036,24.379 C55.146,24.739 55.175,25.218 55.284,25.574 C55.297,25.739 55.311,25.904 55.325,26.068 C55.435,26.432 55.464,26.902 55.572,27.264 C55.614,27.593 55.655,27.923 55.696,28.253 C55.921,28.990 55.927,29.901 56.150,30.643 C56.178,30.876 56.205,31.110 56.233,31.343 C56.246,31.343 56.260,31.343 56.274,31.343 C56.301,31.591 56.329,31.838 56.356,32.085 C56.370,32.085 56.384,32.085 56.398,32.085 C56.411,32.250 56.425,32.415 56.439,32.580 C56.898,34.124 55.854,35.357 54.747,35.753 C54.692,35.753 54.637,35.753 54.582,35.753 C54.582,35.767 54.582,35.780 54.582,35.794 C54.527,35.794 54.472,35.794 54.417,35.794 C53.977,35.931 53.424,35.820 53.056,35.671 C53.015,35.671 52.973,35.671 52.932,35.671 C52.932,35.657 52.932,35.643 52.932,35.629 C52.850,35.602 52.767,35.574 52.684,35.547 C52.684,35.533 52.684,35.519 52.684,35.506 C52.629,35.492 52.574,35.478 52.519,35.464 C52.506,35.437 52.492,35.410 52.478,35.382 C52.451,35.382 52.423,35.382 52.396,35.382 C52.396,35.368 52.396,35.355 52.396,35.341 C52.368,35.341 52.341,35.341 52.313,35.341 C52.313,35.327 52.313,35.313 52.313,35.300 C52.286,35.300 52.258,35.300 52.231,35.300 C52.231,35.286 52.231,35.272 52.231,35.258 C52.203,35.258 52.176,35.258 52.148,35.258 C52.148,35.245 52.148,35.231 52.148,35.217 C52.121,35.217 52.093,35.217 52.066,35.217 C52.066,35.203 52.066,35.190 52.066,35.176 C52.038,35.176 52.011,35.176 51.983,35.176 C51.804,35.066 51.626,34.956 51.447,34.846 C51.419,34.846 51.392,34.846 51.364,34.846 C51.364,34.833 51.364,34.819 51.364,34.805 C51.337,34.805 51.309,34.805 51.282,34.805 C51.282,34.791 51.282,34.778 51.282,34.764 C51.254,34.764 51.227,34.764 51.199,34.764 C51.199,34.750 51.199,34.736 51.199,34.723 C51.172,34.723 51.144,34.723 51.117,34.723 C51.117,34.709 51.117,34.695 51.117,34.681 C51.089,34.681 51.062,34.681 51.034,34.681 C51.034,34.668 51.034,34.654 51.034,34.640 C51.007,34.640 50.979,34.640 50.952,34.640 C50.952,34.627 50.952,34.613 50.952,34.599 C50.924,34.599 50.897,34.599 50.869,34.599 C50.855,34.572 50.842,34.544 50.828,34.517 C50.800,34.517 50.773,34.517 50.745,34.517 C50.745,34.503 50.745,34.489 50.745,34.475 C50.718,34.475 50.690,34.475 50.663,34.475 C50.663,34.462 50.663,34.448 50.663,34.434 C50.635,34.434 50.608,34.434 50.580,34.434 C50.580,34.420 50.580,34.407 50.580,34.393 C50.553,34.393 50.525,34.393 50.498,34.393 C50.498,34.379 50.498,34.366 50.498,34.352 C50.470,34.352 50.443,34.352 50.415,34.352 C50.415,34.338 50.415,34.324 50.415,34.311 C50.388,34.311 50.360,34.311 50.333,34.311 C50.333,34.297 50.333,34.283 50.333,34.269 C50.305,34.269 50.278,34.269 50.250,34.269 C50.250,34.256 50.250,34.242 50.250,34.228 C50.223,34.228 50.195,34.228 50.168,34.228 C50.168,34.214 50.168,34.201 50.168,34.187 C50.140,34.187 50.113,34.187 50.085,34.187 C50.072,34.159 50.058,34.132 50.044,34.105 C50.017,34.105 49.989,34.105 49.962,34.105 C49.962,34.091 49.962,34.077 49.962,34.063 C49.742,33.967 49.521,33.871 49.301,33.775 C49.288,33.747 49.274,33.720 49.260,33.692 C49.205,33.679 49.150,33.665 49.095,33.651 C49.095,33.637 49.095,33.624 49.095,33.610 C49.040,33.596 48.985,33.582 48.930,33.569 C48.930,33.555 48.930,33.541 48.930,33.528 C48.903,33.528 48.875,33.528 48.848,33.528 C48.848,33.514 48.848,33.500 48.848,33.486 C48.820,33.486 48.793,33.486 48.765,33.486 C48.765,33.473 48.765,33.459 48.765,33.445 C48.738,33.445 48.710,33.445 48.683,33.445 C48.683,33.431 48.683,33.418 48.683,33.404 C48.655,33.404 48.628,33.404 48.600,33.404 C48.600,33.390 48.600,33.376 48.600,33.363 C48.545,33.349 48.490,33.335 48.435,33.321 C48.421,33.294 48.408,33.267 48.394,33.239 C48.366,33.239 48.339,33.239 48.311,33.239 C48.311,33.225 48.311,33.212 48.311,33.198 C48.284,33.198 48.256,33.198 48.229,33.198 C48.229,33.184 48.229,33.170 48.229,33.157 C48.201,33.157 48.174,33.157 48.146,33.157 C48.146,33.143 48.146,33.129 48.146,33.115 C48.119,33.115 48.091,33.115 48.064,33.115 C48.064,33.102 48.064,33.088 48.064,33.074 C48.036,33.074 48.009,33.074 47.981,33.074 C47.981,33.060 47.981,33.047 47.981,33.033 C47.954,33.033 47.926,33.033 47.899,33.033 C47.720,32.923 47.541,32.813 47.362,32.703 C47.335,32.703 47.307,32.703 47.280,32.703 C47.280,32.690 47.280,32.676 47.280,32.662 C47.252,32.662 47.225,32.662 47.197,32.662 C47.197,32.648 47.197,32.635 47.197,32.621 C47.170,32.621 47.142,32.621 47.115,32.621 C47.115,32.607 47.115,32.593 47.115,32.580 C47.087,32.580 47.060,32.580 47.032,32.580 C47.032,32.566 47.032,32.552 47.032,32.538 C47.005,32.538 46.977,32.538 46.950,32.538 C46.950,32.525 46.950,32.511 46.950,32.497 C46.922,32.497 46.895,32.497 46.867,32.497 C46.854,32.470 46.840,32.442 46.826,32.415 C46.771,32.401 46.716,32.387 46.661,32.374 C46.661,32.360 46.661,32.346 46.661,32.332 C46.634,32.332 46.606,32.332 46.579,32.332 C46.579,32.319 46.579,32.305 46.579,32.291 C46.551,32.291 46.524,32.291 46.496,32.291 C46.496,32.277 46.496,32.264 46.496,32.250 C46.469,32.250 46.441,32.250 46.414,32.250 C46.414,32.236 46.414,32.223 46.414,32.209 C46.386,32.209 46.358,32.209 46.331,32.209 C46.331,32.195 46.331,32.181 46.331,32.168 C46.303,32.168 46.276,32.168 46.248,32.168 C46.248,32.154 46.248,32.140 46.248,32.126 C46.193,32.113 46.138,32.099 46.083,32.085 C46.083,32.071 46.083,32.058 46.083,32.044 C46.056,32.044 46.028,32.044 46.001,32.044 C45.987,32.016 45.973,31.989 45.960,31.962 C45.932,31.962 45.905,31.962 45.877,31.962 C45.877,31.948 45.877,31.934 45.877,31.920 C45.850,31.920 45.822,31.920 45.795,31.920 C45.795,31.907 45.795,31.893 45.795,31.879 C45.767,31.879 45.740,31.879 45.712,31.879 C45.712,31.865 45.712,31.852 45.712,31.838 C45.685,31.838 45.657,31.838 45.630,31.838 C45.630,31.824 45.630,31.810 45.630,31.797 C45.602,31.797 45.575,31.797 45.547,31.797 C45.547,31.783 45.547,31.769 45.547,31.755 C45.520,31.755 45.492,31.755 45.465,31.755 C45.465,31.742 45.465,31.728 45.465,31.714 C45.437,31.714 45.410,31.714 45.382,31.714 C45.382,31.701 45.382,31.687 45.382,31.673 C45.355,31.673 45.327,31.673 45.300,31.673 C45.300,31.659 45.300,31.646 45.300,31.632 C45.272,31.632 45.245,31.632 45.217,31.632 C45.203,31.604 45.190,31.577 45.176,31.549 C45.148,31.549 45.121,31.549 45.093,31.549 C45.093,31.536 45.093,31.522 45.093,31.508 C45.066,31.508 45.038,31.508 45.011,31.508 C45.011,31.494 45.011,31.481 45.011,31.467 C44.983,31.467 44.956,31.467 44.928,31.467 C44.928,31.453 44.928,31.440 44.928,31.426 C44.901,31.426 44.873,31.426 44.846,31.426 C44.846,31.412 44.846,31.398 44.846,31.385 C44.818,31.385 44.791,31.385 44.763,31.385 C44.763,31.371 44.763,31.357 44.763,31.343 C44.736,31.343 44.708,31.343 44.681,31.343 C44.681,31.330 44.681,31.316 44.681,31.302 C44.653,31.302 44.626,31.302 44.598,31.302 C44.389,31.190 44.226,31.007 43.938,30.972 C43.938,30.986 43.938,31.000 43.938,31.014 C43.883,31.027 43.828,31.041 43.773,31.055 C43.773,31.069 43.773,31.082 43.773,31.096 C43.746,31.096 43.718,31.096 43.691,31.096 C43.691,31.110 43.691,31.124 43.691,31.137 C43.663,31.137 43.636,31.137 43.608,31.137 C43.594,31.165 43.581,31.192 43.567,31.220 C43.539,31.220 43.512,31.220 43.484,31.220 C43.484,31.233 43.484,31.247 43.484,31.261 C43.457,31.261 43.429,31.261 43.402,31.261 C43.402,31.275 43.402,31.288 43.402,31.302 C43.374,31.302 43.347,31.302 43.319,31.302 C43.319,31.316 43.319,31.330 43.319,31.343 C43.292,31.343 43.264,31.343 43.237,31.343 C43.237,31.357 43.237,31.371 43.237,31.385 C43.209,31.385 43.182,31.385 43.154,31.385 C43.154,31.398 43.154,31.412 43.154,31.426 C43.127,31.426 43.099,31.426 43.072,31.426 C42.893,31.536 42.714,31.646 42.535,31.755 C42.508,31.755 42.480,31.755 42.453,31.755 C42.453,31.769 42.453,31.783 42.453,31.797 C42.425,31.797 42.398,31.797 42.370,31.797 C42.370,31.810 42.370,31.824 42.370,31.838 C42.343,31.838 42.315,31.838 42.288,31.838 C42.288,31.852 42.288,31.865 42.288,31.879 C42.260,31.879 42.233,31.879 42.205,31.879 C42.205,31.893 42.205,31.907 42.205,31.920 C42.178,31.920 42.150,31.920 42.123,31.920 C42.123,31.934 42.123,31.948 42.123,31.962 C42.095,31.962 42.068,31.962 42.040,31.962 C42.027,31.989 42.013,32.016 41.999,32.044 C41.944,32.058 41.889,32.071 41.834,32.085 C41.834,32.099 41.834,32.113 41.834,32.126 C41.779,32.140 41.724,32.154 41.669,32.168 C41.669,32.181 41.669,32.195 41.669,32.209 C41.642,32.209 41.614,32.209 41.586,32.209 C41.586,32.223 41.586,32.236 41.586,32.250 C41.559,32.250 41.531,32.250 41.504,32.250 C41.504,32.264 41.504,32.277 41.504,32.291 C41.476,32.291 41.449,32.291 41.421,32.291 C41.421,32.305 41.421,32.319 41.421,32.332 C41.394,32.332 41.366,32.332 41.339,32.332 C41.339,32.346 41.339,32.360 41.339,32.374 C41.284,32.387 41.229,32.401 41.174,32.415 C41.160,32.442 41.146,32.470 41.133,32.497 C41.105,32.497 41.078,32.497 41.050,32.497 C41.050,32.511 41.050,32.525 41.050,32.538 C41.023,32.538 40.995,32.538 40.968,32.538 C40.968,32.552 40.968,32.566 40.968,32.580 C40.940,32.580 40.913,32.580 40.885,32.580 C40.885,32.593 40.885,32.607 40.885,32.621 C40.858,32.621 40.830,32.621 40.803,32.621 C40.803,32.635 40.803,32.648 40.803,32.662 C40.775,32.662 40.748,32.662 40.720,32.662 C40.720,32.676 40.720,32.690 40.720,32.703 C40.693,32.703 40.665,32.703 40.638,32.703 C40.638,32.717 40.638,32.731 40.638,32.745 C40.610,32.745 40.583,32.745 40.555,32.745 C40.555,32.758 40.555,32.772 40.555,32.786 C40.500,32.799 40.445,32.813 40.390,32.827 C40.376,32.854 40.363,32.882 40.349,32.909 C40.321,32.909 40.294,32.909 40.266,32.909 C40.266,32.923 40.266,32.937 40.266,32.951 C40.239,32.951 40.211,32.951 40.184,32.951 C40.184,32.964 40.184,32.978 40.184,32.992 C40.156,32.992 40.129,32.992 40.101,32.992 C40.101,33.006 40.101,33.019 40.101,33.033 C40.074,33.033 40.046,33.033 40.019,33.033 C40.019,33.047 40.019,33.060 40.019,33.074 C39.991,33.074 39.964,33.074 39.936,33.074 C39.936,33.088 39.936,33.102 39.936,33.115 C39.909,33.115 39.881,33.115 39.854,33.115 C39.854,33.129 39.854,33.143 39.854,33.157 C39.826,33.157 39.799,33.157 39.771,33.157 C39.771,33.170 39.771,33.184 39.771,33.198 C39.716,33.212 39.661,33.225 39.606,33.239 C39.592,33.267 39.579,33.294 39.565,33.321 C39.537,33.321 39.510,33.321 39.482,33.321 C39.482,33.335 39.482,33.349 39.482,33.363 C39.455,33.363 39.427,33.363 39.400,33.363 C39.400,33.376 39.400,33.390 39.400,33.404 C39.372,33.404 39.345,33.404 39.317,33.404 C39.317,33.418 39.317,33.431 39.317,33.445 C39.290,33.445 39.262,33.445 39.235,33.445 C39.235,33.459 39.235,33.473 39.235,33.486 C39.207,33.486 39.180,33.486 39.152,33.486 C39.152,33.500 39.152,33.514 39.152,33.528 C39.125,33.528 39.097,33.528 39.070,33.528 C38.864,33.651 38.657,33.775 38.451,33.898 C38.424,33.898 38.396,33.898 38.368,33.898 C38.368,33.912 38.368,33.926 38.368,33.940 C38.341,33.940 38.313,33.940 38.286,33.940 C38.286,33.953 38.286,33.967 38.286,33.981 C38.258,33.981 38.231,33.981 38.203,33.981 C38.203,33.995 38.203,34.008 38.203,34.022 C38.176,34.022 38.148,34.022 38.121,34.022 C38.121,34.036 38.121,34.050 38.121,34.063 C38.093,34.063 38.066,34.063 38.038,34.063 C38.038,34.077 38.038,34.091 38.038,34.105 C38.011,34.105 37.983,34.105 37.956,34.105 C37.942,34.132 37.928,34.159 37.915,34.187 C37.887,34.187 37.860,34.187 37.832,34.187 C37.832,34.201 37.832,34.214 37.832,34.228 C37.805,34.228 37.777,34.228 37.750,34.228 C37.750,34.242 37.750,34.256 37.750,34.269 C37.722,34.269 37.695,34.269 37.667,34.269 C37.667,34.283 37.667,34.297 37.667,34.311 C37.640,34.311 37.612,34.311 37.585,34.311 C37.585,34.324 37.585,34.338 37.585,34.352 C37.557,34.352 37.530,34.352 37.502,34.352 C37.502,34.366 37.502,34.379 37.502,34.393 C37.475,34.393 37.447,34.393 37.420,34.393 C37.420,34.407 37.420,34.420 37.420,34.434 C37.392,34.434 37.365,34.434 37.337,34.434 C37.337,34.448 37.337,34.462 37.337,34.475 C37.282,34.489 37.227,34.503 37.172,34.517 C37.158,34.544 37.145,34.572 37.131,34.599 C37.103,34.599 37.076,34.599 37.048,34.599 C37.048,34.613 37.048,34.627 37.048,34.640 C37.021,34.640 36.993,34.640 36.966,34.640 C36.966,34.654 36.966,34.668 36.966,34.681 C36.938,34.681 36.911,34.681 36.883,34.681 C36.883,34.695 36.883,34.709 36.883,34.723 C36.856,34.723 36.828,34.723 36.801,34.723 C36.801,34.736 36.801,34.750 36.801,34.764 C36.773,34.764 36.746,34.764 36.718,34.764 C36.718,34.778 36.718,34.791 36.718,34.805 C36.691,34.805 36.663,34.805 36.636,34.805 C36.636,34.819 36.636,34.833 36.636,34.846 C36.608,34.846 36.581,34.846 36.553,34.846 C36.553,34.860 36.553,34.874 36.553,34.888 C36.498,34.901 36.443,34.915 36.388,34.929 C36.374,34.956 36.361,34.984 36.347,35.011 C36.292,35.025 36.237,35.039 36.182,35.052 C36.182,35.066 36.182,35.080 36.182,35.094 C36.154,35.094 36.127,35.094 36.099,35.094 C36.099,35.107 36.099,35.121 36.099,35.135 C36.072,35.135 36.044,35.135 36.017,35.135 C36.017,35.149 36.017,35.162 36.017,35.176 C35.989,35.176 35.962,35.176 35.934,35.176 C35.934,35.190 35.934,35.203 35.934,35.217 C35.907,35.217 35.879,35.217 35.852,35.217 C35.852,35.231 35.852,35.245 35.852,35.258 C35.824,35.258 35.797,35.258 35.769,35.258 C35.769,35.272 35.769,35.286 35.769,35.300 C35.714,35.313 35.659,35.327 35.604,35.341 C35.604,35.355 35.604,35.368 35.604,35.382 C35.577,35.382 35.549,35.382 35.522,35.382 C35.508,35.410 35.494,35.437 35.481,35.464 C35.426,35.478 35.371,35.492 35.316,35.506 C35.316,35.519 35.316,35.533 35.316,35.547 C35.233,35.574 35.150,35.602 35.068,35.629 C35.068,35.643 35.068,35.657 35.068,35.671 C34.944,35.698 34.820,35.725 34.697,35.753 C34.697,35.767 34.697,35.780 34.697,35.794 C34.504,35.808 34.312,35.822 34.119,35.835 C34.119,35.849 34.119,35.863 34.119,35.877 C34.064,35.877 34.009,35.877 33.954,35.877 C33.954,35.863 33.954,35.849 33.954,35.835 C33.830,35.835 33.707,35.835 33.583,35.835 C33.583,35.822 33.583,35.808 33.583,35.794 C33.528,35.794 33.473,35.794 33.418,35.794 C33.418,35.780 33.418,35.767 33.418,35.753 C33.363,35.753 33.308,35.753 33.253,35.753 C33.253,35.739 33.253,35.725 33.253,35.712 C33.211,35.712 33.170,35.712 33.129,35.712 C33.129,35.698 33.129,35.684 33.129,35.671 C33.101,35.671 33.074,35.671 33.046,35.671 C33.046,35.657 33.046,35.643 33.046,35.629 C33.005,35.629 32.964,35.629 32.923,35.629 C32.923,35.616 32.923,35.602 32.923,35.588 C32.895,35.588 32.868,35.588 32.840,35.588 C32.826,35.561 32.813,35.533 32.799,35.506 C32.744,35.492 32.689,35.478 32.634,35.464 C32.620,35.437 32.606,35.410 32.593,35.382 C32.565,35.382 32.538,35.382 32.510,35.382 C32.469,35.327 32.428,35.272 32.386,35.217 C32.359,35.217 32.331,35.217 32.304,35.217 C32.290,35.190 32.276,35.162 32.263,35.135 C32.208,35.094 32.153,35.052 32.098,35.011 C32.098,34.984 32.098,34.956 32.098,34.929 C32.043,34.888 31.987,34.846 31.932,34.805 C31.932,34.778 31.932,34.750 31.932,34.723 C31.905,34.709 31.877,34.695 31.850,34.681 C31.850,34.654 31.850,34.627 31.850,34.599 C31.822,34.585 31.795,34.572 31.767,34.558 C31.767,34.530 31.767,34.503 31.767,34.475 C31.754,34.475 31.740,34.475 31.726,34.475 C31.726,34.448 31.726,34.420 31.726,34.393 C31.712,34.393 31.699,34.393 31.685,34.393 C31.685,34.352 31.685,34.311 31.685,34.269 C31.671,34.269 31.657,34.269 31.644,34.269 C31.644,34.242 31.644,34.214 31.644,34.187 C31.630,34.187 31.616,34.187 31.602,34.187 C31.589,34.105 31.575,34.022 31.561,33.940 C31.547,33.940 31.534,33.940 31.520,33.940 C31.520,33.871 31.520,33.802 31.520,33.734 C31.378,33.254 31.507,32.539 31.644,32.085 C31.644,32.003 31.644,31.920 31.644,31.838 C31.730,31.553 31.765,31.174 31.850,30.890 C31.864,30.725 31.877,30.560 31.891,30.396 C32.091,29.734 32.103,28.911 32.304,28.253 C32.318,28.088 32.331,27.923 32.345,27.758 C32.502,27.236 32.518,26.590 32.675,26.068 C32.689,25.904 32.703,25.739 32.716,25.574 C32.825,25.218 32.856,24.740 32.964,24.379 C32.964,24.296 32.964,24.214 32.964,24.131 C33.056,23.828 33.135,23.405 33.170,23.060 C32.957,23.003 32.628,22.559 32.469,22.401 C32.235,22.181 32.001,21.961 31.767,21.741 C31.685,21.645 31.602,21.549 31.520,21.453 C31.492,21.453 31.465,21.453 31.437,21.453 C31.231,21.233 31.025,21.013 30.819,20.793 C30.585,20.574 30.351,20.354 30.117,20.134 C30.035,20.038 29.952,19.942 29.870,19.846 C29.842,19.846 29.815,19.846 29.787,19.846 C29.512,19.557 29.237,19.269 28.962,18.980 C28.713,18.731 28.468,18.489 28.178,18.280 C27.862,17.950 27.546,17.620 27.229,17.291 C26.789,16.878 26.349,16.466 25.909,16.054 C25.909,16.027 25.909,15.999 25.909,15.972 C25.868,15.944 25.827,15.917 25.785,15.889 C25.785,15.862 25.785,15.834 25.785,15.807 C25.758,15.793 25.730,15.779 25.703,15.766 C25.703,15.738 25.703,15.711 25.703,15.683 C25.675,15.670 25.648,15.656 25.620,15.642 C25.607,15.587 25.593,15.532 25.579,15.477 C25.359,15.062 25.189,14.402 25.373,13.829 C25.373,13.774 25.373,13.719 25.373,13.664 C25.386,13.664 25.400,13.664 25.414,13.664 C25.441,13.540 25.469,13.417 25.496,13.293 C25.510,13.293 25.524,13.293 25.538,13.293 C25.551,13.238 25.565,13.183 25.579,13.128 C25.593,13.128 25.607,13.128 25.620,13.128 C25.620,13.101 25.620,13.073 25.620,13.046 C25.634,13.046 25.648,13.046 25.662,13.046 C25.675,13.005 25.689,12.963 25.703,12.922 C25.730,12.908 25.758,12.895 25.785,12.881 C25.785,12.853 25.785,12.826 25.785,12.799 C25.854,12.744 25.923,12.689 25.992,12.634 C25.992,12.606 25.992,12.579 25.992,12.551 C26.005,12.551 26.019,12.551 26.033,12.551 C26.047,12.524 26.060,12.496 26.074,12.469 C26.102,12.469 26.129,12.469 26.157,12.469 C26.212,12.400 26.267,12.331 26.322,12.263 C26.349,12.263 26.377,12.263 26.404,12.263 C26.418,12.235 26.432,12.208 26.445,12.180 C26.487,12.167 26.528,12.153 26.569,12.139 C26.569,12.125 26.569,12.112 26.569,12.098 C26.817,12.002 27.064,11.906 27.312,11.809 C27.394,11.809 27.477,11.809 27.559,11.809 C27.795,11.739 28.144,11.714 28.384,11.645 C28.673,11.617 28.962,11.590 29.251,11.562 C29.858,11.385 30.622,11.409 31.231,11.233 C31.424,11.219 31.616,11.205 31.809,11.191 C33.638,10.917 35.467,10.642 37.296,10.367 C37.384,10.152 37.521,9.944 37.626,9.749 C37.626,9.721 37.626,9.694 37.626,9.667 C37.640,9.667 37.653,9.667 37.667,9.667 C37.667,9.639 37.667,9.612 37.667,9.584 C37.681,9.584 37.695,9.584 37.708,9.584 C37.708,9.557 37.708,9.529 37.708,9.502 C37.722,9.502 37.736,9.502 37.750,9.502 C37.750,9.474 37.750,9.447 37.750,9.419 C37.763,9.419 37.777,9.419 37.791,9.419 C37.791,9.392 37.791,9.364 37.791,9.337 C37.805,9.337 37.818,9.337 37.832,9.337 C37.832,9.309 37.832,9.282 37.832,9.254 C37.846,9.254 37.860,9.254 37.873,9.254 C37.873,9.213 37.873,9.172 37.873,9.131 C37.887,9.131 37.901,9.131 37.915,9.131 C37.915,9.103 37.915,9.076 37.915,9.048 C37.928,9.048 37.942,9.048 37.956,9.048 C37.956,9.021 37.956,8.993 37.956,8.966 C37.970,8.966 37.983,8.966 37.997,8.966 C37.997,8.938 37.997,8.911 37.997,8.884 C38.011,8.884 38.025,8.884 38.038,8.884 C38.038,8.856 38.038,8.829 38.038,8.801 C38.052,8.801 38.066,8.801 38.080,8.801 C38.080,8.774 38.080,8.746 38.080,8.719 C38.093,8.719 38.107,8.719 38.121,8.719 C38.121,8.691 38.121,8.664 38.121,8.636 C38.135,8.636 38.148,8.636 38.162,8.636 C38.162,8.609 38.162,8.581 38.162,8.554 C38.176,8.554 38.190,8.554 38.203,8.554 C38.203,8.526 38.203,8.499 38.203,8.471 C38.217,8.471 38.231,8.471 38.245,8.471 C38.245,8.444 38.245,8.416 38.245,8.389 C38.258,8.389 38.272,8.389 38.286,8.389 C38.286,8.361 38.286,8.334 38.286,8.307 C38.300,8.307 38.313,8.307 38.327,8.307 C38.327,8.279 38.327,8.252 38.327,8.224 C38.341,8.224 38.355,8.224 38.368,8.224 C38.368,8.197 38.368,8.169 38.368,8.142 C38.382,8.142 38.396,8.142 38.410,8.142 C38.437,8.059 38.465,7.977 38.492,7.894 C38.506,7.894 38.520,7.894 38.534,7.894 C38.534,7.853 38.534,7.812 38.534,7.771 C38.547,7.771 38.561,7.771 38.575,7.771 C38.575,7.743 38.575,7.716 38.575,7.688 C38.589,7.688 38.602,7.688 38.616,7.688 C38.616,7.661 38.616,7.633 38.616,7.606 C38.630,7.606 38.644,7.606 38.657,7.606 C38.657,7.578 38.657,7.551 38.657,7.524 C38.671,7.524 38.685,7.524 38.699,7.524 C38.699,7.496 38.699,7.469 38.699,7.441 C38.712,7.441 38.726,7.441 38.740,7.441 C38.740,7.414 38.740,7.386 38.740,7.359 C38.754,7.359 38.767,7.359 38.781,7.359 C38.877,7.139 38.974,6.919 39.070,6.699 C39.084,6.699 39.097,6.699 39.111,6.699 C39.111,6.672 39.111,6.644 39.111,6.617 C39.125,6.617 39.139,6.617 39.152,6.617 C39.152,6.576 39.152,6.534 39.152,6.493 C39.166,6.493 39.180,6.493 39.194,6.493 C39.221,6.411 39.249,6.328 39.276,6.246 C39.290,6.246 39.304,6.246 39.317,6.246 C39.317,6.219 39.317,6.191 39.317,6.164 C39.331,6.164 39.345,6.164 39.359,6.164 C39.359,6.136 39.359,6.109 39.359,6.081 C39.372,6.081 39.386,6.081 39.400,6.081 C39.496,5.861 39.592,5.642 39.689,5.422 C39.702,5.422 39.716,5.422 39.730,5.422 C39.730,5.394 39.730,5.367 39.730,5.339 C39.744,5.339 39.757,5.339 39.771,5.339 C39.771,5.298 39.771,5.257 39.771,5.216 C39.785,5.216 39.799,5.216 39.812,5.216 C39.812,5.188 39.812,5.161 39.812,5.133 C39.826,5.133 39.840,5.133 39.854,5.133 C39.854,5.106 39.854,5.078 39.854,5.051 C39.867,5.051 39.881,5.051 39.895,5.051 C39.895,5.023 39.895,4.996 39.895,4.968 C39.909,4.968 39.922,4.968 39.936,4.968 C39.936,4.941 39.936,4.914 39.936,4.886 C39.950,4.886 39.964,4.886 39.977,4.886 C39.977,4.859 39.977,4.831 39.977,4.804 C39.991,4.804 40.005,4.804 40.019,4.804 C40.019,4.776 40.019,4.749 40.019,4.721 C40.033,4.721 40.046,4.721 40.060,4.721 C40.060,4.694 40.060,4.666 40.060,4.639 C40.074,4.639 40.088,4.639 40.101,4.639 C40.101,4.611 40.101,4.584 40.101,4.556 C40.115,4.556 40.129,4.556 40.143,4.556 C40.143,4.529 40.143,4.501 40.143,4.474 C40.156,4.474 40.170,4.474 40.184,4.474 C40.184,4.446 40.184,4.419 40.184,4.392 C40.198,4.392 40.211,4.392 40.225,4.392 C40.225,4.364 40.225,4.337 40.225,4.309 C40.239,4.309 40.253,4.309 40.266,4.309 C40.266,4.282 40.266,4.254 40.266,4.227 C40.280,4.227 40.294,4.227 40.308,4.227 C40.335,4.144 40.363,4.062 40.390,3.979 C40.404,3.979 40.418,3.979 40.431,3.979 C40.431,3.938 40.431,3.897 40.431,3.856 C40.445,3.856 40.459,3.856 40.473,3.856 C40.500,3.773 40.528,3.691 40.555,3.609 C40.569,3.609 40.583,3.609 40.596,3.609 C40.596,3.581 40.596,3.554 40.596,3.526 C40.610,3.526 40.624,3.526 40.638,3.526 C40.638,3.499 40.638,3.471 40.638,3.444 C40.651,3.444 40.665,3.444 40.679,3.444 C40.679,3.416 40.679,3.389 40.679,3.361 C40.693,3.361 40.706,3.361 40.720,3.361 C40.720,3.334 40.720,3.306 40.720,3.279 C40.734,3.279 40.748,3.279 40.761,3.279 C40.761,3.251 40.761,3.224 40.761,3.196 C40.775,3.196 40.789,3.196 40.803,3.196 C40.803,3.169 40.803,3.141 40.803,3.114 C40.816,3.114 40.830,3.114 40.844,3.114 C40.844,3.087 40.844,3.059 40.844,3.032 C40.858,3.032 40.871,3.032 40.885,3.032 C40.885,3.004 40.885,2.977 40.885,2.949 C40.899,2.949 40.913,2.949 40.926,2.949 C40.954,2.867 40.981,2.784 41.009,2.702 C41.023,2.702 41.036,2.702 41.050,2.702 C41.050,2.661 41.050,2.619 41.050,2.578 C41.064,2.578 41.078,2.578 41.091,2.578 C41.091,2.551 41.091,2.523 41.091,2.496 C41.105,2.496 41.119,2.496 41.133,2.496 C41.146,2.441 41.160,2.386 41.174,2.331 C41.188,2.331 41.201,2.331 41.215,2.331 C41.229,2.276 41.243,2.221 41.256,2.166 C41.270,2.166 41.284,2.166 41.298,2.166 C41.298,2.139 41.298,2.111 41.298,2.084 C41.311,2.084 41.325,2.084 41.339,2.084 C41.339,2.056 41.339,2.029 41.339,2.001 C41.353,2.001 41.366,2.001 41.380,2.001 C41.380,1.974 41.380,1.946 41.380,1.919 C41.394,1.919 41.408,1.919 41.421,1.919 C41.421,1.891 41.421,1.864 41.421,1.836 C41.435,1.836 41.449,1.836 41.463,1.836 C41.463,1.809 41.463,1.782 41.463,1.754 C41.476,1.754 41.490,1.754 41.504,1.754 C41.518,1.699 41.531,1.644 41.545,1.589 C41.559,1.589 41.573,1.589 41.586,1.589 C41.586,1.562 41.586,1.534 41.586,1.507 C41.600,1.507 41.614,1.507 41.628,1.507 C41.628,1.479 41.628,1.452 41.628,1.424 C41.642,1.424 41.655,1.424 41.669,1.424 C41.669,1.383 41.669,1.342 41.669,1.301 C41.697,1.287 41.724,1.273 41.752,1.260 C41.765,1.205 41.779,1.150 41.793,1.095 C41.958,0.916 42.123,0.737 42.288,0.559 C42.315,0.559 42.343,0.559 42.370,0.559 C42.398,0.518 42.425,0.476 42.453,0.435 C42.508,0.422 42.563,0.408 42.618,0.394 C42.632,0.367 42.645,0.339 42.659,0.312 C42.728,0.298 42.797,0.284 42.865,0.270 C42.865,0.257 42.865,0.243 42.865,0.229 C42.893,0.229 42.920,0.229 42.948,0.229 C42.948,0.215 42.948,0.202 42.948,0.188 C42.989,0.188 43.030,0.188 43.072,0.188 C43.072,0.174 43.072,0.161 43.072,0.147 C43.113,0.147 43.154,0.147 43.195,0.147 C43.195,0.133 43.195,0.119 43.195,0.106 C43.251,0.106 43.306,0.106 43.361,0.106 C43.361,0.092 43.361,0.078 43.361,0.064 C43.429,0.064 43.498,0.064 43.567,0.064 C43.567,0.051 43.567,0.037 43.567,0.023 C43.809,-0.047 44.644,0.049 44.805,0.106 C44.805,0.119 44.805,0.133 44.805,0.147 C44.846,0.147 44.887,0.147 44.928,0.147 C44.928,0.161 44.928,0.174 44.928,0.188 C44.970,0.188 45.011,0.188 45.052,0.188 C45.052,0.202 45.052,0.215 45.052,0.229 C45.080,0.229 45.107,0.229 45.135,0.229 C45.135,0.243 45.135,0.257 45.135,0.270 C45.176,0.270 45.217,0.270 45.258,0.270 C45.258,0.284 45.258,0.298 45.258,0.312 C45.286,0.312 45.313,0.312 45.341,0.312 C45.355,0.339 45.368,0.367 45.382,0.394 C45.437,0.408 45.492,0.422 45.547,0.435 C45.575,0.476 45.602,0.518 45.630,0.559 C45.657,0.559 45.685,0.559 45.712,0.559 C45.753,0.614 45.795,0.669 45.836,0.724 C45.932,0.806 46.028,0.889 46.125,0.971 C46.125,0.999 46.125,1.026 46.125,1.053 C46.152,1.067 46.180,1.081 46.207,1.095 C46.221,1.150 46.235,1.205 46.248,1.260 C46.262,1.260 46.276,1.260 46.290,1.260 C46.290,1.287 46.290,1.314 46.290,1.342 C46.303,1.342 46.317,1.342 46.331,1.342 C46.331,1.369 46.331,1.397 46.331,1.424 C46.345,1.424 46.358,1.424 46.372,1.424 C46.372,1.452 46.372,1.479 46.372,1.507 C46.386,1.507 46.400,1.507 46.414,1.507 C46.414,1.534 46.414,1.562 46.414,1.589 C46.427,1.589 46.441,1.589 46.455,1.589 C46.455,1.617 46.455,1.644 46.455,1.672 C46.469,1.672 46.482,1.672 46.496,1.672 C46.510,1.727 46.524,1.782 46.537,1.836 C46.551,1.836 46.565,1.836 46.579,1.836 C46.592,1.891 46.606,1.946 46.620,2.001 C46.634,2.001 46.647,2.001 46.661,2.001 C46.661,2.029 46.661,2.056 46.661,2.084 C46.675,2.084 46.689,2.084 46.702,2.084 C46.702,2.111 46.702,2.139 46.702,2.166 C46.716,2.166 46.730,2.166 46.744,2.166 C46.744,2.194 46.744,2.221 46.744,2.249 C46.757,2.249 46.771,2.249 46.785,2.249 C46.785,2.276 46.785,2.304 46.785,2.331 C46.799,2.331 46.812,2.331 46.826,2.331 C46.854,2.413 46.881,2.496 46.909,2.578 C46.922,2.578 46.936,2.578 46.950,2.578 C46.950,2.619 46.950,2.661 46.950,2.702 C46.964,2.702 46.977,2.702 46.991,2.702 C47.019,2.784 47.046,2.867 47.074,2.949 C47.087,2.949 47.101,2.949 47.115,2.949 C47.115,2.977 47.115,3.004 47.115,3.032 C47.129,3.032 47.142,3.032 47.156,3.032 C47.156,3.059 47.156,3.087 47.156,3.114 C47.170,3.114 47.184,3.114 47.197,3.114 C47.294,3.334 47.390,3.554 47.486,3.773 C47.500,3.773 47.514,3.773 47.527,3.773 C47.527,3.801 47.527,3.828 47.527,3.856 C47.541,3.856 47.555,3.856 47.569,3.856 C47.569,3.897 47.569,3.938 47.569,3.979 C47.582,3.979 47.596,3.979 47.610,3.979 C47.637,4.062 47.665,4.144 47.692,4.227 C47.706,4.227 47.720,4.227 47.734,4.227 C47.734,4.254 47.734,4.282 47.734,4.309 C47.747,4.309 47.761,4.309 47.775,4.309 C47.775,4.337 47.775,4.364 47.775,4.392 C47.789,4.392 47.802,4.392 47.816,4.392 C47.912,4.611 48.009,4.831 48.105,5.051 C48.119,5.051 48.133,5.051 48.146,5.051 C48.146,5.078 48.146,5.106 48.146,5.133 C48.160,5.133 48.174,5.133 48.188,5.133 C48.188,5.175 48.188,5.216 48.188,5.257 C48.201,5.257 48.215,5.257 48.229,5.257 C48.229,5.284 48.229,5.312 48.229,5.339 C48.243,5.339 48.256,5.339 48.270,5.339 C48.270,5.367 48.270,5.394 48.270,5.422 C48.284,5.422 48.298,5.422 48.311,5.422 C48.325,5.477 48.339,5.532 48.353,5.587 C48.366,5.587 48.380,5.587 48.394,5.587 C48.408,5.642 48.421,5.697 48.435,5.751 C48.449,5.751 48.463,5.751 48.476,5.751 C48.476,5.779 48.476,5.806 48.476,5.834 C48.490,5.834 48.504,5.834 48.518,5.834 C48.518,5.861 48.518,5.889 48.518,5.916 C48.531,5.916 48.545,5.916 48.559,5.916 C48.559,5.944 48.559,5.971 48.559,5.999 C48.573,5.999 48.586,5.999 48.600,5.999 C48.600,6.026 48.600,6.054 48.600,6.081 C48.614,6.081 48.628,6.081 48.641,6.081 C48.669,6.164 48.696,6.246 48.724,6.328 C48.738,6.328 48.751,6.328 48.765,6.328 C48.779,6.383 48.793,6.438 48.806,6.493 C48.820,6.493 48.834,6.493 48.848,6.493 C48.848,6.534 48.848,6.576 48.848,6.617 C48.861,6.617 48.875,6.617 48.889,6.617 C48.916,6.699 48.944,6.782 48.971,6.864 C48.985,6.864 48.999,6.864 49.013,6.864 C49.013,6.892 49.013,6.919 49.013,6.947 C49.026,6.947 49.040,6.947 49.054,6.947 C49.054,6.974 49.054,7.002 49.054,7.029 C49.068,7.029 49.081,7.029 49.095,7.029 C49.191,7.249 49.288,7.469 49.384,7.688 C49.398,7.688 49.411,7.688 49.425,7.688 C49.425,7.716 49.425,7.743 49.425,7.771 C49.439,7.771 49.453,7.771 49.466,7.771 C49.466,7.812 49.466,7.853 49.466,7.894 C49.480,7.894 49.494,7.894 49.508,7.894 C49.535,7.977 49.563,8.059 49.590,8.142 C49.604,8.142 49.618,8.142 49.632,8.142 C49.632,8.169 49.632,8.197 49.632,8.224 C49.645,8.224 49.659,8.224 49.673,8.224 C49.673,8.252 49.673,8.279 49.673,8.307 C49.687,8.307 49.700,8.307 49.714,8.307 C49.714,8.334 49.714,8.361 49.714,8.389 C49.728,8.389 49.742,8.389 49.755,8.389 C49.755,8.416 49.755,8.444 49.755,8.471 C49.769,8.471 49.783,8.471 49.797,8.471 C49.797,8.499 49.797,8.526 49.797,8.554 C49.810,8.554 49.824,8.554 49.838,8.554 C49.838,8.581 49.838,8.609 49.838,8.636 C49.852,8.636 49.865,8.636 49.879,8.636 C49.879,8.664 49.879,8.691 49.879,8.719 C49.893,8.719 49.907,8.719 49.920,8.719 C49.920,8.746 49.920,8.774 49.920,8.801 C49.934,8.801 49.948,8.801 49.962,8.801 C49.989,8.883 50.017,8.966 50.044,9.048 C50.058,9.048 50.072,9.048 50.085,9.048 C50.085,9.090 50.085,9.131 50.085,9.172 C50.099,9.172 50.113,9.172 50.127,9.172 C50.154,9.254 50.182,9.337 50.209,9.419 C50.223,9.419 50.237,9.419 50.250,9.419 C50.250,9.447 50.250,9.474 50.250,9.502 C50.264,9.502 50.278,9.502 50.292,9.502 C50.292,9.529 50.292,9.557 50.292,9.584 C50.305,9.584 50.319,9.584 50.333,9.584 C50.333,9.612 50.333,9.639 50.333,9.667 C50.347,9.667 50.360,9.667 50.374,9.667 C50.374,9.694 50.374,9.721 50.374,9.749 C50.388,9.749 50.402,9.749 50.415,9.749 C50.470,9.851 50.643,10.330 50.704,10.367 C50.732,10.367 50.759,10.367 50.787,10.367 C50.910,10.470 51.182,10.396 51.364,10.450 C51.364,10.463 51.364,10.477 51.364,10.491 C51.461,10.491 51.557,10.491 51.653,10.491 C52.076,10.615 52.637,10.615 53.056,10.738 C53.248,10.752 53.441,10.765 53.633,10.779 C53.978,10.880 54.444,10.885 54.789,10.985 C54.885,10.985 54.981,10.985 55.077,10.985 C55.077,10.999 55.077,11.013 55.077,11.026 C55.174,11.026 55.270,11.026 55.366,11.026 C55.366,11.040 55.366,11.054 55.366,11.068 C55.449,11.068 55.531,11.068 55.614,11.068 C55.614,11.081 55.614,11.095 55.614,11.109 C55.710,11.109 55.806,11.109 55.902,11.109 C56.600,11.313 57.477,11.278 58.172,11.480 C58.268,11.480 58.364,11.480 58.460,11.480 C58.460,11.494 58.460,11.507 58.460,11.521 C58.557,11.521 58.653,11.521 58.749,11.521 C58.749,11.535 58.749,11.548 58.749,11.562 C58.845,11.562 58.942,11.562 59.038,11.562 C59.038,11.576 59.038,11.590 59.038,11.603 C59.588,11.672 60.138,11.741 60.688,11.809 C60.936,11.906 61.183,12.002 61.431,12.098 C61.431,12.112 61.431,12.125 61.431,12.139 C61.472,12.153 61.513,12.167 61.555,12.180 C61.568,12.208 61.582,12.235 61.596,12.263 C61.623,12.263 61.651,12.263 61.678,12.263 C61.733,12.331 61.788,12.400 61.843,12.469 C61.871,12.469 61.898,12.469 61.926,12.469 C61.940,12.496 61.953,12.524 61.967,12.551 C61.981,12.551 61.995,12.551 62.008,12.551 C62.008,12.579 62.008,12.606 62.008,12.634 C62.077,12.689 62.146,12.744 62.215,12.799 C62.215,12.826 62.215,12.853 62.215,12.881 C62.242,12.895 62.270,12.908 62.297,12.922 C62.297,12.950 62.297,12.977 62.297,13.005 C62.325,13.018 62.352,13.032 62.380,13.046 C62.380,13.073 62.380,13.101 62.380,13.128 C62.393,13.128 62.407,13.128 62.421,13.128 C62.435,13.183 62.449,13.238 62.462,13.293 C62.476,13.293 62.490,13.293 62.504,13.293 C62.504,13.334 62.504,13.375 62.504,13.417 C62.517,13.417 62.531,13.417 62.545,13.417 C62.545,13.458 62.545,13.499 62.545,13.540 C62.559,13.540 62.572,13.540 62.586,13.540 C62.586,13.582 62.586,13.623 62.586,13.664 C62.600,13.664 62.614,13.664 62.627,13.664 C62.627,13.719 62.627,13.774 62.627,13.829 C62.791,14.344 62.671,14.856 62.504,15.271 C62.462,15.395 62.421,15.518 62.380,15.642 C62.352,15.656 62.325,15.670 62.297,15.683 C62.297,15.711 62.297,15.738 62.297,15.766 C62.270,15.779 62.242,15.793 62.215,15.807 C62.215,15.834 62.215,15.862 62.215,15.889 C62.173,15.917 62.132,15.944 62.091,15.972 C62.091,15.999 62.091,16.027 62.091,16.054 C61.623,16.494 61.156,16.933 60.688,17.373 C60.399,17.675 60.111,17.977 59.822,18.280 C59.794,18.280 59.767,18.280 59.739,18.280 C59.671,18.362 59.602,18.444 59.533,18.527 C59.341,18.705 59.148,18.884 58.955,19.063 C58.694,19.337 58.433,19.612 58.172,19.887 C58.144,19.887 58.117,19.887 58.089,19.887 C57.965,20.024 57.842,20.162 57.718,20.299 C57.443,20.560 57.168,20.821 56.893,21.082 C56.783,21.206 56.673,21.329 56.563,21.453 C56.535,21.453 56.508,21.453 56.480,21.453 C56.370,21.576 56.260,21.700 56.150,21.824 C55.916,22.043 55.682,22.263 55.449,22.483 C55.300,22.631 55.036,23.004 54.830,23.060 ZM62.050,72.307 C50.018,72.307 37.982,72.307 25.950,72.307 C25.950,65.192 25.950,58.075 25.950,50.960 C25.950,49.092 25.950,47.223 25.950,45.355 C25.950,44.764 25.950,44.174 25.950,43.583 C25.964,43.583 25.978,43.583 25.992,43.583 C25.992,43.514 25.992,43.446 25.992,43.377 C26.005,43.377 26.019,43.377 26.033,43.377 C26.033,43.336 26.033,43.295 26.033,43.253 C26.047,43.253 26.060,43.253 26.074,43.253 C26.074,43.212 26.074,43.171 26.074,43.130 C26.088,43.130 26.102,43.130 26.115,43.130 C26.115,43.088 26.115,43.047 26.115,43.006 C26.129,43.006 26.143,43.006 26.157,43.006 C26.157,42.965 26.157,42.924 26.157,42.882 C26.170,42.882 26.184,42.882 26.198,42.882 C26.198,42.855 26.198,42.827 26.198,42.800 C26.212,42.800 26.225,42.800 26.239,42.800 C26.239,42.773 26.239,42.745 26.239,42.718 C26.267,42.704 26.294,42.690 26.322,42.676 C26.322,42.649 26.322,42.621 26.322,42.594 C26.335,42.594 26.349,42.594 26.363,42.594 C26.377,42.553 26.390,42.511 26.404,42.470 C26.432,42.457 26.459,42.443 26.487,42.429 C26.487,42.402 26.487,42.374 26.487,42.347 C26.542,42.305 26.597,42.264 26.652,42.223 C26.734,42.127 26.817,42.031 26.899,41.935 C26.927,41.935 26.954,41.935 26.982,41.935 C26.995,41.907 27.009,41.880 27.023,41.852 C27.050,41.852 27.078,41.852 27.105,41.852 C27.119,41.825 27.133,41.797 27.147,41.770 C27.353,41.674 27.559,41.577 27.766,41.481 C28.257,41.307 29.195,41.399 29.828,41.399 C31.272,41.399 32.717,41.399 34.160,41.399 C40.596,41.399 47.033,41.399 53.468,41.399 C54.981,41.399 56.494,41.399 58.007,41.399 C58.625,41.399 59.244,41.399 59.863,41.399 C59.863,41.413 59.863,41.426 59.863,41.440 C60.028,41.467 60.193,41.495 60.358,41.522 C60.358,41.536 60.358,41.550 60.358,41.564 C60.386,41.564 60.413,41.564 60.441,41.564 C60.441,41.577 60.441,41.591 60.441,41.605 C60.482,41.605 60.523,41.605 60.564,41.605 C60.564,41.619 60.564,41.632 60.564,41.646 C60.592,41.646 60.619,41.646 60.647,41.646 C60.647,41.660 60.647,41.674 60.647,41.687 C60.674,41.687 60.702,41.687 60.729,41.687 C60.743,41.715 60.757,41.742 60.771,41.770 C60.826,41.783 60.881,41.797 60.936,41.811 C60.963,41.852 60.991,41.893 61.018,41.935 C61.046,41.935 61.073,41.935 61.101,41.935 C61.197,42.044 61.293,42.154 61.390,42.264 C61.431,42.292 61.472,42.319 61.513,42.347 C61.513,42.374 61.513,42.402 61.513,42.429 C61.541,42.443 61.568,42.457 61.596,42.470 C61.610,42.511 61.623,42.553 61.637,42.594 C61.651,42.594 61.665,42.594 61.678,42.594 C61.678,42.621 61.678,42.649 61.678,42.676 C61.706,42.690 61.733,42.704 61.761,42.718 C61.761,42.745 61.761,42.773 61.761,42.800 C61.775,42.800 61.788,42.800 61.802,42.800 C61.802,42.827 61.802,42.855 61.802,42.882 C61.816,42.882 61.830,42.882 61.843,42.882 C61.843,42.924 61.843,42.965 61.843,43.006 C61.857,43.006 61.871,43.006 61.885,43.006 C61.885,43.047 61.885,43.088 61.885,43.130 C61.898,43.130 61.912,43.130 61.926,43.130 C61.926,43.171 61.926,43.212 61.926,43.253 C61.940,43.253 61.953,43.253 61.967,43.253 C61.967,43.295 61.967,43.336 61.967,43.377 C61.981,43.377 61.995,43.377 62.008,43.377 C62.022,43.624 62.036,43.871 62.050,44.119 C62.050,44.599 62.050,45.080 62.050,45.561 C62.050,46.976 62.050,48.391 62.050,49.806 C62.050,57.305 62.050,64.807 62.050,72.307 ZM67.207,51.702 C72.116,51.702 77.026,51.702 81.935,51.702 C83.228,51.702 84.521,51.702 85.813,51.702 C85.813,51.715 85.813,51.729 85.813,51.743 C85.978,51.770 86.143,51.798 86.308,51.825 C86.308,51.839 86.308,51.853 86.308,51.866 C86.336,51.866 86.363,51.866 86.391,51.866 C86.391,51.880 86.391,51.894 86.391,51.908 C86.432,51.908 86.474,51.908 86.515,51.908 C86.515,51.921 86.515,51.935 86.515,51.949 C86.542,51.949 86.570,51.949 86.597,51.949 C86.597,51.963 86.597,51.976 86.597,51.990 C86.625,51.990 86.652,51.990 86.680,51.990 C86.694,52.017 86.707,52.045 86.721,52.072 C86.776,52.086 86.831,52.100 86.886,52.114 C86.914,52.155 86.941,52.196 86.969,52.237 C86.996,52.237 87.024,52.237 87.051,52.237 C87.120,52.320 87.189,52.402 87.257,52.485 C87.326,52.539 87.395,52.594 87.464,52.649 C87.464,52.677 87.464,52.704 87.464,52.732 C87.505,52.759 87.546,52.787 87.587,52.814 C87.601,52.869 87.615,52.924 87.629,52.979 C87.656,52.993 87.684,53.007 87.711,53.020 C87.711,53.048 87.711,53.075 87.711,53.103 C87.725,53.103 87.739,53.103 87.752,53.103 C87.752,53.130 87.752,53.158 87.752,53.185 C87.766,53.185 87.780,53.185 87.794,53.185 C87.794,53.226 87.794,53.268 87.794,53.309 C87.807,53.309 87.821,53.309 87.835,53.309 C87.835,53.336 87.835,53.364 87.835,53.391 C87.849,53.391 87.862,53.391 87.876,53.391 C87.904,53.556 87.931,53.721 87.959,53.886 C87.972,53.886 87.986,53.886 88.000,53.886 C88.000,55.397 88.000,56.908 88.000,58.419 C88.000,63.048 88.000,67.678 88.000,72.307 C81.070,72.307 74.137,72.307 67.207,72.307 C67.207,65.439 67.207,58.569 67.207,51.702 ZM20.793,56.853 C20.793,62.004 20.793,67.156 20.793,72.307 C13.863,72.307 6.930,72.307 0.000,72.307 C0.000,68.969 0.000,65.630 0.000,62.293 C0.000,61.208 0.000,60.122 0.000,59.037 C0.014,59.037 0.028,59.037 0.041,59.037 C0.069,58.872 0.096,58.707 0.124,58.542 C0.138,58.542 0.151,58.542 0.165,58.542 C0.165,58.515 0.165,58.488 0.165,58.460 C0.179,58.460 0.193,58.460 0.206,58.460 C0.206,58.419 0.206,58.378 0.206,58.336 C0.220,58.336 0.234,58.336 0.248,58.336 C0.248,58.309 0.248,58.281 0.248,58.254 C0.261,58.254 0.275,58.254 0.289,58.254 C0.289,58.227 0.289,58.199 0.289,58.172 C0.316,58.158 0.344,58.144 0.371,58.130 C0.385,58.075 0.399,58.020 0.413,57.966 C0.454,57.938 0.495,57.911 0.536,57.883 C0.536,57.856 0.536,57.828 0.536,57.801 C0.605,57.746 0.674,57.691 0.743,57.636 C0.811,57.553 0.880,57.471 0.949,57.389 C0.976,57.389 1.004,57.389 1.031,57.389 C1.059,57.347 1.086,57.306 1.114,57.265 C1.141,57.265 1.169,57.265 1.196,57.265 C1.210,57.237 1.224,57.210 1.238,57.183 C1.265,57.183 1.293,57.183 1.320,57.183 C1.320,57.169 1.320,57.155 1.320,57.141 C1.375,57.128 1.430,57.114 1.485,57.100 C1.485,57.086 1.485,57.073 1.485,57.059 C1.554,57.045 1.623,57.031 1.692,57.018 C1.692,57.004 1.692,56.990 1.692,56.976 C1.733,56.976 1.774,56.976 1.815,56.976 C1.815,56.963 1.815,56.949 1.815,56.935 C1.870,56.935 1.925,56.935 1.980,56.935 C1.980,56.922 1.980,56.908 1.980,56.894 C2.049,56.894 2.118,56.894 2.187,56.894 C2.187,56.880 2.187,56.867 2.187,56.853 C3.479,56.853 4.772,56.853 6.065,56.853 C10.974,56.853 15.884,56.853 20.793,56.853 ZM0.000,77.458 C29.330,77.458 58.670,77.458 88.000,77.458 C88.000,79.436 88.000,81.415 88.000,83.393 C88.000,84.176 88.000,84.959 88.000,85.742 C87.986,85.742 87.972,85.742 87.959,85.742 C87.931,85.906 87.904,86.071 87.876,86.236 C87.862,86.236 87.849,86.236 87.835,86.236 C87.835,86.264 87.835,86.291 87.835,86.319 C87.821,86.319 87.807,86.319 87.794,86.319 C87.794,86.360 87.794,86.401 87.794,86.442 C87.780,86.442 87.766,86.442 87.752,86.442 C87.752,86.470 87.752,86.497 87.752,86.525 C87.739,86.525 87.725,86.525 87.711,86.525 C87.711,86.552 87.711,86.580 87.711,86.607 C87.684,86.621 87.656,86.635 87.629,86.648 C87.615,86.703 87.601,86.758 87.587,86.813 C87.546,86.841 87.505,86.868 87.464,86.896 C87.464,86.923 87.464,86.950 87.464,86.978 C87.381,87.047 87.299,87.115 87.216,87.184 C87.161,87.253 87.106,87.321 87.051,87.390 C87.024,87.390 86.996,87.390 86.969,87.390 C86.941,87.431 86.914,87.472 86.886,87.514 C86.831,87.527 86.776,87.541 86.721,87.555 C86.707,87.582 86.694,87.610 86.680,87.637 C86.652,87.637 86.625,87.637 86.597,87.637 C86.597,87.651 86.597,87.665 86.597,87.679 C86.570,87.679 86.542,87.679 86.515,87.679 C86.515,87.692 86.515,87.706 86.515,87.720 C86.474,87.720 86.432,87.720 86.391,87.720 C86.391,87.733 86.391,87.747 86.391,87.761 C86.363,87.761 86.336,87.761 86.308,87.761 C86.308,87.775 86.308,87.788 86.308,87.802 C85.874,87.987 85.025,87.926 84.411,87.926 C83.352,87.926 82.293,87.926 81.234,87.926 C76.600,87.926 71.965,87.926 67.331,87.926 C51.325,87.926 35.314,87.926 19.308,87.926 C15.032,87.926 10.754,87.926 6.477,87.926 C5.418,87.926 4.359,87.926 3.301,87.926 C2.744,87.926 2.088,87.972 1.692,87.802 C1.692,87.788 1.692,87.775 1.692,87.761 C1.664,87.761 1.637,87.761 1.609,87.761 C1.609,87.747 1.609,87.733 1.609,87.720 C1.568,87.720 1.526,87.720 1.485,87.720 C1.485,87.706 1.485,87.692 1.485,87.679 C1.458,87.679 1.430,87.679 1.403,87.679 C1.403,87.665 1.403,87.651 1.403,87.637 C1.375,87.637 1.348,87.637 1.320,87.637 C1.306,87.610 1.293,87.582 1.279,87.555 C1.224,87.541 1.169,87.527 1.114,87.514 C1.086,87.472 1.059,87.431 1.031,87.390 C1.004,87.390 0.976,87.390 0.949,87.390 C0.908,87.335 0.866,87.280 0.825,87.225 C0.729,87.143 0.633,87.060 0.536,86.978 C0.536,86.950 0.536,86.923 0.536,86.896 C0.495,86.868 0.454,86.841 0.413,86.813 C0.399,86.758 0.385,86.703 0.371,86.648 C0.344,86.635 0.316,86.621 0.289,86.607 C0.289,86.580 0.289,86.552 0.289,86.525 C0.275,86.525 0.261,86.525 0.248,86.525 C0.248,86.497 0.248,86.470 0.248,86.442 C0.234,86.442 0.220,86.442 0.206,86.442 C0.206,86.401 0.206,86.360 0.206,86.319 C0.193,86.319 0.179,86.319 0.165,86.319 C0.165,86.291 0.165,86.264 0.165,86.236 C0.151,86.236 0.138,86.236 0.124,86.236 C0.124,86.195 0.124,86.154 0.124,86.113 C0.110,86.113 0.096,86.113 0.083,86.113 C0.083,86.058 0.083,86.003 0.083,85.948 C0.069,85.948 0.055,85.948 0.041,85.948 C0.028,85.645 0.014,85.343 0.000,85.041 C0.000,84.478 0.000,83.915 0.000,83.351 C0.000,81.387 0.000,79.422 0.000,77.458 Z"/>
</svg>
