<svg
        xmlns="http://www.w3.org/2000/svg"
        xmlns:xlink="http://www.w3.org/1999/xlink"
        width="125px" height="78px">
    <path fill-rule="evenodd"  fill="rgb(47, 47, 47)"
          d="M117.906,31.444 C118.395,31.606 118.885,31.769 119.374,31.931 C119.455,32.094 119.537,32.256 119.618,32.419 C119.781,32.419 119.945,32.419 120.108,32.419 C120.108,32.500 120.108,32.581 120.108,32.662 C120.271,32.662 120.434,32.662 120.597,32.662 C120.597,32.744 120.597,32.825 120.597,32.906 C120.760,32.906 120.923,32.906 121.086,32.906 C121.086,32.987 121.086,33.069 121.086,33.150 C121.249,33.150 121.412,33.150 121.575,33.150 C121.657,33.312 121.738,33.475 121.820,33.638 C122.146,33.719 122.472,33.800 122.798,33.881 C123.551,34.288 124.020,34.867 125.000,35.100 C124.721,35.378 124.999,35.197 124.511,35.344 C124.080,35.829 123.979,35.546 123.532,35.831 C123.451,35.994 123.369,36.156 123.288,36.319 C122.962,36.400 122.635,36.481 122.309,36.562 C122.309,36.644 122.309,36.725 122.309,36.806 C122.146,36.806 121.983,36.806 121.820,36.806 C121.820,36.887 121.820,36.969 121.820,37.050 C121.657,37.050 121.494,37.050 121.331,37.050 C121.331,37.131 121.331,37.213 121.331,37.294 C121.168,37.294 121.005,37.294 120.841,37.294 C120.841,37.375 120.841,37.456 120.841,37.537 C120.678,37.537 120.515,37.537 120.352,37.537 C120.271,37.700 120.189,37.863 120.108,38.025 C119.728,38.263 118.068,38.709 117.906,39.000 C117.906,48.749 117.906,58.501 117.906,68.250 C119.455,68.250 121.005,68.250 122.554,68.250 C122.554,71.500 122.554,74.750 122.554,78.000 C122.309,77.919 122.065,77.837 121.820,77.756 C121.820,77.675 121.820,77.594 121.820,77.512 C121.657,77.512 121.494,77.512 121.331,77.512 C121.331,77.431 121.331,77.350 121.331,77.269 C121.168,77.269 121.005,77.269 120.841,77.269 C120.760,77.106 120.678,76.944 120.597,76.781 C120.434,76.781 120.271,76.781 120.108,76.781 C120.026,76.619 119.945,76.456 119.863,76.294 C119.700,76.294 119.537,76.294 119.374,76.294 C119.374,76.213 119.374,76.131 119.374,76.050 C119.211,76.050 119.048,76.050 118.885,76.050 C118.803,75.888 118.721,75.725 118.640,75.563 C118.314,75.481 117.988,75.400 117.661,75.319 C117.580,75.156 117.498,74.994 117.417,74.831 C117.254,74.831 117.091,74.831 116.928,74.831 C116.928,74.750 116.928,74.669 116.928,74.588 C116.593,74.362 116.496,74.421 115.949,74.344 C115.428,75.137 114.532,75.263 113.748,75.806 C113.584,76.050 113.421,76.294 113.258,76.537 C113.095,76.537 112.932,76.537 112.769,76.537 C112.688,76.700 112.606,76.863 112.524,77.025 C112.361,77.025 112.198,77.025 112.035,77.025 C111.954,77.187 111.872,77.350 111.791,77.512 C111.628,77.512 111.464,77.512 111.301,77.512 C111.301,77.594 111.301,77.675 111.301,77.756 C111.057,77.837 110.812,77.919 110.568,78.000 C110.568,74.750 110.568,71.500 110.568,68.250 C112.035,68.250 113.503,68.250 114.971,68.250 C114.971,59.070 114.971,49.887 114.971,40.706 C114.099,40.877 113.487,41.278 112.769,41.681 C112.769,41.762 112.769,41.844 112.769,41.925 C112.606,41.925 112.443,41.925 112.280,41.925 C112.280,42.006 112.280,42.088 112.280,42.169 C112.117,42.169 111.954,42.169 111.791,42.169 C111.791,42.250 111.791,42.331 111.791,42.413 C111.628,42.413 111.464,42.413 111.301,42.413 C111.301,42.494 111.301,42.575 111.301,42.656 C111.138,42.656 110.975,42.656 110.812,42.656 C110.812,42.737 110.812,42.819 110.812,42.900 C110.649,42.900 110.486,42.900 110.323,42.900 C110.241,43.062 110.160,43.225 110.078,43.388 C109.752,43.469 109.426,43.550 109.100,43.631 C109.100,43.712 109.100,43.794 109.100,43.875 C108.937,43.875 108.774,43.875 108.611,43.875 C108.611,43.956 108.611,44.038 108.611,44.119 C108.448,44.119 108.284,44.119 108.121,44.119 C108.121,44.200 108.121,44.281 108.121,44.362 C107.958,44.362 107.795,44.362 107.632,44.362 C107.632,44.444 107.632,44.525 107.632,44.606 C107.469,44.606 107.306,44.606 107.143,44.606 C107.061,44.769 106.980,44.931 106.898,45.094 C106.735,45.094 106.572,45.094 106.409,45.094 C106.409,45.175 106.409,45.256 106.409,45.338 C106.246,45.338 106.083,45.338 105.920,45.338 C105.920,45.419 105.920,45.500 105.920,45.581 C105.757,45.581 105.594,45.581 105.431,45.581 C105.431,45.662 105.431,45.744 105.431,45.825 C105.267,45.825 105.104,45.825 104.941,45.825 C103.954,46.353 103.405,47.108 102.006,47.287 C102.006,45.338 102.006,43.387 102.006,41.438 C100.547,41.169 99.292,40.032 98.092,39.488 C97.847,39.488 97.603,39.488 97.358,39.488 C97.358,39.406 97.358,39.325 97.358,39.244 C97.032,39.163 96.706,39.081 96.380,39.000 C96.380,38.919 96.380,38.837 96.380,38.756 C96.135,38.756 95.890,38.756 95.646,38.756 C95.646,38.675 95.646,38.594 95.646,38.512 C95.320,38.431 94.993,38.350 94.667,38.269 C94.667,38.188 94.667,38.106 94.667,38.025 C94.178,37.944 93.689,37.862 93.200,37.781 C93.200,37.700 93.200,37.619 93.200,37.537 C93.037,37.537 92.873,37.537 92.710,37.537 C92.710,37.456 92.710,37.375 92.710,37.294 C92.303,37.213 91.895,37.131 91.487,37.050 C91.487,36.969 91.487,36.887 91.487,36.806 C91.243,36.806 90.998,36.806 90.753,36.806 C90.753,36.725 90.753,36.644 90.753,36.562 C90.509,36.562 90.264,36.562 90.020,36.562 C90.020,36.481 90.020,36.400 90.020,36.319 C89.775,36.319 89.530,36.319 89.286,36.319 C89.286,36.238 89.286,36.156 89.286,36.075 C89.041,36.075 88.796,36.075 88.552,36.075 C88.552,35.994 88.552,35.912 88.552,35.831 C88.307,35.831 88.063,35.831 87.818,35.831 C87.818,35.750 87.818,35.669 87.818,35.587 C87.655,35.587 87.492,35.587 87.329,35.587 C87.329,35.506 87.329,35.425 87.329,35.344 C87.003,35.344 86.676,35.344 86.350,35.344 C86.350,35.263 86.350,35.181 86.350,35.100 C86.106,35.100 85.861,35.100 85.616,35.100 C85.616,35.019 85.616,34.937 85.616,34.856 C85.372,34.856 85.127,34.856 84.883,34.856 C84.883,34.775 84.883,34.694 84.883,34.612 C84.638,34.612 84.393,34.612 84.149,34.612 C84.149,34.531 84.149,34.450 84.149,34.369 C83.578,34.288 83.007,34.206 82.436,34.125 C82.436,34.044 82.436,33.962 82.436,33.881 C81.784,33.800 81.132,33.719 80.479,33.638 C80.479,33.556 80.479,33.475 80.479,33.394 C80.153,33.394 79.827,33.394 79.501,33.394 C79.501,33.313 79.501,33.231 79.501,33.150 C79.175,33.150 78.849,33.150 78.523,33.150 C78.523,33.069 78.523,32.987 78.523,32.906 C77.789,32.825 77.055,32.744 76.321,32.662 C76.321,32.581 76.321,32.500 76.321,32.419 C75.913,32.419 75.506,32.419 75.098,32.419 C75.098,32.338 75.098,32.256 75.098,32.175 C73.549,32.013 71.999,31.850 70.450,31.687 C70.450,31.606 70.450,31.525 70.450,31.444 C69.798,31.444 69.145,31.444 68.493,31.444 C68.493,31.363 68.493,31.281 68.493,31.200 C67.352,31.200 66.210,31.200 65.068,31.200 C64.165,30.949 60.442,30.596 59.198,30.956 C59.198,31.037 59.198,31.119 59.198,31.200 C58.138,31.200 57.078,31.200 56.018,31.200 C56.018,31.281 56.018,31.363 56.018,31.444 C55.365,31.444 54.713,31.444 54.061,31.444 C54.061,31.525 54.061,31.606 54.061,31.687 C53.490,31.687 52.919,31.687 52.348,31.687 C51.197,32.032 49.549,32.310 48.434,32.662 C48.027,32.662 47.619,32.662 47.211,32.662 C47.211,32.744 47.211,32.825 47.211,32.906 C46.233,33.069 45.254,33.231 44.276,33.394 C44.276,33.475 44.276,33.556 44.276,33.638 C43.950,33.638 43.624,33.638 43.297,33.638 C43.297,33.719 43.297,33.800 43.297,33.881 C42.727,33.962 42.156,34.044 41.585,34.125 C41.585,34.206 41.585,34.288 41.585,34.369 C41.341,34.369 41.096,34.369 40.851,34.369 C40.851,34.450 40.851,34.531 40.851,34.612 C40.607,34.612 40.362,34.612 40.117,34.612 C40.117,34.694 40.117,34.775 40.117,34.856 C39.873,34.856 39.628,34.856 39.384,34.856 C39.384,34.937 39.384,35.019 39.384,35.100 C39.057,35.100 38.731,35.100 38.405,35.100 C38.405,35.181 38.405,35.263 38.405,35.344 C38.160,35.344 37.916,35.344 37.671,35.344 C37.671,35.425 37.671,35.506 37.671,35.587 C37.508,35.587 37.345,35.587 37.182,35.587 C37.182,35.669 37.182,35.750 37.182,35.831 C36.448,35.994 35.714,36.156 34.980,36.319 C34.980,36.400 34.980,36.481 34.980,36.562 C34.817,36.562 34.654,36.562 34.491,36.562 C34.491,36.644 34.491,36.725 34.491,36.806 C34.002,36.887 33.513,36.969 33.023,37.050 C33.023,37.131 33.023,37.213 33.023,37.294 C32.860,37.294 32.697,37.294 32.534,37.294 C32.534,37.375 32.534,37.456 32.534,37.537 C32.290,37.537 32.045,37.537 31.800,37.537 C31.800,37.619 31.800,37.700 31.800,37.781 C31.474,37.862 31.148,37.944 30.822,38.025 C30.822,38.106 30.822,38.188 30.822,38.269 C30.577,38.269 30.333,38.269 30.088,38.269 C30.088,38.350 30.088,38.431 30.088,38.512 C29.762,38.594 29.436,38.675 29.110,38.756 C29.110,38.837 29.110,38.919 29.110,39.000 C28.865,39.000 28.620,39.000 28.376,39.000 C28.376,39.081 28.376,39.163 28.376,39.244 C27.887,39.406 27.397,39.569 26.908,39.731 C26.908,39.812 26.908,39.894 26.908,39.975 C26.745,39.975 26.582,39.975 26.419,39.975 C26.419,40.056 26.419,40.138 26.419,40.219 C26.256,40.219 26.093,40.219 25.930,40.219 C25.930,40.300 25.930,40.381 25.930,40.463 C25.766,40.463 25.603,40.463 25.440,40.463 C24.655,40.880 24.027,41.447 22.994,41.681 C22.994,42.819 22.994,43.956 22.994,45.094 C22.057,45.016 21.874,44.628 21.282,44.362 C21.037,44.362 20.793,44.362 20.548,44.362 C20.548,44.281 20.548,44.200 20.548,44.119 C20.385,44.119 20.222,44.119 20.059,44.119 C20.059,44.038 20.059,43.956 20.059,43.875 C19.570,43.713 19.080,43.550 18.591,43.388 C18.591,43.306 18.591,43.225 18.591,43.144 C18.346,43.144 18.102,43.144 17.857,43.144 C17.857,43.063 17.857,42.981 17.857,42.900 C17.694,42.900 17.531,42.900 17.368,42.900 C17.368,42.819 17.368,42.737 17.368,42.656 C16.879,42.494 16.389,42.331 15.900,42.169 C15.900,42.088 15.900,42.006 15.900,41.925 C15.656,41.925 15.411,41.925 15.166,41.925 C15.166,41.844 15.166,41.762 15.166,41.681 C15.003,41.681 14.840,41.681 14.677,41.681 C14.677,41.600 14.677,41.519 14.677,41.438 C14.188,41.275 13.699,41.112 13.209,40.950 C13.209,40.869 13.209,40.787 13.209,40.706 C12.965,40.706 12.720,40.706 12.476,40.706 C12.476,40.625 12.476,40.544 12.476,40.463 C12.312,40.463 12.149,40.463 11.986,40.463 C11.986,40.381 11.986,40.300 11.986,40.219 C11.497,40.056 11.008,39.894 10.519,39.731 C10.519,39.650 10.519,39.569 10.519,39.488 C10.274,39.488 10.029,39.488 9.785,39.488 C9.785,39.406 9.785,39.325 9.785,39.244 C9.622,39.244 9.459,39.244 9.295,39.244 C9.295,39.163 9.295,39.081 9.295,39.000 C8.806,38.838 8.317,38.675 7.828,38.512 C7.828,38.431 7.828,38.350 7.828,38.269 C7.583,38.269 7.339,38.269 7.094,38.269 C7.094,38.188 7.094,38.106 7.094,38.025 C6.931,38.025 6.768,38.025 6.605,38.025 C6.605,37.944 6.605,37.862 6.605,37.781 C6.116,37.619 5.626,37.456 5.137,37.294 C5.137,37.213 5.137,37.131 5.137,37.050 C4.892,37.050 4.648,37.050 4.403,37.050 C4.403,36.969 4.403,36.887 4.403,36.806 C4.077,36.725 3.751,36.644 3.425,36.562 C3.425,36.481 3.425,36.400 3.425,36.319 C3.262,36.319 3.098,36.319 2.935,36.319 C2.935,36.238 2.935,36.156 2.935,36.075 C2.772,36.075 2.609,36.075 2.446,36.075 C2.446,35.994 2.446,35.912 2.446,35.831 C2.202,35.831 1.957,35.831 1.712,35.831 C1.712,35.750 1.712,35.669 1.712,35.587 C1.086,35.280 0.573,35.124 0.000,34.856 C0.000,34.775 0.000,34.694 0.000,34.612 C0.245,34.531 0.489,34.450 0.734,34.369 C0.734,34.288 0.734,34.206 0.734,34.125 C0.897,34.125 1.060,34.125 1.223,34.125 C1.305,33.963 1.386,33.800 1.468,33.638 C1.957,33.475 2.446,33.312 2.935,33.150 C3.017,32.988 3.099,32.825 3.180,32.662 C3.669,32.500 4.159,32.337 4.648,32.175 C4.729,32.013 4.811,31.850 4.892,31.687 C5.382,31.525 5.871,31.362 6.360,31.200 C6.442,31.038 6.523,30.875 6.605,30.713 C6.768,30.713 6.931,30.713 7.094,30.713 C7.094,30.631 7.094,30.550 7.094,30.469 C7.257,30.469 7.420,30.469 7.583,30.469 C7.583,30.388 7.583,30.306 7.583,30.225 C7.746,30.225 7.909,30.225 8.072,30.225 C8.154,30.063 8.235,29.900 8.317,29.738 C8.806,29.575 9.296,29.412 9.785,29.250 C9.866,29.088 9.948,28.925 10.029,28.762 C10.519,28.600 11.008,28.437 11.497,28.275 C11.579,28.113 11.660,27.950 11.742,27.788 C12.068,27.706 12.394,27.625 12.720,27.544 C12.802,27.381 12.883,27.219 12.965,27.056 C13.454,26.894 13.943,26.731 14.432,26.569 C14.514,26.406 14.596,26.244 14.677,26.081 C15.166,25.919 15.656,25.756 16.145,25.594 C16.226,25.431 16.308,25.269 16.389,25.106 C16.879,24.944 17.368,24.781 17.857,24.619 C17.939,24.456 18.020,24.294 18.102,24.131 C18.428,24.050 18.754,23.969 19.080,23.887 C19.080,23.806 19.080,23.725 19.080,23.644 C19.243,23.644 19.406,23.644 19.569,23.644 C19.651,23.481 19.733,23.319 19.814,23.156 C20.303,22.994 20.793,22.831 21.282,22.669 C21.363,22.506 21.445,22.344 21.526,22.181 C22.016,22.019 22.505,21.856 22.994,21.694 C23.076,21.531 23.157,21.369 23.239,21.206 C23.402,21.206 23.565,21.206 23.728,21.206 C23.728,21.125 23.728,21.044 23.728,20.962 C23.891,20.962 24.054,20.962 24.217,20.962 C24.217,20.881 24.217,20.800 24.217,20.719 C24.380,20.719 24.543,20.719 24.706,20.719 C24.788,20.556 24.870,20.394 24.951,20.231 C25.440,20.069 25.930,19.906 26.419,19.744 C26.500,19.581 26.582,19.419 26.663,19.256 C26.826,19.256 26.990,19.256 27.153,19.256 C27.153,19.175 27.153,19.094 27.153,19.013 C27.316,19.013 27.479,19.013 27.642,19.013 C27.642,18.931 27.642,18.850 27.642,18.769 C27.805,18.769 27.968,18.769 28.131,18.769 C28.213,18.606 28.294,18.444 28.376,18.281 C28.865,18.119 29.354,17.956 29.843,17.794 C29.925,17.631 30.007,17.469 30.088,17.306 C30.577,17.144 31.067,16.981 31.556,16.819 C31.637,16.656 31.719,16.494 31.800,16.331 C32.290,16.169 32.779,16.006 33.268,15.844 C33.350,15.681 33.431,15.519 33.513,15.356 C34.002,15.194 34.491,15.031 34.980,14.869 C35.062,14.706 35.144,14.544 35.225,14.381 C35.714,14.219 36.204,14.056 36.693,13.894 C36.774,13.731 36.856,13.569 36.937,13.406 C37.427,13.244 37.916,13.081 38.405,12.919 C38.487,12.756 38.568,12.594 38.650,12.431 C38.976,12.350 39.302,12.269 39.628,12.188 C39.628,12.106 39.628,12.025 39.628,11.944 C39.791,11.944 39.954,11.944 40.117,11.944 C40.199,11.781 40.281,11.619 40.362,11.456 C40.851,11.294 41.341,11.131 41.830,10.969 C41.911,10.806 41.993,10.644 42.074,10.481 C42.564,10.319 43.053,10.156 43.542,9.994 C43.624,9.831 43.705,9.669 43.787,9.506 C44.276,9.344 44.765,9.181 45.254,9.019 C45.336,8.856 45.417,8.694 45.499,8.531 C45.988,8.369 46.478,8.206 46.967,8.044 C47.048,7.881 47.130,7.719 47.211,7.556 C47.701,7.394 48.190,7.231 48.679,7.069 C48.761,6.906 48.842,6.744 48.924,6.581 C49.413,6.419 49.902,6.256 50.391,6.094 C50.473,5.931 50.554,5.769 50.636,5.606 C51.125,5.444 51.615,5.281 52.104,5.119 C52.185,4.956 52.267,4.794 52.348,4.631 C52.838,4.469 53.327,4.306 53.816,4.144 C53.898,3.981 53.979,3.819 54.061,3.656 C54.224,3.656 54.387,3.656 54.550,3.656 C54.550,3.575 54.550,3.494 54.550,3.412 C54.713,3.412 54.876,3.412 55.039,3.412 C55.121,3.250 55.202,3.087 55.284,2.925 C55.447,2.925 55.610,2.925 55.773,2.925 C55.773,2.844 55.773,2.762 55.773,2.681 C55.936,2.681 56.099,2.681 56.262,2.681 C56.262,2.600 56.262,2.519 56.262,2.437 C56.425,2.437 56.588,2.437 56.751,2.437 C56.833,2.275 56.915,2.112 56.996,1.950 C57.485,1.788 57.975,1.625 58.464,1.463 C58.545,1.300 58.627,1.137 58.708,0.975 C58.871,0.975 59.035,0.975 59.198,0.975 C59.198,0.894 59.198,0.812 59.198,0.731 C59.361,0.731 59.524,0.731 59.687,0.731 C60.510,0.281 60.029,0.105 61.399,-0.000 C73.221,6.581 85.047,13.163 96.869,19.744 C97.032,19.744 97.195,19.744 97.358,19.744 C97.440,19.906 97.521,20.069 97.603,20.231 C97.766,20.231 97.929,20.231 98.092,20.231 C98.092,20.312 98.092,20.394 98.092,20.475 C98.255,20.475 98.418,20.475 98.581,20.475 C98.581,20.556 98.581,20.638 98.581,20.719 C98.744,20.719 98.907,20.719 99.070,20.719 C99.070,20.800 99.070,20.881 99.070,20.962 C99.234,20.962 99.397,20.962 99.560,20.962 C99.641,21.125 99.723,21.288 99.804,21.450 C99.967,21.450 100.130,21.450 100.294,21.450 C100.294,21.531 100.294,21.613 100.294,21.694 C100.783,21.856 101.272,22.019 101.761,22.181 C101.843,22.344 101.924,22.506 102.006,22.669 C102.169,22.669 102.332,22.669 102.495,22.669 C102.495,22.750 102.495,22.831 102.495,22.912 C102.658,22.912 102.821,22.912 102.984,22.912 C102.984,22.994 102.984,23.075 102.984,23.156 C103.147,23.156 103.311,23.156 103.474,23.156 C103.474,23.237 103.474,23.319 103.474,23.400 C103.637,23.400 103.800,23.400 103.963,23.400 C104.044,23.562 104.126,23.725 104.207,23.887 C104.370,23.887 104.534,23.887 104.697,23.887 C104.697,23.969 104.697,24.050 104.697,24.131 C105.186,24.294 105.675,24.456 106.164,24.619 C106.246,24.781 106.327,24.944 106.409,25.106 C106.735,25.187 107.061,25.269 107.387,25.350 C107.387,25.431 107.387,25.513 107.387,25.594 C107.469,25.594 107.551,25.594 107.632,25.594 C107.632,25.513 107.632,25.431 107.632,25.350 C108.284,24.944 108.937,24.537 109.589,24.131 C109.834,24.131 110.078,24.131 110.323,24.131 C110.323,24.050 110.323,23.969 110.323,23.887 C110.486,23.887 110.649,23.887 110.812,23.887 C110.812,23.806 110.812,23.725 110.812,23.644 C111.464,23.563 112.117,23.481 112.769,23.400 C113.168,23.275 114.449,22.916 115.215,23.156 C115.215,23.237 115.215,23.319 115.215,23.400 C115.623,23.481 116.031,23.563 116.438,23.644 C116.846,24.131 117.254,24.619 117.661,25.106 C118.447,26.836 117.916,29.185 117.906,31.444 ZM111.301,27.300 C111.301,27.462 111.301,27.625 111.301,27.788 C112.784,28.083 113.477,29.150 114.971,29.494 C115.000,28.178 114.830,27.401 114.481,26.569 C114.108,26.428 114.080,26.383 113.503,26.325 C113.215,26.616 111.816,27.192 111.301,27.300 ZM111.301,37.781 C111.546,37.862 111.791,37.944 112.035,38.025 C112.035,38.106 112.035,38.188 112.035,38.269 C112.198,38.269 112.361,38.269 112.524,38.269 C112.524,38.350 112.524,38.431 112.524,38.512 C113.388,38.828 114.640,38.376 115.215,38.269 C115.623,37.781 116.031,37.294 116.438,36.806 C116.506,35.820 116.812,35.012 116.194,34.369 C115.865,33.005 114.536,32.619 112.769,32.662 C111.575,33.990 110.568,33.466 110.568,36.319 C110.649,36.319 110.731,36.319 110.812,36.319 C110.812,36.562 110.812,36.806 110.812,37.050 C110.894,37.050 110.975,37.050 111.057,37.050 C111.138,37.294 111.220,37.538 111.301,37.781 ZM98.092,63.131 C97.555,63.041 96.674,62.879 96.135,62.644 C96.135,62.563 96.135,62.481 96.135,62.400 C95.972,62.400 95.809,62.400 95.646,62.400 C95.646,62.319 95.646,62.237 95.646,62.156 C95.157,62.075 94.667,61.994 94.178,61.912 C94.178,61.831 94.178,61.750 94.178,61.669 C93.933,61.669 93.689,61.669 93.444,61.669 C93.444,61.588 93.444,61.506 93.444,61.425 C93.200,61.425 92.955,61.425 92.710,61.425 C92.710,61.344 92.710,61.262 92.710,61.181 C92.466,61.181 92.221,61.181 91.977,61.181 C91.977,61.100 91.977,61.019 91.977,60.938 C91.813,60.938 91.650,60.938 91.487,60.938 C91.487,60.856 91.487,60.775 91.487,60.694 C88.063,59.719 84.638,58.744 81.213,57.769 C80.806,57.769 80.398,57.769 79.990,57.769 C79.990,57.688 79.990,57.606 79.990,57.525 C79.664,57.525 79.338,57.525 79.012,57.525 C79.012,57.444 79.012,57.362 79.012,57.281 C78.604,57.281 78.196,57.281 77.789,57.281 C77.789,57.200 77.789,57.119 77.789,57.038 C77.381,57.038 76.973,57.038 76.566,57.038 C76.566,56.956 76.566,56.875 76.566,56.794 C76.158,56.794 75.750,56.794 75.342,56.794 C75.342,56.713 75.342,56.631 75.342,56.550 C74.364,56.469 73.385,56.387 72.407,56.306 C72.407,56.225 72.407,56.144 72.407,56.063 C71.755,56.063 71.102,56.063 70.450,56.063 C70.450,55.981 70.450,55.900 70.450,55.819 C69.798,55.819 69.145,55.819 68.493,55.819 C68.493,55.738 68.493,55.656 68.493,55.575 C67.270,55.575 66.047,55.575 64.824,55.575 C64.824,55.494 64.824,55.412 64.824,55.331 C63.746,55.023 60.904,55.367 60.176,55.575 C58.953,55.575 57.730,55.575 56.507,55.575 C56.507,55.656 56.507,55.738 56.507,55.819 C55.855,55.819 55.202,55.819 54.550,55.819 C54.550,55.900 54.550,55.981 54.550,56.063 C53.408,56.144 52.267,56.225 51.125,56.306 C47.701,57.037 44.276,57.769 40.851,58.500 C36.204,60.044 31.555,61.588 26.908,63.131 C26.908,56.632 26.908,50.131 26.908,43.631 C28.015,43.170 29.081,42.450 30.088,41.925 C30.251,41.925 30.414,41.925 30.577,41.925 C30.577,41.844 30.577,41.762 30.577,41.681 C30.822,41.681 31.067,41.681 31.311,41.681 C31.311,41.600 31.311,41.519 31.311,41.438 C31.474,41.438 31.637,41.438 31.800,41.438 C31.800,41.356 31.800,41.275 31.800,41.194 C32.290,41.031 32.779,40.869 33.268,40.706 C33.268,40.625 33.268,40.544 33.268,40.463 C33.513,40.463 33.757,40.463 34.002,40.463 C34.002,40.381 34.002,40.300 34.002,40.219 C34.165,40.219 34.328,40.219 34.491,40.219 C34.491,40.138 34.491,40.056 34.491,39.975 C34.899,39.894 35.307,39.812 35.714,39.731 C35.714,39.650 35.714,39.569 35.714,39.488 C35.959,39.488 36.204,39.488 36.448,39.488 C36.448,39.406 36.448,39.325 36.448,39.244 C36.611,39.244 36.774,39.244 36.937,39.244 C36.937,39.163 36.937,39.081 36.937,39.000 C37.427,38.919 37.916,38.837 38.405,38.756 C38.405,38.675 38.405,38.594 38.405,38.512 C38.568,38.512 38.731,38.512 38.894,38.512 C38.894,38.431 38.894,38.350 38.894,38.269 C39.628,38.106 40.362,37.944 41.096,37.781 C41.096,37.700 41.096,37.619 41.096,37.537 C41.340,37.537 41.585,37.537 41.830,37.537 C41.830,37.456 41.830,37.375 41.830,37.294 C42.074,37.294 42.319,37.294 42.564,37.294 C42.564,37.213 42.564,37.131 42.564,37.050 C43.134,36.969 43.705,36.887 44.276,36.806 C44.276,36.725 44.276,36.644 44.276,36.562 C44.847,36.481 45.418,36.400 45.988,36.319 C45.988,36.238 45.988,36.156 45.988,36.075 C46.641,35.994 47.293,35.912 47.945,35.831 C47.945,35.750 47.945,35.669 47.945,35.587 C48.679,35.506 49.413,35.425 50.147,35.344 C50.147,35.263 50.147,35.181 50.147,35.100 C50.554,35.100 50.962,35.100 51.370,35.100 C51.370,35.019 51.370,34.937 51.370,34.856 C51.859,34.856 52.348,34.856 52.838,34.856 C52.838,34.775 52.838,34.694 52.838,34.612 C53.327,34.612 53.816,34.612 54.305,34.612 C54.305,34.531 54.305,34.450 54.305,34.369 C54.958,34.369 55.610,34.369 56.262,34.369 C56.262,34.288 56.262,34.206 56.262,34.125 C57.241,34.125 58.219,34.125 59.198,34.125 C59.198,34.044 59.198,33.962 59.198,33.881 C60.441,33.525 64.171,33.868 65.068,34.125 C66.781,34.206 68.493,34.288 70.205,34.369 C70.205,34.450 70.205,34.531 70.205,34.612 C70.695,34.612 71.184,34.612 71.673,34.612 C71.673,34.694 71.673,34.775 71.673,34.856 C72.162,34.856 72.652,34.856 73.141,34.856 C73.141,34.937 73.141,35.019 73.141,35.100 C73.630,35.100 74.119,35.100 74.609,35.100 C74.609,35.181 74.609,35.263 74.609,35.344 C75.669,35.506 76.729,35.669 77.789,35.831 C77.789,35.912 77.789,35.994 77.789,36.075 C78.441,36.156 79.093,36.238 79.746,36.319 C79.746,36.400 79.746,36.481 79.746,36.562 C80.316,36.644 80.887,36.725 81.458,36.806 C81.458,36.887 81.458,36.969 81.458,37.050 C82.029,37.131 82.600,37.213 83.170,37.294 C83.170,37.375 83.170,37.456 83.170,37.537 C83.415,37.537 83.660,37.537 83.904,37.537 C83.904,37.619 83.904,37.700 83.904,37.781 C84.149,37.781 84.393,37.781 84.638,37.781 C84.638,37.862 84.638,37.944 84.638,38.025 C84.883,38.025 85.127,38.025 85.372,38.025 C85.372,38.106 85.372,38.188 85.372,38.269 C85.861,38.350 86.350,38.431 86.840,38.512 C86.840,38.594 86.840,38.675 86.840,38.756 C87.003,38.756 87.166,38.756 87.329,38.756 C87.329,38.837 87.329,38.919 87.329,39.000 C87.818,39.081 88.307,39.163 88.796,39.244 C88.796,39.325 88.796,39.406 88.796,39.488 C88.960,39.488 89.123,39.488 89.286,39.488 C89.286,39.569 89.286,39.650 89.286,39.731 C89.775,39.812 90.264,39.894 90.753,39.975 C90.753,40.056 90.753,40.138 90.753,40.219 C90.916,40.219 91.080,40.219 91.243,40.219 C91.243,40.300 91.243,40.381 91.243,40.463 C91.487,40.463 91.732,40.463 91.977,40.463 C91.977,40.544 91.977,40.625 91.977,40.706 C92.303,40.787 92.629,40.869 92.955,40.950 C92.955,41.031 92.955,41.113 92.955,41.194 C93.200,41.194 93.444,41.194 93.689,41.194 C93.689,41.275 93.689,41.356 93.689,41.438 C94.015,41.519 94.341,41.600 94.667,41.681 C94.667,41.762 94.667,41.844 94.667,41.925 C94.830,41.925 94.993,41.925 95.157,41.925 C95.157,42.006 95.157,42.088 95.157,42.169 C95.401,42.169 95.646,42.169 95.890,42.169 C95.890,42.250 95.890,42.331 95.890,42.413 C96.282,42.605 97.955,43.142 98.092,43.388 C98.092,49.968 98.092,56.551 98.092,63.131 Z"/>
</svg>
