<svg
        xmlns="http://www.w3.org/2000/svg"
        xmlns:xlink="http://www.w3.org/1999/xlink"
        width="73px" height="92px">
    <path fill-rule="evenodd"  fill="rgb(127, 127, 127)"
          d="M53.752,-0.000 C54.144,-0.000 54.535,-0.000 54.926,-0.000 C54.926,0.077 54.926,0.155 54.926,0.232 C55.083,0.232 55.239,0.232 55.395,0.232 C55.395,0.310 55.395,0.387 55.395,0.465 C55.474,0.465 55.552,0.465 55.630,0.465 C55.630,0.542 55.630,0.620 55.630,0.697 C55.708,0.697 55.787,0.697 55.865,0.697 C55.865,0.852 55.865,1.007 55.865,1.162 C55.943,1.162 56.021,1.162 56.100,1.162 C56.100,1.704 56.100,2.246 56.100,2.788 C56.021,2.788 55.943,2.788 55.865,2.788 C55.865,3.020 55.865,3.253 55.865,3.485 C56.100,3.485 56.334,3.485 56.569,3.485 C56.569,3.407 56.569,3.330 56.569,3.253 C56.804,3.253 57.039,3.253 57.273,3.253 C57.273,3.175 57.273,3.098 57.273,3.020 C57.743,3.020 58.212,3.020 58.682,3.020 C58.682,3.098 58.682,3.175 58.682,3.253 C58.760,3.253 58.838,3.253 58.916,3.253 C58.916,3.330 58.916,3.407 58.916,3.485 C58.995,3.485 59.073,3.485 59.151,3.485 C59.151,3.562 59.151,3.640 59.151,3.717 C59.229,3.717 59.308,3.717 59.386,3.717 C59.386,3.872 59.386,4.027 59.386,4.182 C59.464,4.182 59.542,4.182 59.621,4.182 C59.621,4.724 59.621,5.266 59.621,5.808 C59.699,5.808 59.777,5.808 59.855,5.808 C59.855,6.582 59.855,7.357 59.855,8.131 C59.777,8.131 59.699,8.131 59.621,8.131 C59.621,8.828 59.621,9.525 59.621,10.222 C59.542,10.222 59.464,10.222 59.386,10.222 C59.386,10.687 59.386,11.152 59.386,11.616 C59.308,11.616 59.229,11.616 59.151,11.616 C59.151,12.003 59.151,12.391 59.151,12.778 C59.229,12.778 59.308,12.778 59.386,12.778 C59.386,13.088 59.386,13.397 59.386,13.707 C59.464,13.707 59.542,13.707 59.621,13.707 C59.621,14.094 59.621,14.482 59.621,14.869 C59.699,14.869 59.777,14.869 59.855,14.869 C59.855,15.488 59.855,16.108 59.855,16.727 C59.934,16.727 60.012,16.727 60.090,16.727 C60.090,17.269 60.090,17.812 60.090,18.354 C60.012,18.354 59.934,18.354 59.855,18.354 C59.855,18.276 59.855,18.199 59.855,18.121 C59.777,18.121 59.699,18.121 59.621,18.121 C59.621,18.044 59.621,17.966 59.621,17.889 C59.542,17.889 59.464,17.889 59.386,17.889 C59.386,17.811 59.386,17.734 59.386,17.657 C59.229,17.657 59.073,17.657 58.916,17.657 C58.916,17.579 58.916,17.502 58.916,17.424 C58.838,17.424 58.760,17.424 58.682,17.424 C58.682,17.347 58.682,17.269 58.682,17.192 C58.525,17.192 58.369,17.192 58.212,17.192 C58.212,17.114 58.212,17.037 58.212,16.960 C58.056,16.960 57.899,16.960 57.743,16.960 C57.743,16.882 57.743,16.805 57.743,16.727 C57.508,16.727 57.273,16.727 57.039,16.727 C57.039,16.650 57.039,16.572 57.039,16.495 C56.804,16.495 56.569,16.495 56.334,16.495 C56.334,16.418 56.334,16.340 56.334,16.263 C43.191,16.263 30.044,16.263 16.900,16.263 C16.900,16.340 16.900,16.418 16.900,16.495 C16.666,16.495 16.431,16.495 16.196,16.495 C16.196,16.572 16.196,16.650 16.196,16.727 C15.961,16.727 15.727,16.727 15.492,16.727 C15.492,16.805 15.492,16.882 15.492,16.960 C15.335,16.960 15.179,16.960 15.023,16.960 C15.023,17.037 15.023,17.114 15.023,17.192 C14.944,17.192 14.866,17.192 14.788,17.192 C14.788,17.269 14.788,17.347 14.788,17.424 C14.631,17.424 14.475,17.424 14.318,17.424 C14.318,17.502 14.318,17.579 14.318,17.657 C14.240,17.657 14.162,17.657 14.084,17.657 C14.084,17.734 14.084,17.811 14.084,17.889 C13.927,17.889 13.771,17.889 13.614,17.889 C13.614,17.966 13.614,18.044 13.614,18.121 C13.536,18.121 13.458,18.121 13.379,18.121 C13.379,18.199 13.379,18.276 13.379,18.354 C13.301,18.354 13.223,18.354 13.145,18.354 C13.145,18.121 13.145,17.889 13.145,17.657 C13.223,17.657 13.301,17.657 13.379,17.657 C13.379,16.882 13.379,16.108 13.379,15.333 C13.458,15.333 13.536,15.333 13.614,15.333 C13.614,14.869 13.614,14.404 13.614,13.939 C13.692,13.939 13.771,13.939 13.849,13.939 C13.849,13.630 13.849,13.320 13.849,13.010 C13.927,13.010 14.005,13.010 14.084,13.010 C14.084,12.778 14.084,12.545 14.084,12.313 C14.162,12.313 14.240,12.313 14.318,12.313 C14.318,12.081 14.318,11.848 14.318,11.616 C14.397,11.616 14.475,11.616 14.553,11.616 C14.553,11.384 14.553,11.151 14.553,10.919 C14.631,10.919 14.710,10.919 14.788,10.919 C14.788,10.764 14.788,10.609 14.788,10.455 C14.866,10.455 14.944,10.455 15.023,10.455 C15.023,10.300 15.023,10.145 15.023,9.990 C15.101,9.990 15.179,9.990 15.257,9.990 C15.257,9.835 15.257,9.680 15.257,9.525 C15.335,9.525 15.414,9.525 15.492,9.525 C15.492,9.370 15.492,9.215 15.492,9.061 C15.570,9.061 15.648,9.061 15.727,9.061 C15.727,8.983 15.727,8.906 15.727,8.828 C15.805,8.828 15.883,8.828 15.961,8.828 C15.961,8.673 15.961,8.519 15.961,8.364 C16.040,8.364 16.118,8.364 16.196,8.364 C16.196,8.286 16.196,8.209 16.196,8.131 C16.274,8.131 16.353,8.131 16.431,8.131 C16.431,8.054 16.431,7.976 16.431,7.899 C16.509,7.899 16.587,7.899 16.666,7.899 C16.666,7.822 16.666,7.744 16.666,7.667 C16.744,7.667 16.822,7.667 16.900,7.667 C16.900,7.589 16.900,7.512 16.900,7.434 C16.979,7.434 17.057,7.434 17.135,7.434 C17.135,7.357 17.135,7.279 17.135,7.202 C17.213,7.202 17.292,7.202 17.370,7.202 C17.370,7.125 17.370,7.047 17.370,6.970 C17.448,6.970 17.526,6.970 17.605,6.970 C17.605,6.892 17.605,6.815 17.605,6.737 C17.683,6.737 17.761,6.737 17.839,6.737 C17.839,6.660 17.839,6.582 17.839,6.505 C17.917,6.505 17.996,6.505 18.074,6.505 C18.074,6.428 18.074,6.350 18.074,6.273 C18.230,6.273 18.387,6.273 18.543,6.273 C18.543,6.195 18.543,6.118 18.543,6.040 C18.622,6.040 18.700,6.040 18.778,6.040 C18.778,5.963 18.778,5.886 18.778,5.808 C18.935,5.808 19.091,5.808 19.248,5.808 C19.248,5.731 19.248,5.653 19.248,5.576 C19.326,5.576 19.404,5.576 19.482,5.576 C19.482,5.498 19.482,5.421 19.482,5.343 C19.639,5.343 19.795,5.343 19.952,5.343 C19.952,5.266 19.952,5.189 19.952,5.111 C20.108,5.111 20.265,5.111 20.421,5.111 C20.421,5.034 20.421,4.956 20.421,4.879 C20.578,4.879 20.734,4.879 20.891,4.879 C20.891,4.801 20.891,4.724 20.891,4.646 C21.125,4.646 21.360,4.646 21.595,4.646 C21.595,4.569 21.595,4.492 21.595,4.414 C21.830,4.414 22.064,4.414 22.299,4.414 C22.299,4.337 22.299,4.259 22.299,4.182 C22.534,4.182 22.769,4.182 23.003,4.182 C23.003,4.104 23.003,4.027 23.003,3.949 C23.316,3.949 23.629,3.949 23.942,3.949 C23.942,3.872 23.942,3.795 23.942,3.717 C24.255,3.717 24.568,3.717 24.881,3.717 C24.881,3.640 24.881,3.562 24.881,3.485 C25.350,3.485 25.820,3.485 26.289,3.485 C26.289,3.407 26.289,3.330 26.289,3.253 C26.915,3.253 27.541,3.253 28.167,3.253 C28.167,3.175 28.167,3.098 28.167,3.020 C29.575,3.020 30.984,3.020 32.392,3.020 C32.392,2.943 32.392,2.865 32.392,2.788 C35.365,2.788 38.339,2.788 41.312,2.788 C41.312,2.710 41.312,2.633 41.312,2.556 C42.094,2.556 42.877,2.556 43.659,2.556 C43.659,2.478 43.659,2.401 43.659,2.323 C44.285,2.323 44.911,2.323 45.537,2.323 C45.537,2.246 45.537,2.168 45.537,2.091 C45.928,2.091 46.319,2.091 46.711,2.091 C46.711,2.013 46.711,1.936 46.711,1.859 C47.102,1.859 47.493,1.859 47.884,1.859 C47.884,1.781 47.884,1.704 47.884,1.626 C48.275,1.626 48.667,1.626 49.058,1.626 C49.058,1.549 49.058,1.471 49.058,1.394 C49.371,1.394 49.684,1.394 49.997,1.394 C49.997,1.317 49.997,1.239 49.997,1.162 C50.310,1.162 50.623,1.162 50.936,1.162 C50.936,1.084 50.936,1.007 50.936,0.929 C51.170,0.929 51.405,0.929 51.640,0.929 C51.640,0.852 51.640,0.774 51.640,0.697 C51.875,0.697 52.109,0.697 52.344,0.697 C52.344,0.620 52.344,0.542 52.344,0.465 C52.579,0.465 52.814,0.465 53.048,0.465 C53.048,0.387 53.048,0.310 53.048,0.232 C53.283,0.232 53.518,0.232 53.752,0.232 C53.752,0.155 53.752,0.077 53.752,-0.000 ZM18.074,19.515 C30.435,19.515 42.800,19.515 55.161,19.515 C55.161,19.593 55.161,19.670 55.161,19.747 C55.474,19.747 55.787,19.747 56.100,19.747 C56.100,19.825 56.100,19.902 56.100,19.980 C56.256,19.980 56.413,19.980 56.569,19.980 C56.569,20.057 56.569,20.135 56.569,20.212 C56.726,20.212 56.882,20.212 57.039,20.212 C57.039,20.290 57.039,20.367 57.039,20.444 C57.117,20.444 57.195,20.444 57.273,20.444 C57.273,20.522 57.273,20.599 57.273,20.677 C57.352,20.677 57.430,20.677 57.508,20.677 C57.508,20.754 57.508,20.832 57.508,20.909 C57.586,20.909 57.665,20.909 57.743,20.909 C57.743,20.987 57.743,21.064 57.743,21.141 C57.821,21.141 57.899,21.141 57.977,21.141 C57.977,21.219 57.977,21.296 57.977,21.374 C58.056,21.374 58.134,21.374 58.212,21.374 C58.212,21.451 58.212,21.529 58.212,21.606 C58.290,21.606 58.369,21.606 58.447,21.606 C58.447,21.761 58.447,21.916 58.447,22.071 C58.525,22.071 58.603,22.071 58.682,22.071 C58.682,22.303 58.682,22.535 58.682,22.768 C58.760,22.768 58.838,22.768 58.916,22.768 C58.916,27.027 58.916,31.287 58.916,35.545 C58.838,35.545 58.760,35.545 58.682,35.545 C58.682,35.778 58.682,36.010 58.682,36.242 C58.603,36.242 58.525,36.242 58.447,36.242 C58.447,36.397 58.447,36.552 58.447,36.707 C58.369,36.707 58.290,36.707 58.212,36.707 C58.212,36.862 58.212,37.017 58.212,37.172 C58.134,37.172 58.056,37.172 57.977,37.172 C57.977,37.249 57.977,37.327 57.977,37.404 C57.899,37.404 57.821,37.404 57.743,37.404 C57.743,37.481 57.743,37.559 57.743,37.636 C57.665,37.636 57.586,37.636 57.508,37.636 C57.508,37.714 57.508,37.791 57.508,37.869 C57.430,37.869 57.352,37.869 57.273,37.869 C57.273,37.946 57.273,38.024 57.273,38.101 C57.117,38.101 56.960,38.101 56.804,38.101 C56.804,38.178 56.804,38.256 56.804,38.333 C56.647,38.333 56.491,38.333 56.334,38.333 C56.334,38.411 56.334,38.488 56.334,38.566 C56.178,38.566 56.021,38.566 55.865,38.566 C55.865,38.643 55.865,38.721 55.865,38.798 C52.579,38.798 49.292,38.798 46.006,38.798 C46.006,38.721 46.006,38.643 46.006,38.566 C45.693,38.566 45.380,38.566 45.068,38.566 C45.068,38.488 45.068,38.411 45.068,38.333 C44.833,38.333 44.598,38.333 44.363,38.333 C44.363,38.256 44.363,38.178 44.363,38.101 C44.207,38.101 44.050,38.101 43.894,38.101 C43.894,38.024 43.894,37.946 43.894,37.869 C43.737,37.869 43.581,37.869 43.424,37.869 C43.424,37.791 43.424,37.714 43.424,37.636 C43.268,37.636 43.111,37.636 42.955,37.636 C42.955,37.559 42.955,37.481 42.955,37.404 C42.877,37.404 42.798,37.404 42.720,37.404 C42.720,37.327 42.720,37.249 42.720,37.172 C42.642,37.172 42.564,37.172 42.486,37.172 C42.486,37.094 42.486,37.017 42.486,36.939 C42.329,36.939 42.173,36.939 42.016,36.939 C42.016,36.862 42.016,36.785 42.016,36.707 C41.938,36.707 41.860,36.707 41.781,36.707 C41.781,36.630 41.781,36.552 41.781,36.475 C41.703,36.475 41.625,36.475 41.547,36.475 C41.547,36.397 41.547,36.320 41.547,36.242 C41.468,36.242 41.390,36.242 41.312,36.242 C41.312,36.165 41.312,36.088 41.312,36.010 C41.234,36.010 41.155,36.010 41.077,36.010 C41.077,35.933 41.077,35.855 41.077,35.778 C40.999,35.778 40.921,35.778 40.842,35.778 C40.842,35.700 40.842,35.623 40.842,35.545 C40.764,35.545 40.686,35.545 40.608,35.545 C40.608,35.468 40.608,35.391 40.608,35.313 C40.529,35.313 40.451,35.313 40.373,35.313 C40.373,35.236 40.373,35.158 40.373,35.081 C40.217,35.081 40.060,35.081 39.904,35.081 C39.904,35.003 39.904,34.926 39.904,34.848 C39.747,34.848 39.591,34.848 39.434,34.848 C39.434,34.771 39.434,34.694 39.434,34.616 C39.199,34.616 38.965,34.616 38.730,34.616 C38.730,34.539 38.730,34.461 38.730,34.384 C38.417,34.384 38.104,34.384 37.791,34.384 C37.791,34.306 37.791,34.229 37.791,34.152 C37.087,34.152 36.383,34.152 35.678,34.152 C35.678,34.229 35.678,34.306 35.678,34.384 C35.287,34.384 34.896,34.384 34.505,34.384 C34.505,34.461 34.505,34.539 34.505,34.616 C34.348,34.616 34.192,34.616 34.035,34.616 C34.035,34.694 34.035,34.771 34.035,34.848 C33.879,34.848 33.722,34.848 33.566,34.848 C33.566,34.926 33.566,35.003 33.566,35.081 C33.409,35.081 33.253,35.081 33.096,35.081 C33.096,35.158 33.096,35.236 33.096,35.313 C33.018,35.313 32.940,35.313 32.862,35.313 C32.862,35.391 32.862,35.468 32.862,35.545 C32.705,35.545 32.549,35.545 32.392,35.545 C32.392,35.623 32.392,35.700 32.392,35.778 C32.314,35.778 32.236,35.778 32.158,35.778 C32.158,35.855 32.158,35.933 32.158,36.010 C32.079,36.010 32.001,36.010 31.923,36.010 C31.923,36.088 31.923,36.165 31.923,36.242 C31.845,36.242 31.766,36.242 31.688,36.242 C31.688,36.320 31.688,36.397 31.688,36.475 C31.610,36.475 31.532,36.475 31.453,36.475 C31.453,36.552 31.453,36.630 31.453,36.707 C31.375,36.707 31.297,36.707 31.219,36.707 C31.219,36.785 31.219,36.862 31.219,36.939 C31.140,36.939 31.062,36.939 30.984,36.939 C30.984,37.017 30.984,37.094 30.984,37.172 C30.906,37.172 30.827,37.172 30.749,37.172 C30.749,37.249 30.749,37.327 30.749,37.404 C30.671,37.404 30.593,37.404 30.514,37.404 C30.514,37.481 30.514,37.559 30.514,37.636 C30.358,37.636 30.201,37.636 30.045,37.636 C30.045,37.714 30.045,37.791 30.045,37.869 C29.889,37.869 29.732,37.869 29.576,37.869 C29.576,37.946 29.576,38.024 29.576,38.101 C29.419,38.101 29.263,38.101 29.106,38.101 C29.106,38.178 29.106,38.256 29.106,38.333 C28.871,38.333 28.637,38.333 28.402,38.333 C28.402,38.411 28.402,38.488 28.402,38.566 C28.089,38.566 27.776,38.566 27.463,38.566 C27.463,38.643 27.463,38.721 27.463,38.798 C24.334,38.798 21.203,38.798 18.074,38.798 C18.074,38.721 18.074,38.643 18.074,38.566 C17.761,38.566 17.448,38.566 17.135,38.566 C17.135,38.488 17.135,38.411 17.135,38.333 C16.979,38.333 16.822,38.333 16.666,38.333 C16.666,38.256 16.666,38.178 16.666,38.101 C16.509,38.101 16.353,38.101 16.196,38.101 C16.196,38.024 16.196,37.946 16.196,37.869 C16.118,37.869 16.040,37.869 15.961,37.869 C15.961,37.791 15.961,37.714 15.961,37.636 C15.883,37.636 15.805,37.636 15.727,37.636 C15.727,37.559 15.727,37.481 15.727,37.404 C15.648,37.404 15.570,37.404 15.492,37.404 C15.492,37.327 15.492,37.249 15.492,37.172 C15.414,37.172 15.335,37.172 15.257,37.172 C15.257,37.017 15.257,36.862 15.257,36.707 C15.179,36.707 15.101,36.707 15.023,36.707 C15.023,36.630 15.023,36.552 15.023,36.475 C14.944,36.475 14.866,36.475 14.788,36.475 C14.788,36.242 14.788,36.010 14.788,35.778 C14.710,35.778 14.631,35.778 14.553,35.778 C14.553,31.364 14.553,26.949 14.553,22.535 C14.631,22.535 14.710,22.535 14.788,22.535 C14.788,22.380 14.788,22.226 14.788,22.071 C14.866,22.071 14.944,22.071 15.023,22.071 C15.023,21.916 15.023,21.761 15.023,21.606 C15.101,21.606 15.179,21.606 15.257,21.606 C15.257,21.451 15.257,21.296 15.257,21.141 C15.335,21.141 15.414,21.141 15.492,21.141 C15.492,21.064 15.492,20.987 15.492,20.909 C15.570,20.909 15.648,20.909 15.727,20.909 C15.727,20.832 15.727,20.754 15.727,20.677 C15.805,20.677 15.883,20.677 15.961,20.677 C15.961,20.599 15.961,20.522 15.961,20.444 C16.118,20.444 16.274,20.444 16.431,20.444 C16.431,20.367 16.431,20.290 16.431,20.212 C16.509,20.212 16.587,20.212 16.666,20.212 C16.666,20.135 16.666,20.057 16.666,19.980 C16.822,19.980 16.979,19.980 17.135,19.980 C17.135,19.902 17.135,19.825 17.135,19.747 C17.448,19.747 17.761,19.747 18.074,19.747 C18.074,19.670 18.074,19.593 18.074,19.515 ZM10.563,26.949 C10.641,26.949 10.719,26.949 10.797,26.949 C10.797,29.815 10.797,32.680 10.797,35.545 C10.876,35.545 10.954,35.545 11.032,35.545 C11.032,35.933 11.032,36.320 11.032,36.707 C11.110,36.707 11.189,36.707 11.267,36.707 C11.267,36.939 11.267,37.172 11.267,37.404 C11.345,37.404 11.423,37.404 11.502,37.404 C11.502,37.559 11.502,37.714 11.502,37.869 C11.580,37.869 11.658,37.869 11.736,37.869 C11.736,38.024 11.736,38.178 11.736,38.333 C11.815,38.333 11.893,38.333 11.971,38.333 C11.971,38.488 11.971,38.643 11.971,38.798 C12.049,38.798 12.128,38.798 12.206,38.798 C12.206,38.875 12.206,38.953 12.206,39.030 C12.284,39.030 12.362,39.030 12.441,39.030 C12.441,39.185 12.441,39.340 12.441,39.495 C12.519,39.495 12.597,39.495 12.675,39.495 C12.675,39.572 12.675,39.650 12.675,39.727 C12.753,39.727 12.832,39.727 12.910,39.727 C12.910,39.805 12.910,39.882 12.910,39.960 C12.988,39.960 13.066,39.960 13.145,39.960 C13.145,40.037 13.145,40.114 13.145,40.192 C13.223,40.192 13.301,40.192 13.379,40.192 C13.379,40.269 13.379,40.347 13.379,40.424 C13.458,40.424 13.536,40.424 13.614,40.424 C13.614,40.502 13.614,40.579 13.614,40.657 C13.771,40.657 13.927,40.657 14.084,40.657 C14.084,40.734 14.084,40.811 14.084,40.889 C14.162,40.889 14.240,40.889 14.318,40.889 C14.318,40.966 14.318,41.044 14.318,41.121 C14.475,41.121 14.631,41.121 14.788,41.121 C14.788,41.199 14.788,41.276 14.788,41.354 C14.944,41.354 15.101,41.354 15.257,41.354 C15.257,41.431 15.257,41.508 15.257,41.586 C15.414,41.586 15.570,41.586 15.727,41.586 C15.727,41.663 15.727,41.741 15.727,41.818 C15.883,41.818 16.040,41.818 16.196,41.818 C16.196,41.896 16.196,41.973 16.196,42.051 C16.353,42.051 16.509,42.051 16.666,42.051 C16.666,42.205 16.666,42.360 16.666,42.515 C16.744,42.515 16.822,42.515 16.900,42.515 C16.900,42.902 16.900,43.290 16.900,43.677 C16.979,43.677 17.057,43.677 17.135,43.677 C17.135,43.987 17.135,44.296 17.135,44.606 C17.213,44.606 17.292,44.606 17.370,44.606 C17.370,44.838 17.370,45.071 17.370,45.303 C17.448,45.303 17.526,45.303 17.605,45.303 C17.605,45.458 17.605,45.613 17.605,45.768 C17.683,45.768 17.761,45.768 17.839,45.768 C17.839,46.000 17.839,46.232 17.839,46.465 C17.917,46.465 17.996,46.465 18.074,46.465 C18.074,46.620 18.074,46.774 18.074,46.929 C18.152,46.929 18.230,46.929 18.309,46.929 C18.309,47.084 18.309,47.239 18.309,47.394 C18.387,47.394 18.465,47.394 18.543,47.394 C18.543,47.549 18.543,47.704 18.543,47.859 C18.622,47.859 18.700,47.859 18.778,47.859 C18.778,47.936 18.778,48.013 18.778,48.091 C18.856,48.091 18.935,48.091 19.013,48.091 C19.013,48.246 19.013,48.401 19.013,48.556 C19.091,48.556 19.169,48.556 19.248,48.556 C19.248,48.710 19.248,48.865 19.248,49.020 C19.326,49.020 19.404,49.020 19.482,49.020 C19.482,49.098 19.482,49.175 19.482,49.253 C19.561,49.253 19.639,49.253 19.717,49.253 C19.717,49.407 19.717,49.562 19.717,49.717 C19.795,49.717 19.874,49.717 19.952,49.717 C19.952,49.795 19.952,49.872 19.952,49.949 C20.030,49.949 20.108,49.949 20.186,49.949 C20.186,50.027 20.186,50.104 20.186,50.182 C20.265,50.182 20.343,50.182 20.421,50.182 C20.421,50.337 20.421,50.492 20.421,50.646 C20.499,50.646 20.578,50.646 20.656,50.646 C20.656,50.724 20.656,50.801 20.656,50.879 C20.734,50.879 20.812,50.879 20.891,50.879 C20.891,50.956 20.891,51.034 20.891,51.111 C20.969,51.111 21.047,51.111 21.125,51.111 C21.125,51.189 21.125,51.266 21.125,51.343 C21.204,51.343 21.282,51.343 21.360,51.343 C21.360,51.421 21.360,51.498 21.360,51.576 C21.438,51.576 21.517,51.576 21.595,51.576 C21.595,51.653 21.595,51.731 21.595,51.808 C21.673,51.808 21.751,51.808 21.830,51.808 C21.830,51.963 21.830,52.118 21.830,52.273 C21.908,52.273 21.986,52.273 22.064,52.273 C22.064,52.350 22.064,52.428 22.064,52.505 C22.143,52.505 22.221,52.505 22.299,52.505 C22.299,52.582 22.299,52.660 22.299,52.737 C22.377,52.737 22.456,52.737 22.534,52.737 C22.534,52.815 22.534,52.892 22.534,52.970 C22.612,52.970 22.690,52.970 22.768,52.970 C22.768,53.047 22.768,53.125 22.768,53.202 C22.847,53.202 22.925,53.202 23.003,53.202 C23.003,53.279 23.003,53.357 23.003,53.434 C23.160,53.434 23.316,53.434 23.473,53.434 C23.473,53.512 23.473,53.589 23.473,53.667 C23.551,53.667 23.629,53.667 23.707,53.667 C23.707,53.744 23.707,53.822 23.707,53.899 C23.786,53.899 23.864,53.899 23.942,53.899 C23.942,53.976 23.942,54.054 23.942,54.131 C24.020,54.131 24.099,54.131 24.177,54.131 C24.177,54.209 24.177,54.286 24.177,54.364 C24.255,54.364 24.333,54.364 24.412,54.364 C24.412,54.441 24.412,54.519 24.412,54.596 C24.490,54.596 24.568,54.596 24.646,54.596 C24.646,54.673 24.646,54.751 24.646,54.828 C24.803,54.828 24.959,54.828 25.116,54.828 C25.116,54.906 25.116,54.983 25.116,55.061 C25.194,55.061 25.272,55.061 25.350,55.061 C25.350,55.138 25.350,55.215 25.350,55.293 C25.429,55.293 25.507,55.293 25.585,55.293 C25.585,55.370 25.585,55.448 25.585,55.525 C25.663,55.525 25.742,55.525 25.820,55.525 C25.820,55.603 25.820,55.680 25.820,55.758 C25.976,55.758 26.133,55.758 26.289,55.758 C26.289,55.835 26.289,55.912 26.289,55.990 C26.368,55.990 26.446,55.990 26.524,55.990 C26.524,56.067 26.524,56.145 26.524,56.222 C26.681,56.222 26.837,56.222 26.994,56.222 C26.994,56.300 26.994,56.377 26.994,56.455 C27.072,56.455 27.150,56.455 27.228,56.455 C27.228,56.532 27.228,56.609 27.228,56.687 C27.385,56.687 27.541,56.687 27.698,56.687 C27.698,56.764 27.698,56.842 27.698,56.919 C27.776,56.919 27.854,56.919 27.932,56.919 C27.932,56.997 27.932,57.074 27.932,57.152 C28.089,57.152 28.245,57.152 28.402,57.152 C28.402,57.229 28.402,57.306 28.402,57.384 C28.558,57.384 28.715,57.384 28.871,57.384 C28.871,57.461 28.871,57.539 28.871,57.616 C29.028,57.616 29.184,57.616 29.341,57.616 C29.341,57.694 29.341,57.771 29.341,57.848 C29.497,57.848 29.654,57.848 29.810,57.848 C29.810,57.926 29.810,58.003 29.810,58.081 C29.967,58.081 30.123,58.081 30.280,58.081 C30.280,58.158 30.280,58.236 30.280,58.313 C30.514,58.313 30.749,58.313 30.984,58.313 C30.984,58.391 30.984,58.468 30.984,58.545 C31.219,58.545 31.453,58.545 31.688,58.545 C31.688,58.623 31.688,58.700 31.688,58.778 C32.001,58.778 32.314,58.778 32.627,58.778 C32.627,58.855 32.627,58.933 32.627,59.010 C33.018,59.010 33.409,59.010 33.801,59.010 C33.801,59.088 33.801,59.165 33.801,59.242 C35.600,59.242 37.400,59.242 39.199,59.242 C39.199,59.165 39.199,59.088 39.199,59.010 C39.591,59.010 39.982,59.010 40.373,59.010 C40.373,58.933 40.373,58.855 40.373,58.778 C40.686,58.778 40.999,58.778 41.312,58.778 C41.312,58.700 41.312,58.623 41.312,58.545 C41.547,58.545 41.781,58.545 42.016,58.545 C42.016,58.468 42.016,58.391 42.016,58.313 C42.251,58.313 42.486,58.313 42.720,58.313 C42.720,58.236 42.720,58.158 42.720,58.081 C42.877,58.081 43.033,58.081 43.190,58.081 C43.190,58.003 43.190,57.926 43.190,57.848 C43.346,57.848 43.503,57.848 43.659,57.848 C43.659,57.771 43.659,57.694 43.659,57.616 C43.816,57.616 43.972,57.616 44.129,57.616 C44.129,57.539 44.129,57.461 44.129,57.384 C44.285,57.384 44.442,57.384 44.598,57.384 C44.598,57.306 44.598,57.229 44.598,57.152 C44.755,57.152 44.911,57.152 45.068,57.152 C45.068,57.074 45.068,56.997 45.068,56.919 C45.146,56.919 45.224,56.919 45.302,56.919 C45.302,56.842 45.302,56.764 45.302,56.687 C45.459,56.687 45.615,56.687 45.772,56.687 C45.772,56.609 45.772,56.532 45.772,56.455 C45.850,56.455 45.928,56.455 46.006,56.455 C46.006,56.377 46.006,56.300 46.006,56.222 C46.163,56.222 46.319,56.222 46.476,56.222 C46.476,56.145 46.476,56.067 46.476,55.990 C46.554,55.990 46.632,55.990 46.711,55.990 C46.711,55.912 46.711,55.835 46.711,55.758 C46.867,55.758 47.024,55.758 47.180,55.758 C47.180,55.680 47.180,55.603 47.180,55.525 C47.258,55.525 47.337,55.525 47.415,55.525 C47.415,55.448 47.415,55.370 47.415,55.293 C47.493,55.293 47.571,55.293 47.650,55.293 C47.650,55.215 47.650,55.138 47.650,55.061 C47.728,55.061 47.806,55.061 47.884,55.061 C47.884,54.983 47.884,54.906 47.884,54.828 C48.041,54.828 48.197,54.828 48.354,54.828 C48.354,54.751 48.354,54.673 48.354,54.596 C48.432,54.596 48.510,54.596 48.588,54.596 C48.588,54.519 48.588,54.441 48.588,54.364 C48.667,54.364 48.745,54.364 48.823,54.364 C48.823,54.286 48.823,54.209 48.823,54.131 C48.901,54.131 48.980,54.131 49.058,54.131 C49.058,54.054 49.058,53.976 49.058,53.899 C49.136,53.899 49.214,53.899 49.293,53.899 C49.293,53.822 49.293,53.744 49.293,53.667 C49.371,53.667 49.449,53.667 49.527,53.667 C49.527,53.589 49.527,53.512 49.527,53.434 C49.606,53.434 49.684,53.434 49.762,53.434 C49.762,53.357 49.762,53.279 49.762,53.202 C49.919,53.202 50.075,53.202 50.232,53.202 C50.232,53.125 50.232,53.047 50.232,52.970 C50.310,52.970 50.388,52.970 50.466,52.970 C50.466,52.892 50.466,52.815 50.466,52.737 C50.544,52.737 50.623,52.737 50.701,52.737 C50.701,52.660 50.701,52.582 50.701,52.505 C50.779,52.505 50.857,52.505 50.936,52.505 C50.936,52.428 50.936,52.350 50.936,52.273 C51.014,52.273 51.092,52.273 51.170,52.273 C51.170,52.118 51.170,51.963 51.170,51.808 C51.249,51.808 51.327,51.808 51.405,51.808 C51.405,51.731 51.405,51.653 51.405,51.576 C51.483,51.576 51.562,51.576 51.640,51.576 C51.640,51.498 51.640,51.421 51.640,51.343 C51.718,51.343 51.796,51.343 51.875,51.343 C51.875,51.266 51.875,51.189 51.875,51.111 C51.953,51.111 52.031,51.111 52.109,51.111 C52.109,51.034 52.109,50.956 52.109,50.879 C52.188,50.879 52.266,50.879 52.344,50.879 C52.344,50.801 52.344,50.724 52.344,50.646 C52.422,50.646 52.501,50.646 52.579,50.646 C52.579,50.492 52.579,50.337 52.579,50.182 C52.657,50.182 52.735,50.182 52.814,50.182 C52.814,50.104 52.814,50.027 52.814,49.949 C52.892,49.949 52.970,49.949 53.048,49.949 C53.048,49.872 53.048,49.795 53.048,49.717 C53.126,49.717 53.205,49.717 53.283,49.717 C53.283,49.562 53.283,49.407 53.283,49.253 C53.361,49.253 53.439,49.253 53.518,49.253 C53.518,49.175 53.518,49.098 53.518,49.020 C53.596,49.020 53.674,49.020 53.752,49.020 C53.752,48.865 53.752,48.710 53.752,48.556 C53.831,48.556 53.909,48.556 53.987,48.556 C53.987,48.401 53.987,48.246 53.987,48.091 C54.065,48.091 54.144,48.091 54.222,48.091 C54.222,48.013 54.222,47.936 54.222,47.859 C54.300,47.859 54.378,47.859 54.457,47.859 C54.457,47.704 54.457,47.549 54.457,47.394 C54.535,47.394 54.613,47.394 54.691,47.394 C54.691,47.239 54.691,47.084 54.691,46.929 C54.770,46.929 54.848,46.929 54.926,46.929 C54.926,46.697 54.926,46.465 54.926,46.232 C55.004,46.232 55.083,46.232 55.161,46.232 C55.161,46.077 55.161,45.923 55.161,45.768 C55.239,45.768 55.317,45.768 55.395,45.768 C55.395,45.613 55.395,45.458 55.395,45.303 C55.474,45.303 55.552,45.303 55.630,45.303 C55.630,45.071 55.630,44.838 55.630,44.606 C55.708,44.606 55.787,44.606 55.865,44.606 C55.865,44.296 55.865,43.987 55.865,43.677 C55.943,43.677 56.021,43.677 56.100,43.677 C56.100,43.290 56.100,42.902 56.100,42.515 C56.178,42.515 56.256,42.515 56.334,42.515 C56.334,42.360 56.334,42.205 56.334,42.051 C56.491,42.051 56.647,42.051 56.804,42.051 C56.804,41.973 56.804,41.896 56.804,41.818 C57.039,41.818 57.273,41.818 57.508,41.818 C57.508,41.741 57.508,41.663 57.508,41.586 C57.665,41.586 57.821,41.586 57.977,41.586 C57.977,41.508 57.977,41.431 57.977,41.354 C58.134,41.354 58.290,41.354 58.447,41.354 C58.447,41.276 58.447,41.199 58.447,41.121 C58.525,41.121 58.603,41.121 58.682,41.121 C58.682,41.044 58.682,40.966 58.682,40.889 C58.838,40.889 58.995,40.889 59.151,40.889 C59.151,40.811 59.151,40.734 59.151,40.657 C59.229,40.657 59.308,40.657 59.386,40.657 C59.386,40.579 59.386,40.502 59.386,40.424 C59.464,40.424 59.542,40.424 59.621,40.424 C59.621,40.347 59.621,40.269 59.621,40.192 C59.699,40.192 59.777,40.192 59.855,40.192 C59.855,40.114 59.855,40.037 59.855,39.960 C59.934,39.960 60.012,39.960 60.090,39.960 C60.090,39.882 60.090,39.805 60.090,39.727 C60.168,39.727 60.247,39.727 60.325,39.727 C60.325,39.650 60.325,39.572 60.325,39.495 C60.403,39.495 60.481,39.495 60.559,39.495 C60.559,39.418 60.559,39.340 60.559,39.263 C60.638,39.263 60.716,39.263 60.794,39.263 C60.794,39.108 60.794,38.953 60.794,38.798 C60.872,38.798 60.951,38.798 61.029,38.798 C61.029,38.721 61.029,38.643 61.029,38.566 C61.107,38.566 61.185,38.566 61.264,38.566 C61.264,38.411 61.264,38.256 61.264,38.101 C61.342,38.101 61.420,38.101 61.498,38.101 C61.498,37.946 61.498,37.791 61.498,37.636 C61.577,37.636 61.655,37.636 61.733,37.636 C61.733,37.404 61.733,37.172 61.733,36.939 C61.811,36.939 61.890,36.939 61.968,36.939 C61.968,36.707 61.968,36.475 61.968,36.242 C62.046,36.242 62.124,36.242 62.203,36.242 C62.203,33.145 62.203,30.047 62.203,26.949 C62.281,26.949 62.359,26.949 62.437,26.949 C62.437,27.027 62.437,27.104 62.437,27.182 C62.594,27.182 62.750,27.182 62.907,27.182 C62.907,27.259 62.907,27.337 62.907,27.414 C62.985,27.414 63.063,27.414 63.141,27.414 C63.141,27.492 63.141,27.569 63.141,27.646 C63.298,27.646 63.454,27.646 63.611,27.646 C63.611,27.724 63.611,27.801 63.611,27.879 C63.689,27.879 63.767,27.879 63.846,27.879 C63.846,27.956 63.846,28.034 63.846,28.111 C63.924,28.111 64.002,28.111 64.080,28.111 C64.080,28.189 64.080,28.266 64.080,28.343 C64.159,28.343 64.237,28.343 64.315,28.343 C64.315,28.421 64.315,28.498 64.315,28.576 C64.393,28.576 64.472,28.576 64.550,28.576 C64.550,28.731 64.550,28.886 64.550,29.040 C64.628,29.040 64.706,29.040 64.785,29.040 C64.785,29.118 64.785,29.195 64.785,29.273 C64.863,29.273 64.941,29.273 65.019,29.273 C65.019,29.428 65.019,29.583 65.019,29.737 C65.098,29.737 65.176,29.737 65.254,29.737 C65.254,29.892 65.254,30.047 65.254,30.202 C65.332,30.202 65.411,30.202 65.489,30.202 C65.489,30.434 65.489,30.667 65.489,30.899 C65.567,30.899 65.645,30.899 65.723,30.899 C65.723,31.209 65.723,31.519 65.723,31.828 C65.802,31.828 65.880,31.828 65.958,31.828 C65.958,32.293 65.958,32.758 65.958,33.222 C66.036,33.222 66.115,33.222 66.193,33.222 C66.193,34.461 66.193,35.700 66.193,36.939 C66.115,36.939 66.036,36.939 65.958,36.939 C65.958,37.327 65.958,37.714 65.958,38.101 C65.880,38.101 65.802,38.101 65.723,38.101 C65.723,38.411 65.723,38.721 65.723,39.030 C65.645,39.030 65.567,39.030 65.489,39.030 C65.489,39.185 65.489,39.340 65.489,39.495 C65.411,39.495 65.332,39.495 65.254,39.495 C65.254,39.727 65.254,39.960 65.254,40.192 C65.176,40.192 65.098,40.192 65.019,40.192 C65.019,40.269 65.019,40.347 65.019,40.424 C64.941,40.424 64.863,40.424 64.785,40.424 C64.785,40.579 64.785,40.734 64.785,40.889 C64.706,40.889 64.628,40.889 64.550,40.889 C64.550,40.966 64.550,41.044 64.550,41.121 C64.472,41.121 64.393,41.121 64.315,41.121 C64.315,41.199 64.315,41.276 64.315,41.354 C64.237,41.354 64.159,41.354 64.080,41.354 C64.080,41.431 64.080,41.508 64.080,41.586 C64.002,41.586 63.924,41.586 63.846,41.586 C63.846,41.663 63.846,41.741 63.846,41.818 C63.767,41.818 63.689,41.818 63.611,41.818 C63.611,41.896 63.611,41.973 63.611,42.051 C63.454,42.051 63.298,42.051 63.141,42.051 C63.141,42.128 63.141,42.205 63.141,42.283 C63.063,42.283 62.985,42.283 62.907,42.283 C62.907,42.360 62.907,42.438 62.907,42.515 C62.750,42.515 62.594,42.515 62.437,42.515 C62.437,42.593 62.437,42.670 62.437,42.747 C62.203,42.747 61.968,42.747 61.733,42.747 C61.733,42.825 61.733,42.902 61.733,42.980 C61.498,42.980 61.264,42.980 61.029,42.980 C61.029,43.057 61.029,43.135 61.029,43.212 C60.872,43.212 60.716,43.212 60.559,43.212 C60.559,43.599 60.559,43.987 60.559,44.374 C60.481,44.374 60.403,44.374 60.325,44.374 C60.325,44.683 60.325,44.993 60.325,45.303 C60.247,45.303 60.168,45.303 60.090,45.303 C60.090,45.535 60.090,45.768 60.090,46.000 C60.012,46.000 59.934,46.000 59.855,46.000 C59.855,46.232 59.855,46.465 59.855,46.697 C59.777,46.697 59.699,46.697 59.621,46.697 C59.621,46.929 59.621,47.162 59.621,47.394 C59.542,47.394 59.464,47.394 59.386,47.394 C59.386,47.549 59.386,47.704 59.386,47.859 C59.308,47.859 59.229,47.859 59.151,47.859 C59.151,48.013 59.151,48.168 59.151,48.323 C59.073,48.323 58.995,48.323 58.916,48.323 C58.916,48.478 58.916,48.633 58.916,48.788 C58.838,48.788 58.760,48.788 58.682,48.788 C58.682,48.943 58.682,49.098 58.682,49.253 C58.603,49.253 58.525,49.253 58.447,49.253 C58.447,49.407 58.447,49.562 58.447,49.717 C58.369,49.717 58.290,49.717 58.212,49.717 C58.212,49.872 58.212,50.027 58.212,50.182 C58.134,50.182 58.056,50.182 57.977,50.182 C57.977,50.337 57.977,50.492 57.977,50.646 C57.899,50.646 57.821,50.646 57.743,50.646 C57.743,50.724 57.743,50.801 57.743,50.879 C57.665,50.879 57.586,50.879 57.508,50.879 C57.508,51.034 57.508,51.189 57.508,51.343 C57.430,51.343 57.352,51.343 57.273,51.343 C57.273,51.421 57.273,51.498 57.273,51.576 C57.195,51.576 57.117,51.576 57.039,51.576 C57.039,51.731 57.039,51.886 57.039,52.040 C56.960,52.040 56.882,52.040 56.804,52.040 C56.804,52.118 56.804,52.195 56.804,52.273 C56.726,52.273 56.647,52.273 56.569,52.273 C56.569,52.350 56.569,52.428 56.569,52.505 C56.491,52.505 56.413,52.505 56.334,52.505 C56.334,52.660 56.334,52.815 56.334,52.970 C56.256,52.970 56.178,52.970 56.100,52.970 C56.100,53.047 56.100,53.125 56.100,53.202 C56.021,53.202 55.943,53.202 55.865,53.202 C55.865,53.279 55.865,53.357 55.865,53.434 C55.787,53.434 55.708,53.434 55.630,53.434 C55.630,53.512 55.630,53.589 55.630,53.667 C55.552,53.667 55.474,53.667 55.395,53.667 C55.395,53.822 55.395,53.976 55.395,54.131 C55.317,54.131 55.239,54.131 55.161,54.131 C55.161,54.209 55.161,54.286 55.161,54.364 C55.083,54.364 55.004,54.364 54.926,54.364 C54.926,54.441 54.926,54.519 54.926,54.596 C54.848,54.596 54.770,54.596 54.691,54.596 C54.691,54.673 54.691,54.751 54.691,54.828 C54.613,54.828 54.535,54.828 54.457,54.828 C54.457,54.906 54.457,54.983 54.457,55.061 C54.378,55.061 54.300,55.061 54.222,55.061 C54.222,55.138 54.222,55.215 54.222,55.293 C54.144,55.293 54.065,55.293 53.987,55.293 C53.987,55.370 53.987,55.448 53.987,55.525 C53.909,55.525 53.831,55.525 53.752,55.525 C53.752,55.603 53.752,55.680 53.752,55.758 C53.674,55.758 53.596,55.758 53.518,55.758 C53.518,55.835 53.518,55.912 53.518,55.990 C53.439,55.990 53.361,55.990 53.283,55.990 C53.283,56.067 53.283,56.145 53.283,56.222 C53.205,56.222 53.126,56.222 53.048,56.222 C53.048,56.300 53.048,56.377 53.048,56.455 C52.970,56.455 52.892,56.455 52.814,56.455 C52.814,56.532 52.814,56.609 52.814,56.687 C52.735,56.687 52.657,56.687 52.579,56.687 C52.579,56.764 52.579,56.842 52.579,56.919 C52.501,56.919 52.422,56.919 52.344,56.919 C52.344,56.997 52.344,57.074 52.344,57.152 C52.266,57.152 52.188,57.152 52.109,57.152 C52.109,57.229 52.109,57.306 52.109,57.384 C52.031,57.384 51.953,57.384 51.875,57.384 C51.875,57.461 51.875,57.539 51.875,57.616 C51.718,57.616 51.562,57.616 51.405,57.616 C51.405,57.694 51.405,57.771 51.405,57.848 C51.327,57.848 51.249,57.848 51.170,57.848 C51.170,57.926 51.170,58.003 51.170,58.081 C51.092,58.081 51.014,58.081 50.936,58.081 C50.936,58.158 50.936,58.236 50.936,58.313 C50.857,58.313 50.779,58.313 50.701,58.313 C50.701,58.391 50.701,58.468 50.701,58.545 C50.544,58.545 50.388,58.545 50.232,58.545 C50.232,58.623 50.232,58.700 50.232,58.778 C50.153,58.778 50.075,58.778 49.997,58.778 C49.997,58.855 49.997,58.933 49.997,59.010 C49.919,59.010 49.840,59.010 49.762,59.010 C49.762,59.088 49.762,59.165 49.762,59.242 C49.684,59.242 49.606,59.242 49.527,59.242 C49.527,59.320 49.527,59.397 49.527,59.475 C49.371,59.475 49.214,59.475 49.058,59.475 C49.058,59.784 49.058,60.094 49.058,60.404 C49.136,60.404 49.214,60.404 49.293,60.404 C49.293,60.714 49.293,61.024 49.293,61.333 C49.371,61.333 49.449,61.333 49.527,61.333 C49.527,61.643 49.527,61.953 49.527,62.263 C49.606,62.263 49.684,62.263 49.762,62.263 C49.762,62.572 49.762,62.882 49.762,63.192 C49.840,63.192 49.919,63.192 49.997,63.192 C49.997,63.502 49.997,63.811 49.997,64.121 C50.075,64.121 50.153,64.121 50.232,64.121 C50.232,64.354 50.232,64.586 50.232,64.818 C50.310,64.818 50.388,64.818 50.466,64.818 C50.466,65.050 50.466,65.283 50.466,65.515 C53.909,65.515 57.352,65.515 60.794,65.515 C60.794,65.593 60.794,65.670 60.794,65.747 C61.264,65.747 61.733,65.747 62.203,65.747 C62.203,65.825 62.203,65.902 62.203,65.980 C62.516,65.980 62.829,65.980 63.141,65.980 C63.141,66.057 63.141,66.135 63.141,66.212 C63.376,66.212 63.611,66.212 63.846,66.212 C63.846,66.290 63.846,66.367 63.846,66.444 C64.002,66.444 64.159,66.444 64.315,66.444 C64.315,66.522 64.315,66.599 64.315,66.677 C64.550,66.677 64.785,66.677 65.019,66.677 C65.019,66.754 65.019,66.832 65.019,66.909 C65.176,66.909 65.332,66.909 65.489,66.909 C65.489,66.987 65.489,67.064 65.489,67.141 C65.645,67.141 65.802,67.141 65.958,67.141 C65.958,67.219 65.958,67.296 65.958,67.374 C66.036,67.374 66.115,67.374 66.193,67.374 C66.193,67.451 66.193,67.529 66.193,67.606 C66.349,67.606 66.506,67.606 66.662,67.606 C66.662,67.683 66.662,67.761 66.662,67.838 C66.741,67.838 66.819,67.838 66.897,67.838 C66.897,67.916 66.897,67.993 66.897,68.071 C67.054,68.071 67.210,68.071 67.367,68.071 C67.367,68.148 67.367,68.226 67.367,68.303 C67.445,68.303 67.523,68.303 67.601,68.303 C67.601,68.380 67.601,68.458 67.601,68.535 C67.680,68.535 67.758,68.535 67.836,68.535 C67.836,68.613 67.836,68.690 67.836,68.768 C67.992,68.768 68.149,68.768 68.305,68.768 C68.305,68.845 68.305,68.923 68.305,69.000 C68.384,69.000 68.462,69.000 68.540,69.000 C68.540,69.077 68.540,69.155 68.540,69.232 C68.618,69.232 68.697,69.232 68.775,69.232 C68.775,69.310 68.775,69.387 68.775,69.465 C68.853,69.465 68.931,69.465 69.010,69.465 C69.010,69.542 69.010,69.620 69.010,69.697 C69.088,69.697 69.166,69.697 69.244,69.697 C69.244,69.774 69.244,69.852 69.244,69.929 C69.323,69.929 69.401,69.929 69.479,69.929 C69.479,70.007 69.479,70.084 69.479,70.162 C69.557,70.162 69.636,70.162 69.714,70.162 C69.714,70.316 69.714,70.471 69.714,70.626 C69.792,70.626 69.870,70.626 69.949,70.626 C69.949,70.704 69.949,70.781 69.949,70.859 C70.027,70.859 70.105,70.859 70.183,70.859 C70.183,70.936 70.183,71.013 70.183,71.091 C70.262,71.091 70.340,71.091 70.418,71.091 C70.418,71.246 70.418,71.401 70.418,71.556 C70.496,71.556 70.574,71.556 70.653,71.556 C70.653,71.633 70.653,71.710 70.653,71.788 C70.731,71.788 70.809,71.788 70.887,71.788 C70.887,71.943 70.887,72.098 70.887,72.253 C70.966,72.253 71.044,72.253 71.122,72.253 C71.122,72.330 71.122,72.407 71.122,72.485 C71.200,72.485 71.279,72.485 71.357,72.485 C71.357,72.640 71.357,72.795 71.357,72.949 C71.435,72.949 71.513,72.949 71.592,72.949 C71.592,73.104 71.592,73.259 71.592,73.414 C71.670,73.414 71.748,73.414 71.826,73.414 C71.826,73.569 71.826,73.724 71.826,73.879 C71.905,73.879 71.983,73.879 72.061,73.879 C72.061,74.111 72.061,74.343 72.061,74.576 C72.139,74.576 72.218,74.576 72.296,74.576 C72.296,74.808 72.296,75.040 72.296,75.273 C72.374,75.273 72.452,75.273 72.531,75.273 C72.531,75.582 72.531,75.892 72.531,76.202 C72.609,76.202 72.687,76.202 72.765,76.202 C72.765,76.589 72.765,76.976 72.765,77.364 C72.844,77.364 72.922,77.364 73.000,77.364 C73.000,81.313 73.000,85.263 73.000,89.212 C72.922,89.212 72.844,89.212 72.765,89.212 C72.765,89.444 72.765,89.677 72.765,89.909 C72.687,89.909 72.609,89.909 72.531,89.909 C72.531,90.064 72.531,90.219 72.531,90.374 C72.452,90.374 72.374,90.374 72.296,90.374 C72.296,90.451 72.296,90.529 72.296,90.606 C72.218,90.606 72.139,90.606 72.061,90.606 C72.061,90.683 72.061,90.761 72.061,90.838 C71.983,90.838 71.905,90.838 71.826,90.838 C71.826,90.916 71.826,90.993 71.826,91.071 C71.748,91.071 71.670,91.071 71.592,91.071 C71.592,91.148 71.592,91.226 71.592,91.303 C71.513,91.303 71.435,91.303 71.357,91.303 C71.357,91.380 71.357,91.458 71.357,91.535 C71.200,91.535 71.044,91.535 70.887,91.535 C70.887,91.613 70.887,91.690 70.887,91.768 C70.653,91.768 70.418,91.768 70.183,91.768 C70.183,91.845 70.183,91.923 70.183,92.000 C47.730,92.000 25.270,92.000 2.817,92.000 C2.817,91.923 2.817,91.845 2.817,91.768 C2.582,91.768 2.347,91.768 2.113,91.768 C2.113,91.690 2.113,91.613 2.113,91.535 C1.956,91.535 1.800,91.535 1.643,91.535 C1.643,91.458 1.643,91.380 1.643,91.303 C1.565,91.303 1.487,91.303 1.408,91.303 C1.408,91.226 1.408,91.148 1.408,91.071 C1.330,91.071 1.252,91.071 1.174,91.071 C1.174,90.993 1.174,90.916 1.174,90.838 C1.095,90.838 1.017,90.838 0.939,90.838 C0.939,90.761 0.939,90.683 0.939,90.606 C0.861,90.606 0.782,90.606 0.704,90.606 C0.704,90.529 0.704,90.451 0.704,90.374 C0.626,90.374 0.548,90.374 0.469,90.374 C0.469,90.219 0.469,90.064 0.469,89.909 C0.391,89.909 0.313,89.909 0.235,89.909 C0.235,89.677 0.235,89.444 0.235,89.212 C0.156,89.212 0.078,89.212 0.000,89.212 C0.000,85.340 0.000,81.468 0.000,77.596 C0.078,77.596 0.156,77.596 0.235,77.596 C0.235,77.209 0.235,76.822 0.235,76.434 C0.313,76.434 0.391,76.434 0.469,76.434 C0.469,76.125 0.469,75.815 0.469,75.505 C0.548,75.505 0.626,75.505 0.704,75.505 C0.704,75.273 0.704,75.040 0.704,74.808 C0.782,74.808 0.861,74.808 0.939,74.808 C0.939,74.653 0.939,74.498 0.939,74.343 C1.017,74.343 1.095,74.343 1.174,74.343 C1.174,74.111 1.174,73.879 1.174,73.646 C1.252,73.646 1.330,73.646 1.408,73.646 C1.408,73.492 1.408,73.337 1.408,73.182 C1.487,73.182 1.565,73.182 1.643,73.182 C1.643,73.027 1.643,72.872 1.643,72.717 C1.721,72.717 1.800,72.717 1.878,72.717 C1.878,72.640 1.878,72.562 1.878,72.485 C1.956,72.485 2.034,72.485 2.113,72.485 C2.113,72.330 2.113,72.175 2.113,72.020 C2.191,72.020 2.269,72.020 2.347,72.020 C2.347,71.943 2.347,71.865 2.347,71.788 C2.426,71.788 2.504,71.788 2.582,71.788 C2.582,71.633 2.582,71.478 2.582,71.323 C2.660,71.323 2.738,71.323 2.817,71.323 C2.817,71.246 2.817,71.168 2.817,71.091 C2.895,71.091 2.973,71.091 3.051,71.091 C3.051,71.013 3.051,70.936 3.051,70.859 C3.130,70.859 3.208,70.859 3.286,70.859 C3.286,70.704 3.286,70.549 3.286,70.394 C3.364,70.394 3.443,70.394 3.521,70.394 C3.521,70.317 3.521,70.239 3.521,70.162 C3.599,70.162 3.677,70.162 3.756,70.162 C3.756,70.084 3.756,70.007 3.756,69.929 C3.834,69.929 3.912,69.929 3.990,69.929 C3.990,69.852 3.990,69.774 3.990,69.697 C4.069,69.697 4.147,69.697 4.225,69.697 C4.225,69.620 4.225,69.542 4.225,69.465 C4.303,69.465 4.382,69.465 4.460,69.465 C4.460,69.387 4.460,69.310 4.460,69.232 C4.538,69.232 4.616,69.232 4.695,69.232 C4.695,69.155 4.695,69.077 4.695,69.000 C4.773,69.000 4.851,69.000 4.929,69.000 C4.929,68.923 4.929,68.845 4.929,68.768 C5.086,68.768 5.242,68.768 5.399,68.768 C5.399,68.690 5.399,68.613 5.399,68.535 C5.477,68.535 5.555,68.535 5.633,68.535 C5.633,68.458 5.633,68.380 5.633,68.303 C5.712,68.303 5.790,68.303 5.868,68.303 C5.868,68.226 5.868,68.148 5.868,68.071 C6.025,68.071 6.181,68.071 6.338,68.071 C6.338,67.993 6.338,67.916 6.338,67.838 C6.416,67.838 6.494,67.838 6.572,67.838 C6.572,67.761 6.572,67.683 6.572,67.606 C6.729,67.606 6.885,67.606 7.042,67.606 C7.042,67.529 7.042,67.451 7.042,67.374 C7.198,67.374 7.355,67.374 7.511,67.374 C7.511,67.296 7.511,67.219 7.511,67.141 C7.668,67.141 7.824,67.141 7.981,67.141 C7.981,67.064 7.981,66.987 7.981,66.909 C8.137,66.909 8.294,66.909 8.450,66.909 C8.450,66.832 8.450,66.754 8.450,66.677 C8.607,66.677 8.763,66.677 8.920,66.677 C8.920,66.599 8.920,66.522 8.920,66.444 C9.154,66.444 9.389,66.444 9.624,66.444 C9.624,66.367 9.624,66.290 9.624,66.212 C9.937,66.212 10.250,66.212 10.563,66.212 C10.563,66.135 10.563,66.057 10.563,65.980 C10.876,65.980 11.189,65.980 11.502,65.980 C11.502,65.902 11.502,65.825 11.502,65.747 C12.127,65.747 12.754,65.747 13.379,65.747 C13.379,65.670 13.379,65.593 13.379,65.515 C16.431,65.515 19.483,65.515 22.534,65.515 C22.534,65.438 22.534,65.360 22.534,65.283 C22.612,65.283 22.690,65.283 22.768,65.283 C22.768,65.051 22.768,64.818 22.768,64.586 C22.847,64.586 22.925,64.586 23.003,64.586 C23.003,64.276 23.003,63.966 23.003,63.657 C23.081,63.657 23.160,63.657 23.238,63.657 C23.238,63.347 23.238,63.037 23.238,62.727 C23.316,62.727 23.394,62.727 23.473,62.727 C23.473,62.418 23.473,62.108 23.473,61.798 C23.551,61.798 23.629,61.798 23.707,61.798 C23.707,61.488 23.707,61.178 23.707,60.869 C23.786,60.869 23.864,60.869 23.942,60.869 C23.942,60.636 23.942,60.404 23.942,60.172 C24.020,60.172 24.099,60.172 24.177,60.172 C24.177,60.017 24.177,59.862 24.177,59.707 C24.099,59.707 24.020,59.707 23.942,59.707 C23.942,59.630 23.942,59.552 23.942,59.475 C23.786,59.475 23.629,59.475 23.473,59.475 C23.473,59.397 23.473,59.320 23.473,59.242 C23.394,59.242 23.316,59.242 23.238,59.242 C23.238,59.165 23.238,59.088 23.238,59.010 C23.160,59.010 23.081,59.010 23.003,59.010 C23.003,58.933 23.003,58.855 23.003,58.778 C22.847,58.778 22.690,58.778 22.534,58.778 C22.534,58.700 22.534,58.623 22.534,58.545 C22.456,58.545 22.377,58.545 22.299,58.545 C22.299,58.468 22.299,58.391 22.299,58.313 C22.221,58.313 22.143,58.313 22.064,58.313 C22.064,58.236 22.064,58.158 22.064,58.081 C21.986,58.081 21.908,58.081 21.830,58.081 C21.830,58.003 21.830,57.926 21.830,57.848 C21.751,57.848 21.673,57.848 21.595,57.848 C21.595,57.771 21.595,57.694 21.595,57.616 C21.438,57.616 21.282,57.616 21.125,57.616 C21.125,57.539 21.125,57.461 21.125,57.384 C21.047,57.384 20.969,57.384 20.891,57.384 C20.891,57.306 20.891,57.229 20.891,57.152 C20.812,57.152 20.734,57.152 20.656,57.152 C20.656,57.074 20.656,56.997 20.656,56.919 C20.578,56.919 20.499,56.919 20.421,56.919 C20.421,56.842 20.421,56.764 20.421,56.687 C20.343,56.687 20.265,56.687 20.186,56.687 C20.186,56.609 20.186,56.532 20.186,56.455 C20.108,56.455 20.030,56.455 19.952,56.455 C19.952,56.377 19.952,56.300 19.952,56.222 C19.874,56.222 19.795,56.222 19.717,56.222 C19.717,56.145 19.717,56.067 19.717,55.990 C19.639,55.990 19.561,55.990 19.482,55.990 C19.482,55.912 19.482,55.835 19.482,55.758 C19.404,55.758 19.326,55.758 19.248,55.758 C19.248,55.680 19.248,55.603 19.248,55.525 C19.169,55.525 19.091,55.525 19.013,55.525 C19.013,55.448 19.013,55.370 19.013,55.293 C18.935,55.293 18.856,55.293 18.778,55.293 C18.778,55.215 18.778,55.138 18.778,55.061 C18.700,55.061 18.622,55.061 18.543,55.061 C18.543,54.983 18.543,54.906 18.543,54.828 C18.465,54.828 18.387,54.828 18.309,54.828 C18.309,54.751 18.309,54.673 18.309,54.596 C18.230,54.596 18.152,54.596 18.074,54.596 C18.074,54.519 18.074,54.441 18.074,54.364 C17.996,54.364 17.917,54.364 17.839,54.364 C17.839,54.209 17.839,54.054 17.839,53.899 C17.761,53.899 17.683,53.899 17.605,53.899 C17.605,53.822 17.605,53.744 17.605,53.667 C17.526,53.667 17.448,53.667 17.370,53.667 C17.370,53.589 17.370,53.512 17.370,53.434 C17.292,53.434 17.213,53.434 17.135,53.434 C17.135,53.357 17.135,53.279 17.135,53.202 C17.057,53.202 16.979,53.202 16.900,53.202 C16.900,53.047 16.900,52.892 16.900,52.737 C16.822,52.737 16.744,52.737 16.666,52.737 C16.666,52.660 16.666,52.582 16.666,52.505 C16.587,52.505 16.509,52.505 16.431,52.505 C16.431,52.428 16.431,52.350 16.431,52.273 C16.353,52.273 16.274,52.273 16.196,52.273 C16.196,52.118 16.196,51.963 16.196,51.808 C16.118,51.808 16.040,51.808 15.961,51.808 C15.961,51.731 15.961,51.653 15.961,51.576 C15.883,51.576 15.805,51.576 15.727,51.576 C15.727,51.421 15.727,51.266 15.727,51.111 C15.648,51.111 15.570,51.111 15.492,51.111 C15.492,51.034 15.492,50.956 15.492,50.879 C15.414,50.879 15.335,50.879 15.257,50.879 C15.257,50.724 15.257,50.569 15.257,50.414 C15.179,50.414 15.101,50.414 15.023,50.414 C15.023,50.259 15.023,50.104 15.023,49.949 C14.944,49.949 14.866,49.949 14.788,49.949 C14.788,49.795 14.788,49.640 14.788,49.485 C14.710,49.485 14.631,49.485 14.553,49.485 C14.553,49.407 14.553,49.330 14.553,49.253 C14.475,49.253 14.397,49.253 14.318,49.253 C14.318,49.098 14.318,48.943 14.318,48.788 C14.240,48.788 14.162,48.788 14.084,48.788 C14.084,48.556 14.084,48.323 14.084,48.091 C14.005,48.091 13.927,48.091 13.849,48.091 C13.849,47.936 13.849,47.781 13.849,47.626 C13.771,47.626 13.692,47.626 13.614,47.626 C13.614,47.394 13.614,47.162 13.614,46.929 C13.536,46.929 13.458,46.929 13.379,46.929 C13.379,46.774 13.379,46.620 13.379,46.465 C13.301,46.465 13.223,46.465 13.145,46.465 C13.145,46.232 13.145,46.000 13.145,45.768 C13.066,45.768 12.988,45.768 12.910,45.768 C12.910,45.458 12.910,45.148 12.910,44.838 C12.832,44.838 12.753,44.838 12.675,44.838 C12.675,44.529 12.675,44.219 12.675,43.909 C12.597,43.909 12.519,43.909 12.441,43.909 C12.441,43.677 12.441,43.444 12.441,43.212 C12.284,43.212 12.128,43.212 11.971,43.212 C11.971,43.135 11.971,43.057 11.971,42.980 C11.736,42.980 11.502,42.980 11.267,42.980 C11.267,42.902 11.267,42.825 11.267,42.747 C11.110,42.747 10.954,42.747 10.797,42.747 C10.797,42.670 10.797,42.593 10.797,42.515 C10.641,42.515 10.484,42.515 10.328,42.515 C10.328,42.438 10.328,42.360 10.328,42.283 C10.172,42.283 10.015,42.283 9.859,42.283 C9.859,42.205 9.859,42.128 9.859,42.051 C9.780,42.051 9.702,42.051 9.624,42.051 C9.624,41.973 9.624,41.896 9.624,41.818 C9.467,41.818 9.311,41.818 9.154,41.818 C9.154,41.741 9.154,41.663 9.154,41.586 C9.076,41.586 8.998,41.586 8.920,41.586 C8.920,41.508 8.920,41.431 8.920,41.354 C8.841,41.354 8.763,41.354 8.685,41.354 C8.685,41.199 8.685,41.044 8.685,40.889 C8.607,40.889 8.528,40.889 8.450,40.889 C8.450,40.811 8.450,40.734 8.450,40.657 C8.372,40.657 8.294,40.657 8.215,40.657 C8.215,40.579 8.215,40.502 8.215,40.424 C8.137,40.424 8.059,40.424 7.981,40.424 C7.981,40.269 7.981,40.114 7.981,39.960 C7.902,39.960 7.824,39.960 7.746,39.960 C7.746,39.727 7.746,39.495 7.746,39.263 C7.668,39.263 7.589,39.263 7.511,39.263 C7.511,39.108 7.511,38.953 7.511,38.798 C7.433,38.798 7.355,38.798 7.277,38.798 C7.277,38.488 7.277,38.178 7.277,37.869 C7.198,37.869 7.120,37.869 7.042,37.869 C7.042,37.094 7.042,36.320 7.042,35.545 C6.964,35.545 6.885,35.545 6.807,35.545 C6.807,35.313 6.807,35.081 6.807,34.848 C6.885,34.848 6.964,34.848 7.042,34.848 C7.042,34.074 7.042,33.300 7.042,32.525 C7.120,32.525 7.198,32.525 7.277,32.525 C7.277,32.138 7.277,31.751 7.277,31.364 C7.355,31.364 7.433,31.364 7.511,31.364 C7.511,31.131 7.511,30.899 7.511,30.667 C7.589,30.667 7.668,30.667 7.746,30.667 C7.746,30.512 7.746,30.357 7.746,30.202 C7.824,30.202 7.902,30.202 7.981,30.202 C7.981,29.970 7.981,29.737 7.981,29.505 C8.059,29.505 8.137,29.505 8.215,29.505 C8.215,29.428 8.215,29.350 8.215,29.273 C8.294,29.273 8.372,29.273 8.450,29.273 C8.450,29.118 8.450,28.963 8.450,28.808 C8.528,28.808 8.607,28.808 8.685,28.808 C8.685,28.731 8.685,28.653 8.685,28.576 C8.763,28.576 8.841,28.576 8.920,28.576 C8.920,28.498 8.920,28.421 8.920,28.343 C8.998,28.343 9.076,28.343 9.154,28.343 C9.154,28.266 9.154,28.189 9.154,28.111 C9.233,28.111 9.311,28.111 9.389,28.111 C9.389,28.034 9.389,27.956 9.389,27.879 C9.467,27.879 9.546,27.879 9.624,27.879 C9.624,27.801 9.624,27.724 9.624,27.646 C9.702,27.646 9.780,27.646 9.859,27.646 C9.859,27.569 9.859,27.492 9.859,27.414 C9.937,27.414 10.015,27.414 10.093,27.414 C10.093,27.337 10.093,27.259 10.093,27.182 C10.250,27.182 10.406,27.182 10.563,27.182 C10.563,27.104 10.563,27.027 10.563,26.949 ZM28.402,41.818 C33.878,41.818 39.356,41.818 44.833,41.818 C44.833,41.896 44.833,41.973 44.833,42.051 C45.068,42.051 45.302,42.051 45.537,42.051 C45.537,42.128 45.537,42.205 45.537,42.283 C45.615,42.283 45.693,42.283 45.772,42.283 C45.772,42.438 45.772,42.593 45.772,42.747 C45.850,42.747 45.928,42.747 46.006,42.747 C46.006,43.212 46.006,43.677 46.006,44.141 C45.928,44.141 45.850,44.141 45.772,44.141 C45.772,44.374 45.772,44.606 45.772,44.838 C45.693,44.838 45.615,44.838 45.537,44.838 C45.537,45.071 45.537,45.303 45.537,45.535 C45.459,45.535 45.380,45.535 45.302,45.535 C45.302,45.690 45.302,45.845 45.302,46.000 C45.224,46.000 45.146,46.000 45.068,46.000 C45.068,46.155 45.068,46.310 45.068,46.465 C44.989,46.465 44.911,46.465 44.833,46.465 C44.833,46.620 44.833,46.774 44.833,46.929 C44.755,46.929 44.676,46.929 44.598,46.929 C44.598,47.007 44.598,47.084 44.598,47.162 C44.520,47.162 44.442,47.162 44.363,47.162 C44.363,47.239 44.363,47.317 44.363,47.394 C44.285,47.394 44.207,47.394 44.129,47.394 C44.129,47.549 44.129,47.704 44.129,47.859 C44.050,47.859 43.972,47.859 43.894,47.859 C43.894,47.936 43.894,48.013 43.894,48.091 C43.816,48.091 43.737,48.091 43.659,48.091 C43.659,48.168 43.659,48.246 43.659,48.323 C43.581,48.323 43.503,48.323 43.424,48.323 C43.424,48.401 43.424,48.478 43.424,48.556 C43.346,48.556 43.268,48.556 43.190,48.556 C43.190,48.633 43.190,48.710 43.190,48.788 C43.111,48.788 43.033,48.788 42.955,48.788 C42.955,48.865 42.955,48.943 42.955,49.020 C42.877,49.020 42.798,49.020 42.720,49.020 C42.720,49.098 42.720,49.175 42.720,49.253 C42.564,49.253 42.407,49.253 42.251,49.253 C42.251,49.330 42.251,49.407 42.251,49.485 C42.173,49.485 42.094,49.485 42.016,49.485 C42.016,49.562 42.016,49.640 42.016,49.717 C41.860,49.717 41.703,49.717 41.547,49.717 C41.547,49.795 41.547,49.872 41.547,49.949 C41.468,49.949 41.390,49.949 41.312,49.949 C41.312,50.027 41.312,50.104 41.312,50.182 C41.155,50.182 40.999,50.182 40.842,50.182 C40.842,50.259 40.842,50.337 40.842,50.414 C40.608,50.414 40.373,50.414 40.138,50.414 C40.138,50.492 40.138,50.569 40.138,50.646 C39.904,50.646 39.669,50.646 39.434,50.646 C39.434,50.724 39.434,50.801 39.434,50.879 C39.199,50.879 38.965,50.879 38.730,50.879 C38.730,50.956 38.730,51.034 38.730,51.111 C37.322,51.111 35.913,51.111 34.505,51.111 C34.505,51.034 34.505,50.956 34.505,50.879 C34.270,50.879 34.035,50.879 33.801,50.879 C33.801,50.801 33.801,50.724 33.801,50.646 C33.566,50.646 33.331,50.646 33.096,50.646 C33.096,50.569 33.096,50.492 33.096,50.414 C32.940,50.414 32.783,50.414 32.627,50.414 C32.627,50.337 32.627,50.259 32.627,50.182 C32.471,50.182 32.314,50.182 32.158,50.182 C32.158,50.104 32.158,50.027 32.158,49.949 C32.001,49.949 31.845,49.949 31.688,49.949 C31.688,49.872 31.688,49.795 31.688,49.717 C31.532,49.717 31.375,49.717 31.219,49.717 C31.219,49.640 31.219,49.562 31.219,49.485 C31.140,49.485 31.062,49.485 30.984,49.485 C30.984,49.407 30.984,49.330 30.984,49.253 C30.906,49.253 30.827,49.253 30.749,49.253 C30.749,49.175 30.749,49.098 30.749,49.020 C30.593,49.020 30.436,49.020 30.280,49.020 C30.280,48.943 30.280,48.865 30.280,48.788 C30.202,48.788 30.123,48.788 30.045,48.788 C30.045,48.710 30.045,48.633 30.045,48.556 C29.967,48.556 29.889,48.556 29.810,48.556 C29.810,48.478 29.810,48.401 29.810,48.323 C29.732,48.323 29.654,48.323 29.576,48.323 C29.576,48.246 29.576,48.168 29.576,48.091 C29.497,48.091 29.419,48.091 29.341,48.091 C29.341,47.936 29.341,47.781 29.341,47.626 C29.263,47.626 29.184,47.626 29.106,47.626 C29.106,47.549 29.106,47.471 29.106,47.394 C29.028,47.394 28.950,47.394 28.871,47.394 C28.871,47.317 28.871,47.239 28.871,47.162 C28.793,47.162 28.715,47.162 28.637,47.162 C28.637,47.007 28.637,46.852 28.637,46.697 C28.558,46.697 28.480,46.697 28.402,46.697 C28.402,46.620 28.402,46.542 28.402,46.465 C28.324,46.465 28.245,46.465 28.167,46.465 C28.167,46.310 28.167,46.155 28.167,46.000 C28.089,46.000 28.011,46.000 27.932,46.000 C27.932,45.845 27.932,45.690 27.932,45.535 C27.854,45.535 27.776,45.535 27.698,45.535 C27.698,45.380 27.698,45.226 27.698,45.071 C27.620,45.071 27.541,45.071 27.463,45.071 C27.463,44.838 27.463,44.606 27.463,44.374 C27.385,44.374 27.307,44.374 27.228,44.374 C27.228,43.832 27.228,43.290 27.228,42.747 C27.307,42.747 27.385,42.747 27.463,42.747 C27.463,42.593 27.463,42.438 27.463,42.283 C27.541,42.283 27.620,42.283 27.698,42.283 C27.698,42.205 27.698,42.128 27.698,42.051 C27.932,42.051 28.167,42.051 28.402,42.051 C28.402,41.973 28.402,41.896 28.402,41.818 ZM28.167,62.030 C28.167,62.340 28.167,62.650 28.167,62.960 C28.089,62.960 28.011,62.960 27.932,62.960 C27.932,63.269 27.932,63.579 27.932,63.889 C27.854,63.889 27.776,63.889 27.698,63.889 C27.698,64.199 27.698,64.508 27.698,64.818 C27.620,64.818 27.541,64.818 27.463,64.818 C27.463,65.050 27.463,65.283 27.463,65.515 C27.385,65.515 27.307,65.515 27.228,65.515 C27.228,65.902 27.228,66.290 27.228,66.677 C27.150,66.677 27.072,66.677 26.994,66.677 C26.994,67.141 26.994,67.606 26.994,68.071 C27.072,68.071 27.150,68.071 27.228,68.071 C27.228,68.303 27.228,68.535 27.228,68.768 C27.307,68.768 27.385,68.768 27.463,68.768 C27.463,68.923 27.463,69.077 27.463,69.232 C27.541,69.232 27.620,69.232 27.698,69.232 C27.698,69.310 27.698,69.387 27.698,69.465 C27.776,69.465 27.854,69.465 27.932,69.465 C27.932,69.620 27.932,69.774 27.932,69.929 C28.011,69.929 28.089,69.929 28.167,69.929 C28.167,70.007 28.167,70.084 28.167,70.162 C28.245,70.162 28.324,70.162 28.402,70.162 C28.402,70.239 28.402,70.317 28.402,70.394 C28.558,70.394 28.715,70.394 28.871,70.394 C28.871,70.471 28.871,70.549 28.871,70.626 C28.950,70.626 29.028,70.626 29.106,70.626 C29.106,70.704 29.106,70.781 29.106,70.859 C29.184,70.859 29.263,70.859 29.341,70.859 C29.341,70.936 29.341,71.013 29.341,71.091 C29.497,71.091 29.654,71.091 29.810,71.091 C29.810,71.168 29.810,71.246 29.810,71.323 C29.889,71.323 29.967,71.323 30.045,71.323 C30.045,71.401 30.045,71.478 30.045,71.556 C30.123,71.556 30.202,71.556 30.280,71.556 C30.280,71.633 30.280,71.710 30.280,71.788 C30.436,71.788 30.593,71.788 30.749,71.788 C30.749,71.865 30.749,71.943 30.749,72.020 C30.827,72.020 30.906,72.020 30.984,72.020 C30.984,72.098 30.984,72.175 30.984,72.253 C31.062,72.253 31.140,72.253 31.219,72.253 C31.219,72.330 31.219,72.407 31.219,72.485 C31.375,72.485 31.532,72.485 31.688,72.485 C31.688,72.562 31.688,72.640 31.688,72.717 C31.766,72.717 31.845,72.717 31.923,72.717 C31.923,72.795 31.923,72.872 31.923,72.949 C32.001,72.949 32.079,72.949 32.158,72.949 C32.158,73.027 32.158,73.104 32.158,73.182 C32.314,73.182 32.471,73.182 32.627,73.182 C32.627,73.259 32.627,73.337 32.627,73.414 C32.705,73.414 32.784,73.414 32.862,73.414 C32.862,73.492 32.862,73.569 32.862,73.646 C33.018,73.646 33.175,73.646 33.331,73.646 C33.331,73.724 33.331,73.801 33.331,73.879 C33.409,73.879 33.488,73.879 33.566,73.879 C33.566,73.956 33.566,74.034 33.566,74.111 C33.644,74.111 33.722,74.111 33.801,74.111 C33.801,74.189 33.801,74.266 33.801,74.343 C33.957,74.343 34.114,74.343 34.270,74.343 C34.270,74.421 34.270,74.498 34.270,74.576 C34.348,74.576 34.427,74.576 34.505,74.576 C34.505,74.653 34.505,74.731 34.505,74.808 C34.583,74.808 34.661,74.808 34.740,74.808 C34.740,74.886 34.740,74.963 34.740,75.040 C34.896,75.040 35.053,75.040 35.209,75.040 C35.209,75.118 35.209,75.195 35.209,75.273 C35.600,75.273 35.991,75.273 36.383,75.273 C36.383,75.350 36.383,75.428 36.383,75.505 C36.539,75.505 36.696,75.505 36.852,75.505 C36.852,75.428 36.852,75.350 36.852,75.273 C37.243,75.273 37.635,75.273 38.026,75.273 C38.026,75.195 38.026,75.118 38.026,75.040 C38.182,75.040 38.339,75.040 38.495,75.040 C38.495,74.963 38.495,74.886 38.495,74.808 C38.652,74.808 38.808,74.808 38.965,74.808 C38.965,74.731 38.965,74.653 38.965,74.576 C39.043,74.576 39.121,74.576 39.199,74.576 C39.199,74.498 39.199,74.421 39.199,74.343 C39.278,74.343 39.356,74.343 39.434,74.343 C39.434,74.266 39.434,74.189 39.434,74.111 C39.591,74.111 39.747,74.111 39.904,74.111 C39.904,74.034 39.904,73.956 39.904,73.879 C39.982,73.879 40.060,73.879 40.138,73.879 C40.138,73.801 40.138,73.724 40.138,73.646 C40.216,73.646 40.295,73.646 40.373,73.646 C40.373,73.569 40.373,73.492 40.373,73.414 C40.529,73.414 40.686,73.414 40.842,73.414 C40.842,73.337 40.842,73.259 40.842,73.182 C40.921,73.182 40.999,73.182 41.077,73.182 C41.077,73.104 41.077,73.027 41.077,72.949 C41.234,72.949 41.390,72.949 41.547,72.949 C41.547,72.872 41.547,72.795 41.547,72.717 C41.625,72.717 41.703,72.717 41.781,72.717 C41.781,72.640 41.781,72.562 41.781,72.485 C41.860,72.485 41.938,72.485 42.016,72.485 C42.016,72.407 42.016,72.330 42.016,72.253 C42.173,72.253 42.329,72.253 42.486,72.253 C42.486,72.175 42.486,72.098 42.486,72.020 C42.564,72.020 42.642,72.020 42.720,72.020 C42.720,71.943 42.720,71.865 42.720,71.788 C42.798,71.788 42.877,71.788 42.955,71.788 C42.955,71.710 42.955,71.633 42.955,71.556 C43.111,71.556 43.268,71.556 43.424,71.556 C43.424,71.478 43.424,71.401 43.424,71.323 C43.503,71.323 43.581,71.323 43.659,71.323 C43.659,71.246 43.659,71.168 43.659,71.091 C43.737,71.091 43.816,71.091 43.894,71.091 C43.894,71.013 43.894,70.936 43.894,70.859 C44.050,70.859 44.207,70.859 44.363,70.859 C44.363,70.781 44.363,70.704 44.363,70.626 C44.442,70.626 44.520,70.626 44.598,70.626 C44.598,70.549 44.598,70.471 44.598,70.394 C44.676,70.394 44.755,70.394 44.833,70.394 C44.833,70.317 44.833,70.239 44.833,70.162 C44.911,70.162 44.989,70.162 45.068,70.162 C45.068,70.084 45.068,70.007 45.068,69.929 C45.146,69.929 45.224,69.929 45.302,69.929 C45.302,69.852 45.302,69.774 45.302,69.697 C45.380,69.697 45.459,69.697 45.537,69.697 C45.537,69.620 45.537,69.542 45.537,69.465 C45.615,69.465 45.693,69.465 45.772,69.465 C45.772,69.310 45.772,69.155 45.772,69.000 C45.850,69.000 45.928,69.000 46.006,69.000 C46.006,68.845 46.006,68.690 46.006,68.535 C46.085,68.535 46.163,68.535 46.241,68.535 C46.241,67.916 46.241,67.296 46.241,66.677 C46.163,66.677 46.085,66.677 46.006,66.677 C46.006,66.367 46.006,66.057 46.006,65.747 C45.928,65.747 45.850,65.747 45.772,65.747 C45.772,65.438 45.772,65.128 45.772,64.818 C45.693,64.818 45.615,64.818 45.537,64.818 C45.537,64.586 45.537,64.354 45.537,64.121 C45.459,64.121 45.380,64.121 45.302,64.121 C45.302,63.811 45.302,63.502 45.302,63.192 C45.224,63.192 45.146,63.192 45.068,63.192 C45.068,62.882 45.068,62.572 45.068,62.263 C44.989,62.263 44.911,62.263 44.833,62.263 C44.833,62.185 44.833,62.108 44.833,62.030 C44.676,62.030 44.520,62.030 44.363,62.030 C44.363,62.108 44.363,62.185 44.363,62.263 C44.129,62.263 43.894,62.263 43.659,62.263 C43.659,62.340 43.659,62.418 43.659,62.495 C43.424,62.495 43.190,62.495 42.955,62.495 C42.955,62.572 42.955,62.650 42.955,62.727 C42.720,62.727 42.486,62.727 42.251,62.727 C42.251,62.805 42.251,62.882 42.251,62.960 C42.016,62.960 41.781,62.960 41.547,62.960 C41.547,63.037 41.547,63.114 41.547,63.192 C41.155,63.192 40.764,63.192 40.373,63.192 C40.373,63.269 40.373,63.347 40.373,63.424 C39.904,63.424 39.434,63.424 38.965,63.424 C38.965,63.502 38.965,63.579 38.965,63.657 C37.322,63.657 35.678,63.657 34.035,63.657 C34.035,63.579 34.035,63.502 34.035,63.424 C33.566,63.424 33.096,63.424 32.627,63.424 C32.627,63.347 32.627,63.269 32.627,63.192 C32.314,63.192 32.001,63.192 31.688,63.192 C31.688,63.114 31.688,63.037 31.688,62.960 C31.375,62.960 31.062,62.960 30.749,62.960 C30.749,62.882 30.749,62.805 30.749,62.727 C30.514,62.727 30.280,62.727 30.045,62.727 C30.045,62.650 30.045,62.572 30.045,62.495 C29.810,62.495 29.576,62.495 29.341,62.495 C29.341,62.418 29.341,62.340 29.341,62.263 C29.184,62.263 29.028,62.263 28.871,62.263 C28.871,62.185 28.871,62.108 28.871,62.030 C28.637,62.030 28.402,62.030 28.167,62.030 Z"/>
</svg>
