<svg
        xmlns="http://www.w3.org/2000/svg"
        xmlns:xlink="http://www.w3.org/1999/xlink"
        width="42px" height="44px">
    <path fill-rule="evenodd"  fill="rgb(59, 59, 59)"
          d="M33.358,0.000 C33.502,0.000 33.646,0.000 33.790,0.000 C33.790,0.029 33.790,0.057 33.790,0.086 C33.848,0.086 33.905,0.086 33.963,0.086 C33.963,0.115 33.963,0.143 33.963,0.172 C34.021,0.172 34.078,0.172 34.136,0.172 C34.136,0.201 34.136,0.229 34.136,0.258 C34.165,0.258 34.193,0.258 34.222,0.258 C34.222,0.315 34.222,0.372 34.222,0.430 C34.251,0.430 34.280,0.430 34.309,0.430 C34.309,0.745 34.309,1.060 34.309,1.375 C34.280,1.375 34.251,1.375 34.222,1.375 C34.222,1.461 34.222,1.547 34.222,1.633 C34.193,1.633 34.165,1.633 34.136,1.633 C34.136,1.690 34.136,1.747 34.136,1.805 C34.107,1.805 34.078,1.805 34.049,1.805 C34.049,1.862 34.049,1.919 34.049,1.977 C34.021,1.977 33.992,1.977 33.963,1.977 C33.963,2.034 33.963,2.091 33.963,2.148 C33.934,2.148 33.905,2.148 33.877,2.148 C33.877,2.177 33.877,2.206 33.877,2.234 C33.848,2.234 33.819,2.234 33.790,2.234 C33.790,2.292 33.790,2.349 33.790,2.406 C33.761,2.406 33.733,2.406 33.704,2.406 C33.704,2.435 33.704,2.464 33.704,2.492 C33.675,2.492 33.646,2.492 33.617,2.492 C33.617,2.549 33.617,2.607 33.617,2.664 C33.588,2.664 33.560,2.664 33.531,2.664 C33.531,2.693 33.531,2.721 33.531,2.750 C33.502,2.750 33.473,2.750 33.444,2.750 C33.444,2.779 33.444,2.807 33.444,2.836 C33.416,2.836 33.387,2.836 33.358,2.836 C33.358,2.865 33.358,2.893 33.358,2.922 C33.329,2.922 33.300,2.922 33.272,2.922 C33.272,2.951 33.272,2.979 33.272,3.008 C33.243,3.008 33.214,3.008 33.185,3.008 C33.185,3.065 33.185,3.122 33.185,3.180 C33.156,3.180 33.128,3.180 33.099,3.180 C33.099,3.208 33.099,3.237 33.099,3.266 C33.070,3.266 33.041,3.266 33.012,3.266 C33.012,3.294 33.012,3.323 33.012,3.352 C32.984,3.352 32.955,3.352 32.926,3.352 C32.926,3.409 32.926,3.466 32.926,3.523 C32.897,3.523 32.868,3.523 32.840,3.523 C32.840,3.552 32.840,3.581 32.840,3.609 C32.811,3.609 32.782,3.609 32.753,3.609 C32.753,3.667 32.753,3.724 32.753,3.781 C32.724,3.781 32.695,3.781 32.667,3.781 C32.667,3.867 32.667,3.953 32.667,4.039 C32.638,4.039 32.609,4.039 32.580,4.039 C32.580,4.096 32.580,4.154 32.580,4.211 C32.551,4.211 32.523,4.211 32.494,4.211 C32.494,4.440 32.494,4.669 32.494,4.898 C32.465,4.898 32.436,4.898 32.407,4.898 C32.407,4.984 32.407,5.070 32.407,5.156 C32.436,5.156 32.465,5.156 32.494,5.156 C32.494,5.615 32.494,6.073 32.494,6.531 C32.523,6.531 32.551,6.531 32.580,6.531 C32.580,6.732 32.580,6.932 32.580,7.133 C32.609,7.133 32.638,7.133 32.667,7.133 C32.667,7.247 32.667,7.362 32.667,7.477 C32.695,7.477 32.724,7.477 32.753,7.477 C32.753,7.591 32.753,7.706 32.753,7.820 C32.782,7.820 32.811,7.820 32.840,7.820 C32.840,7.906 32.840,7.992 32.840,8.078 C32.811,8.078 32.782,8.078 32.753,8.078 C32.753,8.164 32.753,8.250 32.753,8.336 C32.724,8.336 32.695,8.336 32.667,8.336 C32.667,8.365 32.667,8.393 32.667,8.422 C32.638,8.422 32.609,8.422 32.580,8.422 C32.580,8.451 32.580,8.479 32.580,8.508 C32.551,8.508 32.523,8.508 32.494,8.508 C32.494,8.536 32.494,8.565 32.494,8.594 C32.465,8.594 32.436,8.594 32.407,8.594 C32.407,8.622 32.407,8.651 32.407,8.680 C32.177,8.680 31.946,8.680 31.716,8.680 C31.716,8.651 31.716,8.622 31.716,8.594 C31.687,8.594 31.658,8.594 31.630,8.594 C31.630,8.565 31.630,8.536 31.630,8.508 C31.572,8.508 31.514,8.508 31.457,8.508 C31.457,8.451 31.457,8.393 31.457,8.336 C31.428,8.336 31.399,8.336 31.370,8.336 C31.370,8.279 31.370,8.221 31.370,8.164 C31.342,8.164 31.313,8.164 31.284,8.164 C31.284,8.078 31.284,7.992 31.284,7.906 C31.255,7.906 31.226,7.906 31.198,7.906 C31.198,7.792 31.198,7.677 31.198,7.563 C31.169,7.563 31.140,7.563 31.111,7.563 C31.111,7.391 31.111,7.219 31.111,7.047 C31.082,7.047 31.053,7.047 31.025,7.047 C31.025,6.846 31.025,6.646 31.025,6.445 C30.996,6.445 30.967,6.445 30.938,6.445 C30.938,5.701 30.938,4.956 30.938,4.211 C30.967,4.211 30.996,4.211 31.025,4.211 C31.025,4.068 31.025,3.924 31.025,3.781 C31.053,3.781 31.082,3.781 31.111,3.781 C31.111,3.695 31.111,3.609 31.111,3.523 C31.140,3.523 31.169,3.523 31.198,3.523 C31.198,3.466 31.198,3.409 31.198,3.352 C31.226,3.352 31.255,3.352 31.284,3.352 C31.284,3.294 31.284,3.237 31.284,3.180 C31.313,3.180 31.342,3.180 31.370,3.180 C31.370,3.122 31.370,3.065 31.370,3.008 C31.399,3.008 31.428,3.008 31.457,3.008 C31.457,2.951 31.457,2.893 31.457,2.836 C31.486,2.836 31.514,2.836 31.543,2.836 C31.543,2.807 31.543,2.779 31.543,2.750 C31.572,2.750 31.601,2.750 31.630,2.750 C31.630,2.693 31.630,2.635 31.630,2.578 C31.658,2.578 31.687,2.578 31.716,2.578 C31.716,2.521 31.716,2.464 31.716,2.406 C31.745,2.406 31.774,2.406 31.802,2.406 C31.802,2.378 31.802,2.349 31.802,2.320 C31.831,2.320 31.860,2.320 31.889,2.320 C31.889,2.292 31.889,2.263 31.889,2.234 C31.918,2.234 31.947,2.234 31.975,2.234 C31.975,2.206 31.975,2.177 31.975,2.148 C32.004,2.148 32.033,2.148 32.062,2.148 C32.062,2.091 32.062,2.034 32.062,1.977 C32.091,1.977 32.119,1.977 32.148,1.977 C32.148,1.948 32.148,1.919 32.148,1.891 C32.177,1.891 32.206,1.891 32.235,1.891 C32.235,1.862 32.235,1.833 32.235,1.805 C32.263,1.805 32.292,1.805 32.321,1.805 C32.321,1.776 32.321,1.747 32.321,1.719 C32.350,1.719 32.379,1.719 32.407,1.719 C32.407,1.661 32.407,1.604 32.407,1.547 C32.436,1.547 32.465,1.547 32.494,1.547 C32.494,1.518 32.494,1.490 32.494,1.461 C32.523,1.461 32.551,1.461 32.580,1.461 C32.580,1.432 32.580,1.404 32.580,1.375 C32.609,1.375 32.638,1.375 32.667,1.375 C32.667,1.318 32.667,1.260 32.667,1.203 C32.695,1.203 32.724,1.203 32.753,1.203 C32.753,1.117 32.753,1.031 32.753,0.945 C32.782,0.945 32.811,0.945 32.840,0.945 C32.840,0.802 32.840,0.659 32.840,0.516 C32.868,0.516 32.897,0.516 32.926,0.516 C32.926,0.458 32.926,0.401 32.926,0.344 C32.955,0.344 32.984,0.344 33.012,0.344 C33.012,0.315 33.012,0.286 33.012,0.258 C33.041,0.258 33.070,0.258 33.099,0.258 C33.099,0.229 33.099,0.201 33.099,0.172 C33.128,0.172 33.156,0.172 33.185,0.172 C33.185,0.143 33.185,0.115 33.185,0.086 C33.243,0.086 33.300,0.086 33.358,0.086 C33.358,0.057 33.358,0.029 33.358,0.000 ZM37.160,0.000 C37.305,0.000 37.449,0.000 37.593,0.000 C37.593,0.029 37.593,0.057 37.593,0.086 C37.650,0.086 37.708,0.086 37.765,0.086 C37.765,0.115 37.765,0.143 37.765,0.172 C37.823,0.172 37.881,0.172 37.938,0.172 C37.938,0.201 37.938,0.229 37.938,0.258 C37.967,0.258 37.996,0.258 38.025,0.258 C38.025,0.315 38.025,0.372 38.025,0.430 C38.053,0.430 38.082,0.430 38.111,0.430 C38.111,0.516 38.111,0.602 38.111,0.687 C38.140,0.687 38.169,0.687 38.198,0.687 C38.198,0.773 38.198,0.859 38.198,0.945 C38.169,0.945 38.140,0.945 38.111,0.945 C38.111,1.117 38.111,1.289 38.111,1.461 C38.082,1.461 38.053,1.461 38.025,1.461 C38.025,1.518 38.025,1.576 38.025,1.633 C37.996,1.633 37.967,1.633 37.938,1.633 C37.938,1.719 37.938,1.805 37.938,1.891 C37.909,1.891 37.881,1.891 37.852,1.891 C37.852,1.948 37.852,2.005 37.852,2.063 C37.823,2.063 37.794,2.063 37.765,2.063 C37.765,2.091 37.765,2.120 37.765,2.148 C37.737,2.148 37.708,2.148 37.679,2.148 C37.679,2.206 37.679,2.263 37.679,2.320 C37.650,2.320 37.621,2.320 37.593,2.320 C37.593,2.349 37.593,2.378 37.593,2.406 C37.564,2.406 37.535,2.406 37.506,2.406 C37.506,2.435 37.506,2.464 37.506,2.492 C37.477,2.492 37.449,2.492 37.420,2.492 C37.420,2.549 37.420,2.607 37.420,2.664 C37.391,2.664 37.362,2.664 37.333,2.664 C37.333,2.693 37.333,2.721 37.333,2.750 C37.305,2.750 37.276,2.750 37.247,2.750 C37.247,2.779 37.247,2.807 37.247,2.836 C37.218,2.836 37.189,2.836 37.160,2.836 C37.160,2.865 37.160,2.893 37.160,2.922 C37.132,2.922 37.103,2.922 37.074,2.922 C37.074,2.979 37.074,3.036 37.074,3.094 C37.045,3.094 37.016,3.094 36.988,3.094 C36.988,3.122 36.988,3.151 36.988,3.180 C36.959,3.180 36.930,3.180 36.901,3.180 C36.901,3.208 36.901,3.237 36.901,3.266 C36.872,3.266 36.844,3.266 36.815,3.266 C36.815,3.294 36.815,3.323 36.815,3.352 C36.786,3.352 36.757,3.352 36.728,3.352 C36.728,3.409 36.728,3.466 36.728,3.523 C36.700,3.523 36.671,3.523 36.642,3.523 C36.642,3.581 36.642,3.638 36.642,3.695 C36.613,3.695 36.584,3.695 36.556,3.695 C36.556,3.724 36.556,3.753 36.556,3.781 C36.527,3.781 36.498,3.781 36.469,3.781 C36.469,3.867 36.469,3.953 36.469,4.039 C36.440,4.039 36.412,4.039 36.383,4.039 C36.383,4.125 36.383,4.211 36.383,4.297 C36.354,4.297 36.325,4.297 36.296,4.297 C36.296,5.013 36.296,5.729 36.296,6.445 C36.325,6.445 36.354,6.445 36.383,6.445 C36.383,6.674 36.383,6.904 36.383,7.133 C36.412,7.133 36.440,7.133 36.469,7.133 C36.469,7.247 36.469,7.362 36.469,7.477 C36.498,7.477 36.527,7.477 36.556,7.477 C36.556,7.591 36.556,7.706 36.556,7.820 C36.584,7.820 36.613,7.820 36.642,7.820 C36.642,7.935 36.642,8.049 36.642,8.164 C36.613,8.164 36.584,8.164 36.556,8.164 C36.556,8.221 36.556,8.279 36.556,8.336 C36.527,8.336 36.498,8.336 36.469,8.336 C36.469,8.393 36.469,8.451 36.469,8.508 C36.412,8.508 36.354,8.508 36.296,8.508 C36.296,8.536 36.296,8.565 36.296,8.594 C36.267,8.594 36.239,8.594 36.210,8.594 C36.210,8.622 36.210,8.651 36.210,8.680 C35.979,8.680 35.749,8.680 35.519,8.680 C35.519,8.651 35.519,8.622 35.519,8.594 C35.490,8.594 35.461,8.594 35.432,8.594 C35.432,8.565 35.432,8.536 35.432,8.508 C35.403,8.508 35.374,8.508 35.346,8.508 C35.346,8.479 35.346,8.451 35.346,8.422 C35.317,8.422 35.288,8.422 35.259,8.422 C35.259,8.393 35.259,8.365 35.259,8.336 C35.230,8.336 35.202,8.336 35.173,8.336 C35.173,8.279 35.173,8.221 35.173,8.164 C35.144,8.164 35.115,8.164 35.086,8.164 C35.086,8.049 35.086,7.935 35.086,7.820 C35.058,7.820 35.029,7.820 35.000,7.820 C35.000,7.734 35.000,7.648 35.000,7.563 C34.971,7.563 34.942,7.563 34.914,7.563 C34.914,7.362 34.914,7.161 34.914,6.961 C34.885,6.961 34.856,6.961 34.827,6.961 C34.827,6.703 34.827,6.445 34.827,6.187 C34.798,6.187 34.770,6.187 34.741,6.187 C34.741,5.557 34.741,4.927 34.741,4.297 C34.770,4.297 34.798,4.297 34.827,4.297 C34.827,4.154 34.827,4.010 34.827,3.867 C34.856,3.867 34.885,3.867 34.914,3.867 C34.914,3.781 34.914,3.695 34.914,3.609 C34.942,3.609 34.971,3.609 35.000,3.609 C35.000,3.523 35.000,3.437 35.000,3.352 C35.029,3.352 35.058,3.352 35.086,3.352 C35.086,3.294 35.086,3.237 35.086,3.180 C35.115,3.180 35.144,3.180 35.173,3.180 C35.173,3.122 35.173,3.065 35.173,3.008 C35.202,3.008 35.230,3.008 35.259,3.008 C35.259,2.951 35.259,2.893 35.259,2.836 C35.288,2.836 35.317,2.836 35.346,2.836 C35.346,2.807 35.346,2.779 35.346,2.750 C35.374,2.750 35.403,2.750 35.432,2.750 C35.432,2.693 35.432,2.635 35.432,2.578 C35.461,2.578 35.490,2.578 35.519,2.578 C35.519,2.549 35.519,2.521 35.519,2.492 C35.547,2.492 35.576,2.492 35.605,2.492 C35.605,2.435 35.605,2.378 35.605,2.320 C35.634,2.320 35.663,2.320 35.691,2.320 C35.691,2.292 35.691,2.263 35.691,2.234 C35.720,2.234 35.749,2.234 35.778,2.234 C35.778,2.206 35.778,2.177 35.778,2.148 C35.807,2.148 35.835,2.148 35.864,2.148 C35.864,2.120 35.864,2.091 35.864,2.063 C35.893,2.063 35.922,2.063 35.951,2.063 C35.951,2.005 35.951,1.948 35.951,1.891 C35.979,1.891 36.008,1.891 36.037,1.891 C36.037,1.862 36.037,1.833 36.037,1.805 C36.066,1.805 36.095,1.805 36.123,1.805 C36.123,1.776 36.123,1.747 36.123,1.719 C36.152,1.719 36.181,1.719 36.210,1.719 C36.210,1.661 36.210,1.604 36.210,1.547 C36.239,1.547 36.267,1.547 36.296,1.547 C36.296,1.518 36.296,1.490 36.296,1.461 C36.325,1.461 36.354,1.461 36.383,1.461 C36.383,1.432 36.383,1.404 36.383,1.375 C36.412,1.375 36.440,1.375 36.469,1.375 C36.469,1.318 36.469,1.260 36.469,1.203 C36.498,1.203 36.527,1.203 36.556,1.203 C36.556,1.146 36.556,1.089 36.556,1.031 C36.584,1.031 36.613,1.031 36.642,1.031 C36.642,0.859 36.642,0.687 36.642,0.516 C36.671,0.516 36.700,0.516 36.728,0.516 C36.728,0.458 36.728,0.401 36.728,0.344 C36.757,0.344 36.786,0.344 36.815,0.344 C36.815,0.315 36.815,0.286 36.815,0.258 C36.844,0.258 36.872,0.258 36.901,0.258 C36.901,0.229 36.901,0.201 36.901,0.172 C36.930,0.172 36.959,0.172 36.988,0.172 C36.988,0.143 36.988,0.115 36.988,0.086 C37.045,0.086 37.103,0.086 37.160,0.086 C37.160,0.057 37.160,0.029 37.160,0.000 ZM29.469,9.883 C32.205,9.883 34.943,9.883 37.679,9.883 C37.679,9.911 37.679,9.940 37.679,9.969 C37.737,9.969 37.794,9.969 37.852,9.969 C37.852,9.997 37.852,10.026 37.852,10.055 C37.881,10.055 37.909,10.055 37.938,10.055 C37.938,10.083 37.938,10.112 37.938,10.141 C37.967,10.141 37.996,10.141 38.025,10.141 C38.025,10.169 38.025,10.198 38.025,10.227 C38.053,10.227 38.082,10.227 38.111,10.227 C38.111,10.312 38.111,10.398 38.111,10.484 C38.140,10.484 38.169,10.484 38.198,10.484 C38.198,10.799 38.198,11.115 38.198,11.430 C38.226,11.430 38.255,11.430 38.284,11.430 C38.284,11.773 38.284,12.117 38.284,12.461 C38.313,12.461 38.342,12.461 38.370,12.461 C38.370,12.776 38.370,13.091 38.370,13.406 C38.399,13.406 38.428,13.406 38.457,13.406 C38.457,13.750 38.457,14.094 38.457,14.437 C38.486,14.437 38.514,14.437 38.543,14.437 C38.543,14.753 38.543,15.068 38.543,15.383 C38.572,15.383 38.601,15.383 38.630,15.383 C38.630,15.727 38.630,16.070 38.630,16.414 C38.658,16.414 38.687,16.414 38.716,16.414 C38.716,16.729 38.716,17.044 38.716,17.359 C38.745,17.359 38.774,17.359 38.802,17.359 C38.802,17.703 38.802,18.047 38.802,18.391 C38.831,18.391 38.860,18.391 38.889,18.391 C38.889,18.706 38.889,19.021 38.889,19.336 C38.918,19.336 38.947,19.336 38.975,19.336 C38.975,19.680 38.975,20.023 38.975,20.367 C39.004,20.367 39.033,20.367 39.062,20.367 C39.062,20.682 39.062,20.997 39.062,21.312 C39.091,21.312 39.119,21.312 39.148,21.312 C39.148,21.656 39.148,22.000 39.148,22.344 C39.177,22.344 39.206,22.344 39.235,22.344 C39.235,22.659 39.235,22.974 39.235,23.289 C39.263,23.289 39.292,23.289 39.321,23.289 C39.321,23.633 39.321,23.977 39.321,24.320 C39.350,24.320 39.379,24.320 39.407,24.320 C39.407,24.635 39.407,24.951 39.407,25.266 C39.436,25.266 39.465,25.266 39.494,25.266 C39.494,25.609 39.494,25.953 39.494,26.297 C39.523,26.297 39.551,26.297 39.580,26.297 C39.580,26.612 39.580,26.927 39.580,27.242 C39.609,27.242 39.638,27.242 39.667,27.242 C39.667,27.271 39.667,27.299 39.667,27.328 C40.272,27.328 40.877,27.328 41.481,27.328 C41.481,27.357 41.481,27.385 41.481,27.414 C41.539,27.414 41.597,27.414 41.654,27.414 C41.654,27.443 41.654,27.471 41.654,27.500 C41.683,27.500 41.712,27.500 41.741,27.500 C41.741,27.529 41.741,27.557 41.741,27.586 C41.770,27.586 41.798,27.586 41.827,27.586 C41.827,27.615 41.827,27.643 41.827,27.672 C41.856,27.672 41.885,27.672 41.914,27.672 C41.914,27.758 41.914,27.844 41.914,27.930 C41.942,27.930 41.971,27.930 42.000,27.930 C42.000,33.057 42.000,38.185 42.000,43.313 C41.971,43.313 41.942,43.313 41.914,43.313 C41.914,43.398 41.914,43.484 41.914,43.570 C41.885,43.570 41.856,43.570 41.827,43.570 C41.827,43.628 41.827,43.685 41.827,43.742 C41.798,43.742 41.770,43.742 41.741,43.742 C41.741,43.771 41.741,43.799 41.741,43.828 C41.712,43.828 41.683,43.828 41.654,43.828 C41.654,43.857 41.654,43.885 41.654,43.914 C41.568,43.914 41.481,43.914 41.395,43.914 C41.395,43.943 41.395,43.971 41.395,44.000 C27.800,44.000 14.200,44.000 0.605,44.000 C0.605,43.971 0.605,43.943 0.605,43.914 C0.519,43.914 0.432,43.914 0.346,43.914 C0.346,43.885 0.346,43.857 0.346,43.828 C0.317,43.828 0.288,43.828 0.259,43.828 C0.259,43.799 0.259,43.771 0.259,43.742 C0.230,43.742 0.202,43.742 0.173,43.742 C0.173,43.685 0.173,43.628 0.173,43.570 C0.144,43.570 0.115,43.570 0.086,43.570 C0.086,43.484 0.086,43.398 0.086,43.313 C0.058,43.313 0.029,43.313 -0.000,43.313 C-0.000,38.185 -0.000,33.057 -0.000,27.930 C0.029,27.930 0.058,27.930 0.086,27.930 C0.086,27.844 0.086,27.758 0.086,27.672 C0.115,27.672 0.144,27.672 0.173,27.672 C0.173,27.643 0.173,27.615 0.173,27.586 C0.202,27.586 0.230,27.586 0.259,27.586 C0.259,27.557 0.259,27.529 0.259,27.500 C0.288,27.500 0.317,27.500 0.346,27.500 C0.346,27.471 0.346,27.443 0.346,27.414 C0.403,27.414 0.461,27.414 0.519,27.414 C0.519,27.385 0.519,27.357 0.519,27.328 C1.354,27.328 2.189,27.328 3.025,27.328 C3.025,27.299 3.025,27.271 3.025,27.242 C3.053,27.242 3.082,27.242 3.111,27.242 C3.111,24.893 3.111,22.544 3.111,20.195 C3.140,20.195 3.169,20.195 3.198,20.195 C3.198,20.138 3.198,20.081 3.198,20.023 C3.226,20.023 3.255,20.023 3.284,20.023 C3.284,19.995 3.284,19.966 3.284,19.938 C3.313,19.938 3.342,19.938 3.370,19.938 C3.370,19.909 3.370,19.880 3.370,19.852 C3.428,19.852 3.486,19.852 3.543,19.852 C3.543,19.823 3.543,19.794 3.543,19.766 C3.601,19.766 3.658,19.766 3.716,19.766 C3.716,19.737 3.716,19.708 3.716,19.680 C3.802,19.680 3.889,19.680 3.975,19.680 C3.975,19.651 3.975,19.622 3.975,19.594 C4.062,19.594 4.148,19.594 4.235,19.594 C4.235,19.565 4.235,19.536 4.235,19.508 C4.321,19.508 4.407,19.508 4.494,19.508 C4.494,19.479 4.494,19.451 4.494,19.422 C4.580,19.422 4.667,19.422 4.753,19.422 C4.753,19.393 4.753,19.365 4.753,19.336 C4.839,19.336 4.926,19.336 5.012,19.336 C5.012,19.307 5.012,19.279 5.012,19.250 C5.099,19.250 5.185,19.250 5.272,19.250 C5.272,19.221 5.272,19.193 5.272,19.164 C5.358,19.164 5.444,19.164 5.531,19.164 C5.531,19.135 5.531,19.107 5.531,19.078 C5.617,19.078 5.704,19.078 5.790,19.078 C5.790,19.049 5.790,19.021 5.790,18.992 C5.877,18.992 5.963,18.992 6.049,18.992 C6.049,18.964 6.049,18.935 6.049,18.906 C6.136,18.906 6.222,18.906 6.309,18.906 C6.309,18.878 6.309,18.849 6.309,18.820 C6.395,18.820 6.481,18.820 6.568,18.820 C6.568,18.792 6.568,18.763 6.568,18.734 C6.654,18.734 6.741,18.734 6.827,18.734 C6.827,18.706 6.827,18.677 6.827,18.648 C6.914,18.648 7.000,18.648 7.086,18.648 C7.086,18.620 7.086,18.591 7.086,18.562 C7.173,18.562 7.259,18.562 7.346,18.562 C7.346,18.534 7.346,18.505 7.346,18.477 C7.432,18.477 7.519,18.477 7.605,18.477 C7.605,18.448 7.605,18.419 7.605,18.391 C7.691,18.391 7.778,18.391 7.864,18.391 C7.864,18.362 7.864,18.333 7.864,18.305 C7.951,18.305 8.037,18.305 8.123,18.305 C8.123,18.276 8.123,18.247 8.123,18.219 C8.210,18.219 8.296,18.219 8.383,18.219 C8.383,18.190 8.383,18.161 8.383,18.133 C8.469,18.133 8.556,18.133 8.642,18.133 C8.642,18.104 8.642,18.076 8.642,18.047 C8.728,18.047 8.815,18.047 8.901,18.047 C8.901,18.018 8.901,17.990 8.901,17.961 C8.988,17.961 9.074,17.961 9.160,17.961 C9.160,17.932 9.160,17.904 9.160,17.875 C9.247,17.875 9.333,17.875 9.420,17.875 C9.420,17.846 9.420,17.818 9.420,17.789 C9.506,17.789 9.593,17.789 9.679,17.789 C9.679,17.760 9.679,17.732 9.679,17.703 C9.765,17.703 9.852,17.703 9.938,17.703 C9.938,17.674 9.938,17.646 9.938,17.617 C10.025,17.617 10.111,17.617 10.198,17.617 C10.198,17.589 10.198,17.560 10.198,17.531 C10.284,17.531 10.370,17.531 10.457,17.531 C10.457,17.503 10.457,17.474 10.457,17.445 C10.601,17.445 10.745,17.445 10.889,17.445 C10.889,17.474 10.889,17.503 10.889,17.531 C10.975,17.531 11.062,17.531 11.148,17.531 C11.148,17.560 11.148,17.589 11.148,17.617 C11.177,17.617 11.206,17.617 11.235,17.617 C11.235,17.646 11.235,17.674 11.235,17.703 C11.263,17.703 11.292,17.703 11.321,17.703 C11.321,17.760 11.321,17.818 11.321,17.875 C11.350,17.875 11.379,17.875 11.407,17.875 C11.407,17.961 11.407,18.047 11.407,18.133 C11.436,18.133 11.465,18.133 11.494,18.133 C11.494,21.198 11.494,24.263 11.494,27.328 C11.983,27.328 12.473,27.328 12.963,27.328 C12.963,24.263 12.963,21.198 12.963,18.133 C12.992,18.133 13.021,18.133 13.049,18.133 C13.049,18.047 13.049,17.961 13.049,17.875 C13.078,17.875 13.107,17.875 13.136,17.875 C13.136,17.818 13.136,17.760 13.136,17.703 C13.165,17.703 13.193,17.703 13.222,17.703 C13.222,17.674 13.222,17.646 13.222,17.617 C13.251,17.617 13.280,17.617 13.309,17.617 C13.309,17.589 13.309,17.560 13.309,17.531 C13.366,17.531 13.424,17.531 13.481,17.531 C13.481,17.503 13.481,17.474 13.481,17.445 C13.654,17.445 13.827,17.445 14.000,17.445 C14.000,17.474 14.000,17.503 14.000,17.531 C14.086,17.531 14.173,17.531 14.259,17.531 C14.259,17.560 14.259,17.589 14.259,17.617 C14.346,17.617 14.432,17.617 14.519,17.617 C14.519,17.646 14.519,17.674 14.519,17.703 C14.605,17.703 14.691,17.703 14.778,17.703 C14.778,17.732 14.778,17.760 14.778,17.789 C14.864,17.789 14.951,17.789 15.037,17.789 C15.037,17.818 15.037,17.846 15.037,17.875 C15.123,17.875 15.210,17.875 15.296,17.875 C15.296,17.904 15.296,17.932 15.296,17.961 C15.383,17.961 15.469,17.961 15.556,17.961 C15.556,17.990 15.556,18.018 15.556,18.047 C15.642,18.047 15.728,18.047 15.815,18.047 C15.815,18.076 15.815,18.104 15.815,18.133 C15.901,18.133 15.988,18.133 16.074,18.133 C16.074,18.161 16.074,18.190 16.074,18.219 C16.160,18.219 16.247,18.219 16.333,18.219 C16.333,18.247 16.333,18.276 16.333,18.305 C16.420,18.305 16.506,18.305 16.593,18.305 C16.593,18.333 16.593,18.362 16.593,18.391 C16.679,18.391 16.765,18.391 16.852,18.391 C16.852,18.419 16.852,18.448 16.852,18.477 C16.938,18.477 17.025,18.477 17.111,18.477 C17.111,18.505 17.111,18.534 17.111,18.562 C17.198,18.562 17.284,18.562 17.370,18.562 C17.370,18.591 17.370,18.620 17.370,18.648 C17.457,18.648 17.543,18.648 17.630,18.648 C17.630,18.677 17.630,18.706 17.630,18.734 C17.716,18.734 17.802,18.734 17.889,18.734 C17.889,18.763 17.889,18.792 17.889,18.820 C17.975,18.820 18.062,18.820 18.148,18.820 C18.148,18.849 18.148,18.878 18.148,18.906 C18.235,18.906 18.321,18.906 18.407,18.906 C18.407,18.935 18.407,18.964 18.407,18.992 C18.494,18.992 18.580,18.992 18.667,18.992 C18.667,19.021 18.667,19.049 18.667,19.078 C18.753,19.078 18.840,19.078 18.926,19.078 C18.926,19.107 18.926,19.135 18.926,19.164 C19.012,19.164 19.099,19.164 19.185,19.164 C19.185,19.193 19.185,19.221 19.185,19.250 C19.272,19.250 19.358,19.250 19.444,19.250 C19.444,19.279 19.444,19.307 19.444,19.336 C19.531,19.336 19.617,19.336 19.704,19.336 C19.704,19.365 19.704,19.393 19.704,19.422 C19.790,19.422 19.877,19.422 19.963,19.422 C19.963,19.451 19.963,19.479 19.963,19.508 C20.049,19.508 20.136,19.508 20.222,19.508 C20.222,19.536 20.222,19.565 20.222,19.594 C20.309,19.594 20.395,19.594 20.481,19.594 C20.481,19.622 20.481,19.651 20.481,19.680 C20.568,19.680 20.654,19.680 20.741,19.680 C20.741,19.708 20.741,19.737 20.741,19.766 C20.798,19.766 20.856,19.766 20.914,19.766 C20.914,19.794 20.914,19.823 20.914,19.852 C20.971,19.852 21.029,19.852 21.086,19.852 C21.086,19.880 21.086,19.909 21.086,19.938 C21.115,19.938 21.144,19.938 21.173,19.938 C21.173,19.966 21.173,19.995 21.173,20.023 C21.202,20.023 21.230,20.023 21.259,20.023 C21.259,20.081 21.259,20.138 21.259,20.195 C21.288,20.195 21.317,20.195 21.346,20.195 C21.346,22.544 21.346,24.893 21.346,27.242 C21.374,27.242 21.403,27.242 21.432,27.242 C21.432,27.271 21.432,27.299 21.432,27.328 C23.477,27.328 25.523,27.328 27.568,27.328 C27.568,27.099 27.568,26.870 27.568,26.641 C27.597,26.641 27.626,26.641 27.654,26.641 C27.654,26.297 27.654,25.953 27.654,25.609 C27.683,25.609 27.712,25.609 27.741,25.609 C27.741,25.266 27.741,24.922 27.741,24.578 C27.770,24.578 27.798,24.578 27.827,24.578 C27.827,24.263 27.827,23.948 27.827,23.633 C27.856,23.633 27.885,23.633 27.914,23.633 C27.914,23.289 27.914,22.945 27.914,22.602 C27.942,22.602 27.971,22.602 28.000,22.602 C28.000,22.286 28.000,21.971 28.000,21.656 C28.029,21.656 28.058,21.656 28.086,21.656 C28.086,21.313 28.086,20.969 28.086,20.625 C28.115,20.625 28.144,20.625 28.173,20.625 C28.173,20.310 28.173,19.995 28.173,19.680 C28.202,19.680 28.230,19.680 28.259,19.680 C28.259,19.336 28.259,18.992 28.259,18.648 C28.288,18.648 28.317,18.648 28.346,18.648 C28.346,18.333 28.346,18.018 28.346,17.703 C28.374,17.703 28.403,17.703 28.432,17.703 C28.432,17.359 28.432,17.016 28.432,16.672 C28.461,16.672 28.490,16.672 28.519,16.672 C28.519,16.357 28.519,16.042 28.519,15.727 C28.547,15.727 28.576,15.727 28.605,15.727 C28.605,15.383 28.605,15.039 28.605,14.695 C28.634,14.695 28.663,14.695 28.691,14.695 C28.691,14.380 28.691,14.065 28.691,13.750 C28.720,13.750 28.749,13.750 28.778,13.750 C28.778,13.406 28.778,13.062 28.778,12.719 C28.807,12.719 28.835,12.719 28.864,12.719 C28.864,12.404 28.864,12.089 28.864,11.773 C28.893,11.773 28.922,11.773 28.951,11.773 C28.951,11.430 28.951,11.086 28.951,10.742 C28.979,10.742 29.008,10.742 29.037,10.742 C29.037,10.599 29.037,10.456 29.037,10.312 C29.066,10.312 29.095,10.312 29.123,10.312 C29.123,10.255 29.123,10.198 29.123,10.141 C29.152,10.141 29.181,10.141 29.210,10.141 C29.210,10.112 29.210,10.083 29.210,10.055 C29.239,10.055 29.267,10.055 29.296,10.055 C29.296,10.026 29.296,9.997 29.296,9.969 C29.354,9.969 29.412,9.969 29.469,9.969 C29.469,9.940 29.469,9.911 29.469,9.883 ZM30.506,11.344 C30.506,11.401 30.506,11.458 30.506,11.516 C30.477,11.516 30.449,11.516 30.420,11.516 C30.420,11.831 30.420,12.146 30.420,12.461 C30.391,12.461 30.362,12.461 30.333,12.461 C30.333,12.805 30.333,13.148 30.333,13.492 C30.305,13.492 30.276,13.492 30.247,13.492 C30.247,13.807 30.247,14.122 30.247,14.437 C30.218,14.437 30.189,14.437 30.160,14.437 C30.160,14.781 30.160,15.125 30.160,15.469 C30.132,15.469 30.103,15.469 30.074,15.469 C30.074,15.784 30.074,16.099 30.074,16.414 C30.045,16.414 30.016,16.414 29.988,16.414 C29.988,16.758 29.988,17.102 29.988,17.445 C29.959,17.445 29.930,17.445 29.901,17.445 C29.901,17.760 29.901,18.076 29.901,18.391 C29.872,18.391 29.844,18.391 29.815,18.391 C29.815,18.734 29.815,19.078 29.815,19.422 C29.786,19.422 29.757,19.422 29.728,19.422 C29.728,19.737 29.728,20.052 29.728,20.367 C29.700,20.367 29.671,20.367 29.642,20.367 C29.642,20.711 29.642,21.055 29.642,21.398 C29.613,21.398 29.584,21.398 29.556,21.398 C29.556,21.714 29.556,22.029 29.556,22.344 C29.527,22.344 29.498,22.344 29.469,22.344 C29.469,22.687 29.469,23.031 29.469,23.375 C29.440,23.375 29.412,23.375 29.383,23.375 C29.383,23.690 29.383,24.005 29.383,24.320 C29.354,24.320 29.325,24.320 29.296,24.320 C29.296,24.664 29.296,25.008 29.296,25.352 C29.267,25.352 29.239,25.352 29.210,25.352 C29.210,25.667 29.210,25.982 29.210,26.297 C29.181,26.297 29.152,26.297 29.123,26.297 C29.123,26.641 29.123,26.984 29.123,27.328 C32.119,27.328 35.116,27.328 38.111,27.328 C38.111,27.214 38.111,27.099 38.111,26.984 C38.082,26.984 38.053,26.984 38.025,26.984 C38.025,26.669 38.025,26.354 38.025,26.039 C37.996,26.039 37.967,26.039 37.938,26.039 C37.938,25.695 37.938,25.352 37.938,25.008 C37.909,25.008 37.881,25.008 37.852,25.008 C37.852,24.693 37.852,24.378 37.852,24.062 C37.823,24.062 37.794,24.062 37.765,24.062 C37.765,23.719 37.765,23.375 37.765,23.031 C37.737,23.031 37.708,23.031 37.679,23.031 C37.679,22.716 37.679,22.401 37.679,22.086 C37.650,22.086 37.621,22.086 37.593,22.086 C37.593,21.742 37.593,21.398 37.593,21.055 C37.564,21.055 37.535,21.055 37.506,21.055 C37.506,20.740 37.506,20.424 37.506,20.109 C37.477,20.109 37.449,20.109 37.420,20.109 C37.420,19.766 37.420,19.422 37.420,19.078 C37.391,19.078 37.362,19.078 37.333,19.078 C37.333,18.763 37.333,18.448 37.333,18.133 C37.305,18.133 37.276,18.133 37.247,18.133 C37.247,17.789 37.247,17.445 37.247,17.102 C37.218,17.102 37.189,17.102 37.160,17.102 C37.160,16.786 37.160,16.471 37.160,16.156 C37.132,16.156 37.103,16.156 37.074,16.156 C37.074,15.813 37.074,15.469 37.074,15.125 C37.045,15.125 37.016,15.125 36.988,15.125 C36.988,14.810 36.988,14.495 36.988,14.180 C36.959,14.180 36.930,14.180 36.901,14.180 C36.901,13.836 36.901,13.492 36.901,13.148 C36.872,13.148 36.844,13.148 36.815,13.148 C36.815,12.833 36.815,12.518 36.815,12.203 C36.786,12.203 36.757,12.203 36.728,12.203 C36.728,11.945 36.728,11.687 36.728,11.430 C36.700,11.430 36.671,11.430 36.642,11.430 C36.642,11.401 36.642,11.372 36.642,11.344 C34.597,11.344 32.551,11.344 30.506,11.344 ZM9.852,19.250 C9.852,19.279 9.852,19.307 9.852,19.336 C9.765,19.336 9.679,19.336 9.593,19.336 C9.593,19.365 9.593,19.393 9.593,19.422 C9.506,19.422 9.420,19.422 9.333,19.422 C9.333,19.451 9.333,19.479 9.333,19.508 C9.247,19.508 9.160,19.508 9.074,19.508 C9.074,19.536 9.074,19.565 9.074,19.594 C8.988,19.594 8.901,19.594 8.815,19.594 C8.815,19.622 8.815,19.651 8.815,19.680 C8.728,19.680 8.642,19.680 8.556,19.680 C8.556,19.708 8.556,19.737 8.556,19.766 C8.469,19.766 8.383,19.766 8.296,19.766 C8.296,19.794 8.296,19.823 8.296,19.852 C8.210,19.852 8.123,19.852 8.037,19.852 C8.037,19.880 8.037,19.909 8.037,19.938 C7.951,19.938 7.864,19.938 7.778,19.938 C7.778,19.966 7.778,19.995 7.778,20.023 C7.691,20.023 7.605,20.023 7.519,20.023 C7.519,20.052 7.519,20.081 7.519,20.109 C7.432,20.109 7.346,20.109 7.259,20.109 C7.259,20.138 7.259,20.167 7.259,20.195 C7.173,20.195 7.086,20.195 7.000,20.195 C7.000,20.224 7.000,20.253 7.000,20.281 C6.914,20.281 6.827,20.281 6.741,20.281 C6.741,20.310 6.741,20.339 6.741,20.367 C6.654,20.367 6.568,20.367 6.481,20.367 C6.481,20.396 6.481,20.424 6.481,20.453 C6.395,20.453 6.309,20.453 6.222,20.453 C6.222,20.482 6.222,20.510 6.222,20.539 C6.136,20.539 6.049,20.539 5.963,20.539 C5.963,20.568 5.963,20.596 5.963,20.625 C5.877,20.625 5.790,20.625 5.704,20.625 C5.704,20.654 5.704,20.682 5.704,20.711 C5.617,20.711 5.531,20.711 5.444,20.711 C5.444,20.740 5.444,20.768 5.444,20.797 C5.358,20.797 5.272,20.797 5.185,20.797 C5.185,20.826 5.185,20.854 5.185,20.883 C5.099,20.883 5.012,20.883 4.926,20.883 C4.926,20.911 4.926,20.940 4.926,20.969 C4.840,20.969 4.753,20.969 4.667,20.969 C4.667,20.997 4.667,21.026 4.667,21.055 C4.638,21.055 4.609,21.055 4.580,21.055 C4.580,23.146 4.580,25.237 4.580,27.328 C6.366,27.328 8.152,27.328 9.938,27.328 C9.938,24.636 9.938,21.942 9.938,19.250 C9.909,19.250 9.881,19.250 9.852,19.250 ZM14.519,19.250 C14.519,21.942 14.519,24.636 14.519,27.328 C16.304,27.328 18.091,27.328 19.877,27.328 C19.877,25.237 19.877,23.146 19.877,21.055 C19.848,21.055 19.819,21.055 19.790,21.055 C19.790,21.026 19.790,20.997 19.790,20.969 C19.704,20.969 19.617,20.969 19.531,20.969 C19.531,20.940 19.531,20.911 19.531,20.883 C19.444,20.883 19.358,20.883 19.272,20.883 C19.272,20.854 19.272,20.826 19.272,20.797 C19.185,20.797 19.099,20.797 19.012,20.797 C19.012,20.768 19.012,20.740 19.012,20.711 C18.926,20.711 18.839,20.711 18.753,20.711 C18.753,20.682 18.753,20.654 18.753,20.625 C18.667,20.625 18.580,20.625 18.494,20.625 C18.494,20.596 18.494,20.568 18.494,20.539 C18.407,20.539 18.321,20.539 18.235,20.539 C18.235,20.510 18.235,20.482 18.235,20.453 C18.148,20.453 18.062,20.453 17.975,20.453 C17.975,20.424 17.975,20.396 17.975,20.367 C17.889,20.367 17.802,20.367 17.716,20.367 C17.716,20.339 17.716,20.310 17.716,20.281 C17.630,20.281 17.543,20.281 17.457,20.281 C17.457,20.253 17.457,20.224 17.457,20.195 C17.370,20.195 17.284,20.195 17.198,20.195 C17.198,20.167 17.198,20.138 17.198,20.109 C17.111,20.109 17.025,20.109 16.938,20.109 C16.938,20.081 16.938,20.052 16.938,20.023 C16.852,20.023 16.765,20.023 16.679,20.023 C16.679,19.995 16.679,19.966 16.679,19.938 C16.593,19.938 16.506,19.938 16.420,19.938 C16.420,19.909 16.420,19.880 16.420,19.852 C16.333,19.852 16.247,19.852 16.160,19.852 C16.160,19.823 16.160,19.794 16.160,19.766 C16.074,19.766 15.988,19.766 15.901,19.766 C15.901,19.737 15.901,19.708 15.901,19.680 C15.815,19.680 15.728,19.680 15.642,19.680 C15.642,19.651 15.642,19.622 15.642,19.594 C15.556,19.594 15.469,19.594 15.383,19.594 C15.383,19.565 15.383,19.536 15.383,19.508 C15.296,19.508 15.210,19.508 15.123,19.508 C15.123,19.479 15.123,19.451 15.123,19.422 C15.037,19.422 14.951,19.422 14.864,19.422 C14.864,19.393 14.864,19.365 14.864,19.336 C14.778,19.336 14.691,19.336 14.605,19.336 C14.605,19.307 14.605,19.279 14.605,19.250 C14.576,19.250 14.547,19.250 14.519,19.250 ZM1.556,28.789 C1.556,33.343 1.556,37.899 1.556,42.453 C14.517,42.453 27.483,42.453 40.444,42.453 C40.444,37.899 40.444,33.343 40.444,28.789 C27.483,28.789 14.517,28.789 1.556,28.789 ZM4.407,30.336 C6.308,30.336 8.210,30.336 10.111,30.336 C10.111,30.365 10.111,30.393 10.111,30.422 C10.169,30.422 10.226,30.422 10.284,30.422 C10.284,30.451 10.284,30.479 10.284,30.508 C10.342,30.508 10.399,30.508 10.457,30.508 C10.457,30.536 10.457,30.565 10.457,30.594 C10.486,30.594 10.514,30.594 10.543,30.594 C10.543,30.651 10.543,30.708 10.543,30.766 C10.572,30.766 10.601,30.766 10.630,30.766 C10.630,30.823 10.630,30.880 10.630,30.938 C10.658,30.938 10.687,30.938 10.716,30.938 C10.716,32.542 10.716,34.146 10.716,35.750 C10.687,35.750 10.658,35.750 10.630,35.750 C10.630,35.836 10.630,35.922 10.630,36.008 C10.601,36.008 10.572,36.008 10.543,36.008 C10.543,36.065 10.543,36.122 10.543,36.180 C10.514,36.180 10.486,36.180 10.457,36.180 C10.457,36.208 10.457,36.237 10.457,36.266 C10.399,36.266 10.342,36.266 10.284,36.266 C10.284,36.294 10.284,36.323 10.284,36.352 C10.198,36.352 10.111,36.352 10.025,36.352 C10.025,36.380 10.025,36.409 10.025,36.437 C8.181,36.437 6.337,36.437 4.494,36.437 C4.494,36.409 4.494,36.380 4.494,36.352 C4.407,36.352 4.321,36.352 4.235,36.352 C4.235,36.323 4.235,36.294 4.235,36.266 C4.206,36.266 4.177,36.266 4.148,36.266 C4.148,36.237 4.148,36.208 4.148,36.180 C4.119,36.180 4.091,36.180 4.062,36.180 C4.062,36.151 4.062,36.122 4.062,36.094 C4.033,36.094 4.004,36.094 3.975,36.094 C3.975,36.065 3.975,36.036 3.975,36.008 C3.947,36.008 3.918,36.008 3.889,36.008 C3.889,35.922 3.889,35.836 3.889,35.750 C3.860,35.750 3.831,35.750 3.802,35.750 C3.802,34.175 3.802,32.599 3.802,31.023 C3.831,31.023 3.860,31.023 3.889,31.023 C3.889,30.938 3.889,30.852 3.889,30.766 C3.918,30.766 3.947,30.766 3.975,30.766 C3.975,30.708 3.975,30.651 3.975,30.594 C4.004,30.594 4.033,30.594 4.062,30.594 C4.062,30.565 4.062,30.536 4.062,30.508 C4.119,30.508 4.177,30.508 4.235,30.508 C4.235,30.479 4.235,30.451 4.235,30.422 C4.292,30.422 4.350,30.422 4.407,30.422 C4.407,30.393 4.407,30.365 4.407,30.336 ZM12.099,30.336 C13.971,30.336 15.844,30.336 17.716,30.336 C17.716,30.365 17.716,30.393 17.716,30.422 C17.802,30.422 17.889,30.422 17.975,30.422 C17.975,30.451 17.975,30.479 17.975,30.508 C18.004,30.508 18.033,30.508 18.062,30.508 C18.062,30.536 18.062,30.565 18.062,30.594 C18.091,30.594 18.119,30.594 18.148,30.594 C18.148,30.622 18.148,30.651 18.148,30.680 C18.177,30.680 18.206,30.680 18.235,30.680 C18.235,30.737 18.235,30.794 18.235,30.852 C18.263,30.852 18.292,30.852 18.321,30.852 C18.321,32.541 18.321,34.232 18.321,35.922 C18.292,35.922 18.263,35.922 18.235,35.922 C18.235,35.979 18.235,36.036 18.235,36.094 C18.206,36.094 18.177,36.094 18.148,36.094 C18.148,36.122 18.148,36.151 18.148,36.180 C18.119,36.180 18.091,36.180 18.062,36.180 C18.062,36.208 18.062,36.237 18.062,36.266 C18.033,36.266 18.004,36.266 17.975,36.266 C17.975,36.294 17.975,36.323 17.975,36.352 C17.860,36.352 17.745,36.352 17.630,36.352 C17.630,36.380 17.630,36.409 17.630,36.437 C15.786,36.437 13.942,36.437 12.099,36.437 C12.099,36.409 12.099,36.380 12.099,36.352 C12.012,36.352 11.926,36.352 11.840,36.352 C11.840,36.323 11.840,36.294 11.840,36.266 C11.811,36.266 11.782,36.266 11.753,36.266 C11.753,36.237 11.753,36.208 11.753,36.180 C11.724,36.180 11.695,36.180 11.667,36.180 C11.667,36.151 11.667,36.122 11.667,36.094 C11.638,36.094 11.609,36.094 11.580,36.094 C11.580,36.065 11.580,36.036 11.580,36.008 C11.551,36.008 11.523,36.008 11.494,36.008 C11.494,34.261 11.494,32.513 11.494,30.766 C11.523,30.766 11.551,30.766 11.580,30.766 C11.580,30.737 11.580,30.708 11.580,30.680 C11.609,30.680 11.638,30.680 11.667,30.680 C11.667,30.651 11.667,30.622 11.667,30.594 C11.695,30.594 11.724,30.594 11.753,30.594 C11.753,30.565 11.753,30.536 11.753,30.508 C11.782,30.508 11.811,30.508 11.840,30.508 C11.840,30.479 11.840,30.451 11.840,30.422 C11.926,30.422 12.012,30.422 12.099,30.422 C12.099,30.393 12.099,30.365 12.099,30.336 ZM19.704,30.336 C21.605,30.336 23.506,30.336 25.407,30.336 C25.407,30.365 25.407,30.393 25.407,30.422 C25.465,30.422 25.523,30.422 25.580,30.422 C25.580,30.451 25.580,30.479 25.580,30.508 C25.609,30.508 25.638,30.508 25.667,30.508 C25.667,30.536 25.667,30.565 25.667,30.594 C25.695,30.594 25.724,30.594 25.753,30.594 C25.753,30.622 25.753,30.651 25.753,30.680 C25.782,30.680 25.811,30.680 25.840,30.680 C25.840,30.708 25.840,30.737 25.840,30.766 C25.868,30.766 25.897,30.766 25.926,30.766 C25.926,32.513 25.926,34.261 25.926,36.008 C25.897,36.008 25.868,36.008 25.840,36.008 C25.840,36.036 25.840,36.065 25.840,36.094 C25.811,36.094 25.782,36.094 25.753,36.094 C25.753,36.122 25.753,36.151 25.753,36.180 C25.724,36.180 25.695,36.180 25.667,36.180 C25.667,36.208 25.667,36.237 25.667,36.266 C25.638,36.266 25.609,36.266 25.580,36.266 C25.580,36.294 25.580,36.323 25.580,36.352 C25.494,36.352 25.407,36.352 25.321,36.352 C25.321,36.380 25.321,36.409 25.321,36.437 C23.478,36.437 21.634,36.437 19.790,36.437 C19.790,36.409 19.790,36.380 19.790,36.352 C19.704,36.352 19.617,36.352 19.531,36.352 C19.531,36.323 19.531,36.294 19.531,36.266 C19.473,36.266 19.416,36.266 19.358,36.266 C19.358,36.237 19.358,36.208 19.358,36.180 C19.329,36.180 19.300,36.180 19.272,36.180 C19.272,36.151 19.272,36.122 19.272,36.094 C19.243,36.094 19.214,36.094 19.185,36.094 C19.185,36.036 19.185,35.979 19.185,35.922 C19.156,35.922 19.128,35.922 19.099,35.922 C19.099,34.232 19.099,32.541 19.099,30.852 C19.128,30.852 19.156,30.852 19.185,30.852 C19.185,30.794 19.185,30.737 19.185,30.680 C19.214,30.680 19.243,30.680 19.272,30.680 C19.272,30.651 19.272,30.622 19.272,30.594 C19.300,30.594 19.329,30.594 19.358,30.594 C19.358,30.565 19.358,30.536 19.358,30.508 C19.387,30.508 19.416,30.508 19.444,30.508 C19.444,30.479 19.444,30.451 19.444,30.422 C19.531,30.422 19.617,30.422 19.704,30.422 C19.704,30.393 19.704,30.365 19.704,30.336 ZM27.309,30.336 C29.210,30.336 31.111,30.336 33.012,30.336 C33.012,30.365 33.012,30.393 33.012,30.422 C33.070,30.422 33.128,30.422 33.185,30.422 C33.185,30.451 33.185,30.479 33.185,30.508 C33.243,30.508 33.300,30.508 33.358,30.508 C33.358,30.536 33.358,30.565 33.358,30.594 C33.387,30.594 33.416,30.594 33.444,30.594 C33.444,30.651 33.444,30.708 33.444,30.766 C33.473,30.766 33.502,30.766 33.531,30.766 C33.531,30.852 33.531,30.938 33.531,31.023 C33.560,31.023 33.588,31.023 33.617,31.023 C33.617,32.599 33.617,34.175 33.617,35.750 C33.588,35.750 33.560,35.750 33.531,35.750 C33.531,35.836 33.531,35.922 33.531,36.008 C33.502,36.008 33.473,36.008 33.444,36.008 C33.444,36.036 33.444,36.065 33.444,36.094 C33.416,36.094 33.387,36.094 33.358,36.094 C33.358,36.151 33.358,36.208 33.358,36.266 C33.300,36.266 33.243,36.266 33.185,36.266 C33.185,36.294 33.185,36.323 33.185,36.352 C33.099,36.352 33.012,36.352 32.926,36.352 C32.926,36.380 32.926,36.409 32.926,36.437 C31.082,36.437 29.238,36.437 27.395,36.437 C27.395,36.409 27.395,36.380 27.395,36.352 C27.309,36.352 27.222,36.352 27.136,36.352 C27.136,36.323 27.136,36.294 27.136,36.266 C27.078,36.266 27.021,36.266 26.963,36.266 C26.963,36.237 26.963,36.208 26.963,36.180 C26.934,36.180 26.905,36.180 26.877,36.180 C26.877,36.122 26.877,36.065 26.877,36.008 C26.848,36.008 26.819,36.008 26.790,36.008 C26.790,35.922 26.790,35.836 26.790,35.750 C26.761,35.750 26.733,35.750 26.704,35.750 C26.704,34.175 26.704,32.599 26.704,31.023 C26.733,31.023 26.761,31.023 26.790,31.023 C26.790,30.938 26.790,30.852 26.790,30.766 C26.819,30.766 26.848,30.766 26.877,30.766 C26.877,30.708 26.877,30.651 26.877,30.594 C26.905,30.594 26.934,30.594 26.963,30.594 C26.963,30.565 26.963,30.536 26.963,30.508 C27.021,30.508 27.078,30.508 27.136,30.508 C27.136,30.479 27.136,30.451 27.136,30.422 C27.193,30.422 27.251,30.422 27.309,30.422 C27.309,30.393 27.309,30.365 27.309,30.336 ZM5.358,31.883 C5.358,32.885 5.358,33.888 5.358,34.891 C6.625,34.891 7.893,34.891 9.160,34.891 C9.160,33.888 9.160,32.885 9.160,31.883 C7.893,31.883 6.625,31.883 5.358,31.883 ZM12.963,31.883 C12.963,32.885 12.963,33.888 12.963,34.891 C14.230,34.891 15.498,34.891 16.765,34.891 C16.765,33.888 16.765,32.885 16.765,31.883 C15.498,31.883 14.230,31.883 12.963,31.883 ZM20.654,31.883 C20.654,32.885 20.654,33.888 20.654,34.891 C21.922,34.891 23.189,34.891 24.457,34.891 C24.457,33.888 24.457,32.885 24.457,31.883 C23.189,31.883 21.922,31.883 20.654,31.883 ZM28.259,31.883 C28.259,32.885 28.259,33.888 28.259,34.891 C29.527,34.891 30.794,34.891 32.062,34.891 C32.062,33.888 32.062,32.885 32.062,31.883 C30.794,31.883 29.527,31.883 28.259,31.883 Z"/>
</svg>
