<svg
        xmlns="http://www.w3.org/2000/svg"
        xmlns:xlink="http://www.w3.org/1999/xlink"
        width="48px" height="34px">
    <path fill-rule="evenodd"  fill="rgb(48, 48, 48)"
          d="M34.397,14.573 C36.634,14.573 38.871,14.573 41.108,14.573 C41.610,14.573 42.111,14.573 42.612,14.573 C42.859,14.573 43.106,14.573 43.353,14.573 C43.353,14.581 43.353,14.588 43.353,14.596 C43.398,14.604 43.443,14.611 43.488,14.619 C43.488,14.626 43.488,14.634 43.488,14.641 C43.518,14.649 43.548,14.657 43.578,14.664 C43.578,14.672 43.578,14.679 43.578,14.687 C43.592,14.687 43.607,14.687 43.622,14.687 C43.645,14.717 43.667,14.748 43.690,14.778 C43.705,14.778 43.720,14.778 43.735,14.778 C43.742,14.793 43.750,14.808 43.757,14.824 C43.765,14.824 43.772,14.824 43.780,14.824 C43.780,14.839 43.780,14.854 43.780,14.869 C43.802,14.884 43.824,14.900 43.847,14.915 C43.847,14.930 43.847,14.945 43.847,14.960 C43.854,14.960 43.862,14.960 43.869,14.960 C43.884,15.006 43.899,15.051 43.914,15.097 C43.922,15.097 43.929,15.097 43.937,15.097 C43.937,15.120 43.937,15.142 43.937,15.165 C43.944,15.165 43.952,15.165 43.959,15.165 C43.959,15.211 43.959,15.256 43.959,15.302 C44.002,15.453 43.982,15.705 43.982,15.894 C43.982,16.721 43.982,17.549 43.982,18.376 C43.982,21.966 43.982,25.557 43.982,29.146 C44.827,29.146 45.673,29.146 46.518,29.146 C47.162,29.146 47.528,29.081 47.798,29.488 C47.813,29.495 47.828,29.503 47.843,29.511 C48.025,29.803 47.955,30.438 47.955,30.900 C47.955,31.484 47.955,32.069 47.955,32.653 C47.955,32.874 47.998,33.279 47.932,33.450 C47.925,33.450 47.917,33.450 47.910,33.450 C47.910,33.465 47.910,33.480 47.910,33.495 C47.902,33.495 47.895,33.495 47.887,33.495 C47.880,33.533 47.872,33.571 47.865,33.609 C47.850,33.617 47.835,33.625 47.820,33.632 C47.820,33.647 47.820,33.662 47.820,33.678 C47.798,33.693 47.775,33.708 47.753,33.723 C47.715,33.769 47.678,33.814 47.641,33.860 C47.626,33.860 47.611,33.860 47.596,33.860 C47.588,33.875 47.581,33.890 47.573,33.905 C47.522,33.937 47.454,33.927 47.394,33.951 C47.394,33.958 47.394,33.966 47.394,33.974 C47.371,33.974 47.349,33.974 47.326,33.974 C47.326,33.981 47.326,33.989 47.326,33.996 C35.557,33.996 23.785,33.996 12.016,33.996 C9.226,33.996 6.434,33.996 3.643,33.996 C2.918,33.996 2.192,33.996 1.466,33.996 C1.087,33.996 0.665,34.032 0.433,33.883 C0.426,33.867 0.418,33.852 0.411,33.837 C0.014,33.566 0.074,33.209 0.074,32.562 C0.074,31.886 0.074,31.211 0.074,30.535 C0.074,30.251 0.028,29.859 0.119,29.647 C0.127,29.647 0.134,29.647 0.142,29.647 C0.149,29.617 0.157,29.587 0.164,29.556 C0.172,29.556 0.179,29.556 0.187,29.556 C0.187,29.541 0.187,29.526 0.187,29.511 C0.202,29.503 0.216,29.495 0.231,29.488 C0.231,29.473 0.231,29.458 0.231,29.442 C0.246,29.435 0.261,29.427 0.276,29.420 C0.306,29.382 0.336,29.344 0.366,29.306 C0.652,29.101 1.076,29.146 1.556,29.146 C2.394,29.146 3.232,29.146 4.070,29.146 C4.070,25.549 4.070,21.950 4.070,18.353 C4.070,17.556 4.070,16.759 4.070,15.962 C4.070,15.747 4.032,15.277 4.092,15.120 C4.100,15.120 4.107,15.120 4.115,15.120 C4.115,15.104 4.115,15.089 4.115,15.074 C4.122,15.074 4.130,15.074 4.137,15.074 C4.137,15.051 4.137,15.029 4.137,15.006 C4.152,14.998 4.167,14.991 4.182,14.983 C4.190,14.953 4.197,14.922 4.205,14.892 C4.242,14.862 4.279,14.831 4.317,14.801 C4.339,14.771 4.362,14.740 4.384,14.710 C4.602,14.553 4.909,14.573 5.282,14.573 C5.836,14.573 6.390,14.573 6.943,14.573 C9.173,14.573 11.403,14.573 13.633,14.573 C13.633,11.120 13.633,7.666 13.633,4.213 C13.633,3.332 13.633,2.452 13.633,1.571 C13.633,1.096 13.597,0.596 13.790,0.319 C13.820,0.296 13.850,0.273 13.880,0.250 C13.909,0.213 13.939,0.175 13.969,0.137 C13.984,0.137 13.999,0.137 14.014,0.137 C14.022,0.121 14.029,0.106 14.037,0.091 C14.088,0.059 14.156,0.069 14.216,0.046 C14.216,0.038 14.216,0.030 14.216,0.023 C14.239,0.023 14.261,0.023 14.284,0.023 C14.284,0.015 14.284,0.008 14.284,-0.000 C14.583,-0.000 14.882,-0.000 15.181,-0.000 C16.251,-0.000 17.322,-0.000 18.391,-0.000 C22.207,-0.000 26.024,-0.000 29.840,-0.000 C30.812,-0.000 31.785,-0.000 32.758,-0.000 C33.087,-0.000 33.416,-0.000 33.746,-0.000 C33.746,0.008 33.746,0.015 33.746,0.023 C33.775,0.023 33.805,0.023 33.835,0.023 C33.835,0.030 33.835,0.038 33.835,0.046 C33.858,0.046 33.880,0.046 33.903,0.046 C33.903,0.053 33.903,0.061 33.903,0.068 C33.933,0.076 33.963,0.083 33.992,0.091 C33.992,0.099 33.992,0.106 33.992,0.114 C34.007,0.114 34.022,0.114 34.037,0.114 C34.052,0.137 34.067,0.159 34.082,0.182 C34.097,0.182 34.112,0.182 34.127,0.182 C34.150,0.213 34.172,0.243 34.194,0.273 C34.202,0.273 34.209,0.273 34.217,0.273 C34.217,0.288 34.217,0.304 34.217,0.319 C34.239,0.334 34.262,0.349 34.284,0.364 C34.284,0.380 34.284,0.395 34.284,0.410 C34.292,0.410 34.299,0.410 34.307,0.410 C34.314,0.440 34.322,0.471 34.329,0.501 C34.337,0.501 34.344,0.501 34.352,0.501 C34.352,0.524 34.352,0.546 34.352,0.569 C34.359,0.569 34.367,0.569 34.374,0.569 C34.440,0.766 34.397,1.085 34.397,1.321 C34.397,2.148 34.397,2.975 34.397,3.803 C34.397,7.392 34.397,10.983 34.397,14.573 ZM15.249,1.639 C15.249,5.950 15.249,10.262 15.249,14.573 C21.092,14.573 26.937,14.573 32.780,14.573 C32.780,10.262 32.780,5.950 32.780,1.639 C31.194,1.639 29.608,1.639 28.021,1.639 C28.021,3.097 28.021,4.554 28.021,6.011 C28.021,6.345 28.021,6.679 28.021,7.013 C28.021,7.208 28.032,7.443 27.977,7.583 C27.969,7.583 27.962,7.583 27.954,7.583 C27.947,7.613 27.939,7.643 27.932,7.674 C27.924,7.674 27.917,7.674 27.909,7.674 C27.909,7.689 27.909,7.704 27.909,7.719 C27.894,7.727 27.879,7.734 27.864,7.742 C27.864,7.757 27.864,7.772 27.864,7.788 C27.842,7.803 27.819,7.818 27.797,7.833 C27.767,7.871 27.737,7.909 27.707,7.947 C27.598,8.025 27.424,8.066 27.281,8.106 C27.212,8.126 27.053,8.076 27.011,8.061 C26.966,8.053 26.921,8.046 26.877,8.038 C26.877,8.030 26.877,8.023 26.877,8.015 C26.862,8.015 26.847,8.015 26.832,8.015 C26.832,8.008 26.832,8.000 26.832,7.992 C26.817,7.992 26.802,7.992 26.787,7.992 C26.779,7.977 26.772,7.962 26.764,7.947 C26.749,7.947 26.734,7.947 26.719,7.947 C26.705,7.924 26.690,7.901 26.675,7.879 C26.660,7.879 26.645,7.879 26.630,7.879 C26.615,7.856 26.600,7.833 26.585,7.810 C26.570,7.810 26.555,7.810 26.540,7.810 C26.525,7.788 26.510,7.765 26.495,7.742 C26.480,7.742 26.465,7.742 26.450,7.742 C26.435,7.719 26.420,7.696 26.405,7.674 C26.390,7.674 26.375,7.674 26.360,7.674 C26.338,7.643 26.315,7.613 26.293,7.583 C26.278,7.583 26.263,7.583 26.248,7.583 C26.233,7.560 26.218,7.537 26.203,7.514 C26.188,7.514 26.173,7.514 26.158,7.514 C26.143,7.492 26.128,7.469 26.113,7.446 C26.098,7.446 26.083,7.446 26.068,7.446 C26.054,7.423 26.039,7.400 26.024,7.378 C26.009,7.378 25.994,7.378 25.979,7.378 C25.964,7.355 25.949,7.332 25.934,7.309 C25.919,7.309 25.904,7.309 25.889,7.309 C25.874,7.287 25.859,7.264 25.844,7.241 C25.829,7.241 25.814,7.241 25.799,7.241 C25.784,7.218 25.769,7.195 25.754,7.173 C25.739,7.173 25.724,7.173 25.709,7.173 C25.694,7.150 25.679,7.127 25.664,7.104 C25.649,7.104 25.635,7.104 25.620,7.104 C25.605,7.082 25.590,7.059 25.575,7.036 C25.560,7.036 25.545,7.036 25.530,7.036 C25.522,7.021 25.515,7.006 25.507,6.991 C25.485,6.983 25.462,6.975 25.440,6.968 C25.425,6.945 25.410,6.922 25.395,6.899 C25.380,6.899 25.365,6.899 25.350,6.899 C25.343,6.884 25.335,6.869 25.328,6.854 C25.305,6.846 25.283,6.839 25.260,6.831 C25.245,6.808 25.230,6.786 25.215,6.763 C25.201,6.763 25.186,6.763 25.171,6.763 C25.156,6.740 25.141,6.717 25.126,6.695 C25.111,6.695 25.096,6.695 25.081,6.695 C25.066,6.672 25.051,6.649 25.036,6.626 C25.021,6.626 25.006,6.626 24.991,6.626 C24.976,6.603 24.961,6.581 24.946,6.558 C24.931,6.558 24.916,6.558 24.901,6.558 C24.886,6.535 24.871,6.512 24.856,6.490 C24.841,6.490 24.826,6.490 24.811,6.490 C24.796,6.467 24.781,6.444 24.767,6.421 C24.752,6.421 24.737,6.421 24.722,6.421 C24.714,6.406 24.707,6.391 24.699,6.376 C24.677,6.368 24.654,6.361 24.632,6.353 C24.617,6.330 24.602,6.307 24.587,6.285 C24.572,6.285 24.557,6.285 24.542,6.285 C24.527,6.262 24.512,6.239 24.497,6.216 C24.482,6.216 24.467,6.216 24.452,6.216 C24.437,6.194 24.422,6.171 24.407,6.148 C24.392,6.148 24.377,6.148 24.362,6.148 C24.348,6.125 24.333,6.103 24.318,6.080 C24.303,6.080 24.288,6.080 24.273,6.080 C24.258,6.057 24.243,6.034 24.228,6.011 C24.213,6.011 24.198,6.011 24.183,6.011 C24.183,6.004 24.183,5.996 24.183,5.989 C24.162,5.972 24.027,5.868 24.003,5.875 C24.003,5.882 24.003,5.890 24.003,5.898 C23.953,5.910 23.947,5.917 23.914,5.943 C23.914,5.951 23.914,5.958 23.914,5.966 C23.891,5.973 23.869,5.981 23.846,5.989 C23.839,6.004 23.831,6.019 23.824,6.034 C23.809,6.034 23.794,6.034 23.779,6.034 C23.764,6.057 23.749,6.080 23.734,6.103 C23.719,6.103 23.704,6.103 23.689,6.103 C23.674,6.125 23.659,6.148 23.644,6.171 C23.629,6.171 23.614,6.171 23.599,6.171 C23.584,6.194 23.569,6.216 23.554,6.239 C23.539,6.239 23.524,6.239 23.509,6.239 C23.495,6.262 23.480,6.285 23.465,6.307 C23.450,6.307 23.435,6.307 23.420,6.307 C23.412,6.323 23.405,6.338 23.397,6.353 C23.375,6.361 23.352,6.368 23.330,6.376 C23.315,6.399 23.300,6.421 23.285,6.444 C23.270,6.444 23.255,6.444 23.240,6.444 C23.225,6.467 23.210,6.490 23.195,6.512 C23.180,6.512 23.165,6.512 23.150,6.512 C23.135,6.535 23.120,6.558 23.105,6.581 C23.090,6.581 23.075,6.581 23.061,6.581 C23.046,6.603 23.031,6.626 23.016,6.649 C23.001,6.649 22.986,6.649 22.971,6.649 C22.956,6.672 22.941,6.695 22.926,6.717 C22.911,6.717 22.896,6.717 22.881,6.717 C22.866,6.740 22.851,6.763 22.836,6.786 C22.821,6.786 22.806,6.786 22.791,6.786 C22.776,6.808 22.761,6.831 22.746,6.854 C22.731,6.854 22.716,6.854 22.701,6.854 C22.686,6.877 22.671,6.899 22.656,6.922 C22.642,6.922 22.627,6.922 22.612,6.922 C22.597,6.945 22.582,6.968 22.567,6.991 C22.552,6.991 22.537,6.991 22.522,6.991 C22.499,7.021 22.477,7.051 22.454,7.082 C22.439,7.082 22.425,7.082 22.410,7.082 C22.395,7.104 22.380,7.127 22.365,7.150 C22.342,7.158 22.320,7.165 22.297,7.173 C22.290,7.188 22.282,7.203 22.275,7.218 C22.260,7.218 22.245,7.218 22.230,7.218 C22.222,7.233 22.215,7.249 22.208,7.264 C22.185,7.271 22.163,7.279 22.140,7.287 C22.125,7.309 22.110,7.332 22.095,7.355 C22.080,7.355 22.065,7.355 22.050,7.355 C22.035,7.378 22.020,7.400 22.005,7.423 C21.991,7.423 21.976,7.423 21.961,7.423 C21.946,7.446 21.931,7.469 21.916,7.492 C21.901,7.492 21.886,7.492 21.871,7.492 C21.856,7.514 21.841,7.537 21.826,7.560 C21.811,7.560 21.796,7.560 21.781,7.560 C21.766,7.583 21.751,7.605 21.736,7.628 C21.721,7.628 21.706,7.628 21.691,7.628 C21.676,7.651 21.661,7.674 21.646,7.696 C21.631,7.696 21.616,7.696 21.601,7.696 C21.586,7.719 21.572,7.742 21.557,7.765 C21.542,7.765 21.527,7.765 21.512,7.765 C21.497,7.788 21.482,7.810 21.467,7.833 C21.452,7.833 21.437,7.833 21.422,7.833 C21.407,7.856 21.392,7.879 21.377,7.901 C21.362,7.901 21.347,7.901 21.332,7.901 C21.317,7.924 21.302,7.947 21.287,7.970 C21.220,7.992 21.152,8.015 21.085,8.038 C21.085,8.046 21.085,8.053 21.085,8.061 C21.043,8.077 20.807,8.123 20.748,8.106 C20.614,8.067 20.448,8.021 20.344,7.947 C20.307,7.901 20.270,7.856 20.232,7.810 C20.210,7.795 20.187,7.780 20.165,7.765 C20.150,7.719 20.135,7.674 20.120,7.628 C20.112,7.628 20.105,7.628 20.097,7.628 C20.097,7.613 20.097,7.598 20.097,7.583 C20.090,7.583 20.082,7.583 20.075,7.583 C20.016,7.446 20.030,7.229 20.030,7.036 C20.030,6.710 20.030,6.383 20.030,6.057 C20.030,4.585 20.030,3.112 20.030,1.639 C18.437,1.639 16.842,1.639 15.249,1.639 ZM21.624,1.639 C21.624,2.975 21.624,4.311 21.624,5.647 C21.639,5.647 21.654,5.647 21.669,5.647 C21.709,5.586 21.766,5.576 21.826,5.533 C21.841,5.510 21.856,5.488 21.871,5.465 C21.886,5.465 21.901,5.465 21.916,5.465 C21.931,5.442 21.946,5.419 21.961,5.397 C21.976,5.397 21.991,5.397 22.005,5.397 C22.020,5.374 22.035,5.351 22.050,5.328 C22.065,5.328 22.080,5.328 22.095,5.328 C22.110,5.306 22.125,5.283 22.140,5.260 C22.155,5.260 22.170,5.260 22.185,5.260 C22.200,5.237 22.215,5.214 22.230,5.192 C22.245,5.192 22.260,5.192 22.275,5.192 C22.290,5.169 22.305,5.146 22.320,5.123 C22.335,5.123 22.350,5.123 22.365,5.123 C22.380,5.101 22.395,5.078 22.410,5.055 C22.425,5.055 22.439,5.055 22.454,5.055 C22.469,5.032 22.484,5.010 22.499,4.987 C22.514,4.987 22.529,4.987 22.544,4.987 C22.552,4.972 22.559,4.956 22.567,4.941 C22.589,4.934 22.612,4.926 22.634,4.918 C22.649,4.896 22.664,4.873 22.679,4.850 C22.694,4.850 22.709,4.850 22.724,4.850 C22.739,4.827 22.754,4.805 22.769,4.782 C22.784,4.782 22.799,4.782 22.814,4.782 C22.829,4.759 22.844,4.736 22.858,4.714 C22.873,4.714 22.888,4.714 22.903,4.714 C22.918,4.691 22.933,4.668 22.948,4.645 C22.963,4.645 22.978,4.645 22.993,4.645 C23.008,4.622 23.023,4.600 23.038,4.577 C23.053,4.577 23.068,4.577 23.083,4.577 C23.090,4.562 23.098,4.547 23.105,4.531 C23.128,4.524 23.150,4.516 23.173,4.509 C23.188,4.486 23.203,4.463 23.218,4.440 C23.233,4.440 23.248,4.440 23.263,4.440 C23.285,4.410 23.307,4.380 23.330,4.349 C23.345,4.349 23.360,4.349 23.375,4.349 C23.390,4.326 23.405,4.304 23.420,4.281 C23.435,4.281 23.450,4.281 23.465,4.281 C23.480,4.258 23.495,4.235 23.509,4.213 C23.524,4.213 23.539,4.213 23.554,4.213 C23.562,4.197 23.569,4.182 23.577,4.167 C23.592,4.167 23.607,4.167 23.622,4.167 C23.629,4.152 23.637,4.137 23.644,4.121 C23.667,4.121 23.689,4.121 23.712,4.121 C23.712,4.114 23.712,4.106 23.712,4.099 C23.726,4.099 23.741,4.099 23.756,4.099 C23.756,4.091 23.756,4.084 23.756,4.076 C23.843,4.042 24.186,4.042 24.273,4.076 C24.273,4.084 24.273,4.091 24.273,4.099 C24.288,4.099 24.303,4.099 24.318,4.099 C24.318,4.106 24.318,4.114 24.318,4.121 C24.340,4.121 24.362,4.121 24.385,4.121 C24.392,4.137 24.400,4.152 24.407,4.167 C24.437,4.175 24.467,4.182 24.497,4.190 C24.512,4.213 24.527,4.235 24.542,4.258 C24.557,4.258 24.572,4.258 24.587,4.258 C24.602,4.281 24.617,4.304 24.632,4.326 C24.647,4.326 24.662,4.326 24.677,4.326 C24.692,4.349 24.707,4.372 24.722,4.395 C24.737,4.395 24.752,4.395 24.767,4.395 C24.781,4.417 24.796,4.440 24.811,4.463 C24.826,4.463 24.841,4.463 24.856,4.463 C24.871,4.486 24.886,4.509 24.901,4.531 C24.916,4.531 24.931,4.531 24.946,4.531 C24.961,4.554 24.976,4.577 24.991,4.600 C25.006,4.600 25.021,4.600 25.036,4.600 C25.051,4.622 25.066,4.645 25.081,4.668 C25.096,4.668 25.111,4.668 25.126,4.668 C25.133,4.683 25.141,4.698 25.148,4.714 C25.171,4.721 25.193,4.729 25.215,4.736 C25.230,4.759 25.245,4.782 25.260,4.805 C25.275,4.805 25.290,4.805 25.305,4.805 C25.313,4.820 25.320,4.835 25.328,4.850 C25.350,4.858 25.373,4.865 25.395,4.873 C25.410,4.896 25.425,4.918 25.440,4.941 C25.455,4.941 25.470,4.941 25.485,4.941 C25.500,4.964 25.515,4.987 25.530,5.010 C25.545,5.010 25.560,5.010 25.575,5.010 C25.590,5.032 25.605,5.055 25.620,5.078 C25.635,5.078 25.649,5.078 25.664,5.078 C25.679,5.101 25.694,5.123 25.709,5.146 C25.724,5.146 25.739,5.146 25.754,5.146 C25.769,5.169 25.784,5.192 25.799,5.214 C25.814,5.214 25.829,5.214 25.844,5.214 C25.859,5.237 25.874,5.260 25.889,5.283 C25.904,5.283 25.919,5.283 25.934,5.283 C25.941,5.298 25.949,5.313 25.956,5.328 C25.979,5.336 26.001,5.343 26.024,5.351 C26.046,5.381 26.068,5.412 26.091,5.442 C26.106,5.442 26.121,5.442 26.136,5.442 C26.151,5.465 26.166,5.488 26.181,5.510 C26.196,5.510 26.211,5.510 26.226,5.510 C26.233,5.526 26.241,5.541 26.248,5.556 C26.271,5.564 26.293,5.571 26.315,5.579 C26.315,5.586 26.315,5.594 26.315,5.602 C26.349,5.628 26.355,5.633 26.405,5.647 C26.405,4.311 26.405,2.975 26.405,1.639 C24.812,1.639 23.217,1.639 21.624,1.639 ZM5.664,16.190 C5.664,20.501 5.664,24.813 5.664,29.124 C11.514,29.124 17.367,29.124 23.218,29.124 C23.218,24.813 23.218,20.501 23.218,16.190 C21.624,16.190 20.030,16.190 18.436,16.190 C18.436,17.647 18.436,19.105 18.436,20.562 C18.436,21.105 18.516,22.018 18.302,22.338 C18.272,22.361 18.242,22.383 18.212,22.406 C18.182,22.444 18.152,22.482 18.122,22.520 C18.107,22.520 18.092,22.520 18.077,22.520 C18.070,22.535 18.062,22.550 18.055,22.566 C18.017,22.573 17.980,22.581 17.942,22.588 C17.942,22.596 17.942,22.604 17.942,22.611 C17.928,22.611 17.913,22.611 17.898,22.611 C17.898,22.619 17.898,22.626 17.898,22.634 C17.748,22.642 17.598,22.649 17.449,22.657 C17.449,22.649 17.449,22.642 17.449,22.634 C17.426,22.634 17.404,22.634 17.381,22.634 C17.381,22.626 17.381,22.619 17.381,22.611 C17.359,22.611 17.336,22.611 17.314,22.611 C17.314,22.604 17.314,22.596 17.314,22.588 C17.299,22.588 17.284,22.588 17.269,22.588 C17.269,22.581 17.269,22.573 17.269,22.566 C17.254,22.566 17.239,22.566 17.224,22.566 C17.217,22.550 17.209,22.535 17.202,22.520 C17.187,22.520 17.172,22.520 17.157,22.520 C17.149,22.505 17.142,22.490 17.134,22.475 C17.119,22.475 17.104,22.475 17.089,22.475 C17.075,22.452 17.060,22.429 17.045,22.406 C17.030,22.406 17.015,22.406 17.000,22.406 C16.985,22.383 16.970,22.361 16.955,22.338 C16.940,22.338 16.925,22.338 16.910,22.338 C16.895,22.315 16.880,22.292 16.865,22.270 C16.850,22.270 16.835,22.270 16.820,22.270 C16.805,22.247 16.790,22.224 16.775,22.201 C16.760,22.201 16.745,22.201 16.730,22.201 C16.715,22.179 16.700,22.156 16.685,22.133 C16.670,22.133 16.656,22.133 16.641,22.133 C16.626,22.110 16.611,22.087 16.596,22.065 C16.581,22.065 16.566,22.065 16.551,22.065 C16.536,22.042 16.521,22.019 16.506,21.996 C16.491,21.996 16.476,21.996 16.461,21.996 C16.439,21.966 16.416,21.936 16.394,21.905 C16.379,21.905 16.364,21.905 16.349,21.905 C16.334,21.883 16.319,21.860 16.304,21.837 C16.281,21.829 16.259,21.822 16.236,21.814 C16.229,21.799 16.222,21.784 16.214,21.769 C16.199,21.769 16.184,21.769 16.169,21.769 C16.154,21.746 16.139,21.723 16.124,21.700 C16.109,21.700 16.094,21.700 16.079,21.700 C16.064,21.678 16.049,21.655 16.034,21.632 C16.019,21.632 16.005,21.632 15.990,21.632 C15.975,21.609 15.960,21.586 15.945,21.564 C15.930,21.564 15.915,21.564 15.900,21.564 C15.885,21.541 15.870,21.518 15.855,21.495 C15.840,21.495 15.825,21.495 15.810,21.495 C15.795,21.473 15.780,21.450 15.765,21.427 C15.750,21.427 15.735,21.427 15.720,21.427 C15.705,21.404 15.690,21.382 15.675,21.359 C15.660,21.359 15.645,21.359 15.630,21.359 C15.615,21.336 15.600,21.313 15.586,21.290 C15.571,21.290 15.556,21.290 15.541,21.290 C15.526,21.268 15.511,21.245 15.496,21.222 C15.481,21.222 15.466,21.222 15.451,21.222 C15.443,21.207 15.436,21.192 15.428,21.177 C15.406,21.169 15.383,21.161 15.361,21.154 C15.346,21.131 15.331,21.108 15.316,21.086 C15.301,21.086 15.286,21.086 15.271,21.086 C15.256,21.063 15.241,21.040 15.226,21.017 C15.211,21.017 15.196,21.017 15.181,21.017 C15.166,20.994 15.152,20.972 15.137,20.949 C15.122,20.949 15.107,20.949 15.092,20.949 C15.077,20.926 15.062,20.903 15.047,20.881 C15.032,20.881 15.017,20.881 15.002,20.881 C14.987,20.858 14.972,20.835 14.957,20.812 C14.942,20.812 14.927,20.812 14.912,20.812 C14.905,20.797 14.897,20.782 14.890,20.767 C14.867,20.759 14.845,20.752 14.822,20.744 C14.807,20.721 14.792,20.698 14.777,20.676 C14.762,20.676 14.747,20.676 14.733,20.676 C14.718,20.653 14.703,20.630 14.688,20.607 C14.673,20.607 14.658,20.607 14.643,20.607 C14.628,20.585 14.613,20.562 14.598,20.539 C14.547,20.502 14.501,20.495 14.463,20.448 C14.418,20.461 14.444,20.445 14.418,20.471 C14.368,20.484 14.362,20.490 14.328,20.516 C14.328,20.524 14.328,20.531 14.328,20.539 C14.306,20.547 14.284,20.554 14.261,20.562 C14.254,20.577 14.246,20.592 14.239,20.607 C14.224,20.607 14.209,20.607 14.194,20.607 C14.179,20.630 14.164,20.653 14.149,20.676 C14.134,20.676 14.119,20.676 14.104,20.676 C14.089,20.698 14.074,20.721 14.059,20.744 C14.044,20.744 14.029,20.744 14.014,20.744 C13.999,20.767 13.984,20.790 13.969,20.812 C13.954,20.812 13.939,20.812 13.924,20.812 C13.909,20.835 13.894,20.858 13.880,20.881 C13.865,20.881 13.850,20.881 13.835,20.881 C13.820,20.903 13.805,20.926 13.790,20.949 C13.775,20.949 13.760,20.949 13.745,20.949 C13.722,20.979 13.700,21.010 13.677,21.040 C13.663,21.040 13.648,21.040 13.633,21.040 C13.618,21.063 13.603,21.086 13.588,21.108 C13.573,21.108 13.558,21.108 13.543,21.108 C13.528,21.131 13.513,21.154 13.498,21.177 C13.483,21.177 13.468,21.177 13.453,21.177 C13.438,21.199 13.423,21.222 13.408,21.245 C13.393,21.245 13.378,21.245 13.363,21.245 C13.348,21.268 13.333,21.290 13.318,21.313 C13.303,21.313 13.288,21.313 13.273,21.313 C13.258,21.336 13.243,21.359 13.229,21.382 C13.214,21.382 13.199,21.382 13.184,21.382 C13.169,21.404 13.154,21.427 13.139,21.450 C13.124,21.450 13.109,21.450 13.094,21.450 C13.079,21.473 13.064,21.495 13.049,21.518 C13.034,21.518 13.019,21.518 13.004,21.518 C12.997,21.533 12.989,21.549 12.982,21.564 C12.959,21.571 12.937,21.579 12.914,21.586 C12.899,21.609 12.884,21.632 12.869,21.655 C12.854,21.655 12.839,21.655 12.824,21.655 C12.817,21.670 12.810,21.685 12.802,21.700 C12.780,21.708 12.757,21.716 12.735,21.723 C12.720,21.746 12.705,21.769 12.690,21.791 C12.675,21.791 12.660,21.791 12.645,21.791 C12.637,21.807 12.630,21.822 12.622,21.837 C12.600,21.845 12.578,21.852 12.555,21.860 C12.540,21.883 12.525,21.905 12.510,21.928 C12.495,21.928 12.480,21.928 12.465,21.928 C12.450,21.951 12.435,21.974 12.420,21.996 C12.405,21.996 12.390,21.996 12.376,21.996 C12.361,22.019 12.346,22.042 12.331,22.065 C12.316,22.065 12.301,22.065 12.286,22.065 C12.271,22.087 12.256,22.110 12.241,22.133 C12.226,22.133 12.211,22.133 12.196,22.133 C12.181,22.156 12.166,22.179 12.151,22.201 C12.136,22.201 12.121,22.201 12.106,22.201 C12.091,22.224 12.076,22.247 12.061,22.270 C12.046,22.270 12.031,22.270 12.016,22.270 C12.001,22.292 11.986,22.315 11.971,22.338 C11.957,22.338 11.942,22.338 11.927,22.338 C11.912,22.361 11.897,22.383 11.882,22.406 C11.867,22.406 11.852,22.406 11.837,22.406 C11.822,22.429 11.807,22.452 11.792,22.475 C11.777,22.475 11.762,22.475 11.747,22.475 C11.732,22.497 11.717,22.520 11.702,22.543 C11.687,22.543 11.672,22.543 11.657,22.543 C11.657,22.550 11.657,22.558 11.657,22.566 C11.627,22.573 11.597,22.581 11.567,22.588 C11.567,22.596 11.567,22.604 11.567,22.611 C11.523,22.619 11.478,22.626 11.433,22.634 C11.372,22.656 11.168,22.687 11.074,22.657 C10.778,22.561 10.564,22.361 10.467,22.065 C10.460,21.913 10.453,21.761 10.445,21.609 C10.445,21.321 10.445,21.032 10.445,20.744 C10.445,19.226 10.445,17.708 10.445,16.190 C8.851,16.190 7.257,16.190 5.664,16.190 ZM12.061,16.190 C12.061,17.533 12.061,18.877 12.061,20.220 C12.069,20.220 12.076,20.220 12.084,20.220 C12.124,20.159 12.181,20.149 12.241,20.106 C12.256,20.084 12.271,20.061 12.286,20.038 C12.301,20.038 12.316,20.038 12.331,20.038 C12.346,20.015 12.361,19.993 12.376,19.970 C12.390,19.970 12.405,19.970 12.420,19.970 C12.435,19.947 12.450,19.924 12.465,19.901 C12.480,19.901 12.495,19.901 12.510,19.901 C12.525,19.879 12.540,19.856 12.555,19.833 C12.570,19.833 12.585,19.833 12.600,19.833 C12.615,19.810 12.630,19.788 12.645,19.765 C12.660,19.765 12.675,19.765 12.690,19.765 C12.705,19.742 12.720,19.719 12.735,19.697 C12.750,19.697 12.765,19.697 12.780,19.697 C12.795,19.674 12.810,19.651 12.824,19.628 C12.839,19.628 12.854,19.628 12.869,19.628 C12.884,19.605 12.899,19.583 12.914,19.560 C12.929,19.560 12.944,19.560 12.959,19.560 C12.967,19.545 12.974,19.530 12.982,19.514 C13.004,19.507 13.027,19.499 13.049,19.492 C13.064,19.469 13.079,19.446 13.094,19.423 C13.109,19.423 13.124,19.423 13.139,19.423 C13.146,19.408 13.154,19.393 13.161,19.378 C13.184,19.370 13.206,19.363 13.229,19.355 C13.243,19.332 13.258,19.309 13.273,19.287 C13.288,19.287 13.303,19.287 13.318,19.287 C13.333,19.264 13.348,19.241 13.363,19.218 C13.378,19.218 13.393,19.218 13.408,19.218 C13.423,19.196 13.438,19.173 13.453,19.150 C13.468,19.150 13.483,19.150 13.498,19.150 C13.513,19.127 13.528,19.104 13.543,19.082 C13.558,19.082 13.573,19.082 13.588,19.082 C13.603,19.059 13.618,19.036 13.633,19.013 C13.648,19.013 13.663,19.013 13.677,19.013 C13.692,18.991 13.707,18.968 13.722,18.945 C13.737,18.945 13.752,18.945 13.767,18.945 C13.782,18.922 13.797,18.900 13.812,18.877 C13.827,18.877 13.842,18.877 13.857,18.877 C13.872,18.854 13.887,18.831 13.902,18.808 C13.917,18.808 13.932,18.808 13.947,18.808 C13.962,18.786 13.977,18.763 13.992,18.740 C14.007,18.740 14.022,18.740 14.037,18.740 C14.044,18.725 14.052,18.710 14.059,18.695 C14.145,18.641 14.499,18.588 14.620,18.626 C14.620,18.634 14.620,18.641 14.620,18.649 C14.650,18.649 14.680,18.649 14.710,18.649 C14.710,18.657 14.710,18.664 14.710,18.672 C14.740,18.679 14.770,18.687 14.800,18.695 C14.800,18.702 14.800,18.710 14.800,18.717 C14.830,18.725 14.860,18.733 14.890,18.740 C14.897,18.755 14.905,18.771 14.912,18.786 C14.927,18.786 14.942,18.786 14.957,18.786 C14.972,18.808 14.987,18.831 15.002,18.854 C15.017,18.854 15.032,18.854 15.047,18.854 C15.062,18.877 15.077,18.900 15.092,18.922 C15.107,18.922 15.122,18.922 15.137,18.922 C15.152,18.945 15.166,18.968 15.181,18.991 C15.196,18.991 15.211,18.991 15.226,18.991 C15.241,19.013 15.256,19.036 15.271,19.059 C15.286,19.059 15.301,19.059 15.316,19.059 C15.324,19.074 15.331,19.089 15.339,19.104 C15.361,19.112 15.383,19.120 15.406,19.127 C15.421,19.150 15.436,19.173 15.451,19.196 C15.466,19.196 15.481,19.196 15.496,19.196 C15.503,19.211 15.511,19.226 15.518,19.241 C15.541,19.249 15.563,19.256 15.586,19.264 C15.600,19.287 15.615,19.309 15.630,19.332 C15.645,19.332 15.660,19.332 15.675,19.332 C15.683,19.347 15.690,19.363 15.698,19.378 C15.720,19.385 15.743,19.393 15.765,19.401 C15.780,19.423 15.795,19.446 15.810,19.469 C15.825,19.469 15.840,19.469 15.855,19.469 C15.862,19.484 15.870,19.499 15.877,19.514 C15.900,19.522 15.922,19.530 15.945,19.537 C15.967,19.567 15.990,19.598 16.012,19.628 C16.027,19.628 16.042,19.628 16.057,19.628 C16.072,19.651 16.087,19.674 16.102,19.697 C16.117,19.697 16.132,19.697 16.147,19.697 C16.162,19.719 16.177,19.742 16.192,19.765 C16.207,19.765 16.222,19.765 16.236,19.765 C16.251,19.788 16.266,19.810 16.281,19.833 C16.296,19.833 16.311,19.833 16.326,19.833 C16.341,19.856 16.356,19.879 16.371,19.901 C16.386,19.901 16.401,19.901 16.416,19.901 C16.431,19.924 16.446,19.947 16.461,19.970 C16.476,19.970 16.491,19.970 16.506,19.970 C16.521,19.993 16.536,20.015 16.551,20.038 C16.566,20.038 16.581,20.038 16.596,20.038 C16.611,20.061 16.626,20.084 16.641,20.106 C16.656,20.106 16.670,20.106 16.685,20.106 C16.700,20.129 16.715,20.152 16.730,20.175 C16.745,20.175 16.760,20.175 16.775,20.175 C16.789,20.184 16.793,20.205 16.820,20.220 C16.820,18.877 16.820,17.533 16.820,16.190 C15.234,16.190 13.647,16.190 12.061,16.190 ZM24.811,16.190 C24.811,20.501 24.811,24.813 24.811,29.124 C30.662,29.124 36.515,29.124 42.365,29.124 C42.365,24.813 42.365,20.501 42.365,16.190 C40.779,16.190 39.193,16.190 37.606,16.190 C37.606,17.700 37.606,19.211 37.606,20.721 C37.606,21.101 37.606,21.480 37.606,21.860 C37.599,21.860 37.592,21.860 37.584,21.860 C37.584,21.920 37.584,21.981 37.584,22.042 C37.480,22.368 37.285,22.558 36.956,22.657 C36.862,22.685 36.678,22.653 36.619,22.634 C36.551,22.619 36.484,22.604 36.417,22.588 C36.417,22.581 36.417,22.573 36.417,22.566 C36.402,22.566 36.387,22.566 36.372,22.566 C36.364,22.550 36.357,22.535 36.349,22.520 C36.334,22.520 36.320,22.520 36.305,22.520 C36.290,22.497 36.275,22.475 36.260,22.452 C36.245,22.452 36.230,22.452 36.215,22.452 C36.200,22.429 36.185,22.406 36.170,22.383 C36.155,22.383 36.140,22.383 36.125,22.383 C36.110,22.361 36.095,22.338 36.080,22.315 C36.065,22.315 36.050,22.315 36.035,22.315 C36.020,22.292 36.005,22.270 35.990,22.247 C35.975,22.247 35.960,22.247 35.945,22.247 C35.930,22.224 35.915,22.201 35.900,22.179 C35.886,22.179 35.871,22.179 35.856,22.179 C35.841,22.156 35.826,22.133 35.811,22.110 C35.796,22.110 35.781,22.110 35.766,22.110 C35.751,22.087 35.736,22.065 35.721,22.042 C35.706,22.042 35.691,22.042 35.676,22.042 C35.661,22.019 35.646,21.996 35.631,21.974 C35.616,21.974 35.601,21.974 35.586,21.974 C35.571,21.951 35.556,21.928 35.541,21.905 C35.526,21.905 35.511,21.905 35.496,21.905 C35.481,21.883 35.466,21.860 35.452,21.837 C35.437,21.837 35.422,21.837 35.407,21.837 C35.392,21.814 35.377,21.791 35.362,21.769 C35.347,21.769 35.332,21.769 35.317,21.769 C35.302,21.746 35.287,21.723 35.272,21.700 C35.257,21.700 35.242,21.700 35.227,21.700 C35.205,21.670 35.182,21.640 35.160,21.609 C35.145,21.609 35.130,21.609 35.115,21.609 C35.100,21.586 35.085,21.564 35.070,21.541 C35.047,21.533 35.025,21.526 35.003,21.518 C34.995,21.503 34.988,21.488 34.980,21.473 C34.965,21.473 34.950,21.473 34.935,21.473 C34.928,21.457 34.920,21.442 34.913,21.427 C34.890,21.420 34.868,21.412 34.845,21.404 C34.830,21.382 34.816,21.359 34.801,21.336 C34.786,21.336 34.771,21.336 34.756,21.336 C34.748,21.321 34.741,21.306 34.733,21.290 C34.711,21.283 34.688,21.275 34.666,21.268 C34.651,21.245 34.636,21.222 34.621,21.199 C34.606,21.199 34.591,21.199 34.576,21.199 C34.561,21.177 34.546,21.154 34.531,21.131 C34.516,21.131 34.501,21.131 34.486,21.131 C34.471,21.108 34.456,21.086 34.441,21.063 C34.426,21.063 34.411,21.063 34.397,21.063 C34.382,21.040 34.367,21.017 34.352,20.994 C34.337,20.994 34.322,20.994 34.307,20.994 C34.292,20.972 34.277,20.949 34.262,20.926 C34.247,20.926 34.232,20.926 34.217,20.926 C34.202,20.903 34.187,20.881 34.172,20.858 C34.157,20.858 34.142,20.858 34.127,20.858 C34.112,20.835 34.097,20.812 34.082,20.790 C34.067,20.790 34.052,20.790 34.037,20.790 C34.022,20.767 34.007,20.744 33.992,20.721 C33.977,20.721 33.963,20.721 33.948,20.721 C33.933,20.698 33.918,20.676 33.903,20.653 C33.888,20.653 33.873,20.653 33.858,20.653 C33.843,20.630 33.828,20.607 33.813,20.585 C33.798,20.585 33.783,20.585 33.768,20.585 C33.760,20.569 33.753,20.554 33.746,20.539 C33.723,20.531 33.701,20.524 33.678,20.516 C33.678,20.509 33.678,20.501 33.678,20.494 C33.638,20.462 33.633,20.458 33.566,20.448 C33.525,20.509 33.469,20.519 33.409,20.562 C33.394,20.585 33.379,20.607 33.364,20.630 C33.349,20.630 33.334,20.630 33.319,20.630 C33.312,20.645 33.304,20.660 33.297,20.676 C33.274,20.683 33.252,20.691 33.229,20.698 C33.214,20.721 33.199,20.744 33.184,20.767 C33.169,20.767 33.154,20.767 33.139,20.767 C33.124,20.790 33.110,20.812 33.095,20.835 C33.080,20.835 33.065,20.835 33.050,20.835 C33.035,20.858 33.020,20.881 33.005,20.903 C32.990,20.903 32.975,20.903 32.960,20.903 C32.945,20.926 32.930,20.949 32.915,20.972 C32.900,20.972 32.885,20.972 32.870,20.972 C32.855,20.994 32.840,21.017 32.825,21.040 C32.810,21.040 32.795,21.040 32.780,21.040 C32.765,21.063 32.750,21.086 32.735,21.108 C32.720,21.108 32.705,21.108 32.690,21.108 C32.676,21.131 32.661,21.154 32.646,21.177 C32.631,21.177 32.616,21.177 32.601,21.177 C32.586,21.199 32.571,21.222 32.556,21.245 C32.541,21.245 32.526,21.245 32.511,21.245 C32.488,21.275 32.466,21.306 32.444,21.336 C32.429,21.336 32.414,21.336 32.399,21.336 C32.384,21.359 32.369,21.382 32.354,21.404 C32.339,21.404 32.324,21.404 32.309,21.404 C32.294,21.427 32.279,21.450 32.264,21.473 C32.249,21.473 32.234,21.473 32.219,21.473 C32.204,21.495 32.189,21.518 32.174,21.541 C32.159,21.541 32.144,21.541 32.129,21.541 C32.122,21.556 32.114,21.571 32.107,21.586 C32.084,21.594 32.062,21.602 32.040,21.609 C32.025,21.632 32.010,21.655 31.995,21.678 C31.980,21.678 31.965,21.678 31.950,21.678 C31.942,21.693 31.935,21.708 31.927,21.723 C31.905,21.731 31.882,21.738 31.860,21.746 C31.845,21.769 31.830,21.791 31.815,21.814 C31.800,21.814 31.785,21.814 31.770,21.814 C31.755,21.837 31.740,21.860 31.725,21.883 C31.710,21.883 31.695,21.883 31.680,21.883 C31.665,21.905 31.650,21.928 31.635,21.951 C31.620,21.951 31.606,21.951 31.591,21.951 C31.576,21.974 31.561,21.996 31.546,22.019 C31.531,22.019 31.516,22.019 31.501,22.019 C31.486,22.042 31.471,22.065 31.456,22.087 C31.441,22.087 31.426,22.087 31.411,22.087 C31.396,22.110 31.381,22.133 31.366,22.156 C31.351,22.156 31.336,22.156 31.321,22.156 C31.306,22.179 31.291,22.201 31.276,22.224 C31.261,22.224 31.246,22.224 31.231,22.224 C31.216,22.247 31.201,22.270 31.187,22.292 C31.172,22.292 31.157,22.292 31.142,22.292 C31.127,22.315 31.112,22.338 31.097,22.361 C31.082,22.361 31.067,22.361 31.052,22.361 C31.037,22.383 31.022,22.406 31.007,22.429 C30.992,22.429 30.977,22.429 30.962,22.429 C30.947,22.452 30.932,22.475 30.917,22.497 C30.902,22.497 30.887,22.497 30.872,22.497 C30.865,22.512 30.857,22.528 30.850,22.543 C30.835,22.543 30.820,22.543 30.805,22.543 C30.805,22.550 30.805,22.558 30.805,22.566 C30.775,22.573 30.745,22.581 30.715,22.588 C30.715,22.596 30.715,22.604 30.715,22.611 C30.693,22.611 30.670,22.611 30.648,22.611 C30.648,22.619 30.648,22.626 30.648,22.634 C30.625,22.634 30.603,22.634 30.580,22.634 C30.580,22.642 30.580,22.649 30.580,22.657 C30.422,22.708 30.070,22.612 29.997,22.566 C29.989,22.550 29.982,22.535 29.974,22.520 C29.959,22.520 29.944,22.520 29.929,22.520 C29.900,22.482 29.870,22.444 29.840,22.406 C29.810,22.383 29.780,22.361 29.750,22.338 C29.750,22.323 29.750,22.308 29.750,22.292 C29.735,22.285 29.720,22.277 29.705,22.270 C29.609,22.115 29.615,21.884 29.615,21.632 C29.615,21.268 29.615,20.903 29.615,20.539 C29.615,19.089 29.615,17.639 29.615,16.190 C28.014,16.190 26.413,16.190 24.811,16.190 ZM31.209,16.190 C31.209,17.533 31.209,18.877 31.209,20.220 C31.216,20.220 31.224,20.220 31.231,20.220 C31.270,20.173 31.315,20.166 31.366,20.129 C31.381,20.106 31.396,20.084 31.411,20.061 C31.426,20.061 31.441,20.061 31.456,20.061 C31.463,20.046 31.471,20.030 31.478,20.015 C31.501,20.008 31.523,20.000 31.546,19.993 C31.561,19.970 31.576,19.947 31.591,19.924 C31.606,19.924 31.620,19.924 31.635,19.924 C31.650,19.901 31.665,19.879 31.680,19.856 C31.695,19.856 31.710,19.856 31.725,19.856 C31.740,19.833 31.755,19.810 31.770,19.788 C31.785,19.788 31.800,19.788 31.815,19.788 C31.830,19.765 31.845,19.742 31.860,19.719 C31.875,19.719 31.890,19.719 31.905,19.719 C31.920,19.697 31.935,19.674 31.950,19.651 C31.965,19.651 31.980,19.651 31.995,19.651 C32.010,19.628 32.025,19.605 32.040,19.583 C32.054,19.583 32.069,19.583 32.084,19.583 C32.099,19.560 32.114,19.537 32.129,19.514 C32.144,19.514 32.159,19.514 32.174,19.514 C32.189,19.492 32.204,19.469 32.219,19.446 C32.234,19.446 32.249,19.446 32.264,19.446 C32.271,19.431 32.279,19.416 32.286,19.401 C32.309,19.393 32.331,19.385 32.354,19.378 C32.369,19.355 32.384,19.332 32.399,19.309 C32.414,19.309 32.429,19.309 32.444,19.309 C32.451,19.294 32.459,19.279 32.466,19.264 C32.488,19.256 32.511,19.249 32.533,19.241 C32.548,19.218 32.563,19.196 32.578,19.173 C32.593,19.173 32.608,19.173 32.623,19.173 C32.638,19.150 32.653,19.127 32.668,19.104 C32.683,19.104 32.698,19.104 32.713,19.104 C32.728,19.082 32.743,19.059 32.758,19.036 C32.773,19.036 32.788,19.036 32.803,19.036 C32.818,19.013 32.833,18.991 32.848,18.968 C32.863,18.968 32.878,18.968 32.893,18.968 C32.907,18.945 32.922,18.922 32.937,18.900 C32.952,18.900 32.967,18.900 32.982,18.900 C32.997,18.877 33.012,18.854 33.027,18.831 C33.042,18.831 33.057,18.831 33.072,18.831 C33.087,18.808 33.102,18.786 33.117,18.763 C33.132,18.763 33.147,18.763 33.162,18.763 C33.169,18.748 33.177,18.733 33.184,18.717 C33.199,18.717 33.214,18.717 33.229,18.717 C33.229,18.710 33.229,18.702 33.229,18.695 C33.259,18.687 33.289,18.679 33.319,18.672 C33.319,18.664 33.319,18.657 33.319,18.649 C33.394,18.619 33.686,18.601 33.768,18.626 C33.768,18.634 33.768,18.641 33.768,18.649 C33.798,18.649 33.828,18.649 33.858,18.649 C33.858,18.657 33.858,18.664 33.858,18.672 C33.873,18.672 33.888,18.672 33.903,18.672 C33.903,18.679 33.903,18.687 33.903,18.695 C33.925,18.695 33.948,18.695 33.970,18.695 C33.977,18.710 33.985,18.725 33.992,18.740 C34.022,18.748 34.052,18.755 34.082,18.763 C34.097,18.786 34.112,18.808 34.127,18.831 C34.142,18.831 34.157,18.831 34.172,18.831 C34.187,18.854 34.202,18.877 34.217,18.900 C34.232,18.900 34.247,18.900 34.262,18.900 C34.277,18.922 34.292,18.945 34.307,18.968 C34.322,18.968 34.337,18.968 34.352,18.968 C34.367,18.991 34.382,19.013 34.397,19.036 C34.411,19.036 34.426,19.036 34.441,19.036 C34.464,19.067 34.486,19.097 34.509,19.127 C34.524,19.127 34.539,19.127 34.554,19.127 C34.569,19.150 34.584,19.173 34.599,19.196 C34.621,19.203 34.643,19.211 34.666,19.218 C34.673,19.234 34.681,19.249 34.688,19.264 C34.703,19.264 34.718,19.264 34.733,19.264 C34.741,19.279 34.748,19.294 34.756,19.309 C34.778,19.317 34.801,19.325 34.823,19.332 C34.838,19.355 34.853,19.378 34.868,19.401 C34.883,19.401 34.898,19.401 34.913,19.401 C34.920,19.416 34.928,19.431 34.935,19.446 C34.958,19.454 34.980,19.461 35.003,19.469 C35.018,19.492 35.033,19.514 35.047,19.537 C35.062,19.537 35.077,19.537 35.092,19.537 C35.107,19.560 35.122,19.583 35.137,19.605 C35.152,19.605 35.167,19.605 35.182,19.605 C35.197,19.628 35.212,19.651 35.227,19.674 C35.242,19.674 35.257,19.674 35.272,19.674 C35.287,19.697 35.302,19.719 35.317,19.742 C35.332,19.742 35.347,19.742 35.362,19.742 C35.377,19.765 35.392,19.788 35.407,19.810 C35.422,19.810 35.437,19.810 35.452,19.810 C35.466,19.833 35.481,19.856 35.496,19.879 C35.511,19.879 35.526,19.879 35.541,19.879 C35.556,19.901 35.571,19.924 35.586,19.947 C35.601,19.947 35.616,19.947 35.631,19.947 C35.646,19.970 35.661,19.993 35.676,20.015 C35.691,20.015 35.706,20.015 35.721,20.015 C35.736,20.038 35.751,20.061 35.766,20.084 C35.781,20.084 35.796,20.084 35.811,20.084 C35.818,20.099 35.826,20.114 35.833,20.129 C35.856,20.137 35.878,20.144 35.900,20.152 C35.900,20.160 35.900,20.167 35.900,20.175 C35.934,20.201 35.940,20.206 35.990,20.220 C35.990,18.877 35.990,17.533 35.990,16.190 C34.397,16.190 32.803,16.190 31.209,16.190 ZM1.691,30.763 C1.691,31.294 1.691,31.826 1.691,32.357 C16.579,32.357 31.472,32.357 46.361,32.357 C46.361,31.826 46.361,31.294 46.361,30.763 C31.472,30.763 16.579,30.763 1.691,30.763 Z"/>
</svg>
