<svg xmlns="http://www.w3.org/2000/svg" xmlns:xlink="http://www.w3.org/1999/xlink" style="display: none;"><symbol class="ep-icon-svg" viewBox="0 0 50 50" id="ep-icon-share"><path d="m39.593 49.999a7.7318 7.7318 0 0 0 6.7009-3.9176 7.8865 7.8865 0 0 0-2.835-10.773 7.7318 7.7318 0 0 0-9.3555 1.3144l-0.41235 0.43815-16.134-9.3555 0.18041-0.56701a8.3763 8.3763 0 0 0 0-4.2269l-0.15464-0.48968 16.211-9.4843 0.41235 0.43815a7.7318 7.7318 0 0 0 9.3555 1.3144 7.8865 7.8865 0 0 0 2.835-10.696 7.7318 7.7318 0 0 0-6.7009-3.9947 7.5 7.5 0 0 0-3.8401 1.0567 7.7318 7.7318 0 0 0-3.5824 8.8657l0.15464 0.56701-16.211 9.4843-0.41235-0.43815a7.7318 7.7318 0 0 0-5.5154-2.268 7.5 7.5 0 0 0-3.8401 1.0567 7.7318 7.7318 0 0 0-2.835 10.593 7.7318 7.7318 0 0 0 10.541 2.8866 8.1183 8.1183 0 0 0 1.6495-1.2886l0.41235-0.36082 16.108 9.433-0.15464 0.56701a7.7318 7.7318 0 0 0 3.5824 8.8657 7.5513 7.5513 0 0 0 3.8401 0.97936zm-2.3969-46.573a4.9743 4.9743 0 0 1 2.5773-0.67009 5.1544 5.1544 0 0 1 4.3557 2.5773 5.1544 5.1544 0 0 1-1.9072 6.7781 4.9998 4.9998 0 0 1-6.9073-1.6752 5.1544 5.1544 0 0 1 1.8814-7.0102zm-24.381 25.979a4.9998 4.9998 0 0 1-6.8298-1.8299 5.1544 5.1544 0 0 1 1.8041-6.9586 5.3608 5.3608 0 0 1 2.5773-0.69586 5.1544 5.1544 0 0 1 4.3299 2.5 5.1544 5.1544 0 0 1-1.8814 6.9844zm22.448 10.309a4.9743 4.9743 0 0 1 4.3299-2.5773 4.8197 4.8197 0 0 1 2.5773 0.69586 5.1544 5.1544 0 0 1 1.8299 6.9073 4.9743 4.9743 0 0 1-6.7781 1.9072 5.1544 5.1544 0 0 1-1.9072-6.9844z" stroke-width="2.5773"/></symbol><symbol class="ep-icon-svg" viewBox="0 0 50 50" id="ep-icon-favorite"><path d="m43.179 6.8252a13.867 13.867 0 0 0-4.092-1.5661 12.149 12.149 0 0 0-2.526-0.17682 10.584 10.584 0 0 0-2.526 0.22734 15.56 15.56 0 0 0-7.2747 4.572l-1.7429 1.7429-1.4398-1.4903a15.687 15.687 0 0 0-7.401-4.774 7.3252 7.3252 0 0 0-2.6775-0.27785 12.149 12.149 0 0 0-2.526 0.17682 13.716 13.716 0 0 0-9.5228 7.1485 12.63 12.63 0 0 0-1.4398 6.3654 10.836 10.836 0 0 0 0.2526 2.8543 16.949 16.949 0 0 0 3.5615 7.1232 93.46 93.46 0 0 0 17.024 14.524 16.975 16.975 0 0 0 3.0312 1.5155 3.5363 3.5363 0 0 0 1.0356 0.15155 5.6581 5.6581 0 0 0 2.526-0.75779 73.252 73.252 0 0 0 13.893-10.559 29.654 29.654 0 0 0 7.0474-8.3356 13.893 13.893 0 0 0-5.2034-18.465z" stroke-width=".097657"/></symbol><symbol class="ep-icon-svg" viewBox="0 0 50 50" id="ep-icon-favorite-empty"><path d="m43.205 6.7543a13.876 13.914 0 0 0-4.0944-1.5714 12.814 12.85 0 0 0-2.5275-0.17742 11.222 11.253 0 0 0-2.5275 0.22811 15.493 15.537 0 0 0-7.2793 4.5873l-1.744 1.7488-1.4406-1.4954a15.696 15.739 0 0 0-7.4055-4.7901 7.3298 7.3502 0 0 0-2.6791-0.25345h-0.12637a11.323 11.355 0 0 0-2.5275 0.17742 13.749 13.788 0 0 0-9.4023 7.1474 12.637 12.673 0 0 0-1.4406 6.3868 10.843 10.873 0 0 0 0.25275 2.864 17.111 17.158 0 0 0 3.5637 7.1474 92.709 92.967 0 0 0 17.035 14.573 16.985 17.032 0 0 0 3.033 1.5207 3.6648 3.675 0 0 0 1.0363 0.15207 5.6615 5.6773 0 0 0 2.5275-0.76034 73.298 73.502 0 0 0 13.901-10.594 29.673 29.755 0 0 0 7.0515-8.4399 13.901 13.94 0 0 0-5.2064-18.451zm4.1198 14.117a17.414 17.463 0 0 1-5.9144 9.3522 82.496 82.726 0 0 1-14.457 11.557 4.6 4.6128 0 0 1-1.9967 0.78569h-0.2022a34.02 34.114 0 0 1-7.4561-4.8663c-1.4659-1.1405-2.0978-1.6474-4.7768-3.9285-1.4154-1.2165-5.0551-4.6887-6.0155-5.8039a15.165 15.207 0 0 1-3.8419-7.3754 13.775 13.813 0 0 1 0-4.3341 11.272 11.304 0 0 1 9.857-8.7693h0.96042a9.2 9.2256 0 0 1 5.0551 1.6728 23.278 23.343 0 0 1 4.0944 3.4976c1.4912 1.5714 1.8198 1.7995 2.3758 1.7995s0.93517-0.2281 3.134-2.3824a34.93 35.027 0 0 1 2.8055-2.5345 9.2251 9.2508 0 0 1 5.6615-2.0276h0.88461a11.272 11.304 0 0 1 9.7814 8.7441 14.053 14.092 0 0 1 0.22747 2.0783 9.4023 9.4284 0 0 1-0.17692 2.5345z" stroke-width="2.531"/></symbol><symbol class="ep-icon-svg" viewBox="0 0 50 50" id="ep-icon-arrow-down"><path d="m0.14392 12.658c0.21164-0.61071 0.96087-1.3361 1.5703-1.5205 0.64978-0.19653 1.0685-0.18431 1.6958 0.049512 0.50288 0.18745 0.97725 0.65548 11.058 10.91l10.532 10.714 10.435-10.627c7.3822-7.5187 10.562-10.699 10.873-10.871 1.7153-0.95082 3.8673 0.48658 3.6812 2.4588-0.097075 1.0289 0.30492 0.59-12.073 13.182-11.061 11.252-11.576 11.762-12.044 11.916-0.68352 0.22446-1.5858 0.15311-2.1145-0.16723-0.21782-0.13197-5.5283-5.4789-11.928-12.01-10.595-10.812-11.548-11.81-11.689-12.234-0.18809-0.56513-0.1863-1.2494 0.00469-1.8005z" stroke-width=".09162"/></symbol><symbol class="ep-icon-svg" viewBox="0 0 50 50" id="ep-icon-items"><path d="m1.8228 42.876c-0.67635-0.24107-1.1978-0.68801-1.5064-1.2911-0.22728-0.44418-0.31117-0.80004-0.3119-1.3232-0.0010937-0.7724 0.23758-1.3658 0.77324-1.9226 1.4548-1.5119 3.9231-0.77691 4.3951 1.3088 0.14713 0.65016 0.078324 1.2402-0.21922 1.8797-0.17421 0.37449-0.72 0.95954-1.0818 1.1596-0.59952 0.3316-1.4326 0.40831-2.0489 0.18865zm11.72-0.65629c-0.71964-0.23827-1.227-0.82292-1.3803-1.5903-0.14885-0.74559 0.22118-1.6185 0.86911-2.0502 0.56021-0.37329-0.93405-0.34611 18.184-0.33072l17.304 0.013936 0.33796 0.16684c0.4141 0.20442 0.77626 0.57156 0.97074 0.9841 0.131 0.27788 0.14647 0.36788 0.14647 0.85204 0 0.47445-0.017265 0.57971-0.13971 0.85185-0.1785 0.39671-0.58454 0.81967-0.9654 1.0056l-0.29809 0.14552-17.41 0.010073c-13.962 0.008135-17.451-0.003562-17.618-0.058745zm-11.602-14.57c-0.42953-0.1205-0.79029-0.33762-1.1367-0.68413-0.53304-0.53317-0.79992-1.1891-0.79992-1.9662 0-0.77705 0.26687-1.4331 0.79992-1.9662 1.0425-1.0427 2.6167-1.0325 3.6545 0.023803 1.4486 1.4744 0.78325 4.0513-1.1871 4.5976-0.3506 0.097207-0.97503 0.094948-1.3307-0.004781zm11.547-0.72115c-0.69229-0.24617-1.1493-0.78645-1.3075-1.5456-0.075124-0.3606-0.074683-0.42426 0.005498-0.7938 0.15784-0.72753 0.65424-1.295 1.3229-1.5124 0.32658-0.10617 0.52375-0.10738 17.569-0.10738 19.166 0 17.503-0.033365 18.076 0.36271 0.55462 0.38343 0.84281 0.95357 0.84281 1.6673 0 0.91325-0.52408 1.6586-1.3559 1.9283-0.30483 0.098824-0.82019 0.10169-17.602 0.09801-16.22-0.003562-17.305-0.009562-17.551-0.097064zm-11.49-14.538c-0.66308-0.16683-1.4039-0.76089-1.6939-1.358-0.29575-0.6083-0.3843-1.3926-0.22671-2.01 0.30125-1.178 1.3551-2.0223 2.5248-2.0223 1.4127 0 2.5299 1.077 2.6337 2.539 0.12971 1.8268-1.5252 3.2843-3.2378 2.8517zm11.515-0.72935c-0.72509-0.24216-1.2079-0.82992-1.3523-1.6463-0.14965-0.84599 0.32876-1.7441 1.14-2.1403l0.29494-0.14402 17.377-0.013852c15.297-0.012194 17.408-0.0041562 17.639 0.067099 0.57963 0.1793 1.0707 0.66001 1.2865 1.2594 0.15737 0.43697 0.13203 1.106-0.057926 1.5294-0.18462 0.41145-0.54856 0.78326-0.97044 0.99143l-0.34949 0.17245-17.358 0.010828c-16.562 0.010333-17.371 0.006375-17.648-0.086215z" stroke-width=".099669"/></symbol><symbol class="ep-icon-svg" viewBox="0 0 50 50" id="ep-icon-plus-circle"><path d="m23.742 49.977c-3.4965-0.16797-7.0215-1.1084-10.171-2.7135-4.2424-2.1623-8.071-5.8426-10.378-9.9757-1.7048-3.0549-2.6572-6.0256-3.0969-9.6601-0.11502-0.95085-0.13149-4.1701-0.025929-5.0684 0.4146-3.5287 1.2114-6.2053 2.7086-9.0992 2.9736-5.7475 8.1867-10.203 14.297-12.221 0.528-0.17431 1.7402-0.52899 1.9459-0.56936 0.055474-0.01089 0.37122-0.07861 0.70164-0.15049 0.60695-0.13203 1.3839-0.27465 1.7182-0.31538 0.10005-0.01219 0.36795-0.04639 0.59535-0.076 0.78426-0.10211 1.4631-0.12988 3.1208-0.12769 1.8474 0.0024 2.3863 0.04509 3.9911 0.31576 2.7907 0.47067 5.4131 1.3784 7.8415 2.7143 5.666 3.1168 9.9033 8.2634 11.841 14.382 1.2104 3.8212 1.4866 7.9347 0.79762 11.878-0.44366 2.5394-1.2254 4.8657-2.4011 7.1446-3.8319 7.428-11.031 12.412-19.368 13.41-0.50304 0.06019-0.75848 0.08308-1.2213 0.10938-0.9024 0.05127-2.0953 0.06014-2.8984 0.02157zm2.5865-3.9188c1.9485-0.10776 4.1178-0.56548 6.0128-1.2687 4.963-1.8416 9.1487-5.5994 11.525-10.347 1.016-2.0295 1.717-4.2741 2.0228-6.4767 0.12796-0.92174 0.13902-1.0445 0.1836-2.0404 0.20118-4.4934-1.0183-8.8998-3.4924-12.619-1.8109-2.7223-4.2568-5.016-7.079-6.6384-2.5193-1.4483-5.0494-2.2815-8.1113-2.671-0.91668-0.11664-3.4279-0.14119-4.4083-0.0431-2.4813 0.24828-4.8673 0.90921-7.0483 1.9524-0.80315 0.38416-0.93091 0.45238-1.7671 0.94367-3.2444 1.9062-6.1176 4.9424-7.8792 8.3262-1.3822 2.6551-2.1439 5.3424-2.3655 8.3452-0.1031 1.3978-0.015516 3.377 0.21279 4.8086 1.0279 6.4456 5.0188 12.075 10.794 15.227 2.7163 1.4822 5.93 2.387 8.905 2.5073 0.44308 0.0179 0.81125 0.037 0.81816 0.04244 0.02087 0.01642 1.0392-0.01268 1.6765-0.04794zm-1.857-9.0493c-0.5214-0.14045-0.99424-0.54063-1.2469-1.0553l-0.14445-0.29421-0.028287-8.7073h-4.0918c-2.4076 0-4.219-0.02115-4.4009-0.05095-0.85537-0.1401-1.5008-0.78366-1.6392-1.6346-0.15323-0.94172 0.43386-1.8403 1.4085-2.1556 0.13571-0.04391 1.3669-0.06388 4.4438-0.07209l4.256-0.01132 0.025987-4.3407c0.027805-4.6445 0.01653-4.4537 0.28903-4.8897 0.17912-0.2866 0.62316-0.65642 0.92187-0.76776 1.1857-0.44196 2.3977 0.24652 2.6347 1.4967 0.032416 0.17097 0.052371 1.8464 0.052371 4.3971v4.1209l4.2883 0.0057c4.1664 0.0055 4.2962 0.0086 4.5686 0.11054 1.2734 0.47653 1.6792 2.1097 0.77424 3.1163-0.22692 0.25244-0.44352 0.39693-0.84763 0.56547-0.20362 0.08491-1.6284 0.11015-6.2238 0.11022l-2.5597 2.9e-5 -2.9291e-4 4.0938c-1.9528e-4 2.3688-0.021335 4.2222-0.050217 4.3986-0.18756 1.1455-1.3079 1.8668-2.4301 1.5645z" stroke-width=".097647"/></symbol><symbol class="ep-icon-svg" viewBox="0 0 50 50" id="ep-icon-arrow-line-right"><path d="m31.61 41.9c-1.0145-0.61853-1.4523-1.9136-0.96973-2.8674 0.11351-0.22433 2.7389-2.9497 5.8341-6.0563l5.6277-5.6485h-20.125c-21.675 0-20.985 0.030406-21.676-0.95546-0.39519-0.56422-0.40291-2.182-0.01307-2.7386 0.71401-1.0194-0.28955-0.97411 21.592-0.97411h20.222l-5.6277-5.6485c-3.0952-3.1066-5.7206-5.832-5.8341-6.0563-0.91619-1.8107 1.3062-3.9255 3.1173-2.9662 0.74497 0.3946 16.035 15.81 16.187 16.321 0.071826 0.24 0.074707 0.74417 0.00635 1.1203-0.10736 0.59124-1.1797 1.743-7.9069 8.4928-4.2805 4.2948-8.0096 7.929-8.287 8.076-0.69397 0.36757-1.4389 0.3333-2.1476-0.098818z" stroke-width=".097656"/></symbol><symbol class="ep-icon-svg" viewBox="0 0 50 50" id="ep-icon-menu-circle"><path d="m5.3127 30.996c-2.0118-0.28711-3.7715-1.5303-4.6286-3.2686-0.91205-1.8502-0.91205-3.61 0-5.4601 0.72191-1.4645 2.1049-2.6032 3.7493-3.0873 0.88739-0.26123 2.3471-0.24393 3.2731 0.038806 2.8613 0.87364 4.601 3.5238 4.28 6.5199-0.24484 2.2853-1.9636 4.3316-4.2107 5.0133-0.66032 0.20035-1.9044 0.32346-2.4631 0.24373zm18.734-0.043034c-2.682-0.47899-4.6127-2.4873-5.0194-5.2213-0.39771-2.6739 1.3357-5.4835 3.9502-6.4025 2.222-0.78096 4.6035-0.24004 6.267 1.4234 2.9728 2.9728 2.0673 7.99-1.7535 9.7162-1.0609 0.47938-2.4095 0.66891-3.4443 0.48409zm19.005 0.007314c-2.6966-0.48905-4.7607-2.628-5.0385-5.2213-0.32101-2.9961 1.4188-5.6463 4.28-6.5199 0.92599-0.28273 2.3857-0.30004 3.2731-0.038806 1.6444 0.48409 3.0275 1.6229 3.7493 3.0873 0.91205 1.8502 0.91205 3.61 0 5.4601-0.71462 1.4496-2.1247 2.6187-3.7007 3.068-0.67521 0.19252-1.956 0.27482-2.5632 0.1647z" stroke-width=".097657"/></symbol><symbol class="ep-icon-svg" viewBox="0 0 50 50" id="ep-icon-logout"><path d="m3.2503 49.943c-0.6266-0.14768-1.2357-0.65815-1.5323-1.2842l-0.18085-0.38178v-46.557l0.18085-0.38178c0.23408-0.49413 0.64238-0.90243 1.1365-1.1365l0.38178-0.18085 10.251-0.015135c10.079-0.014881 10.258-0.013253 10.621 0.097085 0.68251 0.20686 1.2677 0.76401 1.5031 1.4309 0.38177 1.0821-0.1355 2.2725-1.2083 2.7807l-0.38178 0.18085-17.983 0.029351v40.946l17.983 0.029688 0.38178 0.18085c0.67765 0.32101 1.1391 0.90427 1.2889 1.629 0.22758 1.1015-0.46578 2.2383-1.574 2.5805-0.35697 0.11026-0.54542 0.11217-10.51 0.10658-5.6623-0.00322-10.24-0.027832-10.359-0.055802zm31.912-12.119c-1.0097-0.21182-1.7516-1.0655-1.8096-2.0824-0.029299-0.51347 0.072678-0.92895 0.33103-1.3489 0.1014-0.16479 1.5698-1.6651 3.6092-3.6878l3.4382-3.4099-28.319-0.033272-0.32015-0.12945c-1.4551-0.58832-1.9529-2.3252-1.0085-3.5199 0.2527-0.31969 0.62364-0.59183 1.0402-0.76311l0.28852-0.11864 28.258-0.030078-3.4308-3.4399c-2.0925-2.0981-3.4892-3.5417-3.5806-3.7009-0.24143-0.42059-0.3345-0.81571-0.30644-1.3009 0.07636-1.3205 1.2798-2.2996 2.5783-2.0974 0.78942 0.1229 0.50498-0.13363 6.5657 5.9213 3.9339 3.9302 5.5954 5.6266 5.6829 5.8023 0.37814 0.75917 0.378 1.4655-5.86e-4 2.2223-0.087036 0.17406-1.7163 1.8439-5.4564 5.592-2.9328 2.9391-5.4773 5.4663-5.6544 5.6159-0.17717 0.14964-0.46261 0.32464-0.6343 0.38887-0.37032 0.13856-0.92986 0.19128-1.2708 0.11977z" stroke-width=".097658"/></symbol></svg>
