<svg id="noun_Reply_77950" xmlns="http://www.w3.org/2000/svg" width="14.921" height="10.667" viewBox="0 0 14.921 10.667">
  <path id="Path_36" data-name="Path 36" d="M16.316,35.833c1.142-2.406,3.474-5.6,7.883-6a1.031,1.031,0,0,0,.932-.987c0-.012,0-.023,0-.036s0-.022,0-.034V27.337h0a.462.462,0,0,1,.755-.353L25.9,27l4.908,4.343,0,0,.06.054a1.021,1.021,0,0,1,.068,1.409l-.178.163L25.92,37.411l-.019.019a.464.464,0,0,1-.307.115.459.459,0,0,1-.462-.457h0v-1.8c0-.012,0-.023,0-.035s0-.023,0-.035a1.033,1.033,0,0,0-1.038-.993v0c-2.832.056-5.146.413-7,2.088h0l-.1.1h0a.467.467,0,0,1-.258.078.459.459,0,0,1-.461-.457A.442.442,0,0,1,16.316,35.833Z" transform="translate(-16.27 -26.879)" fill="#e0e0e0"/>
</svg>
