<svg
        xmlns="http://www.w3.org/2000/svg"
        xmlns:xlink="http://www.w3.org/1999/xlink"
        width="51px" height="55px">
    <path fill-rule="evenodd"  fill="rgb(19, 129, 243)"
          d="M16.226,5.749 C16.187,5.557 16.149,5.365 16.110,5.173 C16.071,5.173 16.032,5.173 15.993,5.173 C15.993,4.866 15.993,4.558 15.993,4.251 C15.991,3.144 16.080,2.314 16.110,1.601 C16.392,1.435 16.590,1.133 16.926,1.025 C17.509,1.025 18.092,1.025 18.675,1.025 C20.223,1.024 22.412,0.789 23.572,1.255 C23.641,1.380 23.777,1.438 23.806,1.485 C23.806,1.562 23.806,1.639 23.806,1.716 C23.844,1.716 23.883,1.716 23.922,1.716 C23.922,2.100 23.922,2.484 23.922,2.868 C24.155,3.696 23.938,4.653 23.922,5.519 C23.806,5.595 23.689,5.672 23.572,5.749 C23.224,6.094 22.274,5.979 21.590,5.979 C19.958,5.979 18.325,5.979 16.693,5.979 C16.693,5.941 16.693,5.903 16.693,5.864 C16.537,5.826 16.382,5.787 16.226,5.749 ZM37.332,4.021 C37.259,4.341 37.152,4.573 36.982,4.827 C36.904,4.866 36.826,4.904 36.749,4.942 C36.749,5.019 36.749,5.096 36.749,5.173 C36.671,5.211 36.593,5.250 36.516,5.288 C36.477,5.442 36.438,5.595 36.399,5.749 C36.360,5.749 36.321,5.749 36.282,5.749 C36.205,5.979 36.127,6.210 36.049,6.440 C36.010,6.440 35.971,6.440 35.932,6.440 C35.855,6.786 35.777,7.132 35.699,7.478 C35.660,7.478 35.622,7.478 35.583,7.478 C35.583,7.631 35.583,7.785 35.583,7.938 C35.544,7.938 35.505,7.938 35.466,7.938 C35.466,8.169 35.466,8.399 35.466,8.630 C35.427,8.630 35.388,8.630 35.349,8.630 C35.100,9.498 35.519,11.325 35.699,11.856 C35.738,12.125 35.777,12.394 35.816,12.663 C35.961,13.028 36.191,13.359 36.282,13.815 C25.556,13.815 14.826,13.815 4.099,13.815 C4.099,22.534 4.099,31.255 4.099,39.973 C13.932,39.973 23.768,39.973 33.600,39.973 C33.600,41.279 33.600,42.585 33.600,43.891 C32.979,44.116 31.850,44.006 31.035,44.006 C29.286,44.006 27.537,44.006 25.788,44.006 C25.655,43.875 25.787,43.960 25.555,43.891 C25.555,43.968 25.555,44.045 25.555,44.121 C26.138,44.621 26.721,45.120 27.304,45.619 C27.420,45.773 27.537,45.927 27.654,46.080 C27.731,46.080 27.809,46.080 27.887,46.080 C28.275,46.503 28.664,46.925 29.053,47.348 C29.131,47.348 29.208,47.348 29.286,47.348 C29.325,47.425 29.364,47.502 29.403,47.578 C29.441,47.578 29.480,47.578 29.519,47.578 C29.869,47.962 30.219,48.347 30.569,48.731 C30.646,48.731 30.724,48.731 30.802,48.731 C31.229,49.192 31.657,49.653 32.085,50.113 C32.162,50.113 32.240,50.113 32.318,50.113 C32.357,50.190 32.395,50.267 32.434,50.344 C32.629,50.498 32.823,50.651 33.017,50.805 C33.017,50.882 33.017,50.958 33.017,51.035 C33.095,51.074 33.173,51.112 33.251,51.151 C33.289,51.304 33.328,51.458 33.367,51.611 C33.406,51.611 33.445,51.611 33.484,51.611 C33.849,52.528 33.152,53.729 32.434,53.916 C32.151,54.203 31.501,54.159 30.918,54.147 C30.702,53.901 30.380,53.880 30.102,53.686 C29.752,53.302 29.403,52.917 29.053,52.533 C28.975,52.533 28.897,52.533 28.820,52.533 C28.509,52.188 28.198,51.842 27.887,51.496 C27.848,51.496 27.809,51.496 27.770,51.496 C27.731,51.419 27.692,51.343 27.654,51.266 C27.576,51.266 27.498,51.266 27.420,51.266 C26.954,50.766 26.487,50.267 26.021,49.768 C25.943,49.768 25.866,49.768 25.788,49.768 C25.477,49.422 25.166,49.076 24.855,48.731 C24.816,48.731 24.777,48.731 24.738,48.731 C24.700,48.654 24.661,48.577 24.622,48.500 C24.544,48.500 24.466,48.500 24.389,48.500 C24.000,48.078 23.611,47.655 23.223,47.233 C23.145,47.233 23.067,47.233 22.989,47.233 C22.950,47.156 22.912,47.079 22.873,47.002 C22.601,46.772 22.329,46.541 22.057,46.311 C22.057,48.423 22.057,50.536 22.057,52.649 C22.018,52.649 21.979,52.649 21.940,52.649 C21.979,52.764 22.018,52.879 22.057,52.994 C22.018,52.994 21.979,52.994 21.940,52.994 C21.901,53.301 21.862,53.609 21.823,53.916 C21.784,53.916 21.746,53.916 21.707,53.916 C21.707,53.993 21.707,54.070 21.707,54.147 C21.629,54.185 21.551,54.223 21.473,54.262 C21.357,54.415 21.240,54.569 21.124,54.723 C20.936,54.843 19.794,55.108 19.375,54.953 C19.375,54.915 19.375,54.876 19.375,54.838 C19.297,54.838 19.219,54.838 19.141,54.838 C19.141,54.800 19.141,54.761 19.141,54.723 C19.064,54.723 18.986,54.723 18.908,54.723 C18.908,54.684 18.908,54.646 18.908,54.607 C18.792,54.569 18.675,54.531 18.558,54.492 C18.451,54.072 18.105,53.738 17.975,53.340 C17.975,51.112 17.975,48.884 17.975,46.656 C17.936,46.656 17.898,46.656 17.859,46.656 C17.548,46.925 17.237,47.194 16.926,47.463 C16.770,47.655 16.615,47.847 16.459,48.039 C16.382,48.039 16.304,48.039 16.226,48.039 C16.187,48.116 16.149,48.193 16.110,48.270 C15.832,48.529 15.458,48.970 15.060,49.076 C15.060,49.153 15.060,49.230 15.060,49.307 C14.983,49.307 14.905,49.307 14.827,49.307 C14.527,49.823 14.028,50.114 13.544,50.459 C13.272,50.766 13.000,51.074 12.728,51.381 C12.612,51.419 12.495,51.458 12.378,51.496 C11.990,51.919 11.601,52.341 11.212,52.764 C11.135,52.764 11.057,52.764 10.979,52.764 C10.668,53.109 10.357,53.455 10.046,53.801 C9.891,53.839 9.735,53.878 9.580,53.916 C9.580,53.955 9.580,53.993 9.580,54.031 C9.502,54.031 9.424,54.031 9.347,54.031 C9.347,54.070 9.347,54.108 9.347,54.147 C8.711,54.371 8.010,53.998 7.598,53.916 C7.442,53.724 7.287,53.532 7.131,53.340 C7.092,53.340 7.053,53.340 7.015,53.340 C6.762,52.957 6.779,52.250 6.781,51.611 C6.976,51.304 7.170,50.997 7.364,50.690 C7.559,50.536 7.753,50.382 7.947,50.229 C7.986,50.152 8.025,50.075 8.064,49.998 C8.142,49.998 8.219,49.998 8.297,49.998 C8.569,49.691 8.841,49.384 9.113,49.076 C9.230,49.000 9.347,48.923 9.463,48.846 C9.463,48.807 9.463,48.769 9.463,48.731 C9.541,48.731 9.619,48.731 9.696,48.731 C10.007,48.385 10.318,48.039 10.629,47.694 C10.707,47.694 10.785,47.694 10.862,47.694 C11.251,47.271 11.640,46.848 12.029,46.426 C12.106,46.426 12.184,46.426 12.262,46.426 C12.417,46.234 12.573,46.042 12.728,45.850 C12.884,45.735 13.039,45.619 13.195,45.504 C13.233,45.427 13.272,45.350 13.311,45.274 C13.389,45.274 13.467,45.274 13.544,45.274 C13.700,45.082 13.855,44.890 14.011,44.698 C14.272,44.442 14.587,44.417 14.710,44.006 C11.990,44.006 9.269,44.006 6.548,44.006 C4.786,44.006 2.961,44.105 1.884,43.430 C1.845,43.353 1.806,43.276 1.767,43.200 C1.690,43.200 1.612,43.200 1.534,43.200 C1.495,43.123 1.456,43.046 1.417,42.969 C1.223,42.815 1.029,42.662 0.834,42.508 C0.002,41.343 0.018,39.787 0.018,37.784 C0.018,35.710 0.018,33.635 0.018,31.561 C0.018,22.420 0.018,13.277 0.018,4.136 C4.682,4.136 9.347,4.136 14.011,4.136 C13.955,8.296 16.414,7.939 20.424,7.938 C21.913,7.938 23.847,8.070 24.738,7.478 C24.777,7.401 24.816,7.324 24.855,7.247 C25.049,7.093 25.244,6.940 25.438,6.786 C25.516,6.556 25.594,6.325 25.671,6.095 C25.710,6.095 25.749,6.095 25.788,6.095 C25.788,5.941 25.788,5.787 25.788,5.634 C25.827,5.634 25.866,5.634 25.904,5.634 C26.110,4.979 25.739,4.578 26.138,4.136 C26.432,3.882 28.449,4.021 29.053,4.021 C31.812,4.021 34.572,4.021 37.332,4.021 ZM43.395,4.251 C45.530,4.220 47.062,5.000 47.943,6.210 C48.098,6.325 48.254,6.440 48.409,6.556 C48.448,6.709 48.487,6.863 48.526,7.017 C48.604,7.055 48.681,7.093 48.759,7.132 C48.759,7.247 48.759,7.362 48.759,7.478 C48.798,7.478 48.837,7.478 48.876,7.478 C48.876,7.554 48.876,7.631 48.876,7.708 C48.914,7.708 48.953,7.708 48.992,7.708 C48.992,7.823 48.992,7.938 48.992,8.054 C49.409,9.102 49.406,10.214 48.992,11.280 C48.992,11.395 48.992,11.511 48.992,11.626 C48.953,11.626 48.914,11.626 48.876,11.626 C48.876,11.703 48.876,11.780 48.876,11.856 C48.837,11.856 48.798,11.856 48.759,11.856 C48.681,12.087 48.604,12.317 48.526,12.548 C48.448,12.586 48.370,12.625 48.293,12.663 C47.457,13.883 46.502,14.503 44.911,14.968 C44.302,15.145 42.481,14.882 42.113,14.737 C42.113,14.699 42.113,14.660 42.113,14.622 C41.996,14.622 41.879,14.622 41.763,14.622 C41.763,14.584 41.763,14.545 41.763,14.507 C41.685,14.507 41.607,14.507 41.530,14.507 C41.530,14.468 41.530,14.430 41.530,14.391 C41.452,14.391 41.374,14.391 41.296,14.391 C41.257,14.315 41.219,14.238 41.180,14.161 C41.102,14.161 41.024,14.161 40.946,14.161 C40.908,14.084 40.869,14.007 40.830,13.931 C40.752,13.931 40.674,13.931 40.597,13.931 C40.480,13.777 40.363,13.623 40.247,13.470 C40.014,13.278 39.780,13.085 39.547,12.893 C39.547,12.817 39.547,12.740 39.547,12.663 C39.469,12.625 39.392,12.586 39.314,12.548 C39.275,12.433 39.236,12.317 39.197,12.202 C39.159,12.202 39.120,12.202 39.081,12.202 C39.042,12.010 39.003,11.818 38.964,11.626 C38.925,11.626 38.886,11.626 38.848,11.626 C38.848,11.549 38.848,11.472 38.848,11.395 C38.809,11.395 38.770,11.395 38.731,11.395 C38.731,11.242 38.731,11.088 38.731,10.934 C38.372,9.849 38.454,8.911 38.848,7.938 C38.848,7.823 38.848,7.708 38.848,7.593 C38.886,7.593 38.925,7.593 38.964,7.593 C39.042,7.362 39.120,7.132 39.197,6.901 C39.275,6.863 39.353,6.825 39.431,6.786 C39.431,6.709 39.431,6.632 39.431,6.556 C39.547,6.479 39.664,6.402 39.780,6.325 C39.780,6.248 39.780,6.172 39.780,6.095 C39.858,6.056 39.936,6.018 40.014,5.979 C40.130,5.826 40.247,5.672 40.363,5.519 C40.441,5.519 40.519,5.519 40.597,5.519 C40.674,5.403 40.752,5.288 40.830,5.173 C40.985,5.134 41.141,5.096 41.296,5.058 C41.335,4.981 41.374,4.904 41.413,4.827 C41.491,4.827 41.568,4.827 41.646,4.827 C41.646,4.789 41.646,4.750 41.646,4.712 C41.763,4.712 41.879,4.712 41.996,4.712 C41.996,4.674 41.996,4.635 41.996,4.597 C42.113,4.597 42.229,4.597 42.346,4.597 C42.346,4.558 42.346,4.520 42.346,4.481 C42.462,4.481 42.579,4.481 42.696,4.481 C42.696,4.443 42.696,4.405 42.696,4.366 C42.929,4.366 43.162,4.366 43.395,4.366 C43.395,4.328 43.395,4.289 43.395,4.251 ZM50.974,39.858 C49.925,39.858 48.876,39.858 47.826,39.858 C47.691,40.215 47.704,40.830 47.710,41.356 C47.671,41.356 47.632,41.356 47.593,41.356 C47.632,41.471 47.671,41.586 47.710,41.701 C47.552,42.254 47.737,43.190 47.593,43.891 C47.554,43.891 47.515,43.891 47.476,43.891 C47.515,43.968 47.554,44.045 47.593,44.121 C47.589,44.284 47.518,44.079 47.476,44.237 C47.476,44.966 47.476,45.696 47.476,46.426 C47.437,46.426 47.399,46.426 47.360,46.426 C47.399,46.503 47.437,46.580 47.476,46.656 C47.472,46.819 47.402,46.614 47.360,46.772 C47.360,47.540 47.360,48.308 47.360,49.076 C47.321,49.076 47.282,49.076 47.243,49.076 C47.282,49.192 47.321,49.307 47.360,49.422 C47.235,49.989 47.391,50.995 47.243,51.611 C47.204,51.611 47.165,51.611 47.127,51.611 C47.165,51.765 47.204,51.919 47.243,52.072 C47.204,52.072 47.165,52.072 47.127,52.072 C47.127,52.572 47.127,53.071 47.127,53.570 C47.088,53.570 47.049,53.570 47.010,53.570 C46.971,53.762 46.932,53.955 46.893,54.147 C46.613,54.314 46.412,54.615 46.077,54.723 C45.611,54.723 45.144,54.723 44.678,54.723 C43.340,54.723 41.457,54.993 40.946,54.147 C40.584,53.765 40.599,52.576 40.597,51.727 C40.597,51.458 40.597,51.189 40.597,50.920 C40.558,50.920 40.519,50.920 40.480,50.920 C40.519,50.805 40.558,50.690 40.597,50.574 C40.558,50.574 40.519,50.574 40.480,50.574 C40.480,49.845 40.480,49.115 40.480,48.385 C40.441,48.385 40.402,48.385 40.363,48.385 C40.363,48.347 40.363,48.308 40.363,48.270 C40.402,48.193 40.441,48.116 40.480,48.039 C40.441,48.039 40.402,48.039 40.363,48.039 C40.363,47.310 40.363,46.580 40.363,45.850 C40.325,45.850 40.286,45.850 40.247,45.850 C40.142,45.410 40.440,44.058 40.247,43.315 C40.208,43.315 40.169,43.315 40.130,43.315 C40.169,43.200 40.208,43.084 40.247,42.969 C40.208,42.969 40.169,42.969 40.130,42.969 C40.130,42.393 40.130,41.817 40.130,41.241 C40.091,40.818 40.053,40.395 40.014,39.973 C38.964,39.973 37.915,39.973 36.865,39.973 C36.540,39.090 36.749,36.656 36.749,35.479 C36.749,32.176 36.749,28.872 36.749,25.569 C36.881,25.472 36.766,25.584 36.865,25.454 C36.749,25.454 36.632,25.454 36.516,25.454 C36.516,25.492 36.516,25.531 36.516,25.569 C36.321,25.607 36.127,25.646 35.932,25.684 C35.932,25.723 35.932,25.761 35.932,25.799 C35.816,25.799 35.699,25.799 35.583,25.799 C35.583,25.838 35.583,25.876 35.583,25.915 C35.505,25.915 35.427,25.915 35.349,25.915 C35.349,25.953 35.349,25.991 35.349,26.030 C35.233,26.030 35.116,26.030 35.000,26.030 C35.000,26.068 35.000,26.107 35.000,26.145 C34.156,26.405 33.441,25.758 33.017,25.569 C32.901,25.569 32.784,25.569 32.668,25.569 C32.668,25.531 32.668,25.492 32.668,25.454 C32.590,25.454 32.512,25.454 32.434,25.454 C32.434,25.415 32.434,25.377 32.434,25.339 C32.357,25.339 32.279,25.339 32.201,25.339 C32.201,25.300 32.201,25.262 32.201,25.223 C31.968,25.146 31.735,25.070 31.502,24.993 C31.502,24.954 31.502,24.916 31.502,24.878 C31.385,24.878 31.268,24.878 31.152,24.878 C31.152,24.839 31.152,24.801 31.152,24.762 C31.074,24.762 30.996,24.762 30.918,24.762 C30.918,24.724 30.918,24.686 30.918,24.647 C30.685,24.570 30.452,24.493 30.219,24.417 C30.219,24.378 30.219,24.340 30.219,24.301 C30.102,24.301 29.986,24.301 29.869,24.301 C29.869,24.263 29.869,24.225 29.869,24.186 C29.714,24.148 29.558,24.109 29.403,24.071 C29.403,24.033 29.403,23.994 29.403,23.956 C29.053,23.840 28.703,23.725 28.353,23.610 C28.353,23.572 28.353,23.533 28.353,23.495 C28.120,23.418 27.887,23.341 27.654,23.264 C27.654,23.226 27.654,23.188 27.654,23.149 C27.576,23.149 27.498,23.149 27.420,23.149 C27.420,23.111 27.420,23.072 27.420,23.034 C27.343,23.034 27.265,23.034 27.187,23.034 C27.187,22.995 27.187,22.957 27.187,22.919 C27.109,22.919 27.032,22.919 26.954,22.919 C26.954,22.880 26.954,22.842 26.954,22.803 C26.876,22.803 26.798,22.803 26.721,22.803 C26.721,22.765 26.721,22.727 26.721,22.688 C26.643,22.688 26.565,22.688 26.487,22.688 C26.487,22.650 26.487,22.611 26.487,22.573 C26.410,22.573 26.332,22.573 26.254,22.573 C25.982,22.342 25.710,22.112 25.438,21.882 C25.438,21.805 25.438,21.728 25.438,21.651 C25.360,21.613 25.283,21.574 25.205,21.536 C25.205,21.421 25.205,21.305 25.205,21.190 C25.166,21.190 25.127,21.190 25.088,21.190 C25.049,20.691 25.010,20.191 24.972,19.692 C25.010,19.692 25.049,19.692 25.088,19.692 C25.127,19.500 25.166,19.308 25.205,19.116 C25.244,19.116 25.283,19.116 25.321,19.116 C25.321,19.039 25.321,18.962 25.321,18.886 C25.399,18.847 25.477,18.809 25.555,18.770 C25.555,18.693 25.555,18.617 25.555,18.540 C25.866,18.309 26.177,18.079 26.487,17.848 C26.604,17.848 26.721,17.848 26.837,17.848 C26.837,17.810 26.837,17.772 26.837,17.733 C27.032,17.733 27.226,17.733 27.420,17.733 C27.420,17.695 27.420,17.656 27.420,17.618 C27.677,17.562 27.766,17.732 27.770,17.733 C28.003,17.733 28.237,17.733 28.470,17.733 C28.470,17.772 28.470,17.810 28.470,17.848 C28.586,17.848 28.703,17.848 28.820,17.848 C28.820,17.887 28.820,17.925 28.820,17.964 C29.053,18.040 29.286,18.117 29.519,18.194 C29.519,18.233 29.519,18.271 29.519,18.309 C29.597,18.309 29.675,18.309 29.752,18.309 C29.752,18.348 29.752,18.386 29.752,18.425 C29.947,18.463 30.141,18.501 30.335,18.540 C30.335,18.578 30.335,18.617 30.335,18.655 C30.413,18.655 30.491,18.655 30.569,18.655 C30.569,18.693 30.569,18.732 30.569,18.770 C30.646,18.770 30.724,18.770 30.802,18.770 C30.802,18.809 30.802,18.847 30.802,18.886 C31.035,18.962 31.268,19.039 31.502,19.116 C31.502,19.154 31.502,19.193 31.502,19.231 C31.618,19.231 31.735,19.231 31.851,19.231 C31.851,19.270 31.851,19.308 31.851,19.346 C31.929,19.346 32.007,19.346 32.085,19.346 C32.085,19.385 32.085,19.423 32.085,19.462 C32.318,19.538 32.551,19.615 32.784,19.692 C32.784,19.731 32.784,19.769 32.784,19.807 C32.901,19.807 33.017,19.807 33.134,19.807 C33.134,19.846 33.134,19.884 33.134,19.923 C33.212,19.923 33.289,19.923 33.367,19.923 C33.367,19.961 33.367,19.999 33.367,20.038 C33.445,20.038 33.523,20.038 33.600,20.038 C33.600,20.076 33.600,20.115 33.600,20.153 C33.678,20.153 33.756,20.153 33.834,20.153 C33.834,20.191 33.834,20.230 33.834,20.268 C33.911,20.268 33.989,20.268 34.067,20.268 C34.067,20.307 34.067,20.345 34.067,20.384 C34.873,20.670 35.622,20.092 36.049,19.923 C36.166,19.923 36.282,19.923 36.399,19.923 C36.399,19.884 36.399,19.846 36.399,19.807 C36.477,19.807 36.554,19.807 36.632,19.807 C36.632,19.769 36.632,19.731 36.632,19.692 C36.749,19.692 36.865,19.692 36.982,19.692 C36.982,19.654 36.982,19.615 36.982,19.577 C37.060,19.577 37.137,19.577 37.215,19.577 C37.215,19.538 37.215,19.500 37.215,19.462 C37.409,19.423 37.604,19.385 37.798,19.346 C37.798,19.308 37.798,19.270 37.798,19.231 C38.031,19.193 38.265,19.154 38.498,19.116 C38.498,19.078 38.498,19.039 38.498,19.001 C38.576,19.001 38.653,19.001 38.731,19.001 C38.731,18.962 38.731,18.924 38.731,18.886 C38.925,18.847 39.120,18.809 39.314,18.770 C39.314,18.732 39.314,18.693 39.314,18.655 C39.392,18.655 39.469,18.655 39.547,18.655 C39.547,18.617 39.547,18.578 39.547,18.540 C39.664,18.540 39.780,18.540 39.897,18.540 C39.897,18.501 39.897,18.463 39.897,18.425 C40.165,18.303 40.438,18.314 40.830,18.309 C41.008,18.618 41.287,18.761 41.530,19.001 C42.035,19.500 42.540,19.999 43.045,20.499 C43.349,20.798 43.493,21.178 43.978,21.305 C44.156,20.997 44.436,20.853 44.678,20.614 C45.144,20.153 45.611,19.692 46.077,19.231 C46.380,18.932 46.525,18.552 47.010,18.425 C47.010,18.463 47.010,18.501 47.010,18.540 C47.127,18.540 47.243,18.540 47.360,18.540 C47.399,18.617 47.437,18.693 47.476,18.770 C47.554,18.770 47.632,18.770 47.710,18.770 C47.710,18.809 47.710,18.847 47.710,18.886 C47.787,18.886 47.865,18.886 47.943,18.886 C47.982,18.962 48.021,19.039 48.059,19.116 C48.137,19.116 48.215,19.116 48.293,19.116 C48.409,19.270 48.526,19.423 48.642,19.577 C48.953,19.846 49.264,20.115 49.575,20.384 C49.575,20.460 49.575,20.537 49.575,20.614 C49.653,20.652 49.731,20.691 49.808,20.729 C49.808,20.806 49.808,20.883 49.808,20.960 C49.886,20.998 49.964,21.037 50.042,21.075 C50.119,21.305 50.197,21.536 50.275,21.766 C50.314,21.766 50.353,21.766 50.391,21.766 C50.391,21.843 50.391,21.920 50.391,21.997 C50.430,21.997 50.469,21.997 50.508,21.997 C51.165,23.479 50.974,26.003 50.974,28.104 C50.974,32.022 50.974,35.940 50.974,39.858 Z"/>
</svg>
