<svg
        xmlns="http://www.w3.org/2000/svg"
        xmlns:xlink="http://www.w3.org/1999/xlink"
        width="65px" height="51px">
    <path fill-rule="evenodd"  fill="rgb(0, 0, 0)"
          d="M57.830,32.667 C57.830,32.495 57.830,32.323 57.830,32.151 C57.817,32.151 57.804,32.151 57.791,32.151 C57.791,31.094 57.791,30.036 57.791,28.978 C57.804,28.436 57.817,27.894 57.830,27.352 C57.769,27.133 57.791,26.763 57.791,26.479 C57.791,25.924 57.791,25.369 57.791,24.813 C57.791,24.470 57.791,24.126 57.791,23.782 C57.804,23.782 57.817,23.782 57.830,23.782 C57.830,23.729 57.830,23.676 57.830,23.624 C57.843,23.624 57.857,23.624 57.870,23.624 C57.870,23.584 57.870,23.544 57.870,23.505 C57.883,23.505 57.896,23.505 57.909,23.505 C57.923,23.452 57.936,23.399 57.949,23.346 C57.962,23.346 57.975,23.346 57.989,23.346 C57.989,23.319 57.989,23.293 57.989,23.267 C58.068,23.200 58.147,23.134 58.226,23.068 C58.253,23.029 58.279,22.989 58.306,22.949 C58.359,22.936 58.411,22.923 58.464,22.910 C58.477,22.883 58.491,22.857 58.504,22.830 C58.530,22.830 58.557,22.830 58.583,22.830 C58.583,22.817 58.583,22.804 58.583,22.791 C58.610,22.791 58.636,22.791 58.662,22.791 C58.662,22.777 58.662,22.764 58.662,22.751 C58.689,22.751 58.715,22.751 58.742,22.751 C58.742,22.738 58.742,22.724 58.742,22.711 C58.768,22.711 58.794,22.711 58.821,22.711 C58.821,22.698 58.821,22.685 58.821,22.672 C58.847,22.672 58.874,22.672 58.900,22.672 C58.913,22.645 58.927,22.619 58.940,22.592 C59.019,22.566 59.098,22.539 59.177,22.513 C59.191,22.487 59.204,22.460 59.217,22.434 C59.244,22.434 59.270,22.434 59.296,22.434 C59.296,22.420 59.296,22.407 59.296,22.394 C59.323,22.394 59.349,22.394 59.376,22.394 C59.376,22.381 59.376,22.368 59.376,22.354 C59.426,22.327 59.548,22.319 59.574,22.275 C59.574,22.235 59.574,22.196 59.574,22.156 C58.636,18.031 57.698,13.905 56.760,9.781 C56.707,9.741 56.655,9.702 56.602,9.662 C56.602,9.649 56.602,9.635 56.602,9.622 C56.549,9.609 56.496,9.596 56.443,9.583 C56.443,9.569 56.443,9.556 56.443,9.543 C56.166,9.530 55.889,9.516 55.611,9.503 C55.611,9.490 55.611,9.477 55.611,9.464 C55.505,9.464 55.400,9.464 55.294,9.464 C55.294,9.450 55.294,9.437 55.294,9.424 C55.202,9.424 55.109,9.424 55.017,9.424 C55.017,9.411 55.017,9.397 55.017,9.384 C54.951,9.384 54.885,9.384 54.819,9.384 C54.819,9.371 54.819,9.358 54.819,9.345 C54.753,9.345 54.687,9.345 54.621,9.345 C54.621,9.331 54.621,9.318 54.621,9.305 C54.515,9.292 54.409,9.278 54.303,9.265 C54.303,9.252 54.303,9.239 54.303,9.226 C54.211,9.212 54.119,9.199 54.026,9.186 C54.026,9.173 54.026,9.159 54.026,9.146 C53.986,9.146 53.947,9.146 53.907,9.146 C53.907,9.133 53.907,9.120 53.907,9.107 C53.868,9.107 53.828,9.107 53.788,9.107 C53.788,9.093 53.788,9.080 53.788,9.067 C53.749,9.067 53.709,9.067 53.669,9.067 C53.669,9.054 53.669,9.040 53.669,9.027 C53.603,9.014 53.537,9.001 53.471,8.988 C53.471,8.974 53.471,8.961 53.471,8.948 C53.445,8.948 53.419,8.948 53.392,8.948 C53.392,8.935 53.392,8.921 53.392,8.908 C53.352,8.908 53.313,8.908 53.273,8.908 C53.273,8.895 53.273,8.882 53.273,8.869 C53.194,8.842 53.115,8.816 53.035,8.789 C53.035,8.776 53.035,8.763 53.035,8.750 C53.009,8.750 52.983,8.750 52.956,8.750 C52.956,8.736 52.956,8.723 52.956,8.710 C52.930,8.710 52.903,8.710 52.877,8.710 C52.877,8.697 52.877,8.683 52.877,8.670 C52.851,8.670 52.824,8.670 52.798,8.670 C52.798,8.657 52.798,8.644 52.798,8.631 C52.771,8.631 52.745,8.631 52.718,8.631 C52.718,8.617 52.718,8.604 52.718,8.591 C52.692,8.591 52.666,8.591 52.639,8.591 C52.626,8.565 52.613,8.538 52.600,8.512 C52.547,8.498 52.494,8.485 52.441,8.472 C52.428,8.446 52.415,8.419 52.401,8.393 C52.349,8.379 52.296,8.366 52.243,8.353 C52.230,8.327 52.217,8.300 52.203,8.274 C52.177,8.274 52.150,8.274 52.124,8.274 C52.098,8.234 52.071,8.194 52.045,8.155 C52.018,8.155 51.992,8.155 51.966,8.155 C51.939,8.115 51.913,8.075 51.886,8.036 C51.860,8.036 51.833,8.036 51.807,8.036 C51.781,7.996 51.754,7.956 51.728,7.917 C51.701,7.917 51.675,7.917 51.649,7.917 C51.583,7.837 51.516,7.758 51.450,7.679 C51.424,7.679 51.398,7.679 51.371,7.679 C51.239,7.533 51.107,7.388 50.975,7.242 C50.896,7.176 50.816,7.110 50.737,7.044 C50.737,7.018 50.737,6.991 50.737,6.965 C50.658,6.899 50.579,6.833 50.499,6.766 C50.486,6.727 50.473,6.687 50.460,6.647 C50.420,6.621 50.381,6.595 50.341,6.568 C50.341,6.542 50.341,6.515 50.341,6.489 C50.301,6.462 50.262,6.436 50.222,6.409 C50.222,6.383 50.222,6.357 50.222,6.330 C50.196,6.317 50.169,6.304 50.143,6.290 C50.143,6.264 50.143,6.238 50.143,6.211 C50.103,6.185 50.064,6.158 50.024,6.132 C50.024,6.105 50.024,6.079 50.024,6.052 C49.997,6.039 49.971,6.026 49.945,6.013 C49.945,5.986 49.945,5.960 49.945,5.933 C49.839,5.841 49.733,5.748 49.628,5.656 C49.588,5.656 49.548,5.656 49.509,5.656 C49.509,5.643 49.509,5.629 49.509,5.616 C49.302,5.550 48.962,5.695 48.835,5.735 C48.769,5.735 48.703,5.735 48.637,5.735 C48.637,5.748 48.637,5.762 48.637,5.775 C48.584,5.775 48.531,5.775 48.479,5.775 C48.479,5.788 48.479,5.801 48.479,5.814 C48.412,5.814 48.346,5.814 48.280,5.814 C48.280,5.828 48.280,5.841 48.280,5.854 C48.228,5.854 48.175,5.854 48.122,5.854 C48.122,5.867 48.122,5.881 48.122,5.894 C48.069,5.894 48.016,5.894 47.963,5.894 C47.963,5.907 47.963,5.920 47.963,5.933 C47.844,5.947 47.726,5.960 47.607,5.973 C47.607,5.986 47.607,6.000 47.607,6.013 C47.435,6.039 47.263,6.066 47.092,6.092 C47.092,6.105 47.092,6.119 47.092,6.132 C47.026,6.132 46.960,6.132 46.893,6.132 C46.893,6.145 46.893,6.158 46.893,6.171 C46.841,6.171 46.788,6.171 46.735,6.171 C46.735,6.185 46.735,6.198 46.735,6.211 C46.669,6.211 46.603,6.211 46.537,6.211 C46.537,6.224 46.537,6.238 46.537,6.251 C46.484,6.251 46.431,6.251 46.378,6.251 C46.378,6.264 46.378,6.277 46.378,6.290 C46.326,6.290 46.273,6.290 46.220,6.290 C46.220,6.304 46.220,6.317 46.220,6.330 C46.101,6.343 45.982,6.357 45.863,6.370 C45.863,6.383 45.863,6.396 45.863,6.409 C45.797,6.409 45.731,6.409 45.665,6.409 C45.665,6.423 45.665,6.436 45.665,6.449 C45.612,6.449 45.559,6.449 45.507,6.449 C45.507,6.462 45.507,6.476 45.507,6.489 C45.454,6.489 45.401,6.489 45.348,6.489 C45.348,6.502 45.348,6.515 45.348,6.528 C45.229,6.542 45.110,6.555 44.991,6.568 C44.991,6.581 44.991,6.595 44.991,6.608 C44.925,6.608 44.859,6.608 44.793,6.608 C44.035,6.855 43.134,6.958 42.376,7.203 C42.138,7.242 41.901,7.282 41.663,7.322 C41.663,7.335 41.663,7.348 41.663,7.361 C41.597,7.361 41.531,7.361 41.465,7.361 C41.465,7.375 41.465,7.388 41.465,7.401 C41.412,7.401 41.359,7.401 41.306,7.401 C41.306,7.414 41.306,7.427 41.306,7.441 C41.253,7.441 41.201,7.441 41.148,7.441 C41.148,7.454 41.148,7.467 41.148,7.480 C41.082,7.480 41.016,7.480 40.950,7.480 C40.950,7.494 40.950,7.507 40.950,7.520 C40.897,7.520 40.844,7.520 40.791,7.520 C40.791,7.533 40.791,7.546 40.791,7.560 C40.672,7.573 40.553,7.586 40.434,7.599 C40.434,7.613 40.434,7.626 40.434,7.639 C40.078,7.705 39.721,7.771 39.365,7.837 C38.607,8.084 37.705,8.187 36.947,8.432 C36.644,8.485 36.340,8.538 36.036,8.591 C35.329,8.821 34.487,8.917 33.777,9.146 C33.711,9.146 33.645,9.146 33.579,9.146 C33.579,9.159 33.579,9.173 33.579,9.186 C33.526,9.186 33.474,9.186 33.421,9.186 C33.421,9.199 33.421,9.212 33.421,9.226 C33.355,9.226 33.289,9.226 33.223,9.226 C32.515,9.456 31.674,9.552 30.964,9.781 C30.898,9.781 30.832,9.781 30.766,9.781 C30.766,9.794 30.766,9.807 30.766,9.821 C30.713,9.821 30.660,9.821 30.607,9.821 C30.607,9.834 30.607,9.847 30.607,9.860 C30.541,9.860 30.475,9.860 30.409,9.860 C30.409,9.873 30.409,9.887 30.409,9.900 C30.356,9.900 30.303,9.900 30.251,9.900 C30.251,9.913 30.251,9.926 30.251,9.940 C30.198,9.940 30.145,9.940 30.092,9.940 C30.092,9.953 30.092,9.966 30.092,9.979 C29.973,9.992 29.854,10.006 29.735,10.019 C29.735,10.032 29.735,10.045 29.735,10.059 C29.617,10.072 29.498,10.085 29.379,10.098 C29.379,10.111 29.379,10.125 29.379,10.138 C29.313,10.138 29.247,10.138 29.181,10.138 C29.181,10.151 29.181,10.164 29.181,10.177 C29.128,10.177 29.075,10.177 29.022,10.177 C29.022,10.191 29.022,10.204 29.022,10.217 C28.969,10.217 28.917,10.217 28.864,10.217 C28.864,10.230 28.864,10.244 28.864,10.257 C28.745,10.270 28.626,10.283 28.507,10.296 C28.507,10.310 28.507,10.323 28.507,10.336 C28.441,10.336 28.375,10.336 28.309,10.336 C27.371,10.641 26.275,10.747 25.337,11.050 C25.271,11.050 25.205,11.050 25.139,11.050 C25.139,11.063 25.139,11.077 25.139,11.090 C25.086,11.090 25.033,11.090 24.980,11.090 C24.980,11.103 24.980,11.116 24.980,11.129 C24.914,11.129 24.848,11.129 24.782,11.129 C24.782,11.143 24.782,11.156 24.782,11.169 C24.663,11.182 24.544,11.196 24.426,11.209 C24.426,11.222 24.426,11.235 24.426,11.248 C24.373,11.248 24.320,11.248 24.267,11.248 C24.267,11.262 24.267,11.275 24.267,11.288 C24.201,11.288 24.135,11.288 24.069,11.288 C24.069,11.301 24.069,11.315 24.069,11.328 C24.016,11.328 23.963,11.328 23.910,11.328 C23.910,11.341 23.910,11.354 23.910,11.367 C23.858,11.367 23.805,11.367 23.752,11.367 C23.752,11.381 23.752,11.394 23.752,11.407 C23.686,11.407 23.620,11.407 23.554,11.407 C23.554,11.420 23.554,11.434 23.554,11.447 C23.501,11.447 23.448,11.447 23.395,11.447 C23.395,11.460 23.395,11.473 23.395,11.486 C23.329,11.486 23.263,11.486 23.197,11.486 C23.197,11.500 23.197,11.513 23.197,11.526 C23.078,11.539 22.959,11.553 22.841,11.566 C22.841,11.579 22.841,11.592 22.841,11.605 C22.788,11.605 22.735,11.605 22.682,11.605 C22.682,11.619 22.682,11.632 22.682,11.645 C22.563,11.658 22.444,11.672 22.325,11.685 C22.325,11.698 22.325,11.711 22.325,11.724 C22.154,11.751 21.982,11.777 21.810,11.804 C21.810,11.817 21.810,11.830 21.810,11.843 C21.507,11.896 21.203,11.949 20.899,12.002 C20.899,12.015 20.899,12.028 20.899,12.042 C20.780,12.055 20.661,12.068 20.542,12.081 C20.542,12.095 20.542,12.108 20.542,12.121 C20.489,12.121 20.437,12.121 20.384,12.121 C20.384,12.134 20.384,12.147 20.384,12.161 C20.318,12.161 20.252,12.161 20.186,12.161 C19.251,12.464 18.150,12.574 17.214,12.875 C16.751,12.967 16.289,13.060 15.827,13.152 C15.827,13.166 15.827,13.179 15.827,13.192 C15.800,13.192 15.774,13.192 15.748,13.192 C15.655,13.258 15.563,13.324 15.470,13.390 C15.470,13.417 15.470,13.443 15.470,13.470 C15.444,13.483 15.417,13.496 15.391,13.509 C15.391,13.549 15.391,13.589 15.391,13.628 C15.378,13.628 15.365,13.628 15.351,13.628 C15.351,13.694 15.351,13.760 15.351,13.827 C15.210,14.294 15.298,14.950 14.915,15.175 C14.737,15.351 14.515,15.218 14.242,15.294 C13.819,15.412 12.936,15.334 12.419,15.334 C10.095,15.334 7.769,15.334 5.445,15.334 C5.355,15.095 5.326,14.581 5.405,14.303 C5.405,14.197 5.405,14.091 5.405,13.985 C5.418,13.985 5.432,13.985 5.445,13.985 C5.445,13.919 5.445,13.853 5.445,13.787 C5.458,13.787 5.471,13.787 5.484,13.787 C5.484,13.721 5.484,13.655 5.484,13.589 C5.498,13.589 5.511,13.589 5.524,13.589 C5.524,13.549 5.524,13.509 5.524,13.470 C5.537,13.470 5.551,13.470 5.564,13.470 C5.564,13.430 5.564,13.390 5.564,13.351 C5.577,13.351 5.590,13.351 5.603,13.351 C5.603,13.311 5.603,13.271 5.603,13.232 C5.617,13.232 5.630,13.232 5.643,13.232 C5.643,13.192 5.643,13.152 5.643,13.113 C5.656,13.113 5.669,13.113 5.683,13.113 C5.683,13.073 5.683,13.033 5.683,12.994 C5.696,12.994 5.709,12.994 5.722,12.994 C5.749,12.914 5.775,12.835 5.801,12.756 C5.815,12.756 5.828,12.756 5.841,12.756 C5.841,12.729 5.841,12.703 5.841,12.676 C5.854,12.676 5.868,12.676 5.881,12.676 C5.894,12.623 5.907,12.571 5.920,12.518 C5.947,12.504 5.973,12.491 6.000,12.478 C6.013,12.425 6.026,12.372 6.039,12.319 C6.066,12.306 6.092,12.293 6.118,12.280 C6.118,12.253 6.118,12.227 6.118,12.200 C6.158,12.174 6.198,12.147 6.237,12.121 C6.237,12.095 6.237,12.068 6.237,12.042 C6.290,12.002 6.343,11.962 6.396,11.923 C6.396,11.896 6.396,11.870 6.396,11.843 C6.475,11.777 6.554,11.711 6.634,11.645 C6.713,11.553 6.792,11.460 6.871,11.367 C6.898,11.367 6.924,11.367 6.951,11.367 C6.990,11.315 7.030,11.262 7.069,11.209 C7.096,11.209 7.122,11.209 7.149,11.209 C7.175,11.169 7.202,11.129 7.228,11.090 C7.254,11.090 7.281,11.090 7.307,11.090 C7.320,11.063 7.334,11.037 7.347,11.010 C7.373,11.010 7.400,11.010 7.426,11.010 C7.439,10.984 7.453,10.958 7.466,10.931 C7.519,10.918 7.571,10.905 7.624,10.891 C7.637,10.865 7.651,10.839 7.664,10.812 C7.717,10.799 7.770,10.786 7.822,10.772 C7.822,10.759 7.822,10.746 7.822,10.733 C7.875,10.720 7.928,10.706 7.981,10.693 C7.981,10.680 7.981,10.667 7.981,10.653 C8.021,10.653 8.060,10.653 8.100,10.653 C8.100,10.640 8.100,10.627 8.100,10.614 C8.153,10.601 8.205,10.587 8.258,10.574 C8.258,10.561 8.258,10.548 8.258,10.534 C8.338,10.521 8.417,10.508 8.496,10.495 C8.496,10.482 8.496,10.468 8.496,10.455 C8.536,10.455 8.575,10.455 8.615,10.455 C8.615,10.442 8.615,10.429 8.615,10.415 C8.655,10.415 8.694,10.415 8.734,10.415 C8.734,10.402 8.734,10.389 8.734,10.376 C8.826,10.363 8.919,10.349 9.011,10.336 C9.011,10.323 9.011,10.310 9.011,10.296 C9.130,10.283 9.249,10.270 9.368,10.257 C9.368,10.244 9.368,10.230 9.368,10.217 C9.539,10.191 9.711,10.164 9.883,10.138 C9.883,10.125 9.883,10.111 9.883,10.098 C9.949,10.098 10.015,10.098 10.081,10.098 C10.081,10.085 10.081,10.072 10.081,10.059 C10.200,10.045 10.319,10.032 10.438,10.019 C10.438,10.006 10.438,9.992 10.438,9.979 C10.491,9.979 10.543,9.979 10.596,9.979 C10.596,9.966 10.596,9.953 10.596,9.940 C10.662,9.940 10.728,9.940 10.794,9.940 C11.719,9.640 12.801,9.524 13.727,9.226 C13.793,9.226 13.859,9.226 13.925,9.226 C13.925,9.212 13.925,9.199 13.925,9.186 C14.044,9.173 14.163,9.159 14.281,9.146 C14.281,9.133 14.281,9.120 14.281,9.107 C14.334,9.107 14.387,9.107 14.440,9.107 C14.440,9.093 14.440,9.080 14.440,9.067 C14.506,9.067 14.572,9.067 14.638,9.067 C14.638,9.054 14.638,9.040 14.638,9.027 C14.691,9.027 14.744,9.027 14.797,9.027 C14.797,9.014 14.797,9.001 14.797,8.988 C14.849,8.988 14.902,8.988 14.955,8.988 C14.955,8.974 14.955,8.961 14.955,8.948 C15.021,8.948 15.087,8.948 15.153,8.948 C15.153,8.935 15.153,8.921 15.153,8.908 C15.206,8.908 15.259,8.908 15.312,8.908 C15.312,8.895 15.312,8.882 15.312,8.869 C15.378,8.869 15.444,8.869 15.510,8.869 C15.510,8.855 15.510,8.842 15.510,8.829 C15.563,8.829 15.615,8.829 15.668,8.829 C15.668,8.816 15.668,8.802 15.668,8.789 C15.721,8.789 15.774,8.789 15.827,8.789 C15.827,8.776 15.827,8.763 15.827,8.750 C15.946,8.736 16.065,8.723 16.183,8.710 C16.183,8.697 16.183,8.683 16.183,8.670 C16.249,8.670 16.316,8.670 16.382,8.670 C16.382,8.657 16.382,8.644 16.382,8.631 C16.434,8.631 16.487,8.631 16.540,8.631 C16.540,8.617 16.540,8.604 16.540,8.591 C16.606,8.591 16.672,8.591 16.738,8.591 C16.738,8.578 16.738,8.564 16.738,8.551 C16.791,8.551 16.844,8.551 16.897,8.551 C16.897,8.538 16.897,8.525 16.897,8.512 C16.950,8.512 17.002,8.512 17.055,8.512 C17.055,8.498 17.055,8.485 17.055,8.472 C17.174,8.459 17.293,8.446 17.412,8.432 C17.412,8.419 17.412,8.406 17.412,8.393 C17.478,8.393 17.544,8.393 17.610,8.393 C18.368,8.146 19.269,8.042 20.027,7.798 C20.265,7.758 20.503,7.718 20.740,7.679 C20.740,7.665 20.740,7.652 20.740,7.639 C20.806,7.639 20.873,7.639 20.939,7.639 C20.939,7.626 20.939,7.613 20.939,7.599 C20.991,7.599 21.044,7.599 21.097,7.599 C21.097,7.586 21.097,7.573 21.097,7.560 C21.150,7.560 21.203,7.560 21.256,7.560 C21.256,7.546 21.256,7.533 21.256,7.520 C21.374,7.507 21.493,7.494 21.612,7.480 C21.612,7.467 21.612,7.454 21.612,7.441 C21.731,7.427 21.850,7.414 21.969,7.401 C21.969,7.388 21.969,7.375 21.969,7.361 C22.035,7.361 22.101,7.361 22.167,7.361 C22.167,7.348 22.167,7.335 22.167,7.322 C22.220,7.322 22.273,7.322 22.325,7.322 C22.325,7.308 22.325,7.295 22.325,7.282 C22.378,7.282 22.431,7.282 22.484,7.282 C22.484,7.269 22.484,7.256 22.484,7.242 C22.603,7.229 22.722,7.216 22.841,7.203 C22.841,7.189 22.841,7.176 22.841,7.163 C22.959,7.150 23.078,7.137 23.197,7.123 C23.197,7.110 23.197,7.097 23.197,7.084 C23.263,7.084 23.329,7.084 23.395,7.084 C24.383,6.762 25.536,6.649 26.526,6.330 C26.592,6.330 26.658,6.330 26.724,6.330 C26.724,6.317 26.724,6.304 26.724,6.290 C26.777,6.290 26.830,6.290 26.882,6.290 C26.882,6.277 26.882,6.264 26.882,6.251 C26.948,6.251 27.015,6.251 27.081,6.251 C27.081,6.238 27.081,6.224 27.081,6.211 C27.133,6.211 27.186,6.211 27.239,6.211 C27.239,6.198 27.239,6.185 27.239,6.171 C27.292,6.171 27.345,6.171 27.398,6.171 C27.398,6.158 27.398,6.145 27.398,6.132 C27.516,6.119 27.635,6.105 27.754,6.092 C27.754,6.079 27.754,6.066 27.754,6.052 C27.820,6.052 27.886,6.052 27.952,6.052 C27.952,6.039 27.952,6.026 27.952,6.013 C28.071,6.000 28.190,5.986 28.309,5.973 C28.309,5.960 28.309,5.947 28.309,5.933 C28.362,5.933 28.415,5.933 28.467,5.933 C28.467,5.920 28.467,5.907 28.467,5.894 C28.533,5.894 28.600,5.894 28.666,5.894 C29.652,5.573 30.808,5.459 31.796,5.140 C32.100,5.087 32.404,5.034 32.707,4.982 C33.530,4.714 34.500,4.612 35.323,4.347 C35.389,4.347 35.455,4.347 35.521,4.347 C35.521,4.334 35.521,4.320 35.521,4.307 C35.574,4.307 35.627,4.307 35.679,4.307 C35.679,4.294 35.679,4.281 35.679,4.268 C35.745,4.268 35.811,4.268 35.877,4.268 C36.470,4.075 37.186,3.983 37.780,3.792 C37.846,3.792 37.912,3.792 37.978,3.792 C37.978,3.778 37.978,3.765 37.978,3.752 C38.030,3.752 38.083,3.752 38.136,3.752 C38.136,3.739 38.136,3.726 38.136,3.712 C38.202,3.712 38.268,3.712 38.334,3.712 C38.926,3.520 39.643,3.428 40.236,3.236 C40.302,3.236 40.368,3.236 40.434,3.236 C40.434,3.223 40.434,3.210 40.434,3.197 C40.487,3.197 40.540,3.197 40.593,3.197 C40.593,3.183 40.593,3.170 40.593,3.157 C40.659,3.157 40.725,3.157 40.791,3.157 C40.791,3.144 40.791,3.131 40.791,3.117 C40.844,3.117 40.897,3.117 40.950,3.117 C40.950,3.104 40.950,3.091 40.950,3.078 C41.002,3.078 41.055,3.078 41.108,3.078 C41.108,3.064 41.108,3.051 41.108,3.038 C41.227,3.025 41.346,3.012 41.465,2.998 C41.465,2.985 41.465,2.972 41.465,2.959 C41.584,2.945 41.702,2.932 41.821,2.919 C41.821,2.906 41.821,2.893 41.821,2.879 C41.887,2.879 41.953,2.879 42.019,2.879 C42.019,2.866 42.019,2.853 42.019,2.840 C42.072,2.840 42.125,2.840 42.178,2.840 C42.178,2.826 42.178,2.813 42.178,2.800 C42.231,2.800 42.284,2.800 42.336,2.800 C42.336,2.787 42.336,2.774 42.336,2.760 C42.455,2.747 42.574,2.734 42.693,2.721 C42.693,2.707 42.693,2.694 42.693,2.681 C42.812,2.668 42.931,2.655 43.050,2.641 C43.050,2.628 43.050,2.615 43.050,2.602 C43.116,2.602 43.182,2.602 43.248,2.602 C44.120,2.318 45.148,2.209 46.022,1.927 C46.088,1.927 46.154,1.927 46.220,1.927 C46.220,1.914 46.220,1.901 46.220,1.888 C46.273,1.888 46.326,1.888 46.378,1.888 C46.378,1.875 46.378,1.861 46.378,1.848 C46.444,1.848 46.510,1.848 46.576,1.848 C46.576,1.835 46.576,1.822 46.576,1.808 C46.629,1.808 46.682,1.808 46.735,1.808 C46.735,1.795 46.735,1.782 46.735,1.769 C46.801,1.769 46.867,1.769 46.933,1.769 C46.933,1.756 46.933,1.742 46.933,1.729 C46.986,1.729 47.039,1.729 47.092,1.729 C47.092,1.716 47.092,1.703 47.092,1.689 C47.144,1.689 47.197,1.689 47.250,1.689 C47.250,1.676 47.250,1.663 47.250,1.650 C47.369,1.637 47.488,1.623 47.607,1.610 C47.607,1.597 47.607,1.584 47.607,1.570 C47.673,1.570 47.739,1.570 47.805,1.570 C47.805,1.557 47.805,1.544 47.805,1.531 C47.858,1.531 47.911,1.531 47.963,1.531 C47.963,1.518 47.963,1.504 47.963,1.491 C48.029,1.491 48.095,1.491 48.161,1.491 C48.637,1.337 49.231,1.248 49.707,1.094 C49.773,1.094 49.839,1.094 49.905,1.094 C49.905,1.081 49.905,1.068 49.905,1.055 C49.958,1.055 50.011,1.055 50.064,1.055 C50.064,1.042 50.064,1.028 50.064,1.015 C50.130,1.015 50.196,1.015 50.262,1.015 C50.971,0.786 51.810,0.687 52.520,0.460 C52.586,0.460 52.652,0.460 52.718,0.460 C52.718,0.447 52.718,0.433 52.718,0.420 C52.771,0.420 52.824,0.420 52.877,0.420 C52.877,0.407 52.877,0.394 52.877,0.381 C52.943,0.381 53.009,0.381 53.075,0.381 C53.774,0.157 55.227,-0.168 56.126,0.103 C56.258,0.116 56.390,0.129 56.523,0.143 C57.468,0.457 58.215,0.877 58.742,1.610 C58.794,1.650 58.847,1.689 58.900,1.729 C58.900,1.756 58.900,1.782 58.900,1.808 C58.927,1.822 58.953,1.835 58.979,1.848 C58.993,1.888 59.006,1.927 59.019,1.967 C59.032,1.967 59.045,1.967 59.059,1.967 C59.059,1.994 59.059,2.020 59.059,2.046 C59.085,2.060 59.111,2.073 59.138,2.086 C59.138,2.113 59.138,2.139 59.138,2.165 C59.164,2.179 59.191,2.192 59.217,2.205 C59.244,2.284 59.270,2.364 59.296,2.443 C59.310,2.443 59.323,2.443 59.336,2.443 C59.362,2.522 59.389,2.602 59.415,2.681 C59.428,2.681 59.442,2.681 59.455,2.681 C59.468,2.747 59.481,2.813 59.494,2.879 C59.508,2.879 59.521,2.879 59.534,2.879 C59.534,2.906 59.534,2.932 59.534,2.959 C59.547,2.959 59.561,2.959 59.574,2.959 C59.574,2.998 59.574,3.038 59.574,3.078 C59.587,3.078 59.600,3.078 59.613,3.078 C59.613,3.117 59.613,3.157 59.613,3.197 C59.627,3.197 59.640,3.197 59.653,3.197 C59.653,3.236 59.653,3.276 59.653,3.316 C59.666,3.316 59.679,3.316 59.693,3.316 C59.693,3.355 59.693,3.395 59.693,3.435 C59.706,3.435 59.719,3.435 59.732,3.435 C59.745,3.527 59.759,3.620 59.772,3.712 C59.785,3.712 59.798,3.712 59.811,3.712 C59.825,3.831 59.838,3.950 59.851,4.069 C59.864,4.069 59.878,4.069 59.891,4.069 C59.891,4.122 59.891,4.175 59.891,4.228 C59.904,4.228 59.917,4.228 59.930,4.228 C59.930,4.294 59.930,4.360 59.930,4.426 C59.944,4.426 59.957,4.426 59.970,4.426 C59.970,4.479 59.970,4.532 59.970,4.585 C59.983,4.585 59.996,4.585 60.010,4.585 C60.010,4.638 60.010,4.691 60.010,4.744 C60.023,4.744 60.036,4.744 60.049,4.744 C60.076,4.915 60.102,5.087 60.128,5.259 C60.142,5.259 60.155,5.259 60.168,5.259 C60.168,5.325 60.168,5.391 60.168,5.457 C60.181,5.457 60.195,5.457 60.208,5.457 C60.208,5.510 60.208,5.563 60.208,5.616 C60.221,5.616 60.234,5.616 60.247,5.616 C60.247,5.682 60.247,5.748 60.247,5.814 C60.261,5.814 60.274,5.814 60.287,5.814 C60.287,5.867 60.287,5.920 60.287,5.973 C60.300,5.973 60.313,5.973 60.327,5.973 C60.327,6.026 60.327,6.079 60.327,6.132 C60.340,6.132 60.353,6.132 60.366,6.132 C60.379,6.251 60.393,6.370 60.406,6.489 C60.419,6.489 60.432,6.489 60.446,6.489 C60.446,6.555 60.446,6.621 60.446,6.687 C60.459,6.687 60.472,6.687 60.485,6.687 C60.485,6.740 60.485,6.793 60.485,6.846 C60.498,6.846 60.512,6.846 60.525,6.846 C60.525,6.899 60.525,6.952 60.525,7.004 C60.538,7.004 60.551,7.004 60.564,7.004 C60.578,7.123 60.591,7.242 60.604,7.361 C60.617,7.361 60.630,7.361 60.644,7.361 C60.644,7.427 60.644,7.494 60.644,7.560 C60.943,8.483 61.059,9.569 61.357,10.495 C61.357,10.561 61.357,10.627 61.357,10.693 C61.370,10.693 61.383,10.693 61.397,10.693 C61.397,10.746 61.397,10.799 61.397,10.852 C61.410,10.852 61.423,10.852 61.436,10.852 C61.436,10.918 61.436,10.984 61.436,11.050 C61.449,11.050 61.463,11.050 61.476,11.050 C61.476,11.103 61.476,11.156 61.476,11.209 C61.489,11.209 61.502,11.209 61.515,11.209 C61.515,11.262 61.515,11.315 61.515,11.367 C61.529,11.367 61.542,11.367 61.555,11.367 C61.568,11.486 61.581,11.605 61.595,11.724 C61.608,11.724 61.621,11.724 61.634,11.724 C61.634,11.790 61.634,11.857 61.634,11.923 C61.790,12.401 61.876,12.989 62.031,13.470 C62.031,13.536 62.031,13.602 62.031,13.668 C62.044,13.668 62.057,13.668 62.070,13.668 C62.070,13.721 62.070,13.774 62.070,13.827 C62.083,13.827 62.097,13.827 62.110,13.827 C62.110,13.893 62.110,13.959 62.110,14.025 C62.264,14.501 62.353,15.095 62.506,15.572 C62.506,15.638 62.506,15.704 62.506,15.770 C62.519,15.770 62.532,15.770 62.546,15.770 C62.546,15.823 62.546,15.876 62.546,15.929 C62.559,15.929 62.572,15.929 62.585,15.929 C62.585,15.995 62.585,16.061 62.585,16.127 C62.599,16.127 62.612,16.127 62.625,16.127 C62.625,16.180 62.625,16.233 62.625,16.286 C62.638,16.286 62.651,16.286 62.665,16.286 C62.665,16.339 62.665,16.392 62.665,16.444 C62.678,16.444 62.691,16.444 62.704,16.444 C62.717,16.563 62.731,16.682 62.744,16.801 C62.757,16.801 62.770,16.801 62.783,16.801 C62.783,16.867 62.783,16.934 62.783,17.000 C62.797,17.000 62.810,17.000 62.823,17.000 C62.823,17.053 62.823,17.105 62.823,17.158 C62.836,17.158 62.849,17.158 62.863,17.158 C62.863,17.224 62.863,17.291 62.863,17.357 C62.876,17.357 62.889,17.357 62.902,17.357 C62.902,17.410 62.902,17.462 62.902,17.515 C62.916,17.515 62.929,17.515 62.942,17.515 C62.942,17.568 62.942,17.621 62.942,17.674 C62.955,17.674 62.968,17.674 62.982,17.674 C62.995,17.793 63.008,17.912 63.021,18.031 C63.034,18.031 63.048,18.031 63.061,18.031 C63.061,18.097 63.061,18.163 63.061,18.229 C63.365,19.169 63.472,20.263 63.774,21.204 C63.774,21.270 63.774,21.336 63.774,21.402 C63.787,21.402 63.800,21.402 63.814,21.402 C63.814,21.455 63.814,21.508 63.814,21.561 C63.827,21.561 63.840,21.561 63.853,21.561 C63.853,21.627 63.853,21.693 63.853,21.759 C64.028,22.299 64.115,22.961 64.289,23.505 C64.302,23.624 64.316,23.743 64.329,23.862 C64.342,23.862 64.355,23.862 64.368,23.862 C64.368,23.914 64.368,23.967 64.368,24.020 C64.382,24.020 64.395,24.020 64.408,24.020 C64.408,24.086 64.408,24.152 64.408,24.218 C64.421,24.218 64.435,24.218 64.448,24.218 C64.448,24.271 64.448,24.324 64.448,24.377 C64.461,24.377 64.474,24.377 64.487,24.377 C64.501,24.496 64.514,24.615 64.527,24.734 C64.540,24.734 64.553,24.734 64.567,24.734 C64.580,24.853 64.593,24.972 64.606,25.091 C64.619,25.091 64.633,25.091 64.646,25.091 C64.646,25.157 64.646,25.223 64.646,25.289 C64.951,26.245 65.180,27.679 64.804,28.740 C64.791,28.833 64.778,28.925 64.765,29.018 C64.213,30.310 63.354,31.119 62.070,31.675 C61.991,31.689 61.912,31.702 61.832,31.715 C61.832,31.728 61.832,31.741 61.832,31.755 C61.793,31.755 61.753,31.755 61.714,31.755 C61.714,31.768 61.714,31.781 61.714,31.794 C61.674,31.794 61.634,31.794 61.595,31.794 C61.595,31.808 61.595,31.821 61.595,31.834 C61.502,31.847 61.410,31.860 61.317,31.874 C61.317,31.887 61.317,31.900 61.317,31.913 C61.212,31.927 61.106,31.940 61.000,31.953 C61.000,31.966 61.000,31.979 61.000,31.993 C60.776,32.032 60.551,32.072 60.327,32.112 C60.327,32.125 60.327,32.138 60.327,32.151 C60.261,32.151 60.195,32.151 60.128,32.151 C60.128,32.164 60.128,32.178 60.128,32.191 C60.076,32.191 60.023,32.191 59.970,32.191 C59.970,32.204 59.970,32.217 59.970,32.231 C59.917,32.231 59.864,32.231 59.811,32.231 C59.811,32.244 59.811,32.257 59.811,32.270 C59.693,32.283 59.574,32.297 59.455,32.310 C59.455,32.323 59.455,32.336 59.455,32.350 C59.336,32.363 59.217,32.376 59.098,32.389 C59.098,32.402 59.098,32.416 59.098,32.429 C59.032,32.429 58.966,32.429 58.900,32.429 C58.900,32.442 58.900,32.455 58.900,32.469 C58.544,32.535 58.187,32.601 57.830,32.667 ZM29.973,15.294 C29.973,15.268 29.973,15.241 29.973,15.215 C30.105,15.096 30.237,14.977 30.369,14.858 C30.383,14.831 30.396,14.805 30.409,14.779 C30.436,14.779 30.462,14.779 30.488,14.779 C30.541,14.712 30.594,14.646 30.647,14.580 C30.686,14.567 30.726,14.554 30.766,14.541 C30.779,14.514 30.792,14.488 30.805,14.461 C30.832,14.461 30.858,14.461 30.885,14.461 C30.898,14.435 30.911,14.408 30.924,14.382 C30.964,14.369 31.004,14.355 31.043,14.342 C31.043,14.329 31.043,14.316 31.043,14.303 C31.070,14.303 31.096,14.303 31.122,14.303 C31.136,14.276 31.149,14.250 31.162,14.223 C31.215,14.210 31.268,14.197 31.321,14.184 C31.334,14.157 31.347,14.131 31.360,14.104 C31.387,14.104 31.413,14.104 31.439,14.104 C31.439,14.091 31.439,14.078 31.439,14.065 C31.466,14.065 31.492,14.065 31.519,14.065 C31.519,14.051 31.519,14.038 31.519,14.025 C31.545,14.025 31.571,14.025 31.598,14.025 C31.598,14.012 31.598,13.998 31.598,13.985 C31.624,13.985 31.651,13.985 31.677,13.985 C31.677,13.972 31.677,13.959 31.677,13.946 C31.704,13.946 31.730,13.946 31.756,13.946 C31.756,13.932 31.756,13.919 31.756,13.906 C31.836,13.879 31.915,13.853 31.994,13.827 C31.994,13.813 31.994,13.800 31.994,13.787 C32.034,13.787 32.073,13.787 32.113,13.787 C32.113,13.774 32.113,13.760 32.113,13.747 C32.139,13.747 32.166,13.747 32.192,13.747 C32.192,13.734 32.192,13.721 32.192,13.708 C32.258,13.694 32.324,13.681 32.390,13.668 C32.390,13.655 32.390,13.641 32.390,13.628 C32.760,13.522 33.130,13.417 33.500,13.311 C33.751,13.284 34.002,13.258 34.253,13.232 C34.253,13.218 34.253,13.205 34.253,13.192 C34.715,13.179 35.177,13.166 35.640,13.152 C35.640,13.166 35.640,13.179 35.640,13.192 C35.891,13.205 36.142,13.218 36.393,13.232 C36.393,13.245 36.393,13.258 36.393,13.271 C36.472,13.271 36.551,13.271 36.630,13.271 C36.630,13.284 36.630,13.298 36.630,13.311 C36.696,13.311 36.762,13.311 36.829,13.311 C36.829,13.324 36.829,13.337 36.829,13.351 C36.895,13.351 36.961,13.351 37.027,13.351 C37.027,13.364 37.027,13.377 37.027,13.390 C37.079,13.390 37.132,13.390 37.185,13.390 C37.185,13.403 37.185,13.417 37.185,13.430 C37.238,13.430 37.291,13.430 37.344,13.430 C37.344,13.443 37.344,13.456 37.344,13.470 C37.383,13.470 37.423,13.470 37.463,13.470 C37.463,13.483 37.463,13.496 37.463,13.509 C37.502,13.509 37.542,13.509 37.581,13.509 C37.581,13.522 37.581,13.536 37.581,13.549 C37.621,13.549 37.661,13.549 37.700,13.549 C37.700,13.562 37.700,13.575 37.700,13.589 C37.740,13.589 37.780,13.589 37.819,13.589 C37.819,13.602 37.819,13.615 37.819,13.628 C37.898,13.641 37.978,13.655 38.057,13.668 C38.057,13.681 38.057,13.694 38.057,13.708 C38.083,13.708 38.110,13.708 38.136,13.708 C38.136,13.721 38.136,13.734 38.136,13.747 C38.176,13.747 38.215,13.747 38.255,13.747 C38.255,13.760 38.255,13.774 38.255,13.787 C38.308,13.800 38.361,13.813 38.414,13.827 C38.414,13.840 38.414,13.853 38.414,13.866 C38.453,13.866 38.493,13.866 38.532,13.866 C38.532,13.879 38.532,13.893 38.532,13.906 C38.612,13.932 38.691,13.959 38.770,13.985 C38.770,13.998 38.770,14.012 38.770,14.025 C38.797,14.025 38.823,14.025 38.849,14.025 C38.849,14.038 38.849,14.051 38.849,14.065 C38.902,14.078 38.955,14.091 39.008,14.104 C39.021,14.131 39.034,14.157 39.048,14.184 C39.100,14.197 39.153,14.210 39.206,14.223 C39.219,14.250 39.232,14.276 39.246,14.303 C39.299,14.316 39.351,14.329 39.404,14.342 C39.417,14.369 39.431,14.395 39.444,14.422 C39.470,14.422 39.497,14.422 39.523,14.422 C39.536,14.448 39.549,14.474 39.563,14.501 C39.589,14.501 39.616,14.501 39.642,14.501 C39.668,14.541 39.695,14.580 39.721,14.620 C39.748,14.620 39.774,14.620 39.800,14.620 C39.827,14.660 39.853,14.699 39.880,14.739 C40.097,14.894 40.380,15.062 40.514,15.294 C37.001,15.294 33.486,15.294 29.973,15.294 ZM4.296,17.436 C16.169,17.436 28.046,17.436 39.919,17.436 C42.548,17.436 45.177,17.436 47.805,17.436 C48.703,17.436 49.601,17.436 50.499,17.436 C50.946,17.436 51.423,17.415 51.767,17.515 C51.847,17.515 51.926,17.515 52.005,17.515 C52.349,17.621 52.692,17.727 53.035,17.833 C53.035,17.846 53.035,17.859 53.035,17.872 C53.115,17.899 53.194,17.925 53.273,17.952 C53.273,17.965 53.273,17.978 53.273,17.991 C53.300,17.991 53.326,17.991 53.352,17.991 C53.352,18.004 53.352,18.018 53.352,18.031 C53.405,18.044 53.458,18.057 53.511,18.071 C53.524,18.097 53.537,18.123 53.551,18.150 C53.603,18.163 53.656,18.176 53.709,18.190 C53.722,18.216 53.736,18.242 53.749,18.269 C53.775,18.269 53.802,18.269 53.828,18.269 C53.854,18.309 53.881,18.348 53.907,18.388 C53.934,18.388 53.960,18.388 53.986,18.388 C54.039,18.454 54.092,18.520 54.145,18.586 C54.171,18.586 54.198,18.586 54.224,18.586 C54.303,18.679 54.383,18.771 54.462,18.864 C54.488,18.877 54.515,18.890 54.541,18.904 C54.541,18.930 54.541,18.956 54.541,18.983 C54.607,19.036 54.673,19.089 54.739,19.142 C54.739,19.168 54.739,19.194 54.739,19.221 C54.766,19.234 54.792,19.247 54.819,19.261 C54.819,19.287 54.819,19.313 54.819,19.340 C54.858,19.366 54.898,19.393 54.938,19.419 C54.951,19.472 54.964,19.525 54.977,19.578 C55.004,19.591 55.030,19.604 55.056,19.617 C55.070,19.670 55.083,19.723 55.096,19.776 C55.109,19.776 55.122,19.776 55.136,19.776 C55.136,19.803 55.136,19.829 55.136,19.855 C55.149,19.855 55.162,19.855 55.175,19.855 C55.202,19.935 55.228,20.014 55.255,20.093 C55.268,20.093 55.281,20.093 55.294,20.093 C55.400,20.450 55.505,20.807 55.611,21.164 C55.624,21.402 55.638,21.640 55.651,21.878 C55.712,22.098 55.690,22.468 55.690,22.751 C55.690,23.293 55.690,23.835 55.690,24.377 C55.690,28.052 55.690,31.729 55.690,35.404 C55.690,38.021 55.690,40.640 55.690,43.257 C55.690,43.760 55.690,44.262 55.690,44.764 C55.690,45.024 55.706,45.361 55.651,45.558 C55.638,45.796 55.624,46.034 55.611,46.272 C55.598,46.272 55.585,46.272 55.572,46.272 C55.572,46.338 55.572,46.404 55.572,46.470 C55.558,46.470 55.545,46.470 55.532,46.470 C55.532,46.523 55.532,46.576 55.532,46.629 C55.519,46.629 55.505,46.629 55.492,46.629 C55.492,46.681 55.492,46.734 55.492,46.787 C55.479,46.787 55.466,46.787 55.453,46.787 C55.453,46.827 55.453,46.867 55.453,46.906 C55.439,46.906 55.426,46.906 55.413,46.906 C55.413,46.946 55.413,46.986 55.413,47.025 C55.400,47.025 55.387,47.025 55.373,47.025 C55.373,47.065 55.373,47.105 55.373,47.144 C55.360,47.144 55.347,47.144 55.334,47.144 C55.334,47.171 55.334,47.197 55.334,47.224 C55.321,47.224 55.307,47.224 55.294,47.224 C55.294,47.263 55.294,47.303 55.294,47.343 C55.281,47.343 55.268,47.343 55.255,47.343 C55.228,47.422 55.202,47.501 55.175,47.581 C55.162,47.581 55.149,47.581 55.136,47.581 C55.136,47.607 55.136,47.633 55.136,47.660 C55.122,47.660 55.109,47.660 55.096,47.660 C55.096,47.686 55.096,47.713 55.096,47.739 C55.083,47.739 55.070,47.739 55.056,47.739 C55.056,47.766 55.056,47.792 55.056,47.818 C55.043,47.818 55.030,47.818 55.017,47.818 C55.017,47.845 55.017,47.871 55.017,47.898 C54.990,47.911 54.964,47.924 54.938,47.937 C54.938,47.964 54.938,47.990 54.938,48.017 C54.911,48.030 54.885,48.043 54.858,48.056 C54.858,48.083 54.858,48.109 54.858,48.136 C54.819,48.162 54.779,48.189 54.739,48.215 C54.739,48.242 54.739,48.268 54.739,48.294 C54.687,48.334 54.634,48.374 54.581,48.413 C54.581,48.440 54.581,48.466 54.581,48.493 C54.475,48.585 54.370,48.678 54.264,48.770 C54.237,48.810 54.211,48.850 54.185,48.889 C54.158,48.889 54.132,48.889 54.105,48.889 C54.066,48.942 54.026,48.995 53.986,49.048 C53.960,49.048 53.934,49.048 53.907,49.048 C53.881,49.088 53.854,49.127 53.828,49.167 C53.802,49.167 53.775,49.167 53.749,49.167 C53.736,49.193 53.722,49.220 53.709,49.246 C53.656,49.260 53.603,49.273 53.551,49.286 C53.537,49.312 53.524,49.339 53.511,49.365 C53.458,49.379 53.405,49.392 53.352,49.405 C53.352,49.418 53.352,49.431 53.352,49.445 C53.273,49.471 53.194,49.498 53.115,49.524 C53.115,49.537 53.115,49.550 53.115,49.564 C53.075,49.564 53.035,49.564 52.996,49.564 C52.996,49.577 52.996,49.590 52.996,49.603 C52.969,49.603 52.943,49.603 52.917,49.603 C52.917,49.617 52.917,49.630 52.917,49.643 C52.877,49.643 52.837,49.643 52.798,49.643 C52.798,49.656 52.798,49.669 52.798,49.683 C52.758,49.683 52.718,49.683 52.679,49.683 C52.679,49.696 52.679,49.709 52.679,49.722 C52.639,49.722 52.600,49.722 52.560,49.722 C52.560,49.736 52.560,49.749 52.560,49.762 C52.520,49.762 52.481,49.762 52.441,49.762 C52.441,49.775 52.441,49.788 52.441,49.802 C52.335,49.815 52.230,49.828 52.124,49.841 C52.124,49.855 52.124,49.868 52.124,49.881 C52.058,49.881 51.992,49.881 51.926,49.881 C51.482,50.016 50.886,50.000 50.301,50.000 C49.298,50.000 48.293,50.000 47.290,50.000 C42.535,50.000 37.779,50.000 33.024,50.000 C25.760,50.000 18.494,50.000 11.230,50.000 C9.566,50.000 7.901,50.000 6.237,50.000 C5.577,50.000 4.916,50.000 4.256,50.000 C4.256,49.987 4.256,49.974 4.256,49.960 C4.150,49.960 4.045,49.960 3.939,49.960 C3.939,49.947 3.939,49.934 3.939,49.921 C3.860,49.921 3.781,49.921 3.701,49.921 C3.701,49.907 3.701,49.894 3.701,49.881 C3.635,49.881 3.569,49.881 3.503,49.881 C3.503,49.868 3.503,49.855 3.503,49.841 C3.450,49.841 3.397,49.841 3.345,49.841 C3.345,49.828 3.345,49.815 3.345,49.802 C3.305,49.802 3.265,49.802 3.226,49.802 C3.226,49.788 3.226,49.775 3.226,49.762 C3.133,49.749 3.041,49.736 2.948,49.722 C2.948,49.709 2.948,49.696 2.948,49.683 C2.922,49.683 2.896,49.683 2.869,49.683 C2.869,49.669 2.869,49.656 2.869,49.643 C2.830,49.643 2.790,49.643 2.750,49.643 C2.750,49.630 2.750,49.617 2.750,49.603 C2.724,49.603 2.697,49.603 2.671,49.603 C2.671,49.590 2.671,49.577 2.671,49.564 C2.552,49.524 2.433,49.484 2.314,49.445 C2.301,49.418 2.288,49.392 2.275,49.365 C2.222,49.352 2.169,49.339 2.116,49.326 C2.103,49.299 2.090,49.273 2.077,49.246 C2.050,49.246 2.024,49.246 1.997,49.246 C1.984,49.220 1.971,49.193 1.958,49.167 C1.931,49.167 1.905,49.167 1.879,49.167 C1.852,49.127 1.826,49.088 1.799,49.048 C1.773,49.048 1.746,49.048 1.720,49.048 C1.588,48.903 1.456,48.757 1.324,48.612 C1.245,48.546 1.165,48.480 1.086,48.413 C1.086,48.387 1.086,48.361 1.086,48.334 C1.046,48.308 1.007,48.281 0.967,48.255 C0.967,48.228 0.967,48.202 0.967,48.175 C0.927,48.149 0.888,48.123 0.848,48.096 C0.848,48.070 0.848,48.043 0.848,48.017 C0.835,48.017 0.822,48.017 0.809,48.017 C0.809,47.990 0.809,47.964 0.809,47.937 C0.782,47.924 0.756,47.911 0.729,47.898 C0.716,47.845 0.703,47.792 0.690,47.739 C0.663,47.726 0.637,47.713 0.610,47.699 C0.597,47.647 0.584,47.594 0.571,47.541 C0.558,47.541 0.544,47.541 0.531,47.541 C0.518,47.488 0.505,47.435 0.492,47.382 C0.478,47.382 0.465,47.382 0.452,47.382 C0.346,47.052 0.241,46.721 0.135,46.391 C0.109,46.206 0.082,46.020 0.056,45.835 C0.056,45.716 0.056,45.597 0.056,45.478 C-0.040,45.136 0.016,44.582 0.016,44.169 C0.016,43.297 0.016,42.424 0.016,41.552 C0.016,36.792 0.016,32.032 0.016,27.273 C0.016,25.924 0.016,24.575 0.016,23.227 C0.016,22.424 -0.016,21.568 0.175,20.966 C0.175,20.900 0.175,20.834 0.175,20.768 C0.188,20.768 0.201,20.768 0.214,20.768 C0.214,20.728 0.214,20.688 0.214,20.649 C0.227,20.649 0.241,20.649 0.254,20.649 C0.254,20.609 0.254,20.569 0.254,20.530 C0.267,20.530 0.280,20.530 0.293,20.530 C0.293,20.490 0.293,20.450 0.293,20.411 C0.307,20.411 0.320,20.411 0.333,20.411 C0.346,20.331 0.360,20.252 0.373,20.173 C0.386,20.173 0.399,20.173 0.412,20.173 C0.426,20.120 0.439,20.067 0.452,20.014 C0.465,20.014 0.478,20.014 0.492,20.014 C0.492,19.988 0.492,19.961 0.492,19.935 C0.505,19.935 0.518,19.935 0.531,19.935 C0.531,19.895 0.531,19.855 0.531,19.816 C0.558,19.803 0.584,19.789 0.610,19.776 C0.637,19.697 0.663,19.617 0.690,19.538 C0.716,19.525 0.743,19.512 0.769,19.499 C0.769,19.472 0.769,19.446 0.769,19.419 C0.795,19.406 0.822,19.393 0.848,19.380 C0.848,19.353 0.848,19.327 0.848,19.300 C0.875,19.287 0.901,19.274 0.927,19.261 C0.927,19.234 0.927,19.208 0.927,19.181 C0.980,19.142 1.033,19.102 1.086,19.062 C1.086,19.036 1.086,19.009 1.086,18.983 C1.192,18.890 1.297,18.798 1.403,18.705 C1.456,18.639 1.509,18.573 1.562,18.507 C1.588,18.507 1.614,18.507 1.641,18.507 C1.680,18.454 1.720,18.401 1.760,18.348 C1.786,18.348 1.812,18.348 1.839,18.348 C1.852,18.322 1.865,18.295 1.879,18.269 C1.918,18.256 1.958,18.242 1.997,18.229 C1.997,18.216 1.997,18.203 1.997,18.190 C2.024,18.190 2.050,18.190 2.077,18.190 C2.090,18.163 2.103,18.137 2.116,18.110 C2.196,18.084 2.275,18.057 2.354,18.031 C2.367,18.004 2.380,17.978 2.394,17.952 C2.420,17.952 2.446,17.952 2.473,17.952 C2.473,17.938 2.473,17.925 2.473,17.912 C2.513,17.912 2.552,17.912 2.592,17.912 C2.592,17.899 2.592,17.886 2.592,17.872 C2.645,17.859 2.697,17.846 2.750,17.833 C2.750,17.819 2.750,17.806 2.750,17.793 C3.067,17.700 3.384,17.608 3.701,17.515 C3.862,17.467 4.191,17.527 4.296,17.436 ZM4.415,27.233 C4.401,27.273 4.388,27.312 4.375,27.352 C4.362,27.352 4.349,27.352 4.335,27.352 C4.335,27.378 4.335,27.405 4.335,27.431 C4.322,27.431 4.309,27.431 4.296,27.431 C4.296,28.912 4.296,30.393 4.296,31.874 C4.296,33.605 4.296,35.338 4.296,37.070 C4.296,38.061 4.250,39.158 4.335,40.084 C4.430,40.145 4.398,40.199 4.454,40.243 C4.481,40.243 4.507,40.243 4.533,40.243 C4.547,40.269 4.560,40.296 4.573,40.322 C4.613,40.322 4.652,40.322 4.692,40.322 C4.692,40.335 4.692,40.348 4.692,40.362 C4.718,40.362 4.745,40.362 4.771,40.362 C4.771,40.375 4.771,40.388 4.771,40.401 C4.864,40.415 4.956,40.428 5.049,40.441 C5.049,40.454 5.049,40.467 5.049,40.481 C5.088,40.481 5.128,40.481 5.167,40.481 C5.167,40.494 5.167,40.507 5.167,40.520 C5.207,40.520 5.247,40.520 5.286,40.520 C5.286,40.534 5.286,40.547 5.286,40.560 C5.326,40.560 5.366,40.560 5.405,40.560 C5.405,40.573 5.405,40.586 5.405,40.600 C5.445,40.600 5.484,40.600 5.524,40.600 C5.524,40.613 5.524,40.626 5.524,40.639 C5.603,40.653 5.683,40.666 5.762,40.679 C5.762,40.692 5.762,40.705 5.762,40.719 C5.788,40.719 5.815,40.719 5.841,40.719 C5.841,40.732 5.841,40.745 5.841,40.758 C5.881,40.758 5.920,40.758 5.960,40.758 C5.960,40.772 5.960,40.785 5.960,40.798 C6.013,40.811 6.066,40.824 6.118,40.838 C6.118,40.851 6.118,40.864 6.118,40.877 C6.158,40.877 6.198,40.877 6.237,40.877 C6.237,40.891 6.237,40.904 6.237,40.917 C6.317,40.943 6.396,40.970 6.475,40.996 C6.475,41.010 6.475,41.023 6.475,41.036 C6.528,41.049 6.581,41.062 6.634,41.076 C6.647,41.102 6.660,41.129 6.673,41.155 C6.752,41.181 6.832,41.208 6.911,41.234 C6.924,41.261 6.937,41.287 6.951,41.314 C7.003,41.327 7.056,41.340 7.109,41.353 C7.122,41.380 7.136,41.406 7.149,41.433 C7.175,41.433 7.202,41.433 7.228,41.433 C7.241,41.459 7.254,41.485 7.268,41.512 C7.294,41.512 7.320,41.512 7.347,41.512 C7.373,41.552 7.400,41.591 7.426,41.631 C7.453,41.631 7.479,41.631 7.505,41.631 C7.532,41.671 7.558,41.710 7.585,41.750 C7.611,41.750 7.637,41.750 7.664,41.750 C7.704,41.803 7.743,41.856 7.783,41.909 C7.809,41.909 7.836,41.909 7.862,41.909 C7.954,42.014 8.047,42.120 8.139,42.226 C8.166,42.226 8.192,42.226 8.219,42.226 C8.232,42.252 8.245,42.279 8.258,42.305 C8.311,42.345 8.364,42.385 8.417,42.424 C8.417,42.451 8.417,42.477 8.417,42.504 C8.522,42.596 8.628,42.689 8.734,42.781 C8.734,42.808 8.734,42.834 8.734,42.861 C8.787,42.900 8.839,42.940 8.892,42.979 C8.892,43.006 8.892,43.032 8.892,43.059 C8.932,43.085 8.972,43.112 9.011,43.138 C9.011,43.165 9.011,43.191 9.011,43.217 C9.051,43.244 9.090,43.270 9.130,43.297 C9.130,43.323 9.130,43.350 9.130,43.376 C9.156,43.389 9.183,43.403 9.209,43.416 C9.223,43.455 9.236,43.495 9.249,43.535 C9.262,43.535 9.275,43.535 9.289,43.535 C9.289,43.561 9.289,43.588 9.289,43.614 C9.315,43.627 9.341,43.641 9.368,43.654 C9.381,43.707 9.394,43.760 9.407,43.812 C9.434,43.826 9.460,43.839 9.487,43.852 C9.487,43.879 9.487,43.905 9.487,43.931 C9.500,43.931 9.513,43.931 9.526,43.931 C9.526,43.958 9.526,43.984 9.526,44.011 C9.540,44.011 9.553,44.011 9.566,44.011 C9.566,44.037 9.566,44.064 9.566,44.090 C9.579,44.090 9.592,44.090 9.606,44.090 C9.606,44.117 9.606,44.143 9.606,44.169 C9.619,44.169 9.632,44.169 9.645,44.169 C9.645,44.196 9.645,44.222 9.645,44.249 C9.658,44.249 9.672,44.249 9.685,44.249 C9.685,44.275 9.685,44.302 9.685,44.328 C9.698,44.328 9.711,44.328 9.724,44.328 C9.724,44.355 9.724,44.381 9.724,44.407 C9.738,44.407 9.751,44.407 9.764,44.407 C9.764,44.434 9.764,44.460 9.764,44.487 C9.777,44.487 9.790,44.487 9.804,44.487 C9.830,44.566 9.857,44.645 9.883,44.725 C9.896,44.725 9.909,44.725 9.923,44.725 C9.923,44.764 9.923,44.804 9.923,44.844 C9.936,44.844 9.949,44.844 9.962,44.844 C9.975,44.897 9.989,44.949 10.002,45.002 C10.015,45.002 10.028,45.002 10.041,45.002 C10.041,45.042 10.041,45.082 10.041,45.121 C10.055,45.121 10.068,45.121 10.081,45.121 C10.081,45.148 10.081,45.174 10.081,45.201 C10.094,45.201 10.107,45.201 10.121,45.201 C10.121,45.240 10.121,45.280 10.121,45.320 C10.134,45.320 10.147,45.320 10.160,45.320 C10.160,45.346 10.160,45.373 10.160,45.399 C10.200,45.425 10.240,45.452 10.279,45.478 C10.292,45.518 10.306,45.558 10.319,45.597 C10.345,45.597 10.372,45.597 10.398,45.597 C10.540,45.759 10.889,45.716 11.191,45.716 C11.851,45.716 12.512,45.716 13.172,45.716 C15.919,45.716 18.667,45.716 21.414,45.716 C29.325,45.716 37.239,45.716 45.150,45.716 C45.150,45.703 45.150,45.690 45.150,45.677 C45.203,45.663 45.256,45.650 45.308,45.637 C45.322,45.611 45.335,45.584 45.348,45.558 C45.401,45.518 45.454,45.478 45.507,45.439 C45.533,45.359 45.559,45.280 45.586,45.201 C45.599,45.201 45.612,45.201 45.625,45.201 C45.625,45.161 45.625,45.121 45.625,45.082 C45.639,45.082 45.652,45.082 45.665,45.082 C45.665,45.055 45.665,45.029 45.665,45.002 C45.678,45.002 45.691,45.002 45.705,45.002 C45.705,44.963 45.705,44.923 45.705,44.883 C45.718,44.883 45.731,44.883 45.744,44.883 C45.758,44.830 45.771,44.778 45.784,44.725 C45.797,44.725 45.810,44.725 45.824,44.725 C45.824,44.698 45.824,44.672 45.824,44.645 C45.837,44.645 45.850,44.645 45.863,44.645 C45.863,44.606 45.863,44.566 45.863,44.526 C45.876,44.526 45.890,44.526 45.903,44.526 C45.929,44.447 45.956,44.368 45.982,44.288 C45.995,44.288 46.008,44.288 46.022,44.288 C46.022,44.262 46.022,44.236 46.022,44.209 C46.035,44.209 46.048,44.209 46.061,44.209 C46.075,44.156 46.088,44.103 46.101,44.050 C46.127,44.037 46.154,44.024 46.180,44.011 C46.207,43.931 46.233,43.852 46.259,43.773 C46.273,43.773 46.286,43.773 46.299,43.773 C46.312,43.733 46.325,43.693 46.339,43.654 C46.365,43.641 46.392,43.627 46.418,43.614 C46.431,43.561 46.444,43.508 46.458,43.455 C46.497,43.429 46.537,43.403 46.576,43.376 C46.576,43.350 46.576,43.323 46.576,43.297 C46.603,43.284 46.629,43.270 46.656,43.257 C46.656,43.231 46.656,43.204 46.656,43.178 C46.682,43.165 46.709,43.151 46.735,43.138 C46.748,43.098 46.761,43.059 46.775,43.019 C46.827,42.980 46.880,42.940 46.933,42.900 C46.933,42.874 46.933,42.847 46.933,42.821 C47.012,42.755 47.092,42.689 47.171,42.623 C47.171,42.596 47.171,42.570 47.171,42.543 C47.224,42.504 47.277,42.464 47.329,42.424 C47.422,42.318 47.514,42.213 47.607,42.107 C47.633,42.107 47.660,42.107 47.686,42.107 C47.752,42.028 47.818,41.948 47.884,41.869 C47.924,41.856 47.963,41.842 48.003,41.829 C48.029,41.790 48.056,41.750 48.082,41.710 C48.109,41.710 48.135,41.710 48.161,41.710 C48.188,41.671 48.214,41.631 48.241,41.591 C48.267,41.591 48.294,41.591 48.320,41.591 C48.333,41.565 48.346,41.538 48.360,41.512 C48.386,41.512 48.412,41.512 48.439,41.512 C48.452,41.485 48.465,41.459 48.479,41.433 C48.835,41.234 49.192,41.036 49.548,40.838 C49.588,40.838 49.628,40.838 49.667,40.838 C49.667,40.824 49.667,40.811 49.667,40.798 C49.694,40.798 49.720,40.798 49.747,40.798 C49.747,40.785 49.747,40.772 49.747,40.758 C49.786,40.758 49.826,40.758 49.865,40.758 C49.865,40.745 49.865,40.732 49.865,40.719 C49.892,40.719 49.918,40.719 49.945,40.719 C49.945,40.705 49.945,40.692 49.945,40.679 C49.984,40.679 50.024,40.679 50.064,40.679 C50.064,40.666 50.064,40.653 50.064,40.639 C50.090,40.639 50.116,40.639 50.143,40.639 C50.143,40.626 50.143,40.613 50.143,40.600 C50.182,40.600 50.222,40.600 50.262,40.600 C50.262,40.586 50.262,40.573 50.262,40.560 C50.301,40.560 50.341,40.560 50.381,40.560 C50.381,40.547 50.381,40.534 50.381,40.520 C50.420,40.520 50.460,40.520 50.499,40.520 C50.499,40.507 50.499,40.494 50.499,40.481 C50.552,40.481 50.605,40.481 50.658,40.481 C50.658,40.467 50.658,40.454 50.658,40.441 C50.750,40.428 50.843,40.415 50.935,40.401 C50.935,40.388 50.935,40.375 50.935,40.362 C50.988,40.348 51.041,40.335 51.094,40.322 C51.094,40.309 51.094,40.296 51.094,40.282 C51.120,40.282 51.147,40.282 51.173,40.282 C51.173,40.269 51.173,40.256 51.173,40.243 C51.226,40.203 51.279,40.163 51.332,40.124 C51.377,40.057 51.332,40.034 51.411,39.965 C51.411,37.255 51.411,34.544 51.411,31.834 C51.411,30.948 51.411,30.062 51.411,29.176 C51.411,28.573 51.421,27.893 51.371,27.352 C51.242,27.278 51.156,27.137 51.015,27.074 C50.922,27.061 50.830,27.048 50.737,27.035 C50.737,27.021 50.737,27.008 50.737,26.995 C50.698,26.995 50.658,26.995 50.618,26.995 C50.618,26.982 50.618,26.969 50.618,26.955 C50.579,26.955 50.539,26.955 50.499,26.955 C50.499,26.942 50.499,26.929 50.499,26.916 C50.460,26.916 50.420,26.916 50.381,26.916 C50.381,26.902 50.381,26.889 50.381,26.876 C50.341,26.876 50.301,26.876 50.262,26.876 C50.262,26.863 50.262,26.850 50.262,26.836 C50.182,26.823 50.103,26.810 50.024,26.797 C50.024,26.783 50.024,26.770 50.024,26.757 C49.997,26.757 49.971,26.757 49.945,26.757 C49.945,26.744 49.945,26.731 49.945,26.717 C49.905,26.717 49.865,26.717 49.826,26.717 C49.826,26.704 49.826,26.691 49.826,26.678 C49.799,26.678 49.773,26.678 49.747,26.678 C49.747,26.664 49.747,26.651 49.747,26.638 C49.707,26.638 49.667,26.638 49.628,26.638 C49.628,26.625 49.628,26.612 49.628,26.598 C49.548,26.572 49.469,26.545 49.390,26.519 C49.390,26.506 49.390,26.493 49.390,26.479 C49.363,26.479 49.337,26.479 49.311,26.479 C49.311,26.466 49.311,26.453 49.311,26.440 C49.284,26.440 49.258,26.440 49.231,26.440 C49.231,26.426 49.231,26.413 49.231,26.400 C49.205,26.400 49.179,26.400 49.152,26.400 C49.152,26.387 49.152,26.374 49.152,26.360 C49.126,26.360 49.099,26.360 49.073,26.360 C49.073,26.347 49.073,26.334 49.073,26.321 C49.046,26.321 49.020,26.321 48.994,26.321 C48.994,26.307 48.994,26.294 48.994,26.281 C48.967,26.281 48.941,26.281 48.914,26.281 C48.901,26.255 48.888,26.228 48.875,26.202 C48.822,26.188 48.769,26.175 48.716,26.162 C48.716,26.149 48.716,26.136 48.716,26.122 C48.677,26.109 48.637,26.096 48.597,26.083 C48.584,26.056 48.571,26.030 48.558,26.003 C48.531,26.003 48.505,26.003 48.479,26.003 C48.465,25.977 48.452,25.950 48.439,25.924 C48.412,25.924 48.386,25.924 48.360,25.924 C48.346,25.898 48.333,25.871 48.320,25.845 C48.294,25.845 48.267,25.845 48.241,25.845 C48.228,25.818 48.214,25.792 48.201,25.765 C48.161,25.752 48.122,25.739 48.082,25.726 C48.056,25.686 48.029,25.646 48.003,25.607 C47.977,25.607 47.950,25.607 47.924,25.607 C47.858,25.527 47.792,25.448 47.726,25.369 C47.699,25.369 47.673,25.369 47.646,25.369 C47.541,25.250 47.435,25.131 47.329,25.012 C47.263,24.959 47.197,24.906 47.131,24.853 C47.131,24.827 47.131,24.800 47.131,24.774 C47.052,24.708 46.973,24.642 46.893,24.575 C46.880,24.536 46.867,24.496 46.854,24.456 C46.814,24.430 46.775,24.404 46.735,24.377 C46.735,24.351 46.735,24.324 46.735,24.298 C46.709,24.285 46.682,24.271 46.656,24.258 C46.656,24.232 46.656,24.205 46.656,24.179 C46.616,24.152 46.576,24.126 46.537,24.100 C46.537,24.073 46.537,24.047 46.537,24.020 C46.510,24.007 46.484,23.994 46.458,23.981 C46.444,23.941 46.431,23.901 46.418,23.862 C46.405,23.862 46.392,23.862 46.378,23.862 C46.365,23.809 46.352,23.756 46.339,23.703 C46.312,23.690 46.286,23.676 46.259,23.663 C46.246,23.610 46.233,23.557 46.220,23.505 C46.193,23.491 46.167,23.478 46.141,23.465 C46.127,23.412 46.114,23.359 46.101,23.306 C46.088,23.306 46.075,23.306 46.061,23.306 C46.061,23.280 46.061,23.253 46.061,23.227 C46.048,23.227 46.035,23.227 46.022,23.227 C46.022,23.200 46.022,23.174 46.022,23.148 C46.008,23.148 45.995,23.148 45.982,23.148 C45.982,23.121 45.982,23.095 45.982,23.068 C45.969,23.068 45.956,23.068 45.942,23.068 C45.942,23.042 45.942,23.015 45.942,22.989 C45.929,22.989 45.916,22.989 45.903,22.989 C45.903,22.962 45.903,22.936 45.903,22.910 C45.890,22.910 45.876,22.910 45.863,22.910 C45.850,22.843 45.837,22.777 45.824,22.711 C45.810,22.711 45.797,22.711 45.784,22.711 C45.771,22.658 45.758,22.605 45.744,22.553 C45.731,22.553 45.718,22.553 45.705,22.553 C45.705,22.513 45.705,22.473 45.705,22.434 C45.691,22.434 45.678,22.434 45.665,22.434 C45.665,22.407 45.665,22.381 45.665,22.354 C45.652,22.354 45.639,22.354 45.625,22.354 C45.586,22.235 45.546,22.116 45.507,21.997 C45.480,21.984 45.454,21.971 45.427,21.958 C45.427,21.931 45.427,21.905 45.427,21.878 C45.391,21.833 45.245,21.786 45.190,21.720 C45.110,21.720 45.031,21.720 44.952,21.720 C44.952,21.706 44.952,21.693 44.952,21.680 C42.456,21.693 39.959,21.706 37.463,21.720 C32.259,21.720 27.054,21.720 21.850,21.720 C19.341,21.720 16.830,21.720 14.321,21.720 C13.476,21.706 12.630,21.693 11.785,21.680 C11.442,21.680 11.098,21.680 10.755,21.680 C10.755,21.693 10.755,21.706 10.755,21.720 C10.675,21.720 10.596,21.720 10.517,21.720 C10.517,21.733 10.517,21.746 10.517,21.759 C10.464,21.773 10.411,21.786 10.358,21.799 C10.332,21.839 10.306,21.878 10.279,21.918 C10.266,21.918 10.253,21.918 10.240,21.918 C10.240,21.944 10.240,21.971 10.240,21.997 C10.213,22.011 10.187,22.024 10.160,22.037 C10.147,22.103 10.134,22.169 10.121,22.235 C10.107,22.235 10.094,22.235 10.081,22.235 C10.081,22.262 10.081,22.288 10.081,22.315 C10.068,22.315 10.055,22.315 10.041,22.315 C10.041,22.354 10.041,22.394 10.041,22.434 C10.028,22.434 10.015,22.434 10.002,22.434 C10.002,22.460 10.002,22.487 10.002,22.513 C9.989,22.513 9.975,22.513 9.962,22.513 C9.962,22.553 9.962,22.592 9.962,22.632 C9.949,22.632 9.936,22.632 9.923,22.632 C9.909,22.685 9.896,22.738 9.883,22.791 C9.870,22.791 9.857,22.791 9.843,22.791 C9.843,22.817 9.843,22.843 9.843,22.870 C9.830,22.870 9.817,22.870 9.804,22.870 C9.804,22.910 9.804,22.949 9.804,22.989 C9.790,22.989 9.777,22.989 9.764,22.989 C9.751,23.042 9.738,23.095 9.724,23.148 C9.711,23.148 9.698,23.148 9.685,23.148 C9.685,23.174 9.685,23.200 9.685,23.227 C9.658,23.240 9.632,23.253 9.606,23.267 C9.606,23.293 9.606,23.319 9.606,23.346 C9.592,23.346 9.579,23.346 9.566,23.346 C9.566,23.372 9.566,23.399 9.566,23.425 C9.553,23.425 9.540,23.425 9.526,23.425 C9.526,23.452 9.526,23.478 9.526,23.505 C9.513,23.505 9.500,23.505 9.487,23.505 C9.487,23.531 9.487,23.557 9.487,23.584 C9.460,23.597 9.434,23.610 9.407,23.624 C9.394,23.676 9.381,23.729 9.368,23.782 C9.355,23.782 9.341,23.782 9.328,23.782 C9.315,23.822 9.302,23.862 9.289,23.901 C9.262,23.914 9.236,23.928 9.209,23.941 C9.209,23.967 9.209,23.994 9.209,24.020 C9.196,24.020 9.183,24.020 9.170,24.020 C9.156,24.060 9.143,24.100 9.130,24.139 C9.104,24.152 9.077,24.166 9.051,24.179 C9.051,24.205 9.051,24.232 9.051,24.258 C9.024,24.271 8.998,24.285 8.972,24.298 C8.958,24.337 8.945,24.377 8.932,24.417 C8.879,24.456 8.826,24.496 8.773,24.536 C8.773,24.562 8.773,24.589 8.773,24.615 C8.668,24.708 8.562,24.800 8.456,24.893 C8.456,24.919 8.456,24.946 8.456,24.972 C8.377,25.038 8.298,25.104 8.219,25.170 C8.205,25.197 8.192,25.223 8.179,25.250 C8.153,25.250 8.126,25.250 8.100,25.250 C8.021,25.342 7.941,25.435 7.862,25.527 C7.822,25.541 7.783,25.554 7.743,25.567 C7.717,25.607 7.690,25.646 7.664,25.686 C7.637,25.686 7.611,25.686 7.585,25.686 C7.558,25.726 7.532,25.765 7.505,25.805 C7.466,25.818 7.426,25.831 7.387,25.845 C7.373,25.871 7.360,25.898 7.347,25.924 C7.320,25.924 7.294,25.924 7.268,25.924 C7.254,25.950 7.241,25.977 7.228,26.003 C7.188,26.017 7.149,26.030 7.109,26.043 C7.109,26.056 7.109,26.069 7.109,26.083 C7.056,26.096 7.003,26.109 6.951,26.122 C6.937,26.149 6.924,26.175 6.911,26.202 C6.858,26.215 6.805,26.228 6.752,26.241 C6.739,26.268 6.726,26.294 6.713,26.321 C6.634,26.347 6.554,26.374 6.475,26.400 C6.475,26.413 6.475,26.426 6.475,26.440 C6.449,26.440 6.422,26.440 6.396,26.440 C6.396,26.453 6.396,26.466 6.396,26.479 C6.317,26.506 6.237,26.532 6.158,26.559 C6.158,26.572 6.158,26.585 6.158,26.598 C6.118,26.598 6.079,26.598 6.039,26.598 C6.039,26.612 6.039,26.625 6.039,26.638 C5.986,26.651 5.934,26.664 5.881,26.678 C5.881,26.691 5.881,26.704 5.881,26.717 C5.841,26.717 5.801,26.717 5.762,26.717 C5.762,26.731 5.762,26.744 5.762,26.757 C5.735,26.757 5.709,26.757 5.683,26.757 C5.683,26.770 5.683,26.783 5.683,26.797 C5.603,26.810 5.524,26.823 5.445,26.836 C5.445,26.850 5.445,26.863 5.445,26.876 C5.405,26.876 5.366,26.876 5.326,26.876 C5.326,26.889 5.326,26.902 5.326,26.916 C5.286,26.916 5.247,26.916 5.207,26.916 C5.207,26.929 5.207,26.942 5.207,26.955 C5.167,26.955 5.128,26.955 5.088,26.955 C5.088,26.969 5.088,26.982 5.088,26.995 C5.049,26.995 5.009,26.995 4.969,26.995 C4.969,27.008 4.969,27.021 4.969,27.035 C4.916,27.035 4.864,27.035 4.811,27.035 C4.677,27.083 4.555,27.197 4.415,27.233 ZM27.160,25.765 C27.962,25.754 28.811,25.735 29.418,25.924 C29.485,25.924 29.551,25.924 29.617,25.924 C29.617,25.937 29.617,25.950 29.617,25.964 C29.722,25.977 29.828,25.990 29.934,26.003 C29.934,26.017 29.934,26.030 29.934,26.043 C30.026,26.056 30.119,26.069 30.211,26.083 C30.211,26.096 30.211,26.109 30.211,26.122 C30.251,26.122 30.290,26.122 30.330,26.122 C30.330,26.136 30.330,26.149 30.330,26.162 C30.369,26.162 30.409,26.162 30.449,26.162 C30.449,26.175 30.449,26.188 30.449,26.202 C30.528,26.215 30.607,26.228 30.686,26.241 C30.686,26.255 30.686,26.268 30.686,26.281 C30.713,26.281 30.739,26.281 30.766,26.281 C30.766,26.294 30.766,26.307 30.766,26.321 C30.805,26.321 30.845,26.321 30.885,26.321 C30.885,26.334 30.885,26.347 30.885,26.360 C30.911,26.360 30.937,26.360 30.964,26.360 C30.964,26.374 30.964,26.387 30.964,26.400 C31.030,26.413 31.096,26.426 31.162,26.440 C31.162,26.453 31.162,26.466 31.162,26.479 C31.241,26.506 31.321,26.532 31.400,26.559 C31.400,26.572 31.400,26.585 31.400,26.598 C31.426,26.598 31.453,26.598 31.479,26.598 C31.479,26.612 31.479,26.625 31.479,26.638 C31.505,26.638 31.532,26.638 31.558,26.638 C31.558,26.651 31.558,26.664 31.558,26.678 C31.585,26.678 31.611,26.678 31.638,26.678 C31.638,26.691 31.638,26.704 31.638,26.717 C31.664,26.717 31.690,26.717 31.717,26.717 C31.717,26.731 31.717,26.744 31.717,26.757 C31.743,26.757 31.770,26.757 31.796,26.757 C31.809,26.783 31.822,26.810 31.836,26.836 C31.888,26.850 31.941,26.863 31.994,26.876 C32.007,26.902 32.021,26.929 32.034,26.955 C32.060,26.955 32.087,26.955 32.113,26.955 C32.126,26.982 32.139,27.008 32.153,27.035 C32.179,27.035 32.205,27.035 32.232,27.035 C32.245,27.061 32.258,27.088 32.272,27.114 C32.298,27.114 32.324,27.114 32.351,27.114 C32.351,27.127 32.351,27.140 32.351,27.154 C32.390,27.167 32.430,27.180 32.470,27.193 C32.483,27.220 32.496,27.246 32.509,27.273 C32.536,27.273 32.562,27.273 32.589,27.273 C32.615,27.312 32.641,27.352 32.668,27.392 C32.694,27.392 32.721,27.392 32.747,27.392 C32.787,27.444 32.826,27.497 32.866,27.550 C32.892,27.550 32.919,27.550 32.945,27.550 C33.011,27.630 33.077,27.709 33.143,27.788 C33.170,27.788 33.196,27.788 33.223,27.788 C33.341,27.920 33.460,28.053 33.579,28.185 C33.645,28.238 33.711,28.291 33.777,28.344 C33.777,28.370 33.777,28.396 33.777,28.423 C33.870,28.502 33.962,28.582 34.055,28.661 C34.055,28.687 34.055,28.714 34.055,28.740 C34.094,28.767 34.134,28.793 34.174,28.820 C34.174,28.846 34.174,28.872 34.174,28.899 C34.213,28.925 34.253,28.952 34.292,28.978 C34.292,29.005 34.292,29.031 34.292,29.057 C34.332,29.084 34.372,29.110 34.411,29.137 C34.411,29.163 34.411,29.190 34.411,29.216 C34.438,29.229 34.464,29.243 34.491,29.256 C34.491,29.282 34.491,29.309 34.491,29.335 C34.517,29.348 34.543,29.362 34.570,29.375 C34.583,29.414 34.596,29.454 34.609,29.494 C34.623,29.494 34.636,29.494 34.649,29.494 C34.662,29.547 34.676,29.600 34.689,29.652 C34.715,29.666 34.742,29.679 34.768,29.692 C34.768,29.719 34.768,29.745 34.768,29.771 C34.781,29.771 34.794,29.771 34.808,29.771 C34.808,29.798 34.808,29.824 34.808,29.851 C34.821,29.851 34.834,29.851 34.847,29.851 C34.847,29.877 34.847,29.904 34.847,29.930 C34.860,29.930 34.874,29.930 34.887,29.930 C34.887,29.957 34.887,29.983 34.887,30.009 C34.913,30.023 34.940,30.036 34.966,30.049 C34.966,30.076 34.966,30.102 34.966,30.128 C34.979,30.128 34.993,30.128 35.006,30.128 C35.019,30.181 35.032,30.234 35.045,30.287 C35.059,30.287 35.072,30.287 35.085,30.287 C35.085,30.327 35.085,30.366 35.085,30.406 C35.098,30.406 35.111,30.406 35.125,30.406 C35.138,30.459 35.151,30.512 35.164,30.565 C35.177,30.565 35.191,30.565 35.204,30.565 C35.204,30.604 35.204,30.644 35.204,30.684 C35.217,30.684 35.230,30.684 35.243,30.684 C35.243,30.710 35.243,30.737 35.243,30.763 C35.257,30.763 35.270,30.763 35.283,30.763 C35.283,30.803 35.283,30.842 35.283,30.882 C35.296,30.882 35.310,30.882 35.323,30.882 C35.323,30.908 35.323,30.935 35.323,30.961 C35.336,30.961 35.349,30.961 35.362,30.961 C35.362,31.001 35.362,31.041 35.362,31.080 C35.376,31.080 35.389,31.080 35.402,31.080 C35.402,31.120 35.402,31.160 35.402,31.199 C35.415,31.199 35.428,31.199 35.442,31.199 C35.442,31.239 35.442,31.279 35.442,31.318 C35.455,31.318 35.468,31.318 35.481,31.318 C35.481,31.358 35.481,31.398 35.481,31.437 C35.494,31.437 35.508,31.437 35.521,31.437 C35.521,31.490 35.521,31.543 35.521,31.596 C35.534,31.596 35.547,31.596 35.560,31.596 C35.560,31.649 35.560,31.702 35.560,31.755 C35.574,31.755 35.587,31.755 35.600,31.755 C35.600,31.808 35.600,31.860 35.600,31.913 C35.613,31.913 35.627,31.913 35.640,31.913 C35.640,31.966 35.640,32.019 35.640,32.072 C35.653,32.072 35.666,32.072 35.679,32.072 C35.679,32.138 35.679,32.204 35.679,32.270 C35.693,32.270 35.706,32.270 35.719,32.270 C35.732,32.442 35.745,32.614 35.759,32.786 C35.772,32.786 35.785,32.786 35.798,32.786 C35.798,32.945 35.798,33.103 35.798,33.262 C35.811,33.262 35.825,33.262 35.838,33.262 C35.894,33.463 35.839,34.030 35.798,34.174 C35.798,34.320 35.798,34.465 35.798,34.610 C35.785,34.610 35.772,34.610 35.759,34.610 C35.745,34.796 35.732,34.981 35.719,35.166 C35.613,35.562 35.508,35.959 35.402,36.356 C35.389,36.356 35.376,36.356 35.362,36.356 C35.362,36.382 35.362,36.409 35.362,36.435 C35.349,36.435 35.336,36.435 35.323,36.435 C35.310,36.514 35.296,36.594 35.283,36.673 C35.270,36.673 35.257,36.673 35.243,36.673 C35.243,36.699 35.243,36.726 35.243,36.752 C35.230,36.752 35.217,36.752 35.204,36.752 C35.204,36.792 35.204,36.832 35.204,36.871 C35.191,36.871 35.177,36.871 35.164,36.871 C35.138,36.951 35.111,37.030 35.085,37.109 C35.072,37.109 35.059,37.109 35.045,37.109 C35.045,37.136 35.045,37.162 35.045,37.189 C35.032,37.189 35.019,37.189 35.006,37.189 C35.006,37.215 35.006,37.241 35.006,37.268 C34.993,37.268 34.979,37.268 34.966,37.268 C34.966,37.294 34.966,37.321 34.966,37.347 C34.953,37.347 34.940,37.347 34.926,37.347 C34.926,37.374 34.926,37.400 34.926,37.427 C34.913,37.427 34.900,37.427 34.887,37.427 C34.887,37.453 34.887,37.479 34.887,37.506 C34.874,37.506 34.860,37.506 34.847,37.506 C34.847,37.532 34.847,37.559 34.847,37.585 C34.834,37.585 34.821,37.585 34.808,37.585 C34.808,37.612 34.808,37.638 34.808,37.665 C34.781,37.678 34.755,37.691 34.728,37.704 C34.715,37.757 34.702,37.810 34.689,37.863 C34.676,37.863 34.662,37.863 34.649,37.863 C34.636,37.903 34.623,37.942 34.609,37.982 C34.583,37.995 34.557,38.008 34.530,38.022 C34.517,38.074 34.504,38.127 34.491,38.180 C34.451,38.207 34.411,38.233 34.372,38.260 C34.372,38.286 34.372,38.312 34.372,38.339 C34.345,38.352 34.319,38.365 34.292,38.378 C34.292,38.405 34.292,38.431 34.292,38.458 C34.253,38.484 34.213,38.511 34.174,38.537 C34.174,38.564 34.174,38.590 34.174,38.616 C34.134,38.643 34.094,38.669 34.055,38.696 C34.055,38.709 34.055,38.722 34.055,38.735 C34.028,38.749 34.002,38.762 33.975,38.775 C33.975,38.802 33.975,38.828 33.975,38.854 C33.883,38.934 33.791,39.013 33.698,39.092 C33.698,39.119 33.698,39.145 33.698,39.172 C33.592,39.264 33.487,39.357 33.381,39.449 C33.355,39.489 33.328,39.529 33.302,39.568 C33.275,39.568 33.249,39.568 33.223,39.568 C33.143,39.661 33.064,39.754 32.985,39.846 C32.958,39.846 32.932,39.846 32.906,39.846 C32.866,39.899 32.826,39.952 32.787,40.005 C32.747,40.018 32.707,40.031 32.668,40.044 C32.655,40.071 32.641,40.097 32.628,40.124 C32.602,40.124 32.575,40.124 32.549,40.124 C32.522,40.163 32.496,40.203 32.470,40.243 C32.443,40.243 32.417,40.243 32.390,40.243 C32.377,40.269 32.364,40.296 32.351,40.322 C32.311,40.335 32.272,40.348 32.232,40.362 C32.232,40.375 32.232,40.388 32.232,40.401 C32.205,40.401 32.179,40.401 32.153,40.401 C32.139,40.428 32.126,40.454 32.113,40.481 C32.060,40.494 32.007,40.507 31.955,40.520 C31.941,40.547 31.928,40.573 31.915,40.600 C31.862,40.613 31.809,40.626 31.756,40.639 C31.743,40.666 31.730,40.692 31.717,40.719 C31.638,40.745 31.558,40.772 31.479,40.798 C31.479,40.811 31.479,40.824 31.479,40.838 C31.453,40.838 31.426,40.838 31.400,40.838 C31.400,40.851 31.400,40.864 31.400,40.877 C31.321,40.904 31.241,40.930 31.162,40.957 C31.162,40.970 31.162,40.983 31.162,40.996 C31.122,40.996 31.083,40.996 31.043,40.996 C31.043,41.010 31.043,41.023 31.043,41.036 C30.990,41.049 30.937,41.062 30.885,41.076 C30.885,41.089 30.885,41.102 30.885,41.115 C30.805,41.129 30.726,41.142 30.647,41.155 C30.647,41.168 30.647,41.181 30.647,41.195 C30.620,41.195 30.594,41.195 30.568,41.195 C30.568,41.208 30.568,41.221 30.568,41.234 C30.119,41.353 29.669,41.472 29.220,41.591 C29.128,41.591 29.035,41.591 28.943,41.591 C28.943,41.604 28.943,41.618 28.943,41.631 C28.837,41.631 28.732,41.631 28.626,41.631 C28.626,41.644 28.626,41.657 28.626,41.671 C28.269,41.671 27.913,41.671 27.556,41.671 C26.646,41.671 25.821,41.472 25.179,41.195 C25.099,41.181 25.020,41.168 24.941,41.155 C24.941,41.142 24.941,41.129 24.941,41.115 C24.914,41.115 24.888,41.115 24.862,41.115 C24.862,41.102 24.862,41.089 24.862,41.076 C24.822,41.076 24.782,41.076 24.743,41.076 C24.743,41.062 24.743,41.049 24.743,41.036 C24.663,41.010 24.584,40.983 24.505,40.957 C24.505,40.943 24.505,40.930 24.505,40.917 C24.478,40.917 24.452,40.917 24.426,40.917 C24.426,40.904 24.426,40.891 24.426,40.877 C24.386,40.877 24.346,40.877 24.307,40.877 C24.307,40.864 24.307,40.851 24.307,40.838 C24.280,40.838 24.254,40.838 24.227,40.838 C24.214,40.811 24.201,40.785 24.188,40.758 C24.161,40.758 24.135,40.758 24.109,40.758 C24.109,40.745 24.109,40.732 24.109,40.719 C24.082,40.719 24.056,40.719 24.029,40.719 C24.029,40.705 24.029,40.692 24.029,40.679 C24.003,40.679 23.977,40.679 23.950,40.679 C23.950,40.666 23.950,40.653 23.950,40.639 C23.924,40.639 23.897,40.639 23.871,40.639 C23.858,40.613 23.844,40.586 23.831,40.560 C23.778,40.547 23.726,40.534 23.673,40.520 C23.673,40.507 23.673,40.494 23.673,40.481 C23.633,40.467 23.593,40.454 23.554,40.441 C23.541,40.415 23.527,40.388 23.514,40.362 C23.488,40.362 23.461,40.362 23.435,40.362 C23.435,40.348 23.435,40.335 23.435,40.322 C23.395,40.309 23.356,40.296 23.316,40.282 C23.303,40.256 23.290,40.229 23.276,40.203 C23.250,40.203 23.224,40.203 23.197,40.203 C23.184,40.177 23.171,40.150 23.158,40.124 C23.118,40.110 23.078,40.097 23.039,40.084 C22.999,40.031 22.959,39.978 22.920,39.925 C22.893,39.925 22.867,39.925 22.841,39.925 C22.788,39.859 22.735,39.793 22.682,39.727 C22.656,39.727 22.629,39.727 22.603,39.727 C22.484,39.595 22.365,39.463 22.246,39.330 C22.114,39.211 21.982,39.092 21.850,38.973 C21.850,38.947 21.850,38.921 21.850,38.894 C21.784,38.841 21.718,38.788 21.652,38.735 C21.652,38.709 21.652,38.683 21.652,38.656 C21.625,38.643 21.599,38.630 21.573,38.616 C21.573,38.603 21.573,38.590 21.573,38.577 C21.546,38.564 21.520,38.550 21.493,38.537 C21.493,38.511 21.493,38.484 21.493,38.458 C21.467,38.445 21.440,38.431 21.414,38.418 C21.414,38.392 21.414,38.365 21.414,38.339 C21.374,38.312 21.335,38.286 21.295,38.260 C21.295,38.233 21.295,38.207 21.295,38.180 C21.269,38.167 21.242,38.154 21.216,38.141 C21.203,38.101 21.190,38.061 21.176,38.022 C21.163,38.022 21.150,38.022 21.137,38.022 C21.123,37.969 21.110,37.916 21.097,37.863 C21.071,37.850 21.044,37.836 21.018,37.823 C21.005,37.770 20.991,37.717 20.978,37.665 C20.952,37.651 20.925,37.638 20.899,37.625 C20.873,37.546 20.846,37.466 20.820,37.387 C20.806,37.387 20.793,37.387 20.780,37.387 C20.780,37.360 20.780,37.334 20.780,37.308 C20.767,37.308 20.754,37.308 20.740,37.308 C20.740,37.281 20.740,37.255 20.740,37.228 C20.727,37.228 20.714,37.228 20.701,37.228 C20.674,37.149 20.648,37.070 20.622,36.990 C20.608,36.990 20.595,36.990 20.582,36.990 C20.582,36.951 20.582,36.911 20.582,36.871 C20.569,36.871 20.555,36.871 20.542,36.871 C20.529,36.818 20.516,36.765 20.503,36.713 C20.489,36.713 20.476,36.713 20.463,36.713 C20.450,36.633 20.437,36.554 20.423,36.475 C20.410,36.475 20.397,36.475 20.384,36.475 C20.384,36.448 20.384,36.422 20.384,36.395 C20.371,36.395 20.357,36.395 20.344,36.395 C20.344,36.356 20.344,36.316 20.344,36.276 C20.331,36.276 20.318,36.276 20.305,36.276 C20.305,36.237 20.305,36.197 20.305,36.157 C20.291,36.157 20.278,36.157 20.265,36.157 C20.252,36.065 20.238,35.972 20.225,35.880 C20.212,35.880 20.199,35.880 20.186,35.880 C20.172,35.774 20.159,35.668 20.146,35.562 C19.942,34.950 19.773,33.497 19.988,32.746 C20.001,32.574 20.014,32.402 20.027,32.231 C20.040,32.231 20.054,32.231 20.067,32.231 C20.067,32.164 20.067,32.098 20.067,32.032 C20.080,32.032 20.093,32.032 20.106,32.032 C20.106,31.979 20.106,31.927 20.106,31.874 C20.120,31.874 20.133,31.874 20.146,31.874 C20.146,31.821 20.146,31.768 20.146,31.715 C20.159,31.715 20.172,31.715 20.186,31.715 C20.186,31.662 20.186,31.609 20.186,31.556 C20.199,31.556 20.212,31.556 20.225,31.556 C20.225,31.517 20.225,31.477 20.225,31.437 C20.238,31.437 20.252,31.437 20.265,31.437 C20.265,31.398 20.265,31.358 20.265,31.318 C20.278,31.318 20.291,31.318 20.305,31.318 C20.305,31.265 20.305,31.213 20.305,31.160 C20.318,31.160 20.331,31.160 20.344,31.160 C20.344,31.133 20.344,31.107 20.344,31.080 C20.357,31.080 20.371,31.080 20.384,31.080 C20.397,31.001 20.410,30.922 20.423,30.842 C20.437,30.842 20.450,30.842 20.463,30.842 C20.476,30.776 20.489,30.710 20.503,30.644 C20.516,30.644 20.529,30.644 20.542,30.644 C20.542,30.618 20.542,30.591 20.542,30.565 C20.555,30.565 20.569,30.565 20.582,30.565 C20.582,30.525 20.582,30.485 20.582,30.446 C20.595,30.446 20.608,30.446 20.622,30.446 C20.648,30.366 20.674,30.287 20.701,30.208 C20.714,30.208 20.727,30.208 20.740,30.208 C20.740,30.181 20.740,30.155 20.740,30.128 C20.754,30.128 20.767,30.128 20.780,30.128 C20.806,30.049 20.833,29.970 20.859,29.890 C20.886,29.877 20.912,29.864 20.939,29.851 C20.965,29.771 20.991,29.692 21.018,29.613 C21.031,29.613 21.044,29.613 21.057,29.613 C21.071,29.573 21.084,29.533 21.097,29.494 C21.123,29.481 21.150,29.467 21.176,29.454 C21.190,29.401 21.203,29.348 21.216,29.295 C21.256,29.269 21.295,29.243 21.335,29.216 C21.335,29.190 21.335,29.163 21.335,29.137 C21.361,29.124 21.388,29.110 21.414,29.097 C21.414,29.071 21.414,29.044 21.414,29.018 C21.440,29.005 21.467,28.991 21.493,28.978 C21.507,28.939 21.520,28.899 21.533,28.859 C21.586,28.820 21.639,28.780 21.691,28.740 C21.691,28.714 21.691,28.687 21.691,28.661 C21.757,28.608 21.824,28.555 21.890,28.502 C21.890,28.476 21.890,28.449 21.890,28.423 C22.008,28.317 22.127,28.211 22.246,28.106 C22.352,27.987 22.458,27.868 22.563,27.749 C22.590,27.749 22.616,27.749 22.642,27.749 C22.708,27.669 22.775,27.590 22.841,27.511 C22.867,27.511 22.893,27.511 22.920,27.511 C22.946,27.471 22.973,27.431 22.999,27.392 C23.026,27.392 23.052,27.392 23.078,27.392 C23.105,27.352 23.131,27.312 23.158,27.273 C23.184,27.273 23.210,27.273 23.237,27.273 C23.263,27.233 23.290,27.193 23.316,27.154 C23.343,27.154 23.369,27.154 23.395,27.154 C23.409,27.127 23.422,27.101 23.435,27.074 C23.475,27.061 23.514,27.048 23.554,27.035 C23.554,27.021 23.554,27.008 23.554,26.995 C23.607,26.982 23.660,26.969 23.712,26.955 C23.726,26.929 23.739,26.902 23.752,26.876 C23.805,26.863 23.858,26.850 23.910,26.836 C23.924,26.810 23.937,26.783 23.950,26.757 C23.977,26.757 24.003,26.757 24.029,26.757 C24.029,26.744 24.029,26.731 24.029,26.717 C24.056,26.717 24.082,26.717 24.109,26.717 C24.109,26.704 24.109,26.691 24.109,26.678 C24.135,26.678 24.161,26.678 24.188,26.678 C24.188,26.664 24.188,26.651 24.188,26.638 C24.214,26.638 24.241,26.638 24.267,26.638 C24.267,26.625 24.267,26.612 24.267,26.598 C24.294,26.598 24.320,26.598 24.346,26.598 C24.346,26.585 24.346,26.572 24.346,26.559 C24.373,26.559 24.399,26.559 24.426,26.559 C24.426,26.545 24.426,26.532 24.426,26.519 C24.505,26.493 24.584,26.466 24.663,26.440 C24.663,26.426 24.663,26.413 24.663,26.400 C24.703,26.400 24.743,26.400 24.782,26.400 C24.782,26.387 24.782,26.374 24.782,26.360 C24.809,26.360 24.835,26.360 24.862,26.360 C24.862,26.347 24.862,26.334 24.862,26.321 C24.928,26.307 24.994,26.294 25.060,26.281 C25.060,26.268 25.060,26.255 25.060,26.241 C25.482,26.122 25.905,26.003 26.328,25.884 C26.605,25.858 26.882,25.831 27.160,25.805 C27.160,25.792 27.160,25.779 27.160,25.765 Z"/>
</svg>
