<svg 
 xmlns="http://www.w3.org/2000/svg"
 xmlns:xlink="http://www.w3.org/1999/xlink"
 width="29px" height="30px">
<path fill-rule="evenodd"  fill="rgb(255, 255, 255)"
 d="M20.007,28.964 C20.007,25.228 20.007,21.490 20.007,17.754 C21.259,17.754 22.511,17.754 23.763,17.754 C23.956,16.308 24.148,14.861 24.341,13.415 C22.897,13.415 21.452,13.415 20.007,13.415 C19.992,11.866 19.746,9.397 20.657,8.787 C21.354,8.320 23.324,8.486 24.486,8.498 C24.486,7.196 24.486,5.894 24.486,4.592 C23.625,4.510 22.744,4.460 21.741,4.448 C21.500,4.424 21.259,4.399 21.018,4.375 C21.018,4.399 21.018,4.424 21.018,4.448 C20.705,4.448 20.392,4.448 20.079,4.448 C19.670,4.544 19.261,4.640 18.852,4.737 C18.852,4.761 18.852,4.785 18.852,4.809 C18.731,4.833 18.611,4.857 18.490,4.882 C18.490,4.906 18.490,4.930 18.490,4.954 C18.394,4.978 18.298,5.002 18.201,5.026 C18.201,5.050 18.201,5.074 18.201,5.099 C18.105,5.123 18.009,5.147 17.912,5.171 C17.888,5.219 17.864,5.267 17.840,5.315 C17.792,5.315 17.744,5.315 17.696,5.315 C17.648,5.388 17.599,5.460 17.551,5.532 C16.561,6.236 16.093,7.089 15.673,8.353 C15.649,8.618 15.625,8.883 15.601,9.148 C15.493,9.526 15.529,10.173 15.529,10.667 C15.529,11.583 15.529,12.499 15.529,13.415 C14.277,13.415 13.025,13.415 11.773,13.415 C11.773,14.861 11.773,16.308 11.773,17.754 C13.025,17.754 14.277,17.754 15.529,17.754 C15.529,21.490 15.529,25.228 15.529,28.964 C11.797,28.964 8.065,28.964 4.333,28.964 C2.743,28.964 0.917,29.239 0.288,28.241 C0.008,27.796 0.071,27.012 0.071,26.288 C0.071,24.914 0.071,23.540 0.071,22.166 C0.071,16.911 0.071,11.655 0.071,6.400 C0.071,4.689 0.071,2.977 0.071,1.266 C0.095,1.266 0.120,1.266 0.144,1.266 C0.144,1.193 0.144,1.121 0.144,1.049 C0.288,0.832 0.433,0.615 0.577,0.398 C0.625,0.398 0.673,0.398 0.721,0.398 C0.746,0.350 0.770,0.301 0.794,0.253 C0.890,0.229 0.986,0.205 1.083,0.181 C1.083,0.157 1.083,0.133 1.083,0.108 C1.525,-0.084 2.389,0.036 2.961,0.036 C4.405,0.036 5.850,0.036 7.294,0.036 C12.350,0.036 17.407,0.036 22.463,0.036 C24.221,0.036 25.978,0.036 27.736,0.036 C27.736,0.060 27.736,0.084 27.736,0.108 C27.808,0.108 27.880,0.108 27.953,0.108 C28.169,0.253 28.386,0.398 28.603,0.542 C28.603,0.591 28.603,0.639 28.603,0.687 C28.651,0.711 28.699,0.735 28.747,0.759 C28.771,0.856 28.795,0.952 28.819,1.049 C28.843,1.049 28.868,1.049 28.892,1.049 C29.083,1.492 28.964,2.357 28.964,2.929 C28.964,4.351 28.964,5.774 28.964,7.196 C28.964,12.185 28.964,17.176 28.964,22.166 C28.964,23.612 28.964,25.059 28.964,26.505 C28.964,27.178 29.007,27.829 28.747,28.241 C28.699,28.265 28.651,28.289 28.603,28.313 C28.603,28.361 28.603,28.409 28.603,28.458 C28.555,28.482 28.506,28.506 28.458,28.530 C28.458,28.554 28.458,28.578 28.458,28.602 C27.836,29.058 26.859,28.964 25.786,28.964 C23.860,28.964 21.933,28.964 20.007,28.964 Z"/>
</svg>