<svg 
 xmlns="http://www.w3.org/2000/svg"
 xmlns:xlink="http://www.w3.org/1999/xlink"
 width="29px" height="29px">
<path fill-rule="evenodd"  fill="rgb(255, 255, 255)"
 d="M2.902,0.000 C8.701,0.000 14.502,0.000 20.301,0.000 C22.234,0.000 24.167,0.000 26.100,0.000 C26.100,0.024 26.100,0.048 26.100,0.073 C26.197,0.073 26.294,0.073 26.390,0.073 C26.390,0.097 26.390,0.121 26.390,0.145 C26.487,0.145 26.584,0.145 26.680,0.145 C26.680,0.169 26.680,0.193 26.680,0.218 C26.753,0.218 26.825,0.218 26.898,0.218 C26.898,0.242 26.898,0.266 26.898,0.290 C26.994,0.314 27.091,0.338 27.188,0.363 C27.188,0.387 27.188,0.411 27.188,0.435 C27.236,0.435 27.284,0.435 27.333,0.435 C27.357,0.483 27.381,0.532 27.405,0.580 C27.453,0.580 27.502,0.580 27.550,0.580 C27.598,0.652 27.647,0.725 27.695,0.797 C27.743,0.797 27.792,0.797 27.840,0.797 C27.864,0.846 27.888,0.894 27.913,0.943 C28.009,1.015 28.106,1.088 28.203,1.160 C28.203,1.208 28.203,1.257 28.203,1.305 C28.275,1.353 28.348,1.402 28.420,1.450 C28.420,1.498 28.420,1.547 28.420,1.595 C28.468,1.619 28.517,1.643 28.565,1.668 C28.565,1.716 28.565,1.764 28.565,1.813 C28.589,1.813 28.613,1.813 28.638,1.813 C28.662,1.909 28.686,2.006 28.710,2.103 C28.734,2.103 28.758,2.103 28.783,2.103 C28.807,2.247 28.831,2.393 28.855,2.537 C28.879,2.537 28.903,2.537 28.928,2.537 C28.952,3.021 28.976,3.504 29.000,3.987 C29.000,4.906 29.000,5.824 29.000,6.743 C29.000,11.793 29.000,16.845 29.000,21.895 C29.000,22.910 29.000,23.925 29.000,24.940 C28.976,25.447 28.952,25.955 28.928,26.463 C28.903,26.463 28.879,26.463 28.855,26.463 C28.831,26.607 28.807,26.753 28.783,26.897 C28.758,26.897 28.734,26.897 28.710,26.897 C28.686,26.994 28.662,27.091 28.638,27.187 C28.613,27.187 28.589,27.187 28.565,27.187 C28.565,27.236 28.565,27.284 28.565,27.332 C28.517,27.357 28.468,27.381 28.420,27.405 C28.420,27.453 28.420,27.502 28.420,27.550 C28.348,27.598 28.275,27.647 28.203,27.695 C28.203,27.743 28.203,27.792 28.203,27.840 C28.154,27.864 28.106,27.888 28.058,27.913 C27.985,28.009 27.913,28.106 27.840,28.203 C27.792,28.203 27.743,28.203 27.695,28.203 C27.647,28.275 27.598,28.348 27.550,28.420 C27.502,28.420 27.453,28.420 27.405,28.420 C27.381,28.468 27.357,28.517 27.333,28.565 C27.284,28.565 27.236,28.565 27.188,28.565 C27.188,28.589 27.188,28.613 27.188,28.637 C27.091,28.662 26.994,28.686 26.898,28.710 C26.898,28.734 26.898,28.758 26.898,28.782 C26.825,28.782 26.753,28.782 26.680,28.782 C26.680,28.807 26.680,28.831 26.680,28.855 C26.584,28.855 26.487,28.855 26.390,28.855 C26.390,28.879 26.390,28.903 26.390,28.927 C26.294,28.927 26.197,28.927 26.100,28.927 C26.100,28.952 26.100,28.976 26.100,29.000 C24.530,29.000 22.959,29.000 21.388,29.000 C16.676,29.000 11.963,29.000 7.252,29.000 C5.802,29.000 4.352,29.000 2.902,29.000 C2.902,28.976 2.902,28.952 2.902,28.927 C2.805,28.927 2.709,28.927 2.612,28.927 C2.612,28.903 2.612,28.879 2.612,28.855 C2.515,28.855 2.419,28.855 2.322,28.855 C2.322,28.831 2.322,28.807 2.322,28.782 C2.250,28.782 2.177,28.782 2.105,28.782 C2.105,28.758 2.105,28.734 2.105,28.710 C2.008,28.686 1.911,28.662 1.815,28.637 C1.815,28.613 1.815,28.589 1.815,28.565 C1.766,28.565 1.718,28.565 1.670,28.565 C1.645,28.517 1.621,28.468 1.597,28.420 C1.549,28.420 1.500,28.420 1.452,28.420 C1.404,28.348 1.355,28.275 1.307,28.203 C1.259,28.203 1.210,28.203 1.162,28.203 C1.138,28.154 1.114,28.106 1.090,28.057 C0.993,27.985 0.896,27.912 0.800,27.840 C0.800,27.792 0.800,27.743 0.800,27.695 C0.727,27.647 0.655,27.598 0.582,27.550 C0.582,27.502 0.582,27.453 0.582,27.405 C0.534,27.381 0.486,27.357 0.437,27.332 C0.437,27.284 0.437,27.236 0.437,27.187 C0.413,27.187 0.389,27.187 0.365,27.187 C0.341,27.091 0.316,26.994 0.292,26.897 C0.268,26.897 0.244,26.897 0.220,26.897 C0.196,26.753 0.171,26.607 0.147,26.463 C0.123,26.463 0.099,26.463 0.075,26.463 C0.075,26.342 0.075,26.221 0.075,26.100 C0.051,26.100 0.026,26.100 0.002,26.100 C0.002,24.602 0.002,23.103 0.002,21.605 C0.002,17.159 0.002,12.711 0.002,8.265 C0.002,6.960 0.002,5.655 0.002,4.350 C0.002,3.512 -0.039,2.692 0.220,2.103 C0.244,2.103 0.268,2.103 0.292,2.103 C0.341,1.958 0.389,1.812 0.437,1.668 C0.486,1.643 0.534,1.619 0.582,1.595 C0.582,1.547 0.582,1.498 0.582,1.450 C0.655,1.402 0.727,1.353 0.800,1.305 C0.800,1.257 0.800,1.208 0.800,1.160 C0.848,1.136 0.896,1.112 0.945,1.087 C1.017,0.991 1.090,0.894 1.162,0.797 C1.210,0.797 1.259,0.797 1.307,0.797 C1.355,0.725 1.404,0.652 1.452,0.580 C1.500,0.580 1.549,0.580 1.597,0.580 C1.621,0.532 1.645,0.483 1.670,0.435 C1.718,0.435 1.766,0.435 1.815,0.435 C1.815,0.411 1.815,0.387 1.815,0.363 C2.177,0.242 2.540,0.121 2.902,0.000 ZM21.533,3.625 C21.364,3.722 21.195,3.818 21.026,3.915 C21.026,3.963 21.026,4.012 21.026,4.060 C20.845,4.217 20.881,4.517 20.881,4.858 C20.881,5.510 20.881,6.163 20.881,6.815 C20.881,7.070 20.829,7.474 20.953,7.613 C21.027,7.903 21.229,7.930 21.388,8.120 C22.611,8.129 24.091,8.190 25.085,7.975 C25.182,7.806 25.279,7.637 25.375,7.467 C25.375,7.153 25.375,6.839 25.375,6.525 C25.375,5.776 25.375,5.027 25.375,4.277 C25.351,4.277 25.327,4.277 25.303,4.277 C25.279,4.181 25.254,4.084 25.230,3.987 C25.061,3.867 24.892,3.746 24.723,3.625 C23.660,3.625 22.596,3.625 21.533,3.625 ZM13.776,8.990 C13.612,9.131 13.281,9.053 13.051,9.135 C13.051,9.159 13.051,9.183 13.051,9.208 C12.979,9.208 12.906,9.208 12.834,9.208 C12.834,9.232 12.834,9.256 12.834,9.280 C12.761,9.280 12.689,9.280 12.616,9.280 C12.616,9.304 12.616,9.328 12.616,9.353 C12.544,9.353 12.471,9.353 12.399,9.353 C12.399,9.377 12.399,9.401 12.399,9.425 C12.350,9.425 12.302,9.425 12.254,9.425 C12.254,9.449 12.254,9.473 12.254,9.498 C12.205,9.498 12.157,9.498 12.109,9.498 C12.109,9.522 12.109,9.546 12.109,9.570 C12.060,9.570 12.012,9.570 11.964,9.570 C11.964,9.594 11.964,9.618 11.964,9.643 C11.916,9.643 11.867,9.643 11.819,9.643 C11.819,9.667 11.819,9.691 11.819,9.715 C11.771,9.715 11.722,9.715 11.674,9.715 C11.650,9.763 11.626,9.812 11.601,9.860 C11.553,9.860 11.505,9.860 11.456,9.860 C11.432,9.908 11.408,9.957 11.384,10.005 C11.336,10.005 11.287,10.005 11.239,10.005 C11.191,10.077 11.142,10.150 11.094,10.223 C11.046,10.223 10.997,10.223 10.949,10.223 C10.804,10.392 10.659,10.561 10.514,10.730 C10.417,10.802 10.321,10.875 10.224,10.948 C10.224,10.996 10.224,11.044 10.224,11.093 C10.127,11.165 10.031,11.238 9.934,11.310 C9.934,11.358 9.934,11.407 9.934,11.455 C9.886,11.479 9.837,11.503 9.789,11.527 C9.789,11.576 9.789,11.624 9.789,11.673 C9.765,11.673 9.741,11.673 9.717,11.673 C9.717,11.721 9.717,11.769 9.717,11.817 C9.692,11.817 9.668,11.817 9.644,11.817 C9.644,11.866 9.644,11.914 9.644,11.962 C9.620,11.962 9.596,11.962 9.572,11.962 C9.572,12.011 9.572,12.059 9.572,12.107 C9.547,12.107 9.523,12.107 9.499,12.107 C9.499,12.156 9.499,12.204 9.499,12.253 C9.475,12.253 9.451,12.253 9.427,12.253 C9.402,12.349 9.378,12.446 9.354,12.543 C9.330,12.543 9.306,12.543 9.282,12.543 C9.282,12.615 9.282,12.688 9.282,12.760 C9.257,12.760 9.233,12.760 9.209,12.760 C9.185,12.929 9.161,13.098 9.137,13.267 C9.112,13.267 9.088,13.267 9.064,13.267 C9.064,13.412 9.064,13.558 9.064,13.702 C9.040,13.702 9.016,13.702 8.992,13.702 C8.855,14.187 9.037,15.429 9.137,15.733 C9.137,15.829 9.137,15.926 9.137,16.023 C9.161,16.023 9.185,16.023 9.209,16.023 C9.209,16.119 9.209,16.216 9.209,16.313 C9.233,16.313 9.257,16.313 9.282,16.313 C9.282,16.361 9.282,16.409 9.282,16.457 C9.306,16.457 9.330,16.457 9.354,16.457 C9.354,16.530 9.354,16.603 9.354,16.675 C9.378,16.675 9.402,16.675 9.427,16.675 C9.475,16.820 9.523,16.965 9.572,17.110 C9.596,17.110 9.620,17.110 9.644,17.110 C9.668,17.207 9.692,17.303 9.717,17.400 C9.765,17.424 9.813,17.448 9.861,17.473 C9.861,17.521 9.861,17.569 9.861,17.617 C9.910,17.642 9.958,17.666 10.006,17.690 C10.006,17.738 10.006,17.787 10.006,17.835 C10.079,17.883 10.151,17.932 10.224,17.980 C10.224,18.028 10.224,18.077 10.224,18.125 C10.321,18.197 10.417,18.270 10.514,18.342 C10.659,18.512 10.804,18.681 10.949,18.850 C10.997,18.850 11.046,18.850 11.094,18.850 C11.142,18.922 11.191,18.995 11.239,19.067 C11.287,19.067 11.336,19.067 11.384,19.067 C11.408,19.116 11.432,19.164 11.456,19.213 C11.505,19.213 11.553,19.213 11.601,19.213 C11.626,19.261 11.650,19.309 11.674,19.357 C11.722,19.357 11.771,19.357 11.819,19.357 C11.819,19.382 11.819,19.406 11.819,19.430 C11.867,19.430 11.916,19.430 11.964,19.430 C11.964,19.454 11.964,19.478 11.964,19.502 C12.012,19.502 12.060,19.502 12.109,19.502 C12.109,19.527 12.109,19.551 12.109,19.575 C12.157,19.575 12.205,19.575 12.254,19.575 C12.254,19.599 12.254,19.623 12.254,19.647 C12.302,19.647 12.350,19.647 12.399,19.647 C12.399,19.672 12.399,19.696 12.399,19.720 C12.471,19.720 12.544,19.720 12.616,19.720 C12.616,19.744 12.616,19.768 12.616,19.792 C13.209,20.026 13.903,20.084 14.719,20.083 C14.912,20.083 15.105,20.083 15.299,20.083 C15.299,20.058 15.299,20.034 15.299,20.010 C15.419,20.010 15.540,20.010 15.661,20.010 C15.661,19.986 15.661,19.962 15.661,19.937 C15.782,19.937 15.903,19.937 16.024,19.937 C16.024,19.913 16.024,19.889 16.024,19.865 C16.096,19.865 16.169,19.865 16.241,19.865 C16.241,19.841 16.241,19.817 16.241,19.792 C16.313,19.792 16.386,19.792 16.458,19.792 C16.458,19.768 16.458,19.744 16.458,19.720 C16.507,19.720 16.555,19.720 16.603,19.720 C16.603,19.696 16.603,19.672 16.603,19.647 C16.676,19.647 16.748,19.647 16.821,19.647 C16.821,19.623 16.821,19.599 16.821,19.575 C16.869,19.575 16.918,19.575 16.966,19.575 C16.966,19.551 16.966,19.527 16.966,19.502 C17.111,19.454 17.256,19.406 17.401,19.357 C17.425,19.309 17.449,19.261 17.473,19.213 C17.522,19.213 17.570,19.213 17.618,19.213 C17.643,19.164 17.667,19.116 17.691,19.067 C17.739,19.067 17.788,19.067 17.836,19.067 C17.884,18.995 17.933,18.922 17.981,18.850 C18.029,18.850 18.078,18.850 18.126,18.850 C18.271,18.681 18.416,18.512 18.561,18.342 C18.657,18.270 18.754,18.197 18.851,18.125 C18.851,18.077 18.851,18.028 18.851,17.980 C18.923,17.932 18.996,17.883 19.068,17.835 C19.068,17.787 19.068,17.738 19.068,17.690 C19.117,17.666 19.165,17.642 19.213,17.617 C19.213,17.569 19.213,17.521 19.213,17.473 C19.262,17.448 19.310,17.424 19.358,17.400 C19.358,17.352 19.358,17.303 19.358,17.255 C19.382,17.255 19.407,17.255 19.431,17.255 C19.431,17.207 19.431,17.158 19.431,17.110 C19.455,17.110 19.479,17.110 19.503,17.110 C19.503,17.062 19.503,17.013 19.503,16.965 C19.527,16.965 19.552,16.965 19.576,16.965 C19.576,16.917 19.576,16.868 19.576,16.820 C19.600,16.820 19.624,16.820 19.648,16.820 C19.648,16.772 19.648,16.723 19.648,16.675 C19.672,16.675 19.697,16.675 19.721,16.675 C19.842,16.240 19.962,15.805 20.083,15.370 C20.221,14.891 20.036,13.639 19.938,13.340 C19.938,13.243 19.938,13.147 19.938,13.050 C19.914,13.050 19.890,13.050 19.866,13.050 C19.866,12.978 19.866,12.905 19.866,12.833 C19.842,12.833 19.817,12.833 19.793,12.833 C19.769,12.688 19.745,12.542 19.721,12.398 C19.697,12.398 19.672,12.398 19.648,12.398 C19.624,12.301 19.600,12.204 19.576,12.107 C19.552,12.107 19.527,12.107 19.503,12.107 C19.455,11.963 19.407,11.817 19.358,11.673 C19.310,11.648 19.262,11.624 19.213,11.600 C19.213,11.552 19.213,11.503 19.213,11.455 C19.165,11.431 19.117,11.407 19.068,11.383 C19.068,11.334 19.068,11.286 19.068,11.237 C18.996,11.189 18.923,11.141 18.851,11.093 C18.851,11.044 18.851,10.996 18.851,10.948 C18.730,10.851 18.609,10.754 18.488,10.658 C18.368,10.513 18.247,10.367 18.126,10.223 C17.432,9.725 16.644,9.342 15.734,9.063 C15.589,9.063 15.444,9.063 15.299,9.063 C14.921,8.954 14.271,8.988 13.776,8.990 ZM2.757,11.817 C2.757,15.249 2.757,18.681 2.757,22.113 C2.757,22.982 2.757,23.853 2.757,24.723 C2.757,25.018 2.684,25.570 2.830,25.737 C2.903,26.028 3.106,26.055 3.265,26.245 C8.822,26.245 14.381,26.245 19.938,26.245 C21.364,26.245 22.790,26.245 24.215,26.245 C24.559,26.245 25.564,26.323 25.738,26.172 C26.028,26.099 26.055,25.896 26.245,25.737 C26.245,21.098 26.245,16.457 26.245,11.817 C25.061,11.817 23.877,11.817 22.693,11.817 C22.693,11.842 22.693,11.866 22.693,11.890 C22.945,12.054 22.934,12.309 23.055,12.615 C23.080,12.615 23.104,12.615 23.128,12.615 C23.128,12.687 23.128,12.760 23.128,12.833 C23.152,12.833 23.176,12.833 23.200,12.833 C23.200,12.953 23.200,13.074 23.200,13.195 C23.225,13.195 23.249,13.195 23.273,13.195 C23.351,13.458 23.441,15.106 23.345,15.443 C23.321,15.443 23.297,15.443 23.273,15.443 C23.249,15.757 23.225,16.071 23.200,16.385 C23.176,16.385 23.152,16.385 23.128,16.385 C23.128,16.482 23.128,16.578 23.128,16.675 C23.104,16.675 23.080,16.675 23.055,16.675 C23.055,16.772 23.055,16.868 23.055,16.965 C23.031,16.965 23.007,16.965 22.983,16.965 C22.983,17.037 22.983,17.110 22.983,17.183 C22.959,17.183 22.935,17.183 22.910,17.183 C22.910,17.255 22.910,17.328 22.910,17.400 C22.886,17.400 22.862,17.400 22.838,17.400 C22.838,17.472 22.838,17.545 22.838,17.617 C22.195,19.101 21.323,20.424 20.083,21.315 C20.011,21.412 19.938,21.508 19.866,21.605 C19.817,21.605 19.769,21.605 19.721,21.605 C19.697,21.653 19.672,21.702 19.648,21.750 C19.576,21.774 19.503,21.798 19.431,21.823 C19.431,21.847 19.431,21.871 19.431,21.895 C19.382,21.895 19.334,21.895 19.286,21.895 C19.262,21.943 19.237,21.992 19.213,22.040 C19.117,22.064 19.020,22.088 18.923,22.113 C18.899,22.161 18.875,22.209 18.851,22.257 C18.754,22.282 18.657,22.306 18.561,22.330 C18.561,22.354 18.561,22.378 18.561,22.402 C18.416,22.451 18.271,22.499 18.126,22.547 C18.126,22.572 18.126,22.596 18.126,22.620 C18.053,22.620 17.981,22.620 17.908,22.620 C17.908,22.644 17.908,22.668 17.908,22.692 C17.860,22.692 17.812,22.692 17.763,22.692 C17.763,22.717 17.763,22.741 17.763,22.765 C17.691,22.765 17.618,22.765 17.546,22.765 C17.546,22.789 17.546,22.813 17.546,22.837 C17.473,22.837 17.401,22.837 17.328,22.837 C17.328,22.862 17.328,22.886 17.328,22.910 C17.256,22.910 17.183,22.910 17.111,22.910 C17.111,22.934 17.111,22.958 17.111,22.982 C17.038,22.982 16.966,22.982 16.893,22.982 C16.893,23.007 16.893,23.031 16.893,23.055 C16.797,23.055 16.700,23.055 16.603,23.055 C15.470,23.433 13.604,23.437 12.471,23.055 C12.375,23.055 12.278,23.055 12.181,23.055 C12.181,23.031 12.181,23.007 12.181,22.982 C12.109,22.982 12.036,22.982 11.964,22.982 C11.964,22.958 11.964,22.934 11.964,22.910 C11.891,22.910 11.819,22.910 11.746,22.910 C11.746,22.886 11.746,22.862 11.746,22.837 C11.674,22.837 11.601,22.837 11.529,22.837 C11.529,22.813 11.529,22.789 11.529,22.765 C11.456,22.765 11.384,22.765 11.311,22.765 C11.311,22.741 11.311,22.717 11.311,22.692 C11.263,22.692 11.215,22.692 11.166,22.692 C11.166,22.668 11.166,22.644 11.166,22.620 C11.094,22.620 11.021,22.620 10.949,22.620 C10.949,22.596 10.949,22.572 10.949,22.547 C10.804,22.499 10.659,22.451 10.514,22.402 C10.514,22.378 10.514,22.354 10.514,22.330 C10.466,22.330 10.417,22.330 10.369,22.330 C10.369,22.306 10.369,22.282 10.369,22.257 C10.272,22.233 10.176,22.209 10.079,22.185 C10.055,22.137 10.031,22.088 10.006,22.040 C9.958,22.040 9.910,22.040 9.861,22.040 C9.837,21.992 9.813,21.943 9.789,21.895 C9.741,21.895 9.692,21.895 9.644,21.895 C9.620,21.847 9.596,21.798 9.572,21.750 C9.523,21.750 9.475,21.750 9.427,21.750 C9.402,21.702 9.378,21.653 9.354,21.605 C9.306,21.605 9.257,21.605 9.209,21.605 C9.137,21.508 9.064,21.412 8.992,21.315 C8.943,21.315 8.895,21.315 8.847,21.315 C8.677,21.122 8.508,20.928 8.339,20.735 C8.122,20.542 7.904,20.348 7.687,20.155 C7.687,20.107 7.687,20.058 7.687,20.010 C7.614,19.962 7.542,19.913 7.469,19.865 C7.469,19.817 7.469,19.768 7.469,19.720 C7.397,19.672 7.324,19.623 7.252,19.575 C7.252,19.527 7.252,19.478 7.252,19.430 C7.203,19.406 7.155,19.382 7.107,19.357 C7.107,19.309 7.107,19.261 7.107,19.213 C7.058,19.188 7.010,19.164 6.962,19.140 C6.962,19.092 6.962,19.043 6.962,18.995 C6.938,18.995 6.913,18.995 6.889,18.995 C6.889,18.947 6.889,18.898 6.889,18.850 C6.865,18.850 6.841,18.850 6.817,18.850 C6.817,18.802 6.817,18.753 6.817,18.705 C6.793,18.705 6.768,18.705 6.744,18.705 C6.744,18.657 6.744,18.608 6.744,18.560 C6.696,18.536 6.648,18.512 6.599,18.488 C6.599,18.415 6.599,18.342 6.599,18.270 C6.575,18.270 6.551,18.270 6.527,18.270 C6.527,18.222 6.527,18.173 6.527,18.125 C6.503,18.125 6.478,18.125 6.454,18.125 C6.430,18.028 6.406,17.932 6.382,17.835 C6.358,17.835 6.333,17.835 6.309,17.835 C6.285,17.690 6.261,17.545 6.237,17.400 C5.926,16.607 5.471,14.861 5.802,13.702 C5.802,13.533 5.802,13.364 5.802,13.195 C5.826,13.195 5.850,13.195 5.874,13.195 C5.923,12.905 5.971,12.615 6.019,12.325 C6.043,12.325 6.068,12.325 6.092,12.325 C6.182,12.138 6.232,11.988 6.309,11.817 C5.125,11.817 3.941,11.817 2.757,11.817 Z"/>
</svg>