<svg 
 xmlns="http://www.w3.org/2000/svg"
 xmlns:xlink="http://www.w3.org/1999/xlink"
 width="31px" height="30px">
<path fill-rule="evenodd"  fill="rgb(255, 255, 255)"
 d="M3.358,0.011 C3.578,0.008 3.976,-0.022 4.154,0.029 C4.258,0.035 4.362,0.041 4.465,0.047 C4.547,0.071 4.663,0.092 4.742,0.117 C4.771,0.117 4.800,0.117 4.829,0.117 C4.957,0.158 5.106,0.208 5.227,0.257 C5.261,0.263 5.296,0.268 5.330,0.274 C5.330,0.280 5.330,0.286 5.330,0.292 C5.342,0.292 5.353,0.292 5.365,0.292 C5.365,0.298 5.365,0.303 5.365,0.309 C5.382,0.309 5.400,0.309 5.417,0.309 C6.122,0.628 6.633,1.093 7.026,1.728 C7.026,1.740 7.026,1.751 7.026,1.763 C7.031,1.763 7.037,1.763 7.043,1.763 C7.043,1.775 7.043,1.787 7.043,1.798 C7.049,1.798 7.054,1.798 7.060,1.798 C7.060,1.810 7.060,1.822 7.060,1.833 C7.066,1.833 7.072,1.833 7.077,1.833 C7.077,1.845 7.077,1.857 7.077,1.868 C7.083,1.868 7.089,1.868 7.095,1.868 C7.095,1.880 7.095,1.892 7.095,1.903 C7.100,1.903 7.106,1.903 7.112,1.903 C7.112,1.915 7.112,1.927 7.112,1.938 C7.118,1.938 7.124,1.938 7.129,1.938 C7.141,1.973 7.152,2.008 7.164,2.043 C7.170,2.043 7.175,2.043 7.181,2.043 C7.181,2.061 7.181,2.078 7.181,2.096 C7.187,2.096 7.193,2.096 7.199,2.096 C7.204,2.119 7.210,2.143 7.216,2.166 C7.222,2.166 7.227,2.166 7.233,2.166 C7.239,2.201 7.245,2.236 7.250,2.271 C7.256,2.271 7.262,2.271 7.268,2.271 C7.268,2.289 7.268,2.306 7.268,2.324 C7.273,2.324 7.279,2.324 7.285,2.324 C7.285,2.341 7.285,2.359 7.285,2.376 C7.291,2.376 7.297,2.376 7.302,2.376 C7.302,2.394 7.302,2.411 7.302,2.429 C7.308,2.429 7.314,2.429 7.320,2.429 C7.320,2.446 7.320,2.464 7.320,2.481 C7.325,2.481 7.331,2.481 7.337,2.481 C7.337,2.499 7.337,2.516 7.337,2.534 C7.343,2.534 7.348,2.534 7.354,2.534 C7.354,2.557 7.354,2.581 7.354,2.604 C7.360,2.604 7.366,2.604 7.371,2.604 C7.371,2.627 7.371,2.651 7.371,2.674 C7.377,2.674 7.383,2.674 7.389,2.674 C7.389,2.703 7.389,2.732 7.389,2.762 C7.395,2.762 7.400,2.762 7.406,2.762 C7.406,2.791 7.406,2.820 7.406,2.849 C7.412,2.849 7.418,2.849 7.423,2.849 C7.435,2.972 7.446,3.094 7.458,3.217 C7.464,3.217 7.469,3.217 7.475,3.217 C7.475,3.275 7.475,3.334 7.475,3.392 C7.475,3.538 7.490,3.731 7.458,3.848 C7.446,3.970 7.435,4.093 7.423,4.215 C7.418,4.215 7.412,4.215 7.406,4.215 C7.406,4.245 7.406,4.274 7.406,4.303 C7.400,4.303 7.395,4.303 7.389,4.303 C7.389,4.326 7.389,4.350 7.389,4.373 C7.383,4.373 7.377,4.373 7.371,4.373 C7.371,4.396 7.371,4.420 7.371,4.443 C7.366,4.443 7.360,4.443 7.354,4.443 C7.354,4.467 7.354,4.490 7.354,4.513 C7.348,4.513 7.343,4.513 7.337,4.513 C7.337,4.531 7.337,4.548 7.337,4.566 C7.331,4.566 7.325,4.566 7.320,4.566 C7.320,4.583 7.320,4.601 7.320,4.618 C7.314,4.618 7.308,4.618 7.302,4.618 C7.302,4.636 7.302,4.653 7.302,4.671 C7.297,4.671 7.291,4.671 7.285,4.671 C7.285,4.688 7.285,4.706 7.285,4.723 C7.279,4.723 7.273,4.723 7.268,4.723 C7.268,4.741 7.268,4.759 7.268,4.776 C7.262,4.776 7.256,4.776 7.250,4.776 C7.250,4.788 7.250,4.799 7.250,4.811 C7.245,4.811 7.239,4.811 7.233,4.811 C7.233,4.829 7.233,4.846 7.233,4.864 C7.227,4.864 7.222,4.864 7.216,4.864 C7.216,4.875 7.216,4.887 7.216,4.899 C7.210,4.899 7.204,4.899 7.199,4.899 C7.199,4.916 7.199,4.934 7.199,4.951 C7.193,4.951 7.187,4.951 7.181,4.951 C7.170,4.986 7.158,5.021 7.147,5.056 C7.141,5.056 7.135,5.056 7.129,5.056 C7.129,5.068 7.129,5.080 7.129,5.091 C7.124,5.091 7.118,5.091 7.112,5.091 C7.112,5.103 7.112,5.115 7.112,5.126 C7.106,5.126 7.100,5.126 7.095,5.126 C7.095,5.138 7.095,5.150 7.095,5.161 C7.089,5.161 7.083,5.161 7.077,5.161 C7.077,5.173 7.077,5.185 7.077,5.196 C7.072,5.196 7.066,5.196 7.060,5.196 C7.060,5.208 7.060,5.220 7.060,5.231 C7.049,5.237 7.037,5.243 7.026,5.249 C7.020,5.272 7.014,5.296 7.008,5.319 C6.997,5.325 6.985,5.331 6.974,5.337 C6.968,5.360 6.962,5.383 6.956,5.407 C6.951,5.407 6.945,5.407 6.939,5.407 C6.933,5.424 6.928,5.442 6.922,5.459 C6.910,5.465 6.899,5.471 6.887,5.477 C6.887,5.488 6.887,5.500 6.887,5.512 C6.870,5.523 6.853,5.535 6.835,5.547 C6.835,5.558 6.835,5.570 6.835,5.582 C6.824,5.588 6.812,5.593 6.801,5.599 C6.795,5.617 6.789,5.634 6.783,5.652 C6.760,5.669 6.737,5.687 6.714,5.704 C6.714,5.716 6.714,5.728 6.714,5.739 C6.639,5.809 6.564,5.880 6.489,5.950 C6.437,6.008 6.386,6.066 6.334,6.125 C6.322,6.125 6.311,6.125 6.299,6.125 C6.276,6.154 6.253,6.183 6.230,6.212 C6.218,6.212 6.207,6.212 6.195,6.212 C6.184,6.230 6.172,6.247 6.161,6.265 C6.149,6.265 6.138,6.265 6.126,6.265 C6.120,6.277 6.115,6.288 6.109,6.300 C6.097,6.300 6.086,6.300 6.074,6.300 C6.063,6.317 6.051,6.335 6.040,6.353 C6.028,6.353 6.016,6.353 6.005,6.353 C5.999,6.364 5.993,6.376 5.988,6.388 C5.965,6.393 5.942,6.399 5.918,6.405 C5.913,6.417 5.907,6.428 5.901,6.440 C5.878,6.446 5.855,6.452 5.832,6.458 C5.826,6.469 5.820,6.481 5.815,6.493 C5.803,6.493 5.792,6.493 5.780,6.493 C5.780,6.498 5.780,6.504 5.780,6.510 C5.769,6.510 5.757,6.510 5.746,6.510 C5.746,6.516 5.746,6.522 5.746,6.528 C5.734,6.528 5.722,6.528 5.711,6.528 C5.711,6.534 5.711,6.539 5.711,6.545 C5.699,6.545 5.688,6.545 5.676,6.545 C5.676,6.551 5.676,6.557 5.676,6.563 C5.665,6.563 5.653,6.563 5.642,6.563 C5.642,6.569 5.642,6.574 5.642,6.580 C5.630,6.580 5.619,6.580 5.607,6.580 C5.607,6.586 5.607,6.592 5.607,6.598 C5.596,6.598 5.584,6.598 5.573,6.598 C5.573,6.604 5.573,6.609 5.573,6.615 C5.538,6.627 5.503,6.639 5.469,6.650 C5.469,6.656 5.469,6.662 5.469,6.668 C5.451,6.668 5.434,6.668 5.417,6.668 C5.417,6.674 5.417,6.679 5.417,6.685 C5.394,6.691 5.371,6.697 5.348,6.703 C5.348,6.709 5.348,6.715 5.348,6.720 C5.296,6.732 5.244,6.744 5.192,6.755 C5.192,6.761 5.192,6.767 5.192,6.773 C5.175,6.773 5.157,6.773 5.140,6.773 C5.140,6.779 5.140,6.785 5.140,6.790 C5.123,6.790 5.105,6.790 5.088,6.790 C5.088,6.796 5.088,6.802 5.088,6.808 C5.071,6.808 5.054,6.808 5.036,6.808 C5.036,6.814 5.036,6.820 5.036,6.825 C5.019,6.825 5.002,6.825 4.984,6.825 C4.984,6.831 4.984,6.837 4.984,6.843 C4.961,6.843 4.938,6.843 4.915,6.843 C4.915,6.849 4.915,6.855 4.915,6.861 C4.892,6.861 4.869,6.861 4.846,6.861 C4.846,6.866 4.846,6.872 4.846,6.878 C4.823,6.878 4.800,6.878 4.777,6.878 C4.777,6.884 4.777,6.890 4.777,6.896 C4.754,6.896 4.731,6.896 4.708,6.896 C4.708,6.901 4.708,6.907 4.708,6.913 C4.679,6.913 4.650,6.913 4.621,6.913 C4.621,6.919 4.621,6.925 4.621,6.931 C4.592,6.931 4.563,6.931 4.535,6.931 C4.535,6.936 4.535,6.942 4.535,6.948 C4.396,6.960 4.258,6.971 4.120,6.983 C3.999,7.017 3.802,7.001 3.652,7.001 C3.245,7.001 2.884,6.965 2.580,6.861 C2.557,6.861 2.534,6.861 2.511,6.861 C2.511,6.855 2.511,6.849 2.511,6.843 C2.494,6.843 2.476,6.843 2.459,6.843 C2.459,6.837 2.459,6.831 2.459,6.825 C2.442,6.825 2.424,6.825 2.407,6.825 C2.407,6.820 2.407,6.814 2.407,6.808 C2.384,6.808 2.361,6.808 2.338,6.808 C2.338,6.802 2.338,6.796 2.338,6.790 C2.321,6.790 2.303,6.790 2.286,6.790 C2.286,6.785 2.286,6.779 2.286,6.773 C2.274,6.773 2.263,6.773 2.251,6.773 C2.251,6.767 2.251,6.761 2.251,6.755 C2.217,6.750 2.182,6.744 2.148,6.738 C2.148,6.732 2.148,6.726 2.148,6.720 C2.136,6.720 2.125,6.720 2.113,6.720 C2.113,6.715 2.113,6.709 2.113,6.703 C2.096,6.703 2.078,6.703 2.061,6.703 C2.061,6.697 2.061,6.691 2.061,6.685 C2.038,6.679 2.015,6.674 1.992,6.668 C1.992,6.662 1.992,6.656 1.992,6.650 C1.975,6.650 1.957,6.650 1.940,6.650 C1.940,6.644 1.940,6.639 1.940,6.633 C1.905,6.621 1.871,6.609 1.836,6.598 C1.836,6.592 1.836,6.586 1.836,6.580 C1.825,6.580 1.813,6.580 1.802,6.580 C1.802,6.574 1.802,6.569 1.802,6.563 C1.779,6.557 1.756,6.551 1.732,6.545 C1.727,6.534 1.721,6.522 1.715,6.510 C1.681,6.498 1.646,6.487 1.611,6.475 C1.611,6.469 1.611,6.463 1.611,6.458 C1.594,6.452 1.577,6.446 1.559,6.440 C1.554,6.428 1.548,6.417 1.542,6.405 C1.531,6.405 1.519,6.405 1.508,6.405 C1.502,6.393 1.496,6.382 1.490,6.370 C1.479,6.370 1.467,6.370 1.456,6.370 C1.456,6.364 1.456,6.358 1.456,6.353 C1.438,6.347 1.421,6.341 1.404,6.335 C1.398,6.323 1.392,6.312 1.387,6.300 C1.375,6.300 1.363,6.300 1.352,6.300 C1.340,6.282 1.329,6.265 1.317,6.247 C1.306,6.247 1.294,6.247 1.283,6.247 C1.271,6.230 1.260,6.212 1.248,6.195 C1.231,6.189 1.214,6.183 1.196,6.177 C1.167,6.142 1.139,6.107 1.110,6.072 C1.098,6.072 1.087,6.072 1.075,6.072 C1.029,6.020 0.983,5.967 0.937,5.915 C0.914,5.897 0.891,5.880 0.868,5.862 C0.868,5.850 0.868,5.839 0.868,5.827 C0.827,5.792 0.787,5.757 0.746,5.722 C0.746,5.710 0.746,5.699 0.746,5.687 C0.729,5.675 0.712,5.664 0.695,5.652 C0.695,5.640 0.695,5.628 0.695,5.617 C0.677,5.605 0.660,5.593 0.643,5.582 C0.643,5.570 0.643,5.558 0.643,5.547 C0.625,5.535 0.608,5.523 0.591,5.512 C0.591,5.500 0.591,5.488 0.591,5.477 C0.579,5.471 0.568,5.465 0.556,5.459 C0.556,5.447 0.556,5.436 0.556,5.424 C0.545,5.418 0.533,5.412 0.522,5.407 C0.516,5.383 0.510,5.360 0.504,5.337 C0.493,5.331 0.481,5.325 0.470,5.319 C0.464,5.296 0.458,5.272 0.452,5.249 C0.441,5.243 0.429,5.237 0.418,5.231 C0.406,5.196 0.395,5.161 0.383,5.126 C0.377,5.126 0.372,5.126 0.366,5.126 C0.366,5.115 0.366,5.103 0.366,5.091 C0.360,5.091 0.354,5.091 0.349,5.091 C0.337,5.056 0.326,5.021 0.314,4.986 C0.308,4.986 0.303,4.986 0.297,4.986 C0.291,4.957 0.285,4.928 0.279,4.899 C0.274,4.899 0.268,4.899 0.262,4.899 C0.262,4.887 0.262,4.875 0.262,4.864 C0.256,4.864 0.251,4.864 0.245,4.864 C0.239,4.829 0.233,4.794 0.228,4.759 C0.222,4.759 0.216,4.759 0.210,4.759 C0.210,4.747 0.210,4.735 0.210,4.723 C0.205,4.723 0.199,4.723 0.193,4.723 C0.187,4.688 0.181,4.653 0.176,4.618 C0.170,4.618 0.164,4.618 0.158,4.618 C0.158,4.595 0.158,4.572 0.158,4.548 C0.065,4.280 0.003,3.965 0.003,3.602 C0.003,3.467 -0.010,3.289 0.020,3.182 C0.026,3.089 0.032,2.995 0.037,2.902 C0.043,2.902 0.049,2.902 0.055,2.902 C0.066,2.814 0.078,2.727 0.089,2.639 C0.095,2.639 0.101,2.639 0.106,2.639 C0.106,2.616 0.106,2.592 0.106,2.569 C0.112,2.569 0.118,2.569 0.124,2.569 C0.130,2.528 0.135,2.487 0.141,2.446 C0.147,2.446 0.153,2.446 0.158,2.446 C0.158,2.429 0.158,2.411 0.158,2.394 C0.164,2.394 0.170,2.394 0.176,2.394 C0.176,2.376 0.176,2.359 0.176,2.341 C0.181,2.341 0.187,2.341 0.193,2.341 C0.199,2.306 0.205,2.271 0.210,2.236 C0.216,2.236 0.222,2.236 0.228,2.236 C0.228,2.224 0.228,2.213 0.228,2.201 C0.233,2.201 0.239,2.201 0.245,2.201 C0.245,2.184 0.245,2.166 0.245,2.149 C0.646,1.234 1.272,0.673 2.182,0.274 C2.217,0.268 2.251,0.263 2.286,0.257 C2.286,0.251 2.286,0.245 2.286,0.239 C2.303,0.239 2.321,0.239 2.338,0.239 C2.338,0.233 2.338,0.228 2.338,0.222 C2.355,0.222 2.372,0.222 2.390,0.222 C2.390,0.216 2.390,0.210 2.390,0.204 C2.407,0.204 2.424,0.204 2.442,0.204 C2.442,0.198 2.442,0.192 2.442,0.187 C2.459,0.187 2.476,0.187 2.494,0.187 C2.494,0.181 2.494,0.175 2.494,0.169 C2.517,0.169 2.540,0.169 2.563,0.169 C2.649,0.139 2.766,0.109 2.857,0.082 C2.891,0.082 2.926,0.082 2.961,0.082 C2.961,0.076 2.961,0.070 2.961,0.064 C2.995,0.064 3.030,0.064 3.064,0.064 C3.064,0.058 3.064,0.052 3.064,0.047 C3.105,0.047 3.145,0.047 3.185,0.047 C3.185,0.041 3.185,0.035 3.185,0.029 C3.246,0.011 3.319,0.046 3.358,0.011 ZM31.000,30.000 C28.786,30.000 26.572,30.000 24.358,30.000 C24.358,27.017 24.358,24.032 24.358,21.049 C24.358,20.570 24.358,20.091 24.358,19.613 C24.358,19.403 24.389,19.086 24.340,18.912 C24.340,18.830 24.340,18.748 24.340,18.667 C24.329,18.480 24.317,18.293 24.306,18.106 C24.265,17.855 24.225,17.604 24.185,17.353 C24.127,17.149 24.069,16.944 24.012,16.740 C24.006,16.740 24.000,16.740 23.994,16.740 C23.994,16.728 23.994,16.717 23.994,16.705 C23.989,16.705 23.983,16.705 23.977,16.705 C23.971,16.670 23.966,16.635 23.960,16.600 C23.954,16.600 23.948,16.600 23.943,16.600 C23.943,16.588 23.943,16.576 23.943,16.565 C23.937,16.565 23.931,16.565 23.925,16.565 C23.925,16.547 23.925,16.530 23.925,16.512 C23.920,16.512 23.914,16.512 23.908,16.512 C23.902,16.489 23.896,16.465 23.891,16.442 C23.885,16.442 23.879,16.442 23.873,16.442 C23.873,16.430 23.873,16.419 23.873,16.407 C23.868,16.407 23.862,16.407 23.856,16.407 C23.856,16.390 23.856,16.372 23.856,16.355 C23.850,16.355 23.845,16.355 23.839,16.355 C23.827,16.319 23.816,16.284 23.804,16.249 C23.798,16.249 23.793,16.249 23.787,16.249 C23.781,16.226 23.775,16.203 23.770,16.179 C23.758,16.174 23.747,16.168 23.735,16.162 C23.723,16.127 23.712,16.092 23.700,16.057 C23.689,16.051 23.677,16.045 23.666,16.039 C23.660,16.016 23.654,15.993 23.649,15.969 C23.637,15.963 23.625,15.957 23.614,15.952 C23.614,15.940 23.614,15.928 23.614,15.917 C23.608,15.917 23.602,15.917 23.597,15.917 C23.591,15.899 23.585,15.882 23.579,15.864 C23.568,15.858 23.556,15.852 23.545,15.847 C23.545,15.835 23.545,15.823 23.545,15.812 C23.527,15.800 23.510,15.788 23.493,15.776 C23.493,15.765 23.493,15.753 23.493,15.741 C23.481,15.736 23.470,15.730 23.458,15.724 C23.452,15.706 23.447,15.689 23.441,15.671 C23.412,15.648 23.383,15.625 23.354,15.601 C23.064,15.194 22.586,14.927 22.074,14.743 C22.051,14.743 22.028,14.743 22.005,14.743 C22.005,14.737 22.005,14.731 22.005,14.725 C21.988,14.725 21.971,14.725 21.953,14.725 C21.953,14.720 21.953,14.714 21.953,14.708 C21.792,14.679 21.630,14.650 21.469,14.620 C21.400,14.620 21.331,14.620 21.261,14.620 C21.261,14.615 21.261,14.609 21.261,14.603 C21.169,14.603 21.077,14.603 20.985,14.603 C20.742,14.603 20.498,14.615 20.310,14.673 C20.252,14.679 20.195,14.685 20.137,14.690 C20.137,14.696 20.137,14.702 20.137,14.708 C20.091,14.714 20.045,14.720 19.999,14.725 C19.999,14.731 19.999,14.737 19.999,14.743 C19.981,14.743 19.964,14.743 19.947,14.743 C19.947,14.749 19.947,14.755 19.947,14.761 C19.930,14.761 19.912,14.761 19.895,14.761 C19.895,14.766 19.895,14.772 19.895,14.778 C19.872,14.778 19.849,14.778 19.826,14.778 C19.826,14.784 19.826,14.790 19.826,14.796 C19.814,14.796 19.803,14.796 19.791,14.796 C19.791,14.801 19.791,14.807 19.791,14.813 C19.757,14.819 19.722,14.825 19.687,14.831 C19.687,14.836 19.687,14.842 19.687,14.848 C19.676,14.848 19.664,14.848 19.653,14.848 C19.653,14.854 19.653,14.860 19.653,14.866 C19.635,14.866 19.618,14.866 19.601,14.866 C19.601,14.871 19.601,14.877 19.601,14.883 C19.566,14.895 19.532,14.906 19.497,14.918 C19.497,14.924 19.497,14.930 19.497,14.936 C19.486,14.936 19.474,14.936 19.463,14.936 C19.463,14.942 19.463,14.947 19.463,14.953 C19.434,14.959 19.405,14.965 19.376,14.971 C19.370,14.982 19.364,14.994 19.359,15.006 C19.347,15.006 19.336,15.006 19.324,15.006 C19.324,15.012 19.324,15.017 19.324,15.023 C19.313,15.023 19.301,15.023 19.290,15.023 C19.290,15.029 19.290,15.035 19.290,15.041 C19.278,15.041 19.266,15.041 19.255,15.041 C19.255,15.047 19.255,15.052 19.255,15.058 C19.243,15.058 19.232,15.058 19.220,15.058 C19.215,15.070 19.209,15.082 19.203,15.093 C19.180,15.099 19.157,15.105 19.134,15.111 C19.128,15.123 19.122,15.134 19.117,15.146 C19.105,15.146 19.093,15.146 19.082,15.146 C19.076,15.158 19.070,15.169 19.065,15.181 C19.053,15.181 19.042,15.181 19.030,15.181 C19.024,15.193 19.019,15.204 19.013,15.216 C19.001,15.216 18.990,15.216 18.978,15.216 C18.972,15.228 18.967,15.239 18.961,15.251 C18.949,15.251 18.938,15.251 18.926,15.251 C18.915,15.268 18.903,15.286 18.892,15.304 C18.880,15.304 18.869,15.304 18.857,15.304 C18.840,15.327 18.822,15.350 18.805,15.374 C18.794,15.374 18.782,15.374 18.771,15.374 C18.748,15.403 18.724,15.432 18.701,15.461 C18.690,15.461 18.678,15.461 18.667,15.461 C18.615,15.520 18.563,15.578 18.511,15.636 C18.448,15.695 18.384,15.753 18.321,15.812 C18.321,15.823 18.321,15.835 18.321,15.847 C18.292,15.870 18.263,15.893 18.234,15.917 C18.234,15.928 18.234,15.940 18.234,15.952 C18.211,15.969 18.188,15.987 18.165,16.004 C18.159,16.022 18.154,16.039 18.148,16.057 C18.136,16.063 18.125,16.068 18.113,16.074 C18.113,16.086 18.113,16.098 18.113,16.109 C18.102,16.115 18.090,16.121 18.079,16.127 C18.073,16.144 18.067,16.162 18.061,16.179 C18.056,16.179 18.050,16.179 18.044,16.179 C18.044,16.191 18.044,16.203 18.044,16.214 C18.027,16.226 18.009,16.238 17.992,16.249 C17.986,16.273 17.981,16.296 17.975,16.319 C17.963,16.325 17.952,16.331 17.940,16.337 C17.935,16.355 17.929,16.372 17.923,16.390 C17.917,16.390 17.911,16.390 17.906,16.390 C17.900,16.413 17.894,16.436 17.888,16.460 C17.877,16.465 17.865,16.471 17.854,16.477 C17.854,16.489 17.854,16.501 17.854,16.512 C17.848,16.512 17.842,16.512 17.837,16.512 C17.837,16.524 17.837,16.536 17.837,16.547 C17.831,16.547 17.825,16.547 17.819,16.547 C17.819,16.559 17.819,16.571 17.819,16.582 C17.813,16.582 17.808,16.582 17.802,16.582 C17.802,16.594 17.802,16.606 17.802,16.617 C17.796,16.617 17.790,16.617 17.785,16.617 C17.785,16.629 17.785,16.641 17.785,16.652 C17.773,16.658 17.762,16.664 17.750,16.670 C17.733,16.722 17.715,16.775 17.698,16.827 C17.692,16.827 17.687,16.827 17.681,16.827 C17.681,16.839 17.681,16.851 17.681,16.863 C17.675,16.863 17.669,16.863 17.664,16.863 C17.652,16.898 17.640,16.933 17.629,16.968 C17.623,16.968 17.617,16.968 17.612,16.968 C17.612,16.985 17.612,17.003 17.612,17.020 C17.606,17.020 17.600,17.020 17.594,17.020 C17.594,17.032 17.594,17.044 17.594,17.055 C17.589,17.055 17.583,17.055 17.577,17.055 C17.577,17.073 17.577,17.090 17.577,17.108 C17.571,17.108 17.566,17.108 17.560,17.108 C17.560,17.119 17.560,17.131 17.560,17.143 C17.554,17.143 17.548,17.143 17.542,17.143 C17.537,17.184 17.531,17.225 17.525,17.265 C17.519,17.265 17.514,17.265 17.508,17.265 C17.508,17.283 17.508,17.300 17.508,17.318 C17.502,17.318 17.496,17.318 17.491,17.318 C17.473,17.435 17.456,17.552 17.439,17.668 C17.433,17.668 17.427,17.668 17.421,17.668 C17.421,17.709 17.421,17.750 17.421,17.791 C17.416,17.791 17.410,17.791 17.404,17.791 C17.404,17.843 17.404,17.896 17.404,17.949 C17.398,17.949 17.393,17.949 17.387,17.949 C17.387,18.030 17.387,18.112 17.387,18.194 C17.338,18.368 17.370,18.685 17.369,18.894 C17.369,19.753 17.369,20.611 17.369,21.469 C17.369,24.313 17.369,27.157 17.369,30.000 C15.150,30.000 12.930,30.000 10.710,30.000 C10.716,28.581 10.721,27.162 10.727,25.743 C10.727,25.294 10.727,24.844 10.727,24.395 C10.727,24.187 10.696,23.905 10.745,23.729 C10.745,21.440 10.745,19.151 10.745,16.863 C10.745,14.936 10.745,13.009 10.745,11.082 C10.710,10.956 10.727,10.748 10.727,10.592 C10.721,10.317 10.716,10.043 10.710,9.768 C12.930,9.768 15.150,9.768 17.369,9.768 C17.369,10.714 17.369,11.660 17.369,12.606 C17.375,12.606 17.381,12.606 17.387,12.606 C17.387,12.594 17.387,12.583 17.387,12.571 C17.430,12.542 17.427,12.509 17.456,12.466 C17.468,12.460 17.479,12.454 17.491,12.448 C17.496,12.431 17.502,12.413 17.508,12.396 C17.514,12.396 17.519,12.396 17.525,12.396 C17.525,12.384 17.525,12.372 17.525,12.361 C17.537,12.355 17.548,12.349 17.560,12.343 C17.560,12.332 17.560,12.320 17.560,12.308 C17.571,12.302 17.583,12.297 17.594,12.291 C17.594,12.279 17.594,12.267 17.594,12.256 C17.612,12.244 17.629,12.232 17.646,12.221 C17.646,12.209 17.646,12.197 17.646,12.186 C17.658,12.180 17.669,12.174 17.681,12.168 C17.681,12.156 17.681,12.145 17.681,12.133 C17.698,12.121 17.715,12.110 17.733,12.098 C17.733,12.086 17.733,12.075 17.733,12.063 C17.750,12.051 17.767,12.040 17.785,12.028 C17.785,12.016 17.785,12.005 17.785,11.993 C17.802,11.981 17.819,11.970 17.837,11.958 C17.837,11.946 17.837,11.934 17.837,11.923 C17.854,11.911 17.871,11.899 17.888,11.888 C17.888,11.876 17.888,11.864 17.888,11.853 C17.911,11.835 17.935,11.818 17.958,11.800 C17.958,11.789 17.958,11.777 17.958,11.765 C17.986,11.742 18.015,11.718 18.044,11.695 C18.044,11.683 18.044,11.672 18.044,11.660 C18.073,11.637 18.102,11.613 18.131,11.590 C18.131,11.578 18.131,11.567 18.131,11.555 C18.182,11.508 18.234,11.462 18.286,11.415 C18.286,11.403 18.286,11.391 18.286,11.380 C18.321,11.351 18.355,11.321 18.390,11.292 C18.488,11.187 18.586,11.082 18.684,10.977 C18.696,10.977 18.707,10.977 18.719,10.977 C18.759,10.930 18.799,10.883 18.840,10.837 C18.851,10.837 18.863,10.837 18.874,10.837 C18.897,10.808 18.921,10.778 18.944,10.749 C18.955,10.749 18.967,10.749 18.978,10.749 C19.001,10.720 19.024,10.691 19.047,10.662 C19.059,10.662 19.070,10.662 19.082,10.662 C19.093,10.644 19.105,10.627 19.117,10.609 C19.128,10.609 19.140,10.609 19.151,10.609 C19.163,10.592 19.174,10.574 19.186,10.557 C19.197,10.557 19.209,10.557 19.220,10.557 C19.232,10.539 19.243,10.521 19.255,10.504 C19.266,10.504 19.278,10.504 19.290,10.504 C19.295,10.492 19.301,10.481 19.307,10.469 C19.318,10.469 19.330,10.469 19.341,10.469 C19.353,10.451 19.364,10.434 19.376,10.416 C19.388,10.416 19.399,10.416 19.411,10.416 C19.416,10.405 19.422,10.393 19.428,10.381 C19.445,10.376 19.463,10.370 19.480,10.364 C19.480,10.358 19.480,10.352 19.480,10.346 C19.503,10.340 19.526,10.335 19.549,10.329 C19.549,10.323 19.549,10.317 19.549,10.311 C19.566,10.305 19.584,10.300 19.601,10.294 C19.607,10.282 19.612,10.270 19.618,10.259 C19.630,10.259 19.641,10.259 19.653,10.259 C19.653,10.253 19.653,10.247 19.653,10.241 C19.664,10.241 19.676,10.241 19.687,10.241 C19.693,10.230 19.699,10.218 19.705,10.206 C19.728,10.200 19.751,10.195 19.774,10.189 C19.780,10.177 19.785,10.165 19.791,10.154 C19.803,10.154 19.814,10.154 19.826,10.154 C19.826,10.148 19.826,10.142 19.826,10.136 C19.837,10.136 19.849,10.136 19.860,10.136 C19.860,10.130 19.860,10.124 19.860,10.119 C19.872,10.119 19.883,10.119 19.895,10.119 C19.895,10.113 19.895,10.107 19.895,10.101 C19.906,10.101 19.918,10.101 19.930,10.101 C19.935,10.089 19.941,10.078 19.947,10.066 C19.958,10.066 19.970,10.066 19.981,10.066 C19.981,10.060 19.981,10.054 19.981,10.049 C19.993,10.049 20.004,10.049 20.016,10.049 C20.016,10.043 20.016,10.037 20.016,10.031 C20.028,10.031 20.039,10.031 20.051,10.031 C20.051,10.025 20.051,10.019 20.051,10.014 C20.062,10.014 20.074,10.014 20.085,10.014 C20.085,10.008 20.085,10.002 20.085,9.996 C20.097,9.996 20.108,9.996 20.120,9.996 C20.120,9.990 20.120,9.984 20.120,9.978 C20.131,9.978 20.143,9.978 20.154,9.978 C20.154,9.973 20.154,9.967 20.154,9.961 C20.189,9.949 20.224,9.938 20.258,9.926 C20.258,9.920 20.258,9.914 20.258,9.908 C20.287,9.903 20.316,9.897 20.345,9.891 C20.345,9.885 20.345,9.879 20.345,9.873 C20.356,9.873 20.368,9.873 20.379,9.873 C20.379,9.868 20.379,9.862 20.379,9.856 C20.397,9.856 20.414,9.856 20.431,9.856 C20.431,9.850 20.431,9.844 20.431,9.838 C20.454,9.832 20.477,9.827 20.500,9.821 C20.500,9.815 20.500,9.809 20.500,9.803 C20.518,9.803 20.535,9.803 20.552,9.803 C20.552,9.797 20.552,9.792 20.552,9.786 C20.564,9.786 20.575,9.786 20.587,9.786 C20.587,9.780 20.587,9.774 20.587,9.768 C20.604,9.768 20.621,9.768 20.639,9.768 C20.639,9.762 20.639,9.757 20.639,9.751 C20.650,9.751 20.662,9.751 20.673,9.751 C20.673,9.745 20.673,9.739 20.673,9.733 C20.691,9.733 20.708,9.733 20.725,9.733 C20.725,9.727 20.725,9.722 20.725,9.716 C20.743,9.716 20.760,9.716 20.777,9.716 C20.777,9.710 20.777,9.704 20.777,9.698 C20.794,9.698 20.812,9.698 20.829,9.698 C20.829,9.692 20.829,9.687 20.829,9.681 C20.846,9.681 20.864,9.681 20.881,9.681 C20.881,9.675 20.881,9.669 20.881,9.663 C20.898,9.663 20.915,9.663 20.933,9.663 C20.933,9.657 20.933,9.651 20.933,9.646 C20.950,9.646 20.967,9.646 20.985,9.646 C20.985,9.640 20.985,9.634 20.985,9.628 C21.002,9.628 21.019,9.628 21.037,9.628 C21.037,9.622 21.037,9.616 21.037,9.611 C21.054,9.611 21.071,9.611 21.088,9.611 C21.088,9.605 21.088,9.599 21.088,9.593 C21.129,9.587 21.169,9.581 21.210,9.576 C21.210,9.570 21.210,9.564 21.210,9.558 C21.250,9.552 21.290,9.546 21.331,9.541 C21.331,9.535 21.331,9.529 21.331,9.523 C21.377,9.517 21.423,9.511 21.469,9.506 C21.469,9.500 21.469,9.494 21.469,9.488 C21.498,9.488 21.527,9.488 21.556,9.488 C21.556,9.482 21.556,9.476 21.556,9.470 C21.579,9.470 21.602,9.470 21.625,9.470 C21.625,9.465 21.625,9.459 21.625,9.453 C21.654,9.453 21.682,9.453 21.711,9.453 C21.711,9.447 21.711,9.441 21.711,9.435 C21.740,9.435 21.769,9.435 21.798,9.435 C21.798,9.430 21.798,9.424 21.798,9.418 C21.827,9.418 21.855,9.418 21.884,9.418 C21.884,9.412 21.884,9.406 21.884,9.400 C21.919,9.400 21.953,9.400 21.988,9.400 C21.988,9.395 21.988,9.389 21.988,9.383 C22.028,9.383 22.069,9.383 22.109,9.383 C22.109,9.377 22.109,9.371 22.109,9.365 C22.149,9.365 22.190,9.365 22.230,9.365 C22.230,9.360 22.230,9.354 22.230,9.348 C22.276,9.348 22.322,9.348 22.368,9.348 C22.368,9.342 22.368,9.336 22.368,9.330 C22.426,9.330 22.484,9.330 22.541,9.330 C22.541,9.325 22.541,9.319 22.541,9.313 C22.686,9.307 22.830,9.301 22.974,9.295 C23.037,9.295 23.101,9.295 23.164,9.295 C23.164,9.289 23.164,9.284 23.164,9.278 C23.248,9.254 23.485,9.278 23.545,9.295 C23.683,9.295 23.822,9.295 23.960,9.295 C23.960,9.301 23.960,9.307 23.960,9.313 C24.035,9.313 24.110,9.313 24.185,9.313 C24.185,9.319 24.185,9.325 24.185,9.330 C24.242,9.330 24.300,9.330 24.358,9.330 C24.358,9.336 24.358,9.342 24.358,9.348 C24.410,9.348 24.462,9.348 24.513,9.348 C24.779,9.395 25.044,9.441 25.309,9.488 C25.309,9.494 25.309,9.500 25.309,9.506 C25.332,9.506 25.355,9.506 25.378,9.506 C25.378,9.511 25.378,9.517 25.378,9.523 C25.401,9.523 25.424,9.523 25.447,9.523 C25.447,9.529 25.447,9.535 25.447,9.541 C25.471,9.541 25.494,9.541 25.517,9.541 C25.517,9.546 25.517,9.552 25.517,9.558 C25.540,9.558 25.563,9.558 25.586,9.558 C25.586,9.564 25.586,9.570 25.586,9.576 C25.603,9.576 25.620,9.576 25.638,9.576 C25.638,9.581 25.638,9.587 25.638,9.593 C25.684,9.599 25.730,9.605 25.776,9.611 C25.776,9.616 25.776,9.622 25.776,9.628 C25.793,9.628 25.811,9.628 25.828,9.628 C25.828,9.634 25.828,9.640 25.828,9.646 C25.845,9.646 25.863,9.646 25.880,9.646 C25.880,9.651 25.880,9.657 25.880,9.663 C25.897,9.663 25.915,9.663 25.932,9.663 C25.932,9.669 25.932,9.675 25.932,9.681 C25.949,9.681 25.966,9.681 25.984,9.681 C25.984,9.687 25.984,9.692 25.984,9.698 C26.001,9.698 26.018,9.698 26.036,9.698 C26.036,9.704 26.036,9.710 26.036,9.716 C26.053,9.716 26.070,9.716 26.087,9.716 C26.087,9.722 26.087,9.727 26.087,9.733 C26.105,9.733 26.122,9.733 26.139,9.733 C26.139,9.739 26.139,9.745 26.139,9.751 C26.191,9.762 26.243,9.774 26.295,9.786 C26.295,9.792 26.295,9.797 26.295,9.803 C26.307,9.803 26.318,9.803 26.330,9.803 C26.330,9.809 26.330,9.815 26.330,9.821 C26.347,9.821 26.364,9.821 26.382,9.821 C26.382,9.827 26.382,9.832 26.382,9.838 C26.393,9.838 26.405,9.838 26.416,9.838 C26.416,9.844 26.416,9.850 26.416,9.856 C26.433,9.856 26.451,9.856 26.468,9.856 C26.468,9.862 26.468,9.868 26.468,9.873 C26.480,9.873 26.491,9.873 26.503,9.873 C26.503,9.879 26.503,9.885 26.503,9.891 C26.520,9.891 26.537,9.891 26.555,9.891 C26.555,9.897 26.555,9.903 26.555,9.908 C26.578,9.914 26.601,9.920 26.624,9.926 C26.624,9.932 26.624,9.938 26.624,9.943 C26.641,9.943 26.658,9.943 26.676,9.943 C26.676,9.949 26.676,9.955 26.676,9.961 C26.710,9.973 26.745,9.984 26.779,9.996 C26.779,10.002 26.779,10.008 26.779,10.014 C26.791,10.014 26.802,10.014 26.814,10.014 C26.814,10.019 26.814,10.025 26.814,10.031 C26.826,10.031 26.837,10.031 26.849,10.031 C26.849,10.037 26.849,10.043 26.849,10.049 C26.860,10.049 26.872,10.049 26.883,10.049 C26.883,10.054 26.883,10.060 26.883,10.066 C26.906,10.072 26.929,10.078 26.952,10.084 C26.952,10.089 26.952,10.095 26.952,10.101 C26.964,10.101 26.975,10.101 26.987,10.101 C26.987,10.107 26.987,10.113 26.987,10.119 C26.998,10.119 27.010,10.119 27.022,10.119 C27.022,10.124 27.022,10.130 27.022,10.136 C27.033,10.136 27.045,10.136 27.056,10.136 C27.056,10.142 27.056,10.148 27.056,10.154 C27.068,10.154 27.079,10.154 27.091,10.154 C27.091,10.159 27.091,10.165 27.091,10.171 C27.102,10.171 27.114,10.171 27.125,10.171 C27.125,10.177 27.125,10.183 27.125,10.189 C27.148,10.195 27.171,10.200 27.195,10.206 C27.200,10.218 27.206,10.230 27.212,10.241 C27.246,10.253 27.281,10.265 27.316,10.276 C27.321,10.288 27.327,10.300 27.333,10.311 C27.356,10.317 27.379,10.323 27.402,10.329 C27.408,10.340 27.414,10.352 27.419,10.364 C27.442,10.370 27.466,10.376 27.489,10.381 C27.494,10.393 27.500,10.405 27.506,10.416 C27.517,10.416 27.529,10.416 27.540,10.416 C27.546,10.428 27.552,10.440 27.558,10.451 C27.569,10.451 27.581,10.451 27.592,10.451 C27.598,10.463 27.604,10.475 27.610,10.486 C27.621,10.486 27.633,10.486 27.644,10.486 C27.650,10.498 27.656,10.510 27.662,10.521 C27.673,10.521 27.685,10.521 27.696,10.521 C27.696,10.527 27.696,10.533 27.696,10.539 C27.713,10.545 27.731,10.551 27.748,10.557 C27.754,10.568 27.760,10.580 27.765,10.592 C27.777,10.592 27.788,10.592 27.800,10.592 C27.806,10.603 27.811,10.615 27.817,10.627 C27.829,10.627 27.840,10.627 27.852,10.627 C27.863,10.644 27.875,10.662 27.886,10.679 C27.898,10.679 27.909,10.679 27.921,10.679 C27.933,10.697 27.944,10.714 27.956,10.732 C27.967,10.732 27.979,10.732 27.990,10.732 C28.008,10.755 28.025,10.778 28.042,10.802 C28.054,10.802 28.065,10.802 28.077,10.802 C28.094,10.825 28.111,10.848 28.129,10.872 C28.140,10.872 28.152,10.872 28.163,10.872 C28.180,10.895 28.198,10.919 28.215,10.942 C28.227,10.942 28.238,10.942 28.250,10.942 C28.284,10.983 28.319,11.024 28.353,11.065 C28.365,11.065 28.377,11.065 28.388,11.065 C28.457,11.140 28.526,11.216 28.596,11.292 C28.688,11.380 28.780,11.467 28.872,11.555 C28.872,11.567 28.872,11.578 28.872,11.590 C28.913,11.625 28.953,11.660 28.993,11.695 C28.993,11.707 28.993,11.718 28.993,11.730 C29.022,11.753 29.051,11.777 29.080,11.800 C29.080,11.812 29.080,11.824 29.080,11.835 C29.103,11.853 29.126,11.870 29.149,11.888 C29.149,11.899 29.149,11.911 29.149,11.923 C29.172,11.940 29.195,11.958 29.218,11.975 C29.218,11.987 29.218,11.999 29.218,12.010 C29.236,12.022 29.253,12.034 29.270,12.045 C29.276,12.063 29.282,12.080 29.288,12.098 C29.299,12.104 29.311,12.110 29.322,12.115 C29.322,12.127 29.322,12.139 29.322,12.151 C29.334,12.156 29.345,12.162 29.357,12.168 C29.357,12.180 29.357,12.191 29.357,12.203 C29.374,12.215 29.391,12.226 29.409,12.238 C29.409,12.250 29.409,12.261 29.409,12.273 C29.420,12.279 29.432,12.285 29.443,12.291 C29.443,12.302 29.443,12.314 29.443,12.326 C29.455,12.332 29.466,12.337 29.478,12.343 C29.478,12.355 29.478,12.367 29.478,12.378 C29.489,12.384 29.501,12.390 29.512,12.396 C29.512,12.407 29.512,12.419 29.512,12.431 C29.524,12.437 29.535,12.442 29.547,12.448 C29.553,12.472 29.559,12.495 29.564,12.518 C29.570,12.518 29.576,12.518 29.582,12.518 C29.587,12.536 29.593,12.553 29.599,12.571 C29.610,12.577 29.622,12.583 29.633,12.588 C29.639,12.612 29.645,12.635 29.651,12.659 C29.662,12.664 29.674,12.670 29.685,12.676 C29.691,12.699 29.697,12.723 29.703,12.746 C29.714,12.752 29.726,12.758 29.737,12.764 C29.749,12.799 29.760,12.834 29.772,12.869 C29.783,12.875 29.795,12.880 29.806,12.886 C29.812,12.910 29.818,12.933 29.824,12.956 C29.830,12.956 29.835,12.956 29.841,12.956 C29.841,12.968 29.841,12.980 29.841,12.991 C29.847,12.991 29.853,12.991 29.858,12.991 C29.858,13.003 29.858,13.015 29.858,13.026 C29.864,13.026 29.870,13.026 29.876,13.026 C29.876,13.038 29.876,13.050 29.876,13.061 C29.881,13.061 29.887,13.061 29.893,13.061 C29.893,13.073 29.893,13.085 29.893,13.096 C29.899,13.096 29.904,13.096 29.910,13.096 C29.910,13.108 29.910,13.120 29.910,13.131 C29.916,13.131 29.922,13.131 29.928,13.131 C29.933,13.155 29.939,13.178 29.945,13.202 C29.951,13.202 29.956,13.202 29.962,13.202 C29.962,13.213 29.962,13.225 29.962,13.237 C29.968,13.237 29.974,13.237 29.979,13.237 C29.979,13.248 29.979,13.260 29.979,13.272 C29.985,13.272 29.991,13.272 29.997,13.272 C29.997,13.283 29.997,13.295 29.997,13.307 C30.003,13.307 30.008,13.307 30.014,13.307 C30.014,13.318 30.014,13.330 30.014,13.342 C30.020,13.342 30.026,13.342 30.031,13.342 C30.031,13.353 30.031,13.365 30.031,13.377 C30.037,13.377 30.043,13.377 30.049,13.377 C30.054,13.400 30.060,13.423 30.066,13.447 C30.072,13.447 30.077,13.447 30.083,13.447 C30.083,13.458 30.083,13.470 30.083,13.482 C30.089,13.482 30.095,13.482 30.101,13.482 C30.101,13.499 30.101,13.517 30.101,13.534 C30.106,13.534 30.112,13.534 30.118,13.534 C30.124,13.558 30.129,13.581 30.135,13.604 C30.141,13.604 30.147,13.604 30.152,13.604 C30.152,13.622 30.152,13.639 30.152,13.657 C30.158,13.657 30.164,13.657 30.170,13.657 C30.175,13.680 30.181,13.704 30.187,13.727 C30.193,13.727 30.199,13.727 30.204,13.727 C30.204,13.745 30.204,13.762 30.204,13.780 C30.210,13.780 30.216,13.780 30.222,13.780 C30.222,13.791 30.222,13.803 30.222,13.815 C30.227,13.815 30.233,13.815 30.239,13.815 C30.245,13.844 30.250,13.873 30.256,13.902 C30.262,13.902 30.268,13.902 30.273,13.902 C30.279,13.937 30.285,13.972 30.291,14.007 C30.297,14.007 30.302,14.007 30.308,14.007 C30.308,14.019 30.308,14.031 30.308,14.042 C30.314,14.042 30.320,14.042 30.325,14.042 C30.337,14.095 30.348,14.147 30.360,14.200 C30.366,14.200 30.372,14.200 30.377,14.200 C30.377,14.212 30.377,14.223 30.377,14.235 C30.383,14.235 30.389,14.235 30.395,14.235 C30.395,14.253 30.395,14.270 30.395,14.288 C30.400,14.288 30.406,14.288 30.412,14.288 C30.412,14.305 30.412,14.323 30.412,14.340 C30.418,14.340 30.423,14.340 30.429,14.340 C30.429,14.358 30.429,14.375 30.429,14.393 C30.435,14.393 30.441,14.393 30.446,14.393 C30.446,14.410 30.446,14.428 30.446,14.445 C30.452,14.445 30.458,14.445 30.464,14.445 C30.464,14.469 30.464,14.492 30.464,14.515 C30.470,14.515 30.475,14.515 30.481,14.515 C30.481,14.533 30.481,14.550 30.481,14.568 C30.487,14.568 30.493,14.568 30.498,14.568 C30.498,14.585 30.498,14.603 30.498,14.620 C30.504,14.620 30.510,14.620 30.516,14.620 C30.527,14.679 30.539,14.737 30.550,14.796 C30.556,14.796 30.562,14.796 30.568,14.796 C30.579,14.866 30.591,14.936 30.602,15.006 C30.608,15.006 30.614,15.006 30.619,15.006 C30.619,15.023 30.619,15.041 30.619,15.058 C30.625,15.058 30.631,15.058 30.637,15.058 C30.637,15.082 30.637,15.105 30.637,15.128 C30.643,15.128 30.648,15.128 30.654,15.128 C30.654,15.158 30.654,15.187 30.654,15.216 C30.660,15.216 30.666,15.216 30.671,15.216 C30.671,15.239 30.671,15.263 30.671,15.286 C30.677,15.286 30.683,15.286 30.689,15.286 C30.689,15.309 30.689,15.333 30.689,15.356 C30.694,15.356 30.700,15.356 30.706,15.356 C30.717,15.438 30.729,15.520 30.741,15.601 C30.746,15.601 30.752,15.601 30.758,15.601 C30.758,15.636 30.758,15.671 30.758,15.706 C30.792,15.819 30.811,15.975 30.844,16.092 C30.844,16.133 30.844,16.174 30.844,16.214 C30.850,16.214 30.856,16.214 30.862,16.214 C30.867,16.296 30.873,16.378 30.879,16.460 C30.885,16.460 30.890,16.460 30.896,16.460 C30.902,16.559 30.908,16.658 30.914,16.757 C30.919,16.757 30.925,16.757 30.931,16.757 C30.931,16.816 30.931,16.874 30.931,16.933 C30.937,16.933 30.942,16.933 30.948,16.933 C30.948,17.003 30.948,17.073 30.948,17.143 C30.954,17.143 30.960,17.143 30.965,17.143 C30.965,17.225 30.965,17.306 30.965,17.388 C30.971,17.388 30.977,17.388 30.983,17.388 C30.983,17.505 30.983,17.622 30.983,17.738 C30.988,17.738 30.994,17.738 31.000,17.738 C31.000,18.030 31.000,18.322 31.000,18.614 C31.000,19.233 31.000,19.852 31.000,20.471 C31.000,23.647 31.000,26.824 31.000,30.000 ZM0.401,9.768 C2.614,9.768 4.829,9.768 7.043,9.768 C7.043,16.512 7.043,23.257 7.043,30.000 C4.829,30.000 2.614,30.000 0.401,30.000 C0.401,23.257 0.401,16.512 0.401,9.768 ZM17.335,12.659 C17.335,12.670 17.335,12.682 17.335,12.694 C17.341,12.694 17.346,12.694 17.352,12.694 C17.342,12.658 17.354,12.678 17.335,12.659 Z"/>
</svg>