<svg 
 xmlns="http://www.w3.org/2000/svg"
 xmlns:xlink="http://www.w3.org/1999/xlink"
 width="29px" height="24px">
<path fill-rule="evenodd"  fill="rgb(255, 255, 255)"
 d="M29.000,2.911 C28.976,2.983 28.951,3.055 28.927,3.127 C28.903,3.127 28.879,3.127 28.854,3.127 C28.830,3.198 28.806,3.270 28.781,3.342 C28.733,3.366 28.684,3.390 28.636,3.414 C28.636,3.462 28.636,3.510 28.636,3.557 C28.563,3.605 28.490,3.653 28.417,3.701 C28.417,3.749 28.417,3.797 28.417,3.845 C28.296,3.941 28.174,4.036 28.053,4.132 C28.053,4.180 28.053,4.228 28.053,4.276 C27.761,4.539 27.470,4.802 27.178,5.066 C27.081,5.185 26.984,5.305 26.887,5.425 C26.838,5.425 26.790,5.425 26.741,5.425 C26.644,5.545 26.547,5.664 26.450,5.784 C26.401,5.784 26.353,5.784 26.304,5.784 C26.255,5.856 26.207,5.928 26.158,5.999 C26.134,5.999 26.110,5.999 26.085,5.999 C26.085,6.718 26.085,7.436 26.085,8.154 C25.964,8.944 25.843,9.734 25.721,10.524 C25.478,11.338 25.235,12.152 24.992,12.966 C24.968,12.966 24.944,12.966 24.920,12.966 C24.920,13.014 24.920,13.062 24.920,13.110 C24.895,13.110 24.871,13.110 24.847,13.110 C24.847,13.182 24.847,13.254 24.847,13.325 C24.822,13.325 24.798,13.325 24.774,13.325 C24.774,13.373 24.774,13.421 24.774,13.469 C24.750,13.469 24.725,13.469 24.701,13.469 C24.701,13.541 24.701,13.613 24.701,13.684 C24.677,13.684 24.652,13.684 24.628,13.684 C24.628,13.732 24.628,13.780 24.628,13.828 C24.604,13.828 24.580,13.828 24.555,13.828 C24.531,13.948 24.507,14.068 24.482,14.187 C24.458,14.187 24.434,14.187 24.410,14.187 C24.361,14.331 24.312,14.475 24.264,14.618 C24.240,14.618 24.215,14.618 24.191,14.618 C24.191,14.666 24.191,14.714 24.191,14.762 C24.167,14.762 24.142,14.762 24.118,14.762 C24.118,14.810 24.118,14.858 24.118,14.905 C24.094,14.905 24.070,14.905 24.045,14.905 C24.045,14.953 24.045,15.001 24.045,15.049 C24.021,15.049 23.997,15.049 23.972,15.049 C23.972,15.097 23.972,15.145 23.972,15.193 C23.948,15.193 23.924,15.193 23.899,15.193 C23.899,15.241 23.899,15.289 23.899,15.336 C23.851,15.360 23.802,15.384 23.754,15.408 C23.705,15.552 23.657,15.696 23.608,15.839 C23.559,15.863 23.511,15.887 23.462,15.911 C23.438,16.007 23.414,16.103 23.389,16.198 C23.365,16.198 23.341,16.198 23.317,16.198 C23.292,16.270 23.268,16.342 23.244,16.414 C23.195,16.438 23.147,16.462 23.098,16.486 C23.098,16.533 23.098,16.581 23.098,16.629 C23.074,16.629 23.049,16.629 23.025,16.629 C23.001,16.701 22.977,16.773 22.952,16.845 C22.904,16.869 22.855,16.893 22.807,16.916 C22.807,16.964 22.807,17.012 22.807,17.060 C22.734,17.108 22.661,17.156 22.588,17.204 C22.588,17.252 22.588,17.300 22.588,17.347 C22.539,17.371 22.491,17.395 22.442,17.419 C22.442,17.467 22.442,17.515 22.442,17.563 C22.345,17.635 22.248,17.707 22.151,17.778 C22.151,17.826 22.151,17.874 22.151,17.922 C22.054,17.994 21.956,18.066 21.859,18.137 C21.859,18.185 21.859,18.233 21.859,18.281 C21.665,18.449 21.471,18.616 21.276,18.784 C21.276,18.832 21.276,18.880 21.276,18.928 C21.082,19.095 20.888,19.263 20.693,19.430 C20.645,19.502 20.596,19.574 20.548,19.646 C20.499,19.646 20.451,19.646 20.402,19.646 C20.232,19.837 20.062,20.029 19.892,20.220 C19.819,20.244 19.746,20.268 19.673,20.292 C19.625,20.364 19.576,20.436 19.528,20.508 C19.479,20.508 19.430,20.508 19.382,20.508 C19.309,20.603 19.236,20.699 19.163,20.795 C19.115,20.795 19.066,20.795 19.018,20.795 C18.969,20.867 18.920,20.939 18.872,21.010 C18.823,21.010 18.775,21.010 18.726,21.010 C18.702,21.058 18.678,21.106 18.653,21.154 C18.580,21.178 18.508,21.202 18.435,21.226 C18.435,21.250 18.435,21.274 18.435,21.298 C18.386,21.298 18.338,21.298 18.289,21.298 C18.265,21.346 18.240,21.393 18.216,21.441 C18.143,21.465 18.070,21.489 17.997,21.513 C17.997,21.537 17.997,21.561 17.997,21.585 C17.900,21.609 17.803,21.633 17.706,21.657 C17.682,21.705 17.657,21.753 17.633,21.800 C17.585,21.800 17.536,21.800 17.487,21.800 C17.487,21.824 17.487,21.848 17.487,21.872 C17.439,21.872 17.390,21.872 17.342,21.872 C17.342,21.896 17.342,21.920 17.342,21.944 C17.293,21.944 17.245,21.944 17.196,21.944 C17.196,21.968 17.196,21.992 17.196,22.016 C17.147,22.016 17.099,22.016 17.050,22.016 C17.026,22.064 17.002,22.112 16.977,22.160 C16.880,22.183 16.783,22.207 16.686,22.231 C16.686,22.255 16.686,22.279 16.686,22.303 C16.589,22.327 16.492,22.351 16.394,22.375 C16.394,22.399 16.394,22.423 16.394,22.447 C16.322,22.447 16.249,22.447 16.176,22.447 C16.176,22.471 16.176,22.495 16.176,22.519 C16.079,22.543 15.982,22.567 15.884,22.590 C15.884,22.614 15.884,22.638 15.884,22.662 C15.812,22.662 15.739,22.662 15.666,22.662 C15.666,22.686 15.666,22.710 15.666,22.734 C15.569,22.758 15.472,22.782 15.374,22.806 C15.374,22.830 15.374,22.854 15.374,22.878 C15.229,22.902 15.083,22.926 14.937,22.950 C14.937,22.974 14.937,22.997 14.937,23.021 C14.864,23.021 14.791,23.021 14.719,23.021 C14.719,23.045 14.719,23.069 14.719,23.093 C14.646,23.093 14.573,23.093 14.500,23.093 C14.500,23.117 14.500,23.141 14.500,23.165 C14.427,23.165 14.354,23.165 14.281,23.165 C14.281,23.189 14.281,23.213 14.281,23.237 C14.209,23.237 14.136,23.237 14.063,23.237 C14.063,23.261 14.063,23.285 14.063,23.309 C13.893,23.333 13.723,23.357 13.553,23.381 C13.553,23.404 13.553,23.428 13.553,23.452 C13.334,23.476 13.116,23.500 12.897,23.524 C12.897,23.548 12.897,23.572 12.897,23.596 C12.800,23.596 12.703,23.596 12.606,23.596 C12.606,23.620 12.606,23.644 12.606,23.668 C12.460,23.668 12.314,23.668 12.168,23.668 C12.168,23.692 12.168,23.716 12.168,23.740 C12.023,23.740 11.877,23.740 11.731,23.740 C11.731,23.764 11.731,23.788 11.731,23.811 C11.537,23.811 11.343,23.811 11.148,23.811 C11.148,23.835 11.148,23.859 11.148,23.883 C10.857,23.883 10.565,23.883 10.274,23.883 C10.274,23.907 10.274,23.931 10.274,23.955 C9.896,24.059 8.224,23.962 7.942,23.883 C7.675,23.883 7.408,23.883 7.141,23.883 C7.141,23.859 7.141,23.835 7.141,23.811 C6.971,23.811 6.801,23.811 6.631,23.811 C6.631,23.788 6.631,23.764 6.631,23.740 C6.485,23.740 6.339,23.740 6.193,23.740 C6.193,23.716 6.193,23.692 6.193,23.668 C6.072,23.668 5.951,23.668 5.829,23.668 C5.829,23.644 5.829,23.620 5.829,23.596 C5.708,23.596 5.586,23.596 5.465,23.596 C5.465,23.572 5.465,23.548 5.465,23.524 C5.368,23.524 5.271,23.524 5.173,23.524 C5.173,23.500 5.173,23.476 5.173,23.452 C5.076,23.452 4.979,23.452 4.882,23.452 C4.882,23.428 4.882,23.404 4.882,23.381 C4.785,23.381 4.688,23.381 4.590,23.381 C4.590,23.357 4.590,23.333 4.590,23.309 C4.420,23.285 4.250,23.261 4.080,23.237 C4.080,23.213 4.080,23.189 4.080,23.165 C4.008,23.165 3.935,23.165 3.862,23.165 C3.862,23.141 3.862,23.117 3.862,23.093 C3.789,23.093 3.716,23.093 3.643,23.093 C3.643,23.069 3.643,23.045 3.643,23.021 C3.570,23.021 3.497,23.021 3.425,23.021 C3.425,22.997 3.425,22.974 3.425,22.950 C3.376,22.950 3.327,22.950 3.279,22.950 C3.279,22.926 3.279,22.902 3.279,22.878 C3.206,22.878 3.133,22.878 3.060,22.878 C3.060,22.854 3.060,22.830 3.060,22.806 C2.939,22.782 2.817,22.758 2.696,22.734 C2.696,22.710 2.696,22.686 2.696,22.662 C2.647,22.662 2.599,22.662 2.550,22.662 C2.550,22.638 2.550,22.614 2.550,22.590 C2.477,22.590 2.405,22.590 2.332,22.590 C2.332,22.567 2.332,22.543 2.332,22.519 C2.186,22.471 2.040,22.423 1.894,22.375 C1.894,22.351 1.894,22.327 1.894,22.303 C1.846,22.303 1.797,22.303 1.749,22.303 C1.749,22.279 1.749,22.255 1.749,22.231 C1.700,22.231 1.652,22.231 1.603,22.231 C1.603,22.207 1.603,22.183 1.603,22.160 C1.554,22.160 1.506,22.160 1.457,22.160 C1.457,22.136 1.457,22.112 1.457,22.088 C1.409,22.088 1.360,22.088 1.312,22.088 C1.312,22.064 1.312,22.040 1.312,22.016 C1.166,21.968 1.020,21.920 0.874,21.872 C0.850,21.824 0.826,21.776 0.802,21.729 C0.753,21.729 0.704,21.729 0.656,21.729 C0.656,21.705 0.656,21.681 0.656,21.657 C0.607,21.657 0.559,21.657 0.510,21.657 C0.486,21.609 0.461,21.561 0.437,21.513 C0.215,21.373 0.149,21.472 0.000,21.226 C0.049,21.226 0.097,21.226 0.146,21.226 C0.275,21.342 0.631,21.297 0.874,21.298 C1.433,21.298 1.992,21.298 2.550,21.298 C2.550,21.274 2.550,21.250 2.550,21.226 C2.623,21.226 2.696,21.226 2.769,21.226 C3.909,21.163 4.916,20.803 5.756,20.436 C5.829,20.436 5.902,20.436 5.975,20.436 C5.975,20.412 5.975,20.388 5.975,20.364 C6.072,20.340 6.169,20.316 6.266,20.292 C6.266,20.268 6.266,20.244 6.266,20.220 C6.315,20.220 6.363,20.220 6.412,20.220 C6.412,20.196 6.412,20.172 6.412,20.149 C6.533,20.125 6.655,20.101 6.776,20.077 C6.801,20.029 6.825,19.981 6.849,19.933 C6.898,19.933 6.946,19.933 6.995,19.933 C6.995,19.909 6.995,19.885 6.995,19.861 C7.044,19.861 7.092,19.861 7.141,19.861 C7.141,19.837 7.141,19.813 7.141,19.789 C7.189,19.789 7.238,19.789 7.286,19.789 C7.286,19.765 7.286,19.742 7.286,19.718 C7.335,19.718 7.384,19.718 7.432,19.718 C7.456,19.670 7.481,19.622 7.505,19.574 C7.554,19.574 7.602,19.574 7.651,19.574 C7.651,19.550 7.651,19.526 7.651,19.502 C7.724,19.478 7.796,19.454 7.869,19.430 C7.894,19.382 7.918,19.335 7.942,19.287 C7.991,19.287 8.039,19.287 8.088,19.287 C8.112,19.239 8.137,19.191 8.161,19.143 C8.209,19.143 8.258,19.143 8.307,19.143 C8.355,19.071 8.404,18.999 8.452,18.928 C8.501,18.928 8.549,18.928 8.598,18.928 C8.643,18.897 8.656,18.833 8.744,18.784 C8.744,18.760 8.744,18.736 8.744,18.712 C8.501,18.712 8.258,18.712 8.015,18.712 C8.015,18.688 8.015,18.664 8.015,18.640 C7.869,18.640 7.724,18.640 7.578,18.640 C7.578,18.616 7.578,18.592 7.578,18.568 C7.481,18.568 7.384,18.568 7.286,18.568 C7.286,18.544 7.286,18.521 7.286,18.497 C7.214,18.497 7.141,18.497 7.068,18.497 C7.068,18.473 7.068,18.449 7.068,18.425 C6.995,18.425 6.922,18.425 6.849,18.425 C6.849,18.401 6.849,18.377 6.849,18.353 C6.801,18.353 6.752,18.353 6.704,18.353 C6.704,18.329 6.704,18.305 6.704,18.281 C6.631,18.281 6.558,18.281 6.485,18.281 C6.485,18.257 6.485,18.233 6.485,18.209 C6.436,18.209 6.388,18.209 6.339,18.209 C6.339,18.185 6.339,18.161 6.339,18.137 C6.193,18.090 6.048,18.042 5.902,17.994 C5.878,17.946 5.853,17.898 5.829,17.850 C5.781,17.850 5.732,17.850 5.683,17.850 C5.659,17.802 5.635,17.754 5.611,17.707 C5.562,17.707 5.513,17.707 5.465,17.707 C5.416,17.635 5.368,17.563 5.319,17.491 C5.271,17.491 5.222,17.491 5.173,17.491 C4.979,17.276 4.785,17.060 4.590,16.845 C4.469,16.749 4.348,16.653 4.226,16.557 C4.226,16.509 4.226,16.462 4.226,16.414 C4.153,16.366 4.080,16.318 4.008,16.270 C4.008,16.222 4.008,16.174 4.008,16.126 C3.959,16.102 3.910,16.079 3.862,16.055 C3.838,15.959 3.813,15.863 3.789,15.767 C3.740,15.743 3.692,15.719 3.643,15.696 C3.643,15.648 3.643,15.600 3.643,15.552 C3.477,15.260 3.282,14.933 3.206,14.546 C3.814,14.612 5.464,14.764 5.829,14.403 C5.378,14.382 5.042,14.202 4.736,14.044 C4.688,14.044 4.639,14.044 4.590,14.044 C4.590,14.020 4.590,13.996 4.590,13.972 C4.542,13.972 4.493,13.972 4.445,13.972 C4.445,13.948 4.445,13.924 4.445,13.900 C4.396,13.900 4.348,13.900 4.299,13.900 C4.299,13.876 4.299,13.852 4.299,13.828 C4.202,13.804 4.105,13.780 4.008,13.756 C3.983,13.708 3.959,13.661 3.935,13.613 C3.886,13.613 3.838,13.613 3.789,13.613 C3.765,13.565 3.740,13.517 3.716,13.469 C3.668,13.469 3.619,13.469 3.570,13.469 C3.522,13.397 3.473,13.325 3.425,13.254 C3.376,13.254 3.327,13.254 3.279,13.254 C3.157,13.110 3.036,12.966 2.915,12.823 C1.900,11.823 1.082,10.447 1.093,8.441 C1.117,8.441 1.142,8.441 1.166,8.441 C1.447,8.765 2.552,9.017 3.060,9.160 C3.256,9.214 3.629,9.163 3.716,9.088 C3.318,8.985 3.095,8.623 2.842,8.370 C2.769,8.322 2.696,8.274 2.623,8.226 C2.623,8.178 2.623,8.130 2.623,8.082 C2.526,8.010 2.429,7.939 2.332,7.867 C2.332,7.819 2.332,7.771 2.332,7.723 C2.283,7.699 2.235,7.675 2.186,7.651 C2.186,7.603 2.186,7.556 2.186,7.508 C2.137,7.484 2.089,7.460 2.040,7.436 C2.016,7.340 1.992,7.244 1.967,7.149 C1.919,7.125 1.870,7.101 1.822,7.077 C1.797,6.957 1.773,6.837 1.749,6.718 C1.724,6.718 1.700,6.718 1.676,6.718 C1.652,6.622 1.627,6.526 1.603,6.430 C1.579,6.430 1.554,6.430 1.530,6.430 C1.530,6.359 1.530,6.287 1.530,6.215 C1.506,6.215 1.482,6.215 1.457,6.215 C1.457,6.143 1.457,6.071 1.457,5.999 C1.433,5.999 1.409,5.999 1.384,5.999 C1.384,5.904 1.384,5.808 1.384,5.712 C1.360,5.712 1.336,5.712 1.312,5.712 C1.312,5.616 1.312,5.521 1.312,5.425 C1.287,5.425 1.263,5.425 1.239,5.425 C1.239,5.281 1.239,5.138 1.239,4.994 C1.165,4.740 1.062,3.698 1.166,3.342 C1.263,2.935 1.360,2.528 1.457,2.121 C1.482,2.121 1.506,2.121 1.530,2.121 C1.530,2.073 1.530,2.025 1.530,1.977 C1.554,1.977 1.579,1.977 1.603,1.977 C1.603,1.906 1.603,1.834 1.603,1.762 C1.627,1.762 1.652,1.762 1.676,1.762 C1.762,1.587 1.852,1.377 1.894,1.187 C1.943,1.187 1.992,1.187 2.040,1.187 C2.064,1.259 2.089,1.331 2.113,1.403 C2.259,1.522 2.405,1.642 2.550,1.762 C2.575,1.834 2.599,1.906 2.623,1.977 C2.915,2.241 3.206,2.504 3.497,2.767 C3.643,2.935 3.789,3.103 3.935,3.270 C3.983,3.270 4.032,3.270 4.080,3.270 C4.202,3.414 4.323,3.557 4.445,3.701 C4.518,3.725 4.590,3.749 4.663,3.773 C4.712,3.845 4.760,3.917 4.809,3.988 C4.858,3.988 4.906,3.988 4.955,3.988 C5.003,4.060 5.052,4.132 5.101,4.204 C5.149,4.204 5.198,4.204 5.246,4.204 C5.295,4.276 5.343,4.348 5.392,4.419 C5.441,4.419 5.489,4.419 5.538,4.419 C5.562,4.467 5.586,4.515 5.611,4.563 C5.659,4.563 5.708,4.563 5.756,4.563 C5.781,4.611 5.805,4.659 5.829,4.707 C5.878,4.707 5.926,4.707 5.975,4.707 C5.999,4.755 6.023,4.802 6.048,4.850 C6.096,4.850 6.145,4.850 6.193,4.850 C6.218,4.898 6.242,4.946 6.266,4.994 C6.363,5.018 6.461,5.042 6.558,5.066 C6.582,5.114 6.606,5.162 6.631,5.209 C6.728,5.233 6.825,5.257 6.922,5.281 C6.946,5.329 6.971,5.377 6.995,5.425 C7.044,5.425 7.092,5.425 7.141,5.425 C7.141,5.449 7.141,5.473 7.141,5.497 C7.189,5.497 7.238,5.497 7.286,5.497 C7.286,5.521 7.286,5.545 7.286,5.569 C7.335,5.569 7.384,5.569 7.432,5.569 C7.432,5.592 7.432,5.616 7.432,5.640 C7.481,5.640 7.529,5.640 7.578,5.640 C7.578,5.664 7.578,5.688 7.578,5.712 C7.626,5.712 7.675,5.712 7.724,5.712 C7.724,5.736 7.724,5.760 7.724,5.784 C7.772,5.784 7.821,5.784 7.869,5.784 C7.869,5.808 7.869,5.832 7.869,5.856 C8.015,5.904 8.161,5.952 8.307,5.999 C8.307,6.023 8.307,6.047 8.307,6.071 C8.379,6.071 8.452,6.071 8.525,6.071 C8.525,6.095 8.525,6.119 8.525,6.143 C8.622,6.167 8.719,6.191 8.817,6.215 C8.817,6.239 8.817,6.263 8.817,6.287 C8.889,6.287 8.962,6.287 9.035,6.287 C9.035,6.311 9.035,6.335 9.035,6.359 C9.084,6.359 9.132,6.359 9.181,6.359 C9.181,6.382 9.181,6.406 9.181,6.430 C9.399,6.478 9.618,6.526 9.837,6.574 C11.058,7.051 12.628,7.412 14.281,7.436 C13.676,4.312 15.189,1.984 17.050,0.828 C17.147,0.804 17.245,0.780 17.342,0.756 C17.342,0.732 17.342,0.708 17.342,0.685 C17.487,0.637 17.633,0.589 17.779,0.541 C17.779,0.517 17.779,0.493 17.779,0.469 C17.852,0.469 17.925,0.469 17.997,0.469 C17.997,0.445 17.997,0.421 17.997,0.397 C18.046,0.397 18.095,0.397 18.143,0.397 C18.143,0.373 18.143,0.349 18.143,0.325 C18.313,0.302 18.483,0.278 18.653,0.254 C18.653,0.230 18.653,0.206 18.653,0.182 C18.932,0.091 20.371,-0.073 20.766,0.038 C20.766,0.062 20.766,0.086 20.766,0.110 C20.936,0.110 21.106,0.110 21.276,0.110 C21.276,0.134 21.276,0.158 21.276,0.182 C21.471,0.206 21.665,0.230 21.859,0.254 C21.859,0.278 21.859,0.302 21.859,0.325 C21.932,0.325 22.005,0.325 22.078,0.325 C22.078,0.349 22.078,0.373 22.078,0.397 C22.199,0.421 22.321,0.445 22.442,0.469 C22.442,0.493 22.442,0.517 22.442,0.541 C22.539,0.565 22.637,0.589 22.734,0.613 C22.734,0.637 22.734,0.661 22.734,0.685 C22.831,0.708 22.928,0.732 23.025,0.756 C23.049,0.804 23.074,0.852 23.098,0.900 C23.195,0.924 23.292,0.948 23.389,0.972 C23.414,1.020 23.438,1.068 23.462,1.115 C23.511,1.115 23.559,1.115 23.608,1.115 C23.681,1.211 23.754,1.307 23.827,1.403 C23.875,1.403 23.924,1.403 23.972,1.403 C23.997,1.451 24.021,1.499 24.045,1.546 C24.142,1.618 24.240,1.690 24.337,1.762 C24.361,1.810 24.385,1.858 24.410,1.906 C24.531,1.906 24.652,1.906 24.774,1.906 C24.943,1.759 25.123,1.845 25.357,1.762 C25.357,1.738 25.357,1.714 25.357,1.690 C25.430,1.690 25.503,1.690 25.575,1.690 C25.575,1.666 25.575,1.642 25.575,1.618 C25.673,1.618 25.770,1.618 25.867,1.618 C25.867,1.594 25.867,1.570 25.867,1.546 C25.940,1.546 26.013,1.546 26.085,1.546 C26.085,1.522 26.085,1.499 26.085,1.475 C26.134,1.475 26.183,1.475 26.231,1.475 C26.231,1.451 26.231,1.427 26.231,1.403 C26.304,1.403 26.377,1.403 26.450,1.403 C26.450,1.379 26.450,1.355 26.450,1.331 C26.498,1.331 26.547,1.331 26.595,1.331 C26.595,1.307 26.595,1.283 26.595,1.259 C26.668,1.259 26.741,1.259 26.814,1.259 C26.814,1.235 26.814,1.211 26.814,1.187 C26.863,1.187 26.911,1.187 26.960,1.187 C26.960,1.163 26.960,1.139 26.960,1.115 C27.057,1.092 27.154,1.068 27.251,1.044 C27.251,1.020 27.251,0.996 27.251,0.972 C27.348,0.948 27.446,0.924 27.543,0.900 C27.786,0.756 28.029,0.613 28.271,0.469 C28.271,0.517 28.271,0.565 28.271,0.613 C28.247,0.613 28.223,0.613 28.198,0.613 C28.198,0.685 28.198,0.756 28.198,0.828 C28.174,0.828 28.150,0.828 28.126,0.828 C28.101,0.924 28.077,1.020 28.053,1.115 C28.028,1.115 28.004,1.115 27.980,1.115 C27.980,1.187 27.980,1.259 27.980,1.331 C27.956,1.331 27.931,1.331 27.907,1.331 C27.907,1.379 27.907,1.427 27.907,1.475 C27.858,1.499 27.810,1.522 27.761,1.546 C27.713,1.690 27.664,1.834 27.616,1.977 C27.567,2.001 27.518,2.025 27.470,2.049 C27.470,2.097 27.470,2.145 27.470,2.193 C27.397,2.241 27.324,2.289 27.251,2.336 C27.251,2.384 27.251,2.432 27.251,2.480 C27.154,2.552 27.057,2.624 26.960,2.696 C26.595,3.058 26.295,3.472 25.794,3.701 C25.794,3.725 25.794,3.749 25.794,3.773 C25.915,3.773 26.037,3.773 26.158,3.773 C26.158,3.749 26.158,3.725 26.158,3.701 C26.304,3.701 26.450,3.701 26.595,3.701 C26.595,3.677 26.595,3.653 26.595,3.629 C26.693,3.629 26.790,3.629 26.887,3.629 C26.887,3.605 26.887,3.581 26.887,3.557 C26.984,3.557 27.081,3.557 27.178,3.557 C27.786,3.342 28.393,3.127 29.000,2.911 Z"/>
</svg>