<svg 
 xmlns="http://www.w3.org/2000/svg"
 xmlns:xlink="http://www.w3.org/1999/xlink"
 width="42px" height="29px">
<path fill-rule="evenodd"  fill="rgb(255, 255, 255)"
 d="M15.302,0.045 C17.619,0.045 19.937,0.045 22.254,0.045 C23.346,0.045 24.819,-0.109 25.730,0.147 C26.037,0.147 26.344,0.147 26.651,0.147 C27.592,0.148 28.849,0.034 29.616,0.249 C30.468,0.249 31.320,0.249 32.172,0.249 C32.172,0.283 32.172,0.318 32.172,0.352 C32.513,0.352 32.853,0.352 33.194,0.352 C33.876,0.386 34.558,0.420 35.239,0.454 C35.239,0.488 35.239,0.522 35.239,0.556 C35.478,0.556 35.716,0.556 35.955,0.556 C37.082,0.890 37.882,1.278 38.715,1.886 C38.715,1.921 38.715,1.955 38.715,1.989 C38.818,2.057 38.920,2.125 39.022,2.193 C39.022,2.262 39.022,2.330 39.022,2.398 C39.124,2.466 39.227,2.534 39.329,2.603 C39.329,2.671 39.329,2.739 39.329,2.807 C39.397,2.841 39.465,2.875 39.533,2.910 C39.568,3.046 39.602,3.182 39.636,3.319 C39.670,3.319 39.704,3.319 39.738,3.319 C39.738,3.387 39.738,3.455 39.738,3.523 C39.772,3.523 39.806,3.523 39.840,3.523 C39.874,3.694 39.908,3.865 39.942,4.035 C39.976,4.035 40.011,4.035 40.045,4.035 C40.079,4.240 40.113,4.444 40.147,4.649 C40.181,4.649 40.215,4.649 40.249,4.649 C40.283,4.922 40.317,5.195 40.351,5.467 C40.385,5.467 40.420,5.467 40.454,5.467 C40.454,5.638 40.454,5.809 40.454,5.979 C40.488,5.979 40.522,5.979 40.556,5.979 C40.590,6.559 40.624,7.139 40.658,7.718 C40.692,7.718 40.726,7.718 40.760,7.718 C40.760,8.162 40.760,8.605 40.760,9.049 C40.794,9.049 40.829,9.049 40.863,9.049 C40.863,9.594 40.863,10.140 40.863,10.686 C41.092,11.512 40.965,12.854 40.965,13.857 C40.965,18.788 41.120,25.472 38.306,27.465 C38.238,27.465 38.170,27.465 38.102,27.465 C38.068,27.533 38.034,27.602 38.000,27.670 C37.898,27.704 37.795,27.738 37.693,27.772 C37.693,27.806 37.693,27.840 37.693,27.875 C37.625,27.875 37.557,27.875 37.489,27.875 C37.489,27.909 37.489,27.943 37.489,27.977 C37.352,28.011 37.216,28.045 37.080,28.079 C37.080,28.113 37.080,28.147 37.080,28.181 C36.977,28.181 36.875,28.181 36.773,28.181 C36.773,28.216 36.773,28.250 36.773,28.284 C36.637,28.284 36.500,28.284 36.364,28.284 C36.364,28.318 36.364,28.352 36.364,28.386 C36.228,28.386 36.091,28.386 35.955,28.386 C35.955,28.420 35.955,28.454 35.955,28.488 C35.682,28.488 35.410,28.488 35.137,28.488 C35.137,28.523 35.137,28.557 35.137,28.591 C34.694,28.591 34.251,28.591 33.808,28.591 C33.808,28.625 33.808,28.659 33.808,28.693 C33.160,28.693 32.513,28.693 31.865,28.693 C31.865,28.727 31.865,28.761 31.865,28.795 C31.013,28.795 30.161,28.795 29.309,28.795 C28.511,29.017 27.215,28.896 26.242,28.898 C25.969,28.898 25.696,28.898 25.424,28.898 C25.424,28.932 25.424,28.966 25.424,29.000 C24.265,29.000 23.106,29.000 21.947,29.000 C20.175,29.000 18.403,29.000 16.631,29.000 C16.631,28.966 16.631,28.932 16.631,28.898 C16.358,28.898 16.085,28.898 15.813,28.898 C14.629,28.896 13.028,29.076 12.030,28.795 C11.076,28.795 10.121,28.795 9.167,28.795 C9.167,28.761 9.167,28.727 9.167,28.693 C8.519,28.693 7.872,28.693 7.224,28.693 C7.224,28.659 7.224,28.625 7.224,28.591 C6.918,28.591 6.611,28.591 6.304,28.591 C6.304,28.557 6.304,28.523 6.304,28.488 C6.031,28.488 5.759,28.488 5.486,28.488 C5.486,28.454 5.486,28.420 5.486,28.386 C5.282,28.386 5.077,28.386 4.873,28.386 C4.873,28.352 4.873,28.318 4.873,28.284 C4.736,28.284 4.600,28.284 4.464,28.284 C4.464,28.250 4.464,28.216 4.464,28.181 C4.361,28.181 4.259,28.181 4.157,28.181 C4.157,28.147 4.157,28.113 4.157,28.079 C4.055,28.079 3.952,28.079 3.850,28.079 C3.850,28.045 3.850,28.011 3.850,27.977 C3.646,27.909 3.441,27.840 3.237,27.772 C3.237,27.738 3.237,27.704 3.237,27.670 C3.169,27.670 3.100,27.670 3.032,27.670 C2.998,27.602 2.964,27.533 2.930,27.465 C2.862,27.465 2.794,27.465 2.725,27.465 C2.487,27.192 2.248,26.920 2.010,26.647 C1.908,26.579 1.805,26.510 1.703,26.442 C1.703,26.374 1.703,26.306 1.703,26.237 C1.635,26.203 1.567,26.169 1.499,26.135 C1.464,25.999 1.430,25.862 1.396,25.726 C1.362,25.726 1.328,25.726 1.294,25.726 C1.294,25.658 1.294,25.589 1.294,25.521 C1.260,25.521 1.226,25.521 1.192,25.521 C1.158,25.351 1.124,25.180 1.090,25.010 C1.055,25.010 1.021,25.010 0.987,25.010 C0.953,24.805 0.919,24.600 0.885,24.396 C0.851,24.396 0.817,24.396 0.783,24.396 C0.749,24.123 0.715,23.850 0.681,23.577 C0.646,23.577 0.612,23.577 0.578,23.577 C0.578,23.407 0.578,23.236 0.578,23.066 C0.544,23.066 0.510,23.066 0.476,23.066 C0.442,22.486 0.408,21.906 0.374,21.326 C0.340,21.326 0.306,21.326 0.272,21.326 C0.272,20.883 0.272,20.440 0.272,19.996 C0.238,19.996 0.203,19.996 0.169,19.996 C0.169,19.451 0.169,18.905 0.169,18.359 C-0.092,17.417 0.067,15.903 0.067,14.778 C0.067,13.504 -0.135,11.771 0.169,10.686 C0.169,10.140 0.169,9.594 0.169,9.049 C0.203,9.049 0.238,9.049 0.272,9.049 C0.272,8.605 0.272,8.162 0.272,7.718 C0.306,7.718 0.340,7.718 0.374,7.718 C0.374,7.377 0.374,7.036 0.374,6.695 C0.408,6.695 0.442,6.695 0.476,6.695 C0.476,6.457 0.476,6.218 0.476,5.979 C0.510,5.979 0.544,5.979 0.578,5.979 C0.578,5.809 0.578,5.638 0.578,5.467 C0.612,5.467 0.646,5.467 0.681,5.467 C0.681,5.331 0.681,5.195 0.681,5.058 C0.715,5.058 0.749,5.058 0.783,5.058 C0.783,4.922 0.783,4.785 0.783,4.649 C0.817,4.649 0.851,4.649 0.885,4.649 C0.885,4.547 0.885,4.444 0.885,4.342 C0.919,4.342 0.953,4.342 0.987,4.342 C0.987,4.240 0.987,4.137 0.987,4.035 C1.021,4.035 1.055,4.035 1.090,4.035 C1.090,3.967 1.090,3.899 1.090,3.830 C1.124,3.830 1.158,3.830 1.192,3.830 C1.294,3.524 1.396,3.217 1.499,2.910 C1.567,2.875 1.635,2.841 1.703,2.807 C1.703,2.739 1.703,2.671 1.703,2.603 C1.805,2.534 1.908,2.466 2.010,2.398 C2.010,2.330 2.010,2.262 2.010,2.193 C2.112,2.125 2.214,2.057 2.316,1.989 C2.316,1.955 2.316,1.921 2.316,1.886 C2.385,1.886 2.453,1.886 2.521,1.886 C2.623,1.750 2.725,1.614 2.828,1.477 C2.896,1.477 2.964,1.477 3.032,1.477 C3.066,1.409 3.100,1.341 3.134,1.273 C3.203,1.273 3.271,1.273 3.339,1.273 C3.339,1.238 3.339,1.204 3.339,1.170 C3.543,1.102 3.748,1.034 3.952,0.966 C3.952,0.931 3.952,0.897 3.952,0.863 C4.157,0.829 4.361,0.795 4.566,0.761 C4.566,0.727 4.566,0.693 4.566,0.659 C4.736,0.659 4.907,0.659 5.077,0.659 C5.077,0.625 5.077,0.590 5.077,0.556 C5.316,0.556 5.554,0.556 5.793,0.556 C5.793,0.522 5.793,0.488 5.793,0.454 C6.202,0.454 6.611,0.454 7.020,0.454 C7.020,0.420 7.020,0.386 7.020,0.352 C7.497,0.352 7.974,0.352 8.451,0.352 C8.656,0.318 8.860,0.283 9.065,0.249 C9.848,0.249 10.632,0.249 11.416,0.249 C11.416,0.215 11.416,0.181 11.416,0.147 C12.370,0.147 13.325,0.147 14.279,0.147 C14.624,0.147 15.114,0.207 15.302,0.045 ZM16.324,19.792 C16.682,19.724 16.884,19.528 17.142,19.382 C17.210,19.382 17.278,19.382 17.346,19.382 C17.380,19.314 17.415,19.246 17.449,19.178 C17.517,19.178 17.585,19.178 17.653,19.178 C17.653,19.144 17.653,19.110 17.653,19.075 C17.721,19.075 17.789,19.075 17.858,19.075 C17.858,19.041 17.858,19.007 17.858,18.973 C17.926,18.973 17.994,18.973 18.062,18.973 C18.062,18.939 18.062,18.905 18.062,18.871 C18.130,18.871 18.198,18.871 18.267,18.871 C18.267,18.837 18.267,18.803 18.267,18.768 C18.335,18.768 18.403,18.768 18.471,18.768 C18.471,18.734 18.471,18.700 18.471,18.666 C18.539,18.666 18.607,18.666 18.676,18.666 C18.676,18.632 18.676,18.598 18.676,18.564 C18.744,18.564 18.812,18.564 18.880,18.564 C18.880,18.530 18.880,18.496 18.880,18.462 C18.948,18.462 19.016,18.462 19.085,18.462 C19.085,18.427 19.085,18.393 19.085,18.359 C19.153,18.359 19.221,18.359 19.289,18.359 C19.289,18.325 19.289,18.291 19.289,18.257 C19.425,18.223 19.562,18.189 19.698,18.155 C19.732,18.086 19.766,18.018 19.800,17.950 C19.868,17.950 19.937,17.950 20.005,17.950 C20.005,17.916 20.005,17.882 20.005,17.848 C20.073,17.848 20.141,17.848 20.209,17.848 C20.209,17.814 20.209,17.779 20.209,17.745 C20.277,17.745 20.346,17.745 20.414,17.745 C20.414,17.711 20.414,17.677 20.414,17.643 C20.482,17.643 20.550,17.643 20.618,17.643 C20.618,17.609 20.618,17.575 20.618,17.541 C20.686,17.541 20.755,17.541 20.823,17.541 C20.823,17.507 20.823,17.472 20.823,17.438 C20.891,17.438 20.959,17.438 21.027,17.438 C21.027,17.404 21.027,17.370 21.027,17.336 C21.095,17.336 21.164,17.336 21.232,17.336 C21.232,17.302 21.232,17.268 21.232,17.234 C21.300,17.234 21.368,17.234 21.436,17.234 C21.436,17.200 21.436,17.166 21.436,17.131 C21.504,17.131 21.573,17.131 21.641,17.131 C21.641,17.097 21.641,17.063 21.641,17.029 C21.709,17.029 21.777,17.029 21.845,17.029 C21.845,16.995 21.845,16.961 21.845,16.927 C21.913,16.927 21.981,16.927 22.050,16.927 C22.050,16.893 22.050,16.859 22.050,16.824 C22.118,16.824 22.186,16.824 22.254,16.824 C22.288,16.756 22.322,16.688 22.356,16.620 C22.493,16.586 22.629,16.552 22.765,16.518 C22.765,16.483 22.765,16.449 22.765,16.415 C22.834,16.415 22.902,16.415 22.970,16.415 C22.970,16.381 22.970,16.347 22.970,16.313 C23.038,16.313 23.106,16.313 23.174,16.313 C23.174,16.279 23.174,16.245 23.174,16.211 C23.242,16.211 23.311,16.211 23.379,16.211 C23.379,16.176 23.379,16.142 23.379,16.108 C23.447,16.108 23.515,16.108 23.583,16.108 C23.583,16.074 23.583,16.040 23.583,16.006 C23.651,16.006 23.720,16.006 23.788,16.006 C23.788,15.972 23.788,15.938 23.788,15.904 C23.856,15.904 23.924,15.904 23.992,15.904 C23.992,15.870 23.992,15.835 23.992,15.801 C24.060,15.801 24.129,15.801 24.197,15.801 C24.197,15.767 24.197,15.733 24.197,15.699 C24.265,15.699 24.333,15.699 24.401,15.699 C24.401,15.665 24.401,15.631 24.401,15.597 C24.469,15.597 24.538,15.597 24.606,15.597 C24.640,15.528 24.674,15.460 24.708,15.392 C24.844,15.358 24.981,15.324 25.117,15.290 C25.117,15.256 25.117,15.222 25.117,15.187 C25.185,15.187 25.253,15.187 25.321,15.187 C25.321,15.153 25.321,15.119 25.321,15.085 C25.390,15.085 25.458,15.085 25.526,15.085 C25.526,15.051 25.526,15.017 25.526,14.983 C25.594,14.983 25.662,14.983 25.730,14.983 C25.730,14.949 25.730,14.915 25.730,14.880 C25.799,14.880 25.867,14.880 25.935,14.880 C25.935,14.846 25.935,14.812 25.935,14.778 C26.401,14.528 26.948,14.452 27.264,14.062 C23.618,12.152 19.970,10.242 16.324,8.332 C16.324,12.152 16.324,15.972 16.324,19.792 Z"/>
</svg>