<svg xmlns="http://www.w3.org/2000/svg" width="44" height="38" viewBox="0 0 44 38"><g transform="translate(-7.061 -12.721)"><path d="M35.9,31.622c4.634,0,8.4-4.484,8.4-10,0-5.243-3.456-8.906-8.4-8.906s-8.4,3.663-8.4,8.906C27.5,27.138,31.268,31.622,35.9,31.622Zm0-16.352c3.5,0,5.843,2.555,5.843,6.357,0,4.106-2.621,7.447-5.843,7.447s-5.842-3.341-5.842-7.447C30.059,17.823,32.406,15.269,35.9,15.269ZM51.052,44.386c-.022-1.351-.03-1.7-.046-1.852-.688-6.265-5.981-9.717-14.9-9.717-.057,0-.113,0-.17,0H35.87c-.056,0-.112,0-.171,0-8.923,0-14.216,3.451-14.9,9.716-.016.147-.024.432-.044,1.691l-.012.719c0,.03.006.058.007.088s.005.09.012.135a.992.992,0,0,0,.028.121c.01.04.02.078.034.117a1.062,1.062,0,0,0,.051.114,1.171,1.171,0,0,0,.057.11,1.183,1.183,0,0,0,.071.1c.025.033.049.067.078.1s.064.062.1.092.041.043.065.061A23.562,23.562,0,0,0,35.9,50.721h0a24.136,24.136,0,0,0,14.612-4.708l0,0,.036-.026c.024-.018.043-.041.065-.06s.071-.061.1-.095.052-.064.077-.1.05-.066.072-.1.039-.073.058-.111.036-.073.051-.112.024-.08.035-.119a1.188,1.188,0,0,0,.028-.119,1.135,1.135,0,0,0,.012-.138c0-.029.008-.058.007-.088ZM35.9,48.173h0a21.144,21.144,0,0,1-12.585-3.842v-.066c.008-.532.021-1.336.029-1.455.673-6.152,7.091-7.444,12.355-7.444l.174.005a.528.528,0,0,0,.057,0l.172-.005c5.264,0,11.682,1.292,12.354,7.415.01.147.024.982.033,1.544A21.668,21.668,0,0,1,35.9,48.173ZM23.969,30.348a1.277,1.277,0,0,0-1.281-1.274H16.8V23.212a1.281,1.281,0,0,0-2.562,0v5.861H8.342a1.274,1.274,0,1,0,0,2.548h5.892v5.861a1.281,1.281,0,0,0,2.562,0V31.622h5.892A1.278,1.278,0,0,0,23.969,30.348Z" transform="translate(0 0)"/></g></svg>