<svg xmlns="http://www.w3.org/2000/svg" width="44" height="44" viewBox="0 0 44 44"><g transform="translate(-0.895 -0.961)"><path d="M82.436,27.527A4.978,4.978,0,0,0,80.971,22.5a3.215,3.215,0,0,0-1.792-.843,2.09,2.09,0,0,0-.367.547,2.329,2.329,0,0,0-.242.52c.193.35.5.745.771,1.211a6.536,6.536,0,0,1,.977,3.256c.022.543,0,1.045,0,1.444a2.724,2.724,0,0,0,.551.341,1.679,1.679,0,0,0,.511.215,3.2,3.2,0,0,0,1.057-1.668Z" transform="translate(-42.875 -11.415)"/><path d="M82.775,9.238c-.067-.022-.26.211-.421.516s-.228.516-.188.552a21.037,21.037,0,0,1,2.549,2.651,12.779,12.779,0,0,1,2.661,9.033,21.188,21.188,0,0,1-.708,3.615c0,.063.224.242.52.395s.5.206.542.157a9.24,9.24,0,0,0,1.761-3.835,11.886,11.886,0,0,0-3.167-10.809,9.255,9.255,0,0,0-3.548-2.274Z" transform="translate(-44.854 -4.564)"/><path d="M12.615,24.814a4.939,4.939,0,0,0,0,2.718A3.2,3.2,0,0,0,13.655,29.2a2.051,2.051,0,0,0,.591-.26,2.24,2.24,0,0,0,.47-.3c.027-.4,0-.9,0-1.444a6.536,6.536,0,0,1,.959-3.247c.273-.449.578-.861.771-1.211a2.8,2.8,0,0,0-.287-.6,1.731,1.731,0,0,0-.34-.471,3.215,3.215,0,0,0-1.792.843,4.935,4.935,0,0,0-1.411,2.3Z" transform="translate(-6.364 -11.42)"/><path d="M2.913,26.182c.045.054.323-.036.618-.2s.448-.3.448-.354a21.182,21.182,0,0,1-.708-3.615,12.779,12.779,0,0,1,2.661-9.033,21.034,21.034,0,0,1,2.549-2.651c.045-.045-.058-.332-.228-.628s-.318-.449-.381-.449A9.255,9.255,0,0,0,4.32,11.528,11.886,11.886,0,0,0,1.152,22.338a9.24,9.24,0,0,0,1.761,3.844Z" transform="translate(0 -4.571)"/><path d="M47.774,89.7a4.009,4.009,0,0,1-.9,1.144,2.238,2.238,0,0,1-2.948,0,4,4,0,0,1-.9-1.139,2.685,2.685,0,0,0-.663-.045,1.343,1.343,0,0,0-.569.067,2.47,2.47,0,0,0-.1,1.09,3.3,3.3,0,0,0,.569,1.377,3.644,3.644,0,0,0,1.286,1.2,3.831,3.831,0,0,0,3.7,0,3.635,3.635,0,0,0,1.286-1.2,3.294,3.294,0,0,0,.52-1.381,2.456,2.456,0,0,0-.072-1.09,1.593,1.593,0,0,0-.641-.063A2.161,2.161,0,0,0,47.774,89.7Z" transform="translate(-22.513 -48.91)"/><path d="M42.152,37.757a4.516,4.516,0,0,0,3.8-2.382,4.889,4.889,0,0,0,.4-3.315,4.52,4.52,0,0,0-.4-1.063,4.756,4.756,0,0,0-.3-.48c-.054-.076-.112-.152-.17-.224l-.161-.161-.547-.628-.273-.314-.228-.309a5.613,5.613,0,0,1-.426-.543,5.9,5.9,0,0,1-.9-2.53,6.191,6.191,0,0,1-.04-.677V22.786l-.04-3.027c0-.5,0-.96-.036-1.507a7.291,7.291,0,0,0-.081-.789,6.4,6.4,0,0,0-.166-.785,10.5,10.5,0,0,0-1.039-2.853,10.792,10.792,0,0,0-5.918-5.041c-.336-.117-.672-.215-1-.3a22.836,22.836,0,0,0,.417-3.2V4.7a3.35,3.35,0,0,0-.085-.78,3.765,3.765,0,0,0-.694-1.48,3.806,3.806,0,0,0-6.017,0,3.76,3.76,0,0,0-.69,1.48,3.359,3.359,0,0,0-.085.78v.588a22.36,22.36,0,0,0,.448,3.238,10.814,10.814,0,0,0-5.69,3.557,10.2,10.2,0,0,0-1.519,2.4,11.338,11.338,0,0,0-.529,1.4,12.082,12.082,0,0,0-.417,3.059l-.022,1.467-.04,3.027V25a7.553,7.553,0,0,1-.094,1.4,5.906,5.906,0,0,1-1.048,2.476,6.182,6.182,0,0,1-.448.529l-.273.278-.3.292-.152.148-.193.206a4.471,4.471,0,0,0-1.057,3.691A4.426,4.426,0,0,0,16.49,35.1a4.222,4.222,0,0,0,.609,1,4.539,4.539,0,0,0,1.882,1.346,4.923,4.923,0,0,0,1.107.283,5.394,5.394,0,0,0,.569.04H21.1l3.45-.018h17.6Zm-10.56-2.431-7.038.009H20.361a2.516,2.516,0,0,1-.56-.135,2.159,2.159,0,0,1-.9-.61,1.83,1.83,0,0,1-.273-.449,2.074,2.074,0,0,1-.166-.529,2.128,2.128,0,0,1,.081-1.072,2.028,2.028,0,0,1,.237-.484,2.068,2.068,0,0,1,.161-.215l.09-.1.143-.144.291-.3.323-.341a8.411,8.411,0,0,0,.591-.749,8.105,8.105,0,0,0,1.384-3.454,8.324,8.324,0,0,0,.085-.9v-2.4l-.04-3.028-.022-1.467a9.43,9.43,0,0,1,.049-1.314,9.6,9.6,0,0,1,.2-1.238,9.709,9.709,0,0,1,.39-1.162A8.6,8.6,0,0,1,23.6,13.21a9.514,9.514,0,0,1,3.315-2.736,10.085,10.085,0,0,1,3.512-1.018.623.623,0,0,0,.52-.668.569.569,0,0,0-.582-.529,10.423,10.423,0,0,0-1.062.067,24.371,24.371,0,0,0,.376-3.005V4.836a1.347,1.347,0,0,1,.081-.314A1.664,1.664,0,0,1,30.1,3.97a1.558,1.558,0,0,1,2.316,0,1.66,1.66,0,0,1,.327.552,1.347,1.347,0,0,1,.076.309v.48a24.86,24.86,0,0,0,.363,2.96,11.38,11.38,0,0,0-1.738-.063.619.619,0,0,0,0,1.229,10.474,10.474,0,0,1,3.584.794,10.023,10.023,0,0,1,3.486,2.516,9.76,9.76,0,0,1,1.308,1.965,8.74,8.74,0,0,1,.762,2.355,4.805,4.805,0,0,1,.081.632,5.573,5.573,0,0,1,.045.646v1.426l-.04,3.028v2.346a8.439,8.439,0,0,0,.036.9,8.115,8.115,0,0,0,1.187,3.53,7.867,7.867,0,0,0,.587.767l.282.341.269.318.538.637.108.135.081.108a2.272,2.272,0,0,1,.116,2.377,2.11,2.11,0,0,1-1.792,1.09h-3.45Z" transform="translate(-8.38 0)"/><path d="M38.206,28.276a5.719,5.719,0,0,0-3,2.839,5.5,5.5,0,0,0-.524,2.153v.511l.027.422.067.812a11.961,11.961,0,0,0,.448,2.539,1.58,1.58,0,0,0,.659.072,1.343,1.343,0,0,0,.573-.072,11.956,11.956,0,0,0,.448-2.539l.067-.812L37,33.779l.031-.35a4.251,4.251,0,0,1,.372-1.265,4.954,4.954,0,0,1,1.77-1.978,10.066,10.066,0,0,1,1.967-.951,1.8,1.8,0,0,0,.063-.65,1.127,1.127,0,0,0-.076-.552,4.556,4.556,0,0,0-2.917.242Z" transform="translate(-18.649 -14.855)"/></g></svg>