<svg xmlns="http://www.w3.org/2000/svg" width="40.4" height="40.4" viewBox="0 0 40.4 40.4"><g transform="translate(-5.466 -5.457)"><path d="M45.667,25.662A20.036,20.036,0,1,1,37.946,9.9V6.748a1.091,1.091,0,0,1,2.182,0v5.547a1.1,1.1,0,0,1-1.091,1.091H33.489a1.091,1.091,0,1,1,0-2.181h2.56a17.8,17.8,0,1,0,7.436,14.458,1.091,1.091,0,0,1,2.182,0ZM26.757,11.484a1.091,1.091,0,0,0-2.182,0V25.21l-9.711,9.709a1.091,1.091,0,0,0,1.543,1.542L26.438,26.433a1.091,1.091,0,0,0,.32-.771ZM11.8,24.888a1.091,1.091,0,1,0,1.549,0A1.146,1.146,0,0,0,11.8,24.888ZM24.892,37.975a1.124,1.124,0,0,0-.316.774,1.08,1.08,0,0,0,1.091,1.091,1.128,1.128,0,0,0,.774-.316,1.1,1.1,0,0,0-1.549-1.549ZM37.982,24.888a1.143,1.143,0,0,0-.316.774,1.123,1.123,0,0,0,.316.774,1.106,1.106,0,0,0,1.549,0,1.128,1.128,0,0,0,.316-.774,1.091,1.091,0,0,0-1.865-.774Z"/><path d="M25.666,45.657a20.02,20.02,0,0,0,20-20,1.091,1.091,0,0,0-2.182,0A17.857,17.857,0,1,1,36.049,11.2h-2.56a1.091,1.091,0,1,0,0,2.181h5.548a1.1,1.1,0,0,0,1.091-1.091V6.748a1.091,1.091,0,0,0-2.182,0V9.9a19.991,19.991,0,1,0-12.28,35.758m0-5.817a1.128,1.128,0,0,0,.774-.316,1.1,1.1,0,0,0-1.549-1.549,1.124,1.124,0,0,0-.316.774,1.08,1.08,0,0,0,1.091,1.091M15.635,36.781a1.087,1.087,0,0,0,.771-.32L26.438,26.433a1.091,1.091,0,0,0,.32-.771V11.484a1.091,1.091,0,0,0-2.182,0V25.21l-9.711,9.709a1.091,1.091,0,0,0,.771,1.862M38.757,26.753a1.15,1.15,0,0,0,.774-.316,1.128,1.128,0,0,0,.316-.774,1.091,1.091,0,1,0-2.182,0,1.123,1.123,0,0,0,.316.774,1.148,1.148,0,0,0,.774.316m-26.181,0a1.08,1.08,0,1,0-.774-.316,1.149,1.149,0,0,0,.774.316m13.091,19.1a20.2,20.2,0,1,1,0-40.39,19.946,19.946,0,0,1,12.08,4.027V6.748a1.291,1.291,0,0,1,2.582,0v5.547a1.3,1.3,0,0,1-1.291,1.291H33.489a1.291,1.291,0,1,1,0-2.581H35.41a17.439,17.439,0,0,0-9.744-2.956A17.614,17.614,0,1,0,43.285,25.662a1.291,1.291,0,0,1,2.582,0A20.221,20.221,0,0,1,25.666,45.857Zm0-5.817a1.345,1.345,0,0,1-.912-.371l-.008-.008a1.344,1.344,0,0,1-.371-.912,1.322,1.322,0,0,1,.371-.912l.005-.005a1.321,1.321,0,0,1,.918-.359,1.292,1.292,0,0,1,.912.361l0,0a1.305,1.305,0,0,1,0,1.823l-.008.008A1.326,1.326,0,0,1,25.666,40.04ZM15.635,36.981a1.29,1.29,0,0,1-.913-2.2l9.653-9.65V11.484a1.291,1.291,0,0,1,2.582,0V25.662a1.3,1.3,0,0,1-.378.912L16.548,36.6A1.282,1.282,0,0,1,15.635,36.981ZM38.757,26.953a1.343,1.343,0,0,1-.912-.371l-.007-.007a1.322,1.322,0,0,1-.371-.912,1.34,1.34,0,0,1,.371-.912l0,0a1.342,1.342,0,0,1,1.832,0l0,0a1.344,1.344,0,0,1,.371.912,1.326,1.326,0,0,1-.371.912l-.008.008A1.347,1.347,0,0,1,38.757,26.953Zm-26.181,0a1.345,1.345,0,0,1-.912-.371l-.008-.008a1.306,1.306,0,0,1,0-1.824l.006-.006a1.342,1.342,0,0,1,1.828,0l.006.006a1.306,1.306,0,0,1,0,1.823l-.008.008A1.345,1.345,0,0,1,12.576,26.953Z"/></g></svg>