<svg xmlns="http://www.w3.org/2000/svg" width="36" height="45" viewBox="0 0 36 45"><g transform="translate(-10.52 -1)"><path d="M71.08,24.158a1.144,1.144,0,0,0,1.139,1.148h2.552a1.148,1.148,0,0,0,0-2.3H72.219A1.144,1.144,0,0,0,71.08,24.158Z" transform="translate(-32.957 -11.903)"/><path d="M32.66,24.158A1.144,1.144,0,0,0,33.8,25.306h2.552a1.148,1.148,0,0,0,0-2.3H33.8A1.144,1.144,0,0,0,32.66,24.158Z" transform="translate(-12.049 -11.903)"/><path d="M56.949,4.719V2.148a1.14,1.14,0,1,0-2.279,0V4.719a1.14,1.14,0,1,0,2.279,0Z" transform="translate(-24.027)"/><path d="M68.424,7.783,66.6,9.62a1.155,1.155,0,0,0,0,1.626,1.135,1.135,0,0,0,1.614,0l1.823-1.837a1.155,1.155,0,0,0,0-1.626,1.135,1.135,0,0,0-1.614,0Z" transform="translate(-30.338 -3.487)"/><path d="M42.031,11.541a1.139,1.139,0,0,0,1.055-.708,1.154,1.154,0,0,0-.248-1.252L41.015,7.743a1.135,1.135,0,0,0-1.614,0,1.155,1.155,0,0,0,0,1.626l1.823,1.837A1.131,1.131,0,0,0,42.031,11.541Z" transform="translate(-15.535 -3.465)"/><path d="M12.8,29.934a2.287,2.287,0,0,0-2.279,2.3V52.324a2.287,2.287,0,0,0,2.279,2.3h6.6a2.286,2.286,0,0,0,2.279-2.135l1.413.854a8.612,8.612,0,0,0,4.453,1.244h9.631a8.356,8.356,0,0,0,3.391-.68c3.077-1.378,3.56-3.8,3.332-5.4a5.075,5.075,0,0,0,1.481-5.611,5.038,5.038,0,0,0,1.139-3.311,4.835,4.835,0,0,0-.934-2.613,4.232,4.232,0,0,0-1.044-4.812q-.141-.133-.3-.253a4.319,4.319,0,0,0-1.75-.781h-.05A33.948,33.948,0,0,0,34.4,30.43a10.945,10.945,0,0,1,.793-4.89c.834-2.539.761-4.638-.219-6.24A5.143,5.143,0,0,0,31.3,16.94h-.141a2.413,2.413,0,0,0-2.347,1.717,1.165,1.165,0,0,0-.036.165l-.342,2.48a7.434,7.434,0,0,1-.638,2.149l-3.323,7.03a3.922,3.922,0,0,1-2.789,2.3V32.23a2.287,2.287,0,0,0-2.279-2.3Zm0,22.39V32.23h6.6V52.324Zm9.116-17.238a6.176,6.176,0,0,0,4.6-3.673l3.3-7.012a9.733,9.733,0,0,0,.834-2.819L31,19.263a.123.123,0,0,1,.059-.032,2.893,2.893,0,0,1,1.964,1.277c.6.983.6,2.475,0,4.312-.884,2.682-1.158,4.8-.82,6.3a2.063,2.063,0,0,0,2.024,1.616h0a32.619,32.619,0,0,1,7.749.638h.046a2.088,2.088,0,0,1,.843.358l.146.124a2.079,2.079,0,0,1,.273,2.672,1.154,1.154,0,0,0,.2,1.474,2.732,2.732,0,0,1,.77,1.681,3.165,3.165,0,0,1-1.026,2.236,1.154,1.154,0,0,0-.15,1.378,2.888,2.888,0,0,1-1.1,3.857,1.171,1.171,0,0,0-.4,1.3c.123.367.606,2.25-1.9,3.357a6.109,6.109,0,0,1-2.507.478H27.526a6.346,6.346,0,0,1-3.277-.918l-2.571-1.552V35.123Z" transform="translate(0 -8.62)"/><ellipse cx="1.39" cy="1.401" rx="1.39" ry="1.401" transform="translate(14.709 38.731)"/></g></svg>