<svg xmlns="http://www.w3.org/2000/svg" xmlns:xlink="http://www.w3.org/1999/xlink" width="50" height="50" viewBox="0 0 50 50">
  <defs>
    <clipPath id="clip-path">
      <rect id="Прямоугольник_348" data-name="Прямоугольник 348" width="50" height="50" fill="#fff"/>
    </clipPath>
  </defs>
  <g id="Сгруппировать_746" data-name="Сгруппировать 746" transform="translate(-1358 -7481)">
    <rect id="Прямоугольник_355" data-name="Прямоугольник 355" width="50" height="50" transform="translate(1358 7481)" fill="#fff"/>
    <g id="Группа_масок_41" data-name="Группа масок 41" transform="translate(1358 7481)" clip-path="url(#clip-path)">
      <g id="fedex-express-6" transform="translate(5 18.931)">
        <g id="Сгруппировать_745" data-name="Сгруппировать 745" transform="translate(23.22 0)">
          <path id="Контур_925" data-name="Контур 925" d="M30.866,20.275l-1.638-1.82L27.6,20.275H24.186l3.34-3.717-3.34-3.718H27.71l1.655,1.806,1.593-1.806h3.4l-3.323,3.7L34.4,20.275Zm-13.242,0V8.563h6.562v2.611H20.4V12.84h3.782v2.512H20.4v2.305h3.782v2.617Z" transform="translate(-17.624 -8.563)" fill="#ff5a00"/>
        </g>
        <path id="Контур_926" data-name="Контур 926" d="M22.325,8.563v4.793h-.031a2.818,2.818,0,0,0-2.267-.941,3.819,3.819,0,0,0-3.672,2.847,3.952,3.952,0,0,0-4.063-2.88,4.14,4.14,0,0,0-3.753,1.993V12.84H5.015V11.174H8.861V8.563H1.875V20.275H5.015V15.352h3.13A4.635,4.635,0,0,0,8,16.51a4.113,4.113,0,0,0,4.289,4.158,4.042,4.042,0,0,0,4.06-2.654H13.66a1.354,1.354,0,0,1-1.368.668,1.609,1.609,0,0,1-1.572-1.593H16.2A3.971,3.971,0,0,0,20.058,20.7a2.689,2.689,0,0,0,2.236-1.183h.03v.759h2.769V8.563H22.325ZM10.807,15.387a1.512,1.512,0,0,1,1.484-1.231,1.438,1.438,0,0,1,1.5,1.231Zm9.838,3.105a1.783,1.783,0,0,1-1.654-1.925c0-1.051.552-2.062,1.654-2.062,1.144,0,1.6,1.011,1.6,2.062C22.245,17.563,21.762,18.492,20.645,18.492Z" transform="translate(-1.875 -8.563)" fill="#29007c"/>
      </g>
    </g>
  </g>
</svg>
