<svg xmlns="http://www.w3.org/2000/svg" xmlns:xlink="http://www.w3.org/1999/xlink" width="50" height="50" viewBox="0 0 50 50">
  <defs>
    <clipPath id="clip-path">
      <rect id="Прямоугольник_351" data-name="Прямоугольник 351" width="50" height="50" fill="#fff"/>
    </clipPath>
  </defs>
  <g id="Сгруппировать_750" data-name="Сгруппировать 750" transform="translate(-1478 -7481)">
    <rect id="Прямоугольник_358" data-name="Прямоугольник 358" width="50" height="50" transform="translate(1478 7481)" fill="#fff"/>
    <g id="Группа_масок_44" data-name="Группа масок 44" transform="translate(1478 7481)" clip-path="url(#clip-path)">
      <g id="general-logistics-systems-gls-vector-logo" transform="translate(5 19.618)">
        <path id="Контур_930" data-name="Контур 930" d="M24.913,13.584l-1.72,8.893h4.133l.407-2.22H25.866l1.3-6.673Z" transform="translate(5.855 -11.764)" fill="#001652"/>
        <g id="Сгруппировать_748" data-name="Сгруппировать 748" transform="translate(34.034 1.813)">
          <path id="Контур_931" data-name="Контур 931" d="M31.286,15.552a4.585,4.585,0,0,1,1.227.2l.387-2.04a9.158,9.158,0,0,0-1.547-.133c-2.46,0-3.613,1.467-3.613,3.113,0,2.146,2.186,2.12,2.186,3.033,0,.46-.327.713-1.027.713a5.218,5.218,0,0,1-1.547-.26l-.42,2.2a9.885,9.885,0,0,0,1.747.147A3.44,3.44,0,0,0,32.412,19.3c0-2.086-2.2-2.12-2.2-3.046.007-.407.28-.7,1.073-.7" transform="translate(-26.933 -13.579)" fill="#001652" fill-rule="evenodd"/>
        </g>
        <g id="Сгруппировать_749" data-name="Сгруппировать 749" transform="translate(0 0)">
          <path id="Контур_932" data-name="Контур 932" d="M23.246,13.584a5.4,5.4,0,0,0-5.553,5.633c0,1.94,1.027,3.286,3.6,3.286a7.729,7.729,0,0,0,2.966-.553l.827-4.3H22.82l-.487,2.62a2.554,2.554,0,0,1-.62.067,1.342,1.342,0,0,1-1.547-1.453,2.917,2.917,0,0,1,2.88-3.146,5.6,5.6,0,0,1,1.673.273c.053.013.113.033.173.047.193.067.347.147.473.2l.453-2.326a10.2,10.2,0,0,0-2.573-.347" transform="translate(4.021 -11.764)" fill="#001652" fill-rule="evenodd"/>
          <path id="Контур_933" data-name="Контур 933" d="M11.7,14.059l-.607,2.96h4.2C11.8,22.165,4.9,21.3,3.077,19.165c-1.567-1.84-.213-4.993,4.446-6.946-4.62,1.4-7.2,5.093-5.68,7.573,1.727,2.813,7.1,3.986,11.872,2.62,3.193-1.127,4.546-2.7,5.053-3.546l-.787,4.086h3.14l1.707-8.893Z" transform="translate(-1.407 -12.219)" fill="#febe10" fill-rule="evenodd"/>
        </g>
      </g>
    </g>
  </g>
</svg>
