<svg xmlns="http://www.w3.org/2000/svg" xmlns:xlink="http://www.w3.org/1999/xlink" width="50" height="50" viewBox="0 0 50 50">
  <defs>
    <clipPath id="clip-path">
      <rect id="Прямоугольник_347" data-name="Прямоугольник 347" width="50" height="50" fill="#fff"/>
    </clipPath>
  </defs>
  <g id="Сгруппировать_744" data-name="Сгруппировать 744" transform="translate(-1318 -7481)">
    <rect id="Прямоугольник_354" data-name="Прямоугольник 354" width="50" height="50" transform="translate(1318 7481)" fill="#fff"/>
    <g id="Группа_масок_40" data-name="Группа масок 40" transform="translate(1318 7481)" clip-path="url(#clip-path)">
      <g id="PayPal_Logo_Icon_2014" transform="translate(10.874 8.333)">
        <path id="path3349" d="M7.909,32.09l.578-3.669L7.2,28.391H1.055L5.325,1.314A.358.358,0,0,1,5.444,1.1a.349.349,0,0,1,.228-.084H16.033c3.44,0,5.813.716,7.053,2.129a4.853,4.853,0,0,1,1.13,2.118,7.645,7.645,0,0,1,.008,2.921l-.013.085v.747l.581.329a4.076,4.076,0,0,1,1.176.9,4.176,4.176,0,0,1,.954,2.141,9.055,9.055,0,0,1-.136,3.106,10.938,10.938,0,0,1-1.272,3.516A7.232,7.232,0,0,1,23.5,21.214a8.178,8.178,0,0,1-2.715,1.225,13.54,13.54,0,0,1-3.393.392h-.806a2.425,2.425,0,0,0-2.4,2.047l-.061.33L13.1,31.676l-.046.237a.2.2,0,0,1-.064.138.171.171,0,0,1-.106.039H7.909Z" transform="translate(0.117 0.113)" fill="#253b80"/>
        <path id="path3351" d="M24.775,7.622h0q-.046.3-.106.608c-1.366,7.015-6.041,9.439-12.011,9.439H9.618a1.476,1.476,0,0,0-1.459,1.25h0L6.6,28.789l-.441,2.8a.778.778,0,0,0,.768.9h5.392A1.3,1.3,0,0,0,13.6,31.393l.053-.274,1.015-6.442.065-.353a1.3,1.3,0,0,1,1.281-1.1h.806c5.224,0,9.313-2.121,10.508-8.258.5-2.564.241-4.7-1.08-6.21a5.155,5.155,0,0,0-1.476-1.138Z" transform="translate(0.684 0.847)" fill="#179bd7"/>
        <path id="path3353" d="M23.145,7.158q-.313-.091-.645-.166t-.684-.129a16.883,16.883,0,0,0-2.68-.2H11.016a1.295,1.295,0,0,0-1.28,1.1L8.008,18.706l-.05.319a1.476,1.476,0,0,1,1.459-1.25h3.04c5.97,0,10.645-2.425,12.011-9.439.041-.208.075-.41.106-.608a7.283,7.283,0,0,0-1.123-.474c-.1-.033-.2-.065-.306-.1Z" transform="translate(0.884 0.741)" fill="#222d65"/>
        <path id="path3355" d="M10.62,8.5A1.3,1.3,0,0,1,11.9,7.41h8.121a16.883,16.883,0,0,1,2.68.2q.351.056.684.129t.645.166c.1.031.207.063.307.095a7.393,7.393,0,0,1,1.123.474c.406-2.592,0-4.358-1.405-5.956C22.509.753,19.72,0,16.151,0H5.79A1.481,1.481,0,0,0,4.327,1.252L.011,28.607a.89.89,0,0,0,.878,1.029h6.4l1.606-10.19L10.62,8.5Z" transform="translate(0 0)" fill="#253b80"/>
      </g>
    </g>
  </g>
</svg>
