<svg xmlns="http://www.w3.org/2000/svg" xmlns:xlink="http://www.w3.org/1999/xlink" width="50" height="50" viewBox="0 0 50 50">
  <defs>
    <clipPath id="clip-path">
      <rect id="Прямоугольник_349" data-name="Прямоугольник 349" width="50" height="50" fill="#fff"/>
    </clipPath>
  </defs>
  <g id="Сгруппировать_747" data-name="Сгруппировать 747" transform="translate(-1398 -7481)">
    <rect id="Прямоугольник_356" data-name="Прямоугольник 356" width="50" height="50" transform="translate(1398 7481)" fill="#fff"/>
    <g id="Группа_масок_42" data-name="Группа масок 42" transform="translate(1398 7481)" clip-path="url(#clip-path)">
      <g id="ups" transform="translate(11.031 8.334)">
        <path id="Контур_927" data-name="Контур 927" d="M13.934,32.911c.284-.142,7.658-3.333,10-5.247a10.258,10.258,0,0,0,3.687-8.225V3.484l-.213-.071C21.521.222,14.218.435,13.863.435,13.579.435,6.276.222.39,3.413l-.142.071V19.51a10.258,10.258,0,0,0,3.687,8.225c2.34,1.915,9.715,5.105,10,5.176" transform="translate(0.035 0.067)" fill="#341b14"/>
        <path id="Контур_928" data-name="Контур 928" d="M13.969,33.328s-7.8-3.4-10.211-5.318A10.465,10.465,0,0,1,0,19.643V3.05C6.169-.283,13.969,0,13.969,0s7.8-.284,13.969,3.049V19.572a10.465,10.465,0,0,1-3.758,8.367c-2.411,1.985-10.211,5.389-10.211,5.389M1.135,19.643a9.147,9.147,0,0,0,3.333,7.445c1.985,1.631,7.871,4.255,9.5,4.964,1.631-.709,7.587-3.4,9.5-4.964A9.244,9.244,0,0,0,26.8,19.643V3.333c-8.225-.78-18.011-.355-25.669,6.736v9.573Z" transform="translate(0 0.005)" fill="#ffb406"/>
        <path id="Контур_929" data-name="Контур 929" d="M21.549,15.981c1.064.638,1.489,1.064,1.56,1.844a1.309,1.309,0,0,1-1.489,1.347,3.834,3.834,0,0,1-2.34-.993v2.269a5.692,5.692,0,0,0,2.695.78,3.28,3.28,0,0,0,3.545-3.262c.071-1.418-.355-2.553-2.411-3.758-.922-.567-1.631-.922-1.631-1.773A1.286,1.286,0,0,1,22.9,11.231a3.349,3.349,0,0,1,2.2.993V10.1a3.914,3.914,0,0,0-2.695-.78,3.3,3.3,0,0,0-3.333,3.191c.071,1.347.5,2.34,2.482,3.475m-8.367,5.105a3.642,3.642,0,0,0,1.135.142c2.765,0,4.325-2.482,4.325-6.027,0-3.616-1.631-5.815-4.538-5.815a6.124,6.124,0,0,0-3.333.851V26.263h2.411Zm0-9.644a2.993,2.993,0,0,1,.851-.213c1.418,0,1.985,1.135,1.985,3.9,0,2.695-.709,3.971-2.127,3.971a1.9,1.9,0,0,1-.78-.142V11.443ZM5.737,21.229a6.473,6.473,0,0,0,3.687-.993V9.529H6.942v9.289a1.8,1.8,0,0,1-1.135.284c-1.135,0-1.276-1.064-1.276-1.7V9.529H2.049v7.729c0,2.624,1.276,3.971,3.687,3.971" transform="translate(0.291 1.326)" fill="#ffb406"/>
      </g>
    </g>
  </g>
</svg>
