<?xml version="1.0" standalone="no"?>
<!DOCTYPE svg PUBLIC "-//W3C//DTD SVG 20010904//EN"
 "http://www.w3.org/TR/2001/REC-SVG-20010904/DTD/svg10.dtd">
<svg version="1.0" xmlns="http://www.w3.org/2000/svg"
 width="512.000000pt" height="512.000000pt" viewBox="0 0 512.000000 512.000000"
 preserveAspectRatio="xMidYMid meet">
<metadata>
Created by potrace 1.11, written by Peter Selinger 2001-2013
</metadata>
<g transform="translate(0.000000,512.000000) scale(0.100000,-0.100000)"
fill="#000000" stroke="none">
<path d="M2380 4800 c-272 -9 -370 -22 -607 -77 l-111 -26 -7 -56 c-27 -221
-266 -485 -568 -626 -76 -35 -240 -94 -364 -130 -21 -7 -26 -133 -20 -558 10
-770 92 -1297 264 -1705 l26 -63 31 30 30 30 53 -96 c82 -148 95 -163 149
-163 24 0 44 4 44 10 0 5 -17 35 -37 67 -164 257 -275 678 -329 1248 -17 179
-31 855 -20 958 l8 67 101 31 c138 43 297 113 382 170 174 117 310 299 355
477 13 49 15 52 46 52 18 0 40 3 49 7 15 5 16 1 10 -28 -31 -146 -116 -312
-214 -420 -94 -105 -365 -266 -552 -330 l-66 -22 -8 -219 c-19 -582 41 -1201
146 -1522 42 -127 138 -323 216 -439 63 -95 66 -99 97 -93 17 2 84 8 149 12
l117 6 -75 79 c-261 274 -383 588 -444 1149 -27 248 -41 706 -25 856 l6 59 97
30 c215 67 385 175 444 282 28 53 53 177 43 224 -5 26 -2 29 32 38 194 52 400
71 761 73 311 1 454 -10 638 -47 40 -8 75 -15 78 -15 3 0 5 -31 5 -68 0 -166
87 -286 271 -376 92 -44 267 -106 300 -106 9 0 20 -8 24 -17 4 -10 10 -162 12
-338 12 -773 -89 -1276 -317 -1584 -161 -217 -383 -402 -663 -550 -114 -61
-311 -142 -347 -143 -76 -2 -386 136 -585 262 -83 52 -98 58 -115 47 -25 -15
-26 -31 -1 -24 40 10 42 -10 4 -39 -20 -15 -45 -35 -53 -44 -9 -8 -33 -28 -53
-45 -47 -38 -47 -49 -1 -42 34 6 35 5 20 -12 -23 -25 -20 -34 9 -27 25 6 36
-8 13 -18 -9 -3 -8 -9 6 -20 10 -8 33 -28 51 -44 117 -107 417 -301 603 -389
61 -30 112 -56 112 -58 0 -7 -165 53 -285 104 -143 61 -319 157 -469 256 -61
40 -115 71 -122 68 -6 -2 -11 -15 -11 -29 0 -28 32 -54 197 -156 181 -113 491
-256 643 -298 58 -16 94 -7 257 62 679 289 1158 738 1337 1253 87 250 142 528
180 910 14 145 17 271 17 650 -1 260 -5 488 -10 510 -8 34 -15 41 -44 48 -256
66 -473 170 -605 290 l-50 45 23 24 c12 13 22 27 22 29 0 3 -23 30 -50 60
-107 115 -189 271 -190 360 0 36 -1 37 -57 52 -238 66 -573 92 -1003 77z"/>
<path d="M2430 3719 c-277 -31 -520 -154 -716 -361 -159 -169 -256 -357 -300
-583 -18 -95 -21 -313 -4 -405 63 -362 282 -663 610 -842 190 -104 440 -153
652 -129 522 58 925 422 1034 931 26 124 24 353 -4 478 -52 227 -160 421 -326
584 -192 190 -436 302 -711 328 -122 11 -128 11 -235 -1z m130 -654 l0 -95
-230 0 -230 0 0 -65 0 -65 215 0 215 0 0 -90 0 -90 -215 0 -215 0 0 -85 0 -85
235 0 235 0 0 -105 0 -105 -370 0 -370 0 0 440 0 440 365 0 365 0 0 -95z m710
-431 c64 -30 102 -65 130 -120 22 -43 25 -62 25 -154 0 -98 -2 -109 -30 -159
-33 -60 -67 -90 -141 -123 -42 -19 -71 -23 -194 -26 l-145 -4 3 -174 3 -174
-151 0 -150 0 0 481 0 481 303 -4 c280 -3 305 -5 347 -24z"/>
<path d="M2912 2356 l3 -106 68 0 c79 0 129 19 146 56 19 43 13 81 -18 116
-28 32 -33 33 -115 37 l-87 3 3 -106z"/>
<path d="M4656 3305 c-8 -8 -19 -15 -25 -15 -6 0 -11 -4 -11 -9 0 -5 -10 -13
-22 -17 -12 -3 -26 -11 -32 -16 -6 -5 -39 -27 -73 -48 l-63 -39 0 -73 c0 -149
-36 -573 -66 -763 -68 -436 -173 -751 -330 -985 -267 -400 -703 -735 -1244
-955 -200 -82 -185 -80 -297 -40 -250 87 -508 213 -716 352 -171 113 -278 200
-418 338 l-116 114 -107 -65 -107 -66 38 -46 c214 -267 582 -546 980 -745 201
-101 497 -217 551 -217 26 0 174 54 307 112 735 321 1293 834 1515 1393 159
401 250 944 267 1593 6 216 3 231 -31 197z"/>
<path d="M1855 1280 c-3 -5 3 -10 15 -10 12 0 18 5 15 10 -3 6 -10 10 -15 10
-5 0 -12 -4 -15 -10z"/>
</g>
</svg>
