<?xml version="1.0" encoding="UTF-8" standalone="no"?>
<svg xmlns:rdf="http://www.w3.org/1999/02/22-rdf-syntax-ns#" xmlns="http://www.w3.org/2000/svg" height="512" width="512" version="1.1" xmlns:cc="http://creativecommons.org/ns#" xmlns:dc="http://purl.org/dc/elements/1.1/" viewBox="0 0 512.00001 512.00001">
	<g transform="translate(0 -540.36)">
		<path d="m238 1046.4c-34.66-4.8-65.36-19.6-102-49.36-49.852-40.44-101.97-109.35-122.44-161.9-9.3603-24.03-12.9-42.32-12.923-66.78-0.03334-35.42 8.7281-59.92 30.712-85.89 11.172-13.195 40.624-37.165 49.909-40.62 14.281-5.313 29.137 3.9887 44.966 28.155 21.644 33.043 31.024 59.816 26.423 75.413-2.988 10.128-13.209 20.525-34.497 35.093-19.027 13.021-21.24 16.048-21.948 30.025-0.71082 14.027 2.9508 23.883 17.546 47.229 13.616 21.78 27.758 39.108 47.453 58.146 19.361 18.715 31.113 25.506 45.436 26.258 10.365 0.544 14.736-1.3585 24.798-10.794 24.999-23.441 39.754-32.094 52.229-30.627 16.161 1.8994 39.046 16.199 60.896 38.049 11.733 11.734 19.671 23.276 22.588 32.846 4.6062 15.112-0.13594 22.41-28.493 43.853-22.762 17.211-36.222 24.295-55.066 28.98-9.285 2.3082-34.774 3.3545-45.589 1.8714zm146.52-90.7c-1.6366-3.6612-5.3986-9.9746-8.36-14.03-2.9615-4.0552-5.2225-7.4991-5.0244-7.653 0.19803-0.15398 4.3806-2.3956 9.2946-4.9815 43.985-23.146 77.522-64.831 91.43-113.64 5.1804-18.182 6.5575-28.511 6.5966-49.482 0.0374-20.077-0.95621-29.003-5.1204-46-14.437-58.925-58.211-108.26-114.99-129.6-35.299-13.266-76.023-15.636-111.67-6.4979-40.719 10.438-75.691 33.493-102.54 67.598-1.0826 1.375-2.1366 2.275-2.3424 2-6.9328-9.2645-9.9057-12.747-15.327-17.953l-6.5345-6.2748 2.6918-3.6362c5.4093-7.3071 28.146-29.011 38.253-36.517 50.83-37.8 114.16-51.88 176.12-39.22 64.763 13.232 120.55 55.873 150.83 115.3 10.226 20.064 15.779 36.165 20.089 58.249 8.7985 45.084 2.5826 93.672-17.334 135.5-17.146 36.009-44.404 67.302-77.589 89.075-8.7525 5.7426-23.824 14.414-25 14.384-0.275-0.007-1.839-3.0083-3.4756-6.6695zm-61.07-134.18c0.32218-1.0151 8.3788-23.178 17.904-49.25l17.318-47.404 11.662-0.28172 11.662-0.28171-1.8571 4.7817c-1.0214 2.63-9.2053 24.919-18.186 49.532l-16.329 44.75h-11.379c-10.607 0-11.339-0.12528-10.793-1.8456zm-156.45-7.81v-8.6566l18.355-18.645c20.675-21.002 23.851-25.121 24.009-31.133 0.0883-3.3692-0.41629-4.557-2.8112-6.617-4.5281-3.8949-10.78-2.9-19.369 3.0826l-6.683 4.6547-4.321-4.7644c-2.3765-2.6204-5.6634-6.4349-7.3041-8.4766l-2.9831-3.7122 6.3041-4.6632c3.4673-2.5648 8.1879-5.4785 10.49-6.4749 15.793-6.8345 37.736-4.0536 46.466 5.8885 4.6978 5.3505 6.2013 9.739 6.1298 17.892-0.0518 5.9057-0.63507 8.451-3.2081 14-2.68 5.7796-5.2277 8.8143-17.237 20.532l-14.092 13.75h18.628 18.628v11 11h-35.5-35.5v-8.6566zm117-0.34336v-9h-19.5-19.5v-9.6006-9.6006l20.25-29.864 20.25-29.864 12.25-0.0358 12.25-0.0358v29.5 29.5h5.5 5.5v10 10h-5.5-5.5v9 9h-13-13v-9zm0.19285-41.75c0.16893-7.0125 0.22604-12.906 0.12691-13.097-0.0991-0.19079-1.177 1.6092-2.3953 4s-4.8613 8.2844-8.0956 13.097l-5.8805 8.75h7.9686 7.9686l0.30716-12.75zm112.73 48.528c0.49328-1.253 7.7288-17.578 16.079-36.278 8.3501-18.7 15.413-34.562 15.696-35.25 0.40173-0.97676-4.0998-1.25-20.593-1.25h-21.107v-11-11h35 35l-0.0293 8.25-0.0293 8.25-16.843 40-16.843 40-13.613 0.27813-13.613 0.27813 0.89688-2.2781z"/>
	</g>
</svg>
