<svg xmlns:rdf="http://www.w3.org/1999/02/22-rdf-syntax-ns#" xmlns="http://www.w3.org/2000/svg" height="512" width="512" version="1.1" xmlns:cc="http://creativecommons.org/ns#" xmlns:dc="http://purl.org/dc/elements/1.1/" viewBox="0 0 512.00001 512.00001">
	<g transform="translate(0 -540.36)">
		<path d="m81.322 1030.7c-6.639-1.1185-5.984-0.5451-43.326-37.929-40.122-40.167-37.718-37.176-37.718-46.941 0-9.7607-2.4003-6.7752 37.721-46.917 27.224-27.238 35.243-34.967 37.384-36.031 12.365-6.1471 26.774 0.3868 30.346 13.761 1.3131 4.9158 0.66319 10.051-1.9197 15.168-0.79358 1.5721-6.3523 7.5725-16.18 17.466l-14.971 15.071 23.949-0.2187c19.448-0.1777 25-0.3923 29.537-1.1418 37.216-6.1464 68.856-27.048 89.088-58.851 3.3708-5.2984 9.3636-17.603 11.781-24.189 2.509-6.8359 5.1816-17.498 6.41-25.572 1.3552-8.907 1.3552-27.283 0-36.19-5.2112-34.252-23.026-64.16-50.413-84.636-13.136-9.8211-28.615-17.247-44.359-21.28-14.57-3.7323-12.617-3.622-69.985-3.9516l-51.89-0.29814-3.0613-1.2361c-6.3288-2.58-11.867-8.74-13.206-14.73-1.0473-4.68-0.41978-10.631 1.5244-14.455 2.0928-4.1167 5.7176-7.7586 9.8959-9.9425l3.2569-1.7023 50.027-0.16576c33.253-0.11018 52.182 0.0293 56.453 0.41615 32.054 2.903 62.666 14.761 88.112 34.131 17.291 13.162 32.793 30.526 43.546 48.775 1.2504 2.1222 2.4584 3.8585 2.6844 3.8585 0.22599 0 1.4331-1.7363 2.6825-3.8585 10.643-18.079 26.275-35.578 43.547-48.748 22.041-16.808 48.275-28.121 75.379-32.506 11.739-1.8993 16.293-2.1498 39.25-2.1594 12.221-0.005 22.22-0.18335 22.22-0.39619 0-0.21283-6.681-7.0982-14.847-15.301-15.867-15.939-16.914-17.295-18.216-23.6-2.3196-11.231 5.8241-22.583 17.638-24.586 4.2839-0.72659 9.8239 0.26697 13.679 2.4532 1.6571 0.93976 14.538 13.432 36.937 35.823 39.829 39.815 37.455 36.859 37.455 46.632 0 9.9126 2.2498 7.1124-37.896 47.167-35.589 35.508-36.09 35.956-41.935 37.517-14.424 3.853-28.596-9.3413-25.878-24.093 1.1922-6.4706 2.1895-7.7772 18.356-24.05l14.973-15.071-23.949 0.21879c-19.448 0.17766-25 0.39227-29.537 1.1417-41.72 6.8903-77.071 32.974-95.268 70.293-7.47 15.32-11.164 28.572-12.758 45.77-3.6028 38.874 12.118 78.693 41.69 105.59 18.104 16.469 41.238 27.55 66.336 31.774 4.9813 0.8384 11.223 0.973 57.478 1.2387l51.89 0.2981 3.0613 1.2361c6.335 2.5581 11.873 8.723 13.213 14.708 1.0258 4.5838 0.42688 10.689-1.411 14.384-1.9842 3.9895-6.067 8.0771-10.107 10.119l-3.159 1.5966-50.293 0.1675c-35.562 0.1183-52.242-0.015-56.946-0.4572-31.614-2.9677-62.092-14.862-87.353-34.092-17.139-13.047-32.983-30.791-43.552-48.775-1.2471-2.1222-2.4524-3.8585-2.6784-3.8585s-1.4366 1.7363-2.6901 3.8585c-24.968 42.268-67.744 72.025-116.2 80.832-12.091 2.1977-18.255 2.5799-41.706 2.5854-12.367 0.01-22.486 0.1759-22.486 0.3844 0 0.2084 6.7818 7.2135 15.071 15.567 13.354 13.458 15.235 15.564 16.516 18.487 3.6104 8.2418 1.8912 17.192-4.5373 23.62-3.1597 3.1598-6.9605 5.096-11.445 5.8304-3.4471 0.5646-3.6544 0.5636-7.2062-0.035z"/>
	</g>
</svg>
