<svg xmlns:rdf="http://www.w3.org/1999/02/22-rdf-syntax-ns#" xmlns="http://www.w3.org/2000/svg" height="512" width="512" version="1.1" xmlns:cc="http://creativecommons.org/ns#" xmlns:dc="http://purl.org/dc/elements/1.1/" viewBox="0 0 512.00001 512.00001">
	<g transform="translate(0 -540.36)">
		<path d="m348.88 965.62c-19.155-2.2122-44.854-9.1069-62.121-16.666-10.612-4.6458-25.921-13.242-36.119-20.28-22.64-15.625-28.919-19.634-37.517-23.953-12.823-6.4399-25.792-10.926-40.567-14.033-10.985-2.3097-15.106-2.6736-30.274-2.6736s-19.289 0.3639-30.274 2.6736c-21.942 4.6135-44.673 14.386-61.668 26.513-13.545 9.665-18.806 11.301-28.181 8.7636-15.346-4.1539-24.982-21.586-21.419-38.749 2.5767-12.412 10.616-20.708 32.911-33.963 34.854-20.722 69.018-30.228 108.63-30.228 19.874 0 33.085 1.5786 50.943 6.087 27.482 6.9381 49.555 17.616 77.481 37.481 26.476 18.833 46.04 27.633 72.239 32.492 13.098 2.4292 41 2.4377 54.179 0.017 22.234-4.0847 43.63-12.995 63.422-26.41 13.816-9.3654 16.193-10.412 23.638-10.412 10.821 0 19.756 6.3839 25.211 18.014 2.1716 4.6298 2.609 6.9958 2.6051 14.092-0.008 7.272-0.43046 9.4515-2.895 14.796-3.3658 7.2991-7.7276 11.614-20.241 20.021-35.579 23.904-73.324 36.098-114.31 36.93-9.9328 0.2017-21.484-0.029-25.669-0.5121zm-8.7063-197.22c-20.044-2.9216-41.888-9.8199-62.02-19.585-11.121-5.3944-18.979-10.311-47.002-29.409-17.961-12.24-39.266-21.059-61.279-25.366-12.608-2.4668-42.575-2.4668-55.182 0-21.401 4.1872-44.492 13.687-61.202 25.178-15.202 10.454-16.44 11.05-23.818 11.467-5.7962 0.32751-7.6029-0.009-12.241-2.278-6.4731-3.167-10.961-7.9959-14.478-15.579-2.1213-4.5736-2.5859-7.0821-2.6097-14.092-0.052-15.289 5.359-23.28 24.139-35.647 36.38-23.958 77.061-36.532 118.3-36.566 40.079-0.0332 82.291 13.145 116.51 36.374 5.9993 4.0721 15.381 10.447 20.848 14.166 18.635 12.677 37.686 20.768 59.775 25.386 10.742 2.2457 15.095 2.628 30.115 2.6446 15.173 0.0167 19.264-0.33986 30.115-2.6252 22.504-4.7396 40.504-12.456 61.203-26.237 6.4664-4.3054 13.81-8.3392 16.736-9.1932 11.992-3.5002 24.836 3.4992 31.016 16.902 2.4646 5.3449 2.891 7.5244 2.895 14.796 0 7.0929-0.43279 9.4569-2.5941 14.046-3.9477 8.3826-7.0606 11.407-21.779 21.159-27.689 18.345-58.032 30.167-88.571 34.507-13.075 1.8582-45.99 1.832-58.881-0.0469z"/>
	</g>
</svg>
