<?xml version="1.0" encoding="UTF-8" standalone="no"?>
<svg id="svg2" xmlns:rdf="http://www.w3.org/1999/02/22-rdf-syntax-ns#" xmlns="http://www.w3.org/2000/svg" height="512" width="512" version="1.1" xmlns:cc="http://creativecommons.org/ns#" xmlns:dc="http://purl.org/dc/elements/1.1/" viewBox="0 0 512.00001 512.00001">
	<g id="layer1" transform="translate(0,-540.36216)">
		<path id="path3399" d="m65 796.36218v-256h191 191v256 256.00002h-191-191v-256.00002zm351 125.5v-90.5h-160-160v90.5 90.50002h160 160v-90.50002zm-300.32987 69.83679c-0.36857-0.36857-0.67013-31.87012-0.67013-70.00346v-69.33333h141.0068 141.0068l-0.2568 69.75-0.2568 69.75-140.07987 0.25346c-77.04394 0.1394-140.38144-0.0481-140.75-0.41667zm187.41278-53.10257 2.91709-3.26577v-23.07986c0-21.63922-0.12753-23.25895-2.0431-25.94912-1.1839-1.66263-3.60199-3.30222-5.75-3.89879-2.24684-0.62402-18.87116-1.02953-42.2069-1.02953s-39.96006 0.40551-42.2069 1.02953c-2.14801 0.59657-4.5661 2.23616-5.75 3.89879-1.9152 2.68965-2.0431 4.31033-2.0431 25.88818v23.0189l2.53413 3.01165c1.39378 1.6564 3.53128 3.21375 4.75 3.46078 1.21873 0.24702 21.26568 0.38881 44.54878 0.31508l42.3329-0.13406 2.9171-3.26578zm112.91709-227.73422v-90.5h-160-160v90.5 90.5h160 160v-90.5zm-301 0.5v-70h141 141v70 70h-141-141v-70zm186.63296 18.22776c4.06895-3.29597 4.36704-5.25892 4.36704-28.75765 0-21.2178-0.13015-22.84415-2.0431-25.53064-1.1839-1.66263-3.60199-3.30222-5.75-3.89879-4.97461-1.38161-79.43919-1.38161-84.4138 0-2.14801 0.59657-4.5661 2.23616-5.75 3.89879-1.91295 2.68649-2.0431 4.31284-2.0431 25.53064 0 23.49873 0.29809 25.46168 4.36704 28.75765 1.94789 1.57785 5.90734 1.72777 45.63296 1.72777s43.68507-0.14992 45.63296-1.72777zm107.89254-136.24352c8.80104-5.43934 8.54045-20.79605-0.43162-25.43569-4.32349-2.23577-11.65883-1.98055-15.75009 0.54799-4.44927 2.7498-6.34379 6.62778-6.34379 12.98538 0 4.78427 0.33469 5.51593 4.36842 9.54966 4.05131 4.05131 4.75051 4.36842 9.63197 4.36842 3.53191 0 6.33656-0.66316 8.52511-2.01576z"/>
	</g>
</svg>
