<?xml version="1.0" encoding="UTF-8" standalone="no"?>
<svg id="svg2" xmlns:rdf="http://www.w3.org/1999/02/22-rdf-syntax-ns#" xmlns="http://www.w3.org/2000/svg" height="512" width="512" version="1.1" xmlns:cc="http://creativecommons.org/ns#" xmlns:dc="http://purl.org/dc/elements/1.1/" viewBox="0 0 512.00001 512.00001">
	<g id="layer1" transform="translate(0,-540.36216)">
		<path id="path3412" d="m127.72232 936.88562-127.72232-115.47652l36.292521-32.81193 36.292521-32.81194 91.708658 82.90894 91.70866 82.90894 91.71075-82.91083 91.71075-82.91083 36.28807 32.8192 36.28807 32.81921-127.72355 115.47114c-70.24796 63.5091-127.97292 115.4712-128.27768 115.4712-0.30477 0-58.02917-51.9645-128.27645-115.47658zm0-215.41928l-127.72232-115.47653 36.292521-32.81193 36.292521-32.81193 91.708658 82.90894 91.70866 82.90894 91.71075-82.91084 91.71075-82.91083 36.28807 32.81921 36.28807 32.81921-127.72355 115.47114c-70.24796 63.50912-127.97292 115.47113-128.27768 115.47113-0.30477 0-58.02917-51.96443-128.27645-115.47651z"/>
	</g>
</svg>
