<svg xmlns:inkscape="http://www.inkscape.org/namespaces/inkscape" xmlns:rdf="http://www.w3.org/1999/02/22-rdf-syntax-ns#" xmlns="http://www.w3.org/2000/svg" sodipodi:docname="arrow-line-right.svg" height="512" width="512" version="1.1" xmlns:cc="http://creativecommons.org/ns#" xmlns:dc="http://purl.org/dc/elements/1.1/" inkscape:version="0.91 r13725" viewBox="0 0 512.00001 512.00001" xmlns:sodipodi="http://sodipodi.sourceforge.net/DTD/sodipodi-0.dtd">
	<sodipodi:namedview bordercolor="#666666" inkscape:pageshadow="2" inkscape:window-y="-8" pagecolor="#ffffff" inkscape:window-height="1017" inkscape:window-maximized="1" inkscape:zoom="0.35" inkscape:window-x="-8" showgrid="false" borderopacity="1.0" inkscape:current-layer="layer1" inkscape:cx="-126.42857" inkscape:cy="520" units="px" inkscape:window-width="1920" inkscape:pageopacity="0.0" inkscape:document-units="px"/>
	<g inkscape:label="Layer 1" inkscape:groupmode="layer" transform="translate(0 -540.36)">
		<path inkscape:connector-curvature="0" d="m323.68 969.42c-10.388-6.3338-14.872-19.595-9.9301-29.362 1.1623-2.2971 28.046-30.205 59.741-62.017l57.628-57.841h-206.08c-221.95 0-214.89 0.31136-221.96-9.7839-4.0468-5.7776-4.1258-22.344-0.13384-28.043 7.3115-10.439-2.965-9.9749 221.1-9.9749h207.07l-57.628-57.841c-31.695-31.812-58.579-59.72-59.741-62.017-9.3818-18.542 13.376-40.197 31.921-30.374 7.6285 4.0407 164.2 161.9 165.76 167.13 0.7355 2.4576 0.765 7.6203 0.065 11.472-1.0994 6.0543-12.08 17.848-80.967 86.967-43.832 43.979-82.019 81.193-84.859 82.698-7.1063 3.7639-14.734 3.413-21.991-1.0119z"/>
	</g>
</svg>
