<svg xmlns:rdf="http://www.w3.org/1999/02/22-rdf-syntax-ns#" xmlns="http://www.w3.org/2000/svg" height="512" width="512" version="1.1" xmlns:cc="http://creativecommons.org/ns#" xmlns:dc="http://purl.org/dc/elements/1.1/" viewBox="0 0 512.00001 512.00001">
	<g transform="translate(0 -540.36)">
		<path d="m21.646 1050.4c-6.4047-2.2133-11.679-6.12-15.635-11.582-6.3365-8.7473-6.0081 0.3415-6.0081-166.27v-151.96l2.1778-5.8206c2.909-7.7748 9.3712-14.548 17.255-18.087 5.545-2.4884 7.0954-2.7392 14.442-2.3357 12.889 0.70783 21.871 6.4883 27.569 17.742l2.9816 5.8888 0.27544 111.58 0.27543 111.58 198.07-197.93c161.12-161.01 199.03-198.39 203.15-200.36 4.1131-1.9613 6.7045-2.419 13.697-2.419 7.3766 0 9.4546 0.40792 14.367 2.8203 6.6201 3.251 12.32 9.1027 15.414 15.825 3.1904 6.9316 3.0735 20.061-0.2406 27.011-1.9677 4.1265-39.351 42.031-200.37 203.17l-197.95 198.1h109.21c106.25 0 109.39 0.055 115.76 2.024 7.9844 2.4661 14.357 7.7581 18.493 15.358 2.3858 4.3834 3.0332 6.9984 3.383 13.664 0.38518 7.3386 0.1269 8.9237-2.3551 14.454-3.5383 7.8843-10.312 14.346-18.087 17.255l-5.8206 2.1778-152.4-0.034c-143.62-0.031-152.7-0.1374-157.65-1.8449z"/>
	</g>
</svg>
