<svg xmlns:rdf="http://www.w3.org/1999/02/22-rdf-syntax-ns#" xmlns="http://www.w3.org/2000/svg" height="512" width="512" version="1.1" xmlns:cc="http://creativecommons.org/ns#" xmlns:dc="http://purl.org/dc/elements/1.1/" viewBox="0 0 512.00001 512.00001">
	<g transform="translate(0 -540.36)">
		<path d="m128.96 1050.1c-3.2596-1.6437-5.0682-3.4524-6.7119-6.7119l-2.25-4.4619v-113.29-113.29l-52.25-0.006c-34.586 0-53.576-0.37-56.171-1.09-8.1716-2.27-13.03-10.99-10.661-19.15 1.0876-3.74 15.794-18.81 123.91-126.92 108.11-108.12 123.17-122.82 126.92-123.91 9.5065-2.7611 0.66377-10.852 135.42 123.91 108.11 108.11 122.82 123.18 123.91 126.92 2.3685 8.1549-2.4896 16.881-10.661 19.15-2.5956 0.72065-21.585 1.0906-56.171 1.0943l-52.25 0.006v113.29 113.29l-2.25 4.4619c-1.6437 3.2595-3.4523 5.0682-6.7119 6.7119l-4.4619 2.25h-122.58-122.58l-4.4619-2.25z"/>
	</g>
</svg>
