<svg xmlns:rdf="http://www.w3.org/1999/02/22-rdf-syntax-ns#" xmlns="http://www.w3.org/2000/svg" height="512" width="512" version="1.1" xmlns:cc="http://creativecommons.org/ns#" xmlns:dc="http://purl.org/dc/elements/1.1/" viewBox="0 0 512.00001 512.00001">
	<g transform="translate(0 -540.36)">
		<path d="m21.711 1050.8c-18.012-6.4359-26.69-27.23-18.586-44.535 1.8356-3.9198 41.383-44.008 200.22-202.96l197.93-198.08-111.58-0.27544-111.58-0.27544-5.8888-2.9817c-11.253-5.6978-17.034-14.68-17.742-27.569-0.40444-7.3644-0.1556-8.8904 2.3659-14.509 3.4696-7.7312 10.501-14.362 18.342-17.295 5.5848-2.0895 6.1143-2.0956 159.49-1.8301l153.89 0.26645 5.7431 2.8203c6.6136 3.2478 12.311 9.0938 15.424 15.825l2.1685 4.6898v155.74 155.74l-2.7025 5.0729c-3.2399 6.082-8.8345 11.603-15.053 14.855-3.861 2.0191-6.0531 2.3876-14.204 2.3876-7.9875 0-10.354-0.3822-13.815-2.2315-9.1246-4.8753-14.188-11-17.044-20.619-1.4233-4.7928-1.6074-17.912-1.6074-114.54v-109.13l-198.08 197.93c-164.66 164.51-198.95 198.31-203.17 200.31-6.9758 3.1979-17.525 3.7255-24.52 1.2262z"/>
	</g>
</svg>
