<svg xmlns:rdf="http://www.w3.org/1999/02/22-rdf-syntax-ns#" xmlns="http://www.w3.org/2000/svg" height="512" width="512" version="1.1" xmlns:cc="http://creativecommons.org/ns#" xmlns:dc="http://purl.org/dc/elements/1.1/" viewBox="0 0 512.00001 512.00001">
	<g transform="translate(0 -540.36)">
		<path d="m249.5 1050.4c-2.77-1.3-41.48-39.4-125.67-123.69-133.64-133.83-125.67-125.1-122.91-134.6 1.0856-3.74 15.792-18.81 123.91-126.92 108.11-108.12 123.17-122.82 126.92-123.91 8.1549-2.3685 16.881 2.4896 19.15 10.661 0.72065 2.5956 1.0906 21.585 1.0943 56.171l0.006 52.25h113.29 113.29l4.4619 2.25c3.2596 1.6437 5.0682 3.4523 6.7119 6.7119l2.25 4.4619v122.58 122.58l-2.25 4.4619c-1.6437 3.2596-3.4523 5.0682-6.7119 6.7119l-4.4619 2.25h-113.26-113.26l-0.28285 54.25c-0.273 52.361-0.35329 54.372-2.3057 57.75-2.2085 3.8211-9.2715 8.0141-13.439 7.978-1.396-0.012-4.3381-0.8659-6.5381-1.8974z"/>
	</g>
</svg>
