<svg xmlns:inkscape="http://www.inkscape.org/namespaces/inkscape" xmlns:rdf="http://www.w3.org/1999/02/22-rdf-syntax-ns#" xmlns="http://www.w3.org/2000/svg" sodipodi:docname="award.svg" height="512" width="512" version="1.1" xmlns:cc="http://creativecommons.org/ns#" xmlns:dc="http://purl.org/dc/elements/1.1/" inkscape:version="0.91 r13725" viewBox="0 0 512.00001 512.00001" xmlns:sodipodi="http://sodipodi.sourceforge.net/DTD/sodipodi-0.dtd">
	<sodipodi:namedview bordercolor="#666666" inkscape:pageshadow="2" inkscape:window-y="-8" pagecolor="#ffffff" inkscape:window-height="1017" inkscape:window-maximized="1" inkscape:zoom="0.35" inkscape:window-x="-8" showgrid="false" borderopacity="1.0" inkscape:current-layer="layer1" inkscape:cx="-126.42857" inkscape:cy="520" units="px" inkscape:window-width="1920" inkscape:pageopacity="0.0" inkscape:document-units="px"/>
	<g inkscape:label="Layer 1" inkscape:groupmode="layer" transform="translate(0 -540.36)">
		<path inkscape:connector-curvature="0" d="m102.4 1051c-5.1814-2.2551-7.8008-6.9976-17.911-32.429-7.8622-19.777-9.5811-25.019-9.1252-27.828 0.40667-2.5061 34.862-67.44 37.216-70.137 0.16765-0.1921 2.1071-0.045 4.31 0.3274 3.9138 0.6612 4.054 0.8287 6.1515 7.3483 3.3599 10.443 7.9237 18.117 14.975 25.179 16.494 16.52 39.313 21.236 61.741 12.761 5.0868-1.922 9.2487-3.3136 9.2487-3.0925 0 0.7938-39.275 71.872-41.261 74.672-1.1166 1.5745-3.4913 3.4732-5.2771 4.2193-3.6474 1.524-50.342 10.437-54.36 10.376-1.423-0.022-3.9916-0.6503-5.7078-1.3973zm274.25-3.123c-26.039-4.9493-28.586-5.6555-31.434-8.7178-3.7266-4.0068-41.451-73.674-40.805-75.357 0.71134-1.8537 2.0774-1.6223 12.318 2.086 20.08 7.2709 43.51 2.1643 58.682-12.79 7.5303-7.4224 11.053-13.254 15.189-25.145 5.0037-14.384 4.2559-15.096 26.583 25.318 16.689 30.208 18.958 34.853 18.958 38.799 0 3.317-2.3631 10.383-9.0888 27.175-4.9988 12.481-9.9949 24.181-11.102 26-2.2719 3.7318-8.8783 7.1937-13.471 7.0588-1.6498-0.048-13.273-2.0408-25.83-4.4274zm-123.93-90.61c-6.7816-1.0136-12.513-4.7411-19.626-12.764-11.612-13.098-21.28-15.224-38.36-8.4388-16.74 6.6504-26.748 5.3613-36.114-4.6522-3.6551-3.9076-4.9955-6.4759-7.4083-14.195-3.5858-11.472-5.0595-14.385-9.3633-18.513-5.2677-5.052-11.024-7.0186-22.832-7.8001-15.789-1.0449-23.294-5.2751-28.6-16.12-2.5798-5.2729-2.6516-5.8592-1.8593-15.18 1.4143-16.638 1.1149-23.204-1.266-27.76-2.79-5.3393-8.773-10.646-16.268-14.43-11.325-5.717-17.168-13.132-18.535-23.522-0.93448-7.1062 0.86511-12.692 7.0788-21.972 6.8565-10.24 8.4563-14.178 8.4563-20.816 0-7.2961-1.3723-10.848-7.6757-19.866-6.9706-9.9731-8.3268-13.409-8.3002-21.027 0.0404-11.552 5.0143-18.797 18.126-26.402 10.006-5.8032 15.255-11.531 17.433-19.021 1.5906-5.4715 1.5849-6.4587-0.10043-17.447-2.0062-13.08-1.4281-17.863 3.0089-24.891 5.2245-8.2762 12.432-11.727 27.206-13.025 18.682-1.6413 24.943-6.8107 30.739-25.379 4.0481-12.968 7.6182-17.957 15.749-22.008 7.8098-3.8918 15.28-3.5999 27.069 1.0575 17.717 6.9995 25.371 5.0926 40.095-9.9898 7.2493-7.4255 10.14-9.6882 14.054-11.001 12.237-4.1035 20.044-1.3751 33.542 11.723 8.5141 8.2617 10.54 9.7158 15.572 11.179 7.5564 2.1967 12.847 1.5104 24.022-3.1161 11.348-4.6979 18.275-5.0279 26.5-1.2622 8.0635 3.6916 12.161 9.1854 16.082 21.561 5.9664 18.833 12.301 23.851 31.937 25.305 13.505 0.99935 20.322 3.8045 25.049 10.307 6.2684 8.6231 6.6287 11.521 4.2151 33.903-1.3322 12.354 4.1601 21.307 17.626 28.732 13.082 7.2131 18.146 13.502 19.638 24.389 0.90473 6.6007-1.1535 12.654-7.6544 22.511-6.6404 10.069-7.9997 13.576-7.9403 20.487 0.0585 6.7996 1.7365 11.136 7.3554 19.011 6.7938 9.5206 8.5507 13.953 8.5765 21.638 0.0168 5.0196-0.56402 7.7286-2.4826 11.579-3.1227 6.2664-4.8966 7.9111-15.493 14.364-10.598 6.4541-12.555 8.2529-15.77 14.498-3.0602 5.9443-3.3736 11.844-1.3278 24.997 1.2646 8.1299 1.2356 9.5612-0.30026 14.825-1.9555 6.7016-7.7207 13.673-13.926 16.838-2.5257 1.2885-7.5151 2.341-14.043 2.9624-21.051 2.0038-27.779 7.1454-32.786 25.057-3.8348 13.717-9.3031 20.546-19.186 23.962-7.6273 2.636-11.657 2.2646-23.387-2.1556-12.871-4.8501-19.15-5.2237-26.753-1.5917-5.1157 2.4439-5.7716 2.9996-15.822 13.404-8.3954 8.6906-15.826 11.57-25.949 10.057zm29.773-74.993c19.051-3.805 37.425-11.859 53.561-23.476 9.8495-7.0917 24.686-22.344 31.715-32.603 31.555-46.058 31.894-106.29 0.8604-152.96-12.634-18.998-32.133-35.879-53.525-46.337-39.536-19.329-87.987-17.911-125.64 3.6764-37.626 21.574-62.582 58.236-68.454 100.56-1.5739 11.344-0.79703 34.647 1.5098 45.284 10.823 49.907 47.999 89.854 96.24 103.41 20.637 5.8006 42.68 6.6449 63.728 2.441zm-110.26-56.53c-1.8048-0.88953-4.2794-3.0165-5.4992-4.7266-2.1765-3.0513-2.2232-3.7715-2.5032-38.654l-0.28538-35.545 2.2851-3.358c4.8689-7.155 6.1059-7.5413 24.149-7.5413 13.815 0 16.618 0.26153 18.912 1.7648l2.6934 1.7648 2.1987-4.6775c1.2093-2.5726 4.7549-7.4162 7.8792-10.764 9.6263-10.314 17.771-24.356 28.082-48.419 4.14-9.661 4.8583-12.292 4.8583-17.797 0-3.835 0.61987-7.6588 1.5255-9.41 1.2793-2.4739 2.1263-2.9464 5.2493-2.928 4.9903 0.0294 11.207 2.9819 14.487 6.8803 5.9463 7.0668 6.0166 16.951 0.26364 37.092-4.3004 15.055-5.3549 23.641-3.2464 26.432 1.4294 1.8918 1.6789 1.8963 11.152 0.20428 37.876-6.7653 57.15 1.2818 51.531 21.514-0.85371 3.0736-0.68675 4.2136 1.0478 7.1535 3.3629 5.6998 3.989 9.2104 2.5985 14.571-0.68978 2.6592-2.1852 6.0184-3.3231 7.465-1.9442 2.4717-1.9803 2.8869-0.5981 6.8892 2.4564 7.1129-0.69116 17.557-6.4231 21.313-1.9469 1.2757-2.2417 2.0993-1.7292 4.8312 1.7782 9.4784-6.0718 19.849-17.75 23.45-9.5754 2.9523-17.917 3.3791-46.961 2.4023l-25.672-0.86335-4.8238-2.9687c-8.1803-5.0344-13.966-15.828-16.76-31.268l-1.3822-7.637-0.0897 17.846c-0.0981 19.498-0.9575 23.355-5.6842 25.509-4.1012 1.8686-32.151 1.462-36.182-0.52444z"/>
	</g>
</svg>
