<svg xmlns:inkscape="http://www.inkscape.org/namespaces/inkscape" xmlns:rdf="http://www.w3.org/1999/02/22-rdf-syntax-ns#" xmlns="http://www.w3.org/2000/svg" sodipodi:docname="basket-plus.svg" height="512" width="512" version="1.1" xmlns:cc="http://creativecommons.org/ns#" xmlns:dc="http://purl.org/dc/elements/1.1/" inkscape:version="0.91 r13725" viewBox="0 0 512.00001 512.00001" xmlns:sodipodi="http://sodipodi.sourceforge.net/DTD/sodipodi-0.dtd">
	<sodipodi:namedview bordercolor="#666666" inkscape:pageshadow="2" inkscape:window-y="-8" pagecolor="#ffffff" inkscape:window-height="1017" inkscape:window-maximized="1" inkscape:zoom="0.35" inkscape:window-x="-8" showgrid="false" borderopacity="1.0" inkscape:current-layer="layer1" inkscape:cx="-126.42857" inkscape:cy="748.57143" units="px" inkscape:window-width="1920" inkscape:pageopacity="0.0" inkscape:document-units="px"/>
	<g inkscape:label="Layer 1" inkscape:groupmode="layer" transform="translate(0 -540.36)">
		<path inkscape:connector-curvature="0" d="m218.47 1035.1c-17.521-1.6851-32.448-14.69-37.303-32.501-1.4772-5.4192-1.4785-15.772-0.002-21.248 3.3589-12.465 11.792-22.816 23.158-28.426 15.015-7.4111 34.159-5.0788 46.787 5.6998 15.676 13.381 19.989 34.816 10.743 53.401-3.3402 6.7141-11.711 15.014-18.74 18.582-7.5766 3.8453-15.794 5.3434-24.641 4.4926zm10.206-22.127c6.5839-1.7149 11.351-5.7293 14.379-12.109 3.4705-7.3114 2.2396-16.531-3.0513-22.855-4.4454-5.3129-12.174-8.4626-18.842-7.6789-7.6331 0.8971-13.841 5.2814-17.232 12.17-1.8207 3.6984-2.0406 4.7213-2.0406 9.4925 0 4.782 0.21795 5.7902 2.0608 9.5337 4.696 9.539 14.545 14.098 24.726 11.446zm142.06 22.118c-9.7816-1.0703-17.767-5.0575-25.509-12.736-4.1513-4.1177-5.5668-6.0657-7.9609-10.955-6.4268-13.126-6.4289-25.666-0.007-38.813 2.4295-4.9733 3.7848-6.8218 8.2766-11.288 8.8244-8.7751 18.424-12.681 31.009-12.617 11.856 0.06 21.407 4.1616 30.124 12.936 4.1044 4.1314 5.6437 6.2523 7.9955 11.017 6.4057 12.977 6.3993 25.746-0.0194 38.766-5.498 11.153-16.802 20.215-28.397 22.766-5.6364 1.2399-10.17 1.5104-15.513 0.9257zm14.698-23.705c4.3122-2.1228 8.0882-5.9695 10.333-10.527 1.236-2.5089 1.4377-3.8854 1.4369-9.8049-0.001-7.9453-0.79128-10.056-5.4251-14.49-3.5441-3.391-6.9766-5.0528-12.334-5.9716-7.4198-1.2724-14.062 1.01-19.417 6.6723-7.6854 8.1263-7.7985 20.747-0.26105 29.131 6.6601 7.4076 16.766 9.3721 25.667 4.9897zm-203.6-102.79c-0.16-0.43-21.71-73.74-47.9-162.92-26.18-89.18-47.919-163.19-48.302-164.49l-0.69724-2.3476h-42.47-42.47v-10.329-10.329h50.663 50.663l1.0345 3.5996c2.3876 8.3081 36.811 126.11 38.233 130.84l1.5531 5.1647h38.443 38.443l-1.4894-4.379c-0.81916-2.4084-2.0801-7.2296-2.8021-10.714-8.9815-43.343 9.7729-86.712 47.658-110.21 35.752-22.174 82.607-19.904 116.66 5.6509 5.4881 4.1191 15.557 14.083 19.707 19.501 14.962 19.534 22.938 44.44 21.645 67.597-0.49687 8.904-1.8754 17.445-3.9408 24.415-0.86729 2.9266-1.714 5.9533-1.8816 6.7259l-0.30475 1.4047 48.86 0.16034 48.84 0.15-40.66 97.35c-22.36 53.54-42.23 101.08-44.15 105.64l-3.4982 8.2948h-120.78c-96.051 0-120.84-0.16021-121.07-0.78252zm260.75-100.16c18.049-43.469 33.736-81.218 34.859-83.887l2.0414-4.8516h-38.378-38.378l-3.9749 5.1647c-13.6 17.671-33.901 31.152-55.347 36.756-10.879 2.8424-15.531 3.4352-26.958 3.4352-11.13 0-16.042-0.59786-25.98-3.1624-22.496-5.8051-42.973-19.393-56.745-37.655l-3.4228-4.5386h-41.036c-32.57 0-40.975 0.16145-40.74 0.78253 0.16311 0.43039 11.048 37.758 24.19 82.951 13.141 45.193 24.055 82.589 24.252 83.104 0.31671 0.82534 12.9 0.93583 106.58 0.93583h106.22l32.817-79.035zm-114.24-65.84c6.8102-1.0443 11.879-2.331 17.464-4.433 18.606-7.0031 35.387-22.221 44.487-40.342 8.5155-16.957 10.687-37.925 5.9149-57.107-7.4412-29.911-32.639-53.876-63.024-59.941-20.631-4.1179-40.937-0.71467-58.679 9.8343-26.922 16.007-42.51 46.379-39.743 77.436 1.8319 20.561 10.143 38.129 24.675 52.159 18.344 17.71 44.345 26.16 68.905 22.394zm-22.224-50.76v-19.094h-19.72-19.72v-10.955-10.955h19.711 19.711l0.16542-19.563 0.16542-19.563h10.642 10.642l0.16542 19.563 0.16542 19.563h19.085 19.085v10.955 10.955h-19.094-19.094v19.094 19.094h-10.955-10.955v-19.094z"/>
	</g>
</svg>
