<svg xmlns:rdf="http://www.w3.org/1999/02/22-rdf-syntax-ns#" xmlns="http://www.w3.org/2000/svg" height="512" width="512" version="1.1" xmlns:cc="http://creativecommons.org/ns#" xmlns:dc="http://purl.org/dc/elements/1.1/" viewBox="0 0 512.00001 512.00001">
	<g transform="translate(0 -540.36)">
		<path d="m95.595 1051.7c-7.0307-1.1887-15.071-4.5309-21.766-9.0476-7.7892-5.2548-16.788-16.175-21.202-25.728-4.0999-8.8738-1.6309 1.4456-37.157-155.3-7.4487-32.864-13.974-62.003-14.5-64.754-1.1572-6.0496-1.3101-19.219-0.29363-25.29 2.528-15.101 8.1625-27.385 17.322-37.763 7.7982-8.8364 17.217-14.741 28.165-17.656 5.328-1.4188 5.8627-1.4515 27.779-1.6955l22.347-0.2488 0.28283-2.3056c0.15555-1.2681 0.43937-4.6818 0.6307-7.586 1.3565-20.591 8.1674-46.615 17.361-66.337 12.438-26.68 29.483-48.574 51.293-65.885 16.731-13.279 40.329-24.475 60.27-28.594 12.008-2.4802 16.102-2.8762 29.737-2.8762 17.65 0 28.864 1.7577 44.744 7.013 9.1799 3.0379 24.142 10.109 32.238 15.236 42.985 27.219 72.697 75.397 80.546 130.6 0.64752 4.5543 1.9948 18.499 1.9948 20.646 0 0.1085 8.3527 0.1972 18.561 0.1972 10.209 0 21.152 0.2642 24.318 0.5872 18.284 1.8651 34.035 13.054 44.554 31.651 6.034 10.668 9.9942 28.692 9.0372 41.132-0.59292 7.7072-1.1388 10.421-9.279 46.134-4.2854 18.801-9.0061 39.561-10.49 46.134-1.4842 6.5727-3.9858 17.578-5.5591 24.456-1.5732 6.8785-3.4499 15.132-4.1704 18.342-7.6551 34.106-18.793 82.232-19.746 85.32-0.66037 2.14-2.2842 6.1419-3.6086 8.8933-8.0768 16.78-20.983 28.354-37.338 33.484l-4.8894 1.5336-159.25 0.077c-87.585 0.042-160.46-0.1278-161.94-0.3779zm317.12-43.5c3.1964-1.879 5.4163-4.5116 7.6776-9.1049 1.994-4.0502 1.7722-3.1178 22.525-94.697 15.447-68.167 22.473-99.076 25.077-110.33 1.3256-5.7292 1.5462-7.8852 1.5636-15.285 0.0178-7.5033-0.13033-8.9836-1.1463-11.468-1.7456-4.2683-3.8494-6.6683-7.3539-8.3893l-3.1405-1.5423h-202.04-202.04l-2.2233 1.2019c-2.7697 1.4973-5.3815 4.2329-6.8125 7.1356-2.333 4.7322-3.2859 12.717-2.3778 19.925 0.4967 3.9422 16.165 74.101 30.865 138.21 1.367 5.9613 5.4883 24.095 9.1585 40.298 3.6702 16.202 7.1882 30.835 7.8179 32.516 2.4153 6.4493 7.2518 11.725 11.72 12.785 1.0323 0.2448 70.786 0.4073 155.01 0.3611l153.13-0.084 2.5993-1.528zm-268.57-33.64c-4.4834-1.4962-6.2507-2.5467-9.1325-5.4286-2.8935-2.8934-4.2208-5.2048-5.5357-9.6398-0.80175-2.7043-0.89507-10.182-0.89507-71.724 0-74.612-0.0975-72.126 3.0364-77.466 4.2319-7.2108 13.322-11.627 21.288-10.343 7.4148 1.195 14.205 6.4805 16.899 13.153l1.2978 3.2152v71.146 71.146l-1.272 3.1465c-4.1513 10.269-15.826 16.084-25.686 12.794zm103.94 0.2504c-5.6018-1.633-11.036-5.8334-13.301-10.282-2.9324-5.7577-2.8178-2.6352-2.8178-76.761 0-74.757-0.10549-72.108 3.0878-77.556 4.1517-7.0844 13.362-11.522 21.269-10.247 6.217 1.002 11.518 4.4852 14.924 9.8059 3.6805 5.7498 3.5181 2.1479 3.5181 78.04 0 66.9-0.0295 68.843-1.0984 72.304-2.0728 6.711-6.424 11.442-12.735 13.846-3.8156 1.4536-9.4898 1.8294-12.846 0.851zm103.38-0.033c-6.3939-1.7791-11.223-5.8538-14.077-11.877l-1.7644-3.7245-0.17234-69.757c-0.1286-52.056-0.006-70.532 0.48332-72.814 0.90721-4.2299 2.7434-7.6068 5.7748-10.621 12.314-12.242 32.687-5.513 35.898 11.857 0.37067 2.0052 0.51336 26.864 0.41282 71.921-0.14225 63.738-0.22509 69.035-1.1144 71.255-4.247 10.602-15.302 16.581-25.441 13.759zm21.122-261.29c0-0.4673-0.38285-4.4952-0.85078-8.9509-3.072-29.254-14.618-57.947-31.832-79.11-4.1847-5.1446-13.542-14.532-18.454-18.512-32.434-26.283-74.528-31.311-110.57-13.205-12.079 6.0675-21.67 13.248-32.015 23.971-22.352 23.168-36.494 56.297-39.422 92.349l-0.34984 4.3077h116.75c104.37 0 116.75-0.09 116.75-0.8495z"/>
	</g>
</svg>
