<svg xmlns:rdf="http://www.w3.org/1999/02/22-rdf-syntax-ns#" xmlns="http://www.w3.org/2000/svg" height="512" width="512" version="1.1" xmlns:cc="http://creativecommons.org/ns#" xmlns:dc="http://purl.org/dc/elements/1.1/" viewBox="0 0 512.00001 512.00001">
	<g transform="translate(0 -540.36)">
		<path d="m161.09 1045.9c-7.0798-1.3904-16.009-6.2072-21.871-11.799-18.268-17.424-19.027-45.512-1.7244-63.807 2.6441-2.7958 6.3404-6.0039 8.2138-7.1292 1.8735-1.1253 3.5345-2.1355 3.6912-2.245 0.15668-0.1095-0.59126-2.7998-1.6621-5.9785-2.3368-6.9366-2.4735-13.219-0.43688-20.077 1.7775-5.9854 1.5616-5.6286 15.317-25.324 5.8936-8.4385 10.716-15.582 10.716-15.875 0-0.29295-1.2684-2.5327-2.8187-4.9772s-3.4661-6.4127-4.2574-8.8182c-0.79132-2.4055-12.145-55.66-25.231-118.34-28.65-137.14-27.6-132.44-31.15-140.27-7.12-15.69-19.244-28.24-34.909-36.12-8.2-4.13-8.276-4.15-41.718-11.64-25.469-5.7-27.746-6.37-30.393-9.02-2.4044-2.4-2.86-3.6-2.86-7.53 0-3.8662 0.47725-5.1663 2.7782-7.5679 1.528-1.5949 4.0923-3.1453 5.6985-3.4452 3.7006-0.69115 56.89 11.031 67.388 14.851 27.226 9.9075 49.232 32.787 58.383 60.702 1.1131 3.3954 13.342 60.452 27.175 126.79 13.833 66.34 25.693 122.32 26.354 124.41 1.3239 4.1695 6.509 9.8834 11.383 12.544 2.967 1.6196 10.133 1.7384 132.05 2.1875l128.91 0.47487 3.1047 3.105c2.6721 2.6723 3.1048 3.7616 3.1048 7.8172 0 4.0557-0.43261 5.1449-3.1049 7.8172l-3.1049 3.105-127.77 0.24762c-112.16 0.21737-128.54 0.0693-134.06-1.2119-3.4612-0.80271-6.5785-1.1278-6.9273-0.7225-0.68292 0.79367-16.177 23.04-20.285 29.125-2.877 4.2616-3.2311 9.0111-0.95867 12.858 3.3411 5.6561-7.6536 5.2504 156.3 5.767l150.71 0.47487 2.6741 2.4607c1.4707 1.3534 4.2069 3.3752 6.0804 4.4928 5.5029 3.283 13.085 12.027 16.199 18.681 18.032 38.533-21.938 78.477-60.481 60.44-8.4274-3.9436-16.669-11.952-20.801-20.212-6.956-13.904-6.9772-25.45-0.077-41.882 0.6623-1.5772-4.6991-1.6621-104.93-1.6621s-105.59 0.0849-104.93 1.6621c3.2365 7.7074 4.3188 11.54 4.8247 17.086 2.7466 30.107-24.645 54.491-54.604 48.607zm17.111-23.231c8.3758-2.9505 15.078-12.432 15.078-21.33 0-11.955-10.839-22.794-22.794-22.794s-22.794 10.839-22.794 22.794c0 5.6914 2.6192 11.726 6.923 15.949 6.5776 6.4554 15.05 8.388 23.587 5.3807zm290.62 0c8.3758-2.9505 15.078-12.432 15.078-21.33 0-11.955-10.839-22.794-22.794-22.794s-22.794 10.839-22.794 22.794c0 5.6914 2.6192 11.726 6.923 15.949 6.5776 6.4554 15.05 8.388 23.587 5.3807zm-260.93-148.5c-8.4775-3.8621-6.5487 3.4118-31.791-119.88-14.888-72.722-22.632-112.48-22.279-114.39 0.6333-3.411 4.6904-7.6066 8.1916-8.4712 2.1148-0.52221 337.1 44.223 342.31 45.724 3.133 0.90198 7.0622 5.2161 7.6619 8.4126 0.40733 2.1712-5.8844 27.982-22.822 93.622-21.835 84.621-23.571 90.813-26.212 93.474l-2.8279 2.8493-124.16 0.22225c-119.64 0.21415-124.3 0.15741-128.07-1.5587zm239.77-25.019c0.56212-2.2201 9.5713-37.14 20.02-77.601 10.449-40.46 18.86-73.702 18.691-73.871-0.34231-0.34231-306.76-41.986-307.02-41.725-0.20506 0.20506 39.46 194.41 40.04 196.05 0.3343 0.94077 23.963 1.1872 113.83 1.1872h113.41l1.022-4.0364zm-206.3-55.917c-0.32648-1.6324-0.5936-15.897-0.5936-31.698 0-15.802 0.26712-30.066 0.5936-31.698l0.5936-2.968h22.201c20.673 0 22.201 0.11659 22.201 1.6947 0 0.93211 1.2304 2.4216 2.7343 3.3099 7.6822 4.538 8.7409 19.805 1.8685 26.943l-2.8693 2.9802 3.9975 7.2837c3.2094 5.8478 3.8945 7.9189 3.4748 10.505-0.82138 5.0616-3.49 9.8493-6.4714 11.611-1.5039 0.88837-2.7343 2.3778-2.7343 3.3099 0 1.5781-1.5273 1.6947-22.201 1.6947h-22.201l-0.5936-2.968zm37.554-11.896c2.4387-2.207 2.3777-8.4727-0.0953-9.7962-1.0104-0.54074-6.1148-0.98316-11.343-0.98316-8.7467 0-9.6242 0.16862-10.985 2.1108-2.0504 2.9273-1.847 7.0182 0.46381 9.329 1.769 1.769 2.7574 1.8965 11.08 1.429 6.6293-0.37235 9.6158-0.94592 10.879-2.0895zm-0.30904-25.362c3.902-3.5354 3.407-12.013-0.85698-14.676-2.9494-1.8419-18.044-2.4707-20.268-0.84429-2.3325 1.7056-2.8995 12.366-0.83528 15.706 1.3147 2.1271 1.7783 2.2094 10.696 1.8995 7.4362-0.25846 9.7145-0.68005 11.265-2.0845zm27.694 35.414c0-2.6462 0.41569-5.5879 0.92375-6.5372 0.50805-0.94931 4.414-4.4472 8.6798-7.773s9.6425-7.6468 11.948-9.602c2.3056-1.9553 4.9914-3.9828 5.9685-4.5057 2.4085-1.289 7.6208-10.587 7.6208-13.594 0-1.4529-1.2852-3.7912-3.1988-5.8204-2.8995-3.0744-3.6772-3.3914-8.3104-3.3877-4.0864 0.003-5.9686 0.57386-9.3854 2.8452-2.3506 1.5626-5.4492 2.843-6.8857 2.8452-3.6515 0.006-6.4108-3.0638-6.4108-7.1314 0-3.1112 0.35264-3.5034 5.2236-5.8097 3.6065-1.7076 5.2236-3.0269 5.2236-4.2616 0-1.6596 0.88906-1.7883 12.347-1.7883 11.448 0 12.347 0.1299 12.347 1.7843 0 1.0736 1.0975 2.2389 2.7554 2.9256 5.6732 2.3499 10.76 10.431 10.76 17.094 0 6.7603-3.8907 13.301-13.713 23.052-4.5928 4.5595-8.3506 8.7371-8.3506 9.2836 0 2.0147 5.2195 3.0174 12.49 2.3997 6.8399-0.58115 7.356-0.49007 8.7852 1.5505 0.87704 1.2522 1.5185 4.0846 1.5185 6.7054v4.5374h-25.168-25.168v-4.8112zm60.784-29.855v-34.666h22.794c21.075 0 22.794 0.12532 22.794 1.6621 0.00002 0.91413 1.4574 2.8249 3.2386 4.2461 4.6724 3.7281 6.8734 10.742 5.4151 17.258-0.59721 2.6684-1.931 6.1338-2.964 7.7009s-1.881 3.4086-1.8844 4.0922c-0.0104 2.0794 5.894 8.7295 7.7507 8.7295 1.5511 0 1.7406 0.87892 1.7406 8.0729 0 7.0455-0.21152 8.0762-1.6621 8.0986-2.0946 0.0324-8.7852 6.1707-8.7852 8.06 0 1.2124-3.4216 1.4118-24.219 1.4118h-24.219v-34.666zm40.539 19.072c2.7817-3.2339 2.8172-6.6597 0.0887-8.5708-1.5984-1.1196-4.635-1.4785-12.509-1.4785-12.11 0-13.872 0.85664-13.872 6.7416 0 5.66 2.1512 6.603 14.143 6.1996 9.432-0.31732 10.065-0.46806 12.15-2.8919zm-4.5166-23.786c3.1948-1.6521 3.8669-3.1287 3.8669-8.495 0-6.3721-2.5529-8.121-12.755-8.7379-11.57-0.69965-12.888 0.22863-12.888 9.0789 0 8.8903 0.75539 9.5435 11.037 9.5435 5.2095 0 9.0008-0.49055 10.739-1.3895z"/>
	</g>
</svg>
