<svg xmlns:rdf="http://www.w3.org/1999/02/22-rdf-syntax-ns#" xmlns="http://www.w3.org/2000/svg" height="512" width="512" version="1.1" xmlns:cc="http://creativecommons.org/ns#" xmlns:dc="http://purl.org/dc/elements/1.1/" viewBox="0 0 512.00001 512.00001">
	<g transform="translate(0 -540.36)">
		<path d="m195.49 1020.1c-19.118-4.3699-35.559-19.518-41.56-38.292-3.0735-9.6155-3.0634-23.823 0.0238-33.583 12.554-39.692 62.963-52.606 93.108-23.852 14.077 13.427 20.498 32.428 17.069 50.508-3.699 19.505-17.709 36.166-36.179 43.026-9.3586 3.4757-22.864 4.3889-32.463 2.195zm21.932-37.422c9.4248-4.5624 13.231-15.434 8.9148-25.466-7.2621-16.881-31.954-15.528-37.17 2.0378-5.1059 17.194 11.939 31.327 28.255 23.428zm169.03 37.76c-20.074-4.0672-39.067-22.346-43.58-41.943-1.5671-6.8042-1.4149-21.092 0.29288-27.497 5.4867-20.578 22.387-36.572 43.287-40.969 9.5831-2.0157 15.495-2.0077 24.151 0.0323 25.647 6.0455 44.305 28.967 44.294 54.415-0.0111 24.69-15.136 45.885-38.573 54.055-7.2488 2.5268-22.123 3.476-29.871 1.9062zm20.758-37.76c9.6202-4.657 13.63-16.508 8.8956-26.289-6.4446-13.313-25.031-15.045-34.084-3.177-2.7671 3.6279-3.118 4.9563-3.118 11.804 0 6.843 0.35187 8.1774 3.1098 11.793 5.9061 7.7432 16.315 10.168 25.196 5.8683zm-241.96-86.04c-4.7605-1.1356-9.3592-4.6754-11.523-8.8703-1.0163-1.9699-12.24-43.372-24.942-92.004-20.63-79-45.253-173.2-48.128-184.13l-1.0642-4.0437-31.499-0.006c-17.345-0.003-33.217-0.48313-35.321-1.0678-4.3357-1.2045-10.045-6.6129-11.748-11.128-2.7837-7.3835 0.31285-16.618 7.1175-21.227l3.9807-2.6958h43.83 43.83l3.9384 2.6958c2.1661 1.4827 4.7162 4.1515 5.6668 5.9308 0.95062 1.7792 5.2273 16.579 9.5037 32.889l7.7753 29.654 185.97 0.53916c172.99 0.50153 186.2 0.66816 189.34 2.3875 4.7754 2.6144 8.8134 7.7907 9.6797 12.408 0.86247 4.5974 1.4461 2.0887-15.625 67.156-7.0797 26.985-19.48 74.296-27.556 105.14-8.1085 30.964-15.546 57.25-16.608 58.702-3.0322 4.1424-7.0978 6.7079-12.188 7.6914-5.7939 1.1194-269.73 1.0949-274.43-0.0259zm258.29-39.679c0.57794-2.224 4.9278-18.844 9.6663-36.933s14.78-56.423 22.314-85.187c7.5341-28.764 13.93-52.905 14.214-53.647 0.41086-1.0747-33.272-1.3479-166.2-1.3479-91.694 0-166.72 0.32084-166.72 0.71298 0 0.39215 4.8979 19.438 10.884 42.324 15.809 60.44 19.323 73.879 27.94 106.85 4.2624 16.31 7.9747 30.018 8.2496 30.463 0.27488 0.4448 54.072 0.80874 119.55 0.80874h119.05l1.0508-4.0437zm-118.11-9.204c-4.4198-2.5133-56.36-53.903-58.023-57.409-4.5596-9.6086 1.4008-21.304 11.263-22.1 8.1292-0.65591 8.5502-0.40444 22.603 13.5 7.4925 7.4135 13.949 13.479 14.348 13.479 0.3992 0 0.8615-21.828 1.0274-48.507l0.30154-48.507 3.9666-3.9657c3.3634-3.3627 4.8391-4.0358 9.7049-4.4265 4.723-0.37922 6.4061-0.0108 9.5125 2.083 7.6191 5.1353 7.5447 4.5747 7.5466 56.901l0.002 46.852 13.219-13.068c13.809-13.652 15.837-14.835 24.755-14.446 3.8845 0.1695 10.11 5.7688 11.67 10.496 2.7866 8.4436 2.106 9.4104-27.889 39.62-15.227 15.336-29.247 28.558-31.155 29.384-4.2271 1.8292-9.7504 1.8788-12.851 0.11541z"/>
	</g>
</svg>
