<svg xmlns:inkscape="http://www.inkscape.org/namespaces/inkscape" xmlns:rdf="http://www.w3.org/1999/02/22-rdf-syntax-ns#" xmlns="http://www.w3.org/2000/svg" sodipodi:docname="battery-level-100.svg" height="512" width="512" version="1.1" xmlns:cc="http://creativecommons.org/ns#" xmlns:dc="http://purl.org/dc/elements/1.1/" inkscape:version="0.91 r13725" viewBox="0 0 511.99999 512.00001" xmlns:sodipodi="http://sodipodi.sourceforge.net/DTD/sodipodi-0.dtd">
	<sodipodi:namedview bordercolor="#666666" inkscape:pageshadow="2" inkscape:window-y="-8" pagecolor="#ffffff" inkscape:window-height="1017" inkscape:window-maximized="1" inkscape:zoom="0.35" inkscape:window-x="-8" showgrid="false" borderopacity="1.0" inkscape:current-layer="svg2" inkscape:cx="215.01557" inkscape:cy="520" units="px" inkscape:window-width="1920" inkscape:pageopacity="0.0" inkscape:document-units="px">
		<sodipodi:guide position="0,0" orientation="0,512"/>
		<sodipodi:guide position="511.99999,0" orientation="-512,0"/>
		<sodipodi:guide position="511.99999,512.00001" orientation="0,-512"/>
		<sodipodi:guide position="0,512.00001" orientation="512,0"/>
	</sodipodi:namedview>
	<path inkscape:connector-curvature="0" d="m31.307 400.04c-13.375-4.2-21.88-11.64-27.898-24.42l-3.409-7.24v-112.53-112.54l3.4853-7.43c4.4383-9.4667 12.519-17.548 21.986-21.986l7.4339-3.4852h222.44c216.48 0 222.61 0.0679 229.01 2.5364 9.1411 3.5252 19.222 13.451 23.861 23.495l3.783 8.1899v111.22 111.22l-4.0974 8.5553c-5.018 10.477-12.016 17.689-21.568 22.227l-7.2391 3.439-221.12 0.24881c-180.25 0.2-222.14-0.08-226.66-1.5zm443.73-34.852 3.3964-3.1909v-105.65-105.65l-3.1764-3.6929-3.1765-3.6929-212.35-0.37674c-116.79-0.20721-214.31-0.0261-216.7 0.40246-2.3931 0.42857-5.5026 1.9307-6.91 3.3382-2.4921 2.4921-2.5589 5.3261-2.5589 108.41 0 58.215 0.38472 106.85 0.85513 108.07 2.2853 5.9556-3.5922 5.8104 223.12 5.5099l214.1-0.28384 3.3964-3.1909zm-364.8-37.02c-5.153-1.1065-7.7896-3.1556-10.295-8.0014-2.889-5.5866-2.7894-123.26 0.10925-128.86 2.5298-4.8921 8.2124-7.8541 15.068-7.8541 4.2555 0 6.355 0.92123 10.266 4.5047l4.9164 4.5047 0.36708 61.355c0.32852 54.914 0.13781 61.838-1.8169 65.957-3.1781 6.6975-10.708 10.094-18.614 8.3961zm93.958-0.007c-4.9731-1.4474-8.7026-4.8996-10.899-10.089-2.6391-6.2352-2.6192-118.25 0.0224-124.57 2.7736-6.6374 7.9667-10.05 15.296-10.05 4.3937 0 7.2936 0.83972 9.8534 2.8534 7.1585 5.6309 7.2572 6.5811 7.2551 69.824-0.001 52.888-0.2152 58.702-2.3034 62.797-3.9275 7.7023-11.687 11.431-19.224 9.2374zm95.333 0.30162c-1.7566-0.26185-4.6002-1.3976-6.3192-2.5238-6.9219-4.5348-6.9392-4.7104-6.9392-70.159 0-53.862 0.24363-61.149 2.1526-64.381 6.2344-10.554 22.365-10.554 28.6 0 1.909 3.2318 2.1526 10.519 2.1526 64.381 0 50.461-0.3226 61.36-1.907 64.424-3.1776 6.1447-10.149 9.3906-17.739 8.2593zm92.852-0.30981c-5.332-1.5508-9.8079-6.1573-11.339-11.67-1.6599-5.9751-1.7057-113.32-0.0513-120.53 3.4617-15.095 23.774-17.218 31.003-3.2396 1.636 3.1636 1.9473 13.317 1.9431 63.39 0 56.777-0.12767 59.824-2.5695 63.829-4.3328 7.106-11.76 10.322-18.986 8.22z"/>
</svg>
