<?xml version="1.0" encoding="UTF-8" standalone="no"?>
<svg id="svg2" xmlns:rdf="http://www.w3.org/1999/02/22-rdf-syntax-ns#" xmlns="http://www.w3.org/2000/svg" height="512" width="512" version="1.1" xmlns:cc="http://creativecommons.org/ns#" xmlns:dc="http://purl.org/dc/elements/1.1/" viewBox="0 0 512.00001 512.00001">
	<g id="layer1" transform="translate(0,-540.36216)">
		<path id="path3347" d="m248.5 1051.8031c-1.1-0.2533-4.475-0.9562-7.5-1.562-11.73274-2.3495-25.24964-10.9126-34.06526-21.5807-3.74642-4.5337-9.09934-13.775-10.30939-17.7982-0.59685-1.9845-0.13537-2 59.37455-2 59.50988 0 59.9714 0.016 59.37464 2-1.20972 4.0228-6.56271 13.2644-10.30928 17.7982-8.40685 10.1735-20.4738 18.1074-32.43714 21.3273-5.38538 1.4495-20.71023 2.6025-24.12812 1.8154zm-29.5-64.03071c-53.87784-1.49635-108.05002-5.94221-152.5-12.51554-17.162822-2.53807-43.745395-7.71161-44.608158-8.68172-1.02279-1.15004 0.827818-24.48414 2.65059-33.42099 4.886722-23.95904 13.712298-40.42571 35.530238-66.29196 24.185816-28.67348 31.273638-38.4568 40.38373-55.74163 17.65992-33.50668 25.30685-70.40354 27.51437-132.75837 0.98936-27.94584 2.1063-35.261 7.10001-46.5 5.98443-13.46875 17.37591-25.25004 31.56439-32.6445 10.81823-5.63803 19.07156-8.39469 34.04055-11.36976 6.29581-1.25128 11.63409-2.46222 11.86285-2.69097 0.22875-0.22876 0.84589-3.45214 1.37143-7.16307 2.67972-18.92222 16.75541-33.53605 35.34-36.69109 23.37075-3.96757 45.81957 12.93014 48.76857 36.70915 0.45251 3.64878 1.36607 6.96993 2.03014 7.38034 0.66406 0.41042 3.51227 1.04187 6.32934 1.40322 16.04687 2.0584 33.6374 8.13306 44.96588 15.52837 23.12119 15.09367 32.6493 35.91241 32.65961 71.36067 0.0165 56.53727 9.86224 105.36334 28.16601 139.67764 8.8267 16.54752 14.8017 24.56807 44.6977 60 18.37486 21.77739 27.9285 41.80957 31.47635 66 1.86182 12.69444 2.74578 26.82672 1.71774 27.46209-1.40761 0.86995-25.66772 5.50986-41.88292 8.0104-32.54605 5.01889-69.48711 8.73458-109.74951 11.03906-24.4091 1.3971-96.32316 2.54037-119.42891 1.89866z"/>
	</g>
</svg>
