<svg xmlns:rdf="http://www.w3.org/1999/02/22-rdf-syntax-ns#" xmlns="http://www.w3.org/2000/svg" height="512" width="512" version="1.1" xmlns:cc="http://creativecommons.org/ns#" xmlns:dc="http://purl.org/dc/elements/1.1/" viewBox="0 0 512.00001 512.00001">
	<g transform="translate(0 -540.36)">
		<path d="m246.48 1050.9c-17.535-1.9051-37.093-11.509-49.268-24.194-9.313-9.7027-18.391-26.108-20.845-37.669l-0.69119-3.2567h-82.139c-91.032 0-85.338 0.41946-90.756-6.6864-2.5472-3.341-2.8049-4.4327-2.7798-11.775 0.048099-14.072 6.1643-28.285 16.688-38.782 2.4169-2.4106 9.9078-9.7194 16.647-16.242 20.019-19.376 32.46-36.324 44.255-60.29 20.042-40.722 28.761-84.158 30.673-152.81 0.43335-15.56 1.3008-27.423 2.5568-34.97 5.4902-32.988 22.757-63.97 47.949-86.034 72.432-63.439 184.33-42.04 228.36 43.67 10.038 19.542 16.158 43.988 16.186 64.658 0.022 16.13 1.8429 48.984 3.5629 64.283 5.7474 51.122 19.511 92.758 41.535 125.64 9.6509 14.41 18.292 24.578 31.976 37.624 5.8207 5.5493 12.548 12.062 14.949 14.473 10.525 10.567 16.611 24.736 16.659 38.782 0.0252 7.3426-0.23261 8.4343-2.7798 11.775-5.4176 7.1059 0.2762 6.6864-90.756 6.6864h-82.139l-0.69119 3.2567c-2.4537 11.561-11.532 27.966-20.845 37.669-16.784 17.487-43.37 26.903-68.308 24.194zm21.413-34.51c8.2903-2.2065 15.869-6.4871 21.773-12.297 5.1393-5.0579 11.397-14.409 11.417-17.06 0.007-0.98363-9.6722-1.2526-45.083-1.2526s-45.091 0.26895-45.083 1.2526c0.0199 2.6513 6.278 12.002 11.417 17.06 11.785 11.598 29.858 16.476 45.559 12.297zm198.35-69.422c-43.242-39.302-70.082-84.631-83.82-141.56-7.5597-31.327-10.658-57.462-12.116-102.21-1.1415-35.039-2.7647-44.15-11.227-63.019-6.9433-15.482-22.252-33.722-37.095-44.201-39.765-28.07-92.197-28.07-131.96 0-14.844 10.478-30.152 28.719-37.095 44.201-8.4624 18.869-10.086 27.98-11.227 63.019-1.2665 38.874-3.5907 61.666-9.0086 88.343-13.063 64.317-39.79 112.28-86.369 155-3.169 2.9062-5.7618 5.4839-5.7618 5.7283s97.2 0.44432 216 0.44432h216l-6.32-5.7442z"/>
	</g>
</svg>
