<?xml version="1.0" encoding="UTF-8" standalone="no"?>
<svg id="svg3357" xmlns:rdf="http://www.w3.org/1999/02/22-rdf-syntax-ns#" xmlns="http://www.w3.org/2000/svg" viewBox="0 0 512 512" version="1.1" xmlns:cc="http://creativecommons.org/ns#" xmlns:dc="http://purl.org/dc/elements/1.1/">
	<text id="text3499" style="word-spacing:0px;letter-spacing:0px" xml:space="preserve" font-size="40px" y="214" x="232" font-family="sans-serif" line-height="125%" fill="#000000"><tspan id="tspan3501" x="232" y="214"/></text>
	<path id="path4638" d="m232.49223 510.89241c-47.40261-4.5191-92.48246-22.06567-131.45546-51.16682-12.344089-9.21734-39.60098-36.47085-48.819467-48.81341-69.623071-93.21784-69.623071-216.67012 0-309.88796 9.218487-12.342556 36.475378-39.596063 48.819467-48.8134 93.22942-69.614427 216.69704-69.614427 309.92645 0 12.3441 9.217337 39.60099 36.470844 48.81947 48.8134 69.62308 93.21784 69.62308 216.67012 0 309.88796-9.21848 12.34256-36.47537 39.59607-48.81947 48.81341-51.99548 38.82503-115.86288 57.13553-178.47099 51.16682zm38.51273-112.84957v-17.95839l3.75124-0.63617c11.67204-1.97945 21.83693-5.04425 30.21129-9.10894 7.91729-3.84284 10.86589-6.00021 18.13577-13.26919 7.33954-7.33862 9.38001-10.14136 13.20171-18.13351 2.48621-5.19929 5.3374-12.82896 6.33597-16.95481 2.37762-9.82376 2.40222-28.85892 0.0491-38.00785-2.58132-10.03619-9.02066-22.19529-15.40712-29.09258-10.37655-11.20652-21.44246-17.28217-58.04819-31.87086-34.98458-13.94261-39.63889-17.76832-39.60701-32.55586 0.0176-8.16694 1.66944-12.62105 6.77699-18.27378 10.19929-11.288 30.20138-11.42228 42.88432-0.2879 4.10476 3.60358 11.76921 15.45811 13.8607 21.43822 0.74572 2.13221 1.8496 4.06619 2.45306 4.29773 0.82486 0.3165 39.83755-14.96432 41.1765-16.12835 0.54908-0.47735-3.65638-11.41416-6.73-17.50223-9.46008-18.73799-25.02118-31.76432-44.03937-36.86574-4.12637-1.10685-9.19054-2.29817-11.25372-2.64739l-3.75125-0.63494v-13.95756-13.957569h-15.00496-15.00496v13.957569 13.95756l-3.75124 0.61622c-18.39414 3.02158-35.35716 12.25518-44.61585 24.28605-21.88291 28.43493-22.11837 70.41677-0.53284 94.99828 9.68931 11.03414 24.25391 19.19953 53.90158 30.21901 23.61744 8.77815 33.90982 13.9468 38.7732 19.47119 4.38664 4.98288 5.24617 7.7617 5.23158 16.91338-0.012 7.50286-3.07438 14.67011-8.53314 19.97093-9.4657 9.19184-33.06928 10.36006-46.79689 2.31614-8.92615-5.23042-15.9429-15.39002-18.76025-27.16308-0.65821-2.75057-1.52977-5.37269-1.93679-5.82694-0.55407-0.61838-38.05271 8.25544-45.65686 10.80442-1.85561 0.62201 2.95078 15.67327 8.77084 27.46595 4.37817 8.87112 6.44659 11.74037 13.77242 19.1047 12.31903 12.38377 23.82091 18.33156 41.63143 21.5282 4.40145 0.78998 8.11518 1.43693 8.25272 1.43768 0.13755 0.00075 0.25009 8.10305 0.25009 18.00509v18.00372h15.00496 15.00496v-17.9584z"/>
</svg>
