<svg xmlns:inkscape="http://www.inkscape.org/namespaces/inkscape" xmlns:rdf="http://www.w3.org/1999/02/22-rdf-syntax-ns#" xmlns="http://www.w3.org/2000/svg" sodipodi:docname="boat.svg" height="512" width="512" version="1.1" xmlns:cc="http://creativecommons.org/ns#" xmlns:dc="http://purl.org/dc/elements/1.1/" inkscape:version="0.91 r13725" viewBox="0 0 512.00001 512.00001" xmlns:sodipodi="http://sodipodi.sourceforge.net/DTD/sodipodi-0.dtd">
	<sodipodi:namedview bordercolor="#666666" inkscape:pageshadow="2" inkscape:window-y="-8" pagecolor="#ffffff" inkscape:window-height="1017" inkscape:window-maximized="1" inkscape:zoom="0.35" inkscape:window-x="-8" showgrid="false" borderopacity="1.0" inkscape:current-layer="layer1" inkscape:cx="-126.42857" inkscape:cy="520" units="px" inkscape:window-width="1920" inkscape:pageopacity="0.0" inkscape:document-units="px"/>
	<g inkscape:label="Layer 1" inkscape:groupmode="layer" transform="translate(0 -540.36)">
		<path inkscape:connector-curvature="0" d="m368.86 1050.6c-11.451-2.9835-36.505-10.743-51.006-15.796-51.756-18.038-77.354-23.341-107.85-22.344-25.655 0.8388-49.529 6.4852-79.065 18.699-5.9616 2.4653-10.901 4.3913-10.976 4.2801-0.56513-0.8366-56.455-164.9-56.441-165.68 0.03-1.6247 191.38-92.846 193.53-92.258 0.98971 0.27095 44.529 20.995 96.754 46.053 61.411 29.466 94.856 45.94 94.676 46.636-0.15283 0.5916-14.24 41.828-31.306 91.638l-31.028 90.562-5.5046-0.076c-3.0276-0.042-8.3282-0.8118-11.779-1.7109zm-242.42-273.44c0.22449-45.743 0.26715-46.814 1.9544-49.074 0.94869-1.2703 2.7645-3.0859 4.0351-4.0346 2.3043-1.7205 2.6123-1.7255 121.26-1.9649 65.42-0.13198 120.18-0.0193 121.68 0.25042 3.2543 0.58309 7.9722 4.5009 9.3016 7.7243 0.67933 1.6472 0.88771 15.338 0.73053 47.998l-0.2199 45.693-64.632-30.958-64.632-30.958-53.748 25.769c-29.561 14.173-58.745 28.143-64.853 31.044l-11.105 5.2756 0.22949-46.764zm55.027-74.788c0-5.002 0.35469-6.6817 1.899-8.9935 3.5448-5.3063 5.5779-5.768 25.405-5.7695l17.683-0.002 0.49565-3.5556c0.27261-1.9556 1.4433-12.591 2.6014-23.634 1.1582-11.043 2.3126-21.302 2.5654-22.797l0.45956-2.719h23.371 23.371l0.39351 1.8824c0.34225 1.6372 5.4946 48.688 5.4946 50.176 0 0.30723 8.444 0.67274 18.765 0.81223 17.554 0.23729 18.917 0.36719 21.124 2.0143 3.6306 2.709 5.193 6.1304 5.8047 12.711l0.55995 6.0253h-74.996-74.996v-6.1508zm61.048-81.77c-3.558-2.0641-6.3006-5.9784-6.9986-9.9885l-0.51437-2.9552-5.7417 0.32443c-6.7817 0.3832-11.368-1.2834-16.64-6.0464-2.892-2.6128-3.6551-2.9249-5.4666-2.2361-10.99 4.1784-26.263-0.62725-33.601-10.573-3.399-4.6067-6.3076-13.011-6.3076-18.225 0-5.1764 2.9008-13.608 6.2364-18.127 5.2371-7.0951 15.643-12.409 24.3-12.409 11.733 0 24.196 8.7519 28.189 19.796 0.85092 2.3532 1.4203 2.7923 3.6207 2.7923 8.137 0 17.366 6.9498 20.08 15.121 1.2947 3.8979 1.4407 10.897 0.31132 14.926-0.21881 0.7806 0.63123 1.3937 2.4934 1.7985 3.2961 0.7164 6.4091 2.874 8.8354 6.1237 1.312 1.7573 1.7249 3.5628 1.7249 7.5428 0 4.4427-0.35382 5.6964-2.3439 8.3055-1.2891 1.6902-3.4352 3.6373-4.7689 4.327-3.478 1.7985-9.8587 1.562-13.408-0.49702z"/>
	</g>
</svg>
