<?xml version="1.0" encoding="UTF-8" standalone="no"?>
<!-- Created with Inkscape (http://www.inkscape.org/) -->

<svg
   xmlns:dc="http://purl.org/dc/elements/1.1/"
   xmlns:cc="http://creativecommons.org/ns#"
   xmlns:rdf="http://www.w3.org/1999/02/22-rdf-syntax-ns#"
   xmlns:svg="http://www.w3.org/2000/svg"
   xmlns="http://www.w3.org/2000/svg"
   xmlns:sodipodi="http://sodipodi.sourceforge.net/DTD/sodipodi-0.dtd"
   xmlns:inkscape="http://www.inkscape.org/namespaces/inkscape"
   width="512"
   height="512"
   viewBox="0 0 512.00001 512.00001"
   id="svg2"
   version="1.1"
   inkscape:version="0.91 r13725"
   sodipodi:docname="book-search.svg">
  <defs
     id="defs4" />
  <sodipodi:namedview
     id="base"
     pagecolor="#ffffff"
     bordercolor="#666666"
     borderopacity="1.0"
     inkscape:pageopacity="0.0"
     inkscape:pageshadow="2"
     inkscape:zoom="0.35"
     inkscape:cx="-126.42857"
     inkscape:cy="520"
     inkscape:document-units="px"
     inkscape:current-layer="layer1"
     showgrid="false"
     units="px"
     inkscape:window-width="1920"
     inkscape:window-height="1057"
     inkscape:window-x="-8"
     inkscape:window-y="-8"
     inkscape:window-maximized="1" />
  <metadata
     id="metadata7">
    <rdf:RDF>
      <cc:Work
         rdf:about="">
        <dc:format>image/svg+xml</dc:format>
        <dc:type
           rdf:resource="http://purl.org/dc/dcmitype/StillImage" />
        <dc:title></dc:title>
      </cc:Work>
    </rdf:RDF>
  </metadata>
  <g
     inkscape:label="Layer 1"
     inkscape:groupmode="layer"
     id="layer1"
     transform="translate(0,-540.36216)">
    <path
       style="fill:#000000"
       d="m 398.59111,991.79878 -50.70654,-60.47442 -8.69229,7.33626 c -4.78075,4.03494 -9.20225,7.63755 -9.82555,8.00578 -0.67307,0.39764 -5.26004,-4.19811 -11.29574,-11.31735 -5.58936,-6.59278 -10.31031,-11.98687 -10.491,-11.98687 -0.1807,0 -2.29761,0.70018 -4.70426,1.55596 C 264.87695,938.4301 214.71712,932.51256 178.2552,910.2162 150.57303,893.28863 127.44449,866.01484 116.04326,836.85423 96.207168,786.12002 103.61492,731.16681 136.06015,688.36218 174.97386,637.02376 241.70429,616.17186 304,635.8844 c 36.63453,11.59245 70.65624,40.88371 88.43767,76.14113 21.25451,42.14392 21.81643,92.66304 1.48663,133.65612 l -3.87793,7.81948 10.47724,12.50591 10.47724,12.50592 -7.25042,6.03988 c -3.98774,3.32193 -7.34901,6.5505 -7.4695,7.17461 -0.12048,0.6241 22.26702,27.89019 49.75,60.59131 C 473.51392,985.01988 496,1012.1019 496,1012.5011 c 0,0.5683 -34.34231,29.9017 -44.56663,38.0666 -2.11066,1.6855 -2.73035,0.9963 -52.84226,-58.76892 z M 280.29659,862.9328 c 30.75992,-9.05274 53.45301,-32.19504 61.84637,-63.07062 3.04513,-11.20174 3.02011,-31.48849 -0.053,-43 -11.14968,-41.76492 -52.28295,-69.65141 -95.06482,-64.44964 -37.20125,4.52323 -67.43172,31.30837 -76.12558,67.44964 -3.01696,12.54179 -3.02168,29.01993 -0.0114,39.89503 9.56276,34.54732 36.54509,59.2189 71.77165,65.62519 9.02141,1.64063 27.91774,0.41076 37.63684,-2.4496 z M 243,814.36218 l 0,-13 14,0 14,0 0,13 0,13 -14,0 -14,0 0,-13 z m 2,-26.30366 c 0,-8.16533 3.66305,-14.6615 10.26406,-18.2026 C 264.63727,764.82769 266,763.55959 266,759.86551 c 0,-4.44637 -2.23664,-6.50333 -7.07143,-6.50333 -4.76581,0 -7.54502,2.43857 -8.48408,7.44422 l -0.66707,3.55578 -13.52463,0 -13.52464,0 0.63784,-4.75 c 0.35082,-2.6125 2.00729,-7.54648 3.68106,-10.9644 4.8772,-9.95947 13.27215,-15.60616 26.01315,-17.4972 22.75284,-3.37701 41.31208,9.05306 41.37598,27.7116 0.0356,10.38536 -3.26002,14.70389 -17.43618,22.84829 -4.59804,2.64164 -5.72055,3.85614 -6.84489,7.40577 l -1.3449,4.24594 -11.9051,0 -11.90511,0 0,-5.30366 z M 44.695281,1025.9147 15,1004.9515 15,790.12548 c 0,-170.96447 0.255216,-214.91401 1.25,-215.2568 0.6875,-0.2369 71.9,-7.87894 158.25,-16.9823 86.35,-9.10337 158.82957,-16.80907 161.06571,-17.12379 l 4.06572,-0.57223 5.24413,7.58591 c 2.88428,4.17225 5.1047,7.63367 4.93429,7.69204 -0.17042,0.0584 -68.9116,7.61418 -152.75819,16.79068 l -152.448341,16.68454 3.201658,2.27978 3.201657,2.27978 144.246686,-16.07978 c 79.33567,-8.84389 145.03418,-16.07559 145.99668,-16.07046 0.9625,0.005 1.75,0.68433 1.75,1.50933 0,0.825 -0.3375,1.48771 -0.75,1.4727 -3.12963,-0.11394 -284.929022,31.50624 -285.551347,32.04117 -0.44074,0.37885 0.314649,1.42005 1.678642,2.31377 2.334674,1.52974 10.906285,0.69302 146.286535,-14.27982 136.59654,-15.10736 147.7503,-16.12862 144.88795,-13.26627 -0.39565,0.39565 -277.952863,31.18545 -281.30178,31.20519 -2.951268,0.0174 -2.861103,1.34825 0.202423,2.9878 2.113676,1.1312 21.693255,-0.78357 141.749997,-13.86236 76.61367,-8.34617 140.34649,-15.40346 141.62848,-15.68287 1.821,-0.39689 2.2572,-0.12528 1.99396,1.24159 -0.3018,1.56711 -14.81617,3.33308 -139.13704,16.92883 -76.34005,8.34856 -139.057979,15.4371 -139.37318,15.7523 -0.315201,0.3152 0.601143,1.10811 2.03632,1.76202 2.156475,0.98255 26.17605,-1.36004 138.37923,-13.49594 74.67339,-8.07667 137.68231,-14.94593 140.01981,-15.26503 3.48374,-0.47557 4.25,-0.28925 4.25,1.03338 0,0.88744 -0.1125,1.61443 -0.25,1.61551 -2.60751,0.0206 -275.085061,29.99976 -275.384319,30.29902 -0.235454,0.23545 0.738646,1.19257 2.164665,2.12694 2.481075,1.62566 8.782361,1.07137 146.281204,-12.86762 C 311.8402,596.91094 377.5125,590.35742 378.75,590.35911 l 2.25,0.003 0,42.19962 0,42.19961 -4.93242,-5.53404 C 370.38222,662.84854 357.42449,651.77172 348,645.23403 305.07916,615.46016 247.58327,609.0158 197.72755,628.39089 c -20.98801,8.15643 -38.48911,19.74264 -55.82289,36.9563 C 110.53143,696.50301 94,736.23638 94,780.48627 c 0,92.25002 77.56702,166.64746 169.5,162.5738 12.91071,-0.57209 25.08372,-2.41966 35.36105,-5.36695 4.50047,-1.29063 5.55866,-1.32019 6.59212,-0.18418 0.6771,0.74428 5.83072,6.87203 11.45249,13.61722 l 10.2214,12.26398 8.68647,-7.33133 c 4.77756,-4.03223 9.20144,-7.63571 9.83086,-8.00773 0.69607,-0.41141 7.85674,7.32496 18.27867,19.74823 l 17.13428,20.42461 -0.27867,13.81238 -0.27867,13.8123 -149.5,15.1686 c -82.225,8.3428 -151.099623,15.3244 -153.054719,15.5146 -3.234105,0.3148 -6.233048,-1.5448 -33.25,-20.6171 z"
       id="path3347"
       inkscape:connector-curvature="0" />
  </g>
</svg>
