<svg xmlns:inkscape="http://www.inkscape.org/namespaces/inkscape" xmlns:rdf="http://www.w3.org/1999/02/22-rdf-syntax-ns#" xmlns="http://www.w3.org/2000/svg" sodipodi:docname="box-code2.svg" height="512" width="512" version="1.1" xmlns:cc="http://creativecommons.org/ns#" xmlns:dc="http://purl.org/dc/elements/1.1/" inkscape:version="0.91 r13725" viewBox="0 0 512.00001 512.00001" xmlns:sodipodi="http://sodipodi.sourceforge.net/DTD/sodipodi-0.dtd">
	<sodipodi:namedview bordercolor="#666666" inkscape:pageshadow="2" inkscape:window-y="-8" pagecolor="#ffffff" inkscape:window-height="1017" inkscape:window-maximized="1" inkscape:zoom="0.35" inkscape:window-x="-8" showgrid="false" borderopacity="1.0" inkscape:current-layer="layer1" inkscape:cx="-126.42857" inkscape:cy="748.57143" units="px" inkscape:window-width="1920" inkscape:pageopacity="0.0" inkscape:document-units="px"/>
	<g inkscape:label="Layer 1" inkscape:groupmode="layer" transform="translate(0 -540.36)">
		<path inkscape:connector-curvature="0" d="m475.79 1017.5c-4.5728-0.9933-9.3023-3.1202-12.737-5.7283-1.8986-1.4415-15.83-15.016-30.958-30.165l-27.506-27.544-4.2729 1.9611c-5.2094 2.3908-14.097 5.2583-20.187 6.513-35.822 7.3804-72.817-5.189-96.49-32.784l-4.4758-5.2172h-131.16-131.16l-3.4702-1.2967c-4.7963-1.7921-10.276-7.2746-12.07-12.076l-1.2999-3.51 0.15322-158.41 0.15322-158.41 1.6076-3.4299c2.8528-6.0866 8.712-10.576 15.477-11.859 4.7123-0.89368 376.04-0.82226 380.27 0.0731 8.1744 1.7326 14.249 7.5277 16.414 15.657 0.70321 2.6415 0.84142 18.273 0.84736 95.834l0.007 92.678 4.401 3.0728c10.358 7.2318 21.24 19.487 28.346 31.924 5.9384 10.392 10.693 24.808 12.162 36.875 2.2892 18.803-1.2568 40.322-9.2409 56.078-0.82007 1.6183-1.491 3.0579-1.491 3.1991s12.304 12.494 27.343 27.452c15.039 14.957 28.509 28.819 29.935 30.805 3.8631 5.3817 5.1808 9.1816 5.5332 15.956 0.36233 6.9639-0.39934 10.672-3.3662 16.389-5.0278 9.6878-14.427 15.648-25.567 16.214-2.6382 0.1341-5.8761 0.01-7.1952-0.2773zm9.8825-21.007c4.854-2.4763 7.2441-8.531 5.4787-13.879-0.47326-1.4337-8.2534-9.6022-26.944-28.289l-26.279-26.273-5.9527 5.9324c-3.274 3.2629-7.032 6.7723-8.3511 7.7987l-2.3984 1.8661 26.309 25.97c14.47 14.283 27.152 26.43 28.181 26.994 2.5668 1.4043 7.0751 1.3503 9.9557-0.1193zm-119.31-51.59c21.765-1.9221 40.425-11.265 54.665-27.37 20.629-23.332 25.904-57.524 13.302-86.221-7.4413-16.945-21.604-31.72-38.49-40.155-16.75-8.3667-37.825-10.498-56.458-5.7089-26.244 6.7446-48.528 27.675-56.557 53.122-3.0387 9.6303-3.7026 14.186-3.7026 25.408 0 11.308 0.73196 16.333 3.7115 25.483 8.7783 26.956 32.612 48.348 60.119 53.958 3.9741 0.8106 8.8665 1.4426 15.616 2.0173 0.49467 0.042 4.0023-0.1975 7.7948-0.5324zm-50.666-35.519c-1.5803-0.8841-2.8586-2.2534-3.7475-4.0146l-1.3491-2.6729v-38.566c0-42.452-0.13113-40.906 3.7596-44.322 3.0563-2.6835 6.2678-3.1073 9.8972-1.3063 3.498 1.7359 5.3373 4.4128 5.8269 8.4802 0.20641 1.7147 0.29158 19.712 0.18927 39.993l-0.18602 36.875-1.3717 2.206c-1.5844 2.548-5.5107 4.6941-8.5611 4.6795-1.1326-0.01-3.1385-0.6136-4.4576-1.3515zm43.171 0.5482c-2.2211-1.0282-4.2124-3.1436-5.0566-5.3717-0.42911-1.1325-0.63954-14.507-0.63954-40.647 0-37.57 0.0421-39.041 1.1806-41.273 1.3766-2.6983 4.5155-4.8357 7.6804-5.2298 2.7217-0.33893 6.9649 1.6821 8.7921 4.1877 1.213 1.6633 1.2371 2.3886 1.3964 42.015l0.16212 40.322-1.3613 2.0004c-0.74872 1.1002-2.0832 2.535-2.9655 3.1885-2.0267 1.501-6.7863 1.9191-9.1885 0.8071zm42.505-0.046c-2.6962-1.1736-4.839-3.7433-5.5821-6.694-0.80622-3.2018-0.87343-74.395-0.0735-77.844 0.74998-3.2334 2.3191-5.1962 5.457-6.8258 4.6655-2.423 10.169-0.48673 12.565 4.4204 1.1498 2.3549 1.1903 3.7525 1.1903 41.095v38.658l-1.3491 2.6729c-2.3034 4.5635-7.5996 6.5232-12.208 4.5173zm-133.65-5.587c-6.2703-15.238-8.3858-26.832-7.9516-43.58 0.3074-11.858 1.7252-19.864 5.3614-30.273 2.4034-6.8802 8.4138-18.324 13.031-24.812 6.9266-9.7319 17.846-20.105 27.801-26.41 10.327-6.5406 24.68-12.088 36.902-14.263 8.298-1.4765 23.494-1.7618 30.988-0.58178 5.3225 0.83809 14.809 3.1201 18.739 4.5079l2.5503 0.90044-0.15188-87.366-0.15188-87.366-61.909-0.1527-61.908-0.1527v70.566c0 70.146-0.007 70.581-1.2417 73.131-0.72892 1.5058-2.1528 3.1316-3.4477 3.9368l-2.206 1.3717h-56.662c-61.6 0-58.32 0.17088-61.367-3.1967-2.7907-3.0836-2.7354-1.5632-2.7634-76.1l-0.0263-70.303h-60.899c-40.832 0-61.281 0.20452-62.058 0.62069-1.142 0.6112-1.1598 2.983-1.1598 154.97 0 146.36 0.0543 154.38 1.0493 154.96 0.70326 0.4096 41.755 0.6172 124.48 0.6294 117.32 0.017 123.41-0.034 123-1.0311zm-15.886-244.79v-64.757h-44.37-44.37v64.757 64.757h44.37 44.37v-64.757z"/>
	</g>
</svg>
