<?xml version="1.0" encoding="UTF-8" standalone="no"?>
<svg xmlns:rdf="http://www.w3.org/1999/02/22-rdf-syntax-ns#" xmlns="http://www.w3.org/2000/svg" height="512" width="512" version="1.1" xmlns:cc="http://creativecommons.org/ns#" xmlns:dc="http://purl.org/dc/elements/1.1/" viewBox="0 0 512.00001 512.00001">
	<g transform="translate(0 -540.36)">
		<path d="m245.8 1051.9c-17.326-3.5029-178.04-37.435-180.85-38.183-2.1452-0.5715-4.3306-1.9894-5.003-3.2456-1.2573-2.3493-4.2241-94.447-3.7026-114.94 0.25471-10.007 0.41429-10.709 2.8209-12.409 2.1452-1.5154 14.074-2.7908 74.998-8.0188 81.554-6.9982 80.236-6.8616 82.508-8.5475 0.91447-0.6785 9.919-21.208 20.01-45.62l18.347-44.387 0.0252 120.15c0.0237 112.93 0.13068 120.15 1.7797 120.15 1.4764 0 153.4-28.564 160.23-30.125l2.2958-0.52497v-61.184-61.184l-2.2959-0.46877c-1.2627-0.25782-11.709-0.99775-23.214-1.6443-11.505-0.64654-33.105-1.9934-48.001-2.9929-29.918-2.0077-33.011-2.7767-38.067-9.464-1.3827-1.8291-13.639-28.121-27.237-58.426-13.597-30.305-25.04-55.457-25.429-55.893-0.38821-0.4357-10.952 22.293-23.476 50.509-29.774 67.08-28.097 63.62-31.429 64.869-2.3209 0.87014-175.59 18.662-181.1 18.596-2.577-0.031-5.8672-3.6994-5.8672-6.5415 0-2.6734 47.184-104.3 49.536-106.69 0.9494-0.96578 34.566-7.5532 96.743-18.958l95.288-17.478 97.093 17.488c63.238 11.39 97.601 18.001 98.549 18.958 2.0968 2.1163 48.493 104.09 48.493 106.58 0 1.147-0.7148 3.106-1.5884 4.3533-1.8876 2.695-5.8188 2.8183-28.768 0.90222l-14.54-1.214v72.239c0 56.859-0.27154 72.339-1.2755 72.71-0.70152 0.2591-43.06 9.4742-94.131 20.478-91.931 19.808-103.9 21.947-112.75 20.156zm78.01-362.77c-2.5931-1.2598-0.73992 1.7415-26.662-43.181-22.074-38.253-23.541-41.52-20.448-45.548 2.5046-3.2622 5.7085-3.9931 17.502-3.9931h11.802v-25.046-25.046l2.5046-2.5046c2.4552-2.4552 2.8339-2.5046 19.209-2.5046 23.233 0 21.56-2.3001 21.958 30.182l0.30579 24.919h12.272 12.272l3.1085 3.1085c2.5484 2.5484 3.0108 3.6975 2.5661 6.3774-0.68145 4.1074-43.784 78.98-47.259 82.094-2.7173 2.4344-5.7026 2.8078-9.1312 1.1421zm-163.26-2.3712-2.5046-2.5046v-25.046-25.046h-11.802c-11.794 0-14.998-0.73096-17.502-3.9931-3.0926-4.028-1.6261-7.2946 20.448-45.548 26.142-45.302 24.022-41.903 26.96-43.241 3.6284-1.6532 6.0067-1.3294 8.8333 1.2029 3.4755 3.1137 46.578 77.986 47.259 82.094 0.44462 2.6799-0.0178 3.8291-2.5661 6.3774l-3.1085 3.1085h-12.272-12.272l-0.30579 24.919c-0.3986 32.482 1.2748 30.182-21.958 30.182-16.376 0-16.754-0.0494-19.209-2.5046z"/>
	</g>
</svg>
