<svg xmlns:inkscape="http://www.inkscape.org/namespaces/inkscape" xmlns:rdf="http://www.w3.org/1999/02/22-rdf-syntax-ns#" xmlns="http://www.w3.org/2000/svg" sodipodi:docname="box2.svg" height="512" width="512" version="1.1" xmlns:cc="http://creativecommons.org/ns#" xmlns:dc="http://purl.org/dc/elements/1.1/" inkscape:version="0.91 r13725" viewBox="0 0 512.00001 512.00001" xmlns:sodipodi="http://sodipodi.sourceforge.net/DTD/sodipodi-0.dtd">
	<sodipodi:namedview bordercolor="#666666" inkscape:pageshadow="2" inkscape:window-y="-8" pagecolor="#ffffff" inkscape:window-height="1017" inkscape:window-maximized="1" inkscape:zoom="0.35" inkscape:window-x="-8" showgrid="false" borderopacity="1.0" inkscape:current-layer="layer1" inkscape:cx="-126.42857" inkscape:cy="748.57143" units="px" inkscape:window-width="1920" inkscape:pageopacity="0.0" inkscape:document-units="px"/>
	<g inkscape:label="Layer 1" inkscape:groupmode="layer" transform="translate(0 -540.36)">
		<path inkscape:connector-curvature="0" d="m149.21 1000.3c-96.548-48.3-104.08-52.21-105.3-54.58-1.2271-2.3909-1.3128-8.1401-1.3139-88.159l-0.0011-85.601-19.56-9.7487c-10.753-5.36-20.226-10.46-21.047-11.33-3.7301-3.9543-4.0456-3.0668 19.616-55.174 12.077-26.595 22.502-48.986 23.166-49.757 1.7117-1.9867 209.15-105.59 211.42-105.59 2.8234 0 210.3 103.94 211.65 106.03 0.6054 0.93791 10.754 22.956 22.551 48.929 23.677 52.125 23.606 51.919 19.291 55.896-1.188 1.0948-10.642 6.2055-21.01 11.357l-18.85 9.3667-0.19995 86.359c-0.17423 75.249-0.34483 86.585-1.3261 88.116-0.78021 1.2175-33.126 17.766-105.29 53.869-83.978 42.012-104.71 52.104-106.99 52.074-2.1914-0.03-26.053-11.661-106.81-52.062zm98.17-146.9-0.19223-59.474-13.139 29.059c-7.2263 15.982-13.937 29.872-14.912 30.866-0.97538 0.99412-2.9851 2.0348-4.466 2.3126-2.4772 0.46473-8.775-2.5359-78.749-37.521l-76.056-38.026v78.081 78.081l93.661 46.832 93.661 46.832 0.19223-58.785c0.10573-32.332 0.10573-85.548 0-118.26zm112.99 129.43 92.159-46.103v-78.053-78.053l-75.843 37.912c-41.714 20.852-76.698 37.912-77.744 37.912-2.9216 0-6.1717-2.0202-7.5696-4.7051-0.69509-1.335-6.9424-14.928-13.883-30.207l-12.619-27.779-0.0195 118.11-0.0195 118.11 1.6893-0.5233c0.9291-0.2878 43.161-21.27 93.849-46.626zm-133.13-185.95c9.5274-20.99 17.323-38.391 17.323-38.668 0-0.92502-189.4-95.11-189.73-94.348-0.17728 0.41293-8.1893 17.981-17.805 39.041l-17.482 38.29 94.676 47.416c52.072 26.079 94.905 47.195 95.185 46.924 0.27979-0.27019 8.3038-17.665 17.831-38.656zm170.55-8.0434c79.302-39.652 94.586-47.542 94.178-48.614-1.6972-4.4579-34.467-76.07-34.945-76.365-0.77599-0.47958-188.72 93.205-189.07 94.244-0.22579 0.67737 34.438 78.031 34.98 78.059 0.10389 0.005 42.788-21.29 94.854-47.324zm-150.51-225.74c-0.16252-0.16252-40.115 19.615-88.783 43.949l-88.487 44.245 88.592 44.297 88.592 44.297 0.1908-88.247c0.10494-48.536 0.0578-88.38-0.1047-88.542zm193.99 88.382c0-0.2081-39.698-20.226-88.218-44.485l-88.218-44.107v88.592 88.592l88.218-44.107c48.52-24.259 88.218-44.277 88.218-44.485z"/>
	</g>
</svg>
