<svg xmlns:rdf="http://www.w3.org/1999/02/22-rdf-syntax-ns#" xmlns="http://www.w3.org/2000/svg" height="512" width="512" version="1.1" xmlns:cc="http://creativecommons.org/ns#" xmlns:dc="http://purl.org/dc/elements/1.1/" viewBox="0 0 512.00001 512.00001">
	<g transform="translate(0 -540.36)">
		<path d="m365.3 1051.4c-4.7717-1.1511-9.7908-4.791-12.563-9.1103-3.2956-5.1358-3.2943-5.1213-3.3007-36.68l-0.006-28.746-49.013-0.1488-49.013-0.1487-3.5106-1.667c-5.7218-2.717-9.8195-7.4199-11.724-13.455-0.5342-1.693-0.68343-17.494-0.68985-73.046l-0.008-70.886h-35.628-35.628l-0.15262 29.57-0.15262 29.57-1.5399 2.9704c-2.7519 5.3085-7.7062 9.4972-13.081 11.06-2.5518 0.7418-10.67 0.8221-70.284 0.6954l-67.399-0.1433-3.1368-1.5881c-1.7252-0.8736-4.3379-2.7705-5.8059-4.2156l-2.6731-2.63v-86.874-86.874l2.444-2.5147c1.4175-1.4586 3.9694-3.2373 6.076-4.2352l3.6319-1.7205h67.781 67.781l3.6584 1.7329c4.4995 2.1313 8.7084 6.2489 10.926 10.689l1.6183 3.2405 0.15262 29.57 0.15262 29.57h35.622 35.622l0.14081-72.506 0.1408-72.506 1.5542-3.1652c1.9472-3.9656 3.929-6.2383 7.5158-8.6189 5.6547-3.7531 3.3828-3.6083 56.631-3.6083h47.952l0.15276-29.3 0.15277-29.3 1.5702-3.198c1.912-3.894 4.4069-6.735 7.7748-8.8531 5.6782-3.5712 1.073-3.3729 74.668-3.2146l66.671 0.1434 3.1912 1.6148c1.7552 0.8882 4.3679 2.6728 5.8059 3.9657l2.6146 2.3508v87.444 87.444l-2.2738 2.2067c-2.6083 2.5312-4.8727 3.7909-9.031 5.0237-2.6259 0.7785-9.7637 0.8697-68.088 0.8697-72.374 0-68.079 0.2104-73.849-3.6187-3.3821-2.2447-5.585-4.9081-7.5778-9.1619l-1.4766-3.1519-0.14862-29.03-0.14862-29.03h-35.362-35.362v138.26 138.26h35.358 35.358l0.15276-29.3 0.15277-29.3 1.5296-3.1151c2.1282-4.334 6.0452-8.1764 10.474-10.274l3.6592-1.7333h67.511 67.511l3.5106 1.6729c1.9308 0.92 4.5434 2.6818 5.8059 3.915l2.2954 2.2421v87.494 87.494l-2.2137 2.2136c-1.2175 1.2176-3.8302 2.9796-5.8059 3.9157l-3.5922 1.7019-66.7 0.084c-36.685 0.046-67.458-0.099-68.384-0.3222zm108.89-95.633v-52.922h-41.586-41.587v52.838c0 29.061 0.10121 52.939 0.22492 53.063 0.1237 0.1238 18.838 0.1613 41.586 0.083l41.362-0.1417v-52.922zm-352.68-159.32v-52.928h-41.586-41.586v52.928 52.928h41.586 41.586v-52.928zm352.68-159.6v-53.202l-41.451 0.1384-41.451 0.1383-0.13767 53.063-0.13767 53.063h41.589 41.589v-53.202z"/>
	</g>
</svg>
