<?xml version="1.0" encoding="UTF-8" standalone="no"?>
<svg id="svg2" xmlns:rdf="http://www.w3.org/1999/02/22-rdf-syntax-ns#" xmlns="http://www.w3.org/2000/svg" height="512" width="512" version="1.1" xmlns:cc="http://creativecommons.org/ns#" xmlns:dc="http://purl.org/dc/elements/1.1/" viewBox="0 0 512.00001 512.00001">
	<g id="layer1" transform="translate(0,-540.36216)">
		<path id="path3347" d="m0 929.36218v-118h118 118v118 118.00002h-118-118v-118.00002zm171 0v-12h-53-53v12 12h53 53v-12zm105 0v-118h118 118v118 118.00002h-118-118v-118.00002zm135.12885 63.51687c4.40391-2.89427 8.33555-10.44898 8.33555-16.01687 0-2.2-1.05901-6.16719-2.35335-8.81598-7.60575-15.56471-30.54258-13.68028-35.78158 2.93971-1.47875 4.69114-1.54465 6.12266-0.46732 10.15069 3.77058 14.09775 18.17788 19.6873 30.2667 11.74245zm42.87115-62.51687v-15h-53-53v14.33333c0 7.88334 0.3 14.63334 0.66667 15 0.36666 0.36667 24.21666 0.66667 53 0.66667h52.33333v-15zm-44.52957-31.28168c6.82319-3.86453 11.32098-12.98281 9.96622-20.20432-0.35663-1.901-1.89973-5.42948-3.42912-7.84107-8.01708-12.64162-27.15907-11.13561-33.57359 2.64144-2.66528 5.72447-2.92902 8.36285-1.38993 13.90458 3.20425 11.53742 17.8784 17.47357 28.42642 11.49937zm-409.47043-231.71832v-118h118 118v118 118h-118-118v-118zm130 32.5v-20.5h20.5 20.5v-11.97929-11.9793l-20.25-0.2707-20.25-0.27071-0.27071-20.25-0.2707-20.25h-11.9793-11.97929v20.47929 20.4793l-20.25 0.2707-20.25 0.27071v11.5 11.5l20.25 0.27071 20.25 0.2707v19.81263c0 10.89694 0.3 20.11263 0.66667 20.47929 0.36666 0.36667 5.76666 0.66667 12 0.66667h11.33333v-20.5zm146-32.5v-118h118 118v118 118h-118-118v-118zm111 31.5c7.40972-7.425 13.92264-13.5 14.47316-13.5 0.55053 0 7.19232 6.17951 14.75954 13.73226l13.75859 13.73225 8.50915-8.46494 8.50914-8.46495-14.24185-14.26731-14.24186-14.26731 14.36255-14.38822 14.36254-14.38821-8.07914-8.11179c-4.44353-4.46148-8.44375-8.11178-8.88938-8.11178-0.44562 0-6.87272 6.075-14.28244 13.5s-13.93472 13.5-14.5 13.5-7.09028-6.075-14.5-13.5-13.93902-13.5-14.50957-13.5c-0.57054 0-4.6186 3.60238-8.99568 8.00528l-7.95833 8.00529 14.46885 14.49471 14.46886 14.49472-14.46886 14.49472-14.46885 14.49471 7.95833 8.00529c4.37708 4.4029 8.42514 8.00528 8.99568 8.00528 0.57055 0 7.09985-6.075 14.50957-13.5z"/>
	</g>
</svg>
