<svg xmlns:rdf="http://www.w3.org/1999/02/22-rdf-syntax-ns#" xmlns="http://www.w3.org/2000/svg" height="512" width="512" version="1.1" xmlns:cc="http://creativecommons.org/ns#" xmlns:dc="http://purl.org/dc/elements/1.1/" viewBox="0 0 512.00001 512.00001">
	<g transform="translate(0 -540.36)">
		<path d="m16.115 1051.8c-5.6186-1.3284-11.356-6.023-14.333-11.728l-1.781-3.4126v-217.37-217.37l1.781-3.4126c2.2897-4.3875 6.3432-8.3135 10.73-10.392l3.4726-1.6456 39.026-0.1466 39.026-0.1465 0.0165-11.308c0.0203-13.987 0.49833-17.973 2.6719-22.279 7.6971-15.248 28.541-16.3 37.655-1.9 2.9646 4.684 3.344 7.1772 3.344 21.975v13.538h117.74 117.74l0.006-13.186c0.005-9.4637 0.21258-13.961 0.73689-15.93 1.7404-6.5363 6.1467-11.75 12.457-14.739 3.2485-1.5389 4.0559-1.6969 8.6711-1.6969 4.8106 0 5.3111 0.1098 9.1487 2.0064 2.7944 1.3811 4.8332 2.8668 6.5418 4.7672 5.4051 6.0118 6.1258 9.05 6.1258 25.825v12.928l39.559 0.1464 39.559 0.1464 3.609 1.7094c4.4363 2.1014 8.5849 6.1608 10.776 10.544l1.598 3.1966v216.84 216.84l-1.7941 3.5749c-2.3037 4.5902-6.8172 8.9446-11.638 11.228l-3.6163 1.7129-238.42 0.081c-137.28 0.047-239.27-0.1194-240.42-0.3917zm453-232.51v-190.47h-26.106-26.106v10.849c0 5.967-0.23427 12.085-0.52063 13.595-1.26 6.6436-6.6904 13.638-13.079 16.846-2.9018 1.4572-3.6535 1.5983-8.5108 1.5983-4.6672 0-5.706-0.1773-8.3786-1.4299-6.1061-2.8618-10.233-7.5152-12.162-13.715-0.89991-2.8914-1.0367-4.9406-1.0367-15.537v-12.206h-117.71-117.71l-0.16593 13.749-0.16594 13.749-1.8321 3.6071c-2.221 4.3729-5.8798 7.8416-10.688 10.133-3.1919 1.521-3.9011 1.65-9.0572 1.6484-5.1402 0-5.8536-0.1309-8.7908-1.5934-4.0526-2.0178-8.7121-6.6094-10.546-10.392-1.9306-3.9821-2.484-8.5583-2.4964-20.645l-0.0105-10.256h-26.106-26.106v190.47 190.47h213.64 213.64v-190.47zm-293.86 121.18c-5.6384-0.755-11.243-4.3709-14.332-9.2463-3.452-5.4484-3.1953 0.4781-3.4866-80.496l-0.26638-74.056-8.5245-0.2664c-8.0848-0.2526-8.689-0.3471-11.714-1.8325-11.779-5.7833-15.6-20.913-7.8537-31.095 2.1007-2.7612 2.6069-3.2288 5.7158-5.2805 4.7314-3.1224 6.5638-3.3486 27.122-3.3486 19.794 0 21.552 0.1777 26.422 2.6704 3.0641 1.5684 6.9728 5.852 8.7447 9.5835l1.6444 3.4631 0.13798 86.23c0.12049 75.304 0.0369 86.571-0.65976 88.917-2.9592 9.9645-12.574 16.148-22.95 14.758zm125.77-0.032c-6.3988-0.4825-10.742-1.3155-16.551-3.1748-12.312-3.94-26.576-13.636-30.89-20.999-6.1928-10.567-1.9748-23.902 9.2414-29.216 3.2699-1.549 4.0179-1.6912 8.8978-1.6912 4.6659 0 5.6918 0.175 8.2581 1.4084 1.6116 0.7745 4.6085 2.7816 6.6597 4.4601 4.4579 3.6479 8.9019 5.86 13.899 6.9186 4.6343 0.9818 6.9876 0.9813 11.674-0.01 13.193-2.7699 22.617-13.461 23.553-26.719 0.58169-8.2427-2.117-16.046-7.5957-21.964-5.5107-5.9522-12.012-9.007-20.22-9.5011-5.6943-0.3428-9.5038 0.4829-15.947 3.4567-4.0549 1.8715-4.6014 1.9842-9.6268 1.9842-4.8465 0-5.6407-0.1483-8.7924-1.6419-4.4002-2.0854-7.9915-5.6724-10.229-10.218l-1.7565-3.5675-0.15012-38.31c-0.16136-41.178-0.182-40.808 2.5749-46.212 1.5677-3.0729 5.7772-6.9005 9.5612-8.6938l3.4646-1.642 46.321-0.1418c51.524-0.1579 48.733-0.3351 54.499 3.4604 3.3303 2.1922 5.505 4.8171 7.4753 9.0228 1.2666 2.7035 1.4566 3.7696 1.4566 8.1706 0 4.549-0.16623 5.4122-1.6419 8.526-1.8323 3.8663-5.6343 8.0004-8.881 9.6567-5.0706 2.5868-5.0234 2.5838-39.958 2.5899l-32.899 0.01v10.542 10.542l7.5921 0.6168c13.19 1.0716 24.391 4.852 34.745 11.727 5.9539 3.9531 13.986 11.615 18.273 17.432 5.9888 8.1256 10.917 19.906 12.679 30.309 1.1038 6.516 0.81174 20.326-0.55947 26.452-7.9018 35.306-39.581 59.094-75.128 56.413z"/>
	</g>
</svg>
