<svg xmlns:inkscape="http://www.inkscape.org/namespaces/inkscape" xmlns:rdf="http://www.w3.org/1999/02/22-rdf-syntax-ns#" xmlns="http://www.w3.org/2000/svg" sodipodi:docname="cards.svg" height="512" width="512" version="1.1" xmlns:cc="http://creativecommons.org/ns#" xmlns:dc="http://purl.org/dc/elements/1.1/" inkscape:version="0.91 r13725" viewBox="0 0 512.00001 512.00001" xmlns:sodipodi="http://sodipodi.sourceforge.net/DTD/sodipodi-0.dtd">
	<sodipodi:namedview bordercolor="#666666" inkscape:pageshadow="2" inkscape:window-y="-8" pagecolor="#ffffff" inkscape:window-height="1017" inkscape:window-maximized="1" inkscape:zoom="0.35" inkscape:window-x="-8" showgrid="false" borderopacity="1.0" inkscape:current-layer="layer1" inkscape:cx="-126.42857" inkscape:cy="520" units="px" inkscape:window-width="1920" inkscape:pageopacity="0.0" inkscape:document-units="px"/>
	<g inkscape:label="Layer 1" inkscape:groupmode="layer" transform="translate(0 -540.36)">
		<path inkscape:connector-curvature="0" d="m402.02 989.21c-5.8698-1.0177-10.99-5.0644-13.781-10.891l-1.6944-3.5379-0.16944-26.664c-0.1831-28.814 0.0256-31.841 2.5073-36.401 1.8171-3.3386 6.1288-7.1494 9.5254-8.4187l2.6102-0.9755 0.15387-18.744c0.14429-17.582 0.22931-18.996 1.3714-22.812 3.356-11.211 10.7-20.215 20.716-25.398 7.4091-3.8343 10.164-4.2806 26.423-4.2806 13.318 0 14.392 0.075 18.234 1.2753 13.289 4.1516 23.334 13.811 27.666 26.604 1.4274 4.2157 1.4342 4.3162 1.6104 23.847l0.17689 19.614 2.8235 1.0028c4.3113 1.5312 9.0433 6.606 10.61 11.379 1.1743 3.5771 1.2012 4.2717 1.1949 30.727-0.007 30.156-0.0696 30.785-3.5627 35.856-1.9797 2.8744-5.8703 5.872-9.4939 7.3149-1.5699 0.625-10.043 0.7738-48.17 0.8459-25.446 0.048-47.384-0.1066-48.752-0.3437zm50.698-22.28 1.591-1.5911v-8.1881-8.1881l1.9397-1.9397c3.5965-3.5965 4.4253-7.8226 2.368-12.073-1.9972-4.1256-6.9927-6.5445-11.448-5.5434-8.0991 1.8197-10.916 11.924-4.9011 17.58l1.6999 1.5986 0.019 7.9265c0.0207 8.4764 0.37686 9.9271 2.7621 11.249 2.1686 1.2019 4.2218 0.916 5.9692-0.8314zm23.791-81.686c0.10793-11.487-0.0419-17.355-0.48676-19.05-1.6652-6.3449-6.7981-11.652-13.372-13.825-2.3796-0.7866-4.62-0.9055-14.424-0.7649-11.231 0.161-11.706 0.2128-14.666 1.6007-3.7254 1.7468-7.1487 4.7547-8.9929 7.9016-2.5985 4.434-2.9034 6.884-2.9023 23.322 0.00054 8.3821 0.14925 15.794 0.33049 16.47l0.32952 1.2297 27.014-0.1411 27.014-0.1411 0.15605-16.601zm-303.77 64.197c-14.427-1.6797-26.939-10.559-33.322-23.647-4.6807-9.5969-4.3311-1.8859-4.3311-95.524v-83.005l1.5246-4.8986c2.3139-7.4347 5.2789-12.242 11.266-18.265 4.4448-4.4713 5.8968-5.5563 10.342-7.7269 10.115-4.94-4.6037-4.4472 138.25-4.6285 114.07-0.1448 126.97-0.075 130.87 0.7073 18.415 3.6991 31.912 18.582 34.037 37.533 0.51599 4.6006 0.82068 60.244 0.33261 60.734-0.1242 0.1247-5.3902 0.1561-11.702 0.07l-11.477-0.1571v-5.4219-5.4219h-138.52-138.52v54.875c0 62.027-0.22616 58.575 4.143 63.246 1.3419 1.4346 3.6974 3.1697 5.2658 3.8789l2.8378 1.2832 96.486 0.1435 96.486 0.1434-0.14577 13.192-0.1457 13.192-94.979 0.065c-52.239 0.036-96.65-0.1292-98.692-0.367zm265.78-194.69c-0.009-3.6029-0.28135-5.3591-1.1184-7.2119-1.3463-2.9805-4.3766-6.2164-7.3062-7.8023l-2.1772-1.1786h-127.64-127.64l-2.6358 1.3464c-2.972 1.518-5.2321 3.8604-6.9867 7.2414-0.89597 1.7264-1.2515 3.5506-1.429 7.3328l-0.23631 5.0347h138.59 138.59l-0.012-4.7625zm-333.37 177.29c-10.992-1.3308-22.054-7.6079-28.586-16.221-1.5428-2.0343-5.2312-8.6553-8.3897-15.06-3.1001-6.2866-18.666-37.76-34.591-69.942-15.925-32.181-29.696-60.339-30.602-62.573-7.3764-18.185-0.63512-40.095 15.666-50.915 2.3674-1.5714 164.71-82.15 214.47-106.46 13.358-6.524 17.551-7.7641 26.064-7.7079 9.7857 0.0646 18.204 2.9229 25.998 8.8276 7.4076 5.6115 8.2369 6.9777 26.045 42.903 8.9462 18.048 16.266 32.928 16.266 33.066 0 0.13816-33.933 0.25119-75.406 0.25119-49.581 0-77.216 0.19819-80.692 0.57868-16.011 1.753-29.202 8.2594-40.443 19.947-9.6427 10.027-15.75 22.41-17.66 35.808-1.1602 8.138-1.163 155.37-0.003 163.06 0.91991 6.1024 3.3362 13.902 5.9693 19.27 1.2783 2.6057 1.6724 3.9224 1.2518 4.1823-1.5331 0.9475-10.766 1.5364-15.362 0.9799zm92.863-26.426c-16.718-4.496-25.149-23.129-17.496-38.667 3.6478-7.4057 10.311-12.789 18.104-14.626 8.8887-2.0956 17.087-0.099 24.549 5.9801l3.1078 2.5317 2.769-2.4896c6.4907-5.8357 16.23-8.208 24.671-6.0094 13.855 3.6088 22.939 17.471 20.477 31.247-3.7749 21.123-29.344 30.26-45.083 16.11l-2.8072-2.5239-3.0457 2.4807c-7.4581 6.0747-16.713 8.2618-25.248 5.9665z"/>
	</g>
</svg>
