<svg xmlns:inkscape="http://www.inkscape.org/namespaces/inkscape" xmlns:rdf="http://www.w3.org/1999/02/22-rdf-syntax-ns#" xmlns="http://www.w3.org/2000/svg" sodipodi:docname="card-lock2.svg" height="512" width="512" version="1.1" xmlns:cc="http://creativecommons.org/ns#" xmlns:dc="http://purl.org/dc/elements/1.1/" inkscape:version="0.91 r13725" viewBox="0 0 512.00001 512.00001" xmlns:sodipodi="http://sodipodi.sourceforge.net/DTD/sodipodi-0.dtd">
	<sodipodi:namedview bordercolor="#666666" inkscape:pageshadow="2" inkscape:window-y="-8" pagecolor="#ffffff" inkscape:window-height="1017" inkscape:window-maximized="1" inkscape:zoom="0.35" inkscape:window-x="-8" showgrid="false" borderopacity="1.0" inkscape:current-layer="layer1" inkscape:cx="-126.42857" inkscape:cy="748.57143" units="px" inkscape:window-width="1920" inkscape:pageopacity="0.0" inkscape:document-units="px"/>
	<g inkscape:label="Layer 1" inkscape:groupmode="layer" transform="translate(0 -540.36)">
		<path inkscape:connector-curvature="0" d="m296.4 1019.7c-4.2979-0.8144-13.262-5.3669-16.897-8.5811-5.442-4.8125-10.001-12.947-11.536-20.583-0.40303-2.0054-0.63834-14.765-0.63834-34.615v-31.439l-102.35-0.004c-86.957-0.003-103.23-0.13595-108.19-0.88414-18.661-2.8129-35.466-13.546-45.555-29.095-4.1911-6.4595-5.5896-9.2476-7.7144-15.38-3.696-10.667-3.5256-4.336-3.5206-130.79 0.003-76.426 0.21366-116.77 0.62317-119.35 3.8472-24.31 21.602-45.16 45.088-53 10.803-3.609-3.0084-3.3866 210.22-3.3866 172.21 0 195.72 0.10733 200.33 0.91454 27.764 4.8566 49.473 26.197 54.704 53.777 1.3532 7.1334 1.3697 233.8 0.0174 241.55-2.3611 13.54-8.904 25.963-18.865 35.82-9.8058 9.7032-21.244 15.79-34.342 18.274-2.6275 0.49846-4.8824 0.90629-5.0108 0.90629-0.12839 0-0.23347 14.387-0.23347 31.972 0 29.859-0.0781 32.277-1.182 36.593-3.2084 12.545-11.361 21.328-24.427 26.316l-3.4617 1.3216-62.038 0.091c-36.97 0.054-63.249-0.1386-65.035-0.477zm123.18-19.744c6.2223-1.4306 11.486-6.7403 12.982-13.096 0.616-2.6164 0.7876-14.63 0.79498-55.634l0.01-52.297h-73.444-73.444l0.16812 54.096c0.15351 49.395 0.25659 54.291 1.1864 56.343 2.3605 5.2102 6.6811 9.0356 11.744 10.398 3.6566 0.98426 115.78 1.1627 120 0.191zm-64.744-16.646c-1.1487-0.6113-2.691-2.1622-3.4273-3.4465-1.2633-2.2035-1.3393-3.019-1.3486-14.456l-0.01-12.121-3.7462-1.8584c-10.963-5.4383-17.067-14.318-18.112-26.347-1.2081-13.907 8.343-27.675 22.133-31.905 20.009-6.1382 40.377 8.5019 40.636 29.208 0.0753 6.0114-0.91609 10.268-3.5934 15.429-2.6814 5.1688-8.5957 10.829-14.103 13.498l-4.0333 1.9542v12.05c0 11.163-0.0934 12.216-1.2694 14.309-2.4637 4.3836-8.5844 6.1026-13.125 3.6863zm9.4609-48.967c2.9619-1.2376 4.8594-3.0637 6.1987-5.9654 2.8618-6.2007 0.0429-13.547-6.1987-16.155-4.2036-1.7564-9.638-0.81449-12.969 2.2477-4.5516 4.1843-4.793 12.455-0.4999 17.125 3.092 3.3633 9.0744 4.5838 13.469 2.7476zm-97.57-49.47c0.41516-26.986-0.83426-25.332 19.48-25.774l13.786-0.29969 0.33813-23.676c0.31037-21.733 0.4399-23.996 1.5781-27.572 3.7199-11.688 6.7143-16.776 14.769-25.094 17.589-18.165 46.958-22.967 70.036-11.451 12.27 6.1228 21.989 16.08 27.439 28.112 4.2918 9.4752 4.4155 10.413 4.7858 36.305l0.33435 23.376 13.786 0.29969c15.6 0.33913 16.038 0.45998 18.252 5.0341 1.1562 2.3884 1.2282 3.6153 1.2282 20.929 0 20.833-0.52651 19.076 5.2557 17.537 13.777-3.6674 26.198-15.11 31.279-28.815 3.0531-8.2354 3.0258-7.5078 3.0258-80.672v-68.279h-236.78-236.78l0.18769 70.279c0.21023 78.717-0.15269 72.311 4.6648 82.347 7.4371 15.494 21.404 24.958 39.536 26.791 1.1538 0.11661 47.412 0.18736 102.8 0.15722l100.7-0.0548 0.2997-19.48zm-201.11-18.53c-4.3533-1.057-7.4893-5.0303-7.4701-9.4645 0.013-2.986 2.1692-6.6952 4.7856-8.2322 2.0885-1.2269 2.4462-1.2322 83.016-1.2322 80.133 0 80.939 0.0118 83.016 1.2125 2.375 1.3727 4.7952 5.5696 4.7952 8.3156 0 2.8074-2.2354 6.7563-4.6879 8.2813l-2.2052 1.3712-79.72 0.0939c-43.846 0.0517-80.535-0.10395-81.531-0.34576zm334.63-27.47c0.17928-22.625-0.16669-25.609-3.8382-33.117-3.0801-6.2982-10.714-13.928-16.999-16.991-16.555-8.0668-35.79-5.2751-48.121 6.984-4.4122 4.3865-7.1321 8.7164-9.5708 15.237-1.2248 3.2747-1.3065 4.6681-1.5108 25.794l-0.21599 22.332 40.049-0.15411 40.049-0.15411 0.15794-19.93zm91.85-150v-16.783h-236.46-236.46v16.783 16.783h236.46 236.46v-16.783zm-0.15518-46.903c-0.23359-8.9138-0.53047-11.768-1.6033-15.418-5.4402-18.507-20.827-31.72-39.814-34.19-3.3714-0.43851-64.649-0.58175-198.19-0.46327l-193.31 0.17152-5.3946 1.6882c-13.147 4.1144-22.994 12.175-29.02 23.758-4.0244 7.7355-4.9374 11.958-5.2866 24.454l-0.30569 10.939h236.6 236.6l-0.28663-10.939z"/>
	</g>
</svg>
