<svg xmlns:inkscape="http://www.inkscape.org/namespaces/inkscape" xmlns:rdf="http://www.w3.org/1999/02/22-rdf-syntax-ns#" xmlns="http://www.w3.org/2000/svg" sodipodi:docname="card-ok.svg" height="512" width="512" version="1.1" xmlns:cc="http://creativecommons.org/ns#" xmlns:dc="http://purl.org/dc/elements/1.1/" inkscape:version="0.91 r13725" viewBox="0 0 512.00001 512.00001" xmlns:sodipodi="http://sodipodi.sourceforge.net/DTD/sodipodi-0.dtd">
	<sodipodi:namedview bordercolor="#666666" inkscape:pageshadow="2" inkscape:window-y="-8" pagecolor="#ffffff" inkscape:window-height="1017" inkscape:window-maximized="1" inkscape:zoom="0.35" inkscape:window-x="-8" showgrid="false" borderopacity="1.0" inkscape:current-layer="layer1" inkscape:cx="-126.42857" inkscape:cy="520" units="px" inkscape:window-width="1920" inkscape:pageopacity="0.0" inkscape:document-units="px"/>
	<g inkscape:label="Layer 1" inkscape:groupmode="layer" transform="translate(0 -540.36)">
		<path inkscape:connector-curvature="0" d="m25.301 1019.7c-8.3651-1.5723-17.782-8.8686-21.687-16.804-3.7811-7.683-3.5942-2.8539-3.6047-93.154l-0.009-81.481h128.62 128.62l3.4468 5.0331c12.773 18.651 32.801 38.949 54.854 55.593 14.229 10.74 35.954 24.773 46.752 30.199 14.435 7.2548 30.615 6.9341 45.242-0.8969 11.176-5.9835 29.747-17.99 42.713-27.616 12.67-9.4059 20.917-16.499 31.598-27.179 10.82-10.82 16.738-17.702 24.241-28.196 2.7282-3.8156 5.1759-6.9375 5.4393-6.9375 0.27396 0 0.47506 34.891 0.46962 81.481-0.008 69.564-0.1264 82.038-0.80909 85.29-1.9815 9.4377-8.5199 17.803-17.137 21.925-2.5437 1.2169-6.0778 2.4742-7.8535 2.7941-4.1918 0.7551-456.88 0.7045-460.9-0.052zm124.9-96.58c7.6491-3.5392 11.309-11.496 8.9777-19.516-0.7356-2.5303-1.5474-3.7968-4.0116-6.2584-5.1522-5.1469-3.0696-4.9099-43.158-4.9099-33.62 0-34.799 0.035-37.678 1.1118-3.7388 1.3989-7.1048 4.6255-8.8876 8.5198-1.1912 2.6018-1.3404 3.5506-1.1264 7.158 0.27812 4.6879 1.2132 6.946 4.1632 10.054 2.1987 2.3163 4.9945 3.9319 8.0933 4.6766 1.1328 0.2722 17.497 0.4516 36.6 0.4013 33.884-0.089 34.599-0.1131 37.027-1.2367zm228.77-31.641c-4.7341-1.7218-23.742-13.56-38.088-23.721-15.784-11.18-36.515-30.191-46.071-42.249-22.846-28.827-34.077-58.588-37.728-99.974-0.62442-7.0782-0.80398-18.501-0.80198-51.017l0.003-41.897 1.31-2.8136c2.7857-5.983 0.15094-4.6602 62.417-31.337 31.231-13.38 57.962-24.727 59.403-25.214 5.5812-1.8878 3.8655-2.5136 65.602 23.929 31.237 13.379 57.494 24.688 58.349 25.13 2.6984 1.3954 5.3969 4.1263 6.9089 6.9916l1.4614 2.7696 0.17085 37.272c0.18037 39.348-0.22466 52.062-2.1409 67.198-6.927 54.714-31.17 93.683-80.857 129.97-10.9 7.9616-29.873 20.046-37.698 24.011-3.7434 1.897-8.5934 2.272-12.238 0.9464zm-4.0808-112.68c1.3467-0.6974 3.0356-1.7963 3.7532-2.4419 0.71758-0.6456 15.993-19.52 33.946-41.944 21.226-26.512 33.114-41.803 33.993-43.723 1.8461-4.0325 1.594-10.15-0.57055-13.844-5.3498-9.1288-16.976-11.046-24.667-4.0685-1.1604 1.0529-13.365 15.993-27.12 33.2l-25.01 31.286-10.214-15.282c-5.6176-8.4052-10.883-15.981-11.701-16.834-0.81774-0.85353-2.8409-2.2169-4.496-3.0298-7.9785-3.9184-17.683-0.28654-21.42 8.0164-1.3918 3.0921-1.5022 9.152-0.22069 12.112 0.48057 1.1098 8.3122 13.23 17.404 26.934 17.237 25.982 19.304 28.594 23.985 30.31 3.3607 1.2316 9.2654 0.9015 12.338-0.6899zm-374.88-47.83c0.0104-36.911 0.0753-37.793 3.2641-44.333 4.0384-8.2824 11.158-14.246 20.419-17.103 3.0957-0.95522 7.6694-1.0002 101.73-1.0002h98.484l0.3254 27.75c0.24102 20.555 0.5627 29.866 1.2406 35.911 0.99491 8.8726 3.2332 23.093 4.4534 28.294 0.42127 1.7956 0.76957 3.4483 0.77399 3.6727 0.004 0.2245-51.9 0.4081-115.34 0.4081h-115.35l0.009-33.599z"/>
	</g>
</svg>
