<svg xmlns:rdf="http://www.w3.org/1999/02/22-rdf-syntax-ns#" xmlns="http://www.w3.org/2000/svg" height="512" width="512" version="1.1" xmlns:cc="http://creativecommons.org/ns#" xmlns:dc="http://purl.org/dc/elements/1.1/" viewBox="0 0 512.00001 512.00001">
	<g transform="translate(0 -540.36)">
		<path d="m288.45 1021.6c-1.9208-1.0301-4.4174-3.1117-5.5481-4.6259-2.0133-2.6961-2.0614-4.1842-2.3292-72.032-0.30525-77.335-0.59264-73.97 6.7038-78.507 3.2166-2.0002 5.3093-2.3367 16.436-2.6428l12.75-0.35068 0.61261-22.917c0.48122-18.002 1.0323-24.484 2.5698-30.225 8.2203-30.694 32.136-52.956 62.87-58.52 41.2-7.4595 81.874 19.968 90.589 61.088 0.98041 4.626 1.439 13.686 1.451 28.667l0.0176 21.903 13.48 0.35216c12.41 0.32421 13.774 0.55291 17.183 2.8812 6.9584 4.7519 6.7663 2.5632 6.7663 77.09 0 66.365-0.0184 66.971-2.169 71.413-1.6136 3.3331-3.2327 4.9636-6.3226 6.3669-3.9655 1.8008-8.8492 1.8872-107.86 1.9085-99.025 0.021-103.86-0.063-107.2-1.8508zm193.2-78.298 0.00009-49.822-85.366 0.26419-85.366 0.26419-0.55683 2.7707c-0.30626 1.5239-0.5945 23.825-0.64053 49.558l-0.0837 46.787h86.007 86.007l0.00009-49.822zm-36.436-98.633c-0.0261-28.124-2.5885-37.139-13.94-49.039-9.7841-10.258-21.475-15.238-35.536-15.137-18.767 0.13408-35.244 10.436-43.185 27-4.6702 9.742-5.4487 15.037-5.4487 37.062v19.083h49.064 49.064l-0.0176-18.968zm-411.66 112.96c-14.983-2.93-28.505-16.04-32.035-31.04-2.0074-8.53-2.026-317.95-0.0195-325.46 4.1152-15.406 15.076-26.291 30.526-30.315 5.251-1.3677 29.364-1.5507 204.31-1.5507 216.96 0 204.27-0.34327 214.81 5.8102 10.475 6.1185 18.286 17.504 20.387 29.716 0.7424 4.3151 1.0116 25.135 0.81159 62.781-0.29253 55.071-0.34562 56.387-2.3849 59.117-3.6879 4.9379-7.1309 6.8475-12.346 6.8475-6.0228 0-10.486-2.524-13.292-7.517-1.9141-3.4057-2.1186-5.3917-2.1186-20.576v-16.807h-205.86-205.86v116.32 116.32l2.9515 3.3037 2.9515 3.3037 100.67 0.50581c99.698 0.50094 100.69 0.52586 103.46 2.5916 7.4203 5.541 9.2834 12.852 5.0961 19.997-4.8426 8.2633 2.1359 7.7744-109.18 7.649-54.098-0.061-100.39-0.50836-102.87-0.99421zm408.64-323.87c-0.003-23.508-0.16038-25.8-1.9691-28.767-1.0809-1.7728-2.8786-3.7119-3.9947-4.3093-2.8751-1.5387-396.61-1.5029-399.99 0.0364-5.3893 2.4555-5.7681 4.6021-5.7681 32.69v25.893h205.86 205.86l-0.004-25.543zm-365.87 215.8c-12.31-5.6421-11.226-23.823 1.634-27.395 2.0743-0.57626 19.664-1.0013 41.534-1.0036 34.105-0.004 38.291 0.17456 41.456 1.7647 7.8208 3.9293 10.636 14.414 5.7992 21.599-4.3493 6.461-4.2455 6.4462-47.255 6.7211-36.507 0.23328-39.212 0.12769-43.168-1.6856zm1.9414-52.377c-3.5021-0.68991-9.0072-6.4753-10.17-10.688-2.0173-7.3059 2.6482-15.915 9.7422-17.977 2.5536-0.7423 32.884-0.98579 96.788-0.77699l93.069 0.30409 3.303 2.3559c4.2241 3.0128 6.3074 7.0796 6.3074 12.313 0 5.233-2.0833 9.2997-6.3074 12.313l-3.303 2.3559-93.575 0.12533c-51.466 0.0689-94.6-0.0767-95.854-0.32366z"/>
	</g>
</svg>
