<svg xmlns:rdf="http://www.w3.org/1999/02/22-rdf-syntax-ns#" xmlns="http://www.w3.org/2000/svg" height="512" width="512" version="1.1" xmlns:cc="http://creativecommons.org/ns#" xmlns:dc="http://purl.org/dc/elements/1.1/" viewBox="0 0 512.00001 512.00001">
	<g transform="translate(0 -540.36)">
		<path d="m36.108 1051.1c-17.168-3.3715-31.76-18.264-35.088-35.809-1.4077-7.4226-1.4077-340.8 0-348.22 3.406-17.96 17.911-32.464 35.87-35.87 3.3358-0.63261 31.703-1.0207 74.608-1.0207h69.226l0.53602-14.25c0.61198-16.269 2.3397-23.19 9.0495-36.25 5.7437-11.18 18.999-24.438 30.19-30.197 13.39-6.8908 21.012-8.7747 35.5-8.7747s22.11 1.8839 35.5 8.7747c11.191 5.7592 24.447 19.017 30.19 30.197 6.7098 13.06 8.4375 19.981 9.0495 36.25l0.53602 14.25h69.226c42.905 0 71.272 0.38809 74.608 1.0207 17.96 3.406 32.464 17.911 35.87 35.87 1.4077 7.4226 1.4077 340.8 0 348.22-3.4059 17.96-17.911 32.464-35.87 35.87-6.694 1.2695-432.53 1.2104-439-0.061zm437.51-30.542c1.8815-0.8928 4.4245-3.0303 5.6511-4.75l2.2303-3.1267 0.26095-131.25 0.26094-131.25h-226.02-226.02l0.26094 131.25 0.26095 131.25 2.2182 3.1097c4.913 6.8876-14.195 6.3423 223.13 6.3675 195.73 0.021 214.65-0.1182 217.77-1.6005zm-404.32-31.53c-3.0755-1.5223-4.7826-3.2836-6.3792-6.5817-2.0686-4.2731-2.1532-5.4569-1.6558-23.171 0.56191-20.013 2.1597-28.864 7.1964-39.866 6.1398-13.411 18.249-27.356 30.446-35.061 3.0758-1.9432 5.7797-3.692 6.0087-3.8864 0.22902-0.1944-1.1939-2.7161-3.162-5.6037-6.2971-9.239-9.5475-18.715-10.377-30.25-2.4088-33.506 25.737-63.465 59.622-63.465 27.744 0 52.812 20.514 58.613 47.965 3.2635 15.444-0.18258 32.275-9.3671 45.75-1.9681 2.8876-3.3911 5.4093-3.162 5.6037 0.22902 0.1944 2.9329 1.9432 6.0087 3.8864 12.197 7.7055 24.306 21.65 30.446 35.061 5.0367 11.002 6.6345 19.853 7.1964 39.866 0.49797 17.736 0.4149 18.893-1.6651 23.19-1.6287 3.3644-3.2789 5.0499-6.4449 6.5825-4.1847 2.0258-5.5455 2.0601-81.69 2.0593-76.396-0.0008-77.491-0.029-81.634-2.0794zm141.68-34.67c-0.0322-14.688-5.2922-27.446-15.541-37.694-11.706-11.706-22.641-15.526-44.444-15.526s-32.739 3.8202-44.444 15.526c-10.249 10.249-15.509 23.007-15.541 37.694l-0.0148 6.75h60 60l-0.0148-6.75zm-47.775-86.019c5.8419-2.5841 12.387-9.1129 15.12-15.082 2.9567-6.4582 2.9567-17.84 0-24.298-2.7208-5.943-9.2379-12.46-15.181-15.181-6.4582-2.9567-17.84-2.9567-24.298 0-12.846 5.8811-20.135 20.64-16.885 34.187 4.3274 18.039 24.263 27.886 41.245 20.374zm116.09 90.689c-4.4334-2.1945-8.3008-8.2139-8.3008-12.92 0-4.7676 3.8816-10.764 8.3758-12.94 4.1853-2.0261 5.5421-2.0601 82.124-2.0601s77.939 0.034 82.124 2.0601c4.4943 2.1756 8.3758 8.1723 8.3758 12.94 0 4.7676-3.8816 10.764-8.3758 12.94-4.1854 2.0261-5.5406 2.0601-82.19 2.0593-76.902-0.0008-77.99-0.028-82.134-2.0794zm0-60c-4.4334-2.1945-8.3008-8.2139-8.3008-12.92 0-4.7676 3.8816-10.764 8.3758-12.94 4.1853-2.0261 5.5421-2.0601 82.124-2.0601s77.939 0.034 82.124 2.0601c4.4943 2.1756 8.3758 8.1723 8.3758 12.94 0 4.7676-3.8816 10.764-8.3758 12.94-4.1854 2.0261-5.5406 2.0601-82.19 2.0593-76.902-0.0008-77.99-0.028-82.134-2.0794zm0-60c-4.4334-2.1945-8.3008-8.2139-8.3008-12.92 0-4.7676 3.8816-10.764 8.3758-12.94 4.1853-2.0261 5.5421-2.0601 82.124-2.0601s77.939 0.034 82.124 2.0601c4.4943 2.1756 8.3758 8.1723 8.3758 12.94 0 4.7676-3.8816 10.764-8.3758 12.94-4.1854 2.0261-5.5406 2.0601-82.19 2.0593-76.902-0.00078-77.99-0.0283-82.134-2.0794zm202.51-144.17c-0.28657-24.273-0.38437-25.371-2.5284-28.377-4.7186-6.6151-1.7332-6.3733-78.671-6.3733h-69.599v8.6843c0 11.227-2.1896 16.261-8.3758 19.256-4.1576 2.0126-5.6928 2.0601-66.624 2.0601s-62.467-0.0475-66.624-2.0601c-6.1863-2.9947-8.3758-8.0284-8.3758-19.256v-8.6843h-69.599c-76.938 0-73.952-0.24185-78.671 6.3733-2.144 3.0058-2.2418 4.1034-2.5284 28.377l-0.29811 25.25h226.1 226.1l-0.29811-25.25zm-180.8-58.614c0-13.125-0.45932-26.285-1.0207-29.246-4.4524-23.477-27.482-39.92-50.557-36.096-18.99 3.1467-33.878 17.515-37.401 36.096-0.56139 2.9602-1.0207 16.121-1.0207 29.246v23.864h45 45v-23.864zm-51.699-8.2167c-2.9985-1.4842-4.7856-3.2899-6.25-6.3149-2.5791-5.3278-2.5773-7.8858 0.009-13.229 2.176-4.4943 8.1726-8.3758 12.94-8.3758 1.3027 0 4.2836 0.92705 6.6242 2.0601 4.4943 2.1756 8.3758 8.1723 8.3758 12.94 0 4.7676-3.8816 10.764-8.3758 12.94-5.3592 2.5944-8.0499 2.5903-13.323-0.0201z"/>
	</g>
</svg>
