<?xml version="1.0" encoding="UTF-8" standalone="no"?>
<svg xmlns:rdf="http://www.w3.org/1999/02/22-rdf-syntax-ns#" xmlns="http://www.w3.org/2000/svg" height="512" width="512" version="1.1" xmlns:cc="http://creativecommons.org/ns#" xmlns:dc="http://purl.org/dc/elements/1.1/" viewBox="0 0 512.00001 512.00001">
	<g transform="translate(0 -540.36)">
		<path d="m14.764 1051.4c-5.0186-1.5111-9.3157-4.8626-11.802-9.2049l-2.462-4.3v-44.5c0-43.189 0.061536-44.618 2.0891-48.5 1.149-2.2 3.9981-5.3485 6.3315-6.9967 4.0721-2.8764 4.771-3.0169 17.411-3.5l13.168-0.54 0.183-71.16c0.17631-68.512 0.25603-71.302 2.1436-75 2.2402-4.3893 4.2154-6.3209 9.1733-8.9707 3.3341-1.7819 7.8012-1.8836 94.25-2.1461l90.75-0.27548v-39.436-39.436l-32.825-0.28882-32.825-0.28882-4.0538-2.684c-2.4403-1.6157-4.8981-4.4281-6.175-7.0657-2.094-4.3255-2.1209-5.1952-2.0992-67.816 0.0206-59.381 0.13927-63.693 1.8577-67.476 2.2402-4.9319 6.9269-9.0331 11.901-10.415 5.1112-1.4195 163.33-1.4195 168.44 0 4.9745 1.3815 9.6611 5.4827 11.901 10.415 1.7184 3.7831 1.8371 8.0949 1.8577 67.476 0.0217 62.621-0.005 63.49-2.0992 67.816-1.2769 2.6376-3.7347 5.45-6.175 7.0657l-4.0538 2.684-32.825 0.28882-32.825 0.28882v39.461 39.461l88.75 0.006c61.059 0.004 89.998 0.34649 92.75 1.0982 5.4408 1.4862 10.109 5.2097 12.564 10.021 1.9978 3.9159 2.0497 5.6589 2.2408 75.192l0.19562 71.183 13.169 0.50329c12.64 0.48309 13.339 0.62358 17.411 3.5 2.3333 1.6482 5.1825 4.7967 6.3315 6.9967 2.0275 3.8822 2.0891 5.3108 2.0891 48.5v44.5l-2.6519 4.5107c-1.6337 2.7788-4.3215 5.4666-7 7l-4.3481 2.4893-52.267 0.284c-35.041 0.1904-53.584-0.071-56.263-0.7921-4.592-1.2365-10.301-5.8814-12.771-10.39-1.5266-2.787-1.6989-7.614-1.6989-47.602v-44.5l2.4243-4.2324c1.3334-2.3278 4.2584-5.4778 6.5-7l4.0757-2.7676 22.75-0.3176 22.75-0.3176v-58.932-58.932h-78.5-78.5v59 59h21.304c20.931 0 21.395 0.0454 26.514 2.5967 3.8686 1.9278 5.9154 3.7953 7.9463 7.25l2.7355 4.6533 0.31123 40.797c0.36314 47.601 0.0938 50.054-6.1858 56.338-2.4244 2.426-5.7837 4.5934-8.1287 5.2444-5.5712 1.5466-123.42 1.5466-128.99 0-2.345-0.651-5.7044-2.8184-8.1287-5.2444-6.2796-6.284-6.549-8.7371-6.1858-56.338l0.31123-40.797 2.7355-4.6533c2.0309-3.4547 4.0777-5.3222 7.9463-7.25 5.1197-2.5512 5.5836-2.5967 26.514-2.5967h21.304v-59-59h-78.5-78.5v58.932 58.932l22.75 0.3176 22.75 0.3176 4.0757 2.7676c2.2416 1.5222 5.1666 4.6722 6.5 7l2.4243 4.2324v44.5c0 39.988-0.17228 44.815-1.6989 47.602-2.4169 4.4124-8.1111 9.113-12.524 10.338-4.5301 1.258-104.35 1.3172-108.51 0.064z"/>
	</g>
</svg>
