<svg xmlns:inkscape="http://www.inkscape.org/namespaces/inkscape" xmlns:rdf="http://www.w3.org/1999/02/22-rdf-syntax-ns#" xmlns="http://www.w3.org/2000/svg" sodipodi:docname="chat2.svg" height="512" width="512" version="1.1" xmlns:cc="http://creativecommons.org/ns#" xmlns:dc="http://purl.org/dc/elements/1.1/" inkscape:version="0.91 r13725" viewBox="0 0 512.00001 512.00001" xmlns:sodipodi="http://sodipodi.sourceforge.net/DTD/sodipodi-0.dtd">
	<sodipodi:namedview bordercolor="#666666" inkscape:pageshadow="2" inkscape:window-y="-8" pagecolor="#ffffff" inkscape:window-height="1017" inkscape:window-maximized="1" inkscape:zoom="0.35" inkscape:window-x="-8" showgrid="false" borderopacity="1.0" inkscape:current-layer="layer1" inkscape:cx="-126.42857" inkscape:cy="520" units="px" inkscape:window-width="1920" inkscape:pageopacity="0.0" inkscape:document-units="px"/>
	<g inkscape:label="Layer 1" inkscape:groupmode="layer" transform="translate(0 -540.36)">
		<path inkscape:connector-curvature="0" d="m253.56 1030.7c-1.3095-0.3433-15.324-15.293-39.856-42.515l-37.836-41.986-66.785-0.4084-66.785-0.4084-5.6552-1.8782c-16.291-5.36-29.042-18.11-34.471-34.42l-1.8826-5.6552-0.2147-147.23c-0.18689-128.16-0.05809-147.99 0.99454-153.09 3.8848-18.847 19.223-34.822 38.403-39.997 4.9425-1.3336 17.672-1.4169 216.51-1.4169s211.57 0.0833 216.51 1.4169c14.564 3.9297 27.517 14.368 33.831 27.263 6.185 12.632 5.8059 1.3073 5.566 166.23l-0.21466 147.63-1.9016 5.2458c-2.5267 6.9704-4.1639 10.078-8.0999 15.373-4.4845 6.0329-12.28 12.458-19.082 15.728-10.914 5.2464-11.084 5.2574-82.168 5.2846l-64.059 0.024-35.815 39.871c-19.698 21.929-36.967 40.958-38.375 42.287-2.8163 2.658-5.5306 3.5076-8.619 2.698z"/>
	</g>
</svg>
