<?xml version="1.0" encoding="UTF-8" standalone="no"?>
<svg id="svg2" xmlns:rdf="http://www.w3.org/1999/02/22-rdf-syntax-ns#" xmlns="http://www.w3.org/2000/svg" height="512" width="512" version="1.1" xmlns:cc="http://creativecommons.org/ns#" xmlns:dc="http://purl.org/dc/elements/1.1/" viewBox="0 0 512.00001 512.00001">
	<g id="layer1" transform="translate(0,-540.36216)">
		<path id="path3347" d="m251 1014.763c-38.6513-4.4864-69.03826-13.6974-97.92666-29.68415-5.18466-2.86917-10.13466-5.06604-11-4.88194s-28.57334 7.77611-61.57334 16.87115c-34.543094 9.52034-61.942505 16.56664-64.578338 16.60754-6.173439 0.096-10.8415324-2.737-13.736229-8.3363-4.0998057-7.93035-4.0451982-8.06227 25.295394-61.10862 14.714267-26.60268 27.673784-50.03886 28.798926-52.08041l2.045712-3.71191-4.056243-8.78809c-4.933736-10.68923-10.7802-28.60723-13.304964-40.77651-5.956596-28.7106-5.582381-61.90827 1.01464-90.01158 8.855071-37.72261 32.472705-78.09436 61.661592-105.40372 36.70994-34.34612 81.40267-55.72748 133.35951-63.80023 14.28428-2.21942 57.66325-2.52937 71-0.50732 58.36444 8.84891 106.34945 32.76018 143.81619 71.66461 80.00035 83.07014 80.00035 208.02318 0 291.09332-36.60245 38.00698-83.82852 61.97406-140.11755 71.10936-8.7879 1.4262-52.59469 2.6854-60.69864 1.7448zm32.20035-102.4172c35.24414-3.34218 67.24284-21.15572 87.98997-48.98362 11.4166-15.31298 13.67608-22.29358 9.90425-30.59893-4.20083-9.24996-15.09987-12.37904-24.98361-7.17272-1.31398 0.69214-5.18464 5.53641-8.60148 10.76504-7.13328 10.91573-13.42329 17.73679-22.57455 24.48042-40.78105 30.05187-97.13706 19.44281-125.53987-23.63296-6.92716-10.50576-8.85923-12.34008-14.64506-13.90419-11.58051-3.1306-23.91168 9.32176-20.77316 20.97733 3.06264 11.37379 25.27655 37.25516 40.54169 47.23503 18.19352 11.89436 37.94591 18.98521 57.82689 20.75911 5.03502 0.44926 9.37958 0.87834 9.65458 0.95351 0.275 0.0752 5.31516-0.31993 11.20035-0.87802zm-119.9814-124.02763c4.35257-1.20883 9.28335-5.09286 11.22018-8.83828 0.75201-1.45423 1.67228-4.88813 2.04504-7.63088 1.03989-7.65152 2.44817-11.34018 5.77701-15.13151 6.14589-6.99979 14.99962-9.58425 23.93478-6.98673 9.58715 2.78706 14.9981 9.88301 16.69998 21.90047 1.08599 7.66845 2.0015 9.62541 6.12699 13.09678 6.50031 5.46965 15.45929 5.46506 21.96752-0.0113 4.81863-4.05461 6.3591-7.93352 6.22618-15.6775-0.4108-23.93324-18.15-46.05007-42.71663-53.25815-8.45435-2.48059-22.95919-2.27158-31.5 0.45389-9.29374 2.96574-18.34846 8.68142-24.9817 15.76938-7.44027 7.9503-11.56882 15.28042-14.03296 24.91511-4.3669 17.07442-1.23981 27.09421 9.66985 30.98404 4.72183 1.68357 4.95794 1.6938 9.56376 0.41464zm151.78105-2.10898c4.88681-2.76785 6.94481-5.95298 8.14657-12.60824 1.83155-10.14307 2.73556-12.6646 5.92189-16.51779 4.52882-5.47665 10.17585-8.12119 17.45823-8.17579 11.95392-0.0896 21.50136 8.10136 22.92763 19.67021 1.1633 9.43577 1.6756 10.83702 5.38696 14.73456 7.02855 7.38112 16.9941 7.44996 24.27637 0.16769 4.87746-4.87747 6.19159-9.88634 4.92914-18.78776-3.3608-23.69668-19.38183-42.11415-42.54679-48.91096-3.98277-1.16858-9.19394-1.73825-15.5-1.6944-16.26853 0.11312-30.10973 6.27099-41.40267 18.4198-9.55204 10.27597-15.5787 24.74392-15.56059 37.35567 0.0218 15.15346 13.30475 23.51671 25.96326 16.34701z"/>
	</g>
</svg>
