<?xml version="1.0" encoding="UTF-8" standalone="no"?>
<svg id="svg2" xmlns:rdf="http://www.w3.org/1999/02/22-rdf-syntax-ns#" xmlns="http://www.w3.org/2000/svg" height="512" width="512" version="1.1" xmlns:cc="http://creativecommons.org/ns#" xmlns:dc="http://purl.org/dc/elements/1.1/" viewBox="0 0 511.99999 512.00001">
	<g id="layer1" transform="translate(0,-540.36216)">
		<path id="path3347" d="m230.5 1051.7417c-27.99548-3.9707-42.93626-7.3852-61.5-14.0548-61.71349-22.1724-114.271303-69.1586-142.982195-127.82472-11.626119-23.75611-19.2169266-47.77289-23.7047026-75-2.6020834-15.78671-2.6020834-61.21329 0-77 7.484253-45.40658 25.5587666-86.90056 52.7068276-121 34.814837-43.72932 85.68105-76.42919 138.98007-89.34476 23.92974-5.79872 31.90903-6.65524 62-6.65524s38.07026 0.85652 62 6.65524c71.9456 17.43407 135.2316 68.42416 167.9822 135.34476 11.62611 23.75611 19.21692 47.77289 23.7047 75 1.44018 8.73751 1.8131 16.65621 1.8131 38.5 0 30.09097-0.85652 38.07026-6.65524 62-8.24701 34.03315-25.79629 69.7809-47.86469 97.5-34.08189 42.8087-83.64156 75.13402-135.81755 88.58702-22.81439 5.8824-33.27931 7.1459-61.66252 7.4445-14.3 0.1505-27.35 0.082-29-0.152z"/>
	</g>
</svg>
