<svg xmlns:inkscape="http://www.inkscape.org/namespaces/inkscape" xmlns:rdf="http://www.w3.org/1999/02/22-rdf-syntax-ns#" xmlns="http://www.w3.org/2000/svg" sodipodi:docname="clock-stroke2.svg" height="512" width="512" version="1.1" xmlns:cc="http://creativecommons.org/ns#" xmlns:dc="http://purl.org/dc/elements/1.1/" inkscape:version="0.91 r13725" viewBox="0 0 511.99999 511.99999" xmlns:sodipodi="http://sodipodi.sourceforge.net/DTD/sodipodi-0.dtd">
	<sodipodi:namedview bordercolor="#666666" inkscape:pageshadow="2" inkscape:window-y="-8" pagecolor="#ffffff" inkscape:window-height="1017" inkscape:window-maximized="1" inkscape:zoom="0.49497475" inkscape:window-x="-8" showgrid="false" borderopacity="1.0" inkscape:current-layer="layer1" inkscape:cx="366.70293" inkscape:cy="269.41868" units="px" inkscape:window-width="1920" inkscape:pageopacity="0.0" inkscape:document-units="px"/>
	<g inkscape:label="Layer 1" inkscape:groupmode="layer" transform="translate(0 -540.36)">
		<path inkscape:connector-curvature="0" d="m240.04 1051.9c-55.371-3.3785-109.09-25.322-151.33-61.815-6.3811-5.5129-18.844-17.921-24.937-24.829-31.282-35.461-52.296-79.432-60.121-125.8-2.3781-14.091-3.0595-21.765-3.3584-37.822-0.29181-15.678 0.13677-24.867 1.7587-37.711 3.5577-28.173 11.597-54.786 24.339-80.567 22.519-45.565 57.71-83.13 101.95-108.82 72.792-42.278 162.8-45.489 239.1-8.5304 39.534 19.149 72.912 47.627 98.508 84.047 23.492 33.426 38.868 73.218 44.002 113.87 1.6219 12.844 2.0505 22.034 1.7587 37.711-0.2989 16.056-0.9803 23.73-3.3584 37.821-7.825 46.366-28.798 90.256-60.114 125.8-22.91 26.003-49.791 46.458-80.796 61.481-39.91 19.337-83.093 27.867-127.4 25.164zm43.498-40.823c53.643-7.3011 100.82-32.682 136.08-73.215 23.162-26.624 39.666-59.179 47.463-93.619 9.7428-43.039 6.1695-87.632-10.315-128.73-3.7731-9.406-11.748-24.988-17.286-33.776-32.786-52.025-85.307-87.604-145.18-98.352-14.375-2.5803-19.096-2.943-38.299-2.943-19.181 0-23.808 0.3545-38.299 2.9339-30.363 5.4049-60.238 17.868-85.64 35.727-43.107 30.306-73.77 74.96-86.112 125.4-8.4943 34.716-8.4932 69.054 0.003 103.73 12.836 52.38 45.444 98.602 90.63 128.47 31.37 20.734 63.26 31.728 103.19 35.574 1.1702 0.1127 9.6678 0.1378 18.883 0.056 13.374-0.1189 18.395-0.3721 24.881-1.2548zm48.437-134.13c-1.365-0.2335-3.664-1.0182-5.1087-1.7439-2.8266-1.4197-82.954-61.302-85.122-63.615-2.1286-2.2706-3.7116-5.0697-4.6049-8.1426-0.74768-2.572-0.82417-9.8183-0.69816-66.155l0.1415-63.267 1.5022-3.2503c1.7865-3.8657 5.3401-7.4927 9.4023-9.5966 2.6717-1.3837 3.4104-1.5152 8.5108-1.5152 5.1005 0 5.8392 0.1315 8.5108 1.5152 4.0623 2.1039 7.6159 5.7309 9.4024 9.5966l1.5021 3.2503 0.14005 56.99 0.14001 56.99 36.712 27.53c20.192 15.142 37.428 28.434 38.303 29.539 3.8735 4.8907 5.3488 12.807 3.4514 18.52-3.0581 9.2072-12.655 14.985-22.184 13.355z"/>
	</g>
</svg>
