<?xml version="1.0" encoding="UTF-8" standalone="no"?>
<svg id="svg2" xmlns:rdf="http://www.w3.org/1999/02/22-rdf-syntax-ns#" xmlns="http://www.w3.org/2000/svg" height="512" width="512" version="1.1" xmlns:cc="http://creativecommons.org/ns#" xmlns:dc="http://purl.org/dc/elements/1.1/" viewBox="0 0 512.00001 512.00001">
	<g id="layer1" transform="translate(0,-540.36216)">
		<path id="path4891" d="m226.97815 1017.246c-46.18035-5.2709-87.59286-23.26201-113.61956-49.36055-5.52268-5.53792-11.37711-11.75863-13.00983-13.82381l-2.968606-3.75486-9.006811 2.06348c-11.190895 2.56385-23.093225 2.75667-30.759636 0.49832-13.903428-4.09564-26.139692-16.5752-30.247086-30.84849-0.828494-2.87904-4.666436-20.44533-8.528759-39.03622-7.732063-37.21745-8.415152-44.39939-5.13086-53.94536 2.785692-8.09675 4.488705-10.98312 10.107744-17.13125 5.320819-5.82182 12.941708-10.73968 19.581864-12.63643 2.17014-0.6199 16.780413-3.87217 32.467274-7.22728 32.642176-6.98152 41.250246-7.65926 51.287506-4.03805 7.86451 2.83733 16.2924 8.62647 20.09975 13.80656 1.74301 2.37146 3.51676 4.32931 3.94166 4.35078 0.42489 0.0214 3.80245-1.34845 7.50568-3.04425 3.70322-1.69581 10.44844-4.44043 14.98937-6.09919l8.25624-3.01591 0.0174-18.16916c0.0262-27.41043 2.55949-36.0216 13.96211-47.46038 6.13381-6.15325 14.52674-10.62407 22.93925-12.21946 7.0032-1.32814 67.27133-1.32814 74.27452 0 8.41251 1.59539 16.80544 6.06621 22.93925 12.21946 11.40464 11.44081 13.9359 20.04822 13.96211 47.47742l0.0173 18.1862 3.75283 1.17677c2.06407 0.64723 9.08015 3.43327 15.5913 6.19122l11.83847 5.01445 1.50252-2.14516c4.3651-6.23204 14.00858-13.33274 22.15944-16.31644 10.01736-3.66696 18.36228-2.9589 53.68987 4.55553 35.78779 7.61231 40.26384 9.33755 49.16242 18.94907 8.86693 9.57736 12.43589 18.37009 12.48791 30.7661 0.0235 5.59833-1.87212 16.53378-7.45948 43.03254-4.12003 19.53977-8.17748 37.45398-9.01655 39.80935-3.40864 9.56844-12.70798 20.13663-21.90299 24.89156-9.76445 5.0494-22.41543 5.85834-38.11878 2.43744-5.44026-1.18513-9.96871-2.02744-10.06324-1.87179-2.34053 3.85361-12.46835 15.37514-17.9031 20.3668-26.02035 23.8989-65.70393 40.55029-109.71588 46.03719-12.53112 1.5623-46.5606 1.7429-59.08268 0.3138zm60.8034-23.52225c29.70329-3.94084 57.05147-13.74193 78.80216-28.24127 8.86363-5.90863 23.29982-18.72545 22.26121-19.76407-0.2921-0.2921-4.78013-1.58325-9.97341-2.86921-12.07555-2.99015-18.81661-6.44231-25.36291-12.98861-5.78053-5.78054-9.37744-12.10504-11.98423-21.0721-2.50454-8.61531-1.54461-17.44112 5.49037-50.47934 3.33231-15.6495 6.05875-28.97611 6.05875-29.6147 0-1.04715-9.45749-5.88853-19.26457-9.86172l-3.75283-1.52041-0.006 6.70405c-0.0215 24.94404-12.01059 42.11439-33.95138 48.62421-8.03844 2.385-72.1592 2.385-80.19764 0-8.64755-2.56573-14.5056-5.99962-20.55499-12.04902-9.12693-9.12693-13.382-20.60152-13.39639-36.12588-0.003-3.4401-0.15333-6.25473-0.33363-6.25473-2.40127 0-22.68936 9.69531-22.68936 10.84293 0 0.4409 2.72644 13.60577 6.05875 29.25527 7.03498 33.03822 7.99492 41.86403 5.49037 50.47934-2.60679 8.96706-6.2037 15.29156-11.98423 21.0721-6.5463 6.5463-13.28736 9.99846-25.36291 12.98861-5.19327 1.28596-9.63393 2.52973-9.86814 2.76394s3.13187 3.77266 7.48018 7.86324c25.61015 24.09219 65.87929 39.30242 111.74917 42.20926 10.00634 0.63412 33.34451-0.37681 45.29167-1.96189zm-236.046293-222.5842c-23.942705-2.79586-45.3421331-22.57932-50.4373249-46.62855-6.841634-32.29243 14.0485609-64.17476 46.5447649-71.036 30.294416-6.39635 61.507853 13.00174 69.571433 43.23628 1.91915 7.19592 2.14678 21.44842 0.4574 28.63969-7.00047 29.79916-35.296871 49.38981-66.136273 45.78858zm393.407853-0.0328c-21.9775-2.45935-41.37821-18.03805-49.22705-39.52912-3.00902-8.23903-3.66721-25.39268-1.32219-34.45821 6.4752-25.03223 28.0891-42.75044 54.50161-44.67825 28.33471-2.0681 55.64516 18.85173 61.59279 47.18014 8.39472 39.98383-24.68193 76.05818-65.54516 71.48544zm-203.15361-79.55165c-14.24781-3.07111-28.7308-13.14901-36.99293-25.74131-11.25564-17.15467-12.58228-40.89798-3.30889-59.22014 8.06303-15.93078 24.06209-28.25457 41.00927-31.58872 8.82599-1.73641 24.36476-0.8322 31.74925 1.84751 18.5692 6.73845 32.47648 21.55259 38.21489 40.70679 2.78587 9.29891 2.3856 24.93798-0.87682 34.25853-3.60781 10.3073-7.08751 15.7828-15.17141 23.873-14.36003 14.37121-34.46333 20.20984-54.62336 15.86434z"/>
	</g>
</svg>
