<svg xmlns:rdf="http://www.w3.org/1999/02/22-rdf-syntax-ns#" xmlns="http://www.w3.org/2000/svg" height="512" width="512" version="1.1" xmlns:cc="http://creativecommons.org/ns#" xmlns:dc="http://purl.org/dc/elements/1.1/" viewBox="0 0 512.00001 512.00001">
	<g transform="translate(0 -540.36)">
		<path d="m329.07 1045.5c-1.3759-0.547-3.767-2.2047-5.3137-3.6838-1.5466-1.4791-12.693-18.963-24.771-38.852l-21.959-36.163-26.763-0.50433c-29.947-0.56437-43.656-2.2132-67.794-8.1534-75.83-18.73-137.05-65.24-165.41-125.73-35.43-75.57-14.673-161.97 52.939-220.36 95.051-82.07 250.72-88.2 354.53-13.95 64.723 46.295 96.711 116.66 85.137 187.27-6.4969 39.637-27.674 78.263-59.339 108.23-8.1838 7.7451-11.742 12.702-49.448 68.886-22.346 33.297-43.489 64.786-46.983 69.975-4.8966 7.2724-7.3597 9.9678-10.745 11.758-4.6 2.4324-9.8581 2.8808-14.084 1.2009zm12.655-56.689c5.3929-8.0978 30.249-44.939 57.964-85.914 14.449-21.361 17.761-25.574 28.722-36.524 13.262-13.249 21.192-23.318 28.965-36.777 24.156-41.827 26.486-90.922 6.346-133.7-22.804-48.443-69.945-85.827-131.23-104.08-48.042-14.304-104.89-14.304-152.93 0-40.362 12.017-74.39 32.014-99.424 58.426-30.413 32.087-45.263 66.911-45.252 106.11 0.01231 41.525 15.668 76.99 48.438 109.72 34.433 34.397 80.312 55.854 137.18 64.157 8.058 1.1766 19.196 1.6342 41.571 1.7077 35.123 0.11557 33.522-0.26828 39.872 9.5577 2.0707 3.2038 10.443 16.909 18.604 30.455 8.1617 13.546 15.107 24.62 15.434 24.608 0.32696-0.012 2.9118-3.5022 5.7441-7.7551z"/>
	</g>
</svg>
