<svg xmlns:rdf="http://www.w3.org/1999/02/22-rdf-syntax-ns#" xmlns="http://www.w3.org/2000/svg" height="512" width="512" version="1.1" xmlns:cc="http://creativecommons.org/ns#" xmlns:dc="http://purl.org/dc/elements/1.1/" viewBox="0 0 512.00001 512.00001">
	<g transform="translate(0 -540.36)">
		<path d="m331.44 1046.3c-2.7-0.7134-6.177-2.7033-8.101-4.6361-0.99155-0.996-11.795-18.264-24.007-38.374l-22.204-36.562-20.438-0.01c-21.24-0.01-29.078-0.5237-46.573-3.0669-83.3-12.14-155.11-58.93-189.21-123.3-11.404-21.54-18.223-44.48-20.467-68.88-0.91148-9.911-0.35363-30.417 1.0879-39.991 4.8763-32.385 17.726-62.047 38.256-88.309 34.397-44.001 86.655-75.911 146.95-89.732 11.429-2.6197 20.776-4.1842 36.314-6.0779 9.6051-1.1706 44.922-1.6634 56.479-0.78807 67.826 5.1371 128.82 31.293 172.61 74.021 33.021 32.221 51.955 67.951 58.761 110.89 1.466 9.2485 1.4694 40.346 0.006 49.519-4.672 29.275-13.837 52.702-30.135 77.03-9.0641 13.53-21.596 28.162-32.278 37.69l-5.5524 4.9519-46.604 69.327c-25.632 38.13-47.599 70.365-48.815 71.633-1.216 1.2685-3.4732 2.8495-5.0161 3.5132-3.0035 1.2921-8.3623 1.837-11.059 1.1245zm62.291-134.32c12.537-18.611 23.581-34.549 24.544-35.418 15.011-13.556 22.766-22.022 31.563-34.459 14.632-20.685 23.578-43.186 26.933-67.738 1.1119-8.137 1.2495-25.557 0.26751-33.858-3.0481-25.768-13.522-51.399-30.109-73.681-27.814-37.363-72.572-65.462-124.84-78.377-49.981-12.349-103.37-10.407-151.03 5.4924-12.367 4.1258-20.034 7.2623-31.637 12.943-59.246 29.005-98.233 79.209-104.26 134.25-0.75684 6.9159-0.77677 23.106-0.0369 29.987 5.229 48.631 35.366 92.99 83.934 123.54 31.074 19.547 68.678 32.062 109.22 36.348 10.331 1.0924 36.567 1.3738 51.754 0.5553 15.042-0.8106 16.516 0.1418 26.938 17.413 3.697 6.1264 11.791 19.499 17.987 29.718l11.266 18.579 17.358-25.732c9.547-14.152 27.615-40.959 40.152-59.57zm-222.27-75.046c-5.311-1.151-10.605-5.8814-11.933-10.663-1.6712-6.0176-0.13697-12.188 4.0786-16.404 5.3506-5.3506-3.1132-4.9031 92.734-4.9031 81.385 0 83.99 0.032 86.643 1.055 1.5046 0.5802 3.892 2.1366 5.3054 3.4587 8.4554 7.9091 6.0093 21.838-4.6853 26.679l-2.8054 1.27-83.082 0.098c-64.7 0.076-83.784-0.055-86.255-0.5901zm-34.343-97.897c-4.629-1.7135-8.5064-5.7565-10.061-10.49-0.98442-2.9981-0.48629-9.3899 0.95012-12.192 1.5562-3.0354 5.4132-6.4648 8.6939-7.7301 2.6433-1.0195 5.9634-1.0486 119.64-1.0486h116.92l3.0738 1.4415c3.7603 1.7634 6.869 4.7802 8.386 8.138 1.6657 3.687 1.6193 9.9221-0.0985 13.254-1.6186 3.1397-4.6808 6.3557-7.5098 7.8872l-2.2008 1.1913-118.02 0.098c-89.458 0.075-118.44-0.059-119.77-0.5502z"/>
	</g>
</svg>
