<?xml version="1.0" encoding="UTF-8" standalone="no"?>
<svg id="svg2" xmlns:rdf="http://www.w3.org/1999/02/22-rdf-syntax-ns#" xmlns="http://www.w3.org/2000/svg" height="512" width="625" version="1.1" xmlns:cc="http://creativecommons.org/ns#" xmlns:dc="http://purl.org/dc/elements/1.1/" viewBox="0 0 624.99999 512.00001">
	<g id="layer1" transform="matrix(.99523745 0 0 .99523745 0 -535.35024)">
		<path id="path3373" d="m36.846086 1051.7091c0-0.6585 1.173469-2.2511 2.607712-3.5388 4.440611-3.9874 11.926284-15.8659 16.334509-25.9204 7.313304-16.6805 12.86796-39.59505 15.192676-62.6743l1.012011-10.04701-13.930954-13.13075c-51.8316289-48.8544-70.089797-111.93888-49.8877208-172.3689 13.9404418-41.69973 46.7435308-79.7203 91.9720508-106.60061 73.97907-43.96739 177.11549-52.34815 262.75217-21.35097 42.18193 15.26822 81.36994 42.09049 106.59166 72.95674 46.76691 57.23315 51.52025 129.18896 12.54555 189.91343-55.16676 85.95248-182.34921 128.33157-301.9958 100.62959l-11.0622-2.56124-19.36057 12.97192c-29.62142 19.8469-58.712076 33.2202-84.512597 38.8513-13.695235 2.9889-28.258497 4.4681-28.258497 2.87zm566.785494-80.29662c-19.89928-3.98103-38.51194-11.02022-60.96884-23.05805-12.72797-6.82271-33.44631-19.95742-41.52894-26.32788l-4.62607-3.64612 5.24063-6.15286c14.95443-17.55748 29.66024-43.04272 36.38763-63.05987 28.8614-85.87655-10.52009-174.8384-101.20751-228.62532-34.1038-20.22704-76.70318-34.19837-122.29861-40.1103-18.79824-2.43739-70.56442-2.09901-87.17758 0.56987-17.46801 2.80619-17.76712 2.71442-8.60396-2.64022 31.89057-18.63579 72.96148-31.9441 114.83309-37.20968 15.67408-1.9711 58.98013-1.99779 74.97703-0.0462 63.3333 7.72654 119.4624 32.23191 158.44843 69.17685 25.27401 23.95082 41.28511 47.83149 50.52619 75.36017 7.57283 22.55909 9.89706 49.58019 6.19942 72.07362-3.83421 23.32414-14.94664 50.82595-27.4335 67.89434l-4.34729 5.9423 0.75063 24.786c1.55006 51.18328 11.41483 87.35158 30.36284 111.32261l4.95048 6.26282-6.48154-0.10362c-3.56484-0.057-11.66599-1.14079-18.00253-2.40848z"/>
	</g>
</svg>
