<?xml version="1.0" encoding="UTF-8" standalone="no"?>
<!-- Created with Inkscape (http://www.inkscape.org/) -->

<svg
   xmlns:dc="http://purl.org/dc/elements/1.1/"
   xmlns:cc="http://creativecommons.org/ns#"
   xmlns:rdf="http://www.w3.org/1999/02/22-rdf-syntax-ns#"
   xmlns:svg="http://www.w3.org/2000/svg"
   xmlns="http://www.w3.org/2000/svg"
   xmlns:sodipodi="http://sodipodi.sourceforge.net/DTD/sodipodi-0.dtd"
   xmlns:inkscape="http://www.inkscape.org/namespaces/inkscape"
   width="512"
   height="512"
   viewBox="0 0 511.99999 511.99999"
   id="svg2"
   version="1.1"
   inkscape:version="0.91 r13725"
   sodipodi:docname="company-page.svg">
  <defs
     id="defs4" />
  <sodipodi:namedview
     id="base"
     pagecolor="#ffffff"
     bordercolor="#666666"
     borderopacity="1.0"
     inkscape:pageopacity="0.0"
     inkscape:pageshadow="2"
     inkscape:zoom="1.88"
     inkscape:cx="199.5"
     inkscape:cy="306.38298"
     inkscape:document-units="px"
     inkscape:current-layer="svg2"
     showgrid="false"
     units="px"
     inkscape:window-width="1920"
     inkscape:window-height="1057"
     inkscape:window-x="-8"
     inkscape:window-y="-8"
     inkscape:window-maximized="1" />
  <metadata
     id="metadata7">
    <rdf:RDF>
      <cc:Work
         rdf:about="">
        <dc:format>image/svg+xml</dc:format>
        <dc:type
           rdf:resource="http://purl.org/dc/dcmitype/StillImage" />
        <dc:title></dc:title>
      </cc:Work>
    </rdf:RDF>
  </metadata>
  <path
     style="fill:#000000"
     d="M 159.75,491.18197 10,470.5789 10,255.4984 10,40.417893 158.75,20.604154 C 240.5625,9.7065975 308.5125,0.56378796 309.75,0.28679944 l 2.25,-0.5036155 0,21.59146906 0,21.59147 82.75,0.266938 L 477.5,43.5 483,46.112801 C 489.9962,49.436378 495.56362,55.0038 498.8872,62 l 2.6128,5.5 0.25778,186.69168 c 0.25552,185.05143 0.24008,186.73902 -1.758,192.07935 -2.34145,6.2581 -7.65496,12.85493 -13.14639,16.32152 C 478.3021,467.99075 478.13941,468 391.7899,468 L 312,468 l 0,22 c 0,16.99066 -0.28462,21.97553 -1.25,21.89252 -0.6875,-0.0591 -68.6375,-9.37887 -151,-20.71055 z m 315.96693,-43.85193 c 1.93556,-0.91849 4.36438,-3.05599 5.39739,-4.75 1.77819,-2.91604 1.8784,-6.04888 1.88194,-58.83566 L 483,327.98877 397.75,328.24438 312.5,328.5 l -0.25781,60.25 -0.2578,60.25 80.10667,0 c 72.75795,0 80.42952,-0.1532 83.62587,-1.66996 z M 186.29495,353.51181 c 12.41372,-1.87114 29.44955,-7.5052 38.89083,-12.86192 L 232.5,336.5 l 0.27757,-14.26816 0.27756,-14.26815 -6.20449,4.99964 c -7.93011,6.39016 -24.07558,14.4771 -34.35064,17.20554 -11.59179,3.07809 -35.64555,3.09327 -46.80048,0.0295 C 113.26705,321.29077 96,293.94866 96,251.5 c 0,-26.85941 7.24466,-48.58339 20.74701,-62.21236 7.83674,-7.91023 17.27665,-13.28301 28.95251,-16.47851 11.27507,-3.0858 34.37042,-3.06656 45.80048,0.0382 13.49771,3.66635 28.412,11.56121 37.71093,19.96223 l 3.78907,3.4232 0,-14.60381 0,-14.60382 -4.25,-2.68315 c -30.4073,-19.19705 -78.69754,-21.7532 -111.30506,-5.89172 -33.249261,16.17365 -51.46291,49.16636 -51.439045,93.17812 0.02658,49.02342 22.891476,84.35595 63.329605,97.86161 15.81479,5.28187 38.14134,6.85833 56.95945,4.02186 z M 476,263.5 l 0,-55.5 -82,0 -82,0 0,55.5 0,55.5 82,0 82,0 0,-55.5 z M 333.65499,302.17126 C 330.02682,298.16218 333.00304,292 338.56752,292 c 2.7811,0 5.43248,3.01316 5.43248,6.17375 0,5.1213 -6.91114,7.7919 -10.34501,3.99751 z M 354,298 c 0,-1.97193 0.66667,-2 47.5,-2 46.83333,0 47.5,0.0281 47.5,2 0,1.97193 -0.66667,2 -47.5,2 -46.83333,0 -47.5,-0.0281 -47.5,-2 z m -20.34501,-18.82874 c -2.1857,-2.41517 -2.10326,-6.4556 0.17375,-8.51627 3.96441,-3.58775 10.17126,-0.83024 10.17126,4.51876 0,5.1213 -6.91114,7.7919 -10.34501,3.99751 z M 354,275 c 0,-1.97193 0.66667,-2 47.5,-2 46.83333,0 47.5,0.0281 47.5,2 0,1.97193 -0.66667,2 -47.5,2 -46.83333,0 -47.5,-0.0281 -47.5,-2 z m -20,-20 c -2.03154,-2.03154 -2.58457,-5.5325 -1.21434,-7.68744 2.0963,-3.2968 8.18883,-3.23735 10.44903,0.10198 C 345.52897,250.80423 342.14542,257 338,257 c -1.1,0 -2.9,-0.9 -4,-2 z m 20,-4.5 0,-2.5 47.5,0 47.5,0 0,2.5 0,2.5 -47.5,0 -47.5,0 0,-2.5 z M 334.22251,232.4433 C 329.72947,229.29625 332.49002,222 338.17375,222 c 5.1213,0 7.7919,6.91114 3.99751,10.34501 -2.29206,2.07428 -5.07843,2.10874 -7.94875,0.0983 z M 354,228 c 0,-1.97193 0.66667,-2 47.5,-2 46.83333,0 47.5,0.0281 47.5,2 0,1.97193 -0.66667,2 -47.5,2 -46.83333,0 -47.5,-0.0281 -47.5,-2 z m 68,-51 0,-22 -55,0 -55,0 0,21.33333 c 0,11.73334 0.3,21.63334 0.66667,22 0.36666,0.36667 25.11666,0.66667 55,0.66667 L 422,199 l 0,-22 z m 60.99626,-41.75 c -0.004,-61.464322 -0.0737,-63.864784 -1.95578,-66.951451 C 477.00702,61.683442 481.45446,62 392.54966,62 L 312,62 l 0,41.5 0,41.5 60,0 60,0 0,27 0,27 25.5,0 25.5,0 -0.004,-63.75 z"
     id="path3498"
     inkscape:connector-curvature="0" />
</svg>
