<svg xmlns:inkscape="http://www.inkscape.org/namespaces/inkscape" xmlns:rdf="http://www.w3.org/1999/02/22-rdf-syntax-ns#" xmlns="http://www.w3.org/2000/svg" sodipodi:docname="connection.svg" height="512" width="512" version="1.1" xmlns:cc="http://creativecommons.org/ns#" xmlns:dc="http://purl.org/dc/elements/1.1/" inkscape:version="0.91 r13725" viewBox="0 0 512.00001 512.00001" xmlns:sodipodi="http://sodipodi.sourceforge.net/DTD/sodipodi-0.dtd">
	<sodipodi:namedview bordercolor="#666666" inkscape:pageshadow="2" inkscape:window-y="-8" pagecolor="#ffffff" inkscape:window-height="1017" inkscape:window-maximized="1" inkscape:zoom="0.35" inkscape:window-x="-8" showgrid="false" borderopacity="1.0" inkscape:current-layer="layer1" inkscape:cx="-126.42857" inkscape:cy="520" units="px" inkscape:window-width="1920" inkscape:pageopacity="0.0" inkscape:document-units="px"/>
	<g inkscape:label="Layer 1" inkscape:groupmode="layer" transform="translate(0 -540.36)">
		<path inkscape:connector-curvature="0" d="m260.55 1051.8c-21.028-3.7756-37.964-19.347-44.195-40.636-2.2903-7.8239-2.2887-21.127 0.003-29.011 5.5171-18.978 20.953-34.298 39.261-38.968l4.9027-1.2506 0.26013-47.546 0.26011-47.546-7.7766-1.7482c-8.4197-1.8928-17.833-5.9621-24.665-10.663l-4.3088-2.9646-59.926 59.932-59.926 59.932 2.7915 6.8924c2.2969 5.6712 2.8709 8.8457 3.2393 17.917 0.40373 9.9393 0.18826 11.796-2.1897 18.869-3.3863 10.072-7.7292 16.775-15.554 24.007-30.283 27.986-79.044 14.122-90.871-25.838-2.3621-7.9807-2.3665-22.06-0.009-30.066 10.725-36.426 53.222-51.94 84.614-30.889l6.5985 4.4248 59.017-59.017 59.017-59.017-3.501-5.473c-15.466-24.177-15.682-54.429-0.5679-79.488l4.118-6.8276-35.564-35.564-35.564-35.564-5.4296 2.0315c-7.8939 2.9535-13.793 3.585-20.515 2.1963-21.86-4.5163-34.972-25.94-28.588-46.712 10.107-32.885 54.585-35.702 69.138-4.3785 3.5518 7.6443 3.7192 21.126 0.3541 28.521l-2.2613 4.9697 35.825 35.835 35.825 35.835 3.0467-2.0104c13.48-8.8948 26.837-12.953 42.634-12.953 15.991 0 31.057 4.5874 41.953 12.774l3.3681 2.5306 45.999-45.986c32.169-32.16 45.811-46.438 45.374-47.49-5.1044-12.288-6.7593-26.235-4.4391-37.411 1.9212-9.2544 7.5904-19.396 15.006-26.845 11.043-11.093 24.018-16.348 40.15-16.261 15.006 0.0803 26.246 4.656 37.315 15.19 11.614 11.053 17.096 23.598 17.158 39.27 0.065 16.176-5.2052 29.162-16.274 40.103-11.213 11.083-23.344 16.02-39.36 16.02-11.403 0-22.019-3.2524-30.948-9.4817l-6.4752-4.5171-45.095 45.081c-39.813 39.8-44.952 45.286-43.868 46.837 12.18 17.425 16.852 38.658 12.851 58.405-1.7751 8.7604-6.7115 20.703-11.305 27.349l-2.6418 3.8227 35.89 35.9 35.89 35.9 4.6294-2.1399c3.7012-1.7108 6.5427-2.14 14.171-2.1406 8.7663-0.00069 10.087 0.26752 16.246 3.2995 8.0615 3.9687 14.862 11.239 18.004 19.249 3.3007 8.4137 3.1277 20.696-0.3982 28.28-13.596 29.244-53.581 29.709-67.352 0.7836-2.7847-5.849-3.0935-7.4353-3.0244-15.534 0.0601-7.0465 0.56412-10.104 2.3036-13.977l2.2266-4.9572-35.801-35.811-35.801-35.811-4.31 2.9654c-6.8333 4.7014-16.246 8.7706-24.666 10.664l-7.7766 1.7482 0.26011 47.546 0.26012 47.546 4.9431 1.2609c18.056 4.6057 33.782 20.16 39.136 38.709 2.1837 7.5657 2.1854 22.003 0.003 29.509-5.4604 18.783-19.778 33.303-38.41 38.952-6.0975 1.8487-18.4 2.564-24.686 1.4353z"/>
	</g>
</svg>
