<svg xmlns:rdf="http://www.w3.org/1999/02/22-rdf-syntax-ns#" xmlns="http://www.w3.org/2000/svg" height="512" width="512" version="1.1" xmlns:cc="http://creativecommons.org/ns#" xmlns:dc="http://purl.org/dc/elements/1.1/" viewBox="0 0 512.00001 512.00001">
	<g transform="translate(0 -540.36)">
		<path d="m243.02 1052.2c-58.206-3.4589-110.09-24.3-154.23-61.948-7.2568-6.1903-20.591-19.525-26.782-26.782-32.381-37.961-52.499-82.037-59.553-130.47-1.9168-13.163-2.4137-20.724-2.4137-36.727 0-16.002 0.49694-23.564 2.4137-36.727 9.6457-66.239 44.619-125.72 98.007-166.7 34.684-26.62 75.387-43.788 118.8-50.11 13.163-1.9168 20.724-2.4137 36.727-2.4137 16.002 0 23.564 0.49694 36.727 2.4137 66.239 9.6457 125.72 44.619 166.7 98.007 26.62 34.684 43.788 75.387 50.11 118.8 1.9168 13.163 2.4138 20.724 2.4138 36.727 0 16.002-0.49697 23.564-2.4138 36.727-9.6456 66.239-44.619 125.72-98.007 166.7-38.304 29.398-82.779 46.816-132 51.695-6.5125 0.6456-30.371 1.1755-36.507 0.8109zm29.469-38.909c75.255-5.3122 143.47-51.002 177.9-119.15 12.815-25.369 20.185-51.677 22.673-80.936 0.60231-7.0838 0.60231-26.784 0-33.868-2.4899-29.283-9.8559-55.563-22.7-80.99-30.636-60.645-88.747-104.22-155-116.23-21.63-3.9212-45.01-4.5328-67.295-1.7604-56.085 6.9772-108.74 37.171-144.12 82.645-23.517 30.225-39.209 67.909-43.866 105.34-2.2712 18.257-2.2712 37.603 0 55.86 8.7881 70.642 53.662 133.94 117.99 166.44 35.647 18.007 73.654 25.533 114.42 22.656zm-21.217-95.884c-27.317-2.8897-53.461-15.378-73.075-34.907-18.655-18.573-30.546-42.076-34.648-68.482-1.421-9.1488-1.421-26.351 0-35.5 5.3932-34.722 24.332-64.407 53.489-83.842 14.94-9.9578 31.911-16.346 51.04-19.21 6.2986-0.9434 26.783-0.8017 33.428 0.2312 21.42 3.3293 40.571 11.55 57.839 24.829 9.133 7.023 24.185 23.834 27.167 30.342 1.5961 3.4829 2.1461 7.3858 1.5397 10.926-1.4099 8.2309-7.6353 14.547-15.843 16.073-5.2389 0.9742-11.614-0.8021-15.511-4.3221-1.0352-0.9349-3.566-3.9527-5.6241-6.7062-17.77-23.774-46.211-36.402-75.361-33.46-28.182 2.8444-53.233 20.085-65.965 45.399-6.177 12.281-8.8632 23.644-8.8632 37.491 0 8.4066 0.70718 13.936 2.7718 21.672 3.871 14.505 12.486 28.901 23.33 38.985 37.607 34.972 96.47 28.639 125.7-13.525 3.7902-5.4682 5.4716-7.1165 9.0847-8.9062 5.9186-2.9318 11.541-2.966 17.373-0.1056 7.0002 3.4338 11.032 10.709 10.42 18.802-0.33167 4.3855-2.4394 8.6035-7.9304 15.87-20.742 27.45-49.909 44.208-83.857 48.179-5.9028 0.6905-20.665 0.7828-26.498 0.1656z"/>
	</g>
</svg>
