<svg xmlns:rdf="http://www.w3.org/1999/02/22-rdf-syntax-ns#" xmlns="http://www.w3.org/2000/svg" height="512" width="512" version="1.1" xmlns:cc="http://creativecommons.org/ns#" xmlns:dc="http://purl.org/dc/elements/1.1/" viewBox="0 0 512.00001 512.00001">
	<g transform="translate(0 -540.36)">
		<path d="m248.77 1049.4-3.27-2.9-0.5-59.6-0.5-59.62-18.5 16.15c-21.876 19.094-26.371 22.31-35 25.035-13.8 4.3589-29.934 1.9613-42.164-6.2658-2.9526-1.9863-22.039-21.933-47.149-49.272-61.207-66.64-66.745-72.79-68.268-75.73-0.758-1.46-8.363-36.92-16.9-78.79-16.069-78.83-17.182-86.16-14.17-93.33 1.998-4.7546 7.4672-9.5838 12.614-11.137 2.4938-0.75286 32.517-12.891 66.718-26.975 68.465-28.192 67.602-27.929 76.409-23.278 8.75 4.6212 7.9034 1.5338 27.36 99.779 9.65 48.73 17.55 89.81 17.55 91.28 0 6.2706-6.1418 11.042-12.397 9.6317-4.8123-1.0854-7.0261-3.1389-8.3972-7.7894-0.60548-2.0536-8.6163-41.759-17.802-88.234-9.1856-46.475-16.784-84.612-16.884-84.749-0.10091-0.13672-15.762 6.1633-34.803 14l-34.619 14.249 23.701 0.50627c20.548 0.43891 24.167 0.75345 27.201 2.3642 4.5167 2.3976 8.793 6.3912 10.649 9.9448 2.21 4.24 32.35 156.07 32.35 162.97 0 5.7314-1.5783 10.324-4.8163 14.014-1.4665 1.6712-1.1305 2.2369 4.8706 8.2006l6.4457 6.4056 43-38.546c23.65-21.2 45.7-40.577 49-43.059 7.832-5.8912 17.186-10.548 30.34-15.104l10.66-3.6922 71-0.2915c79.99-0.32841 78.794-0.41787 93.787 7.0174 11.297 5.6026 23.634 17.927 28.98 28.952 7.0448 14.528 6.7023 7.5107 6.7187 137.65l0.01 117.3-2.9231 2.9231-2.9231 2.9231h-127.06-127.06l-3.2658-2.9174zm131.73-137.12c51.7-65.444 94.607-119.86 95.348-120.92 1.1961-1.7108 1.0271-2.2086-1.5-4.4199-7.0647-6.1816-27.017-12.676-30.853-10.043-0.77107 0.52931-40.798 50.001-88.948 109.94l-87.55 108.97v17.774 17.774l9.75-0.047 9.75-0.047 94-118.99zm110.49 12.333c-0.006-58.712-0.29268-108.45-0.63695-110.54-0.34428-2.0832-0.96553-3.6582-1.3806-3.5-0.41504 0.15822-38.435 47.988-84.489 106.29-46.054 58.3-85.283 107.91-87.175 110.25l-3.4411 4.25h88.567 88.567l-0.011-106.75zm-149.45-56.25c39.479-49.225 72.233-90.086 72.786-90.803 0.8238-1.0673-7.9235-1.2377-48.411-0.94317-48.432 0.3523-49.556 0.40541-56.416 2.6668-10.785 3.5549-20.87 8.6772-27.296 13.864-3.2134 2.5935-26.213 22.94-51.111 45.215-24.897 22.275-46.241 41.047-47.431 41.715-3.1421 1.7647-8.7719 1.5384-11.722-0.47115-1.4076-0.95888-9.0048-8.3809-16.882-16.493l-14.323-14.75h-34.405-34.405l43.94 47.82c41.773 45.462 44.248 47.958 50.191 50.625 5.2363 2.3499 7.1707 2.7217 11.92 2.2911 3.1179-0.28272 7.4375-1.4163 9.599-2.519 2.1616-1.1028 17.156-13.519 33.321-27.593 30.587-26.629 32.584-27.964 38.739-25.912 1.5086 0.50285 3.6702 2.1555 4.8037 3.6726 1.9597 2.623 2.0752 4.2603 2.3531 33.359 0.24447 25.601 0.51077 30.368 1.6299 29.179 0.73573-0.78214 33.639-41.697 73.118-90.922zm-191.15-44.75c-0.30817-1.5125-7.1594-35.6-15.225-75.75l-14.665-73-49.25-0.25942c-39.059-0.20575-49.254 0.001-49.269 1-0.01037 0.69268 6.8278 34.897 15.196 76.009l15.215 74.75h49.279 49.279l-0.56032-2.75zm223.72-89.795c-14.08-3.0547-24.482-7.775-35.043-15.902-14.755-11.354-25.657-28.849-29.323-47.054l-1.4097-7-15.419-0.5c-9.7109-0.31491-16.237-0.9677-17.628-1.7634-3.8799-2.2188-7.5073-7.9792-8.0486-12.782-0.92913-8.2432 1.2684-11.158 18.952-25.139 8.71-6.88 15.82-12.89 15.82-13.37 0-0.48172-6.4225-8.4285-14.272-17.66-18.504-21.761-19.365-22.938-20.732-28.38-2.0531-8.1688 1.9967-17.353 9.5344-21.622 2.9587-1.6758 5.6002-2.253 10.367-2.2652 8.0673-0.0208 176.46 17.789 179.65 18.999 1.2947 0.49225 3.165 2.1339 4.1563 3.6482 1.6738 2.557 1.8023 6.2132 1.8023 51.295 0 43.545-0.18853 49.345-1.8317 56.352-9.1443 38.993-41.93 64.974-81.529 64.61-4.7517-0.0437-11.514-0.70304-15.027-1.4651zm31.092-22.004c21.108-5.1319 39.708-24.132 44.253-45.202l0.70098-3.25h-60.099-60.098l0.65719 2.75c2.885 12.072 9.3683 23.245 18.27 31.487 15.016 13.903 35.909 19.176 56.316 14.215zm45.8-79.46v-10h-64.113-64.113l-11.637 9.182c-6.4002 5.0501-12.064 9.5501-12.587 10-0.5225 0.44992 33.565 0.81804 75.75 0.81804h76.7v-10zm0-42.345v-11.345l-21.75-2.281c-11.962-1.2546-48.075-5.0807-80.25-8.5025s-58.575-6.1772-58.667-6.1231 7.333 8.9737 16.5 19.821l16.667 19.723 63.75 0.0264 63.75 0.0264v-11.345z"/>
	</g>
</svg>
