<svg xmlns:rdf="http://www.w3.org/1999/02/22-rdf-syntax-ns#" xmlns="http://www.w3.org/2000/svg" height="512" width="512" version="1.1" xmlns:cc="http://creativecommons.org/ns#" xmlns:dc="http://purl.org/dc/elements/1.1/" viewBox="0 0 512.00001 512.00001">
	<g transform="translate(0 -540.36)">
		<path d="m191.87 978.04c-10.454-3.4138-17.674-9.6045-23.009-19.729-2.5744-4.8848-2.8687-6.514-2.8694-15.884-0.00071-9.2731 0.31983-11.094 2.8651-16.277 11.657-23.737 42.788-28.479 60.768-9.2572 7.523 8.0427 9.4525 13.148 9.4534 25.012 0.00067 8.5365-0.38276 10.737-2.7506 15.787-6.1693 13.157-17.648 20.843-32.033 21.448-4.895 0.20583-9.7403-0.22293-12.424-1.0994zm19.478-9.5888c3.9581-1.1754 6.9416-3.0479 10.456-6.5625 13.974-13.974 9.883-36.629-8.1439-45.102-3.8664-1.8174-6.2366-2.1639-12.772-1.8671-7.3181 0.33233-8.5392 0.71865-13.864 4.3861-15.176 10.452-16.376 32.108-2.4404 44.036 7.3893 6.325 16.691 8.1008 26.765 5.1093zm173.68 9.5888c-10.446-3.4114-18.175-10.09-23.311-20.145-2.2219-4.3494-2.5682-6.4356-2.5682-15.469 0-9.3169 0.31415-11.081 2.9175-16.382 6.2258-12.678 19.5-20.947 33.627-20.947s27.401 8.2689 33.627 20.947c2.5723 5.2381 2.9175 7.1149 2.9175 15.86 0 8.5355-0.38381 10.738-2.7514 15.787-6.1693 13.157-17.648 20.843-32.033 21.448-4.895 0.20583-9.7403-0.22293-12.424-1.0994zm19.478-9.5888c10.919-3.2427 18.869-14.63 18.845-26.994-0.0192-9.9707-7.6855-21.084-17.322-25.11-5.3369-2.2299-16.606-2.0265-21.822 0.39385-13.874 6.4375-20.195 24.013-13.481 37.485 6.3774 12.798 19.698 18.407 33.78 14.225zm-287.34-21.41c-10.329-2.4344-18.764-9.2406-23.115-18.652-1.9982-4.3218-2.2443-7.1599-2.7206-31.377-0.28802-14.644-0.3766-41.801-0.19684-60.35l0.32683-33.725 2.5403-1.1574c2.0744-0.94513 2.924-0.81009 4.6327 0.73625 2.0018 1.8116 2.0925 3.1994 2.0925 32.011v30.118h116.69c73.105 0 118.02-0.38229 120.26-1.0236 5.5119-1.5808 9.2205-5.8024 10.496-11.948 0.74905-3.6082 1.0179-34.777 0.82486-95.643-0.26645-84.031-0.41418-90.524-2.1312-93.666-3.5506-6.4969-5.8894-7.0278-32.592-7.3994-14.763-0.2054-24.505-0.75679-25.32-1.433-2.0594-1.7091-1.5823-5.8525 0.82192-7.1392 1.4405-0.77091 10.282-1.0405 26.886-0.81983 21.754 0.28915 25.181 0.56411 28.394 2.2782 5.1341 2.7386 8.1991 5.7402 10.804 10.58 2.155 4.0043 2.261 5.6473 2.5706 39.851l0.32294 35.674 33.611 0.44038c32.495 0.42575 33.93 0.53161 43.233 3.1894 17.572 5.0206 34.023 14.605 46.781 27.256 13.01 12.901 21.31 27.469 26.227 46.04 2.7102 10.235 2.7716 11.205 3.2513 51.319 0.64775 54.171-0.50914 62.008-10.846 73.471-8.9965 9.9772-27.528 14.145-27.528 6.1904 0-2.2482 3.2841-5.1709 5.8249-5.1838 4.3283-0.022 12.849-5.0626 16.067-9.5044 6.2731-8.6597 6.4591-10.56 6.0399-61.697-0.42632-52.011-0.41-51.879-8.5534-69.222-8.7027-18.535-23.191-32.876-42.871-42.434-18.158-8.8191-22.238-9.5103-59.254-10.038l-32.107-0.45795v53.684c0 59.31-0.16514 61.052-6.4717 68.234-1.7873 2.0357-5.1736 4.7307-7.525 5.989l-4.2753 2.2878-119.55 0.52206-119.55 0.52206v23.493c0 22.057 0.13732 23.748 2.2473 27.669 4.0505 7.5277 10.789 11.402 22.026 12.662 3.3033 0.37057 6.5934 1.1371 7.3112 1.7034 1.6581 1.3081 1.6878 5.1942 0.0522 6.8298-1.4276 1.4276-9.8946 1.4919-15.718 0.11938zm160.02-1.2434c-1.7057-0.87503-2.6103-2.2224-2.6103-3.8878 0-4.5543 3.247-5.1884 26.654-5.2052 17.727-0.0127 21.834 0.26571 23.754 1.61 2.9278 2.0507 2.9744 5.1071 0.10835 7.1146-3.0099 2.1082-43.901 2.4227-47.906 0.36842zm118.02-98.834c-0.67269-1.257-1.0808-13.283-1.0808-31.846 0-36.464-0.743-34.63 13.657-33.697 24.826 1.6084 42.091 11.621 50.434 29.249 6.0405 12.762 9.8891 33.156 6.9298 36.721-1.1341 1.3665-6.1038 1.592-35.091 1.592-32.318 0-33.816-0.0868-34.85-2.0196zm60.21-12.337c-0.99045-8.1399-4.6179-18.283-8.9181-24.936-4.6663-7.2197-10.939-11.819-20.367-14.933-6.8365-2.2579-20.316-4.4949-21.749-3.6095-1.0187 0.62957-1.1763 46.728-0.16326 47.741 0.38283 0.38284 12.195 0.69608 26.248 0.69608h25.552l-0.60347-4.9596zm-321.25-49c-12.27-5.1429-19.785-15.167-20.676-27.579-0.6085-8.4763 1.231-12.912 8.2968-20.005 2.717-2.7278 4.3751-4.9847 3.6846-5.0155-0.69048-0.0308-11.357-0.15679-23.704-0.28004-25.132-0.25088-27.568-0.79173-34.652-7.6948-6.4285-6.2639-8.662-12.667-8.6709-24.859-0.0065-8.8385 0.35301-11.116 2.3417-14.837 1.2921-2.4178 2.3493-4.8845 2.3493-5.4816 0-0.71315-6.8972-1.0936-20.099-1.1086-23.1-0.03-25.527-0.66-32.669-8.44-5.1223-5.58-8.4492-12.2-9.8563-19.62-2.6342-13.89 5.0611-29.15 17.635-34.96 4.7625-2.2028 5.3228-2.2164 91.454-2.2164h86.662l8.353 2.9516c14.365 5.0759 22.186 9.8442 31.977 19.495 4.9536 4.8825 10.41 10.992 12.126 13.576 13.952 21.013 17.808 53.269 9.485 79.353-2.403 7.5314-9.3161 21.551-12.148 24.635-1.005 1.0946-3.1742 3.7696-4.8204 5.9444-7.512 9.9238-29.691 23.799-42.885 26.829-2.8713 0.65935-16.967 1.4116-31.324 1.6717l-26.103 0.47286-6.7558-2.8316zm61.05-8.7527c13.451-3.523 25.844-10.726 35.355-20.547 7.1776-7.4119 8.9527-9.8978 13.749-19.255 4.7972-9.3579 7.7174-20.271 8.494-31.743 2.2187-32.779-13.574-61.94-40.621-75.008-16.695-8.066-16.054-8.0201-107.39-7.6853-88.78 0.32541-82.728-0.18314-89.491 7.5194-7.7567 8.8344-7.1637 22.701 1.4051 32.853 5.4416 6.447 4.8525 6.3838 59.499 6.3838 32.261 0 50.406 0.37922 51.717 1.0808 2.1482 1.1497 2.6336 4.6823 0.99927 7.2721-0.81967 1.2989-5.3821 1.6553-26.731 2.0882l-25.743 0.52206-3.4039 3.9406c-6.4191 7.4312-7.4135 18.708-2.5199 28.577 1.3977 2.8187 4.0878 6.1116 6.0609 7.419 3.4848 2.309 4.1121 2.3508 35.308 2.3508 19.896 0 32.514 0.40375 33.779 1.0808 1.288 0.6893 2.0196 2.184 2.0196 4.1259 0 2.6244-1.0122 3.6998-7.327 7.7849-14.791 9.5684-19.217 16.248-16.775 25.317 2.44 9.0613 8.8176 14.817 17.823 16.087 8.0153 1.1296 49.329 1.0049 53.786-0.16239z"/>
	</g>
</svg>
