<svg xmlns:inkscape="http://www.inkscape.org/namespaces/inkscape" xmlns:rdf="http://www.w3.org/1999/02/22-rdf-syntax-ns#" xmlns="http://www.w3.org/2000/svg" sodipodi:docname="discount.svg" height="512" width="512" version="1.1" xmlns:cc="http://creativecommons.org/ns#" xmlns:dc="http://purl.org/dc/elements/1.1/" inkscape:version="0.91 r13725" viewBox="0 0 512.00001 512.00001" xmlns:sodipodi="http://sodipodi.sourceforge.net/DTD/sodipodi-0.dtd">
	<sodipodi:namedview bordercolor="#666666" inkscape:pageshadow="2" inkscape:window-y="-8" pagecolor="#ffffff" inkscape:window-height="1017" inkscape:window-maximized="1" inkscape:zoom="0.35" inkscape:window-x="-8" showgrid="false" borderopacity="1.0" inkscape:current-layer="layer1" inkscape:cx="-126.42857" inkscape:cy="520" units="px" inkscape:window-width="1920" inkscape:pageopacity="0.0" inkscape:document-units="px"/>
	<g inkscape:label="Layer 1" inkscape:groupmode="layer" transform="translate(0 -540.36)">
		<path inkscape:connector-curvature="0" d="m198.2 1051.5c-3.2723-0.4772-8.9256-2.2514-12.563-3.9425-6.1712-2.8695-12.335-8.7963-92.246-88.708-79.714-79.714-85.842-86.085-88.65-92.166-6.2286-13.485-6.0982-27.467 0.37951-40.703 3.2557-6.67 10.929-14.56 137.92-141.87 131.62-131.95 134.64-134.89 142.02-138.43 4.3224-2.0734 10.539-4.092 14.573-4.7322 7.8953-1.253 3.7587-1.8813 86.432 13.129 15.477 2.8101 37.186 6.7331 48.241 8.7179 24.656 4.4266 30.065 6.6059 39.289 15.83 7.8252 7.8252 11.47 15.261 13.839 28.234 0.9085 4.9748 3.6854 20.352 6.1707 34.171 5.6986 31.685 8.6441 47.926 12.486 68.844 6.2086 33.808 6.4052 35.478 5.0918 43.264-0.688 4.0792-2.7332 10.214-4.7819 14.344-3.4042 6.8627-10.17 13.796-138.09 141.5-146.03 145.78-138.76 139.04-153.33 142.13-7.5232 1.5943-8.2317 1.6096-16.774 0.364zm-11.9-116.28c2.7475-1.7578 6.2991-7.3251 6.2991-9.8742 0-1.0584-5.3489-7.2388-12.265-14.172l-12.265-12.295 7.8514-8.068c5.3711-5.5193 7.6582-8.5714 7.24-9.6613-0.33626-0.87629-0.61139-1.9468-0.61139-2.379 0-0.43218-1.1923-1.9781-2.6496-3.4354-4.3655-4.3655-7.0308-3.583-14.938 4.3855-3.8397 3.8693-7.4578 7.0352-8.0402 7.0352-0.58241 0-4.2031-3.1685-8.0461-7.0411l-6.9872-7.0411 12.29-12.32c14.058-14.092 14.691-15.62 8.8734-21.437-6.1438-6.1438-6.9224-5.7264-27.021 14.485-14.972 15.056-17.802 18.372-17.799 20.854 0.003 2.5264 4.2653 7.2181 29.587 32.565 16.271 16.287 30.403 29.906 31.404 30.263 2.0231 0.7218 3.7436 0.2684 7.0786-1.8652zm46.611-46.533c3.1697-2.257 5.9188-6.7564 5.9188-9.6869 0-1.0042-4.9749-6.7853-11.055-12.847-6.0804-6.0615-11.055-11.515-11.055-12.119 0-0.60402 1.0936-2.1256 2.4302-3.3812l2.4302-2.283 19.225 6.085c20.792 6.5807 22.452 6.689 25.735 1.6786 0.92685-1.4146 1.9017-4.4928 2.1663-6.8406 0.78812-6.9921-0.93366-8.2177-18.722-13.326-8.5057-2.4427-15.628-4.6043-15.827-4.8035-0.19921-0.1992 0.15035-1.8324 0.77679-3.6294 2.7265-7.8212-1.1237-18.217-9.6616-26.087-9.3072-8.5791-18.754-10.373-28.708-5.4513-6.6414 3.2837-33.121 28.815-33.115 31.929 0.002 1.2417 11.253 13.244 30.384 32.412 33.012 33.077 32.729 32.872 39.078 28.351zm-36.787-54.185-7.9859-8.033 4.9322-5.0075c8.4998-8.6296 13.094-9.6447 18.965-4.1904 3.9979 3.714 5.8582 7.6576 5.0782 10.765-0.61233 2.4397-10.872 14.499-12.335 14.499-0.368 0-4.2627-3.6148-8.655-8.033zm105.58-14.329c13.665-13.52 18.538-18.967 18.538-20.721-0.00045-3.146-7.0283-10.183-10.17-10.183-1.6887 0-6.0346 3.6609-15.188 12.794l-12.823 12.794-7.5198-7.4696-7.5197-7.4696 7.5144-7.7218c4.3654-4.4859 7.5144-8.5801 7.5144-9.7701 0-3.5193-4.7846-8.2327-8.3571-8.2327-2.569 0-4.508 1.3457-10.463 7.2612l-7.31 7.2612-7.5433-7.4929-7.5433-7.4929 12.568-12.596c14.361-14.393 14.987-15.878 9.1513-21.714-6.1874-6.1874-6.9085-5.7938-27.546 15.036-15.118 15.259-18.283 18.949-18.283 21.319 0 2.4177 4.6861 7.5446 29.982 32.803 26.89 26.85 30.316 29.937 33.221 29.937 2.8526 0 5.448-2.186 21.777-18.342zm48.23-48.241c13.879-13.715 18.559-18.951 18.555-20.759-0.009-3.8736-4.5394-8.9568-8.6731-9.7322-3.5481-0.66563-3.804-0.47634-16.557 12.249l-12.954 12.925-7.0414-6.9874c-3.8728-3.8431-7.0414-7.464-7.0414-8.0464 0-0.58241 3.1658-4.2005 7.0351-8.0402 8.2742-8.2108 8.9611-10.962 3.9138-15.677-1.7167-1.6037-4.03-2.9158-5.1405-2.9158-1.1588 0-5.4066 3.2964-9.9694 7.7367l-7.9502 7.7367-7.0097-6.956c-3.8553-3.8258-7.0097-7.399-7.0097-7.9404 0-0.54147 5.6532-6.698 12.563-13.681 6.9095-6.9831 12.561-13.336 12.559-14.118-0.0123-4.634-8.045-11.74-11.891-10.519-3.1941 1.0138-37.151 36.038-37.914 39.106-0.6761 2.719 0.9191 4.5067 29.818 33.417 25.471 25.482 30.997 30.544 33.34 30.544 2.2932 0 6.2099-3.3618 21.369-18.342zm50.207-69.289c10.314-2.5526 21.561-12.156 26.262-22.423 9.9394-21.711-0.29868-47.155-22.491-55.895-4.5421-1.7889-7.8271-2.2829-15.329-2.3052-8.648-0.0257-10.184 0.27047-16.305 3.1435-26.736 12.55-32.924 45.796-12.407 66.658 10.667 10.847 24.812 14.648 40.27 10.823zm-15.63-30c-3.3633-1.2978-5.9871-5.8932-5.9871-10.486 0-5.5997 4.3849-9.5666 10.575-9.5666 3.961 0 5.1572 0.49034 7.615 3.1214 7.7702 8.318-1.4326 21.087-12.203 16.931z"/>
	</g>
</svg>
