<svg xmlns:rdf="http://www.w3.org/1999/02/22-rdf-syntax-ns#" xmlns="http://www.w3.org/2000/svg" height="512" width="512" version="1.1" xmlns:cc="http://creativecommons.org/ns#" xmlns:dc="http://purl.org/dc/elements/1.1/" viewBox="0 0 512.00001 512.00001">
	<g transform="translate(0 -540.36)">
		<path d="m232.64 1051.6c-48.48-5-93.31-22.4-130.64-50.6-89.643-67.86-124.63-184.85-87.118-291.33 12.008-34.085 33.545-67.941 60.138-94.534 39.584-39.584 90.256-64.774 146.61-72.881 16.59-2.3869 52.506-2.3869 69.096 0 56.35 8.1072 107.02 33.297 146.61 72.881 39.584 39.584 64.774 90.256 72.881 146.61 2.3869 16.59 2.3869 52.506 0 69.096-8.1072 56.35-33.297 107.02-72.881 146.61-38.955 38.955-88.679 64.038-143.29 72.282-15.425 2.3284-47.46 3.3013-61.394 1.8645zm43.561-30.044c58.294-5.3227 114.58-34.883 152.44-80.055 58.044-69.257 69.999-163.92 30.728-243.3-22.83-46.21-58.97-82.32-105.26-105.23-79.19-39.19-173.94-27.18-243.14 30.81-55.103 46.18-85.703 117.91-80.301 188.24 9.658 125.73 121.14 220.84 245.53 209.44zm-23.76-75.11c-8.3588-1.8834-11.291-6.8877-11.291-19.271v-8.4641l-6.9644-1.1501c-29.126-4.8101-55.316-21.895-65.525-42.746-5.3444-10.915-7.2537-25.436-4.1368-31.464 3.6428-7.0443 12.058-9.6844 19.864-6.2316 5.4757 2.4221 7.3331 5.5869 8.6224 14.691 1.1612 8.1998 4.2954 13.702 11.618 20.394 7.6647 7.0051 19.428 12.44 33.769 15.602l2.7538 0.6072v-39.073c0-21.49-0.24431-39.073-0.54292-39.073-2.0977 0-17.153-3.4786-22.489-5.1961-19.671-6.3317-38.309-19.967-47.012-34.393-9.7847-16.218-10.71-36.12-2.4629-52.963 10.228-20.887 36.395-37.968 65.543-42.781l6.9644-1.1501v-8.6311c0-13.581 4.4759-19.346 15.021-19.346s15.021 5.7646 15.021 19.346v8.6311l6.9644 1.1501c40.596 6.7043 71.16 34.929 71.141 65.696-0.008 12.929-9.9219 19.796-21.308 14.76-5.5131-2.4387-7.3653-5.5852-8.657-14.707-1.1612-8.1997-4.2954-13.702-11.618-20.394-7.6647-7.0051-19.428-12.44-33.769-15.602l-2.7538-0.60718v39.073c0 21.49 0.24431 39.073 0.54291 39.073 0.29861 0 4.0163 0.69771 8.2615 1.5505 27.227 5.4693 50.189 19.733 61.24 38.041 9.7844 16.21 10.71 36.117 2.4629 52.96-10.228 20.888-36.395 37.968-65.543 42.781l-6.9644 1.1501v8.631c0 6.5036-0.45989 9.4913-1.8657 12.12-3.0157 5.6401-10.01 8.5328-16.885 6.9836zm29.742-60.755c15.045-4.1387 29.417-14.382 34.506-24.596 6.2504-12.543 0.82058-26.29-14.375-36.394-7.4463-4.9515-19.39-9.8976-26.459-10.958l-4.6628-0.69923v37.685 37.685l2.7538-0.6072c1.5146-0.3339 5.2212-1.2859 8.2369-2.1155zm-41.032-144.04v-37.571l-2.7538 0.60718c-20.754 4.5761-36.668 14.521-42.743 26.712-6.1537 12.349-0.91279 26.049 13.785 36.035 8.6592 5.8834 22.507 11.378 29.459 11.688l2.2531 0.10059v-37.571z"/>
	</g>
</svg>
