<svg xmlns:rdf="http://www.w3.org/1999/02/22-rdf-syntax-ns#" xmlns="http://www.w3.org/2000/svg" height="512" width="512" version="1.1" xmlns:cc="http://creativecommons.org/ns#" xmlns:dc="http://purl.org/dc/elements/1.1/" viewBox="0 0 512.00001 512.00001">
	<g transform="translate(0 -540.36)">
		<path d="m250.84 1051.2c-5.6558-1.8159-13.316-8.3781-16.307-13.969-2.0506-3.8336-2.2477-5.7715-2.5471-25.041-0.17848-11.487-0.57451-20.886-0.88007-20.886-0.30557 0-6.0478-1.1172-12.76-2.4827-31.39-6.3853-60.779-19.86-84.596-38.787-15.057-11.965-19.142-17.484-20.312-27.44-1.9215-16.349 12.108-32.07 28.594-32.04 9.7738 0.0172 13.66 1.8577 24.351 11.533 10.994 9.9488 27.813 19.265 45.371 25.13 5.7704 1.9276 12.643 3.8252 15.273 4.2169l4.7811 0.712v-61.88-61.881l-6.7941-2.2888c-12.339-4.1568-30.037-12.068-39.479-17.648-33.414-19.745-51.016-46.317-54.391-82.113-2.803-29.723 5.5842-54.534 25.175-74.474 16.433-16.726 39.59-28.601 66.192-33.945l8.7948-1.7666 0.51726-18.074c0.59481-20.783 1.3748-23.251 9.653-30.538 14.299-12.586 37.286-7.922 45.6 9.2527 2.0397 4.2135 2.2856 6.3333 2.4387 21.021l0.17029 16.335 3.5229 0.71711c1.9376 0.3944 8.7317 1.6994 15.098 2.9 15.464 2.9162 36.262 9.8296 49.824 16.562 13.367 6.6352 17.26 9.7216 21.171 16.782 3.9603 7.1503 4.256 17.911 0.69122 25.146-3.1651 6.4242-8.6419 11.769-15.078 14.716-4.5168 2.0679-6.557 2.4136-12.145 2.0582-5.6436-0.35889-8.5662-1.3345-18.292-6.1063-11.338-5.563-22.825-9.446-36.575-12.365-3.7854-0.80343-7.2957-1.2054-7.8007-0.89334-0.53512 0.33071-0.91813 23.646-0.91813 55.889v55.322l2.2647 0.91251c1.2456 0.50187 7.7 2.7947 14.343 5.0952 15.054 5.2131 34.203 14.313 45.193 21.477 33.197 21.639 49.657 54.948 47.575 96.276-2.5347 50.323-38.499 87.162-97.323 99.69-5.7988 1.235-10.876 2.7498-11.283 3.3662-0.40673 0.6165-0.74643 9.8545-0.75491 20.529-0.0169 21.126-0.45314 23.343-5.9663 30.304-4.6351 5.8523-12.16 9.4321-20.655 9.8267-4.3924 0.204-8.881-0.2371-11.734-1.1533zm50.241-122.88c18.275-6.1348 29.91-15.041 35.643-27.285 2.6916-5.7484 3.2768-8.3366 3.6122-15.976 1.0669-24.298-8.286-38.532-33.341-50.744-6.7536-3.2917-13.525-6.279-15.047-6.6385l-2.768-0.65363v51.275c0 28.201 0.30196 51.577 0.67103 51.946 1.1288 1.1288 3.1919 0.7756 11.23-1.9227zm-69.27-227.95c0-24.912-0.11323-45.288-0.25164-45.281-0.13839 0.008-3.1462 0.9203-6.6841 2.0292-16.478 5.165-29.015 14.33-33.333 24.369-4.5433 10.561-3.6212 25.182 2.2908 36.323 4.3313 8.1625 13.835 16.557 25.74 22.738 5.3469 2.7757 10.288 5.0625 10.98 5.0817 0.98842 0.0274 1.2582-9.6764 1.2582-45.259z"/>
	</g>
</svg>
