<svg xmlns:rdf="http://www.w3.org/1999/02/22-rdf-syntax-ns#" xmlns="http://www.w3.org/2000/svg" height="512" width="512" version="1.1" xmlns:cc="http://creativecommons.org/ns#" xmlns:dc="http://purl.org/dc/elements/1.1/" viewBox="0 0 512.00001 512.00001">
	<g transform="translate(0 -540.36)">
		<path d="m387.84 1049.9c-16.997-2.7824-33.712-10.014-47.982-20.76-28.801-21.688-45.004-59.033-41.049-94.607 1.6045-14.43 4.2688-23.599 10.651-36.657 14.251-29.158 41.653-50.454 73.544-57.158 11.46-2.4087 31.54-2.4087 43 0 31.891 6.7033 59.293 27.999 73.544 57.158 6.3824 13.058 9.0466 22.228 10.651 36.657 2.1699 19.514-1.3044 38.219-10.651 57.343-11.759 24.058-31.237 41.887-56.963 52.139-15.949 6.3558-37.634 8.6872-54.746 5.886zm22.592-16.445c0.95551-1.0558 9.3464-12.193 18.646-24.75 17.686-23.88 18.961-26.425 15.271-30.502-1.4002-1.5472-3.2479-1.8287-12-1.8287h-10.345v-31-31h10.171c11.519 0 13.835-1.0733 13.82-6.405-0.007-2.4312-3.6355-7.992-16.918-25.925-9.3-12.557-17.691-23.694-18.646-24.75-2.2743-2.513-7.5804-2.513-9.8546 0-0.95551 1.0558-9.3464 12.193-18.646 24.75-17.686 23.88-18.961 26.425-15.271 30.502 1.4002 1.5472 3.2479 1.8287 12 1.8287h10.345v31 31h-10.171c-11.519 0-13.835 1.0733-13.82 6.405 0.007 2.4312 3.6355 7.992 16.918 25.925 9.3 12.557 17.691 23.694 18.646 24.75 1.0214 1.1287 3.0518 1.9197 4.9273 1.9197 1.8756 0 3.9059-0.791 4.9273-1.9197zm-179.93-23.7c-26.594-2.6591-54.724-8.1464-82.367-16.067-8.4517-2.4218-15.539-4.4032-15.75-4.4032-0.2108 0-0.37736-20.138-0.37013-44.75 0.0118-40.04 0.21318-45.719 1.9137-53.96 2.0285-9.8295 6.815-21.938 12.243-30.969 10.416-17.332 28.784-32.499 48.1-39.716 13.951-5.213 18.786-5.7558 56.23-6.3118 49.912-0.74112 65.533 1.1508 83.251 10.083l6.6629 3.359-3.4568 1.7722c-1.9012 0.97469-3.6818 2.0966-3.9568 2.4931-0.275 0.39651-1.9864 1.4827-3.8032 2.4136-1.8168 0.93099-4.1223 2.4563-5.1234 3.3895-1.0011 0.93325-3.3113 2.8218-5.1338 4.1968-4.338 3.2729-18.882 17.834-21.44 21.465-1.1 1.5616-2.7875 3.6708-3.75 4.687s-1.4125 1.8546-1 1.863c0.4125 0.008 0.23835 0.34592-0.387 0.75s-1.9754 2.1566-3 3.8944c-6.4885 11.005-8.2001 14.245-9.2931 17.59-0.67378 2.0625-1.5901 3.75-2.0362 3.75-0.44614 0-1.1195 1.6875-1.4964 3.75-0.37689 2.0625-1.2793 4.6738-2.0053 5.803s-2.1552 5.8542-3.176 10.5c-2.6922 12.252-2.6922 51.642 0 63.894 1.0208 4.6458 2.45 9.3708 3.176 10.5s1.6284 3.7405 2.0053 5.803 1.0503 3.75 1.4964 3.75c0.44614 0 1.3462 1.6875 2.0002 3.75 0.65395 2.0625 1.8242 4.7625 2.6006 6l1.4116 2.25-20.273-0.115c-11.16 0-26.13-0.7-33.28-1.4zm-132-77.57c-27.842-2.66-67.032-10.81-93.812-19.51l-4.8121-1.56 0.38024-46.65c0.43657-53.56 0.6424-55.12 9.6811-73.65 12.759-26.15 34.146-43.76 62.839-51.74 7.2377-2.013 10.438-2.1716 50.829-2.5184l43.105-0.37008 0.66396 6.4807c1.9896 19.42 12.581 42.779 24.524 54.088 1.706 1.6154 3.1018 3.2317 3.1018 3.5917 0 0.36005-1.9125 1.2225-4.25 1.9166-19.519 5.7958-44.207 24.584-56.937 43.33-6.1604 9.0716-13.402 25.082-16.384 36.224-2.3705 8.8571-2.7336 12.371-3.1769 30.75l-0.50055 20.75-3.1258-0.13515c-1.71-0.07-7.17-0.51-12.12-0.99zm411.5-69.79c0-1.1507-16.414-17.68-20.929-21.076-1.8281-1.375-4.1429-3.2636-5.1441-4.1968-1.0011-0.93325-3.3067-2.4585-5.1234-3.3895-1.8168-0.93099-3.5282-2.0028-3.8032-2.3819-1.2676-1.7472-21.52-11.284-26.49-12.474-1.6445-0.39384-3.2195-1.0664-3.5-1.4945-0.28051-0.42814-5.685-1.7466-12.01-2.9299-16.258-3.0416-41.726-3.0244-58.25 0.0392-6.4625 1.1982-11.75 2.5496-11.75 3.0031 0 1.8343-3.6875 0.61181-9.4303-3.1263-6.5322-4.2519-21.337-11.466-25.82-12.582-3.2907-0.81881-3.4166-1.5542-0.6885-4.0231 5.5312-5.0056 15.094-20.223 19.445-30.944 2.3739-5.8494 5.4765-19.382 5.5023-24 0.0123-2.2 0.39994-4.5956 0.86149-5.3236 0.67966-1.072 8.2327-1.2504 39.735-0.93843 35.99 0.35636 39.473 0.54506 46.62 2.526 28.655 7.9423 50.078 25.581 62.839 51.736 7.7172 15.818 9.1007 22.937 9.669 49.75 0.34454 16.256 0.1662 22.75-0.62478 22.75-0.6-0.01-1.1-0.42-1.1-0.93zm-265.63-55.51c-36.789-8.3838-61.007-40.158-59.088-77.525 1.0183-19.827 8.7693-36.688 23.171-50.404 14.372-13.688 36.199-21.657 55.551-20.281 33.246 2.363 59.818 24.327 68.592 56.697 2.6134 9.6425 2.4189 27.183-0.413 37.234-7.105 25.216-25.504 44.516-50.012 52.459-9.599 3.1111-28.206 4.0072-37.801 1.8206zm-125.98-76.58c-29.768-4.0671-53.38-24.455-62.524-53.986-3.3081-10.683-3.3303-29.063-0.04876-40.455 7.1786-24.921 25.051-43.155 50.685-51.709 6.0494-2.0188 8.9691-2.336 21.5-2.336s15.451 0.31723 21.5 2.336c31.141 10.392 50.987 35.463 53.177 67.179l0.58813 8.5151-5.5871 4.7732c-12.194 10.417-23.564 29.273-27.843 46.173-2.0793 8.2116-2.3947 8.7666-6.2624 11.019-11.833 6.8906-30.806 10.456-45.185 8.4914zm256.38 0.004c-6.9536-0.84887-11.261-1.9716-18.46-4.812-3.9462-1.5568-4.2279-1.9374-4.8654-6.5723-1.6486-11.987-7.2384-26.015-14.941-37.495-5.0696-7.5561-16.534-19.161-23.375-23.661l-4.3702-2.8748 0.61306-5.8654c2.6528-25.38 17.456-47.51 39.512-59.07 12.847-6.7333 18.914-8.1394 35.116-8.1394 12.531 0 15.451 0.31723 21.5 2.336 25.634 8.5545 43.507 26.788 50.685 51.709 3.2815 11.392 3.2594 29.772-0.0488 40.455-11.2 36.167-44.789 58.456-81.365 53.991z"/>
	</g>
</svg>
