<?xml version="1.0" encoding="UTF-8" standalone="no"?>
<svg xmlns:rdf="http://www.w3.org/1999/02/22-rdf-syntax-ns#" xmlns="http://www.w3.org/2000/svg" height="512" width="512" version="1.1" xmlns:cc="http://creativecommons.org/ns#" xmlns:dc="http://purl.org/dc/elements/1.1/" viewBox="0 0 512.00001 512.00001">
	<g transform="translate(0 -540.36)">
		<path d="m247.5 939.02c-2.2-0.72902-5.35-2.0466-7-2.9279-1.65-0.88-55.48-54.16-119.63-118.41-129.66-129.87-120.42-119.58-120.32-133.82 0.061179-9.1969 2.9733-15.81 9.8088-22.275 2.8328-2.6791 7.3992-5.7383 10.148-6.7982 4.8821-1.8827 10.3-1.9271 235.5-1.9271s230.61 0.0443 235.5 1.9271c2.7484 1.0599 7.3148 4.1191 10.148 6.7982 6.8354 6.4647 9.7476 13.078 9.8088 22.275 0.0947 14.239 9.3985 3.9005-120.78 134.22-127.88 128.01-120.38 121.15-133.17 121.91-3.3266 0.19868-7.7827-0.23227-10-0.96712z"/>
	</g>
</svg>
