<svg xmlns:rdf="http://www.w3.org/1999/02/22-rdf-syntax-ns#" xmlns="http://www.w3.org/2000/svg" height="512" width="512" version="1.1" xmlns:cc="http://creativecommons.org/ns#" xmlns:dc="http://purl.org/dc/elements/1.1/" viewBox="0 0 511.99999 511.99999">
	<g transform="translate(0 -540.36)">
		<path d="m250.45 1037.6c-0.51238-1.9593-9.8338-8.4549-15.6-10.871-1.7703-0.7417-3.486-1.7812-3.8128-2.3099-0.32679-0.5287-2.9756-2.2756-5.8862-3.882-8.0046-4.4176-12.006-6.7805-16.008-9.4526-1.9992-1.3348-5.5366-3.565-7.8609-4.956-2.3243-1.3911-7.9725-4.9448-12.551-7.8973-4.579-2.9525-9.9126-6.0471-11.852-6.8769-1.9398-0.8298-4.4437-2.3356-5.5641-3.3462-1.1204-1.0105-5.0651-3.5067-8.766-5.547-3.7009-2.0404-8.3908-5.0304-10.422-6.6445-2.0311-1.6142-4.9879-3.2193-6.5705-3.5669-1.5827-0.3476-3.6782-1.5166-4.6568-2.598-0.97854-1.0812-2.2777-1.9703-2.8869-1.9758-0.60927-0.01-3.1066-1.5987-5.5496-3.5407s-4.8428-3.531-5.3328-3.531c-0.49003 0-2.5884-1.0725-4.663-2.3834-12.796-8.086-18.459-11.912-18.587-12.56-0.0805-0.40548-0.24179-6.3133-0.35826-13.129-0.24028-14.058 0.37163-15.556 5.489-13.436 1.6295 0.67496 3.7896 2.1409 4.8002 3.2576s5.0269 3.8686 8.9251 6.1153c3.8981 2.2466 8.0319 4.9376 9.1862 5.9798 3.2936 2.974 13.649 8.9575 15.503 8.9575 2.1457 0 5.4026-2.2175 11.768-8.0122 2.7992-2.5484 8.4188-7.3648 12.488-10.703 4.0692-3.3384 10.656-8.96 14.638-12.492 3.9816-3.5323 10.426-8.8445 14.321-11.805 3.8948-2.9604 10.308-8.2647 14.252-11.787 16.836-15.037 37.94-32.202 39.593-32.202 2.2572 0 6.2902 2.9884 18.487 13.699 6.3987 5.6187 12.772 11.162 14.163 12.319 1.391 1.1566 6.1711 5.1369 10.622 8.8451 4.4513 3.7082 9.0037 7.477 10.116 8.3749 4.0549 3.272 14.17 11.926 15.165 12.974 0.562 0.59215 3.4118 2.8481 6.333 5.0132 2.9211 2.1651 5.3112 4.2764 5.3112 4.6917 0 0.41534 2.0826 2.188 4.6279 3.9393 2.5454 1.7513 8.1207 6.3256 12.39 10.165 4.6069 4.1435 8.6619 6.981 9.9762 6.981 1.9446 0 14.376-7.4585 21.565-12.938 1.391-1.0603 3.6672-2.5184 5.0582-3.2402 1.391-0.72182 4.751-3.0675 7.4666-5.2126s5.5721-3.9002 6.3478-3.9002c2.283 0 3.0522 3.8505 3.1753 15.895 0.11442 11.19 0.0792 11.371-2.6199 13.461-4.3651 3.3808-9.3004 6.629-16.899 11.122-3.8948 2.3029-9.813 5.9681-13.151 8.145-3.3384 2.1769-8.2219 5.104-10.852 6.5048-4.3885 2.3372-16.159 9.6209-23.544 14.569-1.6692 1.1185-5.5388 3.3824-8.599 5.0309s-7.8388 4.6293-10.619 6.624c-2.7802 1.9946-5.559 3.6266-6.1749 3.6266-0.61595 0-5.1602 2.7315-10.098 6.0699-4.9381 3.3385-9.3923 6.0699-9.8981 6.0699-0.50585 0-4.6127 2.4366-9.1263 5.4145-7.6128 5.0229-13.865 8.7939-21.358 12.883-1.6692 0.911-3.1804 2.6295-3.3582 3.8191-0.26526 1.7746-1.0156 2.1627-4.1815 2.1627-2.9334 0-3.9782-0.4586-4.3586-1.9132zm-110.58-119.74c-2.1867-1.8264-5.1139-3.8847-6.5049-4.5741-1.391-0.68938-3.9542-2.268-5.696-3.508s-5.839-3.9729-9.1048-6.0731c-3.2659-2.1002-7.3631-4.8317-9.1048-6.0699-1.7418-1.2382-5.839-3.9697-9.1048-6.0699-3.2659-2.1002-7.3841-4.8317-9.1517-6.0699-1.7675-1.2382-5.7354-3.7793-8.8174-5.6469-3.0821-1.8676-6.1521-4.0562-6.8223-4.8638-0.67019-0.80752-2.697-2.086-4.5039-2.841-1.807-0.75499-6.168-3.4772-9.6912-6.0495-8.2788-6.0442-18.782-13.309-22.427-15.512-3.0504-1.8438-12.151-7.8375-23.563-15.519-3.8237-2.5738-8.4183-5.4237-10.21-6.3333-3.487-1.77-5.8014-5.044-5.0148-7.0938 0.50887-1.3261 21.474-18.709 40.316-33.428 3.5198-2.7496 9.4187-7.5296 13.109-10.622 3.69-3.0927 11.798-9.7202 18.019-14.728 6.2203-5.0077 14.913-12.144 19.318-15.858 7.8569-6.6257 8.0788-6.734 11.738-5.7237 2.0512 0.56636 7.2428 3.4916 11.537 6.5005 4.2941 3.0089 8.2152 5.4708 8.7136 5.4708 0.49838 0 3.3296 1.821 6.2917 4.0466 2.962 2.2256 5.9415 4.0466 6.621 4.0466 0.67954 0 4.8327 2.5038 9.2293 5.5641 4.3966 3.0602 8.3109 5.5641 8.6985 5.5641 0.38758 0 4.0416 2.3093 8.1201 5.1317s8.7811 5.7829 10.45 6.5788c1.6692 0.79586 4.9314 2.6976 7.2494 4.226 2.3179 1.5284 8.4637 5.4141 13.657 8.6348 5.1936 3.2207 10.581 6.6862 11.972 7.701 1.391 1.0149 5.7158 3.7536 9.6107 6.0861 3.8948 2.3325 9.813 5.9979 13.151 8.1454 3.3384 2.1475 9.286 5.7302 13.217 7.9614 11.119 6.3117 11.098 6.2062 2.8454 14.134-3.8757 3.7229-10.634 9.5004-15.018 12.839-4.3845 3.3384-10.055 8.1573-12.601 10.708-2.546 2.5512-6.4094 5.9306-8.5853 7.5098-2.1758 1.5792-5.8178 4.56-8.0932 6.6241-10.165 9.2213-17.482 15.5-19.818 17.007-1.391 0.89716-8.7956 6.985-16.455 13.528-15.799 13.498-17.112 13.976-23.576 8.5766zm209.88-3.9446c-4.6727-3.9959-11.032-9.5726-14.132-12.393-3.1001-2.8201-9.0183-7.7869-13.151-11.037-8.6911-6.8348-25.288-21.027-29.765-25.451-1.6888-1.6692-7.3888-6.4378-12.667-10.597-15.107-11.905-22.242-18.446-22.242-20.391 0-1.1155 1.6295-2.5776 4.2995-3.8578 5.7388-2.7516 10.745-5.8368 14.233-8.772 1.577-1.3269 3.4241-2.4126 4.1047-2.4126s4.0016-2.0114 7.3801-4.4697c3.3784-2.4583 8.392-5.6095 11.141-7.0026 2.7492-1.3931 5.5948-3.2513 6.3234-4.1294 0.72869-0.87802 1.7638-1.5964 2.3002-1.5964 0.53642 0 2.8707-1.3061 5.1873-2.9024s5.6735-3.7587 7.4597-4.8053c9.2318-5.4091 18.754-11.339 25.217-15.705 3.9712-2.6823 8.296-5.2915 9.6107-5.7983 1.3147-0.50681 4.2113-2.382 6.4369-4.1671s6.3228-4.3887 9.1048-5.7858 6.6366-3.7412 8.5657-5.209c1.9291-1.4679 5.6649-3.807 8.3018-5.198s8.3214-4.9388 12.632-7.8838c7.7053-5.2641 7.8759-5.324 10.081-3.5408 22.207 17.957 34.921 28.359 42.363 34.656 9.9819 8.4469 22.951 18.901 26.403 21.282 1.2098 0.83461 8.0236 6.394 15.142 12.354 7.118 5.9602 14.34 11.527 16.048 12.37 1.7085 0.8431 2.3655 1.5433 1.4598 1.5559-0.90555 0.0126-2.2408 0.73916-2.9673 1.6144-0.72636 0.87528-3.1721 2.5306-5.435 3.6786-2.2629 1.1479-5.48 3.1925-7.1492 4.5435-2.699 2.1844-17.539 11.971-25.4 16.751-1.6092 0.97848-9.0717 6.1014-16.583 11.384-7.5115 5.2829-15.478 10.575-17.704 11.761-2.2256 1.1858-6.0952 3.8527-8.599 5.9266-2.5038 2.0738-5.9396 4.4804-7.635 5.3479-1.6954 0.86753-6.8557 4.1172-11.467 7.2216-4.6116 3.1043-8.9431 5.6442-9.6257 5.6442-0.68257 0-2.2206 1.325-3.418 2.9444-1.1973 1.6194-5.2286 4.3863-8.9585 6.1486-3.7298 1.7623-7.6489 4.3068-8.7091 5.6546-1.0601 1.3478-2.4846 2.4505-3.1655 2.4505-0.68091 0-3.7208 1.5817-6.7552 3.5149s-6.4741 3.5265-7.6438 3.5408c-1.2006 0.0146-5.8258-3.1376-10.622-7.2393zm53.206-180.49c-2.221-1.8787-4.4982-3.4226-5.0604-3.4309-0.56224-0.008-5.4787-2.9741-10.925-6.5908-5.4468-3.6166-10.148-6.5757-10.446-6.5757-0.2987 0-2.4385-1.2922-4.7551-2.8717-8.8676-6.0458-12.447-8.2566-13.371-8.2585-0.52651-0.00081-4.8268-2.7317-9.5563-6.0679s-8.9534-6.0668-9.3866-6.0679c-0.43316-0.00081-4.5219-2.5595-9.0861-5.6853s-8.9898-5.9742-9.8348-6.3297c-2.2318-0.93908-13.58-8.4089-14.217-9.3583-0.2977-0.44359-2.3424-1.5591-4.5438-2.4789s-5.2835-2.7502-6.8492-4.0676c-1.5656-1.3174-5.8943-4.0687-9.6192-6.114-3.725-2.0453-7.6893-4.5356-8.8098-5.534-1.1204-0.99839-3.6242-2.4821-5.5641-3.2971-5.1568-2.1666-12.126-7.4935-12.126-9.2684 0-0.8449 1.9348-3.2992 4.2995-5.4539 9.7019-8.8404 23.279-20.486 32.224-27.64 5.2284-4.1817 13.831-11.342 19.117-15.911 19.859-17.167 38.627-33.007 42.51-35.878l4.0183-2.9711 3.7544 1.7903c2.0649 0.98469 5.1394 2.9241 6.8323 4.3099 1.6928 1.3858 7.858 5.6024 13.7 9.3704 5.8423 3.768 13.126 8.5164 16.186 10.552 3.0602 2.0358 10.799 7.1801 17.198 11.432 17.794 11.824 24.239 16.143 30.855 20.679 3.3384 2.2888 7.4356 4.868 9.1048 5.7316s5.5287 3.4348 8.5766 5.7138 7.0033 5.0541 8.7897 6.1669c1.7863 1.1128 6.41 4.1857 10.275 6.8286 3.8648 2.6429 7.3422 4.8053 7.7274 4.8053 1.5194 0 12.246 8.3467 13.405 10.43 1.795 3.2284 1.6926 3.4615-2.7542 6.2686-2.2316 1.4088-6.4949 4.715-9.474 7.3472-2.979 2.6322-8.3046 7.062-11.835 9.844-6.5535 5.1649-18.681 15.245-27.746 23.062-2.782 2.3991-6.6516 5.455-8.599 6.7908-4.5813 3.1425-26.228 21.322-28.736 24.133-1.0599 1.1881-2.5236 2.1602-3.2526 2.1602-0.72901 0-2.8247 1.3163-4.657 2.9251l-3.3315 2.9251-4.0382-3.4159zm-308.09-1.7c-2.9032-2.3553-7.3794-6.1353-9.947-8.4001-2.5677-2.2648-6.2618-5.1918-8.2092-6.5046s-5.6431-4.2398-8.2126-6.5046c-5.8907-5.192-16.312-13.598-25.899-20.889-4.0808-3.1037-10.438-8.3259-14.127-11.605-3.689-3.279-8.2048-7.113-10.035-8.52-1.8304-1.407-6.5046-4.9851-10.387-7.9513-3.8826-2.9662-7.2616-5.9253-7.5089-6.5757-1.2631-3.3219 1.9123-6.5969 12.816-13.218 2.9303-1.7793 16.596-10.6 21.472-13.858 12.58-8.4081 19.802-13.201 25.77-17.101 2.1283-1.391 8.6909-5.8296 14.584-9.8636 5.8927-4.034 11.037-7.3389 11.432-7.3443 0.39502-0.006 2.6217-1.4849 4.9481-3.2879 3.9624-3.0707 16.238-11.267 22.611-15.097 1.5577-0.93613 5.0331-3.3186 7.7231-5.2945 2.69-1.9758 6.9394-4.7579 9.4433-6.1824 2.5038-1.4245 7.0563-4.3359 10.116-6.4698l5.5641-3.8798 3.0349 2.0847c1.6692 1.1466 4.8995 3.7091 7.1784 5.6944s7.6832 6.5688 12.01 10.185c4.3264 3.6166 12.075 10.218 17.22 14.669 13.093 11.329 19.055 16.294 24.575 20.466 2.626 1.9844 9.0453 7.524 14.265 12.31 5.2199 4.7861 12.497 11.113 16.172 14.059 7.146 5.7301 8.695 7.6456 7.8862 9.7531-0.52166 1.3594-9.2649 7.6516-10.632 7.6516-0.41549 0-3.7355 1.9348-7.3778 4.2995s-8.5472 5.4376-10.9 6.8286c-2.3526 1.391-6.1091 4.0087-8.3478 5.817s-4.824 3.3035-5.745 3.3226c-0.92108 0.0191-4.4061 2.0523-7.7446 4.5181-3.3384 2.4659-8.6099 5.8319-11.714 7.4801-3.1045 1.6482-7.8351 4.6688-10.512 6.7125-2.6773 2.0436-6.268 4.2038-7.9792 4.8004-1.7112 0.59654-5.6302 2.9768-8.7089 5.2894s-7.4907 5.3066-9.8045 6.6532-8.6078 5.1798-13.987 8.5183c-5.3788 3.3384-11.334 7.0103-13.233 8.1597-1.8995 1.1494-4.4828 3.0068-5.7405 4.1276-1.2578 1.1208-4.2217 2.5887-6.5864 3.2619-2.3647 0.67327-4.2995 1.6494-4.2995 2.1692 0 0.51978-1.3282 1.6319-2.9515 2.4714-2.8787 1.4886-3.0818 1.4206-8.2301-2.756z"/>
	</g>
</svg>
