<svg xmlns:inkscape="http://www.inkscape.org/namespaces/inkscape" xmlns:rdf="http://www.w3.org/1999/02/22-rdf-syntax-ns#" xmlns="http://www.w3.org/2000/svg" sodipodi:docname="ecosystem.svg" height="512" width="512" version="1.1" xmlns:cc="http://creativecommons.org/ns#" xmlns:dc="http://purl.org/dc/elements/1.1/" inkscape:version="0.91 r13725" viewBox="0 0 512.00001 512.00001" xmlns:sodipodi="http://sodipodi.sourceforge.net/DTD/sodipodi-0.dtd">
	<sodipodi:namedview bordercolor="#666666" inkscape:pageshadow="2" inkscape:window-y="-8" pagecolor="#ffffff" inkscape:window-height="1017" inkscape:window-maximized="1" inkscape:zoom="0.35" inkscape:window-x="-8" showgrid="false" borderopacity="1.0" inkscape:current-layer="layer1" inkscape:cx="-126.42857" inkscape:cy="520" units="px" inkscape:window-width="1920" inkscape:pageopacity="0.0" inkscape:document-units="px"/>
	<g inkscape:label="Layer 1" inkscape:groupmode="layer" transform="translate(0 -540.36)">
		<path inkscape:connector-curvature="0" d="m276.2 1036.7c0.94218-10.746 2.1451-15.242 6.5463-24.469 7.258-15.216 23.672-27.73 45.252-34.499 7.0955-2.2257 28.437-6.5447 32.339-6.5447 0.6232 0-3.7995 4.948-9.8282 10.995l-10.961 10.995h8.9692 8.9692l-6.2378 6.2378-6.2378 6.2379 19.733 19.751 19.733 19.751h-54.509-54.509l0.74144-8.4566zm146.04-11.295 19.733-19.751-6.2378-6.2379-6.2378-6.2378h8.9692 8.9692l-10.961-10.995c-6.0287-6.0474-10.451-10.995-9.8282-10.995 0.6232 0 6.2382 0.8761 12.478 1.9468 25.905 4.4454 43.449 12.462 55.501 25.361 9.7903 10.478 15.055 23.053 16.711 39.914l0.6626 6.7472h-54.746-54.746l19.733-19.751zm-179.68-40.16c-67.465-12.122-120.97-50.436-154.3-110.5-3.2502-5.8561-6.1336-10.273-6.4074-9.8162-0.27385 0.45719-3.5329 8.2532-7.2424 17.324-3.7095 9.0712-7.0468 16.834-7.4162 17.251-0.8113 0.91504-13.051-4.2119-13.051-5.4668 0-0.89616 23.717-58.825 24.339-59.446 0.18585-0.18586 12.441 4.6628 27.233 10.775 14.792 6.1119 28.331 11.705 30.085 12.429l3.1895 1.3166-2.6079 6.573c-1.4343 3.6152-2.9171 6.573-3.295 6.573-0.37789 0-8.7362-3.3289-18.574-7.3975-9.8379-4.0686-18.049-7.2422-18.248-7.0525-0.59051 0.56423 8.3285 16.425 14.632 26.02 30.286 46.101 80.842 78.417 136.68 87.365l7.007 1.1228 2.7466 6.6974c1.5106 3.6835 2.7431 7.0346 2.7389 7.4469-0.0122 1.1931-6.6996 0.7308-17.5-1.2098zm78.473-68.261c0.006-38.538 0.89862-48.611 5.5338-62.475 10.066-30.11 33.591-46.267 67.29-46.216 32.231 0.049 56.362 16.338 66.207 44.693 4.8973 14.103 5.147 16.727 5.6147 59.001l0.44519 40.233h-26.172-26.172l2.936-3.3439c9.7182-11.068 19.493-35.667 21.568-54.278l0.57366-5.1441-4.6886-1.162c-8.1675-2.0241-19.243-8.1664-25.822-14.321-6.0717-5.6797-6.2924-5.7892-7.5544-3.7458-2.2299 3.6105-12.465 11.003-20.038 14.473-8.371 3.8356-19.424 6.547-26.69 6.547-5.036 0-5.0504 0.009-5.0288 3.2486 0.0885 13.292 10.398 40.5 19.903 52.524l4.1115 5.2014h-26.012-26.012l0.006-35.235zm-320.36-139.44c2.0269-20.28 7.7837-33.704 19.364-45.154 8.2915-8.1982 14.616-12.355 26.782-17.604 8.5253-3.6779 24.554-8.0203 33.409-9.051l5.6025-0.65213 13.221 26.03c7.2717 14.317 13.777 26.79 14.455 27.718 1.0191 1.3937 1.6272-1.4846 3.4917-16.528l2.2576-18.216-3.3234-2.8435-3.3234-2.8434 15.494-0.0113 15.493-0.0113-3.1471 2.8646-3.1471 2.8646 2.2117 17.578c1.2164 9.6681 2.4184 17.785 2.6711 18.038 0.25268 0.25269 6.8606-12.043 14.684-27.324l14.225-27.784 7.6713 1.334c31.904 5.548 53.158 16.915 65.149 34.843 7.5228 11.247 12.135 25.914 12.135 38.589v4.91h-128.03-128.03l0.67436-6.74zm355.61-18.6c-14.42-8.9071-26.721-16.697-27.335-17.311-1.4886-1.4886 5.5487-12.734 7.5002-11.985 0.73504 0.28207 8.324 4.8205 16.864 10.086 8.5404 5.265 15.761 9.5727 16.045 9.5727 1.1439 0-6.6551-21-11.66-31.395-10.479-21.767-22.271-38.315-39.611-55.585-21.535-21.449-48.951-38.51-77.129-47.999l-9.5993-3.2324-1.636-7.5391c-0.89983-4.1465-1.408-7.7671-1.1292-8.0459 0.27876-0.27876 6.9408 1.6201 14.805 4.2197 56.183 18.573 101.01 57.548 126.63 110.09 3.7524 7.6968 8.3969 18.645 10.321 24.33 1.9242 5.6846 3.6945 10.532 3.9342 10.771 0.23961 0.23962 4.8365-6.7861 10.215-15.613 5.3788-8.8266 10.153-16.279 10.609-16.561 0.45595-0.28178 3.4691 1.1933 6.6959 3.278l5.8669 3.7903-17.059 27.738c-9.3825 15.256-17.295 27.703-17.584 27.66-0.28887-0.043-12.324-7.3658-26.744-16.273zm-238.27-65.52c-10.915-3.4922-23.435-14.094-31.48-26.655-3.7456-5.8492-9.485-18.435-10.738-23.548-0.46699-1.9051-1.4768-2.7882-3.6957-3.2319-7.27-1.454-9.6292-20.022-2.8186-22.183 1.4114-0.44796 1.8475-1.5794 1.8475-4.7934 0-21.117 7.8158-41.202 20.274-52.101 22.534-19.712 62.009-17.238 78.751 4.9357 7.9602 10.543 12.235 22.842 14.143 40.691 0.95034 8.8911 1.4434 10.755 2.9501 11.149 6.282 1.6428 4.0779 20.554-2.5906 22.228-1.511 0.37924-2.6455 1.5886-3.0624 3.2646-1.0709 4.3049-8.0339 18.604-11.602 23.827-8.4667 12.391-21.517 22.853-32.942 26.409-7.4937 2.3323-11.767 2.3343-19.035 0.009z"/>
	</g>
</svg>
