<?xml version="1.0" encoding="UTF-8" standalone="no"?>
<svg id="svg2" xmlns:rdf="http://www.w3.org/1999/02/22-rdf-syntax-ns#" xmlns="http://www.w3.org/2000/svg" height="512" width="512" version="1.1" xmlns:cc="http://creativecommons.org/ns#" xmlns:dc="http://purl.org/dc/elements/1.1/" viewBox="0 0 511.99999 511.99999">
	<g id="layer1" transform="translate(0,-540.36219)">
		<path id="path3425" d="m284.00473 1050.9085c-5.89692-3.1957-5.77474-4.081 6.24331-45.2401l11.01639-37.72866 44.31304-44.30675c24.37217-24.36872 46.94151-46.60206 50.15409-49.40741l5.84106-5.10066 30.99307 30.90468c17.04619 16.99757 30.99308 31.16069 30.99308 31.47358 0 0.31291-22.57317 22.75967-50.1626 49.88171l-50.16259 49.31281-36.786 10.841c-20.23229 5.9627-37.46254 10.8332-38.28943 10.8235-0.82689-0.01-2.69592-0.6639-4.15342-1.4537zm68.86456-35.7267c0.31828-0.3445-5.57299-30.07539-6.05472-30.55593-0.43446-0.43339-27.47488-6.15655-29.17867-6.17572-0.60064-0.007-3.72237 9.00299-6.93719 20.02166l-5.84512 20.03399 4.22844 4.2979 4.22846 4.2978 19.66368-5.8346c10.81503-3.2091 19.76783-5.9475 19.89512-6.0851zm-308.267419-2.3198c-20.33685-5.3043-36.3189428-20.97419-42.7579695-41.9228-1.76240536-5.73378-1.8439015-14.28453-1.8439015-193.4653v-187.46638l2.2229973-6.99875c6.5701663-20.68514 23.9616487-36.554 44.9133517-40.98121 10.487143-2.21599 370.262251-2.22264 380.841151-0.007 20.43137 4.27905 37.4169 19.58938 44.36384 39.98843l2.72393 7.99857 0.3081 94.38807c0.16946 51.91344 0.10509 94.91581-0.14302 95.56081-0.32335 0.84055-2.25322 0.95588-6.81308 0.40716-7.56864-0.9108-19.28459 0.50709-26.36163 3.19034-2.78164 1.05466-5.39581 1.91778-5.80925 1.91806-0.41345 0.00027-0.75172-37.3428-0.75172-82.98462v-82.98511h-197.95212-197.952126v170.25757 170.25758l2.255151 4.44772c1.318331 2.60008 4.060424 5.69929 6.600867 7.46055l4.345715 3.01283 102.147513 0.26842c56.18113 0.14759 102.14752 0.4905 102.14752 0.76198 0 0.37977-7.21976 25.29948-10.63648 36.71278-0.49438 1.6515-6.02092 1.746-98.43002 1.6839-81.773381-0.055-98.814583-0.3027-103.418819-1.5036zm407.430839-133.40612-30.04821-29.9867 13.01939-13.02697c7.17444-7.17861 14.84884-13.91336 17.09442-15.0014 4.89486-2.37166 12.12258-2.5548 17.25581-0.43722 4.71247 1.944 37.61922 34.37716 40.53877 39.95534 2.80899 5.36693 2.80963 13.62748 0.001 18.99659-1.15045 2.1996-7.87911 9.73403-14.95257 16.74318l-12.86086 12.74388-30.04822-29.9867zm-353.307221-2.99973v-20.03869l19.795211 0.27109 19.79521 0.27109v19.49651 19.4965l-19.79521 0.27109-19.795211 0.27109v-20.03868zm79.180851 0v-19.99642h89.70488c49.33769 0 89.70489 0.34177 89.70489 0.75949 0 0.41771-8.68656 9.4161-19.30347 19.99641l-19.30347 19.23693h-70.40142-70.40141v-19.99641zm-79.180851-78.98584v-20.03869l19.795211 0.2711 19.79521 0.27109v19.4965 19.4965l-19.79521 0.2711-19.795211 0.27109v-20.03869zm79.180851 0v-19.99641h99.22663 99.22663v19.99641 19.99642h-99.22663-99.22663v-19.99642zm-79.180851-78.98583v-20.03869l19.795211 0.27109 19.79521 0.27109v19.49651 19.4965l-19.79521 0.27109-19.795211 0.27109v-20.03868zm79.180851 0.005v-20.0013h99.24782 99.24782l-0.27176 19.74646-0.27176 19.74646-98.97606 0.25483-98.97606 0.25483v-20.00128z"/>
	</g>
</svg>
