<?xml version="1.0" encoding="UTF-8" standalone="no"?>
<svg id="svg2" xmlns:rdf="http://www.w3.org/1999/02/22-rdf-syntax-ns#" xmlns="http://www.w3.org/2000/svg" height="512" width="512" version="1.1" xmlns:cc="http://creativecommons.org/ns#" xmlns:dc="http://purl.org/dc/elements/1.1/" viewBox="0 0 512.00001 512.00001">
	<g id="layer1" transform="translate(0,-540.36216)">
		<path id="path4265" d="m15.749387 971.94912c-6.6025116-1.7763-10.445291-5.14638-13.782281-12.08694-1.87281872-3.89525-1.923182-8.1769-1.923182-163.5 0-152.33964 0.08201907-159.67957 1.8270087-163.5 2.3322009-5.10605 7.4609668-10.09926 12.0458993-11.72751 5.298986-1.88183 478.896978-1.87091 484.200158 0.0112 1.98934 0.70601 5.23797 2.90464 7.21917 4.88584 7.04306 7.04306 6.73816 2.56163 6.43577 94.59413l-0.27193 82.76359-5.25635-6.89253c-22.24426-29.16836-57.66124-46.975-94.44702-47.48525-5.92697-0.0822-10.66839-0.42266-10.53647-0.75656 0.13191-0.3339 18.30014-16.87719 40.37385-36.76286 24.99598-22.51828 40.60329-37.28873 41.37818-39.15948 1.94137-4.68689 0.72135-11.94285-2.46958-14.68757-3.89105-3.34695-10.35022-3.14196-14.71536 0.467-1.82941 1.5125-48.90526 42.68302-104.613 91.49005-55.70773 48.80703-102.42413 89.02551-103.81421 89.3744-1.39009 0.34888-3.36883 0.24086-4.39722-0.24006-1.02838-0.48091-48.06723-41.37439-104.53077-90.87439-56.463536-49.5-103.630968-90.54655-104.816513-91.21456-9.548731-5.38036-19.949717 5.30643-15.00867 15.42107 1.320174 2.70249 22.991648 22.84154 75.353133 70.02482 40.425 36.42723 73.62894 66.82879 73.78654 67.559 0.16096 0.74581-7.07035 6.55192-16.5 13.24808-16.87222 11.98124-87.705059 65.0048-113.757203 85.15558-15.111184 11.68818-16.772661 13.9796-14.891764 20.5379 1.086963 3.79002 6.403139 7.76811 10.381018 7.76811 1.926056 0 8.832649-4.43707 23.602117-15.16293 45.671502-33.16751 129.966012-93.17597 131.379292-93.52768 0.825-0.2053 12.3 8.22881 25.5 18.74248 13.2 10.51368 24.83524 19.56943 25.85609 20.12391 2.83282 1.53866 9.7908 1.3169 13.14458-0.41893 1.64963-0.8538 8.12838-5.65683 14.39722-10.67339s11.51919-8.99971 11.66745-8.85145-0.101 2.29421-0.55391 4.76878c-4.33961 23.71045-0.40726 50.33514 10.84544 73.431 8.64765 17.74904 19.22435 30.85173 36.14313 44.77505l4.5 3.70328-159.5-0.0226c-126.266672-0.01781-160.489835-0.28881-164.250613-1.30058zm385.549643-0.09c-2.58003-1.80713-3.78425-5.38741-5.38052-15.9969-0.66201-4.4-1.58415-8.48967-2.04921-9.08815-0.46505-0.59849-2.76339-1.65357-5.10742-2.34463-2.34404-0.69106-7.60405-2.99703-11.68892-5.12437l-7.42704-3.8679-9.53063 5.96253c-13.01062 8.13966-14.4035 8.01867-23.08764-2.00557-7.4232-8.56871-7.26195-10.45227 1.8758-21.91084l7.10345-8.90759-2.49435-5.35674c-1.3719-2.94621-2.7664-6.78124-3.0989-8.52229-0.6729-3.52347-0.68995-3.5306-12.91365-5.39994-8.88972-1.35948-12.93004-3.00101-14.47036-5.87912-0.5663-1.05819-1.02964-5.58311-1.02964-10.05543s0.46334-8.99724 1.02964-10.05539c1.54032-2.87811 5.58064-4.51964 14.47036-5.87912 12.24829-1.8731 12.24073-1.86992 12.91064-5.44086 0.33085-1.76356 2.15637-6.45086 4.05672-10.41623l3.45519-7.20976-6.46127-9.12875c-8.55404-12.08549-8.53652-13.13947 0.36631-22.0423 8.90792-8.90793 9.95198-8.92377 22.08639-0.33511l9.17284 6.49248 5.70659-2.87894c3.13862-1.58342 7.62443-3.45287 9.96847-4.15433 2.34403-0.70146 4.64237-1.76505 5.10742-2.36354 0.46506-0.59848 1.3872-4.68815 2.04921-9.08815 2.4715-16.42668 3.46805-17.5 16.24823-17.5 12.07971 0 13.3572 1.15993 15.41895 14 2.03357 12.66452 2.39706 13.38167 7.55596 14.90786 2.39709 0.70914 7.74946 3.04498 11.89416 5.19075 4.1447 2.14576 7.82888 3.90139 8.18709 3.90139 0.3582 0 4.59324-2.475 9.41121-5.5 12.01624-7.5445 13.96475-7.48217 21.62294 0.69166 9.01952 9.62683 8.94401 11.71079-0.85917 23.71093l-6.612 8.09381 2.60706 6.51232c1.43388 3.58178 2.60706 7.16676 2.60706 7.96662 0 2.1526 2.55653 3.11697 12 4.52666 9.33158 1.39298 13.39973 3.00787 14.97036 5.94261 1.33593 2.49621 1.33593 17.61457 0 20.11078-1.57063 2.93474-5.63878 4.54963-14.97036 5.94261-4.675 0.69787-9.17637 1.61517-10.00305 2.03844-0.82668 0.42328-2.08571 2.74296-2.79786 5.15484-0.71214 2.41189-2.57201 6.91732-4.13304 10.01208l-2.83823 5.62683 6.33486 8.95669c7.36772 10.41703 8.34957 13.1719 5.98225 16.7849-1.97903 3.02037-9.10073 10.0755-12.28764 12.17278-3.28422 2.16131-6.36612 0.99205-16.508-6.26309l-8.95527-6.40628-5.64701 2.84887c-3.10586 1.56687-7.60827 3.43579-10.00536 4.15315-5.15774 1.54352-5.52366 2.26619-7.55596 14.92279-2.06175 12.84007-3.33924 14-15.41895 14-6.14218 0-9.35642-0.44456-10.86771-1.5031zm24.35351-63.66668c25.21158-9.3016 32.22007-41.97468 13.11518-61.14205-18.38842-18.4486-49.40285-12.76977-60.58766 11.09372-2.3174 4.94432-2.68006 7.00358-2.68006 15.21807s0.36266 10.27375 2.68006 15.21807c8.54316 18.22737 28.67877 26.54592 47.47248 19.61215z"/>
	</g>
</svg>
