<?xml version="1.0" encoding="UTF-8" standalone="no"?>
<svg id="svg2" xmlns:rdf="http://www.w3.org/1999/02/22-rdf-syntax-ns#" xmlns="http://www.w3.org/2000/svg" height="512" width="512" version="1.1" xmlns:cc="http://creativecommons.org/ns#" xmlns:dc="http://purl.org/dc/elements/1.1/" viewBox="0 0 512.00001 512.00001">
	<g id="layer1" transform="translate(0,-540.36216)">
		<path id="path4161" d="m15.749387 971.94912c-6.6025116-1.7763-10.445291-5.14638-13.782281-12.08694-1.87281872-3.89525-1.923182-8.1769-1.923182-163.5 0-152.33964 0.08201907-159.67957 1.8270087-163.5 2.3322009-5.10605 7.4609668-10.09926 12.0458993-11.72751 5.298986-1.88183 478.896978-1.87091 484.200158 0.0112 1.98934 0.70601 5.23797 2.90464 7.21917 4.88584 7.04306 7.04306 6.73816 2.56163 6.43577 94.59413l-0.27193 82.76359-5.25635-6.89253c-22.24426-29.16836-57.66124-46.975-94.44702-47.48525-5.92697-0.0822-10.66839-0.42266-10.53647-0.75656 0.13191-0.3339 18.30014-16.87719 40.37385-36.76286 24.99598-22.51828 40.60329-37.28873 41.37818-39.15948 1.94137-4.68689 0.72135-11.94285-2.46958-14.68757-3.89105-3.34695-10.35022-3.14196-14.71536 0.467-1.82941 1.5125-48.90526 42.68302-104.613 91.49005-55.70773 48.80703-102.42413 89.02551-103.81421 89.3744-1.39009 0.34888-3.36883 0.24086-4.39722-0.24006-1.02838-0.48091-48.06723-41.37439-104.53077-90.87439-56.463536-49.5-103.630968-90.54655-104.816513-91.21456-9.548731-5.38036-19.949717 5.30643-15.00867 15.42107 1.320174 2.70249 22.991648 22.84154 75.353133 70.02482 40.425 36.42723 73.62894 66.82879 73.78654 67.559 0.16096 0.74581-7.07035 6.55192-16.5 13.24808-16.87222 11.98124-87.705059 65.0048-113.757203 85.15558-15.111184 11.68818-16.772661 13.9796-14.891764 20.5379 1.086963 3.79002 6.403139 7.76811 10.381018 7.76811 1.926056 0 8.832649-4.43707 23.602117-15.16293 45.671502-33.16751 129.966012-93.17597 131.379292-93.52768 0.825-0.2053 12.3 8.22881 25.5 18.74248 13.2 10.51368 24.83524 19.56943 25.85609 20.12391 2.83282 1.53866 9.7908 1.3169 13.14458-0.41893 1.64963-0.8538 8.12838-5.65683 14.39722-10.67339s11.51919-8.99971 11.66745-8.85145-0.101 2.29421-0.55391 4.76878c-4.33961 23.71045-0.40726 50.33514 10.84544 73.431 8.64765 17.74904 19.22435 30.85173 36.14313 44.77505l4.5 3.70328-159.5-0.0226c-126.266672-0.01781-160.489835-0.28881-164.250613-1.30058zm378.789533 0.371c-22.65552-3.56779-40.22-12.63902-57.03892-29.45794-15.1131-15.1131-22.27617-27.6185-27.65713-48.28424-3.26124-12.52491-3.26124-34.90661 0-47.43152 5.38096-20.66574 12.54403-33.17114 27.65713-48.28424s27.6185-22.27617 48.28424-27.65713c7.18559-1.87099 11.34921-2.26941 23.71576-2.26941s16.53017 0.39842 23.71576 2.26941c20.66574 5.38096 33.17114 12.54403 48.28424 27.65713s22.27617 27.6185 27.65713 48.28424c3.26124 12.52491 3.26124 34.90661 0 47.43152-5.38096 20.66574-12.54403 33.17114-27.65713 48.28424-15.03874 15.03874-27.71549 22.31346-48 27.54541-9.24188 2.38375-29.61754 3.38395-38.96108 1.91253zm-23.55185-62.47353-14.48707-14.51558l-0.28041 13.21513c-0.15423 7.26833-0.0559 13.80034 0.21861 14.51559 0.37729 0.98319 3.97999 1.30045 14.76748 1.30045h14.26845l-14.48706-14.51559zm57.26134-57.7278-15.24501-15.24501-24.99959 24.98459-24.99958 24.98459 15.24059 15.26442 15.2406 15.26443 25.004-25.004 25.00401-25.00401-15.24502-15.24501zm28.47468 2.02228c3.4523-3.42161 6.27691-6.90329 6.27691-7.73706 0-1.99664-27.02066-29.04183-29.01549-29.04183-0.84826 0-4.44496 2.92871-7.99267 6.50824l-6.45039 6.50823 14.96677 14.99177c8.23173 8.24547 15.18529 14.99176 15.45237 14.99176s3.31021-2.7995 6.7625-6.22111z"/>
	</g>
</svg>
