<svg xmlns:rdf="http://www.w3.org/1999/02/22-rdf-syntax-ns#" xmlns="http://www.w3.org/2000/svg" height="512" width="512" version="1.1" xmlns:cc="http://creativecommons.org/ns#" xmlns:dc="http://purl.org/dc/elements/1.1/" viewBox="0 0 512.00001 512.00001">
	<g transform="translate(0 -540.36)">
		<path d="m35 974.39c0-1.4709-1.84-2.8199-7.2654-5.3266-8.3503-3.858-15.51-11.052-20.711-20.811-2.1788-4.0878-3.7351-5.8923-5.0819-5.8923-1.9135 0-1.942-2.11-1.942-144 0-137.56 0.0798-144 1.7854-144 1.2049 0 2.8443-2.1474 5.0422-6.6044 4.3177-8.7558 11.66-16.376 19.494-20.233 5.8286-2.8694 21.243-7.1625 25.717-7.1625 1.2946 0 1.9613-0.67983 1.9613-2 0-1.4667 0.66667-2 2.5-2s2.5 0.53333 2.5 2c0 1.9932 0.66667 2 197 2s197-0.007 197-2c0-1.4667 0.66667-2 2.5-2 1.7215 0 2.5 0.54911 2.5 1.7634 0 1.4379 1.9698 2.1665 10.672 3.9476 19.233 3.9362 29.519 11.06 36.271 25.119 2.3902 4.977 3.9958 7.1697 5.25 7.1697 1.734 0 1.8068 5.7812 1.8068 143.5 0 137.08-0.0798 143.5-1.7854 143.5-1.1906 0-2.8246 2.082-4.905 6.25-5.2695 10.557-10.688 16.184-20.06 20.831-6.0357 2.9928-8.25 4.6046-8.25 6.0052 0 1.88-3.9629 1.9143-221 1.9143-219.2 0-221-0.016-221-1.9697zm432.44-30.136c4.136-1.1483 8.5331-5.1383 11.373-10.32 1.5549-2.8372 1.685-12.822 1.685-129.29 0-116.43-0.12914-126.34-1.6654-127.88-2.4138-2.4138-5.4736-1.2634-11.919 4.4817-3.0695 2.7358-7.6136 6.2428-10.098 7.7932s-6.374 4.169-8.6436 5.819c-12.454 9.0538-30.671 22.169-37.674 27.123-4.4 3.1126-13.175 9.4375-19.5 14.055-6.325 4.6177-17.176 12.542-24.114 17.609-6.9375 5.0671-19.015 13.713-26.838 19.213-7.8236 5.5-16.521 11.912-19.327 14.25-2.806 2.3375-5.465 4.25-5.9088 4.25-0.44379 0-2.6696 1.6875-4.9463 3.75s-6.1046 4.875-8.5065 6.25-10.328 6.7894-17.614 12.032c-19.391 13.954-23.56 16.422-27.73 16.422-3.9691 0-7.89-2.373-31.016-18.772-7.425-5.265-16.584-11.735-20.354-14.378-3.7695-2.6428-8.4945-6.183-10.5-7.8672s-6.5714-5.0917-10.146-7.5724c-3.575-2.4806-13.25-9.3905-21.5-15.355-36.048-26.063-66.323-47.84-82.035-59.01-6.963-4.95-15.081-10.8-18.04-13-2.9588-2.2-7.3025-5.2287-9.6525-6.7304s-6.6521-4.7642-9.5602-7.25c-6.182-5.28-8.553-5.63-10.664-1.55-1.344 2.6-1.526 17.62-1.526 125.64 0 91.139 0.30238 123.69 1.176 126.61 1.5305 5.1083 8.119 12.541 12.151 13.708 4.798 1.3888 418.11 1.382 423.11-0.01zm-202.44-153.93c1.925-1.599 7.1432-5.3762 11.596-8.3938s15.253-10.661 24-16.985c8.7472-6.3239 22.366-16.129 30.264-21.789 13.412-9.6117 19.095-13.706 49.673-35.791 6.473-4.675 14.758-10.525 18.412-13 3.6535-2.475 8.6481-6.1285 11.099-8.1188s6.2562-4.8097 8.4562-6.2652 6.7-4.6449 10-7.0875 8.2928-5.9856 11.095-7.8733c6.2409-4.204 11.394-9.5695 11.4-11.87 0.003-0.94315-0.86579-2.1806-1.9296-2.75-2.7012-1.4456-382.43-1.4456-385.13 0-1.07 0.58-1.94 1.99-1.94 3.14 0 2.4142 6.5756 9.0248 13.07 13.14 2.4363 1.5437 6.2297 4.1426 8.4297 5.7754 2.2 1.6327 6.7 4.8192 10 7.0811s7.35 5.3595 9 6.8836 6.6 5.2035 11 8.1764 14.975 10.454 23.5 16.626c8.525 6.1711 20 14.429 25.5 18.351 5.5 3.9221 14.05 10.114 19 13.761 4.95 3.6464 13.275 9.6509 18.5 13.343 5.225 3.6925 16.475 11.64 25 17.662 8.525 6.0214 17.615 12.655 20.2 14.741 2.5851 2.0862 5.7351 4.0995 7 4.4741 3.8804 1.1491 9.1267-0.17186 12.8-3.2229z"/>
	</g>
</svg>
