<svg xmlns:rdf="http://www.w3.org/1999/02/22-rdf-syntax-ns#" xmlns="http://www.w3.org/2000/svg" height="512" width="512" version="1.1" xmlns:cc="http://creativecommons.org/ns#" xmlns:dc="http://purl.org/dc/elements/1.1/" viewBox="0 0 512.00001 512.00001">
	<g transform="translate(0 -540.36)">
		<path d="m34.02 1050.6c-1.914-0.9617-4.5015-3.2775-5.75-5.1464l-2.27-3.4v-137.44c0-117.41 0.209-137.79 1.434-140.1 0.789-1.48 51.076-52.27 111.75-112.86 88.98-88.84 110.95-110.28 113.57-110.83 7.8244-1.6161 2.9966-6.0724 120.07 110.83 60.674 60.587 110.96 111.37 111.75 112.86 1.22 2.31 1.43 22.69 1.43 140.1v137.4l-2.2699 3.3978c-1.2485 1.8689-3.836 4.1847-5.75 5.1464-3.2814 1.6486-15.952 1.7484-221.98 1.7484s-218.7-0.1-221.98-1.7484zm391.94-28.608c-0.80536-0.748-26.056-19.648-56.112-42l-54.648-40.64h-59.204-59.204l-54.648 40.64c-30.056 22.352-55.307 41.252-56.112 42-1.235 1.147 25.379 1.3599 169.96 1.3599 144.59 0 171.2-0.2129 169.96-1.3599zm-313.47-55.97c30.258-22.506 55.569-41.435 56.248-42.065 0.95404-0.88544-11.8-14.177-56.25-58.622l-57.49-57.47v100.3c0 79.39 0.25776 100.15 1.2361 99.542 0.67987-0.4202 25.992-19.178 56.25-41.683zm344.27-107.67-0.26-50l-57.325 57.332-57.325 57.332 57.325 42.694 57.325 42.694 0.25925-50.023c0.14259-27.512 0.14259-72.524 0-100.03zm-74.01-17.25 69.25-69.25-98-98-98-97.99l-98 97.996-98 97.996 69.247 69.252 69.247 69.252h57.505 57.505l69.247-69.252zm-135.35-19.63c-2.145-1.5845-14.772-13.847-28.06-27.25-25.707-25.929-26.546-27.101-24.867-34.744 1.858-8.4596 12.412-13.787 19.843-10.017 1.2013 0.60961 7.6703 6.539 14.375 13.176l12.191 12.068 0.30883-43.604c0.2991-42.23 0.37381-43.691 2.3706-46.365 3.6964-4.9482 7.1935-6.8836 12.438-6.8836 5.2447 0 8.7418 1.9354 12.438 6.8836 1.9968 2.6731 2.0715 4.1343 2.3706 46.365l0.30883 43.604 12.191-12.068c6.7051-6.6374 13.174-12.567 14.375-13.176 7.6-3.8565 18.256 1.7242 19.886 10.415 1.3951 7.4364 0.52707 8.6319-24.938 34.346-13.273 13.403-25.888 25.665-28.033 27.25-2.9955 2.2127-4.9901 2.881-8.6 2.881-3.6098 0-5.6045-0.66821-8.6-2.881z"/>
	</g>
</svg>
