<svg xmlns:rdf="http://www.w3.org/1999/02/22-rdf-syntax-ns#" xmlns="http://www.w3.org/2000/svg" height="512" width="512" version="1.1" xmlns:cc="http://creativecommons.org/ns#" xmlns:dc="http://purl.org/dc/elements/1.1/" viewBox="0 0 512.00001 512.00001">
	<g transform="translate(0 -540.36)">
		<path d="m27.974 976.97c-14.477-5.3473-24.291-16.44-26.929-30.438-1.3941-7.3978-1.3941-292.81 0-300.21 2.2781-12.089 10.616-22.809 21.984-28.265l6.4996-3.1196 224.99-0.25692c219.76-0.25094 225.12-0.21222 230.69 1.6674 12.013 4.0558 21.228 13.263 24.778 24.757 1.9882 6.4371 2.0203 8.8714 2.0203 153.29 0 95.082-0.35738 148.65-1.015 152.14-2.2532 11.956-11.247 23.307-22.731 28.689l-5.7523 2.6957-225.49 0.18299c-184.05 0.16-226.16-0.04-229.06-1.12zm447.68-20.31c0.69182-0.44467-32.172-26.589-83.253-66.231-46.418-36.023-85.216-66.063-86.218-66.755-1.5929-1.1006-2.8806-0.42752-10.242 5.353-19.34 15.188-24.229 17.463-39.031 18.168-15.775 0.7514-22.58-1.8743-39.392-15.2-6.6287-5.2541-11.223-8.2396-11.989-7.7905-4.5268 2.6547-169.22 131.86-168.84 132.46 0.60229 0.97454 437.45 0.96534 438.97-0.01zm-370.38-84.84c44.138-34.431 80.382-62.946 80.542-63.368 0.21383-0.56421-148.16-116.35-159.96-124.82-1.7558-1.2613-1.8189 3.0625-1.8189 124.74 0 69.327 0.22227 126.05 0.49393 126.05 0.27165 0 36.607-28.171 80.745-62.601zm383.73-64.448c0-122.34-0.0669-127-1.807-125.74-12.981 9.3863-162.16 125.34-161.96 125.89 0.3567 0.96491 162.02 126.75 163.02 126.84 0.41247 0.036 0.74995-57.107 0.74995-126.98zm-223.93 14.729c5.0746-2.4496 222.37-171.22 222.74-172.99 0.42456-2.0551-5.1312-8.1208-9.2113-10.057-3.0895-1.4661-23.072-1.611-222.16-1.611-215.7 0-218.83 0.0276-222.84 1.9722-3.7932 1.8363-9.5565 8.794-9.5565 11.537 0 1.6934 217.64 170.58 221.82 172.14 4.7011 1.747 14.611 1.2399 19.217-0.98349z"/>
	</g>
</svg>
