<svg xmlns:rdf="http://www.w3.org/1999/02/22-rdf-syntax-ns#" xmlns="http://www.w3.org/2000/svg" height="512" width="512" version="1.1" xmlns:cc="http://creativecommons.org/ns#" xmlns:dc="http://purl.org/dc/elements/1.1/" viewBox="0 0 512.00001 512.00001">
	<g transform="translate(0 -540.36)">
		<path d="m308.89 1051.7c-23.768-3.812-40.223-8.7376-59.207-17.722-55.134-26.095-98.377-75.444-121.72-138.91l-4.4569-12.116-41.649-0.33929c-46.4-0.37801-45.966-0.30728-54.542-8.8828-12.521-12.521-9.6969-34.089 5.711-43.62l5.8039-3.5901 36.276-0.34414 36.276-0.34414v-30.733-30.733l-36.18-0.35819c-39.88-0.39482-39.532-0.3341-47.503-8.3044-14.505-14.505-9.2968-38.578 10.099-46.682 3.325-1.3893 12.047-1.7186 45.511-1.7186h41.398l3.2954-9.1934c5.4574-15.225 18.685-41.628 27.486-54.864 11.809-17.759 20.896-28.633 36.279-43.411 75.645-72.675 183.42-79.427 265.97-16.664 15.008 11.41 29.044 25.439 32.214 32.199 6.8259 14.555 0.01 31.996-14.958 38.266-5.3751 2.252-16.134 2.2706-21.4 0.0371-2.2926-0.97241-10.031-6.9914-17.196-13.376-20.679-18.426-36.344-27.979-57.497-35.066-44.794-15.008-91.645-7.2922-131.58 21.668-11.414 8.2777-33.271 31.378-41.845 44.224-7.6674 11.488-18.773 32.076-18.773 34.801 0 0.9789 25.398 1.4228 94.696 1.655l94.696 0.31735 5.8062 3.5901c3.5983 2.2249 7.1714 5.7982 9.3963 9.3969 3.1778 5.1399 3.5901 6.8499 3.5901 14.89 0 8.0397-0.4123 9.7497-3.5901 14.89-2.2249 3.5988-5.798 7.172-9.3964 9.3969l-5.8063 3.5901-102.91 0.31573-102.91 0.31575-0.97024 7.9879c-1.161 9.5587-1.1549 45.78 0.008 50.396l0.82216 3.2622 101.7 0.0261c99.685 0.0255 101.8 0.0738 107.01 2.4377 10.296 4.6702 15.448 11.999 16.352 23.259 0.74285 9.2544-1.6017 16.074-7.6762 22.329-8.5049 8.7572-2.0798 8.2282-107.95 8.8882l-95.142 0.59312 5.2722 11.094c18.527 38.985 46.832 69.032 81.216 86.214 19.405 9.6969 34.719 13.574 57.013 14.434 41.216 1.5894 74.483-11.181 107.28-41.181 14.13-12.925 19.739-15.922 29.656-15.848 12.039 0.09 21.627 6.9626 26.116 18.719 2.4518 6.4199 1.9163 16.024-1.2328 22.113-2.8254 5.4637-11.292 14.296-23.409 24.421-31.203 26.072-66.039 42.123-103.72 47.79-7.9497 1.1955-47.112 1.5484-53.747 0.4842z"/>
	</g>
</svg>
