<svg xmlns:rdf="http://www.w3.org/1999/02/22-rdf-syntax-ns#" xmlns="http://www.w3.org/2000/svg" height="512" width="512" version="1.1" xmlns:cc="http://creativecommons.org/ns#" xmlns:dc="http://purl.org/dc/elements/1.1/" viewBox="0 0 512.00001 512.00001">
	<g transform="translate(0 -540.36)">
		<path d="m232.67 1051.2c-48.41-5-93.18-22.3-130.46-50.5-89.514-67.75-124.45-184.58-86.993-290.91 11.991-34.038 33.499-67.847 60.054-94.402 39.529-39.529 90.13-64.684 146.4-72.78 16.567-2.3836 52.433-2.3836 69 0 56.272 8.0959 106.87 33.251 146.4 72.78 39.529 39.529 64.684 90.13 72.78 146.4 2.3836 16.567 2.3836 52.433 0 69-8.0959 56.272-33.251 106.87-72.78 146.4-38.901 38.901-88.556 63.949-143.09 72.181-15.403 2.3252-47.394 3.2967-61.309 1.8619zm43.5-30.003c58.213-5.3153 114.42-34.834 152.23-79.943 57.97-69.13 69.9-163.66 30.69-242.94-22.81-46.09-58.89-82.14-105.12-105.02-79.07-39.14-173.7-27.15-242.8 30.76-55.025 46.12-85.582 117.75-80.187 187.98 9.644 125.55 120.97 220.56 245.19 209.16zm-16.081-75.893c-16.167-2.9495-34.648-10.634-48.662-20.234-11.156-7.6425-27.472-24.357-35.492-36.361-6.805-10.185-15.113-26.689-18.194-36.142l-1.6906-5.1871-24.767-0.3129-24.767-0.3129-4.0177-2.6608c-4.9206-3.2587-7.3302-8.0557-7.3302-14.592 0-6.3323 2.969-10.965 8.97-13.997 4.1771-2.1102 5.6986-2.25 24.492-2.2506l20.038-0.00062v-18-18l-21.102 0.00012c-20.293 0.00012-21.231-0.087-24.476-2.2737-10.493-7.0716-10.782-20.583-0.60122-28.134 2.6419-1.9595 4.4382-2.1236 28.377-2.592l25.557-0.5 2.8285-7.368c7.9587-20.732 18.344-36.661 34.362-52.709 25.382-25.427 51.761-36.844 85.055-36.811 19.715 0.0195 34.094 3.2642 51.145 11.541 15.214 7.3853 36.263 23.917 39.715 31.192 3.5535 7.4885 1.189 16.986-5.2659 21.152-8.6036 5.5526-14.76 4.2502-25.293-5.3508-12.418-11.319-23.508-17.866-37.801-22.313-6.4528-2.0078-9.5943-2.3337-22.5-2.3337-16.77 0-23.151 1.4054-36.951 8.138-18.356 8.955-35.761 26.992-46.417 48.102-1.7222 3.4116-3.1312 6.4408-3.1312 6.7315 0 0.29069 24.608 0.52852 54.684 0.52852 52.516 0 54.845 0.0787 58.75 1.9852 11.806 5.7646 12.226 22.341 0.72897 28.803l-3.9356 2.2119h-59.505-59.505l-0.67091 2.6731c-0.84492 3.3664-0.8871 30.966-0.0494 32.321 0.40507 0.65542 20.756 1.0056 58.438 1.0056 31.799 0 59.273 0.29143 61.054 0.64761 4.6083 0.92166 10.563 6.9536 11.947 12.102 2.2874 8.5094-3.0012 17.787-11.482 20.141-2.6427 0.73369-21.774 1.0993-57.713 1.1031l-53.76 0.006 4.4118 8.75c17.351 34.413 45.59 54.855 78.608 56.904 23.256 1.4434 44.564-6.8871 65.356-25.551 8.3154-7.4646 11.621-8.8551 18.427-7.7507 7.5311 1.2221 13.218 8.0392 13.218 15.845 0 6.5558-1.5169 9.1394-10.22 17.406-15.875 15.079-33.482 24.934-54.519 30.512-5.9857 1.5873-11.651 2.1397-24.762 2.4141-9.35 0.1957-19.061-0.02-21.581-0.4798z"/>
	</g>
</svg>
