<?xml version="1.0" encoding="UTF-8" standalone="no"?>
<svg id="svg2" xmlns:rdf="http://www.w3.org/1999/02/22-rdf-syntax-ns#" xmlns="http://www.w3.org/2000/svg" height="512" width="512" version="1.1" xmlns:cc="http://creativecommons.org/ns#" xmlns:dc="http://purl.org/dc/elements/1.1/" viewBox="0 0 512.00001 512.00001">
	<g id="layer1" transform="translate(0,-540.36216)">
		<path id="path3347" d="m376.8769 1029.4337c-18.67923-3.3933-30.91699-8.1863-45.76054-17.9224-21.40765-14.04149-41.08908-40.49941-47.32644-63.62132-5.48663-20.33898-5.48663-46.14331 0-66.48229 6.25159-23.17467 25.86993-49.54778 47.32644-63.62134 20.43222-13.40173 38.98499-18.83397 64.32377-18.83397 25.34937 0 43.79803 5.40758 64.32378 18.85427 21.46095 14.05936 41.09416 40.44626 47.32242 63.60104 2.60311 9.67758 4.91367 25.3086 4.91367 33.24115 0 7.93254-2.31056 23.56357-4.91367 33.24114-0.7664 2.84924-3.13816 9.06577-5.27059 13.81451-11.70991 26.07704-33.24291 47.61001-59.31996 59.31991-20.25463 9.0954-44.6398 12.2204-65.61888 8.4093zm7.9303-48.34242c2.53039-0.94033 81.44542-79.01225 85.83644-84.91938 4.78468-6.43671 3.42418-9.90807-8.26163-21.07978-8.04152-7.68773-8.41939-7.93064-12.33736-7.93064h-4.04177l-32.19251 32.1503-32.19252 32.15029-17.91179-17.81238c-9.85149-9.79681-18.80878-18.26804-19.9051-18.82498-3.89584-1.97907-7.04479-0.27195-16.34382 8.86041-9.15949 8.99533-10.6214 11.586-9.36431 16.59465 0.61852 2.46437 57.31096 59.62021 60.35235 60.84566 2.55092 1.02783 3.51831 1.02264 6.36202-0.0342zm-378.5553951 20.76622c-1.5476794-0.9436-3.5860246-2.98193-4.5296562-4.52961-1.69830354-2.78544-1.71572648-4.74893-1.71892124-193.71495l-0.00322746-190.90098 1.9426644-2.85436c1.0684654-1.5699 3.0391153-3.66716 4.3792219-4.66057 2.3724789-1.7587 3.4340078-1.81278 40.3642487-2.0563l37.927693-0.25011v21.03391c0 24.21456 0.502768 26.80921 6.330306 32.66904 1.979376 1.99035 6.124331 4.82115 9.211006 6.29067l5.61214 2.67185h20.29006c19.13016 0 20.56877-0.1127 25.16578-1.97146 6.2206-2.51523 12.12219-7.709 14.69445-12.93202 1.92236-3.90339 2.02791-5.09358 2.29627-25.89247l0.2813-21.80101h52.5369 52.5369l0.2813 21.80101c0.26836 20.79889 0.37391 21.98908 2.29627 25.89247 2.57226 5.22302 8.47385 10.41679 14.69445 12.93202 4.59701 1.85876 6.03562 1.97146 25.16579 1.97146h20.29005l5.61214-2.67185c3.08668-1.46952 7.23163-4.30032 9.21101-6.29067 5.82753-5.85983 6.3303-8.45448 6.3303-32.66904v-21.03391l37.92769 0.25011c36.93024 0.24352 37.99178 0.2976 40.36425 2.0563 1.34011 0.99341 3.31076 3.09067 4.37923 4.66057l1.94266 2.85436v95.8028c0 90.91761-0.077 95.76902-1.51096 95.14014-0.83103-0.36447-5.68053-2.05731-10.77668-3.76186l-9.26571-3.09918-0.0159-22.66441-0.0159-22.66442h-31.08263-31.08263v23.74367c0 16.36283-0.28862 23.74368-0.92847 23.74368-0.70429 0-15.76694 5.74134-20.00914 7.62675-0.35615 0.1583-0.64755-12.17762-0.64755-27.41315v-27.70095h-31.51433-31.51434v31.06978 31.06978l25.60194 0.2287 25.60194 0.2287-5.95945 4.46512c-3.27769 2.4558-8.66875 7.21533-11.98013 10.57672l-6.02068 6.11162h-13.62181-13.62181v27.03873c0 17.72931-0.35916 28.80263-1.04315 32.16188-1.34893 6.62494-1.34893 32.97721 0 39.60214 0.64961 3.1904 1.04315 13.20655 1.04315 26.54975v21.42659l9.28162 0.006 9.28162 0.006 2.15852 3.22951c1.18718 1.77623 5.4193 6.63023 9.40471 10.78668l7.2462 7.55689h-151.00337c-149.154573 0-151.0378152-0.024-153.8173251-1.719zm77.4986171-50.94559v-31.08264h-31.082631-31.082631v28.11747c0 17.55357 0.332543 28.73884 0.885114 29.77133 2.130316 3.98052 3.901482 4.20523 33.435291 4.24189l27.844857 0.0346v-31.08263zm84.613828 0v-31.08264h-31.51433-31.51434v31.08264 31.08263h31.51434 31.51433v-31.08263zm83.75042 0v-31.08264h-31.08263-31.08263v31.08264 31.08263h31.08263 31.08263v-31.08263zm-168.364248-84.18213v-31.51433h-31.082631-31.082631v31.51433 31.51433h31.082631 31.082631v-31.51433zm84.613828 0v-31.51433h-31.51433-31.51434v31.51433 31.51433h31.51434 31.51433v-31.51433zm-84.613828-84.18212v-31.08263h-31.082631-31.082631v31.08263 31.08263h31.082631 31.082631v-31.08263zm84.613828 0v-31.08263h-31.51433-31.51434v31.08263 31.08263h31.51434 31.51433v-31.08263zm83.75042 0v-31.08263h-31.08263-31.08263v31.08263 31.08263h31.08263 31.08263v-31.08263zm-137.74904-138.0035c-3.93457-1.82965-7.84754-6.04238-8.81445-9.48969-0.35601-1.2693-0.6473-15.71221-0.6473-32.09534v-29.78752l2.16097-3.85924c3.53358-6.31057 7.08548-7.76578 18.99249-7.7812 11.41438-0.0148 14.19452 0.93533 18.50185 6.32311l2.6516 3.31674 0.24703 31.02452c0.23229 29.17416 0.14673 31.25127-1.43465 34.82625-1.10663 2.50171-2.93964 4.6351-5.36041 6.23884-3.40368 2.2549-4.39382 2.45465-13.24325 2.67162-7.88617 0.19336-10.17684-0.0502-13.05388-1.38809zm192.57535-0.47246c-5.18856-2.45289-8.36088-5.67569-10.72272-10.89335-1.64343-3.63056-1.75751-5.55547-1.73982-29.35582 0.0137-18.50135 0.32212-26.31864 1.12698-28.57029 3.02497-8.46255 10.76789-13.73662 20.16688-13.73662 6.52622 0 10.06962 1.33974 14.76656 5.58314 6.25953 5.65511 6.62134 7.6618 6.62134 36.72377v25.47049l-2.39569 4.87838c-5.15584 10.4989-17.36664 14.8438-27.82353 9.9003z"/>
	</g>
</svg>
