<svg xmlns:rdf="http://www.w3.org/1999/02/22-rdf-syntax-ns#" xmlns="http://www.w3.org/2000/svg" height="512" width="512" version="1.1" xmlns:cc="http://creativecommons.org/ns#" xmlns:dc="http://purl.org/dc/elements/1.1/" viewBox="0 0 512.00001 512.00001">
	<g transform="translate(0 -540.36)">
		<path d="m6.2126 1051c-6.6953-3-6.2126 16.8-6.2126-254.54-0.0000097674-272.25-0.52092-251.63 6.4319-254.54 5.2975-2.2134 493.84-2.2134 499.14 0 6.9528 2.9051 6.4319-17.709 6.4319 254.54 0 213.77-0.1921 246.52-1.464 249.57-2.7652 6.6181-0.4635 6.4319-79.504 6.4319h-71.032v-85.5-85.5h33.066c33.707 0 35.811-0.21308 38.652-3.9133 0.90714-1.1815 1.2263-11.309 1.25-39.662l0.0318-38.076-2.5793-2.4243-2.5793-2.4243-33.921-0.28785-33.921-0.28784 0.0439-20.212c0.0717-33.017 1.5691-39.712 10.047-44.922 5.857-3.5989 15.884-4.7816 40.883-4.8224 20.428-0.0333 21.516-0.24533 23.863-4.6525 1.5904-2.986 1.6385-68.179 0.0529-71.659-2.1619-4.745-3.0183-4.8311-43.963-4.4227-38.01 0.37913-38.535 0.41247-48.426 3.0794-29.572 7.9732-51.757 27.248-62.662 54.442-6.8883 17.178-8.8362 32.376-8.8374 68.952l-0.00085 24.207-28.921 0.29328-28.921 0.29328-2.579 2.4243-2.579 2.4243 0.0318 38.076c0.0237 28.354 0.34286 38.481 1.25 39.662 2.7976 3.6438 5.1153 3.9133 33.652 3.9133h28.066v85.5 85.5l-130.75-0.039c-111.04-0.1-131.25-0.3-134.04-1.5z"/>
	</g>
</svg>
