<?xml version="1.0" encoding="UTF-8" standalone="no"?>
<svg xmlns:rdf="http://www.w3.org/1999/02/22-rdf-syntax-ns#" xmlns="http://www.w3.org/2000/svg" height="512" width="512" version="1.1" xmlns:cc="http://creativecommons.org/ns#" xmlns:dc="http://purl.org/dc/elements/1.1/" viewBox="0 0 512.00001 512.00001">
	<g transform="translate(0 -540.36)">
		<path d="m-13.695 988.1v-64.263h18.429 18.429l0.27064-72.332 0.27064-72.332 50.568-35.588c27.812-19.574 50.917-35.617 51.344-35.651 0.42697-0.0345 0.90104 16.018 1.0535 35.673l0.27721 35.736 51.095-35.826 51.095-35.826 0.52674 35.949 0.52675 35.949 50.505-35.442c27.778-19.493 51.126-35.68 51.885-35.971 1.1283-0.43299 1.3793 12.429 1.3793 70.695v71.224h17.416c12.986 0 17.532-0.33498 17.874-1.3169 0.25228-0.72428 4.5055-54.65 9.4517-119.84 4.9461-65.185 9.2838-121.48 9.6392-125.1l0.64621-6.5844h29.311 29.311l0.57162 4.4774c0.31439 2.4626 4.1585 58.759 8.5425 125.1 4.384 66.344 8.1706 121.22 8.4146 121.94 0.33364 0.99016 5.2873 1.3169 19.966 1.3169h19.523v36.872 36.872h10.535 10.535v64.263 64.263h-269.7-269.7v-64.263zm169.09-82.173v-37.399h-40.56-40.56l-0.2767 37.675-0.2767 37.675 40.836-0.27575 40.836-0.27576v-37.399zm140.39 0.26338-0.27668-37.663h-40.56-40.56l-0.27669 37.663-0.27668 37.663h41.113 41.113l-0.27668-37.663zm141.95-0.26338v-37.399h-40.56-40.56l-0.27669 37.675-0.2767 37.675 40.836-0.27575 40.836-0.27576v-37.399zm-120.37-320.73c-8.9236-4.1588-22.576-18.661-19.997-21.241 0.39469-0.39469 5.3517 1.0628 11.016 3.2389 7.783 2.9902 12.41 4.0914 18.944 4.509 7.8579 0.50207 9.1547 0.29768 14.222-2.2416 3.0668-1.5367 10.791-7.3064 17.164-12.822 13.779-11.923 21.664-16.281 29.459-16.281 7.1011 0 15.334 4.0838 21.794 10.811 4.6862 4.88 8.1153 10.765 6.9509 11.929-0.30188 0.30188-5.9361-1.5485-12.52-4.112-14.947-5.8192-25.412-8.4742-30.005-7.6124-5.4371 1.02-9.7236 5.4453-14.253 14.714-4.6312 9.4778-8.6535 14.205-15.551 18.278-3.7646 2.2226-6.2575 2.8046-13.169 3.0744-7.2684 0.28365-9.3403-0.0473-14.056-2.245z"/>
	</g>
</svg>
