<?xml version="1.0" encoding="UTF-8" standalone="no"?>
<svg xmlns:rdf="http://www.w3.org/1999/02/22-rdf-syntax-ns#" xmlns="http://www.w3.org/2000/svg" height="512" width="512" version="1.1" xmlns:cc="http://creativecommons.org/ns#" xmlns:dc="http://purl.org/dc/elements/1.1/" viewBox="0 0 512.00001 512.00001">
	<g transform="translate(0 -540.36)">
		<path d="m250.5 1016.9c-2.2-0.8106-4.2156-1.4805-4.4791-1.4888-1.14-0.1-207.77-207.27-213.42-214.04-8.291-9.94-11.633-14.98-17.454-26.31-20.752-40.39-19.59-90.78 3.004-130.27 33.407-58.39 103.65-84.44 166.85-61.89 26.132 9.3259 53.677 30.841 67.504 52.725 1.6478 2.608 3.221 4.7418 3.496 4.7418s1.8482-2.1338 3.496-4.7418c7.0409-11.144 21.75-26.256 34.259-35.198 66.296-47.39 159.41-26.747 200.1 44.359 22.594 39.489 23.756 89.878 3.0039 130.27-5.8228 11.333-9.1657 16.372-17.46 26.314-8.9805 10.766-211.3 212.5-214.93 214.32-4.8058 2.397-9.5824 2.8036-13.965 1.1888z"/>
	</g>
</svg>
