<svg xmlns:rdf="http://www.w3.org/1999/02/22-rdf-syntax-ns#" xmlns="http://www.w3.org/2000/svg" height="512" width="512" version="1.1" xmlns:cc="http://creativecommons.org/ns#" xmlns:dc="http://purl.org/dc/elements/1.1/" viewBox="0 0 512.00001 512.00001">
	<g transform="translate(0 -540.36)">
		<path d="m243.58 1003.1c-8.1062-2.861-20.477-9.1393-31.343-15.907-50.53-31.43-140.16-109.56-173.04-150.79-18.477-23.17-30.937-48.64-36.573-74.75-2.2382-10.37-2.5984-14.49-2.6266-30.05-0.047753-26.4 3.9261-44 14.932-66.11 19.612-39.404 55.102-67.128 97.674-76.301 6.4881-1.398 12.715-1.8186 26.51-1.7903 16.466 0.0338 18.887 0.2732 27.912 2.7618 27.256 7.5152 49.886 22.375 76.259 50.075l12.949 13.601 15.562-15.708c27.382-27.64 48.96-41.522 75.403-48.509 11.248-2.9721 38.943-3.2019 51.808-0.42981 14.653 3.1574 30.885 9.4201 42.459 16.382 66.114 39.768 89.367 123.09 54.208 194.25-13.464 27.248-32.555 50.514-72.093 87.856-52.322 49.416-109.09 93.452-141.45 109.72-17.177 8.6365-26.448 10.018-38.558 5.7432zm30.703-36.262c37.585-21.729 98.64-71.407 145.88-118.7 36.581-36.62 52.898-62.881 59.065-95.062 1.8561-9.6852 2.1202-13.71 1.6746-25.522-0.29096-7.7127-1.2225-17.194-2.0701-21.069-10.432-47.695-50.255-84.135-96.725-88.508-23.141-2.1774-42.528 3.8575-64.758 20.158-3.823 2.8033-16.5 14.725-28.171 26.493-21.973 22.156-26.143 25.32-33.37 25.32-6.9312 0-11.074-3.057-25.903-19.113-16.761-18.148-28.531-28.891-40.104-36.605-20.241-13.491-38.2-18.332-60.292-16.253-46.469 4.3724-86.326 40.845-96.72 88.508-2.44 11.188-2.8862 32.332-0.9203 43.606 4.5798 26.264 17.178 51.031 38.315 75.322 10.101 11.609 46.352 47.23 60.704 59.65 27.141 23.487 33.396 28.719 48.295 40.398 33.674 26.396 63.103 45.723 74.623 49.007 3.2446 0.92492 10.085-1.6249 20.477-7.6328z"/>
	</g>
</svg>
