<?xml version="1.0" encoding="UTF-8" standalone="no"?>
<svg id="svg2" xmlns:rdf="http://www.w3.org/1999/02/22-rdf-syntax-ns#" xmlns="http://www.w3.org/2000/svg" height="512" width="512" version="1.1" xmlns:cc="http://creativecommons.org/ns#" xmlns:dc="http://purl.org/dc/elements/1.1/" viewBox="0 0 512.00001 512.00001">
	<g id="layer1" transform="translate(0,-540.36216)">
		<path id="path3516" d="m184.60432 1051.34c-4.78124-1.4576-8.41079-5.7409-9.64183-11.3785-0.75426-3.4542-1.00849-19.4558-0.78799-49.59932l0.3255-44.5 2.5-4.98323c5.04659-10.05931 7.97618-10.49955 69.93428-10.50922 60.3245-0.009 57.94541-0.65009 60.21523 16.21594 0.72079 5.35589 0.94675 23.17483 0.65591 51.72362-0.47677 46.80101-0.46783 46.72151-5.80732 51.55521-2.14546 1.9423-3.76393 2.0027-58.35238 2.178-30.88015 0.099-57.44877-0.217-59.0414-0.7025zm154.42614-1.7935c-8.45786-8.4579-8.87537-36.3447-0.6597-44.0629l2.32044-2.1799 62.57441 0.2792 62.57442 0.2793 2.55096 2.397c3.83914 3.6075 5.07455 8.4842 5.09265 20.103 0.0193 12.3911-1.56641 18.7468-5.65466 22.6645l-2.95898 2.8355-61.47545 0.2865-61.47545 0.2864-2.88864-2.8886zm-289.03046 0.0641c-2.277864-1.1379-4.285659-3.3064-5.75-6.2103l-2.25-4.4619v-186.28811-186.28811h-13.54966c-14.639107 0-17.535203-0.74984-21.2791196-5.50946-2.8095375-3.57175-3.6257407-9.47241-1.8830889-13.61361 2.5750892-6.11939 56.8988385-99.31565 59.5424145-102.14925 5.47878-5.87261 14.874837-5.87261 20.325755 0 1.415288 1.52478 15.529419 25.20087 31.364739 52.61354 24.75279 42.84979 28.80025 50.4246 28.85388 54.00001 0.0805 5.36652-2.01954 9.5083-6.2728 12.37144-3.1334 2.10929-4.47531 2.28733-17.23968 2.28733h-13.8418l-0.26032 187.25c-0.25892 186.24302-0.27126 187.26882-2.29434 190.75002-3.7313 6.4205-6.240725 6.9969-30.46598 6.9969-18.467726 0-21.993626-0.2466-25-1.7485zm290.13305-72.78992c-4.89513-4.11898-7.41344-12.19182-7.47382-23.9585-0.0435-8.48627 0.29995-10.72363 2.26918-14.78046 4.0597-8.36345-3.22049-7.71954 87.27832-7.71954h80.76172l3.26577 2.91916 3.26578 2.91916v16.83084c0 15.1608-0.20335 17.17813-2.04938 20.33084-1.28647 2.19707-3.33393 3.94432-5.5 4.69356-2.55253 0.88291-23.66667 1.20825-81.12389 1.25l-77.67328 0.0564-3.0204-2.5415zm-155.52873-120.4807c-4.77792-1.45656-8.4104-5.7413-9.64637-11.37849-0.76054-3.46881-1.0125-19.32812-0.78799-49.59931l0.33004-44.5 2.5-4.98323c3.06225-6.10395 6.42836-8.15439 15.55113-9.47287 9.11697-1.31763 99.78392-1.35637 104.50572-0.0447 1.95626 0.54345 4.7662 2.2504 6.24432 3.79321 4.38165 4.57346 5.01113 13.39946 4.50425 63.15465-0.47677 46.80096-0.46783 46.72153-5.80732 51.55525-2.14546 1.94223-3.76393 2.00264-58.35238 2.17792-30.88015 0.0992-57.44877-0.21697-59.0414-0.70248zm154.38967-1.82997c-8.59004-8.59004-8.77351-37.4565-0.28053-44.13708 2.49701-1.96414 3.96119-2.01071 63.1714-2.0092 68.31216 0.002 65.519-0.29942 69.54103 7.49845 1.71539 3.32578 2.06406 5.85409 2.06862 15 0.008 16.80846-3.09919 24.37094-10.63371 25.87784-1.71094 0.34219-29.63917 0.62216-62.06272 0.62216h-58.95193l-2.85216-2.85217zm1.13906-72.68933c-4.89513-4.11898-7.41344-12.19182-7.47382-23.9585-0.0435-8.48627 0.29995-10.72363 2.26918-14.78046 4.0597-8.36345-3.22049-7.71954 87.27832-7.71954h80.76172l3.26577 2.91916 3.26578 2.91916v16.83084c0 14.37541-0.26499 17.31647-1.81642 20.15962-3.47741 6.37272-0.65059 6.17122-86.57474 6.17122h-77.95539l-3.0204-2.5415zm-155.73758-120.53959c-4.75847-1.38056-8.14419-5.42377-9.42243-11.2522-0.77946-3.5541-1.03011-19.05582-0.80308-49.66671 0.32091-43.2685 0.39042-44.63071 2.51201-49.22333 1.2939-2.8009 3.48097-5.51329 5.37357-6.66425 6.67358-4.05845 13.02526-4.20502 169.12129-3.9025 149.43154 0.2896 149.68146 0.29346 152.5 2.35461 1.55274 1.1355 3.72317 3.8355 4.82317 6 1.9193 3.77667 2 5.91396 2 52.96908 0 45.82581-0.12285 49.30596-1.87785 53.19673-3.55666 7.88496 10.31671 7.28047-164.77328 7.17947-89.4746-0.0516-157.67676-0.47544-159.4534-0.9909z"/>
	</g>
</svg>
