<?xml version="1.0" encoding="UTF-8" standalone="no"?>
<svg id="svg2" xmlns:rdf="http://www.w3.org/1999/02/22-rdf-syntax-ns#" xmlns="http://www.w3.org/2000/svg" height="512" width="512" version="1.1" xmlns:cc="http://creativecommons.org/ns#" xmlns:dc="http://purl.org/dc/elements/1.1/" viewBox="0 0 512.00001 512.00001">
	<g id="layer1" transform="translate(0,-540.36216)">
		<g id="g3836" transform="matrix(1.1950694,0,0,1.1950694,0,539.93484)">
			<g id="g3790">
				<g id="g3792">
					<g id="g3794">
						<path id="path3796" d="m145.978 96.146h163.125c-1.146-15.041-13.742-26.931-29.073-26.931h-250.861c-16.084 0-29.169 13.086-29.169 29.169v129.44c0 16.084 13.085 29.17 29.169 29.17h22.029v51.382c0 3.552 2.072 6.778 5.302 8.255 1.208 0.553 2.497 0.823 3.775 0.823 2.14 0 4.255-0.755 5.938-2.21l39.048-33.74c-1.338-4.141-2.069-8.551-2.069-13.131v-129.44c-0.001-23.592 19.193-42.787 42.786-42.787z"/>
						<path id="path3798" d="m399.259 110.975h-250.86c-16.084 0-29.17 13.085-29.17 29.169v129.441c0 16.084 13.086 29.169 29.17 29.169h146.403l67.414 58.25c1.683 1.453 3.798 2.209 5.938 2.209 1.276 0 2.564-0.271 3.773-0.823 3.23-1.478 5.303-4.702 5.303-8.255v-51.38h22.028c16.084 0 29.169-13.085 29.169-29.169v-129.441c0.001-16.084-13.084-29.17-29.168-29.17zm-198.057 115.349c-12.785 0-23.15-10.365-23.15-23.15s10.365-23.149 23.15-23.149 23.149 10.365 23.149 23.149c0.001 12.786-10.364 23.15-23.149 23.15zm72.627 0c-12.785 0-23.149-10.365-23.149-23.15s10.365-23.149 23.149-23.149c12.785 0 23.148 10.365 23.148 23.149 0.002 12.786-10.363 23.15-23.148 23.15zm72.627 0c-12.785 0-23.15-10.365-23.15-23.15s10.365-23.149 23.15-23.149 23.147 10.365 23.147 23.149c0.001 12.786-10.363 23.15-23.147 23.15z"/>
					</g>
				</g>
			</g>
		</g>
	</g>
</svg>
