<svg xmlns:rdf="http://www.w3.org/1999/02/22-rdf-syntax-ns#" xmlns="http://www.w3.org/2000/svg" height="512" width="512" version="1.1" xmlns:cc="http://creativecommons.org/ns#" xmlns:dc="http://purl.org/dc/elements/1.1/" viewBox="0 0 512.00001 512.00001">
	<g transform="translate(0 -540.36)">
		<path d="m72.64 1051.8c-4.0307-1.1599-7.3662-4.088-9.0864-7.9767l-1.0873-2.458-0.007-246.09-0.007-246.09 1.3226-2.2569c1.645-2.807 5.3727-5.3307 8.9732-6.075 1.9077-0.39438 41.494-0.52405 130.11-0.42619l127.36 0.14065 2.393 1.2471c3.4144 1.7794 112.33 110.55 114.06 113.91 3.1822 6.173 2.9564-9.6837 2.806 197.02l-0.13736 188.77-1.3085 2.5616c-0.71967 1.4088-2.3123 3.4867-3.5391 4.6175-4.413 4.0677 13.048 3.7281-188.95 3.6746-114.89-0.03-181.76-0.236-182.9-0.5622zm347.18-200.94v-171.77l-49.058-0.012c-48.184-0.011-49.1-0.031-51.451-1.0936-2.9294-1.3245-5.5646-3.7787-7.0928-6.6056l-1.1499-2.1271-0.2659-50.254-0.26589-50.254-109.95-0.13421-109.95-0.13421v227.08 227.08h164.59 164.59v-171.77zm-168.84 84.708c-2.4002-0.8201-4.9369-3.2131-26.071-24.594-63.827-64.574-65.323-66.131-66.396-69.117-1.9717-5.486-0.15916-13.271 3.8813-16.671 3.9204-3.2988 10.131-3.8131 15.632-1.2945 2.9733 1.3612 5.8411 4.1848 47.189 46.461l16.724 17.099 0.26589-110.16 0.2659-110.16 1.1937-2.4221c5.435-11.028 20.373-11.167 25.474-0.2368l1.2408 2.6589 0.008 110.35 0.008 110.35 13.447-13.561c7.3961-7.4583 21.574-21.856 31.506-31.994 17.847-18.218 18.095-18.444 21.209-19.342 3.9874-1.15 7.6954-0.8079 11.681 1.0777 5.0348 2.3818 7.6264 7.1786 7.0878 13.119-0.55651 6.1371-0.87543 6.5224-29.421 35.544-46.893 47.676-60.495 61.202-62.695 62.346-2.904 1.5092-8.6778 1.7732-12.231 0.5592zm148.1-285.89c0-0.0741-13.521-13.654-30.046-30.177l-30.046-30.043v30.177 30.177h30.046c16.525 0 30.046-0.0606 30.046-0.13471z"/>
	</g>
</svg>
