<?xml version="1.0" encoding="UTF-8" standalone="no"?>
<svg id="svg2" xmlns:rdf="http://www.w3.org/1999/02/22-rdf-syntax-ns#" xmlns="http://www.w3.org/2000/svg" height="512" width="512" version="1.1" xmlns:cc="http://creativecommons.org/ns#" xmlns:dc="http://purl.org/dc/elements/1.1/" viewBox="0 0 512.00001 512.00001">
	<g id="layer1" transform="translate(0,-540.36216)">
		<path id="path3655" d="m371.4701 1051.8111c-0.18732-0.3031-1.86974-0.7353-3.73867-0.9603-6.03269-0.7265-16.27531-3.6002-23.54621-6.6062-27.25636-11.2683-49.05851-33.0705-60.32684-60.32685-3.00771-7.27514-5.87962-17.51376-6.60731-23.55556-0.22572-1.87407-0.65787-3.4074-0.96036-3.4074-0.32354 0-0.54994-6.09913-0.54994-14.81482 0-8.7157 0.2264-14.81481 0.54994-14.81481 0.30249 0 0.73464-1.53335 0.96036-3.40742 0.72769-6.0418 3.5996-16.28042 6.60731-23.55555 10.15439-24.56191 29.10807-45.0006 52.62313-56.74615 10.26827-5.12891 22.9104-9.21778 31.55556-10.20608 2.03704-0.23287 3.7037-0.66389 3.7037-0.95781 0-0.30264 6.16812-0.53441 14.22222-0.53441s14.22222 0.23177 14.22222 0.53441c0 0.29392 1.66667 0.72345 3.70371 0.95451 6.80718 0.77213 16.70871 3.62202 25.33334 7.29155 25.91245 11.02498 47.15751 32.27004 58.18249 58.18249 3.57951 8.41308 6.46425 18.34545 7.26901 25.02771 0.22507 1.86893 0.65723 3.55134 0.96034 3.73866 0.31487 0.19461 0.55112 6.40728 0.55112 14.4929 0 8.08561-0.23625 14.29828-0.55112 14.49289-0.30311 0.18732-0.73527 1.86974-0.96034 3.73867-0.22508 1.86894-1.02974 5.81417-1.78813 8.76717-8.62503 33.5838-32.07567 61.0053-63.66337 74.4433-8.41428 3.5796-18.34612 6.4641-25.02771 7.2688-1.86893 0.225-3.55134 0.6572-3.73866 0.9603-0.19461 0.3149-6.40728 0.5511-14.4929 0.5511-8.08561 0-14.29828-0.2362-14.49289-0.5511zm5.08719-46.5254c2.55369-1.0917 81.99541-80.56022 82.8601-82.88802 0.85229-2.2944 0.77611-5.40793-0.18799-7.68416-0.44422-1.04878-4.39387-5.40109-8.77698-9.67179-8.54279-8.3237-9.8055-9.03396-14.5635-8.19175-1.9589 0.34675-5.76984 3.9311-32.16134 30.24908-16.46652 16.42064-30.335 29.85573-30.81885 29.85573-0.48386 0-8.21126-7.36014-17.172-16.35586s-17.15036-16.72905-18.19915-17.18519c-2.52003-1.09599-5.12889-1.04843-7.45586 0.13592-2.7039 1.3762-16.39492 14.96041-17.37349 17.23794-1.04872 2.44081-1.04452 5.61372 0.0109 8.03807 0.9754 2.24111 53.71461 54.96773 56.35525 56.34183 2.24848 1.1699 4.9241 1.2122 7.48319 0.1182zm-336.372091 37.5821c-11.811191-2.3709-21.273277-11.2913-24.299121-22.9083-0.776168-2.9799-0.886075-24.02102-0.886143-169.64774l-0.000077-166.24588h52.592672c59.51139 0 56.00845 0.25411 66.46874-4.82183 4.75388-2.30686 6.37662-3.50997 10.96312-8.1281 6.10012-6.14218 8.56237-9.96057 11.22912-17.4138l1.85762-5.19183 0.16603-54.07408 0.16603-54.07408h113.43444c80.00468 0 114.3599 0.19158 116.57472 0.65006 11.28563 2.3362 21.03018 11.5941 24.26547 23.05364 0.59461 2.10616 0.79168 27.81399 0.93754 122.30451l0.18467 119.63783-2.53111-0.37367c-1.39211-0.20553-4.73486-0.77058-7.42835-1.25568-35.04161-6.31108-73.87872 2.88742-103.53453 24.52198l-4.13544 3.01691-94.23492 0.005-94.23492 0.005-2.96728 1.38179c-5.779626 2.69143-9.004154 8.28004-8.430115 14.61067 0.515276 5.68258 3.874325 10.14697 9.619615 12.78509 0.69106 0.31731 34.7004 0.66774 81.57352 0.8405l80.38835 0.2963-3.55386 5.62963c-9.11009 14.4312-15.5528 31.34648-18.92839 49.69627-1.51739 8.24855-2.148 28.66517-1.15567 37.41539 2.27731 20.08087 8.96829 39.96254 19.09292 56.73302 4.92878 8.1641 13.07901 18.5885 20.06388 25.6626l6.41093 6.4925-123.64955-0.065c-68.007245-0.036-124.716208-0.279-126.019911-0.5406zm186.708671-107.47199c7.3304-3.41339 10.5173-12.63317 6.83583-19.77625-1.35395-2.62703-4.2882-5.50761-7.17412-7.04288-1.97407-1.05018-4.81702-1.11232-58.96296-1.28878-39.75591-0.12955-57.78124 0.0109-59.85186 0.46512-8.519357 1.87037-13.40059 10.52335-10.834895 19.20708 0.891864 3.01858 5.852245 8.15504 8.760815 9.07181 1.44806 0.45641 19.60262 0.67025 60.14815 0.70844l58.07409 0.0547 3.00495-1.39925zm109.76852-155.97599c3.85676-1.92191 6.40564-4.95326 7.60188-9.04084 2.00689-6.8576-1.11724-13.8728-7.78276-17.47615l-2.37037-1.2814-111.70371-0.1811c-79.07168-0.1282-112.56928 0.008-114.66667 0.46511-13.60526 2.96725-15.621905 21.763-2.96728 27.65596l2.96728 1.38179 112.92069 0.005 112.92069 0.005 3.08025-1.53495zm-313.662377-114.4036c-2.605319-1.38197-4.991506-3.76192-6.276494-6.26007-1.523649-2.96213-1.505409-8.2119 0.03958-11.39207 0.78943-1.62494 17.911364-19.13044 52.592595-53.77077 47.157936-47.10232 51.642886-51.41952 54.084456-52.06158 6.40579-1.68454 12.63034 0.90521 15.53366 6.46281l1.65584 3.16962-0.0146 46.00641c-0.009 28.86146-0.23789 46.9755-0.61398 48.60684-1.7412 7.55281-7.24893 14.35685-14.48264 17.89128l-4.14815 2.02681-48.296294 0.13187c-43.186681 0.11792-48.484384 0.0321-50.074077-0.81115z"/>
	</g>
</svg>
