<?xml version="1.0" encoding="UTF-8" standalone="no"?>
<svg id="svg2" xmlns:rdf="http://www.w3.org/1999/02/22-rdf-syntax-ns#" xmlns="http://www.w3.org/2000/svg" height="512" width="512" version="1.1" xmlns:cc="http://creativecommons.org/ns#" xmlns:dc="http://purl.org/dc/elements/1.1/" viewBox="0 0 512.00001 512.00001">
	<g id="layer1" transform="translate(0,-540.36216)">
		<g id="g3453" transform="matrix(.54712545 0 0 .54712545 .325916 540.36216)">
			<g id="g3403">
				<path id="path3405" d="m35.959 882.9c0 29.199 23.7 52.9 52.9 52.9h283.6 283.6c29.2 0 52.9-23.701 52.9-52.9v-299.201l-38.299 83.301c-5.9 12.9-15.601 23.301-27.9 30.301l-0.2 0.1-0.2 0.1-110.7 60.499c-6.7 3.699-14.301 5.6-22 5.6-10.301 0-20.4-3.5-28.4-9.9-8.4-6.699-14.3-16.1-16.5-26.699l-20.5-98.5h-246.1c-13.8 0-25-11.199-25-25s11.2-25 25-25h240.8c1-5.4 2.7-10.699 5-15.699l32.1-69.801h-277.9c-13.8 0-25-11.199-25-25 0-13.8 11.2-25 25-25h300.9l121.5-263.899 12.5-27.2 0.2 0.1 0.8-1.8 29-62.9c-2.3-0.3-4.7-0.5-7.1-0.5h-283.5-94.3v17.5c0.199 1.8 0.3 3.7 0.3 5.6v144.9c0 41.1-33.4 74.5-74.5 74.5h-145c-1.5 0-3.1-0.1-4.6-0.2h-18.4v553.798zm162.2-176.9h185c13.8 0 25 11.199 25 25s-11.2 25-25 25h-185c-13.8 0-25-11.199-25-25s11.2-25 25-25z"/>
				<path id="path3407" d="m203.959 299.2c24.6 0 44.5-19.9 44.5-44.5v-145c0-13.4-11-22.3-22.4-22.3-5.5 0-11 2-15.6 6.6l-167.2 167.2c-14 14-4.1 38 15.7 38h145z"/>
				<path id="path3409" d="m870.759 42-81.3-37.4c-6.8-3.1-13.9-4.6-20.9-4.6-18.899 0-37 10.8-45.5 29.1l-17 36.9 171.9 79 0.2 0.1 17-36.9c11.7-25 0.7-54.7-24.4-66.2z"/>
				<polygon id="polygon3411" points="833.559 241.7 864.759 173.9 865.559 172.4 693.359 93.3 692.66 94.8 690.559 99.4 661.459 162.6 708.959 184.5"/>
				<polygon id="polygon3413" points="509.16 492.9 475.859 565.199 503.759 578.5 588.059 618.5 647.059 646.5 708.959 511.9 819.959 270.7 708.959 219.7 647.859 191.6 532.16 442.9"/>
				<path id="path3415" d="m468.059 594.801c0.101 1.1 0.3 2.199 0.5 3.199l6.3 30.5 19.2 92.5c1.601 7.699 8.4 12.6 15.601 12.6 2.5 0 5.1-0.6 7.6-2l110.7-60.5c0.2-0.1 0.3-0.199 0.5-0.299l-89.3-42.4-71.101-33.6z"/>
			</g>
		</g>
	</g>
</svg>
