<svg xmlns:rdf="http://www.w3.org/1999/02/22-rdf-syntax-ns#" xmlns="http://www.w3.org/2000/svg" height="512" width="512" version="1.1" xmlns:cc="http://creativecommons.org/ns#" xmlns:dc="http://purl.org/dc/elements/1.1/" viewBox="0 0 512.00001 512.00001">
	<g transform="translate(0 -540.36)">
		<path d="m48.242 1052c-8.7469-1.5838-15.919-8.8325-17.432-17.619-0.34964-2.0303-0.38276-26.412-0.32466-239.05l0.0647-236.78 0.57204-2.0152c2.1344-7.5191 8.0383-13.407 15.605-15.563l1.9596-0.5583 125.95-0.074c90.147-0.053 126.5 0 127.89 0.2018 3.9821 0.5636 8.0896 2.4373 10.758 4.907 7.0797 6.5539 160.51 151.74 161.95 153.24 3.1681 3.3187 5.1508 7.1144 5.9452 11.382 0.36132 1.9409 0.39246 17.197 0.33334 163.1l-0.0653 160.96-0.57203 2.0152c-2.1344 7.5189-8.0384 13.407-15.605 15.563l-1.9596 0.5584-206.56 0.041c-176.51 0.035-206.84-0.011-208.51-0.3133zm389.5-185.47v-143.29l-73.442-70.191-73.442-70.191h-108.93-108.93v213.48 213.48h182.37 182.37v-143.29z"/>
	</g>
</svg>
