<?xml version="1.0" encoding="UTF-8" standalone="no"?>
<svg id="svg2" xmlns:rdf="http://www.w3.org/1999/02/22-rdf-syntax-ns#" xmlns="http://www.w3.org/2000/svg" height="512" width="512" version="1.1" xmlns:cc="http://creativecommons.org/ns#" xmlns:dc="http://purl.org/dc/elements/1.1/" viewBox="0 0 512.00001 512.00001">
	<g id="layer1" transform="translate(0,-540.36216)">
		<path id="path3488" d="m374.59483 1051.7318c-26.11986-2.7277-53.12661-16.7614-70.3687-36.5662-23.33879-26.8077-32.4695-62.42597-24.81469-96.80055 10.29044-46.21015 48.94291-80.47421 96.42263-85.47527 29.71316-3.1297 60.5591 6.80431 83.7091 26.95874 16.8284 14.65083 29.52554 36.18823 34.49778 58.51653 11.11531 49.91431-13.67885 101.12195-59.55106 122.99135-19.06873 9.091-39.04989 12.5522-59.89506 10.3754zm28.61554-46.3976c3.31597-1.3864 3.3884-1.861 3.54544-23.23198l0.14387-19.58014 19.58015-0.14388c21.37093-0.15703 21.84556-0.22946 23.23193-3.54543 1.14063-2.72818 1.14063-30.24019 0-32.96837-1.38637-3.31597-1.861-3.38839-23.23193-3.54543l-19.58015-0.14387-0.14387-19.58015c-0.15704-21.37093-0.22947-21.84556-3.54544-23.23193-2.72817-1.14063-30.24018-1.14063-32.96836 0-3.31598 1.38637-3.38839 1.861-3.54543 23.23193l-0.14387 19.58015-19.58015 0.14387c-14.33292 0.10534-19.96251 0.34382-21.00692 0.89-2.70446 1.41432-3.02327 3.43263-3.02327 19.13962 0 15.70698 0.31881 17.72529 3.02327 19.1396 1.04441 0.54618 6.674 0.78469 21.00692 0.89001l19.58015 0.14388 0.14387 19.58014c0.15604 21.23678 0.2425 21.82418 3.41615 23.20768 2.57995 1.1248 30.41664 1.1452 33.09764 0.024zm-362.993497 38.1655c-11.826045-2.3738-21.300031-11.3055-24.329681-22.9371-0.777144-2.9836-0.887189-24.05117-0.887257-169.86104l-0.000077-166.45495h52.658814c59.586228 0 56.078888 0.25443 66.552328-4.8279 4.75986-2.30976 6.38464-3.51438 10.97691-8.13832 6.1078-6.1499 8.57314-9.9731 11.24324-17.4357l1.85996-5.19836 0.16624-54.14208 0.16623-54.14209h113.5771c80.1053 0 114.50372 0.19182 116.72133 0.65088 11.29983 2.33914 21.05663 11.60869 24.29599 23.08263 0.59536 2.10881 0.79267 27.84898 0.93872 122.45832l0.1849 119.7883-2.5343-0.37414c-1.39385-0.20579-4.74081-0.77156-7.43769-1.25727-35.08567-6.31901-73.97163 2.89106-103.66473 24.55282l-4.14065 3.02071-94.35343 0.005-94.35343 0.005-2.97101 1.38353c-5.786894 2.69482-9.015477 8.29045-8.440716 14.62904 0.515925 5.68973 3.879206 10.15974 9.631716 12.80117 0.69193 0.31771 34.74403 0.66859 81.67611 0.84156l80.48945 0.29667-3.55834 5.63671c-9.12155 14.44935-15.57236 31.3859-18.95219 49.75877-1.51929 8.25893-2.1507 28.70122-1.15712 37.46244 2.28017 20.10613 8.97956 40.01281 19.11693 56.8044 4.93498 8.1743 13.09545 18.6119 20.08911 25.6948l6.419 6.5007-123.80507-0.065c-68.092763-0.036-124.873045-0.2793-126.178387-0.5413zm186.943477-107.60709c7.33962-3.41768 10.53053-12.64905 6.84442-19.80112-1.35565-2.63033-4.29358-5.51453-7.18313-7.05173-1.97655-1.0515-4.82308-1.11372-59.03712-1.2904-39.80591-0.12972-57.8539 0.0109-59.92713 0.4657-8.530068 1.87272-13.41744 10.53659-10.848518 19.23124 0.892985 3.02237 5.859608 8.16529 8.771838 9.08321 1.44987 0.45699 19.62727 0.6711 60.22379 0.70933l58.14712 0.0548 3.00873-1.40101zm109.90657-156.17214c3.86161-1.92433 6.4137-4.9595 7.61144-9.05221 2.00941-6.86623-1.11864-13.89025-7.79255-17.49813l-2.37335-1.28301-111.84419-0.18133c-79.17112-0.12836-112.71085 0.008-114.81088 0.4657-13.622367 2.97097-15.641548 21.79036-2.97101 27.69073l2.97101 1.38353 113.06271 0.005 113.06269 0.005 3.08413-1.53688zm-314.056846-114.54748c-2.608596-1.38371-4.997784-3.76666-6.284387-6.26795-1.525565-2.96585-1.507303-8.22222 0.03963-11.40639 0.790423-1.62699 17.933889-19.1545 52.658736-53.83839 47.217247-47.16156 51.707827-51.48419 54.152477-52.12706 6.41384-1.68665 12.64622 0.90635 15.5532 6.47094l1.65792 3.17361-0.0146 46.06427c-0.009 28.89775-0.23819 47.03457-0.61475 48.66797-1.74339 7.5623-7.25806 14.3749-14.50086 17.91378l-4.15337 2.02936-48.357029 0.13203c-43.240994 0.11807-48.545358 0.0321-50.137051-0.81217z"/>
	</g>
</svg>
