<svg xmlns:rdf="http://www.w3.org/1999/02/22-rdf-syntax-ns#" xmlns="http://www.w3.org/2000/svg" height="512" width="512" version="1.1" xmlns:cc="http://creativecommons.org/ns#" xmlns:dc="http://purl.org/dc/elements/1.1/" viewBox="0 0 512.00001 512.00001">
	<g transform="translate(0 -540.36)">
		<path d="m87 1050c0-1.9603-1.0052-2.7918-5.6588-4.6806-11.415-4.6329-24.951-18.017-29.829-29.494-2.2774-5.3585-3.1388-6.4411-5.125-6.4411h-2.3875v-212.5-212.5h2.0255c1.5399 0 2.9167-1.8578 5.7433-7.75 5.4126-11.283 17.732-23.484 28.481-28.206 6.4602-2.8384 7.75-3.791 7.75-5.7243v-2.3193h123.5 123.5v2.3571c0 3.2698 126.69 128.99 130.46 129.46l2.5396 0.31642v173.43 173.43l-2.25 0.01c-1.6375 0-3.2028 1.5105-5.75 5.5345-4.5859 7.2447-14.814 15.92-23.25 19.718-5.5574 2.5027-6.75 3.4551-6.75 5.3908v2.3513h-171.5-171.5v-2.3839zm327.71-41.1c5.3357-1.5845 10.468-6.2393 13.986-12.685 1.7135-3.1391 1.8198-10.344 2.0627-139.81 0.2411-128.49 0.1531-136.7-1.5-139.99-0.9658-1.9174-2.8811-4.0482-4.2561-4.7353-1.91-0.95434-15.906-1.2526-59.3-1.2639-60.33-0.0157-61.344-0.0916-63.157-4.7278-0.3844-0.98285-0.64561-27.566-0.5804-59.073l0.1184-57.286-2.9639-2.9639c-1.87-1.87-4.0072-2.9704-5.7908-2.9816-1.5548-0.01-44.775-0.0219-96.044-0.027-82.71-0.008-93.644 0.16881-97 1.5708-4.9914 2.085-9.1081 6.0525-11.387 10.974-1.7825 3.85-1.8526 11.349-1.8683 200-0.0105 124.99 0.33867 197.28 0.96365 199.53 1.4357 5.1677 8.8009 11.959 14.685 13.541 3.8456 1.0337 35.456 1.3103 155.89 1.3641 131.76 0.059 151.72-0.1249 156.14-1.4382zm-235.74-86.305c-4.2351-2.052-4.9707-5.0384-4.9707-20.181 0-13.248 0.11269-14.028 2.413-16.703l2.4129-2.8058 56.561-0.2741c61.786-0.2995 62.516-0.2396 64.619 5.2908 1.2697 3.3398 1.2995 26.549 0.038 29.866-2.1948 5.7725-0.7361 5.6342-62.06 5.8861-44.766 0.1839-56.864-0.037-59.014-1.0792zm-2.0476-86.113-2.9231-2.9231v-15.903c0-15.435 0.07-15.968 2.3686-18.128l2.3687-2.2252 79.002-0.0575c43.451-0.0316 79.961 0.24675 81.132 0.61864 1.1718 0.37188 2.653 1.6526 3.2917 2.846 1.4859 2.7765 2.0174 26.926 0.70471 32.02-1.7873 6.9354 1.5536 6.6743-85.413 6.6743h-77.609l-2.923-2.9231zm214.51-168.65c3.2657-3.2657 1.0067-9.3988-5.1197-13.9-2.0949-1.539-10.823-9.9377-19.396-18.664-13.542-13.784-15.997-15.865-18.715-15.865-2.069 0-3.4784 0.6548-4.1631 1.9343-0.6088 1.1375-1.0337 9.6846-1.0315 20.75 0 17.06 0.1907 19.122 2.0064 22.1 1.1014 1.8065 3.0122 3.6905 4.2462 4.1866 1.234 0.49612 10.874 0.93057 21.422 0.96543 16.16 0.0534 19.426-0.18396 20.75-1.508z"/>
	</g>
</svg>
