<svg xmlns:inkscape="http://www.inkscape.org/namespaces/inkscape" xmlns:rdf="http://www.w3.org/1999/02/22-rdf-syntax-ns#" xmlns="http://www.w3.org/2000/svg" sodipodi:docname="file-copy.svg" height="512" width="512" version="1.1" xmlns:cc="http://creativecommons.org/ns#" xmlns:dc="http://purl.org/dc/elements/1.1/" inkscape:version="0.91 r13725" viewBox="0 0 511.99999 511.99999" xmlns:sodipodi="http://sodipodi.sourceforge.net/DTD/sodipodi-0.dtd">
	<sodipodi:namedview bordercolor="#666666" inkscape:pageshadow="2" inkscape:window-y="-8" pagecolor="#ffffff" inkscape:window-height="1017" inkscape:window-maximized="1" inkscape:zoom="0.49497475" inkscape:window-x="-8" showgrid="false" borderopacity="1.0" inkscape:current-layer="layer1" inkscape:cx="366.70293" inkscape:cy="269.41868" units="px" inkscape:window-width="1920" inkscape:pageopacity="0.0" inkscape:document-units="px"/>
	<g inkscape:label="Layer 1" inkscape:groupmode="layer" transform="translate(0 -540.36)">
		<path inkscape:connector-curvature="0" d="m35.238 830.4v-221.97h34.033 34.033v-34.033-34.033h186.73 186.73v221.36 221.36l-33.882 0.1556-33.882 0.1556-0.15552 34.485-0.15553 34.485h-186.72-186.72v-221.97zm339.73 50.899v-137.34h-50.899-50.899v-50.899-50.899h-102.1-102.1v188.24 188.24h153 153v-137.34zm68.066-119.57v-187.63h-153-153v17.167 17.167h97.128 97.128l38.703 38.699 38.703 38.699v131.36c0 72.251 0.1807 131.55 0.40159 131.77 0.22082 0.2208 7.946 0.4015 17.167 0.4015h16.765v-187.63zm-68.066-56.468v-4.9671l-29.061-29.066-29.061-29.066h-4.9717-4.9718v34.033 34.033h34.033 34.033v-4.9671z"/>
	</g>
</svg>
