<svg xmlns:rdf="http://www.w3.org/1999/02/22-rdf-syntax-ns#" xmlns="http://www.w3.org/2000/svg" height="512" width="512" version="1.1" xmlns:cc="http://creativecommons.org/ns#" xmlns:dc="http://purl.org/dc/elements/1.1/" viewBox="0 0 512.00001 512.00001">
	<g transform="translate(0 -540.36)">
		<path d="m202.84 1051.2c-4.3012-1.4077-8.9695-5.4968-10.99-9.6264-3.1735-6.4864-3.0597-2.715-3.0702-101.76l-0.01-91.107-10.124-15.063c-5.5681-8.2849-47.499-70.594-93.179-138.47-45.681-67.871-83.499-124.4-84.04-125.63-3.1664-7.1491-0.87885-17.775 5.0132-23.286 3.1766-2.9713 5.9464-4.4387 10.013-5.3045 2.3159-0.4931 60.818-0.61016 241.25-0.4827l238.19 0.16825 3.2136 1.5058c4.494 2.1058 9.335 6.8826 11.312 11.161 1.363 2.9507 1.5939 4.1399 1.5882 8.1777-0.006 4.2602-0.19739 5.1152-1.9455 8.6941-1.0663 2.1831-43.462 65.658-94.212 141.05l-92.274 137.09-0.27793 59.056-0.27793 59.056-1.2486 3.0838c-0.68672 1.6961-2.0242 4.1385-2.9721 5.4275-1.9895 2.7052-94.141 72.718-99.195 75.364-4.1868 2.192-11.577 2.5841-16.756 0.8891zm53.867-81.64 23.746-17.884 0.15644-56.822c0.15467-56.177 0.16964-56.855 1.3176-59.646 0.63865-1.5528 38.847-58.905 84.908-127.45 46.061-68.544 83.747-124.74 83.747-124.89 0-0.14345-87.549-0.2608-194.55-0.2608s-194.55 0.10187-194.55 0.22637 37.768 56.343 83.928 124.93c69.643 103.48 84.119 125.31 85.047 128.24 1.0981 3.4672 1.1189 4.9143 1.1189 78.028 0 59.515 0.13972 74.386 0.69483 73.953 0.38216-0.2984 11.38-8.5902 24.441-18.426z"/>
	</g>
</svg>
