<?xml version="1.0" encoding="UTF-8" standalone="no"?>
<svg id="svg2" xmlns:rdf="http://www.w3.org/1999/02/22-rdf-syntax-ns#" xmlns="http://www.w3.org/2000/svg" height="512" width="512" version="1.1" xmlns:cc="http://creativecommons.org/ns#" xmlns:dc="http://purl.org/dc/elements/1.1/" viewBox="0 0 512.00001 512.00001">
	<g id="layer1" transform="translate(0,-540.36216)">
		<path id="path3439" d="m192 924.44551v-128.08333h64 64l-0.0275 85.75-0.0275 85.75-63.0731 42.00002c-34.6902 23.1-63.47784 42.15-63.97253 42.3333-0.52957 0.1963-0.89937-52.32818-0.89937-127.74999zm230 96.41669v-31.50002h-31-31v-13-13h31 31v-31.5-31.5h13.5 13.5v31.5 31.5h31 31v13 13h-31-31v31.50002 31.5h-13.5-13.5v-31.5zm-326.251953-341.25196-95.748047-95.75195v-21.74805-21.74806h256 256v21.74806 21.74805l-95.74805 95.75195-95.74804 95.75194h-64.50391-64.50391l-95.748043-95.75194z"/>
	</g>
</svg>
