<?xml version="1.0" encoding="UTF-8" standalone="no"?>
<!-- Created with Inkscape (http://www.inkscape.org/) -->

<svg
   xmlns:dc="http://purl.org/dc/elements/1.1/"
   xmlns:cc="http://creativecommons.org/ns#"
   xmlns:rdf="http://www.w3.org/1999/02/22-rdf-syntax-ns#"
   xmlns:svg="http://www.w3.org/2000/svg"
   xmlns="http://www.w3.org/2000/svg"
   xmlns:sodipodi="http://sodipodi.sourceforge.net/DTD/sodipodi-0.dtd"
   xmlns:inkscape="http://www.inkscape.org/namespaces/inkscape"
   width="512"
   height="512"
   viewBox="0 0 511.99999 511.99999"
   id="svg2"
   version="1.1"
   inkscape:version="0.91 r13725"
   sodipodi:docname="folders.svg">
  <defs
     id="defs4" />
  <sodipodi:namedview
     id="base"
     pagecolor="#ffffff"
     bordercolor="#666666"
     borderopacity="1.0"
     inkscape:pageopacity="0.0"
     inkscape:pageshadow="2"
     inkscape:zoom="1"
     inkscape:cx="199.5"
     inkscape:cy="200"
     inkscape:document-units="px"
     inkscape:current-layer="layer1"
     showgrid="false"
     units="px"
     inkscape:window-width="1920"
     inkscape:window-height="1057"
     inkscape:window-x="-8"
     inkscape:window-y="-8"
     inkscape:window-maximized="1" />
  <metadata
     id="metadata7">
    <rdf:RDF>
      <cc:Work
         rdf:about="">
        <dc:format>image/svg+xml</dc:format>
        <dc:type
           rdf:resource="http://purl.org/dc/dcmitype/StillImage" />
        <dc:title></dc:title>
      </cc:Work>
    </rdf:RDF>
  </metadata>
  <g
     inkscape:label="Layer 1"
     inkscape:groupmode="layer"
     id="layer1"
     transform="translate(0,-540.36219)">
    <path
       style="fill:#000000"
       d="m 56.383506,1051.2487 c -10.572942,-2.6063 -19.332807,-10.0203 -24.248341,-20.5226 L 29.5,1025.0959 l 0,-218.89576 0,-218.89572 2.670182,-5.70682 c 5.136081,-10.97702 15.645459,-18.79057 27.967917,-20.79368 8.317991,-1.35214 119.929911,-1.36179 129.256801,-0.0111 12.18205,1.76408 23.13166,9.84108 27.7136,20.443 1.31532,3.04346 2.6165,5.53957 2.8915,5.5469 0.275,0.007 1.29185,-1.9162 2.25967,-4.27454 3.39253,-8.26678 11.85668,-16.10715 20.802,-19.26896 2.24599,-0.79386 30.71344,-6.28083 63.26098,-12.19326 66.58826,-12.0961 71.14375,-12.55187 80.86973,-8.09111 10.09378,4.62945 17.93151,13.8462 20.67561,24.31342 0.5778,2.20398 17.74842,97.10053 38.15695,210.88123 30.70087,171.16215 37.03434,208.00582 36.68894,213.43054 -1.00786,15.82916 -11.92101,28.77066 -27.71388,32.86486 -2.475,0.6415 -31.05,5.9369 -63.5,11.7674 -65.29665,11.7322 -66.39413,11.8286 -77.53623,6.8193 -7.10739,-3.1954 -14.09582,-10.2768 -17.4845,-17.7171 -1.83696,-4.0334 -10.67307,-51.51247 -38.68005,-207.83944 L 221.5,614.86317 221,819.47861 c -0.46427,189.99269 -0.62217,204.92049 -2.20952,208.88419 -4.01628,10.0287 -11.47893,17.6917 -21.06971,21.6353 -5.13727,2.1123 -6.26833,2.1496 -70.72077,2.3292 -49.794647,0.1389 -66.726814,-0.1198 -70.616494,-1.0786 z M 176,1026.2715 c 11.50834,-4.4968 13.6029,-11.6761 5.08439,-17.4271 -6.84224,-4.6193 -8.87123,-4.7865 -58.08439,-4.7865 -42.390598,0 -46.96126,0.1611 -51.719396,1.8235 -12.498719,4.3667 -14.881501,13.1874 -4.9699,18.398 7.499123,3.9424 11.568397,4.216 59.189296,3.9791 41.14174,-0.2044 46.47526,-0.4143 50.5,-1.987 z m 213,-14.2837 c 44.49417,-7.9708 51.05988,-9.755 56.38355,-15.32179 1.41951,-1.48433 2.85056,-4.04943 3.18012,-5.70022 1.15985,-5.80974 -6.60674,-10.45053 -17.48946,-10.45053 -2.85656,0 -24.17936,3.41202 -47.38398,7.58226 -45.47218,8.17209 -51.14565,9.787 -56.71715,16.14408 -3.62791,4.1395 -3.78831,7.6704 -0.48766,10.7349 6.72375,6.2426 12.53434,5.9649 62.51458,-2.9887 z M 174.77108,994.01501 c 5.59228,-1.66374 10.70613,-5.37789 11.47849,-8.33676 1.05038,-4.02396 -1.93554,-8.13252 -7.9686,-10.96461 L 172.5,971.99987 126.2064,971.70268 C 86.65896,971.4488 79.016616,971.6355 73.762943,972.98387 56.140388,977.50674 55.723485,989.32174 73,994.60561 c 1.375,0.42053 23.680824,0.80335 49.5685,0.85072 39.44634,0.0721 47.8999,-0.16125 52.20258,-1.44132 z m 208.47807,-13.97334 c 22.84156,-4.11745 44.0198,-8.41947 47.06276,-9.56005 C 436.52459,968.15295 443,961.88219 443,958.19454 c 0,-6.37489 -8.67341,-10.38066 -20.40688,-9.42483 -9.42425,0.7677 -84.27377,14.33867 -89.77668,16.2774 -9.11767,3.21224 -15.7725,9.87041 -14.35078,14.35796 0.79229,2.50081 4.47151,5.66719 8.03434,6.91446 6.20334,2.17165 15.70905,1.12008 56.74915,-6.27786 z M 178.17887,960.31664 c 12.36819,-5.8084 10.55659,-15.27016 -3.71978,-19.42793 -4.4176,-1.28656 -12.62804,-1.47744 -53.09241,-1.23435 -46.381261,0.27863 -48.009262,0.35363 -52.461308,2.41644 C 63.367856,944.63657 60,948.04138 60,951.07388 c 0,3.96359 4.648846,8.21569 11.328704,10.36188 5.836589,1.87525 8.747509,1.971 53.671296,1.7653 l 47.5,-0.21749 5.67887,-2.66693 z m 200.36171,-12.38546 c 44.51959,-8.02516 51.07157,-9.86615 56.00122,-15.73532 3.00809,-3.58138 3.2629,-8.74554 0.55276,-11.20262 -2.42505,-2.19862 -10.3104,-4.59388 -15.12333,-4.59388 -3.44496,0 -76.27591,12.62865 -87.47123,15.16723 -15.08328,3.42018 -23.94786,13.48932 -17.25,19.59402 6.67998,6.08839 13.54246,5.73823 63.29058,-3.22943 z M 163.24666,671.09007 c 7.37608,-2.92583 15.89266,-10.69501 19.24212,-17.55345 9.02813,-18.48627 1.2255,-40.83607 -17.29228,-49.53183 l -5.6965,-2.67502 -36,0 -36,0 -6,2.80458 c -20.347958,9.51124 -27.580886,34.43361 -15.328052,52.81561 5.669338,8.50528 14.335508,14.35877 23.748499,16.04074 2.518754,0.45006 18.754553,0.71943 36.079553,0.59858 30.14768,-0.21029 31.74671,-0.31758 37.24666,-2.49921 z m 162.70384,-8.13438 c 31.28576,-5.67186 32.62585,-6.001 38.518,-9.46028 18.18065,-10.67387 23.22015,-35.04647 10.92242,-52.82423 -5.67557,-8.20468 -18.68037,-14.86948 -29.01432,-14.86948 -4.03742,0 -47.81795,7.42996 -59.8766,10.16161 -21.3009,4.8253 -34.05639,25.71801 -28.14293,46.09641 3.03762,10.46801 13.41373,21.20859 23.49121,24.31638 7.73545,2.38555 15.32268,1.79711 44.10222,-3.42041 z"
       id="path3399"
       inkscape:connector-curvature="0" />
  </g>
</svg>
