<svg xmlns:rdf="http://www.w3.org/1999/02/22-rdf-syntax-ns#" xmlns="http://www.w3.org/2000/svg" height="512" width="512" version="1.1" xmlns:cc="http://creativecommons.org/ns#" xmlns:dc="http://purl.org/dc/elements/1.1/" viewBox="0 0 512.00001 512.00001">
	<g transform="translate(0 -540.36)">
		<path d="m13.397 1021.8c-5.7327-2.3568-9.692-6.4038-12.099-12.367l-1.2978-3.2153v-209.63-209.63l1.2976-3.17c2.4437-6.0542 6.6702-10.281 12.724-12.724l3.2152-1.2978 73.911-0.15468c45.502-0.0952 75.403 0.0522 77.794 0.38352 5.1939 0.71977 10.218 3.2467 13.265 6.6727 1.5319 1.722 8.0284 12.97 17.969 31.11l15.569 28.413 97.308 0.15051 97.308 0.15052 3.7259 1.7651c4.7403 2.2457 8.3886 5.894 10.634 10.634l1.7651 3.7259 0.16586 24.605 0.16588 24.605 32.085 0.003c17.647 0.002 33.507 0.23618 35.245 0.52091 4.7133 0.77204 9.0033 3.1226 12.405 6.7967 3.9362 4.2516 5.4407 8.1431 5.4461 14.087 0.006 4.3143-1.2891 8.6782-42.897 144.78-23.595 77.181-43.394 141.44-43.998 142.81-2.3696 5.3569-6.7785 9.3135-12.616 11.322-3.0809 1.06-6.5791 1.0787-199.47 1.0657l-196.34-0.013-3.2845-1.3503zm370.55-191.84v-150.96l-92.721-0.147-92.721-0.147-3.3363-1.3414c-2.3806-0.95718-4.292-2.3111-6.6726-4.7264-2.9647-3.008-5.0702-6.557-18.906-31.867l-15.569-28.482-55.744-0.0153-55.744-0.0153v184.33 184.33h170.71 170.71v-150.96zm-218.37 81.496c-1.5984-0.5448-3.8504-1.6413-5.0044-2.4366-3.4242-2.3598-56.091-54.937-57.758-57.66-8.5935-14.035-0.68574-31.507 15.625-34.522 2.3351-0.4317 4.2273-0.421 6.8917 0.039 7.1788 1.2392 8.1545 1.9998 28.695 22.37l18.906 18.748 53.38-53.304c36.976-36.923 54.149-53.704 55.883-54.605 9.4846-4.9313 19.787-3.5653 26.922 3.5698 7.1582 7.1582 8.8042 16.771 4.4414 25.94-1.265 2.6583-10.319 11.942-64.377 66.009-44.53 44.538-63.616 63.272-65.341 64.133-5.8938 2.9437-12.771 3.5911-18.263 1.7193zm278.96-109.08c9.4928-31.071 17.26-56.781 17.26-57.134 0-0.4707-4.6577-0.6412-17.515-0.6412h-17.515l0.0439 57.69c0.0241 31.729 0.13927 57.44 0.25584 57.134 0.11657-0.3058 7.9787-25.978 17.472-57.048z"/>
	</g>
</svg>
