<svg xmlns:inkscape="http://www.inkscape.org/namespaces/inkscape" xmlns:rdf="http://www.w3.org/1999/02/22-rdf-syntax-ns#" xmlns="http://www.w3.org/2000/svg" sodipodi:docname="folder-doc.svg" height="512" width="512" version="1.1" xmlns:cc="http://creativecommons.org/ns#" xmlns:dc="http://purl.org/dc/elements/1.1/" inkscape:version="0.91 r13725" viewBox="0 0 512.00001 512.00001" xmlns:sodipodi="http://sodipodi.sourceforge.net/DTD/sodipodi-0.dtd">
	<sodipodi:namedview bordercolor="#666666" inkscape:pageshadow="2" inkscape:window-y="-8" pagecolor="#ffffff" inkscape:window-height="1017" inkscape:window-maximized="1" inkscape:zoom="0.35" inkscape:window-x="-8" showgrid="false" borderopacity="1.0" inkscape:current-layer="layer1" inkscape:cx="-126.42857" inkscape:cy="520" units="px" inkscape:window-width="1920" inkscape:pageopacity="0.0" inkscape:document-units="px"/>
	<g inkscape:label="Layer 1" inkscape:groupmode="layer" transform="translate(0 -540.36)">
		<path inkscape:connector-curvature="0" d="m43.626 1021.5c-12.317-3.2349-22.016-13.745-24.284-26.315-0.46657-2.5863-0.6989-5.8946-0.54216-7.7202 0.45512-5.3011 38.034-188.45 39.425-192.14 3.2363-8.5982 9.5602-15.315 18.16-19.288 7.9832-3.6884-9.1962-3.43 217.75-3.2762l205.52 0.1392 2.7147 1.2289c3.187 1.4426 6.5451 4.7224 8.282 8.0885 2.6939 5.2211 3.5593 0.1876-19.223 111.81-11.446 56.078-21.187 103.28-21.646 104.89-2.1866 7.659-9.3458 16.281-16.494 19.864-7.7721 3.8957 11.678 3.5666-208.48 3.5277-171.05-0.03-198.65-0.1405-201.18-0.8041zm-43.611-194.51c-0.0356-132.53-0.2528-123.59 3.1765-130.77 4.318-9.0476 12.709-15.905 22.864-18.685 3.091-0.8461 6.1631-0.94757 28.751-0.94971l25.29-0.002 0.13687 35.518 0.13688 35.518-2.2666 0.5767c-12.731 3.2396-21.781 8.2115-30.162 16.571-6.947 6.9293-12.37 15.849-15.183 24.972-0.76492 2.4807-8.4381 39.012-17.052 81.18l-15.661 76.669-0.0324-120.59zm106.02-163.06l0.14288-82.659 1.1258-2.3959c1.33-2.8305 4.3324-5.9345 7.0472-7.2855 1.8609-0.92612 7.936-0.97282 143.51-1.1031l141.57-0.13606 2.7164 1.2672c4.667 2.1771 7.3202 5.6247 8.266 10.741 0.39335 2.1277 0.57337 28.398 0.57337 83.666v80.565h-152.55-152.55l0.14288-82.659zm259.97 47.058c8.1979-3.7336 9.9343-15.325 3.1858-21.265-1.2782-1.1252-3.2646-2.3275-4.414-2.6719-2.7189-0.81459-209.65-0.90499-212.58-0.0929-2.5188 0.69973-6.1173 3.8432-7.5308 6.5786-0.8103 1.5681-1.1463 3.206-1.1624 5.6664-0.0259 3.958 1.1199 6.6419 4.0226 9.4224 3.741 3.5836-5.2864 3.3132 110.92 3.3232 100.86 0.009 105.51-0.0329 107.55-0.96079zm-1.263-66.373c7.6342-2.6012 10.982-11.357 7.0368-18.401-1.8058-3.2242-5.6074-5.955-9.0919-6.5309-3.5736-0.59063-206.76-0.3691-209.39 0.22829-5.0517 1.1503-8.5669 4.827-9.6713 10.116-0.86875 4.1604 0.39524 8.2833 3.4875 11.376 4.2848 4.2848-5.4151 3.937 111.11 3.984 92.08 0.0372 104.4-0.0521 106.52-0.77146zm71.809 88.93v-13.044l8.3857 0.01c9.2578 0.01 13.292 0.6849 17.843 2.9914 7.6865 3.8951 13.156 10.335 15.507 18.261 1.5852 5.343 3.7641 4.8283-20.439 4.8283h-21.297v-13.044z"/>
	</g>
</svg>
