<?xml version="1.0" encoding="UTF-8" standalone="no"?>
<svg id="svg2" xmlns:rdf="http://www.w3.org/1999/02/22-rdf-syntax-ns#" xmlns="http://www.w3.org/2000/svg" height="512" width="512" version="1.1" xmlns:cc="http://creativecommons.org/ns#" xmlns:dc="http://purl.org/dc/elements/1.1/" viewBox="0 0 512.00001 512.00001">
	<g id="layer1" transform="translate(0,-540.36216)">
		<path id="path3456" d="m42.5 978.32308c-22.679577-4.64915-38.5-23.74087-38.5-46.4609 0-12.48231 4.729344-23.9566 13.581511-32.95134 24.785879-25.18506 66.626722-15.57405 78.50128 18.03207 2.893731 8.18953 2.893731 21.64901 0 29.83854-7.973918 22.56695-31.062544 36.15811-53.582791 31.54163zm21.092917-26.51264c2.998442-1.8538 6.011221-4.87431 7.880647-7.90087 2.629822-4.25763 3.026436-5.8371 3.026436-12.05244 0-6.21645-0.396143-7.79338-3.026436-12.04739-4.099505-6.63018-10.765137-10.69636-18.445022-11.25188-7.334509-0.53053-12.199546 1.06358-17.319463 5.67501-12.627593 11.37347-9.596208 31.93713 5.790921 39.2832 6.150493 2.93635 15.78817 2.19229 22.092917-1.70563zm213.407083 26.86089c-28.4785-4.76719-46.23794-33.72088-37.60543-61.30915 6.78698-21.69025 29.99113-35.8144 52.57915-32.00443 31.04404 5.23625 48.31717 38.1817 35.01872 66.79203-8.46805 18.21821-30.32534 29.81374-49.99244 26.52155zm19.50729-26.51368c5.13643-3.26251 6.91959-5.31036 9.41576-10.81345 3.69701-8.15044 1.88822-19.19693-4.23512-25.86437-5.3274-5.80078-16.20942-8.48951-24.75328-6.11605-4.84838 1.34686-11.80881 7.51163-14.04852 12.44259-2.28318 5.02667-2.44375 14.28311-0.33545 19.33793 2.03442 4.87767 6.9715 9.99306 11.94932 12.38085 5.79279 2.77873 16.52996 2.11154 22.00729-1.3675zm-186.02748-27.54547c-3.37714-16.63485-7.35962-24.3889-17.863016-34.78006-8.90956-8.81435-16.867103-13.37325-27.872097-15.968-13.269089-3.12859-29.574356-0.90751-42.017153 5.7235-6.0319 3.21453-16.3128901 12.35545-20.5537659 18.27456l-2.14941741 3 0.23781966-56.5 0.23781965-56.5 2.297843-5c3.0249518-6.58215 9.286538-12.84991 15.603336-15.61872 4.337989-1.90144 7.374384-2.3013 20.348821-2.6797l15.25-0.44476v-62.24192c0-37.98467 0.396298-64.34117 1.016864-67.62841 1.404387-7.43926 5.537755-13.71645 11.431152-17.36005l4.895144-3.02644h47.07842 47.07842l6.5 3.18598c7.04151 3.45141 10.08907 5.8914 14.13123 11.31402 1.43494 1.925 30.63148 58.85 64.8812 126.5 34.24971 67.65 62.65816 123.4275 63.12989 123.95 0.47742 0.52881 0.85768-52.78538 0.85768-120.25v-121.2h12 12v132.99219 132.9922l60.25 0.2578 60.25 0.25781 0.28174 11.75 0.28173 11.75h-58.01268-58.01269l-0.55829-2.75c-4.7311-23.30408-15.12756-37.47758-33.97981-46.3247-10.14631-4.76154-18.27527-6.35698-28.79188-5.65089-11.09113 0.74466-20.13631 3.78637-29.11226 9.78985-14.29378 9.56026-23.68783 24.02926-26.11662 40.22561l-0.70633 4.71013h-56.8674-56.86741l-0.55829-2.75zm128.29768-112.8067c1.3246-0.92779 2.22251-2.60383 2.22251-4.14856 0-3.46773-76.30675-152.1323-79.58157-155.04474-2.50804-2.2305-2.79848-2.25-33.51965-2.25h-30.989689l-2.454546 2.45455-2.454545 2.45454v76.59091 76.59091l2.454545 2.45454 2.454546 2.45455h69.822949c61.57675 0 70.08543-0.18385 72.04545-1.5567zm130.72251 79.88461c-3.28515-0.72288-7.50135-2.52592-7.48103-3.19923 0.0151-0.50101 64.54649-40.85652 67.02271-41.9135 0.72432-0.30918 66.58713 40.15491 68.81653 42.27877 3.10784 2.9607-7.82094 3.50829-67.65743 3.39005-32.28543-0.0638-59.60078-0.31404-60.70078-0.55609zm106.25451-32.57791c-18.00507-11.1375-32.74055-20.47736-32.7455-20.75524-0.005-0.27789 14.95349-9.77245 33.24099-21.09903l33.25-20.59379 1.17392 3.09903c1.59814 4.21891 1.77667 68.92395 0.20737 75.15621-0.6153 2.44355-1.40482 4.44282-1.7545 4.44282-0.34969 0-15.36721-9.1125-33.37228-20.25zm-124.45507 15.52202c-1.18793-5.60502-1.00434-72.42792 0.20457-74.45815 0.87526-1.46992 5.07491 0.83596 32.75 17.98185 17.46029 10.8174 31.74599 19.90634 31.74599 20.19766 0 0.38772-51.24149 32.53946-62.59992 39.27864-0.93413 0.55424-1.52671-0.29205-2.10064-3zm43.90802-65.40616c-26.72774-16.53649-33.97035-21.44663-33.12929-22.46006 2.62987-3.16879 11.05714-3.54671 71.92183-3.22529 51.83203 0.27372 60.89152 0.53711 63.23273 1.83839l2.73273 1.5189-34.6641 21.4811c-19.06526 11.8146-34.93954 21.60012-35.27618 21.74558-0.33663 0.14546-16.00461-9.25891-34.81772-20.89862zm-29.20746-40.1723c-1.925-0.65646-3.39734-1.64356-3.27187-2.19356 0.37448-1.64156 66.67882-42.3274 67.85332-41.63633 0.5948 0.34998 16.30334 10.06998 34.90787 21.6 33.46487 20.7396 33.79534 20.97693 30.91855 22.20489-4.09769 1.74911-125.28396 1.77234-130.40787 0.025zm109.5-31.64222c-17.6-10.93096-31.94596-20.25176-31.87991-20.7129 0.10575-0.73831 64.79482-41.33844 65.86544-41.33844 1.80655 0 2.50332 11.41181 2.50332 41 0 32.89372-0.65379 41.04407-3.28585 40.9629-0.66165-0.0204-15.603-8.98061-33.203-19.91156zm-124.23095 16.19866c-1.31203-4.69162-0.94746-73.97278 0.39633-75.31594 0.88698-0.88655 8.63605 3.46152 32.43675 18.20056 17.19925 10.65096 31.23906 19.78629 31.19957 20.30075-0.062 0.80766-61.59206 39.56463-62.81231 39.56463-0.24821 0-0.79736-1.2375-1.22034-2.75zm44.44679-65.57923c-18.03128-11.18649-33.29845-20.85338-33.92705-21.48198-0.85719-0.85719-0.23173-1.5236 2.50204-2.66584 3.1333-1.30917 12.47658-1.52295 66.56224-1.52295 50.31476 0 63.55524 0.26823 66.10213 1.33912l3.18482 1.33911-2.32001 1.50794c-11.82866 7.68826-66.59455 41.19306-67.78199 41.46781-0.84591 0.19574-16.29089-8.79671-34.32218-19.98321z"/>
	</g>
</svg>
