<?xml version="1.0" encoding="UTF-8" standalone="no"?>
<svg xmlns:rdf="http://www.w3.org/1999/02/22-rdf-syntax-ns#" xmlns="http://www.w3.org/2000/svg" height="512" width="512" version="1.1" xmlns:cc="http://creativecommons.org/ns#" xmlns:dc="http://purl.org/dc/elements/1.1/" viewBox="0 0 512.00001 512.00001">
	<g transform="translate(0 -540.36)">
		<path d="m3.8811 1049.5c-1.4404-1.1486-2.9025-3.5067-3.2492-5.2402-0.4845-2.4225 6.54-82.759 12.903-147.57 0.41117-4.1878 1.2068-6.7031 2.4867-7.8614 1.7789-1.6099 2.0751-1.5839 5.4045 0.47381 1.9374 1.1974 11.199 10.114 20.582 19.816l17.06 17.639 57.736-57.704c39.558-39.537 58.396-57.704 59.831-57.704 3.2018 0 6.0186 2.478 31.717 27.902 24.85 24.585 29.647 30.002 29.647 33.477 0 1.4143-18.071 20.161-56.499 58.611l-56.499 56.532 17.567 17.489c9.6619 9.6188 18.225 18.73 19.03 20.248 1.8519 3.493 0.52144 6.3456-3.3396 7.1607-10.912 2.3037-129.04 17.502-141.76 18.239-9.1288 0.5289-10.228 0.3974-12.619-1.509zm442.12-3.2c-27.225-2.6514-59.568-5.765-71.874-6.9193-12.305-1.1543-23.218-2.5506-24.25-3.1029-4.0969-2.1926-2.1276-4.9742 17.599-24.859l19.47-19.59-57.47-57.47c-33.47-33.46-57.48-58.22-57.48-59.27 0-3.8396 3.722-8.0792 30.247-34.454 23.248-23.116 27.846-27.25 30.309-27.25 2.5031 0 10.696 7.7882 59.435 56.499l56.532 56.499 17.989-18.079c9.8939-9.9436 19.082-18.513 20.418-19.043 5.2032-2.0635 5.8005-0.0869 10.642 35.214 5.7048 41.596 13.083 100.08 13.945 110.53 0.79679 9.6643-0.62798 13.526-5.6346 15.271-4.2951 1.4972-3.6764 1.5379-59.881-3.9356zm-119.66-268.82c-2.66-2.14-15.98-15.11-29.59-28.83-20.89-21.07-24.75-25.41-24.75-27.85 0-2.4935 7.8529-10.753 56.496-59.424l56.496-56.528-18.4-18.492c-10.12-10.171-18.67-19.416-19-20.545-1.4772-5.0488-0.45428-5.3237 40.975-11.01 57.786-7.9307 93.756-12.447 104.49-13.118 11.026-0.69002 13.39 0.10848 15.538 5.2493 1.2888 3.0844 0.75654 10.505-5.6066 78.17-3.8668 41.119-7.263 75.508-7.5473 76.421-0.28425 0.91284-1.1617 2.1949-1.9499 2.849-2.329 1.9329-6.4878-1.4069-25.478-20.461l-17.489-17.547-57.531 57.5c-40.187 40.165-58.176 57.5-59.671 57.5-1.177 0-4.3179-1.7476-6.9798-3.8836zm-204.81-54.12c-30.786-30.8-56.216-56-56.512-56-0.29594 0-8.3864 7.858-17.979 17.462-9.5924 9.6042-18.765 18.011-20.383 18.681-2.6333 1.0907-3.1321 0.98502-4.7437-1.0052-0.99055-1.2233-2.0635-4.1172-2.3844-6.431-10.399-74.96-17.513-131.84-17.696-141.46-0.1196-6.28 0.171-7.62 2.0926-9.67 1.2272-1.31 3.4333-2.61 4.9024-2.9 2.808-0.55 146.13 12.66 152.17 14.03 2.65 0.5991 3.5824 1.3744 3.8394 3.1926 0.27866 1.9717-3.1651 5.9092-19.247 22.006l-19.586 19.605 57.497 57.491c50.31 50.3 57.5 57.86 57.5 60.47 0 2.5762-3.9317 6.9157-28.769 31.753-24.816 24.816-29.179 28.769-31.748 28.769-2.6037 0-10.033-7.0575-58.953-56z"/>
	</g>
</svg>
