<svg xmlns:rdf="http://www.w3.org/1999/02/22-rdf-syntax-ns#" xmlns="http://www.w3.org/2000/svg" height="512" width="512" version="1.1" xmlns:cc="http://creativecommons.org/ns#" xmlns:dc="http://purl.org/dc/elements/1.1/" viewBox="0 0 512.00001 512.00001">
	<g transform="translate(0 -540.36)">
		<path d="m200.94 1051.6c-3.8683-0.956-5.9784-2.2194-9.3075-5.573-2.0648-2.0799-3.3182-3.9258-4.1405-6.0974-0.83999-2.2183-2.4825-12.162-5.708-34.555-2.4908-17.292-4.6468-31.98-4.7911-32.638-0.2027-0.9251-1.7448-1.9016-6.771-4.288-8.0641-3.8286-16.489-8.6256-23.708-13.499l-5.5176-3.7246-31.206 12.271c-17.163 6.7491-32.486 12.546-34.05 12.881-5.7948 1.2427-12.913-0.8732-17.353-5.1583-1.2464-1.203-5.04-6.965-9.0623-13.765-29.975-50.672-44.138-74.788-45.169-76.911-3.531-7.2707-1.8905-17.283 3.7126-22.658 0.92924-0.8914 13.276-10.496 27.437-21.343l25.748-19.722v-20.423-20.423l-25.482-19.503c-14.015-10.726-26.363-20.344-27.441-21.372-5.65-5.3899-7.5217-15.104-4.2901-22.267 0.51315-1.1374 12.416-21.526 26.451-45.308 16.216-27.478 26.304-44.043 27.676-45.443 4.4669-4.5578 11.315-6.8869 17.09-5.8128 1.7042 0.31693 17.151 6.1033 34.327 12.859 17.176 6.7553 31.356 12.282 31.512 12.282 0.15618 0 2.1272-1.2546 4.38-2.7879 6.4985-4.4232 15.698-9.7117 23.893-13.736 5.8052-2.8503 7.6298-3.9913 7.8258-4.8936 0.14051-0.64712 2.3033-15.365 4.8063-32.705 2.503-17.341 4.9432-32.532 5.4228-33.758 2.5404-6.4935 7.8971-11.153 14.405-12.531 4.4027-0.93186 105.17-0.81464 109.17 0.127 6.046 1.4231 11.631 6.2458 13.73 11.856 0.73924 1.9758 2.6051 13.315 5.6163 34.131 2.4801 17.144 4.6444 31.825 4.8094 32.624 0.25978 1.2571 1.3117 1.9472 7.8355 5.1402 9.1031 4.4555 15.312 8.0032 22.529 12.873 2.9835 2.0131 5.5629 3.6602 5.732 3.6602 0.16907 0 14.354-5.5247 31.523-12.277 17.424-6.8529 32.623-12.525 34.402-12.838 5.8179-1.0248 12.594 1.2292 16.929 5.6315 1.4527 1.4753 10.978 17.1 27.73 45.487 14.035 23.782 25.925 44.164 26.423 45.293 3.1169 7.0678 1.8017 15.582-3.3057 21.398-0.88248 1.0051-13.457 10.882-27.943 21.949l-26.338 20.121 0.36245 6.6452c0.45496 8.343 0.44986 18.729-0.0133 27.208l-0.35793 6.5499 26.381 20.164c14.509 11.09 27.086 20.968 27.947 21.949 4.8685 5.5449 6.2894 13.679 3.6015 20.617-1.0712 2.765-52.189 89.062-54.031 91.216-2.286 2.6723-8.4954 5.7594-12.393 6.1617-1.6153 0.1667-4.2074 0.031-5.7601-0.3024-1.5527-0.3329-16.797-6.1034-33.876-12.823-17.079-6.7198-31.185-12.218-31.348-12.218-0.16215 0-2.1254 1.2811-4.3629 2.847-6.1186 4.2822-16.198 10.085-24.213 13.939-6.1948 2.9789-7.1942 3.635-7.4499 4.89-0.16238 0.7972-2.3259 15.476-4.8078 32.619-3.0142 20.819-4.8805 32.152-5.6206 34.131-2.1001 5.6131-7.6838 10.435-13.731 11.859-4.2116 0.9913-105.84 0.9691-109.86-0.024zm87.982-39.428c0-0.1675 1.9333-13.607 4.2963-29.866 2.7414-18.863 4.6817-30.592 5.3612-32.408 1.3016-3.4788 5.7915-8.4934 9.0262-10.081 1.2733-0.625 5.0662-2.2527 8.4287-3.617 12.219-4.9579 24.089-11.741 35.478-20.274 8.2577-6.1867 10.931-7.2788 17.152-7.0053 4.3572 0.1916 5.1744 0.4578 22.859 7.4449 10.087 3.9854 23.157 9.1438 29.042 11.463l10.702 4.2169 13.993-23.711 16.243-27.522 2.2501-3.8115-6.478-4.987c-3.5628-2.7429-14.641-11.252-24.618-18.91-19.713-15.131-21.071-16.479-22.826-22.662-0.97833-3.4457-0.90279-5.9536 0.5137-17.054 0.49127-3.8496 0.81412-10.596 0.81412-17.012s-0.32285-13.162-0.81412-17.012c-1.4165-11.1-1.492-13.608-0.5137-17.054 1.8173-6.4004 2.574-7.1135 29.301-27.61l24.622-18.883-5.711-9.6925c-3.141-5.3308-10.343-17.55-16.005-27.154-5.6616-9.604-10.572-17.569-10.912-17.699-0.33981-0.1303-11.004 3.862-23.699 8.8719-35.592 14.046-34.875 13.796-39.521 13.796-5.6852 0-8.6553-1.2956-16.649-7.2626-11.844-8.8412-23.189-15.258-36.554-20.675-4.0934-1.6592-8.3711-3.6956-9.506-4.5256-2.7485-2.01-5.8919-6.2745-6.9253-9.3953-0.61115-1.8457-9.3521-59.325-9.3521-61.498 0-0.16984-14.832-0.3088-32.96-0.3088-18.509 0-32.96 0.20418-32.96 0.4657 0 0.25614-1.9223 13.666-4.2717 29.801-2.716 18.652-4.6591 30.371-5.3355 32.178-2.2233 5.9423-6.0333 9.266-14.379 12.543-13.471 5.2902-27.065 12.896-38.559 21.572-7.5304 5.6844-10.704 7.0751-16.184 7.0922-4.9233 0.015-3.2177 0.5997-36.318-12.442-14.593-5.7496-26.798-10.352-27.123-10.227-0.32461 0.1246-2.8978 4.1426-5.7183 8.9289s-10.035 17.012-16.032 27.168l-10.903 18.466 23.474 17.95c12.911 9.8726 24.482 18.975 25.713 20.227 1.2318 1.2521 2.9113 3.6444 3.7323 5.3162 1.3212 2.6904 1.4914 3.6195 1.4823 8.0899-0.006 2.7776-0.42403 8.2799-0.92969 12.227-0.57156 4.4618-0.91937 10.797-0.91937 16.746s0.34781 12.284 0.91937 16.746c0.50566 3.9472 0.9215 9.4494 0.92409 12.227 0.005 5.5077-0.72007 7.7793-3.8187 11.961-0.93654 1.2641-11.513 9.7388-26.077 20.895l-24.501 18.769 3.8366 6.4829c2.1101 3.5655 9.4329 15.979 16.273 27.586 6.84 11.607 12.572 21.019 12.737 20.918 0.16561-0.1019 13.219-5.2823 29.008-11.512 28.256-11.149 28.778-11.33 33.226-11.526 6.216-0.2752 8.9855 0.8469 17.086 6.9221 11.994 8.9954 23.7 15.61 37.405 21.136 3.801 1.5326 7.8395 3.4657 8.9744 4.2957 2.7564 2.0161 5.8917 6.276 6.9384 9.4274 0.6482 1.9516 9.3389 59.004 9.3389 61.307 0 0.2636 14.366 0.4673 32.96 0.4673 18.128 0 32.96-0.1371 32.96-0.3046zm-42.4-136.36c-27.404-3.4553-51.919-21.344-62.994-45.967-5.3387-11.87-7.3017-20.874-7.3017-33.492 0-13.365 2.4109-23.614 8.366-35.566 11.568-23.217 32.841-38.841 59.149-43.444 5.1221-0.8961 19.303-0.8995 24.454-0.01 5.3165 0.9223 14.187 3.4711 18.88 5.4247 17.42 7.2521 33.043 22.278 41.139 39.568 5.2336 11.176 7.4958 21.444 7.4958 34.023 0 3.9814-0.25834 8.9594-0.57409 11.062-5.1025 33.98-30.225 60.524-63.751 67.359-6.378 1.3002-18.702 1.8145-24.864 1.0376zm20.1-40.956c12.421-3.4346 22.794-13.282 27.29-25.907 1.5634-4.3901 1.6456-5.0215 1.6392-12.596-0.006-7.3356-0.12514-8.3149-1.4845-12.227-2.2213-6.3931-5.2477-11.117-10.401-16.236-3.7587-3.7333-5.469-4.983-9.6216-7.0304-6.5087-3.2092-11.01-4.2733-18.075-4.2733-11.327 0-21.108 4.1543-28.784 12.226-7.642 8.0357-10.822 16.128-10.822 27.541 0 4.299 0.28101 7.9156 0.74352 9.569 4.4778 16.008 17.192 27.528 33.181 30.067 4.0893 0.6492 11.831 0.1122 16.334-1.133z"/>
	</g>
</svg>
