<svg xmlns:rdf="http://www.w3.org/1999/02/22-rdf-syntax-ns#" xmlns="http://www.w3.org/2000/svg" height="512" width="512" version="1.1" xmlns:cc="http://creativecommons.org/ns#" xmlns:dc="http://purl.org/dc/elements/1.1/" viewBox="0 0 512.00001 512.00001">
	<g transform="translate(0 -540.36)">
		<path d="m214.44 1045.8c-50.93-6.1-91.81-22.9-129.09-52.96-10.181-8.22-26.714-24.55-33.638-33.23-1.9324-2.4236-3.863-4.4064-4.29-4.4064-0.42704 0-0.93217 5.5894-1.1225 12.421-0.3311 11.885-0.46643 12.541-3.1344 15.207-2.196 2.1937-3.7757 2.7855-7.4352 2.7855-6.1559 0-9.6329-2.4108-11.046-7.659-0.73817-2.7413-1.0235-15.189-0.81832-35.706l0.31493-31.498 3.0452-3.1769c2.5521-2.6624 3.8346-3.1769 7.9204-3.1769 3.1382 0 5.6363 0.64645 7.0111 1.8144 1.1748 0.99793 5.2389 6.9466 9.0313 13.219 11.496 19.014 21.843 31.722 38.857 47.723 26.683 25.094 65.168 44.967 101.22 52.27 13.367 2.7074 35.735 5.2211 46.575 5.2341 31.751 0.038 66.575-8.1943 96.344-22.775 36.267-17.763 63.342-41.604 86.578-76.236 3.8357-5.7171 7.7149-11.009 8.6203-11.761 0.90545-0.75148 3.8755-1.3663 6.6001-1.3663 4.2308 0 5.3731 0.46906 7.825 3.2133 5.0912 5.698 3.6588 11.125-7.0242 26.613-26.971 39.103-65.947 70.334-108.49 86.935-15.983 6.2366-33.64 11.246-49.577 14.064-10.33 1.827-17.799 2.3529-36.807 2.5912-13.116 0.1646-25.48 0.1037-27.476-0.1358zm8.2945-85.467c-23.877-2.9694-48.36-11.373-65.744-22.568-17-10.947-35.651-29.02-45.706-44.288-16.76-25.449-24.773-52.114-24.762-82.393 0.0113-31.261 8.0078-57.765 24.982-82.801 23.007-33.933 55.706-55.695 97.125-64.637 15.167-3.2744 45.223-3.2655 60.438 0.0178 54.92 11.851 98.085 49.943 114.77 101.28 11.664 35.889 9.2204 76.016-6.6287 108.87-15.037 31.165-40.366 56.733-70.874 71.543-12.093 5.8704-28.533 11.226-41.091 13.385-12.307 2.1161-32.284 2.8649-42.509 1.5933zm-30.068-32.083c0-0.56703-2.85-4.8748-6.3333-9.5728-3.4833-4.6979-8.0323-11.508-10.109-15.134-3.7204-6.496-3.8317-6.585-7.6121-6.0849-4.5346 0.59979-15.344 6.5204-15.344 8.4042 0 1.9915 15.529 12.75 26.56 18.401 9.7447 4.992 12.839 5.9528 12.839 3.9863zm104.15-3.6004c10.811-5.3384 25.786-15.823 26.282-18.402 0.24859-1.2908-1.8803-2.8746-8-5.9515-4.5863-2.306-8.7951-4.1927-9.3528-4.1927-0.55775 0-2.98 3.3826-5.3829 7.5169-2.4028 4.1343-7.0891 11.105-10.414 15.491-3.3248 4.3857-6.0451 8.4682-6.0451 9.0721 0 2.0646 3.5345 1.0974 12.912-3.5335zm-41.242-1.3611c9.6435-8.5908 25.219-29.237 25.219-33.428 0-1.0063-0.75693-2.1202-1.6821-2.4752-2.8996-1.1126-20.403-3.7151-25.016-3.7195h-4.4064v21.773c0 11.975 0.34992 21.759 0.77761 21.742 0.42768-0.0166 2.726-1.7666 5.1073-3.888zm-29.354-1.9283c0.84157-6.1399 0.71985-26.423-0.19512-32.515-0.63437-4.2236-0.99548-4.6994-3.8112-5.022-3.2517-0.37253-15.876 1.342-22.551 3.0628-4.6945 1.2102-4.8747 2.6697-1.1264 9.1257 5.5775 9.6068 23.362 30.159 26.098 30.159 0.50943 0 1.2229-2.1647 1.5856-4.8104zm-77.377-40.404c6.1391-3.1983 11.564-6.1899 12.056-6.6481 0.494-0.46042-0.52636-6.7873-2.281-14.144-1.7461-7.3208-3.6854-17.276-4.3094-22.123-0.62405-4.8471-1.3702-10.339-1.6581-12.204l-0.52351-3.3914-20.426 0.28095-20.426 0.28095-0.33055 4.0351c-0.71494 8.7271 6.1593 30.947 13.802 44.614 5.143 9.1966 9.6074 15.115 11.402 15.115 0.84281 0 6.5553-2.6168 12.694-5.8151zm198.25-0.66501c10.117-15.011 18.721-37.828 19.059-50.545l0.17911-6.7393-20.878-0.28029-20.878-0.2803-0.55924 2.3539c-0.3076 1.2947-0.86368 5.1533-1.2358 8.5748-0.94236 8.6656-3.2041 20.818-5.6776 30.506-1.152 4.5121-1.847 8.8254-1.5444 9.5852 0.71207 1.788 22.098 13.11 24.973 13.22 1.5783 0.0612 3.4198-1.7342 6.5616-6.3956zm-149.44-16.29c5.8756-1.1196 14.109-2.3461 18.297-2.7256 4.1878-0.37949 8.181-1.0404 8.874-1.4686 1.5875-0.98114 2.6276-20.785 1.5971-30.408l-0.73977-6.9078h-23.637c-27.443 0-26.609-0.29656-25.496 9.0643 1.9702 16.579 6.7658 34.482 9.2366 34.482 0.65202 0 5.9928-0.91602 11.868-2.0356zm93.837 0.7396c0.96685-0.71281 2.6621-4.4663 3.7671-8.341 2.6364-9.244 5.4186-28.169 4.613-31.378l-0.63522-2.5309h-24.771-24.771v18.58 18.58l2.8512 0.56219c1.5682 0.30921 7.2836 1.0754 12.701 1.7028 5.4173 0.6273 12.649 1.7633 16.071 2.5244 8.1342 1.8095 8.1277 1.8093 10.174 0.30031zm-140.41-66.002c0.91151-0.57726 1.9638-5.0288 2.8762-12.167 0.79131-6.191 2.8725-17.217 4.6249-24.502 1.7524-7.2854 2.9421-13.882 2.6438-14.659-0.65212-1.6994-22.064-13.049-24.618-13.049-3.7812 0-15.83 21.444-21.116 37.581-3.5744 10.912-5.593 22.952-4.3786 26.117 0.53333 1.3899 3.3304 1.6193 19.577 1.6057 10.425-0.008 19.601-0.42552 20.392-0.92621zm74.542-0.87233c0.40979-0.99793 0.74508-9.4129 0.74508-18.7 0-19.008 0.3147-18.264-8.168-19.302-2.9208-0.35722-11.468-1.6781-18.994-2.9353-7.5258-1.2572-14.008-1.9611-14.405-1.5643-1.5248 1.5248-5.6089 17.848-7.3059 29.201-1.4601 9.7679-1.5365 12.162-0.43021 13.495 1.1462 1.3811 4.7757 1.6204 24.579 1.6204 21.152 0 23.301-0.16254 23.979-1.8144zm73.975-0.65885c2.0568-4.5142-4.5537-38.287-8.0644-41.2-1.1748-0.97502-3.0268-0.95687-8.4515 0.0828-3.8208 0.73234-12.779 2.1064-19.907 3.0535l-12.96 1.7219-0.28465 18.075c-0.15655 9.9414-0.0545 18.675 0.22667 19.408 0.39604 1.032 5.8996 1.3324 24.413 1.3324h23.901l1.1269-2.4733zm65.618 1.8439c4.4577-1.7106-1.5868-26.896-10.896-45.402-4.3569-8.6609-11.133-18.998-12.898-19.675-2.2698-0.87102-26.361 11.968-26.386 14.062-0.0113 0.96339 1.3516 7.371 3.0287 14.239 1.6771 6.8682 3.5988 17.277 4.2704 23.132 0.67157 5.8544 1.6486 11.461 2.1712 12.459 0.85242 1.6278 2.911 1.8144 20.01 1.8144 10.483 0 19.798-0.2832 20.7-0.62934zm-139.19-66.25c0.92694-5.2667 1.0343-24.231 0.17759-31.364-0.40553-3.3761-1.1555-5.4433-1.9748-5.4433-3.6074 0-28.474 30.96-28.462 35.437 0.003 1.2826 1.574 2.0691 5.9661 2.9874 9.3272 1.9502 16.013 2.8494 19.947 2.6827 3.3703-0.14287 3.6665-0.43592 4.3467-4.3006zm46.929 1.9545c3.9596-0.82062 7.4302-1.723 7.7124-2.0052 2.7361-2.7361-24.97-37.793-29.868-37.793-0.75783 0-1.1138 6.8318-1.1138 21.376v21.376l8.0353-0.73137c4.4194-0.40225 11.275-1.4028 15.235-2.2234zm-95.925-18.014c2.3678-3.9856 7.1399-11.009 10.605-15.607 3.4648-4.5981 6.0656-8.594 5.7797-8.88-0.84923-0.84922-13.132 4.5036-20.955 9.1318-10.914 6.4576-18.298 12.304-17.941 14.207 0.3977 2.1191 11.881 8.3274 15.473 8.3657 2.2929 0.0245 3.4264-1.1379 7.0381-7.2174zm137.73 4.1702c7.3307-3.468 8.6152-5.3533 5.8091-8.5256-4.4939-5.0803-27.162-18.117-34.863-20.049-3.6815-0.924-3.664 0.55435 0.0582 4.9173 3.9763 4.6609 9.4674 12.502 14.183 20.254 4.628 7.6074 5.5022 7.8082 14.812 3.4038zm136.5 159.48c-7.2745-1.9377-9.0346-8.0931-5.7963-20.271 3.8513-14.484 5.5368-29.701 5.5466-50.077 0.0166-34.825-6.1314-61.882-20.934-92.125-18.767-38.343-49.107-71.342-85.005-92.455-16.211-9.5343-41.334-19.152-63.453-24.29-14.876-3.4557-17.419-5.3827-17.419-13.198 0-10.195 6.8608-12.349 25.86-8.1171 31.666 7.0536 68.67 24.995 95.447 46.277 31.834 25.302 59.352 62.729 73.088 99.408 11.49 30.681 15.366 52.411 15.396 86.315 0.0124 14.555 0.36807 20.995 1.1579 20.995 0.62675 0 4.1586-3.0578 7.8488-6.795 7.8675-7.9681 14.884-12.904 18.343-12.904 3.2954 0 8.2691 2.6589 9.5898 5.1266 0.58714 1.0971 1.0675 4.0602 1.0675 6.5846 0 3.9983-0.56932 5.1764-4.4169 9.1403-8.0917 8.3362-46.072 45.504-46.499 45.504-0.2311 0-1.8168 0.39005-3.5238 0.86667s-4.5412 0.48367-6.2983 0.0155zm-441.59-8.55c-5.4284-5.42-8.8835-24.58-9.5784-53.11-1.0676-43.83 6.3892-77.73 25.169-114.45 28.183-55.1 78.601-97.66 138.95-117.31 9.3515-3.045 16.873-6.003 16.714-6.5732-0.15877-0.57025-6.0031-3.977-12.987-7.5707-10.634-5.4714-12.975-7.1131-14.397-10.096-2.4158-5.0659-0.91699-10.524 3.7514-13.662 1.9376-1.3022 4.5935-2.3677 5.9019-2.3677 3.8632 0 64.082 30.501 66.64 33.754 3.6105 4.59 2.5289 12.34-2.1463 15.377-1.3085 0.85013-6.5782 2.0729-11.71 2.7173-21.001 2.6369-38.044 6.6985-54.571 13.006-50.896 19.423-91.958 56.084-116.25 103.79-21.235 41.706-28.321 91.157-19.388 135.31 2.7244 13.465 2.624 16.593-0.65838 20.494-2.3325 2.772-3.3575 3.19-7.8232 3.19-4.04 0-5.6704-0.53136-7.6238-2.4848z"/>
	</g>
</svg>
