<svg xmlns:rdf="http://www.w3.org/1999/02/22-rdf-syntax-ns#" xmlns="http://www.w3.org/2000/svg" height="512" width="512" version="1.1" xmlns:cc="http://creativecommons.org/ns#" xmlns:dc="http://purl.org/dc/elements/1.1/" viewBox="0 0 512.00001 512.00001">
	<g transform="translate(0 -540.36)">
		<path d="m241.75 1051.9c-40.86-2.811-76.57-13.406-111.71-33.143-21.18-11.9-37.955-24.67-55.361-42.07-18.252-18.26-31.383-35.87-43.727-58.65-16.002-29.53-24.777-57.2-29.612-93.36-1.4272-10.674-1.435-45.629-0.01281-57.353 3.6618-30.185 11.546-56.537 25.3-84.564 12.523-25.518 26.391-45.042 46.416-65.348 14.417-14.619 23.828-22.457 39.467-32.87 60.192-40.076 130.96-53.506 199.57-37.876 31.274 7.1242 66.766 23.005 93.193 41.699 16.797 11.882 37.671 31.539 50.005 47.089 26.681 33.639 46.481 77.242 53.038 116.8 2.8689 17.308 3.4067 24.161 3.417 43.538 0.0184 34.948-5.1119 62.128-17.7 93.773-29.378 73.854-86.139 126.48-162.82 150.97-28.235 9.0166-61.606 13.241-89.461 11.325zm-1.9558-154.9c-0.16075-0.16076-19.527-0.19467-43.036-0.0754l-42.743 0.21694 3.6747 12.329c16.439 55.155 44.109 93.902 76.4 106.98l5.5672 2.2552 0.21482-60.708c0.11815-33.389 0.0833-60.839-0.0774-61zm45.055 116.39c26.076-12.894 52.258-50.789 67.303-97.415 1.8574-5.7562 3.9418-12.444 4.632-14.861l1.255-4.3956h-43.074-43.074v61.083 61.083l3.2228-1.1371c1.7726-0.6254 6.1534-2.5861 9.7352-4.3572zm-116.78-12.223c-12.25-16.379-23.269-36.423-31.643-57.562-2.9263-7.3865-9.6275-28.008-11.51-35.42-0.72477-2.8531-1.6862-6.6005-2.1366-8.3273l-0.81884-3.1397h-33.472-33.472l2.2009 4.3956c15.894 31.743 43.991 62.649 76.111 83.718 7.9732 5.2299 35.255 19.894 37.013 19.894 0.21473 0-0.80723-1.6013-2.271-3.5584zm189.23-4.0345c40.351-20.402 74.239-53.09 95.383-92.004 2.338-4.3031 4.2511-7.9557 4.2511-8.1168 0-0.16117-15.056-0.29304-33.458-0.29304h-33.458l-0.81884 3.1397c-0.45036 1.7269-1.4362 5.568-2.1907 8.5359-5.4087 21.276-16.206 48.785-26.141 66.601-3.8454 6.8961-10.731 17.513-17.768 27.4-1.1567 1.6249-1.111 1.6842 0.83726 1.0858 1.1334-0.3481 7.1471-3.2047 13.364-6.3479zm-242.24-136.23c-0.2817-2.6478-1.0811-9.6435-1.7765-15.546-3.4362-29.166-3.4454-69.239-0.0227-98.95 0.68964-5.9864 1.493-13.243 1.7852-16.126l0.53137-5.2418-36.66 0.2182-36.66 0.21821-1.1452 3.7677c-13.133 43.21-13.494 88.39-1.047 130.83l1.6577 5.6515h36.923 36.923l-0.51217-4.8142zm125.03-65.523v-70.337l-46.223 0.21639-46.223 0.21641-1.0461 6.6981c-4.1627 26.654-5.8021 56.461-4.4866 81.574 0.83591 15.958 3.3004 41.687 4.7159 49.232l0.51355 2.7375h46.375 46.375v-70.337zm125.07 68.035c0.84685-4.2969 2.9859-23.188 3.8158-33.7 2.6722-33.844 1.548-65.019-3.5174-97.541l-1.0432-6.6981-46.256-0.21641-46.256-0.21639v70.337 70.337h46.402 46.402l0.45377-2.3024zm106.73-2.9651c6.0182-19.485 8.8064-39.819 8.8064-64.225 0-24.883-2.3007-41.449-8.895-64.051l-1.9543-6.6981-36.598-0.21811-36.598-0.21812v1.9274c0 1.0601 0.54658 6.2446 1.2146 11.521 4.6365 36.622 4.4674 87.985-0.38731 117.63-0.44968 2.7461-0.81978 6.0291-0.82245 7.2954l-0.005 2.3024h36.806 36.806l1.627-5.2676zm-349.01-169.1c10.399-40.671 25.606-74.132 45.854-100.89l2.0578-2.7193-3.2378 1.3419c-1.7808 0.73803-8.0532 3.7852-13.939 6.7715-33.452 16.974-65.511 45.869-86.21 77.703-7.0014 10.768-12.329 20.257-11.716 20.87 0.26432 0.26432 15.286 0.48059 33.381 0.48059h32.9l0.90977-3.5584zm117.21-56.815v-60.374l-2.3025 0.54907c-3.8655 0.9218-14.427 6.1801-18.954 9.4368-20.029 14.408-39.674 42.318-52.781 74.988-4.7781 11.91-11.363 31.809-11.363 34.337 0 1.3386 2.9148 1.4367 42.7 1.4367h42.7v-60.374zm117.22 58.806c0-2.3162-6.307-21.706-10.656-32.76-12.92-32.84-33.001-61.848-52.392-75.685-5.4426-3.8838-15.898-9.195-20.05-10.185l-2.3025-0.54907v60.374 60.374h42.7c41.174 0 42.7-0.056 42.7-1.5679zm99.634 1.1202c0-1.0074-8.1625-14.756-13.409-22.585-8.0897-12.073-14.893-20.405-25.891-31.711-12.663-13.017-23.86-22.417-37.587-31.553-10.089-6.7153-30.902-18.028-36.111-19.627-1.9425-0.59655-1.9905-0.53607-0.83726 1.0542 5.334 7.3552 14.874 22.228 18.83 29.357 9.3948 16.93 20.452 45.648 26.414 68.606l1.7939 6.9074h33.399c18.369 0 33.399-0.20146 33.399-0.44768z"/>
	</g>
</svg>
