<svg xmlns:inkscape="http://www.inkscape.org/namespaces/inkscape" xmlns:rdf="http://www.w3.org/1999/02/22-rdf-syntax-ns#" xmlns="http://www.w3.org/2000/svg" sodipodi:docname="globe-marker.svg" height="512" width="512" version="1.1" xmlns:cc="http://creativecommons.org/ns#" xmlns:dc="http://purl.org/dc/elements/1.1/" inkscape:version="0.91 r13725" viewBox="0 0 512.00001 512.00001" xmlns:sodipodi="http://sodipodi.sourceforge.net/DTD/sodipodi-0.dtd">
	<sodipodi:namedview bordercolor="#666666" inkscape:pageshadow="2" inkscape:window-y="-8" pagecolor="#ffffff" inkscape:window-height="1017" inkscape:window-maximized="1" inkscape:zoom="0.35" inkscape:window-x="-8" showgrid="false" borderopacity="1.0" inkscape:current-layer="layer1" inkscape:cx="-126.42857" inkscape:cy="520" units="px" inkscape:window-width="1920" inkscape:pageopacity="0.0" inkscape:document-units="px"/>
	<g inkscape:label="Layer 1" inkscape:groupmode="layer" transform="translate(0 -540.36)">
		<path inkscape:connector-curvature="0" d="m211.66 1051.1c-27.51-6.0074-51.306-15.957-74.542-31.169-19.776-12.946-38.555-30.637-53.879-50.756l-3.9379-5.1701 46.675-0.1391c25.671-0.076 46.757-0.058 46.856 0.042 0.0995 0.099 1.1682 3.5907 2.3749 7.7582 9.4678 32.699 22.761 59.025 38.109 75.469 2.7238 2.9184 4.7512 5.2851 4.5054 5.2594-0.24577-0.026-3.0183-0.6083-6.1612-1.2946zm86.888-3.7773c15.617-16.64 29.604-44.505 38.792-77.284 0.91567-3.2668 1.7485-6.0232 1.8508-6.1255 0.10224-0.1023 21.182-0.1233 46.844-0.047l46.658 0.1391-3.6798 4.898c-11.775 15.672-28.083 32.032-43.475 43.611-17.882 13.453-38.857 24.472-60.681 31.882-6.4628 2.1941-20.115 5.8678-25.85 6.9563-1.7959 0.3408-3.7458 0.7582-4.3331 0.9276-0.58928 0.1699 1.1466-2.0514 3.8738-4.9573zm-48.629-5.5049c-10.017-3.1559-19.51-12.085-28.833-27.121-6.2744-10.12-13.9-27.613-18.836-43.209l-2.4544-7.7551h56.244 56.244l-0.495 1.4966c-0.27224 0.8231-1.386 4.3129-2.4751 7.7551-10.44 32.999-26.863 59.063-41.995 66.646-5.9974 3.0057-12.29 3.7964-17.4 2.1863zm-189.94-111.52c-3.9414-8.568-8.211-19.771-10.776-28.275-4.5899-15.218-6.3805-24.839-8.7486-47.008l-0.30522-2.8572h48.278 48.278l4.2621 4.072c5.258 5.0234 12.083 10.134 15.322 11.474l2.4364 1.0077 0.37336 6.5532c1.0083 17.698 5.179 50.586 7.7498 61.111l0.29908 1.2245h-51.905-51.905l-3.3594-7.3028zm133.01 5.5341c-0.16762-0.9728-1.0531-6.1004-1.9677-11.395-2.1562-12.482-4.1545-28.516-5.1997-41.724-1.1939-15.086-1.1967-15.034 0.87189-15.891 2.3478-0.9725 6.3681-4.2217 12.228-9.8828l4.9538-4.7856 61.924 0.1384 61.924 0.1383-0.0927 5.4422c-0.33103 19.432-3.2364 47.714-7.1726 69.823l-1.7636 9.9056h-62.701-62.701l-0.30476-1.7687zm152.2 0.8163c0.63256-2.1808 3.6373-21.195 4.6655-29.524 2.0932-16.956 3.8222-39.597 3.8339-50.204l0.005-4.7619h59.063 59.063l-0.32822 3.6735c-2.4978 27.956-8.2449 49.873-19.651 74.94l-3.1072 6.8289h-51.91c-49.181 0-51.896-0.05-51.634-0.9524zm-181.85-97.477c-14.011-12.89-33.24-34.1-46.693-51.504-44.76-57.91-63.627-112.32-54.601-157.47 6.0781-30.404 25.132-57.367 52.196-73.86 42.868-26.124 98.522-19.665 134.89 15.654 25.568 24.833 37.414 58.018 33.567 94.038-3.7467 35.082-20.194 72.731-49.003 112.17-14.641 20.044-35.334 43.62-51.845 59.068-7.592 7.1034-7.8215 7.2665-10.22 7.2665-2.349 0-2.7038-0.2297-8.2881-5.3673zm19.472-142.2c15.782-3.9715 28.131-16.187 32.766-32.412 0.98802-3.4585 1.2157-5.6544 1.2301-11.863 0.023-9.9374-1.5657-15.988-6.3319-24.116-2.3373-3.986-11.263-12.912-15.249-15.249-8.0698-4.732-14.206-6.3586-23.844-6.3203-8.8391 0.0352-12.162 0.80766-19.864 4.6176-11.583 5.73-20.129 15.959-23.709 28.379-1.6184 5.6141-2.0226 15.7-0.8592 21.442 1.7243 8.5096 5.6449 16.205 11.38 22.335 11.494 12.288 28.281 17.264 44.482 13.187zm-142.23 125.12c1.6479-22.51 8.7522-50.609 17.734-70.142l1.8428-4.0077 2.6616 4.898c11.444 21.06 27.636 44.418 45.467 65.589 3.2764 3.8902 5.957 7.1935 5.957 7.3407 0 0.1473-16.639 0.2677-36.975 0.2677h-36.975l0.28887-3.9456zm191.31-0.0003c18.611-21.355 38.125-49.595 50.383-72.912l4.2131-8.0144 16.096-0.013 16.096-0.013 0.68572 3.6735c4.3981 23.561 7.2628 48.412 7.9517 68.98 0.17043 5.0884 0.41459 9.9252 0.54258 10.748l0.2327 1.4966h-49.82-49.82l3.4389-3.946zm121.6-6.2582c-0.47917-13.029-1.6208-27.27-3.3594-41.906-1.2448-10.479-4.1766-29.46-4.9172-31.836-0.28134-0.9024 2.4254-0.9523 51.628-0.9523h51.925l2.7669 5.8503c7.5282 15.918 13.741 35.24 16.929 52.653 1.0084 5.508 2.2093 14.569 3.0472 22.993l0.33834 3.4013h-58.991-58.991l-0.37526-10.204zm-53.994-106.12c0.97978-2.9184 2.4859-7.9348 3.347-11.148 0.86105-3.2129 1.7416-5.6618 1.9568-5.4422 0.39107 0.3992 5.216 14.279 6.695 19.259l0.78309 2.637h-7.2816-7.2816l1.7814-5.3062zm38.726 1.9048c-6.3791-23.472-15.92-46.379-25.965-62.342-2.1401-3.4008-3.1897-5.6337-3.1976-6.8028-0.006-0.95714-0.35222-4.3117-0.76829-7.4546s-0.69875-5.7733-0.62818-5.8453c0.48149-0.4916 19.292 5.4911 27.967 8.8949 36.634 14.374 70.013 40.088 94.053 72.456 1.6096 2.1672 2.9266 4.0651 2.9266 4.2177s-21.029 0.2774-46.731 0.2774h-46.731l-0.92442-3.4014z"/>
	</g>
</svg>
