<?xml version="1.0" encoding="UTF-8" standalone="no"?>
<svg id="svg2" xmlns:rdf="http://www.w3.org/1999/02/22-rdf-syntax-ns#" xmlns="http://www.w3.org/2000/svg" height="512" width="512" version="1.1" xmlns:cc="http://creativecommons.org/ns#" xmlns:dc="http://purl.org/dc/elements/1.1/" viewBox="0 0 512.00001 512.00001">
	<g id="layer1" transform="translate(0,-540.36216)">
		<path id="path3412" d="m152 958.74309c-59.15788-4.70116-110.401181-39.8955-135.342439-92.95435-37.79846-80.41065-4.68309-175.64566 74.842439-215.23601 51.93835-25.85657 113.80642-21.80358 162.76092 10.66249 4.26851 2.83083 7.64351 5.68962 7.5 6.35288-0.36035 1.66544-29.07595 39.1881-30.03503 39.24675-0.42576 0.026-3.09239-1.54737-5.92585-3.49645-20.13258-13.84878-47.71671-20.85379-72.3201-18.36575-16.04396 1.62247-26.83487 4.7371-40.3763 11.65402-31.922951 16.30615-53.626407 45.56775-59.717494 80.51389-2.102211 12.06093-1.403828 34.84687 1.401968 45.74162 12.224303 47.4663 50.561196 80.32721 99.034006 84.88812 46.17131 4.34437 90.41251-21.09497 111.10693-63.88812 3.12778-6.46781 7.07095-17.95372 7.07095-20.59672 0-1.16119-8.80101-1.42801-54.25-1.64467l-54.25-0.25861v-25-25h81 81l0.29502 17c0.48938 28.20022-2.60372 46.96653-11.2612 68.32346-9.68493 23.89149-22.26156 41.92136-42.03382 60.25969-25.5566 23.70317-60.95179 39.13212-95 41.411-4.95 0.33131-10.35 0.74161-12 0.91177-1.65 0.17017-7.725-0.0661-13.5-0.52501zm265-114.84424v-21.99767l-21.75-0.2695-21.75-0.2695v-25-25l21.75-0.2695 21.75-0.2695v-21.99767-21.99767l25.25 0.26717 25.25 0.26717 0.2695 21.75 0.2695 21.75h21.9805 21.9805v25.5 25.5h-21.9805-21.9805l-0.2695 21.75-0.2695 21.75-25.25 0.26717-25.25 0.26717v-21.99767z"/>
	</g>
</svg>
