<?xml version="1.0" encoding="UTF-8" standalone="no"?>
<svg xmlns:rdf="http://www.w3.org/1999/02/22-rdf-syntax-ns#" xmlns="http://www.w3.org/2000/svg" height="512" width="512" version="1.1" xmlns:cc="http://creativecommons.org/ns#" xmlns:dc="http://purl.org/dc/elements/1.1/" viewBox="0 0 512.00001 512.00001">
	<g transform="translate(0 -540.36)">
		<path d="m10.45 1051c-4.0272-1.7706-8.2281-6.8772-8.9547-10.885-0.32114-1.7713-0.45154-28.725-0.28979-59.898 0.28772-55.449 0.33877-56.737 2.3559-59.438 1.134-1.5184 3.3042-3.6886 4.8226-4.8226 2.7037-2.0191 3.9599-2.0675 60.664-2.3354 64.358-0.30406 62.359-0.49156 67.57 6.3396l2.8818 3.7783v59.255c0 58.287-0.0337 59.3-2.0618 62.016-1.134 1.5188-3.3042 3.6893-4.8226 4.8233-2.706 2.0208-3.9169 2.0662-60.938 2.2851-46.84 0.1799-58.772-0.038-61.227-1.1174zm184.56-0.8808c-8.37-4.4-8.01-1.4-8.01-67.24 0-65.788-0.35626-62.8 8.0126-67.225l4.302-2.2749h56.527c54.651 0 56.662 0.0669 60.593 2.0145 2.2361 1.108 4.9657 3.2455 6.0657 4.75 1.9474 2.6635 2 4.314 2 62.735 0 58.422-0.0526 60.072-2 62.736-1.1 1.5045-3.8296 3.642-6.0657 4.75-3.9308 1.9476-5.9419 2.0145-60.593 2.0145h-56.527l-4.302-2.2749zm186.44 0.8808c-4.0272-1.7706-8.2281-6.8772-8.9547-10.885-0.32114-1.7713-0.45155-28.725-0.28979-59.898 0.28772-55.449 0.33876-56.737 2.3559-59.438 1.134-1.5184 3.3045-3.6886 4.8233-4.8226 2.7166-2.0282 3.7282-2.0618 62.115-2.0618s59.398 0.0336 62.115 2.0618c1.5188 1.134 3.6894 3.3045 4.8233 4.8233 2.0282 2.7166 2.0618 3.7282 2.0618 62.115s-0.0336 59.398-2.0618 62.115c-1.134 1.5188-3.3042 3.6893-4.8226 4.8233-2.706 2.0208-3.9169 2.0662-60.938 2.2851-46.84 0.1798-58.772-0.038-61.227-1.1174zm-372.44-187.49c-2.0403-1.0942-4.3927-3.6202-5.7344-6.1573l-2.2749-4.3v-56.69-56.68l2.2749-4.31c4.4661-8.44 1.273-8.08 68.225-7.77 57.2 0.25834 59.083 0.32748 61.735 2.2665 1.5045 1.1 3.642 3.8296 4.75 6.0657 1.9477 3.9308 2.0145 5.9419 2.0145 60.593v56.527l-2.2749 4.302c-4.4256 8.3689-1.4366 8.0126-67.225 8.0126-54.613 0-58.235-0.10928-61.491-1.8553zm185.23-0.14c-1.7925-1.0929-4.1533-3.4537-5.2463-5.2463-1.923-3.154-1.9871-5.1456-1.9871-61.759 0-56.614 0.0641-58.605 1.9871-61.759 1.0929-1.7925 3.4537-4.1533 5.2463-5.2463 3.154-1.923 5.1456-1.9871 61.759-1.9871 56.614 0 58.605 0.0641 61.759 1.9871 1.7925 1.0929 4.1533 3.4537 5.2463 5.2463 1.923 3.154 1.9871 5.1456 1.9871 61.759 0 56.614-0.0641 58.605-1.9871 61.759-1.0929 1.7925-3.4537 4.1533-5.2463 5.2463-3.154 1.923-5.1456 1.9871-61.759 1.9871-56.614 0-58.605-0.0641-61.759-1.9871zm185.77 0.13926c-2.0402-1.0942-4.3927-3.6202-5.7344-6.1573l-2.28-4.3v-56.685-56.685l2.2749-4.302c4.4661-8.4456 1.273-8.0815 68.225-7.7791 57.2 0.25834 59.083 0.32748 61.735 2.2665 1.5045 1.1 3.642 3.8296 4.75 6.0657 1.9477 3.9308 2.0145 5.9419 2.0145 60.593v56.527l-2.2749 4.302c-4.4256 8.3689-1.4366 8.0126-67.225 8.0126-54.613 0-58.235-0.10928-61.491-1.8553zm-369.56-185.54c-4.0267-1.77-8.2276-6.88-8.9543-10.89-0.3211-1.77-0.4515-28.72-0.2898-59.9 0.28772-55.449 0.33877-56.737 2.3559-59.438 1.134-1.5184 3.3042-3.6886 4.8226-4.8226 2.7038-2.0192 3.9593-2.0674 60.737-2.3354 64.658-0.3052 62.249-0.53959 67.685 6.5865l2.6936 3.5314v59.255c0 58.287-0.0337 59.3-2.0618 62.016-1.134 1.5188-3.3042 3.6894-4.8226 4.8233-2.706 2.0208-3.9169 2.0662-60.938 2.2851-46.84 0.17982-58.772-0.038-61.227-1.1175zm184.56-0.88c-8.37-4.43-8.01-1.44-8.01-67.23 0-65.788-0.35626-62.8 8.0126-67.225l4.302-2.2749h56.527c54.651 0 56.662 0.0669 60.593 2.0145 2.2361 1.108 4.9657 3.2455 6.0657 4.75 1.9474 2.6635 2 4.314 2 62.735 0 58.422-0.0526 60.072-2 62.735-1.1 1.5045-3.8296 3.642-6.0657 4.75-3.9308 1.9477-5.9419 2.0145-60.593 2.0145h-56.527l-4.302-2.2749zm186.44 0.88081c-4.0272-1.7706-8.2281-6.8772-8.9547-10.885-0.32114-1.7713-0.45155-28.725-0.28979-59.898 0.28772-55.449 0.33876-56.737 2.3559-59.438 1.134-1.5184 3.3042-3.6886 4.8226-4.8226 2.7038-2.0192 3.9593-2.0674 60.737-2.3354 64.658-0.3052 62.249-0.53959 67.685 6.5865l2.6936 3.5314v59.255c0 58.287-0.0337 59.3-2.0618 62.016-1.134 1.5188-3.3042 3.6894-4.8226 4.8233-2.706 2.0208-3.9169 2.0662-60.938 2.2851-46.84 0.17982-58.772-0.038-61.227-1.1175z"/>
	</g>
</svg>
