<svg xmlns:rdf="http://www.w3.org/1999/02/22-rdf-syntax-ns#" xmlns="http://www.w3.org/2000/svg" height="512" width="512" version="1.1" xmlns:cc="http://creativecommons.org/ns#" xmlns:dc="http://purl.org/dc/elements/1.1/" viewBox="0 0 512.00001 512.00001">
	<g transform="translate(0 -540.36)">
		<path d="m107.1 986.59v-23.484h-53.551-53.551l0.44346-40.223c0.40808-36.84 0.63144-41.07 2.6524-50.22 3.1273-14.16 6.3384-23.22 13.099-36.98 10.478-21.31 28.431-42.11 48.08-55.71l7.6374-5.2853-6.4343-7.4752c-20.811-24.18-30.316-53.59-27.246-84.3 5.2348-52.362 45.654-93.258 98.397-99.557 36.786-4.393 75.584 11.783 99.082 41.309l3.8421 4.8278h16.449 16.449l3.8421-4.8278c23.497-29.526 62.296-45.702 99.082-41.309 52.743 6.2986 93.162 47.195 98.397 99.557 3.0692 30.701-6.4365 60.129-27.224 84.278l-6.412 7.449 8.7378 6.2507c25.398 18.169 45.719 45.452 55.329 74.286 6.3227 18.97 6.8741 24.046 7.3554 67.704l0.44 40.22h-53.551-53.551v23.484 23.484h-148.9-148.9v-23.484zm269.82-26.8c0-15.989-0.45707-24.969-1.6136-31.702-5.0277-29.269-20.204-55.419-42.562-73.339-9.0601-7.2617-22.467-15.553-25.148-15.553-0.93181 0-3.8153 1.0732-6.4077 2.3848-10.698 5.4128-30.406 9.5994-45.186 9.5994s-34.488-4.1867-45.186-9.5994c-2.5924-1.3116-5.4759-2.3848-6.4077-2.3848-2.6814 0-16.088 8.2915-25.148 15.553-22.359 17.92-37.534 44.07-42.562 73.339-1.1565 6.7326-1.6136 15.713-1.6136 31.702v22.309h120.92 120.92v-22.309zm-267.48-34.77c3.3213-21.029 11.33-41.224 23.754-59.895 7.7236-11.608 26.162-30.419 37.579-38.339l8.2086-5.6942-7.2093-8.5158-7.2093-8.5158-7.4949 0.64234c-15.763 1.3509-36.687-2.2368-52.165-8.9446l-8.17-3.5405-7.1048 4.0651c-25.625 14.662-45.265 37.813-54.848 64.655-5.1303 14.371-6.6312 24.838-7.3065 50.959l-0.62649 24.233h40.419 40.419l1.7546-11.109zm375.09-13.124c-0.68759-26.597-2.2129-36.905-7.6762-51.875-9.652-26.447-29.13-49.236-54.478-63.739l-7.1048-4.0651-8.17 3.5405c-15.479 6.7077-36.402 10.295-52.165 8.9446l-7.4949-0.64234-7.2093 8.5158-7.2093 8.5158 8.2086 5.6942c11.417 7.9196 29.855 26.731 37.579 38.339 13.573 20.399 21.863 42.427 24.558 65.259l0.67845 5.7461h40.555 40.555l-0.62649-24.233zm-206.03-91.23c23.125-6.7014 41.005-21.357 51.98-42.606 16.735-32.402 10.604-70.628-15.522-96.771-9.3673-9.3735-16.831-14.38-28.258-18.956-43.147-17.277-92.567 4.6694-109.09 48.442-12.52 33.176-2.3113 71.291 25.166 93.955 11.044 9.1094 26.946 16.203 41.543 18.529 8.8993 1.4187 24.393 0.24364 34.179-2.5921zm-127.87-45.133c-0.35789-0.93265-1.6427-5.3172-2.855-9.7434-1.9121-6.9806-2.1941-10.433-2.1274-26.035 0.0838-19.631 0.97099-24.598 7.3452-41.127 8.9424-23.188 29.358-45.814 51.411-56.977l6.869-3.4768-3.3713-3.5054c-8.59-8.9316-20.776-16.312-34.576-20.94-10.553-3.5391-29.036-4.4122-41.319-1.9519-33.71 6.7522-60.006 33.857-65.947 67.975-1.8868 10.835-0.72575 28.241 2.5693 38.517 3.1856 9.9349 5.2895 14.302 10.827 22.473 14.909 21.999 40.108 36.119 64.973 36.407 6.0512 0.0702 6.7762-0.1188 6.2016-1.6163zm229.65 0.20671c25.365-5.374 46.553-21.711 58.335-44.979 9.3593-18.484 10.835-44.381 3.6935-64.821-9.6131-27.515-33.673-48.424-62.324-54.163-12.283-2.4604-30.767-1.5872-41.319 1.9519-13.8 4.628-25.986 12.008-34.576 20.94l-3.3713 3.5054 6.869 3.4768c18.878 9.5555 37.715 28.61 47.587 48.138 3.9576 7.8285 8.519 21.609 10.328 31.204 2.9314 15.545 0.97546 41.208-4.1609 54.593-0.54488 1.4199 0.23352 1.6412 5.722 1.6262 3.494-0.01 9.4416-0.67179 13.217-1.4717z"/>
	</g>
</svg>
