<?xml version="1.0" encoding="UTF-8" standalone="no"?>
<svg id="svg3357" xmlns:rdf="http://www.w3.org/1999/02/22-rdf-syntax-ns#" xmlns="http://www.w3.org/2000/svg" viewBox="0 0 512 512" version="1.1" xmlns:cc="http://creativecommons.org/ns#" xmlns:dc="http://purl.org/dc/elements/1.1/">
	<path id="path3367" d="m230.51216 469.47091c-26.58093-2.65779-54.69769-8.14245-82.32674-16.05924-8.44759-2.42058-15.53165-4.40103-15.74235-4.40103s-0.37718-20.12773-0.36995-44.72828c0.0118-40.02045 0.21308-45.69716 1.91277-53.93354 4.53468-21.97402 17.78695-43.25608 35.13057-56.41677 12.63669-9.58897 24.18678-15.01185 39.17631-18.39363 9.46558-2.13553 71.22849-3.21493 89.30933-1.56083 24.83615 2.27212 43.7289 10.58742 60.20736 26.49915 11.15745 10.77373 18.66665 22.25879 24.16946 36.96637 4.8831 13.05123 5.19469 16.57577 5.68216 64.27247l0.46154 45.16003-4.00316 2.04226c-18.26982 9.32057-48.85481 17.0941-80.84945 20.54881-17.23906 1.86143-54.16213 1.86358-72.75785 0.004zm175.40659-88.90538c-0.0227-36.02396-7.12074-58.61778-25.9088-82.47045-10.22905-12.98645-24.1299-23.85475-40.23922-31.46082-5.11892-2.41691-10.54402-4.69919-12.05579-5.07172-3.28909-0.81051-3.41527-1.54655-0.68816-4.01456 5.52848-5.0032 15.08618-20.21348 19.4351-30.92931 2.37276-5.84657 5.47384-19.37294 5.49959-23.98835 0.0123-2.19893 0.39975-4.59338 0.86108-5.32099 0.67933-1.07146 8.22869-1.24976 39.71539-0.93798 35.97246 0.35619 39.45335 0.5448 46.59693 2.5248 28.64083 7.93844 50.05392 25.56814 62.80819 51.71087 9.01634 18.481 9.23853 20.15817 9.67599 73.03777l0.38095 46.05088-7.09124 3.26856c-21.86523 10.07834-55.67015 17.73345-87.73727 19.86809l-11.24454 0.74851-0.008-13.0153zm-307.342496 11.34295c-27.828952-2.658-66.999124-10.80369-93.7665205-19.49935l-4.8097335-1.56248 0.38009536-46.62637c0.43635802-53.53031 0.64208804-55.09542 9.67640964-73.61326 12.752725-26.13959 34.12958-43.74195 62.808189-51.71824 7.234175-2.01202 10.433161-2.17052 50.804516-2.51713l43.08423-0.3699 0.66364 6.47755c1.98866 19.41039 12.57488 42.75857 24.51204 54.06192 1.70516 1.61462 3.10028 3.2301 3.10028 3.58997 0 0.35988-1.91157 1.22192-4.24794 1.91566-19.50947 5.79303-44.18511 24.57167-56.90962 43.30934-6.15739 9.06716-13.39514 25.0697-16.3758 36.20664-2.36935 8.85283-2.73225 12.36545-3.17537 30.73507l-0.50031 20.73993-3.12423-0.13509c-1.71834-0.0743-7.17228-0.52171-12.119876-0.99426zm145.794496-125.23858c-36.77106-8.37975-60.97703-40.13878-59.05889-77.4872 1.01777-19.8173 8.76508-36.66982 23.16004-50.37948 14.36498-13.68112 36.18135-21.64604 55.524-20.27121 33.23011 2.3619 59.78939 24.31546 68.55838 56.66949 2.61217 9.63784 2.41771 27.16979-0.4128 37.21556-7.10155 25.2042-25.49159 44.49389-49.98775 52.43318-9.59437 3.10956-28.1924 4.00526-37.78298 1.81966zm-125.91609-76.547c-29.753319-4.06515-53.353665-24.44278-62.494095-53.96029-3.306513-10.67784-3.328663-29.04893-0.048776-40.435294 7.175125-24.908698 25.039147-43.133592 50.660541-51.683929 6.04646-2.017817 8.96474-2.334896 21.48956-2.334896s15.4431 0.317079 21.48956 2.334896c31.1263 10.387425 50.96212 35.446001 53.15165 67.146423l0.58785 8.51094-5.58436 4.77086c-12.18768 10.41227-23.55274 29.25903-27.82989 46.1505-2.07827 8.20761-2.39357 8.76239-6.25931 11.01348-11.82728 6.88724-30.79059 10.45095-45.16277 8.48731zm256.25922 0.004c-6.9502-0.84846-11.25516-1.97061-18.45154-4.80965-3.94426-1.55605-4.22586-1.93645-4.86302-6.56914-1.64784-11.98127-7.23485-26.00224-14.9337-37.4772-5.06715-7.55245-16.52643-19.15196-23.36383-23.64972l-4.36813-2.87344 0.61277-5.8626c2.65147-25.367564 17.44726-47.487423 39.49238-59.041195 12.84125-6.730056 18.90461-8.135464 35.09882-8.135464 12.52482 0 15.4431 0.317079 21.48956 2.334896 25.62139 8.550337 43.48542 26.775231 50.66054 51.683929 3.27992 11.386364 3.25778 29.757454-0.0488 40.435294-11.19408 36.14944-44.76721 58.42745-81.32511 53.96462z"/>
</svg>
