<svg xmlns:inkscape="http://www.inkscape.org/namespaces/inkscape" xmlns:rdf="http://www.w3.org/1999/02/22-rdf-syntax-ns#" xmlns="http://www.w3.org/2000/svg" sodipodi:docname="handshake.svg" height="512" width="512" version="1.1" xmlns:cc="http://creativecommons.org/ns#" xmlns:dc="http://purl.org/dc/elements/1.1/" inkscape:version="0.91 r13725" viewBox="0 0 512.00001 512.00001" xmlns:sodipodi="http://sodipodi.sourceforge.net/DTD/sodipodi-0.dtd">
	<sodipodi:namedview bordercolor="#666666" inkscape:pageshadow="2" inkscape:window-y="-8" pagecolor="#ffffff" inkscape:window-height="1017" inkscape:window-maximized="1" inkscape:zoom="0.35" inkscape:window-x="-8" showgrid="false" borderopacity="1.0" inkscape:current-layer="layer1" inkscape:cx="-126.42857" inkscape:cy="520" units="px" inkscape:window-width="1920" inkscape:pageopacity="0.0" inkscape:document-units="px"/>
	<g inkscape:label="Layer 1" inkscape:groupmode="layer" transform="translate(0 -540.36)">
		<path inkscape:connector-curvature="0" d="m228.37 1033.9c-6.5433-0.8088-13.283-3.4651-19.732-7.7764-1.8752-1.2538-13.006-11.88-26.144-24.96l-22.879-22.777h-34.404-34.404v-105.01-105.01l15.647-0.1667 15.647-0.1667 2.5278-1.486c1.3903-0.8173 3.1868-2.2692 3.9922-3.2263 0.80539-0.9572 4.5335-7.8808 8.2847-15.386 9.0456-18.097 10.482-20.436 15.937-25.945 7.209-7.2799 15.67-11.612 25.376-12.993 3.0279-0.4308 22.349-0.5632 65.522-0.4491l61.228 0.1618 2.7212 1.446c3.4329 1.824 5.321 3.8099 6.9046 7.262 2.7046 5.896 0.91089 20.478-4.0169 32.655l-1.3215 3.2654-37.248 0.2843-37.248 0.2842-5.4297 1.4845c-14.285 3.9056-27.04 13.099-34.868 25.132-1.5676 2.4097-15.142 28.995-30.164 59.078-30.161 60.398-28.953 57.535-26.96 63.871 1.8741 5.9582 4.3379 7.814 18.025 13.576 13.227 5.5688 22.942 8.1459 34.15 9.0595 35.178 2.8673 69.077-16.228 86.659-48.814l2.127-3.9422 5.1714-0.01 5.1714-0.01 53.335 53.341 53.335 53.341-1.6328 1.3744c-4.3633 3.6729-7.4013 5.7696-10.885 7.5128-3.2401 1.6213-126.12 40.731-137.98 43.914-4.4467 1.194-11.66 1.6635-16.452 1.0711zm-217.57-56.03c-4.5451-1.3825-8.7857-5.623-10.082-10.081-0.70826-2.4363-0.79382-14.645-0.66975-95.563l0.14224-92.77 1.1985-2.2404c1.9317-3.6109 3.818-5.4955 7.1262-7.1201l3.1045-1.5245 24.627-0.1665 24.627-0.1665v105.07 105.07l-24.355-0.047c-13.395-0.026-24.969-0.2336-25.719-0.4618zm440.3-104.54v-105.09l24.627 0.1665 24.627 0.1665 3.1044 1.5245c3.3082 1.6246 5.1945 3.5092 7.1262 7.1201l1.1985 2.2404 0.14227 92.77c0.15952 104.06 0.44721 96.442-3.8188 101.07-1.2437 1.3493-3.2519 2.9836-4.4627 3.6318-2.1533 1.153-2.752 1.1822-27.373 1.3354l-25.172 0.1566v-105.09zm-87.352 32.72-57.146-57.085-4.6261-2.1977c-2.5444-1.2087-6.0793-2.4595-7.8555-2.7794-1.802-0.3246-10.16-0.5817-18.91-0.5817h-15.681l-5.5017 11.021c-3.0259 6.0616-6.8792 13.103-8.5627 15.647-8.6975 13.144-22.72 22.361-38.563 25.347-5.9181 1.1154-19.289 0.8056-24.389-0.5652-5.1881-1.3944-10.069-3.1734-10.069-3.6701 0-0.2512 10.663-21.766 23.696-47.81 23.124-46.211 23.778-47.436 27.076-50.774 4.0645-4.1127 7.9779-6.4238 13.438-7.9358 4.0422-1.1194 4.7076-1.1273 94.291-1.1273h90.22v89.801c0 49.39-0.0612 89.8-0.13606 89.798-0.0748 0-25.852-25.691-57.282-57.088zm-201.26-228.12c-1.1322-0.28084-2.8466-0.90951-3.8097-1.397-0.96311-0.48754-9.1471-8.2657-18.187-17.285-13.545-13.515-16.679-16.925-17.819-19.392-3.6814-7.9665 0.0136-17.338 8.0451-20.406 3.2671-1.2477 8.957-0.92021 12.059 0.69407 1.2488 0.64994 9.3038 8.284 18.893 17.906 18.498 18.561 19.068 19.323 19.068 25.481 0 7.7264-5.6143 13.824-13.47 14.63-1.4967 0.15354-3.6476 0.0494-4.7799-0.23145zm179.64-0.16861c-4.8048-1.3426-8.9446-5.2355-10.263-9.6513-0.3051-1.0216-0.55714-3.2627-0.56011-4.9803-0.01-5.7897 0.67498-6.6944 18.99-25.082 9.6376-9.6759 17.631-17.254 18.887-17.906 3.1041-1.6108 8.7962-1.9368 12.059-0.69078 8.9434 3.4155 12.332 14.236 6.9789 22.286-1.0043 1.5102-8.9043 9.7834-17.556 18.385-11.442 11.376-16.384 15.928-18.13 16.7-3.2674 1.4438-7.2987 1.8079-10.405 0.93987zm-91.558-45.535c-3.6438-1.4226-7.1258-4.9542-8.4962-8.617-1.0598-2.8326-1.0972-3.9599-0.94723-28.591l0.15608-25.642 1.4699-2.7864c5.6597-10.729 21.061-10.641 26.573 0.15079l1.3462 2.6356 0.15133 25.655c0.14526 24.628 0.10721 25.772-0.9507 28.6-2.8709 7.6731-11.651 11.583-19.303 8.5951z"/>
	</g>
</svg>
