<?xml version="1.0" encoding="UTF-8" standalone="no"?>
<svg id="svg2" xmlns:rdf="http://www.w3.org/1999/02/22-rdf-syntax-ns#" xmlns="http://www.w3.org/2000/svg" height="512" width="512" version="1.1" xmlns:cc="http://creativecommons.org/ns#" xmlns:dc="http://purl.org/dc/elements/1.1/" viewBox="0 0 512.00001 512.00001">
	<g id="layer1" transform="translate(0,-540.36216)">
		<path id="path3360" d="m71 1049.6106c-5.302446-2.6488-5.878964-5.6072-5.943558-30.4984l-0.056442-21.75002h13.5 13.5v-12.77623c0-18.3253 1.439161-27.81726 6.484739-42.76997 9.440831-27.97817 26.159231-60.56689 62.146511-121.14045l14.3695-24.18666-13.86576-23.31334c-36.20402-60.87202-54.60511-96.97948-63.57208-124.74408-4.265095-13.2061-5.54471-22.49325-5.555321-40.31927l-0.0076-12.75h-13.5-13.5v-22.53212c0-25.78936 0.574012-28.55629 6.431892-31.00387 3.034146-1.26775 27.739319-1.45644 184.285988-1.40757 137.31813 0.0429 181.6236 0.3434 184.28212 1.25 6.37938 2.17548 6.99667 4.90479 6.99845 30.94356l0.002 22.75h-13.36709-13.3671l-0.53119 18.25c-0.5841 20.06773-1.61996 25.49467-8.26355 43.29328-10.30302 27.60245-29.56637 64.05676-64.34272 121.76332-5.571029 9.24363-10.128789 17.20566-10.128789 17.6934s4.55776 8.44977 10.12835 17.6934c37.90253 62.89402 58.39551 102.53222 67.29542 130.16505 4.42783 13.74772 5.50495 21.39906 5.54535 39.39155l0.0309 13.75h13.5 13.5v22.03212c0 25.2452-0.59454 28.0649-6.43189 30.5039-3.03259 1.2671-27.88673 1.4638-184.78599 1.4624-170.58526 0-181.488643-0.1047-184.78212-1.75zm321-69.35092c0-16.41488-0.12297-17.47027-3.05849-26.25-5.70236-17.05493-17.15377-39.31548-50.74685-98.6475-22.74468-40.1716-29.46739-53.6319-29.46739-59s6.72271-18.8284 29.46739-59c33.59308-59.33202 45.04449-81.59257 50.74685-98.64751 2.93552-8.77972 3.05849-9.83511 3.05849-26.25v-17.10249h-136-136v17.07194c0 16.53864 0.10025 17.37428 3.209 26.75 1.76495 5.32293 7.54673 18.45306 12.84841 29.17806 8.50848 17.21219 16.67731 32.222 48.16457 88.5 13.60529 24.3171 18.27802 34.41517 18.27802 39.5s-4.67273 15.1829-18.27802 39.5c-31.48726 56.278-39.65609 71.28781-48.16457 88.5-5.30168 10.725-11.08346 23.85513-12.84841 29.17806-3.10875 9.37572-3.209 10.21136-3.209 26.75v17.07194h136 136v-17.1025zm-230.79651-31.6475c0.36726-10.37751 0.55769-11.15401 5.49597-22.40973 14.37015-32.75362 41.12691-72.02648 70.23582-103.09027l7.26228-7.75h11.78657 11.78656l6.13168 6.55479c27.71297 29.62525 53.92469 68.56103 71.16967 105.71785 5.92182 12.75942 5.92796 12.78246 5.92796 22.25v9.47736h-95.08848-95.08847l0.38044-10.75z"/>
	</g>
</svg>
