<svg xmlns:inkscape="http://www.inkscape.org/namespaces/inkscape" xmlns:rdf="http://www.w3.org/1999/02/22-rdf-syntax-ns#" xmlns="http://www.w3.org/2000/svg" sodipodi:docname="hourglass.svg" height="512" width="512" version="1.1" xmlns:cc="http://creativecommons.org/ns#" xmlns:dc="http://purl.org/dc/elements/1.1/" inkscape:version="0.91 r13725" viewBox="0 0 511.99999 512.00001" xmlns:sodipodi="http://sodipodi.sourceforge.net/DTD/sodipodi-0.dtd">
	<sodipodi:namedview bordercolor="#666666" inkscape:pageshadow="2" inkscape:window-y="-8" pagecolor="#ffffff" inkscape:window-height="1017" inkscape:window-maximized="1" inkscape:zoom="0.35" inkscape:window-x="-8" showgrid="false" borderopacity="1.0" inkscape:current-layer="svg2" inkscape:cx="215.01557" inkscape:cy="520" units="px" inkscape:window-width="1920" inkscape:pageopacity="0.0" inkscape:document-units="px">
		<sodipodi:guide position="0,0" orientation="0,512"/>
		<sodipodi:guide position="511.99999,0" orientation="-512,0"/>
		<sodipodi:guide position="511.99999,512.00001" orientation="0,-512"/>
		<sodipodi:guide position="0,512.00001" orientation="512,0"/>
	</sodipodi:namedview>
	<path inkscape:connector-curvature="0" d="m39.023 509.18c-12.665-7.3439-13.741-26.992-1.9397-35.41 3.4441-2.4567 6.326-3.0152 18.401-3.566l14.317-0.65303 2.3378-14.367c9.8745-60.683 42.112-127.3 81.134-167.67 9.9646-10.307 21.759-20.605 29.928-26.13 3.4121-2.3076 6.2038-4.7268 6.2038-5.3761 0-0.64932-2.7917-3.0686-6.2038-5.3761-29.694-20.082-58.827-56.381-80.068-99.762-15.941-32.557-25.913-62.814-30.994-94.037l-2.338-14.367-14.319-0.65303c-16.163-0.72-20.718-2.747-24.601-10.929-4.639-9.778-1.678-20.703 7.445-27.462l3.687-2.7327 212.92-0.33815 212.92-0.33815 4.9423 2.7777c13.145 7.3879 14.163 27.898 1.7886 36.03-2.7055 1.7779-7.1184 2.5169-17.971 3.0096l-14.385 0.65303-2.2813 13.917c-12.546 76.535-55.793 153.85-107.01 191.31-5.6743 4.1502-10.317 7.8908-10.317 8.3123 0 0.42156 4.5678 4.1074 10.151 8.1909 11.296 8.2618 30.576 27.154 40.958 40.133 32.215 40.274 57.477 97.999 66.214 151.3l2.2812 13.917 14.317 0.65303c12.075 0.55076 14.957 1.1092 18.401 3.566 11.888 8.4796 10.7 28.251-2.1298 35.462l-4.9216 2.7661-212.06-0.03-212.06-0.03-4.7561-2.7578zm358.84-46.411c-0.4805-4.0891-2.3657-13.346-4.189-20.57-17.005-67.378-57.838-129.83-99.782-152.62-23.554-12.797-49.634-13.477-72.486-1.8901-39.13 19.84-77.298 73.087-97.76 136.38-4.4597 13.795-9.9901 37.822-9.9901 43.402v2.7335h142.54 142.54l-0.8739-7.4348zm-124-232.09c35.859-9.5477 73.897-49.389 99.689-104.42 11.359-24.235 22.252-58.675 24.309-76.86l0.8577-7.5815h-142.53-142.53v2.7335c0 5.5591 5.5248 29.593 10.018 43.578 14.838 46.187 38.933 86.886 67.381 113.81 16.178 15.314 30.817 24.331 46.546 28.669 8.1089 2.2365 27.969 2.272 36.259 0.0649z"/>
</svg>
