<?xml version="1.0" encoding="UTF-8" standalone="no"?>
<svg id="svg2" xmlns:rdf="http://www.w3.org/1999/02/22-rdf-syntax-ns#" xmlns="http://www.w3.org/2000/svg" height="512" width="512" version="1.1" xmlns:cc="http://creativecommons.org/ns#" xmlns:dc="http://purl.org/dc/elements/1.1/" viewBox="0 0 512.00001 512.00001">
	<g id="layer1" transform="translate(0,-540.36216)">
		<path id="path3412" d="m14.122803 1050.3601c-7.622636-1.7997-13.64885747-10.0425-12.7924546-17.4979 0.6776375-5.8992 34.8203956-82.12257 38.3364006-85.5857 1.558288-1.53486 15.067388-9.1429 30.020222-16.90675l27.186972-14.11611 9.063857 5.46419c27.59414 16.63523 58.53026 16.63523 86.1244 0l9.06386-5.46419 27.18697 14.11611c14.95283 7.76385 28.46193 15.37189 30.02022 16.90675 3.51601 3.46313 37.65876 79.6865 38.3364 85.5857 0.3335 2.9032-0.17513 5.2178-1.85508 8.4414-2.72837 5.2355-6.0023 7.8511-11.39196 9.1011-4.84124 1.1228-264.537375 1.0798-269.299807-0.045zm313.877197-4.0709c0-4.1738-1.61257-8.8264-9.09815-26.25-5.00398-11.6474-9.32712-21.73952-9.60699-22.42702-0.40224-0.98812 8.20784-1.25 41.09815-1.25h41.60699v-17.1025c0-16.41488-0.12297-17.47027-3.05849-26.25-5.70236-17.05493-17.15377-39.31548-50.74685-98.6475-22.74468-40.1716-29.46739-53.6319-29.46739-59s6.72271-18.8284 29.46739-59c33.59308-59.33202 45.04449-81.59257 50.74685-98.64751 2.93552-8.77972 3.05849-9.83511 3.05849-26.25v-17.10249h-136-136v17.07194c0 16.53315 0.10118 17.37738 3.20583 26.75 3.85484 11.63733 20.19042 44.72249 36.62492 74.17806 6.59766 11.825 11.8695 21.62779 11.7152 21.78397-0.15431 0.15619-2.42243-0.19603-5.04027-0.7827-5.12529-1.1486-21.66606-1.49081-25.60096-0.52965-2.7985 0.68358-1.71325 2.35366-16.11782-24.80372-12.87878-24.28077-20.74897-41.66566-26.273213-58.03636-5.076282-15.04319-6.513687-24.50026-6.513687-42.85531v-12.77623h-13.5-13.5l0.05644-21.75c0.064596-24.89126 0.641114-27.84958 5.94356-30.49845 3.293477-1.64527 14.19686-1.74853 184.78212-1.75 156.89926-0.001 181.7534 0.19536 184.78599 1.46246 5.83735 2.439 6.43189 5.25865 6.43189 30.50387v22.03212h-13.5-13.5l-0.0309 13.75c-0.0404 17.99249-1.11752 25.64383-5.54535 39.39155-8.89991 27.63283-29.39289 67.27103-67.29542 130.16505-5.57057 9.24363-10.12833 17.20566-10.12833 17.6934s4.55776 8.44977 10.12835 17.6934c34.77635 57.70656 54.0397 94.16087 64.34272 121.76332 6.64359 17.79861 7.67945 23.22555 8.26355 43.29328l0.53119 18.25h13.3671 13.36709l-0.002 22.75002c-0.002 26.0388-0.61907 28.7681-6.99845 30.9435-2.53405 0.8642-18.47221 1.2092-57.75 1.25l-54.24955 0.057v-5.073zm-40.90845-100.85407c-1.80007-4.35987-4.01955-8.5928-4.9322-9.4065-0.91264-0.81369-15.72185-9.02174-32.90935-18.2401s-31.25-17.05446-31.25-17.41357 2.44553-4.37007 5.43452-8.91325c10.6357-16.166 15.12659-34.61305 14.33587-58.88697l-0.47926-14.71256 3.35444-4.1683 3.35443-4.16829v-16.68748-16.68748l-7.1635-7.64422c-29.00232-30.9486-55.78785-70.27866-70.13704-102.9845-4.93828-11.25572-5.12871-12.03222-5.49597-22.40973l-0.38044-10.75h95.08847 95.08848v9.47736c0 9.46754-0.006 9.49058-5.92796 22.25-17.21478 37.09176-43.46286 76.09919-71.05501 105.59528l-6.01703 6.43222v16.90241 16.9024l8.6467 9.47017c31.78601 34.81311 56.51859 71.8612 69.99656 104.85114 4.03492 9.87624 4.33903 11.26604 4.34756 19.86902l0.009 9.25h-30.3178-30.31781l-3.27284-7.92705zm-146.22157-33.1029c-28.0514-4.32553-49.862158-27.55587-56.464446-60.1395-2.252474-11.11642-1.465384-34.53801 1.572939-46.80623 4.140531-16.71873 13.149853-30.40629 25.032897-38.03162 19.28683-12.37632 56.69043-12.37632 75.97726 0 11.88304 7.62533 20.89237 21.31289 25.0329 38.03162 3.03832 12.26822 3.82541 35.68981 1.57294 46.80623-5.2564 25.94138-20.48358 46.65308-40.8729 55.59449-9.71576 4.26069-22.1703 6.03787-31.85159 4.54501z"/>
	</g>
</svg>
