<?xml version="1.0" encoding="UTF-8" standalone="no"?>
<svg id="svg2" xmlns:rdf="http://www.w3.org/1999/02/22-rdf-syntax-ns#" xmlns="http://www.w3.org/2000/svg" height="512" width="512" version="1.1" xmlns:cc="http://creativecommons.org/ns#" xmlns:dc="http://purl.org/dc/elements/1.1/" viewBox="0 0 512.00001 512.00001">
	<g id="layer1" transform="translate(0,-540.36216)">
		<path id="path3399" d="m72 1050.0557c-6.379385-2.1754-6.996667-4.9047-6.998446-30.9435l-0.001554-22.75002h13.367093 13.367093l0.531192-18.25c0.584099-20.06773 1.619961-25.49467 8.263552-43.29328 10.30302-27.60245 29.56637-64.05676 64.34272-121.76332 5.57059-9.24363 10.12835-17.20566 10.12835-17.6934s-4.55776-8.44977-10.12835-17.6934c-37.90253-62.89402-58.39551-102.53222-67.295422-130.16505-4.427831-13.74772-5.50495-21.39906-5.545352-39.39155l-0.030876-13.75h-13.5-13.5v-22.03212c0-25.24522 0.594537-28.06487 6.431892-30.50387 3.032592-1.2671 27.88673-1.4638 184.785988-1.46246 170.58526 0.001 181.48864 0.10473 184.78212 1.75 5.30245 2.64887 5.87896 5.60719 5.94356 30.49845l0.0564 21.75h-13.5-13.5v12.77623c0 18.35505-1.4374 27.81212-6.51369 42.85531-5.52424 16.3707-13.39443 33.75559-26.27321 58.03636-14.40457 27.15738-13.31932 25.4873-16.11782 24.80372-3.9349-0.96116-20.47567-0.61895-25.60096 0.52965-2.61784 0.58667-4.88596 0.93889-5.04027 0.7827-0.1543-0.15618 5.11754-9.95897 11.7152-21.78397 16.4345-29.45557 32.77008-62.54073 36.62492-74.17806 3.10469-9.37262 3.20587-10.21685 3.20587-26.75v-17.07194h-136-136v17.10249c0 16.41489 0.12297 17.47028 3.05849 26.25 5.70236 17.05494 17.15377 39.31549 50.74685 98.64751 22.74468 40.1716 29.46739 53.6319 29.46739 59s-6.72271 18.8284-29.46739 59c-33.59308 59.33202-45.04449 81.59257-50.74685 98.6475-2.93552 8.77973-3.05849 9.83512-3.05849 26.25v17.1025h41.60699c32.89031 0 41.50039 0.26188 41.09815 1.25-0.27987 0.6875-4.60301 10.77962-9.60699 22.42702-7.48558 17.4236-9.09815 22.0762-9.09815 26.25v5.073l-54.25-0.056c-39.277788-0.041-55.215949-0.3859-57.75-1.25zm157.1228 0.3044c-7.62263-1.7997-13.64885-10.0425-12.79245-17.4979 0.67764-5.8992 34.82039-82.12257 38.3364-85.5857 1.55829-1.53486 15.06739-9.1429 30.02022-16.90675l27.18697-14.11611 9.06386 5.46419c27.59414 16.63523 58.53026 16.63523 86.1244 0l9.06386-5.46419 27.18697 14.11611c14.95283 7.76385 28.46193 15.37189 30.02022 16.90675 3.51601 3.46313 37.65876 79.6865 38.3364 85.5857 0.3335 2.9032-0.17513 5.2178-1.85508 8.4414-2.72837 5.2355-6.0023 7.8511-11.39196 9.1011-4.84124 1.1228-264.53737 1.0798-269.29981-0.045zm-68.11362-106.24792c0.009-8.60298 0.31264-9.99278 4.34756-19.86902 13.47797-32.98994 38.21055-70.03803 69.99656-104.85114l8.6467-9.47017v-16.9024-16.90241l-6.01703-6.43222c-27.59215-29.49609-53.84023-68.50352-71.05501-105.59528-5.92182-12.75942-5.92796-12.78246-5.92796-22.25v-9.47736h95.08848 95.08847l-0.38044 10.75c-0.36726 10.37751-0.55769 11.15401-5.49597 22.40973-14.34919 32.70584-41.13472 72.0359-70.13704 102.9845l-7.1635 7.64422v16.68748 16.68748l3.35443 4.16829 3.35444 4.1683-0.47926 14.71256c-0.79072 24.27392 3.70017 42.72097 14.33587 58.88697 2.98899 4.54318 5.43452 8.55414 5.43452 8.91325s-14.0625 8.19521-31.25 17.41357-31.99671 17.42641-32.90935 18.2401c-0.91265 0.8137-3.13213 5.04663-4.9322 9.4065l-3.27284 7.92705h-30.31781-30.3178l0.009-9.25zm194.8608-31.77995c-28.0514-4.32553-49.86216-27.55587-56.46445-60.1395-2.25247-11.11642-1.46538-34.53801 1.57294-46.80623 4.14053-16.71873 13.14986-30.40629 25.0329-38.03162 19.28683-12.37632 56.69043-12.37632 75.97726 0 11.88304 7.62533 20.89237 21.31289 25.0329 38.03162 3.03832 12.26822 3.82541 35.68981 1.57294 46.80623-5.2564 25.94138-20.48358 46.65308-40.8729 55.59449-9.71576 4.26069-22.1703 6.03787-31.85159 4.54501z"/>
	</g>
</svg>
