<svg xmlns:rdf="http://www.w3.org/1999/02/22-rdf-syntax-ns#" xmlns="http://www.w3.org/2000/svg" height="512" width="512" version="1.1" xmlns:cc="http://creativecommons.org/ns#" xmlns:dc="http://purl.org/dc/elements/1.1/" viewBox="0 0 512.00001 512.00001">
	<g transform="translate(0 -540.36)">
		<path d="m4.8196 1011.6c-0.2054-1.4-1.1236-2.4-2.5696-2.6l-2.25-0.3v-112.91-112.93h2.3743c1.3058 0 4.187-0.63958 6.4027-1.4213 3.2449-1.1449 10.315-1.3563 36.354-1.087 18.112 0.18727 33.07-0.0638 34.017-0.57103 3.5001-1.8732 4.1605-7.3187 3.6059-29.73-0.5519-22.301 0.0178-27.463 3.2204-29.177 2.1039-1.126 335.47-1.5467 338.39-0.42708 3.7482 1.4383 4.1334 4.1828 4.198 29.914 0.0667 26.553 0.51587 29.372 4.7224 29.642 1.2181 0.0783 16.39 0.0485 33.715-0.0662 29.838-0.19758 31.737-0.10073 36 1.8356 2.475 1.1243 5.5125 2.0541 6.75 2.0662l2.25 0.022v111.87 111.88l-3 0.6c-2.3829 0.4766-3 1.1194-3 3.125v2.525h-250.43-250.43l-0.31955-2.25zm485.19-19.553 2.2266-1.803-0.044-94.289c-0.0408-87.88-0.1612-94.418-1.7708-96.197-1.6898-1.8673-6.7342-1.9083-235.02-1.9083h-233.29l-1.5567 2.2225c-1.3822 1.9734-1.5567 12.785-1.5567 96.443v94.221l2.2225 1.5567c1.996 1.3981 25.879 1.5567 234.39 1.5567 222.22 0 232.26-0.078 234.39-1.803zm-425.76-30.47c-1.2375-0.56179-2.2907-1.7401-2.3405-2.6186s-0.11493-11.43-0.14478-23.449c-0.0438-17.646 0.21417-22.022 1.3405-22.735 1.874-1.1867 24-1.1323 25.895 0.064 1.2454 0.7861 1.5514 4.7634 1.8028 23.432 0.37583 27.909 1.1598 26.429-13.962 26.369-5.6872-0.022-11.353-0.5008-12.59-1.0624zm71.702-0.55359c-2.2399-1.8136-2.2688-2.1296-2.2173-24.186 0.0475-20.319 0.21539-22.467 1.8498-23.662 2.742-2.0051 22.769-1.8183 24.818 0.23151 1.3044 1.3044 1.5373 4.9812 1.4907 23.536-0.0682 27.138 0.58987 25.918-13.972 25.918-7.9252 0-10.116-0.3363-11.97-1.8378zm71.27 0.28109c-2.18-1.54-2.22-1.93-2.22-24.47 0-21.625 0.10832-22.966 1.9342-23.943 2.514-1.3454 22.618-1.3454 25.131 0 1.8242 0.9763 1.9343 2.3131 1.9343 23.5 0 27.891 0.76922 26.465-14.277 26.465-7.6835 0-10.838-0.39291-12.5-1.5567zm71.412-0.5159-2.6349-2.0725v-21.871c0-26.617-0.99928-24.984 15.288-24.984 5.9638 0 11.714 0.4658 12.777 1.0352 1.8274 0.978 1.9343 2.3226 1.9343 24.339v23.304l-2.547 1.1605c-1.4009 0.6383-6.9652 1.1605-12.365 1.1605-8.4185 0-10.194-0.2954-12.453-2.0726zm72.827 0.6683c-1.7876-1.3071-1.9314-2.9711-2.0771-24.043-0.1289-18.646 0.10047-22.895 1.3009-24.096 2.1807-2.1808 23.543-2.0861 25.743 0.114 1.9222 1.9223 1.7043-0.9992 1.8155 24.332 0.11577 26.356 0.85169 25.096-14.664 25.096-7.1778 0-10.767-0.4159-12.119-1.4043zm71.123-0.5019c-1.5243-1.6844-1.7298-4.5513-1.7649-24.623-0.0317-18.076 0.23801-22.902 1.3201-23.623 0.74797-0.4983 6.8897-0.7804 13.648-0.627 9.6149 0.2183 12.494 0.6052 13.235 1.7789 1.104 1.75 1.3 43.97 0.21162 45.6-1.677 2.5115-5.5994 3.3997-15.014 3.3997-8.4783 0-10.16-0.2755-11.636-1.9062zm-350.18-81.02c-4.456-0.3194-8.7412-1.1134-9.5226-1.7645-2.1858-1.8212-1.8528-43.768 0.36506-45.985 1.1611-1.1612 4.2173-1.6288 12.147-1.8586 15.731-0.45599 14.887-1.8267 15.151 24.618 0.20295 20.345 0.11165 21.521-1.8366 23.659-2.1734 2.3852-1.903 2.3631-16.303 1.3308zm73.602 0.26c-9.0491-0.4819-10.762-1.012-11.587-3.5869-0.39643-1.2363-0.71587-11.376-0.70986-22.533 0.01-18.426 0.17703-20.406 1.824-21.611 1.0371-0.7584 6.1077-1.6073 11.847-1.9834 14.695-0.963 14.081-2.0214 14.212 24.478 0.13191 26.644 0.47353 26.091-15.586 25.236zm206.45-1.1165c-1.3456-0.7051-2.5114-1.6051-2.5906-2-0.0793-0.395-0.23115-10.306-0.33754-22.023l-0.19344-21.305 2.3847-1.8758c2.0764-1.6333 3.7021-1.8181 12.576-1.4289 14.597 0.6402 13.915-0.5322 13.986 24.05 0.0602 20.902-0.2871 23.73-3.0594 24.907-3.0459 1.2932-20.143 1.0498-22.765-0.324zm70.357-0.1759c-1.9833-1.606-2.0701-2.6083-2.033-23.479 0.0331-18.626 0.27198-22.034 1.6404-23.403 1.2021-1.2021 3.7829-1.6324 10.345-1.7248 10.006-0.141 14.829 0.9212 16.251 3.5787 0.56345 1.0529 0.99232 10.675 0.99232 22.265 0 18.353-0.18069 20.574-1.7926 22.033-2.7455 2.4848-22.535 3.0533-25.404 0.73zm-216.23-0.6136c-1.34-1.33-1.58-4.89-1.58-23.46 0-20.242 0.13893-21.968 1.8414-22.879 1.0128-0.542 6.6215-1.1204 12.464-1.2852 15.566-0.4392 15.009-1.3328 14.88 23.872-0.0558 10.906-0.12037 20.359-0.1434 21.007-0.023 0.64821-0.74902 1.8857-1.6133 2.75-1.2441 1.244-3.9372 1.5714-12.929 1.5714-8.9914 0-11.684-0.3274-12.929-1.5714zm71.201-0.17859c-1.2654-1.4406-1.5588-5.3394-1.6602-22.056-0.0707-11.664 0.29566-21.089 0.86094-22.145 1.6433-3.0705 6.3962-4.037 16.568-3.3689 7.2265 0.47469 9.7958 1.0347 11.036 2.4054 2.4063 2.6588 2.1713 42.429-0.2666 45.123-1.3818 1.5268-3.3454 1.791-13.311 1.791-9.8812 0-11.928-0.2708-13.227-1.75zm130.43-100.26c1.562-1.929 1.7874-4.3805 1.7874-19.442 0-15.593-0.17889-17.396-1.8786-18.934-1.0332-0.93505-2.9457-1.7622-4.25-1.8382-1.3043-0.0759-69.277-0.0556-151.05 0.0451-133.67 0.1647-148.84 0.3418-150.25 1.7546-1.3087 1.3087-1.5714 4.4933-1.5714 19.045 0 16.801 0.0866 17.559 2.25 19.679l2.25 2.2046 150.46-0.15339 150.46-0.1534 1.7874-2.2074zm-148.89-91.74c-0.6496-0.42732-1.3246-2.7594-1.5-5.1824-0.31239-4.3153-0.44923-4.4719-6.6868-7.6517-7.7696-3.9608-12.537-8.3963-15.721-14.627-3.7249-7.2881-3.1457-8.637 4.4053-10.259 5.0993-1.0953 8.9137 1.0088 11.662 6.4332 2.9642 5.8496 4.4604 7.0904 9.3382 7.7447 4.7345 0.63502 7.6626-0.80027 10.233-5.0161 4.014-6.5831 0.96052-14.208-6.7027-16.737-13.166-4.3452-23.719-12.334-26.217-19.849-3.675-11.054 1.8657-22.39 13.482-27.583 6.1078-2.7308 8.388-5.6504 8.388-10.74 0-3.7611 0.0179-3.7775 4.1359-3.7775h4.1359l-0.61909 4.5168c-0.70828 5.1675 0.56329 7.0222 7.1007 10.357 4.6654 2.3801 11.311 9.4196 13.188 13.969 3.0461 7.385-3.0898 12.21-11.212 8.8167-2.8511-1.1913-4.2102-2.616-5.6095-5.8804-2.1695-5.0613-3.7629-6.5716-7.7153-7.3128-7.2028-1.3508-12.03 6.1645-9.463 14.733 1.1498 3.8376 1.6781 4.2339 12.51 9.3826 9.2554 4.3994 12.224 6.377 16.348 10.888 5.7561 6.2981 6.6661 9.1544 5.682 17.835-0.64083 5.6526-1.0901 6.5583-5.1378 10.358-2.4396 2.29-7.0023 5.4676-10.139 7.0615-5.6071 2.8487-5.7124 2.9817-6.2039 7.8364-0.46921 4.6344-0.68473 4.9546-3.5 5.199-1.65 0.14328-3.5315-0.0891-4.1811-0.51643z"/>
	</g>
</svg>
