<?xml version="1.0" encoding="UTF-8" standalone="no"?>
<svg id="svg2" xmlns:rdf="http://www.w3.org/1999/02/22-rdf-syntax-ns#" xmlns="http://www.w3.org/2000/svg" height="512" width="512" version="1.1" xmlns:cc="http://creativecommons.org/ns#" xmlns:dc="http://purl.org/dc/elements/1.1/" viewBox="0 0 512.00001 512.00001">
	<g id="layer1" transform="translate(0,-540.36216)">
		<path id="path3386" d="m0 956.35906v-96.00307l32-63.99385 32-63.99385v-96.00307-96.00308h143.75387 143.75386l48.24614 48.25383 48.24613 48.25382v47.74925 47.74925l32 63.99385 32 63.99385v96.00307 96.00314h-256-256v-96.00314zm352-47.99692 32.01038-48h15.99481 15.99481v-105.24525-105.24526l-38.74519-38.75474-38.74519-38.75475h-121.25481-121.25481v144 144h15.99481 15.99481l32.01038 48 32.01038 48h63.98962 63.98962l32.01038-48zm-224-96v-16h128 128v16 16h-128-128v-16zm0-64v-16h128 128v16 16h-128-128v-16zm0-64v-16h112 112v16 16h-112-112v-16zm0-64v-16h80 80v16 16h-80-80v-16zm-64.053932 211.75-0.05393-28.25l-13.892138 27.5c-7.640675 15.125-13.916406 27.8375-13.946068 28.25-0.02966 0.4125 6.246068 0.75 13.946068 0.75h14l-0.05393-28.25zm412.000002 27.5c-0.0297-0.4125-6.3054-13.125-13.94607-28.25l-13.89214-27.5-0.0539 28.25-0.054 28.25h14c7.7 0 13.97573-0.3375 13.94607-0.75z"/>
	</g>
</svg>
