<svg xmlns:rdf="http://www.w3.org/1999/02/22-rdf-syntax-ns#" xmlns="http://www.w3.org/2000/svg" height="512" width="512" version="1.1" xmlns:cc="http://creativecommons.org/ns#" xmlns:dc="http://purl.org/dc/elements/1.1/" viewBox="0 0 512.00001 512.00001">
	<g transform="translate(0 -540.36)">
		<path d="m232.49 1051.3c-38.57-3.7-77.16-16.6-109.93-36.6-32.962-20.25-64.711-52-84.916-84.96-46.045-75.1-50.037-168.98-10.541-247.88 20.78-41.51 55.741-79.57 95.457-103.92 75.105-46.045 168.98-50.037 247.88-10.541 41.511 20.78 79.574 55.741 103.92 95.453 46.045 75.105 50.037 168.98 10.541 247.88-20.78 41.511-55.741 79.574-95.453 103.92-46.489 28.501-103.26 41.75-156.95 36.63zm52.682-34.475c48.176-6.2006 92.788-28.329 127.9-63.44 35.111-35.111 57.239-79.723 63.44-127.9 2.0493-15.922 2.0493-42.42 0-58.343-6.2006-48.176-28.329-92.788-63.44-127.9-35.111-35.111-79.723-57.239-127.9-63.44-15.922-2.0493-42.42-2.0493-58.343 0-48.176 6.2006-92.788 28.329-127.9 63.44-35.111 35.111-57.239 79.723-63.44 127.9-2.0493 15.922-2.0493 42.42 0 58.343 8.3646 64.989 46.803 124.54 103.09 159.7 25.72 16.067 57.527 27.613 86.91 31.548 15.142 2.0277 44.307 2.0739 59.685 0.095zm-68.189-87.591c-4.3865-2.6729-6.2086-5.1471-7.5898-10.307-1.842-6.88 0.63038-13.265 6.9717-18.004 2.2574-1.6872 4.5683-2.1254 12.694-2.4066l9.934-0.34384v-71.302-71.302l-9.4021-0.49178c-10.74-0.56177-15.028-2.4882-18.675-8.3898-3.803-6.1534-2.5083-15.859 2.7504-20.618 4.5017-4.074 8.5623-4.7879 27.231-4.7879 10.304 0 19.177 0.45537 20.791 1.0671 4.005 1.5174 7.2925 4.8079 9.4293 9.4376 1.747 3.7853 1.8481 8.3988 1.8689 85.288l0.022 81.286h8.4387c4.6413 0 9.706 0.48022 11.255 1.0671 12.547 4.7539 14.288 22.776 2.8484 29.481l-4.2096 2.467h-35.428c-34.398 0-35.53-0.066-38.93-2.1374zm23.89-230.76c-10.872-5.6794-14.835-18.255-9.2058-29.213 3.8402-7.4757 9.327-11.239 17.219-11.81 7.1345-0.51606 12.128 0.99167 16.763 5.0618 4.8435 4.2526 7.5168 9.9482 7.566 16.119 0.13862 17.409-16.941 27.887-32.342 19.841z"/>
	</g>
</svg>
