<svg xmlns:rdf="http://www.w3.org/1999/02/22-rdf-syntax-ns#" xmlns="http://www.w3.org/2000/svg" height="512" width="512" version="1.1" xmlns:cc="http://creativecommons.org/ns#" xmlns:dc="http://purl.org/dc/elements/1.1/" viewBox="0 0 512.00001 512.00001">
	<g transform="translate(0 -540.36)">
		<path d="m128.9 1055.2c-23.327-2.7573-46.67-11.638-67.638-25.733-32.309-21.718-55.636-57.833-63.083-97.665-1.7642-9.4358-1.8697-17.194-1.8697-137.5v-127.5l2.6394-11c2.8496-11.876 8.4099-27.619 12.933-36.62 4.4983-8.9502 16.198-25.755 23.359-33.552 21.957-23.906 52.729-40.891 85.068-46.954 9.4435-1.7704 17.04-1.8748 136.5-1.8748h126.5l10.5 2.3147c13.877 3.0592 23.345 6.2808 35.602 12.113 48.654 23.154 80.469 69.117 85.43 123.42 0.76553 8.3798 0.99514 49.086 0.7398 131.15-0.36837 118.39-0.38149 119.05-2.5726 128.66-13.979 61.305-57.115 104.85-117.42 118.54l-12.275 2.7867-123.5 0.1426c-67.925 0.078-126.83-0.2515-130.91-0.7332zm249.94-39.939c24.307-2.9857 46.766-14.071 64.33-31.752 17.174-17.288 27.488-37.503 31.229-61.207 1.2871-8.1548 1.4488-26.563 1.1417-130-0.39318-132.43-0.0464-124.93-6.6034-142.85-7.6256-20.834-20.552-38.205-38.624-51.905-8.1673-6.1913-25.886-14.561-38-17.95l-10-2.7976h-126-126l-8.8421 2.2531c-41.609 10.603-72.448 41.169-82.979 82.247l-2.1791 8.5v126.5 126.5l2.672 9.6695c7.2799 26.345 22.326 48.451 42.966 63.127 13.591 9.6634 34.342 17.869 49.736 19.667 10.44 1.2194 237.22 1.2157 247.15 0zm-140.3-80.02c-30.643-3.5257-60.926-18.925-83.564-42.494-18.965-19.745-30.497-41.584-36.329-68.803-2.9908-13.958-3.2296-42.049-0.46456-54.662 6.3836-29.118 19.835-53.343 40.954-73.756 19.238-18.595 42.466-30.782 70.21-36.839 11.474-2.5046 40.779-2.5151 52.471-0.0189 29.261 6.2475 51.964 18.467 72.543 39.044 20.581 20.579 33.919 46.012 39.095 74.542 2.3671 13.048 2.3849 37.47 0.0359 49.27-11.212 56.323-53.336 99.297-109.58 111.8-10.105 2.2454-33.812 3.248-45.367 1.9185zm42.289-42.281c18.312-4.7497 32.291-12.824 45.958-26.545 13.216-13.268 21.574-28.196 26.253-46.884 2.5652-10.246 3.0307-31.659 0.90811-41.774-4.4847-21.372-13.224-37.679-28.192-52.603-14.39-14.348-30.031-22.608-51.017-26.941-19.081-3.9403-43.277-1.1259-60.795 7.0714-26.992 12.631-47.449 37.049-55.271 65.973-3.2199 11.906-3.2629 37.583-0.0823 49.175 8.0388 29.3 26.64 52.434 52.726 65.573 20.022 10.085 47.028 12.787 69.511 6.9549zm115.69-218.08c-22.06-8.2248-27.718-36.322-10.314-51.22 18.352-15.709 46.364-4.4986 49.194 19.687 1.3835 11.823-5.38 24.221-16.065 29.448-6.7889 3.3215-16.996 4.2538-22.815 2.084z"/>
	</g>
</svg>
