<svg xmlns:rdf="http://www.w3.org/1999/02/22-rdf-syntax-ns#" xmlns="http://www.w3.org/2000/svg" height="512" width="512" version="1.1" xmlns:cc="http://creativecommons.org/ns#" xmlns:dc="http://purl.org/dc/elements/1.1/" viewBox="0 0 512.00001 512.00001">
	<g transform="translate(0 -540.36)">
		<path d="m223.27 1049.7c-1.1279-1.7215-1.7569-4.5414-1.7286-7.75 0.038-4.3038 2.4244-10.391 16.262-41.478 8.9196-20.039 16.969-37.265 17.888-38.28 1.7506-1.9344 8.7858-5.8262 36.623-20.259l16.817-8.7196 5.2342 3.4754c13.523 8.9789 26.186 12.837 42.131 12.837 15.946 0 28.608-3.8581 42.131-12.837l5.2342-3.4754 16.817 8.7196c27.837 14.433 34.872 18.325 36.623 20.259 0.91881 1.0153 8.9684 18.241 17.888 38.28 13.838 31.088 16.224 37.175 16.262 41.478 0.0283 3.2086-0.60067 6.0285-1.7286 7.75l-1.7731 2.706h-131.45-131.45l-1.7731-2.706zm123.23-120.29c-17.722-3.8278-33.262-16.58-42.056-34.512-5.7583-11.742-7.4776-18.545-8.1631-32.302-1.9789-39.713 12.577-65.039 41.929-72.953 8.5708-2.3109 28.008-2.3109 36.579 0 24.214 6.5288 37.277 23.142 41.241 52.453 1.4972 11.069 0.79602 29.23-1.458 37.764-5.7327 21.705-21.837 40.481-40.558 47.287-7.2024 2.6184-20.721 3.73-27.515 2.2626zm-319.12-23.48c-6.8452-2.9792-6.3799 4.9944-6.3636-109.04 0.0115-80.36 0.28957-103.58 1.2639-105.53 0.68704-1.375 2.8179-3.2868 4.7353-4.2484 3.2033-1.6066 8.372-1.7486 63.71-1.75l60.223-0.002 0.27654-68.75c0.26195-65.124 0.37466-68.895 2.1369-71.493 1.0443-1.5398 3.4569-3.2042 5.5-3.7946 2.4977-0.72172 54.258-0.95925 164.97-0.75707l161.33 0.29462 2.9179 3.2658 2.9179 3.2658-0.004 103.23c-0.004 100.48-0.0555 103.32-1.948 106.42-1.3064 2.1426-3.1915 3.535-5.7463 4.2444-2.4707 0.68608-24.549 1.0577-63.052 1.0614l-59.25 0.006v5.7964 5.7964l-7.75 1.2114c-4.2625 0.66628-8.9817 1.4842-10.487 1.8177l-2.7371 0.60629-0.26292-35.364-0.26292-35.364-119.03-0.25404-119.03-0.25404-5.8506 5.9122-5.8506 5.9122 3.0982 1.6022c3.7217 1.9246 5.3575 4.6973 5.3575 9.0814 0 7.5147-4.4497 10.5-15.65 10.5h-7.5497v7.0321c0 9.2812-1.8387 13.585-6.6659 15.602-5.3105 2.2189-10.35 0.60845-12.897-4.1213l-1.8872-3.5043-5.7748 5.7146-5.773 5.73v60.333 60.333l20.75-0.10634c11.412-0.0585 66.682-0.0817 122.82-0.0516l102.07 0.0547 2.288 5.0626c1.2584 2.7844 3.8136 7.3296 5.6783 10.1 1.8646 2.7708 3.3902 5.2177 3.3902 5.4374 0 0.21973-60.412 0.3819-134.25 0.36037-110.86-0.04-134.79-0.28-137.37-1.4zm442.62-254.57v-90h-118.78-118.78l-5.8389 5.9005c-5.8313 5.8928-5.8358 5.9021-3.4687 7.117 3.6127 1.8543 5.8233 5.1375 5.848 8.6854 0.055 7.9267-4.6402 11.297-15.738 11.297h-6.9579l-0.51895 8.3182c-0.7176 11.502-3.5335 15.198-11.41 14.975-3.81-0.11-9.35-4.38-9.35-7.21 0-0.87529-2.7912 1.2324-6.5 4.9082l-6.5 6.4422v31.779 31.779h103.53c113.39 0 108.74-0.2439 111.9 5.8716 2.0071 3.8814 1.9804 6.619-0.0989 10.139-2.4337 4.12-5.2885 4.9895-16.382 4.9895h-9.953v17.5 17.5h54.5 54.5v-90zm-213.08 7.0769c-5.8699-5.8699-2.8926-15.833 5.2161-17.455 1.7109-0.34219 28.719-0.62216 60.018-0.62216 62.41 0 62.232-0.016 65.276 5.8716 2.6375 5.1003 1.6648 9.7391-2.8006 13.356-1.9684 1.5945-6.8635 1.7295-63.46 1.75l-61.327 0.0222-2.9231-2.9231zm0-45c-2.34-2.34-2.92-3.8-2.92-7.31 0-3.5928 0.55651-4.9231 3.065-7.3269l3.065-2.9371 58.463-0.28088c39.634-0.19041 59.757 0.0675 62.481 0.80083 8.5249 2.2955 10.531 12.56 3.5589 18.208-1.9684 1.5945-6.8635 1.7295-63.46 1.75l-61.327 0.0222-2.9231-2.9231zm-199.92 107.42l14.474-14.5h-14.737-14.737v14.5c0 7.975 0.11832 14.5 0.26294 14.5 0.14461 0 6.7763-6.525 14.737-14.5zm131.01-145.02 14.487-14.523-15 0.2731-15 0.2731-0.27746 14.25c-0.1526 7.8375 0.0782 14.25 0.51294 14.25 0.43471 0 7.3096-6.5354 15.277-14.523zm-57.8 274.41c-3.6098-1.058-7.202-5.8933-7.2082-9.7026-0.005-2.9916 1.6788-6.2375 4.3633-8.412 1.9684-1.5945 6.8635-1.7295 63.46-1.75l61.327-0.0222 2.9231 2.9231c2.3429 2.3429 2.9231 3.7943 2.9231 7.3129 0 3.5928-0.55651 4.9231-3.065 7.3269l-3.065 2.9371-59.185 0.17528c-35.59 0.10541-60.496-0.20892-62.473-0.78846zm1.1208-43.582c-2.9974-0.58437-7.121-4.6136-7.9006-7.7199-1.4341-5.7138 2.617-11.745 8.7072-12.963 5.4313-1.0863 114.03-0.7019 118.07 0.41786 10.429 2.8965 10.429 17.023 0 19.92-3.5626 0.98944-113.92 1.3098-118.87 0.34512zm-1.12-45.42c-3.6098-1.058-7.202-5.8933-7.2082-9.7026-0.005-2.9916 1.6788-6.2375 4.3633-8.412 1.9684-1.5945 6.8635-1.7295 63.46-1.75l61.327-0.0222 2.9231 2.9231c2.3429 2.3429 2.9231 3.7943 2.9231 7.3129 0 3.5928-0.55651 4.9231-3.065 7.3269l-3.065 2.9371-59.185 0.17528c-35.59 0.10541-60.496-0.20892-62.473-0.78846z"/>
	</g>
</svg>
