<?xml version="1.0" encoding="UTF-8" standalone="no"?>
<svg id="svg2" xmlns:rdf="http://www.w3.org/1999/02/22-rdf-syntax-ns#" xmlns="http://www.w3.org/2000/svg" height="512" width="512" version="1.1" xmlns:cc="http://creativecommons.org/ns#" xmlns:dc="http://purl.org/dc/elements/1.1/" viewBox="0 0 512.00001 512.00001">
	<g id="layer1" transform="translate(0,-540.36216)">
		<g id="g3677" transform="matrix(5.199012 0 0 5.199012 -.00194949 541.07692)">
			<g id="g3631">
				<g id="g3633">
					<path id="path3635" d="m69.322 44.716-19.607 19.607c10.723-0.251 19.356-8.885 19.607-19.607z"/>
					<path id="path3637" d="m97.204 45.789c-0.449-0.529-6.245-7.23-15.402-13.554l-6.2 6.2c5.99 3.954 10.559 8.275 13.011 10.806-5.378 5.554-20.913 19.728-39.372 19.728-1.334 0-2.651-0.082-3.952-0.222l-7.439 7.438c3.639 0.91 7.449 1.451 11.391 1.451 26.426 0 47.098-23.927 47.964-24.946 1.701-1.998 1.701-4.9-0.001-6.901z"/>
					<path id="path3639" d="m90.651 15.901c0-0.266-0.104-0.52-0.293-0.707l-7.071-7.07c-0.391-0.391-1.022-0.391-1.414 0l-15.828 15.828c-5.202-1.893-10.855-3.108-16.804-3.108-26.427 0-47.098 23.926-47.965 24.946-1.701 2-1.701 4.902 0.001 6.903 0.517 0.606 8.083 9.354 19.707 16.319l-12.86 12.86c-0.188 0.188-0.293 0.441-0.293 0.707 0 0.267 0.105 0.521 0.293 0.707l7.071 7.07c0.195 0.194 0.451 0.293 0.707 0.293s0.512-0.099 0.707-0.293l73.75-73.75c0.187-0.185 0.292-0.439 0.292-0.705zm-80.782 33.34c3.631-3.751 11.898-11.429 22.567-16.021-2.081 3.166-3.301 6.949-3.301 11.021 0 4.665 1.601 8.945 4.27 12.352l-6.124 6.123c-8.152-4.52-14.391-10.355-17.412-13.475z"/>
				</g>
			</g>
		</g>
	</g>
</svg>
