<svg xmlns:rdf="http://www.w3.org/1999/02/22-rdf-syntax-ns#" xmlns="http://www.w3.org/2000/svg" height="512" width="512" version="1.1" xmlns:cc="http://creativecommons.org/ns#" xmlns:dc="http://purl.org/dc/elements/1.1/" viewBox="0 0 512.00001 512.00001">
	<g transform="translate(0 -540.36)">
		<path d="m426.98 1051.3c-1.36-0.3-19.8-11.2-40.98-24-21.175-12.845-39.196-23.355-40.047-23.357-0.85066 0-19.149 10.668-40.663 23.711-33.774 20.476-39.662 23.714-43.114 23.714-3.2369 0-4.4911-0.5858-6.587-3.0768-1.5974-1.8984-2.5889-4.2945-2.5889-6.2567 0-1.749 4.5139-22.527 10.031-46.173 5.517-23.646 9.9045-43.748 9.75-44.67-0.15451-0.92244-16.019-15.322-35.254-32-37.57-32.574-38.225-33.309-35.508-39.867 0.70869-1.7109 2.265-3.7506 3.4585-4.5326 1.5352-1.0059 15.864-2.5852 48.99-5.3992 25.751-2.1876 46.901-4.1004 47-4.2507 0.0993-0.15036 8.1666-19.398 17.927-42.773 11.958-28.636 18.558-43.234 20.232-44.75 3.6877-3.3389 9.839-3.1035 13.068 0.5 1.3581 1.5155 10.348 21.604 20.027 44.75 9.6594 23.1 17.659 42.123 17.777 42.273 0.11807 0.15035 21.225 2.0582 46.904 4.2397s47.564 4.4343 48.633 5.0063c2.4631 1.3182 4.9639 6.0989 4.9639 9.4892 0 3.6517-3.6306 7.1482-40.5 39.004-21.786 18.824-31.897 28.182-31.678 29.318 0.42076 2.1794 11.211 48.963 16.246 70.44 4.6814 19.968 4.8222 22.566 1.4074 25.981-2.8447 2.8447-5.8434 3.7-9.4939 2.7079zm-399.6-145.37c-6.8452-2.9792-6.3799 4.9944-6.3636-109.04 0.0115-80.36 0.28957-103.58 1.2639-105.53 0.68704-1.375 2.8179-3.2868 4.7353-4.2484 3.2033-1.6066 8.372-1.7486 63.71-1.75l60.223-0.002 0.27654-68.75c0.26195-65.124 0.37466-68.895 2.1369-71.493 1.0443-1.5398 3.4569-3.2042 5.5-3.7946 2.4977-0.72172 54.258-0.95925 164.97-0.75707l161.33 0.29462 2.9179 3.2658 2.9179 3.2658-0.004 103.23c-0.004 100.48-0.0555 103.32-1.948 106.42-1.3064 2.1426-3.1915 3.535-5.7463 4.2444-2.4707 0.68608-24.549 1.0577-63.052 1.0614l-59.25 0.006v3.9393 3.9393l-4.5634-1.5549c-2.92-0.99495-6.6962-1.4006-10.486-1.1265l-5.9224 0.42839-0.26418-30.563-0.26418-30.563-119.03-0.25404-119.03-0.25404-5.8506 5.9122-5.8506 5.9122 3.0982 1.6022c3.7217 1.9246 5.3575 4.6973 5.3575 9.0814 0 7.5147-4.4497 10.5-15.65 10.5h-7.5497v7.0321c0 9.2812-1.8387 13.585-6.6659 15.602-5.3105 2.2189-10.35 0.60845-12.897-4.1213l-1.8872-3.5043-5.7748 5.7146-5.773 5.74v60.333 60.333l20.75-0.10634c11.412-0.0585 45.82-0.0817 76.461-0.0516l55.711 0.0547 1.1434 4.25c1.5029 5.5864 3.3014 8.9602 7.056 13.236l3.0849 3.5135-87.854-0.0391c-71.765-0.032-88.425-0.28795-90.975-1.3978zm442.62-254.57v-90h-118.78-118.78l-5.8389 5.9005c-5.8313 5.8928-5.8358 5.9021-3.4687 7.117 3.6127 1.8543 5.8233 5.1375 5.848 8.6854 0.055 7.9267-4.6402 11.297-15.738 11.297h-6.9579l-0.51895 8.3182c-0.7176 11.502-3.5335 15.198-11.41 14.975-3.81-0.11-9.35-4.38-9.35-7.21 0-0.87529-2.7912 1.2324-6.5 4.9082l-6.5 6.4422v31.779 31.779h103.53c113.39 0 108.74-0.2439 111.9 5.8716 2.0071 3.8814 1.9804 6.619-0.0989 10.139-2.4337 4.12-5.2885 4.9895-16.382 4.9895h-9.953v17.5 17.5h54.5 54.5v-90zm-213.08 7.0769c-5.8699-5.8699-2.8926-15.833 5.2161-17.455 1.7109-0.34219 28.719-0.62216 60.018-0.62216 62.41 0 62.232-0.016 65.276 5.8716 2.6375 5.1003 1.6648 9.7391-2.8006 13.356-1.9684 1.5945-6.8635 1.7295-63.46 1.75l-61.327 0.0222-2.9231-2.9231zm0-45c-2.34-2.34-2.92-3.8-2.92-7.31 0-3.5928 0.55651-4.9231 3.065-7.3269l3.065-2.9371 58.463-0.28088c39.634-0.19041 59.757 0.0675 62.481 0.80083 8.5249 2.2955 10.531 12.56 3.5589 18.208-1.9684 1.5945-6.8635 1.7295-63.46 1.75l-61.327 0.0222-2.9231-2.9231zm-199.92 107.42l14.474-14.5h-14.737-14.737v14.5c0 7.975 0.11832 14.5 0.26294 14.5 0.14461 0 6.7763-6.525 14.737-14.5zm131.01-145.02 14.487-14.523-15 0.2731-15 0.2731-0.27746 14.25c-0.1526 7.8375 0.0782 14.25 0.51294 14.25 0.43471 0 7.3096-6.5354 15.277-14.523zm-56.68 274.83c-2.9974-0.58437-7.121-4.6136-7.9006-7.7199-1.4341-5.7138 2.617-11.745 8.7072-12.963 5.4313-1.0863 114.03-0.7019 118.07 0.41786 10.429 2.8965 10.429 17.023 0 19.92-3.5626 0.98944-113.92 1.3098-118.87 0.34512zm0-44c-2.9974-0.58437-7.121-4.6136-7.9006-7.7199-1.4341-5.7138 2.617-11.745 8.7072-12.963 5.4313-1.0863 114.03-0.7019 118.07 0.41786 10.429 2.8965 10.429 17.023 0 19.92-3.5626 0.98944-113.92 1.3098-118.87 0.34512zm-1.12-45.42c-3.6098-1.058-7.202-5.8933-7.2082-9.7026-0.005-2.9916 1.6788-6.2375 4.3633-8.412 1.9684-1.5945 6.8635-1.7295 63.46-1.75l61.327-0.0222 2.9231 2.9231c2.3429 2.3429 2.9231 3.7943 2.9231 7.3129 0 3.5928-0.55651 4.9231-3.065 7.3269l-3.065 2.9371-59.185 0.17528c-35.59 0.10541-60.496-0.20892-62.473-0.78846z"/>
	</g>
</svg>
