<svg xmlns:rdf="http://www.w3.org/1999/02/22-rdf-syntax-ns#" xmlns="http://www.w3.org/2000/svg" height="512" width="512" version="1.1" xmlns:cc="http://creativecommons.org/ns#" xmlns:dc="http://purl.org/dc/elements/1.1/" viewBox="0 0 512.00001 512.00001">
	<g transform="translate(0 -540.36)">
		<path d="m91.381 1050.5c-1.7156-1.0462-3.6281-3.3616-4.25-5.1455-0.798-2.4-1.131-23.2-1.131-70.69v-67.351h-27.532c-29.537 0-32.555-0.43087-35.837-5.1169-1.4822-2.1162-1.6294-11.709-1.616-105.36 0.0115-80.36 0.28957-103.58 1.2639-105.53 0.68704-1.375 2.8179-3.2868 4.7353-4.2484 3.2033-1.6066 8.372-1.7486 63.71-1.75l60.223-0.002 0.27654-68.75c0.26195-65.124 0.37466-68.895 2.1369-71.493 1.0443-1.5398 3.4569-3.2042 5.5-3.7946 2.4977-0.72172 54.258-0.95925 164.97-0.75707l161.33 0.29462 2.9179 3.2658 2.9179 3.2658-0.004 103.23c-0.004 100.48-0.0555 103.32-1.948 106.42-1.3064 2.1426-3.1915 3.535-5.7463 4.2444-2.4707 0.68608-24.549 1.0577-63.052 1.0614l-59.25 0.006v33.944 33.944l28.75 0.30632c31.868 0.33954 32.919 0.54936 35.175 7.0215 0.73895 2.1198 1.0748 34.608 1.0748 103.97 0 84.926-0.2248 101.42-1.4212 104.28-2.9408 7.0383 10.076 6.5347-168.78 6.5305-156.77 0-161.39-0.057-164.42-1.9058zm313.37-108.84-0.25535-89.75-118.47-0.25412-118.47-0.25412-5.7832 5.7228c-3.1807 3.1476-5.7832 6.0022-5.7832 6.3436 0 0.34144 1.1484 1.144 2.552 1.7835 3.2208 1.4675 5.6244 7.0262 4.8066 11.116-0.33899 1.695-1.9429 4.198-3.5642 5.5622-2.6214 2.2058-3.8694 2.4804-11.272 2.4804h-8.3238l-0.3495 8.9783c-0.31504 8.093-0.60562 9.2344-2.9469 11.575-1.6322 1.6315-4.1503 2.8046-6.7762 3.1568-3.889 0.52162-4.4456 0.28008-8.025-3.4826l-3.8462-4.0431-5.6276 5.687-5.6276 5.687v59.721 59.721h149.01 149.01l-0.25534-89.75zm-207.75 55.07c-4.0928-1.3914-6.0442-2.9371-7.4511-5.9019-2.0545-4.3295-1.0492-8.8631 2.6567-11.981l2.9478-2.4804h60.847 60.847l2.9478 2.4804c3.673 3.0906 4.7104 7.6536 2.7023 11.885-3.033 6.3916-0.19605 6.1157-64.997 6.3209-32.45 0.10275-59.675-0.0426-60.5-0.32312zm0-45c-4.0928-1.3914-6.0442-2.9371-7.4511-5.9019-2.0545-4.3295-1.0492-8.8631 2.6567-11.981l2.9478-2.4804h60.847 60.847l2.9478 2.4804c3.673 3.0906 4.7104 7.6536 2.7023 11.885-3.033 6.3916-0.19605 6.1157-64.997 6.3209-32.45 0.10275-59.675-0.0426-60.5-0.32312zm-2.7874-45.87c-6.5769-2.8575-7.6833-12.237-2.0069-17.013l2.9478-2.4804h60.847 60.847l2.9478 2.4804c5.7869 4.8694 4.5667 14.217-2.2262 17.056-5.1447 2.1496-118.4 2.1105-123.36-0.0426zm-108.21-42.35c0-24.588 0.51992-27.911 4.8248-30.833 2.5437-1.7267 8.7342-1.829 125.93-2.0814l123.26-0.26541-0.25762-61.735-0.25762-61.735-119.03-0.25404-119.03-0.25404-5.8506 5.9122-5.8506 5.9122 3.0982 1.6022c3.7217 1.9246 5.3575 4.6973 5.3575 9.0814 0 7.5147-4.4497 10.5-15.65 10.5h-7.5497v7.0321c0 9.2812-1.8387 13.585-6.6659 15.602-5.3105 2.2189-10.35 0.60845-12.897-4.1213l-1.8872-3.5043-5.7748 5.7146-5.763 5.72v60.281 60.281h22 22v-22.851zm45.333-56.844c-2.9974-0.58437-7.121-4.6136-7.9006-7.7199-1.4341-5.7138 2.617-11.745 8.7072-12.963 5.4313-1.0863 114.03-0.7019 118.07 0.41786 10.429 2.8965 10.429 17.023 0 19.92-3.5626 0.98944-113.92 1.3098-118.87 0.34512zm-1.12-45.42c-3.6098-1.058-7.202-5.8933-7.2082-9.7026-0.005-2.9916 1.6788-6.2375 4.3633-8.412 1.9684-1.5945 6.8635-1.7295 63.46-1.75l61.327-0.0222 2.9231 2.9231c2.3429 2.3429 2.9231 3.7943 2.9231 7.3129 0 3.5928-0.55651 4.9231-3.065 7.3269l-3.065 2.9371-59.185 0.17528c-35.59 0.10541-60.496-0.20892-62.473-0.78846zm-7.9748 105.38c7.57-7.56 13.76-14.1 13.76-14.53 0-0.43497-6.4125-0.666-14.25-0.5134l-14.25 0.27746-0.27746 14.25c-0.1526 7.8375 0.0666 14.25 0.48706 14.25 0.42048 0 6.9578-6.1815 14.527-13.737zm347.76-215.27v-90h-118.78-118.78l-5.8389 5.9005c-5.8313 5.8928-5.8358 5.9021-3.4687 7.117 3.6127 1.8543 5.8233 5.1375 5.848 8.6854 0.055 7.9267-4.6402 11.297-15.738 11.297h-6.9579l-0.51895 8.3182c-0.7176 11.502-3.5335 15.198-11.41 14.975-3.81-0.11-9.35-4.38-9.35-7.21 0-0.87529-2.7912 1.2324-6.5 4.9082l-6.5 6.4422v31.779 31.779h103.53c113.39 0 108.74-0.2439 111.9 5.8716 2.0071 3.8814 1.9804 6.619-0.0989 10.139-2.4337 4.12-5.2885 4.9895-16.382 4.9895h-9.953v17.5 17.5h54.5 54.5v-90zm-213.08 7.0769c-5.8699-5.8699-2.8926-15.833 5.2161-17.455 1.7109-0.34219 28.719-0.62216 60.018-0.62216 62.41 0 62.232-0.016 65.276 5.8716 2.6375 5.1003 1.6648 9.7391-2.8006 13.356-1.9684 1.5945-6.8635 1.7295-63.46 1.75l-61.327 0.0222-2.9231-2.9231zm0-45c-2.34-2.34-2.92-3.8-2.92-7.31 0-3.5928 0.55651-4.9231 3.065-7.3269l3.065-2.9371 58.463-0.28088c39.634-0.19041 59.757 0.0675 62.481 0.80083 8.5249 2.2955 10.531 12.56 3.5589 18.208-1.9684 1.5945-6.8635 1.7295-63.46 1.75l-61.327 0.0222-2.9231-2.9231zm-199.92 107.42l14.474-14.5h-14.737-14.737v14.5c0 7.975 0.11832 14.5 0.26294 14.5 0.14461 0 6.7763-6.525 14.737-14.5zm131.01-145.02 14.487-14.523-15 0.2731-15 0.2731-0.27746 14.25c-0.1526 7.8375 0.0782 14.25 0.51294 14.25 0.43471 0 7.3096-6.5354 15.277-14.523z"/>
	</g>
</svg>
