<svg xmlns:rdf="http://www.w3.org/1999/02/22-rdf-syntax-ns#" xmlns="http://www.w3.org/2000/svg" height="512" width="512" version="1.1" xmlns:cc="http://creativecommons.org/ns#" xmlns:dc="http://purl.org/dc/elements/1.1/" viewBox="0 0 512.00001 512.00001">
	<g transform="translate(0 -540.36)">
		<path d="m18.675 972.09c-6.9259-2.3699-12.266-6.7636-15.426-12.692-2.3274-4.3666-3.1864-7.8649-3.1939-13.008-0.0112-7.5932 2.4328-13.427 7.918-18.9 14.897-14.863 40.173-7.6375 45.006 12.866 1.5066 6.3915 0.80204 12.192-2.2448 18.479-1.7839 3.6815-7.3728 9.4329-11.078 11.4-6.1391 3.2598-14.67 4.0139-20.981 1.8545zm120.01-6.4517c-7.3691-2.3423-12.565-8.0898-14.134-15.634-1.5242-7.3296 2.2649-15.911 8.8997-20.155 5.7366-3.6697-9.5647-3.4025 186.2-3.2512l177.19 0.137 3.4607 1.6401c4.2404 2.0096 7.9489 5.6188 9.9404 9.6743 1.3414 2.7317 1.4999 3.6165 1.4999 8.3761 0 4.6641-0.17679 5.6989-1.4306 8.3742-1.8278 3.8999-5.9857 8.0579-9.8857 9.8857l-3.0525 1.4306-178.28 0.099c-142.97 0.08-178.7-0.035-180.41-0.5775zm-118.8-143.23c-4.3984-1.1846-8.0926-3.319-11.64-6.7254-5.4584-5.2414-8.1912-11.69-8.1912-19.329 0-7.6389 2.7328-14.088 8.1912-19.329 10.675-10.25 26.795-10.15 37.422 0.234 14.834 14.494 8.0205 39.827-12.156 45.197-3.5902 0.9556-9.9844 0.9334-13.626-0.047zm118.24-7.0894c-7.0891-2.42-11.769-7.7313-13.389-15.194-0.76927-3.5449-0.76476-4.1707 0.0563-7.8036 1.6163-7.1521 6.6995-12.731 13.547-14.868 3.3442-1.0437 5.3632-1.0556 179.91-1.0556 196.26 0 179.23-0.328 185.1 3.5657 5.6793 3.7694 8.6304 9.3742 8.6304 16.391 0 8.9778-5.3666 16.305-13.884 18.956-3.1215 0.9715-8.3988 0.9997-180.25 0.9635-166.09-0.035-177.2-0.094-179.72-0.9542zm-117.66-142.92c-6.79-1.64-14.376-7.48-17.346-13.35-3.0285-5.98-3.9352-13.69-2.3215-19.76 3.0848-11.58 13.876-19.88 25.854-19.88 14.466 0 25.906 10.588 26.969 24.96 1.3282 17.959-15.618 32.287-33.155 28.034zm117.91-7.17c-7.425-2.3806-12.369-8.1586-13.848-16.184-1.5324-8.3166 3.3665-17.146 11.674-21.04l3.0202-1.4158 177.94-0.13617c156.64-0.11987 178.26-0.0409 180.62 0.65962 5.9354 1.7626 10.964 6.4883 13.174 12.381 1.6115 4.2957 1.352 10.873-0.59316 15.035-1.8905 4.0448-5.6173 7.6999-9.9374 9.7464l-3.5788 1.6953-177.75 0.10645c-169.6 0.10158-177.88 0.0627-180.72-0.84755z"/>
	</g>
</svg>
