<svg xmlns:rdf="http://www.w3.org/1999/02/22-rdf-syntax-ns#" xmlns="http://www.w3.org/2000/svg" height="512" width="512" version="1.1" xmlns:cc="http://creativecommons.org/ns#" xmlns:dc="http://purl.org/dc/elements/1.1/" viewBox="0 0 511.99999 512.00001">
	<g transform="translate(0 -540.36)">
		<path d="m361.29 1050.8c-17.722-3.2407-38.647-12.149-52.795-22.476-26.438-19.297-45.343-49.613-50.958-81.712-1.9856-11.352-1.9856-33.205 0-44.557 4.5188-25.833 17.776-50.966 36.615-69.412 18.368-17.985 42.441-30.373 67.565-34.768 11.352-1.9856 33.205-1.9856 44.557 0 52.794 9.2349 94.945 51.386 104.18 104.18 1.9856 11.352 1.9856 33.205 0 44.557-9.2349 52.794-51.386 94.945-104.18 104.18-10.706 1.8727-34.763 1.8769-44.983 0.01zm92.71-68.94v-23.5h-12-12v11.5 11.5h-47-47v-11.5-11.5h-12-12v23.5 23.5h71 71v-23.5zm-47.5-59.5v-35.5l17.159-0.5 17.159-0.5-28.91-29.21-28.91-29.22-28.908 29.217-28.908 29.217 16.908 0.27361 16.908 0.27362v35.31c0 19.42 0.30809 35.618 0.68464 35.994 0.37656 0.37655 11.064 0.56405 23.75 0.41667l23.065-0.26798v-35.5zm-363.3 104.94c-10.374-2.7-18.703-7.4-26.202-14.9-7.6212-7.7-12.282-15.91-15.025-26.63-5.0469-19.74 0.2223-38.52 15.018-53.52 12.421-12.596 25.502-17.587 43.664-16.662 7.628 0.38875 11.471 1.1421 17.076 3.3473 14.941 5.8786 26.816 17.754 32.695 32.695 3.4223 8.6982 4.6069 23.435 2.6186 32.576-4.6042 21.168-22.686 39.218-43.759 43.684-9.1024 1.9288-17.284 1.7565-26.085-0.5493zm118.25-7.4324-2.4546-2.4545v-44.911c0-43.921 0.0457-44.969 2.0726-47.545l2.0726-2.6349h27.775 27.775l0.63033 12.25c1.4004 27.216 11.106 55.834 26.979 79.549l5.4894 8.2013h-43.943-43.943l-2.4545-2.4546zm-117.85-168.07c-22.244-5.61-39.526-24.71-42.822-47.33-4.2528-29.18 14.794-56.89 43.786-63.71 9.0315-2.1235 22.661-1.4896 30.868 1.4357 18.114 6.4564 32.359 21.721 37.039 39.69 1.9592 7.522 1.9592 21.373 0 28.895-4.6787 17.963-18.891 33.196-37.039 39.702-7.7489 2.7778-23.467 3.4284-31.831 1.3176zm117.85-7.92-2.45-2.46v-45.091-45.091l2.4574-2.4574 2.4574-2.4574 172.18 0.25285 172.18 0.25284 1.8711 2.5062c1.7566 2.3528 1.855 4.629 1.6079 37.185l-0.26324 34.679-6.4158-7.1848c-23.653-26.488-53.637-43.83-89.771-51.922-8.5535-1.9156-12.767-2.1978-32.814-2.1978-20.046 0-24.26 0.28223-32.814 2.1978-36.304 8.1303-65.657 25.14-90.017 52.161-6.6377 7.3632-18.245 23.767-20.751 29.327l-1.2397 2.75h-36.885-36.885l-2.4545-2.4546zm-118.84-168.01c-10.058-2.88-17.84-7.57-25.615-15.44-14.791-14.97-20.066-33.76-15.018-53.5 2.7435-10.73 7.4038-18.98 15.025-26.6 7.6212-7.6212 15.871-12.281 26.596-15.025 19.735-5.0474 38.513 0.2219 53.517 15.017 12.596 12.421 17.587 25.502 16.662 43.664-0.38875 7.628-1.1421 11.471-3.3473 17.076-5.8732 14.928-17.717 26.779-32.695 32.716-6.2042 2.4595-8.8676 2.9114-18.733 3.1786-7.7382 0.20956-13.1-0.14719-16.392-1.0906zm118.46-8.17c-2.02-2.58-2.07-3.63-2.07-47.55v-44.911l2.4546-2.4545 2.4545-2.4546h171.59 171.59l2.4545 2.4546 2.4546 2.4545v44.911c0 43.921-0.0457 44.969-2.0726 47.545l-2.0726 2.6349h-172.35-172.35l-2.0726-2.6349z"/>
	</g>
</svg>
