<svg xmlns:rdf="http://www.w3.org/1999/02/22-rdf-syntax-ns#" xmlns="http://www.w3.org/2000/svg" height="512" width="512" version="1.1" xmlns:cc="http://creativecommons.org/ns#" xmlns:dc="http://purl.org/dc/elements/1.1/" viewBox="0 0 512.00001 512.00001">
	<g transform="translate(0 -540.36)">
		<path d="m403.1 1051.7c-1.1699-0.3699-2.9646-1.0998-3.9883-1.622-2.7262-1.3904-29.945-28.783-31.317-31.517-2.4978-4.9771-2.4993-6.4294-0.0207-20.924 1.2471-7.2929 2.1386-13.389 1.9811-13.546-0.15746-0.1575-5.9568 0.321-12.887 1.0633-16.513 1.7685-17.785 1.7527-22.101-0.2753-2.9232-1.3734-4.8998-3.0759-12.81-11.034-8.2315-8.2808-9.4917-9.7793-10.503-12.488-1.7987-4.8193-1.5367-8.2063 1.5102-19.523 1.4568-5.4109 2.6511-10.002 2.6538-10.202 0.003-0.2006-7.4731-0.4399-16.613-0.5318l-16.618-0.1672-3.1893-1.4932c-2.7992-1.3106-6.4753-4.7733-30.056-28.311l-26.867-26.818-11.157 11.196c-6.1362 6.1576-12.712 12.389-14.613 13.847-4.315 3.3093-13.887 8.0598-19.11 9.4838-12.721 3.4687-27.07 2.2907-38.753-3.1814-9.5266-4.462-8.7347-3.7294-68.331-63.21-30.946-30.886-57.426-57.711-58.845-59.612-7.4771-10.017-11.187-21.298-11.187-34.022 0-12.882 3.6275-23.921 11.187-34.046 3.9679-5.3141 161.22-162.11 165.1-164.62 7.4709-4.8306 16.032-8.0672 24.427-9.2349 13.761-1.914 28.43 1.6982 40.131 9.8818 3.869 2.706 113.42 111.68 117.26 116.64 3.273 4.2291 6.5038 9.8993 8.3035 14.573 5.3166 13.807 4.8216 30.955-1.2746 44.149-3.5078 7.5923-6.3841 11.212-19.16 24.112l-12.255 12.374 87.267 87.334c59.626 59.672 87.74 88.16 88.759 89.944 1.2184 2.1314 1.5283 3.399 1.6902 6.9131 0.23952 5.1998-6.9327 84.232-7.8948 86.995-1.6999 4.8805-5.9864 8.99-10.815 10.368-2.3304 0.6653-82.843 8.3116-86.448 8.21-0.7312-0.021-2.2866-0.3402-3.4566-0.7103zm42.263-36.244c14.763-1.3318 26.972-2.6324 27.131-2.8904 0.15943-0.258 1.467-13.541 2.9057-29.517l2.6158-29.048-83.854-83.854-83.854-83.854-31.907 31.904c-17.549 17.547-31.907 32.143-31.907 32.435 0 0.2921 10.468 11.002 23.263 23.799l23.263 23.268h22.131c12.548 0 23.347 0.2305 24.939 0.5324 8.3474 1.5831 14.112 8.372 13.996 16.484-0.0266 1.8686-1.6056 8.7726-4.3731 19.12l-4.3315 16.196 1.2466 1.2466 1.2466 1.2465 19.95-2.1536c22.56-2.4354 24.657-2.5262 28.365-1.2283 5.6044 1.9615 10.901 9.2738 10.901 15.049 0 1.1594-1.4358 10.422-3.1907 20.584s-3.1907 18.953-3.1907 19.534c0 0.6419 2.5606 3.6306 6.5143 7.6032l6.5143 6.5456 2.393-0.2901c1.3162-0.1595 14.472-1.3797 29.234-2.7114zm-277.4-138.85c1.679-0.4373 4.0624-1.2979 5.2966-1.9124 1.5472-0.7704 26.645-25.495 80.838-79.636 75.785-75.712 78.665-78.66 80.564-82.479 1.9298-3.8801 1.9699-4.0859 1.9699-10.104 0-10.855 5.2454-4.6863-57.388-67.485-29.857-29.936-55.422-55.344-56.81-56.463-6.5945-5.3112-16.784-6.1559-24.994-2.072-1.5705 0.78124-26.101 24.938-80.338 79.113-42.942 42.894-78.792 79.009-79.665 80.257-3.3848 4.8363-4.7142 12.816-3.1209 18.732 1.6505 6.1294 0.85706 5.2751 58.319 62.796 36.193 36.23 55.968 55.652 57.78 56.747 5.1635 3.1216 11.636 4.0455 17.549 2.5052zm-7.1784-72.234c-1.6608-0.6986-3.9341-2.0032-5.0519-2.8992-1.1177-0.896-13.924-13.554-28.458-28.128-29.781-29.865-29.322-29.292-29.322-36.598 0-7.5918-2.3186-4.9117 45.801-52.942 33.745-33.682 43.486-43.116 45.576-44.137 3.8165-1.865 10.543-1.8637 14.358 0 2.0549 1.0052 9.0182 7.6484 30.656 29.247 18.374 18.34 28.376 28.705 29.099 30.155 2.2885 4.585 2.304 10.651 0.0394 15.483-0.91873 1.9602-10.592 11.94-43.781 45.168-38.367 38.411-42.919 42.797-45.793 44.117-4.4731 2.0545-9.0633 2.241-13.123 0.5331zm35.057-68.023c15.868-15.866 28.851-29.089 28.851-29.384 0-0.2955-6.3419-6.8758-14.093-14.623l-14.093-14.086-29.246 29.242-29.246 29.242 14.22 14.228c7.8212 7.8253 14.341 14.228 14.488 14.228 0.14727 0 13.251-12.981 29.118-28.847z"/>
	</g>
</svg>
