<?xml version="1.0" encoding="UTF-8" standalone="no"?>
<svg id="svg2" xmlns:rdf="http://www.w3.org/1999/02/22-rdf-syntax-ns#" xmlns="http://www.w3.org/2000/svg" height="512" width="512" version="1.1" xmlns:cc="http://creativecommons.org/ns#" xmlns:dc="http://purl.org/dc/elements/1.1/" viewBox="0 0 512.00001 512.00001">
	<g id="layer1" transform="translate(0,-540.36216)">
		<path id="path3347" d="m362.26995 1035.6672c-3.30051-9.2428-16.7071-46.86355-29.79243-83.60176-19.83203-55.68013-24.05663-66.68705-25.38452-66.13763-3.15442 1.30517-29.58074 1.68164-36.97943 0.52681-4.06254-0.6341-7.47728-1.02681-7.58832-0.87268-0.36157 0.50188 2.16395 46.80281 2.57527 47.21294 0.21971 0.21908 12.94302-0.25762 28.27401-1.05933 15.33099-0.8017 28.02421-1.30796 28.20716-1.12501 0.3318 0.3318 2.36621 34.10655 2.07287 34.41322-0.085 0.0889-10.72956 0.66291-23.65456 1.27566-12.925 0.61274-25.75 1.3448-28.5 1.62679l-5 0.51271 0.5 10.21163 0.5 10.21163 3 0.25658c1.65 0.14112 14.475-0.34122 28.5-1.07187s25.57314-1.29611 25.66254-1.25658c0.0894 0.0395 0.5394 7.82396 1 17.29879l0.83746 17.2268-4 0.486c-2.2 0.2673-14.79176 0.9905-27.98168 1.6073-13.18993 0.6167-24.27139 1.3004-24.62548 1.5192-0.35408 0.2188-0.41468 4.4161-0.13466 9.3272l0.50912 8.9293-5.38365 0.5629c-2.96101 0.3097-11.57115 0.8457-19.13365 1.1911l-13.75 0.6282-0.0264-2.8525c-0.12757-13.8086-8.95085-175.7243-9.61077-176.36694-0.47458-0.46215-4.01288-2.01709-7.86288-3.45542s-10.04357-4.41971-13.7635-6.62528l-6.76349-4.01013-7.73651 2.60641c-4.25507 1.43353-10.5635 2.87366-14.01871 3.20029-3.45522 0.32663-6.5243 0.98558-6.82018 1.46433-0.50088 0.81044-9.83296 48.33316-10.56628 53.80782-0.33124 2.47282-0.32379 2.47494 27.04358 7.70825 15.05621 2.87911 27.62314 5.48297 27.92652 5.78635 0.58061 0.58061-15.88414 88.04222-16.87718 89.65252-0.33435 0.5421-11.76077-1.2186-27.25287-4.1994-14.67241-2.8232-27.27438-4.9038-28.00438-4.6237-0.82397 0.3162-2.22232 5.4755-3.68767 13.6059-1.75398 9.7319-2.7352 13.0966-3.81925 13.0966-2.72473 0-34.655809-6.2483-35.413784-6.9298-0.60462-0.5436 31.214694-170.36377 32.754574-174.81167 0.2368-0.684-2.13657-2.87196-5.28554-4.87263-17.30772-10.99634-29.212042-26.99184-34.420769-46.25027-2.679207-9.90594-2.874528-27.52982-0.417105-37.63565 3.574306-14.69887 13.017904-30.00174 24.632594-39.91585 3.0195-2.5774 5.47131-5.00073 5.44846-5.38517-0.0229-0.38444-1.24563-4.52398-2.71729-9.19898-7.67922-24.39449-7.76976-53.6828-0.24277-78.53212 3.14493-10.38253 11.84821-27.94348 18.56925-37.46788 7.38858-10.47038 20.78618-23.43678 31.89124-30.86483 23.21737-15.52985 42.83753-21.52559 70.54111-21.55673 34.46037-0.0387 63.99373 12.24338 88.40169 36.76383 34.0094 34.16615 46.28047 83.09167 32.61558 130.04035-1.42195 4.88543-2.45755 8.99262-2.30132 9.12708 0.15623 0.13445 2.30905 1.25009 4.78405 2.47919 7.60913 3.77875 18.7131 12.71661 24.47131 19.69756 6.30094 7.63892 12.67068 19.89561 15.23412 29.31355 2.69541 9.90283 2.42511 30.01282-0.54359 40.44126-7.17765 25.21367-25.3943 47.49936-51.54512 63.05874-1.50371 0.89469-0.0858 5.47585 13.46349 43.5 8.32931 23.375 15.43121 42.78504 15.782 43.13342 0.35078 0.34838 8.21376-2.09093 17.47328-5.42069 19.07838-6.86067 17.25648-7.1887 21.03432 3.78727 1.32514 3.85 4.66767 13.36518 7.42785 21.14485l5.01852 14.14486-16.37671 5.77673c-9.00719 3.17718-16.82992 6.05688-17.38385 6.39918-0.61414 0.3796 1.34251 7.2014 5.01441 17.4826 3.31185 9.2731 5.66344 17.1985 5.22576 17.6119-0.43769 0.4135-7.77079 3.2305-16.29579 6.2602s-16.22656 5.7968-17.11457 6.1491c-1.32647 0.5263-2.68539-2.3581-7.61548-16.1644zm-61.92922-182.80521c18.12929-3.16148 33.72872-10.822 46.24194-22.70834 19.69284-18.70626 25.75044-40.41416 16.87675-60.47914-3.02435-6.83861-13.07085-17.06826-20.42016-20.79243l-5.40447-2.73866-2.06311 2.85938c-2.89822 4.0168-12.23705 14.19576-16.84408 18.35938-3.83887 3.46939-3.86357 3.53936-2.82461 8 1.77981 7.64143 1.33855 25.73567-0.83485 34.23356-3.63653 14.21871-12.30077 28.30453-23.78664 38.67095l-6.75374 6.09549h3.60513c1.98282 0 7.47635-0.67508 12.20784-1.50019zm-48.99757-34.52701c7.16368-2.68028 14.67641-10.50492 17.10421-17.81435 0.96602-2.90841 1.5961-5.44832 1.40018-5.64424-0.19593-0.19592-3.80066 0.46441-8.01051 1.4674-4.20986 1.003-11.45324 2.14008-16.09641 2.52685l-8.44211 0.70323-1.7686 5.64415c-0.97272 3.10429-2.61489 7.31373-3.64925 9.35432-2.34399 4.62419-2.3486 4.56061 0.36933 5.08411 5.93563 1.14325 13.99679 0.58532 19.09316-1.32147zm-86.55185-6.82266c1.03609-0.65732 1.05564-1.79078 0.0989-5.73469-0.65583-2.7035-1.16404-10.30083-1.12935-16.88296 0.0589-11.17339-0.0804-12.06721-2.09891-13.46986-1.18908-0.82629-5.94683-4.8633-10.57278-8.97114l-8.41083-7.46879-2.93619 3.43865c-9.73409 11.39982-9.65644 27.99412 0.18342 39.20111 4.03296 4.59329 9.16342 7.79468 15.02498 9.37556 5.45793 1.47201 8.11017 1.61004 9.84075 0.51212zm93.70869-30.85373c3.85-0.83076 7.39456-1.87936 7.8768-2.33024 2.17121-2.02999-7.44832-12.52207-13.63847-14.87556-2.3117-0.8789-3.0715-0.42215-8.14395 4.89579-4.83741 5.07152-5.59438 6.39385-5.59438 9.7727 0 2.14916 0.32045 4.22802 0.71212 4.61969 0.87952 0.87951 9.47813-0.0735 18.78788-2.08238zm-87.48672-23.32847c0.69076-1.66764 0.96983-3.31816 0.62017-3.66783-0.34967-0.34967-3.22274-0.81284-6.38461-1.02928l-5.74884-0.39353 4.5 4.03151c2.475 2.21733 4.78291 4.04494 5.12868 4.06135 0.34577 0.0164 1.19384-1.33459 1.8846-3.00222zm144.32681-9.21794c5.18449-5.85917 5.39367-6.29067 3.34512-6.90032-2.80678-0.8353-13.53733-0.99619-16.33747-0.24495-2.07733 0.55731-2.01002 0.80053 1.93362 6.98634 2.24723 3.52491 4.41045 6.40893 4.80714 6.40893 0.3967 0 3.20991-2.8125 6.25159-6.25zm-98.34009-30.7412c11.77914-3.96835 26.9991-4.6998 39.80384-1.91291 3.67842 0.80059 5.61647 0.49694 13.3368-2.08961 4.96812-1.66447 12.87784-3.69681 17.57715-4.5163 11.02158-1.922 31.87416-1.91711 41.94424 0.01 4.31088 0.8249 8.15641 1.4999 8.54562 1.5 1.09032 0.00026 4.53209-12.43519 6.36568-22.99983 1.97785-11.39579 1.52687-29.36819-1.04136-41.5-9.15706-43.25642-43.71581-78.07189-86.53197-87.17491-13.17261-2.80059-34.57567-2.37571-47.07377 0.93448-33.41103 8.8491-58.8168 29.67859-73.61173 60.35223-7.72869 16.02354-10.44611 27.3067-11.05164 45.88805-0.50183 15.39918 0.4758 23.99586 4.15082 36.5 2.53748 8.63371 2.2467 8.47533 10.6905 5.82307 6.37944-2.00382 9.45721-2.32058 22.39582-2.30496 11.77389 0.0142 16.29044 0.41846 21 1.87958 6.24677 1.93802 16.83067 7.01272 22 10.5484 1.65 1.12856 3.675 1.79626 4.5 1.48378s3.975-1.40196 7-2.42107z"/>
	</g>
</svg>
