<svg xmlns:inkscape="http://www.inkscape.org/namespaces/inkscape" xmlns:rdf="http://www.w3.org/1999/02/22-rdf-syntax-ns#" xmlns="http://www.w3.org/2000/svg" sodipodi:docname="language-stroke.svg" height="512" width="512" version="1.1" xmlns:cc="http://creativecommons.org/ns#" xmlns:dc="http://purl.org/dc/elements/1.1/" inkscape:version="0.91 r13725" viewBox="0 0 512.00001 512.00001" xmlns:sodipodi="http://sodipodi.sourceforge.net/DTD/sodipodi-0.dtd">
	<sodipodi:namedview bordercolor="#666666" inkscape:pageshadow="2" inkscape:window-y="-8" pagecolor="#ffffff" inkscape:window-height="1017" inkscape:window-maximized="1" inkscape:zoom="0.35" inkscape:window-x="-8" showgrid="false" borderopacity="1.0" inkscape:current-layer="layer1" inkscape:cx="-126.42857" inkscape:cy="520" units="px" inkscape:window-width="1920" inkscape:pageopacity="0.0" inkscape:document-units="px"/>
	<g inkscape:label="Layer 1" inkscape:groupmode="layer" transform="translate(0 -540.36)">
		<path inkscape:connector-curvature="0" d="m239.77 1050.8c-1.5-0.9337-3.0755-2.3875-3.5012-3.2308-0.42564-0.8433-0.99895-52.85-1.274-115.57l-0.5-114.08-114.04-0.5c-62.716-0.27-114.76-0.86-115.66-1.31-0.8915-0.44-2.3755-2.24-3.2957-4-1.5438-2.95-1.6502-13.35-1.3764-134.46l0.29688-131.27 2.7735-2.78 2.7735-2.77 131.27-0.3c121.12-0.27387 131.52-0.16741 134.46 1.3763 1.7558 0.92024 3.5564 2.4043 4.0013 3.2978 0.44493 0.89358 1.034 52.942 1.3091 115.66l0.50017 114.04 114.04 0.50016c62.721 0.2751 114.77 0.8642 115.66 1.3091 0.8936 0.44493 2.3776 2.2455 3.2979 4.0013 1.5437 2.9455 1.6502 13.346 1.3763 134.46l-0.2968 131.27-2.7735 2.7736-2.7735 2.7735-131.77 0.2298c-122.43 0.2133-131.96 0.1093-134.5-1.4678zm251.06-137.06 0.25419-117.29h-117.54-117.54v117.54 117.54l117.29-0.2543 117.29-0.2542 0.25418-117.29zm-188.89 92.86c-2.1406-2.1405-2.924-3.8816-2.924-6.4978 0-2.2468 12.134-35.935 32.679-90.724 30.448-81.201 32.89-87.279 35.762-89.03 6.3358-3.8636 13.297-1.5549 16.062 5.3267 8.0848 20.124 64.547 172.24 64.547 173.9 0 3.0591-2.9243 7.5978-5.7142 8.8691-3.9469 1.7983-8.9383 1.301-11.696-1.1652-1.7259-1.5436-4.6805-8.0646-9.4048-20.757l-6.8884-18.506-40.938-0.26099-40.938-0.26099-6.915 18.582c-7.778 20.901-9.5964 23.454-16.706 23.454-3.089 0-4.6684-0.6668-6.9256-2.9241zm102.23-65.849c-1.0188-2.6134-8.2975-21.977-16.175-43.03-7.8774-21.053-14.618-37.934-14.98-37.512-0.4966 0.57881-16.487 42.924-31.736 84.044-0.365 0.98423 6.4765 1.2504 32.14 1.2504h32.603l-1.8524-4.7516zm-169.94-151.43c0.7933-11.088 4.8445-14.732 16.517-14.857l5.2518-0.0564v-106.54-106.54l-117.29 0.25421-117.29 0.25422-0.25421 117.29-0.25422 117.29h106.41 106.41l0.50756-7.0938zm-140.28-14.59c-5.9695-1.8677-9.6589-7.1078-8.5361-12.124 0.37901-1.6934 7.2448-9.5016 18.369-20.891 9.7702-10.003 18.363-19.305 19.094-20.672 1.2345-2.3068 1.0097-2.9051-3.1269-8.3221-15.976-20.921-30.28-47.914-32.381-61.105l-0.67711-4.2514h-6.4064c-7.9248 0-12.729-1.9092-14.779-5.8735-1.9792-3.8274-1.9792-6.4329 0-10.26 2.8052-5.4246 5.5119-5.8735 35.413-5.8735h27.041v-17.101c0-14.16 0.28654-17.586 1.6658-19.921 3.419-5.7879 11.659-6.8254 16.417-2.0671l2.924 2.924v18.083 18.083h27.041c29.012 0 32.074 0.44346 35.349 5.1186 0.89718 1.2809 1.6312 3.9292 1.6312 5.8851 0 7.176-5.5429 11.004-15.935 11.004h-5.9956l-1.0725 4.2514c-4.4106 17.484-16.516 39.983-34.159 63.486l-3.1649 4.2161 5.9051 6.7507c3.2478 3.7129 11.579 12.414 18.514 19.337 6.935 6.9222 13.125 13.549 13.755 14.726 2.7487 5.136-0.37148 12.3-6.1939 14.222-2.7967 0.92299-4.1905 0.8612-6.9938-0.31007-3.2945-1.3765-20.174-17.407-33.116-31.45l-5.8108-6.305-16.455 17.041c-9.05 9.3723-17.661 17.883-19.135 18.913-3.0348 2.1203-6.9591 3.1834-9.1827 2.4877zm50.928-80.954c8.5217-11.924 17.328-27.168 20.858-36.107 1.7815-4.5112 3.2391-8.6751 3.2391-9.2531 0-0.71141-9.8573-1.051-30.51-1.051-16.781 0-30.51 0.2148-30.51 0.47733 0 1.3713 5.1765 13.923 8.2605 20.03 5.5748 11.039 20.746 33.54 22.584 33.495 0.3664-0.009 3.102-3.4248 6.0792-7.5906zm33.728 314.14c-34.449-5.357-63.592-20.268-88.712-45.387-22.135-22.134-37.401-49.389-43.088-76.923-0.69965-3.3874-1.5851-6.1589-1.9677-6.1589-0.38259 0-4.3717 4.926-8.8648 10.947-9.2903 12.449-12.171 14.29-18.332 11.716-4.4678-1.8667-6.7187-5.1663-6.7187-9.8488 0-3.2993 2.1468-6.6136 17.975-27.75 19.292-25.762 20.518-26.871 27.531-24.913 1.9658 0.54892 10.307 8.1248 24.325 22.093 11.733 11.692 22.265 22.539 23.403 24.105 3.1357 4.3112 2.7882 10.138-0.81673 13.696-2.768 2.7313-5.1488 3.4578-10.224 3.1195-1.5126-0.10073-6.5012-4.2341-14.166-11.737-11.688-11.442-11.821-11.535-10.955-7.6825 1.2996 5.784 6.8179 21.049 9.676 26.767 22.932 45.874 66.742 75.18 116.81 78.143 11.798 0.69803 15.56 2.0151 17.421 6.0975 2.0336 4.4633 1.3294 9.2009-1.8385 12.369-2.852 2.8521-3.1663 2.9217-12.754 2.8272-5.4066-0.053-13.824-0.718-18.706-1.477zm251.32-278.26c-17.978-18.057-23.817-24.527-24.333-26.962-1.5007-7.085 5.642-14.3 12.636-12.763 2.0739 0.4555 6.9273 4.4128 14.862 12.118 11.63 11.293 11.771 11.391 10.914 7.5755-1.2932-5.7554-6.8176-21.03-9.6685-26.733-22.932-45.874-66.742-75.18-116.81-78.143-14.946-0.88424-18.506-3.195-18.506-12.011 0-2.6075 0.80323-4.3343 3.0709-6.602l3.071-3.071 13.184 0.6131c28.812 1.3398 55.397 10.23 80.413 26.891 13.687 9.1156 33.129 28.301 42.174 41.618 11.239 16.546 20.794 38.221 24.271 55.056 0.69964 3.3874 1.5358 6.1588 1.8583 6.1588 0.32241 0 4.1462-4.7861 8.4971-10.636 8.9594-12.045 12.237-14.282 18.096-12.349 4.6113 1.5219 7.4324 5.349 7.4324 10.083 0 3.4123-1.9697 6.4647-17.889 27.722-9.8389 13.138-18.654 24.181-19.588 24.54-0.93471 0.35868-3.5734 0.65214-5.8637 0.65214-4.1045 0-4.5032-0.34048-27.818-23.758z"/>
	</g>
</svg>
