<svg xmlns:inkscape="http://www.inkscape.org/namespaces/inkscape" xmlns:rdf="http://www.w3.org/1999/02/22-rdf-syntax-ns#" xmlns="http://www.w3.org/2000/svg" sodipodi:docname="language.svg" height="512" width="512" version="1.1" xmlns:cc="http://creativecommons.org/ns#" xmlns:dc="http://purl.org/dc/elements/1.1/" inkscape:version="0.91 r13725" viewBox="0 0 512.00001 512.00001" xmlns:sodipodi="http://sodipodi.sourceforge.net/DTD/sodipodi-0.dtd">
	<sodipodi:namedview bordercolor="#666666" inkscape:pageshadow="2" inkscape:window-y="-8" pagecolor="#ffffff" inkscape:window-height="1017" inkscape:window-maximized="1" inkscape:zoom="0.35" inkscape:window-x="-8" showgrid="false" borderopacity="1.0" inkscape:current-layer="layer1" inkscape:cx="-126.42857" inkscape:cy="520" units="px" inkscape:window-width="1920" inkscape:pageopacity="0.0" inkscape:document-units="px"/>
	<g inkscape:label="Layer 1" inkscape:groupmode="layer" transform="translate(0 -540.36)">
		<path inkscape:connector-curvature="0" d="m245.16 1049.6c5.6916-6.1783 58.782-67.179 63.203-72.619 6.2489-7.6907 9.4946-15.257 10.537-24.563 0.76092-6.7962-1.1283-23.466-18.525-163.46-10.655-85.742-19.373-156.28-19.373-156.75 0-1.2121 186.03-1.084 193.5 0.13328 17.439 2.8412 33.127 18.699 36.501 36.897 1.387 7.4802 1.366 338.9-0.0219 346.22-3.406 17.96-17.911 32.464-35.87 35.87-3.4627 0.6567-45.879 1.0207-118.93 1.0207h-113.55l2.5334-2.75zm122.04-133.67c3.343-1.744 19.693-14.675 30.06-23.774 4.266-3.7441 8.091-6.8068 8.5-6.806 0.40901 0.0007 4.5056 3.1233 9.1035 6.939s13.501 10.858 19.785 15.649c9.9799 7.609 12.022 8.7607 16.14 9.1028 8.4567 0.7026 16.215-6.1836 16.215-14.392 0-6.3622-2.8275-9.9076-15.945-19.994-6.9053-5.3095-15.149-11.875-18.319-14.591l-5.7637-4.937 3.5378-4.6392c12.032-15.778 23.419-35.812 28.781-50.639 1.3925-3.85 2.8237-7.7329 3.1804-8.6286 0.4316-1.0836 2.259-1.7833 5.4605-2.0909 2.6629-0.25588 6.1536-1.4178 7.8163-2.6017 8.9528-6.375 7.7445-20.87-2.1304-25.555-2.8681-1.361-7.3952-1.6233-28.02-1.6233h-24.599v-9.0989c0-14.614-4.2547-20.401-15-20.401s-15 5.7867-15 20.401v9.0989h-24.099c-20.163 0-24.658 0.26511-27.52 1.6233-9.8749 4.6859-11.083 19.181-2.1304 25.555 1.6554 1.1787 5.1515 2.3457 7.7859 2.5988l4.7815 0.45943 2.2167 6.1315c6.719 18.585 17.251 38.431 27.664 52.131l5.3205 7-4.2597 3.8088c-2.3428 2.0949-10.11 8.5252-17.26 14.29-13.695 11.041-17.457 15.649-17.484 21.417-0.0486 10.379 12.222 18.239 21.18 13.566zm37.299-76.972c-9.59-13.411-22.495-36.68-22.495-40.561 0-0.70158 8.1131-1.0475 24.567-1.0475h24.567l-0.67025 2.25c-2.1863 7.3393-14.128 27.737-22.833 39-1.6318 2.1115-1.8647 2.1381-3.1371 0.35875zm-207.13 204.94c-12.143-8.1777-17.561-18.217-20.272-37.561-1.0405-7.425-1.7823-13.618-1.6483-13.762 0.13398-0.1439 17.792-0.1439 39.24 0l38.997 0.2618-24.592 27.172c-13.525 14.945-25.048 27.207-25.605 27.25-0.55734 0.043-3.3112-1.4697-6.1197-3.361zm-161.26-82.63c-17.167-3.37-31.76-18.26-35.087-35.81-1.4077-7.4226-1.4077-340.8 0-348.22 3.406-17.96 17.911-32.464 35.87-35.87 3.385-0.64195 35.109-1.0143 85.496-1.0033 85.278 0.0185 88.167 0.16345 97.429 4.8887 10.315 5.2625 20.7 18.507 23.177 29.562 0.60088 2.6812 11.382 87.859 23.957 189.28 15.844 127.78 22.611 185.29 22.04 187.28-0.45375 1.5821-2.2874 4.6964-4.0748 6.9205l-3.2498 4.0439-120.6-0.1c-66.316-0.06-122.55-0.49-124.97-0.97zm60.51-135.54c6.1171-2.9027 7.0821-5.4242 12.566-32.833l5.111-25.544h21.204 21.204l5.111 25.544c5.4841 27.409 6.4492 29.93 12.566 32.833 9.2807 4.404 20.068-1.2622 21.271-11.174 0.28721-2.365-5.1139-31.424-14.946-80.415-16.817-83.791-16.376-82.222-23.976-85.274-5.3924-2.1652-37.067-2.1652-42.46 0-7.6006 3.0519-7.1596 1.4833-23.976 85.274-9.8325 48.991-15.234 78.05-14.946 80.415 1.2052 9.9241 11.978 15.583 21.271 11.174zm29.677-118.38 5.9981-30h3.206 3.206l5.9981 30 5.9981 30h-15.202-15.202l5.9981-30z"/>
	</g>
</svg>
