<?xml version="1.0" encoding="UTF-8" standalone="no"?>
<svg id="svg2" xmlns:rdf="http://www.w3.org/1999/02/22-rdf-syntax-ns#" xmlns="http://www.w3.org/2000/svg" height="512" width="512" version="1.1" xmlns:cc="http://creativecommons.org/ns#" xmlns:dc="http://purl.org/dc/elements/1.1/" viewBox="0 0 512.00001 512.00001">
	<g id="layer1" transform="translate(0,-540.36216)">
		<g id="g3909" transform="matrix(.99152748 0 0 .99152748 .14814778 540.36216)">
			<g id="g3859">
				<g id="g3861">
					<rect id="rect3863" y="306" width="19.125" x="153" height="19.125"/>
					<rect id="rect3865" y="401.625" width="19.125" x="153" height="19.125"/>
					<rect id="rect3867" y="210.375" width="19.125" x="153" height="19.125"/>
					<path id="path3869" d="m344.25 133.875h95.625l-114.75-133.875v114.75c0 11.475 9.563 19.125 19.125 19.125z"/>
					<path id="path3871" d="m306 114.75v-114.75h-191.25c-21.038 0-38.25 17.212-38.25 38.25v439.875c0 21.037 17.212 38.25 38.25 38.25h286.875c21.037 0 38.25-17.213 38.25-38.25v-325.125h-95.625c-21.037 0-38.25-17.212-38.25-38.25zm-114.75 325.125h-57.375v-57.375h57.375v57.375zm0-95.625h-57.375v-57.375h57.375v57.375zm0-95.625h-57.375v-57.375h57.375v57.375zm191.25 172.125h-153v-19.125h153v19.125zm0-95.625h-153v-19.125h153v19.125zm0-95.625h-153v-19.125h153v19.125z"/>
				</g>
			</g>
		</g>
	</g>
</svg>
