<svg xmlns:rdf="http://www.w3.org/1999/02/22-rdf-syntax-ns#" xmlns="http://www.w3.org/2000/svg" height="512" width="512" version="1.1" xmlns:cc="http://creativecommons.org/ns#" xmlns:dc="http://purl.org/dc/elements/1.1/" viewBox="0 0 512.00001 512.00001">
	<g transform="translate(0 -540.36)">
		<path d="m60.146 1051.5c-6.7996-2.178-11.396-6.9152-13.431-13.843-0.76757-2.6133-0.84887-16.222-0.84887-142.09 0-154.65-0.28918-142.74 3.6047-148.45 1.0902-1.5991 3.1794-3.8114 4.6427-4.9163 4.635-3.4999 6.0093-3.7836 19.477-4.0214l12.027-0.2124 0.32021-19.778c0.17612-10.878 0.57996-22.172 0.89741-25.099 2.8188-25.986 11.365-51.046 24.588-72.096 26.234-41.765 67.349-69.701 115.09-78.196 10.76-1.9147 16.873-2.4119 29.531-2.4019 19.318 0.0154 34.81 2.3844 52.06 7.9611 59.388 19.199 103.87 69.831 115.22 131.16 1.9485 10.523 2.5326 18.448 2.8334 38.444l0.30212 20.086h11.002c8.5091 0 11.656 0.1924 13.892 0.8489 7.0757 2.0783 11.953 6.9753 14.016 14.073 0.77552 2.6676 0.84113 15.8 0.71672 143.39l-0.13696 140.46-1.2837 3.1925c-1.7559 4.367-6.5875 9.1986-10.954 10.954l-3.1925 1.2837-193.68 0.1059c-185.77 0.1016-193.8 0.067-196.69-0.8593zm366.17-156.21v-117.33h-170.27-170.27v117.33 117.33h170.27 170.27v-117.33zm-182.23 58.74c-22.75-4.7918-40.552-21.906-46.279-44.491-2.1439-8.4546-2.1324-20.038 0.0286-28.656 4.9442-19.719 20.523-36.529 39.355-42.466 12.865-4.0561 24.835-4.0561 37.7 0 19.724 6.2187 35.71 24.214 39.853 44.861 3.4435 17.163-0.54489 34.534-11.117 48.42-6.6016 8.671-16.48 15.945-27.047 19.916-9.3557 3.5159-22.596 4.5004-32.493 2.416zm20.535-40.822c10.194-5.0295 14.249-16.862 9.1956-26.834-6.5143-12.855-23.949-14.904-32.986-3.8753-5.1153 6.2426-6.1144 14.626-2.5754 21.61 2.4142 4.7642 5.6016 7.6752 10.81 9.8729 2.528 1.0666 3.6848 1.2315 7.574 1.0793 3.8556-0.1509 5.133-0.4474 7.9814-1.8527zm121.62-194.48c-0.33426-20.312-0.88284-26.528-3.2758-37.113-8.6579-38.3-34.404-70.827-69.723-88.091-31.489-15.391-66.317-17.592-99.404-6.2825-18.116 6.1922-34.115 16.06-48.183 29.718-19.606 19.035-32.148 42.075-37.367 68.646-1.6106 8.2004-2.1097 15-2.431 33.123l-0.342 19.288h130.52 130.52l-0.31739-19.288z"/>
	</g>
</svg>
