<svg xmlns:inkscape="http://www.inkscape.org/namespaces/inkscape" xmlns:rdf="http://www.w3.org/1999/02/22-rdf-syntax-ns#" xmlns="http://www.w3.org/2000/svg" sodipodi:docname="loudspeaker.svg" height="512" width="512" version="1.1" xmlns:cc="http://creativecommons.org/ns#" xmlns:dc="http://purl.org/dc/elements/1.1/" inkscape:version="0.91 r13725" viewBox="0 0 512.00001 512.00001" xmlns:sodipodi="http://sodipodi.sourceforge.net/DTD/sodipodi-0.dtd">
	<sodipodi:namedview bordercolor="#666666" inkscape:pageshadow="2" inkscape:window-y="-8" pagecolor="#ffffff" inkscape:window-height="1017" inkscape:window-maximized="1" inkscape:zoom="0.35" inkscape:window-x="-8" showgrid="false" borderopacity="1.0" inkscape:current-layer="layer1" inkscape:cx="-126.42857" inkscape:cy="520" units="px" inkscape:window-width="1920" inkscape:pageopacity="0.0" inkscape:document-units="px"/>
	<g inkscape:label="Layer 1" inkscape:groupmode="layer" transform="translate(0 -540.36)">
		<path inkscape:connector-curvature="0" d="m270.38 1050.8c-4.9155-1.738-5.737-2.4695-48.408-43.098l-30.715-29.244 21.301-21.284 21.301-21.284 11.906 11.367c6.5485 6.2516 13.606 12.95 15.684 14.886l3.7776 3.5198 12.049-12.006c13.606-13.556 15.218-16.497 13.049-23.792-0.99969-3.3624-3.5019-6.406-11.842-14.405l-10.575-10.142 5.4142-4.2804c2.9778-2.3542 8.2648-6.3147 11.749-8.8011 5.9078-4.2164 6.5057-4.4294 8.8736-3.1622 1.3964 0.7474 6.2975 5.3084 10.891 10.136 13.366 14.045 18.063 26.424 15.627 41.179-1.9845 12.016-4.959 16.785-20.067 32.169l-13.606 13.854 10.255 9.8129c12.257 11.729 14.652 16.075 14.699 26.677 0.0233 5.2546-0.56306 8.3546-2.33 12.318-2.9028 6.5108-10.385 13.485-16.818 15.677-5.8227 1.9839-16.461 1.9372-22.216-0.097zm-166.34-60.91c-12.285-2.9798-15.239-5.2637-44.112-34.096-30.07-30.028-31.441-31.902-33.629-45.973-0.96227-6.1897-0.87872-8.558 0.52375-14.846 2.8746-12.889 5.0289-15.565 41.14-51.09 18.271-17.975 36.278-35.573 40.015-39.105l6.794-6.4232 4.1938 3.9427c11.871 11.16 103.09 101.13 103.09 101.68 0 0.3515-17.8 18.089-39.556 39.416-26.15 25.635-41.362 39.808-44.885 41.82-9.6125 5.4899-22.707 7.3139-33.577 4.6772zm16.921-72.098c3.5376-1.569 28.815-26.505 29.984-29.579 1.5842-4.1668 1.0085-9.7827-1.3696-13.361-3.0927-4.6538-10.196-8.2064-14.753-7.3786-5.7326 1.0411-7.9958 2.7611-21.449 16.302-13.687 13.776-15.105 16.2-13.575 23.201 2.0501 9.3784 12.436 14.686 21.163 10.816zm82.027-76.508c-23.442-22.933-48.191-47.237-54.998-54.01l-12.376-12.314 8.5561-10.636c30.724-38.194 54.127-86.732 63.354-131.4 1.0006-4.8436 2.1258-8.6804 2.5005-8.5264 0.37474 0.15403 43.2 42.021 95.168 93.038l94.487 92.758-10.819 2.2562c-46.218 9.6379-96.259 33.775-135.78 65.495-3.4495 2.7684-6.5409 5.0335-6.8696 5.0335-0.32877 0-19.778-18.763-43.22-41.696zm235.93-39.177c-5.6253-2.0665-8.4612-4.7695-122.76-117.01-71.709-70.415-95.352-94.212-97.17-97.803-1.7263-3.4094-2.5051-6.8634-2.7661-12.269-0.33511-6.9379-0.10156-8.0282 3.0017-14.012 8.3963-16.191 28.889-21.581 43.796-11.518 2.9898 2.0182 95.754 92.593 180.6 176.34 35.538 35.077 36.532 36.407 36.532 48.913 0 11.446-5.7937 20.559-16.623 26.147-5.5792 2.879-18.359 3.5097-24.607 1.2143zm-2.5949-112.76c-6.5972-1.9742-11.451-9.8531-10.195-16.549 0.80863-4.3104 5.0055-9.3574 9.2591-11.135 4.0465-1.6907 36.828-1.9308 41.141-0.30134 13.665 5.1629 12.859 24.105-1.1886 27.924-4.7069 1.2798-34.786 1.3264-39.016 0.0605zm-30.96-60.578c-2.0741-0.74013-4.4737-1.9288-5.3324-2.6415-4.3108-3.5776-5.7906-12.468-2.9799-17.904 0.80215-1.5512 9.2168-10.331 18.699-19.51 19.081-18.471 21.645-20.014 29.395-17.692 7.6591 2.2947 11.719 9.4124 10.155 17.803-0.5957 3.1965-3.3353 6.3236-18.235 20.814-16.092 15.65-22.398 20.541-26.427 20.493-0.82756-0.01-3.2017-0.62328-5.2758-1.3634zm-62.664-30.629c-7.6625-3.4784-8.2888-5.6036-8.2888-28.123 0-22.761 0.5882-24.682 8.6484-28.248 7.439-3.2906 15.291-0.62816 19.195 6.5091 1.4743 2.6948 1.7403 6.0173 1.7403 21.738 0 21.55-0.71364 23.884-8.5111 27.836-5.3987 2.7364-7.2946 2.779-12.784 0.28707z"/>
	</g>
</svg>
