<svg xmlns:rdf="http://www.w3.org/1999/02/22-rdf-syntax-ns#" xmlns="http://www.w3.org/2000/svg" height="512" width="512" version="1.1" xmlns:cc="http://creativecommons.org/ns#" xmlns:dc="http://purl.org/dc/elements/1.1/" viewBox="0 0 512.00001 512.00001">
	<g transform="translate(0 -540.36)">
		<path d="m273.74 1035.4v-17h119 119v17 17h-119-119v-17zm-261.5-29l-11.981-12.06 115.99-115.99 115.99-115.99-30.74-30.75-30.75-30.74-13.27 13.24c-7.2981 7.2831-13.706 13.242-14.24 13.242-0.53402 0-6.0436-5.0583-12.244-11.241l-11.273-11.241 82.248-82.253 82.248-82.253 11.259 11.227c6.1924 6.1748 11.259 11.678 11.259 12.23 0 0.5516-5.9588 6.974-13.242 14.272l-13.242 13.269 73.484 73.489 73.484 73.489 13.762-13.735 13.762-13.735 11.743 11.743 11.743 11.743-82.245 82.245-82.245 82.245-11.747-11.747-11.747-11.747 13.744-13.744 13.744-13.744-30.745-30.757-30.745-30.757-116.01 116.01-116.01 116.01-11.983-12.014zm360.5-213.5 30.49-30.502-73.491-73.496-73.491-73.496-30.756 30.744-30.756 30.744 73.249 73.254c40.287 40.29 73.478 73.254 73.758 73.254 0.27978 0 14.229-13.726 30.998-30.502z"/>
	</g>
</svg>
