<svg xmlns:rdf="http://www.w3.org/1999/02/22-rdf-syntax-ns#" xmlns="http://www.w3.org/2000/svg" height="512" width="512" version="1.1" xmlns:cc="http://creativecommons.org/ns#" xmlns:dc="http://purl.org/dc/elements/1.1/" viewBox="0 0 512.00001 512.00001">
	<g transform="translate(0 -540.36)">
		<path d="m480.97 1050.4c0-1.1-0.55057-2-1.2235-2-0.67292 0-29.147-27.9-63.277-62-34.129-34.1-62.622-62-63.316-62-1.9084 0-8.6334 3.6321-10.184 5.5-0.75141 0.9054-2.9713 2.5369-4.9331 3.6255s-6.2669 3.74-9.5669 5.8919c-16.227 10.582-41.207 21.108-60.5 25.494-5.775 1.3129-13.875 3.1749-18 4.1378-6.1386 1.433-12.219 1.7482-33.5 1.7364-27.687-0.0152-25.893 0.19362-55-6.4041-8.6704-1.9653-26.6-8.017-28.7-9.6873-0.71478-0.5683-3.0996-1.6044-5.2996-2.3024-2.2-0.69802-5.2176-2.1231-6.7058-3.1669s-4.1882-2.395-6-3.0028c-1.8118-0.60775-3.9692-1.6607-4.7942-2.3399-0.825-0.67918-4.6196-3.1124-8.4324-5.4071-31.817-19.19-62.105-52.62-78.435-86.62-9.048-18.83-10.132-21.23-10.132-22.44 0-0.68115-1.3323-5.1356-2.9606-9.8987-1.628-4.76-3.6666-12.82-4.5299-17.9-1.8657-11-2.2896-12.26-4.1161-12.26-1.1625 0-1.393-5.4598-1.393-33 0-27.977 0.21807-33 1.4326-33 1.7183 0 2.0157-0.91333 4.07-12.5 0.87763-4.95 2.9236-12.948 4.5466-17.773 1.623-4.8251 2.9509-9.2955 2.9509-9.9343 0-1.2161 1.3935-4.3538 8.6221-19.414 2.4079-5.0165 4.3779-9.358 4.3779-9.6478 0-1.9229 14.592-23.826 22.139-33.231 7.0402-8.7736 28.125-29.155 37.361-36.114 8.6105-6.4882 26.498-17.674 30.999-19.385 1.519-0.57752 3.9405-1.8764 5.3812-2.8863 1.4407-1.01 4.4194-2.4033 6.6194-3.0964 2.2-0.69305 5.35-2.0678 7-3.055 1.65-0.98721 5.905-2.5439 9.4557-3.4594 3.5506-0.91545 7.7209-2.3187 9.2672-3.1184 1.5464-0.79966 7.8663-2.3542 14.044-3.4546 13.928-2.4808 14.733-2.7264 14.733-4.4975 0-1.2145 5.0232-1.4326 33-1.4326s33 0.21807 33 1.4326c0 1.7932 0.92146 2.0777 14.849 4.5846 6.2417 1.1235 12.992 2.8743 15 3.8907 2.0083 1.0164 5.2264 2.168 7.1514 2.5591 5.5332 1.1243 29.331 11.962 39 17.762 31.175 18.698 56.879 44.236 75.258 74.771 2.4828 4.125 5.2159 9.075 6.0736 11 0.85765 1.925 2.2256 4.625 3.0398 6 2.769 4.6758 7.8511 16.484 9.1605 21.284 0.71772 2.6311 2.2093 7.1311 3.3146 10s2.7031 8.8162 3.5507 13.216c0.84761 4.4 2.3095 11.15 3.2486 15 2.5211 10.335 2.5111 57.674-0.0144 68.5-0.96232 4.125-2.6246 11.714-3.6939 16.863-1.0693 5.1499-2.7966 11.29-3.8385 13.646-1.0418 2.3553-2.2167 5.7918-2.6107 7.6366-0.76325 3.5736-3.9431 10.804-11.151 25.354-4.9647 10.022-7.6664 14.465-20.088 33.033-1.7875 2.6721-3.25 5.5392-3.25 6.3714 0 1.595 124.6 127.33 126.75 127.91 1.5999 0.4283 1.7978 19.188 0.20238 19.188-1.365 0-10.952 9.5874-10.952 10.952 0 0.6566-3.5454 1.0476-9.5 1.0476-8.8333 0-9.5-0.1404-9.5-2zm-240-122.99c4.675-0.53342 11.425-1.8749 15-2.9812 3.575-1.1062 8.975-2.6435 12-3.4161 6.0877-1.555 17.125-5.867 21-8.2043 1.375-0.82937 4.3-2.3361 6.5-3.3482 16.04-7.3797 38.176-24.776 51.074-40.14 6.1511-7.3268 8.9869-11.225 17.407-23.926 2.7556-4.1567 9.761-18.088 12.572-25 2.3912-5.8807 4.5719-12.964 8.9284-29 3.67-13.509 3.6044-57.788-0.10509-71-0.84933-3.025-2.6023-9.325-3.8956-14-1.2932-4.675-3.2802-10.391-4.4155-12.702-1.1353-2.3109-2.0641-4.6302-2.0641-5.154 0-1.0547-8.317-17.346-12.093-23.687-17.019-28.582-54.554-59.855-83.339-69.434-3.6007-1.1982-6.7845-2.5633-7.0751-3.0334-0.29057-0.47014-3.108-1.3715-6.2609-2.003-3.1529-0.63153-8.4879-1.9795-11.855-2.9955-10.381-3.1318-25.186-4.3126-46.377-3.6986-13.275 0.38461-21.256 1.0698-25 2.1465-3.025 0.86985-8.425 2.2808-12 3.1355-3.575 0.85468-8.75 2.4722-11.5 3.5944s-7.25 2.728-10 3.5682c-2.75 0.8403-6.125 2.295-7.5 3.2327-1.375 0.93771-3.4 2.0264-4.5 2.4193-3.9022 1.3938-16.132 9.1133-25.448 16.063-16.519 12.323-35.067 32.889-45.138 50.048-6.9257 11.801-14.274 28.458-16.541 37.5-0.75874 3.025-2.2943 8.5075-3.4124 12.183-2.7724 9.1144-3.9455 20.509-3.9448 38.317 0.000729 17.764 1.3105 30.747 3.9344 39 1.0492 3.3 2.4077 8.4691 3.019 11.487 0.61125 3.0178 1.7 6.3928 2.4195 7.5 0.71946 1.1072 1.882 3.813 2.5834 6.013 1.4581 4.5735 7.2603 16.635 11.545 24 12.848 22.082 38.038 47.809 58.413 59.657 12.108 7.0405 35.626 17.843 38.848 17.843 1.1652 0 5.8222 1.17 10.349 2.5999 4.5266 1.43 11.187 2.9458 14.802 3.3686 9.6967 1.1342 42.283 1.1633 52.071 0.0465zm-114.52-140.4c-1.3505-2.0612-1.5254-6.5191-1.273-32.451 0.22414-23.033 0.5968-30.366 1.5937-31.361 1.4649-1.462 35.508-1.9118 40.43-0.53414 3.4391 0.96242 9.4176 6.1565 11.319 9.8343 0.79691 1.541 1.4489 5.4614 1.4489 8.712 0 4.6551-0.53089 6.6924-2.5 9.5941-1.375 2.0262-2.5 4.3351-2.5 5.1309 0 0.79581 1.5751 3.5104 3.5003 6.0325 4.3892 5.7501 5.1176 8.6247 3.6421 14.373-1.2114 4.7193-6.2791 10.343-10.957 12.16-1.2733 0.49449-11.5 0.89908-22.727 0.89908h-20.412l-1.5656-2.3894zm37.996-10.782c2.6181-1.1929 3.9785-4.2255 3.3528-7.4744-0.64962-3.3732-4.6872-4.4644-15.201-4.1082-8.9062 0.30173-10.055 0.56122-11.75 2.655-2.4922 3.0777-2.3701 4.6989 0.57546 7.6445 2.2424 2.2424 3.2324 2.4546 11.453 2.4546 4.9491 0 10.155-0.52715 11.569-1.1714zm-2.093-26.485c3.4986-3.4986 4.1306-6.4478 2.1871-10.206-2.2142-4.2819-4.3429-5.1374-12.783-5.1374-10.138 0-11.788 1.2598-11.788 9 0 7.7938 1.6199 9 12.086 9 6.9373 0 7.8858-0.24469 10.298-2.6566zm31.661 37.74c-2.6861-5.0191-0.11299-9.3544 10.178-17.149 13.43-10.171 19.761-15.983 21.831-20.041 2.8666-5.6189 2.5012-8.5388-1.5789-12.619-3.2655-3.2655-3.8816-3.4906-8.3722-3.0591-2.7209 0.26144-6.1826 1.4165-7.891 2.633-4.9901 3.5532-8.6468 3.807-11.646 0.8081-4.8745-4.8745-3.2304-7.5797 7.7219-12.705 6.1088-2.8587 7.4984-3.1277 14.484-2.8045 6.513 0.30136 8.5131 0.84054 12.727 3.4311 6.0852 3.7407 10.6 10.125 11.252 15.912 0.69624 6.177-4.1798 14.835-13.459 23.898-10.422 10.179-9.9531 11.363 4.6977 11.858 7.1017 0.23991 7.5592 0.39749 8.8215 3.0384 0.91736 1.9193 1.0502 3.6295 0.42704 5.5l-0.90431 2.7146-23.622 0.26799c-22.552 0.25585-23.67 0.17955-24.667-1.6843zm61.527 0.34484c-1.3498-1.3498-1.5877-5.6154-1.6866-30.25-0.0633-15.773-0.0266-29.579 0.0816-30.679 0.43824-4.4545 2.2519-4.9818 18.316-5.326 19.765-0.4234 22.547 0.0427 28.543 4.7829 3.7602 2.9723 5.1472 4.8767 6.1437 8.4361 1.7284 6.1732 0.66168 12.122-3.1273 17.441-3.3771 4.7405-3.4585 4.0863 1.6365 13.151 3.0067 5.3491 3.1175 8.104 0.55327 13.753-1.3191 2.9059-3.4162 5.1841-6.6738 7.25l-4.7503 3.0125h-18.733c-15.696 0-18.988-0.25471-20.304-1.5714zm35.261-12.024c1.7881-1.2524 2.2118-2.3751 1.9725-5.227-0.40544-4.8328-3.1838-6.1445-13.055-6.1632-6.429-0.0122-8.0909 0.32616-9.75 1.9853-2.392 2.392-2.6125 7.2446-0.42857 9.4286 2.2448 2.2448 18.047 2.2273 21.261-0.0236zm-0.16068-25.799c2.2247-1.9136 2.783-3.2389 2.783-6.6061s-0.55833-4.6925-2.783-6.6061c-2.4853-2.1378-3.7361-2.3939-11.692-2.3939-10.409 0-10.979 0.48674-10.979 9.3628 0 7.7626 1.166 8.6372 11.516 8.6372 7.3903 0 8.6994-0.28091 11.156-2.3939z"/>
	</g>
</svg>
