<?xml version="1.0" encoding="UTF-8" standalone="no"?>
<svg id="svg2" xmlns:rdf="http://www.w3.org/1999/02/22-rdf-syntax-ns#" xmlns="http://www.w3.org/2000/svg" height="512" width="512" version="1.1" xmlns:cc="http://creativecommons.org/ns#" xmlns:dc="http://purl.org/dc/elements/1.1/" viewBox="0 0 511.99999 511.99999">
	<g id="layer1" transform="translate(0,-540.3622)">
		<path id="path3451" d="m239.74653 1028.5361c-28.63746-44.02339-45.12856-70.78466-65.99335-107.09203-49.37996-85.92737-75.697556-144.73206-84.279682-188.31658-7.133815-36.22925 1.790717-79.85709 23.205522-113.44093 23.78491-37.30076 60.05809-63.9327 101.32098-74.39035 15.20005-3.8523 24.40796-4.93401 42-4.93401 9.075 0 20.1 0.56843 24.5 1.26316 49.5879 7.82972 91.66405 35.47227 118.82098 78.0612 21.41481 33.58384 30.33934 77.21168 23.20552 113.44093-9.73765 49.45287-45.56312 125.35882-107.34602 227.44153-20.07932 33.17669-57.87028 91.79318-59.18048 91.79318-0.41496 0-7.72902-10.7217-16.25347-23.8261zm31.67035-233.50924c15.27766-2.67274 31.82374-10.76855 43.70782-21.38572 19.9944-17.86291 31.2986-48.20842 27.99803-75.15915-2.50197-20.42971-10.36293-36.54975-25.12273-51.5178-17.78306-18.03397-37.01159-26.1414-62-26.1414s-44.21694 8.10743-62 26.1414c-19.29018 19.56235-28.3249 44.93746-25.16988 70.6927 6.32508 51.63315 52.14969 86.19364 102.58676 77.36997z"/>
	</g>
</svg>
