<svg xmlns:rdf="http://www.w3.org/1999/02/22-rdf-syntax-ns#" xmlns="http://www.w3.org/2000/svg" height="512" width="512" version="1.1" xmlns:cc="http://creativecommons.org/ns#" xmlns:dc="http://purl.org/dc/elements/1.1/" viewBox="0 0 512.00001 512.00001">
	<g transform="translate(0 -540.36)">
		<path d="m249.89 1050.5c-6.7931-3.4633-37.4-30.016-60.742-52.696-52.4-50.87-91.605-104.75-116.92-160.6-8.136-17.95-13.444-32.87-16.207-45.53-13.275-60.84-0.131-121.27 37.096-170.56 7.9608-10.541 28.009-30.619 38.382-38.44 41.938-31.619 93.266-46.375 143.64-41.295 47.954 4.836 91.597 25.503 125.4 59.384 50.512 50.626 70.807 120.45 55.457 190.79-8.2468 37.796-39.438 96.684-75.361 142.28-27.983 35.515-66.653 74.698-106.07 107.47-9.7957 8.1456-14.651 11.028-18.576 11.028-1.4174 0-4.1691-0.8116-6.1149-1.8037zm22.113-45.128c64.696-56.083 113.03-117.75 141.45-180.49 12.698-28.028 17.338-46.855 18.256-74.077 2.3306-69.105-36.347-133.09-98.941-163.68-22.551-11.02-43.84-16.318-70.263-17.484-48.674-2.1485-95.972 16.387-130.87 51.287-33.621 33.621-51.628 77.042-51.628 124.49 0 32.512 7.1964 58.45 26.996 97.299 17.839 35.002 41.68 69.111 71.973 102.97 22.421 25.061 74.863 74.309 77.532 72.809 0.55-0.3091 7.5241-6.2174 15.498-13.13zm-29.5-128.2c-22.181-2.1291-44.902-10.885-62.964-24.264-29.45-21.813-46.776-50.753-52.594-87.846-1.8919-12.061-0.70709-34.859 2.4713-47.553 15.82-63.185 74.185-105.18 137.83-99.18 52.817 4.9808 95.832 39.281 112.3 89.548 23.465 71.631-20.106 149.13-93.531 166.37-8.467 1.9878-26.095 4.1288-32.016 3.8885-1.375-0.0558-6.5497-0.4902-11.499-0.96531zm38.173-31.357c35.825-8.9846 63.412-36.486 73.561-73.334 3.0724-11.155 3.0724-38.196 0-49.351-8.0338-29.168-26.115-51.809-52.032-65.152-49.009-25.233-109.14-6.7254-135.22 41.617-8.3074 15.401-11.985 30.236-11.985 48.341 0 45.597 29.023 84.01 73.5 97.278 15.668 4.6742 35.042 4.8972 52.173 0.60076z"/>
	</g>
</svg>
