<svg xmlns:inkscape="http://www.inkscape.org/namespaces/inkscape" xmlns:rdf="http://www.w3.org/1999/02/22-rdf-syntax-ns#" xmlns="http://www.w3.org/2000/svg" sodipodi:docname="marker-stroke2.svg" height="512" width="512" version="1.1" xmlns:cc="http://creativecommons.org/ns#" xmlns:dc="http://purl.org/dc/elements/1.1/" inkscape:version="0.91 r13725" viewBox="0 0 511.99999 511.99999" xmlns:sodipodi="http://sodipodi.sourceforge.net/DTD/sodipodi-0.dtd">
	<sodipodi:namedview bordercolor="#666666" inkscape:pageshadow="2" inkscape:window-y="-8" pagecolor="#ffffff" inkscape:window-height="1017" inkscape:window-maximized="1" inkscape:zoom="0.49497475" inkscape:window-x="-8" showgrid="false" borderopacity="1.0" inkscape:current-layer="layer1" inkscape:cx="366.70293" inkscape:cy="269.41868" units="px" inkscape:window-width="1920" inkscape:pageopacity="0.0" inkscape:document-units="px"/>
	<g inkscape:label="Layer 1" inkscape:groupmode="layer" transform="translate(0 -540.36)">
		<path inkscape:connector-curvature="0" d="m252 1052.1c-3.1953-0.8304-6.7029-2.9797-9.1809-5.6257-4.7882-5.1127-154.13-180.8-158.03-185.9-16.049-21.022-25.998-43.664-31.942-72.688-4.545-22.196-5.066-49.091-1.4017-72.355 10.961-69.586 58.364-131.17 121.84-158.29 22.987-9.8217 45.879-15.11 71.687-16.559 41.199-2.3141 82.881 7.8688 117.31 28.658 52.815 31.892 89.144 86.307 98.491 147.52 1.738 11.382 2.1997 17.94 2.1884 31.083-0.021 24.658-3.295 44.232-11.264 67.341-6.0807 17.634-14.49 32.88-26.3 47.682-5.7808 7.2452-152.01 179.11-155.93 183.26-3.7171 3.9402-7.4274 5.7923-12.176 6.0776-2.0175 0.1212-4.4006 0.03-5.2959-0.2026zm72.697-125.62c37.49-44.038 69.896-82.224 72.015-84.857 15.681-19.496 24.346-40.26 28.97-69.429 1.9196-12.109 2.0793-33.83 0.3404-46.286-6.4916-46.495-30.366-87.747-66.787-115.4-39.103-29.691-88.406-40.688-138.33-30.853-33.36 6.5722-66.076 24.939-89.467 50.225-30.129 32.57-46.67 74.25-46.72 117.72-0.0223 19.426 3.2894 38.842 9.6846 56.778 4.3364 12.162 10.581 23.68 18.564 34.239 4.2873 5.6712 142.75 168.19 143.17 168.05 0.21377-0.068 31.062-36.154 68.552-80.192zm-78.783-79.876c-41.094-4.2116-76.163-34.11-86.653-73.878-2.3417-8.8773-3.2597-16.188-3.2486-25.871 0.0264-22.914 6.8057-42.964 20.664-61.114 6.056-7.9313 17.295-18.147 26.272-23.879 16.237-10.368 37.089-15.878 57.031-15.07 33.489 1.3566 63.506 18.936 81.522 47.744 15.239 24.366 18.886 55.762 9.72 83.674-14.578 44.396-58.859 73.156-105.31 68.395zm17.673-35.833c8.6476-0.7196 19.577-4.7038 27.851-10.153 14.876-9.7965 25.091-25.496 28.201-43.341 1.674-9.6062 0.42892-23.225-2.9407-32.166-4.6528-12.347-12.692-23.007-23.019-30.524-22.45-16.343-53.555-16.141-76 0.4937-4.6729 3.4631-11.896 11.048-15.041 15.794-15.028 22.676-14.648 51.368 0.96938 73.291 10.967 15.394 28.241 25.298 46.829 26.848 4.6789 0.3901 5.8137 0.3692 13.151-0.2414z"/>
	</g>
</svg>
