<svg xmlns:rdf="http://www.w3.org/1999/02/22-rdf-syntax-ns#" xmlns="http://www.w3.org/2000/svg" height="512" width="512" version="1.1" xmlns:cc="http://creativecommons.org/ns#" xmlns:dc="http://purl.org/dc/elements/1.1/" viewBox="0 0 512.00001 512.00001">
	<g transform="translate(0 -540.36)">
		<path d="m168.3 1050.2c-4.1927-1.129-6.9374-2.718-10.021-5.8014-3.1626-3.1626-5.1465-6.7357-6.0165-10.836-0.4255-2.0053-0.59855-22.668-0.59855-71.466v-68.645l-21.959-0.0005c-23.942-0.0004-30.141-0.3733-40.546-2.4387-32.954-6.5418-61.599-28.228-76.938-58.247-5.4283-10.623-8.4589-19.557-10.745-31.674-1.414-7.4959-1.9377-23.782-1.0198-31.716 3.0116-26.032 13.757-48.303 32.22-66.782 16.828-16.842 35.651-26.629 60.43-31.419 3.8248-0.7394 10.99-0.9408 46.313-1.3015 38.342-0.3916 42.366-0.5175 48.794-1.5261 61.633-9.6709 157.65-50.221 272.15-114.93 8.0223-4.5339 15.808-8.8019 17.301-9.4845 9.6443-4.4084 23.163-1.6605 29.898 6.0775 0.67857 0.77958 1.9067 2.7349 2.7292 4.3452l1.4955 2.9278 0.13553 224.1c0.14974 247.44 0.42965 227.16-3.2011 231.89-4.0802 5.3234-9.8249 7.6917-18.494 7.6241-7.2483-0.056-9.5623-0.8743-20.952-7.4056-100.34-57.539-189.56-97.509-252.93-113.32-6.3547-1.5854-19.959-4.5957-20.77-4.5957-0.14172 0-0.25769 30.612-0.25769 68.027 0 74.094 0.1099 71.27-2.9794 76.542-1.5947 2.7212-5.9363 6.785-8.821 8.2567-2.7137 1.3843-7.6456 2.6239-10.27 2.5811-1.1828-0.019-3.4081-0.3736-4.945-0.7874zm298.51-269.07c0-112.09-0.191-182.59-0.49465-182.59-0.27202 0-5.2427 2.6097-11.046 5.7993-99.308 54.582-185.5 90.487-247.44 103.07l-11.179 2.2718-0.13499 71.818-0.13499 71.818 5.7658 0.9193c32.542 5.1886 83.034 21.75 132.91 43.594 36.561 16.012 80.527 37.874 118.52 58.935 6.8383 3.7906 12.613 6.9055 12.833 6.922 0.21958 0.017 0.39925-82.136 0.39925-182.56zm-316.21 0.2661v-69.47l-19.563 0.018c-10.76 0.01-21.999 0.2376-24.975 0.506-41.336 3.7285-70.271 41.649-62.663 82.122 3.8096 20.266 17.794 38.936 36.339 48.514 5.8937 3.044 12.17 5.2819 17.913 6.3873 2.3324 0.4489 4.7197 0.918 5.3053 1.0424 0.58556 0.1244 11.545 0.254 24.354 0.288l23.29 0.062v-69.47z"/>
	</g>
</svg>
