<svg xmlns:inkscape="http://www.inkscape.org/namespaces/inkscape" xmlns:rdf="http://www.w3.org/1999/02/22-rdf-syntax-ns#" xmlns="http://www.w3.org/2000/svg" sodipodi:docname="megaphone2.svg" height="512" width="512" version="1.1" xmlns:cc="http://creativecommons.org/ns#" xmlns:dc="http://purl.org/dc/elements/1.1/" inkscape:version="0.91 r13725" viewBox="0 0 512.00001 512.00001" xmlns:sodipodi="http://sodipodi.sourceforge.net/DTD/sodipodi-0.dtd">
	<sodipodi:namedview bordercolor="#666666" inkscape:pageshadow="2" inkscape:window-y="-8" pagecolor="#ffffff" inkscape:window-height="1017" inkscape:window-maximized="1" inkscape:zoom="0.35" inkscape:window-x="-8" showgrid="false" borderopacity="1.0" inkscape:current-layer="layer1" inkscape:cx="-126.42857" inkscape:cy="748.57143" units="px" inkscape:window-width="1920" inkscape:pageopacity="0.0" inkscape:document-units="px"/>
	<g inkscape:label="Layer 1" inkscape:groupmode="layer" transform="translate(0 -540.36)">
		<path inkscape:connector-curvature="0" d="m87.741 994.32c-1.6698-1.7774-5.6368-17.206-18.72-72.809-9.1308-38.804-16.928-70.848-17.328-71.209-0.39965-0.36066-2.5287-1.2226-4.7313-1.9154-11.378-3.57-23.804-12.05-31.312-21.35-10.98-13.6-15.518-25.99-15.645-42.7-0.0977-12.824 1.2596-18.729 7.1176-30.968 3.7597-7.8553 5.9016-10.825 12.736-17.659 6.7987-6.7987 9.8449-9.0018 17.659-12.772 14.518-7.0044 19.464-7.6724 57.207-7.7266l32.33-0.0465 98.114-39.295 98.114-39.295 1.1471-8.0356c0.63088-4.4196 2.1412-10.347 3.3563-13.171 3.0094-6.9954 10.905-14.307 18.549-17.177 16.106-6.0475 35.721 1.8773 42.667 17.238l2.3603 5.2198 0.50058 57.066 0.50058 57.066 23.934 8.1125c14.775 5.0079 24.444 8.81 25.267 9.9352 2.2444 3.0694 2.4998 7.0457 2.1736 33.851l-0.31473 25.868-2.6863 2.3091c-1.6164 1.3894-11.884 5.3749-25.78 10.007l-23.094 7.6976v55.444c0 53.342-0.0774 55.65-2.0409 60.898-3.6017 9.6265-11.768 17.494-21.486 20.699-10.915 3.6004-24.936 0.2212-33.318-8.0303-6.5244-6.4223-9.2721-12.321-10.516-22.575l-1.0107-8.3348-91.57-36.676c-50.363-20.172-91.709-36.536-91.88-36.366-0.17059 0.17058 4.4034 19.231 10.164 42.356l10.475 42.046 5.4779 5.3335c5.9891 5.8312 7.8506 8.8332 8.8264 14.234 1.4699 8.1352-4.8124 18.969-12.584 21.701-4.5218 1.5896-65.709 13.295-69.497 13.295-1.8616 0-3.8646-0.87528-5.161-2.2553zm40.013-20.791c14.482-2.7639 27.345-5.4574 28.584-5.9855 3.6466-1.5544 2.6484-4.1728-4.1651-10.926l-6.4177-6.3606-12.227-48.925-12.227-48.925h-25.407c-17.774 0-25.407 0.33008-25.407 1.0987 0 1.0056 24.099 104.29 27.716 118.79 0.85867 3.4415 1.9339 6.2572 2.3895 6.2572 0.45555 0 12.678-2.2614 27.16-5.0253zm237.66-20.901c4.8391-2.1978 8.077-6.0076 9.3461-10.997 0.54581-2.1456 0.85345-67.53 0.75427-160.31-0.16358-153.02-0.21284-156.76-2.1053-159.88-2.4672-4.0779-6.2064-6.8378-11.091-8.1866-8.2737-2.2845-18.149 3.3264-20.452 11.621-0.70889 2.5527-1.0497 54.063-1.0534 159.24-0.005 138.06 0.16783 155.88 1.5439 159.17 4.1502 9.9327 13.459 13.706 23.058 9.346zm-41.627-169.29v-129.14l-3.7544 1.4964c-2.0649 0.82303-44.076 17.625-93.358 37.337l-89.604 35.841-0.25874 54.562-0.25875 54.562 92.866 37.195c51.076 20.457 93.204 37.216 93.617 37.243 0.41298 0.0261 0.75087-58.066 0.75087-129.09zm-205.24-0.008v-51.059h-28.823c-31.862 0-35.839 0.53143-46.501 6.2144-11.98 6.3852-22.104 19.565-25.235 32.852-2.9026 12.315-1.6595 23.226 3.9495 34.663 6.2861 12.818 16.166 21.56 29.51 26.11 6.176 2.1058 8.1752 2.2282 36.816 2.2526l30.285 0.0258v-51.059zm-68.079-17.02v-17.02h8.5099 8.5099v17.02 17.02h-8.5099-8.5099v-17.02zm34.039 0v-17.02h8.5099 8.5099v17.02 17.02h-8.5099-8.5099v-17.02zm326.65 42.106 15.789-5.2432-0.27116-19.683-0.27115-19.683-15.518-5.2043c-8.5349-2.8624-16.081-5.2276-16.769-5.2561-0.97503-0.0403-1.2514 6.7165-1.2514 30.591 0 24.092 0.26752 30.544 1.2514 30.182 0.6883-0.25321 8.3566-2.8198 17.041-5.7035zm67.307 72.442c-10.462-6.335-19.643-11.886-20.401-12.335-1.0902-0.6461-0.48713-2.3181 2.8812-7.9878l4.26-7.1707 3.6264 2.1315c1.9945 1.1723 11.563 6.889 21.263 12.704l17.637 10.572-4.1162 6.8423c-2.2639 3.7633-4.5691 6.8243-5.1226 6.8024s-9.5663-5.2231-20.028-11.558zm-17.52-97.028v-8.5099h25.53 25.53v8.5099 8.5099h-25.53-25.53v-8.5099zm2.6363-72.834c-6.073-9.6717-6.7468-11.057-5.8257-11.978 1.9701-1.9701 40.611-24.698 41.284-24.283 0.87309 0.53961 7.9589 12.389 7.9589 13.31 0 0.67116-40.334 25.204-41.438 25.204-0.3106 0-1.2012-1.0137-1.9792-2.2526z"/>
	</g>
</svg>
