<svg xmlns:rdf="http://www.w3.org/1999/02/22-rdf-syntax-ns#" xmlns="http://www.w3.org/2000/svg" height="512" width="512" version="1.1" xmlns:cc="http://creativecommons.org/ns#" xmlns:dc="http://purl.org/dc/elements/1.1/" viewBox="0 0 512.00001 512.00001">
	<g transform="translate(0 -540.36)">
		<path d="m52.433 973.61c-8.6105-1.5773-17.572-3.7833-19.914-4.9023-5.4494-2.6034-9.531-8.6494-10.124-14.996-0.29931-3.2047 2.2373-19.872 7.7203-50.729 4.4914-25.276 8.3891-46.917 8.6616-48.092 0.47089-2.0298 0.03261-2.1608-8.8322-2.6397-5.1302-0.27718-11.005-1.2131-13.054-2.0799-5.5953-2.3661-12.435-9.2161-14.882-14.905-2.1354-4.9639-2.167-5.8499-1.882-52.751l0.28993-47.702 2.7578-4.6912c3.2717-5.5655 7.6848-9.4949 13.908-12.384 4.1607-1.9314 6.8944-2.1528 32.321-2.6178l27.776-0.50796 126.25-45.794c69.44-25.187 129.72-47.344 133.96-49.239 13.15-5.881 22.82-4.3113 33.318 5.4088 7.2149 6.6797 12.477 15.243 18.09 29.44 14 35.407 21.029 90.637 19.004 149.33-1.1144 32.309-4.592 58.947-11.028 84.477-9.632 38.205-23.733 59.785-41.372 63.314-5.3388 1.0679-6.0331 0.94852-15.15-2.6052-13.711-5.3442-225.87-82.174-227.9-82.53-1.4713-0.25802-2.7949 5.8966-10.037 46.669-4.5882 25.832-8.8259 48.609-9.417 50.617-2.4413 8.2929-9.5448 13.042-19.256 12.874-3.0553-0.0528-12.6-1.3866-21.211-2.9639zm21.679-19.369c1.731-7.7551 16.688-94.227 16.432-94.996-0.17285-0.51856-3.9071-2.2527-8.2984-3.8537-5.9751-2.1784-9.7774-2.9109-15.111-2.9109h-7.1267l-8.4192 47.724c-4.6306 26.248-8.4939 48.395-8.5851 49.215-0.12769 1.1477 3.2097 2.1123 14.48 4.1851 8.055 1.4815 14.978 2.742 15.384 2.8011 0.40605 0.0592 0.96654-0.91512 1.2455-2.165zm283.31-26.85c12.424-13.06 22.942-48.409 27.999-94.1 2.4276-21.933 2.4336-77.092 0.0109-98.646-4.137-36.806-11.164-65.316-20.507-83.207-3.8633-7.3972-9.5683-13.824-13.047-14.697-8.1364-2.0421-19.492 18.302-27.116 48.58-3.2962 13.091-6.4903 30.963-7.2806 40.738l-0.62602 7.7432 4.749 1.9087c6.4803 2.6046 14.452 10.771 18.954 19.416 12.091 23.219 8.4077 52.465-8.7732 69.658-3.7935 3.7961-7.896 6.8096-10.746 7.8933l-4.61 1.7529 1.3644 10.792c5.3137 42.031 18.682 79.676 30.055 84.631 4.5892 1.9996 5.5663 1.748 9.5734-2.4643zm-46.425-17.696c-9.885-25.671-16.691-69.27-17.84-114.28-1.2454-48.789 4.4878-96.524 15.665-130.43l4.7068-14.278-10.605 3.8267c-5.8329 2.1047-55.375 20.056-110.09 39.891-54.718 19.835-100.74 36.514-102.27 37.064l-2.7776 0.99972v51.413c0 28.277 0.11363 51.413 0.25251 51.413 0.13888 0.00017 4.5704 1.575 9.8478 3.4996 83.077 30.297 214.79 78.149 215.3 78.22 0.36803 0.0511-0.61797-3.2497-2.1911-7.3351zm-244.43-125.89v-47.471h-21.137-21.137l-2.0934 2.6613c-2.0424 2.5965-2.0934 3.6949-2.0934 45.134 0 42.217 0.01319 42.487 2.1961 44.81 2.1592 2.2984 2.5494 2.3377 23.231 2.3377h21.035v-47.471zm257.04 17.014c6.1528-13.71 3.9662-31.363-5.2434-42.33l-2.8259-3.3649-0.66903 4.9976c-0.8767 6.5487-1.0092 39.854-0.18577 46.71l0.64268 5.3513 2.7904-2.6734c1.5347-1.4704 4.0056-5.3813 5.4909-8.6909zm131.31 105.69c-25.748-19.256-27.776-21.196-27.776-26.573 0-6.0486 6.2566-11.205 11.882-9.793 1.3013 0.3266 12.977 8.5545 25.945 18.284 25.162 18.879 26.925 20.767 25.151 26.953-1.0798 3.7651-6.4871 7.828-10.354 7.7794-1.794-0.0225-9.6812-5.3076-24.849-16.651zm-12.87-114.7c-0.97216-0.56623-2.4896-2.4257-3.372-4.1321-2.2063-4.2664-1.1331-9.1441 2.7263-12.392l3.0732-2.586h29.769c32.307 0 34.151 0.27892 36.542 5.5269 2.0695 4.5421 1.4808 8.4947-1.7457 11.721l-2.9524 2.9524-31.136-0.0307c-19.263-0.019-31.81-0.42329-32.904-1.0602zm-11.94-98.82c-3.3531-3.3531-4.0309-9.1988-1.4876-12.83 0.80565-1.1502 11.872-9.8871 24.591-19.415 20.952-15.695 23.507-17.324 27.174-17.324 4.6686 0 8.8922 3.2104 9.9928 7.5957 1.4323 5.7066-1.3657 8.6179-26.159 27.219-20.76 15.576-24.055 17.707-27.38 17.707-2.8303 0-4.5205-0.74129-6.7316-2.9524z"/>
	</g>
</svg>
