<svg xmlns:rdf="http://www.w3.org/1999/02/22-rdf-syntax-ns#" xmlns="http://www.w3.org/2000/svg" height="512" width="512" version="1.1" xmlns:cc="http://creativecommons.org/ns#" xmlns:dc="http://purl.org/dc/elements/1.1/" viewBox="0 0 512.00001 512.00001">
	<g transform="translate(0 -540.36)">
		<path d="m237.48 1052.2c-1.6528-0.2306-7.2871-0.908-12.521-1.5054-43.85-5.0055-85.315-21.686-122.7-49.36-14.497-10.72-40.048-36-50.27-49.72-27.345-36.7-42.929-74.15-50.018-120.2-2.4821-16.12-2.4972-52.89-0.0288-69.61 7.3816-50.01 26.082-92.15 57.784-130.22 15.486-18.598 42.036-41.441 62.738-53.977 31.34-18.979 60.591-29.374 99.493-35.357 16.062-2.4704 52.051-2.4704 68.113 0 57.827 8.8938 103.71 31.194 143.63 69.802 43.403 41.982 68.432 91.868 76.891 153.26 1.9536 14.177 1.666 50.725-0.51635 65.609-6.6714 45.502-22.556 83.822-50.034 120.7-10.222 13.719-35.774 38.992-50.269 49.722-45.221 33.47-93.456 49.929-149.25 50.926-11.018 0.1968-21.386 0.1694-23.038-0.061zm34.608-44.546c105.13-8.3 187.5-91.19 195.33-196.62 7.83-105.47-65.51-201.66-169.68-222.57-73.52-14.76-149.81 10.67-199.75 66.58-31.035 34.75-49.899 79.29-53.341 125.96-7.825 106.1 65.061 201.96 169.64 223.15 19.926 4.0296 37.307 5.0726 57.804 3.4689zm-128.17-106.36c-8.1491-2.3418-15.112-11.746-15.086-20.374 0.0221-7.2509 4.749-14.791 11.561-18.442 3.8912-2.0856 4.2407-2.0919 115.62-2.0919s111.73 0.006 115.62 2.0919c4.6819 2.5093 7.0538 5.0796 9.6241 10.429 5.2362 10.898-1.5553 25.094-13.606 28.439-5.1792 1.4379-218.72 1.3886-223.73-0.0516zm-3.5516-86.256c-8.1811-4.6338-12.591-13.733-11.057-22.814 0.86027-5.0919 5.8859-11.775 11.057-14.704l3.9601-2.243h111.69 111.69l3.9601 2.243c8.1811 4.6338 12.591 13.733 11.057 22.814-0.86028 5.0919-5.8859 11.775-11.057 14.704l-3.9601 2.243h-111.69-111.69l-3.9601-2.243zm0.0274-84.958c-4.6819-2.5093-7.0538-5.0796-9.6241-10.429-5.2362-10.898 1.5553-25.094 13.606-28.439 5.5648-1.545 217.71-1.545 223.27 0 8.6104 2.3905 15.57 11.537 15.543 20.426-0.0221 7.2509-4.749 14.791-11.561 18.442-3.8912 2.0856-4.2407 2.0919-115.62 2.0919s-111.73-0.006-115.62-2.0919z"/>
	</g>
</svg>
