<svg xmlns:rdf="http://www.w3.org/1999/02/22-rdf-syntax-ns#" xmlns="http://www.w3.org/2000/svg" height="512" width="512" version="1.1" xmlns:cc="http://creativecommons.org/ns#" xmlns:dc="http://purl.org/dc/elements/1.1/" viewBox="0 0 512.00001 512.00001">
	<g transform="translate(0 -540.36)">
		<path d="m206 1051.3c-8.7176-2.7249-14.579-7.8462-18.408-16.083-2.0328-4.3729-2.0918-5.8838-2.0918-53.5v-49l2.3894-5.2877c2.8829-6.38 9.4701-12.465 15.844-14.637 6.9136-2.3557 97.619-2.3557 104.53 0 6.3741 2.1719 12.961 8.2573 15.844 14.637l2.3894 5.2877v49c0 47.616-0.0591 49.127-2.0918 53.5-3.0092 6.4735-6.9381 10.713-12.788 13.799l-5.1197 2.7009-49 0.1822c-26.95 0.1003-50.125-0.1693-51.5-0.5991zm0.97351-185.44c-10.639-2.2922-18.937-11.052-20.911-22.075-0.64-3.52-1.06-22.52-1.06-47.52 0-25.002 0.42449-44.003 1.0626-47.566 2.0585-11.495 10.876-20.312 22.371-22.371 7.9255-1.4194 87.207-1.4194 95.133 0 3.5911 0.64311 7.749 2.2823 10.532 4.1518 6.1648 4.1418 10.518 10.84 11.839 18.219 0.63815 3.5634 1.0626 22.564 1.0626 47.566s-0.42449 44.003-1.0626 47.566c-2.0585 11.495-10.876 20.312-22.371 22.371-8.4556 1.5143-89.341 1.2667-96.593-0.29565zm-3.6493-186.28c-6.0123-2.1304-12.639-8.3881-15.435-14.575l-2.3894-5.2877v-49c0-47.616 0.0591-49.127 2.0918-53.5 3.0092-6.4735 6.9381-10.713 12.788-13.799l5.1197-2.7008h50.5 50.5l5.1197 2.7008c5.8503 3.0862 9.7792 7.3257 12.788 13.799 2.0328 4.3729 2.0918 5.8837 2.0918 53.5v49l-2.3894 5.2877c-2.8829 6.38-9.4701 12.465-15.844 14.637-6.6657 2.2712-98.51 2.2166-104.94-0.0624z"/>
	</g>
</svg>
