<svg xmlns:inkscape="http://www.inkscape.org/namespaces/inkscape" xmlns:rdf="http://www.w3.org/1999/02/22-rdf-syntax-ns#" xmlns="http://www.w3.org/2000/svg" sodipodi:docname="menu-circles-stroke.svg" height="512" width="512" version="1.1" xmlns:cc="http://creativecommons.org/ns#" xmlns:dc="http://purl.org/dc/elements/1.1/" inkscape:version="0.91 r13725" viewBox="0 0 512.00001 512.00001" xmlns:sodipodi="http://sodipodi.sourceforge.net/DTD/sodipodi-0.dtd">
	<sodipodi:namedview bordercolor="#666666" inkscape:pageshadow="2" inkscape:window-y="-8" pagecolor="#ffffff" inkscape:window-height="1017" inkscape:window-maximized="1" inkscape:zoom="0.35" inkscape:window-x="-8" showgrid="false" borderopacity="1.0" inkscape:current-layer="layer1" inkscape:cx="-126.42857" inkscape:cy="520" units="px" inkscape:window-width="1920" inkscape:pageopacity="0.0" inkscape:document-units="px"/>
	<g inkscape:label="Layer 1" inkscape:groupmode="layer" transform="translate(0 -540.36)">
		<path inkscape:connector-curvature="0" d="m52.906 859.5c-17.482-3.3095-32.716-13.236-42.104-27.436-5.1718-7.822-7.9359-14.405-9.8258-23.399-1.3009-6.1912-1.3009-18.292 0-24.483 5.6035-26.67 25.842-46.22 52.698-50.9 7.0924-1.2364 18.531-0.76117 25.521 1.0602 26.716 6.9616 45.695 29.136 48.239 56.36 2.9135 31.189-17.393 59.735-48.239 67.809-6.5863 1.7242-19.783 2.2207-26.288 0.9892zm19.624-21.34c15.835-3.2544 28.4-15.338 32.607-31.358 1.5483-5.8958 1.5483-14.862 0-20.758-4.3543-16.581-17.58-28.786-34.36-31.708-5.4409-0.94749-14.409-0.33694-19.692 1.3407-12.344 3.9194-22.955 13.876-27.174 25.5-5.4324 14.966-3.0016 29.807 6.9485 42.422 3.9782 5.0438 11.992 10.729 18.367 13.03 6.731 2.4292 15.977 3.0366 23.303 1.5309zm172.52 21.307c-23.26-4.2121-42.453-20.773-49.646-42.838-2.4708-7.579-3.2065-12.316-3.1799-20.472 0.0254-7.8208 0.58726-11.527 2.9041-19.161 5.7524-18.953 21.319-34.712 40.702-41.206 33.939-11.371 71.028 7.835 81.327 42.113 2.0602 6.8567 2.6084 10.749 2.6084 18.52 0 7.7709-0.54821 11.663-2.6084 18.52-6.9495 23.13-26.517 40.352-50.622 44.556-5.5656 0.9705-16.035 0.9548-21.486-0.033zm23.623-22.268c7.9466-2.6739 12.75-5.7778 18.656-12.056 3.2382-3.4422 4.6787-5.5289 6.7392-9.7626 3.4396-7.0671 4.421-11.275 4.421-18.957 0-7.749-0.99099-11.954-4.4816-19.017-5.7634-11.662-16.684-20.12-29.333-22.72-25.402-5.2205-49.355 13.13-51.316 39.313-1.4222 18.986 11.844 37.885 30.403 43.309 5.4685 1.5984 5.7458 1.628 13.572 1.4507 6.0695-0.1376 7.8305-0.38 11.34-1.5608zm168.34 22.239c-14.883-2.6877-29.313-11.234-38.446-22.771-29.256-36.956-11.36-90.443 34.236-102.32 6.9896-1.8213 18.428-2.2965 25.521-1.0602 26.842 4.679 47.046 24.202 52.696 50.918 1.3053 6.1728 1.3053 18.274 0 24.447-5.6206 26.58-25.85 46.231-52.347 50.852-5.627 0.9812-16.049 0.9517-21.659-0.061zm23.899-22.228c29.196-9.5593 39.536-45.328 19.757-68.349-5.4982-6.3992-13.631-11.613-21.354-13.69-5.097-1.3704-14.141-1.6322-19.422-0.56218-18.275 3.7029-31.841 18.466-34.109 37.119-2.4721 20.332 11.306 40.605 31.176 45.872 4.8692 1.2907 5.3548 1.3349 12.774 1.1634 5.7391-0.1327 7.6454-0.3978 11.177-1.5542z"/>
	</g>
</svg>
