<svg xmlns:rdf="http://www.w3.org/1999/02/22-rdf-syntax-ns#" xmlns="http://www.w3.org/2000/svg" height="512" width="512" version="1.1" xmlns:cc="http://creativecommons.org/ns#" xmlns:dc="http://purl.org/dc/elements/1.1/" viewBox="0 0 512.00001 512.00001">
	<g transform="translate(0 -540.36)">
		<path d="m54.526 857.73c-20.601-2.94-38.62-15.67-47.397-33.47-9.3394-18.946-9.3394-36.966 0-55.911 7.3923-14.996 21.554-26.657 38.393-31.614 9.0868-2.675 24.034-2.4978 33.516 0.39737 29.3 8.946 47.114 36.084 43.827 66.764-2.5072 23.401-20.107 44.355-43.117 51.336-6.7616 2.0516-19.501 3.3122-25.222 2.4958zm191.84-0.44067c-27.464-4.9048-47.234-25.47-51.398-53.466-4.0725-27.381 13.678-56.151 40.45-65.561 22.753-7.997 47.14-2.458 64.174 14.576 30.441 30.441 21.169 81.817-17.956 99.494-10.864 4.9088-24.673 6.8496-35.27 4.9571zm194.61 0.0749c-27.613-5.0079-48.749-26.911-51.594-53.466-3.2871-30.68 14.528-57.818 43.827-66.764 9.4821-2.8951 24.429-3.0724 33.516-0.39737 16.839 4.9571 31.001 16.618 38.393 31.614 9.3394 18.946 9.3394 36.966 0 55.911-7.3177 14.844-21.757 26.815-37.895 31.416-6.9141 1.9714-20.029 2.8141-26.247 1.6865z"/>
	</g>
</svg>
