<svg xmlns:rdf="http://www.w3.org/1999/02/22-rdf-syntax-ns#" xmlns="http://www.w3.org/2000/svg" height="512" width="512" version="1.1" xmlns:cc="http://creativecommons.org/ns#" xmlns:dc="http://purl.org/dc/elements/1.1/" viewBox="0 0 512.00001 512.00001">
	<g transform="translate(0 -540.36)">
		<path d="m124.33 1050.3c-5.81-2.2428-12.175-8.0572-14.966-13.671-1.7983-3.6177-1.8606-11.657-1.8606-240.24 0-228.59 0.0623-236.63 1.8606-240.24 2.8731-5.7798 9.1622-11.435 15.25-13.713 5.3976-2.0195 7.0009-2.0445 131.25-2.0445 140.12 0 132.39-0.37463 140.36 6.8064 2.2535 2.0315 5.1473 5.9436 6.4306 8.6936l2.3333 5v235 235l-2.3381 5.021c-2.9027 6.2334-7.742 11.165-13.631 13.891-4.4925 2.0795-5.0398 2.089-132.01 2.2939-125.3 0.2022-127.59 0.1714-132.67-1.7915zm257.47-22.1c0.87473-0.8747 1.2-8.6008 1.2-28.504v-27.304l-126.75 0.25383-126.75 0.25383v27.287c0 23.168 0.22646 27.43 1.5 28.235 2.3918 1.5107 249.29 1.2922 250.8-0.222zm-129.54-14.53c-3.3842-0.614-8.0977-5.8958-8.8526-9.9199-1.2986-6.9222 4.9585-14.342 12.094-14.342 4.2059 0 8.8618 3.1278 10.83 7.2756 2.154 4.5392 2.1002 6.4991-0.28604 10.413-3.0609 5.02-8.3773 7.5554-13.786 6.5741zm130.49-224.52 0.25306-159.75h-126-126v159.33c0 87.633 0.30174 159.64 0.67053 160 0.36879 0.36879 56.956 0.55629 125.75 0.41667l125.08-0.32 0.25306-159.75zm0.0195-202.14c0.22629-15.683 0.0101-19.292-1.273-21.25l-1.5456-2.3589h-123.78c-94.938 0-124.06 0.27959-124.98 1.2-0.85453 0.85453-1.2 7.0453-1.2 21.504v20.304l126.25-0.25385 126.25-0.25384 0.27258-18.891z"/>
	</g>
</svg>
