<svg xmlns:rdf="http://www.w3.org/1999/02/22-rdf-syntax-ns#" xmlns="http://www.w3.org/2000/svg" height="512" width="512" version="1.1" xmlns:cc="http://creativecommons.org/ns#" xmlns:dc="http://purl.org/dc/elements/1.1/" viewBox="0 0 512.00001 512.00001">
	<g transform="translate(0 -540.36)">
		<path d="m167.16 1033c-6.5059-5.1278-6.4539-14.794 0.1064-19.798l3.4552-2.6354h36.256 36.256v-27.691-27.691l-107.49-0.29432-107.49-0.29432-6.8001-3.2569c-8.633-4.13-14.075-9.57-18.203-18.19l-3.257-6.8v-170.53-170.53l2.4049-5.94c3.1961-7.9088 10.609-15.658 18.519-19.359l6.2771-2.937h228.59 228.59l6.277 2.937c7.9097 3.7009 15.323 11.45 18.519 19.359l2.4049 5.9509 0.28325 167.8c0.31477 186.48 0.72037 175.2-6.6949 186.04-3.7296 5.4482-11.206 11.204-18.174 13.991-3.038 1.2153-21.973 1.5155-111.17 1.7624l-107.51 0.2976 0.27885 27.429 0.27884 27.429 36.965 0.5231 36.965 0.5231 3.0296 3.392c5.5103 6.1694 5.3364 11.816-0.54512 17.698l-3.4953 3.4953-85.629-0.012-85.629-0.012-3.364-2.6514zm315.57-107.25 3.219-3.219v-166.77-166.77l-3.0527-3.4166-3.0527-3.4166h-224.05-224.05l-3.0527 3.4166-3.0527 3.4166v166.77 166.77l3.219 3.219 3.219 3.219h223.72 223.72l3.219-3.219z"/>
	</g>
</svg>
