<?xml version="1.0" encoding="UTF-8" standalone="no"?>
<svg id="svg2" xmlns:rdf="http://www.w3.org/1999/02/22-rdf-syntax-ns#" xmlns="http://www.w3.org/2000/svg" height="512" width="512" version="1.1" xmlns:cc="http://creativecommons.org/ns#" xmlns:dc="http://purl.org/dc/elements/1.1/" viewBox="0 0 512.00001 512.00001">
	<g id="layer1" transform="translate(0,-540.36216)">
		<path id="path3360" d="m266 1010.3348v-27.34987h123 123v27.34987 27.3499h-123-123v-27.3499zm-266-66.49776v-92.77511h86.5 86.5v92.77511 92.77516h-86.5-86.5v-92.77516zm266-71.86049v-27.34989h123 123v27.34989 27.34989h-123-123v-27.34989zm0-151.2288v-27.34989h123 123v27.34989 27.34989h-123-123v-27.34989zm-266-66.49777v-92.77512h86.5 86.5v92.77512 92.77511h-86.5-86.5v-92.77511zm266-71.8605v-27.34988h123 123v27.34988 27.34989h-123-123v-27.34989z"/>
	</g>
</svg>
