<?xml version="1.0" encoding="UTF-8" standalone="no"?>
<svg id="svg2" xmlns:rdf="http://www.w3.org/1999/02/22-rdf-syntax-ns#" xmlns="http://www.w3.org/2000/svg" height="512" width="512" version="1.1" xmlns:cc="http://creativecommons.org/ns#" xmlns:dc="http://purl.org/dc/elements/1.1/" viewBox="0 0 512.00001 512.00001">
	<g id="layer1" transform="translate(0,-540.36216)">
		<path id="path3347" d="m247.45038 1046.9556c-1.67729-0.7306-8.20229-5.9903-14.5-11.6882-6.29771-5.698-19.10038-17.3048-28.45038-25.793-10.08314-9.1538-18.80394-16.23368-21.43366-17.4007-4.30085-1.90865-5.37926-1.93145-36-0.76094-47.945895 1.83278-48.891736 1.82139-53.56634-0.64526-5.007812-2.64248-7.963088-5.77606-9.964202-10.5654-0.857812-2.05303-3.808134-20.27189-6.556273-40.48635-2.912722-21.4251-5.686049-38.32656-6.649693-40.52519-2.209745-5.04169-5.4441-7.87305-35.962935-31.48193-14.373207-11.11888-27.5111591-21.78566-29.195449-23.70396-4.7796725-5.44375-6.3060798-12.9166-4.0123393-19.64327 0.6375097-1.86957 9.9175313-17.31345 20.6222693-34.31973 10.704739-17.00628 20.08314-32.40432 20.840892-34.21788 0.757751-1.81355 1.37773-5.08455 1.37773-7.26887 0-2.18433-3.42165-19.63628-7.603666-38.78212s-7.621301-37.06504-7.642857-39.82043c-0.062277-7.96087 4.409996-15.09905 11.746523-18.74858 1.65-0.82079 18.075-6.32304 36.5-12.22723s35.16143-11.58112 37.19207-12.6154c2.03064-1.03429 4.79224-3.34717 6.13691-5.13975 1.34466-1.79258 9.89948-17.43423 19.0107-34.75923 9.11123-17.325 17.77297-33.01472 19.24832-34.86605s4.71078-4.26327 7.18984-5.35987c8.17694-3.61706 11.91382-2.64737 50.35867 13.06764 29.32616 11.98758 35.4379 14.15828 39.86349 14.15828s10.53733-2.1707 39.86349-14.15828c38.44485-15.71501 42.18173-16.6847 50.35867-13.06764 2.47906 1.0966 5.71449 3.50854 7.18984 5.35987s10.13709 17.54105 19.24832 34.86605c9.11122 17.325 17.66604 32.96665 19.0107 34.75923 1.34467 1.79258 4.10627 4.10546 6.13691 5.13975 2.03064 1.03428 18.76707 6.71121 37.19207 12.6154s34.85 11.40644 36.5 12.22723c7.33653 3.64953 11.8088 10.78771 11.74652 18.74858-0.0215 2.75539-3.46084 20.67459-7.64285 39.82043-4.18202 19.14584-7.60367 36.59779-7.60367 38.78212 0 2.18432 0.61998 5.45532 1.37773 7.26887 0.75775 1.81356 10.13615 17.2116 20.84089 34.21788s19.98476 32.45016 20.62227 34.31973c2.29374 6.72667 0.76733 14.19952-4.01234 19.64327-1.68429 1.9183-14.82224 12.58892-29.19545 23.7125-31.33185 24.24805-33.44374 26.09679-35.75296 31.298-1.15239 2.59561-3.64134 17.50323-6.92181 41.45827-2.98473 21.79553-5.76293 38.67464-6.65733 40.44701-2.22243 4.40408-5.24948 7.44534-9.801 9.84705-4.6746 2.46665-5.62045 2.47804-53.56634 0.64526-30.67304-1.1725-31.69181-1.15068-36 0.77133-2.8287 1.26197-14.70807 11.30171-32.81645 27.73451-15.61053 14.1662-29.88358 26.3837-31.71788 27.1501-4.17647 1.745-12.92806 1.7383-16.94895-0.013zm-93.76874-146.67492c5.14502-2.30841 6.16827-3.15086 5.6125-4.62081-0.37383-0.98873-5.93734-13.94769-12.36334-28.79769s-11.53411-27.16764-11.35135-27.37253c0.18276-0.2049 13.51464 8.83061 29.62642 20.07891 16.11177 11.2483 29.87466 20.79113 30.58419 21.20631 0.7398 0.43288 5.12143-0.8675 10.27263-3.04873 6.76891-2.86624 8.84741-4.18069 8.43408-5.33378-3.62806-10.12124-38.28829-88.98229-39.11758-89.00266-0.85286-0.0209-14.55337 5.52393-16.17708 6.54719-0.23786 0.14991 11.1717 26.99378 23.89784 56.2257 1.15701 2.65763 1.40001 4.00993 0.63612 3.54-0.67984-0.41823-14.89268-10.38408-31.58409-22.14635l-30.34803-21.38593-8.90197 3.73298c-4.89609 2.05313-8.90198 3.90267-8.90198 4.11009 0 0.47603 37.98596 88.51706 38.66629 89.61787 0.6134 0.9925 2.85549 0.31051 11.01535-3.35057zm113.31836-48.90004c16.775-7.25886 31.94938-13.80411 33.72085-14.54499l3.22086-1.34706-3.16435-7.31321c-1.74039-4.02226-3.29168-7.49011-3.44731-7.70633-0.15564-0.21622-11.37833 4.41386-24.93931 10.28907-13.56099 5.87521-25.07882 10.54137-25.5952 10.36924-1.42141-0.4738-10.91255-23.04985-10.04822-23.90115 0.41397-0.40774 10.42768-4.87198 22.25268-9.92055s21.68224-9.34591 21.90498-9.54966c0.39997-0.36586-4.20311-11.71756-5.73735-14.14895-0.58951-0.93422-6.48622 1.20493-23.06318 8.36663-12.24915 5.29197-22.63338 9.23178-23.07606 8.75513-0.96889-1.04323-8.02839-17.1189-8.02839-18.28199 0-0.45017 10.6875-5.4367 23.75-11.08117s23.92893-10.42078 24.14761-10.61402c0.69836-0.61709-5.67231-14.88945-6.6461-14.88945-2.08751 0-66.20458 28.07431-66.23119 29-0.0658 2.28939 38.56377 90.4472 39.47968 90.09784 0.55-0.20979 14.725-6.32051 31.5-13.57938zm83.25-35.75142c0.9625-0.27517 1.73855-1.23532 1.72454-2.13367-0.014-0.89835-2.46125-17.82361-5.43834-37.61169s-5.31928-36.07193-5.20487-36.18634c0.11442-0.11442 10.54917 13.01064 23.18835 29.16678 12.63918 16.15615 23.65532 29.37373 24.48032 29.37239 0.825-0.001 5.325-1.69569 10-3.76524 8.08292-3.57819 8.4855-3.90626 8.20443-6.68605-0.47899-4.73734-16.28269-96.83481-16.68578-97.2379-0.20257-0.20258-4.33964 1.37963-9.19348 3.51602-7.94993 3.49911-8.79422 4.12804-8.51314 6.3415 0.17161 1.35144 2.98411 16.22461 6.25 33.0515 3.26588 16.82688 5.93797 31.16694 5.93797 31.86679s-9.24295-10.81761-20.53989-25.59434-21.09013-27.24712-21.76266-27.71196c-0.76022-0.52547-5.21058 0.90126-11.76477 3.77164l-10.542 4.61683 1.77122 11.72835c6.23925 41.31398 8.43448 57.2159 7.80256 56.52058-0.39599-0.43573-8.93302-12.26723-18.97116-26.29223s-18.90728-26.25368-19.7092-27.17485c-1.35154-1.55249-2.05436-1.42013-9.62107 1.81199-4.48967 1.91776-8.5579 3.87631-9.04053 4.35234-0.49952 0.4927 12.16248 18.29849 29.3959 41.33764l30.2734 40.47213 8.1041-3.51596c4.45726-1.93377 8.8916-3.74108 9.8541-4.01625z"/>
	</g>
</svg>
