<svg xmlns:inkscape="http://www.inkscape.org/namespaces/inkscape" xmlns:rdf="http://www.w3.org/1999/02/22-rdf-syntax-ns#" xmlns="http://www.w3.org/2000/svg" sodipodi:docname="ok-circle2.svg" height="512" width="512" version="1.1" xmlns:cc="http://creativecommons.org/ns#" xmlns:dc="http://purl.org/dc/elements/1.1/" inkscape:version="0.91 r13725" viewBox="0 0 512.00001 512.00001" xmlns:sodipodi="http://sodipodi.sourceforge.net/DTD/sodipodi-0.dtd">
	<sodipodi:namedview bordercolor="#666666" inkscape:pageshadow="2" inkscape:window-y="-8" pagecolor="#ffffff" inkscape:window-height="1017" inkscape:window-maximized="1" inkscape:zoom="0.35" inkscape:window-x="-8" showgrid="false" borderopacity="1.0" inkscape:current-layer="layer1" inkscape:cx="-126.42857" inkscape:cy="520" units="px" inkscape:window-width="1920" inkscape:pageopacity="0.0" inkscape:document-units="px"/>
	<g inkscape:label="Layer 1" inkscape:groupmode="layer" transform="translate(0 -540.36)">
		<path inkscape:connector-curvature="0" d="m240.07 1051.5c-56.22-3.4302-110.75-26.057-152.96-63.466-6.9784-6.1847-18.855-18.117-24.26-24.374-32.581-37.715-53.474-83.82-60.172-132.78-2.8232-20.638-2.8232-48.408 0-69.046 10.162-74.282 52.537-140.3 116.3-181.18 17.6-11.284 38.453-21.076 59.086-27.746 49.998-16.163 105.89-16.163 155.89 0 60.289 19.49 111.25 60.518 143.08 115.18 16.847 28.938 27.783 60.67 32.307 93.743 2.8232 20.638 2.8232 48.408 0 69.046-6.6942 48.935-27.679 95.248-60.165 132.78-8.9886 10.385-24.446 25.124-35.155 33.521-49.762 39.018-111.05 58.157-173.94 54.32zm-3.9834-190.78c2.8712-1.3267 8.1405-6.4263 53.222-51.508 56.608-56.608 53.002-52.463 53.002-60.923 0-5.4219-1.4934-9.1947-5.0456-12.747s-7.325-5.0457-12.747-5.0457c-8.382 0-5.1775-2.7296-53.65 45.7l-42.762 42.724-14.83-14.837c-9.1456-9.15-15.759-15.34-17.254-16.15-7.1514-3.872-16.226-2.3561-21.746 3.6329-3.5598 3.8619-4.5728 6.568-4.576 12.224-0.004 7.922-0.56806 7.1915 25.868 33.529 26.169 26.072 25.124 25.281 33.084 25.015 3.3192-0.111 4.9463-0.4644 7.4357-1.6146z"/>
	</g>
</svg>
