<?xml version="1.0" encoding="UTF-8" standalone="no"?>
<svg id="svg3357" xmlns:rdf="http://www.w3.org/1999/02/22-rdf-syntax-ns#" xmlns="http://www.w3.org/2000/svg" viewBox="0 0 512 512" version="1.1" xmlns:cc="http://creativecommons.org/ns#" xmlns:dc="http://purl.org/dc/elements/1.1/">
	<text id="text3499" style="word-spacing:0px;letter-spacing:0px" xml:space="preserve" font-size="40px" y="214" x="232" font-family="sans-serif" line-height="125%" fill="#000000"><tspan id="tspan3501" x="232" y="214"/></text>
	<path id="path4599" d="m256.40145 510.874c-3.85182-0.757-10.83011-2.59951-15.50731-4.09448-6.42679-2.05417-122.13434-54.35204-184.764741-83.51056-17.932237-8.34862-35.399179-25.65909-44.728397-44.32772-7.8774338-15.76347-12.29574758-38.52777-11.24876303-57.95656 0.70568666-13.09534 1.59365123-20.25411 2.51126483-20.24579 0.3402424 0.003 50.5921802 20.44098 111.6709762 45.41754l111.05235 45.41193 0.62141 8.50181c2.70464 37.00346 17.5853 62.00436 41.89863 70.39359 7.98727 2.75598 25.01923 2.5584 34.55782-0.40087 15.40299-4.77868 27.28874-15.60047 39.73338-36.17666 14.11373-23.33587 21.33541-41.00789 62.27499-152.39177 31.24673-85.01264 43.48217-119.24024 54.55222-152.60522 7.42978-22.39324 7.70241-23.53319 5.77613-24.15196-7.89307-2.53546-248.61116-64.182118-249.40855-63.872246-0.55618 0.216131-24.42226 60.821006-53.03574 134.677506-28.61349 73.85649-52.47474 134.28916-53.025 134.29484-0.55026 0.006-8.7926-2.83783-18.316296-6.31889-15.29474-5.59046-17.26682-6.56557-16.896015-8.35434 0.787481-3.79875 109.955251-283.507537 111.942981-286.8194024 2.91586-4.8583009 9.40037-8.344742727 15.52055-8.344742727 4.59988 1.918e-10 290.11676 68.88789813 297.93271 71.88352013 6.47312 2.480952 12.43725 11.047715 12.48393 17.931677 0.0351 5.176425-41.73343 125.479338-79.19055 228.086938-36.50886 100.00996-47.22587 124.28584-66.3804 150.36324-6.5526 8.92084-18.25035 20.62087-26.04571 26.05078-8.66647 6.03669-21.17112 11.74078-32.25168 14.71186-8.31417 2.22931-12.22782 2.64816-27.21864 2.91302-11.83972 0.20918-19.77566-0.13628-24.51155-1.06704zm8.53601-164.68447c-48.50909-17.57921-49.31455-17.99053-52.67583-26.89831-3.37819-8.95264 0.64644-19.55618 9.12331-24.03689 7.60324-4.01892 10.19122-3.40695 57.02688 13.48482 23.66116 8.53363 44.89017 16.59594 47.17557 17.91622 4.76859 2.75482 9.35108 10.75775 9.35108 16.3309 0 7.09109-4.45617 14.0789-11.21545 17.58718-7.4288 3.85579-10.58483 3.08355-58.78556-14.38392zm-104.58987-37.16455c-7.4635-3.53287-12.47651-11.55521-12.49173-19.99058-0.01-5.2829 4.76641-13.5121 9.66773-16.65802 11.12045-7.13766 26.32451-3.02214 31.77405 8.60079 4.08486 8.71232 0.80997 20.54404-7.279 26.29792-5.5077 3.91778-15.40316 4.71681-21.67105 1.74989zm181.59418-29.97849c-5.47106-1.5192-79.61848-28.32633-86.29796-31.20003-5.67268-2.44054-10.24458-7.38847-11.6881-12.64941-1.35295-4.93085-1.32749-6.73865 0.16595-11.78359 2.93592-9.91774 14.14532-15.69055 24.37317-12.5521 11.04752 3.38998 87.13742 31.36601 89.45449 32.88981 3.25895 2.14323 4.69489 3.95647 7.0362 8.88504 6.90939 14.54452-7.2664 30.79128-23.04375 26.41028zm-148.57862-52.09409c-11.73013-5.39333-16.04365-20.37413-8.87945-30.83817 3.40481-4.97306 11.9475-9.80419 17.32132-9.7957 12.33711 0.0195 22.0811 9.35352 22.0811 21.15206 0 6.32151-1.01065 9.01996-5.17688 13.82242-4.21392 4.85743-9.97352 7.50334-16.33326 7.50334-2.7513 0-6.80707-0.82978-9.01283-1.84395zm182.79834-32.61907c-59.47802-18.30004-88.16491-27.72926-90.98509-29.90634-8.61608-6.65128-9.76283-20.60418-2.39192-29.1035 2.84761-3.28355 8.80922-5.71453 14.01404-5.71453 3.54396 0 17.47187 3.91351 48.78458 13.70763 24.1035 7.53919 45.18167 14.5098 46.84037 15.49025 9.05839 5.35436 11.79471 17.61676 6.02827 27.01477-4.66303 7.59971-13.8511 11.10825-22.29025 8.51172zm-151.80912-46.85036c-11.73757-5.37951-16.11516-20.83944-8.86162-31.2958 8.73114-12.58642 27.7577-12.38863 36.10354 0.37531 5.96834 9.12781 3.17654 22.63355-5.96054 28.83503-3.47262 2.35693-5.50602 2.93152-11.24268 3.17698-4.40386 0.18842-8.12996-0.21672-10.0387-1.09152z"/>
</svg>
