<svg xmlns:rdf="http://www.w3.org/1999/02/22-rdf-syntax-ns#" xmlns="http://www.w3.org/2000/svg" height="512" width="512" version="1.1" xmlns:cc="http://creativecommons.org/ns#" xmlns:dc="http://purl.org/dc/elements/1.1/" viewBox="0 0 512.00001 512.00001">
	<g transform="translate(0 -540.36)">
		<path d="m67.439 1050.1c-0.039-1.4535-1.544-3.3214-4.25-5.2766-2.3039-1.6646-5.5389-5.1438-7.1889-7.7316-2.1059-3.3027-3.6706-4.7105-5.25-4.7234l-2.25-0.018v-216-216l2.25-0.002c1.5782-0.001 3.0997-1.3467 5.0956-4.506 3.7041-5.863 8.8769-10.054 15.442-12.512 4.8255-1.8067 7.8401-1.98 34.5-1.9834 27.536-0.004 29.402-0.11954 32.523-2.0219 3.9044-2.3805 6.1876-7.2422 6.1954-13.192 0.01-7.8355 1.8031-11.92 7.5935-17.3 2.9705-2.7599 5.4009-5.7974 5.4009-6.75 0-1.6309 5.7749-1.7319 99-1.7319h99l0.021 2.25c0.014 1.4727 1.4028 3.2274 4.0202 5.0793 5.0986 3.6076 7.9131 9.1608 9.1438 18.042 1.1134 8.0346 2.8577 12.011 6.075 13.849 1.6298 0.93121 10.681 1.4158 33.24 1.7796 30.894 0.49829 31.019 0.50899 36.604 3.1276 4.0108 1.8808 6.8533 4.2099 10 8.1942 2.9335 3.7142 5.1452 5.5851 6.6465 5.6224l2.25 0.0558v218 218l-2.25 0.038c-1.4699 0.025-3.2015 1.4136-4.9944 4.0055-1.5095 2.1822-4.5299 5.2026-6.7121 6.7121-2.592 1.7929-3.9808 3.5245-4.0055 4.9944l-0.038 2.25h-189-189l-0.061-2.25zm366.08-23.26c1.6064-0.8307 3.399-2.404 3.9835-3.4962 0.7406-1.3838 1.0588-63.989 1.0496-206.5-0.012-184.77-0.1663-204.81-1.5995-207.58-2.7942-5.4034-5.6548-5.9102-33.356-5.9102-13.732 0-26.098 0.42991-27.48 0.95536-3.6205 1.3765-5.6878 5.1152-7.3701 13.329-2.5604 12.5-5.9576 16.936-16.802 21.936l-4.945 2.28h-90.521-90.521l-6.6935-3.2951c-9.9069-4.877-14.709-11.989-14.787-21.898-0.012-1.544-0.8773-4.6912-1.9227-6.9939-2.7895-6.1441-4.8508-6.5026-35.234-6.129-24.231 0.29795-25.838 0.43384-28.5 2.4094-1.5515 1.1515-3.358 3.6265-4.0145 5.5-0.9088 2.5937-1.207 51.545-1.25 205.19-0.062 222.59-0.5097 207.32 6.1562 210.21 2.806 1.2191 28.737 1.434 177.09 1.4674 153.11 0.034 174.15-0.1406 176.72-1.4712zm-304.46-65.162c-5.5043-2.9795-23.362-16.915-27.278-21.286-5.2815-5.8958-5.3212-11.334-0.1182-16.194 2.2884-2.1377 4.0359-2.8477 7.0085-2.8477 4.8471 0 6.307 0.7588 15.685 8.1533 10.941 8.6272 12.576 8.2821 28.672-6.054 14.848-13.224 20.674-15.096 27.071-8.6993 2.8141 2.8141 3.4 4.1422 3.4 7.707 0 3.9697-0.4894 4.7818-6.25 10.371-9.7487 9.4586-30.812 26.879-35.595 29.439-2.908 1.5564-9.1741 1.2634-12.596-0.5888zm87.92-15.198c-3.8267-1.7384-6.4796-5.3111-6.4796-8.7264 0-3.3823 3.2848-7.6296 7.3163-9.4599 4.0117-1.8214 7.9244-1.8995 95.184-1.8995 86.427 0 91.205 0.093 95.076 1.8512 2.8243 1.2827 4.6167 2.9909 5.8371 5.5628 2.6246 5.531 0.9483 9.7562-5.1133 12.888-2.91 1.5037-11.574 1.6517-95.5 1.6317-87.213-0.021-92.521-0.1226-96.32-1.8483zm-88.98-94.984c-6.1865-2.941-21.99-15.375-26.786-21.074-1.4931-1.7744-2.9905-4.3252-3.3277-5.6685-1.3945-5.5561 4.6117-12.391 10.896-12.4 4.164-0.006 9.0877 2.3826 13.908 6.7456 11.854 10.731 13.803 10.356 32.445-6.2418 10.609-9.4458 15.006-11.441 20.915-9.4913 4.7108 1.5547 7.4505 5.3368 7.4505 10.285 0 3.6301-0.6227 4.6379-6.25 10.115-10.459 10.18-28.376 24.922-33.828 27.833-6.4424 3.4401-7.9885 3.4297-15.422-0.10396zm91.854-12.238c-1.7303-0.5013-4.5428-2.2163-6.25-3.811-6.1858-5.7784-2.9301-14.035 6.6683-16.911 2.9268-0.87691 27.349-1.1864 93.626-1.1864 97.569 0 93.716-0.21755 99.103 5.5953 1.4369 1.5505 2.4992 3.895 2.4992 5.5159 0 3.8226-5.2081 9.5745-9.8323 10.859-4.675 1.2985-181.32 1.2396-185.81-0.062zm-91.037-95.851c-2.3009-1.0446-9.5675-6.2212-16.148-11.503-11.614-9.3225-15.168-13.612-15.168-18.307 0-3.2939 4.3206-8.5953 8.2121-10.076 3.3625-1.2798 4.0594-1.2172 8.0697 0.7241 2.4142 1.1687 7.2423 4.5955 10.729 7.6152 5.5606 4.8155 6.8673 5.4904 10.63 5.4904 3.8705 0 5.0517-0.66558 12.074-6.8038 11.78-10.296 19.476-16.319 22.157-17.338 6.0808-2.3119 14.127 4.176 14.127 11.391 0 3.7378-0.5898 4.6724-6.75 10.696-9.6375 9.4244-28.552 25.159-33.422 27.804-5.032 2.7329-8.984 2.8164-14.512 0.30675zm92.096-12.557c-4.4699-1.2983-9.0848-5.7314-9.9186-9.528-0.8657-3.9412 1.8826-8.6451 6.4905-11.109 3.3264-1.7786 7.6464-1.8631 95.282-1.8631 99.373 0 96.626-0.14635 100.22 5.3397 3.4549 5.2728 1.8831 11.498-3.9044 15.463l-3.3391 2.288-90.694 0.20448c-58.124 0.13105-91.93-0.15463-94.137-0.79552zm120.34-113.49c4.5897-3.0405 5.2497-6.4218 5.2497-26.895v-19.083l-2.9177-3.2658-2.9178-3.2658-82.599-0.26705c-91.432-0.2956-87.347-0.5718-89.985 6.0835-0.8774 2.213-1.2213 8.8949-1.128 21.918 0.1233 17.213 0.301 18.959 2.1874 21.5 4.065 5.4752 0.6218 5.2798 88.36 5.0132 70.259-0.21354 81.81-0.45332 83.75-1.7384z"/>
	</g>
</svg>
