<svg xmlns:inkscape="http://www.inkscape.org/namespaces/inkscape" xmlns:rdf="http://www.w3.org/1999/02/22-rdf-syntax-ns#" xmlns="http://www.w3.org/2000/svg" sodipodi:docname="paper2.svg" height="512" width="512" version="1.1" xmlns:cc="http://creativecommons.org/ns#" xmlns:dc="http://purl.org/dc/elements/1.1/" inkscape:version="0.91 r13725" viewBox="0 0 512.00001 512.00001" xmlns:sodipodi="http://sodipodi.sourceforge.net/DTD/sodipodi-0.dtd">
	<sodipodi:namedview bordercolor="#666666" inkscape:pageshadow="2" inkscape:window-y="-8" pagecolor="#ffffff" inkscape:window-height="1017" inkscape:window-maximized="1" inkscape:zoom="0.35" inkscape:window-x="-8" showgrid="false" borderopacity="1.0" inkscape:current-layer="layer1" inkscape:cx="-126.42857" inkscape:cy="520" units="px" inkscape:window-width="1920" inkscape:pageopacity="0.0" inkscape:document-units="px"/>
	<g inkscape:label="Layer 1" inkscape:groupmode="layer" transform="translate(0 -540.36)">
		<path inkscape:connector-curvature="0" d="m98.424 1051.7c-17.462-3.5161-31.246-16.939-36.06-35.116l-1.2253-4.6266v-186.42-186.42l1.228-4.6072c4.4711-16.775 16.657-28.643 33.88-32.997 2.7949-0.70658 7.3261-0.95072 21.574-1.1624l18.036-0.26797 0.27344 11.625c0.30563 12.993 0.70655 15.132 4.2641 22.752 5.4898 11.758 15.82 20.591 28.262 24.165 1.656 0.47569 5.2075 1.1165 7.8924 1.4241 6.5552 0.75093 152.18 0.7637 158.92 0.0139 15.728-1.7507 28.713-10.684 35.684-24.548 3.8113-7.5804 4.4279-10.679 4.725-23.749l0.2629-11.566 14.771 0.004c8.1243 0.003 16.976 0.25129 19.67 0.55297 18.518 2.0734 33.094 14.25 38.75 32.373l1.5289 4.8987v186.97c0 176.76-0.0523 187.17-0.95895 190.7-3.8193 14.878-13.044 26.537-25.712 32.498-2.3949 1.127-5.8241 2.4936-7.6203 3.037-3.1189 0.9436-10.27 0.9925-158.94 1.0863-126.41 0.08-156.34-0.035-159.21-0.6141zm72.704-62.129c2.4298-0.8026 5.7126-3.9087 34.865-32.988 22.65-22.593 32.541-32.82 33.393-34.527 3.7699-7.5485 0.42202-16.567-7.4958-20.192-2.5206-1.1539-3.5252-1.3156-6.84-1.1005-2.1595 0.1401-4.7318 0.6808-5.7906 1.2173-1.0478 0.5309-13.477 12.504-27.621 26.607l-25.716 25.642-10.752-10.671c-5.9138-5.8691-11.61-11.126-12.657-11.682-1.4229-0.7554-3.0761-1.0126-6.5316-1.0161-4.0379-0.01-4.9383 0.1796-7.076 1.4436-5.1238 3.0296-7.7563 7.526-7.7563 13.248 0 6.1326 0.60509 6.9432 18.805 25.194 13.426 13.464 17.028 16.781 19.656 18.098 3.7554 1.8827 7.335 2.1085 11.519 0.7265zm211.76-30.793c9.1221-4.8123 10.788-17.333 3.2322-24.297-4.4622-4.113-1.8598-3.9382-56.134-3.7727l-48.404 0.1476-2.2017 1.1788c-9.549 5.1126-11.082 17.66-3.0238 24.753 4.3521 3.8309 1.9992 3.68 55.574 3.5643l48.171-0.1041 2.7867-1.47zm-211.76-74.258c2.4298-0.8027 5.7126-3.9088 34.865-32.988 22.65-22.593 32.541-32.821 33.393-34.527 3.7699-7.5485 0.42202-16.567-7.4958-20.192-2.5206-1.154-3.5252-1.3156-6.84-1.1006-2.1595 0.1401-4.7318 0.6809-5.7906 1.2174-1.0478 0.5309-13.477 12.504-27.621 26.607l-25.716 25.642-10.752-10.671c-5.9138-5.869-11.61-11.126-12.657-11.682-1.4229-0.7554-3.0761-1.0126-6.5316-1.0161-4.0379 0-4.9383 0.1796-7.076 1.4436-5.1238 3.0296-7.7563 7.526-7.7563 13.248 0 6.1051 0.65486 6.9899 18.261 24.674 15.671 15.741 18.664 18.416 21.882 19.563 2.4528 0.8743 6.8229 0.7774 9.8366-0.218zm211.76-30.793c9.1221-4.8123 10.788-17.333 3.2322-24.297-4.4622-4.1131-1.8598-3.9382-56.134-3.7728l-48.404 0.1476-2.2017 1.1788c-9.549 5.1126-11.082 17.661-3.0238 24.754 4.3521 3.8308 1.9992 3.6799 55.574 3.5642l48.171-0.1041 2.7867-1.47zm-211.76-74.23c2.4298-0.80262 5.7126-3.9088 34.865-32.989 22.65-22.593 32.541-32.821 33.393-34.527 4.8048-9.6207-2.3897-21.385-13.09-21.404-6.7941-0.0119-5.793-0.81755-34.383 27.67l-25.985 25.892-11.028-10.917c-9.4316-9.3366-11.416-11.047-13.71-11.815-10.049-3.3659-20.042 3.6058-20.042 13.982 0 6.2064 0.60709 7.0296 18.261 24.762 15.671 15.741 18.664 18.416 21.882 19.563 2.4528 0.8743 6.8229 0.77743 9.8366-0.21805zm211.17-30.608c5.4969-2.6005 8.5494-7.3794 8.5494-13.385 0-4.4338-1.7307-8.4024-4.8687-11.165-4.5628-4.0164-1.897-3.8305-54.945-3.8305-46.424 0-47.577 0.0253-50.465 1.1059-2.0008 0.7486-3.7527 1.9579-5.4224 3.7429-5.6606 6.0516-5.5068 14.581 0.36866 20.456 4.8415 4.8414 1.191 4.5402 55.595 4.5885l47.899 0.0426 3.2892-1.5561zm-207.4-120.02c-3.3528-1.5682-6.0306-4.2009-7.5527-7.4253-1.0695-2.2656-1.1562-3.3477-1.1562-14.424 0-10.273 0.14478-12.4 1.0191-14.968 3.512-10.317 10.441-17.235 20.481-20.449 2.4798-0.79385 5.8724-1.013 19.764-1.2766l16.77-0.31825 2.5605-6.8038c2.8114-7.4705 4.61-10.436 8.8464-14.584 4.7688-4.6696 13.62-8.2579 20.369-8.2579 9.4241 0 19.609 5.5751 24.987 13.677 1.513 2.2795 4.7115 9.8239 6.5769 15.513 0.14955 0.4561 4.8915 0.6961 16.98 0.85941 14.108 0.19058 17.248 0.37933 19.766 1.1881 8.3204 2.6723 14.692 8.0051 18.357 15.365 2.9629 5.949 3.5436 9.8062 3.3224 22.065-0.15747 8.7236-0.3216 10.272-1.3163 12.422-1.4835 3.2054-4.1678 5.8395-7.5607 7.4195l-2.7329 1.2726h-78.38-78.38l-2.7215-1.2729z"/>
	</g>
</svg>
