<?xml version="1.0" encoding="UTF-8" standalone="no"?>
<svg xmlns:rdf="http://www.w3.org/1999/02/22-rdf-syntax-ns#" xmlns="http://www.w3.org/2000/svg" height="512" width="512" version="1.1" xmlns:cc="http://creativecommons.org/ns#" xmlns:dc="http://purl.org/dc/elements/1.1/" viewBox="0 0 512.00001 512.00001">
	<g transform="translate(0 -540.36)">
		<path d="m355.5 1051.3c-7.6492-1.0918-21.543-5.3832-28-8.6482-25.641-12.966-45.216-38.198-51.009-65.752-2.2081-10.501-2.2072-28.505 0.002-39 6.183-29.374 26.118-54.21 53.766-66.984 13.372-6.1782 22.256-7.9799 39.241-7.9583 15.463 0.0197 20.665 0.88355 33.5 5.5641 26.938 9.823 48.73 33.464 57.688 62.582 2.4798 8.0604 2.7098 10.219 2.7487 25.797 0.0474 19.001-1.2961 25.834-7.8818 40.087-17.614 38.122-58.394 60.259-100.06 54.312zm13.238-44.65c3.6072-1.9682 64-69.463 65.376-73.065 3.2417-8.48-2.0379-18.142-10.813-19.788-8.0371-1.5078-9.1769-0.56117-36.865 30.616-14.159 15.943-25.921 28.987-26.139 28.987-0.21798 0-6.0296-4.5425-12.915-10.094-14.84-11.967-16.457-12.891-22.556-12.899-9.9274-0.0131-16.836 11.295-12.592 20.61 1.2104 2.6565 37.452 32.534 43.309 35.704 3.9112 2.1168 9.2382 2.0885 13.194-0.07zm-298-6.3381c-8.3177-1.9596-16.252-8.1565-20.374-15.912-1.7913-3.3704-1.8698-10.292-2.1208-186.93l-0.26057-183.43 2.9153-6.2298c3.4882-7.454 9.5246-13.622 14.91-15.236 2.626-0.78678 13.665-1.1758 33.312-1.1741l29.384 0.003 0.045 8.2473c0.0366 6.7189 0.52965 9.2991 2.6604 13.922 3.645 7.909 9.7962 14.208 17.651 18.075l6.6016 3.2499h56.521 56.521l6.1104-2.8239c12.777-5.9048 20.56-17.797 21.222-32.426l0.37326-8.25 22.647 0.008c12.456 0.004 25.572 0.47777 29.147 1.0525 12.819 2.0607 22.026 8.1168 26.124 17.183l2.3763 5.2572 0.27472 112.6 0.27472 112.6-12.275 0.62231c-6.7511 0.34227-15.087 1.2524-18.525 2.0226l-6.25 1.4003v-85.876-85.876h-128-128v146 146h84.285 84.285l1.2729 9.4846c0.70009 5.2166 2.5448 13.542 4.0994 18.5l2.8265 9.0154-93.135-0.1005c-51.224-0.055-94.829-0.4996-96.9-0.9876zm60.301-75.094c-1.3144-0.48623-6.5851-4.2584-11.713-8.3826-10.004-8.0465-11.177-10.343-7.7662-15.212 2.5494-3.6398 6.3943-2.8588 13.576 2.7576 3.5022 2.7391 6.8177 4.9568 7.3677 4.9284 0.55-0.0285 6.1168-5.8746 12.371-12.991 13.672-15.558 16.901-17.024 21.123-9.5885 1.3252 2.3339 1.3252 2.9047 0 5.0542-2.8656 4.6483-28.986 33.382-30.77 33.848-0.989 0.25863-2.8736 0.0724-4.188-0.41382zm50.43-6.8549c-1.1952-1.3206-1.991-4.0719-2.2621-7.8197-0.3668-5.071-0.10824-6.1426 2.1023-8.7125l2.5206-2.9303h35.559 35.559l2.2778 2.2778c3.083 3.083 3.3178 13.863 0.37279 17.117-1.8698 2.0661-2.5733 2.105-38.095 2.105-35.142 0-36.243-0.059-38.034-2.0375zm-60.7-63.25c-8.433-6.7734-10.324-8.7869-10.565-11.25-0.58967-6.016 5.006-9.0459 10.294-5.574 1.65 1.0833 5.0544 3.5498 7.5654 5.4809l4.5654 3.5112 11.435-13.05c6.289-7.1776 12.447-13.448 13.685-13.934 5.1055-2.0064 10.764 3.5186 8.5174 8.3163-1.4003 2.9902-27.756 32.406-30.213 33.721-3.423 1.8319-4.8541 1.1558-15.283-7.2208zm60.634-2.855c-1.4483-1.6004-1.905-3.6129-1.905-8.395s0.45668-6.7946 1.905-8.395c1.8808-2.0783 2.4544-2.105 45.25-2.105 50.694 0 47.345-0.74281 47.345 10.5s3.3494 10.5-47.345 10.5c-42.796 0-43.369-0.0267-45.25-2.105zm-52.988-53.516c-2.1499-1.459-7.1731-5.32-11.163-8.58-6.01-4.91-7.25-6.43-7.25-8.86 0-3.552 3.1213-6.9358 6.3978-6.9358 1.3824 0 5.3212 2.2874 9.3014 5.4017l6.9036 5.4017 11.449-12.997c11.489-13.043 13.445-14.806 16.428-14.806 2.2809 0 6.5203 4.5196 6.5203 6.9512 0 1.8347-13.499 18.024-26 31.182-5.7953 6.0997-7.6667 6.5825-12.583 3.2459zm53.565-4.1924c-1.6276-1.318-2.3756-3.2277-2.7369-6.9884-0.60042-6.2488 1.1356-11.012 4.4763-12.282 1.361-0.51744 28.434-0.91587 62.233-0.91587 70.208 0 64.546-0.96507 64.546 11 0 11.974 5.8001 11-65.5 11-57.206 0-60.91-0.1066-63.018-1.8136zm-53.538-60.789c-2.1648-1.4691-7.2002-5.3384-11.19-8.5984-6.01-4.91-7.25-6.43-7.25-8.86 0-3.5456 3.1196-6.9358 6.3823-6.9358 1.3384 0 5.1725 2.1822 8.75 4.9801 3.5022 2.7391 6.8177 4.9597 7.3677 4.9348s5.5-5.2254 11-11.556c11.446-13.176 13.871-15.358 17.062-15.358 2.572 0 6.4377 4.2722 6.4377 7.1146 0 1.8268-29.437 35.885-31.016 35.885-0.45104 0-1.4464 0.24036-2.212 0.53414-0.76557 0.29377-3.1632-0.66785-5.328-2.1369zm53.538-5.2108c-1.6276-1.318-2.3756-3.2277-2.7369-6.9884-0.5959-6.2016 0.96692-10.518 4.3696-12.068 3.5011-1.5952 119.27-1.5952 122.77 0 3.4027 1.5504 4.9655 5.8666 4.3696 12.068-0.90738 9.4433 3.8832 8.802-65.755 8.802-57.206 0-60.91-0.1066-63.018-1.8136zm-26.48-109.83c-16.924-8.9836-16.498-32.61 0.71788-39.802 2.1998-0.9189 6.6914-1.5553 11-1.5586 13.469-0.0103 18.122-2.8596 19.292-11.815 1.0289-7.8737 3.5439-13.452 8.0326-17.816 10.178-9.8946 26.247-9.5398 36.157 0.79829 3.9876 4.16 5.9003 8.6815 6.8238 16.131 0.55106 4.4452 1.3745 6.45 3.5375 8.613 3.3029 3.3029 6.5075 4.0932 16.597 4.0932 8.5994 0 12.595 1.4065 17.266 6.0769 9.467 9.4671 8.1409 25.397-2.7707 33.281l-4.3476 3.1416-54.652 0.22364c-48.35 0.19786-54.998 0.04-57.652-1.3688zm62.56-43.855c2.776-1.7791 4.9396-5.8625 4.9396-9.3225 0-5.0406-5.4335-10.177-10.765-10.177-4.8665 0-8.672 2.7646-10.207 7.415-1.428 4.3268-0.5565 7.713 2.8028 10.89 3.7717 3.5675 8.8162 4.023 13.229 1.1946z"/>
	</g>
</svg>
