<?xml version="1.0" encoding="UTF-8" standalone="no"?>
<svg id="svg2" xmlns:rdf="http://www.w3.org/1999/02/22-rdf-syntax-ns#" xmlns="http://www.w3.org/2000/svg" height="512" width="512" version="1.1" xmlns:cc="http://creativecommons.org/ns#" xmlns:dc="http://purl.org/dc/elements/1.1/" viewBox="0 0 511.99999 512.00001">
	<g id="layer1" transform="translate(0,-540.36216)">
		<path id="path3362" d="m48.174956 912.90343c-9.806128-2.37309-21.567171-9.03118-28.925291-16.37502-7.711435-7.69647-12.2308576-14.82037-16.0704509-25.33163l-2.6792141-7.3346v-67.5-67.5l2.6792141-7.3346c6.2455701-17.09785 16.9742709-29.31661 32.1227679-36.58417 5.05891-2.42703 11.582667-4.90069 14.497239-5.49701 7.461527-1.52663 404.940029-1.52663 412.401559 0 2.91457 0.59632 9.43833 3.06998 14.49724 5.49701 15.1485 7.26756 25.8772 19.48632 32.12277 36.58417l2.67921 7.3346v67.5 67.5l-2.67921 7.3346c-6.24557 17.09785-16.97427 29.31661-32.12277 36.58417-5.05891 2.42703-11.58267 4.90069-14.49724 5.49701-8.32474 1.70324-406.930011 1.34266-414.025824-0.37453zm395.726204-60.99014c5.89613-3.04901 6.09884-4.09395 6.09884-31.4392v-24.95846l-2.5737-3.05866c-1.41553-1.68227-4.34053-3.58802-6.5-4.23502l-3.9263-1.17635-0.008-6.59171c-0.018-15.73349-3.6752-26.00178-11.81165-33.16377-12.19912-10.73809-31.3-10.44426-43.17582 0.66417-7.91489 7.40387-11.00453 16.23763-11.00453 31.46492v7.78406l-2.95304 0.6486c-1.62417 0.35672-4.1537 1.59303-5.62118 2.74735-4.89264 3.84856-5.42578 6.82874-5.42578 30.32971 0 24.07527 0.61648 27.00861 6.41996 30.54757 2.86782 1.74879 5.65003 1.87846 40.3797 1.88194 30.62001 0.003 37.80142-0.25573 40.1015-1.44515zm-55.89961-74.30111c0.002-11.24622 1.49486-15.37178 6.8602-18.95572 7.35835-4.91523 16.62706-3.44975 21.90545 3.46348 2.52182 3.30288 2.75893 4.41544 3.07128 14.41072l0.33847 10.83152h-16.08847-16.08848l0.002-9.75zm-289.432883 54.32381 9.002973-17.42619 8.88047 17.45409c4.88426 9.59975 9.18514 17.32904 9.55751 17.17619 0.37237-0.15284 6.34378-4.51774 13.2698-9.69976l12.59275-9.42185-6.6623-7.44396c-3.66427-4.09417-9.6979-10.25444-13.40807-13.68949s-6.45837-6.53294-6.10711-6.88419c0.35125-0.35126 3.08076-0.63865 6.06557-0.63865 4.7259 0 30.96094-4.63188 32.19101-5.68343 0.59459-0.50829-9.20222-30.31657-9.96387-30.31657-0.32303 0-8.38999 3.83736-17.92657 8.52746s-17.46917 8.39753-17.62797 8.23873 0.33283-3.25395 1.09252-6.87811 1.85546-10.59409 2.43504-15.48873 1.31514-10.58685 1.63458-12.64935l0.5808-3.75h-16.13756-16.137553l0.700971 6.25c0.385534 3.4375 1.705684 12.1 2.933666 19.25 1.227983 7.15 2.082789 13.1646 1.89957 13.36578s-3.473299-1.44466-7.311289-3.65743c-11.792835-6.79907-27.351001-13.45845-28.206973-12.07346-1.151251 1.86276-10.211626 28.91645-9.789055 29.22948 0.56722 0.42017 35.122894 5.68959 37.122423 5.66081 2.731464-0.0393 2.040516 1.18834-2.799962 4.97482-2.460837 1.925-8.97809 8.017-14.482785 13.53779l-10.008537 10.03778 13.270642 9.66905c7.298853 5.31798 13.510423 9.68848 13.803488 9.71222 0.293065 0.0237 4.584184-7.79863 9.535821-17.38303zm148.509613-1.04969 8.41182-16.5078 5.66984 11.47137c4.6094 9.32583 11.22474 21.76395 12.4127 23.33828 0.13529 0.17929 6.10453-4.06532 13.26499-9.43247l13.01902-9.75845-7.67832-8.45881c-4.22308-4.65234-10.26289-10.79817-13.42179-13.65739-3.15891-2.85922-5.44641-5.49565-5.08334-5.85872s2.94763-0.65172 5.74347-0.64145c4.33747 0.0159 31.29794-4.68558 32.49122-5.666 0.22434-0.18432-1.77383-7.09221-4.44038-15.35087-4.44314-13.76099-5.02037-14.96219-6.90789-14.37488-1.13279 0.35247-9.19533 4.20739-17.91675 8.56649-8.72143 4.35911-16.04279 7.74-16.2697 7.51309s0.24109-3.2912 1.03999-6.80954c0.7989-3.51833 1.94952-10.89697 2.55692-16.39697s1.34837-11.2375 1.6466-12.75l0.54223-2.75h-16.07945c-12.688 0-16.07946 0.27966-16.07946 1.32593 0 2.31192 2.88145 21.87764 4.37011 29.67407 0.78763 4.125 1.27447 7.6646 1.08186 7.86578s-3.49037-1.44466-7.32837-3.65743c-3.83799-2.21276-11.58612-6.10718-17.21808-8.65426-7.86296-3.55607-10.42951-4.33197-11.05668-3.34257-1.13633 1.7926-10.1376 28.85517-9.7027 29.17141 0.56183 0.40854 35.16277 5.67018 37.10386 5.64225 2.68068-0.0386 2.07149 1.20219-2.10687 4.29121-2.09528 1.54901-8.61605 7.63778-14.4906 13.5306l-10.681 10.71422 13.24801 9.64782c8.6814 6.3222 13.627 9.33329 14.34747 8.73535 0.60471-0.50185 4.88478-8.34097 9.51127-17.42026z"/>
	</g>
</svg>
