<svg xmlns:rdf="http://www.w3.org/1999/02/22-rdf-syntax-ns#" xmlns="http://www.w3.org/2000/svg" height="512" width="512" version="1.1" xmlns:cc="http://creativecommons.org/ns#" xmlns:dc="http://purl.org/dc/elements/1.1/" viewBox="0 0 512.00001 512.00001">
	<g transform="translate(0 -540.36)">
		<path d="m23.144 971.29c-10.647-3.0647-19.577-12.178-22.308-22.766-0.76036-2.9473-0.8429-17.953-0.83581-151.95 0.0073109-130.63 0.10563-149.1 0.81071-152.09 2.53-10.73 12.06-20.35 22.943-23.16 2.9605-0.76377 24.94-0.84294 232.05-0.83581 253.82 0.009 231.89-0.31999 239.37 3.5884 5.0192 2.6227 10.601 8.2047 13.224 13.224 3.875 7.4155 3.5797-5.6888 3.5885 159.27 0.009 165.29 0.32338 151.4-3.5991 158.88-4.1689 7.9518-11.436 13.682-20.343 16.042-2.5426 0.6734-33.07 0.7711-232.32 0.7437-215.67-0.03-229.58-0.087-232.58-0.9509zm456.92-174.91v-143.97h-224.07-224.07v143.97 143.97h224.07 224.07v-143.97zm-404.61 79.36c-6.693-1.8158-11.599-8.4005-11.599-15.569 0-5.9854 4.5086-12.318 10.318-14.491l3.0696-1.1485 51.453 0.1409 51.453 0.1408 2.4482 1.2063c6.585 3.2447 10.161 10.208 8.875 17.282-0.96033 5.2836-4.1879 9.3872-9.1943 11.69l-2.6612 1.2237-50.828 0.1025c-39.837 0.08-51.37-0.045-53.334-0.5773zm239.35-63.719c-22.031-1.6521-42.147-15.319-52.008-35.334-3.6685-7.4459-5.4629-13.734-6.3515-22.259-3.0032-28.811 14.917-56.877 42.388-66.384 16.185-5.6016 32.853-4.728 48.292 2.531l5.176 2.4337 4.0931-1.9959c14.156-6.903 29.517-8.4404 44.307-4.4345 35.019 9.4847 55.325 46.426 44.448 80.859-5.2449 16.603-17.406 30.746-32.911 38.272-9.4429 4.5838-17.683 6.4448-28.51 6.4391-9.8636-0.01-18.413-2.0335-27.314-6.4806l-4.1622-2.0793-3.5552 1.7894c-10.592 5.3315-21.878 7.5433-33.892 6.6424zm10.675-32.47c1.3005-0.3275 2.3646-0.8133 2.3646-1.0796s-0.688-1.8546-1.5289-3.5294c-3.9326-7.8326-6.0521-17.235-6.024-26.722 0.0281-9.4498 1.726-17.108 5.7671-26.011 0.97765-2.1539 1.6667-4.0956 1.5311-4.3149-0.56517-0.91447-6.8059-1.755-10.489-1.4127-15.557 1.4459-27.818 14.145-28.977 30.015-0.66297 9.0718 2.6334 17.436 9.6001 24.359 4.5545 4.526 8.6246 6.9477 14.192 8.4445 3.4957 0.9397 10.327 1.0663 13.564 0.2513zm66.52-0.2144c11.456-2.9248 20.153-11.763 23.166-23.543 5.0465-19.732-10.533-39.447-31.218-39.506-4.0892-0.0117-10.358 1.5741-14.399 3.6426-8.0377 4.1141-14.18 11.803-16.411 20.543-1.0511 4.117-1.0348 11.769 0.0338 15.911 2.7316 10.588 11.662 19.701 22.308 22.766 4.0946 1.1786 12.27 1.2703 16.52 0.1852z"/>
	</g>
</svg>
