<svg xmlns:rdf="http://www.w3.org/1999/02/22-rdf-syntax-ns#" xmlns="http://www.w3.org/2000/svg" height="512" width="512" version="1.1" xmlns:cc="http://creativecommons.org/ns#" xmlns:dc="http://purl.org/dc/elements/1.1/" viewBox="0 0 512.00001 512.00001">
	<g transform="translate(0 -540.36)">
		<path d="m141.5 985.68c-14.85-7.449-27.331-14.056-27.735-14.682-0.40408-0.62641-0.74158-0.79576-0.75-0.37635-0.0198 0.98523-14.281-6.1594-15.25-7.64-0.40408-0.61742-0.74158-0.78965-0.75-0.38273-0.0138 0.66688-80.252-39.473-85.849-42.947-1.2834-0.79655-2.977-2.9883-3.7634-4.8705-1.2324-2.9496-1.2355-3.8875-0.022108-6.7915 1.7121-4.0976 5.1043-6.6307 8.8797-6.6307 1.7069 0 32.699 14.964 78.7 38 41.736 20.9 76.762 38 77.835 38 1.7669 0 23.803-8.9585 83.704-34.029l21-8.7892 0.27822-13.591c0.15302-7.4749 0.0171-13.591-0.30205-13.591-0.50614 0-46.929 19.107-90.337 37.182-10.348 4.3087-15.066 5.8026-16.884 5.3462-1.388-0.34836-31.826-15.43-67.639-33.515-35.828-18.08-71.655-36.17-79.63-40.19-13.12-6.62-14.604-7.64-15.589-10.69-1.4194-4.3914-0.75384-7.5164 2.2379-10.508 5.3856-5.3856 1.589-6.938 85.394 34.918l77.547 38.73 52.7-21.87 52.71-21.87v-14.765c0-8.121-0.25779-14.765-0.57287-14.765s-23.719 9.675-52.008 21.5-52.444 21.476-53.677 21.447c-1.23-0.02-38.24-18.13-82.24-40.24-76.431-38.4-80.08-40.36-81.796-43.87-1.6141-3.3-1.6499-4.02-0.3552-7.12 1.8028-4.3147 5.139-6.7077 9.3516-6.7077 2.1986 0 11.622 4.2583 29.027 13.117 74.938 38.142 125.68 63.038 127.69 62.654 1.186-0.22673 25.199-10.055 53.361-21.842l51.205-21.429 0.008-13.75c0.004-7.5625-0.30736-13.75-0.6929-13.75s-23.982 9.675-52.437 21.5-52.444 21.5-53.31 21.5c-1.223 0-88.498-43.585-154.54-77.18-7.343-3.73-8.6807-4.82-9.8645-8.01-1.2225-3.29-1.1697-4.09 0.4925-7.48 1.8398-3.75 2.3389-3.99 41.862-20.56 22-9.2228 49-20.569 60-25.214 11-4.6446 38.45-16.168 61-25.607s48.2-20.209 57-23.932c55.675-23.56 112.5-47.015 113.9-47.015 3.6132 0 162.41 79.332 165.35 82.605 1.4085 1.5688 2.25 3.7883 2.25 5.9345 0 6.488-2.7392 8.1278-39 23.347-18.425 7.7333-40.25 16.924-48.5 20.424l-15 6.3631-0.27903 13.787c-0.25932 12.813-0.15336 13.751 1.5 13.276 0.97847-0.28094 21.335-8.6618 45.237-18.624 23.902-9.9624 44.468-18.113 45.703-18.113 3.5235 0 6.8599 1.9193 8.6735 4.9895 3.7938 6.4224 1.0223 11.713-8.2702 15.787-3.6105 1.5829-26.022 10.943-49.803 20.801l-43.238 17.923-0.0116 14.75c-0.006 8.1125 0.26769 14.75 0.60902 14.75 0.34132 0 20.643-8.392 45.115-18.649 24.558-10.293 45.759-18.613 47.317-18.569 4.0043 0.11385 6.6798 1.7986 8.526 5.3687 1.9979 3.8634 1.2129 8.7838-1.8435 11.556-1.2291 1.1147-24.172 11.194-50.985 22.398l-48.75 20.372v13.262c0 8.1124 0.38558 13.262 0.99303 13.262 0.54617 0 21.094-8.3614 45.661-18.581 49.069-20.411 48.726-20.32 53.785-14.308 3.0197 3.5887 3.2502 7.2457 0.7183 11.397-1.5691 2.573-5.438 4.5061-26.746 13.363-13.7 5.71-64.73 26.93-113.41 47.17-48.675 20.241-111.89 46.515-140.47 58.387-30.841 12.81-53.201 21.557-55 21.517-1.7942-0.0399-14.053-5.5959-30.032-13.611zm201.12-78.15 42.88-17.83l0.25689-68.653 0.25688-68.653-3.7569-2.3368c-2.07-1.28-11.64-6.41-21.26-11.39-9.625-4.9851-31.9-16.593-49.5-25.796-17.6-9.2026-40.55-21.147-51-26.542l-19-9.81-42.233 17.676c-23.228 9.7217-42.233 17.901-42.232 18.176 0.00047 0.275 2.3554 1.5935 5.2332 2.9301s34.185 16.862 69.572 34.5c52.24 26.039 64.605 32.578 65.75 34.77 1.1735 2.2476 1.4099 14.278 1.4099 71.75 0 37.977 0.16705 69.05 0.37123 69.05s19.667-8.0234 43.25-17.83zm-68.3-146.78c-2.984-1.4716-6.3256-6.5168-6.3172-9.5378 0.007-2.6581 3.8169-7.5319 6.8785-8.8001 2.3208-0.9613 4.1492-1.0303 7.1461-0.26957 4.5275 1.1492 6.4806 0.0255 7.5819-4.3621 0.77651-3.0939-0.89529-5.1257-5.1942-6.3127-4.3734-1.2076-6.9231-0.51306-12.416 3.3821-12.234 8.6754-26.15 9.6091-37.35 2.5062-6.2412-3.9581-9.7459-10.28-10.412-18.783-0.39693-5.0688-1.1018-7.4016-2.8816-9.5369-3.3697-4.0426-3.2026-9.5066 0.39381-12.874 3.8553-3.6096 6.4095-4.1195 11.145-2.2249 3.5627 1.4255 4.9348 1.4776 10.385 0.39435 5.522-1.0976 6.6728-1.0449 9.5378 0.43664 3.9767 2.0564 6.7203 7.3163 5.7769 11.075-1.0172 4.0528-4.9444 7.3918-9.5624 8.1303-3.5346 0.5652-6.0318 2.5515-6.0318 4.7977 0 1.0534 5.9385 3.5914 8.4033 3.5914 2.7516 0 7.5967-1.9203 7.5967-3.0109 0-0.37943 3.014-2.2197 6.6978-4.0895 6.2304-3.1624 7.3643-3.3994 16.25-3.3968 10.957 0.003 15.395 1.7073 20.964 8.0494 3.6953 4.2087 4.811 6.7564 6.3271 14.448 0.68337 3.4668 2.1335 6.7143 3.9227 8.7848 3.8941 4.5063 3.8633 9.3442-0.0846 13.292-3.0764 3.0764-8.3128 3.9376-11.987 1.9713-1.2784-0.68417-3.4387-0.26914-7.6843 1.4763-6.8665 2.8229-14.417 3.164-19.085 0.86218zm-56.202 46.964c24.68-10.25 44.88-18.93 44.88-19.28 0-0.79281-128.61-64.46-131.06-64.883-0.99317-0.17095-18.373 6.6495-38.622 15.157-20.249 8.507-40.358 16.944-44.686 18.75l-7.8694 3.2822 65.369 32.756c35.953 18.016 65.761 32.781 66.239 32.811 0.47805 0.0302 21.066-8.3372 45.75-18.594zm219.88-91.07c18.975-7.983 34.866-14.731 35.313-14.996 0.86673-0.51392-130.74-66.279-132.67-66.296-1.537-0.0136-73.646 30.344-73.626 30.997 0.009 0.28239 7.8788 4.5634 17.489 9.5134 9.6103 4.95 17.478 9.3375 17.484 9.75s0.34849 0.63904 0.76099 0.50341c0.4125-0.13562 21.624 10.616 47.136 23.892l46.386 24.139 3.6141-1.4935c1.9878-0.82144 19.139-8.0251 38.114-16.008z"/>
	</g>
</svg>
