<svg xmlns:rdf="http://www.w3.org/1999/02/22-rdf-syntax-ns#" xmlns="http://www.w3.org/2000/svg" height="512" width="512" version="1.1" xmlns:cc="http://creativecommons.org/ns#" xmlns:dc="http://purl.org/dc/elements/1.1/" viewBox="0 0 512.00001 512.00001">
	<g transform="translate(0 -540.36)">
		<path d="m349.34 1037.6c-137.4-56.53-248.37-158.55-316.75-291.21-32.087-62.26-37.427-85.65-25.353-111.1 5.4-11.38 26.603-37.3 47.118-57.6 51.654-51.115 62.624-50.514 120.58 6.6078 41.584 40.989 62.092 68.813 62.092 84.241 0 3.7096-11.325 19.031-25.166 34.047-13.842 15.016-25.167 30.581-25.167 34.588 0 22.298 55.02 84.077 103.36 116.06l24.714 16.35 27.052-24.935c41.828-38.556 55.924-35.661 116 23.825 66.839 66.181 67.685 72.263 17.366 124.97-34.556 36.195-68.233 59.431-85.384 58.911-2.706-0.082-20.91-6.7263-40.453-14.765zm94.435-62.852 32.298-32.704-43.993-43.656-43.992-43.656-30.372 29.915c-34.542 34.022-33.708 34.051-93.283-3.252-48.541-30.393-84.244-68.852-108.47-116.83l-18.85-37.342 27.931-27.412c15.362-15.077 27.93-30.443 27.93-34.148s-18.524-25.058-41.164-47.45l-41.164-40.714-37.439 38.652-37.44 38.652 9.5646 27.108c23.74 67.285 98.958 174.07 154.94 219.97 65.845 53.984 177 114.51 199.49 108.63 6.4433-1.6849 26.249-17.78 44.012-35.767z"/>
	</g>
</svg>
