<svg xmlns:rdf="http://www.w3.org/1999/02/22-rdf-syntax-ns#" xmlns="http://www.w3.org/2000/svg" height="512" width="512" version="1.1" xmlns:cc="http://creativecommons.org/ns#" xmlns:dc="http://purl.org/dc/elements/1.1/" viewBox="0 0 512.00001 512.00001">
	<g transform="translate(0 -540.36)">
		<path d="m401.5 1050c-45.79-7.1-86.63-19.1-126.5-37.1-146.67-66.42-248.67-202.17-272.03-362.04-3.7036-25.35-2.5948-36.55 5.1955-52.46 7.8405-16.01 24.128-28.93 42.294-33.53 8.76-2.2193 90.32-2.2193 99.08 0 18.674 4.7308 34.566 17.562 42.828 34.579 3.857 7.9442 4.9621 11.657 7.0888 23.817 3.3318 19.051 6.556 32.189 11.989 48.856 6.9674 21.371 7.7664 30.435 3.9964 45.331-3.3904 13.396-9.0764 22.254-23.358 36.389-5.55 5.49-10.09 10.36-10.09 10.81 0 1.2602 7.3883 11.95 17.129 24.782 21.536 28.373 48.62 54.041 78.176 74.09l10.057 6.8224 12.069-11.814c12.961-12.688 19.878-17.29 32.069-21.341 5.8832-1.9546 8.9942-2.317 19.5-2.2715 12.135 0.0525 12.909 0.18983 26.5 4.7056 18.232 6.0577 29.882 9.0217 47.712 12.14 8.0046 1.3997 16.744 3.2739 19.421 4.1648 15.294 5.0902 29.97 17.924 37.091 32.436 7.0367 14.34 7.4448 18.245 7.0623 67.596l-0.33249 42.904-2.7161 8.0784c-8.8624 26.359-32.165 43.898-59.738 44.961-6.5629 0.2531-14.137-0.3477-24.5-1.9434zm32-41.548c4.8316-2.1182 8.9586-6.1352 11.851-11.534 2.0754-3.8748 2.16-5.338 2.4549-42.446 0.26517-33.371 0.0908-39.089-1.3238-43.413-3.7256-11.39-10.013-15.505-28.501-18.653-17.711-3.0153-30.187-6.0991-48.241-11.924-8.6551-2.7924-17.005-5.0771-18.556-5.0771-1.5509 0-5.2383 0.71823-8.1943 1.5961-4.8757 1.4479-7.0988 3.2919-23.952 19.868-17.347 17.062-18.909 18.343-23.592 19.347-8.0238 1.7208-10.504 0.87913-26.945-9.1452-24.506-14.941-45.707-31.83-68.586-54.634-23.408-23.331-40.811-45.394-57.397-72.764-5.2913-8.7314-6.9115-12.323-7.2776-16.133-0.86178-8.9687 0.52998-11.138 19.334-30.135 11.838-11.959 17.965-18.925 19.353-22 3.2295-7.1571 2.715-13.378-2.4009-29.032-5.8098-17.777-8.894-30.139-11.941-47.864-2.9128-16.942-5.2903-21.792-13.029-26.578l-4.8932-3.0264-39.44-0.29391c-45.713-0.34067-46.062-0.29049-53.548 7.7125-7.2256 7.7248-7.8404 12.071-4.7069 33.277 6.7475 45.663 18.947 85.126 39.045 126.3 29.948 61.361 72.816 113.82 125.54 153.64 59.589 44.999 126.12 72.77 200.95 83.881 13.004 1.931 17.822 1.7357 24-0.9726zm-41.01-250c-5.4444-2.4734-9.8777-7.8003-11.417-13.719-5.8833-22.618-13.119-35.766-27.194-49.416-12.18-11.811-25.302-18.78-46.064-24.462-3.1259-0.85547-7.0832-2.7331-8.7938-4.1726-10.032-8.4416-9.4866-24.671 1.087-32.33 5.9667-4.3223 11.5-4.8355 22.39-2.0766 33.081 8.381 60.985 28.303 79.573 56.811 10.532 16.154 18.992 38.751 19.047 50.88 0.0677 14.878-15.062 24.648-28.628 18.485zm92.3 0.93231c-7.7961-2.5105-12.414-8.4215-14.305-18.31-0.7633-3.9914-2.1201-11.082-3.015-15.757-3.762-19.651-13.831-44.506-25.001-61.713-28.937-44.577-74.728-73.752-127.68-81.347-9.9189-1.4228-14.74-3.7482-19.167-9.2459-2.6175-3.2501-3.1227-4.8171-3.4564-10.722-0.34233-6.0585-0.0666-7.4691 2.2244-11.378 5.2091-8.8886 12.167-11.543 25.364-9.6764 73.785 10.438 137.37 56.323 169.66 122.45 12.627 25.85 21.507 57.229 21.562 76.192 0.0317 10.982-7.4875 18.969-18.801 19.971-2.5749 0.22801-5.9005 0.0221-7.3902-0.45767z"/>
	</g>
</svg>
