<svg xmlns:inkscape="http://www.inkscape.org/namespaces/inkscape" xmlns:rdf="http://www.w3.org/1999/02/22-rdf-syntax-ns#" xmlns="http://www.w3.org/2000/svg" sodipodi:docname="photo2.svg" height="512" width="512" version="1.1" xmlns:cc="http://creativecommons.org/ns#" xmlns:dc="http://purl.org/dc/elements/1.1/" inkscape:version="0.91 r13725" viewBox="0 0 512.00001 512.00001" xmlns:sodipodi="http://sodipodi.sourceforge.net/DTD/sodipodi-0.dtd">
	<sodipodi:namedview bordercolor="#666666" inkscape:pageshadow="2" inkscape:window-y="-8" pagecolor="#ffffff" inkscape:window-height="1017" inkscape:window-maximized="1" inkscape:zoom="0.35" inkscape:window-x="-8" showgrid="false" borderopacity="1.0" inkscape:current-layer="layer1" inkscape:cx="-126.42857" inkscape:cy="520" units="px" inkscape:window-width="1920" inkscape:pageopacity="0.0" inkscape:document-units="px"/>
	<g inkscape:label="Layer 1" inkscape:groupmode="layer" transform="translate(0 -540.36)">
		<path inkscape:connector-curvature="0" d="m41.99 1027.4c-13.911-2.2396-29.487-13.967-35.902-27.029-6.3555-12.942-6.0775-4.8401-6.0883-177.43-0.0059352-100.71 0.3524-159.41 0.99922-163.58 2.7847-17.95 15.846-33.46 34.392-40.84 3.5134-1.3992 10.811-1.7066 51.099-2.1525l47-0.52022 23.025-25.749 23.025-25.749h76.528 76.528l23.025 25.749 23.025 25.749 47 0.52022c50.324 0.55701 48.52 0.3779 59.319 5.8875 2.2669 1.1565 7.0694 4.8602 10.672 8.2305 8.0918 7.5695 13.953 18.647 15.544 29.378 0.6933 4.6753 0.9454 60.196 0.7587 167.06l-0.2795 160.06-2.6738 6.8817c-3.2833 8.4504-8.6887 16.452-14.673 21.719-6.1199 5.3869-17.274 10.654-25.169 11.885-8.1924 1.2774-419.2 1.1903-427.16-0.091zm243.09-79.29c52.003-12.018 90.449-54.066 98.001-107.18 1.4791-10.403 1.2344-29.733-0.51293-40.515-3.1187-19.244-12.335-41.045-23.751-56.184-6.8222-9.0467-20.005-21.914-28.87-28.18-31.809-22.481-75.946-28.939-114.14-16.701-18.756 6.0091-34.218 15.508-49.567 30.452-45.844 44.635-51.333 119.24-12.56 170.71 20.895 27.738 50.439 44.945 85.819 49.983 10.764 1.5327 33.868 0.3246 45.586-2.3835zm-46.056-45.602c-24.963-5.2681-47.083-23.239-57.521-46.732-6.9367-15.613-8.8033-37.64-4.5643-53.861 7.1954-27.536 26.882-48.507 54.622-58.188 7.5096-2.6207 9.0203-2.7929 24.509-2.7929s16.999 0.17215 24.509 2.7929c27.74 9.6807 47.427 30.652 54.622 58.188 4.239 16.222 2.3724 38.249-4.5643 53.861-15.583 35.072-54 54.67-91.612 46.732z"/>
	</g>
</svg>
