<?xml version="1.0" encoding="UTF-8" standalone="no"?>
<svg id="svg2" xmlns:rdf="http://www.w3.org/1999/02/22-rdf-syntax-ns#" xmlns="http://www.w3.org/2000/svg" height="512" width="512" version="1.1" xmlns:cc="http://creativecommons.org/ns#" xmlns:dc="http://purl.org/dc/elements/1.1/" viewBox="0 0 512.00001 512.00001">
	<g id="layer1" transform="translate(0,-540.36216)">
		<g id="g3980" transform="matrix(4.5714286,0,0,4.5714286,0,540.35987)">
			<g id="g3940">
				<path id="path3942" d="m83.748 66.324c-1.354 8.844-8.582 16.071-17.426 17.426-14.191 2.174-26.24-9.875-24.065-24.067 1.353-8.843 8.582-16.072 17.425-17.425 14.187-2.175 26.236 9.867 24.066 24.066zm28.252-34.474v62.299c0 4.705-3.812 8.519-8.512 8.519h-94.972c-4.703-0.001-8.516-3.814-8.516-8.513v-62.305c0-4.704 3.812-8.517 8.517-8.517h0.817v-1.895c0-1.531 1.241-2.772 2.772-2.772h13.123c1.53 0 2.771 1.241 2.771 2.772v1.895h7.229l5.717-11.816c0.645-1.334 1.998-2.184 3.478-2.184h37.156c1.479 0 2.832 0.85 3.471 2.184l5.717 11.816h12.717c4.703 0 8.515 3.813 8.515 8.517zm-87.5 0.817c0-3.22-2.613-5.833-5.833-5.833s-5.833 2.613-5.833 5.833 2.613 5.833 5.833 5.833 5.833-2.614 5.833-5.833zm31.561 0.77c-11.152 2.473-20.149 11.471-22.623 22.624-4.91 22.129 14.373 41.407 36.501 36.502 11.153-2.475 20.149-11.473 22.625-22.625 4.905-22.127-14.375-41.406-36.503-36.501z"/>
			</g>
		</g>
	</g>
</svg>
