<?xml version="1.0" encoding="UTF-8" standalone="no"?>
<svg id="svg2" xmlns:rdf="http://www.w3.org/1999/02/22-rdf-syntax-ns#" xmlns="http://www.w3.org/2000/svg" height="512" width="512" version="1.1" xmlns:cc="http://creativecommons.org/ns#" xmlns:dc="http://purl.org/dc/elements/1.1/" viewBox="0 0 511.99999 511.99999">
	<path id="path3628" d="m30.113153 483.82419c-28.653459-15.57146-30.113153-26.10199-30.113153-217.24242 0-193.442181 1.3135066-202.735083 30.811728-217.989205 13.250555-6.852127 28.880857-8.09906 84.486672-6.740058 63.6026 1.554442 69.10493 2.492102 81.15933 13.830473 7.1121 6.689638 14.38567 18.785638 16.16349 26.88l3.2324 14.71702h120.07764c134.15655 0 147.98841 2.64553 165.69749 31.6919 9.73222 15.96276 10.33408 25.53558 10.35211 164.65432 0.021 162.67297-2.06032 175.40318-31.13701 190.43932-21.08426 10.9031-430.627025 10.6838-450.730697-0.24136zm432.351397-34.54419c7.95536-5.82429 8.6191-19.98676 7.37858-157.44l-1.36313-151.04h-212.48-212.48l-1.363134 151.04c-1.240515 137.45324-0.576776 151.61571 7.378584 157.44 12.627002 9.2445 400.3021 9.2445 412.9291 0zm-336.65883-63.08572c-6.65326-6.65325-8.04572-22.42604-8.04572-91.136 0-57.7991 1.87012-84.9604 6.144-89.23428 3.47105-3.47105 20.09864-6.144 38.21986-6.144 26.83577 0 32.97115-1.67286 37.55614-10.24 4.91543-9.18455 10.72037-10.24 56.32-10.24s51.40457 1.05545 56.32 10.24c4.58499 8.56714 10.72037 10.24 37.55614 10.24 18.12122 0 34.74881 2.67295 38.21986 6.144 4.27388 4.27388 6.144 31.43518 6.144 89.23428 0 68.70996-1.39246 84.48275-8.04572 91.136-12.05025 12.05026-248.33831 12.05026-260.38856 0zm174.63101-23.53899c22.62632-13.56939 39.57062-49.94517 35.92522-77.12369-7.66248-57.12807-75.59012-90.13184-121.37402-58.9716-38.70466 26.34216-49.99272 63.76031-31.04348 102.90422 22.05175 45.55283 72.10143 59.81303 116.49228 33.19107zm-54.67673-12.76509c-32.10722-10.3636-49.37244-36.33466-43.82233-65.91934 6.65131-35.45452 54.59721-55.70507 83.67234-35.34006 12.69177 8.88967 26.70999 33.04298 26.70999 46.02116 0 31.60885-39.138 64.08953-66.56 55.23824zm34.23001-28.22269c24.44573-22.96557 9.30564-62.25417-23.99001-62.25417-32.73527 0-47.64123 37.12485-24.70751 61.53667 13.97427 14.87493 33.32415 15.16003 48.69752 0.7175z"/>
</svg>
