<?xml version="1.0" encoding="UTF-8" standalone="no"?>
<svg id="svg2" xmlns:rdf="http://www.w3.org/1999/02/22-rdf-syntax-ns#" xmlns="http://www.w3.org/2000/svg" height="512" width="512" version="1.1" xmlns:cc="http://creativecommons.org/ns#" xmlns:dc="http://purl.org/dc/elements/1.1/" viewBox="0 0 512.00001 512.00001">
	<g id="layer1" transform="translate(0,-540.36216)">
		<path id="path3360" d="m148.35045 1051.1627c-4.71908-6.2732-11.78957-25.713-13.42827-36.9201-1.67771-11.474-0.62642-41.91516 2.05071-59.38042 8.15038-53.17206 24.64749-119.85479 40.11778-162.15954 3.25013-8.88775 5.90933-16.58051 5.90933-17.09502 0-0.5145-0.94788-1.79271-2.10641-2.84045-4.62021-4.17841-6.27181-9.29622-6.70957-20.79089-0.50105-13.15671 0.90134-22.68727 5.38765-36.6141 4.48767-13.93107 9.2607-21.84621 18.99527-31.5 13.40745-13.29619 25.42405-19.05987 38.07735-18.26355 11.5114 0.72445 18.36846 5.87577 24.80217 18.63248 8.08809 16.03699 7.18596 37.79623-3.01125 72.63107-12.57232 42.9485-14.28976 55.31859-9.71862 70 4.14237 13.30429 14.00477 22.92443 27.12309 26.45683 6.14067 1.65351 18.93536 1.41347 26.34647-0.49428 7.5578-1.94552 20.81004-7.99831 27.48715-12.55441 2.65469-1.81141 7.67488-6.01237 11.156-9.33546 23.65686-22.58299 35.66757-56.34831 37.73125-106.07268 1.17418-28.29183-2.52691-60.08454-9.15599-78.6507-14.36279-40.22613-44.75713-61.30594-85.90456-59.57858-40.63854 1.706-85.86653 23.70892-120.50496 58.62432-27.69433 27.91578-42.72519 57.24959-44.65581 87.14904-0.92906 14.38841 2.05183 28.59464 8.90851 42.45592 3.89505 7.87412 13.27834 20.36932 16.10278 21.44317 5.85349 2.22549 5.99633 8.12322 0.59152 24.42271-4.31834 13.023-6.39706 16.04222-11.32614 16.45056-4.88033 0.4043-16.2477-3.02271-24.7068-7.44857-21.507677-11.25295-37.855521-36.59614-45.068866-69.86787-0.812397-3.7472-1.299611-13.13386-1.297623-25 0.0027-15.89188 0.376401-20.79944 2.284668-30 10.685477-51.51921 42.916751-99.72747 85.781351-128.303 52.56301-35.04095 119.02252-45.3168 175.39137-27.11868 13.07738 4.2219 33.61008 14.5565 45 22.6496 48.79929 34.67424 81.03481 101.93099 80.9918 168.98267-0.0332 51.76923-20.00696 99.61094-52.54038 125.84629-4.73544 3.81872-10.63636 8.63906-13.11315 10.71188-11.34755 9.49671-29.02668 19.25211-43.73421 24.13266-25.83952 8.57459-51.62886 8.89684-73.97706 0.92437-10.99446-3.92215-24.5104-10.66408-33.67057-16.79533-8.53158-5.71052-9.9048-5.84561-9.94112-0.97795-0.008 1.12888-1.62118 8.55388-3.58392 16.5-1.96273 7.94612-5.3563 23.89749-7.54127 35.44749s-5.56781 25.725-7.51743 31.5c-6.62797 19.63284-19.22476 41.21832-41.14216 70.50002-7.55905 10.0989-10.30753 13.0671-12.31613 13.3005-1.42207 0.1653-3.02585-0.2847-3.56395-1zm-16.9339-242.15739c-0.34679-0.90372-1.04822-1.64313-1.55872-1.64313-0.51083 0-0.42629 0.93781 0.18801 2.08565 1.27334 2.37925 2.32344 2.04024 1.37071-0.44252zm-33.634789-147.51501c-1.375953-0.5051-2.255999 1.04296-5.896251 10.37188-4.653977 11.92681-4.495847 11.98092 1.461219 0.5 2.996456-5.775 4.99222-10.66735 4.435032-10.87188z"/>
	</g>
</svg>
