<?xml version="1.0" encoding="UTF-8" standalone="no"?>
<svg id="svg2" xmlns:rdf="http://www.w3.org/1999/02/22-rdf-syntax-ns#" xmlns="http://www.w3.org/2000/svg" height="512" width="512" version="1.1" xmlns:cc="http://creativecommons.org/ns#" xmlns:dc="http://purl.org/dc/elements/1.1/" viewBox="0 0 511.99999 511.99999">
	<g id="layer1" transform="translate(0,-540.36219)">
		<path id="path3347" d="m234 1051.2687c-20.90837-1.8013-46.89243-7.5131-65.64329-14.4297-13.02261-4.8036-37.62225-16.8927-48.8546-24.0087-62.883174-39.83821-105.801017-105.66689-116.5495688-178.76724-12.3978614-84.31721 17.7770348-169.33111 80.4108308-226.54721 37.272128-34.04816 85.310378-56.9043 134.935748-64.20113 41.54468-6.10866 87.08693-1.54127 125.34417 12.57065 13.02261 4.80364 37.62225 16.89267 48.8546 24.00868 60.99671 38.64309 103.17401 101.59236 115.55719 172.46813 7.5144 43.00912 3.27322 91.28067-11.56631 131.64329-8.95338 24.35268-25.74493 53.89744-41.9759 73.85671-8.06442 9.91683-26.65368 28.62302-36.01287 36.2394-52.02456 42.33682-118.29523 62.87072-184.5 57.16712zm52.5-52.39351c90.23812-14.10749 159.83271-84.87443 172.60537-175.51301 1.93465-13.72885 1.72081-42.98418-0.41299-56.5-14.73832-93.35495-86.95739-163.08717-180.18625-173.98158-16.53016-1.93166-28.55221-1.91787-45.48382 0.0522-31.49836 3.66493-63.26394 15.16559-89.29851 32.33033-51.305284 33.82586-84.023026 87.13002-91.205379 148.59295-1.931659 16.53016-1.917869 28.55221 0.05217 45.48382 4.622927 39.73192 21.019805 77.92317 46.592535 108.52231 27.997714 33.50077 65.868074 56.95975 108.940014 67.48346 6.38173 1.55924 15.83173 3.32602 21 3.92619s10.74686 1.28017 12.39686 1.51097c6.06547 0.8488 35.29475-0.3903 45-1.90761zm-86.4036-108.77775c-1.32198-0.67939-3.34698-2.50514-4.5-4.05721-2.06572-2.78065-2.10782-3.88553-2.87654-75.5-1.06974-99.65654-1.06491-99.75627 5.02627-103.74736 3.20299-2.09868 10.18222-2.03421 14.39238 0.13296 7.16289 3.68708 135.54111 78.80285 138.61254 81.10401 8.68261 6.50512 8.03558 16.55434-1.46201 22.7068-7.20896 4.66991-134.48746 77.8105-137.8497 79.21533-4.13784 1.7289-8.16145 1.7805-11.34294 0.14547z"/>
	</g>
</svg>
