<svg xmlns:inkscape="http://www.inkscape.org/namespaces/inkscape" xmlns:rdf="http://www.w3.org/1999/02/22-rdf-syntax-ns#" xmlns="http://www.w3.org/2000/svg" sodipodi:docname="plus-square.svg" height="512" width="512" version="1.1" xmlns:cc="http://creativecommons.org/ns#" xmlns:dc="http://purl.org/dc/elements/1.1/" inkscape:version="0.91 r13725" viewBox="0 0 511.99999 511.99999" xmlns:sodipodi="http://sodipodi.sourceforge.net/DTD/sodipodi-0.dtd">
	<sodipodi:namedview bordercolor="#666666" inkscape:pageshadow="2" inkscape:window-y="-8" pagecolor="#ffffff" inkscape:window-height="1017" inkscape:window-maximized="1" inkscape:zoom="0.49497475" inkscape:window-x="-8" showgrid="false" borderopacity="1.0" inkscape:current-layer="layer1" inkscape:cx="366.70293" inkscape:cy="269.41868" units="px" inkscape:window-width="1920" inkscape:pageopacity="0.0" inkscape:document-units="px"/>
	<g inkscape:label="Layer 1" inkscape:groupmode="layer" transform="translate(0 -540.36)">
		<path inkscape:connector-curvature="0" d="m81.563 1051.8c-23.274-2.6-44.945-14.1-59.75-31.8-10.205-12.1-16.725-25.52-20.097-41.22l-1.2563-5.85v-176.56-176.56l1.2461-5.7969c3.9541-18.395 12.3-33.835 25.332-46.867 15.133-15.133 34.266-24.147 55.855-26.313 4.1738-0.4189 54.841-0.5387 176.83-0.4179 158.52 0.1569 171.33 0.2354 175.77 1.0767 21.744 4.1224 39.838 14.267 53.842 30.188 10.146 11.535 17.484 26.271 21.011 42.192l1.1974 5.4056v177.1 177.1l-1.1974 5.4056c-1.8882 8.5248-4.1058 14.754-8.1105 22.781-4.6388 9.2984-9.3162 15.862-16.485 23.134-15.492 15.715-34.32 24.836-55.971 27.118-6.1474 0.6476-342.48 0.5967-348.21-0.053zm348.94-36.948c23.566-4.4703 41.208-22.957 44.367-46.49 0.6312-4.7024 0.7509-31.826 0.7584-171.78 0.01-115.14-0.1665-167.66-0.5622-170.98-2.5642-21.49-16.638-38.939-37.041-45.923-8.4351-2.8873 1.4401-2.7387-182.03-2.7387-183.38 0-173.54-0.1474-182.03 2.7262-5.2663 1.7828-12.371 5.7413-17.044 9.4962-9.7442 7.8301-16.156 18.251-19.312 31.387-0.91077 3.7907-0.96724 12.317-1.1378 171.78-0.1263 118.13-0.008 169.48 0.3984 173.5 2.4899 24.627 19.547 43.755 43.53 48.813 4.4123 0.9305 12.032 0.9745 175.14 1.0103 153.45 0.034 170.97-0.047 174.96-0.8048zm-178.03-109.27c-5.7361-1.1352-11.376-5.9005-13.406-11.327-1.1287-3.0166-1.1416-3.4827-1.1416-41.322v-38.271h-37.382c-40.363 0-41.019-0.041-45.449-2.8435-7.352-4.6505-10.532-13.871-7.5411-21.864 1.5407-4.118 5.4447-8.2367 9.6461-10.177l3.3459-1.545 38.69-0.1526 38.69-0.1527v-38.252c0-37.872 0.0112-38.282 1.1466-41.316 3.5912-9.5984 15.15-14.291 24.412-9.9098 4.1937 1.9837 7.1151 4.8168 8.9502 8.6799l1.3895 2.925 0.14306 38.956 0.14306 38.956h36.879c22.392 0 37.982 0.2091 39.687 0.5324 4.0266 0.7637 7.1169 2.4779 10.041 5.5696 3.5437 3.747 5.0026 7.7561 4.7463 13.044-0.30898 6.3737-3.1788 11.315-8.5421 14.707-4.4306 2.8021-5.0876 2.8433-45.439 2.8433h-37.372l-0.14306 38.956-0.14306 38.956-1.3871 2.925c-2.4964 5.2642-7.3817 8.994-13.235 10.104-3.1484 0.597-3.6156 0.5956-6.7282-0.02z"/>
	</g>
</svg>
