<?xml version="1.0" encoding="UTF-8" standalone="no"?>
<svg xmlns:rdf="http://www.w3.org/1999/02/22-rdf-syntax-ns#" xmlns="http://www.w3.org/2000/svg" height="512" width="512" version="1.1" xmlns:cc="http://creativecommons.org/ns#" xmlns:dc="http://purl.org/dc/elements/1.1/" viewBox="0 0 512.00001 512.00001">
	<g transform="translate(0 -540.36)">
		<path d="m249.38 1050.8c-1.7183-0.8788-4.2318-2.8066-5.5854-4.2839-2.66-2.9-150.68-215.13-152.69-218.94-2.098-3.95-1.008-7.49 2.9-9.45 3.1306-1.5639 7.1712-1.7486 38.282-1.75 37.31-0.002 39.104-0.21505 44.549-5.2993 6.0493-5.6482 5.6214 3.5609 6.1686-132.78l0.5-124.57 2.8144-4.2524c1.9488-2.9445 4.4093-4.995 8-6.6668l5.1856-2.4144 55.5-0.004c37.249-0.003 56.815 0.35717 59.5 1.0947 5.5071 1.5129 11.852 8.2588 13.345 14.189 0.84094 3.3397 1.161 37.304 1.177 124.89 0.021 114.83 0.10605 120.49 1.8681 124.31 2.2343 4.841 5.4 7.8876 10.341 9.9523 3.1022 1.2962 9.3569 1.548 38.486 1.5493 31.111 0.001 35.152 0.1861 38.282 1.75 3.9089 1.9527 4.9987 5.4999 2.9031 9.449-0.67112 1.2647-35.203 51.049-76.737 110.63-44.756 64.206-76.888 109.38-78.884 110.9-4.2378 3.2323-11.444 4.019-15.907 1.7364z"/>
	</g>
</svg>
