<?xml version="1.0" encoding="UTF-8" standalone="no"?>
<svg xmlns:rdf="http://www.w3.org/1999/02/22-rdf-syntax-ns#" xmlns="http://www.w3.org/2000/svg" height="512" width="512" version="1.1" xmlns:cc="http://creativecommons.org/ns#" xmlns:dc="http://purl.org/dc/elements/1.1/" viewBox="0 0 512.00001 512.00001">
	<g transform="translate(0 -540.36)">
		<path d="m196 1050.8c-1.925-0.8325-4.9748-2.9401-6.7774-4.6835-6.48-6.3-6.22-0.6-6.22-133.45 0-106.37-0.17985-120.78-1.5477-124.05-2.0647-4.9415-5.1113-8.1072-9.9523-10.341-3.6442-1.6819-7.1136-1.8482-39-1.8696-31.291-0.021-35.371-0.20882-38.5-1.772-3.9089-1.9527-4.9987-5.4999-2.9031-9.449 0.67112-1.2647 35.203-51.049 76.737-110.63 46.771-67.095 76.848-109.35 79.014-111 4.9921-3.8077 13.313-3.8077 18.306 0 2.1659 1.652 32.243 43.905 79.014 111 41.534 59.583 76.066 109.37 76.737 110.63 2.0956 3.9491 1.0058 7.4963-2.9031 9.449-3.1306 1.5639-7.1712 1.7486-38.282 1.75-37.31 0.002-39.104 0.21505-44.549 5.2993-6.0493 5.6482-5.6214-3.5609-6.1686 132.78l-0.5 124.57-2.8144 4.2524c-1.9488 2.9445-4.4093 4.995-8 6.6668l-5.1856 2.4144-56.5-0.029c-48.195-0.025-57.014-0.2518-60-1.543z"/>
	</g>
</svg>
