<svg xmlns:rdf="http://www.w3.org/1999/02/22-rdf-syntax-ns#" xmlns="http://www.w3.org/2000/svg" height="512" width="512" version="1.1" xmlns:cc="http://creativecommons.org/ns#" xmlns:dc="http://purl.org/dc/elements/1.1/" viewBox="0 0 512.00001 512.00001">
	<g transform="translate(0 -540.36)">
		<path d="m233 1051.2c-48.486-4.9995-93.309-22.366-130.64-50.616-89.647-67.82-124.63-184.81-87.122-291.29 12.007-34.08 33.545-67.94 60.138-94.53 39.584-39.584 90.256-64.774 146.61-72.881 16.59-2.3869 52.506-2.3869 69.096 0 56.35 8.1072 107.02 33.297 146.61 72.881 39.584 39.584 64.774 90.256 72.881 146.61 2.3869 16.59 2.3869 52.506 0 69.096-8.1072 56.35-33.297 107.02-72.881 146.61-38.955 38.955-88.679 64.038-143.29 72.282-15.425 2.3284-47.46 3.3013-61.394 1.8645zm43.561-30.044c58.294-5.3227 114.58-34.883 152.44-80.055 58.044-69.257 69.999-163.92 30.728-243.3-22.84-46.17-58.97-82.27-105.26-105.18-79.19-39.19-173.95-27.19-243.14 30.8-55.107 46.19-85.707 117.92-80.305 188.24 9.658 125.73 121.14 220.8 245.54 209.5zm19.53-79.51c-11.71-3.0528-16.297-4.9039-38.554-15.559-10.189-4.8777-21.351-9.8142-24.805-10.97-14.641-4.9-24.548-3.5648-34.625 4.6667-8.2622 6.7491-11.428 8.2842-17.089 8.286-13.126 0-22.218-13.642-16.742-25.13 1.1562-2.4255 5.5032-8.2403 9.66-12.922 11.937-13.443 18.872-26.499 21.923-41.267 1.5877-7.6866 2.1483-25.808 0.97927-31.653l-0.61462-3.0731-20.325-0.30661-20.325-0.30662-3.8453-3.0754c-2.1149-1.6915-4.6332-4.6205-5.5962-6.5091-2.3054-4.5212-2.2412-12.072 0.14224-16.742 4.3229-8.4699 8.8491-10.122 27.895-10.18 7.8484-0.0241 14.254-0.38192 14.234-0.79499-0.0196-0.41308-0.69798-3.4548-1.5075-6.7594-9.8351-40.15-6.2268-72.279 10.493-93.431 9.7119-12.286 25.826-22.167 43.916-26.928 8.3932-2.2088 11.842-2.561 25.243-2.5778 13.626-0.0171 16.744 0.30371 25.536 2.6277 24.741 6.5403 42.532 19.941 52.035 39.196 6.4204 13.008 9.4005 32.181 6.1946 39.853-3.2672 7.8196-13.442 12.948-21.484 10.83-9.2768-2.4438-13.047-7.5678-14.351-19.503-2.2246-20.368-13.978-31.344-37.943-35.434-9.2626-1.5806-10.657-1.5871-19.452-0.0908-11.359 1.9324-20.668 6.0458-27.1 11.975-5.4986 5.0684-7.9675 9.5477-9.9895 18.124-2.7424 11.632-1.93 22.528 3.586 48.098l3.1863 14.771 45.176 0.044c47.454 0.0462 50.049 0.26456 54.862 4.6175 3.5419 3.2031 5.8358 8.9362 5.8318 14.576-0.004 6.244-2.12 10.269-7.5928 14.444l-3.7614 2.8698-43.389 0.28094-43.389 0.28093v13.416c0 15.006-1.1599 25.121-4.1796 36.448-3.4444 12.92-3.5648 11.788 1.3362 12.571 8.1942 1.3082 21.811 6.5455 41.639 16.015 24.809 11.849 32.821 14.619 42.276 14.619 8.3035 0 14.518-2.6183 21.509-9.0629 7.5465-6.9561 14.49-8.5489 22.133-5.0771 6.6406 3.0164 11.505 10.515 11.447 17.645-0.0884 10.8-19.766 27.054-38.688 31.957-9.273 2.4028-24.805 2.0314-35.889-0.85809z"/>
	</g>
</svg>
