<?xml version="1.0" encoding="UTF-8" standalone="no"?>
<svg id="svg2" xmlns:rdf="http://www.w3.org/1999/02/22-rdf-syntax-ns#" xmlns="http://www.w3.org/2000/svg" height="512" width="512" version="1.1" xmlns:cc="http://creativecommons.org/ns#" xmlns:dc="http://purl.org/dc/elements/1.1/" viewBox="0 0 511.99999 511.99999">
	<g id="layer1" transform="translate(0,-540.3622)">
		<path id="path3464" d="m120.46976 1051.6082c-9.55464-2.2731-17.36581-8.716-21.656951-17.8632l-2.624942-5.5956-0.283729-67.80184-0.283728-67.80189-35.786722-0.30803-35.786721-0.30804-5.597415-2.62405c-7.114893-3.33543-12.4880368-8.70675-15.82461-15.81923l-2.624942-5.59551v-87.64144-87.64145l2.624942-5.59551c3.3365732-7.11247 8.709717-12.48379 15.82461-15.81923l5.597415-2.62405h231.953033 231.95303l5.59742 2.62405c7.11489 3.33544 12.48804 8.70676 15.8246 15.81923l2.62495 5.59551v87.64145 87.64144l-2.62495 5.59551c-3.33656 7.11248-8.70971 12.4838-15.8246 15.81923l-5.59742 2.62405-35.78672 0.30804-35.78672 0.30803-0.28373 67.80189-0.28373 67.80184-2.62494 5.5956c-3.33657 7.1124-8.70971 12.4837-15.82461 15.8192l-5.59741 2.624-133.76126 0.1588c-75.99394 0.09-135.39065-0.2288-137.53415-0.7388zm263.78073-143.15193v-112.18104h-128.25049-128.25049v112.18104 112.18103h128.25049 128.25049v-112.18103zm-224.43836 64.10346v-16.02586h96.18787 96.18787v16.02586 16.02586h-96.18787-96.18787v-16.02586zm0-64.10346v-16.02586h96.18787 96.18787v16.02586 16.02587h-96.18787-96.18787v-16.02587zm0-64.10345v-16.02586h64.12525 64.12524v16.02586 16.02586h-64.12524-64.12525v-16.02586zm296.38606-81.28347c14.72435-3.61422 25.66568-19.21821 23.9037-34.09028-3.14071-26.50931-35.5076-38.03311-54.23679-19.31028-7.48943 7.48688-10.9409 19.47665-8.53651 29.65416 4.08931 17.30948 21.57452 27.99163 38.8696 23.7464zm-360.318629-162.86055l0.308306-35.80778 2.624942-5.59552c3.336571-7.11247 8.709711-12.48379 15.824611-15.81923l5.59741-2.62405h135.76517 135.76517l5.59741 2.62405c7.1149 3.33544 12.48804 8.70676 15.82461 15.81923l2.62494 5.59552 0.30831 35.80778 0.30831 35.80779h-16.08914-16.08912v-32.05172-32.05173h-128.25049-128.25049v32.05173 32.05172h-16.08912-16.089135l0.308306-35.80779z"/>
	</g>
</svg>
