<?xml version="1.0" encoding="UTF-8" standalone="no"?>
<svg id="svg2" xmlns:rdf="http://www.w3.org/1999/02/22-rdf-syntax-ns#" xmlns="http://www.w3.org/2000/svg" height="512" width="512" version="1.1" xmlns:cc="http://creativecommons.org/ns#" xmlns:dc="http://purl.org/dc/elements/1.1/" viewBox="0 0 512.00001 512.00001">
	<g id="layer1" transform="translate(0,-540.36216)">
		<path id="path3555" d="m241 1051.7713c-37.75717-3.2547-67.76171-11.6248-97-27.0592-47.182502-24.90694-83.494675-62.63064-106.508584-110.64883-10.136391-21.14944-15.973461-39.75293-20.614515-65.70109-3.027054-16.92428-3.310501-56.47276-0.526781-73.5 7.326047-44.81138 24.062427-82.93374 51.365044-117 9.99626-12.47262 29.948316-31.85186 42.527676-41.30672 36.80226-27.66119 83.87735-45.47715 126.15487-47.74436 5.55626-0.29796 12.01479-0.77343 14.35229-1.05661l4.25-0.51486v-12.31628c0-14.38403 0.77961-16.03078 6.29803-13.30309 4.65342 2.30012 45.79693 36.17153 48.45197 39.8881 2.69985 3.7793 2.82952 6.42589 0.49474 10.09764-1.92829 3.03247-44.19678 39.13348-48.36221 41.30557-2.21398 1.1545-2.90768 1.15303-4.5-0.01-1.63709-1.19525-1.92588-3.02087-2.21505-14.00261l-0.33253-12.62817-8.66747 0.60412c-51.9911 3.62378-95.73696 22.71754-131.4861 57.38974-34.142583 33.11404-54.865559 75.16016-60.657061 123.07085-1.32309 10.94537-1.315432 35.68867 0.01415 45.70387 3.255846 24.52505 9.408419 45.3959 19.403946 65.82236 20.145952 41.16946 53.465515 74.44623 94.057585 93.93675 58.52573 28.10152 122.75404 27.39542 181.57904-1.99622 5.81848-2.90717 12.15932-5.58222 14.09077-5.94456 7.53362-1.41332 17.48058 4.02971 20.47915 11.20629 1.74208 4.16941 1.72813 11.48321-0.0297 15.57991-2.3766 5.5387-7.64232 9.3953-22.61924 16.5666-22.71245 10.8751-44.69118 17.6099-70.67692 21.657-9.58107 1.4922-40.3282 2.6787-49.32308 1.9034zm166.5-68.29916c-9.90296-4.57052-14.13062-15.85019-9.59868-25.60996 1.02157-2.2 5.17418-7.41221 9.22804-11.5827 5.92106-6.09141 8.30279-7.83725 12.1103-8.87706 14.4873-3.95639 27.74113 9.17622 23.84892 23.63078-1.48684 5.52171-13.6112 19.43538-19.36177 22.21918-5.34078 2.58543-10.93688 2.66122-16.22681 0.21976zm-192-48.93488c-44.55-15.2213-81.5625-28.03914-82.25-28.4841-1.91931-1.2422-1.52453-4.34897 1.86648-14.68851 3.87174-11.80535 5.43437-13.7033 9.97815-12.11933 1.80352 0.62871 3.57284 0.7997 3.93183 0.37999 0.35899-0.41972 3.03537-7.73813 5.94752-16.26313 6.38626-18.69509 9.04502-24.34876 13.71736-29.16903 5.50922-5.68365 12.76992-8.26953 40.52507-14.43288l25.7009-5.70718 1.54135-4.52359c0.84774-2.48798 1.54134-5.15086 1.54134-5.91752s-6.88221-9.574-15.29381-19.57187c-20.26365-24.08499-23.3387-28.30223-24.75748-33.95332-1.6492-6.56887-0.33379-12.57621 8.06675-36.83996l6.8497-19.78436-3.68258-1.80014c-4.89723-2.39391-4.94204-4.39349-0.3877-17.30015 3.31885-9.40533 3.97472-10.53134 6.29113-10.8006 2.58615-0.30061 164.2789 54.04098 166.66399 56.01233 1.90132 1.57149 1.53701 4.42182-1.87366 14.65946-3.87881 11.64282-5.3856 13.37921-10.40694 11.99275-2.01132-0.55535-3.77822-0.86443-3.92645-0.68684-0.14823 0.1776-2.87154 8.1979-6.0518 17.8229-7.38204 22.34163-9.3966 26.85724-14.40689 32.29276-5.91294 6.41479-12.29922 8.77805-41.31258 15.28786l-25.72831 5.77273-1.65767 4.99076c-1.36806 4.11887-1.43535 5.34673-0.38517 7.02835 0.69988 1.12068 7.85788 9.93283 15.90669 19.58257 19.08462 22.88061 20.82027 25.14933 22.72665 29.70677 2.49749 5.97055 1.18369 13.62072-6.0285 35.10353l-6.46774 19.26533 3.44524 1.43952c1.89489 0.79173 3.73901 2.20504 4.09805 3.14068 0.6667 1.7374-4.83041 19.06554-7.34057 23.13914-0.8025 1.30234-2.32441 2.21844-3.6134 2.17508-1.22482-0.0412-38.67695-12.52871-83.22695-27.75zm78.96424-29.33317c3.04467-9.16195 5.53576-17.78999 5.53576-19.17341 0-2.93861-2.89204-6.86722-20.00009-27.1685-20.38493-24.18979-21.99991-26.33971-21.99991-29.28704 0-3.99761 6.81005-23.73108 8.81616-25.54659 0.99519-0.90063 13.37393-4.14145 29.20557-7.64618 15.11305-3.34564 28.91108-6.54396 30.6623-7.10737 5.61027-1.80496 9.60941-7.50414 14.01858-19.97788 6.18598-17.50041 9.7406-28.82506 9.21325-29.35241-1.26654-1.26654-121.40887-41.47886-121.98757-40.82994-1.18376 1.32742-14.95841 43.67345-14.9431 45.93808 0.0158 2.33576 3.23289 6.49582 26.91909 34.80933 11.99556 14.339 15.06205 18.60979 15.07698 20.99812 0.0261 4.16841-6.69802 23.93853-8.77569 25.80229-0.95258 0.8545-14.6907 4.43925-31.11758 8.11966-30.55352 6.84545-33.70671 8.01213-37.55827 13.89651-2.67519 4.08715-13.35243 36.81457-12.15812 37.26654 0.62062 0.23487 28.1284 9.61394 61.1284 20.84238l60 20.41536 1.21424-2.67043c0.66783-1.46874 3.70533-10.16657 6.75-19.32852zm160.03576 17.22042c-12.80902-3.10723-18.54281-14.9319-13.47551-27.79024 4.76082-12.08066 8.07033-17.24335 12.84896-20.04381 8.80572-5.1605 20.25891-2.5187 25.87543 5.96845 4.17641 6.31097 3.86914 13.73339-1.02517 24.76441-3.84356 8.66276-7.30469 13.23712-11.72371 15.49449-3.46556 1.77031-8.93007 2.4727-12.5 1.6067zm15-74.72753c-4.45895-2.35599-6.4906-4.39939-8.72294-8.77338-1.76048-3.44945-1.95863-5.38278-1.5955-15.56761 0.3709-10.40303 0.69794-12.11247 3.10203-16.21474 3.10229-5.29366 10.76255-9.77907 16.70086-9.77907 4.89937 0 11.76779 3.70634 15.45758 8.34122 2.79167 3.50671 3.08769 4.59791 3.39927 12.53029 0.64434 16.4043-2.5147 24.88057-10.85939 29.13772-4.75397 2.42529-13.20994 2.58277-17.48191 0.32557zm-4.30734-74.68523c-5.96418-2.16087-9.94805-7.15932-12.78518-16.04123-3.72435-11.65944-4.16607-18.20106-1.57233-23.28522 5.25682-10.30421 15.96007-13.83585 26.61238-8.781 4.9257 2.3374 8.2333 7.55917 11.15599 17.61214 3.71777 12.78779 3.09134 19.32434-2.41714 25.22184-5.44951 5.83436-13.71501 7.9106-20.99372 5.27347zm-30.53747-69.06901c-4.75817-1.74505-7.62203-4.38623-13.09905-12.08056-6.11393-8.58908-7.55614-11.81191-7.55614-16.88524 0-5.61819 1.37495-9.31901 4.81362-12.95634 4.52561-4.78708 9.80237-6.93793 15.80071-6.4405 7.59419 0.62977 11.88736 3.92459 19.18301 14.72215 5.6956 8.42946 6.20266 9.61931 6.20266 14.55482 0 6.48895-1.24664 10.0744-4.81362 13.84439-5.32956 5.63289-13.66283 7.76024-20.53119 5.24128zm-51.76769-54.54326c-3.83522-1.1609-17.18159-10.40967-20.20272-14.00007-4.76617-5.66427-5.80076-12.98314-2.77662-19.64226 3.45314-7.60374 9.77994-11.6126 18.22386-11.5472 5.15604 0.0399 8.36159 1.4057 16.23729 6.91806 7.82163 5.47453 9.73356 7.3854 11.74065 11.73417 6.96539 15.09198-7.27461 31.36464-23.22246 26.5373z"/>
	</g>
</svg>
