<svg xmlns:rdf="http://www.w3.org/1999/02/22-rdf-syntax-ns#" xmlns="http://www.w3.org/2000/svg" height="512" width="512" version="1.1" xmlns:cc="http://creativecommons.org/ns#" xmlns:dc="http://purl.org/dc/elements/1.1/" viewBox="0 0 512.00001 512.00001">
	<g transform="translate(0 -540.36)">
		<path d="m165.3 1009.3c-49.75-16.08-91.15-29.97-92-30.81-1.368-1.37-1.575-12.76-1.809-99.8l-0.264-98.26-34.312-11.18c-38.935-12.69-38.798-12.61-33.894-19.87 2.3949-3.55 20.252-24.53 52.04-61.15l12.396-14.28-4.308-4.72c-2.37-2.59-16.253-17-30.851-32.02-14.599-15.01-26.81-28.06-27.138-28.98-0.89657-2.5381 0.097299-5.1476 2.4376-6.4001 1.933-1.0345 21.905-6.4078 137.3-36.939 26.538-7.0215 43.014-10.923 44.5-10.536 1.3154 0.34184 16.481 15.227 34.271 33.636 17.551 18.162 32.2 33.023 32.551 33.023 0.35184 0 15.017-14.869 32.588-33.042 17.995-18.611 32.976-33.3 34.302-33.634 1.4752-0.37158 29.456 6.5976 75 18.68 39.956 10.6 79.397 21.024 87.647 23.165 8.25 2.1408 16.243 4.3854 17.763 4.988 3.0422 1.2064 4.497 4.8742 3.1117 7.845-0.48091 1.0314-13.658 14.982-29.282 31.002s-29.266 30.217-30.314 31.55l-1.9062 2.4234 21.272 24.761c11.7 13.618 24.366 28.361 28.147 32.761 3.7811 4.4 7.7959 9.0241 8.9218 10.276 7.8637 8.742 9.4126 12.583 6.1912 15.352-0.87806 0.75484-16.741 6.3475-35.25 12.428l-33.654 11.056-0.25486 98.576c-0.20681 79.991-0.50273 98.782-1.5696 99.667-0.72313 0.60015-20.633 7.3557-44.245 15.012-52.892 17.152-136.58 44.165-137.93 44.524-0.55 0.1458-41.705-12.928-91.455-29.053zm80.955-126.57v-133.23l-2.9061 3.4778c-23.772 28.45-55.046 63.534-56.866 63.796-1.2159 0.17514-23.108-6.4624-48.649-14.75s-46.907-15.068-47.48-15.068c-0.71522 0-1.04 28.061-1.0352 89.439l0.007 89.44 17.214 5.5356c9.468 3.0446 44.214 14.303 77.214 25.019s60.562 19.502 61.25 19.525c0.99395 0.033 1.25-27.248 1.25-133.19zm62.209 120.15c45.496-14.762 107.02-34.654 110.79-35.82l2.5-0.77337 0.25535-89.667c0.14044-49.317-0.0178-89.667-0.35171-89.667-0.33387 0-21.396 6.75-46.805 15s-47.14 15-48.292 15c-2.2897 0-6.3046-4.2912-31.343-33.5-8.4864-9.9-18.475-21.49-22.197-25.756l-6.767-7.7563v133.01c0 84.179 0.35192 133.01 0.95864 133.01 0.52726 0 19.09-5.883 41.25-13.073zm-102.55-232.54c13.107-15.207 25.26-29.301 27.006-31.321l3.1746-3.6719-25.675-8.2576c-54.95-17.67-103.18-33.39-114.18-37.21-6.325-2.1973-12.458-4.2382-13.63-4.5353-1.7918-0.45447-6.0624 4.0368-26.913 28.303-13.631 15.864-25.844 30.002-27.14 31.418l-2.3561 2.5748 24.769 8.0982c13.623 4.454 41.644 13.574 62.269 20.267 20.625 6.6929 44.025 14.338 52 16.99 7.975 2.6515 15.026 4.8602 15.669 4.908 0.64285 0.0479 11.893-12.355 25-27.562zm200.72 3.2553c41.311-13.416 76.114-24.694 77.34-25.061 2.0112-0.6019-0.41158-3.733-24.844-32.106-18.744-21.767-27.688-31.439-29.074-31.439-1.1011 0-3.1964 0.68061-4.6562 1.5125-1.4599 0.83186-28.304 9.8024-59.654 19.934s-64.286 20.814-73.192 23.738l-16.192 5.3156 25.53 29.5c14.042 16.225 26.049 30.288 26.683 31.25 0.6337 0.9625 1.5565 1.75 2.0506 1.75 0.49412 0 34.698-10.977 76.009-24.394zm-119.38-60.49c48.563-15.728 114.36-37.163 116-37.788 1.5696-0.59926-4.0234-2.195-54-15.408-16.775-4.4348-34.775-9.2087-40-10.609-5.225-1.3998-19.31-5.138-31.299-8.307l-21.799-5.7619-73.914 19.579c-40.653 10.769-73.671 19.825-73.373 20.126 0.61033 0.61663 145.33 47.895 146.89 47.986 0.55 0.0322 14.725-4.3865 31.5-9.8194zm-187.13-55.7c9.6951-2.5199 21.002-5.4623 25.127-6.5387 30.773-8.0302 107.76-27.88 108.13-27.88 0.25274 0-11.035-11.461-25.085-25.469l-25.544-25.469-26.5 6.8761c-14.575 3.7819-47.65 12.333-73.5 19.002-25.85 6.6692-47.786 12.448-48.747 12.843-1.4091 0.57822 3.0153 5.606 22.851 25.967 13.529 13.888 24.833 25.25 25.12 25.25 0.28692 0 8.454-2.0617 18.149-4.5816zm355.05-20.668c19.573-19.859 24.519-25.389 23.161-25.902-0.94939-0.3586-34.86-9.2517-75.356-19.762l-73.63-19.11-25.298 25.53c-13.914 14.042-25.139 25.522-24.946 25.512 0.51503-0.0258 48.791 12.463 102.65 26.554 25.85 6.7634 47.345 12.327 47.767 12.363 0.42176 0.0361 11.966-11.297 25.654-25.184z"/>
	</g>
</svg>
