<?xml version="1.0" encoding="UTF-8" standalone="no"?>
<svg id="svg3357" xmlns:rdf="http://www.w3.org/1999/02/22-rdf-syntax-ns#" xmlns="http://www.w3.org/2000/svg" viewBox="0 0 512 512" version="1.1" xmlns:cc="http://creativecommons.org/ns#" xmlns:dc="http://purl.org/dc/elements/1.1/">
	<path id="path3497" d="m75.1444 473.23631 0.34657-38.76368 2.63721-7.31035c1.45047-4.02069 4.58562-10.72016 6.967-14.88771 5.40341-9.45629 18.77581-23.7991 27.75847-29.77288 8.197-5.45128 68.32372-34.26895 68.7935-32.97151 0.18177 0.50204 9.30809 19.57932 20.28069 42.39396 18.9647 39.4321 20.0032 41.33458 21.02332 38.5136 0.59022-1.63217 5.23145-14.22155 10.31384-27.97641l9.2407-25.00882 4.45963 0.47258c6.51836 0.69076 11.92222 0.62465 16.50706-0.20191l4.04742-0.72969 9.37591 25.73852c5.15675 14.15617 9.671 26.08922 10.03167 26.51787 0.36067 0.42866 9.33373-17.35262 19.94015-39.51395 10.60642-22.16132 19.60656-40.64416 20.00032-41.07299 0.90195-0.98228 62.47396 28.48992 70.5616 33.77518 11.85187 7.74517 26.06544 24.50614 31.66608 37.34139 5.61485 12.86782 5.82942 14.8906 5.82942 54.95415v37.26633h-180.06357-180.06357l0.34658-38.76368zm171.9418-126.37052c-18.82577-2.44307-36.65686-13.14548-51.54024-30.93499-8.27901-9.89558-11.70527-15.05384-17.07857-25.71189-20.45626-40.57546-21.72695-83.92027-3.37523-115.13401 4.64433-7.89938 17.93799-21.00917 26.39028-26.02531 32.71804-19.41695 80.63675-18.29523 111.06441 2.59987 16.39978 11.26197 26.99275 27.0412 33.04976 49.23074 2.82923 10.36473 2.56274 38.22789-0.49637 51.89881-9.83327 43.94403-37.39959 80.29774-69.05588 91.069-5.47598 1.86324-18.48967 4.22668-21.6194 3.92635-0.55-0.0528-3.85244-0.46614-7.33876-0.91857zm124.66573-113.30557c-4.77017-1.73779-8.97325-3.4628-9.34019-3.83337-0.93973-0.94902 5.71286-20.83077 6.97587-20.84789 0.57054-0.008 5.1554 1.42691 10.18858 3.1881l9.15123 3.20217-3.48422 10.06657c-1.91632 5.53662-3.78437 10.363-4.15123 10.7253-0.36685 0.3623-4.56987-0.7631-9.34004-2.50088zm-252.73052-1.842c-0.49781-1.27488-2.26072-5.31503-3.91759-8.97811l-3.01247-6.66014 8.42267-3.75434c4.63247-2.06488 8.56188-3.5694 8.73201-3.34338 0.30378 0.40356 6.46325 14.26362 7.38461 16.61687 0.27979 0.71462-2.18273 2.40388-6.08345 4.17318-9.98128 4.52732-10.48463 4.61231-11.52578 1.94592zm-15.0246-35.36714c-4.09038-10.93638-2.52531-16.23847 8.34048-28.25557 5.95155-6.58217 6.58767-7.6982 6.58767-11.55774 0-7.98846-7.08631-18.67058-12.38486-18.66931-2.67035 0.00064-12.01876 3.51505-16.61514 6.24624-9.239 5.48988-9.74445 7.71778-4.53575 19.99251 0.60341 1.42198-0.64308 2.35854-6.98978 5.25185-4.24829 1.93669-8.05768 3.52125-8.46532 3.52125-1.55562 0-5.3409-12.81101-5.76372-19.50688-0.416449-6.59514-0.260279-7.25157 2.68466-11.28461 3.88564-5.32133 10.86654-9.84635 23.55954-15.2713 8.09569-3.46009 11.23504-4.2738 17.91317-4.64306 6.50502-0.3597 8.7789-0.0901 11.56405 1.37067 5.29397 2.77677 11.42887 11.13258 15.03427 20.47687 2.68781 6.96616 3.13079 9.24069 2.67117 13.71547-0.60197 5.8606-1.85647 8.00145-11.00305 18.77721-5.39872 6.36034-5.79591 7.16583-5.36047 10.87075 0.25865 2.20078 0.78968 4.78019 1.18006 5.73201 0.5805 1.41536-0.6972 2.37202-7.01436 5.25186-4.24829 1.93669-8.08565 3.52125-8.52746 3.52125-0.44182 0-1.73564-2.49276-2.87516-5.53947zm279.67815-0.75443c-5.78073-2.09188-8.74973-3.68288-8.74921-4.68845 0.001-2.55817 5.63593-13.60869 8.14037-15.96479 3.8597-3.63109 8.75428-5.12599 20.03925-6.12035 5.87423-0.5176 11.72423-1.34426 13-1.83702 8.1636-3.15313 14.17469-22.13722 8.82748-27.8788-4.33816-4.65811-24.67225-11.08127-29.3946-9.28519-2.98455 1.13512-7.15295 7.20118-8.09879 11.78576-0.3676 1.78182-1.02243 3.45858-1.45517 3.72611-0.60847 0.37619-18.64572-5.03771-19.81783-5.94834-0.54818-0.42588 5.60849-14.32426 8.08081-18.24205 7.38577-11.70395 19.2808-13.50707 41.03057-6.21971 17.074 5.72073 27.07356 12.05831 30.63372 19.41521 3.75522 7.76 2.26394 21.16142-3.86286 34.71372-5.34488 11.8227-10.74498 15.19532-26.74087 16.70094-13.44102 1.26514-16.58526 2.67579-18.98761 8.5187-1.04239 2.53529-2.34526 4.58283-2.89526 4.55012-0.55-0.0327-4.9375-1.48436-9.75-3.22586zm-173.69934-75.79526c-4.64714-2.20362-8.61243-4.16972-8.81176-4.36912-0.45935-0.45951 9.60109-20.579493 10.2902-20.579493 0.28098 0 4.55334 2.030969 9.49414 4.513265l8.98328 4.513268-5.01238 9.99185c-2.75681 5.49552-5.34577 9.97947-5.75326 9.96432-0.40748-0.0151-4.54308-1.83048-9.19022-4.03409zm17.44934-36.11942c-4.4-2.237577-8.2115-4.264794-8.46999-4.504927-0.81651-0.758507 4.33012-9.677402 7.84357-13.592586 4.9375-5.502052 11.34686-7.12644 24.56318-6.225295 8.59642 0.586139 10.88189 0.423863 13.84579-0.983093 3.82193-1.814267 7.34744-6.490996 10.03445-13.311099 3.87697-9.840417 1.75123-13.697397-10.95786-19.882192-5.74205-2.79433-11.49143-4.854773-14.2998-5.124717-4.33969-0.417136-4.90964-0.198365-7.497 2.877623-1.54014 1.830995-3.71184 5.206058-4.82599 7.500139l-2.02575 4.171058-8.6053-3.951016c-4.73291-2.17306-8.98965-4.330126-9.45941-4.793481-0.46975-0.463355 0.81339-3.699124 2.85143-7.190598 8.741-14.974627 15.14803-19.54864624 25.967-18.53799853 16.95724 1.58405073 45.5218 18.23451153 50.10444 29.20619653 3.15542 7.554644 1.14441 18.598155-5.73624 31.50079-4.70274 8.818592-5.99893 10.402298-11.33252 13.846177-3.72645 2.40616-5.03579 2.61962-19.14622 3.121394-16.47858 0.585986-17.74428 1.025661-20.98184 7.288628-0.78281 1.514333-1.97424 2.73083-2.64762 2.703326-0.67338-0.0275-4.82432-1.880752-9.22432-4.118329z"/>
</svg>
