<?xml version="1.0" encoding="UTF-8" standalone="no"?>
<svg xmlns:rdf="http://www.w3.org/1999/02/22-rdf-syntax-ns#" xmlns="http://www.w3.org/2000/svg" height="512" width="512" version="1.1" xmlns:cc="http://creativecommons.org/ns#" xmlns:dc="http://purl.org/dc/elements/1.1/" viewBox="0 0 512.00001 512.00001">
	<g transform="translate(0 -540.36)">
		<path d="m233.5 1051.3c-12.795-2.7417-22.555-8.1183-31.014-17.086-11.903-12.617-17.286-27.856-16.169-45.767 1.0322-16.549 6.4925-28.974 17.634-40.127 11.829-11.841 24.746-17.058 42.549-17.185 24.948-0.17784 45.447 11.151 55.637 30.747 5.4201 10.424 6.9779 17.024 7.0481 29.862 0.10223 18.703-4.998 31.604-17.333 43.846-11.672 11.583-25.559 16.867-43.832 16.677-5.7861-0.06-12.32-0.4953-14.52-0.9667zm-37.55-172.79c-1.3271-0.44182-0.3819-24.56 1.641-41.874 1.5003-12.842 4.1522-21.741 8.885-29.817 7.6336-13.026 33.466-35.146 73.528-62.961 16.069-11.157 28.631-27.495 34.524-44.9 4.5907-13.56 0.20264-35.918-10.127-51.596-9.48-14.38-23.45-20.14-48.9-20.13-15.537 0.004-23.203 1.4523-32.5 6.1422-16.25 8.1973-30.191 34.2-31.894 59.491l-0.60606 9-50.25 0.25925c-47.394 0.24452-50.249 0.15928-50.234-1.5 0.0087-0.96759 0.46299-7.1592 1.0095-13.759 6.469-78.13 46.994-126.95 117.97-142.13 21.97-4.6983 64.929-4.9042 85.429-0.40948 2.2389 0.49087 7.6707 1.6573 12.071 2.5921 36.752 7.808 72.111 28.277 90.397 52.329 18.473 24.298 25.947 49.933 24.869 85.301-0.40832 13.403-0.98284 18.202-3.2108 26.817-1.4924 5.771-3.0444 10.946-3.4488 11.5-0.40438 0.55404-2.0399 4.1573-3.6344 8.0073-4.974 12.01-13.23 24.128-23.472 34.455-11.229 11.321-32.991 28.951-52.733 42.72-32.218 22.47-40.351 34.088-42.082 60.116l-0.68471 10.291-47.749 0.20892c-26.262 0.11491-48.224 0.0506-48.805-0.14282z"/>
	</g>
</svg>
