<svg xmlns:rdf="http://www.w3.org/1999/02/22-rdf-syntax-ns#" xmlns="http://www.w3.org/2000/svg" height="512" width="512" version="1.1" xmlns:cc="http://creativecommons.org/ns#" xmlns:dc="http://purl.org/dc/elements/1.1/" viewBox="0 0 512.00001 512.00001">
	<g transform="translate(0 -540.36)">
		<path d="m104.57 974.79c-51.223-7.11-91.964-45.13-102.25-95.44-5.7519-28.13-0.45-91.45 11.922-142.37 9.598-39.5 29.139-89.22 44.583-113.43l3.9931-6.2597h43.593c23.976 0 43.593 0.30381 43.593 0.67513 0 0.37133-2.2258 8.5966-4.9462 18.278-11.601 41.286-18.893 74.209-19.798 89.383l-0.57735 9.6827 4.8985 0.63511c13.528 1.754 19.688 3.0273 27.934 5.7743 41.253 13.743 71.179 47.633 80.271 90.907 1.2437 5.9189 1.7888 12.939 1.7888 23.036 0 21.354-3.8037 37.27-13.214 55.29-16.834 32.237-47.133 55.047-82.868 62.384-9.7645 2.0048-29.587 2.7415-38.926 1.4467zm33.918-41.014c30.22-8.4083 51.465-29.666 59.546-59.578 1.895-7.015 2.4299-21.883 1.0879-30.237-2.6775-16.669-9.6642-30.73-21.415-43.101-15.026-15.818-31.29-23.263-55.243-25.287-14.559-1.2299-19.742-3.1149-26.128-9.5009-12.582-12.582-14.389-35.274-6.0252-75.661 3.0147-14.556 5.5995-25.739 7.2348-31.299 0.45143-1.5349-0.2485-1.7527-5.631-1.7527h-6.1465l-5.459 11.484c-14.602 30.719-27.42 72.357-33.926 110.2-6.0486 35.185-8.2755 81.853-4.5404 95.148 7.9097 28.155 26.921 48.754 53.079 57.511 3.5806 1.1987 8.7636 2.586 11.518 3.0828 6.2431 1.1262 26.68 0.47857 32.05-1.0156zm238.51 41.014c-51.221-7.1022-91.962-45.128-102.25-95.433-5.7528-28.137-0.45095-91.457 11.921-142.37 9.5984-39.501 29.139-89.217 44.583-113.43l3.9931-6.2597h43.593c23.976 0 43.593 0.30381 43.593 0.67513 0 0.37133-2.2258 8.5966-4.9462 18.278-11.601 41.286-18.893 74.209-19.798 89.383l-0.57735 9.6827 4.8985 0.63511c13.528 1.754 19.688 3.0273 27.934 5.7743 41.253 13.743 71.179 47.633 80.271 90.907 1.2437 5.9189 1.7888 12.939 1.7888 23.036 0 21.354-3.8037 37.27-13.214 55.29-16.834 32.237-47.133 55.047-82.868 62.384-9.7645 2.0048-29.587 2.7415-38.926 1.4467zm33.918-41.014c30.22-8.4083 51.465-29.666 59.546-59.578 1.895-7.015 2.4299-21.883 1.0879-30.237-2.6775-16.669-9.6642-30.73-21.415-43.101-15.026-15.818-31.29-23.263-55.243-25.287-14.559-1.2299-19.742-3.1149-26.128-9.5009-12.582-12.582-14.389-35.274-6.0252-75.661 3.0147-14.556 5.5995-25.739 7.2348-31.299 0.45143-1.5349-0.24851-1.7527-5.631-1.7527h-6.1465l-5.459 11.484c-14.602 30.719-27.42 72.357-33.926 110.2-6.0486 35.185-8.2755 81.853-4.5404 95.148 7.9097 28.155 26.921 48.754 53.079 57.511 3.5806 1.1987 8.7636 2.586 11.518 3.0828 6.2431 1.1262 26.68 0.47857 32.05-1.0156z"/>
	</g>
</svg>
