<svg xmlns:inkscape="http://www.inkscape.org/namespaces/inkscape" xmlns:rdf="http://www.w3.org/1999/02/22-rdf-syntax-ns#" xmlns="http://www.w3.org/2000/svg" sodipodi:docname="remove-stroke.svg" height="512" width="512" version="1.1" xmlns:cc="http://creativecommons.org/ns#" xmlns:dc="http://purl.org/dc/elements/1.1/" inkscape:version="0.91 r13725" viewBox="0 0 512.00001 512.00001" xmlns:sodipodi="http://sodipodi.sourceforge.net/DTD/sodipodi-0.dtd">
	<sodipodi:namedview bordercolor="#666666" inkscape:pageshadow="2" inkscape:window-y="-8" pagecolor="#ffffff" inkscape:window-height="1017" inkscape:window-maximized="1" inkscape:zoom="0.35" inkscape:window-x="-8" showgrid="false" borderopacity="1.0" inkscape:current-layer="layer1" inkscape:cx="-126.42857" inkscape:cy="520" units="px" inkscape:window-width="1920" inkscape:pageopacity="0.0" inkscape:document-units="px"/>
	<g inkscape:label="Layer 1" inkscape:groupmode="layer" transform="translate(0 -540.36)">
		<path inkscape:connector-curvature="0" d="m77.278 981.43c-8.2201-4.9758-11.27-16.106-6.5458-23.886 1.1814-1.9454 37.592-38.979 80.912-82.297l78.77-78.76-79.37-79.41c-55.701-55.73-79.824-80.52-80.912-83.16-2.1199-5.1361-1.9461-9.442 0.59285-14.687 3.021-6.2405 8.6933-9.8069 15.443-9.7093 2.8628 0.0413 6.5576 0.79251 8.2107 1.6692 1.6531 0.87668 38.477 37.096 81.832 80.488 43.354 43.392 79.101 78.894 79.438 78.894 0.33619 0 36.278-35.652 79.87-79.227 80.764-80.731 82.664-82.473 89.97-82.473 3.4701 0 9.5816 2.3985 12.33 4.839 2.5 2.2199 5.6561 9.0807 5.6775 12.342 0.0546 8.3295 1.7037 6.5162-81.918 90.076-43.865 43.832-79.754 80.035-79.754 80.451 0 0.4163 35.894 36.688 79.764 80.605 72.857 72.933 79.867 80.238 80.946 84.356 2.118 8.0795-2.0312 16.946-9.5223 20.348-5.0727 2.3037-9.5856 2.4186-14.534 0.37009-2.6318-1.0895-27.558-25.341-83.203-80.953l-79.446-79.397-78.717 78.794c-43.294 43.337-80.309 79.764-82.254 80.949-4.929 3.0033-12.397 2.9066-17.575-0.22739z"/>
	</g>
</svg>
