<svg xmlns:rdf="http://www.w3.org/1999/02/22-rdf-syntax-ns#" xmlns="http://www.w3.org/2000/svg" height="512" width="512" version="1.1" xmlns:cc="http://creativecommons.org/ns#" xmlns:dc="http://purl.org/dc/elements/1.1/" viewBox="0 0 512.00001 512.00001">
	<g transform="translate(0 -540.36)">
		<path d="m499.35 988.01c5.2635-0.81662 9.4357-3.925 11.696-8.714 1.4801-3.1356 1.5287-3.5029 1.5291-11.56 0.002-43.991-13.453-92.57-36.613-132.19-30.994-53.016-78.543-94.113-134.97-116.66-27.06-10.811-55.641-17.095-85.353-18.766-5.392-0.30338-21.732-0.55153-36.312-0.55153h-26.508v-39.92c0-24.063-0.20882-41.023-0.52572-42.698-0.28914-1.5281-0.93955-3.6604-1.4454-4.7386-1.3769-2.9349-5.5653-6.774-8.474-7.7673-3.2202-1.0997-8.3256-1.0973-11.673 0.006-2.4156 0.79588-9.0822 7.3318-84.711 83.051-92.459 92.57-85.6 85.078-85.129 92.976 0.16967 2.8476 0.6226 4.8905 1.4501 6.5406 0.8709 1.7365 23.718 24.983 82.687 84.134 90.682 90.961 84.141 84.9 91.631 84.9 3.3173 0 4.3298-0.24435 7.2142-1.7409 3.5948-1.865 6.62-5.2275 7.9453-8.8309 0.57733-1.5698 0.75546-10.252 0.89625-43.685l0.17573-41.725h45.923c52.747 0 60.804 0.41112 79.862 4.0748 48.965 9.4132 93.339 33.265 127.99 68.798 13.53 13.873 23.19 26.291 34.226 43.999 1.9517 3.1313 4.4258 6.4653 5.4982 7.4089 3.589 3.1582 8.0577 4.4142 12.986 3.6495zm-48.805-95.201c-32.719-27.514-71.976-47.449-112.74-57.254-13.801-3.3191-25.935-5.2576-41.765-6.6723-7.0506-0.63011-19.955-0.78576-65.554-0.79107-55.451-0.01-56.842 0.018-59.615 1.0583-3.1592 1.1846-6.8591 4.5047-8.4124 7.5486-0.54673 1.0714-1.1986 3.2549-1.4485 4.8522-0.24992 1.5973-0.43645 15.658-0.41449 31.246 0.022 15.588-0.0802 28.341-0.22697 28.341-0.14679 0-27.5-27.295-60.786-60.656l-60.519-60.656 60.521-60.654c33.286-33.36 60.64-60.654 60.786-60.654 0.14582 0.00013 0.21258 12.418 0.14836 27.595-0.12009 28.375 0.14023 33.321 1.9384 36.837 1.37 2.6783 4.3061 5.4983 7.3448 7.0544l2.5384 1.2999 42.297 0.32151c44.566 0.33876 47.675 0.492 64.377 3.1734 69.248 11.117 130.02 52.292 167.19 113.28 10.615 17.414 21.725 43.365 26.246 61.306 0.44565 1.7683 0.95107 3.695 1.1232 4.2816 0.17209 0.58661-3.5132-2.668-8.1896-7.2325s-11.354-10.697-14.839-13.627z"/>
	</g>
</svg>
