<svg xmlns:rdf="http://www.w3.org/1999/02/22-rdf-syntax-ns#" xmlns="http://www.w3.org/2000/svg" height="512" width="512" version="1.1" xmlns:cc="http://creativecommons.org/ns#" xmlns:dc="http://purl.org/dc/elements/1.1/" viewBox="0 0 512.00001 512.00001">
	<g transform="translate(0 -540.36)">
		<path d="m13.225 988.01c-5.2632-0.81-9.4353-3.91-11.696-8.69-1.48-3.13-1.5286-3.5-1.529-11.53-0.0020013-43.9 13.453-92.37 36.613-131.89 30.994-52.897 78.543-93.903 134.97-116.4 27.06-10.787 55.641-17.057 85.353-18.725 5.392-0.3027 21.732-0.5503 36.312-0.5503h26.508v-39.83c0-24.009 0.20882-40.932 0.52572-42.603 0.28914-1.5246 0.93956-3.6522 1.4454-4.728 1.3769-2.9284 5.5653-6.7589 8.474-7.75 3.2202-1.0972 8.3256-1.0948 11.673 0.006 2.4156 0.7941 9.0822 7.3154 84.711 82.865 92.459 92.363 85.6 84.888 85.129 92.769-0.16967 2.8412-0.6226 4.8796-1.4501 6.526-0.8709 1.7326-23.718 24.928-82.687 83.946-90.682 90.758-84.141 84.711-91.631 84.711-3.3172 0-4.3298-0.2438-7.2142-1.737-3.5948-1.8608-6.62-5.2158-7.9453-8.8112-0.57733-1.5663-0.75545-10.229-0.89625-43.587l-0.17573-41.632h-45.923c-52.747 0-60.804 0.4102-79.862 4.0657-48.965 9.3922-93.339 33.191-127.99 68.645-13.53 13.842-23.19 26.232-34.226 43.9-1.9517 3.1243-4.4258 6.4509-5.4982 7.3924-3.589 3.1512-8.0577 4.4043-12.986 3.6414zm48.805-94.988c32.719-27.452 71.976-47.343 112.74-57.126 13.801-3.3117 25.935-5.2459 41.765-6.6574 7.0506-0.6287 19.955-0.784 65.554-0.7893 55.451-0.01 56.842 0.018 59.615 1.0559 3.1592 1.182 6.8591 4.4946 8.4124 7.5318 0.54673 1.069 1.1985 3.2476 1.4485 4.8414 0.24993 1.5937 0.43645 15.623 0.41449 31.176-0.022 15.553 0.0802 28.278 0.22697 28.278 0.14679 0 27.5-27.234 60.786-60.52l60.519-60.52-60.521-60.519c-33.286-33.285-60.64-60.519-60.786-60.519-0.14583 0.00013-0.21259 12.39-0.14836 27.533 0.12008 28.311-0.14024 33.247-1.9385 36.755-1.37 2.6723-4.3061 5.486-7.3448 7.0386l-2.5384 1.297-42.297 0.3208c-44.566 0.338-47.675 0.4909-64.377 3.1663-69.248 11.092-130.02 52.175-167.19 113.03-10.615 17.375-21.725 43.268-26.246 61.169-0.44565 1.7644-0.95107 3.6868-1.1232 4.272-0.17209 0.5853 3.5132-2.6621 8.1896-7.2164s11.354-10.673 14.839-13.597z"/>
	</g>
</svg>
