<?xml version="1.0" encoding="UTF-8" standalone="no"?>
<svg id="svg2" xmlns:rdf="http://www.w3.org/1999/02/22-rdf-syntax-ns#" xmlns="http://www.w3.org/2000/svg" height="512" width="512" version="1.1" xmlns:cc="http://creativecommons.org/ns#" xmlns:dc="http://purl.org/dc/elements/1.1/" viewBox="0 0 512.00001 512.00001">
	<g id="layer1" transform="translate(0,-540.36216)">
		<path id="path3568" d="m390 1051.7143c-20.40584-3.0647-35.72439-8.7241-50.5-18.6571-8.36184-5.6213-22.56646-19.7021-28.37386-28.1266-8.74772-12.68985-14.94223-27.27074-18.29706-43.06842-1.64468-7.74466-1.64468-33.25534 0-41 5.01564-23.61829 15.26193-42.44445 31.92029-58.64917 16.28905-15.84547 33.74776-25.07756 56.75063-30.0095 7.76242-1.6643 33.23758-1.6643 41 0 23.00287 4.93194 40.46158 14.16403 56.75063 30.0095 14.21411 13.82704 23.44101 29.07468 29.43934 48.64917 2.64598 8.63469 2.75792 9.87269 2.75792 30.5s-0.11194 21.86531-2.75792 30.5c-3.36141 10.96936-9.12461 23.30464-14.77722 31.62852-5.47933 8.0686-17.57554 20.6917-25.86167 26.9881-13.09296 9.9489-33.92144 18.368-51.48541 20.811-7.31597 1.0175-21.14577 1.2386-26.56567 0.4245zm-3.3151-47.3984c3.18248-1.1828 88.66163-85.97898 90.88019-90.15406 1.83556-3.45432 1.83681-9.14119 0.003-12.59932-1.71458-3.23289-33.13032-34.51095-36.25212-36.09324-3.03928-1.54047-8.89781-1.38196-12.1154 0.32781-4.17508 2.21856-88.97128 87.69771-90.15408 90.88019-0.57567 1.5483-1.04649 10.14003-1.04649 19.09272 0 15.06359 0.17174 16.60238 2.30274 20.63216 1.57392 2.97633 3.68095 5.08334 6.65728 6.65724 4.02978 2.131 5.56857 2.3028 20.63216 2.3028 8.95269 0 17.54442-0.4708 19.09272-1.0463zm-35.58984-12.33918c-0.78074-0.94073-1.0608-6.08124-0.87245-16.01396l0.27739-14.6285 15.98828 16.01396 15.98828 16.01396h-15.11584c-11.66096 0-15.37864-0.31666-16.26566-1.38546zm22.90273-23.11675-16.47948-16.50222 26.98202-26.9959 26.98201-26.9959 16.76094 16.73919 16.76093 16.73918-26.74516 26.75893c-14.70984 14.71741-26.9784 26.75893-27.26347 26.75893s-7.93408-7.426-16.99779-16.50221zm61.00996-60.99003-16.46952-16.49224 6.95407-7.00776c4.14853-4.18056 7.7892-7.00776 9.02411-7.00776 2.5782 0 31.48359 28.84909 31.48359 31.42227 0 1.60071-12.4945 15.57773-13.92543 15.57773-0.32852 0-8.00858-7.42151-17.06682-16.49224zm-347.506314-55.50606-86.99856444-87.00314 87.24856444-87.24856 87.248564-87.24857v38.70289 38.70288l96.25 0.35957c103.14018 0.38531 100.52086 0.26432 120.25 5.55466 49.81611 13.3581 90.72112 50.3175 109.5834 99.01318 7.17594 18.52571 9.89969 34.30387 10.62931 61.57353l0.58617 21.90813-10.64362-11.01682c-20.97008-21.70534-45.36323-35.15621-74.31599-40.9793-12.17828-2.44934-40.37567-2.47586-52.41547-0.0493-23.2824 4.69246-43.986 14.45218-62.95895 29.67898l-6.29262 5.05017h-65.32687-65.32686l-0.25925 50.00241-0.25925 50.00242-86.998564-87.00313z"/>
	</g>
</svg>
