<?xml version="1.0" encoding="UTF-8" standalone="no"?>
<!-- Created with Inkscape (http://www.inkscape.org/) -->

<svg
   xmlns:dc="http://purl.org/dc/elements/1.1/"
   xmlns:cc="http://creativecommons.org/ns#"
   xmlns:rdf="http://www.w3.org/1999/02/22-rdf-syntax-ns#"
   xmlns:svg="http://www.w3.org/2000/svg"
   xmlns="http://www.w3.org/2000/svg"
   xmlns:sodipodi="http://sodipodi.sourceforge.net/DTD/sodipodi-0.dtd"
   xmlns:inkscape="http://www.inkscape.org/namespaces/inkscape"
   width="512"
   height="512"
   viewBox="0 0 512.00001 512.00001"
   id="svg2"
   version="1.1"
   inkscape:version="0.91 r13725"
   sodipodi:docname="request-add.svg">
  <defs
     id="defs4" />
  <sodipodi:namedview
     id="base"
     pagecolor="#ffffff"
     bordercolor="#666666"
     borderopacity="1.0"
     inkscape:pageopacity="0.0"
     inkscape:pageshadow="2"
     inkscape:zoom="0.35298993"
     inkscape:cx="1325.1629"
     inkscape:cy="298.26586"
     inkscape:document-units="px"
     inkscape:current-layer="svg2"
     showgrid="false"
     units="px"
     inkscape:window-width="1920"
     inkscape:window-height="1057"
     inkscape:window-x="-8"
     inkscape:window-y="-8"
     inkscape:window-maximized="1" />
  <metadata
     id="metadata7">
    <rdf:RDF>
      <cc:Work
         rdf:about="">
        <dc:format>image/svg+xml</dc:format>
        <dc:type
           rdf:resource="http://purl.org/dc/dcmitype/StillImage" />
        <dc:title></dc:title>
      </cc:Work>
    </rdf:RDF>
  </metadata>
  <path
     style="fill:#000000"
     d="M 381.66048,496.83548 C 366.33376,494.03268 348.23562,486.32792 336,477.39686 313.13505,460.7072 296.78419,434.48843 291.92813,406.72715 c -1.71731,-9.8176 -1.71731,-28.71779 0,-38.53539 3.90817,-22.34234 15.37389,-44.0783 31.66691,-60.03205 15.88576,-15.55497 36.70572,-26.26856 58.43456,-30.06942 9.8176,-1.71731 28.71779,-1.71731 38.53539,0 45.65993,7.98692 82.11455,44.44155 90.10147,90.10147 1.71732,9.8176 1.71732,28.71779 0,38.53539 -7.98692,45.65992 -44.44154,82.11455 -90.10147,90.10147 -9.25925,1.61964 -30.06515,1.62332 -38.90451,0.007 z m 34.95612,-46.28394 c 4.19618,-1.4628 4.57259,-3.45604 4.57259,-24.21386 l 0,-18.98633 18.98633,0 c 20.75782,0 22.75106,-0.37641 24.21386,-4.5726 1.17916,-3.38252 1.17916,-27.25607 0,-30.63859 -1.4628,-4.19619 -3.45604,-4.5726 -24.21386,-4.5726 l -18.98633,0 0,-18.98633 c 0,-20.75782 -0.37641,-22.75106 -4.57259,-24.21385 -3.38252,-1.17916 -27.25608,-1.17916 -30.6386,0 -4.19619,1.46279 -4.57259,3.45603 -4.57259,24.21385 l 0,18.98633 -18.98634,0 c -12.34884,0 -19.74138,0.34403 -21.14614,0.98408 -3.24611,1.47902 -3.97563,4.94859 -3.97563,18.90782 0,13.95922 0.72952,17.42879 3.97563,18.90781 1.40476,0.64005 8.7973,0.98408 21.14614,0.98408 l 18.98634,0 0,18.98633 c 0,20.42282 0.40858,22.75463 4.23307,24.15821 3.0884,1.13344 27.75923,1.17776 30.97812,0.0556 z M 17.941056,437.73438 c -0.289618,-1.10751 -1.806642,-1.94894 -4.814792,-2.67058 -9.0083419,-2.16107 -8.0604381,-5.26349 5.376939,-17.59833 C 34.852872,402.45728 48.441575,388.9693 52.218576,384 c 3.644016,-4.79435 10.051694,-14.94518 10.051694,-15.92358 0,-0.29024 0.751713,-2.17752 1.670474,-4.19396 1.641645,-3.60298 4.38358,-13.48266 4.38358,-15.79483 0,-0.64794 -3.6,-4.86298 -8,-9.36676 -9.017918,-9.23061 -16.659041,-17.75864 -20.820355,-23.23697 -3.945771,-5.19456 -12.693158,-18.60112 -12.693158,-19.45399 0,-0.39021 -0.893352,-2.06467 -1.985226,-3.72104 -1.091873,-1.65637 -3.254006,-5.93049 -4.804737,-9.49806 -1.550733,-3.56757 -3.540594,-8.04324 -4.421915,-9.94595 -3.527646,-7.6159 -8.112303,-24.82575 -10.5982912,-39.78378 -1.2631812,-7.60047 -1.2153797,-40.33439 0.069463,-47.56756 2.5530952,-14.37296 7.5966438,-32.91532 10.4683758,-38.48649 0.858178,-1.66486 1.847207,-4 2.197842,-5.18919 0.769386,-2.60939 5.704334,-12.73993 8.912341,-18.29538 1.27837,-2.21382 3.063848,-5.32733 3.96773,-6.91892 5.111502,-9.00055 19.330846,-26.32807 30.463238,-37.122148 10.273201,-9.960996 37.220606,-30.204089 40.207388,-30.204089 0.51284,0 1.9655,-0.728164 3.22812,-1.618144 2.41244,-1.700451 12.84822,-7.077209 18.7281,-9.649164 1.90271,-0.832272 5.65303,-2.503554 8.33406,-3.71396 2.68103,-1.210406 6.37832,-2.473288 8.21621,-2.806403 1.83789,-0.333116 4.50919,-1.205061 5.93622,-1.937655 3.3582,-1.724002 18.49347,-5.587779 31.56757,-8.058661 2.61621,-0.49444 6.41067,-1.261693 8.43212,-1.705006 8.4371,-1.850294 35.37272,-2.780067 51.6763,-1.783779 8.80017,0.537765 17.65422,1.340466 19.67567,1.783779 2.02145,0.443313 5.81591,1.210566 8.43212,1.705006 13.0741,2.470882 28.20937,6.334659 31.56757,8.058661 1.42703,0.732594 4.09833,1.604539 5.93622,1.937655 1.83789,0.333115 5.53518,1.595997 8.21621,2.806403 2.68103,1.210406 6.43135,2.881688 8.33406,3.71396 5.87989,2.571955 16.31566,7.948713 18.7281,9.649164 1.26262,0.88998 2.71528,1.618144 3.22812,1.618144 1.0639,0 11.90007,7.236971 19.45212,12.991159 2.79622,2.130538 6.49351,4.805665 8.21622,5.944727 3.98706,2.636263 24.47722,23.229109 29.34947,29.496545 5.7264,7.366196 12.10079,16.222826 13.777,19.141886 5.15286,8.97356 6.41571,11.29422 9.115,16.75001 1.64741,3.32972 3.284,7.02702 3.63685,8.21621 0.35286,1.18919 1.36957,3.52433 2.25936,5.18919 0.88979,1.66487 1.98174,4.58378 2.42657,6.48649 0.44483,1.9027 1.57775,5.79459 2.51761,8.64864 1.77229,5.38193 3.53298,12.94759 5.43436,23.35136 1.33869,7.32491 1.35427,39.79628 0.023,47.99999 -0.8263,5.092 -4.72151,22.69082 -5.75329,25.99375 -0.36389,1.16487 -2.99784,1.34211 -19.65861,1.32282 -16.76167,-0.0194 -20.37956,0.22704 -28.10244,1.91435 -18.53244,4.049 -34.79779,10.95178 -49.87038,21.16425 -10.2728,6.96035 -27.04521,23.73276 -34.00556,34.00556 -13.88718,20.49609 -21.93759,43.9282 -23.3054,67.83446 l -0.54239,9.47963 -5.70612,1.69522 c -5.4947,1.63241 -13.04282,2.64131 -33.3818,4.46194 -10.54701,0.94411 -39.20263,0.25436 -42.56652,-1.02459 -1.18244,-0.44957 -6.7693,-1.06578 -12.41521,-1.36935 -10.08985,-0.54253 -10.32455,-0.51277 -13.73135,1.74176 -1.90633,1.26154 -3.70105,2.29371 -3.98828,2.29371 -0.55166,0 -11.11756,4.39861 -15.51486,6.45887 -4.35654,2.04116 -13.61917,5.72074 -17.70891,7.03486 -2.12909,0.68411 -5.46277,2.01438 -7.40819,2.95614 -1.94542,0.94176 -4.21195,1.71229 -5.03674,1.71229 -0.82479,0 -2.74516,0.65077 -4.26748,1.44615 -1.52233,0.79539 -5.49219,2.11153 -8.82192,2.92474 -3.32973,0.81323 -7.805404,2.08019 -9.945945,2.81549 -6.925388,2.37893 -17.534833,4.94272 -25.945946,6.26987 -10.224749,1.61333 -11.243243,1.92739 -11.243243,3.4669 3.5e-5,1.04012 -3.246382,1.23902 -20.223419,1.23902 -19.026002,0 -20.248492,-0.0957 -20.646301,-1.61697 z M 148.32432,303.10475 c 7.39998,-1.88904 18.2163,-6.09537 21.3227,-8.29213 1.26262,-0.89289 2.66488,-1.62343 3.11612,-1.62343 1.61396,0 15.94749,-14.18718 18.70169,-18.51074 12.53944,-19.68448 14.35802,-30.51509 14.39094,-85.70548 0.0113,-19.02702 0.0119,-35.24787 0.002,-36.04632 -0.0106,-0.79847 -0.63086,-2.06333 -1.37836,-2.81082 -1.18771,-1.18733 -5.46886,-1.35907 -33.87822,-1.35907 -29.04537,0 -32.68771,0.15288 -34.10039,1.43134 -1.47906,1.33854 -1.58161,3.54952 -1.58161,34.10039 0,28.54598 0.17153,32.84057 1.35907,34.02811 0.74749,0.7475 1.81776,1.38083 2.37838,1.40741 0.56062,0.0266 6.77413,0.12388 13.80779,0.21621 14.082,0.18487 14.41698,0.31552 14.44152,5.63278 0.0221,4.79867 -4.07425,19.32287 -6.87411,24.37295 -4.43784,8.00445 -7.15886,11.37697 -13.00917,16.12396 -3.08935,2.50671 -7.11243,5.85332 -8.94019,7.43689 l -3.32319,2.87922 0.10058,13.37456 c 0.13014,17.3058 -0.31727,16.86239 13.46472,13.34417 z m 113.72973,0.46282 c 2.97799,-0.95136 6.39991,-1.72973 7.60425,-1.72973 1.20435,0 3.78068,-0.91785 5.72517,-2.03966 1.9445,-1.12181 4.59563,-2.29426 5.89141,-2.60545 1.29578,-0.31118 3.66713,-1.43658 5.26966,-2.50088 1.60255,-1.06431 4.59575,-2.90807 6.65158,-4.09726 11.18478,-6.46982 22.49721,-21.70715 26.44972,-35.62658 4.07726,-14.35874 3.98246,-13.09968 4.42408,-58.75875 0.30657,-31.69766 0.15295,-44.29633 -0.55632,-45.62162 -0.97209,-1.81636 -1.24633,-1.83088 -34.57327,-1.83088 -30.18254,0 -33.71392,0.14511 -34.78038,1.42912 -1.69419,2.03981 -2.17246,63.6685 -0.51914,66.8952 1.09822,2.14332 1.23082,2.16594 15.21048,2.5946 18.3307,0.56207 17.65177,-0.19337 14.92187,16.60346 -0.44049,2.71029 -1.57729,6.40759 -2.52624,8.21622 -0.94894,1.80863 -2.1884,4.52515 -2.75435,6.03671 -0.56595,1.51155 -1.77182,3.42053 -2.67971,4.24215 -0.90788,0.82163 -1.6507,1.96087 -1.6507,2.53167 0,1.32889 -7.63145,8.52485 -14.05006,13.24828 -7.7442,5.69892 -7.81651,5.89827 -7.43874,20.50754 0.25679,9.9312 0.59624,12.75614 1.60981,13.397 1.70324,1.07693 1.55821,1.09357 7.77088,-0.89114 z"
     id="path3373"
     inkscape:connector-curvature="0" />
</svg>
