<?xml version="1.0" encoding="UTF-8" standalone="no"?>
<svg id="svg2" xmlns:rdf="http://www.w3.org/1999/02/22-rdf-syntax-ns#" xmlns="http://www.w3.org/2000/svg" height="512" width="512" version="1.1" xmlns:cc="http://creativecommons.org/ns#" xmlns:dc="http://purl.org/dc/elements/1.1/" viewBox="0 0 512.00001 512.00001">
	<g id="layer1" transform="translate(0,-540.36216)">
		<g id="g3766" transform="matrix(1.8525755,0,0,1.8525755,0,540.35661)">
			<g id="g3718">
				<g id="g3720">
					<path id="path3722" d="m263.16 0.003h-249.929c-7.304 0-13.231 5.921-13.231 13.22v249.923c0 7.302 5.927 13.229 13.231 13.229h249.929c7.308 0 13.217-5.927 13.217-13.229v-249.915c0-7.307-5.921-13.228-13.217-13.228zm-171.223 213.783-8.404 8.19 1.979 11.565c0.574 3.314-0.787 6.652-3.503 8.623-1.538 1.116-3.357 1.681-5.186 1.681-1.408 0-2.81-0.336-4.107-1.015l-10.379-5.459-10.379 5.459c-2.958 1.562-6.554 1.303-9.29-0.666-2.705-1.971-4.077-5.32-3.507-8.623l1.982-11.565-8.401-8.19c-2.405-2.342-3.258-5.831-2.231-9.031 1.033-3.195 3.798-5.513 7.113-5.999l11.622-1.699 5.191-10.509c2.958-6.028 12.844-6.028 15.802 0l5.203 10.509 11.607 1.699c3.32 0.486 6.083 2.81 7.115 5.999 1.033 3.194 0.165 6.689-2.227 9.031zm0-70.533-8.404 8.191 1.979 11.564c0.574 3.309-0.787 6.654-3.503 8.623-1.538 1.117-3.357 1.682-5.186 1.682-1.408 0-2.81-0.342-4.107-1.021l-10.379-5.459-10.379 5.459c-2.958 1.573-6.554 1.309-9.29-0.661-2.705-1.969-4.077-5.32-3.507-8.623l1.982-11.564-8.401-8.191c-2.405-2.342-3.258-5.833-2.231-9.031 1.033-3.198 3.798-5.515 7.113-6.001l11.622-1.696 5.191-10.509c2.958-6.025 12.844-6.025 15.802 0l5.203 10.509 11.607 1.696c3.32 0.486 6.083 2.81 7.115 6.001 1.033 3.192 0.165 6.689-2.227 9.031zm0-70.532-8.404 8.19 1.979 11.565c0.574 3.303-0.787 6.66-3.503 8.629-1.538 1.105-3.357 1.67-5.186 1.67-1.408 0-2.81-0.336-4.107-1.012l-10.379-5.462-10.379 5.462c-2.958 1.561-6.554 1.297-9.29-0.658-2.705-1.976-4.077-5.326-3.507-8.629l1.982-11.565-8.401-8.19c-2.405-2.342-3.258-5.836-2.231-9.034 1.033-3.198 3.798-5.515 7.113-6.008l11.622-1.69 5.191-10.508c2.958-6.026 12.844-6.026 15.802 0l5.203 10.508 11.607 1.69c3.32 0.486 6.083 2.81 7.115 6.008 1.033 3.198 0.165 6.692-2.227 9.034zm117.739 148.841h-98.602c-4.876 0-8.818-3.944-8.818-8.82s3.942-8.815 8.818-8.815h98.602c4.869 0 8.827 3.939 8.827 8.815s-3.958 8.82-8.827 8.82zm0-70.539h-98.602c-4.876 0-8.818-3.951-8.818-8.821 0-4.875 3.942-8.814 8.818-8.814h98.602c4.869 0 8.827 3.939 8.827 8.814 0 4.87-3.958 8.821-8.827 8.821zm0-70.538h-98.602c-4.876 0-8.818-3.945-8.818-8.815s3.942-8.818 8.818-8.818h98.602c4.869 0 8.827 3.948 8.827 8.818s-3.958 8.815-8.827 8.815z"/>
					<path id="path3724" d="m62.336 49.381-7.236 14.669-16.204 2.363 11.715 11.418-2.762 16.135 14.481-7.62 14.48 7.62-2.759-16.135 11.712-11.418-16.188-2.363-7.239-14.669zm2.909 28.634c-0.934-0.331-1.924-0.493-2.909-0.493-0.982 0-1.955 0.162-2.895 0.493 0.036-1.985-0.604-3.937-1.808-5.527 1.919-0.571 3.558-1.771 4.702-3.414 1.144 1.643 2.786 2.843 4.705 3.414-1.203 1.59-1.843 3.542-1.795 5.527z"/>
					<path id="path3726" d="m62.336 119.913-7.236 14.672-16.204 2.36 11.715 11.418-2.762 16.136 14.481-7.615 14.48 7.615-2.759-16.136 11.712-11.418-16.189-2.36-7.238-14.672zm2.909 28.637c-0.934-0.324-1.924-0.492-2.909-0.492-0.982 0-1.955 0.156-2.895 0.492 0.036-1.994-0.604-3.939-1.808-5.524 1.919-0.57 3.558-1.774 4.702-3.411 1.144 1.637 2.786 2.841 4.705 3.411-1.203 1.584-1.843 3.53-1.795 5.524z"/>
					<path id="path3728" d="m62.336 190.451-7.236 14.663-16.204 2.36 11.715 11.415-2.762 16.141 14.481-7.626 14.48 7.626-2.759-16.141 11.712-11.415-16.189-2.36-7.238-14.663zm2.909 28.631c-0.934-0.324-1.924-0.492-2.909-0.492-0.982 0-1.955 0.162-2.895 0.492 0.036-1.993-0.604-3.939-1.808-5.524 1.919-0.564 3.558-1.771 4.702-3.41 1.144 1.639 2.786 2.846 4.705 3.41-1.203 1.591-1.843 3.543-1.795 5.524z"/>
				</g>
			</g>
		</g>
	</g>
</svg>
