<svg xmlns:rdf="http://www.w3.org/1999/02/22-rdf-syntax-ns#" xmlns="http://www.w3.org/2000/svg" height="512" width="512" version="1.1" xmlns:cc="http://creativecommons.org/ns#" xmlns:dc="http://purl.org/dc/elements/1.1/" viewBox="0 0 512.00001 512.00001">
	<g transform="translate(0 -540.36)">
		<path d="m119.73 1048.9c-2.5422-1.5503-5.8948-5.7153-7.2012-8.9464l-1.2022-2.9732-0.15064-46.517-0.15064-46.517-1.1656 0.2857c-6.6894 1.6396-22.799 1.6669-31.966 0.054-25.774-4.5341-48.89-19.773-63.233-41.686-13.068-19.965-17.8-46.615-12.576-70.813 4.599-21.3 17.383-41.19 34.843-54.211 20.921-15.602 45.679-21.796 71.898-17.989l2.2377 0.325v-44.462c0-29.826 0.18882-45.484 0.57361-47.565 1.1692-6.3247 5.2742-11.736 10.906-14.376l2.9992-1.4059 47.045-0.14266 47.045-0.14265-0.28314-1.1736c-1.898-7.8672-1.7037-24.798 0.40052-34.907 6.9368-33.323 29.96-59.477 62.165-70.618l5.7916-2.0036 22.969-0.15233 22.969-0.15233 7.0739 2.3278c26.024 8.5636 46.681 27.718 57.154 52.997 6.7116 16.2 8.5899 31.791 6.137 50.94l-0.35402 2.7642 19.686 0.002c20.186 0.002 25.135 0.37008 32.585 2.4221 19.119 5.2665 34.855 17.136 45.263 34.141 4.5207 7.386 7.9156 16.585 9.8738 26.755 0.88448 4.5938 0.93628 13.612 0.93628 163.08v158.22l-1.2018 2.972c-1.5609 3.8601-3.7946 6.9029-6.5135 8.8724l-2.1831 1.5815h-68.061-68.061l-2.9149-2.6641c-3.3662-3.0765-5.3581-6.7544-6.1775-11.406-0.78179-4.4383-0.0759-7.3623 3.7214-15.414 4.6797-9.9233 5.5044-13.604 5.4852-24.483-0.0132-7.4525-0.20212-9.6271-1.1289-12.992-4.4857-16.286-15.434-29.681-29.871-36.548-12.243-5.8229-25.874-6.8893-39.093-3.0583-15.655 4.5366-29.098 16.954-35.379 32.679-3.0157 7.5502-3.8881 12.987-3.5761 22.288 0.30892 9.2089 1.5431 13.96 6.0172 23.166 2.7146 5.5855 2.9613 6.4018 3.1828 10.53 0.19764 3.6835 0.0418 5.001-0.88051 7.4473-1.4269 3.7843-3.6594 6.8637-6.4324 8.8724l-2.1831 1.5815h-67.709c-64.995 0-67.773-0.041-69.309-0.9778zm99.583-36.797c-0.77839-3.824-1.3675-10.954-1.3582-16.439 0.0521-30.78 15.786-60.131 41.53-77.474 16.642-11.212 34.955-16.35 55.52-15.58 9.3427 0.35 15.698 1.3778 23.977 3.8776 14.728 4.4471 26.888 11.792 38.219 23.086 14.625 14.578 23.867 32.756 26.902 52.914 1.0241 6.8016 1.0588 20.685 0.0669 26.72l-0.71389 4.3437h34.93 34.93l-0.13963-146.24c-0.13131-137.5-0.1947-146.43-1.0614-149.4-3.6712-12.582-13.062-22.203-25.396-26.018l-4.2187-1.3051-36.066-0.2908-36.066-0.2909-2.9614-1.4543c-3.6539-1.7944-7.4494-5.7667-9.3168-9.7508-1.2029-2.5664-1.4111-3.7097-1.4111-7.7492 0-4.7191 0.0134-4.7667 3.2579-11.583 5.2839-11.101 6.9086-18.437 6.3008-28.448-1.8368-30.253-27.699-53.4-57.733-51.672-31.018 1.7845-54.424 29.009-51.536 59.943 0.6345 6.7963 2.5371 13.11 6.1594 20.441l2.9919 6.0548v5.2651c0 4.7089-0.15676 5.5842-1.4839 8.287-1.8906 3.85-5.3334 7.2928-9.1834 9.1834l-3.0218 1.4839-51.19 0.1418-51.19 0.1417-0.14426 50.93-0.14426 50.929-1.6293 3.4223c-2.0304 4.2648-5.1604 7.4259-9.3527 9.4457-6.2696 3.0205-11.614 2.6008-19.765-1.5525-15.927-8.1154-33.122-8.4075-49.13-0.8347-11.646 5.5095-22.277 16.703-27.101 28.536-5.7636 14.137-5.1634 31.882 1.5292 45.207 10.043 19.996 32.255 32.388 54.252 30.269 7.0467-0.6789 12.383-2.2526 20.132-5.9368l6.8446-3.2541h5.0018c4.3159 0 5.4116 0.192 7.9898 1.4007 4.1978 1.9678 7.5074 5.2117 9.5257 9.3365l1.702 3.4785 0.14426 50.94 0.14428 50.94h34.779 34.779l-0.29473-1.4479z"/>
	</g>
</svg>
