<svg xmlns:rdf="http://www.w3.org/1999/02/22-rdf-syntax-ns#" xmlns="http://www.w3.org/2000/svg" height="512" width="512" version="1.1" xmlns:cc="http://creativecommons.org/ns#" xmlns:dc="http://purl.org/dc/elements/1.1/" viewBox="0 0 512.00001 512.00001">
	<g transform="translate(0 -540.36)">
		<path d="m253.16 1051.9c-1.6895-0.4756-3.3503-2.0952-6.3492-6.1915-14.369-19.627-26.488-41.82-31.579-57.827-5.0445-15.862-5.2316-30.031-0.5201-39.384 4.4271-8.7887 14.634-15.712 25.679-17.417 1.1831-0.1827 2.6051-0.4876 3.1601-0.6776 0.55498-0.1899 5.2335-0.5261 10.397-0.747 26.211-1.1214 43.062 9.07 46.366 28.042 3.42 19.639-8.3857 49.961-33.109 85.038-6.2465 8.8624-8.9202 10.607-14.044 9.1645zm-76.048-75.581c-3.3021-1.3883-12.261-14.482-18.729-27.372-5.0889-10.142-9.0024-21.535-11.646-33.906-1.8659-8.7311-2.6221-28.808-1.4078-37.376 3.5011-24.702 14.863-47.546 34.55-69.467l4.8361-5.3848-0.7305-10.748c-1.0072-14.82-0.27284-67.899 1.1341-81.97 3.5879-35.884 8.9175-62.054 17.986-88.315 10.136-29.354 22.828-51.764 41.207-72.763 11.292-12.902 13.718-12.265 29.751 7.8173 6.2683 7.8516 12.764 17.506 16.681 24.793 7.0222 13.063 8.4186 15.9 11.82 24.02 19.479 46.505 28.331 106.9 25.681 175.22l-0.87264 22.492 3.1788 3.3209c15.189 15.868 26.941 35.736 32.52 54.978 5.7384 19.791 5.575 42.829-0.45122 63.647-4.7407 16.377-14.094 35.023-23.519 46.884-3.7387 4.7052-7.0132 5.8847-10.856 3.9104-2.3765-1.2209-3.2883-2.9686-15.238-29.205-6.9908-15.349-12.81-28.184-12.932-28.522-0.29589-0.8214-87.203-0.8425-87.977-0.022-0.33021 0.3502-6.0089 12.575-12.619 27.166-6.6104 14.591-12.496 27.269-13.08 28.172-2.0018 3.098-5.6906 4.1438-9.285 2.6325zm88.707-221.68c16.416-3.4392 30.175-16.867 34.463-33.633 7.6359-29.856-16.994-59.229-47.544-56.7-5.9928 0.49627-6.8055 0.65723-11.63 2.3036-13.804 4.7107-24.239 15.353-28.807 29.379-2.6159 8.0324-2.7642 19.125-0.35941 26.888 7.2111 23.278 30.065 36.75 53.877 31.762zm-13.239-14.348c-16.263-2.8585-26.902-14.798-26.88-30.168 0.0145-10.318 3.7834-18.145 11.618-24.128 7.5884-5.7941 16.832-7.7122 26.263-5.4497 14.476 3.4726 24.765 19.019 22.381 33.817-1.8383 11.415-9.9396 20.958-20.835 24.542-3.321 1.0926-10.011 1.8314-12.548 1.3856z"/>
	</g>
</svg>
