<?xml version="1.0" encoding="UTF-8" standalone="no"?>
<svg xmlns:rdf="http://www.w3.org/1999/02/22-rdf-syntax-ns#" xmlns="http://www.w3.org/2000/svg" height="512" width="512" version="1.1" xmlns:cc="http://creativecommons.org/ns#" xmlns:dc="http://purl.org/dc/elements/1.1/" viewBox="0 0 512.00001 512.00001">
	<g transform="translate(0 -540.36)">
		<path d="m22.995 1051c-9.9539-2.6862-18.878-11.775-21.6-22-2.044-7.6769-2.044-457.62 0-465.3 2.7865-10.45 12.431-19.96 22.605-22.27 6.2376-1.4156 457.76-1.4156 464 0 10.174 2.309 19.819 11.815 22.605 22.28 2.044 7.6768 2.044 457.62 0 465.3-2.7865 10.465-12.431 19.971-22.605 22.28-6.9948 1.5875-459.09 1.3148-465-0.2804zm283.56-63.73c7.1284-1.3178 10.306-2.8749 15.569-7.6298 9.2866-8.3899 11.327-16.313 9.8539-38.258-3.2999-49.149-19.843-93.08-50.282-133.52-8.2119-10.91-34.076-36.453-45.768-45.198-37.68-28.185-81.294-44.543-129.01-48.39-15.873-1.2794-23.778-0.6244-30.598 2.5352-23.796 11.025-23.559 45.309 0.38907 56.272 4.4064 2.0173 7.9209 2.6286 19.547 3.3996 22.757 1.5093 35.833 4.0283 53.941 10.391 24.584 8.6388 47.389 23.163 66.722 42.497 32.288 32.288 49.999 72.192 52.592 118.49 0.81111 14.481 2.0918 19.959 6.0833 26.022 4.8847 7.4198 11.844 12.032 20.317 13.465 2.5284 0.42768 4.6269 0.83053 4.6634 0.89522 0.0365 0.0647 2.7274-0.37431 5.9798-0.97555zm-171.75-1.4654c9.8234-1.9863 22.107-8.0385 29.417-14.494 7.8006-6.8886 15.123-18.143 18.369-28.233 3.7458-11.643 3.7724-26.706 0.0673-38.215-6.2567-19.435-21.587-34.827-40.931-41.098-11.063-3.5864-26.657-3.7687-37.215-0.43514-33.326 10.523-52.286 44.937-42.894 77.857 4.7072 16.499 17.411 31.759 32.471 39.004 14.098 6.7822 26.488 8.4906 40.715 5.6139zm294.57-0.47479c7.2605-2.7165 13.892-8.7431 17.334-15.752 2.747-5.5939 2.804-6.0625 2.7059-22.214-0.15469-25.462-3.7005-52.222-10.522-79.411-29.73-118.46-119.23-214.7-235.39-253.11-35.763-11.827-70.389-17.79-104-17.912-15.791-0.0571-17.371 0.10622-22.214 2.2961-2.8676 1.2966-7.1892 4.4694-9.6035 7.0506-14.452 15.45-10.137 39.836 8.69 49.104 6.0685 2.9875 7.0464 3.1474 24.534 4.0103 27.026 1.3337 45.38 4.1349 68.363 10.434 107.48 29.456 190.59 118.83 212.12 228.1 3.533 17.929 4.4897 26.122 5.5208 47.276 0.86168 17.68 1.0058 18.562 4.0394 24.724 7.1255 14.474 23.426 21.014 38.406 15.409z"/>
	</g>
</svg>
