<svg xmlns:inkscape="http://www.inkscape.org/namespaces/inkscape" xmlns:rdf="http://www.w3.org/1999/02/22-rdf-syntax-ns#" xmlns="http://www.w3.org/2000/svg" sodipodi:docname="safe-storage.svg" height="512" width="512" version="1.1" xmlns:cc="http://creativecommons.org/ns#" xmlns:dc="http://purl.org/dc/elements/1.1/" inkscape:version="0.91 r13725" viewBox="0 0 512.00001 512.00001" xmlns:sodipodi="http://sodipodi.sourceforge.net/DTD/sodipodi-0.dtd">
	<sodipodi:namedview bordercolor="#666666" inkscape:pageshadow="2" inkscape:window-y="-8" pagecolor="#ffffff" inkscape:window-height="1017" inkscape:window-maximized="1" inkscape:zoom="0.35" inkscape:window-x="-8" showgrid="false" borderopacity="1.0" inkscape:current-layer="layer1" inkscape:cx="-126.42857" inkscape:cy="520" units="px" inkscape:window-width="1920" inkscape:pageopacity="0.0" inkscape:document-units="px"/>
	<g inkscape:label="Layer 1" inkscape:groupmode="layer" transform="translate(0 -540.36)">
		<path inkscape:connector-curvature="0" d="m200.44 1034.5c-4.16-0.5-182.14-34.8-185.92-35.91-5.1109-1.51-11.126-7.18-13.297-12.54l-1.2229-3.0201v-113.57c0-110.39 0.029-113.64 1.038-116.26 2.2981-5.9586 7.9034-9.7187 14.485-9.7169 2.4032 0.0005 29.803 5.1006 85.302 15.877 44.969 8.732 85.779 16.528 90.689 17.325 11.668 1.8933 20.605 1.9719 31.532 0.2772 6.7762-1.0509 80.774-15.056 82.636-15.64 0.42932-0.1346-0.13003-1.5078-1.592-3.9085-5.3408-8.7697-9.5234-19.574-11.166-28.842-0.82286-4.644-0.98975-5.0388-2.026-4.7924-2.6247 0.624-63.664 12.362-70.725 13.6-10.398 1.8239-14.584 1.7414-26.923-0.531-35.432-6.525-179.45-34.76-181.16-35.515-1.1382-0.5044-2.7926-1.7408-3.6766-2.7476-3.3327-3.7958-1.3807-9.2986 4.0012-11.28 3.8077-1.4016 182.97-34.093 189.66-34.607 9.8893-0.76009 15.808 0.001 52.562 6.7608 19.023 3.4987 35.139 6.4935 35.813 6.6551l1.2255 0.2939 0.006-30.425c0.007-32.316 0.0645-33.139 2.6764-38.248 1.653-3.2334 5.4287-6.7789 9.1816-8.6218 2.8125-1.3811 3.6684-1.5293 8.8334-1.5293 5.5688 0 5.848 0.0599 10.621 2.2773 6.0962 2.832 11.62 3.9865 19.073 3.9865 10.705 0 19.821-2.1485 25.863-6.0956 4.7161-3.0805 12.415-10.811 17.913-17.986 2.4589-3.2092 5.4814-6.7 6.7167-7.7574 6.1951-5.3028 16.593-5.6452 23.666-0.77919 1.2482 0.8587 4.2919 4.1985 6.7636 7.4217 5.6499 7.3674 14.41 16.205 18.975 19.144 6.6292 4.2671 16.175 6.3873 26.596 5.9073 6.9391-0.31961 9.8222-1.0912 15.934-4.2642 3.2855-1.7056 3.9073-1.8374 8.7124-1.8456 4.4517-0.008 5.598 0.18982 8.2065 1.4132 3.9314 1.8438 6.7846 4.7959 8.8912 9.1993l1.6938 3.5404v61.277c0 57.67-0.0595 61.549-1.0112 65.906-3.9704 18.18-13.517 34.808-29.905 52.086-13.725 14.471-39.903 33.526-59.75 43.494l-4.9107 2.4663-0.14336 78.568-0.14341 78.568-1.5962 3.2562c-2.0909 4.2653-6.0166 8.1277-10.256 10.09-2.8481 1.3184-18.06 4.4135-93.816 19.088-49.729 9.6328-92.746 17.726-95.592 17.984-5.9642 0.5421-8.3947 0.5293-14.434-0.076zm208.93-245.15c16.55-9.4301 32.919-21.592 44.009-32.698 13.439-13.459 20.489-25.522 21.848-37.384 0.31885-2.7827 0.548-22.296 0.55062-46.884l0.005-42.117-4.766 0.36347c-2.6213 0.1999-7.7779 0.0821-11.459-0.26169-21.996-2.0544-35.877-8.1595-50.713-22.304l-4.0273-3.8396-5.0252 4.8041c-14.039 13.422-28.371 19.494-50.375 21.346-6.7506 0.56814-10.527 0.48931-18.412-0.38432l-2.8881-0.32 0.18909 45.956c0.18864 45.847 0.19199 45.965 1.4171 50.041 5.6296 18.727 24.214 38.722 53.543 57.604 6.1235 3.9425 17.239 9.9143 18.478 9.9274 0.47044 0 3.9019-1.7268 7.6255-3.8485z"/>
	</g>
</svg>
