<svg xmlns:rdf="http://www.w3.org/1999/02/22-rdf-syntax-ns#" xmlns="http://www.w3.org/2000/svg" height="512" width="512" version="1.1" xmlns:cc="http://creativecommons.org/ns#" xmlns:dc="http://purl.org/dc/elements/1.1/" viewBox="0 0 512.00001 512.00001">
	<g transform="translate(0 -540.36)">
		<path d="m184.44 1003.1c-1.3252-0.6811-3.2398-2.366-4.2546-3.7444-1.7355-2.3575-1.8473-5.6445-1.8837-55.391-0.0229-31.173 0.3482-53.607 0.9037-54.645 2.5714-4.8046 4.9418-5.7297 16.014-6.2495l10.676-0.50123 0.21494-18.044c0.19211-16.128 0.48427-18.91 2.7507-26.191 5.9436-19.096 22.542-34.823 42.14-39.928 7.6681-1.9973 21.103-1.9778 28.932 0.0419 18.912 4.8791 35.273 19.973 41.919 38.671 1.9476 5.4795 2.3326 9.045 2.7973 25.902l0.53892 19.548 10.863 0.50123c10.745 0.49581 10.894 0.53663 13.784 3.775l2.9212 3.2738v53.393c0 58.567 0.24908 56.113-6.0258 59.358-2.4984 1.2919-13.692 1.4959-81.389 1.4832-60.301-0.011-79.051-0.3017-80.902-1.2531zm146.02-59.632-0.26268-37.843-64.909-0.25792-64.909-0.25794v38.101 38.101h65.172 65.172l-0.26266-37.843zm-28.047-77.691c-0.4919-20.493-1.9373-25.532-9.7891-34.123-18.159-19.869-48.932-15.139-60.573 9.312-3.0517 6.4101-3.1076 6.8053-3.434 24.31l-0.3318 17.794h37.271 37.271l-0.41508-17.292zm-264.42-29.31c-10.904-3.1259-20.375-9.402-26.848-17.792-16.321-21.155-14.553-49.529 4.2698-68.531 28.068-28.335 76.185-14.883 86.202 24.099 6.8847 26.79-9.7925 55.081-36.69 62.24-6.5701 1.7487-20.808 1.7401-26.935-0.0162zm25.276-23.804c10.714-4.5478 17.548-16.282 16.571-28.454-1.934-24.093-31.274-34.967-48.329-17.912-10.563 10.563-11.2 27.847-1.4345 38.941 8.8008 9.9983 20.805 12.683 33.193 7.425zm99.531 19.722c-8.8217-2.423-20.428-5.6-25.793-7.0599-10.753-2.9266-14.349-5.4758-15.365-10.894-1.2454-6.6384 4.2443-13.583 10.737-13.583 3.546 0 54.926 13.953 57.436 15.597 6.3194 4.1406 5.9589 15.673-0.59592 19.063-4.2706 2.2084-9.0763 1.6403-26.42-3.1234zm177.34 1.1435c-2.631-2.631-3.4084-4.2428-3.4084-7.067 0-5.3189 2.3411-9.0904 6.7281-10.839 5.4496-2.1722 52.674-14.774 55.365-14.774 5.0669 0 11.087 6.2596 11.087 11.528 0 3.3403-3.1654 8.2885-6.3182 9.8767-4.6372 2.336-52.051 14.684-56.384 14.684-2.8261 0-4.4371-0.77679-7.0687-3.4084zm119.89-6.7144c-2.4811-0.48454-7.4285-2.316-10.994-4.07-26.505-13.038-32.128-48.673-11.012-69.778 24.937-24.923 67.405-10.822 73.435 24.382 3.0651 17.894-7.04 37.38-23.581 45.472-9.6087 4.7005-18.04 5.9099-27.848 3.9944zm18.796-21.828c13.925-7.1042 17.532-24.539 7.5006-36.259-9.3624-10.938-24.957-11.293-35.017-0.79752-12.019 12.538-6.1258 33.682 10.822 38.83 4.6409 1.4096 11.984 0.62943 16.695-1.7737zm-219.56-23.95c-5.3658-3.3266-5.9097-6.9836-5.5663-37.428 0.27846-24.689 0.50191-27.854 2.1432-30.356 4.3977-6.7049 14.76-6.8795 18.762-0.31599 1.8206 2.9859 1.9535 5.2355 1.957 33.127l0.004 29.923-3.4084 3.4084c-2.7131 2.7131-4.1957 3.4029-7.2678 3.3817-2.1227-0.0146-5.1034-0.79786-6.6238-1.7404zm-6.4229-90.883c-22.449-5.4444-38.805-26.604-38.805-50.201 0-46.184 55.457-68.88 88.091-36.053 9.7834 9.8415 14.512 21.589 14.512 36.053 0 14.565-4.701 26.252-14.512 36.079-13.025 13.045-31.682 18.391-49.285 14.122zm25.227-24.394c16.814-8.7156 21.021-31.842 8.219-45.189-5.6264-5.8662-11.132-8.4479-19.106-8.9596-10.847-0.69613-19.938 3.8218-25.673 12.758-10.053 15.666-2.9948 36.168 14.724 42.774 5.3415 1.9914 16.715 1.2705 21.836-1.3841z"/>
	</g>
</svg>
