<svg xmlns:rdf="http://www.w3.org/1999/02/22-rdf-syntax-ns#" xmlns="http://www.w3.org/2000/svg" height="512" width="512" version="1.1" xmlns:cc="http://creativecommons.org/ns#" xmlns:dc="http://purl.org/dc/elements/1.1/" viewBox="0 0 512.00001 512.00001">
	<g transform="translate(0 -540.36)">
		<path d="m343.64 1052c-28.657-2.441-52.454-22.72-60.349-51.426-1.1683-4.2482-1.4-6.9673-1.4189-16.653-0.021-10.772 0.10357-11.99 1.793-17.53 0.99859-3.2745 2.8456-8.1426 4.1046-10.818 1.2589-2.6754 2.2889-5.2065 2.2889-5.6245 0-0.4179-21.113-21.871-46.917-47.673l-46.917-46.914-5.2883 2.4174c-22.201 10.148-46.164 8.5076-66.402-4.5464-6.1291-3.9536-15.852-13.729-20.024-20.133-3.8115-5.8499-7.0358-13.214-9.0719-20.72-1.2333-4.5466-1.4697-7.1497-1.4823-16.324-0.0128-9.3615 0.20191-11.713 1.5092-16.523 6.045-22.243 21.964-40.03 42.613-47.612 8.624-3.1669 11.643-3.626 23.981-3.6474 13.598-0.0236 18.731 0.97795 28.526 5.5664l5.3733 2.5171 47.199-46.759 47.199-46.759-2.393-5.2509c-5.1275-11.251-6.8604-20.071-6.326-32.2 0.21872-4.9642 0.87961-10.08 1.7036-13.188 6.3079-23.789 24.298-42.452 47.364-49.136 36.421-10.554 74.076 10.371 84.73 47.086 6.779 23.363 0.12059 49.057-17.241 66.532-9.0773 9.1364-19.864 15.268-32.521 18.486-4.9075 1.2479-7.494 1.4722-16.41 1.4231-12.256-0.0675-16.974-1.0615-27.551-5.8047l-6.3853-2.8634-46.701 46.704c-25.685 25.687-46.701 47.034-46.701 47.438 0 0.4034 1.1676 3.2305 2.5946 6.2824 4.5286 9.6849 5.6448 15.149 5.6604 27.709 0.0157 12.557-1.0858 17.954-5.6557 27.709-1.4296 3.0519-2.5994 5.8805-2.5994 6.2859s21.114 21.849 46.92 47.653l46.92 46.916 6.0135-2.794c10.313-4.7918 14.497-5.6442 27.815-5.6671 10.03-0.017 12.313 0.1814 17.093 1.4866 20.017 5.4657 37.475 20.137 45.467 38.209 15.187 34.34 0.0331 74.26-34.242 90.205-6.9174 3.218-14.002 5.192-20.381 5.6786-2.7287 0.2081-5.7054 0.4596-6.6149 0.5591-0.90956 0.099-4.184-0.035-7.2764-0.2982zm18.009-36.948c8.1524-3.1144 15.923-10.878 19.094-19.076 2.0005-5.173 2.4522-14.268 0.99172-19.968-4.0617-15.854-20.782-26.742-36.699-23.898-14.12 2.5233-25.229 13.779-27.153 27.511-2.3066 16.458 7.8296 31.862 23.949 36.396 4.9713 1.3982 14.897 0.9149 19.818-0.9651zm-190-187.94c14.964-4.3433 24.936-20.229 22.511-35.861-1.912-12.323-10.937-22.816-22.707-26.401-3.6454-1.1103-5.7732-1.3196-11.245-1.1065-6.1591 0.2399-7.183 0.4753-11.71 2.6927-6.1517 3.013-10.351 6.6005-13.838 11.822-8.0318 12.028-6.9741 28.284 2.5422 39.074 8.9571 10.156 21.188 13.628 34.448 9.7796zm188.86-187.97c8.3158-2.7213 15.323-9.0498 19.306-17.437 2.0591-4.3358 2.4257-5.8506 2.7041-11.173 0.50538-9.6618-1.9079-17.037-7.7365-23.644-6.6619-7.5515-14.374-11.086-24.241-11.109-9.8031-0.0228-16.781 2.7792-23.397 9.395-5.5167 5.5168-8.1413 10.843-9.2698 18.811-2.1004 14.832 7.0243 29.916 21.157 34.976 6.5045 2.3288 14.702 2.3977 21.477 0.18065z"/>
	</g>
</svg>
