<?xml version="1.0" encoding="UTF-8" standalone="no"?>
<svg id="svg2" xmlns:rdf="http://www.w3.org/1999/02/22-rdf-syntax-ns#" xmlns="http://www.w3.org/2000/svg" height="512" width="512" version="1.1" xmlns:cc="http://creativecommons.org/ns#" xmlns:dc="http://purl.org/dc/elements/1.1/" viewBox="0 0 511.99999 512.00001">
	<g id="layer1" transform="matrix(.99523745 0 0 .99523745 0 -535.35024)">
		<path id="path3399" d="m415.36841 1051.4273c-46.74862-7.8462-77.32158-49.2293-71.6406-96.97142l0.71779-6.0323-97.13622-48.5381-97.13621-48.53809-6.98436 6.3745c-17.76194 16.21099-38.77987 23.76375-62.691744 22.52818-13.477107-0.69639-20.31538-2.44288-32.424907-8.28138-22.544025-10.86936-39.0122263-30.78343-45.7348332-55.30452-3.11643441-11.36737-3.11643441-31.75556 0-43.12292 6.7226069-24.52109 23.1908082-44.43515 45.7348332-55.30451 12.250233-5.90632 18.996204-7.60471 32.904661-8.28408 23.87005-1.16597 43.81738 6.07785 62.19909 22.58739l7.02114 6.30604 97.12428-48.53212 97.12427-48.53213-0.71779-6.03228c-5.24731-44.09757 19.6873-82.34906 61.63067-94.54595 29.85602-8.68196 62.35634 0.11213 84.35427 22.82497 8.62254 8.90277 13.22395 15.90125 17.93071 27.27158 15.46041 37.34839 1.95391 81.11083-31.98636 103.63911-23.2021 15.40068-53.8083 18.32047-79.57973 7.59179-9.59007-3.99236-20.469-11.19322-27.00959-17.87793l-4.91933-5.02771-97.46651 48.73528-97.46649 48.73531 0.72144 5.23318c0.92459 6.70673 0.92459 18.8403 0 25.54704l-0.72144 5.23317 97.46649 48.73532 97.46651 48.73529 4.91933-5.0277c10.18325-10.40763 27.01035-19.48148 41.98742-22.64132 10.49581-2.2144 26.43224-1.98298 37.03793 0.5378 37.04105 8.80408 63.53089 40.42182 65.8083 78.54745 1.05864 17.72258-4.26378 37.2506-14.24902 52.27986-5.2275 7.8681-16.98434 19.4749-24.76041 24.4444-16.92864 10.8183-40.62978 15.878-59.52359 12.7068z"/>
	</g>
</svg>
