<svg xmlns:inkscape="http://www.inkscape.org/namespaces/inkscape" xmlns:rdf="http://www.w3.org/1999/02/22-rdf-syntax-ns#" xmlns="http://www.w3.org/2000/svg" sodipodi:docname="sheild-ok2.svg" height="512" width="512" version="1.1" xmlns:cc="http://creativecommons.org/ns#" xmlns:dc="http://purl.org/dc/elements/1.1/" inkscape:version="0.91 r13725" viewBox="0 0 512.00001 512.00001" xmlns:sodipodi="http://sodipodi.sourceforge.net/DTD/sodipodi-0.dtd">
	<sodipodi:namedview bordercolor="#666666" inkscape:pageshadow="2" inkscape:window-y="-8" pagecolor="#ffffff" inkscape:window-height="1017" inkscape:window-maximized="1" inkscape:zoom="0.35" inkscape:window-x="-8" showgrid="false" borderopacity="1.0" inkscape:current-layer="layer1" inkscape:cx="-126.42857" inkscape:cy="748.57143" units="px" inkscape:window-width="1920" inkscape:pageopacity="0.0" inkscape:document-units="px"/>
	<g inkscape:label="Layer 1" inkscape:groupmode="layer" transform="translate(0 -540.36)">
		<path inkscape:connector-curvature="0" d="m250.12 1050.7c-3.5861-2.1865-82.333-58.022-89.344-63.351-54.71-41.62-91.534-104.24-101.75-173.08-2.46-16.584-3.1549-38.948-2.8832-92.788 0.26362-52.223 0.29671-53.106 2.0838-55.558 2.1852-2.9989 190.56-123.54 195.36-125.01 2.6188-0.80342 3.89-0.7447 6.5221 0.30126 1.7981 0.71457 46.044 28.622 98.324 62.016 71.956 45.963 95.372 61.33 96.359 63.239 1.1348 2.1944 1.2609 11.24 0.97075 69.649-0.2908 58.526-0.52794 68.352-1.8511 76.693-4.7739 30.093-12.401 54.63-24.868 80.005-18.567 37.79-44.964 69.967-77.834 94.876-6.0406 4.5776-79.315 56.689-87.963 62.558-3.9224 2.6618-9.1722 2.8239-13.138 0.4056zm44.142-50.305c19.849-14.081 39.935-28.547 44.636-32.146 44.633-34.176 77.163-85.439 88.694-139.77 5.4725-25.784 5.9515-34.008 5.6391-96.829l-0.26548-53.379-88.266-56.353c-82.833-52.885-88.382-56.278-90.146-55.137-4.4451 2.8777-157.25 100.37-165.52 105.61l-9.131 5.7805 0.003 59.949c0.003 65.762 0.11869 67.656 5.61 91.69 12.269 53.698 42.547 102.01 85.311 136.13 12.531 9.9984 85.484 61.181 86.406 60.622 0.51842-0.3146 17.183-12.093 37.032-26.174zm-63.18-149.84c-1.9458-0.56363-10.014-8.2478-27.828-26.502-13.798-14.14-25.772-26.948-26.609-28.464-2.7522-4.9835-1.4269-10.68 3.361-14.446 2.9278-2.303 9.4065-2.4524 12.51-0.28846 1.1957 0.83386 11.162 10.627 22.147 21.762s20.41 20.136 20.944 20.001c0.53448-0.13466 19.331-17.61 41.77-38.835s41.973-39.322 43.407-40.217c9.2882-5.7901 20.784 4.9686 15.737 14.728-0.67145 1.2984-13.487 13.933-28.48 28.078-14.993 14.144-36.064 34.04-46.826 44.212-17.881 16.901-23.129 21.065-26.278 20.843-0.61323-0.0431-2.3481-0.43564-3.8553-0.87222z"/>
	</g>
</svg>
