<svg xmlns:rdf="http://www.w3.org/1999/02/22-rdf-syntax-ns#" xmlns="http://www.w3.org/2000/svg" height="512" width="512" version="1.1" xmlns:cc="http://creativecommons.org/ns#" xmlns:dc="http://purl.org/dc/elements/1.1/" viewBox="0 0 512.00001 512.00001">
	<g transform="translate(0 -540.36)">
		<path d="m250.5 1051.5c-6.9017-2.2313-32.345-18.118-47.978-29.957-63.24-47.81-112.69-118.02-141.39-200.69-16.238-46.76-25.199-92.487-28.222-144-1.1873-20.235-1.1298-31.919 0.17878-36.341 0.6921-2.3389 2.6961-5.2417 5.5556-8.0471 4.3695-4.2869 6.868-5.397 108.03-47.997 100.82-42.46 103.7-43.61 109.33-43.61 5.6254 0 8.5087 1.15 109.33 43.609 101.16 42.6 103.66 43.711 108.03 47.997 2.8595 2.8054 4.8635 5.7082 5.5556 8.0471 2.878 9.726-0.63674 62.043-6.5022 96.786-8.3351 49.372-22.655 93.801-44.406 137.78-19.894 40.222-41.598 71.935-70.872 103.56-25.098 27.11-60.294 54.745-88.952 69.844-6.3762 3.3593-13.205 4.5601-17.689 3.1106zm16.43-52.77c49.867-32.642 93.109-83.365 122.89-144.15 26.651-54.402 41.713-112.49 45.885-176.96 0.58229-8.9971 0.88759-16.518 0.67845-16.712-0.22-0.19-40.89-17.39-90.39-38.23l-90-37.879-90 37.879c-49.5 20.833-90.171 38.038-90.38 38.233-0.68005 0.63281 1.6911 32.7 3.4862 47.147 15.424 124.13 76.8 231.73 165.78 290.62 5.3778 3.5594 10.297 6.493 10.931 6.519 0.63428 0.026 5.6343-2.886 11.111-6.471zm-86.487-111.22c0-2.8661 0.22223-3.1045 3.3333-3.576 7.9446-1.2041 9.5163-1.8282 11.303-4.4881 1.7841-2.6555 1.8065-3.6754 1.7206-78.222-0.0699-60.612 0.14289-75.993 1.077-77.866 1.091-2.188 6.6858-5.2213 9.6302-5.2213 1.7369 0 4.7106-3.9995 5.3184-7.1529 0.27825-1.4437 0.73768-3.8249 1.021-5.2916l0.51507-2.6667h42.036 42.036l1.0327 5.2493c1.0568 5.3718 3.723 9.8618 5.856 9.8618 2.9196 0 9.0159 3.465 10.036 5.7043 0.8257 1.8122 1.0841 20.397 1.0841 77.978 0 74.684 0.022 75.63 1.8145 78.147 1.2323 1.7306 2.8724 2.7208 5.1111 3.086 8.4742 1.3823 8.1855 1.224 8.1855 4.4886v3.0405h-26.995-26.995l-0.55096-3.3333c-0.30303-1.8333-0.55537-5.8733-0.56075-8.9778-0.009-5.2281-0.23272-5.8674-3.032-8.6667l-3.02-3.04h-13.956-13.956l-3.0222 3.0222c-2.8426 2.8426-3.0222 3.3803-3.0222 9.048 0 3.3142-0.48035 7.3542-1.0674 8.9778l-1.0675 2.952h-26.933-26.933v-3.0708zm44.929-6.2221c2.0524-2.0524 2.7862-5.7522 2.241-11.299-0.0801-0.8144 0.45948-2.9288 1.199-4.6987 2.2253-5.326 4.5734-5.8206 27.631-5.8206 26.561 0 28 0.61273 28 11.925 0 6.2371 1.4779 10.227 4.167 11.249 3.0735 1.1685 12.202 1.0243 14.969-0.23654 5.0958-2.3218 4.9328 0.27784 4.9064-78.266l-0.0243-72.176-2.5999-2.5999-2.5999-2.5999h-46.815-46.815l-2.2281 2.2281-2.2281 2.2281 0.116 73.129c0.0978 61.675 0.31604 73.516 1.3933 75.599 1.6345 3.1608 2.2277 3.365 10.022 3.4493 5.7504 0.0622 6.732-0.17694 8.6667-2.1116zm-8.1465-30.627c-3.0802-1.8782-4.7828-5.7307-4.7828-10.822 0-7.5265 4.1285-11.474 12-11.474 6.0046 0 9.8566 2.3961 10.999 6.8417 1.0112 3.9364 0.0765 11.052-1.7394 13.242-3.2518 3.921-11.793 5.0678-16.476 2.2122zm9.7541-9.396c0.69447-1.8098-1.6012-4.3964-3.3174-3.7378-2.2829 0.87603-2.8452 3.3677-1.0553 4.6765 1.7414 1.2733 3.6839 0.8563 4.3727-0.9387zm57.03 10.47c-0.97778-0.23527-2.8256-1.4137-4.1063-2.6188-4.6442-4.37-3.9973-15.728 1.0991-19.298 2.6739-1.8729 10.659-1.9049 14.233-0.0571 7.093 3.6679 6.6351 18.326-0.66774 21.377-2.8914 1.2081-7.0412 1.4426-10.558 0.59646zm5.2606-8.7944c1.9318-0.74128 1.7725-4.5351-0.23556-5.6098-2.0108-1.0761-3.6917 0.32079-3.6917 3.0679 0 2.9092 1.1055 3.6248 3.9273 2.5419zm-40.051 7.2416c-2.9836-2.0898-4.1744-6.1322-3.6171-12.278 0.68461-7.55 2.9269-9.5347 10.772-9.5347 4.6634 0 5.9794 0.35311 7.8798 2.1143 4.2186 3.9096 4.3229 14.733 0.18194 18.874-1.7903 1.7903-3.0035 2.1229-7.7433 2.1229-3.4891 0-6.3231-0.49218-7.4735-1.2979zm9.0024-8.4463c0.49376-1.5557-0.76879-5.3669-1.7779-5.3669-0.21597 0-1.0492 1.002-1.8516 2.2267-1.1757 1.7944-1.2448 2.4846-0.3561 3.5556 1.5322 1.8462 3.3272 1.6592 3.9856-0.41532zm-41.03-23.55c-3.6679-1.5955-4.7367-3.7524-4.7367-9.5591 0-7.559 4.0203-11.367 12-11.367 9.8543 0 13.07 5.3546 10.577 17.614-0.83009 4.0832-11.51 6.066-17.841 3.3123zm9.3921-7.036c0.55719-0.67137 0.76337-1.8714 0.45818-2.6667-0.71301-1.8581-4.2411-1.8682-5.7778-0.0164-1.008 1.2146-0.932 1.6155 0.5055 2.6667 2.1366 1.5623 3.5273 1.567 4.8142 0.0164zm22.639 7.2384c-5.5073-2.5108-5.1325-17.191 0.51602-20.214 2.504-1.3401 10.415-1.1164 13.302 0.37618 3.4535 1.7859 4.7285 5.3767 4.1494 11.686-0.66574 7.2533-2.8359 9.1294-10.485 9.0642-3.0707-0.0261-6.4375-0.43706-7.4817-0.91313zm9.4944-7.3995c0.9587-1.1552 0.83134-1.6973-0.77652-3.3051-1.7664-1.7664-2.0398-1.8068-3.3515-0.49509-1.7871 1.7871-0.88813 5.182 1.3722 5.182 0.88498 0 2.1251-0.62181 2.7558-1.3818zm22.596 7.6471c-3.1584-1.2802-3.9809-3.193-4.2-9.7676-0.20752-6.2282-0.13108-6.4843 2.6893-9.0096 2.4684-2.2102 3.6392-2.5992 7.8219-2.5992 8.514 0 12.831 3.8877 12.831 11.556 0 4.9114-2.0078 8.4853-5.439 9.6814-3.2569 1.1354-11.05 1.2147-13.703 0.13947zm9.1864-7.332c1.5308-1.5308 1.3197-2.7921-0.67597-4.0384-2.0101-1.2553-4.1079-0.70124-4.8706 1.2865-1.1255 2.9329 3.213 5.0855 5.5466 2.7519zm-74.21-24.72c-2.7721-1.1169-3.8359-3.6325-3.8359-9.0709 0-5.577 1.6045-8.3476 5.8654-10.128 6.6092-2.7615 14.682-0.67023 16.778 4.3463 1.6518 3.9534 0.55664 12.834-1.7948 14.553-1.8541 1.3558-13.866 1.5669-17.013 0.29908zm10.637-7.3271c0.55096-1.5366-0.95398-4.2222-2.366-4.2222-0.64035 0-1.8208 0.72545-2.6232 1.6121-1.1254 1.2436-1.2179 1.8532-0.40444 2.6667 1.3892 1.3892 4.8884 1.3525 5.3937-0.0565zm20.349 6.1649c-1.5111-1.6085-1.9327-3.1472-1.9327-7.0532 0-9.1003 2.0957-11.458 10.57-11.893 8.7705-0.44988 11.862 2.9522 11.339 12.479-0.39904 7.2707-2.044 8.5243-11.185 8.5243-6.019 0-7.0941-0.25162-8.7904-2.0573zm11.221-8.0871c-0.33091-2.316-3.2484-2.4729-4.6127-0.24795-0.7882 1.2854-0.64407 1.8614 0.71908 2.8738 2.1328 1.584 4.2875 0.13088 3.8936-2.6259zm20.726 8.5889c-1.5391-1.2785-1.9129-2.6994-2.0985-7.9765-0.20894-5.9411-0.046-6.6009 2.1793-8.8293 4.8307-4.8373 17.143-3.3846 20.014 2.3614 2.4049 4.813 0.66345 14.079-2.9032 15.448-0.7914 0.30369-4.5619 0.55216-8.3788 0.55216-5.3035 0-7.3815-0.36681-8.8126-1.5556zm12.073-7.0236c0.62481-1.6283-1.3217-3.8653-3.3634-3.8653-2.4155 0-3.8191 3.0874-2.1585 4.748 1.4976 1.4976 4.8118 0.96779 5.5219-0.88269zm-72.25-22.018c-6.0729-2.6442-8.3309-9.7412-5.3608-16.85 2.1881-5.2368 9.7453-6.938 17.594-3.9605 5.1185 1.9416 6.5482 13.587 2.2462 18.297-1.8269 2.0001-6.6058 3.793-9.9601 3.7367-0.97778-0.0164-3.0117-0.56709-4.5198-1.2237zm7.631-10.723c0-2.6376-2.0866-4.4804-3.2992-2.9136-1.875 2.4226-1.9991 3.2524-0.68323 4.5682 1.7967 1.7967 3.9824 0.8886 3.9824-1.6546zm27.893 11.322c-5.8948-0.40086-8.4279-2.8965-9.0018-8.8687-0.51136-5.3218 1.0857-11.487 3.2796-12.662 2.6222-1.4034 13.129-1.3466 14.849 0.0802 4.8316 4.007 4.9711 16.199 0.22896 20.006-1.7831 1.4312-4.1587 1.7979-9.356 1.4445zm3.6521-9.9688c0.67005-2.1111-1.0314-5.6104-2.494-5.1291-1.1968 0.39387-1.8765 3.709-1.1491 5.6046 0.70991 1.85 2.9999 1.5511 3.6431-0.47552zm26.971 9.9898c-6.6212-0.69915-10.092-7.7913-7.8074-15.952 0.61355-2.1914 1.955-4.5105 2.9811-5.1537 3.2514-2.0381 9.7167-2.474 13.607-0.91743 8.6696 3.4689 8.5517 17.74-0.17669 21.387-1.6847 0.70391-3.5759 1.2126-4.2028 1.1304-0.62682-0.0822-2.6073-0.30441-4.4012-0.49383zm4.6167-9.6053c0.86282-1.0397 0.89293-1.8765 0.12789-3.5556-1.2902-2.8316-3.5151-2.8188-4.2287 0.0244-1.0718 4.2705 1.587 6.5601 4.1008 3.5312zm-1.9974-28.469c2.0186-1.4139 2.7054-5.869 1.2564-8.1498-0.93098-1.4654-0.0701-1.4338-34.636-1.274l-30.466 0.14084-0.94781 2.4444c-0.71943 1.8554-0.65252 2.9799 0.27773 4.6667l1.2255 2.2222 30.189 0.46225c16.604 0.25423 30.4 0.55423 30.658 0.66667 0.25789 0.11242 1.3579-0.41827 2.4444-1.1793z"/>
	</g>
</svg>
