<svg xmlns:rdf="http://www.w3.org/1999/02/22-rdf-syntax-ns#" xmlns="http://www.w3.org/2000/svg" height="512" width="512" version="1.1" xmlns:cc="http://creativecommons.org/ns#" xmlns:dc="http://purl.org/dc/elements/1.1/" viewBox="0 0 512.00001 512.00001">
	<g transform="translate(0 -540.36)">
		<path d="m244.42 1050.3c0-1.5136-1.2898-2.622-4.7865-4.1129-12.838-5.4739-39.046-19.152-58.623-30.595-5.3072-3.1023-27.599-17.583-32.591-21.171-39.746-28.569-68.095-56.542-85.971-84.832-8.6094-13.625-9.8023-15.742-11.708-20.778-1.0873-2.8736-2.8084-6.585-3.8245-8.2476-1.0161-1.6627-2.6072-5.9704-3.5358-9.5729-2.3116-8.9683-4.1915-13.18-5.7411-12.863-1.0607 0.21709-1.3526-21.456-1.5609-115.87l-0.25615-116.13 3.783-0.15983c2.0807-0.0879 6.0545-0.0523 8.8308 0.0791 13.475 0.6379 52.263-4.9567 70.024-10.1 29.781-8.6241 41.603-13.103 63.988-24.239 27.814-13.838 46.59-26.864 64.774-44.934 7.6341-7.5867 10.709-8.2053 15.027-3.023 9.7012 11.642 22.555 22.507 36.932 31.218 11.002 6.6658 43.657 21.937 46.909 21.937 0.50624 0 4.2514 1.162 8.3226 2.5822 11.439 3.9904 40.49 11.156 52.244 12.885 28.875 4.2497 35.923 4.9898 50.14 5.2652 8.4565 0.16381 16.279 0.5845 17.382 0.93485 1.9893 0.63138 2.0071 1.6874 2.0071 119.98 0 104.49-0.18501 119.34-1.4856 119.34-1.9779 0-3.8932 4.0291-5.9878 12.596-0.94859 3.8796-2.7714 8.8676-4.0507 11.084-1.2794 2.2169-2.6549 5.1644-3.0567 6.5499-0.78921 2.7212-6.711 13.263-12.453 22.169-26.988 41.858-77.486 84.122-141.25 118.22-15.311 8.1867-28.517 14.745-33.091 16.434-5.9253 2.1878-7.2165 3.1792-7.2165 5.5415 0 1.7411-0.9237 1.8919-11.588 1.8919-11.022 0-11.588-0.1013-11.588-2.072zm29.958-40.044c25.35-12.753 45.182-24.241 65.113-37.716 11.314-7.6495 34.712-25.672 38.951-30.003 0.27711-0.2831 4.3774-3.9971 9.1118-8.2535 25.634-23.045 44.907-52.21 53.149-80.424l3.6792-12.596 0.32302-93.579c0.27997-81.115 0.12527-93.881-1.1619-95.845-1.6676-2.5451-8.1678-4.5408-14.911-4.5782-2.3871-0.0132-6.1541-0.45341-8.371-0.97819s-10.336-1.9065-18.043-3.0704c-14.263-2.1541-41.947-8.798-56.525-13.565-16.233-5.3086-38.653-14.543-49.376-20.338-10.967-5.9262-14.192-7.7707-19.376-11.082-3.199-2.0435-8.6844-5.9667-12.19-8.7182-8.0045-6.283-10.502-6.3812-17.651-0.69386-21.549 17.145-54.131 34.764-84.805 45.859-4.988 1.8043-10.883 3.9995-13.1 4.8782-2.2169 0.87874-6.9782 2.3211-10.581 3.2053-3.6024 0.88419-9.0691 2.46-12.148 3.5019-3.079 1.0419-9.6541 2.6198-14.611 3.5064-4.9572 0.88668-13.774 2.4806-19.594 3.542-5.8193 1.0614-12.791 2.2173-15.494 2.5685-3.2447 0.42176-5.7393 1.4649-7.3463 3.072l-2.4334 2.4334 0.32583 89.94 0.32582 89.94 3.8026 13.1c2.0914 7.2049 4.834 14.914 6.0947 17.131 1.2607 2.2169 2.8946 5.6178 3.6309 7.5576 0.73631 1.9398 2.3327 4.8872 3.5475 6.5499s2.9556 4.4731 3.8684 6.2454c2.5214 4.8959 8.4151 12.803 16.686 22.387 29.068 33.682 71.249 64.643 128.07 94.002 15.582 8.0514 20.342 9.9316 23.912 9.4449 1.7898-0.244 9.4985-3.5852 17.131-7.4248zm-93.35-146.6c-16.956-16.75-32.757-32.349-35.113-34.664-6.4754-6.3649-6.0627-8.2275 4.0518-18.289 6.64-6.6055 8.9355-8.2911 11.291-8.2911 2.511 0 6.5461 3.5694 26.77 23.68 24.439 24.303 25.532 25.11 30.506 22.546 1.2106-0.62405 14.444-13.264 29.408-28.088 91.375-90.521 115.76-114.44 117.24-114.99 2.6786-0.99523 4.5193 0.17824 13.147 8.3817 11.657 11.084 11.753 10.628-5.8419 27.879-7.704 7.5534-45.169 44.568-83.256 82.255s-69.76 68.855-70.386 69.262c-0.62541 0.40718-2.4544 0.74721-4.0643 0.75576-2.4944 0.0129-7.4859-4.4876-33.757-30.439z"/>
	</g>
</svg>
