<?xml version="1.0" encoding="UTF-8" standalone="no"?>
<svg id="svg2" xmlns:rdf="http://www.w3.org/1999/02/22-rdf-syntax-ns#" xmlns="http://www.w3.org/2000/svg" height="512" width="512" version="1.1" xmlns:cc="http://creativecommons.org/ns#" xmlns:dc="http://purl.org/dc/elements/1.1/" viewBox="0 0 511.99999 511.99999">
	<g id="layer1" transform="translate(0,-540.3622)">
		<path id="path3594" d="m152.79843 942.49559c-18.38429-5.27244-34.06556-21.26326-38.62103-39.38341-1.16398-4.62995-1.29092-4.75-5.02256-4.75-3.70066 0-3.83876-0.12511-4.13936-3.75l-0.31098-3.75-5.761251-0.2999-5.761253-0.29991v-24.40019-24.40019l5.761253-0.29991 5.761251-0.2999v-9-9l-52.35225-0.25892c-28.793737-0.14241-52.35225-0.4958-52.35225-0.78532s4.746251-6.81051 10.547224-14.49108l10.547225-13.96468h42.055515 42.055516v-11-11h-37.155904c-20.435747 0-37.00561-0.38289-36.821917-0.85086 0.183691-0.46797 5.068231-7.20096 10.854533-14.9622l10.520548-14.11136 26.30137-0.0378 26.30137-0.0378v-46.5-46.5h122.73973 122.73972v18 18h51.01928 51.01929l1.54332 4.75c8.82551 27.16289 44.70774 146.93941 44.70774 149.23649v3.01353h6.51272 6.51272v24.5 24.5h-6.51272-6.51272v3.97886 3.97886l-19.7239 0.27114-19.72392 0.27114-1.17836 4.5c-3.5275 13.4711-15.71512 28.58606-28.00787 34.73508-16.96797 8.48763-35.88004 8.46437-52.10176-0.0641-12.64636-6.64874-24.15225-21.20897-27.60137-34.92839l-1.19604-4.75742-63.18758 0.25742-63.18757 0.25741-1.179 4.5c-2.40379 9.17479-6.6794 16.32127-14.42694 24.11396-7.99288 8.03945-15.11204 12.33976-25.2583 15.25716-7.42454 2.13482-21.52838 2.0208-29.40352-0.23771zm25.81233-26.13021c6.01724-2.24695 12.83262-8.38067 16.11497-14.5032 3.1665-5.90644 3.08791-20.23098-0.14424-26.29126-9.56885-17.9416-32.81088-21.60331-47.48239-7.4807-10.91992 10.51138-11.16266 30.01787-0.51158 41.10959 8.13856 8.47524 20.8806 11.32642 32.02324 7.16557zm238.30339-0.79779c5.54914-2.69514 11.34369-8.26088 14.26881-13.70541 3.15039-5.86379 3.09511-20.22746-0.10088-26.21548-9.59071-17.96915-32.85986-21.66924-47.52114-7.55648-10.91992 10.51138-11.16266 30.01787-0.51158 41.10959 3.14573 3.27586 8.76869 6.66714 13.72559 8.27809 4.57933 1.48823 15.21989 0.47892 20.1392-1.91031zm35.57602-142.45541c-0.71527-2.3375-5.30666-17.4125-10.20311-33.5l-8.90263-29.25h-28.32431-28.32431v33.5 33.5h38.52742 38.52742l-1.30048-4.25z"/>
	</g>
</svg>
