<?xml version="1.0" encoding="UTF-8" standalone="no"?>
<svg id="svg2" xmlns:rdf="http://www.w3.org/1999/02/22-rdf-syntax-ns#" xmlns="http://www.w3.org/2000/svg" height="512" width="512" version="1.1" xmlns:cc="http://creativecommons.org/ns#" xmlns:dc="http://purl.org/dc/elements/1.1/" viewBox="0 0 511.99999 511.99999">
	<g id="layer1" transform="translate(0,-540.3622)">
		<path id="path3529" d="m100.24143 1050.8655c-4.328862-2.0507-7.262535-7.3293-7.267199-13.0758-0.0021-2.5339 7.647929-41.72143 16.999969-87.08365 9.35202-45.36222 17.00121-83.18497 16.9982-84.05056-0.003-0.86559-28.106418-27.92141-62.45199-60.12404-66.486662-62.33833-65.5797384-61.35553-64.12507889-69.48963 0.67603969-3.78026 4.48636329-9.25319 7.69718089-11.0558 1.0566568-0.59323 39.336299-5.06435 85.065872-9.93584 45.729576-4.87148 83.262076-8.9804 83.405556-9.13092 0.14349-0.15052 15.10618-35.57815 33.25042-78.72807 18.14424-43.14993 33.73239-79.64372 34.64032-81.09731 2.34379-3.75244 7.45275-6.73168 11.5438-6.73168s9.20001 2.97924 11.5438 6.73168c0.90792 1.45359 16.49607 37.94738 34.64031 81.09731 18.14425 43.14992 33.10694 78.57755 33.25042 78.72807 0.14349 0.15052 37.67599 4.25944 83.40556 9.13092 45.72957 4.87149 84.00921 9.34261 85.06587 9.93584 3.21082 1.80261 7.02114 7.27554 7.69718 11.0558 1.46002 8.16406 2.3894 7.15667-64.1287 69.51136-34.34003 32.19068-62.44001 59.21988-62.44437 60.06489-0.004 0.845 7.6721 38.77224 17.05879 84.28274 9.3867 45.5105 17.09079 84.57649 17.12023 86.81339 0.10599 8.0562-6.29385 14.6444-14.22933 14.648-2.8619 0.001-17.34079-8.4286-75.01288-43.6747-39.30655-24.02195-72.20992-43.89478-73.11861-44.16181-0.96676-0.28409-31.37364 17.67247-73.29627 43.28461-76.37476 46.6603-76.05167 46.4932-83.30905 43.0552zm88.31338-80.49303 60.44247-36.87578-0.0816-162.20988c-0.0685-136.25236-0.2954-161.70618-1.41769-159.06227-0.73486 1.73118-11.95646 28.38215-24.9369 59.22439-12.98045 30.84224-24.27378 57.1542-25.09629 58.47106-3.17149 5.07758-4.86946 5.36657-75.74406 12.89168-37.541372 3.98595-69.601755 7.39571-71.245298 7.57722-2.754604 0.30421 1.12223 4.18581 49.581498 49.64241 28.91337 27.12182 53.38585 50.43075 54.3833 51.79762 3.7088 5.08246 3.20982 8.54044-11.45056 79.35236-7.76556 37.50889-14.49755 69.96852-14.95997 72.13252-0.46242 2.1639-0.63299 3.9345-0.37906 3.9345s27.66081-16.59414 60.90415-36.87583z"/>
	</g>
</svg>
