<?xml version="1.0" encoding="UTF-8" standalone="no"?>
<!-- Created with Inkscape (http://www.inkscape.org/) -->

<svg
   xmlns:dc="http://purl.org/dc/elements/1.1/"
   xmlns:cc="http://creativecommons.org/ns#"
   xmlns:rdf="http://www.w3.org/1999/02/22-rdf-syntax-ns#"
   xmlns:svg="http://www.w3.org/2000/svg"
   xmlns="http://www.w3.org/2000/svg"
   xmlns:sodipodi="http://sodipodi.sourceforge.net/DTD/sodipodi-0.dtd"
   xmlns:inkscape="http://www.inkscape.org/namespaces/inkscape"
   width="512"
   height="512"
   viewBox="0 0 511.99999 511.99999"
   id="svg2"
   version="1.1"
   inkscape:version="0.91 r13725"
   sodipodi:docname="star-half-left.svg">
  <defs
     id="defs4" />
  <sodipodi:namedview
     id="base"
     pagecolor="#ffffff"
     bordercolor="#666666"
     borderopacity="1.0"
     inkscape:pageopacity="0.0"
     inkscape:pageshadow="2"
     inkscape:zoom="0.35"
     inkscape:cx="-139.28571"
     inkscape:cy="520"
     inkscape:document-units="px"
     inkscape:current-layer="layer1"
     showgrid="false"
     units="px"
     inkscape:window-width="1920"
     inkscape:window-height="1057"
     inkscape:window-x="-8"
     inkscape:window-y="-8"
     inkscape:window-maximized="1" />
  <metadata
     id="metadata7">
    <rdf:RDF>
      <cc:Work
         rdf:about="">
        <dc:format>image/svg+xml</dc:format>
        <dc:type
           rdf:resource="http://purl.org/dc/dcmitype/StillImage" />
        <dc:title></dc:title>
      </cc:Work>
    </rdf:RDF>
  </metadata>
  <g
     inkscape:label="Layer 1"
     inkscape:groupmode="layer"
     id="layer1"
     transform="translate(0,-540.3622)">
    <path
       style="fill:#000000"
       d="m 100.33621,1051.752 c -3.116415,-1.3938 -6.391563,-6.2502 -6.391563,-9.4774 0,-2.059 22.141713,-138.98302 27.624583,-170.82988 0.54522,-3.16686 -1.38431,-5.26228 -58.304456,-63.3174 C 30.88719,775.10413 3.3833934,746.61619 2.1452269,744.82078 c -2.76306349,-4.0066 -2.85254238,-7.68192 -0.2942438,-12.08599 1.3127318,-2.25985 3.1906292,-3.71583 5.749357,-4.45764 2.089928,-0.6059 40.0025389,-6.55711 84.2502449,-13.22493 44.247705,-6.66782 80.742435,-12.31278 81.099405,-12.54436 0.35696,-0.23156 17.05778,-35.46279 37.11292,-78.29161 20.05513,-42.82882 37.43855,-78.99241 38.62981,-80.36352 4.0435,-4.654 10.63487,-4.654 14.67836,0 1.19127,1.37111 18.57468,37.5347 38.62982,80.36352 20.05514,42.82882 36.75596,78.06005 37.11292,78.29161 0.35696,0.23158 36.8517,5.87654 81.0994,12.54436 44.24771,6.66782 82.16032,12.61903 84.25025,13.22493 6.61339,1.91729 9.62642,9.95632 5.95012,15.87541 -0.96013,1.54586 -28.46127,30.08361 -61.11367,63.41721 -57.37082,58.56771 -59.34909,60.71662 -58.80598,63.87837 5.99393,34.89383 27.62522,168.71146 27.62522,170.89776 0,1.8328 -1.13696,4.3374 -2.91954,6.4316 -5.7452,6.7492 -3.50191,7.7338 -83.12678,-36.482 -39.34618,-21.84912 -72.69929,-40.19336 -74.11802,-40.76508 -2.30561,-0.9291 -10.37981,3.27972 -76.04094,39.63768 -40.40378,22.3725 -74.81215,40.8688 -76.46304,41.103 -1.65089,0.2343 -3.95248,7e-4 -5.11463,-0.5191 z m 269.7571,-66.23374 c 1.17503,-1.23338 2.00108,-3.50073 2.00108,-5.49261 0,-2.73417 -17.77989,-114.11857 -19.5166,-122.26426 -0.39475,-1.85151 7.3172,-10.20594 43.05825,-46.64547 25.53698,-26.03603 43.78924,-45.436 44.14404,-46.9198 0.79044,-3.30575 -1.03832,-7.39257 -3.88662,-8.68565 -1.24627,-0.56579 -28.76146,-5.0157 -61.14486,-9.8887 -32.3834,-4.87298 -59.04567,-9.03501 -59.24949,-9.24897 -0.20382,-0.21394 -12.32862,-25.84239 -26.94399,-56.95213 -14.61537,-31.10974 -27.3493,-57.18176 -28.29763,-57.93782 -4.40256,-3.50997 -4.24552,-9.55557 -3.97876,153.16708 l 0.25344,154.60856 52.52828,29.13336 c 36.72714,20.36969 53.50645,29.14742 55.78003,29.18011 1.96502,0.0283 4.04359,-0.78441 5.25283,-2.0537 z"
       id="path3542"
       inkscape:connector-curvature="0" />
  </g>
</svg>
