<?xml version="1.0" encoding="UTF-8" standalone="no"?>
<svg id="svg2" xmlns:rdf="http://www.w3.org/1999/02/22-rdf-syntax-ns#" xmlns="http://www.w3.org/2000/svg" height="512" width="512" version="1.1" xmlns:cc="http://creativecommons.org/ns#" xmlns:dc="http://purl.org/dc/elements/1.1/" viewBox="0 0 512.00001 512.00001">
	<g id="layer1" transform="translate(0,-540.36216)">
		<path id="path3347" d="m101.42232 1038.9438c-4.22469-1.8396-9.168243-8.1183-9.926723-12.6077-0.481864-2.8521 3.734705-22.4579 18.055393-83.95222 18.17557-78.04753 18.63324-80.27895 16.81654-81.98992-1.02714-0.96737-27.06753-23.47896-57.86753-50.02577-65.5248916-56.47651-64.1676169-55.23822-66.7175281-60.8687-3.7382407-8.25445-0.1640462-17.74643 8.2189731-21.82712 4.068402-1.98042 12.281113-2.84289 85.888748-9.01978l81.390197-6.82997 31.11982-73.98022c17.1159-40.68912 32.04039-75.55497 33.16553-77.47966 5.66225-9.686 21.05172-10.66211 27.78089-1.76207 1.35629 1.79383 16.6401 36.93097 33.96403 78.08253 17.32392 41.15156 31.65359 74.93041 31.84369 75.0641 0.19011 0.1337 36.79565 3.27589 81.34565 6.98264 73.44738 6.11115 81.41946 6.94435 85.49855 8.9359 10.02238 4.89325 12.85128 17.26106 5.95381 26.02977-1.12667 1.43233-28.46436 25.40207-60.75042 53.26609-32.28607 27.86402-59.72595 51.63729-60.97752 52.82948l-2.27558 2.16761 18.59252 79.82572c14.59845 62.67739 18.4527 80.65339 17.94162 83.67839-1.7643 10.4428-13.46448 17.5182-22.98393 13.8989-1.44713-0.5502-33.85679-19.8836-72.02146-42.96302l-69.3903-41.96268-28.29365 17.12393c-115.47924 69.89057-113.60645 68.80487-118.61308 68.76297-2.57431-0.022-6.06552-0.6422-7.75824-1.3792zm80.50352-157.62824c21.20369-21.13558 45.16698-30.63654 84.32416-33.43285l8.75-0.62486v20.80039 20.80039l35.2464-35.24639 35.24639-35.2464-34.49096-34.50183c-18.97003-18.97601-34.83091-34.50183-35.24639-34.50183-0.41549 0-0.75766 8.6625-0.76037 19.25l-0.005 19.25-12.80757 3.10005c-22.78671 5.51548-39.45874 14.2572-54.78763 28.72706-18.56362 17.52331-30.45464 37.91346-37.85509 64.9121-3.45918 12.61994-3.33363 14.3566 0.66952 9.26079 1.72827-2.2 7.00068-7.84598 11.71647-12.54662z"/>
	</g>
</svg>
