<?xml version="1.0" encoding="UTF-8" standalone="no"?>
<svg id="svg2" xmlns:rdf="http://www.w3.org/1999/02/22-rdf-syntax-ns#" xmlns="http://www.w3.org/2000/svg" height="512" width="512" version="1.1" xmlns:cc="http://creativecommons.org/ns#" xmlns:dc="http://purl.org/dc/elements/1.1/" viewBox="0 0 512.00001 512.00001">
	<g id="layer1" transform="translate(0,-540.36216)">
		<path id="path3360" d="m100.96996 1038.1122c-5.129611-2.5914-8.520207-7.1285-9.452942-12.6493-0.511078-3.025 3.343173-21.001 17.941622-83.67839l18.59252-79.82572-2.27558-2.16761c-1.25157-1.19219-28.691452-24.96546-60.977518-52.82948s-59.6237568-51.83376-60.7504248-53.26609c-6.8974667-8.76871-4.06856774-21.13652 5.9538078-26.02977 4.0791-1.99155 12.051178-2.82475 85.498555-8.9359 44.55-3.70675 81.15554-6.84894 81.34565-6.98264 0.1901-0.13369 14.51977-33.91254 31.84369-75.0641 17.32393-41.15156 32.60774-76.2887 33.96403-78.08253 6.72917-8.90004 22.11864-7.92393 27.78089 1.76207 1.12514 1.92469 16.04963 36.79054 33.16553 77.47966l31.11982 73.98022 81.3902 6.82997c73.60763 6.17689 81.82034 7.03936 85.88874 9.01978 8.38302 4.08069 11.95722 13.57267 8.21898 21.82712-2.54991 5.63048-1.19264 4.39219-66.71753 60.8687-30.8 26.54681-56.84039 49.0584-57.86753 50.02577-1.8167 1.71097-1.35903 3.94239 16.81654 81.98992 14.32069 61.49432 18.53726 81.10012 18.05539 83.95222-0.77802 4.6051-5.76154 10.8178-10.14749 12.6503-1.81097 0.7567-5.30088 1.3758-7.75535 1.3758-4.72666 0-4.41754 0.1796-118.3952-68.80217l-28.29365-17.12393-69.3903 41.96268c-38.16467 23.07942-70.57433 42.41282-72.02146 42.96302-4.1906 1.5933-8.73415 1.1737-13.53099-1.2496zm241.57202-153.18932c-7.40986-27.19914-19.29552-47.63686-37.93692-65.23359-15.32889-14.46986-32.00092-23.21158-54.78763-28.72706l-12.80757-3.10005-0.005-19.25c-0.003-10.5875-0.34488-19.25-0.76037-19.25-0.41548 0-16.27636 15.52582-35.24639 34.50183l-34.49096 34.50183 35.24639 35.2464 35.2464 35.24639v-20.80039-20.80039l8.75 0.62486c29.97284 2.14043 50.46609 8.15841 68.42171 20.09248 8.60243 5.71754 19.87344 16.16795 25.99022 24.09797 5.39663 6.99639 5.85713 5.61292 2.38005-7.15028z"/>
	</g>
</svg>
