<?xml version="1.0" encoding="UTF-8" standalone="no"?>
<svg id="svg2" xmlns:rdf="http://www.w3.org/1999/02/22-rdf-syntax-ns#" xmlns="http://www.w3.org/2000/svg" height="512" width="512" version="1.1" xmlns:cc="http://creativecommons.org/ns#" xmlns:dc="http://purl.org/dc/elements/1.1/" viewBox="0 0 511.99999 511.99999">
	<g id="layer1" transform="translate(0,-540.3622)">
		<path id="path3503" d="m100.39528 1049.9641c-4.779123-2.8367-8.140218-7.7607-9.019164-13.2128-0.506237-3.1403 3.419757-22.2996 18.001604-87.85005l18.64906-83.83391-2.82984-2.62494c-1.55641-1.44372-29.060975-26.38535-61.121246-55.42583-32.060272-29.04049-59.1999991-54.01143-60.3105046-55.49099-6.8731451-9.15724-4.02198776-22.13514 5.99284-27.27822 4.0877866-2.09927 11.9808666-2.97016 85.4181836-9.4248 44.502817-3.91149 81.245407-7.35626 81.650217-7.65505s14.8344-35.71997 32.06575-78.71375c17.23137-42.99377 32.47317-79.75515 33.87069-81.69196 6.66156-9.23215 21.58407-8.31267 27.68657 1.70597 1.31123 2.15272 16.2692 38.61858 33.23991 81.03526 16.9707 42.41668 31.18671 77.36569 31.59114 77.66448s37.09393 3.75094 81.53224 7.67146c57.01875 5.03043 81.93747 7.6065 84.67245 8.75336 10.19082 4.27329 13.87114 19.06327 7.01629 28.19615-0.98702 1.31503-29.01906 27.03743-62.29342 57.1609-33.27436 30.12346-60.8689 55.12975-61.32121 55.56953-0.45229 0.43978 7.57392 38.51595 17.83605 84.61372 20.51049 92.13377 20.12831 89.55607 14.30799 96.50327-4.15962 4.9649-7.73627 6.7223-13.68133 6.7223-5.37019 0-2.37514 1.8161-119.01108-72.1634l-28.28275-17.93909-68.83418 43.63329c-37.8588 23.9984-70.28396 44.2714-72.05593 45.0512-4.71136 2.0736-10.24908 1.7076-14.77033-0.9761zm95.33317-92.3846c28.72319-18.21557 54.04664-33.69151 56.27433-34.39099 3.17171-0.99588 4.9284-0.99606 8.0981-0.0008 2.22627 0.69903 29.25881 17.25767 60.07232 36.79698s56.02456 34.98433 56.02456 34.32226c0-0.66205-6.53286-30.53147-14.51748-66.37647-7.98461-35.84499-14.51748-67.15157-14.51748-69.57017 0-2.41858 0.85539-6.14927 1.90086-8.29039 1.31868-2.70066 17.10771-17.71142 51.55263-49.0115 27.30847-24.8152 49.65601-45.37062 49.66122-45.67873 0.005-0.30809-29.93459-3.20962-66.53287-6.44783-74.47739-6.58976-71.21122-5.95121-75.98685-14.85562-1.28848-2.40244-13.3365-31.86638-26.77338-65.47541-13.43689-33.60903-24.65596-61.10682-24.9313-61.10619-0.27533 0.00062-1.95332 3.6543-3.72886 8.11928-1.77553 4.46497-13.35761 33.37927-25.73793 64.254-23.98926 59.8257-24.37722 60.58535-32.07914 62.81404-1.97052 0.57021-31.39243 3.45334-65.38202 6.40697-33.9896 2.95363-63.097658 5.70506-64.684579 6.1143-2.752735 0.70988-0.589694 2.82439 47.074719 46.01836 35.83688 32.47574 50.45023 46.35158 51.69408 49.08519 0.95372 2.09599 1.73404 5.74481 1.73404 8.10847 0 2.36368-6.53286 33.69383-14.51748 69.62257-7.98461 35.92874-14.51747 65.85626-14.51747 66.5056 0 0.64935 1.70909 0.0499 3.79799-1.33204 2.08889-1.38197 27.29879-17.41631 56.02199-35.63188z"/>
	</g>
</svg>
