<svg xmlns:rdf="http://www.w3.org/1999/02/22-rdf-syntax-ns#" xmlns="http://www.w3.org/2000/svg" height="512" width="512" version="1.1" xmlns:cc="http://creativecommons.org/ns#" xmlns:dc="http://purl.org/dc/elements/1.1/" viewBox="0 0 512.00001 512.00001">
	<g transform="translate(0 -540.36)">
		<path d="m240.07 1051.9c-56.29-3.5-110.89-26.1-153.15-63.57-37.642-33.36-63.954-75.29-77.561-123.58-11.124-39.48-12.175-84.71-2.9105-125.24 14.944-65.37 55.266-122.45 112.38-159.06 27.475-17.615 60.6-30.518 92.53-36.041 14.979-2.5909 31.549-4.0441 46.112-4.0441h6.8012l123.77 123.77 123.77 123.77-0.005 10.635c-0.0112 44.905-12.634 89.943-36.217 129.22-16.744 27.888-39.68 53.462-65.084 72.571-49.641 37.34-109 55.288-170.44 51.54zm39.352-40.063c35.146-4.1112 66.374-15.32 95.096-34.133 36.794-24.1 65.91-59.48 82.271-99.97 6.988-17.294 11.588-34.638 13.959-52.635l0.98827-7.5018-18.916-0.3089c-22.787-0.3722-35.74-1.4784-54.309-4.6375-60.41-10.26-105.38-38.9-132.36-84.26-20.72-34.84-30.86-78.32-30.93-132.59l-0.0196-15.066-2.7459 0.34867c-7.6496 0.97135-14.441 2.0364-19.231 3.0161-65.52 13.399-121.01 55.949-150.99 115.77-11.11 22.171-17.894 44.793-21.398 71.347-1.3801 10.461-1.3753 40.254 0.008 50.766 4.6865 35.607 16.261 66.585 35.664 95.455 30.061 44.727 76.246 76.884 128.6 89.538 11.206 2.7088 20.345 4.1713 35.242 5.6397 6.9417 0.6842 30.682 0.2221 39.086-0.7609zm81.096-319.37c-77.762-77.77-85.633-85.49-85.801-84.154-0.24644 1.958 0.83115 16.859 1.8082 25.003 7.6538 63.801 34.872 105.64 82.595 126.97 23.101 10.325 50.66 16.043 85.419 17.726 1.3885 0.067-9.476-10.995-84.021-85.548z"/>
	</g>
</svg>
