<svg xmlns:inkscape="http://www.inkscape.org/namespaces/inkscape" xmlns:rdf="http://www.w3.org/1999/02/22-rdf-syntax-ns#" xmlns="http://www.w3.org/2000/svg" sodipodi:docname="support-stroke.svg" height="512" width="512" version="1.1" xmlns:cc="http://creativecommons.org/ns#" xmlns:dc="http://purl.org/dc/elements/1.1/" inkscape:version="0.91 r13725" viewBox="0 0 512.00001 512.00001" xmlns:sodipodi="http://sodipodi.sourceforge.net/DTD/sodipodi-0.dtd">
	<sodipodi:namedview bordercolor="#666666" inkscape:pageshadow="2" inkscape:window-y="-8" pagecolor="#ffffff" inkscape:window-height="1017" inkscape:window-maximized="1" inkscape:zoom="0.35" inkscape:window-x="-8" showgrid="false" borderopacity="1.0" inkscape:current-layer="layer1" inkscape:cx="-126.42857" inkscape:cy="748.57143" units="px" inkscape:window-width="1920" inkscape:pageopacity="0.0" inkscape:document-units="px"/>
	<g inkscape:label="Layer 1" inkscape:groupmode="layer" transform="translate(0 -540.36)">
		<path inkscape:connector-curvature="0" d="m249.23 1051.8c-7.7405-1.4548-16.513-7.5409-20.966-14.546-6.278-9.875-6.7986-22.652-1.3415-32.922 2.1243-3.9979 7.8933-10.22 11.674-12.591 20.144-12.631 47.179 0.3159 49.794 23.847l0.39916 3.5911 3.2966-0.1495c9.3116-0.4222 24.459-2.964 36.263-6.0849 45.575-12.05 87.938-42.244 117.82-83.975l4.896-6.8374-15.805-0.37607c-13.243-0.3151-16.548-0.57566-20.386-1.6075-14.125-3.7966-22.973-12.985-26.66-27.686-0.81445-3.2472-1.0244-8.7942-1.2609-33.311-0.30353-31.47 0.18737-42.67 2.171-49.531 4.1824-14.466 14.479-24.81 28.286-28.418 3.2931-0.86041 8.4143-1.0414 35.785-1.2643l31.941-0.2602-0.30574-3.3966c-0.16819-1.8681-0.45937-5.5544-0.64704-8.1917-0.53441-7.5078-2.5527-20.556-4.5702-29.547-19.204-85.582-89.966-154.3-176.9-171.8-16.521-3.3246-23.643-4.0722-41.812-4.3885-18.245-0.31761-29.464 0.49208-44.341 3.2002-38.286 6.9693-73.72 23.572-104.71 49.061-9.1575 7.5322-25.162 23.79-32.664 33.181-19.656 24.606-33.467 50.803-42.402 80.432-4.2545 14.108-7.6587 32.081-8.7609 46.256l-0.40421 5.198 31.685 0.23656c30.315 0.22634 31.889 0.29304 36.419 1.5433 10.405 2.872 19.689 10.52 24.278 20.001 5.0854 10.506 5.0562 10.244 5.3096 47.729 0.13709 20.283-0.0127 35.09-0.38571 38.14-2.1071 17.226-11.22 28.138-27.416 32.83-4.6252 1.3398-5.3153 1.368-33.493 1.368-25.756 0-29.26-0.11471-33.438-1.0947-10.578-2.481-18.802-8.6245-22.775-17.014l-1.9271-4.0684-0.18663-57.841c-0.18819-58.322 0.026-66.893 2.0441-81.816 9.6461-71.327 49.976-136.07 110.23-176.96 26.132-17.733 56.994-30.925 87.211-37.279 18.424-3.8741 30.135-5.064 49.749-5.0552 28.665 0.013 51.174 3.4134 77.021 11.635 80.011 25.452 142.37 88.667 165.22 167.5 3.4957 12.059 6.2897 25.867 8.1263 40.159 0.98047 7.6303 1.0783 14.344 1.0783 74.024v65.633l-1.9189 4.051c-4.4042 9.2976-14.611 15.953-26.932 17.561-3.0434 0.39716-3.0804 0.42736-3.3943 2.7675-1.037 7.7312-22.478 35.958-40.671 53.544-40.417 39.067-89.535 60.965-142.95 63.73l-9.5705 0.4954-3.4476 2.8082c-8.3378 6.7911-18.141 9.3894-28.255 7.4886zm12.679-23.042c6.0382-3.4374 6.6403-13.158 1.0858-17.527-8.7003-6.8437-21.107 2.4884-16.851 12.675 0.9997 2.3927 4.6467 5.6748 6.8434 6.1589 0.90053 0.1984 1.907 0.4398 2.2367 0.5365 1.2405 0.3638 4.2816-0.4746 6.6855-1.8432zm-168.92-130.11c3.6693-1.0896 6.85-3.696 8.6769-7.1101 1.31-2.448 1.3133-2.5465 1.3133-38.717v-36.263l-1.4295-3.5476c-1.8174-4.5102-5.2257-8.2131-9.2233-10.02l-3.133-1.4165h-30.868-30.868l-0.16508 45.553c-0.0908 25.054-0.0227 46.142 0.15128 46.862 0.174 0.71985 1.1458 1.8995 2.1597 2.6214 3.7449 2.6666 5.9077 2.8524 33.858 2.9091 22.173 0.045 26.914-0.0949 29.528-0.87122zm385.05-0.0617c1.9515-0.54759 4.3043-1.7229 5.2876-2.6415l1.7717-1.6549-0.15356-46.358-0.15356-46.358h-30.269c-22.476 0-30.902 0.19258-32.726 0.74796-5.2042 1.5843-8.9542 5.3616-11.179 11.26-1.3326 3.533-1.3509 3.9854-1.518 37.404-0.11521 23.047 0.0426 34.846 0.49467 37.025 1.1285 5.4359 5.3304 9.6466 10.967 10.99 1.0417 0.24823 13.609 0.47892 27.928 0.51267 22.471 0.0529 26.515-0.0737 29.55-0.9252z"/>
	</g>
</svg>
