<svg xmlns:inkscape="http://www.inkscape.org/namespaces/inkscape" xmlns:rdf="http://www.w3.org/1999/02/22-rdf-syntax-ns#" xmlns="http://www.w3.org/2000/svg" sodipodi:docname="support3.svg" height="512" width="512" version="1.1" xmlns:cc="http://creativecommons.org/ns#" xmlns:dc="http://purl.org/dc/elements/1.1/" inkscape:version="0.91 r13725" viewBox="0 0 512.00001 512.00001" xmlns:sodipodi="http://sodipodi.sourceforge.net/DTD/sodipodi-0.dtd">
	<sodipodi:namedview bordercolor="#666666" inkscape:pageshadow="2" inkscape:window-y="-8" pagecolor="#ffffff" inkscape:window-height="1017" inkscape:window-maximized="1" inkscape:zoom="0.35" inkscape:window-x="-8" showgrid="false" borderopacity="1.0" inkscape:current-layer="layer1" inkscape:cx="-126.42857" inkscape:cy="520" units="px" inkscape:window-width="1920" inkscape:pageopacity="0.0" inkscape:document-units="px"/>
	<g inkscape:label="Layer 1" inkscape:groupmode="layer" transform="translate(0 -540.36)">
		<path inkscape:connector-curvature="0" d="m167.13 1043.9c-38.057-1.8578-72.891-7.546-99.114-16.185-31.754-10.461-55.538-26.142-65.81-43.391-2.0222-3.3958-2.2567-4.1502-2.2007-7.0796 0.11054-5.7845 5.047-27.753 9.4821-42.198 3.1893-10.387 6.0508-17.715 10.322-26.431 7.4094-15.122 13.482-22.209 25.062-29.247 21.089-12.819 86.599-48.696 89.312-48.912 2.9793-0.2376 3.9341 0.198 11.408 5.2044 11.04 7.3957 21.489 12.123 33.087 14.969 4.5788 1.1236 4.7845 1.4878 12.736 22.552 4.0163 10.64 7.4249 19.346 7.5746 19.347 0.14976 0 3.4581-8.5093 7.3519-18.912 7.7806-20.787 8.3761-21.853 12.831-22.955 10.99-2.7192 22.822-7.9255 31.71-13.953 2.6325-1.7852 5.8695-3.9487 7.1933-4.8079 4.1389-2.6861 5.0813-2.4268 19.742 5.4337 34.385 18.436 60.626 33.065 74.275 41.407 11.687 7.1428 18.067 13.899 24.867 26.335 8.115 14.841 15.565 39.104 20.247 65.936 1.434 8.2193 1.2424 9.3149-2.6593 15.209-5.3943 8.149-12.921 15.267-23.68 22.395-30.841 20.431-78.295 32.264-141.65 35.32-12.951 0.6248-48.971 0.6037-62.083-0.036zm275.46-154.87c-0.95488-0.4153-18.176-12.056-38.27-25.868s-36.862-25.239-37.263-25.393c-0.40131-0.154-2.9075 0.092-5.5693 0.5462-11.307 1.9304-19.046 2.5856-33.975 2.8766l-15.521 0.3025-17.427-9.3934c-9.5847-5.1663-17.539-9.4953-17.676-9.6199-0.13728-0.1245 1.9458-2.2768 4.629-4.7828 3.1992-2.9879 5.467-4.6718 6.5878-4.8919 0.9401-0.1845 4.8611 0.085 8.7134 0.5998 5.3229 0.7108 11.187 0.9428 24.431 0.9663 20.653 0.037 22.904-0.1859 50.113-4.956 1.4648-0.2568 5.0711 2.0672 32.947 21.232 30.747 21.139 31.309 21.495 31.671 20.064 0.20248-0.8008 2.9789-18.978 6.1698-40.394l5.8015-38.938 4.5133-4.629c10.884-11.163 18.197-21.268 23.656-32.687 8.8359-18.484 11.26-37.92 7.1639-57.441-6.0685-28.923-26.675-55.029-59.104-74.877-13.634-8.3448-33.304-16.252-51.402-20.663-15.894-3.8735-29.693-5.5245-48.262-5.7742l-13.615-0.18305-3.5398-3.203c-7.1711-6.4889-15.349-12.088-24.482-16.764-5.963-3.0523-6.1404-2.8573 3.8982-4.2859 22.363-3.1827 47.012-3.2796 68.493-0.26932 40.2 5.6334 75.547 20.236 103.94 42.938 55.742 44.573 68.785 112.5 32.211 167.74-4.8524 7.3287-9.3914 13.134-14.521 18.571l-3.661 3.8809-7.2087 48.011c-3.9647 26.406-7.4611 48.869-7.7697 49.918-1.8176 6.1749-9.7938 9.9268-15.67 7.3711zm-248.9-47.112c-4.825-0.5452-8.3514-1.325-14.033-3.1029-30.296-9.4813-58.302-33.592-72.991-62.838-2.3904-4.7595-2.5257-5.245-1.8862-6.7677 0.37889-0.9022 1.3296-3.3558 2.1127-5.4525l1.4238-3.8121 0.16403-37.531c0.10701-24.485-0.036-38.82-0.41146-41.24-0.76142-4.9075-2.3352-8.9823-5.0246-13.01l-2.2044-3.3012 1.1952-7.1625c7.2426-43.403 27.293-62.603 71.904-68.854 8.617-1.2074 38.996-1.3872 47.923-0.28354 24.769 3.0621 40.973 9.6066 52.858 21.349 4.1311 4.0815 8.7967 10.576 11.541 16.065 3.8648 7.7301 7.2829 19.224 9.388 31.568l1.2972 7.6068-2.1079 3.1567c-2.5939 3.8844-4.1741 8.0058-4.9249 12.845-0.37237 2.4-0.5107 16.808-0.39596 41.24 0.16176 34.444 0.25758 37.794 1.1578 40.487 0.77872 2.3294 0.83823 3.0244 0.28811 3.3644-1.0935 0.6758-12.053 2.6075-19.816 3.4926-7.8263 0.8923-25.495 1.9023-33.42 1.9104-4.9469 0-5.1608-0.047-7.0513-1.7066-3.0918-2.7147-9.0964-5.2942-13.721-5.8941-5.2625-0.6829-21.955-0.6829-27.218 0-5.6621 0.7346-11.127 3.4223-15.503 7.6246-14.379 13.807-9.795 37.256 8.8145 45.092 4.4581 1.8772 10.511 2.4286 23.243 2.1172 13.078-0.3199 16.448-1.0117 22.105-4.5364 1.8209-1.1347 2.648-1.2003 18.516-1.4681l16.61-0.2803-1.6338 1.3469c-10.237 8.4392-17.353 13.192-27.229 18.185-14.726 7.445-29.815 11.05-40.97 9.7898zm-5.3193-37.609c-5.0724-1.9577-8.3672-6.1967-8.8362-11.368-0.44306-4.8861 0.59646-7.8909 3.9028-11.281 4.018-4.1199 5.944-4.5612 19.909-4.5612 14.107 0 15.868 0.4165 20.094 4.7516l2.9393 3.0152 18.844-0.3105c19.817-0.3265 30.876-1.2747 42.603-3.6526 10.168-2.0617 20.048-5.3531 25.29-8.4249l2.5524-1.4958-3.2857-1.577c-3.6725-1.7627-6.2481-4.3747-7.9585-8.0712-1.1321-2.4467-1.1467-2.9748-1.1467-41.416v-38.938l1.2549-2.7229c0.69019-1.4976 2.4528-3.8476 3.9168-5.2221l2.6619-2.4992-0.81875-6.4865c-2.8885-22.884-9.7883-43.216-18.834-55.499-6.391-8.6784-16.087-16.8-26.276-22.009-17.307-8.848-42.724-13.212-72.184-12.394-42.695 1.1856-69.794 12.067-86.644 34.793-4.1328 5.5739-10.155 17.791-12.744 25.853-2.3624 7.3569-4.7242 18.571-5.9742 28.368l-0.92275 7.2314 2.7386 2.5712c1.5062 1.4141 3.3033 3.7965 3.9935 5.2941l1.2549 2.7229v38.938c0 38.806-0.004 38.946-1.1818 41.495-1.7018 3.683-5.3987 7.1504-9.1003 8.5354-2.8866 1.08-4.1304 1.1602-17.988 1.1602-12.015 0-15.347-0.1619-17.27-0.8392-5.4516-1.9199-9.3532-6.1925-10.638-11.65-1.0623-4.5126-1.0311-73.023 0.0353-77.556 0.9091-3.864 3.1664-7.1164 6.5673-9.4624 3.4519-2.3811 5.5548-2.8678 12.408-2.8713 3.2198-0.002 5.8543-0.097 5.8543-0.21196 0-0.1149 0.49813-3.9424 1.107-8.5056 1.781-13.349 3.5729-21.821 6.795-32.129 16.294-52.126 57.814-77.288 127.6-77.326 73.529-0.0397 115.63 27.744 130.22 85.948 2.0458 8.1564 3.0332 13.472 4.386 23.611 0.60118 4.5059 1.0931 8.2865 1.0931 8.4014 0 0.11491 2.757 0.21968 6.1266 0.23282 8.6068 0.0336 12.788 1.8216 16.343 6.9898 3.0564 4.4423 3.1085 5.1827 3.1085 44.177s-0.0521 39.735-3.1085 44.177c-3.3886 4.9252-8.049 7.0137-15.651 7.0137h-5.0248l-2.5414 3.2347c-6.6804 8.5031-20.862 15.857-38.34 19.881-15.225 3.5055-27.217 4.6876-51.042 5.0312l-19.605 0.2827-1.9446 1.8655c-3.6966 3.5461-6.0253 4.017-19.708 3.985-10.617-0.025-12.447-0.1581-14.834-1.0794z"/>
	</g>
</svg>
