<?xml version="1.0" encoding="UTF-8" standalone="no"?>
<svg id="svg2" xmlns:rdf="http://www.w3.org/1999/02/22-rdf-syntax-ns#" xmlns="http://www.w3.org/2000/svg" height="512" width="512" version="1.1" xmlns:cc="http://creativecommons.org/ns#" xmlns:dc="http://purl.org/dc/elements/1.1/" viewBox="0 0 512.00001 512.00001">
	<g id="layer1" transform="translate(0,-540.36216)">
		<g id="g3920" transform="matrix(19.834967 0 0 19.834967 -.902724 540.36216)">
			<g id="g3880">
				<path id="path3882" fill="#030104" d="m13.953 14c0-1.105 0.895-2 2-2s2 0.895 2 2-0.895 2-2 2-2-0.895-2-2zm-6-2c-1.105 0-2 0.895-2 2s0.895 2 2 2 2-0.895 2-2-0.895-2-2-2zm14-2h-0.161c0.004-6.996-4.665-10-9.839-10-5.581 0-10.741 3.464-9.786 11.715-0.745 0.685-1.214 1.807-1.214 3.125 0 1.872 1.793 3.478 3.182 3.987 0.45 1.485 1.357 2.829 2.65 3.916 0.188 0.157 0.416 0.234 0.643 0.234 0.285 0 0.568-0.121 0.766-0.356 0.355-0.423 0.301-1.054-0.122-1.409-1.144-0.961-1.864-2.112-2.141-3.423-0.091-0.431-0.53-0.755-0.969-0.793-0.449-0.039-2.009-1.134-2.009-2.156 0-0.479 0.101-0.883 0.251-1.194 0.184 0.212 0.446 0.354 0.749 0.354 0.552 0 1-0.447 1-1v-0.961c0.037-0.634 0.127-1.291 0.286-1.937 1.372-0.465 2.525 0.29 3.714-3.212 1.743 5.181 6.253 2.194 9.351 2.052 0.358 0.88 0.581 1.907 0.649 3.098v0.96c0 0.553 0.447 1 1 1v2.485c-0.371 0.308-0.758 0.515-1 0.515-0.473 0-0.881 0.331-0.979 0.793-0.188 0.893-0.591 1.721-1.193 2.463-0.349 0.429-0.284 1.059 0.145 1.406 0.43 0.351 1.059 0.284 1.406-0.145 0.657-0.808 1.137-1.697 1.43-2.652 0.51-0.162 1.027-0.472 1.497-0.865h0.687c-0.548 2.776-2.095 4.081-2.394 4.304-0.265 0.113-1.758 0.677-4.829 0.845-0.207-1.11-1.363-1.962-2.77-1.962-1.554 0-2.813 1.036-2.813 2.313s1.259 2.313 2.813 2.313c0.982 0 1.843-0.415 2.347-1.041 4.156-0.16 5.939-1.021 6.097-1.106 0.125-0.083 2.766-1.909 3.267-6.233 0.731-0.545 1.195-1.429 1.195-2.433v-2c0-1.657-1.25-3-2.906-3z"/>
			</g>
		</g>
	</g>
</svg>
