<?xml version="1.0" encoding="UTF-8" standalone="no"?>
<svg xmlns:rdf="http://www.w3.org/1999/02/22-rdf-syntax-ns#" xmlns="http://www.w3.org/2000/svg" height="512" width="512" version="1.1" xmlns:cc="http://creativecommons.org/ns#" xmlns:dc="http://purl.org/dc/elements/1.1/" viewBox="0 0 512.00001 512.00001">
	<g transform="translate(0 -540.36)">
		<path d="m83.825 1050.4c-8.4534-2.2807-14.96-6.0886-21.388-12.516-6.5505-6.5505-10.245-12.961-12.567-21.805-1.798-6.8-1.87-15.2-1.87-219.74 0-204.5 0.07153-212.91 1.87-219.76 2.3218-8.8437 6.0166-15.254 12.567-21.805 6.5505-6.5505 12.961-10.245 21.805-12.567 6.8189-1.7902 14.144-1.87 171.76-1.87 157.61 0 164.94 0.0797 171.76 1.87 8.8437 2.3218 15.254 6.0166 21.805 12.567 6.5505 6.5505 10.245 12.961 12.567 21.805 1.7985 6.8502 1.87 15.256 1.87 219.76s-0.0715 212.91-1.87 219.76c-2.3218 8.8437-6.0166 15.254-12.567 21.805-6.5505 6.5504-12.961 10.245-21.805 12.567-6.8239 1.7915-14.046 1.8675-172.19 1.8098-155.74-0.057-165.44-0.1619-171.74-1.861zm178.5-15.443c10.275-4.2929 12.779-17.763 4.7888-25.754-11.235-11.235-29.646-1.1718-26.689 14.588 1.7662 9.4147 12.722 15 21.9 11.165zm137.68-238.64v-192h-144-144v192 192h144 144v-192z"/>
	</g>
</svg>
