<svg xmlns:inkscape="http://www.inkscape.org/namespaces/inkscape" xmlns:rdf="http://www.w3.org/1999/02/22-rdf-syntax-ns#" xmlns="http://www.w3.org/2000/svg" sodipodi:docname="team.svg" height="512" width="512" version="1.1" xmlns:cc="http://creativecommons.org/ns#" xmlns:dc="http://purl.org/dc/elements/1.1/" inkscape:version="0.91 r13725" viewBox="0 0 512.00001 512.00001" xmlns:sodipodi="http://sodipodi.sourceforge.net/DTD/sodipodi-0.dtd">
	<sodipodi:namedview bordercolor="#666666" inkscape:pageshadow="2" inkscape:window-y="-8" pagecolor="#ffffff" inkscape:window-height="1017" inkscape:window-maximized="1" inkscape:zoom="0.35" inkscape:window-x="-8" showgrid="false" borderopacity="1.0" inkscape:current-layer="layer1" inkscape:cx="-126.42857" inkscape:cy="520" units="px" inkscape:window-width="1920" inkscape:pageopacity="0.0" inkscape:document-units="px"/>
	<g inkscape:label="Layer 1" inkscape:groupmode="layer" transform="translate(0 -540.36)">
		<path inkscape:connector-curvature="0" d="m14.979 1051.5c-3.7921-1.1643-8.1161-5.5802-9.2704-9.4673-1.0762-3.6242-1.0809-5.4992-0.0248-10.053 2.3923-10.316 7.686-22.5 13.596-31.294 7.705-11.465 18.168-21.489 29.802-28.552 2.3132-1.4043 4.2058-2.6512 4.2058-2.7708 0-0.1197-1.5647-2.1555-3.477-4.5243-10.78-13.353-15.744-29.648-14.032-46.068 2.8132-26.988 21.747-48.657 48.382-55.372 6.9196-1.7444 21.667-1.749 28.566-0.01 23.75 5.9898 40.995 22.975 47.072 46.362 1.8114 6.9715 2.2643 17.741 1.0554 25.099-1.9346 11.775-7.5664 23.619-15.159 31.878-1.1314 1.2309-2.0572 2.3664-2.0572 2.5233s1.682 1.2846 3.7377 2.5059c10.733 6.3762 21.989 16.755 29.042 26.776 0.8666 1.2315 0.98472 1.2607 1.5263 0.3779 1.5072-2.457 7.3925-9.274 11.552-13.381 5.2181-5.1519 13.755-11.735 18.493-14.26 3.5718-1.9037 3.5885-1.524-0.25744-5.8267-6.3617-7.1172-11.693-18.376-13.724-28.984-1.0248-5.3523-1.1921-16.008-0.33443-21.307 4.9661-30.686 31.4-53.261 62.358-53.256 22.815 0.01 43.7 12.204 55.149 32.216 5.8462 10.218 8.7228 23.873 7.6463 36.296-1.2058 13.916-6.0874 25.096-16.203 37.11l-1.6342 1.941 3.4896 2.007c8.9204 5.1306 19.865 14.8 26.829 23.703l3.563 4.5549 1.129-1.5564c7.6818-10.59 17.916-20.013 28.687-26.412 2.0557-1.2213 3.7377-2.3996 3.7377-2.6185 0-0.2188-0.52773-0.8644-1.1728-1.4347-2.2533-1.9921-7.3529-9.333-9.8271-14.146-7.7844-15.143-9.083-32.81-3.5972-48.938 3.2002-9.4087 7.9583-17.008 15.156-24.206 9.8966-9.8966 22.022-15.978 35.902-18.008 6.0537-0.8851 17.46-0.365 23.186 1.0572 36.472 9.0598 57.134 46.618 45.12 82.017-2.4232 7.1402-7.5852 15.933-12.636 21.525-0.97926 1.084-1.7805 2.1085-1.7805 2.2766 0 0.1682 2.0206 1.5389 4.4903 3.0461 19.747 12.052 34.878 31.614 41.507 53.665 2.514 8.362 2.9009 12.219 1.6144 16.093-1.3558 4.0821-5.5838 8.2712-9.531 9.4434-2.6273 0.7802-25.349 0.8578-241.06 0.8235-210.07-0.033-238.47-0.1342-240.82-0.8543zm316.68-181.03c-4.2021-6.0611-16.118-17.814-22.335-22.031-13.166-8.9295-27.015-14.181-42.537-16.13l-5.3045-0.6662 6.0927-6.0573c5.7092-5.6761 13.394-11.676 19.344-15.1 1.4219-0.8186 2.5853-1.6594 2.5853-1.8684s-1.2379-1.839-2.7508-3.6221c-3.8666-4.5573-6.1441-8.1122-8.9436-13.96-14.079-29.411-2.8492-65.239 25.541-81.482 20.769-11.883 46.409-11.105 66.142 2.0069 29.324 19.484 37.126 58.341 17.636 87.833-1.3181 1.9945-3.5254 4.8819-4.9051 6.4164-1.3797 1.5346-2.416 2.8758-2.303 2.9805 0.11305 0.1048 2.0757 1.3212 4.3615 2.7032 2.2857 1.382 6.082 3.9844 8.4363 5.7831 4.2517 3.2485 14.894 13.435 14.894 14.256 0 0.2359-0.70408 0.4289-1.5646 0.4289-0.8605 0-4.5956 0.5136-8.3002 1.1414-23.824 4.037-45.847 17.785-59.711 37.276l-3.2622 4.5861-3.1151-4.4933zm-157.9-0.5646c-11.694-15.833-27.741-27.477-46.22-33.537-6.022-1.9748-17.904-4.4094-21.521-4.4094-0.86054 0-1.5646-0.2061-1.5646-0.4581 0-0.2519 2.6329-3.0233 5.851-6.1587 6.1344-5.9767 11.483-10.193 17.839-14.061 2.0878-1.2707 3.8851-2.391 3.9942-2.4896 0.10904-0.099-1.0192-1.6004-2.5071-3.3373-22.043-25.731-20.164-63.889 4.2841-87.004 18.748-17.726 46.945-22.331 69.965-11.426 24.596 11.651 39.203 37.505 36.129 63.946-1.463 12.585-5.7672 22.818-13.9 33.047-1.9508 2.4537-3.547 4.5733-3.547 4.7102 0 0.1368 1.682 1.2481 3.7377 2.4694 6.2981 3.7416 12.461 8.6195 18.512 14.652l5.7801 5.762-5.3726 0.6905c-15.196 1.9528-28.706 7.0028-41.476 15.503-7.0295 4.6791-19.122 16.422-23.339 22.664-1.4661 2.1703-2.8121 3.946-2.991 3.946s-1.8234-2.0284-3.6545-4.5076zm78.852-160.54c-15.391-21.081-40.624-35.704-65.192-37.781-2.2248-0.18807-4.0451-0.56287-4.0451-0.83291 0-0.27002 2.388-2.8743 5.3067-5.7873 5.6922-5.681 11.865-10.59 17.553-13.958 1.9458-1.1524 3.8327-2.3211 4.1931-2.5973 0.47676-0.36522-0.16623-1.4705-2.3597-4.0561-9.9006-11.671-14.983-25.594-14.969-41.006 0.018-20.12 9.2032-38.412 25.382-50.55 4.8728-3.6556 14.457-8.3711 20.469-10.071 21.701-6.1369 45.158-0.10332 61.191 15.74 13.611 13.449 20.411 31.751 18.707 50.346-0.57481 6.2723-0.75208 7.202-2.4787 13-2.5283 8.4899-8.0899 18.327-13.602 24.059-2.1382 2.2235-2.2973 1.9572 3.07 5.136 1.9458 1.1524 5.4972 3.5675 7.892 5.3669 4.4668 3.3563 14.968 13.425 14.968 14.352 0 0.28464-1.8203 0.67139-4.0451 0.85946-24.5 2.071-49.843 16.758-65.192 37.781-1.8031 2.4696-3.3437 4.4903-3.4236 4.4903s-1.6205-2.0207-3.4236-4.4903z"/>
	</g>
</svg>
