<?xml version="1.0" encoding="UTF-8" standalone="no"?>
<svg id="svg2" xmlns:rdf="http://www.w3.org/1999/02/22-rdf-syntax-ns#" xmlns="http://www.w3.org/2000/svg" height="512" width="512" version="1.1" xmlns:cc="http://creativecommons.org/ns#" xmlns:dc="http://purl.org/dc/elements/1.1/" viewBox="0 0 512.00001 512.00001">
	<g id="layer1" transform="translate(0,-540.36216)">
		<path id="path3542" d="m336 1041.7472c-15.13136-1.0168-45.81191-6.529-64-11.4984-4.125-1.1271-23.7-7.3685-43.5-13.8698-19.8-6.5014-39.825-12.5672-44.5-13.4795s-10.80388-2.1006-13.61973-2.6406c-3.43258-0.65829-6.43809-2.11032-9.12039-4.40626-7.82209-6.69542-7.25988 2.40966-7.25988-117.57586v-107.28315l2.13271-4.40559c2.70127-5.58008 8.48996-9.79813 15.42133-11.23708 11.48077-2.3834 23.28235-14.10718 58.37358-57.98878 9.01639-11.275 19.3587-23.8123 22.98291-27.86068 19.65782-21.95849 22.16823-27.6336 31.01512-70.11385 5.59331-26.85747 16.31622-44.83452 28.58558-47.92398 4.06206-1.02284 19.76011-0.1449 26.48877 1.48143 21.55077 5.20887 33.21787 13.9396 41.98018 31.41467 8.63201 17.2152 10.46185 50.59652 4.13876 75.50241-2.47444 9.74654-4.82341 15.56798-12.5086 31-5.20414 10.45-9.74232 19.98594-10.08485 21.19097l-0.62279 2.19097 50.29865 0.30903 50.29865 0.30903 7.47743 2.72888c18.25161 6.66092 33.22878 21.95251 39.12223 39.94354 3.04495 9.29538 3.33253 26.6137 0.61155 36.82758-2.10694 7.9089-7.47844 19.12278-11.95005 24.94763l-3.30866 4.30997 2.35163 9.1212c2.01041 7.79771 2.28308 10.78986 1.87921 20.6212-0.54843 13.3501-3.08671 22.09539-9.35082 32.21698-3.88085 6.27069-3.88616 6.29381-2.70693 11.78302 1.52724 7.10912 1.65758 17.50024 0.30357 24.20078-2.94324 14.56503-9.46101 28.46092-16.28683 34.72353-2.54253 2.33275-2.64233 2.83072-2.64233 13.18463 0 17.53291-3.21839 29.09116-11.72728 42.11628-9.43338 14.4403-24.64529 23.8808-45.77272 28.4066-5.13973 1.101-15.23832 1.5823-38 1.8112-17.05 0.1714-33.475 0.1453-36.5-0.058zm-321.271541-41.6897c-5.3431631-1.6934-10.6266476-6.25936-12.8122577-11.07234-1.79217408-3.94658-1.8722773-8.67946-1.8722773-110.62298 0-100.87752 0.09613961-106.71163 1.8210579-110.50858 2.2903029-5.04149 7.9419757-10.06619 12.8576841-11.43129 2.396921-0.66563 21.604581-1.05101 52.559453-1.05455 53.193651-0.006 52.871191-0.0377 59.093981 5.79747 1.58185 1.48332 3.70947 4.49695 4.72804 6.69695 1.76542 3.81314 1.85296 8.96491 1.8739 110.28212 0.024 116.34004 0.3325 110.12094-5.78109 116.55716-6.0628 6.38274-3.83712 6.14174-58.69695 6.35604-36.489728 0.1425-51.019091-0.1277-53.771541-1zm52.548875-40.75545c11.307664-3.14016 17.700672-16.78789 12.857684-27.44845-6.779993-14.92436-26.68953-16.69814-35.702734-3.18082-6.902228 10.35144-2.613072 24.45224 9.067716 29.81056 4.568473 2.09569 8.36628 2.32137 13.777334 0.81871z"/>
	</g>
</svg>
