<?xml version="1.0" encoding="UTF-8" standalone="no"?>
<svg id="svg2" xmlns:rdf="http://www.w3.org/1999/02/22-rdf-syntax-ns#" xmlns="http://www.w3.org/2000/svg" height="512" width="512" version="1.1" xmlns:cc="http://creativecommons.org/ns#" xmlns:dc="http://purl.org/dc/elements/1.1/" viewBox="0 0 512.00001 512.00001">
	<g id="layer1" transform="translate(0,-540.36216)">
		<path id="path3347" d="m188.4018 1050.8765c-13.36316-2.9073-10.79012-0.6014-98.595274-88.36214-74.727747-74.68997-81.9477904-82.1934-84.676077-87.99958-6.2521255-13.3054-6.2438228-26.95906 0.0244166-40.1526 2.8692116-6.03919 12.9870304-16.39917 142.7166344-146.13246 130.58367-130.58738 140.06229-139.8416 146.32503-142.86096 4.08699-1.97039 9.54257-3.622 14-4.23831 6.87889-0.95112 10.47178-0.50643 61.80347 7.64936 88.5856 14.07485 89.03961 14.15665 95.58149 17.22134 7.76469 3.63754 17.142 13.01485 20.77954 20.77954 3.06469 6.54188 3.14649 6.99589 17.22134 95.58149 8.15579 51.33169 8.60048 54.92458 7.64936 61.80347-0.61631 4.45743-2.26792 9.91301-4.23831 14-3.0202 6.26449-12.23723 15.70085-142.86096 146.26042-109.14368 109.09013-140.77216 140.16043-144.85207 142.29583-5.38965 2.821-16.51469 5.6525-21.78039 5.5434-1.65-0.034-5.74419-0.6591-9.0982-1.3888zm24.62824-42.7643c7.31151-3.6937 11.00351-11.25984 9.51526-19.50002-0.60014-3.3229-9.35419-12.44596-76.86129-80.10126-44.20938-44.30643-77.534563-76.93831-79.401891-77.75-4.609957-2.00385-9.201085-1.73077-14.312158 0.85126-7.715107 3.89755-11.159972 11.51075-8.977669 19.84077 1.049049 4.00431 8.108546 11.36993 76.871508 80.2049 78.07984 78.16165 78.48054 78.52735 86.17431 78.66045 1.39596 0.024 4.54233-0.9686 6.99193-2.2061zm191.49334-315.82216c6.69999-3.28308 13.08457-9.84537 16.27827-16.73136 3.72947-8.04117 3.76086-19.29849 0.0759-27.1965-3.27273-7.01428-9.86327-13.60483-16.87755-16.87751-7.89801-3.68501-19.15533-3.65361-27.1965 0.0759-23.18312 10.75225-26.67176 40.93897-6.59854 57.09629 8.78139 7.06832 24.01659 8.68123 34.31842 3.63322z"/>
	</g>
</svg>
