<?xml version="1.0" encoding="UTF-8" standalone="no"?>
<svg id="svg2" xmlns:rdf="http://www.w3.org/1999/02/22-rdf-syntax-ns#" xmlns="http://www.w3.org/2000/svg" height="512" width="512" version="1.1" xmlns:cc="http://creativecommons.org/ns#" xmlns:dc="http://purl.org/dc/elements/1.1/" viewBox="0 0 511.99999 511.99999">
	<g id="layer1" transform="translate(0,-540.3622)">
		<path id="path3386" d="m107.0964 1051.2998c-1.32198-0.6823-3.34698-2.5111-4.5-4.0638l-2.0964-2.8233-0.2604-185.92722-0.260402-185.92729h156.010402 156.0104l-0.006 183.7505c-0.004 118.54052-0.35794 185.01891-0.99848 187.32471-0.54609 1.9659-2.15479 4.6659-3.57489 6l-2.58198 2.4258-147.66954 0.2406c-115.96901 0.189-148.18552-0.026-150.07313-1zm84.9036-191.7411v-124.00034h-21.5-21.5v124.00034 124.00034h21.5 21.5v-124.00034zm85 0v-124.00034h-21-21v124.00034 124.00034h21 21v-124.00034zm86 0v-124.00034h-21.5-21.5v124.00034 124.00034h21.5 21.5v-124.00034zm-285.5-201.71089c-3.171301-0.77589-6.417677-4.33386-7.495944-8.21542-1.100522-3.96168-1.367866-28.00529-0.367037-33.00945 0.350361-1.7518 1.959976-4.50806 3.576923-6.12502l2.939904-2.9399h41.868284 41.86828l0.3048-29.75009c0.33427-32.62776 0.37807-32.87065 6.44665-35.75038 4.76355-2.26046 173.95273-2.26046 178.71628 0 6.06858 2.87973 6.11238 3.12262 6.44665 35.75038l0.3048 29.75009h41.86828 41.86828l2.93991 2.9399c3.72734 3.72735 4.21521 6.32824 4.20836 22.43516-0.006 14.87175-0.88529 19.23443-4.57337 22.69933l-2.582 2.42574-178.16952 0.13949c-97.99324 0.07671-179.06953-0.08071-180.16953-0.34983zm231.5-63.78983v-10.50003h-53-53v10.50003 10.50003h53 53v-10.50003z"/>
	</g>
</svg>
