<svg xmlns:rdf="http://www.w3.org/1999/02/22-rdf-syntax-ns#" xmlns="http://www.w3.org/2000/svg" height="512" width="512" version="1.1" xmlns:cc="http://creativecommons.org/ns#" xmlns:dc="http://purl.org/dc/elements/1.1/" viewBox="0 0 512.00001 512.00001">
	<g transform="translate(0 -540.36)">
		<path d="m20.187 1051.8c-5.7152-1.3596-11.219-5.9706-13.914-11.657l-1.6389-3.4582v-66.739-66.739l1.4444-2.941c1.8738-3.8154 4.5384-6.8915 7.7605-8.9591 5.0568-3.2449 5.0428-3.2437 36.114-3.25l28.301-0.01 0.14907-48.26 0.14908-48.26 1.6414-3.4566c2.1666-4.5627 5.734-8.1534 10.204-10.271l3.5761-1.6941 70.598-0.1387 70.598-0.1387-0.13676-34.959-0.13677-34.959-28.982-0.2659-28.982-0.2659-3.1994-1.6732c-3.5337-1.8481-7.577-5.8275-9.1647-9.0199-2.3358-4.6967-2.3065-3.7007-2.1467-73.063l0.15254-66.207 1.5638-3.0885c3-5.9253 8.3987-10.163 14.656-11.503 2.189-0.469 22.19-0.5853 79.502-0.4624l76.577 0.1642 3.5633 1.6881c4.5335 2.1477 8.0227 5.6369 10.17 10.17l1.6881 3.5633v66.739 66.739l-1.7166 3.6242c-2.0864 4.405-6.1049 8.497-10.541 10.734l-3.1638 1.5954-29.115 0.1503-29.115 0.1503v35.073 35.073l71.392 0.1405 71.392 0.1405 2.941 1.4444c3.8721 1.9017 6.9742 4.6124 8.9464 7.8177 3.3862 5.5032 3.2685 3.5073 3.2685 55.429v47.215l28.849 0.1504 28.849 0.1504 2.941 1.4444c5.6373 2.7686 9.3776 7.038 11.339 12.943 0.81964 2.4678 0.88117 8.065 0.75157 68.334l-0.14118 65.646-1.5566 3.0721c-2.0311 4.0086-4.4203 6.7494-7.8929 9.0544-5.7604 3.8235-0.0495 3.5947-85.785 3.437l-77.087-0.1417-3.4707-1.7087c-3.9528-1.946-8.0156-5.6846-9.6486-8.8784-2.5923-5.07-2.5326-3.3854-2.5393-71.61-0.007-71.224-0.21392-66.996 3.5568-72.677 2.2102-3.3301 4.8327-5.4992 9.0212-7.4614l3.1034-1.4539 28.583-0.1463 28.583-0.1463v-34.819-34.819h-136.14-136.14v34.814 34.814l28.849 0.1504 28.849 0.1504 3.1839 1.5632c4.2382 2.0809 7.9149 5.8553 10.008 10.274l1.6981 3.5846 0.164 64.612c0.12212 48.115 0.004 65.359-0.46241 67.537-1.3774 6.431-5.5964 11.704-11.665 14.581l-3.4581 1.6388-77.375 0.084c-43.895 0.047-78.239-0.1216-79.371-0.391zm130.95-81.854v-40.948h-52.115-52.115v40.948 40.948h52.115 52.115v-40.948zm314.16 0.133-0.13625-40.815-52.248-0.1355-52.248-0.1356v40.95 40.95h52.384 52.384l-0.13624-40.815zm-157.28-347.39v-40.948h-52.115-52.115v40.948 40.948h52.115 52.115v-40.948z"/>
	</g>
</svg>
