<?xml version="1.0" encoding="UTF-8" standalone="no"?>
<svg id="svg2" xmlns:rdf="http://www.w3.org/1999/02/22-rdf-syntax-ns#" xmlns="http://www.w3.org/2000/svg" height="512" width="512" version="1.1" xmlns:cc="http://creativecommons.org/ns#" xmlns:dc="http://purl.org/dc/elements/1.1/" viewBox="0 0 512.00001 512.00001">
	<g id="layer1" transform="translate(0,-540.36216)">
		<path id="path3581" d="m140 975.28633c-13.00137-2.22634-26.59387-12.62469-32.25287-24.67367-16.917402-36.02001 16.30606-74.40628 54.35566-62.80234 15.7557 4.805 28.55392 19.99482 30.91746 36.69503 4.27942 30.23741-22.60754 55.98882-53.02025 50.78098zm17.5-23.78981c11.08839-5.05004 16.52736-18.91016 11.62907-29.63434-7.44462-16.29902-30.03411-18.17833-39.86896-3.31687-2.44113 3.6888-2.76011 5.1038-2.76011 12.24384 0 7.47085 0.24089 8.4199 3.22946 12.72334 6.08652 8.76441 18.32889 12.28408 27.77054 7.98403zm220.5 23.72329c-20.57325-3.39856-37-22.99736-37-44.14479 0-35.48719 39.57738-57.46811 69.19951-38.43277 13.63644 8.76285 20.83101 21.96317 20.83101 38.21993 0 12.66531-3.40852 21.37578-12.07542 30.85875-6.08338 6.65619-16.38184 12.18055-25.4551 13.65478-6.82578 1.10906-7.90847 1.09817-15.5-0.1559zm17.55581-23.74376c7.37549-3.35005 13.44419-12.65514 13.44419-20.61387 0-5.00697-2.2913-10.54935-6.19437-14.98348-4.98829-5.667-10.73019-7.90703-18.77632-7.32502-17.67917 1.27879-26.53257 21.97137-15.55715 36.36088 5.71589 7.49393 18.3122 10.5456 27.08365 6.56149zm-391.2404382-30.12085c-3.6489248-1.47019-4.3153718-4.24581-4.3153718-17.97273 0-12.5872 0.09809802-13.2093 2.4545455-15.56574l2.4545454-2.45455h52.1531681 52.153171l-5.56975 6.01599c-6.042974 6.52713-11.969534 17.73281-13.736671 25.97269l-1.074737 5.01132-41.167136-0.0634c-22.641925-0.03485-42.1502187-0.45947-43.3517642-0.94358zm203.3749882 0.25698c-0.23523-0.4125-0.74161-2.55-1.1253-4.75-1.15271-6.60948-8.14279-19.8768-13.64324-25.89516l-5.12251-5.60484h56.07834 56.07834l0.272-106.25c0.26834-104.81457 0.29951-106.29681 2.30739-109.71462 1.11947-1.90553 3.59447-4.38053 5.5-5.5 3.32866-1.95551 5.03428-2.03538 43.46462-2.03538 44.29949 0 46.0141 0.19539 59.42776 6.77203 11.37015 5.57473 17.95713 13.32854 43.07492 50.70539 26.24356 39.05206 27.03852 40.36014 30.10852 49.54224 2.31318 6.91852 2.33679 7.46525 2.66608 61.73034l0.33222 54.75h9.9907c9.27409 0 10.16677 0.17606 12.44525 2.45455 2.36246 2.36245 2.45455 2.95857 2.45455 15.88921 0 11.73453-0.24178 13.73343-1.91054 15.79546l-1.91054 2.36078-31.10511 0.29099c-24.74238 0.23147-31.18385 0.0269-31.48999-1-3.72129-12.48266-5.66964-17.19769-9.58455-23.19473-10.99494-16.84255-29.45125-26.86955-49.49927-26.89211-18.2437-0.0205-33.31118 6.87545-45.43825 20.79585-5.74279 6.59202-11.17615 17.10303-13.05225 25.25l-1.20898 5.25h-59.34124c-32.63769 0-59.5337-0.3375-59.76892-0.75zm229.30964-157.25c4.07876-4.07876 3.01043-6.28266-16.52411-34.08817-10.18826-14.502-19.52576-26.92385-20.75-27.60411-1.62098-0.90073-10.13819-1.24648-31.34103-1.27228-27.969-0.0341-29.21887 0.0462-31.75 2.03714l-2.63486 2.07258v28.42742c0 27.09409 0.0938 28.52123 2 30.42742 1.94502 1.94502 3.33333 2 50.5 2s48.55498-0.055 50.5-2zm-416.545455 96.54545-2.454545-2.45454 0.021962-112.29546c0.02085-106.59847 0.11465-112.49838 1.848971-116.29545 1.004855-2.2 3.31833-5.4507 5.141057-7.22378 6.81814-6.63243 0.702223-6.33804 125.54678-6.04307l112.94123 0.26685 4 2.15268c5.02071 2.702 7.97178 5.83886 9.95227 10.57885 1.366 3.26928 1.54773 16.97642 1.54773 116.73635 0 111.69879-0.0236 113.05571-2 115.03212-1.97884 1.97884-3.33333 2-128.04545 2h-126.045459l-2.454546-2.45455zm158.781475-101.30943c47.08735-47.08734 44.4417-42.61701 32.51398-54.93857-8.24572-8.51798-11.69371-10.68836-15.61271-9.8276-1.81658 0.39898-12.30945 10.19369-31.66842 29.56129l-28.95169 28.96461-16.74688-16.72515c-16.18067-16.15967-16.88471-16.72515-20.823473-16.72515-3.797553 0-4.653973 0.58786-12.51171 8.58815-13.073996 13.31119-14.309495 10.45148 18.835153 43.59613 26.52511 26.52511 27.37864 27.27027 31.23603 27.27027 3.88785 0 4.74687-0.78112 43.72972-39.76398z"/>
	</g>
</svg>
