<svg xmlns:rdf="http://www.w3.org/1999/02/22-rdf-syntax-ns#" xmlns="http://www.w3.org/2000/svg" height="512" width="512" version="1.1" xmlns:cc="http://creativecommons.org/ns#" xmlns:dc="http://purl.org/dc/elements/1.1/" viewBox="0 0 512.00001 512.00001">
	<g transform="translate(0 -540.36)">
		<path d="m156.88 989.2c-13.333-4.2281-25.233-15.272-29.549-27.422l-1.7613-4.9591h-14.501c-16.171 0-19.306-0.87169-22.022-6.1238-1.3866-2.6814-1.5717-11.911-1.5299-76.285l0.04762-73.234-10.892-2.6953c-36.759-9.1-64.236-36.32-73.812-73.13-4.8697-18.73-3.456-41.67 3.7148-60.29 6.1072-15.86 19.505-33.43 33.68-44.17 8.0441-6.096 24.465-13.983 34.717-16.674 11.484-3.0146 30.689-3.7079 42.245-1.525 43.823 8.2781 76.169 42.081 82.232 85.935l0.66526 4.8118h79.888 79.888l3.0871 2.5976c1.6979 1.4287 3.5538 4.2778 4.1241 6.3313 0.57801 2.0811 1.0395 14.831 1.0426 28.806l0.006 25.072h30.947c25.685 0 31.453 0.26136 33.92 1.5372 2.4884 1.2868 69.622 76.538 76.701 85.976l2.2793 3.0386v50.504c0 55.404 0.0602 54.827-6.0449 57.984-2.2831 1.1807-6.6283 1.5367-18.755 1.5367-14.134 0-15.845 0.18525-16.368 1.7728-2.0937 6.3568-6.4801 13.43-11.527 18.588-18.442 18.847-48.403 18.777-66.776-0.15521-4.4526-4.5881-9.6307-12.992-10.733-17.42l-0.69372-2.7858h-82.338-82.338l-3.6227 7.6283c-9.992 21.04-34.052 31.69-55.926 24.753zm19.541-23.428c8.8355-2.2248 16.458-12.048 16.478-21.235 0.0188-8.8555-7.2401-18.226-16.118-20.807-8.3279-2.421-15.081-0.63552-21.365 5.649-12.029 12.029-7.5456 30.266 8.8806 36.129 4.749 1.6949 6.3091 1.729 12.125 0.26449zm255.88 0.0909c4.9447-1.3731 11.62-7.3788 13.993-12.59 8.2379-18.088-12.027-37.23-29.873-28.217-7.8374 3.9582-11.999 10.763-11.999 19.619 0 14.856 13.562 25.163 27.879 21.188zm-304.69-39.14c3.766-8.5156 9.6534-15.713 16.704-20.422 24.275-16.21 56.06-7.589 68.486 18.576l3.6227 7.6283h63.201 63.201v-107.38-107.38h-71.904-71.904l-0.60294 2.7858c-4.4768 20.684-14.146 38.227-28.956 52.534-14.961 14.453-33.396 23.774-53.8 27.201l-3.7988 0.63799v65.8 65.8h6.5973 6.5973l2.5573-5.7825zm253.71 4.6405c0-3.1363 6.8844-14.493 11.637-19.198 10.705-10.595 21.409-14.694 36.178-13.852 8.0576 0.45942 10.044 0.99148 17.508 4.6901 11.749 5.8219 20.141 15.442 24.187 27.729 0.49165 1.4927 1.8691 1.7728 8.7198 1.7728h8.1359v-38.318-38.318l-32.67-37.215-32.67-37.215-26.845 0.0282-26.845 0.0282-0.2597 75.505-0.2597 75.505h6.591c4.2148 0.00004 6.591-0.41166 6.591-1.1419zm-265.1-156.48c15.609-3.482 31.663-13.26 41.746-25.424 25.826-31.161 22.716-75.583-7.2516-103.57-8.5519-7.9865-21.313-14.989-32.775-17.985-8.7922-2.2981-26.467-2.2697-35.934 0.0577-21.673 5.3283-40.521 20.967-50.226 41.675-5.5288 11.796-7.4174 21.605-6.8062 35.351 0.82013 18.444 6.9231 33.186 19.394 46.846 10.683 11.702 24.762 19.958 39.499 23.163 8.6496 1.8811 23.648 1.8285 32.354-0.11355zm0.19997-41.073c-3.1656-1.725-25.803-24.346-27.422-27.402-1.1679-2.2047-1.4491-8.9075-1.4491-34.546 0-31.43 0.02758-31.851 2.3096-35.252 1.5409-2.2965 3.7271-3.8938 6.5685-4.7994 3.7986-1.2107 4.6641-1.1559 8.0084 0.5065 2.0622 1.0251 4.6906 3.15 5.8409 4.7218 1.976 2.7002 2.1091 4.4336 2.4132 31.403l0.32182 28.545 10.062 10.236c9.8585 10.03 10.694 11.45 10.072 17.115-0.86617 7.887-10.069 13.098-16.725 9.4709z"/>
	</g>
</svg>
