<?xml version="1.0" encoding="UTF-8" standalone="no"?>
<svg xmlns:rdf="http://www.w3.org/1999/02/22-rdf-syntax-ns#" xmlns="http://www.w3.org/2000/svg" height="512" width="512" version="1.1" xmlns:cc="http://creativecommons.org/ns#" xmlns:dc="http://purl.org/dc/elements/1.1/" viewBox="0 0 512.00001 512.00001">
	<g transform="translate(0 -540.36)">
		<path d="m92.005 1050.9c-6.742-2.4382-13.711-8.2179-17.028-14.123-2.7723-4.9342-3.0816-6.4228-3.0749-14.798 0.0061-7.5531 0.4361-10.104 2.2768-13.505 5.5794-10.31 16.195-16.52 28.146-16.466 4.9145 0.0221 8.639 0.65633 11.255 1.9164 6.3579 3.0631 13.09 9.6256 16.103 15.697 2.5184 5.0753 2.7651 6.5381 2.3359 13.849-0.41141 7.0074-0.99218 9.0111-4.0686 14.037-1.9738 3.2246-5.4737 7.2343-7.7777 8.9105-7.796 5.6718-19.658 7.5592-28.167 4.4819zm17.352-15.943c9.9826-5.8073 9.7327-20.855-0.43191-26.007-12.931-6.5541-27.087 6.0468-21.215 18.885 3.7989 8.3064 13.899 11.629 21.647 7.1216zm141.75 14.467c-7.3312-3.6575-11.044-7.474-14.623-15.029-2.693-5.6857-3.2762-14.688-1.3861-21.398 3.1594-11.216 14.611-19.999 27.639-21.198 6.3158-0.58151 7.5083-0.35565 13.499 2.5567 8.6922 4.2255 13.907 9.6494 16.657 17.326 7.011 19.568-6.5559 39.271-27.924 40.553-6.6288 0.3978-7.981 0.1236-13.862-2.8102zm21.371-14.612c4.4851-2.7331 6.6568-6.8238 6.6568-12.539 0-18.868-25.83-20.732-29.857-2.1556-1.0106 4.6622 2.4833 12.071 6.9625 14.763 4.6216 2.7782 11.615 2.7487 16.238-0.068zm-268.06-19.4c-3.1931-0.6129-4.4031-4.0833-4.4031-12.628 0-11.466-1.968-10.897 39.023-11.28 28.37-0.26499 34.45-0.0785 33.732 1.0346-0.4817 0.74685-2.6082 3.9534-4.7255 7.1258-2.1173 3.1722-4.5276 8.0608-5.3561 10.864l-1.5065 5.0957-27.173 0.1262c-14.945 0.069-28.261-0.083-29.591-0.338zm140.87 0c-2.7788-0.3486-3.3678-0.9972-4.4164-4.863-0.66551-2.4534-3.3544-7.6137-5.9753-11.467-2.6209-3.8539-4.7652-7.178-4.7652-7.3872 0-0.20918 16.965-0.38031 37.7-0.38031h37.7l0.37321-71.648c0.3909-75.047 0.44959-75.959 5.0433-78.383 2.7755-1.4646 52.869-1.4816 60.683-0.0206 12.917 2.4153 18.323 7.7809 41.208 40.898 15.395 22.279 17.83 26.728 18.817 34.388 0.49595 3.8486 0.96802 20.732 1.049 37.519 0.081 16.787 0.39213 32.035 0.69137 33.884 0.53998 3.3373 0.58903 3.3626 6.5204 3.3626 9.1776 0 10.051 1.0677 10.047 12.285-0.002 6.2656-0.45113 9.7878-1.3622 10.687-1.0231 1.0102-6.5612 1.3418-22.409 1.3418h-21.05l-2.343-6.3726c-6.2918-17.112-21.473-27.766-39.457-27.689-16.685 0.0718-31.208 10.673-37.448 27.336l-2.1309 5.6904-11.926 0.64c-12.998 0.6973-61.38 0.8272-66.55 0.1785zm143.17-104.62c8.3758-0.56156 10.062-0.98098 11.287-2.8082 1.3142-1.9593 0.86348-3.0048-5.1293-11.898-12.203-18.11-19.686-27.609-22.728-28.851-4.3517-1.7773-39.05-1.0539-41.388 0.8629-1.4942 1.225-1.7297 3.9945-1.7159 20.175 0.008 10.315 0.46273 19.454 1.0086 20.307 0.68023 1.0636 3.5645 1.7422 9.1656 2.1566 11.181 0.82716 37.549 0.85675 49.499 0.0556zm-273.89 63.33c-1.1919-1.4161-1.4402-14.838-1.4402-77.856 0-70.908 0.1278-76.376 1.8582-79.498 4.1109-7.4176-1.352-6.9539 86.568-7.3474l79.076-0.35393 4.107 2.8062c2.9825 2.0379 4.329 3.8344 4.9178 6.5617 0.44599 2.0655 0.81088 37.877 0.81088 79.58 0 66.274-0.19826 75.948-1.574 76.806-0.95838 0.59739-35.075 0.98733-87.229 0.99698-78.41 0.0145-85.776-0.12888-87.095-1.6953zm334.87-35.062v-25.634l4.1115-5.3694c5.0228-6.5594 11.562-17.011 15.702-25.099 3.2804-6.4073 10.617-23.872 10.617-25.273 0-0.45846-14.378-0.83357-31.95-0.83357h-31.95l-17.631-19.134-17.631-19.134-0.52467-24.061-0.52467-24.061h-43.461-43.461l0.24675 7.5011 0.24674 7.5011h-14.189-14.189l-0.56537-3.3626c-0.31096-1.8494-0.68651-5.2249-0.83456-7.5011l-0.26917-4.1385-28.75-0.27556-28.75-0.27557 0.6667 7.7767 0.66671 7.7766h-15.052-15.052l-0.67415-6.3596c-1.0649-10.045-0.7855-42.347 0.44323-51.246 5.6714-41.078 24.096-81.23 51.664-112.59 35.808-40.734 81.63-65.416 136.23-73.384 14.627-2.1342 43.757-2.1439 58.493-0.0195 49.522 7.1393 90.531 27.369 125.59 61.955 33.307 32.855 53.528 71.425 61.323 116.97 2.0702 12.094 2.2517 16.075 1.8166 39.833-0.5189 28.33-1.8978 37.818-8.6844 59.756-15.463 49.984-53.577 96.46-101.09 123.27-11.513 6.4967-33.047 15.765-42.478 18.283-2.9625 0.79099-6.4488 1.7368-7.7473 2.1018l-2.361 0.66365v-25.634zm48.417-27.473c18.075-11.982 33.36-26.305 46.82-43.873l7.927-10.346-20.813-0.28114c-15.908-0.21489-21.007 0.0275-21.634 1.0285-0.45151 0.72033-2.2923 5.5027-4.0907 10.627-4.0149 11.441-15.35 34.345-21.939 44.329-2.6891 4.075-5.267 8.0227-5.7286 8.7728-1.2651 2.0558 9.2292-3.476 19.458-10.257zm-9.1439-84.619c0.31456-0.50184 1.7586-8.0676 3.209-16.813 3.1537-19.015 4.7745-39.231 3.1933-39.829-0.59498-0.22513-20.205-0.28754-43.578-0.1387l-42.497 0.27062-0.27894 28.711-0.27893 28.711h39.829c21.906 0 40.087-0.41059 40.401-0.91243zm81.309-3.5344c5.1706-11.893 10.09-31.673 11.23-45.154l0.70818-8.3728-28.222 0.27583-28.222 0.27584-1.2754 14.485c-0.70146 7.9667-2.2373 20.305-3.4131 27.418-1.1757 7.1131-2.1365 13.515-2.135 14.226 0.002 0.99792 5.6431 1.2933 24.699 1.2933h24.697l1.9332-4.4468zm-305.57-96.44c0.70146-7.9667 2.2373-20.305 3.4131-27.418 1.1757-7.1131 2.1364-13.515 2.135-14.226-0.002-0.99858-5.7332-1.2933-25.15-1.2933-22.881 0-25.234 0.16315-26.116 1.8106-4.2084 7.8676-11.288 35.527-12.394 48.418l-0.66396 7.7447 28.75-0.27556 28.75-0.27557 1.2754-14.485zm115.48-14.239 0.27895-28.723-40.078 0.27097-40.078 0.27097-0.84957 3.1039c-2.7001 9.8648-7.6243 52.492-6.2233 53.873 0.26094 0.25729 19.869 0.3463 43.573 0.19781l43.099-0.26999 0.27896-28.723zm115.79 28.783c1.5192-1.4979-4.8865-53.179-7.0116-56.569-0.31457-0.50184-18.488-0.91243-40.385-0.91243h-39.813v28.28c0 15.554 0.3148 28.59 0.69956 28.97 0.76229 0.75162 85.751 0.97971 86.51 0.23216zm85.485-7.5436c-1.2273-13.354-6.383-34.44-11.04-45.152l-2.0807-4.7861h-24.697c-20.474 0-24.697 0.24775-24.697 1.4491 0 0.79702 0.90782 6.7332 2.0174 13.192 1.1096 6.4583 2.5658 18.261 3.2361 26.227 0.67032 7.9667 1.4004 15.067 1.6224 15.778 0.30968 0.99236 6.9154 1.2933 28.389 1.2933h27.985l-0.73536-8.0012zm-302.31-80.2c6.8579-20.174 17.549-42.705 26.993-56.885l6.0525-9.0883-6.0196 3.0055c-16.698 8.3372-39.001 25.425-51.699 39.609-7.3019 8.1571-18.855 22.911-18.855 24.08 0 0.31482 9.6949 0.57239 21.544 0.57239 16.301 0 21.651-0.31473 21.984-1.2933zm101.28-40.722v-42.015l-2.8857 0.66831c-1.5871 0.36758-5.8535 2.0848-9.4808 3.8161-21.111 10.076-41.342 35.058-54.798 67.665-2.3044 5.5841-4.1898 10.542-4.1898 11.016 0 0.47494 16.055 0.86353 35.677 0.86353h35.677v-42.015zm99.687 41.151c0-0.47495-1.8854-5.4324-4.1898-11.016-13.456-32.608-33.687-57.589-54.798-67.665-3.6273-1.7313-7.8937-3.4485-9.4808-3.8161l-2.8857-0.66831v42.015 42.015h35.677c19.623 0 35.677-0.38859 35.677-0.86353zm70.627-2.3088c-6.8031-11.385-26.602-32.255-41.431-43.672-8.5386-6.574-30.055-19.906-30.854-19.118-0.20886 0.20594 1.8224 3.6083 4.5139 7.5608s7.8033 12.802 11.36 19.666c5.7927 11.18 8.392 17.217 14.562 33.821l1.8263 4.9145h20.959 20.959l-1.8956-3.1724z"/>
	</g>
</svg>
