<svg xmlns:inkscape="http://www.inkscape.org/namespaces/inkscape" xmlns:rdf="http://www.w3.org/1999/02/22-rdf-syntax-ns#" xmlns="http://www.w3.org/2000/svg" sodipodi:docname="truck-ok2.svg" height="512" width="512" version="1.1" xmlns:cc="http://creativecommons.org/ns#" xmlns:dc="http://purl.org/dc/elements/1.1/" inkscape:version="0.91 r13725" viewBox="0 0 512.00001 512.00001" xmlns:sodipodi="http://sodipodi.sourceforge.net/DTD/sodipodi-0.dtd">
	<sodipodi:namedview bordercolor="#666666" inkscape:pageshadow="2" inkscape:window-y="-8" pagecolor="#ffffff" inkscape:window-height="1017" inkscape:window-maximized="1" inkscape:zoom="0.35" inkscape:window-x="-8" showgrid="false" borderopacity="1.0" inkscape:current-layer="layer1" inkscape:cx="-126.42857" inkscape:cy="520" units="px" inkscape:window-width="1920" inkscape:pageopacity="0.0" inkscape:document-units="px"/>
	<g inkscape:label="Layer 1" inkscape:groupmode="layer" transform="translate(0 -540.36)">
		<path inkscape:connector-curvature="0" d="m76.619 963.85c-19.167-5.1542-31.701-24.342-28.416-43.499 3.7586-21.918 25.33-36.508 46.695-31.583 15.809 3.6447 28.53 18.395 29.748 34.493 1.9983 26.422-22.793 47.375-48.027 40.589zm341.64 0.1509c-11.203-2.7805-21.291-11.014-26.205-21.388-2.6677-5.6318-2.8224-6.5127-2.8224-16.074 0-9.5323 0.16053-10.454 2.7836-15.991 14.271-30.123 55.809-30.123 70.08 0 2.6231 5.5366 2.7836 6.4588 2.7836 15.991 0 9.4944-0.16792 10.47-2.7346 15.886-7.8602 16.588-26.687 25.844-43.885 21.576zm-418.26-96.4v-45.742l162.95 0.22223 162.95 0.22223 0.0714 45.52 0.0714 45.52h-89.503-89.503l-0.60785-2.8588c-1.0047-4.7252-6.2687-15.409-10.544-21.401-7.0841-9.9275-20.679-19.105-33.848-22.85-8.6769-2.4676-23.932-2.2939-32.546 0.37041-21.218 6.5626-36.32 21.3-42.715 41.682l-1.5869 5.0578h-12.594-12.594v-45.742zm349.21-64.178v-109.98l20.011 0.0949c11.006 0.0522 22.584 0.547 25.729 1.0995l5.7175 1.0046 0.43981 42.222c0.42896 41.18 0.48671 42.308 2.3419 45.74 2.5278 4.6759 6.8866 8.7353 11.732 10.926 3.8129 1.7239 5.609 1.7904 48.891 1.809l44.933 0.0194 1.2162 3.2986c0.97523 2.6451 1.272 14.238 1.4983 58.52l0.28227 55.221-12.007-0.2448-12.007-0.245-1.496-4.8392c-2.7948-9.04-8.0244-17.651-15.007-24.71-17.37-17.561-41.288-23.402-64.379-15.722-18.008 5.9891-33.859 22.219-39.487 40.432l-1.4953 4.8392-8.4575 0.2517-8.4575 0.2518v-109.98zm-349.21-74.17c0-59.915 0.19065-70.479 1.3524-74.939 3.6335-13.95 15.349-24.075 30.111-26.025 4.4417-0.58653 51.801-0.80804 136.54-0.63866l129.74 0.25934 4.8379 1.9729c6.6386 2.7072 12.963 7.7156 16.951 13.423 6.4429 9.2222 6.2209 6.2279 6.2938 84.88l0.0653 70.369-162.95 0.22223-162.95 0.22223v-69.747zm152 18.347c1.3064-0.69128 15.706-14.644 31.999-31.007 25.706-25.815 29.703-30.185 30.224-33.042 1.5678-8.6006-4.9628-15.091-14.107-14.021-2.1097 0.24696-7.7666 5.4152-28.211 25.774l-25.572 25.466-11.593-12.212c-12.609-13.282-16.252-15.758-21.689-14.738-4.1978 0.78751-8.3516 4.611-9.1586 8.4302-1.3852 6.556-0.40249 8.0128 17.66 26.18 9.3448 9.3992 18.178 17.839 19.629 18.755 3.1403 1.9819 7.5391 2.1507 10.819 0.41513zm272.38 24.782c-0.23302-0.60727-0.31956-15.098-0.19229-32.202l0.23139-31.098 33.865 31.344c18.626 17.239 33.997 31.73 34.159 32.202 0.4764 1.393-67.528 1.1463-68.063-0.24688z"/>
	</g>
</svg>
