<?xml version="1.0" encoding="UTF-8" standalone="no"?>
<svg id="svg2" xmlns:rdf="http://www.w3.org/1999/02/22-rdf-syntax-ns#" xmlns="http://www.w3.org/2000/svg" height="512" width="512" version="1.1" xmlns:cc="http://creativecommons.org/ns#" xmlns:dc="http://purl.org/dc/elements/1.1/" viewBox="0 0 512.00001 512.00001">
	<g id="layer1" transform="translate(0,-540.36216)">
		<path id="path3399" d="m143.5 1003.707c-51.36542-4.09548-93.253426-16.91972-134.3167882-41.1218l-8.31678822-4.90177 17.86224142 0.4687c18.956366 0.49741 31.676511-0.5314 48.771335-3.94465 19.199488-3.83349 42.62507-12.50336 60.5-22.39121 8.68213-4.80269 25.59244-15.98563 26.5738-17.5735 0.29933-0.48432-0.99838-0.88059-2.88379-0.88059-6.10119 0-20.97615-3.02302-29.4968-5.9946-25.982496-9.0614-47.922285-29.06846-59.770737-54.5054-5.670795-12.17439-7.01196-11.02389 12.835961-11.01111 11.149183 0.007 19.361692-0.47723 23.241566-1.37091l6-1.38203-8-2.31561c-41.466202-12.00244-72.537001-50.0814-75.207045-92.17034-0.322742-5.0875-0.346211-9.25-0.05215-9.25 0.294058 0 3.397673 1.32897 6.896924 2.95327 8.949288 4.15412 22.971214 7.99971 31.832346 8.73018l7.529925 0.62073-5.5-4.34634c-17.858008-14.11216-30.931329-34.03871-37.253561-56.78241-1.82465-6.56402-2.133596-10.35425-2.133596-26.17543 0-15.74228 0.313605-19.62678 2.103804-26.05895 2.310453-8.30143 7.568597-21.33644 9.833021-24.37618 1.380016-1.85252 1.59809-1.7458 5.10858 2.5 7.284985 8.81091 31.069601 31.79772 41.341752 39.95503 39.51733 31.38145 86.34281 52.48657 135 60.84702 11.97479 2.05755 34.89755 4.56886 35.56958 3.89683 0.2128-0.21279-0.0507-3.05919-0.58555-6.32532-0.53484-3.26614-0.96914-11.33843-0.9651-17.93843 0.0171-27.92688 9.59012-51.79045 28.74863-71.66436 14.17304-14.70229 30.5672-24.38553 50.02663-29.54831 8.4996-2.25503 11.69424-2.57505 25.70581-2.57505s17.20621 0.32002 25.70581 2.57505c17.09894 4.53652 33.2121 13.31501 45.00833 24.52065 6.51974 6.19332 5.78243 6.1397 21.66205 1.57517 14.1665-4.0721 24.90137-8.26064 38.34294-14.96064l12.71913-6.33991-1.97402 5.00811c-7.32383 18.58073-21.53073 36.83651-37.38374 48.03792-7.84638 5.54408-8.69246 5.40458 10.4195 1.7179 10.50487-2.02638 28.30509-7.33378 36.7796-10.96638 2.47691-1.06173 4.68012-1.75376 4.89603-1.53786 0.2159 0.21591-2.40314 4.16472-5.82009 8.77514-7.99769 10.79108-24.92098 28.20987-36.21297 37.27326l-8.85742 7.10931-0.30605 17.5c-1.05298 60.21003-19.58886 117.78873-54.24395 168.5-45.68661 66.85384-114.60754 110.3996-193.82175 122.46082-21.44774 3.2656-50.95671 4.736-67.9134 3.384z"/>
	</g>
</svg>
