<?xml version="1.0" encoding="UTF-8" standalone="no"?>
<svg xmlns:rdf="http://www.w3.org/1999/02/22-rdf-syntax-ns#" xmlns="http://www.w3.org/2000/svg" height="512" width="512" version="1.1" xmlns:cc="http://creativecommons.org/ns#" xmlns:dc="http://purl.org/dc/elements/1.1/" viewBox="0 0 512.00001 512.00001">
	<g transform="translate(0 -540.36)">
		<path d="m211.3 1050.9c-16.651-3.6191-30.088-18.408-32.606-35.888-0.93487-6.4892-0.85253-7.7214 0.67131-10.047 3.3651-5.1358 9.4521-5.815 13.469-1.5029 1.0654 1.1436 2.1503 4.1996 2.4804 6.9869 1.7228 14.546 12.322 24.364 26.181 24.252 10.372-0.084 18.813-5.4765 23.149-14.788l2.3318-5.0073 0.01-114.7 0.01-114.7-6.25-5.0823c-7.7134-6.2722-17.872-11.477-25.487-13.058-3.3424-0.694-9.5424-0.98455-14.763-0.69181-14.728 0.82591-25.927 6.173-38.646 18.453-7.7746 7.5057-10.666 8.1949-16.311 3.8887-1.94-1.52-3.53-3.09-3.53-3.51 0-1.3862-12.363-10.802-17.733-13.506-7.6212-3.8369-15.563-5.618-25.051-5.618-14.454 0-27.218 5.5504-40.192 17.477-5.1261 4.7126-6.5754 5.5226-9.881 5.5226-5.001 0-8.8662-3.0049-9.7202-7.5568-0.95409-5.0857 1.2342-27.001 4.1185-41.246 6.6117-32.654 22.623-66.457 44.134-93.173 13.829-17.176 34.371-35.379 53.824-47.698 26.599-16.843 62.759-29.409 91.5-31.796 4.125-0.34263 8.9625-0.84763 10.75-1.1222l3.25-0.49923 0.002-8.7047c0.001-10.461 1.8682-15.202 6.498-16.504 7.7826-2.189 11.5 3.2164 11.5 16.722v8.4868l3.25 0.49923c1.7875 0.27457 6.625 0.77957 10.75 1.1222 22.563 1.8742 50.612 10.231 74.41 22.17 32.782 16.446 62.902 43.366 83.69 74.799 21.092 31.893 34.617 73.482 35.207 108.26 0.19224 11.339 0.18069 11.4-2.6127 13.814-1.9489 1.6842-4.013 2.4248-6.7587 2.4248-3.4016 0-4.7908-0.77032-9.9601-5.5226-12.974-11.927-25.738-17.477-40.192-17.477-9.4876 0-17.429 1.7811-25.051 5.618-5.38 2.7-17.74 12.12-17.74 13.51 0 0.42597-1.594 1.9903-3.5423 3.4764-5.6458 4.3063-8.5368 3.6171-16.311-3.8887-12.72-12.29-23.92-17.63-38.65-18.46-5.2202-0.29274-11.42-0.002-14.763 0.69181-7.6055 1.5792-17.772 6.7838-25.456 13.032l-6.2181 5.0565-0.316 115.73c-0.28617 104.81-0.47281 116.18-1.978 120.46-5.4932 15.633-18.133 26.804-33.66 29.749-6.7881 1.2873-10.061 1.1982-17.805-0.485z"/>
	</g>
</svg>
