<?xml version="1.0" encoding="UTF-8" standalone="no"?>
<svg id="svg2" xmlns:rdf="http://www.w3.org/1999/02/22-rdf-syntax-ns#" xmlns="http://www.w3.org/2000/svg" height="512" width="512" version="1.1" xmlns:cc="http://creativecommons.org/ns#" xmlns:dc="http://purl.org/dc/elements/1.1/" viewBox="0 0 512.00001 512.00001">
	<g id="layer1" transform="translate(0,-540.36216)">
		<path id="path3529" d="m184.46244 1051.3147c-4.11355-1.2182-8.04667-5.6087-9.36369-10.4525-0.69489-2.5557-1.08961-17.906-1.09317-42.51252l-0.00558-38.51251 14.76211-14.73749 14.7621-14.7375h45.92217c57.43365 0 55.44452-0.55925 57.70313 16.22349 0.72079 5.35589 0.94675 23.17483 0.65591 51.72362-0.47677 46.80101-0.46783 46.72151-5.80732 51.55521-2.14558 1.9424-3.76079 2.0025-58.35238 2.1737-30.92853 0.097-57.51001-0.228-59.18328-0.7235zm154.56802-1.7682c-8.45786-8.4579-8.87537-36.3447-0.6597-44.0629l2.32044-2.1799 62.57441 0.2792 62.57442 0.2793 2.55096 2.397c3.83914 3.6075 5.07455 8.4842 5.09265 20.103 0.0193 12.3911-1.56641 18.7468-5.65466 22.6645l-2.95898 2.8355-61.47545 0.2865-61.47545 0.2864-2.88864-2.8886zm-289.03046 0.0641c-3.858049-1.9273-8.394815-9.5924-7.827363-13.2247 0.27465-1.758 1.692513-0.721 8.805285 6.4404 8.181747 8.2377 8.373889 8.5358 5.5 8.5343-1.637857-0.0008-4.552922-0.7883-6.477922-1.75zm45.015006-10.7754 12.484994-12.5269 0.32566 3.7769c0.82016 9.5122-2.48707 17.4019-8.315438 19.8372-1.895292 0.7919-6.491185 1.4398-10.213097 1.4398h-6.767113l12.484994-12.527zm-25.515006-17.4065c-1.1-0.4949-10.020239-8.9622-19.822754-18.8162-16.435382-16.52162-17.867304-18.24842-18.395046-22.18303l-0.572292-4.26675 202.642902-202.65027 202.6429-202.65027h4.49881 4.49881l18.75334 18.75333 18.75333 18.75334v4.49635 4.49636l-202.02699 202.02699c-179.20261 179.20261-202.41936 202.07855-205.5 202.48345-1.910156 0.2511-4.37301 0.0516-5.47301-0.4433zm270.63305-44.60802c-4.89513-4.11898-7.41344-12.19182-7.47382-23.9585-0.0435-8.48627 0.29995-10.72363 2.26918-14.78046 4.0597-8.36345-3.22049-7.71954 87.27832-7.71954h80.76172l3.26577 2.91916 3.26578 2.91916v16.83084c0 15.1608-0.20335 17.17813-2.04938 20.33084-1.28647 2.19707-3.33393 3.94432-5.5 4.69356-2.55253 0.88291-23.66667 1.20825-81.12389 1.25l-77.67328 0.0564-3.0204-2.5415zm-298.13305-180.4585v-130h-13.54966c-14.639107 0-17.535203-0.74984-21.2791196-5.50946-2.8095375-3.57175-3.6257407-9.47241-1.8830889-13.61361 2.5750892-6.11939 56.8988385-99.31565 59.5424145-102.14925 5.47878-5.87261 14.874837-5.87261 20.325755 0 1.415288 1.52478 15.529419 25.20087 31.364739 52.61354 24.75279 42.84979 28.80025 50.4246 28.85388 54.00001 0.0805 5.36652-2.01954 9.5083-6.2728 12.37144-3.1337 2.10949-4.47488 2.28733-17.25 2.28733h-13.85212v97.71439 97.71439l-32.22939 32.28561c-17.726164 17.75709-32.576164 32.28561-33 32.28561-0.423835 0-0.77061-58.5-0.77061-130zm236.1284 60.19502c0.20438-0.56901 6.96666-7.37123 15.02729-15.11606l14.65568-14.0815-0.54031 10.25127c-0.56096 10.64281-1.54952 13.88332-5.25956 17.24086-1.84252 1.66746-3.9572 2.04524-13.22397 2.36243-7.32476 0.25071-10.90588 0.03-10.65913-0.657zm60.86559-2.04719c-8.59004-8.59004-8.77351-37.4565-0.28053-44.13708 2.49701-1.96414 3.96119-2.01071 63.1714-2.0092 68.31216 0.002 65.519-0.29942 69.54103 7.49845 1.71539 3.32578 2.06406 5.85409 2.06862 15 0.008 16.80846-3.09919 24.37094-10.63371 25.87784-1.71094 0.34219-29.63917 0.62216-62.06272 0.62216h-58.95193l-2.85216-2.85217zm-164.8127-81.14783c0.30716-21.6847 0.4093-22.68057 2.81871-27.48323 1.46226-2.9147 3.78381-5.71671 5.5928-6.75024 4.62214-2.64077 16.97279-3.89164 35.16535-3.56154l16.25815 0.29501-30.07686 30-30.07687 30 0.31872-22.5zm200.81871-13.5 24.48469-24.5h51.74188 51.74188l3.26577 2.91916 3.26578 2.91916v16.83084c0 14.37541-0.26499 17.31647-1.81642 20.15962-3.46729 6.35418-1.00969 6.17122-82.89381 6.17122h-74.27446l24.48469-24.5zm-190.60453-98.58109c-4.75847-1.38056-8.14419-5.42377-9.42243-11.2522-0.77946-3.5541-1.03011-19.05582-0.80308-49.66671 0.31969-43.10474 0.39765-44.64629 2.4865-49.16566 1.18605-2.56611 3.39121-5.4747 4.90036-6.46352 6.2763-4.11239 11.71693-4.28965 132.94011-4.33113l115.99692-0.0397-60.99385 61-60.99385 61-60.50308-0.0902c-33.27669-0.0496-61.90011-0.49551-63.6076-0.9909zm306.60453-17.41891c10.16385-10.175 18.87198-18.5 19.3514-18.5 1.47895 0-0.27433 26.08207-2.02987 30.19673-2.47141 5.7925-5.73441 6.80327-21.96252 6.80327h-13.83874l18.47973-18.5zm-10.00658-75.04725-28.49342-28.54726l24.17929 0.29726c27.28176 0.33539 27.85628 0.48654 31.78299 8.36178 1.72821 3.46603 2.01084 6.58958 2.36935 26.18547 0.22642 12.37555 0.0183 22.25-0.46885 22.25-0.48177 0-13.69798-12.84626-29.36936-28.54725z"/>
	</g>
</svg>
