<svg xmlns:rdf="http://www.w3.org/1999/02/22-rdf-syntax-ns#" xmlns="http://www.w3.org/2000/svg" height="512" width="512" version="1.1" xmlns:cc="http://creativecommons.org/ns#" xmlns:dc="http://purl.org/dc/elements/1.1/" viewBox="0 0 512.00001 512.00001">
	<g transform="translate(0 -540.36)">
		<path d="m49.3 1051.5c-6.8925-1.8563-12.093-7.5065-13.439-14.6-0.33693-1.7766-0.5294-25.97-0.52414-65.886 0.007-50.585 0.14832-63.673 0.7152-66.082 1.3318-5.6584 4.9669-10.136 10.404-12.815 2.0077-0.9894 3.317-1.1991 7.4854-1.1991 4.355 0 5.467 0.1945 8.0596 1.41 5.7203 2.6818 9.6027 8.1649 10.584 14.947 0.26404 1.8256 0.48489 26.832 0.49078 55.569l0.0107 52.25 183.07-0.1337 183.07-0.1337 0.26589-55.307 0.2659-55.307 1.3796-2.9249c1.7594-3.73 5.2605-7.2311 8.9904-8.9905 2.5078-1.1829 3.6453-1.3796 7.977-1.3796 4.5346 0 5.3677 0.1599 8.1332 1.5612 3.7532 1.9017 6.9114 5.2209 8.799 9.2475l1.4148 3.018 0.14326 65.092c0.15922 72.35 0.31525 68.925-3.3871 74.334-2.3923 3.4948-6.668 6.4598-10.675 7.4026-4.7024 1.1064-409.12 1.0347-413.24-0.073zm199.59-106.84c-3.3859-1.4198-6.5536-4.1306-8.6554-7.4069-3.0019-4.6797-2.814 6.6432-2.8203-169.97l-0.006-162.98-40.816 40.75c-43.238 43.169-42.161 42.202-48.545 43.571-8.3074 1.7816-17.673-3.4775-20.739-11.646-0.90952-2.4232-1.0974-3.8866-0.93528-7.2865 0.39674-8.3223-3.9624-3.4151 59.666-67.169 33.761-33.827 58.191-57.898 59.994-59.111 4.2876-2.8848 9.0513-3.7262 14.088-2.4882 2.1159 0.52 4.7108 1.6469 6.2692 2.7226 1.4624 1.0093 28.182 27.39 59.377 58.622 46.764 46.821 56.977 57.301 58.193 59.712 2.1116 4.188 2.4195 10.64 0.72259 15.143-1.6075 4.2652-5.3573 8.1943-9.6881 10.152-5.6927 2.5727-11.369 2.3254-16.87-0.7349-1.5121-0.8412-17.319-16.222-42.939-41.781l-40.546-40.449-0.13634 164.04-0.13634 164.04-1.4383 2.9284c-1.88 3.828-5.2929 7.2559-8.9318 8.9712-4.3134 2.0331-10.765 2.191-15.108 0.3696z"/>
	</g>
</svg>
