<?xml version="1.0" encoding="UTF-8" standalone="no"?>
<svg id="svg2" xmlns:rdf="http://www.w3.org/1999/02/22-rdf-syntax-ns#" xmlns="http://www.w3.org/2000/svg" height="512" width="512" version="1.1" xmlns:cc="http://creativecommons.org/ns#" xmlns:dc="http://purl.org/dc/elements/1.1/" viewBox="0 0 512.00001 512.00001">
	<g id="layer1" transform="translate(0,-540.36216)">
		<path id="path3430" d="m72.247668 1050.4824c-7.545665-2.6067-13.067122-7.742-15.784268-14.6802-1.393233-3.5576-1.543472-9.868-1.214219-50.99998l0.375745-46.94004 2.725759-9.46499c9.233632-32.06307 30.901306-58.47172 60.611535-73.8736 12.37816-6.41689 20.88991-9.25006 44.07035-14.66902l19.01744-4.44577 26.725 22.1209c14.69874 12.16649 27.09895 22.45246 27.55601 22.85771s-0.0504 2.47785-1.1278 4.60579c-3.14172 6.20539-8.55007 30.70658-7.73599 35.046 0.84745 4.51731 6.1675 10.09993 10.43902 10.95423 1.70156 0.34031 3.11888 1.125 3.1496 1.74375 0.0307 0.61875-4.58179 27.78691-10.25 60.3737l-10.30585 59.24872-71.5-0.0314c-66.418477-0.029-71.873285-0.1603-76.752332-1.8458zm220.275802 0.6298c-0.65185-1.9693-20.52347-116.15988-20.52347-117.9364 0-1.01063 1.21289-1.81858 3.32484-2.21478 5.40531-1.01404 10.67516-7.71984 10.67516-13.58397 0-4.48853-6.77336-30.73934-8.68385-33.65512-0.92877-1.41748-1.2321-2.79949-0.7148-3.25669 0.49426-0.43684 12.94108-10.76669 27.65961-22.95524l26.76097-22.16098 18.73903 4.52281c23.55318 5.68475 29.40726 7.58759 41.29627 13.42315 31.60247 15.51164 53.595 42.2641 63.14874 76.81628 2.02073 7.30818 2.16526 10.44542 2.53021 54.9223 0.38427 46.83054 0.37114 47.20834-1.81642 52.29354-1.27729 2.9691-3.91189 6.5844-6.26794 8.6011-7.62946 6.5305-6.35576 6.434-84.86471 6.434-55.79256 0-70.93781-0.2657-71.26364-1.25zm-54.02347-206.58774c-31.49544-8.15275-60.16849-34.52523-78.10638-71.83956-5.11159-10.63312-5.6138-11.30492-9.16613-12.26146-9.74873-2.62506-18.50541-11.30919-22.82967-22.64051-2.12402-5.56578-2.74234-9.22822-3.1582-18.70651-0.80948-18.44971 2.69679-27.86138 12.74206-34.20267l3.72122-2.34911 0.69226-10.0511c2.02437-29.39242 9.43251-54.25674 21.37262-71.73397 5.37617-7.86933 17.82149-21.09623 26.59417-28.26433 34.77893-28.41762 72.30117-38.32003 103.44366-27.29958 14.89389 5.27053 30.57683 16.92419 41.05728 30.5088 3.15357 4.08762 5.83913 6.24106 10.87482 8.72013 10.23349 5.03793 21.84433 17.03055 27.06757 27.95759 6.54097 13.68374 7.62814 19.0744 7.66371 38 0.0231 12.3106-0.44787 18.86434-1.85509 25.81198l-1.88609 9.31197 3.08487 3.18803c1.69668 1.75341 4.12042 5.43802 5.3861 8.18802 2.02721 4.40463 2.30122 6.54795 2.30122 18 0 8.05055-0.53025 14.90363-1.39274 18-3.58183 12.85896-11.77017 22.90825-21.40108 26.26489-4.90979 1.71119-5.03932 1.86605-9.39766 11.23511-16.78917 36.09143-43.56997 62.4199-73.80852 72.56188-10.78881 3.61855-32.13441 4.413-43 1.6004zm34-21.81936c21.37805-5.23948 43.2997-24.9092 58.74222-52.70785 11.50848-20.71683 19.68129-49.82078 19.73797-70.28829 0.0466-16.81057-16.46582-51.62576-34.43166-72.59678-3.18049-3.7125-6.23177-6.75-6.78062-6.75s-4.83733 3.63433-9.52996 8.07629c-30.48392 28.85557-74.50017 44.88372-123.34629 44.91551l-12.60833 0.008-0.69234 11.83641c-3.79545 64.88844 38.05131 132.66283 85.90901 139.13698 7.04647 0.95324 14.66022 0.4135 23-1.63047z"/>
	</g>
</svg>
