<?xml version="1.0" encoding="UTF-8" standalone="no"?>
<svg id="svg2" xmlns:rdf="http://www.w3.org/1999/02/22-rdf-syntax-ns#" xmlns="http://www.w3.org/2000/svg" height="512" width="512" version="1.1" xmlns:cc="http://creativecommons.org/ns#" xmlns:dc="http://purl.org/dc/elements/1.1/" viewBox="0 0 512.00001 512.00001">
	<g id="layer1" transform="translate(0,-540.36216)">
		<path id="path3438" d="m388.44203 1053.882c-17.07668-2.7955-33.86897-10.0609-48.20604-20.8573-28.93518-21.7892-45.21447-59.30904-41.24036-95.04908 1.61198-14.49695 4.28871-23.70928 10.70085-36.82857 14.3179-29.29457 41.84716-50.69003 73.88749-57.42462 11.5132-2.41997 31.68752-2.41997 43.20072 0 32.04033 6.73459 59.56959 28.13005 73.88749 57.42462 6.41214 13.11929 9.08885 22.33162 10.70085 36.82857 2.18004 19.60556-1.31048 38.39743-10.70085 57.61023-11.81356 24.17055-31.3831 42.08295-57.22892 52.38255-16.02365 6.3855-37.80925 8.7278-55.00123 5.9136zm76.52005-87.93387c1.83649-1.83648 2.00934-3.34889 2.00934-17.58169s-0.17285-15.74519-2.00934-17.58169c-1.96273-1.96274-3.34889-2.00934-59.77775-2.00934s-57.81502 0.0466-59.77775 2.00934c-1.8365 1.8365-2.00935 3.34889-2.00935 17.58169s0.17285 15.74521 2.00935 17.58169c1.96273 1.96275 3.34889 2.00934 59.77775 2.00934s57.81502-0.0466 59.77775-2.00934zm-440.044638 87.42867c-6.203805-0.9794-9.77629-2.573-14.564487-6.4964-8.0246869-6.5757-12.1756689-18.9443-9.58421456-28.5579 1.04053636-3.8603 53.42691056-122.91345 60.03240056-136.42966 1.394708-2.85384 4.176728-6.78297 6.182266-8.73138 2.364245-2.29687 19.679455-11.90024 49.242903-27.31111 25.07807-13.07272 46.90731-24.22554 48.50943-24.78403 2.64397-0.9217 3.76795-0.45348 12.17194 5.07044 25.39409 16.69148 50.94299 24.5106 80.0881 24.5106 29.16164 0 54.69211-7.81773 80.12588-24.53551l9.29678-6.11083 4.5174 1.72522c2.48458 0.94886 4.49494 2.02689 4.46746 2.39562-0.0275 0.36872-4.88756 3.03807-10.80018 5.93187-13.143 6.43256-22.00394 12.91974-33.91018 24.82599-12.20604 12.20604-18.44133 20.81973-25.49213 35.21598-11.00958 22.4792-13.63735 34.19128-13.63735 60.78241 0 26.59114 2.62777 38.30322 13.63735 60.78249 6.52491 13.3223 12.81205 22.2479 23.78611 33.7679 4.00636 4.2057 7.28428 7.9355 7.28428 8.2886 0 0.8824-285.722338 0.5486-291.353758-0.3403zm215.306268-240.62597c-46.79172-8.48781-83.95314-48.25811-95.23515-101.92106-5.60697-26.66962-3.1788-67.91006 5.57578-94.70015 13.41545-41.05281 41.09497-64.08046 84.32874-70.15631 9.69908-1.36305 34.50632-1.36305 44.20539 0 43.23378 6.07585 70.9133 29.1035 84.32874 70.15631 8.84007 27.05169 11.23036 67.80392 5.55918 94.77911-4.26566 20.2897-12.84534 39.95-24.58449 56.33517-5.88308 8.21145-18.8833 21.1503-27.20833 27.07988-22.77666 16.22293-51.3757 23.06972-76.96986 18.42705z"/>
	</g>
</svg>
