<svg xmlns:rdf="http://www.w3.org/1999/02/22-rdf-syntax-ns#" xmlns="http://www.w3.org/2000/svg" height="512" width="512" version="1.1" xmlns:cc="http://creativecommons.org/ns#" xmlns:dc="http://purl.org/dc/elements/1.1/" viewBox="0 0 511.99999 511.99999">
	<g transform="translate(0 -540.36)">
		<path d="m116.22 993.11c0.32272-58.925 0.33724-59.288 2.651-66.25 4.5264-13.619 9.8166-22.271 19.587-32.032 12.681-12.669 25.186-18.991 42.603-21.538l8.0717-1.1802-2.4898-2.6251c-4.08-4.3-11.47-17.05-14.64-25.26-3.48-9.05-6-22.4-6-31.86 0-7.6437 2.2052-21.496 4.4224-27.78l1.4889-4.2199h-11.945-11.945l-0.26073 42.318-0.26 42.32-50.75-46.52-50.75-46.52v-115.8-115.8h210 210v120 120h-62.895-62.895l1.8165 5.8365c8.2297 26.442 2.8065 57.424-13.92 79.523l-4.8773 6.4439 7.8898 1.1536c17.225 2.5186 29.787 8.8887 42.421 21.511 9.7702 9.7612 15.06 18.413 19.587 32.032 2.3138 6.9616 2.3283 7.3246 2.651 66.25l0.3245 59.25h-140.1-140.1l0.3245-59.25zm249.78-9.61c0-22.253-0.43627-41.164-1.0207-44.246-3.406-17.96-17.911-32.464-35.87-35.87-7.2728-1.3793-138.95-1.3793-146.22 0-17.96 3.4059-32.464 17.91-35.87 35.87-0.58 3.08-1.02 22-1.02 44.25v38.864h110 110v-38.864zm-95.6-113.11c11.296-2.8891 18.968-7.329 27.63-15.991 8.6619-8.6619 13.102-16.333 15.991-27.63 3.6084-14.109 1.735-29.45-5.2164-42.718-4.2501-8.1123-16.382-20.244-24.494-24.494-13.268-6.9514-28.609-8.8247-42.718-5.2164-11.296 2.8891-18.968 7.329-27.63 15.991-8.6619 8.6619-13.102 16.333-15.991 27.63-3.6084 14.109-1.735 29.45 5.2164 42.718 4.2542 8.1202 16.382 20.244 24.51 24.503 13.266 6.9504 28.585 8.8187 42.702 5.208zm-152.4-97.03v-23l36.25-0.009 36.25-0.009 5.8773-5.0307c12.138-10.39 22.873-16.12 37.69-20.119 12.022-3.245 31.844-3.245 43.866 0 14.817 3.9993 25.551 9.7295 37.69 20.119l5.8773 5.0307 57.25 0.009 57.25 0.009v-90-90h-180-180l0.0125 94.25 0.0125 94.25 20.238 18.681c11.131 10.274 20.575 18.712 20.988 18.75 0.4125 0.0381 0.75-10.281 0.75-22.931zm80-63.134c-14.814-1.8854-24.949-9.034-30.83-21.746-3.8022-8.2182-3.7665-19.388 0.0869-27.234 1.5164-3.0879 5.0116-7.8688 7.767-10.624l5.0099-5.0099-3.4979-5.1978c-4.4341-6.589-5.885-11.97-5.2806-19.583 0.85378-10.754 7.4474-19.602 17.646-23.678 7.8612-3.1417 23.129-3.1336 31.141 0.0165 11.772 4.6281 17.471 13.577 16.798 26.379-0.4543 8.6502-2.7729 14.01-9.2645 21.414l-4.4734 5.1025 6.3274 6.8975 6.3274 6.8975 1.6212-5.4315c0.89163-2.9873 1.6273-6.8123 1.6348-8.5 0.034-7.6459-0.10125-7.5685 13.22-7.5685h12.001l-0.72001 7.6835c-0.85828 9.1592-2.6822 16.53-6.1253 24.755-1.3957 3.3338-2.6168 6.581-2.7136 7.216-0.0968 0.63495 5.3708 7.0474 12.15 14.25l12.326 13.096h-19.779-19.779l-3.224-3.1248-3.224-3.1248-4.3236 2.0564c-9.4462 4.4928-20.726 6.344-30.824 5.0588zm17.169-24.634c0.79798-0.79798-1.195-3.5103-7.2852-9.9148-4.611-4.849-8.9927-8.8163-9.7371-8.8163-0.74438 0-2.3076 1.6453-3.4739 3.6563l-2.1205 3.6563 1.9739 4.731c2.6138 6.2647 6.9165 8.7339 14.259 8.1827 2.9069-0.2182 5.7795-0.89104 6.3837-1.4952zm-6.0977-61.475c2.5082-5.9-4.4879-10.339-9.0712-5.7559-2.6837 2.6837-2.5184 5.2304 0.57841 8.9108 2.5196 2.9944 2.6325 3.0247 4.9523 1.3267 1.3056-0.95565 2.8989-2.9724 3.5405-4.4816zm-92.07 70.74v-14.5h15 15v14.5 14.5h-15-15v-14.5zm179.41 12.75c0.95-3.06 5.59-23.19 5.59-24.24 0-0.59856-3.4538-1.0082-8.5-1.0082h-8.5v-11.5-11.5h11.461 11.461l1.0244-3.8045c0.56344-2.0925 1.312-5.2425 1.6636-7l0.6391-3.1955h-9.125-9.125v-9.9683-9.9683l11.695-0.28174 11.695-0.28173 3.609-14.5 3.609-14.5 11.695-0.28174c10.15-0.24 11.7-0.07 11.7 1.31 0 0.87462-1.35 6.9376-3 13.473-1.65 6.5357-3 12.584-3 13.442 0 2.3787 8.6803 2.2013 9.3688-0.19151 0.27696-0.9625 1.9232-7.7125 3.6582-15l3.1547-13.25h11.909c6.55 0 11.909 0.24789 11.909 0.55087s-1.575 6.8051-3.5 14.449c-1.925 7.644-3.5 14.146-3.5 14.449 0 0.30298 4.5 0.55087 10 0.55087h10v10 10h-12.461-12.461l-1.0244 3.8045c-0.56344 2.0925-1.312 5.2425-1.6636 7l-0.6391 3.1955h10.125 10.125v11.5 11.5h-12.897-12.897l-3.3151 13.5-3.3151 13.5h-11.787c-7.6259 0-11.787-0.3737-11.787-1.0585 0-0.58218 1.35-6.4058 3-12.942 1.65-6.5357 3-12.134 3-12.442 0-0.30717-2.1744-0.55849-4.832-0.55849h-4.832l-2.2184 9.75c-1.2201 5.3625-2.663 11.438-3.2065 13.5l-0.98812 3.75h-12.029c-10.996 0-11.982-0.15028-11.487-1.75zm46.832-54.5c0.77684-3.4375 1.1002-6.6182 0.71848-7.0682-0.38168-0.45002-2.4236-0.67502-4.5375-0.5-3.5381 0.29293-3.9337 0.63612-4.9781 4.3182-2.8926 10.198-3.0728 9.5 2.4523 9.5h4.9324l1.4124-6.25zm-226.24-25.25v-33.5h15 15v33.5 33.5h-15-15v-33.5z"/>
	</g>
</svg>
