<svg xmlns:rdf="http://www.w3.org/1999/02/22-rdf-syntax-ns#" xmlns="http://www.w3.org/2000/svg" height="512" width="512" version="1.1" xmlns:cc="http://creativecommons.org/ns#" xmlns:dc="http://purl.org/dc/elements/1.1/" viewBox="0 0 512.00001 512.00001">
	<g transform="translate(0 -540.36)">
		<path d="m15.311 1051.5c-7.4023-1.5882-13.371-7.6178-14.909-15.06-0.36591-1.8-0.40199-23.3-0.40199-240.02-0.0000047617-216.74 0.036029-238.26 0.40246-240.03 1.5625-7.57 7.5991-13.57 15.162-15.09 1.8307-0.36667 23.309-0.39617 241.34-0.33155 230.39 0.0684 239.38 0.0878 240.84 0.5301 6.6184 2.0029 11.656 7.0426 13.691 13.696 0.44847 1.4664 0.46639 9.5047 0.5355 240.21 0.0649 216.55 0.0345 238.86-0.3271 240.51-1.5069 6.8648-7.657 13.225-14.911 15.42-1.4608 0.442-10.402 0.4608-240.59 0.5044-211 0.04-239.28 0-240.83-0.3315zm458.03-255.09v-217.84h-217.84-217.84v217.84 217.84h217.84 217.84v-217.84zm-362 147.2c0.25348-12.116 1.522-21.751 4.3455-33.005 5.3341-21.262 15.408-40.948 29.855-58.339 3.4608-4.1663 13.425-14.142 17.542-17.563 8.4605-7.0296 16.77-12.586 26.656-17.825l3.2526-1.7236-0.85051-0.66026c-5.6335-4.3731-12.615-11.629-17.668-18.362-11.158-14.868-17.818-31.55-20.14-50.445-0.63602-5.1754-0.63694-17.55-0.002-22.883 3.4491-28.956 18.027-54.257 41.257-71.604 14.665-10.951 32.17-17.787 50.824-19.848 4.7002-0.51929 18.054-0.4413 22.504 0.13137 7.8465 1.0097 13.798 2.3532 20.861 4.7088 28.53 9.5162 51.705 31.299 63.096 59.303 3.3933 8.3425 5.5481 16.672 6.8679 26.55 0.64663 4.8392 0.64254 19.313-0.007 24.274-1.9808 15.134-6.4603 28.17-14.061 40.918-5.5976 9.3884-13.591 18.785-22.076 25.953-1.2169 1.0278-2.2106 1.934-2.2083 2.0138 0.002 0.0796 1.4453 0.88463 3.2066 1.7886 13.67 7.0159 27.984 17.837 38.465 29.078 22.459 24.091 35.656 52.971 39.11 85.592 0.40492 3.8244 1.0079 18.412 0.78509 18.992-0.11518 0.30022-2.9298 0.34442-18.412 0.28951l-18.276-0.0653-0.16048-6.195c-0.21113-8.1493-0.72615-12.991-2.137-20.089-3.3854-17.033-10.788-32.917-21.749-46.665-5.268-6.6075-14.36-15.173-21.571-20.321-19.472-13.903-44.603-21.176-68.729-19.892-24.109 1.2832-45.205 9.1865-63.555 23.809-4.1624 3.317-11.519 10.456-14.688 14.255-14.299 17.138-22.755 37.138-25.121 59.421-0.20678 1.947-0.45129 6.2993-0.54336 9.6717l-0.16738 6.1318h-18.329-18.329l0.15474-7.396zm155.57-143.53c7.0254-1.0648 13.192-3.0102 19.706-6.2163 7.0278-3.4595 12.393-7.3052 17.826-12.777 20.043-20.186 24.963-51.246 12.169-76.828-6.5694-13.136-16.757-23.241-29.995-29.752-12.97-6.379-26.582-8.3436-41.047-5.9244-6.3 1.0537-11.99 2.914-18.121 5.9244-6.4109 3.1478-11.558 6.7874-16.783 11.868-17.84 17.347-24.431 42.609-17.444 66.861 2.1823 7.5746 6.2934 15.586 11.307 22.032 2.3344 3.0019 7.5236 8.2729 10.53 10.696 10.136 8.1699 22.812 13.335 35.779 14.578 3.7657 0.36106 12.249 0.11688 16.074-0.46273z"/>
	</g>
</svg>
