<?xml version="1.0" encoding="UTF-8" standalone="no"?>
<!-- Created with Inkscape (http://www.inkscape.org/) -->

<svg
   xmlns:dc="http://purl.org/dc/elements/1.1/"
   xmlns:cc="http://creativecommons.org/ns#"
   xmlns:rdf="http://www.w3.org/1999/02/22-rdf-syntax-ns#"
   xmlns:svg="http://www.w3.org/2000/svg"
   xmlns="http://www.w3.org/2000/svg"
   xmlns:sodipodi="http://sodipodi.sourceforge.net/DTD/sodipodi-0.dtd"
   xmlns:inkscape="http://www.inkscape.org/namespaces/inkscape"
   width="512"
   height="512"
   viewBox="0 0 511.99999 511.99999"
   id="svg2"
   version="1.1"
   inkscape:version="0.91 r13725"
   sodipodi:docname="videos-folder.svg">
  <defs
     id="defs4" />
  <sodipodi:namedview
     id="base"
     pagecolor="#ffffff"
     bordercolor="#666666"
     borderopacity="1.0"
     inkscape:pageopacity="0.0"
     inkscape:pageshadow="2"
     inkscape:zoom="1.24"
     inkscape:cx="199.5"
     inkscape:cy="198.62732"
     inkscape:document-units="px"
     inkscape:current-layer="svg2"
     showgrid="false"
     units="px"
     inkscape:window-width="1920"
     inkscape:window-height="1057"
     inkscape:window-x="-8"
     inkscape:window-y="-8"
     inkscape:window-maximized="1" />
  <metadata
     id="metadata7">
    <rdf:RDF>
      <cc:Work
         rdf:about="">
        <dc:format>image/svg+xml</dc:format>
        <dc:type
           rdf:resource="http://purl.org/dc/dcmitype/StillImage" />
        <dc:title></dc:title>
      </cc:Work>
    </rdf:RDF>
  </metadata>
  <path
     style="fill:#000000"
     d="M 30.113153,483.82419 C 1.459694,468.25273 0,457.7222 0,266.58177 0,73.139589 1.3135066,63.846687 30.811728,48.592565 c 13.250555,-6.852127 28.880857,-8.09906 84.486672,-6.740058 63.6026,1.554442 69.10493,2.492102 81.15933,13.830473 7.1121,6.689638 14.38567,18.785638 16.16349,26.88 l 3.2324,14.71702 120.07764,0 c 134.15655,0 147.98841,2.64553 165.69749,31.6919 9.73222,15.96276 10.33408,25.53558 10.35211,164.65432 0.021,162.67297 -2.06032,175.40318 -31.13701,190.43932 -21.08426,10.9031 -430.627025,10.6838 -450.730697,-0.24136 z M 462.46455,449.28 c 7.95536,-5.82429 8.6191,-19.98676 7.37858,-157.44 L 468.48,140.8 l -212.48,0 -212.48,0 -1.363134,151.04 c -1.240515,137.45324 -0.576776,151.61571 7.378584,157.44 12.627002,9.2445 400.3021,9.2445 412.9291,0 z M 144.384,388.096 c -8.66091,-8.66091 -8.66091,-194.09109 0,-202.752 8.69104,-8.69104 214.54096,-8.69104 223.232,0 8.66091,8.66091 8.66091,194.09109 0,202.752 -8.69104,8.69104 -214.54096,8.69104 -223.232,0 z M 179.2,363.52 c 0,-6.82666 -3.41334,-10.24 -10.24,-10.24 -6.82666,0 -10.24,3.41334 -10.24,10.24 0,6.82666 3.41334,10.24 10.24,10.24 6.82666,0 10.24,-3.41334 10.24,-10.24 z m 138.24,-28.16 0,-38.4 -61.44,0 -61.44,0 0,38.4 0,38.4 61.44,0 61.44,0 0,-38.4 z m 35.84,28.16 c 0,-6.82666 -3.41334,-10.24 -10.24,-10.24 -6.82666,0 -10.24,3.41334 -10.24,10.24 0,6.82666 3.41334,10.24 10.24,10.24 6.82666,0 10.24,-3.41334 10.24,-10.24 z m -176.64,-38.4 c 0,-5.55487 -4.032,-10.87626 -8.96,-11.8253 -6.71104,-1.29243 -8.96,1.67572 -8.96,11.8253 0,10.14958 2.24896,13.11773 8.96,11.8253 4.928,-0.94904 8.96,-6.27043 8.96,-11.8253 z m 176.64,0 c 0,-13.00983 -11.66099,-17.80728 -18.07153,-7.43482 -4.93168,7.97962 1.26462,20.23482 10.23084,20.23482 4.95007,0 7.84069,-4.71897 7.84069,-12.8 z M 179.2,286.72 c 0,-6.82666 -3.41334,-10.24 -10.24,-10.24 -6.82666,0 -10.24,3.41334 -10.24,10.24 0,6.82666 3.41334,10.24 10.24,10.24 6.82666,0 10.24,-3.41334 10.24,-10.24 z m 174.08,0 c 0,-6.82666 -3.41334,-10.24 -10.24,-10.24 -6.82666,0 -10.24,3.41334 -10.24,10.24 0,6.82666 3.41334,10.24 10.24,10.24 6.82666,0 10.24,-3.41334 10.24,-10.24 z M 316.37537,236.8 314.88,197.12 l -58.88,0 -58.88,0 -1.49537,39.68 -1.49537,39.68 61.87074,0 61.87074,0 -1.49537,-39.68 z M 179.2,245.76 c 0,-6.82666 -3.41334,-10.24 -10.24,-10.24 -6.82666,0 -10.24,3.41334 -10.24,10.24 0,6.82666 3.41334,10.24 10.24,10.24 6.82666,0 10.24,-3.41334 10.24,-10.24 z m 174.08,0 c 0,-6.82666 -3.41334,-10.24 -10.24,-10.24 -6.82666,0 -10.24,3.41334 -10.24,10.24 0,6.82666 3.41334,10.24 10.24,10.24 6.82666,0 10.24,-3.41334 10.24,-10.24 z M 178.23663,206.1388 C 175.66632,192.7923 158.72,191.30385 158.72,204.42458 c 0,7.32723 3.28819,10.61542 10.61542,10.61542 7.32723,0 10.08443,-2.7572 8.90121,-8.9012 z M 353.28,204.42458 c 0,-7.32723 -2.7572,-10.08443 -8.9012,-8.90121 -13.3465,2.57031 -14.83495,19.51663 -1.71422,19.51663 7.32723,0 10.61542,-3.28819 10.61542,-10.61542 z"
     id="path3615"
     inkscape:connector-curvature="0" />
</svg>
