<svg xmlns:rdf="http://www.w3.org/1999/02/22-rdf-syntax-ns#" xmlns="http://www.w3.org/2000/svg" height="512" width="512" version="1.1" xmlns:cc="http://creativecommons.org/ns#" xmlns:dc="http://purl.org/dc/elements/1.1/" viewBox="0 0 512.00001 512.00001">
	<g transform="translate(0 -540.36)">
		<path d="m69.243 1051.9c-10.118-1.7073-19.707-7.2739-25.868-15.016-4.9855-6.2654-7.8506-12.621-10.088-22.378-0.80136-3.4944-0.88888-21.334-1.0518-214.42-0.12707-150.6-0.0112-212.08 0.40659-215.79 2.7927-24.742 19.628-42.048 42.622-43.814 8.4417-0.6483 19.049 1.6892 27.575 6.0765 5.2159 2.6842 346.41 196.83 351.3 199.9 24.896 15.612 32.618 41.841 19.044 64.686-3.137 5.2795-10.98 13.376-16.674 17.214-3.1875 2.1482-138.72 85.218-306.6 187.93-12.286 7.5159-27.722 16.971-34.304 21.011-12.803 7.8588-19.315 11.19-25.262 12.921-7.1226 2.0737-15.041 2.7055-21.098 1.6834zm12.056-45.901c3.7395-2.0462 346.81-212 349.95-214.16 3.3744-2.3252 4.2784-3.525 3.428-4.5497-1.358-1.6363-5.318-3.9642-49.432-29.059-24.425-13.894-102.56-58.357-173.62-98.805-71.069-40.449-130.26-73.898-131.53-74.33-1.2708-0.433-2.4771-0.6207-2.6806-0.4172-0.43186 0.4319-0.80296 420.12-0.37306 421.9 0.15906 0.6582 0.46413 1.1913 0.67794 1.1846 0.21381-0.01 1.8247-0.7978 3.5798-1.7581z"/>
	</g>
</svg>
