<svg xmlns:inkscape="http://www.inkscape.org/namespaces/inkscape" xmlns:rdf="http://www.w3.org/1999/02/22-rdf-syntax-ns#" xmlns="http://www.w3.org/2000/svg" sodipodi:docname="visible.svg" height="512" width="512" version="1.1" xmlns:cc="http://creativecommons.org/ns#" xmlns:dc="http://purl.org/dc/elements/1.1/" inkscape:version="0.91 r13725" viewBox="0 0 512.00001 512.00001" xmlns:sodipodi="http://sodipodi.sourceforge.net/DTD/sodipodi-0.dtd">
	<sodipodi:namedview bordercolor="#666666" inkscape:pageshadow="2" inkscape:window-y="-8" pagecolor="#ffffff" inkscape:window-height="1017" inkscape:window-maximized="1" inkscape:zoom="0.35" inkscape:window-x="-8" showgrid="false" borderopacity="1.0" inkscape:current-layer="layer1" inkscape:cx="-126.42857" inkscape:cy="520" units="px" inkscape:window-width="1920" inkscape:pageopacity="0.0" inkscape:document-units="px"/>
	<g inkscape:label="Layer 1" inkscape:groupmode="layer" transform="translate(0 -540.36)">
		<path inkscape:connector-curvature="0" d="m226.55 947.8c-30.387-3.7005-60.656-13.543-92.451-30.061-38.006-19.75-76.048-47.87-108.64-80.32-15.127-15.07-18.617-19.1-21.333-24.66-5.9547-12.185-5.1814-25.742 2.1119-37.026 7.1951-11.13 40.301-42.45 65.311-61.79 49.807-38.512 106.32-63.542 155.71-68.969 12.306-1.352 45.499-1.3678 57.289-0.0271 48.396 5.5026 102.52 28.91 151 65.303 27.965 20.993 65.137 56.161 71.931 68.052 5.1448 9.0057 5.8218 22.724 1.5931 32.283-5.8611 13.25-41.578 47.708-74.524 71.898-51.08 37.504-99.984 59.112-146.97 64.939-13.048 1.6181-49.021 1.8415-61.03 0.379zm60.048-34.393c49.45-7.1988 98.355-31.843 153.45-77.328 13.453-11.106 40-37.489 40-39.753 0-3.2731-31.494-33.819-51.089-49.551-43.339-34.795-96.982-60.553-139.41-66.944-21.291-3.2067-49.328-2.9786-70 0.56939-34.807 5.9741-79.682 25.902-116.72 51.834-22.505 15.755-51.48 41.168-65.845 57.75l-5.1497 5.9444 2.8012 3.7379c8.0828 10.785 35.88 36.117 58.309 53.137 46.95 35.627 98.007 57.668 143.67 62.024 13.002 1.2401 36.244 0.5794 49.985-1.4209zm-45.048-19.153c-18.564-2.9575-36.31-11.135-49.407-22.766-26.751-23.759-38.115-55.65-32.632-91.583 6.1984-40.622 36.784-72.423 78.039-81.14 9.8685-2.0852 31.438-1.5784 41.877 0.98394 35.409 8.6912 64.324 38.594 72.192 74.656 2.3756 10.889 2.3798 33.079 0.008 44-6.1008 28.094-25.94 53.608-51.795 66.609-13.63 6.8538-23.078 9.0615-40.282 9.4121-8.25 0.1681-16.35 0.091-18-0.1722zm34.067-35.414c10.615-3.2344 19.093-8.4257 27.518-16.85 13.391-13.391 19.072-26.96 19.087-45.585 0.011-13.999-2.9062-23.945-10.238-34.907-25.785-38.552-79.091-41.049-108.22-5.0689-26.201 32.358-15.144 79.074 23.309 98.485 14.04 7.0876 33.111 8.6298 48.549 3.926z"/>
	</g>
</svg>
