<svg xmlns:rdf="http://www.w3.org/1999/02/22-rdf-syntax-ns#" xmlns="http://www.w3.org/2000/svg" height="512" width="512" version="1.1" xmlns:cc="http://creativecommons.org/ns#" xmlns:dc="http://purl.org/dc/elements/1.1/" viewBox="0 0 512.00001 512.00001">
	<g transform="translate(0 -540.36)">
		<path d="m33.942 1014.8c-17.32-4.7-30.642-19.57-33.401-37.4-1.401-9.05-0.08966-17.6 4.0389-26.34 4.1359-8.76 212.93-354.74 216.69-359.06 4.6227-5.318 12.102-10.635 18.529-13.171 8.2435-3.253 24.269-3.253 32.513 0 6.4176 2.5324 13.91 7.8546 18.5 13.142 3.7394 4.3068 212.61 350.39 216.72 359.09 12.328 26.094-1.8832 56.525-29.793 63.795-5.2086 1.3566-30.943 1.5267-222.14 1.4685-185.68-0.056-217.01-0.2713-221.65-1.5182zm437.88-33.04c4.7283-2.2437 7.9434-8.9805 6.6029-13.835-1.4192-5.1399-209.92-350.81-213.91-354.65-5.8098-5.5799-11.105-5.5799-16.914 0-3.7386 3.5907-212.39 349.25-214.01 354.54-0.8445 2.7516-0.64454 4.1051 1.1558 7.8242 4.0745 8.4167-17.537 7.6652 221.16 7.6907 192.41 0.021 212.88-0.12832 215.92-1.5717zm-222.41-41.82c-9.8427-3.2134-16.402-12.273-16.361-22.598 0.08-20.236 23.231-30.732 38.81-17.597 5.2067 4.3902 7.6391 9.9732 7.6429 17.543 0.004 7.0307-1.6636 11.36-6.2996 16.358-5.7822 6.2336-15.833 8.8924-23.792 6.294zm-0.24426-68.644c-4.1107-1.0364-8.2426-3.9829-9.7472-6.9507-0.63938-1.2611-1.4139-11.266-1.8136-23.426-0.3837-11.674-1.3415-35.189-2.1284-52.256-1.743-37.802-1.8613-60.886-0.32731-63.878 3.5647-6.952 12.042-11.696 20.9-11.696 8.8587 0 17.336 4.7437 20.9 11.696 1.5329 2.9896 1.416 26.054-0.32389 63.878-0.78506 17.067-1.736 40.49-2.1132 52.051-0.76283 23.381-1.1523 24.867-7.4489 28.406-4.2122 2.3674-12.934 3.428-17.898 2.1764z"/>
	</g>
</svg>
