<?xml version="1.0" encoding="UTF-8" standalone="no"?>
<svg id="svg2" xmlns:rdf="http://www.w3.org/1999/02/22-rdf-syntax-ns#" xmlns="http://www.w3.org/2000/svg" height="512" width="512" version="1.1" xmlns:cc="http://creativecommons.org/ns#" xmlns:dc="http://purl.org/dc/elements/1.1/" viewBox="0 0 512.00001 512.00001">
	<g id="layer1" transform="translate(0,-540.36216)">
		<path id="path3347" d="m43.275746 1050.8507c-9.102431-1.9778-19.756586-7.9637-26.952985-15.1432-7.1353877-7.1187-13.5230432-19.17-15.2539232-28.779-1.49737333-8.31266-1.49737333-412.81998 0-421.13266 3.773005-20.94586 21.8299602-39.54998 42.6738922-43.967 10.128046-2.14623 414.38649-2.14623 424.51454 0 21.10832 4.47305 39.15308 23.28236 42.72318 44.53334 0.77145 4.59207 1.00797 67.40691 0.80576 214l-0.28621 207.50002-2.57854 6.6195c-3.80384 9.7652-7.42853 15.4082-14.14469 22.0209-6.96273 6.8555-18.89844 13.1134-28.21043 14.7907-4.0941 0.7375-69.66367 1.0442-211.5 0.9894-168.79618-0.065-206.679688-0.3214-211.790594-1.432zm426.724254-210.48852v-164h-214-214v164 164.00002h214 214v-164.00002zm-338 68.5v-40.5h41 41v40.5 40.5h-41-41v-40.5zm169 0v-40.5h41 41v40.5 40.5h-41-41v-40.5zm-169-133v-40.5h41 41v40.5 40.5h-41-41v-40.5zm169 0v-40.5h41 41v40.5 40.5h-41-41v-40.5zm69.56538-139.39041c13.86652-6.29816 19.63589-22.00222 13.03772-35.48838-10.24283-20.9356-40.73876-18.79316-48.10331 3.37942-2.11994 6.38255-1.59512 13.93203 1.37298 19.74998 2.48517 4.87134 9.86717 11.55866 14.34229 12.99262 5.40233 1.73107 14.82318 1.42258 19.35032-0.63364zm84.73136-1.4376c8.65056-5.06957 13.2819-14.21179 12.49298-24.661-0.50569-6.69791-2.76722-11.65516-7.45639-16.34432-7.46106-7.46107-18.69004-9.71976-28.13078-5.65846-17.47762 7.51867-21.59282 29.88107-7.93749 43.13311 5.26891 5.11331 10.58788 6.89657 19.37923 6.49718 5.5268-0.25108 8.16496-0.92271 11.65245-2.96651z"/>
	</g>
</svg>
