<?xml version="1.0" encoding="UTF-8" standalone="no"?>
<svg id="svg2" xmlns:rdf="http://www.w3.org/1999/02/22-rdf-syntax-ns#" xmlns="http://www.w3.org/2000/svg" height="512" width="512" version="1.1" xmlns:cc="http://creativecommons.org/ns#" xmlns:dc="http://purl.org/dc/elements/1.1/" viewBox="0 0 512.00001 512.00001">
	<g id="layer1" transform="translate(0,-540.36216)">
		<path id="path3347" d="m41.5 1051.3299c-18.323486-3.7875-33.0260317-16.9237-39.1372381-34.9677-1.79413239-5.2974-1.8627619-13.4028-1.8627619-220.00002 0-206.5972 0.0686295-214.70264 1.8627619-220 5.2089357-15.37993 16.8505631-27.39289 32.2179631-33.24562l5.919275-2.25438h215.5 215.5l5.91927 2.25438c15.3674 5.85273 27.00903 17.86569 32.21797 33.24562 1.79413 5.29736 1.86276 13.4028 1.86276 220 0 206.59722-0.0686 214.70262-1.86276 220.00002-5.20894 15.3799-16.85057 27.3929-32.21797 33.2456l-5.91927 2.2544-213 0.1473c-117.15 0.081-214.8-0.2248-217-0.6796zm273-43.9963c63.33829-1.3883 76.12472-2.1867 85.33492-5.3283 16.11353-5.4963 29.98968-17.39978 37.10387-31.82908 5.51587-11.18753 6.74491-18.21427 7.99633-45.7173 1.93451-42.51549 0.66501-103.07636-2.48608-118.59674-4.44756-21.90602-22.53387-40.98583-45.44904-47.94558-8.79353-2.67075-32.92837-3.55756-114.65323-4.21281-76.32322-0.61195-146.2696 0.59679-160.33816 2.77079-22.728461 3.5122-44.33747 22.06793-51.091342 43.87232-2.559771 8.26404-3.679194 23.48688-4.523574 61.51528-0.748183 33.69596 0.88355 81.89433 3.145286 92.90594 4.461503 21.7215 20.78399 39.78056 42.72839 47.27428 8.82891 3.015 24.25952 4.0476 77.87325 5.2109 54.21293 1.1764 73.7767 1.189 124.35938 0.08zm-124.60212-50.22287c-1.90779-1.2641-4.49422-4.44348-5.89788-7.25l-2.5-4.99855-0.28956-55.75-0.28955-55.75h12.01208 12.01208l0.27747 49.08716 0.27748 49.08716 2.80576 2.41284c3.58582 3.08365 7.80252 3.08372 11.38848 0.00019l2.80576-2.41265 0.29446-49.08735 0.29446-49.08735h11.95554 11.95554v62 62h-12-12v-3.43261c0-2.57682-0.49863-3.57407-2-4-1.1-0.31207-2.834-0.80177-3.85333-1.08823-1.34315-0.37746-2.55731 0.54297-4.41076 3.34372-1.40659 2.1255-4.1281 4.60987-6.0478 5.52083-5.10435 2.42218-12.63957 2.15508-16.79023-0.59516zm117.32795 0.59207c-3.50019-1.72524-7.29108-6.10342-11.51378-13.2975-2.92956-4.99099-2.9608-4.95653-4.94818 5.45688l-1.33593 7-11.21397 0.28275-11.21397 0.28275v-81.53275-81.53275h12 12v29.19507 29.19507l5.75-8.38869c7.07848-10.32682 11.97546-13.48044 19.59651-12.62 6.78604 0.76616 10.63811 3.34788 13.60987 9.12156l2.54362 4.94186v46.02756c0 25.31516-0.3558 48.10321-0.79066 50.64011-2.19601 12.81105-14.21759 20.28815-24.48351 15.22808zm-1.88916-25.16014c2.82329-3.1197 3.66483-11.62096 3.61978-36.56697-0.0497-27.48992-0.62225-32.06913-4.41833-35.33438-3.40994-2.9331-6.71676-2.88971-10.23236 0.13429l-2.80576 2.41341v33.00602 33.00602l2.42431 2.58057c2.97512 3.16686 8.87883 3.56056 11.41236 0.76104zm65.99578 25.02548c-10.17112-3.62713-16.31509-10.77066-18.97195-22.05851-1.69058-7.18255-1.90007-68.38517-0.26619-77.76759 1.45147-8.33498 6.10127-15.99846 12.17199-20.06103 12.02145-8.04486 31.64011-6.26287 41.61108 3.77958 7.47352 7.5271 10.12262 18.77341 10.12262 42.97395v13.92764h-20.5-20.5v20.07692 20.07693l2.92308 2.92307c3.59405 3.59406 7.89751 3.84433 11.57351 0.67308 3.40107-2.93408 4.45038-7.85318 4.47955-21l0.0239-10.75h11.12072 11.12072l-0.48653 12.25c-0.54842 13.80844-2.05587 18.96934-7.73389 26.47768-5.28154 6.98406-11.18465 9.6192-22.41691 10.00686-6.92718 0.23908-10.33975-0.12643-14.27166-1.52858zm20.66755-85.2717c0-13.09126-0.63938-16.13879-3.91334-18.65246-2.73364-2.09882-7.93418-1.52519-10.63211 1.17275-2.37306 2.37305-2.45455 2.92087-2.45455 16.5v14.04545h8.5 8.5v-13.06574zm-265 16.56574v-68.5h-12.5-12.5v-13-13h37 37v13 13h-12-12v68.5 68.5h-12.5-12.5v-68.5zm128.22474-143.44602c5.55851-1.69235 11.70912-6.91013 14.95179-12.68413 5.19015-9.24173 5.9913-16.35473 5.61629-49.86429-0.32157-28.73558-0.4355-30.25951-2.69166-36.00556-3.02818-7.71227-10.71025-15.48946-17.66867-17.88747-17.53488-6.04286-34.8864-0.54509-41.8629 13.26412-4.43223 8.7731-5.06959 14.57184-5.06959 46.12335 0 31.41552 0.51609 35.99238 5.08776 45.11974 3.61052 7.20842 8.28629 10.32144 19.91224 13.25709 3.17701 0.80222 17.6369-0.0783 21.72474-1.32285zm-17.61274-14.21161c-4.1055-3.54294-4.84306-11.91652-4.4499-50.52019 0.32249-31.66438 0.43191-33.30368 2.39875-35.93695 4.40901-5.90293 11.84941-5.04663 14.13271 1.6265 1.52841 4.46691 1.7773 74.75292 0.28375 80.13003-1.18816 4.27763-2.58548 5.62987-6.65947 6.44467-2.26733 0.45347-3.64863 0.0313-5.70584-1.74406zm82.73082 14.78775c1.80321-0.75343 4.90799-3.27348 6.8995-5.60012 3.55083-4.14834 3.69001-4.20744 7.18931-3.05257 3.16667 1.0451 3.56837 1.56295 3.56837 4.60012v3.42245h12.5 12.5v-59.53078-59.53078l-12.25 0.28078-12.25 0.28078-0.5 48.17036-0.5 48.17035-2.46831 2.62648c-3.43121 3.65107-9.41004 3.27147-12.43172-0.78929-2.04686-2.75074-2.11261-4.02782-2.59997-50.5l-0.5-47.6779-12.25-0.28078-12.25-0.28078v50.32068c0 52.6353 0.36653 57.79207 4.56298 64.19665 3.59081 5.48028 13.90237 8.04794 20.77984 5.17435zm-139.34282-36.63012l0.5-35.5 11.25-43.59358c6.1875-23.97646 11.25-44.11396 11.25-44.75 0-0.78874-2.83415-1.15642-8.91395-1.15642h-8.91394l-3.13747 13.25c-1.72561 7.2875-5.30687 21.97662-7.95836 32.6425l-4.82088 19.3925-1.57566-4.8925c-0.86661-2.69087-4.77249-15.2425-8.67974-27.8925s-7.79183-25.1375-8.63241-27.75l-1.52832-4.75h-9.02804-9.02805l0.67707 2.75c0.37239 1.5125 6.49617 22.63486 13.60841 46.93857l12.93134 44.18857v33.59526 33.59526l10.75-0.28383 10.75-0.28383 0.5-35.5z"/>
	</g>
</svg>
