<svg 
 xmlns="http://www.w3.org/2000/svg"
 xmlns:xlink="http://www.w3.org/1999/xlink"
 width="16px" height="16px">
<path fill-rule="evenodd"  fill="rgb(162, 162, 162)"
 d="M4.317,1.429 C6.762,1.429 9.207,1.429 11.651,1.429 C11.651,1.233 11.651,1.036 11.651,0.840 C11.651,0.729 11.648,0.615 11.675,0.534 C11.675,0.523 11.675,0.513 11.675,0.502 C11.725,0.361 11.790,0.245 11.902,0.165 C11.910,0.154 11.918,0.144 11.926,0.133 C11.931,0.133 11.936,0.133 11.941,0.133 C11.944,0.128 11.946,0.123 11.949,0.118 C11.954,0.118 11.960,0.118 11.965,0.118 C11.967,0.113 11.970,0.107 11.973,0.102 C11.980,0.099 11.988,0.097 11.996,0.094 C11.996,0.092 11.996,0.089 11.996,0.086 C12.046,0.065 12.095,0.044 12.145,0.024 C12.168,0.021 12.192,0.018 12.215,0.016 C12.215,0.013 12.215,0.010 12.215,0.008 C12.234,0.008 12.252,0.008 12.270,0.008 C12.270,0.005 12.270,0.003 12.270,0.000 C12.312,0.000 12.354,0.000 12.396,0.000 C12.396,0.003 12.396,0.005 12.396,0.008 C12.414,0.008 12.432,0.008 12.451,0.008 C12.451,0.010 12.451,0.013 12.451,0.016 C12.464,0.016 12.477,0.016 12.490,0.016 C12.490,0.018 12.490,0.021 12.490,0.024 C12.500,0.024 12.511,0.024 12.521,0.024 C12.521,0.026 12.521,0.029 12.521,0.031 C12.529,0.031 12.537,0.031 12.545,0.031 C12.545,0.034 12.545,0.037 12.545,0.039 C12.552,0.039 12.560,0.039 12.568,0.039 C12.568,0.042 12.568,0.044 12.568,0.047 C12.576,0.047 12.584,0.047 12.592,0.047 C12.592,0.050 12.592,0.052 12.592,0.055 C12.607,0.060 12.623,0.065 12.639,0.071 C12.639,0.073 12.639,0.076 12.639,0.079 C12.644,0.079 12.649,0.079 12.654,0.079 C12.654,0.081 12.654,0.084 12.654,0.086 C12.665,0.089 12.675,0.092 12.686,0.094 C12.688,0.099 12.691,0.105 12.693,0.110 C12.699,0.110 12.704,0.110 12.709,0.110 C12.712,0.115 12.714,0.120 12.717,0.126 C12.722,0.126 12.727,0.126 12.733,0.126 C12.738,0.133 12.743,0.141 12.748,0.149 C12.754,0.149 12.759,0.149 12.764,0.149 C12.785,0.173 12.806,0.196 12.827,0.220 C12.840,0.230 12.853,0.241 12.866,0.251 C12.866,0.256 12.866,0.262 12.866,0.267 C12.874,0.272 12.881,0.277 12.889,0.283 C12.889,0.288 12.889,0.293 12.889,0.298 C12.895,0.301 12.900,0.304 12.905,0.306 C12.905,0.311 12.905,0.317 12.905,0.322 C12.910,0.324 12.915,0.327 12.921,0.330 C12.921,0.335 12.921,0.340 12.921,0.345 C12.923,0.345 12.926,0.345 12.929,0.345 C12.929,0.351 12.929,0.356 12.929,0.361 C12.931,0.361 12.934,0.361 12.936,0.361 C12.936,0.366 12.936,0.372 12.936,0.377 C12.939,0.377 12.942,0.377 12.944,0.377 C12.944,0.382 12.944,0.387 12.944,0.393 C12.947,0.393 12.949,0.393 12.952,0.393 C12.955,0.403 12.957,0.413 12.960,0.424 C12.962,0.424 12.965,0.424 12.968,0.424 C12.970,0.440 12.973,0.455 12.976,0.471 C12.978,0.471 12.981,0.471 12.983,0.471 C12.983,0.479 12.983,0.487 12.983,0.495 C12.986,0.495 12.989,0.495 12.991,0.495 C12.991,0.502 12.991,0.510 12.991,0.518 C12.994,0.518 12.996,0.518 12.999,0.518 C12.999,0.531 12.999,0.544 12.999,0.557 C13.021,0.630 13.015,0.744 13.015,0.840 C13.015,1.036 13.015,1.233 13.015,1.429 C13.631,1.429 14.248,1.429 14.864,1.429 C14.989,1.429 15.115,1.429 15.240,1.429 C15.305,1.431 15.371,1.434 15.436,1.437 C15.483,1.450 15.530,1.463 15.577,1.476 C15.577,1.479 15.577,1.481 15.577,1.484 C15.593,1.489 15.608,1.494 15.624,1.499 C15.624,1.502 15.624,1.505 15.624,1.507 C15.629,1.507 15.634,1.507 15.640,1.507 C15.640,1.510 15.640,1.513 15.640,1.515 C15.650,1.518 15.660,1.520 15.671,1.523 C15.674,1.528 15.676,1.534 15.679,1.539 C15.684,1.539 15.689,1.539 15.694,1.539 C15.697,1.544 15.700,1.549 15.702,1.554 C15.707,1.554 15.713,1.554 15.718,1.554 C15.723,1.562 15.728,1.570 15.734,1.578 C15.739,1.578 15.744,1.578 15.749,1.578 C15.765,1.596 15.781,1.615 15.796,1.633 C15.815,1.649 15.833,1.664 15.851,1.680 C15.915,1.769 15.957,1.867 15.992,1.986 C15.995,2.057 15.997,2.128 16.000,2.198 C16.000,2.337 16.000,2.476 16.000,2.614 C16.000,3.166 16.000,3.719 16.000,4.271 C16.000,6.511 16.000,8.751 16.000,10.991 C16.000,12.061 16.000,13.132 16.000,14.202 C16.000,14.490 16.000,14.778 16.000,15.066 C16.000,15.168 16.000,15.270 16.000,15.372 C15.997,15.372 15.995,15.372 15.992,15.372 C15.992,15.387 15.992,15.403 15.992,15.419 C15.990,15.419 15.987,15.419 15.984,15.419 C15.984,15.429 15.984,15.440 15.984,15.450 C15.982,15.450 15.979,15.450 15.976,15.450 C15.976,15.461 15.976,15.471 15.976,15.482 C15.974,15.482 15.971,15.482 15.969,15.482 C15.969,15.489 15.969,15.497 15.969,15.505 C15.966,15.505 15.963,15.505 15.961,15.505 C15.961,15.513 15.961,15.521 15.961,15.529 C15.958,15.529 15.956,15.529 15.953,15.529 C15.950,15.539 15.948,15.550 15.945,15.560 C15.943,15.560 15.940,15.560 15.937,15.560 C15.937,15.568 15.937,15.576 15.937,15.584 C15.935,15.584 15.932,15.584 15.929,15.584 C15.929,15.589 15.929,15.594 15.929,15.599 C15.927,15.599 15.924,15.599 15.922,15.599 C15.922,15.605 15.922,15.610 15.922,15.615 C15.916,15.618 15.911,15.620 15.906,15.623 C15.903,15.633 15.901,15.644 15.898,15.654 C15.893,15.657 15.888,15.660 15.882,15.662 C15.882,15.667 15.882,15.673 15.882,15.678 C15.875,15.683 15.867,15.688 15.859,15.694 C15.859,15.699 15.859,15.704 15.859,15.709 C15.851,15.715 15.843,15.720 15.835,15.725 C15.835,15.730 15.835,15.735 15.835,15.741 C15.822,15.751 15.809,15.762 15.796,15.772 C15.781,15.790 15.765,15.809 15.749,15.827 C15.744,15.827 15.739,15.827 15.734,15.827 C15.726,15.838 15.718,15.848 15.710,15.858 C15.705,15.858 15.700,15.858 15.694,15.858 C15.692,15.864 15.689,15.869 15.687,15.874 C15.679,15.877 15.671,15.879 15.663,15.882 C15.663,15.885 15.663,15.887 15.663,15.890 C15.658,15.890 15.653,15.890 15.647,15.890 C15.645,15.895 15.642,15.900 15.640,15.906 C15.634,15.906 15.629,15.906 15.624,15.906 C15.624,15.908 15.624,15.911 15.624,15.913 C15.619,15.913 15.613,15.913 15.608,15.913 C15.608,15.916 15.608,15.919 15.608,15.921 C15.603,15.921 15.598,15.921 15.593,15.921 C15.593,15.924 15.593,15.926 15.593,15.929 C15.587,15.929 15.582,15.929 15.577,15.929 C15.577,15.932 15.577,15.934 15.577,15.937 C15.572,15.937 15.566,15.937 15.561,15.937 C15.561,15.940 15.561,15.942 15.561,15.945 C15.553,15.945 15.546,15.945 15.538,15.945 C15.538,15.947 15.538,15.950 15.538,15.953 C15.532,15.953 15.527,15.953 15.522,15.953 C15.522,15.955 15.522,15.958 15.522,15.961 C15.506,15.963 15.491,15.966 15.475,15.968 C15.475,15.971 15.475,15.974 15.475,15.976 C15.465,15.976 15.454,15.976 15.444,15.976 C15.444,15.979 15.444,15.981 15.444,15.984 C15.431,15.984 15.418,15.984 15.405,15.984 C15.405,15.987 15.405,15.989 15.405,15.992 C15.386,15.992 15.368,15.992 15.350,15.992 C15.350,15.995 15.350,15.997 15.350,16.000 C11.445,16.000 7.540,16.000 3.636,16.000 C2.899,16.000 2.163,16.000 1.426,16.000 C1.228,16.000 1.029,16.000 0.831,16.000 C0.720,16.000 0.606,16.003 0.525,15.976 C0.515,15.976 0.504,15.976 0.494,15.976 C0.276,15.899 0.128,15.759 0.039,15.552 C0.039,15.544 0.039,15.537 0.039,15.529 C0.000,15.431 -0.000,15.316 -0.000,15.175 C-0.000,14.982 -0.000,14.788 -0.000,14.594 C-0.000,13.885 -0.000,13.176 -0.000,12.467 C-0.000,9.984 -0.000,7.500 -0.000,5.017 C-0.000,4.273 -0.000,3.530 -0.000,2.787 C-0.000,2.609 -0.000,2.431 -0.000,2.253 C0.003,2.167 0.005,2.080 0.008,1.994 C0.010,1.994 0.013,1.994 0.016,1.994 C0.018,1.971 0.021,1.947 0.024,1.923 C0.026,1.923 0.029,1.923 0.031,1.923 C0.034,1.908 0.037,1.892 0.039,1.876 C0.042,1.876 0.044,1.876 0.047,1.876 C0.050,1.863 0.052,1.850 0.055,1.837 C0.057,1.837 0.060,1.837 0.063,1.837 C0.065,1.827 0.068,1.816 0.071,1.806 C0.073,1.806 0.076,1.806 0.078,1.806 C0.081,1.795 0.084,1.785 0.086,1.774 C0.091,1.772 0.097,1.769 0.102,1.766 C0.104,1.756 0.107,1.745 0.110,1.735 C0.115,1.732 0.120,1.730 0.125,1.727 C0.128,1.719 0.131,1.711 0.133,1.704 C0.141,1.698 0.149,1.693 0.157,1.688 C0.157,1.683 0.157,1.677 0.157,1.672 C0.172,1.659 0.188,1.646 0.204,1.633 C0.217,1.617 0.230,1.602 0.243,1.586 C0.248,1.586 0.253,1.586 0.259,1.586 C0.264,1.578 0.269,1.570 0.274,1.562 C0.279,1.562 0.285,1.562 0.290,1.562 C0.293,1.557 0.295,1.552 0.298,1.547 C0.303,1.547 0.308,1.547 0.313,1.547 C0.316,1.541 0.319,1.536 0.321,1.531 C0.329,1.528 0.337,1.526 0.345,1.523 C0.345,1.520 0.345,1.518 0.345,1.515 C0.355,1.513 0.366,1.510 0.376,1.507 C0.376,1.505 0.376,1.502 0.376,1.499 C0.387,1.497 0.397,1.494 0.407,1.492 C0.407,1.489 0.407,1.486 0.407,1.484 C0.421,1.481 0.434,1.479 0.447,1.476 C0.447,1.473 0.447,1.471 0.447,1.468 C0.454,1.468 0.462,1.468 0.470,1.468 C0.470,1.465 0.470,1.463 0.470,1.460 C0.488,1.458 0.507,1.455 0.525,1.452 C0.525,1.450 0.525,1.447 0.525,1.445 C0.538,1.445 0.551,1.445 0.564,1.445 C0.564,1.442 0.564,1.439 0.564,1.437 C0.629,1.434 0.695,1.431 0.760,1.429 C0.880,1.429 1.000,1.429 1.120,1.429 C1.732,1.429 2.343,1.429 2.954,1.429 C2.954,1.233 2.954,1.036 2.954,0.840 C2.954,0.746 2.948,0.638 2.970,0.565 C2.970,0.552 2.970,0.539 2.970,0.526 C2.972,0.526 2.975,0.526 2.977,0.526 C2.980,0.508 2.983,0.489 2.985,0.471 C2.988,0.471 2.991,0.471 2.993,0.471 C2.993,0.463 2.993,0.455 2.993,0.447 C2.996,0.447 2.998,0.447 3.001,0.447 C3.004,0.434 3.006,0.421 3.009,0.408 C3.011,0.408 3.014,0.408 3.017,0.408 C3.019,0.398 3.022,0.387 3.024,0.377 C3.027,0.377 3.030,0.377 3.032,0.377 C3.035,0.366 3.038,0.356 3.040,0.345 C3.045,0.343 3.051,0.340 3.056,0.338 C3.056,0.332 3.056,0.327 3.056,0.322 C3.058,0.322 3.061,0.322 3.064,0.322 C3.066,0.314 3.069,0.306 3.071,0.298 C3.077,0.296 3.082,0.293 3.087,0.290 C3.087,0.285 3.087,0.280 3.087,0.275 C3.098,0.267 3.108,0.259 3.119,0.251 C3.119,0.246 3.119,0.241 3.119,0.236 C3.137,0.220 3.155,0.204 3.173,0.188 C3.179,0.181 3.184,0.173 3.189,0.165 C3.194,0.165 3.199,0.165 3.205,0.165 C3.213,0.154 3.220,0.144 3.228,0.133 C3.233,0.133 3.239,0.133 3.244,0.133 C3.246,0.128 3.249,0.123 3.252,0.118 C3.257,0.118 3.262,0.118 3.267,0.118 C3.270,0.113 3.273,0.107 3.275,0.102 C3.283,0.099 3.291,0.097 3.299,0.094 C3.299,0.092 3.299,0.089 3.299,0.086 C3.348,0.065 3.398,0.044 3.448,0.024 C3.471,0.021 3.495,0.018 3.518,0.016 C3.518,0.013 3.518,0.010 3.518,0.008 C3.536,0.008 3.555,0.008 3.573,0.008 C3.573,0.005 3.573,0.003 3.573,0.000 C3.615,0.000 3.657,0.000 3.698,0.000 C3.698,0.003 3.698,0.005 3.698,0.008 C3.717,0.008 3.735,0.008 3.753,0.008 C3.753,0.010 3.753,0.013 3.753,0.016 C3.766,0.016 3.779,0.016 3.792,0.016 C3.792,0.018 3.792,0.021 3.792,0.024 C3.803,0.024 3.813,0.024 3.824,0.024 C3.824,0.026 3.824,0.029 3.824,0.031 C3.832,0.031 3.839,0.031 3.847,0.031 C3.847,0.034 3.847,0.037 3.847,0.039 C3.855,0.039 3.863,0.039 3.871,0.039 C3.871,0.042 3.871,0.044 3.871,0.047 C3.879,0.047 3.886,0.047 3.894,0.047 C3.894,0.050 3.894,0.052 3.894,0.055 C3.899,0.055 3.905,0.055 3.910,0.055 C3.910,0.058 3.910,0.060 3.910,0.063 C3.915,0.063 3.920,0.063 3.926,0.063 C3.926,0.065 3.926,0.068 3.926,0.071 C3.931,0.071 3.936,0.071 3.941,0.071 C3.941,0.073 3.941,0.076 3.941,0.079 C3.946,0.079 3.952,0.079 3.957,0.079 C3.957,0.081 3.957,0.084 3.957,0.086 C3.962,0.086 3.967,0.086 3.973,0.086 C3.973,0.089 3.973,0.092 3.973,0.094 C3.978,0.094 3.983,0.094 3.988,0.094 C3.991,0.099 3.993,0.105 3.996,0.110 C4.001,0.110 4.007,0.110 4.012,0.110 C4.014,0.115 4.017,0.120 4.020,0.126 C4.025,0.126 4.030,0.126 4.035,0.126 C4.043,0.136 4.051,0.147 4.059,0.157 C4.064,0.157 4.069,0.157 4.074,0.157 C4.093,0.178 4.111,0.199 4.129,0.220 C4.142,0.230 4.155,0.241 4.168,0.251 C4.168,0.256 4.168,0.262 4.168,0.267 C4.176,0.272 4.184,0.277 4.192,0.283 C4.192,0.288 4.192,0.293 4.192,0.298 C4.197,0.301 4.202,0.304 4.208,0.306 C4.208,0.311 4.208,0.317 4.208,0.322 C4.213,0.324 4.218,0.327 4.223,0.330 C4.223,0.335 4.223,0.340 4.223,0.345 C4.226,0.345 4.229,0.345 4.231,0.345 C4.231,0.351 4.231,0.356 4.231,0.361 C4.234,0.361 4.236,0.361 4.239,0.361 C4.239,0.366 4.239,0.372 4.239,0.377 C4.242,0.377 4.244,0.377 4.247,0.377 C4.247,0.382 4.247,0.387 4.247,0.393 C4.249,0.393 4.252,0.393 4.255,0.393 C4.257,0.403 4.260,0.413 4.262,0.424 C4.265,0.424 4.268,0.424 4.270,0.424 C4.273,0.440 4.276,0.455 4.278,0.471 C4.281,0.471 4.283,0.471 4.286,0.471 C4.324,0.568 4.317,0.707 4.317,0.840 C4.317,1.036 4.317,1.233 4.317,1.429 ZM1.332,2.763 C1.332,6.730 1.332,10.698 1.332,14.665 C5.766,14.665 10.202,14.665 14.637,14.665 C14.637,10.698 14.637,6.730 14.637,2.763 C14.096,2.763 13.555,2.763 13.015,2.763 C13.015,2.936 13.015,3.109 13.015,3.282 C13.015,3.355 13.025,3.474 13.007,3.533 C13.004,3.533 13.002,3.533 12.999,3.533 C12.999,3.543 12.999,3.554 12.999,3.564 C12.996,3.564 12.994,3.564 12.991,3.564 C12.991,3.575 12.991,3.585 12.991,3.596 C12.989,3.596 12.986,3.596 12.983,3.596 C12.983,3.603 12.983,3.611 12.983,3.619 C12.981,3.619 12.978,3.619 12.976,3.619 C12.976,3.627 12.976,3.635 12.976,3.643 C12.973,3.643 12.970,3.643 12.968,3.643 C12.968,3.651 12.968,3.658 12.968,3.666 C12.965,3.666 12.962,3.666 12.960,3.666 C12.955,3.682 12.949,3.698 12.944,3.713 C12.942,3.713 12.939,3.713 12.936,3.713 C12.936,3.719 12.936,3.724 12.936,3.729 C12.934,3.729 12.931,3.729 12.929,3.729 C12.929,3.734 12.929,3.740 12.929,3.745 C12.926,3.745 12.923,3.745 12.921,3.745 C12.918,3.755 12.915,3.766 12.913,3.776 C12.908,3.779 12.902,3.781 12.897,3.784 C12.897,3.789 12.897,3.795 12.897,3.800 C12.892,3.802 12.887,3.805 12.881,3.808 C12.881,3.813 12.881,3.818 12.881,3.823 C12.874,3.829 12.866,3.834 12.858,3.839 C12.858,3.844 12.858,3.849 12.858,3.855 C12.834,3.876 12.811,3.897 12.787,3.918 C12.772,3.936 12.756,3.954 12.740,3.972 C12.735,3.972 12.730,3.972 12.725,3.972 C12.720,3.980 12.714,3.988 12.709,3.996 C12.704,3.996 12.699,3.996 12.693,3.996 C12.688,4.004 12.683,4.012 12.678,4.020 C12.667,4.022 12.657,4.025 12.646,4.027 C12.644,4.033 12.641,4.038 12.639,4.043 C12.615,4.051 12.592,4.059 12.568,4.067 C12.568,4.069 12.568,4.072 12.568,4.075 C12.563,4.075 12.558,4.075 12.552,4.075 C12.552,4.077 12.552,4.080 12.552,4.082 C12.545,4.082 12.537,4.082 12.529,4.082 C12.529,4.085 12.529,4.088 12.529,4.090 C12.521,4.090 12.513,4.090 12.505,4.090 C12.505,4.093 12.505,4.095 12.505,4.098 C12.498,4.098 12.490,4.098 12.482,4.098 C12.482,4.101 12.482,4.103 12.482,4.106 C12.456,4.109 12.430,4.111 12.404,4.114 C12.380,4.121 12.289,4.132 12.255,4.122 C12.200,4.109 12.145,4.095 12.090,4.082 C12.090,4.080 12.090,4.077 12.090,4.075 C12.085,4.075 12.080,4.075 12.074,4.075 C12.074,4.072 12.074,4.069 12.074,4.067 C12.067,4.067 12.059,4.067 12.051,4.067 C12.051,4.064 12.051,4.061 12.051,4.059 C12.040,4.056 12.030,4.054 12.020,4.051 C12.020,4.048 12.020,4.046 12.020,4.043 C12.014,4.043 12.009,4.043 12.004,4.043 C12.001,4.038 11.999,4.033 11.996,4.027 C11.986,4.025 11.975,4.022 11.965,4.020 C11.962,4.014 11.960,4.009 11.957,4.004 C11.952,4.004 11.946,4.004 11.941,4.004 C11.936,3.996 11.931,3.988 11.926,3.980 C11.920,3.980 11.915,3.980 11.910,3.980 C11.897,3.965 11.884,3.949 11.871,3.933 C11.865,3.933 11.860,3.933 11.855,3.933 C11.847,3.920 11.839,3.907 11.832,3.894 C11.818,3.883 11.805,3.873 11.792,3.863 C11.792,3.857 11.792,3.852 11.792,3.847 C11.785,3.842 11.777,3.836 11.769,3.831 C11.769,3.826 11.769,3.821 11.769,3.815 C11.764,3.813 11.758,3.810 11.753,3.808 C11.751,3.797 11.748,3.787 11.745,3.776 C11.740,3.774 11.735,3.771 11.730,3.768 C11.722,3.745 11.714,3.721 11.706,3.698 C11.704,3.698 11.701,3.698 11.698,3.698 C11.698,3.692 11.698,3.687 11.698,3.682 C11.696,3.682 11.693,3.682 11.690,3.682 C11.688,3.666 11.685,3.651 11.683,3.635 C11.680,3.635 11.677,3.635 11.675,3.635 C11.645,3.549 11.651,3.427 11.651,3.313 C11.651,3.130 11.651,2.947 11.651,2.763 C9.207,2.763 6.762,2.763 4.317,2.763 C4.317,2.949 4.317,3.135 4.317,3.321 C4.317,3.437 4.325,3.564 4.294,3.651 C4.291,3.651 4.289,3.651 4.286,3.651 C4.286,3.658 4.286,3.666 4.286,3.674 C4.283,3.674 4.281,3.674 4.278,3.674 C4.278,3.679 4.278,3.685 4.278,3.690 C4.276,3.690 4.273,3.690 4.270,3.690 C4.270,3.698 4.270,3.706 4.270,3.713 C4.268,3.713 4.265,3.713 4.262,3.713 C4.260,3.724 4.257,3.734 4.255,3.745 C4.252,3.745 4.249,3.745 4.247,3.745 C4.244,3.755 4.242,3.766 4.239,3.776 C4.234,3.779 4.229,3.781 4.223,3.784 C4.221,3.795 4.218,3.805 4.215,3.815 C4.210,3.818 4.205,3.821 4.200,3.823 C4.197,3.831 4.195,3.839 4.192,3.847 C4.182,3.855 4.171,3.863 4.161,3.870 C4.161,3.876 4.161,3.881 4.161,3.886 C4.142,3.902 4.124,3.918 4.106,3.933 C4.101,3.941 4.095,3.949 4.090,3.957 C4.085,3.957 4.080,3.957 4.074,3.957 C4.067,3.967 4.059,3.978 4.051,3.988 C4.046,3.988 4.040,3.988 4.035,3.988 C4.033,3.993 4.030,3.999 4.027,4.004 C4.020,4.006 4.012,4.009 4.004,4.012 C4.004,4.014 4.004,4.017 4.004,4.020 C3.993,4.022 3.983,4.025 3.973,4.027 C3.970,4.033 3.967,4.038 3.965,4.043 C3.960,4.043 3.954,4.043 3.949,4.043 C3.949,4.046 3.949,4.048 3.949,4.051 C3.939,4.054 3.928,4.056 3.918,4.059 C3.918,4.061 3.918,4.064 3.918,4.067 C3.905,4.069 3.892,4.072 3.879,4.075 C3.879,4.077 3.879,4.080 3.879,4.082 C3.863,4.085 3.847,4.088 3.832,4.090 C3.832,4.093 3.832,4.095 3.832,4.098 C3.821,4.098 3.811,4.098 3.800,4.098 C3.800,4.101 3.800,4.103 3.800,4.106 C3.771,4.109 3.743,4.111 3.714,4.114 C3.690,4.121 3.593,4.132 3.557,4.122 C3.557,4.119 3.557,4.116 3.557,4.114 C3.542,4.114 3.526,4.114 3.510,4.114 C3.510,4.111 3.510,4.109 3.510,4.106 C3.497,4.106 3.484,4.106 3.471,4.106 C3.471,4.103 3.471,4.101 3.471,4.098 C3.463,4.098 3.455,4.098 3.448,4.098 C3.448,4.095 3.448,4.093 3.448,4.090 C3.440,4.090 3.432,4.090 3.424,4.090 C3.424,4.088 3.424,4.085 3.424,4.082 C3.416,4.082 3.408,4.082 3.401,4.082 C3.401,4.080 3.401,4.077 3.401,4.075 C3.393,4.075 3.385,4.075 3.377,4.075 C3.377,4.072 3.377,4.069 3.377,4.067 C3.367,4.064 3.356,4.061 3.346,4.059 C3.346,4.056 3.346,4.054 3.346,4.051 C3.341,4.051 3.335,4.051 3.330,4.051 C3.330,4.048 3.330,4.046 3.330,4.043 C3.325,4.043 3.320,4.043 3.314,4.043 C3.314,4.041 3.314,4.038 3.314,4.035 C3.309,4.035 3.304,4.035 3.299,4.035 C3.299,4.033 3.299,4.030 3.299,4.027 C3.294,4.027 3.288,4.027 3.283,4.027 C3.280,4.022 3.278,4.017 3.275,4.012 C3.270,4.012 3.265,4.012 3.260,4.012 C3.257,4.006 3.254,4.001 3.252,3.996 C3.246,3.996 3.241,3.996 3.236,3.996 C3.231,3.988 3.226,3.980 3.220,3.972 C3.215,3.972 3.210,3.972 3.205,3.972 C3.192,3.957 3.179,3.941 3.166,3.925 C3.147,3.910 3.129,3.894 3.111,3.878 C3.111,3.873 3.111,3.868 3.111,3.863 C3.100,3.855 3.090,3.847 3.079,3.839 C3.079,3.834 3.079,3.829 3.079,3.823 C3.074,3.821 3.069,3.818 3.064,3.815 C3.061,3.805 3.058,3.795 3.056,3.784 C3.051,3.781 3.045,3.779 3.040,3.776 C3.019,3.726 2.998,3.677 2.977,3.627 C2.977,3.617 2.977,3.606 2.977,3.596 C2.952,3.518 2.954,3.411 2.954,3.305 C2.954,3.125 2.954,2.944 2.954,2.763 C2.413,2.763 1.873,2.763 1.332,2.763 ZM9.473,7.380 C9.473,7.602 9.473,7.825 9.473,8.047 C9.802,8.025 10.118,8.087 10.351,8.188 C10.366,8.191 10.382,8.194 10.398,8.196 C10.398,8.199 10.398,8.201 10.398,8.204 C10.403,8.204 10.408,8.204 10.413,8.204 C10.413,8.207 10.413,8.209 10.413,8.212 C10.421,8.212 10.429,8.212 10.437,8.212 C10.437,8.214 10.437,8.217 10.437,8.220 C10.447,8.222 10.458,8.225 10.468,8.228 C10.468,8.230 10.468,8.233 10.468,8.235 C10.473,8.235 10.479,8.235 10.484,8.235 C10.484,8.238 10.484,8.241 10.484,8.243 C10.492,8.243 10.500,8.243 10.507,8.243 C10.507,8.246 10.507,8.248 10.507,8.251 C10.523,8.256 10.539,8.262 10.554,8.267 C10.554,8.269 10.554,8.272 10.554,8.275 C10.560,8.275 10.565,8.275 10.570,8.275 C10.570,8.277 10.570,8.280 10.570,8.283 C10.575,8.283 10.580,8.283 10.586,8.283 C10.586,8.285 10.586,8.288 10.586,8.290 C10.601,8.296 10.617,8.301 10.633,8.306 C10.635,8.311 10.638,8.317 10.641,8.322 C10.656,8.327 10.672,8.332 10.688,8.337 C10.690,8.343 10.693,8.348 10.695,8.353 C10.706,8.356 10.716,8.358 10.727,8.361 C10.727,8.364 10.727,8.366 10.727,8.369 C10.735,8.371 10.742,8.374 10.750,8.377 C10.753,8.382 10.755,8.387 10.758,8.392 C10.769,8.395 10.779,8.398 10.789,8.400 C10.789,8.403 10.789,8.405 10.789,8.408 C10.797,8.411 10.805,8.413 10.813,8.416 C10.816,8.421 10.818,8.426 10.821,8.432 C10.826,8.432 10.831,8.432 10.836,8.432 C10.842,8.440 10.847,8.447 10.852,8.455 C10.857,8.455 10.863,8.455 10.868,8.455 C10.870,8.460 10.873,8.466 10.876,8.471 C10.881,8.471 10.886,8.471 10.891,8.471 C10.894,8.476 10.897,8.481 10.899,8.487 C10.907,8.489 10.915,8.492 10.923,8.494 C10.930,8.505 10.938,8.515 10.946,8.526 C10.951,8.526 10.957,8.526 10.962,8.526 C10.970,8.536 10.977,8.547 10.985,8.557 C10.991,8.557 10.996,8.557 11.001,8.557 C11.017,8.576 11.032,8.594 11.048,8.612 C11.053,8.612 11.058,8.612 11.064,8.612 C11.095,8.646 11.126,8.680 11.158,8.714 C11.181,8.735 11.205,8.756 11.228,8.777 C11.228,8.782 11.228,8.788 11.228,8.793 C11.244,8.806 11.260,8.819 11.275,8.832 C11.275,8.837 11.275,8.843 11.275,8.848 C11.288,8.858 11.301,8.869 11.314,8.879 C11.314,8.884 11.314,8.890 11.314,8.895 C11.322,8.900 11.330,8.905 11.338,8.911 C11.338,8.916 11.338,8.921 11.338,8.926 C11.346,8.931 11.354,8.937 11.361,8.942 C11.361,8.947 11.361,8.952 11.361,8.958 C11.369,8.963 11.377,8.968 11.385,8.973 C11.385,8.979 11.385,8.984 11.385,8.989 C11.390,8.992 11.395,8.994 11.401,8.997 C11.401,9.002 11.401,9.007 11.401,9.013 C11.408,9.018 11.416,9.023 11.424,9.028 C11.427,9.039 11.429,9.049 11.432,9.060 C11.437,9.062 11.442,9.065 11.448,9.068 C11.448,9.073 11.448,9.078 11.448,9.083 C11.453,9.086 11.458,9.089 11.463,9.091 C11.466,9.099 11.468,9.107 11.471,9.115 C11.474,9.115 11.476,9.115 11.479,9.115 C11.479,9.120 11.479,9.125 11.479,9.130 C11.482,9.130 11.484,9.130 11.487,9.130 C11.487,9.136 11.487,9.141 11.487,9.146 C11.489,9.146 11.492,9.146 11.495,9.146 C11.495,9.151 11.495,9.157 11.495,9.162 C11.500,9.164 11.505,9.167 11.510,9.170 C11.516,9.185 11.521,9.201 11.526,9.217 C11.531,9.219 11.536,9.222 11.542,9.225 C11.544,9.235 11.547,9.246 11.549,9.256 C11.552,9.256 11.555,9.256 11.557,9.256 C11.557,9.261 11.557,9.266 11.557,9.272 C11.560,9.272 11.563,9.272 11.565,9.272 C11.570,9.287 11.576,9.303 11.581,9.319 C11.583,9.319 11.586,9.319 11.589,9.319 C11.589,9.327 11.589,9.334 11.589,9.342 C11.591,9.342 11.594,9.342 11.596,9.342 C11.596,9.348 11.596,9.353 11.596,9.358 C11.599,9.358 11.602,9.358 11.604,9.358 C11.607,9.369 11.610,9.379 11.612,9.389 C11.615,9.389 11.617,9.389 11.620,9.389 C11.620,9.397 11.620,9.405 11.620,9.413 C11.623,9.413 11.625,9.413 11.628,9.413 C11.628,9.418 11.628,9.423 11.628,9.429 C11.630,9.429 11.633,9.429 11.636,9.429 C11.636,9.437 11.636,9.444 11.636,9.452 C11.638,9.452 11.641,9.452 11.643,9.452 C11.643,9.457 11.643,9.463 11.643,9.468 C11.646,9.468 11.649,9.468 11.651,9.468 C11.654,9.484 11.657,9.499 11.659,9.515 C11.662,9.515 11.664,9.515 11.667,9.515 C11.667,9.520 11.667,9.526 11.667,9.531 C11.670,9.531 11.672,9.531 11.675,9.531 C11.683,9.565 11.691,9.599 11.698,9.633 C11.701,9.633 11.704,9.633 11.706,9.633 C11.706,9.641 11.706,9.649 11.706,9.656 C11.709,9.656 11.711,9.656 11.714,9.656 C11.714,9.664 11.714,9.672 11.714,9.680 C11.717,9.680 11.719,9.680 11.722,9.680 C11.722,9.690 11.722,9.701 11.722,9.711 C11.724,9.711 11.727,9.711 11.730,9.711 C11.730,9.722 11.730,9.732 11.730,9.743 C11.732,9.743 11.735,9.743 11.738,9.743 C11.738,9.753 11.738,9.764 11.738,9.774 C11.740,9.774 11.743,9.774 11.745,9.774 C11.745,9.787 11.745,9.800 11.745,9.813 C11.748,9.813 11.751,9.813 11.753,9.813 C11.753,9.826 11.753,9.840 11.753,9.853 C11.756,9.853 11.758,9.853 11.761,9.853 C11.761,9.866 11.761,9.879 11.761,9.892 C11.764,9.892 11.766,9.892 11.769,9.892 C11.769,9.910 11.769,9.929 11.769,9.947 C11.771,9.947 11.774,9.947 11.777,9.947 C11.777,9.965 11.777,9.983 11.777,10.002 C11.779,10.002 11.782,10.002 11.785,10.002 C11.785,10.025 11.785,10.049 11.785,10.072 C11.787,10.072 11.790,10.072 11.792,10.072 C11.792,10.117 11.792,10.161 11.792,10.206 C11.795,10.206 11.798,10.206 11.800,10.206 C11.800,10.250 11.800,10.295 11.800,10.339 C11.798,10.339 11.795,10.339 11.792,10.339 C11.792,10.384 11.792,10.428 11.792,10.473 C11.790,10.473 11.787,10.473 11.785,10.473 C11.782,10.517 11.779,10.562 11.777,10.606 C11.774,10.606 11.771,10.606 11.769,10.606 C11.766,10.635 11.764,10.664 11.761,10.693 C11.758,10.693 11.756,10.693 11.753,10.693 C11.753,10.706 11.753,10.719 11.753,10.732 C11.751,10.732 11.748,10.732 11.745,10.732 C11.745,10.745 11.745,10.758 11.745,10.771 C11.743,10.771 11.740,10.771 11.738,10.771 C11.738,10.782 11.738,10.792 11.738,10.803 C11.735,10.803 11.732,10.803 11.730,10.803 C11.730,10.813 11.730,10.824 11.730,10.834 C11.727,10.834 11.724,10.834 11.722,10.834 C11.722,10.844 11.722,10.855 11.722,10.865 C11.719,10.865 11.717,10.865 11.714,10.865 C11.714,10.873 11.714,10.881 11.714,10.889 C11.711,10.889 11.709,10.889 11.706,10.889 C11.706,10.899 11.706,10.910 11.706,10.920 C11.704,10.920 11.701,10.920 11.698,10.920 C11.698,10.928 11.698,10.936 11.698,10.944 C11.696,10.944 11.693,10.944 11.690,10.944 C11.690,10.952 11.690,10.960 11.690,10.967 C11.688,10.967 11.685,10.967 11.683,10.967 C11.683,10.975 11.683,10.983 11.683,10.991 C11.680,10.991 11.677,10.991 11.675,10.991 C11.675,10.999 11.675,11.007 11.675,11.015 C11.672,11.015 11.670,11.015 11.667,11.015 C11.664,11.030 11.662,11.046 11.659,11.062 C11.657,11.062 11.654,11.062 11.651,11.062 C11.651,11.067 11.651,11.072 11.651,11.077 C11.649,11.077 11.646,11.077 11.643,11.077 C11.643,11.085 11.643,11.093 11.643,11.101 C11.641,11.101 11.638,11.101 11.636,11.101 C11.636,11.106 11.636,11.111 11.636,11.117 C11.633,11.117 11.630,11.117 11.628,11.117 C11.628,11.124 11.628,11.132 11.628,11.140 C11.625,11.140 11.623,11.140 11.620,11.140 C11.617,11.151 11.615,11.161 11.612,11.172 C11.610,11.172 11.607,11.172 11.604,11.172 C11.604,11.179 11.604,11.187 11.604,11.195 C11.602,11.195 11.599,11.195 11.596,11.195 C11.591,11.211 11.586,11.227 11.581,11.242 C11.578,11.242 11.576,11.242 11.573,11.242 C11.573,11.247 11.573,11.253 11.573,11.258 C11.570,11.258 11.568,11.258 11.565,11.258 C11.565,11.263 11.565,11.268 11.565,11.274 C11.563,11.274 11.560,11.274 11.557,11.274 C11.557,11.279 11.557,11.284 11.557,11.289 C11.555,11.289 11.552,11.289 11.549,11.289 C11.549,11.295 11.549,11.300 11.549,11.305 C11.547,11.305 11.544,11.305 11.542,11.305 C11.542,11.310 11.542,11.315 11.542,11.321 C11.539,11.321 11.536,11.321 11.534,11.321 C11.534,11.326 11.534,11.331 11.534,11.336 C11.531,11.336 11.529,11.336 11.526,11.336 C11.526,11.342 11.526,11.347 11.526,11.352 C11.521,11.355 11.516,11.357 11.510,11.360 C11.505,11.376 11.500,11.391 11.495,11.407 C11.489,11.410 11.484,11.412 11.479,11.415 C11.479,11.420 11.479,11.425 11.479,11.431 C11.476,11.431 11.474,11.431 11.471,11.431 C11.471,11.436 11.471,11.441 11.471,11.446 C11.466,11.449 11.461,11.452 11.455,11.454 C11.453,11.465 11.450,11.475 11.448,11.486 C11.445,11.486 11.442,11.486 11.440,11.486 C11.437,11.493 11.435,11.501 11.432,11.509 C11.427,11.512 11.421,11.514 11.416,11.517 C11.416,11.522 11.416,11.527 11.416,11.533 C11.408,11.538 11.401,11.543 11.393,11.548 C11.393,11.554 11.393,11.559 11.393,11.564 C11.388,11.567 11.382,11.569 11.377,11.572 C11.377,11.577 11.377,11.582 11.377,11.588 C11.369,11.593 11.361,11.598 11.354,11.603 C11.354,11.609 11.354,11.614 11.354,11.619 C11.346,11.624 11.338,11.630 11.330,11.635 C11.330,11.640 11.330,11.645 11.330,11.650 C11.320,11.658 11.309,11.666 11.299,11.674 C11.299,11.679 11.299,11.684 11.299,11.690 C11.288,11.698 11.278,11.705 11.267,11.713 C11.267,11.718 11.267,11.724 11.267,11.729 C11.252,11.742 11.236,11.755 11.220,11.768 C11.220,11.771 11.220,11.773 11.220,11.776 C11.215,11.779 11.210,11.781 11.205,11.784 C11.205,11.789 11.205,11.794 11.205,11.800 C11.179,11.823 11.152,11.847 11.126,11.870 C11.113,11.886 11.100,11.902 11.087,11.917 C11.082,11.917 11.077,11.917 11.071,11.917 C11.053,11.938 11.035,11.959 11.017,11.980 C11.011,11.980 11.006,11.980 11.001,11.980 C10.991,11.993 10.980,12.006 10.970,12.019 C10.964,12.019 10.959,12.019 10.954,12.019 C10.946,12.030 10.938,12.040 10.930,12.051 C10.925,12.051 10.920,12.051 10.915,12.051 C10.910,12.059 10.904,12.067 10.899,12.074 C10.891,12.077 10.883,12.080 10.876,12.082 C10.873,12.087 10.870,12.093 10.868,12.098 C10.863,12.098 10.857,12.098 10.852,12.098 C10.849,12.103 10.847,12.108 10.844,12.114 C10.836,12.116 10.829,12.119 10.821,12.122 C10.821,12.124 10.821,12.127 10.821,12.129 C10.816,12.129 10.810,12.129 10.805,12.129 C10.802,12.135 10.800,12.140 10.797,12.145 C10.792,12.145 10.787,12.145 10.782,12.145 C10.779,12.150 10.776,12.156 10.774,12.161 C10.769,12.161 10.763,12.161 10.758,12.161 C10.755,12.166 10.753,12.171 10.750,12.176 C10.742,12.179 10.735,12.182 10.727,12.184 C10.727,12.187 10.727,12.190 10.727,12.192 C10.722,12.192 10.716,12.192 10.711,12.192 C10.711,12.195 10.711,12.197 10.711,12.200 C10.706,12.200 10.701,12.200 10.695,12.200 C10.695,12.203 10.695,12.205 10.695,12.208 C10.690,12.208 10.685,12.208 10.680,12.208 C10.677,12.213 10.675,12.218 10.672,12.224 C10.656,12.229 10.641,12.234 10.625,12.239 C10.622,12.244 10.620,12.250 10.617,12.255 C10.601,12.260 10.586,12.265 10.570,12.271 C10.570,12.273 10.570,12.276 10.570,12.279 C10.565,12.279 10.560,12.279 10.554,12.279 C10.554,12.281 10.554,12.284 10.554,12.286 C10.539,12.292 10.523,12.297 10.507,12.302 C10.507,12.305 10.507,12.307 10.507,12.310 C10.500,12.310 10.492,12.310 10.484,12.310 C10.484,12.313 10.484,12.315 10.484,12.318 C10.473,12.320 10.463,12.323 10.452,12.326 C10.452,12.328 10.452,12.331 10.452,12.333 C10.445,12.333 10.437,12.333 10.429,12.333 C10.429,12.336 10.429,12.339 10.429,12.341 C10.419,12.344 10.408,12.347 10.398,12.349 C10.398,12.352 10.398,12.354 10.398,12.357 C10.382,12.360 10.366,12.362 10.351,12.365 C10.351,12.367 10.351,12.370 10.351,12.373 C10.345,12.373 10.340,12.373 10.335,12.373 C10.335,12.375 10.335,12.378 10.335,12.381 C10.319,12.383 10.304,12.386 10.288,12.388 C10.288,12.391 10.288,12.394 10.288,12.396 C10.280,12.396 10.272,12.396 10.264,12.396 C10.264,12.399 10.264,12.402 10.264,12.404 C10.257,12.404 10.249,12.404 10.241,12.404 C10.241,12.407 10.241,12.409 10.241,12.412 C10.233,12.412 10.225,12.412 10.217,12.412 C10.217,12.415 10.217,12.417 10.217,12.420 C10.210,12.420 10.202,12.420 10.194,12.420 C10.194,12.422 10.194,12.425 10.194,12.428 C10.183,12.428 10.173,12.428 10.163,12.428 C10.163,12.430 10.163,12.433 10.163,12.436 C10.152,12.436 10.142,12.436 10.131,12.436 C10.131,12.438 10.131,12.441 10.131,12.443 C10.121,12.443 10.110,12.443 10.100,12.443 C10.100,12.446 10.100,12.449 10.100,12.451 C10.089,12.451 10.079,12.451 10.069,12.451 C10.069,12.454 10.069,12.456 10.069,12.459 C10.058,12.459 10.048,12.459 10.037,12.459 C10.037,12.462 10.037,12.464 10.037,12.467 C10.024,12.467 10.011,12.467 9.998,12.467 C9.998,12.470 9.998,12.472 9.998,12.475 C9.985,12.475 9.972,12.475 9.959,12.475 C9.959,12.477 9.959,12.480 9.959,12.483 C9.941,12.483 9.922,12.483 9.904,12.483 C9.904,12.485 9.904,12.488 9.904,12.490 C9.886,12.490 9.867,12.490 9.849,12.490 C9.849,12.493 9.849,12.496 9.849,12.498 C9.826,12.498 9.802,12.498 9.779,12.498 C9.779,12.501 9.779,12.504 9.779,12.506 C9.742,12.506 9.706,12.506 9.669,12.506 C9.644,12.513 9.509,12.524 9.473,12.514 C9.473,12.511 9.473,12.509 9.473,12.506 C9.437,12.506 9.400,12.506 9.363,12.506 C9.363,12.504 9.363,12.501 9.363,12.498 C9.340,12.498 9.316,12.498 9.293,12.498 C9.293,12.496 9.293,12.493 9.293,12.490 C9.275,12.490 9.256,12.490 9.238,12.490 C9.238,12.488 9.238,12.485 9.238,12.483 C9.220,12.483 9.201,12.483 9.183,12.483 C9.183,12.480 9.183,12.477 9.183,12.475 C9.170,12.475 9.157,12.475 9.144,12.475 C9.144,12.472 9.144,12.470 9.144,12.467 C9.131,12.467 9.118,12.467 9.105,12.467 C9.105,12.464 9.105,12.462 9.105,12.459 C9.094,12.459 9.084,12.459 9.073,12.459 C9.073,12.456 9.073,12.454 9.073,12.451 C9.063,12.451 9.053,12.451 9.042,12.451 C9.042,12.449 9.042,12.446 9.042,12.443 C9.032,12.443 9.021,12.443 9.011,12.443 C9.011,12.441 9.011,12.438 9.011,12.436 C8.990,12.433 8.969,12.430 8.948,12.428 C8.948,12.425 8.948,12.422 8.948,12.420 C8.893,12.404 8.838,12.388 8.784,12.373 C8.784,12.370 8.784,12.367 8.784,12.365 C8.778,12.365 8.773,12.365 8.768,12.365 C8.768,12.362 8.768,12.360 8.768,12.357 C8.760,12.357 8.752,12.357 8.744,12.357 C8.744,12.354 8.744,12.352 8.744,12.349 C8.739,12.349 8.734,12.349 8.729,12.349 C8.729,12.347 8.729,12.344 8.729,12.341 C8.721,12.341 8.713,12.341 8.705,12.341 C8.705,12.339 8.705,12.336 8.705,12.333 C8.700,12.333 8.695,12.333 8.690,12.333 C8.690,12.331 8.690,12.328 8.690,12.326 C8.676,12.323 8.663,12.320 8.650,12.318 C8.650,12.315 8.650,12.313 8.650,12.310 C8.635,12.305 8.619,12.299 8.603,12.294 C8.603,12.292 8.603,12.289 8.603,12.286 C8.598,12.286 8.593,12.286 8.588,12.286 C8.588,12.284 8.588,12.281 8.588,12.279 C8.582,12.279 8.577,12.279 8.572,12.279 C8.572,12.276 8.572,12.273 8.572,12.271 C8.567,12.271 8.562,12.271 8.556,12.271 C8.556,12.268 8.556,12.265 8.556,12.263 C8.551,12.263 8.546,12.263 8.541,12.263 C8.541,12.260 8.541,12.258 8.541,12.255 C8.535,12.255 8.530,12.255 8.525,12.255 C8.525,12.252 8.525,12.250 8.525,12.247 C8.520,12.247 8.515,12.247 8.509,12.247 C8.509,12.244 8.509,12.242 8.509,12.239 C8.504,12.239 8.499,12.239 8.494,12.239 C8.491,12.234 8.488,12.229 8.486,12.224 C8.470,12.218 8.454,12.213 8.439,12.208 C8.439,12.205 8.439,12.203 8.439,12.200 C8.431,12.197 8.423,12.195 8.415,12.192 C8.413,12.187 8.410,12.182 8.407,12.176 C8.397,12.174 8.387,12.171 8.376,12.169 C8.376,12.166 8.376,12.163 8.376,12.161 C8.368,12.158 8.360,12.156 8.353,12.153 C8.350,12.148 8.347,12.142 8.345,12.137 C8.340,12.137 8.334,12.137 8.329,12.137 C8.329,12.135 8.329,12.132 8.329,12.129 C8.321,12.127 8.313,12.124 8.306,12.122 C8.303,12.116 8.300,12.111 8.298,12.106 C8.293,12.106 8.287,12.106 8.282,12.106 C8.277,12.098 8.272,12.090 8.266,12.082 C8.261,12.082 8.256,12.082 8.251,12.082 C8.246,12.074 8.240,12.067 8.235,12.059 C8.230,12.059 8.225,12.059 8.219,12.059 C8.214,12.051 8.209,12.043 8.204,12.035 C8.198,12.035 8.193,12.035 8.188,12.035 C8.178,12.022 8.167,12.009 8.157,11.996 C8.151,11.996 8.146,11.996 8.141,11.996 C8.128,11.980 8.115,11.964 8.102,11.949 C8.097,11.949 8.091,11.949 8.086,11.949 C8.060,11.920 8.034,11.891 8.008,11.862 C7.995,11.852 7.982,11.841 7.969,11.831 C7.969,11.826 7.969,11.821 7.969,11.815 C7.961,11.810 7.953,11.805 7.945,11.800 C7.945,11.794 7.945,11.789 7.945,11.784 C7.940,11.781 7.935,11.779 7.929,11.776 C7.927,11.766 7.924,11.755 7.922,11.745 C7.916,11.742 7.911,11.739 7.906,11.737 C7.906,11.732 7.906,11.726 7.906,11.721 C7.903,11.721 7.901,11.721 7.898,11.721 C7.898,11.716 7.898,11.711 7.898,11.705 C7.896,11.705 7.893,11.705 7.890,11.705 C7.890,11.698 7.890,11.690 7.890,11.682 C7.888,11.682 7.885,11.682 7.882,11.682 C7.882,11.677 7.882,11.671 7.882,11.666 C7.880,11.666 7.877,11.666 7.875,11.666 C7.875,11.658 7.875,11.650 7.875,11.643 C7.872,11.643 7.869,11.643 7.867,11.643 C7.867,11.635 7.867,11.627 7.867,11.619 C7.864,11.619 7.862,11.619 7.859,11.619 C7.859,11.611 7.859,11.603 7.859,11.596 C7.856,11.596 7.854,11.596 7.851,11.596 C7.851,11.585 7.851,11.575 7.851,11.564 C7.849,11.564 7.846,11.564 7.843,11.564 C7.843,11.554 7.843,11.543 7.843,11.533 C7.841,11.533 7.838,11.533 7.835,11.533 C7.835,11.509 7.835,11.486 7.835,11.462 C7.833,11.462 7.830,11.462 7.828,11.462 C7.816,11.419 7.835,11.334 7.843,11.305 C7.843,11.292 7.843,11.279 7.843,11.266 C7.846,11.266 7.849,11.266 7.851,11.266 C7.851,11.258 7.851,11.250 7.851,11.242 C7.854,11.242 7.856,11.242 7.859,11.242 C7.862,11.224 7.864,11.206 7.867,11.187 C7.869,11.187 7.872,11.187 7.875,11.187 C7.875,11.182 7.875,11.177 7.875,11.172 C7.877,11.172 7.880,11.172 7.882,11.172 C7.890,11.148 7.898,11.124 7.906,11.101 C7.911,11.098 7.916,11.096 7.922,11.093 C7.924,11.083 7.927,11.072 7.929,11.062 C7.935,11.059 7.940,11.056 7.945,11.054 C7.945,11.049 7.945,11.043 7.945,11.038 C7.953,11.033 7.961,11.028 7.969,11.022 C7.969,11.017 7.969,11.012 7.969,11.007 C7.992,10.986 8.016,10.965 8.039,10.944 C8.052,10.928 8.065,10.912 8.078,10.897 C8.169,10.832 8.397,10.720 8.572,10.771 C8.598,10.774 8.624,10.776 8.650,10.779 C8.650,10.782 8.650,10.784 8.650,10.787 C8.658,10.787 8.666,10.787 8.674,10.787 C8.674,10.789 8.674,10.792 8.674,10.795 C8.682,10.795 8.690,10.795 8.697,10.795 C8.697,10.797 8.697,10.800 8.697,10.803 C8.705,10.803 8.713,10.803 8.721,10.803 C8.721,10.805 8.721,10.808 8.721,10.810 C8.729,10.810 8.737,10.810 8.744,10.810 C8.744,10.813 8.744,10.816 8.744,10.818 C8.760,10.824 8.776,10.829 8.791,10.834 C8.791,10.837 8.791,10.839 8.791,10.842 C8.802,10.844 8.812,10.847 8.823,10.850 C8.825,10.855 8.828,10.860 8.831,10.865 C8.836,10.865 8.841,10.865 8.846,10.865 C8.849,10.871 8.851,10.876 8.854,10.881 C8.859,10.881 8.865,10.881 8.870,10.881 C8.875,10.889 8.880,10.897 8.885,10.905 C8.891,10.905 8.896,10.905 8.901,10.905 C8.917,10.923 8.932,10.941 8.948,10.960 C8.956,10.962 8.964,10.965 8.972,10.967 C8.982,10.981 8.992,10.994 9.003,11.007 C9.008,11.007 9.013,11.007 9.019,11.007 C9.021,11.012 9.024,11.017 9.026,11.022 C9.032,11.022 9.037,11.022 9.042,11.022 C9.047,11.030 9.053,11.038 9.058,11.046 C9.068,11.049 9.079,11.051 9.089,11.054 C9.092,11.059 9.094,11.064 9.097,11.070 C9.113,11.075 9.128,11.080 9.144,11.085 C9.147,11.090 9.149,11.096 9.152,11.101 C9.165,11.104 9.178,11.106 9.191,11.109 C9.191,11.111 9.191,11.114 9.191,11.117 C9.201,11.119 9.212,11.122 9.222,11.124 C9.222,11.127 9.222,11.130 9.222,11.132 C9.230,11.132 9.238,11.132 9.246,11.132 C9.246,11.135 9.246,11.138 9.246,11.140 C9.251,11.140 9.256,11.140 9.262,11.140 C9.262,11.143 9.262,11.145 9.262,11.148 C9.269,11.148 9.277,11.148 9.285,11.148 C9.285,11.151 9.285,11.153 9.285,11.156 C9.293,11.156 9.301,11.156 9.309,11.156 C9.309,11.158 9.309,11.161 9.309,11.164 C9.319,11.164 9.329,11.164 9.340,11.164 C9.340,11.166 9.340,11.169 9.340,11.172 C9.350,11.172 9.361,11.172 9.371,11.172 C9.371,11.174 9.371,11.177 9.371,11.179 C9.384,11.179 9.397,11.179 9.410,11.179 C9.523,11.213 9.706,11.196 9.802,11.164 C9.836,11.156 9.870,11.148 9.904,11.140 C9.904,11.138 9.904,11.135 9.904,11.132 C9.914,11.130 9.925,11.127 9.935,11.124 C9.935,11.122 9.935,11.119 9.935,11.117 C9.943,11.117 9.951,11.117 9.959,11.117 C9.959,11.114 9.959,11.111 9.959,11.109 C9.969,11.106 9.980,11.104 9.990,11.101 C9.990,11.098 9.990,11.096 9.990,11.093 C10.001,11.090 10.011,11.088 10.022,11.085 C10.024,11.080 10.027,11.075 10.029,11.070 C10.040,11.067 10.050,11.064 10.061,11.062 C10.061,11.059 10.061,11.056 10.061,11.054 C10.069,11.051 10.076,11.049 10.084,11.046 C10.087,11.041 10.089,11.035 10.092,11.030 C10.097,11.030 10.103,11.030 10.108,11.030 C10.110,11.025 10.113,11.020 10.116,11.015 C10.123,11.012 10.131,11.009 10.139,11.007 C10.147,10.996 10.155,10.986 10.163,10.975 C10.168,10.975 10.173,10.975 10.178,10.975 C10.186,10.965 10.194,10.954 10.202,10.944 C10.223,10.926 10.244,10.907 10.264,10.889 C10.264,10.884 10.264,10.878 10.264,10.873 C10.278,10.863 10.291,10.852 10.304,10.842 C10.304,10.837 10.304,10.831 10.304,10.826 C10.309,10.824 10.314,10.821 10.319,10.818 C10.319,10.813 10.319,10.808 10.319,10.803 C10.327,10.797 10.335,10.792 10.343,10.787 C10.345,10.776 10.348,10.766 10.351,10.755 C10.356,10.753 10.361,10.750 10.366,10.748 C10.366,10.742 10.366,10.737 10.366,10.732 C10.369,10.732 10.372,10.732 10.374,10.732 C10.374,10.727 10.374,10.721 10.374,10.716 C10.377,10.716 10.379,10.716 10.382,10.716 C10.382,10.711 10.382,10.706 10.382,10.701 C10.385,10.701 10.387,10.701 10.390,10.701 C10.390,10.695 10.390,10.690 10.390,10.685 C10.392,10.685 10.395,10.685 10.398,10.685 C10.398,10.680 10.398,10.674 10.398,10.669 C10.400,10.669 10.403,10.669 10.405,10.669 C10.411,10.653 10.416,10.638 10.421,10.622 C10.424,10.622 10.426,10.622 10.429,10.622 C10.429,10.614 10.429,10.606 10.429,10.598 C10.432,10.598 10.434,10.598 10.437,10.598 C10.437,10.591 10.437,10.583 10.437,10.575 C10.439,10.575 10.442,10.575 10.445,10.575 C10.445,10.567 10.445,10.559 10.445,10.551 C10.447,10.551 10.450,10.551 10.452,10.551 C10.452,10.544 10.452,10.536 10.452,10.528 C10.455,10.528 10.458,10.528 10.460,10.528 C10.463,10.507 10.466,10.486 10.468,10.465 C10.471,10.465 10.473,10.465 10.476,10.465 C10.479,10.428 10.481,10.392 10.484,10.355 C10.491,10.330 10.502,10.234 10.492,10.198 C10.489,10.198 10.486,10.198 10.484,10.198 C10.484,10.177 10.484,10.156 10.484,10.135 C10.481,10.135 10.479,10.135 10.476,10.135 C10.476,10.120 10.476,10.104 10.476,10.088 C10.473,10.088 10.471,10.088 10.468,10.088 C10.468,10.078 10.468,10.067 10.468,10.057 C10.466,10.057 10.463,10.057 10.460,10.057 C10.460,10.046 10.460,10.036 10.460,10.025 C10.458,10.025 10.455,10.025 10.452,10.025 C10.450,10.007 10.447,9.989 10.445,9.970 C10.442,9.970 10.439,9.970 10.437,9.970 C10.434,9.957 10.432,9.944 10.429,9.931 C10.426,9.931 10.424,9.931 10.421,9.931 C10.421,9.926 10.421,9.921 10.421,9.915 C10.419,9.915 10.416,9.915 10.413,9.915 C10.413,9.908 10.413,9.900 10.413,9.892 C10.411,9.892 10.408,9.892 10.405,9.892 C10.403,9.881 10.400,9.871 10.398,9.860 C10.395,9.860 10.392,9.860 10.390,9.860 C10.390,9.855 10.390,9.850 10.390,9.845 C10.385,9.842 10.379,9.840 10.374,9.837 C10.369,9.821 10.364,9.806 10.358,9.790 C10.353,9.787 10.348,9.785 10.343,9.782 C10.343,9.777 10.343,9.772 10.343,9.766 C10.338,9.764 10.332,9.761 10.327,9.758 C10.327,9.753 10.327,9.748 10.327,9.743 C10.319,9.738 10.311,9.732 10.304,9.727 C10.304,9.722 10.304,9.717 10.304,9.711 C10.296,9.706 10.288,9.701 10.280,9.696 C10.280,9.690 10.280,9.685 10.280,9.680 C10.254,9.656 10.228,9.633 10.202,9.609 C10.191,9.596 10.181,9.583 10.170,9.570 C10.165,9.570 10.160,9.570 10.155,9.570 C10.147,9.560 10.139,9.549 10.131,9.539 C10.126,9.539 10.121,9.539 10.116,9.539 C10.113,9.533 10.110,9.528 10.108,9.523 C10.100,9.520 10.092,9.518 10.084,9.515 C10.084,9.512 10.084,9.510 10.084,9.507 C10.079,9.507 10.074,9.507 10.069,9.507 C10.066,9.502 10.063,9.497 10.061,9.492 C10.056,9.492 10.050,9.492 10.045,9.492 C10.042,9.486 10.040,9.481 10.037,9.476 C10.027,9.473 10.016,9.471 10.006,9.468 C10.006,9.465 10.006,9.463 10.006,9.460 C10.001,9.460 9.995,9.460 9.990,9.460 C9.990,9.457 9.990,9.455 9.990,9.452 C9.975,9.447 9.959,9.442 9.943,9.437 C9.943,9.434 9.943,9.431 9.943,9.429 C9.935,9.429 9.928,9.429 9.920,9.429 C9.920,9.426 9.920,9.423 9.920,9.421 C9.914,9.421 9.909,9.421 9.904,9.421 C9.904,9.418 9.904,9.416 9.904,9.413 C9.888,9.410 9.873,9.408 9.857,9.405 C9.774,9.373 9.577,9.332 9.457,9.366 C9.439,9.366 9.421,9.366 9.403,9.366 C9.403,9.369 9.403,9.371 9.403,9.374 C9.389,9.374 9.376,9.374 9.363,9.374 C9.363,9.376 9.363,9.379 9.363,9.382 C9.353,9.382 9.342,9.382 9.332,9.382 C9.332,9.384 9.332,9.387 9.332,9.389 C9.324,9.389 9.316,9.389 9.309,9.389 C9.309,9.392 9.309,9.395 9.309,9.397 C9.298,9.397 9.288,9.397 9.277,9.397 C9.277,9.400 9.277,9.403 9.277,9.405 C9.264,9.408 9.251,9.410 9.238,9.413 C9.238,9.416 9.238,9.418 9.238,9.421 C9.233,9.421 9.228,9.421 9.222,9.421 C9.222,9.423 9.222,9.426 9.222,9.429 C9.214,9.429 9.207,9.429 9.199,9.429 C9.199,9.431 9.199,9.434 9.199,9.437 C9.188,9.439 9.178,9.442 9.167,9.444 C9.167,9.447 9.167,9.450 9.167,9.452 C9.162,9.452 9.157,9.452 9.152,9.452 C9.152,9.455 9.152,9.457 9.152,9.460 C9.147,9.460 9.141,9.460 9.136,9.460 C9.136,9.463 9.136,9.465 9.136,9.468 C9.131,9.468 9.126,9.468 9.120,9.468 C9.120,9.471 9.120,9.473 9.120,9.476 C9.115,9.476 9.110,9.476 9.105,9.476 C9.105,9.478 9.105,9.481 9.105,9.484 C9.094,9.486 9.084,9.489 9.073,9.492 C9.073,9.494 9.073,9.497 9.073,9.499 C9.066,9.499 9.058,9.499 9.050,9.499 C9.050,9.502 9.050,9.505 9.050,9.507 C9.045,9.507 9.040,9.507 9.034,9.507 C9.034,9.510 9.034,9.512 9.034,9.515 C9.016,9.518 8.998,9.520 8.979,9.523 C8.979,9.526 8.979,9.528 8.979,9.531 C8.966,9.531 8.953,9.531 8.940,9.531 C8.790,9.577 8.618,9.522 8.517,9.468 C8.507,9.465 8.496,9.463 8.486,9.460 C8.483,9.455 8.481,9.450 8.478,9.444 C8.473,9.444 8.468,9.444 8.462,9.444 C8.462,9.442 8.462,9.439 8.462,9.437 C8.454,9.434 8.447,9.431 8.439,9.429 C8.436,9.423 8.434,9.418 8.431,9.413 C8.426,9.413 8.421,9.413 8.415,9.413 C8.405,9.400 8.394,9.387 8.384,9.374 C8.379,9.374 8.373,9.374 8.368,9.374 C8.366,9.369 8.363,9.363 8.360,9.358 C8.353,9.353 8.345,9.348 8.337,9.342 C8.337,9.337 8.337,9.332 8.337,9.327 C8.324,9.316 8.311,9.306 8.298,9.295 C8.298,9.290 8.298,9.285 8.298,9.280 C8.290,9.274 8.282,9.269 8.274,9.264 C8.274,9.259 8.274,9.253 8.274,9.248 C8.269,9.246 8.264,9.243 8.259,9.240 C8.256,9.230 8.253,9.219 8.251,9.209 C8.248,9.209 8.246,9.209 8.243,9.209 C8.243,9.204 8.243,9.198 8.243,9.193 C8.238,9.191 8.232,9.188 8.227,9.185 C8.227,9.177 8.227,9.170 8.227,9.162 C8.225,9.162 8.222,9.162 8.219,9.162 C8.217,9.151 8.214,9.141 8.212,9.130 C8.209,9.130 8.206,9.130 8.204,9.130 C8.201,9.115 8.198,9.099 8.196,9.083 C8.193,9.083 8.191,9.083 8.188,9.083 C8.145,8.960 8.165,8.741 8.165,8.581 C8.165,8.246 8.165,7.911 8.165,7.576 C8.165,7.354 8.165,7.131 8.165,6.909 C8.165,6.816 8.149,6.672 8.172,6.595 C8.175,6.595 8.178,6.595 8.180,6.595 C8.180,6.584 8.180,6.574 8.180,6.563 C8.183,6.563 8.185,6.563 8.188,6.563 C8.188,6.553 8.188,6.542 8.188,6.532 C8.191,6.532 8.193,6.532 8.196,6.532 C8.196,6.524 8.196,6.516 8.196,6.508 C8.198,6.508 8.201,6.508 8.204,6.508 C8.204,6.500 8.204,6.493 8.204,6.485 C8.206,6.485 8.209,6.485 8.212,6.485 C8.217,6.469 8.222,6.453 8.227,6.438 C8.230,6.438 8.232,6.438 8.235,6.438 C8.235,6.432 8.235,6.427 8.235,6.422 C8.238,6.422 8.240,6.422 8.243,6.422 C8.243,6.417 8.243,6.411 8.243,6.406 C8.246,6.406 8.248,6.406 8.251,6.406 C8.253,6.396 8.256,6.385 8.259,6.375 C8.264,6.372 8.269,6.370 8.274,6.367 C8.274,6.362 8.274,6.356 8.274,6.351 C8.282,6.346 8.290,6.341 8.298,6.336 C8.298,6.330 8.298,6.325 8.298,6.320 C8.311,6.309 8.324,6.299 8.337,6.288 C8.337,6.283 8.337,6.278 8.337,6.273 C8.347,6.265 8.358,6.257 8.368,6.249 C8.368,6.247 8.368,6.244 8.368,6.241 C8.373,6.241 8.379,6.241 8.384,6.241 C8.394,6.228 8.405,6.215 8.415,6.202 C8.423,6.199 8.431,6.197 8.439,6.194 C8.441,6.189 8.444,6.184 8.447,6.179 C8.457,6.176 8.468,6.173 8.478,6.171 C8.481,6.165 8.483,6.160 8.486,6.155 C8.496,6.152 8.507,6.150 8.517,6.147 C8.517,6.144 8.517,6.142 8.517,6.139 C8.533,6.134 8.548,6.129 8.564,6.124 C8.564,6.121 8.564,6.118 8.564,6.116 C8.572,6.116 8.580,6.116 8.588,6.116 C8.588,6.113 8.588,6.110 8.588,6.108 C8.593,6.108 8.598,6.108 8.603,6.108 C8.603,6.105 8.603,6.103 8.603,6.100 C8.622,6.097 8.640,6.095 8.658,6.092 C8.658,6.090 8.658,6.087 8.658,6.084 C8.671,6.084 8.684,6.084 8.697,6.084 C8.755,6.067 8.831,6.069 8.909,6.069 C9.060,6.069 9.212,6.069 9.363,6.069 C9.852,6.069 10.340,6.069 10.829,6.069 C10.993,6.069 11.158,6.069 11.322,6.069 C11.405,6.069 11.496,6.066 11.557,6.084 C11.570,6.084 11.583,6.084 11.596,6.084 C11.596,6.087 11.596,6.090 11.596,6.092 C11.604,6.092 11.612,6.092 11.620,6.092 C11.620,6.095 11.620,6.097 11.620,6.100 C11.628,6.100 11.636,6.100 11.643,6.100 C11.643,6.103 11.643,6.105 11.643,6.108 C11.659,6.110 11.675,6.113 11.690,6.116 C11.690,6.118 11.690,6.121 11.690,6.124 C11.706,6.129 11.722,6.134 11.738,6.139 C11.738,6.142 11.738,6.144 11.738,6.147 C11.748,6.150 11.758,6.152 11.769,6.155 C11.771,6.160 11.774,6.165 11.777,6.171 C11.782,6.171 11.787,6.171 11.792,6.171 C11.795,6.176 11.798,6.181 11.800,6.186 C11.805,6.186 11.811,6.186 11.816,6.186 C11.818,6.192 11.821,6.197 11.824,6.202 C11.829,6.202 11.834,6.202 11.839,6.202 C11.863,6.228 11.886,6.254 11.910,6.281 C11.926,6.294 11.941,6.307 11.957,6.320 C11.957,6.325 11.957,6.330 11.957,6.336 C11.965,6.341 11.973,6.346 11.980,6.351 C11.983,6.362 11.986,6.372 11.988,6.383 C11.993,6.385 11.999,6.388 12.004,6.390 C12.007,6.401 12.009,6.411 12.012,6.422 C12.014,6.422 12.017,6.422 12.020,6.422 C12.025,6.438 12.030,6.453 12.035,6.469 C12.038,6.469 12.040,6.469 12.043,6.469 C12.043,6.477 12.043,6.485 12.043,6.493 C12.046,6.493 12.048,6.493 12.051,6.493 C12.051,6.498 12.051,6.503 12.051,6.508 C12.054,6.508 12.056,6.508 12.059,6.508 C12.059,6.516 12.059,6.524 12.059,6.532 C12.061,6.532 12.064,6.532 12.067,6.532 C12.069,6.553 12.072,6.574 12.074,6.595 C12.077,6.595 12.080,6.595 12.082,6.595 C12.082,6.610 12.082,6.626 12.082,6.642 C12.085,6.642 12.087,6.642 12.090,6.642 C12.090,6.673 12.090,6.705 12.090,6.736 C12.090,6.854 12.060,6.935 12.020,7.011 C12.020,7.016 12.020,7.021 12.020,7.026 C12.017,7.026 12.014,7.026 12.012,7.026 C12.012,7.032 12.012,7.037 12.012,7.042 C12.009,7.042 12.007,7.042 12.004,7.042 C12.004,7.047 12.004,7.053 12.004,7.058 C12.001,7.058 11.999,7.058 11.996,7.058 C11.996,7.063 11.996,7.068 11.996,7.073 C11.991,7.076 11.986,7.079 11.980,7.081 C11.980,7.087 11.980,7.092 11.980,7.097 C11.975,7.100 11.970,7.102 11.965,7.105 C11.962,7.113 11.960,7.121 11.957,7.128 C11.941,7.142 11.926,7.155 11.910,7.168 C11.910,7.173 11.910,7.178 11.910,7.183 C11.897,7.191 11.884,7.199 11.871,7.207 C11.860,7.220 11.850,7.233 11.839,7.246 C11.834,7.246 11.829,7.246 11.824,7.246 C11.818,7.254 11.813,7.262 11.808,7.270 C11.798,7.272 11.787,7.275 11.777,7.278 C11.774,7.283 11.771,7.288 11.769,7.293 C11.758,7.296 11.748,7.299 11.738,7.301 C11.738,7.304 11.738,7.306 11.738,7.309 C11.722,7.314 11.706,7.319 11.690,7.325 C11.690,7.327 11.690,7.330 11.690,7.333 C11.683,7.333 11.675,7.333 11.667,7.333 C11.667,7.335 11.667,7.338 11.667,7.340 C11.662,7.340 11.657,7.340 11.651,7.340 C11.651,7.343 11.651,7.346 11.651,7.348 C11.641,7.348 11.630,7.348 11.620,7.348 C11.620,7.351 11.620,7.354 11.620,7.356 C11.612,7.356 11.604,7.356 11.596,7.356 C11.596,7.359 11.596,7.361 11.596,7.364 C11.583,7.364 11.570,7.364 11.557,7.364 C11.557,7.367 11.557,7.369 11.557,7.372 C11.542,7.372 11.526,7.372 11.510,7.372 C11.510,7.374 11.510,7.377 11.510,7.380 C11.361,7.380 11.213,7.380 11.064,7.380 C10.534,7.380 10.003,7.380 9.473,7.380 ZM4.921,7.388 C4.759,7.389 4.501,7.407 4.380,7.364 C4.239,7.313 4.131,7.241 4.051,7.128 C4.043,7.123 4.035,7.118 4.027,7.113 C4.027,7.108 4.027,7.102 4.027,7.097 C4.022,7.094 4.017,7.092 4.012,7.089 C4.012,7.084 4.012,7.079 4.012,7.073 C4.007,7.071 4.001,7.068 3.996,7.066 C3.991,7.050 3.986,7.034 3.980,7.019 C3.978,7.019 3.975,7.019 3.973,7.019 C3.970,7.008 3.967,6.998 3.965,6.987 C3.962,6.987 3.960,6.987 3.957,6.987 C3.952,6.964 3.946,6.940 3.941,6.916 C3.910,6.837 3.895,6.698 3.926,6.602 C3.926,6.592 3.926,6.582 3.926,6.571 C3.928,6.571 3.931,6.571 3.933,6.571 C3.939,6.545 3.944,6.519 3.949,6.493 C3.952,6.493 3.954,6.493 3.957,6.493 C3.962,6.477 3.967,6.461 3.973,6.445 C3.975,6.445 3.978,6.445 3.980,6.445 C3.980,6.440 3.980,6.435 3.980,6.430 C3.983,6.430 3.986,6.430 3.988,6.430 C3.988,6.425 3.988,6.419 3.988,6.414 C3.991,6.414 3.993,6.414 3.996,6.414 C3.999,6.404 4.001,6.393 4.004,6.383 C4.009,6.380 4.014,6.377 4.020,6.375 C4.020,6.370 4.020,6.364 4.020,6.359 C4.027,6.354 4.035,6.349 4.043,6.343 C4.043,6.338 4.043,6.333 4.043,6.328 C4.054,6.320 4.064,6.312 4.074,6.304 C4.074,6.299 4.074,6.294 4.074,6.288 C4.087,6.278 4.101,6.267 4.114,6.257 C4.116,6.252 4.119,6.247 4.121,6.241 C4.127,6.241 4.132,6.241 4.137,6.241 C4.148,6.228 4.158,6.215 4.168,6.202 C4.174,6.202 4.179,6.202 4.184,6.202 C4.187,6.197 4.189,6.192 4.192,6.186 C4.200,6.184 4.208,6.181 4.215,6.179 C4.215,6.176 4.215,6.173 4.215,6.171 C4.226,6.168 4.236,6.165 4.247,6.163 C4.249,6.158 4.252,6.152 4.255,6.147 C4.268,6.144 4.281,6.142 4.294,6.139 C4.294,6.137 4.294,6.134 4.294,6.131 C4.304,6.129 4.315,6.126 4.325,6.124 C4.325,6.121 4.325,6.118 4.325,6.116 C4.341,6.113 4.357,6.110 4.372,6.108 C4.372,6.105 4.372,6.103 4.372,6.100 C4.496,6.056 4.720,6.076 4.881,6.076 C5.067,6.076 5.252,6.076 5.438,6.076 C5.515,6.076 5.643,6.065 5.704,6.084 C5.704,6.087 5.704,6.090 5.704,6.092 C5.715,6.092 5.725,6.092 5.736,6.092 C5.736,6.095 5.736,6.097 5.736,6.100 C5.746,6.100 5.756,6.100 5.767,6.100 C5.767,6.103 5.767,6.105 5.767,6.108 C5.775,6.108 5.783,6.108 5.790,6.108 C5.790,6.110 5.790,6.113 5.790,6.116 C5.798,6.116 5.806,6.116 5.814,6.116 C5.814,6.118 5.814,6.121 5.814,6.124 C5.819,6.124 5.824,6.124 5.830,6.124 C5.830,6.126 5.830,6.129 5.830,6.131 C5.837,6.131 5.845,6.131 5.853,6.131 C5.853,6.134 5.853,6.137 5.853,6.139 C5.858,6.139 5.864,6.139 5.869,6.139 C5.869,6.142 5.869,6.144 5.869,6.147 C5.874,6.147 5.879,6.147 5.884,6.147 C5.887,6.152 5.890,6.158 5.892,6.163 C5.903,6.165 5.913,6.168 5.924,6.171 C5.924,6.173 5.924,6.176 5.924,6.179 C5.931,6.181 5.939,6.184 5.947,6.186 C5.950,6.192 5.952,6.197 5.955,6.202 C5.960,6.202 5.965,6.202 5.971,6.202 C5.981,6.215 5.992,6.228 6.002,6.241 C6.007,6.241 6.012,6.241 6.018,6.241 C6.028,6.254 6.039,6.267 6.049,6.281 C6.054,6.283 6.059,6.286 6.065,6.288 C6.065,6.294 6.065,6.299 6.065,6.304 C6.078,6.315 6.091,6.325 6.104,6.336 C6.104,6.341 6.104,6.346 6.104,6.351 C6.109,6.354 6.114,6.356 6.119,6.359 C6.122,6.367 6.125,6.375 6.127,6.383 C6.130,6.383 6.133,6.383 6.135,6.383 C6.138,6.393 6.140,6.404 6.143,6.414 C6.148,6.417 6.153,6.419 6.159,6.422 C6.161,6.435 6.164,6.448 6.167,6.461 C6.169,6.461 6.172,6.461 6.174,6.461 C6.177,6.472 6.180,6.482 6.182,6.493 C6.185,6.493 6.187,6.493 6.190,6.493 C6.190,6.500 6.190,6.508 6.190,6.516 C6.193,6.516 6.195,6.516 6.198,6.516 C6.198,6.524 6.198,6.532 6.198,6.540 C6.200,6.540 6.203,6.540 6.206,6.540 C6.206,6.550 6.206,6.561 6.206,6.571 C6.208,6.571 6.211,6.571 6.214,6.571 C6.214,6.582 6.214,6.592 6.214,6.602 C6.216,6.602 6.219,6.602 6.221,6.602 C6.221,6.618 6.221,6.634 6.221,6.650 C6.224,6.650 6.227,6.650 6.229,6.650 C6.229,6.780 6.229,6.911 6.229,7.042 C6.229,7.304 6.229,7.565 6.229,7.827 C6.229,8.882 6.229,9.936 6.229,10.991 C6.229,11.221 6.229,11.452 6.229,11.682 C6.229,11.822 6.238,11.973 6.198,12.074 C6.195,12.074 6.193,12.074 6.190,12.074 C6.190,12.080 6.190,12.085 6.190,12.090 C6.187,12.090 6.185,12.090 6.182,12.090 C6.182,12.098 6.182,12.106 6.182,12.114 C6.180,12.114 6.177,12.114 6.174,12.114 C6.169,12.129 6.164,12.145 6.159,12.161 C6.156,12.161 6.153,12.161 6.151,12.161 C6.148,12.171 6.146,12.182 6.143,12.192 C6.138,12.195 6.133,12.197 6.127,12.200 C6.127,12.205 6.127,12.210 6.127,12.216 C6.122,12.218 6.117,12.221 6.112,12.224 C6.112,12.229 6.112,12.234 6.112,12.239 C6.104,12.244 6.096,12.250 6.088,12.255 C6.088,12.260 6.088,12.265 6.088,12.271 C6.065,12.292 6.041,12.313 6.018,12.333 C6.007,12.347 5.997,12.360 5.986,12.373 C5.981,12.373 5.976,12.373 5.971,12.373 C5.965,12.381 5.960,12.388 5.955,12.396 C5.950,12.396 5.944,12.396 5.939,12.396 C5.937,12.402 5.934,12.407 5.931,12.412 C5.921,12.415 5.911,12.417 5.900,12.420 C5.897,12.425 5.895,12.430 5.892,12.436 C5.887,12.436 5.882,12.436 5.877,12.436 C5.877,12.438 5.877,12.441 5.877,12.443 C5.866,12.446 5.856,12.449 5.845,12.451 C5.845,12.454 5.845,12.456 5.845,12.459 C5.793,12.475 5.741,12.490 5.689,12.506 C5.668,12.506 5.647,12.506 5.626,12.506 C5.626,12.509 5.626,12.511 5.626,12.514 C5.592,12.514 5.558,12.514 5.524,12.514 C5.524,12.511 5.524,12.509 5.524,12.506 C5.503,12.506 5.482,12.506 5.461,12.506 C5.461,12.504 5.461,12.501 5.461,12.498 C5.448,12.498 5.435,12.498 5.422,12.498 C5.422,12.496 5.422,12.493 5.422,12.490 C5.414,12.490 5.406,12.490 5.399,12.490 C5.399,12.488 5.399,12.485 5.399,12.483 C5.391,12.483 5.383,12.483 5.375,12.483 C5.375,12.480 5.375,12.477 5.375,12.475 C5.367,12.475 5.359,12.475 5.352,12.475 C5.352,12.472 5.352,12.470 5.352,12.467 C5.344,12.467 5.336,12.467 5.328,12.467 C5.328,12.464 5.328,12.462 5.328,12.459 C5.318,12.456 5.307,12.454 5.297,12.451 C5.297,12.449 5.297,12.446 5.297,12.443 C5.289,12.443 5.281,12.443 5.273,12.443 C5.271,12.438 5.268,12.433 5.265,12.428 C5.255,12.425 5.245,12.422 5.234,12.420 C5.234,12.417 5.234,12.415 5.234,12.412 C5.226,12.409 5.218,12.407 5.211,12.404 C5.208,12.399 5.205,12.394 5.203,12.388 C5.198,12.388 5.192,12.388 5.187,12.388 C5.182,12.381 5.177,12.373 5.171,12.365 C5.166,12.365 5.161,12.365 5.156,12.365 C5.143,12.349 5.130,12.333 5.117,12.318 C5.101,12.305 5.085,12.292 5.070,12.279 C5.070,12.273 5.070,12.268 5.070,12.263 C5.062,12.258 5.054,12.252 5.046,12.247 C5.043,12.239 5.041,12.231 5.038,12.224 C5.033,12.221 5.028,12.218 5.023,12.216 C5.020,12.205 5.017,12.195 5.015,12.184 C5.009,12.182 5.004,12.179 4.999,12.176 C4.999,12.171 4.999,12.166 4.999,12.161 C4.996,12.161 4.994,12.161 4.991,12.161 C4.989,12.150 4.986,12.140 4.983,12.129 C4.981,12.129 4.978,12.129 4.976,12.129 C4.973,12.116 4.970,12.103 4.968,12.090 C4.965,12.090 4.962,12.090 4.960,12.090 C4.957,12.074 4.955,12.059 4.952,12.043 C4.949,12.043 4.947,12.043 4.944,12.043 C4.942,12.022 4.939,12.001 4.936,11.980 C4.934,11.980 4.931,11.980 4.929,11.980 C4.926,11.907 4.923,11.834 4.921,11.760 C4.921,11.619 4.921,11.478 4.921,11.336 C4.921,10.020 4.921,8.704 4.921,7.388 Z"/>
</svg>