<svg
        xmlns="http://www.w3.org/2000/svg"
        xmlns:xlink="http://www.w3.org/1999/xlink"
        width="70px" height="66px">
    <path fill-rule="evenodd"  fill="rgb(20, 129, 243)"
          d="M39.731,0.000 C39.909,1.107 39.891,4.158 39.731,5.271 C37.967,5.271 36.203,5.271 34.439,5.271 C34.439,7.028 34.439,8.785 34.439,10.542 C36.659,10.523 38.380,11.140 39.731,11.993 C39.834,12.019 39.936,12.044 40.038,12.069 C40.038,12.095 40.038,12.120 40.038,12.146 C40.115,12.171 40.191,12.197 40.268,12.222 C40.294,12.273 40.319,12.324 40.345,12.375 C40.396,12.375 40.447,12.375 40.498,12.375 C40.524,12.426 40.549,12.477 40.575,12.528 C40.652,12.553 40.728,12.579 40.805,12.604 C40.882,12.706 40.958,12.808 41.035,12.910 C41.086,12.910 41.137,12.910 41.189,12.910 C41.316,13.062 41.444,13.215 41.572,13.368 C41.623,13.368 41.674,13.368 41.726,13.368 C41.828,13.495 41.930,13.623 42.032,13.750 C42.083,13.775 42.135,13.801 42.186,13.826 C42.211,13.903 42.237,13.979 42.262,14.056 C42.416,14.183 42.569,14.310 42.723,14.438 C42.723,14.488 42.723,14.539 42.723,14.590 C42.799,14.641 42.876,14.692 42.953,14.743 C42.953,14.794 42.953,14.845 42.953,14.896 C43.029,14.947 43.106,14.998 43.183,15.049 C43.183,15.100 43.183,15.150 43.183,15.201 C43.234,15.227 43.285,15.252 43.336,15.278 C43.362,15.354 43.387,15.431 43.413,15.507 C43.438,15.507 43.464,15.507 43.490,15.507 C43.515,15.609 43.541,15.711 43.566,15.813 C43.617,15.838 43.669,15.863 43.720,15.889 C43.745,15.991 43.771,16.093 43.796,16.194 C43.822,16.194 43.848,16.194 43.873,16.194 C43.924,16.347 43.975,16.500 44.027,16.653 C44.052,16.653 44.078,16.653 44.103,16.653 C44.103,16.729 44.103,16.806 44.103,16.882 C44.129,16.882 44.154,16.882 44.180,16.882 C44.206,16.984 44.231,17.086 44.257,17.187 C44.282,17.187 44.308,17.187 44.333,17.187 C44.333,17.264 44.333,17.340 44.333,17.417 C44.466,17.748 44.631,18.008 44.640,18.486 C39.911,18.486 35.180,18.486 30.450,18.486 C29.044,18.486 27.638,18.486 26.232,18.486 C25.612,18.486 24.724,18.586 24.238,18.410 C24.314,18.206 24.391,18.002 24.468,17.799 C24.468,17.722 24.468,17.646 24.468,17.569 C24.493,17.569 24.519,17.569 24.544,17.569 C24.544,17.519 24.544,17.468 24.544,17.417 C24.570,17.417 24.596,17.417 24.621,17.417 C24.621,17.340 24.621,17.264 24.621,17.187 C24.647,17.187 24.672,17.187 24.698,17.187 C24.698,17.137 24.698,17.086 24.698,17.035 C24.723,17.035 24.749,17.035 24.775,17.035 C24.775,16.958 24.775,16.882 24.775,16.806 C24.800,16.806 24.826,16.806 24.851,16.806 C24.902,16.653 24.953,16.500 25.005,16.347 C25.030,16.347 25.056,16.347 25.081,16.347 C25.081,16.296 25.081,16.245 25.081,16.194 C25.107,16.194 25.132,16.194 25.158,16.194 C25.184,16.093 25.209,15.991 25.235,15.889 C25.286,15.863 25.337,15.838 25.388,15.813 C25.414,15.711 25.439,15.609 25.465,15.507 C25.490,15.507 25.516,15.507 25.542,15.507 C25.567,15.431 25.593,15.354 25.618,15.278 C25.669,15.252 25.721,15.227 25.772,15.201 C25.772,15.150 25.772,15.100 25.772,15.049 C25.848,14.998 25.925,14.947 26.002,14.896 C26.002,14.845 26.002,14.794 26.002,14.743 C26.104,14.667 26.206,14.590 26.309,14.514 C26.309,14.463 26.309,14.412 26.309,14.361 C26.564,14.132 26.820,13.903 27.076,13.674 C27.255,13.470 27.434,13.266 27.612,13.063 C27.664,13.063 27.715,13.063 27.766,13.063 C27.843,12.961 27.919,12.859 27.996,12.757 C28.047,12.757 28.098,12.757 28.149,12.757 C28.201,12.681 28.252,12.604 28.303,12.528 C28.354,12.528 28.405,12.528 28.456,12.528 C28.507,12.451 28.558,12.375 28.610,12.299 C28.661,12.299 28.712,12.299 28.763,12.299 C28.763,12.273 28.763,12.248 28.763,12.222 C28.814,12.222 28.865,12.222 28.916,12.222 C28.942,12.171 28.968,12.120 28.993,12.069 C29.146,12.019 29.300,11.968 29.453,11.917 C29.479,11.866 29.504,11.815 29.530,11.764 C29.632,11.738 29.735,11.713 29.837,11.688 C29.837,11.662 29.837,11.637 29.837,11.611 C29.939,11.586 30.041,11.560 30.144,11.535 C30.144,11.509 30.144,11.484 30.144,11.458 C30.220,11.458 30.297,11.458 30.374,11.458 C30.374,11.433 30.374,11.407 30.374,11.382 C30.425,11.382 30.476,11.382 30.527,11.382 C30.527,11.356 30.527,11.331 30.527,11.306 C30.962,11.178 31.396,11.051 31.831,10.924 C31.831,8.556 31.831,6.187 31.831,3.819 C31.831,3.109 31.691,1.246 31.908,0.764 C31.933,0.764 31.959,0.764 31.984,0.764 C31.984,0.713 31.984,0.662 31.984,0.611 C32.036,0.586 32.087,0.560 32.138,0.535 C32.163,0.458 32.189,0.382 32.215,0.306 C32.266,0.306 32.317,0.306 32.368,0.306 C32.394,0.255 32.419,0.204 32.445,0.153 C32.582,0.063 32.617,0.153 32.751,0.000 C35.078,0.000 37.405,0.000 39.731,0.000 ZM53.077,31.701 C55.736,31.701 58.396,31.701 61.054,31.701 C62.590,31.701 64.443,31.602 65.733,31.854 C65.835,31.981 65.938,32.109 66.040,32.236 C66.065,32.236 66.091,32.236 66.117,32.236 C66.142,32.338 66.168,32.440 66.193,32.542 C66.219,32.542 66.244,32.542 66.270,32.542 C66.270,34.375 66.270,36.209 66.270,38.042 C66.270,42.574 66.270,47.107 66.270,51.639 C66.270,53.497 66.270,55.357 66.270,57.215 C66.244,57.215 66.219,57.215 66.193,57.215 C66.193,57.266 66.193,57.317 66.193,57.368 C66.108,57.531 65.939,57.628 65.810,57.750 C65.784,57.801 65.759,57.852 65.733,57.903 C65.605,57.991 65.559,57.904 65.426,58.056 C50.036,58.056 34.642,58.056 19.252,58.056 C15.494,58.056 11.735,58.056 7.977,58.056 C6.494,58.056 5.011,58.056 3.528,58.056 C3.528,58.030 3.528,58.005 3.528,57.979 C3.477,57.979 3.426,57.979 3.375,57.979 C3.212,57.894 3.114,57.726 2.991,57.597 C2.940,57.572 2.889,57.546 2.838,57.521 C2.749,57.393 2.837,57.347 2.685,57.215 C2.685,50.774 2.685,44.330 2.685,37.889 C2.685,36.514 2.685,35.139 2.685,33.764 C2.685,32.828 2.637,32.052 3.375,31.854 C3.572,31.663 3.981,31.702 4.372,31.701 C5.113,31.701 5.855,31.701 6.596,31.701 C9.690,31.701 12.784,31.701 15.877,31.701 C15.877,29.308 15.877,26.914 15.877,24.521 C15.877,23.899 15.747,22.229 16.031,21.924 C16.259,21.035 17.351,21.083 18.485,21.083 C20.530,21.083 22.576,21.083 24.621,21.083 C30.450,21.083 36.280,21.083 42.109,21.083 C45.482,21.083 49.270,20.936 52.387,21.236 C52.515,21.389 52.643,21.542 52.770,21.694 C52.822,21.720 52.873,21.745 52.924,21.771 C53.186,22.236 53.077,23.917 53.077,24.674 C53.077,27.016 53.077,29.359 53.077,31.701 ZM21.170,47.514 C22.064,47.514 22.959,47.514 23.854,47.514 C23.854,41.352 23.854,35.189 23.854,29.028 C22.985,29.028 22.115,29.028 21.246,29.028 C21.083,29.474 21.170,30.285 21.170,30.861 C21.170,32.109 21.170,33.357 21.170,34.604 C21.170,38.907 21.170,43.211 21.170,47.514 ZM29.146,47.514 C30.041,47.514 30.936,47.514 31.831,47.514 C31.831,41.352 31.831,35.189 31.831,29.028 C30.962,29.028 30.092,29.028 29.223,29.028 C29.060,29.474 29.146,30.285 29.146,30.861 C29.146,32.109 29.146,33.357 29.146,34.604 C29.146,38.907 29.146,43.211 29.146,47.514 ZM37.123,29.028 C37.123,35.189 37.123,41.352 37.123,47.514 C38.018,47.514 38.913,47.514 39.808,47.514 C39.808,41.378 39.808,35.240 39.808,29.104 C39.222,28.889 37.877,29.024 37.123,29.028 ZM45.100,29.028 C45.100,35.189 45.100,41.352 45.100,47.514 C45.970,47.514 46.839,47.514 47.708,47.514 C47.739,47.230 47.585,46.188 47.708,45.757 C47.734,45.757 47.759,45.757 47.785,45.757 C47.785,45.299 47.785,44.840 47.785,44.382 C47.759,44.382 47.734,44.382 47.708,44.382 C47.708,44.356 47.708,44.331 47.708,44.306 C47.734,44.306 47.759,44.306 47.785,44.306 C47.785,44.280 47.785,44.255 47.785,44.229 C47.759,44.229 47.734,44.229 47.708,44.229 C47.689,44.123 47.770,44.260 47.785,44.153 C47.759,44.102 47.734,44.051 47.708,44.000 C47.734,44.000 47.759,44.000 47.785,44.000 C47.785,43.975 47.785,43.949 47.785,43.924 C47.759,43.924 47.734,43.924 47.708,43.924 C47.708,43.516 47.708,43.109 47.708,42.701 C47.734,42.701 47.759,42.701 47.785,42.701 C47.785,42.243 47.785,41.785 47.785,41.326 C47.759,41.326 47.734,41.326 47.708,41.326 C47.708,41.301 47.708,41.275 47.708,41.250 C47.734,41.250 47.759,41.250 47.785,41.250 C47.785,41.225 47.785,41.199 47.785,41.174 C47.759,41.174 47.734,41.174 47.708,41.174 C47.708,41.148 47.708,41.123 47.708,41.097 C47.734,41.097 47.759,41.097 47.785,41.097 C47.759,41.046 47.734,40.995 47.708,40.944 C47.734,40.944 47.759,40.944 47.785,40.944 C47.785,40.919 47.785,40.894 47.785,40.868 C47.759,40.868 47.734,40.868 47.708,40.868 C47.708,40.461 47.708,40.053 47.708,39.646 C47.734,39.646 47.759,39.646 47.785,39.646 C47.785,39.188 47.785,38.729 47.785,38.271 C47.759,38.271 47.734,38.271 47.708,38.271 C47.685,38.165 47.769,38.301 47.785,38.194 C47.801,38.088 47.727,38.224 47.708,38.118 C47.708,38.093 47.708,38.067 47.708,38.042 C47.734,38.042 47.759,38.042 47.785,38.042 C47.759,37.991 47.734,37.940 47.708,37.889 C47.734,37.889 47.759,37.889 47.785,37.889 C47.785,37.863 47.785,37.838 47.785,37.813 C47.759,37.813 47.734,37.813 47.708,37.813 C47.708,37.405 47.708,36.998 47.708,36.590 C47.734,36.590 47.759,36.590 47.785,36.590 C47.785,36.132 47.785,35.674 47.785,35.215 C47.759,35.215 47.734,35.215 47.708,35.215 C47.708,35.190 47.708,35.164 47.708,35.139 C47.734,35.139 47.759,35.139 47.785,35.139 C47.801,35.032 47.727,35.169 47.708,35.063 C47.689,34.956 47.770,35.093 47.785,34.986 C47.759,34.935 47.734,34.884 47.708,34.833 C47.734,34.833 47.759,34.833 47.785,34.833 C47.801,34.726 47.735,34.862 47.708,34.757 C47.596,34.325 47.757,33.707 47.785,33.382 C47.759,32.644 47.734,31.905 47.708,31.167 C47.708,30.638 47.913,29.296 47.708,29.104 C47.570,28.981 47.198,29.028 46.941,29.028 C46.328,29.028 45.714,29.028 45.100,29.028 ZM5.292,36.972 C5.292,38.729 5.292,40.486 5.292,42.243 C6.187,42.243 7.082,42.243 7.977,42.243 C7.977,40.486 7.977,38.729 7.977,36.972 C7.082,36.972 6.187,36.972 5.292,36.972 ZM10.585,36.972 C10.585,38.729 10.585,40.486 10.585,42.243 C11.480,42.243 12.375,42.243 13.269,42.243 C13.269,40.486 13.269,38.729 13.269,36.972 C12.375,36.972 11.480,36.972 10.585,36.972 ZM55.685,36.972 C55.685,38.729 55.685,40.486 55.685,42.243 C56.580,42.243 57.475,42.243 58.370,42.243 C58.370,40.486 58.370,38.729 58.370,36.972 C57.475,36.972 56.580,36.972 55.685,36.972 ZM60.978,36.972 C60.978,38.729 60.978,40.486 60.978,42.243 C61.872,42.243 62.767,42.243 63.662,42.243 C63.662,40.486 63.662,38.729 63.662,36.972 C62.767,36.972 61.872,36.972 60.978,36.972 ZM5.292,50.187 C6.187,50.187 7.082,50.187 7.977,50.187 C7.977,48.431 7.977,46.673 7.977,44.917 C7.338,44.917 6.699,44.917 6.059,44.917 C5.786,44.917 5.540,44.909 5.369,44.840 C5.369,44.866 5.369,44.891 5.369,44.917 C5.182,45.129 5.292,45.929 5.292,46.292 C5.292,47.590 5.292,48.889 5.292,50.187 ZM55.685,44.917 C55.685,46.673 55.685,48.431 55.685,50.187 C56.580,50.187 57.475,50.187 58.370,50.187 C58.370,48.991 58.370,47.794 58.370,46.597 C58.370,46.043 58.450,45.266 58.293,44.840 C57.985,44.955 57.191,44.998 56.759,44.917 C56.759,44.891 56.759,44.866 56.759,44.840 C56.733,44.840 56.708,44.840 56.682,44.840 C56.682,44.866 56.682,44.891 56.682,44.917 C56.350,44.917 56.017,44.917 55.685,44.917 ZM60.978,44.917 C60.978,46.673 60.978,48.431 60.978,50.187 C61.872,50.187 62.767,50.187 63.662,50.187 C63.662,48.431 63.662,46.673 63.662,44.917 C62.770,44.919 62.008,44.919 60.978,44.917 ZM10.585,44.917 C10.585,46.673 10.585,48.431 10.585,50.187 C11.480,50.187 12.375,50.187 13.269,50.187 C13.269,48.431 13.269,46.673 13.269,44.917 C12.375,44.917 11.480,44.917 10.585,44.917 ZM0.997,60.729 C18.662,60.729 36.333,60.729 53.998,60.729 C57.449,60.729 60.901,60.729 64.352,60.729 C65.247,60.729 66.142,60.729 67.037,60.729 C67.506,60.729 68.059,60.698 68.341,60.882 C68.392,60.958 68.443,61.035 68.494,61.111 C68.597,61.187 68.699,61.264 68.801,61.340 C69.125,61.836 68.954,63.106 68.954,63.861 C68.954,64.288 69.015,64.932 68.878,65.236 C68.852,65.236 68.827,65.236 68.801,65.236 C68.801,65.287 68.801,65.338 68.801,65.389 C68.750,65.414 68.699,65.440 68.648,65.465 C68.622,65.542 68.597,65.618 68.571,65.694 C68.520,65.694 68.469,65.694 68.418,65.694 C68.392,65.745 68.366,65.796 68.341,65.847 C68.203,65.937 68.169,65.848 68.034,66.000 C52.874,66.000 37.710,66.000 22.550,66.000 C17.770,66.000 12.988,66.000 8.207,66.000 C5.778,66.000 3.349,66.000 0.920,66.000 C0.920,65.975 0.920,65.949 0.920,65.924 C0.767,65.873 0.614,65.822 0.460,65.771 C0.307,65.542 0.153,65.312 0.000,65.083 C0.000,64.752 0.000,64.421 0.000,64.090 C0.000,63.301 0.000,62.511 0.000,61.722 C0.026,61.722 0.051,61.722 0.077,61.722 C0.102,61.595 0.128,61.468 0.153,61.340 C0.307,61.213 0.460,61.086 0.614,60.958 C0.614,60.933 0.614,60.907 0.614,60.882 C0.741,60.856 0.869,60.831 0.997,60.806 C0.997,60.780 0.997,60.755 0.997,60.729 Z"/>
</svg>
