<svg
        xmlns="http://www.w3.org/2000/svg"
        xmlns:xlink="http://www.w3.org/1999/xlink"
        width="74px" height="66px">
    <path fill-rule="evenodd"  fill="rgb(19, 129, 243)"
          d="M64.027,36.193 C64.635,36.063 65.013,35.717 65.473,35.473 C65.569,35.473 65.665,35.473 65.762,35.473 C65.762,35.425 65.762,35.377 65.762,35.329 C66.051,35.233 66.340,35.137 66.629,35.041 C66.629,34.993 66.629,34.945 66.629,34.897 C66.725,34.897 66.822,34.897 66.918,34.897 C66.918,34.849 66.918,34.801 66.918,34.753 C67.111,34.705 67.303,34.657 67.496,34.609 C67.496,34.561 67.496,34.513 67.496,34.465 C67.689,34.417 67.882,34.369 68.074,34.321 C68.074,34.273 68.074,34.225 68.074,34.177 C68.171,34.177 68.267,34.177 68.363,34.177 C68.363,34.129 68.363,34.081 68.363,34.033 C68.460,34.033 68.556,34.033 68.652,34.033 C68.652,33.985 68.652,33.937 68.652,33.889 C68.749,33.889 68.845,33.889 68.941,33.889 C68.941,33.841 68.941,33.793 68.941,33.745 C69.038,33.745 69.134,33.745 69.230,33.745 C69.230,33.697 69.230,33.649 69.230,33.601 C69.327,33.601 69.423,33.601 69.520,33.601 C69.520,33.553 69.520,33.505 69.520,33.457 C69.809,33.361 70.098,33.265 70.387,33.169 C71.024,32.830 71.804,32.091 72.844,32.593 C72.940,32.593 73.036,32.593 73.133,32.593 C73.133,32.641 73.133,32.689 73.133,32.737 C73.374,32.929 73.615,33.121 73.855,33.313 C73.855,33.457 73.855,33.601 73.855,33.745 C73.904,33.745 73.952,33.745 74.000,33.745 C74.000,36.048 74.000,38.353 74.000,40.657 C74.000,45.888 74.000,51.121 74.000,56.352 C74.000,59.088 74.000,61.824 74.000,64.560 C73.952,64.560 73.904,64.560 73.855,64.560 C73.855,64.704 73.855,64.848 73.855,64.992 C73.807,64.992 73.759,64.992 73.711,64.992 C73.663,65.136 73.615,65.280 73.566,65.424 C73.422,65.472 73.277,65.520 73.133,65.568 C73.133,65.616 73.133,65.664 73.133,65.712 C73.036,65.712 72.940,65.712 72.844,65.712 C72.844,65.760 72.844,65.808 72.844,65.856 C72.651,65.856 72.458,65.856 72.266,65.856 C72.266,65.904 72.266,65.952 72.266,66.000 C67.208,66.000 62.148,66.000 57.090,66.000 C46.685,66.000 36.276,66.000 25.871,66.000 C20.668,66.000 15.464,66.000 10.262,66.000 C7.420,66.000 4.577,66.000 1.734,66.000 C1.734,65.952 1.734,65.904 1.734,65.856 C1.542,65.856 1.349,65.856 1.156,65.856 C1.156,65.808 1.156,65.760 1.156,65.712 C1.060,65.712 0.964,65.712 0.867,65.712 C0.867,65.664 0.867,65.616 0.867,65.568 C0.723,65.520 0.578,65.472 0.434,65.424 C0.385,65.280 0.337,65.136 0.289,64.992 C0.241,64.992 0.193,64.992 0.145,64.992 C0.145,64.848 0.145,64.704 0.145,64.560 C0.096,64.560 0.048,64.560 0.000,64.560 C0.000,61.584 0.000,58.608 0.000,55.632 C0.000,51.265 0.000,46.896 0.000,42.529 C0.048,42.529 0.096,42.529 0.145,42.529 C0.145,42.385 0.145,42.241 0.145,42.097 C0.193,42.097 0.241,42.097 0.289,42.097 C0.337,41.953 0.385,41.809 0.434,41.665 C0.880,41.564 1.105,41.272 1.445,41.089 C1.542,41.089 1.638,41.089 1.734,41.089 C1.734,41.041 1.734,40.993 1.734,40.945 C2.023,40.849 2.313,40.753 2.602,40.657 C2.602,40.609 2.602,40.561 2.602,40.513 C2.794,40.465 2.987,40.417 3.180,40.369 C3.180,40.321 3.180,40.273 3.180,40.225 C3.372,40.177 3.565,40.129 3.758,40.081 C3.758,40.033 3.758,39.985 3.758,39.937 C3.854,39.937 3.951,39.937 4.047,39.937 C4.047,39.889 4.047,39.841 4.047,39.793 C4.143,39.793 4.240,39.793 4.336,39.793 C4.336,39.745 4.336,39.697 4.336,39.649 C4.432,39.649 4.529,39.649 4.625,39.649 C4.625,39.601 4.625,39.553 4.625,39.505 C4.721,39.505 4.818,39.505 4.914,39.505 C4.914,39.457 4.914,39.409 4.914,39.361 C5.010,39.361 5.107,39.361 5.203,39.361 C5.203,39.313 5.203,39.265 5.203,39.217 C5.299,39.217 5.396,39.217 5.492,39.217 C5.492,39.169 5.492,39.121 5.492,39.073 C5.589,39.073 5.685,39.073 5.781,39.073 C5.781,39.025 5.781,38.977 5.781,38.929 C5.878,38.929 5.974,38.929 6.070,38.929 C6.070,38.881 6.070,38.833 6.070,38.785 C6.167,38.785 6.263,38.785 6.359,38.785 C6.359,38.737 6.359,38.689 6.359,38.641 C6.456,38.641 6.552,38.641 6.648,38.641 C6.648,38.593 6.648,38.545 6.648,38.497 C6.745,38.497 6.841,38.497 6.937,38.497 C6.937,38.449 6.937,38.401 6.937,38.353 C7.034,38.353 7.130,38.353 7.227,38.353 C7.227,38.305 7.227,38.257 7.227,38.209 C7.323,38.209 7.419,38.209 7.516,38.209 C7.516,38.161 7.516,38.113 7.516,38.065 C7.612,38.065 7.708,38.065 7.805,38.065 C7.805,38.017 7.805,37.969 7.805,37.921 C7.901,37.921 7.997,37.921 8.094,37.921 C8.094,37.873 8.094,37.825 8.094,37.777 C8.190,37.777 8.286,37.777 8.383,37.777 C8.383,37.729 8.383,37.681 8.383,37.633 C8.479,37.633 8.576,37.633 8.672,37.633 C8.672,37.585 8.672,37.537 8.672,37.489 C8.768,37.489 8.865,37.489 8.961,37.489 C8.961,37.441 8.961,37.393 8.961,37.345 C9.057,37.345 9.154,37.345 9.250,37.345 C9.250,37.297 9.250,37.249 9.250,37.201 C9.539,37.105 9.828,37.009 10.117,36.913 C10.117,36.865 10.117,36.817 10.117,36.769 C10.406,36.673 10.695,36.577 10.984,36.481 C10.984,36.433 10.984,36.385 10.984,36.337 C11.177,36.289 11.370,36.241 11.562,36.193 C11.562,36.145 11.562,36.097 11.562,36.049 C11.755,36.001 11.948,35.953 12.141,35.905 C12.141,35.857 12.141,35.809 12.141,35.761 C12.237,35.761 12.333,35.761 12.430,35.761 C12.430,35.713 12.430,35.665 12.430,35.617 C12.526,35.617 12.622,35.617 12.719,35.617 C12.719,35.569 12.719,35.521 12.719,35.473 C12.815,35.473 12.911,35.473 13.008,35.473 C13.008,35.425 13.008,35.377 13.008,35.329 C13.104,35.329 13.201,35.329 13.297,35.329 C13.297,35.281 13.297,35.233 13.297,35.185 C13.393,35.185 13.490,35.185 13.586,35.185 C13.586,35.137 13.586,35.089 13.586,35.041 C13.682,35.041 13.779,35.041 13.875,35.041 C13.875,34.993 13.875,34.945 13.875,34.897 C13.971,34.897 14.068,34.897 14.164,34.897 C14.164,34.849 14.164,34.801 14.164,34.753 C14.260,34.753 14.357,34.753 14.453,34.753 C14.453,34.705 14.453,34.657 14.453,34.609 C14.549,34.609 14.646,34.609 14.742,34.609 C14.742,34.561 14.742,34.513 14.742,34.465 C14.839,34.465 14.935,34.465 15.031,34.465 C15.031,34.417 15.031,34.369 15.031,34.321 C15.224,34.273 15.417,34.225 15.609,34.177 C15.609,34.129 15.609,34.081 15.609,34.033 C15.802,33.985 15.995,33.937 16.187,33.889 C16.187,33.841 16.187,33.793 16.187,33.745 C16.284,33.745 16.380,33.745 16.477,33.745 C16.477,33.697 16.477,33.649 16.477,33.601 C16.573,33.601 16.669,33.601 16.766,33.601 C16.766,33.553 16.766,33.505 16.766,33.457 C16.862,33.457 16.958,33.457 17.055,33.457 C17.055,33.409 17.055,33.361 17.055,33.313 C17.151,33.313 17.247,33.313 17.344,33.313 C17.344,33.265 17.344,33.217 17.344,33.169 C17.536,33.121 17.729,33.073 17.922,33.025 C17.922,32.977 17.922,32.929 17.922,32.881 C18.211,32.785 18.500,32.689 18.789,32.593 C18.789,32.545 18.789,32.497 18.789,32.449 C19.319,32.497 19.849,32.545 20.379,32.593 C20.379,32.641 20.379,32.689 20.379,32.737 C20.913,33.136 20.815,33.113 21.102,33.745 C21.150,33.745 21.198,33.745 21.246,33.745 C21.246,35.808 21.246,37.873 21.246,39.937 C21.845,39.822 22.240,39.458 22.691,39.217 C22.788,39.217 22.884,39.217 22.980,39.217 C22.980,39.169 22.980,39.121 22.980,39.073 C23.270,38.977 23.559,38.881 23.848,38.785 C23.848,38.737 23.848,38.689 23.848,38.641 C24.040,38.593 24.233,38.545 24.426,38.497 C24.426,38.449 24.426,38.401 24.426,38.353 C24.715,38.257 25.004,38.161 25.293,38.065 C25.293,38.017 25.293,37.969 25.293,37.921 C25.486,37.873 25.678,37.825 25.871,37.777 C25.871,37.729 25.871,37.681 25.871,37.633 C26.064,37.585 26.257,37.537 26.449,37.489 C26.449,37.441 26.449,37.393 26.449,37.345 C26.546,37.345 26.642,37.345 26.738,37.345 C26.738,37.297 26.738,37.249 26.738,37.201 C26.835,37.201 26.931,37.201 27.027,37.201 C27.027,37.153 27.027,37.105 27.027,37.057 C27.124,37.057 27.220,37.057 27.316,37.057 C27.316,37.009 27.316,36.961 27.316,36.913 C27.413,36.913 27.509,36.913 27.605,36.913 C27.605,36.865 27.605,36.817 27.605,36.769 C27.702,36.769 27.798,36.769 27.895,36.769 C27.895,36.721 27.895,36.673 27.895,36.625 C28.184,36.529 28.473,36.433 28.762,36.337 C28.762,36.289 28.762,36.241 28.762,36.193 C28.858,36.193 28.954,36.193 29.051,36.193 C29.051,36.145 29.051,36.097 29.051,36.049 C29.147,36.049 29.243,36.049 29.340,36.049 C29.340,36.001 29.340,35.953 29.340,35.905 C29.436,35.905 29.533,35.905 29.629,35.905 C29.629,35.857 29.629,35.809 29.629,35.761 C29.725,35.761 29.822,35.761 29.918,35.761 C30.549,35.425 31.155,34.937 31.941,34.753 C31.941,28.801 31.941,22.848 31.941,16.897 C31.990,16.897 32.038,16.897 32.086,16.897 C32.086,16.705 32.086,16.513 32.086,16.321 C32.134,16.321 32.182,16.321 32.230,16.321 C32.230,16.225 32.230,16.129 32.230,16.033 C32.279,16.033 32.327,16.033 32.375,16.033 C32.423,15.889 32.471,15.745 32.520,15.601 C32.664,15.553 32.809,15.505 32.953,15.457 C32.953,15.409 32.953,15.361 32.953,15.313 C33.098,15.313 33.242,15.313 33.387,15.313 C33.387,15.265 33.387,15.217 33.387,15.169 C33.724,15.169 34.061,15.169 34.398,15.169 C35.632,15.165 36.988,15.217 38.012,15.313 C38.301,15.649 38.590,15.985 38.879,16.321 C38.879,24.192 38.879,32.066 38.879,39.937 C39.478,39.822 39.872,39.458 40.324,39.217 C40.421,39.217 40.517,39.217 40.613,39.217 C40.613,39.169 40.613,39.121 40.613,39.073 C40.710,39.073 40.806,39.073 40.902,39.073 C40.902,39.025 40.902,38.977 40.902,38.929 C40.999,38.929 41.095,38.929 41.191,38.929 C41.191,38.881 41.191,38.833 41.191,38.785 C41.288,38.785 41.384,38.785 41.480,38.785 C41.480,38.737 41.480,38.689 41.480,38.641 C41.577,38.641 41.673,38.641 41.770,38.641 C41.770,38.593 41.770,38.545 41.770,38.497 C41.962,38.449 42.155,38.401 42.348,38.353 C42.348,38.305 42.348,38.257 42.348,38.209 C42.637,38.113 42.926,38.017 43.215,37.921 C43.215,37.873 43.215,37.825 43.215,37.777 C43.504,37.681 43.793,37.585 44.082,37.489 C44.082,37.441 44.082,37.393 44.082,37.345 C44.275,37.297 44.467,37.249 44.660,37.201 C44.660,37.153 44.660,37.105 44.660,37.057 C44.853,37.009 45.046,36.961 45.238,36.913 C45.238,36.865 45.238,36.817 45.238,36.769 C45.335,36.769 45.431,36.769 45.527,36.769 C45.527,36.721 45.527,36.673 45.527,36.625 C45.624,36.625 45.720,36.625 45.816,36.625 C45.816,36.577 45.816,36.529 45.816,36.481 C45.913,36.481 46.009,36.481 46.105,36.481 C46.105,36.433 46.105,36.385 46.105,36.337 C46.202,36.337 46.298,36.337 46.395,36.337 C46.395,36.289 46.395,36.241 46.395,36.193 C46.491,36.193 46.587,36.193 46.684,36.193 C46.684,36.145 46.684,36.097 46.684,36.049 C46.780,36.049 46.876,36.049 46.973,36.049 C46.973,36.001 46.973,35.953 46.973,35.905 C47.069,35.905 47.165,35.905 47.262,35.905 C47.262,35.857 47.262,35.809 47.262,35.761 C47.358,35.761 47.454,35.761 47.551,35.761 C47.551,35.713 47.551,35.665 47.551,35.617 C47.647,35.617 47.743,35.617 47.840,35.617 C47.840,35.569 47.840,35.521 47.840,35.473 C47.936,35.473 48.033,35.473 48.129,35.473 C48.129,35.425 48.129,35.377 48.129,35.329 C48.225,35.329 48.322,35.329 48.418,35.329 C48.418,35.281 48.418,35.233 48.418,35.185 C48.514,35.185 48.611,35.185 48.707,35.185 C48.707,35.137 48.707,35.089 48.707,35.041 C48.803,35.041 48.900,35.041 48.996,35.041 C49.627,34.705 50.234,34.217 51.020,34.033 C51.068,31.633 51.116,29.233 51.164,26.833 C51.164,25.337 50.959,23.323 51.309,22.081 C51.309,21.601 51.309,21.121 51.309,20.641 C51.309,19.145 51.103,17.132 51.453,15.889 C51.453,15.409 51.453,14.929 51.453,14.449 C51.454,12.953 51.248,10.940 51.598,9.697 C51.598,9.217 51.598,8.737 51.598,8.257 C51.598,6.761 51.392,4.748 51.742,3.505 C51.930,2.840 51.499,1.788 51.887,1.345 C51.935,1.201 51.983,1.057 52.031,0.913 C52.079,0.913 52.128,0.913 52.176,0.913 C52.176,0.817 52.176,0.721 52.176,0.625 C52.320,0.577 52.465,0.529 52.609,0.481 C52.658,0.386 52.706,0.289 52.754,0.193 C52.995,0.193 53.236,0.193 53.477,0.193 C53.839,-0.129 55.156,0.050 55.789,0.049 C58.031,0.049 60.629,-0.018 62.438,0.337 C62.582,0.529 62.727,0.722 62.871,0.913 C62.919,0.913 62.967,0.913 63.016,0.913 C63.064,1.105 63.112,1.297 63.160,1.489 C63.208,1.489 63.257,1.489 63.305,1.489 C63.353,5.185 63.401,8.882 63.449,12.577 C63.799,13.820 63.593,15.833 63.594,17.329 C63.594,17.809 63.594,18.289 63.594,18.769 C63.943,20.012 63.738,22.025 63.738,23.521 C63.738,24.001 63.738,24.481 63.738,24.961 C64.065,26.122 63.883,28.014 63.883,29.425 C63.931,31.681 63.979,33.937 64.027,36.193 ZM7.805,51.312 C7.805,53.568 7.805,55.824 7.805,58.080 C8.880,58.475 11.333,58.231 12.719,58.224 C12.719,55.920 12.719,53.616 12.719,51.312 C11.081,51.312 9.443,51.312 7.805,51.312 ZM21.246,51.312 C21.246,53.616 21.246,55.920 21.246,58.224 C22.836,58.224 24.426,58.224 26.016,58.224 C26.220,57.671 26.160,56.694 26.160,55.920 C26.160,54.384 26.160,52.848 26.160,51.312 C24.522,51.312 22.884,51.312 21.246,51.312 ZM34.543,51.312 C34.543,53.616 34.543,55.920 34.543,58.224 C36.133,58.224 37.723,58.224 39.312,58.224 C39.517,57.671 39.457,56.694 39.457,55.920 C39.457,54.384 39.457,52.848 39.457,51.312 C37.819,51.312 36.181,51.312 34.543,51.312 ZM47.840,51.312 C47.840,53.616 47.840,55.920 47.840,58.224 C49.478,58.224 51.116,58.224 52.754,58.224 C52.754,55.920 52.754,53.616 52.754,51.312 C51.116,51.312 49.478,51.312 47.840,51.312 Z"/>
</svg>
