<?xml version="1.0" encoding="utf-8"?>
<!-- Generator: Adobe Illustrator 21.0.0, SVG Export Plug-In . SVG Version: 6.00 Build 0)  -->
<svg version="1.1" id="Layer_1" xmlns="http://www.w3.org/2000/svg" xmlns:xlink="http://www.w3.org/1999/xlink" x="0px" y="0px"
	 viewBox="0 0 120 600" style="enable-background:new 0 0 120 600;" xml:space="preserve">
<style type="text/css">
	.st0{fill:#FFFFFF;}
</style>
<g>
	<path d="M-84.3,196.9c-0.5-79.5,64.9-145,144.8-145.2C141,51.5,206,116.3,206.2,196.9c0.2,79.9-64.2,144.7-144.5,145.4
		C-18.7,342.9-83.8,278-84.3,196.9z M110.9,221c1.9-16.3,2-32.1,0-48.2c-33.6,6.2-66.5,6.1-99.3,0.1c-2.7,9.7-2.5,40.3,0.2,48
		C44.6,214.9,77.5,215.1,110.9,221z M105.7,249c-30-5.6-59.4-5.7-88.9,0c3.1,16.9,14.8,38.2,25.9,47.7c12.1,10.4,24.5,10.6,36.4,0.1
		C93.3,284.2,100.1,267.4,105.7,249z M16.3,144.9c30,5.6,59.3,5.7,88.7,0.1c-0.8-9.1-9-27.9-16.8-37.9c-3.6-4.5-7.7-8.9-12.2-12.3
		c-9.9-7.5-20.1-7.5-30,0C29.4,107.2,22.4,125.5,16.3,144.9z M-48.2,238.8c9.9-3.5,19.2-6.7,28.3-10.2c1.3-0.5,2.8-2.9,2.6-4.2
		c-2.2-18.3-2.2-36.5,0-54.8c0.1-1.2-0.7-3.5-1.7-3.8c-9.6-3.6-19.3-7-29.3-10.6C-58.7,183.2-58.7,210.8-48.2,238.8z M138.8,166.5
		c2.6,19.6,2.8,39,0.3,58.4c-0.1,1,0.9,2.9,1.8,3.3c9.6,3.6,19.2,7,29.2,10.6c10.6-28.1,10.6-55.8-0.1-83.8
		C159.5,158.9,149.4,162.6,138.8,166.5z M134.4,138c6.7-2.5,14.2-5.2,22.1-8.2c-11.4-16.1-25.3-28.1-41.9-36.5
		C121.2,108,127.7,122.7,134.4,138z M-12.4,138c6.8-15.5,13.3-30.2,19.8-44.8c-16.5,8.6-30.4,20.5-41.9,36.6
		C-26.6,132.7-19.2,135.5-12.4,138z M7.3,300.7c-6.5-14.8-13-29.6-19.7-44.8c-6.9,2.6-14.2,5.3-22.2,8.3
		C-23,280.3-9.2,292.2,7.3,300.7z M134.4,256c-6.8,15.4-13.3,30.2-19.7,44.8c16.5-8.6,30.5-20.6,41.9-36.6
		C148.6,261.2,141.3,258.5,134.4,256z"/>
	<path d="M61,435.3c8.9-8.1,17.5-16,26-23.9c11.8-10.8,23.5-21.7,35.3-32.4c7.4-6.7,15.9-7,21.7-0.9c6,6.4,5,14.8-2.7,21.8
		c-14.8,13.7-29.8,27.2-44.4,41c-2.2,2.1-4.1,5.3-4.7,8.3c-5.6,32.1-11,64.3-16.3,96.4c-0.6,3.6-1.8,4.8-5.4,4.7
		c-6.7-0.2-13.3-0.1-20,0c-2.8,0-4.1-0.8-4.6-3.8c-5.2-32-10.6-64-15.8-96c-0.6-3.9-2-7-5.1-9.8C9.9,427-5.1,413.1-20.3,399.3
		c-4.6-4.2-6.8-9.1-5.1-15.2c2.9-10.4,15.3-13.8,23.6-6.3C15,393,31.6,408.4,48.3,423.7C52.3,427.4,56.4,431.1,61,435.3z"/>
	<path d="M61.1,359c12.2,0,21.8,9.7,21.7,21.9c0,12-10.1,22-22.1,21.8c-12.1-0.1-21.8-10-21.7-22.1C39.2,368.3,48.8,358.9,61.1,359z
		"/>
	<path class="st0" d="M110.9,221c-33.4-5.9-66.3-6.1-99.1-0.1c-2.7-7.7-2.9-38.3-0.2-48c32.8,6,65.7,6.1,99.3-0.1
		C112.9,189,112.8,204.8,110.9,221z"/>
	<path class="st0" d="M105.7,249c-5.6,18.3-12.3,35.2-26.6,47.8c-11.9,10.5-24.3,10.3-36.4-0.1c-11.1-9.6-22.8-30.9-25.9-47.7
		C46.3,243.3,75.7,243.4,105.7,249z"/>
	<path class="st0" d="M16.3,144.9c6.1-19.5,13.1-37.7,29.7-50.1c9.9-7.4,20.1-7.4,30,0c4.6,3.5,8.7,7.8,12.2,12.3
		c7.8,10,16,28.8,16.8,37.9C75.6,150.6,46.3,150.6,16.3,144.9z"/>
	<path class="st0" d="M-48.2,238.8c-10.5-28-10.6-55.7,0-83.6c10,3.6,19.7,6.9,29.3,10.6c0.9,0.4,1.8,2.6,1.7,3.8
		c-2.2,18.3-2.2,36.5,0,54.8c0.2,1.3-1.4,3.7-2.6,4.2C-29,232.1-38.3,235.3-48.2,238.8z"/>
	<path class="st0" d="M138.8,166.5c10.6-3.9,20.7-7.6,31.3-11.5c10.7,27.9,10.6,55.7,0.1,83.8c-10-3.6-19.7-7-29.2-10.6
		c-0.9-0.3-2-2.2-1.8-3.3C141.6,205.6,141.3,186.2,138.8,166.5z"/>
	<path class="st0" d="M134.4,138c-6.7-15.3-13.2-30-19.7-44.7c16.5,8.4,30.4,20.5,41.9,36.5C148.6,132.7,141.2,135.5,134.4,138z"/>
	<path class="st0" d="M-12.4,138c-6.8-2.5-14.2-5.3-22.1-8.3c11.5-16.1,25.4-28,41.9-36.6C0.9,107.8-5.6,122.5-12.4,138z"/>
	<path class="st0" d="M7.3,300.7c-16.4-8.5-30.3-20.4-41.8-36.5c7.9-3,15.3-5.7,22.2-8.3C-5.7,271.1,0.7,285.9,7.3,300.7z"/>
	<path class="st0" d="M134.4,256c6.9,2.5,14.2,5.2,22.2,8.2c-11.5,16-25.4,28-41.9,36.6C121.1,286.1,127.6,271.4,134.4,256z"/>
</g>
</svg>
