<svg
        xmlns="http://www.w3.org/2000/svg"
        xmlns:xlink="http://www.w3.org/1999/xlink"
        width="43px" height="71px">
    <path fill-rule="evenodd"  fill="rgb(19, 129, 243)"
          d="M19.479,0.042 C21.091,0.021 23.099,-0.112 24.384,0.250 C24.846,0.285 25.309,0.320 25.771,0.354 C25.771,0.389 25.771,0.424 25.771,0.458 C26.091,0.493 26.411,0.528 26.730,0.562 C26.730,0.597 26.730,0.632 26.730,0.667 C26.837,0.667 26.944,0.667 27.050,0.667 C27.050,0.701 27.050,0.736 27.050,0.771 C27.157,0.771 27.264,0.771 27.370,0.771 C27.370,0.805 27.370,0.840 27.370,0.875 C27.477,0.875 27.584,0.875 27.690,0.875 C27.690,0.909 27.690,0.944 27.690,0.979 C27.797,0.979 27.904,0.979 28.010,0.979 C28.010,1.013 28.010,1.048 28.010,1.083 C28.259,1.117 28.508,1.152 28.757,1.187 C28.757,1.221 28.757,1.256 28.757,1.291 C28.828,1.291 28.899,1.291 28.970,1.291 C28.970,1.325 28.970,1.360 28.970,1.395 C29.183,1.430 29.397,1.464 29.610,1.499 C29.610,1.534 29.610,1.568 29.610,1.603 C29.681,1.603 29.752,1.603 29.823,1.603 C29.823,1.638 29.823,1.672 29.823,1.707 C29.930,1.707 30.036,1.707 30.143,1.707 C30.143,1.742 30.143,1.776 30.143,1.811 C30.356,1.880 30.570,1.950 30.783,2.019 C30.783,2.054 30.783,2.088 30.783,2.123 C30.854,2.123 30.925,2.123 30.996,2.123 C30.996,2.158 30.996,2.193 30.996,2.227 C31.209,2.297 31.423,2.366 31.636,2.435 C31.672,2.505 31.707,2.574 31.743,2.643 C31.814,2.643 31.885,2.643 31.956,2.643 C31.956,2.678 31.956,2.713 31.956,2.747 C32.027,2.747 32.098,2.747 32.169,2.747 C32.169,2.782 32.169,2.817 32.169,2.851 C32.240,2.851 32.311,2.851 32.382,2.851 C32.382,2.886 32.382,2.921 32.382,2.955 C32.454,2.955 32.525,2.955 32.596,2.955 C32.596,2.990 32.596,3.025 32.596,3.060 C32.702,3.094 32.809,3.129 32.916,3.164 C32.951,3.233 32.987,3.302 33.022,3.372 C33.093,3.372 33.165,3.372 33.236,3.372 C33.236,3.406 33.236,3.441 33.236,3.476 C33.342,3.510 33.449,3.545 33.556,3.580 C33.591,3.649 33.627,3.718 33.662,3.788 C33.733,3.788 33.804,3.788 33.875,3.788 C33.947,3.892 34.018,3.996 34.089,4.100 C34.160,4.100 34.231,4.100 34.302,4.100 C34.338,4.169 34.373,4.239 34.409,4.308 C34.480,4.308 34.551,4.308 34.622,4.308 C34.693,4.412 34.764,4.516 34.835,4.620 C34.942,4.655 35.049,4.690 35.155,4.724 C35.333,4.932 35.511,5.140 35.688,5.348 C35.759,5.348 35.831,5.348 35.902,5.348 C36.222,5.695 36.542,6.042 36.861,6.389 C37.075,6.562 37.288,6.736 37.501,6.909 C37.501,6.979 37.501,7.048 37.501,7.117 C37.679,7.256 37.857,7.395 38.034,7.533 C38.034,7.603 38.034,7.672 38.034,7.741 C38.106,7.776 38.177,7.811 38.248,7.846 C38.248,7.880 38.248,7.915 38.248,7.950 C38.319,7.984 38.390,8.019 38.461,8.054 C38.461,8.123 38.461,8.192 38.461,8.262 C38.568,8.331 38.674,8.400 38.781,8.470 C38.817,8.574 38.852,8.678 38.888,8.782 C38.959,8.817 39.030,8.851 39.101,8.886 C39.101,8.955 39.101,9.025 39.101,9.094 C39.172,9.129 39.243,9.163 39.314,9.198 C39.350,9.302 39.385,9.406 39.421,9.510 C39.456,9.510 39.492,9.510 39.527,9.510 C39.563,9.649 39.599,9.788 39.634,9.926 C39.705,9.961 39.776,9.996 39.847,10.030 C39.883,10.169 39.918,10.308 39.954,10.447 C40.025,10.481 40.096,10.516 40.167,10.551 C40.167,10.620 40.167,10.689 40.167,10.759 C40.203,10.759 40.238,10.759 40.274,10.759 C40.274,10.828 40.274,10.897 40.274,10.967 C40.310,10.967 40.345,10.967 40.381,10.967 C40.381,11.036 40.381,11.106 40.381,11.175 C40.416,11.175 40.452,11.175 40.487,11.175 C40.487,11.244 40.487,11.314 40.487,11.383 C40.523,11.383 40.558,11.383 40.594,11.383 C40.594,11.452 40.594,11.522 40.594,11.591 C40.629,11.591 40.665,11.591 40.701,11.591 C40.701,11.660 40.701,11.730 40.701,11.799 C40.736,11.799 40.772,11.799 40.807,11.799 C40.878,12.007 40.949,12.215 41.020,12.423 C41.056,12.423 41.092,12.423 41.127,12.423 C41.127,12.527 41.127,12.632 41.127,12.736 C41.163,12.736 41.198,12.736 41.234,12.736 C41.234,12.805 41.234,12.874 41.234,12.944 C41.269,12.944 41.305,12.944 41.340,12.944 C41.376,13.082 41.411,13.221 41.447,13.360 C41.483,13.360 41.518,13.360 41.554,13.360 C41.589,13.568 41.625,13.776 41.660,13.984 C41.696,13.984 41.731,13.984 41.767,13.984 C41.767,14.088 41.767,14.192 41.767,14.296 C41.802,14.296 41.838,14.296 41.874,14.296 C41.874,14.400 41.874,14.504 41.874,14.608 C41.909,14.608 41.945,14.608 41.980,14.608 C42.016,14.851 42.051,15.094 42.087,15.337 C42.122,15.337 42.158,15.337 42.194,15.337 C42.229,15.614 42.265,15.892 42.300,16.169 C42.336,16.169 42.371,16.169 42.407,16.169 C42.442,16.516 42.478,16.863 42.513,17.209 C42.549,17.209 42.585,17.209 42.620,17.209 C42.691,17.972 42.762,18.736 42.833,19.498 C42.869,19.498 42.904,19.498 42.940,19.498 C43.081,19.991 42.936,21.952 42.833,22.308 C42.762,23.071 42.691,23.834 42.620,24.597 C42.585,24.597 42.549,24.597 42.513,24.597 C42.513,24.770 42.513,24.943 42.513,25.117 C42.478,25.117 42.442,25.117 42.407,25.117 C42.407,25.290 42.407,25.464 42.407,25.637 C42.371,25.637 42.336,25.637 42.300,25.637 C42.300,25.776 42.300,25.914 42.300,26.053 C42.265,26.053 42.229,26.053 42.194,26.053 C42.194,26.192 42.194,26.331 42.194,26.469 C42.158,26.469 42.122,26.469 42.087,26.469 C42.087,26.608 42.087,26.747 42.087,26.886 C42.051,26.886 42.016,26.886 41.980,26.886 C41.980,26.990 41.980,27.094 41.980,27.198 C41.945,27.198 41.909,27.198 41.874,27.198 C41.874,27.302 41.874,27.406 41.874,27.510 C41.838,27.510 41.802,27.510 41.767,27.510 C41.767,27.614 41.767,27.718 41.767,27.822 C41.731,27.822 41.696,27.822 41.660,27.822 C41.625,28.030 41.589,28.238 41.554,28.446 C41.518,28.446 41.483,28.446 41.447,28.446 C41.411,28.585 41.376,28.724 41.340,28.862 C41.305,28.862 41.269,28.862 41.234,28.862 C41.234,28.966 41.234,29.070 41.234,29.174 C41.198,29.174 41.163,29.174 41.127,29.174 C41.092,29.313 41.056,29.452 41.020,29.591 C40.985,29.591 40.949,29.591 40.914,29.591 C40.914,29.660 40.914,29.729 40.914,29.799 C40.878,29.799 40.843,29.799 40.807,29.799 C40.807,29.903 40.807,30.007 40.807,30.111 C40.772,30.111 40.736,30.111 40.701,30.111 C40.665,30.250 40.629,30.388 40.594,30.527 C40.558,30.527 40.523,30.527 40.487,30.527 C40.452,30.666 40.416,30.805 40.381,30.943 C40.310,30.978 40.238,31.013 40.167,31.047 C40.096,31.255 40.025,31.463 39.954,31.672 C39.883,31.706 39.812,31.741 39.741,31.776 C39.741,31.845 39.741,31.914 39.741,31.984 C39.670,32.018 39.599,32.053 39.527,32.088 C39.492,32.226 39.456,32.365 39.421,32.504 C39.350,32.539 39.279,32.573 39.208,32.608 C39.208,32.677 39.208,32.747 39.208,32.816 C39.136,32.851 39.065,32.885 38.994,32.920 C38.959,33.024 38.923,33.128 38.888,33.232 C38.781,33.302 38.674,33.371 38.568,33.440 C38.568,33.510 38.568,33.579 38.568,33.648 C38.497,33.683 38.426,33.718 38.354,33.752 C38.319,33.856 38.283,33.960 38.248,34.065 C38.070,34.203 37.892,34.342 37.715,34.481 C37.715,34.550 37.715,34.619 37.715,34.689 C37.324,35.036 36.932,35.382 36.542,35.729 C36.222,36.076 35.902,36.423 35.582,36.770 C35.511,36.770 35.440,36.770 35.368,36.770 C35.262,36.908 35.155,37.047 35.049,37.186 C34.977,37.186 34.906,37.186 34.835,37.186 C34.729,37.325 34.622,37.463 34.515,37.602 C34.444,37.602 34.373,37.602 34.302,37.602 C34.231,37.706 34.160,37.810 34.089,37.914 C34.018,37.914 33.947,37.914 33.875,37.914 C33.804,38.018 33.733,38.122 33.662,38.226 C33.520,38.261 33.378,38.296 33.236,38.330 C33.200,38.400 33.165,38.469 33.129,38.538 C33.022,38.573 32.916,38.608 32.809,38.642 C32.809,38.677 32.809,38.712 32.809,38.746 C32.667,38.781 32.525,38.816 32.382,38.851 C32.347,38.920 32.311,38.989 32.276,39.059 C32.205,39.059 32.134,39.059 32.063,39.059 C32.027,39.128 31.991,39.197 31.956,39.267 C31.814,39.301 31.672,39.336 31.529,39.371 C31.529,39.405 31.529,39.440 31.529,39.475 C31.458,39.475 31.387,39.475 31.316,39.475 C31.316,39.509 31.316,39.544 31.316,39.579 C31.103,39.648 30.889,39.718 30.676,39.787 C30.676,39.822 30.676,39.856 30.676,39.891 C30.570,39.891 30.463,39.891 30.356,39.891 C30.356,39.926 30.356,39.960 30.356,39.995 C30.214,40.030 30.072,40.064 29.930,40.099 C29.930,40.134 29.930,40.168 29.930,40.203 C29.823,40.203 29.716,40.203 29.610,40.203 C29.610,40.238 29.610,40.272 29.610,40.307 C29.468,40.342 29.325,40.377 29.183,40.411 C29.183,40.446 29.183,40.481 29.183,40.515 C28.970,40.550 28.757,40.585 28.543,40.619 C28.543,40.654 28.543,40.689 28.543,40.723 C28.437,40.723 28.330,40.723 28.223,40.723 C28.223,40.758 28.223,40.793 28.223,40.827 C28.117,40.827 28.010,40.827 27.904,40.827 C27.904,40.862 27.904,40.897 27.904,40.931 C27.797,40.931 27.690,40.931 27.584,40.931 C27.584,40.966 27.584,41.001 27.584,41.035 C26.588,41.244 25.593,41.452 24.598,41.660 C24.349,41.660 24.100,41.660 23.851,41.660 C23.851,41.694 23.851,41.729 23.851,41.764 C23.531,41.764 23.211,41.764 22.891,41.764 C22.891,41.798 22.891,41.833 22.891,41.868 C21.612,41.833 20.332,41.798 19.052,41.764 C19.052,41.729 19.052,41.694 19.052,41.660 C18.803,41.660 18.555,41.660 18.306,41.660 C17.311,41.452 16.315,41.244 15.320,41.035 C15.320,41.001 15.320,40.966 15.320,40.931 C15.213,40.931 15.106,40.931 15.000,40.931 C15.000,40.897 15.000,40.862 15.000,40.827 C14.893,40.827 14.787,40.827 14.680,40.827 C14.680,40.793 14.680,40.758 14.680,40.723 C14.573,40.723 14.467,40.723 14.360,40.723 C14.360,40.689 14.360,40.654 14.360,40.619 C14.147,40.585 13.933,40.550 13.720,40.515 C13.720,40.481 13.720,40.446 13.720,40.411 C13.578,40.377 13.436,40.342 13.294,40.307 C13.294,40.272 13.294,40.238 13.294,40.203 C13.222,40.203 13.151,40.203 13.080,40.203 C13.080,40.168 13.080,40.134 13.080,40.099 C12.974,40.099 12.867,40.099 12.760,40.099 C12.760,40.064 12.760,40.030 12.760,39.995 C12.618,39.960 12.476,39.926 12.334,39.891 C12.334,39.856 12.334,39.822 12.334,39.787 C12.263,39.787 12.192,39.787 12.121,39.787 C12.121,39.752 12.121,39.718 12.121,39.683 C12.014,39.683 11.907,39.683 11.801,39.683 C11.801,39.648 11.801,39.614 11.801,39.579 C11.730,39.579 11.658,39.579 11.587,39.579 C11.587,39.544 11.587,39.509 11.587,39.475 C11.516,39.475 11.445,39.475 11.374,39.475 C11.338,39.405 11.303,39.336 11.267,39.267 C11.054,39.197 10.841,39.128 10.628,39.059 C10.592,38.989 10.556,38.920 10.521,38.851 C10.450,38.851 10.379,38.851 10.308,38.851 C10.272,38.781 10.237,38.712 10.201,38.642 C10.059,38.608 9.917,38.573 9.774,38.538 C9.739,38.469 9.703,38.400 9.668,38.330 C9.597,38.330 9.526,38.330 9.454,38.330 C9.454,38.296 9.454,38.261 9.454,38.226 C9.348,38.192 9.241,38.157 9.135,38.122 C9.099,38.053 9.063,37.983 9.028,37.914 C8.957,37.914 8.886,37.914 8.815,37.914 C8.779,37.845 8.744,37.775 8.708,37.706 C8.601,37.671 8.495,37.637 8.388,37.602 C8.281,37.463 8.175,37.325 8.068,37.186 C7.997,37.186 7.926,37.186 7.855,37.186 C7.713,37.012 7.570,36.839 7.428,36.666 C7.357,36.666 7.286,36.666 7.215,36.666 C6.860,36.284 6.504,35.903 6.149,35.521 C5.935,35.348 5.722,35.174 5.509,35.001 C5.509,34.932 5.509,34.862 5.509,34.793 C5.260,34.585 5.011,34.377 4.762,34.169 C4.762,34.099 4.762,34.030 4.762,33.960 C4.656,33.891 4.549,33.822 4.442,33.752 C4.407,33.648 4.371,33.544 4.336,33.440 C4.265,33.406 4.193,33.371 4.122,33.336 C4.122,33.267 4.122,33.197 4.122,33.128 C4.051,33.093 3.980,33.059 3.909,33.024 C3.909,32.955 3.909,32.885 3.909,32.816 C3.838,32.781 3.767,32.747 3.696,32.712 C3.696,32.643 3.696,32.573 3.696,32.504 C3.625,32.469 3.554,32.435 3.483,32.400 C2.914,31.394 2.345,30.388 1.776,29.383 C1.776,29.279 1.776,29.174 1.776,29.070 C1.741,29.070 1.705,29.070 1.670,29.070 C1.670,29.001 1.670,28.932 1.670,28.862 C1.634,28.862 1.599,28.862 1.563,28.862 C1.563,28.758 1.563,28.654 1.563,28.550 C1.527,28.550 1.492,28.550 1.456,28.550 C1.456,28.481 1.456,28.411 1.456,28.342 C1.421,28.342 1.385,28.342 1.350,28.342 C1.350,28.238 1.350,28.134 1.350,28.030 C1.314,28.030 1.279,28.030 1.243,28.030 C1.243,27.926 1.243,27.822 1.243,27.718 C1.208,27.718 1.172,27.718 1.136,27.718 C1.136,27.614 1.136,27.510 1.136,27.406 C1.101,27.406 1.065,27.406 1.030,27.406 C1.030,27.267 1.030,27.128 1.030,26.990 C0.994,26.990 0.959,26.990 0.923,26.990 C0.923,26.920 0.923,26.851 0.923,26.781 C0.888,26.781 0.852,26.781 0.816,26.781 C0.816,26.677 0.816,26.573 0.816,26.469 C0.781,26.469 0.745,26.469 0.710,26.469 C0.674,26.192 0.639,25.914 0.603,25.637 C0.568,25.637 0.532,25.637 0.497,25.637 C0.497,25.464 0.497,25.290 0.497,25.117 C0.461,25.117 0.425,25.117 0.390,25.117 C0.390,24.909 0.390,24.701 0.390,24.493 C0.074,23.439 -0.191,20.251 0.177,18.978 C0.212,18.423 0.248,17.868 0.283,17.314 C0.319,17.314 0.354,17.314 0.390,17.314 C0.390,17.140 0.390,16.967 0.390,16.793 C0.425,16.793 0.461,16.793 0.497,16.793 C0.497,16.620 0.497,16.446 0.497,16.273 C0.532,16.273 0.568,16.273 0.603,16.273 C0.603,16.134 0.603,15.996 0.603,15.857 C0.639,15.857 0.674,15.857 0.710,15.857 C0.710,15.718 0.710,15.579 0.710,15.441 C0.745,15.441 0.781,15.441 0.816,15.441 C0.816,15.337 0.816,15.233 0.816,15.129 C0.852,15.129 0.888,15.129 0.923,15.129 C0.923,15.025 0.923,14.920 0.923,14.816 C0.959,14.816 0.994,14.816 1.030,14.816 C1.030,14.712 1.030,14.608 1.030,14.504 C1.065,14.504 1.101,14.504 1.136,14.504 C1.136,14.400 1.136,14.296 1.136,14.192 C1.172,14.192 1.208,14.192 1.243,14.192 C1.243,14.088 1.243,13.984 1.243,13.880 C1.279,13.880 1.314,13.880 1.350,13.880 C1.385,13.672 1.421,13.464 1.456,13.256 C1.492,13.256 1.527,13.256 1.563,13.256 C1.563,13.186 1.563,13.117 1.563,13.048 C1.599,13.048 1.634,13.048 1.670,13.048 C1.670,12.944 1.670,12.840 1.670,12.736 C1.705,12.736 1.741,12.736 1.776,12.736 C1.776,12.666 1.776,12.597 1.776,12.527 C1.812,12.527 1.847,12.527 1.883,12.527 C1.883,12.423 1.883,12.319 1.883,12.215 C1.918,12.215 1.954,12.215 1.990,12.215 C2.025,12.077 2.061,11.938 2.096,11.799 C2.132,11.799 2.167,11.799 2.203,11.799 C2.203,11.730 2.203,11.660 2.203,11.591 C2.274,11.556 2.345,11.522 2.416,11.487 C2.487,11.279 2.558,11.071 2.629,10.863 C2.665,10.863 2.700,10.863 2.736,10.863 C2.736,10.793 2.736,10.724 2.736,10.655 C2.772,10.655 2.807,10.655 2.843,10.655 C2.843,10.585 2.843,10.516 2.843,10.447 C2.878,10.447 2.914,10.447 2.949,10.447 C2.949,10.377 2.949,10.308 2.949,10.239 C3.020,10.204 3.092,10.169 3.163,10.134 C3.198,9.996 3.234,9.857 3.269,9.718 C3.340,9.684 3.411,9.649 3.483,9.614 C3.483,9.545 3.483,9.476 3.483,9.406 C3.554,9.372 3.625,9.337 3.696,9.302 C3.696,9.233 3.696,9.163 3.696,9.094 C3.802,9.025 3.909,8.955 4.016,8.886 C4.016,8.817 4.016,8.747 4.016,8.678 C4.087,8.643 4.158,8.609 4.229,8.574 C4.229,8.504 4.229,8.435 4.229,8.366 C4.300,8.331 4.371,8.296 4.442,8.262 C4.478,8.158 4.513,8.054 4.549,7.950 C4.727,7.811 4.904,7.672 5.082,7.533 C5.082,7.464 5.082,7.395 5.082,7.325 C5.722,6.736 6.362,6.146 7.002,5.557 C7.179,5.349 7.357,5.140 7.535,4.932 C7.606,4.932 7.677,4.932 7.748,4.932 C7.890,4.759 8.033,4.585 8.175,4.412 C8.281,4.377 8.388,4.343 8.495,4.308 C8.530,4.239 8.566,4.169 8.601,4.100 C8.672,4.100 8.744,4.100 8.815,4.100 C8.850,4.031 8.886,3.961 8.921,3.892 C8.992,3.892 9.063,3.892 9.135,3.892 C9.206,3.788 9.277,3.684 9.348,3.580 C9.419,3.580 9.490,3.580 9.561,3.580 C9.597,3.510 9.632,3.441 9.668,3.372 C9.739,3.372 9.810,3.372 9.881,3.372 C9.917,3.302 9.952,3.233 9.988,3.164 C10.130,3.129 10.272,3.094 10.414,3.060 C10.450,2.990 10.485,2.921 10.521,2.851 C10.592,2.851 10.663,2.851 10.734,2.851 C10.734,2.817 10.734,2.782 10.734,2.747 C10.805,2.747 10.876,2.747 10.947,2.747 C10.947,2.713 10.947,2.678 10.947,2.643 C11.019,2.643 11.090,2.643 11.161,2.643 C11.161,2.609 11.161,2.574 11.161,2.539 C11.232,2.539 11.303,2.539 11.374,2.539 C11.374,2.505 11.374,2.470 11.374,2.435 C11.516,2.401 11.658,2.366 11.801,2.331 C11.836,2.262 11.872,2.192 11.907,2.123 C11.978,2.123 12.049,2.123 12.121,2.123 C12.121,2.088 12.121,2.054 12.121,2.019 C12.263,1.984 12.405,1.950 12.547,1.915 C12.547,1.880 12.547,1.846 12.547,1.811 C12.654,1.811 12.760,1.811 12.867,1.811 C12.867,1.776 12.867,1.742 12.867,1.707 C12.938,1.707 13.009,1.707 13.080,1.707 C13.080,1.672 13.080,1.638 13.080,1.603 C13.187,1.603 13.294,1.603 13.400,1.603 C13.400,1.568 13.400,1.534 13.400,1.499 C13.471,1.499 13.542,1.499 13.614,1.499 C13.614,1.464 13.614,1.430 13.614,1.395 C14.822,1.048 16.031,0.701 17.239,0.354 C17.986,0.285 18.732,0.216 19.479,0.146 C19.479,0.112 19.479,0.077 19.479,0.042 ZM24.171,4.204 C23.745,4.169 23.318,4.135 22.891,4.100 C22.891,4.065 22.891,4.031 22.891,3.996 C22.643,3.996 22.394,3.996 22.145,3.996 C21.252,3.993 20.334,4.066 19.585,4.100 C19.517,4.229 19.411,4.249 19.372,4.308 C19.372,4.377 19.372,4.447 19.372,4.516 C19.337,4.516 19.301,4.516 19.266,4.516 C19.266,4.585 19.266,4.655 19.266,4.724 C19.194,4.759 19.123,4.794 19.052,4.828 C19.017,4.967 18.981,5.106 18.946,5.244 C18.875,5.279 18.803,5.314 18.732,5.348 C18.661,5.557 18.590,5.765 18.519,5.973 C18.483,5.973 18.448,5.973 18.412,5.973 C18.412,6.042 18.412,6.111 18.412,6.181 C18.377,6.181 18.341,6.181 18.306,6.181 C18.235,6.389 18.164,6.597 18.092,6.805 C18.057,6.805 18.021,6.805 17.986,6.805 C17.986,6.909 17.986,7.013 17.986,7.117 C17.950,7.117 17.915,7.117 17.879,7.117 C17.879,7.187 17.879,7.256 17.879,7.325 C17.844,7.325 17.808,7.325 17.773,7.325 C17.773,7.395 17.773,7.464 17.773,7.533 C17.737,7.533 17.701,7.533 17.666,7.533 C17.595,7.741 17.524,7.950 17.453,8.158 C17.417,8.158 17.382,8.158 17.346,8.158 C17.346,8.262 17.346,8.366 17.346,8.470 C17.310,8.470 17.275,8.470 17.239,8.470 C17.239,8.539 17.239,8.609 17.239,8.678 C17.204,8.678 17.168,8.678 17.133,8.678 C17.097,8.886 17.062,9.094 17.026,9.302 C16.990,9.302 16.955,9.302 16.919,9.302 C16.919,9.372 16.919,9.441 16.919,9.510 C16.884,9.510 16.848,9.510 16.813,9.510 C16.742,9.822 16.671,10.135 16.599,10.447 C16.452,10.827 15.793,12.515 15.960,12.736 C16.239,12.975 18.358,12.840 18.946,12.840 C20.794,12.840 22.643,12.840 24.491,12.840 C25.579,12.840 26.879,12.900 27.797,12.736 C27.797,12.701 27.797,12.666 27.797,12.632 C27.761,12.632 27.726,12.632 27.690,12.632 C27.619,12.285 27.548,11.938 27.477,11.591 C27.441,11.591 27.406,11.591 27.370,11.591 C27.335,11.348 27.299,11.106 27.264,10.863 C27.228,10.863 27.193,10.863 27.157,10.863 C27.157,10.759 27.157,10.655 27.157,10.551 C27.121,10.551 27.086,10.551 27.050,10.551 C27.050,10.447 27.050,10.343 27.050,10.239 C27.015,10.239 26.979,10.239 26.944,10.239 C26.944,10.135 26.944,10.030 26.944,9.926 C26.908,9.926 26.873,9.926 26.837,9.926 C26.837,9.822 26.837,9.718 26.837,9.614 C26.802,9.614 26.766,9.614 26.730,9.614 C26.730,9.510 26.730,9.406 26.730,9.302 C26.695,9.302 26.659,9.302 26.624,9.302 C26.624,9.198 26.624,9.094 26.624,8.990 C26.588,8.990 26.553,8.990 26.517,8.990 C26.482,8.817 26.446,8.643 26.411,8.470 C26.375,8.470 26.339,8.470 26.304,8.470 C26.304,8.400 26.304,8.331 26.304,8.262 C26.268,8.262 26.233,8.262 26.197,8.262 C26.091,7.950 25.984,7.637 25.877,7.325 C25.842,7.325 25.806,7.325 25.771,7.325 C25.700,7.117 25.628,6.909 25.557,6.701 C25.522,6.701 25.486,6.701 25.451,6.701 C25.344,6.389 25.237,6.077 25.131,5.765 C25.060,5.730 24.989,5.695 24.918,5.661 C24.846,5.453 24.775,5.244 24.704,5.036 C24.633,5.002 24.562,4.967 24.491,4.932 C24.491,4.863 24.491,4.794 24.491,4.724 C24.455,4.724 24.420,4.724 24.384,4.724 C24.384,4.655 24.384,4.585 24.384,4.516 C24.349,4.516 24.313,4.516 24.278,4.516 C24.242,4.412 24.207,4.308 24.171,4.204 ZM6.362,12.840 C8.139,12.840 9.917,12.840 11.694,12.840 C11.784,12.722 11.680,12.824 11.801,12.736 C11.800,12.054 12.050,11.555 12.227,11.071 C12.263,10.793 12.298,10.516 12.334,10.239 C12.369,10.239 12.405,10.239 12.440,10.239 C12.512,9.892 12.583,9.545 12.654,9.198 C12.689,9.198 12.725,9.198 12.760,9.198 C12.760,9.094 12.760,8.990 12.760,8.886 C12.796,8.886 12.831,8.886 12.867,8.886 C12.867,8.782 12.867,8.678 12.867,8.574 C12.903,8.574 12.938,8.574 12.974,8.574 C13.009,8.366 13.045,8.158 13.080,7.950 C13.385,7.210 13.852,6.504 14.040,5.661 C13.698,5.730 13.139,6.006 12.867,6.181 C12.831,6.250 12.796,6.320 12.760,6.389 C12.618,6.424 12.476,6.458 12.334,6.493 C12.298,6.562 12.263,6.632 12.227,6.701 C12.085,6.736 11.943,6.770 11.801,6.805 C11.801,6.840 11.801,6.874 11.801,6.909 C11.694,6.944 11.587,6.979 11.481,7.013 C11.445,7.083 11.410,7.152 11.374,7.221 C11.303,7.221 11.232,7.221 11.161,7.221 C11.054,7.360 10.947,7.499 10.841,7.637 C10.770,7.637 10.699,7.637 10.628,7.637 C10.485,7.811 10.343,7.984 10.201,8.158 C10.130,8.158 10.059,8.158 9.988,8.158 C9.668,8.504 9.348,8.851 9.028,9.198 C8.815,9.371 8.601,9.545 8.388,9.718 C8.388,9.788 8.388,9.857 8.388,9.926 C8.210,10.065 8.033,10.204 7.855,10.343 C7.855,10.412 7.855,10.481 7.855,10.551 C7.748,10.620 7.642,10.689 7.535,10.759 C7.535,10.828 7.535,10.897 7.535,10.967 C7.428,11.036 7.322,11.106 7.215,11.175 C7.215,11.244 7.215,11.314 7.215,11.383 C7.144,11.418 7.073,11.452 7.002,11.487 C6.966,11.626 6.931,11.765 6.895,11.903 C6.824,11.938 6.753,11.973 6.682,12.007 C6.682,12.077 6.682,12.146 6.682,12.215 C6.646,12.215 6.611,12.215 6.575,12.215 C6.575,12.285 6.575,12.354 6.575,12.423 C6.540,12.423 6.504,12.423 6.468,12.423 C6.372,12.566 6.391,12.605 6.362,12.840 ZM29.823,6.077 C29.965,6.493 30.107,6.909 30.250,7.325 C30.285,7.325 30.321,7.325 30.356,7.325 C30.356,7.395 30.356,7.464 30.356,7.533 C30.392,7.533 30.427,7.533 30.463,7.533 C30.498,7.741 30.534,7.950 30.570,8.158 C30.605,8.158 30.641,8.158 30.676,8.158 C30.676,8.262 30.676,8.366 30.676,8.470 C30.712,8.470 30.747,8.470 30.783,8.470 C30.783,8.574 30.783,8.678 30.783,8.782 C30.818,8.782 30.854,8.782 30.889,8.782 C30.889,8.886 30.889,8.990 30.889,9.094 C30.925,9.094 30.961,9.094 30.996,9.094 C30.996,9.198 30.996,9.302 30.996,9.406 C31.032,9.406 31.067,9.406 31.103,9.406 C31.103,9.545 31.103,9.684 31.103,9.822 C31.440,10.733 31.828,11.745 31.956,12.840 C33.520,12.840 35.084,12.840 36.648,12.840 C36.619,12.605 36.638,12.566 36.542,12.423 C36.506,12.423 36.470,12.423 36.435,12.423 C36.435,12.354 36.435,12.285 36.435,12.215 C36.399,12.215 36.364,12.215 36.328,12.215 C36.328,12.146 36.328,12.077 36.328,12.007 C36.257,11.973 36.186,11.938 36.115,11.903 C36.115,11.834 36.115,11.765 36.115,11.695 C36.044,11.660 35.973,11.626 35.902,11.591 C35.902,11.522 35.902,11.452 35.902,11.383 C35.795,11.314 35.688,11.244 35.582,11.175 C35.582,11.106 35.582,11.036 35.582,10.967 C35.511,10.932 35.440,10.897 35.368,10.863 C35.368,10.793 35.368,10.724 35.368,10.655 C34.658,9.892 33.946,9.129 33.236,8.366 C33.165,8.366 33.093,8.366 33.022,8.366 C32.845,8.158 32.667,7.950 32.489,7.741 C32.418,7.741 32.347,7.741 32.276,7.741 C32.169,7.603 32.063,7.464 31.956,7.325 C31.885,7.325 31.814,7.325 31.743,7.325 C31.707,7.256 31.672,7.187 31.636,7.117 C31.565,7.117 31.494,7.117 31.423,7.117 C31.352,7.013 31.280,6.909 31.209,6.805 C31.067,6.770 30.925,6.736 30.783,6.701 C30.747,6.632 30.712,6.562 30.676,6.493 C30.605,6.493 30.534,6.493 30.463,6.493 C30.427,6.424 30.392,6.354 30.356,6.285 C30.285,6.285 30.214,6.285 30.143,6.285 C30.143,6.250 30.143,6.216 30.143,6.181 C30.036,6.146 29.930,6.111 29.823,6.077 ZM4.656,16.793 C4.542,17.377 4.396,18.192 4.229,18.770 C4.229,19.152 4.229,19.533 4.229,19.915 C4.134,20.247 3.984,21.514 4.122,21.995 C4.158,21.995 4.193,21.995 4.229,21.995 C4.265,22.620 4.300,23.244 4.336,23.868 C4.464,24.294 4.628,24.784 4.656,25.325 C5.194,25.596 5.957,25.533 6.788,25.533 C8.210,25.533 9.632,25.533 11.054,25.533 C11.119,25.366 11.148,25.286 11.161,25.013 C10.920,24.745 11.171,24.176 11.054,23.764 C10.891,23.189 10.947,22.219 10.947,21.475 C10.983,19.915 11.019,18.354 11.054,16.793 C8.921,16.793 6.788,16.793 4.656,16.793 ZM28.437,16.793 C24.029,16.793 19.621,16.793 15.213,16.793 C15.098,17.092 15.102,17.593 15.106,18.042 C14.729,18.453 15.171,19.615 15.000,20.227 C14.964,20.227 14.929,20.227 14.893,20.227 C14.893,20.678 14.893,21.128 14.893,21.579 C14.929,21.579 14.964,21.579 15.000,21.579 C15.183,22.209 14.942,23.198 15.106,23.764 C15.106,24.146 15.106,24.527 15.106,24.909 C15.142,24.909 15.178,24.909 15.213,24.909 C15.289,25.151 15.236,25.320 15.320,25.533 C16.078,25.265 17.461,25.429 18.412,25.429 C20.652,25.429 22.892,25.429 25.131,25.429 C25.913,25.429 26.695,25.429 27.477,25.429 C27.861,25.429 28.082,25.441 28.330,25.533 C28.330,25.498 28.330,25.464 28.330,25.429 C28.675,25.052 28.380,24.237 28.543,23.660 C28.715,23.055 28.650,22.042 28.650,21.267 C28.650,19.700 28.684,18.103 28.437,16.793 ZM32.596,16.793 C32.631,18.423 32.667,20.053 32.702,21.683 C32.702,22.342 32.702,23.001 32.702,23.660 C32.667,23.660 32.631,23.660 32.596,23.660 C32.596,24.111 32.596,24.562 32.596,25.013 C32.560,25.013 32.525,25.013 32.489,25.013 C32.489,25.151 32.489,25.290 32.489,25.429 C32.951,25.594 33.778,25.533 34.409,25.533 C35.653,25.533 36.897,25.533 38.141,25.533 C38.231,25.415 38.128,25.518 38.248,25.429 C38.277,24.909 38.443,24.487 38.568,24.076 C38.568,23.868 38.568,23.660 38.568,23.452 C38.603,23.452 38.639,23.452 38.674,23.452 C38.674,23.244 38.674,23.036 38.674,22.828 C38.710,22.828 38.745,22.828 38.781,22.828 C38.781,22.377 38.781,21.926 38.781,21.475 C38.817,21.475 38.852,21.475 38.888,21.475 C38.888,21.059 38.888,20.643 38.888,20.227 C38.852,20.227 38.817,20.227 38.781,20.227 C38.781,19.811 38.781,19.394 38.781,18.978 C38.745,18.978 38.710,18.978 38.674,18.978 C38.674,18.770 38.674,18.562 38.674,18.354 C38.639,18.354 38.603,18.354 38.568,18.354 C38.568,18.181 38.568,18.007 38.568,17.834 C38.532,17.834 38.497,17.834 38.461,17.834 C38.340,17.452 38.492,17.154 38.248,16.897 C38.003,16.687 37.187,16.793 36.755,16.793 C35.369,16.793 33.982,16.793 32.596,16.793 ZM6.575,29.487 C6.611,29.591 6.646,29.695 6.682,29.799 C6.717,29.799 6.753,29.799 6.788,29.799 C6.788,29.868 6.788,29.937 6.788,30.007 C6.824,30.007 6.860,30.007 6.895,30.007 C6.895,30.076 6.895,30.146 6.895,30.215 C6.966,30.250 7.037,30.284 7.108,30.319 C7.108,30.388 7.108,30.458 7.108,30.527 C7.179,30.562 7.251,30.596 7.322,30.631 C7.322,30.700 7.322,30.770 7.322,30.839 C7.464,30.943 7.606,31.047 7.748,31.151 C7.748,31.221 7.748,31.290 7.748,31.359 C7.855,31.429 7.961,31.498 8.068,31.567 C8.068,31.637 8.068,31.706 8.068,31.776 C8.317,31.984 8.566,32.192 8.815,32.400 C8.815,32.469 8.815,32.539 8.815,32.608 C8.886,32.643 8.957,32.677 9.028,32.712 C9.135,32.851 9.241,32.989 9.348,33.128 C9.419,33.128 9.490,33.128 9.561,33.128 C9.845,33.440 10.130,33.752 10.414,34.065 C10.485,34.065 10.556,34.065 10.628,34.065 C10.699,34.169 10.770,34.273 10.841,34.377 C10.947,34.411 11.054,34.446 11.161,34.481 C11.196,34.550 11.232,34.619 11.267,34.689 C11.338,34.689 11.410,34.689 11.481,34.689 C11.516,34.758 11.552,34.828 11.587,34.897 C11.658,34.897 11.730,34.897 11.801,34.897 C11.836,34.966 11.872,35.036 11.907,35.105 C11.978,35.105 12.049,35.105 12.121,35.105 C12.156,35.174 12.192,35.244 12.227,35.313 C12.298,35.313 12.369,35.313 12.440,35.313 C12.476,35.382 12.512,35.452 12.547,35.521 C12.689,35.556 12.831,35.590 12.974,35.625 C13.310,35.802 13.598,36.053 14.040,36.145 C13.862,35.660 13.685,35.174 13.507,34.689 C13.471,34.689 13.436,34.689 13.400,34.689 C13.400,34.619 13.400,34.550 13.400,34.481 C13.365,34.481 13.329,34.481 13.294,34.481 C13.258,34.273 13.222,34.065 13.187,33.856 C13.151,33.856 13.116,33.856 13.080,33.856 C13.080,33.752 13.080,33.648 13.080,33.544 C13.045,33.544 13.009,33.544 12.974,33.544 C12.974,33.440 12.974,33.336 12.974,33.232 C12.938,33.232 12.903,33.232 12.867,33.232 C12.867,33.128 12.867,33.024 12.867,32.920 C12.831,32.920 12.796,32.920 12.760,32.920 C12.760,32.816 12.760,32.712 12.760,32.608 C12.725,32.608 12.689,32.608 12.654,32.608 C12.654,32.504 12.654,32.400 12.654,32.296 C12.618,32.296 12.583,32.296 12.547,32.296 C12.512,32.053 12.476,31.810 12.440,31.567 C12.405,31.567 12.369,31.567 12.334,31.567 C12.334,31.429 12.334,31.290 12.334,31.151 C12.298,31.151 12.263,31.151 12.227,31.151 C12.227,31.047 12.227,30.943 12.227,30.839 C12.192,30.839 12.156,30.839 12.121,30.839 C12.121,30.700 12.121,30.562 12.121,30.423 C12.085,30.423 12.049,30.423 12.014,30.423 C11.909,30.150 11.985,29.782 11.801,29.591 C11.569,29.391 10.828,29.487 10.414,29.487 C9.135,29.487 7.855,29.487 6.575,29.487 ZM16.066,29.487 C16.067,30.156 16.322,30.480 16.493,30.943 C16.493,31.082 16.493,31.221 16.493,31.359 C16.528,31.359 16.564,31.359 16.599,31.359 C16.599,31.463 16.599,31.567 16.599,31.672 C16.635,31.672 16.671,31.672 16.706,31.672 C16.706,31.776 16.706,31.880 16.706,31.984 C16.742,31.984 16.777,31.984 16.813,31.984 C16.813,32.088 16.813,32.192 16.813,32.296 C16.848,32.296 16.884,32.296 16.919,32.296 C16.919,32.400 16.919,32.504 16.919,32.608 C16.955,32.608 16.990,32.608 17.026,32.608 C17.026,32.677 17.026,32.747 17.026,32.816 C17.062,32.816 17.097,32.816 17.133,32.816 C17.133,32.920 17.133,33.024 17.133,33.128 C17.168,33.128 17.204,33.128 17.239,33.128 C17.239,33.197 17.239,33.267 17.239,33.336 C17.275,33.336 17.310,33.336 17.346,33.336 C17.346,33.440 17.346,33.544 17.346,33.648 C17.382,33.648 17.417,33.648 17.453,33.648 C17.524,33.856 17.595,34.065 17.666,34.273 C17.701,34.273 17.737,34.273 17.773,34.273 C17.773,34.342 17.773,34.411 17.773,34.481 C17.808,34.481 17.844,34.481 17.879,34.481 C17.879,34.585 17.879,34.689 17.879,34.793 C17.915,34.793 17.950,34.793 17.986,34.793 C18.057,35.001 18.128,35.209 18.199,35.417 C18.235,35.417 18.270,35.417 18.306,35.417 C18.306,35.486 18.306,35.556 18.306,35.625 C18.341,35.625 18.377,35.625 18.412,35.625 C18.412,35.695 18.412,35.764 18.412,35.833 C18.448,35.833 18.483,35.833 18.519,35.833 C18.590,36.041 18.661,36.249 18.732,36.458 C18.803,36.492 18.875,36.527 18.946,36.562 C18.981,36.700 19.017,36.839 19.052,36.978 C19.123,37.012 19.194,37.047 19.266,37.082 C19.266,37.151 19.266,37.221 19.266,37.290 C19.301,37.290 19.337,37.290 19.372,37.290 C19.372,37.359 19.372,37.429 19.372,37.498 C19.408,37.498 19.443,37.498 19.479,37.498 C19.514,37.602 19.550,37.706 19.585,37.810 C20.296,37.845 21.007,37.879 21.718,37.914 C21.718,37.879 21.718,37.845 21.718,37.810 C21.967,37.810 22.216,37.810 22.465,37.810 C22.953,37.808 23.822,37.815 24.064,37.602 C24.100,37.602 24.136,37.602 24.171,37.602 C24.171,37.533 24.171,37.463 24.171,37.394 C24.242,37.359 24.313,37.325 24.384,37.290 C24.384,37.221 24.384,37.151 24.384,37.082 C24.420,37.082 24.455,37.082 24.491,37.082 C24.491,37.012 24.491,36.943 24.491,36.874 C24.562,36.839 24.633,36.804 24.704,36.770 C24.740,36.631 24.775,36.492 24.811,36.353 C24.882,36.319 24.953,36.284 25.024,36.249 C25.060,36.111 25.095,35.972 25.131,35.833 C25.166,35.833 25.202,35.833 25.237,35.833 C25.237,35.764 25.237,35.695 25.237,35.625 C25.273,35.625 25.309,35.625 25.344,35.625 C25.415,35.417 25.486,35.209 25.557,35.001 C25.593,35.001 25.628,35.001 25.664,35.001 C25.664,34.897 25.664,34.793 25.664,34.689 C25.700,34.689 25.735,34.689 25.771,34.689 C25.771,34.619 25.771,34.550 25.771,34.481 C25.806,34.481 25.842,34.481 25.877,34.481 C25.877,34.411 25.877,34.342 25.877,34.273 C25.913,34.273 25.948,34.273 25.984,34.273 C26.055,34.065 26.126,33.856 26.197,33.648 C26.233,33.648 26.268,33.648 26.304,33.648 C26.304,33.544 26.304,33.440 26.304,33.336 C26.339,33.336 26.375,33.336 26.411,33.336 C26.411,33.267 26.411,33.197 26.411,33.128 C26.446,33.128 26.482,33.128 26.517,33.128 C26.695,32.504 26.873,31.880 27.050,31.255 C27.261,30.737 27.536,30.173 27.584,29.487 C23.745,29.487 19.905,29.487 16.066,29.487 ZM31.849,29.487 C31.494,30.735 31.138,31.984 30.783,33.232 C30.747,33.232 30.712,33.232 30.676,33.232 C30.676,33.336 30.676,33.440 30.676,33.544 C30.641,33.544 30.605,33.544 30.570,33.544 C30.570,33.648 30.570,33.752 30.570,33.856 C30.534,33.856 30.498,33.856 30.463,33.856 C30.463,33.960 30.463,34.065 30.463,34.169 C30.427,34.169 30.392,34.169 30.356,34.169 C30.356,34.273 30.356,34.377 30.356,34.481 C30.321,34.481 30.285,34.481 30.250,34.481 C30.214,34.619 30.179,34.758 30.143,34.897 C30.107,34.897 30.072,34.897 30.036,34.897 C30.036,35.001 30.036,35.105 30.036,35.209 C30.001,35.209 29.965,35.209 29.930,35.209 C29.859,35.417 29.788,35.625 29.716,35.833 C29.752,35.833 29.788,35.833 29.823,35.833 C29.991,35.646 30.034,35.744 30.250,35.625 C30.250,35.590 30.250,35.556 30.250,35.521 C30.321,35.521 30.392,35.521 30.463,35.521 C30.463,35.486 30.463,35.452 30.463,35.417 C30.570,35.382 30.676,35.348 30.783,35.313 C30.818,35.244 30.854,35.174 30.889,35.105 C30.961,35.105 31.032,35.105 31.103,35.105 C31.103,35.070 31.103,35.036 31.103,35.001 C31.209,34.966 31.316,34.932 31.423,34.897 C31.458,34.828 31.494,34.758 31.529,34.689 C31.600,34.689 31.672,34.689 31.743,34.689 C31.814,34.585 31.885,34.481 31.956,34.377 C32.027,34.377 32.098,34.377 32.169,34.377 C32.276,34.238 32.382,34.099 32.489,33.960 C32.560,33.960 32.631,33.960 32.702,33.960 C32.987,33.648 33.271,33.336 33.556,33.024 C33.947,32.677 34.338,32.330 34.729,31.984 C34.729,31.914 34.729,31.845 34.729,31.776 C34.871,31.672 35.013,31.567 35.155,31.463 C35.155,31.394 35.155,31.325 35.155,31.255 C35.262,31.186 35.368,31.117 35.475,31.047 C35.475,30.978 35.475,30.909 35.475,30.839 C35.582,30.770 35.688,30.700 35.795,30.631 C36.008,30.250 36.222,29.868 36.435,29.487 C34.906,29.487 33.378,29.487 31.849,29.487 ZM20.972,44.261 C21.327,44.261 21.683,44.261 22.038,44.261 C22.038,44.295 22.038,44.330 22.038,44.365 C22.287,44.400 22.536,44.434 22.785,44.469 C23.691,44.872 24.959,46.384 24.491,47.798 C24.455,48.041 24.420,48.284 24.384,48.527 C24.349,48.527 24.313,48.527 24.278,48.527 C24.278,48.596 24.278,48.665 24.278,48.735 C24.207,48.769 24.135,48.804 24.064,48.839 C24.064,48.908 24.064,48.977 24.064,49.047 C23.851,49.220 23.638,49.394 23.425,49.567 C23.389,49.636 23.353,49.706 23.318,49.775 C23.247,49.775 23.176,49.775 23.105,49.775 C23.069,49.844 23.034,49.914 22.998,49.983 C22.927,49.983 22.856,49.983 22.785,49.983 C22.785,50.018 22.785,50.053 22.785,50.087 C22.536,50.122 22.287,50.157 22.038,50.191 C22.038,50.226 22.038,50.261 22.038,50.295 C21.491,50.452 20.848,50.202 20.545,50.087 C20.368,50.053 20.190,50.018 20.012,49.983 C19.976,49.914 19.941,49.844 19.905,49.775 C19.834,49.775 19.763,49.775 19.692,49.775 C19.621,49.671 19.550,49.567 19.479,49.463 C19.301,49.324 19.123,49.186 18.946,49.047 C18.452,48.361 18.264,47.254 18.626,46.342 C18.626,46.238 18.626,46.134 18.626,46.030 C18.661,46.030 18.697,46.030 18.732,46.030 C18.732,45.960 18.732,45.891 18.732,45.821 C18.803,45.787 18.875,45.752 18.946,45.717 C18.946,45.648 18.946,45.579 18.946,45.509 C19.159,45.336 19.372,45.162 19.585,44.989 C19.621,44.920 19.657,44.850 19.692,44.781 C19.763,44.781 19.834,44.781 19.905,44.781 C19.941,44.712 19.976,44.642 20.012,44.573 C20.332,44.469 20.652,44.365 20.972,44.261 ZM10.628,46.030 C10.841,46.030 11.054,46.030 11.267,46.030 C11.267,46.064 11.267,46.099 11.267,46.134 C11.505,46.195 11.536,46.220 11.694,46.342 C11.694,46.376 11.694,46.411 11.694,46.446 C11.765,46.446 11.836,46.446 11.907,46.446 C12.405,46.966 12.903,47.486 13.400,48.006 C13.471,48.006 13.542,48.006 13.614,48.006 C14.147,48.561 14.680,49.116 15.213,49.671 C15.284,49.671 15.355,49.671 15.426,49.671 C15.462,49.740 15.498,49.810 15.533,49.879 C15.711,50.018 15.889,50.157 16.066,50.295 C16.386,50.642 16.706,50.989 17.026,51.336 C17.097,51.336 17.168,51.336 17.239,51.336 C17.737,51.856 18.235,52.376 18.732,52.896 C18.803,52.896 18.875,52.896 18.946,52.896 C18.981,52.966 19.017,53.035 19.052,53.105 C19.088,53.105 19.123,53.105 19.159,53.105 C19.621,53.590 20.083,54.076 20.545,54.561 C20.616,54.561 20.687,54.561 20.759,54.561 C20.794,54.630 20.830,54.700 20.865,54.769 C21.112,54.997 21.350,55.294 21.718,55.393 C21.967,55.116 22.216,54.839 22.465,54.561 C22.536,54.561 22.607,54.561 22.678,54.561 C23.211,54.006 23.745,53.451 24.278,52.896 C24.349,52.896 24.420,52.896 24.491,52.896 C24.704,52.654 24.918,52.411 25.131,52.168 C25.664,51.717 26.197,51.266 26.730,50.816 C27.086,50.434 27.441,50.053 27.797,49.671 C27.868,49.671 27.939,49.671 28.010,49.671 C28.543,49.116 29.077,48.561 29.610,48.006 C29.681,48.006 29.752,48.006 29.823,48.006 C30.321,47.486 30.818,46.966 31.316,46.446 C31.556,46.277 31.774,46.245 31.956,46.030 C32.169,46.030 32.382,46.030 32.596,46.030 C32.596,46.064 32.596,46.099 32.596,46.134 C32.702,46.134 32.809,46.134 32.916,46.134 C32.951,46.203 32.987,46.272 33.022,46.342 C33.307,46.584 33.591,46.827 33.875,47.070 C33.875,47.139 33.875,47.209 33.875,47.278 C33.982,47.347 34.089,47.417 34.195,47.486 C34.353,47.644 34.446,47.866 34.622,48.006 C34.600,49.406 33.533,49.693 32.809,50.399 C32.489,50.746 32.169,51.093 31.849,51.440 C31.778,51.440 31.707,51.440 31.636,51.440 C31.138,51.960 30.641,52.480 30.143,53.000 C30.072,53.000 30.001,53.000 29.930,53.000 C29.645,53.313 29.361,53.625 29.077,53.937 C28.863,54.110 28.650,54.284 28.437,54.457 C28.401,54.526 28.366,54.596 28.330,54.665 C28.259,54.665 28.188,54.665 28.117,54.665 C27.832,54.977 27.548,55.289 27.264,55.602 C26.624,56.156 25.984,56.711 25.344,57.266 C25.344,57.509 25.344,57.752 25.344,57.995 C25.309,57.995 25.273,57.995 25.237,57.995 C25.237,58.272 25.237,58.549 25.237,58.827 C25.202,58.827 25.166,58.827 25.131,58.827 C25.131,59.139 25.131,59.451 25.131,59.763 C25.095,59.763 25.060,59.763 25.024,59.763 C25.024,60.041 25.024,60.318 25.024,60.596 C24.989,60.596 24.953,60.596 24.918,60.596 C24.918,60.873 24.918,61.151 24.918,61.428 C24.882,61.428 24.846,61.428 24.811,61.428 C24.811,61.740 24.811,62.052 24.811,62.364 C24.775,62.364 24.740,62.364 24.704,62.364 C24.704,62.642 24.704,62.919 24.704,63.197 C24.669,63.197 24.633,63.197 24.598,63.197 C24.598,63.474 24.598,63.752 24.598,64.029 C24.562,64.029 24.527,64.029 24.491,64.029 C24.491,64.341 24.491,64.653 24.491,64.965 C24.455,64.965 24.420,64.965 24.384,64.965 C24.384,65.243 24.384,65.520 24.384,65.798 C24.349,65.798 24.313,65.798 24.278,65.798 C24.278,66.075 24.278,66.353 24.278,66.630 C24.242,66.630 24.207,66.630 24.171,66.630 C24.171,66.908 24.171,67.185 24.171,67.463 C24.136,67.463 24.100,67.463 24.064,67.463 C24.064,67.775 24.064,68.087 24.064,68.399 C24.029,68.399 23.993,68.399 23.958,68.399 C23.958,68.676 23.958,68.954 23.958,69.231 C23.837,69.640 23.757,70.158 23.744,70.688 C23.644,70.744 23.425,71.000 23.425,71.000 C22.287,71.000 21.149,71.000 20.012,71.000 C19.891,70.882 20.012,70.959 19.799,70.896 C19.763,70.792 19.728,70.688 19.692,70.584 C19.416,70.273 19.621,69.812 19.479,69.335 C19.443,69.335 19.408,69.335 19.372,69.335 C19.372,69.093 19.372,68.850 19.372,68.607 C19.337,68.607 19.301,68.607 19.266,68.607 C19.266,68.399 19.266,68.191 19.266,67.983 C19.230,67.983 19.194,67.983 19.159,67.983 C19.159,67.740 19.159,67.497 19.159,67.254 C18.830,66.154 18.846,64.714 18.519,63.613 C18.519,63.370 18.519,63.127 18.519,62.885 C18.338,62.280 18.270,61.398 18.092,60.804 C18.092,60.561 18.092,60.318 18.092,60.075 C17.836,59.217 17.683,58.101 17.666,57.058 C16.955,56.434 16.244,55.810 15.533,55.185 C15.391,55.012 15.249,54.839 15.106,54.665 C15.035,54.665 14.964,54.665 14.893,54.665 C14.360,54.110 13.827,53.555 13.294,53.000 C13.222,53.000 13.151,53.000 13.080,53.000 C12.867,52.758 12.654,52.515 12.440,52.272 C12.227,52.099 12.014,51.925 11.801,51.752 C11.730,51.648 11.658,51.544 11.587,51.440 C11.516,51.440 11.445,51.440 11.374,51.440 C11.125,51.162 10.876,50.885 10.628,50.607 C9.988,50.053 9.348,49.498 8.708,48.943 C8.672,48.631 8.637,48.318 8.601,48.006 C8.777,47.866 8.870,47.644 9.028,47.486 C9.135,47.417 9.241,47.347 9.348,47.278 C9.348,47.209 9.348,47.139 9.348,47.070 C9.632,46.827 9.917,46.584 10.201,46.342 C10.237,46.272 10.272,46.203 10.308,46.134 C10.414,46.134 10.521,46.134 10.628,46.134 C10.628,46.099 10.628,46.064 10.628,46.030 Z"/>
</svg>
