<svg 
 xmlns="http://www.w3.org/2000/svg"
 xmlns:xlink="http://www.w3.org/1999/xlink"
 width="75px" height="75px">
<path fill-rule="evenodd"  fill="rgb(0, 1, 1)"
 d="M57.070,15.256 C57.175,15.689 57.312,15.586 57.362,15.695 C57.362,15.890 57.362,16.085 57.362,16.280 C57.411,16.280 57.460,16.280 57.509,16.280 C57.509,17.596 57.509,18.913 57.509,20.229 C57.557,20.229 57.606,20.229 57.655,20.229 C58.022,19.684 58.710,19.571 59.265,19.205 C59.313,19.108 59.362,19.010 59.411,18.913 C59.606,18.864 59.801,18.815 59.996,18.766 C60.045,18.669 60.094,18.571 60.143,18.474 C60.240,18.474 60.338,18.474 60.435,18.474 C60.484,18.376 60.533,18.279 60.582,18.181 C60.777,18.133 60.972,18.084 61.167,18.035 C61.216,17.938 61.265,17.840 61.313,17.743 C61.411,17.743 61.508,17.743 61.606,17.743 C61.655,17.645 61.704,17.548 61.752,17.450 C61.947,17.401 62.143,17.353 62.338,17.304 C62.338,17.255 62.338,17.206 62.338,17.158 C62.484,17.109 62.630,17.060 62.777,17.011 C62.825,16.914 62.874,16.816 62.923,16.719 C63.118,16.670 63.313,16.621 63.508,16.573 C63.557,16.475 63.606,16.378 63.655,16.280 C63.752,16.280 63.850,16.280 63.947,16.280 C63.996,16.183 64.045,16.085 64.094,15.988 C64.191,15.988 64.289,15.988 64.386,15.988 C64.386,15.939 64.386,15.890 64.386,15.841 C64.484,15.841 64.581,15.841 64.679,15.841 C64.679,15.793 64.679,15.744 64.679,15.695 C64.728,15.695 64.777,15.695 64.825,15.695 C64.825,15.646 64.825,15.598 64.825,15.549 C64.874,15.549 64.923,15.549 64.972,15.549 C64.972,10.625 64.972,5.700 64.972,0.777 C65.223,0.612 65.170,0.684 65.264,0.338 C65.459,0.289 65.655,0.241 65.850,0.192 C65.850,0.143 65.850,0.094 65.850,0.046 C66.679,0.046 67.508,0.046 68.337,0.046 C70.287,0.046 72.632,-0.117 74.337,0.192 C74.451,0.401 74.742,0.779 74.922,0.923 C74.922,9.210 74.922,17.500 74.922,25.787 C74.922,27.639 74.922,29.492 74.922,31.345 C74.922,32.394 75.002,33.293 74.191,33.538 C73.780,33.895 72.254,33.685 71.557,33.685 C69.216,33.685 66.874,33.685 64.533,33.685 C58.143,33.685 51.752,33.685 45.363,33.685 C43.363,33.685 41.363,33.685 39.363,33.685 C38.050,33.685 36.498,33.734 35.412,33.538 C35.274,33.275 35.210,33.308 35.120,32.953 C34.777,32.570 34.973,31.132 34.973,30.467 C34.973,28.420 34.973,26.372 34.973,24.324 C34.973,23.708 34.808,22.481 35.120,22.130 C35.358,21.293 36.085,21.240 36.729,20.814 C36.778,20.717 36.827,20.619 36.876,20.522 C37.071,20.473 37.266,20.424 37.461,20.375 C37.510,20.278 37.559,20.180 37.607,20.083 C37.705,20.083 37.803,20.083 37.900,20.083 C37.949,19.985 37.998,19.888 38.046,19.790 C38.242,19.742 38.437,19.693 38.632,19.644 C38.681,19.547 38.729,19.449 38.778,19.352 C38.876,19.352 38.973,19.352 39.071,19.352 C39.120,19.254 39.168,19.156 39.217,19.059 C39.412,19.010 39.607,18.961 39.802,18.913 C39.851,18.815 39.900,18.718 39.949,18.620 C40.046,18.620 40.144,18.620 40.241,18.620 C40.290,18.523 40.339,18.425 40.388,18.328 C40.583,18.279 40.778,18.230 40.973,18.181 C40.973,18.133 40.973,18.084 40.973,18.035 C41.119,17.986 41.266,17.938 41.412,17.889 C41.461,17.791 41.510,17.694 41.558,17.596 C41.754,17.548 41.949,17.499 42.144,17.450 C42.193,17.353 42.241,17.255 42.290,17.158 C42.388,17.158 42.485,17.158 42.583,17.158 C42.632,17.060 42.680,16.963 42.729,16.865 C42.827,16.865 42.924,16.865 43.022,16.865 C43.071,16.768 43.119,16.670 43.168,16.573 C43.363,16.524 43.558,16.475 43.753,16.426 C43.802,16.329 43.851,16.231 43.900,16.134 C44.631,15.744 45.363,15.354 46.095,14.964 C46.095,14.964 46.557,15.104 46.826,15.110 C46.941,15.320 47.232,15.697 47.412,15.841 C47.412,17.304 47.412,18.767 47.412,20.229 C47.461,20.229 47.509,20.229 47.558,20.229 C47.831,19.920 48.224,19.881 48.582,19.644 C48.631,19.547 48.680,19.449 48.729,19.352 C48.826,19.352 48.924,19.352 49.021,19.352 C49.021,19.303 49.021,19.254 49.021,19.205 C49.119,19.205 49.217,19.205 49.314,19.205 C49.314,19.157 49.314,19.108 49.314,19.059 C49.460,19.010 49.607,18.961 49.753,18.913 C49.802,18.815 49.851,18.718 49.899,18.620 C50.094,18.571 50.290,18.523 50.485,18.474 C50.533,18.376 50.582,18.279 50.631,18.181 C50.729,18.181 50.826,18.181 50.924,18.181 C50.972,18.084 51.021,17.986 51.070,17.889 C51.265,17.840 51.460,17.791 51.655,17.743 C51.704,17.645 51.753,17.548 51.802,17.450 C51.899,17.450 51.997,17.450 52.094,17.450 C52.143,17.353 52.192,17.255 52.241,17.158 C52.436,17.109 52.631,17.060 52.826,17.011 C52.826,16.963 52.826,16.914 52.826,16.865 C52.972,16.816 53.119,16.768 53.265,16.719 C53.314,16.621 53.363,16.524 53.411,16.426 C53.606,16.378 53.802,16.329 53.997,16.280 C54.045,16.183 54.094,16.085 54.143,15.988 C54.241,15.988 54.338,15.988 54.436,15.988 C54.484,15.890 54.533,15.793 54.582,15.695 C54.777,15.646 54.972,15.598 55.167,15.549 C55.216,15.451 55.265,15.354 55.314,15.256 C55.558,15.208 55.801,15.159 56.045,15.110 C56.045,15.061 56.045,15.013 56.045,14.964 C56.387,15.061 56.728,15.159 57.070,15.256 ZM67.459,2.532 C67.459,7.943 67.459,13.356 67.459,18.766 C69.118,18.766 70.776,18.766 72.435,18.766 C72.435,13.356 72.435,7.943 72.435,2.532 C70.776,2.532 69.118,2.532 67.459,2.532 ZM37.607,5.018 C38.485,5.067 39.364,5.116 40.241,5.165 C40.144,5.993 40.046,6.822 39.949,7.651 C39.168,7.602 38.388,7.554 37.607,7.505 C37.607,6.676 37.607,5.847 37.607,5.018 ZM34.973,5.165 C35.037,5.877 35.118,6.750 35.120,7.651 C34.339,7.700 33.559,7.749 32.778,7.797 C32.681,7.017 32.583,6.237 32.486,5.457 C33.240,5.326 34.111,5.179 34.973,5.165 ZM42.729,5.457 C43.559,5.601 44.264,5.864 45.217,5.896 C45.070,6.725 44.924,7.554 44.778,8.382 C43.997,8.236 43.217,8.090 42.436,7.944 C42.534,7.115 42.632,6.286 42.729,5.457 ZM30.437,8.382 C29.609,8.525 28.977,8.872 28.096,8.967 C28.036,8.130 27.656,7.316 27.364,6.627 C27.462,6.627 27.559,6.627 27.657,6.627 C27.657,6.578 27.657,6.530 27.657,6.481 C27.998,6.432 28.340,6.383 28.681,6.335 C28.681,6.286 28.681,6.237 28.681,6.188 C28.876,6.188 29.071,6.188 29.267,6.188 C29.267,6.140 29.267,6.091 29.267,6.042 C29.413,6.042 29.559,6.042 29.706,6.042 C29.706,5.993 29.706,5.945 29.706,5.896 C29.905,5.840 29.712,5.942 29.852,6.042 C30.017,6.226 30.401,7.991 30.437,8.382 ZM47.704,6.773 C48.572,6.837 49.471,7.344 50.192,7.651 C50.030,8.489 49.501,9.038 49.314,9.845 C48.377,9.772 47.823,9.296 46.973,9.114 C46.973,9.065 46.973,9.016 46.973,8.967 C47.217,8.721 47.657,7.263 47.704,6.773 ZM25.023,7.651 C25.127,8.144 25.990,9.630 25.755,9.845 C25.422,10.219 25.207,10.070 24.730,10.284 C24.730,10.332 24.730,10.381 24.730,10.430 C24.365,10.609 24.045,10.715 23.706,10.869 C23.515,9.956 22.808,9.561 22.682,8.529 C23.551,8.354 24.055,7.769 25.023,7.651 ZM52.533,8.821 C52.853,8.885 53.042,8.955 53.265,9.114 C53.265,9.162 53.265,9.211 53.265,9.260 C53.460,9.309 53.655,9.357 53.850,9.406 C53.899,9.504 53.948,9.601 53.997,9.699 C54.094,9.699 54.192,9.699 54.289,9.699 C54.289,9.747 54.289,9.796 54.289,9.845 C54.436,9.894 54.582,9.942 54.728,9.991 C54.644,10.285 54.746,10.118 54.582,10.284 C54.493,10.747 53.718,11.939 53.411,12.185 C52.894,11.616 51.731,11.548 51.509,10.722 C51.839,10.431 52.325,9.280 52.533,8.821 ZM20.487,9.991 C20.643,10.607 21.650,11.723 21.511,12.039 C21.296,12.389 20.211,13.096 19.755,13.209 C19.755,13.258 19.755,13.306 19.755,13.355 C19.706,13.355 19.657,13.355 19.609,13.355 C19.609,13.306 19.609,13.258 19.609,13.209 C19.303,12.961 19.258,12.664 19.023,12.331 C18.926,12.282 18.828,12.234 18.731,12.185 C18.682,12.039 18.633,11.892 18.584,11.746 C18.535,11.746 18.487,11.746 18.438,11.746 C18.389,11.600 18.340,11.454 18.292,11.307 C18.981,10.934 19.642,10.103 20.487,9.991 ZM17.706,15.110 C17.609,15.110 17.511,15.110 17.414,15.110 C17.190,15.514 16.441,16.300 15.950,16.426 C15.530,15.720 14.575,15.541 14.341,14.671 C15.053,14.253 15.384,13.295 16.243,13.062 C16.243,13.111 16.243,13.160 16.243,13.209 C16.688,13.456 17.633,14.503 17.706,15.110 ZM12.438,16.719 C13.202,17.069 13.642,17.772 14.341,18.181 C14.257,18.475 14.358,18.308 14.194,18.474 C14.031,19.129 13.346,19.652 13.024,20.229 C12.975,20.229 12.926,20.229 12.877,20.229 C12.877,20.180 12.877,20.132 12.877,20.083 C12.689,19.986 12.678,19.853 12.585,19.790 C12.487,19.790 12.389,19.790 12.292,19.790 C12.243,19.693 12.194,19.595 12.146,19.498 C12.048,19.498 11.950,19.498 11.853,19.498 C11.755,19.352 11.658,19.205 11.560,19.059 C11.463,19.059 11.365,19.059 11.268,19.059 C11.170,18.913 11.072,18.766 10.975,18.620 C11.332,18.391 11.064,18.456 11.268,18.181 C11.463,18.035 11.658,17.889 11.853,17.743 C11.853,17.645 11.853,17.548 11.853,17.450 C11.950,17.401 12.048,17.353 12.146,17.304 C12.243,17.109 12.341,16.914 12.438,16.719 ZM37.461,31.198 C39.949,31.198 42.437,31.198 44.924,31.198 C44.924,27.006 44.924,22.812 44.924,18.620 C44.778,18.669 44.631,18.718 44.485,18.766 C44.485,18.815 44.485,18.864 44.485,18.913 C44.388,18.913 44.290,18.913 44.192,18.913 C44.144,19.010 44.095,19.108 44.046,19.205 C43.851,19.254 43.656,19.303 43.461,19.352 C43.412,19.449 43.363,19.547 43.314,19.644 C43.217,19.644 43.119,19.644 43.022,19.644 C42.973,19.742 42.924,19.839 42.875,19.937 C42.680,19.985 42.485,20.034 42.290,20.083 C42.241,20.180 42.193,20.278 42.144,20.375 C42.046,20.375 41.949,20.375 41.851,20.375 C41.802,20.473 41.754,20.570 41.705,20.668 C41.510,20.717 41.315,20.765 41.119,20.814 C41.071,20.912 41.022,21.009 40.973,21.107 C40.876,21.107 40.778,21.107 40.680,21.107 C40.632,21.204 40.583,21.302 40.534,21.399 C40.339,21.448 40.144,21.497 39.949,21.545 C39.949,21.594 39.949,21.643 39.949,21.692 C39.802,21.740 39.656,21.789 39.510,21.838 C39.461,21.935 39.412,22.033 39.363,22.130 C39.168,22.179 38.973,22.228 38.778,22.277 C38.729,22.374 38.681,22.472 38.632,22.569 C38.242,22.764 37.851,22.959 37.461,23.154 C37.461,25.835 37.461,28.517 37.461,31.198 ZM47.412,23.154 C47.412,25.835 47.412,28.517 47.412,31.198 C49.899,31.198 52.387,31.198 54.875,31.198 C54.875,27.006 54.875,22.812 54.875,18.620 C54.826,18.620 54.777,18.620 54.728,18.620 C54.453,18.929 54.054,18.974 53.704,19.205 C53.655,19.303 53.606,19.400 53.558,19.498 C53.460,19.498 53.363,19.498 53.265,19.498 C53.265,19.547 53.265,19.595 53.265,19.644 C53.167,19.644 53.070,19.644 52.972,19.644 C52.972,19.693 52.972,19.742 52.972,19.790 C52.826,19.839 52.680,19.888 52.533,19.937 C52.485,20.034 52.436,20.132 52.387,20.229 C52.192,20.278 51.997,20.327 51.802,20.375 C51.753,20.473 51.704,20.570 51.655,20.668 C51.558,20.668 51.460,20.668 51.363,20.668 C51.314,20.765 51.265,20.863 51.216,20.960 C51.021,21.009 50.826,21.058 50.631,21.107 C50.582,21.204 50.533,21.302 50.485,21.399 C50.387,21.399 50.290,21.399 50.192,21.399 C50.143,21.497 50.095,21.594 50.046,21.692 C49.851,21.740 49.655,21.789 49.460,21.838 C49.460,21.887 49.460,21.935 49.460,21.984 C49.314,22.033 49.168,22.082 49.021,22.130 C48.973,22.228 48.924,22.325 48.875,22.423 C48.680,22.472 48.485,22.520 48.290,22.569 C48.241,22.667 48.192,22.764 48.143,22.862 C48.046,22.862 47.948,22.862 47.851,22.862 C47.851,22.910 47.851,22.959 47.851,23.008 C47.704,23.057 47.558,23.105 47.412,23.154 ZM57.509,31.198 C59.996,31.198 62.484,31.198 64.972,31.198 C64.972,27.006 64.972,22.812 64.972,18.620 C64.454,18.726 64.309,18.995 63.947,19.205 C63.850,19.205 63.752,19.205 63.655,19.205 C63.606,19.303 63.557,19.400 63.508,19.498 C63.411,19.498 63.313,19.498 63.216,19.498 C63.167,19.595 63.118,19.693 63.069,19.790 C62.874,19.839 62.679,19.888 62.484,19.937 C62.435,20.034 62.386,20.132 62.338,20.229 C62.240,20.229 62.143,20.229 62.045,20.229 C61.996,20.327 61.947,20.424 61.899,20.522 C61.704,20.570 61.508,20.619 61.313,20.668 C61.265,20.765 61.216,20.863 61.167,20.960 C61.069,20.960 60.972,20.960 60.874,20.960 C60.826,21.058 60.777,21.155 60.728,21.253 C60.533,21.302 60.338,21.350 60.143,21.399 C60.143,21.448 60.143,21.497 60.143,21.545 C59.996,21.594 59.850,21.643 59.704,21.692 C59.655,21.789 59.606,21.887 59.557,21.984 C59.362,22.033 59.167,22.082 58.972,22.130 C58.923,22.228 58.874,22.325 58.826,22.423 C58.728,22.423 58.631,22.423 58.533,22.423 C58.484,22.520 58.435,22.618 58.387,22.715 C58.289,22.715 58.192,22.715 58.094,22.715 C58.094,22.764 58.094,22.813 58.094,22.862 C57.996,22.862 57.899,22.862 57.801,22.862 C57.801,22.910 57.801,22.959 57.801,23.008 C57.753,23.008 57.704,23.008 57.655,23.008 C57.655,23.057 57.655,23.105 57.655,23.154 C57.606,23.154 57.557,23.154 57.509,23.154 C57.509,25.835 57.509,28.517 57.509,31.198 ZM8.341,23.300 C8.515,22.397 9.146,21.743 9.512,20.960 C9.658,21.009 9.804,21.058 9.951,21.107 C9.951,21.155 9.951,21.204 9.951,21.253 C10.048,21.253 10.146,21.253 10.243,21.253 C10.292,21.350 10.341,21.448 10.390,21.545 C10.585,21.594 10.780,21.643 10.975,21.692 C11.024,21.789 11.073,21.887 11.121,21.984 C11.386,22.155 11.455,21.978 11.707,22.277 C11.343,22.598 11.378,23.037 11.121,23.447 C11.024,23.495 10.926,23.544 10.829,23.593 C10.829,23.690 10.829,23.788 10.829,23.885 C10.780,23.885 10.731,23.885 10.682,23.885 C10.634,24.032 10.585,24.178 10.536,24.324 C9.802,24.005 9.172,23.489 8.341,23.300 ZM67.459,21.253 C67.459,24.568 67.459,27.883 67.459,31.198 C69.118,31.198 70.776,31.198 72.435,31.198 C72.435,27.883 72.435,24.568 72.435,21.253 C70.776,21.253 69.118,21.253 67.459,21.253 ZM39.949,25.055 C40.778,25.055 41.607,25.055 42.436,25.055 C42.436,26.274 42.436,27.493 42.436,28.712 C41.607,28.712 40.778,28.712 39.949,28.712 C39.949,27.493 39.949,26.274 39.949,25.055 ZM49.899,25.055 C50.729,25.055 51.558,25.055 52.387,25.055 C52.387,26.274 52.387,27.493 52.387,28.712 C51.558,28.712 50.729,28.712 49.899,28.712 C49.899,27.493 49.899,26.274 49.899,25.055 ZM59.996,25.055 C60.825,25.055 61.655,25.055 62.484,25.055 C62.484,26.274 62.484,27.493 62.484,28.712 C61.655,28.712 60.825,28.712 59.996,28.712 C59.996,27.493 59.996,26.274 59.996,25.055 ZM25.023,33.685 C26.535,33.685 28.047,33.685 29.559,33.685 C30.275,33.685 31.248,33.602 31.754,33.831 C32.344,34.098 33.175,35.251 33.656,35.732 C34.827,36.853 35.998,37.975 37.168,39.096 C37.656,39.632 38.144,40.169 38.632,40.705 C38.821,44.434 39.142,49.813 38.485,53.283 C38.339,53.332 38.193,53.380 38.046,53.429 C38.046,53.478 38.046,53.527 38.046,53.575 C37.949,53.575 37.851,53.575 37.754,53.575 C37.754,53.624 37.754,53.673 37.754,53.722 C36.925,54.023 35.413,53.348 34.827,53.868 C34.464,54.205 34.721,54.195 34.534,54.599 C34.486,54.599 34.437,54.599 34.388,54.599 C34.388,54.697 34.388,54.794 34.388,54.892 C34.339,54.892 34.291,54.892 34.242,54.892 C34.242,54.989 34.242,55.087 34.242,55.184 C34.095,55.282 33.949,55.379 33.803,55.477 C33.803,55.574 33.803,55.672 33.803,55.769 C33.608,55.916 33.413,56.062 33.217,56.208 C33.217,56.257 33.217,56.306 33.217,56.354 C33.120,56.354 33.022,56.354 32.925,56.354 C32.876,56.452 32.827,56.549 32.778,56.647 C32.681,56.647 32.583,56.647 32.486,56.647 C32.437,56.744 32.388,56.842 32.339,56.939 C32.096,56.988 31.852,57.037 31.608,57.086 C28.774,58.212 25.648,56.285 25.169,53.722 C21.706,53.722 18.242,53.722 14.780,53.722 C14.511,55.260 12.997,56.722 11.707,57.232 C11.512,57.232 11.316,57.232 11.121,57.232 C8.610,58.027 5.471,56.107 5.268,53.722 C3.733,53.733 1.885,53.814 0.585,53.575 C0.471,53.366 0.180,52.989 0.000,52.844 C0.000,46.263 0.000,39.680 0.000,33.100 C0.000,31.101 0.000,29.102 0.000,27.103 C0.049,27.103 0.098,27.103 0.146,27.103 C0.146,27.006 0.146,26.908 0.146,26.811 C0.293,26.713 0.439,26.616 0.585,26.518 C1.133,25.974 4.393,26.226 5.561,26.226 C10.194,26.226 14.829,26.226 19.462,26.226 C20.989,26.226 24.392,25.827 24.730,26.957 C25.099,27.328 25.022,28.115 25.023,28.858 C25.023,30.467 25.023,32.076 25.023,33.685 ZM2.488,28.712 C2.488,33.294 2.488,37.878 2.488,42.460 C9.170,42.460 15.853,42.460 22.535,42.460 C22.535,37.926 22.535,33.392 22.535,28.858 C21.347,28.425 17.973,28.712 16.389,28.712 C11.756,28.712 7.121,28.712 2.488,28.712 ZM25.023,36.171 C25.031,38.886 25.000,41.878 24.877,44.361 C24.667,44.476 24.290,44.766 24.145,44.946 C16.927,44.946 9.706,44.946 2.488,44.946 C2.488,47.042 2.488,49.139 2.488,51.235 C3.366,51.235 4.244,51.235 5.122,51.235 C5.537,50.159 5.821,49.621 6.585,48.895 C6.634,48.798 6.683,48.700 6.731,48.603 C6.829,48.603 6.926,48.603 7.024,48.603 C7.122,48.456 7.219,48.310 7.317,48.164 C7.414,48.164 7.512,48.164 7.609,48.164 C7.609,48.115 7.609,48.066 7.609,48.018 C7.804,47.969 8.000,47.920 8.195,47.871 C8.195,47.823 8.195,47.774 8.195,47.725 C8.390,47.725 8.585,47.725 8.780,47.725 C11.531,46.843 14.345,48.874 14.780,51.235 C18.242,51.235 21.706,51.235 25.169,51.235 C25.786,47.967 30.120,46.368 33.071,48.456 C33.120,48.554 33.169,48.651 33.217,48.749 C33.461,48.944 33.705,49.139 33.949,49.334 C33.949,49.432 33.949,49.529 33.949,49.627 C34.047,49.675 34.144,49.724 34.242,49.773 C34.242,49.870 34.242,49.968 34.242,50.065 C34.291,50.065 34.339,50.065 34.388,50.065 C34.534,50.455 34.681,50.845 34.827,51.235 C35.266,51.235 35.705,51.235 36.144,51.235 C36.144,48.018 36.144,44.800 36.144,41.582 C34.730,40.218 33.315,38.852 31.900,37.487 C31.510,37.049 31.120,36.610 30.730,36.171 C28.828,36.171 26.925,36.171 25.023,36.171 ZM67.459,36.171 C68.240,36.171 69.020,36.171 69.801,36.171 C69.935,36.527 69.952,37.077 69.947,37.634 C69.898,37.634 69.849,37.634 69.801,37.634 C69.801,38.024 69.801,38.414 69.801,38.804 C68.971,38.755 68.142,38.706 67.313,38.657 C67.362,37.829 67.411,37.000 67.459,36.171 ZM67.020,40.997 C67.849,41.144 68.679,41.290 69.508,41.436 C69.362,42.265 69.215,43.094 69.069,43.923 C68.612,43.896 66.966,43.570 66.728,43.338 C66.561,43.171 66.669,43.337 66.581,43.045 C66.771,42.837 67.004,41.440 67.020,40.997 ZM65.850,45.678 C66.630,45.921 67.411,46.165 68.191,46.409 C68.124,47.350 67.651,48.164 67.313,48.895 C66.646,48.603 65.936,48.114 65.118,48.018 C65.362,47.238 65.606,46.458 65.850,45.678 ZM9.804,49.919 C9.365,50.065 8.926,50.212 8.487,50.358 C8.038,51.089 7.212,51.665 7.609,52.844 C7.609,53.039 7.609,53.234 7.609,53.429 C7.658,53.429 7.707,53.429 7.756,53.429 C8.046,54.690 9.200,54.933 10.829,54.892 C11.274,54.395 11.936,54.374 12.146,53.575 C12.510,53.220 12.454,52.405 12.438,51.674 C12.175,51.448 12.095,51.044 11.853,50.797 C11.512,50.553 11.170,50.309 10.829,50.065 C10.487,50.017 10.146,49.968 9.804,49.919 ZM29.706,49.919 C29.706,49.968 29.706,50.017 29.706,50.065 C29.510,50.065 29.315,50.065 29.120,50.065 C29.120,50.114 29.120,50.163 29.120,50.212 C28.501,50.327 27.948,50.794 27.803,51.382 C27.174,51.981 27.658,53.209 27.803,53.868 C28.160,54.067 28.287,54.427 28.535,54.599 C28.779,54.768 28.870,54.597 29.120,54.892 C29.904,54.899 30.556,54.807 31.169,54.745 C31.169,54.697 31.169,54.648 31.169,54.599 C31.315,54.550 31.462,54.502 31.608,54.453 C31.657,54.355 31.705,54.258 31.754,54.160 C31.803,54.160 31.852,54.160 31.900,54.160 C32.306,53.602 32.484,52.940 32.486,51.967 C32.437,51.967 32.388,51.967 32.339,51.967 C32.291,51.723 32.242,51.479 32.193,51.235 C32.144,51.235 32.096,51.235 32.047,51.235 C32.047,51.138 32.047,51.040 32.047,50.943 C31.949,50.894 31.852,50.845 31.754,50.797 C31.209,50.226 30.734,50.005 29.706,49.919 ZM63.947,50.065 C64.728,50.455 65.508,50.845 66.289,51.235 C65.850,51.967 65.411,52.698 64.972,53.429 C64.581,53.234 64.191,53.039 63.801,52.844 C63.752,52.747 63.703,52.649 63.655,52.552 C63.557,52.552 63.460,52.552 63.362,52.552 C63.362,52.503 63.362,52.454 63.362,52.405 C63.216,52.357 63.069,52.308 62.923,52.259 C63.102,51.358 63.743,50.948 63.947,50.065 ZM51.363,58.841 C51.745,58.734 51.833,58.611 52.094,58.402 C52.094,58.353 52.094,58.304 52.094,58.256 C52.615,57.910 54.885,57.154 56.045,57.524 C56.045,57.573 56.045,57.622 56.045,57.671 C56.338,57.719 56.631,57.768 56.923,57.817 C56.923,57.866 56.923,57.914 56.923,57.963 C57.118,58.012 57.314,58.061 57.509,58.109 C57.509,58.158 57.509,58.207 57.509,58.256 C57.606,58.256 57.704,58.256 57.801,58.256 C57.801,58.304 57.801,58.353 57.801,58.402 C58.063,58.610 58.151,58.735 58.533,58.841 C58.639,59.223 58.763,59.311 58.972,59.572 C59.021,59.572 59.070,59.572 59.118,59.572 C59.118,59.669 59.118,59.767 59.118,59.864 C59.167,59.864 59.216,59.864 59.265,59.864 C59.362,60.157 59.460,60.450 59.557,60.742 C59.606,60.742 59.655,60.742 59.704,60.742 C59.704,60.888 59.704,61.035 59.704,61.181 C59.752,61.181 59.801,61.181 59.850,61.181 C60.091,61.931 59.820,63.962 59.557,64.545 C59.509,64.545 59.460,64.545 59.411,64.545 C59.411,64.642 59.411,64.740 59.411,64.837 C59.362,64.837 59.313,64.837 59.265,64.837 C59.216,64.983 59.167,65.130 59.118,65.276 C59.592,65.388 59.962,65.792 60.289,65.568 C60.555,65.340 60.415,65.277 60.582,64.983 C60.630,64.983 60.679,64.983 60.728,64.983 C60.728,64.886 60.728,64.788 60.728,64.691 C60.874,64.593 61.021,64.496 61.167,64.398 C61.167,64.301 61.167,64.203 61.167,64.106 C61.313,64.008 61.460,63.911 61.606,63.813 C61.606,63.765 61.606,63.716 61.606,63.667 C61.704,63.667 61.801,63.667 61.899,63.667 C61.996,63.521 62.094,63.375 62.191,63.228 C62.289,63.228 62.386,63.228 62.484,63.228 C62.484,63.180 62.484,63.131 62.484,63.082 C62.582,63.082 62.679,63.082 62.777,63.082 C62.777,63.033 62.777,62.985 62.777,62.936 C63.180,62.686 63.044,63.069 63.216,62.497 C62.802,62.150 62.131,59.924 62.484,58.841 C62.533,58.841 62.582,58.841 62.630,58.841 C62.679,58.548 62.728,58.256 62.777,57.963 C62.825,57.963 62.874,57.963 62.923,57.963 C62.972,57.768 63.021,57.573 63.069,57.378 C63.167,57.329 63.264,57.281 63.362,57.232 C63.362,57.134 63.362,57.037 63.362,56.939 C63.655,56.696 63.947,56.452 64.240,56.208 C64.289,56.111 64.338,56.013 64.386,55.916 C64.484,55.916 64.581,55.916 64.679,55.916 C64.728,55.818 64.777,55.721 64.825,55.623 C65.020,55.574 65.216,55.526 65.411,55.477 C65.411,55.428 65.411,55.379 65.411,55.331 C65.557,55.331 65.703,55.331 65.850,55.331 C65.850,55.282 65.850,55.233 65.850,55.184 C65.996,55.184 66.142,55.184 66.289,55.184 C66.289,55.136 66.289,55.087 66.289,55.038 C67.069,55.038 67.850,55.038 68.630,55.038 C68.630,55.087 68.630,55.136 68.630,55.184 C68.923,55.233 69.215,55.282 69.508,55.331 C69.508,55.379 69.508,55.428 69.508,55.477 C69.606,55.477 69.703,55.477 69.801,55.477 C69.849,55.574 69.898,55.672 69.947,55.769 C70.044,55.769 70.142,55.769 70.240,55.769 C70.288,55.867 70.337,55.964 70.386,56.062 C70.483,56.062 70.581,56.062 70.679,56.062 C70.679,56.111 70.679,56.159 70.679,56.208 C70.874,56.354 71.069,56.501 71.264,56.647 C71.264,56.744 71.264,56.842 71.264,56.939 C71.410,57.037 71.557,57.134 71.703,57.232 C71.752,57.427 71.801,57.622 71.849,57.817 C71.898,57.817 71.947,57.817 71.996,57.817 C71.996,57.914 71.996,58.012 71.996,58.109 C72.044,58.109 72.093,58.109 72.142,58.109 C72.142,58.256 72.142,58.402 72.142,58.548 C72.287,58.942 72.647,60.049 72.435,60.742 C72.214,61.461 71.852,62.154 71.557,62.790 C71.805,62.840 72.540,63.103 72.727,63.228 C72.874,63.423 73.020,63.618 73.166,63.813 C73.264,63.813 73.361,63.813 73.459,63.813 C73.508,63.960 73.556,64.106 73.605,64.252 C73.752,64.350 73.898,64.447 74.044,64.545 C74.044,64.642 74.044,64.740 74.044,64.837 C74.142,64.886 74.239,64.935 74.337,64.983 C74.337,65.081 74.337,65.178 74.337,65.276 C74.386,65.276 74.434,65.276 74.483,65.276 C74.483,65.373 74.483,65.471 74.483,65.568 C74.532,65.568 74.581,65.568 74.630,65.568 C74.630,65.715 74.630,65.861 74.630,66.007 C74.678,66.007 74.727,66.007 74.776,66.007 C75.146,67.054 74.985,70.748 74.776,71.857 C74.566,71.972 74.189,72.263 74.044,72.442 C70.191,72.442 66.337,72.442 62.484,72.442 C62.435,73.076 62.386,73.710 62.338,74.344 C62.128,74.458 61.751,74.749 61.606,74.929 C58.192,74.929 54.777,74.929 51.363,74.929 C50.014,74.929 48.226,75.205 47.704,74.344 C47.340,73.989 47.396,73.173 47.412,72.442 C44.973,72.442 42.534,72.442 40.095,72.442 C38.601,72.442 36.820,72.524 35.559,72.296 C35.444,72.087 35.153,71.710 34.973,71.565 C34.973,69.908 34.973,68.250 34.973,66.592 C35.022,66.592 35.071,66.592 35.120,66.592 C35.120,66.397 35.120,66.202 35.120,66.007 C35.169,66.007 35.217,66.007 35.266,66.007 C35.266,65.861 35.266,65.715 35.266,65.568 C35.315,65.568 35.364,65.568 35.412,65.568 C35.461,65.373 35.510,65.178 35.559,64.983 C35.608,64.983 35.656,64.983 35.705,64.983 C35.705,64.886 35.705,64.788 35.705,64.691 C35.851,64.593 35.998,64.496 36.144,64.398 C36.144,64.301 36.144,64.203 36.144,64.106 C36.193,64.106 36.242,64.106 36.290,64.106 C36.388,63.960 36.486,63.813 36.583,63.667 C36.681,63.667 36.778,63.667 36.876,63.667 C36.973,63.521 37.071,63.375 37.168,63.228 C37.568,62.965 38.016,63.007 38.339,62.643 C37.632,62.069 37.164,59.832 37.607,58.548 C37.656,58.548 37.705,58.548 37.754,58.548 C37.754,58.402 37.754,58.256 37.754,58.109 C37.803,58.109 37.851,58.109 37.900,58.109 C37.900,58.012 37.900,57.914 37.900,57.817 C37.949,57.817 37.998,57.817 38.046,57.817 C38.095,57.622 38.144,57.427 38.193,57.232 C38.339,57.134 38.485,57.037 38.632,56.939 C38.632,56.842 38.632,56.744 38.632,56.647 C38.827,56.501 39.022,56.354 39.217,56.208 C39.217,56.159 39.217,56.111 39.217,56.062 C39.315,56.062 39.412,56.062 39.510,56.062 C39.559,55.964 39.607,55.867 39.656,55.769 C39.754,55.769 39.851,55.769 39.949,55.769 C39.998,55.672 40.046,55.574 40.095,55.477 C40.193,55.477 40.290,55.477 40.388,55.477 C40.388,55.428 40.388,55.379 40.388,55.331 C40.680,55.282 40.973,55.233 41.266,55.184 C41.660,55.046 42.992,54.839 43.607,55.038 C45.576,55.675 46.816,56.967 47.412,58.987 C47.627,59.718 47.315,61.461 47.119,61.912 C47.070,61.912 47.022,61.912 46.973,61.912 C46.924,62.107 46.875,62.302 46.826,62.497 C46.778,62.497 46.729,62.497 46.680,62.497 C46.629,62.790 46.756,62.680 46.826,62.790 C47.157,63.165 47.866,63.360 48.290,63.667 C48.290,63.716 48.290,63.765 48.290,63.813 C48.436,63.911 48.582,64.008 48.729,64.106 C48.729,64.203 48.729,64.301 48.729,64.398 C48.875,64.496 49.021,64.593 49.168,64.691 C49.168,64.788 49.168,64.886 49.168,64.983 C49.217,64.983 49.265,64.983 49.314,64.983 C49.314,65.081 49.314,65.178 49.314,65.276 C49.363,65.276 49.412,65.276 49.460,65.276 C49.509,65.422 49.558,65.568 49.607,65.715 C49.901,65.631 49.733,65.732 49.899,65.568 C50.268,65.503 50.579,65.367 50.777,65.130 C50.033,64.501 49.688,61.895 50.192,60.742 C50.241,60.742 50.290,60.742 50.338,60.742 C50.436,60.450 50.534,60.157 50.631,59.864 C50.680,59.864 50.729,59.864 50.777,59.864 C50.777,59.767 50.777,59.669 50.777,59.572 C50.826,59.572 50.875,59.572 50.924,59.572 C51.133,59.310 51.254,59.222 51.363,58.841 ZM41.705,57.524 C41.705,57.573 41.705,57.622 41.705,57.671 C41.558,57.671 41.412,57.671 41.266,57.671 C40.976,58.106 40.549,58.093 40.388,58.694 C39.402,59.525 40.275,61.581 40.973,62.058 C41.219,62.227 41.302,62.066 41.558,62.351 C41.949,62.400 42.339,62.448 42.729,62.497 C43.469,62.314 44.446,61.775 44.631,61.034 C45.261,60.435 44.777,59.207 44.631,58.548 C44.388,58.353 44.144,58.158 43.900,57.963 C43.900,57.914 43.900,57.866 43.900,57.817 C43.385,57.475 42.567,57.520 41.705,57.524 ZM66.581,57.524 C66.136,58.021 65.474,58.042 65.264,58.841 C64.635,59.440 65.119,60.668 65.264,61.327 C65.621,61.526 65.748,61.886 65.996,62.058 C66.240,62.227 66.331,62.056 66.581,62.351 C67.173,62.394 67.927,62.590 68.337,62.205 C69.481,61.976 69.972,60.840 69.947,59.426 C69.898,59.426 69.849,59.426 69.801,59.426 C69.752,59.182 69.703,58.938 69.654,58.694 C69.557,58.646 69.459,58.597 69.362,58.548 C69.362,58.451 69.362,58.353 69.362,58.256 C69.264,58.207 69.167,58.158 69.069,58.109 C69.069,58.061 69.069,58.012 69.069,57.963 C68.971,57.963 68.874,57.963 68.776,57.963 C68.728,57.866 68.679,57.768 68.630,57.671 C68.209,57.451 67.216,57.515 66.581,57.524 ZM14.487,57.963 C15.179,58.142 15.393,58.803 15.950,59.133 C15.950,59.182 15.950,59.231 15.950,59.279 C15.901,59.279 15.853,59.279 15.804,59.279 C15.316,59.864 14.828,60.450 14.341,61.034 C14.175,60.911 14.319,61.053 14.194,60.888 C13.790,60.664 13.004,59.916 12.877,59.426 C13.170,59.182 13.463,58.938 13.755,58.694 C13.755,58.646 13.755,58.597 13.755,58.548 C13.853,58.548 13.950,58.548 14.048,58.548 C14.194,58.353 14.341,58.158 14.487,57.963 ZM54.143,60.011 C53.917,60.274 53.513,60.354 53.265,60.596 C53.021,60.937 52.777,61.278 52.533,61.620 C52.503,62.255 52.310,62.977 52.680,63.375 C52.750,63.662 53.072,64.257 53.265,64.398 C53.363,64.398 53.460,64.398 53.558,64.398 C53.558,64.447 53.558,64.496 53.558,64.545 C53.737,64.684 53.840,64.653 53.997,64.837 C54.651,64.887 54.790,65.015 55.314,64.837 C55.509,64.837 55.704,64.837 55.899,64.837 C55.899,64.788 55.899,64.740 55.899,64.691 C56.577,64.535 57.157,63.840 57.362,63.228 C57.362,62.985 57.362,62.741 57.362,62.497 C57.411,62.497 57.460,62.497 57.509,62.497 C57.509,62.448 57.509,62.400 57.509,62.351 C57.460,62.351 57.411,62.351 57.362,62.351 C57.362,62.107 57.362,61.863 57.362,61.620 C57.099,61.394 57.019,60.989 56.777,60.742 C56.436,60.498 56.094,60.254 55.753,60.011 C55.216,60.011 54.680,60.011 54.143,60.011 ZM17.706,60.742 C18.340,61.181 18.975,61.620 19.609,62.058 C19.609,62.205 19.609,62.351 19.609,62.497 C19.285,62.707 18.498,63.873 18.292,64.252 C18.126,64.129 18.270,64.271 18.145,64.106 C17.511,63.667 16.877,63.228 16.243,62.790 C16.292,62.643 16.340,62.497 16.389,62.351 C16.915,62.049 17.445,61.304 17.706,60.742 ZM21.657,63.521 C22.233,63.626 23.538,64.314 23.852,64.691 C23.803,64.691 23.755,64.691 23.706,64.691 C23.706,64.837 23.706,64.983 23.706,65.130 C23.657,65.130 23.608,65.130 23.560,65.130 C23.274,65.689 23.126,66.505 22.682,66.885 C21.950,66.446 21.218,66.007 20.487,65.568 C20.751,65.338 20.613,65.279 20.779,64.983 C20.828,64.983 20.877,64.983 20.926,64.983 C20.926,64.886 20.926,64.788 20.926,64.691 C21.023,64.642 21.121,64.593 21.218,64.545 C21.218,64.447 21.218,64.350 21.218,64.252 C21.267,64.252 21.316,64.252 21.365,64.252 C21.365,64.155 21.365,64.057 21.365,63.960 C21.413,63.960 21.462,63.960 21.511,63.960 C21.560,63.813 21.608,63.667 21.657,63.521 ZM37.461,69.956 C40.778,69.956 44.095,69.956 47.412,69.956 C47.420,68.707 47.366,67.335 47.265,66.300 C46.938,66.080 46.840,65.638 46.534,65.422 C46.436,65.422 46.339,65.422 46.241,65.422 C46.192,65.325 46.144,65.227 46.095,65.130 C45.386,64.761 41.975,64.983 40.827,64.983 C40.310,64.984 39.499,64.880 39.217,65.130 C37.277,65.525 37.415,67.600 37.461,69.956 ZM62.484,69.956 C65.801,69.956 69.118,69.956 72.435,69.956 C72.458,68.320 72.559,66.615 71.849,65.715 C71.703,65.666 71.557,65.617 71.410,65.568 C71.362,65.471 71.313,65.373 71.264,65.276 C71.001,65.105 70.936,65.274 70.679,64.983 C68.292,64.966 65.444,64.889 63.508,65.276 C63.216,65.617 62.923,65.958 62.630,66.300 C62.248,67.146 62.480,68.850 62.484,69.956 ZM27.657,68.640 C26.828,68.396 25.998,68.152 25.169,67.909 C25.169,67.860 25.169,67.811 25.169,67.762 C25.482,67.439 25.841,66.073 26.047,65.568 C26.437,65.630 27.896,66.093 28.096,66.300 C28.145,66.300 28.193,66.300 28.242,66.300 C28.242,66.495 28.242,66.690 28.242,66.885 C28.193,66.885 28.145,66.885 28.096,66.885 C28.096,67.031 28.096,67.177 28.096,67.324 C27.950,67.762 27.803,68.201 27.657,68.640 ZM30.584,66.885 C31.446,66.884 32.398,67.061 33.071,67.324 C32.863,67.892 32.786,68.939 32.778,69.664 C31.888,69.663 30.841,69.496 30.145,69.225 C30.383,68.581 30.561,67.707 30.584,66.885 ZM49.899,72.442 C53.265,72.442 56.631,72.442 59.996,72.442 C60.053,70.417 60.094,68.157 58.533,67.762 C58.147,67.374 57.256,67.470 56.484,67.470 C54.924,67.470 53.362,67.470 51.802,67.470 C51.802,67.519 51.802,67.567 51.802,67.616 C51.558,67.665 51.314,67.714 51.070,67.762 C50.875,68.006 50.680,68.250 50.485,68.494 C50.436,68.494 50.387,68.494 50.338,68.494 C50.290,68.689 50.241,68.884 50.192,69.079 C50.143,69.079 50.095,69.079 50.046,69.079 C49.709,69.922 49.897,71.369 49.899,72.442 Z"/>
</svg>