<svg
        xmlns="http://www.w3.org/2000/svg"
        xmlns:xlink="http://www.w3.org/1999/xlink"
        width="83px" height="91px">
    <path fill-rule="evenodd"  fill="rgb(0, 0, 0)"
          d="M41.085,-0.000 C42.204,-0.000 43.322,-0.000 44.440,-0.000 C44.643,0.303 44.847,0.607 45.050,0.910 C45.152,0.910 45.253,0.910 45.355,0.910 C45.355,1.112 45.355,1.314 45.355,1.517 C45.457,1.517 45.558,1.517 45.660,1.517 C46.084,2.620 45.291,4.098 45.965,4.853 C45.965,4.954 45.965,5.056 45.965,5.157 C46.473,5.258 46.982,5.359 47.490,5.460 C47.490,5.561 47.490,5.662 47.490,5.763 C47.693,5.763 47.896,5.763 48.100,5.763 C48.201,5.966 48.303,6.168 48.405,6.370 C50.062,7.485 51.121,7.831 51.150,10.617 C50.802,10.962 51.028,10.618 50.845,11.223 C49.666,11.907 49.815,12.396 47.795,12.437 C47.149,11.608 44.932,10.063 43.830,9.707 C43.322,9.707 42.814,9.707 42.305,9.707 C42.305,9.606 42.305,9.504 42.305,9.403 C42.204,9.403 42.102,9.403 42.000,9.403 C42.000,9.504 42.000,9.606 42.000,9.707 C41.899,9.707 41.797,9.707 41.695,9.707 C41.289,9.707 40.882,9.707 40.475,9.707 C40.475,9.808 40.475,9.909 40.475,10.010 C39.679,10.199 39.608,10.332 39.256,10.920 C38.706,11.448 38.647,12.253 38.646,13.347 C39.259,13.866 38.903,14.053 39.256,14.560 C39.662,14.863 40.069,15.167 40.475,15.470 C40.475,15.571 40.475,15.672 40.475,15.773 C40.882,15.874 41.289,15.976 41.695,16.077 C41.695,16.178 41.695,16.279 41.695,16.380 C41.899,16.380 42.102,16.380 42.305,16.380 C42.305,16.481 42.305,16.582 42.305,16.683 C42.509,16.683 42.712,16.683 42.915,16.683 C42.915,16.784 42.915,16.886 42.915,16.987 C43.119,16.987 43.322,16.987 43.525,16.987 C43.525,17.088 43.525,17.189 43.525,17.290 C43.830,17.290 44.135,17.290 44.440,17.290 C44.542,17.492 44.643,17.694 44.745,17.897 C44.948,17.897 45.152,17.897 45.355,17.897 C45.355,17.998 45.355,18.099 45.355,18.200 C45.558,18.200 45.762,18.200 45.965,18.200 C45.965,18.301 45.965,18.402 45.965,18.503 C46.168,18.503 46.372,18.503 46.575,18.503 C46.575,18.604 46.575,18.706 46.575,18.807 C46.778,18.807 46.982,18.807 47.185,18.807 C47.185,18.908 47.185,19.009 47.185,19.110 C47.490,19.211 47.795,19.312 48.100,19.413 C48.201,19.616 48.303,19.818 48.405,20.020 C48.608,20.020 48.811,20.020 49.015,20.020 C49.320,20.424 49.625,20.829 49.930,21.233 C50.031,21.233 50.133,21.233 50.235,21.233 C50.235,21.436 50.235,21.638 50.235,21.840 C50.438,21.941 50.641,22.042 50.845,22.143 C50.845,22.346 50.845,22.548 50.845,22.750 C50.946,22.750 51.048,22.750 51.150,22.750 C51.497,23.364 51.213,23.484 51.759,23.963 C51.759,25.379 51.759,26.795 51.759,28.210 C51.658,28.210 51.556,28.210 51.454,28.210 C51.150,29.221 50.844,30.232 50.540,31.243 C50.336,31.344 50.133,31.446 49.930,31.547 C49.421,32.153 48.913,32.760 48.405,33.367 C48.201,33.367 47.998,33.367 47.795,33.367 C46.918,33.868 46.390,34.456 45.050,34.580 C44.813,36.166 44.829,37.760 44.135,39.433 C43.744,39.612 43.482,39.732 43.220,40.040 C41.902,40.058 40.809,39.915 39.866,39.737 C39.764,39.433 39.662,39.130 39.561,38.827 C39.357,38.726 39.154,38.624 38.951,38.523 C38.849,37.613 38.747,36.703 38.646,35.793 C38.747,35.793 38.849,35.793 38.951,35.793 C38.951,35.692 38.951,35.591 38.951,35.490 C38.849,35.490 38.747,35.490 38.646,35.490 C38.646,35.288 38.646,35.086 38.646,34.883 C37.426,34.378 36.206,33.872 34.986,33.367 C34.071,32.356 33.156,31.344 32.241,30.333 C32.241,29.525 32.241,28.715 32.241,27.907 C32.953,27.401 33.665,26.896 34.376,26.390 C34.884,26.491 35.393,26.592 35.901,26.693 C36.104,26.997 36.308,27.300 36.511,27.603 C37.816,28.511 40.615,30.958 43.525,30.030 C43.525,29.929 43.525,29.828 43.525,29.727 C44.063,29.533 44.321,29.593 44.745,29.423 C45.306,28.402 45.881,27.995 45.965,26.390 C45.189,25.719 45.753,25.552 45.355,24.873 C44.948,24.570 44.542,24.267 44.135,23.963 C44.135,23.862 44.135,23.761 44.135,23.660 C43.525,23.458 42.915,23.256 42.305,23.053 C42.305,22.952 42.305,22.851 42.305,22.750 C42.102,22.750 41.899,22.750 41.695,22.750 C41.695,22.649 41.695,22.548 41.695,22.447 C41.492,22.447 41.289,22.447 41.085,22.447 C41.085,22.346 41.085,22.244 41.085,22.143 C40.882,22.143 40.679,22.143 40.475,22.143 C40.475,22.042 40.475,21.941 40.475,21.840 C40.272,21.840 40.069,21.840 39.866,21.840 C39.866,21.739 39.866,21.638 39.866,21.537 C39.662,21.537 39.459,21.537 39.256,21.537 C39.256,21.436 39.256,21.334 39.256,21.233 C38.849,21.132 38.442,21.031 38.036,20.930 C37.934,20.728 37.832,20.526 37.731,20.323 C37.527,20.323 37.324,20.323 37.121,20.323 C37.019,20.121 36.917,19.919 36.816,19.717 C36.613,19.717 36.409,19.717 36.206,19.717 C36.104,19.514 36.003,19.312 35.901,19.110 C35.698,19.110 35.494,19.110 35.291,19.110 C35.189,18.908 35.088,18.706 34.986,18.503 C34.884,18.503 34.783,18.503 34.681,18.503 C34.681,18.301 34.681,18.099 34.681,17.897 C34.478,17.796 34.274,17.694 34.071,17.593 C34.071,17.391 34.071,17.189 34.071,16.987 C33.969,16.987 33.868,16.987 33.766,16.987 C33.192,15.908 33.156,14.681 33.156,13.043 C33.258,11.931 33.359,10.819 33.461,9.707 C33.563,9.707 33.664,9.707 33.766,9.707 C33.766,9.504 33.766,9.302 33.766,9.100 C33.969,8.999 34.173,8.898 34.376,8.797 C34.376,8.594 34.376,8.392 34.376,8.190 C34.579,8.089 34.783,7.988 34.986,7.887 C35.291,7.482 35.596,7.078 35.901,6.673 C36.104,6.673 36.308,6.673 36.511,6.673 C36.612,6.471 36.714,6.269 36.816,6.067 C37.019,6.067 37.222,6.067 37.426,6.067 C37.426,5.966 37.426,5.864 37.426,5.763 C37.629,5.763 37.832,5.763 38.036,5.763 C38.036,5.662 38.036,5.561 38.036,5.460 C38.239,5.460 38.442,5.460 38.646,5.460 C38.646,5.359 38.646,5.258 38.646,5.157 C39.501,4.636 39.187,5.429 39.561,4.247 C39.662,4.247 39.764,4.247 39.866,4.247 C39.764,3.842 39.662,3.438 39.561,3.033 C39.662,3.033 39.764,3.033 39.866,3.033 C40.087,2.170 39.902,1.638 40.171,0.910 C40.475,0.809 40.780,0.708 41.085,0.607 C41.085,0.404 41.085,0.202 41.085,-0.000 ZM8.453,63.700 C10.328,63.235 10.702,61.729 13.028,61.577 C13.028,61.678 13.028,61.779 13.028,61.880 C13.130,61.880 13.231,61.880 13.333,61.880 C13.481,63.702 13.777,66.341 14.248,67.947 C14.248,68.958 14.248,69.969 14.248,70.980 C14.350,70.980 14.451,70.980 14.553,70.980 C14.553,71.688 14.553,72.396 14.553,73.103 C14.655,73.103 14.756,73.103 14.858,73.103 C15.178,74.193 14.911,76.263 14.858,76.743 C14.369,76.927 14.134,77.011 13.333,77.047 C13.333,76.946 13.333,76.844 13.333,76.743 C12.825,76.642 12.316,76.541 11.808,76.440 C11.808,76.339 11.808,76.238 11.808,76.137 C11.605,76.137 11.401,76.137 11.198,76.137 C11.198,76.036 11.198,75.934 11.198,75.833 C10.995,75.833 10.792,75.833 10.588,75.833 C10.588,75.732 10.588,75.631 10.588,75.530 C10.385,75.530 10.182,75.530 9.978,75.530 C9.978,75.429 9.978,75.328 9.978,75.227 C9.673,75.227 9.368,75.227 9.063,75.227 C9.063,75.126 9.063,75.024 9.063,74.923 C8.860,74.923 8.657,74.923 8.453,74.923 C8.453,74.822 8.453,74.721 8.453,74.620 C7.945,74.519 7.437,74.418 6.929,74.317 C6.929,74.216 6.929,74.114 6.929,74.013 C6.725,74.013 6.522,74.013 6.319,74.013 C6.319,73.912 6.319,73.811 6.319,73.710 C5.709,73.508 5.099,73.306 4.489,73.103 C4.489,73.002 4.489,72.901 4.489,72.800 C4.184,72.800 3.879,72.800 3.574,72.800 C3.574,72.699 3.574,72.598 3.574,72.497 C3.167,72.396 2.761,72.294 2.354,72.193 C2.354,72.092 2.354,71.991 2.354,71.890 C0.990,71.273 0.448,71.964 0.219,70.070 C0.524,69.868 0.829,69.666 1.134,69.463 C1.134,69.362 1.134,69.261 1.134,69.160 C2.232,68.387 3.488,68.240 3.879,66.733 C3.050,66.011 3.113,64.838 2.659,63.700 C2.557,63.700 2.456,63.700 2.354,63.700 C2.354,63.397 2.354,63.093 2.354,62.790 C2.252,62.790 2.151,62.790 2.049,62.790 C2.049,62.487 2.049,62.183 2.049,61.880 C1.947,61.880 1.846,61.880 1.744,61.880 C1.744,61.577 1.744,61.273 1.744,60.970 C1.642,60.970 1.541,60.970 1.439,60.970 C1.337,60.161 1.236,59.352 1.134,58.543 C1.032,58.543 0.931,58.543 0.829,58.543 C0.829,58.038 0.829,57.532 0.829,57.027 C0.257,55.109 -0.338,50.502 0.219,48.533 C0.219,47.623 0.219,46.713 0.219,45.803 C0.422,44.287 0.626,42.770 0.829,41.253 C1.642,38.726 2.456,36.198 3.269,33.670 C3.472,33.569 3.676,33.468 3.879,33.367 C3.879,33.063 3.879,32.760 3.879,32.457 C3.981,32.457 4.082,32.457 4.184,32.457 C4.285,32.052 4.387,31.648 4.489,31.243 C4.590,31.243 4.692,31.243 4.794,31.243 C4.895,30.839 4.997,30.434 5.099,30.030 C5.302,29.929 5.505,29.828 5.709,29.727 C5.810,29.322 5.912,28.918 6.014,28.513 C6.217,28.412 6.420,28.311 6.624,28.210 C6.624,28.008 6.624,27.806 6.624,27.603 C6.827,27.502 7.030,27.401 7.234,27.300 C7.234,27.098 7.234,26.896 7.234,26.693 C7.538,26.491 7.844,26.289 8.148,26.087 C8.148,25.884 8.148,25.682 8.148,25.480 C8.453,25.278 8.758,25.076 9.063,24.873 C9.063,24.671 9.063,24.469 9.063,24.267 C10.283,23.155 11.503,22.042 12.723,20.930 C15.409,20.930 15.058,21.637 16.383,22.750 C16.376,25.359 15.513,26.318 14.248,27.603 C13.943,27.806 13.638,28.008 13.333,28.210 C13.333,28.412 13.333,28.614 13.333,28.817 C13.028,29.019 12.723,29.221 12.418,29.423 C12.418,29.626 12.418,29.828 12.418,30.030 C12.113,30.232 11.808,30.434 11.503,30.637 C11.503,30.839 11.503,31.041 11.503,31.243 C11.300,31.344 11.097,31.446 10.893,31.547 C10.690,32.153 10.487,32.760 10.283,33.367 C10.182,33.367 10.080,33.367 9.978,33.367 C9.978,33.569 9.978,33.771 9.978,33.973 C9.775,34.074 9.572,34.176 9.368,34.277 C9.368,34.580 9.368,34.883 9.368,35.187 C9.267,35.187 9.165,35.187 9.063,35.187 C9.063,35.389 9.063,35.591 9.063,35.793 C8.962,35.793 8.860,35.793 8.758,35.793 C8.657,36.198 8.555,36.602 8.453,37.007 C8.352,37.007 8.250,37.007 8.148,37.007 C8.148,37.310 8.148,37.613 8.148,37.917 C8.047,37.917 7.945,37.917 7.843,37.917 C7.843,38.220 7.843,38.523 7.843,38.827 C7.742,38.827 7.640,38.827 7.539,38.827 C7.539,39.130 7.539,39.433 7.539,39.737 C7.437,39.737 7.335,39.737 7.234,39.737 C7.234,40.040 7.234,40.343 7.234,40.647 C7.132,40.647 7.030,40.647 6.929,40.647 C6.827,41.658 6.725,42.669 6.624,43.680 C6.522,43.680 6.420,43.680 6.319,43.680 C6.319,44.084 6.319,44.489 6.319,44.893 C6.217,44.893 6.115,44.893 6.014,44.893 C6.014,46.107 6.014,47.320 6.014,48.533 C5.912,48.533 5.810,48.533 5.709,48.533 C5.709,49.645 5.709,50.758 5.709,51.870 C5.810,51.870 5.912,51.870 6.014,51.870 C6.014,52.982 6.014,54.095 6.014,55.207 C6.115,55.207 6.217,55.207 6.319,55.207 C6.319,55.712 6.319,56.218 6.319,56.723 C6.420,56.723 6.522,56.723 6.624,56.723 C6.624,57.229 6.624,57.734 6.624,58.240 C7.233,60.060 7.844,61.880 8.453,63.700 ZM73.412,33.973 C73.209,33.973 73.006,33.973 72.803,33.973 C72.194,35.023 71.102,35.508 70.363,36.400 C69.854,36.400 69.346,36.400 68.838,36.400 C67.923,31.446 67.008,26.491 66.093,21.537 C66.617,21.340 67.051,21.248 67.923,21.233 C67.923,21.334 67.923,21.436 67.923,21.537 C68.634,21.638 69.346,21.739 70.058,21.840 C70.058,21.941 70.058,22.042 70.058,22.143 C70.261,22.143 70.464,22.143 70.668,22.143 C70.668,22.244 70.668,22.346 70.668,22.447 C70.973,22.447 71.278,22.447 71.583,22.447 C71.583,22.548 71.583,22.649 71.583,22.750 C71.888,22.750 72.193,22.750 72.498,22.750 C72.498,22.851 72.498,22.952 72.498,23.053 C72.802,23.053 73.108,23.053 73.412,23.053 C73.412,23.154 73.412,23.256 73.412,23.357 C73.616,23.357 73.819,23.357 74.022,23.357 C74.022,23.458 74.022,23.559 74.022,23.660 C74.937,23.862 75.852,24.064 76.767,24.267 C76.767,24.368 76.767,24.469 76.767,24.570 C77.174,24.570 77.580,24.570 77.987,24.570 C77.987,24.671 77.987,24.772 77.987,24.873 C78.190,24.873 78.394,24.873 78.597,24.873 C78.597,24.974 78.597,25.076 78.597,25.177 C79.207,25.278 79.817,25.379 80.427,25.480 C80.427,25.581 80.427,25.682 80.427,25.783 C80.732,25.986 81.037,26.188 81.342,26.390 C80.847,27.418 80.273,27.794 79.512,28.513 C79.410,28.716 79.309,28.918 79.207,29.120 C79.004,29.120 78.800,29.120 78.597,29.120 C78.495,29.322 78.394,29.524 78.292,29.727 C78.190,29.727 78.089,29.727 77.987,29.727 C77.987,30.030 77.987,30.333 77.987,30.637 C78.832,31.354 78.992,32.610 79.512,33.670 C79.614,33.670 79.715,33.670 79.817,33.670 C79.817,33.973 79.817,34.277 79.817,34.580 C79.919,34.580 80.020,34.580 80.122,34.580 C80.223,34.984 80.325,35.389 80.427,35.793 C80.528,35.793 80.630,35.793 80.732,35.793 C80.732,36.097 80.732,36.400 80.732,36.703 C80.833,36.703 80.935,36.703 81.037,36.703 C81.037,37.108 81.037,37.512 81.037,37.917 C84.574,47.931 83.129,60.866 78.292,68.553 C78.190,68.958 78.089,69.362 77.987,69.767 C77.885,69.767 77.784,69.767 77.682,69.767 C77.682,69.969 77.682,70.171 77.682,70.373 C77.580,70.373 77.479,70.373 77.377,70.373 C77.377,70.576 77.377,70.778 77.377,70.980 C77.275,70.980 77.174,70.980 77.072,70.980 C77.072,71.182 77.072,71.384 77.072,71.587 C76.869,71.688 76.665,71.789 76.462,71.890 C76.462,72.092 76.462,72.294 76.462,72.497 C76.259,72.598 76.056,72.699 75.852,72.800 C75.852,73.002 75.852,73.204 75.852,73.407 C75.547,73.609 75.242,73.811 74.937,74.013 C74.836,74.317 74.734,74.620 74.632,74.923 C74.429,74.923 74.226,74.923 74.022,74.923 C73.486,75.582 71.863,75.802 70.973,75.227 C70.769,74.923 70.566,74.620 70.363,74.317 C70.159,74.216 69.956,74.114 69.753,74.013 C69.753,73.205 69.753,72.395 69.753,71.587 C70.388,71.042 70.786,69.890 71.278,69.160 C71.481,69.059 71.684,68.958 71.888,68.857 C71.989,68.452 72.091,68.048 72.193,67.643 C72.396,67.542 72.599,67.441 72.803,67.340 C72.904,66.936 73.006,66.531 73.107,66.127 C73.209,66.127 73.311,66.127 73.412,66.127 C73.412,65.924 73.412,65.722 73.412,65.520 C73.514,65.520 73.616,65.520 73.717,65.520 C73.921,64.913 74.124,64.307 74.327,63.700 C74.429,63.700 74.531,63.700 74.632,63.700 C74.632,63.397 74.632,63.093 74.632,62.790 C74.734,62.790 74.836,62.790 74.937,62.790 C74.937,62.588 74.937,62.386 74.937,62.183 C75.039,62.183 75.141,62.183 75.242,62.183 C75.446,61.273 75.649,60.363 75.852,59.453 C75.954,59.453 76.056,59.453 76.157,59.453 C76.360,58.038 76.564,56.622 76.767,55.207 C76.869,55.207 76.970,55.207 77.072,55.207 C77.174,52.982 77.275,50.758 77.377,48.533 C77.275,48.533 77.174,48.533 77.072,48.533 C77.072,47.421 77.072,46.309 77.072,45.197 C76.970,45.197 76.869,45.197 76.767,45.197 C76.665,44.085 76.564,42.972 76.462,41.860 C76.361,41.860 76.259,41.860 76.157,41.860 C76.056,41.152 75.954,40.444 75.852,39.737 C75.751,39.737 75.649,39.737 75.547,39.737 C75.547,39.433 75.547,39.130 75.547,38.827 C75.446,38.827 75.344,38.827 75.242,38.827 C75.242,38.523 75.242,38.220 75.242,37.917 C75.141,37.917 75.039,37.917 74.937,37.917 C74.937,37.714 74.937,37.512 74.937,37.310 C74.836,37.310 74.734,37.310 74.632,37.310 C74.632,37.007 74.632,36.703 74.632,36.400 C74.531,36.400 74.429,36.400 74.327,36.400 C73.967,35.665 73.588,34.770 73.412,33.973 ZM31.631,63.700 C36.917,63.700 42.204,63.700 47.490,63.700 C49.776,63.700 52.794,63.367 54.199,64.307 C56.155,65.614 56.029,68.596 56.029,71.890 C56.029,77.147 56.029,82.406 56.029,87.663 C55.810,88.337 55.302,88.941 55.114,89.787 C54.554,90.088 53.851,90.796 53.284,91.000 C50.845,91.000 48.405,91.000 45.965,91.000 C40.984,91.000 36.002,91.000 31.021,91.000 C30.528,90.272 29.739,89.903 29.192,89.180 C29.090,89.180 28.988,89.180 28.887,89.180 C28.887,88.877 28.887,88.573 28.887,88.270 C28.785,88.270 28.683,88.270 28.582,88.270 C28.582,86.450 28.582,84.630 28.582,82.810 C28.582,78.564 28.582,74.316 28.582,70.070 C28.582,67.238 28.487,64.896 30.716,64.307 C30.716,64.206 30.716,64.104 30.716,64.003 C31.021,64.003 31.326,64.003 31.631,64.003 C31.631,63.902 31.631,63.801 31.631,63.700 ZM33.461,69.767 C33.461,74.822 33.461,79.878 33.461,84.933 C38.950,84.933 44.441,84.933 49.930,84.933 C49.930,79.878 49.930,74.822 49.930,69.767 C44.441,69.767 38.950,69.767 33.461,69.767 Z"/>
</svg>
