<svg xmlns="http://www.w3.org/2000/svg" xmlns:xlink="http://www.w3.org/1999/xlink" width="45" height="45" viewBox="0 0 45 45"><defs><clipPath id="a"><rect width="45" height="45" transform="translate(280 4529)" fill="#2181f8" stroke="#707070" stroke-width="1"/></clipPath></defs><g transform="translate(-280 -4529)" clip-path="url(#a)"><g transform="translate(278.698 4527.672)"><rect width="12.683" height="6.257" transform="translate(17.266 15.964)" fill="none"/><path d="M37.627,5.073H29.171l2.6,8.963H43.444l-4.87-8.455A1.015,1.015,0,0,0,37.627,5.073Z" fill="none"/><path d="M18.095,5.073H9.639A.947.947,0,0,0,8.76,5.6l-4.9,8.455H15.524Z" fill="none"/><path d="M27.176,5.158h-7l-.068.2L17.554,13.85H29.662Z" fill="none"/><path d="M44.1,15.964H31.928V23.2a.913.913,0,0,1-.981.981H16.285A.913.913,0,0,1,15.22,23.2V15.964H3.129V39.538A3.145,3.145,0,0,0,6.24,42.649H41.11A2.993,2.993,0,0,0,44.1,39.589h.287V38.9H44.1ZM22.238,32.875a.947.947,0,0,1-1.37,0L18.6,30.592V39.4a.913.913,0,0,1-.981,1,.93.93,0,0,1-1-1V30.592l-2.351,2.3a.964.964,0,0,1-1.387,0,1,1,0,0,1-.3-.761,1.032,1.032,0,0,1,.3-.693l4.025-3.906a.879.879,0,0,1,.693-.3,1.1,1.1,0,0,1,.693.3l3.974,3.974a.964.964,0,0,1,.3.693.93.93,0,0,1-.338.693Zm12.091,0a.947.947,0,0,1-1.37,0l-2.317-2.3V39.4a.913.913,0,0,1-.981,1,.93.93,0,0,1-.913-1V30.592l-2.3,2.3a.964.964,0,0,1-1.387,0,.93.93,0,0,1-.3-.693.964.964,0,0,1,.3-.693l3.991-3.974a.947.947,0,0,1,1.387,0l3.974,3.974a.947.947,0,0,1-.085,1.387Z" fill="none"/><path d="M46.082,14.7v-.287l-5.75-9.842a3.044,3.044,0,0,0-2.57-1.522H9.589A2.892,2.892,0,0,0,7.035,4.532L1.3,14.34h0v.169a.727.727,0,0,1,0,.287h0V39.538a5.073,5.073,0,0,0,5.073,5.073H41.11a5.073,5.073,0,0,0,5.073-5.073V15.085l.118-.135Zm-14.34-.71-2.6-8.912h8.455a1.015,1.015,0,0,1,.913.575l4.87,8.455ZM17.266,22.2v-6.24H29.949V22.2Zm.287-8.354,2.554-8.455v-.2h7l2.486,8.692ZM3.8,13.985l4.9-8.455a.947.947,0,0,1,.879-.457h8.455l-2.57,8.912ZM44.391,38.9v.643H44.1A2.993,2.993,0,0,1,41.11,42.6H6.24a3.145,3.145,0,0,1-3.112-3.112V15.964H15.22V23.2a.913.913,0,0,0,1,.981H30.947a.913.913,0,0,0,.981-.981V15.964H44.1V38.9Z" fill="#2181f8"/><path d="M18.264,27.531a1.1,1.1,0,0,0-.693-.3.879.879,0,0,0-.693.3l-3.991,3.974a1.032,1.032,0,0,0-.3.693,1,1,0,0,0,.3.693.964.964,0,0,0,1.387,0l2.3-2.3V39.4a.93.93,0,0,0,1,1,.913.913,0,0,0,1.032-1V30.592l2.317,2.3a.947.947,0,0,0,1.37,0,.93.93,0,0,0,.3-.693.964.964,0,0,0-.3-.693Z" fill="#2181f8"/><path d="M30.44,27.531a.947.947,0,0,0-1.387,0l-3.991,3.974a.964.964,0,0,0-.3.693.93.93,0,0,0,.3.693.964.964,0,0,0,1.387,0l2.3-2.3V39.4a.93.93,0,0,0,1,1,.913.913,0,0,0,.981-1V30.592l2.317,2.3a.981.981,0,0,0,1.37-1.387Z" fill="#2181f8"/></g></g></svg>