<svg xmlns="http://www.w3.org/2000/svg" xmlns:xlink="http://www.w3.org/1999/xlink" width="45" height="45" viewBox="0 0 45 45">
  <defs>
    <clipPath>
      <rect width="45" height="45" transform="translate(380 5796)" fill="#fff" stroke="#707070" stroke-width="1"/>
    </clipPath>
  </defs>
  <g transform="translate(-380 -5796)" clip-path="url(#clip-path)">
    <g transform="translate(383.69 5795.999)">
      <path d="M24.629,45.03l.258.138h.241c17.211-6.248,16.9-20.43,16.678-31.823V10.556h-.74A24.1,24.1,0,0,1,25.335,4.6l-.447-.413-.465.4A24.526,24.526,0,0,1,8.657,10.573H8v2.685C7.676,24.652,7.435,38.782,24.629,45.03ZM17.418,23.843a1.033,1.033,0,0,1,.706-.293.912.912,0,0,1,.654.258l3.873,3.873,8.33-8.33a.878.878,0,0,1,.654-.275.843.843,0,0,1,.585.224.981.981,0,0,1,0,1.36l-9.053,9.019a.74.74,0,0,1-.585.224.878.878,0,0,1-.654-.275l-4.475-4.475A1,1,0,0,1,17.418,23.843Z" transform="translate(-6.076 -1.984)" fill="none"/>
      <path d="M26.6,51.442v0Z" transform="translate(-7.945 -6.71)" fill="none"/>
      <path d="M43.46,13.117v-3.7a.895.895,0,0,0-.912-.912A23.442,23.442,0,0,1,25.337,2a.929.929,0,0,0-.654-.258.878.878,0,0,0-.637.241A23.115,23.115,0,0,1,6.835,8.453a.912.912,0,0,0-.929.912v3.649C5.751,24.476,5.372,40.155,24.339,46.73h.327a1.273,1.273,0,0,0,.31,0C43.908,40.207,43.615,25.182,43.46,13.117Zm-35.713,0V10.363H8.4A24.526,24.526,0,0,0,24.149,4.373l.534-.43.465.4a24.1,24.1,0,0,0,15.714,5.955h.671v2.651c.224,11.394.516,25.576-16.678,31.823l-.172.155h-.241C7.231,38.538,7.472,24.407,7.747,13.048ZM24.528,46.472Z" transform="translate(-5.872 -1.74)" fill="#2181f8"/>
      <path d="M22.971,31.326a.878.878,0,0,0,.654.275.74.74,0,0,0,.568-.275l9.07-9.07a.981.981,0,0,0,0-1.36.843.843,0,0,0-.585-.224.878.878,0,0,0-.654.275L23.677,29.33,19.8,25.457a.912.912,0,0,0-.654-.258,1.033,1.033,0,0,0-.706.293,1,1,0,0,0,0,1.342Z" transform="translate(-7.103 -3.633)" fill="#2181f8"/>
    </g>
  </g>
</svg>
