<svg xmlns="http://www.w3.org/2000/svg" xmlns:xlink="http://www.w3.org/1999/xlink" width="45" height="45" viewBox="0 0 45 45">
  <defs>
    <clipPath id="clip-path">
      <rect width="45" height="45" transform="translate(1594 5817)" fill="#fff" stroke="#707070" stroke-width="1"/>
    </clipPath>
  </defs>
  <g transform="translate(-1594 -5817)" clip-path="url(#clip-path)">
    <g id="noun-05" transform="translate(1593.999 5820.059)">
      <path d="M36.422,24.43a3.656,3.656,0,0,0-3.639,3.639,3.417,3.417,0,0,0,.53,1.794,4.236,4.236,0,0,0,.308.427,3.622,3.622,0,0,0,4.681.837,3.861,3.861,0,0,0,1.213-1.2l.188-.222a3.639,3.639,0,0,0-3.28-5.279Z" transform="translate(-4.696 -7.09)" fill="none"/>
      <path d="M36.881,42.031l3.69,2.05-.427-4.271v-.359h0l-.564-5.757L38.9,34l-.205.085a5.535,5.535,0,0,1-.8.273H37.65a5.125,5.125,0,0,1-2.494,0A5.945,5.945,0,0,1,34.1,34l-.12.12h0l-.7-.342-1.025,10.4,3.724-2.05a.974.974,0,0,1,.905-.1Z" transform="translate(-4.643 -8.016)" fill="none"/>
      <path d="M39.195,36.133h5.6V7.346H3.8V36.133H27.851l.718-7.192v-.154a5.33,5.33,0,0,1-.632-2.426,5.587,5.587,0,1,1,11.173,0,5.467,5.467,0,0,1-.564,2.409v.154l.188,1.913Zm-16.435-8.8h-12.3a.991.991,0,0,1,0-1.965h12.3a.991.991,0,0,1,0,1.965Zm0-6.15h-12.3a.991.991,0,0,1,0-1.965h12.3a.991.991,0,0,1,0,1.965Zm0-6.15h-12.3a.991.991,0,0,1,0-1.965h12.3a.991.991,0,0,1,0,1.965Z" transform="translate(-1.797 -5.382)" fill="none"/>
      <path d="M45.6,5.163H2.549a.974.974,0,0,0-.974.974V36.889a.974.974,0,0,0,.974.991H27.492l-.513,5.006a1.042,1.042,0,0,0,.137.683.974.974,0,0,0,1.333.342l4.9-2.819,4.886,2.8a.808.808,0,0,0,.974-.051,1.008,1.008,0,0,0,.513-.957l-.513-5.006H45.6a.974.974,0,0,0,.974-.991V6.137A.974.974,0,0,0,45.6,5.163Zm-9.02,22.688-.188.222a3.861,3.861,0,0,1-1.213,1.2,3.622,3.622,0,0,1-4.681-.837A4.236,4.236,0,0,1,30.192,28a3.417,3.417,0,0,1-.53-1.862,3.656,3.656,0,1,1,6.919,1.708Zm-6.458,3.041.7.342h.171a5.945,5.945,0,0,0,1.059.359,5.125,5.125,0,0,0,2.494,0h.239a5.535,5.535,0,0,0,.8-.273l.205-.085.683-.308.564,5.757h0v.359l.427,4.271-3.69-2.05a.974.974,0,0,0-.991,0l-3.724,2.05Zm8.2-2.289a5.467,5.467,0,0,0,.564-2.46,5.587,5.587,0,1,0-11.173,0,5.33,5.33,0,0,0,.564,2.443v.154l-.718,7.192H3.574V7.128h41V35.915h-5.6l-.53-5.313-.188-1.913Z" transform="translate(-1.575 -5.163)" fill="#2181f8"/>
      <path d="M23.4,13.705H11.1a.991.991,0,0,0,0,1.965H23.4a.991.991,0,0,0,0-1.965Z" transform="translate(-2.442 -6.017)" fill="#2181f8"/>
      <path d="M23.388,20.539h-12.3a1.008,1.008,0,1,0,0,2.016h12.3a.991.991,0,0,0,0-1.965Z" transform="translate(-2.426 -6.701)" fill="#2181f8"/>
      <path d="M23.4,27.373H11.1a.991.991,0,0,0,0,1.965H23.4a.991.991,0,0,0,0-1.965Z" transform="translate(-2.442 -7.384)" fill="#2181f8"/>
    </g>
  </g>
</svg>
