<svg xmlns="http://www.w3.org/2000/svg" xmlns:xlink="http://www.w3.org/1999/xlink" width="45" height="45" viewBox="0 0 45 45">
  <defs>
    <clipPath id="clip-path">
      <rect id="Прямоугольник_945" data-name="Прямоугольник 945" width="45" height="45" transform="translate(795 5796)" fill="#fff" stroke="#707070" stroke-width="1"/>
    </clipPath>
  </defs>
  <g id="Группа_масок_68" data-name="Группа масок 68" transform="translate(-795 -5796)" clip-path="url(#clip-path)">
    <g id="noun-10" transform="translate(795.945 5796)">
      <path id="Контур_1064" data-name="Контур 1064" d="M24.907,24.184h2.019l1.447-4.577-2.49-1.38-2.44,1.363Z" transform="translate(-4.342 -3.001)" fill="none"/>
      <path id="Контур_1065" data-name="Контур 1065" d="M15.143,20.088l7.723-4.29-.135-.168L12.484,4.019,11.61,5.988l.017.05Z" transform="translate(-3.159 -1.58)" fill="none"/>
      <path id="Контур_1066" data-name="Контур 1066" d="M33.266,5.739l2.221-2.524h-21l2.238,2.524Z" transform="translate(-3.447 -1.499)" fill="none"/>
      <path id="Контур_1067" data-name="Контур 1067" d="M18.714,7.983l6.7,7.605,6.713-7.605Z" transform="translate(-3.869 -1.976)" fill="none"/>
      <path id="Контур_1068" data-name="Контур 1068" d="M35.932,20.088l3.533-14.1-.892-1.969L28.192,15.8Z" transform="translate(-4.817 -1.58)" fill="none"/>
      <path id="Контур_1069" data-name="Контур 1069" d="M26.44,26.921H24.421v.118L18.583,45.9h.151a19.989,19.989,0,0,0,13.46,0h.168v-.151Z" transform="translate(-3.856 -3.87)" fill="none"/>
      <path id="Контур_1070" data-name="Контур 1070" d="M42.176,13.767c-.118-.252-2-2.288-2-2.288l-2.726,10.9a.841.841,0,0,1-.5.589.875.875,0,0,1-.791,0l-5.637-3.13-1.464,4.644h0L35.042,43.6l.185-.084a19.77,19.77,0,0,0,6.949-29.747Zm.959,19.164-3.8,2.053a.858.858,0,0,1-.421.1.909.909,0,0,1-.421-.1l-3.786-2.053a.858.858,0,0,1-.471-.791V28.069a.892.892,0,0,1,.892-.892h7.588a.875.875,0,0,1,.875.892v4.122A.875.875,0,0,1,43.135,32.931Z" transform="translate(-4.903 -2.326)" fill="none"/>
      <path id="Контур_1071" data-name="Контур 1071" d="M36.773,33.554l2.911,1.582,2.911-1.582V30.828H36.773Z" transform="translate(-5.675 -4.261)" fill="none"/>
      <path id="Контур_1072" data-name="Контур 1072" d="M19.936,19.792l-5.687,3.23a.942.942,0,0,1-.791,0,.909.909,0,0,1-.5-.606L10.228,11.5,8.259,13.752a19.669,19.669,0,0,0-4.072,12.03A19.921,19.921,0,0,0,15.326,43.567l.168.1v-.2L21.35,24.453Z" transform="translate(-2.417 -2.328)" fill="none"/>
      <path id="Контур_1073" data-name="Контур 1073" d="M45.331,24.763a21.368,21.368,0,0,0-4.425-13.09,14.706,14.706,0,0,0-2.877-3.365l.623-2.524a.841.841,0,0,0,0-.572l-1.615-3.4a.892.892,0,0,0-.74-.5H11.142a.942.942,0,0,0-.656.5L8.921,5.279a.841.841,0,0,0,0,.572l.623,2.692a24.7,24.7,0,0,0-2.894,3.113,21.57,21.57,0,0,0,8.9,33.028h0a21.654,21.654,0,0,0,16.455,0h.337A21.6,21.6,0,0,0,45.331,24.763ZM36.918,5.717l-3.533,14.1-7.74-4.29L36.027,3.748ZM23.778,16.536l2.49,1.38-1.447,4.577H22.8L21.338,17.9Zm0-1.683-6.73-7.538h13.46Zm10.5-11.9L32.056,5.481H15.5L13.262,3.025Zm-22.714.723,10.247,11.61.135.168L14.2,19.817,10.687,5.767h0Zm3.8,38.766v.2l-.168-.1A19.921,19.921,0,0,1,3.991,24.763a19.669,19.669,0,0,1,4.072-12.03l1.969-2.255,2.726,10.886a.909.909,0,0,0,.5.606.942.942,0,0,0,.791,0l5.687-3.146,1.481,4.661Zm15.143.909a19.989,19.989,0,0,1-13.46,0H16.9l5.8-18.861v-.118H24.72l5.956,18.76v.151Zm1.985-.858-.185.084-5.923-19.1h0l1.464-4.644L33.469,22a.875.875,0,0,0,.791,0,.841.841,0,0,0,.5-.589l2.726-10.9s1.884,2.036,2,2.288a19.77,19.77,0,0,1-6.949,29.747Z" transform="translate(-2.22 -1.309)" fill="#2181f8"/>
      <path id="Контур_1074" data-name="Контур 1074" d="M43.29,28.865H35.7a.892.892,0,0,0-.892.892v4.122a.858.858,0,0,0,.471.791l3.786,2.053a.909.909,0,0,0,.421.1.858.858,0,0,0,.421-.1l3.8-2.053a.875.875,0,0,0,.454-.791V29.807a.875.875,0,0,0-.875-.942ZM42.4,33.357l-2.911,1.582-2.911-1.582V30.632H42.4Z" transform="translate(-5.479 -4.064)" fill="#2181f8"/>
    </g>
  </g>
</svg>
