<svg xmlns="http://www.w3.org/2000/svg" xmlns:xlink="http://www.w3.org/1999/xlink" width="45" height="45" viewBox="0 0 45 45">
  <defs>
    <clipPath>
      <rect width="45" height="45" transform="translate(1190 5817)" fill="#fff" stroke="#707070" stroke-width="1"/>
    </clipPath>
  </defs>
  <g transform="translate(-1190 -5817)" clip-path="url(#clip-path)">
    <g transform="translate(1190.276 5817)">
      <path d="M39.484,17.01h-.81V16.2a14.831,14.831,0,1,0-29.663,0v.81H8.134a6.564,6.564,0,0,0-6.26,6.749v5.062A6.547,6.547,0,0,0,8.2,35.57H9.636a.759.759,0,0,0,.675-.675V16.672a13.5,13.5,0,1,1,27,0V36.414A4.336,4.336,0,0,1,32.921,40.8H28.01l-.186-.591a4.218,4.218,0,1,0,0,2.531l.186-.591h4.91a5.737,5.737,0,0,0,5.737-5.737V35.57h.827a6.564,6.564,0,0,0,6.26-6.749V23.759A6.564,6.564,0,0,0,39.484,17.01ZM8.961,19.22v15H8.1a5.18,5.18,0,0,1-4.876-5.4V23.759A5.18,5.18,0,0,1,8.1,18.376h.861ZM23.809,44.344a2.868,2.868,0,1,1,2.868-2.868A2.868,2.868,0,0,1,23.809,44.344ZM44.394,28.821A5.18,5.18,0,0,1,39.518,34.2h-.861V18.36h.861a5.18,5.18,0,0,1,4.876,5.4Z" transform="translate(-1.584 -0.997)" fill="#2181f8"/>
      <path d="M23.777,45.956a4.522,4.522,0,1,1,4.3-5.872l.118.371h4.691a4.049,4.049,0,0,0,4.1-4.083V16.631a13.211,13.211,0,0,0-26.423,0V34.854a1.046,1.046,0,0,1-.962.979H8.17A6.85,6.85,0,0,1,1.556,28.78V23.718A6.85,6.85,0,0,1,8.1,16.682h.489v-.54a15.186,15.186,0,0,1,30.371,0v.54h.523A6.85,6.85,0,0,1,46,23.718V28.78a6.884,6.884,0,0,1-6.53,7.053h-.506v.557a6.04,6.04,0,0,1-6.04,6.007H28.2l-.118.388a4.505,4.505,0,0,1-4.3,3.172Zm0-8.436a3.931,3.931,0,1,0,3.729,5.062l.253-.793h5.062a5.433,5.433,0,0,0,5.45-5.416v-1.13h1.114a6.31,6.31,0,0,0,6.04-6.462V23.718a6.277,6.277,0,0,0-5.99-6.445h-1.08v-1.1a14.544,14.544,0,0,0-29.089,0v1.1H8.119a6.277,6.277,0,0,0-5.99,6.445V28.78a6.277,6.277,0,0,0,6.04,6.462H9.6a.472.472,0,0,0,.371-.388V16.631a13.8,13.8,0,0,1,27.6,0V36.372a4.623,4.623,0,0,1-4.691,4.674H27.827l-.253-.793a3.915,3.915,0,0,0-3.8-2.733Zm0,7.087a3.172,3.172,0,1,1,3.172-3.172A3.172,3.172,0,0,1,23.777,44.606Zm0-5.7a2.582,2.582,0,1,0,2.582,2.565A2.582,2.582,0,0,0,23.777,38.9Zm14.561-4.387v-16.5H39.5a5.467,5.467,0,0,1,5.163,5.7V28.78A5.467,5.467,0,0,1,39.5,34.449Zm.624-15.861V33.841h.557a4.893,4.893,0,0,0,4.505-5.062V23.718a4.876,4.876,0,0,0-4.589-5.062ZM9.216,34.483H8.052a5.467,5.467,0,0,1-5.163-5.7V23.718a5.467,5.467,0,0,1,5.163-5.669H9.216ZM8.592,18.656H8.069A4.876,4.876,0,0,0,3.53,23.718V28.78a4.893,4.893,0,0,0,4.589,5.062h.472Z" transform="translate(-1.553 -0.956)" fill="#2181f8"/>
    </g>
  </g>
</svg>
