<svg xmlns="http://www.w3.org/2000/svg" xmlns:xlink="http://www.w3.org/1999/xlink" width="45" height="45" viewBox="0 0 45 45"><defs><clipPath id="a"><rect width="45" height="45" transform="translate(380 5798)" fill="#fff" stroke="#707070" stroke-width="1"/></clipPath></defs><g transform="translate(-380 -5798)" clip-path="url(#a)"><g transform="translate(379.167 5797.191)"><circle cx="1.183" cy="1.183" r="1.183" transform="translate(5.283 8.883)" fill="#2181f8"/><circle cx="1.183" cy="1.183" r="1.183" transform="translate(8.7 8.883)" fill="#2181f8"/><circle cx="1.183" cy="1.183" r="1.183" transform="translate(12.15 8.883)" fill="#2181f8"/><path d="M43.849,4.617H2.817A2,2,0,0,0,.833,6.666V40a2,2,0,0,0,1.983,2H43.849a2,2,0,0,0,1.983-2V6.666a2,2,0,0,0-1.983-2.05Zm-.25,35.2H3.067v-24.3H43.6Zm0-26.483H3.067V6.85H43.6Z" fill="#2181f8"/><path d="M17.883,30l-.9,3.883a2.083,2.083,0,0,0,.767,2.133,2.15,2.15,0,0,0,1.183.367A1.933,1.933,0,0,0,20,36.166l3.333-2.083,3.333,2.083a1.983,1.983,0,0,0,2.217-.083,2.067,2.067,0,0,0,.767-2.133l-.9-3.8,2.983-2.55a2.083,2.083,0,0,0,.617-2.183,1.967,1.967,0,0,0-1.75-1.367l-3.883-.283L25.233,20a2.117,2.117,0,0,0-3.75,0L20,23.666,16.016,24a2,2,0,0,0-1.667,1.367,2.133,2.133,0,0,0,.617,2.183Zm2.283-4.267A1.967,1.967,0,0,0,21.833,24.5l1.367-3.65,1.517,3.65a1.967,1.967,0,0,0,1.667,1.233l3.917.133-3.017,2.617a2.033,2.033,0,0,0-.667,1.983l1.033,3.783-3.333-2.083a2.2,2.2,0,0,0-2.133,0l-3.333,2.183.9-3.883a1.967,1.967,0,0,0-.667-1.983l-2.85-2.35Z" fill="#2181f8"/></g></g></svg>