<svg xmlns="http://www.w3.org/2000/svg" xmlns:xlink="http://www.w3.org/1999/xlink" width="45" height="45" viewBox="0 0 45 45"><defs><clipPath id="a"><rect width="45" height="45" transform="translate(620 5779)" fill="#fff" stroke="#707070" stroke-width="1"/></clipPath></defs><g transform="translate(-620 -5779)" clip-path="url(#a)"><g transform="translate(614.207 5771.807)"><path d="M25.34,33.769A1.02,1.02,0,0,1,25.4,35.4,8.571,8.571,0,0,1,20.2,37.33h-.436A8.571,8.571,0,0,1,14.573,35.4a1.034,1.034,0,0,1,.056-1.633,15.536,15.536,0,0,1,4.1-1.407h.056v-.7a6.763,6.763,0,0,1-1.506-2.421s-.521-1.6-.155-1.668c-.852-4.863,6.8-4.75,5.771,0,.366.063-.155,1.668-.155,1.668a6.868,6.868,0,0,1-1.548,2.421v.7h.063a14.711,14.711,0,0,1,4.075,1.407Z" transform="translate(1.869 9.417)" fill="none" stroke="#2181f8" stroke-linecap="round" stroke-linejoin="round" stroke-width="2"/><line x2="5.82" transform="translate(32.994 35.516)" fill="none" stroke="#2181f8" stroke-linecap="round" stroke-linejoin="round" stroke-width="2"/><line x2="15.897" transform="translate(18.905 15.29)" fill="none" stroke="#2181f8" stroke-linecap="round" stroke-linejoin="round" stroke-width="2"/><line x2="12.871" transform="translate(18.905 18.879)" fill="none" stroke="#2181f8" stroke-linecap="round" stroke-linejoin="round" stroke-width="2"/><rect width="34.243" height="42.223" transform="translate(11.171 8.704)" fill="none" stroke="#2181f8" stroke-linecap="round" stroke-linejoin="round" stroke-width="2"/><line x2="34.243" transform="translate(11.171 28.499)" fill="none" stroke="#2181f8" stroke-linecap="round" stroke-linejoin="round" stroke-width="2"/></g></g></svg>