<svg xmlns="http://www.w3.org/2000/svg" xmlns:xlink="http://www.w3.org/1999/xlink" width="45" height="45" viewBox="0 0 45 45"><defs><clipPath id="a"><rect width="45" height="45" transform="translate(1050 5815)" fill="#fff" stroke="#707070" stroke-width="1"/></clipPath></defs><g transform="translate(-1050 -5815)" clip-path="url(#a)"><path d="M42.8,23.334l2.9-5.167a1.15,1.15,0,0,0-.417-1.517l-5.1-3.033V7.7A1.133,1.133,0,0,0,39,6.667L33.068,6.5,30,1.383a1.133,1.133,0,0,0-1.517-.4l-5.15,2.883L18.167.983a1.133,1.133,0,0,0-1.5.4l-3.05,5.1H7.7A1.133,1.133,0,0,0,6.667,7.667L6.5,13.6,1.383,16.667a1.15,1.15,0,0,0-.417,1.517l2.9,5.15L.967,28.5A1.15,1.15,0,0,0,1.383,30l5.1,3.033v5.917A1.15,1.15,0,0,0,7.6,40.084h5.933l3.133,5.183a1.117,1.117,0,0,0,1.5.4L23.334,42.8,28.5,45.7a1.15,1.15,0,0,0,1.517-.417l3.033-5.1h5.917a1.133,1.133,0,0,0,1.117-1.117l.083-5.933L45.268,30a1.1,1.1,0,0,0,.4-1.5Zm-4.333,8.1a1.167,1.167,0,0,0-.533.983v5.45h-5.45a1.133,1.133,0,0,0-.967.55l-2.883,4.75-4.767-2.65a1.083,1.083,0,0,0-1.1,0l-4.733,2.65-2.8-4.7a1.167,1.167,0,0,0-.983-.533H8.8v-5.45a1.167,1.167,0,0,0-.533-.983L3.5,28.634l2.667-4.767a1.167,1.167,0,0,0,0-1.1L3.5,18.034l4.7-2.8a1.167,1.167,0,0,0,.533-.983V8.8h5.45a1.167,1.167,0,0,0,.983-.533L18.034,3.5,22.8,6.167a1.167,1.167,0,0,0,1.1,0L28.634,3.5l2.8,4.7a1.15,1.15,0,0,0,.967.55h5.467v5.433a1.167,1.167,0,0,0,.533.983l4.7,2.8-2.667,4.767a1.167,1.167,0,0,0,0,1.1L43.1,28.567Zm-6.584-15a1.133,1.133,0,0,1,0,1.667h0A77.535,77.535,0,0,0,22.151,30a1.133,1.133,0,0,1-.85.533h-.117a1.133,1.133,0,0,1-.833-.367l-5.633-6.083A1.133,1.133,0,0,1,15,22.5a1.15,1.15,0,0,1,1.417.083l4.667,5a84.686,84.686,0,0,1,9.234-11.167,1.15,1.15,0,0,1,1.667,0Z" transform="translate(1049.166 5814.162)" fill="#2181f8"/></g></svg>