<svg xmlns="http://www.w3.org/2000/svg" xmlns:xlink="http://www.w3.org/1999/xlink" width="45" height="45" viewBox="0 0 45 45"><defs><clipPath id="a"><rect width="45" height="45" transform="translate(1484 5812)" fill="#fff" stroke="#707070" stroke-width="1"/></clipPath></defs><g transform="translate(-1484 -5812)" clip-path="url(#a)"><g transform="translate(1483.514 5811.816)"><g fill="none"><path d="M35.385,37.6h.632a1.086,1.086,0,0,0,1.069-1.069V4.423a1.069,1.069,0,0,0-1.069-1.069h-.632a1.053,1.053,0,0,0-1.069,1.069V36.535A1.069,1.069,0,0,0,35.385,37.6Z" stroke="none"/><path d="M 36.01658630371094 37.6043701171875 C 36.60351943969727 37.59566879272461 37.07720947265625 37.12197875976562 37.08590698242188 36.53504943847656 L 37.08590698242188 4.423089981079102 C 37.08590698242188 3.832520008087158 36.60715866088867 3.353770017623901 36.01658630371094 3.353770017623901 L 35.38471984863281 3.353770017623901 C 35.0997428894043 3.349350214004517 34.82522964477539 3.460589408874512 34.62372970581055 3.662090063095093 C 34.42221832275391 3.863600015640259 34.31098937988281 4.138160228729248 34.31539916992188 4.423089981079102 L 34.31539916992188 36.53504943847656 C 34.31539916992188 37.1256103515625 34.79415893554688 37.6043701171875 35.38471984863281 37.6043701171875 L 36.01658630371094 37.6043701171875 M 36.01806640625 37.80437088012695 L 35.38471984863281 37.80437088012695 C 34.68480682373047 37.80437088012695 34.11539840698242 37.23495864868164 34.11539840698242 36.53504943847656 L 34.11539840698242 4.423089981079102 C 34.11020660400391 4.089089870452881 34.24392700195312 3.759050130844116 34.48230743408203 3.520669937133789 C 34.71898651123047 3.283990144729614 35.03365707397461 3.153640031814575 35.36835861206055 3.153640031814575 L 35.38765716552734 3.15378999710083 L 36.01658630371094 3.153769969940186 C 36.71649932861328 3.153769969940186 37.28590774536133 3.723180055618286 37.28590774536133 4.423089981079102 L 37.28590774536133 36.53504943847656 C 37.27551651000977 37.23773956298828 36.71927642822266 37.79397964477539 36.01954650878906 37.80435180664062 L 36.01806640625 37.80437088012695 Z" stroke="none" fill="#2181f8"/></g><g fill="none"><path d="M4.861,24.141V16.817c-.94.1-1.879.162-2.771.178v6.951Q3.419,23.995,4.861,24.141Z" stroke="none"/><path d="M 4.860535144805908 24.14067840576172 L 4.860535144805908 16.81745910644531 C 3.920835018157959 16.9146785736084 2.981135129928589 16.97947883605957 2.090034961700439 16.99568939208984 L 2.090034961700439 23.94624900817871 C 2.975724935531616 23.97865867614746 3.899235010147095 24.0434684753418 4.860535144805908 24.14067840576172 M 5.060534954071045 24.36191940307617 L 4.840415000915527 24.33966827392578 C 3.887855052947998 24.24333953857422 2.960025072097778 24.17821884155273 2.082725048065186 24.1461181640625 L 1.890035033226013 24.13906860351562 L 1.890035033226013 16.7992992401123 L 2.086395025253296 16.79571914672852 C 2.924345016479492 16.78047943115234 3.850775003433228 16.72085952758789 4.839954853057861 16.6185188293457 L 5.060534954071045 16.59569931030273 L 5.060534954071045 24.36191940307617 Z" stroke="none" fill="#2181f8"/></g><g fill="none"><path d="M39.176,16.364a2.868,2.868,0,0,0-.518,0v8.1h.518a4.115,4.115,0,0,0,0-8.231Z" stroke="none"/><path d="M 39.17593765258789 16.23419570922852 L 39.17593765258789 16.36381530761719 C 39.00348281860352 16.3481559753418 38.8299446105957 16.3481559753418 38.65748977661133 16.36381530761719 L 38.65748977661133 24.46471405029297 L 39.17593765258789 24.46471405029297 C 41.44872665405273 24.46471405029297 43.29118728637695 22.62224578857422 43.29118728637695 20.34945487976074 C 43.29118728637695 18.07666397094727 41.44872665405273 16.23419570922852 39.17593765258789 16.23419570922852 M 38.97593688964844 16.03419494628906 L 39.17593765258789 16.03419494628906 C 41.55537796020508 16.03419494628906 43.49118804931641 17.97001457214355 43.49118804931641 20.34945487976074 C 43.49118804931641 22.72889518737793 41.55537796020508 24.66471481323242 39.17593765258789 24.66471481323242 L 38.45748901367188 24.66471481323242 L 38.45748901367188 16.18115425109863 L 38.63939666748047 16.16463470458984 C 38.75088882446289 16.15451240539551 38.86362838745117 16.15045738220215 38.97593688964844 16.15264511108398 L 38.97593688964844 16.03419494628906 Z" stroke="none" fill="#2181f8"/></g><g fill="none"><path d="M14.193,27.948l-.324-.1q-1.539-.486-3.159-.924h-.162V42.06h3.645Z" stroke="none"/><path d="M 10.54737186431885 26.92738342285156 L 10.54737186431885 42.05986022949219 L 14.19277095794678 42.05986022949219 L 14.19277095794678 27.94810104370117 L 13.86874103546143 27.85089111328125 C 12.84262180328369 27.52685165405273 11.78951168060303 27.21901321411133 10.70939159393311 26.92738342285156 L 10.54737186431885 26.92738342285156 M 10.34737110137939 26.72738265991211 L 10.73591136932373 26.72738265991211 L 10.7615213394165 26.73429107666016 C 11.8391809463501 27.02526092529297 12.90486145019531 27.33677291870117 13.92897129058838 27.66017150878906 L 14.39277172088623 27.79929351806641 L 14.39277172088623 42.25986099243164 L 10.34737110137939 42.25986099243164 L 10.34737110137939 26.72738265991211 Z" stroke="none" fill="#2181f8"/></g><g fill="none"><path d="M32.728,5.849a76.294,76.294,0,0,1-9.721,5.411,73.411,73.411,0,0,1-11.892,4.293c-1.912.5-3.483.859-4.7,1.069V24.3c.972.162,2.155.405,3.532.761l1.15.292c1.458.389,2.835.81,4.131,1.231a75.451,75.451,0,0,1,17.5,8.474Z" stroke="none"/><path d="M 32.72762680053711 5.848846435546875 C 29.62328720092773 7.886825561523438 26.37429809570312 9.6954345703125 23.00655746459961 11.26024436950684 C 19.17337799072266 13.03073501586914 15.19457817077637 14.46721458435059 11.11444664001465 15.55372619628906 C 9.202617645263672 16.05598449707031 7.631048202514648 16.41241455078125 6.415908813476562 16.62304496765137 L 6.415908813476562 24.30269622802734 C 7.388017654418945 24.4647159576416 8.570747375488281 24.70773506164551 9.947906494140625 25.06417465209961 L 11.09822654724121 25.35580444335938 C 12.556396484375 25.74465560913086 13.93354797363281 26.1659049987793 15.22968673706055 26.58714485168457 C 21.40335655212402 28.64524459838867 27.28481674194336 31.49339485168457 32.72763824462891 35.06068420410156 L 32.72762680053711 5.848846435546875 M 32.92762756347656 5.478294372558594 L 32.92763900756836 35.4308967590332 L 32.61800765991211 35.22795486450195 C 27.19227600097656 31.671875 21.32071685791016 28.82851409912109 15.16643714904785 26.77687454223633 C 13.67607688903809 26.29252624511719 12.32802772521973 25.89074516296387 11.04669761657715 25.5490550994873 L 9.898757934570312 25.2580451965332 C 8.659168243408203 24.93721389770508 7.476627349853516 24.6822452545166 6.383026123046875 24.49997520446777 L 6.215908050537109 24.47212600708008 L 6.215908050537109 16.45473480224609 L 6.381748199462891 16.42598533630371 C 7.601516723632812 16.21455574035645 9.176727294921875 15.85600471496582 11.06362724304199 15.36028480529785 C 15.12058639526367 14.27994537353516 19.11077690124512 12.83934593200684 22.92269706726074 11.07867622375488 C 26.26993751525879 9.523395538330078 29.53199768066406 7.707504272460938 32.61786651611328 5.681655883789062 L 32.92762756347656 5.478294372558594 Z" stroke="none" fill="#2181f8"/></g><g fill="#2181f8"><path d="M 14.98665809631348 43.69903182983398 L 9.753478050231934 43.69903182983398 C 9.260587692260742 43.69903182983398 8.859598159790039 43.29803085327148 8.859598159790039 42.80514144897461 L 8.859598159790039 26.55101013183594 C 7.766373157501221 26.26769065856934 6.645687103271484 26.0461483001709 5.527388095855713 25.89233207702637 C 4.124677658081055 25.70282173156738 2.695467948913574 25.60500144958496 1.279697895050049 25.60162162780762 C 0.7969278693199158 25.60172271728516 0.3959378898143768 25.20891189575195 0.386077880859375 24.72598266601562 L 0.3860578835010529 16.20179176330566 C 0.3958278894424438 15.71684265136719 0.7965878844261169 15.32394218444824 1.279447913169861 15.32394218444824 L 1.298207879066467 15.32413196563721 C 2.705617904663086 15.31858253479004 4.129717826843262 15.22617244720459 5.528487682342529 15.04947185516357 C 7.261327743530273 14.79304218292236 8.995878219604492 14.4178524017334 10.6818380355835 13.93462181091309 C 14.6499080657959 12.86929225921631 18.55299758911133 11.45939254760742 22.28429794311523 9.743632316589355 C 25.88674354553223 8.060126304626465 29.38633155822754 6.080963611602783 32.6862678527832 3.860845327377319 C 32.95155334472656 2.586884021759033 34.07968521118164 1.666338562965393 35.38469696044922 1.665992259979248 L 36.01654815673828 1.665992259979248 C 37.52817916870117 1.67519223690033 38.75748825073242 2.912012338638306 38.75748825073242 4.423092365264893 L 38.75748825073242 14.6760425567627 L 39.17593765258789 14.6760425567627 L 39.27593612670898 14.6760425567627 L 39.27593612670898 14.68204307556152 C 39.44496917724609 14.66722583770752 39.61549758911133 14.6597318649292 39.78432846069336 14.6597318649292 C 41.79611968994141 14.6597318649292 43.63460922241211 15.6783618927002 44.70228958129883 17.38455200195312 C 45.28045654296875 18.3084831237793 45.5860595703125 19.37295150756836 45.5860595703125 20.46286201477051 C 45.5860595703125 21.55278205871582 45.28045654296875 22.61724281311035 44.70228958129883 23.54117202758789 C 43.63460922241211 25.24737167358398 41.79612731933594 26.2660026550293 39.78432846069336 26.2660026550293 C 39.58036041259766 26.2660026550293 39.37392807006836 26.25506591796875 39.17063903808594 26.23349189758301 L 38.75747680664062 26.23349189758301 L 38.75747680664062 36.53505325317383 C 38.75747680664062 38.04638290405273 37.52791976928711 39.27594375610352 36.01658630371094 39.27594375610352 L 35.38472747802734 39.27594375610352 C 34.08506774902344 39.27594375610352 32.95801544189453 38.36227798461914 32.68655395507812 37.09743499755859 C 27.46994972229004 33.58009719848633 21.81664657592773 30.74058151245117 15.88054752349854 28.65612602233887 L 15.88054752349854 42.80514144897461 C 15.88054752349854 43.29803085327148 15.47954750061035 43.69903182983398 14.98665809631348 43.69903182983398 Z M 10.64747524261475 41.78164291381836 L 14.18997764587402 41.78164291381836 L 14.18997764587402 27.89288330078125 L 13.93720817565918 27.81705284118652 C 12.86706066131592 27.49602127075195 11.7821569442749 27.18675422668457 10.712327003479 26.89777183532715 L 10.66346073150635 26.89777183532715 L 10.64747524261475 41.78164291381836 Z M 35.36836624145508 3.45364236831665 C 35.11379623413086 3.45364236831665 34.87445831298828 3.552782297134399 34.69443893432617 3.732802391052246 C 34.51312637329102 3.914112329483032 34.41141891479492 4.165152072906494 34.41539764404297 4.421542167663574 L 34.41540908813477 36.53504180908203 C 34.41540908813477 37.06952285766602 34.85023880004883 37.50436401367188 35.38471603393555 37.50436401367188 L 36.01658630371094 37.50436401367188 C 36.55153656005859 37.49642181396484 36.97796630859375 37.06999206542969 36.98591613769531 36.53356170654297 L 36.98590850830078 4.423092365264893 C 36.98590850830078 3.888612270355225 36.55106735229492 3.453772306442261 36.01658630371094 3.453772306442261 L 35.38472747802734 3.453772306442261 L 35.36836624145508 3.45364236831665 Z M 15.34503936767578 26.55268287658691 C 21.42938613891602 28.59204292297363 27.23691558837891 31.40242767333984 32.61141967773438 34.90819931030273 L 32.6114387512207 6.114866733551025 C 29.55924797058105 8.10788631439209 26.33734703063965 9.896363258361816 23.0324878692627 11.43196201324463 C 19.22780799865723 13.16813182830811 15.24855804443359 14.5873327255249 11.20466804504395 15.65043258666992 C 9.351784706115723 16.13720893859863 7.796834468841553 16.4925365447998 6.580718040466309 16.70707130432129 L 6.580718040466309 24.22182464599609 C 7.524409770965576 24.42343139648438 8.698589324951172 24.66348266601562 9.983497619628906 24.91747283935547 L 9.98610782623291 24.91798210144043 L 9.988677978515625 24.91864204406738 L 11.13899803161621 25.21027183532715 C 12.42695808410645 25.5537223815918 13.78005790710449 25.95699310302734 15.27679824829102 26.44344139099121 L 15.36137771606445 26.47093200683594 L 15.34503936767578 26.55268287658691 Z M 38.75748825073242 24.49432182312012 L 39.17593765258789 24.49432182312012 C 41.39022827148438 24.49432182312012 43.1987190246582 22.69291305541992 43.2073974609375 20.47868156433105 C 43.13044738769531 18.30176162719727 41.36074829101562 16.59343147277832 39.1785774230957 16.59343147277832 L 39.17404937744141 16.59343147277832 L 39.16690826416016 16.59302139282227 C 39.08406829833984 16.58550262451172 38.9998893737793 16.58169174194336 38.91671752929688 16.58169174194336 C 38.86384201049805 16.58169174194336 38.81056976318359 16.58323287963867 38.75748825073242 16.5862865447998 L 38.75748825073242 24.49432182312012 Z M 2.190037965774536 23.8499698638916 C 3.011192798614502 23.88211059570312 3.874817371368408 23.94265556335449 4.760538101196289 24.03017997741699 L 4.760538101196289 16.92801284790039 C 3.82742714881897 17.02055931091309 2.963733434677124 17.07621383666992 2.190037965774536 17.09364700317383 L 2.190037965774536 23.8499698638916 Z" stroke="none"/><path d="M 35.38472747802734 1.7659912109375 C 34.11117553710938 1.766330718994141 33.0169677734375 2.670253753662109 32.77623748779297 3.920833587646484 C 29.45155715942383 6.160190582275391 25.95761871337891 8.137382507324219 22.32607841491699 9.834484100341797 C 18.57881736755371 11.55758285522461 14.69278717041016 12.96132278442383 10.70938873291016 14.03075218200684 C 9.013137817382812 14.51693153381348 7.286579132080078 14.8903923034668 5.541019439697266 15.14867210388184 L 5.541019439697266 15.148681640625 C 4.132957458496094 15.32655143737793 2.715377807617188 15.41854286193848 1.296146392822266 15.42411231994629 C 0.8577728271484375 15.41510009765625 0.4949073791503906 15.76330184936523 0.4860496520996094 16.20179176330566 L 0.4860496520996094 24.72394180297852 C 0.4948692321777344 25.15605163574219 0.8477363586425781 25.50171279907227 1.279937744140625 25.50162315368652 C 2.705169677734375 25.5050220489502 4.128616333007812 25.60244178771973 5.541007995605469 25.79325294494629 L 5.541019439697266 25.79326248168945 C 6.693088531494141 25.95172309875488 7.834648132324219 26.17895317077637 8.959587097167969 26.47373199462891 L 8.959587097167969 42.80514144897461 C 8.959587097167969 43.24359130859375 9.315029144287109 43.59903335571289 9.75347900390625 43.59903335571289 L 14.98665809631348 43.59903335571289 C 15.42511749267578 43.59903335571289 15.78054809570312 43.24359130859375 15.78054809570312 42.80514144897461 L 15.78054809570312 28.51516151428223 C 21.78910827636719 30.6121826171875 27.50160789489746 33.47660064697266 32.77623748779297 37.03731155395508 C 33.02375793457031 38.28145217895508 34.11669158935547 39.17680740356445 35.38472747802734 39.17594146728516 L 36.01658630371094 39.17594146728516 C 37.4751091003418 39.17594146728516 38.65747833251953 37.99357223510742 38.65747833251953 36.53505325317383 L 38.65747833251953 26.13349151611328 L 39.17593765258789 26.13349151611328 C 41.34661483764648 26.36588668823242 43.45947647094727 25.33873176574707 44.61751937866211 23.48812294006348 C 45.77555847167969 21.63752174377441 45.77555847167969 19.28821182250977 44.61751937866211 17.43760299682617 C 43.45947647094727 15.58700180053711 41.34659957885742 14.55983734130859 39.17593765258789 14.7922420501709 L 39.17593765258789 14.77603149414062 L 38.65748596191406 14.77603149414062 L 38.65748596191406 4.423091888427734 C 38.65748596191406 2.961872100830078 37.47768783569336 1.774883270263672 36.01654815673828 1.7659912109375 L 35.38472747802734 1.7659912109375 M 36.01658630371094 37.60436248779297 L 35.38471984863281 37.60436248779297 C 34.79415893554688 37.60436248779297 34.31539916992188 37.1256103515625 34.31539916992188 36.53504180908203 L 34.31539916992188 4.423091888427734 C 34.31098937988281 4.138153076171875 34.42221832275391 3.863594055175781 34.62372589111328 3.662094116210938 C 34.82522583007812 3.460590362548828 35.0997428894043 3.34942626953125 35.38472747802734 3.353771209716797 L 36.01658630371094 3.353771209716797 C 36.60715866088867 3.353771209716797 37.08590698242188 3.832523345947266 37.08590698242188 4.423091888427734 L 37.08590698242188 36.53504180908203 C 37.07720947265625 37.12197113037109 36.603515625 37.59566116333008 36.01658630371094 37.60436248779297 M 32.71141815185547 35.09309387207031 C 27.27367782592773 31.52705192565918 21.39773750305176 28.67893218994141 15.22969818115234 26.61954307556152 L 15.24588775634766 26.53854179382324 C 13.94974899291992 26.1172924041748 12.57259750366211 25.69605255126953 11.11442947387695 25.30720138549805 L 9.964107513427734 25.01557159423828 C 8.570747375488281 24.74014282226562 7.388019561767578 24.49711227416992 6.480716705322266 24.30269241333008 L 6.480716705322266 16.62304306030273 C 7.695858001708984 16.41242218017578 9.267429351806641 16.05598258972168 11.17923736572266 15.5537223815918 C 15.22921752929688 14.48902320861816 19.18066787719727 13.0797233581543 22.99034881591797 11.34127044677734 C 26.35809707641602 9.776443481445312 29.60708808898926 7.967842102050781 32.7114372253418 5.929851531982422 L 32.71141815185547 35.09309387207031 M 39.17594909667969 16.49342155456543 C 39.17676162719727 16.49342155456543 39.1777458190918 16.49342155456543 39.17855834960938 16.49342155456543 C 41.40343475341797 16.49342155456543 43.22886657714844 18.25528717041016 43.30739593505859 20.47907257080078 C 43.29847717285156 22.75434303283691 41.45121383666992 24.59432220458984 39.17597579956055 24.59432220458984 C 39.17583465576172 24.59432220458984 39.17607879638672 24.59432220458984 39.17593765258789 24.59432220458984 L 38.65748596191406 24.59432220458984 L 38.65748596191406 16.49342155456543 C 38.82994842529297 16.47777366638184 39.00347900390625 16.47777366638184 39.17594909667969 16.49342155456543 M 4.860538482666016 24.14067268371582 C 3.899227142333984 24.0434627532959 2.975727081298828 23.97865295410156 2.09002685546875 23.94625282287598 L 2.09002685546875 16.99568176269531 C 2.964927673339844 16.97948265075684 3.904628753662109 16.9146728515625 4.860538482666016 16.81746292114258 L 4.860538482666016 24.14067268371582 M 14.28997802734375 41.88164138793945 L 10.54736709594727 41.88164138793945 L 10.56356811523438 26.79777145385742 L 10.72558975219727 26.79777145385742 C 11.80570602416992 27.08940315246582 12.88582611083984 27.39724159240723 13.96594619750977 27.72127151489258 L 14.28997802734375 27.8184814453125 L 14.28997802734375 41.88164138793945 M 35.38467788696289 1.565990447998047 L 36.01654815673828 1.565990447998047 C 37.58359909057617 1.575523376464844 38.85748672485352 2.857212066650391 38.85748672485352 4.423091888427734 L 38.85748672485352 14.5760326385498 L 39.34621429443359 14.5760326385498 C 40.48943328857422 14.49118614196777 41.63639068603516 14.74349594116211 42.63529968261719 15.29468154907227 C 43.51181793212891 15.77834320068359 44.25587844848633 16.48266220092773 44.78705596923828 17.33151245117188 C 45.37517929077148 18.2713623046875 45.6860466003418 19.35417175292969 45.6860466003418 20.46286201477051 C 45.6860466003418 21.57156181335449 45.37517929077148 22.65437316894531 44.78705596923828 23.59421157836914 C 43.70098876953125 25.3298225402832 41.83080673217773 26.36600303649902 39.78432846069336 26.36600303649902 C 39.57859802246094 26.36600303649902 39.37043380737305 26.35506820678711 39.16539001464844 26.33349227905273 L 38.85747909545898 26.33349227905273 L 38.85747909545898 36.53505325317383 C 38.85747909545898 38.10152435302734 37.58305740356445 39.37594223022461 36.01658630371094 39.37594223022461 L 35.38472747802734 39.37594223022461 C 34.05164337158203 39.37594223022461 32.89373016357422 38.44817352294922 32.59758377075195 37.15806198120117 C 27.43632316589355 33.68207168579102 21.8474006652832 30.87021636962891 15.98054695129395 28.79736518859863 L 15.98054695129395 42.80514144897461 C 15.98054695129395 43.35317230224609 15.53468704223633 43.79903411865234 14.98665809631348 43.79903411865234 L 9.75347900390625 43.79903411865234 C 9.205448150634766 43.79903411865234 8.759586334228516 43.35317230224609 8.759586334228516 42.80514144897461 L 8.759586334228516 26.62850952148438 C 7.693866729736328 26.35538101196289 6.602672576904297 26.14116859436035 5.513767242431641 25.99139213562012 C 4.115627288818359 25.8025016784668 2.690849304199219 25.70499229431152 1.279457092285156 25.70162200927734 C 0.7429084777832031 25.70173263549805 0.2970466613769531 25.26498222351074 0.2860870361328125 24.7280216217041 L 0.2860488891601562 16.20179176330566 C 0.29693603515625 15.66079139709473 0.7425575256347656 15.22394180297852 1.279449462890625 15.22394180297852 L 1.300098419189453 15.22415161132812 C 2.701107025146484 15.21859169006348 4.121116638183594 15.12646293640137 5.515949249267578 14.95026206970215 C 7.242347717285156 14.69476318359375 8.972549438476562 14.32051277160645 10.65427780151367 13.83849143981934 C 14.61856842041016 12.77416229248047 18.51631736755371 11.36619186401367 22.24251747131348 9.65277099609375 C 25.82762336730957 7.977371215820312 29.31112861633301 6.008506774902344 32.59702682495117 3.800350189208984 C 32.88698577880859 2.500934600830078 34.04601669311523 1.56634521484375 35.38467788696289 1.565990447998047 Z M 36.01485061645508 37.40436172485352 C 36.49626159667969 37.39658737182617 36.87879180908203 37.0136604309082 36.88592910766602 36.53208160400391 L 36.88591003417969 4.423091888427734 C 36.88591003417969 3.943752288818359 36.49592590332031 3.55377197265625 36.01658630371094 3.55377197265625 L 35.36837005615234 3.553642272949219 C 35.14050674438477 3.553642272949219 34.92627716064453 3.642383575439453 34.7651481628418 3.803512573242188 C 34.60285949707031 3.965793609619141 34.51181793212891 4.19049072265625 34.51537704467773 4.419990539550781 L 34.51539611816406 36.53504180908203 C 34.51539611816406 37.01438140869141 34.90538024902344 37.40436172485352 35.38471984863281 37.40436172485352 L 36.01485061645508 37.40436172485352 Z M 32.51141738891602 34.72384643554688 L 32.51143646240234 6.29931640625 C 29.50112533569336 8.254566192626953 26.32820892333984 10.01086044311523 23.07462882995605 11.52265167236328 C 19.2641487121582 13.26147079467773 15.27948760986328 14.68260192871094 11.23008728027344 15.74715232849121 C 9.416336059570312 16.22364807128906 7.887004852294922 16.57447242736816 6.680717468261719 16.79084968566895 L 6.680717468261719 24.14090538024902 C 7.610092163085938 24.33886909484863 8.754100799560547 24.57251167297363 10.00288772583008 24.81937217712402 L 10.01325607299805 24.82170295715332 L 11.16357803344727 25.11333274841309 C 12.4544677734375 25.45756149291992 13.80924606323242 25.86133193969727 15.30770874023438 26.34833145141602 L 15.47686767578125 26.40331268310547 L 15.46035957336426 26.48591613769531 C 21.46389579772949 28.50600242614746 27.19789505004883 31.2763671875 32.51141738891602 34.72384643554688 Z M 43.10737991333008 20.48230743408203 C 43.03031158447266 18.35741806030273 41.3053092956543 16.69342231750488 39.17855834960938 16.69342231750488 L 39.15786743164062 16.69260215759277 C 39.05844116210938 16.68357086181641 38.95778274536133 16.68010139465332 38.85748672485352 16.68234634399414 L 38.85748672485352 24.39432144165039 L 39.17597961425781 24.39432144165039 C 41.33399200439453 24.39432144165039 43.09678268432617 22.63979721069336 43.10737991333008 20.48230743408203 Z M 4.660537719726562 23.91993141174316 L 4.660537719726562 17.03827667236328 C 3.805721282958984 17.12089538574219 3.010257720947266 17.17221450805664 2.290027618408203 17.19123458862305 L 2.290027618408203 23.75392532348633 C 3.050212860107422 23.78560066223145 3.845668792724609 23.84130096435547 4.660537719726562 23.91993141174316 Z M 14.0899772644043 27.96729278564453 L 13.90847778320312 27.912841796875 C 12.86489105224609 27.59976577758789 11.80728149414062 27.29791069030762 10.76333618164062 27.01516723632812 L 10.74758148193359 41.681640625 L 14.0899772644043 41.681640625 L 14.0899772644043 27.96729278564453 Z" stroke="none" fill="#2181f8"/></g></g></g></svg>