<svg xmlns="http://www.w3.org/2000/svg" xmlns:xlink="http://www.w3.org/1999/xlink" width="45" height="45" viewBox="0 0 45 45">
  <defs>
    <clipPath id="clip-path">
      <rect width="45" height="45" transform="translate(280 4654)" fill="#fff" stroke="#707070" stroke-width="1"/>
    </clipPath>
  </defs>
  <g transform="translate(-280 -4654)" clip-path="url(#clip-path)">
    <path id="noun-22" d="M23.333,45l-6.35-6.667H7.817A7,7,0,0,1,.833,31.35V8.617a7,7,0,0,1,6.983-6.95H38.85a7,7,0,0,1,6.983,6.95V31.35a7,7,0,0,1-6.983,6.983H29.683ZM7.817,3.333a5.317,5.317,0,0,0-5.3,5.283V31.35a5.3,5.3,0,0,0,5.3,5.317H17.7l5.633,5.917,5.633-5.917H38.85a5.3,5.3,0,0,0,5.3-5.3V8.617a5.317,5.317,0,0,0-5.3-5.283ZM34.3,30.083H12.367l.417-1.133a11,11,0,0,1,5.55-5.983h.117a7.75,7.75,0,1,1,9.9,0h.117A11,11,0,0,1,33.95,28.95Zm-19.417-1.75h16.9a9.4,9.4,0,0,0-3.7-3.7,9.033,9.033,0,0,1-9.5,0,9.4,9.4,0,0,0-3.7,3.7Zm8.45-17.45A6.067,6.067,0,1,0,29.4,16.95a6.067,6.067,0,0,0-6.067-6.067Z" transform="translate(279.167 4653.167)" fill="#2181f8"/>
  </g>
</svg>
