<svg xmlns="http://www.w3.org/2000/svg" xmlns:xlink="http://www.w3.org/1999/xlink" width="45" height="45" viewBox="0 0 45 45">
  <defs>
    <clipPath id="clip-path">
      <rect width="45" height="45" transform="translate(280 4529)" fill="#fff" stroke="#707070" stroke-width="1"/>
    </clipPath>
  </defs>
  <g transform="translate(-280 -4529)" clip-path="url(#clip-path)">
    <g transform="translate(280 4529.57)">
      <path d="M25.669,6.708h.1L27.4,8.175V2.844H22.9v5.38l1.63-1.516a.962.962,0,0,1,.587-.147,1.255,1.255,0,0,1,.554.147Z" transform="translate(-2.614 -1.179)" fill="none"/>
      <path d="M2.21,27.825V45.873H20.437V27.825H15.3v7.222a.815.815,0,0,1-.505.75l-.277.082a1.353,1.353,0,0,1-.571-.147h-.1l-2.478-2.266L8.829,35.732a.734.734,0,0,1-.522.2H7.916a.815.815,0,0,1-.473-.734V27.825Z" transform="translate(-0.545 -3.678)" fill="none"/>
      <path d="M15.235,2.844V20.892H33.462V2.844H28.326v7.222a.8.8,0,0,1-.505.75l-.212.065a1.4,1.4,0,0,1-.571-.13h-.1L24.348,8.436l-2.494,2.3a.668.668,0,0,1-.522.2.9.9,0,0,1-.293,0h-.1a.8.8,0,0,1-.473-.717V2.844Z" transform="translate(-1.848 -1.179)" fill="none"/>
      <path d="M12.644,31.683h.1l1.63,1.467V27.77h-4.5v5.38l1.63-1.5a.864.864,0,0,1,.571-.147A1.63,1.63,0,0,1,12.644,31.683Z" transform="translate(-1.312 -3.672)" fill="none"/>
      <path d="M38.694,31.683h.1l1.63,1.467V27.77h-4.5v5.38l1.63-1.5a.864.864,0,0,1,.571-.147A1.63,1.63,0,0,1,38.694,31.683Z" transform="translate(-3.917 -3.672)" fill="none"/>
      <path d="M28.259,27.825V45.873H46.487V27.825H41.335v7.222a.815.815,0,0,1-.489.75l-.277.082A1.288,1.288,0,0,1,40,35.732h-.1l-2.478-2.217-2.543,2.266a.734.734,0,0,1-.522.2h-.408a.831.831,0,0,1-.457-.734V27.825Z" transform="translate(-3.15 -3.678)" fill="none"/>
      <path d="M14.218,22.37h19.89a.831.831,0,0,0,.831-.831V1.828A.783.783,0,0,0,34.109,1H14.218a.783.783,0,0,0-.831.831V21.539a.783.783,0,0,0,.831.831ZM21.946,8.039V2.659h4.516v5.38l-1.63-1.467h-.1a1.255,1.255,0,0,0-.571-.2.962.962,0,0,0-.571.147Zm-1.19,2.641h.1a.9.9,0,0,0,.293,0,.668.668,0,0,0,.522-.2l2.494-2.234,2.478,2.217h.1a1.4,1.4,0,0,0,.685.228H27.7a.8.8,0,0,0,.44-.815V2.659h5.136V20.707H15.05V2.659h5.233v7.3a.8.8,0,0,0,.473.717Z" transform="translate(-1.663 -0.995)" fill="#2181f8"/>
      <path d="M21.084,25.977H1.194a.8.8,0,0,0-.831.831V46.519a.783.783,0,0,0,.831.831h19.89a.815.815,0,0,0,.831-.831V26.808a.783.783,0,0,0-.831-.831ZM8.921,33.02V27.64h4.516v5.38l-1.63-1.467h-.1a1.63,1.63,0,0,0-.505-.13.864.864,0,0,0-.571.147Zm-1.19,2.657h.391a.734.734,0,0,0,.522-.2l2.543-2.266,2.478,2.217h.1a1.353,1.353,0,0,0,.571.147l.277-.082a.815.815,0,0,0,.505-.75V27.64h5.136V45.688H2.025V27.64H7.258v7.3a.815.815,0,0,0,.473.734Z" transform="translate(-0.36 -3.493)" fill="#2181f8"/>
      <path d="M47.133,25.977H27.243a.783.783,0,0,0-.831.831V46.519a.783.783,0,0,0,.831.831h19.89a.831.831,0,0,0,.831-.831V26.808a.8.8,0,0,0-.831-.831ZM34.971,33.02V27.64h4.516v5.38l-1.63-1.467h-.1a1.63,1.63,0,0,0-.505-.13.864.864,0,0,0-.571.147Zm-1.206,2.657h.408a.734.734,0,0,0,.522-.2l2.543-2.266,2.478,2.217h.1a1.288,1.288,0,0,0,.571.147l.277-.082a.815.815,0,0,0,.489-.75V27.64H46.3V45.688H28.074V27.64h5.233v7.3a.831.831,0,0,0,.456.734Z" transform="translate(-2.965 -3.493)" fill="#2181f8"/>
    </g>
  </g>
</svg>
