<svg xmlns="http://www.w3.org/2000/svg" xmlns:xlink="http://www.w3.org/1999/xlink" width="45" height="45" viewBox="0 0 45 45">
  <defs>
    <clipPath id="clip-path">
      <rect width="45" height="45" transform="translate(280 4279)" fill="#fff" stroke="#707070" stroke-width="1"/>
    </clipPath>
  </defs>
  <g transform="translate(-280 -4279)" clip-path="url(#clip-path)">
    <g transform="translate(280 4280.716)">
      <rect width="12.683" height="6.257" transform="translate(15.964 12.92)" fill="none"/>
      <path d="M40.868,5.637H32.413l2.6,8.963H46.685l-4.87-8.455A1.015,1.015,0,0,0,40.868,5.637Z" transform="translate(-4.543 -3.607)" fill="none"/>
      <path d="M18.523,5.637H10.068a.947.947,0,0,0-.879.524l-4.9,8.455H15.953Z" transform="translate(-1.731 -3.607)" fill="none"/>
      <path d="M29.126,5.731h-7l-.068.2L19.5,14.423H31.612Z" transform="translate(-3.253 -3.617)" fill="none"/>
      <path d="M44.451,17.738H32.275v7.238a.913.913,0,0,1-.981.981H16.633a.913.913,0,0,1-1.065-.981V17.738H3.476V41.312a3.145,3.145,0,0,0,3.112,3.112h34.87a2.993,2.993,0,0,0,2.993-3.061h.287v-.693h-.287ZM22.585,34.649a.947.947,0,0,1-1.37,0L18.95,32.366v8.811a.913.913,0,0,1-.981,1,.93.93,0,0,1-1-1V32.366l-2.351,2.3a.964.964,0,0,1-1.387,0,1,1,0,0,1-.3-.761,1.032,1.032,0,0,1,.3-.693L17.259,29.3a.879.879,0,0,1,.693-.3,1.1,1.1,0,0,1,.693.3l3.974,3.974a.964.964,0,0,1,.3.693.93.93,0,0,1-.338.693Zm12.091,0a.947.947,0,0,1-1.37,0l-2.317-2.3v8.828a.913.913,0,0,1-.981,1,.93.93,0,0,1-.913-1V32.366l-2.3,2.3a.964.964,0,0,1-1.387,0,.93.93,0,0,1-.3-.693.964.964,0,0,1,.3-.693L29.4,29.3a.947.947,0,0,1,1.387,0l3.974,3.974a.947.947,0,0,1-.085,1.387Z" transform="translate(-1.65 -4.818)" fill="none"/>
      <path d="M46.227,15.034v-.287L40.477,4.9a3.044,3.044,0,0,0-2.57-1.522H9.733A2.892,2.892,0,0,0,7.18,4.87L1.447,14.679h0v.169a.727.727,0,0,1,0,.287h0V39.876A5.073,5.073,0,0,0,6.52,44.949H41.255a5.073,5.073,0,0,0,5.073-5.073V15.423l.118-.135Zm-14.34-.71-2.6-8.912h8.455a1.015,1.015,0,0,1,.913.575l4.87,8.455ZM17.411,22.542V16.3H30.094v6.24Zm.287-8.354,2.554-8.455v-.2h7l2.486,8.692ZM3.95,14.324l4.9-8.455a.947.947,0,0,1,.879-.457h8.455l-2.57,8.912Zm40.586,24.91v.643h-.287a2.993,2.993,0,0,1-2.993,3.061H6.385a3.145,3.145,0,0,1-3.112-3.112V16.3H15.365V23.54a.913.913,0,0,0,1,.981H31.092a.913.913,0,0,0,.981-.981V16.3H44.248V39.233Z" transform="translate(-1.447 -3.382)" fill="#2181f8"/>
      <path d="M19.662,30.556a1.1,1.1,0,0,0-.693-.3.879.879,0,0,0-.693.3L14.284,34.53a1.032,1.032,0,0,0-.3.693,1,1,0,0,0,.3.693.964.964,0,0,0,1.387,0l2.3-2.3v8.811a.93.93,0,0,0,1,1,.913.913,0,0,0,1.032-1V33.617l2.317,2.3a.947.947,0,0,0,1.37,0,.93.93,0,0,0,.3-.693.964.964,0,0,0-.3-.693Z" transform="translate(-2.7 -6.069)" fill="#2181f8"/>
      <path d="M33.191,30.556a.947.947,0,0,0-1.387,0l-3.991,3.974a.964.964,0,0,0-.3.693.93.93,0,0,0,.3.693.964.964,0,0,0,1.387,0l2.3-2.3v8.811a.93.93,0,0,0,1,1,.913.913,0,0,0,.981-1V33.617l2.317,2.3a.981.981,0,0,0,1.37-1.387Z" transform="translate(-4.053 -6.069)" fill="#2181f8"/>
    </g>
  </g>
</svg>
