<svg xmlns="http://www.w3.org/2000/svg" viewBox="0 0 28 28" fill="#2181F8"><defs><style>.a40574bb-b23d-4a45-9ae5-c1aec80f3ba4{fill:none;}</style></defs><path class="a40574bb-b23d-4a45-9ae5-c1aec80f3ba4" d="M10,9.41a1.41,1.41,0,0,0,0-2.82,1.41,1.41,0,0,0,0,2.82Z"/><path class="a40574bb-b23d-4a45-9ae5-c1aec80f3ba4" d="M3,14.41A1.41,1.41,0,1,0,1.61,13,1.42,1.42,0,0,0,3,14.41Z"/><path class="a40574bb-b23d-4a45-9ae5-c1aec80f3ba4" d="M18,13.41A1.41,1.41,0,1,0,16.6,12,1.42,1.42,0,0,0,18,13.41Z"/><path class="a40574bb-b23d-4a45-9ae5-c1aec80f3ba4" d="M25,4.41a1.41,1.41,0,1,0,0-2.82,1.41,1.41,0,0,0,0,2.82Z"/><path d="M27,26.41H25.6V9a.59.59,0,0,0-.6-.59.58.58,0,0,0-.59.59V26.41H18.6V18a.6.6,0,0,0-1.19,0v8.41h-6.8V14a.6.6,0,0,0-1.19,0V26.41H3.61V19A.58.58,0,0,0,3,18.41a.59.59,0,0,0-.6.59v7.41H1A.58.58,0,0,0,.43,27a.59.59,0,0,0,.59.6H27a.59.59,0,0,0,.59-.6A.58.58,0,0,0,27,26.41Z"/><path d="M3,15.6a2.6,2.6,0,0,0,2.12-1.1,2.63,2.63,0,0,0,.38-2.21L5.42,12,8.3,10l.23.16a2.58,2.58,0,0,0,3.28-.26l.2-.2,3.47,1.75,0,.28a2.58,2.58,0,1,0,5.13.64,2.55,2.55,0,0,0-.39-1.72L20,10.37l3.89-5,.27.09a2.59,2.59,0,0,0,3.27-1.64A2.59,2.59,0,0,0,25.82.54,2.53,2.53,0,0,0,25,.41,2.58,2.58,0,0,0,22.41,3a2.61,2.61,0,0,0,.41,1.41l.16.24-3.89,5-.28-.09a2.54,2.54,0,0,0-2.6.58l-.2.21L12.54,8.59l0-.28a2.58,2.58,0,1,0-5.12-.64,2.61,2.61,0,0,0,.08,1L7.61,9,4.74,11l-.24-.16A2.6,2.6,0,1,0,3,15.6ZM1.61,13A1.41,1.41,0,1,1,3,14.41,1.41,1.41,0,0,1,1.61,13Zm7-5a1.41,1.41,0,1,1,2.81,0A1.41,1.41,0,1,1,8.61,8Zm8,4A1.41,1.41,0,1,1,18,13.41,1.41,1.41,0,0,1,16.6,12Zm7-9a1.41,1.41,0,1,1,2.81,0A1.41,1.41,0,1,1,23.6,3Z"/></svg>
