<svg xmlns="http://www.w3.org/2000/svg" xmlns:xlink="http://www.w3.org/1999/xlink" width="45" height="45" viewBox="0 0 45 45"><defs><clipPath id="a"><rect width="45" height="45" transform="translate(1484 5812)" fill="#fff" stroke="#707070" stroke-width="1"/></clipPath></defs><g transform="translate(-1484 -5812)" clip-path="url(#a)"><g transform="translate(1474 5802)"><path d="M64.8,18.337a.563.563,0,0,0,.165.4l5.253,5.253a.562.562,0,0,0,.794,0l4.354-4.319,2.641,2.641a.563.563,0,0,0,.96-.4l.005-11.352A.563.563,0,0,0,78.415,10h0l-11.352.005a.563.563,0,0,0-.4.96l2.657,2.657-4.351,4.316A.562.562,0,0,0,64.8,18.337Zm5.711-4.313a.562.562,0,0,0,0-.8l-2.1-2.1,9.431,0,0,9.431L75.77,18.479a.562.562,0,0,0-.794,0L70.621,22.8,66.164,18.34Z" transform="translate(-23.977)" fill="#2181f8"/><path d="M70.62,24.253a.658.658,0,0,1-.468-.194L64.9,18.806a.662.662,0,0,1,0-.939l4.28-4.245-2.586-2.586a.663.663,0,0,1,.468-1.131L78.414,9.9a.667.667,0,0,1,.469.194.658.658,0,0,1,.194.469l-.005,11.352a.663.663,0,0,1-1.131.468L75.37,19.812l-4.284,4.249A.658.658,0,0,1,70.62,24.253ZM78.415,10.1l-11.352.005a.463.463,0,0,0-.327.789l2.728,2.728L65.042,18.01a.462.462,0,0,0,0,.655l5.253,5.253a.462.462,0,0,0,.653,0l4.425-4.389,2.712,2.712a.459.459,0,0,0,.327.135.462.462,0,0,0,.462-.462l.005-11.352a.46.46,0,0,0-.136-.327A.466.466,0,0,0,78.415,10.1ZM70.621,22.938l-4.6-4.6,4.422-4.387a.462.462,0,0,0,0-.655L68.179,11.03l9.773,0,0,9.773L75.7,18.55a.462.462,0,0,0-.653,0Zm-4.315-4.6,4.316,4.316,4.284-4.249a.662.662,0,0,1,.935,0l1.907,1.907,0-9.09-9.09,0,1.926,1.926a.662.662,0,0,1,0,.939Z" transform="translate(-23.977)" fill="#2181f8"/><path d="M10.353,22.434a.565.565,0,0,0,.613-.122l2.657-2.657,4.316,4.351a.562.562,0,0,0,.4.166h0a.563.563,0,0,0,.4-.165l5.253-5.253a.562.562,0,0,0,0-.794l-4.319-4.354,2.641-2.641a.563.563,0,0,0-.4-.96L10.563,10h0a.563.563,0,0,0-.562.563l.005,11.352A.562.562,0,0,0,10.353,22.434Zm10.2-11.3-2.078,2.078a.562.562,0,0,0,0,.794L22.8,18.356,18.34,22.813l-4.316-4.351a.562.562,0,0,0-.4-.166h0a.563.563,0,0,0-.4.165l-2.1,2.1,0-9.431Z" fill="#2181f8"/><path d="M18.338,24.272h0a.666.666,0,0,1-.469-.2L13.622,19.8l-2.586,2.586a.663.663,0,0,1-1.131-.468L9.9,10.563a.659.659,0,0,1,.194-.469.667.667,0,0,1,.468-.194l11.352.005a.663.663,0,0,1,.468,1.131l-2.571,2.571,4.249,4.284a.663.663,0,0,1,0,.935l-5.253,5.253A.667.667,0,0,1,18.338,24.272Zm-4.715-4.759,4.387,4.422a.465.465,0,0,0,.327.137v0a.466.466,0,0,0,.327-.135l5.253-5.253a.463.463,0,0,0,0-.653L19.53,13.607l2.712-2.712a.463.463,0,0,0-.327-.79L10.563,10.1a.466.466,0,0,0-.327.136.46.46,0,0,0-.135.327l.005,11.352a.463.463,0,0,0,.79.327Zm4.716,3.441-4.387-4.422a.465.465,0,0,0-.327-.137v0a.466.466,0,0,0-.327.135L11.03,20.8l0-9.773,9.773,0L18.55,13.278a.463.463,0,0,0,0,.653l4.389,4.425ZM13.624,18.2h0a.666.666,0,0,1,.469.2l4.245,4.28,4.316-4.316-4.249-4.284a.663.663,0,0,1,0-.935l1.907-1.907-9.09,0,0,9.09,1.926-1.926A.667.667,0,0,1,13.624,18.2Z" fill="#2181f8"/><path d="M10.563,78.992h0l11.352-.005a.563.563,0,0,0,.4-.96l-2.657-2.657,4.351-4.316a.562.562,0,0,0,0-.8L18.755,65a.562.562,0,0,0-.794,0l-4.354,4.319L10.966,66.68a.563.563,0,0,0-.96.4L10,78.429a.563.563,0,0,0,.563.563Zm.567-10.557,2.078,2.078a.562.562,0,0,0,.794,0L18.356,66.2l4.457,4.457-4.351,4.316a.562.562,0,0,0,0,.8l2.1,2.1-9.431,0Z" transform="translate(0 -23.992)" fill="#2181f8"/><path d="M10.563,79.092h0a.667.667,0,0,1-.468-.194.658.658,0,0,1-.194-.469l.005-11.352a.66.66,0,0,1,.409-.612.652.652,0,0,1,.253-.051.659.659,0,0,1,.469.194l2.571,2.571,4.284-4.249a.662.662,0,0,1,.935,0l5.253,5.253a.662.662,0,0,1,0,.939L19.8,75.37l2.586,2.586a.663.663,0,0,1-.468,1.131Zm.005-12.477a.454.454,0,0,0-.176.035.461.461,0,0,0-.286.427L10.1,78.429a.46.46,0,0,0,.135.327.466.466,0,0,0,.327.136v0l11.352-.005a.463.463,0,0,0,.327-.789l-2.728-2.728,4.422-4.387a.462.462,0,0,0,0-.655l-5.253-5.253a.462.462,0,0,0-.653,0l-4.425,4.389L10.9,66.751A.46.46,0,0,0,10.568,66.615Zm.457,11.352,0-9.773,2.248,2.248a.462.462,0,0,0,.653,0l4.425-4.389,4.6,4.6-4.422,4.387a.462.462,0,0,0,0,.655L20.8,77.962Zm.2-9.29,0,9.09,9.09,0-1.926-1.926a.662.662,0,0,1,0-.939l4.28-4.245-4.316-4.316-4.284,4.249a.662.662,0,0,1-.935,0Z" transform="translate(0 -23.992)" fill="#2181f8"/><path d="M66.558,78.624a.562.562,0,0,0,.519.347l11.352.005h0a.563.563,0,0,0,.563-.563l-.005-11.352a.563.563,0,0,0-.96-.4l-2.657,2.657-4.316-4.351a.615.615,0,0,0-.4-.166.563.563,0,0,0-.4.165L65,70.222a.562.562,0,0,0,0,.794l4.319,4.354L66.68,78.011A.562.562,0,0,0,66.558,78.624Zm3.955-2.855a.562.562,0,0,0,0-.794L66.2,70.621l4.457-4.457,4.316,4.351a.562.562,0,0,0,.4.166h0a.563.563,0,0,0,.4-.165l2.1-2.1,0,9.431-9.431,0Z" transform="translate(-23.992 -23.977)" fill="#2181f8"/><path d="M78.429,79.077h0l-11.352-.005a.663.663,0,0,1-.468-1.131L69.18,75.37l-4.249-4.284a.663.663,0,0,1,0-.935L70.186,64.9a.658.658,0,0,1,.468-.194.718.718,0,0,1,.47.2l4.245,4.28,2.586-2.586a.663.663,0,0,1,1.131.468l.005,11.352a.659.659,0,0,1-.194.469A.667.667,0,0,1,78.429,79.077ZM70.649,64.9a.464.464,0,0,0-.322.136l-5.253,5.253a.463.463,0,0,0,0,.653l4.389,4.425-2.712,2.712a.463.463,0,0,0,.327.79l11.352.005v0a.466.466,0,0,0,.327-.136.46.46,0,0,0,.135-.327l-.005-11.352a.462.462,0,0,0-.789-.327l-2.728,2.728-4.387-4.422A.511.511,0,0,0,70.649,64.9Zm7.318,13.047-9.773,0L70.442,75.7a.463.463,0,0,0,0-.653l-4.389-4.425,4.6-4.6,4.387,4.422a.462.462,0,0,0,.655,0l2.267-2.267Zm-9.29-.2,9.09,0,0-9.09-1.926,1.926a.662.662,0,0,1-.939,0l-4.245-4.28-4.316,4.316,4.249,4.284a.663.663,0,0,1,0,.935Z" transform="translate(-23.992 -23.977)" fill="#2181f8"/><path d="M26.99,39.933A12.943,12.943,0,1,0,39.933,26.99,12.958,12.958,0,0,0,26.99,39.933ZM41.572,28.242a18.608,18.608,0,0,1,2.3,6.766H36a18.608,18.608,0,0,1,2.3-6.766,10.61,10.61,0,0,1,3.277,0ZM51.751,39.933a11.746,11.746,0,0,1-.638,3.8H45.159a32.363,32.363,0,0,0,0-7.6h5.951A11.746,11.746,0,0,1,51.751,39.933Zm-7.492-.012a31.353,31.353,0,0,1-.232,3.811H35.839a31.376,31.376,0,0,1,0-7.6H44.03A31.356,31.356,0,0,1,44.259,39.922Zm-16.144.012a11.746,11.746,0,0,1,.638-3.8H34.7a32.363,32.363,0,0,0,0,7.6H28.753A11.746,11.746,0,0,1,28.115,39.933Zm8.716-11.391a21.584,21.584,0,0,0-1.972,6.467H29.2A11.853,11.853,0,0,1,36.832,28.542ZM29.2,44.858h5.659a21.51,21.51,0,0,0,1.982,6.47A11.853,11.853,0,0,1,29.2,44.858Zm9.106,6.768A18.538,18.538,0,0,1,36,44.858h7.869a18.538,18.538,0,0,1-2.311,6.768,10.609,10.609,0,0,1-3.247,0Zm4.711-.3A21.511,21.511,0,0,0,45,44.858h5.659A11.853,11.853,0,0,1,43.021,51.328Zm7.642-16.319H45.007a21.584,21.584,0,0,0-1.972-6.467A11.853,11.853,0,0,1,50.662,35.009Z" transform="translate(-7.433 -7.433)" fill="#2181f8"/><path d="M39.933,26.89A13.043,13.043,0,1,1,26.89,39.933,13.058,13.058,0,0,1,39.933,26.89Zm0,25.886A12.843,12.843,0,1,0,27.09,39.933,12.858,12.858,0,0,0,39.933,52.776Zm0-24.761a11.78,11.78,0,0,1,1.652.128l.046.006.025.039a18.609,18.609,0,0,1,2.313,6.8l.019.116H35.878l.019-.116a18.608,18.608,0,0,1,2.313-6.8l.025-.039.046-.006A11.78,11.78,0,0,1,39.933,28.015Zm1.579.32a10.448,10.448,0,0,0-3.157,0,18.365,18.365,0,0,0-2.242,6.573h7.64A18.365,18.365,0,0,0,41.512,28.335Zm-4.487.05-.1.2a21.5,21.5,0,0,0-1.962,6.436l-.013.085h-5.9l.065-.142a11.953,11.953,0,0,1,7.692-6.521Zm-2.251,6.523A21.964,21.964,0,0,1,36.639,28.7a11.7,11.7,0,0,0-7.278,6.208Zm8.067-6.523.22.06a11.953,11.953,0,0,1,7.692,6.521l.065.142h-5.9l-.013-.085a21.5,21.5,0,0,0-1.962-6.436ZM50.5,34.909A11.7,11.7,0,0,0,43.227,28.7a21.965,21.965,0,0,1,1.865,6.208Zm-5.456,1.125h6.135l.023.068a11.729,11.729,0,0,1,0,7.664l-.023.068H45.046l.013-.112a32.262,32.262,0,0,0,0-7.576Zm5.992.2H45.274a32.467,32.467,0,0,1,0,7.4h5.77a11.523,11.523,0,0,0,0-7.4Zm-22.359-.2h6.135l-.013.112a32.263,32.263,0,0,0,0,7.576l.013.112H28.682l-.023-.068a11.729,11.729,0,0,1,0-7.664Zm5.91.2H28.825a11.523,11.523,0,0,0,0,7.4h5.77a32.468,32.468,0,0,1,0-7.4Zm1.156-.2h8.37l.011.088a31.477,31.477,0,0,1,0,7.624l-.011.088H35.751l-.011-.088a31.476,31.476,0,0,1,0-7.624Zm8.193.2H35.925a31.28,31.28,0,0,0,0,7.4h8.01a31.282,31.282,0,0,0,0-7.4ZM29.048,44.758h5.9l.013.084a21.429,21.429,0,0,0,1.972,6.44l.105.2-.22-.06A11.953,11.953,0,0,1,29.113,44.9Zm5.73.2H29.361a11.7,11.7,0,0,0,7.291,6.212A21.888,21.888,0,0,1,34.778,44.958Zm1.1-.2h8.1l-.019.116a18.536,18.536,0,0,1-2.325,6.806l-.025.039-.046.006a10.708,10.708,0,0,1-3.274,0l-.046-.006-.025-.039A18.535,18.535,0,0,1,35.9,44.874Zm7.869.2H36.117a18.291,18.291,0,0,0,2.253,6.576,10.446,10.446,0,0,0,3.127,0A18.291,18.291,0,0,0,43.75,44.958Zm1.168-.2h5.9l-.065.142a11.953,11.953,0,0,1-7.706,6.525l-.22.06.105-.2a21.43,21.43,0,0,0,1.972-6.44Zm5.588.2H45.088a21.888,21.888,0,0,1-1.875,6.212A11.7,11.7,0,0,0,50.505,44.958Z" transform="translate(-7.433 -7.433)" fill="#2181f8"/></g></g></svg>