<svg width="70" height="70" version="1.1" viewBox="0 0 70 70" xmlns="http://www.w3.org/2000/svg"><defs><clipPath id="clip-path-8"><rect transform="translate(1594 5817)" width="45" height="45" fill="#fff" stroke="#707070" data-name="Rectangle 1289"/></clipPath><clipPath id="clip-path-16-7"><rect transform="translate(620 5779)" width="45" height="45" fill="#fff" stroke="#707070" data-name="Rectangle 1300"/></clipPath></defs><g id="trusted-sellers" transform="translate(-458,-899)"><g transform="translate(-1123,-4902)" clip-path="url(#clip-path-8)" data-name="Mask Group 187"><g transform="translate(1594 5824.5)"><g fill="none"><path transform="translate(-3.119,-12.101)" d="m15.5 35.567a0.946 0.946 0 1 0-0.929-0.929 0.929 0.929 0 0 0 0.929 0.929z" data-name="Path 7374"/><path transform="translate(-2.627,-11.752)" d="m11.2 30.184a1.571 1.571 0 1 0 1.588 1.554 1.554 1.554 0 0 0-1.588-1.554z" data-name="Path 7375"/><path transform="translate(-3.894,-12.597)" d="m23.248 40.489a0.929 0.929 0 1 0-0.929-0.929 0.912 0.912 0 0 0 0.929 0.929z" data-name="Path 7376"/><path transform="translate(-3.472,-12.386)" d="m19.024 36.528a0.912 0.912 0 0 0-0.929 0.929 0.929 0.929 0 1 0 0.929-0.929z" data-name="Path 7377"/><path transform="translate(-3.84,-9.937)" d="m40.526 12.032h-0.2a31.287 31.287 0 0 1-10.136 1.081 4.747 4.747 0 0 0-2.7 0.76 1 1 0 0 1-0.541 0.439l-5.17 5.676 0.186 0.2a1.453 1.453 0 0 0 0.557 0.389 2.466 2.466 0 0 0 1.216 0.135v0.3l0.287-0.1-0.118-0.27a6.623 6.623 0 0 0 0.76-0.355c0.49-0.287 1.064-0.659 1.6-1.031 1.081-0.76 1.993-1.487 1.993-1.5a1.014 1.014 0 0 1 1.216 0l10.255 8.092 6.758-5.575z" data-name="Path 7378"/><path transform="translate(-2.101,-9.944)" d="m32.842 33.545 0.135-0.27a1.132 1.132 0 0 0 0.507 0.135 1.25 1.25 0 0 0 1.25-1.284 0.422 0.422 0 0 1 0-0.152v-0.186l-0.084-0.169-2.787-2.2-4.056-3.219a0.963 0.963 0 0 1-0.152-1.368 1 1 0 0 1 1.368-0.152l4.072 3.22 2.821 2.331 0.557 0.439 0.439 0.355 0.524 0.372h0.169a1.368 1.368 0 0 0 1.487-0.253 1.419 1.419 0 0 0 0.389-1.132 2.754 2.754 0 0 0-0.881-1.212l-11.471-9-0.439 0.355-1.031 0.76c-0.71 0.49-1.267 0.862-1.808 1.166a3.818 3.818 0 0 1-1.689 0.625h-0.524a4.173 4.173 0 0 1-1.689-0.3 3.7 3.7 0 0 1-2.061-2.281 0.963 0.963 0 0 1 0.186-0.946l4.95-5.49-0.405-0.152a4.933 4.933 0 0 0-1.909-0.338 31.287 31.287 0 0 1-10.136-1.081h-0.2l-5.98 8.177 7.619 6.42a3.6 3.6 0 0 1 2.112 2.652l0.084 0.253h0.27a2.889 2.889 0 0 1 2.855 2.3v0.237h0.27a2.906 2.906 0 0 1 2.669 1.841l0.1 0.253h0.253a2.348 2.348 0 0 1 0.774-0.151 2.906 2.906 0 0 1 2.872 2.872 2.6 2.6 0 0 1 0 0.507v0.22l0.2 0.084a1.588 1.588 0 0 0 0.828 0.118 1.864 1.864 0 0 0 1.554-1.554v-0.405l-0.118-0.1c-1.115-0.828-2.281-1.689-3.379-2.568a0.963 0.963 0 0 1-0.355-0.676 0.878 0.878 0 0 1 0.22-0.693 1.132 1.132 0 0 1 0.726-0.372 0.946 0.946 0 0 1 0.659 0.253c1.537 1.267 4.274 3.261 4.392 3.379a1.2 1.2 0 0 0 1.841-0.828v-0.2l-1.183-0.963-1.047-0.845-2.51-2.078-0.27-0.2a1 1 0 0 1-0.355-0.676 0.9 0.9 0 0 1 0.22-0.71 0.963 0.963 0 0 1 0.743-0.355 1.014 1.014 0 0 1 0.659 0.237l2.754 2.281 1.183 0.946 1.453 1.2 0.27 0.2-0.169 0.237z" data-name="Path 7379"/></g><path transform="translate(-1.847,-9.704)" d="m46.693 19.554-6.993-9.444a0.929 0.929 0 0 0-0.946-0.389h-0.135a24.141 24.141 0 0 1-9.038 1.233h-1.42a6.977 6.977 0 0 0-3.649 1.014h-0.3a6.926 6.926 0 0 0-3.649-1.014h-1.423a23.651 23.651 0 0 1-9-1.2 0.98 0.98 0 0 0-0.321 0 0.98 0.98 0 0 0-0.794 0.389l-6.994 9.41a0.963 0.963 0 0 0 0.169 1.3l6.651 5.627-0.321 0.2a3.514 3.514 0 0 0 1.892 6.453 4.055 4.055 0 0 0 0.811-0.068h0.237l0.1 0.237a2.906 2.906 0 0 0 2.652 1.841h0.27v0.22a2.754 2.754 0 0 0 3.581 2.179h0.27v0.258a2.923 2.923 0 0 0 2.686 1.841 2.855 2.855 0 0 0 1.554-0.49l0.152-0.084h0.152a3.97 3.97 0 0 0 1.943 0.507 3.379 3.379 0 0 0 2.4-1.081 4.021 4.021 0 0 0 0.929-1.368l0.084-0.27 0.253 0.084a3.142 3.142 0 0 0 3.632-1.689l0.1-0.22h0.22a2.906 2.906 0 0 0 0.608 0.084 3.21 3.21 0 0 0 2.923-1.96l0.118-0.27 0.253 0.1a3.334 3.334 0 0 0 3.075-5.9l-0.3-0.237 7.214-5.913a0.98 0.98 0 0 0 0.355-1.385zm-25.493 16.184a0.929 0.929 0 1 1-0.929 0.929 0.912 0.912 0 0 1 0.929-0.929zm-2.872-0.98a0.929 0.929 0 0 1-1.858 0 0.912 0.912 0 0 1 0.929-0.929 0.929 0.929 0 0 1 0.929 0.929zm-6.318-5.068a1.571 1.571 0 1 1-1.571-1.554 1.554 1.554 0 0 1 1.571 1.554zm2.213 1.689a0.946 0.946 0 1 1-0.929 0.946 0.929 0.929 0 0 1 0.929-0.946zm13.277-13.785a1.014 1.014 0 0 0-1.216 0s-0.912 0.743-1.993 1.5c-0.541 0.372-1.115 0.743-1.6 1.031a6.622 6.622 0 0 1-0.76 0.355l0.118 0.27-0.287 0.1v-0.3a2.467 2.467 0 0 1-1.216-0.135 1.453 1.453 0 0 1-0.557-0.389l-0.186-0.2 4.9-5.507a1 1 0 0 0 0.541-0.439 4.747 4.747 0 0 1 2.7-0.76 31.287 31.287 0 0 0 10.136-1.081h0.2l6.048 8.227-6.758 5.575zm4.882 15.677 0.169-0.237-0.27-0.3-1.453-1.2-1.183-0.946-2.751-2.288a1.014 1.014 0 0 0-0.659-0.237 0.963 0.963 0 0 0-0.743 0.355 0.9 0.9 0 0 0-0.22 0.71 1 1 0 0 0 0.355 0.676l0.27 0.2 2.517 2.078 1.047 0.845 1.183 0.963v0.2a1.2 1.2 0 0 1-1.875 0.726c-0.118-0.084-2.855-2.078-4.392-3.379a0.946 0.946 0 0 0-0.659-0.253 1.132 1.132 0 0 0-0.726 0.372 0.878 0.878 0 0 0-0.22 0.693 0.963 0.963 0 0 0 0.355 0.676c1.064 0.862 2.23 1.689 3.379 2.568l0.118 0.1v0.405a1.864 1.864 0 0 1-1.554 1.554 1.588 1.588 0 0 1-0.828-0.118l-0.2-0.084v-0.22a2.6 2.6 0 0 0 0-0.507 2.906 2.906 0 0 0-2.872-2.872 2.348 2.348 0 0 0-0.777 0.135h-0.253l-0.1-0.253a2.906 2.906 0 0 0-2.674-1.833h-0.287v-0.237a2.889 2.889 0 0 0-2.821-2.3h-0.3l-0.084-0.253a3.6 3.6 0 0 0-2.112-2.652l-7.619-6.42 6.043-8.138h0.2a31.287 31.287 0 0 0 10.136 1.081 4.933 4.933 0 0 1 1.909 0.338l0.405 0.152-4.916 5.541a0.963 0.963 0 0 0-0.186 0.946 3.7 3.7 0 0 0 2.066 2.28 4.173 4.173 0 0 0 1.689 0.3h0.524a3.818 3.818 0 0 0 1.689-0.625c0.541-0.3 1.1-0.676 1.808-1.166l1.031-0.76 0.338-0.338 11.471 9.055a2.754 2.754 0 0 1 0.878 1.216 1.419 1.419 0 0 1-0.389 1.132 1.368 1.368 0 0 1-1.487 0.253h-0.152l-0.524-0.372-0.439-0.355-0.574-0.49-2.839-2.258-4.072-3.23a1 1 0 0 0-1.368 0.152 0.963 0.963 0 0 0 0.152 1.368l4.055 3.227 2.8 2.129 0.135 0.1v0.186a0.422 0.422 0 0 0 0 0.152 1.25 1.25 0 0 1-1.246 1.286 1.132 1.132 0 0 1-0.507-0.135l-0.135 0.27-0.2-0.118z" fill="#fff" data-name="Path 7380"/></g></g><g id="online-opportunities" transform="translate(-963,-291)"><circle transform="translate(1421,1190)" cx="35" cy="35" r="35" fill="#2181f8" data-name="Ellipse 80"/><g transform="translate(814,-4576)" clip-path="url(#clip-path-16-7)" data-name="Mask Group 193"><g transform="translate(620.28 5779)"><g fill="none"><path transform="translate(-4.547,-5.357)" d="m39.056 44.045 0.252-0.2-1.044-0.353c-0.842-0.286-1.784-0.606-2.962-0.943h-0.151v0.135a31.526 31.526 0 0 1-2.811 4.646l-0.3 0.438 0.5-0.151a20.972 20.972 0 0 0 6.516-3.572z" data-name="Path 7407"/><path transform="translate(-2.806,-3.822)" d="m23.681 27.193h-9.056v0.185a30.3 30.3 0 0 0 2.407 11.378v0.118h0.135a51.554 51.554 0 0 1 6.278-0.656h0.168z" data-name="Path 7408"/><path transform="translate(-4.014,-5.247)" d="m26.707 41.444v6.884h0.185a8.264 8.264 0 0 0 1.448-0.118h0.084a24.878 24.878 0 0 0 4.276-5.91l0.118-0.2h-0.236a28.48 28.48 0 0 0-5.689-0.555z" data-name="Path 7409"/><path transform="translate(-4.974,-3.822)" d="m47.494 27.193h-8.736v0.168a32.822 32.822 0 0 1-2.373 11.782l-0.084 0.185h0.2a25.8 25.8 0 0 1 4.399 1.549l0.252 0.118 0.084-0.084a20.2 20.2 0 0 0 6.261-13.6z" data-name="Path 7410"/><path transform="translate(-4.027,-3.82)" d="m26.837 38.2h0.168a36.71 36.71 0 0 1 6.5 0.656h0.135v-0.118a29.725 29.725 0 0 0 2.407-11.378v-0.185h-9.21z" data-name="Path 7411"/><path transform="translate(-5.005,-1.851)" d="m36.618 9.315a1.683 1.683 0 0 0 1.195 1.685l0.252 0.1v-3.619l-0.252 0.118a1.683 1.683 0 0 0-1.2 1.717z" data-name="Path 7412"/><path transform="translate(-4.353,-1.411)" d="m38.356 19.918a8.416 8.416 0 1 0-8.264-8.332 8.248 8.248 0 0 0 8.264 8.332zm-1.094-7.827a4.9 4.9 0 0 1-2.272-1.178 2.727 2.727 0 0 1-0.926-2.037 2.9 2.9 0 0 1 0.926-2.053 3.686 3.686 0 0 1 2.289-1.145h0.168v-0.943a0.757 0.757 0 0 1 0.269-0.522c0.151-0.168 0.32-0.168 0.64-0.168a1.683 1.683 0 0 1 0.606 0.151h0.084a0.724 0.724 0 0 1 0.219 0.454v0.875h0.135a4.662 4.662 0 0 1 2.322 1.175 2.929 2.929 0 0 1 0.976 2.02 0.724 0.724 0 0 1-0.269 0.522l-0.084 0.118a0.842 0.842 0 0 1-0.555 0.168 1.347 1.347 0 0 1-0.606-0.168h-0.084a0.572 0.572 0 0 1-0.219-0.471 1.868 1.868 0 0 0-1.3-1.683l-0.252-0.168v3.821h0.135a4.8 4.8 0 0 1 2.424 1.229 2.9 2.9 0 0 1 0.926 2.053 2.727 2.727 0 0 1-0.926 1.986 4.04 4.04 0 0 1-2.39 1.145h-0.168v0.909a0.724 0.724 0 0 1-0.269 0.522 0.875 0.875 0 0 1-0.64 0.168 1.279 1.279 0 0 1-0.606-0.151h-0.084a0.555 0.555 0 0 1-0.219-0.471v-1.108h-0.168a3.164 3.164 0 0 1-2.356-1.01 2.878 2.878 0 0 1-0.926-2.037 0.808 0.808 0 0 1 0.286-0.539c0.151-0.151 0.32-0.151 0.623-0.151a1.683 1.683 0 0 1 0.623 0.135h0.168a0.707 0.707 0 0 1 0.185 0.438 1.683 1.683 0 0 0 1.2 1.683l0.252 0.1v-3.669z" data-name="Path 7413"/><path transform="translate(-5.38,-2.434)" d="m41.908 15.117a1.868 1.868 0 0 0-1.3-1.683l-0.252-0.118v3.584l0.252-0.1a1.885 1.885 0 0 0 1.3-1.683z" data-name="Path 7414"/><path transform="translate(-2.814,-2.35)" d="m23.688 13.232h-0.168a48.208 48.208 0 0 1-6.278-0.757h-0.135v0.118a29.22 29.22 0 0 0-2.407 11.159v0.185h8.988z" data-name="Path 7415"/><path transform="translate(-2.52,-1.54)" d="m12.016 8.1-0.252 0.2 0.791 0.269a30.818 30.818 0 0 0 3.114 0.926h0.151v-0.136a28.008 28.008 0 0 1 2.71-4.528l0.32-0.454-0.522 0.185a20.08 20.08 0 0 0-6.312 3.538z" data-name="Path 7416"/><path transform="translate(-1.716,-2.133)" d="m9.647 10.3h-0.1a20.2 20.2 0 0 0-5.825 13.167v0.185h8.1v-0.168a31.627 31.627 0 0 1 2.39-11.429v-0.185h-0.185a44.352 44.352 0 0 1-4.38-1.57z" data-name="Path 7417"/><path transform="translate(-1.706,-3.833)" d="m9.334 40.871v0.1h0.118a43.543 43.543 0 0 1 4.548-1.513h0.2v-0.2a30.7 30.7 0 0 1-2.491-11.782v-0.168h-8.081v0.185a21.057 21.057 0 0 0 5.706 13.378z" data-name="Path 7418"/><path transform="translate(-3.171,-5.247)" d="m18.508 42h-0.236l0.118 0.2a24.877 24.877 0 0 0 4.275 5.908 4.6 4.6 0 0 0 1.145 0.118h0.168v-6.782h-0.168a24.844 24.844 0 0 0-5.3 0.555z" data-name="Path 7419"/><path transform="translate(-2.516,-5.352)" d="m18.594 47.658 0.522 0.168-0.32-0.438a34.017 34.017 0 0 1-2.929-4.763v-0.135h-0.135c-1.178 0.337-2.171 0.673-2.979 0.943l-1.027 0.353 0.252 0.2a19.744 19.744 0 0 0 6.616 3.672z" data-name="Path 7420"/><path transform="translate(-3.173,-1.473)" d="m22.414 3.737h-0.084a20.653 20.653 0 0 0-3.939 5.992l-0.1 0.219h0.236a51.958 51.958 0 0 0 5.336 0.522h0.185v-6.733h-0.168a8.416 8.416 0 0 0-1.464 0z" data-name="Path 7421"/></g><g fill="#fff"><path transform="translate(-1.493,-1.252)" d="m45.023 22.805h-20.838v-20.4a0.909 0.909 0 0 0-0.909-0.909 22.3 22.3 0 0 0-21.776 22.218 22.184 22.184 0 0 0 21.78 22.538 22.891 22.891 0 0 0 22.652-22.538 0.842 0.842 0 0 0-0.909-0.909zm-14.723 15.25-0.118 0.2a24.878 24.878 0 0 1-4.282 5.91h-0.084a8.264 8.264 0 0 1-1.448 0.118h-0.185v-6.834h0.185a28.48 28.48 0 0 1 5.692 0.551zm3.265-13.247a29.725 29.725 0 0 1-2.407 11.378v0.114h-0.135a36.71 36.71 0 0 0-6.5-0.656h-0.168v-11.021h9.274zm-4.347 18.364a31.526 31.526 0 0 0 2.811-4.646v-0.135h0.151c1.178 0.337 2.121 0.656 2.962 0.943l1.044 0.353-0.252 0.2a20.972 20.972 0 0 1-6.581 3.518l-0.5 0.151zm8.416-4.679-0.252-0.118a25.8 25.8 0 0 0-4.393-1.549h-0.2l0.084-0.185a32.822 32.822 0 0 0 2.373-11.782v-0.169h8.736v0.185a20.2 20.2 0 0 1-6.261 13.6zm-21.713-2.2h-0.135v-0.123a30.3 30.3 0 0 1-2.407-11.378v-0.185h8.988v11.007h-0.167a51.555 51.555 0 0 0-6.278 0.673zm-4.427-11.67v0.168a30.7 30.7 0 0 0 2.491 11.782v0.2h-0.2a43.546 43.546 0 0 0-4.545 1.515h-0.119v-0.1a21.057 21.057 0 0 1-5.706-13.464v-0.185zm0.168 14.762c0.808-0.269 1.8-0.606 2.979-0.943h0.135v0.135a34.017 34.017 0 0 0 2.924 4.763l0.32 0.438-0.522-0.168a19.744 19.744 0 0 1-6.733-3.619l-0.252-0.2zm10.705-1.936v6.884h-0.167a4.6 4.6 0 0 1-1.145-0.118 24.877 24.877 0 0 1-4.275-5.908l-0.118-0.2h0.238a24.844 24.844 0 0 1 5.369-0.555zm0-33.933v6.733h-0.185a51.958 51.958 0 0 1-5.336-0.539h-0.236l0.1-0.219a20.653 20.653 0 0 1 3.94-5.975h0.084a8.416 8.416 0 0 1 1.464 0zm-9.056 19.1a29.22 29.22 0 0 1 2.407-11.16v-0.118h0.135a48.207 48.207 0 0 0 6.278 0.757h0.169v10.677h-8.988zm4.242-18.04a28.008 28.008 0 0 0-2.709 4.524v0.135h-0.151a30.818 30.818 0 0 1-3.114-0.926l-0.791-0.269 0.252-0.2a20.08 20.08 0 0 1 6.362-3.5l0.522-0.185zm-3.5 6.413v0.185a31.627 31.627 0 0 0-2.373 11.462v0.168h-8.265v-0.184a20.2 20.2 0 0 1 5.823-13.162h0.1a44.351 44.351 0 0 0 4.444 1.515z" data-name="Path 7422"/><path transform="translate(-4.794,-1.518)" d="m37.6 15.884a1.683 1.683 0 0 1-1.2-1.683 0.707 0.707 0 0 0-0.185-0.438h-0.168a1.683 1.683 0 0 0-0.623-0.252c-0.3 0-0.471 0-0.623 0.151a0.808 0.808 0 0 0-0.286 0.539 2.878 2.878 0 0 0 0.909 2.037 3.164 3.164 0 0 0 2.356 1.01h0.168v1.044a0.555 0.555 0 0 0 0.219 0.471h0.084a1.279 1.279 0 0 0 0.606 0.151 0.875 0.875 0 0 0 0.64-0.168 0.724 0.724 0 0 0 0.269-0.522v-0.808h0.168a4.04 4.04 0 0 0 2.39-1.178 2.727 2.727 0 0 0 0.926-2.037 2.9 2.9 0 0 0-0.926-2 4.8 4.8 0 0 0-2.424-1.145h-0.135v-3.9l0.252 0.118a1.868 1.868 0 0 1 1.3 1.683 0.572 0.572 0 0 0 0.219 0.471h0.084a1.347 1.347 0 0 0 0.606 0.168 0.842 0.842 0 0 0 0.555-0.168l0.084-0.118a0.724 0.724 0 0 0 0.269-0.471 2.929 2.929 0 0 0-0.976-2.02 4.662 4.662 0 0 0-2.407-1.145h-0.135v-0.832a0.724 0.724 0 0 0-0.219-0.454h-0.084a1.683 1.683 0 0 0-0.522-0.236c-0.32 0-0.488 0-0.64 0.168a0.757 0.757 0 0 0-0.269 0.522v0.926h-0.162a3.686 3.686 0 0 0-2.289 1.161 2.9 2.9 0 0 0-0.926 2.053 2.727 2.727 0 0 0 0.926 2.037 4.9 4.9 0 0 0 2.269 1.181h0.151v3.787zm0.252-8.736v3.619l-0.252-0.1a1.683 1.683 0 0 1-1.2-1.683 1.683 1.683 0 0 1 1.2-1.684zm1.919 8.8v-3.548l0.252 0.118a1.868 1.868 0 0 1 1.3 1.683 1.885 1.885 0 0 1-1.3 1.683z" data-name="Path 7423"/><path transform="translate(-4.149,-1.225)" d="m38.152 21.448a10.1 10.1 0 1 0-7.159-2.976 10.1 10.1 0 0 0 7.159 2.976zm-8.332-10.1a8.332 8.332 0 1 1 8.332 8.416 8.248 8.248 0 0 1-8.264-8.364z" data-name="Path 7424"/></g></g></g></g></g></svg>
