<svg width="70" height="70" version="1.1" viewBox="0 0 70 70" xmlns="http://www.w3.org/2000/svg"><defs><clipPath id="clip-path-8"><rect transform="translate(1594 5817)" width="45" height="45" fill="#fff" stroke="#707070" data-name="Rectangle 1289"/></clipPath><clipPath id="clip-path-8-6"><rect transform="translate(1594 5817)" width="45" height="45" fill="#fff" stroke="#707070" data-name="Rectangle 1289"/></clipPath></defs><g id="trusted-sellers" transform="translate(-458,-899)"><g transform="translate(-1123,-4902)" clip-path="url(#clip-path-8)" data-name="Mask Group 187"><g transform="translate(1594 5824.5)"><g fill="none"><path transform="translate(-3.119,-12.101)" d="m15.5 35.567a0.946 0.946 0 1 0-0.929-0.929 0.929 0.929 0 0 0 0.929 0.929z" data-name="Path 7374"/><path transform="translate(-2.627,-11.752)" d="m11.2 30.184a1.571 1.571 0 1 0 1.588 1.554 1.554 1.554 0 0 0-1.588-1.554z" data-name="Path 7375"/><path transform="translate(-3.894,-12.597)" d="m23.248 40.489a0.929 0.929 0 1 0-0.929-0.929 0.912 0.912 0 0 0 0.929 0.929z" data-name="Path 7376"/><path transform="translate(-3.472,-12.386)" d="m19.024 36.528a0.912 0.912 0 0 0-0.929 0.929 0.929 0.929 0 1 0 0.929-0.929z" data-name="Path 7377"/><path transform="translate(-3.84,-9.937)" d="m40.526 12.032h-0.2a31.287 31.287 0 0 1-10.136 1.081 4.747 4.747 0 0 0-2.7 0.76 1 1 0 0 1-0.541 0.439l-5.17 5.676 0.186 0.2a1.453 1.453 0 0 0 0.557 0.389 2.466 2.466 0 0 0 1.216 0.135v0.3l0.287-0.1-0.118-0.27a6.623 6.623 0 0 0 0.76-0.355c0.49-0.287 1.064-0.659 1.6-1.031 1.081-0.76 1.993-1.487 1.993-1.5a1.014 1.014 0 0 1 1.216 0l10.255 8.092 6.758-5.575z" data-name="Path 7378"/><path transform="translate(-2.101,-9.944)" d="m32.842 33.545 0.135-0.27a1.132 1.132 0 0 0 0.507 0.135 1.25 1.25 0 0 0 1.25-1.284 0.422 0.422 0 0 1 0-0.152v-0.186l-0.084-0.169-2.787-2.2-4.056-3.219a0.963 0.963 0 0 1-0.152-1.368 1 1 0 0 1 1.368-0.152l4.072 3.22 2.821 2.331 0.557 0.439 0.439 0.355 0.524 0.372h0.169a1.368 1.368 0 0 0 1.487-0.253 1.419 1.419 0 0 0 0.389-1.132 2.754 2.754 0 0 0-0.881-1.212l-11.471-9-0.439 0.355-1.031 0.76c-0.71 0.49-1.267 0.862-1.808 1.166a3.818 3.818 0 0 1-1.689 0.625h-0.524a4.173 4.173 0 0 1-1.689-0.3 3.7 3.7 0 0 1-2.061-2.281 0.963 0.963 0 0 1 0.186-0.946l4.95-5.49-0.405-0.152a4.933 4.933 0 0 0-1.909-0.338 31.287 31.287 0 0 1-10.136-1.081h-0.2l-5.98 8.177 7.619 6.42a3.6 3.6 0 0 1 2.112 2.652l0.084 0.253h0.27a2.889 2.889 0 0 1 2.855 2.3v0.237h0.27a2.906 2.906 0 0 1 2.669 1.841l0.1 0.253h0.253a2.348 2.348 0 0 1 0.774-0.151 2.906 2.906 0 0 1 2.872 2.872 2.6 2.6 0 0 1 0 0.507v0.22l0.2 0.084a1.588 1.588 0 0 0 0.828 0.118 1.864 1.864 0 0 0 1.554-1.554v-0.405l-0.118-0.1c-1.115-0.828-2.281-1.689-3.379-2.568a0.963 0.963 0 0 1-0.355-0.676 0.878 0.878 0 0 1 0.22-0.693 1.132 1.132 0 0 1 0.726-0.372 0.946 0.946 0 0 1 0.659 0.253c1.537 1.267 4.274 3.261 4.392 3.379a1.2 1.2 0 0 0 1.841-0.828v-0.2l-1.183-0.963-1.047-0.845-2.51-2.078-0.27-0.2a1 1 0 0 1-0.355-0.676 0.9 0.9 0 0 1 0.22-0.71 0.963 0.963 0 0 1 0.743-0.355 1.014 1.014 0 0 1 0.659 0.237l2.754 2.281 1.183 0.946 1.453 1.2 0.27 0.2-0.169 0.237z" data-name="Path 7379"/></g><path transform="translate(-1.847,-9.704)" d="m46.693 19.554-6.993-9.444a0.929 0.929 0 0 0-0.946-0.389h-0.135a24.141 24.141 0 0 1-9.038 1.233h-1.42a6.977 6.977 0 0 0-3.649 1.014h-0.3a6.926 6.926 0 0 0-3.649-1.014h-1.423a23.651 23.651 0 0 1-9-1.2 0.98 0.98 0 0 0-0.321 0 0.98 0.98 0 0 0-0.794 0.389l-6.994 9.41a0.963 0.963 0 0 0 0.169 1.3l6.651 5.627-0.321 0.2a3.514 3.514 0 0 0 1.892 6.453 4.055 4.055 0 0 0 0.811-0.068h0.237l0.1 0.237a2.906 2.906 0 0 0 2.652 1.841h0.27v0.22a2.754 2.754 0 0 0 3.581 2.179h0.27v0.258a2.923 2.923 0 0 0 2.686 1.841 2.855 2.855 0 0 0 1.554-0.49l0.152-0.084h0.152a3.97 3.97 0 0 0 1.943 0.507 3.379 3.379 0 0 0 2.4-1.081 4.021 4.021 0 0 0 0.929-1.368l0.084-0.27 0.253 0.084a3.142 3.142 0 0 0 3.632-1.689l0.1-0.22h0.22a2.906 2.906 0 0 0 0.608 0.084 3.21 3.21 0 0 0 2.923-1.96l0.118-0.27 0.253 0.1a3.334 3.334 0 0 0 3.075-5.9l-0.3-0.237 7.214-5.913a0.98 0.98 0 0 0 0.355-1.385zm-25.493 16.184a0.929 0.929 0 1 1-0.929 0.929 0.912 0.912 0 0 1 0.929-0.929zm-2.872-0.98a0.929 0.929 0 0 1-1.858 0 0.912 0.912 0 0 1 0.929-0.929 0.929 0.929 0 0 1 0.929 0.929zm-6.318-5.068a1.571 1.571 0 1 1-1.571-1.554 1.554 1.554 0 0 1 1.571 1.554zm2.213 1.689a0.946 0.946 0 1 1-0.929 0.946 0.929 0.929 0 0 1 0.929-0.946zm13.277-13.785a1.014 1.014 0 0 0-1.216 0s-0.912 0.743-1.993 1.5c-0.541 0.372-1.115 0.743-1.6 1.031a6.622 6.622 0 0 1-0.76 0.355l0.118 0.27-0.287 0.1v-0.3a2.467 2.467 0 0 1-1.216-0.135 1.453 1.453 0 0 1-0.557-0.389l-0.186-0.2 4.9-5.507a1 1 0 0 0 0.541-0.439 4.747 4.747 0 0 1 2.7-0.76 31.287 31.287 0 0 0 10.136-1.081h0.2l6.048 8.227-6.758 5.575zm4.882 15.677 0.169-0.237-0.27-0.3-1.453-1.2-1.183-0.946-2.751-2.288a1.014 1.014 0 0 0-0.659-0.237 0.963 0.963 0 0 0-0.743 0.355 0.9 0.9 0 0 0-0.22 0.71 1 1 0 0 0 0.355 0.676l0.27 0.2 2.517 2.078 1.047 0.845 1.183 0.963v0.2a1.2 1.2 0 0 1-1.875 0.726c-0.118-0.084-2.855-2.078-4.392-3.379a0.946 0.946 0 0 0-0.659-0.253 1.132 1.132 0 0 0-0.726 0.372 0.878 0.878 0 0 0-0.22 0.693 0.963 0.963 0 0 0 0.355 0.676c1.064 0.862 2.23 1.689 3.379 2.568l0.118 0.1v0.405a1.864 1.864 0 0 1-1.554 1.554 1.588 1.588 0 0 1-0.828-0.118l-0.2-0.084v-0.22a2.6 2.6 0 0 0 0-0.507 2.906 2.906 0 0 0-2.872-2.872 2.348 2.348 0 0 0-0.777 0.135h-0.253l-0.1-0.253a2.906 2.906 0 0 0-2.674-1.833h-0.287v-0.237a2.889 2.889 0 0 0-2.821-2.3h-0.3l-0.084-0.253a3.6 3.6 0 0 0-2.112-2.652l-7.619-6.42 6.043-8.138h0.2a31.287 31.287 0 0 0 10.136 1.081 4.933 4.933 0 0 1 1.909 0.338l0.405 0.152-4.916 5.541a0.963 0.963 0 0 0-0.186 0.946 3.7 3.7 0 0 0 2.066 2.28 4.173 4.173 0 0 0 1.689 0.3h0.524a3.818 3.818 0 0 0 1.689-0.625c0.541-0.3 1.1-0.676 1.808-1.166l1.031-0.76 0.338-0.338 11.471 9.055a2.754 2.754 0 0 1 0.878 1.216 1.419 1.419 0 0 1-0.389 1.132 1.368 1.368 0 0 1-1.487 0.253h-0.152l-0.524-0.372-0.439-0.355-0.574-0.49-2.839-2.258-4.072-3.23a1 1 0 0 0-1.368 0.152 0.963 0.963 0 0 0 0.152 1.368l4.055 3.227 2.8 2.129 0.135 0.1v0.186a0.422 0.422 0 0 0 0 0.152 1.25 1.25 0 0 1-1.246 1.286 1.132 1.132 0 0 1-0.507-0.135l-0.135 0.27-0.2-0.118z" fill="#fff" data-name="Path 7380"/></g></g><circle transform="translate(458,899)" cx="35" cy="35" r="35" fill="#2181f8" data-name="Ellipse 77"/><g transform="translate(-1123,-4902)" clip-path="url(#clip-path-8-6)" data-name="Mask Group 187"><g transform="translate(1594,5824.5)"><g fill="none"><path transform="translate(-3.119,-12.101)" d="m15.5 35.567a0.946 0.946 0 1 0-0.929-0.929 0.929 0.929 0 0 0 0.929 0.929z" data-name="Path 7374"/><path transform="translate(-2.627,-11.752)" d="m11.2 30.184a1.571 1.571 0 1 0 1.588 1.554 1.554 1.554 0 0 0-1.588-1.554z" data-name="Path 7375"/><path transform="translate(-3.894,-12.597)" d="m23.248 40.489a0.929 0.929 0 1 0-0.929-0.929 0.912 0.912 0 0 0 0.929 0.929z" data-name="Path 7376"/><path transform="translate(-3.472,-12.386)" d="m19.024 36.528a0.912 0.912 0 0 0-0.929 0.929 0.929 0.929 0 1 0 0.929-0.929z" data-name="Path 7377"/><path transform="translate(-3.84,-9.937)" d="m40.526 12.032h-0.2a31.287 31.287 0 0 1-10.136 1.081 4.747 4.747 0 0 0-2.7 0.76 1 1 0 0 1-0.541 0.439l-5.17 5.676 0.186 0.2a1.453 1.453 0 0 0 0.557 0.389 2.466 2.466 0 0 0 1.216 0.135v0.3l0.287-0.1-0.118-0.27a6.623 6.623 0 0 0 0.76-0.355c0.49-0.287 1.064-0.659 1.6-1.031 1.081-0.76 1.993-1.487 1.993-1.5a1.014 1.014 0 0 1 1.216 0l10.255 8.092 6.758-5.575z" data-name="Path 7378"/><path transform="translate(-2.101,-9.944)" d="m32.842 33.545 0.135-0.27a1.132 1.132 0 0 0 0.507 0.135 1.25 1.25 0 0 0 1.25-1.284 0.422 0.422 0 0 1 0-0.152v-0.186l-0.084-0.169-2.787-2.2-4.056-3.219a0.963 0.963 0 0 1-0.152-1.368 1 1 0 0 1 1.368-0.152l4.072 3.22 2.821 2.331 0.557 0.439 0.439 0.355 0.524 0.372h0.169a1.368 1.368 0 0 0 1.487-0.253 1.419 1.419 0 0 0 0.389-1.132 2.754 2.754 0 0 0-0.881-1.212l-11.471-9-0.439 0.355-1.031 0.76c-0.71 0.49-1.267 0.862-1.808 1.166a3.818 3.818 0 0 1-1.689 0.625h-0.524a4.173 4.173 0 0 1-1.689-0.3 3.7 3.7 0 0 1-2.061-2.281 0.963 0.963 0 0 1 0.186-0.946l4.95-5.49-0.405-0.152a4.933 4.933 0 0 0-1.909-0.338 31.287 31.287 0 0 1-10.136-1.081h-0.2l-5.98 8.177 7.619 6.42a3.6 3.6 0 0 1 2.112 2.652l0.084 0.253h0.27a2.889 2.889 0 0 1 2.855 2.3v0.237h0.27a2.906 2.906 0 0 1 2.669 1.841l0.1 0.253h0.253a2.348 2.348 0 0 1 0.774-0.151 2.906 2.906 0 0 1 2.872 2.872 2.6 2.6 0 0 1 0 0.507v0.22l0.2 0.084a1.588 1.588 0 0 0 0.828 0.118 1.864 1.864 0 0 0 1.554-1.554v-0.405l-0.118-0.1c-1.115-0.828-2.281-1.689-3.379-2.568a0.963 0.963 0 0 1-0.355-0.676 0.878 0.878 0 0 1 0.22-0.693 1.132 1.132 0 0 1 0.726-0.372 0.946 0.946 0 0 1 0.659 0.253c1.537 1.267 4.274 3.261 4.392 3.379a1.2 1.2 0 0 0 1.841-0.828v-0.2l-1.183-0.963-1.047-0.845-2.51-2.078-0.27-0.2a1 1 0 0 1-0.355-0.676 0.9 0.9 0 0 1 0.22-0.71 0.963 0.963 0 0 1 0.743-0.355 1.014 1.014 0 0 1 0.659 0.237l2.754 2.281 1.183 0.946 1.453 1.2 0.27 0.2-0.169 0.237z" data-name="Path 7379"/></g><path transform="translate(-1.847,-9.704)" d="m46.693 19.554-6.993-9.444a0.929 0.929 0 0 0-0.946-0.389h-0.135a24.141 24.141 0 0 1-9.038 1.233h-1.42a6.977 6.977 0 0 0-3.649 1.014h-0.3a6.926 6.926 0 0 0-3.649-1.014h-1.423a23.651 23.651 0 0 1-9-1.2 0.98 0.98 0 0 0-0.321 0 0.98 0.98 0 0 0-0.794 0.389l-6.994 9.41a0.963 0.963 0 0 0 0.169 1.3l6.651 5.627-0.321 0.2a3.514 3.514 0 0 0 1.892 6.453 4.055 4.055 0 0 0 0.811-0.068h0.237l0.1 0.237a2.906 2.906 0 0 0 2.652 1.841h0.27v0.22a2.754 2.754 0 0 0 3.581 2.179h0.27v0.258a2.923 2.923 0 0 0 2.686 1.841 2.855 2.855 0 0 0 1.554-0.49l0.152-0.084h0.152a3.97 3.97 0 0 0 1.943 0.507 3.379 3.379 0 0 0 2.4-1.081 4.021 4.021 0 0 0 0.929-1.368l0.084-0.27 0.253 0.084a3.142 3.142 0 0 0 3.632-1.689l0.1-0.22h0.22a2.906 2.906 0 0 0 0.608 0.084 3.21 3.21 0 0 0 2.923-1.96l0.118-0.27 0.253 0.1a3.334 3.334 0 0 0 3.075-5.9l-0.3-0.237 7.214-5.913a0.98 0.98 0 0 0 0.355-1.385zm-25.493 16.184a0.929 0.929 0 1 1-0.929 0.929 0.912 0.912 0 0 1 0.929-0.929zm-2.872-0.98a0.929 0.929 0 0 1-1.858 0 0.912 0.912 0 0 1 0.929-0.929 0.929 0.929 0 0 1 0.929 0.929zm-6.318-5.068a1.571 1.571 0 1 1-1.571-1.554 1.554 1.554 0 0 1 1.571 1.554zm2.213 1.689a0.946 0.946 0 1 1-0.929 0.946 0.929 0.929 0 0 1 0.929-0.946zm13.277-13.785a1.014 1.014 0 0 0-1.216 0s-0.912 0.743-1.993 1.5c-0.541 0.372-1.115 0.743-1.6 1.031a6.622 6.622 0 0 1-0.76 0.355l0.118 0.27-0.287 0.1v-0.3a2.467 2.467 0 0 1-1.216-0.135 1.453 1.453 0 0 1-0.557-0.389l-0.186-0.2 4.9-5.507a1 1 0 0 0 0.541-0.439 4.747 4.747 0 0 1 2.7-0.76 31.287 31.287 0 0 0 10.136-1.081h0.2l6.048 8.227-6.758 5.575zm4.882 15.677 0.169-0.237-0.27-0.3-1.453-1.2-1.183-0.946-2.751-2.288a1.014 1.014 0 0 0-0.659-0.237 0.963 0.963 0 0 0-0.743 0.355 0.9 0.9 0 0 0-0.22 0.71 1 1 0 0 0 0.355 0.676l0.27 0.2 2.517 2.078 1.047 0.845 1.183 0.963v0.2a1.2 1.2 0 0 1-1.875 0.726c-0.118-0.084-2.855-2.078-4.392-3.379a0.946 0.946 0 0 0-0.659-0.253 1.132 1.132 0 0 0-0.726 0.372 0.878 0.878 0 0 0-0.22 0.693 0.963 0.963 0 0 0 0.355 0.676c1.064 0.862 2.23 1.689 3.379 2.568l0.118 0.1v0.405a1.864 1.864 0 0 1-1.554 1.554 1.588 1.588 0 0 1-0.828-0.118l-0.2-0.084v-0.22a2.6 2.6 0 0 0 0-0.507 2.906 2.906 0 0 0-2.872-2.872 2.348 2.348 0 0 0-0.777 0.135h-0.253l-0.1-0.253a2.906 2.906 0 0 0-2.674-1.833h-0.287v-0.237a2.889 2.889 0 0 0-2.821-2.3h-0.3l-0.084-0.253a3.6 3.6 0 0 0-2.112-2.652l-7.619-6.42 6.043-8.138h0.2a31.287 31.287 0 0 0 10.136 1.081 4.933 4.933 0 0 1 1.909 0.338l0.405 0.152-4.916 5.541a0.963 0.963 0 0 0-0.186 0.946 3.7 3.7 0 0 0 2.066 2.28 4.173 4.173 0 0 0 1.689 0.3h0.524a3.818 3.818 0 0 0 1.689-0.625c0.541-0.3 1.1-0.676 1.808-1.166l1.031-0.76 0.338-0.338 11.471 9.055a2.754 2.754 0 0 1 0.878 1.216 1.419 1.419 0 0 1-0.389 1.132 1.368 1.368 0 0 1-1.487 0.253h-0.152l-0.524-0.372-0.439-0.355-0.574-0.49-2.839-2.258-4.072-3.23a1 1 0 0 0-1.368 0.152 0.963 0.963 0 0 0 0.152 1.368l4.055 3.227 2.8 2.129 0.135 0.1v0.186a0.422 0.422 0 0 0 0 0.152 1.25 1.25 0 0 1-1.246 1.286 1.132 1.132 0 0 1-0.507-0.135l-0.135 0.27-0.2-0.118z" fill="#fff" data-name="Path 7380"/></g></g></g></svg>
