<svg xmlns="http://www.w3.org/2000/svg" xmlns:xlink="http://www.w3.org/1999/xlink" width="45" height="45" viewBox="0 0 45 45">
  <defs>
    <clipPath id="clip-path">
      <rect width="45" height="45" transform="translate(1190 5817)" fill="#fff" stroke="#707070" stroke-width="1"/>
    </clipPath>
  </defs>
  <g transform="translate(-1190 -5817)" clip-path="url(#clip-path)">
    <g transform="translate(1190.001 5818.583)">
      <path d="M39.2,37.977h.632A1.086,1.086,0,0,0,40.9,36.908V4.8a1.069,1.069,0,0,0-1.069-1.069H39.2A1.053,1.053,0,0,0,38.128,4.8V36.908A1.069,1.069,0,0,0,39.2,37.977Z" transform="translate(-4.299 -2.139)" fill="none" stroke="#2181f8" stroke-width="0.3"/>
      <path d="M5.093,26.009V18.686c-.94.1-1.879.162-2.771.178v6.951Q3.651,25.863,5.093,26.009Z" transform="translate(-0.718 -3.635)" fill="none" stroke="#2181f8" stroke-width="0.3"/>
      <path d="M43.471,18.168a2.868,2.868,0,0,0-.518,0v8.1h.518a4.115,4.115,0,0,0,0-8.231Z" transform="translate(-4.781 -3.57)" fill="none" stroke="#2181f8" stroke-width="0.3"/>
      <path d="M15.365,30.94l-.324-.1q-1.539-.486-3.159-.924h-.162V45.052h3.645Z" transform="translate(-1.658 -4.758)" fill="none" stroke="#2181f8" stroke-width="0.3"/>
      <path d="M33.441,6.5a76.294,76.294,0,0,1-9.721,5.411A73.41,73.41,0,0,1,11.827,16.2c-1.912.5-3.483.859-4.7,1.069v7.68c.972.162,2.155.405,3.532.761l1.15.292c1.458.389,2.835.81,4.131,1.231a75.451,75.451,0,0,1,17.5,8.474Z" transform="translate(-1.199 -2.416)" fill="none" stroke="#2181f8" stroke-width="0.3"/>
      <path d="M39.23,14.972h-.518V4.619a2.657,2.657,0,0,0-2.641-2.657h-.632A2.657,2.657,0,0,0,32.83,4.117a77.25,77.25,0,0,1-10.45,5.914,73.3,73.3,0,0,1-11.617,4.2A40.018,40.018,0,0,1,5.6,15.345h0a34.963,34.963,0,0,1-4.245.275.794.794,0,0,0-.81.778V24.92a.794.794,0,0,0,.794.778,32.4,32.4,0,0,1,4.261.292h0a29.164,29.164,0,0,1,3.419.68V43a.794.794,0,0,0,.794.794h5.233A.794.794,0,0,0,15.835,43V28.711a73.9,73.9,0,0,1,17,8.522,2.657,2.657,0,0,0,2.608,2.139h.632a2.641,2.641,0,0,0,2.641-2.641V26.33h.518a5.7,5.7,0,1,0,0-11.341Zm4.131,5.7a4.131,4.131,0,0,1-4.131,4.115h-.518v-8.1a2.868,2.868,0,0,1,.518,0A4.131,4.131,0,0,1,43.361,20.675ZM34.369,4.619A1.053,1.053,0,0,1,35.439,3.55h.632A1.069,1.069,0,0,1,37.14,4.619V36.731A1.086,1.086,0,0,1,36.071,37.8h-.632a1.069,1.069,0,0,1-1.069-1.069ZM4.915,17.014v7.323q-1.442-.146-2.771-.194V17.192C3.019,17.176,3.959,17.111,4.915,17.014ZM15.3,26.735c-1.3-.421-2.673-.842-4.131-1.231l-1.15-.292c-1.393-.275-2.576-.518-3.483-.713v-7.68c1.215-.211,2.787-.567,4.7-1.069a73.411,73.411,0,0,0,11.811-4.212,76.294,76.294,0,0,0,9.721-5.411V35.289a75.452,75.452,0,0,0-17.482-8.474Zm-4.682.259h.162q1.62.437,3.24.924l.324.1V42.078H10.6Z" transform="translate(-0.54 -1.962)" fill="#2181f8" stroke="#2181f8" stroke-width="0.3"/>
    </g>
  </g>
</svg>
