<svg xmlns="http://www.w3.org/2000/svg" xmlns:xlink="http://www.w3.org/1999/xlink" width="45" height="45" viewBox="0 0 45 45">
  <defs>
    <clipPath>
      <rect width="45" height="45" transform="translate(380 5798)" fill="#fff" stroke="#707070" stroke-width="1"/>
    </clipPath>
  </defs>
  <g transform="translate(-380 -5798)" clip-path="url(#clip-path)">
    <g transform="translate(383.575 5798)">
      <rect width="17.534" height="12.01" transform="translate(10.206 19.189)" fill="none" stroke="#2181f8" stroke-width="0.2"/>
      <rect width="6.537" height="3.784" transform="translate(15.713 13.699)" fill="none" stroke="#2181f8" stroke-width="0.2"/>
      <path d="M39.793,9.122h-.22C33.019,8.97,27.411,7.095,24.59,4.054l-.152-.169-.068.22c-2.889,3.041-8.581,4.848-15.2,5.017H9v.169a86.654,86.654,0,0,0-1.52,9.578c-.3,3.378-.777,11.689,1.5,15.963,1.6,3.007,6.757,6.014,8.851,7.162a62.975,62.975,0,0,0,6.537,3.041h.169a62.973,62.973,0,0,0,6.436-3.041c2.128-1.149,7.247-4.155,8.868-7.162,2.264-4.274,1.791-12.584,1.486-15.963a85.014,85.014,0,0,0-1.419-9.595ZM34.843,33.885a.845.845,0,0,1-.845.861H14.759a.861.861,0,0,1-.861-.861V20.152a.861.861,0,0,1,.861-.861h4.628V14.662a.861.861,0,0,1,.861-.861H28.83l.355.27v.135h.084v5H34a.845.845,0,0,1,.845.861Z" transform="translate(-5.397 -1.824)" fill="none" stroke="#2181f8" stroke-width="0.2"/>
      <path d="M42.749,18.487A101.958,101.958,0,0,0,41.161,7.9h-.017A.861.861,0,0,0,40.3,7.22h-.118c-6.571,0-12.753-2.145-15.017-5.068h0a.878.878,0,0,0-.726-.557h-.084a.845.845,0,0,0-.709.372C21.482,4.906,15.013,7.17,8.205,7.2H8.07a.861.861,0,0,0-.878.676A94.274,94.274,0,0,0,5.5,18.47c-.726,7.905-.169,13.514,1.689,16.892s6.334,6.115,9.578,7.872a66.772,66.772,0,0,0,6.757,3.176.912.912,0,0,0,.541.186h.1a.878.878,0,0,0,.541-.186h.152a67.333,67.333,0,0,0,6.6-3.108c3.226-1.689,7.736-4.476,9.561-7.872S43.475,26.376,42.749,18.487ZM39.557,34.6c-1.689,3.007-6.757,6.014-8.868,7.162A62.972,62.972,0,0,1,24.253,44.8h-.169a62.973,62.973,0,0,1-6.436-3.041C15.519,40.7,10.4,37.609,8.8,34.6c-2.28-4.274-1.807-12.584-1.52-15.963A86.658,86.658,0,0,1,8.7,9.062V8.893h.27c6.757-.169,12.365-2.044,15.2-5.068l.152-.169.152.169C27.293,6.8,32.918,8.673,39.455,8.893h.169v.152a85.016,85.016,0,0,1,1.436,9.595C41.347,22.018,41.82,30.328,39.557,34.6Z" transform="translate(-5.195 -1.595)" fill="#2181f8" stroke="#2181f8" stroke-width="0.2"/>
      <path d="M34.741,20.4H30.18v-5H30.1v-.135l-.524-.253H20.991a.861.861,0,0,0-.861.861V20.5H15.5a.861.861,0,0,0-.861.861V35.1a.861.861,0,0,0,.861.861h19.24a.845.845,0,0,0,.845-.861V21.265a.845.845,0,0,0-.845-.861Zm-12.888,0V16.7H28.39v3.767Zm12.027,1.689V34.1H16.346V22.126Z" transform="translate(-6.139 -2.937)" fill="#2181f8" stroke="#2181f8" stroke-width="0.2"/>
    </g>
  </g>
</svg>
