<svg xmlns="http://www.w3.org/2000/svg" xmlns:xlink="http://www.w3.org/1999/xlink" width="45" height="45" viewBox="0 0 45 45">
  <defs>
    <clipPath id="clip-path">
      <rect width="45" height="45" transform="translate(1594 5817)" fill="#fff" stroke="#707070" stroke-width="1"/>
    </clipPath>
  </defs>
  <g data-name="Группа масок 60" transform="translate(-1594 -5817)" clip-path="url(#clip-path)">
    <g transform="translate(1593.999 5824.531)">
      <path d="M15.5,35.567a.946.946,0,1,0-.929-.929A.929.929,0,0,0,15.5,35.567Z" transform="translate(-3.119 -12.101)" fill="none"/>
      <path d="M11.2,30.184a1.571,1.571,0,1,0,1.588,1.554A1.554,1.554,0,0,0,11.2,30.184Z" transform="translate(-2.627 -11.752)" fill="none"/>
      <path d="M23.248,40.489a.929.929,0,1,0-.929-.929.912.912,0,0,0,.929.929Z" transform="translate(-3.894 -12.597)" fill="none"/>
      <path d="M19.024,36.528a.912.912,0,0,0-.929.929.929.929,0,1,0,.929-.929Z" transform="translate(-3.472 -12.386)" fill="none"/>
      <path d="M40.526,12.032h-.2a31.287,31.287,0,0,1-10.136,1.081,4.747,4.747,0,0,0-2.7.76h0a1,1,0,0,1-.541.439h0l-5.17,5.676.186.2a1.453,1.453,0,0,0,.557.389,2.466,2.466,0,0,0,1.216.135v.3h0l.287-.1h0l-.118-.27a6.623,6.623,0,0,0,.76-.355c.49-.287,1.064-.659,1.6-1.031,1.081-.76,1.993-1.487,1.993-1.5a1.014,1.014,0,0,1,1.216,0l10.255,8.092,6.758-5.575Z" transform="translate(-3.84 -9.937)" fill="none"/>
      <path d="M32.842,33.545l.135-.27a1.132,1.132,0,0,0,.507.135,1.25,1.25,0,0,0,1.25-1.284.422.422,0,0,1,0-.152v-.186l-.084-.169-2.787-2.2L27.807,26.2a.963.963,0,0,1-.152-1.368,1,1,0,0,1,1.368-.152L33.095,27.9l2.821,2.331.557.439.439.355.524.372h.169a1.368,1.368,0,0,0,1.487-.253,1.419,1.419,0,0,0,.389-1.132A2.754,2.754,0,0,0,38.6,28.8l-11.471-9-.439.355-1.031.76c-.71.49-1.267.862-1.808,1.166a3.818,3.818,0,0,1-1.689.625h-.524a4.173,4.173,0,0,1-1.689-.3,3.7,3.7,0,0,1-2.061-2.281.963.963,0,0,1,.186-.946l4.95-5.49-.405-.152a4.933,4.933,0,0,0-1.909-.338,31.287,31.287,0,0,1-10.136-1.081h-.2l-5.98,8.177,7.619,6.42a3.6,3.6,0,0,1,2.112,2.652l.084.253h.27a2.889,2.889,0,0,1,2.855,2.3v.237h.27a2.906,2.906,0,0,1,2.669,1.841l.1.253h.253A2.348,2.348,0,0,1,21.4,34.1a2.906,2.906,0,0,1,2.872,2.872,2.6,2.6,0,0,1,0,.507v.22l.2.084a1.588,1.588,0,0,0,.828.118,1.864,1.864,0,0,0,1.554-1.554v-.405l-.118-.1c-1.115-.828-2.281-1.689-3.379-2.568a.963.963,0,0,1-.355-.676.878.878,0,0,1,.22-.693,1.132,1.132,0,0,1,.726-.372h0a.946.946,0,0,1,.659.253c1.537,1.267,4.274,3.261,4.392,3.379a1.2,1.2,0,0,0,1.841-.828v-.2l-1.183-.963-1.047-.845L26.1,30.251l-.27-.2a1,1,0,0,1-.355-.676.9.9,0,0,1,.22-.71.963.963,0,0,1,.743-.355h0a1.014,1.014,0,0,1,.659.237l2.754,2.281,1.183.946,1.453,1.2.27.2-.169.237h0Z" transform="translate(-2.101 -9.944)" fill="none"/>
      <path d="M46.693,19.554,39.7,10.11a.929.929,0,0,0-.946-.389h-.135a24.141,24.141,0,0,1-9.038,1.233H28.161a6.977,6.977,0,0,0-3.649,1.014h-.3a6.926,6.926,0,0,0-3.649-1.014H19.14a23.651,23.651,0,0,1-9-1.2.98.98,0,0,0-.321,0h0a.98.98,0,0,0-.794.389l-6.994,9.41a.963.963,0,0,0,.169,1.3L8.851,26.48l-.321.2a3.514,3.514,0,0,0,1.892,6.453,4.055,4.055,0,0,0,.811-.068h.237l.1.237a2.906,2.906,0,0,0,2.652,1.841h.27v.22a2.754,2.754,0,0,0,3.581,2.179h.27V37.8a2.923,2.923,0,0,0,2.686,1.841,2.855,2.855,0,0,0,1.554-.49l.152-.084h.152a3.97,3.97,0,0,0,1.943.507,3.379,3.379,0,0,0,2.4-1.081,4.021,4.021,0,0,0,.929-1.368l.084-.27.253.084a3.142,3.142,0,0,0,3.632-1.689l.1-.22h.22a2.906,2.906,0,0,0,.608.084,3.21,3.21,0,0,0,2.923-1.96l.118-.27.253.1a3.334,3.334,0,0,0,3.075-5.9l-.3-.237,7.214-5.913a.98.98,0,0,0,.355-1.385ZM21.2,35.738a.929.929,0,1,1-.929.929.912.912,0,0,1,.929-.929Zm-2.872-.98a.929.929,0,0,1-1.858,0,.912.912,0,0,1,.929-.929.929.929,0,0,1,.929.929ZM12.01,29.69a1.571,1.571,0,1,1-1.571-1.554A1.554,1.554,0,0,1,12.01,29.69Zm2.213,1.689a.946.946,0,1,1-.929.946.929.929,0,0,1,.929-.946ZM27.5,17.594a1.014,1.014,0,0,0-1.216,0s-.912.743-1.993,1.5c-.541.372-1.115.743-1.6,1.031a6.622,6.622,0,0,1-.76.355l.118.27h0l-.287.1h0v-.3a2.467,2.467,0,0,1-1.216-.135,1.453,1.453,0,0,1-.557-.389l-.186-.2,4.9-5.507h0a1,1,0,0,0,.541-.439h0a4.747,4.747,0,0,1,2.7-.76,31.287,31.287,0,0,0,10.136-1.081h.2l6.048,8.227-6.758,5.575Zm4.882,15.677h0l.169-.237-.27-.3-1.453-1.2-1.183-.946L26.894,28.3a1.014,1.014,0,0,0-.659-.237h0a.963.963,0,0,0-.743.355.9.9,0,0,0-.22.71,1,1,0,0,0,.355.676l.27.2,2.517,2.078,1.047.845,1.183.963v.2a1.2,1.2,0,0,1-1.875.726c-.118-.084-2.855-2.078-4.392-3.379a.946.946,0,0,0-.659-.253h0a1.132,1.132,0,0,0-.726.372.878.878,0,0,0-.22.693.963.963,0,0,0,.355.676c1.064.862,2.23,1.689,3.379,2.568l.118.1v.405a1.864,1.864,0,0,1-1.554,1.554,1.588,1.588,0,0,1-.828-.118l-.2-.084v-.22a2.6,2.6,0,0,0,0-.507,2.906,2.906,0,0,0-2.872-2.872,2.348,2.348,0,0,0-.777.135h-.253l-.1-.253A2.906,2.906,0,0,0,17.366,31.8h-.287v-.237a2.889,2.889,0,0,0-2.821-2.3h-.3l-.084-.253a3.6,3.6,0,0,0-2.112-2.652l-7.619-6.42L10.186,11.8h.2a31.287,31.287,0,0,0,10.136,1.081,4.933,4.933,0,0,1,1.909.338l.405.152-4.916,5.541a.963.963,0,0,0-.186.946A3.7,3.7,0,0,0,19.8,22.138a4.173,4.173,0,0,0,1.689.3h.524a3.818,3.818,0,0,0,1.689-.625c.541-.3,1.1-.676,1.808-1.166l1.031-.76.338-.338,11.471,9.055a2.754,2.754,0,0,1,.878,1.216,1.419,1.419,0,0,1-.389,1.132,1.368,1.368,0,0,1-1.487.253H37.2l-.524-.372-.439-.355-.574-.49L32.824,27.73,28.752,24.5a1,1,0,0,0-1.368.152.963.963,0,0,0,.152,1.368l4.055,3.227,2.8,2.129.135.1v.186a.422.422,0,0,0,0,.152A1.25,1.25,0,0,1,33.28,33.1a1.132,1.132,0,0,1-.507-.135l-.135.27-.2-.118h0Z" transform="translate(-1.847 -9.704)" fill="#2181f8"/>
    </g>
  </g>
</svg>
