<svg xmlns="http://www.w3.org/2000/svg" xmlns:xlink="http://www.w3.org/1999/xlink" width="45" height="45" viewBox="0 0 45 45">
  <defs>
    <clipPath id="clip-path">
      <rect width="45" height="45" transform="translate(795 5796)" fill="#fff" stroke="#707070" stroke-width="1"/>
    </clipPath>
  </defs>
  <g transform="translate(-795 -5796)" clip-path="url(#clip-path)">
    <g transform="translate(795.029 5796)">
      <circle cx="2.216" cy="2.216" r="2.216" transform="translate(28.401 31.853)" fill="none"/>
      <path d="M37.91,27.135a44.68,44.68,0,0,1-.65,6.963,3.981,3.981,0,0,1,2.082,4.664A28.133,28.133,0,0,1,41.925,40.7a20.624,20.624,0,0,0,5.931-13.56Z" transform="translate(-4.778 -3.661)" fill="none"/>
      <path d="M47.855,23.539A20.607,20.607,0,0,0,41.941,10a22.839,22.839,0,0,1-2.6,1.932,3.965,3.965,0,0,1-2.082,4.648,44.878,44.878,0,0,1,.65,6.963Z" transform="translate(-4.778 -1.947)" fill="none"/>
      <path d="M30.321,38.624a21.973,21.973,0,0,0-3.149-.383v9.6c1.849-.5,3.632-2.466,5-5.547A4.081,4.081,0,0,1,30.3,38.808v-.217Z" transform="translate(-3.769 -4.772)" fill="none"/>
      <path d="M27.172,35.248a20.807,20.807,0,0,1,3.682.466,4.1,4.1,0,0,1,3.515-2.082h0a42.78,42.78,0,0,0,.6-6.5h-7.8Z" transform="translate(-3.769 -3.661)" fill="none"/>
      <circle cx="2.216" cy="2.216" r="2.216" transform="translate(28.401 8.798)" fill="none"/>
      <path d="M27.167,24.092h7.846a42.98,42.98,0,0,0-.65-6.5A4.1,4.1,0,0,1,30.8,15.53a22.69,22.69,0,0,1-3.682.45Z" transform="translate(-3.764 -2.501)" fill="none"/>
      <path d="M34.465,8.305h.366A4.148,4.148,0,0,1,37.88,9.688a20.424,20.424,0,0,0,2.082-1.549,20.59,20.59,0,0,0-8.329-4.215,16.459,16.459,0,0,1,2.832,4.381Z" transform="translate(-4.215 -1.34)" fill="none"/>
      <path d="M27.172,3.295v9.6a22.256,22.256,0,0,0,3.149-.383h0a.766.766,0,0,1,0-.167,4.081,4.081,0,0,1,1.916-3.448C30.8,5.76,29.021,3.795,27.172,3.295Z" transform="translate(-3.769 -1.277)" fill="none"/>
      <path d="M37.886,41.906a4.081,4.081,0,0,1-3.049,1.383h-.366a16.659,16.659,0,0,1-2.782,4.431,20.624,20.624,0,0,0,8.329-4.231,20.424,20.424,0,0,0-2.132-1.583Z" transform="translate(-4.221 -5.138)" fill="none"/>
      <path d="M15.846,40.425a20.323,20.323,0,0,0-4.481,2.882,20.907,20.907,0,0,0,8.329,4.248,19.424,19.424,0,0,1-3.848-7.13Z" transform="translate(-2.188 -4.99)" fill="none"/>
      <path d="M10.119,27.135H3.239A20.607,20.607,0,0,0,9.153,40.7,22.339,22.339,0,0,1,14.5,37.264,41.647,41.647,0,0,1,13.334,30.2a4.1,4.1,0,0,1-3.215-3.065Z" transform="translate(-1.376 -3.661)" fill="none"/>
      <path d="M3.239,23.548h6.88a4.1,4.1,0,0,1,3.215-3.065A41.947,41.947,0,0,1,14.5,13.42a22.789,22.789,0,0,1-5.347-3.332,20.574,20.574,0,0,0-5.914,13.46Z" transform="translate(-1.376 -1.957)" fill="none"/>
      <path d="M18.306,11.659a20.99,20.99,0,0,0,6.1,1.216V3.313C22.021,3.946,19.805,6.995,18.306,11.659Z" transform="translate(-2.883 -1.279)" fill="none"/>
      <path d="M19.391,24h4.831V15.887A22.822,22.822,0,0,1,17.558,14.6a38.082,38.082,0,0,0-1.066,6.43A4.015,4.015,0,0,1,19.391,24Z" transform="translate(-2.701 -2.408)" fill="none"/>
      <path d="M24.4,47.822V38.26a20.44,20.44,0,0,0-6.1,1.216C19.805,44.14,22.021,47.139,24.4,47.822Z" transform="translate(-2.883 -4.774)" fill="none"/>
      <path d="M15.848,10.98a19.424,19.424,0,0,1,3.865-7.13A20.49,20.49,0,0,0,11.384,8.1a21.656,21.656,0,0,0,4.465,2.882Z" transform="translate(-2.19 -1.333)" fill="none"/>
      <path d="M24.227,27.135H19.4a4.065,4.065,0,0,1-2.849,2.982,38.082,38.082,0,0,0,1.066,6.43,22.823,22.823,0,0,1,6.664-1.283Z" transform="translate(-2.707 -3.661)" fill="none"/>
      <circle cx="2.216" cy="2.216" r="2.216" transform="translate(10.509 20.325)" fill="none"/>
      <path d="M39.115,7.269v-.1a1.033,1.033,0,0,0-.2-.133,22.389,22.389,0,0,0-30.469,0,.45.45,0,0,0-.2.2,22.406,22.406,0,0,0,0,32.685V40a.683.683,0,0,0,.2.083h0a22.389,22.389,0,0,0,30.436,0h0a.516.516,0,0,0,.167-.167,22.439,22.439,0,0,0,0-32.685ZM34,12.066a2.216,2.216,0,1,1-.655-1.573A2.216,2.216,0,0,1,34,12.066Zm-2.232,4.081a42.979,42.979,0,0,1,.6,6.5h-7.8V14.532a22.689,22.689,0,0,0,3.682-.45A4.1,4.1,0,0,0,31.769,16.148Zm3.015-6.8a4.148,4.148,0,0,0-3.015-1.383H31.4A16.459,16.459,0,0,0,28.62,3.537a20.59,20.59,0,0,1,8.329,4.215,20.423,20.423,0,0,1-2.116,1.6ZM27.7,12.066a.766.766,0,0,0,0,.167h0a22.256,22.256,0,0,1-3.149.383V3.071c1.849.5,3.632,2.466,5,5.547A4.081,4.081,0,0,0,27.7,12.066Zm1.916,26.5c-1.416,3.082-3.2,5-5,5.547v-9.6a21.973,21.973,0,0,1,3.149.383v.183A4.081,4.081,0,0,0,29.62,38.57Zm2.166-1.249a2.216,2.216,0,1,1,2.078-1.044,2.216,2.216,0,0,1-2.078,1.044Zm0-6.3h0a4.1,4.1,0,0,0-3.532,2.082,20.806,20.806,0,0,0-3.682-.466V24.527h7.846a42.78,42.78,0,0,1-.65,6.5Zm-.4,8.146h.383a4.081,4.081,0,0,0,3.049-1.383A20.424,20.424,0,0,1,36.9,39.337a20.624,20.624,0,0,1-8.329,4.231,16.659,16.659,0,0,0,2.849-4.4ZM35.7,36.155a3.981,3.981,0,0,0-2.082-4.664,44.679,44.679,0,0,0,.65-6.963h10a20.624,20.624,0,0,1-5.931,13.56,28.136,28.136,0,0,0-2.6-1.932Zm.15-24.089a4.065,4.065,0,0,0-.15-1.033A22.839,22.839,0,0,0,38.332,9.1a20.607,20.607,0,0,1,5.914,13.544h-10a44.879,44.879,0,0,0-.65-6.963,4.031,4.031,0,0,0,2.282-3.615ZM22.69,3.087v9.562a20.99,20.99,0,0,1-6.1-1.216C18.092,6.769,20.307,3.72,22.69,3.087Zm0,31.452V44.1c-2.382-.65-4.6-3.682-6.1-8.329a20.441,20.441,0,0,1,6.1-1.233ZM14.827,10.7a21.656,21.656,0,0,1-4.481-2.882A20.49,20.49,0,0,1,18.675,3.57a19.424,19.424,0,0,0-3.848,7.13Zm1.266,12.894a2.216,2.216,0,1,1-1.044-2.078,2.216,2.216,0,0,1,1.044,2.078ZM15.01,27.509a4.065,4.065,0,0,0,2.849-2.982H22.69v8.129a22.823,22.823,0,0,0-6.664,1.283,38.082,38.082,0,0,1-1.016-6.43Zm-1.882-7.93a4.1,4.1,0,0,0-3.215,3.065H3.032A20.574,20.574,0,0,1,8.946,9.1a22.789,22.789,0,0,0,5.347,3.415,41.947,41.947,0,0,0-1.166,7.063Zm1.166,14.993a22.339,22.339,0,0,0-5.347,3.515,20.607,20.607,0,0,1-5.914-13.56h6.88a4.1,4.1,0,0,0,3.215,3.065,41.647,41.647,0,0,0,1.166,7.063Zm.533,1.832a19.424,19.424,0,0,0,3.865,7.13,20.907,20.907,0,0,1-8.329-4.248,20.324,20.324,0,0,1,4.465-2.8Zm1.249-23.156a22.823,22.823,0,0,0,6.664,1.283v8.113H17.908a4.015,4.015,0,0,0-2.849-2.965,38.082,38.082,0,0,1,1.016-6.43Z" transform="translate(-1.169 -1.053)" fill="#2181f8"/>
    </g>
  </g>
</svg>
