<svg xmlns="http://www.w3.org/2000/svg" xmlns:xlink="http://www.w3.org/1999/xlink" width="45" height="45" viewBox="0 0 45 45">
  <defs>
    <clipPath>
      <rect width="45" height="45" transform="translate(1484 5812)" fill="#fff" stroke="#707070" stroke-width="1"/>
    </clipPath>
  </defs>
  <g transform="translate(-1484 -5812)" clip-path="url(#clip-path)">
    <g transform="translate(1484.022 5812)">
      <path d="M10.136,39.763a.911.911,0,0,1,.861.712l1.076,5.381,4.4-6.622-.348-.579-4.586.629a.944.944,0,0,1-.662-.182.861.861,0,0,1-.315-.613l-.4-4.5-1.838-.579L3.679,40.955l6.308-1.192Z" transform="translate(-1.069 -4.045)" fill="none"/>
      <path d="M24.337,16.7l-3.311,2.715v7.665H32.068a.6.6,0,0,0,.43-.182.662.662,0,0,0,.2-.447.629.629,0,0,0-.629-.629H29.634V24.166h3.1a.6.6,0,0,0,.43-.182.662.662,0,0,0,.2-.447.629.629,0,0,0-.629-.629H30.363V21.252h3.2a.6.6,0,0,0,.43-.182.579.579,0,0,0,.182-.447.613.613,0,0,0-.613-.629h-2.45V18.338H34.22a.762.762,0,0,0,.43-.182.646.646,0,0,0,.182-.447.613.613,0,0,0-.613-.629H28.26a.861.861,0,0,1-.877-.861V12.3a2.069,2.069,0,0,0-1.225-1.92V13.04a.762.762,0,0,1-.1.381l-1.49,2.98A.811.811,0,0,1,24.337,16.7Z" transform="translate(-2.804 -1.742)" fill="none"/>
      <rect width="3.477" height="9.437" transform="translate(12.924 16.629)" fill="none"/>
      <path d="M19.69,37.908l3.559-2.351a.844.844,0,0,1,.96,0l3.559,2.351,2.185-3.626a.911.911,0,0,1,.844-.414l4.255.579.364-4.172a.844.844,0,0,1,.613-.762l4.056-1.275L38.63,24.333a.844.844,0,0,1,.215-.944l3.1-2.881L38.8,17.628a.844.844,0,0,1-.166-.944l1.523-3.907L36.08,11.5a.844.844,0,0,1-.613-.762L35.1,6.569l-4.238.579A.877.877,0,0,1,30,6.734L27.769,3.109,24.21,5.46a.911.911,0,0,1-.96,0L19.69,3.109,17.521,6.734a.894.894,0,0,1-.877.414l-4.238-.579-.364,4.172a.828.828,0,0,1-.6.762L7.373,12.777,8.83,16.684a.844.844,0,0,1-.215.944l-3.1,2.881,3.146,2.881a.844.844,0,0,1,.215.944L7.356,28.24l4.073,1.275a.844.844,0,0,1,.613.762l.364,4.172,4.238-.579a.877.877,0,0,1,.861.414ZM13.3,28.819a.861.861,0,0,1-.861-.861V16.866a.861.861,0,0,1,.861-.861h5.215a.861.861,0,0,1,.811.579l2.185-1.656,1.341-2.616V8.589a.861.861,0,0,1,.877-.861,3.824,3.824,0,0,1,2.732,1.126,3.874,3.874,0,0,1,1.126,2.715v2.864H32.67a2.334,2.334,0,0,1,1.656,4.023,1.391,1.391,0,0,1-.3.248,2.334,2.334,0,0,1-.364,2.732,1.97,1.97,0,0,1-.3.248,2.318,2.318,0,0,1-.447,2.732l-.3.248a2.632,2.632,0,0,1,.265,1.06h0a2.384,2.384,0,0,1-2.367,2.351H19.375a.877.877,0,0,1-.861.745Z" transform="translate(-1.253 -1.016)" fill="none"/>
      <path d="M46.405,40.4l-4.619-6.953-1.871.6-.4,4.536a.877.877,0,0,1-.977.762l-4.586-.629-.348.579,4.4,6.622,1.076-5.381a.911.911,0,0,1,.861-.762h0Z" transform="translate(-4.062 -4.049)" fill="none"/>
      <path d="M45.589,37.676l-5.364-8.029.795-.248a.877.877,0,0,0,.579-1.109l-1.656-4.271,3.311-3.112a.8.8,0,0,0,.265-.6.911.911,0,0,0-.265-.679l-3.311-3.1L41.6,12.3a.877.877,0,0,0-.513-1.126L36.649,9.78l-.4-4.52a.857.857,0,0,0-.977-.778l-4.6.563L28.322,1.2a.844.844,0,0,0-.53-.4.911.911,0,0,0-.662.1L23.256,3.389,19.415.923a.861.861,0,0,0-1.126.265l-2.45,3.857-4.569-.563a.894.894,0,0,0-.646.166.828.828,0,0,0-.348.6L9.9,9.78l-4.4,1.374a.877.877,0,0,0-.563,1.109l1.656,4.271L3.273,19.647a.8.8,0,0,0-.265.6.828.828,0,0,0,.248.646l3.311,3.129L4.929,28.223a.894.894,0,0,0,.546,1.142l.844.265L.906,38.454a.861.861,0,0,0,.3,1.192.844.844,0,0,0,.53.166L9.1,38.471l1.308,6.622a.927.927,0,0,0,.728.679h.2a.861.861,0,0,0,.728-.381l5.116-7.682,1.01,1.656a.844.844,0,0,0,.546.4.828.828,0,0,0,.679-.116l3.841-2.55L27.1,39.629a.911.911,0,0,0,.662.116.844.844,0,0,0,.563-.381l1.01-1.656,5.116,7.682a.911.911,0,0,0,.894.381.927.927,0,0,0,.7-.7l1.324-6.622,7.433.662a.828.828,0,0,0,.927-.778A.944.944,0,0,0,45.589,37.676ZM8.041,30.193l1.838.579.4,4.5a.861.861,0,0,0,.315.613.944.944,0,0,0,.662.182l4.586-.629.348.579-4.4,6.622-1.076-5.381a.911.911,0,0,0-.861-.762H9.7L3.389,37.692Zm3.891,4.023-.364-4.172a.844.844,0,0,0-.613-.762L6.882,28.008,8.356,24.1a.844.844,0,0,0-.215-.944l-3.1-2.881L8.19,17.4a.844.844,0,0,0,.166-.944L6.9,12.545l4.073-1.275a.828.828,0,0,0,.6-.762l.364-4.172,4.238.579a.894.894,0,0,0,.877-.414l2.169-3.626,3.559,2.351a.911.911,0,0,0,.96,0L27.3,2.876,29.481,6.5a.877.877,0,0,0,.861.414l4.238-.579.364,4.172a.844.844,0,0,0,.613.762l4.073,1.275-1.473,3.907a.844.844,0,0,0,.215.944l3.1,2.881-3.146,2.881a.844.844,0,0,0-.215.944l1.507,3.907-4.056,1.275a.844.844,0,0,0-.613.762l-.364,4.172-4.255-.579a.911.911,0,0,0-.844.414L27.3,37.676l-3.559-2.351a.844.844,0,0,0-.96,0l-3.559,2.351L17.031,34.05a.877.877,0,0,0-.861-.414ZM35.8,37.245l-1.076,5.381L30.325,36l.348-.579,4.586.629a.877.877,0,0,0,.977-.762l.4-4.536,1.871-.6,4.619,6.97L36.748,36.5h0A.911.911,0,0,0,35.8,37.245ZM36.715,36.832ZM36.715,36.832Z" transform="translate(-0.779 -0.783)" fill="#2181f8"/>
      <path d="M20.144,28.588H31.2a2.384,2.384,0,0,0,2.367-2.351h0a2.632,2.632,0,0,0-.265-1.06l.3-.248a2.318,2.318,0,0,0,.447-2.732,1.97,1.97,0,0,0,.3-.248,2.334,2.334,0,0,0,.447-2.732,1.391,1.391,0,0,0,.3-.182,2.334,2.334,0,0,0-1.656-4.023H28.356v-2.93A3.874,3.874,0,0,0,27.23,9.367,3.824,3.824,0,0,0,24.5,8.241a.861.861,0,0,0-.861.861v3.559L22.3,15.277l-2.185,1.656a.861.861,0,0,0-.811-.579H14.069a.861.861,0,0,0-.861.861V28.472a.861.861,0,0,0,.861.861h5.215a.877.877,0,0,0,.861-.745Zm5.132-15.38a.762.762,0,0,0,.1-.381V10.161a2.069,2.069,0,0,1,1.225,1.92v3.725a.861.861,0,0,0,.877.861h5.96a.613.613,0,0,1,.613.629.646.646,0,0,1-.182.447.762.762,0,0,1-.43.182H30.326v1.656h2.45a.613.613,0,0,1,.613.629.579.579,0,0,1-.182.447.6.6,0,0,1-.43.182h-3.2V22.5h2.367a.629.629,0,0,1,.629.629.662.662,0,0,1-.2.447.6.6,0,0,1-.43.182h-3.1v1.656H31.2a.629.629,0,0,1,.629.629.662.662,0,0,1-.2.447.6.6,0,0,1-.43.182H20.161V19.2l3.311-2.715a.811.811,0,0,0,.232-.3Zm-6.871,4.967v9.453h-3.46v-9.47Z" transform="translate(-2.022 -1.529)" fill="#2181f8"/>
    </g>
  </g>
</svg>
