<svg xmlns="http://www.w3.org/2000/svg" width="46.2" height="42.109" viewBox="0 0 46.2 42.109"><g transform="translate(0.6 0.6)"><path d="M18.668,7a7.208,7.208,0,0,0-3.167.792A7.208,7.208,0,0,0,12.334,7a6.334,6.334,0,0,0,0,12.668,7.208,7.208,0,0,0,3.167-.792,7.208,7.208,0,0,0,3.167.792A6.334,6.334,0,1,0,18.668,7Zm-9.5,6.334a3.176,3.176,0,0,1,3.167-3.167,1.428,1.428,0,0,1,.792.158,6.112,6.112,0,0,0,0,6.017,1.428,1.428,0,0,1-.792.158A3.176,3.176,0,0,1,9.167,13.334Zm9.5,3.167a3.167,3.167,0,1,1,3.167-3.167A3.176,3.176,0,0,1,18.668,16.5Z" transform="translate(0.334 -0.724)" fill="#2181f8"/><path d="M12.334,6.4a7.668,7.668,0,0,1,3.167.727A7.668,7.668,0,0,1,18.668,6.4a6.934,6.934,0,0,1,0,13.868,7.668,7.668,0,0,1-3.167-.727,7.668,7.668,0,0,1-3.167.727,6.934,6.934,0,0,1,0-13.868ZM15.5,8.463l-.268-.134a6.615,6.615,0,0,0-2.9-.728,5.734,5.734,0,0,0,0,11.468,6.615,6.615,0,0,0,2.9-.728l.268-.134.268.134a6.615,6.615,0,0,0,2.9.728,5.734,5.734,0,0,0,0-11.468,6.615,6.615,0,0,0-2.9.728Zm-3.167,1.1a2.005,2.005,0,0,1,1.06.222l.58.29-.333.556a5.514,5.514,0,0,0,0,5.4l.333.556-.58.29a2.005,2.005,0,0,1-1.06.222,3.767,3.767,0,1,1,0-7.534Zm-.1,6.332a6.807,6.807,0,0,1,0-5.13,2.567,2.567,0,0,0,0,5.13Zm6.432-6.332A3.767,3.767,0,1,1,14.9,13.334,3.771,3.771,0,0,1,18.668,9.567Zm0,6.334A2.567,2.567,0,1,0,16.1,13.334,2.57,2.57,0,0,0,18.668,15.9Z" transform="translate(0.334 -0.724)" fill="#f5f5f5"/><path d="M42.179,3H6.821A4.686,4.686,0,0,0,2,7.72V32.9a4.686,4.686,0,0,0,4.821,4.72H24.982c.964,2.832,3.078,4.167,5.81,5.583l.649.373a1.506,1.506,0,0,0,1.095.337,1.475,1.475,0,0,0,.8-.157l.643-.315c2.732-1.573,5.143-2.832,6.107-5.664h2.089A4.686,4.686,0,0,0,47,33.052V7.72A4.686,4.686,0,0,0,42.179,3ZM32.536,40.448c-3.375-1.888-4.821-2.832-4.821-6.136V30.692l4.821-2.36,4.821,2.36v3.619C37.357,37.773,35.911,38.717,32.536,40.448ZM43.786,32.9a1.5,1.5,0,0,1-1.607,1.573H40.571v-4.72a1.512,1.512,0,0,0-.964-1.416l-6.429-3.147a2.275,2.275,0,0,0-1.446,0L25.3,28.332a1.645,1.645,0,0,0-.8,1.416v4.72H6.821A1.5,1.5,0,0,1,5.214,32.9v-4.72H21.286a1.574,1.574,0,1,0,0-3.147H5.214V7.72A1.5,1.5,0,0,1,6.821,6.147H42.179A1.5,1.5,0,0,1,43.786,7.72Z" transform="translate(-2 -3)" fill="#2181f8"/><path d="M6.821,2.4H42.179a5.461,5.461,0,0,1,3.855,1.528A5.254,5.254,0,0,1,47.6,7.72V33.052a5.254,5.254,0,0,1-1.566,3.792,5.461,5.461,0,0,1-3.855,1.528H40.506C39.438,41,37.133,42.321,34.7,43.717l-.418.24-.036.019-.643.315a2.056,2.056,0,0,1-1.067.218,2.129,2.129,0,0,1-1.452-.451l-.579-.333c-2.588-1.342-4.827-2.695-5.941-5.51H6.821a5.461,5.461,0,0,1-3.855-1.528A5.254,5.254,0,0,1,1.4,32.9V7.72A5.254,5.254,0,0,1,2.966,3.928,5.461,5.461,0,0,1,6.821,2.4ZM42.179,37.173a4.08,4.08,0,0,0,4.221-4.12V7.72A4.08,4.08,0,0,0,42.179,3.6H6.821A4.08,4.08,0,0,0,2.6,7.72V32.9a4.08,4.08,0,0,0,4.221,4.12h18.59l.138.407c.913,2.682,2.95,3.913,5.518,5.244l.023.012.715.411.055.053a.98.98,0,0,0,.675.166.912.912,0,0,0,.54-.1l.625-.306.4-.231c2.557-1.466,4.577-2.625,5.419-5.1l.138-.407ZM6.821,5.547H42.179A2.1,2.1,0,0,1,44.386,7.72V32.9a2.1,2.1,0,0,1-2.207,2.173H39.971v-5.32a.912.912,0,0,0-.628-.877l-6.388-3.127a1.675,1.675,0,0,0-1,0L25.6,28.854a1.032,1.032,0,0,0-.5.895v5.32H6.821A2.1,2.1,0,0,1,4.614,32.9v-5.32H21.286a.974.974,0,1,0,0-1.947H4.614V7.72A2.1,2.1,0,0,1,6.821,5.547ZM42.179,33.869a.91.91,0,0,0,1.007-.973V7.72a.91.91,0,0,0-1.007-.973H6.821a.91.91,0,0,0-1.007.973V24.428H21.286a2.174,2.174,0,1,1,0,4.347H5.814V32.9a.91.91,0,0,0,1.007.973H23.9v-4.12a2.245,2.245,0,0,1,1.076-1.919l.031-.02,6.5-3.182.04-.013a2.888,2.888,0,0,1,1.819,0l.04.013,6.466,3.165a2.09,2.09,0,0,1,1.3,1.955v4.12Zm-9.643-6.2,5.421,2.654v3.993c0,3.851-1.765,4.936-5.148,6.67l-.286.147-.281-.157c-3.464-1.938-5.128-3.03-5.128-6.66V30.318Zm4.221,3.4L32.536,29l-4.221,2.066v3.245c0,2.854,1.1,3.689,4.234,5.455,3.173-1.643,4.209-2.5,4.209-5.455Z" transform="translate(-2 -3)" fill="#f5f5f5"/></g></svg>