<svg xmlns="http://www.w3.org/2000/svg" width="46" height="46" viewBox="0 0 46 46"><g transform="translate(0.5 0.5)"><path d="M53.594,26.875A1.406,1.406,0,0,0,55,25.469V11.406A1.406,1.406,0,0,0,53.594,10H39.531a1.406,1.406,0,0,0-1.406,1.406v5.625H26.875V11.406A1.406,1.406,0,0,0,25.469,10H11.406A1.406,1.406,0,0,0,10,11.406V25.469a1.406,1.406,0,0,0,1.406,1.406h5.625v11.25H11.406A1.406,1.406,0,0,0,10,39.531V53.594A1.406,1.406,0,0,0,11.406,55H25.469a1.406,1.406,0,0,0,1.406-1.406V47.969h11.25v5.625A1.406,1.406,0,0,0,39.531,55H53.594A1.406,1.406,0,0,0,55,53.594V39.531a1.406,1.406,0,0,0-1.406-1.406H47.969V26.875ZM40.937,12.813h11.25v11.25H40.937V19.844h5.625a1.406,1.406,0,0,0,0-2.812H40.937ZM12.813,24.062V12.813h11.25v11.25H19.844V18.438a1.406,1.406,0,0,0-2.812,0v5.625Zm11.25,28.125H12.813V40.937h11.25v4.219H18.438a1.406,1.406,0,0,0,0,2.813h5.625Zm28.125-11.25v11.25H40.937V40.937h4.219v5.625a1.406,1.406,0,0,0,2.813,0V40.937Zm-7.031-2.812H39.531a1.406,1.406,0,0,0-1.406,1.406v5.625H26.875V39.531a1.406,1.406,0,0,0-1.406-1.406H19.844V26.875h5.625a1.406,1.406,0,0,0,1.406-1.406V19.844h11.25v5.625a1.406,1.406,0,0,0,1.406,1.406h5.625Z" transform="translate(-10 -10)" fill="#2181f8"/><path d="M11.406,9.5H25.469a1.908,1.908,0,0,1,1.906,1.906v5.125h10.25V11.406A1.908,1.908,0,0,1,39.531,9.5H53.594A1.908,1.908,0,0,1,55.5,11.406V25.469a1.908,1.908,0,0,1-1.906,1.906H48.469v10.25h5.125A1.908,1.908,0,0,1,55.5,39.531V53.594A1.908,1.908,0,0,1,53.594,55.5H39.531a1.908,1.908,0,0,1-1.906-1.906V48.469H27.375v5.125A1.908,1.908,0,0,1,25.469,55.5H11.406A1.908,1.908,0,0,1,9.5,53.594V39.531a1.908,1.908,0,0,1,1.906-1.906h5.125V27.375H11.406A1.908,1.908,0,0,1,9.5,25.469V11.406A1.908,1.908,0,0,1,11.406,9.5Zm27.219,8.031H26.375V11.406a.907.907,0,0,0-.906-.906H11.406a.907.907,0,0,0-.906.906V25.469a.907.907,0,0,0,.906.906h6.125v12.25H11.406a.907.907,0,0,0-.906.906V53.594a.907.907,0,0,0,.906.906H25.469a.907.907,0,0,0,.906-.906V47.469h12.25v6.125a.907.907,0,0,0,.906.906H53.594a.907.907,0,0,0,.906-.906V39.531a.907.907,0,0,0-.906-.906H47.469V26.375h6.125a.907.907,0,0,0,.906-.906V11.406a.907.907,0,0,0-.906-.906H39.531a.907.907,0,0,0-.906.906ZM12.313,12.313h12.25v12.25H19.344V18.438a.906.906,0,0,0-1.812,0v6.125H12.313Zm11.25,1H13.313v10.25h3.219V18.438a1.906,1.906,0,0,1,3.813,0v5.125h3.219Zm16.875-1h12.25v12.25H40.438V19.344h6.125a.906.906,0,0,0,0-1.812H40.438Zm11.25,1H41.438v3.219h5.125a1.906,1.906,0,0,1,0,3.813H41.438v3.219h10.25ZM26.375,19.344h12.25v6.125a.907.907,0,0,0,.906.906h6.125v12.25H39.531a.907.907,0,0,0-.906.906v6.125H26.375V39.531a.907.907,0,0,0-.906-.906H19.344V26.375h6.125a.907.907,0,0,0,.906-.906Zm11.25,1H27.375v5.125a1.908,1.908,0,0,1-1.906,1.906H20.344v10.25h5.125a1.908,1.908,0,0,1,1.906,1.906v5.125h10.25V39.531a1.908,1.908,0,0,1,1.906-1.906h5.125V27.375H39.531a1.908,1.908,0,0,1-1.906-1.906ZM12.313,40.438h12.25v5.219H18.438a.906.906,0,0,0,0,1.813h6.125v5.219H12.313Zm11.25,1H13.313v10.25h10.25V48.469H18.438a1.906,1.906,0,0,1,0-3.812h5.125Zm16.875-1h5.219v6.125a.906.906,0,0,0,1.813,0V40.438h5.219v12.25H40.438Zm4.219,1H41.438v10.25h10.25V41.438H48.469v5.125a1.906,1.906,0,0,1-3.812,0Z" transform="translate(-10 -10)" fill="#f5f5f5"/></g></svg>