<svg xmlns="http://www.w3.org/2000/svg" xmlns:xlink="http://www.w3.org/1999/xlink" width="45" height="45" viewBox="0 0 45 45">
  <defs>
    <clipPath id="clip-path">
      <rect width="45" height="45" transform="translate(620 5779)" fill="#fff" stroke="#707070" stroke-width="1"/>
    </clipPath>
  </defs>
  <g transform="translate(-620 -5779)" clip-path="url(#clip-path)">
    <g transform="translate(620.279 5779)">
      <path d="M39.056,44.045l.252-.2-1.044-.353c-.842-.286-1.784-.606-2.962-.943h-.151v.135a31.526,31.526,0,0,1-2.811,4.646l-.3.438.5-.151A20.972,20.972,0,0,0,39.056,44.045Z" transform="translate(-4.547 -5.357)" fill="none"/>
      <path d="M23.681,27.193H14.625v.185a30.3,30.3,0,0,0,2.407,11.378v.118h.135a51.554,51.554,0,0,1,6.278-.656h.168Z" transform="translate(-2.806 -3.822)" fill="none"/>
      <path d="M26.707,41.444v6.884h.185a8.264,8.264,0,0,0,1.448-.118h.084A24.878,24.878,0,0,0,32.7,42.3l.118-.2h-.236a28.48,28.48,0,0,0-5.689-.555Z" transform="translate(-4.014 -5.247)" fill="none"/>
      <path d="M47.494,27.193H38.758v.168a32.822,32.822,0,0,1-2.373,11.782l-.084.185h.2A25.8,25.8,0,0,1,40.9,40.877l.252.118.084-.084a20.2,20.2,0,0,0,6.261-13.6Z" transform="translate(-4.974 -3.822)" fill="none"/>
      <path d="M26.837,38.2h.168a36.71,36.71,0,0,1,6.5.656h.135v-.118a29.725,29.725,0,0,0,2.407-11.378v-.185H26.837Z" transform="translate(-4.027 -3.82)" fill="none"/>
      <path d="M36.618,9.315A1.683,1.683,0,0,0,37.813,11l.252.1V7.481l-.252.118a1.683,1.683,0,0,0-1.2,1.717Z" transform="translate(-5.005 -1.851)" fill="none"/>
      <path d="M38.356,19.918a8.416,8.416,0,1,0-8.264-8.332,8.248,8.248,0,0,0,8.264,8.332Zm-1.094-7.827a4.9,4.9,0,0,1-2.272-1.178,2.727,2.727,0,0,1-.926-2.037,2.9,2.9,0,0,1,.926-2.053,3.686,3.686,0,0,1,2.289-1.145h.168V4.735a.757.757,0,0,1,.269-.522c.151-.168.32-.168.64-.168a1.683,1.683,0,0,1,.606.151h.084a.724.724,0,0,1,.219.454v.875H39.4A4.662,4.662,0,0,1,41.722,6.7a2.929,2.929,0,0,1,.976,2.02.724.724,0,0,1-.269.522l-.084.118a.842.842,0,0,1-.555.168,1.347,1.347,0,0,1-.606-.168H41.1a.572.572,0,0,1-.219-.471,1.868,1.868,0,0,0-1.3-1.683l-.252-.168v3.821h.135a4.8,4.8,0,0,1,2.424,1.229,2.9,2.9,0,0,1,.926,2.053,2.727,2.727,0,0,1-.926,1.986,4.04,4.04,0,0,1-2.39,1.145h-.168v.909a.724.724,0,0,1-.269.522.875.875,0,0,1-.64.168,1.279,1.279,0,0,1-.606-.151h-.084a.555.555,0,0,1-.219-.471V17.141h-.168a3.164,3.164,0,0,1-2.356-1.01,2.878,2.878,0,0,1-.926-2.037.808.808,0,0,1,.286-.539c.151-.151.32-.151.623-.151a1.683,1.683,0,0,1,.623.135h.168a.707.707,0,0,1,.185.438,1.683,1.683,0,0,0,1.2,1.683l.252.1V12.091Z" transform="translate(-4.353 -1.411)" fill="none"/>
      <path d="M41.908,15.117a1.868,1.868,0,0,0-1.3-1.683l-.252-.118V16.9l.252-.1A1.885,1.885,0,0,0,41.908,15.117Z" transform="translate(-5.38 -2.434)" fill="none"/>
      <path d="M23.688,13.232H23.52a48.208,48.208,0,0,1-6.278-.757h-.135v.118A29.22,29.22,0,0,0,14.7,23.752v.185h8.988Z" transform="translate(-2.814 -2.35)" fill="none"/>
      <path d="M12.016,8.1l-.252.2.791.269a30.818,30.818,0,0,0,3.114.926h.151V9.359a28.008,28.008,0,0,1,2.71-4.528l.32-.454-.522.185A20.08,20.08,0,0,0,12.016,8.1Z" transform="translate(-2.52 -1.54)" fill="none"/>
      <path d="M9.647,10.3h-.1A20.2,20.2,0,0,0,3.722,23.467v.185h8.1v-.168a31.627,31.627,0,0,1,2.39-11.429V11.87h-.185A44.352,44.352,0,0,1,9.647,10.3Z" transform="translate(-1.716 -2.133)" fill="none"/>
      <path d="M9.334,40.871v.1h.118A43.543,43.543,0,0,1,14,39.458h.2v-.2a30.7,30.7,0,0,1-2.491-11.782v-.168H3.628v.185A21.057,21.057,0,0,0,9.334,40.871Z" transform="translate(-1.706 -3.833)" fill="none"/>
      <path d="M18.508,42h-.236l.118.2a24.877,24.877,0,0,0,4.275,5.908h0a4.6,4.6,0,0,0,1.145.118h.168V41.444H23.81a24.844,24.844,0,0,0-5.3.555Z" transform="translate(-3.171 -5.247)" fill="none"/>
      <path d="M18.594,47.658l.522.168-.32-.438a34.017,34.017,0,0,1-2.929-4.763v-.135h-.135c-1.178.337-2.171.673-2.979.943l-1.027.353.252.2A19.744,19.744,0,0,0,18.594,47.658Z" transform="translate(-2.516 -5.352)" fill="none"/>
      <path d="M22.414,3.737H22.33a20.653,20.653,0,0,0-3.939,5.992l-.1.219h.236a51.958,51.958,0,0,0,5.336.522h.185V3.737h-.168a8.416,8.416,0,0,0-1.464,0Z" transform="translate(-3.173 -1.473)" fill="none"/>
      <path d="M45.023,22.805H24.185V2.405a.909.909,0,0,0-.909-.909A22.3,22.3,0,0,0,1.5,23.714a22.184,22.184,0,0,0,21.78,22.538A22.891,22.891,0,0,0,45.932,23.714a.842.842,0,0,0-.909-.909ZM30.3,38.055l-.118.2A24.878,24.878,0,0,1,25.9,44.165h-.084a8.264,8.264,0,0,1-1.448.118h-.185V37.449h.185A28.48,28.48,0,0,1,30.06,38Zm3.265-13.247a29.725,29.725,0,0,1-2.407,11.378V36.3h-.135a36.71,36.71,0,0,0-6.5-.656h-.168V24.623h9.274ZM29.218,43.172a31.526,31.526,0,0,0,2.811-4.646v-.135h.151c1.178.337,2.121.656,2.962.943l1.044.353-.252.2a20.972,20.972,0,0,1-6.581,3.518l-.5.151Zm8.416-4.679-.252-.118a25.8,25.8,0,0,0-4.393-1.549h-.2l.084-.185a32.822,32.822,0,0,0,2.373-11.782V24.69h8.736v.185a20.2,20.2,0,0,1-6.261,13.6Zm-21.713-2.2h-.135V36.17a30.3,30.3,0,0,1-2.407-11.378v-.185h8.988V35.614H22.2a51.555,51.555,0,0,0-6.278.673ZM11.494,24.623v.168a30.7,30.7,0,0,0,2.491,11.782v.2h-.2a43.546,43.546,0,0,0-4.545,1.515H9.121v-.1A21.057,21.057,0,0,1,3.415,24.724v-.185Zm.168,14.762c.808-.269,1.8-.606,2.979-.943h.135v.135A34.017,34.017,0,0,0,17.7,43.34l.32.438-.522-.168a19.744,19.744,0,0,1-6.733-3.619l-.252-.2Zm10.705-1.936v6.884H22.2a4.6,4.6,0,0,1-1.145-.118h0a24.877,24.877,0,0,1-4.275-5.908l-.118-.2H16.9a24.844,24.844,0,0,1,5.369-.555Zm0-33.933v6.733h-.185a51.958,51.958,0,0,1-5.336-.539h-.236l.1-.219A20.653,20.653,0,0,1,20.65,3.516h.084a8.416,8.416,0,0,1,1.464,0Zm-9.056,19.1a29.22,29.22,0,0,1,2.407-11.16v-.118h.135a48.207,48.207,0,0,0,6.278.757H22.3V22.772H13.312ZM17.553,4.576A28.008,28.008,0,0,0,14.844,9.1v.135h-.151a30.818,30.818,0,0,1-3.114-.926l-.791-.269.252-.2a20.08,20.08,0,0,1,6.362-3.5l.522-.185Zm-3.5,6.413v.185a31.627,31.627,0,0,0-2.373,11.462v.168H3.415V22.62A20.2,20.2,0,0,1,9.238,9.458h.1a44.351,44.351,0,0,0,4.444,1.515Z" transform="translate(-1.493 -1.252)" fill="#2181f8"/>
      <path d="M37.6,15.884a1.683,1.683,0,0,1-1.2-1.683.707.707,0,0,0-.185-.438h-.168a1.683,1.683,0,0,0-.623-.252c-.3,0-.471,0-.623.151a.808.808,0,0,0-.286.539,2.878,2.878,0,0,0,.909,2.037,3.164,3.164,0,0,0,2.356,1.01h.168v1.044a.555.555,0,0,0,.219.471h.084a1.279,1.279,0,0,0,.606.151.875.875,0,0,0,.64-.168.724.724,0,0,0,.269-.522v-.808h.168a4.04,4.04,0,0,0,2.39-1.178,2.727,2.727,0,0,0,.926-2.037,2.9,2.9,0,0,0-.926-2,4.8,4.8,0,0,0-2.424-1.145h-.135v-3.9l.252.118a1.868,1.868,0,0,1,1.3,1.683.572.572,0,0,0,.219.471h.084a1.347,1.347,0,0,0,.606.168.842.842,0,0,0,.555-.168l.084-.118a.724.724,0,0,0,.269-.471,2.929,2.929,0,0,0-.976-2.02,4.662,4.662,0,0,0-2.407-1.145h-.135V4.842a.724.724,0,0,0-.219-.454h-.084a1.683,1.683,0,0,0-.522-.236c-.32,0-.488,0-.64.168a.757.757,0,0,0-.269.522v.926H37.72a3.686,3.686,0,0,0-2.289,1.161,2.9,2.9,0,0,0-.926,2.053,2.727,2.727,0,0,0,.926,2.037A4.9,4.9,0,0,0,37.7,12.2h.151v3.787Zm.252-8.736v3.619l-.252-.1a1.683,1.683,0,0,1-1.2-1.683A1.683,1.683,0,0,1,37.6,7.3Zm1.919,8.8V12.4l.252.118a1.868,1.868,0,0,1,1.3,1.683,1.885,1.885,0,0,1-1.3,1.683Z" transform="translate(-4.794 -1.518)" fill="#2181f8"/>
      <path d="M38.152,21.448a10.1,10.1,0,1,0-7.159-2.976,10.1,10.1,0,0,0,7.159,2.976Zm-8.332-10.1a8.332,8.332,0,1,1,8.332,8.416A8.248,8.248,0,0,1,29.888,11.4Z" transform="translate(-4.149 -1.225)" fill="#2181f8"/>
    </g>
  </g>
</svg>
