<svg xmlns="http://www.w3.org/2000/svg" xmlns:xlink="http://www.w3.org/1999/xlink" width="45" height="45" viewBox="0 0 45 45">
  <defs>
    <clipPath id="clip-path">
      <rect width="45" height="45" transform="translate(380 5798)" fill="#fff" stroke="#707070" stroke-width="1"/>
    </clipPath>
  </defs>
  <g transform="translate(-380 -5798)" clip-path="url(#clip-path)">
    <g transform="translate(380 5799.629)">
      <rect width="3.054" height="18.194" transform="translate(36.74 21.709)" fill="none"/>
      <path d="M30.058,4.434l-.1,15.37,13.679-6.831a17.357,17.357,0,0,0-13.58-8.539Z" transform="translate(-3.597 -2.562)" fill="none"/>
      <rect width="3.054" height="13.859" transform="translate(27.216 26.027)" fill="none"/>
      <rect width="3.054" height="11.232" transform="translate(17.675 28.671)" fill="none"/>
      <rect width="3.054" height="8.687" transform="translate(8.151 31.2)" fill="none"/>
      <path d="M28.817,22.026a.838.838,0,0,0,.411-.1L45.107,13.98a.887.887,0,0,0,.476-.525,1,1,0,0,0,0-.723A18.884,18.884,0,0,0,29.063,2.354h0a1.1,1.1,0,0,0-.739.3.9.9,0,0,0-.263.624L27.9,21.09a.9.9,0,0,0,.443.788A.854.854,0,0,0,28.817,22.026Zm.936-2.43.1-15.37a17.357,17.357,0,0,1,13.58,8.539Z" transform="translate(-3.391 -2.354)" fill="#2181f8"/>
      <path d="M5.108,39.686a.92.92,0,0,0,.739.378.821.821,0,0,0,.542-.2.92.92,0,0,0,.246-1.281l-.164-.213A20.51,20.51,0,0,1,2.5,26.2,20.756,20.756,0,0,1,22.2,5.612V26.2a.936.936,0,0,0,1.33.821l18.375-9.311a20.658,20.658,0,0,1,.558,15.6.952.952,0,0,0,0,.706.92.92,0,0,0,.525.493.936.936,0,0,0,1.182-.558A22.612,22.612,0,0,0,45.553,26.2,22.234,22.234,0,0,0,43.09,16.04a.936.936,0,0,0-.542-.46,1.051,1.051,0,0,0-.706,0L23.976,24.694V4.66a.92.92,0,0,0-.92-.92A22.464,22.464,0,0,0,4.993,39.456Z" transform="translate(-0.668 -2.492)" fill="#2181f8"/>
      <path d="M44.815,44.455H42.532V25.44a.936.936,0,0,0-.92-.936H36.686a.952.952,0,0,0-.936.936V44.455H33.008V29.676a.92.92,0,0,0-.92-.92H27.162a.92.92,0,0,0-.92.92V44.455H23.484V32.32a.92.92,0,0,0-.92-.92H17.638a.92.92,0,0,0-.92.92V44.455H13.96V34.849a.92.92,0,0,0-.92-.92H8.114a.92.92,0,0,0-.92.92v9.606H3.91a.952.952,0,0,0-.936.936.936.936,0,0,0,.936.92H44.962a.936.936,0,0,0,.936-.92.952.952,0,0,0-1.084-.936ZM40.693,26.277V44.455H37.639V26.277ZM31.169,30.6V44.455H28.115V30.6ZM21.645,33.24V44.455H18.574V33.24Zm-9.524,2.529v8.687H9.05V35.769Z" transform="translate(-0.898 -4.569)" fill="#2181f8"/>
    </g>
  </g>
</svg>
