<svg xmlns="http://www.w3.org/2000/svg" width="35.413" height="45.7" viewBox="0 0 35.413 45.7"><g transform="translate(-49.462 0.35)"><path d="M84.525,76.3A4.221,4.221,0,0,0,80.391,72a3.983,3.983,0,0,0-1.838.449,4.156,4.156,0,0,0-3.906-2.889,4,4,0,0,0-2.21.668A4.107,4.107,0,0,0,68.9,68.164,3.98,3.98,0,0,0,67.3,68.5V63.369a3.99,3.99,0,1,0-7.974,0V76.73a5.583,5.583,0,0,0-3.477-2.558,5.4,5.4,0,0,0-4.239.739l-1.2.781a1.34,1.34,0,0,0-.436,1.744c.053.1,5.369,10.134,7.525,14.933q.055.123.111.242a10.793,10.793,0,0,0,3.934,4.532,10.41,10.41,0,0,0,5.649,1.67h6.4a10.587,10.587,0,0,0,7.639-3.264,11.421,11.421,0,0,0,3.215-7.9l.083-9.134s0,0,0-.006,0,0,0-.006V76.3ZM79.451,93.685a8.124,8.124,0,0,1-5.862,2.5h-6.4a8.121,8.121,0,0,1-7.31-4.721c-.032-.069-.064-.14-.1-.21-1.79-3.983-5.578-11.245-7.027-14l.191-.124a2.969,2.969,0,0,1,2.332-.406A3.073,3.073,0,0,1,57.2,78.153L59.513,82a1.241,1.241,0,0,0,1.419.566,1.305,1.305,0,0,0,.915-1.261V63.369a1.463,1.463,0,1,1,2.924,0V78.5a1.263,1.263,0,1,0,2.525,0V72.458a1.61,1.61,0,1,1,3.219,0V78.5a1.263,1.263,0,1,0,2.525,0V73.857a1.61,1.61,0,1,1,3.219,0V78.5a1.263,1.263,0,1,0,2.525,0V76.3A1.61,1.61,0,1,1,82,76.3v2.195l-.083,9.129A8.765,8.765,0,0,1,79.451,93.685Z" transform="translate(0 -53.812)" fill="#2181f8"/><path d="M63.308,58.878a4.421,4.421,0,0,1,4.337,4.491V68a4.316,4.316,0,0,1,1.259-.186,4.406,4.406,0,0,1,3.645,1.94,4.341,4.341,0,0,1,2.1-.542,4.485,4.485,0,0,1,4.1,2.764,4.294,4.294,0,0,1,1.644-.324A4.571,4.571,0,0,1,84.875,76.3v.383h0v1.832l-.083,9.137a11.77,11.77,0,0,1-3.314,8.143,10.934,10.934,0,0,1-7.89,3.37h-6.4a10.759,10.759,0,0,1-5.838-1.726,11.143,11.143,0,0,1-4.062-4.679q-.056-.121-.113-.246C55.031,87.743,49.712,77.7,49.659,77.6a1.693,1.693,0,0,1,.554-2.2l1.2-.781a5.748,5.748,0,0,1,4.512-.786,5.879,5.879,0,0,1,3.046,1.836v-12.3A4.421,4.421,0,0,1,63.308,58.878ZM66.945,69.04V63.369a3.64,3.64,0,1,0-7.274,0V77.975l-.649-1.063a5.239,5.239,0,0,0-3.26-2.4A5.048,5.048,0,0,0,51.8,75.2l-1.2.781a.989.989,0,0,0-.317,1.286c.054.1,5.383,10.165,7.535,14.953q.054.121.109.238a10.443,10.443,0,0,0,3.807,4.386,10.061,10.061,0,0,0,5.459,1.614h6.4A10.24,10.24,0,0,0,80.977,95.3a11.073,11.073,0,0,0,3.116-7.662l.083-9.125s0-.008,0-.011V76.266a3.869,3.869,0,0,0-3.784-3.913,3.613,3.613,0,0,0-1.677.41l-.363.188-.13-.388a3.8,3.8,0,0,0-3.574-2.65,3.655,3.655,0,0,0-2.017.61l-.308.2-.187-.318A3.734,3.734,0,0,0,68.9,68.514a3.62,3.62,0,0,0-1.468.309ZM63.308,61.5a1.843,1.843,0,0,1,1.812,1.868V78.5a.914.914,0,1,0,1.825,0V72.458a1.96,1.96,0,1,1,3.919,0V78.5a.914.914,0,1,0,1.825,0V73.857a1.96,1.96,0,1,1,3.919,0V78.5a.914.914,0,1,0,1.825,0V76.3a1.96,1.96,0,1,1,3.919,0v2.195l-.083,9.132a9.114,9.114,0,0,1-2.566,6.3,8.471,8.471,0,0,1-6.113,2.611h-6.4a8.473,8.473,0,0,1-7.627-4.923c-.033-.071-.066-.142-.1-.215-1.774-3.948-5.5-11.093-7.018-13.981l-.148-.282.458-.3a3.318,3.318,0,0,1,2.6-.453A3.42,3.42,0,0,1,57.5,77.973l2.312,3.849a.9.9,0,0,0,.771.447.871.871,0,0,0,.248-.036.959.959,0,0,0,.665-.925V63.369A1.843,1.843,0,0,1,63.308,61.5Zm2.725,18.66A1.639,1.639,0,0,1,64.42,78.5V63.369a1.113,1.113,0,1,0-2.224,0V81.308a1.663,1.663,0,0,1-1.165,1.6,1.571,1.571,0,0,1-.447.065,1.592,1.592,0,0,1-1.371-.787L56.9,78.334a2.725,2.725,0,0,0-1.706-1.266,2.615,2.615,0,0,0-1.982.311c1.6,3.055,5.161,9.894,6.888,13.737q.047.1.094.206a7.77,7.77,0,0,0,6.993,4.519h6.4a7.777,7.777,0,0,0,5.611-2.4,8.417,8.417,0,0,0,2.368-5.823l.083-9.129V76.3a1.261,1.261,0,1,0-2.519,0v2.2a1.613,1.613,0,1,1-3.225,0V73.857a1.261,1.261,0,1,0-2.519,0V78.5a1.613,1.613,0,1,1-3.225,0V72.458a1.261,1.261,0,1,0-2.519,0V78.5A1.639,1.639,0,0,1,66.033,80.161Z" transform="translate(0 -53.812)" fill="#f5f5f5"/><path d="M101.2,11.409a1.347,1.347,0,0,0,1.32-1.372,7.027,7.027,0,1,1,14.043,0,1.321,1.321,0,1,0,2.641,0,9.669,9.669,0,1,0-19.325,0A1.347,1.347,0,0,0,101.2,11.409Z" transform="translate(-45.664)" fill="#2181f8"/><path d="M117.887,11.759a1.7,1.7,0,0,1-1.67-1.722,6.677,6.677,0,1,0-13.343,0,1.671,1.671,0,1,1-3.341,0,10.019,10.019,0,1,1,20.025,0A1.7,1.7,0,0,1,117.887,11.759Zm-8.342-9.366a7.52,7.52,0,0,1,7.372,7.644.972.972,0,1,0,1.941,0,9.32,9.32,0,1,0-18.625,0,.972.972,0,1,0,1.941,0A7.52,7.52,0,0,1,109.545,2.393Z" transform="translate(-45.664)" fill="#f5f5f5"/></g></svg>