<svg xmlns="http://www.w3.org/2000/svg" width="36.5" height="32.5" viewBox="0 0 36.5 32.5"><g transform="translate(0.25 -0.75)"><g transform="translate(6.109 12.636)"><path d="M8.948,11.182H5.2A1.091,1.091,0,1,1,5.2,9h3.75a1.091,1.091,0,1,1,0,2.182Z" transform="translate(-4.073 -9)" fill="#2181f8" stroke="#fff" stroke-width="0.5"/></g><g transform="translate(16.609 12.636)"><path d="M23.448,11.182H12.2A1.091,1.091,0,1,1,12.2,9h11.25a1.091,1.091,0,1,1,0,2.182Z" transform="translate(-11.073 -9)" fill="#2181f8" stroke="#fff" stroke-width="0.5"/></g><g transform="translate(6.109 18.455)"><path d="M8.948,15.182H5.2A1.091,1.091,0,1,1,5.2,13h3.75a1.091,1.091,0,1,1,0,2.182Z" transform="translate(-4.073 -13)" fill="#2181f8" stroke="#fff" stroke-width="0.5"/></g><g transform="translate(16.609 18.455)"><path d="M23.448,15.182H12.2A1.091,1.091,0,1,1,12.2,13h11.25a1.091,1.091,0,1,1,0,2.182Z" transform="translate(-11.073 -13)" fill="#2181f8" stroke="#fff" stroke-width="0.5"/></g><g transform="translate(6.109 24.273)"><path d="M8.948,19.182H5.2A1.091,1.091,0,1,1,5.2,17h3.75a1.091,1.091,0,1,1,0,2.182Z" transform="translate(-4.073 -17)" fill="#2181f8" stroke="#fff" stroke-width="0.5"/></g><g transform="translate(16.609 24.273)"><path d="M23.448,19.182H12.2A1.091,1.091,0,1,1,12.2,17h11.25a1.091,1.091,0,1,1,0,2.182Z" transform="translate(-11.073 -17)" fill="#2181f8" stroke="#fff" stroke-width="0.5"/></g><path d="M-2802.875-542a4.068,4.068,0,0,1-4.126-4v-24a4.068,4.068,0,0,1,4.126-4h27.75a4.067,4.067,0,0,1,4.125,4v24a4.067,4.067,0,0,1-4.125,4Zm-1.876-4a1.85,1.85,0,0,0,1.876,1.819h27.75A1.85,1.85,0,0,0-2773.25-546v-20.727h-31.5Zm31.5-22.909V-570a1.85,1.85,0,0,0-1.875-1.819h-27.75A1.85,1.85,0,0,0-2804.75-570v1.091Z" transform="translate(2807 575)" fill="#2181f8" stroke="#fff" stroke-width="0.5"/></g></svg>