<svg xmlns="http://www.w3.org/2000/svg" width="39.148" height="36" viewBox="0 0 39.148 36"><g transform="translate(-6.67)"><g transform="translate(6.67 0)"><path d="M1.176,59.719c.883-3.838,2.079-5.7,3.656-5.7a1.905,1.905,0,0,1,.868.209L38.6,67.986a.891.891,0,0,1,.548.821v6.416a.891.891,0,0,1-.548.822l-4.826,2.019-.009,0-2.312.967v5.591a2.548,2.548,0,0,1-2.55,2.54H20.76a2.548,2.548,0,0,1-2.55-2.54v-.051L5.7,89.808a1.905,1.905,0,0,1-.867.208c-1.577,0-2.773-1.865-3.656-5.7A57.476,57.476,0,0,1,0,72.016,57.482,57.482,0,0,1,1.176,59.719ZM20,84.625a.76.76,0,0,0,.761.757H28.9a.76.76,0,0,0,.761-.757V79.783L20,83.826v.8Zm12.527-7.973c1.523-.6,1.821-.655,1.79-.749l3.042-1.273V69.4L7.682,56.987a20.42,20.42,0,0,1,.806,2.733c.028.12.055.243.082.366l10.146,3.8a.891.891,0,0,1-.63,1.668L8.953,62.133a64.055,64.055,0,0,1,.711,9.883,57.476,57.476,0,0,1-1.176,12.3,20.451,20.451,0,0,1-.806,2.732ZM7.8,68.734a3.339,3.339,0,0,0,0,6.586c.049-1.076.074-2.182.074-3.3S7.85,69.8,7.8,68.734ZM2.92,83.915c.817,3.55,1.73,4.319,1.912,4.319a.1.1,0,0,0,.026,0l.044-.021.021-.009c.3-.18,1.1-1.143,1.821-4.285A45.809,45.809,0,0,0,7.7,77.106a5.12,5.12,0,0,1,0-10.158,45.854,45.854,0,0,0-.954-6.831c-.723-3.14-1.52-4.1-1.82-4.284L4.845,55.8l-.013,0c-.182,0-1.095.769-1.912,4.319a55.694,55.694,0,0,0-1.131,11.9A55.682,55.682,0,0,0,2.92,83.915Z" transform="translate(0 -54.016)" fill="#2181f8"/></g></g></svg>