<svg xmlns="http://www.w3.org/2000/svg" width="32.2" height="32.2" viewBox="0 0 32.2 32.2"><g transform="translate(0.1 0.1)"><path d="M27.314,4.686A16,16,0,0,0,0,16V31.062A.938.938,0,0,0,.937,32H31.062A.938.938,0,0,0,32,31.062V16A15.9,15.9,0,0,0,27.314,4.686Zm1.174,4.72a14.02,14.02,0,0,1,1.6,5.656H24.454a28.69,28.69,0,0,0-.716-5.656ZM27.3,7.531h-4.08a18.79,18.79,0,0,0-1.054-2.6,13.082,13.082,0,0,0-1.385-2.222A14.19,14.19,0,0,1,27.3,7.531Zm-10.36-5.5c1.3.432,2.552,1.741,3.549,3.736a16.384,16.384,0,0,1,.75,1.763h-4.3Zm0,7.373H21.81a26.421,26.421,0,0,1,.769,5.656H16.937ZM15.062,2.033v5.5h-4.3a16.377,16.377,0,0,1,.75-1.763c1-2,2.254-3.3,3.549-3.736Zm0,7.373v5.656H9.421a26.421,26.421,0,0,1,.769-5.656Zm-3.841-6.7A13.084,13.084,0,0,0,9.836,4.93a18.79,18.79,0,0,0-1.054,2.6H4.7A14.19,14.19,0,0,1,11.221,2.708Zm-7.709,6.7h4.75a28.69,28.69,0,0,0-.716,5.656H1.907a14.021,14.021,0,0,1,1.6-5.656ZM30.125,30.125H1.875V16.937h28.25Z" transform="translate(0 0)" fill="#2181f8" stroke="#fff" stroke-width="0.2"/><path d="M59.747,325.687a.781.781,0,0,0,.781-.781V321.8l2.372,3.435a.854.854,0,0,0,.966.353.88.88,0,0,0,.6-.87v-.008l0-5.436a.826.826,0,0,0-.832-.774h-.008a.75.75,0,0,0-.743.781v3.181l-2.5-3.614a.781.781,0,0,0-1.424.444v5.615A.781.781,0,0,0,59.747,325.687Z" transform="translate(-55.281 -298.594)" fill="#2181f8" stroke="#fff" stroke-width="0.2"/><path d="M165.32,325.687h2.37a.781.781,0,1,0,0-1.562H166.1v-1.25h1.414a.781.781,0,1,0,0-1.562H166.1v-1.25h1.589a.781.781,0,0,0,0-1.562h-2.37a.781.781,0,0,0-.781.781v5.625A.781.781,0,0,0,165.32,325.687Z" transform="translate(-154.255 -298.594)" fill="#2181f8" stroke="#fff" stroke-width="0.2"/><path d="M374.02,325.69a2.4,2.4,0,0,0,2.444-1.863,2.191,2.191,0,0,0-1.685-2.419c-.677-.25-1.309-.522-1.517-.613a.315.315,0,0,1-.1-.288.49.49,0,0,1,.393-.387,1.8,1.8,0,0,1,1.477.344l-.005,0h0a.781.781,0,1,0,.983-1.213,3.347,3.347,0,0,0-2.906-.622,2.056,2.056,0,0,0-1.489,1.661,1.865,1.865,0,0,0,.832,1.846.786.786,0,0,0,.108.059c.033.015.81.36,1.684.683.178.066.754.309.688.679a.871.871,0,0,1-.906.575,1.88,1.88,0,0,1-1.381-.577.781.781,0,1,0-1.158,1.049A3.417,3.417,0,0,0,374.02,325.69Z" transform="translate(-348.073 -298.596)" fill="#2181f8" stroke="#fff" stroke-width="0.2"/><path d="M242.856,324.972a.793.793,0,0,0,.03.11.909.909,0,0,0,.856.6h.006a.909.909,0,0,0,.854-.616l.007-.021.965-3.117.96,3.117.01.031a.908.908,0,0,0,1.716-.012.787.787,0,0,0,.027-.1l1.1-5.529a.781.781,0,1,0-1.532-.3l-.592,2.972-.943-3.06a.781.781,0,0,0-1.511.067l-.927,2.994-.59-2.982a.781.781,0,0,0-1.533.3Z" transform="translate(-226.636 -298.593)" fill="#2181f8" stroke="#fff" stroke-width="0.2"/></g></svg>