<svg xmlns="http://www.w3.org/2000/svg" width="28.705" height="38.674" viewBox="0 0 28.705 38.674"><g transform="translate(-63.403 0.25)"><path d="M87.48,22.011a13.326,13.326,0,0,0,3.27-8.771,13,13,0,1,0-25.991,0,13.326,13.326,0,0,0,3.27,8.771L63.755,34.359l5.717-.057L73.89,38l3.865-11.165L81.62,38l4.418-3.7,5.717.057ZM82.645,34.257,79.89,26.3a12.824,12.824,0,0,0,5.848-2.62L88.652,32.1l-3.389-.034Zm-12.4-2.192-3.389.034,2.915-8.419A12.824,12.824,0,0,0,75.62,26.3l-2.755,7.958ZM77.755,2.229a10.923,10.923,0,0,1,10.807,11.01,10.809,10.809,0,1,1-21.615,0A10.923,10.923,0,0,1,77.755,2.229Z" transform="translate(0 0)" fill="#2181f8" stroke="#fff" stroke-width="0.5"/><path d="M166.024,108.707H179.1V99.252l-3.407,1.135-3.134-2.7-3.134,2.7-3.407-1.135Zm2.188-6.381,1.7.566,2.653-2.286,2.653,2.286,1.7-.566v4.152h-8.7Z" transform="translate(-94.809 -90.427)" fill="#2181f8" stroke="#fff" stroke-width="0.5"/></g></svg>