<svg xmlns="http://www.w3.org/2000/svg" xmlns:xlink="http://www.w3.org/1999/xlink" width="45" height="45" viewBox="0 0 45 45"><defs><clipPath id="a"><rect width="45" height="45" transform="translate(620 5779)" fill="#fff" stroke="#707070" stroke-width="1"/></clipPath></defs><g transform="translate(-620 -5779)" clip-path="url(#a)"><g transform="translate(619 5779.358)"><g transform="translate(1 -0.208)"><path d="M11116.5,13670.788a1.5,1.5,0,0,1-1.5-1.5,8.968,8.968,0,0,1,4.861-7.975,5.231,5.231,0,1,1,8.218,0,8.965,8.965,0,0,1,4.858,7.974,1.5,1.5,0,0,1-1.493,1.5Zm1.688-2.991h11.568a5.978,5.978,0,0,0-11.568,0Zm3.544-9.717a2.242,2.242,0,1,0,2.24-2.24A2.242,2.242,0,0,0,11121.728,13658.08Z" transform="translate(-11101.548 -13652.85)" fill="#2181f8"/><path d="M11131.443,13671.438H11116.5a2.149,2.149,0,0,1-2.146-2.146,9.586,9.586,0,0,1,4.573-8.19,5.824,5.824,0,0,1-.833-3.022,5.881,5.881,0,1,1,10.928,3.023,9.584,9.584,0,0,1,4.57,8.189A2.147,2.147,0,0,1,11131.443,13671.438Zm-7.476-17.939a4.585,4.585,0,0,0-4.578,4.581,4.534,4.534,0,0,0,.981,2.836l.487.618-.7.361a8.3,8.3,0,0,0-4.509,7.4.846.846,0,0,0,.846.845h14.948a.845.845,0,0,0,.843-.845,8.293,8.293,0,0,0-4.506-7.4l-.7-.36.487-.619a4.583,4.583,0,0,0-3.6-7.418Zm6.626,14.948h-13.253l.214-.815a6.628,6.628,0,0,1,12.826,0Zm-11.5-1.3h9.741a5.329,5.329,0,0,0-9.741,0Zm4.87-6.172a2.893,2.893,0,1,1,2.895-2.895A2.9,2.9,0,0,1,11123.968,13660.975Zm0-4.484a1.592,1.592,0,1,0,1.594,1.59A1.591,1.591,0,0,0,11123.968,13656.49Z" transform="translate(-11101.548 -13652.85)" fill="#f5f5f5"/><path d="M11116.494,13670.787a1.494,1.494,0,0,1-1.492-1.5,8.969,8.969,0,0,1,4.857-7.973,5.229,5.229,0,1,1,8.219,0,8.969,8.969,0,0,1,4.86,7.973,1.5,1.5,0,0,1-1.5,1.5Zm1.688-2.992h11.573a5.983,5.983,0,0,0-11.573,0Zm3.545-9.713a2.242,2.242,0,1,0,2.243-2.243A2.241,2.241,0,0,0,11121.727,13658.082Z" transform="translate(-11088.095 -13625.943)" fill="#2181f8"/><path d="M11131.442,13671.438h-14.948a2.147,2.147,0,0,1-2.143-2.146,9.587,9.587,0,0,1,4.569-8.188,5.819,5.819,0,0,1-.833-3.021,5.88,5.88,0,1,1,11.761,0,5.825,5.825,0,0,1-.832,3.021,9.584,9.584,0,0,1,4.572,8.188A2.149,2.149,0,0,1,11131.442,13671.438Zm-7.473-17.937a4.586,4.586,0,0,0-4.581,4.581,4.532,4.532,0,0,0,.981,2.834l.487.618-.7.361a8.3,8.3,0,0,0-4.506,7.4.844.844,0,0,0,.842.846h14.948a.846.846,0,0,0,.846-.846,8.3,8.3,0,0,0-4.508-7.4l-.7-.361.487-.618a4.533,4.533,0,0,0,.98-2.834A4.585,4.585,0,0,0,11123.97,13653.5Zm6.628,14.944h-13.259l.214-.815a6.633,6.633,0,0,1,12.831,0Zm-11.5-1.3h9.743a5.334,5.334,0,0,0-9.743,0Zm4.873-6.172a2.892,2.892,0,1,1,2.891-2.891A2.9,2.9,0,0,1,11123.97,13660.973Zm0-4.483a1.591,1.591,0,1,0,1.59,1.593A1.594,1.594,0,0,0,11123.97,13656.489Z" transform="translate(-11088.095 -13625.943)" fill="#f5f5f5"/><path d="M11116.494,13670.787a1.494,1.494,0,0,1-1.492-1.5,8.969,8.969,0,0,1,4.857-7.973,5.23,5.23,0,1,1,8.219,0,8.972,8.972,0,0,1,4.86,7.974,1.5,1.5,0,0,1-1.5,1.5Zm1.688-2.992h11.573a5.983,5.983,0,0,0-11.573,0Zm3.545-9.713a2.242,2.242,0,1,0,2.24-2.243A2.238,2.238,0,0,0,11121.727,13658.082Z" transform="translate(-11115 -13625.943)" fill="#2181f8"/><path d="M11131.442,13671.438h-14.948a2.147,2.147,0,0,1-2.143-2.146,9.587,9.587,0,0,1,4.569-8.188,5.817,5.817,0,0,1-.833-3.021,5.88,5.88,0,1,1,11.761,0,5.819,5.819,0,0,1-.832,3.02,9.588,9.588,0,0,1,4.572,8.189A2.149,2.149,0,0,1,11131.442,13671.438Zm-7.476-17.937a4.585,4.585,0,0,0-4.578,4.581,4.533,4.533,0,0,0,.98,2.834l.488.618-.7.361a8.3,8.3,0,0,0-4.506,7.4.844.844,0,0,0,.842.846h14.948a.846.846,0,0,0,.846-.846,8.3,8.3,0,0,0-4.509-7.4l-.7-.361.488-.618a4.531,4.531,0,0,0,.979-2.833A4.586,4.586,0,0,0,11123.967,13653.5Zm6.631,14.944h-13.259l.214-.815a6.633,6.633,0,0,1,12.831,0Zm-11.5-1.3h9.743a5.334,5.334,0,0,0-9.743,0Zm4.87-6.172a2.892,2.892,0,1,1,2.894-2.891A2.894,2.894,0,0,1,11123.967,13660.973Zm0-4.483a1.591,1.591,0,1,0,1.593,1.593A1.592,1.592,0,0,0,11123.967,13656.489Z" transform="translate(-11115 -13625.943)" fill="#f5f5f5"/><path d="M11127.9,13664.823l-5.426-2.145-5.425,2.145a1.464,1.464,0,0,1-.556.1,1.494,1.494,0,0,1-.553-2.884l5.038-1.991v-5.705a1.5,1.5,0,0,1,2.99,0v5.706l5.038,1.99a1.494,1.494,0,0,1-.552,2.884h-.024A1.477,1.477,0,0,1,11127.9,13664.823Z" transform="translate(-11100.058 -13633.91)" fill="#2181f8"/><path d="M11116.524,13665.576h-.034a2.144,2.144,0,0,1-.783-4.139l4.626-1.829v-5.263a2.146,2.146,0,0,1,4.291,0v5.264l4.627,1.828a2.144,2.144,0,0,1-.783,4.139h-.032a2.148,2.148,0,0,1-.764-.146l-.007,0-5.187-2.05-5.192,2.053A2.128,2.128,0,0,1,11116.524,13665.576Zm-.026-1.3h.026a.832.832,0,0,0,.294-.059l5.66-2.238.239.095,5.422,2.144a.828.828,0,0,0,.3.058h.032a.844.844,0,0,0,.3-1.629l-5.449-2.152v-6.148a.845.845,0,0,0-1.689,0v6.147l-.411.162-5.038,1.991a.844.844,0,0,0,.306,1.629Z" transform="translate(-11100.058 -13633.91)" fill="#f5f5f5"/></g></g></g></svg>