<svg xmlns="http://www.w3.org/2000/svg" xmlns:xlink="http://www.w3.org/1999/xlink" width="45" height="45" viewBox="0 0 45 45"><defs><clipPath id="a"><rect width="45" height="45" transform="translate(1484 5812)" fill="#fff" stroke="#707070" stroke-width="1"/></clipPath></defs><g transform="translate(-1484 -5812)" clip-path="url(#a)"><g transform="translate(1483.514 5811.816)"><path d="M35.385,37.6h.632a1.086,1.086,0,0,0,1.069-1.069V4.423a1.069,1.069,0,0,0-1.069-1.069h-.632a1.053,1.053,0,0,0-1.069,1.069V36.535A1.069,1.069,0,0,0,35.385,37.6Z" fill="none"/><path d="M4.861,24.141V16.817c-.94.1-1.879.162-2.771.178v6.951Q3.419,23.995,4.861,24.141Z" fill="none"/><path d="M39.176,16.364a2.868,2.868,0,0,0-.518,0v8.1h.518a4.115,4.115,0,0,0,0-8.231Z" fill="none"/><path d="M14.193,27.948l-.324-.1q-1.539-.486-3.159-.924h-.162V42.06h3.645Z" fill="none"/><path d="M32.728,5.849a76.294,76.294,0,0,1-9.721,5.411,73.411,73.411,0,0,1-11.892,4.293c-1.912.5-3.483.859-4.7,1.069V24.3c.972.162,2.155.405,3.532.761l1.15.292c1.458.389,2.835.81,4.131,1.231a75.451,75.451,0,0,1,17.5,8.474Z" fill="none"/><path d="M39.176,14.776h-.518V4.423a2.657,2.657,0,0,0-2.641-2.657h-.632a2.657,2.657,0,0,0-2.608,2.155,77.25,77.25,0,0,1-10.45,5.914,73.3,73.3,0,0,1-11.617,4.2,40.018,40.018,0,0,1-5.168,1.118h0a34.963,34.963,0,0,1-4.245.275.794.794,0,0,0-.81.778v8.522a.794.794,0,0,0,.794.778,32.4,32.4,0,0,1,4.261.292h0a29.164,29.164,0,0,1,3.419.68V42.805a.794.794,0,0,0,.794.794h5.233a.794.794,0,0,0,.794-.794V28.515a73.9,73.9,0,0,1,17,8.522,2.657,2.657,0,0,0,2.608,2.139h.632a2.641,2.641,0,0,0,2.641-2.641v-10.4h.518a5.7,5.7,0,1,0,0-11.341Zm4.131,5.7a4.131,4.131,0,0,1-4.131,4.115h-.518v-8.1a2.868,2.868,0,0,1,.518,0,4.131,4.131,0,0,1,4.131,3.986ZM34.315,4.423a1.053,1.053,0,0,1,1.069-1.069h.632a1.069,1.069,0,0,1,1.069,1.069V36.535A1.086,1.086,0,0,1,36.017,37.6h-.632a1.069,1.069,0,0,1-1.069-1.069ZM4.861,16.817v7.323q-1.442-.146-2.771-.194V17C2.965,16.979,3.9,16.915,4.861,16.817Zm10.385,9.721c-1.3-.421-2.673-.842-4.131-1.231l-1.15-.292C8.571,24.74,7.388,24.5,6.481,24.3v-7.68c1.215-.211,2.787-.567,4.7-1.069A73.411,73.411,0,0,0,22.99,11.341,76.294,76.294,0,0,0,32.711,5.93V35.093A75.451,75.451,0,0,0,15.23,26.62Zm-4.682.259h.162q1.62.437,3.24.924l.324.1V41.882H10.547Z" fill="#2181f8"/></g></g></svg>