<svg xmlns="http://www.w3.org/2000/svg" xmlns:xlink="http://www.w3.org/1999/xlink" width="45" height="45" viewBox="0 0 45 45"><defs><clipPath id="a"><rect width="45" height="45" transform="translate(1050 5815)" fill="#fff" stroke="#707070" stroke-width="1"/></clipPath></defs><g transform="translate(-1050 -5815)" clip-path="url(#a)"><g transform="translate(1032.171 5699.461)"><g transform="translate(18.097 118.476)"><path d="M12.251,26.139a1.408,1.408,0,0,0,.921-.322l9.394-8.151,5.987,5.2a1.351,1.351,0,0,0,1.842-.046l9.3-8.52,2.349,2.349a1.325,1.325,0,0,0,.967.414,1.275,1.275,0,0,0,.414-.046,1.341,1.341,0,0,0,.967-1.059l1.52-7.783A1.359,1.359,0,0,0,44.3,6.567L36.474,8.041a1.341,1.341,0,0,0-1.059.967,1.488,1.488,0,0,0,.322,1.382l1.98,1.98-8.289,7.6-5.987-5.2a1.34,1.34,0,0,0-1.8,0L11.33,23.7a1.341,1.341,0,0,0-.138,1.934A1.45,1.45,0,0,0,12.251,26.139ZM42.829,9.653l-.645,3.224L39.56,10.251Z" transform="translate(-6.218 -6.539)" fill="#2181f8"/><path d="M12.251,26.639a1.956,1.956,0,0,1-1.433-.675,1.812,1.812,0,0,1-.47-1.345,1.847,1.847,0,0,1,.657-1.3l10.31-8.929a1.84,1.84,0,0,1,2.459,0L29.42,19.3l7.575-6.944-1.634-1.635a2,2,0,0,1-.428-1.842,1.83,1.83,0,0,1,1.452-1.327l7.823-1.473a1.936,1.936,0,0,1,.376-.037,1.848,1.848,0,0,1,1.316.543,1.87,1.87,0,0,1,.505,1.695l-1.519,7.777A1.83,1.83,0,0,1,43.572,17.5a1.751,1.751,0,0,1-.559.067,1.815,1.815,0,0,1-1.321-.561L39.683,15l-8.942,8.19a1.8,1.8,0,0,1-1.272.524,1.937,1.937,0,0,1-1.235-.456l-.008-.007-5.659-4.919L13.492,26.2A1.912,1.912,0,0,1,12.251,26.639Zm10.292-11.72a.832.832,0,0,0-.562.215l-.009.008L11.653,24.08a.856.856,0,0,0-.308.6.821.821,0,0,0,.215.612l.011.012a.957.957,0,0,0,.68.332.912.912,0,0,0,.6-.2L22.567,17l6.31,5.485a.935.935,0,0,0,.591.221.8.8,0,0,0,.574-.239l.016-.015,9.655-8.843L42.4,16.3a.827.827,0,0,0,.614.268.918.918,0,0,0,.256-.02l.027-.008a.838.838,0,0,0,.607-.666v-.006l1.52-7.783a.857.857,0,0,0-.84-1.044.935.935,0,0,0-.183.018H44.4L36.567,8.532a.84.84,0,0,0-.669.607.984.984,0,0,0,.206.909l2.337,2.337-9,8.253-6.332-5.5A.832.832,0,0,0,22.544,14.919ZM42.492,13.89,38.532,9.931l4.932-.9Zm-1.9-3.319,1.291,1.291.317-1.585Z" transform="translate(-6.218 -6.539)" fill="#f5f5f5"/><path d="M43.812,58.364H40.957V41.647a1.382,1.382,0,0,0-2.763,0V58.364H35.431V36.582a1.382,1.382,0,1,0-2.763,0V58.364H29.9V46.252a1.382,1.382,0,1,0-2.763,0V58.364H24.378V49.936a1.382,1.382,0,1,0-2.763,0v8.427H18.852V41.647a1.382,1.382,0,0,0-2.763,0V58.364H13.326V53.621a1.382,1.382,0,1,0-2.763,0v4.743H7.8V49.476a1.382,1.382,0,1,0-2.763,0v8.888H2.182a1.382,1.382,0,0,0,0,2.763h41.63a1.382,1.382,0,1,0,0-2.763Z" transform="translate(-0.8 -22.001)" fill="#2181f8"/><path d="M43.812,61.627H2.182a1.882,1.882,0,1,1,0-3.763H4.537V49.476a1.882,1.882,0,1,1,3.763,0v8.388h1.763V53.621a1.882,1.882,0,0,1,3.763,0v4.243h1.763V41.647a1.882,1.882,0,0,1,3.763,0V57.864h1.763V49.936a1.882,1.882,0,0,1,3.763,0v7.927h1.763V46.252a1.882,1.882,0,1,1,3.763,0V57.864h1.763V36.582a1.882,1.882,0,1,1,3.763,0V57.864h1.763V41.647a1.882,1.882,0,0,1,3.763,0V57.864h2.355a1.882,1.882,0,1,1,0,3.763ZM2.182,58.864a.882.882,0,1,0,0,1.763h41.63a.882.882,0,1,0,0-1.763H40.457V41.647a.882.882,0,0,0-1.763,0V58.864H34.931V36.582a.882.882,0,1,0-1.763,0V58.864H29.4V46.252a.882.882,0,1,0-1.763,0V58.864H23.878V49.936a.882.882,0,0,0-1.763,0v8.927H18.352V41.647a.882.882,0,0,0-1.763,0V58.864H12.826V53.621a.882.882,0,0,0-1.763,0v5.243H7.3V49.476a.882.882,0,1,0-1.763,0v9.388Z" transform="translate(-0.8 -22.001)" fill="#f5f5f5"/></g></g></g></svg>