<svg xmlns="http://www.w3.org/2000/svg" xmlns:xlink="http://www.w3.org/1999/xlink" width="45" height="45" viewBox="0 0 45 45"><defs><clipPath id="a"><rect width="45" height="45" transform="translate(380 5798)" fill="#fff" stroke="#707070" stroke-width="1"/></clipPath></defs><g transform="translate(-380 -5798)" clip-path="url(#a)"><g transform="translate(380 5799.585)"><path d="M130.6,103.141a20.719,20.719,0,0,0-12.7-9.672,1.138,1.138,0,0,1-.435-.115,20.815,20.815,0,0,0-17.327,3.108,1.9,1.9,0,1,0,2.181,3.1A17.041,17.041,0,0,1,116.5,97.021a1.126,1.126,0,0,1,.435.115,17.064,17.064,0,1,1-21.045,13.042l.493.867a1.9,1.9,0,1,0,3.3-1.876l-2.794-4.907a1.9,1.9,0,0,0-2.586-.71l-4.907,2.793a1.9,1.9,0,1,0,1.876,3.3l.959-.546a20.853,20.853,0,1,0,38.374-5.953Z" transform="translate(-88.431 -92.66)" fill="#2181f8"/><path d="M112.132,91.66h0a21.826,21.826,0,0,1,5.589.729l.1.025.089.044a.137.137,0,0,0,.053.014l.1.006.1.025a21.72,21.72,0,0,1,13.069,9.729h0l.2.346.007.011.028.048A21.855,21.855,0,1,1,90.9,110.831a2.9,2.9,0,0,1-2.009-5.355l4.907-2.793a2.895,2.895,0,0,1,3.949,1.085l2.793,4.907a2.895,2.895,0,0,1-3.978,3.932,16.063,16.063,0,1,0,20.111-14.5l-.1-.026-.091-.045a.125.125,0,0,0-.048-.013l-.1-.006-.1-.026a16.04,16.04,0,0,0-13.346,2.395,2.9,2.9,0,1,1-3.332-4.738,21.812,21.812,0,0,1,12.569-3.985Zm5,2.641a19.826,19.826,0,0,0-5-.641h0a19.714,19.714,0,0,0-11.417,3.62.9.9,0,1,0,1.03,1.467,18.04,18.04,0,0,1,14.925-2.715,2.108,2.108,0,0,1,.6.159,18.057,18.057,0,0,1,6.408,31.714,18.021,18.021,0,0,1-15.056,3.356,18.064,18.064,0,0,1-13.714-21.286l.537-2.594,1.8,3.169a.9.9,0,0,0,.781.453.882.882,0,0,0,.441-.118.9.9,0,0,0,.336-1.222l-2.793-4.907a.9.9,0,0,0-.78-.453.882.882,0,0,0-.441.118l-4.908,2.793a.9.9,0,0,0-.336,1.222.9.9,0,0,0,.78.453.882.882,0,0,0,.441-.118l2.922-1.663-.491,2.2a19.853,19.853,0,1,0,36.6-5.553l-.067-.116a19.847,19.847,0,0,0-12.006-9.184A2.122,2.122,0,0,1,117.129,94.3Z" transform="translate(-88.431 -92.66)" fill="#f5f5f5"/><path d="M151.884,117.556a2.191,2.191,0,0,0-2.191,2.191v11.525a2.2,2.2,0,0,0,.043.429c.013.065.037.125.056.188a1.28,1.28,0,0,0,.179.431c.031.056.055.114.091.167a2.2,2.2,0,0,0,.274.336l5.324,5.324a2.191,2.191,0,0,0,3.1-3.1l-4.683-4.683V119.747a2.191,2.191,0,0,0-2.191-2.191Z" transform="translate(-128.653 -108.475)" fill="#2181f8"/><path d="M151.884,116.406h0a3.341,3.341,0,0,1,3.341,3.341v10.141l4.347,4.347a3.341,3.341,0,1,1-4.724,4.724l-5.324-5.324a3.358,3.358,0,0,1-.419-.512,2.049,2.049,0,0,1-.13-.229v0a2.419,2.419,0,0,1-.291-.7v0a2.109,2.109,0,0,1-.072-.262,3.351,3.351,0,0,1-.065-.65V119.747a3.345,3.345,0,0,1,3.341-3.341Zm5.325,21.231a1.041,1.041,0,0,0,.736-1.776l-5.02-5.02V119.747a1.041,1.041,0,0,0-1.041-1.041h0a1.042,1.042,0,0,0-1.041,1.041v11.524a1.045,1.045,0,0,0,.016.18l0,.013c.011.032.021.065.031.1l.013.043.009.043a.13.13,0,0,0,.018.044l.024.037.021.038c.017.031.033.063.049.094l0,.008a1.054,1.054,0,0,0,.118.141l5.323,5.323A1.034,1.034,0,0,0,157.21,137.637Z" transform="translate(-128.653 -108.475)" fill="#f5f5f5"/></g></g></svg>